P3
# This is a dose file slice at depth 30 of 100
60 60
# now we give the maximum value of the RGB coordinates.
4982
6 0 0 17 0 0 18 0 0 19 0 0 24 0 0 23 0 0 23 0 0 24 0 0 32 0 0 29 0 0 32 0 0 34 0 0 31 0 0 33 0 0 30 0 0 40 0 0 41 0 0 39 0 0 41 0 0 42 0 0 46 0 0 41 0 0 42 0 0 49 0 0 46 0 0 44 0 0 48 0 0 44 0 0 48 0 0 47 0 0 50 0 0 42 0 0 50 0 0 47 0 0 44 0 0 48 0 0 45 0 0 41 0 0 49 0 0 43 0 0 42 0 0 38 0 0 36 0 0 34 0 0 35 0 0 42 0 0 35 0 0 36 0 0 31 0 0 34 0 0 34 0 0 25 0 0 27 0 0 25 0 0 26 0 0 21 0 0 18 0 0 17 0 0 16 0 0 16 0 0 
17 0 0 47 0 0 48 0 0 56 0 0 60 0 0 61 0 0 64 0 0 62 0 0 74 0 0 74 0 0 91 0 0 88 0 0 96 0 0 101 0 0 98 0 0 106 0 0 99 0 0 112 0 0 123 0 0 121 0 0 119 0 0 123 0 0 122 0 0 138 0 0 132 0 0 127 0 0 133 0 0 137 0 0 141 0 0 131 0 0 138 0 0 138 0 0 130 0 0 127 0 0 127 0 0 140 0 0 137 0 0 125 0 0 126 0 0 118 0 0 124 0 0 128 0 0 120 0 0 119 0 0 120 0 0 95 0 0 97 0 0 102 0 0 96 0 0 84 0 0 76 0 0 71 0 0 71 0 0 62 0 0 69 0 0 59 0 0 55 0 0 50 0 0 52 0 0 41 0 0 
14 0 0 50 0 0 50 0 0 51 0 0 66 0 0 74 0 0 74 0 0 69 0 0 85 0 0 90 0 0 98 0 0 91 0 0 99 0 0 114 0 0 120 0 0 122 0 0 129 0 0 126 0 0 132 0 0 139 0 0 134 0 0 139 0 0 149 0 0 149 0 0 142 0 0 156 0 0 153 0 0 158 0 0 137 0 0 155 0 0 150 0 0 145 0 0 158 0 0 161 0 0 149 0 0 154 0 0 148 0 0 137 0 0 141 0 0 144 0 0 138 0 0 144 0 0 122 0 0 128 0 0 128 0 0 121 0 0 120 0 0 118 0 0 107 0 0 91 0 0 88 0 0 87 0 0 80 0 0 75 0 0 68 0 0 70 0 0 68 0 0 53 0 0 48 0 0 54 0 0 
19 0 0 52 0 0 56 0 0 60 0 0 81 0 0 72 0 0 86 0 0 83 0 0 93 0 0 97 0 0 101 0 0 112 0 0 111 0 0 131 0 0 129 0 0 133 0 0 152 0 0 151 0 0 161 0 0 167 0 0 174 0 0 159 0 0 165 0 0 165 0 0 174 0 0 173 0 0 169 0 0 183 0 0 184 0 0 183 0 0 185 0 0 177 0 0 177 0 0 168 0 0 175 0 0 172 0 0 175 0 0 146 0 0 163 0 0 156 0 0 170 0 0 159 0 0 157 0 0 145 0 0 137 0 0 142 0 0 120 0 0 128 0 0 116 0 0 109 0 0 108 0 0 97 0 0 95 0 0 89 0 0 78 0 0 78 0 0 74 0 0 62 0 0 56 0 0 54 0 0 
27 0 0 61 0 0 61 0 0 63 0 0 77 0 0 83 0 0 88 0 0 96 0 0 108 0 0 111 0 0 119 0 0 126 0 0 136 0 0 136 0 0 157 0 0 153 0 0 160 0 0 154 0 0 165 0 0 169 0 0 166 0 0 185 0 0 183 0 0 189 0 0 195 0 0 192 0 0 202 0 0 197 0 0 198 0 0 195 0 0 207 0 0 204 0 0 186 0 0 215 0 0 208 0 0 190 0 0 197 0 0 202 0 0 196 0 0 187 0 0 187 0 0 185 0 0 176 0 0 168 0 0 165 0 0 169 0 0 162 0 0 154 0 0 136 0 0 122 0 0 122 0 0 128 0 0 111 0 0 95 0 0 82 0 0 82 0 0 79 0 0 67 0 0 66 0 0 53 0 0 
25 0 0 68 0 0 65 0 0 70 0 0 74 0 0 94 0 0 100 0 0 103 0 0 116 0 0 125 0 0 135 0 0 149 0 0 156 0 0 176 0 0 171 0 0 180 0 0 180 0 0 200 0 0 213 0 0 212 0 0 234 0 0 221 0 0 226 0 0 223 0 0 225 0 0 229 0 0 242 0 0 211 0 0 229 0 0 229 0 0 231 0 0 232 0 0 232 0 0 229 0 0 236 0 0 213 0 0 206 0 0 230 0 0 219 0 0 208 0 0 202 0 0 210 0 0 192 0 0 193 0 0 173 0 0 182 0 0 178 0 0 162 0 0 155 0 0 160 0 0 130 0 0 118 0 0 122 0 0 115 0 0 94 0 0 88 0 0 87 0 0 73 0 0 72 0 0 67 0 0 
20 0 0 70 0 0 72 0 0 83 0 0 93 0 0 85 0 0 113 0 0 117 0 0 131 0 0 140 0 0 165 0 0 166 0 0 173 0 0 171 0 0 198 0 0 197 0 0 224 0 0 216 0 0 218 0 0 251 0 0 255 0 0 253 0 0 270 0 0 240 0 0 263 0 0 265 0 0 254 0 0 247 0 0 283 0 0 275 0 0 273 0 0 271 0 0 255 0 0 250 0 0 270 0 0 259 0 0 241 0 0 253 0 0 243 0 0 243 0 0 243 0 0 246 0 0 235 0 0 228 0 0 221 0 0 196 0 0 187 0 0 166 0 0 176 0 0 160 0 0 156 0 0 144 0 0 135 0 0 125 0 0 106 0 0 107 0 0 84 0 0 75 0 0 79 0 0 69 0 0 
24 0 0 75 0 0 79 0 0 93 0 0 99 0 0 111 0 0 117 0 0 135 0 0 146 0 0 154 0 0 170 0 0 188 0 0 196 0 0 226 0 0 236 0 0 239 0 0 253 0 0 281 0 0 274 0 0 263 0 0 270 0 0 314 0 0 280 0 0 290 0 0 299 0 0 321 0 0 301 0 0 326 0 0 300 0 0 313 0 0 302 0 0 326 0 0 312 0 0 320 0 0 296 0 0 312 0 0 291 0 0 281 0 0 279 0 0 287 0 0 281 0 0 269 0 0 259 0 0 264 0 0 274 0 0 252 0 0 237 0 0 201 0 0 211 0 0 195 0 0 180 0 0 153 0 0 136 0 0 121 0 0 111 0 0 107 0 0 92 0 0 91 0 0 80 0 0 69 0 0 
27 0 0 74 0 0 91 0 0 91 0 0 111 0 0 111 0 0 126 0 0 146 0 0 173 0 0 196 0 0 211 0 0 217 0 0 257 0 0 265 0 0 264 0 0 289 0 0 284 0 0 297 0 0 286 0 0 312 0 0 318 0 0 334 0 0 355 0 0 352 0 0 354 0 0 359 0 0 334 0 0 361 0 0 381 0 0 353 0 0 359 0 0 380 0 0 365 0 0 366 0 0 346 0 0 348 0 0 355 0 0 314 0 0 325 0 0 315 0 0 321 0 0 321 0 0 332 0 0 293 0 0 280 0 0 274 0 0 281 0 0 240 0 0 236 0 0 217 0 0 197 0 0 178 0 0 166 0 0 148 0 0 119 0 0 105 0 0 104 0 0 88 0 0 81 0 0 66 0 0 
27 0 0 75 0 0 89 0 0 97 0 0 112 0 0 137 0 0 141 0 0 167 0 0 190 0 0 207 0 0 256 0 0 267 0 0 290 0 0 310 0 0 331 0 0 357 0 0 368 0 0 385 0 0 383 0 0 372 0 0 412 0 0 400 0 0 405 0 0 451 0 0 447 0 0 416 0 0 408 0 0 432 0 0 411 0 0 423 0 0 411 0 0 445 0 0 419 0 0 418 0 0 435 0 0 420 0 0 409 0 0 397 0 0 447 0 0 395 0 0 413 0 0 419 0 0 401 0 0 396 0 0 366 0 0 336 0 0 360 0 0 330 0 0 293 0 0 265 0 0 240 0 0 205 0 0 184 0 0 168 0 0 140 0 0 124 0 0 111 0 0 100 0 0 88 0 0 73 0 0 
30 0 0 79 0 0 94 0 0 112 0 0 115 0 0 142 0 0 157 0 0 174 0 0 206 0 0 250 0 0 865 0 0 1508 0 0 1580 0 0 1532 0 0 1568 0 0 1636 0 0 1627 0 0 1684 0 0 1702 0 0 1696 0 0 1652 0 0 1712 0 0 1632 0 0 1694 0 0 1682 0 0 1687 0 0 1650 0 0 1698 0 0 1733 0 0 1713 0 0 1685 0 0 1684 0 0 1729 0 0 1701 0 0 1704 0 0 1730 0 0 1678 0 0 1662 0 0 1713 0 0 1600 0 0 1678 0 0 1695 0 0 1625 0 0 1663 0 0 1638 0 0 1641 0 0 1635 0 0 1565 0 0 1567 0 0 1523 0 0 903 0 0 236 0 0 212 0 0 178 0 0 156 0 0 130 0 0 122 0 0 111 0 0 94 0 0 89 0 0 
35 0 0 86 0 0 104 0 0 114 0 0 130 0 0 159 0 0 162 0 0 196 0 0 214 0 0 283 0 0 1466 0 0 2740 0 0 2741 0 0 2843 0 0 2873 0 0 2855 0 0 2882 0 0 2924 0 0 2939 0 0 2857 0 0 2945 0 0 2923 0 0 2901 0 0 2940 0 0 2962 0 0 2973 0 0 2859 0 0 2970 0 0 2946 0 0 2918 0 0 2968 0 0 3020 0 0 2940 0 0 2984 0 0 2968 0 0 2929 0 0 3016 0 0 2983 0 0 2935 0 0 2879 0 0 2973 0 0 2969 0 0 2771 0 0 2813 0 0 2771 0 0 2873 0 0 2827 0 0 2860 0 0 2811 0 0 2694 0 0 1460 0 0 266 0 0 209 0 0 185 0 0 180 0 0 142 0 0 120 0 0 121 0 0 95 0 0 83 0 0 
37 0 0 89 0 0 103 0 0 121 0 0 128 0 0 157 0 0 170 0 0 220 0 0 233 0 0 293 0 0 1553 0 0 2791 0 0 2842 0 0 2935 0 0 2924 0 0 2869 0 0 2995 0 0 2941 0 0 2903 0 0 2951 0 0 2975 0 0 3060 0 0 2989 0 0 2974 0 0 2999 0 0 3040 0 0 3008 0 0 2997 0 0 3039 0 0 3056 0 0 3070 0 0 3039 0 0 3009 0 0 3071 0 0 2985 0 0 3012 0 0 2988 0 0 2999 0 0 3047 0 0 3030 0 0 3000 0 0 2929 0 0 2935 0 0 2920 0 0 2980 0 0 2970 0 0 2891 0 0 2905 0 0 2873 0 0 2764 0 0 1556 0 0 307 0 0 225 0 0 200 0 0 181 0 0 162 0 0 136 0 0 110 0 0 108 0 0 92 0 0 
36 0 0 107 0 0 115 0 0 143 0 0 146 0 0 169 0 0 193 0 0 226 0 0 260 0 0 324 0 0 1578 0 0 2760 0 0 2862 0 0 3007 0 0 2980 0 0 3003 0 0 2981 0 0 2996 0 0 3085 0 0 2968 0 0 3133 0 0 3030 0 0 3127 0 0 3029 0 0 3087 0 0 3021 0 0 3026 0 0 3118 0 0 3032 0 0 3063 0 0 3021 0 0 3103 0 0 3000 0 0 3111 0 0 3017 0 0 3062 0 0 3004 0 0 3090 0 0 3069 0 0 3029 0 0 2978 0 0 3096 0 0 3029 0 0 2965 0 0 2921 0 0 3004 0 0 2981 0 0 2940 0 0 2856 0 0 2806 0 0 1567 0 0 321 0 0 266 0 0 235 0 0 178 0 0 163 0 0 134 0 0 123 0 0 111 0 0 97 0 0 
37 0 0 94 0 0 129 0 0 135 0 0 155 0 0 166 0 0 213 0 0 247 0 0 266 0 0 338 0 0 1589 0 0 2832 0 0 2896 0 0 2933 0 0 2992 0 0 3095 0 0 3059 0 0 3016 0 0 3035 0 0 3081 0 0 3012 0 0 3032 0 0 3154 0 0 3023 0 0 3214 0 0 3083 0 0 2983 0 0 3210 0 0 3199 0 0 3098 0 0 3106 0 0 3162 0 0 3221 0 0 3090 0 0 3106 0 0 3107 0 0 3107 0 0 3122 0 0 3153 0 0 3032 0 0 3129 0 0 3077 0 0 3101 0 0 3079 0 0 3050 0 0 2992 0 0 2982 0 0 3019 0 0 2937 0 0 2933 0 0 1586 0 0 338 0 0 286 0 0 226 0 0 198 0 0 189 0 0 160 0 0 133 0 0 118 0 0 100 0 0 
37 0 0 101 0 0 104 0 0 132 0 0 156 0 0 177 0 0 218 0 0 225 0 0 288 0 0 352 0 0 1577 0 0 2925 0 0 2901 0 0 2915 0 0 3104 0 0 3000 0 0 3095 0 0 3151 0 0 3084 0 0 3068 0 0 3112 0 0 3179 0 0 3212 0 0 3198 0 0 3129 0 0 3229 0 0 3157 0 0 3225 0 0 3100 0 0 3171 0 0 3154 0 0 3149 0 0 3179 0 0 3058 0 0 3128 0 0 3151 0 0 3142 0 0 3164 0 0 3166 0 0 3117 0 0 3107 0 0 3147 0 0 3123 0 0 3094 0 0 3145 0 0 3108 0 0 3027 0 0 2925 0 0 2878 0 0 2824 0 0 1591 0 0 363 0 0 286 0 0 252 0 0 220 0 0 181 0 0 144 0 0 150 0 0 129 0 0 109 0 0 
38 0 0 114 0 0 127 0 0 142 0 0 169 0 0 192 0 0 222 0 0 256 0 0 282 0 0 374 0 0 1614 0 0 2846 0 0 2995 0 0 3037 0 0 3039 0 0 3078 0 0 3060 0 0 3074 0 0 3190 0 0 3167 0 0 3109 0 0 3090 0 0 3206 0 0 3192 0 0 3234 0 0 3265 0 0 3234 0 0 3170 0 0 3188 0 0 3245 0 0 3153 0 0 3189 0 0 3103 0 0 3170 0 0 3198 0 0 3099 0 0 3176 0 0 3187 0 0 3118 0 0 3206 0 0 3159 0 0 3143 0 0 3132 0 0 3058 0 0 3084 0 0 2955 0 0 3074 0 0 3001 0 0 2997 0 0 2822 0 0 1664 0 0 376 0 0 308 0 0 253 0 0 218 0 0 186 0 0 163 0 0 147 0 0 130 0 0 113 0 0 
38 0 0 116 0 0 123 0 0 142 0 0 177 0 0 195 0 0 254 0 0 279 0 0 315 0 0 374 0 0 1606 0 0 2926 0 0 2940 0 0 3141 0 0 3050 0 0 3064 0 0 3151 0 0 3127 0 0 3096 0 0 3174 0 0 3121 0 0 3147 0 0 3199 0 0 3164 0 0 3184 0 0 3137 0 0 3203 0 0 3186 0 0 3159 0 0 3257 0 0 3253 0 0 3207 0 0 3182 0 0 3186 0 0 3217 0 0 3214 0 0 3270 0 0 3205 0 0 3231 0 0 3097 0 0 3134 0 0 3120 0 0 3189 0 0 3045 0 0 3104 0 0 3104 0 0 3059 0 0 3033 0 0 2986 0 0 2910 0 0 1642 0 0 372 0 0 309 0 0 259 0 0 235 0 0 179 0 0 169 0 0 145 0 0 133 0 0 115 0 0 
42 0 0 118 0 0 128 0 0 149 0 0 166 0 0 210 0 0 237 0 0 298 0 0 330 0 0 414 0 0 1712 0 0 2939 0 0 2899 0 0 3005 0 0 3072 0 0 2951 0 0 3140 0 0 3097 0 0 3123 0 0 3230 0 0 3171 0 0 3164 0 0 3238 0 0 3193 0 0 3184 0 0 3218 0 0 3186 0 0 3215 0 0 3272 0 0 3233 0 0 3156 0 0 3186 0 0 3193 0 0 3145 0 0 3281 0 0 3227 0 0 3129 0 0 3197 0 0 3236 0 0 3092 0 0 3180 0 0 3158 0 0 3104 0 0 3174 0 0 3109 0 0 3133 0 0 3031 0 0 2987 0 0 2946 0 0 2835 0 0 1623 0 0 404 0 0 308 0 0 271 0 0 226 0 0 199 0 0 181 0 0 139 0 0 135 0 0 117 0 0 
38 0 0 117 0 0 140 0 0 156 0 0 163 0 0 200 0 0 226 0 0 272 0 0 324 0 0 404 0 0 1635 0 0 2936 0 0 2983 0 0 3065 0 0 2993 0 0 3105 0 0 3086 0 0 3157 0 0 3185 0 0 3288 0 0 3209 0 0 3282 0 0 3207 0 0 3272 0 0 3256 0 0 3275 0 0 3199 0 0 3257 0 0 3257 0 0 3236 0 0 3238 0 0 3179 0 0 3255 0 0 3242 0 0 3271 0 0 3255 0 0 3189 0 0 3287 0 0 3304 0 0 3252 0 0 3202 0 0 3113 0 0 3224 0 0 3165 0 0 3126 0 0 3093 0 0 3088 0 0 3063 0 0 2929 0 0 2917 0 0 1670 0 0 417 0 0 330 0 0 266 0 0 228 0 0 202 0 0 176 0 0 164 0 0 128 0 0 121 0 0 
40 0 0 127 0 0 138 0 0 164 0 0 176 0 0 214 0 0 234 0 0 280 0 0 323 0 0 417 0 0 1697 0 0 2887 0 0 2988 0 0 3080 0 0 3035 0 0 2995 0 0 3188 0 0 3126 0 0 3216 0 0 3252 0 0 3163 0 0 3218 0 0 3230 0 0 3190 0 0 3306 0 0 3197 0 0 3201 0 0 3307 0 0 3222 0 0 3225 0 0 3158 0 0 3253 0 0 3176 0 0 3234 0 0 3259 0 0 3212 0 0 3186 0 0 3275 0 0 3251 0 0 3178 0 0 3322 0 0 3252 0 0 3160 0 0 3095 0 0 3123 0 0 3105 0 0 3065 0 0 3064 0 0 3027 0 0 2932 0 0 1657 0 0 419 0 0 336 0 0 267 0 0 235 0 0 206 0 0 185 0 0 182 0 0 136 0 0 125 0 0 
41 0 0 128 0 0 139 0 0 170 0 0 179 0 0 233 0 0 264 0 0 289 0 0 326 0 0 416 0 0 1638 0 0 2875 0 0 2988 0 0 3058 0 0 3125 0 0 3137 0 0 3207 0 0 3231 0 0 3186 0 0 3165 0 0 3236 0 0 3250 0 0 3179 0 0 3230 0 0 3299 0 0 3255 0 0 3324 0 0 3254 0 0 3208 0 0 3296 0 0 3343 0 0 3295 0 0 3305 0 0 3334 0 0 3295 0 0 3247 0 0 3251 0 0 3281 0 0 3254 0 0 3228 0 0 3294 0 0 3159 0 0 3203 0 0 3238 0 0 3143 0 0 3193 0 0 3016 0 0 3035 0 0 3090 0 0 2884 0 0 1633 0 0 416 0 0 337 0 0 280 0 0 249 0 0 218 0 0 200 0 0 170 0 0 147 0 0 127 0 0 
48 0 0 119 0 0 147 0 0 169 0 0 181 0 0 218 0 0 249 0 0 281 0 0 337 0 0 419 0 0 1690 0 0 2868 0 0 3008 0 0 3071 0 0 3089 0 0 3114 0 0 3157 0 0 3191 0 0 3216 0 0 3244 0 0 3242 0 0 3243 0 0 3310 0 0 3283 0 0 3294 0 0 3298 0 0 3278 0 0 3207 0 0 3347 0 0 3289 0 0 3302 0 0 3329 0 0 3307 0 0 3281 0 0 3277 0 0 3189 0 0 3281 0 0 3261 0 0 3284 0 0 3242 0 0 3268 0 0 3296 0 0 3151 0 0 3175 0 0 3097 0 0 3182 0 0 3127 0 0 3129 0 0 3069 0 0 2985 0 0 1607 0 0 411 0 0 342 0 0 305 0 0 245 0 0 214 0 0 188 0 0 164 0 0 155 0 0 143 0 0 
46 0 0 125 0 0 152 0 0 166 0 0 196 0 0 227 0 0 249 0 0 292 0 0 327 0 0 433 0 0 1685 0 0 3017 0 0 3012 0 0 3004 0 0 3113 0 0 3074 0 0 3183 0 0 3219 0 0 3264 0 0 3230 0 0 3233 0 0 3218 0 0 3199 0 0 3253 0 0 3266 0 0 3280 0 0 3206 0 0 3237 0 0 3218 0 0 3396 0 0 3185 0 0 3295 0 0 3289 0 0 3319 0 0 3285 0 0 3210 0 0 3211 0 0 3173 0 0 3273 0 0 3266 0 0 3241 0 0 3181 0 0 3186 0 0 3132 0 0 3105 0 0 3208 0 0 3201 0 0 3079 0 0 2965 0 0 2930 0 0 1649 0 0 426 0 0 346 0 0 270 0 0 254 0 0 220 0 0 184 0 0 167 0 0 144 0 0 125 0 0 
42 0 0 132 0 0 144 0 0 184 0 0 183 0 0 235 0 0 254 0 0 300 0 0 333 0 0 440 0 0 1736 0 0 2964 0 0 2926 0 0 3123 0 0 3118 0 0 3111 0 0 3180 0 0 3160 0 0 3210 0 0 3236 0 0 3205 0 0 3238 0 0 3219 0 0 3264 0 0 3247 0 0 3245 0 0 3309 0 0 3212 0 0 3342 0 0 3306 0 0 3291 0 0 3313 0 0 3282 0 0 3283 0 0 3283 0 0 3356 0 0 3273 0 0 3248 0 0 3281 0 0 3232 0 0 3314 0 0 3194 0 0 3198 0 0 3162 0 0 3161 0 0 3168 0 0 3087 0 0 3173 0 0 3070 0 0 2947 0 0 1672 0 0 417 0 0 368 0 0 293 0 0 252 0 0 218 0 0 190 0 0 171 0 0 143 0 0 141 0 0 
49 0 0 132 0 0 163 0 0 188 0 0 199 0 0 225 0 0 253 0 0 293 0 0 346 0 0 419 0 0 1740 0 0 2885 0 0 3010 0 0 3108 0 0 3060 0 0 3176 0 0 3193 0 0 3232 0 0 3193 0 0 3139 0 0 3234 0 0 3256 0 0 3294 0 0 3253 0 0 3273 0 0 3246 0 0 3312 0 0 3332 0 0 3266 0 0 3326 0 0 3320 0 0 3191 0 0 3292 0 0 3252 0 0 3309 0 0 3282 0 0 3331 0 0 3258 0 0 3308 0 0 3274 0 0 3257 0 0 3242 0 0 3246 0 0 3151 0 0 3160 0 0 3171 0 0 3145 0 0 3091 0 0 3088 0 0 2908 0 0 1664 0 0 424 0 0 361 0 0 323 0 0 263 0 0 223 0 0 193 0 0 174 0 0 148 0 0 123 0 0 
43 0 0 141 0 0 151 0 0 176 0 0 207 0 0 240 0 0 246 0 0 290 0 0 353 0 0 427 0 0 1726 0 0 2888 0 0 2948 0 0 3038 0 0 3063 0 0 3207 0 0 3213 0 0 3201 0 0 3208 0 0 3258 0 0 3134 0 0 3277 0 0 3316 0 0 3283 0 0 3338 0 0 3290 0 0 3269 0 0 3335 0 0 3284 0 0 3439 0 0 3353 0 0 3405 0 0 3263 0 0 3300 0 0 3331 0 0 3273 0 0 3221 0 0 3330 0 0 3221 0 0 3267 0 0 3214 0 0 3276 0 0 3258 0 0 3216 0 0 3223 0 0 3082 0 0 3037 0 0 3069 0 0 3078 0 0 2949 0 0 1659 0 0 423 0 0 349 0 0 306 0 0 264 0 0 217 0 0 203 0 0 176 0 0 156 0 0 135 0 0 
51 0 0 130 0 0 151 0 0 174 0 0 193 0 0 225 0 0 266 0 0 298 0 0 343 0 0 402 0 0 1681 0 0 2927 0 0 3061 0 0 3007 0 0 3011 0 0 3113 0 0 3212 0 0 3256 0 0 3235 0 0 3182 0 0 3234 0 0 3231 0 0 3196 0 0 3237 0 0 3240 0 0 3222 0 0 3374 0 0 3365 0 0 3310 0 0 3353 0 0 3307 0 0 3427 0 0 3392 0 0 3296 0 0 3288 0 0 3325 0 0 3304 0 0 3221 0 0 3326 0 0 3241 0 0 3162 0 0 3218 0 0 3295 0 0 3170 0 0 3212 0 0 3102 0 0 3133 0 0 3098 0 0 3078 0 0 2904 0 0 1643 0 0 433 0 0 358 0 0 309 0 0 253 0 0 222 0 0 208 0 0 176 0 0 159 0 0 140 0 0 
50 0 0 124 0 0 158 0 0 170 0 0 191 0 0 217 0 0 250 0 0 293 0 0 372 0 0 452 0 0 1709 0 0 3020 0 0 3044 0 0 3076 0 0 3118 0 0 3130 0 0 3216 0 0 3269 0 0 3241 0 0 3232 0 0 3342 0 0 3359 0 0 3334 0 0 3259 0 0 3352 0 0 3295 0 0 3339 0 0 3234 0 0 3244 0 0 3293 0 0 3299 0 0 3236 0 0 3299 0 0 3324 0 0 3343 0 0 3275 0 0 3297 0 0 3258 0 0 3282 0 0 3417 0 0 3304 0 0 3218 0 0 3182 0 0 3190 0 0 3126 0 0 3111 0 0 3171 0 0 3004 0 0 3005 0 0 3004 0 0 1720 0 0 449 0 0 339 0 0 305 0 0 261 0 0 223 0 0 207 0 0 175 0 0 161 0 0 149 0 0 
44 0 0 132 0 0 157 0 0 174 0 0 197 0 0 239 0 0 256 0 0 324 0 0 353 0 0 452 0 0 1672 0 0 2959 0 0 3154 0 0 3012 0 0 3099 0 0 3182 0 0 3186 0 0 3248 0 0 3209 0 0 3200 0 0 3282 0 0 3250 0 0 3164 0 0 3278 0 0 3247 0 0 3293 0 0 3311 0 0 3259 0 0 3367 0 0 3321 0 0 3361 0 0 3306 0 0 3331 0 0 3353 0 0 3268 0 0 3350 0 0 3195 0 0 3302 0 0 3232 0 0 3283 0 0 3125 0 0 3191 0 0 3222 0 0 3220 0 0 3190 0 0 3068 0 0 3157 0 0 3043 0 0 3052 0 0 2836 0 0 1675 0 0 426 0 0 343 0 0 309 0 0 270 0 0 233 0 0 190 0 0 174 0 0 157 0 0 145 0 0 
44 0 0 135 0 0 140 0 0 184 0 0 203 0 0 228 0 0 264 0 0 310 0 0 350 0 0 418 0 0 1691 0 0 3005 0 0 3103 0 0 3142 0 0 3110 0 0 3197 0 0 3218 0 0 3181 0 0 3351 0 0 3180 0 0 3237 0 0 3367 0 0 3246 0 0 3346 0 0 3230 0 0 3318 0 0 3333 0 0 3284 0 0 3346 0 0 3293 0 0 3366 0 0 3396 0 0 3245 0 0 3330 0 0 3312 0 0 3267 0 0 3244 0 0 3246 0 0 3290 0 0 3260 0 0 3263 0 0 3251 0 0 3198 0 0 3221 0 0 3197 0 0 3196 0 0 3086 0 0 3034 0 0 3094 0 0 2908 0 0 1697 0 0 423 0 0 346 0 0 300 0 0 261 0 0 237 0 0 204 0 0 173 0 0 146 0 0 137 0 0 
45 0 0 132 0 0 148 0 0 181 0 0 210 0 0 223 0 0 250 0 0 306 0 0 354 0 0 421 0 0 1715 0 0 2967 0 0 2953 0 0 3125 0 0 3200 0 0 3199 0 0 3149 0 0 3234 0 0 3181 0 0 3242 0 0 3235 0 0 3244 0 0 3264 0 0 3261 0 0 3281 0 0 3330 0 0 3276 0 0 3219 0 0 3232 0 0 3236 0 0 3304 0 0 3295 0 0 3321 0 0 3247 0 0 3291 0 0 3290 0 0 3253 0 0 3215 0 0 3304 0 0 3287 0 0 3177 0 0 3201 0 0 3285 0 0 3140 0 0 3264 0 0 3132 0 0 3089 0 0 3064 0 0 3046 0 0 2828 0 0 1727 0 0 428 0 0 385 0 0 301 0 0 262 0 0 235 0 0 202 0 0 188 0 0 150 0 0 139 0 0 
46 0 0 135 0 0 148 0 0 180 0 0 198 0 0 230 0 0 255 0 0 287 0 0 343 0 0 430 0 0 1692 0 0 2945 0 0 3102 0 0 3136 0 0 3185 0 0 3218 0 0 3200 0 0 3223 0 0 3189 0 0 3292 0 0 3337 0 0 3421 0 0 3326 0 0 3252 0 0 3334 0 0 3229 0 0 3322 0 0 3309 0 0 3340 0 0 3244 0 0 3305 0 0 3298 0 0 3246 0 0 3276 0 0 3256 0 0 3286 0 0 3272 0 0 3173 0 0 3235 0 0 3251 0 0 3289 0 0 3256 0 0 3243 0 0 3199 0 0 3118 0 0 3150 0 0 3137 0 0 3080 0 0 3003 0 0 2939 0 0 1725 0 0 433 0 0 356 0 0 308 0 0 272 0 0 229 0 0 197 0 0 183 0 0 159 0 0 124 0 0 
50 0 0 137 0 0 151 0 0 178 0 0 201 0 0 236 0 0 249 0 0 289 0 0 362 0 0 447 0 0 1710 0 0 2968 0 0 3087 0 0 3018 0 0 3099 0 0 3185 0 0 3182 0 0 3145 0 0 3309 0 0 3275 0 0 3227 0 0 3308 0 0 3293 0 0 3295 0 0 3296 0 0 3332 0 0 3234 0 0 3225 0 0 3270 0 0 3373 0 0 3267 0 0 3346 0 0 3377 0 0 3367 0 0 3286 0 0 3255 0 0 3277 0 0 3274 0 0 3247 0 0 3251 0 0 3279 0 0 3277 0 0 3175 0 0 3201 0 0 3204 0 0 3156 0 0 3063 0 0 3115 0 0 3052 0 0 2988 0 0 1703 0 0 422 0 0 334 0 0 313 0 0 279 0 0 228 0 0 200 0 0 163 0 0 152 0 0 152 0 0 
47 0 0 131 0 0 158 0 0 157 0 0 204 0 0 240 0 0 254 0 0 290 0 0 350 0 0 424 0 0 1701 0 0 2912 0 0 3010 0 0 3143 0 0 3216 0 0 3074 0 0 3171 0 0 3148 0 0 3114 0 0 3210 0 0 3272 0 0 3239 0 0 3261 0 0 3264 0 0 3300 0 0 3312 0 0 3286 0 0 3292 0 0 3302 0 0 3377 0 0 3278 0 0 3248 0 0 3283 0 0 3359 0 0 3262 0 0 3282 0 0 3289 0 0 3271 0 0 3372 0 0 3229 0 0 3246 0 0 3243 0 0 3172 0 0 3194 0 0 3188 0 0 3169 0 0 3136 0 0 3074 0 0 3039 0 0 2889 0 0 1661 0 0 416 0 0 363 0 0 303 0 0 259 0 0 223 0 0 196 0 0 176 0 0 157 0 0 123 0 0 
42 0 0 136 0 0 148 0 0 164 0 0 197 0 0 231 0 0 271 0 0 300 0 0 333 0 0 437 0 0 1659 0 0 2940 0 0 3141 0 0 3073 0 0 3145 0 0 3115 0 0 3093 0 0 3256 0 0 3197 0 0 3241 0 0 3297 0 0 3212 0 0 3250 0 0 3290 0 0 3312 0 0 3225 0 0 3219 0 0 3338 0 0 3281 0 0 3232 0 0 3268 0 0 3211 0 0 3265 0 0 3322 0 0 3364 0 0 3251 0 0 3257 0 0 3224 0 0 3292 0 0 3272 0 0 3202 0 0 3231 0 0 3191 0 0 3294 0 0 3154 0 0 3145 0 0 3081 0 0 3094 0 0 3071 0 0 2902 0 0 1664 0 0 423 0 0 356 0 0 310 0 0 264 0 0 215 0 0 211 0 0 161 0 0 155 0 0 138 0 0 
44 0 0 127 0 0 148 0 0 173 0 0 201 0 0 210 0 0 267 0 0 299 0 0 361 0 0 413 0 0 1734 0 0 2951 0 0 2937 0 0 2946 0 0 3094 0 0 3162 0 0 3088 0 0 3227 0 0 3247 0 0 3231 0 0 3271 0 0 3285 0 0 3386 0 0 3324 0 0 3308 0 0 3307 0 0 3284 0 0 3203 0 0 3330 0 0 3359 0 0 3216 0 0 3290 0 0 3228 0 0 3343 0 0 3297 0 0 3280 0 0 3264 0 0 3322 0 0 3268 0 0 3225 0 0 3177 0 0 3260 0 0 3132 0 0 3097 0 0 3151 0 0 3172 0 0 3196 0 0 3077 0 0 3024 0 0 2883 0 0 1726 0 0 428 0 0 317 0 0 315 0 0 267 0 0 238 0 0 203 0 0 164 0 0 150 0 0 133 0 0 
43 0 0 118 0 0 152 0 0 167 0 0 185 0 0 206 0 0 244 0 0 293 0 0 344 0 0 427 0 0 1717 0 0 2958 0 0 2980 0 0 3038 0 0 3142 0 0 3187 0 0 3223 0 0 3152 0 0 3230 0 0 3218 0 0 3210 0 0 3176 0 0 3280 0 0 3352 0 0 3301 0 0 3302 0 0 3250 0 0 3286 0 0 3260 0 0 3289 0 0 3295 0 0 3259 0 0 3248 0 0 3329 0 0 3298 0 0 3269 0 0 3272 0 0 3203 0 0 3234 0 0 3213 0 0 3320 0 0 3165 0 0 3231 0 0 3169 0 0 3175 0 0 3115 0 0 3192 0 0 3153 0 0 3019 0 0 2912 0 0 1663 0 0 413 0 0 342 0 0 314 0 0 250 0 0 205 0 0 203 0 0 188 0 0 144 0 0 122 0 0 
43 0 0 116 0 0 136 0 0 159 0 0 187 0 0 211 0 0 254 0 0 294 0 0 342 0 0 394 0 0 1685 0 0 2828 0 0 3008 0 0 2969 0 0 3078 0 0 3156 0 0 3188 0 0 3156 0 0 3214 0 0 3205 0 0 3231 0 0 3268 0 0 3310 0 0 3279 0 0 3251 0 0 3299 0 0 3271 0 0 3311 0 0 3222 0 0 3253 0 0 3313 0 0 3253 0 0 3254 0 0 3300 0 0 3213 0 0 3249 0 0 3235 0 0 3284 0 0 3246 0 0 3175 0 0 3250 0 0 3215 0 0 3282 0 0 3190 0 0 3162 0 0 3104 0 0 3022 0 0 3111 0 0 3026 0 0 2897 0 0 1609 0 0 427 0 0 341 0 0 276 0 0 235 0 0 223 0 0 181 0 0 168 0 0 140 0 0 123 0 0 
42 0 0 130 0 0 143 0 0 159 0 0 191 0 0 211 0 0 235 0 0 286 0 0 322 0 0 406 0 0 1695 0 0 2947 0 0 2976 0 0 3052 0 0 3067 0 0 3074 0 0 3205 0 0 3172 0 0 3179 0 0 3237 0 0 3234 0 0 3177 0 0 3284 0 0 3315 0 0 3316 0 0 3179 0 0 3294 0 0 3234 0 0 3202 0 0 3361 0 0 3237 0 0 3332 0 0 3244 0 0 3267 0 0 3211 0 0 3255 0 0 3252 0 0 3264 0 0 3233 0 0 3243 0 0 3256 0 0 3235 0 0 3224 0 0 3134 0 0 3233 0 0 3161 0 0 3132 0 0 3025 0 0 3027 0 0 2948 0 0 1678 0 0 424 0 0 339 0 0 271 0 0 233 0 0 210 0 0 173 0 0 174 0 0 159 0 0 125 0 0 
41 0 0 129 0 0 144 0 0 160 0 0 187 0 0 201 0 0 235 0 0 273 0 0 315 0 0 408 0 0 1671 0 0 2882 0 0 2963 0 0 3060 0 0 3090 0 0 3154 0 0 3114 0 0 3156 0 0 3193 0 0 3193 0 0 3189 0 0 3170 0 0 3231 0 0 3218 0 0 3291 0 0 3228 0 0 3180 0 0 3231 0 0 3331 0 0 3219 0 0 3272 0 0 3221 0 0 3296 0 0 3364 0 0 3238 0 0 3195 0 0 3226 0 0 3252 0 0 3166 0 0 3247 0 0 3145 0 0 3243 0 0 3123 0 0 3158 0 0 3121 0 0 3087 0 0 3080 0 0 3037 0 0 3004 0 0 2948 0 0 1655 0 0 411 0 0 346 0 0 268 0 0 246 0 0 205 0 0 187 0 0 165 0 0 137 0 0 123 0 0 
42 0 0 110 0 0 133 0 0 165 0 0 181 0 0 210 0 0 237 0 0 263 0 0 325 0 0 420 0 0 1651 0 0 2912 0 0 2962 0 0 3077 0 0 3210 0 0 3157 0 0 3026 0 0 3138 0 0 3159 0 0 3261 0 0 3297 0 0 3223 0 0 3170 0 0 3236 0 0 3179 0 0 3261 0 0 3277 0 0 3280 0 0 3261 0 0 3207 0 0 3235 0 0 3147 0 0 3184 0 0 3270 0 0 3253 0 0 3199 0 0 3327 0 0 3197 0 0 3163 0 0 3200 0 0 3099 0 0 3161 0 0 3233 0 0 3070 0 0 3106 0 0 3097 0 0 3075 0 0 2964 0 0 2994 0 0 2930 0 0 1656 0 0 401 0 0 320 0 0 277 0 0 219 0 0 196 0 0 183 0 0 156 0 0 136 0 0 123 0 0 
46 0 0 122 0 0 136 0 0 147 0 0 170 0 0 205 0 0 240 0 0 289 0 0 293 0 0 374 0 0 1720 0 0 2940 0 0 2920 0 0 2961 0 0 3047 0 0 3043 0 0 3116 0 0 3259 0 0 3135 0 0 3136 0 0 3128 0 0 3244 0 0 3240 0 0 3126 0 0 3185 0 0 3217 0 0 3180 0 0 3259 0 0 3219 0 0 3290 0 0 3196 0 0 3194 0 0 3389 0 0 3200 0 0 3238 0 0 3187 0 0 3205 0 0 3171 0 0 3102 0 0 3218 0 0 3186 0 0 3095 0 0 3173 0 0 3079 0 0 3056 0 0 3133 0 0 3103 0 0 2957 0 0 2961 0 0 2907 0 0 1637 0 0 420 0 0 312 0 0 286 0 0 237 0 0 201 0 0 180 0 0 158 0 0 127 0 0 118 0 0 
37 0 0 118 0 0 129 0 0 156 0 0 171 0 0 195 0 0 224 0 0 253 0 0 292 0 0 385 0 0 1663 0 0 2915 0 0 2934 0 0 3038 0 0 2986 0 0 3065 0 0 3090 0 0 3140 0 0 3161 0 0 3203 0 0 3099 0 0 3152 0 0 3200 0 0 3195 0 0 3168 0 0 3184 0 0 3148 0 0 3257 0 0 3153 0 0 3216 0 0 3128 0 0 3218 0 0 3213 0 0 3174 0 0 3327 0 0 3237 0 0 3191 0 0 3188 0 0 3229 0 0 3085 0 0 3100 0 0 3135 0 0 3095 0 0 3137 0 0 3154 0 0 3122 0 0 3030 0 0 3021 0 0 3024 0 0 2900 0 0 1628 0 0 377 0 0 288 0 0 275 0 0 230 0 0 187 0 0 164 0 0 141 0 0 116 0 0 113 0 0 
31 0 0 106 0 0 138 0 0 147 0 0 161 0 0 189 0 0 200 0 0 251 0 0 283 0 0 381 0 0 1662 0 0 2891 0 0 2940 0 0 3002 0 0 3010 0 0 2975 0 0 3094 0 0 3069 0 0 3034 0 0 3146 0 0 3160 0 0 3212 0 0 3047 0 0 3146 0 0 3211 0 0 3219 0 0 3251 0 0 3133 0 0 3183 0 0 3159 0 0 3099 0 0 3159 0 0 3159 0 0 3150 0 0 3173 0 0 3191 0 0 3148 0 0 3187 0 0 3152 0 0 3145 0 0 3088 0 0 3137 0 0 3044 0 0 3073 0 0 3088 0 0 3033 0 0 3021 0 0 3029 0 0 2951 0 0 2809 0 0 1652 0 0 343 0 0 283 0 0 250 0 0 208 0 0 195 0 0 165 0 0 137 0 0 126 0 0 108 0 0 
33 0 0 110 0 0 126 0 0 148 0 0 182 0 0 190 0 0 211 0 0 249 0 0 270 0 0 357 0 0 1596 0 0 2854 0 0 2960 0 0 3022 0 0 2948 0 0 3032 0 0 3004 0 0 3002 0 0 3075 0 0 3079 0 0 3045 0 0 3078 0 0 3141 0 0 3167 0 0 3165 0 0 3145 0 0 3133 0 0 3155 0 0 3124 0 0 3131 0 0 3153 0 0 3108 0 0 3072 0 0 3103 0 0 3127 0 0 3131 0 0 3141 0 0 3139 0 0 3114 0 0 3181 0 0 3086 0 0 3133 0 0 3170 0 0 2993 0 0 3116 0 0 3003 0 0 3097 0 0 3007 0 0 2885 0 0 2839 0 0 1592 0 0 368 0 0 283 0 0 237 0 0 213 0 0 179 0 0 160 0 0 131 0 0 122 0 0 109 0 0 
35 0 0 100 0 0 124 0 0 137 0 0 157 0 0 169 0 0 200 0 0 234 0 0 285 0 0 344 0 0 1601 0 0 2889 0 0 2846 0 0 2955 0 0 3021 0 0 3026 0 0 3022 0 0 2978 0 0 3045 0 0 3048 0 0 3127 0 0 3032 0 0 3094 0 0 3147 0 0 3103 0 0 3079 0 0 3172 0 0 3156 0 0 3048 0 0 3137 0 0 3091 0 0 3219 0 0 3054 0 0 3082 0 0 3110 0 0 3124 0 0 3245 0 0 3116 0 0 3013 0 0 3078 0 0 3075 0 0 3103 0 0 3175 0 0 3057 0 0 3097 0 0 2998 0 0 2930 0 0 2941 0 0 2886 0 0 2833 0 0 1634 0 0 347 0 0 268 0 0 224 0 0 201 0 0 166 0 0 138 0 0 141 0 0 117 0 0 90 0 0 
34 0 0 107 0 0 103 0 0 123 0 0 150 0 0 164 0 0 202 0 0 221 0 0 249 0 0 341 0 0 1629 0 0 2861 0 0 2876 0 0 2938 0 0 2904 0 0 2955 0 0 2979 0 0 3065 0 0 3041 0 0 3001 0 0 3069 0 0 2969 0 0 3065 0 0 3087 0 0 3060 0 0 3075 0 0 3076 0 0 3066 0 0 3176 0 0 3048 0 0 3097 0 0 2995 0 0 3072 0 0 3139 0 0 3032 0 0 3057 0 0 3100 0 0 3070 0 0 3078 0 0 3007 0 0 2965 0 0 3006 0 0 3109 0 0 2974 0 0 2983 0 0 2997 0 0 2980 0 0 2944 0 0 2929 0 0 2826 0 0 1559 0 0 330 0 0 280 0 0 214 0 0 178 0 0 166 0 0 143 0 0 125 0 0 108 0 0 95 0 0 
33 0 0 94 0 0 90 0 0 114 0 0 130 0 0 170 0 0 178 0 0 221 0 0 238 0 0 303 0 0 1575 0 0 2779 0 0 2858 0 0 2846 0 0 2912 0 0 2988 0 0 3071 0 0 2976 0 0 3012 0 0 3085 0 0 3006 0 0 3036 0 0 3039 0 0 3024 0 0 3057 0 0 3052 0 0 3025 0 0 3021 0 0 3033 0 0 3016 0 0 3037 0 0 3034 0 0 3062 0 0 3035 0 0 3032 0 0 3074 0 0 3012 0 0 3060 0 0 3059 0 0 2975 0 0 2972 0 0 3011 0 0 2997 0 0 3006 0 0 3003 0 0 2995 0 0 2905 0 0 2852 0 0 2843 0 0 2845 0 0 1552 0 0 311 0 0 241 0 0 198 0 0 184 0 0 159 0 0 131 0 0 119 0 0 105 0 0 91 0 0 
29 0 0 87 0 0 104 0 0 121 0 0 142 0 0 150 0 0 167 0 0 196 0 0 219 0 0 264 0 0 1535 0 0 2682 0 0 2736 0 0 2902 0 0 2917 0 0 2942 0 0 2838 0 0 2896 0 0 2948 0 0 2914 0 0 2896 0 0 2969 0 0 2963 0 0 3029 0 0 2942 0 0 3014 0 0 2921 0 0 3008 0 0 2929 0 0 2919 0 0 2963 0 0 2912 0 0 2965 0 0 2933 0 0 3034 0 0 2918 0 0 2948 0 0 2962 0 0 2918 0 0 2927 0 0 2876 0 0 2891 0 0 2889 0 0 2908 0 0 2869 0 0 2970 0 0 2801 0 0 2817 0 0 2801 0 0 2798 0 0 1484 0 0 279 0 0 234 0 0 193 0 0 163 0 0 136 0 0 132 0 0 128 0 0 100 0 0 93 0 0 
27 0 0 97 0 0 90 0 0 99 0 0 120 0 0 127 0 0 147 0 0 178 0 0 199 0 0 244 0 0 832 0 0 1508 0 0 1576 0 0 1628 0 0 1619 0 0 1608 0 0 1613 0 0 1602 0 0 1660 0 0 1622 0 0 1685 0 0 1636 0 0 1650 0 0 1729 0 0 1666 0 0 1738 0 0 1704 0 0 1732 0 0 1672 0 0 1694 0 0 1685 0 0 1753 0 0 1693 0 0 1687 0 0 1641 0 0 1598 0 0 1686 0 0 1690 0 0 1754 0 0 1646 0 0 1641 0 0 1626 0 0 1697 0 0 1637 0 0 1677 0 0 1673 0 0 1542 0 0 1589 0 0 1495 0 0 1489 0 0 830 0 0 251 0 0 194 0 0 170 0 0 147 0 0 127 0 0 115 0 0 104 0 0 89 0 0 75 0 0 
27 0 0 88 0 0 92 0 0 103 0 0 114 0 0 112 0 0 134 0 0 160 0 0 192 0 0 208 0 0 252 0 0 273 0 0 290 0 0 334 0 0 340 0 0 367 0 0 377 0 0 393 0 0 390 0 0 400 0 0 407 0 0 415 0 0 423 0 0 441 0 0 433 0 0 423 0 0 454 0 0 435 0 0 445 0 0 425 0 0 434 0 0 406 0 0 451 0 0 420 0 0 427 0 0 429 0 0 438 0 0 426 0 0 433 0 0 405 0 0 410 0 0 410 0 0 382 0 0 364 0 0 373 0 0 377 0 0 347 0 0 323 0 0 305 0 0 280 0 0 249 0 0 214 0 0 183 0 0 161 0 0 142 0 0 132 0 0 105 0 0 106 0 0 95 0 0 75 0 0 
27 0 0 77 0 0 89 0 0 93 0 0 96 0 0 119 0 0 122 0 0 143 0 0 155 0 0 183 0 0 196 0 0 217 0 0 240 0 0 246 0 0 263 0 0 303 0 0 295 0 0 298 0 0 322 0 0 316 0 0 350 0 0 320 0 0 337 0 0 344 0 0 358 0 0 347 0 0 368 0 0 347 0 0 355 0 0 374 0 0 354 0 0 378 0 0 374 0 0 348 0 0 345 0 0 357 0 0 353 0 0 344 0 0 357 0 0 341 0 0 339 0 0 331 0 0 302 0 0 323 0 0 299 0 0 287 0 0 291 0 0 261 0 0 232 0 0 230 0 0 189 0 0 186 0 0 166 0 0 149 0 0 137 0 0 115 0 0 113 0 0 93 0 0 88 0 0 78 0 0 
22 0 0 75 0 0 75 0 0 83 0 0 98 0 0 102 0 0 105 0 0 111 0 0 136 0 0 149 0 0 160 0 0 186 0 0 211 0 0 219 0 0 230 0 0 233 0 0 267 0 0 243 0 0 265 0 0 278 0 0 282 0 0 278 0 0 268 0 0 288 0 0 282 0 0 290 0 0 312 0 0 307 0 0 317 0 0 312 0 0 281 0 0 287 0 0 316 0 0 276 0 0 309 0 0 291 0 0 302 0 0 309 0 0 306 0 0 277 0 0 271 0 0 281 0 0 256 0 0 252 0 0 261 0 0 231 0 0 224 0 0 210 0 0 194 0 0 190 0 0 177 0 0 160 0 0 152 0 0 135 0 0 119 0 0 115 0 0 96 0 0 92 0 0 72 0 0 70 0 0 
24 0 0 67 0 0 75 0 0 87 0 0 88 0 0 91 0 0 102 0 0 110 0 0 121 0 0 151 0 0 154 0 0 146 0 0 167 0 0 192 0 0 193 0 0 195 0 0 222 0 0 207 0 0 232 0 0 234 0 0 241 0 0 234 0 0 263 0 0 240 0 0 258 0 0 244 0 0 244 0 0 262 0 0 255 0 0 265 0 0 260 0 0 256 0 0 269 0 0 249 0 0 260 0 0 260 0 0 239 0 0 251 0 0 234 0 0 244 0 0 241 0 0 256 0 0 217 0 0 233 0 0 211 0 0 209 0 0 195 0 0 191 0 0 182 0 0 186 0 0 151 0 0 143 0 0 121 0 0 124 0 0 101 0 0 95 0 0 93 0 0 77 0 0 72 0 0 64 0 0 
21 0 0 60 0 0 75 0 0 71 0 0 71 0 0 87 0 0 87 0 0 105 0 0 115 0 0 128 0 0 127 0 0 137 0 0 164 0 0 171 0 0 178 0 0 177 0 0 195 0 0 187 0 0 199 0 0 202 0 0 224 0 0 227 0 0 213 0 0 211 0 0 235 0 0 226 0 0 226 0 0 227 0 0 214 0 0 228 0 0 219 0 0 233 0 0 229 0 0 233 0 0 225 0 0 238 0 0 214 0 0 211 0 0 212 0 0 209 0 0 191 0 0 221 0 0 205 0 0 184 0 0 180 0 0 182 0 0 168 0 0 175 0 0 146 0 0 148 0 0 131 0 0 124 0 0 118 0 0 99 0 0 106 0 0 95 0 0 80 0 0 81 0 0 71 0 0 55 0 0 
22 0 0 51 0 0 60 0 0 70 0 0 72 0 0 77 0 0 93 0 0 96 0 0 111 0 0 100 0 0 114 0 0 129 0 0 132 0 0 151 0 0 153 0 0 152 0 0 164 0 0 165 0 0 178 0 0 181 0 0 170 0 0 198 0 0 196 0 0 196 0 0 197 0 0 206 0 0 198 0 0 193 0 0 195 0 0 197 0 0 193 0 0 205 0 0 198 0 0 195 0 0 195 0 0 195 0 0 200 0 0 189 0 0 190 0 0 180 0 0 193 0 0 181 0 0 176 0 0 167 0 0 158 0 0 152 0 0 156 0 0 141 0 0 141 0 0 131 0 0 114 0 0 115 0 0 104 0 0 105 0 0 92 0 0 89 0 0 73 0 0 74 0 0 59 0 0 52 0 0 
22 0 0 63 0 0 58 0 0 58 0 0 70 0 0 79 0 0 81 0 0 86 0 0 92 0 0 98 0 0 107 0 0 123 0 0 125 0 0 121 0 0 124 0 0 134 0 0 131 0 0 147 0 0 154 0 0 171 0 0 157 0 0 163 0 0 165 0 0 168 0 0 181 0 0 178 0 0 176 0 0 158 0 0 177 0 0 162 0 0 179 0 0 188 0 0 173 0 0 185 0 0 168 0 0 177 0 0 175 0 0 168 0 0 164 0 0 168 0 0 162 0 0 150 0 0 136 0 0 135 0 0 141 0 0 134 0 0 135 0 0 134 0 0 120 0 0 116 0 0 116 0 0 102 0 0 89 0 0 79 0 0 82 0 0 65 0 0 70 0 0 63 0 0 61 0 0 50 0 0 
19 0 0 46 0 0 49 0 0 59 0 0 63 0 0 66 0 0 76 0 0 78 0 0 92 0 0 87 0 0 90 0 0 103 0 0 104 0 0 109 0 0 121 0 0 120 0 0 129 0 0 127 0 0 142 0 0 139 0 0 143 0 0 146 0 0 150 0 0 141 0 0 158 0 0 145 0 0 144 0 0 148 0 0 157 0 0 151 0 0 148 0 0 155 0 0 152 0 0 146 0 0 152 0 0 144 0 0 147 0 0 139 0 0 143 0 0 139 0 0 155 0 0 134 0 0 128 0 0 142 0 0 122 0 0 115 0 0 112 0 0 112 0 0 113 0 0 97 0 0 99 0 0 95 0 0 79 0 0 80 0 0 73 0 0 65 0 0 63 0 0 53 0 0 47 0 0 47 0 0 
19 0 0 37 0 0 45 0 0 53 0 0 52 0 0 57 0 0 64 0 0 65 0 0 75 0 0 78 0 0 84 0 0 88 0 0 94 0 0 103 0 0 99 0 0 113 0 0 110 0 0 111 0 0 119 0 0 118 0 0 122 0 0 120 0 0 120 0 0 131 0 0 129 0 0 125 0 0 138 0 0 125 0 0 135 0 0 125 0 0 122 0 0 130 0 0 134 0 0 131 0 0 142 0 0 127 0 0 138 0 0 141 0 0 123 0 0 118 0 0 123 0 0 111 0 0 113 0 0 111 0 0 115 0 0 106 0 0 100 0 0 93 0 0 89 0 0 93 0 0 84 0 0 78 0 0 77 0 0 70 0 0 67 0 0 62 0 0 65 0 0 49 0 0 48 0 0 39 0 0 
