P3
# This is a dose file slice at depth 55 of 100
60 60
# now we give the maximum value of the RGB coordinates.
4982
7 0 0 20 0 0 18 0 0 18 0 0 18 0 0 20 0 0 27 0 0 30 0 0 27 0 0 29 0 0 32 0 0 33 0 0 34 0 0 38 0 0 35 0 0 37 0 0 36 0 0 43 0 0 36 0 0 37 0 0 39 0 0 38 0 0 45 0 0 39 0 0 41 0 0 42 0 0 43 0 0 46 0 0 45 0 0 40 0 0 47 0 0 46 0 0 44 0 0 44 0 0 49 0 0 38 0 0 49 0 0 47 0 0 42 0 0 44 0 0 43 0 0 44 0 0 36 0 0 31 0 0 38 0 0 36 0 0 32 0 0 36 0 0 29 0 0 32 0 0 30 0 0 25 0 0 31 0 0 28 0 0 24 0 0 24 0 0 25 0 0 19 0 0 17 0 0 18 0 0 
23 0 0 62 0 0 58 0 0 57 0 0 65 0 0 77 0 0 78 0 0 84 0 0 96 0 0 91 0 0 108 0 0 98 0 0 90 0 0 109 0 0 100 0 0 114 0 0 119 0 0 116 0 0 123 0 0 132 0 0 145 0 0 130 0 0 138 0 0 141 0 0 142 0 0 147 0 0 135 0 0 133 0 0 151 0 0 151 0 0 150 0 0 145 0 0 139 0 0 135 0 0 142 0 0 133 0 0 128 0 0 135 0 0 138 0 0 127 0 0 131 0 0 118 0 0 123 0 0 128 0 0 117 0 0 114 0 0 105 0 0 109 0 0 96 0 0 93 0 0 89 0 0 88 0 0 87 0 0 81 0 0 76 0 0 63 0 0 71 0 0 55 0 0 54 0 0 52 0 0 
20 0 0 65 0 0 59 0 0 66 0 0 67 0 0 77 0 0 78 0 0 101 0 0 90 0 0 96 0 0 98 0 0 110 0 0 120 0 0 123 0 0 116 0 0 146 0 0 118 0 0 123 0 0 132 0 0 155 0 0 152 0 0 148 0 0 148 0 0 152 0 0 149 0 0 161 0 0 171 0 0 168 0 0 158 0 0 163 0 0 168 0 0 160 0 0 165 0 0 178 0 0 165 0 0 154 0 0 153 0 0 154 0 0 163 0 0 145 0 0 156 0 0 135 0 0 147 0 0 142 0 0 132 0 0 120 0 0 131 0 0 129 0 0 123 0 0 115 0 0 101 0 0 107 0 0 90 0 0 99 0 0 76 0 0 76 0 0 65 0 0 68 0 0 56 0 0 54 0 0 
21 0 0 66 0 0 54 0 0 70 0 0 84 0 0 82 0 0 86 0 0 97 0 0 98 0 0 108 0 0 118 0 0 121 0 0 134 0 0 127 0 0 139 0 0 145 0 0 155 0 0 149 0 0 159 0 0 153 0 0 175 0 0 153 0 0 162 0 0 178 0 0 187 0 0 180 0 0 183 0 0 184 0 0 187 0 0 193 0 0 195 0 0 183 0 0 174 0 0 168 0 0 179 0 0 185 0 0 182 0 0 171 0 0 164 0 0 162 0 0 163 0 0 163 0 0 147 0 0 154 0 0 150 0 0 143 0 0 147 0 0 135 0 0 130 0 0 123 0 0 110 0 0 110 0 0 107 0 0 84 0 0 83 0 0 89 0 0 73 0 0 72 0 0 72 0 0 66 0 0 
22 0 0 64 0 0 74 0 0 73 0 0 81 0 0 86 0 0 96 0 0 99 0 0 109 0 0 116 0 0 112 0 0 132 0 0 142 0 0 140 0 0 166 0 0 160 0 0 170 0 0 185 0 0 173 0 0 186 0 0 183 0 0 184 0 0 205 0 0 189 0 0 184 0 0 199 0 0 213 0 0 220 0 0 204 0 0 222 0 0 210 0 0 205 0 0 195 0 0 197 0 0 205 0 0 212 0 0 183 0 0 205 0 0 184 0 0 170 0 0 179 0 0 173 0 0 177 0 0 163 0 0 158 0 0 169 0 0 153 0 0 154 0 0 154 0 0 143 0 0 140 0 0 133 0 0 111 0 0 102 0 0 97 0 0 93 0 0 81 0 0 86 0 0 72 0 0 66 0 0 
29 0 0 71 0 0 84 0 0 83 0 0 86 0 0 98 0 0 102 0 0 118 0 0 124 0 0 140 0 0 136 0 0 142 0 0 151 0 0 164 0 0 173 0 0 185 0 0 198 0 0 178 0 0 208 0 0 211 0 0 211 0 0 219 0 0 201 0 0 227 0 0 216 0 0 224 0 0 218 0 0 228 0 0 223 0 0 225 0 0 227 0 0 244 0 0 226 0 0 242 0 0 236 0 0 216 0 0 214 0 0 217 0 0 207 0 0 218 0 0 214 0 0 195 0 0 194 0 0 188 0 0 190 0 0 177 0 0 175 0 0 161 0 0 153 0 0 158 0 0 137 0 0 125 0 0 112 0 0 115 0 0 104 0 0 94 0 0 106 0 0 90 0 0 82 0 0 80 0 0 
27 0 0 72 0 0 91 0 0 86 0 0 93 0 0 109 0 0 109 0 0 123 0 0 130 0 0 140 0 0 156 0 0 174 0 0 183 0 0 189 0 0 194 0 0 196 0 0 209 0 0 226 0 0 246 0 0 229 0 0 247 0 0 242 0 0 244 0 0 233 0 0 255 0 0 255 0 0 264 0 0 245 0 0 233 0 0 261 0 0 247 0 0 253 0 0 262 0 0 246 0 0 250 0 0 260 0 0 245 0 0 247 0 0 245 0 0 231 0 0 223 0 0 228 0 0 219 0 0 211 0 0 211 0 0 198 0 0 188 0 0 189 0 0 181 0 0 173 0 0 156 0 0 146 0 0 143 0 0 112 0 0 115 0 0 115 0 0 89 0 0 90 0 0 82 0 0 70 0 0 
24 0 0 72 0 0 90 0 0 98 0 0 99 0 0 116 0 0 121 0 0 129 0 0 143 0 0 155 0 0 164 0 0 179 0 0 180 0 0 198 0 0 218 0 0 218 0 0 239 0 0 246 0 0 243 0 0 238 0 0 262 0 0 262 0 0 261 0 0 271 0 0 279 0 0 286 0 0 283 0 0 278 0 0 281 0 0 284 0 0 287 0 0 261 0 0 269 0 0 281 0 0 294 0 0 296 0 0 278 0 0 289 0 0 266 0 0 252 0 0 260 0 0 239 0 0 237 0 0 238 0 0 237 0 0 233 0 0 221 0 0 205 0 0 183 0 0 186 0 0 166 0 0 168 0 0 150 0 0 139 0 0 121 0 0 121 0 0 115 0 0 95 0 0 90 0 0 78 0 0 
27 0 0 85 0 0 92 0 0 101 0 0 122 0 0 126 0 0 134 0 0 142 0 0 143 0 0 179 0 0 183 0 0 208 0 0 224 0 0 242 0 0 249 0 0 238 0 0 258 0 0 263 0 0 263 0 0 278 0 0 300 0 0 313 0 0 289 0 0 295 0 0 319 0 0 314 0 0 334 0 0 322 0 0 311 0 0 320 0 0 333 0 0 323 0 0 335 0 0 331 0 0 299 0 0 323 0 0 310 0 0 303 0 0 312 0 0 277 0 0 285 0 0 275 0 0 268 0 0 261 0 0 262 0 0 236 0 0 259 0 0 229 0 0 223 0 0 204 0 0 177 0 0 167 0 0 146 0 0 147 0 0 112 0 0 108 0 0 106 0 0 110 0 0 97 0 0 82 0 0 
28 0 0 91 0 0 102 0 0 107 0 0 122 0 0 125 0 0 129 0 0 145 0 0 168 0 0 190 0 0 224 0 0 246 0 0 272 0 0 262 0 0 313 0 0 296 0 0 281 0 0 303 0 0 325 0 0 323 0 0 353 0 0 361 0 0 347 0 0 371 0 0 382 0 0 360 0 0 382 0 0 378 0 0 381 0 0 384 0 0 386 0 0 365 0 0 370 0 0 366 0 0 369 0 0 375 0 0 387 0 0 367 0 0 375 0 0 350 0 0 343 0 0 322 0 0 336 0 0 328 0 0 314 0 0 309 0 0 276 0 0 269 0 0 245 0 0 254 0 0 213 0 0 178 0 0 177 0 0 159 0 0 126 0 0 128 0 0 115 0 0 110 0 0 104 0 0 83 0 0 
32 0 0 84 0 0 114 0 0 117 0 0 137 0 0 132 0 0 169 0 0 169 0 0 191 0 0 210 0 0 584 0 0 1010 0 0 975 0 0 1015 0 0 1042 0 0 1039 0 0 1007 0 0 1044 0 0 1038 0 0 1068 0 0 1076 0 0 1065 0 0 1086 0 0 1062 0 0 1130 0 0 1076 0 0 1062 0 0 1120 0 0 1106 0 0 1124 0 0 1164 0 0 1080 0 0 1093 0 0 1070 0 0 1127 0 0 1083 0 0 1071 0 0 1064 0 0 1094 0 0 1082 0 0 1050 0 0 1086 0 0 1140 0 0 1038 0 0 1056 0 0 1012 0 0 1013 0 0 1003 0 0 981 0 0 994 0 0 579 0 0 204 0 0 185 0 0 172 0 0 171 0 0 138 0 0 117 0 0 110 0 0 107 0 0 95 0 0 
36 0 0 84 0 0 103 0 0 120 0 0 139 0 0 135 0 0 165 0 0 186 0 0 213 0 0 255 0 0 936 0 0 1675 0 0 1661 0 0 1773 0 0 1730 0 0 1762 0 0 1770 0 0 1820 0 0 1814 0 0 1860 0 0 1844 0 0 1780 0 0 1801 0 0 1832 0 0 1821 0 0 1880 0 0 1769 0 0 1826 0 0 1783 0 0 1831 0 0 1826 0 0 1880 0 0 1847 0 0 1840 0 0 1813 0 0 1852 0 0 1810 0 0 1888 0 0 1756 0 0 1832 0 0 1740 0 0 1800 0 0 1786 0 0 1752 0 0 1776 0 0 1753 0 0 1731 0 0 1679 0 0 1670 0 0 1656 0 0 976 0 0 224 0 0 214 0 0 190 0 0 171 0 0 152 0 0 138 0 0 119 0 0 109 0 0 95 0 0 
34 0 0 108 0 0 104 0 0 130 0 0 141 0 0 144 0 0 171 0 0 188 0 0 215 0 0 237 0 0 911 0 0 1684 0 0 1733 0 0 1751 0 0 1804 0 0 1726 0 0 1847 0 0 1833 0 0 1809 0 0 1798 0 0 1856 0 0 1844 0 0 1823 0 0 1842 0 0 1878 0 0 1935 0 0 1901 0 0 1915 0 0 1810 0 0 1843 0 0 1859 0 0 1919 0 0 1902 0 0 1921 0 0 1904 0 0 1793 0 0 1820 0 0 1835 0 0 1859 0 0 1879 0 0 1809 0 0 1858 0 0 1847 0 0 1831 0 0 1758 0 0 1745 0 0 1726 0 0 1701 0 0 1690 0 0 1752 0 0 999 0 0 246 0 0 213 0 0 194 0 0 159 0 0 178 0 0 147 0 0 125 0 0 111 0 0 99 0 0 
32 0 0 104 0 0 118 0 0 131 0 0 159 0 0 175 0 0 184 0 0 219 0 0 225 0 0 277 0 0 990 0 0 1748 0 0 1765 0 0 1842 0 0 1837 0 0 1796 0 0 1797 0 0 1859 0 0 1893 0 0 1837 0 0 1905 0 0 1935 0 0 1905 0 0 1895 0 0 1956 0 0 1922 0 0 1901 0 0 1945 0 0 1884 0 0 1986 0 0 1920 0 0 1921 0 0 1875 0 0 1918 0 0 1921 0 0 1887 0 0 1890 0 0 1909 0 0 1932 0 0 1924 0 0 1921 0 0 1819 0 0 1873 0 0 1832 0 0 1785 0 0 1812 0 0 1819 0 0 1741 0 0 1754 0 0 1751 0 0 981 0 0 295 0 0 240 0 0 199 0 0 170 0 0 168 0 0 150 0 0 129 0 0 121 0 0 102 0 0 
37 0 0 113 0 0 123 0 0 149 0 0 158 0 0 176 0 0 195 0 0 208 0 0 241 0 0 277 0 0 1029 0 0 1713 0 0 1767 0 0 1762 0 0 1844 0 0 1869 0 0 1920 0 0 1887 0 0 1854 0 0 1984 0 0 1965 0 0 1929 0 0 1912 0 0 1942 0 0 1901 0 0 1896 0 0 1981 0 0 1929 0 0 1875 0 0 1956 0 0 1960 0 0 1959 0 0 1936 0 0 1921 0 0 1949 0 0 1897 0 0 1908 0 0 1967 0 0 1860 0 0 1889 0 0 1888 0 0 1865 0 0 1895 0 0 1819 0 0 1815 0 0 1872 0 0 1824 0 0 1845 0 0 1817 0 0 1712 0 0 1032 0 0 281 0 0 257 0 0 230 0 0 190 0 0 174 0 0 149 0 0 145 0 0 128 0 0 110 0 0 
37 0 0 122 0 0 141 0 0 138 0 0 165 0 0 177 0 0 200 0 0 219 0 0 248 0 0 297 0 0 1068 0 0 1776 0 0 1772 0 0 1852 0 0 1837 0 0 1940 0 0 1829 0 0 1886 0 0 1892 0 0 1907 0 0 1911 0 0 1987 0 0 1934 0 0 1975 0 0 1990 0 0 1972 0 0 1946 0 0 1978 0 0 1949 0 0 1958 0 0 1991 0 0 1936 0 0 1991 0 0 1969 0 0 1970 0 0 2013 0 0 1968 0 0 1941 0 0 1993 0 0 1904 0 0 1944 0 0 1978 0 0 1941 0 0 1912 0 0 1884 0 0 1870 0 0 1832 0 0 1807 0 0 1764 0 0 1759 0 0 977 0 0 300 0 0 253 0 0 226 0 0 216 0 0 188 0 0 156 0 0 140 0 0 138 0 0 109 0 0 
35 0 0 120 0 0 147 0 0 154 0 0 178 0 0 199 0 0 218 0 0 232 0 0 285 0 0 332 0 0 1019 0 0 1794 0 0 1786 0 0 1833 0 0 1966 0 0 1933 0 0 1884 0 0 1952 0 0 2020 0 0 1950 0 0 1913 0 0 2032 0 0 1974 0 0 1903 0 0 1965 0 0 1934 0 0 2068 0 0 1953 0 0 1988 0 0 2038 0 0 2023 0 0 1976 0 0 1986 0 0 2001 0 0 2006 0 0 2009 0 0 2003 0 0 1944 0 0 1955 0 0 1949 0 0 1912 0 0 1988 0 0 1916 0 0 1933 0 0 1915 0 0 1915 0 0 1873 0 0 1911 0 0 1822 0 0 1768 0 0 1038 0 0 310 0 0 254 0 0 233 0 0 207 0 0 189 0 0 154 0 0 162 0 0 130 0 0 121 0 0 
37 0 0 115 0 0 153 0 0 160 0 0 176 0 0 196 0 0 227 0 0 242 0 0 281 0 0 310 0 0 1057 0 0 1798 0 0 1801 0 0 1901 0 0 1867 0 0 1916 0 0 1865 0 0 1994 0 0 1972 0 0 1898 0 0 1928 0 0 1961 0 0 1975 0 0 1996 0 0 2018 0 0 2047 0 0 2006 0 0 2023 0 0 2012 0 0 1996 0 0 2013 0 0 1986 0 0 2008 0 0 2073 0 0 2049 0 0 1950 0 0 1985 0 0 1985 0 0 1964 0 0 2010 0 0 2085 0 0 1972 0 0 1916 0 0 1895 0 0 1970 0 0 1888 0 0 1875 0 0 1877 0 0 1816 0 0 1736 0 0 1095 0 0 334 0 0 261 0 0 258 0 0 197 0 0 192 0 0 167 0 0 165 0 0 136 0 0 105 0 0 
34 0 0 117 0 0 130 0 0 153 0 0 165 0 0 191 0 0 210 0 0 233 0 0 276 0 0 336 0 0 1046 0 0 1841 0 0 1860 0 0 1879 0 0 1920 0 0 1899 0 0 1948 0 0 1977 0 0 1996 0 0 1963 0 0 1999 0 0 1981 0 0 2031 0 0 2056 0 0 2020 0 0 2010 0 0 1974 0 0 2024 0 0 2016 0 0 1981 0 0 2027 0 0 2033 0 0 2083 0 0 2017 0 0 2027 0 0 2008 0 0 2018 0 0 2050 0 0 1988 0 0 2034 0 0 2035 0 0 2023 0 0 1947 0 0 1986 0 0 1963 0 0 1927 0 0 1881 0 0 1825 0 0 1817 0 0 1752 0 0 1049 0 0 312 0 0 256 0 0 254 0 0 205 0 0 216 0 0 165 0 0 179 0 0 150 0 0 116 0 0 
47 0 0 137 0 0 155 0 0 176 0 0 166 0 0 190 0 0 226 0 0 264 0 0 305 0 0 357 0 0 1091 0 0 1841 0 0 1822 0 0 1813 0 0 1924 0 0 1917 0 0 1931 0 0 1922 0 0 1934 0 0 2023 0 0 2009 0 0 2066 0 0 2035 0 0 2000 0 0 2047 0 0 2010 0 0 2119 0 0 2068 0 0 2060 0 0 2091 0 0 2024 0 0 2002 0 0 2061 0 0 2074 0 0 2016 0 0 2027 0 0 1980 0 0 2061 0 0 2050 0 0 2061 0 0 2011 0 0 1992 0 0 2007 0 0 1979 0 0 1937 0 0 1947 0 0 1895 0 0 1893 0 0 1887 0 0 1805 0 0 1101 0 0 328 0 0 278 0 0 265 0 0 214 0 0 190 0 0 177 0 0 168 0 0 171 0 0 119 0 0 
36 0 0 136 0 0 160 0 0 158 0 0 168 0 0 212 0 0 232 0 0 246 0 0 298 0 0 345 0 0 1092 0 0 1773 0 0 1882 0 0 1829 0 0 1901 0 0 1881 0 0 1957 0 0 2015 0 0 1988 0 0 2037 0 0 1974 0 0 2077 0 0 1994 0 0 2031 0 0 2014 0 0 2049 0 0 2040 0 0 2020 0 0 2063 0 0 2021 0 0 2099 0 0 2003 0 0 2046 0 0 2047 0 0 2086 0 0 2045 0 0 2026 0 0 2089 0 0 2008 0 0 2006 0 0 2023 0 0 2035 0 0 1983 0 0 1988 0 0 1983 0 0 1919 0 0 1977 0 0 1856 0 0 1836 0 0 1838 0 0 1068 0 0 357 0 0 270 0 0 254 0 0 218 0 0 220 0 0 182 0 0 167 0 0 146 0 0 130 0 0 
46 0 0 128 0 0 151 0 0 159 0 0 199 0 0 220 0 0 254 0 0 265 0 0 318 0 0 375 0 0 1039 0 0 1811 0 0 1922 0 0 1884 0 0 1968 0 0 1891 0 0 1949 0 0 2007 0 0 2001 0 0 1989 0 0 2022 0 0 2078 0 0 1991 0 0 1982 0 0 2032 0 0 2066 0 0 1967 0 0 2037 0 0 2046 0 0 2095 0 0 2024 0 0 2135 0 0 2020 0 0 2139 0 0 2065 0 0 2064 0 0 1999 0 0 2018 0 0 2033 0 0 2046 0 0 2028 0 0 2049 0 0 1979 0 0 1998 0 0 1899 0 0 1909 0 0 1887 0 0 1877 0 0 1892 0 0 1826 0 0 1069 0 0 332 0 0 301 0 0 259 0 0 252 0 0 198 0 0 209 0 0 174 0 0 146 0 0 140 0 0 
38 0 0 131 0 0 158 0 0 181 0 0 197 0 0 205 0 0 239 0 0 289 0 0 299 0 0 370 0 0 1014 0 0 1852 0 0 1893 0 0 1918 0 0 1988 0 0 1887 0 0 2005 0 0 2019 0 0 2018 0 0 2041 0 0 2037 0 0 2074 0 0 2063 0 0 2006 0 0 2080 0 0 2069 0 0 2095 0 0 2093 0 0 2082 0 0 2142 0 0 2115 0 0 2111 0 0 2058 0 0 2047 0 0 2023 0 0 2020 0 0 2075 0 0 2012 0 0 2196 0 0 2051 0 0 2047 0 0 2035 0 0 1992 0 0 1940 0 0 1907 0 0 1953 0 0 1932 0 0 1885 0 0 1854 0 0 1805 0 0 1126 0 0 372 0 0 300 0 0 280 0 0 260 0 0 218 0 0 190 0 0 185 0 0 157 0 0 150 0 0 
43 0 0 136 0 0 163 0 0 178 0 0 201 0 0 221 0 0 241 0 0 287 0 0 297 0 0 358 0 0 1106 0 0 1859 0 0 1851 0 0 1904 0 0 1891 0 0 1990 0 0 1933 0 0 1961 0 0 1967 0 0 1985 0 0 2029 0 0 2090 0 0 2034 0 0 2101 0 0 2047 0 0 2073 0 0 2093 0 0 2156 0 0 2127 0 0 2008 0 0 2089 0 0 2113 0 0 2045 0 0 2014 0 0 2010 0 0 2050 0 0 2039 0 0 2053 0 0 2079 0 0 2021 0 0 2060 0 0 2010 0 0 2027 0 0 2033 0 0 2068 0 0 2073 0 0 1959 0 0 1931 0 0 1846 0 0 1776 0 0 1074 0 0 352 0 0 307 0 0 244 0 0 221 0 0 218 0 0 181 0 0 198 0 0 163 0 0 123 0 0 
45 0 0 143 0 0 151 0 0 182 0 0 219 0 0 221 0 0 243 0 0 268 0 0 299 0 0 361 0 0 1126 0 0 1826 0 0 1843 0 0 1956 0 0 1947 0 0 1926 0 0 1999 0 0 2085 0 0 1956 0 0 2062 0 0 2033 0 0 2043 0 0 2095 0 0 2080 0 0 2018 0 0 2081 0 0 2108 0 0 2006 0 0 2056 0 0 2168 0 0 2083 0 0 2088 0 0 2127 0 0 2068 0 0 2074 0 0 2092 0 0 2005 0 0 2042 0 0 2077 0 0 2050 0 0 2063 0 0 2023 0 0 1992 0 0 2061 0 0 2001 0 0 1972 0 0 1920 0 0 1927 0 0 1837 0 0 1794 0 0 1090 0 0 356 0 0 323 0 0 289 0 0 248 0 0 212 0 0 181 0 0 176 0 0 145 0 0 141 0 0 
43 0 0 147 0 0 155 0 0 164 0 0 202 0 0 225 0 0 255 0 0 289 0 0 335 0 0 355 0 0 1138 0 0 1802 0 0 1833 0 0 1918 0 0 1970 0 0 1924 0 0 1999 0 0 2039 0 0 2053 0 0 1996 0 0 2006 0 0 2058 0 0 2065 0 0 2007 0 0 2016 0 0 2163 0 0 2116 0 0 2126 0 0 2094 0 0 2159 0 0 2108 0 0 2055 0 0 2166 0 0 2027 0 0 2095 0 0 2102 0 0 2093 0 0 2073 0 0 2016 0 0 2102 0 0 2044 0 0 1966 0 0 1984 0 0 1975 0 0 2011 0 0 2024 0 0 1925 0 0 1978 0 0 1808 0 0 1821 0 0 1060 0 0 357 0 0 311 0 0 268 0 0 255 0 0 226 0 0 204 0 0 183 0 0 160 0 0 131 0 0 
41 0 0 133 0 0 156 0 0 180 0 0 204 0 0 238 0 0 252 0 0 292 0 0 298 0 0 363 0 0 1111 0 0 1790 0 0 1858 0 0 1959 0 0 1936 0 0 1955 0 0 2010 0 0 2022 0 0 2054 0 0 2012 0 0 2114 0 0 2043 0 0 2070 0 0 2101 0 0 2065 0 0 2109 0 0 2124 0 0 2155 0 0 2171 0 0 2107 0 0 2040 0 0 2071 0 0 2032 0 0 2089 0 0 2077 0 0 2061 0 0 2068 0 0 2076 0 0 2082 0 0 2063 0 0 1999 0 0 2063 0 0 2017 0 0 1999 0 0 1984 0 0 1958 0 0 1904 0 0 1906 0 0 1864 0 0 1860 0 0 1121 0 0 373 0 0 334 0 0 280 0 0 264 0 0 228 0 0 185 0 0 173 0 0 161 0 0 150 0 0 
47 0 0 147 0 0 169 0 0 199 0 0 208 0 0 210 0 0 234 0 0 279 0 0 331 0 0 373 0 0 1140 0 0 1796 0 0 1927 0 0 1882 0 0 1978 0 0 1940 0 0 1999 0 0 1983 0 0 2057 0 0 1975 0 0 2069 0 0 2093 0 0 2068 0 0 2155 0 0 2094 0 0 2069 0 0 2069 0 0 2081 0 0 2104 0 0 2110 0 0 2101 0 0 2037 0 0 2134 0 0 2089 0 0 2105 0 0 2054 0 0 2089 0 0 2120 0 0 2122 0 0 2073 0 0 2085 0 0 2073 0 0 2073 0 0 2019 0 0 1984 0 0 2019 0 0 1956 0 0 1894 0 0 1901 0 0 1785 0 0 1143 0 0 365 0 0 313 0 0 276 0 0 248 0 0 227 0 0 203 0 0 186 0 0 169 0 0 143 0 0 
52 0 0 146 0 0 166 0 0 169 0 0 202 0 0 215 0 0 270 0 0 298 0 0 315 0 0 378 0 0 1087 0 0 1833 0 0 1860 0 0 1899 0 0 1917 0 0 1954 0 0 1959 0 0 2035 0 0 2027 0 0 2090 0 0 2097 0 0 2066 0 0 2080 0 0 2132 0 0 2095 0 0 2072 0 0 2123 0 0 2087 0 0 2066 0 0 2128 0 0 2151 0 0 2106 0 0 2125 0 0 2074 0 0 2062 0 0 2006 0 0 2147 0 0 2104 0 0 2116 0 0 2101 0 0 2075 0 0 2049 0 0 2046 0 0 2024 0 0 1951 0 0 1975 0 0 1932 0 0 1900 0 0 1873 0 0 1787 0 0 1111 0 0 375 0 0 307 0 0 273 0 0 258 0 0 222 0 0 193 0 0 188 0 0 162 0 0 149 0 0 
47 0 0 142 0 0 169 0 0 190 0 0 202 0 0 223 0 0 239 0 0 280 0 0 297 0 0 378 0 0 1103 0 0 1876 0 0 1835 0 0 1917 0 0 1921 0 0 1929 0 0 2032 0 0 2022 0 0 2079 0 0 2037 0 0 1998 0 0 2097 0 0 2118 0 0 2126 0 0 2125 0 0 2068 0 0 2047 0 0 2186 0 0 2150 0 0 2041 0 0 2090 0 0 2100 0 0 2103 0 0 2140 0 0 2056 0 0 2054 0 0 2036 0 0 2092 0 0 2175 0 0 2088 0 0 2068 0 0 2028 0 0 2004 0 0 2082 0 0 2010 0 0 1978 0 0 1972 0 0 1862 0 0 1902 0 0 1763 0 0 1122 0 0 384 0 0 323 0 0 297 0 0 245 0 0 215 0 0 205 0 0 181 0 0 164 0 0 141 0 0 
43 0 0 147 0 0 173 0 0 195 0 0 229 0 0 222 0 0 263 0 0 268 0 0 328 0 0 386 0 0 1078 0 0 1805 0 0 1893 0 0 1890 0 0 1902 0 0 1969 0 0 2002 0 0 2127 0 0 2077 0 0 2037 0 0 2069 0 0 2021 0 0 2122 0 0 2123 0 0 2157 0 0 2162 0 0 2070 0 0 2092 0 0 2190 0 0 2066 0 0 2094 0 0 2023 0 0 2048 0 0 2070 0 0 2156 0 0 2160 0 0 2125 0 0 2059 0 0 2031 0 0 2106 0 0 2088 0 0 2100 0 0 2068 0 0 2070 0 0 2038 0 0 1988 0 0 1961 0 0 1898 0 0 1815 0 0 1768 0 0 1090 0 0 382 0 0 335 0 0 290 0 0 254 0 0 222 0 0 218 0 0 173 0 0 169 0 0 154 0 0 
51 0 0 142 0 0 176 0 0 183 0 0 220 0 0 235 0 0 278 0 0 322 0 0 310 0 0 397 0 0 1088 0 0 1871 0 0 1843 0 0 1871 0 0 1960 0 0 1913 0 0 1925 0 0 2038 0 0 2015 0 0 2037 0 0 1977 0 0 2093 0 0 2168 0 0 2089 0 0 2055 0 0 2125 0 0 2038 0 0 2163 0 0 2086 0 0 2124 0 0 2091 0 0 2041 0 0 2116 0 0 2113 0 0 2193 0 0 2112 0 0 2088 0 0 2028 0 0 2155 0 0 2035 0 0 2059 0 0 2012 0 0 2023 0 0 2069 0 0 2003 0 0 1956 0 0 1908 0 0 1928 0 0 1906 0 0 1839 0 0 1095 0 0 381 0 0 299 0 0 293 0 0 254 0 0 239 0 0 214 0 0 181 0 0 160 0 0 143 0 0 
42 0 0 152 0 0 162 0 0 189 0 0 196 0 0 234 0 0 262 0 0 286 0 0 317 0 0 362 0 0 1072 0 0 1891 0 0 1935 0 0 1910 0 0 1957 0 0 1972 0 0 2001 0 0 2036 0 0 1990 0 0 2094 0 0 2024 0 0 2040 0 0 2010 0 0 2055 0 0 2102 0 0 2073 0 0 2112 0 0 2090 0 0 2099 0 0 2109 0 0 2137 0 0 2154 0 0 2107 0 0 2094 0 0 2064 0 0 2121 0 0 2061 0 0 2087 0 0 2116 0 0 2109 0 0 2008 0 0 2099 0 0 2074 0 0 1974 0 0 1991 0 0 1977 0 0 1902 0 0 1890 0 0 1900 0 0 1841 0 0 1109 0 0 379 0 0 331 0 0 256 0 0 247 0 0 247 0 0 205 0 0 177 0 0 166 0 0 151 0 0 
35 0 0 134 0 0 165 0 0 180 0 0 219 0 0 220 0 0 270 0 0 285 0 0 303 0 0 345 0 0 1082 0 0 1839 0 0 1862 0 0 1923 0 0 1941 0 0 1975 0 0 2031 0 0 2001 0 0 2060 0 0 2045 0 0 2003 0 0 2129 0 0 2067 0 0 2144 0 0 2051 0 0 2039 0 0 2114 0 0 2071 0 0 2107 0 0 2128 0 0 2102 0 0 2125 0 0 2103 0 0 2144 0 0 2080 0 0 2072 0 0 2133 0 0 2116 0 0 2085 0 0 2087 0 0 2129 0 0 2033 0 0 2008 0 0 1967 0 0 1965 0 0 1964 0 0 2018 0 0 1936 0 0 1868 0 0 1880 0 0 1074 0 0 384 0 0 315 0 0 286 0 0 253 0 0 246 0 0 199 0 0 181 0 0 155 0 0 124 0 0 
48 0 0 152 0 0 177 0 0 193 0 0 190 0 0 242 0 0 240 0 0 290 0 0 307 0 0 364 0 0 1080 0 0 1769 0 0 1886 0 0 1935 0 0 1845 0 0 1972 0 0 2015 0 0 2014 0 0 2017 0 0 2090 0 0 2095 0 0 2043 0 0 2093 0 0 2165 0 0 2051 0 0 2031 0 0 2029 0 0 2126 0 0 2081 0 0 2113 0 0 2062 0 0 2057 0 0 2127 0 0 2096 0 0 2105 0 0 2134 0 0 2141 0 0 2061 0 0 2111 0 0 2119 0 0 2023 0 0 2080 0 0 2027 0 0 2027 0 0 2040 0 0 1954 0 0 1948 0 0 1881 0 0 1917 0 0 1810 0 0 1101 0 0 360 0 0 291 0 0 285 0 0 255 0 0 216 0 0 213 0 0 199 0 0 159 0 0 143 0 0 
44 0 0 138 0 0 169 0 0 183 0 0 199 0 0 201 0 0 249 0 0 281 0 0 310 0 0 351 0 0 1120 0 0 1854 0 0 1847 0 0 1962 0 0 2048 0 0 1991 0 0 1964 0 0 1991 0 0 2059 0 0 2013 0 0 2039 0 0 2053 0 0 2042 0 0 2103 0 0 2100 0 0 2062 0 0 2096 0 0 2095 0 0 2131 0 0 2082 0 0 2095 0 0 2097 0 0 2106 0 0 2062 0 0 2044 0 0 2021 0 0 2045 0 0 2075 0 0 2036 0 0 2020 0 0 2030 0 0 2074 0 0 2012 0 0 2051 0 0 2013 0 0 1959 0 0 1959 0 0 1956 0 0 1827 0 0 1869 0 0 1048 0 0 376 0 0 322 0 0 315 0 0 266 0 0 223 0 0 208 0 0 168 0 0 164 0 0 139 0 0 
42 0 0 124 0 0 150 0 0 186 0 0 217 0 0 224 0 0 242 0 0 264 0 0 333 0 0 350 0 0 1090 0 0 1818 0 0 1853 0 0 1921 0 0 1983 0 0 1919 0 0 1979 0 0 1987 0 0 2054 0 0 1959 0 0 1993 0 0 2077 0 0 2090 0 0 2038 0 0 2041 0 0 2048 0 0 2090 0 0 2014 0 0 2027 0 0 2093 0 0 2101 0 0 2074 0 0 2163 0 0 2083 0 0 2051 0 0 2139 0 0 2089 0 0 2003 0 0 1996 0 0 2082 0 0 2079 0 0 2012 0 0 1967 0 0 2037 0 0 1989 0 0 1902 0 0 1900 0 0 1921 0 0 1860 0 0 1851 0 0 1093 0 0 341 0 0 301 0 0 282 0 0 242 0 0 221 0 0 181 0 0 187 0 0 155 0 0 135 0 0 
39 0 0 128 0 0 150 0 0 171 0 0 193 0 0 210 0 0 241 0 0 284 0 0 310 0 0 358 0 0 1087 0 0 1816 0 0 1821 0 0 1905 0 0 1940 0 0 1971 0 0 1974 0 0 1958 0 0 1987 0 0 1992 0 0 2009 0 0 2084 0 0 2014 0 0 2156 0 0 2045 0 0 2042 0 0 2091 0 0 2051 0 0 2126 0 0 2030 0 0 2115 0 0 2054 0 0 2125 0 0 2100 0 0 2127 0 0 2009 0 0 2031 0 0 2155 0 0 2064 0 0 2011 0 0 2105 0 0 2014 0 0 2036 0 0 2000 0 0 2005 0 0 1975 0 0 1957 0 0 1907 0 0 1882 0 0 1863 0 0 1108 0 0 374 0 0 288 0 0 259 0 0 237 0 0 213 0 0 177 0 0 186 0 0 161 0 0 130 0 0 
45 0 0 146 0 0 153 0 0 163 0 0 201 0 0 210 0 0 243 0 0 247 0 0 322 0 0 373 0 0 1103 0 0 1851 0 0 1841 0 0 1870 0 0 1916 0 0 1974 0 0 1981 0 0 2028 0 0 2047 0 0 1983 0 0 2019 0 0 2034 0 0 1910 0 0 2133 0 0 2056 0 0 2081 0 0 2065 0 0 2086 0 0 2061 0 0 2088 0 0 2104 0 0 2065 0 0 2047 0 0 2030 0 0 2144 0 0 2075 0 0 2058 0 0 2047 0 0 2045 0 0 2086 0 0 2029 0 0 2019 0 0 1949 0 0 1977 0 0 1910 0 0 1927 0 0 1900 0 0 1959 0 0 1810 0 0 1891 0 0 1086 0 0 320 0 0 309 0 0 262 0 0 250 0 0 216 0 0 195 0 0 177 0 0 164 0 0 158 0 0 
43 0 0 135 0 0 158 0 0 182 0 0 185 0 0 213 0 0 251 0 0 258 0 0 312 0 0 357 0 0 1040 0 0 1777 0 0 1803 0 0 1859 0 0 1884 0 0 1947 0 0 1948 0 0 1906 0 0 2025 0 0 2019 0 0 1981 0 0 1984 0 0 2013 0 0 2050 0 0 2008 0 0 2049 0 0 2109 0 0 2064 0 0 2141 0 0 2031 0 0 2023 0 0 2024 0 0 2035 0 0 2090 0 0 2058 0 0 2070 0 0 2030 0 0 2046 0 0 2101 0 0 2012 0 0 2037 0 0 2025 0 0 1963 0 0 1996 0 0 1963 0 0 1894 0 0 1883 0 0 1914 0 0 1765 0 0 1828 0 0 1052 0 0 365 0 0 317 0 0 262 0 0 236 0 0 223 0 0 193 0 0 193 0 0 149 0 0 137 0 0 
41 0 0 134 0 0 147 0 0 168 0 0 182 0 0 194 0 0 236 0 0 256 0 0 269 0 0 325 0 0 1089 0 0 1907 0 0 1795 0 0 1919 0 0 1887 0 0 1892 0 0 1966 0 0 1979 0 0 2058 0 0 1991 0 0 2021 0 0 1993 0 0 1974 0 0 2077 0 0 2127 0 0 2082 0 0 2062 0 0 2100 0 0 2076 0 0 2041 0 0 2049 0 0 2057 0 0 2082 0 0 2065 0 0 2098 0 0 2067 0 0 2078 0 0 2077 0 0 2083 0 0 2051 0 0 2094 0 0 2023 0 0 1967 0 0 1969 0 0 1936 0 0 1955 0 0 1927 0 0 1969 0 0 1808 0 0 1814 0 0 1084 0 0 348 0 0 296 0 0 248 0 0 233 0 0 191 0 0 205 0 0 166 0 0 148 0 0 129 0 0 
38 0 0 116 0 0 130 0 0 153 0 0 180 0 0 197 0 0 240 0 0 254 0 0 283 0 0 350 0 0 1058 0 0 1807 0 0 1818 0 0 1860 0 0 1950 0 0 1927 0 0 2012 0 0 1952 0 0 1934 0 0 2004 0 0 2011 0 0 2061 0 0 1997 0 0 1999 0 0 2027 0 0 2042 0 0 2048 0 0 1958 0 0 2040 0 0 2078 0 0 2113 0 0 2076 0 0 2036 0 0 2050 0 0 2102 0 0 2005 0 0 2037 0 0 2022 0 0 2022 0 0 2068 0 0 1974 0 0 2015 0 0 1983 0 0 1980 0 0 1941 0 0 1971 0 0 1886 0 0 1893 0 0 1827 0 0 1778 0 0 1055 0 0 320 0 0 317 0 0 271 0 0 244 0 0 202 0 0 181 0 0 162 0 0 146 0 0 127 0 0 
35 0 0 122 0 0 135 0 0 163 0 0 161 0 0 204 0 0 239 0 0 249 0 0 298 0 0 346 0 0 1030 0 0 1778 0 0 1832 0 0 1901 0 0 1827 0 0 1879 0 0 1940 0 0 1985 0 0 2002 0 0 2017 0 0 1942 0 0 1990 0 0 1991 0 0 1986 0 0 1995 0 0 1964 0 0 1999 0 0 2043 0 0 2046 0 0 2085 0 0 2055 0 0 2021 0 0 2065 0 0 2018 0 0 2018 0 0 2057 0 0 2059 0 0 2067 0 0 2033 0 0 2053 0 0 1965 0 0 1985 0 0 1965 0 0 1926 0 0 1881 0 0 1904 0 0 1868 0 0 1862 0 0 1858 0 0 1754 0 0 1029 0 0 341 0 0 280 0 0 259 0 0 231 0 0 186 0 0 185 0 0 164 0 0 129 0 0 117 0 0 
41 0 0 123 0 0 118 0 0 146 0 0 176 0 0 209 0 0 203 0 0 238 0 0 283 0 0 349 0 0 1045 0 0 1769 0 0 1817 0 0 1863 0 0 1965 0 0 1853 0 0 1930 0 0 1918 0 0 1995 0 0 1921 0 0 1951 0 0 1988 0 0 1944 0 0 1973 0 0 1988 0 0 2016 0 0 2066 0 0 1984 0 0 2003 0 0 1986 0 0 1986 0 0 1985 0 0 1994 0 0 2002 0 0 2065 0 0 2050 0 0 2033 0 0 1967 0 0 1903 0 0 1965 0 0 1977 0 0 1977 0 0 1883 0 0 1915 0 0 1947 0 0 1925 0 0 1968 0 0 1869 0 0 1770 0 0 1784 0 0 1014 0 0 335 0 0 288 0 0 229 0 0 233 0 0 211 0 0 184 0 0 146 0 0 148 0 0 118 0 0 
37 0 0 117 0 0 128 0 0 167 0 0 170 0 0 195 0 0 219 0 0 223 0 0 248 0 0 324 0 0 1031 0 0 1822 0 0 1836 0 0 1818 0 0 1832 0 0 1861 0 0 1936 0 0 1891 0 0 1861 0 0 1909 0 0 2017 0 0 1975 0 0 1983 0 0 1909 0 0 1992 0 0 2035 0 0 1954 0 0 2057 0 0 1928 0 0 2029 0 0 2012 0 0 1938 0 0 1935 0 0 1937 0 0 2020 0 0 2018 0 0 1942 0 0 2026 0 0 1989 0 0 1924 0 0 1959 0 0 1917 0 0 1908 0 0 1862 0 0 1942 0 0 1866 0 0 1889 0 0 1858 0 0 1800 0 0 1754 0 0 1067 0 0 314 0 0 281 0 0 247 0 0 218 0 0 202 0 0 170 0 0 153 0 0 127 0 0 123 0 0 
40 0 0 120 0 0 126 0 0 161 0 0 159 0 0 168 0 0 194 0 0 222 0 0 271 0 0 299 0 0 1016 0 0 1758 0 0 1793 0 0 1748 0 0 1838 0 0 1837 0 0 1933 0 0 1910 0 0 1901 0 0 1906 0 0 1902 0 0 1981 0 0 1981 0 0 1929 0 0 1936 0 0 2001 0 0 2043 0 0 1937 0 0 1957 0 0 1968 0 0 1954 0 0 1982 0 0 1961 0 0 1961 0 0 1923 0 0 1992 0 0 1981 0 0 2022 0 0 1991 0 0 1948 0 0 1960 0 0 1948 0 0 1870 0 0 1942 0 0 1879 0 0 1932 0 0 1822 0 0 1825 0 0 1777 0 0 1762 0 0 1045 0 0 307 0 0 249 0 0 231 0 0 195 0 0 199 0 0 155 0 0 154 0 0 147 0 0 119 0 0 
38 0 0 110 0 0 132 0 0 142 0 0 158 0 0 182 0 0 186 0 0 209 0 0 237 0 0 288 0 0 985 0 0 1781 0 0 1804 0 0 1774 0 0 1805 0 0 1884 0 0 1873 0 0 1858 0 0 1895 0 0 1898 0 0 1971 0 0 1907 0 0 1917 0 0 1944 0 0 1968 0 0 1904 0 0 1934 0 0 1930 0 0 1978 0 0 1950 0 0 1921 0 0 1960 0 0 1882 0 0 1966 0 0 1891 0 0 2000 0 0 1911 0 0 1933 0 0 1929 0 0 1834 0 0 1988 0 0 1949 0 0 1890 0 0 1884 0 0 1857 0 0 1820 0 0 1818 0 0 1838 0 0 1794 0 0 1722 0 0 1034 0 0 284 0 0 249 0 0 220 0 0 207 0 0 178 0 0 157 0 0 145 0 0 129 0 0 116 0 0 
28 0 0 94 0 0 116 0 0 125 0 0 153 0 0 168 0 0 194 0 0 208 0 0 239 0 0 324 0 0 959 0 0 1735 0 0 1774 0 0 1759 0 0 1823 0 0 1854 0 0 1946 0 0 1907 0 0 1891 0 0 1907 0 0 1870 0 0 1930 0 0 1924 0 0 1980 0 0 1964 0 0 1875 0 0 1871 0 0 1935 0 0 1964 0 0 1908 0 0 1917 0 0 1895 0 0 2008 0 0 1893 0 0 1974 0 0 1928 0 0 1860 0 0 1880 0 0 1950 0 0 1910 0 0 1858 0 0 1882 0 0 1926 0 0 1897 0 0 1789 0 0 1896 0 0 1858 0 0 1805 0 0 1710 0 0 1685 0 0 1011 0 0 289 0 0 242 0 0 200 0 0 167 0 0 147 0 0 148 0 0 137 0 0 127 0 0 96 0 0 
36 0 0 92 0 0 119 0 0 132 0 0 146 0 0 168 0 0 174 0 0 189 0 0 214 0 0 252 0 0 1017 0 0 1698 0 0 1719 0 0 1745 0 0 1788 0 0 1735 0 0 1823 0 0 1814 0 0 1844 0 0 1860 0 0 1815 0 0 1808 0 0 1951 0 0 1969 0 0 1869 0 0 1903 0 0 1818 0 0 1862 0 0 1877 0 0 1943 0 0 1929 0 0 1883 0 0 1814 0 0 1932 0 0 1882 0 0 1931 0 0 1918 0 0 1923 0 0 1859 0 0 1880 0 0 1844 0 0 1872 0 0 1825 0 0 1892 0 0 1774 0 0 1793 0 0 1773 0 0 1817 0 0 1782 0 0 1673 0 0 994 0 0 262 0 0 211 0 0 198 0 0 179 0 0 152 0 0 141 0 0 124 0 0 118 0 0 106 0 0 
31 0 0 106 0 0 117 0 0 121 0 0 133 0 0 152 0 0 145 0 0 157 0 0 200 0 0 247 0 0 964 0 0 1692 0 0 1655 0 0 1731 0 0 1725 0 0 1751 0 0 1738 0 0 1792 0 0 1777 0 0 1776 0 0 1782 0 0 1775 0 0 1762 0 0 1780 0 0 1773 0 0 1822 0 0 1775 0 0 1811 0 0 1747 0 0 1876 0 0 1791 0 0 1825 0 0 1915 0 0 1828 0 0 1790 0 0 1824 0 0 1853 0 0 1837 0 0 1867 0 0 1849 0 0 1838 0 0 1779 0 0 1806 0 0 1782 0 0 1791 0 0 1767 0 0 1718 0 0 1722 0 0 1770 0 0 1708 0 0 942 0 0 249 0 0 206 0 0 192 0 0 169 0 0 152 0 0 128 0 0 123 0 0 95 0 0 114 0 0 
29 0 0 93 0 0 105 0 0 114 0 0 135 0 0 132 0 0 151 0 0 171 0 0 203 0 0 219 0 0 561 0 0 942 0 0 909 0 0 1011 0 0 1002 0 0 1054 0 0 1068 0 0 1044 0 0 1084 0 0 1075 0 0 1079 0 0 1065 0 0 1124 0 0 1086 0 0 1104 0 0 1062 0 0 1098 0 0 1131 0 0 1086 0 0 1139 0 0 1132 0 0 1136 0 0 1086 0 0 1106 0 0 1096 0 0 1091 0 0 1082 0 0 1110 0 0 1092 0 0 1114 0 0 1093 0 0 1111 0 0 1088 0 0 1054 0 0 1030 0 0 1009 0 0 1023 0 0 1018 0 0 976 0 0 935 0 0 553 0 0 221 0 0 188 0 0 167 0 0 141 0 0 139 0 0 132 0 0 109 0 0 119 0 0 103 0 0 
28 0 0 92 0 0 101 0 0 110 0 0 116 0 0 125 0 0 154 0 0 164 0 0 163 0 0 197 0 0 223 0 0 248 0 0 244 0 0 286 0 0 306 0 0 307 0 0 328 0 0 333 0 0 314 0 0 336 0 0 346 0 0 334 0 0 374 0 0 340 0 0 361 0 0 374 0 0 344 0 0 365 0 0 388 0 0 383 0 0 390 0 0 376 0 0 375 0 0 380 0 0 380 0 0 368 0 0 359 0 0 360 0 0 342 0 0 342 0 0 347 0 0 323 0 0 327 0 0 327 0 0 314 0 0 308 0 0 309 0 0 280 0 0 269 0 0 252 0 0 225 0 0 203 0 0 160 0 0 150 0 0 140 0 0 137 0 0 118 0 0 126 0 0 103 0 0 81 0 0 
21 0 0 75 0 0 86 0 0 104 0 0 109 0 0 130 0 0 131 0 0 150 0 0 161 0 0 176 0 0 189 0 0 191 0 0 211 0 0 235 0 0 259 0 0 249 0 0 257 0 0 290 0 0 285 0 0 293 0 0 301 0 0 301 0 0 299 0 0 308 0 0 287 0 0 303 0 0 331 0 0 327 0 0 318 0 0 309 0 0 335 0 0 322 0 0 337 0 0 337 0 0 323 0 0 329 0 0 334 0 0 308 0 0 320 0 0 288 0 0 293 0 0 284 0 0 274 0 0 281 0 0 280 0 0 257 0 0 242 0 0 231 0 0 239 0 0 195 0 0 191 0 0 179 0 0 161 0 0 141 0 0 132 0 0 112 0 0 120 0 0 98 0 0 110 0 0 77 0 0 
23 0 0 92 0 0 97 0 0 107 0 0 104 0 0 111 0 0 127 0 0 142 0 0 145 0 0 166 0 0 165 0 0 183 0 0 205 0 0 201 0 0 221 0 0 226 0 0 221 0 0 234 0 0 243 0 0 240 0 0 259 0 0 271 0 0 296 0 0 267 0 0 272 0 0 267 0 0 281 0 0 274 0 0 271 0 0 285 0 0 292 0 0 281 0 0 274 0 0 277 0 0 268 0 0 286 0 0 271 0 0 274 0 0 258 0 0 276 0 0 254 0 0 272 0 0 253 0 0 240 0 0 262 0 0 225 0 0 202 0 0 218 0 0 187 0 0 185 0 0 177 0 0 163 0 0 162 0 0 128 0 0 132 0 0 111 0 0 107 0 0 91 0 0 85 0 0 86 0 0 
23 0 0 73 0 0 81 0 0 91 0 0 87 0 0 113 0 0 120 0 0 130 0 0 127 0 0 147 0 0 156 0 0 172 0 0 185 0 0 193 0 0 193 0 0 205 0 0 220 0 0 202 0 0 223 0 0 221 0 0 250 0 0 242 0 0 242 0 0 251 0 0 230 0 0 245 0 0 251 0 0 263 0 0 255 0 0 268 0 0 243 0 0 265 0 0 243 0 0 241 0 0 266 0 0 249 0 0 251 0 0 273 0 0 253 0 0 228 0 0 226 0 0 227 0 0 212 0 0 228 0 0 222 0 0 205 0 0 204 0 0 185 0 0 190 0 0 167 0 0 160 0 0 142 0 0 137 0 0 120 0 0 109 0 0 94 0 0 90 0 0 98 0 0 78 0 0 76 0 0 
23 0 0 73 0 0 92 0 0 87 0 0 95 0 0 108 0 0 106 0 0 105 0 0 124 0 0 126 0 0 145 0 0 137 0 0 160 0 0 152 0 0 165 0 0 184 0 0 186 0 0 180 0 0 201 0 0 214 0 0 210 0 0 203 0 0 206 0 0 210 0 0 214 0 0 237 0 0 236 0 0 223 0 0 221 0 0 209 0 0 232 0 0 226 0 0 213 0 0 225 0 0 236 0 0 216 0 0 215 0 0 210 0 0 206 0 0 200 0 0 211 0 0 204 0 0 203 0 0 196 0 0 178 0 0 191 0 0 182 0 0 159 0 0 170 0 0 155 0 0 155 0 0 152 0 0 122 0 0 103 0 0 113 0 0 90 0 0 84 0 0 93 0 0 79 0 0 69 0 0 
22 0 0 65 0 0 75 0 0 72 0 0 102 0 0 94 0 0 104 0 0 92 0 0 116 0 0 115 0 0 126 0 0 130 0 0 141 0 0 154 0 0 156 0 0 161 0 0 160 0 0 168 0 0 191 0 0 181 0 0 191 0 0 209 0 0 194 0 0 212 0 0 198 0 0 210 0 0 214 0 0 195 0 0 210 0 0 198 0 0 193 0 0 201 0 0 201 0 0 203 0 0 190 0 0 184 0 0 200 0 0 189 0 0 194 0 0 181 0 0 191 0 0 177 0 0 169 0 0 173 0 0 171 0 0 167 0 0 140 0 0 146 0 0 143 0 0 145 0 0 110 0 0 119 0 0 122 0 0 109 0 0 101 0 0 87 0 0 85 0 0 78 0 0 72 0 0 62 0 0 
21 0 0 63 0 0 66 0 0 70 0 0 76 0 0 80 0 0 95 0 0 103 0 0 100 0 0 109 0 0 111 0 0 115 0 0 130 0 0 129 0 0 127 0 0 146 0 0 150 0 0 165 0 0 151 0 0 156 0 0 162 0 0 189 0 0 174 0 0 173 0 0 190 0 0 194 0 0 182 0 0 178 0 0 172 0 0 180 0 0 189 0 0 193 0 0 193 0 0 184 0 0 166 0 0 176 0 0 173 0 0 184 0 0 168 0 0 173 0 0 159 0 0 180 0 0 162 0 0 158 0 0 156 0 0 152 0 0 144 0 0 126 0 0 123 0 0 120 0 0 124 0 0 109 0 0 102 0 0 107 0 0 94 0 0 74 0 0 80 0 0 68 0 0 71 0 0 60 0 0 
23 0 0 52 0 0 66 0 0 63 0 0 69 0 0 71 0 0 75 0 0 90 0 0 96 0 0 105 0 0 103 0 0 101 0 0 118 0 0 132 0 0 121 0 0 145 0 0 143 0 0 129 0 0 132 0 0 143 0 0 148 0 0 163 0 0 144 0 0 153 0 0 164 0 0 159 0 0 161 0 0 182 0 0 171 0 0 174 0 0 177 0 0 156 0 0 176 0 0 155 0 0 156 0 0 161 0 0 157 0 0 159 0 0 154 0 0 172 0 0 149 0 0 151 0 0 138 0 0 135 0 0 127 0 0 141 0 0 117 0 0 122 0 0 113 0 0 101 0 0 99 0 0 96 0 0 92 0 0 99 0 0 74 0 0 78 0 0 78 0 0 64 0 0 60 0 0 55 0 0 
17 0 0 42 0 0 55 0 0 63 0 0 62 0 0 69 0 0 65 0 0 79 0 0 90 0 0 95 0 0 98 0 0 93 0 0 103 0 0 103 0 0 102 0 0 121 0 0 118 0 0 127 0 0 129 0 0 131 0 0 138 0 0 124 0 0 127 0 0 139 0 0 146 0 0 144 0 0 141 0 0 149 0 0 142 0 0 139 0 0 150 0 0 151 0 0 141 0 0 146 0 0 133 0 0 137 0 0 140 0 0 130 0 0 125 0 0 133 0 0 123 0 0 126 0 0 126 0 0 109 0 0 117 0 0 105 0 0 102 0 0 112 0 0 102 0 0 98 0 0 95 0 0 91 0 0 73 0 0 66 0 0 78 0 0 75 0 0 62 0 0 67 0 0 51 0 0 60 0 0 
