P3
# This is a dose file slice at depth 1 of 100
60 60
# now we give the maximum value of the RGB coordinates.
4982
2 0 0 5 0 0 6 0 0 5 0 0 6 0 0 8 0 0 7 0 0 8 0 0 8 0 0 9 0 0 11 0 0 12 0 0 11 0 0 11 0 0 11 0 0 10 0 0 10 0 0 12 0 0 11 0 0 11 0 0 13 0 0 10 0 0 13 0 0 14 0 0 14 0 0 14 0 0 15 0 0 14 0 0 15 0 0 12 0 0 16 0 0 15 0 0 13 0 0 14 0 0 14 0 0 14 0 0 14 0 0 13 0 0 14 0 0 12 0 0 13 0 0 13 0 0 13 0 0 10 0 0 10 0 0 10 0 0 11 0 0 11 0 0 10 0 0 10 0 0 11 0 0 7 0 0 9 0 0 5 0 0 6 0 0 7 0 0 6 0 0 5 0 0 6 0 0 5 0 0 
4 0 0 13 0 0 17 0 0 15 0 0 18 0 0 17 0 0 19 0 0 17 0 0 17 0 0 22 0 0 24 0 0 23 0 0 26 0 0 27 0 0 30 0 0 25 0 0 30 0 0 29 0 0 27 0 0 28 0 0 29 0 0 35 0 0 31 0 0 36 0 0 36 0 0 33 0 0 37 0 0 33 0 0 33 0 0 31 0 0 32 0 0 33 0 0 35 0 0 34 0 0 31 0 0 30 0 0 31 0 0 34 0 0 32 0 0 31 0 0 30 0 0 28 0 0 29 0 0 27 0 0 27 0 0 26 0 0 24 0 0 28 0 0 23 0 0 25 0 0 25 0 0 20 0 0 20 0 0 18 0 0 18 0 0 17 0 0 16 0 0 15 0 0 15 0 0 12 0 0 
8 0 0 16 0 0 13 0 0 17 0 0 15 0 0 18 0 0 19 0 0 18 0 0 19 0 0 20 0 0 25 0 0 23 0 0 30 0 0 32 0 0 32 0 0 34 0 0 29 0 0 31 0 0 32 0 0 35 0 0 31 0 0 35 0 0 33 0 0 36 0 0 33 0 0 35 0 0 36 0 0 40 0 0 40 0 0 40 0 0 33 0 0 36 0 0 39 0 0 35 0 0 36 0 0 36 0 0 38 0 0 37 0 0 37 0 0 34 0 0 34 0 0 33 0 0 36 0 0 29 0 0 29 0 0 31 0 0 27 0 0 30 0 0 27 0 0 24 0 0 28 0 0 20 0 0 22 0 0 19 0 0 18 0 0 18 0 0 15 0 0 18 0 0 19 0 0 15 0 0 
7 0 0 15 0 0 20 0 0 18 0 0 20 0 0 18 0 0 20 0 0 24 0 0 24 0 0 24 0 0 31 0 0 27 0 0 28 0 0 33 0 0 31 0 0 35 0 0 32 0 0 41 0 0 35 0 0 37 0 0 34 0 0 35 0 0 38 0 0 37 0 0 38 0 0 38 0 0 38 0 0 36 0 0 41 0 0 46 0 0 42 0 0 42 0 0 40 0 0 40 0 0 43 0 0 37 0 0 38 0 0 40 0 0 39 0 0 40 0 0 36 0 0 39 0 0 38 0 0 36 0 0 39 0 0 32 0 0 30 0 0 31 0 0 31 0 0 26 0 0 28 0 0 23 0 0 29 0 0 24 0 0 19 0 0 20 0 0 16 0 0 19 0 0 15 0 0 16 0 0 
6 0 0 16 0 0 19 0 0 18 0 0 18 0 0 21 0 0 25 0 0 25 0 0 25 0 0 27 0 0 31 0 0 30 0 0 32 0 0 33 0 0 34 0 0 38 0 0 42 0 0 38 0 0 40 0 0 41 0 0 43 0 0 46 0 0 42 0 0 42 0 0 46 0 0 43 0 0 44 0 0 45 0 0 43 0 0 47 0 0 43 0 0 43 0 0 51 0 0 46 0 0 47 0 0 47 0 0 45 0 0 49 0 0 45 0 0 49 0 0 40 0 0 39 0 0 37 0 0 40 0 0 40 0 0 35 0 0 34 0 0 36 0 0 32 0 0 36 0 0 29 0 0 25 0 0 25 0 0 26 0 0 19 0 0 21 0 0 24 0 0 17 0 0 15 0 0 17 0 0 
8 0 0 13 0 0 15 0 0 20 0 0 23 0 0 26 0 0 25 0 0 27 0 0 31 0 0 28 0 0 33 0 0 36 0 0 36 0 0 38 0 0 42 0 0 47 0 0 40 0 0 46 0 0 49 0 0 45 0 0 47 0 0 48 0 0 43 0 0 49 0 0 52 0 0 52 0 0 51 0 0 50 0 0 50 0 0 55 0 0 49 0 0 49 0 0 50 0 0 45 0 0 50 0 0 52 0 0 51 0 0 52 0 0 50 0 0 51 0 0 46 0 0 44 0 0 45 0 0 46 0 0 44 0 0 41 0 0 40 0 0 38 0 0 37 0 0 36 0 0 30 0 0 30 0 0 33 0 0 29 0 0 26 0 0 25 0 0 21 0 0 18 0 0 20 0 0 18 0 0 
8 0 0 20 0 0 20 0 0 19 0 0 25 0 0 26 0 0 30 0 0 30 0 0 31 0 0 36 0 0 39 0 0 40 0 0 42 0 0 44 0 0 45 0 0 48 0 0 48 0 0 49 0 0 49 0 0 49 0 0 56 0 0 54 0 0 51 0 0 55 0 0 51 0 0 56 0 0 59 0 0 59 0 0 61 0 0 61 0 0 54 0 0 60 0 0 60 0 0 56 0 0 55 0 0 60 0 0 56 0 0 58 0 0 56 0 0 54 0 0 52 0 0 50 0 0 50 0 0 48 0 0 51 0 0 48 0 0 44 0 0 42 0 0 37 0 0 36 0 0 33 0 0 32 0 0 30 0 0 30 0 0 25 0 0 23 0 0 23 0 0 19 0 0 19 0 0 16 0 0 
7 0 0 19 0 0 21 0 0 21 0 0 23 0 0 27 0 0 32 0 0 33 0 0 31 0 0 35 0 0 38 0 0 43 0 0 49 0 0 51 0 0 49 0 0 51 0 0 56 0 0 61 0 0 57 0 0 57 0 0 62 0 0 60 0 0 62 0 0 65 0 0 66 0 0 63 0 0 63 0 0 67 0 0 65 0 0 63 0 0 67 0 0 64 0 0 61 0 0 65 0 0 64 0 0 64 0 0 66 0 0 67 0 0 64 0 0 59 0 0 59 0 0 58 0 0 59 0 0 57 0 0 57 0 0 49 0 0 51 0 0 48 0 0 45 0 0 38 0 0 39 0 0 33 0 0 32 0 0 31 0 0 27 0 0 27 0 0 25 0 0 21 0 0 20 0 0 23 0 0 
7 0 0 18 0 0 21 0 0 24 0 0 27 0 0 28 0 0 33 0 0 38 0 0 37 0 0 42 0 0 40 0 0 45 0 0 50 0 0 62 0 0 63 0 0 66 0 0 65 0 0 65 0 0 63 0 0 72 0 0 65 0 0 68 0 0 65 0 0 74 0 0 76 0 0 77 0 0 78 0 0 74 0 0 70 0 0 77 0 0 74 0 0 73 0 0 77 0 0 75 0 0 72 0 0 70 0 0 73 0 0 76 0 0 65 0 0 66 0 0 67 0 0 68 0 0 71 0 0 64 0 0 65 0 0 57 0 0 57 0 0 59 0 0 53 0 0 44 0 0 43 0 0 41 0 0 36 0 0 32 0 0 29 0 0 27 0 0 25 0 0 25 0 0 21 0 0 19 0 0 
9 0 0 22 0 0 26 0 0 27 0 0 27 0 0 26 0 0 30 0 0 40 0 0 43 0 0 44 0 0 55 0 0 77 0 0 80 0 0 86 0 0 92 0 0 95 0 0 103 0 0 93 0 0 94 0 0 93 0 0 111 0 0 105 0 0 100 0 0 99 0 0 119 0 0 113 0 0 107 0 0 106 0 0 102 0 0 104 0 0 107 0 0 101 0 0 99 0 0 102 0 0 114 0 0 100 0 0 103 0 0 97 0 0 100 0 0 103 0 0 100 0 0 106 0 0 99 0 0 96 0 0 94 0 0 83 0 0 83 0 0 80 0 0 79 0 0 79 0 0 52 0 0 43 0 0 42 0 0 35 0 0 35 0 0 31 0 0 25 0 0 28 0 0 28 0 0 23 0 0 
9 0 0 22 0 0 22 0 0 26 0 0 28 0 0 30 0 0 35 0 0 43 0 0 47 0 0 64 0 0 1235 0 0 2332 0 0 2394 0 0 2386 0 0 2389 0 0 2404 0 0 2415 0 0 2333 0 0 2381 0 0 2416 0 0 2460 0 0 2397 0 0 2407 0 0 2426 0 0 2358 0 0 2422 0 0 2460 0 0 2425 0 0 2357 0 0 2328 0 0 2443 0 0 2425 0 0 2394 0 0 2391 0 0 2445 0 0 2360 0 0 2353 0 0 2394 0 0 2381 0 0 2432 0 0 2417 0 0 2404 0 0 2379 0 0 2361 0 0 2435 0 0 2364 0 0 2392 0 0 2419 0 0 2412 0 0 2298 0 0 1237 0 0 59 0 0 43 0 0 38 0 0 39 0 0 33 0 0 29 0 0 28 0 0 23 0 0 21 0 0 
11 0 0 22 0 0 24 0 0 26 0 0 31 0 0 32 0 0 39 0 0 43 0 0 51 0 0 74 0 0 2316 0 0 4609 0 0 4669 0 0 4750 0 0 4648 0 0 4672 0 0 4637 0 0 4548 0 0 4656 0 0 4705 0 0 4699 0 0 4672 0 0 4731 0 0 4770 0 0 4642 0 0 4701 0 0 4776 0 0 4724 0 0 4602 0 0 4631 0 0 4816 0 0 4708 0 0 4725 0 0 4638 0 0 4651 0 0 4759 0 0 4715 0 0 4680 0 0 4670 0 0 4672 0 0 4797 0 0 4671 0 0 4768 0 0 4646 0 0 4785 0 0 4736 0 0 4660 0 0 4673 0 0 4659 0 0 4690 0 0 2433 0 0 72 0 0 51 0 0 42 0 0 41 0 0 35 0 0 29 0 0 29 0 0 26 0 0 23 0 0 
11 0 0 21 0 0 25 0 0 27 0 0 33 0 0 37 0 0 38 0 0 48 0 0 53 0 0 80 0 0 2377 0 0 4677 0 0 4763 0 0 4700 0 0 4693 0 0 4776 0 0 4639 0 0 4603 0 0 4806 0 0 4670 0 0 4673 0 0 4774 0 0 4690 0 0 4748 0 0 4764 0 0 4809 0 0 4795 0 0 4719 0 0 4629 0 0 4752 0 0 4704 0 0 4778 0 0 4784 0 0 4708 0 0 4782 0 0 4673 0 0 4809 0 0 4723 0 0 4715 0 0 4647 0 0 4685 0 0 4846 0 0 4740 0 0 4693 0 0 4643 0 0 4668 0 0 4754 0 0 4649 0 0 4672 0 0 4696 0 0 2356 0 0 88 0 0 57 0 0 50 0 0 39 0 0 36 0 0 33 0 0 28 0 0 27 0 0 28 0 0 
11 0 0 26 0 0 25 0 0 32 0 0 39 0 0 36 0 0 38 0 0 48 0 0 62 0 0 89 0 0 2327 0 0 4693 0 0 4685 0 0 4727 0 0 4689 0 0 4812 0 0 4696 0 0 4696 0 0 4774 0 0 4644 0 0 4753 0 0 4694 0 0 4750 0 0 4792 0 0 4777 0 0 4789 0 0 4842 0 0 4801 0 0 4755 0 0 4756 0 0 4746 0 0 4744 0 0 4737 0 0 4822 0 0 4766 0 0 4741 0 0 4813 0 0 4802 0 0 4837 0 0 4759 0 0 4812 0 0 4717 0 0 4764 0 0 4686 0 0 4725 0 0 4676 0 0 4696 0 0 4676 0 0 4708 0 0 4609 0 0 2387 0 0 95 0 0 53 0 0 46 0 0 44 0 0 35 0 0 34 0 0 30 0 0 27 0 0 27 0 0 
12 0 0 26 0 0 31 0 0 32 0 0 35 0 0 41 0 0 43 0 0 48 0 0 59 0 0 88 0 0 2329 0 0 4696 0 0 4681 0 0 4778 0 0 4734 0 0 4789 0 0 4673 0 0 4897 0 0 4752 0 0 4628 0 0 4747 0 0 4852 0 0 4812 0 0 4769 0 0 4668 0 0 4706 0 0 4612 0 0 4699 0 0 4721 0 0 4840 0 0 4832 0 0 4759 0 0 4770 0 0 4627 0 0 4789 0 0 4841 0 0 4821 0 0 4776 0 0 4756 0 0 4890 0 0 4787 0 0 4810 0 0 4688 0 0 4749 0 0 4748 0 0 4700 0 0 4781 0 0 4741 0 0 4828 0 0 4717 0 0 2377 0 0 85 0 0 57 0 0 49 0 0 44 0 0 38 0 0 36 0 0 31 0 0 30 0 0 27 0 0 
12 0 0 27 0 0 29 0 0 37 0 0 37 0 0 45 0 0 44 0 0 47 0 0 60 0 0 91 0 0 2307 0 0 4731 0 0 4644 0 0 4740 0 0 4730 0 0 4783 0 0 4693 0 0 4859 0 0 4776 0 0 4623 0 0 4752 0 0 4603 0 0 4840 0 0 4867 0 0 4667 0 0 4737 0 0 4692 0 0 4762 0 0 4798 0 0 4646 0 0 4814 0 0 4799 0 0 4789 0 0 4691 0 0 4782 0 0 4760 0 0 4770 0 0 4717 0 0 4758 0 0 4835 0 0 4823 0 0 4718 0 0 4690 0 0 4732 0 0 4744 0 0 4587 0 0 4851 0 0 4623 0 0 4728 0 0 4684 0 0 2344 0 0 91 0 0 64 0 0 56 0 0 43 0 0 41 0 0 37 0 0 32 0 0 28 0 0 27 0 0 
9 0 0 26 0 0 31 0 0 33 0 0 38 0 0 45 0 0 49 0 0 54 0 0 64 0 0 78 0 0 2413 0 0 4739 0 0 4707 0 0 4767 0 0 4749 0 0 4654 0 0 4772 0 0 4802 0 0 4824 0 0 4623 0 0 4842 0 0 4668 0 0 4783 0 0 4768 0 0 4746 0 0 4680 0 0 4741 0 0 4738 0 0 4828 0 0 4844 0 0 4766 0 0 4846 0 0 4747 0 0 4736 0 0 4769 0 0 4727 0 0 4727 0 0 4724 0 0 4719 0 0 4795 0 0 4834 0 0 4764 0 0 4801 0 0 4676 0 0 4752 0 0 4739 0 0 4622 0 0 4720 0 0 4713 0 0 4685 0 0 2349 0 0 89 0 0 62 0 0 52 0 0 47 0 0 45 0 0 41 0 0 31 0 0 31 0 0 26 0 0 
11 0 0 31 0 0 32 0 0 38 0 0 41 0 0 45 0 0 50 0 0 55 0 0 60 0 0 97 0 0 2449 0 0 4603 0 0 4781 0 0 4647 0 0 4829 0 0 4803 0 0 4775 0 0 4737 0 0 4784 0 0 4821 0 0 4836 0 0 4877 0 0 4920 0 0 4738 0 0 4828 0 0 4789 0 0 4779 0 0 4727 0 0 4723 0 0 4683 0 0 4799 0 0 4773 0 0 4635 0 0 4730 0 0 4759 0 0 4727 0 0 4757 0 0 4770 0 0 4812 0 0 4656 0 0 4846 0 0 4755 0 0 4803 0 0 4809 0 0 4795 0 0 4747 0 0 4759 0 0 4773 0 0 4705 0 0 4670 0 0 2405 0 0 98 0 0 65 0 0 51 0 0 50 0 0 42 0 0 38 0 0 35 0 0 31 0 0 30 0 0 
12 0 0 28 0 0 39 0 0 39 0 0 39 0 0 46 0 0 53 0 0 59 0 0 70 0 0 95 0 0 2404 0 0 4670 0 0 4681 0 0 4785 0 0 4708 0 0 4772 0 0 4766 0 0 4804 0 0 4770 0 0 4587 0 0 4793 0 0 4758 0 0 4746 0 0 4758 0 0 4732 0 0 4754 0 0 4645 0 0 4793 0 0 4785 0 0 4753 0 0 4777 0 0 4798 0 0 4696 0 0 4794 0 0 4772 0 0 4622 0 0 4837 0 0 4827 0 0 4837 0 0 4776 0 0 4884 0 0 4771 0 0 4802 0 0 4752 0 0 4953 0 0 4764 0 0 4614 0 0 4722 0 0 4738 0 0 4758 0 0 2409 0 0 101 0 0 65 0 0 57 0 0 50 0 0 41 0 0 42 0 0 40 0 0 32 0 0 29 0 0 
12 0 0 28 0 0 37 0 0 39 0 0 49 0 0 45 0 0 53 0 0 56 0 0 66 0 0 104 0 0 2426 0 0 4660 0 0 4805 0 0 4757 0 0 4706 0 0 4688 0 0 4678 0 0 4763 0 0 4813 0 0 4768 0 0 4806 0 0 4865 0 0 4747 0 0 4781 0 0 4906 0 0 4852 0 0 4784 0 0 4889 0 0 4818 0 0 4779 0 0 4813 0 0 4785 0 0 4781 0 0 4789 0 0 4725 0 0 4842 0 0 4769 0 0 4714 0 0 4648 0 0 4801 0 0 4809 0 0 4825 0 0 4804 0 0 4861 0 0 4749 0 0 4725 0 0 4790 0 0 4652 0 0 4739 0 0 4730 0 0 2353 0 0 106 0 0 71 0 0 54 0 0 49 0 0 43 0 0 40 0 0 39 0 0 33 0 0 31 0 0 
13 0 0 29 0 0 32 0 0 38 0 0 40 0 0 50 0 0 50 0 0 54 0 0 70 0 0 98 0 0 2302 0 0 4722 0 0 4642 0 0 4862 0 0 4749 0 0 4777 0 0 4723 0 0 4736 0 0 4775 0 0 4764 0 0 4844 0 0 4850 0 0 4729 0 0 4829 0 0 4771 0 0 4855 0 0 4868 0 0 4725 0 0 4864 0 0 4812 0 0 4772 0 0 4817 0 0 4784 0 0 4848 0 0 4756 0 0 4742 0 0 4719 0 0 4704 0 0 4743 0 0 4784 0 0 4726 0 0 4801 0 0 4634 0 0 4688 0 0 4771 0 0 4793 0 0 4773 0 0 4760 0 0 4673 0 0 4688 0 0 2421 0 0 107 0 0 67 0 0 56 0 0 51 0 0 53 0 0 43 0 0 37 0 0 32 0 0 26 0 0 
11 0 0 28 0 0 34 0 0 40 0 0 41 0 0 50 0 0 56 0 0 58 0 0 74 0 0 105 0 0 2386 0 0 4734 0 0 4786 0 0 4769 0 0 4782 0 0 4684 0 0 4736 0 0 4810 0 0 4871 0 0 4713 0 0 4823 0 0 4731 0 0 4763 0 0 4779 0 0 4696 0 0 4825 0 0 4767 0 0 4795 0 0 4835 0 0 4860 0 0 4799 0 0 4846 0 0 4722 0 0 4752 0 0 4855 0 0 4864 0 0 4816 0 0 4765 0 0 4697 0 0 4674 0 0 4700 0 0 4708 0 0 4805 0 0 4732 0 0 4780 0 0 4786 0 0 4710 0 0 4657 0 0 4735 0 0 4690 0 0 2381 0 0 100 0 0 70 0 0 66 0 0 50 0 0 47 0 0 42 0 0 36 0 0 33 0 0 29 0 0 
15 0 0 32 0 0 34 0 0 42 0 0 46 0 0 52 0 0 55 0 0 61 0 0 72 0 0 113 0 0 2403 0 0 4662 0 0 4748 0 0 4722 0 0 4646 0 0 4742 0 0 4794 0 0 4719 0 0 4786 0 0 4761 0 0 4805 0 0 4814 0 0 4734 0 0 4808 0 0 4738 0 0 4742 0 0 4940 0 0 4775 0 0 4832 0 0 4909 0 0 4732 0 0 4854 0 0 4755 0 0 4882 0 0 4785 0 0 4715 0 0 4828 0 0 4770 0 0 4811 0 0 4841 0 0 4739 0 0 4688 0 0 4868 0 0 4653 0 0 4779 0 0 4695 0 0 4718 0 0 4738 0 0 4698 0 0 4673 0 0 2439 0 0 92 0 0 69 0 0 62 0 0 53 0 0 51 0 0 46 0 0 34 0 0 34 0 0 31 0 0 
11 0 0 30 0 0 33 0 0 36 0 0 46 0 0 51 0 0 61 0 0 59 0 0 76 0 0 104 0 0 2393 0 0 4740 0 0 4764 0 0 4810 0 0 4872 0 0 4842 0 0 4725 0 0 4753 0 0 4589 0 0 4785 0 0 4777 0 0 4801 0 0 4923 0 0 4769 0 0 4818 0 0 4753 0 0 4704 0 0 4765 0 0 4808 0 0 4802 0 0 4835 0 0 4706 0 0 4765 0 0 4803 0 0 4781 0 0 4882 0 0 4788 0 0 4678 0 0 4742 0 0 4733 0 0 4750 0 0 4758 0 0 4812 0 0 4760 0 0 4801 0 0 4780 0 0 4786 0 0 4800 0 0 4625 0 0 4665 0 0 2298 0 0 105 0 0 76 0 0 63 0 0 52 0 0 50 0 0 45 0 0 39 0 0 35 0 0 29 0 0 
13 0 0 31 0 0 36 0 0 41 0 0 46 0 0 52 0 0 52 0 0 62 0 0 69 0 0 105 0 0 2409 0 0 4756 0 0 4796 0 0 4831 0 0 4792 0 0 4864 0 0 4744 0 0 4655 0 0 4711 0 0 4789 0 0 4829 0 0 4842 0 0 4736 0 0 4789 0 0 4815 0 0 4815 0 0 4725 0 0 4707 0 0 4732 0 0 4722 0 0 4792 0 0 4736 0 0 4787 0 0 4843 0 0 4765 0 0 4735 0 0 4853 0 0 4841 0 0 4818 0 0 4705 0 0 4758 0 0 4757 0 0 4715 0 0 4742 0 0 4772 0 0 4732 0 0 4631 0 0 4820 0 0 4730 0 0 4686 0 0 2428 0 0 96 0 0 75 0 0 67 0 0 59 0 0 56 0 0 48 0 0 44 0 0 37 0 0 33 0 0 
14 0 0 33 0 0 36 0 0 42 0 0 43 0 0 48 0 0 52 0 0 61 0 0 77 0 0 115 0 0 2398 0 0 4619 0 0 4813 0 0 4818 0 0 4752 0 0 4741 0 0 4812 0 0 4919 0 0 4789 0 0 4830 0 0 4825 0 0 4668 0 0 4737 0 0 4704 0 0 4890 0 0 4677 0 0 4720 0 0 4741 0 0 4743 0 0 4823 0 0 4793 0 0 4810 0 0 4845 0 0 4820 0 0 4663 0 0 4805 0 0 4753 0 0 4701 0 0 4724 0 0 4706 0 0 4802 0 0 4753 0 0 4741 0 0 4597 0 0 4713 0 0 4841 0 0 4727 0 0 4715 0 0 4727 0 0 4681 0 0 2438 0 0 103 0 0 74 0 0 70 0 0 60 0 0 45 0 0 44 0 0 38 0 0 37 0 0 34 0 0 
16 0 0 35 0 0 39 0 0 37 0 0 47 0 0 52 0 0 57 0 0 71 0 0 69 0 0 110 0 0 2405 0 0 4667 0 0 4760 0 0 4744 0 0 4697 0 0 4747 0 0 4718 0 0 4774 0 0 4861 0 0 4700 0 0 4865 0 0 4837 0 0 4844 0 0 4764 0 0 4782 0 0 4769 0 0 4716 0 0 4824 0 0 4799 0 0 4732 0 0 4753 0 0 4772 0 0 4851 0 0 4785 0 0 4740 0 0 4818 0 0 4784 0 0 4845 0 0 4880 0 0 4750 0 0 4639 0 0 4781 0 0 4908 0 0 4764 0 0 4814 0 0 4770 0 0 4690 0 0 4653 0 0 4862 0 0 4747 0 0 2365 0 0 99 0 0 75 0 0 59 0 0 58 0 0 53 0 0 48 0 0 42 0 0 36 0 0 31 0 0 
14 0 0 36 0 0 41 0 0 41 0 0 46 0 0 53 0 0 57 0 0 67 0 0 81 0 0 115 0 0 2423 0 0 4794 0 0 4746 0 0 4744 0 0 4690 0 0 4707 0 0 4779 0 0 4765 0 0 4785 0 0 4807 0 0 4704 0 0 4787 0 0 4837 0 0 4817 0 0 4799 0 0 4770 0 0 4880 0 0 4727 0 0 4757 0 0 4812 0 0 4725 0 0 4804 0 0 4721 0 0 4800 0 0 4853 0 0 4780 0 0 4788 0 0 4894 0 0 4715 0 0 4781 0 0 4755 0 0 4785 0 0 4861 0 0 4762 0 0 4794 0 0 4734 0 0 4710 0 0 4734 0 0 4648 0 0 4776 0 0 2353 0 0 116 0 0 75 0 0 67 0 0 55 0 0 48 0 0 44 0 0 40 0 0 39 0 0 34 0 0 
13 0 0 33 0 0 36 0 0 39 0 0 42 0 0 54 0 0 57 0 0 60 0 0 71 0 0 101 0 0 2413 0 0 4747 0 0 4746 0 0 4689 0 0 4738 0 0 4754 0 0 4776 0 0 4816 0 0 4879 0 0 4796 0 0 4796 0 0 4806 0 0 4719 0 0 4712 0 0 4745 0 0 4764 0 0 4873 0 0 4685 0 0 4825 0 0 4763 0 0 4829 0 0 4872 0 0 4761 0 0 4755 0 0 4812 0 0 4807 0 0 4945 0 0 4800 0 0 4754 0 0 4775 0 0 4715 0 0 4806 0 0 4702 0 0 4925 0 0 4834 0 0 4778 0 0 4792 0 0 4773 0 0 4714 0 0 4676 0 0 2437 0 0 102 0 0 71 0 0 61 0 0 61 0 0 50 0 0 49 0 0 43 0 0 38 0 0 33 0 0 
13 0 0 35 0 0 38 0 0 40 0 0 45 0 0 49 0 0 54 0 0 66 0 0 73 0 0 96 0 0 2363 0 0 4677 0 0 4722 0 0 4727 0 0 4766 0 0 4816 0 0 4815 0 0 4784 0 0 4751 0 0 4769 0 0 4714 0 0 4621 0 0 4798 0 0 4821 0 0 4805 0 0 4740 0 0 4812 0 0 4747 0 0 4814 0 0 4867 0 0 4756 0 0 4831 0 0 4755 0 0 4776 0 0 4634 0 0 4794 0 0 4811 0 0 4775 0 0 4780 0 0 4885 0 0 4758 0 0 4744 0 0 4714 0 0 4792 0 0 4743 0 0 4640 0 0 4676 0 0 4812 0 0 4718 0 0 4724 0 0 2447 0 0 116 0 0 70 0 0 63 0 0 56 0 0 55 0 0 45 0 0 45 0 0 41 0 0 31 0 0 
15 0 0 36 0 0 40 0 0 36 0 0 47 0 0 53 0 0 56 0 0 64 0 0 74 0 0 104 0 0 2413 0 0 4647 0 0 4817 0 0 4752 0 0 4656 0 0 4711 0 0 4774 0 0 4738 0 0 4723 0 0 4744 0 0 4787 0 0 4775 0 0 4868 0 0 4903 0 0 4767 0 0 4820 0 0 4913 0 0 4841 0 0 4789 0 0 4892 0 0 4742 0 0 4663 0 0 4792 0 0 4863 0 0 4887 0 0 4801 0 0 4824 0 0 4771 0 0 4725 0 0 4754 0 0 4761 0 0 4765 0 0 4697 0 0 4821 0 0 4749 0 0 4832 0 0 4768 0 0 4684 0 0 4697 0 0 4752 0 0 2405 0 0 112 0 0 76 0 0 68 0 0 56 0 0 52 0 0 47 0 0 44 0 0 40 0 0 31 0 0 
13 0 0 35 0 0 35 0 0 40 0 0 49 0 0 54 0 0 58 0 0 62 0 0 78 0 0 109 0 0 2408 0 0 4637 0 0 4780 0 0 4740 0 0 4811 0 0 4816 0 0 4806 0 0 4825 0 0 4771 0 0 4647 0 0 4788 0 0 4672 0 0 4816 0 0 4749 0 0 4770 0 0 4794 0 0 4787 0 0 4910 0 0 4602 0 0 4816 0 0 4774 0 0 4818 0 0 4758 0 0 4786 0 0 4782 0 0 4830 0 0 4792 0 0 4775 0 0 4809 0 0 4796 0 0 4821 0 0 4698 0 0 4816 0 0 4616 0 0 4798 0 0 4796 0 0 4776 0 0 4692 0 0 4705 0 0 4646 0 0 2508 0 0 105 0 0 75 0 0 63 0 0 63 0 0 60 0 0 49 0 0 46 0 0 36 0 0 32 0 0 
16 0 0 33 0 0 36 0 0 41 0 0 46 0 0 53 0 0 57 0 0 62 0 0 76 0 0 111 0 0 2364 0 0 4702 0 0 4745 0 0 4873 0 0 4688 0 0 4682 0 0 4762 0 0 4803 0 0 4752 0 0 4789 0 0 4858 0 0 4818 0 0 4779 0 0 4719 0 0 4707 0 0 4798 0 0 4772 0 0 4754 0 0 4736 0 0 4876 0 0 4741 0 0 4779 0 0 4837 0 0 4849 0 0 4844 0 0 4834 0 0 4792 0 0 4809 0 0 4739 0 0 4844 0 0 4716 0 0 4754 0 0 4704 0 0 4778 0 0 4767 0 0 4828 0 0 4811 0 0 4707 0 0 4756 0 0 4773 0 0 2420 0 0 104 0 0 75 0 0 64 0 0 58 0 0 52 0 0 51 0 0 43 0 0 37 0 0 35 0 0 
16 0 0 32 0 0 37 0 0 41 0 0 48 0 0 50 0 0 57 0 0 67 0 0 75 0 0 100 0 0 2411 0 0 4642 0 0 4843 0 0 4822 0 0 4802 0 0 4768 0 0 4761 0 0 4774 0 0 4714 0 0 4829 0 0 4867 0 0 4816 0 0 4778 0 0 4772 0 0 4761 0 0 4801 0 0 4895 0 0 4859 0 0 4886 0 0 4685 0 0 4742 0 0 4820 0 0 4833 0 0 4706 0 0 4809 0 0 4918 0 0 4942 0 0 4757 0 0 4699 0 0 4831 0 0 4808 0 0 4835 0 0 4703 0 0 4753 0 0 4757 0 0 4696 0 0 4808 0 0 4689 0 0 4728 0 0 4659 0 0 2438 0 0 102 0 0 76 0 0 67 0 0 59 0 0 56 0 0 50 0 0 43 0 0 39 0 0 34 0 0 
13 0 0 34 0 0 36 0 0 42 0 0 44 0 0 50 0 0 59 0 0 62 0 0 65 0 0 96 0 0 2329 0 0 4727 0 0 4771 0 0 4859 0 0 4729 0 0 4754 0 0 4841 0 0 4762 0 0 4689 0 0 4701 0 0 4855 0 0 4750 0 0 4838 0 0 4729 0 0 4726 0 0 4824 0 0 4863 0 0 4786 0 0 4847 0 0 4831 0 0 4742 0 0 4747 0 0 4775 0 0 4784 0 0 4771 0 0 4861 0 0 4813 0 0 4896 0 0 4716 0 0 4688 0 0 4807 0 0 4654 0 0 4715 0 0 4795 0 0 4742 0 0 4791 0 0 4683 0 0 4748 0 0 4784 0 0 4569 0 0 2393 0 0 111 0 0 81 0 0 68 0 0 60 0 0 50 0 0 48 0 0 42 0 0 39 0 0 35 0 0 
14 0 0 35 0 0 38 0 0 45 0 0 49 0 0 53 0 0 54 0 0 65 0 0 76 0 0 105 0 0 2414 0 0 4810 0 0 4800 0 0 4758 0 0 4885 0 0 4855 0 0 4786 0 0 4741 0 0 4770 0 0 4804 0 0 4789 0 0 4822 0 0 4820 0 0 4836 0 0 4699 0 0 4787 0 0 4799 0 0 4832 0 0 4765 0 0 4758 0 0 4913 0 0 4904 0 0 4797 0 0 4872 0 0 4868 0 0 4816 0 0 4811 0 0 4779 0 0 4812 0 0 4687 0 0 4898 0 0 4861 0 0 4780 0 0 4739 0 0 4732 0 0 4693 0 0 4714 0 0 4676 0 0 4727 0 0 4604 0 0 2374 0 0 109 0 0 82 0 0 65 0 0 64 0 0 51 0 0 44 0 0 41 0 0 33 0 0 35 0 0 
12 0 0 32 0 0 41 0 0 38 0 0 46 0 0 52 0 0 59 0 0 69 0 0 80 0 0 109 0 0 2365 0 0 4777 0 0 4781 0 0 4847 0 0 4614 0 0 4715 0 0 4669 0 0 4779 0 0 4737 0 0 4782 0 0 4771 0 0 4795 0 0 4872 0 0 4794 0 0 4720 0 0 4870 0 0 4814 0 0 4797 0 0 4795 0 0 4799 0 0 4875 0 0 4785 0 0 4792 0 0 4700 0 0 4812 0 0 4758 0 0 4717 0 0 4755 0 0 4886 0 0 4715 0 0 4826 0 0 4711 0 0 4785 0 0 4793 0 0 4827 0 0 4687 0 0 4866 0 0 4748 0 0 4721 0 0 4675 0 0 2400 0 0 107 0 0 72 0 0 66 0 0 53 0 0 49 0 0 44 0 0 38 0 0 35 0 0 31 0 0 
14 0 0 33 0 0 38 0 0 38 0 0 46 0 0 54 0 0 57 0 0 63 0 0 75 0 0 110 0 0 2408 0 0 4680 0 0 4811 0 0 4854 0 0 4652 0 0 4692 0 0 4756 0 0 4818 0 0 4657 0 0 4694 0 0 4829 0 0 4819 0 0 4762 0 0 4732 0 0 4762 0 0 4809 0 0 4855 0 0 4813 0 0 4759 0 0 4773 0 0 4714 0 0 4747 0 0 4706 0 0 4834 0 0 4757 0 0 4706 0 0 4798 0 0 4799 0 0 4707 0 0 4783 0 0 4790 0 0 4708 0 0 4749 0 0 4813 0 0 4861 0 0 4853 0 0 4844 0 0 4751 0 0 4781 0 0 4678 0 0 2406 0 0 103 0 0 71 0 0 60 0 0 56 0 0 47 0 0 47 0 0 40 0 0 38 0 0 29 0 0 
13 0 0 34 0 0 33 0 0 40 0 0 46 0 0 47 0 0 57 0 0 62 0 0 73 0 0 103 0 0 2441 0 0 4689 0 0 4748 0 0 4791 0 0 4835 0 0 4696 0 0 4759 0 0 4808 0 0 4825 0 0 4789 0 0 4752 0 0 4711 0 0 4703 0 0 4754 0 0 4686 0 0 4856 0 0 4908 0 0 4737 0 0 4860 0 0 4794 0 0 4863 0 0 4670 0 0 4731 0 0 4799 0 0 4806 0 0 4771 0 0 4763 0 0 4795 0 0 4720 0 0 4860 0 0 4699 0 0 4777 0 0 4766 0 0 4672 0 0 4757 0 0 4753 0 0 4793 0 0 4800 0 0 4732 0 0 4740 0 0 2433 0 0 106 0 0 70 0 0 60 0 0 61 0 0 55 0 0 49 0 0 43 0 0 38 0 0 33 0 0 
14 0 0 32 0 0 34 0 0 38 0 0 44 0 0 45 0 0 54 0 0 61 0 0 69 0 0 102 0 0 2356 0 0 4793 0 0 4714 0 0 4715 0 0 4801 0 0 4732 0 0 4691 0 0 4778 0 0 4731 0 0 4689 0 0 4788 0 0 4784 0 0 4733 0 0 4769 0 0 4791 0 0 4783 0 0 4781 0 0 4734 0 0 4777 0 0 4955 0 0 4732 0 0 4777 0 0 4870 0 0 4866 0 0 4832 0 0 4754 0 0 4860 0 0 4731 0 0 4763 0 0 4834 0 0 4658 0 0 4779 0 0 4814 0 0 4767 0 0 4744 0 0 4782 0 0 4834 0 0 4674 0 0 4739 0 0 4703 0 0 2436 0 0 100 0 0 71 0 0 64 0 0 55 0 0 49 0 0 42 0 0 39 0 0 37 0 0 32 0 0 
13 0 0 31 0 0 31 0 0 34 0 0 37 0 0 48 0 0 53 0 0 66 0 0 64 0 0 97 0 0 2390 0 0 4683 0 0 4679 0 0 4722 0 0 4858 0 0 4745 0 0 4800 0 0 4799 0 0 4784 0 0 4672 0 0 4761 0 0 4774 0 0 4821 0 0 4724 0 0 4834 0 0 4848 0 0 4831 0 0 4919 0 0 4853 0 0 4754 0 0 4791 0 0 4746 0 0 4786 0 0 4784 0 0 4684 0 0 4787 0 0 4709 0 0 4786 0 0 4784 0 0 4762 0 0 4682 0 0 4908 0 0 4688 0 0 4835 0 0 4767 0 0 4874 0 0 4751 0 0 4755 0 0 4694 0 0 4635 0 0 2414 0 0 94 0 0 71 0 0 59 0 0 55 0 0 44 0 0 41 0 0 39 0 0 33 0 0 28 0 0 
10 0 0 28 0 0 35 0 0 37 0 0 44 0 0 50 0 0 51 0 0 58 0 0 69 0 0 97 0 0 2408 0 0 4696 0 0 4712 0 0 4700 0 0 4771 0 0 4730 0 0 4671 0 0 4775 0 0 4753 0 0 4731 0 0 4829 0 0 4770 0 0 4797 0 0 4726 0 0 4726 0 0 4762 0 0 4908 0 0 4807 0 0 4688 0 0 4829 0 0 4810 0 0 4778 0 0 4790 0 0 4797 0 0 4720 0 0 4707 0 0 4777 0 0 4757 0 0 4863 0 0 4827 0 0 4754 0 0 4774 0 0 4693 0 0 4643 0 0 4781 0 0 4810 0 0 4856 0 0 4756 0 0 4797 0 0 4621 0 0 2437 0 0 96 0 0 65 0 0 57 0 0 51 0 0 50 0 0 44 0 0 40 0 0 31 0 0 26 0 0 
12 0 0 28 0 0 33 0 0 37 0 0 41 0 0 46 0 0 53 0 0 57 0 0 59 0 0 98 0 0 2387 0 0 4590 0 0 4713 0 0 4706 0 0 4792 0 0 4712 0 0 4699 0 0 4725 0 0 4658 0 0 4771 0 0 4749 0 0 4848 0 0 4797 0 0 4712 0 0 4743 0 0 4804 0 0 4769 0 0 4751 0 0 4862 0 0 4752 0 0 4848 0 0 4661 0 0 4820 0 0 4841 0 0 4826 0 0 4766 0 0 4818 0 0 4848 0 0 4731 0 0 4753 0 0 4712 0 0 4699 0 0 4833 0 0 4739 0 0 4757 0 0 4752 0 0 4825 0 0 4815 0 0 4686 0 0 4627 0 0 2384 0 0 95 0 0 70 0 0 60 0 0 48 0 0 42 0 0 39 0 0 38 0 0 30 0 0 27 0 0 
11 0 0 32 0 0 32 0 0 35 0 0 42 0 0 40 0 0 49 0 0 57 0 0 64 0 0 97 0 0 2412 0 0 4745 0 0 4738 0 0 4734 0 0 4773 0 0 4777 0 0 4700 0 0 4738 0 0 4752 0 0 4760 0 0 4737 0 0 4773 0 0 4770 0 0 4838 0 0 4731 0 0 4764 0 0 4664 0 0 4789 0 0 4814 0 0 4726 0 0 4773 0 0 4768 0 0 4723 0 0 4818 0 0 4739 0 0 4768 0 0 4703 0 0 4789 0 0 4715 0 0 4897 0 0 4693 0 0 4771 0 0 4802 0 0 4762 0 0 4779 0 0 4621 0 0 4625 0 0 4780 0 0 4770 0 0 4729 0 0 2470 0 0 99 0 0 62 0 0 53 0 0 46 0 0 42 0 0 38 0 0 30 0 0 29 0 0 26 0 0 
11 0 0 25 0 0 28 0 0 33 0 0 36 0 0 45 0 0 48 0 0 53 0 0 57 0 0 91 0 0 2418 0 0 4716 0 0 4733 0 0 4625 0 0 4694 0 0 4718 0 0 4695 0 0 4780 0 0 4786 0 0 4735 0 0 4815 0 0 4697 0 0 4898 0 0 4651 0 0 4673 0 0 4732 0 0 4723 0 0 4871 0 0 4630 0 0 4755 0 0 4886 0 0 4797 0 0 4784 0 0 4727 0 0 4908 0 0 4794 0 0 4719 0 0 4792 0 0 4839 0 0 4827 0 0 4858 0 0 4797 0 0 4671 0 0 4769 0 0 4780 0 0 4758 0 0 4767 0 0 4842 0 0 4746 0 0 4825 0 0 2346 0 0 87 0 0 59 0 0 49 0 0 46 0 0 42 0 0 41 0 0 35 0 0 34 0 0 29 0 0 
12 0 0 30 0 0 27 0 0 33 0 0 36 0 0 43 0 0 46 0 0 52 0 0 68 0 0 92 0 0 2412 0 0 4649 0 0 4759 0 0 4823 0 0 4861 0 0 4738 0 0 4783 0 0 4696 0 0 4859 0 0 4675 0 0 4716 0 0 4783 0 0 4729 0 0 4808 0 0 4732 0 0 4690 0 0 4662 0 0 4726 0 0 4755 0 0 4774 0 0 4853 0 0 4676 0 0 4662 0 0 4747 0 0 4773 0 0 4805 0 0 4663 0 0 4741 0 0 4692 0 0 4657 0 0 4877 0 0 4677 0 0 4749 0 0 4772 0 0 4835 0 0 4740 0 0 4785 0 0 4726 0 0 4716 0 0 4585 0 0 2413 0 0 95 0 0 56 0 0 52 0 0 44 0 0 41 0 0 36 0 0 33 0 0 36 0 0 28 0 0 
12 0 0 27 0 0 28 0 0 29 0 0 42 0 0 37 0 0 41 0 0 45 0 0 57 0 0 90 0 0 2430 0 0 4663 0 0 4716 0 0 4778 0 0 4585 0 0 4667 0 0 4738 0 0 4642 0 0 4688 0 0 4751 0 0 4742 0 0 4698 0 0 4706 0 0 4785 0 0 4694 0 0 4710 0 0 4780 0 0 4770 0 0 4720 0 0 4710 0 0 4650 0 0 4766 0 0 4721 0 0 4744 0 0 4722 0 0 4606 0 0 4809 0 0 4763 0 0 4711 0 0 4637 0 0 4738 0 0 4785 0 0 4832 0 0 4859 0 0 4723 0 0 4776 0 0 4735 0 0 4667 0 0 4755 0 0 4680 0 0 2396 0 0 83 0 0 61 0 0 51 0 0 49 0 0 39 0 0 37 0 0 34 0 0 29 0 0 29 0 0 
8 0 0 23 0 0 29 0 0 29 0 0 31 0 0 43 0 0 43 0 0 50 0 0 57 0 0 81 0 0 2392 0 0 4759 0 0 4662 0 0 4584 0 0 4684 0 0 4845 0 0 4802 0 0 4733 0 0 4745 0 0 4775 0 0 4832 0 0 4737 0 0 4739 0 0 4806 0 0 4760 0 0 4709 0 0 4607 0 0 4836 0 0 4798 0 0 4689 0 0 4799 0 0 4814 0 0 4758 0 0 4814 0 0 4616 0 0 4835 0 0 4798 0 0 4787 0 0 4784 0 0 4767 0 0 4667 0 0 4725 0 0 4783 0 0 4740 0 0 4749 0 0 4728 0 0 4710 0 0 4703 0 0 4680 0 0 4591 0 0 2360 0 0 85 0 0 59 0 0 44 0 0 42 0 0 39 0 0 32 0 0 32 0 0 30 0 0 25 0 0 
9 0 0 23 0 0 26 0 0 30 0 0 34 0 0 38 0 0 41 0 0 42 0 0 52 0 0 88 0 0 2365 0 0 4612 0 0 4653 0 0 4683 0 0 4754 0 0 4759 0 0 4779 0 0 4804 0 0 4724 0 0 4797 0 0 4703 0 0 4696 0 0 4684 0 0 4714 0 0 4749 0 0 4648 0 0 4786 0 0 4760 0 0 4760 0 0 4690 0 0 4690 0 0 4876 0 0 4638 0 0 4733 0 0 4682 0 0 4748 0 0 4705 0 0 4688 0 0 4705 0 0 4798 0 0 4863 0 0 4780 0 0 4702 0 0 4785 0 0 4762 0 0 4749 0 0 4753 0 0 4614 0 0 4613 0 0 4605 0 0 2375 0 0 85 0 0 55 0 0 40 0 0 45 0 0 35 0 0 34 0 0 28 0 0 27 0 0 23 0 0 
7 0 0 22 0 0 23 0 0 30 0 0 34 0 0 36 0 0 34 0 0 39 0 0 48 0 0 79 0 0 2413 0 0 4604 0 0 4699 0 0 4635 0 0 4657 0 0 4648 0 0 4693 0 0 4703 0 0 4735 0 0 4633 0 0 4664 0 0 4632 0 0 4755 0 0 4794 0 0 4721 0 0 4670 0 0 4694 0 0 4804 0 0 4730 0 0 4659 0 0 4723 0 0 4858 0 0 4700 0 0 4722 0 0 4712 0 0 4712 0 0 4710 0 0 4599 0 0 4668 0 0 4606 0 0 4762 0 0 4625 0 0 4747 0 0 4792 0 0 4626 0 0 4741 0 0 4585 0 0 4630 0 0 4604 0 0 4619 0 0 2365 0 0 66 0 0 46 0 0 43 0 0 41 0 0 36 0 0 30 0 0 30 0 0 25 0 0 22 0 0 
9 0 0 23 0 0 25 0 0 25 0 0 28 0 0 32 0 0 35 0 0 43 0 0 45 0 0 58 0 0 1184 0 0 2365 0 0 2358 0 0 2386 0 0 2366 0 0 2493 0 0 2413 0 0 2368 0 0 2418 0 0 2369 0 0 2386 0 0 2381 0 0 2429 0 0 2470 0 0 2449 0 0 2374 0 0 2470 0 0 2377 0 0 2406 0 0 2476 0 0 2360 0 0 2442 0 0 2440 0 0 2429 0 0 2452 0 0 2367 0 0 2459 0 0 2374 0 0 2376 0 0 2360 0 0 2415 0 0 2376 0 0 2414 0 0 2425 0 0 2395 0 0 2397 0 0 2375 0 0 2370 0 0 2449 0 0 2304 0 0 1226 0 0 56 0 0 43 0 0 40 0 0 32 0 0 33 0 0 28 0 0 26 0 0 22 0 0 21 0 0 
8 0 0 21 0 0 23 0 0 25 0 0 28 0 0 32 0 0 31 0 0 35 0 0 38 0 0 48 0 0 66 0 0 67 0 0 85 0 0 93 0 0 96 0 0 92 0 0 92 0 0 92 0 0 99 0 0 99 0 0 103 0 0 107 0 0 97 0 0 103 0 0 109 0 0 105 0 0 107 0 0 109 0 0 111 0 0 107 0 0 105 0 0 105 0 0 103 0 0 105 0 0 109 0 0 98 0 0 103 0 0 108 0 0 104 0 0 107 0 0 101 0 0 94 0 0 93 0 0 103 0 0 97 0 0 83 0 0 83 0 0 84 0 0 81 0 0 81 0 0 67 0 0 49 0 0 41 0 0 38 0 0 34 0 0 28 0 0 29 0 0 26 0 0 20 0 0 19 0 0 
8 0 0 20 0 0 22 0 0 23 0 0 26 0 0 28 0 0 31 0 0 34 0 0 38 0 0 43 0 0 48 0 0 49 0 0 55 0 0 58 0 0 63 0 0 58 0 0 62 0 0 67 0 0 70 0 0 66 0 0 69 0 0 72 0 0 73 0 0 72 0 0 71 0 0 75 0 0 71 0 0 75 0 0 72 0 0 75 0 0 76 0 0 74 0 0 76 0 0 71 0 0 76 0 0 72 0 0 73 0 0 76 0 0 73 0 0 74 0 0 68 0 0 68 0 0 67 0 0 67 0 0 68 0 0 61 0 0 54 0 0 53 0 0 51 0 0 47 0 0 44 0 0 42 0 0 43 0 0 40 0 0 30 0 0 27 0 0 27 0 0 27 0 0 23 0 0 20 0 0 
8 0 0 19 0 0 20 0 0 23 0 0 25 0 0 28 0 0 25 0 0 28 0 0 34 0 0 37 0 0 40 0 0 38 0 0 43 0 0 49 0 0 51 0 0 46 0 0 51 0 0 58 0 0 58 0 0 58 0 0 63 0 0 58 0 0 64 0 0 67 0 0 66 0 0 62 0 0 65 0 0 61 0 0 63 0 0 65 0 0 68 0 0 66 0 0 67 0 0 63 0 0 66 0 0 63 0 0 66 0 0 65 0 0 69 0 0 61 0 0 62 0 0 58 0 0 58 0 0 54 0 0 61 0 0 51 0 0 53 0 0 46 0 0 47 0 0 43 0 0 39 0 0 37 0 0 32 0 0 33 0 0 32 0 0 27 0 0 25 0 0 24 0 0 20 0 0 17 0 0 
7 0 0 18 0 0 19 0 0 24 0 0 25 0 0 28 0 0 25 0 0 27 0 0 32 0 0 33 0 0 32 0 0 38 0 0 41 0 0 41 0 0 44 0 0 42 0 0 49 0 0 52 0 0 50 0 0 52 0 0 52 0 0 55 0 0 55 0 0 57 0 0 59 0 0 62 0 0 56 0 0 58 0 0 56 0 0 63 0 0 59 0 0 62 0 0 58 0 0 62 0 0 60 0 0 53 0 0 63 0 0 56 0 0 59 0 0 52 0 0 54 0 0 52 0 0 47 0 0 52 0 0 46 0 0 47 0 0 42 0 0 40 0 0 36 0 0 36 0 0 32 0 0 30 0 0 34 0 0 31 0 0 28 0 0 26 0 0 25 0 0 23 0 0 20 0 0 15 0 0 
7 0 0 17 0 0 16 0 0 19 0 0 20 0 0 21 0 0 24 0 0 25 0 0 26 0 0 28 0 0 31 0 0 34 0 0 35 0 0 41 0 0 39 0 0 41 0 0 43 0 0 45 0 0 43 0 0 44 0 0 51 0 0 51 0 0 49 0 0 51 0 0 49 0 0 51 0 0 43 0 0 55 0 0 53 0 0 51 0 0 50 0 0 48 0 0 53 0 0 56 0 0 50 0 0 52 0 0 51 0 0 55 0 0 46 0 0 47 0 0 51 0 0 47 0 0 45 0 0 41 0 0 40 0 0 43 0 0 38 0 0 41 0 0 37 0 0 36 0 0 29 0 0 26 0 0 27 0 0 26 0 0 27 0 0 22 0 0 21 0 0 18 0 0 21 0 0 17 0 0 
6 0 0 14 0 0 17 0 0 18 0 0 21 0 0 20 0 0 22 0 0 23 0 0 24 0 0 28 0 0 26 0 0 28 0 0 30 0 0 36 0 0 34 0 0 37 0 0 36 0 0 41 0 0 38 0 0 41 0 0 44 0 0 41 0 0 42 0 0 48 0 0 45 0 0 48 0 0 48 0 0 45 0 0 47 0 0 43 0 0 44 0 0 47 0 0 49 0 0 47 0 0 48 0 0 49 0 0 43 0 0 47 0 0 47 0 0 43 0 0 43 0 0 39 0 0 42 0 0 44 0 0 36 0 0 39 0 0 38 0 0 33 0 0 31 0 0 35 0 0 35 0 0 26 0 0 23 0 0 23 0 0 23 0 0 19 0 0 18 0 0 18 0 0 16 0 0 18 0 0 
5 0 0 15 0 0 14 0 0 18 0 0 15 0 0 19 0 0 22 0 0 23 0 0 20 0 0 28 0 0 26 0 0 26 0 0 29 0 0 33 0 0 32 0 0 33 0 0 38 0 0 35 0 0 33 0 0 36 0 0 41 0 0 40 0 0 35 0 0 38 0 0 40 0 0 43 0 0 44 0 0 36 0 0 42 0 0 44 0 0 46 0 0 44 0 0 40 0 0 43 0 0 41 0 0 41 0 0 43 0 0 45 0 0 40 0 0 38 0 0 38 0 0 34 0 0 34 0 0 33 0 0 33 0 0 35 0 0 33 0 0 30 0 0 28 0 0 32 0 0 29 0 0 29 0 0 21 0 0 22 0 0 20 0 0 19 0 0 17 0 0 19 0 0 15 0 0 17 0 0 
8 0 0 14 0 0 14 0 0 14 0 0 19 0 0 17 0 0 19 0 0 19 0 0 24 0 0 20 0 0 25 0 0 23 0 0 25 0 0 28 0 0 28 0 0 32 0 0 30 0 0 31 0 0 32 0 0 34 0 0 35 0 0 36 0 0 34 0 0 37 0 0 36 0 0 38 0 0 39 0 0 37 0 0 35 0 0 43 0 0 36 0 0 37 0 0 37 0 0 39 0 0 36 0 0 41 0 0 36 0 0 37 0 0 34 0 0 33 0 0 32 0 0 38 0 0 32 0 0 34 0 0 25 0 0 29 0 0 33 0 0 30 0 0 25 0 0 28 0 0 25 0 0 21 0 0 22 0 0 23 0 0 21 0 0 18 0 0 18 0 0 19 0 0 12 0 0 12 0 0 
6 0 0 12 0 0 15 0 0 13 0 0 17 0 0 13 0 0 16 0 0 18 0 0 21 0 0 21 0 0 22 0 0 22 0 0 26 0 0 25 0 0 26 0 0 27 0 0 30 0 0 30 0 0 29 0 0 31 0 0 33 0 0 29 0 0 30 0 0 31 0 0 35 0 0 30 0 0 35 0 0 32 0 0 32 0 0 31 0 0 35 0 0 32 0 0 29 0 0 31 0 0 34 0 0 33 0 0 32 0 0 32 0 0 32 0 0 27 0 0 31 0 0 30 0 0 28 0 0 28 0 0 27 0 0 28 0 0 27 0 0 24 0 0 24 0 0 24 0 0 21 0 0 22 0 0 19 0 0 20 0 0 17 0 0 15 0 0 15 0 0 12 0 0 13 0 0 11 0 0 
