P3
# This is a kerma file slice at depth 9 of 100
60 60
# now we give the maximum value of the RGB coordinates.
903099
4 0 0 9 0 0 11 0 0 10 0 0 10 0 0 11 0 0 12 0 0 13 0 0 15 0 0 17 0 0 16 0 0 17 0 0 20 0 0 21 0 0 22 0 0 22 0 0 23 0 0 26 0 0 20 0 0 25 0 0 25 0 0 26 0 0 29 0 0 29 0 0 25 0 0 25 0 0 30 0 0 25 0 0 28 0 0 30 0 0 28 0 0 29 0 0 27 0 0 27 0 0 29 0 0 23 0 0 23 0 0 28 0 0 30 0 0 25 0 0 25 0 0 25 0 0 25 0 0 24 0 0 22 0 0 21 0 0 21 0 0 20 0 0 19 0 0 18 0 0 18 0 0 17 0 0 15 0 0 13 0 0 12 0 0 13 0 0 13 0 0 13 0 0 10 0 0 10 0 0 
9 0 0 21 0 0 24 0 0 22 0 0 28 0 0 26 0 0 32 0 0 31 0 0 38 0 0 42 0 0 38 0 0 43 0 0 41 0 0 42 0 0 46 0 0 48 0 0 49 0 0 61 0 0 52 0 0 54 0 0 55 0 0 53 0 0 64 0 0 58 0 0 57 0 0 62 0 0 65 0 0 59 0 0 66 0 0 61 0 0 63 0 0 61 0 0 65 0 0 61 0 0 61 0 0 59 0 0 61 0 0 58 0 0 57 0 0 56 0 0 59 0 0 57 0 0 50 0 0 51 0 0 48 0 0 50 0 0 44 0 0 46 0 0 45 0 0 39 0 0 41 0 0 36 0 0 39 0 0 30 0 0 30 0 0 32 0 0 28 0 0 25 0 0 23 0 0 23 0 0 
9 0 0 23 0 0 23 0 0 28 0 0 27 0 0 27 0 0 32 0 0 39 0 0 40 0 0 41 0 0 45 0 0 47 0 0 48 0 0 53 0 0 54 0 0 56 0 0 56 0 0 58 0 0 62 0 0 65 0 0 65 0 0 69 0 0 73 0 0 70 0 0 71 0 0 73 0 0 69 0 0 66 0 0 69 0 0 68 0 0 70 0 0 73 0 0 69 0 0 72 0 0 71 0 0 64 0 0 72 0 0 63 0 0 69 0 0 69 0 0 65 0 0 59 0 0 61 0 0 56 0 0 62 0 0 52 0 0 59 0 0 51 0 0 43 0 0 46 0 0 46 0 0 43 0 0 35 0 0 40 0 0 34 0 0 34 0 0 26 0 0 22 0 0 21 0 0 23 0 0 
9 0 0 25 0 0 26 0 0 33 0 0 31 0 0 37 0 0 38 0 0 39 0 0 46 0 0 47 0 0 49 0 0 51 0 0 56 0 0 62 0 0 63 0 0 64 0 0 70 0 0 67 0 0 68 0 0 69 0 0 70 0 0 74 0 0 72 0 0 77 0 0 76 0 0 81 0 0 77 0 0 83 0 0 73 0 0 77 0 0 78 0 0 78 0 0 82 0 0 83 0 0 83 0 0 78 0 0 76 0 0 81 0 0 76 0 0 74 0 0 69 0 0 72 0 0 74 0 0 68 0 0 66 0 0 64 0 0 66 0 0 59 0 0 56 0 0 52 0 0 48 0 0 49 0 0 46 0 0 43 0 0 36 0 0 37 0 0 32 0 0 29 0 0 27 0 0 26 0 0 
11 0 0 24 0 0 30 0 0 33 0 0 40 0 0 41 0 0 42 0 0 46 0 0 52 0 0 51 0 0 62 0 0 58 0 0 64 0 0 67 0 0 71 0 0 67 0 0 70 0 0 76 0 0 74 0 0 80 0 0 81 0 0 84 0 0 89 0 0 92 0 0 91 0 0 89 0 0 86 0 0 94 0 0 97 0 0 90 0 0 100 0 0 92 0 0 97 0 0 88 0 0 98 0 0 90 0 0 97 0 0 82 0 0 92 0 0 94 0 0 89 0 0 81 0 0 79 0 0 81 0 0 77 0 0 68 0 0 75 0 0 64 0 0 70 0 0 62 0 0 57 0 0 52 0 0 48 0 0 45 0 0 43 0 0 35 0 0 34 0 0 30 0 0 26 0 0 25 0 0 
12 0 0 28 0 0 36 0 0 32 0 0 35 0 0 35 0 0 45 0 0 53 0 0 52 0 0 56 0 0 59 0 0 66 0 0 76 0 0 84 0 0 78 0 0 84 0 0 96 0 0 88 0 0 97 0 0 90 0 0 101 0 0 106 0 0 104 0 0 107 0 0 114 0 0 101 0 0 103 0 0 109 0 0 109 0 0 108 0 0 112 0 0 104 0 0 106 0 0 110 0 0 107 0 0 102 0 0 100 0 0 111 0 0 108 0 0 96 0 0 105 0 0 101 0 0 93 0 0 89 0 0 88 0 0 92 0 0 78 0 0 82 0 0 76 0 0 69 0 0 64 0 0 56 0 0 53 0 0 49 0 0 48 0 0 47 0 0 37 0 0 36 0 0 34 0 0 28 0 0 
13 0 0 32 0 0 34 0 0 38 0 0 42 0 0 43 0 0 48 0 0 57 0 0 64 0 0 64 0 0 75 0 0 86 0 0 91 0 0 90 0 0 102 0 0 101 0 0 104 0 0 105 0 0 108 0 0 110 0 0 114 0 0 119 0 0 115 0 0 126 0 0 113 0 0 122 0 0 121 0 0 126 0 0 129 0 0 132 0 0 132 0 0 117 0 0 133 0 0 125 0 0 116 0 0 118 0 0 120 0 0 121 0 0 115 0 0 119 0 0 117 0 0 122 0 0 117 0 0 109 0 0 102 0 0 103 0 0 97 0 0 94 0 0 90 0 0 82 0 0 76 0 0 69 0 0 65 0 0 57 0 0 60 0 0 44 0 0 43 0 0 38 0 0 37 0 0 32 0 0 
14 0 0 30 0 0 37 0 0 41 0 0 47 0 0 53 0 0 56 0 0 65 0 0 67 0 0 76 0 0 83 0 0 89 0 0 97 0 0 112 0 0 124 0 0 114 0 0 124 0 0 135 0 0 139 0 0 138 0 0 151 0 0 141 0 0 139 0 0 147 0 0 159 0 0 146 0 0 155 0 0 149 0 0 139 0 0 151 0 0 156 0 0 152 0 0 149 0 0 144 0 0 141 0 0 144 0 0 135 0 0 152 0 0 143 0 0 144 0 0 142 0 0 145 0 0 128 0 0 127 0 0 123 0 0 123 0 0 115 0 0 115 0 0 103 0 0 105 0 0 87 0 0 81 0 0 69 0 0 63 0 0 58 0 0 53 0 0 43 0 0 39 0 0 36 0 0 31 0 0 
14 0 0 34 0 0 35 0 0 50 0 0 48 0 0 54 0 0 67 0 0 78 0 0 79 0 0 92 0 0 103 0 0 131 0 0 129 0 0 139 0 0 152 0 0 149 0 0 155 0 0 167 0 0 153 0 0 168 0 0 176 0 0 187 0 0 166 0 0 171 0 0 182 0 0 196 0 0 189 0 0 179 0 0 183 0 0 179 0 0 188 0 0 176 0 0 198 0 0 184 0 0 181 0 0 190 0 0 181 0 0 172 0 0 177 0 0 187 0 0 166 0 0 163 0 0 164 0 0 153 0 0 168 0 0 145 0 0 151 0 0 142 0 0 136 0 0 128 0 0 111 0 0 94 0 0 84 0 0 73 0 0 67 0 0 56 0 0 49 0 0 49 0 0 40 0 0 32 0 0 
18 0 0 39 0 0 42 0 0 49 0 0 53 0 0 64 0 0 73 0 0 79 0 0 99 0 0 112 0 0 131 0 0 154 0 0 187 0 0 182 0 0 203 0 0 207 0 0 200 0 0 217 0 0 229 0 0 237 0 0 234 0 0 226 0 0 247 0 0 229 0 0 234 0 0 241 0 0 252 0 0 241 0 0 253 0 0 239 0 0 244 0 0 227 0 0 255 0 0 260 0 0 250 0 0 233 0 0 234 0 0 223 0 0 239 0 0 237 0 0 231 0 0 223 0 0 247 0 0 205 0 0 227 0 0 218 0 0 191 0 0 194 0 0 184 0 0 163 0 0 118 0 0 108 0 0 91 0 0 77 0 0 71 0 0 58 0 0 49 0 0 49 0 0 41 0 0 35 0 0 
18 0 0 41 0 0 48 0 0 47 0 0 56 0 0 67 0 0 72 0 0 88 0 0 105 0 0 125 0 0 1059 0 0 2069 0 0 1958 0 0 2102 0 0 2054 0 0 2119 0 0 2061 0 0 2092 0 0 2161 0 0 2140 0 0 2222 0 0 2171 0 0 2091 0 0 2124 0 0 2173 0 0 2096 0 0 2078 0 0 2141 0 0 2144 0 0 2084 0 0 2049 0 0 2042 0 0 2034 0 0 2213 0 0 2123 0 0 2009 0 0 2088 0 0 2144 0 0 2129 0 0 2077 0 0 2018 0 0 2096 0 0 2142 0 0 2183 0 0 2090 0 0 2102 0 0 2092 0 0 2166 0 0 1940 0 0 2096 0 0 1007 0 0 136 0 0 97 0 0 85 0 0 74 0 0 65 0 0 56 0 0 54 0 0 41 0 0 41 0 0 
20 0 0 41 0 0 49 0 0 56 0 0 56 0 0 68 0 0 76 0 0 89 0 0 118 0 0 145 0 0 2054 0 0 3975 0 0 4111 0 0 4086 0 0 3900 0 0 4072 0 0 3958 0 0 3950 0 0 4034 0 0 3991 0 0 4029 0 0 4091 0 0 3914 0 0 3985 0 0 3961 0 0 4108 0 0 4154 0 0 4276 0 0 3988 0 0 3997 0 0 4007 0 0 4007 0 0 4014 0 0 4031 0 0 3992 0 0 4080 0 0 4070 0 0 4163 0 0 4038 0 0 3917 0 0 3954 0 0 4461 0 0 3883 0 0 3989 0 0 3898 0 0 3978 0 0 4019 0 0 4108 0 0 3963 0 0 3846 0 0 1944 0 0 164 0 0 123 0 0 97 0 0 72 0 0 69 0 0 59 0 0 54 0 0 45 0 0 43 0 0 
19 0 0 42 0 0 51 0 0 59 0 0 66 0 0 71 0 0 89 0 0 100 0 0 137 0 0 159 0 0 2011 0 0 4022 0 0 4036 0 0 3894 0 0 4090 0 0 4026 0 0 4036 0 0 4217 0 0 4097 0 0 3963 0 0 4064 0 0 3957 0 0 4027 0 0 4237 0 0 4027 0 0 4114 0 0 4095 0 0 4036 0 0 4213 0 0 4024 0 0 4115 0 0 4228 0 0 4114 0 0 3959 0 0 4007 0 0 4032 0 0 4174 0 0 4889 0 0 4092 0 0 4150 0 0 3970 0 0 3920 0 0 4058 0 0 4112 0 0 4065 0 0 4002 0 0 4028 0 0 3949 0 0 3914 0 0 3966 0 0 2002 0 0 168 0 0 129 0 0 106 0 0 85 0 0 70 0 0 65 0 0 54 0 0 49 0 0 47 0 0 
20 0 0 47 0 0 55 0 0 60 0 0 68 0 0 75 0 0 85 0 0 110 0 0 130 0 0 208 0 0 2098 0 0 4019 0 0 4402 0 0 3800 0 0 3986 0 0 4163 0 0 4055 0 0 3969 0 0 4068 0 0 4083 0 0 4725 0 0 4120 0 0 4154 0 0 4005 0 0 3966 0 0 4118 0 0 4103 0 0 4086 0 0 4146 0 0 4126 0 0 4224 0 0 4043 0 0 4123 0 0 4126 0 0 4018 0 0 4117 0 0 4782 0 0 4117 0 0 4067 0 0 4429 0 0 4154 0 0 4047 0 0 4101 0 0 4171 0 0 5170 0 0 4140 0 0 4053 0 0 3979 0 0 4094 0 0 3987 0 0 2088 0 0 171 0 0 149 0 0 107 0 0 96 0 0 79 0 0 67 0 0 63 0 0 48 0 0 45 0 0 
21 0 0 53 0 0 56 0 0 61 0 0 75 0 0 78 0 0 94 0 0 120 0 0 143 0 0 196 0 0 2190 0 0 3913 0 0 4044 0 0 3955 0 0 4144 0 0 4055 0 0 4196 0 0 4199 0 0 4129 0 0 4098 0 0 4040 0 0 4016 0 0 4106 0 0 4172 0 0 4101 0 0 4053 0 0 4158 0 0 4123 0 0 4334 0 0 4233 0 0 4425 0 0 4289 0 0 4076 0 0 4237 0 0 3939 0 0 4049 0 0 4180 0 0 4040 0 0 4043 0 0 4338 0 0 4145 0 0 4014 0 0 4036 0 0 4226 0 0 4059 0 0 4124 0 0 3966 0 0 4072 0 0 4094 0 0 4100 0 0 2005 0 0 210 0 0 154 0 0 119 0 0 100 0 0 78 0 0 69 0 0 62 0 0 56 0 0 42 0 0 
22 0 0 46 0 0 55 0 0 61 0 0 73 0 0 79 0 0 99 0 0 124 0 0 169 0 0 206 0 0 2132 0 0 3980 0 0 3933 0 0 4110 0 0 4057 0 0 4050 0 0 4125 0 0 4200 0 0 4038 0 0 4013 0 0 4260 0 0 4674 0 0 4142 0 0 4094 0 0 4154 0 0 4156 0 0 4187 0 0 7012 0 0 4132 0 0 4131 0 0 4378 0 0 4040 0 0 3943 0 0 4303 0 0 4025 0 0 4248 0 0 4027 0 0 3969 0 0 4052 0 0 3871 0 0 4180 0 0 4218 0 0 4913 0 0 4056 0 0 4114 0 0 4125 0 0 3961 0 0 4072 0 0 4130 0 0 3936 0 0 2060 0 0 199 0 0 150 0 0 127 0 0 93 0 0 82 0 0 73 0 0 65 0 0 56 0 0 50 0 0 
22 0 0 49 0 0 58 0 0 71 0 0 74 0 0 91 0 0 105 0 0 123 0 0 162 0 0 217 0 0 2239 0 0 4049 0 0 3908 0 0 3953 0 0 4070 0 0 3947 0 0 4227 0 0 4088 0 0 4183 0 0 4091 0 0 4035 0 0 4161 0 0 4127 0 0 3928 0 0 4284 0 0 4151 0 0 4139 0 0 4176 0 0 5737 0 0 4206 0 0 4198 0 0 4126 0 0 4158 0 0 4075 0 0 4219 0 0 4155 0 0 4093 0 0 4146 0 0 4409 0 0 3906 0 0 4188 0 0 4127 0 0 4100 0 0 4191 0 0 3999 0 0 4125 0 0 4207 0 0 4122 0 0 4012 0 0 4050 0 0 2141 0 0 212 0 0 164 0 0 122 0 0 111 0 0 88 0 0 73 0 0 66 0 0 56 0 0 46 0 0 
24 0 0 53 0 0 58 0 0 69 0 0 86 0 0 94 0 0 96 0 0 127 0 0 162 0 0 220 0 0 2074 0 0 4364 0 0 3999 0 0 4039 0 0 4023 0 0 4278 0 0 4264 0 0 4211 0 0 4733 0 0 4213 0 0 4198 0 0 4462 0 0 4123 0 0 4198 0 0 4315 0 0 4123 0 0 4145 0 0 4078 0 0 4194 0 0 4330 0 0 4256 0 0 4136 0 0 4223 0 0 4255 0 0 4166 0 0 4120 0 0 4447 0 0 4098 0 0 4238 0 0 4149 0 0 4124 0 0 4114 0 0 4090 0 0 4133 0 0 4002 0 0 4028 0 0 4174 0 0 4014 0 0 4043 0 0 3937 0 0 2054 0 0 230 0 0 166 0 0 126 0 0 108 0 0 89 0 0 80 0 0 67 0 0 62 0 0 51 0 0 
24 0 0 58 0 0 61 0 0 72 0 0 79 0 0 101 0 0 107 0 0 138 0 0 167 0 0 229 0 0 2099 0 0 3943 0 0 4138 0 0 4148 0 0 4043 0 0 4131 0 0 4062 0 0 4139 0 0 4957 0 0 4089 0 0 4008 0 0 4261 0 0 4169 0 0 4048 0 0 4140 0 0 4129 0 0 4177 0 0 4230 0 0 4397 0 0 4411 0 0 4110 0 0 4228 0 0 4347 0 0 4136 0 0 4135 0 0 4296 0 0 4116 0 0 4257 0 0 4186 0 0 4165 0 0 4252 0 0 4245 0 0 4239 0 0 4110 0 0 4022 0 0 4037 0 0 4136 0 0 4253 0 0 4056 0 0 3973 0 0 2197 0 0 225 0 0 156 0 0 132 0 0 117 0 0 94 0 0 84 0 0 72 0 0 58 0 0 57 0 0 
24 0 0 55 0 0 65 0 0 68 0 0 91 0 0 100 0 0 110 0 0 131 0 0 170 0 0 224 0 0 2131 0 0 4106 0 0 3875 0 0 3948 0 0 4784 0 0 4182 0 0 4312 0 0 4031 0 0 4339 0 0 4232 0 0 4313 0 0 4259 0 0 4205 0 0 4323 0 0 4247 0 0 4301 0 0 4329 0 0 4170 0 0 4085 0 0 4121 0 0 4146 0 0 4976 0 0 4394 0 0 4219 0 0 4225 0 0 4325 0 0 4070 0 0 4113 0 0 4158 0 0 4233 0 0 4273 0 0 4082 0 0 4182 0 0 4261 0 0 4179 0 0 4037 0 0 4114 0 0 4036 0 0 4036 0 0 3810 0 0 2080 0 0 233 0 0 175 0 0 138 0 0 108 0 0 101 0 0 81 0 0 71 0 0 62 0 0 61 0 0 
26 0 0 57 0 0 66 0 0 76 0 0 83 0 0 97 0 0 109 0 0 146 0 0 180 0 0 245 0 0 2124 0 0 4199 0 0 3980 0 0 4107 0 0 4068 0 0 4167 0 0 4868 0 0 4117 0 0 4109 0 0 4116 0 0 4018 0 0 4196 0 0 4180 0 0 4184 0 0 4115 0 0 4101 0 0 4114 0 0 4237 0 0 4168 0 0 4125 0 0 4235 0 0 4101 0 0 4175 0 0 4220 0 0 4091 0 0 4236 0 0 4269 0 0 4276 0 0 4273 0 0 4045 0 0 4052 0 0 4114 0 0 4019 0 0 4169 0 0 4282 0 0 4116 0 0 4430 0 0 3979 0 0 4034 0 0 4017 0 0 1973 0 0 222 0 0 168 0 0 140 0 0 118 0 0 96 0 0 83 0 0 69 0 0 66 0 0 55 0 0 
25 0 0 60 0 0 66 0 0 74 0 0 85 0 0 108 0 0 111 0 0 137 0 0 187 0 0 236 0 0 2155 0 0 3811 0 0 3982 0 0 4249 0 0 4145 0 0 4189 0 0 4207 0 0 4143 0 0 4370 0 0 4258 0 0 4172 0 0 4069 0 0 4169 0 0 4101 0 0 4267 0 0 4372 0 0 4169 0 0 4103 0 0 4240 0 0 4243 0 0 4222 0 0 4159 0 0 4066 0 0 4225 0 0 4188 0 0 4208 0 0 4200 0 0 4077 0 0 4222 0 0 4033 0 0 4206 0 0 4330 0 0 4264 0 0 4231 0 0 4093 0 0 4323 0 0 4110 0 0 4008 0 0 4164 0 0 3991 0 0 2052 0 0 232 0 0 187 0 0 146 0 0 115 0 0 99 0 0 83 0 0 77 0 0 63 0 0 58 0 0 
22 0 0 58 0 0 70 0 0 79 0 0 85 0 0 107 0 0 124 0 0 140 0 0 177 0 0 220 0 0 2085 0 0 3822 0 0 4057 0 0 4166 0 0 4091 0 0 4026 0 0 4142 0 0 4208 0 0 4225 0 0 4268 0 0 4348 0 0 4181 0 0 4233 0 0 4062 0 0 4130 0 0 4119 0 0 4143 0 0 4190 0 0 4210 0 0 4168 0 0 4133 0 0 4126 0 0 4167 0 0 5253 0 0 4403 0 0 4363 0 0 4200 0 0 4247 0 0 4200 0 0 4162 0 0 4120 0 0 4085 0 0 4229 0 0 4338 0 0 4132 0 0 4227 0 0 4310 0 0 4248 0 0 3915 0 0 3875 0 0 2050 0 0 245 0 0 174 0 0 141 0 0 120 0 0 93 0 0 81 0 0 80 0 0 68 0 0 56 0 0 
25 0 0 65 0 0 69 0 0 74 0 0 79 0 0 102 0 0 122 0 0 142 0 0 189 0 0 251 0 0 2147 0 0 4030 0 0 4005 0 0 4121 0 0 4106 0 0 4331 0 0 4107 0 0 4181 0 0 4164 0 0 4104 0 0 4110 0 0 4077 0 0 4190 0 0 4108 0 0 4202 0 0 4157 0 0 4222 0 0 4152 0 0 4227 0 0 4264 0 0 4307 0 0 4174 0 0 4265 0 0 4190 0 0 4302 0 0 4256 0 0 4014 0 0 4164 0 0 4169 0 0 4203 0 0 4048 0 0 4169 0 0 4226 0 0 4054 0 0 4052 0 0 4148 0 0 4213 0 0 4174 0 0 4089 0 0 3876 0 0 2151 0 0 228 0 0 188 0 0 138 0 0 125 0 0 100 0 0 92 0 0 74 0 0 69 0 0 63 0 0 
21 0 0 58 0 0 72 0 0 71 0 0 90 0 0 108 0 0 120 0 0 145 0 0 186 0 0 233 0 0 2059 0 0 4050 0 0 4153 0 0 4054 0 0 4158 0 0 4021 0 0 4348 0 0 4171 0 0 4150 0 0 4290 0 0 4192 0 0 4264 0 0 4434 0 0 4085 0 0 4398 0 0 4175 0 0 4216 0 0 4248 0 0 4371 0 0 4012 0 0 4187 0 0 4273 0 0 4139 0 0 4150 0 0 4178 0 0 4331 0 0 4011 0 0 10489 0 0 4307 0 0 4370 0 0 4189 0 0 4153 0 0 4236 0 0 4295 0 0 4234 0 0 4299 0 0 4193 0 0 3972 0 0 4106 0 0 4339 0 0 2041 0 0 236 0 0 189 0 0 140 0 0 122 0 0 102 0 0 89 0 0 79 0 0 67 0 0 60 0 0 
27 0 0 56 0 0 72 0 0 84 0 0 89 0 0 105 0 0 124 0 0 142 0 0 176 0 0 259 0 0 2100 0 0 4099 0 0 4180 0 0 4069 0 0 4230 0 0 4328 0 0 4160 0 0 4125 0 0 4212 0 0 4127 0 0 4117 0 0 4357 0 0 4508 0 0 4181 0 0 4147 0 0 4309 0 0 4304 0 0 4280 0 0 4206 0 0 4183 0 0 4447 0 0 4130 0 0 4581 0 0 4271 0 0 4228 0 0 4393 0 0 4113 0 0 4293 0 0 4075 0 0 4106 0 0 4121 0 0 4219 0 0 4250 0 0 4375 0 0 4240 0 0 4162 0 0 4152 0 0 4216 0 0 4146 0 0 3964 0 0 2270 0 0 225 0 0 173 0 0 135 0 0 130 0 0 105 0 0 89 0 0 83 0 0 70 0 0 57 0 0 
28 0 0 64 0 0 71 0 0 82 0 0 86 0 0 108 0 0 125 0 0 147 0 0 186 0 0 295 0 0 2068 0 0 4086 0 0 4142 0 0 4398 0 0 3871 0 0 4132 0 0 4333 0 0 4207 0 0 4130 0 0 4148 0 0 4099 0 0 4262 0 0 4135 0 0 4254 0 0 4227 0 0 4125 0 0 4162 0 0 4209 0 0 4063 0 0 4264 0 0 4106 0 0 4147 0 0 4267 0 0 4268 0 0 4210 0 0 4709 0 0 4522 0 0 4208 0 0 4107 0 0 4140 0 0 3985 0 0 4117 0 0 12573 0 0 4213 0 0 4182 0 0 4050 0 0 4334 0 0 4062 0 0 3930 0 0 4084 0 0 2052 0 0 243 0 0 181 0 0 150 0 0 118 0 0 109 0 0 97 0 0 83 0 0 69 0 0 60 0 0 
26 0 0 58 0 0 71 0 0 81 0 0 92 0 0 112 0 0 119 0 0 152 0 0 186 0 0 237 0 0 2057 0 0 4122 0 0 4090 0 0 4126 0 0 4228 0 0 4162 0 0 4178 0 0 4210 0 0 4119 0 0 4111 0 0 4202 0 0 4224 0 0 4302 0 0 4162 0 0 4149 0 0 4243 0 0 4136 0 0 4221 0 0 4278 0 0 3982 0 0 4201 0 0 4100 0 0 4283 0 0 4375 0 0 4113 0 0 4120 0 0 4284 0 0 4301 0 0 4227 0 0 4220 0 0 4196 0 0 4293 0 0 4242 0 0 4052 0 0 4187 0 0 4194 0 0 4255 0 0 4054 0 0 3982 0 0 3922 0 0 2153 0 0 232 0 0 193 0 0 152 0 0 136 0 0 107 0 0 92 0 0 84 0 0 65 0 0 65 0 0 
30 0 0 59 0 0 72 0 0 80 0 0 90 0 0 113 0 0 128 0 0 140 0 0 181 0 0 230 0 0 2210 0 0 4235 0 0 4181 0 0 4308 0 0 4061 0 0 4063 0 0 4146 0 0 4196 0 0 4037 0 0 4251 0 0 4110 0 0 4342 0 0 4216 0 0 4111 0 0 4159 0 0 4318 0 0 4137 0 0 5020 0 0 4116 0 0 4171 0 0 4125 0 0 4234 0 0 4188 0 0 4360 0 0 4176 0 0 48960 0 0 4112 0 0 4037 0 0 4253 0 0 4142 0 0 4166 0 0 4096 0 0 4245 0 0 3969 0 0 4132 0 0 4023 0 0 4158 0 0 4085 0 0 4000 0 0 4110 0 0 2115 0 0 231 0 0 187 0 0 151 0 0 123 0 0 95 0 0 90 0 0 83 0 0 65 0 0 59 0 0 
26 0 0 60 0 0 70 0 0 74 0 0 91 0 0 106 0 0 119 0 0 155 0 0 199 0 0 260 0 0 2109 0 0 4171 0 0 3984 0 0 4330 0 0 4166 0 0 4167 0 0 4314 0 0 4358 0 0 4860 0 0 4192 0 0 4244 0 0 4075 0 0 4189 0 0 4136 0 0 4249 0 0 4277 0 0 4195 0 0 4291 0 0 4230 0 0 4204 0 0 4302 0 0 4239 0 0 4174 0 0 4297 0 0 4219 0 0 4353 0 0 4125 0 0 4241 0 0 4162 0 0 4080 0 0 4178 0 0 4255 0 0 4114 0 0 4187 0 0 4207 0 0 4402 0 0 3935 0 0 4132 0 0 4087 0 0 4030 0 0 2050 0 0 245 0 0 207 0 0 154 0 0 131 0 0 120 0 0 97 0 0 82 0 0 72 0 0 60 0 0 
30 0 0 62 0 0 68 0 0 83 0 0 94 0 0 109 0 0 119 0 0 151 0 0 185 0 0 233 0 0 2058 0 0 3926 0 0 3928 0 0 4190 0 0 4093 0 0 3930 0 0 4168 0 0 4423 0 0 4318 0 0 4348 0 0 4225 0 0 4181 0 0 4295 0 0 4227 0 0 4276 0 0 4222 0 0 4228 0 0 3933 0 0 4226 0 0 4165 0 0 4244 0 0 4160 0 0 4032 0 0 4199 0 0 4147 0 0 4153 0 0 4102 0 0 4419 0 0 4013 0 0 4273 0 0 4244 0 0 4157 0 0 4252 0 0 4069 0 0 4097 0 0 4028 0 0 4138 0 0 4017 0 0 4087 0 0 4048 0 0 2050 0 0 230 0 0 188 0 0 145 0 0 128 0 0 115 0 0 94 0 0 85 0 0 72 0 0 59 0 0 
30 0 0 66 0 0 72 0 0 82 0 0 95 0 0 110 0 0 125 0 0 154 0 0 193 0 0 222 0 0 2284 0 0 4048 0 0 4053 0 0 3899 0 0 4059 0 0 4022 0 0 4183 0 0 4085 0 0 4279 0 0 4224 0 0 4286 0 0 4313 0 0 4286 0 0 4181 0 0 4077 0 0 4311 0 0 4159 0 0 4239 0 0 4198 0 0 4313 0 0 4189 0 0 4288 0 0 4419 0 0 4025 0 0 4255 0 0 4222 0 0 4097 0 0 4071 0 0 4189 0 0 4357 0 0 4111 0 0 4175 0 0 4014 0 0 4152 0 0 4086 0 0 4307 0 0 4154 0 0 4165 0 0 4103 0 0 3901 0 0 2106 0 0 246 0 0 189 0 0 148 0 0 129 0 0 99 0 0 90 0 0 77 0 0 72 0 0 59 0 0 
28 0 0 63 0 0 75 0 0 83 0 0 94 0 0 108 0 0 130 0 0 138 0 0 194 0 0 238 0 0 2176 0 0 3976 0 0 3999 0 0 4091 0 0 4157 0 0 4202 0 0 5154 0 0 4176 0 0 4127 0 0 4223 0 0 4221 0 0 4194 0 0 4215 0 0 4107 0 0 4223 0 0 4003 0 0 4330 0 0 4137 0 0 4158 0 0 4202 0 0 4248 0 0 4140 0 0 4272 0 0 4331 0 0 4192 0 0 4174 0 0 4132 0 0 4085 0 0 4181 0 0 4296 0 0 4347 0 0 4072 0 0 4290 0 0 4108 0 0 4182 0 0 4144 0 0 4219 0 0 4192 0 0 4079 0 0 3924 0 0 2075 0 0 252 0 0 195 0 0 155 0 0 135 0 0 107 0 0 95 0 0 83 0 0 69 0 0 58 0 0 
26 0 0 59 0 0 72 0 0 80 0 0 98 0 0 112 0 0 132 0 0 157 0 0 196 0 0 232 0 0 2204 0 0 3823 0 0 3971 0 0 4077 0 0 4176 0 0 4178 0 0 4059 0 0 4064 0 0 4260 0 0 4349 0 0 4199 0 0 4197 0 0 4152 0 0 4207 0 0 4184 0 0 4177 0 0 4176 0 0 4141 0 0 4101 0 0 4364 0 0 4194 0 0 4230 0 0 4247 0 0 4282 0 0 4141 0 0 4349 0 0 4278 0 0 4323 0 0 4272 0 0 4186 0 0 4119 0 0 4219 0 0 4065 0 0 4146 0 0 4192 0 0 4071 0 0 4155 0 0 4033 0 0 3996 0 0 4029 0 0 2097 0 0 234 0 0 180 0 0 145 0 0 126 0 0 114 0 0 86 0 0 80 0 0 73 0 0 59 0 0 
28 0 0 60 0 0 76 0 0 76 0 0 82 0 0 99 0 0 118 0 0 143 0 0 194 0 0 242 0 0 2030 0 0 3871 0 0 4231 0 0 4109 0 0 4178 0 0 4203 0 0 4107 0 0 4333 0 0 4379 0 0 4128 0 0 4348 0 0 4233 0 0 4215 0 0 4213 0 0 4310 0 0 4396 0 0 4108 0 0 4150 0 0 4247 0 0 4319 0 0 4122 0 0 4205 0 0 4118 0 0 4053 0 0 4239 0 0 4381 0 0 4273 0 0 4205 0 0 4107 0 0 4072 0 0 4104 0 0 4166 0 0 4134 0 0 4125 0 0 4185 0 0 4244 0 0 4030 0 0 3965 0 0 4098 0 0 4083 0 0 2089 0 0 231 0 0 190 0 0 148 0 0 124 0 0 103 0 0 87 0 0 80 0 0 66 0 0 57 0 0 
24 0 0 61 0 0 70 0 0 79 0 0 91 0 0 101 0 0 130 0 0 142 0 0 198 0 0 238 0 0 2090 0 0 3936 0 0 4171 0 0 4071 0 0 4317 0 0 4207 0 0 4028 0 0 4083 0 0 4232 0 0 4201 0 0 4194 0 0 4154 0 0 4200 0 0 4594 0 0 4246 0 0 4137 0 0 4276 0 0 4214 0 0 4252 0 0 4234 0 0 4209 0 0 4199 0 0 4280 0 0 4182 0 0 4101 0 0 4268 0 0 4196 0 0 4370 0 0 4198 0 0 4060 0 0 4209 0 0 4251 0 0 4296 0 0 4119 0 0 4194 0 0 4172 0 0 4003 0 0 4072 0 0 4051 0 0 3895 0 0 2105 0 0 246 0 0 185 0 0 148 0 0 130 0 0 105 0 0 90 0 0 76 0 0 69 0 0 65 0 0 
28 0 0 54 0 0 67 0 0 83 0 0 90 0 0 110 0 0 128 0 0 149 0 0 186 0 0 240 0 0 2161 0 0 4080 0 0 4104 0 0 4147 0 0 4444 0 0 4179 0 0 4212 0 0 4266 0 0 4480 0 0 4276 0 0 4315 0 0 4390 0 0 4205 0 0 4214 0 0 4379 0 0 4017 0 0 4155 0 0 4257 0 0 4111 0 0 4212 0 0 4881 0 0 4106 0 0 4158 0 0 4196 0 0 4179 0 0 4184 0 0 4272 0 0 6489 0 0 4249 0 0 4131 0 0 4059 0 0 4340 0 0 4200 0 0 4123 0 0 4243 0 0 4109 0 0 4319 0 0 4344 0 0 4007 0 0 4015 0 0 2164 0 0 227 0 0 171 0 0 152 0 0 123 0 0 106 0 0 90 0 0 78 0 0 64 0 0 57 0 0 
25 0 0 64 0 0 69 0 0 76 0 0 93 0 0 101 0 0 118 0 0 152 0 0 173 0 0 238 0 0 2044 0 0 3906 0 0 4234 0 0 3992 0 0 4140 0 0 4037 0 0 4142 0 0 4249 0 0 4224 0 0 4077 0 0 4233 0 0 4158 0 0 4171 0 0 4420 0 0 4295 0 0 4100 0 0 4294 0 0 4229 0 0 4398 0 0 4156 0 0 4124 0 0 4249 0 0 4192 0 0 4207 0 0 4185 0 0 4174 0 0 4279 0 0 4168 0 0 4071 0 0 4332 0 0 4276 0 0 3974 0 0 4179 0 0 4009 0 0 4231 0 0 4173 0 0 4097 0 0 4068 0 0 4452 0 0 4197 0 0 2158 0 0 220 0 0 191 0 0 147 0 0 124 0 0 101 0 0 91 0 0 84 0 0 68 0 0 62 0 0 
26 0 0 58 0 0 64 0 0 76 0 0 92 0 0 109 0 0 120 0 0 144 0 0 181 0 0 229 0 0 1995 0 0 4107 0 0 4247 0 0 4213 0 0 4103 0 0 4069 0 0 4151 0 0 4098 0 0 3968 0 0 4086 0 0 4384 0 0 4080 0 0 4207 0 0 4174 0 0 4291 0 0 4230 0 0 4281 0 0 4190 0 0 4246 0 0 4155 0 0 4062 0 0 4146 0 0 4221 0 0 4254 0 0 4108 0 0 4286 0 0 4237 0 0 4145 0 0 4157 0 0 4245 0 0 4477 0 0 4059 0 0 4215 0 0 4212 0 0 4305 0 0 4233 0 0 3974 0 0 4166 0 0 4022 0 0 3757 0 0 2228 0 0 227 0 0 175 0 0 141 0 0 111 0 0 104 0 0 97 0 0 74 0 0 65 0 0 61 0 0 
24 0 0 55 0 0 67 0 0 73 0 0 89 0 0 98 0 0 113 0 0 137 0 0 171 0 0 226 0 0 2089 0 0 4016 0 0 4106 0 0 4075 0 0 4111 0 0 4173 0 0 4067 0 0 4099 0 0 4042 0 0 4107 0 0 4408 0 0 4202 0 0 4385 0 0 4198 0 0 4647 0 0 4170 0 0 4128 0 0 4155 0 0 4107 0 0 4276 0 0 4287 0 0 4069 0 0 4328 0 0 4240 0 0 4190 0 0 4335 0 0 4126 0 0 4188 0 0 4195 0 0 4398 0 0 4411 0 0 4290 0 0 4255 0 0 4188 0 0 4233 0 0 3947 0 0 3966 0 0 4051 0 0 4109 0 0 4018 0 0 2104 0 0 243 0 0 176 0 0 147 0 0 117 0 0 98 0 0 93 0 0 69 0 0 73 0 0 52 0 0 
27 0 0 59 0 0 66 0 0 79 0 0 77 0 0 98 0 0 114 0 0 140 0 0 179 0 0 230 0 0 2129 0 0 4011 0 0 4100 0 0 4171 0 0 4092 0 0 3974 0 0 4111 0 0 4263 0 0 4184 0 0 4192 0 0 4286 0 0 4212 0 0 4159 0 0 4051 0 0 4316 0 0 4194 0 0 4088 0 0 4187 0 0 4181 0 0 4041 0 0 4330 0 0 4157 0 0 4373 0 0 4079 0 0 4196 0 0 4251 0 0 4290 0 0 4206 0 0 4186 0 0 4317 0 0 4139 0 0 4113 0 0 4234 0 0 4172 0 0 4067 0 0 4087 0 0 4241 0 0 4150 0 0 4265 0 0 4025 0 0 2174 0 0 226 0 0 173 0 0 136 0 0 116 0 0 98 0 0 85 0 0 71 0 0 59 0 0 61 0 0 
26 0 0 56 0 0 62 0 0 77 0 0 82 0 0 96 0 0 115 0 0 138 0 0 163 0 0 229 0 0 2084 0 0 4080 0 0 4069 0 0 4013 0 0 4010 0 0 4099 0 0 4270 0 0 4051 0 0 3970 0 0 4372 0 0 5373 0 0 4182 0 0 4291 0 0 4202 0 0 4308 0 0 4308 0 0 4349 0 0 4159 0 0 4259 0 0 4357 0 0 4216 0 0 4244 0 0 4245 0 0 4211 0 0 4309 0 0 4130 0 0 4107 0 0 4096 0 0 4179 0 0 4113 0 0 4336 0 0 4201 0 0 4152 0 0 4212 0 0 4791 0 0 4087 0 0 4261 0 0 4061 0 0 4126 0 0 3971 0 0 2161 0 0 217 0 0 176 0 0 136 0 0 113 0 0 103 0 0 81 0 0 71 0 0 63 0 0 55 0 0 
22 0 0 52 0 0 65 0 0 65 0 0 86 0 0 102 0 0 104 0 0 139 0 0 156 0 0 220 0 0 2116 0 0 4055 0 0 3796 0 0 4031 0 0 4128 0 0 4250 0 0 4209 0 0 4181 0 0 4338 0 0 4411 0 0 3997 0 0 4365 0 0 4226 0 0 4231 0 0 4162 0 0 4071 0 0 4110 0 0 4122 0 0 4443 0 0 4191 0 0 4244 0 0 4221 0 0 4128 0 0 4247 0 0 4192 0 0 4127 0 0 4127 0 0 4121 0 0 4090 0 0 4316 0 0 4269 0 0 4138 0 0 4075 0 0 4188 0 0 4399 0 0 4103 0 0 4159 0 0 4037 0 0 4170 0 0 3846 0 0 2154 0 0 214 0 0 170 0 0 137 0 0 104 0 0 99 0 0 83 0 0 73 0 0 64 0 0 54 0 0 
25 0 0 52 0 0 58 0 0 67 0 0 76 0 0 100 0 0 103 0 0 140 0 0 172 0 0 220 0 0 2175 0 0 3976 0 0 3941 0 0 4193 0 0 4203 0 0 4131 0 0 3965 0 0 4193 0 0 4184 0 0 4280 0 0 4153 0 0 4605 0 0 4180 0 0 4133 0 0 4122 0 0 4216 0 0 4185 0 0 4181 0 0 4565 0 0 13517 0 0 4229 0 0 4381 0 0 4190 0 0 4038 0 0 4184 0 0 4264 0 0 4027 0 0 4291 0 0 4007 0 0 4145 0 0 4236 0 0 4159 0 0 4162 0 0 4176 0 0 4101 0 0 4110 0 0 3966 0 0 4097 0 0 3995 0 0 3837 0 0 2058 0 0 217 0 0 154 0 0 125 0 0 108 0 0 86 0 0 75 0 0 67 0 0 63 0 0 56 0 0 
22 0 0 51 0 0 59 0 0 69 0 0 73 0 0 92 0 0 106 0 0 129 0 0 158 0 0 217 0 0 2111 0 0 3940 0 0 4072 0 0 3981 0 0 4118 0 0 4016 0 0 4178 0 0 4152 0 0 4146 0 0 3965 0 0 4146 0 0 4175 0 0 4189 0 0 4618 0 0 4183 0 0 4517 0 0 4172 0 0 4119 0 0 4168 0 0 4269 0 0 4190 0 0 4103 0 0 4085 0 0 4182 0 0 4303 0 0 4260 0 0 4259 0 0 4078 0 0 4176 0 0 4092 0 0 4171 0 0 4204 0 0 4210 0 0 3988 0 0 3965 0 0 4120 0 0 4608 0 0 3997 0 0 4123 0 0 3904 0 0 2098 0 0 211 0 0 154 0 0 135 0 0 101 0 0 91 0 0 71 0 0 63 0 0 56 0 0 51 0 0 
21 0 0 54 0 0 55 0 0 59 0 0 71 0 0 80 0 0 96 0 0 115 0 0 149 0 0 213 0 0 2276 0 0 3904 0 0 4065 0 0 4137 0 0 4008 0 0 4078 0 0 4175 0 0 4190 0 0 4295 0 0 4094 0 0 4208 0 0 4101 0 0 4055 0 0 4171 0 0 4078 0 0 4085 0 0 3883 0 0 4087 0 0 4173 0 0 4234 0 0 3999 0 0 4107 0 0 4092 0 0 4119 0 0 4075 0 0 4195 0 0 4168 0 0 4207 0 0 4183 0 0 4009 0 0 6705 0 0 4207 0 0 4033 0 0 4260 0 0 4112 0 0 4435 0 0 4059 0 0 4022 0 0 4027 0 0 3977 0 0 2127 0 0 213 0 0 158 0 0 116 0 0 101 0 0 82 0 0 72 0 0 62 0 0 54 0 0 49 0 0 
19 0 0 48 0 0 53 0 0 61 0 0 71 0 0 81 0 0 102 0 0 109 0 0 146 0 0 212 0 0 2049 0 0 3936 0 0 4049 0 0 4001 0 0 4335 0 0 4219 0 0 4207 0 0 4132 0 0 4114 0 0 4082 0 0 4096 0 0 4031 0 0 4199 0 0 4151 0 0 7778 0 0 4193 0 0 4419 0 0 4083 0 0 4165 0 0 4087 0 0 4074 0 0 4374 0 0 4079 0 0 4546 0 0 4101 0 0 4146 0 0 4079 0 0 4164 0 0 4055 0 0 4201 0 0 4073 0 0 4106 0 0 4156 0 0 4120 0 0 4040 0 0 4015 0 0 4198 0 0 4215 0 0 4015 0 0 4107 0 0 2099 0 0 203 0 0 145 0 0 118 0 0 103 0 0 82 0 0 77 0 0 61 0 0 55 0 0 55 0 0 
20 0 0 43 0 0 54 0 0 61 0 0 72 0 0 76 0 0 87 0 0 114 0 0 138 0 0 190 0 0 2049 0 0 3977 0 0 4123 0 0 4085 0 0 4095 0 0 4105 0 0 4248 0 0 3981 0 0 4111 0 0 4209 0 0 4161 0 0 4206 0 0 3921 0 0 4114 0 0 4084 0 0 4089 0 0 4234 0 0 3941 0 0 4062 0 0 4192 0 0 4077 0 0 4072 0 0 4051 0 0 3978 0 0 4071 0 0 4321 0 0 4214 0 0 4105 0 0 4015 0 0 4049 0 0 4194 0 0 4184 0 0 4096 0 0 4283 0 0 4209 0 0 4295 0 0 4083 0 0 3928 0 0 3909 0 0 3859 0 0 2149 0 0 182 0 0 142 0 0 117 0 0 86 0 0 78 0 0 63 0 0 55 0 0 55 0 0 45 0 0 
19 0 0 44 0 0 51 0 0 58 0 0 63 0 0 72 0 0 86 0 0 96 0 0 127 0 0 165 0 0 2173 0 0 3813 0 0 3995 0 0 4007 0 0 4219 0 0 3984 0 0 4065 0 0 4090 0 0 4036 0 0 3982 0 0 3992 0 0 3970 0 0 4043 0 0 4082 0 0 4102 0 0 3977 0 0 3895 0 0 4118 0 0 3958 0 0 4149 0 0 3992 0 0 4060 0 0 4139 0 0 4089 0 0 4059 0 0 4087 0 0 3987 0 0 3883 0 0 3890 0 0 4286 0 0 4035 0 0 3939 0 0 4177 0 0 3945 0 0 4021 0 0 4011 0 0 4109 0 0 4223 0 0 3906 0 0 3987 0 0 1982 0 0 166 0 0 129 0 0 100 0 0 87 0 0 76 0 0 63 0 0 54 0 0 52 0 0 44 0 0 
18 0 0 43 0 0 48 0 0 50 0 0 60 0 0 63 0 0 79 0 0 93 0 0 121 0 0 149 0 0 1937 0 0 3753 0 0 4141 0 0 4100 0 0 3924 0 0 3863 0 0 4057 0 0 4128 0 0 4803 0 0 4009 0 0 4116 0 0 4123 0 0 4047 0 0 4181 0 0 3970 0 0 3986 0 0 4039 0 0 4013 0 0 4080 0 0 4104 0 0 3918 0 0 4072 0 0 4023 0 0 3944 0 0 4089 0 0 4096 0 0 4360 0 0 3855 0 0 4061 0 0 4107 0 0 4107 0 0 4726 0 0 4033 0 0 3981 0 0 4042 0 0 3960 0 0 4243 0 0 3983 0 0 3951 0 0 3838 0 0 2003 0 0 158 0 0 119 0 0 93 0 0 75 0 0 66 0 0 61 0 0 49 0 0 42 0 0 39 0 0 
14 0 0 39 0 0 43 0 0 51 0 0 52 0 0 63 0 0 82 0 0 88 0 0 96 0 0 136 0 0 1029 0 0 2090 0 0 2124 0 0 4464 0 0 2106 0 0 2065 0 0 2111 0 0 2174 0 0 2048 0 0 2154 0 0 2248 0 0 2071 0 0 2164 0 0 2177 0 0 2085 0 0 2103 0 0 2155 0 0 2368 0 0 2088 0 0 2230 0 0 1983 0 0 2224 0 0 2184 0 0 2235 0 0 2066 0 0 2062 0 0 2132 0 0 2090 0 0 2064 0 0 2054 0 0 2042 0 0 2083 0 0 2025 0 0 2054 0 0 2080 0 0 2054 0 0 2048 0 0 2018 0 0 2125 0 0 2046 0 0 1064 0 0 140 0 0 111 0 0 83 0 0 76 0 0 66 0 0 54 0 0 47 0 0 48 0 0 41 0 0 
16 0 0 37 0 0 39 0 0 40 0 0 50 0 0 58 0 0 70 0 0 76 0 0 92 0 0 108 0 0 133 0 0 149 0 0 173 0 0 186 0 0 191 0 0 216 0 0 282 0 0 216 0 0 214 0 0 214 0 0 237 0 0 236 0 0 219 0 0 234 0 0 249 0 0 240 0 0 259 0 0 224 0 0 235 0 0 232 0 0 230 0 0 245 0 0 244 0 0 237 0 0 228 0 0 250 0 0 235 0 0 234 0 0 237 0 0 221 0 0 239 0 0 233 0 0 203 0 0 221 0 0 221 0 0 205 0 0 198 0 0 188 0 0 166 0 0 177 0 0 139 0 0 122 0 0 85 0 0 81 0 0 70 0 0 63 0 0 56 0 0 48 0 0 43 0 0 37 0 0 
15 0 0 34 0 0 45 0 0 42 0 0 51 0 0 51 0 0 63 0 0 74 0 0 75 0 0 96 0 0 109 0 0 119 0 0 148 0 0 139 0 0 146 0 0 159 0 0 167 0 0 158 0 0 165 0 0 170 0 0 171 0 0 184 0 0 168 0 0 171 0 0 188 0 0 170 0 0 180 0 0 180 0 0 171 0 0 190 0 0 181 0 0 197 0 0 182 0 0 185 0 0 173 0 0 192 0 0 185 0 0 176 0 0 184 0 0 176 0 0 180 0 0 172 0 0 152 0 0 166 0 0 158 0 0 156 0 0 146 0 0 146 0 0 135 0 0 116 0 0 102 0 0 88 0 0 81 0 0 70 0 0 62 0 0 55 0 0 48 0 0 40 0 0 39 0 0 34 0 0 
17 0 0 33 0 0 37 0 0 46 0 0 46 0 0 49 0 0 56 0 0 60 0 0 67 0 0 80 0 0 95 0 0 97 0 0 101 0 0 112 0 0 116 0 0 128 0 0 130 0 0 120 0 0 132 0 0 138 0 0 151 0 0 142 0 0 140 0 0 146 0 0 151 0 0 148 0 0 145 0 0 150 0 0 144 0 0 149 0 0 163 0 0 151 0 0 141 0 0 154 0 0 156 0 0 148 0 0 142 0 0 141 0 0 143 0 0 149 0 0 135 0 0 130 0 0 134 0 0 124 0 0 119 0 0 126 0 0 109 0 0 114 0 0 98 0 0 97 0 0 83 0 0 79 0 0 69 0 0 67 0 0 54 0 0 48 0 0 43 0 0 39 0 0 37 0 0 33 0 0 
13 0 0 31 0 0 35 0 0 37 0 0 38 0 0 44 0 0 54 0 0 53 0 0 63 0 0 61 0 0 76 0 0 81 0 0 90 0 0 90 0 0 99 0 0 103 0 0 106 0 0 112 0 0 116 0 0 115 0 0 123 0 0 120 0 0 124 0 0 116 0 0 121 0 0 118 0 0 123 0 0 131 0 0 128 0 0 123 0 0 117 0 0 126 0 0 116 0 0 135 0 0 130 0 0 125 0 0 120 0 0 119 0 0 118 0 0 116 0 0 108 0 0 116 0 0 117 0 0 107 0 0 100 0 0 93 0 0 94 0 0 91 0 0 84 0 0 88 0 0 72 0 0 67 0 0 61 0 0 50 0 0 52 0 0 47 0 0 37 0 0 34 0 0 31 0 0 33 0 0 
14 0 0 27 0 0 33 0 0 34 0 0 40 0 0 44 0 0 48 0 0 46 0 0 52 0 0 58 0 0 68 0 0 70 0 0 75 0 0 78 0 0 79 0 0 92 0 0 86 0 0 96 0 0 99 0 0 98 0 0 101 0 0 104 0 0 100 0 0 99 0 0 108 0 0 108 0 0 105 0 0 108 0 0 107 0 0 107 0 0 107 0 0 101 0 0 109 0 0 100 0 0 107 0 0 103 0 0 109 0 0 102 0 0 103 0 0 94 0 0 100 0 0 97 0 0 95 0 0 94 0 0 91 0 0 88 0 0 87 0 0 78 0 0 73 0 0 69 0 0 66 0 0 62 0 0 55 0 0 51 0 0 50 0 0 40 0 0 39 0 0 34 0 0 30 0 0 29 0 0 
11 0 0 25 0 0 29 0 0 32 0 0 34 0 0 36 0 0 46 0 0 46 0 0 51 0 0 53 0 0 54 0 0 62 0 0 68 0 0 65 0 0 71 0 0 67 0 0 80 0 0 83 0 0 79 0 0 80 0 0 82 0 0 87 0 0 86 0 0 85 0 0 88 0 0 95 0 0 93 0 0 90 0 0 96 0 0 92 0 0 92 0 0 88 0 0 90 0 0 90 0 0 100 0 0 93 0 0 90 0 0 86 0 0 93 0 0 84 0 0 85 0 0 80 0 0 76 0 0 74 0 0 71 0 0 77 0 0 82 0 0 61 0 0 62 0 0 55 0 0 57 0 0 57 0 0 45 0 0 48 0 0 40 0 0 35 0 0 38 0 0 31 0 0 33 0 0 27 0 0 
12 0 0 24 0 0 30 0 0 31 0 0 30 0 0 40 0 0 43 0 0 40 0 0 46 0 0 46 0 0 52 0 0 55 0 0 51 0 0 59 0 0 63 0 0 67 0 0 69 0 0 65 0 0 71 0 0 74 0 0 75 0 0 78 0 0 73 0 0 80 0 0 85 0 0 79 0 0 77 0 0 81 0 0 87 0 0 84 0 0 81 0 0 75 0 0 80 0 0 78 0 0 79 0 0 79 0 0 90 0 0 77 0 0 72 0 0 74 0 0 76 0 0 72 0 0 73 0 0 63 0 0 65 0 0 63 0 0 65 0 0 60 0 0 58 0 0 56 0 0 52 0 0 50 0 0 50 0 0 43 0 0 36 0 0 32 0 0 29 0 0 29 0 0 26 0 0 26 0 0 
10 0 0 23 0 0 26 0 0 28 0 0 27 0 0 29 0 0 33 0 0 41 0 0 42 0 0 43 0 0 44 0 0 46 0 0 47 0 0 49 0 0 51 0 0 58 0 0 57 0 0 57 0 0 61 0 0 67 0 0 61 0 0 66 0 0 66 0 0 67 0 0 66 0 0 67 0 0 71 0 0 69 0 0 71 0 0 67 0 0 71 0 0 64 0 0 76 0 0 73 0 0 73 0 0 69 0 0 65 0 0 68 0 0 66 0 0 67 0 0 60 0 0 59 0 0 65 0 0 60 0 0 56 0 0 52 0 0 59 0 0 52 0 0 49 0 0 43 0 0 41 0 0 40 0 0 40 0 0 36 0 0 36 0 0 34 0 0 29 0 0 26 0 0 27 0 0 22 0 0 
8 0 0 18 0 0 26 0 0 23 0 0 27 0 0 26 0 0 33 0 0 34 0 0 34 0 0 35 0 0 37 0 0 41 0 0 38 0 0 43 0 0 50 0 0 47 0 0 50 0 0 50 0 0 53 0 0 56 0 0 51 0 0 53 0 0 57 0 0 58 0 0 61 0 0 60 0 0 63 0 0 60 0 0 60 0 0 63 0 0 61 0 0 62 0 0 60 0 0 64 0 0 64 0 0 64 0 0 61 0 0 60 0 0 60 0 0 58 0 0 56 0 0 55 0 0 54 0 0 51 0 0 49 0 0 51 0 0 49 0 0 43 0 0 42 0 0 37 0 0 41 0 0 37 0 0 37 0 0 31 0 0 28 0 0 28 0 0 29 0 0 21 0 0 27 0 0 20 0 0 
