P3
# This is a kerma file slice at depth 11 of 100
60 60
# now we give the maximum value of the RGB coordinates.
903099
6 0 0 9 0 0 12 0 0 11 0 0 12 0 0 15 0 0 16 0 0 14 0 0 21 0 0 18 0 0 17 0 0 19 0 0 23 0 0 26 0 0 22 0 0 23 0 0 21 0 0 28 0 0 26 0 0 29 0 0 28 0 0 29 0 0 29 0 0 31 0 0 28 0 0 33 0 0 31 0 0 30 0 0 30 0 0 33 0 0 34 0 0 32 0 0 32 0 0 33 0 0 35 0 0 27 0 0 32 0 0 28 0 0 30 0 0 29 0 0 26 0 0 27 0 0 27 0 0 26 0 0 25 0 0 26 0 0 25 0 0 20 0 0 20 0 0 20 0 0 21 0 0 17 0 0 15 0 0 16 0 0 14 0 0 16 0 0 15 0 0 12 0 0 11 0 0 10 0 0 
9 0 0 23 0 0 26 0 0 24 0 0 32 0 0 31 0 0 35 0 0 38 0 0 41 0 0 44 0 0 42 0 0 47 0 0 49 0 0 45 0 0 57 0 0 55 0 0 57 0 0 61 0 0 54 0 0 60 0 0 70 0 0 65 0 0 66 0 0 64 0 0 64 0 0 65 0 0 66 0 0 68 0 0 70 0 0 73 0 0 69 0 0 69 0 0 72 0 0 64 0 0 72 0 0 68 0 0 64 0 0 65 0 0 73 0 0 67 0 0 61 0 0 63 0 0 57 0 0 61 0 0 52 0 0 55 0 0 55 0 0 45 0 0 45 0 0 46 0 0 43 0 0 41 0 0 42 0 0 41 0 0 33 0 0 33 0 0 27 0 0 24 0 0 26 0 0 20 0 0 
11 0 0 24 0 0 28 0 0 29 0 0 35 0 0 36 0 0 43 0 0 45 0 0 44 0 0 49 0 0 52 0 0 52 0 0 51 0 0 55 0 0 59 0 0 66 0 0 67 0 0 65 0 0 63 0 0 75 0 0 68 0 0 74 0 0 72 0 0 73 0 0 80 0 0 81 0 0 79 0 0 84 0 0 78 0 0 83 0 0 81 0 0 86 0 0 83 0 0 81 0 0 78 0 0 86 0 0 88 0 0 75 0 0 80 0 0 76 0 0 69 0 0 74 0 0 67 0 0 73 0 0 64 0 0 61 0 0 60 0 0 61 0 0 54 0 0 56 0 0 50 0 0 49 0 0 46 0 0 40 0 0 40 0 0 33 0 0 31 0 0 31 0 0 32 0 0 29 0 0 
12 0 0 30 0 0 30 0 0 32 0 0 36 0 0 36 0 0 42 0 0 47 0 0 48 0 0 52 0 0 54 0 0 58 0 0 63 0 0 68 0 0 70 0 0 72 0 0 77 0 0 78 0 0 75 0 0 78 0 0 91 0 0 82 0 0 91 0 0 85 0 0 90 0 0 86 0 0 94 0 0 89 0 0 93 0 0 90 0 0 94 0 0 97 0 0 89 0 0 88 0 0 85 0 0 91 0 0 88 0 0 92 0 0 82 0 0 80 0 0 82 0 0 86 0 0 85 0 0 84 0 0 75 0 0 73 0 0 72 0 0 68 0 0 60 0 0 59 0 0 60 0 0 58 0 0 50 0 0 48 0 0 45 0 0 38 0 0 40 0 0 33 0 0 32 0 0 32 0 0 
14 0 0 28 0 0 36 0 0 36 0 0 38 0 0 44 0 0 47 0 0 53 0 0 54 0 0 60 0 0 65 0 0 70 0 0 74 0 0 76 0 0 83 0 0 79 0 0 80 0 0 98 0 0 88 0 0 92 0 0 83 0 0 99 0 0 104 0 0 105 0 0 97 0 0 113 0 0 103 0 0 106 0 0 100 0 0 100 0 0 98 0 0 101 0 0 106 0 0 112 0 0 112 0 0 102 0 0 102 0 0 102 0 0 97 0 0 97 0 0 98 0 0 92 0 0 98 0 0 94 0 0 93 0 0 89 0 0 84 0 0 81 0 0 63 0 0 66 0 0 62 0 0 61 0 0 55 0 0 47 0 0 46 0 0 43 0 0 44 0 0 38 0 0 33 0 0 29 0 0 
13 0 0 34 0 0 37 0 0 39 0 0 44 0 0 52 0 0 48 0 0 54 0 0 64 0 0 76 0 0 70 0 0 81 0 0 80 0 0 90 0 0 91 0 0 96 0 0 102 0 0 102 0 0 104 0 0 119 0 0 111 0 0 122 0 0 119 0 0 109 0 0 119 0 0 127 0 0 119 0 0 122 0 0 129 0 0 126 0 0 120 0 0 127 0 0 113 0 0 119 0 0 114 0 0 117 0 0 119 0 0 121 0 0 115 0 0 110 0 0 114 0 0 111 0 0 105 0 0 105 0 0 99 0 0 99 0 0 88 0 0 91 0 0 83 0 0 78 0 0 68 0 0 67 0 0 64 0 0 61 0 0 55 0 0 50 0 0 40 0 0 36 0 0 33 0 0 32 0 0 
11 0 0 35 0 0 45 0 0 42 0 0 48 0 0 47 0 0 57 0 0 62 0 0 69 0 0 77 0 0 89 0 0 105 0 0 97 0 0 107 0 0 117 0 0 99 0 0 117 0 0 124 0 0 121 0 0 127 0 0 129 0 0 131 0 0 135 0 0 132 0 0 137 0 0 145 0 0 148 0 0 148 0 0 133 0 0 152 0 0 141 0 0 150 0 0 147 0 0 147 0 0 137 0 0 143 0 0 136 0 0 137 0 0 143 0 0 131 0 0 131 0 0 136 0 0 123 0 0 125 0 0 120 0 0 114 0 0 111 0 0 104 0 0 97 0 0 90 0 0 85 0 0 79 0 0 71 0 0 66 0 0 58 0 0 49 0 0 44 0 0 43 0 0 36 0 0 31 0 0 
14 0 0 36 0 0 42 0 0 47 0 0 55 0 0 61 0 0 65 0 0 76 0 0 74 0 0 89 0 0 92 0 0 117 0 0 123 0 0 132 0 0 134 0 0 150 0 0 142 0 0 151 0 0 164 0 0 155 0 0 163 0 0 165 0 0 160 0 0 162 0 0 175 0 0 169 0 0 169 0 0 166 0 0 170 0 0 166 0 0 171 0 0 171 0 0 172 0 0 165 0 0 175 0 0 173 0 0 162 0 0 178 0 0 169 0 0 157 0 0 157 0 0 155 0 0 153 0 0 143 0 0 143 0 0 138 0 0 137 0 0 140 0 0 121 0 0 111 0 0 101 0 0 93 0 0 82 0 0 71 0 0 66 0 0 59 0 0 44 0 0 43 0 0 41 0 0 37 0 0 
19 0 0 40 0 0 46 0 0 46 0 0 49 0 0 60 0 0 72 0 0 82 0 0 95 0 0 107 0 0 121 0 0 130 0 0 150 0 0 148 0 0 155 0 0 186 0 0 170 0 0 186 0 0 200 0 0 173 0 0 192 0 0 196 0 0 209 0 0 200 0 0 208 0 0 187 0 0 207 0 0 212 0 0 211 0 0 211 0 0 217 0 0 216 0 0 217 0 0 213 0 0 205 0 0 202 0 0 213 0 0 224 0 0 200 0 0 183 0 0 196 0 0 185 0 0 202 0 0 187 0 0 181 0 0 163 0 0 168 0 0 149 0 0 139 0 0 141 0 0 110 0 0 109 0 0 92 0 0 80 0 0 71 0 0 55 0 0 52 0 0 48 0 0 44 0 0 36 0 0 
21 0 0 42 0 0 50 0 0 50 0 0 58 0 0 63 0 0 73 0 0 92 0 0 112 0 0 117 0 0 151 0 0 175 0 0 190 0 0 203 0 0 230 0 0 218 0 0 235 0 0 236 0 0 248 0 0 258 0 0 270 0 0 274 0 0 255 0 0 249 0 0 280 0 0 264 0 0 254 0 0 273 0 0 295 0 0 286 0 0 270 0 0 267 0 0 269 0 0 288 0 0 275 0 0 277 0 0 287 0 0 257 0 0 262 0 0 236 0 0 242 0 0 259 0 0 254 0 0 251 0 0 232 0 0 230 0 0 213 0 0 201 0 0 196 0 0 168 0 0 149 0 0 134 0 0 100 0 0 95 0 0 82 0 0 69 0 0 61 0 0 55 0 0 52 0 0 39 0 0 
18 0 0 41 0 0 44 0 0 54 0 0 63 0 0 74 0 0 81 0 0 94 0 0 122 0 0 157 0 0 1044 0 0 2009 0 0 1992 0 0 1896 0 0 1928 0 0 1971 0 0 2119 0 0 2074 0 0 2040 0 0 2048 0 0 2018 0 0 2071 0 0 2095 0 0 1963 0 0 2105 0 0 2261 0 0 2178 0 0 2105 0 0 2002 0 0 2028 0 0 2081 0 0 2066 0 0 2053 0 0 2018 0 0 1995 0 0 2070 0 0 2011 0 0 2025 0 0 1994 0 0 2147 0 0 2027 0 0 2187 0 0 1937 0 0 2027 0 0 2093 0 0 2082 0 0 2013 0 0 2017 0 0 2008 0 0 2096 0 0 1112 0 0 151 0 0 124 0 0 98 0 0 85 0 0 71 0 0 61 0 0 57 0 0 45 0 0 45 0 0 
25 0 0 45 0 0 55 0 0 61 0 0 68 0 0 74 0 0 96 0 0 108 0 0 134 0 0 165 0 0 2051 0 0 3724 0 0 3805 0 0 3803 0 0 3852 0 0 3794 0 0 3898 0 0 3709 0 0 3727 0 0 4128 0 0 3888 0 0 3954 0 0 3828 0 0 3840 0 0 4344 0 0 3813 0 0 3866 0 0 4173 0 0 3864 0 0 3869 0 0 3857 0 0 3827 0 0 3708 0 0 3941 0 0 3863 0 0 3862 0 0 3827 0 0 3771 0 0 3753 0 0 3948 0 0 3768 0 0 3730 0 0 3861 0 0 3844 0 0 3749 0 0 3788 0 0 3775 0 0 3955 0 0 3938 0 0 3967 0 0 2048 0 0 168 0 0 139 0 0 112 0 0 86 0 0 80 0 0 63 0 0 58 0 0 51 0 0 47 0 0 
21 0 0 53 0 0 53 0 0 66 0 0 68 0 0 85 0 0 101 0 0 112 0 0 146 0 0 189 0 0 1909 0 0 3759 0 0 3806 0 0 3743 0 0 3781 0 0 3848 0 0 3871 0 0 3987 0 0 3945 0 0 3911 0 0 3872 0 0 3894 0 0 3938 0 0 3899 0 0 9998 0 0 3890 0 0 4080 0 0 3995 0 0 4118 0 0 3879 0 0 3847 0 0 4407 0 0 4005 0 0 3857 0 0 3996 0 0 3915 0 0 3878 0 0 3889 0 0 4053 0 0 3841 0 0 3773 0 0 3989 0 0 3959 0 0 3841 0 0 4032 0 0 3938 0 0 3886 0 0 3959 0 0 4237 0 0 3744 0 0 1911 0 0 206 0 0 151 0 0 124 0 0 110 0 0 84 0 0 75 0 0 63 0 0 54 0 0 49 0 0 
25 0 0 46 0 0 59 0 0 59 0 0 75 0 0 93 0 0 102 0 0 126 0 0 163 0 0 197 0 0 1940 0 0 3811 0 0 3789 0 0 3888 0 0 4020 0 0 4045 0 0 3972 0 0 3999 0 0 3893 0 0 4175 0 0 4031 0 0 4537 0 0 3873 0 0 3867 0 0 3955 0 0 3957 0 0 3834 0 0 3978 0 0 3899 0 0 3786 0 0 4034 0 0 3877 0 0 3989 0 0 4051 0 0 4127 0 0 3989 0 0 3904 0 0 3970 0 0 3894 0 0 3876 0 0 3901 0 0 3884 0 0 3958 0 0 4032 0 0 4207 0 0 4071 0 0 3829 0 0 3927 0 0 3838 0 0 3930 0 0 2032 0 0 207 0 0 163 0 0 123 0 0 105 0 0 91 0 0 73 0 0 66 0 0 52 0 0 49 0 0 
20 0 0 48 0 0 57 0 0 73 0 0 80 0 0 92 0 0 102 0 0 134 0 0 151 0 0 221 0 0 2116 0 0 3745 0 0 3855 0 0 4068 0 0 4069 0 0 3940 0 0 3930 0 0 3926 0 0 3926 0 0 3920 0 0 3987 0 0 3956 0 0 4015 0 0 4166 0 0 4051 0 0 3978 0 0 4133 0 0 3873 0 0 4108 0 0 3978 0 0 4051 0 0 4175 0 0 3889 0 0 4213 0 0 3893 0 0 3741 0 0 3957 0 0 3991 0 0 3937 0 0 3961 0 0 3945 0 0 3890 0 0 3841 0 0 3950 0 0 3856 0 0 3879 0 0 3967 0 0 3751 0 0 3930 0 0 3855 0 0 2008 0 0 213 0 0 180 0 0 143 0 0 119 0 0 91 0 0 85 0 0 69 0 0 54 0 0 56 0 0 
25 0 0 53 0 0 64 0 0 73 0 0 89 0 0 99 0 0 121 0 0 145 0 0 178 0 0 233 0 0 2014 0 0 3759 0 0 3808 0 0 4024 0 0 4096 0 0 3774 0 0 3965 0 0 4013 0 0 3979 0 0 3934 0 0 3920 0 0 3944 0 0 4021 0 0 4177 0 0 4024 0 0 4045 0 0 4016 0 0 4044 0 0 4119 0 0 4140 0 0 4105 0 0 3979 0 0 10660 0 0 7621 0 0 4089 0 0 4116 0 0 4158 0 0 3918 0 0 4234 0 0 4099 0 0 3992 0 0 4131 0 0 3854 0 0 4171 0 0 3977 0 0 4057 0 0 3840 0 0 3765 0 0 3885 0 0 3815 0 0 1966 0 0 230 0 0 175 0 0 144 0 0 108 0 0 102 0 0 85 0 0 76 0 0 61 0 0 54 0 0 
23 0 0 59 0 0 63 0 0 81 0 0 86 0 0 105 0 0 116 0 0 152 0 0 193 0 0 255 0 0 2096 0 0 3748 0 0 3790 0 0 3993 0 0 3982 0 0 4624 0 0 4111 0 0 4013 0 0 3752 0 0 4056 0 0 3999 0 0 3989 0 0 4027 0 0 3826 0 0 4007 0 0 4083 0 0 4208 0 0 4109 0 0 4127 0 0 4077 0 0 3999 0 0 4175 0 0 4166 0 0 5277 0 0 4170 0 0 4175 0 0 4056 0 0 4078 0 0 4054 0 0 4073 0 0 4008 0 0 4176 0 0 4055 0 0 3828 0 0 4013 0 0 4071 0 0 3894 0 0 33508 0 0 3979 0 0 3856 0 0 2097 0 0 235 0 0 180 0 0 144 0 0 115 0 0 92 0 0 88 0 0 74 0 0 65 0 0 58 0 0 
27 0 0 60 0 0 65 0 0 77 0 0 87 0 0 109 0 0 127 0 0 147 0 0 202 0 0 231 0 0 2096 0 0 3815 0 0 3967 0 0 3950 0 0 3881 0 0 4247 0 0 4093 0 0 3878 0 0 4027 0 0 4030 0 0 4146 0 0 3966 0 0 4150 0 0 4205 0 0 4053 0 0 4191 0 0 4034 0 0 4033 0 0 3970 0 0 3935 0 0 3913 0 0 4139 0 0 4072 0 0 4253 0 0 3915 0 0 3806 0 0 4098 0 0 4038 0 0 4087 0 0 4011 0 0 4207 0 0 4125 0 0 4065 0 0 4088 0 0 3942 0 0 4093 0 0 3803 0 0 3861 0 0 3877 0 0 3791 0 0 2130 0 0 223 0 0 182 0 0 147 0 0 114 0 0 106 0 0 93 0 0 78 0 0 69 0 0 58 0 0 
26 0 0 59 0 0 70 0 0 76 0 0 88 0 0 110 0 0 129 0 0 160 0 0 193 0 0 244 0 0 2137 0 0 3732 0 0 4336 0 0 3903 0 0 4192 0 0 3924 0 0 4068 0 0 3888 0 0 4257 0 0 3959 0 0 4076 0 0 4147 0 0 4048 0 0 3962 0 0 4148 0 0 4041 0 0 4077 0 0 4115 0 0 3946 0 0 4041 0 0 3794 0 0 4133 0 0 4168 0 0 4047 0 0 4081 0 0 3969 0 0 3930 0 0 4146 0 0 4211 0 0 4029 0 0 4151 0 0 4048 0 0 4000 0 0 4986 0 0 4060 0 0 4082 0 0 4039 0 0 5458 0 0 4002 0 0 4121 0 0 2016 0 0 240 0 0 192 0 0 167 0 0 137 0 0 103 0 0 88 0 0 77 0 0 61 0 0 57 0 0 
31 0 0 60 0 0 68 0 0 85 0 0 92 0 0 111 0 0 130 0 0 157 0 0 205 0 0 257 0 0 2105 0 0 3954 0 0 3862 0 0 3922 0 0 4021 0 0 4116 0 0 3977 0 0 4081 0 0 3962 0 0 4066 0 0 3970 0 0 4132 0 0 4139 0 0 4154 0 0 4351 0 0 4009 0 0 4183 0 0 4377 0 0 4070 0 0 3924 0 0 4055 0 0 3964 0 0 3955 0 0 4073 0 0 4173 0 0 4019 0 0 4050 0 0 4049 0 0 4038 0 0 4057 0 0 4284 0 0 3922 0 0 3983 0 0 3963 0 0 4100 0 0 3949 0 0 3962 0 0 3933 0 0 3951 0 0 3998 0 0 2013 0 0 260 0 0 191 0 0 156 0 0 125 0 0 112 0 0 104 0 0 82 0 0 69 0 0 64 0 0 
29 0 0 65 0 0 71 0 0 80 0 0 97 0 0 110 0 0 134 0 0 169 0 0 210 0 0 257 0 0 2018 0 0 3877 0 0 4277 0 0 4022 0 0 3819 0 0 4020 0 0 4085 0 0 4020 0 0 3984 0 0 4105 0 0 4019 0 0 4124 0 0 3995 0 0 4158 0 0 4028 0 0 4142 0 0 4041 0 0 4148 0 0 3993 0 0 3946 0 0 4150 0 0 10942 0 0 4224 0 0 3869 0 0 4168 0 0 4128 0 0 4046 0 0 4057 0 0 4079 0 0 4122 0 0 4208 0 0 4041 0 0 4501 0 0 4034 0 0 4158 0 0 4134 0 0 4127 0 0 3896 0 0 3960 0 0 3682 0 0 2080 0 0 242 0 0 206 0 0 155 0 0 130 0 0 106 0 0 99 0 0 77 0 0 71 0 0 60 0 0 
30 0 0 60 0 0 74 0 0 89 0 0 99 0 0 116 0 0 134 0 0 166 0 0 202 0 0 266 0 0 2043 0 0 3784 0 0 3869 0 0 4041 0 0 4104 0 0 4142 0 0 3882 0 0 3907 0 0 3956 0 0 4090 0 0 4069 0 0 4083 0 0 4225 0 0 4174 0 0 4142 0 0 4113 0 0 4069 0 0 4144 0 0 4082 0 0 4031 0 0 4050 0 0 4048 0 0 4100 0 0 4000 0 0 4187 0 0 4189 0 0 4167 0 0 4091 0 0 4021 0 0 4100 0 0 4038 0 0 4075 0 0 3994 0 0 3987 0 0 4012 0 0 4075 0 0 4053 0 0 3869 0 0 3905 0 0 3802 0 0 2087 0 0 264 0 0 187 0 0 158 0 0 123 0 0 113 0 0 98 0 0 85 0 0 72 0 0 65 0 0 
29 0 0 64 0 0 73 0 0 92 0 0 99 0 0 120 0 0 133 0 0 178 0 0 201 0 0 250 0 0 2118 0 0 3777 0 0 3938 0 0 5288 0 0 4034 0 0 4009 0 0 3983 0 0 4114 0 0 4004 0 0 3970 0 0 3951 0 0 4093 0 0 3861 0 0 4127 0 0 4089 0 0 4318 0 0 4057 0 0 4122 0 0 4086 0 0 4143 0 0 4133 0 0 3955 0 0 4148 0 0 4033 0 0 4174 0 0 4336 0 0 4008 0 0 4048 0 0 4130 0 0 3969 0 0 4291 0 0 4096 0 0 3983 0 0 3952 0 0 4000 0 0 3901 0 0 3941 0 0 3932 0 0 3911 0 0 3951 0 0 2131 0 0 254 0 0 208 0 0 168 0 0 141 0 0 117 0 0 98 0 0 79 0 0 72 0 0 69 0 0 
29 0 0 69 0 0 74 0 0 83 0 0 103 0 0 112 0 0 134 0 0 164 0 0 211 0 0 262 0 0 2053 0 0 3858 0 0 3890 0 0 3926 0 0 5896 0 0 3927 0 0 4033 0 0 4101 0 0 4027 0 0 4046 0 0 3954 0 0 4076 0 0 4284 0 0 4199 0 0 4094 0 0 4256 0 0 4084 0 0 4677 0 0 3954 0 0 4068 0 0 4077 0 0 4070 0 0 4240 0 0 4067 0 0 4156 0 0 4340 0 0 4116 0 0 4195 0 0 4125 0 0 4170 0 0 4152 0 0 4045 0 0 4175 0 0 4166 0 0 4092 0 0 4233 0 0 3901 0 0 4104 0 0 3973 0 0 3864 0 0 2217 0 0 260 0 0 210 0 0 164 0 0 139 0 0 117 0 0 103 0 0 86 0 0 82 0 0 68 0 0 
32 0 0 70 0 0 75 0 0 92 0 0 107 0 0 120 0 0 144 0 0 163 0 0 209 0 0 263 0 0 2119 0 0 4154 0 0 3885 0 0 4039 0 0 4059 0 0 4057 0 0 4039 0 0 4018 0 0 4042 0 0 4045 0 0 4100 0 0 4181 0 0 4112 0 0 4133 0 0 4011 0 0 3948 0 0 3986 0 0 5772 0 0 5438 0 0 4095 0 0 4508 0 0 4006 0 0 4156 0 0 4421 0 0 3922 0 0 4065 0 0 4105 0 0 4026 0 0 4140 0 0 4118 0 0 4081 0 0 4180 0 0 4133 0 0 4134 0 0 4119 0 0 4053 0 0 4064 0 0 3944 0 0 4040 0 0 3967 0 0 2117 0 0 297 0 0 205 0 0 166 0 0 143 0 0 117 0 0 102 0 0 90 0 0 78 0 0 73 0 0 
29 0 0 73 0 0 84 0 0 92 0 0 105 0 0 118 0 0 143 0 0 176 0 0 210 0 0 267 0 0 1945 0 0 3834 0 0 4000 0 0 3933 0 0 3879 0 0 4017 0 0 3951 0 0 4027 0 0 4207 0 0 4081 0 0 4099 0 0 3985 0 0 4363 0 0 4161 0 0 3938 0 0 4055 0 0 3876 0 0 4183 0 0 4114 0 0 4018 0 0 4650 0 0 4003 0 0 4125 0 0 4162 0 0 4033 0 0 4244 0 0 4206 0 0 3985 0 0 4222 0 0 4103 0 0 4144 0 0 4201 0 0 4107 0 0 4014 0 0 4003 0 0 4051 0 0 3923 0 0 3854 0 0 3793 0 0 3924 0 0 2122 0 0 260 0 0 203 0 0 177 0 0 145 0 0 120 0 0 101 0 0 92 0 0 83 0 0 70 0 0 
31 0 0 69 0 0 78 0 0 86 0 0 100 0 0 129 0 0 160 0 0 169 0 0 207 0 0 264 0 0 2128 0 0 3914 0 0 3974 0 0 4093 0 0 4061 0 0 3981 0 0 3956 0 0 4265 0 0 4077 0 0 4020 0 0 3938 0 0 4041 0 0 3973 0 0 3915 0 0 4156 0 0 3991 0 0 4186 0 0 4085 0 0 4094 0 0 4059 0 0 4075 0 0 4158 0 0 4133 0 0 4215 0 0 4133 0 0 4099 0 0 4000 0 0 4467 0 0 4014 0 0 4057 0 0 4051 0 0 4159 0 0 4016 0 0 4077 0 0 4004 0 0 3975 0 0 4013 0 0 3945 0 0 3864 0 0 3768 0 0 2035 0 0 271 0 0 211 0 0 185 0 0 142 0 0 137 0 0 100 0 0 94 0 0 77 0 0 63 0 0 
27 0 0 68 0 0 84 0 0 91 0 0 107 0 0 126 0 0 139 0 0 172 0 0 204 0 0 262 0 0 2107 0 0 3784 0 0 3988 0 0 4009 0 0 4031 0 0 4100 0 0 4019 0 0 4148 0 0 4019 0 0 4077 0 0 4112 0 0 4203 0 0 4176 0 0 4078 0 0 4101 0 0 4172 0 0 4102 0 0 4039 0 0 4070 0 0 3990 0 0 4081 0 0 4209 0 0 3984 0 0 4215 0 0 4140 0 0 4057 0 0 4002 0 0 4109 0 0 4122 0 0 4123 0 0 4069 0 0 4065 0 0 3988 0 0 4044 0 0 3946 0 0 4059 0 0 4104 0 0 4055 0 0 4064 0 0 3949 0 0 2011 0 0 273 0 0 215 0 0 167 0 0 148 0 0 123 0 0 104 0 0 92 0 0 78 0 0 71 0 0 
34 0 0 66 0 0 81 0 0 89 0 0 107 0 0 129 0 0 145 0 0 176 0 0 206 0 0 267 0 0 2073 0 0 3887 0 0 3857 0 0 4027 0 0 4139 0 0 4266 0 0 3950 0 0 4166 0 0 4146 0 0 4033 0 0 4004 0 0 4281 0 0 4081 0 0 4104 0 0 3999 0 0 4002 0 0 4057 0 0 4087 0 0 3945 0 0 4056 0 0 4287 0 0 4240 0 0 4205 0 0 4117 0 0 4006 0 0 4038 0 0 4275 0 0 4047 0 0 4468 0 0 4028 0 0 4242 0 0 4096 0 0 4113 0 0 4276 0 0 4074 0 0 4051 0 0 5039 0 0 3975 0 0 4102 0 0 3983 0 0 2186 0 0 272 0 0 193 0 0 180 0 0 141 0 0 116 0 0 105 0 0 85 0 0 76 0 0 76 0 0 
31 0 0 76 0 0 82 0 0 97 0 0 101 0 0 116 0 0 145 0 0 179 0 0 201 0 0 274 0 0 2080 0 0 3838 0 0 3943 0 0 4029 0 0 3976 0 0 4047 0 0 4142 0 0 4202 0 0 4052 0 0 4641 0 0 4267 0 0 4276 0 0 3858 0 0 4113 0 0 3971 0 0 3986 0 0 4177 0 0 4083 0 0 3955 0 0 4276 0 0 4143 0 0 4108 0 0 4094 0 0 4059 0 0 4200 0 0 4437 0 0 5966 0 0 4005 0 0 4059 0 0 4145 0 0 4141 0 0 4008 0 0 4173 0 0 3867 0 0 4039 0 0 4015 0 0 4028 0 0 4105 0 0 3795 0 0 3787 0 0 2015 0 0 275 0 0 200 0 0 182 0 0 136 0 0 118 0 0 103 0 0 89 0 0 77 0 0 68 0 0 
31 0 0 76 0 0 78 0 0 90 0 0 105 0 0 123 0 0 144 0 0 176 0 0 207 0 0 259 0 0 2130 0 0 3874 0 0 4097 0 0 4065 0 0 3815 0 0 4216 0 0 4067 0 0 4419 0 0 3901 0 0 4136 0 0 4122 0 0 4105 0 0 3943 0 0 3962 0 0 4105 0 0 4087 0 0 4060 0 0 4233 0 0 4142 0 0 4178 0 0 4108 0 0 4134 0 0 4057 0 0 4771 0 0 4314 0 0 4203 0 0 4065 0 0 4053 0 0 3979 0 0 3972 0 0 4122 0 0 4244 0 0 4065 0 0 4018 0 0 4031 0 0 3997 0 0 3953 0 0 4104 0 0 3921 0 0 3812 0 0 2017 0 0 272 0 0 209 0 0 165 0 0 144 0 0 119 0 0 103 0 0 93 0 0 72 0 0 72 0 0 
31 0 0 66 0 0 76 0 0 91 0 0 101 0 0 127 0 0 151 0 0 169 0 0 222 0 0 248 0 0 1985 0 0 3854 0 0 3997 0 0 3858 0 0 4077 0 0 3998 0 0 4064 0 0 4131 0 0 4071 0 0 4044 0 0 3929 0 0 4294 0 0 4139 0 0 4020 0 0 3985 0 0 4149 0 0 4474 0 0 4143 0 0 4159 0 0 4353 0 0 4123 0 0 4123 0 0 4166 0 0 4081 0 0 4042 0 0 3952 0 0 4032 0 0 3968 0 0 4184 0 0 4640 0 0 4069 0 0 4082 0 0 4039 0 0 3935 0 0 4003 0 0 4063 0 0 4008 0 0 4065 0 0 3945 0 0 3973 0 0 2043 0 0 270 0 0 217 0 0 189 0 0 142 0 0 122 0 0 108 0 0 89 0 0 78 0 0 66 0 0 
35 0 0 75 0 0 78 0 0 98 0 0 102 0 0 120 0 0 140 0 0 170 0 0 220 0 0 257 0 0 2151 0 0 4097 0 0 4250 0 0 4027 0 0 3942 0 0 4025 0 0 4045 0 0 3988 0 0 4052 0 0 3890 0 0 4012 0 0 4141 0 0 4189 0 0 4220 0 0 4058 0 0 4162 0 0 4353 0 0 4136 0 0 4190 0 0 4270 0 0 4127 0 0 4075 0 0 4305 0 0 4119 0 0 4258 0 0 3927 0 0 4263 0 0 3916 0 0 4373 0 0 4080 0 0 4063 0 0 4070 0 0 4051 0 0 4013 0 0 3953 0 0 3954 0 0 4000 0 0 3865 0 0 3918 0 0 3859 0 0 2024 0 0 276 0 0 207 0 0 161 0 0 141 0 0 128 0 0 107 0 0 90 0 0 80 0 0 75 0 0 
31 0 0 71 0 0 73 0 0 87 0 0 98 0 0 118 0 0 146 0 0 167 0 0 211 0 0 256 0 0 2198 0 0 3901 0 0 3896 0 0 4115 0 0 4194 0 0 4077 0 0 4095 0 0 4046 0 0 3985 0 0 4187 0 0 3942 0 0 4112 0 0 4039 0 0 4117 0 0 4042 0 0 3933 0 0 4032 0 0 4144 0 0 4127 0 0 4193 0 0 4152 0 0 4011 0 0 3966 0 0 4164 0 0 4099 0 0 4202 0 0 3935 0 0 4166 0 0 4049 0 0 3954 0 0 4188 0 0 4065 0 0 4086 0 0 4283 0 0 4144 0 0 4028 0 0 4208 0 0 3884 0 0 3847 0 0 4026 0 0 2071 0 0 265 0 0 204 0 0 181 0 0 139 0 0 119 0 0 102 0 0 99 0 0 73 0 0 66 0 0 
28 0 0 65 0 0 79 0 0 85 0 0 103 0 0 127 0 0 151 0 0 168 0 0 196 0 0 280 0 0 2158 0 0 3925 0 0 4045 0 0 3888 0 0 3957 0 0 4079 0 0 7910 0 0 3904 0 0 4070 0 0 4012 0 0 3965 0 0 4127 0 0 3977 0 0 4031 0 0 4267 0 0 4087 0 0 4341 0 0 4613 0 0 4161 0 0 4007 0 0 4034 0 0 4374 0 0 4121 0 0 4206 0 0 4194 0 0 4144 0 0 4182 0 0 3951 0 0 4274 0 0 4144 0 0 4031 0 0 4089 0 0 4171 0 0 3968 0 0 4000 0 0 4095 0 0 3799 0 0 3957 0 0 4057 0 0 3835 0 0 2184 0 0 283 0 0 215 0 0 159 0 0 143 0 0 116 0 0 100 0 0 89 0 0 84 0 0 66 0 0 
30 0 0 73 0 0 71 0 0 90 0 0 103 0 0 124 0 0 141 0 0 174 0 0 224 0 0 278 0 0 2126 0 0 3916 0 0 4050 0 0 3957 0 0 3975 0 0 4099 0 0 4091 0 0 4050 0 0 3996 0 0 4183 0 0 4168 0 0 4077 0 0 3998 0 0 4258 0 0 4231 0 0 4160 0 0 4109 0 0 3928 0 0 4502 0 0 4001 0 0 4096 0 0 3952 0 0 4126 0 0 4014 0 0 4182 0 0 4035 0 0 4026 0 0 4067 0 0 3931 0 0 4153 0 0 4035 0 0 4008 0 0 4034 0 0 4009 0 0 4023 0 0 3953 0 0 3880 0 0 4072 0 0 3833 0 0 3952 0 0 2066 0 0 277 0 0 215 0 0 173 0 0 148 0 0 125 0 0 107 0 0 89 0 0 78 0 0 67 0 0 
30 0 0 57 0 0 75 0 0 84 0 0 107 0 0 121 0 0 142 0 0 167 0 0 207 0 0 259 0 0 2045 0 0 3852 0 0 3972 0 0 3854 0 0 3929 0 0 4134 0 0 3971 0 0 3961 0 0 4076 0 0 4090 0 0 4226 0 0 4130 0 0 4019 0 0 4057 0 0 4132 0 0 4171 0 0 4054 0 0 4028 0 0 4244 0 0 4086 0 0 4021 0 0 4172 0 0 4004 0 0 4114 0 0 4055 0 0 4108 0 0 4154 0 0 4165 0 0 4147 0 0 4254 0 0 4177 0 0 4160 0 0 4155 0 0 3967 0 0 4056 0 0 4003 0 0 3908 0 0 3880 0 0 3876 0 0 3908 0 0 2002 0 0 269 0 0 201 0 0 184 0 0 141 0 0 125 0 0 97 0 0 86 0 0 84 0 0 67 0 0 
26 0 0 70 0 0 74 0 0 89 0 0 97 0 0 122 0 0 142 0 0 167 0 0 208 0 0 262 0 0 2163 0 0 3847 0 0 3967 0 0 3900 0 0 4423 0 0 3883 0 0 4108 0 0 3913 0 0 4076 0 0 4169 0 0 4056 0 0 4031 0 0 3963 0 0 4032 0 0 4161 0 0 4166 0 0 4133 0 0 4040 0 0 4320 0 0 4026 0 0 4288 0 0 4208 0 0 4161 0 0 3920 0 0 4204 0 0 4057 0 0 4227 0 0 4083 0 0 3962 0 0 4130 0 0 4138 0 0 4065 0 0 4257 0 0 4170 0 0 3938 0 0 3926 0 0 3947 0 0 4160 0 0 4125 0 0 3791 0 0 2051 0 0 257 0 0 202 0 0 169 0 0 130 0 0 109 0 0 102 0 0 90 0 0 72 0 0 68 0 0 
30 0 0 66 0 0 76 0 0 82 0 0 96 0 0 119 0 0 142 0 0 169 0 0 211 0 0 252 0 0 2111 0 0 3744 0 0 4049 0 0 4037 0 0 3872 0 0 3978 0 0 3995 0 0 4005 0 0 3956 0 0 3986 0 0 4083 0 0 4068 0 0 4222 0 0 4074 0 0 4218 0 0 4153 0 0 4132 0 0 4381 0 0 4091 0 0 4089 0 0 4046 0 0 4178 0 0 4219 0 0 4114 0 0 4298 0 0 4004 0 0 3927 0 0 4086 0 0 4004 0 0 4033 0 0 3934 0 0 4035 0 0 4137 0 0 4143 0 0 3863 0 0 4105 0 0 4111 0 0 4014 0 0 3933 0 0 3958 0 0 2084 0 0 287 0 0 209 0 0 170 0 0 134 0 0 119 0 0 101 0 0 86 0 0 75 0 0 64 0 0 
29 0 0 67 0 0 77 0 0 87 0 0 97 0 0 124 0 0 132 0 0 160 0 0 203 0 0 268 0 0 2019 0 0 3942 0 0 3974 0 0 3940 0 0 3908 0 0 4007 0 0 3997 0 0 4067 0 0 4094 0 0 4087 0 0 4059 0 0 4179 0 0 4256 0 0 4062 0 0 4672 0 0 4164 0 0 4125 0 0 3997 0 0 3995 0 0 4104 0 0 4118 0 0 4359 0 0 4045 0 0 4204 0 0 4016 0 0 3959 0 0 4097 0 0 4081 0 0 4012 0 0 3989 0 0 4037 0 0 3953 0 0 3983 0 0 3888 0 0 4069 0 0 4045 0 0 3982 0 0 4078 0 0 4169 0 0 3954 0 0 2026 0 0 266 0 0 194 0 0 172 0 0 140 0 0 117 0 0 101 0 0 86 0 0 74 0 0 62 0 0 
29 0 0 62 0 0 71 0 0 90 0 0 97 0 0 110 0 0 131 0 0 166 0 0 192 0 0 254 0 0 2222 0 0 3746 0 0 3882 0 0 3892 0 0 3954 0 0 4154 0 0 4137 0 0 4034 0 0 3961 0 0 4084 0 0 4027 0 0 3946 0 0 4147 0 0 4030 0 0 4033 0 0 4035 0 0 4005 0 0 4010 0 0 3932 0 0 3996 0 0 3924 0 0 3940 0 0 4039 0 0 3998 0 0 4034 0 0 4046 0 0 4146 0 0 4209 0 0 4448 0 0 4055 0 0 4154 0 0 3939 0 0 4108 0 0 4049 0 0 4086 0 0 4027 0 0 3930 0 0 4065 0 0 3830 0 0 4001 0 0 1978 0 0 268 0 0 203 0 0 152 0 0 140 0 0 115 0 0 106 0 0 89 0 0 71 0 0 60 0 0 
32 0 0 59 0 0 74 0 0 78 0 0 97 0 0 114 0 0 139 0 0 172 0 0 186 0 0 255 0 0 1983 0 0 3967 0 0 3922 0 0 3903 0 0 3975 0 0 3966 0 0 4110 0 0 4147 0 0 4045 0 0 3789 0 0 4052 0 0 4163 0 0 4091 0 0 4183 0 0 4037 0 0 4053 0 0 3927 0 0 3986 0 0 4064 0 0 3842 0 0 4012 0 0 3921 0 0 4075 0 0 4096 0 0 4026 0 0 4059 0 0 4115 0 0 3894 0 0 4162 0 0 5892 0 0 4322 0 0 4028 0 0 4020 0 0 4077 0 0 4070 0 0 3938 0 0 3904 0 0 3961 0 0 3909 0 0 3765 0 0 2091 0 0 271 0 0 192 0 0 161 0 0 129 0 0 110 0 0 94 0 0 78 0 0 68 0 0 68 0 0 
26 0 0 59 0 0 67 0 0 79 0 0 93 0 0 104 0 0 122 0 0 155 0 0 188 0 0 229 0 0 1976 0 0 3824 0 0 3772 0 0 4030 0 0 4339 0 0 4096 0 0 3981 0 0 3888 0 0 3897 0 0 4110 0 0 4173 0 0 3948 0 0 4076 0 0 4103 0 0 4012 0 0 4925 0 0 4041 0 0 4127 0 0 3941 0 0 4013 0 0 3987 0 0 4131 0 0 4131 0 0 4120 0 0 4219 0 0 4080 0 0 4147 0 0 4160 0 0 4082 0 0 4047 0 0 4083 0 0 3989 0 0 3960 0 0 4192 0 0 4096 0 0 3817 0 0 4141 0 0 3947 0 0 3977 0 0 3713 0 0 2088 0 0 256 0 0 199 0 0 157 0 0 132 0 0 114 0 0 88 0 0 77 0 0 70 0 0 62 0 0 
27 0 0 61 0 0 66 0 0 70 0 0 89 0 0 106 0 0 132 0 0 161 0 0 186 0 0 255 0 0 2028 0 0 3766 0 0 3990 0 0 4028 0 0 3972 0 0 4064 0 0 4171 0 0 3912 0 0 3970 0 0 4005 0 0 4033 0 0 3954 0 0 3961 0 0 4056 0 0 4006 0 0 4080 0 0 4077 0 0 3978 0 0 4097 0 0 4572 0 0 4078 0 0 4113 0 0 4033 0 0 4270 0 0 4109 0 0 4007 0 0 4038 0 0 3970 0 0 3960 0 0 4083 0 0 4013 0 0 4309 0 0 4099 0 0 4356 0 0 3918 0 0 4025 0 0 4047 0 0 3900 0 0 4160 0 0 3774 0 0 2050 0 0 246 0 0 202 0 0 148 0 0 132 0 0 108 0 0 88 0 0 75 0 0 66 0 0 59 0 0 
27 0 0 51 0 0 63 0 0 81 0 0 87 0 0 93 0 0 122 0 0 151 0 0 175 0 0 256 0 0 2059 0 0 3780 0 0 3985 0 0 3994 0 0 3994 0 0 3955 0 0 4175 0 0 3914 0 0 4036 0 0 4027 0 0 3951 0 0 3779 0 0 3993 0 0 3954 0 0 4169 0 0 4050 0 0 4049 0 0 4028 0 0 4077 0 0 4082 0 0 4134 0 0 3899 0 0 3910 0 0 4152 0 0 4088 0 0 4123 0 0 3959 0 0 4165 0 0 3962 0 0 4129 0 0 4121 0 0 4025 0 0 4115 0 0 3867 0 0 3992 0 0 4012 0 0 3903 0 0 3989 0 0 3907 0 0 3887 0 0 2102 0 0 226 0 0 187 0 0 147 0 0 121 0 0 100 0 0 84 0 0 73 0 0 74 0 0 53 0 0 
24 0 0 60 0 0 60 0 0 79 0 0 89 0 0 102 0 0 114 0 0 151 0 0 187 0 0 232 0 0 2011 0 0 3932 0 0 4020 0 0 4009 0 0 4075 0 0 4019 0 0 4038 0 0 3983 0 0 3942 0 0 4072 0 0 4113 0 0 3931 0 0 4062 0 0 3901 0 0 4140 0 0 4262 0 0 4106 0 0 4063 0 0 3913 0 0 4021 0 0 3947 0 0 4172 0 0 4070 0 0 4082 0 0 3979 0 0 3995 0 0 4130 0 0 4153 0 0 3974 0 0 4083 0 0 4079 0 0 3892 0 0 3966 0 0 3959 0 0 3936 0 0 3898 0 0 3787 0 0 3967 0 0 3963 0 0 3811 0 0 1973 0 0 217 0 0 176 0 0 144 0 0 110 0 0 103 0 0 85 0 0 70 0 0 68 0 0 59 0 0 
23 0 0 55 0 0 56 0 0 66 0 0 79 0 0 90 0 0 108 0 0 135 0 0 179 0 0 218 0 0 2099 0 0 3750 0 0 4091 0 0 3959 0 0 3867 0 0 3780 0 0 4013 0 0 4006 0 0 3932 0 0 3963 0 0 4356 0 0 4078 0 0 3953 0 0 4058 0 0 3999 0 0 4311 0 0 4721 0 0 4138 0 0 3966 0 0 4086 0 0 4194 0 0 3905 0 0 4100 0 0 4037 0 0 3911 0 0 3887 0 0 4061 0 0 4050 0 0 4033 0 0 3941 0 0 4022 0 0 3875 0 0 3997 0 0 3920 0 0 3990 0 0 4006 0 0 3975 0 0 4211 0 0 3864 0 0 3763 0 0 2089 0 0 236 0 0 158 0 0 123 0 0 106 0 0 91 0 0 82 0 0 69 0 0 58 0 0 57 0 0 
25 0 0 48 0 0 55 0 0 65 0 0 79 0 0 90 0 0 110 0 0 124 0 0 159 0 0 220 0 0 1982 0 0 4136 0 0 3825 0 0 3886 0 0 3919 0 0 4024 0 0 3876 0 0 4148 0 0 4025 0 0 3828 0 0 3717 0 0 4017 0 0 4052 0 0 3959 0 0 4023 0 0 3939 0 0 3949 0 0 4199 0 0 4137 0 0 4083 0 0 3871 0 0 3978 0 0 4050 0 0 4150 0 0 4035 0 0 3880 0 0 4061 0 0 3977 0 0 3905 0 0 4033 0 0 3776 0 0 3936 0 0 4070 0 0 3930 0 0 3814 0 0 3938 0 0 3976 0 0 3817 0 0 3889 0 0 3806 0 0 2013 0 0 210 0 0 155 0 0 133 0 0 115 0 0 94 0 0 73 0 0 71 0 0 60 0 0 46 0 0 
21 0 0 48 0 0 55 0 0 69 0 0 79 0 0 80 0 0 92 0 0 124 0 0 150 0 0 195 0 0 2033 0 0 3751 0 0 3901 0 0 3834 0 0 3911 0 0 3721 0 0 3942 0 0 3884 0 0 4034 0 0 3990 0 0 3781 0 0 4068 0 0 3969 0 0 4005 0 0 3811 0 0 4095 0 0 3849 0 0 3811 0 0 3899 0 0 3962 0 0 3829 0 0 4003 0 0 3878 0 0 3856 0 0 3959 0 0 3853 0 0 3831 0 0 4362 0 0 3811 0 0 4061 0 0 4030 0 0 4017 0 0 3801 0 0 4023 0 0 3909 0 0 3933 0 0 3975 0 0 3810 0 0 3735 0 0 3743 0 0 1915 0 0 197 0 0 152 0 0 126 0 0 98 0 0 84 0 0 80 0 0 64 0 0 58 0 0 51 0 0 
20 0 0 42 0 0 52 0 0 66 0 0 66 0 0 75 0 0 90 0 0 108 0 0 130 0 0 183 0 0 1992 0 0 3750 0 0 3761 0 0 3809 0 0 3662 0 0 3822 0 0 3811 0 0 3865 0 0 3947 0 0 3784 0 0 3948 0 0 3804 0 0 3904 0 0 3797 0 0 3834 0 0 3954 0 0 3961 0 0 3897 0 0 3868 0 0 3860 0 0 3866 0 0 3856 0 0 3884 0 0 4217 0 0 3752 0 0 3871 0 0 3889 0 0 3810 0 0 3755 0 0 3782 0 0 3896 0 0 4060 0 0 4541 0 0 3928 0 0 3773 0 0 4022 0 0 3836 0 0 3855 0 0 3656 0 0 3661 0 0 1902 0 0 184 0 0 127 0 0 113 0 0 91 0 0 79 0 0 71 0 0 65 0 0 50 0 0 41 0 0 
17 0 0 45 0 0 50 0 0 60 0 0 58 0 0 73 0 0 84 0 0 95 0 0 129 0 0 142 0 0 1054 0 0 2006 0 0 1988 0 0 2117 0 0 2035 0 0 2187 0 0 1911 0 0 2074 0 0 2058 0 0 2013 0 0 2100 0 0 2048 0 0 2121 0 0 2034 0 0 2058 0 0 2142 0 0 2130 0 0 2071 0 0 2096 0 0 2054 0 0 2008 0 0 2122 0 0 2048 0 0 1980 0 0 2095 0 0 1950 0 0 2092 0 0 2096 0 0 2037 0 0 2131 0 0 1956 0 0 2032 0 0 2135 0 0 2077 0 0 1975 0 0 2135 0 0 2022 0 0 2126 0 0 1923 0 0 2194 0 0 1150 0 0 155 0 0 121 0 0 99 0 0 79 0 0 76 0 0 61 0 0 61 0 0 49 0 0 44 0 0 
17 0 0 40 0 0 47 0 0 52 0 0 61 0 0 61 0 0 75 0 0 84 0 0 109 0 0 137 0 0 147 0 0 192 0 0 186 0 0 213 0 0 222 0 0 230 0 0 239 0 0 245 0 0 248 0 0 248 0 0 256 0 0 260 0 0 268 0 0 260 0 0 256 0 0 278 0 0 261 0 0 287 0 0 267 0 0 290 0 0 267 0 0 262 0 0 277 0 0 254 0 0 261 0 0 264 0 0 275 0 0 276 0 0 260 0 0 276 0 0 263 0 0 260 0 0 238 0 0 237 0 0 248 0 0 230 0 0 229 0 0 207 0 0 197 0 0 164 0 0 140 0 0 124 0 0 107 0 0 87 0 0 74 0 0 65 0 0 59 0 0 52 0 0 42 0 0 41 0 0 
19 0 0 41 0 0 45 0 0 45 0 0 53 0 0 63 0 0 71 0 0 77 0 0 90 0 0 106 0 0 115 0 0 144 0 0 145 0 0 156 0 0 163 0 0 181 0 0 185 0 0 172 0 0 191 0 0 193 0 0 189 0 0 214 0 0 209 0 0 213 0 0 217 0 0 212 0 0 208 0 0 218 0 0 207 0 0 221 0 0 215 0 0 233 0 0 210 0 0 215 0 0 217 0 0 216 0 0 209 0 0 200 0 0 191 0 0 203 0 0 185 0 0 206 0 0 195 0 0 205 0 0 179 0 0 178 0 0 163 0 0 161 0 0 144 0 0 131 0 0 126 0 0 108 0 0 87 0 0 72 0 0 65 0 0 62 0 0 51 0 0 50 0 0 45 0 0 40 0 0 
17 0 0 29 0 0 46 0 0 43 0 0 53 0 0 52 0 0 67 0 0 63 0 0 84 0 0 86 0 0 104 0 0 114 0 0 121 0 0 124 0 0 132 0 0 136 0 0 148 0 0 146 0 0 154 0 0 150 0 0 173 0 0 168 0 0 158 0 0 165 0 0 169 0 0 173 0 0 158 0 0 179 0 0 167 0 0 171 0 0 178 0 0 176 0 0 185 0 0 184 0 0 177 0 0 164 0 0 154 0 0 172 0 0 165 0 0 156 0 0 154 0 0 168 0 0 149 0 0 166 0 0 140 0 0 140 0 0 137 0 0 107 0 0 114 0 0 99 0 0 99 0 0 89 0 0 77 0 0 71 0 0 65 0 0 60 0 0 50 0 0 42 0 0 38 0 0 39 0 0 
13 0 0 33 0 0 39 0 0 41 0 0 50 0 0 52 0 0 56 0 0 57 0 0 68 0 0 73 0 0 87 0 0 99 0 0 87 0 0 104 0 0 115 0 0 108 0 0 118 0 0 121 0 0 127 0 0 138 0 0 129 0 0 134 0 0 137 0 0 132 0 0 162 0 0 132 0 0 135 0 0 138 0 0 141 0 0 138 0 0 145 0 0 139 0 0 141 0 0 154 0 0 138 0 0 142 0 0 140 0 0 145 0 0 124 0 0 135 0 0 135 0 0 143 0 0 121 0 0 133 0 0 126 0 0 121 0 0 100 0 0 106 0 0 97 0 0 83 0 0 80 0 0 80 0 0 65 0 0 65 0 0 54 0 0 51 0 0 48 0 0 41 0 0 42 0 0 34 0 0 
14 0 0 27 0 0 34 0 0 39 0 0 43 0 0 48 0 0 50 0 0 56 0 0 67 0 0 69 0 0 68 0 0 77 0 0 88 0 0 87 0 0 99 0 0 90 0 0 110 0 0 107 0 0 100 0 0 110 0 0 112 0 0 113 0 0 120 0 0 109 0 0 122 0 0 123 0 0 126 0 0 123 0 0 123 0 0 125 0 0 128 0 0 119 0 0 117 0 0 114 0 0 118 0 0 112 0 0 121 0 0 121 0 0 110 0 0 111 0 0 115 0 0 120 0 0 112 0 0 102 0 0 106 0 0 100 0 0 94 0 0 88 0 0 82 0 0 77 0 0 73 0 0 66 0 0 63 0 0 60 0 0 48 0 0 48 0 0 44 0 0 37 0 0 31 0 0 34 0 0 
14 0 0 29 0 0 34 0 0 38 0 0 38 0 0 45 0 0 45 0 0 51 0 0 53 0 0 61 0 0 61 0 0 69 0 0 75 0 0 68 0 0 79 0 0 85 0 0 92 0 0 89 0 0 91 0 0 99 0 0 97 0 0 102 0 0 99 0 0 106 0 0 100 0 0 100 0 0 101 0 0 94 0 0 96 0 0 106 0 0 121 0 0 107 0 0 103 0 0 98 0 0 106 0 0 105 0 0 106 0 0 103 0 0 103 0 0 95 0 0 97 0 0 89 0 0 92 0 0 91 0 0 85 0 0 90 0 0 78 0 0 82 0 0 67 0 0 68 0 0 69 0 0 63 0 0 53 0 0 51 0 0 49 0 0 43 0 0 39 0 0 33 0 0 30 0 0 28 0 0 
13 0 0 26 0 0 27 0 0 33 0 0 31 0 0 36 0 0 46 0 0 48 0 0 57 0 0 51 0 0 53 0 0 59 0 0 62 0 0 67 0 0 72 0 0 71 0 0 75 0 0 78 0 0 84 0 0 89 0 0 80 0 0 85 0 0 88 0 0 87 0 0 87 0 0 86 0 0 89 0 0 94 0 0 88 0 0 92 0 0 87 0 0 83 0 0 91 0 0 92 0 0 94 0 0 91 0 0 86 0 0 83 0 0 82 0 0 87 0 0 86 0 0 79 0 0 78 0 0 80 0 0 69 0 0 71 0 0 72 0 0 63 0 0 63 0 0 59 0 0 54 0 0 53 0 0 47 0 0 50 0 0 40 0 0 38 0 0 40 0 0 32 0 0 30 0 0 27 0 0 
11 0 0 26 0 0 27 0 0 26 0 0 33 0 0 33 0 0 37 0 0 40 0 0 42 0 0 50 0 0 46 0 0 51 0 0 55 0 0 54 0 0 61 0 0 63 0 0 60 0 0 69 0 0 70 0 0 74 0 0 84 0 0 71 0 0 76 0 0 83 0 0 82 0 0 74 0 0 77 0 0 80 0 0 78 0 0 87 0 0 81 0 0 80 0 0 78 0 0 80 0 0 81 0 0 79 0 0 78 0 0 76 0 0 72 0 0 77 0 0 76 0 0 67 0 0 68 0 0 66 0 0 68 0 0 59 0 0 62 0 0 60 0 0 52 0 0 54 0 0 47 0 0 47 0 0 41 0 0 43 0 0 40 0 0 37 0 0 31 0 0 29 0 0 29 0 0 25 0 0 
10 0 0 22 0 0 25 0 0 28 0 0 28 0 0 35 0 0 33 0 0 39 0 0 40 0 0 39 0 0 43 0 0 48 0 0 49 0 0 54 0 0 51 0 0 57 0 0 54 0 0 58 0 0 57 0 0 64 0 0 61 0 0 63 0 0 68 0 0 65 0 0 63 0 0 66 0 0 68 0 0 66 0 0 67 0 0 71 0 0 72 0 0 70 0 0 74 0 0 66 0 0 64 0 0 64 0 0 70 0 0 70 0 0 70 0 0 70 0 0 62 0 0 63 0 0 59 0 0 60 0 0 62 0 0 58 0 0 48 0 0 59 0 0 45 0 0 42 0 0 46 0 0 42 0 0 40 0 0 37 0 0 36 0 0 32 0 0 33 0 0 26 0 0 29 0 0 22 0 0 
