P3
# This is a dose file slice at depth 36 of 100
60 60
# now we give the maximum value of the RGB coordinates.
5550
32 0 0 72 0 0 65 0 0 86 0 0 75 0 0 69 0 0 85 0 0 100 0 0 88 0 0 85 0 0 107 0 0 131 0 0 111 0 0 122 0 0 117 0 0 122 0 0 138 0 0 133 0 0 161 0 0 162 0 0 144 0 0 150 0 0 149 0 0 143 0 0 146 0 0 169 0 0 133 0 0 158 0 0 162 0 0 167 0 0 151 0 0 156 0 0 129 0 0 147 0 0 158 0 0 159 0 0 177 0 0 157 0 0 144 0 0 139 0 0 137 0 0 147 0 0 132 0 0 129 0 0 115 0 0 120 0 0 121 0 0 88 0 0 116 0 0 97 0 0 94 0 0 99 0 0 87 0 0 104 0 0 82 0 0 81 0 0 60 0 0 79 0 0 73 0 0 69 0 0 
45 0 0 127 0 0 163 0 0 154 0 0 169 0 0 180 0 0 175 0 0 194 0 0 207 0 0 222 0 0 220 0 0 239 0 0 239 0 0 282 0 0 276 0 0 288 0 0 285 0 0 327 0 0 265 0 0 306 0 0 310 0 0 327 0 0 342 0 0 367 0 0 348 0 0 327 0 0 355 0 0 363 0 0 358 0 0 341 0 0 329 0 0 352 0 0 352 0 0 341 0 0 305 0 0 359 0 0 310 0 0 328 0 0 304 0 0 322 0 0 331 0 0 306 0 0 275 0 0 308 0 0 299 0 0 266 0 0 300 0 0 267 0 0 235 0 0 229 0 0 233 0 0 207 0 0 191 0 0 194 0 0 183 0 0 185 0 0 149 0 0 164 0 0 148 0 0 144 0 0 
58 0 0 144 0 0 158 0 0 179 0 0 159 0 0 213 0 0 192 0 0 218 0 0 198 0 0 218 0 0 240 0 0 269 0 0 275 0 0 278 0 0 294 0 0 290 0 0 311 0 0 332 0 0 309 0 0 351 0 0 345 0 0 355 0 0 353 0 0 356 0 0 389 0 0 356 0 0 376 0 0 347 0 0 393 0 0 366 0 0 388 0 0 422 0 0 378 0 0 373 0 0 387 0 0 381 0 0 325 0 0 391 0 0 379 0 0 326 0 0 352 0 0 351 0 0 328 0 0 325 0 0 328 0 0 322 0 0 308 0 0 307 0 0 291 0 0 273 0 0 213 0 0 227 0 0 215 0 0 218 0 0 182 0 0 178 0 0 175 0 0 145 0 0 147 0 0 156 0 0 
73 0 0 135 0 0 145 0 0 163 0 0 175 0 0 198 0 0 201 0 0 262 0 0 236 0 0 292 0 0 262 0 0 311 0 0 288 0 0 340 0 0 316 0 0 331 0 0 357 0 0 372 0 0 383 0 0 363 0 0 382 0 0 387 0 0 394 0 0 401 0 0 421 0 0 403 0 0 406 0 0 408 0 0 435 0 0 432 0 0 454 0 0 407 0 0 428 0 0 434 0 0 427 0 0 409 0 0 412 0 0 390 0 0 411 0 0 381 0 0 365 0 0 351 0 0 384 0 0 354 0 0 354 0 0 372 0 0 334 0 0 328 0 0 330 0 0 310 0 0 240 0 0 248 0 0 224 0 0 234 0 0 220 0 0 175 0 0 159 0 0 187 0 0 164 0 0 130 0 0 
74 0 0 160 0 0 158 0 0 203 0 0 188 0 0 215 0 0 218 0 0 235 0 0 250 0 0 296 0 0 293 0 0 300 0 0 308 0 0 329 0 0 339 0 0 358 0 0 365 0 0 389 0 0 444 0 0 422 0 0 433 0 0 420 0 0 459 0 0 416 0 0 453 0 0 495 0 0 479 0 0 457 0 0 465 0 0 475 0 0 461 0 0 467 0 0 477 0 0 477 0 0 473 0 0 409 0 0 465 0 0 421 0 0 458 0 0 432 0 0 426 0 0 423 0 0 409 0 0 408 0 0 365 0 0 375 0 0 336 0 0 341 0 0 341 0 0 293 0 0 324 0 0 275 0 0 269 0 0 228 0 0 212 0 0 189 0 0 209 0 0 179 0 0 161 0 0 148 0 0 
69 0 0 157 0 0 187 0 0 223 0 0 221 0 0 243 0 0 231 0 0 240 0 0 282 0 0 307 0 0 344 0 0 340 0 0 382 0 0 392 0 0 440 0 0 374 0 0 446 0 0 428 0 0 459 0 0 488 0 0 480 0 0 485 0 0 477 0 0 545 0 0 496 0 0 518 0 0 484 0 0 518 0 0 518 0 0 542 0 0 525 0 0 524 0 0 530 0 0 520 0 0 515 0 0 511 0 0 502 0 0 514 0 0 484 0 0 468 0 0 478 0 0 449 0 0 438 0 0 466 0 0 405 0 0 424 0 0 395 0 0 370 0 0 362 0 0 358 0 0 284 0 0 294 0 0 277 0 0 267 0 0 248 0 0 249 0 0 199 0 0 214 0 0 211 0 0 167 0 0 
83 0 0 184 0 0 216 0 0 226 0 0 226 0 0 255 0 0 274 0 0 319 0 0 293 0 0 319 0 0 375 0 0 372 0 0 425 0 0 432 0 0 463 0 0 462 0 0 455 0 0 471 0 0 503 0 0 513 0 0 531 0 0 503 0 0 547 0 0 591 0 0 562 0 0 518 0 0 599 0 0 577 0 0 574 0 0 534 0 0 599 0 0 629 0 0 572 0 0 583 0 0 538 0 0 535 0 0 602 0 0 569 0 0 568 0 0 537 0 0 499 0 0 535 0 0 562 0 0 515 0 0 469 0 0 481 0 0 451 0 0 418 0 0 400 0 0 347 0 0 380 0 0 322 0 0 284 0 0 254 0 0 272 0 0 227 0 0 210 0 0 209 0 0 191 0 0 156 0 0 
82 0 0 195 0 0 187 0 0 225 0 0 226 0 0 288 0 0 293 0 0 280 0 0 358 0 0 343 0 0 416 0 0 417 0 0 447 0 0 471 0 0 491 0 0 526 0 0 495 0 0 569 0 0 491 0 0 592 0 0 531 0 0 612 0 0 590 0 0 603 0 0 617 0 0 650 0 0 622 0 0 634 0 0 621 0 0 667 0 0 651 0 0 688 0 0 682 0 0 661 0 0 617 0 0 641 0 0 579 0 0 630 0 0 614 0 0 588 0 0 603 0 0 567 0 0 601 0 0 531 0 0 541 0 0 507 0 0 525 0 0 477 0 0 422 0 0 434 0 0 402 0 0 353 0 0 336 0 0 317 0 0 283 0 0 248 0 0 267 0 0 206 0 0 249 0 0 198 0 0 
108 0 0 212 0 0 210 0 0 235 0 0 273 0 0 294 0 0 305 0 0 341 0 0 366 0 0 432 0 0 399 0 0 478 0 0 516 0 0 511 0 0 570 0 0 606 0 0 625 0 0 661 0 0 646 0 0 688 0 0 665 0 0 642 0 0 696 0 0 676 0 0 698 0 0 754 0 0 722 0 0 741 0 0 751 0 0 635 0 0 687 0 0 682 0 0 689 0 0 685 0 0 735 0 0 702 0 0 722 0 0 743 0 0 698 0 0 699 0 0 666 0 0 651 0 0 612 0 0 601 0 0 588 0 0 591 0 0 614 0 0 538 0 0 501 0 0 466 0 0 463 0 0 389 0 0 386 0 0 310 0 0 327 0 0 304 0 0 266 0 0 243 0 0 221 0 0 202 0 0 
113 0 0 218 0 0 248 0 0 264 0 0 257 0 0 312 0 0 304 0 0 331 0 0 433 0 0 427 0 0 521 0 0 495 0 0 545 0 0 580 0 0 621 0 0 661 0 0 668 0 0 685 0 0 701 0 0 714 0 0 754 0 0 775 0 0 757 0 0 828 0 0 808 0 0 803 0 0 793 0 0 795 0 0 843 0 0 753 0 0 801 0 0 819 0 0 811 0 0 809 0 0 806 0 0 804 0 0 768 0 0 760 0 0 804 0 0 784 0 0 769 0 0 704 0 0 699 0 0 700 0 0 695 0 0 623 0 0 609 0 0 667 0 0 573 0 0 488 0 0 493 0 0 415 0 0 408 0 0 363 0 0 350 0 0 300 0 0 280 0 0 263 0 0 233 0 0 209 0 0 
103 0 0 230 0 0 251 0 0 246 0 0 296 0 0 342 0 0 337 0 0 366 0 0 444 0 0 454 0 0 971 0 0 1432 0 0 1548 0 0 1484 0 0 1466 0 0 1612 0 0 1585 0 0 1637 0 0 1692 0 0 1736 0 0 1675 0 0 1703 0 0 1731 0 0 1754 0 0 1744 0 0 1766 0 0 1725 0 0 1799 0 0 1730 0 0 1682 0 0 1773 0 0 1717 0 0 1766 0 0 1792 0 0 1741 0 0 1692 0 0 1748 0 0 1728 0 0 1715 0 0 1652 0 0 1770 0 0 1711 0 0 1752 0 0 1634 0 0 1644 0 0 1573 0 0 1547 0 0 1471 0 0 1492 0 0 1427 0 0 922 0 0 470 0 0 447 0 0 385 0 0 321 0 0 349 0 0 273 0 0 273 0 0 232 0 0 228 0 0 
112 0 0 228 0 0 243 0 0 259 0 0 294 0 0 343 0 0 392 0 0 469 0 0 456 0 0 535 0 0 1462 0 0 2276 0 0 2364 0 0 2564 0 0 2439 0 0 2534 0 0 2507 0 0 2461 0 0 2617 0 0 2597 0 0 2518 0 0 2578 0 0 2713 0 0 2751 0 0 2663 0 0 2733 0 0 2782 0 0 2802 0 0 2721 0 0 2769 0 0 2627 0 0 2778 0 0 2657 0 0 2663 0 0 2815 0 0 2826 0 0 2650 0 0 2720 0 0 2632 0 0 2722 0 0 2668 0 0 2669 0 0 2621 0 0 2681 0 0 2544 0 0 2609 0 0 2582 0 0 2448 0 0 2358 0 0 2245 0 0 1512 0 0 520 0 0 469 0 0 376 0 0 371 0 0 347 0 0 312 0 0 258 0 0 253 0 0 260 0 0 
124 0 0 261 0 0 245 0 0 293 0 0 348 0 0 365 0 0 401 0 0 451 0 0 525 0 0 542 0 0 1482 0 0 2430 0 0 2421 0 0 2593 0 0 2591 0 0 2535 0 0 2660 0 0 2584 0 0 2684 0 0 2738 0 0 2777 0 0 2714 0 0 2783 0 0 2784 0 0 2837 0 0 2775 0 0 2773 0 0 2839 0 0 2795 0 0 2844 0 0 2842 0 0 2784 0 0 2809 0 0 2766 0 0 2748 0 0 2695 0 0 2806 0 0 2784 0 0 2717 0 0 2801 0 0 2687 0 0 2615 0 0 2716 0 0 2602 0 0 2642 0 0 2610 0 0 2669 0 0 2567 0 0 2392 0 0 2446 0 0 1514 0 0 577 0 0 470 0 0 476 0 0 398 0 0 356 0 0 328 0 0 312 0 0 233 0 0 270 0 0 
119 0 0 252 0 0 274 0 0 322 0 0 348 0 0 377 0 0 405 0 0 441 0 0 514 0 0 599 0 0 1519 0 0 2465 0 0 2523 0 0 2578 0 0 2693 0 0 2745 0 0 2705 0 0 2730 0 0 2794 0 0 2743 0 0 2697 0 0 2852 0 0 2846 0 0 2900 0 0 2897 0 0 2927 0 0 2869 0 0 2759 0 0 2869 0 0 2823 0 0 2883 0 0 2919 0 0 2853 0 0 2906 0 0 2930 0 0 2847 0 0 2859 0 0 2820 0 0 2894 0 0 2875 0 0 2823 0 0 2755 0 0 2769 0 0 2834 0 0 2700 0 0 2659 0 0 2559 0 0 2692 0 0 2495 0 0 2424 0 0 1527 0 0 631 0 0 560 0 0 447 0 0 401 0 0 405 0 0 300 0 0 316 0 0 270 0 0 241 0 0 
132 0 0 248 0 0 302 0 0 308 0 0 371 0 0 420 0 0 436 0 0 493 0 0 553 0 0 598 0 0 1486 0 0 2529 0 0 2515 0 0 2578 0 0 2674 0 0 2725 0 0 2730 0 0 2751 0 0 2898 0 0 2850 0 0 2894 0 0 2810 0 0 2869 0 0 2875 0 0 2892 0 0 2857 0 0 3022 0 0 2957 0 0 2913 0 0 3039 0 0 2885 0 0 2945 0 0 2874 0 0 2900 0 0 3019 0 0 2911 0 0 2981 0 0 2917 0 0 2855 0 0 2921 0 0 2849 0 0 2890 0 0 2777 0 0 2801 0 0 2763 0 0 2743 0 0 2761 0 0 2640 0 0 2640 0 0 2459 0 0 1571 0 0 654 0 0 544 0 0 459 0 0 436 0 0 384 0 0 372 0 0 321 0 0 278 0 0 252 0 0 
112 0 0 288 0 0 324 0 0 320 0 0 375 0 0 408 0 0 455 0 0 516 0 0 577 0 0 669 0 0 1603 0 0 2413 0 0 2640 0 0 2662 0 0 2735 0 0 2739 0 0 2884 0 0 2836 0 0 2803 0 0 2853 0 0 2859 0 0 2976 0 0 3054 0 0 3022 0 0 2977 0 0 3033 0 0 2954 0 0 2939 0 0 3007 0 0 2981 0 0 3096 0 0 2979 0 0 3104 0 0 2964 0 0 2969 0 0 2936 0 0 2978 0 0 2997 0 0 3057 0 0 2917 0 0 2906 0 0 3024 0 0 2857 0 0 2806 0 0 2811 0 0 2818 0 0 2747 0 0 2644 0 0 2718 0 0 2473 0 0 1662 0 0 667 0 0 596 0 0 504 0 0 440 0 0 405 0 0 378 0 0 334 0 0 301 0 0 261 0 0 
137 0 0 295 0 0 342 0 0 338 0 0 375 0 0 411 0 0 470 0 0 532 0 0 625 0 0 659 0 0 1512 0 0 2516 0 0 2704 0 0 2748 0 0 2848 0 0 2840 0 0 2905 0 0 2927 0 0 2908 0 0 2921 0 0 2992 0 0 2987 0 0 2976 0 0 3036 0 0 3066 0 0 3053 0 0 3017 0 0 2978 0 0 3139 0 0 3049 0 0 2969 0 0 3001 0 0 3069 0 0 3024 0 0 2949 0 0 3049 0 0 3042 0 0 3076 0 0 2955 0 0 2992 0 0 2971 0 0 2915 0 0 3072 0 0 2983 0 0 2892 0 0 2775 0 0 2784 0 0 2656 0 0 2603 0 0 2531 0 0 1649 0 0 704 0 0 606 0 0 556 0 0 475 0 0 439 0 0 407 0 0 399 0 0 316 0 0 274 0 0 
132 0 0 286 0 0 347 0 0 351 0 0 411 0 0 449 0 0 493 0 0 554 0 0 617 0 0 714 0 0 1639 0 0 2558 0 0 2660 0 0 2841 0 0 2836 0 0 2878 0 0 2979 0 0 3015 0 0 2930 0 0 2963 0 0 3050 0 0 2988 0 0 2940 0 0 3064 0 0 3056 0 0 3028 0 0 3128 0 0 3143 0 0 3082 0 0 3108 0 0 3136 0 0 3069 0 0 3134 0 0 3065 0 0 3125 0 0 3079 0 0 2975 0 0 3083 0 0 3111 0 0 3035 0 0 2951 0 0 2905 0 0 2950 0 0 2814 0 0 2812 0 0 2810 0 0 2779 0 0 2766 0 0 2664 0 0 2512 0 0 1616 0 0 702 0 0 652 0 0 552 0 0 465 0 0 434 0 0 391 0 0 358 0 0 323 0 0 289 0 0 
153 0 0 320 0 0 321 0 0 386 0 0 391 0 0 426 0 0 543 0 0 579 0 0 611 0 0 705 0 0 1672 0 0 2597 0 0 2648 0 0 2634 0 0 2787 0 0 2789 0 0 2928 0 0 2947 0 0 3006 0 0 3010 0 0 3083 0 0 2987 0 0 3046 0 0 3016 0 0 3025 0 0 3044 0 0 3154 0 0 3173 0 0 3115 0 0 3109 0 0 3136 0 0 3199 0 0 3192 0 0 3177 0 0 3110 0 0 3108 0 0 3037 0 0 3255 0 0 3037 0 0 3090 0 0 3026 0 0 2966 0 0 2978 0 0 2916 0 0 2952 0 0 2822 0 0 2768 0 0 2794 0 0 2597 0 0 2697 0 0 1695 0 0 746 0 0 638 0 0 615 0 0 469 0 0 428 0 0 391 0 0 325 0 0 337 0 0 284 0 0 
130 0 0 284 0 0 364 0 0 355 0 0 446 0 0 454 0 0 525 0 0 547 0 0 657 0 0 773 0 0 1685 0 0 2660 0 0 2724 0 0 2799 0 0 2856 0 0 2907 0 0 2889 0 0 3021 0 0 3099 0 0 2993 0 0 3109 0 0 3062 0 0 3113 0 0 3074 0 0 3060 0 0 3134 0 0 3140 0 0 3062 0 0 3167 0 0 3241 0 0 3136 0 0 3119 0 0 3187 0 0 3140 0 0 3079 0 0 3190 0 0 3059 0 0 3140 0 0 3144 0 0 3083 0 0 3081 0 0 3088 0 0 2975 0 0 3036 0 0 2956 0 0 2859 0 0 2820 0 0 2824 0 0 2769 0 0 2657 0 0 1680 0 0 750 0 0 653 0 0 578 0 0 554 0 0 458 0 0 401 0 0 350 0 0 343 0 0 315 0 0 
153 0 0 298 0 0 304 0 0 376 0 0 419 0 0 433 0 0 548 0 0 572 0 0 677 0 0 795 0 0 1714 0 0 2655 0 0 2755 0 0 2769 0 0 2842 0 0 2850 0 0 2948 0 0 3029 0 0 3220 0 0 3019 0 0 3046 0 0 3025 0 0 3226 0 0 3259 0 0 3101 0 0 3102 0 0 3170 0 0 3197 0 0 3202 0 0 3164 0 0 3222 0 0 3260 0 0 3207 0 0 3229 0 0 3274 0 0 3152 0 0 3148 0 0 3118 0 0 3191 0 0 3130 0 0 3155 0 0 3020 0 0 3075 0 0 2988 0 0 2996 0 0 2957 0 0 2760 0 0 2791 0 0 2833 0 0 2605 0 0 1677 0 0 811 0 0 650 0 0 577 0 0 569 0 0 474 0 0 432 0 0 368 0 0 360 0 0 299 0 0 
136 0 0 313 0 0 352 0 0 394 0 0 381 0 0 481 0 0 516 0 0 625 0 0 695 0 0 798 0 0 1684 0 0 2653 0 0 2743 0 0 2798 0 0 2886 0 0 2918 0 0 3030 0 0 3105 0 0 3142 0 0 3063 0 0 3071 0 0 3124 0 0 3178 0 0 3191 0 0 3133 0 0 3148 0 0 3131 0 0 3222 0 0 3288 0 0 3262 0 0 3230 0 0 3235 0 0 3204 0 0 3256 0 0 3295 0 0 3190 0 0 3145 0 0 3195 0 0 3179 0 0 3106 0 0 3138 0 0 3132 0 0 3041 0 0 3053 0 0 2954 0 0 2874 0 0 2920 0 0 2807 0 0 2766 0 0 2698 0 0 1701 0 0 797 0 0 686 0 0 610 0 0 589 0 0 513 0 0 395 0 0 361 0 0 365 0 0 342 0 0 
139 0 0 319 0 0 372 0 0 409 0 0 453 0 0 489 0 0 535 0 0 596 0 0 697 0 0 773 0 0 1714 0 0 2724 0 0 2709 0 0 2869 0 0 2813 0 0 2868 0 0 3019 0 0 3047 0 0 3244 0 0 3078 0 0 3282 0 0 3149 0 0 3043 0 0 3304 0 0 3311 0 0 3242 0 0 3231 0 0 3236 0 0 3185 0 0 3191 0 0 3242 0 0 3276 0 0 3113 0 0 3198 0 0 3303 0 0 3123 0 0 3181 0 0 3161 0 0 3219 0 0 3232 0 0 3071 0 0 3111 0 0 3117 0 0 2965 0 0 3020 0 0 2961 0 0 2872 0 0 2881 0 0 2685 0 0 2543 0 0 1713 0 0 798 0 0 647 0 0 624 0 0 553 0 0 456 0 0 440 0 0 383 0 0 376 0 0 320 0 0 
153 0 0 349 0 0 359 0 0 410 0 0 425 0 0 540 0 0 532 0 0 637 0 0 679 0 0 825 0 0 1692 0 0 2693 0 0 2787 0 0 2814 0 0 2935 0 0 2925 0 0 2979 0 0 3058 0 0 3052 0 0 3026 0 0 3188 0 0 3237 0 0 3210 0 0 3213 0 0 3159 0 0 3249 0 0 3167 0 0 3236 0 0 3296 0 0 3290 0 0 3342 0 0 3190 0 0 3177 0 0 3310 0 0 3230 0 0 3273 0 0 3272 0 0 3183 0 0 3149 0 0 3156 0 0 3129 0 0 3067 0 0 3070 0 0 3062 0 0 3019 0 0 2957 0 0 2886 0 0 2885 0 0 2796 0 0 2573 0 0 1675 0 0 770 0 0 709 0 0 633 0 0 548 0 0 495 0 0 453 0 0 430 0 0 372 0 0 336 0 0 
169 0 0 310 0 0 367 0 0 384 0 0 436 0 0 514 0 0 528 0 0 631 0 0 761 0 0 772 0 0 1762 0 0 2647 0 0 2732 0 0 2847 0 0 2933 0 0 3061 0 0 2988 0 0 3057 0 0 3084 0 0 3184 0 0 3190 0 0 3237 0 0 3242 0 0 3205 0 0 3199 0 0 3362 0 0 3282 0 0 3217 0 0 3258 0 0 3277 0 0 3287 0 0 3242 0 0 3169 0 0 3263 0 0 3205 0 0 3186 0 0 3268 0 0 3231 0 0 3111 0 0 3099 0 0 3153 0 0 3218 0 0 3164 0 0 3005 0 0 3019 0 0 2977 0 0 2884 0 0 2805 0 0 2735 0 0 2727 0 0 1724 0 0 809 0 0 712 0 0 626 0 0 561 0 0 484 0 0 432 0 0 421 0 0 364 0 0 344 0 0 
160 0 0 329 0 0 402 0 0 398 0 0 485 0 0 487 0 0 586 0 0 638 0 0 761 0 0 782 0 0 1748 0 0 2663 0 0 2808 0 0 2854 0 0 3007 0 0 3048 0 0 3026 0 0 3120 0 0 3102 0 0 3242 0 0 3178 0 0 3231 0 0 3223 0 0 3234 0 0 3245 0 0 3277 0 0 3305 0 0 3261 0 0 3258 0 0 3360 0 0 3247 0 0 3192 0 0 3202 0 0 3273 0 0 3151 0 0 3244 0 0 3178 0 0 3238 0 0 3105 0 0 3221 0 0 3169 0 0 3176 0 0 2991 0 0 3145 0 0 3048 0 0 3034 0 0 3051 0 0 2947 0 0 2756 0 0 2652 0 0 1768 0 0 804 0 0 743 0 0 644 0 0 567 0 0 516 0 0 442 0 0 426 0 0 366 0 0 331 0 0 
162 0 0 328 0 0 389 0 0 457 0 0 465 0 0 502 0 0 560 0 0 667 0 0 695 0 0 786 0 0 1737 0 0 2745 0 0 2938 0 0 2905 0 0 2945 0 0 2952 0 0 3048 0 0 3053 0 0 3097 0 0 3183 0 0 3162 0 0 3290 0 0 3208 0 0 3336 0 0 3221 0 0 3207 0 0 3252 0 0 3289 0 0 3228 0 0 3217 0 0 3305 0 0 3291 0 0 3276 0 0 3260 0 0 3277 0 0 3262 0 0 3249 0 0 3167 0 0 3371 0 0 3263 0 0 3234 0 0 3133 0 0 3229 0 0 3047 0 0 3061 0 0 2938 0 0 2905 0 0 2827 0 0 2847 0 0 2717 0 0 1690 0 0 782 0 0 731 0 0 645 0 0 586 0 0 499 0 0 475 0 0 403 0 0 360 0 0 301 0 0 
143 0 0 357 0 0 392 0 0 404 0 0 506 0 0 487 0 0 596 0 0 642 0 0 717 0 0 784 0 0 1830 0 0 2740 0 0 2703 0 0 2927 0 0 2966 0 0 2927 0 0 2944 0 0 3092 0 0 3139 0 0 3143 0 0 3141 0 0 3097 0 0 3162 0 0 3279 0 0 3291 0 0 3244 0 0 3358 0 0 3311 0 0 3264 0 0 3350 0 0 3320 0 0 3373 0 0 3323 0 0 3208 0 0 3267 0 0 3305 0 0 3282 0 0 3178 0 0 3220 0 0 3241 0 0 3180 0 0 3149 0 0 3188 0 0 3052 0 0 3028 0 0 2984 0 0 2935 0 0 2842 0 0 2864 0 0 2690 0 0 1792 0 0 858 0 0 702 0 0 630 0 0 569 0 0 530 0 0 467 0 0 433 0 0 353 0 0 330 0 0 
156 0 0 330 0 0 370 0 0 401 0 0 440 0 0 549 0 0 612 0 0 677 0 0 696 0 0 818 0 0 1786 0 0 2802 0 0 2882 0 0 2847 0 0 2993 0 0 2994 0 0 3091 0 0 3004 0 0 3120 0 0 3130 0 0 3291 0 0 3302 0 0 3235 0 0 3253 0 0 3206 0 0 3471 0 0 3205 0 0 3275 0 0 3207 0 0 3300 0 0 3391 0 0 3303 0 0 3311 0 0 3345 0 0 3350 0 0 3393 0 0 3310 0 0 3223 0 0 3218 0 0 3107 0 0 3199 0 0 3226 0 0 3065 0 0 3110 0 0 2958 0 0 3101 0 0 2973 0 0 2836 0 0 2784 0 0 2693 0 0 1784 0 0 822 0 0 697 0 0 600 0 0 590 0 0 514 0 0 439 0 0 420 0 0 369 0 0 330 0 0 
154 0 0 310 0 0 392 0 0 446 0 0 470 0 0 536 0 0 568 0 0 649 0 0 748 0 0 825 0 0 1802 0 0 2715 0 0 2780 0 0 2793 0 0 2970 0 0 3022 0 0 3033 0 0 3173 0 0 3092 0 0 3231 0 0 3236 0 0 3235 0 0 3190 0 0 3308 0 0 3333 0 0 3179 0 0 3229 0 0 3344 0 0 3196 0 0 3361 0 0 3462 0 0 3258 0 0 3260 0 0 3245 0 0 3303 0 0 3251 0 0 3322 0 0 3118 0 0 3208 0 0 3157 0 0 3121 0 0 3205 0 0 3195 0 0 3145 0 0 3051 0 0 3012 0 0 2933 0 0 2922 0 0 2887 0 0 2761 0 0 1761 0 0 816 0 0 714 0 0 669 0 0 545 0 0 550 0 0 475 0 0 378 0 0 350 0 0 326 0 0 
176 0 0 369 0 0 390 0 0 411 0 0 436 0 0 489 0 0 537 0 0 670 0 0 766 0 0 848 0 0 1753 0 0 2688 0 0 2789 0 0 2862 0 0 2991 0 0 2988 0 0 3066 0 0 3124 0 0 3021 0 0 3076 0 0 3271 0 0 3265 0 0 3273 0 0 3281 0 0 3275 0 0 3247 0 0 3292 0 0 3327 0 0 3190 0 0 3328 0 0 3254 0 0 3441 0 0 3352 0 0 3248 0 0 3261 0 0 3274 0 0 3386 0 0 3095 0 0 3228 0 0 3248 0 0 3239 0 0 3267 0 0 3121 0 0 3118 0 0 3053 0 0 2989 0 0 2898 0 0 2842 0 0 2782 0 0 2780 0 0 1691 0 0 854 0 0 639 0 0 647 0 0 568 0 0 546 0 0 435 0 0 427 0 0 366 0 0 354 0 0 
167 0 0 349 0 0 367 0 0 448 0 0 447 0 0 521 0 0 585 0 0 664 0 0 759 0 0 790 0 0 1736 0 0 2793 0 0 2817 0 0 2838 0 0 2890 0 0 3036 0 0 2955 0 0 3042 0 0 3211 0 0 3155 0 0 3248 0 0 3275 0 0 3255 0 0 3266 0 0 3189 0 0 3239 0 0 3351 0 0 3335 0 0 3253 0 0 3314 0 0 3224 0 0 3391 0 0 3324 0 0 3333 0 0 3243 0 0 3321 0 0 3241 0 0 3312 0 0 3210 0 0 3190 0 0 3250 0 0 3268 0 0 3247 0 0 3156 0 0 3016 0 0 2878 0 0 2959 0 0 2867 0 0 2788 0 0 2733 0 0 1791 0 0 809 0 0 705 0 0 639 0 0 579 0 0 515 0 0 473 0 0 435 0 0 387 0 0 329 0 0 
135 0 0 369 0 0 419 0 0 412 0 0 436 0 0 497 0 0 583 0 0 683 0 0 706 0 0 815 0 0 1755 0 0 2727 0 0 2821 0 0 2893 0 0 2981 0 0 2993 0 0 3041 0 0 3074 0 0 3073 0 0 3206 0 0 3251 0 0 3305 0 0 3207 0 0 3278 0 0 3351 0 0 3320 0 0 3354 0 0 3306 0 0 3346 0 0 3377 0 0 3329 0 0 3493 0 0 3362 0 0 3263 0 0 3333 0 0 3285 0 0 3293 0 0 3193 0 0 3227 0 0 3176 0 0 3191 0 0 3277 0 0 3235 0 0 3091 0 0 2987 0 0 2981 0 0 2801 0 0 2921 0 0 2900 0 0 2772 0 0 1721 0 0 827 0 0 721 0 0 613 0 0 538 0 0 509 0 0 480 0 0 439 0 0 401 0 0 356 0 0 
150 0 0 343 0 0 369 0 0 412 0 0 464 0 0 497 0 0 571 0 0 616 0 0 698 0 0 804 0 0 1738 0 0 2758 0 0 2829 0 0 2937 0 0 2923 0 0 3000 0 0 3035 0 0 3024 0 0 3086 0 0 3141 0 0 3185 0 0 3231 0 0 3234 0 0 3326 0 0 3238 0 0 3270 0 0 3248 0 0 3394 0 0 3293 0 0 3260 0 0 3278 0 0 3329 0 0 3285 0 0 3274 0 0 3237 0 0 3332 0 0 3239 0 0 3211 0 0 3276 0 0 3233 0 0 3272 0 0 3123 0 0 3155 0 0 3134 0 0 3148 0 0 3061 0 0 3048 0 0 2778 0 0 2830 0 0 2763 0 0 1742 0 0 835 0 0 728 0 0 616 0 0 531 0 0 511 0 0 484 0 0 436 0 0 406 0 0 346 0 0 
151 0 0 371 0 0 368 0 0 427 0 0 453 0 0 479 0 0 525 0 0 650 0 0 696 0 0 838 0 0 1728 0 0 2668 0 0 2802 0 0 2867 0 0 2934 0 0 3046 0 0 3075 0 0 2985 0 0 3001 0 0 3160 0 0 3190 0 0 3308 0 0 3186 0 0 3196 0 0 3290 0 0 3292 0 0 3350 0 0 3268 0 0 3328 0 0 3352 0 0 3311 0 0 3267 0 0 3417 0 0 3341 0 0 3310 0 0 3370 0 0 3302 0 0 3139 0 0 3227 0 0 3172 0 0 3226 0 0 3204 0 0 3138 0 0 3169 0 0 3125 0 0 2965 0 0 2907 0 0 2846 0 0 2779 0 0 2722 0 0 1692 0 0 773 0 0 739 0 0 610 0 0 553 0 0 539 0 0 438 0 0 419 0 0 358 0 0 330 0 0 
138 0 0 325 0 0 383 0 0 395 0 0 451 0 0 488 0 0 559 0 0 627 0 0 684 0 0 857 0 0 1763 0 0 2720 0 0 2658 0 0 2892 0 0 3000 0 0 3045 0 0 3070 0 0 3070 0 0 3178 0 0 3125 0 0 3239 0 0 3164 0 0 3221 0 0 3222 0 0 3237 0 0 3270 0 0 3328 0 0 3299 0 0 3285 0 0 3295 0 0 3219 0 0 3217 0 0 3283 0 0 3296 0 0 3253 0 0 3233 0 0 3203 0 0 3374 0 0 3315 0 0 3115 0 0 3140 0 0 3207 0 0 3206 0 0 3083 0 0 2993 0 0 2988 0 0 2913 0 0 2889 0 0 2710 0 0 2711 0 0 1733 0 0 832 0 0 720 0 0 614 0 0 568 0 0 511 0 0 443 0 0 412 0 0 398 0 0 331 0 0 
149 0 0 330 0 0 360 0 0 429 0 0 464 0 0 513 0 0 551 0 0 682 0 0 682 0 0 803 0 0 1726 0 0 2679 0 0 2788 0 0 2837 0 0 2895 0 0 2878 0 0 3047 0 0 3159 0 0 3050 0 0 3193 0 0 3166 0 0 3241 0 0 3159 0 0 3177 0 0 3251 0 0 3204 0 0 3184 0 0 3329 0 0 3237 0 0 3325 0 0 3218 0 0 3273 0 0 3237 0 0 3232 0 0 3325 0 0 3279 0 0 3272 0 0 3104 0 0 3284 0 0 3118 0 0 3115 0 0 3132 0 0 2971 0 0 3047 0 0 3030 0 0 2969 0 0 2826 0 0 2834 0 0 2764 0 0 2621 0 0 1709 0 0 764 0 0 708 0 0 680 0 0 569 0 0 502 0 0 463 0 0 396 0 0 394 0 0 324 0 0 
152 0 0 337 0 0 361 0 0 407 0 0 454 0 0 514 0 0 538 0 0 680 0 0 682 0 0 767 0 0 1786 0 0 2548 0 0 2813 0 0 2855 0 0 2935 0 0 3050 0 0 2964 0 0 3064 0 0 3168 0 0 3210 0 0 3152 0 0 3183 0 0 3053 0 0 3226 0 0 3135 0 0 3170 0 0 3276 0 0 3227 0 0 3281 0 0 3273 0 0 3284 0 0 3301 0 0 3297 0 0 3330 0 0 3152 0 0 3200 0 0 3316 0 0 3233 0 0 3236 0 0 3164 0 0 3125 0 0 3111 0 0 3082 0 0 3080 0 0 2949 0 0 2883 0 0 2822 0 0 2866 0 0 2657 0 0 2667 0 0 1743 0 0 746 0 0 688 0 0 604 0 0 581 0 0 511 0 0 456 0 0 393 0 0 334 0 0 325 0 0 
146 0 0 321 0 0 357 0 0 410 0 0 423 0 0 518 0 0 557 0 0 576 0 0 699 0 0 791 0 0 1775 0 0 2602 0 0 2790 0 0 2786 0 0 2834 0 0 3013 0 0 3053 0 0 3031 0 0 3067 0 0 3101 0 0 3144 0 0 3198 0 0 3177 0 0 3308 0 0 3147 0 0 3237 0 0 3297 0 0 3241 0 0 3165 0 0 3210 0 0 3263 0 0 3158 0 0 3235 0 0 3239 0 0 3163 0 0 3177 0 0 3115 0 0 3166 0 0 3261 0 0 3181 0 0 3087 0 0 3027 0 0 3024 0 0 3160 0 0 3083 0 0 2994 0 0 2930 0 0 2811 0 0 2765 0 0 2653 0 0 1749 0 0 760 0 0 696 0 0 671 0 0 522 0 0 495 0 0 438 0 0 384 0 0 379 0 0 300 0 0 
162 0 0 308 0 0 368 0 0 421 0 0 459 0 0 493 0 0 497 0 0 645 0 0 708 0 0 741 0 0 1724 0 0 2713 0 0 2671 0 0 2766 0 0 2855 0 0 2999 0 0 2901 0 0 3134 0 0 3045 0 0 3095 0 0 3118 0 0 3182 0 0 3091 0 0 3149 0 0 3247 0 0 3148 0 0 3199 0 0 3214 0 0 3157 0 0 3277 0 0 3173 0 0 3194 0 0 3181 0 0 3168 0 0 3156 0 0 3240 0 0 3083 0 0 3127 0 0 3119 0 0 3150 0 0 3199 0 0 3096 0 0 3089 0 0 2955 0 0 3022 0 0 2876 0 0 2842 0 0 2826 0 0 2763 0 0 2646 0 0 1681 0 0 708 0 0 674 0 0 626 0 0 530 0 0 517 0 0 429 0 0 431 0 0 373 0 0 323 0 0 
174 0 0 319 0 0 340 0 0 386 0 0 440 0 0 487 0 0 546 0 0 608 0 0 629 0 0 742 0 0 1769 0 0 2662 0 0 2753 0 0 2777 0 0 2852 0 0 2903 0 0 2825 0 0 2932 0 0 2993 0 0 3061 0 0 3136 0 0 3117 0 0 3152 0 0 3100 0 0 3096 0 0 3121 0 0 3208 0 0 3101 0 0 3243 0 0 3138 0 0 3173 0 0 3268 0 0 3178 0 0 3199 0 0 3182 0 0 3328 0 0 3246 0 0 3133 0 0 3057 0 0 3124 0 0 3034 0 0 3069 0 0 3021 0 0 3025 0 0 3000 0 0 2901 0 0 2885 0 0 2891 0 0 2716 0 0 2673 0 0 1713 0 0 774 0 0 647 0 0 586 0 0 536 0 0 450 0 0 422 0 0 374 0 0 402 0 0 307 0 0 
127 0 0 290 0 0 362 0 0 358 0 0 442 0 0 472 0 0 514 0 0 590 0 0 629 0 0 711 0 0 1722 0 0 2715 0 0 2655 0 0 2769 0 0 2750 0 0 2986 0 0 2880 0 0 3065 0 0 3038 0 0 3130 0 0 3083 0 0 3016 0 0 3080 0 0 3087 0 0 3123 0 0 3140 0 0 3108 0 0 3112 0 0 3265 0 0 3146 0 0 3224 0 0 3181 0 0 3206 0 0 3166 0 0 3086 0 0 3179 0 0 3200 0 0 3085 0 0 3097 0 0 3141 0 0 3100 0 0 3024 0 0 2952 0 0 2900 0 0 2974 0 0 2919 0 0 2747 0 0 2806 0 0 2695 0 0 2685 0 0 1670 0 0 721 0 0 692 0 0 572 0 0 531 0 0 483 0 0 443 0 0 350 0 0 342 0 0 304 0 0 
155 0 0 315 0 0 325 0 0 350 0 0 391 0 0 497 0 0 493 0 0 590 0 0 623 0 0 746 0 0 1735 0 0 2638 0 0 2640 0 0 2764 0 0 2791 0 0 2953 0 0 2890 0 0 2949 0 0 2950 0 0 3028 0 0 3075 0 0 3002 0 0 3081 0 0 3073 0 0 3211 0 0 3084 0 0 3209 0 0 3146 0 0 3169 0 0 3179 0 0 3123 0 0 3009 0 0 3114 0 0 3142 0 0 3079 0 0 3054 0 0 3090 0 0 3083 0 0 3066 0 0 3095 0 0 3105 0 0 2800 0 0 2946 0 0 2911 0 0 2974 0 0 2885 0 0 2780 0 0 2753 0 0 2660 0 0 2614 0 0 1625 0 0 713 0 0 707 0 0 584 0 0 515 0 0 430 0 0 390 0 0 411 0 0 317 0 0 315 0 0 
141 0 0 258 0 0 320 0 0 355 0 0 381 0 0 463 0 0 482 0 0 539 0 0 639 0 0 700 0 0 1714 0 0 2523 0 0 2625 0 0 2715 0 0 2741 0 0 2872 0 0 2864 0 0 3018 0 0 2954 0 0 2947 0 0 3039 0 0 2908 0 0 3079 0 0 3097 0 0 3090 0 0 3052 0 0 3220 0 0 3132 0 0 2970 0 0 3050 0 0 3148 0 0 3061 0 0 3035 0 0 3080 0 0 3094 0 0 3039 0 0 3009 0 0 2960 0 0 2996 0 0 2952 0 0 3095 0 0 2958 0 0 2965 0 0 2983 0 0 2928 0 0 2882 0 0 2818 0 0 2822 0 0 2648 0 0 2612 0 0 1634 0 0 729 0 0 624 0 0 571 0 0 490 0 0 461 0 0 394 0 0 342 0 0 339 0 0 298 0 0 
124 0 0 281 0 0 294 0 0 364 0 0 378 0 0 394 0 0 451 0 0 543 0 0 616 0 0 692 0 0 1605 0 0 2597 0 0 2657 0 0 2559 0 0 2671 0 0 2807 0 0 2893 0 0 2905 0 0 2901 0 0 2954 0 0 2923 0 0 3011 0 0 2932 0 0 2991 0 0 2986 0 0 3070 0 0 3004 0 0 3060 0 0 3113 0 0 3073 0 0 3095 0 0 3053 0 0 3026 0 0 3051 0 0 3020 0 0 3009 0 0 3014 0 0 2934 0 0 3060 0 0 3020 0 0 2960 0 0 2946 0 0 2881 0 0 2890 0 0 2851 0 0 2808 0 0 2719 0 0 2777 0 0 2683 0 0 2541 0 0 1616 0 0 667 0 0 583 0 0 514 0 0 495 0 0 422 0 0 388 0 0 315 0 0 315 0 0 302 0 0 
109 0 0 266 0 0 296 0 0 366 0 0 372 0 0 395 0 0 467 0 0 530 0 0 590 0 0 658 0 0 1606 0 0 2484 0 0 2670 0 0 2771 0 0 2761 0 0 2731 0 0 2708 0 0 2908 0 0 2829 0 0 2858 0 0 2921 0 0 2883 0 0 2949 0 0 2935 0 0 3006 0 0 3061 0 0 3001 0 0 2954 0 0 3042 0 0 3027 0 0 3037 0 0 3124 0 0 3007 0 0 2965 0 0 3016 0 0 3001 0 0 2918 0 0 2928 0 0 2903 0 0 2941 0 0 2922 0 0 2893 0 0 2877 0 0 2898 0 0 2877 0 0 2759 0 0 2680 0 0 2627 0 0 2614 0 0 2484 0 0 1675 0 0 683 0 0 636 0 0 496 0 0 455 0 0 398 0 0 378 0 0 316 0 0 293 0 0 303 0 0 
98 0 0 284 0 0 308 0 0 307 0 0 377 0 0 404 0 0 473 0 0 498 0 0 564 0 0 570 0 0 1540 0 0 2515 0 0 2580 0 0 2635 0 0 2685 0 0 2766 0 0 2730 0 0 2858 0 0 2778 0 0 2838 0 0 2895 0 0 2913 0 0 2956 0 0 2926 0 0 2908 0 0 2960 0 0 2928 0 0 3028 0 0 2853 0 0 2957 0 0 2950 0 0 3030 0 0 2990 0 0 2960 0 0 2904 0 0 2892 0 0 2878 0 0 2911 0 0 2787 0 0 2942 0 0 2859 0 0 2862 0 0 2825 0 0 2840 0 0 2808 0 0 2653 0 0 2717 0 0 2679 0 0 2616 0 0 2487 0 0 1527 0 0 632 0 0 585 0 0 520 0 0 452 0 0 362 0 0 380 0 0 366 0 0 274 0 0 249 0 0 
139 0 0 248 0 0 305 0 0 318 0 0 361 0 0 413 0 0 423 0 0 463 0 0 545 0 0 570 0 0 1533 0 0 2504 0 0 2548 0 0 2632 0 0 2664 0 0 2636 0 0 2807 0 0 2763 0 0 2763 0 0 2746 0 0 2798 0 0 2929 0 0 2832 0 0 2872 0 0 2923 0 0 2899 0 0 2979 0 0 2853 0 0 2970 0 0 2871 0 0 2862 0 0 2860 0 0 2817 0 0 2937 0 0 2937 0 0 2826 0 0 2883 0 0 2920 0 0 2829 0 0 2860 0 0 2830 0 0 2848 0 0 2682 0 0 2707 0 0 2708 0 0 2697 0 0 2651 0 0 2609 0 0 2578 0 0 2452 0 0 1540 0 0 609 0 0 507 0 0 490 0 0 435 0 0 362 0 0 352 0 0 320 0 0 294 0 0 267 0 0 
121 0 0 225 0 0 261 0 0 276 0 0 356 0 0 366 0 0 454 0 0 460 0 0 497 0 0 594 0 0 1561 0 0 2354 0 0 2526 0 0 2604 0 0 2493 0 0 2595 0 0 2679 0 0 2614 0 0 2653 0 0 2590 0 0 2747 0 0 2759 0 0 2886 0 0 2685 0 0 2747 0 0 2788 0 0 2813 0 0 2721 0 0 2833 0 0 2750 0 0 2864 0 0 2845 0 0 2775 0 0 2784 0 0 2938 0 0 2805 0 0 2799 0 0 2763 0 0 2728 0 0 2809 0 0 2777 0 0 2708 0 0 2646 0 0 2715 0 0 2655 0 0 2545 0 0 2711 0 0 2656 0 0 2465 0 0 2385 0 0 1509 0 0 532 0 0 493 0 0 447 0 0 403 0 0 354 0 0 293 0 0 273 0 0 297 0 0 212 0 0 
110 0 0 243 0 0 251 0 0 264 0 0 296 0 0 334 0 0 337 0 0 413 0 0 486 0 0 539 0 0 1459 0 0 2294 0 0 2381 0 0 2495 0 0 2481 0 0 2531 0 0 2553 0 0 2528 0 0 2646 0 0 2711 0 0 2632 0 0 2668 0 0 2593 0 0 2773 0 0 2774 0 0 2688 0 0 2785 0 0 2732 0 0 2797 0 0 2689 0 0 2638 0 0 2735 0 0 2745 0 0 2781 0 0 2663 0 0 2708 0 0 2652 0 0 2635 0 0 2737 0 0 2634 0 0 2629 0 0 2645 0 0 2583 0 0 2524 0 0 2544 0 0 2574 0 0 2589 0 0 2414 0 0 2388 0 0 2289 0 0 1401 0 0 547 0 0 448 0 0 431 0 0 397 0 0 324 0 0 349 0 0 308 0 0 283 0 0 244 0 0 
112 0 0 233 0 0 245 0 0 288 0 0 294 0 0 362 0 0 381 0 0 388 0 0 412 0 0 489 0 0 948 0 0 1386 0 0 1470 0 0 1515 0 0 1506 0 0 1664 0 0 1613 0 0 1658 0 0 1671 0 0 1647 0 0 1757 0 0 1678 0 0 1745 0 0 1722 0 0 1706 0 0 1696 0 0 1773 0 0 1779 0 0 1740 0 0 1722 0 0 1725 0 0 1799 0 0 1817 0 0 1782 0 0 1761 0 0 1766 0 0 1626 0 0 1719 0 0 1702 0 0 1725 0 0 1771 0 0 1698 0 0 1660 0 0 1685 0 0 1611 0 0 1595 0 0 1481 0 0 1610 0 0 1428 0 0 1501 0 0 957 0 0 493 0 0 420 0 0 393 0 0 356 0 0 337 0 0 311 0 0 279 0 0 244 0 0 227 0 0 
94 0 0 231 0 0 246 0 0 268 0 0 287 0 0 301 0 0 333 0 0 402 0 0 418 0 0 441 0 0 527 0 0 507 0 0 533 0 0 605 0 0 623 0 0 700 0 0 683 0 0 714 0 0 756 0 0 722 0 0 750 0 0 782 0 0 759 0 0 742 0 0 836 0 0 776 0 0 763 0 0 820 0 0 831 0 0 833 0 0 808 0 0 832 0 0 776 0 0 801 0 0 761 0 0 770 0 0 785 0 0 738 0 0 796 0 0 799 0 0 781 0 0 710 0 0 725 0 0 695 0 0 665 0 0 659 0 0 636 0 0 585 0 0 570 0 0 512 0 0 488 0 0 458 0 0 408 0 0 344 0 0 317 0 0 297 0 0 292 0 0 240 0 0 260 0 0 238 0 0 
101 0 0 189 0 0 234 0 0 261 0 0 270 0 0 287 0 0 335 0 0 344 0 0 361 0 0 413 0 0 399 0 0 448 0 0 483 0 0 529 0 0 566 0 0 581 0 0 603 0 0 597 0 0 657 0 0 644 0 0 643 0 0 669 0 0 722 0 0 658 0 0 662 0 0 720 0 0 701 0 0 707 0 0 733 0 0 690 0 0 738 0 0 732 0 0 707 0 0 741 0 0 772 0 0 658 0 0 713 0 0 724 0 0 684 0 0 677 0 0 630 0 0 628 0 0 659 0 0 638 0 0 592 0 0 620 0 0 513 0 0 537 0 0 508 0 0 458 0 0 474 0 0 416 0 0 405 0 0 328 0 0 318 0 0 269 0 0 249 0 0 245 0 0 230 0 0 222 0 0 
83 0 0 206 0 0 207 0 0 203 0 0 238 0 0 283 0 0 291 0 0 314 0 0 319 0 0 383 0 0 363 0 0 465 0 0 449 0 0 454 0 0 499 0 0 517 0 0 517 0 0 583 0 0 587 0 0 564 0 0 604 0 0 648 0 0 640 0 0 619 0 0 641 0 0 641 0 0 653 0 0 617 0 0 644 0 0 646 0 0 655 0 0 614 0 0 672 0 0 670 0 0 650 0 0 623 0 0 615 0 0 597 0 0 583 0 0 620 0 0 537 0 0 543 0 0 571 0 0 549 0 0 496 0 0 505 0 0 512 0 0 455 0 0 450 0 0 395 0 0 377 0 0 362 0 0 315 0 0 336 0 0 295 0 0 268 0 0 229 0 0 210 0 0 177 0 0 178 0 0 
93 0 0 175 0 0 226 0 0 220 0 0 239 0 0 259 0 0 293 0 0 286 0 0 293 0 0 377 0 0 356 0 0 398 0 0 409 0 0 425 0 0 432 0 0 423 0 0 442 0 0 458 0 0 506 0 0 543 0 0 493 0 0 512 0 0 565 0 0 567 0 0 540 0 0 579 0 0 579 0 0 539 0 0 592 0 0 588 0 0 612 0 0 598 0 0 605 0 0 598 0 0 580 0 0 576 0 0 555 0 0 550 0 0 565 0 0 499 0 0 512 0 0 482 0 0 451 0 0 497 0 0 462 0 0 448 0 0 449 0 0 417 0 0 387 0 0 390 0 0 388 0 0 336 0 0 298 0 0 292 0 0 249 0 0 256 0 0 228 0 0 200 0 0 212 0 0 189 0 0 
85 0 0 175 0 0 197 0 0 209 0 0 225 0 0 259 0 0 242 0 0 255 0 0 281 0 0 300 0 0 336 0 0 341 0 0 347 0 0 385 0 0 405 0 0 425 0 0 441 0 0 437 0 0 475 0 0 484 0 0 467 0 0 495 0 0 458 0 0 466 0 0 521 0 0 538 0 0 535 0 0 548 0 0 489 0 0 555 0 0 473 0 0 525 0 0 500 0 0 475 0 0 479 0 0 478 0 0 509 0 0 489 0 0 483 0 0 498 0 0 451 0 0 436 0 0 445 0 0 463 0 0 440 0 0 400 0 0 379 0 0 378 0 0 367 0 0 355 0 0 347 0 0 305 0 0 304 0 0 301 0 0 274 0 0 235 0 0 219 0 0 196 0 0 189 0 0 165 0 0 
76 0 0 166 0 0 179 0 0 194 0 0 207 0 0 215 0 0 246 0 0 242 0 0 236 0 0 282 0 0 277 0 0 295 0 0 298 0 0 333 0 0 349 0 0 375 0 0 372 0 0 393 0 0 395 0 0 432 0 0 436 0 0 412 0 0 404 0 0 447 0 0 449 0 0 466 0 0 443 0 0 459 0 0 457 0 0 510 0 0 477 0 0 446 0 0 470 0 0 464 0 0 440 0 0 446 0 0 444 0 0 440 0 0 439 0 0 427 0 0 431 0 0 408 0 0 382 0 0 356 0 0 382 0 0 370 0 0 356 0 0 353 0 0 337 0 0 310 0 0 306 0 0 281 0 0 244 0 0 245 0 0 259 0 0 197 0 0 209 0 0 193 0 0 178 0 0 161 0 0 
64 0 0 153 0 0 148 0 0 180 0 0 180 0 0 199 0 0 243 0 0 242 0 0 236 0 0 256 0 0 256 0 0 279 0 0 282 0 0 329 0 0 311 0 0 327 0 0 382 0 0 339 0 0 351 0 0 375 0 0 359 0 0 430 0 0 393 0 0 352 0 0 396 0 0 405 0 0 433 0 0 430 0 0 434 0 0 414 0 0 413 0 0 432 0 0 423 0 0 440 0 0 394 0 0 425 0 0 408 0 0 413 0 0 390 0 0 392 0 0 372 0 0 369 0 0 376 0 0 347 0 0 351 0 0 316 0 0 345 0 0 322 0 0 309 0 0 302 0 0 267 0 0 240 0 0 202 0 0 243 0 0 214 0 0 186 0 0 191 0 0 165 0 0 168 0 0 162 0 0 
66 0 0 137 0 0 146 0 0 159 0 0 171 0 0 182 0 0 177 0 0 246 0 0 226 0 0 251 0 0 241 0 0 272 0 0 272 0 0 279 0 0 296 0 0 323 0 0 317 0 0 328 0 0 322 0 0 351 0 0 362 0 0 346 0 0 371 0 0 300 0 0 366 0 0 364 0 0 389 0 0 377 0 0 371 0 0 337 0 0 369 0 0 397 0 0 365 0 0 364 0 0 395 0 0 373 0 0 391 0 0 379 0 0 369 0 0 378 0 0 354 0 0 351 0 0 312 0 0 358 0 0 337 0 0 297 0 0 275 0 0 288 0 0 243 0 0 234 0 0 227 0 0 227 0 0 235 0 0 221 0 0 199 0 0 181 0 0 166 0 0 158 0 0 146 0 0 145 0 0 
63 0 0 138 0 0 151 0 0 137 0 0 146 0 0 170 0 0 164 0 0 188 0 0 227 0 0 247 0 0 203 0 0 240 0 0 219 0 0 250 0 0 272 0 0 276 0 0 282 0 0 321 0 0 301 0 0 295 0 0 317 0 0 306 0 0 320 0 0 300 0 0 332 0 0 334 0 0 332 0 0 325 0 0 352 0 0 316 0 0 353 0 0 362 0 0 333 0 0 362 0 0 355 0 0 367 0 0 300 0 0 327 0 0 327 0 0 307 0 0 300 0 0 313 0 0 269 0 0 285 0 0 259 0 0 256 0 0 263 0 0 235 0 0 224 0 0 226 0 0 221 0 0 184 0 0 192 0 0 180 0 0 213 0 0 168 0 0 171 0 0 154 0 0 150 0 0 122 0 0 
