P3
# This is a dose file slice at depth 14 of 100
60 60
# now we give the maximum value of the RGB coordinates.
5550
13 0 0 38 0 0 31 0 0 43 0 0 49 0 0 61 0 0 60 0 0 52 0 0 63 0 0 77 0 0 67 0 0 83 0 0 82 0 0 84 0 0 81 0 0 88 0 0 89 0 0 79 0 0 114 0 0 88 0 0 92 0 0 98 0 0 78 0 0 108 0 0 90 0 0 98 0 0 92 0 0 105 0 0 100 0 0 112 0 0 117 0 0 104 0 0 112 0 0 98 0 0 85 0 0 110 0 0 92 0 0 96 0 0 106 0 0 115 0 0 102 0 0 90 0 0 67 0 0 101 0 0 80 0 0 79 0 0 79 0 0 70 0 0 76 0 0 75 0 0 66 0 0 75 0 0 65 0 0 69 0 0 57 0 0 44 0 0 48 0 0 38 0 0 48 0 0 36 0 0 
44 0 0 80 0 0 77 0 0 107 0 0 74 0 0 111 0 0 106 0 0 127 0 0 114 0 0 137 0 0 133 0 0 161 0 0 151 0 0 180 0 0 183 0 0 173 0 0 195 0 0 176 0 0 211 0 0 210 0 0 203 0 0 230 0 0 206 0 0 211 0 0 233 0 0 234 0 0 235 0 0 217 0 0 239 0 0 238 0 0 212 0 0 229 0 0 214 0 0 235 0 0 219 0 0 217 0 0 248 0 0 216 0 0 218 0 0 196 0 0 236 0 0 232 0 0 199 0 0 178 0 0 182 0 0 182 0 0 175 0 0 177 0 0 164 0 0 158 0 0 175 0 0 135 0 0 137 0 0 134 0 0 110 0 0 106 0 0 92 0 0 88 0 0 87 0 0 72 0 0 
44 0 0 79 0 0 96 0 0 114 0 0 108 0 0 121 0 0 127 0 0 118 0 0 153 0 0 156 0 0 180 0 0 173 0 0 175 0 0 191 0 0 180 0 0 198 0 0 196 0 0 236 0 0 233 0 0 236 0 0 225 0 0 249 0 0 257 0 0 236 0 0 253 0 0 255 0 0 249 0 0 257 0 0 243 0 0 271 0 0 249 0 0 287 0 0 291 0 0 257 0 0 274 0 0 240 0 0 258 0 0 254 0 0 296 0 0 239 0 0 217 0 0 208 0 0 258 0 0 200 0 0 211 0 0 200 0 0 178 0 0 179 0 0 185 0 0 161 0 0 171 0 0 160 0 0 153 0 0 138 0 0 114 0 0 107 0 0 91 0 0 97 0 0 106 0 0 83 0 0 
35 0 0 107 0 0 94 0 0 98 0 0 132 0 0 121 0 0 151 0 0 155 0 0 161 0 0 163 0 0 205 0 0 231 0 0 196 0 0 211 0 0 242 0 0 227 0 0 236 0 0 219 0 0 286 0 0 294 0 0 261 0 0 283 0 0 276 0 0 287 0 0 297 0 0 279 0 0 298 0 0 302 0 0 319 0 0 302 0 0 299 0 0 342 0 0 322 0 0 278 0 0 289 0 0 317 0 0 305 0 0 276 0 0 292 0 0 286 0 0 248 0 0 280 0 0 252 0 0 232 0 0 248 0 0 235 0 0 169 0 0 239 0 0 202 0 0 196 0 0 174 0 0 177 0 0 159 0 0 150 0 0 138 0 0 139 0 0 128 0 0 126 0 0 109 0 0 75 0 0 
42 0 0 91 0 0 103 0 0 120 0 0 133 0 0 147 0 0 149 0 0 154 0 0 177 0 0 195 0 0 184 0 0 206 0 0 240 0 0 252 0 0 277 0 0 269 0 0 269 0 0 283 0 0 277 0 0 322 0 0 301 0 0 336 0 0 312 0 0 332 0 0 350 0 0 357 0 0 371 0 0 371 0 0 343 0 0 360 0 0 335 0 0 322 0 0 343 0 0 333 0 0 317 0 0 344 0 0 317 0 0 342 0 0 314 0 0 342 0 0 285 0 0 296 0 0 305 0 0 309 0 0 274 0 0 284 0 0 263 0 0 226 0 0 235 0 0 212 0 0 209 0 0 190 0 0 174 0 0 165 0 0 134 0 0 142 0 0 139 0 0 143 0 0 105 0 0 96 0 0 
41 0 0 139 0 0 107 0 0 123 0 0 141 0 0 142 0 0 163 0 0 180 0 0 193 0 0 211 0 0 214 0 0 212 0 0 261 0 0 278 0 0 321 0 0 280 0 0 293 0 0 339 0 0 316 0 0 333 0 0 343 0 0 362 0 0 344 0 0 391 0 0 356 0 0 368 0 0 395 0 0 377 0 0 386 0 0 422 0 0 361 0 0 388 0 0 368 0 0 385 0 0 424 0 0 420 0 0 407 0 0 384 0 0 342 0 0 354 0 0 355 0 0 338 0 0 347 0 0 347 0 0 313 0 0 331 0 0 324 0 0 264 0 0 284 0 0 250 0 0 262 0 0 211 0 0 232 0 0 188 0 0 192 0 0 166 0 0 159 0 0 128 0 0 101 0 0 124 0 0 
46 0 0 112 0 0 112 0 0 141 0 0 157 0 0 172 0 0 180 0 0 205 0 0 215 0 0 236 0 0 288 0 0 277 0 0 302 0 0 343 0 0 341 0 0 354 0 0 400 0 0 347 0 0 385 0 0 412 0 0 396 0 0 452 0 0 430 0 0 474 0 0 455 0 0 430 0 0 458 0 0 416 0 0 440 0 0 438 0 0 436 0 0 419 0 0 484 0 0 442 0 0 425 0 0 435 0 0 450 0 0 451 0 0 409 0 0 430 0 0 445 0 0 385 0 0 341 0 0 409 0 0 378 0 0 388 0 0 370 0 0 333 0 0 319 0 0 282 0 0 260 0 0 260 0 0 225 0 0 224 0 0 187 0 0 147 0 0 151 0 0 132 0 0 122 0 0 91 0 0 
52 0 0 124 0 0 133 0 0 139 0 0 174 0 0 199 0 0 187 0 0 236 0 0 232 0 0 248 0 0 287 0 0 325 0 0 351 0 0 358 0 0 400 0 0 454 0 0 434 0 0 422 0 0 493 0 0 504 0 0 516 0 0 493 0 0 534 0 0 507 0 0 519 0 0 499 0 0 517 0 0 552 0 0 557 0 0 476 0 0 558 0 0 529 0 0 550 0 0 555 0 0 535 0 0 543 0 0 555 0 0 534 0 0 493 0 0 498 0 0 501 0 0 457 0 0 463 0 0 431 0 0 487 0 0 398 0 0 374 0 0 391 0 0 340 0 0 312 0 0 300 0 0 299 0 0 255 0 0 220 0 0 170 0 0 178 0 0 165 0 0 152 0 0 112 0 0 127 0 0 
62 0 0 137 0 0 146 0 0 168 0 0 190 0 0 197 0 0 239 0 0 250 0 0 260 0 0 308 0 0 364 0 0 388 0 0 439 0 0 489 0 0 469 0 0 512 0 0 518 0 0 553 0 0 558 0 0 593 0 0 610 0 0 575 0 0 619 0 0 580 0 0 618 0 0 621 0 0 620 0 0 577 0 0 606 0 0 602 0 0 586 0 0 637 0 0 674 0 0 596 0 0 638 0 0 640 0 0 607 0 0 639 0 0 597 0 0 554 0 0 535 0 0 570 0 0 594 0 0 527 0 0 538 0 0 566 0 0 492 0 0 445 0 0 468 0 0 414 0 0 351 0 0 315 0 0 270 0 0 269 0 0 227 0 0 212 0 0 171 0 0 146 0 0 131 0 0 122 0 0 
79 0 0 125 0 0 142 0 0 174 0 0 177 0 0 212 0 0 249 0 0 252 0 0 323 0 0 357 0 0 427 0 0 453 0 0 543 0 0 556 0 0 613 0 0 611 0 0 654 0 0 665 0 0 669 0 0 690 0 0 672 0 0 707 0 0 695 0 0 723 0 0 756 0 0 736 0 0 763 0 0 756 0 0 747 0 0 763 0 0 747 0 0 756 0 0 782 0 0 720 0 0 756 0 0 735 0 0 797 0 0 749 0 0 773 0 0 721 0 0 730 0 0 714 0 0 619 0 0 685 0 0 621 0 0 638 0 0 579 0 0 591 0 0 487 0 0 446 0 0 420 0 0 358 0 0 346 0 0 299 0 0 240 0 0 239 0 0 194 0 0 166 0 0 163 0 0 124 0 0 
66 0 0 154 0 0 167 0 0 157 0 0 182 0 0 244 0 0 260 0 0 292 0 0 379 0 0 424 0 0 1297 0 0 2179 0 0 2392 0 0 2329 0 0 2340 0 0 2358 0 0 2439 0 0 2437 0 0 2402 0 0 2587 0 0 2453 0 0 2508 0 0 2522 0 0 2538 0 0 2521 0 0 2547 0 0 2489 0 0 2454 0 0 2553 0 0 2523 0 0 2511 0 0 2481 0 0 2427 0 0 2561 0 0 2456 0 0 2441 0 0 2525 0 0 2538 0 0 2414 0 0 2416 0 0 2506 0 0 2419 0 0 2478 0 0 2319 0 0 2448 0 0 2336 0 0 2333 0 0 2378 0 0 2265 0 0 2136 0 0 1266 0 0 429 0 0 341 0 0 325 0 0 250 0 0 221 0 0 208 0 0 192 0 0 164 0 0 138 0 0 
78 0 0 161 0 0 181 0 0 211 0 0 222 0 0 226 0 0 284 0 0 354 0 0 357 0 0 460 0 0 2202 0 0 3914 0 0 4052 0 0 4088 0 0 4038 0 0 4140 0 0 4212 0 0 4123 0 0 4264 0 0 4183 0 0 4270 0 0 4280 0 0 4178 0 0 4218 0 0 4266 0 0 4202 0 0 4417 0 0 4286 0 0 4198 0 0 4296 0 0 4254 0 0 4286 0 0 4188 0 0 4281 0 0 4244 0 0 4382 0 0 4244 0 0 4309 0 0 4303 0 0 4283 0 0 4204 0 0 4173 0 0 4276 0 0 4213 0 0 4112 0 0 4168 0 0 4013 0 0 3899 0 0 3977 0 0 3882 0 0 2160 0 0 486 0 0 376 0 0 334 0 0 279 0 0 259 0 0 203 0 0 200 0 0 194 0 0 161 0 0 
70 0 0 159 0 0 201 0 0 218 0 0 242 0 0 242 0 0 311 0 0 371 0 0 405 0 0 564 0 0 2203 0 0 3951 0 0 3933 0 0 4122 0 0 4283 0 0 4217 0 0 4218 0 0 4366 0 0 4345 0 0 4384 0 0 4401 0 0 4337 0 0 4425 0 0 4383 0 0 4389 0 0 4379 0 0 4406 0 0 4298 0 0 4364 0 0 4509 0 0 4396 0 0 4382 0 0 4394 0 0 4445 0 0 4420 0 0 4455 0 0 4436 0 0 4416 0 0 4315 0 0 4296 0 0 4398 0 0 4422 0 0 4317 0 0 4363 0 0 4254 0 0 4281 0 0 4197 0 0 4309 0 0 4109 0 0 3984 0 0 2313 0 0 499 0 0 401 0 0 348 0 0 306 0 0 282 0 0 227 0 0 175 0 0 148 0 0 135 0 0 
78 0 0 187 0 0 198 0 0 219 0 0 242 0 0 285 0 0 335 0 0 357 0 0 446 0 0 590 0 0 2254 0 0 4099 0 0 4115 0 0 4158 0 0 4356 0 0 4439 0 0 4329 0 0 4326 0 0 4510 0 0 4549 0 0 4456 0 0 4534 0 0 4622 0 0 4540 0 0 4571 0 0 4535 0 0 4552 0 0 4685 0 0 4506 0 0 4482 0 0 4575 0 0 4458 0 0 4414 0 0 4514 0 0 4584 0 0 4484 0 0 4461 0 0 4525 0 0 4459 0 0 4476 0 0 4454 0 0 4447 0 0 4518 0 0 4367 0 0 4359 0 0 4246 0 0 4283 0 0 4221 0 0 4151 0 0 4059 0 0 2382 0 0 553 0 0 475 0 0 379 0 0 364 0 0 295 0 0 233 0 0 215 0 0 194 0 0 162 0 0 
75 0 0 173 0 0 180 0 0 218 0 0 236 0 0 312 0 0 360 0 0 386 0 0 492 0 0 615 0 0 2386 0 0 3979 0 0 4265 0 0 4227 0 0 4471 0 0 4336 0 0 4406 0 0 4357 0 0 4618 0 0 4628 0 0 4483 0 0 4573 0 0 4553 0 0 4547 0 0 4466 0 0 4587 0 0 4497 0 0 4551 0 0 4709 0 0 4577 0 0 4556 0 0 4541 0 0 4611 0 0 4529 0 0 4615 0 0 4554 0 0 4483 0 0 4625 0 0 4560 0 0 4562 0 0 4610 0 0 4551 0 0 4473 0 0 4547 0 0 4417 0 0 4406 0 0 4338 0 0 4216 0 0 4284 0 0 3953 0 0 2332 0 0 599 0 0 460 0 0 395 0 0 368 0 0 298 0 0 239 0 0 198 0 0 186 0 0 169 0 0 
82 0 0 177 0 0 215 0 0 206 0 0 256 0 0 308 0 0 350 0 0 431 0 0 502 0 0 643 0 0 2440 0 0 4164 0 0 4164 0 0 4367 0 0 4280 0 0 4375 0 0 4447 0 0 4354 0 0 4605 0 0 4584 0 0 4608 0 0 4628 0 0 4577 0 0 4597 0 0 4644 0 0 4593 0 0 4560 0 0 4622 0 0 4471 0 0 4664 0 0 4638 0 0 4661 0 0 4695 0 0 4656 0 0 4694 0 0 4690 0 0 4549 0 0 4641 0 0 4564 0 0 4628 0 0 4594 0 0 4584 0 0 4585 0 0 4557 0 0 4516 0 0 4366 0 0 4364 0 0 4250 0 0 4330 0 0 4153 0 0 2381 0 0 561 0 0 542 0 0 429 0 0 354 0 0 294 0 0 276 0 0 209 0 0 194 0 0 171 0 0 
65 0 0 198 0 0 186 0 0 289 0 0 289 0 0 330 0 0 379 0 0 463 0 0 544 0 0 649 0 0 2546 0 0 4094 0 0 4300 0 0 4386 0 0 4465 0 0 4601 0 0 4615 0 0 4528 0 0 4672 0 0 4702 0 0 4634 0 0 4736 0 0 4705 0 0 4668 0 0 4734 0 0 4678 0 0 4683 0 0 4625 0 0 4615 0 0 4748 0 0 4775 0 0 4717 0 0 4691 0 0 4540 0 0 4744 0 0 4748 0 0 4663 0 0 4716 0 0 4667 0 0 4520 0 0 4589 0 0 4652 0 0 4621 0 0 4585 0 0 4557 0 0 4360 0 0 4420 0 0 4403 0 0 4370 0 0 4198 0 0 2450 0 0 676 0 0 505 0 0 487 0 0 396 0 0 311 0 0 295 0 0 233 0 0 228 0 0 201 0 0 
91 0 0 190 0 0 191 0 0 252 0 0 282 0 0 345 0 0 385 0 0 479 0 0 604 0 0 659 0 0 2416 0 0 4163 0 0 4351 0 0 4345 0 0 4253 0 0 4591 0 0 4542 0 0 4591 0 0 4527 0 0 4614 0 0 4716 0 0 4635 0 0 4589 0 0 4791 0 0 4762 0 0 4794 0 0 4773 0 0 4740 0 0 4765 0 0 4671 0 0 4607 0 0 4833 0 0 4673 0 0 4628 0 0 4739 0 0 4705 0 0 4629 0 0 4626 0 0 4720 0 0 4791 0 0 4591 0 0 4588 0 0 4717 0 0 4618 0 0 4452 0 0 4373 0 0 4533 0 0 4304 0 0 4314 0 0 4188 0 0 2419 0 0 644 0 0 555 0 0 464 0 0 395 0 0 338 0 0 283 0 0 263 0 0 237 0 0 222 0 0 
96 0 0 201 0 0 271 0 0 251 0 0 303 0 0 345 0 0 420 0 0 480 0 0 550 0 0 721 0 0 2391 0 0 4237 0 0 4281 0 0 4518 0 0 4437 0 0 4525 0 0 4596 0 0 4727 0 0 4601 0 0 4677 0 0 4653 0 0 4652 0 0 4759 0 0 4768 0 0 4673 0 0 4611 0 0 4773 0 0 4893 0 0 4757 0 0 4784 0 0 4762 0 0 4695 0 0 4694 0 0 4603 0 0 4854 0 0 4633 0 0 4695 0 0 4644 0 0 4777 0 0 4826 0 0 4718 0 0 4716 0 0 4654 0 0 4597 0 0 4649 0 0 4568 0 0 4505 0 0 4471 0 0 4393 0 0 4376 0 0 2532 0 0 733 0 0 574 0 0 521 0 0 388 0 0 377 0 0 335 0 0 258 0 0 227 0 0 206 0 0 
99 0 0 189 0 0 255 0 0 305 0 0 335 0 0 388 0 0 386 0 0 439 0 0 621 0 0 735 0 0 2414 0 0 4057 0 0 4393 0 0 4404 0 0 4523 0 0 4651 0 0 4635 0 0 4719 0 0 4594 0 0 4660 0 0 4752 0 0 4748 0 0 4765 0 0 4710 0 0 4739 0 0 4761 0 0 4824 0 0 4914 0 0 4822 0 0 4835 0 0 4728 0 0 4777 0 0 4808 0 0 4867 0 0 4674 0 0 4594 0 0 4866 0 0 4703 0 0 4707 0 0 4766 0 0 4766 0 0 4645 0 0 4599 0 0 4691 0 0 4589 0 0 4538 0 0 4521 0 0 4471 0 0 4394 0 0 4257 0 0 2547 0 0 642 0 0 584 0 0 494 0 0 446 0 0 326 0 0 300 0 0 249 0 0 245 0 0 212 0 0 
102 0 0 197 0 0 215 0 0 273 0 0 348 0 0 339 0 0 415 0 0 469 0 0 582 0 0 699 0 0 2450 0 0 4190 0 0 4349 0 0 4396 0 0 4585 0 0 4659 0 0 4604 0 0 4579 0 0 4728 0 0 4669 0 0 4712 0 0 4868 0 0 4787 0 0 4691 0 0 4781 0 0 4825 0 0 4890 0 0 4849 0 0 4888 0 0 4867 0 0 4847 0 0 4813 0 0 4825 0 0 4827 0 0 4847 0 0 4759 0 0 4823 0 0 4762 0 0 4749 0 0 4798 0 0 4766 0 0 4730 0 0 4711 0 0 4741 0 0 4628 0 0 4616 0 0 4559 0 0 4311 0 0 4435 0 0 4273 0 0 2478 0 0 739 0 0 592 0 0 481 0 0 412 0 0 316 0 0 317 0 0 272 0 0 251 0 0 200 0 0 
117 0 0 232 0 0 253 0 0 296 0 0 319 0 0 350 0 0 421 0 0 457 0 0 648 0 0 751 0 0 2528 0 0 4150 0 0 4430 0 0 4563 0 0 4590 0 0 4619 0 0 4787 0 0 4661 0 0 4774 0 0 4680 0 0 4789 0 0 4763 0 0 4888 0 0 4756 0 0 4804 0 0 4829 0 0 4762 0 0 4884 0 0 4781 0 0 4760 0 0 4820 0 0 4941 0 0 4910 0 0 4880 0 0 4892 0 0 4857 0 0 4982 0 0 4837 0 0 4850 0 0 4942 0 0 4816 0 0 4689 0 0 4584 0 0 4677 0 0 4670 0 0 4624 0 0 4657 0 0 4494 0 0 4332 0 0 4256 0 0 2518 0 0 700 0 0 618 0 0 474 0 0 431 0 0 377 0 0 319 0 0 296 0 0 238 0 0 211 0 0 
91 0 0 222 0 0 239 0 0 273 0 0 356 0 0 376 0 0 405 0 0 506 0 0 626 0 0 735 0 0 2508 0 0 4208 0 0 4457 0 0 4363 0 0 4587 0 0 4639 0 0 4708 0 0 4684 0 0 4624 0 0 4790 0 0 4714 0 0 4886 0 0 4668 0 0 4779 0 0 4788 0 0 4878 0 0 4762 0 0 4766 0 0 4986 0 0 4886 0 0 4824 0 0 4871 0 0 4875 0 0 4826 0 0 4858 0 0 4889 0 0 4824 0 0 4798 0 0 4678 0 0 4874 0 0 4678 0 0 4721 0 0 4729 0 0 4645 0 0 4702 0 0 4725 0 0 4513 0 0 4473 0 0 4342 0 0 4279 0 0 2591 0 0 757 0 0 545 0 0 494 0 0 407 0 0 331 0 0 319 0 0 275 0 0 258 0 0 215 0 0 
100 0 0 239 0 0 272 0 0 262 0 0 331 0 0 365 0 0 413 0 0 482 0 0 616 0 0 702 0 0 2486 0 0 4271 0 0 4480 0 0 4475 0 0 4415 0 0 4651 0 0 4753 0 0 4642 0 0 4776 0 0 4776 0 0 4844 0 0 4795 0 0 4839 0 0 4807 0 0 4793 0 0 4668 0 0 4897 0 0 4800 0 0 4780 0 0 4900 0 0 4889 0 0 4839 0 0 4739 0 0 4837 0 0 4822 0 0 4812 0 0 4905 0 0 4937 0 0 4861 0 0 4864 0 0 4850 0 0 4740 0 0 4850 0 0 4785 0 0 4703 0 0 4557 0 0 4685 0 0 4510 0 0 4483 0 0 4309 0 0 2559 0 0 660 0 0 646 0 0 541 0 0 443 0 0 356 0 0 339 0 0 282 0 0 262 0 0 220 0 0 
109 0 0 201 0 0 259 0 0 293 0 0 362 0 0 386 0 0 443 0 0 551 0 0 611 0 0 758 0 0 2426 0 0 4264 0 0 4408 0 0 4571 0 0 4486 0 0 4582 0 0 4776 0 0 4747 0 0 4729 0 0 4763 0 0 4729 0 0 4701 0 0 4797 0 0 4811 0 0 4715 0 0 4835 0 0 4847 0 0 4870 0 0 4932 0 0 4867 0 0 4891 0 0 4963 0 0 4921 0 0 4853 0 0 4938 0 0 4893 0 0 4869 0 0 4884 0 0 4893 0 0 4925 0 0 4585 0 0 4776 0 0 4875 0 0 4768 0 0 4642 0 0 4651 0 0 4644 0 0 4493 0 0 4445 0 0 4369 0 0 2454 0 0 742 0 0 587 0 0 520 0 0 462 0 0 372 0 0 324 0 0 280 0 0 262 0 0 223 0 0 
125 0 0 208 0 0 261 0 0 285 0 0 342 0 0 354 0 0 455 0 0 514 0 0 632 0 0 722 0 0 2470 0 0 4325 0 0 4250 0 0 4624 0 0 4477 0 0 4619 0 0 4754 0 0 4683 0 0 4744 0 0 4745 0 0 4881 0 0 4978 0 0 4841 0 0 4739 0 0 4949 0 0 4944 0 0 4913 0 0 4829 0 0 4883 0 0 4839 0 0 4880 0 0 4981 0 0 4806 0 0 4781 0 0 4978 0 0 4881 0 0 4860 0 0 4902 0 0 4902 0 0 4873 0 0 4865 0 0 4904 0 0 4705 0 0 4731 0 0 4544 0 0 4565 0 0 4580 0 0 4499 0 0 4360 0 0 4245 0 0 2442 0 0 763 0 0 618 0 0 516 0 0 437 0 0 357 0 0 331 0 0 292 0 0 244 0 0 194 0 0 
113 0 0 232 0 0 256 0 0 323 0 0 331 0 0 413 0 0 438 0 0 506 0 0 634 0 0 718 0 0 2568 0 0 4105 0 0 4367 0 0 4511 0 0 4578 0 0 4590 0 0 4730 0 0 4793 0 0 4737 0 0 4823 0 0 4886 0 0 4819 0 0 4974 0 0 4779 0 0 4884 0 0 4884 0 0 4974 0 0 4974 0 0 4903 0 0 4875 0 0 4999 0 0 4812 0 0 4814 0 0 4919 0 0 4982 0 0 4827 0 0 4807 0 0 4676 0 0 4807 0 0 4775 0 0 4882 0 0 4797 0 0 4685 0 0 4703 0 0 4640 0 0 4760 0 0 4637 0 0 4447 0 0 4400 0 0 4264 0 0 2471 0 0 784 0 0 628 0 0 508 0 0 439 0 0 369 0 0 338 0 0 303 0 0 229 0 0 220 0 0 
122 0 0 237 0 0 263 0 0 301 0 0 337 0 0 390 0 0 425 0 0 500 0 0 591 0 0 728 0 0 2494 0 0 4299 0 0 4478 0 0 4458 0 0 4544 0 0 4642 0 0 4657 0 0 4674 0 0 4817 0 0 4730 0 0 4794 0 0 4793 0 0 4850 0 0 4915 0 0 4991 0 0 4996 0 0 4758 0 0 4837 0 0 4932 0 0 4914 0 0 4858 0 0 4903 0 0 4951 0 0 4984 0 0 4872 0 0 4824 0 0 4877 0 0 4831 0 0 4769 0 0 4779 0 0 4894 0 0 4695 0 0 4723 0 0 4771 0 0 4738 0 0 4628 0 0 4521 0 0 4569 0 0 4349 0 0 4307 0 0 2628 0 0 763 0 0 621 0 0 543 0 0 453 0 0 377 0 0 351 0 0 283 0 0 254 0 0 212 0 0 
99 0 0 208 0 0 288 0 0 291 0 0 337 0 0 383 0 0 472 0 0 551 0 0 615 0 0 763 0 0 2534 0 0 4282 0 0 4395 0 0 4583 0 0 4639 0 0 4635 0 0 4765 0 0 4855 0 0 4839 0 0 4660 0 0 4876 0 0 4789 0 0 4715 0 0 4882 0 0 4851 0 0 4890 0 0 4973 0 0 4962 0 0 4897 0 0 4964 0 0 4852 0 0 4831 0 0 5096 0 0 4814 0 0 4943 0 0 4734 0 0 4941 0 0 4907 0 0 4839 0 0 4807 0 0 4754 0 0 4806 0 0 4867 0 0 4874 0 0 4735 0 0 4798 0 0 4471 0 0 4504 0 0 4456 0 0 4338 0 0 2579 0 0 752 0 0 686 0 0 521 0 0 453 0 0 388 0 0 358 0 0 313 0 0 257 0 0 247 0 0 
119 0 0 232 0 0 253 0 0 281 0 0 330 0 0 390 0 0 450 0 0 529 0 0 696 0 0 701 0 0 2453 0 0 4232 0 0 4386 0 0 4513 0 0 4743 0 0 4774 0 0 4665 0 0 4635 0 0 4751 0 0 4861 0 0 4858 0 0 4784 0 0 4860 0 0 4876 0 0 4880 0 0 4915 0 0 4867 0 0 4955 0 0 4895 0 0 4926 0 0 4943 0 0 4990 0 0 4901 0 0 4912 0 0 4765 0 0 4946 0 0 4846 0 0 4899 0 0 4750 0 0 4710 0 0 4926 0 0 4787 0 0 4880 0 0 4603 0 0 4577 0 0 4746 0 0 4774 0 0 4539 0 0 4510 0 0 4345 0 0 2546 0 0 767 0 0 616 0 0 496 0 0 444 0 0 376 0 0 361 0 0 295 0 0 256 0 0 230 0 0 
104 0 0 236 0 0 274 0 0 290 0 0 355 0 0 400 0 0 454 0 0 512 0 0 635 0 0 719 0 0 2496 0 0 4339 0 0 4375 0 0 4599 0 0 4560 0 0 4644 0 0 4642 0 0 4815 0 0 4804 0 0 4836 0 0 4847 0 0 4727 0 0 4821 0 0 4780 0 0 4986 0 0 4892 0 0 4875 0 0 4914 0 0 4831 0 0 4982 0 0 4879 0 0 4867 0 0 4922 0 0 4922 0 0 4995 0 0 4988 0 0 4834 0 0 4842 0 0 4876 0 0 4861 0 0 4825 0 0 4695 0 0 4661 0 0 4710 0 0 4665 0 0 4660 0 0 4479 0 0 4483 0 0 4307 0 0 4272 0 0 2562 0 0 732 0 0 618 0 0 556 0 0 437 0 0 392 0 0 334 0 0 300 0 0 294 0 0 233 0 0 
105 0 0 239 0 0 241 0 0 312 0 0 336 0 0 359 0 0 451 0 0 514 0 0 610 0 0 762 0 0 2643 0 0 4276 0 0 4375 0 0 4546 0 0 4501 0 0 4665 0 0 4709 0 0 4832 0 0 4715 0 0 4949 0 0 4835 0 0 4878 0 0 4975 0 0 4924 0 0 4893 0 0 4960 0 0 4917 0 0 4917 0 0 4812 0 0 4994 0 0 4996 0 0 4892 0 0 4842 0 0 4864 0 0 4946 0 0 4938 0 0 4873 0 0 4818 0 0 4859 0 0 4694 0 0 4793 0 0 4682 0 0 4846 0 0 4794 0 0 4603 0 0 4644 0 0 4630 0 0 4417 0 0 4479 0 0 4295 0 0 2516 0 0 765 0 0 658 0 0 523 0 0 429 0 0 365 0 0 355 0 0 283 0 0 245 0 0 213 0 0 
103 0 0 215 0 0 250 0 0 285 0 0 374 0 0 391 0 0 424 0 0 531 0 0 608 0 0 737 0 0 2582 0 0 4365 0 0 4363 0 0 4449 0 0 4546 0 0 4605 0 0 4646 0 0 4718 0 0 4763 0 0 4832 0 0 4652 0 0 4897 0 0 4929 0 0 4882 0 0 4983 0 0 4907 0 0 4936 0 0 4985 0 0 4821 0 0 4989 0 0 4903 0 0 4822 0 0 4942 0 0 4924 0 0 4890 0 0 4873 0 0 4890 0 0 4685 0 0 4799 0 0 4861 0 0 4845 0 0 4727 0 0 4704 0 0 4804 0 0 4630 0 0 4550 0 0 4587 0 0 4536 0 0 4349 0 0 4283 0 0 2628 0 0 754 0 0 580 0 0 558 0 0 450 0 0 402 0 0 347 0 0 309 0 0 264 0 0 253 0 0 
123 0 0 246 0 0 271 0 0 327 0 0 353 0 0 402 0 0 455 0 0 551 0 0 637 0 0 723 0 0 2513 0 0 4325 0 0 4510 0 0 4540 0 0 4673 0 0 4638 0 0 4661 0 0 4665 0 0 4709 0 0 4759 0 0 4793 0 0 4853 0 0 4928 0 0 4822 0 0 4858 0 0 4894 0 0 4998 0 0 4788 0 0 4940 0 0 4865 0 0 4963 0 0 4911 0 0 5021 0 0 4908 0 0 4985 0 0 4820 0 0 4901 0 0 4860 0 0 4876 0 0 4778 0 0 4883 0 0 4726 0 0 5009 0 0 4782 0 0 4750 0 0 4595 0 0 4555 0 0 4521 0 0 4413 0 0 4393 0 0 2561 0 0 749 0 0 611 0 0 530 0 0 443 0 0 366 0 0 330 0 0 290 0 0 262 0 0 248 0 0 
107 0 0 236 0 0 273 0 0 295 0 0 347 0 0 392 0 0 412 0 0 517 0 0 640 0 0 691 0 0 2604 0 0 4303 0 0 4461 0 0 4486 0 0 4521 0 0 4757 0 0 4620 0 0 4568 0 0 4761 0 0 4847 0 0 4776 0 0 4734 0 0 4838 0 0 4898 0 0 4833 0 0 4892 0 0 4964 0 0 4897 0 0 5010 0 0 4828 0 0 4900 0 0 4904 0 0 4829 0 0 4898 0 0 4886 0 0 4916 0 0 4982 0 0 4898 0 0 4759 0 0 4774 0 0 4797 0 0 4885 0 0 4752 0 0 4644 0 0 4717 0 0 4663 0 0 4432 0 0 4476 0 0 4406 0 0 4198 0 0 2506 0 0 779 0 0 637 0 0 518 0 0 458 0 0 384 0 0 341 0 0 270 0 0 273 0 0 234 0 0 
91 0 0 237 0 0 260 0 0 289 0 0 322 0 0 380 0 0 445 0 0 552 0 0 620 0 0 749 0 0 2500 0 0 4282 0 0 4423 0 0 4614 0 0 4583 0 0 4675 0 0 4506 0 0 4679 0 0 4665 0 0 4887 0 0 4844 0 0 4811 0 0 4807 0 0 4800 0 0 4970 0 0 4926 0 0 4881 0 0 4753 0 0 4841 0 0 4932 0 0 4862 0 0 4969 0 0 4799 0 0 4826 0 0 4859 0 0 4945 0 0 4911 0 0 4889 0 0 4845 0 0 4686 0 0 4877 0 0 4795 0 0 4766 0 0 4828 0 0 4622 0 0 4610 0 0 4566 0 0 4384 0 0 4436 0 0 4226 0 0 2514 0 0 747 0 0 595 0 0 523 0 0 456 0 0 348 0 0 300 0 0 300 0 0 240 0 0 248 0 0 
101 0 0 227 0 0 266 0 0 290 0 0 345 0 0 382 0 0 447 0 0 479 0 0 598 0 0 715 0 0 2569 0 0 4242 0 0 4359 0 0 4525 0 0 4630 0 0 4674 0 0 4596 0 0 4713 0 0 4712 0 0 4701 0 0 4916 0 0 4836 0 0 4885 0 0 4792 0 0 4713 0 0 4883 0 0 4885 0 0 4885 0 0 4938 0 0 4925 0 0 5022 0 0 4851 0 0 4961 0 0 4951 0 0 5000 0 0 4944 0 0 4887 0 0 4876 0 0 4687 0 0 4918 0 0 4840 0 0 4682 0 0 4621 0 0 4693 0 0 4689 0 0 4695 0 0 4665 0 0 4517 0 0 4360 0 0 4267 0 0 2600 0 0 746 0 0 596 0 0 515 0 0 430 0 0 403 0 0 345 0 0 282 0 0 238 0 0 208 0 0 
97 0 0 227 0 0 214 0 0 299 0 0 327 0 0 361 0 0 459 0 0 504 0 0 617 0 0 759 0 0 2596 0 0 4269 0 0 4428 0 0 4416 0 0 4574 0 0 4536 0 0 4636 0 0 4507 0 0 4740 0 0 4800 0 0 4778 0 0 4652 0 0 4789 0 0 4794 0 0 4920 0 0 4815 0 0 4971 0 0 4829 0 0 4915 0 0 4743 0 0 4843 0 0 4839 0 0 4908 0 0 4787 0 0 4880 0 0 4812 0 0 4928 0 0 5062 0 0 4923 0 0 4832 0 0 4670 0 0 4741 0 0 4755 0 0 4673 0 0 4618 0 0 4548 0 0 4614 0 0 4549 0 0 4369 0 0 4233 0 0 2432 0 0 736 0 0 618 0 0 548 0 0 453 0 0 386 0 0 310 0 0 284 0 0 246 0 0 189 0 0 
98 0 0 198 0 0 251 0 0 304 0 0 317 0 0 344 0 0 427 0 0 542 0 0 607 0 0 784 0 0 2485 0 0 4288 0 0 4438 0 0 4461 0 0 4406 0 0 4609 0 0 4670 0 0 4773 0 0 4700 0 0 4644 0 0 4792 0 0 4896 0 0 4885 0 0 4852 0 0 4844 0 0 4961 0 0 4769 0 0 4894 0 0 4863 0 0 4966 0 0 4799 0 0 4974 0 0 4917 0 0 4814 0 0 4787 0 0 4904 0 0 4831 0 0 4879 0 0 4718 0 0 4834 0 0 4731 0 0 4725 0 0 4831 0 0 4772 0 0 4542 0 0 4648 0 0 4493 0 0 4557 0 0 4459 0 0 4296 0 0 2479 0 0 722 0 0 608 0 0 487 0 0 451 0 0 355 0 0 323 0 0 260 0 0 236 0 0 225 0 0 
98 0 0 227 0 0 240 0 0 250 0 0 310 0 0 336 0 0 392 0 0 512 0 0 574 0 0 673 0 0 2452 0 0 4181 0 0 4339 0 0 4491 0 0 4571 0 0 4675 0 0 4657 0 0 4641 0 0 4628 0 0 4731 0 0 4754 0 0 4742 0 0 4777 0 0 4772 0 0 4828 0 0 4765 0 0 4718 0 0 4884 0 0 4783 0 0 4814 0 0 4852 0 0 4866 0 0 4853 0 0 4941 0 0 4976 0 0 4857 0 0 4806 0 0 4786 0 0 4715 0 0 4785 0 0 4823 0 0 4729 0 0 4815 0 0 4742 0 0 4613 0 0 4597 0 0 4640 0 0 4523 0 0 4372 0 0 4212 0 0 2409 0 0 696 0 0 613 0 0 490 0 0 430 0 0 382 0 0 342 0 0 290 0 0 225 0 0 209 0 0 
85 0 0 179 0 0 243 0 0 283 0 0 304 0 0 361 0 0 428 0 0 514 0 0 613 0 0 717 0 0 2432 0 0 4268 0 0 4386 0 0 4492 0 0 4616 0 0 4621 0 0 4384 0 0 4605 0 0 4631 0 0 4832 0 0 4630 0 0 4721 0 0 4738 0 0 4835 0 0 4746 0 0 4696 0 0 4839 0 0 4845 0 0 4936 0 0 4865 0 0 4840 0 0 4818 0 0 4846 0 0 4758 0 0 4852 0 0 4693 0 0 4803 0 0 4726 0 0 4784 0 0 4752 0 0 4679 0 0 4684 0 0 4782 0 0 4648 0 0 4667 0 0 4617 0 0 4569 0 0 4441 0 0 4284 0 0 4165 0 0 2417 0 0 670 0 0 611 0 0 465 0 0 444 0 0 384 0 0 325 0 0 291 0 0 252 0 0 208 0 0 
92 0 0 211 0 0 262 0 0 281 0 0 313 0 0 364 0 0 400 0 0 519 0 0 559 0 0 714 0 0 2444 0 0 4279 0 0 4375 0 0 4448 0 0 4509 0 0 4508 0 0 4620 0 0 4646 0 0 4584 0 0 4720 0 0 4896 0 0 4825 0 0 4728 0 0 4700 0 0 4744 0 0 4766 0 0 4790 0 0 4768 0 0 4722 0 0 4704 0 0 4735 0 0 4797 0 0 4749 0 0 4891 0 0 4727 0 0 4763 0 0 4725 0 0 4768 0 0 4652 0 0 4583 0 0 4771 0 0 4673 0 0 4625 0 0 4520 0 0 4460 0 0 4589 0 0 4499 0 0 4526 0 0 4244 0 0 4155 0 0 2283 0 0 672 0 0 545 0 0 503 0 0 415 0 0 339 0 0 319 0 0 276 0 0 204 0 0 219 0 0 
90 0 0 209 0 0 231 0 0 271 0 0 286 0 0 347 0 0 408 0 0 497 0 0 509 0 0 645 0 0 2454 0 0 4198 0 0 4360 0 0 4470 0 0 4499 0 0 4509 0 0 4579 0 0 4678 0 0 4615 0 0 4679 0 0 4703 0 0 4632 0 0 4876 0 0 4808 0 0 4568 0 0 4643 0 0 4718 0 0 4828 0 0 4758 0 0 4721 0 0 4744 0 0 4825 0 0 4731 0 0 4657 0 0 4722 0 0 4685 0 0 4811 0 0 4730 0 0 4899 0 0 4639 0 0 4828 0 0 4741 0 0 4629 0 0 4625 0 0 4515 0 0 4596 0 0 4473 0 0 4381 0 0 4295 0 0 4279 0 0 2460 0 0 728 0 0 544 0 0 471 0 0 416 0 0 328 0 0 275 0 0 269 0 0 233 0 0 202 0 0 
92 0 0 185 0 0 203 0 0 258 0 0 306 0 0 329 0 0 380 0 0 413 0 0 525 0 0 619 0 0 2499 0 0 4192 0 0 4313 0 0 4334 0 0 4508 0 0 4502 0 0 4527 0 0 4581 0 0 4690 0 0 4672 0 0 4722 0 0 4687 0 0 4833 0 0 4555 0 0 4645 0 0 4712 0 0 4745 0 0 4730 0 0 4744 0 0 4714 0 0 4731 0 0 4657 0 0 4750 0 0 4811 0 0 4663 0 0 4648 0 0 4721 0 0 4749 0 0 4639 0 0 4689 0 0 4681 0 0 4660 0 0 4551 0 0 4703 0 0 4650 0 0 4549 0 0 4458 0 0 4491 0 0 4154 0 0 4247 0 0 2378 0 0 726 0 0 520 0 0 457 0 0 358 0 0 309 0 0 289 0 0 241 0 0 262 0 0 192 0 0 
83 0 0 189 0 0 227 0 0 250 0 0 286 0 0 288 0 0 406 0 0 437 0 0 519 0 0 624 0 0 2439 0 0 4105 0 0 4213 0 0 4424 0 0 4308 0 0 4560 0 0 4506 0 0 4573 0 0 4591 0 0 4629 0 0 4628 0 0 4566 0 0 4559 0 0 4605 0 0 4589 0 0 4622 0 0 4780 0 0 4615 0 0 4770 0 0 4631 0 0 4738 0 0 4680 0 0 4620 0 0 4635 0 0 4712 0 0 4792 0 0 4564 0 0 4671 0 0 4751 0 0 4746 0 0 4531 0 0 4677 0 0 4573 0 0 4586 0 0 4484 0 0 4498 0 0 4383 0 0 4419 0 0 4340 0 0 4207 0 0 2434 0 0 644 0 0 540 0 0 485 0 0 361 0 0 318 0 0 285 0 0 233 0 0 212 0 0 207 0 0 
83 0 0 178 0 0 212 0 0 236 0 0 275 0 0 319 0 0 351 0 0 409 0 0 518 0 0 670 0 0 2343 0 0 4114 0 0 4239 0 0 4308 0 0 4545 0 0 4445 0 0 4527 0 0 4561 0 0 4478 0 0 4688 0 0 4551 0 0 4533 0 0 4627 0 0 4569 0 0 4628 0 0 4595 0 0 4725 0 0 4751 0 0 4781 0 0 4628 0 0 4683 0 0 4591 0 0 4713 0 0 4655 0 0 4636 0 0 4679 0 0 4704 0 0 4489 0 0 4555 0 0 4706 0 0 4530 0 0 4559 0 0 4592 0 0 4532 0 0 4503 0 0 4558 0 0 4419 0 0 4211 0 0 4269 0 0 4093 0 0 2404 0 0 673 0 0 507 0 0 428 0 0 374 0 0 332 0 0 256 0 0 262 0 0 207 0 0 200 0 0 
74 0 0 180 0 0 194 0 0 241 0 0 237 0 0 280 0 0 333 0 0 410 0 0 483 0 0 556 0 0 2458 0 0 4009 0 0 4326 0 0 4230 0 0 4414 0 0 4379 0 0 4428 0 0 4476 0 0 4470 0 0 4572 0 0 4515 0 0 4453 0 0 4617 0 0 4515 0 0 4623 0 0 4471 0 0 4504 0 0 4620 0 0 4556 0 0 4491 0 0 4608 0 0 4737 0 0 4490 0 0 4651 0 0 4662 0 0 4536 0 0 4485 0 0 4565 0 0 4519 0 0 4712 0 0 4451 0 0 4435 0 0 4575 0 0 4418 0 0 4472 0 0 4340 0 0 4351 0 0 4252 0 0 4202 0 0 4101 0 0 2297 0 0 564 0 0 481 0 0 414 0 0 309 0 0 320 0 0 275 0 0 231 0 0 184 0 0 168 0 0 
87 0 0 163 0 0 175 0 0 225 0 0 256 0 0 295 0 0 305 0 0 380 0 0 446 0 0 532 0 0 2391 0 0 4097 0 0 4127 0 0 4381 0 0 4420 0 0 4266 0 0 4416 0 0 4352 0 0 4579 0 0 4494 0 0 4497 0 0 4522 0 0 4333 0 0 4591 0 0 4484 0 0 4598 0 0 4506 0 0 4515 0 0 4541 0 0 4554 0 0 4538 0 0 4557 0 0 4589 0 0 4535 0 0 4557 0 0 4466 0 0 4428 0 0 4423 0 0 4450 0 0 4467 0 0 4399 0 0 4457 0 0 4439 0 0 4443 0 0 4319 0 0 4370 0 0 4276 0 0 4263 0 0 4101 0 0 3951 0 0 2289 0 0 531 0 0 454 0 0 380 0 0 322 0 0 263 0 0 227 0 0 201 0 0 191 0 0 145 0 0 
65 0 0 168 0 0 183 0 0 198 0 0 230 0 0 278 0 0 299 0 0 346 0 0 425 0 0 514 0 0 2196 0 0 3926 0 0 4213 0 0 4199 0 0 4176 0 0 4205 0 0 4429 0 0 4197 0 0 4262 0 0 4233 0 0 4308 0 0 4417 0 0 4437 0 0 4392 0 0 4405 0 0 4374 0 0 4500 0 0 4416 0 0 4520 0 0 4426 0 0 4549 0 0 4363 0 0 4416 0 0 4368 0 0 4413 0 0 4474 0 0 4366 0 0 4530 0 0 4339 0 0 4421 0 0 4226 0 0 4389 0 0 4344 0 0 4357 0 0 4370 0 0 4404 0 0 4195 0 0 4187 0 0 4254 0 0 3968 0 0 2295 0 0 503 0 0 430 0 0 363 0 0 298 0 0 279 0 0 245 0 0 200 0 0 164 0 0 173 0 0 
73 0 0 147 0 0 183 0 0 176 0 0 225 0 0 268 0 0 299 0 0 318 0 0 413 0 0 459 0 0 2173 0 0 3861 0 0 4002 0 0 3962 0 0 4116 0 0 4040 0 0 4154 0 0 4224 0 0 4281 0 0 4227 0 0 4294 0 0 4327 0 0 4223 0 0 4167 0 0 4282 0 0 4244 0 0 4235 0 0 4310 0 0 4248 0 0 4304 0 0 4308 0 0 4260 0 0 4234 0 0 4234 0 0 4366 0 0 4181 0 0 4181 0 0 4284 0 0 4298 0 0 4241 0 0 4218 0 0 4292 0 0 4257 0 0 4093 0 0 4186 0 0 4119 0 0 4126 0 0 4134 0 0 3993 0 0 3959 0 0 2259 0 0 453 0 0 376 0 0 326 0 0 273 0 0 272 0 0 219 0 0 200 0 0 180 0 0 151 0 0 
67 0 0 143 0 0 158 0 0 188 0 0 190 0 0 221 0 0 266 0 0 307 0 0 360 0 0 429 0 0 1321 0 0 2203 0 0 2210 0 0 2306 0 0 2398 0 0 2441 0 0 2451 0 0 2498 0 0 2441 0 0 2404 0 0 2470 0 0 2457 0 0 2444 0 0 2575 0 0 2469 0 0 2475 0 0 2548 0 0 2517 0 0 2537 0 0 2481 0 0 2568 0 0 2497 0 0 2562 0 0 2551 0 0 2535 0 0 2519 0 0 2462 0 0 2521 0 0 2610 0 0 2495 0 0 2465 0 0 2466 0 0 2562 0 0 2495 0 0 2464 0 0 2371 0 0 2413 0 0 2346 0 0 2167 0 0 2135 0 0 1295 0 0 462 0 0 350 0 0 293 0 0 255 0 0 215 0 0 224 0 0 201 0 0 159 0 0 156 0 0 
64 0 0 147 0 0 153 0 0 172 0 0 214 0 0 217 0 0 232 0 0 284 0 0 337 0 0 351 0 0 419 0 0 488 0 0 502 0 0 572 0 0 607 0 0 599 0 0 681 0 0 661 0 0 700 0 0 690 0 0 711 0 0 707 0 0 727 0 0 743 0 0 782 0 0 734 0 0 757 0 0 746 0 0 769 0 0 778 0 0 758 0 0 777 0 0 702 0 0 727 0 0 766 0 0 790 0 0 701 0 0 756 0 0 699 0 0 682 0 0 719 0 0 653 0 0 685 0 0 699 0 0 616 0 0 622 0 0 580 0 0 540 0 0 568 0 0 490 0 0 451 0 0 375 0 0 289 0 0 260 0 0 251 0 0 210 0 0 199 0 0 164 0 0 167 0 0 134 0 0 
69 0 0 140 0 0 125 0 0 162 0 0 193 0 0 204 0 0 231 0 0 260 0 0 278 0 0 344 0 0 366 0 0 390 0 0 433 0 0 443 0 0 457 0 0 471 0 0 556 0 0 572 0 0 531 0 0 588 0 0 568 0 0 562 0 0 623 0 0 589 0 0 610 0 0 598 0 0 672 0 0 600 0 0 613 0 0 643 0 0 611 0 0 567 0 0 568 0 0 680 0 0 634 0 0 620 0 0 595 0 0 579 0 0 611 0 0 612 0 0 600 0 0 592 0 0 560 0 0 558 0 0 570 0 0 481 0 0 484 0 0 482 0 0 431 0 0 381 0 0 373 0 0 295 0 0 285 0 0 268 0 0 204 0 0 200 0 0 190 0 0 136 0 0 146 0 0 126 0 0 
50 0 0 107 0 0 155 0 0 165 0 0 163 0 0 186 0 0 217 0 0 258 0 0 271 0 0 255 0 0 341 0 0 324 0 0 314 0 0 390 0 0 402 0 0 425 0 0 448 0 0 486 0 0 463 0 0 463 0 0 459 0 0 501 0 0 509 0 0 541 0 0 548 0 0 493 0 0 526 0 0 520 0 0 527 0 0 529 0 0 524 0 0 575 0 0 510 0 0 550 0 0 575 0 0 546 0 0 518 0 0 510 0 0 476 0 0 464 0 0 502 0 0 460 0 0 459 0 0 520 0 0 445 0 0 418 0 0 433 0 0 379 0 0 351 0 0 323 0 0 324 0 0 257 0 0 250 0 0 223 0 0 219 0 0 206 0 0 166 0 0 174 0 0 138 0 0 121 0 0 
52 0 0 113 0 0 141 0 0 130 0 0 134 0 0 165 0 0 186 0 0 223 0 0 239 0 0 239 0 0 259 0 0 315 0 0 346 0 0 354 0 0 335 0 0 364 0 0 358 0 0 332 0 0 388 0 0 414 0 0 409 0 0 464 0 0 437 0 0 460 0 0 416 0 0 440 0 0 462 0 0 423 0 0 446 0 0 434 0 0 423 0 0 457 0 0 492 0 0 430 0 0 454 0 0 445 0 0 448 0 0 410 0 0 431 0 0 399 0 0 399 0 0 418 0 0 398 0 0 358 0 0 374 0 0 375 0 0 355 0 0 358 0 0 306 0 0 299 0 0 242 0 0 221 0 0 225 0 0 188 0 0 186 0 0 161 0 0 161 0 0 151 0 0 130 0 0 110 0 0 
60 0 0 104 0 0 111 0 0 132 0 0 131 0 0 184 0 0 159 0 0 156 0 0 217 0 0 224 0 0 246 0 0 239 0 0 280 0 0 265 0 0 330 0 0 312 0 0 299 0 0 354 0 0 355 0 0 352 0 0 358 0 0 372 0 0 380 0 0 377 0 0 380 0 0 353 0 0 365 0 0 400 0 0 373 0 0 400 0 0 426 0 0 408 0 0 402 0 0 419 0 0 372 0 0 379 0 0 382 0 0 352 0 0 402 0 0 380 0 0 350 0 0 378 0 0 324 0 0 368 0 0 337 0 0 311 0 0 320 0 0 256 0 0 252 0 0 235 0 0 240 0 0 212 0 0 172 0 0 185 0 0 166 0 0 157 0 0 135 0 0 105 0 0 113 0 0 112 0 0 
44 0 0 113 0 0 92 0 0 128 0 0 109 0 0 135 0 0 140 0 0 158 0 0 157 0 0 186 0 0 223 0 0 237 0 0 240 0 0 263 0 0 257 0 0 272 0 0 307 0 0 320 0 0 281 0 0 273 0 0 312 0 0 334 0 0 291 0 0 326 0 0 306 0 0 344 0 0 336 0 0 339 0 0 372 0 0 361 0 0 362 0 0 301 0 0 334 0 0 334 0 0 342 0 0 322 0 0 323 0 0 346 0 0 313 0 0 332 0 0 325 0 0 282 0 0 324 0 0 293 0 0 291 0 0 268 0 0 257 0 0 230 0 0 249 0 0 232 0 0 190 0 0 183 0 0 166 0 0 164 0 0 158 0 0 129 0 0 115 0 0 133 0 0 104 0 0 120 0 0 
51 0 0 89 0 0 94 0 0 118 0 0 122 0 0 124 0 0 127 0 0 142 0 0 167 0 0 180 0 0 215 0 0 189 0 0 207 0 0 228 0 0 218 0 0 239 0 0 239 0 0 282 0 0 253 0 0 308 0 0 290 0 0 290 0 0 273 0 0 259 0 0 268 0 0 269 0 0 335 0 0 292 0 0 302 0 0 292 0 0 320 0 0 288 0 0 305 0 0 322 0 0 273 0 0 289 0 0 298 0 0 272 0 0 276 0 0 289 0 0 266 0 0 268 0 0 254 0 0 258 0 0 211 0 0 231 0 0 241 0 0 223 0 0 203 0 0 192 0 0 177 0 0 183 0 0 155 0 0 168 0 0 161 0 0 120 0 0 117 0 0 84 0 0 95 0 0 84 0 0 
38 0 0 71 0 0 78 0 0 93 0 0 115 0 0 130 0 0 125 0 0 130 0 0 148 0 0 168 0 0 166 0 0 187 0 0 168 0 0 206 0 0 199 0 0 207 0 0 198 0 0 220 0 0 213 0 0 248 0 0 258 0 0 243 0 0 267 0 0 259 0 0 286 0 0 273 0 0 259 0 0 290 0 0 252 0 0 246 0 0 242 0 0 274 0 0 270 0 0 271 0 0 253 0 0 268 0 0 246 0 0 260 0 0 262 0 0 222 0 0 210 0 0 221 0 0 217 0 0 237 0 0 191 0 0 202 0 0 208 0 0 165 0 0 190 0 0 149 0 0 190 0 0 170 0 0 157 0 0 138 0 0 136 0 0 125 0 0 111 0 0 96 0 0 107 0 0 80 0 0 
43 0 0 88 0 0 90 0 0 98 0 0 95 0 0 109 0 0 126 0 0 135 0 0 134 0 0 162 0 0 138 0 0 164 0 0 199 0 0 184 0 0 151 0 0 200 0 0 188 0 0 170 0 0 194 0 0 204 0 0 174 0 0 228 0 0 232 0 0 204 0 0 239 0 0 225 0 0 226 0 0 238 0 0 218 0 0 219 0 0 231 0 0 212 0 0 220 0 0 217 0 0 201 0 0 228 0 0 229 0 0 237 0 0 225 0 0 234 0 0 212 0 0 199 0 0 215 0 0 183 0 0 218 0 0 182 0 0 174 0 0 146 0 0 157 0 0 158 0 0 167 0 0 136 0 0 127 0 0 131 0 0 97 0 0 117 0 0 106 0 0 92 0 0 94 0 0 85 0 0 
