P3
# This is a dose file slice at depth 24 of 100
60 60
# now we give the maximum value of the RGB coordinates.
5550
26 0 0 62 0 0 48 0 0 55 0 0 58 0 0 75 0 0 64 0 0 68 0 0 64 0 0 92 0 0 79 0 0 100 0 0 104 0 0 115 0 0 113 0 0 116 0 0 107 0 0 107 0 0 111 0 0 140 0 0 133 0 0 145 0 0 130 0 0 143 0 0 142 0 0 146 0 0 124 0 0 156 0 0 137 0 0 157 0 0 160 0 0 163 0 0 127 0 0 150 0 0 154 0 0 134 0 0 169 0 0 147 0 0 150 0 0 123 0 0 157 0 0 146 0 0 119 0 0 106 0 0 131 0 0 130 0 0 106 0 0 104 0 0 111 0 0 106 0 0 104 0 0 87 0 0 63 0 0 70 0 0 75 0 0 46 0 0 59 0 0 65 0 0 71 0 0 55 0 0 
51 0 0 107 0 0 112 0 0 120 0 0 129 0 0 152 0 0 157 0 0 172 0 0 184 0 0 188 0 0 194 0 0 214 0 0 218 0 0 233 0 0 263 0 0 265 0 0 254 0 0 254 0 0 263 0 0 273 0 0 279 0 0 321 0 0 297 0 0 279 0 0 320 0 0 262 0 0 316 0 0 332 0 0 293 0 0 332 0 0 324 0 0 316 0 0 341 0 0 353 0 0 287 0 0 288 0 0 319 0 0 330 0 0 305 0 0 330 0 0 281 0 0 291 0 0 273 0 0 242 0 0 264 0 0 275 0 0 238 0 0 242 0 0 254 0 0 203 0 0 188 0 0 187 0 0 183 0 0 162 0 0 162 0 0 153 0 0 135 0 0 131 0 0 126 0 0 117 0 0 
50 0 0 108 0 0 125 0 0 142 0 0 143 0 0 155 0 0 156 0 0 175 0 0 219 0 0 215 0 0 216 0 0 237 0 0 247 0 0 288 0 0 308 0 0 292 0 0 304 0 0 290 0 0 292 0 0 311 0 0 331 0 0 349 0 0 325 0 0 339 0 0 318 0 0 356 0 0 373 0 0 344 0 0 366 0 0 364 0 0 338 0 0 363 0 0 354 0 0 361 0 0 355 0 0 334 0 0 357 0 0 341 0 0 317 0 0 343 0 0 332 0 0 346 0 0 338 0 0 289 0 0 297 0 0 280 0 0 247 0 0 263 0 0 256 0 0 236 0 0 217 0 0 191 0 0 185 0 0 182 0 0 168 0 0 161 0 0 134 0 0 162 0 0 124 0 0 116 0 0 
69 0 0 135 0 0 126 0 0 157 0 0 163 0 0 192 0 0 193 0 0 217 0 0 229 0 0 229 0 0 233 0 0 255 0 0 281 0 0 301 0 0 289 0 0 306 0 0 315 0 0 305 0 0 344 0 0 348 0 0 386 0 0 360 0 0 354 0 0 410 0 0 416 0 0 378 0 0 371 0 0 376 0 0 370 0 0 397 0 0 378 0 0 388 0 0 390 0 0 369 0 0 381 0 0 356 0 0 393 0 0 380 0 0 371 0 0 361 0 0 346 0 0 327 0 0 353 0 0 302 0 0 306 0 0 302 0 0 307 0 0 283 0 0 283 0 0 253 0 0 226 0 0 250 0 0 201 0 0 187 0 0 187 0 0 191 0 0 138 0 0 165 0 0 137 0 0 118 0 0 
65 0 0 129 0 0 164 0 0 181 0 0 182 0 0 196 0 0 186 0 0 216 0 0 236 0 0 238 0 0 251 0 0 292 0 0 300 0 0 326 0 0 335 0 0 342 0 0 380 0 0 399 0 0 367 0 0 396 0 0 434 0 0 411 0 0 456 0 0 427 0 0 408 0 0 439 0 0 441 0 0 429 0 0 426 0 0 436 0 0 417 0 0 446 0 0 429 0 0 428 0 0 417 0 0 437 0 0 440 0 0 409 0 0 415 0 0 400 0 0 414 0 0 369 0 0 412 0 0 364 0 0 378 0 0 347 0 0 330 0 0 304 0 0 316 0 0 277 0 0 303 0 0 243 0 0 225 0 0 233 0 0 207 0 0 190 0 0 169 0 0 182 0 0 156 0 0 164 0 0 
71 0 0 145 0 0 169 0 0 188 0 0 193 0 0 209 0 0 234 0 0 218 0 0 260 0 0 267 0 0 300 0 0 307 0 0 385 0 0 369 0 0 353 0 0 377 0 0 380 0 0 412 0 0 433 0 0 432 0 0 431 0 0 466 0 0 493 0 0 458 0 0 494 0 0 476 0 0 537 0 0 519 0 0 520 0 0 488 0 0 524 0 0 466 0 0 470 0 0 458 0 0 509 0 0 491 0 0 479 0 0 493 0 0 450 0 0 517 0 0 473 0 0 460 0 0 399 0 0 434 0 0 430 0 0 392 0 0 378 0 0 313 0 0 336 0 0 320 0 0 287 0 0 295 0 0 238 0 0 250 0 0 234 0 0 193 0 0 191 0 0 164 0 0 144 0 0 147 0 0 
68 0 0 131 0 0 161 0 0 185 0 0 197 0 0 222 0 0 227 0 0 253 0 0 279 0 0 306 0 0 326 0 0 331 0 0 421 0 0 378 0 0 428 0 0 491 0 0 436 0 0 475 0 0 509 0 0 507 0 0 520 0 0 577 0 0 523 0 0 573 0 0 546 0 0 551 0 0 557 0 0 585 0 0 565 0 0 626 0 0 534 0 0 563 0 0 536 0 0 535 0 0 538 0 0 543 0 0 507 0 0 573 0 0 512 0 0 511 0 0 528 0 0 509 0 0 465 0 0 455 0 0 466 0 0 460 0 0 428 0 0 381 0 0 382 0 0 362 0 0 328 0 0 311 0 0 305 0 0 267 0 0 238 0 0 256 0 0 204 0 0 191 0 0 161 0 0 185 0 0 
62 0 0 167 0 0 181 0 0 186 0 0 215 0 0 249 0 0 252 0 0 296 0 0 302 0 0 384 0 0 358 0 0 434 0 0 429 0 0 470 0 0 481 0 0 497 0 0 559 0 0 532 0 0 550 0 0 592 0 0 615 0 0 592 0 0 562 0 0 616 0 0 609 0 0 627 0 0 682 0 0 640 0 0 669 0 0 629 0 0 599 0 0 647 0 0 633 0 0 611 0 0 659 0 0 648 0 0 603 0 0 622 0 0 605 0 0 565 0 0 599 0 0 583 0 0 536 0 0 585 0 0 521 0 0 518 0 0 490 0 0 468 0 0 434 0 0 444 0 0 382 0 0 346 0 0 327 0 0 304 0 0 270 0 0 244 0 0 202 0 0 190 0 0 186 0 0 163 0 0 
78 0 0 157 0 0 183 0 0 236 0 0 246 0 0 245 0 0 327 0 0 331 0 0 319 0 0 377 0 0 444 0 0 500 0 0 489 0 0 552 0 0 561 0 0 637 0 0 614 0 0 637 0 0 616 0 0 638 0 0 699 0 0 698 0 0 669 0 0 740 0 0 688 0 0 705 0 0 718 0 0 725 0 0 727 0 0 752 0 0 772 0 0 736 0 0 724 0 0 745 0 0 696 0 0 739 0 0 712 0 0 721 0 0 677 0 0 675 0 0 657 0 0 702 0 0 652 0 0 646 0 0 615 0 0 572 0 0 584 0 0 547 0 0 512 0 0 466 0 0 430 0 0 382 0 0 342 0 0 305 0 0 308 0 0 237 0 0 218 0 0 207 0 0 171 0 0 175 0 0 
90 0 0 187 0 0 206 0 0 231 0 0 263 0 0 272 0 0 328 0 0 337 0 0 375 0 0 433 0 0 546 0 0 579 0 0 577 0 0 595 0 0 670 0 0 717 0 0 773 0 0 700 0 0 798 0 0 752 0 0 757 0 0 793 0 0 796 0 0 846 0 0 830 0 0 856 0 0 869 0 0 909 0 0 825 0 0 817 0 0 915 0 0 843 0 0 849 0 0 851 0 0 837 0 0 834 0 0 865 0 0 770 0 0 852 0 0 755 0 0 820 0 0 778 0 0 733 0 0 768 0 0 716 0 0 680 0 0 727 0 0 602 0 0 558 0 0 536 0 0 479 0 0 429 0 0 357 0 0 321 0 0 343 0 0 294 0 0 234 0 0 230 0 0 196 0 0 181 0 0 
93 0 0 211 0 0 224 0 0 226 0 0 296 0 0 303 0 0 357 0 0 389 0 0 422 0 0 470 0 0 1095 0 0 1788 0 0 1800 0 0 1891 0 0 1970 0 0 1934 0 0 2096 0 0 2057 0 0 2073 0 0 2105 0 0 2182 0 0 2101 0 0 2169 0 0 2283 0 0 2234 0 0 2233 0 0 2206 0 0 2142 0 0 2173 0 0 2178 0 0 2170 0 0 2108 0 0 2071 0 0 2175 0 0 2139 0 0 2167 0 0 2206 0 0 2125 0 0 2116 0 0 2144 0 0 2143 0 0 2121 0 0 2136 0 0 2143 0 0 1985 0 0 2006 0 0 1956 0 0 2064 0 0 1873 0 0 1859 0 0 1157 0 0 488 0 0 400 0 0 381 0 0 344 0 0 302 0 0 277 0 0 240 0 0 226 0 0 177 0 0 
109 0 0 204 0 0 215 0 0 241 0 0 296 0 0 345 0 0 326 0 0 447 0 0 482 0 0 489 0 0 1760 0 0 3179 0 0 3224 0 0 3251 0 0 3322 0 0 3225 0 0 3465 0 0 3431 0 0 3476 0 0 3367 0 0 3419 0 0 3459 0 0 3474 0 0 3355 0 0 3418 0 0 3389 0 0 3436 0 0 3488 0 0 3579 0 0 3476 0 0 3546 0 0 3531 0 0 3451 0 0 3494 0 0 3537 0 0 3535 0 0 3460 0 0 3379 0 0 3524 0 0 3457 0 0 3373 0 0 3489 0 0 3441 0 0 3386 0 0 3340 0 0 3313 0 0 3283 0 0 3189 0 0 3098 0 0 3062 0 0 1743 0 0 556 0 0 432 0 0 422 0 0 357 0 0 329 0 0 271 0 0 281 0 0 236 0 0 203 0 0 
98 0 0 214 0 0 227 0 0 279 0 0 288 0 0 336 0 0 370 0 0 419 0 0 543 0 0 611 0 0 1902 0 0 3275 0 0 3300 0 0 3393 0 0 3399 0 0 3508 0 0 3436 0 0 3543 0 0 3590 0 0 3644 0 0 3464 0 0 3553 0 0 3623 0 0 3553 0 0 3675 0 0 3538 0 0 3619 0 0 3694 0 0 3602 0 0 3702 0 0 3653 0 0 3633 0 0 3628 0 0 3636 0 0 3615 0 0 3640 0 0 3666 0 0 3635 0 0 3647 0 0 3685 0 0 3586 0 0 3636 0 0 3556 0 0 3521 0 0 3471 0 0 3455 0 0 3406 0 0 3293 0 0 3300 0 0 3184 0 0 1937 0 0 577 0 0 505 0 0 420 0 0 388 0 0 364 0 0 286 0 0 248 0 0 220 0 0 231 0 0 
126 0 0 219 0 0 253 0 0 293 0 0 331 0 0 345 0 0 406 0 0 488 0 0 544 0 0 655 0 0 1986 0 0 3204 0 0 3466 0 0 3409 0 0 3474 0 0 3522 0 0 3716 0 0 3664 0 0 3551 0 0 3759 0 0 3597 0 0 3691 0 0 3513 0 0 3746 0 0 3719 0 0 3853 0 0 3750 0 0 3748 0 0 3759 0 0 3754 0 0 3725 0 0 3802 0 0 3721 0 0 3770 0 0 3699 0 0 3730 0 0 3607 0 0 3592 0 0 3676 0 0 3630 0 0 3715 0 0 3681 0 0 3478 0 0 3658 0 0 3514 0 0 3494 0 0 3457 0 0 3361 0 0 3457 0 0 3327 0 0 1943 0 0 633 0 0 527 0 0 487 0 0 432 0 0 353 0 0 320 0 0 306 0 0 269 0 0 237 0 0 
103 0 0 248 0 0 254 0 0 308 0 0 338 0 0 352 0 0 443 0 0 473 0 0 560 0 0 712 0 0 2000 0 0 3221 0 0 3376 0 0 3429 0 0 3479 0 0 3555 0 0 3643 0 0 3698 0 0 3591 0 0 3656 0 0 3756 0 0 3777 0 0 3810 0 0 3722 0 0 3815 0 0 3831 0 0 3884 0 0 3824 0 0 3735 0 0 3798 0 0 3857 0 0 3866 0 0 3780 0 0 3860 0 0 3759 0 0 3830 0 0 3710 0 0 3775 0 0 3691 0 0 3712 0 0 3691 0 0 3675 0 0 3822 0 0 3624 0 0 3499 0 0 3560 0 0 3414 0 0 3403 0 0 3444 0 0 3278 0 0 1931 0 0 716 0 0 551 0 0 502 0 0 437 0 0 427 0 0 332 0 0 276 0 0 261 0 0 253 0 0 
121 0 0 244 0 0 275 0 0 303 0 0 386 0 0 416 0 0 463 0 0 531 0 0 594 0 0 755 0 0 2031 0 0 3334 0 0 3378 0 0 3555 0 0 3451 0 0 3603 0 0 3706 0 0 3670 0 0 3824 0 0 3669 0 0 3647 0 0 3796 0 0 3866 0 0 3733 0 0 3701 0 0 3754 0 0 3876 0 0 3849 0 0 3930 0 0 3889 0 0 3895 0 0 3753 0 0 3934 0 0 3934 0 0 3788 0 0 3929 0 0 3756 0 0 3826 0 0 3800 0 0 3876 0 0 3757 0 0 3710 0 0 3691 0 0 3719 0 0 3807 0 0 3645 0 0 3601 0 0 3598 0 0 3394 0 0 3369 0 0 2034 0 0 740 0 0 615 0 0 502 0 0 453 0 0 410 0 0 384 0 0 345 0 0 299 0 0 269 0 0 
117 0 0 282 0 0 269 0 0 333 0 0 350 0 0 387 0 0 456 0 0 517 0 0 593 0 0 725 0 0 2021 0 0 3424 0 0 3376 0 0 3417 0 0 3597 0 0 3556 0 0 3709 0 0 3721 0 0 3827 0 0 3716 0 0 3936 0 0 3831 0 0 3965 0 0 3824 0 0 3834 0 0 3829 0 0 4006 0 0 3805 0 0 4051 0 0 3958 0 0 3867 0 0 3861 0 0 3923 0 0 3947 0 0 3856 0 0 3933 0 0 3898 0 0 3896 0 0 3775 0 0 3822 0 0 3760 0 0 3811 0 0 3850 0 0 3883 0 0 3643 0 0 3728 0 0 3604 0 0 3513 0 0 3588 0 0 3421 0 0 2008 0 0 729 0 0 591 0 0 538 0 0 518 0 0 401 0 0 371 0 0 334 0 0 272 0 0 278 0 0 
133 0 0 278 0 0 315 0 0 325 0 0 331 0 0 425 0 0 487 0 0 528 0 0 639 0 0 726 0 0 2119 0 0 3468 0 0 3520 0 0 3693 0 0 3644 0 0 3713 0 0 3833 0 0 3739 0 0 3915 0 0 3824 0 0 3810 0 0 3894 0 0 4018 0 0 3909 0 0 3942 0 0 3929 0 0 3957 0 0 3923 0 0 3884 0 0 4038 0 0 4005 0 0 3850 0 0 3964 0 0 3894 0 0 3945 0 0 4012 0 0 3830 0 0 3947 0 0 3943 0 0 3874 0 0 3944 0 0 3883 0 0 3897 0 0 3860 0 0 3786 0 0 3694 0 0 3603 0 0 3501 0 0 3498 0 0 3363 0 0 2004 0 0 713 0 0 609 0 0 527 0 0 481 0 0 469 0 0 397 0 0 311 0 0 309 0 0 259 0 0 
119 0 0 273 0 0 342 0 0 333 0 0 375 0 0 438 0 0 502 0 0 585 0 0 652 0 0 757 0 0 2060 0 0 3334 0 0 3556 0 0 3680 0 0 3635 0 0 3675 0 0 3818 0 0 3805 0 0 3950 0 0 3849 0 0 3806 0 0 3937 0 0 3953 0 0 3842 0 0 4050 0 0 3991 0 0 4082 0 0 3860 0 0 4013 0 0 3956 0 0 4070 0 0 4110 0 0 4096 0 0 4043 0 0 3887 0 0 3903 0 0 3961 0 0 3996 0 0 3922 0 0 3956 0 0 3970 0 0 3846 0 0 3859 0 0 3828 0 0 3698 0 0 3712 0 0 3672 0 0 3567 0 0 3513 0 0 3405 0 0 2095 0 0 741 0 0 665 0 0 565 0 0 479 0 0 414 0 0 404 0 0 358 0 0 282 0 0 268 0 0 
123 0 0 260 0 0 301 0 0 377 0 0 414 0 0 446 0 0 526 0 0 587 0 0 650 0 0 824 0 0 2163 0 0 3463 0 0 3510 0 0 3625 0 0 3675 0 0 3693 0 0 3778 0 0 3900 0 0 3888 0 0 3982 0 0 4033 0 0 3954 0 0 3959 0 0 4098 0 0 4084 0 0 3905 0 0 3982 0 0 3990 0 0 4132 0 0 4053 0 0 4144 0 0 4088 0 0 4054 0 0 3927 0 0 4036 0 0 4080 0 0 3990 0 0 3981 0 0 4084 0 0 3880 0 0 3838 0 0 3909 0 0 3833 0 0 3895 0 0 3794 0 0 3715 0 0 3628 0 0 3654 0 0 3559 0 0 3452 0 0 2117 0 0 763 0 0 692 0 0 576 0 0 522 0 0 484 0 0 399 0 0 348 0 0 333 0 0 285 0 0 
107 0 0 301 0 0 342 0 0 357 0 0 400 0 0 444 0 0 436 0 0 585 0 0 667 0 0 800 0 0 2033 0 0 3409 0 0 3585 0 0 3755 0 0 3691 0 0 3763 0 0 3823 0 0 3902 0 0 3892 0 0 4070 0 0 3976 0 0 3932 0 0 4048 0 0 4034 0 0 4087 0 0 4010 0 0 4006 0 0 4065 0 0 4037 0 0 4037 0 0 4241 0 0 4181 0 0 3979 0 0 4141 0 0 3979 0 0 3979 0 0 4116 0 0 3975 0 0 4117 0 0 3954 0 0 3979 0 0 3880 0 0 3910 0 0 3896 0 0 3897 0 0 3799 0 0 3743 0 0 3629 0 0 3556 0 0 3388 0 0 2111 0 0 792 0 0 663 0 0 576 0 0 538 0 0 420 0 0 408 0 0 380 0 0 343 0 0 298 0 0 
150 0 0 320 0 0 308 0 0 337 0 0 402 0 0 514 0 0 553 0 0 637 0 0 669 0 0 816 0 0 2124 0 0 3535 0 0 3643 0 0 3653 0 0 3630 0 0 3776 0 0 3865 0 0 3802 0 0 3870 0 0 3981 0 0 3917 0 0 4031 0 0 4083 0 0 4037 0 0 4008 0 0 3943 0 0 4089 0 0 4100 0 0 4028 0 0 4032 0 0 4126 0 0 4090 0 0 4039 0 0 3977 0 0 4116 0 0 4081 0 0 4135 0 0 4106 0 0 4034 0 0 3950 0 0 3991 0 0 3893 0 0 3866 0 0 3960 0 0 3829 0 0 3766 0 0 3679 0 0 3703 0 0 3625 0 0 3428 0 0 2106 0 0 809 0 0 707 0 0 599 0 0 501 0 0 507 0 0 414 0 0 361 0 0 338 0 0 290 0 0 
139 0 0 294 0 0 377 0 0 381 0 0 455 0 0 465 0 0 525 0 0 596 0 0 725 0 0 811 0 0 2189 0 0 3402 0 0 3601 0 0 3768 0 0 3768 0 0 3797 0 0 3868 0 0 3998 0 0 3853 0 0 4062 0 0 4094 0 0 4123 0 0 4124 0 0 4171 0 0 3946 0 0 4183 0 0 3957 0 0 4142 0 0 4107 0 0 4125 0 0 4172 0 0 4090 0 0 4216 0 0 4037 0 0 4131 0 0 4137 0 0 4005 0 0 4125 0 0 4066 0 0 3988 0 0 4084 0 0 3890 0 0 3922 0 0 3960 0 0 3764 0 0 3836 0 0 3703 0 0 3633 0 0 3622 0 0 3495 0 0 2151 0 0 794 0 0 722 0 0 594 0 0 522 0 0 481 0 0 400 0 0 396 0 0 307 0 0 282 0 0 
130 0 0 261 0 0 370 0 0 400 0 0 429 0 0 467 0 0 530 0 0 666 0 0 667 0 0 788 0 0 2093 0 0 3465 0 0 3613 0 0 3712 0 0 3733 0 0 3840 0 0 3966 0 0 3885 0 0 4045 0 0 4010 0 0 4047 0 0 4053 0 0 4083 0 0 4005 0 0 4173 0 0 4204 0 0 4129 0 0 4144 0 0 4086 0 0 4127 0 0 4014 0 0 4154 0 0 4184 0 0 4190 0 0 4074 0 0 4089 0 0 4209 0 0 4068 0 0 4112 0 0 4133 0 0 4078 0 0 3980 0 0 3867 0 0 3899 0 0 3859 0 0 3845 0 0 3734 0 0 3617 0 0 3539 0 0 3461 0 0 2147 0 0 846 0 0 692 0 0 606 0 0 504 0 0 483 0 0 446 0 0 354 0 0 326 0 0 288 0 0 
124 0 0 324 0 0 361 0 0 401 0 0 436 0 0 516 0 0 554 0 0 700 0 0 717 0 0 823 0 0 2167 0 0 3364 0 0 3520 0 0 3761 0 0 3717 0 0 3851 0 0 3954 0 0 3897 0 0 3993 0 0 4011 0 0 3904 0 0 4040 0 0 4028 0 0 3980 0 0 4054 0 0 4092 0 0 4190 0 0 3921 0 0 4118 0 0 4179 0 0 4246 0 0 4193 0 0 4106 0 0 4204 0 0 4057 0 0 3974 0 0 4277 0 0 4111 0 0 3983 0 0 4029 0 0 4212 0 0 3992 0 0 3970 0 0 3977 0 0 3911 0 0 3897 0 0 3738 0 0 3679 0 0 3536 0 0 3378 0 0 2094 0 0 790 0 0 666 0 0 632 0 0 557 0 0 435 0 0 441 0 0 390 0 0 323 0 0 302 0 0 
124 0 0 294 0 0 351 0 0 396 0 0 426 0 0 479 0 0 571 0 0 633 0 0 693 0 0 792 0 0 2172 0 0 3397 0 0 3593 0 0 3687 0 0 3724 0 0 3899 0 0 3845 0 0 3880 0 0 4087 0 0 4082 0 0 4071 0 0 4047 0 0 4175 0 0 4063 0 0 4222 0 0 4120 0 0 4118 0 0 4232 0 0 4025 0 0 4157 0 0 4209 0 0 4124 0 0 4075 0 0 4070 0 0 4275 0 0 4191 0 0 3981 0 0 4047 0 0 4072 0 0 4026 0 0 3943 0 0 4084 0 0 3955 0 0 4030 0 0 3949 0 0 3873 0 0 3778 0 0 3886 0 0 3554 0 0 3498 0 0 2220 0 0 815 0 0 707 0 0 622 0 0 499 0 0 471 0 0 469 0 0 382 0 0 320 0 0 315 0 0 
117 0 0 276 0 0 370 0 0 400 0 0 472 0 0 511 0 0 589 0 0 642 0 0 698 0 0 853 0 0 2106 0 0 3532 0 0 3602 0 0 3714 0 0 3818 0 0 3898 0 0 3820 0 0 3897 0 0 3959 0 0 3984 0 0 4089 0 0 4105 0 0 4155 0 0 4073 0 0 4202 0 0 4340 0 0 4193 0 0 4185 0 0 4230 0 0 4165 0 0 4048 0 0 4131 0 0 4333 0 0 4174 0 0 4130 0 0 4174 0 0 4095 0 0 4183 0 0 4140 0 0 4035 0 0 4050 0 0 4048 0 0 3913 0 0 3975 0 0 4024 0 0 3883 0 0 3786 0 0 3623 0 0 3618 0 0 3544 0 0 2154 0 0 873 0 0 670 0 0 652 0 0 583 0 0 538 0 0 446 0 0 384 0 0 372 0 0 328 0 0 
128 0 0 310 0 0 383 0 0 416 0 0 438 0 0 486 0 0 570 0 0 651 0 0 732 0 0 860 0 0 2128 0 0 3565 0 0 3526 0 0 3764 0 0 3676 0 0 3873 0 0 3852 0 0 3985 0 0 4002 0 0 4146 0 0 4026 0 0 4057 0 0 4068 0 0 4147 0 0 4159 0 0 4173 0 0 4050 0 0 4090 0 0 4148 0 0 4161 0 0 4187 0 0 4092 0 0 4101 0 0 4271 0 0 4172 0 0 4272 0 0 4135 0 0 4254 0 0 4051 0 0 4098 0 0 4027 0 0 4066 0 0 3970 0 0 4011 0 0 3878 0 0 3909 0 0 3820 0 0 3736 0 0 3671 0 0 3516 0 0 2271 0 0 867 0 0 720 0 0 635 0 0 544 0 0 451 0 0 437 0 0 400 0 0 321 0 0 292 0 0 
160 0 0 324 0 0 335 0 0 375 0 0 416 0 0 511 0 0 578 0 0 673 0 0 783 0 0 916 0 0 2160 0 0 3475 0 0 3683 0 0 3664 0 0 3820 0 0 3926 0 0 3900 0 0 3969 0 0 3957 0 0 4059 0 0 4102 0 0 4122 0 0 4102 0 0 4072 0 0 4192 0 0 4183 0 0 4212 0 0 4180 0 0 4214 0 0 4166 0 0 4157 0 0 4066 0 0 4205 0 0 4208 0 0 4240 0 0 4156 0 0 4146 0 0 4020 0 0 4058 0 0 4051 0 0 4078 0 0 4124 0 0 4041 0 0 3932 0 0 3920 0 0 3906 0 0 3800 0 0 3632 0 0 3688 0 0 3544 0 0 2157 0 0 829 0 0 728 0 0 610 0 0 544 0 0 505 0 0 444 0 0 380 0 0 343 0 0 311 0 0 
144 0 0 341 0 0 354 0 0 406 0 0 423 0 0 502 0 0 530 0 0 580 0 0 703 0 0 807 0 0 2196 0 0 3592 0 0 3581 0 0 3796 0 0 3786 0 0 3945 0 0 3836 0 0 3948 0 0 4105 0 0 3960 0 0 4172 0 0 3988 0 0 4149 0 0 4117 0 0 4086 0 0 4349 0 0 4093 0 0 4138 0 0 4237 0 0 4240 0 0 4076 0 0 4129 0 0 4206 0 0 4178 0 0 4205 0 0 4140 0 0 4113 0 0 4219 0 0 4153 0 0 4155 0 0 4075 0 0 3993 0 0 3915 0 0 4044 0 0 3900 0 0 3793 0 0 3853 0 0 3787 0 0 3508 0 0 3464 0 0 2218 0 0 897 0 0 732 0 0 648 0 0 553 0 0 508 0 0 468 0 0 364 0 0 314 0 0 317 0 0 
141 0 0 296 0 0 333 0 0 410 0 0 445 0 0 506 0 0 577 0 0 631 0 0 697 0 0 808 0 0 2154 0 0 3414 0 0 3613 0 0 3675 0 0 3751 0 0 3813 0 0 3869 0 0 3902 0 0 3986 0 0 3996 0 0 4128 0 0 4055 0 0 4156 0 0 4056 0 0 4125 0 0 4255 0 0 4171 0 0 4243 0 0 4073 0 0 4169 0 0 4228 0 0 4079 0 0 4198 0 0 4186 0 0 4130 0 0 4074 0 0 4220 0 0 3986 0 0 4004 0 0 4141 0 0 4127 0 0 4034 0 0 3927 0 0 4002 0 0 3947 0 0 3784 0 0 3709 0 0 3676 0 0 3748 0 0 3477 0 0 2133 0 0 839 0 0 752 0 0 609 0 0 622 0 0 513 0 0 409 0 0 428 0 0 338 0 0 313 0 0 
129 0 0 315 0 0 356 0 0 393 0 0 427 0 0 493 0 0 581 0 0 635 0 0 735 0 0 887 0 0 2212 0 0 3501 0 0 3796 0 0 3736 0 0 3711 0 0 3907 0 0 3851 0 0 3917 0 0 3980 0 0 4030 0 0 4008 0 0 4119 0 0 4156 0 0 4113 0 0 4156 0 0 4201 0 0 4116 0 0 4235 0 0 4209 0 0 4224 0 0 4001 0 0 4176 0 0 4169 0 0 4098 0 0 4127 0 0 4070 0 0 4165 0 0 4214 0 0 4072 0 0 4026 0 0 3915 0 0 4110 0 0 3975 0 0 3907 0 0 3901 0 0 3827 0 0 3735 0 0 3707 0 0 3563 0 0 3542 0 0 2291 0 0 855 0 0 765 0 0 673 0 0 558 0 0 522 0 0 429 0 0 414 0 0 381 0 0 312 0 0 
151 0 0 323 0 0 386 0 0 379 0 0 406 0 0 475 0 0 585 0 0 638 0 0 753 0 0 855 0 0 2069 0 0 3543 0 0 3557 0 0 3667 0 0 3845 0 0 3824 0 0 3858 0 0 3952 0 0 4006 0 0 4022 0 0 4076 0 0 4140 0 0 4114 0 0 4094 0 0 4212 0 0 4114 0 0 4259 0 0 4171 0 0 4137 0 0 4276 0 0 4214 0 0 4185 0 0 4143 0 0 4226 0 0 4189 0 0 4271 0 0 4174 0 0 4062 0 0 4138 0 0 4090 0 0 4025 0 0 4160 0 0 4016 0 0 3982 0 0 3962 0 0 3842 0 0 3703 0 0 3756 0 0 3646 0 0 3542 0 0 2255 0 0 851 0 0 740 0 0 657 0 0 596 0 0 543 0 0 451 0 0 392 0 0 352 0 0 315 0 0 
150 0 0 301 0 0 372 0 0 396 0 0 436 0 0 509 0 0 555 0 0 654 0 0 778 0 0 922 0 0 2249 0 0 3654 0 0 3693 0 0 3733 0 0 3767 0 0 3943 0 0 3898 0 0 3972 0 0 3935 0 0 4050 0 0 4062 0 0 4066 0 0 4228 0 0 4031 0 0 4052 0 0 4105 0 0 4147 0 0 4080 0 0 4294 0 0 4155 0 0 4107 0 0 4260 0 0 4114 0 0 4132 0 0 4270 0 0 4195 0 0 4280 0 0 4173 0 0 4063 0 0 4161 0 0 4077 0 0 4055 0 0 4087 0 0 4004 0 0 3895 0 0 3896 0 0 3701 0 0 3860 0 0 3682 0 0 3473 0 0 2130 0 0 877 0 0 769 0 0 637 0 0 575 0 0 536 0 0 437 0 0 396 0 0 322 0 0 300 0 0 
145 0 0 312 0 0 355 0 0 379 0 0 452 0 0 502 0 0 530 0 0 697 0 0 735 0 0 866 0 0 2170 0 0 3546 0 0 3697 0 0 3716 0 0 3827 0 0 3907 0 0 3930 0 0 3918 0 0 4149 0 0 3993 0 0 4055 0 0 4184 0 0 4062 0 0 4071 0 0 4257 0 0 4157 0 0 4102 0 0 4193 0 0 4217 0 0 4172 0 0 4136 0 0 4240 0 0 4185 0 0 4227 0 0 4148 0 0 4082 0 0 4095 0 0 4136 0 0 4260 0 0 4110 0 0 4077 0 0 4038 0 0 4033 0 0 4059 0 0 3864 0 0 3851 0 0 3778 0 0 3646 0 0 3689 0 0 3497 0 0 2127 0 0 797 0 0 727 0 0 620 0 0 570 0 0 487 0 0 453 0 0 388 0 0 344 0 0 312 0 0 
126 0 0 305 0 0 354 0 0 357 0 0 428 0 0 504 0 0 559 0 0 636 0 0 748 0 0 877 0 0 2257 0 0 3461 0 0 3612 0 0 3736 0 0 3753 0 0 3798 0 0 3941 0 0 4030 0 0 4092 0 0 3988 0 0 3997 0 0 4175 0 0 4003 0 0 4094 0 0 4125 0 0 4148 0 0 4082 0 0 4124 0 0 4127 0 0 4151 0 0 4174 0 0 4202 0 0 4087 0 0 4169 0 0 4095 0 0 4187 0 0 4108 0 0 4093 0 0 4074 0 0 4084 0 0 3913 0 0 4059 0 0 4006 0 0 4049 0 0 3872 0 0 4013 0 0 3698 0 0 3780 0 0 3684 0 0 3534 0 0 2190 0 0 842 0 0 674 0 0 644 0 0 606 0 0 486 0 0 452 0 0 413 0 0 350 0 0 326 0 0 
142 0 0 295 0 0 314 0 0 381 0 0 418 0 0 473 0 0 573 0 0 641 0 0 743 0 0 849 0 0 2156 0 0 3399 0 0 3505 0 0 3699 0 0 3932 0 0 3928 0 0 3945 0 0 4006 0 0 3907 0 0 4090 0 0 4075 0 0 4122 0 0 4137 0 0 4124 0 0 4127 0 0 4153 0 0 4120 0 0 4208 0 0 4062 0 0 4209 0 0 4101 0 0 4112 0 0 4153 0 0 4034 0 0 3933 0 0 4056 0 0 4196 0 0 4078 0 0 4174 0 0 4097 0 0 4033 0 0 4030 0 0 4003 0 0 3918 0 0 3917 0 0 3861 0 0 3654 0 0 3713 0 0 3672 0 0 3553 0 0 2195 0 0 856 0 0 711 0 0 683 0 0 520 0 0 504 0 0 406 0 0 391 0 0 326 0 0 339 0 0 
130 0 0 274 0 0 344 0 0 418 0 0 456 0 0 501 0 0 527 0 0 677 0 0 722 0 0 765 0 0 2216 0 0 3476 0 0 3641 0 0 3611 0 0 3763 0 0 3867 0 0 3909 0 0 3921 0 0 3986 0 0 4131 0 0 3981 0 0 3998 0 0 4063 0 0 4167 0 0 4040 0 0 4125 0 0 4131 0 0 3988 0 0 4077 0 0 4134 0 0 4123 0 0 4078 0 0 4143 0 0 4140 0 0 4221 0 0 4120 0 0 3985 0 0 4151 0 0 3909 0 0 3988 0 0 3960 0 0 4002 0 0 3976 0 0 3962 0 0 3820 0 0 3880 0 0 3897 0 0 3667 0 0 3542 0 0 3558 0 0 2228 0 0 849 0 0 706 0 0 583 0 0 544 0 0 499 0 0 416 0 0 362 0 0 356 0 0 310 0 0 
130 0 0 309 0 0 328 0 0 393 0 0 407 0 0 458 0 0 526 0 0 630 0 0 676 0 0 858 0 0 2164 0 0 3533 0 0 3561 0 0 3741 0 0 3884 0 0 3845 0 0 3880 0 0 3933 0 0 3904 0 0 4056 0 0 3946 0 0 4115 0 0 4063 0 0 4122 0 0 4007 0 0 4077 0 0 4166 0 0 4137 0 0 4088 0 0 4070 0 0 4066 0 0 4003 0 0 4124 0 0 4125 0 0 4174 0 0 4129 0 0 4092 0 0 4135 0 0 4177 0 0 4008 0 0 3883 0 0 3919 0 0 3948 0 0 4032 0 0 3778 0 0 3754 0 0 3779 0 0 3652 0 0 3557 0 0 3543 0 0 2080 0 0 836 0 0 697 0 0 625 0 0 497 0 0 481 0 0 436 0 0 395 0 0 334 0 0 311 0 0 
150 0 0 315 0 0 320 0 0 390 0 0 369 0 0 456 0 0 521 0 0 624 0 0 711 0 0 768 0 0 2193 0 0 3464 0 0 3441 0 0 3739 0 0 3732 0 0 3680 0 0 3851 0 0 3913 0 0 3911 0 0 3908 0 0 4076 0 0 3908 0 0 4013 0 0 4077 0 0 3951 0 0 4046 0 0 4114 0 0 4134 0 0 4152 0 0 4056 0 0 4161 0 0 4083 0 0 4041 0 0 4077 0 0 4050 0 0 4152 0 0 4041 0 0 3981 0 0 4088 0 0 3974 0 0 4030 0 0 3994 0 0 3985 0 0 3751 0 0 3856 0 0 3794 0 0 3871 0 0 3592 0 0 3547 0 0 3383 0 0 2195 0 0 880 0 0 703 0 0 586 0 0 493 0 0 447 0 0 417 0 0 348 0 0 325 0 0 278 0 0 
110 0 0 283 0 0 319 0 0 353 0 0 397 0 0 447 0 0 521 0 0 618 0 0 660 0 0 764 0 0 2116 0 0 3455 0 0 3507 0 0 3638 0 0 3686 0 0 3882 0 0 3925 0 0 3938 0 0 3939 0 0 3938 0 0 3957 0 0 3948 0 0 4030 0 0 4072 0 0 3984 0 0 4032 0 0 4119 0 0 4170 0 0 4084 0 0 4033 0 0 4038 0 0 4122 0 0 4071 0 0 4108 0 0 3992 0 0 4029 0 0 4073 0 0 4037 0 0 3978 0 0 4028 0 0 3960 0 0 4034 0 0 3923 0 0 3807 0 0 3814 0 0 3702 0 0 3687 0 0 3665 0 0 3486 0 0 3435 0 0 2086 0 0 761 0 0 680 0 0 605 0 0 540 0 0 430 0 0 399 0 0 369 0 0 329 0 0 288 0 0 
107 0 0 284 0 0 278 0 0 357 0 0 404 0 0 442 0 0 535 0 0 579 0 0 655 0 0 785 0 0 2126 0 0 3542 0 0 3583 0 0 3537 0 0 3795 0 0 3752 0 0 3811 0 0 3927 0 0 3869 0 0 3901 0 0 3977 0 0 3860 0 0 3994 0 0 3937 0 0 4100 0 0 3834 0 0 3868 0 0 4015 0 0 4057 0 0 4052 0 0 3929 0 0 4003 0 0 4042 0 0 4053 0 0 4046 0 0 3955 0 0 4058 0 0 4000 0 0 4040 0 0 3887 0 0 3873 0 0 3876 0 0 3873 0 0 3891 0 0 3830 0 0 3677 0 0 3642 0 0 3645 0 0 3557 0 0 3395 0 0 2060 0 0 725 0 0 668 0 0 605 0 0 541 0 0 460 0 0 377 0 0 357 0 0 310 0 0 266 0 0 
140 0 0 302 0 0 308 0 0 332 0 0 403 0 0 426 0 0 495 0 0 560 0 0 657 0 0 755 0 0 2168 0 0 3458 0 0 3564 0 0 3539 0 0 3542 0 0 3781 0 0 3794 0 0 3868 0 0 3903 0 0 3898 0 0 3826 0 0 3908 0 0 3894 0 0 3928 0 0 4052 0 0 4052 0 0 4059 0 0 4032 0 0 4009 0 0 3969 0 0 4116 0 0 4122 0 0 4017 0 0 3881 0 0 3984 0 0 4012 0 0 3889 0 0 4005 0 0 3919 0 0 3997 0 0 3806 0 0 3869 0 0 3850 0 0 3778 0 0 3786 0 0 3754 0 0 3746 0 0 3651 0 0 3533 0 0 3340 0 0 2127 0 0 796 0 0 648 0 0 555 0 0 495 0 0 458 0 0 379 0 0 333 0 0 327 0 0 259 0 0 
122 0 0 260 0 0 298 0 0 341 0 0 363 0 0 461 0 0 474 0 0 555 0 0 637 0 0 720 0 0 2055 0 0 3399 0 0 3426 0 0 3610 0 0 3620 0 0 3648 0 0 3715 0 0 3854 0 0 3729 0 0 3868 0 0 3844 0 0 3857 0 0 3872 0 0 3872 0 0 4001 0 0 3957 0 0 4030 0 0 3892 0 0 4027 0 0 4019 0 0 3859 0 0 4097 0 0 3993 0 0 4006 0 0 3915 0 0 3940 0 0 3979 0 0 3961 0 0 3869 0 0 3927 0 0 3918 0 0 3849 0 0 3841 0 0 3795 0 0 3728 0 0 3731 0 0 3599 0 0 3558 0 0 3563 0 0 3388 0 0 1994 0 0 799 0 0 614 0 0 550 0 0 465 0 0 433 0 0 418 0 0 378 0 0 300 0 0 259 0 0 
133 0 0 278 0 0 297 0 0 353 0 0 361 0 0 375 0 0 458 0 0 540 0 0 551 0 0 699 0 0 1992 0 0 3359 0 0 3446 0 0 3593 0 0 3649 0 0 3656 0 0 3683 0 0 3870 0 0 3731 0 0 3689 0 0 3825 0 0 3806 0 0 3942 0 0 3859 0 0 3891 0 0 3874 0 0 3876 0 0 3886 0 0 3963 0 0 3849 0 0 4015 0 0 3954 0 0 3972 0 0 3900 0 0 3977 0 0 3953 0 0 3862 0 0 3848 0 0 3928 0 0 3789 0 0 3784 0 0 3769 0 0 3779 0 0 3818 0 0 3695 0 0 3570 0 0 3579 0 0 3506 0 0 3457 0 0 3330 0 0 2029 0 0 734 0 0 549 0 0 528 0 0 470 0 0 398 0 0 352 0 0 311 0 0 277 0 0 256 0 0 
92 0 0 256 0 0 300 0 0 321 0 0 347 0 0 374 0 0 407 0 0 501 0 0 576 0 0 693 0 0 1945 0 0 3194 0 0 3389 0 0 3414 0 0 3582 0 0 3597 0 0 3605 0 0 3728 0 0 3721 0 0 3765 0 0 3828 0 0 3786 0 0 3909 0 0 3866 0 0 3761 0 0 3833 0 0 3837 0 0 3739 0 0 3876 0 0 3925 0 0 3820 0 0 3920 0 0 3731 0 0 3783 0 0 3963 0 0 3876 0 0 3883 0 0 3827 0 0 3718 0 0 3740 0 0 3692 0 0 3772 0 0 3758 0 0 3701 0 0 3630 0 0 3584 0 0 3564 0 0 3473 0 0 3432 0 0 3383 0 0 1983 0 0 687 0 0 564 0 0 516 0 0 444 0 0 438 0 0 332 0 0 311 0 0 254 0 0 263 0 0 
121 0 0 241 0 0 274 0 0 288 0 0 352 0 0 399 0 0 438 0 0 471 0 0 571 0 0 655 0 0 1996 0 0 3309 0 0 3367 0 0 3448 0 0 3461 0 0 3544 0 0 3647 0 0 3568 0 0 3637 0 0 3653 0 0 3753 0 0 3814 0 0 3836 0 0 3816 0 0 3821 0 0 3853 0 0 3785 0 0 3833 0 0 3833 0 0 3820 0 0 3850 0 0 3834 0 0 3733 0 0 3827 0 0 3887 0 0 3766 0 0 3809 0 0 3671 0 0 3724 0 0 3731 0 0 3757 0 0 3783 0 0 3628 0 0 3786 0 0 3639 0 0 3590 0 0 3554 0 0 3448 0 0 3435 0 0 3261 0 0 2023 0 0 657 0 0 539 0 0 523 0 0 452 0 0 419 0 0 327 0 0 298 0 0 271 0 0 220 0 0 
103 0 0 221 0 0 240 0 0 273 0 0 330 0 0 355 0 0 386 0 0 444 0 0 509 0 0 619 0 0 1959 0 0 3170 0 0 3424 0 0 3382 0 0 3496 0 0 3431 0 0 3529 0 0 3539 0 0 3684 0 0 3636 0 0 3778 0 0 3679 0 0 3719 0 0 3641 0 0 3773 0 0 3734 0 0 3674 0 0 3687 0 0 3723 0 0 3711 0 0 3870 0 0 3763 0 0 3705 0 0 3821 0 0 3784 0 0 3771 0 0 3664 0 0 3700 0 0 3622 0 0 3681 0 0 3608 0 0 3603 0 0 3612 0 0 3660 0 0 3530 0 0 3492 0 0 3424 0 0 3415 0 0 3264 0 0 3172 0 0 1934 0 0 558 0 0 554 0 0 488 0 0 429 0 0 361 0 0 322 0 0 298 0 0 260 0 0 251 0 0 
98 0 0 226 0 0 252 0 0 290 0 0 313 0 0 358 0 0 361 0 0 458 0 0 500 0 0 548 0 0 1870 0 0 3124 0 0 3352 0 0 3372 0 0 3264 0 0 3429 0 0 3454 0 0 3511 0 0 3438 0 0 3501 0 0 3649 0 0 3617 0 0 3627 0 0 3643 0 0 3641 0 0 3639 0 0 3614 0 0 3619 0 0 3576 0 0 3666 0 0 3511 0 0 3587 0 0 3564 0 0 3748 0 0 3632 0 0 3652 0 0 3530 0 0 3643 0 0 3667 0 0 3564 0 0 3459 0 0 3458 0 0 3520 0 0 3527 0 0 3493 0 0 3499 0 0 3382 0 0 3323 0 0 3236 0 0 3183 0 0 1916 0 0 587 0 0 488 0 0 432 0 0 384 0 0 355 0 0 281 0 0 309 0 0 249 0 0 202 0 0 
96 0 0 231 0 0 220 0 0 252 0 0 244 0 0 317 0 0 361 0 0 416 0 0 493 0 0 553 0 0 1805 0 0 3001 0 0 3231 0 0 3317 0 0 3333 0 0 3285 0 0 3222 0 0 3462 0 0 3403 0 0 3437 0 0 3426 0 0 3413 0 0 3452 0 0 3479 0 0 3439 0 0 3384 0 0 3568 0 0 3495 0 0 3473 0 0 3462 0 0 3524 0 0 3533 0 0 3534 0 0 3496 0 0 3446 0 0 3582 0 0 3461 0 0 3530 0 0 3359 0 0 3547 0 0 3525 0 0 3538 0 0 3367 0 0 3468 0 0 3440 0 0 3189 0 0 3267 0 0 3231 0 0 3143 0 0 2984 0 0 1784 0 0 560 0 0 485 0 0 390 0 0 374 0 0 337 0 0 296 0 0 241 0 0 259 0 0 224 0 0 
76 0 0 182 0 0 221 0 0 232 0 0 279 0 0 267 0 0 335 0 0 396 0 0 450 0 0 486 0 0 1175 0 0 1775 0 0 1806 0 0 1947 0 0 1978 0 0 2043 0 0 2023 0 0 2110 0 0 2062 0 0 2133 0 0 2058 0 0 2101 0 0 2091 0 0 2118 0 0 2176 0 0 2189 0 0 2222 0 0 2130 0 0 2121 0 0 2209 0 0 2167 0 0 2129 0 0 2163 0 0 2179 0 0 2165 0 0 2159 0 0 2080 0 0 2198 0 0 2101 0 0 2123 0 0 2198 0 0 2085 0 0 2067 0 0 2009 0 0 2055 0 0 1937 0 0 1993 0 0 1868 0 0 1859 0 0 1902 0 0 1198 0 0 507 0 0 460 0 0 347 0 0 330 0 0 308 0 0 266 0 0 285 0 0 211 0 0 184 0 0 
89 0 0 206 0 0 223 0 0 231 0 0 280 0 0 271 0 0 299 0 0 396 0 0 389 0 0 434 0 0 486 0 0 588 0 0 572 0 0 628 0 0 685 0 0 718 0 0 745 0 0 751 0 0 712 0 0 777 0 0 868 0 0 836 0 0 846 0 0 848 0 0 822 0 0 827 0 0 896 0 0 909 0 0 847 0 0 861 0 0 837 0 0 798 0 0 845 0 0 819 0 0 900 0 0 863 0 0 851 0 0 841 0 0 758 0 0 811 0 0 821 0 0 781 0 0 791 0 0 754 0 0 727 0 0 660 0 0 665 0 0 643 0 0 594 0 0 556 0 0 510 0 0 436 0 0 353 0 0 353 0 0 283 0 0 293 0 0 251 0 0 241 0 0 205 0 0 173 0 0 
86 0 0 193 0 0 217 0 0 235 0 0 236 0 0 255 0 0 268 0 0 315 0 0 337 0 0 348 0 0 430 0 0 482 0 0 489 0 0 564 0 0 612 0 0 572 0 0 620 0 0 640 0 0 669 0 0 663 0 0 680 0 0 721 0 0 754 0 0 676 0 0 748 0 0 705 0 0 734 0 0 767 0 0 767 0 0 716 0 0 721 0 0 712 0 0 712 0 0 662 0 0 754 0 0 700 0 0 752 0 0 669 0 0 658 0 0 710 0 0 695 0 0 667 0 0 671 0 0 674 0 0 603 0 0 588 0 0 600 0 0 548 0 0 499 0 0 462 0 0 406 0 0 407 0 0 366 0 0 321 0 0 314 0 0 258 0 0 237 0 0 208 0 0 203 0 0 154 0 0 
74 0 0 175 0 0 178 0 0 202 0 0 214 0 0 245 0 0 280 0 0 321 0 0 319 0 0 344 0 0 360 0 0 429 0 0 450 0 0 467 0 0 542 0 0 480 0 0 539 0 0 545 0 0 519 0 0 547 0 0 557 0 0 590 0 0 659 0 0 635 0 0 670 0 0 641 0 0 626 0 0 652 0 0 616 0 0 652 0 0 678 0 0 661 0 0 624 0 0 655 0 0 625 0 0 626 0 0 623 0 0 612 0 0 597 0 0 601 0 0 587 0 0 583 0 0 550 0 0 574 0 0 594 0 0 526 0 0 492 0 0 493 0 0 407 0 0 413 0 0 358 0 0 366 0 0 334 0 0 332 0 0 265 0 0 259 0 0 225 0 0 208 0 0 189 0 0 170 0 0 
72 0 0 149 0 0 176 0 0 226 0 0 214 0 0 206 0 0 244 0 0 296 0 0 271 0 0 336 0 0 337 0 0 362 0 0 361 0 0 436 0 0 455 0 0 425 0 0 439 0 0 440 0 0 503 0 0 489 0 0 506 0 0 549 0 0 507 0 0 528 0 0 555 0 0 549 0 0 573 0 0 543 0 0 561 0 0 563 0 0 580 0 0 595 0 0 558 0 0 557 0 0 585 0 0 539 0 0 516 0 0 560 0 0 542 0 0 513 0 0 490 0 0 533 0 0 533 0 0 515 0 0 430 0 0 448 0 0 459 0 0 389 0 0 421 0 0 360 0 0 340 0 0 312 0 0 241 0 0 262 0 0 233 0 0 228 0 0 194 0 0 195 0 0 158 0 0 164 0 0 
73 0 0 140 0 0 172 0 0 189 0 0 189 0 0 197 0 0 234 0 0 237 0 0 275 0 0 274 0 0 309 0 0 299 0 0 364 0 0 340 0 0 372 0 0 392 0 0 396 0 0 376 0 0 480 0 0 437 0 0 449 0 0 503 0 0 492 0 0 516 0 0 496 0 0 475 0 0 516 0 0 471 0 0 479 0 0 485 0 0 497 0 0 467 0 0 455 0 0 500 0 0 521 0 0 492 0 0 480 0 0 503 0 0 477 0 0 482 0 0 511 0 0 477 0 0 445 0 0 418 0 0 440 0 0 371 0 0 371 0 0 359 0 0 365 0 0 311 0 0 318 0 0 244 0 0 263 0 0 231 0 0 227 0 0 206 0 0 187 0 0 167 0 0 164 0 0 114 0 0 
55 0 0 128 0 0 161 0 0 172 0 0 169 0 0 162 0 0 175 0 0 200 0 0 255 0 0 262 0 0 300 0 0 271 0 0 300 0 0 321 0 0 357 0 0 338 0 0 383 0 0 368 0 0 390 0 0 424 0 0 430 0 0 432 0 0 424 0 0 405 0 0 402 0 0 458 0 0 439 0 0 444 0 0 417 0 0 465 0 0 447 0 0 461 0 0 438 0 0 424 0 0 428 0 0 436 0 0 436 0 0 415 0 0 403 0 0 404 0 0 433 0 0 419 0 0 381 0 0 402 0 0 389 0 0 371 0 0 342 0 0 321 0 0 270 0 0 265 0 0 255 0 0 230 0 0 257 0 0 216 0 0 187 0 0 192 0 0 186 0 0 150 0 0 138 0 0 150 0 0 
56 0 0 115 0 0 150 0 0 154 0 0 155 0 0 171 0 0 181 0 0 205 0 0 229 0 0 231 0 0 235 0 0 257 0 0 271 0 0 250 0 0 280 0 0 315 0 0 338 0 0 362 0 0 360 0 0 361 0 0 380 0 0 341 0 0 385 0 0 362 0 0 361 0 0 359 0 0 379 0 0 390 0 0 421 0 0 391 0 0 398 0 0 365 0 0 404 0 0 374 0 0 364 0 0 365 0 0 370 0 0 389 0 0 400 0 0 337 0 0 355 0 0 356 0 0 404 0 0 341 0 0 320 0 0 286 0 0 279 0 0 260 0 0 247 0 0 296 0 0 276 0 0 230 0 0 245 0 0 200 0 0 205 0 0 168 0 0 168 0 0 156 0 0 162 0 0 125 0 0 
68 0 0 114 0 0 121 0 0 151 0 0 159 0 0 147 0 0 166 0 0 193 0 0 203 0 0 232 0 0 217 0 0 210 0 0 259 0 0 272 0 0 260 0 0 310 0 0 270 0 0 285 0 0 315 0 0 304 0 0 357 0 0 315 0 0 333 0 0 338 0 0 337 0 0 367 0 0 319 0 0 366 0 0 343 0 0 338 0 0 368 0 0 369 0 0 354 0 0 341 0 0 378 0 0 330 0 0 337 0 0 343 0 0 312 0 0 328 0 0 306 0 0 354 0 0 293 0 0 330 0 0 306 0 0 307 0 0 226 0 0 249 0 0 246 0 0 221 0 0 223 0 0 189 0 0 196 0 0 201 0 0 156 0 0 180 0 0 135 0 0 133 0 0 128 0 0 105 0 0 
58 0 0 104 0 0 112 0 0 131 0 0 136 0 0 148 0 0 150 0 0 181 0 0 182 0 0 173 0 0 195 0 0 210 0 0 219 0 0 221 0 0 271 0 0 270 0 0 270 0 0 266 0 0 250 0 0 271 0 0 290 0 0 273 0 0 322 0 0 305 0 0 304 0 0 294 0 0 297 0 0 291 0 0 290 0 0 337 0 0 334 0 0 316 0 0 315 0 0 322 0 0 298 0 0 298 0 0 314 0 0 302 0 0 303 0 0 296 0 0 273 0 0 256 0 0 247 0 0 273 0 0 232 0 0 269 0 0 245 0 0 234 0 0 209 0 0 231 0 0 184 0 0 213 0 0 172 0 0 166 0 0 165 0 0 141 0 0 152 0 0 125 0 0 129 0 0 115 0 0 
