P3
# This is a kerma file slice at depth 30 of 100
60 60
# now we give the maximum value of the RGB coordinates.
903099
8 0 0 19 0 0 19 0 0 21 0 0 28 0 0 25 0 0 23 0 0 28 0 0 41 0 0 35 0 0 39 0 0 45 0 0 36 0 0 42 0 0 35 0 0 48 0 0 52 0 0 48 0 0 51 0 0 55 0 0 55 0 0 50 0 0 50 0 0 61 0 0 61 0 0 57 0 0 55 0 0 55 0 0 63 0 0 62 0 0 54 0 0 55 0 0 62 0 0 61 0 0 55 0 0 63 0 0 58 0 0 51 0 0 57 0 0 45 0 0 55 0 0 51 0 0 50 0 0 42 0 0 41 0 0 49 0 0 40 0 0 48 0 0 38 0 0 40 0 0 40 0 0 29 0 0 35 0 0 31 0 0 30 0 0 24 0 0 22 0 0 18 0 0 21 0 0 19 0 0 
18 0 0 43 0 0 46 0 0 50 0 0 57 0 0 59 0 0 65 0 0 64 0 0 63 0 0 68 0 0 86 0 0 84 0 0 97 0 0 91 0 0 102 0 0 101 0 0 95 0 0 104 0 0 113 0 0 113 0 0 116 0 0 127 0 0 121 0 0 131 0 0 128 0 0 136 0 0 136 0 0 124 0 0 140 0 0 130 0 0 124 0 0 128 0 0 109 0 0 122 0 0 134 0 0 134 0 0 136 0 0 122 0 0 121 0 0 116 0 0 110 0 0 118 0 0 116 0 0 126 0 0 105 0 0 96 0 0 100 0 0 91 0 0 85 0 0 84 0 0 84 0 0 70 0 0 68 0 0 59 0 0 60 0 0 58 0 0 50 0 0 50 0 0 46 0 0 41 0 0 
17 0 0 44 0 0 46 0 0 51 0 0 70 0 0 66 0 0 68 0 0 70 0 0 78 0 0 84 0 0 92 0 0 88 0 0 89 0 0 116 0 0 110 0 0 119 0 0 120 0 0 137 0 0 136 0 0 138 0 0 134 0 0 128 0 0 144 0 0 141 0 0 144 0 0 150 0 0 147 0 0 148 0 0 139 0 0 145 0 0 155 0 0 133 0 0 150 0 0 155 0 0 154 0 0 145 0 0 141 0 0 127 0 0 142 0 0 146 0 0 133 0 0 136 0 0 118 0 0 120 0 0 127 0 0 112 0 0 112 0 0 108 0 0 94 0 0 93 0 0 92 0 0 86 0 0 92 0 0 67 0 0 67 0 0 62 0 0 64 0 0 57 0 0 49 0 0 53 0 0 
21 0 0 54 0 0 54 0 0 62 0 0 72 0 0 74 0 0 86 0 0 84 0 0 84 0 0 107 0 0 105 0 0 107 0 0 117 0 0 119 0 0 114 0 0 134 0 0 132 0 0 133 0 0 157 0 0 160 0 0 165 0 0 154 0 0 150 0 0 157 0 0 163 0 0 172 0 0 173 0 0 176 0 0 170 0 0 173 0 0 163 0 0 187 0 0 171 0 0 173 0 0 168 0 0 163 0 0 179 0 0 149 0 0 162 0 0 141 0 0 154 0 0 159 0 0 148 0 0 135 0 0 128 0 0 139 0 0 123 0 0 136 0 0 110 0 0 107 0 0 116 0 0 91 0 0 87 0 0 97 0 0 75 0 0 71 0 0 71 0 0 63 0 0 55 0 0 50 0 0 
34 0 0 55 0 0 54 0 0 60 0 0 77 0 0 79 0 0 89 0 0 99 0 0 95 0 0 109 0 0 113 0 0 120 0 0 134 0 0 139 0 0 145 0 0 142 0 0 157 0 0 154 0 0 160 0 0 168 0 0 164 0 0 176 0 0 188 0 0 172 0 0 188 0 0 181 0 0 187 0 0 189 0 0 187 0 0 194 0 0 203 0 0 194 0 0 184 0 0 194 0 0 196 0 0 177 0 0 184 0 0 194 0 0 185 0 0 180 0 0 174 0 0 175 0 0 156 0 0 160 0 0 162 0 0 145 0 0 152 0 0 149 0 0 130 0 0 123 0 0 104 0 0 115 0 0 108 0 0 100 0 0 75 0 0 85 0 0 77 0 0 64 0 0 66 0 0 50 0 0 
27 0 0 59 0 0 63 0 0 72 0 0 74 0 0 92 0 0 87 0 0 103 0 0 121 0 0 118 0 0 129 0 0 147 0 0 157 0 0 174 0 0 169 0 0 169 0 0 168 0 0 193 0 0 182 0 0 204 0 0 207 0 0 203 0 0 205 0 0 194 0 0 217 0 0 207 0 0 211 0 0 208 0 0 225 0 0 216 0 0 234 0 0 213 0 0 213 0 0 218 0 0 224 0 0 223 0 0 200 0 0 222 0 0 220 0 0 203 0 0 201 0 0 197 0 0 181 0 0 182 0 0 169 0 0 169 0 0 182 0 0 148 0 0 145 0 0 148 0 0 125 0 0 120 0 0 117 0 0 98 0 0 86 0 0 88 0 0 81 0 0 67 0 0 60 0 0 66 0 0 
24 0 0 67 0 0 67 0 0 81 0 0 78 0 0 92 0 0 110 0 0 109 0 0 114 0 0 122 0 0 150 0 0 153 0 0 159 0 0 164 0 0 181 0 0 180 0 0 220 0 0 216 0 0 212 0 0 225 0 0 228 0 0 247 0 0 244 0 0 253 0 0 233 0 0 246 0 0 241 0 0 256 0 0 280 0 0 253 0 0 268 0 0 253 0 0 255 0 0 245 0 0 262 0 0 231 0 0 239 0 0 230 0 0 231 0 0 259 0 0 228 0 0 236 0 0 229 0 0 215 0 0 220 0 0 195 0 0 182 0 0 168 0 0 164 0 0 167 0 0 146 0 0 126 0 0 118 0 0 111 0 0 105 0 0 98 0 0 87 0 0 69 0 0 70 0 0 65 0 0 
30 0 0 72 0 0 78 0 0 89 0 0 95 0 0 90 0 0 121 0 0 126 0 0 134 0 0 172 0 0 154 0 0 238 0 0 194 0 0 215 0 0 211 0 0 231 0 0 214 0 0 270 0 0 269 0 0 230 0 0 263 0 0 270 0 0 251 0 0 270 0 0 282 0 0 289 0 0 273 0 0 291 0 0 314 0 0 311 0 0 276 0 0 313 0 0 292 0 0 296 0 0 288 0 0 294 0 0 287 0 0 274 0 0 257 0 0 286 0 0 266 0 0 250 0 0 257 0 0 259 0 0 251 0 0 233 0 0 223 0 0 195 0 0 186 0 0 190 0 0 173 0 0 152 0 0 124 0 0 113 0 0 102 0 0 104 0 0 89 0 0 79 0 0 74 0 0 63 0 0 
33 0 0 67 0 0 81 0 0 85 0 0 100 0 0 108 0 0 124 0 0 138 0 0 164 0 0 182 0 0 194 0 0 205 0 0 230 0 0 245 0 0 241 0 0 283 0 0 283 0 0 280 0 0 284 0 0 313 0 0 286 0 0 296 0 0 340 0 0 326 0 0 323 0 0 335 0 0 332 0 0 314 0 0 337 0 0 338 0 0 338 0 0 349 0 0 352 0 0 323 0 0 323 0 0 341 0 0 363 0 0 297 0 0 310 0 0 328 0 0 292 0 0 323 0 0 303 0 0 284 0 0 253 0 0 268 0 0 757 0 0 224 0 0 240 0 0 193 0 0 189 0 0 166 0 0 149 0 0 143 0 0 126 0 0 112 0 0 102 0 0 81 0 0 89 0 0 65 0 0 
33 0 0 75 0 0 88 0 0 98 0 0 113 0 0 114 0 0 135 0 0 153 0 0 182 0 0 202 0 0 237 0 0 230 0 0 273 0 0 271 0 0 308 0 0 341 0 0 335 0 0 356 0 0 337 0 0 396 0 0 393 0 0 378 0 0 374 0 0 415 0 0 374 0 0 380 0 0 383 0 0 377 0 0 402 0 0 389 0 0 389 0 0 407 0 0 374 0 0 375 0 0 385 0 0 375 0 0 424 0 0 415 0 0 379 0 0 380 0 0 343 0 0 381 0 0 349 0 0 349 0 0 391 0 0 325 0 0 330 0 0 276 0 0 266 0 0 242 0 0 223 0 0 195 0 0 181 0 0 159 0 0 146 0 0 133 0 0 103 0 0 92 0 0 93 0 0 73 0 0 
40 0 0 78 0 0 84 0 0 99 0 0 110 0 0 161 0 0 145 0 0 157 0 0 205 0 0 224 0 0 822 0 0 1430 0 0 1446 0 0 1459 0 0 1542 0 0 1532 0 0 1429 0 0 1436 0 0 1567 0 0 1510 0 0 1593 0 0 1568 0 0 1534 0 0 1543 0 0 1536 0 0 1702 0 0 1545 0 0 1644 0 0 1533 0 0 1491 0 0 1518 0 0 1535 0 0 1569 0 0 1514 0 0 1538 0 0 1608 0 0 1603 0 0 1535 0 0 1564 0 0 1556 0 0 1538 0 0 1581 0 0 1537 0 0 1578 0 0 1519 0 0 1458 0 0 1537 0 0 1529 0 0 1538 0 0 1471 0 0 870 0 0 220 0 0 192 0 0 159 0 0 150 0 0 124 0 0 128 0 0 95 0 0 85 0 0 83 0 0 
40 0 0 89 0 0 96 0 0 108 0 0 139 0 0 141 0 0 155 0 0 182 0 0 197 0 0 255 0 0 1359 0 0 2520 0 0 2705 0 0 2526 0 0 2700 0 0 2736 0 0 2619 0 0 2874 0 0 2811 0 0 2724 0 0 2647 0 0 2656 0 0 2715 0 0 2744 0 0 2695 0 0 2739 0 0 2785 0 0 2809 0 0 2755 0 0 2787 0 0 2752 0 0 2847 0 0 2901 0 0 2698 0 0 2831 0 0 2740 0 0 2619 0 0 2663 0 0 2604 0 0 2682 0 0 2844 0 0 2824 0 0 2724 0 0 2582 0 0 2564 0 0 2737 0 0 2710 0 0 3193 0 0 2601 0 0 2588 0 0 1403 0 0 248 0 0 188 0 0 187 0 0 170 0 0 139 0 0 122 0 0 113 0 0 92 0 0 86 0 0 
44 0 0 90 0 0 106 0 0 122 0 0 132 0 0 157 0 0 173 0 0 205 0 0 215 0 0 271 0 0 1351 0 0 2542 0 0 2732 0 0 2757 0 0 2622 0 0 2726 0 0 2725 0 0 2599 0 0 2760 0 0 3377 0 0 2584 0 0 2828 0 0 2743 0 0 2949 0 0 2770 0 0 2835 0 0 2729 0 0 2862 0 0 2814 0 0 2891 0 0 2776 0 0 2746 0 0 2811 0 0 2725 0 0 2802 0 0 2864 0 0 2788 0 0 2849 0 0 2752 0 0 2827 0 0 2873 0 0 2828 0 0 2801 0 0 2822 0 0 2890 0 0 2624 0 0 2751 0 0 2681 0 0 2636 0 0 2626 0 0 1451 0 0 284 0 0 223 0 0 182 0 0 166 0 0 160 0 0 134 0 0 110 0 0 110 0 0 88 0 0 
41 0 0 97 0 0 107 0 0 133 0 0 1435 0 0 165 0 0 179 0 0 212 0 0 249 0 0 287 0 0 1418 0 0 2594 0 0 2700 0 0 2728 0 0 9971 0 0 2710 0 0 2760 0 0 2877 0 0 2788 0 0 2960 0 0 2906 0 0 2932 0 0 2900 0 0 2674 0 0 2845 0 0 2831 0 0 2932 0 0 2895 0 0 2792 0 0 2953 0 0 2907 0 0 2986 0 0 3085 0 0 2815 0 0 2800 0 0 2874 0 0 2783 0 0 2890 0 0 2856 0 0 2776 0 0 2729 0 0 2756 0 0 2971 0 0 2650 0 0 2713 0 0 2710 0 0 2748 0 0 2675 0 0 2808 0 0 2532 0 0 1470 0 0 275 0 0 254 0 0 204 0 0 189 0 0 169 0 0 122 0 0 103 0 0 112 0 0 88 0 0 
42 0 0 100 0 0 113 0 0 130 0 0 145 0 0 169 0 0 184 0 0 213 0 0 244 0 0 306 0 0 1481 0 0 2613 0 0 2579 0 0 2598 0 0 2709 0 0 2931 0 0 2778 0 0 2749 0 0 2735 0 0 3051 0 0 2872 0 0 2846 0 0 2907 0 0 2791 0 0 3002 0 0 2929 0 0 2948 0 0 3217 0 0 3024 0 0 3071 0 0 2919 0 0 3029 0 0 2841 0 0 2796 0 0 2907 0 0 2912 0 0 2879 0 0 2938 0 0 3015 0 0 2923 0 0 3050 0 0 2928 0 0 2711 0 0 2771 0 0 2786 0 0 3007 0 0 2846 0 0 2664 0 0 2758 0 0 2701 0 0 1524 0 0 313 0 0 271 0 0 240 0 0 188 0 0 170 0 0 148 0 0 123 0 0 114 0 0 101 0 0 
41 0 0 98 0 0 108 0 0 122 0 0 151 0 0 171 0 0 200 0 0 236 0 0 265 0 0 305 0 0 1499 0 0 2773 0 0 2586 0 0 2771 0 0 2842 0 0 2747 0 0 2897 0 0 2830 0 0 2818 0 0 2900 0 0 2948 0 0 2937 0 0 2929 0 0 2903 0 0 2885 0 0 2964 0 0 2834 0 0 2861 0 0 2928 0 0 3086 0 0 2989 0 0 2918 0 0 2928 0 0 2992 0 0 2804 0 0 2793 0 0 2897 0 0 2969 0 0 2916 0 0 3748 0 0 2885 0 0 2995 0 0 2810 0 0 2961 0 0 2968 0 0 2956 0 0 2859 0 0 2853 0 0 2690 0 0 2613 0 0 1443 0 0 338 0 0 274 0 0 231 0 0 199 0 0 166 0 0 146 0 0 137 0 0 120 0 0 104 0 0 
49 0 0 110 0 0 116 0 0 148 0 0 166 0 0 187 0 0 215 0 0 219 0 0 284 0 0 347 0 0 1681 0 0 2826 0 0 2664 0 0 2822 0 0 3401 0 0 2837 0 0 2844 0 0 2863 0 0 3004 0 0 2879 0 0 2883 0 0 2927 0 0 2895 0 0 3005 0 0 3031 0 0 3119 0 0 3016 0 0 3226 0 0 2866 0 0 2952 0 0 2991 0 0 2959 0 0 2702 0 0 2901 0 0 3004 0 0 2950 0 0 3013 0 0 2987 0 0 3027 0 0 2880 0 0 2783 0 0 3065 0 0 3031 0 0 3003 0 0 2837 0 0 2801 0 0 2841 0 0 2909 0 0 2738 0 0 2609 0 0 1521 0 0 332 0 0 282 0 0 231 0 0 200 0 0 181 0 0 154 0 0 138 0 0 120 0 0 109 0 0 
47 0 0 101 0 0 126 0 0 141 0 0 164 0 0 193 0 0 210 0 0 286 0 0 304 0 0 348 0 0 1633 0 0 2625 0 0 2756 0 0 2851 0 0 2775 0 0 2792 0 0 2952 0 0 2856 0 0 2861 0 0 2971 0 0 3032 0 0 2985 0 0 2859 0 0 3037 0 0 2839 0 0 2880 0 0 3003 0 0 3504 0 0 2852 0 0 2944 0 0 3046 0 0 3064 0 0 2931 0 0 3072 0 0 2978 0 0 2964 0 0 3074 0 0 2904 0 0 2873 0 0 2879 0 0 3044 0 0 2828 0 0 3016 0 0 2781 0 0 2929 0 0 2893 0 0 2733 0 0 2811 0 0 2762 0 0 2624 0 0 1489 0 0 302 0 0 294 0 0 246 0 0 213 0 0 174 0 0 172 0 0 139 0 0 146 0 0 113 0 0 
57 0 0 113 0 0 125 0 0 143 0 0 166 0 0 197 0 0 242 0 0 324 0 0 297 0 0 364 0 0 1497 0 0 2776 0 0 2598 0 0 2812 0 0 2846 0 0 2733 0 0 2875 0 0 2964 0 0 2793 0 0 2920 0 0 2910 0 0 2993 0 0 3018 0 0 2816 0 0 2934 0 0 3138 0 0 2898 0 0 3001 0 0 3157 0 0 2910 0 0 3069 0 0 2871 0 0 2905 0 0 2904 0 0 2855 0 0 2975 0 0 2896 0 0 2925 0 0 2939 0 0 2971 0 0 2993 0 0 2858 0 0 2838 0 0 2821 0 0 3228 0 0 2890 0 0 9458 0 0 2887 0 0 2719 0 0 2695 0 0 1493 0 0 343 0 0 294 0 0 252 0 0 214 0 0 195 0 0 163 0 0 141 0 0 131 0 0 110 0 0 
48 0 0 114 0 0 165 0 0 147 0 0 157 0 0 194 0 0 217 0 0 265 0 0 308 0 0 382 0 0 1481 0 0 2685 0 0 2795 0 0 2844 0 0 2784 0 0 2984 0 0 2817 0 0 2966 0 0 2930 0 0 3011 0 0 3383 0 0 3008 0 0 3055 0 0 3098 0 0 2918 0 0 3108 0 0 2986 0 0 2997 0 0 3001 0 0 2942 0 0 3023 0 0 3019 0 0 3133 0 0 2939 0 0 3012 0 0 2923 0 0 3081 0 0 2920 0 0 3029 0 0 3060 0 0 2881 0 0 2864 0 0 2926 0 0 2893 0 0 2855 0 0 2729 0 0 2919 0 0 2753 0 0 2855 0 0 2760 0 0 1504 0 0 354 0 0 315 0 0 261 0 0 222 0 0 184 0 0 168 0 0 142 0 0 124 0 0 122 0 0 
51 0 0 120 0 0 141 0 0 166 0 0 179 0 0 198 0 0 217 0 0 256 0 0 304 0 0 399 0 0 1495 0 0 2759 0 0 2671 0 0 2802 0 0 2923 0 0 3105 0 0 2878 0 0 2874 0 0 2993 0 0 2974 0 0 2911 0 0 2974 0 0 3138 0 0 3023 0 0 2982 0 0 3070 0 0 2940 0 0 2965 0 0 3014 0 0 3058 0 0 3099 0 0 3015 0 0 3007 0 0 3047 0 0 2901 0 0 2950 0 0 3013 0 0 3199 0 0 2951 0 0 2751 0 0 3051 0 0 2950 0 0 2956 0 0 2975 0 0 2877 0 0 2924 0 0 2655 0 0 2821 0 0 2806 0 0 2822 0 0 1629 0 0 392 0 0 299 0 0 274 0 0 240 0 0 181 0 0 180 0 0 152 0 0 136 0 0 120 0 0 
53 0 0 129 0 0 125 0 0 163 0 0 182 0 0 222 0 0 243 0 0 275 0 0 314 0 0 376 0 0 1613 0 0 2662 0 0 2710 0 0 2774 0 0 2898 0 0 2992 0 0 2859 0 0 3054 0 0 2939 0 0 3115 0 0 2936 0 0 3018 0 0 2907 0 0 2870 0 0 2976 0 0 3091 0 0 2948 0 0 5833 0 0 3065 0 0 2994 0 0 3118 0 0 3090 0 0 3125 0 0 3069 0 0 2995 0 0 3036 0 0 3019 0 0 3421 0 0 3051 0 0 3051 0 0 3016 0 0 2981 0 0 3260 0 0 2917 0 0 2926 0 0 2842 0 0 2951 0 0 2792 0 0 2796 0 0 2729 0 0 1484 0 0 381 0 0 320 0 0 249 0 0 237 0 0 192 0 0 185 0 0 160 0 0 137 0 0 121 0 0 
56 0 0 113 0 0 131 0 0 162 0 0 184 0 0 207 0 0 228 0 0 255 0 0 330 0 0 370 0 0 1536 0 0 2884 0 0 2910 0 0 2806 0 0 2925 0 0 2987 0 0 2968 0 0 2889 0 0 2982 0 0 2957 0 0 3087 0 0 3115 0 0 3071 0 0 3096 0 0 3151 0 0 2964 0 0 3035 0 0 3049 0 0 2899 0 0 3202 0 0 3022 0 0 2966 0 0 3018 0 0 3037 0 0 3069 0 0 3011 0 0 3160 0 0 3002 0 0 3093 0 0 2941 0 0 2977 0 0 2983 0 0 3052 0 0 3003 0 0 2890 0 0 2923 0 0 2944 0 0 2813 0 0 2871 0 0 2787 0 0 1539 0 0 370 0 0 304 0 0 295 0 0 235 0 0 202 0 0 175 0 0 154 0 0 149 0 0 125 0 0 
55 0 0 121 0 0 143 0 0 157 0 0 192 0 0 209 0 0 235 0 0 283 0 0 312 0 0 384 0 0 1552 0 0 2793 0 0 2784 0 0 2843 0 0 2901 0 0 2830 0 0 2877 0 0 2891 0 0 2884 0 0 2982 0 0 2943 0 0 3010 0 0 3015 0 0 3099 0 0 3057 0 0 2934 0 0 3609 0 0 3034 0 0 2989 0 0 2979 0 0 3074 0 0 3219 0 0 3060 0 0 3049 0 0 3008 0 0 3428 0 0 3213 0 0 3007 0 0 3040 0 0 3154 0 0 3023 0 0 3088 0 0 3047 0 0 2937 0 0 3242 0 0 2891 0 0 2814 0 0 2748 0 0 2827 0 0 2760 0 0 1534 0 0 386 0 0 345 0 0 268 0 0 229 0 0 218 0 0 177 0 0 158 0 0 136 0 0 121 0 0 
48 0 0 129 0 0 144 0 0 157 0 0 187 0 0 218 0 0 273 0 0 277 0 0 312 0 0 387 0 0 1667 0 0 2643 0 0 2795 0 0 2891 0 0 2937 0 0 2881 0 0 2955 0 0 2868 0 0 2987 0 0 3053 0 0 2944 0 0 2895 0 0 2889 0 0 3039 0 0 3034 0 0 3108 0 0 2919 0 0 2983 0 0 2921 0 0 3020 0 0 3045 0 0 3073 0 0 3055 0 0 3080 0 0 3148 0 0 3120 0 0 3064 0 0 2990 0 0 2986 0 0 3137 0 0 3066 0 0 3142 0 0 2969 0 0 2930 0 0 3076 0 0 3018 0 0 2924 0 0 3074 0 0 2948 0 0 2746 0 0 1552 0 0 392 0 0 344 0 0 278 0 0 239 0 0 217 0 0 182 0 0 163 0 0 139 0 0 136 0 0 
59 0 0 129 0 0 154 0 0 180 0 0 188 0 0 232 0 0 244 0 0 304 0 0 331 0 0 381 0 0 1645 0 0 2753 0 0 3081 0 0 2798 0 0 2966 0 0 2898 0 0 2957 0 0 3361 0 0 2919 0 0 3034 0 0 3023 0 0 2985 0 0 3088 0 0 2938 0 0 2963 0 0 3111 0 0 3142 0 0 3109 0 0 3127 0 0 3300 0 0 3049 0 0 2926 0 0 3001 0 0 3081 0 0 2956 0 0 3033 0 0 3013 0 0 2969 0 0 3069 0 0 3003 0 0 2975 0 0 3006 0 0 2915 0 0 3056 0 0 3044 0 0 2962 0 0 3023 0 0 2856 0 0 2793 0 0 2767 0 0 1596 0 0 394 0 0 345 0 0 293 0 0 244 0 0 207 0 0 181 0 0 165 0 0 159 0 0 114 0 0 
56 0 0 134 0 0 146 0 0 176 0 0 193 0 0 226 0 0 234 0 0 269 0 0 334 0 0 417 0 0 1563 0 0 2784 0 0 2821 0 0 2771 0 0 2828 0 0 2876 0 0 3048 0 0 3442 0 0 2998 0 0 3042 0 0 2965 0 0 3050 0 0 3686 0 0 3103 0 0 3116 0 0 2922 0 0 2988 0 0 3139 0 0 3022 0 0 3062 0 0 3142 0 0 3148 0 0 3170 0 0 3071 0 0 3167 0 0 3082 0 0 2865 0 0 3027 0 0 3059 0 0 3087 0 0 3011 0 0 2951 0 0 2936 0 0 2936 0 0 2909 0 0 2839 0 0 2800 0 0 2757 0 0 2998 0 0 2800 0 0 1552 0 0 363 0 0 340 0 0 293 0 0 279 0 0 197 0 0 186 0 0 176 0 0 155 0 0 128 0 0 
65 0 0 121 0 0 152 0 0 163 0 0 176 0 0 217 0 0 255 0 0 281 0 0 336 0 0 393 0 0 1555 0 0 2692 0 0 2722 0 0 2744 0 0 3301 0 0 3009 0 0 3048 0 0 2969 0 0 3041 0 0 3189 0 0 2945 0 0 3164 0 0 3009 0 0 3004 0 0 2998 0 0 2947 0 0 3109 0 0 3076 0 0 2993 0 0 3111 0 0 2987 0 0 3097 0 0 3183 0 0 3076 0 0 3210 0 0 3054 0 0 2992 0 0 3296 0 0 3204 0 0 3018 0 0 2861 0 0 3046 0 0 2999 0 0 3038 0 0 3041 0 0 2926 0 0 3060 0 0 2983 0 0 2746 0 0 3215 0 0 1686 0 0 387 0 0 333 0 0 287 0 0 225 0 0 207 0 0 192 0 0 174 0 0 146 0 0 137 0 0 
57 0 0 122 0 0 143 0 0 150 0 0 168 0 0 215 0 0 221 0 0 301 0 0 339 0 0 389 0 0 1684 0 0 2734 0 0 2922 0 0 2860 0 0 3020 0 0 3027 0 0 2933 0 0 3073 0 0 3020 0 0 3021 0 0 3146 0 0 3129 0 0 2929 0 0 3015 0 0 2973 0 0 3139 0 0 3038 0 0 3207 0 0 2989 0 0 3106 0 0 3048 0 0 3076 0 0 3009 0 0 3051 0 0 3104 0 0 3148 0 0 3112 0 0 2989 0 0 3016 0 0 3013 0 0 3090 0 0 2985 0 0 2953 0 0 3810 0 0 3037 0 0 2820 0 0 2847 0 0 2857 0 0 2819 0 0 2864 0 0 1560 0 0 393 0 0 339 0 0 275 0 0 249 0 0 212 0 0 190 0 0 162 0 0 156 0 0 149 0 0 
52 0 0 123 0 0 159 0 0 162 0 0 196 0 0 228 0 0 261 0 0 285 0 0 322 0 0 404 0 0 1579 0 0 2687 0 0 2889 0 0 2927 0 0 2759 0 0 2906 0 0 2941 0 0 3013 0 0 2986 0 0 2958 0 0 3134 0 0 3062 0 0 3081 0 0 3183 0 0 2908 0 0 2953 0 0 3064 0 0 3041 0 0 3147 0 0 3282 0 0 4374 0 0 3074 0 0 3183 0 0 3109 0 0 2971 0 0 3142 0 0 2944 0 0 3108 0 0 2998 0 0 3049 0 0 3070 0 0 3075 0 0 3061 0 0 2984 0 0 2893 0 0 2747 0 0 3036 0 0 2795 0 0 2892 0 0 2723 0 0 1653 0 0 400 0 0 312 0 0 285 0 0 246 0 0 235 0 0 185 0 0 165 0 0 155 0 0 140 0 0 
53 0 0 139 0 0 129 0 0 167 0 0 195 0 0 248 0 0 258 0 0 285 0 0 340 0 0 390 0 0 1648 0 0 2745 0 0 2774 0 0 2985 0 0 2976 0 0 2970 0 0 2950 0 0 3016 0 0 3114 0 0 3023 0 0 3136 0 0 3018 0 0 3035 0 0 3151 0 0 3065 0 0 3056 0 0 3109 0 0 3637 0 0 3096 0 0 3069 0 0 3111 0 0 3066 0 0 2951 0 0 3154 0 0 3113 0 0 3052 0 0 2998 0 0 3013 0 0 3106 0 0 3060 0 0 2960 0 0 3048 0 0 3147 0 0 3052 0 0 2937 0 0 2822 0 0 2843 0 0 2835 0 0 2965 0 0 2667 0 0 1680 0 0 382 0 0 332 0 0 295 0 0 225 0 0 224 0 0 203 0 0 166 0 0 464 0 0 126 0 0 
61 0 0 130 0 0 149 0 0 165 0 0 198 0 0 205 0 0 243 0 0 296 0 0 328 0 0 410 0 0 1551 0 0 2790 0 0 2688 0 0 2890 0 0 2898 0 0 2958 0 0 2958 0 0 3121 0 0 3109 0 0 2996 0 0 3173 0 0 3011 0 0 3154 0 0 3486 0 0 2992 0 0 2926 0 0 3020 0 0 3008 0 0 2947 0 0 3048 0 0 3256 0 0 3010 0 0 3050 0 0 3095 0 0 3096 0 0 3098 0 0 3076 0 0 3024 0 0 3105 0 0 2989 0 0 3003 0 0 2986 0 0 3076 0 0 3015 0 0 2956 0 0 2957 0 0 2827 0 0 2960 0 0 2857 0 0 2723 0 0 1623 0 0 404 0 0 369 0 0 285 0 0 233 0 0 209 0 0 205 0 0 175 0 0 139 0 0 131 0 0 
60 0 0 130 0 0 137 0 0 162 0 0 208 0 0 217 0 0 246 0 0 290 0 0 334 0 0 402 0 0 1578 0 0 2719 0 0 2830 0 0 2832 0 0 2963 0 0 9346 0 0 2876 0 0 2931 0 0 2930 0 0 3019 0 0 3042 0 0 3178 0 0 3174 0 0 3103 0 0 3131 0 0 2997 0 0 3346 0 0 3181 0 0 3119 0 0 3040 0 0 3090 0 0 3939 0 0 3077 0 0 3091 0 0 3003 0 0 3179 0 0 2963 0 0 3587 0 0 3057 0 0 2995 0 0 3151 0 0 3064 0 0 3038 0 0 3154 0 0 2931 0 0 3018 0 0 2821 0 0 2906 0 0 2742 0 0 2801 0 0 1619 0 0 389 0 0 315 0 0 297 0 0 250 0 0 215 0 0 191 0 0 163 0 0 134 0 0 133 0 0 
66 0 0 123 0 0 157 0 0 164 0 0 195 0 0 217 0 0 229 0 0 269 0 0 371 0 0 365 0 0 1676 0 0 2915 0 0 2789 0 0 2891 0 0 2890 0 0 2964 0 0 3539 0 0 2966 0 0 3041 0 0 3030 0 0 3022 0 0 3090 0 0 3335 0 0 3077 0 0 3026 0 0 3126 0 0 2993 0 0 3180 0 0 3024 0 0 3256 0 0 3194 0 0 3051 0 0 3147 0 0 3133 0 0 3031 0 0 3064 0 0 3059 0 0 3086 0 0 3057 0 0 3083 0 0 3062 0 0 3095 0 0 3459 0 0 2885 0 0 2911 0 0 2963 0 0 2933 0 0 2939 0 0 2994 0 0 2810 0 0 1618 0 0 367 0 0 313 0 0 290 0 0 271 0 0 209 0 0 169 0 0 165 0 0 129 0 0 130 0 0 
61 0 0 128 0 0 143 0 0 141 0 0 197 0 0 219 0 0 253 0 0 282 0 0 304 0 0 394 0 0 1587 0 0 2777 0 0 2800 0 0 2820 0 0 2892 0 0 2810 0 0 2986 0 0 2929 0 0 2984 0 0 3035 0 0 4415 0 0 2981 0 0 3057 0 0 2956 0 0 2995 0 0 3097 0 0 3104 0 0 3117 0 0 3088 0 0 3193 0 0 3743 0 0 3175 0 0 3156 0 0 3089 0 0 3158 0 0 2928 0 0 3102 0 0 3049 0 0 3039 0 0 3037 0 0 2860 0 0 2918 0 0 2957 0 0 2922 0 0 2930 0 0 2981 0 0 2818 0 0 2828 0 0 2797 0 0 2739 0 0 1540 0 0 399 0 0 362 0 0 275 0 0 237 0 0 212 0 0 194 0 0 163 0 0 158 0 0 128 0 0 
56 0 0 134 0 0 132 0 0 155 0 0 179 0 0 228 0 0 256 0 0 280 0 0 342 0 0 407 0 0 1547 0 0 2635 0 0 2756 0 0 2915 0 0 2869 0 0 2954 0 0 3075 0 0 3138 0 0 3025 0 0 2914 0 0 3025 0 0 2987 0 0 2947 0 0 3177 0 0 3081 0 0 3028 0 0 3072 0 0 3019 0 0 3281 0 0 3052 0 0 3065 0 0 3073 0 0 2986 0 0 3157 0 0 2881 0 0 3036 0 0 3109 0 0 3064 0 0 3033 0 0 3056 0 0 3055 0 0 3062 0 0 2948 0 0 2968 0 0 3008 0 0 2924 0 0 2905 0 0 2905 0 0 2865 0 0 2728 0 0 1536 0 0 386 0 0 319 0 0 286 0 0 241 0 0 1279 0 0 198 0 0 160 0 0 173 0 0 130 0 0 
53 0 0 126 0 0 143 0 0 164 0 0 187 0 0 210 0 0 269 0 0 287 0 0 319 0 0 393 0 0 1530 0 0 2731 0 0 2823 0 0 2708 0 0 2982 0 0 2862 0 0 3048 0 0 2860 0 0 2835 0 0 3237 0 0 3128 0 0 3593 0 0 3103 0 0 3044 0 0 2942 0 0 3086 0 0 3079 0 0 3074 0 0 3130 0 0 3015 0 0 3158 0 0 3014 0 0 3117 0 0 3219 0 0 3004 0 0 2970 0 0 2946 0 0 3017 0 0 3044 0 0 3036 0 0 2924 0 0 3045 0 0 2946 0 0 2893 0 0 2937 0 0 3023 0 0 2923 0 0 2837 0 0 2987 0 0 2668 0 0 1639 0 0 389 0 0 309 0 0 284 0 0 252 0 0 216 0 0 205 0 0 175 0 0 145 0 0 133 0 0 
53 0 0 120 0 0 147 0 0 159 0 0 173 0 0 193 0 0 232 0 0 276 0 0 338 0 0 396 0 0 1469 0 0 2866 0 0 3023 0 0 2718 0 0 2815 0 0 3048 0 0 3054 0 0 2809 0 0 2961 0 0 3030 0 0 2988 0 0 3053 0 0 3040 0 0 2948 0 0 3007 0 0 3221 0 0 2951 0 0 3125 0 0 3101 0 0 2939 0 0 3189 0 0 2899 0 0 3053 0 0 3001 0 0 3161 0 0 2918 0 0 3020 0 0 3040 0 0 2981 0 0 3017 0 0 3064 0 0 2817 0 0 2958 0 0 2906 0 0 2987 0 0 2903 0 0 2909 0 0 2872 0 0 2835 0 0 2680 0 0 1629 0 0 400 0 0 321 0 0 297 0 0 234 0 0 195 0 0 185 0 0 186 0 0 139 0 0 122 0 0 
50 0 0 113 0 0 134 0 0 151 0 0 180 0 0 195 0 0 246 0 0 266 0 0 311 0 0 362 0 0 1527 0 0 2766 0 0 2879 0 0 2889 0 0 2981 0 0 2826 0 0 2985 0 0 2972 0 0 3007 0 0 2922 0 0 3091 0 0 2923 0 0 3092 0 0 3033 0 0 2976 0 0 3096 0 0 2826 0 0 3052 0 0 2952 0 0 2950 0 0 2986 0 0 2907 0 0 2952 0 0 3131 0 0 3136 0 0 3041 0 0 3030 0 0 3188 0 0 3072 0 0 2943 0 0 3070 0 0 2962 0 0 2956 0 0 2955 0 0 2909 0 0 2939 0 0 2951 0 0 2815 0 0 2800 0 0 2701 0 0 1515 0 0 364 0 0 308 0 0 293 0 0 228 0 0 222 0 0 176 0 0 159 0 0 140 0 0 137 0 0 
60 0 0 119 0 0 134 0 0 150 0 0 184 0 0 200 0 0 223 0 0 285 0 0 314 0 0 355 0 0 1438 0 0 2770 0 0 2793 0 0 2838 0 0 2894 0 0 2843 0 0 3043 0 0 2970 0 0 2937 0 0 3049 0 0 2950 0 0 2881 0 0 2896 0 0 3047 0 0 2949 0 0 3103 0 0 2929 0 0 3456 0 0 3022 0 0 3189 0 0 2986 0 0 3089 0 0 3027 0 0 2926 0 0 2865 0 0 2997 0 0 3130 0 0 3062 0 0 2974 0 0 3034 0 0 3017 0 0 2919 0 0 2919 0 0 3071 0 0 3262 0 0 2901 0 0 2867 0 0 2906 0 0 2796 0 0 2737 0 0 1695 0 0 385 0 0 300 0 0 266 0 0 230 0 0 204 0 0 159 0 0 155 0 0 147 0 0 121 0 0 
50 0 0 115 0 0 137 0 0 156 0 0 174 0 0 197 0 0 235 0 0 247 0 0 297 0 0 365 0 0 1536 0 0 2672 0 0 2828 0 0 2791 0 0 2761 0 0 2915 0 0 2800 0 0 2986 0 0 2914 0 0 2913 0 0 2842 0 0 2955 0 0 3052 0 0 3000 0 0 3020 0 0 3003 0 0 3068 0 0 3031 0 0 2985 0 0 2983 0 0 3004 0 0 2982 0 0 3479 0 0 3027 0 0 2961 0 0 2879 0 0 3000 0 0 3000 0 0 2982 0 0 3074 0 0 2983 0 0 3023 0 0 2904 0 0 2964 0 0 2907 0 0 2844 0 0 2896 0 0 2761 0 0 2803 0 0 2694 0 0 1550 0 0 386 0 0 329 0 0 253 0 0 226 0 0 184 0 0 184 0 0 154 0 0 124 0 0 117 0 0 
56 0 0 106 0 0 139 0 0 135 0 0 185 0 0 193 0 0 232 0 0 237 0 0 315 0 0 386 0 0 1511 0 0 2776 0 0 2782 0 0 2775 0 0 2957 0 0 2848 0 0 2886 0 0 2869 0 0 2942 0 0 2987 0 0 2976 0 0 2997 0 0 2889 0 0 3038 0 0 2911 0 0 2881 0 0 3092 0 0 3027 0 0 3158 0 0 3006 0 0 2957 0 0 3029 0 0 2882 0 0 3955 0 0 3061 0 0 3128 0 0 3110 0 0 3013 0 0 3083 0 0 2970 0 0 2942 0 0 2911 0 0 2917 0 0 2820 0 0 2902 0 0 2971 0 0 2851 0 0 2741 0 0 2661 0 0 2781 0 0 1604 0 0 355 0 0 287 0 0 251 0 0 199 0 0 198 0 0 175 0 0 146 0 0 130 0 0 112 0 0 
55 0 0 118 0 0 133 0 0 150 0 0 160 0 0 195 0 0 223 0 0 261 0 0 286 0 0 332 0 0 1526 0 0 2672 0 0 2716 0 0 2628 0 0 3166 0 0 3010 0 0 2865 0 0 2970 0 0 3054 0 0 2828 0 0 3070 0 0 2915 0 0 3034 0 0 3183 0 0 3025 0 0 3093 0 0 2909 0 0 2878 0 0 3053 0 0 3026 0 0 3036 0 0 3086 0 0 3039 0 0 2980 0 0 2983 0 0 2962 0 0 3026 0 0 2955 0 0 2954 0 0 2992 0 0 2928 0 0 2892 0 0 3054 0 0 2767 0 0 2777 0 0 3567 0 0 2819 0 0 2833 0 0 2735 0 0 2702 0 0 1503 0 0 372 0 0 286 0 0 266 0 0 226 0 0 193 0 0 159 0 0 151 0 0 117 0 0 114 0 0 
42 0 0 123 0 0 126 0 0 129 0 0 164 0 0 170 0 0 210 0 0 241 0 0 276 0 0 344 0 0 1612 0 0 2798 0 0 2679 0 0 2854 0 0 2758 0 0 2841 0 0 2811 0 0 2774 0 0 2851 0 0 2940 0 0 2861 0 0 3070 0 0 2885 0 0 3045 0 0 2896 0 0 2955 0 0 2987 0 0 2889 0 0 2871 0 0 3074 0 0 2919 0 0 3043 0 0 3262 0 0 3019 0 0 2944 0 0 2990 0 0 2972 0 0 2897 0 0 3004 0 0 2814 0 0 2903 0 0 2834 0 0 2968 0 0 2914 0 0 2832 0 0 2968 0 0 2898 0 0 3837 0 0 2706 0 0 2703 0 0 1454 0 0 350 0 0 285 0 0 260 0 0 209 0 0 192 0 0 156 0 0 134 0 0 112 0 0 108 0 0 
46 0 0 108 0 0 123 0 0 141 0 0 164 0 0 175 0 0 198 0 0 240 0 0 259 0 0 345 0 0 1500 0 0 2670 0 0 2749 0 0 2649 0 0 2909 0 0 2655 0 0 2866 0 0 2959 0 0 2862 0 0 2790 0 0 2769 0 0 2995 0 0 2831 0 0 3029 0 0 2968 0 0 2885 0 0 2921 0 0 3011 0 0 2962 0 0 2932 0 0 2880 0 0 3071 0 0 3224 0 0 3064 0 0 2875 0 0 3004 0 0 3020 0 0 2977 0 0 2855 0 0 2996 0 0 2749 0 0 2924 0 0 2886 0 0 2815 0 0 2811 0 0 2898 0 0 2742 0 0 2801 0 0 2616 0 0 2647 0 0 1520 0 0 345 0 0 259 0 0 249 0 0 198 0 0 186 0 0 150 0 0 139 0 0 124 0 0 97 0 0 
43 0 0 109 0 0 111 0 0 136 0 0 164 0 0 169 0 0 197 0 0 215 0 0 240 0 0 321 0 0 1472 0 0 2481 0 0 2681 0 0 2757 0 0 2761 0 0 2845 0 0 2777 0 0 2835 0 0 2888 0 0 2910 0 0 2868 0 0 2861 0 0 2986 0 0 2858 0 0 2937 0 0 2967 0 0 2874 0 0 2783 0 0 2873 0 0 2942 0 0 2782 0 0 2872 0 0 2906 0 0 2775 0 0 2966 0 0 2784 0 0 2854 0 0 3050 0 0 2875 0 0 3032 0 0 2929 0 0 2917 0 0 2929 0 0 2964 0 0 2959 0 0 3122 0 0 2810 0 0 2687 0 0 2726 0 0 2768 0 0 1438 0 0 344 0 0 258 0 0 217 0 0 227 0 0 168 0 0 151 0 0 139 0 0 113 0 0 102 0 0 
41 0 0 105 0 0 118 0 0 137 0 0 155 0 0 164 0 0 195 0 0 220 0 0 250 0 0 310 0 0 1478 0 0 2694 0 0 2747 0 0 2849 0 0 2762 0 0 2810 0 0 2736 0 0 2825 0 0 2861 0 0 2721 0 0 2915 0 0 2760 0 0 2777 0 0 2787 0 0 2903 0 0 2895 0 0 2980 0 0 2728 0 0 2827 0 0 2988 0 0 2882 0 0 3061 0 0 2835 0 0 2894 0 0 2927 0 0 2957 0 0 2940 0 0 2918 0 0 2793 0 0 2823 0 0 2874 0 0 2721 0 0 2827 0 0 2918 0 0 2894 0 0 2785 0 0 2654 0 0 2848 0 0 2690 0 0 2695 0 0 1408 0 0 335 0 0 258 0 0 196 0 0 199 0 0 170 0 0 131 0 0 135 0 0 115 0 0 98 0 0 
41 0 0 99 0 0 107 0 0 130 0 0 137 0 0 149 0 0 189 0 0 200 0 0 247 0 0 288 0 0 1448 0 0 2711 0 0 2630 0 0 2574 0 0 2595 0 0 2906 0 0 2636 0 0 2827 0 0 2828 0 0 2850 0 0 2799 0 0 2830 0 0 2875 0 0 2804 0 0 2930 0 0 2596 0 0 2876 0 0 2824 0 0 2841 0 0 2903 0 0 2787 0 0 2781 0 0 2929 0 0 2825 0 0 2831 0 0 2940 0 0 2946 0 0 2739 0 0 2878 0 0 2810 0 0 2779 0 0 2737 0 0 2902 0 0 2872 0 0 2790 0 0 2920 0 0 2630 0 0 2690 0 0 2600 0 0 2770 0 0 1445 0 0 290 0 0 236 0 0 195 0 0 175 0 0 159 0 0 144 0 0 121 0 0 109 0 0 91 0 0 
40 0 0 90 0 0 89 0 0 108 0 0 123 0 0 162 0 0 179 0 0 208 0 0 243 0 0 275 0 0 1458 0 0 2644 0 0 2630 0 0 2660 0 0 2876 0 0 2722 0 0 2703 0 0 2761 0 0 2693 0 0 2822 0 0 2985 0 0 2682 0 0 2855 0 0 2787 0 0 2755 0 0 2819 0 0 2792 0 0 2986 0 0 2709 0 0 2935 0 0 2916 0 0 2695 0 0 2897 0 0 2882 0 0 2872 0 0 2866 0 0 2671 0 0 2806 0 0 2793 0 0 2682 0 0 2751 0 0 2652 0 0 2794 0 0 2732 0 0 2647 0 0 2700 0 0 2704 0 0 2734 0 0 2449 0 0 2679 0 0 1468 0 0 275 0 0 210 0 0 197 0 0 162 0 0 159 0 0 128 0 0 126 0 0 100 0 0 94 0 0 
38 0 0 79 0 0 98 0 0 115 0 0 128 0 0 143 0 0 157 0 0 176 0 0 183 0 0 261 0 0 1436 0 0 2459 0 0 2578 0 0 2463 0 0 2727 0 0 2551 0 0 2571 0 0 2615 0 0 2771 0 0 2773 0 0 2898 0 0 2916 0 0 2930 0 0 2760 0 0 2810 0 0 2712 0 0 2635 0 0 2803 0 0 2684 0 0 2769 0 0 2648 0 0 2852 0 0 2767 0 0 2807 0 0 2686 0 0 2747 0 0 2802 0 0 2854 0 0 2798 0 0 2737 0 0 2681 0 0 2666 0 0 2712 0 0 2717 0 0 2545 0 0 2667 0 0 2528 0 0 2653 0 0 2706 0 0 2576 0 0 1387 0 0 256 0 0 221 0 0 181 0 0 157 0 0 135 0 0 129 0 0 115 0 0 104 0 0 91 0 0 
33 0 0 87 0 0 78 0 0 100 0 0 115 0 0 123 0 0 150 0 0 171 0 0 180 0 0 237 0 0 801 0 0 1401 0 0 1464 0 0 1462 0 0 1385 0 0 1547 0 0 1549 0 0 1535 0 0 1549 0 0 1562 0 0 1477 0 0 1517 0 0 1619 0 0 1858 0 0 1521 0 0 1573 0 0 1536 0 0 1569 0 0 1574 0 0 1590 0 0 1578 0 0 1554 0 0 1588 0 0 1551 0 0 1550 0 0 1577 0 0 1581 0 0 1553 0 0 1655 0 0 1514 0 0 1541 0 0 1436 0 0 1600 0 0 1562 0 0 1496 0 0 1578 0 0 1436 0 0 1499 0 0 1382 0 0 1446 0 0 790 0 0 243 0 0 177 0 0 166 0 0 145 0 0 128 0 0 113 0 0 105 0 0 87 0 0 79 0 0 
31 0 0 74 0 0 94 0 0 95 0 0 110 0 0 127 0 0 134 0 0 161 0 0 171 0 0 210 0 0 223 0 0 244 0 0 264 0 0 303 0 0 334 0 0 299 0 0 387 0 0 358 0 0 353 0 0 362 0 0 354 0 0 366 0 0 383 0 0 415 0 0 391 0 0 377 0 0 402 0 0 385 0 0 421 0 0 390 0 0 382 0 0 395 0 0 873 0 0 389 0 0 354 0 0 409 0 0 381 0 0 407 0 0 359 0 0 408 0 0 372 0 0 360 0 0 376 0 0 334 0 0 316 0 0 335 0 0 320 0 0 289 0 0 279 0 0 256 0 0 228 0 0 210 0 0 178 0 0 156 0 0 133 0 0 127 0 0 105 0 0 97 0 0 89 0 0 77 0 0 
31 0 0 68 0 0 85 0 0 94 0 0 97 0 0 113 0 0 119 0 0 131 0 0 138 0 0 172 0 0 197 0 0 201 0 0 236 0 0 231 0 0 240 0 0 295 0 0 283 0 0 263 0 0 286 0 0 323 0 0 343 0 0 316 0 0 339 0 0 329 0 0 329 0 0 330 0 0 366 0 0 315 0 0 337 0 0 341 0 0 335 0 0 329 0 0 338 0 0 340 0 0 332 0 0 339 0 0 321 0 0 317 0 0 337 0 0 292 0 0 310 0 0 330 0 0 307 0 0 303 0 0 280 0 0 271 0 0 286 0 0 243 0 0 231 0 0 204 0 0 196 0 0 165 0 0 150 0 0 145 0 0 120 0 0 111 0 0 95 0 0 97 0 0 81 0 0 68 0 0 
26 0 0 65 0 0 71 0 0 76 0 0 98 0 0 99 0 0 105 0 0 107 0 0 129 0 0 138 0 0 175 0 0 177 0 0 206 0 0 204 0 0 224 0 0 232 0 0 259 0 0 257 0 0 251 0 0 255 0 0 268 0 0 257 0 0 240 0 0 265 0 0 273 0 0 287 0 0 286 0 0 269 0 0 296 0 0 299 0 0 272 0 0 256 0 0 307 0 0 272 0 0 292 0 0 259 0 0 281 0 0 290 0 0 281 0 0 257 0 0 266 0 0 257 0 0 272 0 0 243 0 0 237 0 0 250 0 0 223 0 0 191 0 0 185 0 0 196 0 0 165 0 0 148 0 0 132 0 0 124 0 0 121 0 0 106 0 0 89 0 0 88 0 0 66 0 0 68 0 0 
23 0 0 65 0 0 72 0 0 80 0 0 83 0 0 88 0 0 98 0 0 112 0 0 111 0 0 131 0 0 150 0 0 155 0 0 163 0 0 194 0 0 184 0 0 213 0 0 198 0 0 184 0 0 217 0 0 217 0 0 236 0 0 214 0 0 223 0 0 237 0 0 242 0 0 230 0 0 224 0 0 274 0 0 280 0 0 247 0 0 263 0 0 220 0 0 253 0 0 243 0 0 241 0 0 250 0 0 246 0 0 249 0 0 229 0 0 235 0 0 266 0 0 243 0 0 207 0 0 194 0 0 211 0 0 188 0 0 191 0 0 178 0 0 162 0 0 172 0 0 147 0 0 142 0 0 112 0 0 118 0 0 102 0 0 96 0 0 88 0 0 73 0 0 69 0 0 62 0 0 
27 0 0 60 0 0 70 0 0 70 0 0 72 0 0 88 0 0 86 0 0 105 0 0 107 0 0 124 0 0 124 0 0 130 0 0 154 0 0 166 0 0 159 0 0 184 0 0 187 0 0 177 0 0 190 0 0 198 0 0 218 0 0 208 0 0 207 0 0 210 0 0 223 0 0 227 0 0 221 0 0 221 0 0 207 0 0 214 0 0 207 0 0 209 0 0 215 0 0 221 0 0 224 0 0 226 0 0 197 0 0 202 0 0 220 0 0 193 0 0 180 0 0 201 0 0 203 0 0 167 0 0 176 0 0 162 0 0 154 0 0 158 0 0 128 0 0 143 0 0 126 0 0 117 0 0 118 0 0 100 0 0 98 0 0 91 0 0 72 0 0 76 0 0 67 0 0 61 0 0 
23 0 0 48 0 0 58 0 0 69 0 0 70 0 0 84 0 0 86 0 0 93 0 0 108 0 0 112 0 0 104 0 0 113 0 0 131 0 0 148 0 0 144 0 0 148 0 0 143 0 0 169 0 0 162 0 0 166 0 0 159 0 0 169 0 0 170 0 0 187 0 0 184 0 0 204 0 0 183 0 0 191 0 0 183 0 0 185 0 0 182 0 0 207 0 0 175 0 0 181 0 0 186 0 0 200 0 0 177 0 0 199 0 0 179 0 0 175 0 0 183 0 0 177 0 0 161 0 0 171 0 0 160 0 0 151 0 0 142 0 0 134 0 0 130 0 0 127 0 0 106 0 0 104 0 0 101 0 0 91 0 0 86 0 0 89 0 0 72 0 0 61 0 0 55 0 0 47 0 0 
28 0 0 54 0 0 54 0 0 61 0 0 71 0 0 78 0 0 83 0 0 86 0 0 93 0 0 94 0 0 109 0 0 121 0 0 119 0 0 118 0 0 121 0 0 134 0 0 125 0 0 142 0 0 153 0 0 163 0 0 150 0 0 161 0 0 165 0 0 165 0 0 178 0 0 166 0 0 171 0 0 160 0 0 161 0 0 162 0 0 173 0 0 175 0 0 172 0 0 177 0 0 172 0 0 168 0 0 155 0 0 170 0 0 151 0 0 167 0 0 164 0 0 153 0 0 133 0 0 128 0 0 150 0 0 139 0 0 141 0 0 128 0 0 116 0 0 121 0 0 95 0 0 103 0 0 91 0 0 77 0 0 75 0 0 66 0 0 64 0 0 68 0 0 59 0 0 45 0 0 
21 0 0 50 0 0 47 0 0 58 0 0 59 0 0 68 0 0 63 0 0 76 0 0 90 0 0 86 0 0 86 0 0 112 0 0 93 0 0 102 0 0 101 0 0 113 0 0 120 0 0 123 0 0 125 0 0 137 0 0 137 0 0 136 0 0 145 0 0 137 0 0 142 0 0 152 0 0 145 0 0 138 0 0 140 0 0 138 0 0 141 0 0 140 0 0 144 0 0 139 0 0 147 0 0 126 0 0 147 0 0 140 0 0 142 0 0 129 0 0 144 0 0 120 0 0 127 0 0 128 0 0 114 0 0 113 0 0 112 0 0 108 0 0 98 0 0 89 0 0 100 0 0 89 0 0 78 0 0 75 0 0 72 0 0 68 0 0 56 0 0 49 0 0 46 0 0 46 0 0 
22 0 0 37 0 0 45 0 0 51 0 0 51 0 0 55 0 0 58 0 0 65 0 0 70 0 0 81 0 0 85 0 0 81 0 0 81 0 0 104 0 0 99 0 0 118 0 0 98 0 0 102 0 0 116 0 0 119 0 0 113 0 0 122 0 0 126 0 0 121 0 0 121 0 0 126 0 0 131 0 0 124 0 0 120 0 0 124 0 0 116 0 0 130 0 0 122 0 0 141 0 0 133 0 0 119 0 0 127 0 0 130 0 0 127 0 0 109 0 0 116 0 0 99 0 0 104 0 0 104 0 0 106 0 0 100 0 0 105 0 0 91 0 0 92 0 0 92 0 0 84 0 0 78 0 0 80 0 0 65 0 0 66 0 0 53 0 0 59 0 0 48 0 0 43 0 0 38 0 0 
