P3
# This is a dose file slice at depth 52 of 100
60 60
# now we give the maximum value of the RGB coordinates.
4982
7 0 0 19 0 0 19 0 0 21 0 0 20 0 0 23 0 0 28 0 0 25 0 0 27 0 0 26 0 0 35 0 0 31 0 0 33 0 0 36 0 0 35 0 0 38 0 0 36 0 0 38 0 0 39 0 0 48 0 0 41 0 0 47 0 0 45 0 0 42 0 0 46 0 0 46 0 0 40 0 0 51 0 0 43 0 0 43 0 0 42 0 0 52 0 0 35 0 0 44 0 0 40 0 0 46 0 0 43 0 0 45 0 0 45 0 0 40 0 0 43 0 0 41 0 0 40 0 0 42 0 0 36 0 0 42 0 0 40 0 0 35 0 0 26 0 0 30 0 0 29 0 0 32 0 0 30 0 0 21 0 0 24 0 0 21 0 0 21 0 0 21 0 0 24 0 0 19 0 0 
19 0 0 56 0 0 59 0 0 54 0 0 66 0 0 68 0 0 74 0 0 86 0 0 79 0 0 83 0 0 88 0 0 103 0 0 110 0 0 108 0 0 118 0 0 106 0 0 115 0 0 117 0 0 134 0 0 140 0 0 125 0 0 139 0 0 150 0 0 153 0 0 155 0 0 141 0 0 137 0 0 158 0 0 149 0 0 161 0 0 155 0 0 139 0 0 143 0 0 146 0 0 136 0 0 132 0 0 149 0 0 136 0 0 141 0 0 133 0 0 138 0 0 131 0 0 131 0 0 116 0 0 128 0 0 126 0 0 108 0 0 112 0 0 92 0 0 85 0 0 99 0 0 88 0 0 86 0 0 73 0 0 80 0 0 71 0 0 65 0 0 62 0 0 58 0 0 51 0 0 
19 0 0 61 0 0 61 0 0 58 0 0 71 0 0 66 0 0 81 0 0 92 0 0 93 0 0 96 0 0 91 0 0 105 0 0 127 0 0 123 0 0 130 0 0 125 0 0 134 0 0 129 0 0 142 0 0 149 0 0 155 0 0 162 0 0 167 0 0 163 0 0 156 0 0 160 0 0 177 0 0 171 0 0 148 0 0 178 0 0 176 0 0 167 0 0 160 0 0 171 0 0 172 0 0 166 0 0 158 0 0 162 0 0 158 0 0 141 0 0 134 0 0 155 0 0 145 0 0 149 0 0 138 0 0 142 0 0 123 0 0 103 0 0 124 0 0 113 0 0 103 0 0 91 0 0 99 0 0 93 0 0 78 0 0 86 0 0 68 0 0 66 0 0 62 0 0 58 0 0 
21 0 0 61 0 0 66 0 0 80 0 0 80 0 0 86 0 0 101 0 0 101 0 0 104 0 0 104 0 0 125 0 0 128 0 0 127 0 0 124 0 0 163 0 0 148 0 0 136 0 0 167 0 0 149 0 0 190 0 0 168 0 0 182 0 0 173 0 0 171 0 0 185 0 0 183 0 0 190 0 0 190 0 0 177 0 0 173 0 0 187 0 0 183 0 0 184 0 0 171 0 0 167 0 0 198 0 0 188 0 0 182 0 0 173 0 0 164 0 0 160 0 0 163 0 0 154 0 0 173 0 0 163 0 0 150 0 0 132 0 0 134 0 0 137 0 0 132 0 0 120 0 0 113 0 0 100 0 0 97 0 0 90 0 0 95 0 0 85 0 0 81 0 0 66 0 0 56 0 0 
26 0 0 63 0 0 68 0 0 81 0 0 88 0 0 88 0 0 95 0 0 98 0 0 118 0 0 129 0 0 133 0 0 142 0 0 154 0 0 141 0 0 157 0 0 154 0 0 178 0 0 190 0 0 183 0 0 200 0 0 198 0 0 201 0 0 186 0 0 206 0 0 193 0 0 191 0 0 201 0 0 229 0 0 199 0 0 214 0 0 201 0 0 210 0 0 205 0 0 204 0 0 206 0 0 214 0 0 210 0 0 199 0 0 184 0 0 193 0 0 185 0 0 188 0 0 176 0 0 177 0 0 197 0 0 174 0 0 154 0 0 155 0 0 142 0 0 125 0 0 137 0 0 124 0 0 110 0 0 96 0 0 101 0 0 91 0 0 87 0 0 77 0 0 70 0 0 72 0 0 
27 0 0 74 0 0 73 0 0 91 0 0 92 0 0 107 0 0 101 0 0 113 0 0 123 0 0 133 0 0 162 0 0 153 0 0 167 0 0 184 0 0 178 0 0 174 0 0 176 0 0 193 0 0 178 0 0 208 0 0 228 0 0 237 0 0 219 0 0 221 0 0 212 0 0 229 0 0 214 0 0 230 0 0 233 0 0 233 0 0 220 0 0 230 0 0 244 0 0 221 0 0 214 0 0 231 0 0 209 0 0 204 0 0 198 0 0 235 0 0 218 0 0 198 0 0 226 0 0 215 0 0 201 0 0 189 0 0 178 0 0 183 0 0 157 0 0 157 0 0 139 0 0 126 0 0 123 0 0 114 0 0 107 0 0 94 0 0 94 0 0 89 0 0 74 0 0 70 0 0 
25 0 0 73 0 0 95 0 0 102 0 0 107 0 0 113 0 0 128 0 0 129 0 0 132 0 0 143 0 0 163 0 0 171 0 0 173 0 0 203 0 0 185 0 0 198 0 0 206 0 0 225 0 0 220 0 0 225 0 0 239 0 0 252 0 0 245 0 0 243 0 0 265 0 0 271 0 0 239 0 0 257 0 0 276 0 0 259 0 0 259 0 0 266 0 0 245 0 0 255 0 0 267 0 0 241 0 0 249 0 0 246 0 0 239 0 0 257 0 0 226 0 0 251 0 0 241 0 0 218 0 0 198 0 0 217 0 0 200 0 0 183 0 0 173 0 0 159 0 0 140 0 0 154 0 0 139 0 0 120 0 0 122 0 0 111 0 0 95 0 0 91 0 0 82 0 0 71 0 0 
21 0 0 74 0 0 94 0 0 103 0 0 118 0 0 120 0 0 139 0 0 148 0 0 148 0 0 162 0 0 178 0 0 188 0 0 195 0 0 206 0 0 232 0 0 215 0 0 254 0 0 256 0 0 241 0 0 263 0 0 285 0 0 265 0 0 258 0 0 283 0 0 300 0 0 285 0 0 289 0 0 321 0 0 301 0 0 270 0 0 283 0 0 286 0 0 287 0 0 295 0 0 302 0 0 301 0 0 280 0 0 266 0 0 267 0 0 282 0 0 265 0 0 258 0 0 247 0 0 243 0 0 253 0 0 232 0 0 234 0 0 214 0 0 219 0 0 184 0 0 171 0 0 165 0 0 145 0 0 133 0 0 119 0 0 115 0 0 109 0 0 97 0 0 86 0 0 82 0 0 
29 0 0 79 0 0 98 0 0 106 0 0 115 0 0 133 0 0 131 0 0 137 0 0 177 0 0 176 0 0 205 0 0 198 0 0 232 0 0 233 0 0 261 0 0 267 0 0 273 0 0 274 0 0 275 0 0 297 0 0 297 0 0 336 0 0 321 0 0 318 0 0 332 0 0 330 0 0 326 0 0 323 0 0 325 0 0 319 0 0 337 0 0 332 0 0 337 0 0 343 0 0 326 0 0 358 0 0 327 0 0 316 0 0 307 0 0 283 0 0 292 0 0 296 0 0 279 0 0 297 0 0 275 0 0 272 0 0 250 0 0 255 0 0 237 0 0 226 0 0 198 0 0 173 0 0 169 0 0 154 0 0 129 0 0 113 0 0 110 0 0 97 0 0 103 0 0 71 0 0 
28 0 0 95 0 0 101 0 0 111 0 0 124 0 0 130 0 0 146 0 0 163 0 0 176 0 0 186 0 0 221 0 0 232 0 0 293 0 0 285 0 0 290 0 0 285 0 0 328 0 0 341 0 0 344 0 0 352 0 0 372 0 0 353 0 0 364 0 0 373 0 0 376 0 0 396 0 0 378 0 0 399 0 0 383 0 0 389 0 0 397 0 0 389 0 0 378 0 0 388 0 0 372 0 0 391 0 0 379 0 0 389 0 0 358 0 0 341 0 0 364 0 0 334 0 0 347 0 0 323 0 0 323 0 0 297 0 0 296 0 0 282 0 0 273 0 0 254 0 0 223 0 0 200 0 0 176 0 0 163 0 0 145 0 0 132 0 0 110 0 0 105 0 0 96 0 0 87 0 0 
27 0 0 92 0 0 95 0 0 136 0 0 125 0 0 136 0 0 159 0 0 191 0 0 195 0 0 215 0 0 611 0 0 998 0 0 1074 0 0 1056 0 0 1088 0 0 1109 0 0 1108 0 0 1101 0 0 1106 0 0 1106 0 0 1133 0 0 1107 0 0 1110 0 0 1126 0 0 1163 0 0 1139 0 0 1110 0 0 1131 0 0 1165 0 0 1232 0 0 1225 0 0 1170 0 0 1127 0 0 1179 0 0 1208 0 0 1134 0 0 1138 0 0 1197 0 0 1157 0 0 1146 0 0 1111 0 0 1112 0 0 1101 0 0 1095 0 0 1093 0 0 1096 0 0 1043 0 0 1049 0 0 1026 0 0 1000 0 0 625 0 0 219 0 0 194 0 0 185 0 0 162 0 0 132 0 0 126 0 0 119 0 0 99 0 0 81 0 0 
32 0 0 109 0 0 104 0 0 118 0 0 125 0 0 155 0 0 169 0 0 199 0 0 215 0 0 243 0 0 991 0 0 1750 0 0 1822 0 0 1734 0 0 1854 0 0 1896 0 0 1828 0 0 1930 0 0 1904 0 0 1976 0 0 1900 0 0 1954 0 0 1921 0 0 1959 0 0 1927 0 0 1930 0 0 1840 0 0 1920 0 0 1903 0 0 2016 0 0 1912 0 0 1997 0 0 1955 0 0 1997 0 0 1903 0 0 1888 0 0 1995 0 0 1976 0 0 1933 0 0 1881 0 0 1953 0 0 1910 0 0 1874 0 0 1886 0 0 1834 0 0 1852 0 0 1859 0 0 1892 0 0 1774 0 0 1791 0 0 976 0 0 250 0 0 207 0 0 205 0 0 171 0 0 157 0 0 128 0 0 125 0 0 105 0 0 91 0 0 
39 0 0 102 0 0 111 0 0 134 0 0 151 0 0 164 0 0 160 0 0 202 0 0 255 0 0 276 0 0 1020 0 0 1756 0 0 1775 0 0 1924 0 0 1886 0 0 1921 0 0 1936 0 0 1874 0 0 1930 0 0 1971 0 0 1977 0 0 1961 0 0 1960 0 0 1990 0 0 1978 0 0 2016 0 0 2006 0 0 2026 0 0 1981 0 0 2020 0 0 2033 0 0 1980 0 0 2004 0 0 1972 0 0 2004 0 0 2021 0 0 1995 0 0 1958 0 0 1941 0 0 1996 0 0 2004 0 0 1966 0 0 1908 0 0 1927 0 0 1931 0 0 1858 0 0 1864 0 0 1837 0 0 1849 0 0 1841 0 0 1021 0 0 263 0 0 238 0 0 214 0 0 178 0 0 171 0 0 145 0 0 136 0 0 115 0 0 108 0 0 
38 0 0 107 0 0 116 0 0 132 0 0 131 0 0 182 0 0 185 0 0 204 0 0 230 0 0 261 0 0 1059 0 0 1809 0 0 1823 0 0 1893 0 0 1934 0 0 1979 0 0 1930 0 0 2083 0 0 2029 0 0 2040 0 0 1955 0 0 1970 0 0 2010 0 0 2063 0 0 2037 0 0 2071 0 0 2010 0 0 2052 0 0 2077 0 0 2074 0 0 2082 0 0 2028 0 0 2072 0 0 1992 0 0 2037 0 0 2004 0 0 1972 0 0 2067 0 0 1977 0 0 2039 0 0 2036 0 0 1992 0 0 1990 0 0 2026 0 0 1916 0 0 1948 0 0 1895 0 0 1891 0 0 1851 0 0 1815 0 0 1042 0 0 288 0 0 227 0 0 210 0 0 193 0 0 172 0 0 153 0 0 139 0 0 119 0 0 105 0 0 
36 0 0 106 0 0 118 0 0 150 0 0 156 0 0 184 0 0 178 0 0 221 0 0 229 0 0 313 0 0 1078 0 0 1848 0 0 1909 0 0 1996 0 0 1959 0 0 1925 0 0 1942 0 0 2027 0 0 2068 0 0 1967 0 0 2042 0 0 2047 0 0 2020 0 0 2049 0 0 2026 0 0 2079 0 0 2030 0 0 2075 0 0 2051 0 0 1995 0 0 2065 0 0 2029 0 0 2090 0 0 2082 0 0 2076 0 0 2087 0 0 2028 0 0 2100 0 0 2067 0 0 1925 0 0 2029 0 0 2023 0 0 1964 0 0 1973 0 0 1958 0 0 1924 0 0 1958 0 0 1908 0 0 1895 0 0 1788 0 0 1079 0 0 308 0 0 258 0 0 202 0 0 192 0 0 175 0 0 166 0 0 141 0 0 121 0 0 104 0 0 
38 0 0 121 0 0 134 0 0 152 0 0 182 0 0 184 0 0 226 0 0 242 0 0 277 0 0 325 0 0 1087 0 0 1910 0 0 1855 0 0 2012 0 0 1937 0 0 2038 0 0 2008 0 0 2033 0 0 2015 0 0 2062 0 0 2038 0 0 2033 0 0 2087 0 0 2045 0 0 1990 0 0 2076 0 0 2129 0 0 2098 0 0 2075 0 0 2111 0 0 2102 0 0 2108 0 0 2135 0 0 2118 0 0 2104 0 0 2077 0 0 2089 0 0 2052 0 0 2063 0 0 2076 0 0 2000 0 0 2017 0 0 2101 0 0 2012 0 0 2010 0 0 1989 0 0 1931 0 0 1904 0 0 1873 0 0 1801 0 0 1108 0 0 301 0 0 268 0 0 240 0 0 205 0 0 188 0 0 158 0 0 140 0 0 137 0 0 130 0 0 
43 0 0 116 0 0 147 0 0 149 0 0 168 0 0 186 0 0 201 0 0 250 0 0 276 0 0 306 0 0 1112 0 0 1829 0 0 1861 0 0 1957 0 0 1935 0 0 1906 0 0 1999 0 0 1962 0 0 2053 0 0 2047 0 0 2077 0 0 2120 0 0 2030 0 0 2105 0 0 2106 0 0 2062 0 0 2095 0 0 2067 0 0 2154 0 0 2134 0 0 2123 0 0 2114 0 0 2108 0 0 2116 0 0 2141 0 0 2139 0 0 2048 0 0 2063 0 0 2122 0 0 2031 0 0 2089 0 0 2086 0 0 2004 0 0 2033 0 0 2044 0 0 1925 0 0 1869 0 0 1955 0 0 1926 0 0 1877 0 0 1109 0 0 326 0 0 280 0 0 226 0 0 206 0 0 177 0 0 169 0 0 158 0 0 122 0 0 123 0 0 
40 0 0 111 0 0 144 0 0 168 0 0 169 0 0 193 0 0 213 0 0 247 0 0 292 0 0 336 0 0 1094 0 0 1804 0 0 1988 0 0 1991 0 0 1963 0 0 2040 0 0 2044 0 0 2054 0 0 2073 0 0 2091 0 0 1992 0 0 2093 0 0 2092 0 0 2083 0 0 2180 0 0 2129 0 0 2092 0 0 2147 0 0 2096 0 0 2118 0 0 2099 0 0 2086 0 0 2160 0 0 2107 0 0 2066 0 0 2091 0 0 2106 0 0 2148 0 0 2119 0 0 2064 0 0 2074 0 0 2004 0 0 2093 0 0 2050 0 0 2103 0 0 2049 0 0 1947 0 0 1915 0 0 1956 0 0 1922 0 0 1101 0 0 322 0 0 282 0 0 242 0 0 211 0 0 196 0 0 177 0 0 158 0 0 142 0 0 108 0 0 
43 0 0 127 0 0 147 0 0 145 0 0 190 0 0 214 0 0 233 0 0 264 0 0 290 0 0 335 0 0 1141 0 0 1945 0 0 1937 0 0 2032 0 0 2096 0 0 2046 0 0 2033 0 0 2153 0 0 2080 0 0 2079 0 0 2076 0 0 2169 0 0 2146 0 0 2152 0 0 2124 0 0 2162 0 0 2120 0 0 2109 0 0 2114 0 0 2179 0 0 2107 0 0 2181 0 0 2146 0 0 2179 0 0 2142 0 0 2148 0 0 2158 0 0 2172 0 0 2185 0 0 2120 0 0 2133 0 0 2070 0 0 2141 0 0 2076 0 0 1986 0 0 2057 0 0 2021 0 0 2020 0 0 1900 0 0 1877 0 0 1171 0 0 349 0 0 289 0 0 269 0 0 241 0 0 215 0 0 178 0 0 163 0 0 142 0 0 120 0 0 
42 0 0 129 0 0 146 0 0 173 0 0 183 0 0 227 0 0 239 0 0 276 0 0 301 0 0 360 0 0 1086 0 0 1901 0 0 2018 0 0 1954 0 0 1983 0 0 2053 0 0 2052 0 0 2079 0 0 2132 0 0 2075 0 0 2075 0 0 2160 0 0 2137 0 0 2132 0 0 2182 0 0 2171 0 0 2173 0 0 2154 0 0 2199 0 0 2200 0 0 2115 0 0 2098 0 0 2176 0 0 2214 0 0 2103 0 0 2159 0 0 2131 0 0 2171 0 0 2204 0 0 2102 0 0 2106 0 0 2080 0 0 2038 0 0 2044 0 0 2087 0 0 2033 0 0 2021 0 0 1963 0 0 1964 0 0 1938 0 0 1107 0 0 347 0 0 285 0 0 267 0 0 242 0 0 216 0 0 199 0 0 167 0 0 157 0 0 133 0 0 
46 0 0 136 0 0 150 0 0 182 0 0 175 0 0 205 0 0 226 0 0 267 0 0 286 0 0 353 0 0 1181 0 0 1937 0 0 1952 0 0 2002 0 0 1955 0 0 2057 0 0 2053 0 0 2073 0 0 2108 0 0 2086 0 0 2197 0 0 2137 0 0 2224 0 0 2195 0 0 2190 0 0 2161 0 0 2168 0 0 2194 0 0 2184 0 0 2202 0 0 2183 0 0 2113 0 0 2195 0 0 2181 0 0 2168 0 0 2179 0 0 2173 0 0 2190 0 0 2088 0 0 2136 0 0 2101 0 0 2080 0 0 2131 0 0 2142 0 0 2070 0 0 2080 0 0 2039 0 0 1959 0 0 1901 0 0 1909 0 0 1127 0 0 366 0 0 300 0 0 276 0 0 245 0 0 205 0 0 187 0 0 178 0 0 148 0 0 129 0 0 
36 0 0 135 0 0 156 0 0 163 0 0 179 0 0 211 0 0 246 0 0 268 0 0 293 0 0 348 0 0 1155 0 0 1934 0 0 2020 0 0 2087 0 0 2040 0 0 2051 0 0 2087 0 0 2134 0 0 2090 0 0 2153 0 0 2158 0 0 2163 0 0 2124 0 0 2205 0 0 2226 0 0 2239 0 0 2163 0 0 2134 0 0 2183 0 0 2182 0 0 2196 0 0 2212 0 0 2195 0 0 2171 0 0 2235 0 0 2136 0 0 2205 0 0 2139 0 0 2159 0 0 2131 0 0 2183 0 0 2116 0 0 2122 0 0 2191 0 0 2085 0 0 2073 0 0 2044 0 0 1919 0 0 1978 0 0 1902 0 0 1156 0 0 367 0 0 319 0 0 281 0 0 243 0 0 228 0 0 185 0 0 174 0 0 144 0 0 126 0 0 
47 0 0 148 0 0 176 0 0 182 0 0 199 0 0 231 0 0 240 0 0 259 0 0 305 0 0 374 0 0 1155 0 0 1941 0 0 1981 0 0 2024 0 0 2025 0 0 2058 0 0 2121 0 0 2087 0 0 2154 0 0 2154 0 0 2127 0 0 2164 0 0 2156 0 0 2077 0 0 2151 0 0 2189 0 0 2219 0 0 2269 0 0 2189 0 0 2238 0 0 2249 0 0 2256 0 0 2213 0 0 2229 0 0 2213 0 0 2204 0 0 2207 0 0 2151 0 0 2222 0 0 2163 0 0 2116 0 0 2151 0 0 2110 0 0 2157 0 0 2073 0 0 2040 0 0 2018 0 0 2086 0 0 2027 0 0 1926 0 0 1113 0 0 379 0 0 333 0 0 291 0 0 235 0 0 238 0 0 199 0 0 179 0 0 171 0 0 128 0 0 
42 0 0 132 0 0 159 0 0 166 0 0 185 0 0 218 0 0 249 0 0 292 0 0 315 0 0 355 0 0 1151 0 0 1950 0 0 1989 0 0 2022 0 0 2004 0 0 2112 0 0 2103 0 0 2095 0 0 2103 0 0 2166 0 0 2182 0 0 2193 0 0 2166 0 0 2178 0 0 2262 0 0 2212 0 0 2203 0 0 2248 0 0 2212 0 0 2220 0 0 2294 0 0 2258 0 0 2190 0 0 2154 0 0 2193 0 0 2281 0 0 2191 0 0 2227 0 0 2229 0 0 2106 0 0 2091 0 0 2056 0 0 2133 0 0 2100 0 0 2175 0 0 2052 0 0 2037 0 0 2122 0 0 2008 0 0 1893 0 0 1146 0 0 396 0 0 340 0 0 289 0 0 249 0 0 226 0 0 215 0 0 165 0 0 158 0 0 144 0 0 
52 0 0 136 0 0 167 0 0 176 0 0 210 0 0 226 0 0 258 0 0 265 0 0 327 0 0 390 0 0 1169 0 0 1960 0 0 2017 0 0 2024 0 0 2081 0 0 2041 0 0 2059 0 0 2110 0 0 2109 0 0 2117 0 0 2116 0 0 2179 0 0 2130 0 0 2163 0 0 2146 0 0 2206 0 0 2151 0 0 2228 0 0 2265 0 0 2229 0 0 2196 0 0 2239 0 0 2231 0 0 2221 0 0 2225 0 0 2241 0 0 2162 0 0 2248 0 0 2198 0 0 2116 0 0 2139 0 0 2085 0 0 2127 0 0 2109 0 0 2066 0 0 2056 0 0 2056 0 0 2030 0 0 1932 0 0 1886 0 0 1168 0 0 362 0 0 343 0 0 282 0 0 246 0 0 242 0 0 201 0 0 180 0 0 177 0 0 151 0 0 
49 0 0 145 0 0 157 0 0 191 0 0 203 0 0 223 0 0 247 0 0 290 0 0 318 0 0 383 0 0 1163 0 0 1941 0 0 2009 0 0 2010 0 0 2029 0 0 2077 0 0 2073 0 0 2195 0 0 2093 0 0 2146 0 0 2082 0 0 2156 0 0 2148 0 0 2179 0 0 2229 0 0 2197 0 0 2226 0 0 2296 0 0 2293 0 0 2239 0 0 2171 0 0 2219 0 0 2202 0 0 2180 0 0 2249 0 0 2163 0 0 2211 0 0 2174 0 0 2150 0 0 2232 0 0 2148 0 0 2103 0 0 2125 0 0 2123 0 0 2094 0 0 2102 0 0 2120 0 0 2053 0 0 1997 0 0 1939 0 0 1170 0 0 363 0 0 328 0 0 274 0 0 264 0 0 235 0 0 211 0 0 187 0 0 163 0 0 151 0 0 
47 0 0 146 0 0 165 0 0 197 0 0 206 0 0 239 0 0 264 0 0 275 0 0 312 0 0 379 0 0 1171 0 0 1950 0 0 1989 0 0 2004 0 0 2123 0 0 2127 0 0 2086 0 0 2126 0 0 2065 0 0 2193 0 0 2156 0 0 2199 0 0 2137 0 0 2254 0 0 2190 0 0 2226 0 0 2276 0 0 2184 0 0 2325 0 0 2226 0 0 2262 0 0 2211 0 0 2250 0 0 2260 0 0 2233 0 0 2160 0 0 2277 0 0 2190 0 0 2213 0 0 2220 0 0 2142 0 0 2143 0 0 2098 0 0 2123 0 0 2059 0 0 2113 0 0 2150 0 0 2091 0 0 1955 0 0 1958 0 0 1130 0 0 388 0 0 337 0 0 298 0 0 254 0 0 244 0 0 208 0 0 180 0 0 166 0 0 146 0 0 
54 0 0 153 0 0 168 0 0 185 0 0 198 0 0 226 0 0 272 0 0 267 0 0 346 0 0 395 0 0 1143 0 0 1943 0 0 1986 0 0 2098 0 0 2064 0 0 2052 0 0 2183 0 0 2104 0 0 2120 0 0 2108 0 0 2158 0 0 2157 0 0 2213 0 0 2177 0 0 2121 0 0 2185 0 0 2207 0 0 2269 0 0 2292 0 0 2239 0 0 2242 0 0 2203 0 0 2231 0 0 2267 0 0 2181 0 0 2144 0 0 2211 0 0 2194 0 0 2126 0 0 2171 0 0 2179 0 0 2196 0 0 2136 0 0 2124 0 0 2109 0 0 2152 0 0 2051 0 0 2019 0 0 2057 0 0 1919 0 0 1237 0 0 372 0 0 325 0 0 300 0 0 263 0 0 224 0 0 201 0 0 192 0 0 170 0 0 157 0 0 
46 0 0 140 0 0 161 0 0 197 0 0 219 0 0 220 0 0 255 0 0 295 0 0 340 0 0 382 0 0 1156 0 0 1915 0 0 2012 0 0 2097 0 0 2023 0 0 2090 0 0 2083 0 0 2054 0 0 2104 0 0 2139 0 0 2195 0 0 2153 0 0 2105 0 0 2227 0 0 2228 0 0 2194 0 0 2259 0 0 2228 0 0 2160 0 0 2210 0 0 2269 0 0 2219 0 0 2315 0 0 2252 0 0 2237 0 0 2187 0 0 2252 0 0 2188 0 0 2246 0 0 2167 0 0 2179 0 0 2131 0 0 2142 0 0 2068 0 0 2071 0 0 2140 0 0 2019 0 0 2037 0 0 1928 0 0 1936 0 0 1127 0 0 384 0 0 323 0 0 298 0 0 264 0 0 231 0 0 199 0 0 174 0 0 164 0 0 142 0 0 
48 0 0 148 0 0 176 0 0 196 0 0 205 0 0 239 0 0 274 0 0 290 0 0 329 0 0 385 0 0 1124 0 0 1996 0 0 2045 0 0 2003 0 0 2022 0 0 2075 0 0 2163 0 0 2165 0 0 2134 0 0 2183 0 0 2142 0 0 2167 0 0 2171 0 0 2265 0 0 2273 0 0 2272 0 0 2203 0 0 2256 0 0 2214 0 0 2236 0 0 2286 0 0 2303 0 0 2188 0 0 2180 0 0 2244 0 0 2149 0 0 2167 0 0 2233 0 0 2197 0 0 2195 0 0 2224 0 0 2114 0 0 2142 0 0 2149 0 0 2118 0 0 2104 0 0 2029 0 0 1985 0 0 1962 0 0 1910 0 0 1149 0 0 378 0 0 326 0 0 281 0 0 254 0 0 231 0 0 223 0 0 190 0 0 164 0 0 159 0 0 
46 0 0 150 0 0 159 0 0 173 0 0 218 0 0 220 0 0 254 0 0 297 0 0 345 0 0 374 0 0 1116 0 0 1901 0 0 1981 0 0 2048 0 0 2056 0 0 2077 0 0 2146 0 0 2137 0 0 2183 0 0 2126 0 0 2188 0 0 2201 0 0 2211 0 0 2278 0 0 2225 0 0 2238 0 0 2152 0 0 2255 0 0 2307 0 0 2245 0 0 2279 0 0 2277 0 0 2261 0 0 2210 0 0 2266 0 0 2269 0 0 2289 0 0 2163 0 0 2200 0 0 2246 0 0 2156 0 0 2138 0 0 2143 0 0 2043 0 0 2110 0 0 2159 0 0 2050 0 0 1994 0 0 1991 0 0 1882 0 0 1215 0 0 353 0 0 355 0 0 307 0 0 248 0 0 203 0 0 206 0 0 168 0 0 170 0 0 138 0 0 
53 0 0 148 0 0 181 0 0 196 0 0 208 0 0 221 0 0 263 0 0 302 0 0 315 0 0 401 0 0 1160 0 0 1865 0 0 2005 0 0 2018 0 0 2048 0 0 2077 0 0 2063 0 0 2139 0 0 2136 0 0 2093 0 0 2156 0 0 2183 0 0 2105 0 0 2217 0 0 2173 0 0 2318 0 0 2215 0 0 2232 0 0 2181 0 0 2269 0 0 2266 0 0 2253 0 0 2254 0 0 2237 0 0 2212 0 0 2095 0 0 2175 0 0 2201 0 0 2186 0 0 2173 0 0 2188 0 0 2179 0 0 2173 0 0 2132 0 0 2136 0 0 2061 0 0 2118 0 0 2100 0 0 2044 0 0 1958 0 0 1168 0 0 399 0 0 327 0 0 279 0 0 251 0 0 252 0 0 209 0 0 202 0 0 174 0 0 138 0 0 
40 0 0 140 0 0 176 0 0 180 0 0 206 0 0 223 0 0 256 0 0 281 0 0 322 0 0 383 0 0 1163 0 0 1976 0 0 1977 0 0 1956 0 0 2064 0 0 2073 0 0 2114 0 0 2109 0 0 2049 0 0 2134 0 0 2112 0 0 2199 0 0 2242 0 0 2279 0 0 2164 0 0 2218 0 0 2191 0 0 2258 0 0 2239 0 0 2227 0 0 2214 0 0 2280 0 0 2249 0 0 2287 0 0 2350 0 0 2171 0 0 2247 0 0 2180 0 0 2215 0 0 2165 0 0 2201 0 0 2142 0 0 2211 0 0 2221 0 0 2082 0 0 2134 0 0 2028 0 0 2027 0 0 2031 0 0 1917 0 0 1118 0 0 379 0 0 338 0 0 291 0 0 249 0 0 238 0 0 216 0 0 191 0 0 170 0 0 138 0 0 
50 0 0 149 0 0 173 0 0 199 0 0 227 0 0 226 0 0 254 0 0 277 0 0 324 0 0 388 0 0 1149 0 0 1990 0 0 2025 0 0 2081 0 0 2065 0 0 2135 0 0 2083 0 0 2146 0 0 2146 0 0 2210 0 0 2141 0 0 2200 0 0 2252 0 0 2187 0 0 2148 0 0 2182 0 0 2223 0 0 2209 0 0 2194 0 0 2284 0 0 2171 0 0 2267 0 0 2283 0 0 2276 0 0 2169 0 0 2233 0 0 2206 0 0 2134 0 0 2212 0 0 2215 0 0 2197 0 0 2229 0 0 2101 0 0 2097 0 0 2083 0 0 2080 0 0 2082 0 0 2036 0 0 2008 0 0 1881 0 0 1165 0 0 391 0 0 335 0 0 293 0 0 250 0 0 232 0 0 214 0 0 198 0 0 173 0 0 145 0 0 
46 0 0 133 0 0 164 0 0 172 0 0 213 0 0 241 0 0 241 0 0 287 0 0 329 0 0 368 0 0 1164 0 0 1909 0 0 1991 0 0 2079 0 0 1993 0 0 2115 0 0 2153 0 0 2148 0 0 2220 0 0 2174 0 0 2112 0 0 2208 0 0 2248 0 0 2227 0 0 2173 0 0 2255 0 0 2258 0 0 2220 0 0 2227 0 0 2273 0 0 2212 0 0 2276 0 0 2215 0 0 2268 0 0 2210 0 0 2257 0 0 2214 0 0 2157 0 0 2154 0 0 2204 0 0 2062 0 0 2136 0 0 2109 0 0 2144 0 0 2102 0 0 2138 0 0 2052 0 0 1989 0 0 2001 0 0 1955 0 0 1119 0 0 422 0 0 297 0 0 303 0 0 264 0 0 228 0 0 216 0 0 195 0 0 170 0 0 143 0 0 
45 0 0 132 0 0 158 0 0 201 0 0 199 0 0 224 0 0 276 0 0 287 0 0 304 0 0 376 0 0 1177 0 0 1901 0 0 1996 0 0 2021 0 0 2150 0 0 2069 0 0 2118 0 0 2075 0 0 2068 0 0 2117 0 0 2111 0 0 2143 0 0 2135 0 0 2164 0 0 2184 0 0 2182 0 0 2213 0 0 2200 0 0 2221 0 0 2262 0 0 2247 0 0 2237 0 0 2164 0 0 2242 0 0 2228 0 0 2208 0 0 2248 0 0 2179 0 0 2148 0 0 2146 0 0 2190 0 0 2196 0 0 2166 0 0 2097 0 0 2132 0 0 2122 0 0 2053 0 0 2007 0 0 1998 0 0 1921 0 0 1160 0 0 378 0 0 353 0 0 307 0 0 249 0 0 223 0 0 211 0 0 174 0 0 165 0 0 142 0 0 
42 0 0 141 0 0 154 0 0 185 0 0 207 0 0 243 0 0 249 0 0 302 0 0 282 0 0 395 0 0 1141 0 0 1936 0 0 1963 0 0 2033 0 0 2048 0 0 2082 0 0 2087 0 0 2074 0 0 2176 0 0 2154 0 0 2191 0 0 2097 0 0 2177 0 0 2216 0 0 2195 0 0 2194 0 0 2275 0 0 2218 0 0 2164 0 0 2255 0 0 2231 0 0 2225 0 0 2209 0 0 2266 0 0 2232 0 0 2195 0 0 2132 0 0 2177 0 0 2157 0 0 2133 0 0 2045 0 0 2111 0 0 2114 0 0 2190 0 0 2109 0 0 2082 0 0 2063 0 0 2017 0 0 2005 0 0 1923 0 0 1197 0 0 401 0 0 324 0 0 277 0 0 264 0 0 227 0 0 206 0 0 184 0 0 172 0 0 147 0 0 
45 0 0 132 0 0 153 0 0 176 0 0 205 0 0 217 0 0 272 0 0 267 0 0 320 0 0 367 0 0 1116 0 0 1978 0 0 2051 0 0 2018 0 0 2053 0 0 2117 0 0 2079 0 0 2135 0 0 2038 0 0 2124 0 0 2143 0 0 2128 0 0 2195 0 0 2166 0 0 2188 0 0 2152 0 0 2215 0 0 2228 0 0 2216 0 0 2260 0 0 2177 0 0 2220 0 0 2202 0 0 2129 0 0 2220 0 0 2141 0 0 2187 0 0 2164 0 0 2224 0 0 2123 0 0 2210 0 0 2157 0 0 2069 0 0 2119 0 0 2082 0 0 2051 0 0 2077 0 0 1963 0 0 2012 0 0 1984 0 0 1158 0 0 381 0 0 323 0 0 294 0 0 239 0 0 214 0 0 211 0 0 175 0 0 160 0 0 136 0 0 
40 0 0 145 0 0 167 0 0 165 0 0 203 0 0 206 0 0 236 0 0 279 0 0 330 0 0 388 0 0 1171 0 0 1928 0 0 2025 0 0 2054 0 0 2033 0 0 2071 0 0 2104 0 0 2149 0 0 2156 0 0 2151 0 0 2115 0 0 2154 0 0 2230 0 0 2150 0 0 2189 0 0 2205 0 0 2213 0 0 2231 0 0 2208 0 0 2192 0 0 2156 0 0 2132 0 0 2162 0 0 2126 0 0 2241 0 0 2133 0 0 2163 0 0 2169 0 0 2059 0 0 2142 0 0 2113 0 0 2075 0 0 2142 0 0 2116 0 0 2049 0 0 2067 0 0 2035 0 0 2008 0 0 1994 0 0 1854 0 0 1124 0 0 364 0 0 323 0 0 269 0 0 262 0 0 224 0 0 201 0 0 161 0 0 143 0 0 152 0 0 
46 0 0 134 0 0 154 0 0 166 0 0 198 0 0 196 0 0 240 0 0 262 0 0 296 0 0 368 0 0 1131 0 0 1972 0 0 1997 0 0 1995 0 0 1983 0 0 2075 0 0 2119 0 0 2110 0 0 2102 0 0 2156 0 0 2120 0 0 2105 0 0 2160 0 0 2175 0 0 2148 0 0 2203 0 0 2216 0 0 2128 0 0 2227 0 0 2178 0 0 2229 0 0 2133 0 0 2144 0 0 2208 0 0 2183 0 0 2216 0 0 2173 0 0 2192 0 0 2157 0 0 2218 0 0 2081 0 0 2095 0 0 2097 0 0 2080 0 0 2106 0 0 2062 0 0 1984 0 0 2025 0 0 2022 0 0 1950 0 0 1156 0 0 348 0 0 308 0 0 259 0 0 250 0 0 231 0 0 188 0 0 174 0 0 156 0 0 126 0 0 
40 0 0 125 0 0 147 0 0 173 0 0 177 0 0 210 0 0 228 0 0 270 0 0 299 0 0 374 0 0 1170 0 0 1921 0 0 1945 0 0 1948 0 0 2046 0 0 2039 0 0 2065 0 0 2031 0 0 2073 0 0 2099 0 0 2225 0 0 2067 0 0 2108 0 0 2176 0 0 2190 0 0 2198 0 0 2138 0 0 2220 0 0 2143 0 0 2167 0 0 2184 0 0 2174 0 0 2225 0 0 2177 0 0 2120 0 0 2094 0 0 2107 0 0 2160 0 0 2170 0 0 2154 0 0 2163 0 0 2095 0 0 2127 0 0 2103 0 0 2128 0 0 2103 0 0 2037 0 0 1952 0 0 1949 0 0 1839 0 0 1106 0 0 363 0 0 302 0 0 268 0 0 232 0 0 222 0 0 190 0 0 159 0 0 164 0 0 121 0 0 
43 0 0 128 0 0 144 0 0 163 0 0 177 0 0 209 0 0 235 0 0 263 0 0 316 0 0 348 0 0 1136 0 0 1894 0 0 1991 0 0 1951 0 0 2033 0 0 1999 0 0 2045 0 0 2079 0 0 2059 0 0 2134 0 0 2184 0 0 2067 0 0 2197 0 0 2132 0 0 2164 0 0 2081 0 0 2117 0 0 2186 0 0 2140 0 0 2169 0 0 2215 0 0 2181 0 0 2201 0 0 2141 0 0 2119 0 0 2160 0 0 2189 0 0 2137 0 0 2112 0 0 2101 0 0 2071 0 0 2100 0 0 2045 0 0 2069 0 0 2065 0 0 2059 0 0 2003 0 0 2031 0 0 1981 0 0 1832 0 0 1129 0 0 349 0 0 311 0 0 248 0 0 229 0 0 215 0 0 193 0 0 171 0 0 156 0 0 134 0 0 
38 0 0 130 0 0 150 0 0 151 0 0 174 0 0 204 0 0 216 0 0 257 0 0 293 0 0 339 0 0 1119 0 0 1901 0 0 1904 0 0 1958 0 0 2038 0 0 2022 0 0 2046 0 0 2146 0 0 2142 0 0 2174 0 0 2116 0 0 2117 0 0 2101 0 0 2120 0 0 2201 0 0 2103 0 0 2160 0 0 2052 0 0 2190 0 0 2083 0 0 2138 0 0 2119 0 0 2131 0 0 2070 0 0 2151 0 0 2137 0 0 2162 0 0 2179 0 0 2176 0 0 2107 0 0 2103 0 0 2113 0 0 2028 0 0 2057 0 0 1990 0 0 2043 0 0 1983 0 0 2038 0 0 1884 0 0 1875 0 0 1118 0 0 349 0 0 295 0 0 260 0 0 215 0 0 224 0 0 194 0 0 156 0 0 144 0 0 135 0 0 
36 0 0 117 0 0 153 0 0 151 0 0 176 0 0 195 0 0 223 0 0 243 0 0 259 0 0 328 0 0 1118 0 0 1856 0 0 1916 0 0 1950 0 0 2029 0 0 2086 0 0 2060 0 0 2090 0 0 2015 0 0 2057 0 0 2134 0 0 2091 0 0 2139 0 0 2166 0 0 2113 0 0 2149 0 0 2136 0 0 2179 0 0 2181 0 0 2170 0 0 2188 0 0 2107 0 0 2097 0 0 2154 0 0 2165 0 0 2061 0 0 2155 0 0 2155 0 0 2145 0 0 2065 0 0 2113 0 0 2064 0 0 2012 0 0 2029 0 0 2058 0 0 1994 0 0 1932 0 0 1940 0 0 1973 0 0 1818 0 0 1086 0 0 323 0 0 280 0 0 255 0 0 221 0 0 197 0 0 165 0 0 147 0 0 141 0 0 120 0 0 
42 0 0 114 0 0 135 0 0 163 0 0 165 0 0 192 0 0 225 0 0 232 0 0 271 0 0 345 0 0 1080 0 0 1866 0 0 1909 0 0 1947 0 0 1987 0 0 2040 0 0 2075 0 0 2075 0 0 2035 0 0 2115 0 0 2083 0 0 2019 0 0 2075 0 0 2060 0 0 2066 0 0 2101 0 0 2154 0 0 2182 0 0 2126 0 0 2132 0 0 2092 0 0 2129 0 0 2121 0 0 2082 0 0 2079 0 0 2129 0 0 2099 0 0 2102 0 0 2128 0 0 2028 0 0 2040 0 0 2005 0 0 2025 0 0 2007 0 0 1998 0 0 2048 0 0 1987 0 0 2012 0 0 1944 0 0 1845 0 0 1073 0 0 343 0 0 278 0 0 236 0 0 235 0 0 188 0 0 168 0 0 150 0 0 138 0 0 126 0 0 
33 0 0 121 0 0 124 0 0 161 0 0 157 0 0 192 0 0 193 0 0 240 0 0 264 0 0 331 0 0 1118 0 0 1826 0 0 1883 0 0 1987 0 0 1909 0 0 2012 0 0 1973 0 0 1994 0 0 2050 0 0 2135 0 0 2033 0 0 1981 0 0 2066 0 0 2109 0 0 2093 0 0 2086 0 0 2095 0 0 2108 0 0 2055 0 0 2061 0 0 2113 0 0 2104 0 0 2141 0 0 2152 0 0 2093 0 0 2140 0 0 2106 0 0 2104 0 0 2002 0 0 2051 0 0 2030 0 0 1994 0 0 2105 0 0 2029 0 0 2004 0 0 1966 0 0 1982 0 0 1927 0 0 1852 0 0 1843 0 0 1093 0 0 338 0 0 277 0 0 236 0 0 208 0 0 185 0 0 181 0 0 157 0 0 131 0 0 108 0 0 
42 0 0 105 0 0 140 0 0 151 0 0 152 0 0 181 0 0 210 0 0 234 0 0 253 0 0 294 0 0 1052 0 0 1863 0 0 1868 0 0 1927 0 0 1917 0 0 1921 0 0 1968 0 0 2044 0 0 2056 0 0 1999 0 0 2038 0 0 2034 0 0 2101 0 0 2018 0 0 2074 0 0 2026 0 0 2033 0 0 2056 0 0 2053 0 0 2071 0 0 2060 0 0 2129 0 0 2051 0 0 2138 0 0 2072 0 0 2100 0 0 2049 0 0 2092 0 0 2109 0 0 2036 0 0 2054 0 0 2079 0 0 1966 0 0 2008 0 0 1978 0 0 1957 0 0 1894 0 0 1995 0 0 1904 0 0 1936 0 0 1058 0 0 301 0 0 253 0 0 214 0 0 191 0 0 176 0 0 155 0 0 142 0 0 125 0 0 118 0 0 
33 0 0 102 0 0 111 0 0 135 0 0 144 0 0 176 0 0 201 0 0 203 0 0 251 0 0 313 0 0 1059 0 0 1868 0 0 1820 0 0 1921 0 0 1893 0 0 1949 0 0 1959 0 0 1939 0 0 1974 0 0 2038 0 0 1971 0 0 1938 0 0 2041 0 0 2003 0 0 2006 0 0 2041 0 0 2034 0 0 1971 0 0 1987 0 0 2032 0 0 2004 0 0 2027 0 0 1997 0 0 1966 0 0 2031 0 0 2029 0 0 2010 0 0 2053 0 0 2010 0 0 2002 0 0 1922 0 0 1928 0 0 1976 0 0 2036 0 0 2014 0 0 1946 0 0 1953 0 0 1832 0 0 1868 0 0 1793 0 0 1080 0 0 285 0 0 249 0 0 215 0 0 166 0 0 184 0 0 163 0 0 138 0 0 119 0 0 105 0 0 
31 0 0 107 0 0 98 0 0 122 0 0 134 0 0 155 0 0 179 0 0 184 0 0 212 0 0 266 0 0 1040 0 0 1780 0 0 1850 0 0 1891 0 0 1924 0 0 1876 0 0 1929 0 0 1943 0 0 1955 0 0 1954 0 0 1994 0 0 1996 0 0 1972 0 0 1991 0 0 1997 0 0 1958 0 0 2033 0 0 1975 0 0 2002 0 0 1949 0 0 2036 0 0 2047 0 0 1901 0 0 2047 0 0 1990 0 0 2002 0 0 1926 0 0 1938 0 0 1946 0 0 1998 0 0 1977 0 0 1955 0 0 2026 0 0 1918 0 0 1933 0 0 1932 0 0 1847 0 0 1910 0 0 1861 0 0 1749 0 0 1025 0 0 247 0 0 220 0 0 223 0 0 190 0 0 155 0 0 167 0 0 126 0 0 120 0 0 101 0 0 
32 0 0 97 0 0 106 0 0 124 0 0 135 0 0 162 0 0 175 0 0 192 0 0 209 0 0 250 0 0 1021 0 0 1854 0 0 1849 0 0 1821 0 0 1813 0 0 1901 0 0 1869 0 0 1913 0 0 1905 0 0 1934 0 0 1962 0 0 1868 0 0 1884 0 0 1886 0 0 1852 0 0 1850 0 0 1895 0 0 1940 0 0 1910 0 0 1958 0 0 1951 0 0 1904 0 0 1975 0 0 1965 0 0 1910 0 0 1900 0 0 1942 0 0 1921 0 0 1956 0 0 1867 0 0 1955 0 0 1881 0 0 1892 0 0 1923 0 0 1905 0 0 1823 0 0 1882 0 0 1784 0 0 1862 0 0 1743 0 0 1000 0 0 251 0 0 211 0 0 189 0 0 179 0 0 144 0 0 141 0 0 121 0 0 110 0 0 113 0 0 
32 0 0 96 0 0 109 0 0 109 0 0 130 0 0 144 0 0 153 0 0 164 0 0 187 0 0 226 0 0 605 0 0 968 0 0 1024 0 0 1089 0 0 1055 0 0 1076 0 0 1116 0 0 1110 0 0 1084 0 0 1132 0 0 1168 0 0 1157 0 0 1121 0 0 1130 0 0 1168 0 0 1145 0 0 1159 0 0 1198 0 0 1204 0 0 1138 0 0 1189 0 0 1212 0 0 1156 0 0 1192 0 0 1140 0 0 1169 0 0 1132 0 0 1146 0 0 1149 0 0 1162 0 0 1159 0 0 1093 0 0 1096 0 0 1146 0 0 1071 0 0 1036 0 0 1076 0 0 1049 0 0 1003 0 0 980 0 0 609 0 0 225 0 0 188 0 0 168 0 0 166 0 0 140 0 0 125 0 0 120 0 0 105 0 0 97 0 0 
35 0 0 88 0 0 98 0 0 113 0 0 129 0 0 131 0 0 149 0 0 161 0 0 180 0 0 181 0 0 221 0 0 259 0 0 276 0 0 292 0 0 305 0 0 335 0 0 322 0 0 328 0 0 358 0 0 364 0 0 344 0 0 354 0 0 388 0 0 357 0 0 352 0 0 369 0 0 384 0 0 389 0 0 395 0 0 368 0 0 401 0 0 390 0 0 370 0 0 397 0 0 377 0 0 389 0 0 389 0 0 370 0 0 372 0 0 374 0 0 346 0 0 339 0 0 331 0 0 320 0 0 319 0 0 321 0 0 286 0 0 275 0 0 280 0 0 254 0 0 212 0 0 195 0 0 194 0 0 164 0 0 138 0 0 132 0 0 114 0 0 115 0 0 106 0 0 76 0 0 
31 0 0 84 0 0 90 0 0 111 0 0 116 0 0 122 0 0 129 0 0 157 0 0 166 0 0 169 0 0 190 0 0 201 0 0 227 0 0 237 0 0 256 0 0 264 0 0 276 0 0 298 0 0 301 0 0 312 0 0 301 0 0 305 0 0 312 0 0 313 0 0 342 0 0 303 0 0 349 0 0 331 0 0 324 0 0 328 0 0 333 0 0 321 0 0 338 0 0 344 0 0 339 0 0 336 0 0 330 0 0 297 0 0 309 0 0 315 0 0 309 0 0 304 0 0 311 0 0 296 0 0 285 0 0 268 0 0 262 0 0 253 0 0 226 0 0 193 0 0 198 0 0 156 0 0 176 0 0 136 0 0 136 0 0 113 0 0 106 0 0 105 0 0 89 0 0 92 0 0 
28 0 0 81 0 0 88 0 0 91 0 0 108 0 0 125 0 0 108 0 0 138 0 0 158 0 0 159 0 0 173 0 0 191 0 0 199 0 0 210 0 0 228 0 0 237 0 0 224 0 0 257 0 0 269 0 0 246 0 0 270 0 0 274 0 0 257 0 0 265 0 0 272 0 0 282 0 0 297 0 0 304 0 0 303 0 0 288 0 0 299 0 0 304 0 0 300 0 0 295 0 0 291 0 0 293 0 0 292 0 0 277 0 0 260 0 0 261 0 0 275 0 0 250 0 0 254 0 0 237 0 0 244 0 0 228 0 0 231 0 0 212 0 0 195 0 0 175 0 0 171 0 0 159 0 0 147 0 0 146 0 0 121 0 0 112 0 0 100 0 0 94 0 0 83 0 0 84 0 0 
26 0 0 77 0 0 75 0 0 85 0 0 98 0 0 116 0 0 120 0 0 127 0 0 140 0 0 149 0 0 157 0 0 185 0 0 177 0 0 195 0 0 201 0 0 209 0 0 228 0 0 218 0 0 224 0 0 265 0 0 247 0 0 235 0 0 238 0 0 253 0 0 260 0 0 253 0 0 263 0 0 259 0 0 241 0 0 263 0 0 283 0 0 263 0 0 258 0 0 254 0 0 255 0 0 284 0 0 259 0 0 267 0 0 233 0 0 250 0 0 245 0 0 230 0 0 214 0 0 226 0 0 201 0 0 198 0 0 202 0 0 182 0 0 176 0 0 181 0 0 157 0 0 158 0 0 130 0 0 129 0 0 113 0 0 114 0 0 92 0 0 97 0 0 90 0 0 78 0 0 
22 0 0 67 0 0 71 0 0 82 0 0 91 0 0 96 0 0 105 0 0 104 0 0 128 0 0 133 0 0 148 0 0 149 0 0 158 0 0 169 0 0 187 0 0 192 0 0 185 0 0 191 0 0 196 0 0 208 0 0 212 0 0 207 0 0 235 0 0 223 0 0 219 0 0 223 0 0 227 0 0 225 0 0 225 0 0 221 0 0 244 0 0 237 0 0 246 0 0 218 0 0 246 0 0 233 0 0 225 0 0 201 0 0 201 0 0 235 0 0 224 0 0 204 0 0 211 0 0 198 0 0 180 0 0 184 0 0 182 0 0 156 0 0 164 0 0 165 0 0 146 0 0 131 0 0 125 0 0 110 0 0 100 0 0 105 0 0 105 0 0 82 0 0 85 0 0 76 0 0 
21 0 0 72 0 0 78 0 0 74 0 0 79 0 0 94 0 0 95 0 0 103 0 0 115 0 0 121 0 0 143 0 0 125 0 0 143 0 0 158 0 0 137 0 0 167 0 0 182 0 0 173 0 0 177 0 0 193 0 0 196 0 0 204 0 0 196 0 0 214 0 0 194 0 0 207 0 0 222 0 0 205 0 0 221 0 0 201 0 0 198 0 0 210 0 0 201 0 0 203 0 0 212 0 0 206 0 0 197 0 0 190 0 0 199 0 0 201 0 0 186 0 0 198 0 0 175 0 0 172 0 0 157 0 0 169 0 0 165 0 0 156 0 0 140 0 0 127 0 0 140 0 0 128 0 0 113 0 0 107 0 0 100 0 0 88 0 0 78 0 0 75 0 0 74 0 0 65 0 0 
21 0 0 64 0 0 69 0 0 75 0 0 68 0 0 100 0 0 91 0 0 102 0 0 108 0 0 126 0 0 118 0 0 119 0 0 129 0 0 136 0 0 127 0 0 130 0 0 151 0 0 154 0 0 175 0 0 170 0 0 160 0 0 181 0 0 167 0 0 176 0 0 159 0 0 191 0 0 187 0 0 182 0 0 178 0 0 174 0 0 190 0 0 193 0 0 178 0 0 180 0 0 171 0 0 177 0 0 180 0 0 171 0 0 165 0 0 176 0 0 162 0 0 178 0 0 158 0 0 158 0 0 167 0 0 144 0 0 138 0 0 123 0 0 128 0 0 130 0 0 124 0 0 110 0 0 106 0 0 99 0 0 94 0 0 80 0 0 75 0 0 75 0 0 67 0 0 68 0 0 
19 0 0 61 0 0 63 0 0 70 0 0 73 0 0 78 0 0 84 0 0 85 0 0 93 0 0 85 0 0 108 0 0 100 0 0 113 0 0 133 0 0 126 0 0 123 0 0 147 0 0 138 0 0 144 0 0 142 0 0 147 0 0 162 0 0 160 0 0 159 0 0 168 0 0 169 0 0 155 0 0 159 0 0 182 0 0 163 0 0 171 0 0 165 0 0 162 0 0 168 0 0 157 0 0 154 0 0 172 0 0 156 0 0 169 0 0 142 0 0 151 0 0 156 0 0 121 0 0 149 0 0 140 0 0 130 0 0 125 0 0 129 0 0 123 0 0 105 0 0 107 0 0 100 0 0 96 0 0 89 0 0 90 0 0 74 0 0 78 0 0 77 0 0 59 0 0 68 0 0 
20 0 0 57 0 0 53 0 0 61 0 0 57 0 0 72 0 0 77 0 0 76 0 0 89 0 0 80 0 0 94 0 0 90 0 0 112 0 0 112 0 0 107 0 0 113 0 0 118 0 0 137 0 0 135 0 0 128 0 0 125 0 0 136 0 0 146 0 0 150 0 0 143 0 0 138 0 0 136 0 0 141 0 0 144 0 0 135 0 0 141 0 0 152 0 0 141 0 0 145 0 0 141 0 0 151 0 0 151 0 0 149 0 0 144 0 0 135 0 0 137 0 0 146 0 0 134 0 0 108 0 0 121 0 0 122 0 0 107 0 0 110 0 0 114 0 0 94 0 0 87 0 0 95 0 0 79 0 0 74 0 0 76 0 0 70 0 0 60 0 0 65 0 0 48 0 0 47 0 0 
