P3
# This is a dose file slice at depth 0 of 100
60 60
# now we give the maximum value of the RGB coordinates.
5550
3 0 0 5 0 0 10 0 0 5 0 0 9 0 0 4 0 0 5 0 0 14 0 0 8 0 0 14 0 0 15 0 0 12 0 0 17 0 0 15 0 0 15 0 0 11 0 0 17 0 0 14 0 0 18 0 0 9 0 0 18 0 0 19 0 0 17 0 0 15 0 0 15 0 0 20 0 0 14 0 0 24 0 0 20 0 0 15 0 0 11 0 0 17 0 0 20 0 0 18 0 0 20 0 0 25 0 0 14 0 0 16 0 0 16 0 0 19 0 0 17 0 0 14 0 0 17 0 0 16 0 0 21 0 0 11 0 0 14 0 0 6 0 0 9 0 0 14 0 0 8 0 0 16 0 0 11 0 0 10 0 0 9 0 0 13 0 0 11 0 0 9 0 0 13 0 0 13 0 0 
8 0 0 17 0 0 21 0 0 24 0 0 14 0 0 14 0 0 21 0 0 15 0 0 18 0 0 20 0 0 22 0 0 24 0 0 24 0 0 36 0 0 30 0 0 36 0 0 26 0 0 44 0 0 32 0 0 36 0 0 28 0 0 37 0 0 34 0 0 35 0 0 31 0 0 55 0 0 40 0 0 38 0 0 36 0 0 55 0 0 26 0 0 32 0 0 39 0 0 27 0 0 39 0 0 40 0 0 34 0 0 27 0 0 34 0 0 38 0 0 37 0 0 36 0 0 37 0 0 33 0 0 31 0 0 33 0 0 27 0 0 29 0 0 28 0 0 36 0 0 23 0 0 27 0 0 32 0 0 14 0 0 17 0 0 16 0 0 26 0 0 21 0 0 20 0 0 13 0 0 
9 0 0 21 0 0 25 0 0 18 0 0 18 0 0 22 0 0 19 0 0 22 0 0 35 0 0 20 0 0 34 0 0 29 0 0 26 0 0 31 0 0 38 0 0 28 0 0 40 0 0 36 0 0 34 0 0 28 0 0 43 0 0 41 0 0 39 0 0 52 0 0 36 0 0 47 0 0 37 0 0 53 0 0 43 0 0 49 0 0 30 0 0 37 0 0 52 0 0 57 0 0 43 0 0 35 0 0 44 0 0 42 0 0 28 0 0 39 0 0 39 0 0 40 0 0 26 0 0 41 0 0 33 0 0 38 0 0 39 0 0 29 0 0 23 0 0 29 0 0 29 0 0 24 0 0 38 0 0 21 0 0 33 0 0 25 0 0 15 0 0 23 0 0 22 0 0 19 0 0 
9 0 0 21 0 0 16 0 0 33 0 0 16 0 0 30 0 0 27 0 0 25 0 0 30 0 0 20 0 0 41 0 0 32 0 0 40 0 0 26 0 0 29 0 0 39 0 0 46 0 0 36 0 0 38 0 0 46 0 0 37 0 0 36 0 0 45 0 0 55 0 0 44 0 0 53 0 0 45 0 0 44 0 0 48 0 0 48 0 0 43 0 0 49 0 0 50 0 0 37 0 0 49 0 0 49 0 0 45 0 0 40 0 0 42 0 0 39 0 0 42 0 0 38 0 0 43 0 0 42 0 0 32 0 0 31 0 0 35 0 0 21 0 0 41 0 0 32 0 0 28 0 0 19 0 0 24 0 0 24 0 0 24 0 0 17 0 0 17 0 0 31 0 0 29 0 0 15 0 0 
7 0 0 22 0 0 17 0 0 23 0 0 24 0 0 20 0 0 32 0 0 18 0 0 28 0 0 22 0 0 23 0 0 42 0 0 36 0 0 47 0 0 37 0 0 34 0 0 44 0 0 43 0 0 33 0 0 47 0 0 37 0 0 43 0 0 37 0 0 51 0 0 41 0 0 48 0 0 42 0 0 34 0 0 53 0 0 51 0 0 47 0 0 50 0 0 56 0 0 53 0 0 52 0 0 52 0 0 41 0 0 40 0 0 48 0 0 46 0 0 45 0 0 59 0 0 45 0 0 45 0 0 44 0 0 59 0 0 42 0 0 30 0 0 44 0 0 37 0 0 31 0 0 30 0 0 35 0 0 29 0 0 29 0 0 23 0 0 23 0 0 20 0 0 17 0 0 15 0 0 
7 0 0 21 0 0 25 0 0 26 0 0 18 0 0 35 0 0 24 0 0 35 0 0 30 0 0 30 0 0 39 0 0 24 0 0 36 0 0 42 0 0 46 0 0 49 0 0 55 0 0 42 0 0 48 0 0 55 0 0 50 0 0 45 0 0 53 0 0 57 0 0 54 0 0 54 0 0 56 0 0 48 0 0 64 0 0 46 0 0 49 0 0 57 0 0 54 0 0 59 0 0 55 0 0 59 0 0 35 0 0 45 0 0 55 0 0 75 0 0 44 0 0 49 0 0 56 0 0 48 0 0 46 0 0 52 0 0 37 0 0 51 0 0 39 0 0 38 0 0 41 0 0 27 0 0 46 0 0 16 0 0 25 0 0 26 0 0 23 0 0 27 0 0 21 0 0 17 0 0 
8 0 0 21 0 0 20 0 0 21 0 0 31 0 0 35 0 0 32 0 0 29 0 0 36 0 0 41 0 0 26 0 0 41 0 0 51 0 0 40 0 0 43 0 0 48 0 0 54 0 0 53 0 0 43 0 0 53 0 0 49 0 0 58 0 0 59 0 0 61 0 0 59 0 0 43 0 0 60 0 0 51 0 0 55 0 0 67 0 0 52 0 0 48 0 0 67 0 0 46 0 0 61 0 0 70 0 0 58 0 0 71 0 0 58 0 0 60 0 0 49 0 0 49 0 0 58 0 0 52 0 0 44 0 0 35 0 0 35 0 0 37 0 0 53 0 0 47 0 0 39 0 0 35 0 0 29 0 0 31 0 0 36 0 0 30 0 0 31 0 0 23 0 0 37 0 0 23 0 0 
7 0 0 20 0 0 27 0 0 26 0 0 26 0 0 19 0 0 30 0 0 32 0 0 35 0 0 34 0 0 47 0 0 51 0 0 60 0 0 44 0 0 53 0 0 60 0 0 56 0 0 49 0 0 62 0 0 52 0 0 52 0 0 54 0 0 62 0 0 58 0 0 65 0 0 70 0 0 55 0 0 70 0 0 64 0 0 68 0 0 53 0 0 65 0 0 55 0 0 61 0 0 69 0 0 69 0 0 60 0 0 79 0 0 74 0 0 65 0 0 56 0 0 65 0 0 64 0 0 52 0 0 38 0 0 57 0 0 58 0 0 55 0 0 63 0 0 45 0 0 55 0 0 38 0 0 39 0 0 23 0 0 32 0 0 33 0 0 36 0 0 24 0 0 29 0 0 21 0 0 
8 0 0 32 0 0 37 0 0 29 0 0 28 0 0 42 0 0 31 0 0 35 0 0 35 0 0 35 0 0 42 0 0 52 0 0 46 0 0 62 0 0 53 0 0 58 0 0 58 0 0 47 0 0 64 0 0 64 0 0 61 0 0 66 0 0 83 0 0 85 0 0 74 0 0 82 0 0 74 0 0 89 0 0 79 0 0 78 0 0 94 0 0 68 0 0 86 0 0 65 0 0 81 0 0 63 0 0 80 0 0 69 0 0 54 0 0 80 0 0 70 0 0 62 0 0 76 0 0 61 0 0 64 0 0 51 0 0 56 0 0 59 0 0 54 0 0 52 0 0 37 0 0 34 0 0 37 0 0 29 0 0 32 0 0 30 0 0 29 0 0 24 0 0 32 0 0 25 0 0 
14 0 0 21 0 0 33 0 0 33 0 0 35 0 0 19 0 0 27 0 0 41 0 0 38 0 0 43 0 0 55 0 0 56 0 0 71 0 0 57 0 0 68 0 0 72 0 0 62 0 0 63 0 0 86 0 0 76 0 0 89 0 0 92 0 0 94 0 0 85 0 0 93 0 0 77 0 0 86 0 0 100 0 0 84 0 0 77 0 0 86 0 0 81 0 0 83 0 0 91 0 0 92 0 0 94 0 0 92 0 0 72 0 0 87 0 0 75 0 0 68 0 0 73 0 0 72 0 0 74 0 0 69 0 0 68 0 0 57 0 0 64 0 0 51 0 0 54 0 0 54 0 0 54 0 0 39 0 0 38 0 0 47 0 0 39 0 0 20 0 0 23 0 0 23 0 0 25 0 0 
14 0 0 27 0 0 25 0 0 31 0 0 41 0 0 40 0 0 34 0 0 44 0 0 38 0 0 51 0 0 676 0 0 1300 0 0 1288 0 0 1226 0 0 1307 0 0 1273 0 0 1330 0 0 1357 0 0 1347 0 0 1256 0 0 1367 0 0 1305 0 0 1292 0 0 1247 0 0 1318 0 0 1293 0 0 1313 0 0 1273 0 0 1291 0 0 1283 0 0 1341 0 0 1347 0 0 1309 0 0 1311 0 0 1365 0 0 1211 0 0 1278 0 0 1270 0 0 1309 0 0 1304 0 0 1283 0 0 1321 0 0 1282 0 0 1312 0 0 1289 0 0 1332 0 0 1289 0 0 1295 0 0 1293 0 0 1277 0 0 636 0 0 61 0 0 44 0 0 25 0 0 45 0 0 40 0 0 36 0 0 34 0 0 32 0 0 23 0 0 
12 0 0 23 0 0 29 0 0 25 0 0 28 0 0 34 0 0 36 0 0 44 0 0 49 0 0 61 0 0 1285 0 0 2586 0 0 2520 0 0 2482 0 0 2499 0 0 2542 0 0 2458 0 0 2523 0 0 2485 0 0 2556 0 0 2643 0 0 2539 0 0 2579 0 0 2558 0 0 2497 0 0 2510 0 0 2534 0 0 2486 0 0 2621 0 0 2603 0 0 2609 0 0 2556 0 0 2518 0 0 2433 0 0 2540 0 0 2554 0 0 2609 0 0 2602 0 0 2608 0 0 2539 0 0 2579 0 0 2537 0 0 2578 0 0 2488 0 0 2581 0 0 2583 0 0 2565 0 0 2558 0 0 2599 0 0 2580 0 0 1278 0 0 45 0 0 49 0 0 53 0 0 38 0 0 52 0 0 33 0 0 34 0 0 33 0 0 26 0 0 
14 0 0 31 0 0 31 0 0 28 0 0 34 0 0 34 0 0 48 0 0 41 0 0 55 0 0 54 0 0 1270 0 0 2494 0 0 2500 0 0 2514 0 0 2546 0 0 2557 0 0 2494 0 0 2522 0 0 2507 0 0 2586 0 0 2572 0 0 2505 0 0 2530 0 0 2588 0 0 2506 0 0 2629 0 0 2515 0 0 2534 0 0 2598 0 0 2603 0 0 2579 0 0 2489 0 0 2529 0 0 2560 0 0 2551 0 0 2467 0 0 2516 0 0 2515 0 0 2520 0 0 2599 0 0 2511 0 0 2610 0 0 2647 0 0 2583 0 0 2522 0 0 2517 0 0 2480 0 0 2527 0 0 2535 0 0 2528 0 0 1319 0 0 59 0 0 54 0 0 41 0 0 45 0 0 37 0 0 41 0 0 23 0 0 41 0 0 31 0 0 
11 0 0 23 0 0 26 0 0 37 0 0 39 0 0 41 0 0 40 0 0 41 0 0 52 0 0 51 0 0 1271 0 0 2453 0 0 2510 0 0 2542 0 0 2585 0 0 2551 0 0 2531 0 0 2564 0 0 2551 0 0 2577 0 0 2564 0 0 2595 0 0 2500 0 0 2575 0 0 2495 0 0 2628 0 0 2563 0 0 2576 0 0 2512 0 0 2562 0 0 2593 0 0 2466 0 0 2566 0 0 2558 0 0 2526 0 0 2459 0 0 2641 0 0 2549 0 0 2556 0 0 2492 0 0 2596 0 0 2586 0 0 2635 0 0 2582 0 0 2459 0 0 2504 0 0 2592 0 0 2474 0 0 2472 0 0 2515 0 0 1278 0 0 76 0 0 47 0 0 33 0 0 43 0 0 34 0 0 44 0 0 33 0 0 35 0 0 31 0 0 
9 0 0 33 0 0 34 0 0 45 0 0 29 0 0 43 0 0 37 0 0 58 0 0 61 0 0 70 0 0 1323 0 0 2517 0 0 2560 0 0 2669 0 0 2567 0 0 2421 0 0 2502 0 0 2614 0 0 2645 0 0 2579 0 0 2483 0 0 2555 0 0 2614 0 0 2653 0 0 2586 0 0 2519 0 0 2603 0 0 2641 0 0 2605 0 0 2533 0 0 2575 0 0 2600 0 0 2619 0 0 2513 0 0 2565 0 0 2600 0 0 2612 0 0 2511 0 0 2584 0 0 2634 0 0 2626 0 0 2554 0 0 2572 0 0 2630 0 0 2546 0 0 2639 0 0 2583 0 0 2604 0 0 2695 0 0 2482 0 0 1328 0 0 57 0 0 64 0 0 58 0 0 55 0 0 48 0 0 47 0 0 34 0 0 32 0 0 32 0 0 
15 0 0 33 0 0 21 0 0 36 0 0 43 0 0 44 0 0 51 0 0 49 0 0 65 0 0 72 0 0 1256 0 0 2482 0 0 2483 0 0 2565 0 0 2517 0 0 2575 0 0 2581 0 0 2600 0 0 2573 0 0 2634 0 0 2556 0 0 2628 0 0 2581 0 0 2650 0 0 2606 0 0 2577 0 0 2618 0 0 2594 0 0 2487 0 0 2597 0 0 2480 0 0 2627 0 0 2637 0 0 2571 0 0 2555 0 0 2635 0 0 2508 0 0 2542 0 0 2541 0 0 2470 0 0 2532 0 0 2486 0 0 2633 0 0 2515 0 0 2540 0 0 2650 0 0 2566 0 0 2449 0 0 2524 0 0 2533 0 0 1350 0 0 80 0 0 67 0 0 63 0 0 37 0 0 49 0 0 29 0 0 35 0 0 35 0 0 31 0 0 
25 0 0 33 0 0 36 0 0 36 0 0 43 0 0 52 0 0 56 0 0 67 0 0 61 0 0 64 0 0 1282 0 0 2624 0 0 2508 0 0 2491 0 0 2556 0 0 2481 0 0 2595 0 0 2540 0 0 2541 0 0 2643 0 0 2663 0 0 2529 0 0 2566 0 0 2647 0 0 2523 0 0 2564 0 0 2672 0 0 2584 0 0 2589 0 0 2515 0 0 2573 0 0 2597 0 0 2576 0 0 2673 0 0 2507 0 0 2551 0 0 2444 0 0 2536 0 0 2530 0 0 2544 0 0 2577 0 0 2587 0 0 2647 0 0 2586 0 0 2503 0 0 2579 0 0 2525 0 0 2596 0 0 2510 0 0 2520 0 0 1313 0 0 68 0 0 59 0 0 54 0 0 38 0 0 43 0 0 38 0 0 41 0 0 41 0 0 27 0 0 
7 0 0 27 0 0 35 0 0 32 0 0 45 0 0 52 0 0 39 0 0 54 0 0 73 0 0 74 0 0 1303 0 0 2542 0 0 2559 0 0 2503 0 0 2521 0 0 2492 0 0 2619 0 0 2680 0 0 2552 0 0 2613 0 0 2650 0 0 2616 0 0 2547 0 0 2633 0 0 2577 0 0 2601 0 0 2650 0 0 2669 0 0 2499 0 0 2618 0 0 2633 0 0 2534 0 0 2677 0 0 2535 0 0 2498 0 0 2515 0 0 2418 0 0 2568 0 0 2582 0 0 2550 0 0 2544 0 0 2579 0 0 2468 0 0 2569 0 0 2594 0 0 2574 0 0 2519 0 0 2552 0 0 2596 0 0 2493 0 0 1295 0 0 65 0 0 66 0 0 59 0 0 44 0 0 55 0 0 39 0 0 31 0 0 37 0 0 34 0 0 
12 0 0 19 0 0 37 0 0 39 0 0 50 0 0 46 0 0 63 0 0 64 0 0 63 0 0 87 0 0 1244 0 0 2583 0 0 2526 0 0 2564 0 0 2597 0 0 2458 0 0 2614 0 0 2547 0 0 2465 0 0 2577 0 0 2604 0 0 2612 0 0 2567 0 0 2575 0 0 2639 0 0 2579 0 0 2737 0 0 2518 0 0 2487 0 0 2607 0 0 2520 0 0 2524 0 0 2589 0 0 2542 0 0 2572 0 0 2500 0 0 2676 0 0 2665 0 0 2618 0 0 2558 0 0 2503 0 0 2502 0 0 2609 0 0 2571 0 0 2531 0 0 2512 0 0 2565 0 0 2574 0 0 2563 0 0 2485 0 0 1295 0 0 95 0 0 65 0 0 63 0 0 46 0 0 52 0 0 43 0 0 36 0 0 38 0 0 26 0 0 
20 0 0 30 0 0 39 0 0 42 0 0 43 0 0 50 0 0 46 0 0 59 0 0 74 0 0 72 0 0 1376 0 0 2514 0 0 2596 0 0 2490 0 0 2502 0 0 2611 0 0 2507 0 0 2557 0 0 2588 0 0 2511 0 0 2618 0 0 2548 0 0 2554 0 0 2575 0 0 2516 0 0 2608 0 0 2713 0 0 2543 0 0 2575 0 0 2624 0 0 2627 0 0 2622 0 0 2600 0 0 2574 0 0 2662 0 0 2534 0 0 2600 0 0 2534 0 0 2495 0 0 2583 0 0 2597 0 0 2577 0 0 2606 0 0 2600 0 0 2523 0 0 2619 0 0 2568 0 0 2564 0 0 2563 0 0 2548 0 0 1310 0 0 82 0 0 68 0 0 57 0 0 46 0 0 41 0 0 48 0 0 31 0 0 36 0 0 29 0 0 
16 0 0 34 0 0 29 0 0 50 0 0 44 0 0 58 0 0 46 0 0 81 0 0 77 0 0 83 0 0 1273 0 0 2606 0 0 2539 0 0 2659 0 0 2625 0 0 2518 0 0 2597 0 0 2549 0 0 2639 0 0 2573 0 0 2500 0 0 2498 0 0 2562 0 0 2571 0 0 2583 0 0 2496 0 0 2548 0 0 2590 0 0 2523 0 0 2537 0 0 2586 0 0 2611 0 0 2557 0 0 2578 0 0 2569 0 0 2558 0 0 2546 0 0 2577 0 0 2576 0 0 2491 0 0 2586 0 0 2514 0 0 2591 0 0 2580 0 0 2419 0 0 2631 0 0 2549 0 0 2653 0 0 2523 0 0 2548 0 0 1375 0 0 91 0 0 76 0 0 63 0 0 63 0 0 47 0 0 31 0 0 41 0 0 33 0 0 28 0 0 
18 0 0 29 0 0 27 0 0 37 0 0 41 0 0 43 0 0 57 0 0 60 0 0 74 0 0 79 0 0 1326 0 0 2510 0 0 2582 0 0 2515 0 0 2516 0 0 2508 0 0 2571 0 0 2587 0 0 2531 0 0 2650 0 0 2585 0 0 2616 0 0 2592 0 0 2623 0 0 2538 0 0 2580 0 0 2660 0 0 2661 0 0 2609 0 0 2592 0 0 2662 0 0 2622 0 0 2573 0 0 2612 0 0 2527 0 0 2581 0 0 2575 0 0 2652 0 0 2559 0 0 2477 0 0 2591 0 0 2524 0 0 2512 0 0 2534 0 0 2712 0 0 2571 0 0 2579 0 0 2564 0 0 2472 0 0 2522 0 0 1230 0 0 75 0 0 65 0 0 61 0 0 55 0 0 41 0 0 43 0 0 43 0 0 31 0 0 27 0 0 
15 0 0 29 0 0 40 0 0 34 0 0 53 0 0 54 0 0 56 0 0 68 0 0 90 0 0 71 0 0 1278 0 0 2587 0 0 2538 0 0 2527 0 0 2625 0 0 2611 0 0 2592 0 0 2566 0 0 2598 0 0 2611 0 0 2563 0 0 2478 0 0 2609 0 0 2603 0 0 2687 0 0 2573 0 0 2644 0 0 2652 0 0 2647 0 0 2587 0 0 2531 0 0 2615 0 0 2586 0 0 2663 0 0 2550 0 0 2660 0 0 2658 0 0 2581 0 0 2610 0 0 2594 0 0 2580 0 0 2586 0 0 2642 0 0 2629 0 0 2585 0 0 2502 0 0 2532 0 0 2619 0 0 2666 0 0 2521 0 0 1339 0 0 96 0 0 76 0 0 60 0 0 61 0 0 45 0 0 43 0 0 33 0 0 29 0 0 34 0 0 
8 0 0 32 0 0 45 0 0 40 0 0 44 0 0 58 0 0 55 0 0 61 0 0 82 0 0 99 0 0 1256 0 0 2581 0 0 2547 0 0 2383 0 0 2564 0 0 2559 0 0 2722 0 0 2597 0 0 2466 0 0 2599 0 0 2670 0 0 2537 0 0 2553 0 0 2520 0 0 2552 0 0 2579 0 0 2696 0 0 2634 0 0 2574 0 0 2624 0 0 2539 0 0 2598 0 0 2662 0 0 2546 0 0 2642 0 0 2475 0 0 2727 0 0 2562 0 0 2685 0 0 2599 0 0 2563 0 0 2577 0 0 2544 0 0 2615 0 0 2528 0 0 2630 0 0 2653 0 0 2568 0 0 2592 0 0 2578 0 0 1365 0 0 80 0 0 75 0 0 77 0 0 69 0 0 69 0 0 45 0 0 48 0 0 44 0 0 48 0 0 
14 0 0 37 0 0 45 0 0 33 0 0 43 0 0 50 0 0 63 0 0 64 0 0 89 0 0 76 0 0 1295 0 0 2457 0 0 2528 0 0 2556 0 0 2537 0 0 2491 0 0 2640 0 0 2536 0 0 2454 0 0 2719 0 0 2599 0 0 2502 0 0 2545 0 0 2554 0 0 2572 0 0 2585 0 0 2565 0 0 2653 0 0 2496 0 0 2563 0 0 2556 0 0 2601 0 0 2624 0 0 2672 0 0 2684 0 0 2576 0 0 2562 0 0 2611 0 0 2661 0 0 2591 0 0 2565 0 0 2540 0 0 2614 0 0 2611 0 0 2552 0 0 2683 0 0 2541 0 0 2507 0 0 2517 0 0 2585 0 0 1272 0 0 105 0 0 78 0 0 70 0 0 58 0 0 45 0 0 52 0 0 50 0 0 55 0 0 37 0 0 
12 0 0 31 0 0 37 0 0 41 0 0 51 0 0 65 0 0 54 0 0 69 0 0 86 0 0 74 0 0 1292 0 0 2585 0 0 2577 0 0 2585 0 0 2598 0 0 2582 0 0 2492 0 0 2580 0 0 2584 0 0 2547 0 0 2591 0 0 2625 0 0 2437 0 0 2590 0 0 2556 0 0 2535 0 0 2608 0 0 2535 0 0 2681 0 0 2629 0 0 2665 0 0 2555 0 0 2642 0 0 2614 0 0 2593 0 0 2573 0 0 2513 0 0 2590 0 0 2586 0 0 2653 0 0 2622 0 0 2682 0 0 2637 0 0 2655 0 0 2605 0 0 2629 0 0 2561 0 0 2567 0 0 2645 0 0 2572 0 0 1302 0 0 80 0 0 74 0 0 60 0 0 48 0 0 69 0 0 54 0 0 54 0 0 31 0 0 44 0 0 
20 0 0 44 0 0 48 0 0 43 0 0 50 0 0 55 0 0 64 0 0 76 0 0 72 0 0 71 0 0 1236 0 0 2625 0 0 2455 0 0 2392 0 0 2444 0 0 2561 0 0 2511 0 0 2596 0 0 2653 0 0 2586 0 0 2572 0 0 2568 0 0 2600 0 0 2603 0 0 2606 0 0 2671 0 0 2579 0 0 2609 0 0 2578 0 0 2703 0 0 2573 0 0 2718 0 0 2660 0 0 2649 0 0 2611 0 0 2649 0 0 2597 0 0 2675 0 0 2568 0 0 2551 0 0 2520 0 0 2547 0 0 2644 0 0 2588 0 0 2553 0 0 2534 0 0 2526 0 0 2606 0 0 2570 0 0 2518 0 0 1357 0 0 86 0 0 74 0 0 59 0 0 47 0 0 49 0 0 47 0 0 55 0 0 32 0 0 42 0 0 
17 0 0 30 0 0 40 0 0 38 0 0 45 0 0 59 0 0 62 0 0 62 0 0 64 0 0 70 0 0 1308 0 0 2516 0 0 2556 0 0 2624 0 0 2586 0 0 2648 0 0 2551 0 0 2490 0 0 2600 0 0 2590 0 0 2558 0 0 2589 0 0 2584 0 0 2723 0 0 2675 0 0 2621 0 0 2649 0 0 2566 0 0 2630 0 0 2637 0 0 2573 0 0 2577 0 0 2595 0 0 2621 0 0 2574 0 0 2495 0 0 2681 0 0 2571 0 0 2542 0 0 2603 0 0 2626 0 0 2620 0 0 2626 0 0 2441 0 0 2601 0 0 2573 0 0 2679 0 0 2571 0 0 2528 0 0 2492 0 0 1343 0 0 85 0 0 96 0 0 62 0 0 55 0 0 49 0 0 44 0 0 46 0 0 34 0 0 40 0 0 
12 0 0 43 0 0 35 0 0 56 0 0 46 0 0 57 0 0 65 0 0 67 0 0 64 0 0 82 0 0 1308 0 0 2586 0 0 2471 0 0 2549 0 0 2553 0 0 2627 0 0 2612 0 0 2605 0 0 2645 0 0 2640 0 0 2545 0 0 2665 0 0 2656 0 0 2546 0 0 2720 0 0 2683 0 0 2584 0 0 2616 0 0 2608 0 0 2574 0 0 2643 0 0 2664 0 0 2651 0 0 2668 0 0 2577 0 0 2576 0 0 2584 0 0 2589 0 0 2587 0 0 2549 0 0 2643 0 0 2532 0 0 2669 0 0 2487 0 0 2547 0 0 2512 0 0 2421 0 0 2557 0 0 2547 0 0 2538 0 0 1247 0 0 92 0 0 82 0 0 60 0 0 81 0 0 53 0 0 50 0 0 37 0 0 32 0 0 34 0 0 
31 0 0 28 0 0 33 0 0 49 0 0 70 0 0 60 0 0 72 0 0 63 0 0 80 0 0 77 0 0 1342 0 0 2570 0 0 2558 0 0 2675 0 0 2642 0 0 2602 0 0 2537 0 0 2563 0 0 2528 0 0 2535 0 0 2582 0 0 2631 0 0 2649 0 0 2584 0 0 2700 0 0 2521 0 0 2721 0 0 2578 0 0 2645 0 0 2631 0 0 2644 0 0 2569 0 0 2662 0 0 2584 0 0 2626 0 0 2588 0 0 2663 0 0 2568 0 0 2628 0 0 2637 0 0 2539 0 0 2659 0 0 2576 0 0 2617 0 0 2593 0 0 2557 0 0 2525 0 0 2556 0 0 2509 0 0 2543 0 0 1282 0 0 79 0 0 81 0 0 72 0 0 56 0 0 61 0 0 48 0 0 41 0 0 39 0 0 40 0 0 
14 0 0 42 0 0 26 0 0 36 0 0 52 0 0 56 0 0 63 0 0 72 0 0 76 0 0 89 0 0 1306 0 0 2575 0 0 2586 0 0 2556 0 0 2525 0 0 2668 0 0 2615 0 0 2634 0 0 2583 0 0 2559 0 0 2564 0 0 2567 0 0 2658 0 0 2622 0 0 2538 0 0 2604 0 0 2587 0 0 2615 0 0 2611 0 0 2589 0 0 2574 0 0 2555 0 0 2596 0 0 2704 0 0 2662 0 0 2536 0 0 2567 0 0 2626 0 0 2624 0 0 2604 0 0 2605 0 0 2545 0 0 2565 0 0 2621 0 0 2498 0 0 2580 0 0 2534 0 0 2501 0 0 2474 0 0 2473 0 0 1380 0 0 85 0 0 79 0 0 64 0 0 57 0 0 56 0 0 49 0 0 56 0 0 44 0 0 37 0 0 
14 0 0 34 0 0 40 0 0 49 0 0 52 0 0 45 0 0 52 0 0 73 0 0 82 0 0 70 0 0 1342 0 0 2592 0 0 2548 0 0 2631 0 0 2575 0 0 2587 0 0 2570 0 0 2494 0 0 2572 0 0 2622 0 0 2606 0 0 2609 0 0 2603 0 0 2626 0 0 2539 0 0 2677 0 0 2694 0 0 2647 0 0 2525 0 0 2625 0 0 2610 0 0 2587 0 0 2685 0 0 2525 0 0 2613 0 0 2609 0 0 2561 0 0 2663 0 0 2532 0 0 2624 0 0 2575 0 0 2620 0 0 2534 0 0 2624 0 0 2571 0 0 2558 0 0 2588 0 0 2665 0 0 2565 0 0 2558 0 0 1342 0 0 77 0 0 73 0 0 75 0 0 63 0 0 40 0 0 57 0 0 49 0 0 47 0 0 39 0 0 
17 0 0 32 0 0 45 0 0 43 0 0 52 0 0 65 0 0 52 0 0 69 0 0 68 0 0 87 0 0 1328 0 0 2487 0 0 2564 0 0 2588 0 0 2610 0 0 2597 0 0 2544 0 0 2655 0 0 2612 0 0 2575 0 0 2610 0 0 2632 0 0 2602 0 0 2587 0 0 2660 0 0 2595 0 0 2564 0 0 2692 0 0 2515 0 0 2611 0 0 2582 0 0 2686 0 0 2588 0 0 2603 0 0 2567 0 0 2654 0 0 2690 0 0 2658 0 0 2541 0 0 2595 0 0 2596 0 0 2606 0 0 2615 0 0 2656 0 0 2560 0 0 2572 0 0 2599 0 0 2583 0 0 2564 0 0 2546 0 0 1363 0 0 90 0 0 70 0 0 47 0 0 76 0 0 62 0 0 59 0 0 53 0 0 47 0 0 36 0 0 
10 0 0 35 0 0 41 0 0 51 0 0 44 0 0 49 0 0 63 0 0 61 0 0 74 0 0 79 0 0 1401 0 0 2591 0 0 2630 0 0 2543 0 0 2582 0 0 2609 0 0 2627 0 0 2507 0 0 2505 0 0 2626 0 0 2614 0 0 2513 0 0 2609 0 0 2629 0 0 2583 0 0 2500 0 0 2534 0 0 2508 0 0 2586 0 0 2623 0 0 2645 0 0 2594 0 0 2592 0 0 2641 0 0 2584 0 0 2583 0 0 2648 0 0 2559 0 0 2593 0 0 2639 0 0 2565 0 0 2581 0 0 2606 0 0 2682 0 0 2594 0 0 2580 0 0 2525 0 0 2569 0 0 2587 0 0 2675 0 0 1355 0 0 76 0 0 62 0 0 57 0 0 68 0 0 45 0 0 50 0 0 46 0 0 48 0 0 35 0 0 
16 0 0 39 0 0 45 0 0 61 0 0 54 0 0 63 0 0 35 0 0 62 0 0 66 0 0 82 0 0 1313 0 0 2451 0 0 2544 0 0 2553 0 0 2584 0 0 2555 0 0 2542 0 0 2535 0 0 2709 0 0 2593 0 0 2571 0 0 2599 0 0 2610 0 0 2627 0 0 2569 0 0 2614 0 0 2585 0 0 2607 0 0 2602 0 0 2705 0 0 2663 0 0 2622 0 0 2526 0 0 2628 0 0 2594 0 0 2545 0 0 2698 0 0 2536 0 0 2610 0 0 2608 0 0 2547 0 0 2634 0 0 2556 0 0 2591 0 0 2641 0 0 2554 0 0 2589 0 0 2642 0 0 2518 0 0 2497 0 0 1357 0 0 84 0 0 78 0 0 78 0 0 66 0 0 47 0 0 49 0 0 49 0 0 50 0 0 31 0 0 
17 0 0 39 0 0 42 0 0 38 0 0 53 0 0 49 0 0 65 0 0 60 0 0 71 0 0 89 0 0 1262 0 0 2456 0 0 2596 0 0 2498 0 0 2585 0 0 2631 0 0 2552 0 0 2614 0 0 2461 0 0 2652 0 0 2599 0 0 2570 0 0 2641 0 0 2643 0 0 2581 0 0 2638 0 0 2662 0 0 2538 0 0 2598 0 0 2575 0 0 2625 0 0 2562 0 0 2563 0 0 2702 0 0 2534 0 0 2628 0 0 2643 0 0 2565 0 0 2640 0 0 2562 0 0 2585 0 0 2542 0 0 2534 0 0 2542 0 0 2537 0 0 2503 0 0 2563 0 0 2509 0 0 2548 0 0 2518 0 0 1308 0 0 93 0 0 85 0 0 68 0 0 56 0 0 52 0 0 41 0 0 45 0 0 37 0 0 38 0 0 
24 0 0 33 0 0 33 0 0 37 0 0 53 0 0 56 0 0 47 0 0 58 0 0 89 0 0 78 0 0 1299 0 0 2568 0 0 2641 0 0 2578 0 0 2526 0 0 2644 0 0 2602 0 0 2643 0 0 2597 0 0 2578 0 0 2596 0 0 2661 0 0 2596 0 0 2559 0 0 2618 0 0 2578 0 0 2609 0 0 2580 0 0 2643 0 0 2533 0 0 2577 0 0 2603 0 0 2647 0 0 2623 0 0 2577 0 0 2520 0 0 2547 0 0 2636 0 0 2676 0 0 2479 0 0 2594 0 0 2545 0 0 2555 0 0 2592 0 0 2548 0 0 2548 0 0 2505 0 0 2534 0 0 2536 0 0 2565 0 0 1275 0 0 54 0 0 85 0 0 80 0 0 60 0 0 56 0 0 48 0 0 44 0 0 41 0 0 30 0 0 
20 0 0 30 0 0 30 0 0 46 0 0 45 0 0 42 0 0 49 0 0 54 0 0 82 0 0 91 0 0 1281 0 0 2494 0 0 2610 0 0 2527 0 0 2590 0 0 2527 0 0 2565 0 0 2538 0 0 2523 0 0 2509 0 0 2604 0 0 2513 0 0 2583 0 0 2594 0 0 2595 0 0 2637 0 0 2546 0 0 2655 0 0 2565 0 0 2643 0 0 2683 0 0 2546 0 0 2574 0 0 2593 0 0 2594 0 0 2543 0 0 2542 0 0 2632 0 0 2604 0 0 2594 0 0 2639 0 0 2639 0 0 2537 0 0 2632 0 0 2564 0 0 2587 0 0 2550 0 0 2564 0 0 2612 0 0 2580 0 0 1339 0 0 83 0 0 66 0 0 74 0 0 56 0 0 44 0 0 38 0 0 39 0 0 43 0 0 49 0 0 
22 0 0 37 0 0 37 0 0 46 0 0 55 0 0 52 0 0 58 0 0 57 0 0 66 0 0 76 0 0 1224 0 0 2598 0 0 2586 0 0 2709 0 0 2699 0 0 2537 0 0 2490 0 0 2633 0 0 2543 0 0 2577 0 0 2642 0 0 2595 0 0 2528 0 0 2645 0 0 2520 0 0 2613 0 0 2594 0 0 2687 0 0 2602 0 0 2680 0 0 2596 0 0 2647 0 0 2576 0 0 2546 0 0 2610 0 0 2584 0 0 2525 0 0 2498 0 0 2568 0 0 2499 0 0 2553 0 0 2521 0 0 2559 0 0 2492 0 0 2507 0 0 2609 0 0 2501 0 0 2559 0 0 2653 0 0 2572 0 0 1326 0 0 89 0 0 58 0 0 67 0 0 66 0 0 47 0 0 46 0 0 43 0 0 32 0 0 31 0 0 
13 0 0 27 0 0 44 0 0 31 0 0 40 0 0 44 0 0 50 0 0 58 0 0 86 0 0 90 0 0 1287 0 0 2645 0 0 2545 0 0 2588 0 0 2535 0 0 2584 0 0 2561 0 0 2608 0 0 2653 0 0 2654 0 0 2680 0 0 2465 0 0 2566 0 0 2549 0 0 2604 0 0 2609 0 0 2596 0 0 2592 0 0 2678 0 0 2506 0 0 2599 0 0 2507 0 0 2594 0 0 2591 0 0 2651 0 0 2604 0 0 2504 0 0 2676 0 0 2463 0 0 2495 0 0 2512 0 0 2604 0 0 2633 0 0 2672 0 0 2521 0 0 2621 0 0 2572 0 0 2446 0 0 2592 0 0 2563 0 0 1336 0 0 103 0 0 77 0 0 77 0 0 53 0 0 50 0 0 39 0 0 46 0 0 40 0 0 37 0 0 
17 0 0 31 0 0 34 0 0 32 0 0 44 0 0 49 0 0 47 0 0 42 0 0 67 0 0 59 0 0 1328 0 0 2539 0 0 2522 0 0 2612 0 0 2605 0 0 2522 0 0 2543 0 0 2572 0 0 2583 0 0 2540 0 0 2518 0 0 2727 0 0 2647 0 0 2653 0 0 2635 0 0 2597 0 0 2626 0 0 2533 0 0 2667 0 0 2547 0 0 2608 0 0 2515 0 0 2622 0 0 2505 0 0 2512 0 0 2463 0 0 2476 0 0 2578 0 0 2610 0 0 2582 0 0 2604 0 0 2569 0 0 2650 0 0 2657 0 0 2501 0 0 2569 0 0 2554 0 0 2587 0 0 2531 0 0 2526 0 0 1329 0 0 78 0 0 81 0 0 57 0 0 50 0 0 53 0 0 49 0 0 48 0 0 29 0 0 33 0 0 
12 0 0 27 0 0 46 0 0 42 0 0 37 0 0 47 0 0 57 0 0 55 0 0 78 0 0 85 0 0 1373 0 0 2580 0 0 2564 0 0 2603 0 0 2597 0 0 2427 0 0 2536 0 0 2604 0 0 2540 0 0 2646 0 0 2598 0 0 2689 0 0 2655 0 0 2656 0 0 2600 0 0 2583 0 0 2590 0 0 2565 0 0 2620 0 0 2657 0 0 2575 0 0 2593 0 0 2666 0 0 2716 0 0 2651 0 0 2624 0 0 2544 0 0 2615 0 0 2541 0 0 2598 0 0 2649 0 0 2629 0 0 2558 0 0 2558 0 0 2593 0 0 2568 0 0 2637 0 0 2535 0 0 2581 0 0 2531 0 0 1292 0 0 74 0 0 67 0 0 65 0 0 54 0 0 43 0 0 43 0 0 42 0 0 42 0 0 26 0 0 
16 0 0 26 0 0 26 0 0 45 0 0 47 0 0 52 0 0 55 0 0 70 0 0 71 0 0 77 0 0 1315 0 0 2588 0 0 2536 0 0 2507 0 0 2582 0 0 2560 0 0 2606 0 0 2508 0 0 2511 0 0 2465 0 0 2649 0 0 2660 0 0 2536 0 0 2648 0 0 2572 0 0 2678 0 0 2613 0 0 2602 0 0 2686 0 0 2519 0 0 2637 0 0 2664 0 0 2557 0 0 2641 0 0 2594 0 0 2643 0 0 2578 0 0 2695 0 0 2564 0 0 2624 0 0 2631 0 0 2551 0 0 2687 0 0 2620 0 0 2616 0 0 2598 0 0 2564 0 0 2574 0 0 2540 0 0 2673 0 0 1320 0 0 80 0 0 69 0 0 52 0 0 45 0 0 49 0 0 44 0 0 37 0 0 46 0 0 32 0 0 
15 0 0 32 0 0 35 0 0 37 0 0 51 0 0 41 0 0 49 0 0 51 0 0 68 0 0 98 0 0 1273 0 0 2561 0 0 2559 0 0 2620 0 0 2462 0 0 2534 0 0 2575 0 0 2616 0 0 2622 0 0 2655 0 0 2590 0 0 2609 0 0 2556 0 0 2682 0 0 2569 0 0 2641 0 0 2550 0 0 2595 0 0 2639 0 0 2643 0 0 2506 0 0 2540 0 0 2536 0 0 2657 0 0 2620 0 0 2517 0 0 2577 0 0 2614 0 0 2637 0 0 2598 0 0 2581 0 0 2575 0 0 2589 0 0 2519 0 0 2568 0 0 2493 0 0 2539 0 0 2514 0 0 2603 0 0 2572 0 0 1323 0 0 70 0 0 69 0 0 56 0 0 47 0 0 54 0 0 43 0 0 40 0 0 29 0 0 23 0 0 
16 0 0 26 0 0 41 0 0 24 0 0 47 0 0 47 0 0 52 0 0 50 0 0 55 0 0 67 0 0 1307 0 0 2541 0 0 2557 0 0 2526 0 0 2604 0 0 2570 0 0 2532 0 0 2482 0 0 2634 0 0 2523 0 0 2651 0 0 2605 0 0 2586 0 0 2574 0 0 2595 0 0 2623 0 0 2563 0 0 2650 0 0 2615 0 0 2575 0 0 2637 0 0 2554 0 0 2640 0 0 2564 0 0 2623 0 0 2522 0 0 2715 0 0 2547 0 0 2580 0 0 2605 0 0 2502 0 0 2530 0 0 2645 0 0 2611 0 0 2639 0 0 2495 0 0 2654 0 0 2574 0 0 2551 0 0 2624 0 0 1237 0 0 76 0 0 58 0 0 49 0 0 46 0 0 39 0 0 26 0 0 44 0 0 35 0 0 25 0 0 
16 0 0 24 0 0 25 0 0 33 0 0 42 0 0 53 0 0 46 0 0 48 0 0 67 0 0 62 0 0 1248 0 0 2524 0 0 2527 0 0 2551 0 0 2541 0 0 2646 0 0 2502 0 0 2550 0 0 2572 0 0 2601 0 0 2589 0 0 2547 0 0 2509 0 0 2500 0 0 2547 0 0 2568 0 0 2611 0 0 2531 0 0 2524 0 0 2564 0 0 2587 0 0 2653 0 0 2668 0 0 2518 0 0 2624 0 0 2540 0 0 2582 0 0 2584 0 0 2586 0 0 2439 0 0 2560 0 0 2528 0 0 2508 0 0 2671 0 0 2557 0 0 2604 0 0 2565 0 0 2462 0 0 2583 0 0 2500 0 0 1258 0 0 78 0 0 63 0 0 60 0 0 38 0 0 36 0 0 33 0 0 25 0 0 31 0 0 23 0 0 
17 0 0 38 0 0 29 0 0 38 0 0 32 0 0 55 0 0 42 0 0 48 0 0 57 0 0 78 0 0 1241 0 0 2613 0 0 2654 0 0 2495 0 0 2509 0 0 2534 0 0 2557 0 0 2569 0 0 2538 0 0 2564 0 0 2534 0 0 2523 0 0 2523 0 0 2547 0 0 2630 0 0 2624 0 0 2608 0 0 2569 0 0 2558 0 0 2635 0 0 2519 0 0 2498 0 0 2445 0 0 2565 0 0 2612 0 0 2542 0 0 2603 0 0 2496 0 0 2564 0 0 2604 0 0 2674 0 0 2597 0 0 2520 0 0 2536 0 0 2595 0 0 2595 0 0 2566 0 0 2476 0 0 2526 0 0 2481 0 0 1326 0 0 72 0 0 51 0 0 52 0 0 42 0 0 51 0 0 37 0 0 52 0 0 30 0 0 26 0 0 
10 0 0 25 0 0 37 0 0 35 0 0 35 0 0 36 0 0 45 0 0 49 0 0 54 0 0 60 0 0 1245 0 0 2528 0 0 2505 0 0 2509 0 0 2614 0 0 2602 0 0 2500 0 0 2594 0 0 2569 0 0 2505 0 0 2522 0 0 2534 0 0 2539 0 0 2635 0 0 2576 0 0 2498 0 0 2493 0 0 2540 0 0 2553 0 0 2607 0 0 2571 0 0 2584 0 0 2609 0 0 2603 0 0 2542 0 0 2574 0 0 2480 0 0 2533 0 0 2567 0 0 2628 0 0 2566 0 0 2519 0 0 2519 0 0 2623 0 0 2592 0 0 2670 0 0 2559 0 0 2607 0 0 2586 0 0 2644 0 0 1289 0 0 60 0 0 51 0 0 54 0 0 52 0 0 37 0 0 37 0 0 29 0 0 38 0 0 30 0 0 
17 0 0 22 0 0 13 0 0 32 0 0 34 0 0 29 0 0 46 0 0 52 0 0 67 0 0 54 0 0 1244 0 0 2434 0 0 2577 0 0 2533 0 0 2577 0 0 2603 0 0 2577 0 0 2462 0 0 2587 0 0 2602 0 0 2641 0 0 2629 0 0 2542 0 0 2556 0 0 2573 0 0 2586 0 0 2491 0 0 2636 0 0 2590 0 0 2533 0 0 2501 0 0 2510 0 0 2601 0 0 2494 0 0 2537 0 0 2674 0 0 2654 0 0 2540 0 0 2627 0 0 2582 0 0 2641 0 0 2536 0 0 2548 0 0 2528 0 0 2536 0 0 2614 0 0 2584 0 0 2533 0 0 2580 0 0 2561 0 0 1315 0 0 48 0 0 56 0 0 45 0 0 50 0 0 43 0 0 30 0 0 33 0 0 18 0 0 27 0 0 
10 0 0 23 0 0 23 0 0 29 0 0 30 0 0 35 0 0 35 0 0 33 0 0 51 0 0 70 0 0 1308 0 0 2480 0 0 2434 0 0 2466 0 0 2496 0 0 2466 0 0 2542 0 0 2550 0 0 2562 0 0 2516 0 0 2534 0 0 2527 0 0 2590 0 0 2575 0 0 2553 0 0 2587 0 0 2659 0 0 2493 0 0 2486 0 0 2505 0 0 2565 0 0 2450 0 0 2552 0 0 2524 0 0 2494 0 0 2501 0 0 2592 0 0 2605 0 0 2594 0 0 2499 0 0 2520 0 0 2484 0 0 2575 0 0 2563 0 0 2501 0 0 2603 0 0 2537 0 0 2570 0 0 2515 0 0 2464 0 0 1334 0 0 49 0 0 48 0 0 44 0 0 41 0 0 34 0 0 25 0 0 33 0 0 34 0 0 34 0 0 
12 0 0 16 0 0 34 0 0 23 0 0 34 0 0 34 0 0 32 0 0 32 0 0 43 0 0 53 0 0 680 0 0 1307 0 0 1310 0 0 1293 0 0 1308 0 0 1341 0 0 1293 0 0 1298 0 0 1254 0 0 1270 0 0 1287 0 0 1343 0 0 1385 0 0 1304 0 0 1358 0 0 1319 0 0 1302 0 0 1301 0 0 1336 0 0 1301 0 0 1302 0 0 1286 0 0 1318 0 0 1308 0 0 1301 0 0 1283 0 0 1317 0 0 1299 0 0 1320 0 0 1313 0 0 1288 0 0 1334 0 0 1275 0 0 1330 0 0 1202 0 0 1218 0 0 1270 0 0 1323 0 0 1308 0 0 1314 0 0 696 0 0 50 0 0 35 0 0 35 0 0 43 0 0 31 0 0 30 0 0 32 0 0 23 0 0 32 0 0 
11 0 0 20 0 0 25 0 0 25 0 0 26 0 0 34 0 0 36 0 0 36 0 0 50 0 0 46 0 0 58 0 0 57 0 0 59 0 0 52 0 0 65 0 0 68 0 0 92 0 0 77 0 0 66 0 0 95 0 0 95 0 0 88 0 0 83 0 0 86 0 0 80 0 0 87 0 0 76 0 0 81 0 0 92 0 0 85 0 0 97 0 0 83 0 0 76 0 0 81 0 0 92 0 0 81 0 0 85 0 0 91 0 0 91 0 0 67 0 0 82 0 0 76 0 0 83 0 0 85 0 0 81 0 0 66 0 0 63 0 0 51 0 0 47 0 0 53 0 0 67 0 0 58 0 0 52 0 0 39 0 0 31 0 0 27 0 0 35 0 0 33 0 0 22 0 0 30 0 0 
9 0 0 26 0 0 33 0 0 26 0 0 32 0 0 32 0 0 27 0 0 21 0 0 39 0 0 45 0 0 43 0 0 47 0 0 49 0 0 61 0 0 60 0 0 54 0 0 68 0 0 58 0 0 60 0 0 66 0 0 69 0 0 67 0 0 70 0 0 79 0 0 80 0 0 66 0 0 83 0 0 76 0 0 89 0 0 79 0 0 78 0 0 75 0 0 71 0 0 67 0 0 68 0 0 82 0 0 76 0 0 89 0 0 78 0 0 75 0 0 54 0 0 75 0 0 63 0 0 73 0 0 61 0 0 54 0 0 61 0 0 60 0 0 50 0 0 59 0 0 46 0 0 47 0 0 47 0 0 32 0 0 27 0 0 23 0 0 33 0 0 30 0 0 21 0 0 19 0 0 
8 0 0 20 0 0 20 0 0 25 0 0 25 0 0 26 0 0 34 0 0 31 0 0 43 0 0 47 0 0 48 0 0 38 0 0 41 0 0 62 0 0 53 0 0 66 0 0 54 0 0 59 0 0 58 0 0 59 0 0 62 0 0 53 0 0 55 0 0 70 0 0 71 0 0 75 0 0 59 0 0 79 0 0 63 0 0 66 0 0 54 0 0 61 0 0 82 0 0 54 0 0 75 0 0 67 0 0 46 0 0 62 0 0 82 0 0 55 0 0 65 0 0 62 0 0 50 0 0 49 0 0 54 0 0 49 0 0 51 0 0 58 0 0 54 0 0 57 0 0 48 0 0 35 0 0 35 0 0 33 0 0 32 0 0 34 0 0 30 0 0 31 0 0 23 0 0 25 0 0 
6 0 0 22 0 0 20 0 0 24 0 0 20 0 0 27 0 0 32 0 0 32 0 0 42 0 0 34 0 0 28 0 0 32 0 0 44 0 0 44 0 0 41 0 0 44 0 0 43 0 0 59 0 0 60 0 0 55 0 0 59 0 0 41 0 0 55 0 0 59 0 0 63 0 0 73 0 0 73 0 0 71 0 0 73 0 0 52 0 0 64 0 0 53 0 0 53 0 0 65 0 0 70 0 0 59 0 0 59 0 0 55 0 0 63 0 0 48 0 0 45 0 0 57 0 0 52 0 0 61 0 0 51 0 0 53 0 0 45 0 0 47 0 0 43 0 0 35 0 0 36 0 0 31 0 0 35 0 0 27 0 0 38 0 0 27 0 0 23 0 0 18 0 0 26 0 0 29 0 0 
8 0 0 21 0 0 18 0 0 21 0 0 18 0 0 29 0 0 25 0 0 31 0 0 29 0 0 31 0 0 46 0 0 36 0 0 52 0 0 36 0 0 37 0 0 42 0 0 41 0 0 52 0 0 37 0 0 40 0 0 58 0 0 52 0 0 55 0 0 55 0 0 42 0 0 50 0 0 43 0 0 65 0 0 50 0 0 49 0 0 63 0 0 54 0 0 46 0 0 50 0 0 51 0 0 57 0 0 45 0 0 57 0 0 50 0 0 64 0 0 60 0 0 50 0 0 47 0 0 39 0 0 47 0 0 40 0 0 52 0 0 45 0 0 44 0 0 39 0 0 37 0 0 27 0 0 30 0 0 33 0 0 25 0 0 32 0 0 17 0 0 22 0 0 22 0 0 12 0 0 
8 0 0 17 0 0 13 0 0 19 0 0 20 0 0 21 0 0 28 0 0 22 0 0 29 0 0 15 0 0 26 0 0 42 0 0 31 0 0 34 0 0 34 0 0 44 0 0 52 0 0 35 0 0 46 0 0 50 0 0 34 0 0 43 0 0 49 0 0 56 0 0 39 0 0 51 0 0 45 0 0 47 0 0 45 0 0 52 0 0 52 0 0 63 0 0 52 0 0 44 0 0 62 0 0 56 0 0 35 0 0 53 0 0 64 0 0 51 0 0 53 0 0 33 0 0 51 0 0 47 0 0 41 0 0 43 0 0 46 0 0 31 0 0 28 0 0 38 0 0 34 0 0 24 0 0 24 0 0 35 0 0 21 0 0 25 0 0 21 0 0 19 0 0 17 0 0 16 0 0 
8 0 0 14 0 0 16 0 0 23 0 0 14 0 0 20 0 0 20 0 0 23 0 0 14 0 0 34 0 0 24 0 0 31 0 0 36 0 0 45 0 0 38 0 0 38 0 0 35 0 0 33 0 0 41 0 0 37 0 0 45 0 0 47 0 0 46 0 0 47 0 0 34 0 0 46 0 0 50 0 0 51 0 0 49 0 0 53 0 0 51 0 0 52 0 0 43 0 0 44 0 0 40 0 0 52 0 0 50 0 0 39 0 0 46 0 0 45 0 0 42 0 0 35 0 0 50 0 0 49 0 0 51 0 0 44 0 0 35 0 0 26 0 0 32 0 0 31 0 0 28 0 0 29 0 0 28 0 0 25 0 0 26 0 0 23 0 0 23 0 0 22 0 0 17 0 0 18 0 0 
10 0 0 13 0 0 24 0 0 14 0 0 18 0 0 18 0 0 29 0 0 25 0 0 17 0 0 19 0 0 28 0 0 31 0 0 32 0 0 35 0 0 40 0 0 38 0 0 43 0 0 34 0 0 36 0 0 37 0 0 55 0 0 36 0 0 40 0 0 33 0 0 35 0 0 42 0 0 47 0 0 43 0 0 41 0 0 51 0 0 24 0 0 37 0 0 48 0 0 43 0 0 41 0 0 29 0 0 35 0 0 35 0 0 39 0 0 51 0 0 41 0 0 35 0 0 32 0 0 35 0 0 35 0 0 36 0 0 36 0 0 25 0 0 30 0 0 29 0 0 29 0 0 23 0 0 25 0 0 19 0 0 36 0 0 18 0 0 24 0 0 14 0 0 22 0 0 23 0 0 
7 0 0 21 0 0 23 0 0 19 0 0 24 0 0 16 0 0 29 0 0 19 0 0 25 0 0 29 0 0 25 0 0 31 0 0 22 0 0 28 0 0 35 0 0 26 0 0 30 0 0 20 0 0 31 0 0 18 0 0 24 0 0 35 0 0 37 0 0 42 0 0 31 0 0 38 0 0 38 0 0 43 0 0 29 0 0 49 0 0 37 0 0 45 0 0 39 0 0 33 0 0 30 0 0 43 0 0 23 0 0 36 0 0 28 0 0 37 0 0 37 0 0 44 0 0 36 0 0 34 0 0 41 0 0 26 0 0 25 0 0 31 0 0 29 0 0 31 0 0 30 0 0 29 0 0 21 0 0 24 0 0 26 0 0 15 0 0 24 0 0 27 0 0 14 0 0 13 0 0 
