P3
# This is a dose file slice at depth 11 of 100
60 60
# now we give the maximum value of the RGB coordinates.
1602
0 0 0 0 0 0 0 0 0 0 0 0 0 0 0 0 0 0 0 0 0 0 0 0 0 0 0 0 0 0 0 0 0 0 0 0 0 0 0 0 0 0 0 0 0 0 0 0 0 0 0 0 0 0 0 0 0 0 0 0 0 0 0 0 0 0 0 0 0 0 0 0 0 0 0 0 0 0 0 0 0 0 0 0 0 0 0 0 0 0 2 0 0 0 0 0 0 0 0 0 0 0 0 0 0 0 0 0 0 0 0 0 0 0 0 0 0 0 0 0 0 0 0 0 0 0 1 0 0 0 0 0 0 0 0 0 0 0 0 0 0 0 0 0 0 0 0 0 0 0 0 0 0 0 0 0 0 0 0 0 0 0 0 0 0 0 0 0 0 0 0 0 0 0 0 0 0 0 0 0 
0 0 0 0 0 0 0 0 0 2 0 0 0 0 0 0 0 0 0 0 0 0 0 0 0 0 0 0 0 0 0 0 0 0 0 0 0 0 0 1 0 0 0 0 0 0 0 0 0 0 0 0 0 0 0 0 0 2 0 0 0 0 0 0 0 0 0 0 0 0 0 0 1 0 0 0 0 0 0 0 0 1 0 0 0 0 0 0 0 0 4 0 0 0 0 0 0 0 0 1 0 0 0 0 0 0 0 0 0 0 0 0 0 0 0 0 0 0 0 0 0 0 0 0 0 0 0 0 0 0 0 0 0 0 0 0 0 0 0 0 0 1 0 0 0 0 0 1 0 0 0 0 0 0 0 0 0 0 0 0 0 0 0 0 0 0 0 0 0 0 0 0 0 0 0 0 0 0 0 0 
0 0 0 0 0 0 0 0 0 1 0 0 0 0 0 0 0 0 0 0 0 1 0 0 0 0 0 0 0 0 0 0 0 0 0 0 0 0 0 0 0 0 0 0 0 0 0 0 0 0 0 0 0 0 1 0 0 0 0 0 1 0 0 0 0 0 0 0 0 1 0 0 0 0 0 0 0 0 1 0 0 0 0 0 0 0 0 1 0 0 1 0 0 1 0 0 0 0 0 0 0 0 0 0 0 0 0 0 0 0 0 0 0 0 0 0 0 0 0 0 0 0 0 1 0 0 0 0 0 0 0 0 0 0 0 0 0 0 1 0 0 1 0 0 0 0 0 0 0 0 0 0 0 0 0 0 0 0 0 0 0 0 0 0 0 0 0 0 0 0 0 0 0 0 0 0 0 1 0 0 
0 0 0 0 0 0 0 0 0 1 0 0 0 0 0 0 0 0 0 0 0 1 0 0 1 0 0 0 0 0 0 0 0 0 0 0 0 0 0 0 0 0 0 0 0 0 0 0 1 0 0 0 0 0 1 0 0 0 0 0 0 0 0 0 0 0 0 0 0 2 0 0 0 0 0 0 0 0 1 0 0 0 0 0 1 0 0 0 0 0 0 0 0 2 0 0 0 0 0 2 0 0 0 0 0 1 0 0 1 0 0 0 0 0 0 0 0 0 0 0 1 0 0 0 0 0 0 0 0 0 0 0 0 0 0 1 0 0 0 0 0 1 0 0 0 0 0 0 0 0 0 0 0 0 0 0 0 0 0 0 0 0 0 0 0 0 0 0 0 0 0 0 0 0 0 0 0 0 0 0 
0 0 0 1 0 0 0 0 0 0 0 0 0 0 0 0 0 0 0 0 0 0 0 0 2 0 0 0 0 0 0 0 0 0 0 0 0 0 0 0 0 0 0 0 0 0 0 0 0 0 0 1 0 0 0 0 0 0 0 0 0 0 0 0 0 0 0 0 0 1 0 0 1 0 0 2 0 0 0 0 0 0 0 0 0 0 0 2 0 0 0 0 0 2 0 0 1 0 0 0 0 0 0 0 0 0 0 0 0 0 0 0 0 0 0 0 0 0 0 0 4 0 0 0 0 0 0 0 0 0 0 0 0 0 0 1 0 0 1 0 0 1 0 0 0 0 0 0 0 0 0 0 0 0 0 0 0 0 0 0 0 0 0 0 0 0 0 0 0 0 0 0 0 0 0 0 0 0 0 0 
0 0 0 0 0 0 0 0 0 0 0 0 0 0 0 0 0 0 1 0 0 0 0 0 0 0 0 0 0 0 0 0 0 0 0 0 0 0 0 0 0 0 0 0 0 0 0 0 1 0 0 1 0 0 0 0 0 0 0 0 0 0 0 0 0 0 1 0 0 1 0 0 0 0 0 0 0 0 0 0 0 0 0 0 1 0 0 2 0 0 0 0 0 1 0 0 0 0 0 0 0 0 0 0 0 0 0 0 0 0 0 1 0 0 1 0 0 2 0 0 1 0 0 0 0 0 0 0 0 0 0 0 0 0 0 1 0 0 0 0 0 2 0 0 0 0 0 0 0 0 0 0 0 0 0 0 0 0 0 0 0 0 0 0 0 0 0 0 1 0 0 0 0 0 0 0 0 0 0 0 
0 0 0 0 0 0 0 0 0 0 0 0 0 0 0 0 0 0 0 0 0 1 0 0 0 0 0 0 0 0 0 0 0 0 0 0 0 0 0 0 0 0 0 0 0 1 0 0 1 0 0 0 0 0 0 0 0 0 0 0 0 0 0 0 0 0 1 0 0 2 0 0 1 0 0 0 0 0 0 0 0 1 0 0 1 0 0 1 0 0 1 0 0 0 0 0 1 0 0 0 0 0 0 0 0 1 0 0 1 0 0 0 0 0 0 0 0 1 0 0 1 0 0 0 0 0 0 0 0 0 0 0 0 0 0 1 0 0 3 0 0 0 0 0 0 0 0 0 0 0 0 0 0 0 0 0 0 0 0 0 0 0 0 0 0 1 0 0 0 0 0 0 0 0 0 0 0 0 0 0 
0 0 0 0 0 0 0 0 0 0 0 0 0 0 0 0 0 0 0 0 0 0 0 0 2 0 0 0 0 0 0 0 0 0 0 0 0 0 0 0 0 0 0 0 0 0 0 0 1 0 0 1 0 0 0 0 0 0 0 0 0 0 0 0 0 0 1 0 0 3 0 0 2 0 0 0 0 0 0 0 0 1 0 0 1 0 0 1 0 0 1 0 0 1 0 0 0 0 0 0 0 0 2 0 0 0 0 0 0 0 0 1 0 0 1 0 0 0 0 0 0 0 0 1 0 0 1 0 0 0 0 0 6 0 0 1 0 0 3 0 0 0 0 0 0 0 0 0 0 0 0 0 0 0 0 0 0 0 0 1 0 0 0 0 0 0 0 0 0 0 0 0 0 0 0 0 0 0 0 0 
0 0 0 0 0 0 0 0 0 0 0 0 0 0 0 0 0 0 1 0 0 0 0 0 0 0 0 1 0 0 0 0 0 0 0 0 1 0 0 0 0 0 1 0 0 1 0 0 0 0 0 0 0 0 3 0 0 0 0 0 2 0 0 0 0 0 2 0 0 1 0 0 3 0 0 1 0 0 0 0 0 1 0 0 1 0 0 2 0 0 3 0 0 3 0 0 1 0 0 1 0 0 1 0 0 0 0 0 1 0 0 0 0 0 3 0 0 1 0 0 3 0 0 1 0 0 2 0 0 1 0 0 1 0 0 0 0 0 5 0 0 0 0 0 0 0 0 0 0 0 0 0 0 0 0 0 0 0 0 0 0 0 0 0 0 0 0 0 1 0 0 0 0 0 0 0 0 0 0 0 
0 0 0 0 0 0 0 0 0 0 0 0 0 0 0 0 0 0 0 0 0 2 0 0 0 0 0 0 0 0 2 0 0 4 0 0 7 0 0 5 0 0 8 0 0 3 0 0 12 0 0 8 0 0 4 0 0 9 0 0 4 0 0 8 0 0 8 0 0 11 0 0 5 0 0 7 0 0 2 0 0 6 0 0 7 0 0 8 0 0 8 0 0 7 0 0 6 0 0 6 0 0 9 0 0 5 0 0 5 0 0 3 0 0 7 0 0 6 0 0 5 0 0 5 0 0 3 0 0 7 0 0 4 0 0 7 0 0 7 0 0 4 0 0 11 0 0 4 0 0 3 0 0 1 0 0 0 0 0 0 0 0 0 0 0 0 0 0 0 0 0 0 0 0 0 0 0 0 0 0 
0 0 0 0 0 0 0 0 0 0 0 0 0 0 0 0 0 0 0 0 0 0 0 0 0 0 0 4 0 0 285 0 0 636 0 0 630 0 0 592 0 0 562 0 0 590 0 0 570 0 0 607 0 0 582 0 0 618 0 0 607 0 0 571 0 0 592 0 0 619 0 0 628 0 0 592 0 0 582 0 0 617 0 0 600 0 0 607 0 0 598 0 0 593 0 0 613 0 0 603 0 0 585 0 0 618 0 0 615 0 0 639 0 0 612 0 0 601 0 0 570 0 0 581 0 0 606 0 0 636 0 0 588 0 0 614 0 0 611 0 0 642 0 0 601 0 0 570 0 0 320 0 0 4 0 0 0 0 0 0 0 0 0 0 0 0 0 0 0 0 0 0 0 0 0 0 0 0 0 0 
0 0 0 0 0 0 0 0 0 0 0 0 0 0 0 0 0 0 0 0 0 0 0 0 0 0 0 5 0 0 588 0 0 1243 0 0 1154 0 0 1207 0 0 1180 0 0 1157 0 0 1231 0 0 1181 0 0 1177 0 0 1263 0 0 1240 0 0 1232 0 0 1197 0 0 1185 0 0 1186 0 0 1142 0 0 1179 0 0 1230 0 0 1190 0 0 1173 0 0 1195 0 0 1197 0 0 1189 0 0 1205 0 0 1184 0 0 1240 0 0 1240 0 0 1248 0 0 1188 0 0 1232 0 0 1189 0 0 1244 0 0 1165 0 0 1248 0 0 1157 0 0 1224 0 0 1225 0 0 1146 0 0 1254 0 0 1201 0 0 594 0 0 6 0 0 1 0 0 0 0 0 1 0 0 0 0 0 0 0 0 0 0 0 0 0 0 0 0 0 
0 0 0 0 0 0 0 0 0 0 0 0 0 0 0 0 0 0 0 0 0 0 0 0 0 0 0 4 0 0 553 0 0 1227 0 0 1187 0 0 1270 0 0 1200 0 0 1183 0 0 1192 0 0 1223 0 0 1173 0 0 1165 0 0 1232 0 0 1203 0 0 1187 0 0 1223 0 0 1212 0 0 1210 0 0 1276 0 0 1227 0 0 1198 0 0 1207 0 0 1244 0 0 1236 0 0 1213 0 0 1240 0 0 1236 0 0 1158 0 0 1201 0 0 1158 0 0 1163 0 0 1172 0 0 1207 0 0 1182 0 0 1190 0 0 1165 0 0 1216 0 0 1228 0 0 1246 0 0 1173 0 0 1152 0 0 1213 0 0 598 0 0 6 0 0 1 0 0 1 0 0 0 0 0 0 0 0 0 0 0 0 0 0 0 0 0 0 0 0 
0 0 0 0 0 0 0 0 0 0 0 0 0 0 0 1 0 0 0 0 0 1 0 0 2 0 0 12 0 0 573 0 0 1207 0 0 1228 0 0 1228 0 0 1247 0 0 1287 0 0 1174 0 0 1199 0 0 1177 0 0 1202 0 0 1229 0 0 1214 0 0 1245 0 0 1206 0 0 1233 0 0 1176 0 0 1199 0 0 1220 0 0 1169 0 0 1227 0 0 1212 0 0 1205 0 0 1217 0 0 1251 0 0 1151 0 0 1209 0 0 1268 0 0 1228 0 0 1210 0 0 1243 0 0 1200 0 0 1217 0 0 1216 0 0 1270 0 0 1181 0 0 1202 0 0 1199 0 0 1173 0 0 1196 0 0 1127 0 0 577 0 0 3 0 0 0 0 0 1 0 0 1 0 0 1 0 0 1 0 0 0 0 0 1 0 0 0 0 0 
0 0 0 0 0 0 0 0 0 0 0 0 0 0 0 1 0 0 1 0 0 1 0 0 2 0 0 5 0 0 537 0 0 1176 0 0 1227 0 0 1214 0 0 1193 0 0 1199 0 0 1211 0 0 1225 0 0 1189 0 0 1144 0 0 1189 0 0 1236 0 0 1193 0 0 1213 0 0 1189 0 0 1178 0 0 1149 0 0 1148 0 0 1203 0 0 1150 0 0 1139 0 0 1190 0 0 1225 0 0 1232 0 0 1223 0 0 1228 0 0 1225 0 0 1267 0 0 1240 0 0 1201 0 0 1212 0 0 1163 0 0 1182 0 0 1140 0 0 1245 0 0 1148 0 0 1171 0 0 1167 0 0 1229 0 0 1142 0 0 619 0 0 6 0 0 0 0 0 2 0 0 0 0 0 0 0 0 1 0 0 0 0 0 0 0 0 2 0 0 
0 0 0 0 0 0 2 0 0 2 0 0 2 0 0 1 0 0 0 0 0 0 0 0 2 0 0 12 0 0 618 0 0 1226 0 0 1233 0 0 1188 0 0 1199 0 0 1180 0 0 1243 0 0 1210 0 0 1177 0 0 1167 0 0 1229 0 0 1141 0 0 1211 0 0 1178 0 0 1187 0 0 1244 0 0 1186 0 0 1190 0 0 1189 0 0 1232 0 0 1195 0 0 1181 0 0 1153 0 0 1241 0 0 1196 0 0 1135 0 0 1183 0 0 1196 0 0 1245 0 0 1228 0 0 1203 0 0 1184 0 0 1287 0 0 1196 0 0 1202 0 0 1243 0 0 1227 0 0 1277 0 0 1168 0 0 1214 0 0 603 0 0 3 0 0 0 0 0 0 0 0 0 0 0 1 0 0 0 0 0 1 0 0 1 0 0 0 0 0 
0 0 0 0 0 0 1 0 0 2 0 0 1 0 0 3 0 0 2 0 0 1 0 0 1 0 0 8 0 0 605 0 0 1261 0 0 1260 0 0 1138 0 0 1204 0 0 1199 0 0 1183 0 0 1196 0 0 1223 0 0 1242 0 0 1227 0 0 1219 0 0 1168 0 0 1151 0 0 1163 0 0 1147 0 0 1216 0 0 1162 0 0 1242 0 0 1184 0 0 1232 0 0 1199 0 0 1201 0 0 1225 0 0 1206 0 0 1221 0 0 1200 0 0 1173 0 0 1191 0 0 1205 0 0 1181 0 0 1201 0 0 1196 0 0 1246 0 0 1192 0 0 1201 0 0 1212 0 0 1214 0 0 1216 0 0 1223 0 0 576 0 0 11 0 0 1 0 0 0 0 0 0 0 0 0 0 0 1 0 0 0 0 0 0 0 0 0 0 0 
0 0 0 1 0 0 0 0 0 0 0 0 0 0 0 0 0 0 4 0 0 1 0 0 2 0 0 10 0 0 596 0 0 1206 0 0 1214 0 0 1154 0 0 1204 0 0 1208 0 0 1207 0 0 1147 0 0 1232 0 0 1192 0 0 1151 0 0 1245 0 0 1183 0 0 1218 0 0 1190 0 0 1183 0 0 1183 0 0 1226 0 0 1234 0 0 1145 0 0 1193 0 0 1213 0 0 1178 0 0 1211 0 0 1208 0 0 1176 0 0 1188 0 0 1211 0 0 1219 0 0 1218 0 0 1217 0 0 1205 0 0 1226 0 0 1223 0 0 1236 0 0 1196 0 0 1204 0 0 1188 0 0 1180 0 0 1192 0 0 593 0 0 8 0 0 3 0 0 1 0 0 0 0 0 1 0 0 2 0 0 0 0 0 0 0 0 1 0 0 
0 0 0 0 0 0 1 0 0 0 0 0 0 0 0 0 0 0 0 0 0 2 0 0 3 0 0 9 0 0 610 0 0 1194 0 0 1236 0 0 1218 0 0 1198 0 0 1202 0 0 1210 0 0 1171 0 0 1183 0 0 1211 0 0 1140 0 0 1208 0 0 1212 0 0 1199 0 0 1217 0 0 1165 0 0 1225 0 0 1191 0 0 1220 0 0 1213 0 0 1193 0 0 1194 0 0 1198 0 0 1280 0 0 1176 0 0 1261 0 0 1236 0 0 1164 0 0 1208 0 0 1239 0 0 1219 0 0 1267 0 0 1190 0 0 1182 0 0 1232 0 0 1212 0 0 1191 0 0 1224 0 0 1193 0 0 1231 0 0 588 0 0 10 0 0 1 0 0 0 0 0 1 0 0 1 0 0 0 0 0 0 0 0 0 0 0 0 0 0 
0 0 0 1 0 0 2 0 0 0 0 0 0 0 0 1 0 0 0 0 0 0 0 0 1 0 0 5 0 0 596 0 0 1152 0 0 1244 0 0 1209 0 0 1168 0 0 1214 0 0 1195 0 0 1217 0 0 1193 0 0 1222 0 0 1215 0 0 1194 0 0 1201 0 0 1186 0 0 1186 0 0 1206 0 0 1228 0 0 1136 0 0 1195 0 0 1217 0 0 1210 0 0 1204 0 0 1139 0 0 1202 0 0 1165 0 0 1252 0 0 1192 0 0 1245 0 0 1253 0 0 1169 0 0 1213 0 0 1282 0 0 1221 0 0 1190 0 0 1215 0 0 1229 0 0 1190 0 0 1207 0 0 1190 0 0 1229 0 0 611 0 0 8 0 0 0 0 0 3 0 0 3 0 0 1 0 0 3 0 0 0 0 0 0 0 0 0 0 0 
0 0 0 0 0 0 1 0 0 1 0 0 0 0 0 0 0 0 0 0 0 1 0 0 1 0 0 9 0 0 631 0 0 1168 0 0 1198 0 0 1166 0 0 1185 0 0 1206 0 0 1206 0 0 1195 0 0 1231 0 0 1202 0 0 1193 0 0 1208 0 0 1233 0 0 1204 0 0 1173 0 0 1182 0 0 1201 0 0 1251 0 0 1203 0 0 1245 0 0 1225 0 0 1237 0 0 1218 0 0 1132 0 0 1211 0 0 1221 0 0 1195 0 0 1232 0 0 1202 0 0 1206 0 0 1174 0 0 1194 0 0 1215 0 0 1214 0 0 1217 0 0 1209 0 0 1215 0 0 1217 0 0 1182 0 0 1259 0 0 606 0 0 8 0 0 2 0 0 0 0 0 0 0 0 1 0 0 2 0 0 1 0 0 0 0 0 0 0 0 
0 0 0 0 0 0 0 0 0 0 0 0 0 0 0 0 0 0 3 0 0 3 0 0 5 0 0 11 0 0 591 0 0 1208 0 0 1198 0 0 1202 0 0 1190 0 0 1164 0 0 1197 0 0 1184 0 0 1177 0 0 1180 0 0 1170 0 0 1168 0 0 1195 0 0 1168 0 0 1195 0 0 1210 0 0 1182 0 0 1224 0 0 1204 0 0 1244 0 0 1236 0 0 1209 0 0 1202 0 0 1169 0 0 1159 0 0 1210 0 0 1223 0 0 1144 0 0 1198 0 0 1237 0 0 1217 0 0 1173 0 0 1178 0 0 1191 0 0 1158 0 0 1215 0 0 1170 0 0 1218 0 0 1151 0 0 1223 0 0 605 0 0 11 0 0 3 0 0 1 0 0 0 0 0 0 0 0 0 0 0 0 0 0 0 0 0 0 0 0 
0 0 0 0 0 0 0 0 0 0 0 0 0 0 0 1 0 0 3 0 0 4 0 0 4 0 0 8 0 0 635 0 0 1215 0 0 1224 0 0 1179 0 0 1197 0 0 1182 0 0 1206 0 0 1156 0 0 1186 0 0 1203 0 0 1143 0 0 1208 0 0 1197 0 0 1227 0 0 1190 0 0 1213 0 0 1231 0 0 1194 0 0 1192 0 0 1270 0 0 1202 0 0 1243 0 0 1231 0 0 1220 0 0 1102 0 0 1199 0 0 1192 0 0 1137 0 0 1273 0 0 1204 0 0 1208 0 0 1225 0 0 1142 0 0 1180 0 0 1227 0 0 1202 0 0 1216 0 0 1162 0 0 1197 0 0 1202 0 0 607 0 0 6 0 0 0 0 0 0 0 0 0 0 0 0 0 0 0 0 0 0 0 0 0 0 0 2 0 0 
0 0 0 0 0 0 0 0 0 0 0 0 0 0 0 2 0 0 2 0 0 0 0 0 0 0 0 4 0 0 628 0 0 1198 0 0 1184 0 0 1268 0 0 1253 0 0 1221 0 0 1189 0 0 1208 0 0 1220 0 0 1239 0 0 1232 0 0 1188 0 0 1190 0 0 1201 0 0 1252 0 0 1250 0 0 1186 0 0 1195 0 0 1207 0 0 1254 0 0 1227 0 0 1250 0 0 1223 0 0 1229 0 0 1210 0 0 1206 0 0 1163 0 0 1147 0 0 1184 0 0 1157 0 0 1159 0 0 1215 0 0 1213 0 0 1174 0 0 1204 0 0 1181 0 0 1200 0 0 1213 0 0 1185 0 0 1222 0 0 615 0 0 7 0 0 2 0 0 0 0 0 0 0 0 1 0 0 0 0 0 0 0 0 1 0 0 0 0 0 
0 0 0 0 0 0 0 0 0 0 0 0 0 0 0 1 0 0 0 0 0 0 0 0 0 0 0 12 0 0 625 0 0 1216 0 0 1262 0 0 1186 0 0 1214 0 0 1191 0 0 1188 0 0 1229 0 0 1161 0 0 1245 0 0 1238 0 0 1189 0 0 1179 0 0 1210 0 0 1246 0 0 1198 0 0 1212 0 0 1194 0 0 1256 0 0 1217 0 0 1170 0 0 1230 0 0 1184 0 0 1230 0 0 1218 0 0 1267 0 0 1248 0 0 1176 0 0 1186 0 0 1203 0 0 1168 0 0 1209 0 0 1234 0 0 1245 0 0 1199 0 0 1216 0 0 1195 0 0 1223 0 0 1206 0 0 1154 0 0 635 0 0 8 0 0 1 0 0 0 0 0 0 0 0 1 0 0 1 0 0 0 0 0 0 0 0 1 0 0 
0 0 0 0 0 0 0 0 0 0 0 0 2 0 0 1 0 0 0 0 0 0 0 0 0 0 0 9 0 0 569 0 0 1202 0 0 1213 0 0 1221 0 0 1211 0 0 1213 0 0 1275 0 0 1155 0 0 1199 0 0 1232 0 0 1153 0 0 1152 0 0 1189 0 0 1263 0 0 1211 0 0 1239 0 0 1222 0 0 1205 0 0 1188 0 0 1200 0 0 1201 0 0 1190 0 0 1185 0 0 1215 0 0 1152 0 0 1188 0 0 1216 0 0 1212 0 0 1186 0 0 1211 0 0 1219 0 0 1235 0 0 1194 0 0 1206 0 0 1167 0 0 1194 0 0 1284 0 0 1168 0 0 1152 0 0 1156 0 0 589 0 0 4 0 0 0 0 0 0 0 0 0 0 0 0 0 0 0 0 0 0 0 0 1 0 0 0 0 0 
0 0 0 0 0 0 0 0 0 1 0 0 0 0 0 0 0 0 0 0 0 0 0 0 1 0 0 7 0 0 620 0 0 1196 0 0 1251 0 0 1145 0 0 1226 0 0 1194 0 0 1243 0 0 1238 0 0 1199 0 0 1218 0 0 1192 0 0 1265 0 0 1238 0 0 1246 0 0 1160 0 0 1216 0 0 1207 0 0 1210 0 0 1148 0 0 1226 0 0 1196 0 0 1183 0 0 1186 0 0 1174 0 0 1132 0 0 1212 0 0 1228 0 0 1214 0 0 1229 0 0 1160 0 0 1208 0 0 1239 0 0 1168 0 0 1201 0 0 1196 0 0 1225 0 0 1226 0 0 1231 0 0 1210 0 0 1200 0 0 657 0 0 5 0 0 0 0 0 1 0 0 0 0 0 0 0 0 3 0 0 2 0 0 1 0 0 0 0 0 
0 0 0 0 0 0 0 0 0 0 0 0 0 0 0 0 0 0 0 0 0 0 0 0 1 0 0 7 0 0 617 0 0 1210 0 0 1225 0 0 1255 0 0 1224 0 0 1205 0 0 1219 0 0 1147 0 0 1253 0 0 1178 0 0 1157 0 0 1218 0 0 1187 0 0 1122 0 0 1277 0 0 1211 0 0 1128 0 0 1167 0 0 1221 0 0 1210 0 0 1138 0 0 1221 0 0 1248 0 0 1242 0 0 1191 0 0 1230 0 0 1215 0 0 1212 0 0 1207 0 0 1202 0 0 1179 0 0 1200 0 0 1155 0 0 1218 0 0 1143 0 0 1225 0 0 1261 0 0 1145 0 0 1216 0 0 1155 0 0 602 0 0 7 0 0 1 0 0 2 0 0 2 0 0 1 0 0 0 0 0 0 0 0 0 0 0 0 0 0 
0 0 0 1 0 0 0 0 0 0 0 0 2 0 0 1 0 0 0 0 0 1 0 0 1 0 0 5 0 0 626 0 0 1203 0 0 1204 0 0 1163 0 0 1205 0 0 1242 0 0 1239 0 0 1190 0 0 1198 0 0 1215 0 0 1201 0 0 1181 0 0 1160 0 0 1209 0 0 1199 0 0 1175 0 0 1169 0 0 1157 0 0 1200 0 0 1179 0 0 1210 0 0 1191 0 0 1211 0 0 1134 0 0 1166 0 0 1198 0 0 1198 0 0 1175 0 0 1220 0 0 1181 0 0 1179 0 0 1148 0 0 1193 0 0 1234 0 0 1147 0 0 1186 0 0 1188 0 0 1192 0 0 1208 0 0 1245 0 0 606 0 0 7 0 0 6 0 0 1 0 0 0 0 0 1 0 0 0 0 0 0 0 0 0 0 0 0 0 0 
0 0 0 0 0 0 0 0 0 0 0 0 0 0 0 1 0 0 3 0 0 3 0 0 3 0 0 10 0 0 564 0 0 1224 0 0 1182 0 0 1238 0 0 1238 0 0 1173 0 0 1201 0 0 1176 0 0 1290 0 0 1207 0 0 1238 0 0 1227 0 0 1248 0 0 1275 0 0 1234 0 0 1170 0 0 1171 0 0 1208 0 0 1219 0 0 1169 0 0 1227 0 0 1216 0 0 1209 0 0 1191 0 0 1217 0 0 1150 0 0 1201 0 0 1149 0 0 1210 0 0 1163 0 0 1243 0 0 1154 0 0 1244 0 0 1182 0 0 1155 0 0 1217 0 0 1242 0 0 1241 0 0 1193 0 0 1214 0 0 616 0 0 7 0 0 0 0 0 0 0 0 2 0 0 1 0 0 0 0 0 0 0 0 1 0 0 0 0 0 
0 0 0 2 0 0 2 0 0 3 0 0 2 0 0 1 0 0 1 0 0 0 0 0 2 0 0 2 0 0 600 0 0 1197 0 0 1231 0 0 1212 0 0 1237 0 0 1170 0 0 1229 0 0 1175 0 0 1187 0 0 1211 0 0 1199 0 0 1190 0 0 1212 0 0 1196 0 0 1257 0 0 1213 0 0 1210 0 0 1214 0 0 1252 0 0 1209 0 0 1209 0 0 1173 0 0 1235 0 0 1194 0 0 1150 0 0 1190 0 0 1168 0 0 1232 0 0 1194 0 0 1222 0 0 1238 0 0 1157 0 0 1202 0 0 1181 0 0 1229 0 0 1197 0 0 1144 0 0 1214 0 0 1243 0 0 1217 0 0 630 0 0 8 0 0 1 0 0 1 0 0 1 0 0 2 0 0 0 0 0 1 0 0 0 0 0 1 0 0 
0 0 0 0 0 0 1 0 0 2 0 0 2 0 0 1 0 0 0 0 0 1 0 0 0 0 0 10 0 0 575 0 0 1185 0 0 1205 0 0 1214 0 0 1223 0 0 1211 0 0 1239 0 0 1200 0 0 1182 0 0 1185 0 0 1161 0 0 1177 0 0 1180 0 0 1243 0 0 1228 0 0 1230 0 0 1156 0 0 1194 0 0 1224 0 0 1195 0 0 1203 0 0 1250 0 0 1180 0 0 1214 0 0 1214 0 0 1245 0 0 1180 0 0 1138 0 0 1183 0 0 1242 0 0 1218 0 0 1177 0 0 1170 0 0 1207 0 0 1213 0 0 1195 0 0 1191 0 0 1141 0 0 1186 0 0 1193 0 0 606 0 0 11 0 0 1 0 0 2 0 0 3 0 0 1 0 0 1 0 0 1 0 0 1 0 0 2 0 0 
0 0 0 1 0 0 0 0 0 0 0 0 1 0 0 0 0 0 0 0 0 0 0 0 1 0 0 5 0 0 631 0 0 1232 0 0 1221 0 0 1202 0 0 1207 0 0 1166 0 0 1216 0 0 1198 0 0 1241 0 0 1179 0 0 1246 0 0 1215 0 0 1244 0 0 1192 0 0 1218 0 0 1211 0 0 1167 0 0 1215 0 0 1141 0 0 1178 0 0 1193 0 0 1185 0 0 1171 0 0 1178 0 0 1180 0 0 1190 0 0 1194 0 0 1245 0 0 1211 0 0 1216 0 0 1161 0 0 1176 0 0 1238 0 0 1216 0 0 1240 0 0 1209 0 0 1261 0 0 1207 0 0 1220 0 0 1208 0 0 607 0 0 9 0 0 0 0 0 0 0 0 1 0 0 0 0 0 0 0 0 1 0 0 3 0 0 1 0 0 
0 0 0 0 0 0 0 0 0 0 0 0 0 0 0 0 0 0 0 0 0 1 0 0 2 0 0 13 0 0 623 0 0 1185 0 0 1187 0 0 1233 0 0 1184 0 0 1218 0 0 1206 0 0 1173 0 0 1233 0 0 1224 0 0 1222 0 0 1203 0 0 1220 0 0 1224 0 0 1223 0 0 1235 0 0 1248 0 0 1179 0 0 1199 0 0 1196 0 0 1187 0 0 1208 0 0 1210 0 0 1221 0 0 1174 0 0 1179 0 0 1184 0 0 1187 0 0 1219 0 0 1169 0 0 1186 0 0 1221 0 0 1200 0 0 1193 0 0 1190 0 0 1233 0 0 1188 0 0 1191 0 0 1182 0 0 1187 0 0 659 0 0 12 0 0 3 0 0 0 0 0 0 0 0 0 0 0 0 0 0 0 0 0 0 0 0 0 0 0 
0 0 0 0 0 0 0 0 0 0 0 0 0 0 0 0 0 0 0 0 0 2 0 0 3 0 0 13 0 0 643 0 0 1199 0 0 1224 0 0 1198 0 0 1188 0 0 1168 0 0 1206 0 0 1226 0 0 1213 0 0 1143 0 0 1224 0 0 1172 0 0 1215 0 0 1165 0 0 1250 0 0 1197 0 0 1194 0 0 1240 0 0 1232 0 0 1201 0 0 1279 0 0 1157 0 0 1227 0 0 1158 0 0 1190 0 0 1146 0 0 1153 0 0 1211 0 0 1239 0 0 1206 0 0 1248 0 0 1213 0 0 1205 0 0 1165 0 0 1193 0 0 1216 0 0 1203 0 0 1266 0 0 1196 0 0 1225 0 0 649 0 0 4 0 0 1 0 0 0 0 0 0 0 0 2 0 0 0 0 0 0 0 0 1 0 0 0 0 0 
0 0 0 1 0 0 1 0 0 0 0 0 0 0 0 0 0 0 0 0 0 1 0 0 2 0 0 5 0 0 576 0 0 1197 0 0 1207 0 0 1189 0 0 1240 0 0 1227 0 0 1198 0 0 1217 0 0 1236 0 0 1159 0 0 1219 0 0 1206 0 0 1214 0 0 1282 0 0 1171 0 0 1234 0 0 1217 0 0 1224 0 0 1243 0 0 1203 0 0 1199 0 0 1239 0 0 1199 0 0 1208 0 0 1239 0 0 1180 0 0 1193 0 0 1212 0 0 1189 0 0 1220 0 0 1169 0 0 1173 0 0 1168 0 0 1212 0 0 1243 0 0 1175 0 0 1207 0 0 1198 0 0 1154 0 0 1140 0 0 590 0 0 9 0 0 4 0 0 0 0 0 0 0 0 0 0 0 0 0 0 1 0 0 0 0 0 0 0 0 
0 0 0 1 0 0 0 0 0 0 0 0 1 0 0 1 0 0 2 0 0 3 0 0 5 0 0 11 0 0 648 0 0 1208 0 0 1208 0 0 1197 0 0 1177 0 0 1179 0 0 1148 0 0 1154 0 0 1243 0 0 1200 0 0 1176 0 0 1213 0 0 1172 0 0 1188 0 0 1195 0 0 1241 0 0 1206 0 0 1152 0 0 1258 0 0 1239 0 0 1206 0 0 1190 0 0 1221 0 0 1167 0 0 1244 0 0 1204 0 0 1190 0 0 1208 0 0 1186 0 0 1247 0 0 1208 0 0 1199 0 0 1194 0 0 1202 0 0 1177 0 0 1217 0 0 1211 0 0 1256 0 0 1173 0 0 1181 0 0 568 0 0 11 0 0 3 0 0 4 0 0 0 0 0 0 0 0 0 0 0 0 0 0 0 0 0 1 0 0 
0 0 0 0 0 0 0 0 0 0 0 0 0 0 0 1 0 0 0 0 0 1 0 0 0 0 0 6 0 0 586 0 0 1190 0 0 1253 0 0 1211 0 0 1243 0 0 1243 0 0 1176 0 0 1211 0 0 1215 0 0 1157 0 0 1232 0 0 1230 0 0 1221 0 0 1184 0 0 1184 0 0 1224 0 0 1217 0 0 1201 0 0 1142 0 0 1201 0 0 1198 0 0 1223 0 0 1206 0 0 1226 0 0 1197 0 0 1212 0 0 1229 0 0 1169 0 0 1189 0 0 1236 0 0 1185 0 0 1237 0 0 1179 0 0 1154 0 0 1182 0 0 1223 0 0 1201 0 0 1228 0 0 1198 0 0 1134 0 0 583 0 0 11 0 0 2 0 0 0 0 0 1 0 0 0 0 0 0 0 0 0 0 0 0 0 0 0 0 0 
0 0 0 0 0 0 0 0 0 1 0 0 2 0 0 0 0 0 0 0 0 0 0 0 0 0 0 9 0 0 614 0 0 1209 0 0 1213 0 0 1221 0 0 1225 0 0 1222 0 0 1188 0 0 1146 0 0 1160 0 0 1177 0 0 1234 0 0 1145 0 0 1135 0 0 1130 0 0 1199 0 0 1226 0 0 1198 0 0 1238 0 0 1222 0 0 1189 0 0 1227 0 0 1245 0 0 1225 0 0 1180 0 0 1174 0 0 1206 0 0 1144 0 0 1197 0 0 1187 0 0 1190 0 0 1179 0 0 1222 0 0 1158 0 0 1227 0 0 1215 0 0 1225 0 0 1214 0 0 1183 0 0 1203 0 0 1180 0 0 590 0 0 7 0 0 1 0 0 1 0 0 0 0 0 1 0 0 0 0 0 0 0 0 1 0 0 0 0 0 
0 0 0 0 0 0 0 0 0 0 0 0 0 0 0 1 0 0 0 0 0 0 0 0 2 0 0 4 0 0 619 0 0 1186 0 0 1233 0 0 1143 0 0 1160 0 0 1193 0 0 1171 0 0 1232 0 0 1220 0 0 1219 0 0 1224 0 0 1258 0 0 1202 0 0 1211 0 0 1207 0 0 1215 0 0 1243 0 0 1161 0 0 1200 0 0 1213 0 0 1179 0 0 1205 0 0 1233 0 0 1194 0 0 1173 0 0 1201 0 0 1220 0 0 1204 0 0 1204 0 0 1229 0 0 1184 0 0 1196 0 0 1141 0 0 1212 0 0 1196 0 0 1191 0 0 1187 0 0 1149 0 0 1241 0 0 1226 0 0 617 0 0 4 0 0 0 0 0 3 0 0 2 0 0 1 0 0 2 0 0 0 0 0 0 0 0 0 0 0 
0 0 0 0 0 0 0 0 0 0 0 0 0 0 0 0 0 0 0 0 0 1 0 0 1 0 0 6 0 0 640 0 0 1214 0 0 1187 0 0 1192 0 0 1170 0 0 1234 0 0 1243 0 0 1150 0 0 1222 0 0 1190 0 0 1200 0 0 1199 0 0 1165 0 0 1192 0 0 1214 0 0 1219 0 0 1185 0 0 1247 0 0 1185 0 0 1188 0 0 1165 0 0 1270 0 0 1238 0 0 1180 0 0 1204 0 0 1208 0 0 1178 0 0 1253 0 0 1137 0 0 1226 0 0 1184 0 0 1242 0 0 1205 0 0 1127 0 0 1220 0 0 1160 0 0 1182 0 0 1246 0 0 1160 0 0 1180 0 0 594 0 0 7 0 0 0 0 0 0 0 0 0 0 0 0 0 0 0 0 0 0 0 0 0 0 0 0 0 0 
0 0 0 0 0 0 2 0 0 1 0 0 0 0 0 1 0 0 1 0 0 2 0 0 2 0 0 7 0 0 606 0 0 1179 0 0 1193 0 0 1240 0 0 1200 0 0 1209 0 0 1227 0 0 1191 0 0 1196 0 0 1206 0 0 1179 0 0 1180 0 0 1202 0 0 1243 0 0 1248 0 0 1176 0 0 1204 0 0 1217 0 0 1228 0 0 1192 0 0 1240 0 0 1183 0 0 1192 0 0 1196 0 0 1175 0 0 1207 0 0 1218 0 0 1201 0 0 1190 0 0 1193 0 0 1208 0 0 1227 0 0 1211 0 0 1233 0 0 1206 0 0 1246 0 0 1230 0 0 1238 0 0 1223 0 0 1248 0 0 580 0 0 4 0 0 0 0 0 1 0 0 1 0 0 0 0 0 0 0 0 1 0 0 0 0 0 0 0 0 
0 0 0 0 0 0 2 0 0 0 0 0 0 0 0 0 0 0 0 0 0 2 0 0 6 0 0 11 0 0 613 0 0 1204 0 0 1234 0 0 1193 0 0 1188 0 0 1139 0 0 1180 0 0 1184 0 0 1205 0 0 1247 0 0 1173 0 0 1223 0 0 1213 0 0 1232 0 0 1239 0 0 1165 0 0 1253 0 0 1190 0 0 1210 0 0 1162 0 0 1209 0 0 1237 0 0 1218 0 0 1238 0 0 1152 0 0 1181 0 0 1238 0 0 1199 0 0 1159 0 0 1197 0 0 1131 0 0 1168 0 0 1159 0 0 1199 0 0 1199 0 0 1170 0 0 1229 0 0 1188 0 0 1175 0 0 1193 0 0 591 0 0 8 0 0 2 0 0 1 0 0 0 0 0 0 0 0 0 0 0 0 0 0 1 0 0 0 0 0 
0 0 0 1 0 0 0 0 0 0 0 0 0 0 0 1 0 0 0 0 0 0 0 0 2 0 0 7 0 0 586 0 0 1196 0 0 1243 0 0 1206 0 0 1171 0 0 1133 0 0 1254 0 0 1197 0 0 1196 0 0 1250 0 0 1237 0 0 1203 0 0 1207 0 0 1179 0 0 1207 0 0 1215 0 0 1203 0 0 1239 0 0 1218 0 0 1196 0 0 1207 0 0 1216 0 0 1159 0 0 1231 0 0 1240 0 0 1207 0 0 1162 0 0 1163 0 0 1256 0 0 1243 0 0 1224 0 0 1191 0 0 1179 0 0 1150 0 0 1124 0 0 1199 0 0 1205 0 0 1245 0 0 1206 0 0 1189 0 0 583 0 0 10 0 0 2 0 0 0 0 0 0 0 0 1 0 0 0 0 0 0 0 0 0 0 0 0 0 0 
0 0 0 0 0 0 1 0 0 0 0 0 0 0 0 0 0 0 0 0 0 0 0 0 0 0 0 5 0 0 619 0 0 1174 0 0 1254 0 0 1181 0 0 1211 0 0 1278 0 0 1238 0 0 1158 0 0 1167 0 0 1229 0 0 1198 0 0 1198 0 0 1240 0 0 1255 0 0 1216 0 0 1207 0 0 1192 0 0 1193 0 0 1159 0 0 1178 0 0 1214 0 0 1223 0 0 1240 0 0 1217 0 0 1193 0 0 1205 0 0 1228 0 0 1196 0 0 1268 0 0 1174 0 0 1181 0 0 1184 0 0 1239 0 0 1177 0 0 1185 0 0 1219 0 0 1244 0 0 1183 0 0 1244 0 0 1206 0 0 629 0 0 7 0 0 2 0 0 2 0 0 0 0 0 1 0 0 0 0 0 0 0 0 0 0 0 0 0 0 
0 0 0 1 0 0 2 0 0 0 0 0 0 0 0 1 0 0 1 0 0 0 0 0 0 0 0 6 0 0 595 0 0 1156 0 0 1168 0 0 1172 0 0 1193 0 0 1197 0 0 1188 0 0 1192 0 0 1186 0 0 1158 0 0 1186 0 0 1233 0 0 1213 0 0 1216 0 0 1216 0 0 1257 0 0 1174 0 0 1251 0 0 1219 0 0 1241 0 0 1202 0 0 1173 0 0 1169 0 0 1164 0 0 1146 0 0 1194 0 0 1207 0 0 1199 0 0 1208 0 0 1253 0 0 1163 0 0 1224 0 0 1178 0 0 1169 0 0 1223 0 0 1239 0 0 1249 0 0 1233 0 0 1212 0 0 1126 0 0 593 0 0 14 0 0 3 0 0 1 0 0 0 0 0 0 0 0 0 0 0 0 0 0 0 0 0 0 0 0 
0 0 0 0 0 0 0 0 0 0 0 0 0 0 0 0 0 0 0 0 0 0 0 0 0 0 0 3 0 0 553 0 0 1188 0 0 1240 0 0 1235 0 0 1210 0 0 1163 0 0 1180 0 0 1184 0 0 1166 0 0 1217 0 0 1204 0 0 1303 0 0 1243 0 0 1286 0 0 1212 0 0 1197 0 0 1204 0 0 1192 0 0 1196 0 0 1151 0 0 1239 0 0 1216 0 0 1187 0 0 1187 0 0 1190 0 0 1165 0 0 1237 0 0 1211 0 0 1211 0 0 1190 0 0 1201 0 0 1223 0 0 1192 0 0 1162 0 0 1186 0 0 1272 0 0 1170 0 0 1212 0 0 1147 0 0 1199 0 0 610 0 0 11 0 0 1 0 0 2 0 0 1 0 0 0 0 0 2 0 0 0 0 0 0 0 0 0 0 0 
0 0 0 1 0 0 1 0 0 0 0 0 0 0 0 0 0 0 0 0 0 1 0 0 1 0 0 8 0 0 595 0 0 1229 0 0 1238 0 0 1197 0 0 1188 0 0 1189 0 0 1230 0 0 1185 0 0 1219 0 0 1218 0 0 1205 0 0 1178 0 0 1209 0 0 1187 0 0 1241 0 0 1181 0 0 1229 0 0 1228 0 0 1185 0 0 1238 0 0 1258 0 0 1230 0 0 1182 0 0 1222 0 0 1202 0 0 1181 0 0 1237 0 0 1240 0 0 1218 0 0 1216 0 0 1226 0 0 1173 0 0 1216 0 0 1170 0 0 1189 0 0 1213 0 0 1196 0 0 1147 0 0 1188 0 0 1140 0 0 588 0 0 3 0 0 0 0 0 0 0 0 0 0 0 0 0 0 0 0 0 2 0 0 1 0 0 0 0 0 
0 0 0 0 0 0 0 0 0 0 0 0 0 0 0 0 0 0 0 0 0 0 0 0 5 0 0 7 0 0 618 0 0 1244 0 0 1260 0 0 1175 0 0 1219 0 0 1208 0 0 1232 0 0 1179 0 0 1245 0 0 1174 0 0 1222 0 0 1228 0 0 1201 0 0 1186 0 0 1204 0 0 1213 0 0 1220 0 0 1187 0 0 1171 0 0 1193 0 0 1274 0 0 1219 0 0 1182 0 0 1237 0 0 1223 0 0 1189 0 0 1199 0 0 1200 0 0 1232 0 0 1170 0 0 1194 0 0 1221 0 0 1203 0 0 1237 0 0 1211 0 0 1161 0 0 1174 0 0 1201 0 0 1212 0 0 1247 0 0 592 0 0 11 0 0 0 0 0 0 0 0 0 0 0 0 0 0 1 0 0 0 0 0 1 0 0 3 0 0 
0 0 0 0 0 0 0 0 0 0 0 0 1 0 0 0 0 0 0 0 0 0 0 0 2 0 0 3 0 0 604 0 0 1164 0 0 1204 0 0 1184 0 0 1172 0 0 1189 0 0 1203 0 0 1230 0 0 1252 0 0 1217 0 0 1193 0 0 1218 0 0 1197 0 0 1205 0 0 1151 0 0 1164 0 0 1177 0 0 1197 0 0 1177 0 0 1274 0 0 1165 0 0 1214 0 0 1170 0 0 1210 0 0 1243 0 0 1181 0 0 1226 0 0 1220 0 0 1194 0 0 1181 0 0 1177 0 0 1220 0 0 1215 0 0 1170 0 0 1160 0 0 1205 0 0 1177 0 0 1171 0 0 1186 0 0 1167 0 0 594 0 0 9 0 0 0 0 0 0 0 0 0 0 0 0 0 0 0 0 0 0 0 0 0 0 0 0 0 0 
0 0 0 0 0 0 1 0 0 0 0 0 0 0 0 0 0 0 0 0 0 0 0 0 3 0 0 4 0 0 274 0 0 588 0 0 603 0 0 573 0 0 601 0 0 592 0 0 598 0 0 608 0 0 631 0 0 645 0 0 590 0 0 608 0 0 581 0 0 600 0 0 610 0 0 597 0 0 617 0 0 607 0 0 583 0 0 625 0 0 609 0 0 612 0 0 613 0 0 604 0 0 586 0 0 611 0 0 576 0 0 605 0 0 602 0 0 599 0 0 622 0 0 627 0 0 585 0 0 618 0 0 613 0 0 573 0 0 609 0 0 598 0 0 611 0 0 588 0 0 314 0 0 2 0 0 0 0 0 0 0 0 0 0 0 1 0 0 0 0 0 1 0 0 0 0 0 0 0 0 
0 0 0 0 0 0 0 0 0 0 0 0 0 0 0 0 0 0 1 0 0 0 0 0 1 0 0 0 0 0 4 0 0 5 0 0 12 0 0 8 0 0 11 0 0 10 0 0 8 0 0 9 0 0 10 0 0 5 0 0 5 0 0 11 0 0 6 0 0 11 0 0 3 0 0 8 0 0 12 0 0 11 0 0 7 0 0 5 0 0 6 0 0 6 0 0 4 0 0 12 0 0 10 0 0 4 0 0 10 0 0 5 0 0 4 0 0 7 0 0 9 0 0 9 0 0 12 0 0 8 0 0 11 0 0 5 0 0 4 0 0 6 0 0 3 0 0 4 0 0 2 0 0 2 0 0 0 0 0 0 0 0 0 0 0 0 0 0 0 0 0 0 0 0 0 0 0 0 0 0 
0 0 0 0 0 0 0 0 0 0 0 0 0 0 0 0 0 0 0 0 0 0 0 0 0 0 0 0 0 0 2 0 0 1 0 0 2 0 0 2 0 0 1 0 0 2 0 0 5 0 0 1 0 0 4 0 0 0 0 0 2 0 0 1 0 0 2 0 0 2 0 0 1 0 0 5 0 0 5 0 0 5 0 0 5 0 0 2 0 0 0 0 0 0 0 0 2 0 0 0 0 0 0 0 0 2 0 0 3 0 0 1 0 0 1 0 0 2 0 0 2 0 0 1 0 0 1 0 0 2 0 0 5 0 0 1 0 0 0 0 0 0 0 0 0 0 0 0 0 0 0 0 0 0 0 0 0 0 0 2 0 0 0 0 0 0 0 0 0 0 0 0 0 0 0 0 0 1 0 0 
0 0 0 0 0 0 1 0 0 0 0 0 0 0 0 0 0 0 0 0 0 0 0 0 0 0 0 1 0 0 0 0 0 0 0 0 1 0 0 2 0 0 0 0 0 1 0 0 0 0 0 0 0 0 4 0 0 3 0 0 0 0 0 0 0 0 0 0 0 1 0 0 2 0 0 2 0 0 1 0 0 3 0 0 4 0 0 3 0 0 0 0 0 0 0 0 0 0 0 0 0 0 0 0 0 0 0 0 1 0 0 1 0 0 1 0 0 1 0 0 3 0 0 1 0 0 1 0 0 1 0 0 2 0 0 0 0 0 0 0 0 0 0 0 0 0 0 0 0 0 0 0 0 0 0 0 0 0 0 0 0 0 1 0 0 0 0 0 0 0 0 0 0 0 0 0 0 0 0 0 
0 0 0 0 0 0 0 0 0 2 0 0 0 0 0 0 0 0 1 0 0 0 0 0 0 0 0 0 0 0 0 0 0 0 0 0 1 0 0 1 0 0 0 0 0 0 0 0 0 0 0 1 0 0 1 0 0 1 0 0 1 0 0 0 0 0 1 0 0 1 0 0 1 0 0 0 0 0 1 0 0 3 0 0 0 0 0 2 0 0 0 0 0 0 0 0 0 0 0 0 0 0 0 0 0 1 0 0 0 0 0 1 0 0 1 0 0 0 0 0 4 0 0 1 0 0 1 0 0 1 0 0 1 0 0 1 0 0 1 0 0 0 0 0 1 0 0 0 0 0 0 0 0 0 0 0 0 0 0 0 0 0 0 0 0 0 0 0 0 0 0 0 0 0 0 0 0 0 0 0 
0 0 0 0 0 0 1 0 0 0 0 0 0 0 0 0 0 0 0 0 0 0 0 0 0 0 0 1 0 0 0 0 0 0 0 0 1 0 0 0 0 0 0 0 0 0 0 0 1 0 0 1 0 0 1 0 0 1 0 0 2 0 0 0 0 0 1 0 0 0 0 0 0 0 0 3 0 0 3 0 0 0 0 0 0 0 0 0 0 0 0 0 0 1 0 0 2 0 0 1 0 0 0 0 0 0 0 0 2 0 0 1 0 0 0 0 0 0 0 0 2 0 0 0 0 0 3 0 0 0 0 0 1 0 0 0 0 0 1 0 0 0 0 0 1 0 0 3 0 0 0 0 0 0 0 0 0 0 0 0 0 0 1 0 0 0 0 0 0 0 0 1 0 0 0 0 0 0 0 0 
0 0 0 0 0 0 0 0 0 0 0 0 0 0 0 0 0 0 0 0 0 0 0 0 0 0 0 0 0 0 0 0 0 0 0 0 1 0 0 1 0 0 0 0 0 0 0 0 0 0 0 2 0 0 0 0 0 1 0 0 3 0 0 1 0 0 0 0 0 0 0 0 0 0 0 0 0 0 3 0 0 2 0 0 1 0 0 0 0 0 0 0 0 0 0 0 0 0 0 1 0 0 0 0 0 0 0 0 0 0 0 0 0 0 0 0 0 1 0 0 0 0 0 0 0 0 1 0 0 1 0 0 1 0 0 0 0 0 0 0 0 0 0 0 0 0 0 0 0 0 1 0 0 0 0 0 0 0 0 0 0 0 0 0 0 0 0 0 0 0 0 0 0 0 0 0 0 0 0 0 
0 0 0 0 0 0 1 0 0 0 0 0 0 0 0 0 0 0 0 0 0 0 0 0 0 0 0 0 0 0 0 0 0 0 0 0 1 0 0 0 0 0 0 0 0 0 0 0 0 0 0 1 0 0 0 0 0 1 0 0 1 0 0 0 0 0 0 0 0 0 0 0 0 0 0 0 0 0 2 0 0 2 0 0 0 0 0 1 0 0 0 0 0 0 0 0 0 0 0 1 0 0 0 0 0 0 0 0 0 0 0 0 0 0 0 0 0 0 0 0 0 0 0 1 0 0 2 0 0 0 0 0 0 0 0 0 0 0 0 0 0 0 0 0 0 0 0 0 0 0 0 0 0 0 0 0 0 0 0 0 0 0 0 0 0 0 0 0 0 0 0 0 0 0 0 0 0 0 0 0 
0 0 0 2 0 0 0 0 0 0 0 0 0 0 0 0 0 0 0 0 0 0 0 0 0 0 0 0 0 0 0 0 0 0 0 0 1 0 0 1 0 0 0 0 0 0 0 0 1 0 0 0 0 0 1 0 0 0 0 0 0 0 0 0 0 0 0 0 0 0 0 0 0 0 0 0 0 0 1 0 0 1 0 0 0 0 0 1 0 0 0 0 0 0 0 0 0 0 0 2 0 0 0 0 0 0 0 0 0 0 0 0 0 0 0 0 0 0 0 0 0 0 0 0 0 0 3 0 0 0 0 0 0 0 0 0 0 0 0 0 0 0 0 0 0 0 0 0 0 0 0 0 0 0 0 0 0 0 0 0 0 0 0 0 0 0 0 0 0 0 0 0 0 0 0 0 0 0 0 0 
0 0 0 0 0 0 0 0 0 0 0 0 0 0 0 0 0 0 1 0 0 0 0 0 0 0 0 0 0 0 0 0 0 0 0 0 1 0 0 0 0 0 0 0 0 0 0 0 0 0 0 1 0 0 1 0 0 0 0 0 0 0 0 0 0 0 0 0 0 0 0 0 0 0 0 1 0 0 0 0 0 0 0 0 0 0 0 0 0 0 0 0 0 0 0 0 1 0 0 0 0 0 1 0 0 0 0 0 0 0 0 1 0 0 0 0 0 0 0 0 0 0 0 0 0 0 1 0 0 0 0 0 0 0 0 0 0 0 0 0 0 2 0 0 0 0 0 0 0 0 0 0 0 0 0 0 0 0 0 0 0 0 0 0 0 0 0 0 0 0 0 0 0 0 0 0 0 0 0 0 
