P3
# This is a dose file slice at depth 70 of 100
60 60
# now we give the maximum value of the RGB coordinates.
1602
0 0 0 0 0 0 0 0 0 0 0 0 0 0 0 0 0 0 0 0 0 0 0 0 0 0 0 0 0 0 0 0 0 0 0 0 0 0 0 0 0 0 0 0 0 0 0 0 0 0 0 0 0 0 0 0 0 0 0 0 0 0 0 0 0 0 0 0 0 0 0 0 0 0 0 0 0 0 0 0 0 0 0 0 0 0 0 0 0 0 0 0 0 0 0 0 0 0 0 0 0 0 0 0 0 0 0 0 0 0 0 0 0 0 0 0 0 0 0 0 0 0 0 0 0 0 0 0 0 0 0 0 0 0 0 0 0 0 0 0 0 0 0 0 0 0 0 0 0 0 0 0 0 0 0 0 0 0 0 0 0 0 0 0 0 0 0 0 0 0 0 0 0 0 0 0 0 0 0 0 
0 0 0 0 0 0 0 0 0 0 0 0 0 0 0 0 0 0 0 0 0 0 0 0 0 0 0 0 0 0 0 0 0 0 0 0 0 0 0 0 0 0 0 0 0 0 0 0 0 0 0 0 0 0 0 0 0 0 0 0 0 0 0 0 0 0 0 0 0 0 0 0 0 0 0 0 0 0 0 0 0 0 0 0 0 0 0 0 0 0 0 0 0 0 0 0 0 0 0 0 0 0 0 0 0 0 0 0 0 0 0 0 0 0 0 0 0 0 0 0 0 0 0 0 0 0 0 0 0 0 0 0 0 0 0 0 0 0 0 0 0 0 0 0 1 0 0 0 0 0 2 0 0 0 0 0 0 0 0 0 0 0 0 0 0 0 0 0 0 0 0 0 0 0 0 0 0 0 0 0 
0 0 0 0 0 0 0 0 0 0 0 0 0 0 0 0 0 0 0 0 0 0 0 0 0 0 0 0 0 0 0 0 0 0 0 0 0 0 0 0 0 0 0 0 0 0 0 0 0 0 0 0 0 0 0 0 0 0 0 0 0 0 0 0 0 0 0 0 0 0 0 0 0 0 0 0 0 0 0 0 0 0 0 0 0 0 0 0 0 0 0 0 0 0 0 0 0 0 0 0 0 0 0 0 0 0 0 0 0 0 0 1 0 0 0 0 0 0 0 0 0 0 0 0 0 0 0 0 0 0 0 0 0 0 0 0 0 0 0 0 0 0 0 0 0 0 0 0 0 0 1 0 0 1 0 0 0 0 0 0 0 0 0 0 0 0 0 0 0 0 0 0 0 0 0 0 0 0 0 0 
0 0 0 0 0 0 0 0 0 0 0 0 0 0 0 0 0 0 0 0 0 0 0 0 0 0 0 0 0 0 0 0 0 0 0 0 0 0 0 0 0 0 0 0 0 0 0 0 0 0 0 0 0 0 0 0 0 0 0 0 0 0 0 0 0 0 0 0 0 0 0 0 0 0 0 0 0 0 0 0 0 0 0 0 0 0 0 0 0 0 0 0 0 0 0 0 0 0 0 0 0 0 0 0 0 0 0 0 0 0 0 0 0 0 0 0 0 0 0 0 0 0 0 0 0 0 0 0 0 0 0 0 0 0 0 0 0 0 0 0 0 1 0 0 0 0 0 1 0 0 0 0 0 0 0 0 0 0 0 0 0 0 0 0 0 0 0 0 0 0 0 0 0 0 0 0 0 0 0 0 
0 0 0 0 0 0 0 0 0 0 0 0 0 0 0 0 0 0 0 0 0 0 0 0 0 0 0 0 0 0 0 0 0 0 0 0 0 0 0 0 0 0 0 0 0 0 0 0 0 0 0 0 0 0 0 0 0 0 0 0 0 0 0 0 0 0 0 0 0 0 0 0 0 0 0 0 0 0 0 0 0 0 0 0 0 0 0 0 0 0 0 0 0 0 0 0 0 0 0 0 0 0 0 0 0 0 0 0 0 0 0 0 0 0 0 0 0 0 0 0 0 0 0 0 0 0 0 0 0 0 0 0 0 0 0 0 0 0 0 0 0 0 0 0 0 0 0 0 0 0 1 0 0 0 0 0 0 0 0 0 0 0 0 0 0 0 0 0 0 0 0 0 0 0 0 0 0 0 0 0 
0 0 0 0 0 0 0 0 0 0 0 0 0 0 0 0 0 0 0 0 0 0 0 0 0 0 0 0 0 0 0 0 0 0 0 0 0 0 0 0 0 0 0 0 0 0 0 0 0 0 0 0 0 0 0 0 0 0 0 0 0 0 0 0 0 0 0 0 0 0 0 0 0 0 0 0 0 0 0 0 0 0 0 0 0 0 0 0 0 0 0 0 0 0 0 0 0 0 0 0 0 0 0 0 0 0 0 0 0 0 0 1 0 0 0 0 0 1 0 0 0 0 0 0 0 0 0 0 0 0 0 0 0 0 0 0 0 0 1 0 0 0 0 0 2 0 0 0 0 0 1 0 0 0 0 0 0 0 0 0 0 0 0 0 0 1 0 0 0 0 0 0 0 0 0 0 0 0 0 0 
0 0 0 0 0 0 0 0 0 0 0 0 0 0 0 0 0 0 0 0 0 0 0 0 0 0 0 1 0 0 0 0 0 0 0 0 0 0 0 0 0 0 0 0 0 0 0 0 0 0 0 0 0 0 0 0 0 0 0 0 0 0 0 0 0 0 0 0 0 0 0 0 0 0 0 0 0 0 0 0 0 0 0 0 0 0 0 0 0 0 0 0 0 0 0 0 0 0 0 0 0 0 0 0 0 0 0 0 0 0 0 0 0 0 0 0 0 0 0 0 0 0 0 0 0 0 0 0 0 0 0 0 1 0 0 0 0 0 0 0 0 0 0 0 1 0 0 0 0 0 0 0 0 0 0 0 0 0 0 1 0 0 0 0 0 0 0 0 0 0 0 0 0 0 0 0 0 0 0 0 
0 0 0 0 0 0 0 0 0 0 0 0 0 0 0 0 0 0 0 0 0 0 0 0 0 0 0 0 0 0 0 0 0 0 0 0 0 0 0 0 0 0 0 0 0 0 0 0 0 0 0 0 0 0 0 0 0 0 0 0 0 0 0 0 0 0 0 0 0 0 0 0 0 0 0 0 0 0 0 0 0 0 0 0 0 0 0 0 0 0 1 0 0 0 0 0 0 0 0 0 0 0 0 0 0 0 0 0 0 0 0 0 0 0 0 0 0 0 0 0 0 0 0 0 0 0 0 0 0 1 0 0 0 0 0 0 0 0 2 0 0 1 0 0 0 0 0 0 0 0 0 0 0 0 0 0 0 0 0 0 0 0 0 0 0 0 0 0 0 0 0 0 0 0 0 0 0 0 0 0 
0 0 0 0 0 0 0 0 0 0 0 0 0 0 0 0 0 0 0 0 0 1 0 0 0 0 0 0 0 0 0 0 0 0 0 0 0 0 0 0 0 0 0 0 0 0 0 0 0 0 0 0 0 0 0 0 0 0 0 0 0 0 0 0 0 0 0 0 0 0 0 0 0 0 0 0 0 0 0 0 0 0 0 0 0 0 0 0 0 0 0 0 0 0 0 0 0 0 0 0 0 0 0 0 0 0 0 0 0 0 0 0 0 0 0 0 0 0 0 0 0 0 0 0 0 0 0 0 0 0 0 0 0 0 0 0 0 0 1 0 0 0 0 0 0 0 0 0 0 0 0 0 0 0 0 0 0 0 0 0 0 0 0 0 0 0 0 0 0 0 0 0 0 0 0 0 0 2 0 0 
0 0 0 0 0 0 0 0 0 0 0 0 0 0 0 0 0 0 0 0 0 0 0 0 0 0 0 0 0 0 4 0 0 1 0 0 2 0 0 0 0 0 3 0 0 2 0 0 1 0 0 2 0 0 4 0 0 4 0 0 2 0 0 2 0 0 3 0 0 4 0 0 2 0 0 2 0 0 2 0 0 4 0 0 6 0 0 3 0 0 5 0 0 3 0 0 4 0 0 0 0 0 0 0 0 1 0 0 5 0 0 1 0 0 0 0 0 1 0 0 3 0 0 1 0 0 2 0 0 0 0 0 1 0 0 8 0 0 2 0 0 5 0 0 3 0 0 4 0 0 4 0 0 0 0 0 0 0 0 0 0 0 0 0 0 0 0 0 0 0 0 0 0 0 0 0 0 0 0 0 
0 0 0 0 0 0 0 0 0 0 0 0 0 0 0 0 0 0 0 0 0 0 0 0 0 0 0 2 0 0 75 0 0 192 0 0 167 0 0 164 0 0 168 0 0 164 0 0 159 0 0 164 0 0 159 0 0 157 0 0 157 0 0 171 0 0 174 0 0 173 0 0 148 0 0 177 0 0 168 0 0 143 0 0 160 0 0 148 0 0 174 0 0 156 0 0 195 0 0 154 0 0 170 0 0 161 0 0 165 0 0 167 0 0 164 0 0 153 0 0 185 0 0 149 0 0 153 0 0 145 0 0 160 0 0 177 0 0 165 0 0 161 0 0 153 0 0 163 0 0 86 0 0 0 0 0 0 0 0 0 0 0 0 0 0 0 0 0 0 0 0 0 0 0 0 0 0 0 0 0 
0 0 0 0 0 0 0 0 0 0 0 0 0 0 0 0 0 0 0 0 0 0 0 0 0 0 0 1 0 0 163 0 0 313 0 0 322 0 0 348 0 0 337 0 0 339 0 0 307 0 0 312 0 0 310 0 0 336 0 0 299 0 0 302 0 0 326 0 0 338 0 0 305 0 0 333 0 0 368 0 0 320 0 0 298 0 0 324 0 0 319 0 0 388 0 0 334 0 0 310 0 0 335 0 0 308 0 0 335 0 0 334 0 0 326 0 0 347 0 0 331 0 0 309 0 0 327 0 0 310 0 0 323 0 0 294 0 0 316 0 0 329 0 0 346 0 0 304 0 0 173 0 0 2 0 0 0 0 0 0 0 0 0 0 0 0 0 0 0 0 0 0 0 0 0 0 0 0 0 0 
0 0 0 0 0 0 0 0 0 0 0 0 0 0 0 0 0 0 0 0 0 0 0 0 0 0 0 0 0 0 158 0 0 301 0 0 317 0 0 343 0 0 324 0 0 316 0 0 314 0 0 327 0 0 304 0 0 320 0 0 306 0 0 307 0 0 342 0 0 336 0 0 310 0 0 334 0 0 301 0 0 309 0 0 317 0 0 309 0 0 361 0 0 326 0 0 331 0 0 344 0 0 280 0 0 310 0 0 339 0 0 313 0 0 330 0 0 274 0 0 311 0 0 320 0 0 314 0 0 294 0 0 346 0 0 328 0 0 313 0 0 322 0 0 342 0 0 327 0 0 180 0 0 1 0 0 0 0 0 0 0 0 0 0 0 0 0 0 0 0 0 0 0 0 0 0 0 0 0 0 
0 0 0 1 0 0 0 0 0 0 0 0 1 0 0 0 0 0 0 0 0 0 0 0 0 0 0 3 0 0 147 0 0 332 0 0 338 0 0 323 0 0 339 0 0 308 0 0 317 0 0 307 0 0 345 0 0 324 0 0 332 0 0 312 0 0 282 0 0 314 0 0 355 0 0 296 0 0 330 0 0 330 0 0 336 0 0 305 0 0 331 0 0 307 0 0 337 0 0 329 0 0 307 0 0 308 0 0 341 0 0 309 0 0 345 0 0 298 0 0 328 0 0 305 0 0 317 0 0 324 0 0 338 0 0 335 0 0 334 0 0 328 0 0 338 0 0 313 0 0 158 0 0 2 0 0 0 0 0 0 0 0 0 0 0 0 0 0 0 0 0 0 0 0 0 0 0 0 0 0 
0 0 0 0 0 0 0 0 0 0 0 0 0 0 0 0 0 0 0 0 0 0 0 0 0 0 0 3 0 0 157 0 0 302 0 0 323 0 0 321 0 0 324 0 0 297 0 0 357 0 0 344 0 0 340 0 0 352 0 0 311 0 0 336 0 0 318 0 0 354 0 0 306 0 0 344 0 0 317 0 0 293 0 0 299 0 0 330 0 0 308 0 0 337 0 0 333 0 0 345 0 0 326 0 0 333 0 0 319 0 0 337 0 0 314 0 0 300 0 0 279 0 0 325 0 0 300 0 0 357 0 0 318 0 0 315 0 0 331 0 0 337 0 0 334 0 0 356 0 0 157 0 0 0 0 0 0 0 0 1 0 0 0 0 0 0 0 0 0 0 0 0 0 0 0 0 0 1 0 0 
0 0 0 0 0 0 0 0 0 0 0 0 0 0 0 0 0 0 0 0 0 0 0 0 0 0 0 0 0 0 135 0 0 314 0 0 319 0 0 317 0 0 340 0 0 315 0 0 324 0 0 337 0 0 349 0 0 302 0 0 331 0 0 350 0 0 316 0 0 343 0 0 323 0 0 322 0 0 315 0 0 349 0 0 313 0 0 342 0 0 331 0 0 316 0 0 325 0 0 303 0 0 314 0 0 322 0 0 312 0 0 346 0 0 302 0 0 308 0 0 327 0 0 311 0 0 313 0 0 303 0 0 321 0 0 332 0 0 358 0 0 350 0 0 317 0 0 312 0 0 183 0 0 2 0 0 0 0 0 0 0 0 0 0 0 0 0 0 0 0 0 0 0 0 1 0 0 0 0 0 
0 0 0 0 0 0 0 0 0 0 0 0 0 0 0 0 0 0 1 0 0 0 0 0 0 0 0 4 0 0 178 0 0 319 0 0 309 0 0 349 0 0 313 0 0 329 0 0 340 0 0 329 0 0 322 0 0 313 0 0 326 0 0 314 0 0 318 0 0 325 0 0 317 0 0 320 0 0 315 0 0 324 0 0 333 0 0 318 0 0 317 0 0 306 0 0 322 0 0 316 0 0 367 0 0 312 0 0 331 0 0 302 0 0 313 0 0 333 0 0 306 0 0 340 0 0 336 0 0 319 0 0 314 0 0 316 0 0 359 0 0 327 0 0 334 0 0 329 0 0 170 0 0 4 0 0 0 0 0 0 0 0 0 0 0 0 0 0 0 0 0 0 0 0 0 0 0 0 0 0 
0 0 0 0 0 0 0 0 0 1 0 0 0 0 0 0 0 0 0 0 0 0 0 0 0 0 0 0 0 0 152 0 0 311 0 0 324 0 0 336 0 0 309 0 0 312 0 0 322 0 0 297 0 0 314 0 0 299 0 0 320 0 0 335 0 0 307 0 0 366 0 0 350 0 0 328 0 0 332 0 0 328 0 0 328 0 0 358 0 0 291 0 0 308 0 0 296 0 0 309 0 0 318 0 0 337 0 0 326 0 0 299 0 0 324 0 0 343 0 0 352 0 0 378 0 0 310 0 0 305 0 0 311 0 0 292 0 0 320 0 0 342 0 0 323 0 0 346 0 0 148 0 0 2 0 0 0 0 0 0 0 0 0 0 0 0 0 0 0 0 0 0 0 0 0 0 0 0 0 0 
0 0 0 0 0 0 1 0 0 0 0 0 0 0 0 0 0 0 0 0 0 0 0 0 0 0 0 2 0 0 180 0 0 339 0 0 340 0 0 312 0 0 325 0 0 337 0 0 311 0 0 307 0 0 307 0 0 318 0 0 342 0 0 309 0 0 340 0 0 341 0 0 328 0 0 333 0 0 324 0 0 321 0 0 330 0 0 329 0 0 337 0 0 307 0 0 324 0 0 317 0 0 358 0 0 306 0 0 330 0 0 309 0 0 316 0 0 288 0 0 335 0 0 336 0 0 307 0 0 329 0 0 331 0 0 324 0 0 326 0 0 330 0 0 321 0 0 291 0 0 156 0 0 3 0 0 0 0 0 0 0 0 0 0 0 0 0 0 0 0 0 0 0 0 0 0 0 0 0 0 
0 0 0 0 0 0 0 0 0 0 0 0 0 0 0 0 0 0 1 0 0 0 0 0 0 0 0 1 0 0 181 0 0 315 0 0 335 0 0 328 0 0 335 0 0 332 0 0 327 0 0 321 0 0 323 0 0 328 0 0 306 0 0 347 0 0 337 0 0 309 0 0 316 0 0 327 0 0 336 0 0 323 0 0 328 0 0 326 0 0 336 0 0 333 0 0 326 0 0 308 0 0 326 0 0 324 0 0 310 0 0 295 0 0 319 0 0 286 0 0 321 0 0 337 0 0 337 0 0 311 0 0 304 0 0 345 0 0 333 0 0 292 0 0 358 0 0 303 0 0 167 0 0 3 0 0 0 0 0 0 0 0 0 0 0 0 0 0 0 0 0 0 0 0 0 0 0 0 0 0 
0 0 0 0 0 0 0 0 0 0 0 0 0 0 0 0 0 0 0 0 0 0 0 0 0 0 0 1 0 0 169 0 0 333 0 0 317 0 0 324 0 0 327 0 0 302 0 0 340 0 0 326 0 0 347 0 0 311 0 0 339 0 0 313 0 0 324 0 0 314 0 0 324 0 0 333 0 0 347 0 0 303 0 0 345 0 0 322 0 0 295 0 0 310 0 0 331 0 0 355 0 0 324 0 0 316 0 0 277 0 0 309 0 0 320 0 0 331 0 0 306 0 0 305 0 0 305 0 0 333 0 0 343 0 0 352 0 0 331 0 0 328 0 0 322 0 0 310 0 0 160 0 0 3 0 0 0 0 0 0 0 0 0 0 0 0 0 0 0 0 0 0 0 0 0 0 0 1 0 0 
0 0 0 0 0 0 0 0 0 0 0 0 0 0 0 0 0 0 0 0 0 0 0 0 0 0 0 3 0 0 158 0 0 305 0 0 323 0 0 329 0 0 309 0 0 305 0 0 344 0 0 293 0 0 318 0 0 309 0 0 340 0 0 310 0 0 340 0 0 300 0 0 351 0 0 311 0 0 323 0 0 331 0 0 332 0 0 304 0 0 340 0 0 322 0 0 333 0 0 316 0 0 337 0 0 309 0 0 323 0 0 331 0 0 327 0 0 310 0 0 330 0 0 348 0 0 322 0 0 340 0 0 296 0 0 328 0 0 319 0 0 319 0 0 317 0 0 332 0 0 153 0 0 4 0 0 0 0 0 0 0 0 0 0 0 0 0 0 0 0 0 0 0 0 0 0 0 0 0 0 
0 0 0 0 0 0 0 0 0 0 0 0 0 0 0 0 0 0 0 0 0 0 0 0 0 0 0 4 0 0 158 0 0 359 0 0 322 0 0 325 0 0 313 0 0 325 0 0 308 0 0 366 0 0 328 0 0 374 0 0 324 0 0 315 0 0 331 0 0 316 0 0 312 0 0 321 0 0 302 0 0 340 0 0 346 0 0 324 0 0 320 0 0 306 0 0 310 0 0 337 0 0 343 0 0 330 0 0 344 0 0 324 0 0 351 0 0 325 0 0 340 0 0 304 0 0 339 0 0 336 0 0 350 0 0 329 0 0 309 0 0 338 0 0 326 0 0 318 0 0 176 0 0 5 0 0 1 0 0 0 0 0 2 0 0 1 0 0 0 0 0 0 0 0 0 0 0 0 0 0 
0 0 0 0 0 0 0 0 0 0 0 0 0 0 0 0 0 0 0 0 0 0 0 0 0 0 0 3 0 0 166 0 0 328 0 0 312 0 0 339 0 0 335 0 0 366 0 0 333 0 0 325 0 0 339 0 0 339 0 0 310 0 0 352 0 0 305 0 0 296 0 0 325 0 0 313 0 0 355 0 0 335 0 0 335 0 0 305 0 0 353 0 0 291 0 0 308 0 0 374 0 0 338 0 0 295 0 0 322 0 0 312 0 0 343 0 0 322 0 0 317 0 0 336 0 0 334 0 0 318 0 0 341 0 0 311 0 0 330 0 0 337 0 0 347 0 0 348 0 0 204 0 0 1 0 0 1 0 0 1 0 0 0 0 0 0 0 0 0 0 0 0 0 0 0 0 0 0 0 0 
0 0 0 0 0 0 0 0 0 0 0 0 0 0 0 0 0 0 0 0 0 0 0 0 0 0 0 2 0 0 141 0 0 325 0 0 325 0 0 314 0 0 350 0 0 336 0 0 323 0 0 333 0 0 313 0 0 341 0 0 331 0 0 311 0 0 345 0 0 299 0 0 315 0 0 311 0 0 339 0 0 320 0 0 345 0 0 329 0 0 332 0 0 318 0 0 336 0 0 325 0 0 316 0 0 314 0 0 342 0 0 346 0 0 297 0 0 328 0 0 328 0 0 328 0 0 327 0 0 325 0 0 319 0 0 297 0 0 336 0 0 342 0 0 361 0 0 318 0 0 153 0 0 2 0 0 0 0 0 0 0 0 0 0 0 1 0 0 0 0 0 0 0 0 1 0 0 0 0 0 
0 0 0 0 0 0 0 0 0 0 0 0 0 0 0 1 0 0 0 0 0 0 0 0 0 0 0 1 0 0 142 0 0 316 0 0 315 0 0 306 0 0 288 0 0 335 0 0 318 0 0 349 0 0 307 0 0 356 0 0 363 0 0 363 0 0 333 0 0 291 0 0 330 0 0 354 0 0 315 0 0 276 0 0 310 0 0 334 0 0 333 0 0 330 0 0 345 0 0 325 0 0 333 0 0 325 0 0 328 0 0 356 0 0 317 0 0 344 0 0 316 0 0 335 0 0 312 0 0 328 0 0 328 0 0 330 0 0 294 0 0 318 0 0 342 0 0 334 0 0 174 0 0 3 0 0 0 0 0 0 0 0 0 0 0 0 0 0 0 0 0 0 0 0 0 0 0 0 0 0 
0 0 0 0 0 0 0 0 0 0 0 0 0 0 0 0 0 0 0 0 0 0 0 0 1 0 0 0 0 0 156 0 0 324 0 0 310 0 0 340 0 0 322 0 0 316 0 0 318 0 0 334 0 0 306 0 0 351 0 0 321 0 0 333 0 0 331 0 0 349 0 0 308 0 0 318 0 0 337 0 0 302 0 0 336 0 0 334 0 0 322 0 0 301 0 0 296 0 0 319 0 0 313 0 0 319 0 0 319 0 0 326 0 0 341 0 0 314 0 0 320 0 0 335 0 0 325 0 0 319 0 0 331 0 0 344 0 0 348 0 0 338 0 0 320 0 0 321 0 0 162 0 0 2 0 0 0 0 0 0 0 0 0 0 0 0 0 0 1 0 0 2 0 0 1 0 0 0 0 0 
0 0 0 0 0 0 0 0 0 0 0 0 0 0 0 0 0 0 0 0 0 0 0 0 0 0 0 3 0 0 177 0 0 297 0 0 312 0 0 312 0 0 337 0 0 315 0 0 297 0 0 342 0 0 335 0 0 302 0 0 325 0 0 356 0 0 338 0 0 340 0 0 320 0 0 309 0 0 296 0 0 377 0 0 353 0 0 343 0 0 305 0 0 345 0 0 285 0 0 314 0 0 304 0 0 352 0 0 331 0 0 317 0 0 332 0 0 317 0 0 314 0 0 308 0 0 368 0 0 334 0 0 322 0 0 316 0 0 346 0 0 307 0 0 367 0 0 305 0 0 158 0 0 1 0 0 0 0 0 0 0 0 0 0 0 0 0 0 0 0 0 0 0 0 0 0 0 1 0 0 
0 0 0 0 0 0 0 0 0 0 0 0 0 0 0 0 0 0 0 0 0 0 0 0 0 0 0 1 0 0 144 0 0 332 0 0 301 0 0 346 0 0 322 0 0 344 0 0 309 0 0 329 0 0 309 0 0 314 0 0 313 0 0 331 0 0 300 0 0 332 0 0 316 0 0 346 0 0 333 0 0 333 0 0 339 0 0 318 0 0 331 0 0 317 0 0 316 0 0 343 0 0 351 0 0 313 0 0 293 0 0 331 0 0 338 0 0 317 0 0 336 0 0 305 0 0 335 0 0 329 0 0 353 0 0 317 0 0 307 0 0 320 0 0 347 0 0 331 0 0 144 0 0 0 0 0 0 0 0 0 0 0 0 0 0 0 0 0 0 0 0 0 0 0 1 0 0 0 0 0 
0 0 0 0 0 0 0 0 0 0 0 0 0 0 0 0 0 0 0 0 0 1 0 0 0 0 0 3 0 0 164 0 0 320 0 0 333 0 0 334 0 0 328 0 0 326 0 0 330 0 0 340 0 0 317 0 0 313 0 0 317 0 0 327 0 0 333 0 0 335 0 0 322 0 0 306 0 0 307 0 0 329 0 0 328 0 0 323 0 0 341 0 0 318 0 0 327 0 0 334 0 0 308 0 0 328 0 0 292 0 0 299 0 0 332 0 0 366 0 0 343 0 0 332 0 0 310 0 0 301 0 0 316 0 0 328 0 0 332 0 0 342 0 0 341 0 0 281 0 0 150 0 0 3 0 0 0 0 0 1 0 0 0 0 0 0 0 0 0 0 0 0 0 0 0 0 0 0 0 0 
0 0 0 0 0 0 0 0 0 0 0 0 0 0 0 0 0 0 1 0 0 2 0 0 0 0 0 1 0 0 158 0 0 294 0 0 287 0 0 327 0 0 284 0 0 331 0 0 317 0 0 323 0 0 331 0 0 325 0 0 328 0 0 357 0 0 320 0 0 336 0 0 317 0 0 364 0 0 309 0 0 326 0 0 320 0 0 335 0 0 361 0 0 317 0 0 283 0 0 336 0 0 322 0 0 332 0 0 356 0 0 338 0 0 307 0 0 343 0 0 322 0 0 324 0 0 322 0 0 333 0 0 323 0 0 329 0 0 331 0 0 328 0 0 325 0 0 307 0 0 156 0 0 1 0 0 0 0 0 0 0 0 1 0 0 1 0 0 2 0 0 3 0 0 0 0 0 0 0 0 
0 0 0 0 0 0 0 0 0 0 0 0 0 0 0 0 0 0 2 0 0 3 0 0 2 0 0 3 0 0 163 0 0 302 0 0 348 0 0 290 0 0 296 0 0 342 0 0 340 0 0 291 0 0 317 0 0 315 0 0 326 0 0 352 0 0 314 0 0 329 0 0 308 0 0 305 0 0 305 0 0 343 0 0 322 0 0 334 0 0 330 0 0 322 0 0 335 0 0 334 0 0 339 0 0 325 0 0 313 0 0 313 0 0 302 0 0 318 0 0 341 0 0 316 0 0 329 0 0 315 0 0 325 0 0 319 0 0 293 0 0 314 0 0 307 0 0 344 0 0 162 0 0 1 0 0 0 0 0 0 0 0 2 0 0 1 0 0 0 0 0 0 0 0 0 0 0 0 0 0 
0 0 0 0 0 0 0 0 0 0 0 0 0 0 0 1 0 0 1 0 0 1 0 0 1 0 0 1 0 0 187 0 0 316 0 0 340 0 0 302 0 0 305 0 0 338 0 0 321 0 0 304 0 0 348 0 0 341 0 0 335 0 0 330 0 0 306 0 0 290 0 0 304 0 0 295 0 0 319 0 0 333 0 0 319 0 0 355 0 0 343 0 0 300 0 0 328 0 0 348 0 0 349 0 0 328 0 0 332 0 0 339 0 0 344 0 0 317 0 0 328 0 0 308 0 0 352 0 0 338 0 0 330 0 0 323 0 0 294 0 0 318 0 0 299 0 0 353 0 0 170 0 0 3 0 0 1 0 0 1 0 0 0 0 0 0 0 0 1 0 0 0 0 0 0 0 0 0 0 0 
0 0 0 1 0 0 0 0 0 0 0 0 0 0 0 0 0 0 0 0 0 0 0 0 1 0 0 2 0 0 154 0 0 320 0 0 347 0 0 315 0 0 337 0 0 337 0 0 318 0 0 307 0 0 312 0 0 324 0 0 325 0 0 321 0 0 285 0 0 297 0 0 312 0 0 305 0 0 336 0 0 335 0 0 314 0 0 297 0 0 343 0 0 321 0 0 330 0 0 334 0 0 340 0 0 335 0 0 334 0 0 336 0 0 353 0 0 327 0 0 323 0 0 341 0 0 320 0 0 330 0 0 330 0 0 317 0 0 340 0 0 315 0 0 315 0 0 311 0 0 179 0 0 3 0 0 0 0 0 0 0 0 0 0 0 0 0 0 0 0 0 0 0 0 0 0 0 0 0 0 
0 0 0 0 0 0 0 0 0 0 0 0 0 0 0 0 0 0 0 0 0 0 0 0 0 0 0 2 0 0 142 0 0 347 0 0 312 0 0 336 0 0 352 0 0 337 0 0 356 0 0 337 0 0 308 0 0 318 0 0 320 0 0 330 0 0 342 0 0 304 0 0 316 0 0 321 0 0 330 0 0 349 0 0 312 0 0 313 0 0 338 0 0 315 0 0 342 0 0 313 0 0 366 0 0 305 0 0 286 0 0 336 0 0 325 0 0 332 0 0 316 0 0 335 0 0 333 0 0 364 0 0 336 0 0 294 0 0 298 0 0 296 0 0 312 0 0 333 0 0 166 0 0 4 0 0 0 0 0 0 0 0 0 0 0 0 0 0 0 0 0 0 0 0 0 0 0 0 0 0 
0 0 0 0 0 0 0 0 0 0 0 0 0 0 0 0 0 0 0 0 0 0 0 0 0 0 0 3 0 0 159 0 0 288 0 0 320 0 0 354 0 0 326 0 0 322 0 0 327 0 0 320 0 0 356 0 0 283 0 0 348 0 0 295 0 0 311 0 0 320 0 0 308 0 0 320 0 0 322 0 0 324 0 0 319 0 0 300 0 0 341 0 0 326 0 0 304 0 0 310 0 0 338 0 0 319 0 0 316 0 0 334 0 0 316 0 0 339 0 0 312 0 0 316 0 0 310 0 0 315 0 0 312 0 0 308 0 0 321 0 0 345 0 0 324 0 0 330 0 0 157 0 0 2 0 0 1 0 0 0 0 0 0 0 0 0 0 0 1 0 0 0 0 0 0 0 0 0 0 0 
0 0 0 0 0 0 0 0 0 0 0 0 0 0 0 0 0 0 0 0 0 0 0 0 0 0 0 0 0 0 185 0 0 327 0 0 342 0 0 290 0 0 313 0 0 351 0 0 348 0 0 341 0 0 312 0 0 309 0 0 318 0 0 346 0 0 331 0 0 334 0 0 312 0 0 350 0 0 318 0 0 323 0 0 324 0 0 312 0 0 341 0 0 359 0 0 331 0 0 332 0 0 323 0 0 300 0 0 302 0 0 345 0 0 318 0 0 328 0 0 349 0 0 343 0 0 343 0 0 347 0 0 332 0 0 308 0 0 344 0 0 310 0 0 259 0 0 331 0 0 151 0 0 1 0 0 0 0 0 0 0 0 0 0 0 0 0 0 0 0 0 0 0 0 1 0 0 0 0 0 
0 0 0 0 0 0 0 0 0 0 0 0 0 0 0 0 0 0 0 0 0 0 0 0 0 0 0 3 0 0 181 0 0 352 0 0 353 0 0 323 0 0 319 0 0 313 0 0 334 0 0 324 0 0 286 0 0 338 0 0 339 0 0 315 0 0 335 0 0 344 0 0 352 0 0 318 0 0 314 0 0 323 0 0 300 0 0 304 0 0 350 0 0 326 0 0 317 0 0 343 0 0 322 0 0 336 0 0 355 0 0 363 0 0 316 0 0 357 0 0 319 0 0 320 0 0 330 0 0 363 0 0 322 0 0 332 0 0 298 0 0 354 0 0 329 0 0 295 0 0 172 0 0 3 0 0 0 0 0 0 0 0 0 0 0 0 0 0 0 0 0 0 0 0 0 0 0 0 0 0 
0 0 0 0 0 0 0 0 0 0 0 0 0 0 0 0 0 0 0 0 0 0 0 0 0 0 0 3 0 0 148 0 0 339 0 0 329 0 0 355 0 0 315 0 0 332 0 0 321 0 0 335 0 0 312 0 0 311 0 0 354 0 0 334 0 0 328 0 0 330 0 0 312 0 0 327 0 0 291 0 0 325 0 0 345 0 0 360 0 0 333 0 0 327 0 0 310 0 0 328 0 0 341 0 0 360 0 0 340 0 0 321 0 0 315 0 0 347 0 0 314 0 0 337 0 0 338 0 0 327 0 0 322 0 0 329 0 0 336 0 0 327 0 0 304 0 0 298 0 0 157 0 0 0 0 0 0 0 0 0 0 0 0 0 0 0 0 0 0 0 0 0 0 0 0 0 0 0 0 0 
0 0 0 0 0 0 0 0 0 0 0 0 0 0 0 0 0 0 0 0 0 0 0 0 2 0 0 3 0 0 167 0 0 301 0 0 331 0 0 322 0 0 341 0 0 311 0 0 333 0 0 343 0 0 350 0 0 310 0 0 313 0 0 365 0 0 335 0 0 326 0 0 343 0 0 310 0 0 334 0 0 314 0 0 318 0 0 326 0 0 324 0 0 326 0 0 286 0 0 322 0 0 338 0 0 307 0 0 302 0 0 302 0 0 320 0 0 358 0 0 347 0 0 330 0 0 340 0 0 339 0 0 359 0 0 337 0 0 349 0 0 283 0 0 317 0 0 326 0 0 185 0 0 5 0 0 0 0 0 0 0 0 0 0 0 0 0 0 0 0 0 0 0 0 0 0 0 0 0 0 
0 0 0 0 0 0 0 0 0 0 0 0 0 0 0 0 0 0 0 0 0 2 0 0 0 0 0 6 0 0 149 0 0 304 0 0 302 0 0 301 0 0 359 0 0 337 0 0 333 0 0 287 0 0 346 0 0 331 0 0 329 0 0 330 0 0 309 0 0 318 0 0 313 0 0 314 0 0 335 0 0 313 0 0 312 0 0 318 0 0 328 0 0 322 0 0 333 0 0 317 0 0 334 0 0 310 0 0 341 0 0 319 0 0 330 0 0 347 0 0 331 0 0 339 0 0 353 0 0 325 0 0 338 0 0 320 0 0 327 0 0 322 0 0 334 0 0 323 0 0 168 0 0 5 0 0 0 0 0 0 0 0 0 0 0 0 0 0 0 0 0 0 0 0 0 0 0 0 0 0 
0 0 0 0 0 0 0 0 0 0 0 0 0 0 0 0 0 0 1 0 0 0 0 0 1 0 0 3 0 0 179 0 0 309 0 0 327 0 0 339 0 0 324 0 0 320 0 0 326 0 0 314 0 0 337 0 0 332 0 0 314 0 0 321 0 0 341 0 0 372 0 0 313 0 0 312 0 0 348 0 0 304 0 0 324 0 0 317 0 0 325 0 0 354 0 0 297 0 0 318 0 0 342 0 0 347 0 0 326 0 0 326 0 0 338 0 0 305 0 0 328 0 0 329 0 0 339 0 0 349 0 0 318 0 0 342 0 0 334 0 0 334 0 0 323 0 0 305 0 0 170 0 0 4 0 0 1 0 0 0 0 0 0 0 0 0 0 0 0 0 0 0 0 0 0 0 0 0 0 0 
0 0 0 0 0 0 0 0 0 0 0 0 0 0 0 0 0 0 0 0 0 0 0 0 0 0 0 6 0 0 154 0 0 353 0 0 326 0 0 334 0 0 336 0 0 322 0 0 274 0 0 317 0 0 303 0 0 311 0 0 310 0 0 320 0 0 318 0 0 339 0 0 324 0 0 313 0 0 310 0 0 306 0 0 326 0 0 341 0 0 346 0 0 328 0 0 333 0 0 317 0 0 314 0 0 316 0 0 333 0 0 368 0 0 339 0 0 296 0 0 333 0 0 329 0 0 314 0 0 298 0 0 320 0 0 340 0 0 322 0 0 338 0 0 324 0 0 323 0 0 155 0 0 0 0 0 1 0 0 0 0 0 0 0 0 0 0 0 1 0 0 0 0 0 0 0 0 0 0 0 
0 0 0 0 0 0 0 0 0 0 0 0 0 0 0 1 0 0 0 0 0 0 0 0 0 0 0 1 0 0 163 0 0 335 0 0 306 0 0 304 0 0 291 0 0 332 0 0 342 0 0 316 0 0 308 0 0 334 0 0 325 0 0 333 0 0 324 0 0 293 0 0 306 0 0 316 0 0 342 0 0 319 0 0 308 0 0 297 0 0 320 0 0 344 0 0 329 0 0 332 0 0 304 0 0 348 0 0 325 0 0 316 0 0 336 0 0 344 0 0 299 0 0 296 0 0 343 0 0 319 0 0 304 0 0 327 0 0 308 0 0 346 0 0 357 0 0 330 0 0 147 0 0 2 0 0 0 0 0 0 0 0 0 0 0 0 0 0 0 0 0 0 0 0 0 0 0 0 0 0 
0 0 0 0 0 0 0 0 0 0 0 0 0 0 0 0 0 0 0 0 0 0 0 0 0 0 0 0 0 0 178 0 0 364 0 0 319 0 0 323 0 0 302 0 0 304 0 0 333 0 0 306 0 0 308 0 0 294 0 0 333 0 0 320 0 0 318 0 0 310 0 0 304 0 0 328 0 0 332 0 0 302 0 0 312 0 0 320 0 0 324 0 0 307 0 0 287 0 0 306 0 0 281 0 0 297 0 0 333 0 0 315 0 0 310 0 0 325 0 0 324 0 0 315 0 0 345 0 0 325 0 0 315 0 0 324 0 0 338 0 0 301 0 0 298 0 0 325 0 0 174 0 0 3 0 0 0 0 0 0 0 0 0 0 0 0 0 0 0 0 0 0 0 0 0 0 0 0 0 0 
0 0 0 0 0 0 0 0 0 0 0 0 0 0 0 0 0 0 0 0 0 0 0 0 0 0 0 1 0 0 202 0 0 301 0 0 325 0 0 344 0 0 308 0 0 326 0 0 322 0 0 342 0 0 349 0 0 315 0 0 317 0 0 332 0 0 321 0 0 331 0 0 365 0 0 343 0 0 333 0 0 326 0 0 327 0 0 338 0 0 296 0 0 333 0 0 324 0 0 313 0 0 318 0 0 340 0 0 338 0 0 335 0 0 303 0 0 319 0 0 344 0 0 344 0 0 316 0 0 332 0 0 327 0 0 309 0 0 343 0 0 322 0 0 321 0 0 334 0 0 152 0 0 3 0 0 2 0 0 0 0 0 2 0 0 2 0 0 0 0 0 0 0 0 0 0 0 0 0 0 
0 0 0 0 0 0 0 0 0 0 0 0 0 0 0 1 0 0 0 0 0 0 0 0 0 0 0 2 0 0 164 0 0 312 0 0 341 0 0 307 0 0 315 0 0 328 0 0 326 0 0 316 0 0 317 0 0 320 0 0 310 0 0 324 0 0 329 0 0 320 0 0 297 0 0 337 0 0 332 0 0 358 0 0 325 0 0 323 0 0 309 0 0 331 0 0 354 0 0 326 0 0 321 0 0 333 0 0 320 0 0 338 0 0 355 0 0 330 0 0 309 0 0 316 0 0 309 0 0 329 0 0 294 0 0 298 0 0 348 0 0 320 0 0 316 0 0 291 0 0 139 0 0 0 0 0 0 0 0 0 0 0 0 0 0 1 0 0 0 0 0 0 0 0 0 0 0 0 0 0 
0 0 0 0 0 0 0 0 0 0 0 0 0 0 0 0 0 0 0 0 0 0 0 0 0 0 0 2 0 0 182 0 0 332 0 0 310 0 0 320 0 0 353 0 0 333 0 0 298 0 0 345 0 0 335 0 0 322 0 0 341 0 0 322 0 0 316 0 0 288 0 0 331 0 0 320 0 0 311 0 0 325 0 0 292 0 0 328 0 0 294 0 0 324 0 0 326 0 0 326 0 0 331 0 0 316 0 0 311 0 0 334 0 0 358 0 0 345 0 0 306 0 0 377 0 0 315 0 0 313 0 0 315 0 0 325 0 0 311 0 0 301 0 0 327 0 0 338 0 0 166 0 0 0 0 0 0 0 0 0 0 0 0 0 0 1 0 0 0 0 0 0 0 0 0 0 0 0 0 0 
0 0 0 0 0 0 0 0 0 0 0 0 0 0 0 0 0 0 0 0 0 0 0 0 0 0 0 0 0 0 164 0 0 300 0 0 335 0 0 312 0 0 300 0 0 352 0 0 333 0 0 350 0 0 300 0 0 305 0 0 311 0 0 317 0 0 339 0 0 307 0 0 311 0 0 361 0 0 318 0 0 313 0 0 323 0 0 308 0 0 311 0 0 315 0 0 323 0 0 310 0 0 323 0 0 305 0 0 318 0 0 335 0 0 335 0 0 362 0 0 320 0 0 323 0 0 329 0 0 361 0 0 317 0 0 324 0 0 321 0 0 337 0 0 315 0 0 328 0 0 175 0 0 1 0 0 0 0 0 0 0 0 0 0 0 0 0 0 0 0 0 0 0 0 0 0 0 0 0 0 
0 0 0 0 0 0 0 0 0 0 0 0 0 0 0 0 0 0 0 0 0 0 0 0 0 0 0 0 0 0 150 0 0 308 0 0 315 0 0 318 0 0 325 0 0 352 0 0 316 0 0 328 0 0 349 0 0 329 0 0 320 0 0 333 0 0 330 0 0 316 0 0 295 0 0 351 0 0 333 0 0 326 0 0 324 0 0 317 0 0 303 0 0 325 0 0 313 0 0 320 0 0 318 0 0 339 0 0 327 0 0 334 0 0 316 0 0 298 0 0 289 0 0 334 0 0 341 0 0 322 0 0 327 0 0 291 0 0 329 0 0 313 0 0 281 0 0 304 0 0 168 0 0 1 0 0 0 0 0 0 0 0 0 0 0 0 0 0 0 0 0 0 0 0 0 0 0 0 0 0 
0 0 0 0 0 0 0 0 0 0 0 0 0 0 0 0 0 0 0 0 0 0 0 0 0 0 0 0 0 0 79 0 0 171 0 0 131 0 0 154 0 0 163 0 0 168 0 0 153 0 0 168 0 0 157 0 0 158 0 0 167 0 0 167 0 0 145 0 0 155 0 0 170 0 0 167 0 0 173 0 0 164 0 0 159 0 0 159 0 0 172 0 0 157 0 0 161 0 0 161 0 0 161 0 0 154 0 0 183 0 0 180 0 0 170 0 0 161 0 0 155 0 0 173 0 0 173 0 0 148 0 0 156 0 0 160 0 0 158 0 0 154 0 0 176 0 0 149 0 0 84 0 0 1 0 0 0 0 0 0 0 0 0 0 0 0 0 0 0 0 0 0 0 0 0 0 0 0 0 0 
0 0 0 0 0 0 0 0 0 0 0 0 0 0 0 0 0 0 0 0 0 0 0 0 0 0 0 0 0 0 1 0 0 1 0 0 2 0 0 1 0 0 2 0 0 3 0 0 3 0 0 5 0 0 4 0 0 3 0 0 1 0 0 2 0 0 3 0 0 1 0 0 0 0 0 3 0 0 1 0 0 2 0 0 4 0 0 3 0 0 3 0 0 1 0 0 1 0 0 3 0 0 3 0 0 0 0 0 4 0 0 0 0 0 3 0 0 1 0 0 1 0 0 3 0 0 0 0 0 2 0 0 1 0 0 1 0 0 0 0 0 1 0 0 1 0 0 1 0 0 0 0 0 0 0 0 0 0 0 0 0 0 0 0 0 0 0 0 0 0 0 0 0 0 0 0 0 0 0 0 
0 0 0 0 0 0 0 0 0 0 0 0 0 0 0 0 0 0 0 0 0 0 0 0 0 0 0 0 0 0 0 0 0 0 0 0 1 0 0 0 0 0 0 0 0 0 0 0 1 0 0 0 0 0 0 0 0 0 0 0 0 0 0 0 0 0 1 0 0 0 0 0 0 0 0 0 0 0 0 0 0 0 0 0 3 0 0 0 0 0 0 0 0 0 0 0 0 0 0 0 0 0 0 0 0 0 0 0 0 0 0 0 0 0 0 0 0 0 0 0 0 0 0 0 0 0 0 0 0 0 0 0 0 0 0 0 0 0 0 0 0 0 0 0 0 0 0 0 0 0 0 0 0 0 0 0 0 0 0 1 0 0 0 0 0 0 0 0 0 0 0 0 0 0 0 0 0 0 0 0 
0 0 0 0 0 0 0 0 0 0 0 0 0 0 0 0 0 0 0 0 0 0 0 0 0 0 0 0 0 0 0 0 0 0 0 0 0 0 0 0 0 0 0 0 0 0 0 0 0 0 0 0 0 0 0 0 0 0 0 0 0 0 0 2 0 0 0 0 0 0 0 0 0 0 0 0 0 0 0 0 0 1 0 0 1 0 0 0 0 0 0 0 0 0 0 0 0 0 0 0 0 0 2 0 0 0 0 0 0 0 0 0 0 0 0 0 0 0 0 0 0 0 0 0 0 0 0 0 0 1 0 0 0 0 0 0 0 0 0 0 0 0 0 0 0 0 0 0 0 0 0 0 0 0 0 0 0 0 0 0 0 0 0 0 0 0 0 0 0 0 0 0 0 0 0 0 0 0 0 0 
0 0 0 0 0 0 0 0 0 0 0 0 0 0 0 0 0 0 0 0 0 0 0 0 0 0 0 0 0 0 0 0 0 0 0 0 0 0 0 0 0 0 0 0 0 0 0 0 0 0 0 0 0 0 0 0 0 0 0 0 0 0 0 0 0 0 1 0 0 0 0 0 0 0 0 0 0 0 0 0 0 1 0 0 0 0 0 0 0 0 0 0 0 0 0 0 0 0 0 0 0 0 0 0 0 1 0 0 0 0 0 0 0 0 0 0 0 0 0 0 0 0 0 0 0 0 0 0 0 0 0 0 0 0 0 0 0 0 0 0 0 0 0 0 0 0 0 0 0 0 0 0 0 0 0 0 0 0 0 0 0 0 0 0 0 0 0 0 0 0 0 0 0 0 0 0 0 0 0 0 
0 0 0 0 0 0 0 0 0 0 0 0 0 0 0 0 0 0 0 0 0 0 0 0 0 0 0 0 0 0 0 0 0 0 0 0 0 0 0 0 0 0 0 0 0 0 0 0 0 0 0 0 0 0 0 0 0 0 0 0 0 0 0 0 0 0 0 0 0 0 0 0 1 0 0 0 0 0 1 0 0 0 0 0 0 0 0 1 0 0 0 0 0 1 0 0 0 0 0 0 0 0 0 0 0 0 0 0 0 0 0 0 0 0 0 0 0 0 0 0 0 0 0 0 0 0 0 0 0 0 0 0 0 0 0 0 0 0 0 0 0 0 0 0 0 0 0 0 0 0 0 0 0 0 0 0 0 0 0 0 0 0 0 0 0 0 0 0 0 0 0 2 0 0 0 0 0 0 0 0 
0 0 0 0 0 0 0 0 0 0 0 0 0 0 0 0 0 0 0 0 0 0 0 0 0 0 0 1 0 0 0 0 0 0 0 0 0 0 0 0 0 0 0 0 0 0 0 0 0 0 0 0 0 0 0 0 0 0 0 0 0 0 0 0 0 0 0 0 0 0 0 0 0 0 0 0 0 0 0 0 0 0 0 0 0 0 0 1 0 0 0 0 0 0 0 0 0 0 0 0 0 0 1 0 0 0 0 0 0 0 0 0 0 0 0 0 0 0 0 0 0 0 0 0 0 0 0 0 0 0 0 0 0 0 0 0 0 0 0 0 0 0 0 0 0 0 0 0 0 0 0 0 0 0 0 0 0 0 0 0 0 0 0 0 0 0 0 0 0 0 0 0 0 0 1 0 0 0 0 0 
0 0 0 0 0 0 1 0 0 1 0 0 0 0 0 0 0 0 0 0 0 0 0 0 0 0 0 0 0 0 0 0 0 1 0 0 0 0 0 0 0 0 0 0 0 0 0 0 0 0 0 0 0 0 0 0 0 0 0 0 0 0 0 1 0 0 0 0 0 0 0 0 0 0 0 0 0 0 0 0 0 0 0 0 0 0 0 0 0 0 0 0 0 0 0 0 0 0 0 0 0 0 1 0 0 0 0 0 0 0 0 0 0 0 0 0 0 0 0 0 0 0 0 0 0 0 0 0 0 0 0 0 0 0 0 0 0 0 0 0 0 0 0 0 0 0 0 0 0 0 0 0 0 0 0 0 0 0 0 0 0 0 0 0 0 0 0 0 0 0 0 0 0 0 0 0 0 0 0 0 
0 0 0 0 0 0 0 0 0 0 0 0 0 0 0 0 0 0 0 0 0 0 0 0 0 0 0 0 0 0 0 0 0 0 0 0 0 0 0 0 0 0 0 0 0 0 0 0 0 0 0 0 0 0 0 0 0 0 0 0 0 0 0 0 0 0 0 0 0 0 0 0 0 0 0 0 0 0 0 0 0 0 0 0 0 0 0 0 0 0 0 0 0 0 0 0 0 0 0 0 0 0 0 0 0 0 0 0 0 0 0 0 0 0 0 0 0 0 0 0 0 0 0 0 0 0 0 0 0 0 0 0 0 0 0 0 0 0 0 0 0 0 0 0 0 0 0 0 0 0 0 0 0 0 0 0 1 0 0 0 0 0 0 0 0 0 0 0 0 0 0 0 0 0 0 0 0 0 0 0 
0 0 0 0 0 0 0 0 0 0 0 0 0 0 0 0 0 0 0 0 0 0 0 0 0 0 0 0 0 0 0 0 0 0 0 0 0 0 0 0 0 0 0 0 0 0 0 0 0 0 0 0 0 0 1 0 0 0 0 0 0 0 0 0 0 0 0 0 0 0 0 0 0 0 0 0 0 0 0 0 0 0 0 0 0 0 0 0 0 0 0 0 0 0 0 0 0 0 0 0 0 0 0 0 0 0 0 0 0 0 0 0 0 0 0 0 0 0 0 0 0 0 0 0 0 0 0 0 0 0 0 0 0 0 0 0 0 0 0 0 0 0 0 0 0 0 0 0 0 0 0 0 0 0 0 0 1 0 0 0 0 0 0 0 0 0 0 0 0 0 0 0 0 0 0 0 0 0 0 0 
