P3
# This is a dose file slice at depth 16 of 100
60 60
# now we give the maximum value of the RGB coordinates.
1684
0 0 0 0 0 0 0 0 0 0 0 0 0 0 0 0 0 0 0 0 0 0 0 0 0 0 0 0 0 0 0 0 0 0 0 0 0 0 0 0 0 0 0 0 0 0 0 0 0 0 0 0 0 0 0 0 0 0 0 0 0 0 0 0 0 0 0 0 0 0 0 0 0 0 0 0 0 0 0 0 0 0 0 0 0 0 0 0 0 0 0 0 0 0 0 0 0 0 0 0 0 0 0 0 0 0 0 0 0 0 0 0 0 0 0 0 0 0 0 0 0 0 0 0 0 0 0 0 0 0 0 0 0 0 0 0 0 0 0 0 0 0 0 0 0 0 0 0 0 0 0 0 0 0 0 0 0 0 0 0 0 0 0 0 0 0 0 0 0 0 0 0 0 0 0 0 0 0 0 0 
0 0 0 0 0 0 0 0 0 0 0 0 0 0 0 0 0 0 0 0 0 0 0 0 0 0 0 0 0 0 0 0 0 0 0 0 0 0 0 0 0 0 0 0 0 0 0 0 0 0 0 0 0 0 0 0 0 0 0 0 0 0 0 0 0 0 0 0 0 0 0 0 0 0 0 0 0 0 0 0 0 0 0 0 0 0 0 0 0 0 0 0 0 0 0 0 0 0 0 0 0 0 0 0 0 0 0 0 0 0 0 0 0 0 0 0 0 0 0 0 0 0 0 0 0 0 0 0 0 0 0 0 0 0 0 0 0 0 0 0 0 0 0 0 0 0 0 0 0 0 0 0 0 0 0 0 0 0 0 0 0 0 0 0 0 0 0 0 0 0 0 0 0 0 0 0 0 0 0 0 
0 0 0 0 0 0 0 0 0 0 0 0 0 0 0 0 0 0 0 0 0 0 0 0 0 0 0 0 0 0 0 0 0 0 0 0 0 0 0 0 0 0 0 0 0 0 0 0 0 0 0 0 0 0 0 0 0 0 0 0 0 0 0 0 0 0 0 0 0 0 0 0 0 0 0 0 0 0 0 0 0 0 0 0 0 0 0 0 0 0 0 0 0 0 0 0 0 0 0 0 0 0 0 0 0 0 0 0 0 0 0 0 0 0 0 0 0 0 0 0 0 0 0 0 0 0 0 0 0 0 0 0 0 0 0 0 0 0 0 0 0 0 0 0 0 0 0 0 0 0 0 0 0 0 0 0 0 0 0 0 0 0 0 0 0 0 0 0 0 0 0 0 0 0 0 0 0 0 0 0 
0 0 0 0 0 0 0 0 0 0 0 0 0 0 0 0 0 0 0 0 0 0 0 0 0 0 0 0 0 0 0 0 0 0 0 0 0 0 0 0 0 0 0 0 0 0 0 0 0 0 0 0 0 0 0 0 0 0 0 0 0 0 0 0 0 0 0 0 0 0 0 0 0 0 0 0 0 0 0 0 0 0 0 0 0 0 0 0 0 0 0 0 0 0 0 0 0 0 0 0 0 0 0 0 0 0 0 0 0 0 0 0 0 0 0 0 0 0 0 0 0 0 0 0 0 0 0 0 0 0 0 0 0 0 0 0 0 0 0 0 0 0 0 0 0 0 0 0 0 0 0 0 0 0 0 0 0 0 0 0 0 0 0 0 0 0 0 0 0 0 0 0 0 0 0 0 0 0 0 0 
0 0 0 0 0 0 0 0 0 0 0 0 0 0 0 0 0 0 0 0 0 0 0 0 0 0 0 0 0 0 0 0 0 0 0 0 0 0 0 0 0 0 0 0 0 0 0 0 0 0 0 0 0 0 0 0 0 0 0 0 0 0 0 0 0 0 0 0 0 0 0 0 0 0 0 0 0 0 0 0 0 0 0 0 0 0 0 0 0 0 0 0 0 0 0 0 0 0 0 0 0 0 0 0 0 0 0 0 0 0 0 0 0 0 0 0 0 0 0 0 0 0 0 0 0 0 0 0 0 0 0 0 0 0 0 0 0 0 0 0 0 0 0 0 0 0 0 0 0 0 0 0 0 0 0 0 0 0 0 0 0 0 0 0 0 0 0 0 0 0 0 0 0 0 0 0 0 0 0 0 
0 0 0 0 0 0 0 0 0 0 0 0 0 0 0 0 0 0 0 0 0 0 0 0 0 0 0 0 0 0 0 0 0 0 0 0 0 0 0 0 0 0 0 0 0 0 0 0 0 0 0 0 0 0 0 0 0 0 0 0 0 0 0 0 0 0 0 0 0 0 0 0 0 0 0 0 0 0 0 0 0 0 0 0 0 0 0 0 0 0 0 0 0 0 0 0 0 0 0 0 0 0 0 0 0 0 0 0 0 0 0 0 0 0 0 0 0 0 0 0 0 0 0 0 0 0 0 0 0 0 0 0 0 0 0 0 0 0 0 0 0 0 0 0 0 0 0 0 0 0 0 0 0 0 0 0 0 0 0 0 0 0 0 0 0 0 0 0 0 0 0 0 0 0 0 0 0 0 0 0 
0 0 0 0 0 0 0 0 0 0 0 0 0 0 0 0 0 0 0 0 0 0 0 0 0 0 0 0 0 0 0 0 0 0 0 0 0 0 0 0 0 0 0 0 0 0 0 0 0 0 0 0 0 0 0 0 0 0 0 0 0 0 0 0 0 0 0 0 0 0 0 0 0 0 0 0 0 0 0 0 0 0 0 0 0 0 0 0 0 0 0 0 0 0 0 0 0 0 0 0 0 0 0 0 0 0 0 0 0 0 0 0 0 0 0 0 0 0 0 0 0 0 0 0 0 0 0 0 0 0 0 0 0 0 0 0 0 0 0 0 0 0 0 0 0 0 0 0 0 0 0 0 0 0 0 0 0 0 0 0 0 0 0 0 0 0 0 0 0 0 0 0 0 0 0 0 0 0 0 0 
0 0 0 0 0 0 0 0 0 0 0 0 0 0 0 0 0 0 0 0 0 0 0 0 0 0 0 0 0 0 0 0 0 0 0 0 0 0 0 0 0 0 0 0 0 0 0 0 0 0 0 0 0 0 0 0 0 0 0 0 0 0 0 0 0 0 0 0 0 0 0 0 0 0 0 0 0 0 0 0 0 0 0 0 0 0 0 0 0 0 0 0 0 0 0 0 0 0 0 0 0 0 0 0 0 0 0 0 0 0 0 0 0 0 0 0 0 0 0 0 0 0 0 0 0 0 0 0 0 0 0 0 0 0 0 0 0 0 0 0 0 0 0 0 0 0 0 0 0 0 0 0 0 0 0 0 0 0 0 0 0 0 0 0 0 0 0 0 0 0 0 0 0 0 0 0 0 0 0 0 
0 0 0 0 0 0 0 0 0 0 0 0 0 0 0 0 0 0 0 0 0 0 0 0 0 0 0 0 0 0 0 0 0 0 0 0 0 0 0 0 0 0 0 0 0 0 0 0 0 0 0 0 0 0 0 0 0 0 0 0 0 0 0 0 0 0 0 0 0 0 0 0 0 0 0 0 0 0 0 0 0 0 0 0 0 0 0 0 0 0 0 0 0 0 0 0 0 0 0 0 0 0 0 0 0 0 0 0 0 0 0 0 0 0 0 0 0 0 0 0 0 0 0 0 0 0 0 0 0 0 0 0 0 0 0 0 0 0 0 0 0 0 0 0 0 0 0 0 0 0 0 0 0 0 0 0 0 0 0 0 0 0 0 0 0 0 0 0 0 0 0 0 0 0 0 0 0 0 0 0 
0 0 0 0 0 0 0 0 0 0 0 0 0 0 0 0 0 0 0 0 0 0 0 0 0 0 0 0 0 0 0 0 0 0 0 0 0 0 0 0 0 0 0 0 0 0 0 0 0 0 0 0 0 0 0 0 0 0 0 0 0 0 0 0 0 0 0 0 0 0 0 0 0 0 0 0 0 0 0 0 0 0 0 0 0 0 0 0 0 0 0 0 0 0 0 0 0 0 0 0 0 0 0 0 0 0 0 0 0 0 0 0 0 0 0 0 0 0 0 0 0 0 0 0 0 0 0 0 0 0 0 0 0 0 0 0 0 0 0 0 0 0 0 0 0 0 0 0 0 0 0 0 0 0 0 0 0 0 0 0 0 0 0 0 0 0 0 0 0 0 0 0 0 0 0 0 0 0 0 0 
0 0 0 0 0 0 0 0 0 0 0 0 0 0 0 0 0 0 0 0 0 0 0 0 0 0 0 0 0 0 254 0 0 460 0 0 464 0 0 483 0 0 503 0 0 509 0 0 473 0 0 495 0 0 499 0 0 478 0 0 482 0 0 495 0 0 479 0 0 494 0 0 472 0 0 475 0 0 534 0 0 524 0 0 472 0 0 497 0 0 533 0 0 493 0 0 476 0 0 520 0 0 485 0 0 487 0 0 491 0 0 509 0 0 473 0 0 453 0 0 519 0 0 528 0 0 447 0 0 508 0 0 437 0 0 487 0 0 485 0 0 460 0 0 492 0 0 492 0 0 220 0 0 0 0 0 0 0 0 0 0 0 0 0 0 0 0 0 0 0 0 0 0 0 0 0 0 0 0 0 
0 0 0 0 0 0 0 0 0 0 0 0 0 0 0 0 0 0 0 0 0 0 0 0 0 0 0 0 0 0 468 0 0 962 0 0 957 0 0 988 0 0 1001 0 0 973 0 0 942 0 0 970 0 0 901 0 0 1006 0 0 1024 0 0 952 0 0 983 0 0 1017 0 0 1019 0 0 1024 0 0 1014 0 0 923 0 0 973 0 0 985 0 0 961 0 0 995 0 0 989 0 0 939 0 0 991 0 0 1007 0 0 998 0 0 1026 0 0 934 0 0 928 0 0 1048 0 0 997 0 0 998 0 0 954 0 0 993 0 0 1020 0 0 925 0 0 973 0 0 960 0 0 964 0 0 475 0 0 0 0 0 0 0 0 0 0 0 0 0 0 0 0 0 0 0 0 0 0 0 0 0 0 0 0 0 
0 0 0 0 0 0 0 0 0 0 0 0 0 0 0 0 0 0 0 0 0 0 0 0 0 0 0 0 0 0 437 0 0 953 0 0 1048 0 0 974 0 0 1025 0 0 968 0 0 895 0 0 943 0 0 1003 0 0 948 0 0 982 0 0 966 0 0 934 0 0 983 0 0 937 0 0 979 0 0 963 0 0 943 0 0 894 0 0 994 0 0 983 0 0 1017 0 0 994 0 0 899 0 0 934 0 0 1002 0 0 983 0 0 939 0 0 1015 0 0 977 0 0 1028 0 0 1042 0 0 990 0 0 930 0 0 914 0 0 976 0 0 981 0 0 1026 0 0 915 0 0 999 0 0 500 0 0 0 0 0 0 0 0 0 0 0 0 0 0 0 0 0 0 0 0 0 0 0 0 0 0 0 0 0 
0 0 0 0 0 0 0 0 0 0 0 0 0 0 0 0 0 0 0 0 0 0 0 0 0 0 0 0 0 0 459 0 0 966 0 0 976 0 0 985 0 0 958 0 0 932 0 0 970 0 0 949 0 0 964 0 0 945 0 0 973 0 0 953 0 0 1045 0 0 995 0 0 945 0 0 965 0 0 987 0 0 898 0 0 987 0 0 966 0 0 976 0 0 960 0 0 990 0 0 1023 0 0 938 0 0 950 0 0 954 0 0 994 0 0 996 0 0 941 0 0 996 0 0 991 0 0 1049 0 0 985 0 0 1014 0 0 958 0 0 1011 0 0 935 0 0 968 0 0 1005 0 0 490 0 0 0 0 0 0 0 0 0 0 0 0 0 0 0 0 0 0 0 0 0 0 0 0 0 0 0 0 0 
0 0 0 0 0 0 0 0 0 0 0 0 0 0 0 0 0 0 0 0 0 0 0 0 0 0 0 0 0 0 484 0 0 931 0 0 994 0 0 1012 0 0 1020 0 0 957 0 0 956 0 0 996 0 0 957 0 0 933 0 0 981 0 0 936 0 0 894 0 0 955 0 0 1001 0 0 927 0 0 969 0 0 1012 0 0 936 0 0 990 0 0 958 0 0 982 0 0 950 0 0 993 0 0 980 0 0 1032 0 0 1017 0 0 1030 0 0 970 0 0 1011 0 0 953 0 0 954 0 0 972 0 0 1005 0 0 956 0 0 957 0 0 973 0 0 1034 0 0 931 0 0 978 0 0 483 0 0 0 0 0 0 0 0 0 0 0 0 0 0 0 0 0 0 0 0 0 0 0 0 0 0 0 0 0 
0 0 0 0 0 0 0 0 0 0 0 0 0 0 0 0 0 0 0 0 0 0 0 0 0 0 0 0 0 0 478 0 0 955 0 0 1014 0 0 943 0 0 942 0 0 999 0 0 956 0 0 1040 0 0 971 0 0 970 0 0 959 0 0 975 0 0 983 0 0 1014 0 0 992 0 0 904 0 0 975 0 0 996 0 0 970 0 0 1048 0 0 972 0 0 957 0 0 906 0 0 976 0 0 947 0 0 1014 0 0 947 0 0 932 0 0 931 0 0 1006 0 0 942 0 0 964 0 0 936 0 0 982 0 0 1016 0 0 1000 0 0 999 0 0 1004 0 0 967 0 0 921 0 0 512 0 0 0 0 0 0 0 0 0 0 0 0 0 0 0 0 0 0 0 0 0 0 0 0 0 0 0 0 0 
0 0 0 0 0 0 0 0 0 0 0 0 0 0 0 0 0 0 0 0 0 0 0 0 0 0 0 0 0 0 470 0 0 989 0 0 961 0 0 1020 0 0 964 0 0 1011 0 0 995 0 0 974 0 0 982 0 0 986 0 0 965 0 0 946 0 0 971 0 0 955 0 0 985 0 0 950 0 0 1013 0 0 969 0 0 994 0 0 959 0 0 957 0 0 1015 0 0 1009 0 0 1015 0 0 1020 0 0 947 0 0 1027 0 0 940 0 0 1011 0 0 1008 0 0 960 0 0 1016 0 0 958 0 0 934 0 0 973 0 0 986 0 0 965 0 0 970 0 0 972 0 0 1001 0 0 451 0 0 0 0 0 0 0 0 0 0 0 0 0 0 0 0 0 0 0 0 0 0 0 0 0 0 0 0 0 
0 0 0 0 0 0 0 0 0 0 0 0 0 0 0 0 0 0 0 0 0 0 0 0 0 0 0 0 0 0 465 0 0 933 0 0 993 0 0 1037 0 0 920 0 0 995 0 0 946 0 0 979 0 0 1002 0 0 970 0 0 931 0 0 934 0 0 959 0 0 979 0 0 993 0 0 944 0 0 995 0 0 999 0 0 1007 0 0 917 0 0 967 0 0 977 0 0 948 0 0 958 0 0 971 0 0 947 0 0 985 0 0 976 0 0 963 0 0 951 0 0 1031 0 0 949 0 0 979 0 0 906 0 0 919 0 0 949 0 0 971 0 0 1002 0 0 1032 0 0 1028 0 0 491 0 0 0 0 0 0 0 0 0 0 0 0 0 0 0 0 0 0 0 0 0 0 0 0 0 0 0 0 0 
0 0 0 0 0 0 0 0 0 0 0 0 0 0 0 0 0 0 0 0 0 0 0 0 0 0 0 0 0 0 476 0 0 996 0 0 1009 0 0 943 0 0 1029 0 0 910 0 0 936 0 0 997 0 0 968 0 0 1030 0 0 947 0 0 933 0 0 967 0 0 965 0 0 916 0 0 1001 0 0 946 0 0 955 0 0 1000 0 0 983 0 0 957 0 0 938 0 0 940 0 0 1008 0 0 947 0 0 954 0 0 986 0 0 1023 0 0 899 0 0 948 0 0 990 0 0 923 0 0 964 0 0 932 0 0 982 0 0 958 0 0 977 0 0 963 0 0 941 0 0 959 0 0 509 0 0 0 0 0 0 0 0 0 0 0 0 0 0 0 0 0 0 0 0 0 0 0 0 0 0 0 0 0 
0 0 0 0 0 0 0 0 0 0 0 0 0 0 0 0 0 0 0 0 0 0 0 0 0 0 0 0 0 0 494 0 0 947 0 0 925 0 0 977 0 0 915 0 0 958 0 0 943 0 0 980 0 0 948 0 0 952 0 0 978 0 0 911 0 0 957 0 0 1015 0 0 987 0 0 992 0 0 1064 0 0 959 0 0 991 0 0 980 0 0 949 0 0 996 0 0 991 0 0 956 0 0 1007 0 0 909 0 0 961 0 0 998 0 0 964 0 0 951 0 0 943 0 0 985 0 0 982 0 0 918 0 0 916 0 0 1007 0 0 968 0 0 997 0 0 957 0 0 1017 0 0 504 0 0 0 0 0 0 0 0 0 0 0 0 0 0 0 0 0 0 0 0 0 0 0 0 0 0 0 0 0 
0 0 0 0 0 0 0 0 0 0 0 0 0 0 0 0 0 0 0 0 0 0 0 0 0 0 0 0 0 0 499 0 0 997 0 0 935 0 0 916 0 0 1026 0 0 940 0 0 955 0 0 955 0 0 936 0 0 995 0 0 983 0 0 1019 0 0 942 0 0 966 0 0 982 0 0 1022 0 0 979 0 0 930 0 0 995 0 0 1018 0 0 1009 0 0 1032 0 0 936 0 0 935 0 0 998 0 0 976 0 0 998 0 0 967 0 0 911 0 0 971 0 0 1017 0 0 954 0 0 932 0 0 956 0 0 978 0 0 952 0 0 1029 0 0 1014 0 0 1031 0 0 950 0 0 490 0 0 0 0 0 0 0 0 0 0 0 0 0 0 0 0 0 0 0 0 0 0 0 0 0 0 0 0 0 
0 0 0 0 0 0 0 0 0 0 0 0 0 0 0 0 0 0 0 0 0 0 0 0 0 0 0 0 0 0 517 0 0 964 0 0 941 0 0 953 0 0 943 0 0 945 0 0 1023 0 0 982 0 0 972 0 0 1002 0 0 989 0 0 1002 0 0 931 0 0 1005 0 0 984 0 0 973 0 0 978 0 0 968 0 0 983 0 0 965 0 0 989 0 0 923 0 0 977 0 0 1006 0 0 905 0 0 963 0 0 956 0 0 1024 0 0 978 0 0 967 0 0 958 0 0 1015 0 0 940 0 0 1021 0 0 984 0 0 1006 0 0 958 0 0 1016 0 0 970 0 0 1000 0 0 472 0 0 0 0 0 0 0 0 0 0 0 0 0 0 0 0 0 0 0 0 0 0 0 0 0 0 0 0 0 
0 0 0 0 0 0 0 0 0 0 0 0 0 0 0 0 0 0 0 0 0 0 0 0 0 0 0 0 0 0 487 0 0 974 0 0 961 0 0 939 0 0 981 0 0 931 0 0 981 0 0 958 0 0 987 0 0 954 0 0 994 0 0 957 0 0 1008 0 0 957 0 0 952 0 0 1015 0 0 947 0 0 981 0 0 931 0 0 942 0 0 887 0 0 874 0 0 1013 0 0 979 0 0 973 0 0 998 0 0 932 0 0 945 0 0 974 0 0 978 0 0 967 0 0 968 0 0 922 0 0 1001 0 0 997 0 0 981 0 0 938 0 0 958 0 0 964 0 0 924 0 0 474 0 0 0 0 0 0 0 0 0 0 0 0 0 0 0 0 0 0 0 0 0 0 0 0 0 0 0 0 0 
0 0 0 0 0 0 0 0 0 0 0 0 0 0 0 0 0 0 0 0 0 0 0 0 0 0 0 0 0 0 540 0 0 965 0 0 971 0 0 947 0 0 908 0 0 981 0 0 959 0 0 1019 0 0 1002 0 0 962 0 0 1025 0 0 980 0 0 957 0 0 988 0 0 983 0 0 928 0 0 965 0 0 991 0 0 936 0 0 1036 0 0 998 0 0 947 0 0 923 0 0 972 0 0 957 0 0 990 0 0 924 0 0 956 0 0 972 0 0 952 0 0 912 0 0 936 0 0 1024 0 0 1003 0 0 998 0 0 962 0 0 1006 0 0 974 0 0 995 0 0 952 0 0 458 0 0 0 0 0 0 0 0 0 0 0 0 0 0 0 0 0 0 0 0 0 0 0 0 0 0 0 0 0 
0 0 0 0 0 0 0 0 0 0 0 0 0 0 0 0 0 0 0 0 0 0 0 0 0 0 0 0 0 0 493 0 0 1011 0 0 991 0 0 981 0 0 954 0 0 966 0 0 986 0 0 1026 0 0 995 0 0 953 0 0 1011 0 0 968 0 0 1000 0 0 968 0 0 1014 0 0 1017 0 0 958 0 0 1011 0 0 942 0 0 1035 0 0 971 0 0 1034 0 0 1023 0 0 1043 0 0 1022 0 0 1009 0 0 1013 0 0 944 0 0 943 0 0 969 0 0 908 0 0 944 0 0 970 0 0 916 0 0 1002 0 0 987 0 0 950 0 0 946 0 0 942 0 0 966 0 0 481 0 0 0 0 0 0 0 0 0 0 0 0 0 0 0 0 0 0 0 0 0 0 0 0 0 0 0 0 0 
0 0 0 0 0 0 0 0 0 0 0 0 0 0 0 0 0 0 0 0 0 0 0 0 0 0 0 0 0 0 499 0 0 986 0 0 983 0 0 1018 0 0 918 0 0 953 0 0 1007 0 0 919 0 0 986 0 0 1026 0 0 964 0 0 1012 0 0 1058 0 0 962 0 0 949 0 0 959 0 0 995 0 0 1012 0 0 1008 0 0 986 0 0 940 0 0 933 0 0 970 0 0 1000 0 0 975 0 0 943 0 0 945 0 0 1006 0 0 957 0 0 982 0 0 987 0 0 977 0 0 935 0 0 983 0 0 967 0 0 972 0 0 990 0 0 952 0 0 965 0 0 981 0 0 495 0 0 0 0 0 0 0 0 0 0 0 0 0 0 0 0 0 0 0 0 0 0 0 0 0 0 0 0 0 
0 0 0 0 0 0 0 0 0 0 0 0 0 0 0 0 0 0 0 0 0 0 0 0 0 0 0 0 0 0 523 0 0 938 0 0 949 0 0 991 0 0 1024 0 0 998 0 0 965 0 0 923 0 0 988 0 0 1005 0 0 940 0 0 996 0 0 1025 0 0 954 0 0 964 0 0 952 0 0 977 0 0 958 0 0 984 0 0 980 0 0 994 0 0 1003 0 0 989 0 0 1025 0 0 980 0 0 993 0 0 941 0 0 1014 0 0 977 0 0 996 0 0 962 0 0 913 0 0 1008 0 0 984 0 0 1031 0 0 983 0 0 890 0 0 965 0 0 942 0 0 1017 0 0 486 0 0 0 0 0 0 0 0 0 0 0 0 0 0 0 0 0 0 0 0 0 0 0 0 0 0 0 0 0 
0 0 0 0 0 0 0 0 0 0 0 0 0 0 0 0 0 0 0 0 0 0 0 0 0 0 0 0 0 0 512 0 0 1019 0 0 972 0 0 972 0 0 1018 0 0 966 0 0 950 0 0 951 0 0 998 0 0 968 0 0 989 0 0 1028 0 0 1006 0 0 977 0 0 990 0 0 971 0 0 983 0 0 976 0 0 967 0 0 1016 0 0 963 0 0 974 0 0 976 0 0 955 0 0 979 0 0 988 0 0 935 0 0 984 0 0 999 0 0 975 0 0 1027 0 0 937 0 0 973 0 0 959 0 0 954 0 0 1008 0 0 1011 0 0 1031 0 0 904 0 0 969 0 0 481 0 0 0 0 0 0 0 0 0 0 0 0 0 0 0 0 0 0 0 0 0 0 0 0 0 0 0 0 0 
0 0 0 0 0 0 0 0 0 0 0 0 0 0 0 0 0 0 0 0 0 0 0 0 0 0 0 0 0 0 498 0 0 1020 0 0 987 0 0 962 0 0 952 0 0 980 0 0 1000 0 0 974 0 0 958 0 0 965 0 0 977 0 0 996 0 0 971 0 0 964 0 0 993 0 0 986 0 0 953 0 0 937 0 0 968 0 0 932 0 0 965 0 0 943 0 0 966 0 0 953 0 0 1000 0 0 983 0 0 960 0 0 948 0 0 994 0 0 944 0 0 1024 0 0 941 0 0 970 0 0 953 0 0 998 0 0 972 0 0 971 0 0 987 0 0 975 0 0 987 0 0 482 0 0 0 0 0 0 0 0 0 0 0 0 0 0 0 0 0 0 0 0 0 0 0 0 0 0 0 0 0 
0 0 0 0 0 0 0 0 0 0 0 0 0 0 0 0 0 0 0 0 0 0 0 0 0 0 0 0 0 0 475 0 0 974 0 0 1000 0 0 1002 0 0 997 0 0 956 0 0 952 0 0 999 0 0 972 0 0 936 0 0 922 0 0 982 0 0 940 0 0 949 0 0 961 0 0 939 0 0 988 0 0 963 0 0 1025 0 0 1012 0 0 1009 0 0 990 0 0 986 0 0 990 0 0 948 0 0 946 0 0 1010 0 0 941 0 0 950 0 0 951 0 0 911 0 0 918 0 0 898 0 0 973 0 0 943 0 0 961 0 0 972 0 0 984 0 0 1004 0 0 950 0 0 513 0 0 0 0 0 0 0 0 0 0 0 0 0 0 0 0 0 0 0 0 0 0 0 0 0 0 0 0 0 
0 0 0 0 0 0 0 0 0 0 0 0 0 0 0 0 0 0 0 0 0 0 0 0 0 0 0 0 0 0 516 0 0 979 0 0 1065 0 0 967 0 0 1010 0 0 964 0 0 979 0 0 974 0 0 1010 0 0 940 0 0 1015 0 0 945 0 0 983 0 0 932 0 0 896 0 0 965 0 0 984 0 0 936 0 0 990 0 0 940 0 0 974 0 0 976 0 0 975 0 0 928 0 0 1005 0 0 942 0 0 990 0 0 997 0 0 1013 0 0 979 0 0 994 0 0 971 0 0 1011 0 0 1012 0 0 939 0 0 947 0 0 998 0 0 1015 0 0 933 0 0 1000 0 0 463 0 0 0 0 0 0 0 0 0 0 0 0 0 0 0 0 0 0 0 0 0 0 0 0 0 0 0 0 0 
0 0 0 0 0 0 0 0 0 0 0 0 0 0 0 0 0 0 0 0 0 0 0 0 0 0 0 0 0 0 477 0 0 968 0 0 960 0 0 926 0 0 965 0 0 1005 0 0 983 0 0 975 0 0 973 0 0 965 0 0 998 0 0 962 0 0 918 0 0 978 0 0 1013 0 0 1040 0 0 995 0 0 989 0 0 998 0 0 969 0 0 990 0 0 967 0 0 1011 0 0 975 0 0 986 0 0 953 0 0 967 0 0 945 0 0 1027 0 0 937 0 0 1018 0 0 952 0 0 971 0 0 936 0 0 989 0 0 984 0 0 980 0 0 987 0 0 953 0 0 993 0 0 443 0 0 0 0 0 0 0 0 0 0 0 0 0 0 0 0 0 0 0 0 0 0 0 0 0 0 0 0 0 
0 0 0 0 0 0 0 0 0 0 0 0 0 0 0 0 0 0 0 0 0 0 0 0 0 0 0 0 0 0 484 0 0 1021 0 0 958 0 0 957 0 0 986 0 0 963 0 0 1032 0 0 1006 0 0 1028 0 0 1035 0 0 1003 0 0 1011 0 0 911 0 0 988 0 0 970 0 0 1002 0 0 989 0 0 944 0 0 916 0 0 935 0 0 1004 0 0 946 0 0 1018 0 0 976 0 0 929 0 0 1040 0 0 965 0 0 972 0 0 1056 0 0 1002 0 0 965 0 0 942 0 0 1016 0 0 962 0 0 972 0 0 1000 0 0 979 0 0 982 0 0 1006 0 0 964 0 0 508 0 0 0 0 0 0 0 0 0 0 0 0 0 0 0 0 0 0 0 0 0 0 0 0 0 0 0 0 0 
0 0 0 0 0 0 0 0 0 0 0 0 0 0 0 0 0 0 0 0 0 0 0 0 0 0 0 0 0 0 500 0 0 924 0 0 1004 0 0 964 0 0 984 0 0 962 0 0 951 0 0 1002 0 0 970 0 0 926 0 0 967 0 0 980 0 0 971 0 0 964 0 0 971 0 0 968 0 0 1024 0 0 982 0 0 923 0 0 939 0 0 984 0 0 1003 0 0 1001 0 0 1006 0 0 924 0 0 953 0 0 958 0 0 942 0 0 1001 0 0 944 0 0 1015 0 0 1005 0 0 948 0 0 948 0 0 983 0 0 1000 0 0 997 0 0 967 0 0 941 0 0 946 0 0 494 0 0 0 0 0 0 0 0 0 0 0 0 0 0 0 0 0 0 0 0 0 0 0 0 0 0 0 0 0 
0 0 0 0 0 0 0 0 0 0 0 0 0 0 0 0 0 0 0 0 0 0 0 0 0 0 0 0 0 0 468 0 0 991 0 0 973 0 0 986 0 0 966 0 0 983 0 0 987 0 0 979 0 0 949 0 0 967 0 0 923 0 0 1023 0 0 1022 0 0 961 0 0 963 0 0 985 0 0 1025 0 0 990 0 0 1010 0 0 977 0 0 976 0 0 957 0 0 987 0 0 940 0 0 1003 0 0 988 0 0 980 0 0 958 0 0 1021 0 0 992 0 0 989 0 0 1021 0 0 928 0 0 961 0 0 991 0 0 1016 0 0 976 0 0 985 0 0 990 0 0 984 0 0 479 0 0 0 0 0 0 0 0 0 0 0 0 0 0 0 0 0 0 0 0 0 0 0 0 0 0 0 0 0 
0 0 0 0 0 0 0 0 0 0 0 0 0 0 0 0 0 0 0 0 0 0 0 0 0 0 0 0 0 0 500 0 0 1026 0 0 992 0 0 942 0 0 994 0 0 950 0 0 978 0 0 992 0 0 965 0 0 976 0 0 974 0 0 968 0 0 945 0 0 999 0 0 981 0 0 966 0 0 963 0 0 909 0 0 995 0 0 982 0 0 979 0 0 982 0 0 1020 0 0 998 0 0 948 0 0 968 0 0 985 0 0 1013 0 0 924 0 0 1024 0 0 931 0 0 887 0 0 956 0 0 1022 0 0 962 0 0 968 0 0 1023 0 0 947 0 0 973 0 0 952 0 0 504 0 0 0 0 0 0 0 0 0 0 0 0 0 0 0 0 0 0 0 0 0 0 0 0 0 0 0 0 0 
0 0 0 0 0 0 0 0 0 0 0 0 0 0 0 0 0 0 0 0 0 0 0 0 0 0 0 0 0 0 532 0 0 991 0 0 977 0 0 1018 0 0 982 0 0 1009 0 0 951 0 0 994 0 0 1034 0 0 1011 0 0 1025 0 0 975 0 0 978 0 0 960 0 0 952 0 0 994 0 0 969 0 0 990 0 0 964 0 0 935 0 0 967 0 0 966 0 0 982 0 0 982 0 0 989 0 0 979 0 0 1014 0 0 990 0 0 957 0 0 968 0 0 941 0 0 965 0 0 956 0 0 970 0 0 882 0 0 1015 0 0 914 0 0 983 0 0 973 0 0 965 0 0 487 0 0 0 0 0 0 0 0 0 0 0 0 0 0 0 0 0 0 0 0 0 0 0 0 0 0 0 0 0 
0 0 0 0 0 0 0 0 0 0 0 0 0 0 0 0 0 0 0 0 0 0 0 0 0 0 0 0 0 0 528 0 0 892 0 0 1010 0 0 993 0 0 906 0 0 983 0 0 960 0 0 934 0 0 976 0 0 992 0 0 1025 0 0 927 0 0 942 0 0 983 0 0 998 0 0 1005 0 0 1010 0 0 968 0 0 983 0 0 995 0 0 969 0 0 965 0 0 961 0 0 965 0 0 943 0 0 942 0 0 1027 0 0 950 0 0 1028 0 0 1021 0 0 966 0 0 959 0 0 1039 0 0 942 0 0 1042 0 0 960 0 0 1020 0 0 941 0 0 931 0 0 1006 0 0 484 0 0 0 0 0 0 0 0 0 0 0 0 0 0 0 0 0 0 0 0 0 0 0 0 0 0 0 0 0 
0 0 0 0 0 0 0 0 0 0 0 0 0 0 0 0 0 0 0 0 0 0 0 0 0 0 0 0 0 0 473 0 0 986 0 0 952 0 0 998 0 0 981 0 0 945 0 0 922 0 0 992 0 0 1004 0 0 958 0 0 996 0 0 990 0 0 930 0 0 986 0 0 1019 0 0 946 0 0 1016 0 0 952 0 0 965 0 0 924 0 0 973 0 0 965 0 0 992 0 0 914 0 0 968 0 0 910 0 0 1000 0 0 965 0 0 967 0 0 993 0 0 1016 0 0 948 0 0 950 0 0 986 0 0 981 0 0 921 0 0 927 0 0 1021 0 0 987 0 0 987 0 0 530 0 0 0 0 0 0 0 0 0 0 0 0 0 0 0 0 0 0 0 0 0 0 0 0 0 0 0 0 0 
0 0 0 0 0 0 0 0 0 0 0 0 0 0 0 0 0 0 0 0 0 0 0 0 0 0 0 0 0 0 515 0 0 1010 0 0 983 0 0 931 0 0 1005 0 0 956 0 0 1018 0 0 985 0 0 962 0 0 981 0 0 954 0 0 949 0 0 945 0 0 992 0 0 1003 0 0 999 0 0 978 0 0 943 0 0 1005 0 0 926 0 0 965 0 0 948 0 0 942 0 0 970 0 0 973 0 0 957 0 0 957 0 0 926 0 0 950 0 0 1006 0 0 949 0 0 940 0 0 975 0 0 967 0 0 978 0 0 988 0 0 991 0 0 957 0 0 982 0 0 1007 0 0 471 0 0 0 0 0 0 0 0 0 0 0 0 0 0 0 0 0 0 0 0 0 0 0 0 0 0 0 0 0 
0 0 0 0 0 0 0 0 0 0 0 0 0 0 0 0 0 0 0 0 0 0 0 0 0 0 0 0 0 0 466 0 0 987 0 0 1000 0 0 996 0 0 972 0 0 979 0 0 961 0 0 991 0 0 1010 0 0 1013 0 0 963 0 0 976 0 0 987 0 0 1004 0 0 965 0 0 1007 0 0 946 0 0 1001 0 0 1002 0 0 1032 0 0 961 0 0 942 0 0 972 0 0 973 0 0 1000 0 0 991 0 0 954 0 0 942 0 0 950 0 0 940 0 0 965 0 0 1051 0 0 975 0 0 996 0 0 994 0 0 961 0 0 993 0 0 995 0 0 967 0 0 970 0 0 501 0 0 0 0 0 0 0 0 0 0 0 0 0 0 0 0 0 0 0 0 0 0 0 0 0 0 0 0 0 
0 0 0 0 0 0 0 0 0 0 0 0 0 0 0 0 0 0 0 0 0 0 0 0 0 0 0 0 0 0 504 0 0 1054 0 0 938 0 0 949 0 0 942 0 0 961 0 0 932 0 0 1012 0 0 948 0 0 912 0 0 992 0 0 934 0 0 943 0 0 1030 0 0 966 0 0 965 0 0 1021 0 0 955 0 0 965 0 0 997 0 0 1058 0 0 997 0 0 987 0 0 945 0 0 987 0 0 941 0 0 1071 0 0 998 0 0 937 0 0 932 0 0 942 0 0 1056 0 0 950 0 0 960 0 0 1019 0 0 935 0 0 974 0 0 980 0 0 954 0 0 1021 0 0 509 0 0 0 0 0 0 0 0 0 0 0 0 0 0 0 0 0 0 0 0 0 0 0 0 0 0 0 0 0 
0 0 0 0 0 0 0 0 0 0 0 0 0 0 0 0 0 0 0 0 0 0 0 0 0 0 0 0 0 0 492 0 0 970 0 0 963 0 0 1020 0 0 955 0 0 948 0 0 1008 0 0 954 0 0 917 0 0 999 0 0 942 0 0 987 0 0 1009 0 0 957 0 0 990 0 0 962 0 0 999 0 0 941 0 0 968 0 0 994 0 0 986 0 0 1033 0 0 939 0 0 962 0 0 971 0 0 975 0 0 977 0 0 1007 0 0 978 0 0 1017 0 0 868 0 0 918 0 0 927 0 0 983 0 0 1022 0 0 1029 0 0 1004 0 0 965 0 0 901 0 0 949 0 0 446 0 0 0 0 0 0 0 0 0 0 0 0 0 0 0 0 0 0 0 0 0 0 0 0 0 0 0 0 0 
0 0 0 0 0 0 0 0 0 0 0 0 0 0 0 0 0 0 0 0 0 0 0 0 0 0 0 0 0 0 527 0 0 1006 0 0 958 0 0 1022 0 0 977 0 0 926 0 0 988 0 0 983 0 0 956 0 0 1039 0 0 1018 0 0 953 0 0 986 0 0 935 0 0 1015 0 0 968 0 0 995 0 0 970 0 0 951 0 0 986 0 0 946 0 0 952 0 0 925 0 0 995 0 0 1000 0 0 943 0 0 982 0 0 989 0 0 922 0 0 990 0 0 995 0 0 1018 0 0 984 0 0 1016 0 0 974 0 0 958 0 0 1014 0 0 988 0 0 964 0 0 977 0 0 459 0 0 0 0 0 0 0 0 0 0 0 0 0 0 0 0 0 0 0 0 0 0 0 0 0 0 0 0 0 
0 0 0 0 0 0 0 0 0 0 0 0 0 0 0 0 0 0 0 0 0 0 0 0 0 0 0 0 0 0 463 0 0 1001 0 0 988 0 0 921 0 0 966 0 0 939 0 0 956 0 0 962 0 0 923 0 0 976 0 0 981 0 0 1015 0 0 963 0 0 969 0 0 947 0 0 994 0 0 961 0 0 985 0 0 987 0 0 968 0 0 950 0 0 999 0 0 1036 0 0 918 0 0 1019 0 0 991 0 0 945 0 0 958 0 0 996 0 0 999 0 0 1009 0 0 975 0 0 1002 0 0 956 0 0 1002 0 0 977 0 0 1015 0 0 979 0 0 930 0 0 975 0 0 489 0 0 0 0 0 0 0 0 0 0 0 0 0 0 0 0 0 0 0 0 0 0 0 0 0 0 0 0 0 
0 0 0 0 0 0 0 0 0 0 0 0 0 0 0 0 0 0 0 0 0 0 0 0 0 0 0 0 0 0 476 0 0 942 0 0 1009 0 0 922 0 0 990 0 0 984 0 0 983 0 0 948 0 0 947 0 0 933 0 0 995 0 0 1002 0 0 983 0 0 998 0 0 952 0 0 1023 0 0 963 0 0 966 0 0 906 0 0 1001 0 0 940 0 0 959 0 0 961 0 0 981 0 0 962 0 0 993 0 0 967 0 0 931 0 0 914 0 0 999 0 0 991 0 0 959 0 0 982 0 0 892 0 0 1024 0 0 986 0 0 1007 0 0 944 0 0 982 0 0 997 0 0 510 0 0 0 0 0 0 0 0 0 0 0 0 0 0 0 0 0 0 0 0 0 0 0 0 0 0 0 0 0 
0 0 0 0 0 0 0 0 0 0 0 0 0 0 0 0 0 0 0 0 0 0 0 0 0 0 0 0 0 0 458 0 0 1002 0 0 1031 0 0 975 0 0 972 0 0 961 0 0 967 0 0 1036 0 0 948 0 0 997 0 0 996 0 0 962 0 0 994 0 0 988 0 0 993 0 0 999 0 0 1034 0 0 930 0 0 935 0 0 917 0 0 969 0 0 987 0 0 966 0 0 993 0 0 1014 0 0 975 0 0 974 0 0 980 0 0 1011 0 0 973 0 0 1003 0 0 962 0 0 933 0 0 968 0 0 977 0 0 980 0 0 947 0 0 971 0 0 994 0 0 965 0 0 454 0 0 0 0 0 0 0 0 0 0 0 0 0 0 0 0 0 0 0 0 0 0 0 0 0 0 0 0 0 
0 0 0 0 0 0 0 0 0 0 0 0 0 0 0 0 0 0 0 0 0 0 0 0 0 0 0 0 0 0 509 0 0 1040 0 0 1021 0 0 974 0 0 951 0 0 979 0 0 934 0 0 984 0 0 957 0 0 1006 0 0 986 0 0 982 0 0 1007 0 0 945 0 0 956 0 0 943 0 0 893 0 0 973 0 0 974 0 0 961 0 0 987 0 0 936 0 0 1004 0 0 970 0 0 1027 0 0 944 0 0 988 0 0 953 0 0 973 0 0 966 0 0 981 0 0 989 0 0 983 0 0 910 0 0 965 0 0 970 0 0 933 0 0 987 0 0 983 0 0 1003 0 0 501 0 0 0 0 0 0 0 0 0 0 0 0 0 0 0 0 0 0 0 0 0 0 0 0 0 0 0 0 0 
0 0 0 0 0 0 0 0 0 0 0 0 0 0 0 0 0 0 0 0 0 0 0 0 0 0 0 0 0 0 492 0 0 982 0 0 994 0 0 996 0 0 927 0 0 1059 0 0 974 0 0 952 0 0 991 0 0 1019 0 0 971 0 0 938 0 0 968 0 0 980 0 0 970 0 0 909 0 0 977 0 0 1007 0 0 993 0 0 967 0 0 1028 0 0 1010 0 0 984 0 0 991 0 0 936 0 0 983 0 0 974 0 0 960 0 0 1009 0 0 961 0 0 983 0 0 965 0 0 1004 0 0 963 0 0 997 0 0 1031 0 0 969 0 0 954 0 0 1003 0 0 979 0 0 489 0 0 0 0 0 0 0 0 0 0 0 0 0 0 0 0 0 0 0 0 0 0 0 0 0 0 0 0 0 
0 0 0 0 0 0 0 0 0 0 0 0 0 0 0 0 0 0 0 0 0 0 0 0 0 0 0 0 0 0 509 0 0 908 0 0 977 0 0 972 0 0 916 0 0 929 0 0 1009 0 0 950 0 0 1005 0 0 979 0 0 983 0 0 953 0 0 976 0 0 972 0 0 957 0 0 958 0 0 994 0 0 982 0 0 958 0 0 983 0 0 993 0 0 960 0 0 954 0 0 964 0 0 987 0 0 965 0 0 946 0 0 957 0 0 969 0 0 948 0 0 985 0 0 1001 0 0 931 0 0 928 0 0 980 0 0 952 0 0 949 0 0 899 0 0 990 0 0 1005 0 0 508 0 0 0 0 0 0 0 0 0 0 0 0 0 0 0 0 0 0 0 0 0 0 0 0 0 0 0 0 0 
0 0 0 0 0 0 0 0 0 0 0 0 0 0 0 0 0 0 0 0 0 0 0 0 0 0 0 0 0 0 239 0 0 497 0 0 495 0 0 513 0 0 453 0 0 536 0 0 429 0 0 509 0 0 451 0 0 486 0 0 511 0 0 499 0 0 455 0 0 473 0 0 494 0 0 481 0 0 489 0 0 522 0 0 492 0 0 505 0 0 515 0 0 462 0 0 448 0 0 494 0 0 494 0 0 487 0 0 477 0 0 492 0 0 505 0 0 522 0 0 473 0 0 513 0 0 531 0 0 480 0 0 469 0 0 494 0 0 514 0 0 452 0 0 513 0 0 477 0 0 235 0 0 0 0 0 0 0 0 0 0 0 0 0 0 0 0 0 0 0 0 0 0 0 0 0 0 0 0 0 
0 0 0 0 0 0 0 0 0 0 0 0 0 0 0 0 0 0 0 0 0 0 0 0 0 0 0 0 0 0 0 0 0 0 0 0 0 0 0 0 0 0 0 0 0 0 0 0 0 0 0 0 0 0 0 0 0 0 0 0 0 0 0 0 0 0 0 0 0 0 0 0 0 0 0 0 0 0 0 0 0 0 0 0 0 0 0 0 0 0 0 0 0 0 0 0 0 0 0 0 0 0 0 0 0 0 0 0 0 0 0 0 0 0 0 0 0 0 0 0 0 0 0 0 0 0 0 0 0 0 0 0 0 0 0 0 0 0 0 0 0 0 0 0 0 0 0 0 0 0 0 0 0 0 0 0 0 0 0 0 0 0 0 0 0 0 0 0 0 0 0 0 0 0 0 0 0 0 0 0 
0 0 0 0 0 0 0 0 0 0 0 0 0 0 0 0 0 0 0 0 0 0 0 0 0 0 0 0 0 0 0 0 0 0 0 0 0 0 0 0 0 0 0 0 0 0 0 0 0 0 0 0 0 0 0 0 0 0 0 0 0 0 0 0 0 0 0 0 0 0 0 0 0 0 0 0 0 0 0 0 0 0 0 0 0 0 0 0 0 0 0 0 0 0 0 0 0 0 0 0 0 0 0 0 0 0 0 0 0 0 0 0 0 0 0 0 0 0 0 0 0 0 0 0 0 0 0 0 0 0 0 0 0 0 0 0 0 0 0 0 0 0 0 0 0 0 0 0 0 0 0 0 0 0 0 0 0 0 0 0 0 0 0 0 0 0 0 0 0 0 0 0 0 0 0 0 0 0 0 0 
0 0 0 0 0 0 0 0 0 0 0 0 0 0 0 0 0 0 0 0 0 0 0 0 0 0 0 0 0 0 0 0 0 0 0 0 0 0 0 0 0 0 0 0 0 0 0 0 0 0 0 0 0 0 0 0 0 0 0 0 0 0 0 0 0 0 0 0 0 0 0 0 0 0 0 0 0 0 0 0 0 0 0 0 0 0 0 0 0 0 0 0 0 0 0 0 0 0 0 0 0 0 0 0 0 0 0 0 0 0 0 0 0 0 0 0 0 0 0 0 0 0 0 0 0 0 0 0 0 0 0 0 0 0 0 0 0 0 0 0 0 0 0 0 0 0 0 0 0 0 0 0 0 0 0 0 0 0 0 0 0 0 0 0 0 0 0 0 0 0 0 0 0 0 0 0 0 0 0 0 
0 0 0 0 0 0 0 0 0 0 0 0 0 0 0 0 0 0 0 0 0 0 0 0 0 0 0 0 0 0 0 0 0 0 0 0 0 0 0 0 0 0 0 0 0 0 0 0 0 0 0 0 0 0 0 0 0 0 0 0 0 0 0 0 0 0 0 0 0 0 0 0 0 0 0 0 0 0 0 0 0 0 0 0 0 0 0 0 0 0 0 0 0 0 0 0 0 0 0 0 0 0 0 0 0 0 0 0 0 0 0 0 0 0 0 0 0 0 0 0 0 0 0 0 0 0 0 0 0 0 0 0 0 0 0 0 0 0 0 0 0 0 0 0 0 0 0 0 0 0 0 0 0 0 0 0 0 0 0 0 0 0 0 0 0 0 0 0 0 0 0 0 0 0 0 0 0 0 0 0 
0 0 0 0 0 0 0 0 0 0 0 0 0 0 0 0 0 0 0 0 0 0 0 0 0 0 0 0 0 0 0 0 0 0 0 0 0 0 0 0 0 0 0 0 0 0 0 0 0 0 0 0 0 0 0 0 0 0 0 0 0 0 0 0 0 0 0 0 0 0 0 0 0 0 0 0 0 0 0 0 0 0 0 0 0 0 0 0 0 0 0 0 0 0 0 0 0 0 0 0 0 0 0 0 0 0 0 0 0 0 0 0 0 0 0 0 0 0 0 0 0 0 0 0 0 0 0 0 0 0 0 0 0 0 0 0 0 0 0 0 0 0 0 0 0 0 0 0 0 0 0 0 0 0 0 0 0 0 0 0 0 0 0 0 0 0 0 0 0 0 0 0 0 0 0 0 0 0 0 0 
0 0 0 0 0 0 0 0 0 0 0 0 0 0 0 0 0 0 0 0 0 0 0 0 0 0 0 0 0 0 0 0 0 0 0 0 0 0 0 0 0 0 0 0 0 0 0 0 0 0 0 0 0 0 0 0 0 0 0 0 0 0 0 0 0 0 0 0 0 0 0 0 0 0 0 0 0 0 0 0 0 0 0 0 0 0 0 0 0 0 0 0 0 0 0 0 0 0 0 0 0 0 0 0 0 0 0 0 0 0 0 0 0 0 0 0 0 0 0 0 0 0 0 0 0 0 0 0 0 0 0 0 0 0 0 0 0 0 0 0 0 0 0 0 0 0 0 0 0 0 0 0 0 0 0 0 0 0 0 0 0 0 0 0 0 0 0 0 0 0 0 0 0 0 0 0 0 0 0 0 
0 0 0 0 0 0 0 0 0 0 0 0 0 0 0 0 0 0 0 0 0 0 0 0 0 0 0 0 0 0 0 0 0 0 0 0 0 0 0 0 0 0 0 0 0 0 0 0 0 0 0 0 0 0 0 0 0 0 0 0 0 0 0 0 0 0 0 0 0 0 0 0 0 0 0 0 0 0 0 0 0 0 0 0 0 0 0 0 0 0 0 0 0 0 0 0 0 0 0 0 0 0 0 0 0 0 0 0 0 0 0 0 0 0 0 0 0 0 0 0 0 0 0 0 0 0 0 0 0 0 0 0 0 0 0 0 0 0 0 0 0 0 0 0 0 0 0 0 0 0 0 0 0 0 0 0 0 0 0 0 0 0 0 0 0 0 0 0 0 0 0 0 0 0 0 0 0 0 0 0 
0 0 0 0 0 0 0 0 0 0 0 0 0 0 0 0 0 0 0 0 0 0 0 0 0 0 0 0 0 0 0 0 0 0 0 0 0 0 0 0 0 0 0 0 0 0 0 0 0 0 0 0 0 0 0 0 0 0 0 0 0 0 0 0 0 0 0 0 0 0 0 0 0 0 0 0 0 0 0 0 0 0 0 0 0 0 0 0 0 0 0 0 0 0 0 0 0 0 0 0 0 0 0 0 0 0 0 0 0 0 0 0 0 0 0 0 0 0 0 0 0 0 0 0 0 0 0 0 0 0 0 0 0 0 0 0 0 0 0 0 0 0 0 0 0 0 0 0 0 0 0 0 0 0 0 0 0 0 0 0 0 0 0 0 0 0 0 0 0 0 0 0 0 0 0 0 0 0 0 0 
0 0 0 0 0 0 0 0 0 0 0 0 0 0 0 0 0 0 0 0 0 0 0 0 0 0 0 0 0 0 0 0 0 0 0 0 0 0 0 0 0 0 0 0 0 0 0 0 0 0 0 0 0 0 0 0 0 0 0 0 0 0 0 0 0 0 0 0 0 0 0 0 0 0 0 0 0 0 0 0 0 0 0 0 0 0 0 0 0 0 0 0 0 0 0 0 0 0 0 0 0 0 0 0 0 0 0 0 0 0 0 0 0 0 0 0 0 0 0 0 0 0 0 0 0 0 0 0 0 0 0 0 0 0 0 0 0 0 0 0 0 0 0 0 0 0 0 0 0 0 0 0 0 0 0 0 0 0 0 0 0 0 0 0 0 0 0 0 0 0 0 0 0 0 0 0 0 0 0 0 
