P3
# This is a dose file slice at depth 84 of 100
60 60
# now we give the maximum value of the RGB coordinates.
1602
0 0 0 0 0 0 0 0 0 0 0 0 0 0 0 0 0 0 0 0 0 0 0 0 0 0 0 0 0 0 0 0 0 0 0 0 0 0 0 0 0 0 0 0 0 0 0 0 0 0 0 0 0 0 0 0 0 0 0 0 0 0 0 0 0 0 0 0 0 0 0 0 0 0 0 0 0 0 0 0 0 0 0 0 0 0 0 1 0 0 0 0 0 0 0 0 0 0 0 0 0 0 0 0 0 0 0 0 0 0 0 0 0 0 0 0 0 0 0 0 0 0 0 0 0 0 0 0 0 0 0 0 0 0 0 0 0 0 0 0 0 0 0 0 0 0 0 0 0 0 0 0 0 0 0 0 0 0 0 0 0 0 0 0 0 0 0 0 0 0 0 0 0 0 0 0 0 0 0 0 
0 0 0 0 0 0 0 0 0 0 0 0 0 0 0 0 0 0 0 0 0 0 0 0 0 0 0 0 0 0 0 0 0 0 0 0 0 0 0 0 0 0 1 0 0 0 0 0 0 0 0 0 0 0 0 0 0 0 0 0 0 0 0 0 0 0 0 0 0 0 0 0 0 0 0 0 0 0 0 0 0 0 0 0 2 0 0 1 0 0 0 0 0 0 0 0 0 0 0 0 0 0 0 0 0 0 0 0 0 0 0 0 0 0 0 0 0 0 0 0 0 0 0 0 0 0 0 0 0 0 0 0 0 0 0 0 0 0 0 0 0 0 0 0 0 0 0 0 0 0 0 0 0 0 0 0 0 0 0 0 0 0 0 0 0 0 0 0 0 0 0 0 0 0 0 0 0 0 0 0 
0 0 0 0 0 0 0 0 0 0 0 0 0 0 0 0 0 0 0 0 0 0 0 0 0 0 0 0 0 0 0 0 0 0 0 0 0 0 0 0 0 0 0 0 0 0 0 0 0 0 0 0 0 0 0 0 0 0 0 0 0 0 0 0 0 0 0 0 0 0 0 0 0 0 0 0 0 0 0 0 0 0 0 0 2 0 0 0 0 0 1 0 0 0 0 0 0 0 0 0 0 0 0 0 0 1 0 0 0 0 0 0 0 0 0 0 0 0 0 0 0 0 0 0 0 0 0 0 0 0 0 0 0 0 0 0 0 0 0 0 0 0 0 0 1 0 0 0 0 0 0 0 0 0 0 0 2 0 0 0 0 0 0 0 0 0 0 0 0 0 0 0 0 0 0 0 0 0 0 0 
0 0 0 0 0 0 0 0 0 1 0 0 0 0 0 0 0 0 0 0 0 0 0 0 0 0 0 0 0 0 0 0 0 0 0 0 0 0 0 0 0 0 0 0 0 0 0 0 0 0 0 0 0 0 0 0 0 0 0 0 0 0 0 0 0 0 0 0 0 0 0 0 0 0 0 0 0 0 0 0 0 0 0 0 2 0 0 1 0 0 0 0 0 0 0 0 0 0 0 0 0 0 0 0 0 0 0 0 0 0 0 0 0 0 0 0 0 0 0 0 0 0 0 0 0 0 0 0 0 0 0 0 0 0 0 0 0 0 0 0 0 0 0 0 0 0 0 0 0 0 0 0 0 0 0 0 0 0 0 0 0 0 0 0 0 0 0 0 0 0 0 0 0 0 0 0 0 0 0 0 
0 0 0 0 0 0 0 0 0 0 0 0 0 0 0 0 0 0 0 0 0 0 0 0 0 0 0 0 0 0 0 0 0 0 0 0 0 0 0 0 0 0 0 0 0 0 0 0 0 0 0 0 0 0 0 0 0 0 0 0 0 0 0 0 0 0 0 0 0 0 0 0 0 0 0 0 0 0 0 0 0 0 0 0 0 0 0 0 0 0 0 0 0 1 0 0 0 0 0 0 0 0 0 0 0 0 0 0 0 0 0 0 0 0 0 0 0 0 0 0 0 0 0 0 0 0 0 0 0 0 0 0 0 0 0 0 0 0 0 0 0 0 0 0 0 0 0 0 0 0 0 0 0 0 0 0 0 0 0 0 0 0 0 0 0 0 0 0 0 0 0 0 0 0 0 0 0 0 0 0 
0 0 0 0 0 0 0 0 0 0 0 0 0 0 0 0 0 0 0 0 0 0 0 0 0 0 0 0 0 0 0 0 0 0 0 0 0 0 0 0 0 0 0 0 0 0 0 0 0 0 0 0 0 0 0 0 0 0 0 0 0 0 0 0 0 0 0 0 0 0 0 0 0 0 0 0 0 0 0 0 0 1 0 0 0 0 0 0 0 0 0 0 0 1 0 0 0 0 0 0 0 0 0 0 0 0 0 0 0 0 0 0 0 0 0 0 0 0 0 0 0 0 0 0 0 0 0 0 0 0 0 0 0 0 0 0 0 0 1 0 0 0 0 0 0 0 0 0 0 0 0 0 0 0 0 0 0 0 0 0 0 0 0 0 0 0 0 0 0 0 0 1 0 0 0 0 0 0 0 0 
0 0 0 0 0 0 0 0 0 0 0 0 0 0 0 1 0 0 0 0 0 0 0 0 0 0 0 0 0 0 0 0 0 0 0 0 0 0 0 0 0 0 0 0 0 0 0 0 0 0 0 0 0 0 0 0 0 0 0 0 0 0 0 0 0 0 0 0 0 1 0 0 0 0 0 0 0 0 0 0 0 1 0 0 0 0 0 0 0 0 0 0 0 0 0 0 2 0 0 0 0 0 0 0 0 1 0 0 0 0 0 0 0 0 0 0 0 0 0 0 0 0 0 0 0 0 0 0 0 0 0 0 0 0 0 0 0 0 0 0 0 0 0 0 0 0 0 0 0 0 0 0 0 0 0 0 0 0 0 0 0 0 0 0 0 0 0 0 0 0 0 0 0 0 0 0 0 0 0 0 
0 0 0 0 0 0 0 0 0 0 0 0 0 0 0 0 0 0 0 0 0 0 0 0 1 0 0 0 0 0 0 0 0 0 0 0 0 0 0 0 0 0 0 0 0 0 0 0 0 0 0 0 0 0 0 0 0 0 0 0 0 0 0 0 0 0 0 0 0 0 0 0 0 0 0 0 0 0 0 0 0 0 0 0 0 0 0 0 0 0 0 0 0 0 0 0 0 0 0 1 0 0 0 0 0 0 0 0 0 0 0 0 0 0 0 0 0 0 0 0 0 0 0 1 0 0 0 0 0 0 0 0 0 0 0 0 0 0 0 0 0 0 0 0 0 0 0 0 0 0 0 0 0 0 0 0 0 0 0 0 0 0 0 0 0 0 0 0 0 0 0 0 0 0 0 0 0 0 0 0 
0 0 0 0 0 0 0 0 0 0 0 0 0 0 0 0 0 0 0 0 0 0 0 0 0 0 0 0 0 0 0 0 0 0 0 0 0 0 0 0 0 0 0 0 0 0 0 0 1 0 0 0 0 0 0 0 0 0 0 0 0 0 0 0 0 0 0 0 0 0 0 0 0 0 0 0 0 0 0 0 0 0 0 0 0 0 0 0 0 0 0 0 0 0 0 0 0 0 0 0 0 0 3 0 0 0 0 0 1 0 0 0 0 0 0 0 0 0 0 0 0 0 0 0 0 0 0 0 0 0 0 0 0 0 0 0 0 0 0 0 0 0 0 0 0 0 0 0 0 0 0 0 0 0 0 0 0 0 0 0 0 0 0 0 0 0 0 0 0 0 0 0 0 0 0 0 0 0 0 0 
0 0 0 0 0 0 0 0 0 0 0 0 0 0 0 0 0 0 0 0 0 0 0 0 0 0 0 0 0 0 0 0 0 1 0 0 0 0 0 1 0 0 1 0 0 1 0 0 0 0 0 1 0 0 0 0 0 0 0 0 3 0 0 1 0 0 0 0 0 1 0 0 1 0 0 0 0 0 2 0 0 2 0 0 2 0 0 2 0 0 1 0 0 2 0 0 3 0 0 1 0 0 1 0 0 4 0 0 3 0 0 2 0 0 1 0 0 1 0 0 3 0 0 1 0 0 1 0 0 2 0 0 2 0 0 0 0 0 0 0 0 2 0 0 2 0 0 3 0 0 0 0 0 0 0 0 0 0 0 0 0 0 0 0 0 1 0 0 0 0 0 1 0 0 0 0 0 0 0 0 
0 0 0 0 0 0 0 0 0 0 0 0 0 0 0 0 0 0 0 0 0 0 0 0 0 0 0 1 0 0 61 0 0 135 0 0 141 0 0 115 0 0 122 0 0 129 0 0 117 0 0 120 0 0 125 0 0 112 0 0 129 0 0 123 0 0 126 0 0 107 0 0 120 0 0 112 0 0 119 0 0 155 0 0 122 0 0 121 0 0 120 0 0 133 0 0 130 0 0 116 0 0 129 0 0 126 0 0 114 0 0 113 0 0 115 0 0 133 0 0 115 0 0 115 0 0 120 0 0 127 0 0 111 0 0 122 0 0 120 0 0 118 0 0 137 0 0 126 0 0 66 0 0 0 0 0 0 0 0 0 0 0 1 0 0 0 0 0 0 0 0 0 0 0 0 0 0 0 0 0 
0 0 0 0 0 0 0 0 0 0 0 0 0 0 0 0 0 0 0 0 0 0 0 0 0 0 0 2 0 0 127 0 0 230 0 0 266 0 0 246 0 0 247 0 0 237 0 0 243 0 0 245 0 0 220 0 0 230 0 0 212 0 0 260 0 0 246 0 0 250 0 0 231 0 0 262 0 0 223 0 0 254 0 0 246 0 0 254 0 0 248 0 0 259 0 0 240 0 0 235 0 0 242 0 0 263 0 0 244 0 0 255 0 0 237 0 0 239 0 0 238 0 0 245 0 0 233 0 0 239 0 0 245 0 0 225 0 0 246 0 0 218 0 0 242 0 0 230 0 0 114 0 0 3 0 0 0 0 0 0 0 0 0 0 0 0 0 0 0 0 0 1 0 0 0 0 0 0 0 0 
0 0 0 0 0 0 0 0 0 0 0 0 0 0 0 0 0 0 0 0 0 0 0 0 0 0 0 1 0 0 117 0 0 240 0 0 235 0 0 252 0 0 231 0 0 231 0 0 232 0 0 224 0 0 250 0 0 230 0 0 270 0 0 229 0 0 242 0 0 236 0 0 271 0 0 237 0 0 266 0 0 234 0 0 259 0 0 258 0 0 233 0 0 259 0 0 248 0 0 237 0 0 229 0 0 235 0 0 242 0 0 260 0 0 223 0 0 256 0 0 255 0 0 242 0 0 237 0 0 249 0 0 252 0 0 265 0 0 228 0 0 239 0 0 235 0 0 238 0 0 96 0 0 0 0 0 0 0 0 0 0 0 0 0 0 0 0 0 0 0 0 0 0 0 0 0 0 0 0 0 
0 0 0 0 0 0 0 0 0 0 0 0 0 0 0 0 0 0 0 0 0 0 0 0 0 0 0 2 0 0 120 0 0 230 0 0 251 0 0 270 0 0 230 0 0 249 0 0 235 0 0 258 0 0 242 0 0 256 0 0 233 0 0 229 0 0 239 0 0 251 0 0 242 0 0 267 0 0 233 0 0 232 0 0 233 0 0 229 0 0 226 0 0 243 0 0 238 0 0 269 0 0 237 0 0 236 0 0 268 0 0 242 0 0 250 0 0 273 0 0 256 0 0 232 0 0 248 0 0 238 0 0 230 0 0 238 0 0 217 0 0 267 0 0 253 0 0 221 0 0 103 0 0 1 0 0 0 0 0 0 0 0 0 0 0 0 0 0 0 0 0 0 0 0 0 0 0 0 0 0 
0 0 0 0 0 0 0 0 0 0 0 0 0 0 0 0 0 0 0 0 0 1 0 0 0 0 0 1 0 0 131 0 0 262 0 0 244 0 0 231 0 0 256 0 0 224 0 0 245 0 0 266 0 0 225 0 0 241 0 0 228 0 0 233 0 0 240 0 0 271 0 0 274 0 0 238 0 0 220 0 0 214 0 0 245 0 0 254 0 0 249 0 0 242 0 0 236 0 0 243 0 0 257 0 0 226 0 0 228 0 0 214 0 0 262 0 0 240 0 0 264 0 0 242 0 0 240 0 0 242 0 0 235 0 0 263 0 0 235 0 0 239 0 0 238 0 0 230 0 0 114 0 0 1 0 0 0 0 0 0 0 0 0 0 0 0 0 0 0 0 0 0 0 0 0 0 0 0 0 0 
0 0 0 0 0 0 0 0 0 0 0 0 0 0 0 0 0 0 0 0 0 0 0 0 0 0 0 2 0 0 116 0 0 231 0 0 263 0 0 227 0 0 240 0 0 247 0 0 233 0 0 246 0 0 263 0 0 245 0 0 238 0 0 262 0 0 227 0 0 250 0 0 227 0 0 228 0 0 249 0 0 258 0 0 252 0 0 240 0 0 250 0 0 266 0 0 263 0 0 239 0 0 229 0 0 226 0 0 257 0 0 254 0 0 233 0 0 244 0 0 205 0 0 259 0 0 259 0 0 230 0 0 239 0 0 254 0 0 232 0 0 236 0 0 221 0 0 249 0 0 117 0 0 0 0 0 1 0 0 0 0 0 0 0 0 0 0 0 0 0 0 0 0 0 0 0 0 0 0 0 
0 0 0 0 0 0 0 0 0 0 0 0 0 0 0 0 0 0 0 0 0 0 0 0 0 0 0 0 0 0 129 0 0 270 0 0 253 0 0 241 0 0 243 0 0 246 0 0 241 0 0 227 0 0 250 0 0 268 0 0 249 0 0 241 0 0 239 0 0 242 0 0 239 0 0 225 0 0 261 0 0 240 0 0 233 0 0 250 0 0 233 0 0 263 0 0 256 0 0 245 0 0 237 0 0 237 0 0 237 0 0 282 0 0 276 0 0 260 0 0 229 0 0 240 0 0 222 0 0 232 0 0 232 0 0 252 0 0 249 0 0 246 0 0 255 0 0 249 0 0 100 0 0 0 0 0 0 0 0 0 0 0 1 0 0 1 0 0 0 0 0 0 0 0 0 0 0 0 0 0 
0 0 0 0 0 0 0 0 0 0 0 0 0 0 0 1 0 0 0 0 0 0 0 0 1 0 0 1 0 0 108 0 0 251 0 0 228 0 0 215 0 0 218 0 0 234 0 0 262 0 0 228 0 0 233 0 0 237 0 0 254 0 0 249 0 0 230 0 0 222 0 0 230 0 0 258 0 0 250 0 0 246 0 0 235 0 0 233 0 0 257 0 0 245 0 0 273 0 0 220 0 0 249 0 0 236 0 0 249 0 0 241 0 0 249 0 0 238 0 0 243 0 0 246 0 0 242 0 0 247 0 0 237 0 0 232 0 0 260 0 0 249 0 0 259 0 0 244 0 0 123 0 0 2 0 0 0 0 0 1 0 0 0 0 0 0 0 0 0 0 0 0 0 0 0 0 0 0 0 0 
0 0 0 0 0 0 0 0 0 0 0 0 0 0 0 0 0 0 0 0 0 1 0 0 0 0 0 0 0 0 114 0 0 243 0 0 245 0 0 242 0 0 244 0 0 238 0 0 247 0 0 255 0 0 243 0 0 235 0 0 227 0 0 227 0 0 251 0 0 236 0 0 244 0 0 226 0 0 239 0 0 244 0 0 243 0 0 235 0 0 245 0 0 248 0 0 268 0 0 254 0 0 243 0 0 253 0 0 232 0 0 237 0 0 253 0 0 229 0 0 242 0 0 239 0 0 229 0 0 250 0 0 213 0 0 231 0 0 239 0 0 226 0 0 257 0 0 248 0 0 119 0 0 2 0 0 0 0 0 0 0 0 0 0 0 0 0 0 0 0 0 0 0 0 0 0 0 0 0 0 
0 0 0 0 0 0 0 0 0 0 0 0 0 0 0 0 0 0 0 0 0 0 0 0 0 0 0 2 0 0 116 0 0 243 0 0 258 0 0 246 0 0 234 0 0 239 0 0 261 0 0 263 0 0 252 0 0 246 0 0 236 0 0 235 0 0 253 0 0 238 0 0 236 0 0 252 0 0 253 0 0 235 0 0 271 0 0 254 0 0 242 0 0 216 0 0 252 0 0 233 0 0 243 0 0 289 0 0 224 0 0 265 0 0 236 0 0 244 0 0 230 0 0 268 0 0 247 0 0 257 0 0 233 0 0 244 0 0 242 0 0 254 0 0 260 0 0 229 0 0 133 0 0 2 0 0 0 0 0 0 0 0 0 0 0 0 0 0 0 0 0 0 0 0 0 0 0 0 0 0 
0 0 0 0 0 0 0 0 0 0 0 0 0 0 0 0 0 0 0 0 0 0 0 0 0 0 0 2 0 0 122 0 0 253 0 0 243 0 0 221 0 0 238 0 0 235 0 0 244 0 0 248 0 0 249 0 0 239 0 0 245 0 0 267 0 0 229 0 0 240 0 0 247 0 0 236 0 0 240 0 0 215 0 0 235 0 0 231 0 0 251 0 0 251 0 0 236 0 0 229 0 0 259 0 0 242 0 0 251 0 0 269 0 0 243 0 0 244 0 0 237 0 0 266 0 0 270 0 0 262 0 0 209 0 0 260 0 0 237 0 0 248 0 0 212 0 0 241 0 0 126 0 0 0 0 0 0 0 0 0 0 0 0 0 0 0 0 0 1 0 0 1 0 0 0 0 0 0 0 0 
0 0 0 0 0 0 0 0 0 0 0 0 0 0 0 0 0 0 0 0 0 0 0 0 1 0 0 0 0 0 123 0 0 267 0 0 223 0 0 226 0 0 233 0 0 225 0 0 218 0 0 213 0 0 237 0 0 260 0 0 238 0 0 233 0 0 255 0 0 226 0 0 224 0 0 251 0 0 248 0 0 243 0 0 221 0 0 242 0 0 228 0 0 254 0 0 231 0 0 274 0 0 236 0 0 245 0 0 245 0 0 230 0 0 245 0 0 240 0 0 233 0 0 209 0 0 244 0 0 226 0 0 250 0 0 229 0 0 252 0 0 245 0 0 210 0 0 243 0 0 103 0 0 1 0 0 0 0 0 0 0 0 0 0 0 0 0 0 1 0 0 0 0 0 0 0 0 0 0 0 
0 0 0 0 0 0 0 0 0 0 0 0 0 0 0 1 0 0 0 0 0 0 0 0 0 0 0 1 0 0 138 0 0 244 0 0 227 0 0 219 0 0 218 0 0 263 0 0 214 0 0 250 0 0 246 0 0 240 0 0 239 0 0 231 0 0 239 0 0 245 0 0 229 0 0 253 0 0 252 0 0 214 0 0 243 0 0 255 0 0 281 0 0 230 0 0 233 0 0 238 0 0 240 0 0 248 0 0 225 0 0 221 0 0 256 0 0 211 0 0 242 0 0 229 0 0 253 0 0 280 0 0 234 0 0 253 0 0 256 0 0 248 0 0 261 0 0 243 0 0 120 0 0 0 0 0 0 0 0 1 0 0 0 0 0 0 0 0 0 0 0 0 0 0 0 0 0 0 0 0 
0 0 0 0 0 0 0 0 0 0 0 0 0 0 0 0 0 0 1 0 0 0 0 0 0 0 0 1 0 0 95 0 0 265 0 0 236 0 0 253 0 0 235 0 0 263 0 0 250 0 0 263 0 0 267 0 0 239 0 0 249 0 0 259 0 0 233 0 0 272 0 0 218 0 0 217 0 0 244 0 0 230 0 0 234 0 0 227 0 0 246 0 0 246 0 0 242 0 0 231 0 0 231 0 0 235 0 0 251 0 0 249 0 0 210 0 0 258 0 0 242 0 0 242 0 0 248 0 0 231 0 0 239 0 0 221 0 0 230 0 0 250 0 0 247 0 0 244 0 0 128 0 0 1 0 0 0 0 0 0 0 0 0 0 0 0 0 0 0 0 0 0 0 0 0 0 0 0 0 0 
0 0 0 0 0 0 0 0 0 0 0 0 0 0 0 0 0 0 0 0 0 1 0 0 0 0 0 2 0 0 122 0 0 242 0 0 257 0 0 243 0 0 248 0 0 264 0 0 248 0 0 240 0 0 243 0 0 251 0 0 251 0 0 255 0 0 258 0 0 259 0 0 251 0 0 262 0 0 232 0 0 235 0 0 259 0 0 239 0 0 242 0 0 261 0 0 237 0 0 244 0 0 259 0 0 251 0 0 250 0 0 224 0 0 221 0 0 219 0 0 232 0 0 249 0 0 256 0 0 237 0 0 252 0 0 271 0 0 250 0 0 266 0 0 286 0 0 238 0 0 132 0 0 0 0 0 0 0 0 0 0 0 0 0 0 0 0 0 0 0 0 0 0 0 0 0 0 0 0 0 
0 0 0 0 0 0 0 0 0 0 0 0 0 0 0 0 0 0 0 0 0 0 0 0 0 0 0 0 0 0 114 0 0 237 0 0 247 0 0 245 0 0 233 0 0 240 0 0 254 0 0 248 0 0 241 0 0 235 0 0 278 0 0 219 0 0 237 0 0 252 0 0 236 0 0 273 0 0 247 0 0 241 0 0 263 0 0 251 0 0 252 0 0 246 0 0 242 0 0 253 0 0 243 0 0 260 0 0 239 0 0 229 0 0 246 0 0 244 0 0 236 0 0 238 0 0 251 0 0 258 0 0 269 0 0 226 0 0 250 0 0 233 0 0 229 0 0 229 0 0 118 0 0 2 0 0 0 0 0 0 0 0 0 0 0 0 0 0 0 0 0 0 0 0 0 0 0 0 0 0 
0 0 0 0 0 0 0 0 0 0 0 0 0 0 0 0 0 0 0 0 0 0 0 0 0 0 0 0 0 0 118 0 0 214 0 0 249 0 0 232 0 0 243 0 0 240 0 0 223 0 0 238 0 0 218 0 0 258 0 0 246 0 0 294 0 0 227 0 0 244 0 0 264 0 0 235 0 0 277 0 0 240 0 0 251 0 0 256 0 0 239 0 0 251 0 0 253 0 0 254 0 0 214 0 0 265 0 0 237 0 0 238 0 0 246 0 0 247 0 0 264 0 0 228 0 0 234 0 0 250 0 0 248 0 0 238 0 0 239 0 0 257 0 0 246 0 0 254 0 0 111 0 0 0 0 0 0 0 0 0 0 0 1 0 0 0 0 0 0 0 0 0 0 0 0 0 0 0 0 0 
0 0 0 0 0 0 0 0 0 0 0 0 0 0 0 0 0 0 0 0 0 0 0 0 0 0 0 0 0 0 130 0 0 236 0 0 234 0 0 270 0 0 246 0 0 240 0 0 243 0 0 237 0 0 268 0 0 254 0 0 225 0 0 274 0 0 246 0 0 256 0 0 209 0 0 234 0 0 243 0 0 225 0 0 249 0 0 242 0 0 222 0 0 233 0 0 238 0 0 250 0 0 260 0 0 251 0 0 239 0 0 261 0 0 233 0 0 244 0 0 240 0 0 233 0 0 249 0 0 246 0 0 241 0 0 234 0 0 268 0 0 251 0 0 238 0 0 251 0 0 127 0 0 0 0 0 0 0 0 0 0 0 0 0 0 0 0 0 0 0 0 0 0 0 1 0 0 1 0 0 
0 0 0 0 0 0 0 0 0 0 0 0 0 0 0 0 0 0 0 0 0 0 0 0 0 0 0 2 0 0 113 0 0 224 0 0 247 0 0 254 0 0 227 0 0 257 0 0 206 0 0 230 0 0 226 0 0 235 0 0 218 0 0 220 0 0 235 0 0 247 0 0 256 0 0 227 0 0 260 0 0 214 0 0 223 0 0 227 0 0 275 0 0 217 0 0 239 0 0 234 0 0 259 0 0 242 0 0 235 0 0 260 0 0 265 0 0 239 0 0 264 0 0 247 0 0 227 0 0 220 0 0 253 0 0 246 0 0 246 0 0 230 0 0 256 0 0 241 0 0 118 0 0 2 0 0 0 0 0 0 0 0 0 0 0 0 0 0 0 0 0 0 0 0 0 0 0 0 0 0 
0 0 0 0 0 0 1 0 0 0 0 0 0 0 0 0 0 0 0 0 0 0 0 0 0 0 0 2 0 0 145 0 0 227 0 0 237 0 0 242 0 0 253 0 0 246 0 0 249 0 0 258 0 0 227 0 0 231 0 0 238 0 0 240 0 0 251 0 0 240 0 0 252 0 0 237 0 0 241 0 0 230 0 0 238 0 0 256 0 0 265 0 0 232 0 0 266 0 0 239 0 0 233 0 0 244 0 0 231 0 0 245 0 0 213 0 0 223 0 0 249 0 0 265 0 0 219 0 0 234 0 0 239 0 0 243 0 0 234 0 0 248 0 0 278 0 0 278 0 0 109 0 0 1 0 0 0 0 0 0 0 0 0 0 0 0 0 0 0 0 0 0 0 0 0 0 0 0 0 0 
0 0 0 0 0 0 0 0 0 0 0 0 0 0 0 0 0 0 0 0 0 0 0 0 0 0 0 1 0 0 122 0 0 231 0 0 267 0 0 231 0 0 225 0 0 231 0 0 249 0 0 258 0 0 225 0 0 236 0 0 226 0 0 249 0 0 213 0 0 215 0 0 273 0 0 243 0 0 242 0 0 232 0 0 239 0 0 268 0 0 228 0 0 249 0 0 237 0 0 244 0 0 247 0 0 252 0 0 241 0 0 221 0 0 247 0 0 250 0 0 251 0 0 253 0 0 259 0 0 241 0 0 238 0 0 253 0 0 247 0 0 241 0 0 228 0 0 227 0 0 109 0 0 1 0 0 0 0 0 0 0 0 0 0 0 0 0 0 0 0 0 1 0 0 0 0 0 0 0 0 
0 0 0 0 0 0 0 0 0 0 0 0 0 0 0 0 0 0 0 0 0 0 0 0 0 0 0 4 0 0 117 0 0 239 0 0 272 0 0 257 0 0 258 0 0 255 0 0 245 0 0 263 0 0 249 0 0 253 0 0 225 0 0 223 0 0 218 0 0 236 0 0 246 0 0 221 0 0 249 0 0 227 0 0 265 0 0 237 0 0 242 0 0 221 0 0 218 0 0 242 0 0 241 0 0 243 0 0 240 0 0 231 0 0 263 0 0 236 0 0 252 0 0 255 0 0 253 0 0 223 0 0 250 0 0 222 0 0 245 0 0 252 0 0 246 0 0 248 0 0 108 0 0 0 0 0 0 0 0 0 0 0 0 0 0 0 0 0 0 0 0 0 0 0 0 0 0 0 0 0 
0 0 0 0 0 0 0 0 0 0 0 0 0 0 0 0 0 0 0 0 0 0 0 0 0 0 0 2 0 0 101 0 0 232 0 0 248 0 0 249 0 0 232 0 0 224 0 0 259 0 0 231 0 0 219 0 0 240 0 0 272 0 0 241 0 0 234 0 0 279 0 0 248 0 0 261 0 0 260 0 0 235 0 0 238 0 0 231 0 0 237 0 0 232 0 0 232 0 0 218 0 0 223 0 0 251 0 0 216 0 0 257 0 0 248 0 0 227 0 0 240 0 0 233 0 0 241 0 0 238 0 0 254 0 0 245 0 0 245 0 0 249 0 0 232 0 0 251 0 0 113 0 0 0 0 0 0 0 0 0 0 0 0 0 0 0 0 0 0 0 0 0 0 0 0 0 0 0 0 0 
0 0 0 0 0 0 0 0 0 0 0 0 0 0 0 0 0 0 0 0 0 0 0 0 0 0 0 1 0 0 123 0 0 259 0 0 205 0 0 236 0 0 239 0 0 242 0 0 257 0 0 263 0 0 246 0 0 247 0 0 252 0 0 264 0 0 255 0 0 262 0 0 240 0 0 248 0 0 239 0 0 222 0 0 252 0 0 226 0 0 264 0 0 245 0 0 270 0 0 232 0 0 223 0 0 273 0 0 234 0 0 238 0 0 246 0 0 243 0 0 229 0 0 222 0 0 225 0 0 242 0 0 250 0 0 230 0 0 237 0 0 260 0 0 244 0 0 234 0 0 121 0 0 2 0 0 0 0 0 0 0 0 0 0 0 0 0 0 0 0 0 0 0 0 0 0 0 0 0 0 
0 0 0 0 0 0 0 0 0 0 0 0 0 0 0 0 0 0 0 0 0 1 0 0 0 0 0 0 0 0 129 0 0 230 0 0 239 0 0 258 0 0 234 0 0 243 0 0 235 0 0 255 0 0 259 0 0 227 0 0 249 0 0 242 0 0 246 0 0 241 0 0 262 0 0 270 0 0 214 0 0 253 0 0 237 0 0 223 0 0 236 0 0 267 0 0 238 0 0 272 0 0 254 0 0 247 0 0 269 0 0 219 0 0 247 0 0 255 0 0 254 0 0 261 0 0 253 0 0 253 0 0 243 0 0 251 0 0 248 0 0 242 0 0 234 0 0 235 0 0 123 0 0 2 0 0 0 0 0 1 0 0 0 0 0 0 0 0 0 0 0 0 0 0 0 0 0 0 0 0 
0 0 0 0 0 0 0 0 0 0 0 0 0 0 0 0 0 0 0 0 0 0 0 0 0 0 0 2 0 0 114 0 0 252 0 0 238 0 0 243 0 0 218 0 0 253 0 0 239 0 0 241 0 0 242 0 0 229 0 0 247 0 0 251 0 0 235 0 0 250 0 0 241 0 0 231 0 0 248 0 0 259 0 0 249 0 0 251 0 0 234 0 0 243 0 0 256 0 0 229 0 0 239 0 0 228 0 0 262 0 0 232 0 0 237 0 0 252 0 0 246 0 0 252 0 0 218 0 0 242 0 0 235 0 0 235 0 0 263 0 0 245 0 0 268 0 0 223 0 0 120 0 0 1 0 0 0 0 0 0 0 0 0 0 0 0 0 0 0 0 0 0 0 0 0 0 0 0 0 0 
0 0 0 0 0 0 0 0 0 0 0 0 0 0 0 0 0 0 0 0 0 0 0 0 1 0 0 5 0 0 122 0 0 229 0 0 247 0 0 233 0 0 256 0 0 245 0 0 230 0 0 246 0 0 236 0 0 229 0 0 245 0 0 255 0 0 261 0 0 246 0 0 238 0 0 234 0 0 271 0 0 240 0 0 240 0 0 244 0 0 251 0 0 234 0 0 246 0 0 270 0 0 231 0 0 260 0 0 251 0 0 214 0 0 246 0 0 244 0 0 233 0 0 239 0 0 203 0 0 209 0 0 232 0 0 250 0 0 257 0 0 246 0 0 237 0 0 255 0 0 129 0 0 1 0 0 1 0 0 0 0 0 0 0 0 0 0 0 0 0 0 0 0 0 0 0 0 0 0 0 
0 0 0 0 0 0 0 0 0 0 0 0 0 0 0 0 0 0 0 0 0 0 0 0 0 0 0 1 0 0 115 0 0 218 0 0 239 0 0 246 0 0 231 0 0 218 0 0 246 0 0 246 0 0 234 0 0 232 0 0 237 0 0 207 0 0 244 0 0 249 0 0 253 0 0 223 0 0 214 0 0 264 0 0 244 0 0 233 0 0 230 0 0 254 0 0 246 0 0 237 0 0 232 0 0 273 0 0 287 0 0 219 0 0 262 0 0 228 0 0 254 0 0 218 0 0 245 0 0 275 0 0 238 0 0 243 0 0 250 0 0 234 0 0 266 0 0 250 0 0 122 0 0 2 0 0 0 0 0 0 0 0 0 0 0 0 0 0 0 0 0 0 0 0 0 0 0 0 0 0 
0 0 0 0 0 0 0 0 0 0 0 0 0 0 0 0 0 0 0 0 0 0 0 0 0 0 0 2 0 0 121 0 0 224 0 0 259 0 0 237 0 0 247 0 0 245 0 0 222 0 0 263 0 0 235 0 0 234 0 0 230 0 0 244 0 0 247 0 0 224 0 0 243 0 0 247 0 0 245 0 0 285 0 0 253 0 0 248 0 0 238 0 0 257 0 0 265 0 0 221 0 0 233 0 0 253 0 0 230 0 0 232 0 0 246 0 0 255 0 0 226 0 0 267 0 0 259 0 0 234 0 0 242 0 0 256 0 0 243 0 0 234 0 0 225 0 0 229 0 0 121 0 0 6 0 0 0 0 0 0 0 0 0 0 0 0 0 0 0 0 0 0 0 0 0 0 0 0 0 0 
0 0 0 0 0 0 0 0 0 0 0 0 0 0 0 0 0 0 0 0 0 0 0 0 0 0 0 2 0 0 111 0 0 232 0 0 247 0 0 222 0 0 235 0 0 265 0 0 234 0 0 213 0 0 249 0 0 234 0 0 240 0 0 219 0 0 231 0 0 246 0 0 270 0 0 256 0 0 233 0 0 267 0 0 242 0 0 275 0 0 255 0 0 262 0 0 226 0 0 213 0 0 273 0 0 231 0 0 213 0 0 251 0 0 239 0 0 217 0 0 252 0 0 241 0 0 268 0 0 238 0 0 238 0 0 244 0 0 221 0 0 276 0 0 271 0 0 241 0 0 114 0 0 4 0 0 0 0 0 0 0 0 0 0 0 0 0 0 0 0 0 1 0 0 0 0 0 0 0 0 
0 0 0 0 0 0 0 0 0 0 0 0 0 0 0 0 0 0 0 0 0 0 0 0 0 0 0 2 0 0 123 0 0 253 0 0 235 0 0 262 0 0 248 0 0 276 0 0 258 0 0 254 0 0 229 0 0 253 0 0 239 0 0 273 0 0 242 0 0 231 0 0 237 0 0 226 0 0 231 0 0 243 0 0 256 0 0 251 0 0 246 0 0 261 0 0 260 0 0 222 0 0 249 0 0 213 0 0 229 0 0 210 0 0 256 0 0 252 0 0 246 0 0 226 0 0 250 0 0 244 0 0 235 0 0 249 0 0 231 0 0 261 0 0 240 0 0 245 0 0 127 0 0 2 0 0 0 0 0 0 0 0 0 0 0 0 0 0 0 0 0 0 0 0 0 0 0 0 0 0 
0 0 0 0 0 0 0 0 0 0 0 0 0 0 0 0 0 0 0 0 0 0 0 0 0 0 0 3 0 0 122 0 0 249 0 0 235 0 0 246 0 0 267 0 0 234 0 0 262 0 0 234 0 0 243 0 0 241 0 0 231 0 0 251 0 0 242 0 0 253 0 0 236 0 0 251 0 0 238 0 0 237 0 0 254 0 0 224 0 0 233 0 0 266 0 0 236 0 0 222 0 0 241 0 0 238 0 0 247 0 0 258 0 0 250 0 0 281 0 0 231 0 0 256 0 0 240 0 0 253 0 0 227 0 0 267 0 0 260 0 0 238 0 0 233 0 0 250 0 0 117 0 0 2 0 0 1 0 0 0 0 0 0 0 0 0 0 0 0 0 0 0 0 0 0 0 0 0 0 0 
0 0 0 0 0 0 0 0 0 0 0 0 0 0 0 0 0 0 0 0 0 0 0 0 0 0 0 1 0 0 131 0 0 247 0 0 227 0 0 257 0 0 248 0 0 231 0 0 231 0 0 260 0 0 228 0 0 251 0 0 241 0 0 246 0 0 232 0 0 276 0 0 238 0 0 228 0 0 255 0 0 251 0 0 251 0 0 237 0 0 226 0 0 245 0 0 239 0 0 238 0 0 246 0 0 235 0 0 217 0 0 249 0 0 251 0 0 247 0 0 237 0 0 228 0 0 245 0 0 236 0 0 271 0 0 236 0 0 244 0 0 215 0 0 261 0 0 232 0 0 154 0 0 1 0 0 0 0 0 2 0 0 0 0 0 0 0 0 0 0 0 0 0 0 0 0 0 0 0 0 
0 0 0 0 0 0 0 0 0 0 0 0 0 0 0 0 0 0 0 0 0 0 0 0 0 0 0 2 0 0 134 0 0 234 0 0 257 0 0 240 0 0 243 0 0 266 0 0 253 0 0 236 0 0 244 0 0 292 0 0 256 0 0 255 0 0 242 0 0 238 0 0 251 0 0 245 0 0 241 0 0 248 0 0 257 0 0 232 0 0 246 0 0 234 0 0 246 0 0 236 0 0 258 0 0 239 0 0 246 0 0 242 0 0 237 0 0 235 0 0 251 0 0 241 0 0 253 0 0 245 0 0 264 0 0 237 0 0 255 0 0 257 0 0 246 0 0 241 0 0 130 0 0 6 0 0 0 0 0 1 0 0 1 0 0 0 0 0 0 0 0 0 0 0 0 0 0 0 0 0 
0 0 0 0 0 0 0 0 0 0 0 0 0 0 0 0 0 0 0 0 0 0 0 0 0 0 0 2 0 0 130 0 0 225 0 0 232 0 0 251 0 0 259 0 0 232 0 0 245 0 0 267 0 0 258 0 0 260 0 0 245 0 0 231 0 0 240 0 0 233 0 0 224 0 0 250 0 0 256 0 0 229 0 0 231 0 0 208 0 0 226 0 0 246 0 0 241 0 0 235 0 0 260 0 0 248 0 0 254 0 0 245 0 0 255 0 0 246 0 0 259 0 0 235 0 0 222 0 0 263 0 0 244 0 0 237 0 0 242 0 0 250 0 0 266 0 0 260 0 0 113 0 0 3 0 0 0 0 0 0 0 0 0 0 0 0 0 0 0 0 0 0 0 0 0 0 0 0 0 0 
0 0 0 0 0 0 0 0 0 0 0 0 0 0 0 0 0 0 0 0 0 0 0 0 0 0 0 3 0 0 131 0 0 275 0 0 235 0 0 264 0 0 243 0 0 224 0 0 244 0 0 235 0 0 269 0 0 252 0 0 238 0 0 251 0 0 244 0 0 240 0 0 248 0 0 247 0 0 267 0 0 219 0 0 227 0 0 242 0 0 247 0 0 257 0 0 244 0 0 263 0 0 255 0 0 233 0 0 243 0 0 248 0 0 226 0 0 222 0 0 231 0 0 243 0 0 255 0 0 255 0 0 247 0 0 257 0 0 216 0 0 246 0 0 255 0 0 255 0 0 137 0 0 3 0 0 0 0 0 0 0 0 0 0 0 0 0 0 0 0 0 0 0 0 0 0 0 0 0 0 
0 0 0 0 0 0 0 0 0 0 0 0 0 0 0 0 0 0 0 0 0 0 0 0 0 0 0 0 0 0 105 0 0 247 0 0 251 0 0 249 0 0 239 0 0 229 0 0 236 0 0 263 0 0 244 0 0 250 0 0 254 0 0 239 0 0 233 0 0 237 0 0 242 0 0 243 0 0 247 0 0 238 0 0 231 0 0 265 0 0 254 0 0 241 0 0 229 0 0 256 0 0 216 0 0 228 0 0 238 0 0 243 0 0 230 0 0 241 0 0 232 0 0 231 0 0 236 0 0 243 0 0 230 0 0 253 0 0 240 0 0 227 0 0 265 0 0 255 0 0 123 0 0 1 0 0 0 0 0 0 0 0 0 0 0 0 0 0 0 0 0 0 0 0 0 0 0 0 0 0 
0 0 0 0 0 0 0 0 0 0 0 0 0 0 0 0 0 0 0 0 0 0 0 0 0 0 0 0 0 0 107 0 0 237 0 0 243 0 0 217 0 0 244 0 0 229 0 0 238 0 0 245 0 0 260 0 0 253 0 0 264 0 0 228 0 0 253 0 0 236 0 0 234 0 0 241 0 0 250 0 0 257 0 0 252 0 0 270 0 0 245 0 0 249 0 0 249 0 0 249 0 0 258 0 0 252 0 0 220 0 0 241 0 0 253 0 0 244 0 0 249 0 0 276 0 0 247 0 0 266 0 0 234 0 0 233 0 0 233 0 0 231 0 0 217 0 0 241 0 0 109 0 0 0 0 0 0 0 0 0 0 0 0 0 0 0 0 0 0 0 0 0 0 0 0 0 0 0 0 0 
0 0 0 0 0 0 0 0 0 0 0 0 0 0 0 0 0 0 0 0 0 0 0 0 1 0 0 0 0 0 109 0 0 220 0 0 247 0 0 234 0 0 237 0 0 240 0 0 238 0 0 233 0 0 218 0 0 245 0 0 244 0 0 238 0 0 229 0 0 266 0 0 246 0 0 264 0 0 252 0 0 246 0 0 259 0 0 239 0 0 256 0 0 236 0 0 246 0 0 241 0 0 238 0 0 245 0 0 236 0 0 239 0 0 258 0 0 247 0 0 250 0 0 261 0 0 246 0 0 244 0 0 230 0 0 262 0 0 244 0 0 233 0 0 240 0 0 246 0 0 116 0 0 2 0 0 0 0 0 0 0 0 0 0 0 0 0 0 0 0 0 0 0 0 0 0 0 0 0 0 
0 0 0 0 0 0 0 0 0 0 0 0 0 0 0 0 0 0 0 0 0 0 0 0 0 0 0 1 0 0 119 0 0 253 0 0 231 0 0 260 0 0 247 0 0 239 0 0 247 0 0 216 0 0 243 0 0 233 0 0 245 0 0 227 0 0 230 0 0 271 0 0 244 0 0 240 0 0 231 0 0 246 0 0 228 0 0 254 0 0 242 0 0 245 0 0 241 0 0 235 0 0 247 0 0 237 0 0 226 0 0 245 0 0 243 0 0 246 0 0 259 0 0 258 0 0 256 0 0 256 0 0 232 0 0 240 0 0 245 0 0 236 0 0 234 0 0 236 0 0 108 0 0 2 0 0 1 0 0 0 0 0 0 0 0 0 0 0 0 0 0 0 0 0 0 0 0 0 0 0 
0 0 0 0 0 0 0 0 0 0 0 0 0 0 0 0 0 0 0 0 0 0 0 0 0 0 0 0 0 0 53 0 0 106 0 0 108 0 0 128 0 0 134 0 0 138 0 0 127 0 0 130 0 0 111 0 0 125 0 0 119 0 0 130 0 0 133 0 0 132 0 0 115 0 0 104 0 0 123 0 0 122 0 0 121 0 0 110 0 0 124 0 0 117 0 0 108 0 0 118 0 0 130 0 0 134 0 0 132 0 0 126 0 0 115 0 0 123 0 0 122 0 0 133 0 0 117 0 0 126 0 0 132 0 0 125 0 0 128 0 0 130 0 0 134 0 0 114 0 0 52 0 0 2 0 0 0 0 0 0 0 0 0 0 0 0 0 0 0 0 0 0 0 0 0 0 0 0 0 0 
0 0 0 0 0 0 0 0 0 0 0 0 0 0 0 0 0 0 0 0 0 0 0 0 0 0 0 0 0 0 0 0 0 1 0 0 1 0 0 1 0 0 8 0 0 2 0 0 0 0 0 3 0 0 2 0 0 2 0 0 1 0 0 2 0 0 1 0 0 0 0 0 1 0 0 3 0 0 2 0 0 4 0 0 0 0 0 1 0 0 1 0 0 2 0 0 0 0 0 1 0 0 1 0 0 2 0 0 1 0 0 2 0 0 1 0 0 0 0 0 0 0 0 4 0 0 2 0 0 1 0 0 2 0 0 3 0 0 0 0 0 0 0 0 3 0 0 1 0 0 0 0 0 0 0 0 0 0 0 0 0 0 0 0 0 0 0 0 0 0 0 0 0 0 0 0 0 0 0 0 
0 0 0 0 0 0 0 0 0 0 0 0 0 0 0 0 0 0 0 0 0 0 0 0 0 0 0 0 0 0 0 0 0 0 0 0 0 0 0 0 0 0 2 0 0 0 0 0 0 0 0 0 0 0 1 0 0 0 0 0 0 0 0 0 0 0 0 0 0 0 0 0 0 0 0 0 0 0 0 0 0 0 0 0 0 0 0 0 0 0 0 0 0 1 0 0 1 0 0 0 0 0 0 0 0 1 0 0 0 0 0 1 0 0 0 0 0 0 0 0 0 0 0 0 0 0 0 0 0 0 0 0 0 0 0 0 0 0 0 0 0 0 0 0 0 0 0 0 0 0 0 0 0 0 0 0 0 0 0 0 0 0 0 0 0 0 0 0 0 0 0 0 0 0 0 0 0 0 0 0 
0 0 0 0 0 0 0 0 0 0 0 0 0 0 0 0 0 0 0 0 0 0 0 0 0 0 0 0 0 0 0 0 0 0 0 0 0 0 0 0 0 0 0 0 0 0 0 0 0 0 0 0 0 0 0 0 0 0 0 0 0 0 0 1 0 0 0 0 0 0 0 0 0 0 0 0 0 0 0 0 0 0 0 0 0 0 0 0 0 0 0 0 0 0 0 0 0 0 0 0 0 0 0 0 0 0 0 0 0 0 0 0 0 0 0 0 0 0 0 0 0 0 0 0 0 0 0 0 0 0 0 0 0 0 0 0 0 0 0 0 0 1 0 0 0 0 0 0 0 0 0 0 0 0 0 0 0 0 0 0 0 0 0 0 0 0 0 0 0 0 0 0 0 0 0 0 0 0 0 0 
0 0 0 0 0 0 0 0 0 0 0 0 0 0 0 0 0 0 0 0 0 0 0 0 0 0 0 0 0 0 0 0 0 1 0 0 0 0 0 0 0 0 0 0 0 0 0 0 0 0 0 0 0 0 0 0 0 0 0 0 0 0 0 0 0 0 0 0 0 0 0 0 0 0 0 0 0 0 0 0 0 0 0 0 0 0 0 0 0 0 0 0 0 0 0 0 0 0 0 0 0 0 0 0 0 0 0 0 0 0 0 0 0 0 0 0 0 0 0 0 0 0 0 0 0 0 0 0 0 0 0 0 0 0 0 0 0 0 0 0 0 0 0 0 0 0 0 0 0 0 0 0 0 0 0 0 0 0 0 0 0 0 0 0 0 0 0 0 0 0 0 0 0 0 0 0 0 0 0 0 
0 0 0 1 0 0 1 0 0 0 0 0 0 0 0 0 0 0 0 0 0 0 0 0 0 0 0 0 0 0 0 0 0 0 0 0 0 0 0 0 0 0 0 0 0 0 0 0 0 0 0 0 0 0 0 0 0 0 0 0 0 0 0 0 0 0 0 0 0 1 0 0 0 0 0 0 0 0 0 0 0 0 0 0 0 0 0 0 0 0 0 0 0 0 0 0 0 0 0 0 0 0 0 0 0 1 0 0 0 0 0 0 0 0 0 0 0 1 0 0 1 0 0 0 0 0 0 0 0 0 0 0 0 0 0 0 0 0 0 0 0 0 0 0 0 0 0 0 0 0 0 0 0 0 0 0 0 0 0 0 0 0 0 0 0 0 0 0 0 0 0 0 0 0 0 0 0 0 0 0 
0 0 0 0 0 0 0 0 0 0 0 0 0 0 0 0 0 0 0 0 0 0 0 0 0 0 0 0 0 0 0 0 0 0 0 0 0 0 0 0 0 0 0 0 0 0 0 0 0 0 0 0 0 0 0 0 0 1 0 0 0 0 0 0 0 0 0 0 0 0 0 0 0 0 0 0 0 0 0 0 0 0 0 0 0 0 0 0 0 0 0 0 0 0 0 0 0 0 0 0 0 0 2 0 0 1 0 0 0 0 0 0 0 0 0 0 0 0 0 0 0 0 0 0 0 0 0 0 0 0 0 0 0 0 0 0 0 0 0 0 0 0 0 0 0 0 0 0 0 0 0 0 0 0 0 0 0 0 0 0 0 0 0 0 0 0 0 0 0 0 0 0 0 0 0 0 0 0 0 0 
0 0 0 0 0 0 0 0 0 0 0 0 0 0 0 0 0 0 0 0 0 0 0 0 0 0 0 0 0 0 0 0 0 0 0 0 0 0 0 0 0 0 0 0 0 0 0 0 0 0 0 0 0 0 0 0 0 0 0 0 0 0 0 0 0 0 0 0 0 0 0 0 0 0 0 0 0 0 0 0 0 0 0 0 0 0 0 0 0 0 0 0 0 0 0 0 0 0 0 1 0 0 0 0 0 0 0 0 0 0 0 0 0 0 0 0 0 0 0 0 0 0 0 0 0 0 0 0 0 0 0 0 0 0 0 0 0 0 0 0 0 0 0 0 0 0 0 0 0 0 0 0 0 0 0 0 0 0 0 0 0 0 0 0 0 0 0 0 0 0 0 0 0 0 0 0 0 0 0 0 
0 0 0 0 0 0 0 0 0 0 0 0 0 0 0 0 0 0 0 0 0 0 0 0 0 0 0 0 0 0 0 0 0 0 0 0 0 0 0 0 0 0 0 0 0 0 0 0 0 0 0 0 0 0 0 0 0 0 0 0 0 0 0 0 0 0 0 0 0 0 0 0 0 0 0 0 0 0 0 0 0 0 0 0 0 0 0 0 0 0 0 0 0 1 0 0 0 0 0 0 0 0 0 0 0 0 0 0 0 0 0 0 0 0 0 0 0 0 0 0 0 0 0 0 0 0 1 0 0 0 0 0 0 0 0 0 0 0 0 0 0 0 0 0 0 0 0 0 0 0 0 0 0 0 0 0 0 0 0 0 0 0 0 0 0 0 0 0 0 0 0 0 0 0 0 0 0 0 0 0 
0 0 0 0 0 0 0 0 0 1 0 0 0 0 0 0 0 0 0 0 0 0 0 0 0 0 0 0 0 0 0 0 0 0 0 0 0 0 0 0 0 0 0 0 0 0 0 0 0 0 0 0 0 0 0 0 0 0 0 0 0 0 0 0 0 0 0 0 0 0 0 0 0 0 0 0 0 0 0 0 0 0 0 0 0 0 0 0 0 0 0 0 0 0 0 0 0 0 0 0 0 0 0 0 0 0 0 0 0 0 0 0 0 0 0 0 0 0 0 0 0 0 0 0 0 0 0 0 0 0 0 0 0 0 0 0 0 0 0 0 0 0 0 0 0 0 0 0 0 0 0 0 0 0 0 0 0 0 0 0 0 0 0 0 0 0 0 0 0 0 0 0 0 0 0 0 0 0 0 0 
