P3
# This is a dose file slice at depth 41 of 100
60 60
# now we give the maximum value of the RGB coordinates.
1602
0 0 0 0 0 0 0 0 0 0 0 0 0 0 0 0 0 0 0 0 0 0 0 0 0 0 0 0 0 0 0 0 0 0 0 0 0 0 0 0 0 0 0 0 0 0 0 0 0 0 0 0 0 0 0 0 0 0 0 0 0 0 0 0 0 0 0 0 0 0 0 0 0 0 0 1 0 0 0 0 0 0 0 0 0 0 0 0 0 0 0 0 0 0 0 0 0 0 0 0 0 0 0 0 0 0 0 0 0 0 0 0 0 0 0 0 0 0 0 0 0 0 0 0 0 0 0 0 0 0 0 0 0 0 0 0 0 0 0 0 0 0 0 0 0 0 0 0 0 0 0 0 0 0 0 0 0 0 0 0 0 0 0 0 0 0 0 0 0 0 0 0 0 0 0 0 0 0 0 0 
0 0 0 0 0 0 0 0 0 0 0 0 0 0 0 0 0 0 0 0 0 0 0 0 0 0 0 0 0 0 0 0 0 0 0 0 0 0 0 0 0 0 0 0 0 0 0 0 0 0 0 0 0 0 1 0 0 1 0 0 0 0 0 0 0 0 0 0 0 0 0 0 0 0 0 0 0 0 0 0 0 0 0 0 0 0 0 0 0 0 0 0 0 0 0 0 0 0 0 0 0 0 0 0 0 0 0 0 0 0 0 0 0 0 0 0 0 0 0 0 0 0 0 0 0 0 0 0 0 0 0 0 0 0 0 0 0 0 0 0 0 0 0 0 0 0 0 0 0 0 1 0 0 0 0 0 0 0 0 0 0 0 0 0 0 0 0 0 1 0 0 0 0 0 0 0 0 0 0 0 
0 0 0 0 0 0 0 0 0 0 0 0 0 0 0 0 0 0 0 0 0 0 0 0 0 0 0 0 0 0 0 0 0 0 0 0 1 0 0 0 0 0 0 0 0 0 0 0 0 0 0 0 0 0 0 0 0 1 0 0 0 0 0 0 0 0 0 0 0 0 0 0 0 0 0 0 0 0 0 0 0 0 0 0 0 0 0 1 0 0 0 0 0 0 0 0 1 0 0 0 0 0 0 0 0 1 0 0 0 0 0 0 0 0 0 0 0 0 0 0 0 0 0 0 0 0 0 0 0 0 0 0 0 0 0 0 0 0 0 0 0 0 0 0 0 0 0 0 0 0 0 0 0 0 0 0 0 0 0 0 0 0 0 0 0 0 0 0 0 0 0 0 0 0 0 0 0 0 0 0 
0 0 0 0 0 0 0 0 0 0 0 0 0 0 0 0 0 0 0 0 0 0 0 0 0 0 0 1 0 0 0 0 0 0 0 0 0 0 0 0 0 0 0 0 0 0 0 0 0 0 0 0 0 0 0 0 0 0 0 0 0 0 0 0 0 0 0 0 0 0 0 0 0 0 0 0 0 0 0 0 0 0 0 0 0 0 0 0 0 0 1 0 0 0 0 0 0 0 0 0 0 0 0 0 0 1 0 0 0 0 0 0 0 0 0 0 0 0 0 0 0 0 0 0 0 0 0 0 0 0 0 0 0 0 0 0 0 0 0 0 0 0 0 0 0 0 0 0 0 0 0 0 0 0 0 0 0 0 0 0 0 0 0 0 0 0 0 0 0 0 0 1 0 0 0 0 0 0 0 0 
0 0 0 0 0 0 0 0 0 0 0 0 0 0 0 0 0 0 0 0 0 0 0 0 0 0 0 0 0 0 2 0 0 0 0 0 0 0 0 0 0 0 0 0 0 1 0 0 1 0 0 0 0 0 0 0 0 0 0 0 2 0 0 0 0 0 0 0 0 0 0 0 0 0 0 0 0 0 0 0 0 1 0 0 1 0 0 0 0 0 2 0 0 0 0 0 0 0 0 0 0 0 0 0 0 0 0 0 0 0 0 0 0 0 0 0 0 0 0 0 0 0 0 0 0 0 0 0 0 0 0 0 0 0 0 0 0 0 1 0 0 0 0 0 0 0 0 0 0 0 0 0 0 0 0 0 0 0 0 0 0 0 0 0 0 0 0 0 1 0 0 0 0 0 0 0 0 0 0 0 
0 0 0 0 0 0 0 0 0 0 0 0 0 0 0 0 0 0 0 0 0 0 0 0 0 0 0 1 0 0 0 0 0 0 0 0 0 0 0 0 0 0 0 0 0 0 0 0 0 0 0 0 0 0 0 0 0 0 0 0 0 0 0 0 0 0 0 0 0 2 0 0 0 0 0 0 0 0 1 0 0 0 0 0 0 0 0 0 0 0 0 0 0 1 0 0 0 0 0 0 0 0 0 0 0 0 0 0 0 0 0 0 0 0 0 0 0 2 0 0 1 0 0 0 0 0 0 0 0 0 0 0 0 0 0 1 0 0 0 0 0 0 0 0 0 0 0 0 0 0 0 0 0 0 0 0 0 0 0 0 0 0 0 0 0 0 0 0 0 0 0 0 0 0 0 0 0 2 0 0 
0 0 0 0 0 0 0 0 0 0 0 0 0 0 0 0 0 0 0 0 0 0 0 0 0 0 0 0 0 0 0 0 0 0 0 0 0 0 0 0 0 0 0 0 0 0 0 0 0 0 0 0 0 0 0 0 0 0 0 0 0 0 0 0 0 0 0 0 0 1 0 0 1 0 0 0 0 0 1 0 0 0 0 0 0 0 0 1 0 0 0 0 0 1 0 0 0 0 0 0 0 0 0 0 0 0 0 0 0 0 0 0 0 0 1 0 0 1 0 0 2 0 0 0 0 0 0 0 0 1 0 0 1 0 0 0 0 0 0 0 0 0 0 0 0 0 0 0 0 0 0 0 0 0 0 0 0 0 0 1 0 0 0 0 0 0 0 0 0 0 0 0 0 0 1 0 0 0 0 0 
0 0 0 0 0 0 0 0 0 0 0 0 0 0 0 0 0 0 0 0 0 0 0 0 0 0 0 0 0 0 0 0 0 0 0 0 0 0 0 0 0 0 0 0 0 0 0 0 0 0 0 0 0 0 0 0 0 1 0 0 1 0 0 0 0 0 0 0 0 0 0 0 1 0 0 1 0 0 1 0 0 1 0 0 0 0 0 1 0 0 0 0 0 0 0 0 1 0 0 0 0 0 0 0 0 1 0 0 0 0 0 0 0 0 0 0 0 0 0 0 1 0 0 0 0 0 0 0 0 0 0 0 0 0 0 0 0 0 0 0 0 0 0 0 0 0 0 0 0 0 0 0 0 0 0 0 0 0 0 1 0 0 0 0 0 0 0 0 0 0 0 0 0 0 0 0 0 0 0 0 
0 0 0 0 0 0 2 0 0 0 0 0 0 0 0 0 0 0 0 0 0 0 0 0 0 0 0 1 0 0 0 0 0 0 0 0 0 0 0 1 0 0 0 0 0 0 0 0 0 0 0 2 0 0 0 0 0 1 0 0 0 0 0 0 0 0 0 0 0 0 0 0 2 0 0 1 0 0 1 0 0 1 0 0 1 0 0 2 0 0 1 0 0 0 0 0 1 0 0 2 0 0 0 0 0 0 0 0 0 0 0 1 0 0 0 0 0 1 0 0 0 0 0 2 0 0 0 0 0 0 0 0 0 0 0 0 0 0 0 0 0 0 0 0 0 0 0 0 0 0 0 0 0 0 0 0 0 0 0 0 0 0 0 0 0 0 0 0 0 0 0 0 0 0 0 0 0 0 0 0 
0 0 0 0 0 0 0 0 0 1 0 0 0 0 0 0 0 0 0 0 0 0 0 0 0 0 0 0 0 0 0 0 0 2 0 0 4 0 0 3 0 0 5 0 0 3 0 0 8 0 0 4 0 0 6 0 0 8 0 0 2 0 0 4 0 0 3 0 0 4 0 0 8 0 0 3 0 0 5 0 0 12 0 0 2 0 0 3 0 0 8 0 0 1 0 0 4 0 0 10 0 0 6 0 0 4 0 0 2 0 0 5 0 0 4 0 0 6 0 0 2 0 0 5 0 0 3 0 0 1 0 0 4 0 0 2 0 0 3 0 0 0 0 0 1 0 0 1 0 0 3 0 0 0 0 0 1 0 0 0 0 0 0 0 0 0 0 0 0 0 0 0 0 0 0 0 0 0 0 0 
0 0 0 0 0 0 0 0 0 1 0 0 0 0 0 0 0 0 0 0 0 0 0 0 0 0 0 3 0 0 150 0 0 322 0 0 281 0 0 294 0 0 300 0 0 294 0 0 283 0 0 315 0 0 298 0 0 310 0 0 293 0 0 309 0 0 300 0 0 292 0 0 316 0 0 288 0 0 315 0 0 311 0 0 317 0 0 294 0 0 321 0 0 310 0 0 292 0 0 298 0 0 331 0 0 315 0 0 325 0 0 300 0 0 302 0 0 330 0 0 290 0 0 323 0 0 299 0 0 313 0 0 311 0 0 260 0 0 290 0 0 289 0 0 288 0 0 292 0 0 145 0 0 3 0 0 0 0 0 0 0 0 0 0 0 0 0 0 0 0 0 0 0 0 0 0 0 0 0 0 
0 0 0 0 0 0 0 0 0 0 0 0 0 0 0 0 0 0 1 0 0 0 0 0 2 0 0 4 0 0 291 0 0 595 0 0 590 0 0 558 0 0 584 0 0 588 0 0 565 0 0 596 0 0 599 0 0 549 0 0 566 0 0 615 0 0 642 0 0 606 0 0 563 0 0 591 0 0 615 0 0 581 0 0 620 0 0 587 0 0 574 0 0 585 0 0 567 0 0 625 0 0 591 0 0 671 0 0 615 0 0 629 0 0 613 0 0 639 0 0 572 0 0 617 0 0 565 0 0 603 0 0 616 0 0 585 0 0 605 0 0 622 0 0 576 0 0 618 0 0 314 0 0 2 0 0 0 0 0 1 0 0 0 0 0 0 0 0 0 0 0 0 0 0 0 0 0 0 0 0 
0 0 0 0 0 0 0 0 0 0 0 0 0 0 0 0 0 0 0 0 0 0 0 0 1 0 0 7 0 0 339 0 0 626 0 0 607 0 0 589 0 0 573 0 0 632 0 0 577 0 0 588 0 0 647 0 0 588 0 0 604 0 0 593 0 0 613 0 0 610 0 0 596 0 0 589 0 0 596 0 0 588 0 0 590 0 0 575 0 0 579 0 0 618 0 0 561 0 0 607 0 0 611 0 0 618 0 0 610 0 0 618 0 0 621 0 0 561 0 0 601 0 0 602 0 0 602 0 0 597 0 0 602 0 0 613 0 0 621 0 0 589 0 0 648 0 0 608 0 0 295 0 0 10 0 0 2 0 0 1 0 0 1 0 0 0 0 0 0 0 0 0 0 0 0 0 0 0 0 0 
0 0 0 0 0 0 0 0 0 0 0 0 0 0 0 0 0 0 0 0 0 1 0 0 3 0 0 3 0 0 296 0 0 614 0 0 573 0 0 555 0 0 632 0 0 661 0 0 598 0 0 606 0 0 619 0 0 575 0 0 596 0 0 602 0 0 595 0 0 591 0 0 642 0 0 623 0 0 654 0 0 608 0 0 638 0 0 587 0 0 621 0 0 565 0 0 658 0 0 620 0 0 589 0 0 588 0 0 627 0 0 590 0 0 636 0 0 583 0 0 608 0 0 608 0 0 610 0 0 606 0 0 619 0 0 643 0 0 566 0 0 590 0 0 584 0 0 586 0 0 296 0 0 7 0 0 0 0 0 2 0 0 0 0 0 0 0 0 0 0 0 0 0 0 0 0 0 0 0 0 
0 0 0 0 0 0 0 0 0 0 0 0 0 0 0 0 0 0 0 0 0 1 0 0 0 0 0 6 0 0 309 0 0 610 0 0 580 0 0 634 0 0 611 0 0 644 0 0 614 0 0 598 0 0 590 0 0 589 0 0 583 0 0 609 0 0 612 0 0 602 0 0 574 0 0 585 0 0 632 0 0 547 0 0 620 0 0 571 0 0 592 0 0 590 0 0 621 0 0 594 0 0 622 0 0 608 0 0 625 0 0 598 0 0 646 0 0 591 0 0 607 0 0 639 0 0 612 0 0 575 0 0 609 0 0 623 0 0 539 0 0 620 0 0 561 0 0 584 0 0 307 0 0 3 0 0 1 0 0 0 0 0 0 0 0 0 0 0 0 0 0 0 0 0 0 0 0 0 0 0 
0 0 0 0 0 0 0 0 0 0 0 0 0 0 0 0 0 0 0 0 0 0 0 0 1 0 0 4 0 0 292 0 0 624 0 0 594 0 0 604 0 0 602 0 0 618 0 0 570 0 0 608 0 0 604 0 0 630 0 0 614 0 0 596 0 0 592 0 0 593 0 0 592 0 0 586 0 0 570 0 0 633 0 0 580 0 0 601 0 0 589 0 0 575 0 0 609 0 0 607 0 0 599 0 0 611 0 0 639 0 0 606 0 0 605 0 0 599 0 0 605 0 0 604 0 0 586 0 0 577 0 0 576 0 0 612 0 0 616 0 0 621 0 0 618 0 0 617 0 0 291 0 0 5 0 0 0 0 0 0 0 0 0 0 0 0 0 0 1 0 0 0 0 0 0 0 0 0 0 0 
0 0 0 0 0 0 0 0 0 0 0 0 0 0 0 0 0 0 0 0 0 0 0 0 0 0 0 1 0 0 302 0 0 581 0 0 531 0 0 596 0 0 638 0 0 575 0 0 588 0 0 596 0 0 622 0 0 607 0 0 633 0 0 655 0 0 592 0 0 625 0 0 642 0 0 611 0 0 595 0 0 629 0 0 604 0 0 586 0 0 556 0 0 578 0 0 607 0 0 585 0 0 612 0 0 627 0 0 638 0 0 583 0 0 586 0 0 592 0 0 602 0 0 615 0 0 641 0 0 605 0 0 603 0 0 606 0 0 617 0 0 615 0 0 575 0 0 604 0 0 311 0 0 6 0 0 0 0 0 0 0 0 0 0 0 0 0 0 0 0 0 0 0 0 0 0 0 1 0 0 
0 0 0 0 0 0 0 0 0 1 0 0 0 0 0 0 0 0 0 0 0 1 0 0 2 0 0 3 0 0 300 0 0 595 0 0 623 0 0 585 0 0 594 0 0 641 0 0 615 0 0 612 0 0 591 0 0 586 0 0 588 0 0 589 0 0 573 0 0 613 0 0 572 0 0 630 0 0 580 0 0 589 0 0 585 0 0 627 0 0 636 0 0 588 0 0 563 0 0 615 0 0 606 0 0 631 0 0 632 0 0 604 0 0 627 0 0 595 0 0 597 0 0 632 0 0 613 0 0 581 0 0 634 0 0 576 0 0 597 0 0 630 0 0 606 0 0 609 0 0 337 0 0 11 0 0 0 0 0 0 0 0 0 0 0 0 0 0 0 0 0 0 0 0 0 0 0 0 0 0 
0 0 0 0 0 0 0 0 0 0 0 0 0 0 0 0 0 0 0 0 0 0 0 0 2 0 0 3 0 0 294 0 0 569 0 0 594 0 0 592 0 0 579 0 0 581 0 0 589 0 0 614 0 0 583 0 0 589 0 0 582 0 0 570 0 0 583 0 0 618 0 0 613 0 0 630 0 0 654 0 0 590 0 0 569 0 0 613 0 0 641 0 0 624 0 0 648 0 0 618 0 0 571 0 0 574 0 0 628 0 0 622 0 0 640 0 0 624 0 0 632 0 0 588 0 0 622 0 0 579 0 0 586 0 0 615 0 0 620 0 0 608 0 0 618 0 0 583 0 0 325 0 0 4 0 0 0 0 0 0 0 0 0 0 0 0 0 0 0 0 0 0 0 0 0 0 0 0 0 0 
0 0 0 0 0 0 0 0 0 0 0 0 0 0 0 0 0 0 0 0 0 0 0 0 0 0 0 6 0 0 290 0 0 576 0 0 593 0 0 616 0 0 592 0 0 582 0 0 622 0 0 648 0 0 621 0 0 564 0 0 588 0 0 599 0 0 601 0 0 636 0 0 610 0 0 627 0 0 629 0 0 639 0 0 579 0 0 637 0 0 593 0 0 616 0 0 593 0 0 593 0 0 583 0 0 620 0 0 611 0 0 564 0 0 639 0 0 570 0 0 599 0 0 621 0 0 588 0 0 590 0 0 592 0 0 600 0 0 623 0 0 610 0 0 609 0 0 620 0 0 314 0 0 5 0 0 0 0 0 1 0 0 0 0 0 0 0 0 0 0 0 0 0 0 0 0 0 0 0 0 
0 0 0 0 0 0 0 0 0 0 0 0 0 0 0 1 0 0 0 0 0 0 0 0 0 0 0 2 0 0 297 0 0 580 0 0 601 0 0 658 0 0 600 0 0 574 0 0 620 0 0 626 0 0 582 0 0 577 0 0 595 0 0 606 0 0 595 0 0 599 0 0 593 0 0 599 0 0 571 0 0 587 0 0 624 0 0 634 0 0 642 0 0 605 0 0 594 0 0 617 0 0 581 0 0 626 0 0 578 0 0 592 0 0 584 0 0 593 0 0 604 0 0 602 0 0 602 0 0 585 0 0 586 0 0 607 0 0 622 0 0 556 0 0 588 0 0 643 0 0 324 0 0 4 0 0 0 0 0 0 0 0 0 0 0 0 0 0 0 0 0 0 0 0 0 0 0 1 0 0 
0 0 0 0 0 0 0 0 0 0 0 0 1 0 0 0 0 0 0 0 0 0 0 0 1 0 0 8 0 0 313 0 0 585 0 0 588 0 0 629 0 0 621 0 0 625 0 0 568 0 0 614 0 0 575 0 0 598 0 0 592 0 0 590 0 0 590 0 0 613 0 0 622 0 0 600 0 0 602 0 0 598 0 0 609 0 0 588 0 0 625 0 0 655 0 0 618 0 0 604 0 0 618 0 0 622 0 0 610 0 0 644 0 0 599 0 0 567 0 0 587 0 0 603 0 0 591 0 0 565 0 0 579 0 0 580 0 0 628 0 0 572 0 0 591 0 0 613 0 0 302 0 0 6 0 0 0 0 0 0 0 0 0 0 0 0 0 0 0 0 0 0 0 0 0 0 0 0 0 0 
0 0 0 0 0 0 0 0 0 0 0 0 0 0 0 0 0 0 0 0 0 1 0 0 0 0 0 3 0 0 301 0 0 629 0 0 567 0 0 610 0 0 603 0 0 578 0 0 596 0 0 606 0 0 586 0 0 619 0 0 583 0 0 607 0 0 607 0 0 637 0 0 617 0 0 585 0 0 602 0 0 598 0 0 612 0 0 567 0 0 626 0 0 618 0 0 628 0 0 601 0 0 621 0 0 591 0 0 614 0 0 590 0 0 587 0 0 646 0 0 609 0 0 595 0 0 607 0 0 570 0 0 572 0 0 638 0 0 607 0 0 611 0 0 584 0 0 603 0 0 290 0 0 5 0 0 1 0 0 0 0 0 0 0 0 0 0 0 0 0 0 0 0 0 0 0 0 0 0 0 
0 0 0 0 0 0 0 0 0 0 0 0 1 0 0 0 0 0 0 0 0 1 0 0 0 0 0 3 0 0 339 0 0 623 0 0 602 0 0 619 0 0 632 0 0 658 0 0 643 0 0 600 0 0 561 0 0 634 0 0 576 0 0 646 0 0 568 0 0 604 0 0 616 0 0 616 0 0 589 0 0 604 0 0 613 0 0 601 0 0 643 0 0 611 0 0 592 0 0 563 0 0 621 0 0 589 0 0 620 0 0 607 0 0 610 0 0 599 0 0 572 0 0 599 0 0 591 0 0 621 0 0 602 0 0 623 0 0 602 0 0 639 0 0 597 0 0 621 0 0 305 0 0 8 0 0 2 0 0 0 0 0 0 0 0 2 0 0 0 0 0 0 0 0 0 0 0 0 0 0 
0 0 0 0 0 0 0 0 0 0 0 0 0 0 0 0 0 0 0 0 0 0 0 0 0 0 0 4 0 0 324 0 0 587 0 0 593 0 0 611 0 0 604 0 0 622 0 0 595 0 0 624 0 0 568 0 0 603 0 0 636 0 0 592 0 0 584 0 0 595 0 0 629 0 0 557 0 0 604 0 0 599 0 0 586 0 0 604 0 0 605 0 0 596 0 0 645 0 0 629 0 0 622 0 0 587 0 0 580 0 0 591 0 0 624 0 0 593 0 0 616 0 0 611 0 0 624 0 0 607 0 0 598 0 0 598 0 0 589 0 0 621 0 0 589 0 0 599 0 0 295 0 0 4 0 0 3 0 0 3 0 0 0 0 0 0 0 0 0 0 0 0 0 0 0 0 0 0 0 0 
0 0 0 0 0 0 0 0 0 0 0 0 0 0 0 0 0 0 0 0 0 0 0 0 0 0 0 4 0 0 310 0 0 625 0 0 632 0 0 585 0 0 597 0 0 613 0 0 641 0 0 637 0 0 578 0 0 581 0 0 613 0 0 622 0 0 589 0 0 585 0 0 614 0 0 585 0 0 576 0 0 615 0 0 585 0 0 635 0 0 626 0 0 644 0 0 590 0 0 575 0 0 606 0 0 569 0 0 597 0 0 593 0 0 597 0 0 598 0 0 609 0 0 591 0 0 610 0 0 643 0 0 599 0 0 596 0 0 610 0 0 642 0 0 586 0 0 575 0 0 290 0 0 5 0 0 0 0 0 0 0 0 0 0 0 0 0 0 0 0 0 0 0 0 0 0 0 0 0 0 
0 0 0 0 0 0 0 0 0 1 0 0 0 0 0 2 0 0 0 0 0 0 0 0 0 0 0 6 0 0 300 0 0 589 0 0 632 0 0 643 0 0 610 0 0 598 0 0 585 0 0 593 0 0 601 0 0 644 0 0 622 0 0 638 0 0 581 0 0 633 0 0 608 0 0 575 0 0 608 0 0 615 0 0 628 0 0 583 0 0 601 0 0 602 0 0 580 0 0 595 0 0 584 0 0 633 0 0 593 0 0 581 0 0 607 0 0 634 0 0 619 0 0 616 0 0 596 0 0 655 0 0 586 0 0 597 0 0 616 0 0 609 0 0 607 0 0 589 0 0 287 0 0 6 0 0 1 0 0 0 0 0 0 0 0 0 0 0 0 0 0 0 0 0 0 0 0 0 0 0 
0 0 0 0 0 0 0 0 0 0 0 0 0 0 0 0 0 0 0 0 0 0 0 0 0 0 0 5 0 0 280 0 0 584 0 0 616 0 0 610 0 0 611 0 0 614 0 0 598 0 0 607 0 0 611 0 0 589 0 0 633 0 0 588 0 0 604 0 0 598 0 0 616 0 0 591 0 0 618 0 0 604 0 0 614 0 0 602 0 0 620 0 0 608 0 0 609 0 0 628 0 0 610 0 0 603 0 0 562 0 0 614 0 0 600 0 0 571 0 0 586 0 0 572 0 0 616 0 0 605 0 0 623 0 0 633 0 0 586 0 0 605 0 0 593 0 0 578 0 0 328 0 0 5 0 0 0 0 0 0 0 0 1 0 0 0 0 0 0 0 0 0 0 0 0 0 0 0 0 0 
0 0 0 0 0 0 0 0 0 0 0 0 0 0 0 0 0 0 0 0 0 1 0 0 0 0 0 5 0 0 270 0 0 596 0 0 594 0 0 565 0 0 578 0 0 612 0 0 596 0 0 615 0 0 595 0 0 614 0 0 611 0 0 579 0 0 596 0 0 561 0 0 585 0 0 632 0 0 583 0 0 628 0 0 603 0 0 620 0 0 620 0 0 575 0 0 624 0 0 618 0 0 609 0 0 619 0 0 628 0 0 640 0 0 604 0 0 581 0 0 614 0 0 615 0 0 568 0 0 619 0 0 583 0 0 632 0 0 598 0 0 610 0 0 638 0 0 578 0 0 285 0 0 6 0 0 0 0 0 0 0 0 0 0 0 0 0 0 0 0 0 0 0 0 0 0 0 1 0 0 
0 0 0 0 0 0 0 0 0 1 0 0 1 0 0 0 0 0 0 0 0 0 0 0 2 0 0 3 0 0 291 0 0 586 0 0 551 0 0 610 0 0 603 0 0 593 0 0 603 0 0 616 0 0 603 0 0 572 0 0 619 0 0 594 0 0 589 0 0 602 0 0 619 0 0 594 0 0 625 0 0 595 0 0 616 0 0 604 0 0 621 0 0 570 0 0 626 0 0 650 0 0 575 0 0 612 0 0 573 0 0 591 0 0 593 0 0 606 0 0 580 0 0 628 0 0 614 0 0 589 0 0 604 0 0 635 0 0 591 0 0 621 0 0 654 0 0 572 0 0 316 0 0 2 0 0 0 0 0 0 0 0 0 0 0 0 0 0 0 0 0 0 0 0 0 0 0 0 0 0 
0 0 0 0 0 0 0 0 0 0 0 0 0 0 0 0 0 0 0 0 0 0 0 0 0 0 0 7 0 0 334 0 0 583 0 0 619 0 0 619 0 0 602 0 0 578 0 0 662 0 0 611 0 0 616 0 0 609 0 0 592 0 0 595 0 0 627 0 0 639 0 0 638 0 0 617 0 0 581 0 0 607 0 0 613 0 0 595 0 0 557 0 0 600 0 0 624 0 0 572 0 0 602 0 0 623 0 0 577 0 0 552 0 0 627 0 0 597 0 0 602 0 0 585 0 0 614 0 0 601 0 0 608 0 0 591 0 0 568 0 0 579 0 0 600 0 0 647 0 0 297 0 0 4 0 0 0 0 0 1 0 0 1 0 0 0 0 0 0 0 0 0 0 0 0 0 0 0 0 0 
0 0 0 0 0 0 0 0 0 0 0 0 1 0 0 0 0 0 0 0 0 0 0 0 0 0 0 5 0 0 304 0 0 582 0 0 622 0 0 589 0 0 619 0 0 604 0 0 590 0 0 611 0 0 613 0 0 587 0 0 597 0 0 625 0 0 634 0 0 619 0 0 602 0 0 600 0 0 574 0 0 616 0 0 586 0 0 614 0 0 630 0 0 601 0 0 587 0 0 602 0 0 595 0 0 629 0 0 610 0 0 602 0 0 610 0 0 618 0 0 629 0 0 617 0 0 589 0 0 588 0 0 638 0 0 592 0 0 585 0 0 651 0 0 632 0 0 555 0 0 310 0 0 2 0 0 0 0 0 1 0 0 0 0 0 0 0 0 0 0 0 0 0 0 1 0 0 0 0 0 
0 0 0 0 0 0 0 0 0 0 0 0 1 0 0 1 0 0 0 0 0 1 0 0 1 0 0 7 0 0 291 0 0 630 0 0 589 0 0 603 0 0 617 0 0 579 0 0 597 0 0 607 0 0 620 0 0 598 0 0 585 0 0 626 0 0 578 0 0 609 0 0 610 0 0 615 0 0 629 0 0 605 0 0 647 0 0 625 0 0 613 0 0 590 0 0 607 0 0 640 0 0 616 0 0 555 0 0 563 0 0 586 0 0 576 0 0 586 0 0 629 0 0 654 0 0 617 0 0 618 0 0 561 0 0 679 0 0 621 0 0 589 0 0 612 0 0 619 0 0 311 0 0 1 0 0 1 0 0 0 0 0 0 0 0 1 0 0 0 0 0 1 0 0 0 0 0 0 0 0 
0 0 0 0 0 0 1 0 0 1 0 0 0 0 0 1 0 0 2 0 0 0 0 0 1 0 0 3 0 0 325 0 0 591 0 0 594 0 0 604 0 0 595 0 0 621 0 0 631 0 0 598 0 0 586 0 0 613 0 0 606 0 0 612 0 0 599 0 0 600 0 0 632 0 0 645 0 0 626 0 0 627 0 0 629 0 0 569 0 0 584 0 0 615 0 0 628 0 0 577 0 0 573 0 0 605 0 0 600 0 0 575 0 0 600 0 0 584 0 0 628 0 0 634 0 0 594 0 0 578 0 0 583 0 0 608 0 0 554 0 0 634 0 0 582 0 0 607 0 0 338 0 0 4 0 0 2 0 0 1 0 0 0 0 0 0 0 0 0 0 0 0 0 0 0 0 0 0 0 0 
0 0 0 0 0 0 0 0 0 0 0 0 1 0 0 0 0 0 0 0 0 1 0 0 0 0 0 7 0 0 280 0 0 598 0 0 628 0 0 610 0 0 636 0 0 617 0 0 569 0 0 592 0 0 556 0 0 593 0 0 595 0 0 613 0 0 587 0 0 597 0 0 576 0 0 611 0 0 608 0 0 619 0 0 622 0 0 591 0 0 602 0 0 616 0 0 557 0 0 632 0 0 625 0 0 596 0 0 577 0 0 592 0 0 600 0 0 615 0 0 628 0 0 583 0 0 638 0 0 665 0 0 594 0 0 607 0 0 578 0 0 642 0 0 585 0 0 598 0 0 302 0 0 8 0 0 1 0 0 1 0 0 0 0 0 0 0 0 0 0 0 0 0 0 2 0 0 2 0 0 
0 0 0 1 0 0 1 0 0 1 0 0 0 0 0 0 0 0 0 0 0 0 0 0 1 0 0 4 0 0 288 0 0 579 0 0 615 0 0 589 0 0 647 0 0 647 0 0 610 0 0 623 0 0 634 0 0 593 0 0 611 0 0 593 0 0 593 0 0 635 0 0 658 0 0 600 0 0 578 0 0 630 0 0 610 0 0 642 0 0 623 0 0 612 0 0 617 0 0 620 0 0 593 0 0 605 0 0 621 0 0 628 0 0 583 0 0 570 0 0 602 0 0 608 0 0 608 0 0 650 0 0 634 0 0 586 0 0 594 0 0 580 0 0 601 0 0 604 0 0 318 0 0 2 0 0 0 0 0 0 0 0 0 0 0 0 0 0 0 0 0 0 0 0 0 0 0 0 0 0 
0 0 0 0 0 0 1 0 0 0 0 0 1 0 0 2 0 0 1 0 0 0 0 0 0 0 0 2 0 0 324 0 0 624 0 0 625 0 0 609 0 0 624 0 0 591 0 0 585 0 0 605 0 0 632 0 0 604 0 0 593 0 0 582 0 0 629 0 0 621 0 0 609 0 0 570 0 0 598 0 0 652 0 0 602 0 0 580 0 0 576 0 0 619 0 0 648 0 0 599 0 0 590 0 0 608 0 0 606 0 0 608 0 0 587 0 0 597 0 0 579 0 0 612 0 0 577 0 0 667 0 0 591 0 0 616 0 0 604 0 0 625 0 0 620 0 0 583 0 0 290 0 0 7 0 0 1 0 0 0 0 0 0 0 0 0 0 0 0 0 0 0 0 0 0 0 0 0 0 0 
0 0 0 0 0 0 0 0 0 0 0 0 0 0 0 0 0 0 0 0 0 1 0 0 0 0 0 3 0 0 315 0 0 610 0 0 603 0 0 614 0 0 598 0 0 591 0 0 592 0 0 631 0 0 612 0 0 571 0 0 622 0 0 604 0 0 584 0 0 578 0 0 590 0 0 555 0 0 598 0 0 586 0 0 584 0 0 584 0 0 606 0 0 570 0 0 615 0 0 629 0 0 589 0 0 586 0 0 642 0 0 617 0 0 627 0 0 590 0 0 597 0 0 630 0 0 608 0 0 624 0 0 629 0 0 630 0 0 611 0 0 638 0 0 585 0 0 600 0 0 284 0 0 2 0 0 0 0 0 0 0 0 0 0 0 0 0 0 0 0 0 0 0 0 0 0 0 0 0 0 
0 0 0 0 0 0 0 0 0 0 0 0 0 0 0 0 0 0 1 0 0 2 0 0 0 0 0 1 0 0 305 0 0 592 0 0 600 0 0 572 0 0 605 0 0 620 0 0 571 0 0 642 0 0 592 0 0 597 0 0 629 0 0 636 0 0 604 0 0 592 0 0 573 0 0 574 0 0 612 0 0 642 0 0 606 0 0 592 0 0 615 0 0 622 0 0 641 0 0 584 0 0 549 0 0 649 0 0 636 0 0 568 0 0 636 0 0 620 0 0 575 0 0 604 0 0 644 0 0 602 0 0 585 0 0 598 0 0 563 0 0 594 0 0 598 0 0 554 0 0 280 0 0 2 0 0 2 0 0 1 0 0 0 0 0 0 0 0 0 0 0 0 0 0 0 0 0 0 0 0 
0 0 0 0 0 0 0 0 0 0 0 0 0 0 0 1 0 0 0 0 0 0 0 0 0 0 0 4 0 0 306 0 0 592 0 0 619 0 0 643 0 0 591 0 0 641 0 0 629 0 0 597 0 0 593 0 0 597 0 0 581 0 0 609 0 0 596 0 0 608 0 0 606 0 0 607 0 0 608 0 0 629 0 0 601 0 0 600 0 0 576 0 0 608 0 0 603 0 0 626 0 0 608 0 0 603 0 0 594 0 0 570 0 0 590 0 0 630 0 0 591 0 0 599 0 0 656 0 0 595 0 0 629 0 0 594 0 0 609 0 0 624 0 0 634 0 0 621 0 0 322 0 0 5 0 0 0 0 0 0 0 0 0 0 0 0 0 0 0 0 0 1 0 0 2 0 0 1 0 0 
0 0 0 0 0 0 0 0 0 1 0 0 0 0 0 0 0 0 0 0 0 0 0 0 1 0 0 3 0 0 297 0 0 619 0 0 574 0 0 584 0 0 627 0 0 634 0 0 590 0 0 626 0 0 610 0 0 609 0 0 595 0 0 606 0 0 564 0 0 604 0 0 593 0 0 618 0 0 593 0 0 638 0 0 613 0 0 608 0 0 639 0 0 616 0 0 602 0 0 604 0 0 617 0 0 642 0 0 623 0 0 632 0 0 607 0 0 629 0 0 616 0 0 626 0 0 658 0 0 620 0 0 584 0 0 642 0 0 616 0 0 562 0 0 646 0 0 567 0 0 297 0 0 2 0 0 0 0 0 0 0 0 0 0 0 0 0 0 0 0 0 0 0 0 0 0 0 1 0 0 
0 0 0 0 0 0 0 0 0 0 0 0 0 0 0 0 0 0 0 0 0 1 0 0 0 0 0 7 0 0 299 0 0 604 0 0 609 0 0 634 0 0 577 0 0 609 0 0 613 0 0 596 0 0 618 0 0 597 0 0 602 0 0 596 0 0 594 0 0 591 0 0 577 0 0 619 0 0 588 0 0 619 0 0 570 0 0 609 0 0 637 0 0 632 0 0 606 0 0 618 0 0 577 0 0 613 0 0 602 0 0 589 0 0 586 0 0 592 0 0 600 0 0 573 0 0 603 0 0 604 0 0 586 0 0 603 0 0 631 0 0 603 0 0 618 0 0 632 0 0 296 0 0 5 0 0 0 0 0 3 0 0 0 0 0 0 0 0 0 0 0 1 0 0 1 0 0 0 0 0 
0 0 0 0 0 0 0 0 0 0 0 0 0 0 0 0 0 0 0 0 0 0 0 0 1 0 0 5 0 0 287 0 0 582 0 0 595 0 0 613 0 0 608 0 0 594 0 0 619 0 0 583 0 0 599 0 0 667 0 0 563 0 0 610 0 0 606 0 0 615 0 0 595 0 0 613 0 0 602 0 0 607 0 0 589 0 0 616 0 0 611 0 0 633 0 0 611 0 0 563 0 0 598 0 0 585 0 0 603 0 0 593 0 0 601 0 0 580 0 0 609 0 0 627 0 0 606 0 0 609 0 0 601 0 0 587 0 0 601 0 0 578 0 0 604 0 0 606 0 0 267 0 0 2 0 0 0 0 0 0 0 0 0 0 0 1 0 0 2 0 0 0 0 0 0 0 0 0 0 0 
0 0 0 0 0 0 0 0 0 0 0 0 0 0 0 0 0 0 0 0 0 0 0 0 0 0 0 3 0 0 304 0 0 596 0 0 623 0 0 603 0 0 636 0 0 596 0 0 595 0 0 611 0 0 624 0 0 587 0 0 584 0 0 580 0 0 612 0 0 648 0 0 658 0 0 607 0 0 628 0 0 569 0 0 610 0 0 629 0 0 638 0 0 597 0 0 595 0 0 596 0 0 601 0 0 599 0 0 621 0 0 565 0 0 592 0 0 591 0 0 589 0 0 575 0 0 603 0 0 587 0 0 604 0 0 642 0 0 606 0 0 584 0 0 562 0 0 632 0 0 333 0 0 2 0 0 0 0 0 0 0 0 1 0 0 1 0 0 0 0 0 0 0 0 0 0 0 0 0 0 
0 0 0 0 0 0 0 0 0 0 0 0 0 0 0 0 0 0 0 0 0 0 0 0 1 0 0 3 0 0 275 0 0 539 0 0 648 0 0 601 0 0 602 0 0 622 0 0 589 0 0 603 0 0 622 0 0 615 0 0 607 0 0 621 0 0 650 0 0 634 0 0 610 0 0 621 0 0 628 0 0 637 0 0 616 0 0 611 0 0 615 0 0 552 0 0 618 0 0 636 0 0 619 0 0 597 0 0 580 0 0 593 0 0 648 0 0 595 0 0 603 0 0 568 0 0 574 0 0 554 0 0 583 0 0 592 0 0 635 0 0 593 0 0 587 0 0 566 0 0 311 0 0 1 0 0 1 0 0 0 0 0 0 0 0 0 0 0 0 0 0 0 0 0 0 0 0 0 0 0 
0 0 0 0 0 0 0 0 0 0 0 0 0 0 0 0 0 0 0 0 0 0 0 0 0 0 0 5 0 0 308 0 0 593 0 0 604 0 0 629 0 0 600 0 0 599 0 0 605 0 0 611 0 0 646 0 0 613 0 0 558 0 0 594 0 0 598 0 0 623 0 0 572 0 0 588 0 0 601 0 0 573 0 0 602 0 0 562 0 0 579 0 0 554 0 0 572 0 0 599 0 0 622 0 0 621 0 0 594 0 0 616 0 0 587 0 0 583 0 0 595 0 0 592 0 0 599 0 0 602 0 0 620 0 0 625 0 0 603 0 0 616 0 0 639 0 0 613 0 0 310 0 0 1 0 0 0 0 0 0 0 0 0 0 0 0 0 0 1 0 0 1 0 0 0 0 0 0 0 0 
0 0 0 0 0 0 0 0 0 0 0 0 0 0 0 0 0 0 0 0 0 0 0 0 0 0 0 4 0 0 318 0 0 598 0 0 641 0 0 588 0 0 581 0 0 601 0 0 639 0 0 601 0 0 591 0 0 611 0 0 622 0 0 577 0 0 619 0 0 633 0 0 623 0 0 595 0 0 614 0 0 587 0 0 609 0 0 631 0 0 602 0 0 611 0 0 565 0 0 636 0 0 616 0 0 598 0 0 597 0 0 616 0 0 621 0 0 602 0 0 575 0 0 629 0 0 576 0 0 571 0 0 623 0 0 627 0 0 617 0 0 592 0 0 642 0 0 586 0 0 318 0 0 6 0 0 0 0 0 0 0 0 0 0 0 0 0 0 0 0 0 0 0 0 0 0 0 0 0 0 
0 0 0 0 0 0 0 0 0 0 0 0 0 0 0 0 0 0 0 0 0 0 0 0 0 0 0 5 0 0 298 0 0 595 0 0 594 0 0 593 0 0 543 0 0 604 0 0 605 0 0 590 0 0 609 0 0 604 0 0 613 0 0 600 0 0 635 0 0 575 0 0 621 0 0 627 0 0 626 0 0 614 0 0 618 0 0 581 0 0 587 0 0 604 0 0 607 0 0 583 0 0 596 0 0 581 0 0 586 0 0 602 0 0 616 0 0 610 0 0 631 0 0 609 0 0 621 0 0 621 0 0 611 0 0 620 0 0 569 0 0 602 0 0 564 0 0 594 0 0 286 0 0 7 0 0 0 0 0 0 0 0 0 0 0 0 0 0 0 0 0 0 0 0 0 0 0 0 0 0 
0 0 0 1 0 0 1 0 0 2 0 0 0 0 0 0 0 0 0 0 0 0 0 0 0 0 0 4 0 0 305 0 0 577 0 0 641 0 0 604 0 0 601 0 0 590 0 0 643 0 0 580 0 0 560 0 0 610 0 0 582 0 0 603 0 0 588 0 0 616 0 0 612 0 0 614 0 0 585 0 0 585 0 0 595 0 0 599 0 0 620 0 0 585 0 0 609 0 0 601 0 0 603 0 0 580 0 0 618 0 0 564 0 0 598 0 0 608 0 0 582 0 0 576 0 0 583 0 0 587 0 0 594 0 0 601 0 0 634 0 0 629 0 0 584 0 0 566 0 0 326 0 0 2 0 0 0 0 0 0 0 0 0 0 0 0 0 0 0 0 0 0 0 0 0 0 0 0 0 0 
0 0 0 0 0 0 1 0 0 0 0 0 0 0 0 0 0 0 0 0 0 0 0 0 0 0 0 1 0 0 311 0 0 596 0 0 551 0 0 619 0 0 598 0 0 628 0 0 587 0 0 587 0 0 627 0 0 592 0 0 607 0 0 615 0 0 607 0 0 624 0 0 633 0 0 631 0 0 605 0 0 616 0 0 570 0 0 589 0 0 593 0 0 566 0 0 631 0 0 566 0 0 566 0 0 590 0 0 580 0 0 599 0 0 612 0 0 613 0 0 589 0 0 574 0 0 631 0 0 610 0 0 612 0 0 571 0 0 574 0 0 601 0 0 604 0 0 577 0 0 287 0 0 2 0 0 0 0 0 0 0 0 0 0 0 0 0 0 0 0 0 0 0 0 0 0 0 0 0 0 
0 0 0 0 0 0 0 0 0 0 0 0 0 0 0 0 0 0 0 0 0 0 0 0 0 0 0 3 0 0 147 0 0 303 0 0 282 0 0 296 0 0 324 0 0 316 0 0 304 0 0 282 0 0 314 0 0 298 0 0 307 0 0 290 0 0 292 0 0 292 0 0 266 0 0 312 0 0 277 0 0 314 0 0 303 0 0 299 0 0 306 0 0 302 0 0 317 0 0 305 0 0 323 0 0 302 0 0 307 0 0 299 0 0 284 0 0 310 0 0 282 0 0 299 0 0 291 0 0 300 0 0 302 0 0 307 0 0 318 0 0 306 0 0 333 0 0 303 0 0 152 0 0 3 0 0 0 0 0 0 0 0 0 0 0 0 0 0 0 0 0 0 0 0 0 0 0 0 0 0 
0 0 0 0 0 0 0 0 0 0 0 0 0 0 0 0 0 0 0 0 0 0 0 0 0 0 0 0 0 0 2 0 0 5 0 0 2 0 0 4 0 0 6 0 0 2 0 0 4 0 0 8 0 0 7 0 0 7 0 0 4 0 0 2 0 0 5 0 0 4 0 0 0 0 0 4 0 0 3 0 0 4 0 0 4 0 0 8 0 0 4 0 0 2 0 0 5 0 0 3 0 0 4 0 0 3 0 0 3 0 0 3 0 0 4 0 0 2 0 0 3 0 0 5 0 0 3 0 0 2 0 0 4 0 0 2 0 0 3 0 0 1 0 0 3 0 0 2 0 0 0 0 0 0 0 0 0 0 0 0 0 0 0 0 0 0 0 0 0 0 0 0 0 0 0 0 0 0 0 0 
0 0 0 0 0 0 0 0 0 0 0 0 0 0 0 0 0 0 0 0 0 0 0 0 0 0 0 0 0 0 0 0 0 0 0 0 0 0 0 0 0 0 1 0 0 0 0 0 1 0 0 1 0 0 0 0 0 1 0 0 0 0 0 0 0 0 0 0 0 0 0 0 0 0 0 0 0 0 1 0 0 2 0 0 0 0 0 2 0 0 0 0 0 1 0 0 1 0 0 0 0 0 0 0 0 0 0 0 0 0 0 1 0 0 0 0 0 0 0 0 1 0 0 2 0 0 0 0 0 0 0 0 1 0 0 1 0 0 0 0 0 1 0 0 1 0 0 0 0 0 1 0 0 0 0 0 0 0 0 0 0 0 0 0 0 0 0 0 0 0 0 0 0 0 0 0 0 0 0 0 
0 0 0 0 0 0 0 0 0 0 0 0 0 0 0 0 0 0 0 0 0 0 0 0 0 0 0 0 0 0 0 0 0 0 0 0 0 0 0 0 0 0 0 0 0 0 0 0 0 0 0 0 0 0 3 0 0 0 0 0 0 0 0 0 0 0 1 0 0 0 0 0 0 0 0 2 0 0 0 0 0 0 0 0 1 0 0 1 0 0 0 0 0 0 0 0 0 0 0 0 0 0 0 0 0 0 0 0 0 0 0 0 0 0 0 0 0 0 0 0 1 0 0 1 0 0 0 0 0 0 0 0 1 0 0 1 0 0 0 0 0 0 0 0 0 0 0 0 0 0 1 0 0 1 0 0 0 0 0 0 0 0 0 0 0 0 0 0 0 0 0 0 0 0 0 0 0 0 0 0 
0 0 0 0 0 0 0 0 0 0 0 0 0 0 0 0 0 0 0 0 0 0 0 0 1 0 0 0 0 0 1 0 0 0 0 0 0 0 0 0 0 0 0 0 0 0 0 0 0 0 0 1 0 0 0 0 0 0 0 0 0 0 0 0 0 0 0 0 0 0 0 0 0 0 0 1 0 0 0 0 0 0 0 0 0 0 0 0 0 0 0 0 0 0 0 0 0 0 0 0 0 0 0 0 0 0 0 0 0 0 0 0 0 0 0 0 0 1 0 0 1 0 0 0 0 0 0 0 0 0 0 0 2 0 0 0 0 0 0 0 0 0 0 0 0 0 0 0 0 0 0 0 0 0 0 0 0 0 0 0 0 0 0 0 0 0 0 0 0 0 0 0 0 0 0 0 0 0 0 0 
0 0 0 0 0 0 0 0 0 0 0 0 0 0 0 0 0 0 0 0 0 1 0 0 0 0 0 0 0 0 0 0 0 0 0 0 0 0 0 0 0 0 0 0 0 0 0 0 1 0 0 0 0 0 0 0 0 0 0 0 0 0 0 0 0 0 0 0 0 1 0 0 1 0 0 0 0 0 0 0 0 0 0 0 0 0 0 0 0 0 0 0 0 0 0 0 0 0 0 0 0 0 1 0 0 0 0 0 0 0 0 0 0 0 0 0 0 0 0 0 0 0 0 1 0 0 0 0 0 0 0 0 0 0 0 0 0 0 0 0 0 0 0 0 0 0 0 0 0 0 0 0 0 0 0 0 0 0 0 0 0 0 0 0 0 0 0 0 0 0 0 0 0 0 0 0 0 0 0 0 
0 0 0 0 0 0 0 0 0 0 0 0 0 0 0 0 0 0 0 0 0 0 0 0 0 0 0 0 0 0 0 0 0 0 0 0 0 0 0 0 0 0 0 0 0 0 0 0 0 0 0 0 0 0 0 0 0 0 0 0 2 0 0 0 0 0 0 0 0 0 0 0 0 0 0 0 0 0 0 0 0 0 0 0 0 0 0 2 0 0 0 0 0 0 0 0 0 0 0 0 0 0 0 0 0 0 0 0 0 0 0 0 0 0 0 0 0 0 0 0 1 0 0 0 0 0 0 0 0 0 0 0 0 0 0 0 0 0 0 0 0 0 0 0 0 0 0 0 0 0 0 0 0 0 0 0 0 0 0 0 0 0 0 0 0 0 0 0 0 0 0 0 0 0 0 0 0 0 0 0 
0 0 0 0 0 0 0 0 0 0 0 0 0 0 0 0 0 0 0 0 0 0 0 0 0 0 0 0 0 0 0 0 0 0 0 0 0 0 0 0 0 0 0 0 0 0 0 0 0 0 0 0 0 0 1 0 0 0 0 0 1 0 0 1 0 0 0 0 0 0 0 0 0 0 0 0 0 0 0 0 0 0 0 0 0 0 0 0 0 0 0 0 0 0 0 0 0 0 0 0 0 0 0 0 0 0 0 0 0 0 0 0 0 0 0 0 0 0 0 0 2 0 0 0 0 0 0 0 0 1 0 0 1 0 0 0 0 0 0 0 0 0 0 0 0 0 0 0 0 0 1 0 0 0 0 0 0 0 0 0 0 0 0 0 0 0 0 0 0 0 0 0 0 0 0 0 0 0 0 0 
0 0 0 0 0 0 0 0 0 0 0 0 0 0 0 1 0 0 0 0 0 0 0 0 0 0 0 0 0 0 0 0 0 0 0 0 0 0 0 0 0 0 0 0 0 1 0 0 0 0 0 1 0 0 0 0 0 0 0 0 0 0 0 0 0 0 0 0 0 0 0 0 0 0 0 0 0 0 1 0 0 0 0 0 0 0 0 0 0 0 0 0 0 0 0 0 0 0 0 0 0 0 0 0 0 0 0 0 0 0 0 0 0 0 0 0 0 1 0 0 0 0 0 0 0 0 0 0 0 1 0 0 0 0 0 0 0 0 0 0 0 0 0 0 0 0 0 0 0 0 1 0 0 0 0 0 0 0 0 0 0 0 0 0 0 0 0 0 0 0 0 0 0 0 0 0 0 0 0 0 
0 0 0 0 0 0 0 0 0 0 0 0 0 0 0 0 0 0 0 0 0 0 0 0 0 0 0 0 0 0 0 0 0 0 0 0 0 0 0 0 0 0 0 0 0 1 0 0 0 0 0 0 0 0 1 0 0 0 0 0 0 0 0 0 0 0 0 0 0 0 0 0 0 0 0 1 0 0 1 0 0 0 0 0 0 0 0 0 0 0 0 0 0 0 0 0 0 0 0 0 0 0 0 0 0 0 0 0 0 0 0 0 0 0 0 0 0 1 0 0 0 0 0 0 0 0 0 0 0 0 0 0 1 0 0 0 0 0 0 0 0 0 0 0 0 0 0 0 0 0 0 0 0 0 0 0 0 0 0 0 0 0 0 0 0 0 0 0 0 0 0 0 0 0 0 0 0 0 0 0 
