P3
# This is a dose file slice at depth 24 of 100
60 60
# now we give the maximum value of the RGB coordinates.
1684
0 0 0 0 0 0 0 0 0 0 0 0 0 0 0 0 0 0 0 0 0 0 0 0 0 0 0 0 0 0 0 0 0 0 0 0 0 0 0 0 0 0 0 0 0 0 0 0 0 0 0 0 0 0 0 0 0 0 0 0 0 0 0 0 0 0 0 0 0 0 0 0 0 0 0 0 0 0 0 0 0 0 0 0 0 0 0 0 0 0 0 0 0 0 0 0 0 0 0 0 0 0 0 0 0 0 0 0 0 0 0 0 0 0 0 0 0 0 0 0 0 0 0 0 0 0 0 0 0 0 0 0 0 0 0 0 0 0 0 0 0 0 0 0 0 0 0 0 0 0 0 0 0 0 0 0 0 0 0 0 0 0 0 0 0 0 0 0 0 0 0 0 0 0 0 0 0 0 0 0 
0 0 0 0 0 0 0 0 0 0 0 0 0 0 0 0 0 0 0 0 0 0 0 0 0 0 0 0 0 0 0 0 0 0 0 0 0 0 0 0 0 0 0 0 0 0 0 0 0 0 0 0 0 0 0 0 0 0 0 0 0 0 0 0 0 0 0 0 0 0 0 0 0 0 0 0 0 0 0 0 0 0 0 0 0 0 0 0 0 0 0 0 0 0 0 0 0 0 0 0 0 0 0 0 0 0 0 0 0 0 0 0 0 0 0 0 0 0 0 0 0 0 0 0 0 0 0 0 0 0 0 0 0 0 0 0 0 0 0 0 0 0 0 0 0 0 0 0 0 0 0 0 0 0 0 0 0 0 0 0 0 0 0 0 0 0 0 0 0 0 0 0 0 0 0 0 0 0 0 0 
0 0 0 0 0 0 0 0 0 0 0 0 0 0 0 0 0 0 0 0 0 0 0 0 0 0 0 0 0 0 0 0 0 0 0 0 0 0 0 0 0 0 0 0 0 0 0 0 0 0 0 0 0 0 0 0 0 0 0 0 0 0 0 0 0 0 0 0 0 0 0 0 0 0 0 0 0 0 0 0 0 0 0 0 0 0 0 0 0 0 0 0 0 0 0 0 0 0 0 0 0 0 0 0 0 0 0 0 0 0 0 0 0 0 0 0 0 0 0 0 0 0 0 0 0 0 0 0 0 0 0 0 0 0 0 0 0 0 0 0 0 0 0 0 0 0 0 0 0 0 0 0 0 0 0 0 0 0 0 0 0 0 0 0 0 0 0 0 0 0 0 0 0 0 0 0 0 0 0 0 
0 0 0 0 0 0 0 0 0 0 0 0 0 0 0 0 0 0 0 0 0 0 0 0 0 0 0 0 0 0 0 0 0 0 0 0 0 0 0 0 0 0 0 0 0 0 0 0 0 0 0 0 0 0 0 0 0 0 0 0 0 0 0 0 0 0 0 0 0 0 0 0 0 0 0 0 0 0 0 0 0 0 0 0 0 0 0 0 0 0 0 0 0 0 0 0 0 0 0 0 0 0 0 0 0 0 0 0 0 0 0 0 0 0 0 0 0 0 0 0 0 0 0 0 0 0 0 0 0 0 0 0 0 0 0 0 0 0 0 0 0 0 0 0 0 0 0 0 0 0 0 0 0 0 0 0 0 0 0 0 0 0 0 0 0 0 0 0 0 0 0 0 0 0 0 0 0 0 0 0 
0 0 0 0 0 0 0 0 0 0 0 0 0 0 0 0 0 0 0 0 0 0 0 0 0 0 0 0 0 0 0 0 0 0 0 0 0 0 0 0 0 0 0 0 0 0 0 0 0 0 0 0 0 0 0 0 0 0 0 0 0 0 0 0 0 0 0 0 0 0 0 0 0 0 0 0 0 0 0 0 0 0 0 0 0 0 0 0 0 0 0 0 0 0 0 0 0 0 0 0 0 0 0 0 0 0 0 0 0 0 0 0 0 0 0 0 0 0 0 0 0 0 0 0 0 0 0 0 0 0 0 0 0 0 0 0 0 0 0 0 0 0 0 0 0 0 0 0 0 0 0 0 0 0 0 0 0 0 0 0 0 0 0 0 0 0 0 0 0 0 0 0 0 0 0 0 0 0 0 0 
0 0 0 0 0 0 0 0 0 0 0 0 0 0 0 0 0 0 0 0 0 0 0 0 0 0 0 0 0 0 0 0 0 0 0 0 0 0 0 0 0 0 0 0 0 0 0 0 0 0 0 0 0 0 0 0 0 0 0 0 0 0 0 0 0 0 0 0 0 0 0 0 0 0 0 0 0 0 0 0 0 0 0 0 0 0 0 0 0 0 0 0 0 0 0 0 0 0 0 0 0 0 0 0 0 0 0 0 0 0 0 0 0 0 0 0 0 0 0 0 0 0 0 0 0 0 0 0 0 0 0 0 0 0 0 0 0 0 0 0 0 0 0 0 0 0 0 0 0 0 0 0 0 0 0 0 0 0 0 0 0 0 0 0 0 0 0 0 0 0 0 0 0 0 0 0 0 0 0 0 
0 0 0 0 0 0 0 0 0 0 0 0 0 0 0 0 0 0 0 0 0 0 0 0 0 0 0 0 0 0 0 0 0 0 0 0 0 0 0 0 0 0 0 0 0 0 0 0 0 0 0 0 0 0 0 0 0 0 0 0 0 0 0 0 0 0 0 0 0 0 0 0 0 0 0 0 0 0 0 0 0 0 0 0 0 0 0 0 0 0 0 0 0 0 0 0 0 0 0 0 0 0 0 0 0 0 0 0 0 0 0 0 0 0 0 0 0 0 0 0 0 0 0 0 0 0 0 0 0 0 0 0 0 0 0 0 0 0 0 0 0 0 0 0 0 0 0 0 0 0 0 0 0 0 0 0 0 0 0 0 0 0 0 0 0 0 0 0 0 0 0 0 0 0 0 0 0 0 0 0 
0 0 0 0 0 0 0 0 0 0 0 0 0 0 0 0 0 0 0 0 0 0 0 0 0 0 0 0 0 0 0 0 0 0 0 0 0 0 0 0 0 0 0 0 0 0 0 0 0 0 0 0 0 0 0 0 0 0 0 0 0 0 0 0 0 0 0 0 0 0 0 0 0 0 0 0 0 0 0 0 0 0 0 0 0 0 0 0 0 0 0 0 0 0 0 0 0 0 0 0 0 0 0 0 0 0 0 0 0 0 0 0 0 0 0 0 0 0 0 0 0 0 0 0 0 0 0 0 0 0 0 0 0 0 0 0 0 0 0 0 0 0 0 0 0 0 0 0 0 0 0 0 0 0 0 0 0 0 0 0 0 0 0 0 0 0 0 0 0 0 0 0 0 0 0 0 0 0 0 0 
0 0 0 0 0 0 0 0 0 0 0 0 0 0 0 0 0 0 0 0 0 0 0 0 0 0 0 0 0 0 0 0 0 0 0 0 0 0 0 0 0 0 0 0 0 0 0 0 0 0 0 0 0 0 0 0 0 0 0 0 0 0 0 0 0 0 0 0 0 0 0 0 0 0 0 0 0 0 0 0 0 0 0 0 0 0 0 0 0 0 0 0 0 0 0 0 0 0 0 0 0 0 0 0 0 0 0 0 0 0 0 0 0 0 0 0 0 0 0 0 0 0 0 0 0 0 0 0 0 0 0 0 0 0 0 0 0 0 0 0 0 0 0 0 0 0 0 0 0 0 0 0 0 0 0 0 0 0 0 0 0 0 0 0 0 0 0 0 0 0 0 0 0 0 0 0 0 0 0 0 
0 0 0 0 0 0 0 0 0 0 0 0 0 0 0 0 0 0 0 0 0 0 0 0 0 0 0 0 0 0 0 0 0 0 0 0 0 0 0 0 0 0 0 0 0 0 0 0 0 0 0 0 0 0 0 0 0 0 0 0 0 0 0 0 0 0 0 0 0 0 0 0 0 0 0 0 0 0 0 0 0 0 0 0 0 0 0 0 0 0 0 0 0 0 0 0 0 0 0 0 0 0 0 0 0 0 0 0 0 0 0 0 0 0 0 0 0 0 0 0 0 0 0 0 0 0 0 0 0 0 0 0 0 0 0 0 0 0 0 0 0 0 0 0 0 0 0 0 0 0 0 0 0 0 0 0 0 0 0 0 0 0 0 0 0 0 0 0 0 0 0 0 0 0 0 0 0 0 0 0 
0 0 0 0 0 0 0 0 0 0 0 0 0 0 0 0 0 0 0 0 0 0 0 0 0 0 0 0 0 0 187 0 0 371 0 0 378 0 0 408 0 0 400 0 0 383 0 0 363 0 0 363 0 0 417 0 0 398 0 0 403 0 0 350 0 0 362 0 0 361 0 0 382 0 0 386 0 0 361 0 0 385 0 0 387 0 0 388 0 0 403 0 0 374 0 0 342 0 0 347 0 0 414 0 0 360 0 0 378 0 0 397 0 0 376 0 0 379 0 0 389 0 0 397 0 0 338 0 0 374 0 0 379 0 0 376 0 0 364 0 0 377 0 0 363 0 0 376 0 0 195 0 0 0 0 0 0 0 0 0 0 0 0 0 0 0 0 0 0 0 0 0 0 0 0 0 0 0 0 0 
0 0 0 0 0 0 0 0 0 0 0 0 0 0 0 0 0 0 0 0 0 0 0 0 0 0 0 0 0 0 362 0 0 761 0 0 774 0 0 756 0 0 786 0 0 756 0 0 776 0 0 735 0 0 744 0 0 773 0 0 753 0 0 750 0 0 717 0 0 773 0 0 767 0 0 788 0 0 734 0 0 761 0 0 800 0 0 767 0 0 788 0 0 722 0 0 801 0 0 748 0 0 736 0 0 750 0 0 783 0 0 749 0 0 790 0 0 732 0 0 763 0 0 763 0 0 781 0 0 774 0 0 743 0 0 751 0 0 761 0 0 714 0 0 763 0 0 779 0 0 388 0 0 0 0 0 0 0 0 0 0 0 0 0 0 0 0 0 0 0 0 0 0 0 0 0 0 0 0 0 
0 0 0 0 0 0 0 0 0 0 0 0 0 0 0 0 0 0 0 0 0 0 0 0 0 0 0 0 0 0 409 0 0 765 0 0 766 0 0 763 0 0 742 0 0 804 0 0 760 0 0 782 0 0 791 0 0 800 0 0 772 0 0 812 0 0 798 0 0 794 0 0 780 0 0 806 0 0 754 0 0 730 0 0 767 0 0 777 0 0 799 0 0 761 0 0 784 0 0 731 0 0 797 0 0 780 0 0 782 0 0 782 0 0 798 0 0 748 0 0 786 0 0 768 0 0 778 0 0 737 0 0 755 0 0 749 0 0 772 0 0 761 0 0 738 0 0 799 0 0 375 0 0 0 0 0 0 0 0 0 0 0 0 0 0 0 0 0 0 0 0 0 0 0 0 0 0 0 0 0 
0 0 0 0 0 0 0 0 0 0 0 0 0 0 0 0 0 0 0 0 0 0 0 0 0 0 0 0 0 0 409 0 0 789 0 0 794 0 0 782 0 0 727 0 0 742 0 0 757 0 0 738 0 0 775 0 0 811 0 0 770 0 0 757 0 0 772 0 0 781 0 0 770 0 0 795 0 0 776 0 0 748 0 0 772 0 0 716 0 0 698 0 0 728 0 0 761 0 0 762 0 0 783 0 0 749 0 0 767 0 0 699 0 0 788 0 0 764 0 0 762 0 0 715 0 0 755 0 0 788 0 0 787 0 0 750 0 0 719 0 0 740 0 0 760 0 0 788 0 0 351 0 0 0 0 0 0 0 0 0 0 0 0 0 0 0 0 0 0 0 0 0 0 0 0 0 0 0 0 0 
0 0 0 0 0 0 0 0 0 0 0 0 0 0 0 0 0 0 0 0 0 0 0 0 0 0 0 0 0 0 359 0 0 754 0 0 751 0 0 784 0 0 760 0 0 758 0 0 798 0 0 799 0 0 757 0 0 777 0 0 815 0 0 755 0 0 766 0 0 785 0 0 762 0 0 806 0 0 779 0 0 746 0 0 747 0 0 811 0 0 711 0 0 769 0 0 795 0 0 757 0 0 764 0 0 740 0 0 788 0 0 776 0 0 755 0 0 774 0 0 788 0 0 757 0 0 729 0 0 765 0 0 758 0 0 781 0 0 766 0 0 813 0 0 736 0 0 781 0 0 339 0 0 0 0 0 0 0 0 0 0 0 0 0 0 0 0 0 0 0 0 0 0 0 0 0 0 0 0 0 
0 0 0 0 0 0 0 0 0 0 0 0 0 0 0 0 0 0 0 0 0 0 0 0 0 0 0 0 0 0 363 0 0 763 0 0 798 0 0 789 0 0 720 0 0 766 0 0 768 0 0 772 0 0 786 0 0 732 0 0 767 0 0 778 0 0 772 0 0 726 0 0 771 0 0 795 0 0 743 0 0 773 0 0 809 0 0 766 0 0 761 0 0 755 0 0 800 0 0 712 0 0 809 0 0 784 0 0 762 0 0 777 0 0 716 0 0 739 0 0 767 0 0 702 0 0 754 0 0 743 0 0 736 0 0 797 0 0 731 0 0 713 0 0 748 0 0 721 0 0 401 0 0 0 0 0 0 0 0 0 0 0 0 0 0 0 0 0 0 0 0 0 0 0 0 0 0 0 0 0 
0 0 0 0 0 0 0 0 0 0 0 0 0 0 0 0 0 0 0 0 0 0 0 0 0 0 0 0 0 0 365 0 0 726 0 0 763 0 0 746 0 0 751 0 0 782 0 0 798 0 0 731 0 0 765 0 0 786 0 0 747 0 0 761 0 0 795 0 0 739 0 0 770 0 0 771 0 0 767 0 0 815 0 0 706 0 0 770 0 0 735 0 0 787 0 0 803 0 0 819 0 0 752 0 0 799 0 0 762 0 0 692 0 0 798 0 0 778 0 0 724 0 0 747 0 0 778 0 0 716 0 0 787 0 0 801 0 0 797 0 0 803 0 0 776 0 0 779 0 0 405 0 0 0 0 0 0 0 0 0 0 0 0 0 0 0 0 0 0 0 0 0 0 0 0 0 0 0 0 0 
0 0 0 0 0 0 0 0 0 0 0 0 0 0 0 0 0 0 0 0 0 0 0 0 0 0 0 0 0 0 344 0 0 740 0 0 745 0 0 773 0 0 796 0 0 758 0 0 732 0 0 735 0 0 769 0 0 759 0 0 726 0 0 753 0 0 750 0 0 779 0 0 810 0 0 748 0 0 741 0 0 744 0 0 784 0 0 742 0 0 753 0 0 795 0 0 742 0 0 718 0 0 752 0 0 751 0 0 734 0 0 752 0 0 748 0 0 765 0 0 746 0 0 743 0 0 726 0 0 773 0 0 774 0 0 769 0 0 770 0 0 770 0 0 746 0 0 762 0 0 367 0 0 0 0 0 0 0 0 0 0 0 0 0 0 0 0 0 0 0 0 0 0 0 0 0 0 0 0 0 
0 0 0 0 0 0 0 0 0 0 0 0 0 0 0 0 0 0 0 0 0 0 0 0 0 0 0 0 0 0 399 0 0 740 0 0 730 0 0 766 0 0 767 0 0 775 0 0 771 0 0 748 0 0 789 0 0 792 0 0 735 0 0 759 0 0 771 0 0 735 0 0 773 0 0 751 0 0 776 0 0 744 0 0 743 0 0 735 0 0 704 0 0 744 0 0 712 0 0 742 0 0 731 0 0 773 0 0 739 0 0 811 0 0 779 0 0 742 0 0 775 0 0 728 0 0 738 0 0 774 0 0 784 0 0 769 0 0 737 0 0 716 0 0 769 0 0 775 0 0 389 0 0 0 0 0 0 0 0 0 0 0 0 0 0 0 0 0 0 0 0 0 0 0 0 0 0 0 0 0 
0 0 0 0 0 0 0 0 0 0 0 0 0 0 0 0 0 0 0 0 0 0 0 0 0 0 0 0 0 0 347 0 0 744 0 0 779 0 0 758 0 0 760 0 0 802 0 0 758 0 0 747 0 0 803 0 0 777 0 0 705 0 0 775 0 0 724 0 0 722 0 0 753 0 0 750 0 0 740 0 0 756 0 0 769 0 0 736 0 0 789 0 0 754 0 0 826 0 0 730 0 0 797 0 0 789 0 0 800 0 0 773 0 0 755 0 0 768 0 0 755 0 0 719 0 0 801 0 0 769 0 0 751 0 0 713 0 0 721 0 0 805 0 0 748 0 0 775 0 0 392 0 0 0 0 0 0 0 0 0 0 0 0 0 0 0 0 0 0 0 0 0 0 0 0 0 0 0 0 0 
0 0 0 0 0 0 0 0 0 0 0 0 0 0 0 0 0 0 0 0 0 0 0 0 0 0 0 0 0 0 384 0 0 751 0 0 764 0 0 781 0 0 759 0 0 752 0 0 723 0 0 771 0 0 776 0 0 803 0 0 759 0 0 788 0 0 831 0 0 757 0 0 766 0 0 786 0 0 808 0 0 683 0 0 735 0 0 782 0 0 729 0 0 769 0 0 756 0 0 774 0 0 786 0 0 774 0 0 703 0 0 787 0 0 744 0 0 750 0 0 702 0 0 771 0 0 717 0 0 813 0 0 759 0 0 747 0 0 758 0 0 747 0 0 752 0 0 807 0 0 360 0 0 0 0 0 0 0 0 0 0 0 0 0 0 0 0 0 0 0 0 0 0 0 0 0 0 0 0 0 
0 0 0 0 0 0 0 0 0 0 0 0 0 0 0 0 0 0 0 0 0 0 0 0 0 0 0 0 0 0 385 0 0 767 0 0 758 0 0 808 0 0 809 0 0 762 0 0 704 0 0 757 0 0 788 0 0 756 0 0 741 0 0 787 0 0 773 0 0 789 0 0 737 0 0 728 0 0 820 0 0 781 0 0 727 0 0 786 0 0 778 0 0 737 0 0 774 0 0 725 0 0 772 0 0 713 0 0 779 0 0 744 0 0 801 0 0 730 0 0 798 0 0 820 0 0 754 0 0 724 0 0 740 0 0 794 0 0 802 0 0 804 0 0 801 0 0 800 0 0 362 0 0 0 0 0 0 0 0 0 0 0 0 0 0 0 0 0 0 0 0 0 0 0 0 0 0 0 0 0 
0 0 0 0 0 0 0 0 0 0 0 0 0 0 0 0 0 0 0 0 0 0 0 0 0 0 0 0 0 0 369 0 0 736 0 0 740 0 0 803 0 0 792 0 0 759 0 0 752 0 0 732 0 0 784 0 0 776 0 0 804 0 0 741 0 0 761 0 0 726 0 0 744 0 0 766 0 0 780 0 0 749 0 0 800 0 0 737 0 0 740 0 0 755 0 0 752 0 0 748 0 0 727 0 0 746 0 0 818 0 0 772 0 0 762 0 0 798 0 0 762 0 0 742 0 0 742 0 0 759 0 0 760 0 0 729 0 0 743 0 0 775 0 0 707 0 0 768 0 0 408 0 0 0 0 0 0 0 0 0 0 0 0 0 0 0 0 0 0 0 0 0 0 0 0 0 0 0 0 0 
0 0 0 0 0 0 0 0 0 0 0 0 0 0 0 0 0 0 0 0 0 0 0 0 0 0 0 0 0 0 357 0 0 766 0 0 776 0 0 735 0 0 783 0 0 763 0 0 760 0 0 765 0 0 783 0 0 746 0 0 728 0 0 753 0 0 756 0 0 765 0 0 785 0 0 761 0 0 805 0 0 754 0 0 733 0 0 728 0 0 748 0 0 741 0 0 802 0 0 748 0 0 763 0 0 758 0 0 741 0 0 782 0 0 743 0 0 776 0 0 757 0 0 736 0 0 781 0 0 729 0 0 727 0 0 766 0 0 751 0 0 751 0 0 759 0 0 742 0 0 371 0 0 0 0 0 0 0 0 0 0 0 0 0 0 0 0 0 0 0 0 0 0 0 0 0 0 0 0 0 
0 0 0 0 0 0 0 0 0 0 0 0 0 0 0 0 0 0 0 0 0 0 0 0 0 0 0 0 0 0 412 0 0 726 0 0 761 0 0 755 0 0 748 0 0 754 0 0 766 0 0 767 0 0 765 0 0 759 0 0 777 0 0 762 0 0 798 0 0 789 0 0 849 0 0 833 0 0 766 0 0 753 0 0 738 0 0 755 0 0 785 0 0 728 0 0 789 0 0 732 0 0 784 0 0 768 0 0 770 0 0 758 0 0 745 0 0 799 0 0 790 0 0 806 0 0 805 0 0 773 0 0 800 0 0 717 0 0 744 0 0 762 0 0 747 0 0 786 0 0 381 0 0 0 0 0 0 0 0 0 0 0 0 0 0 0 0 0 0 0 0 0 0 0 0 0 0 0 0 0 
0 0 0 0 0 0 0 0 0 0 0 0 0 0 0 0 0 0 0 0 0 0 0 0 0 0 0 0 0 0 378 0 0 748 0 0 772 0 0 726 0 0 775 0 0 738 0 0 765 0 0 712 0 0 734 0 0 770 0 0 762 0 0 798 0 0 740 0 0 778 0 0 769 0 0 752 0 0 802 0 0 740 0 0 785 0 0 739 0 0 795 0 0 742 0 0 727 0 0 758 0 0 767 0 0 742 0 0 774 0 0 781 0 0 807 0 0 784 0 0 761 0 0 733 0 0 716 0 0 811 0 0 782 0 0 749 0 0 767 0 0 788 0 0 716 0 0 713 0 0 361 0 0 0 0 0 0 0 0 0 0 0 0 0 0 0 0 0 0 0 0 0 0 0 0 0 0 0 0 0 
0 0 0 0 0 0 0 0 0 0 0 0 0 0 0 0 0 0 0 0 0 0 0 0 0 0 0 0 0 0 384 0 0 708 0 0 767 0 0 770 0 0 735 0 0 799 0 0 736 0 0 776 0 0 779 0 0 704 0 0 729 0 0 770 0 0 736 0 0 731 0 0 733 0 0 707 0 0 735 0 0 734 0 0 746 0 0 760 0 0 763 0 0 784 0 0 740 0 0 711 0 0 770 0 0 756 0 0 801 0 0 810 0 0 783 0 0 817 0 0 687 0 0 748 0 0 750 0 0 705 0 0 766 0 0 732 0 0 788 0 0 837 0 0 726 0 0 733 0 0 360 0 0 0 0 0 0 0 0 0 0 0 0 0 0 0 0 0 0 0 0 0 0 0 0 0 0 0 0 0 
0 0 0 0 0 0 0 0 0 0 0 0 0 0 0 0 0 0 0 0 0 0 0 0 0 0 0 0 0 0 358 0 0 761 0 0 804 0 0 769 0 0 758 0 0 782 0 0 728 0 0 749 0 0 767 0 0 754 0 0 774 0 0 707 0 0 755 0 0 704 0 0 788 0 0 800 0 0 732 0 0 773 0 0 759 0 0 782 0 0 734 0 0 740 0 0 764 0 0 751 0 0 782 0 0 788 0 0 732 0 0 753 0 0 780 0 0 728 0 0 733 0 0 770 0 0 794 0 0 770 0 0 754 0 0 765 0 0 791 0 0 757 0 0 779 0 0 719 0 0 384 0 0 0 0 0 0 0 0 0 0 0 0 0 0 0 0 0 0 0 0 0 0 0 0 0 0 0 0 0 
0 0 0 0 0 0 0 0 0 0 0 0 0 0 0 0 0 0 0 0 0 0 0 0 0 0 0 0 0 0 389 0 0 758 0 0 796 0 0 763 0 0 782 0 0 712 0 0 720 0 0 724 0 0 814 0 0 742 0 0 726 0 0 759 0 0 766 0 0 768 0 0 794 0 0 719 0 0 769 0 0 772 0 0 781 0 0 755 0 0 759 0 0 712 0 0 764 0 0 732 0 0 750 0 0 776 0 0 735 0 0 749 0 0 757 0 0 738 0 0 731 0 0 719 0 0 771 0 0 808 0 0 720 0 0 788 0 0 795 0 0 798 0 0 751 0 0 720 0 0 361 0 0 0 0 0 0 0 0 0 0 0 0 0 0 0 0 0 0 0 0 0 0 0 0 0 0 0 0 0 
0 0 0 0 0 0 0 0 0 0 0 0 0 0 0 0 0 0 0 0 0 0 0 0 0 0 0 0 0 0 372 0 0 729 0 0 755 0 0 748 0 0 756 0 0 768 0 0 736 0 0 745 0 0 768 0 0 782 0 0 834 0 0 767 0 0 740 0 0 737 0 0 762 0 0 786 0 0 777 0 0 731 0 0 727 0 0 757 0 0 769 0 0 752 0 0 806 0 0 798 0 0 794 0 0 778 0 0 759 0 0 727 0 0 796 0 0 735 0 0 776 0 0 778 0 0 765 0 0 743 0 0 764 0 0 749 0 0 739 0 0 779 0 0 755 0 0 782 0 0 367 0 0 0 0 0 0 0 0 0 0 0 0 0 0 0 0 0 0 0 0 0 0 0 0 0 0 0 0 0 
0 0 0 0 0 0 0 0 0 0 0 0 0 0 0 0 0 0 0 0 0 0 0 0 0 0 0 0 0 0 382 0 0 765 0 0 771 0 0 762 0 0 697 0 0 803 0 0 765 0 0 786 0 0 712 0 0 731 0 0 720 0 0 752 0 0 806 0 0 731 0 0 735 0 0 795 0 0 737 0 0 779 0 0 817 0 0 818 0 0 754 0 0 823 0 0 766 0 0 784 0 0 738 0 0 751 0 0 742 0 0 766 0 0 768 0 0 776 0 0 751 0 0 750 0 0 741 0 0 805 0 0 736 0 0 734 0 0 784 0 0 760 0 0 740 0 0 785 0 0 381 0 0 0 0 0 0 0 0 0 0 0 0 0 0 0 0 0 0 0 0 0 0 0 0 0 0 0 0 0 
0 0 0 0 0 0 0 0 0 0 0 0 0 0 0 0 0 0 0 0 0 0 0 0 0 0 0 0 0 0 403 0 0 774 0 0 763 0 0 752 0 0 782 0 0 748 0 0 722 0 0 734 0 0 715 0 0 758 0 0 737 0 0 815 0 0 717 0 0 740 0 0 762 0 0 767 0 0 812 0 0 773 0 0 757 0 0 751 0 0 727 0 0 742 0 0 786 0 0 791 0 0 730 0 0 760 0 0 825 0 0 797 0 0 765 0 0 812 0 0 743 0 0 750 0 0 783 0 0 763 0 0 730 0 0 778 0 0 807 0 0 738 0 0 767 0 0 748 0 0 410 0 0 0 0 0 0 0 0 0 0 0 0 0 0 0 0 0 0 0 0 0 0 0 0 0 0 0 0 0 
0 0 0 0 0 0 0 0 0 0 0 0 0 0 0 0 0 0 0 0 0 0 0 0 0 0 0 0 0 0 379 0 0 758 0 0 764 0 0 770 0 0 824 0 0 802 0 0 769 0 0 772 0 0 818 0 0 809 0 0 783 0 0 770 0 0 755 0 0 802 0 0 768 0 0 745 0 0 802 0 0 790 0 0 783 0 0 763 0 0 738 0 0 752 0 0 771 0 0 785 0 0 712 0 0 802 0 0 768 0 0 761 0 0 803 0 0 759 0 0 755 0 0 790 0 0 764 0 0 744 0 0 772 0 0 736 0 0 810 0 0 761 0 0 736 0 0 784 0 0 377 0 0 0 0 0 0 0 0 0 0 0 0 0 0 0 0 0 0 0 0 0 0 0 0 0 0 0 0 0 
0 0 0 0 0 0 0 0 0 0 0 0 0 0 0 0 0 0 0 0 0 0 0 0 0 0 0 0 0 0 405 0 0 776 0 0 770 0 0 752 0 0 761 0 0 726 0 0 769 0 0 745 0 0 790 0 0 750 0 0 820 0 0 761 0 0 744 0 0 754 0 0 830 0 0 848 0 0 769 0 0 762 0 0 797 0 0 767 0 0 809 0 0 804 0 0 797 0 0 785 0 0 770 0 0 763 0 0 798 0 0 790 0 0 749 0 0 727 0 0 785 0 0 801 0 0 754 0 0 784 0 0 820 0 0 720 0 0 766 0 0 738 0 0 737 0 0 779 0 0 353 0 0 0 0 0 0 0 0 0 0 0 0 0 0 0 0 0 0 0 0 0 0 0 0 0 0 0 0 0 
0 0 0 0 0 0 0 0 0 0 0 0 0 0 0 0 0 0 0 0 0 0 0 0 0 0 0 0 0 0 362 0 0 773 0 0 797 0 0 792 0 0 747 0 0 821 0 0 796 0 0 756 0 0 719 0 0 793 0 0 768 0 0 761 0 0 749 0 0 774 0 0 759 0 0 724 0 0 769 0 0 779 0 0 771 0 0 750 0 0 767 0 0 772 0 0 747 0 0 789 0 0 756 0 0 809 0 0 793 0 0 768 0 0 711 0 0 748 0 0 741 0 0 775 0 0 789 0 0 745 0 0 795 0 0 816 0 0 760 0 0 766 0 0 766 0 0 798 0 0 389 0 0 0 0 0 0 0 0 0 0 0 0 0 0 0 0 0 0 0 0 0 0 0 0 0 0 0 0 0 
0 0 0 0 0 0 0 0 0 0 0 0 0 0 0 0 0 0 0 0 0 0 0 0 0 0 0 0 0 0 421 0 0 779 0 0 749 0 0 775 0 0 769 0 0 775 0 0 780 0 0 769 0 0 754 0 0 739 0 0 764 0 0 779 0 0 774 0 0 776 0 0 808 0 0 787 0 0 800 0 0 766 0 0 723 0 0 697 0 0 756 0 0 714 0 0 869 0 0 782 0 0 776 0 0 750 0 0 751 0 0 803 0 0 788 0 0 786 0 0 728 0 0 796 0 0 762 0 0 731 0 0 752 0 0 757 0 0 777 0 0 771 0 0 795 0 0 769 0 0 385 0 0 0 0 0 0 0 0 0 0 0 0 0 0 0 0 0 0 0 0 0 0 0 0 0 0 0 0 0 
0 0 0 0 0 0 0 0 0 0 0 0 0 0 0 0 0 0 0 0 0 0 0 0 0 0 0 0 0 0 377 0 0 732 0 0 799 0 0 761 0 0 772 0 0 787 0 0 822 0 0 782 0 0 814 0 0 757 0 0 777 0 0 719 0 0 765 0 0 781 0 0 718 0 0 714 0 0 795 0 0 782 0 0 835 0 0 746 0 0 770 0 0 747 0 0 779 0 0 759 0 0 767 0 0 769 0 0 776 0 0 824 0 0 771 0 0 778 0 0 772 0 0 779 0 0 765 0 0 825 0 0 824 0 0 717 0 0 749 0 0 793 0 0 764 0 0 817 0 0 381 0 0 0 0 0 0 0 0 0 0 0 0 0 0 0 0 0 0 0 0 0 0 0 0 0 0 0 0 0 
0 0 0 0 0 0 0 0 0 0 0 0 0 0 0 0 0 0 0 0 0 0 0 0 0 0 0 0 0 0 360 0 0 787 0 0 793 0 0 795 0 0 746 0 0 757 0 0 741 0 0 773 0 0 756 0 0 794 0 0 836 0 0 739 0 0 785 0 0 793 0 0 762 0 0 764 0 0 761 0 0 747 0 0 828 0 0 785 0 0 716 0 0 742 0 0 751 0 0 745 0 0 814 0 0 759 0 0 767 0 0 733 0 0 785 0 0 800 0 0 752 0 0 771 0 0 803 0 0 758 0 0 741 0 0 770 0 0 768 0 0 742 0 0 723 0 0 752 0 0 391 0 0 0 0 0 0 0 0 0 0 0 0 0 0 0 0 0 0 0 0 0 0 0 0 0 0 0 0 0 
0 0 0 0 0 0 0 0 0 0 0 0 0 0 0 0 0 0 0 0 0 0 0 0 0 0 0 0 0 0 372 0 0 752 0 0 777 0 0 763 0 0 781 0 0 772 0 0 724 0 0 772 0 0 783 0 0 783 0 0 784 0 0 792 0 0 768 0 0 778 0 0 752 0 0 775 0 0 718 0 0 786 0 0 768 0 0 774 0 0 742 0 0 763 0 0 715 0 0 765 0 0 797 0 0 753 0 0 765 0 0 774 0 0 756 0 0 770 0 0 731 0 0 718 0 0 814 0 0 781 0 0 794 0 0 765 0 0 770 0 0 766 0 0 790 0 0 740 0 0 392 0 0 0 0 0 0 0 0 0 0 0 0 0 0 0 0 0 0 0 0 0 0 0 0 0 0 0 0 0 
0 0 0 0 0 0 0 0 0 0 0 0 0 0 0 0 0 0 0 0 0 0 0 0 0 0 0 0 0 0 387 0 0 732 0 0 742 0 0 776 0 0 793 0 0 783 0 0 726 0 0 753 0 0 731 0 0 775 0 0 753 0 0 749 0 0 770 0 0 775 0 0 759 0 0 760 0 0 751 0 0 734 0 0 769 0 0 799 0 0 764 0 0 696 0 0 752 0 0 722 0 0 775 0 0 728 0 0 775 0 0 763 0 0 750 0 0 744 0 0 776 0 0 768 0 0 803 0 0 788 0 0 758 0 0 744 0 0 773 0 0 744 0 0 781 0 0 755 0 0 407 0 0 0 0 0 0 0 0 0 0 0 0 0 0 0 0 0 0 0 0 0 0 0 0 0 0 0 0 0 
0 0 0 0 0 0 0 0 0 0 0 0 0 0 0 0 0 0 0 0 0 0 0 0 0 0 0 0 0 0 391 0 0 807 0 0 744 0 0 780 0 0 773 0 0 781 0 0 776 0 0 822 0 0 773 0 0 775 0 0 774 0 0 766 0 0 728 0 0 732 0 0 726 0 0 813 0 0 773 0 0 777 0 0 733 0 0 746 0 0 768 0 0 780 0 0 757 0 0 764 0 0 705 0 0 800 0 0 814 0 0 772 0 0 731 0 0 732 0 0 784 0 0 756 0 0 740 0 0 761 0 0 733 0 0 787 0 0 789 0 0 721 0 0 751 0 0 721 0 0 389 0 0 0 0 0 0 0 0 0 0 0 0 0 0 0 0 0 0 0 0 0 0 0 0 0 0 0 0 0 
0 0 0 0 0 0 0 0 0 0 0 0 0 0 0 0 0 0 0 0 0 0 0 0 0 0 0 0 0 0 385 0 0 747 0 0 780 0 0 776 0 0 724 0 0 736 0 0 717 0 0 776 0 0 760 0 0 781 0 0 720 0 0 801 0 0 810 0 0 736 0 0 774 0 0 786 0 0 749 0 0 747 0 0 795 0 0 783 0 0 793 0 0 764 0 0 737 0 0 774 0 0 813 0 0 741 0 0 733 0 0 745 0 0 766 0 0 759 0 0 811 0 0 808 0 0 759 0 0 779 0 0 758 0 0 743 0 0 767 0 0 731 0 0 724 0 0 730 0 0 375 0 0 0 0 0 0 0 0 0 0 0 0 0 0 0 0 0 0 0 0 0 0 0 0 0 0 0 0 0 
0 0 0 0 0 0 0 0 0 0 0 0 0 0 0 0 0 0 0 0 0 0 0 0 0 0 0 0 0 0 362 0 0 773 0 0 738 0 0 791 0 0 748 0 0 765 0 0 732 0 0 770 0 0 763 0 0 752 0 0 787 0 0 773 0 0 765 0 0 774 0 0 748 0 0 756 0 0 774 0 0 776 0 0 778 0 0 779 0 0 765 0 0 750 0 0 815 0 0 760 0 0 776 0 0 758 0 0 796 0 0 780 0 0 774 0 0 746 0 0 712 0 0 795 0 0 767 0 0 800 0 0 733 0 0 725 0 0 734 0 0 747 0 0 795 0 0 762 0 0 380 0 0 0 0 0 0 0 0 0 0 0 0 0 0 0 0 0 0 0 0 0 0 0 0 0 0 0 0 0 
0 0 0 0 0 0 0 0 0 0 0 0 0 0 0 0 0 0 0 0 0 0 0 0 0 0 0 0 0 0 402 0 0 715 0 0 768 0 0 771 0 0 773 0 0 799 0 0 780 0 0 758 0 0 740 0 0 788 0 0 788 0 0 792 0 0 739 0 0 745 0 0 807 0 0 807 0 0 757 0 0 812 0 0 752 0 0 780 0 0 799 0 0 781 0 0 735 0 0 725 0 0 771 0 0 800 0 0 733 0 0 782 0 0 797 0 0 815 0 0 732 0 0 717 0 0 743 0 0 772 0 0 782 0 0 746 0 0 722 0 0 770 0 0 742 0 0 729 0 0 355 0 0 0 0 0 0 0 0 0 0 0 0 0 0 0 0 0 0 0 0 0 0 0 0 0 0 0 0 0 
0 0 0 0 0 0 0 0 0 0 0 0 0 0 0 0 0 0 0 0 0 0 0 0 0 0 0 0 0 0 394 0 0 776 0 0 735 0 0 760 0 0 770 0 0 804 0 0 813 0 0 751 0 0 742 0 0 729 0 0 757 0 0 761 0 0 708 0 0 787 0 0 740 0 0 773 0 0 712 0 0 732 0 0 759 0 0 726 0 0 770 0 0 774 0 0 743 0 0 724 0 0 786 0 0 788 0 0 742 0 0 733 0 0 741 0 0 769 0 0 729 0 0 775 0 0 751 0 0 782 0 0 769 0 0 739 0 0 794 0 0 765 0 0 768 0 0 729 0 0 375 0 0 0 0 0 0 0 0 0 0 0 0 0 0 0 0 0 0 0 0 0 0 0 0 0 0 0 0 0 
0 0 0 0 0 0 0 0 0 0 0 0 0 0 0 0 0 0 0 0 0 0 0 0 0 0 0 0 0 0 357 0 0 749 0 0 774 0 0 801 0 0 755 0 0 799 0 0 805 0 0 771 0 0 801 0 0 788 0 0 753 0 0 760 0 0 727 0 0 764 0 0 786 0 0 791 0 0 816 0 0 744 0 0 765 0 0 749 0 0 750 0 0 751 0 0 763 0 0 733 0 0 751 0 0 765 0 0 752 0 0 761 0 0 766 0 0 785 0 0 727 0 0 770 0 0 737 0 0 802 0 0 765 0 0 805 0 0 795 0 0 778 0 0 759 0 0 766 0 0 381 0 0 0 0 0 0 0 0 0 0 0 0 0 0 0 0 0 0 0 0 0 0 0 0 0 0 0 0 0 
0 0 0 0 0 0 0 0 0 0 0 0 0 0 0 0 0 0 0 0 0 0 0 0 0 0 0 0 0 0 388 0 0 808 0 0 737 0 0 748 0 0 740 0 0 774 0 0 776 0 0 753 0 0 776 0 0 730 0 0 785 0 0 718 0 0 784 0 0 760 0 0 801 0 0 734 0 0 798 0 0 764 0 0 758 0 0 765 0 0 748 0 0 762 0 0 782 0 0 761 0 0 747 0 0 757 0 0 759 0 0 790 0 0 786 0 0 766 0 0 800 0 0 752 0 0 759 0 0 798 0 0 778 0 0 700 0 0 760 0 0 775 0 0 769 0 0 774 0 0 380 0 0 0 0 0 0 0 0 0 0 0 0 0 0 0 0 0 0 0 0 0 0 0 0 0 0 0 0 0 
0 0 0 0 0 0 0 0 0 0 0 0 0 0 0 0 0 0 0 0 0 0 0 0 0 0 0 0 0 0 380 0 0 739 0 0 777 0 0 811 0 0 791 0 0 799 0 0 756 0 0 735 0 0 767 0 0 742 0 0 759 0 0 797 0 0 750 0 0 723 0 0 771 0 0 787 0 0 748 0 0 812 0 0 759 0 0 759 0 0 765 0 0 766 0 0 718 0 0 685 0 0 769 0 0 812 0 0 727 0 0 790 0 0 768 0 0 779 0 0 777 0 0 784 0 0 777 0 0 753 0 0 763 0 0 759 0 0 818 0 0 742 0 0 753 0 0 775 0 0 402 0 0 0 0 0 0 0 0 0 0 0 0 0 0 0 0 0 0 0 0 0 0 0 0 0 0 0 0 0 
0 0 0 0 0 0 0 0 0 0 0 0 0 0 0 0 0 0 0 0 0 0 0 0 0 0 0 0 0 0 361 0 0 803 0 0 834 0 0 779 0 0 722 0 0 726 0 0 781 0 0 754 0 0 834 0 0 751 0 0 758 0 0 753 0 0 732 0 0 770 0 0 761 0 0 796 0 0 769 0 0 737 0 0 771 0 0 761 0 0 783 0 0 770 0 0 720 0 0 701 0 0 763 0 0 790 0 0 765 0 0 757 0 0 766 0 0 782 0 0 795 0 0 783 0 0 794 0 0 741 0 0 730 0 0 746 0 0 766 0 0 783 0 0 748 0 0 754 0 0 387 0 0 0 0 0 0 0 0 0 0 0 0 0 0 0 0 0 0 0 0 0 0 0 0 0 0 0 0 0 
0 0 0 0 0 0 0 0 0 0 0 0 0 0 0 0 0 0 0 0 0 0 0 0 0 0 0 0 0 0 389 0 0 792 0 0 780 0 0 792 0 0 747 0 0 776 0 0 793 0 0 751 0 0 756 0 0 805 0 0 798 0 0 762 0 0 789 0 0 729 0 0 740 0 0 771 0 0 764 0 0 766 0 0 816 0 0 755 0 0 731 0 0 772 0 0 755 0 0 745 0 0 778 0 0 804 0 0 741 0 0 825 0 0 746 0 0 714 0 0 785 0 0 749 0 0 758 0 0 798 0 0 742 0 0 755 0 0 740 0 0 821 0 0 801 0 0 844 0 0 372 0 0 0 0 0 0 0 0 0 0 0 0 0 0 0 0 0 0 0 0 0 0 0 0 0 0 0 0 0 
0 0 0 0 0 0 0 0 0 0 0 0 0 0 0 0 0 0 0 0 0 0 0 0 0 0 0 0 0 0 180 0 0 354 0 0 392 0 0 373 0 0 411 0 0 429 0 0 374 0 0 399 0 0 410 0 0 391 0 0 361 0 0 409 0 0 417 0 0 349 0 0 404 0 0 350 0 0 384 0 0 372 0 0 380 0 0 369 0 0 416 0 0 364 0 0 391 0 0 387 0 0 393 0 0 372 0 0 358 0 0 362 0 0 395 0 0 376 0 0 362 0 0 396 0 0 354 0 0 404 0 0 359 0 0 369 0 0 351 0 0 385 0 0 429 0 0 390 0 0 195 0 0 0 0 0 0 0 0 0 0 0 0 0 0 0 0 0 0 0 0 0 0 0 0 0 0 0 0 0 
0 0 0 0 0 0 0 0 0 0 0 0 0 0 0 0 0 0 0 0 0 0 0 0 0 0 0 0 0 0 0 0 0 0 0 0 0 0 0 0 0 0 0 0 0 0 0 0 0 0 0 0 0 0 0 0 0 0 0 0 0 0 0 0 0 0 0 0 0 0 0 0 0 0 0 0 0 0 0 0 0 0 0 0 0 0 0 0 0 0 0 0 0 0 0 0 0 0 0 0 0 0 0 0 0 0 0 0 0 0 0 0 0 0 0 0 0 0 0 0 0 0 0 0 0 0 0 0 0 0 0 0 0 0 0 0 0 0 0 0 0 0 0 0 0 0 0 0 0 0 0 0 0 0 0 0 0 0 0 0 0 0 0 0 0 0 0 0 0 0 0 0 0 0 0 0 0 0 0 0 
0 0 0 0 0 0 0 0 0 0 0 0 0 0 0 0 0 0 0 0 0 0 0 0 0 0 0 0 0 0 0 0 0 0 0 0 0 0 0 0 0 0 0 0 0 0 0 0 0 0 0 0 0 0 0 0 0 0 0 0 0 0 0 0 0 0 0 0 0 0 0 0 0 0 0 0 0 0 0 0 0 0 0 0 0 0 0 0 0 0 0 0 0 0 0 0 0 0 0 0 0 0 0 0 0 0 0 0 0 0 0 0 0 0 0 0 0 0 0 0 0 0 0 0 0 0 0 0 0 0 0 0 0 0 0 0 0 0 0 0 0 0 0 0 0 0 0 0 0 0 0 0 0 0 0 0 0 0 0 0 0 0 0 0 0 0 0 0 0 0 0 0 0 0 0 0 0 0 0 0 
0 0 0 0 0 0 0 0 0 0 0 0 0 0 0 0 0 0 0 0 0 0 0 0 0 0 0 0 0 0 0 0 0 0 0 0 0 0 0 0 0 0 0 0 0 0 0 0 0 0 0 0 0 0 0 0 0 0 0 0 0 0 0 0 0 0 0 0 0 0 0 0 0 0 0 0 0 0 0 0 0 0 0 0 0 0 0 0 0 0 0 0 0 0 0 0 0 0 0 0 0 0 0 0 0 0 0 0 0 0 0 0 0 0 0 0 0 0 0 0 0 0 0 0 0 0 0 0 0 0 0 0 0 0 0 0 0 0 0 0 0 0 0 0 0 0 0 0 0 0 0 0 0 0 0 0 0 0 0 0 0 0 0 0 0 0 0 0 0 0 0 0 0 0 0 0 0 0 0 0 
0 0 0 0 0 0 0 0 0 0 0 0 0 0 0 0 0 0 0 0 0 0 0 0 0 0 0 0 0 0 0 0 0 0 0 0 0 0 0 0 0 0 0 0 0 0 0 0 0 0 0 0 0 0 0 0 0 0 0 0 0 0 0 0 0 0 0 0 0 0 0 0 0 0 0 0 0 0 0 0 0 0 0 0 0 0 0 0 0 0 0 0 0 0 0 0 0 0 0 0 0 0 0 0 0 0 0 0 0 0 0 0 0 0 0 0 0 0 0 0 0 0 0 0 0 0 0 0 0 0 0 0 0 0 0 0 0 0 0 0 0 0 0 0 0 0 0 0 0 0 0 0 0 0 0 0 0 0 0 0 0 0 0 0 0 0 0 0 0 0 0 0 0 0 0 0 0 0 0 0 
0 0 0 0 0 0 0 0 0 0 0 0 0 0 0 0 0 0 0 0 0 0 0 0 0 0 0 0 0 0 0 0 0 0 0 0 0 0 0 0 0 0 0 0 0 0 0 0 0 0 0 0 0 0 0 0 0 0 0 0 0 0 0 0 0 0 0 0 0 0 0 0 0 0 0 0 0 0 0 0 0 0 0 0 0 0 0 0 0 0 0 0 0 0 0 0 0 0 0 0 0 0 0 0 0 0 0 0 0 0 0 0 0 0 0 0 0 0 0 0 0 0 0 0 0 0 0 0 0 0 0 0 0 0 0 0 0 0 0 0 0 0 0 0 0 0 0 0 0 0 0 0 0 0 0 0 0 0 0 0 0 0 0 0 0 0 0 0 0 0 0 0 0 0 0 0 0 0 0 0 
0 0 0 0 0 0 0 0 0 0 0 0 0 0 0 0 0 0 0 0 0 0 0 0 0 0 0 0 0 0 0 0 0 0 0 0 0 0 0 0 0 0 0 0 0 0 0 0 0 0 0 0 0 0 0 0 0 0 0 0 0 0 0 0 0 0 0 0 0 0 0 0 0 0 0 0 0 0 0 0 0 0 0 0 0 0 0 0 0 0 0 0 0 0 0 0 0 0 0 0 0 0 0 0 0 0 0 0 0 0 0 0 0 0 0 0 0 0 0 0 0 0 0 0 0 0 0 0 0 0 0 0 0 0 0 0 0 0 0 0 0 0 0 0 0 0 0 0 0 0 0 0 0 0 0 0 0 0 0 0 0 0 0 0 0 0 0 0 0 0 0 0 0 0 0 0 0 0 0 0 
0 0 0 0 0 0 0 0 0 0 0 0 0 0 0 0 0 0 0 0 0 0 0 0 0 0 0 0 0 0 0 0 0 0 0 0 0 0 0 0 0 0 0 0 0 0 0 0 0 0 0 0 0 0 0 0 0 0 0 0 0 0 0 0 0 0 0 0 0 0 0 0 0 0 0 0 0 0 0 0 0 0 0 0 0 0 0 0 0 0 0 0 0 0 0 0 0 0 0 0 0 0 0 0 0 0 0 0 0 0 0 0 0 0 0 0 0 0 0 0 0 0 0 0 0 0 0 0 0 0 0 0 0 0 0 0 0 0 0 0 0 0 0 0 0 0 0 0 0 0 0 0 0 0 0 0 0 0 0 0 0 0 0 0 0 0 0 0 0 0 0 0 0 0 0 0 0 0 0 0 
0 0 0 0 0 0 0 0 0 0 0 0 0 0 0 0 0 0 0 0 0 0 0 0 0 0 0 0 0 0 0 0 0 0 0 0 0 0 0 0 0 0 0 0 0 0 0 0 0 0 0 0 0 0 0 0 0 0 0 0 0 0 0 0 0 0 0 0 0 0 0 0 0 0 0 0 0 0 0 0 0 0 0 0 0 0 0 0 0 0 0 0 0 0 0 0 0 0 0 0 0 0 0 0 0 0 0 0 0 0 0 0 0 0 0 0 0 0 0 0 0 0 0 0 0 0 0 0 0 0 0 0 0 0 0 0 0 0 0 0 0 0 0 0 0 0 0 0 0 0 0 0 0 0 0 0 0 0 0 0 0 0 0 0 0 0 0 0 0 0 0 0 0 0 0 0 0 0 0 0 
0 0 0 0 0 0 0 0 0 0 0 0 0 0 0 0 0 0 0 0 0 0 0 0 0 0 0 0 0 0 0 0 0 0 0 0 0 0 0 0 0 0 0 0 0 0 0 0 0 0 0 0 0 0 0 0 0 0 0 0 0 0 0 0 0 0 0 0 0 0 0 0 0 0 0 0 0 0 0 0 0 0 0 0 0 0 0 0 0 0 0 0 0 0 0 0 0 0 0 0 0 0 0 0 0 0 0 0 0 0 0 0 0 0 0 0 0 0 0 0 0 0 0 0 0 0 0 0 0 0 0 0 0 0 0 0 0 0 0 0 0 0 0 0 0 0 0 0 0 0 0 0 0 0 0 0 0 0 0 0 0 0 0 0 0 0 0 0 0 0 0 0 0 0 0 0 0 0 0 0 
