P3
# This is a dose file slice at depth 1 of 100
60 60
# now we give the maximum value of the RGB coordinates.
1684
0 0 0 0 0 0 0 0 0 0 0 0 0 0 0 0 0 0 0 0 0 0 0 0 0 0 0 0 0 0 0 0 0 0 0 0 0 0 0 0 0 0 0 0 0 0 0 0 0 0 0 0 0 0 0 0 0 0 0 0 0 0 0 0 0 0 0 0 0 0 0 0 0 0 0 0 0 0 0 0 0 0 0 0 0 0 0 0 0 0 0 0 0 0 0 0 0 0 0 0 0 0 0 0 0 0 0 0 0 0 0 0 0 0 0 0 0 0 0 0 0 0 0 0 0 0 0 0 0 0 0 0 0 0 0 0 0 0 0 0 0 0 0 0 0 0 0 0 0 0 0 0 0 0 0 0 0 0 0 0 0 0 0 0 0 0 0 0 0 0 0 0 0 0 0 0 0 0 0 0 
0 0 0 0 0 0 0 0 0 0 0 0 0 0 0 0 0 0 0 0 0 0 0 0 0 0 0 0 0 0 0 0 0 0 0 0 0 0 0 0 0 0 0 0 0 0 0 0 0 0 0 0 0 0 0 0 0 0 0 0 0 0 0 0 0 0 0 0 0 0 0 0 0 0 0 0 0 0 0 0 0 0 0 0 0 0 0 0 0 0 0 0 0 0 0 0 0 0 0 0 0 0 0 0 0 0 0 0 0 0 0 0 0 0 0 0 0 0 0 0 0 0 0 0 0 0 0 0 0 0 0 0 0 0 0 0 0 0 0 0 0 0 0 0 0 0 0 0 0 0 0 0 0 0 0 0 0 0 0 0 0 0 0 0 0 0 0 0 0 0 0 0 0 0 0 0 0 0 0 0 
0 0 0 0 0 0 0 0 0 0 0 0 0 0 0 0 0 0 0 0 0 0 0 0 0 0 0 0 0 0 0 0 0 0 0 0 0 0 0 0 0 0 0 0 0 0 0 0 0 0 0 0 0 0 0 0 0 0 0 0 0 0 0 0 0 0 0 0 0 0 0 0 0 0 0 0 0 0 0 0 0 0 0 0 0 0 0 0 0 0 0 0 0 0 0 0 0 0 0 0 0 0 0 0 0 0 0 0 0 0 0 0 0 0 0 0 0 0 0 0 0 0 0 0 0 0 0 0 0 0 0 0 0 0 0 0 0 0 0 0 0 0 0 0 0 0 0 0 0 0 0 0 0 0 0 0 0 0 0 0 0 0 0 0 0 0 0 0 0 0 0 0 0 0 0 0 0 0 0 0 
0 0 0 0 0 0 0 0 0 0 0 0 0 0 0 0 0 0 0 0 0 0 0 0 0 0 0 0 0 0 0 0 0 0 0 0 0 0 0 0 0 0 0 0 0 0 0 0 0 0 0 0 0 0 0 0 0 0 0 0 0 0 0 0 0 0 0 0 0 0 0 0 0 0 0 0 0 0 0 0 0 0 0 0 0 0 0 0 0 0 0 0 0 0 0 0 0 0 0 0 0 0 0 0 0 0 0 0 0 0 0 0 0 0 0 0 0 0 0 0 0 0 0 0 0 0 0 0 0 0 0 0 0 0 0 0 0 0 0 0 0 0 0 0 0 0 0 0 0 0 0 0 0 0 0 0 0 0 0 0 0 0 0 0 0 0 0 0 0 0 0 0 0 0 0 0 0 0 0 0 
0 0 0 0 0 0 0 0 0 0 0 0 0 0 0 0 0 0 0 0 0 0 0 0 0 0 0 0 0 0 0 0 0 0 0 0 0 0 0 0 0 0 0 0 0 0 0 0 0 0 0 0 0 0 0 0 0 0 0 0 0 0 0 0 0 0 0 0 0 0 0 0 0 0 0 0 0 0 0 0 0 0 0 0 0 0 0 0 0 0 0 0 0 0 0 0 0 0 0 0 0 0 0 0 0 0 0 0 0 0 0 0 0 0 0 0 0 0 0 0 0 0 0 0 0 0 0 0 0 0 0 0 0 0 0 0 0 0 0 0 0 0 0 0 0 0 0 0 0 0 0 0 0 0 0 0 0 0 0 0 0 0 0 0 0 0 0 0 0 0 0 0 0 0 0 0 0 0 0 0 
0 0 0 0 0 0 0 0 0 0 0 0 0 0 0 0 0 0 0 0 0 0 0 0 0 0 0 0 0 0 0 0 0 0 0 0 0 0 0 0 0 0 0 0 0 0 0 0 0 0 0 0 0 0 0 0 0 0 0 0 0 0 0 0 0 0 0 0 0 0 0 0 0 0 0 0 0 0 0 0 0 0 0 0 0 0 0 0 0 0 0 0 0 0 0 0 0 0 0 0 0 0 0 0 0 0 0 0 0 0 0 0 0 0 0 0 0 0 0 0 0 0 0 0 0 0 0 0 0 0 0 0 0 0 0 0 0 0 0 0 0 0 0 0 0 0 0 0 0 0 0 0 0 0 0 0 0 0 0 0 0 0 0 0 0 0 0 0 0 0 0 0 0 0 0 0 0 0 0 0 
0 0 0 0 0 0 0 0 0 0 0 0 0 0 0 0 0 0 0 0 0 0 0 0 0 0 0 0 0 0 0 0 0 0 0 0 0 0 0 0 0 0 0 0 0 0 0 0 0 0 0 0 0 0 0 0 0 0 0 0 0 0 0 0 0 0 0 0 0 0 0 0 0 0 0 0 0 0 0 0 0 0 0 0 0 0 0 0 0 0 0 0 0 0 0 0 0 0 0 0 0 0 0 0 0 0 0 0 0 0 0 0 0 0 0 0 0 0 0 0 0 0 0 0 0 0 0 0 0 0 0 0 0 0 0 0 0 0 0 0 0 0 0 0 0 0 0 0 0 0 0 0 0 0 0 0 0 0 0 0 0 0 0 0 0 0 0 0 0 0 0 0 0 0 0 0 0 0 0 0 
0 0 0 0 0 0 0 0 0 0 0 0 0 0 0 0 0 0 0 0 0 0 0 0 0 0 0 0 0 0 0 0 0 0 0 0 0 0 0 0 0 0 0 0 0 0 0 0 0 0 0 0 0 0 0 0 0 0 0 0 0 0 0 0 0 0 0 0 0 0 0 0 0 0 0 0 0 0 0 0 0 0 0 0 0 0 0 0 0 0 0 0 0 0 0 0 0 0 0 0 0 0 0 0 0 0 0 0 0 0 0 0 0 0 0 0 0 0 0 0 0 0 0 0 0 0 0 0 0 0 0 0 0 0 0 0 0 0 0 0 0 0 0 0 0 0 0 0 0 0 0 0 0 0 0 0 0 0 0 0 0 0 0 0 0 0 0 0 0 0 0 0 0 0 0 0 0 0 0 0 
0 0 0 0 0 0 0 0 0 0 0 0 0 0 0 0 0 0 0 0 0 0 0 0 0 0 0 0 0 0 0 0 0 0 0 0 0 0 0 0 0 0 0 0 0 0 0 0 0 0 0 0 0 0 0 0 0 0 0 0 0 0 0 0 0 0 0 0 0 0 0 0 0 0 0 0 0 0 0 0 0 0 0 0 0 0 0 0 0 0 0 0 0 0 0 0 0 0 0 0 0 0 0 0 0 0 0 0 0 0 0 0 0 0 0 0 0 0 0 0 0 0 0 0 0 0 0 0 0 0 0 0 0 0 0 0 0 0 0 0 0 0 0 0 0 0 0 0 0 0 0 0 0 0 0 0 0 0 0 0 0 0 0 0 0 0 0 0 0 0 0 0 0 0 0 0 0 0 0 0 
0 0 0 0 0 0 0 0 0 0 0 0 0 0 0 0 0 0 0 0 0 0 0 0 0 0 0 0 0 0 0 0 0 0 0 0 0 0 0 0 0 0 0 0 0 0 0 0 0 0 0 0 0 0 0 0 0 0 0 0 0 0 0 0 0 0 0 0 0 0 0 0 0 0 0 0 0 0 0 0 0 0 0 0 0 0 0 0 0 0 0 0 0 0 0 0 0 0 0 0 0 0 0 0 0 0 0 0 0 0 0 0 0 0 0 0 0 0 0 0 0 0 0 0 0 0 0 0 0 0 0 0 0 0 0 0 0 0 0 0 0 0 0 0 0 0 0 0 0 0 0 0 0 0 0 0 0 0 0 0 0 0 0 0 0 0 0 0 0 0 0 0 0 0 0 0 0 0 0 0 
0 0 0 0 0 0 0 0 0 0 0 0 0 0 0 0 0 0 0 0 0 0 0 0 0 0 0 0 0 0 398 0 0 782 0 0 785 0 0 770 0 0 813 0 0 794 0 0 788 0 0 760 0 0 792 0 0 810 0 0 747 0 0 740 0 0 715 0 0 772 0 0 779 0 0 787 0 0 786 0 0 827 0 0 767 0 0 787 0 0 754 0 0 789 0 0 771 0 0 773 0 0 784 0 0 748 0 0 814 0 0 757 0 0 774 0 0 777 0 0 739 0 0 794 0 0 879 0 0 782 0 0 786 0 0 813 0 0 836 0 0 848 0 0 720 0 0 801 0 0 415 0 0 0 0 0 0 0 0 0 0 0 0 0 0 0 0 0 0 0 0 0 0 0 0 0 0 0 0 0 
0 0 0 0 0 0 0 0 0 0 0 0 0 0 0 0 0 0 0 0 0 0 0 0 0 0 0 0 0 0 789 0 0 1606 0 0 1585 0 0 1551 0 0 1609 0 0 1554 0 0 1591 0 0 1498 0 0 1538 0 0 1544 0 0 1655 0 0 1533 0 0 1464 0 0 1568 0 0 1577 0 0 1463 0 0 1529 0 0 1561 0 0 1515 0 0 1580 0 0 1579 0 0 1548 0 0 1584 0 0 1559 0 0 1584 0 0 1551 0 0 1615 0 0 1588 0 0 1564 0 0 1566 0 0 1531 0 0 1621 0 0 1550 0 0 1601 0 0 1588 0 0 1472 0 0 1570 0 0 1600 0 0 1554 0 0 1543 0 0 771 0 0 0 0 0 0 0 0 0 0 0 0 0 0 0 0 0 0 0 0 0 0 0 0 0 0 0 0 0 
0 0 0 0 0 0 0 0 0 0 0 0 0 0 0 0 0 0 0 0 0 0 0 0 0 0 0 0 0 0 776 0 0 1602 0 0 1549 0 0 1546 0 0 1499 0 0 1559 0 0 1613 0 0 1566 0 0 1651 0 0 1557 0 0 1596 0 0 1511 0 0 1568 0 0 1540 0 0 1623 0 0 1576 0 0 1570 0 0 1576 0 0 1664 0 0 1546 0 0 1549 0 0 1528 0 0 1529 0 0 1530 0 0 1579 0 0 1612 0 0 1574 0 0 1533 0 0 1561 0 0 1590 0 0 1583 0 0 1545 0 0 1598 0 0 1651 0 0 1512 0 0 1524 0 0 1595 0 0 1556 0 0 1504 0 0 1570 0 0 770 0 0 0 0 0 0 0 0 0 0 0 0 0 0 0 0 0 0 0 0 0 0 0 0 0 0 0 0 0 
0 0 0 0 0 0 0 0 0 0 0 0 0 0 0 0 0 0 0 0 0 0 0 0 0 0 0 0 0 0 791 0 0 1545 0 0 1569 0 0 1637 0 0 1487 0 0 1535 0 0 1509 0 0 1529 0 0 1504 0 0 1541 0 0 1499 0 0 1572 0 0 1535 0 0 1511 0 0 1517 0 0 1623 0 0 1551 0 0 1585 0 0 1579 0 0 1544 0 0 1558 0 0 1506 0 0 1525 0 0 1575 0 0 1579 0 0 1556 0 0 1585 0 0 1637 0 0 1549 0 0 1534 0 0 1499 0 0 1556 0 0 1532 0 0 1585 0 0 1594 0 0 1602 0 0 1512 0 0 1520 0 0 1579 0 0 1573 0 0 738 0 0 0 0 0 0 0 0 0 0 0 0 0 0 0 0 0 0 0 0 0 0 0 0 0 0 0 0 0 
0 0 0 0 0 0 0 0 0 0 0 0 0 0 0 0 0 0 0 0 0 0 0 0 0 0 0 0 0 0 809 0 0 1572 0 0 1555 0 0 1530 0 0 1539 0 0 1585 0 0 1565 0 0 1498 0 0 1555 0 0 1617 0 0 1624 0 0 1543 0 0 1538 0 0 1543 0 0 1615 0 0 1572 0 0 1536 0 0 1599 0 0 1506 0 0 1516 0 0 1525 0 0 1533 0 0 1554 0 0 1574 0 0 1555 0 0 1640 0 0 1588 0 0 1595 0 0 1523 0 0 1624 0 0 1512 0 0 1561 0 0 1549 0 0 1580 0 0 1579 0 0 1589 0 0 1556 0 0 1584 0 0 1568 0 0 1599 0 0 799 0 0 0 0 0 0 0 0 0 0 0 0 0 0 0 0 0 0 0 0 0 0 0 0 0 0 0 0 0 
0 0 0 0 0 0 0 0 0 0 0 0 0 0 0 0 0 0 0 0 0 0 0 0 0 0 0 0 0 0 758 0 0 1626 0 0 1555 0 0 1541 0 0 1559 0 0 1587 0 0 1571 0 0 1586 0 0 1563 0 0 1566 0 0 1605 0 0 1589 0 0 1553 0 0 1561 0 0 1534 0 0 1616 0 0 1531 0 0 1570 0 0 1498 0 0 1534 0 0 1515 0 0 1564 0 0 1649 0 0 1539 0 0 1573 0 0 1547 0 0 1563 0 0 1511 0 0 1578 0 0 1541 0 0 1611 0 0 1554 0 0 1579 0 0 1520 0 0 1583 0 0 1571 0 0 1551 0 0 1588 0 0 1534 0 0 1530 0 0 790 0 0 0 0 0 0 0 0 0 0 0 0 0 0 0 0 0 0 0 0 0 0 0 0 0 0 0 0 0 
0 0 0 0 0 0 0 0 0 0 0 0 0 0 0 0 0 0 0 0 0 0 0 0 0 0 0 0 0 0 782 0 0 1672 0 0 1589 0 0 1558 0 0 1593 0 0 1520 0 0 1543 0 0 1639 0 0 1591 0 0 1601 0 0 1545 0 0 1632 0 0 1581 0 0 1615 0 0 1598 0 0 1514 0 0 1648 0 0 1574 0 0 1613 0 0 1473 0 0 1475 0 0 1558 0 0 1595 0 0 1625 0 0 1619 0 0 1465 0 0 1516 0 0 1572 0 0 1558 0 0 1501 0 0 1531 0 0 1560 0 0 1519 0 0 1605 0 0 1590 0 0 1480 0 0 1509 0 0 1585 0 0 1539 0 0 1499 0 0 786 0 0 0 0 0 0 0 0 0 0 0 0 0 0 0 0 0 0 0 0 0 0 0 0 0 0 0 0 0 
0 0 0 0 0 0 0 0 0 0 0 0 0 0 0 0 0 0 0 0 0 0 0 0 0 0 0 0 0 0 754 0 0 1596 0 0 1565 0 0 1522 0 0 1555 0 0 1617 0 0 1441 0 0 1576 0 0 1470 0 0 1554 0 0 1553 0 0 1517 0 0 1593 0 0 1510 0 0 1549 0 0 1657 0 0 1517 0 0 1662 0 0 1514 0 0 1550 0 0 1597 0 0 1462 0 0 1639 0 0 1587 0 0 1605 0 0 1565 0 0 1578 0 0 1551 0 0 1570 0 0 1555 0 0 1616 0 0 1535 0 0 1522 0 0 1640 0 0 1589 0 0 1590 0 0 1606 0 0 1584 0 0 1559 0 0 1549 0 0 718 0 0 0 0 0 0 0 0 0 0 0 0 0 0 0 0 0 0 0 0 0 0 0 0 0 0 0 0 0 
0 0 0 0 0 0 0 0 0 0 0 0 0 0 0 0 0 0 0 0 0 0 0 0 0 0 0 0 0 0 808 0 0 1620 0 0 1567 0 0 1607 0 0 1590 0 0 1587 0 0 1505 0 0 1568 0 0 1527 0 0 1534 0 0 1598 0 0 1589 0 0 1526 0 0 1609 0 0 1572 0 0 1612 0 0 1587 0 0 1560 0 0 1601 0 0 1654 0 0 1520 0 0 1531 0 0 1512 0 0 1536 0 0 1573 0 0 1543 0 0 1505 0 0 1529 0 0 1581 0 0 1567 0 0 1639 0 0 1646 0 0 1523 0 0 1589 0 0 1592 0 0 1620 0 0 1526 0 0 1568 0 0 1580 0 0 1591 0 0 759 0 0 0 0 0 0 0 0 0 0 0 0 0 0 0 0 0 0 0 0 0 0 0 0 0 0 0 0 0 
0 0 0 0 0 0 0 0 0 0 0 0 0 0 0 0 0 0 0 0 0 0 0 0 0 0 0 0 0 0 804 0 0 1616 0 0 1597 0 0 1591 0 0 1645 0 0 1518 0 0 1640 0 0 1620 0 0 1432 0 0 1623 0 0 1538 0 0 1522 0 0 1609 0 0 1503 0 0 1574 0 0 1549 0 0 1620 0 0 1587 0 0 1501 0 0 1558 0 0 1601 0 0 1526 0 0 1532 0 0 1600 0 0 1566 0 0 1521 0 0 1574 0 0 1555 0 0 1550 0 0 1535 0 0 1582 0 0 1530 0 0 1542 0 0 1596 0 0 1601 0 0 1604 0 0 1553 0 0 1599 0 0 1559 0 0 1559 0 0 804 0 0 0 0 0 0 0 0 0 0 0 0 0 0 0 0 0 0 0 0 0 0 0 0 0 0 0 0 0 
0 0 0 0 0 0 0 0 0 0 0 0 0 0 0 0 0 0 0 0 0 0 0 0 0 0 0 0 0 0 772 0 0 1491 0 0 1553 0 0 1543 0 0 1489 0 0 1605 0 0 1513 0 0 1528 0 0 1541 0 0 1544 0 0 1620 0 0 1516 0 0 1553 0 0 1570 0 0 1583 0 0 1563 0 0 1589 0 0 1567 0 0 1511 0 0 1548 0 0 1534 0 0 1515 0 0 1633 0 0 1631 0 0 1591 0 0 1541 0 0 1473 0 0 1571 0 0 1496 0 0 1573 0 0 1567 0 0 1554 0 0 1544 0 0 1515 0 0 1576 0 0 1591 0 0 1516 0 0 1548 0 0 1664 0 0 1577 0 0 807 0 0 0 0 0 0 0 0 0 0 0 0 0 0 0 0 0 0 0 0 0 0 0 0 0 0 0 0 0 
0 0 0 0 0 0 0 0 0 0 0 0 0 0 0 0 0 0 0 0 0 0 0 0 0 0 0 0 0 0 752 0 0 1515 0 0 1631 0 0 1513 0 0 1562 0 0 1534 0 0 1511 0 0 1615 0 0 1524 0 0 1530 0 0 1616 0 0 1560 0 0 1469 0 0 1608 0 0 1570 0 0 1550 0 0 1507 0 0 1633 0 0 1586 0 0 1540 0 0 1550 0 0 1564 0 0 1609 0 0 1488 0 0 1570 0 0 1616 0 0 1478 0 0 1466 0 0 1530 0 0 1453 0 0 1572 0 0 1523 0 0 1529 0 0 1516 0 0 1561 0 0 1544 0 0 1570 0 0 1532 0 0 1570 0 0 1632 0 0 833 0 0 0 0 0 0 0 0 0 0 0 0 0 0 0 0 0 0 0 0 0 0 0 0 0 0 0 0 0 
0 0 0 0 0 0 0 0 0 0 0 0 0 0 0 0 0 0 0 0 0 0 0 0 0 0 0 0 0 0 799 0 0 1590 0 0 1568 0 0 1573 0 0 1573 0 0 1582 0 0 1565 0 0 1559 0 0 1525 0 0 1550 0 0 1592 0 0 1625 0 0 1595 0 0 1539 0 0 1545 0 0 1528 0 0 1561 0 0 1565 0 0 1532 0 0 1558 0 0 1562 0 0 1623 0 0 1577 0 0 1607 0 0 1517 0 0 1559 0 0 1547 0 0 1570 0 0 1525 0 0 1563 0 0 1465 0 0 1596 0 0 1572 0 0 1530 0 0 1456 0 0 1508 0 0 1546 0 0 1534 0 0 1493 0 0 1581 0 0 779 0 0 0 0 0 0 0 0 0 0 0 0 0 0 0 0 0 0 0 0 0 0 0 0 0 0 0 0 0 
0 0 0 0 0 0 0 0 0 0 0 0 0 0 0 0 0 0 0 0 0 0 0 0 0 0 0 0 0 0 785 0 0 1539 0 0 1539 0 0 1569 0 0 1576 0 0 1545 0 0 1623 0 0 1523 0 0 1606 0 0 1559 0 0 1536 0 0 1562 0 0 1522 0 0 1597 0 0 1572 0 0 1662 0 0 1603 0 0 1593 0 0 1545 0 0 1504 0 0 1565 0 0 1633 0 0 1552 0 0 1597 0 0 1591 0 0 1586 0 0 1585 0 0 1565 0 0 1503 0 0 1601 0 0 1486 0 0 1540 0 0 1589 0 0 1582 0 0 1554 0 0 1524 0 0 1528 0 0 1545 0 0 1548 0 0 1618 0 0 795 0 0 0 0 0 0 0 0 0 0 0 0 0 0 0 0 0 0 0 0 0 0 0 0 0 0 0 0 0 
0 0 0 0 0 0 0 0 0 0 0 0 0 0 0 0 0 0 0 0 0 0 0 0 0 0 0 0 0 0 779 0 0 1612 0 0 1601 0 0 1610 0 0 1609 0 0 1555 0 0 1580 0 0 1585 0 0 1589 0 0 1515 0 0 1531 0 0 1495 0 0 1538 0 0 1540 0 0 1530 0 0 1498 0 0 1606 0 0 1571 0 0 1552 0 0 1567 0 0 1547 0 0 1544 0 0 1564 0 0 1561 0 0 1530 0 0 1537 0 0 1580 0 0 1541 0 0 1560 0 0 1625 0 0 1589 0 0 1637 0 0 1588 0 0 1558 0 0 1575 0 0 1570 0 0 1559 0 0 1594 0 0 1572 0 0 1505 0 0 772 0 0 0 0 0 0 0 0 0 0 0 0 0 0 0 0 0 0 0 0 0 0 0 0 0 0 0 0 0 
0 0 0 0 0 0 0 0 0 0 0 0 0 0 0 0 0 0 0 0 0 0 0 0 0 0 0 0 0 0 781 0 0 1580 0 0 1544 0 0 1550 0 0 1607 0 0 1541 0 0 1574 0 0 1599 0 0 1600 0 0 1596 0 0 1604 0 0 1506 0 0 1561 0 0 1597 0 0 1592 0 0 1561 0 0 1584 0 0 1555 0 0 1516 0 0 1610 0 0 1618 0 0 1613 0 0 1577 0 0 1575 0 0 1609 0 0 1572 0 0 1520 0 0 1616 0 0 1563 0 0 1514 0 0 1554 0 0 1519 0 0 1585 0 0 1549 0 0 1653 0 0 1563 0 0 1546 0 0 1580 0 0 1519 0 0 1507 0 0 785 0 0 0 0 0 0 0 0 0 0 0 0 0 0 0 0 0 0 0 0 0 0 0 0 0 0 0 0 0 
0 0 0 0 0 0 0 0 0 0 0 0 0 0 0 0 0 0 0 0 0 0 0 0 0 0 0 0 0 0 808 0 0 1536 0 0 1632 0 0 1564 0 0 1612 0 0 1560 0 0 1590 0 0 1533 0 0 1571 0 0 1552 0 0 1522 0 0 1501 0 0 1562 0 0 1586 0 0 1565 0 0 1582 0 0 1530 0 0 1542 0 0 1557 0 0 1501 0 0 1583 0 0 1531 0 0 1561 0 0 1540 0 0 1610 0 0 1551 0 0 1610 0 0 1591 0 0 1524 0 0 1551 0 0 1567 0 0 1632 0 0 1570 0 0 1570 0 0 1595 0 0 1602 0 0 1618 0 0 1574 0 0 1543 0 0 1556 0 0 807 0 0 0 0 0 0 0 0 0 0 0 0 0 0 0 0 0 0 0 0 0 0 0 0 0 0 0 0 0 
0 0 0 0 0 0 0 0 0 0 0 0 0 0 0 0 0 0 0 0 0 0 0 0 0 0 0 0 0 0 785 0 0 1476 0 0 1580 0 0 1543 0 0 1527 0 0 1599 0 0 1537 0 0 1529 0 0 1615 0 0 1563 0 0 1579 0 0 1622 0 0 1616 0 0 1481 0 0 1624 0 0 1581 0 0 1518 0 0 1517 0 0 1563 0 0 1543 0 0 1523 0 0 1593 0 0 1541 0 0 1581 0 0 1513 0 0 1515 0 0 1577 0 0 1534 0 0 1547 0 0 1553 0 0 1586 0 0 1524 0 0 1544 0 0 1556 0 0 1582 0 0 1631 0 0 1489 0 0 1607 0 0 1479 0 0 1656 0 0 810 0 0 0 0 0 0 0 0 0 0 0 0 0 0 0 0 0 0 0 0 0 0 0 0 0 0 0 0 0 
0 0 0 0 0 0 0 0 0 0 0 0 0 0 0 0 0 0 0 0 0 0 0 0 0 0 0 0 0 0 811 0 0 1577 0 0 1624 0 0 1490 0 0 1503 0 0 1509 0 0 1641 0 0 1531 0 0 1562 0 0 1561 0 0 1637 0 0 1601 0 0 1553 0 0 1588 0 0 1643 0 0 1601 0 0 1544 0 0 1622 0 0 1571 0 0 1578 0 0 1484 0 0 1584 0 0 1468 0 0 1559 0 0 1535 0 0 1577 0 0 1534 0 0 1575 0 0 1583 0 0 1581 0 0 1596 0 0 1523 0 0 1608 0 0 1558 0 0 1608 0 0 1547 0 0 1645 0 0 1588 0 0 1527 0 0 1594 0 0 735 0 0 0 0 0 0 0 0 0 0 0 0 0 0 0 0 0 0 0 0 0 0 0 0 0 0 0 0 0 
0 0 0 0 0 0 0 0 0 0 0 0 0 0 0 0 0 0 0 0 0 0 0 0 0 0 0 0 0 0 809 0 0 1551 0 0 1563 0 0 1614 0 0 1606 0 0 1609 0 0 1585 0 0 1555 0 0 1637 0 0 1528 0 0 1569 0 0 1552 0 0 1474 0 0 1511 0 0 1593 0 0 1525 0 0 1610 0 0 1575 0 0 1563 0 0 1570 0 0 1629 0 0 1581 0 0 1642 0 0 1541 0 0 1592 0 0 1573 0 0 1599 0 0 1541 0 0 1510 0 0 1556 0 0 1586 0 0 1569 0 0 1545 0 0 1602 0 0 1541 0 0 1539 0 0 1546 0 0 1537 0 0 1536 0 0 1607 0 0 809 0 0 0 0 0 0 0 0 0 0 0 0 0 0 0 0 0 0 0 0 0 0 0 0 0 0 0 0 0 
0 0 0 0 0 0 0 0 0 0 0 0 0 0 0 0 0 0 0 0 0 0 0 0 0 0 0 0 0 0 791 0 0 1603 0 0 1613 0 0 1525 0 0 1504 0 0 1544 0 0 1596 0 0 1593 0 0 1554 0 0 1560 0 0 1544 0 0 1539 0 0 1547 0 0 1539 0 0 1581 0 0 1591 0 0 1597 0 0 1507 0 0 1567 0 0 1568 0 0 1575 0 0 1580 0 0 1537 0 0 1631 0 0 1578 0 0 1568 0 0 1636 0 0 1552 0 0 1543 0 0 1489 0 0 1581 0 0 1527 0 0 1607 0 0 1567 0 0 1538 0 0 1566 0 0 1597 0 0 1485 0 0 1639 0 0 1586 0 0 798 0 0 0 0 0 0 0 0 0 0 0 0 0 0 0 0 0 0 0 0 0 0 0 0 0 0 0 0 0 
0 0 0 0 0 0 0 0 0 0 0 0 0 0 0 0 0 0 0 0 0 0 0 0 0 0 0 0 0 0 751 0 0 1517 0 0 1528 0 0 1559 0 0 1538 0 0 1671 0 0 1466 0 0 1597 0 0 1524 0 0 1631 0 0 1579 0 0 1546 0 0 1566 0 0 1534 0 0 1565 0 0 1582 0 0 1535 0 0 1656 0 0 1519 0 0 1625 0 0 1527 0 0 1546 0 0 1588 0 0 1563 0 0 1595 0 0 1568 0 0 1507 0 0 1575 0 0 1527 0 0 1553 0 0 1549 0 0 1575 0 0 1601 0 0 1581 0 0 1553 0 0 1552 0 0 1586 0 0 1524 0 0 1579 0 0 1588 0 0 785 0 0 0 0 0 0 0 0 0 0 0 0 0 0 0 0 0 0 0 0 0 0 0 0 0 0 0 0 0 
0 0 0 0 0 0 0 0 0 0 0 0 0 0 0 0 0 0 0 0 0 0 0 0 0 0 0 0 0 0 783 0 0 1552 0 0 1573 0 0 1542 0 0 1504 0 0 1551 0 0 1577 0 0 1566 0 0 1560 0 0 1605 0 0 1518 0 0 1544 0 0 1604 0 0 1598 0 0 1516 0 0 1566 0 0 1646 0 0 1539 0 0 1616 0 0 1549 0 0 1653 0 0 1619 0 0 1566 0 0 1592 0 0 1608 0 0 1530 0 0 1519 0 0 1529 0 0 1489 0 0 1549 0 0 1579 0 0 1494 0 0 1586 0 0 1591 0 0 1579 0 0 1577 0 0 1573 0 0 1538 0 0 1621 0 0 1560 0 0 805 0 0 0 0 0 0 0 0 0 0 0 0 0 0 0 0 0 0 0 0 0 0 0 0 0 0 0 0 0 
0 0 0 0 0 0 0 0 0 0 0 0 0 0 0 0 0 0 0 0 0 0 0 0 0 0 0 0 0 0 789 0 0 1535 0 0 1524 0 0 1581 0 0 1599 0 0 1491 0 0 1498 0 0 1617 0 0 1539 0 0 1564 0 0 1623 0 0 1555 0 0 1618 0 0 1603 0 0 1622 0 0 1534 0 0 1561 0 0 1559 0 0 1576 0 0 1556 0 0 1568 0 0 1610 0 0 1517 0 0 1576 0 0 1565 0 0 1565 0 0 1572 0 0 1606 0 0 1567 0 0 1554 0 0 1501 0 0 1576 0 0 1512 0 0 1587 0 0 1553 0 0 1478 0 0 1551 0 0 1577 0 0 1628 0 0 1545 0 0 845 0 0 0 0 0 0 0 0 0 0 0 0 0 0 0 0 0 0 0 0 0 0 0 0 0 0 0 0 0 
0 0 0 0 0 0 0 0 0 0 0 0 0 0 0 0 0 0 0 0 0 0 0 0 0 0 0 0 0 0 743 0 0 1557 0 0 1499 0 0 1514 0 0 1531 0 0 1573 0 0 1536 0 0 1534 0 0 1573 0 0 1579 0 0 1557 0 0 1573 0 0 1539 0 0 1592 0 0 1534 0 0 1541 0 0 1597 0 0 1544 0 0 1629 0 0 1609 0 0 1578 0 0 1629 0 0 1624 0 0 1594 0 0 1552 0 0 1530 0 0 1569 0 0 1587 0 0 1570 0 0 1630 0 0 1579 0 0 1638 0 0 1637 0 0 1555 0 0 1556 0 0 1556 0 0 1595 0 0 1495 0 0 1580 0 0 1603 0 0 781 0 0 0 0 0 0 0 0 0 0 0 0 0 0 0 0 0 0 0 0 0 0 0 0 0 0 0 0 0 
0 0 0 0 0 0 0 0 0 0 0 0 0 0 0 0 0 0 0 0 0 0 0 0 0 0 0 0 0 0 758 0 0 1592 0 0 1539 0 0 1556 0 0 1535 0 0 1570 0 0 1546 0 0 1638 0 0 1616 0 0 1557 0 0 1570 0 0 1562 0 0 1613 0 0 1631 0 0 1504 0 0 1608 0 0 1607 0 0 1587 0 0 1551 0 0 1556 0 0 1594 0 0 1502 0 0 1544 0 0 1577 0 0 1639 0 0 1526 0 0 1504 0 0 1508 0 0 1616 0 0 1620 0 0 1554 0 0 1563 0 0 1627 0 0 1564 0 0 1567 0 0 1550 0 0 1632 0 0 1577 0 0 1516 0 0 1572 0 0 770 0 0 0 0 0 0 0 0 0 0 0 0 0 0 0 0 0 0 0 0 0 0 0 0 0 0 0 0 0 
0 0 0 0 0 0 0 0 0 0 0 0 0 0 0 0 0 0 0 0 0 0 0 0 0 0 0 0 0 0 714 0 0 1545 0 0 1620 0 0 1579 0 0 1605 0 0 1572 0 0 1526 0 0 1652 0 0 1581 0 0 1560 0 0 1595 0 0 1579 0 0 1531 0 0 1533 0 0 1536 0 0 1564 0 0 1537 0 0 1574 0 0 1544 0 0 1518 0 0 1598 0 0 1621 0 0 1530 0 0 1601 0 0 1546 0 0 1575 0 0 1555 0 0 1608 0 0 1609 0 0 1548 0 0 1619 0 0 1573 0 0 1499 0 0 1561 0 0 1545 0 0 1537 0 0 1511 0 0 1579 0 0 1591 0 0 1589 0 0 782 0 0 0 0 0 0 0 0 0 0 0 0 0 0 0 0 0 0 0 0 0 0 0 0 0 0 0 0 0 
0 0 0 0 0 0 0 0 0 0 0 0 0 0 0 0 0 0 0 0 0 0 0 0 0 0 0 0 0 0 727 0 0 1542 0 0 1530 0 0 1535 0 0 1566 0 0 1568 0 0 1623 0 0 1449 0 0 1523 0 0 1551 0 0 1586 0 0 1566 0 0 1570 0 0 1562 0 0 1525 0 0 1582 0 0 1508 0 0 1522 0 0 1500 0 0 1609 0 0 1524 0 0 1573 0 0 1512 0 0 1586 0 0 1576 0 0 1531 0 0 1601 0 0 1585 0 0 1502 0 0 1552 0 0 1549 0 0 1584 0 0 1538 0 0 1606 0 0 1587 0 0 1509 0 0 1644 0 0 1533 0 0 1572 0 0 1570 0 0 754 0 0 0 0 0 0 0 0 0 0 0 0 0 0 0 0 0 0 0 0 0 0 0 0 0 0 0 0 0 
0 0 0 0 0 0 0 0 0 0 0 0 0 0 0 0 0 0 0 0 0 0 0 0 0 0 0 0 0 0 776 0 0 1551 0 0 1629 0 0 1650 0 0 1580 0 0 1570 0 0 1560 0 0 1576 0 0 1598 0 0 1621 0 0 1559 0 0 1587 0 0 1618 0 0 1629 0 0 1528 0 0 1538 0 0 1641 0 0 1496 0 0 1637 0 0 1493 0 0 1552 0 0 1524 0 0 1588 0 0 1684 0 0 1636 0 0 1525 0 0 1606 0 0 1573 0 0 1478 0 0 1608 0 0 1606 0 0 1584 0 0 1554 0 0 1554 0 0 1534 0 0 1608 0 0 1522 0 0 1630 0 0 1532 0 0 1547 0 0 772 0 0 0 0 0 0 0 0 0 0 0 0 0 0 0 0 0 0 0 0 0 0 0 0 0 0 0 0 0 
0 0 0 0 0 0 0 0 0 0 0 0 0 0 0 0 0 0 0 0 0 0 0 0 0 0 0 0 0 0 751 0 0 1625 0 0 1565 0 0 1542 0 0 1596 0 0 1530 0 0 1565 0 0 1606 0 0 1523 0 0 1562 0 0 1588 0 0 1596 0 0 1546 0 0 1469 0 0 1592 0 0 1600 0 0 1584 0 0 1529 0 0 1559 0 0 1484 0 0 1552 0 0 1548 0 0 1577 0 0 1548 0 0 1551 0 0 1526 0 0 1527 0 0 1589 0 0 1609 0 0 1551 0 0 1597 0 0 1553 0 0 1577 0 0 1583 0 0 1512 0 0 1562 0 0 1596 0 0 1555 0 0 1570 0 0 1480 0 0 780 0 0 0 0 0 0 0 0 0 0 0 0 0 0 0 0 0 0 0 0 0 0 0 0 0 0 0 0 0 
0 0 0 0 0 0 0 0 0 0 0 0 0 0 0 0 0 0 0 0 0 0 0 0 0 0 0 0 0 0 796 0 0 1586 0 0 1610 0 0 1522 0 0 1577 0 0 1500 0 0 1607 0 0 1467 0 0 1508 0 0 1560 0 0 1613 0 0 1592 0 0 1589 0 0 1508 0 0 1606 0 0 1557 0 0 1571 0 0 1566 0 0 1563 0 0 1577 0 0 1572 0 0 1575 0 0 1561 0 0 1596 0 0 1522 0 0 1548 0 0 1568 0 0 1566 0 0 1520 0 0 1559 0 0 1509 0 0 1537 0 0 1495 0 0 1496 0 0 1579 0 0 1548 0 0 1595 0 0 1512 0 0 1592 0 0 1514 0 0 816 0 0 0 0 0 0 0 0 0 0 0 0 0 0 0 0 0 0 0 0 0 0 0 0 0 0 0 0 0 
0 0 0 0 0 0 0 0 0 0 0 0 0 0 0 0 0 0 0 0 0 0 0 0 0 0 0 0 0 0 772 0 0 1614 0 0 1591 0 0 1595 0 0 1575 0 0 1569 0 0 1570 0 0 1655 0 0 1569 0 0 1578 0 0 1588 0 0 1602 0 0 1518 0 0 1581 0 0 1532 0 0 1563 0 0 1538 0 0 1533 0 0 1550 0 0 1605 0 0 1562 0 0 1504 0 0 1583 0 0 1550 0 0 1615 0 0 1646 0 0 1564 0 0 1604 0 0 1538 0 0 1525 0 0 1536 0 0 1579 0 0 1523 0 0 1605 0 0 1567 0 0 1508 0 0 1561 0 0 1528 0 0 1574 0 0 1655 0 0 798 0 0 0 0 0 0 0 0 0 0 0 0 0 0 0 0 0 0 0 0 0 0 0 0 0 0 0 0 0 
0 0 0 0 0 0 0 0 0 0 0 0 0 0 0 0 0 0 0 0 0 0 0 0 0 0 0 0 0 0 734 0 0 1544 0 0 1577 0 0 1519 0 0 1613 0 0 1579 0 0 1614 0 0 1559 0 0 1608 0 0 1539 0 0 1583 0 0 1561 0 0 1583 0 0 1629 0 0 1511 0 0 1627 0 0 1514 0 0 1442 0 0 1489 0 0 1555 0 0 1596 0 0 1559 0 0 1572 0 0 1512 0 0 1599 0 0 1610 0 0 1610 0 0 1584 0 0 1591 0 0 1556 0 0 1550 0 0 1548 0 0 1466 0 0 1562 0 0 1569 0 0 1512 0 0 1583 0 0 1538 0 0 1494 0 0 1517 0 0 802 0 0 0 0 0 0 0 0 0 0 0 0 0 0 0 0 0 0 0 0 0 0 0 0 0 0 0 0 0 
0 0 0 0 0 0 0 0 0 0 0 0 0 0 0 0 0 0 0 0 0 0 0 0 0 0 0 0 0 0 793 0 0 1558 0 0 1560 0 0 1538 0 0 1556 0 0 1536 0 0 1545 0 0 1610 0 0 1517 0 0 1478 0 0 1552 0 0 1602 0 0 1516 0 0 1600 0 0 1597 0 0 1574 0 0 1523 0 0 1615 0 0 1548 0 0 1608 0 0 1589 0 0 1548 0 0 1548 0 0 1572 0 0 1550 0 0 1629 0 0 1608 0 0 1483 0 0 1562 0 0 1562 0 0 1587 0 0 1555 0 0 1502 0 0 1538 0 0 1586 0 0 1596 0 0 1602 0 0 1604 0 0 1600 0 0 1554 0 0 734 0 0 0 0 0 0 0 0 0 0 0 0 0 0 0 0 0 0 0 0 0 0 0 0 0 0 0 0 0 
0 0 0 0 0 0 0 0 0 0 0 0 0 0 0 0 0 0 0 0 0 0 0 0 0 0 0 0 0 0 775 0 0 1602 0 0 1611 0 0 1579 0 0 1529 0 0 1620 0 0 1596 0 0 1514 0 0 1609 0 0 1593 0 0 1565 0 0 1547 0 0 1591 0 0 1593 0 0 1539 0 0 1553 0 0 1602 0 0 1542 0 0 1547 0 0 1514 0 0 1585 0 0 1575 0 0 1559 0 0 1575 0 0 1584 0 0 1518 0 0 1514 0 0 1541 0 0 1568 0 0 1615 0 0 1559 0 0 1570 0 0 1566 0 0 1510 0 0 1609 0 0 1640 0 0 1529 0 0 1615 0 0 1549 0 0 1580 0 0 857 0 0 0 0 0 0 0 0 0 0 0 0 0 0 0 0 0 0 0 0 0 0 0 0 0 0 0 0 0 
0 0 0 0 0 0 0 0 0 0 0 0 0 0 0 0 0 0 0 0 0 0 0 0 0 0 0 0 0 0 813 0 0 1569 0 0 1562 0 0 1600 0 0 1544 0 0 1619 0 0 1567 0 0 1595 0 0 1568 0 0 1550 0 0 1536 0 0 1551 0 0 1669 0 0 1572 0 0 1654 0 0 1631 0 0 1502 0 0 1474 0 0 1628 0 0 1610 0 0 1519 0 0 1546 0 0 1625 0 0 1601 0 0 1522 0 0 1658 0 0 1539 0 0 1569 0 0 1642 0 0 1583 0 0 1595 0 0 1525 0 0 1553 0 0 1577 0 0 1551 0 0 1520 0 0 1570 0 0 1641 0 0 1584 0 0 1536 0 0 771 0 0 0 0 0 0 0 0 0 0 0 0 0 0 0 0 0 0 0 0 0 0 0 0 0 0 0 0 0 
0 0 0 0 0 0 0 0 0 0 0 0 0 0 0 0 0 0 0 0 0 0 0 0 0 0 0 0 0 0 794 0 0 1502 0 0 1546 0 0 1578 0 0 1544 0 0 1481 0 0 1528 0 0 1522 0 0 1536 0 0 1576 0 0 1535 0 0 1577 0 0 1588 0 0 1540 0 0 1622 0 0 1543 0 0 1594 0 0 1602 0 0 1538 0 0 1628 0 0 1623 0 0 1530 0 0 1547 0 0 1581 0 0 1660 0 0 1550 0 0 1549 0 0 1597 0 0 1544 0 0 1571 0 0 1513 0 0 1539 0 0 1563 0 0 1594 0 0 1560 0 0 1555 0 0 1581 0 0 1537 0 0 1627 0 0 1617 0 0 732 0 0 0 0 0 0 0 0 0 0 0 0 0 0 0 0 0 0 0 0 0 0 0 0 0 0 0 0 0 
0 0 0 0 0 0 0 0 0 0 0 0 0 0 0 0 0 0 0 0 0 0 0 0 0 0 0 0 0 0 771 0 0 1618 0 0 1457 0 0 1597 0 0 1501 0 0 1603 0 0 1544 0 0 1592 0 0 1548 0 0 1582 0 0 1532 0 0 1538 0 0 1587 0 0 1569 0 0 1599 0 0 1563 0 0 1529 0 0 1602 0 0 1500 0 0 1553 0 0 1608 0 0 1545 0 0 1560 0 0 1543 0 0 1626 0 0 1550 0 0 1494 0 0 1527 0 0 1556 0 0 1651 0 0 1609 0 0 1589 0 0 1576 0 0 1480 0 0 1520 0 0 1517 0 0 1576 0 0 1574 0 0 1506 0 0 1570 0 0 822 0 0 0 0 0 0 0 0 0 0 0 0 0 0 0 0 0 0 0 0 0 0 0 0 0 0 0 0 0 
0 0 0 0 0 0 0 0 0 0 0 0 0 0 0 0 0 0 0 0 0 0 0 0 0 0 0 0 0 0 758 0 0 1613 0 0 1582 0 0 1626 0 0 1608 0 0 1546 0 0 1552 0 0 1484 0 0 1509 0 0 1568 0 0 1560 0 0 1502 0 0 1581 0 0 1597 0 0 1550 0 0 1540 0 0 1531 0 0 1562 0 0 1597 0 0 1530 0 0 1523 0 0 1573 0 0 1503 0 0 1564 0 0 1572 0 0 1542 0 0 1575 0 0 1591 0 0 1504 0 0 1503 0 0 1590 0 0 1559 0 0 1519 0 0 1581 0 0 1577 0 0 1549 0 0 1567 0 0 1553 0 0 1510 0 0 1569 0 0 761 0 0 0 0 0 0 0 0 0 0 0 0 0 0 0 0 0 0 0 0 0 0 0 0 0 0 0 0 0 
0 0 0 0 0 0 0 0 0 0 0 0 0 0 0 0 0 0 0 0 0 0 0 0 0 0 0 0 0 0 769 0 0 1662 0 0 1547 0 0 1571 0 0 1567 0 0 1666 0 0 1510 0 0 1504 0 0 1520 0 0 1626 0 0 1552 0 0 1652 0 0 1537 0 0 1511 0 0 1578 0 0 1603 0 0 1602 0 0 1598 0 0 1595 0 0 1554 0 0 1585 0 0 1581 0 0 1585 0 0 1620 0 0 1504 0 0 1501 0 0 1462 0 0 1592 0 0 1583 0 0 1487 0 0 1621 0 0 1536 0 0 1603 0 0 1603 0 0 1563 0 0 1520 0 0 1611 0 0 1598 0 0 1551 0 0 1555 0 0 751 0 0 0 0 0 0 0 0 0 0 0 0 0 0 0 0 0 0 0 0 0 0 0 0 0 0 0 0 0 
0 0 0 0 0 0 0 0 0 0 0 0 0 0 0 0 0 0 0 0 0 0 0 0 0 0 0 0 0 0 411 0 0 793 0 0 786 0 0 810 0 0 795 0 0 811 0 0 778 0 0 788 0 0 815 0 0 761 0 0 778 0 0 766 0 0 774 0 0 760 0 0 807 0 0 816 0 0 705 0 0 795 0 0 789 0 0 801 0 0 821 0 0 771 0 0 753 0 0 837 0 0 792 0 0 758 0 0 719 0 0 752 0 0 772 0 0 817 0 0 788 0 0 735 0 0 770 0 0 768 0 0 790 0 0 763 0 0 806 0 0 805 0 0 774 0 0 796 0 0 391 0 0 0 0 0 0 0 0 0 0 0 0 0 0 0 0 0 0 0 0 0 0 0 0 0 0 0 0 0 
0 0 0 0 0 0 0 0 0 0 0 0 0 0 0 0 0 0 0 0 0 0 0 0 0 0 0 0 0 0 0 0 0 0 0 0 0 0 0 0 0 0 0 0 0 0 0 0 0 0 0 0 0 0 0 0 0 0 0 0 0 0 0 0 0 0 0 0 0 0 0 0 0 0 0 0 0 0 0 0 0 0 0 0 0 0 0 0 0 0 0 0 0 0 0 0 0 0 0 0 0 0 0 0 0 0 0 0 0 0 0 0 0 0 0 0 0 0 0 0 0 0 0 0 0 0 0 0 0 0 0 0 0 0 0 0 0 0 0 0 0 0 0 0 0 0 0 0 0 0 0 0 0 0 0 0 0 0 0 0 0 0 0 0 0 0 0 0 0 0 0 0 0 0 0 0 0 0 0 0 
0 0 0 0 0 0 0 0 0 0 0 0 0 0 0 0 0 0 0 0 0 0 0 0 0 0 0 0 0 0 0 0 0 0 0 0 0 0 0 0 0 0 0 0 0 0 0 0 0 0 0 0 0 0 0 0 0 0 0 0 0 0 0 0 0 0 0 0 0 0 0 0 0 0 0 0 0 0 0 0 0 0 0 0 0 0 0 0 0 0 0 0 0 0 0 0 0 0 0 0 0 0 0 0 0 0 0 0 0 0 0 0 0 0 0 0 0 0 0 0 0 0 0 0 0 0 0 0 0 0 0 0 0 0 0 0 0 0 0 0 0 0 0 0 0 0 0 0 0 0 0 0 0 0 0 0 0 0 0 0 0 0 0 0 0 0 0 0 0 0 0 0 0 0 0 0 0 0 0 0 
0 0 0 0 0 0 0 0 0 0 0 0 0 0 0 0 0 0 0 0 0 0 0 0 0 0 0 0 0 0 0 0 0 0 0 0 0 0 0 0 0 0 0 0 0 0 0 0 0 0 0 0 0 0 0 0 0 0 0 0 0 0 0 0 0 0 0 0 0 0 0 0 0 0 0 0 0 0 0 0 0 0 0 0 0 0 0 0 0 0 0 0 0 0 0 0 0 0 0 0 0 0 0 0 0 0 0 0 0 0 0 0 0 0 0 0 0 0 0 0 0 0 0 0 0 0 0 0 0 0 0 0 0 0 0 0 0 0 0 0 0 0 0 0 0 0 0 0 0 0 0 0 0 0 0 0 0 0 0 0 0 0 0 0 0 0 0 0 0 0 0 0 0 0 0 0 0 0 0 0 
0 0 0 0 0 0 0 0 0 0 0 0 0 0 0 0 0 0 0 0 0 0 0 0 0 0 0 0 0 0 0 0 0 0 0 0 0 0 0 0 0 0 0 0 0 0 0 0 0 0 0 0 0 0 0 0 0 0 0 0 0 0 0 0 0 0 0 0 0 0 0 0 0 0 0 0 0 0 0 0 0 0 0 0 0 0 0 0 0 0 0 0 0 0 0 0 0 0 0 0 0 0 0 0 0 0 0 0 0 0 0 0 0 0 0 0 0 0 0 0 0 0 0 0 0 0 0 0 0 0 0 0 0 0 0 0 0 0 0 0 0 0 0 0 0 0 0 0 0 0 0 0 0 0 0 0 0 0 0 0 0 0 0 0 0 0 0 0 0 0 0 0 0 0 0 0 0 0 0 0 
0 0 0 0 0 0 0 0 0 0 0 0 0 0 0 0 0 0 0 0 0 0 0 0 0 0 0 0 0 0 0 0 0 0 0 0 0 0 0 0 0 0 0 0 0 0 0 0 0 0 0 0 0 0 0 0 0 0 0 0 0 0 0 0 0 0 0 0 0 0 0 0 0 0 0 0 0 0 0 0 0 0 0 0 0 0 0 0 0 0 0 0 0 0 0 0 0 0 0 0 0 0 0 0 0 0 0 0 0 0 0 0 0 0 0 0 0 0 0 0 0 0 0 0 0 0 0 0 0 0 0 0 0 0 0 0 0 0 0 0 0 0 0 0 0 0 0 0 0 0 0 0 0 0 0 0 0 0 0 0 0 0 0 0 0 0 0 0 0 0 0 0 0 0 0 0 0 0 0 0 
0 0 0 0 0 0 0 0 0 0 0 0 0 0 0 0 0 0 0 0 0 0 0 0 0 0 0 0 0 0 0 0 0 0 0 0 0 0 0 0 0 0 0 0 0 0 0 0 0 0 0 0 0 0 0 0 0 0 0 0 0 0 0 0 0 0 0 0 0 0 0 0 0 0 0 0 0 0 0 0 0 0 0 0 0 0 0 0 0 0 0 0 0 0 0 0 0 0 0 0 0 0 0 0 0 0 0 0 0 0 0 0 0 0 0 0 0 0 0 0 0 0 0 0 0 0 0 0 0 0 0 0 0 0 0 0 0 0 0 0 0 0 0 0 0 0 0 0 0 0 0 0 0 0 0 0 0 0 0 0 0 0 0 0 0 0 0 0 0 0 0 0 0 0 0 0 0 0 0 0 
0 0 0 0 0 0 0 0 0 0 0 0 0 0 0 0 0 0 0 0 0 0 0 0 0 0 0 0 0 0 0 0 0 0 0 0 0 0 0 0 0 0 0 0 0 0 0 0 0 0 0 0 0 0 0 0 0 0 0 0 0 0 0 0 0 0 0 0 0 0 0 0 0 0 0 0 0 0 0 0 0 0 0 0 0 0 0 0 0 0 0 0 0 0 0 0 0 0 0 0 0 0 0 0 0 0 0 0 0 0 0 0 0 0 0 0 0 0 0 0 0 0 0 0 0 0 0 0 0 0 0 0 0 0 0 0 0 0 0 0 0 0 0 0 0 0 0 0 0 0 0 0 0 0 0 0 0 0 0 0 0 0 0 0 0 0 0 0 0 0 0 0 0 0 0 0 0 0 0 0 
0 0 0 0 0 0 0 0 0 0 0 0 0 0 0 0 0 0 0 0 0 0 0 0 0 0 0 0 0 0 0 0 0 0 0 0 0 0 0 0 0 0 0 0 0 0 0 0 0 0 0 0 0 0 0 0 0 0 0 0 0 0 0 0 0 0 0 0 0 0 0 0 0 0 0 0 0 0 0 0 0 0 0 0 0 0 0 0 0 0 0 0 0 0 0 0 0 0 0 0 0 0 0 0 0 0 0 0 0 0 0 0 0 0 0 0 0 0 0 0 0 0 0 0 0 0 0 0 0 0 0 0 0 0 0 0 0 0 0 0 0 0 0 0 0 0 0 0 0 0 0 0 0 0 0 0 0 0 0 0 0 0 0 0 0 0 0 0 0 0 0 0 0 0 0 0 0 0 0 0 
0 0 0 0 0 0 0 0 0 0 0 0 0 0 0 0 0 0 0 0 0 0 0 0 0 0 0 0 0 0 0 0 0 0 0 0 0 0 0 0 0 0 0 0 0 0 0 0 0 0 0 0 0 0 0 0 0 0 0 0 0 0 0 0 0 0 0 0 0 0 0 0 0 0 0 0 0 0 0 0 0 0 0 0 0 0 0 0 0 0 0 0 0 0 0 0 0 0 0 0 0 0 0 0 0 0 0 0 0 0 0 0 0 0 0 0 0 0 0 0 0 0 0 0 0 0 0 0 0 0 0 0 0 0 0 0 0 0 0 0 0 0 0 0 0 0 0 0 0 0 0 0 0 0 0 0 0 0 0 0 0 0 0 0 0 0 0 0 0 0 0 0 0 0 0 0 0 0 0 0 
