P3
# This is a dose file slice at depth 27 of 100
60 60
# now we give the maximum value of the RGB coordinates.
1684
0 0 0 0 0 0 0 0 0 0 0 0 0 0 0 0 0 0 0 0 0 0 0 0 0 0 0 0 0 0 0 0 0 0 0 0 0 0 0 0 0 0 0 0 0 0 0 0 0 0 0 0 0 0 0 0 0 0 0 0 0 0 0 0 0 0 0 0 0 0 0 0 0 0 0 0 0 0 0 0 0 0 0 0 0 0 0 0 0 0 0 0 0 0 0 0 0 0 0 0 0 0 0 0 0 0 0 0 0 0 0 0 0 0 0 0 0 0 0 0 0 0 0 0 0 0 0 0 0 0 0 0 0 0 0 0 0 0 0 0 0 0 0 0 0 0 0 0 0 0 0 0 0 0 0 0 0 0 0 0 0 0 0 0 0 0 0 0 0 0 0 0 0 0 0 0 0 0 0 0 
0 0 0 0 0 0 0 0 0 0 0 0 0 0 0 0 0 0 0 0 0 0 0 0 0 0 0 0 0 0 0 0 0 0 0 0 0 0 0 0 0 0 0 0 0 0 0 0 0 0 0 0 0 0 0 0 0 0 0 0 0 0 0 0 0 0 0 0 0 0 0 0 0 0 0 0 0 0 0 0 0 0 0 0 0 0 0 0 0 0 0 0 0 0 0 0 0 0 0 0 0 0 0 0 0 0 0 0 0 0 0 0 0 0 0 0 0 0 0 0 0 0 0 0 0 0 0 0 0 0 0 0 0 0 0 0 0 0 0 0 0 0 0 0 0 0 0 0 0 0 0 0 0 0 0 0 0 0 0 0 0 0 0 0 0 0 0 0 0 0 0 0 0 0 0 0 0 0 0 0 
0 0 0 0 0 0 0 0 0 0 0 0 0 0 0 0 0 0 0 0 0 0 0 0 0 0 0 0 0 0 0 0 0 0 0 0 0 0 0 0 0 0 0 0 0 0 0 0 0 0 0 0 0 0 0 0 0 0 0 0 0 0 0 0 0 0 0 0 0 0 0 0 0 0 0 0 0 0 0 0 0 0 0 0 0 0 0 0 0 0 0 0 0 0 0 0 0 0 0 0 0 0 0 0 0 0 0 0 0 0 0 0 0 0 0 0 0 0 0 0 0 0 0 0 0 0 0 0 0 0 0 0 0 0 0 0 0 0 0 0 0 0 0 0 0 0 0 0 0 0 0 0 0 0 0 0 0 0 0 0 0 0 0 0 0 0 0 0 0 0 0 0 0 0 0 0 0 0 0 0 
0 0 0 0 0 0 0 0 0 0 0 0 0 0 0 0 0 0 0 0 0 0 0 0 0 0 0 0 0 0 0 0 0 0 0 0 0 0 0 0 0 0 0 0 0 0 0 0 0 0 0 0 0 0 0 0 0 0 0 0 0 0 0 0 0 0 0 0 0 0 0 0 0 0 0 0 0 0 0 0 0 0 0 0 0 0 0 0 0 0 0 0 0 0 0 0 0 0 0 0 0 0 0 0 0 0 0 0 0 0 0 0 0 0 0 0 0 0 0 0 0 0 0 0 0 0 0 0 0 0 0 0 0 0 0 0 0 0 0 0 0 0 0 0 0 0 0 0 0 0 0 0 0 0 0 0 0 0 0 0 0 0 0 0 0 0 0 0 0 0 0 0 0 0 0 0 0 0 0 0 
0 0 0 0 0 0 0 0 0 0 0 0 0 0 0 0 0 0 0 0 0 0 0 0 0 0 0 0 0 0 0 0 0 0 0 0 0 0 0 0 0 0 0 0 0 0 0 0 0 0 0 0 0 0 0 0 0 0 0 0 0 0 0 0 0 0 0 0 0 0 0 0 0 0 0 0 0 0 0 0 0 0 0 0 0 0 0 0 0 0 0 0 0 0 0 0 0 0 0 0 0 0 0 0 0 0 0 0 0 0 0 0 0 0 0 0 0 0 0 0 0 0 0 0 0 0 0 0 0 0 0 0 0 0 0 0 0 0 0 0 0 0 0 0 0 0 0 0 0 0 0 0 0 0 0 0 0 0 0 0 0 0 0 0 0 0 0 0 0 0 0 0 0 0 0 0 0 0 0 0 
0 0 0 0 0 0 0 0 0 0 0 0 0 0 0 0 0 0 0 0 0 0 0 0 0 0 0 0 0 0 0 0 0 0 0 0 0 0 0 0 0 0 0 0 0 0 0 0 0 0 0 0 0 0 0 0 0 0 0 0 0 0 0 0 0 0 0 0 0 0 0 0 0 0 0 0 0 0 0 0 0 0 0 0 0 0 0 0 0 0 0 0 0 0 0 0 0 0 0 0 0 0 0 0 0 0 0 0 0 0 0 0 0 0 0 0 0 0 0 0 0 0 0 0 0 0 0 0 0 0 0 0 0 0 0 0 0 0 0 0 0 0 0 0 0 0 0 0 0 0 0 0 0 0 0 0 0 0 0 0 0 0 0 0 0 0 0 0 0 0 0 0 0 0 0 0 0 0 0 0 
0 0 0 0 0 0 0 0 0 0 0 0 0 0 0 0 0 0 0 0 0 0 0 0 0 0 0 0 0 0 0 0 0 0 0 0 0 0 0 0 0 0 0 0 0 0 0 0 0 0 0 0 0 0 0 0 0 0 0 0 0 0 0 0 0 0 0 0 0 0 0 0 0 0 0 0 0 0 0 0 0 0 0 0 0 0 0 0 0 0 0 0 0 0 0 0 0 0 0 0 0 0 0 0 0 0 0 0 0 0 0 0 0 0 0 0 0 0 0 0 0 0 0 0 0 0 0 0 0 0 0 0 0 0 0 0 0 0 0 0 0 0 0 0 0 0 0 0 0 0 0 0 0 0 0 0 0 0 0 0 0 0 0 0 0 0 0 0 0 0 0 0 0 0 0 0 0 0 0 0 
0 0 0 0 0 0 0 0 0 0 0 0 0 0 0 0 0 0 0 0 0 0 0 0 0 0 0 0 0 0 0 0 0 0 0 0 0 0 0 0 0 0 0 0 0 0 0 0 0 0 0 0 0 0 0 0 0 0 0 0 0 0 0 0 0 0 0 0 0 0 0 0 0 0 0 0 0 0 0 0 0 0 0 0 0 0 0 0 0 0 0 0 0 0 0 0 0 0 0 0 0 0 0 0 0 0 0 0 0 0 0 0 0 0 0 0 0 0 0 0 0 0 0 0 0 0 0 0 0 0 0 0 0 0 0 0 0 0 0 0 0 0 0 0 0 0 0 0 0 0 0 0 0 0 0 0 0 0 0 0 0 0 0 0 0 0 0 0 0 0 0 0 0 0 0 0 0 0 0 0 
0 0 0 0 0 0 0 0 0 0 0 0 0 0 0 0 0 0 0 0 0 0 0 0 0 0 0 0 0 0 0 0 0 0 0 0 0 0 0 0 0 0 0 0 0 0 0 0 0 0 0 0 0 0 0 0 0 0 0 0 0 0 0 0 0 0 0 0 0 0 0 0 0 0 0 0 0 0 0 0 0 0 0 0 0 0 0 0 0 0 0 0 0 0 0 0 0 0 0 0 0 0 0 0 0 0 0 0 0 0 0 0 0 0 0 0 0 0 0 0 0 0 0 0 0 0 0 0 0 0 0 0 0 0 0 0 0 0 0 0 0 0 0 0 0 0 0 0 0 0 0 0 0 0 0 0 0 0 0 0 0 0 0 0 0 0 0 0 0 0 0 0 0 0 0 0 0 0 0 0 
0 0 0 0 0 0 0 0 0 0 0 0 0 0 0 0 0 0 0 0 0 0 0 0 0 0 0 0 0 0 0 0 0 0 0 0 0 0 0 0 0 0 0 0 0 0 0 0 0 0 0 0 0 0 0 0 0 0 0 0 0 0 0 0 0 0 0 0 0 0 0 0 0 0 0 0 0 0 0 0 0 0 0 0 0 0 0 0 0 0 0 0 0 0 0 0 0 0 0 0 0 0 0 0 0 0 0 0 0 0 0 0 0 0 0 0 0 0 0 0 0 0 0 0 0 0 0 0 0 0 0 0 0 0 0 0 0 0 0 0 0 0 0 0 0 0 0 0 0 0 0 0 0 0 0 0 0 0 0 0 0 0 0 0 0 0 0 0 0 0 0 0 0 0 0 0 0 0 0 0 
0 0 0 0 0 0 0 0 0 0 0 0 0 0 0 0 0 0 0 0 0 0 0 0 0 0 0 0 0 0 148 0 0 333 0 0 342 0 0 328 0 0 366 0 0 344 0 0 359 0 0 338 0 0 312 0 0 337 0 0 369 0 0 343 0 0 338 0 0 379 0 0 328 0 0 336 0 0 330 0 0 365 0 0 353 0 0 381 0 0 323 0 0 354 0 0 334 0 0 361 0 0 352 0 0 337 0 0 358 0 0 345 0 0 331 0 0 351 0 0 317 0 0 371 0 0 342 0 0 343 0 0 324 0 0 349 0 0 375 0 0 354 0 0 343 0 0 365 0 0 162 0 0 0 0 0 0 0 0 0 0 0 0 0 0 0 0 0 0 0 0 0 0 0 0 0 0 0 0 0 
0 0 0 0 0 0 0 0 0 0 0 0 0 0 0 0 0 0 0 0 0 0 0 0 0 0 0 0 0 0 352 0 0 691 0 0 683 0 0 718 0 0 741 0 0 704 0 0 688 0 0 694 0 0 634 0 0 660 0 0 679 0 0 718 0 0 700 0 0 694 0 0 723 0 0 696 0 0 716 0 0 683 0 0 664 0 0 717 0 0 736 0 0 704 0 0 701 0 0 677 0 0 720 0 0 700 0 0 739 0 0 761 0 0 762 0 0 722 0 0 715 0 0 692 0 0 645 0 0 720 0 0 699 0 0 682 0 0 696 0 0 704 0 0 674 0 0 751 0 0 342 0 0 0 0 0 0 0 0 0 0 0 0 0 0 0 0 0 0 0 0 0 0 0 0 0 0 0 0 0 
0 0 0 0 0 0 0 0 0 0 0 0 0 0 0 0 0 0 0 0 0 0 0 0 0 0 0 0 0 0 356 0 0 693 0 0 688 0 0 656 0 0 672 0 0 726 0 0 672 0 0 717 0 0 697 0 0 675 0 0 655 0 0 696 0 0 706 0 0 708 0 0 699 0 0 687 0 0 693 0 0 675 0 0 677 0 0 679 0 0 746 0 0 707 0 0 648 0 0 711 0 0 725 0 0 703 0 0 722 0 0 724 0 0 668 0 0 766 0 0 735 0 0 650 0 0 695 0 0 705 0 0 716 0 0 724 0 0 687 0 0 688 0 0 755 0 0 698 0 0 346 0 0 0 0 0 0 0 0 0 0 0 0 0 0 0 0 0 0 0 0 0 0 0 0 0 0 0 0 0 
0 0 0 0 0 0 0 0 0 0 0 0 0 0 0 0 0 0 0 0 0 0 0 0 0 0 0 0 0 0 336 0 0 701 0 0 717 0 0 672 0 0 708 0 0 677 0 0 706 0 0 663 0 0 697 0 0 724 0 0 719 0 0 688 0 0 704 0 0 713 0 0 688 0 0 708 0 0 670 0 0 696 0 0 755 0 0 679 0 0 704 0 0 669 0 0 698 0 0 732 0 0 699 0 0 692 0 0 681 0 0 695 0 0 704 0 0 720 0 0 662 0 0 691 0 0 722 0 0 724 0 0 679 0 0 699 0 0 679 0 0 717 0 0 721 0 0 650 0 0 357 0 0 0 0 0 0 0 0 0 0 0 0 0 0 0 0 0 0 0 0 0 0 0 0 0 0 0 0 0 
0 0 0 0 0 0 0 0 0 0 0 0 0 0 0 0 0 0 0 0 0 0 0 0 0 0 0 0 0 0 307 0 0 726 0 0 731 0 0 675 0 0 687 0 0 745 0 0 700 0 0 712 0 0 717 0 0 712 0 0 724 0 0 724 0 0 713 0 0 732 0 0 732 0 0 696 0 0 659 0 0 765 0 0 729 0 0 705 0 0 665 0 0 688 0 0 759 0 0 705 0 0 695 0 0 690 0 0 702 0 0 733 0 0 649 0 0 722 0 0 683 0 0 716 0 0 723 0 0 753 0 0 723 0 0 720 0 0 720 0 0 672 0 0 692 0 0 641 0 0 360 0 0 0 0 0 0 0 0 0 0 0 0 0 0 0 0 0 0 0 0 0 0 0 0 0 0 0 0 0 
0 0 0 0 0 0 0 0 0 0 0 0 0 0 0 0 0 0 0 0 0 0 0 0 0 0 0 0 0 0 358 0 0 690 0 0 719 0 0 679 0 0 726 0 0 717 0 0 700 0 0 680 0 0 664 0 0 655 0 0 693 0 0 730 0 0 698 0 0 696 0 0 639 0 0 705 0 0 701 0 0 663 0 0 720 0 0 695 0 0 724 0 0 745 0 0 710 0 0 704 0 0 639 0 0 702 0 0 697 0 0 715 0 0 662 0 0 684 0 0 730 0 0 665 0 0 749 0 0 737 0 0 682 0 0 755 0 0 716 0 0 713 0 0 700 0 0 724 0 0 354 0 0 0 0 0 0 0 0 0 0 0 0 0 0 0 0 0 0 0 0 0 0 0 0 0 0 0 0 0 
0 0 0 0 0 0 0 0 0 0 0 0 0 0 0 0 0 0 0 0 0 0 0 0 0 0 0 0 0 0 360 0 0 695 0 0 699 0 0 725 0 0 733 0 0 702 0 0 695 0 0 682 0 0 672 0 0 707 0 0 694 0 0 717 0 0 668 0 0 722 0 0 724 0 0 703 0 0 695 0 0 701 0 0 695 0 0 669 0 0 663 0 0 658 0 0 693 0 0 741 0 0 686 0 0 689 0 0 657 0 0 700 0 0 684 0 0 707 0 0 703 0 0 703 0 0 699 0 0 710 0 0 699 0 0 693 0 0 736 0 0 702 0 0 699 0 0 720 0 0 359 0 0 0 0 0 0 0 0 0 0 0 0 0 0 0 0 0 0 0 0 0 0 0 0 0 0 0 0 0 
0 0 0 0 0 0 0 0 0 0 0 0 0 0 0 0 0 0 0 0 0 0 0 0 0 0 0 0 0 0 340 0 0 715 0 0 656 0 0 732 0 0 714 0 0 687 0 0 711 0 0 706 0 0 686 0 0 701 0 0 715 0 0 730 0 0 703 0 0 704 0 0 671 0 0 706 0 0 695 0 0 655 0 0 707 0 0 687 0 0 737 0 0 719 0 0 688 0 0 654 0 0 729 0 0 735 0 0 703 0 0 707 0 0 714 0 0 714 0 0 696 0 0 712 0 0 702 0 0 731 0 0 669 0 0 690 0 0 769 0 0 663 0 0 688 0 0 669 0 0 367 0 0 0 0 0 0 0 0 0 0 0 0 0 0 0 0 0 0 0 0 0 0 0 0 0 0 0 0 0 
0 0 0 0 0 0 0 0 0 0 0 0 0 0 0 0 0 0 0 0 0 0 0 0 0 0 0 0 0 0 343 0 0 690 0 0 702 0 0 718 0 0 678 0 0 724 0 0 695 0 0 673 0 0 689 0 0 695 0 0 681 0 0 666 0 0 732 0 0 744 0 0 698 0 0 699 0 0 775 0 0 730 0 0 699 0 0 689 0 0 688 0 0 683 0 0 711 0 0 693 0 0 655 0 0 724 0 0 675 0 0 689 0 0 712 0 0 696 0 0 715 0 0 735 0 0 690 0 0 691 0 0 708 0 0 688 0 0 753 0 0 734 0 0 712 0 0 747 0 0 361 0 0 0 0 0 0 0 0 0 0 0 0 0 0 0 0 0 0 0 0 0 0 0 0 0 0 0 0 0 
0 0 0 0 0 0 0 0 0 0 0 0 0 0 0 0 0 0 0 0 0 0 0 0 0 0 0 0 0 0 353 0 0 677 0 0 718 0 0 659 0 0 696 0 0 735 0 0 725 0 0 731 0 0 728 0 0 681 0 0 696 0 0 738 0 0 712 0 0 718 0 0 706 0 0 683 0 0 696 0 0 706 0 0 744 0 0 720 0 0 684 0 0 684 0 0 697 0 0 699 0 0 733 0 0 692 0 0 674 0 0 640 0 0 716 0 0 743 0 0 724 0 0 735 0 0 680 0 0 715 0 0 697 0 0 688 0 0 720 0 0 744 0 0 678 0 0 674 0 0 325 0 0 0 0 0 0 0 0 0 0 0 0 0 0 0 0 0 0 0 0 0 0 0 0 0 0 0 0 0 
0 0 0 0 0 0 0 0 0 0 0 0 0 0 0 0 0 0 0 0 0 0 0 0 0 0 0 0 0 0 364 0 0 690 0 0 700 0 0 688 0 0 707 0 0 731 0 0 690 0 0 713 0 0 742 0 0 747 0 0 751 0 0 746 0 0 739 0 0 654 0 0 735 0 0 699 0 0 680 0 0 726 0 0 699 0 0 713 0 0 715 0 0 727 0 0 707 0 0 661 0 0 762 0 0 722 0 0 691 0 0 645 0 0 724 0 0 711 0 0 709 0 0 679 0 0 721 0 0 699 0 0 683 0 0 721 0 0 684 0 0 705 0 0 732 0 0 763 0 0 322 0 0 0 0 0 0 0 0 0 0 0 0 0 0 0 0 0 0 0 0 0 0 0 0 0 0 0 0 0 
0 0 0 0 0 0 0 0 0 0 0 0 0 0 0 0 0 0 0 0 0 0 0 0 0 0 0 0 0 0 390 0 0 684 0 0 712 0 0 713 0 0 710 0 0 697 0 0 679 0 0 698 0 0 729 0 0 703 0 0 660 0 0 682 0 0 652 0 0 653 0 0 726 0 0 688 0 0 734 0 0 688 0 0 694 0 0 713 0 0 685 0 0 733 0 0 680 0 0 707 0 0 721 0 0 735 0 0 702 0 0 692 0 0 725 0 0 722 0 0 696 0 0 698 0 0 718 0 0 704 0 0 692 0 0 694 0 0 714 0 0 753 0 0 691 0 0 689 0 0 331 0 0 0 0 0 0 0 0 0 0 0 0 0 0 0 0 0 0 0 0 0 0 0 0 0 0 0 0 0 
0 0 0 0 0 0 0 0 0 0 0 0 0 0 0 0 0 0 0 0 0 0 0 0 0 0 0 0 0 0 363 0 0 719 0 0 719 0 0 707 0 0 704 0 0 772 0 0 694 0 0 662 0 0 697 0 0 677 0 0 656 0 0 672 0 0 710 0 0 727 0 0 679 0 0 650 0 0 699 0 0 691 0 0 677 0 0 710 0 0 667 0 0 728 0 0 724 0 0 675 0 0 714 0 0 677 0 0 652 0 0 707 0 0 701 0 0 713 0 0 687 0 0 680 0 0 698 0 0 720 0 0 721 0 0 757 0 0 674 0 0 704 0 0 729 0 0 687 0 0 318 0 0 0 0 0 0 0 0 0 0 0 0 0 0 0 0 0 0 0 0 0 0 0 0 0 0 0 0 0 
0 0 0 0 0 0 0 0 0 0 0 0 0 0 0 0 0 0 0 0 0 0 0 0 0 0 0 0 0 0 371 0 0 697 0 0 671 0 0 698 0 0 721 0 0 730 0 0 688 0 0 700 0 0 753 0 0 746 0 0 715 0 0 660 0 0 722 0 0 692 0 0 672 0 0 710 0 0 728 0 0 704 0 0 688 0 0 739 0 0 726 0 0 667 0 0 680 0 0 668 0 0 682 0 0 695 0 0 682 0 0 703 0 0 708 0 0 726 0 0 698 0 0 684 0 0 673 0 0 723 0 0 727 0 0 705 0 0 721 0 0 726 0 0 690 0 0 692 0 0 347 0 0 0 0 0 0 0 0 0 0 0 0 0 0 0 0 0 0 0 0 0 0 0 0 0 0 0 0 0 
0 0 0 0 0 0 0 0 0 0 0 0 0 0 0 0 0 0 0 0 0 0 0 0 0 0 0 0 0 0 356 0 0 676 0 0 706 0 0 734 0 0 687 0 0 706 0 0 664 0 0 702 0 0 699 0 0 702 0 0 734 0 0 668 0 0 691 0 0 692 0 0 705 0 0 709 0 0 719 0 0 627 0 0 732 0 0 705 0 0 692 0 0 724 0 0 686 0 0 678 0 0 710 0 0 693 0 0 693 0 0 701 0 0 721 0 0 714 0 0 697 0 0 708 0 0 702 0 0 724 0 0 719 0 0 710 0 0 677 0 0 688 0 0 661 0 0 674 0 0 342 0 0 0 0 0 0 0 0 0 0 0 0 0 0 0 0 0 0 0 0 0 0 0 0 0 0 0 0 0 
0 0 0 0 0 0 0 0 0 0 0 0 0 0 0 0 0 0 0 0 0 0 0 0 0 0 0 0 0 0 342 0 0 656 0 0 700 0 0 668 0 0 717 0 0 658 0 0 682 0 0 697 0 0 701 0 0 678 0 0 644 0 0 761 0 0 724 0 0 720 0 0 685 0 0 695 0 0 697 0 0 684 0 0 653 0 0 678 0 0 679 0 0 714 0 0 747 0 0 685 0 0 675 0 0 640 0 0 722 0 0 696 0 0 680 0 0 708 0 0 685 0 0 673 0 0 705 0 0 664 0 0 682 0 0 667 0 0 698 0 0 759 0 0 680 0 0 717 0 0 356 0 0 0 0 0 0 0 0 0 0 0 0 0 0 0 0 0 0 0 0 0 0 0 0 0 0 0 0 0 
0 0 0 0 0 0 0 0 0 0 0 0 0 0 0 0 0 0 0 0 0 0 0 0 0 0 0 0 0 0 304 0 0 700 0 0 698 0 0 727 0 0 662 0 0 716 0 0 721 0 0 707 0 0 732 0 0 679 0 0 701 0 0 679 0 0 723 0 0 732 0 0 677 0 0 753 0 0 721 0 0 693 0 0 690 0 0 712 0 0 722 0 0 709 0 0 681 0 0 717 0 0 670 0 0 712 0 0 731 0 0 715 0 0 684 0 0 686 0 0 707 0 0 666 0 0 655 0 0 750 0 0 749 0 0 707 0 0 695 0 0 699 0 0 710 0 0 733 0 0 354 0 0 0 0 0 0 0 0 0 0 0 0 0 0 0 0 0 0 0 0 0 0 0 0 0 0 0 0 0 
0 0 0 0 0 0 0 0 0 0 0 0 0 0 0 0 0 0 0 0 0 0 0 0 0 0 0 0 0 0 374 0 0 700 0 0 722 0 0 689 0 0 720 0 0 715 0 0 730 0 0 675 0 0 667 0 0 696 0 0 667 0 0 704 0 0 734 0 0 729 0 0 721 0 0 732 0 0 726 0 0 677 0 0 666 0 0 681 0 0 692 0 0 703 0 0 704 0 0 725 0 0 687 0 0 706 0 0 719 0 0 655 0 0 696 0 0 708 0 0 723 0 0 699 0 0 719 0 0 641 0 0 713 0 0 672 0 0 738 0 0 681 0 0 703 0 0 745 0 0 343 0 0 0 0 0 0 0 0 0 0 0 0 0 0 0 0 0 0 0 0 0 0 0 0 0 0 0 0 0 
0 0 0 0 0 0 0 0 0 0 0 0 0 0 0 0 0 0 0 0 0 0 0 0 0 0 0 0 0 0 376 0 0 706 0 0 681 0 0 669 0 0 685 0 0 694 0 0 662 0 0 737 0 0 726 0 0 722 0 0 716 0 0 674 0 0 732 0 0 719 0 0 662 0 0 715 0 0 698 0 0 715 0 0 739 0 0 679 0 0 706 0 0 686 0 0 689 0 0 685 0 0 645 0 0 655 0 0 740 0 0 682 0 0 732 0 0 678 0 0 690 0 0 718 0 0 684 0 0 689 0 0 713 0 0 711 0 0 740 0 0 756 0 0 737 0 0 728 0 0 359 0 0 0 0 0 0 0 0 0 0 0 0 0 0 0 0 0 0 0 0 0 0 0 0 0 0 0 0 0 
0 0 0 0 0 0 0 0 0 0 0 0 0 0 0 0 0 0 0 0 0 0 0 0 0 0 0 0 0 0 350 0 0 691 0 0 749 0 0 664 0 0 647 0 0 693 0 0 718 0 0 699 0 0 719 0 0 708 0 0 655 0 0 707 0 0 667 0 0 680 0 0 710 0 0 717 0 0 703 0 0 700 0 0 677 0 0 676 0 0 740 0 0 692 0 0 658 0 0 692 0 0 672 0 0 685 0 0 660 0 0 657 0 0 714 0 0 679 0 0 731 0 0 687 0 0 732 0 0 724 0 0 680 0 0 690 0 0 736 0 0 697 0 0 748 0 0 712 0 0 368 0 0 0 0 0 0 0 0 0 0 0 0 0 0 0 0 0 0 0 0 0 0 0 0 0 0 0 0 0 
0 0 0 0 0 0 0 0 0 0 0 0 0 0 0 0 0 0 0 0 0 0 0 0 0 0 0 0 0 0 351 0 0 694 0 0 728 0 0 688 0 0 697 0 0 729 0 0 681 0 0 663 0 0 691 0 0 638 0 0 713 0 0 707 0 0 669 0 0 652 0 0 691 0 0 706 0 0 714 0 0 702 0 0 708 0 0 671 0 0 700 0 0 712 0 0 711 0 0 661 0 0 671 0 0 702 0 0 689 0 0 735 0 0 705 0 0 686 0 0 732 0 0 659 0 0 721 0 0 705 0 0 677 0 0 712 0 0 671 0 0 706 0 0 705 0 0 655 0 0 314 0 0 0 0 0 0 0 0 0 0 0 0 0 0 0 0 0 0 0 0 0 0 0 0 0 0 0 0 0 
0 0 0 0 0 0 0 0 0 0 0 0 0 0 0 0 0 0 0 0 0 0 0 0 0 0 0 0 0 0 347 0 0 691 0 0 692 0 0 743 0 0 681 0 0 683 0 0 701 0 0 664 0 0 690 0 0 708 0 0 698 0 0 695 0 0 687 0 0 685 0 0 716 0 0 693 0 0 658 0 0 644 0 0 677 0 0 640 0 0 746 0 0 687 0 0 702 0 0 686 0 0 709 0 0 717 0 0 721 0 0 647 0 0 685 0 0 713 0 0 749 0 0 716 0 0 687 0 0 682 0 0 679 0 0 649 0 0 706 0 0 704 0 0 668 0 0 675 0 0 343 0 0 0 0 0 0 0 0 0 0 0 0 0 0 0 0 0 0 0 0 0 0 0 0 0 0 0 0 0 
0 0 0 0 0 0 0 0 0 0 0 0 0 0 0 0 0 0 0 0 0 0 0 0 0 0 0 0 0 0 365 0 0 730 0 0 729 0 0 682 0 0 680 0 0 751 0 0 724 0 0 732 0 0 669 0 0 719 0 0 702 0 0 695 0 0 742 0 0 703 0 0 719 0 0 704 0 0 666 0 0 706 0 0 718 0 0 683 0 0 722 0 0 711 0 0 701 0 0 735 0 0 688 0 0 634 0 0 718 0 0 714 0 0 732 0 0 725 0 0 663 0 0 676 0 0 716 0 0 666 0 0 686 0 0 694 0 0 725 0 0 736 0 0 690 0 0 684 0 0 328 0 0 0 0 0 0 0 0 0 0 0 0 0 0 0 0 0 0 0 0 0 0 0 0 0 0 0 0 0 
0 0 0 0 0 0 0 0 0 0 0 0 0 0 0 0 0 0 0 0 0 0 0 0 0 0 0 0 0 0 351 0 0 671 0 0 659 0 0 731 0 0 728 0 0 665 0 0 728 0 0 675 0 0 707 0 0 649 0 0 653 0 0 681 0 0 709 0 0 696 0 0 702 0 0 698 0 0 713 0 0 692 0 0 698 0 0 731 0 0 703 0 0 722 0 0 692 0 0 688 0 0 742 0 0 689 0 0 695 0 0 727 0 0 723 0 0 657 0 0 654 0 0 692 0 0 649 0 0 727 0 0 699 0 0 690 0 0 717 0 0 657 0 0 687 0 0 741 0 0 361 0 0 0 0 0 0 0 0 0 0 0 0 0 0 0 0 0 0 0 0 0 0 0 0 0 0 0 0 0 
0 0 0 0 0 0 0 0 0 0 0 0 0 0 0 0 0 0 0 0 0 0 0 0 0 0 0 0 0 0 345 0 0 707 0 0 688 0 0 702 0 0 687 0 0 682 0 0 690 0 0 736 0 0 685 0 0 691 0 0 683 0 0 681 0 0 707 0 0 706 0 0 728 0 0 693 0 0 659 0 0 704 0 0 697 0 0 723 0 0 708 0 0 685 0 0 702 0 0 720 0 0 719 0 0 688 0 0 684 0 0 708 0 0 717 0 0 680 0 0 695 0 0 696 0 0 664 0 0 720 0 0 685 0 0 698 0 0 706 0 0 679 0 0 683 0 0 673 0 0 355 0 0 0 0 0 0 0 0 0 0 0 0 0 0 0 0 0 0 0 0 0 0 0 0 0 0 0 0 0 
0 0 0 0 0 0 0 0 0 0 0 0 0 0 0 0 0 0 0 0 0 0 0 0 0 0 0 0 0 0 360 0 0 669 0 0 725 0 0 710 0 0 684 0 0 716 0 0 696 0 0 708 0 0 654 0 0 676 0 0 730 0 0 680 0 0 722 0 0 699 0 0 731 0 0 672 0 0 688 0 0 707 0 0 683 0 0 727 0 0 683 0 0 692 0 0 663 0 0 720 0 0 703 0 0 695 0 0 721 0 0 658 0 0 686 0 0 747 0 0 730 0 0 657 0 0 731 0 0 724 0 0 680 0 0 688 0 0 714 0 0 723 0 0 673 0 0 642 0 0 346 0 0 0 0 0 0 0 0 0 0 0 0 0 0 0 0 0 0 0 0 0 0 0 0 0 0 0 0 0 
0 0 0 0 0 0 0 0 0 0 0 0 0 0 0 0 0 0 0 0 0 0 0 0 0 0 0 0 0 0 343 0 0 695 0 0 686 0 0 747 0 0 672 0 0 676 0 0 704 0 0 679 0 0 731 0 0 641 0 0 694 0 0 669 0 0 690 0 0 703 0 0 667 0 0 715 0 0 650 0 0 685 0 0 697 0 0 720 0 0 688 0 0 701 0 0 693 0 0 767 0 0 719 0 0 685 0 0 669 0 0 733 0 0 691 0 0 663 0 0 708 0 0 701 0 0 711 0 0 726 0 0 724 0 0 753 0 0 689 0 0 700 0 0 733 0 0 660 0 0 320 0 0 0 0 0 0 0 0 0 0 0 0 0 0 0 0 0 0 0 0 0 0 0 0 0 0 0 0 0 
0 0 0 0 0 0 0 0 0 0 0 0 0 0 0 0 0 0 0 0 0 0 0 0 0 0 0 0 0 0 325 0 0 705 0 0 658 0 0 722 0 0 695 0 0 674 0 0 657 0 0 644 0 0 692 0 0 674 0 0 714 0 0 674 0 0 719 0 0 731 0 0 716 0 0 700 0 0 679 0 0 706 0 0 723 0 0 697 0 0 677 0 0 729 0 0 658 0 0 742 0 0 659 0 0 661 0 0 712 0 0 744 0 0 667 0 0 707 0 0 683 0 0 715 0 0 699 0 0 711 0 0 704 0 0 685 0 0 714 0 0 694 0 0 710 0 0 687 0 0 338 0 0 0 0 0 0 0 0 0 0 0 0 0 0 0 0 0 0 0 0 0 0 0 0 0 0 0 0 0 
0 0 0 0 0 0 0 0 0 0 0 0 0 0 0 0 0 0 0 0 0 0 0 0 0 0 0 0 0 0 362 0 0 676 0 0 748 0 0 709 0 0 680 0 0 704 0 0 705 0 0 682 0 0 723 0 0 713 0 0 712 0 0 719 0 0 676 0 0 748 0 0 691 0 0 738 0 0 683 0 0 701 0 0 676 0 0 709 0 0 694 0 0 709 0 0 638 0 0 695 0 0 698 0 0 696 0 0 716 0 0 768 0 0 691 0 0 689 0 0 701 0 0 697 0 0 693 0 0 703 0 0 655 0 0 695 0 0 679 0 0 707 0 0 675 0 0 700 0 0 335 0 0 0 0 0 0 0 0 0 0 0 0 0 0 0 0 0 0 0 0 0 0 0 0 0 0 0 0 0 
0 0 0 0 0 0 0 0 0 0 0 0 0 0 0 0 0 0 0 0 0 0 0 0 0 0 0 0 0 0 366 0 0 691 0 0 713 0 0 693 0 0 697 0 0 684 0 0 720 0 0 711 0 0 689 0 0 688 0 0 730 0 0 699 0 0 721 0 0 750 0 0 683 0 0 706 0 0 683 0 0 675 0 0 694 0 0 715 0 0 728 0 0 715 0 0 755 0 0 724 0 0 748 0 0 637 0 0 656 0 0 655 0 0 661 0 0 689 0 0 742 0 0 686 0 0 686 0 0 697 0 0 707 0 0 695 0 0 746 0 0 695 0 0 685 0 0 712 0 0 341 0 0 0 0 0 0 0 0 0 0 0 0 0 0 0 0 0 0 0 0 0 0 0 0 0 0 0 0 0 
0 0 0 0 0 0 0 0 0 0 0 0 0 0 0 0 0 0 0 0 0 0 0 0 0 0 0 0 0 0 337 0 0 717 0 0 727 0 0 711 0 0 735 0 0 664 0 0 785 0 0 677 0 0 725 0 0 699 0 0 701 0 0 705 0 0 677 0 0 702 0 0 729 0 0 678 0 0 684 0 0 692 0 0 717 0 0 713 0 0 704 0 0 623 0 0 659 0 0 696 0 0 729 0 0 680 0 0 657 0 0 714 0 0 707 0 0 679 0 0 671 0 0 725 0 0 705 0 0 692 0 0 702 0 0 719 0 0 673 0 0 672 0 0 705 0 0 689 0 0 336 0 0 0 0 0 0 0 0 0 0 0 0 0 0 0 0 0 0 0 0 0 0 0 0 0 0 0 0 0 
0 0 0 0 0 0 0 0 0 0 0 0 0 0 0 0 0 0 0 0 0 0 0 0 0 0 0 0 0 0 363 0 0 707 0 0 684 0 0 711 0 0 650 0 0 712 0 0 707 0 0 640 0 0 683 0 0 736 0 0 726 0 0 642 0 0 698 0 0 759 0 0 680 0 0 679 0 0 711 0 0 725 0 0 680 0 0 663 0 0 647 0 0 698 0 0 731 0 0 719 0 0 727 0 0 739 0 0 677 0 0 677 0 0 705 0 0 700 0 0 702 0 0 705 0 0 656 0 0 644 0 0 713 0 0 728 0 0 691 0 0 706 0 0 699 0 0 699 0 0 345 0 0 0 0 0 0 0 0 0 0 0 0 0 0 0 0 0 0 0 0 0 0 0 0 0 0 0 0 0 
0 0 0 0 0 0 0 0 0 0 0 0 0 0 0 0 0 0 0 0 0 0 0 0 0 0 0 0 0 0 366 0 0 730 0 0 701 0 0 716 0 0 645 0 0 715 0 0 728 0 0 697 0 0 709 0 0 683 0 0 721 0 0 723 0 0 671 0 0 672 0 0 700 0 0 671 0 0 755 0 0 694 0 0 683 0 0 667 0 0 652 0 0 728 0 0 670 0 0 759 0 0 664 0 0 720 0 0 719 0 0 702 0 0 730 0 0 693 0 0 718 0 0 704 0 0 703 0 0 733 0 0 747 0 0 666 0 0 751 0 0 762 0 0 706 0 0 713 0 0 387 0 0 0 0 0 0 0 0 0 0 0 0 0 0 0 0 0 0 0 0 0 0 0 0 0 0 0 0 0 
0 0 0 0 0 0 0 0 0 0 0 0 0 0 0 0 0 0 0 0 0 0 0 0 0 0 0 0 0 0 388 0 0 675 0 0 746 0 0 685 0 0 722 0 0 712 0 0 689 0 0 716 0 0 710 0 0 706 0 0 697 0 0 703 0 0 680 0 0 736 0 0 689 0 0 674 0 0 724 0 0 697 0 0 695 0 0 737 0 0 738 0 0 694 0 0 717 0 0 662 0 0 695 0 0 701 0 0 715 0 0 682 0 0 714 0 0 722 0 0 707 0 0 663 0 0 674 0 0 699 0 0 674 0 0 684 0 0 687 0 0 724 0 0 742 0 0 684 0 0 382 0 0 0 0 0 0 0 0 0 0 0 0 0 0 0 0 0 0 0 0 0 0 0 0 0 0 0 0 0 
0 0 0 0 0 0 0 0 0 0 0 0 0 0 0 0 0 0 0 0 0 0 0 0 0 0 0 0 0 0 337 0 0 707 0 0 675 0 0 745 0 0 690 0 0 694 0 0 681 0 0 707 0 0 699 0 0 678 0 0 760 0 0 686 0 0 724 0 0 727 0 0 708 0 0 697 0 0 718 0 0 726 0 0 694 0 0 643 0 0 755 0 0 700 0 0 717 0 0 638 0 0 660 0 0 691 0 0 755 0 0 721 0 0 694 0 0 736 0 0 654 0 0 689 0 0 724 0 0 728 0 0 686 0 0 738 0 0 697 0 0 703 0 0 693 0 0 737 0 0 363 0 0 0 0 0 0 0 0 0 0 0 0 0 0 0 0 0 0 0 0 0 0 0 0 0 0 0 0 0 
0 0 0 0 0 0 0 0 0 0 0 0 0 0 0 0 0 0 0 0 0 0 0 0 0 0 0 0 0 0 371 0 0 688 0 0 748 0 0 691 0 0 681 0 0 719 0 0 679 0 0 684 0 0 740 0 0 714 0 0 714 0 0 702 0 0 697 0 0 743 0 0 659 0 0 726 0 0 693 0 0 678 0 0 679 0 0 705 0 0 713 0 0 720 0 0 752 0 0 730 0 0 698 0 0 712 0 0 694 0 0 646 0 0 700 0 0 686 0 0 699 0 0 721 0 0 644 0 0 724 0 0 719 0 0 724 0 0 706 0 0 697 0 0 714 0 0 680 0 0 360 0 0 0 0 0 0 0 0 0 0 0 0 0 0 0 0 0 0 0 0 0 0 0 0 0 0 0 0 0 
0 0 0 0 0 0 0 0 0 0 0 0 0 0 0 0 0 0 0 0 0 0 0 0 0 0 0 0 0 0 391 0 0 700 0 0 735 0 0 772 0 0 684 0 0 662 0 0 704 0 0 693 0 0 699 0 0 681 0 0 664 0 0 727 0 0 734 0 0 681 0 0 720 0 0 673 0 0 659 0 0 702 0 0 749 0 0 710 0 0 703 0 0 736 0 0 671 0 0 740 0 0 680 0 0 718 0 0 706 0 0 701 0 0 709 0 0 684 0 0 655 0 0 667 0 0 732 0 0 669 0 0 732 0 0 695 0 0 683 0 0 665 0 0 663 0 0 738 0 0 336 0 0 0 0 0 0 0 0 0 0 0 0 0 0 0 0 0 0 0 0 0 0 0 0 0 0 0 0 0 
0 0 0 0 0 0 0 0 0 0 0 0 0 0 0 0 0 0 0 0 0 0 0 0 0 0 0 0 0 0 341 0 0 722 0 0 751 0 0 668 0 0 708 0 0 692 0 0 724 0 0 681 0 0 703 0 0 687 0 0 688 0 0 698 0 0 716 0 0 669 0 0 717 0 0 691 0 0 665 0 0 711 0 0 708 0 0 715 0 0 678 0 0 733 0 0 731 0 0 685 0 0 695 0 0 699 0 0 672 0 0 751 0 0 705 0 0 696 0 0 696 0 0 667 0 0 665 0 0 702 0 0 690 0 0 709 0 0 733 0 0 669 0 0 700 0 0 674 0 0 371 0 0 0 0 0 0 0 0 0 0 0 0 0 0 0 0 0 0 0 0 0 0 0 0 0 0 0 0 0 
0 0 0 0 0 0 0 0 0 0 0 0 0 0 0 0 0 0 0 0 0 0 0 0 0 0 0 0 0 0 356 0 0 692 0 0 707 0 0 656 0 0 687 0 0 694 0 0 675 0 0 697 0 0 742 0 0 699 0 0 678 0 0 728 0 0 778 0 0 691 0 0 661 0 0 705 0 0 670 0 0 755 0 0 717 0 0 718 0 0 714 0 0 709 0 0 667 0 0 715 0 0 686 0 0 730 0 0 704 0 0 722 0 0 702 0 0 691 0 0 741 0 0 674 0 0 754 0 0 710 0 0 662 0 0 652 0 0 705 0 0 771 0 0 671 0 0 675 0 0 383 0 0 0 0 0 0 0 0 0 0 0 0 0 0 0 0 0 0 0 0 0 0 0 0 0 0 0 0 0 
0 0 0 0 0 0 0 0 0 0 0 0 0 0 0 0 0 0 0 0 0 0 0 0 0 0 0 0 0 0 391 0 0 708 0 0 689 0 0 686 0 0 672 0 0 730 0 0 731 0 0 713 0 0 710 0 0 713 0 0 706 0 0 693 0 0 692 0 0 704 0 0 732 0 0 710 0 0 713 0 0 719 0 0 642 0 0 695 0 0 730 0 0 670 0 0 682 0 0 677 0 0 706 0 0 656 0 0 671 0 0 694 0 0 706 0 0 648 0 0 710 0 0 669 0 0 707 0 0 709 0 0 749 0 0 684 0 0 679 0 0 706 0 0 673 0 0 713 0 0 328 0 0 0 0 0 0 0 0 0 0 0 0 0 0 0 0 0 0 0 0 0 0 0 0 0 0 0 0 0 
0 0 0 0 0 0 0 0 0 0 0 0 0 0 0 0 0 0 0 0 0 0 0 0 0 0 0 0 0 0 176 0 0 361 0 0 376 0 0 359 0 0 376 0 0 343 0 0 334 0 0 340 0 0 339 0 0 348 0 0 369 0 0 339 0 0 369 0 0 363 0 0 379 0 0 381 0 0 352 0 0 348 0 0 341 0 0 348 0 0 375 0 0 350 0 0 361 0 0 344 0 0 348 0 0 352 0 0 346 0 0 339 0 0 381 0 0 371 0 0 325 0 0 334 0 0 338 0 0 362 0 0 325 0 0 335 0 0 382 0 0 324 0 0 319 0 0 332 0 0 179 0 0 0 0 0 0 0 0 0 0 0 0 0 0 0 0 0 0 0 0 0 0 0 0 0 0 0 0 0 
0 0 0 0 0 0 0 0 0 0 0 0 0 0 0 0 0 0 0 0 0 0 0 0 0 0 0 0 0 0 0 0 0 0 0 0 0 0 0 0 0 0 0 0 0 0 0 0 0 0 0 0 0 0 0 0 0 0 0 0 0 0 0 0 0 0 0 0 0 0 0 0 0 0 0 0 0 0 0 0 0 0 0 0 0 0 0 0 0 0 0 0 0 0 0 0 0 0 0 0 0 0 0 0 0 0 0 0 0 0 0 0 0 0 0 0 0 0 0 0 0 0 0 0 0 0 0 0 0 0 0 0 0 0 0 0 0 0 0 0 0 0 0 0 0 0 0 0 0 0 0 0 0 0 0 0 0 0 0 0 0 0 0 0 0 0 0 0 0 0 0 0 0 0 0 0 0 0 0 0 
0 0 0 0 0 0 0 0 0 0 0 0 0 0 0 0 0 0 0 0 0 0 0 0 0 0 0 0 0 0 0 0 0 0 0 0 0 0 0 0 0 0 0 0 0 0 0 0 0 0 0 0 0 0 0 0 0 0 0 0 0 0 0 0 0 0 0 0 0 0 0 0 0 0 0 0 0 0 0 0 0 0 0 0 0 0 0 0 0 0 0 0 0 0 0 0 0 0 0 0 0 0 0 0 0 0 0 0 0 0 0 0 0 0 0 0 0 0 0 0 0 0 0 0 0 0 0 0 0 0 0 0 0 0 0 0 0 0 0 0 0 0 0 0 0 0 0 0 0 0 0 0 0 0 0 0 0 0 0 0 0 0 0 0 0 0 0 0 0 0 0 0 0 0 0 0 0 0 0 0 
0 0 0 0 0 0 0 0 0 0 0 0 0 0 0 0 0 0 0 0 0 0 0 0 0 0 0 0 0 0 0 0 0 0 0 0 0 0 0 0 0 0 0 0 0 0 0 0 0 0 0 0 0 0 0 0 0 0 0 0 0 0 0 0 0 0 0 0 0 0 0 0 0 0 0 0 0 0 0 0 0 0 0 0 0 0 0 0 0 0 0 0 0 0 0 0 0 0 0 0 0 0 0 0 0 0 0 0 0 0 0 0 0 0 0 0 0 0 0 0 0 0 0 0 0 0 0 0 0 0 0 0 0 0 0 0 0 0 0 0 0 0 0 0 0 0 0 0 0 0 0 0 0 0 0 0 0 0 0 0 0 0 0 0 0 0 0 0 0 0 0 0 0 0 0 0 0 0 0 0 
0 0 0 0 0 0 0 0 0 0 0 0 0 0 0 0 0 0 0 0 0 0 0 0 0 0 0 0 0 0 0 0 0 0 0 0 0 0 0 0 0 0 0 0 0 0 0 0 0 0 0 0 0 0 0 0 0 0 0 0 0 0 0 0 0 0 0 0 0 0 0 0 0 0 0 0 0 0 0 0 0 0 0 0 0 0 0 0 0 0 0 0 0 0 0 0 0 0 0 0 0 0 0 0 0 0 0 0 0 0 0 0 0 0 0 0 0 0 0 0 0 0 0 0 0 0 0 0 0 0 0 0 0 0 0 0 0 0 0 0 0 0 0 0 0 0 0 0 0 0 0 0 0 0 0 0 0 0 0 0 0 0 0 0 0 0 0 0 0 0 0 0 0 0 0 0 0 0 0 0 
0 0 0 0 0 0 0 0 0 0 0 0 0 0 0 0 0 0 0 0 0 0 0 0 0 0 0 0 0 0 0 0 0 0 0 0 0 0 0 0 0 0 0 0 0 0 0 0 0 0 0 0 0 0 0 0 0 0 0 0 0 0 0 0 0 0 0 0 0 0 0 0 0 0 0 0 0 0 0 0 0 0 0 0 0 0 0 0 0 0 0 0 0 0 0 0 0 0 0 0 0 0 0 0 0 0 0 0 0 0 0 0 0 0 0 0 0 0 0 0 0 0 0 0 0 0 0 0 0 0 0 0 0 0 0 0 0 0 0 0 0 0 0 0 0 0 0 0 0 0 0 0 0 0 0 0 0 0 0 0 0 0 0 0 0 0 0 0 0 0 0 0 0 0 0 0 0 0 0 0 
0 0 0 0 0 0 0 0 0 0 0 0 0 0 0 0 0 0 0 0 0 0 0 0 0 0 0 0 0 0 0 0 0 0 0 0 0 0 0 0 0 0 0 0 0 0 0 0 0 0 0 0 0 0 0 0 0 0 0 0 0 0 0 0 0 0 0 0 0 0 0 0 0 0 0 0 0 0 0 0 0 0 0 0 0 0 0 0 0 0 0 0 0 0 0 0 0 0 0 0 0 0 0 0 0 0 0 0 0 0 0 0 0 0 0 0 0 0 0 0 0 0 0 0 0 0 0 0 0 0 0 0 0 0 0 0 0 0 0 0 0 0 0 0 0 0 0 0 0 0 0 0 0 0 0 0 0 0 0 0 0 0 0 0 0 0 0 0 0 0 0 0 0 0 0 0 0 0 0 0 
0 0 0 0 0 0 0 0 0 0 0 0 0 0 0 0 0 0 0 0 0 0 0 0 0 0 0 0 0 0 0 0 0 0 0 0 0 0 0 0 0 0 0 0 0 0 0 0 0 0 0 0 0 0 0 0 0 0 0 0 0 0 0 0 0 0 0 0 0 0 0 0 0 0 0 0 0 0 0 0 0 0 0 0 0 0 0 0 0 0 0 0 0 0 0 0 0 0 0 0 0 0 0 0 0 0 0 0 0 0 0 0 0 0 0 0 0 0 0 0 0 0 0 0 0 0 0 0 0 0 0 0 0 0 0 0 0 0 0 0 0 0 0 0 0 0 0 0 0 0 0 0 0 0 0 0 0 0 0 0 0 0 0 0 0 0 0 0 0 0 0 0 0 0 0 0 0 0 0 0 
0 0 0 0 0 0 0 0 0 0 0 0 0 0 0 0 0 0 0 0 0 0 0 0 0 0 0 0 0 0 0 0 0 0 0 0 0 0 0 0 0 0 0 0 0 0 0 0 0 0 0 0 0 0 0 0 0 0 0 0 0 0 0 0 0 0 0 0 0 0 0 0 0 0 0 0 0 0 0 0 0 0 0 0 0 0 0 0 0 0 0 0 0 0 0 0 0 0 0 0 0 0 0 0 0 0 0 0 0 0 0 0 0 0 0 0 0 0 0 0 0 0 0 0 0 0 0 0 0 0 0 0 0 0 0 0 0 0 0 0 0 0 0 0 0 0 0 0 0 0 0 0 0 0 0 0 0 0 0 0 0 0 0 0 0 0 0 0 0 0 0 0 0 0 0 0 0 0 0 0 
0 0 0 0 0 0 0 0 0 0 0 0 0 0 0 0 0 0 0 0 0 0 0 0 0 0 0 0 0 0 0 0 0 0 0 0 0 0 0 0 0 0 0 0 0 0 0 0 0 0 0 0 0 0 0 0 0 0 0 0 0 0 0 0 0 0 0 0 0 0 0 0 0 0 0 0 0 0 0 0 0 0 0 0 0 0 0 0 0 0 0 0 0 0 0 0 0 0 0 0 0 0 0 0 0 0 0 0 0 0 0 0 0 0 0 0 0 0 0 0 0 0 0 0 0 0 0 0 0 0 0 0 0 0 0 0 0 0 0 0 0 0 0 0 0 0 0 0 0 0 0 0 0 0 0 0 0 0 0 0 0 0 0 0 0 0 0 0 0 0 0 0 0 0 0 0 0 0 0 0 
