P3
# This is a dose file slice at depth 62 of 100
60 60
# now we give the maximum value of the RGB coordinates.
1602
0 0 0 0 0 0 0 0 0 0 0 0 0 0 0 0 0 0 0 0 0 0 0 0 0 0 0 0 0 0 0 0 0 0 0 0 0 0 0 0 0 0 0 0 0 0 0 0 0 0 0 0 0 0 0 0 0 0 0 0 0 0 0 0 0 0 0 0 0 0 0 0 0 0 0 0 0 0 0 0 0 0 0 0 0 0 0 0 0 0 0 0 0 0 0 0 0 0 0 0 0 0 0 0 0 0 0 0 0 0 0 0 0 0 0 0 0 0 0 0 0 0 0 0 0 0 0 0 0 0 0 0 0 0 0 0 0 0 0 0 0 0 0 0 0 0 0 0 0 0 0 0 0 0 0 0 0 0 0 0 0 0 0 0 0 0 0 0 0 0 0 0 0 0 0 0 0 0 0 0 
0 0 0 0 0 0 0 0 0 0 0 0 0 0 0 0 0 0 0 0 0 0 0 0 0 0 0 0 0 0 0 0 0 0 0 0 0 0 0 0 0 0 0 0 0 0 0 0 0 0 0 0 0 0 0 0 0 0 0 0 0 0 0 0 0 0 0 0 0 0 0 0 0 0 0 0 0 0 0 0 0 0 0 0 0 0 0 1 0 0 1 0 0 0 0 0 0 0 0 1 0 0 0 0 0 0 0 0 0 0 0 0 0 0 0 0 0 0 0 0 0 0 0 0 0 0 0 0 0 0 0 0 0 0 0 0 0 0 0 0 0 0 0 0 0 0 0 0 0 0 0 0 0 0 0 0 0 0 0 0 0 0 0 0 0 0 0 0 0 0 0 0 0 0 0 0 0 2 0 0 
0 0 0 0 0 0 0 0 0 0 0 0 0 0 0 0 0 0 0 0 0 0 0 0 0 0 0 0 0 0 0 0 0 0 0 0 0 0 0 0 0 0 0 0 0 0 0 0 0 0 0 1 0 0 0 0 0 0 0 0 0 0 0 0 0 0 0 0 0 0 0 0 0 0 0 0 0 0 0 0 0 0 0 0 1 0 0 0 0 0 1 0 0 0 0 0 0 0 0 0 0 0 0 0 0 0 0 0 0 0 0 0 0 0 0 0 0 0 0 0 0 0 0 2 0 0 0 0 0 0 0 0 0 0 0 0 0 0 0 0 0 0 0 0 0 0 0 0 0 0 0 0 0 0 0 0 0 0 0 0 0 0 0 0 0 0 0 0 0 0 0 0 0 0 2 0 0 1 0 0 
0 0 0 0 0 0 0 0 0 0 0 0 0 0 0 2 0 0 0 0 0 0 0 0 0 0 0 0 0 0 0 0 0 1 0 0 0 0 0 0 0 0 0 0 0 1 0 0 0 0 0 0 0 0 0 0 0 0 0 0 0 0 0 0 0 0 0 0 0 0 0 0 0 0 0 0 0 0 0 0 0 0 0 0 3 0 0 0 0 0 1 0 0 0 0 0 0 0 0 0 0 0 0 0 0 0 0 0 0 0 0 0 0 0 0 0 0 0 0 0 0 0 0 2 0 0 0 0 0 0 0 0 0 0 0 0 0 0 0 0 0 0 0 0 0 0 0 0 0 0 0 0 0 0 0 0 0 0 0 0 0 0 0 0 0 0 0 0 0 0 0 0 0 0 1 0 0 0 0 0 
0 0 0 0 0 0 0 0 0 0 0 0 0 0 0 0 0 0 0 0 0 0 0 0 0 0 0 0 0 0 0 0 0 0 0 0 0 0 0 0 0 0 0 0 0 1 0 0 0 0 0 0 0 0 0 0 0 0 0 0 0 0 0 0 0 0 0 0 0 0 0 0 0 0 0 0 0 0 0 0 0 2 0 0 0 0 0 2 0 0 0 0 0 0 0 0 0 0 0 0 0 0 0 0 0 0 0 0 0 0 0 0 0 0 0 0 0 0 0 0 0 0 0 0 0 0 0 0 0 0 0 0 0 0 0 0 0 0 0 0 0 0 0 0 0 0 0 0 0 0 0 0 0 0 0 0 0 0 0 0 0 0 0 0 0 0 0 0 1 0 0 1 0 0 0 0 0 0 0 0 
0 0 0 1 0 0 0 0 0 0 0 0 0 0 0 0 0 0 0 0 0 0 0 0 0 0 0 0 0 0 0 0 0 0 0 0 0 0 0 0 0 0 0 0 0 3 0 0 0 0 0 0 0 0 0 0 0 0 0 0 0 0 0 0 0 0 0 0 0 0 0 0 0 0 0 0 0 0 2 0 0 1 0 0 1 0 0 1 0 0 0 0 0 0 0 0 1 0 0 0 0 0 0 0 0 0 0 0 0 0 0 0 0 0 0 0 0 0 0 0 0 0 0 0 0 0 0 0 0 0 0 0 0 0 0 0 0 0 0 0 0 0 0 0 0 0 0 0 0 0 0 0 0 0 0 0 0 0 0 0 0 0 0 0 0 0 0 0 1 0 0 0 0 0 0 0 0 0 0 0 
0 0 0 0 0 0 1 0 0 0 0 0 0 0 0 0 0 0 0 0 0 0 0 0 0 0 0 0 0 0 0 0 0 0 0 0 0 0 0 0 0 0 0 0 0 0 0 0 1 0 0 2 0 0 0 0 0 0 0 0 0 0 0 0 0 0 0 0 0 0 0 0 0 0 0 1 0 0 0 0 0 0 0 0 1 0 0 1 0 0 0 0 0 0 0 0 0 0 0 0 0 0 0 0 0 0 0 0 0 0 0 0 0 0 0 0 0 0 0 0 0 0 0 0 0 0 0 0 0 0 0 0 0 0 0 0 0 0 0 0 0 0 0 0 0 0 0 0 0 0 0 0 0 0 0 0 0 0 0 0 0 0 0 0 0 1 0 0 0 0 0 0 0 0 0 0 0 0 0 0 
0 0 0 0 0 0 0 0 0 0 0 0 0 0 0 1 0 0 0 0 0 0 0 0 0 0 0 0 0 0 0 0 0 0 0 0 0 0 0 0 0 0 0 0 0 0 0 0 0 0 0 0 0 0 3 0 0 0 0 0 0 0 0 0 0 0 0 0 0 0 0 0 0 0 0 1 0 0 0 0 0 2 0 0 0 0 0 1 0 0 0 0 0 0 0 0 1 0 0 0 0 0 0 0 0 0 0 0 0 0 0 0 0 0 0 0 0 1 0 0 0 0 0 0 0 0 0 0 0 0 0 0 0 0 0 0 0 0 0 0 0 0 0 0 0 0 0 0 0 0 0 0 0 0 0 0 0 0 0 0 0 0 1 0 0 0 0 0 0 0 0 0 0 0 0 0 0 0 0 0 
0 0 0 0 0 0 0 0 0 0 0 0 0 0 0 0 0 0 0 0 0 0 0 0 0 0 0 0 0 0 0 0 0 2 0 0 0 0 0 0 0 0 0 0 0 0 0 0 0 0 0 1 0 0 2 0 0 1 0 0 0 0 0 0 0 0 0 0 0 0 0 0 0 0 0 0 0 0 0 0 0 1 0 0 1 0 0 0 0 0 0 0 0 0 0 0 0 0 0 0 0 0 0 0 0 0 0 0 0 0 0 0 0 0 0 0 0 0 0 0 1 0 0 0 0 0 0 0 0 0 0 0 1 0 0 0 0 0 2 0 0 0 0 0 0 0 0 0 0 0 1 0 0 0 0 0 0 0 0 1 0 0 1 0 0 0 0 0 0 0 0 0 0 0 0 0 0 0 0 0 
0 0 0 0 0 0 0 0 0 0 0 0 0 0 0 0 0 0 0 0 0 0 0 0 0 0 0 0 0 0 1 0 0 5 0 0 1 0 0 2 0 0 4 0 0 7 0 0 3 0 0 4 0 0 3 0 0 3 0 0 5 0 0 3 0 0 0 0 0 2 0 0 3 0 0 3 0 0 6 0 0 5 0 0 5 0 0 3 0 0 4 0 0 3 0 0 5 0 0 1 0 0 1 0 0 3 0 0 4 0 0 1 0 0 1 0 0 3 0 0 4 0 0 1 0 0 3 0 0 2 0 0 4 0 0 0 0 0 4 0 0 0 0 0 0 0 0 3 0 0 1 0 0 1 0 0 0 0 0 0 0 0 0 0 0 0 0 0 0 0 0 0 0 0 0 0 0 0 0 0 
0 0 0 0 0 0 0 0 0 0 0 0 0 0 0 0 0 0 0 0 0 0 0 0 0 0 0 1 0 0 110 0 0 183 0 0 189 0 0 193 0 0 205 0 0 193 0 0 207 0 0 194 0 0 197 0 0 196 0 0 190 0 0 197 0 0 198 0 0 185 0 0 183 0 0 177 0 0 204 0 0 194 0 0 193 0 0 191 0 0 199 0 0 181 0 0 186 0 0 209 0 0 187 0 0 193 0 0 171 0 0 184 0 0 185 0 0 207 0 0 207 0 0 191 0 0 211 0 0 175 0 0 176 0 0 179 0 0 166 0 0 191 0 0 199 0 0 190 0 0 103 0 0 0 0 0 0 0 0 0 0 0 0 0 0 0 0 0 0 0 0 0 0 0 0 0 0 0 0 0 
0 0 0 0 0 0 0 0 0 0 0 0 0 0 0 0 0 0 0 0 0 0 0 0 0 0 0 6 0 0 230 0 0 371 0 0 386 0 0 353 0 0 387 0 0 394 0 0 386 0 0 389 0 0 374 0 0 369 0 0 378 0 0 376 0 0 421 0 0 366 0 0 406 0 0 348 0 0 395 0 0 380 0 0 361 0 0 378 0 0 411 0 0 375 0 0 382 0 0 375 0 0 375 0 0 376 0 0 347 0 0 388 0 0 377 0 0 364 0 0 411 0 0 397 0 0 415 0 0 393 0 0 379 0 0 397 0 0 355 0 0 390 0 0 365 0 0 389 0 0 195 0 0 3 0 0 0 0 0 0 0 0 0 0 0 0 0 0 0 0 0 0 0 0 0 0 0 0 0 0 
0 0 0 0 0 0 0 0 0 0 0 0 0 0 0 0 0 0 0 0 0 0 0 0 2 0 0 2 0 0 185 0 0 389 0 0 390 0 0 387 0 0 377 0 0 397 0 0 388 0 0 392 0 0 353 0 0 411 0 0 389 0 0 379 0 0 385 0 0 367 0 0 380 0 0 379 0 0 412 0 0 388 0 0 375 0 0 389 0 0 356 0 0 417 0 0 400 0 0 408 0 0 403 0 0 373 0 0 359 0 0 368 0 0 347 0 0 425 0 0 386 0 0 423 0 0 380 0 0 381 0 0 406 0 0 392 0 0 373 0 0 370 0 0 380 0 0 352 0 0 182 0 0 1 0 0 0 0 0 1 0 0 0 0 0 0 0 0 0 0 0 0 0 0 0 0 0 0 0 0 
0 0 0 0 0 0 0 0 0 0 0 0 0 0 0 0 0 0 0 0 0 0 0 0 1 0 0 3 0 0 176 0 0 357 0 0 369 0 0 363 0 0 387 0 0 394 0 0 362 0 0 379 0 0 352 0 0 376 0 0 346 0 0 399 0 0 384 0 0 371 0 0 398 0 0 358 0 0 353 0 0 406 0 0 400 0 0 370 0 0 351 0 0 381 0 0 382 0 0 406 0 0 407 0 0 365 0 0 352 0 0 376 0 0 414 0 0 390 0 0 365 0 0 407 0 0 385 0 0 376 0 0 368 0 0 367 0 0 368 0 0 338 0 0 364 0 0 392 0 0 192 0 0 1 0 0 0 0 0 1 0 0 0 0 0 0 0 0 0 0 0 0 0 0 0 0 0 0 0 0 
0 0 0 0 0 0 0 0 0 0 0 0 0 0 0 1 0 0 0 0 0 0 0 0 0 0 0 4 0 0 200 0 0 350 0 0 402 0 0 384 0 0 357 0 0 355 0 0 396 0 0 374 0 0 366 0 0 374 0 0 373 0 0 408 0 0 377 0 0 382 0 0 410 0 0 368 0 0 344 0 0 407 0 0 384 0 0 386 0 0 390 0 0 382 0 0 347 0 0 362 0 0 358 0 0 369 0 0 387 0 0 372 0 0 380 0 0 384 0 0 367 0 0 386 0 0 377 0 0 402 0 0 380 0 0 387 0 0 387 0 0 376 0 0 379 0 0 399 0 0 187 0 0 2 0 0 0 0 0 0 0 0 0 0 0 1 0 0 0 0 0 0 0 0 0 0 0 1 0 0 
0 0 0 0 0 0 0 0 0 0 0 0 0 0 0 0 0 0 0 0 0 0 0 0 0 0 0 2 0 0 181 0 0 360 0 0 364 0 0 362 0 0 364 0 0 357 0 0 394 0 0 412 0 0 356 0 0 364 0 0 351 0 0 393 0 0 373 0 0 393 0 0 400 0 0 378 0 0 409 0 0 400 0 0 348 0 0 382 0 0 351 0 0 362 0 0 380 0 0 356 0 0 346 0 0 389 0 0 399 0 0 384 0 0 386 0 0 368 0 0 379 0 0 370 0 0 374 0 0 373 0 0 389 0 0 410 0 0 394 0 0 374 0 0 361 0 0 391 0 0 186 0 0 3 0 0 0 0 0 1 0 0 0 0 0 0 0 0 0 0 0 0 0 0 0 0 0 0 0 0 
0 0 0 0 0 0 0 0 0 0 0 0 0 0 0 0 0 0 0 0 0 0 0 0 0 0 0 3 0 0 199 0 0 413 0 0 402 0 0 363 0 0 399 0 0 383 0 0 374 0 0 375 0 0 399 0 0 389 0 0 371 0 0 386 0 0 363 0 0 394 0 0 396 0 0 395 0 0 422 0 0 394 0 0 392 0 0 385 0 0 382 0 0 401 0 0 369 0 0 398 0 0 384 0 0 374 0 0 353 0 0 366 0 0 366 0 0 400 0 0 370 0 0 373 0 0 363 0 0 372 0 0 414 0 0 407 0 0 382 0 0 397 0 0 402 0 0 411 0 0 197 0 0 4 0 0 1 0 0 1 0 0 0 0 0 0 0 0 0 0 0 0 0 0 0 0 0 0 0 0 
0 0 0 0 0 0 0 0 0 0 0 0 0 0 0 0 0 0 0 0 0 0 0 0 0 0 0 4 0 0 196 0 0 365 0 0 375 0 0 364 0 0 357 0 0 385 0 0 384 0 0 396 0 0 389 0 0 390 0 0 389 0 0 386 0 0 378 0 0 348 0 0 377 0 0 390 0 0 383 0 0 377 0 0 405 0 0 393 0 0 360 0 0 370 0 0 379 0 0 379 0 0 425 0 0 389 0 0 398 0 0 381 0 0 363 0 0 354 0 0 377 0 0 388 0 0 357 0 0 367 0 0 376 0 0 411 0 0 394 0 0 376 0 0 403 0 0 375 0 0 182 0 0 2 0 0 1 0 0 0 0 0 0 0 0 0 0 0 0 0 0 0 0 0 0 0 0 0 0 0 
0 0 0 0 0 0 0 0 0 0 0 0 0 0 0 0 0 0 0 0 0 0 0 0 0 0 0 1 0 0 217 0 0 378 0 0 385 0 0 384 0 0 365 0 0 367 0 0 419 0 0 397 0 0 408 0 0 398 0 0 410 0 0 365 0 0 367 0 0 381 0 0 352 0 0 382 0 0 389 0 0 388 0 0 395 0 0 380 0 0 378 0 0 404 0 0 389 0 0 382 0 0 390 0 0 384 0 0 375 0 0 386 0 0 393 0 0 383 0 0 393 0 0 384 0 0 373 0 0 379 0 0 385 0 0 387 0 0 337 0 0 376 0 0 393 0 0 389 0 0 219 0 0 2 0 0 0 0 0 0 0 0 0 0 0 0 0 0 0 0 0 2 0 0 1 0 0 0 0 0 
0 0 0 0 0 0 1 0 0 0 0 0 0 0 0 0 0 0 0 0 0 0 0 0 0 0 0 1 0 0 193 0 0 372 0 0 379 0 0 395 0 0 403 0 0 399 0 0 387 0 0 393 0 0 383 0 0 396 0 0 413 0 0 373 0 0 390 0 0 399 0 0 408 0 0 377 0 0 404 0 0 374 0 0 368 0 0 384 0 0 381 0 0 361 0 0 370 0 0 382 0 0 386 0 0 409 0 0 425 0 0 379 0 0 376 0 0 347 0 0 385 0 0 365 0 0 364 0 0 358 0 0 372 0 0 373 0 0 354 0 0 386 0 0 390 0 0 399 0 0 203 0 0 1 0 0 0 0 0 1 0 0 0 0 0 0 0 0 0 0 0 0 0 0 0 0 0 0 0 0 
0 0 0 0 0 0 0 0 0 0 0 0 0 0 0 0 0 0 1 0 0 1 0 0 1 0 0 4 0 0 195 0 0 382 0 0 401 0 0 370 0 0 384 0 0 391 0 0 393 0 0 403 0 0 383 0 0 393 0 0 361 0 0 392 0 0 370 0 0 375 0 0 371 0 0 376 0 0 386 0 0 355 0 0 409 0 0 378 0 0 390 0 0 386 0 0 412 0 0 375 0 0 397 0 0 367 0 0 371 0 0 371 0 0 406 0 0 383 0 0 363 0 0 386 0 0 385 0 0 366 0 0 350 0 0 344 0 0 377 0 0 359 0 0 365 0 0 371 0 0 201 0 0 0 0 0 0 0 0 0 0 0 0 0 0 2 0 0 0 0 0 0 0 0 0 0 0 0 0 0 
0 0 0 0 0 0 0 0 0 0 0 0 0 0 0 1 0 0 0 0 0 0 0 0 0 0 0 1 0 0 185 0 0 372 0 0 380 0 0 390 0 0 385 0 0 390 0 0 368 0 0 373 0 0 377 0 0 400 0 0 374 0 0 395 0 0 400 0 0 392 0 0 416 0 0 350 0 0 397 0 0 353 0 0 402 0 0 397 0 0 365 0 0 406 0 0 377 0 0 377 0 0 366 0 0 344 0 0 369 0 0 380 0 0 398 0 0 360 0 0 393 0 0 421 0 0 336 0 0 347 0 0 363 0 0 356 0 0 395 0 0 398 0 0 397 0 0 357 0 0 188 0 0 1 0 0 0 0 0 0 0 0 0 0 0 0 0 0 1 0 0 0 0 0 0 0 0 0 0 0 
0 0 0 0 0 0 0 0 0 0 0 0 0 0 0 0 0 0 1 0 0 0 0 0 0 0 0 2 0 0 200 0 0 382 0 0 423 0 0 385 0 0 387 0 0 372 0 0 364 0 0 395 0 0 346 0 0 384 0 0 369 0 0 362 0 0 390 0 0 401 0 0 386 0 0 398 0 0 393 0 0 401 0 0 410 0 0 386 0 0 372 0 0 382 0 0 338 0 0 396 0 0 366 0 0 377 0 0 351 0 0 415 0 0 404 0 0 382 0 0 373 0 0 371 0 0 383 0 0 349 0 0 370 0 0 410 0 0 372 0 0 425 0 0 404 0 0 377 0 0 174 0 0 3 0 0 1 0 0 0 0 0 0 0 0 0 0 0 0 0 0 0 0 0 0 0 0 0 0 0 
0 0 0 0 0 0 1 0 0 0 0 0 0 0 0 0 0 0 0 0 0 0 0 0 0 0 0 2 0 0 177 0 0 360 0 0 379 0 0 383 0 0 371 0 0 363 0 0 368 0 0 405 0 0 379 0 0 349 0 0 382 0 0 386 0 0 368 0 0 376 0 0 361 0 0 359 0 0 384 0 0 392 0 0 382 0 0 368 0 0 406 0 0 418 0 0 365 0 0 386 0 0 371 0 0 361 0 0 370 0 0 404 0 0 370 0 0 342 0 0 392 0 0 396 0 0 375 0 0 393 0 0 403 0 0 406 0 0 401 0 0 367 0 0 393 0 0 376 0 0 183 0 0 2 0 0 2 0 0 0 0 0 0 0 0 0 0 0 0 0 0 0 0 0 0 0 0 0 0 0 
0 0 0 0 0 0 0 0 0 0 0 0 0 0 0 0 0 0 0 0 0 0 0 0 0 0 0 1 0 0 188 0 0 352 0 0 390 0 0 375 0 0 367 0 0 382 0 0 393 0 0 373 0 0 356 0 0 405 0 0 409 0 0 361 0 0 407 0 0 380 0 0 388 0 0 409 0 0 371 0 0 362 0 0 368 0 0 398 0 0 396 0 0 368 0 0 398 0 0 379 0 0 390 0 0 377 0 0 389 0 0 356 0 0 355 0 0 409 0 0 388 0 0 402 0 0 366 0 0 372 0 0 393 0 0 391 0 0 378 0 0 386 0 0 396 0 0 381 0 0 194 0 0 4 0 0 1 0 0 1 0 0 0 0 0 0 0 0 0 0 0 0 0 0 0 0 0 0 0 0 
0 0 0 0 0 0 0 0 0 0 0 0 0 0 0 0 0 0 0 0 0 0 0 0 0 0 0 5 0 0 176 0 0 419 0 0 366 0 0 375 0 0 379 0 0 397 0 0 409 0 0 378 0 0 387 0 0 384 0 0 377 0 0 367 0 0 395 0 0 380 0 0 369 0 0 367 0 0 371 0 0 339 0 0 411 0 0 411 0 0 425 0 0 384 0 0 409 0 0 396 0 0 377 0 0 407 0 0 373 0 0 341 0 0 346 0 0 348 0 0 387 0 0 351 0 0 361 0 0 393 0 0 415 0 0 402 0 0 402 0 0 397 0 0 411 0 0 373 0 0 194 0 0 3 0 0 0 0 0 0 0 0 0 0 0 0 0 0 0 0 0 0 0 0 0 0 0 0 0 0 
0 0 0 0 0 0 0 0 0 0 0 0 0 0 0 0 0 0 0 0 0 0 0 0 0 0 0 0 0 0 173 0 0 378 0 0 360 0 0 386 0 0 373 0 0 383 0 0 365 0 0 373 0 0 436 0 0 398 0 0 411 0 0 381 0 0 388 0 0 393 0 0 370 0 0 381 0 0 379 0 0 387 0 0 376 0 0 396 0 0 388 0 0 390 0 0 374 0 0 388 0 0 413 0 0 380 0 0 377 0 0 344 0 0 350 0 0 359 0 0 407 0 0 368 0 0 398 0 0 397 0 0 393 0 0 378 0 0 358 0 0 375 0 0 395 0 0 352 0 0 179 0 0 1 0 0 0 0 0 0 0 0 0 0 0 4 0 0 0 0 0 0 0 0 0 0 0 0 0 0 
0 0 0 0 0 0 0 0 0 0 0 0 0 0 0 0 0 0 0 0 0 0 0 0 0 0 0 4 0 0 199 0 0 369 0 0 397 0 0 359 0 0 355 0 0 402 0 0 375 0 0 390 0 0 359 0 0 375 0 0 398 0 0 410 0 0 406 0 0 383 0 0 383 0 0 368 0 0 399 0 0 420 0 0 371 0 0 385 0 0 388 0 0 384 0 0 379 0 0 394 0 0 387 0 0 422 0 0 389 0 0 373 0 0 383 0 0 386 0 0 386 0 0 356 0 0 412 0 0 360 0 0 384 0 0 351 0 0 389 0 0 395 0 0 405 0 0 399 0 0 202 0 0 4 0 0 0 0 0 0 0 0 0 0 0 0 0 0 0 0 0 0 0 0 0 0 0 0 0 0 
0 0 0 0 0 0 0 0 0 0 0 0 0 0 0 0 0 0 0 0 0 1 0 0 0 0 0 2 0 0 184 0 0 379 0 0 356 0 0 398 0 0 404 0 0 391 0 0 366 0 0 377 0 0 383 0 0 446 0 0 381 0 0 379 0 0 365 0 0 391 0 0 400 0 0 357 0 0 388 0 0 415 0 0 399 0 0 382 0 0 379 0 0 384 0 0 398 0 0 394 0 0 383 0 0 416 0 0 398 0 0 385 0 0 358 0 0 380 0 0 398 0 0 375 0 0 400 0 0 360 0 0 357 0 0 430 0 0 391 0 0 400 0 0 364 0 0 382 0 0 193 0 0 5 0 0 0 0 0 0 0 0 0 0 0 0 0 0 0 0 0 0 0 0 0 0 0 0 0 0 
0 0 0 0 0 0 0 0 0 0 0 0 0 0 0 0 0 0 1 0 0 0 0 0 0 0 0 1 0 0 192 0 0 368 0 0 382 0 0 397 0 0 382 0 0 395 0 0 352 0 0 381 0 0 372 0 0 374 0 0 400 0 0 366 0 0 386 0 0 404 0 0 395 0 0 379 0 0 390 0 0 378 0 0 412 0 0 390 0 0 375 0 0 368 0 0 414 0 0 371 0 0 371 0 0 400 0 0 376 0 0 355 0 0 383 0 0 378 0 0 363 0 0 353 0 0 445 0 0 380 0 0 422 0 0 386 0 0 417 0 0 384 0 0 386 0 0 375 0 0 205 0 0 4 0 0 0 0 0 0 0 0 2 0 0 0 0 0 0 0 0 0 0 0 0 0 0 0 0 0 
0 0 0 0 0 0 0 0 0 0 0 0 0 0 0 0 0 0 0 0 0 0 0 0 0 0 0 1 0 0 191 0 0 421 0 0 366 0 0 399 0 0 405 0 0 386 0 0 370 0 0 360 0 0 375 0 0 378 0 0 371 0 0 376 0 0 379 0 0 378 0 0 371 0 0 378 0 0 368 0 0 410 0 0 374 0 0 415 0 0 348 0 0 405 0 0 371 0 0 386 0 0 373 0 0 363 0 0 399 0 0 373 0 0 373 0 0 404 0 0 406 0 0 384 0 0 390 0 0 390 0 0 386 0 0 410 0 0 386 0 0 367 0 0 362 0 0 397 0 0 188 0 0 0 0 0 2 0 0 3 0 0 1 0 0 0 0 0 0 0 0 0 0 0 0 0 0 0 0 0 
0 0 0 0 0 0 0 0 0 0 0 0 0 0 0 0 0 0 0 0 0 0 0 0 0 0 0 2 0 0 198 0 0 364 0 0 367 0 0 367 0 0 389 0 0 387 0 0 379 0 0 389 0 0 382 0 0 420 0 0 418 0 0 356 0 0 390 0 0 379 0 0 361 0 0 399 0 0 371 0 0 376 0 0 384 0 0 367 0 0 381 0 0 397 0 0 392 0 0 382 0 0 381 0 0 350 0 0 387 0 0 381 0 0 390 0 0 385 0 0 380 0 0 383 0 0 413 0 0 395 0 0 365 0 0 398 0 0 413 0 0 387 0 0 384 0 0 373 0 0 181 0 0 1 0 0 0 0 0 1 0 0 0 0 0 0 0 0 0 0 0 0 0 0 0 0 0 0 0 0 
0 0 0 0 0 0 0 0 0 0 0 0 1 0 0 0 0 0 0 0 0 0 0 0 2 0 0 2 0 0 216 0 0 381 0 0 363 0 0 350 0 0 383 0 0 397 0 0 411 0 0 400 0 0 386 0 0 407 0 0 370 0 0 428 0 0 401 0 0 394 0 0 363 0 0 377 0 0 392 0 0 380 0 0 347 0 0 375 0 0 379 0 0 368 0 0 383 0 0 399 0 0 373 0 0 365 0 0 345 0 0 382 0 0 390 0 0 369 0 0 378 0 0 369 0 0 377 0 0 396 0 0 414 0 0 375 0 0 345 0 0 412 0 0 394 0 0 406 0 0 159 0 0 3 0 0 0 0 0 0 0 0 0 0 0 1 0 0 1 0 0 0 0 0 0 0 0 2 0 0 
0 0 0 0 0 0 0 0 0 0 0 0 0 0 0 0 0 0 0 0 0 0 0 0 0 0 0 2 0 0 202 0 0 362 0 0 381 0 0 355 0 0 365 0 0 375 0 0 389 0 0 384 0 0 400 0 0 365 0 0 357 0 0 413 0 0 367 0 0 379 0 0 368 0 0 413 0 0 395 0 0 384 0 0 400 0 0 376 0 0 369 0 0 390 0 0 388 0 0 388 0 0 368 0 0 378 0 0 403 0 0 378 0 0 373 0 0 402 0 0 394 0 0 363 0 0 371 0 0 379 0 0 350 0 0 373 0 0 358 0 0 378 0 0 383 0 0 360 0 0 200 0 0 3 0 0 0 0 0 0 0 0 0 0 0 0 0 0 1 0 0 0 0 0 0 0 0 0 0 0 
0 0 0 0 0 0 0 0 0 0 0 0 0 0 0 0 0 0 0 0 0 1 0 0 0 0 0 2 0 0 192 0 0 392 0 0 416 0 0 363 0 0 378 0 0 389 0 0 411 0 0 357 0 0 375 0 0 413 0 0 385 0 0 375 0 0 380 0 0 354 0 0 387 0 0 359 0 0 392 0 0 370 0 0 338 0 0 416 0 0 375 0 0 386 0 0 415 0 0 371 0 0 396 0 0 397 0 0 381 0 0 358 0 0 396 0 0 386 0 0 370 0 0 416 0 0 383 0 0 347 0 0 371 0 0 382 0 0 396 0 0 384 0 0 401 0 0 402 0 0 196 0 0 4 0 0 0 0 0 0 0 0 0 0 0 0 0 0 0 0 0 0 0 0 0 0 0 0 0 0 
0 0 0 0 0 0 0 0 0 0 0 0 0 0 0 0 0 0 0 0 0 0 0 0 0 0 0 2 0 0 185 0 0 383 0 0 385 0 0 368 0 0 382 0 0 385 0 0 401 0 0 393 0 0 365 0 0 437 0 0 391 0 0 408 0 0 377 0 0 420 0 0 419 0 0 380 0 0 415 0 0 341 0 0 398 0 0 374 0 0 371 0 0 386 0 0 409 0 0 349 0 0 397 0 0 420 0 0 369 0 0 392 0 0 373 0 0 369 0 0 374 0 0 386 0 0 381 0 0 381 0 0 363 0 0 376 0 0 391 0 0 401 0 0 384 0 0 383 0 0 153 0 0 0 0 0 1 0 0 2 0 0 0 0 0 0 0 0 0 0 0 0 0 0 0 0 0 0 0 0 
0 0 0 1 0 0 1 0 0 0 0 0 1 0 0 0 0 0 0 0 0 0 0 0 1 0 0 3 0 0 181 0 0 390 0 0 419 0 0 411 0 0 378 0 0 389 0 0 402 0 0 382 0 0 375 0 0 394 0 0 357 0 0 377 0 0 392 0 0 393 0 0 393 0 0 369 0 0 412 0 0 421 0 0 410 0 0 379 0 0 359 0 0 373 0 0 388 0 0 367 0 0 373 0 0 375 0 0 384 0 0 366 0 0 428 0 0 391 0 0 373 0 0 400 0 0 381 0 0 363 0 0 381 0 0 371 0 0 372 0 0 367 0 0 399 0 0 385 0 0 200 0 0 3 0 0 0 0 0 0 0 0 0 0 0 0 0 0 0 0 0 0 0 0 0 0 0 0 0 0 
0 0 0 0 0 0 0 0 0 0 0 0 0 0 0 1 0 0 1 0 0 0 0 0 0 0 0 7 0 0 186 0 0 398 0 0 369 0 0 395 0 0 364 0 0 385 0 0 382 0 0 381 0 0 398 0 0 361 0 0 376 0 0 383 0 0 363 0 0 370 0 0 385 0 0 361 0 0 388 0 0 383 0 0 393 0 0 378 0 0 381 0 0 382 0 0 364 0 0 356 0 0 391 0 0 387 0 0 394 0 0 386 0 0 384 0 0 394 0 0 376 0 0 379 0 0 390 0 0 377 0 0 357 0 0 357 0 0 377 0 0 384 0 0 359 0 0 382 0 0 182 0 0 3 0 0 0 0 0 0 0 0 0 0 0 0 0 0 0 0 0 1 0 0 1 0 0 1 0 0 
0 0 0 0 0 0 0 0 0 0 0 0 0 0 0 0 0 0 0 0 0 0 0 0 0 0 0 2 0 0 175 0 0 366 0 0 397 0 0 409 0 0 382 0 0 365 0 0 378 0 0 408 0 0 375 0 0 390 0 0 389 0 0 349 0 0 398 0 0 402 0 0 382 0 0 378 0 0 393 0 0 347 0 0 369 0 0 387 0 0 382 0 0 406 0 0 406 0 0 410 0 0 391 0 0 376 0 0 375 0 0 395 0 0 373 0 0 428 0 0 376 0 0 376 0 0 398 0 0 407 0 0 378 0 0 401 0 0 390 0 0 414 0 0 377 0 0 380 0 0 169 0 0 4 0 0 2 0 0 0 0 0 0 0 0 4 0 0 0 0 0 0 0 0 0 0 0 0 0 0 
1 0 0 0 0 0 0 0 0 0 0 0 0 0 0 0 0 0 0 0 0 0 0 0 1 0 0 2 0 0 232 0 0 390 0 0 394 0 0 370 0 0 377 0 0 366 0 0 394 0 0 410 0 0 383 0 0 376 0 0 353 0 0 373 0 0 353 0 0 401 0 0 369 0 0 358 0 0 338 0 0 381 0 0 378 0 0 377 0 0 391 0 0 411 0 0 382 0 0 382 0 0 378 0 0 370 0 0 355 0 0 364 0 0 398 0 0 380 0 0 400 0 0 401 0 0 391 0 0 428 0 0 371 0 0 388 0 0 364 0 0 402 0 0 389 0 0 373 0 0 179 0 0 6 0 0 0 0 0 0 0 0 1 0 0 1 0 0 0 0 0 0 0 0 0 0 0 0 0 0 
0 0 0 0 0 0 0 0 0 0 0 0 0 0 0 0 0 0 0 0 0 1 0 0 0 0 0 3 0 0 206 0 0 383 0 0 365 0 0 362 0 0 379 0 0 390 0 0 395 0 0 390 0 0 406 0 0 372 0 0 353 0 0 398 0 0 367 0 0 386 0 0 393 0 0 369 0 0 388 0 0 391 0 0 390 0 0 374 0 0 390 0 0 395 0 0 419 0 0 385 0 0 374 0 0 392 0 0 371 0 0 386 0 0 391 0 0 390 0 0 382 0 0 372 0 0 381 0 0 383 0 0 395 0 0 392 0 0 362 0 0 365 0 0 379 0 0 389 0 0 164 0 0 6 0 0 0 0 0 0 0 0 0 0 0 1 0 0 0 0 0 0 0 0 0 0 0 0 0 0 
0 0 0 0 0 0 0 0 0 1 0 0 0 0 0 1 0 0 0 0 0 0 0 0 0 0 0 4 0 0 187 0 0 403 0 0 374 0 0 361 0 0 358 0 0 346 0 0 370 0 0 382 0 0 384 0 0 380 0 0 372 0 0 371 0 0 401 0 0 375 0 0 409 0 0 382 0 0 379 0 0 378 0 0 402 0 0 373 0 0 344 0 0 364 0 0 370 0 0 378 0 0 385 0 0 397 0 0 362 0 0 400 0 0 379 0 0 408 0 0 381 0 0 399 0 0 405 0 0 378 0 0 364 0 0 362 0 0 371 0 0 370 0 0 402 0 0 362 0 0 178 0 0 4 0 0 0 0 0 0 0 0 0 0 0 0 0 0 2 0 0 0 0 0 0 0 0 0 0 0 
0 0 0 0 0 0 1 0 0 0 0 0 0 0 0 0 0 0 0 0 0 0 0 0 0 0 0 5 0 0 201 0 0 392 0 0 391 0 0 385 0 0 376 0 0 369 0 0 374 0 0 405 0 0 395 0 0 400 0 0 392 0 0 365 0 0 375 0 0 393 0 0 372 0 0 387 0 0 390 0 0 377 0 0 385 0 0 392 0 0 365 0 0 384 0 0 400 0 0 380 0 0 378 0 0 383 0 0 367 0 0 367 0 0 388 0 0 377 0 0 347 0 0 381 0 0 381 0 0 417 0 0 415 0 0 368 0 0 425 0 0 400 0 0 396 0 0 383 0 0 191 0 0 4 0 0 0 0 0 0 0 0 0 0 0 0 0 0 0 0 0 1 0 0 0 0 0 0 0 0 
0 0 0 0 0 0 0 0 0 0 0 0 0 0 0 0 0 0 0 0 0 0 0 0 0 0 0 1 0 0 176 0 0 376 0 0 375 0 0 404 0 0 361 0 0 354 0 0 357 0 0 391 0 0 369 0 0 401 0 0 423 0 0 390 0 0 382 0 0 382 0 0 405 0 0 390 0 0 401 0 0 367 0 0 348 0 0 376 0 0 357 0 0 393 0 0 383 0 0 369 0 0 364 0 0 389 0 0 418 0 0 390 0 0 379 0 0 390 0 0 398 0 0 390 0 0 409 0 0 337 0 0 380 0 0 382 0 0 380 0 0 380 0 0 384 0 0 378 0 0 190 0 0 5 0 0 0 0 0 0 0 0 0 0 0 0 0 0 0 0 0 0 0 0 0 0 0 0 0 0 
0 0 0 0 0 0 0 0 0 0 0 0 0 0 0 0 0 0 0 0 0 1 0 0 0 0 0 1 0 0 202 0 0 388 0 0 391 0 0 369 0 0 406 0 0 386 0 0 408 0 0 389 0 0 385 0 0 418 0 0 367 0 0 370 0 0 380 0 0 407 0 0 384 0 0 379 0 0 392 0 0 408 0 0 366 0 0 384 0 0 351 0 0 354 0 0 397 0 0 371 0 0 425 0 0 377 0 0 356 0 0 373 0 0 391 0 0 383 0 0 371 0 0 376 0 0 412 0 0 369 0 0 358 0 0 378 0 0 398 0 0 380 0 0 378 0 0 388 0 0 189 0 0 2 0 0 0 0 0 0 0 0 0 0 0 0 0 0 0 0 0 0 0 0 0 0 0 0 0 0 
0 0 0 0 0 0 0 0 0 1 0 0 0 0 0 0 0 0 1 0 0 2 0 0 0 0 0 2 0 0 178 0 0 399 0 0 380 0 0 371 0 0 390 0 0 360 0 0 380 0 0 369 0 0 384 0 0 401 0 0 381 0 0 343 0 0 362 0 0 390 0 0 417 0 0 379 0 0 403 0 0 394 0 0 363 0 0 346 0 0 380 0 0 400 0 0 358 0 0 391 0 0 402 0 0 399 0 0 389 0 0 364 0 0 390 0 0 358 0 0 373 0 0 386 0 0 383 0 0 357 0 0 390 0 0 384 0 0 406 0 0 379 0 0 380 0 0 349 0 0 173 0 0 2 0 0 0 0 0 0 0 0 0 0 0 0 0 0 0 0 0 0 0 0 0 0 0 0 0 0 
0 0 0 0 0 0 0 0 0 0 0 0 0 0 0 0 0 0 0 0 0 0 0 0 0 0 0 3 0 0 202 0 0 399 0 0 419 0 0 382 0 0 370 0 0 414 0 0 364 0 0 363 0 0 393 0 0 381 0 0 367 0 0 400 0 0 361 0 0 381 0 0 400 0 0 380 0 0 404 0 0 346 0 0 354 0 0 365 0 0 441 0 0 396 0 0 380 0 0 373 0 0 406 0 0 373 0 0 379 0 0 384 0 0 365 0 0 363 0 0 413 0 0 364 0 0 358 0 0 376 0 0 378 0 0 396 0 0 376 0 0 364 0 0 379 0 0 383 0 0 182 0 0 0 0 0 0 0 0 0 0 0 0 0 0 1 0 0 0 0 0 0 0 0 0 0 0 0 0 0 
0 0 0 0 0 0 0 0 0 0 0 0 0 0 0 0 0 0 0 0 0 0 0 0 0 0 0 3 0 0 189 0 0 394 0 0 390 0 0 395 0 0 403 0 0 375 0 0 389 0 0 386 0 0 380 0 0 385 0 0 363 0 0 375 0 0 393 0 0 367 0 0 390 0 0 402 0 0 373 0 0 382 0 0 388 0 0 358 0 0 376 0 0 381 0 0 381 0 0 388 0 0 402 0 0 371 0 0 368 0 0 401 0 0 398 0 0 397 0 0 409 0 0 395 0 0 380 0 0 349 0 0 417 0 0 410 0 0 412 0 0 373 0 0 384 0 0 373 0 0 188 0 0 3 0 0 0 0 0 0 0 0 0 0 0 0 0 0 0 0 0 0 0 0 0 0 0 0 0 0 
0 0 0 0 0 0 0 0 0 0 0 0 0 0 0 0 0 0 0 0 0 0 0 0 0 0 0 3 0 0 207 0 0 393 0 0 387 0 0 368 0 0 406 0 0 394 0 0 408 0 0 373 0 0 384 0 0 369 0 0 384 0 0 355 0 0 421 0 0 378 0 0 430 0 0 421 0 0 400 0 0 379 0 0 377 0 0 385 0 0 376 0 0 397 0 0 388 0 0 376 0 0 388 0 0 398 0 0 396 0 0 389 0 0 382 0 0 374 0 0 378 0 0 405 0 0 387 0 0 393 0 0 396 0 0 428 0 0 382 0 0 397 0 0 375 0 0 376 0 0 172 0 0 2 0 0 0 0 0 0 0 0 0 0 0 0 0 0 0 0 0 1 0 0 0 0 0 0 0 0 
0 0 0 0 0 0 0 0 0 0 0 0 0 0 0 0 0 0 0 0 0 0 0 0 0 0 0 4 0 0 205 0 0 361 0 0 385 0 0 380 0 0 408 0 0 395 0 0 378 0 0 352 0 0 369 0 0 390 0 0 388 0 0 388 0 0 394 0 0 402 0 0 381 0 0 416 0 0 367 0 0 384 0 0 374 0 0 362 0 0 357 0 0 370 0 0 350 0 0 380 0 0 414 0 0 418 0 0 413 0 0 398 0 0 396 0 0 373 0 0 407 0 0 402 0 0 400 0 0 390 0 0 396 0 0 396 0 0 370 0 0 381 0 0 375 0 0 393 0 0 177 0 0 3 0 0 0 0 0 0 0 0 0 0 0 0 0 0 0 0 0 0 0 0 0 0 0 0 0 0 
0 0 0 0 0 0 0 0 0 0 0 0 0 0 0 0 0 0 1 0 0 0 0 0 0 0 0 2 0 0 101 0 0 207 0 0 189 0 0 188 0 0 195 0 0 180 0 0 199 0 0 203 0 0 190 0 0 213 0 0 212 0 0 212 0 0 212 0 0 193 0 0 190 0 0 171 0 0 179 0 0 193 0 0 184 0 0 210 0 0 197 0 0 170 0 0 182 0 0 211 0 0 201 0 0 184 0 0 174 0 0 197 0 0 196 0 0 192 0 0 203 0 0 219 0 0 199 0 0 194 0 0 186 0 0 180 0 0 184 0 0 185 0 0 218 0 0 188 0 0 90 0 0 3 0 0 0 0 0 0 0 0 0 0 0 0 0 0 0 0 0 0 0 0 0 0 0 0 0 0 
0 0 0 0 0 0 0 0 0 0 0 0 0 0 0 0 0 0 0 0 0 0 0 0 0 0 0 2 0 0 2 0 0 5 0 0 3 0 0 3 0 0 1 0 0 2 0 0 3 0 0 2 0 0 5 0 0 4 0 0 1 0 0 1 0 0 4 0 0 3 0 0 6 0 0 5 0 0 1 0 0 4 0 0 5 0 0 2 0 0 3 0 0 1 0 0 7 0 0 2 0 0 1 0 0 1 0 0 1 0 0 1 0 0 8 0 0 1 0 0 2 0 0 1 0 0 2 0 0 1 0 0 2 0 0 2 0 0 1 0 0 1 0 0 0 0 0 0 0 0 1 0 0 0 0 0 0 0 0 0 0 0 0 0 0 0 0 0 0 0 0 0 0 0 0 0 0 0 0 0 
0 0 0 0 0 0 0 0 0 0 0 0 0 0 0 0 0 0 0 0 0 0 0 0 0 0 0 0 0 0 0 0 0 0 0 0 0 0 0 0 0 0 0 0 0 0 0 0 0 0 0 0 0 0 1 0 0 0 0 0 0 0 0 0 0 0 0 0 0 0 0 0 2 0 0 0 0 0 1 0 0 1 0 0 1 0 0 0 0 0 0 0 0 0 0 0 1 0 0 0 0 0 0 0 0 0 0 0 1 0 0 0 0 0 0 0 0 1 0 0 0 0 0 0 0 0 1 0 0 1 0 0 0 0 0 0 0 0 0 0 0 0 0 0 0 0 0 0 0 0 1 0 0 0 0 0 0 0 0 0 0 0 0 0 0 0 0 0 0 0 0 0 0 0 0 0 0 0 0 0 
0 0 0 0 0 0 0 0 0 0 0 0 0 0 0 0 0 0 0 0 0 0 0 0 0 0 0 0 0 0 0 0 0 0 0 0 0 0 0 0 0 0 0 0 0 3 0 0 1 0 0 0 0 0 0 0 0 0 0 0 0 0 0 0 0 0 0 0 0 0 0 0 2 0 0 1 0 0 0 0 0 0 0 0 1 0 0 0 0 0 0 0 0 0 0 0 0 0 0 0 0 0 1 0 0 0 0 0 0 0 0 0 0 0 0 0 0 0 0 0 0 0 0 0 0 0 0 0 0 0 0 0 0 0 0 0 0 0 1 0 0 0 0 0 0 0 0 0 0 0 0 0 0 0 0 0 0 0 0 0 0 0 0 0 0 0 0 0 0 0 0 0 0 0 0 0 0 0 0 0 
0 0 0 1 0 0 0 0 0 0 0 0 0 0 0 0 0 0 0 0 0 0 0 0 0 0 0 0 0 0 0 0 0 0 0 0 0 0 0 1 0 0 1 0 0 0 0 0 0 0 0 2 0 0 0 0 0 0 0 0 0 0 0 0 0 0 0 0 0 1 0 0 0 0 0 0 0 0 0 0 0 0 0 0 0 0 0 0 0 0 0 0 0 0 0 0 0 0 0 0 0 0 0 0 0 0 0 0 0 0 0 0 0 0 0 0 0 0 0 0 0 0 0 0 0 0 0 0 0 0 0 0 0 0 0 0 0 0 0 0 0 0 0 0 1 0 0 0 0 0 0 0 0 1 0 0 2 0 0 0 0 0 0 0 0 0 0 0 0 0 0 0 0 0 0 0 0 0 0 0 
0 0 0 0 0 0 0 0 0 0 0 0 0 0 0 0 0 0 0 0 0 0 0 0 0 0 0 1 0 0 0 0 0 0 0 0 2 0 0 0 0 0 0 0 0 0 0 0 0 0 0 1 0 0 0 0 0 0 0 0 0 0 0 1 0 0 1 0 0 0 0 0 0 0 0 0 0 0 0 0 0 0 0 0 0 0 0 0 0 0 0 0 0 1 0 0 0 0 0 0 0 0 0 0 0 0 0 0 0 0 0 0 0 0 0 0 0 0 0 0 0 0 0 0 0 0 0 0 0 0 0 0 0 0 0 0 0 0 0 0 0 0 0 0 0 0 0 0 0 0 1 0 0 0 0 0 0 0 0 0 0 0 0 0 0 0 0 0 0 0 0 0 0 0 0 0 0 0 0 0 
0 0 0 0 0 0 0 0 0 0 0 0 0 0 0 0 0 0 0 0 0 0 0 0 0 0 0 3 0 0 0 0 0 0 0 0 1 0 0 0 0 0 0 0 0 0 0 0 0 0 0 0 0 0 0 0 0 0 0 0 0 0 0 1 0 0 0 0 0 0 0 0 0 0 0 0 0 0 0 0 0 0 0 0 0 0 0 0 0 0 0 0 0 0 0 0 0 0 0 0 0 0 0 0 0 0 0 0 0 0 0 0 0 0 0 0 0 1 0 0 0 0 0 0 0 0 0 0 0 0 0 0 0 0 0 0 0 0 0 0 0 0 0 0 0 0 0 0 0 0 0 0 0 0 0 0 0 0 0 0 0 0 0 0 0 0 0 0 0 0 0 0 0 0 0 0 0 0 0 0 
0 0 0 0 0 0 0 0 0 0 0 0 0 0 0 0 0 0 0 0 0 0 0 0 2 0 0 0 0 0 0 0 0 0 0 0 0 0 0 0 0 0 0 0 0 1 0 0 0 0 0 0 0 0 0 0 0 0 0 0 0 0 0 1 0 0 0 0 0 0 0 0 0 0 0 0 0 0 0 0 0 0 0 0 0 0 0 0 0 0 0 0 0 0 0 0 0 0 0 0 0 0 0 0 0 0 0 0 0 0 0 0 0 0 0 0 0 0 0 0 0 0 0 0 0 0 0 0 0 0 0 0 0 0 0 0 0 0 0 0 0 0 0 0 0 0 0 0 0 0 0 0 0 0 0 0 0 0 0 0 0 0 0 0 0 0 0 0 0 0 0 0 0 0 0 0 0 0 0 0 
0 0 0 0 0 0 0 0 0 0 0 0 0 0 0 0 0 0 0 0 0 0 0 0 0 0 0 0 0 0 0 0 0 0 0 0 0 0 0 0 0 0 0 0 0 0 0 0 0 0 0 0 0 0 0 0 0 0 0 0 1 0 0 0 0 0 0 0 0 0 0 0 1 0 0 0 0 0 0 0 0 0 0 0 0 0 0 0 0 0 0 0 0 0 0 0 0 0 0 0 0 0 0 0 0 1 0 0 0 0 0 0 0 0 0 0 0 0 0 0 0 0 0 0 0 0 0 0 0 0 0 0 0 0 0 0 0 0 0 0 0 0 0 0 0 0 0 0 0 0 0 0 0 0 0 0 0 0 0 0 0 0 0 0 0 0 0 0 0 0 0 0 0 0 0 0 0 0 0 0 
0 0 0 0 0 0 0 0 0 0 0 0 0 0 0 1 0 0 0 0 0 0 0 0 0 0 0 0 0 0 0 0 0 0 0 0 0 0 0 0 0 0 0 0 0 0 0 0 0 0 0 0 0 0 0 0 0 0 0 0 0 0 0 0 0 0 0 0 0 0 0 0 0 0 0 0 0 0 0 0 0 0 0 0 0 0 0 0 0 0 0 0 0 0 0 0 0 0 0 0 0 0 0 0 0 0 0 0 0 0 0 0 0 0 0 0 0 0 0 0 0 0 0 0 0 0 0 0 0 0 0 0 0 0 0 0 0 0 0 0 0 0 0 0 0 0 0 0 0 0 0 0 0 0 0 0 0 0 0 0 0 0 0 0 0 0 0 0 0 0 0 0 0 0 0 0 0 0 0 0 
