P3
# This is a dose file slice at depth 6 of 100
60 60
# now we give the maximum value of the RGB coordinates.
1684
0 0 0 0 0 0 0 0 0 0 0 0 0 0 0 0 0 0 0 0 0 0 0 0 0 0 0 0 0 0 0 0 0 0 0 0 0 0 0 0 0 0 0 0 0 0 0 0 0 0 0 0 0 0 0 0 0 0 0 0 0 0 0 0 0 0 0 0 0 0 0 0 0 0 0 0 0 0 0 0 0 0 0 0 0 0 0 0 0 0 0 0 0 0 0 0 0 0 0 0 0 0 0 0 0 0 0 0 0 0 0 0 0 0 0 0 0 0 0 0 0 0 0 0 0 0 0 0 0 0 0 0 0 0 0 0 0 0 0 0 0 0 0 0 0 0 0 0 0 0 0 0 0 0 0 0 0 0 0 0 0 0 0 0 0 0 0 0 0 0 0 0 0 0 0 0 0 0 0 0 
0 0 0 0 0 0 0 0 0 0 0 0 0 0 0 0 0 0 0 0 0 0 0 0 0 0 0 0 0 0 0 0 0 0 0 0 0 0 0 0 0 0 0 0 0 0 0 0 0 0 0 0 0 0 0 0 0 0 0 0 0 0 0 0 0 0 0 0 0 0 0 0 0 0 0 0 0 0 0 0 0 0 0 0 0 0 0 0 0 0 0 0 0 0 0 0 0 0 0 0 0 0 0 0 0 0 0 0 0 0 0 0 0 0 0 0 0 0 0 0 0 0 0 0 0 0 0 0 0 0 0 0 0 0 0 0 0 0 0 0 0 0 0 0 0 0 0 0 0 0 0 0 0 0 0 0 0 0 0 0 0 0 0 0 0 0 0 0 0 0 0 0 0 0 0 0 0 0 0 0 
0 0 0 0 0 0 0 0 0 0 0 0 0 0 0 0 0 0 0 0 0 0 0 0 0 0 0 0 0 0 0 0 0 0 0 0 0 0 0 0 0 0 0 0 0 0 0 0 0 0 0 0 0 0 0 0 0 0 0 0 0 0 0 0 0 0 0 0 0 0 0 0 0 0 0 0 0 0 0 0 0 0 0 0 0 0 0 0 0 0 0 0 0 0 0 0 0 0 0 0 0 0 0 0 0 0 0 0 0 0 0 0 0 0 0 0 0 0 0 0 0 0 0 0 0 0 0 0 0 0 0 0 0 0 0 0 0 0 0 0 0 0 0 0 0 0 0 0 0 0 0 0 0 0 0 0 0 0 0 0 0 0 0 0 0 0 0 0 0 0 0 0 0 0 0 0 0 0 0 0 
0 0 0 0 0 0 0 0 0 0 0 0 0 0 0 0 0 0 0 0 0 0 0 0 0 0 0 0 0 0 0 0 0 0 0 0 0 0 0 0 0 0 0 0 0 0 0 0 0 0 0 0 0 0 0 0 0 0 0 0 0 0 0 0 0 0 0 0 0 0 0 0 0 0 0 0 0 0 0 0 0 0 0 0 0 0 0 0 0 0 0 0 0 0 0 0 0 0 0 0 0 0 0 0 0 0 0 0 0 0 0 0 0 0 0 0 0 0 0 0 0 0 0 0 0 0 0 0 0 0 0 0 0 0 0 0 0 0 0 0 0 0 0 0 0 0 0 0 0 0 0 0 0 0 0 0 0 0 0 0 0 0 0 0 0 0 0 0 0 0 0 0 0 0 0 0 0 0 0 0 
0 0 0 0 0 0 0 0 0 0 0 0 0 0 0 0 0 0 0 0 0 0 0 0 0 0 0 0 0 0 0 0 0 0 0 0 0 0 0 0 0 0 0 0 0 0 0 0 0 0 0 0 0 0 0 0 0 0 0 0 0 0 0 0 0 0 0 0 0 0 0 0 0 0 0 0 0 0 0 0 0 0 0 0 0 0 0 0 0 0 0 0 0 0 0 0 0 0 0 0 0 0 0 0 0 0 0 0 0 0 0 0 0 0 0 0 0 0 0 0 0 0 0 0 0 0 0 0 0 0 0 0 0 0 0 0 0 0 0 0 0 0 0 0 0 0 0 0 0 0 0 0 0 0 0 0 0 0 0 0 0 0 0 0 0 0 0 0 0 0 0 0 0 0 0 0 0 0 0 0 
0 0 0 0 0 0 0 0 0 0 0 0 0 0 0 0 0 0 0 0 0 0 0 0 0 0 0 0 0 0 0 0 0 0 0 0 0 0 0 0 0 0 0 0 0 0 0 0 0 0 0 0 0 0 0 0 0 0 0 0 0 0 0 0 0 0 0 0 0 0 0 0 0 0 0 0 0 0 0 0 0 0 0 0 0 0 0 0 0 0 0 0 0 0 0 0 0 0 0 0 0 0 0 0 0 0 0 0 0 0 0 0 0 0 0 0 0 0 0 0 0 0 0 0 0 0 0 0 0 0 0 0 0 0 0 0 0 0 0 0 0 0 0 0 0 0 0 0 0 0 0 0 0 0 0 0 0 0 0 0 0 0 0 0 0 0 0 0 0 0 0 0 0 0 0 0 0 0 0 0 
0 0 0 0 0 0 0 0 0 0 0 0 0 0 0 0 0 0 0 0 0 0 0 0 0 0 0 0 0 0 0 0 0 0 0 0 0 0 0 0 0 0 0 0 0 0 0 0 0 0 0 0 0 0 0 0 0 0 0 0 0 0 0 0 0 0 0 0 0 0 0 0 0 0 0 0 0 0 0 0 0 0 0 0 0 0 0 0 0 0 0 0 0 0 0 0 0 0 0 0 0 0 0 0 0 0 0 0 0 0 0 0 0 0 0 0 0 0 0 0 0 0 0 0 0 0 0 0 0 0 0 0 0 0 0 0 0 0 0 0 0 0 0 0 0 0 0 0 0 0 0 0 0 0 0 0 0 0 0 0 0 0 0 0 0 0 0 0 0 0 0 0 0 0 0 0 0 0 0 0 
0 0 0 0 0 0 0 0 0 0 0 0 0 0 0 0 0 0 0 0 0 0 0 0 0 0 0 0 0 0 0 0 0 0 0 0 0 0 0 0 0 0 0 0 0 0 0 0 0 0 0 0 0 0 0 0 0 0 0 0 0 0 0 0 0 0 0 0 0 0 0 0 0 0 0 0 0 0 0 0 0 0 0 0 0 0 0 0 0 0 0 0 0 0 0 0 0 0 0 0 0 0 0 0 0 0 0 0 0 0 0 0 0 0 0 0 0 0 0 0 0 0 0 0 0 0 0 0 0 0 0 0 0 0 0 0 0 0 0 0 0 0 0 0 0 0 0 0 0 0 0 0 0 0 0 0 0 0 0 0 0 0 0 0 0 0 0 0 0 0 0 0 0 0 0 0 0 0 0 0 
0 0 0 0 0 0 0 0 0 0 0 0 0 0 0 0 0 0 0 0 0 0 0 0 0 0 0 0 0 0 0 0 0 0 0 0 0 0 0 0 0 0 0 0 0 0 0 0 0 0 0 0 0 0 0 0 0 0 0 0 0 0 0 0 0 0 0 0 0 0 0 0 0 0 0 0 0 0 0 0 0 0 0 0 0 0 0 0 0 0 0 0 0 0 0 0 0 0 0 0 0 0 0 0 0 0 0 0 0 0 0 0 0 0 0 0 0 0 0 0 0 0 0 0 0 0 0 0 0 0 0 0 0 0 0 0 0 0 0 0 0 0 0 0 0 0 0 0 0 0 0 0 0 0 0 0 0 0 0 0 0 0 0 0 0 0 0 0 0 0 0 0 0 0 0 0 0 0 0 0 
0 0 0 0 0 0 0 0 0 0 0 0 0 0 0 0 0 0 0 0 0 0 0 0 0 0 0 0 0 0 0 0 0 0 0 0 0 0 0 0 0 0 0 0 0 0 0 0 0 0 0 0 0 0 0 0 0 0 0 0 0 0 0 0 0 0 0 0 0 0 0 0 0 0 0 0 0 0 0 0 0 0 0 0 0 0 0 0 0 0 0 0 0 0 0 0 0 0 0 0 0 0 0 0 0 0 0 0 0 0 0 0 0 0 0 0 0 0 0 0 0 0 0 0 0 0 0 0 0 0 0 0 0 0 0 0 0 0 0 0 0 0 0 0 0 0 0 0 0 0 0 0 0 0 0 0 0 0 0 0 0 0 0 0 0 0 0 0 0 0 0 0 0 0 0 0 0 0 0 0 
0 0 0 0 0 0 0 0 0 0 0 0 0 0 0 0 0 0 0 0 0 0 0 0 0 0 0 0 0 0 304 0 0 646 0 0 654 0 0 663 0 0 678 0 0 684 0 0 658 0 0 652 0 0 655 0 0 647 0 0 660 0 0 690 0 0 639 0 0 695 0 0 634 0 0 645 0 0 721 0 0 706 0 0 671 0 0 652 0 0 687 0 0 667 0 0 664 0 0 718 0 0 655 0 0 647 0 0 640 0 0 653 0 0 656 0 0 686 0 0 707 0 0 624 0 0 637 0 0 652 0 0 669 0 0 669 0 0 653 0 0 672 0 0 598 0 0 693 0 0 328 0 0 0 0 0 0 0 0 0 0 0 0 0 0 0 0 0 0 0 0 0 0 0 0 0 0 0 0 0 
0 0 0 0 0 0 0 0 0 0 0 0 0 0 0 0 0 0 0 0 0 0 0 0 0 0 0 0 0 0 668 0 0 1314 0 0 1305 0 0 1365 0 0 1262 0 0 1311 0 0 1358 0 0 1340 0 0 1328 0 0 1311 0 0 1293 0 0 1329 0 0 1365 0 0 1332 0 0 1241 0 0 1288 0 0 1440 0 0 1331 0 0 1328 0 0 1300 0 0 1346 0 0 1379 0 0 1285 0 0 1302 0 0 1348 0 0 1394 0 0 1343 0 0 1365 0 0 1365 0 0 1376 0 0 1348 0 0 1344 0 0 1328 0 0 1360 0 0 1311 0 0 1327 0 0 1310 0 0 1332 0 0 1374 0 0 1310 0 0 639 0 0 0 0 0 0 0 0 0 0 0 0 0 0 0 0 0 0 0 0 0 0 0 0 0 0 0 0 0 
0 0 0 0 0 0 0 0 0 0 0 0 0 0 0 0 0 0 0 0 0 0 0 0 0 0 0 0 0 0 680 0 0 1318 0 0 1296 0 0 1369 0 0 1381 0 0 1376 0 0 1252 0 0 1337 0 0 1316 0 0 1412 0 0 1305 0 0 1319 0 0 1379 0 0 1339 0 0 1239 0 0 1381 0 0 1328 0 0 1326 0 0 1306 0 0 1331 0 0 1272 0 0 1279 0 0 1307 0 0 1350 0 0 1276 0 0 1321 0 0 1322 0 0 1381 0 0 1358 0 0 1356 0 0 1389 0 0 1385 0 0 1277 0 0 1324 0 0 1343 0 0 1346 0 0 1350 0 0 1388 0 0 1326 0 0 1297 0 0 648 0 0 0 0 0 0 0 0 0 0 0 0 0 0 0 0 0 0 0 0 0 0 0 0 0 0 0 0 0 
0 0 0 0 0 0 0 0 0 0 0 0 0 0 0 0 0 0 0 0 0 0 0 0 0 0 0 0 0 0 670 0 0 1369 0 0 1315 0 0 1403 0 0 1274 0 0 1306 0 0 1345 0 0 1350 0 0 1303 0 0 1302 0 0 1328 0 0 1268 0 0 1333 0 0 1301 0 0 1319 0 0 1347 0 0 1319 0 0 1330 0 0 1335 0 0 1333 0 0 1328 0 0 1321 0 0 1375 0 0 1337 0 0 1348 0 0 1355 0 0 1296 0 0 1221 0 0 1342 0 0 1331 0 0 1293 0 0 1373 0 0 1297 0 0 1358 0 0 1301 0 0 1347 0 0 1300 0 0 1277 0 0 1277 0 0 1325 0 0 659 0 0 0 0 0 0 0 0 0 0 0 0 0 0 0 0 0 0 0 0 0 0 0 0 0 0 0 0 0 
0 0 0 0 0 0 0 0 0 0 0 0 0 0 0 0 0 0 0 0 0 0 0 0 0 0 0 0 0 0 663 0 0 1328 0 0 1342 0 0 1322 0 0 1279 0 0 1328 0 0 1273 0 0 1335 0 0 1342 0 0 1367 0 0 1336 0 0 1317 0 0 1334 0 0 1362 0 0 1258 0 0 1369 0 0 1337 0 0 1212 0 0 1346 0 0 1303 0 0 1325 0 0 1368 0 0 1282 0 0 1311 0 0 1395 0 0 1337 0 0 1281 0 0 1378 0 0 1392 0 0 1401 0 0 1343 0 0 1323 0 0 1326 0 0 1286 0 0 1396 0 0 1322 0 0 1362 0 0 1368 0 0 1315 0 0 1339 0 0 679 0 0 0 0 0 0 0 0 0 0 0 0 0 0 0 0 0 0 0 0 0 0 0 0 0 0 0 0 0 
0 0 0 0 0 0 0 0 0 0 0 0 0 0 0 0 0 0 0 0 0 0 0 0 0 0 0 0 0 0 674 0 0 1299 0 0 1318 0 0 1348 0 0 1366 0 0 1336 0 0 1275 0 0 1381 0 0 1360 0 0 1360 0 0 1356 0 0 1343 0 0 1308 0 0 1298 0 0 1364 0 0 1310 0 0 1382 0 0 1413 0 0 1383 0 0 1294 0 0 1282 0 0 1299 0 0 1382 0 0 1338 0 0 1372 0 0 1371 0 0 1332 0 0 1407 0 0 1325 0 0 1272 0 0 1283 0 0 1350 0 0 1337 0 0 1360 0 0 1335 0 0 1351 0 0 1326 0 0 1273 0 0 1378 0 0 1314 0 0 636 0 0 0 0 0 0 0 0 0 0 0 0 0 0 0 0 0 0 0 0 0 0 0 0 0 0 0 0 0 
0 0 0 0 0 0 0 0 0 0 0 0 0 0 0 0 0 0 0 0 0 0 0 0 0 0 0 0 0 0 663 0 0 1349 0 0 1392 0 0 1313 0 0 1340 0 0 1242 0 0 1309 0 0 1359 0 0 1279 0 0 1320 0 0 1380 0 0 1349 0 0 1356 0 0 1266 0 0 1324 0 0 1356 0 0 1309 0 0 1275 0 0 1350 0 0 1340 0 0 1361 0 0 1440 0 0 1303 0 0 1298 0 0 1315 0 0 1314 0 0 1377 0 0 1369 0 0 1312 0 0 1334 0 0 1362 0 0 1372 0 0 1285 0 0 1317 0 0 1362 0 0 1347 0 0 1339 0 0 1352 0 0 1374 0 0 1330 0 0 658 0 0 0 0 0 0 0 0 0 0 0 0 0 0 0 0 0 0 0 0 0 0 0 0 0 0 0 0 0 
0 0 0 0 0 0 0 0 0 0 0 0 0 0 0 0 0 0 0 0 0 0 0 0 0 0 0 0 0 0 633 0 0 1301 0 0 1372 0 0 1263 0 0 1294 0 0 1319 0 0 1368 0 0 1429 0 0 1411 0 0 1329 0 0 1315 0 0 1315 0 0 1432 0 0 1361 0 0 1325 0 0 1398 0 0 1290 0 0 1304 0 0 1337 0 0 1316 0 0 1360 0 0 1350 0 0 1286 0 0 1356 0 0 1335 0 0 1394 0 0 1398 0 0 1281 0 0 1316 0 0 1342 0 0 1324 0 0 1305 0 0 1337 0 0 1309 0 0 1290 0 0 1330 0 0 1348 0 0 1296 0 0 1297 0 0 1259 0 0 699 0 0 0 0 0 0 0 0 0 0 0 0 0 0 0 0 0 0 0 0 0 0 0 0 0 0 0 0 0 
0 0 0 0 0 0 0 0 0 0 0 0 0 0 0 0 0 0 0 0 0 0 0 0 0 0 0 0 0 0 691 0 0 1404 0 0 1315 0 0 1416 0 0 1348 0 0 1326 0 0 1344 0 0 1326 0 0 1328 0 0 1367 0 0 1289 0 0 1332 0 0 1265 0 0 1266 0 0 1332 0 0 1358 0 0 1347 0 0 1295 0 0 1319 0 0 1270 0 0 1311 0 0 1351 0 0 1297 0 0 1322 0 0 1345 0 0 1403 0 0 1323 0 0 1335 0 0 1324 0 0 1322 0 0 1318 0 0 1370 0 0 1319 0 0 1324 0 0 1376 0 0 1296 0 0 1362 0 0 1271 0 0 1278 0 0 1375 0 0 688 0 0 0 0 0 0 0 0 0 0 0 0 0 0 0 0 0 0 0 0 0 0 0 0 0 0 0 0 0 
0 0 0 0 0 0 0 0 0 0 0 0 0 0 0 0 0 0 0 0 0 0 0 0 0 0 0 0 0 0 656 0 0 1361 0 0 1331 0 0 1295 0 0 1316 0 0 1401 0 0 1334 0 0 1299 0 0 1454 0 0 1349 0 0 1389 0 0 1274 0 0 1310 0 0 1312 0 0 1363 0 0 1419 0 0 1280 0 0 1325 0 0 1349 0 0 1275 0 0 1271 0 0 1355 0 0 1341 0 0 1287 0 0 1365 0 0 1374 0 0 1349 0 0 1260 0 0 1418 0 0 1290 0 0 1291 0 0 1307 0 0 1338 0 0 1304 0 0 1375 0 0 1297 0 0 1316 0 0 1369 0 0 1362 0 0 1355 0 0 670 0 0 0 0 0 0 0 0 0 0 0 0 0 0 0 0 0 0 0 0 0 0 0 0 0 0 0 0 0 
0 0 0 0 0 0 0 0 0 0 0 0 0 0 0 0 0 0 0 0 0 0 0 0 0 0 0 0 0 0 671 0 0 1325 0 0 1343 0 0 1417 0 0 1343 0 0 1293 0 0 1328 0 0 1357 0 0 1360 0 0 1307 0 0 1289 0 0 1346 0 0 1347 0 0 1322 0 0 1295 0 0 1245 0 0 1293 0 0 1260 0 0 1364 0 0 1302 0 0 1340 0 0 1311 0 0 1360 0 0 1357 0 0 1359 0 0 1335 0 0 1315 0 0 1319 0 0 1349 0 0 1385 0 0 1305 0 0 1322 0 0 1337 0 0 1300 0 0 1257 0 0 1348 0 0 1356 0 0 1356 0 0 1345 0 0 1303 0 0 680 0 0 0 0 0 0 0 0 0 0 0 0 0 0 0 0 0 0 0 0 0 0 0 0 0 0 0 0 0 
0 0 0 0 0 0 0 0 0 0 0 0 0 0 0 0 0 0 0 0 0 0 0 0 0 0 0 0 0 0 656 0 0 1310 0 0 1343 0 0 1320 0 0 1338 0 0 1302 0 0 1294 0 0 1378 0 0 1332 0 0 1309 0 0 1251 0 0 1326 0 0 1348 0 0 1345 0 0 1370 0 0 1263 0 0 1350 0 0 1354 0 0 1366 0 0 1392 0 0 1336 0 0 1319 0 0 1394 0 0 1365 0 0 1287 0 0 1307 0 0 1326 0 0 1325 0 0 1349 0 0 1326 0 0 1333 0 0 1337 0 0 1317 0 0 1306 0 0 1304 0 0 1387 0 0 1322 0 0 1371 0 0 1341 0 0 1361 0 0 682 0 0 0 0 0 0 0 0 0 0 0 0 0 0 0 0 0 0 0 0 0 0 0 0 0 0 0 0 0 
0 0 0 0 0 0 0 0 0 0 0 0 0 0 0 0 0 0 0 0 0 0 0 0 0 0 0 0 0 0 687 0 0 1357 0 0 1335 0 0 1368 0 0 1272 0 0 1275 0 0 1376 0 0 1278 0 0 1338 0 0 1389 0 0 1328 0 0 1352 0 0 1367 0 0 1374 0 0 1300 0 0 1299 0 0 1312 0 0 1325 0 0 1330 0 0 1301 0 0 1397 0 0 1299 0 0 1328 0 0 1345 0 0 1322 0 0 1400 0 0 1302 0 0 1322 0 0 1372 0 0 1372 0 0 1290 0 0 1316 0 0 1353 0 0 1309 0 0 1326 0 0 1308 0 0 1351 0 0 1351 0 0 1330 0 0 1370 0 0 622 0 0 0 0 0 0 0 0 0 0 0 0 0 0 0 0 0 0 0 0 0 0 0 0 0 0 0 0 0 
0 0 0 0 0 0 0 0 0 0 0 0 0 0 0 0 0 0 0 0 0 0 0 0 0 0 0 0 0 0 659 0 0 1314 0 0 1357 0 0 1415 0 0 1338 0 0 1364 0 0 1358 0 0 1375 0 0 1281 0 0 1320 0 0 1332 0 0 1315 0 0 1330 0 0 1356 0 0 1341 0 0 1337 0 0 1325 0 0 1341 0 0 1329 0 0 1370 0 0 1328 0 0 1296 0 0 1320 0 0 1345 0 0 1335 0 0 1325 0 0 1336 0 0 1329 0 0 1302 0 0 1292 0 0 1352 0 0 1319 0 0 1317 0 0 1335 0 0 1297 0 0 1337 0 0 1318 0 0 1299 0 0 1347 0 0 1354 0 0 667 0 0 0 0 0 0 0 0 0 0 0 0 0 0 0 0 0 0 0 0 0 0 0 0 0 0 0 0 0 
0 0 0 0 0 0 0 0 0 0 0 0 0 0 0 0 0 0 0 0 0 0 0 0 0 0 0 0 0 0 616 0 0 1370 0 0 1275 0 0 1338 0 0 1352 0 0 1281 0 0 1288 0 0 1352 0 0 1324 0 0 1347 0 0 1315 0 0 1285 0 0 1304 0 0 1318 0 0 1319 0 0 1339 0 0 1317 0 0 1335 0 0 1285 0 0 1324 0 0 1301 0 0 1375 0 0 1313 0 0 1378 0 0 1288 0 0 1343 0 0 1337 0 0 1304 0 0 1377 0 0 1326 0 0 1305 0 0 1299 0 0 1313 0 0 1332 0 0 1317 0 0 1325 0 0 1328 0 0 1328 0 0 1371 0 0 1287 0 0 682 0 0 0 0 0 0 0 0 0 0 0 0 0 0 0 0 0 0 0 0 0 0 0 0 0 0 0 0 0 
0 0 0 0 0 0 0 0 0 0 0 0 0 0 0 0 0 0 0 0 0 0 0 0 0 0 0 0 0 0 734 0 0 1379 0 0 1343 0 0 1308 0 0 1274 0 0 1354 0 0 1298 0 0 1308 0 0 1369 0 0 1345 0 0 1343 0 0 1350 0 0 1341 0 0 1298 0 0 1376 0 0 1365 0 0 1289 0 0 1300 0 0 1342 0 0 1335 0 0 1307 0 0 1310 0 0 1365 0 0 1400 0 0 1267 0 0 1379 0 0 1418 0 0 1394 0 0 1316 0 0 1322 0 0 1345 0 0 1351 0 0 1399 0 0 1391 0 0 1364 0 0 1369 0 0 1319 0 0 1304 0 0 1425 0 0 1383 0 0 660 0 0 0 0 0 0 0 0 0 0 0 0 0 0 0 0 0 0 0 0 0 0 0 0 0 0 0 0 0 
0 0 0 0 0 0 0 0 0 0 0 0 0 0 0 0 0 0 0 0 0 0 0 0 0 0 0 0 0 0 657 0 0 1289 0 0 1324 0 0 1319 0 0 1384 0 0 1331 0 0 1321 0 0 1328 0 0 1368 0 0 1332 0 0 1385 0 0 1294 0 0 1340 0 0 1404 0 0 1333 0 0 1355 0 0 1345 0 0 1370 0 0 1416 0 0 1286 0 0 1341 0 0 1338 0 0 1322 0 0 1352 0 0 1286 0 0 1354 0 0 1317 0 0 1375 0 0 1262 0 0 1379 0 0 1311 0 0 1385 0 0 1314 0 0 1324 0 0 1296 0 0 1377 0 0 1312 0 0 1345 0 0 1320 0 0 1255 0 0 699 0 0 0 0 0 0 0 0 0 0 0 0 0 0 0 0 0 0 0 0 0 0 0 0 0 0 0 0 0 
0 0 0 0 0 0 0 0 0 0 0 0 0 0 0 0 0 0 0 0 0 0 0 0 0 0 0 0 0 0 674 0 0 1353 0 0 1347 0 0 1335 0 0 1296 0 0 1380 0 0 1389 0 0 1328 0 0 1356 0 0 1323 0 0 1373 0 0 1324 0 0 1327 0 0 1279 0 0 1349 0 0 1305 0 0 1376 0 0 1370 0 0 1363 0 0 1351 0 0 1378 0 0 1335 0 0 1299 0 0 1318 0 0 1318 0 0 1351 0 0 1341 0 0 1343 0 0 1313 0 0 1311 0 0 1379 0 0 1312 0 0 1324 0 0 1266 0 0 1269 0 0 1271 0 0 1367 0 0 1413 0 0 1394 0 0 1309 0 0 654 0 0 0 0 0 0 0 0 0 0 0 0 0 0 0 0 0 0 0 0 0 0 0 0 0 0 0 0 0 
0 0 0 0 0 0 0 0 0 0 0 0 0 0 0 0 0 0 0 0 0 0 0 0 0 0 0 0 0 0 609 0 0 1311 0 0 1382 0 0 1302 0 0 1339 0 0 1308 0 0 1344 0 0 1298 0 0 1371 0 0 1365 0 0 1296 0 0 1336 0 0 1335 0 0 1355 0 0 1302 0 0 1331 0 0 1353 0 0 1357 0 0 1312 0 0 1310 0 0 1338 0 0 1277 0 0 1391 0 0 1342 0 0 1335 0 0 1336 0 0 1303 0 0 1400 0 0 1383 0 0 1372 0 0 1316 0 0 1328 0 0 1337 0 0 1348 0 0 1270 0 0 1319 0 0 1369 0 0 1294 0 0 1315 0 0 1370 0 0 679 0 0 0 0 0 0 0 0 0 0 0 0 0 0 0 0 0 0 0 0 0 0 0 0 0 0 0 0 0 
0 0 0 0 0 0 0 0 0 0 0 0 0 0 0 0 0 0 0 0 0 0 0 0 0 0 0 0 0 0 707 0 0 1348 0 0 1375 0 0 1357 0 0 1386 0 0 1272 0 0 1366 0 0 1355 0 0 1352 0 0 1320 0 0 1385 0 0 1278 0 0 1314 0 0 1297 0 0 1355 0 0 1352 0 0 1354 0 0 1341 0 0 1341 0 0 1334 0 0 1368 0 0 1280 0 0 1352 0 0 1295 0 0 1375 0 0 1337 0 0 1325 0 0 1280 0 0 1307 0 0 1257 0 0 1310 0 0 1323 0 0 1258 0 0 1379 0 0 1293 0 0 1340 0 0 1333 0 0 1329 0 0 1321 0 0 1320 0 0 684 0 0 0 0 0 0 0 0 0 0 0 0 0 0 0 0 0 0 0 0 0 0 0 0 0 0 0 0 0 
0 0 0 0 0 0 0 0 0 0 0 0 0 0 0 0 0 0 0 0 0 0 0 0 0 0 0 0 0 0 625 0 0 1332 0 0 1389 0 0 1323 0 0 1314 0 0 1294 0 0 1308 0 0 1303 0 0 1338 0 0 1363 0 0 1300 0 0 1275 0 0 1357 0 0 1341 0 0 1355 0 0 1388 0 0 1339 0 0 1321 0 0 1283 0 0 1298 0 0 1355 0 0 1330 0 0 1359 0 0 1349 0 0 1320 0 0 1360 0 0 1329 0 0 1329 0 0 1292 0 0 1400 0 0 1247 0 0 1345 0 0 1354 0 0 1363 0 0 1360 0 0 1324 0 0 1253 0 0 1404 0 0 1332 0 0 1356 0 0 668 0 0 0 0 0 0 0 0 0 0 0 0 0 0 0 0 0 0 0 0 0 0 0 0 0 0 0 0 0 
0 0 0 0 0 0 0 0 0 0 0 0 0 0 0 0 0 0 0 0 0 0 0 0 0 0 0 0 0 0 643 0 0 1314 0 0 1305 0 0 1287 0 0 1353 0 0 1320 0 0 1425 0 0 1269 0 0 1379 0 0 1276 0 0 1309 0 0 1343 0 0 1360 0 0 1326 0 0 1311 0 0 1371 0 0 1321 0 0 1319 0 0 1322 0 0 1339 0 0 1372 0 0 1302 0 0 1373 0 0 1314 0 0 1389 0 0 1292 0 0 1314 0 0 1257 0 0 1377 0 0 1311 0 0 1385 0 0 1265 0 0 1366 0 0 1315 0 0 1294 0 0 1323 0 0 1362 0 0 1325 0 0 1330 0 0 1385 0 0 684 0 0 0 0 0 0 0 0 0 0 0 0 0 0 0 0 0 0 0 0 0 0 0 0 0 0 0 0 0 
0 0 0 0 0 0 0 0 0 0 0 0 0 0 0 0 0 0 0 0 0 0 0 0 0 0 0 0 0 0 647 0 0 1334 0 0 1350 0 0 1251 0 0 1282 0 0 1360 0 0 1393 0 0 1364 0 0 1335 0 0 1316 0 0 1331 0 0 1292 0 0 1324 0 0 1255 0 0 1378 0 0 1314 0 0 1330 0 0 1326 0 0 1321 0 0 1321 0 0 1386 0 0 1357 0 0 1291 0 0 1364 0 0 1338 0 0 1289 0 0 1336 0 0 1301 0 0 1297 0 0 1334 0 0 1330 0 0 1343 0 0 1320 0 0 1337 0 0 1316 0 0 1296 0 0 1317 0 0 1302 0 0 1305 0 0 1442 0 0 647 0 0 0 0 0 0 0 0 0 0 0 0 0 0 0 0 0 0 0 0 0 0 0 0 0 0 0 0 0 
0 0 0 0 0 0 0 0 0 0 0 0 0 0 0 0 0 0 0 0 0 0 0 0 0 0 0 0 0 0 680 0 0 1310 0 0 1318 0 0 1345 0 0 1354 0 0 1385 0 0 1408 0 0 1300 0 0 1351 0 0 1306 0 0 1334 0 0 1406 0 0 1318 0 0 1337 0 0 1358 0 0 1318 0 0 1342 0 0 1284 0 0 1336 0 0 1247 0 0 1319 0 0 1334 0 0 1316 0 0 1335 0 0 1342 0 0 1350 0 0 1434 0 0 1314 0 0 1383 0 0 1348 0 0 1337 0 0 1308 0 0 1375 0 0 1263 0 0 1280 0 0 1376 0 0 1307 0 0 1292 0 0 1302 0 0 1261 0 0 688 0 0 0 0 0 0 0 0 0 0 0 0 0 0 0 0 0 0 0 0 0 0 0 0 0 0 0 0 0 
0 0 0 0 0 0 0 0 0 0 0 0 0 0 0 0 0 0 0 0 0 0 0 0 0 0 0 0 0 0 654 0 0 1373 0 0 1360 0 0 1342 0 0 1334 0 0 1296 0 0 1295 0 0 1406 0 0 1315 0 0 1324 0 0 1382 0 0 1303 0 0 1308 0 0 1419 0 0 1332 0 0 1282 0 0 1304 0 0 1316 0 0 1326 0 0 1395 0 0 1308 0 0 1355 0 0 1346 0 0 1233 0 0 1291 0 0 1301 0 0 1358 0 0 1323 0 0 1310 0 0 1365 0 0 1307 0 0 1380 0 0 1308 0 0 1306 0 0 1280 0 0 1285 0 0 1401 0 0 1361 0 0 1320 0 0 1270 0 0 671 0 0 0 0 0 0 0 0 0 0 0 0 0 0 0 0 0 0 0 0 0 0 0 0 0 0 0 0 0 
0 0 0 0 0 0 0 0 0 0 0 0 0 0 0 0 0 0 0 0 0 0 0 0 0 0 0 0 0 0 696 0 0 1343 0 0 1342 0 0 1322 0 0 1333 0 0 1361 0 0 1339 0 0 1367 0 0 1365 0 0 1352 0 0 1331 0 0 1390 0 0 1254 0 0 1377 0 0 1314 0 0 1346 0 0 1326 0 0 1342 0 0 1295 0 0 1374 0 0 1363 0 0 1297 0 0 1340 0 0 1396 0 0 1351 0 0 1373 0 0 1331 0 0 1343 0 0 1397 0 0 1292 0 0 1324 0 0 1396 0 0 1394 0 0 1364 0 0 1367 0 0 1379 0 0 1311 0 0 1354 0 0 1328 0 0 1404 0 0 660 0 0 0 0 0 0 0 0 0 0 0 0 0 0 0 0 0 0 0 0 0 0 0 0 0 0 0 0 0 
0 0 0 0 0 0 0 0 0 0 0 0 0 0 0 0 0 0 0 0 0 0 0 0 0 0 0 0 0 0 695 0 0 1366 0 0 1280 0 0 1371 0 0 1341 0 0 1383 0 0 1385 0 0 1380 0 0 1280 0 0 1378 0 0 1325 0 0 1339 0 0 1317 0 0 1395 0 0 1359 0 0 1378 0 0 1330 0 0 1317 0 0 1308 0 0 1326 0 0 1227 0 0 1261 0 0 1334 0 0 1303 0 0 1322 0 0 1311 0 0 1306 0 0 1328 0 0 1350 0 0 1313 0 0 1351 0 0 1410 0 0 1313 0 0 1350 0 0 1310 0 0 1351 0 0 1319 0 0 1289 0 0 1385 0 0 1304 0 0 639 0 0 0 0 0 0 0 0 0 0 0 0 0 0 0 0 0 0 0 0 0 0 0 0 0 0 0 0 0 
0 0 0 0 0 0 0 0 0 0 0 0 0 0 0 0 0 0 0 0 0 0 0 0 0 0 0 0 0 0 672 0 0 1410 0 0 1369 0 0 1334 0 0 1349 0 0 1299 0 0 1374 0 0 1366 0 0 1387 0 0 1348 0 0 1345 0 0 1244 0 0 1311 0 0 1272 0 0 1336 0 0 1308 0 0 1360 0 0 1313 0 0 1341 0 0 1348 0 0 1296 0 0 1307 0 0 1361 0 0 1302 0 0 1353 0 0 1372 0 0 1304 0 0 1375 0 0 1376 0 0 1336 0 0 1256 0 0 1361 0 0 1352 0 0 1343 0 0 1346 0 0 1347 0 0 1277 0 0 1348 0 0 1356 0 0 1228 0 0 650 0 0 0 0 0 0 0 0 0 0 0 0 0 0 0 0 0 0 0 0 0 0 0 0 0 0 0 0 0 
0 0 0 0 0 0 0 0 0 0 0 0 0 0 0 0 0 0 0 0 0 0 0 0 0 0 0 0 0 0 707 0 0 1349 0 0 1330 0 0 1299 0 0 1331 0 0 1325 0 0 1241 0 0 1303 0 0 1267 0 0 1345 0 0 1314 0 0 1334 0 0 1334 0 0 1348 0 0 1270 0 0 1350 0 0 1315 0 0 1418 0 0 1310 0 0 1295 0 0 1312 0 0 1320 0 0 1263 0 0 1317 0 0 1387 0 0 1383 0 0 1285 0 0 1292 0 0 1346 0 0 1348 0 0 1358 0 0 1299 0 0 1286 0 0 1306 0 0 1334 0 0 1331 0 0 1397 0 0 1354 0 0 1291 0 0 1293 0 0 625 0 0 0 0 0 0 0 0 0 0 0 0 0 0 0 0 0 0 0 0 0 0 0 0 0 0 0 0 0 
0 0 0 0 0 0 0 0 0 0 0 0 0 0 0 0 0 0 0 0 0 0 0 0 0 0 0 0 0 0 651 0 0 1368 0 0 1342 0 0 1298 0 0 1325 0 0 1345 0 0 1415 0 0 1316 0 0 1340 0 0 1292 0 0 1321 0 0 1311 0 0 1252 0 0 1302 0 0 1312 0 0 1331 0 0 1303 0 0 1320 0 0 1354 0 0 1338 0 0 1340 0 0 1312 0 0 1345 0 0 1337 0 0 1341 0 0 1358 0 0 1373 0 0 1341 0 0 1272 0 0 1327 0 0 1351 0 0 1370 0 0 1340 0 0 1367 0 0 1327 0 0 1358 0 0 1395 0 0 1278 0 0 1294 0 0 1355 0 0 666 0 0 0 0 0 0 0 0 0 0 0 0 0 0 0 0 0 0 0 0 0 0 0 0 0 0 0 0 0 
0 0 0 0 0 0 0 0 0 0 0 0 0 0 0 0 0 0 0 0 0 0 0 0 0 0 0 0 0 0 654 0 0 1434 0 0 1380 0 0 1297 0 0 1353 0 0 1375 0 0 1312 0 0 1364 0 0 1360 0 0 1353 0 0 1312 0 0 1292 0 0 1353 0 0 1401 0 0 1279 0 0 1297 0 0 1391 0 0 1337 0 0 1373 0 0 1294 0 0 1300 0 0 1359 0 0 1369 0 0 1385 0 0 1324 0 0 1384 0 0 1245 0 0 1375 0 0 1328 0 0 1308 0 0 1339 0 0 1262 0 0 1325 0 0 1317 0 0 1293 0 0 1298 0 0 1371 0 0 1363 0 0 1424 0 0 1305 0 0 673 0 0 0 0 0 0 0 0 0 0 0 0 0 0 0 0 0 0 0 0 0 0 0 0 0 0 0 0 0 
0 0 0 0 0 0 0 0 0 0 0 0 0 0 0 0 0 0 0 0 0 0 0 0 0 0 0 0 0 0 699 0 0 1255 0 0 1391 0 0 1329 0 0 1306 0 0 1306 0 0 1307 0 0 1371 0 0 1291 0 0 1342 0 0 1397 0 0 1344 0 0 1303 0 0 1383 0 0 1320 0 0 1338 0 0 1333 0 0 1324 0 0 1338 0 0 1352 0 0 1326 0 0 1254 0 0 1345 0 0 1342 0 0 1349 0 0 1357 0 0 1289 0 0 1350 0 0 1384 0 0 1313 0 0 1357 0 0 1393 0 0 1323 0 0 1275 0 0 1329 0 0 1339 0 0 1344 0 0 1342 0 0 1321 0 0 1289 0 0 657 0 0 0 0 0 0 0 0 0 0 0 0 0 0 0 0 0 0 0 0 0 0 0 0 0 0 0 0 0 
0 0 0 0 0 0 0 0 0 0 0 0 0 0 0 0 0 0 0 0 0 0 0 0 0 0 0 0 0 0 660 0 0 1341 0 0 1395 0 0 1355 0 0 1289 0 0 1280 0 0 1392 0 0 1307 0 0 1375 0 0 1269 0 0 1301 0 0 1383 0 0 1348 0 0 1276 0 0 1341 0 0 1332 0 0 1351 0 0 1373 0 0 1285 0 0 1324 0 0 1355 0 0 1321 0 0 1299 0 0 1318 0 0 1350 0 0 1357 0 0 1282 0 0 1320 0 0 1300 0 0 1296 0 0 1282 0 0 1299 0 0 1288 0 0 1318 0 0 1330 0 0 1398 0 0 1288 0 0 1317 0 0 1316 0 0 1305 0 0 678 0 0 0 0 0 0 0 0 0 0 0 0 0 0 0 0 0 0 0 0 0 0 0 0 0 0 0 0 0 
0 0 0 0 0 0 0 0 0 0 0 0 0 0 0 0 0 0 0 0 0 0 0 0 0 0 0 0 0 0 663 0 0 1307 0 0 1337 0 0 1288 0 0 1305 0 0 1367 0 0 1371 0 0 1340 0 0 1308 0 0 1338 0 0 1318 0 0 1358 0 0 1375 0 0 1337 0 0 1308 0 0 1291 0 0 1365 0 0 1318 0 0 1311 0 0 1259 0 0 1411 0 0 1323 0 0 1347 0 0 1348 0 0 1302 0 0 1281 0 0 1325 0 0 1306 0 0 1303 0 0 1331 0 0 1285 0 0 1328 0 0 1377 0 0 1350 0 0 1307 0 0 1383 0 0 1380 0 0 1319 0 0 1300 0 0 1283 0 0 635 0 0 0 0 0 0 0 0 0 0 0 0 0 0 0 0 0 0 0 0 0 0 0 0 0 0 0 0 0 
0 0 0 0 0 0 0 0 0 0 0 0 0 0 0 0 0 0 0 0 0 0 0 0 0 0 0 0 0 0 679 0 0 1371 0 0 1300 0 0 1322 0 0 1362 0 0 1387 0 0 1321 0 0 1332 0 0 1295 0 0 1286 0 0 1327 0 0 1357 0 0 1374 0 0 1373 0 0 1346 0 0 1351 0 0 1345 0 0 1358 0 0 1361 0 0 1322 0 0 1343 0 0 1382 0 0 1341 0 0 1362 0 0 1383 0 0 1338 0 0 1339 0 0 1272 0 0 1268 0 0 1385 0 0 1379 0 0 1275 0 0 1313 0 0 1314 0 0 1314 0 0 1314 0 0 1327 0 0 1384 0 0 1293 0 0 1315 0 0 675 0 0 0 0 0 0 0 0 0 0 0 0 0 0 0 0 0 0 0 0 0 0 0 0 0 0 0 0 0 
0 0 0 0 0 0 0 0 0 0 0 0 0 0 0 0 0 0 0 0 0 0 0 0 0 0 0 0 0 0 667 0 0 1397 0 0 1441 0 0 1266 0 0 1357 0 0 1379 0 0 1326 0 0 1268 0 0 1342 0 0 1250 0 0 1307 0 0 1298 0 0 1366 0 0 1326 0 0 1347 0 0 1303 0 0 1315 0 0 1305 0 0 1324 0 0 1424 0 0 1357 0 0 1342 0 0 1300 0 0 1307 0 0 1354 0 0 1313 0 0 1299 0 0 1340 0 0 1340 0 0 1345 0 0 1309 0 0 1351 0 0 1346 0 0 1292 0 0 1344 0 0 1275 0 0 1322 0 0 1355 0 0 1314 0 0 1346 0 0 608 0 0 0 0 0 0 0 0 0 0 0 0 0 0 0 0 0 0 0 0 0 0 0 0 0 0 0 0 0 
0 0 0 0 0 0 0 0 0 0 0 0 0 0 0 0 0 0 0 0 0 0 0 0 0 0 0 0 0 0 649 0 0 1304 0 0 1319 0 0 1397 0 0 1394 0 0 1316 0 0 1374 0 0 1361 0 0 1312 0 0 1302 0 0 1322 0 0 1352 0 0 1367 0 0 1324 0 0 1351 0 0 1376 0 0 1381 0 0 1308 0 0 1234 0 0 1370 0 0 1352 0 0 1356 0 0 1320 0 0 1365 0 0 1325 0 0 1333 0 0 1399 0 0 1330 0 0 1335 0 0 1309 0 0 1343 0 0 1336 0 0 1373 0 0 1332 0 0 1307 0 0 1318 0 0 1312 0 0 1317 0 0 1369 0 0 1287 0 0 685 0 0 0 0 0 0 0 0 0 0 0 0 0 0 0 0 0 0 0 0 0 0 0 0 0 0 0 0 0 
0 0 0 0 0 0 0 0 0 0 0 0 0 0 0 0 0 0 0 0 0 0 0 0 0 0 0 0 0 0 659 0 0 1387 0 0 1367 0 0 1318 0 0 1324 0 0 1329 0 0 1336 0 0 1353 0 0 1344 0 0 1284 0 0 1375 0 0 1331 0 0 1339 0 0 1298 0 0 1356 0 0 1351 0 0 1280 0 0 1263 0 0 1340 0 0 1303 0 0 1354 0 0 1313 0 0 1316 0 0 1273 0 0 1283 0 0 1363 0 0 1311 0 0 1362 0 0 1354 0 0 1332 0 0 1309 0 0 1346 0 0 1347 0 0 1298 0 0 1297 0 0 1390 0 0 1264 0 0 1319 0 0 1335 0 0 1274 0 0 702 0 0 0 0 0 0 0 0 0 0 0 0 0 0 0 0 0 0 0 0 0 0 0 0 0 0 0 0 0 
0 0 0 0 0 0 0 0 0 0 0 0 0 0 0 0 0 0 0 0 0 0 0 0 0 0 0 0 0 0 664 0 0 1287 0 0 1352 0 0 1359 0 0 1332 0 0 1328 0 0 1366 0 0 1284 0 0 1347 0 0 1299 0 0 1354 0 0 1318 0 0 1370 0 0 1333 0 0 1371 0 0 1386 0 0 1366 0 0 1298 0 0 1376 0 0 1302 0 0 1371 0 0 1281 0 0 1367 0 0 1369 0 0 1351 0 0 1304 0 0 1352 0 0 1429 0 0 1271 0 0 1329 0 0 1320 0 0 1343 0 0 1282 0 0 1387 0 0 1280 0 0 1364 0 0 1317 0 0 1352 0 0 1346 0 0 1309 0 0 686 0 0 0 0 0 0 0 0 0 0 0 0 0 0 0 0 0 0 0 0 0 0 0 0 0 0 0 0 0 
0 0 0 0 0 0 0 0 0 0 0 0 0 0 0 0 0 0 0 0 0 0 0 0 0 0 0 0 0 0 678 0 0 1304 0 0 1335 0 0 1322 0 0 1282 0 0 1353 0 0 1320 0 0 1347 0 0 1333 0 0 1358 0 0 1345 0 0 1336 0 0 1310 0 0 1377 0 0 1254 0 0 1344 0 0 1313 0 0 1334 0 0 1323 0 0 1352 0 0 1357 0 0 1349 0 0 1283 0 0 1306 0 0 1348 0 0 1322 0 0 1305 0 0 1375 0 0 1300 0 0 1341 0 0 1405 0 0 1291 0 0 1281 0 0 1284 0 0 1315 0 0 1309 0 0 1320 0 0 1305 0 0 1385 0 0 1261 0 0 688 0 0 0 0 0 0 0 0 0 0 0 0 0 0 0 0 0 0 0 0 0 0 0 0 0 0 0 0 0 
0 0 0 0 0 0 0 0 0 0 0 0 0 0 0 0 0 0 0 0 0 0 0 0 0 0 0 0 0 0 287 0 0 682 0 0 660 0 0 632 0 0 694 0 0 665 0 0 651 0 0 661 0 0 640 0 0 671 0 0 658 0 0 651 0 0 659 0 0 687 0 0 664 0 0 614 0 0 670 0 0 678 0 0 724 0 0 646 0 0 684 0 0 702 0 0 654 0 0 690 0 0 657 0 0 646 0 0 670 0 0 685 0 0 684 0 0 634 0 0 671 0 0 631 0 0 643 0 0 611 0 0 657 0 0 655 0 0 694 0 0 692 0 0 679 0 0 641 0 0 336 0 0 0 0 0 0 0 0 0 0 0 0 0 0 0 0 0 0 0 0 0 0 0 0 0 0 0 0 0 
0 0 0 0 0 0 0 0 0 0 0 0 0 0 0 0 0 0 0 0 0 0 0 0 0 0 0 0 0 0 0 0 0 0 0 0 0 0 0 0 0 0 0 0 0 0 0 0 0 0 0 0 0 0 0 0 0 0 0 0 0 0 0 0 0 0 0 0 0 0 0 0 0 0 0 0 0 0 0 0 0 0 0 0 0 0 0 0 0 0 0 0 0 0 0 0 0 0 0 0 0 0 0 0 0 0 0 0 0 0 0 0 0 0 0 0 0 0 0 0 0 0 0 0 0 0 0 0 0 0 0 0 0 0 0 0 0 0 0 0 0 0 0 0 0 0 0 0 0 0 0 0 0 0 0 0 0 0 0 0 0 0 0 0 0 0 0 0 0 0 0 0 0 0 0 0 0 0 0 0 
0 0 0 0 0 0 0 0 0 0 0 0 0 0 0 0 0 0 0 0 0 0 0 0 0 0 0 0 0 0 0 0 0 0 0 0 0 0 0 0 0 0 0 0 0 0 0 0 0 0 0 0 0 0 0 0 0 0 0 0 0 0 0 0 0 0 0 0 0 0 0 0 0 0 0 0 0 0 0 0 0 0 0 0 0 0 0 0 0 0 0 0 0 0 0 0 0 0 0 0 0 0 0 0 0 0 0 0 0 0 0 0 0 0 0 0 0 0 0 0 0 0 0 0 0 0 0 0 0 0 0 0 0 0 0 0 0 0 0 0 0 0 0 0 0 0 0 0 0 0 0 0 0 0 0 0 0 0 0 0 0 0 0 0 0 0 0 0 0 0 0 0 0 0 0 0 0 0 0 0 
0 0 0 0 0 0 0 0 0 0 0 0 0 0 0 0 0 0 0 0 0 0 0 0 0 0 0 0 0 0 0 0 0 0 0 0 0 0 0 0 0 0 0 0 0 0 0 0 0 0 0 0 0 0 0 0 0 0 0 0 0 0 0 0 0 0 0 0 0 0 0 0 0 0 0 0 0 0 0 0 0 0 0 0 0 0 0 0 0 0 0 0 0 0 0 0 0 0 0 0 0 0 0 0 0 0 0 0 0 0 0 0 0 0 0 0 0 0 0 0 0 0 0 0 0 0 0 0 0 0 0 0 0 0 0 0 0 0 0 0 0 0 0 0 0 0 0 0 0 0 0 0 0 0 0 0 0 0 0 0 0 0 0 0 0 0 0 0 0 0 0 0 0 0 0 0 0 0 0 0 
0 0 0 0 0 0 0 0 0 0 0 0 0 0 0 0 0 0 0 0 0 0 0 0 0 0 0 0 0 0 0 0 0 0 0 0 0 0 0 0 0 0 0 0 0 0 0 0 0 0 0 0 0 0 0 0 0 0 0 0 0 0 0 0 0 0 0 0 0 0 0 0 0 0 0 0 0 0 0 0 0 0 0 0 0 0 0 0 0 0 0 0 0 0 0 0 0 0 0 0 0 0 0 0 0 0 0 0 0 0 0 0 0 0 0 0 0 0 0 0 0 0 0 0 0 0 0 0 0 0 0 0 0 0 0 0 0 0 0 0 0 0 0 0 0 0 0 0 0 0 0 0 0 0 0 0 0 0 0 0 0 0 0 0 0 0 0 0 0 0 0 0 0 0 0 0 0 0 0 0 
0 0 0 0 0 0 0 0 0 0 0 0 0 0 0 0 0 0 0 0 0 0 0 0 0 0 0 0 0 0 0 0 0 0 0 0 0 0 0 0 0 0 0 0 0 0 0 0 0 0 0 0 0 0 0 0 0 0 0 0 0 0 0 0 0 0 0 0 0 0 0 0 0 0 0 0 0 0 0 0 0 0 0 0 0 0 0 0 0 0 0 0 0 0 0 0 0 0 0 0 0 0 0 0 0 0 0 0 0 0 0 0 0 0 0 0 0 0 0 0 0 0 0 0 0 0 0 0 0 0 0 0 0 0 0 0 0 0 0 0 0 0 0 0 0 0 0 0 0 0 0 0 0 0 0 0 0 0 0 0 0 0 0 0 0 0 0 0 0 0 0 0 0 0 0 0 0 0 0 0 
0 0 0 0 0 0 0 0 0 0 0 0 0 0 0 0 0 0 0 0 0 0 0 0 0 0 0 0 0 0 0 0 0 0 0 0 0 0 0 0 0 0 0 0 0 0 0 0 0 0 0 0 0 0 0 0 0 0 0 0 0 0 0 0 0 0 0 0 0 0 0 0 0 0 0 0 0 0 0 0 0 0 0 0 0 0 0 0 0 0 0 0 0 0 0 0 0 0 0 0 0 0 0 0 0 0 0 0 0 0 0 0 0 0 0 0 0 0 0 0 0 0 0 0 0 0 0 0 0 0 0 0 0 0 0 0 0 0 0 0 0 0 0 0 0 0 0 0 0 0 0 0 0 0 0 0 0 0 0 0 0 0 0 0 0 0 0 0 0 0 0 0 0 0 0 0 0 0 0 0 
0 0 0 0 0 0 0 0 0 0 0 0 0 0 0 0 0 0 0 0 0 0 0 0 0 0 0 0 0 0 0 0 0 0 0 0 0 0 0 0 0 0 0 0 0 0 0 0 0 0 0 0 0 0 0 0 0 0 0 0 0 0 0 0 0 0 0 0 0 0 0 0 0 0 0 0 0 0 0 0 0 0 0 0 0 0 0 0 0 0 0 0 0 0 0 0 0 0 0 0 0 0 0 0 0 0 0 0 0 0 0 0 0 0 0 0 0 0 0 0 0 0 0 0 0 0 0 0 0 0 0 0 0 0 0 0 0 0 0 0 0 0 0 0 0 0 0 0 0 0 0 0 0 0 0 0 0 0 0 0 0 0 0 0 0 0 0 0 0 0 0 0 0 0 0 0 0 0 0 0 
0 0 0 0 0 0 0 0 0 0 0 0 0 0 0 0 0 0 0 0 0 0 0 0 0 0 0 0 0 0 0 0 0 0 0 0 0 0 0 0 0 0 0 0 0 0 0 0 0 0 0 0 0 0 0 0 0 0 0 0 0 0 0 0 0 0 0 0 0 0 0 0 0 0 0 0 0 0 0 0 0 0 0 0 0 0 0 0 0 0 0 0 0 0 0 0 0 0 0 0 0 0 0 0 0 0 0 0 0 0 0 0 0 0 0 0 0 0 0 0 0 0 0 0 0 0 0 0 0 0 0 0 0 0 0 0 0 0 0 0 0 0 0 0 0 0 0 0 0 0 0 0 0 0 0 0 0 0 0 0 0 0 0 0 0 0 0 0 0 0 0 0 0 0 0 0 0 0 0 0 
0 0 0 0 0 0 0 0 0 0 0 0 0 0 0 0 0 0 0 0 0 0 0 0 0 0 0 0 0 0 0 0 0 0 0 0 0 0 0 0 0 0 0 0 0 0 0 0 0 0 0 0 0 0 0 0 0 0 0 0 0 0 0 0 0 0 0 0 0 0 0 0 0 0 0 0 0 0 0 0 0 0 0 0 0 0 0 0 0 0 0 0 0 0 0 0 0 0 0 0 0 0 0 0 0 0 0 0 0 0 0 0 0 0 0 0 0 0 0 0 0 0 0 0 0 0 0 0 0 0 0 0 0 0 0 0 0 0 0 0 0 0 0 0 0 0 0 0 0 0 0 0 0 0 0 0 0 0 0 0 0 0 0 0 0 0 0 0 0 0 0 0 0 0 0 0 0 0 0 0 
