P3
# This is a dose file slice at depth 10 of 100
60 60
# now we give the maximum value of the RGB coordinates.
1602
0 0 0 0 0 0 0 0 0 1 0 0 0 0 0 0 0 0 0 0 0 0 0 0 0 0 0 0 0 0 0 0 0 0 0 0 0 0 0 0 0 0 0 0 0 0 0 0 0 0 0 0 0 0 0 0 0 1 0 0 0 0 0 0 0 0 0 0 0 0 0 0 0 0 0 0 0 0 0 0 0 0 0 0 1 0 0 0 0 0 0 0 0 0 0 0 0 0 0 0 0 0 0 0 0 0 0 0 0 0 0 0 0 0 0 0 0 0 0 0 0 0 0 0 0 0 0 0 0 0 0 0 0 0 0 1 0 0 0 0 0 0 0 0 0 0 0 0 0 0 0 0 0 0 0 0 0 0 0 0 0 0 0 0 0 1 0 0 0 0 0 0 0 0 0 0 0 0 0 0 
0 0 0 0 0 0 1 0 0 0 0 0 1 0 0 2 0 0 0 0 0 0 0 0 0 0 0 1 0 0 0 0 0 0 0 0 0 0 0 0 0 0 0 0 0 0 0 0 0 0 0 0 0 0 0 0 0 0 0 0 0 0 0 0 0 0 0 0 0 0 0 0 0 0 0 0 0 0 0 0 0 2 0 0 0 0 0 2 0 0 0 0 0 1 0 0 0 0 0 0 0 0 0 0 0 0 0 0 0 0 0 0 0 0 0 0 0 1 0 0 0 0 0 0 0 0 2 0 0 0 0 0 0 0 0 1 0 0 0 0 0 0 0 0 1 0 0 0 0 0 0 0 0 0 0 0 0 0 0 0 0 0 1 0 0 2 0 0 0 0 0 0 0 0 0 0 0 0 0 0 
0 0 0 0 0 0 0 0 0 0 0 0 0 0 0 0 0 0 1 0 0 0 0 0 1 0 0 0 0 0 0 0 0 0 0 0 0 0 0 0 0 0 1 0 0 0 0 0 0 0 0 0 0 0 0 0 0 0 0 0 0 0 0 0 0 0 0 0 0 0 0 0 1 0 0 0 0 0 0 0 0 1 0 0 0 0 0 3 0 0 0 0 0 1 0 0 1 0 0 0 0 0 0 0 0 0 0 0 1 0 0 0 0 0 0 0 0 0 0 0 1 0 0 1 0 0 1 0 0 0 0 0 1 0 0 0 0 0 0 0 0 0 0 0 0 0 0 0 0 0 0 0 0 0 0 0 0 0 0 0 0 0 2 0 0 0 0 0 0 0 0 0 0 0 0 0 0 0 0 0 
0 0 0 0 0 0 0 0 0 0 0 0 1 0 0 0 0 0 0 0 0 0 0 0 0 0 0 0 0 0 3 0 0 0 0 0 0 0 0 0 0 0 0 0 0 1 0 0 0 0 0 0 0 0 0 0 0 0 0 0 0 0 0 0 0 0 0 0 0 0 0 0 0 0 0 0 0 0 1 0 0 0 0 0 0 0 0 0 0 0 0 0 0 0 0 0 2 0 0 1 0 0 2 0 0 0 0 0 0 0 0 0 0 0 0 0 0 0 0 0 0 0 0 3 0 0 1 0 0 1 0 0 1 0 0 0 0 0 0 0 0 0 0 0 0 0 0 0 0 0 0 0 0 0 0 0 0 0 0 1 0 0 0 0 0 0 0 0 0 0 0 0 0 0 0 0 0 0 0 0 
0 0 0 0 0 0 0 0 0 0 0 0 0 0 0 1 0 0 1 0 0 0 0 0 1 0 0 0 0 0 0 0 0 0 0 0 0 0 0 0 0 0 0 0 0 2 0 0 0 0 0 0 0 0 0 0 0 0 0 0 0 0 0 0 0 0 0 0 0 0 0 0 0 0 0 0 0 0 0 0 0 0 0 0 0 0 0 0 0 0 0 0 0 1 0 0 0 0 0 0 0 0 0 0 0 1 0 0 0 0 0 0 0 0 0 0 0 0 0 0 2 0 0 0 0 0 2 0 0 1 0 0 0 0 0 0 0 0 1 0 0 2 0 0 1 0 0 0 0 0 0 0 0 0 0 0 2 0 0 0 0 0 0 0 0 0 0 0 0 0 0 0 0 0 0 0 0 0 0 0 
0 0 0 0 0 0 0 0 0 0 0 0 0 0 0 0 0 0 1 0 0 0 0 0 0 0 0 0 0 0 0 0 0 0 0 0 1 0 0 1 0 0 0 0 0 2 0 0 0 0 0 0 0 0 0 0 0 1 0 0 0 0 0 0 0 0 0 0 0 1 0 0 3 0 0 1 0 0 1 0 0 0 0 0 0 0 0 0 0 0 3 0 0 1 0 0 0 0 0 0 0 0 0 0 0 1 0 0 0 0 0 0 0 0 0 0 0 1 0 0 0 0 0 0 0 0 1 0 0 1 0 0 0 0 0 3 0 0 2 0 0 1 0 0 1 0 0 0 0 0 0 0 0 0 0 0 0 0 0 0 0 0 0 0 0 0 0 0 0 0 0 0 0 0 0 0 0 0 0 0 
0 0 0 0 0 0 0 0 0 0 0 0 0 0 0 0 0 0 0 0 0 1 0 0 0 0 0 0 0 0 0 0 0 0 0 0 0 0 0 0 0 0 0 0 0 1 0 0 0 0 0 0 0 0 0 0 0 1 0 0 0 0 0 0 0 0 1 0 0 2 0 0 0 0 0 3 0 0 2 0 0 2 0 0 0 0 0 0 0 0 1 0 0 1 0 0 1 0 0 1 0 0 0 0 0 0 0 0 0 0 0 1 0 0 0 0 0 2 0 0 0 0 0 0 0 0 1 0 0 1 0 0 0 0 0 1 0 0 1 0 0 0 0 0 1 0 0 0 0 0 0 0 0 0 0 0 0 0 0 0 0 0 0 0 0 0 0 0 0 0 0 0 0 0 0 0 0 0 0 0 
0 0 0 0 0 0 0 0 0 0 0 0 0 0 0 0 0 0 0 0 0 0 0 0 3 0 0 0 0 0 0 0 0 0 0 0 0 0 0 1 0 0 0 0 0 2 0 0 1 0 0 0 0 0 3 0 0 1 0 0 0 0 0 1 0 0 1 0 0 0 0 0 1 0 0 1 0 0 3 0 0 0 0 0 1 0 0 0 0 0 1 0 0 4 0 0 1 0 0 1 0 0 0 0 0 0 0 0 0 0 0 0 0 0 5 0 0 0 0 0 1 0 0 0 0 0 2 0 0 1 0 0 0 0 0 0 0 0 0 0 0 2 0 0 1 0 0 0 0 0 0 0 0 0 0 0 1 0 0 0 0 0 1 0 0 0 0 0 0 0 0 0 0 0 0 0 0 0 0 0 
0 0 0 0 0 0 0 0 0 0 0 0 0 0 0 0 0 0 0 0 0 0 0 0 1 0 0 1 0 0 0 0 0 0 0 0 0 0 0 0 0 0 0 0 0 0 0 0 1 0 0 0 0 0 2 0 0 1 0 0 1 0 0 2 0 0 0 0 0 1 0 0 0 0 0 2 0 0 0 0 0 1 0 0 0 0 0 0 0 0 1 0 0 1 0 0 3 0 0 0 0 0 0 0 0 0 0 0 0 0 0 3 0 0 5 0 0 3 0 0 0 0 0 0 0 0 1 0 0 2 0 0 3 0 0 0 0 0 0 0 0 3 0 0 1 0 0 0 0 0 0 0 0 0 0 0 0 0 0 0 0 0 0 0 0 0 0 0 0 0 0 0 0 0 0 0 0 1 0 0 
0 0 0 0 0 0 0 0 0 0 0 0 0 0 0 0 0 0 0 0 0 0 0 0 0 0 0 0 0 0 4 0 0 7 0 0 4 0 0 4 0 0 5 0 0 9 0 0 7 0 0 7 0 0 6 0 0 3 0 0 5 0 0 4 0 0 6 0 0 7 0 0 11 0 0 3 0 0 6 0 0 9 0 0 10 0 0 7 0 0 2 0 0 6 0 0 7 0 0 3 0 0 9 0 0 9 0 0 11 0 0 9 0 0 10 0 0 7 0 0 3 0 0 6 0 0 6 0 0 10 0 0 8 0 0 7 0 0 11 0 0 9 0 0 5 0 0 7 0 0 0 0 0 0 0 0 0 0 0 0 0 0 0 0 0 0 0 0 0 0 0 0 0 0 1 0 0 2 0 0 
0 0 0 0 0 0 0 0 0 0 0 0 0 0 0 0 0 0 0 0 0 2 0 0 3 0 0 4 0 0 318 0 0 628 0 0 619 0 0 632 0 0 621 0 0 589 0 0 576 0 0 603 0 0 610 0 0 607 0 0 597 0 0 613 0 0 620 0 0 612 0 0 651 0 0 630 0 0 589 0 0 631 0 0 604 0 0 632 0 0 602 0 0 638 0 0 605 0 0 623 0 0 629 0 0 593 0 0 588 0 0 666 0 0 623 0 0 648 0 0 583 0 0 620 0 0 637 0 0 627 0 0 609 0 0 637 0 0 608 0 0 633 0 0 580 0 0 611 0 0 314 0 0 3 0 0 0 0 0 0 0 0 0 0 0 0 0 0 0 0 0 0 0 0 0 0 0 0 0 0 
0 0 0 0 0 0 0 0 0 0 0 0 1 0 0 0 0 0 0 0 0 0 0 0 0 0 0 9 0 0 593 0 0 1222 0 0 1247 0 0 1222 0 0 1186 0 0 1213 0 0 1266 0 0 1234 0 0 1157 0 0 1275 0 0 1277 0 0 1294 0 0 1212 0 0 1212 0 0 1182 0 0 1212 0 0 1255 0 0 1238 0 0 1171 0 0 1178 0 0 1224 0 0 1210 0 0 1213 0 0 1245 0 0 1206 0 0 1206 0 0 1280 0 0 1228 0 0 1238 0 0 1255 0 0 1163 0 0 1209 0 0 1182 0 0 1247 0 0 1204 0 0 1219 0 0 1243 0 0 1182 0 0 1257 0 0 1246 0 0 621 0 0 9 0 0 0 0 0 0 0 0 0 0 0 0 0 0 0 0 0 0 0 0 0 0 0 1 0 0 
0 0 0 0 0 0 0 0 0 0 0 0 0 0 0 1 0 0 0 0 0 0 0 0 1 0 0 4 0 0 591 0 0 1234 0 0 1134 0 0 1238 0 0 1279 0 0 1221 0 0 1241 0 0 1287 0 0 1240 0 0 1171 0 0 1249 0 0 1255 0 0 1241 0 0 1253 0 0 1234 0 0 1213 0 0 1264 0 0 1262 0 0 1207 0 0 1232 0 0 1205 0 0 1265 0 0 1229 0 0 1207 0 0 1206 0 0 1190 0 0 1215 0 0 1212 0 0 1241 0 0 1235 0 0 1232 0 0 1229 0 0 1309 0 0 1204 0 0 1267 0 0 1245 0 0 1292 0 0 1208 0 0 1168 0 0 1234 0 0 608 0 0 9 0 0 0 0 0 0 0 0 0 0 0 0 0 0 0 0 0 0 0 0 1 0 0 0 0 0 
0 0 0 0 0 0 0 0 0 0 0 0 0 0 0 0 0 0 0 0 0 0 0 0 0 0 0 9 0 0 585 0 0 1223 0 0 1244 0 0 1271 0 0 1234 0 0 1261 0 0 1262 0 0 1285 0 0 1207 0 0 1256 0 0 1243 0 0 1245 0 0 1263 0 0 1244 0 0 1297 0 0 1197 0 0 1237 0 0 1283 0 0 1256 0 0 1294 0 0 1224 0 0 1251 0 0 1255 0 0 1273 0 0 1207 0 0 1238 0 0 1173 0 0 1260 0 0 1233 0 0 1242 0 0 1181 0 0 1245 0 0 1275 0 0 1272 0 0 1194 0 0 1235 0 0 1258 0 0 1212 0 0 1194 0 0 1165 0 0 568 0 0 4 0 0 0 0 0 0 0 0 0 0 0 0 0 0 0 0 0 0 0 0 0 0 0 0 0 0 
0 0 0 0 0 0 0 0 0 2 0 0 0 0 0 1 0 0 1 0 0 1 0 0 1 0 0 8 0 0 593 0 0 1198 0 0 1264 0 0 1227 0 0 1237 0 0 1247 0 0 1218 0 0 1244 0 0 1237 0 0 1177 0 0 1216 0 0 1209 0 0 1233 0 0 1272 0 0 1273 0 0 1221 0 0 1184 0 0 1238 0 0 1162 0 0 1184 0 0 1213 0 0 1260 0 0 1280 0 0 1256 0 0 1267 0 0 1236 0 0 1237 0 0 1306 0 0 1221 0 0 1245 0 0 1232 0 0 1139 0 0 1226 0 0 1225 0 0 1252 0 0 1180 0 0 1248 0 0 1209 0 0 1243 0 0 1215 0 0 624 0 0 7 0 0 0 0 0 1 0 0 1 0 0 0 0 0 1 0 0 0 0 0 0 0 0 0 0 0 
0 0 0 1 0 0 3 0 0 2 0 0 2 0 0 2 0 0 1 0 0 0 0 0 1 0 0 10 0 0 629 0 0 1222 0 0 1273 0 0 1218 0 0 1198 0 0 1232 0 0 1277 0 0 1244 0 0 1241 0 0 1193 0 0 1209 0 0 1240 0 0 1213 0 0 1163 0 0 1195 0 0 1273 0 0 1261 0 0 1226 0 0 1203 0 0 1267 0 0 1301 0 0 1206 0 0 1201 0 0 1259 0 0 1243 0 0 1194 0 0 1239 0 0 1248 0 0 1264 0 0 1233 0 0 1228 0 0 1213 0 0 1294 0 0 1236 0 0 1239 0 0 1245 0 0 1248 0 0 1280 0 0 1227 0 0 1289 0 0 602 0 0 10 0 0 0 0 0 1 0 0 1 0 0 0 0 0 0 0 0 2 0 0 0 0 0 0 0 0 
0 0 0 1 0 0 0 0 0 1 0 0 0 0 0 2 0 0 2 0 0 1 0 0 0 0 0 7 0 0 581 0 0 1276 0 0 1245 0 0 1192 0 0 1202 0 0 1265 0 0 1244 0 0 1209 0 0 1247 0 0 1240 0 0 1263 0 0 1225 0 0 1248 0 0 1208 0 0 1209 0 0 1172 0 0 1154 0 0 1209 0 0 1238 0 0 1237 0 0 1292 0 0 1197 0 0 1281 0 0 1249 0 0 1207 0 0 1248 0 0 1273 0 0 1230 0 0 1244 0 0 1247 0 0 1184 0 0 1231 0 0 1231 0 0 1241 0 0 1225 0 0 1250 0 0 1230 0 0 1235 0 0 1230 0 0 1216 0 0 617 0 0 6 0 0 0 0 0 0 0 0 0 0 0 0 0 0 0 0 0 1 0 0 1 0 0 0 0 0 
0 0 0 0 0 0 0 0 0 1 0 0 0 0 0 0 0 0 4 0 0 0 0 0 0 0 0 8 0 0 608 0 0 1196 0 0 1253 0 0 1155 0 0 1215 0 0 1237 0 0 1225 0 0 1198 0 0 1265 0 0 1164 0 0 1197 0 0 1276 0 0 1306 0 0 1256 0 0 1244 0 0 1180 0 0 1183 0 0 1280 0 0 1304 0 0 1238 0 0 1209 0 0 1164 0 0 1178 0 0 1209 0 0 1250 0 0 1235 0 0 1196 0 0 1244 0 0 1293 0 0 1226 0 0 1223 0 0 1194 0 0 1221 0 0 1277 0 0 1259 0 0 1199 0 0 1250 0 0 1192 0 0 1212 0 0 1190 0 0 625 0 0 7 0 0 1 0 0 0 0 0 0 0 0 0 0 0 0 0 0 0 0 0 0 0 0 2 0 0 
0 0 0 2 0 0 3 0 0 1 0 0 1 0 0 2 0 0 1 0 0 1 0 0 0 0 0 3 0 0 599 0 0 1263 0 0 1289 0 0 1247 0 0 1248 0 0 1206 0 0 1233 0 0 1261 0 0 1216 0 0 1220 0 0 1190 0 0 1246 0 0 1243 0 0 1228 0 0 1180 0 0 1209 0 0 1220 0 0 1231 0 0 1242 0 0 1218 0 0 1227 0 0 1256 0 0 1249 0 0 1245 0 0 1210 0 0 1281 0 0 1233 0 0 1231 0 0 1268 0 0 1267 0 0 1245 0 0 1246 0 0 1264 0 0 1171 0 0 1241 0 0 1251 0 0 1215 0 0 1270 0 0 1265 0 0 1259 0 0 607 0 0 7 0 0 2 0 0 1 0 0 1 0 0 1 0 0 0 0 0 1 0 0 0 0 0 0 0 0 
0 0 0 1 0 0 0 0 0 0 0 0 0 0 0 0 0 0 1 0 0 1 0 0 1 0 0 4 0 0 594 0 0 1240 0 0 1231 0 0 1234 0 0 1235 0 0 1250 0 0 1205 0 0 1201 0 0 1230 0 0 1226 0 0 1232 0 0 1166 0 0 1225 0 0 1265 0 0 1220 0 0 1245 0 0 1227 0 0 1224 0 0 1261 0 0 1267 0 0 1218 0 0 1227 0 0 1239 0 0 1224 0 0 1210 0 0 1300 0 0 1280 0 0 1275 0 0 1289 0 0 1195 0 0 1242 0 0 1282 0 0 1220 0 0 1196 0 0 1229 0 0 1247 0 0 1193 0 0 1265 0 0 1204 0 0 1254 0 0 644 0 0 7 0 0 0 0 0 1 0 0 0 0 0 1 0 0 1 0 0 0 0 0 0 0 0 0 0 0 
0 0 0 0 0 0 0 0 0 0 0 0 0 0 0 0 0 0 1 0 0 0 0 0 1 0 0 7 0 0 634 0 0 1258 0 0 1257 0 0 1211 0 0 1234 0 0 1231 0 0 1227 0 0 1279 0 0 1250 0 0 1225 0 0 1243 0 0 1231 0 0 1205 0 0 1224 0 0 1206 0 0 1211 0 0 1243 0 0 1197 0 0 1223 0 0 1223 0 0 1215 0 0 1272 0 0 1231 0 0 1170 0 0 1243 0 0 1284 0 0 1234 0 0 1286 0 0 1195 0 0 1258 0 0 1210 0 0 1222 0 0 1305 0 0 1239 0 0 1201 0 0 1205 0 0 1233 0 0 1265 0 0 1233 0 0 1241 0 0 600 0 0 6 0 0 0 0 0 0 0 0 0 0 0 2 0 0 0 0 0 0 0 0 0 0 0 0 0 0 
0 0 0 0 0 0 0 0 0 0 0 0 0 0 0 0 0 0 0 0 0 0 0 0 2 0 0 6 0 0 598 0 0 1193 0 0 1237 0 0 1219 0 0 1263 0 0 1201 0 0 1219 0 0 1230 0 0 1201 0 0 1223 0 0 1261 0 0 1236 0 0 1245 0 0 1173 0 0 1267 0 0 1227 0 0 1232 0 0 1262 0 0 1203 0 0 1305 0 0 1248 0 0 1234 0 0 1237 0 0 1174 0 0 1249 0 0 1218 0 0 1236 0 0 1199 0 0 1266 0 0 1252 0 0 1212 0 0 1237 0 0 1251 0 0 1191 0 0 1234 0 0 1252 0 0 1210 0 0 1258 0 0 1216 0 0 1219 0 0 610 0 0 8 0 0 1 0 0 2 0 0 0 0 0 0 0 0 0 0 0 0 0 0 1 0 0 0 0 0 
0 0 0 0 0 0 0 0 0 0 0 0 0 0 0 0 0 0 1 0 0 3 0 0 2 0 0 5 0 0 637 0 0 1237 0 0 1254 0 0 1219 0 0 1265 0 0 1192 0 0 1263 0 0 1200 0 0 1177 0 0 1226 0 0 1171 0 0 1290 0 0 1260 0 0 1219 0 0 1239 0 0 1231 0 0 1237 0 0 1207 0 0 1243 0 0 1281 0 0 1214 0 0 1255 0 0 1223 0 0 1278 0 0 1157 0 0 1244 0 0 1238 0 0 1184 0 0 1274 0 0 1244 0 0 1183 0 0 1270 0 0 1205 0 0 1234 0 0 1272 0 0 1229 0 0 1289 0 0 1239 0 0 1244 0 0 1250 0 0 628 0 0 3 0 0 0 0 0 0 0 0 0 0 0 0 0 0 0 0 0 1 0 0 2 0 0 0 0 0 
0 0 0 0 0 0 0 0 0 0 0 0 2 0 0 3 0 0 0 0 0 0 0 0 2 0 0 6 0 0 620 0 0 1250 0 0 1192 0 0 1260 0 0 1290 0 0 1224 0 0 1285 0 0 1218 0 0 1202 0 0 1288 0 0 1207 0 0 1230 0 0 1226 0 0 1187 0 0 1256 0 0 1307 0 0 1248 0 0 1230 0 0 1184 0 0 1285 0 0 1273 0 0 1263 0 0 1217 0 0 1266 0 0 1246 0 0 1252 0 0 1172 0 0 1169 0 0 1247 0 0 1176 0 0 1182 0 0 1247 0 0 1236 0 0 1255 0 0 1257 0 0 1211 0 0 1219 0 0 1176 0 0 1211 0 0 1256 0 0 632 0 0 9 0 0 3 0 0 2 0 0 0 0 0 1 0 0 0 0 0 1 0 0 0 0 0 0 0 0 
0 0 0 0 0 0 0 0 0 0 0 0 0 0 0 0 0 0 0 0 0 3 0 0 2 0 0 11 0 0 631 0 0 1251 0 0 1240 0 0 1210 0 0 1221 0 0 1239 0 0 1251 0 0 1208 0 0 1174 0 0 1272 0 0 1259 0 0 1240 0 0 1196 0 0 1241 0 0 1259 0 0 1265 0 0 1243 0 0 1241 0 0 1299 0 0 1243 0 0 1258 0 0 1242 0 0 1233 0 0 1220 0 0 1235 0 0 1309 0 0 1269 0 0 1169 0 0 1220 0 0 1232 0 0 1180 0 0 1217 0 0 1274 0 0 1300 0 0 1191 0 0 1222 0 0 1234 0 0 1224 0 0 1193 0 0 1204 0 0 652 0 0 10 0 0 1 0 0 0 0 0 0 0 0 0 0 0 0 0 0 0 0 0 0 0 0 0 0 0 
0 0 0 0 0 0 0 0 0 0 0 0 0 0 0 0 0 0 1 0 0 1 0 0 3 0 0 9 0 0 597 0 0 1254 0 0 1240 0 0 1222 0 0 1237 0 0 1253 0 0 1255 0 0 1231 0 0 1242 0 0 1214 0 0 1198 0 0 1189 0 0 1196 0 0 1298 0 0 1224 0 0 1268 0 0 1248 0 0 1198 0 0 1172 0 0 1199 0 0 1227 0 0 1246 0 0 1246 0 0 1236 0 0 1261 0 0 1225 0 0 1220 0 0 1240 0 0 1253 0 0 1219 0 0 1216 0 0 1243 0 0 1182 0 0 1198 0 0 1222 0 0 1251 0 0 1277 0 0 1233 0 0 1224 0 0 1248 0 0 604 0 0 9 0 0 2 0 0 0 0 0 1 0 0 0 0 0 0 0 0 0 0 0 0 0 0 0 0 0 
0 0 0 0 0 0 0 0 0 0 0 0 1 0 0 0 0 0 0 0 0 0 0 0 1 0 0 7 0 0 625 0 0 1190 0 0 1230 0 0 1220 0 0 1252 0 0 1238 0 0 1303 0 0 1252 0 0 1214 0 0 1218 0 0 1227 0 0 1277 0 0 1213 0 0 1263 0 0 1240 0 0 1229 0 0 1223 0 0 1233 0 0 1183 0 0 1285 0 0 1195 0 0 1192 0 0 1250 0 0 1206 0 0 1193 0 0 1280 0 0 1173 0 0 1226 0 0 1230 0 0 1273 0 0 1233 0 0 1240 0 0 1214 0 0 1250 0 0 1201 0 0 1217 0 0 1238 0 0 1271 0 0 1205 0 0 1242 0 0 659 0 0 9 0 0 0 0 0 0 0 0 0 0 0 0 0 0 2 0 0 1 0 0 0 0 0 3 0 0 
0 0 0 0 0 0 1 0 0 1 0 0 0 0 0 1 0 0 0 0 0 0 0 0 1 0 0 6 0 0 622 0 0 1203 0 0 1212 0 0 1284 0 0 1250 0 0 1222 0 0 1264 0 0 1209 0 0 1258 0 0 1204 0 0 1222 0 0 1234 0 0 1164 0 0 1133 0 0 1276 0 0 1272 0 0 1157 0 0 1192 0 0 1252 0 0 1295 0 0 1187 0 0 1264 0 0 1254 0 0 1270 0 0 1201 0 0 1245 0 0 1236 0 0 1266 0 0 1265 0 0 1204 0 0 1233 0 0 1262 0 0 1205 0 0 1282 0 0 1157 0 0 1234 0 0 1261 0 0 1252 0 0 1178 0 0 1204 0 0 626 0 0 12 0 0 4 0 0 1 0 0 0 0 0 1 0 0 0 0 0 1 0 0 1 0 0 0 0 0 
0 0 0 0 0 0 0 0 0 0 0 0 0 0 0 2 0 0 1 0 0 0 0 0 4 0 0 6 0 0 652 0 0 1241 0 0 1240 0 0 1212 0 0 1212 0 0 1231 0 0 1267 0 0 1247 0 0 1211 0 0 1250 0 0 1210 0 0 1253 0 0 1231 0 0 1201 0 0 1210 0 0 1187 0 0 1218 0 0 1242 0 0 1198 0 0 1254 0 0 1213 0 0 1223 0 0 1226 0 0 1220 0 0 1209 0 0 1180 0 0 1219 0 0 1214 0 0 1253 0 0 1187 0 0 1213 0 0 1199 0 0 1251 0 0 1279 0 0 1244 0 0 1241 0 0 1238 0 0 1220 0 0 1238 0 0 1267 0 0 605 0 0 9 0 0 4 0 0 2 0 0 0 0 0 1 0 0 0 0 0 0 0 0 0 0 0 0 0 0 
0 0 0 0 0 0 0 0 0 0 0 0 0 0 0 0 0 0 2 0 0 2 0 0 1 0 0 8 0 0 618 0 0 1307 0 0 1256 0 0 1222 0 0 1284 0 0 1245 0 0 1203 0 0 1214 0 0 1264 0 0 1253 0 0 1289 0 0 1243 0 0 1220 0 0 1252 0 0 1239 0 0 1240 0 0 1225 0 0 1251 0 0 1221 0 0 1173 0 0 1238 0 0 1177 0 0 1255 0 0 1183 0 0 1223 0 0 1188 0 0 1240 0 0 1208 0 0 1234 0 0 1237 0 0 1260 0 0 1243 0 0 1295 0 0 1220 0 0 1209 0 0 1208 0 0 1261 0 0 1257 0 0 1224 0 0 1229 0 0 653 0 0 6 0 0 2 0 0 3 0 0 2 0 0 1 0 0 3 0 0 1 0 0 0 0 0 1 0 0 
0 0 0 0 0 0 0 0 0 0 0 0 0 0 0 0 0 0 0 0 0 2 0 0 1 0 0 7 0 0 616 0 0 1262 0 0 1252 0 0 1256 0 0 1229 0 0 1285 0 0 1255 0 0 1243 0 0 1259 0 0 1254 0 0 1237 0 0 1193 0 0 1272 0 0 1200 0 0 1267 0 0 1230 0 0 1249 0 0 1218 0 0 1220 0 0 1189 0 0 1246 0 0 1196 0 0 1303 0 0 1214 0 0 1211 0 0 1200 0 0 1224 0 0 1212 0 0 1213 0 0 1237 0 0 1269 0 0 1255 0 0 1210 0 0 1159 0 0 1196 0 0 1240 0 0 1199 0 0 1236 0 0 1266 0 0 1223 0 0 633 0 0 11 0 0 0 0 0 0 0 0 0 0 0 0 0 0 0 0 0 1 0 0 0 0 0 0 0 0 
0 0 0 0 0 0 0 0 0 0 0 0 0 0 0 0 0 0 0 0 0 0 0 0 1 0 0 11 0 0 597 0 0 1232 0 0 1192 0 0 1276 0 0 1245 0 0 1244 0 0 1302 0 0 1228 0 0 1277 0 0 1210 0 0 1244 0 0 1214 0 0 1220 0 0 1279 0 0 1218 0 0 1255 0 0 1241 0 0 1245 0 0 1240 0 0 1235 0 0 1226 0 0 1268 0 0 1191 0 0 1209 0 0 1209 0 0 1225 0 0 1171 0 0 1239 0 0 1265 0 0 1230 0 0 1225 0 0 1202 0 0 1225 0 0 1231 0 0 1308 0 0 1242 0 0 1258 0 0 1214 0 0 1204 0 0 1217 0 0 638 0 0 7 0 0 1 0 0 1 0 0 0 0 0 0 0 0 0 0 0 0 0 0 0 0 0 0 0 0 
0 0 0 0 0 0 0 0 0 0 0 0 0 0 0 2 0 0 2 0 0 2 0 0 0 0 0 5 0 0 622 0 0 1235 0 0 1255 0 0 1261 0 0 1211 0 0 1162 0 0 1253 0 0 1238 0 0 1272 0 0 1255 0 0 1257 0 0 1228 0 0 1246 0 0 1215 0 0 1262 0 0 1283 0 0 1228 0 0 1214 0 0 1216 0 0 1213 0 0 1207 0 0 1276 0 0 1210 0 0 1228 0 0 1253 0 0 1205 0 0 1206 0 0 1250 0 0 1222 0 0 1202 0 0 1212 0 0 1221 0 0 1242 0 0 1215 0 0 1231 0 0 1274 0 0 1206 0 0 1213 0 0 1250 0 0 1200 0 0 622 0 0 5 0 0 1 0 0 0 0 0 1 0 0 0 0 0 0 0 0 1 0 0 1 0 0 2 0 0 
0 0 0 0 0 0 0 0 0 0 0 0 1 0 0 0 0 0 2 0 0 2 0 0 3 0 0 12 0 0 624 0 0 1222 0 0 1223 0 0 1245 0 0 1187 0 0 1198 0 0 1189 0 0 1222 0 0 1252 0 0 1220 0 0 1253 0 0 1260 0 0 1252 0 0 1208 0 0 1207 0 0 1231 0 0 1278 0 0 1220 0 0 1213 0 0 1250 0 0 1205 0 0 1225 0 0 1256 0 0 1241 0 0 1265 0 0 1224 0 0 1206 0 0 1177 0 0 1263 0 0 1262 0 0 1255 0 0 1236 0 0 1272 0 0 1234 0 0 1264 0 0 1205 0 0 1228 0 0 1233 0 0 1264 0 0 1247 0 0 638 0 0 6 0 0 1 0 0 2 0 0 1 0 0 2 0 0 1 0 0 1 0 0 0 0 0 0 0 0 
0 0 0 0 0 0 0 0 0 0 0 0 0 0 0 1 0 0 2 0 0 1 0 0 4 0 0 11 0 0 662 0 0 1215 0 0 1231 0 0 1212 0 0 1196 0 0 1171 0 0 1220 0 0 1231 0 0 1213 0 0 1221 0 0 1225 0 0 1245 0 0 1202 0 0 1186 0 0 1263 0 0 1268 0 0 1250 0 0 1232 0 0 1229 0 0 1157 0 0 1240 0 0 1203 0 0 1265 0 0 1208 0 0 1201 0 0 1179 0 0 1219 0 0 1260 0 0 1210 0 0 1211 0 0 1240 0 0 1250 0 0 1204 0 0 1204 0 0 1223 0 0 1291 0 0 1281 0 0 1240 0 0 1264 0 0 1176 0 0 609 0 0 11 0 0 3 0 0 0 0 0 3 0 0 3 0 0 2 0 0 0 0 0 0 0 0 0 0 0 
3 0 0 1 0 0 3 0 0 0 0 0 1 0 0 0 0 0 2 0 0 2 0 0 0 0 0 8 0 0 622 0 0 1216 0 0 1247 0 0 1191 0 0 1238 0 0 1236 0 0 1209 0 0 1267 0 0 1218 0 0 1197 0 0 1221 0 0 1210 0 0 1227 0 0 1225 0 0 1177 0 0 1248 0 0 1222 0 0 1279 0 0 1257 0 0 1271 0 0 1208 0 0 1261 0 0 1223 0 0 1204 0 0 1210 0 0 1221 0 0 1197 0 0 1235 0 0 1212 0 0 1239 0 0 1229 0 0 1240 0 0 1183 0 0 1215 0 0 1236 0 0 1252 0 0 1266 0 0 1240 0 0 1204 0 0 1187 0 0 586 0 0 9 0 0 1 0 0 1 0 0 2 0 0 1 0 0 1 0 0 0 0 0 1 0 0 0 0 0 
0 0 0 1 0 0 0 0 0 1 0 0 3 0 0 3 0 0 3 0 0 1 0 0 0 0 0 9 0 0 611 0 0 1239 0 0 1238 0 0 1204 0 0 1200 0 0 1200 0 0 1215 0 0 1198 0 0 1245 0 0 1265 0 0 1150 0 0 1265 0 0 1196 0 0 1253 0 0 1199 0 0 1222 0 0 1185 0 0 1219 0 0 1235 0 0 1275 0 0 1208 0 0 1230 0 0 1266 0 0 1218 0 0 1238 0 0 1220 0 0 1216 0 0 1305 0 0 1228 0 0 1194 0 0 1225 0 0 1230 0 0 1207 0 0 1239 0 0 1201 0 0 1252 0 0 1221 0 0 1299 0 0 1273 0 0 1256 0 0 620 0 0 5 0 0 1 0 0 0 0 0 0 0 0 0 0 0 0 0 0 1 0 0 0 0 0 0 0 0 
0 0 0 0 0 0 0 0 0 2 0 0 3 0 0 0 0 0 1 0 0 0 0 0 2 0 0 7 0 0 611 0 0 1223 0 0 1265 0 0 1237 0 0 1245 0 0 1230 0 0 1217 0 0 1255 0 0 1257 0 0 1191 0 0 1291 0 0 1229 0 0 1247 0 0 1228 0 0 1222 0 0 1262 0 0 1248 0 0 1228 0 0 1197 0 0 1240 0 0 1259 0 0 1230 0 0 1212 0 0 1247 0 0 1196 0 0 1248 0 0 1271 0 0 1205 0 0 1178 0 0 1263 0 0 1259 0 0 1256 0 0 1232 0 0 1179 0 0 1144 0 0 1229 0 0 1229 0 0 1261 0 0 1209 0 0 1187 0 0 596 0 0 11 0 0 2 0 0 1 0 0 0 0 0 0 0 0 2 0 0 0 0 0 0 0 0 0 0 0 
0 0 0 1 0 0 0 0 0 0 0 0 0 0 0 2 0 0 1 0 0 1 0 0 2 0 0 7 0 0 625 0 0 1179 0 0 1225 0 0 1244 0 0 1263 0 0 1268 0 0 1215 0 0 1164 0 0 1159 0 0 1220 0 0 1264 0 0 1241 0 0 1224 0 0 1150 0 0 1265 0 0 1221 0 0 1194 0 0 1214 0 0 1232 0 0 1303 0 0 1254 0 0 1303 0 0 1253 0 0 1235 0 0 1164 0 0 1241 0 0 1222 0 0 1177 0 0 1255 0 0 1227 0 0 1193 0 0 1230 0 0 1194 0 0 1269 0 0 1230 0 0 1186 0 0 1258 0 0 1170 0 0 1233 0 0 1201 0 0 598 0 0 10 0 0 1 0 0 0 0 0 0 0 0 2 0 0 0 0 0 0 0 0 1 0 0 0 0 0 
0 0 0 0 0 0 1 0 0 0 0 0 3 0 0 2 0 0 2 0 0 0 0 0 0 0 0 5 0 0 589 0 0 1240 0 0 1193 0 0 1230 0 0 1223 0 0 1274 0 0 1187 0 0 1236 0 0 1222 0 0 1221 0 0 1232 0 0 1273 0 0 1219 0 0 1261 0 0 1245 0 0 1251 0 0 1297 0 0 1246 0 0 1221 0 0 1252 0 0 1203 0 0 1189 0 0 1241 0 0 1251 0 0 1253 0 0 1191 0 0 1212 0 0 1199 0 0 1196 0 0 1198 0 0 1159 0 0 1226 0 0 1241 0 0 1252 0 0 1293 0 0 1211 0 0 1250 0 0 1187 0 0 1229 0 0 1201 0 0 634 0 0 11 0 0 3 0 0 0 0 0 0 0 0 0 0 0 1 0 0 0 0 0 0 0 0 0 0 0 
0 0 0 0 0 0 0 0 0 2 0 0 2 0 0 0 0 0 1 0 0 0 0 0 0 0 0 7 0 0 665 0 0 1207 0 0 1218 0 0 1227 0 0 1263 0 0 1206 0 0 1305 0 0 1209 0 0 1240 0 0 1259 0 0 1166 0 0 1228 0 0 1205 0 0 1235 0 0 1300 0 0 1253 0 0 1236 0 0 1250 0 0 1194 0 0 1207 0 0 1162 0 0 1272 0 0 1217 0 0 1262 0 0 1199 0 0 1183 0 0 1214 0 0 1282 0 0 1206 0 0 1228 0 0 1205 0 0 1221 0 0 1239 0 0 1203 0 0 1209 0 0 1235 0 0 1215 0 0 1254 0 0 1216 0 0 1241 0 0 646 0 0 3 0 0 1 0 0 0 0 0 0 0 0 0 0 0 1 0 0 2 0 0 0 0 0 0 0 0 
0 0 0 0 0 0 2 0 0 0 0 0 0 0 0 0 0 0 1 0 0 0 0 0 0 0 0 9 0 0 604 0 0 1160 0 0 1244 0 0 1161 0 0 1240 0 0 1224 0 0 1205 0 0 1130 0 0 1226 0 0 1236 0 0 1254 0 0 1230 0 0 1240 0 0 1247 0 0 1260 0 0 1219 0 0 1214 0 0 1192 0 0 1222 0 0 1173 0 0 1209 0 0 1216 0 0 1165 0 0 1243 0 0 1183 0 0 1201 0 0 1283 0 0 1270 0 0 1256 0 0 1277 0 0 1248 0 0 1201 0 0 1271 0 0 1199 0 0 1270 0 0 1267 0 0 1195 0 0 1200 0 0 1218 0 0 1232 0 0 620 0 0 4 0 0 2 0 0 0 0 0 1 0 0 0 0 0 1 0 0 0 0 0 0 0 0 0 0 0 
0 0 0 0 0 0 0 0 0 0 0 0 0 0 0 0 0 0 0 0 0 0 0 0 1 0 0 10 0 0 622 0 0 1222 0 0 1276 0 0 1270 0 0 1209 0 0 1213 0 0 1218 0 0 1269 0 0 1224 0 0 1265 0 0 1218 0 0 1206 0 0 1263 0 0 1250 0 0 1268 0 0 1227 0 0 1263 0 0 1283 0 0 1261 0 0 1213 0 0 1273 0 0 1224 0 0 1225 0 0 1206 0 0 1183 0 0 1241 0 0 1238 0 0 1220 0 0 1220 0 0 1229 0 0 1253 0 0 1251 0 0 1207 0 0 1221 0 0 1211 0 0 1221 0 0 1242 0 0 1213 0 0 1231 0 0 1196 0 0 621 0 0 8 0 0 2 0 0 3 0 0 2 0 0 0 0 0 1 0 0 0 0 0 0 0 0 0 0 0 
0 0 0 0 0 0 0 0 0 0 0 0 0 0 0 0 0 0 0 0 0 0 0 0 0 0 0 10 0 0 589 0 0 1240 0 0 1263 0 0 1218 0 0 1265 0 0 1208 0 0 1216 0 0 1224 0 0 1225 0 0 1296 0 0 1247 0 0 1269 0 0 1244 0 0 1213 0 0 1176 0 0 1248 0 0 1217 0 0 1263 0 0 1220 0 0 1186 0 0 1242 0 0 1235 0 0 1180 0 0 1255 0 0 1233 0 0 1212 0 0 1163 0 0 1199 0 0 1276 0 0 1297 0 0 1186 0 0 1160 0 0 1204 0 0 1258 0 0 1248 0 0 1236 0 0 1217 0 0 1249 0 0 1274 0 0 1191 0 0 580 0 0 8 0 0 0 0 0 0 0 0 1 0 0 2 0 0 1 0 0 1 0 0 0 0 0 0 0 0 
0 0 0 0 0 0 0 0 0 0 0 0 1 0 0 0 0 0 0 0 0 1 0 0 0 0 0 5 0 0 631 0 0 1247 0 0 1186 0 0 1237 0 0 1238 0 0 1260 0 0 1287 0 0 1240 0 0 1263 0 0 1275 0 0 1193 0 0 1255 0 0 1222 0 0 1276 0 0 1235 0 0 1231 0 0 1228 0 0 1267 0 0 1276 0 0 1242 0 0 1237 0 0 1250 0 0 1265 0 0 1249 0 0 1255 0 0 1231 0 0 1235 0 0 1247 0 0 1263 0 0 1230 0 0 1241 0 0 1258 0 0 1291 0 0 1191 0 0 1224 0 0 1180 0 0 1229 0 0 1233 0 0 1223 0 0 1231 0 0 668 0 0 8 0 0 0 0 0 1 0 0 0 0 0 0 0 0 0 0 0 2 0 0 2 0 0 2 0 0 
0 0 0 1 0 0 1 0 0 1 0 0 0 0 0 0 0 0 2 0 0 1 0 0 4 0 0 7 0 0 610 0 0 1199 0 0 1264 0 0 1232 0 0 1279 0 0 1204 0 0 1220 0 0 1205 0 0 1193 0 0 1217 0 0 1246 0 0 1240 0 0 1254 0 0 1227 0 0 1222 0 0 1238 0 0 1206 0 0 1213 0 0 1213 0 0 1247 0 0 1222 0 0 1208 0 0 1208 0 0 1207 0 0 1171 0 0 1220 0 0 1243 0 0 1224 0 0 1246 0 0 1192 0 0 1219 0 0 1239 0 0 1231 0 0 1215 0 0 1226 0 0 1245 0 0 1303 0 0 1293 0 0 1195 0 0 1182 0 0 611 0 0 12 0 0 3 0 0 3 0 0 3 0 0 0 0 0 1 0 0 1 0 0 0 0 0 0 0 0 
0 0 0 0 0 0 0 0 0 1 0 0 2 0 0 1 0 0 1 0 0 1 0 0 1 0 0 7 0 0 585 0 0 1203 0 0 1275 0 0 1235 0 0 1256 0 0 1237 0 0 1245 0 0 1218 0 0 1236 0 0 1272 0 0 1229 0 0 1331 0 0 1271 0 0 1241 0 0 1180 0 0 1240 0 0 1221 0 0 1245 0 0 1193 0 0 1187 0 0 1217 0 0 1240 0 0 1223 0 0 1212 0 0 1219 0 0 1215 0 0 1231 0 0 1218 0 0 1220 0 0 1225 0 0 1179 0 0 1229 0 0 1201 0 0 1202 0 0 1206 0 0 1287 0 0 1221 0 0 1238 0 0 1204 0 0 1254 0 0 617 0 0 3 0 0 2 0 0 2 0 0 1 0 0 1 0 0 1 0 0 0 0 0 0 0 0 0 0 0 
0 0 0 0 0 0 0 0 0 0 0 0 1 0 0 0 0 0 2 0 0 1 0 0 1 0 0 5 0 0 605 0 0 1287 0 0 1272 0 0 1234 0 0 1195 0 0 1253 0 0 1253 0 0 1200 0 0 1272 0 0 1213 0 0 1209 0 0 1252 0 0 1219 0 0 1226 0 0 1271 0 0 1208 0 0 1223 0 0 1237 0 0 1249 0 0 1287 0 0 1261 0 0 1212 0 0 1196 0 0 1269 0 0 1206 0 0 1257 0 0 1253 0 0 1252 0 0 1268 0 0 1224 0 0 1267 0 0 1239 0 0 1246 0 0 1229 0 0 1259 0 0 1218 0 0 1213 0 0 1222 0 0 1267 0 0 1253 0 0 584 0 0 6 0 0 2 0 0 2 0 0 2 0 0 0 0 0 0 0 0 0 0 0 0 0 0 0 0 0 
0 0 0 0 0 0 0 0 0 0 0 0 0 0 0 2 0 0 3 0 0 1 0 0 1 0 0 8 0 0 603 0 0 1231 0 0 1269 0 0 1218 0 0 1244 0 0 1237 0 0 1294 0 0 1245 0 0 1254 0 0 1178 0 0 1227 0 0 1245 0 0 1176 0 0 1200 0 0 1231 0 0 1219 0 0 1242 0 0 1193 0 0 1179 0 0 1209 0 0 1272 0 0 1212 0 0 1172 0 0 1284 0 0 1282 0 0 1238 0 0 1256 0 0 1219 0 0 1265 0 0 1218 0 0 1203 0 0 1243 0 0 1229 0 0 1217 0 0 1224 0 0 1201 0 0 1150 0 0 1232 0 0 1238 0 0 1217 0 0 578 0 0 7 0 0 1 0 0 1 0 0 2 0 0 3 0 0 0 0 0 0 0 0 0 0 0 0 0 0 
0 0 0 0 0 0 0 0 0 0 0 0 0 0 0 1 0 0 0 0 0 1 0 0 0 0 0 7 0 0 610 0 0 1146 0 0 1234 0 0 1233 0 0 1214 0 0 1163 0 0 1224 0 0 1257 0 0 1260 0 0 1227 0 0 1253 0 0 1264 0 0 1214 0 0 1210 0 0 1194 0 0 1162 0 0 1194 0 0 1248 0 0 1208 0 0 1280 0 0 1211 0 0 1276 0 0 1209 0 0 1258 0 0 1218 0 0 1252 0 0 1198 0 0 1297 0 0 1218 0 0 1195 0 0 1181 0 0 1239 0 0 1276 0 0 1155 0 0 1205 0 0 1238 0 0 1176 0 0 1248 0 0 1231 0 0 1228 0 0 598 0 0 4 0 0 0 0 0 0 0 0 2 0 0 2 0 0 1 0 0 2 0 0 1 0 0 0 0 0 
0 0 0 0 0 0 0 0 0 0 0 0 0 0 0 0 0 0 1 0 0 0 0 0 0 0 0 5 0 0 297 0 0 603 0 0 666 0 0 619 0 0 602 0 0 592 0 0 593 0 0 635 0 0 607 0 0 645 0 0 548 0 0 612 0 0 576 0 0 626 0 0 634 0 0 657 0 0 651 0 0 618 0 0 633 0 0 616 0 0 621 0 0 652 0 0 624 0 0 622 0 0 610 0 0 619 0 0 607 0 0 617 0 0 564 0 0 611 0 0 636 0 0 592 0 0 645 0 0 648 0 0 630 0 0 629 0 0 630 0 0 639 0 0 625 0 0 628 0 0 313 0 0 3 0 0 2 0 0 0 0 0 0 0 0 0 0 0 0 0 0 0 0 0 0 0 0 0 0 0 
0 0 0 1 0 0 0 0 0 0 0 0 0 0 0 0 0 0 0 0 0 0 0 0 0 0 0 1 0 0 3 0 0 7 0 0 11 0 0 8 0 0 5 0 0 8 0 0 9 0 0 7 0 0 3 0 0 7 0 0 9 0 0 10 0 0 10 0 0 14 0 0 7 0 0 10 0 0 8 0 0 10 0 0 11 0 0 6 0 0 6 0 0 10 0 0 5 0 0 7 0 0 5 0 0 5 0 0 7 0 0 12 0 0 10 0 0 10 0 0 7 0 0 11 0 0 10 0 0 10 0 0 7 0 0 8 0 0 5 0 0 9 0 0 6 0 0 6 0 0 3 0 0 1 0 0 1 0 0 0 0 0 0 0 0 0 0 0 0 0 0 0 0 0 0 0 0 0 0 0 
0 0 0 0 0 0 0 0 0 0 0 0 0 0 0 0 0 0 0 0 0 0 0 0 1 0 0 0 0 0 1 0 0 2 0 0 0 0 0 0 0 0 0 0 0 0 0 0 4 0 0 1 0 0 0 0 0 0 0 0 0 0 0 2 0 0 0 0 0 3 0 0 4 0 0 0 0 0 2 0 0 2 0 0 1 0 0 1 0 0 1 0 0 0 0 0 0 0 0 0 0 0 0 0 0 3 0 0 2 0 0 0 0 0 2 0 0 6 0 0 0 0 0 3 0 0 3 0 0 2 0 0 4 0 0 2 0 0 2 0 0 1 0 0 3 0 0 0 0 0 0 0 0 0 0 0 1 0 0 0 0 0 0 0 0 0 0 0 1 0 0 2 0 0 0 0 0 0 0 0 
0 0 0 0 0 0 0 0 0 0 0 0 0 0 0 0 0 0 0 0 0 0 0 0 1 0 0 1 0 0 1 0 0 4 0 0 0 0 0 0 0 0 1 0 0 3 0 0 2 0 0 1 0 0 0 0 0 0 0 0 2 0 0 0 0 0 1 0 0 2 0 0 0 0 0 2 0 0 4 0 0 2 0 0 0 0 0 0 0 0 0 0 0 0 0 0 1 0 0 0 0 0 0 0 0 0 0 0 4 0 0 2 0 0 0 0 0 3 0 0 1 0 0 1 0 0 2 0 0 3 0 0 1 0 0 2 0 0 2 0 0 3 0 0 3 0 0 2 0 0 1 0 0 0 0 0 0 0 0 0 0 0 0 0 0 0 0 0 0 0 0 0 0 0 1 0 0 0 0 0 
0 0 0 0 0 0 0 0 0 0 0 0 0 0 0 0 0 0 0 0 0 0 0 0 0 0 0 0 0 0 4 0 0 1 0 0 0 0 0 0 0 0 1 0 0 0 0 0 1 0 0 2 0 0 0 0 0 1 0 0 1 0 0 0 0 0 1 0 0 1 0 0 4 0 0 0 0 0 2 0 0 2 0 0 1 0 0 2 0 0 2 0 0 1 0 0 2 0 0 0 0 0 0 0 0 0 0 0 1 0 0 1 0 0 0 0 0 0 0 0 2 0 0 3 0 0 2 0 0 0 0 0 1 0 0 1 0 0 0 0 0 0 0 0 2 0 0 0 0 0 0 0 0 2 0 0 1 0 0 0 0 0 0 0 0 0 0 0 0 0 0 0 0 0 0 0 0 0 0 0 
0 0 0 0 0 0 0 0 0 0 0 0 0 0 0 0 0 0 0 0 0 0 0 0 0 0 0 0 0 0 1 0 0 0 0 0 0 0 0 1 0 0 2 0 0 0 0 0 1 0 0 1 0 0 0 0 0 0 0 0 0 0 0 0 0 0 1 0 0 1 0 0 0 0 0 1 0 0 0 0 0 1 0 0 0 0 0 0 0 0 3 0 0 2 0 0 0 0 0 0 0 0 0 0 0 0 0 0 0 0 0 0 0 0 1 0 0 2 0 0 1 0 0 1 0 0 0 0 0 0 0 0 1 0 0 0 0 0 2 0 0 0 0 0 0 0 0 2 0 0 0 0 0 0 0 0 1 0 0 1 0 0 0 0 0 0 0 0 0 0 0 0 0 0 0 0 0 0 0 0 
0 0 0 0 0 0 0 0 0 0 0 0 0 0 0 0 0 0 0 0 0 0 0 0 0 0 0 0 0 0 1 0 0 0 0 0 0 0 0 1 0 0 0 0 0 0 0 0 0 0 0 0 0 0 0 0 0 0 0 0 0 0 0 1 0 0 0 0 0 0 0 0 1 0 0 0 0 0 0 0 0 0 0 0 1 0 0 0 0 0 0 0 0 1 0 0 1 0 0 0 0 0 0 0 0 0 0 0 0 0 0 0 0 0 0 0 0 1 0 0 4 0 0 0 0 0 1 0 0 0 0 0 1 0 0 0 0 0 0 0 0 2 0 0 0 0 0 0 0 0 0 0 0 0 0 0 0 0 0 0 0 0 0 0 0 0 0 0 0 0 0 0 0 0 0 0 0 0 0 0 
0 0 0 0 0 0 0 0 0 0 0 0 0 0 0 0 0 0 0 0 0 0 0 0 0 0 0 0 0 0 0 0 0 0 0 0 0 0 0 0 0 0 0 0 0 0 0 0 2 0 0 0 0 0 0 0 0 0 0 0 1 0 0 0 0 0 0 0 0 1 0 0 0 0 0 0 0 0 0 0 0 0 0 0 0 0 0 1 0 0 0 0 0 0 0 0 0 0 0 0 0 0 0 0 0 0 0 0 1 0 0 0 0 0 0 0 0 0 0 0 1 0 0 0 0 0 0 0 0 0 0 0 0 0 0 3 0 0 2 0 0 0 0 0 2 0 0 1 0 0 0 0 0 1 0 0 0 0 0 0 0 0 0 0 0 0 0 0 0 0 0 0 0 0 0 0 0 0 0 0 
0 0 0 0 0 0 0 0 0 0 0 0 0 0 0 1 0 0 0 0 0 0 0 0 0 0 0 0 0 0 0 0 0 0 0 0 0 0 0 0 0 0 0 0 0 0 0 0 0 0 0 0 0 0 0 0 0 0 0 0 0 0 0 0 0 0 0 0 0 0 0 0 0 0 0 0 0 0 0 0 0 0 0 0 0 0 0 0 0 0 1 0 0 1 0 0 0 0 0 0 0 0 0 0 0 0 0 0 0 0 0 0 0 0 0 0 0 0 0 0 0 0 0 0 0 0 1 0 0 1 0 0 0 0 0 0 0 0 1 0 0 0 0 0 0 0 0 0 0 0 0 0 0 2 0 0 0 0 0 0 0 0 0 0 0 0 0 0 0 0 0 0 0 0 0 0 0 0 0 0 
0 0 0 0 0 0 0 0 0 0 0 0 1 0 0 0 0 0 0 0 0 0 0 0 0 0 0 1 0 0 0 0 0 0 0 0 0 0 0 0 0 0 0 0 0 0 0 0 0 0 0 0 0 0 0 0 0 1 0 0 0 0 0 0 0 0 0 0 0 0 0 0 0 0 0 0 0 0 0 0 0 0 0 0 0 0 0 1 0 0 0 0 0 1 0 0 0 0 0 1 0 0 0 0 0 0 0 0 0 0 0 0 0 0 0 0 0 0 0 0 0 0 0 0 0 0 0 0 0 1 0 0 0 0 0 0 0 0 1 0 0 0 0 0 0 0 0 0 0 0 2 0 0 1 0 0 0 0 0 0 0 0 0 0 0 0 0 0 0 0 0 0 0 0 0 0 0 0 0 0 
