P3
# This is a kerma file slice at depth 11 of 100
60 60
# now we give the maximum value of the RGB coordinates.
651919
1 0 0 4 0 0 4 0 0 4 0 0 4 0 0 4 0 0 5 0 0 4 0 0 4 0 0 7 0 0 4 0 0 6 0 0 8 0 0 7 0 0 8 0 0 8 0 0 8 0 0 9 0 0 7 0 0 12 0 0 8 0 0 9 0 0 10 0 0 8 0 0 10 0 0 9 0 0 9 0 0 9 0 0 11 0 0 9 0 0 10 0 0 10 0 0 10 0 0 10 0 0 12 0 0 9 0 0 7 0 0 8 0 0 11 0 0 10 0 0 11 0 0 10 0 0 6 0 0 7 0 0 8 0 0 7 0 0 7 0 0 8 0 0 6 0 0 5 0 0 5 0 0 5 0 0 4 0 0 5 0 0 4 0 0 5 0 0 3 0 0 4 0 0 3 0 0 4 0 0 
3 0 0 7 0 0 9 0 0 9 0 0 9 0 0 11 0 0 9 0 0 13 0 0 11 0 0 14 0 0 12 0 0 16 0 0 16 0 0 18 0 0 17 0 0 17 0 0 22 0 0 18 0 0 21 0 0 18 0 0 19 0 0 19 0 0 20 0 0 22 0 0 23 0 0 25 0 0 23 0 0 26 0 0 23 0 0 21 0 0 27 0 0 22 0 0 25 0 0 24 0 0 25 0 0 21 0 0 24 0 0 22 0 0 20 0 0 21 0 0 20 0 0 22 0 0 18 0 0 20 0 0 16 0 0 20 0 0 16 0 0 16 0 0 18 0 0 14 0 0 12 0 0 15 0 0 10 0 0 11 0 0 10 0 0 11 0 0 8 0 0 10 0 0 7 0 0 7 0 0 
3 0 0 8 0 0 9 0 0 7 0 0 10 0 0 10 0 0 12 0 0 16 0 0 11 0 0 18 0 0 16 0 0 17 0 0 19 0 0 21 0 0 19 0 0 21 0 0 24 0 0 22 0 0 23 0 0 26 0 0 24 0 0 23 0 0 25 0 0 28 0 0 23 0 0 28 0 0 25 0 0 28 0 0 26 0 0 26 0 0 28 0 0 27 0 0 27 0 0 26 0 0 27 0 0 26 0 0 30 0 0 23 0 0 27 0 0 26 0 0 23 0 0 23 0 0 22 0 0 21 0 0 20 0 0 20 0 0 21 0 0 18 0 0 18 0 0 22 0 0 15 0 0 16 0 0 14 0 0 13 0 0 12 0 0 13 0 0 10 0 0 9 0 0 9 0 0 8 0 0 
3 0 0 9 0 0 11 0 0 11 0 0 12 0 0 12 0 0 14 0 0 13 0 0 14 0 0 16 0 0 19 0 0 20 0 0 23 0 0 21 0 0 21 0 0 19 0 0 24 0 0 26 0 0 24 0 0 32 0 0 30 0 0 27 0 0 27 0 0 29 0 0 31 0 0 26 0 0 27 0 0 29 0 0 29 0 0 31 0 0 31 0 0 26 0 0 28 0 0 30 0 0 29 0 0 29 0 0 27 0 0 31 0 0 27 0 0 30 0 0 27 0 0 27 0 0 30 0 0 22 0 0 26 0 0 22 0 0 25 0 0 25 0 0 18 0 0 19 0 0 20 0 0 18 0 0 12 0 0 14 0 0 17 0 0 13 0 0 11 0 0 12 0 0 11 0 0 7 0 0 
5 0 0 10 0 0 7 0 0 10 0 0 13 0 0 15 0 0 14 0 0 18 0 0 20 0 0 19 0 0 19 0 0 24 0 0 24 0 0 23 0 0 26 0 0 27 0 0 29 0 0 34 0 0 30 0 0 31 0 0 31 0 0 34 0 0 31 0 0 33 0 0 32 0 0 36 0 0 35 0 0 35 0 0 36 0 0 39 0 0 36 0 0 36 0 0 37 0 0 33 0 0 32 0 0 32 0 0 35 0 0 34 0 0 37 0 0 34 0 0 32 0 0 25 0 0 31 0 0 29 0 0 29 0 0 23 0 0 27 0 0 25 0 0 19 0 0 22 0 0 20 0 0 18 0 0 17 0 0 15 0 0 14 0 0 12 0 0 12 0 0 9 0 0 10 0 0 10 0 0 
4 0 0 10 0 0 13 0 0 13 0 0 11 0 0 17 0 0 14 0 0 15 0 0 19 0 0 20 0 0 21 0 0 28 0 0 28 0 0 31 0 0 33 0 0 27 0 0 36 0 0 34 0 0 34 0 0 33 0 0 38 0 0 44 0 0 40 0 0 40 0 0 40 0 0 41 0 0 42 0 0 41 0 0 36 0 0 39 0 0 41 0 0 37 0 0 42 0 0 40 0 0 42 0 0 40 0 0 41 0 0 41 0 0 40 0 0 36 0 0 37 0 0 39 0 0 35 0 0 32 0 0 36 0 0 34 0 0 24 0 0 29 0 0 28 0 0 28 0 0 23 0 0 21 0 0 20 0 0 16 0 0 19 0 0 16 0 0 11 0 0 15 0 0 12 0 0 10 0 0 
4 0 0 12 0 0 12 0 0 16 0 0 14 0 0 17 0 0 18 0 0 20 0 0 22 0 0 27 0 0 23 0 0 29 0 0 33 0 0 35 0 0 31 0 0 36 0 0 42 0 0 40 0 0 38 0 0 43 0 0 42 0 0 48 0 0 48 0 0 43 0 0 45 0 0 46 0 0 45 0 0 50 0 0 49 0 0 50 0 0 41 0 0 47 0 0 44 0 0 48 0 0 53 0 0 44 0 0 50 0 0 45 0 0 43 0 0 44 0 0 43 0 0 47 0 0 44 0 0 41 0 0 38 0 0 40 0 0 33 0 0 35 0 0 36 0 0 29 0 0 25 0 0 29 0 0 23 0 0 19 0 0 21 0 0 16 0 0 15 0 0 17 0 0 11 0 0 10 0 0 
5 0 0 11 0 0 13 0 0 14 0 0 18 0 0 15 0 0 20 0 0 25 0 0 24 0 0 34 0 0 30 0 0 40 0 0 43 0 0 45 0 0 46 0 0 50 0 0 52 0 0 56 0 0 50 0 0 45 0 0 52 0 0 56 0 0 50 0 0 49 0 0 62 0 0 64 0 0 64 0 0 55 0 0 60 0 0 58 0 0 56 0 0 54 0 0 53 0 0 52 0 0 54 0 0 54 0 0 55 0 0 56 0 0 58 0 0 52 0 0 48 0 0 53 0 0 45 0 0 53 0 0 49 0 0 46 0 0 43 0 0 40 0 0 36 0 0 41 0 0 32 0 0 27 0 0 25 0 0 26 0 0 21 0 0 20 0 0 16 0 0 14 0 0 11 0 0 12 0 0 
6 0 0 11 0 0 14 0 0 16 0 0 15 0 0 19 0 0 22 0 0 26 0 0 30 0 0 36 0 0 39 0 0 42 0 0 49 0 0 54 0 0 47 0 0 56 0 0 63 0 0 68 0 0 83 0 0 67 0 0 76 0 0 73 0 0 72 0 0 66 0 0 67 0 0 69 0 0 67 0 0 70 0 0 62 0 0 71 0 0 68 0 0 69 0 0 68 0 0 73 0 0 73 0 0 67 0 0 72 0 0 63 0 0 65 0 0 65 0 0 65 0 0 61 0 0 59 0 0 60 0 0 64 0 0 59 0 0 55 0 0 56 0 0 49 0 0 52 0 0 40 0 0 36 0 0 28 0 0 27 0 0 24 0 0 20 0 0 16 0 0 17 0 0 14 0 0 14 0 0 
6 0 0 16 0 0 14 0 0 18 0 0 18 0 0 22 0 0 27 0 0 25 0 0 37 0 0 41 0 0 44 0 0 55 0 0 63 0 0 65 0 0 71 0 0 79 0 0 85 0 0 83 0 0 86 0 0 81 0 0 91 0 0 91 0 0 92 0 0 93 0 0 79 0 0 79 0 0 84 0 0 87 0 0 84 0 0 83 0 0 87 0 0 87 0 0 95 0 0 88 0 0 83 0 0 96 0 0 88 0 0 79 0 0 83 0 0 83 0 0 81 0 0 76 0 0 87 0 0 93 0 0 77 0 0 80 0 0 65 0 0 63 0 0 65 0 0 62 0 0 39 0 0 40 0 0 37 0 0 32 0 0 24 0 0 20 0 0 19 0 0 18 0 0 14 0 0 13 0 0 
5 0 0 12 0 0 16 0 0 15 0 0 21 0 0 26 0 0 27 0 0 32 0 0 39 0 0 43 0 0 313 0 0 685 0 0 572 0 0 683 0 0 661 0 0 727 0 0 715 0 0 685 0 0 710 0 0 828 0 0 713 0 0 669 0 0 662 0 0 703 0 0 717 0 0 658 0 0 672 0 0 700 0 0 698 0 0 692 0 0 654 0 0 677 0 0 705 0 0 716 0 0 662 0 0 697 0 0 651 0 0 760 0 0 679 0 0 685 0 0 648 0 0 657 0 0 705 0 0 657 0 0 624 0 0 685 0 0 693 0 0 1040 0 0 633 0 0 727 0 0 406 0 0 47 0 0 39 0 0 29 0 0 25 0 0 24 0 0 18 0 0 16 0 0 16 0 0 15 0 0 
6 0 0 12 0 0 16 0 0 19 0 0 22 0 0 25 0 0 33 0 0 33 0 0 51 0 0 64 0 0 686 0 0 1237 0 0 1243 0 0 1407 0 0 1239 0 0 1204 0 0 1319 0 0 1216 0 0 1281 0 0 1264 0 0 1260 0 0 1223 0 0 1191 0 0 1305 0 0 1257 0 0 1324 0 0 1346 0 0 1220 0 0 1316 0 0 1246 0 0 1290 0 0 1315 0 0 1319 0 0 1304 0 0 1271 0 0 1195 0 0 1209 0 0 1286 0 0 1375 0 0 1204 0 0 1437 0 0 1303 0 0 1296 0 0 1303 0 0 1305 0 0 1345 0 0 1210 0 0 1280 0 0 1307 0 0 1344 0 0 625 0 0 53 0 0 44 0 0 36 0 0 29 0 0 21 0 0 20 0 0 17 0 0 14 0 0 16 0 0 
7 0 0 17 0 0 16 0 0 23 0 0 27 0 0 26 0 0 35 0 0 34 0 0 43 0 0 61 0 0 660 0 0 1450 0 0 1291 0 0 1231 0 0 1373 0 0 1352 0 0 1226 0 0 1264 0 0 1387 0 0 1267 0 0 1377 0 0 1353 0 0 1331 0 0 1357 0 0 1369 0 0 1316 0 0 1259 0 0 1439 0 0 1340 0 0 1302 0 0 1388 0 0 1396 0 0 1386 0 0 1403 0 0 1306 0 0 1275 0 0 1360 0 0 1272 0 0 1412 0 0 1315 0 0 1469 0 0 1246 0 0 1430 0 0 1266 0 0 1350 0 0 1242 0 0 1188 0 0 1303 0 0 1206 0 0 1294 0 0 641 0 0 79 0 0 48 0 0 42 0 0 32 0 0 30 0 0 23 0 0 22 0 0 19 0 0 15 0 0 
7 0 0 17 0 0 20 0 0 21 0 0 26 0 0 30 0 0 35 0 0 45 0 0 53 0 0 70 0 0 695 0 0 1252 0 0 1324 0 0 1330 0 0 1278 0 0 1262 0 0 1273 0 0 1292 0 0 1365 0 0 1202 0 0 1326 0 0 1324 0 0 1315 0 0 1346 0 0 1327 0 0 1303 0 0 1339 0 0 1595 0 0 1325 0 0 1302 0 0 1305 0 0 1376 0 0 1323 0 0 1239 0 0 1446 0 0 1307 0 0 1299 0 0 1281 0 0 1331 0 0 1590 0 0 1261 0 0 1291 0 0 1433 0 0 1392 0 0 1277 0 0 1258 0 0 1290 0 0 1329 0 0 1240 0 0 1290 0 0 636 0 0 76 0 0 56 0 0 48 0 0 33 0 0 27 0 0 29 0 0 23 0 0 21 0 0 16 0 0 
9 0 0 17 0 0 22 0 0 22 0 0 29 0 0 28 0 0 37 0 0 44 0 0 53 0 0 78 0 0 624 0 0 1191 0 0 1234 0 0 1249 0 0 1385 0 0 1366 0 0 1292 0 0 1271 0 0 1319 0 0 1335 0 0 1336 0 0 1301 0 0 1324 0 0 1357 0 0 1369 0 0 1229 0 0 1256 0 0 1374 0 0 1341 0 0 1346 0 0 1268 0 0 1325 0 0 1344 0 0 1401 0 0 1352 0 0 1366 0 0 1327 0 0 1307 0 0 1286 0 0 1330 0 0 1315 0 0 1301 0 0 1373 0 0 1275 0 0 1355 0 0 1277 0 0 1379 0 0 1339 0 0 1231 0 0 1315 0 0 721 0 0 75 0 0 60 0 0 43 0 0 36 0 0 32 0 0 26 0 0 20 0 0 19 0 0 14 0 0 
8 0 0 20 0 0 21 0 0 21 0 0 25 0 0 28 0 0 38 0 0 43 0 0 53 0 0 90 0 0 691 0 0 1331 0 0 1220 0 0 1323 0 0 1349 0 0 1372 0 0 1350 0 0 1325 0 0 1322 0 0 1317 0 0 1310 0 0 1350 0 0 1367 0 0 1391 0 0 1315 0 0 1379 0 0 1352 0 0 1338 0 0 1318 0 0 1390 0 0 1356 0 0 1343 0 0 1313 0 0 3191 0 0 1429 0 0 1405 0 0 1641 0 0 1307 0 0 1404 0 0 1380 0 0 1315 0 0 1256 0 0 1308 0 0 1375 0 0 1344 0 0 1254 0 0 1387 0 0 1326 0 0 1381 0 0 1243 0 0 640 0 0 73 0 0 59 0 0 42 0 0 33 0 0 30 0 0 30 0 0 27 0 0 20 0 0 14 0 0 
7 0 0 17 0 0 23 0 0 23 0 0 33 0 0 37 0 0 40 0 0 53 0 0 50 0 0 86 0 0 672 0 0 1334 0 0 1264 0 0 1361 0 0 1398 0 0 1379 0 0 1313 0 0 1297 0 0 1430 0 0 1246 0 0 1400 0 0 1453 0 0 1310 0 0 1434 0 0 1416 0 0 1397 0 0 1419 0 0 1331 0 0 1317 0 0 1346 0 0 1374 0 0 1277 0 0 1328 0 0 1368 0 0 1331 0 0 1375 0 0 1350 0 0 1274 0 0 1421 0 0 1433 0 0 1246 0 0 1294 0 0 1440 0 0 1347 0 0 1262 0 0 1316 0 0 1263 0 0 1281 0 0 1320 0 0 1208 0 0 641 0 0 69 0 0 65 0 0 45 0 0 40 0 0 34 0 0 27 0 0 25 0 0 20 0 0 17 0 0 
7 0 0 17 0 0 22 0 0 24 0 0 33 0 0 33 0 0 42 0 0 48 0 0 65 0 0 84 0 0 698 0 0 1321 0 0 1283 0 0 1230 0 0 1302 0 0 1408 0 0 1411 0 0 1399 0 0 1274 0 0 1378 0 0 1384 0 0 1345 0 0 1302 0 0 1344 0 0 1384 0 0 1256 0 0 1412 0 0 1389 0 0 1350 0 0 1321 0 0 1323 0 0 1269 0 0 1366 0 0 1315 0 0 1296 0 0 1379 0 0 1373 0 0 1333 0 0 1398 0 0 1410 0 0 1376 0 0 1402 0 0 1488 0 0 1527 0 0 1474 0 0 1275 0 0 1310 0 0 1292 0 0 1366 0 0 1251 0 0 631 0 0 87 0 0 58 0 0 46 0 0 41 0 0 32 0 0 29 0 0 24 0 0 22 0 0 21 0 0 
10 0 0 24 0 0 24 0 0 27 0 0 30 0 0 33 0 0 42 0 0 56 0 0 62 0 0 75 0 0 670 0 0 1379 0 0 1293 0 0 1283 0 0 1227 0 0 1409 0 0 1370 0 0 1407 0 0 1399 0 0 1377 0 0 1442 0 0 1259 0 0 1334 0 0 1344 0 0 1461 0 0 1338 0 0 1355 0 0 1382 0 0 1355 0 0 1416 0 0 1371 0 0 1253 0 0 1347 0 0 1424 0 0 1240 0 0 1357 0 0 1390 0 0 1290 0 0 1329 0 0 1295 0 0 1399 0 0 1259 0 0 1373 0 0 1344 0 0 1375 0 0 1254 0 0 1346 0 0 1378 0 0 1305 0 0 1271 0 0 644 0 0 88 0 0 64 0 0 57 0 0 46 0 0 33 0 0 27 0 0 26 0 0 23 0 0 20 0 0 
10 0 0 20 0 0 23 0 0 27 0 0 30 0 0 35 0 0 38 0 0 55 0 0 68 0 0 94 0 0 603 0 0 1390 0 0 1313 0 0 1291 0 0 1424 0 0 1351 0 0 1354 0 0 1380 0 0 1287 0 0 1232 0 0 1417 0 0 1334 0 0 1300 0 0 1298 0 0 1380 0 0 1336 0 0 1305 0 0 1458 0 0 1414 0 0 1263 0 0 1433 0 0 1406 0 0 1318 0 0 1399 0 0 1289 0 0 1322 0 0 1417 0 0 1310 0 0 1539 0 0 1326 0 0 1354 0 0 1326 0 0 1301 0 0 1474 0 0 1382 0 0 1218 0 0 1273 0 0 1361 0 0 1388 0 0 1359 0 0 736 0 0 88 0 0 73 0 0 50 0 0 50 0 0 38 0 0 31 0 0 31 0 0 26 0 0 24 0 0 
10 0 0 22 0 0 23 0 0 25 0 0 30 0 0 39 0 0 44 0 0 53 0 0 65 0 0 75 0 0 657 0 0 1260 0 0 1300 0 0 1388 0 0 1325 0 0 1424 0 0 1317 0 0 1337 0 0 1406 0 0 1429 0 0 1323 0 0 1294 0 0 1329 0 0 1407 0 0 1262 0 0 1356 0 0 1323 0 0 1300 0 0 1417 0 0 1367 0 0 1326 0 0 1440 0 0 1403 0 0 1404 0 0 1456 0 0 1385 0 0 1348 0 0 1409 0 0 1363 0 0 1410 0 0 1284 0 0 1356 0 0 1390 0 0 1289 0 0 1315 0 0 1290 0 0 1294 0 0 1255 0 0 1303 0 0 1228 0 0 686 0 0 83 0 0 73 0 0 55 0 0 37 0 0 37 0 0 34 0 0 25 0 0 24 0 0 19 0 0 
9 0 0 19 0 0 27 0 0 28 0 0 35 0 0 36 0 0 52 0 0 58 0 0 61 0 0 85 0 0 618 0 0 1318 0 0 1567 0 0 1359 0 0 1272 0 0 1347 0 0 1328 0 0 1381 0 0 1446 0 0 1344 0 0 1381 0 0 1348 0 0 1424 0 0 1378 0 0 1380 0 0 1299 0 0 1518 0 0 1334 0 0 1373 0 0 1318 0 0 1316 0 0 1378 0 0 1349 0 0 1328 0 0 1315 0 0 1405 0 0 1321 0 0 1442 0 0 1622 0 0 1299 0 0 1398 0 0 1314 0 0 1327 0 0 3257 0 0 1303 0 0 1301 0 0 1349 0 0 1392 0 0 1315 0 0 1342 0 0 675 0 0 81 0 0 72 0 0 51 0 0 42 0 0 35 0 0 30 0 0 30 0 0 22 0 0 19 0 0 
10 0 0 23 0 0 29 0 0 31 0 0 29 0 0 40 0 0 42 0 0 48 0 0 73 0 0 93 0 0 1021 0 0 1319 0 0 1292 0 0 1349 0 0 1381 0 0 1413 0 0 1305 0 0 1426 0 0 1349 0 0 1453 0 0 1358 0 0 1335 0 0 1379 0 0 1424 0 0 1387 0 0 1408 0 0 1393 0 0 1411 0 0 1336 0 0 1405 0 0 1407 0 0 1326 0 0 1383 0 0 1425 0 0 1360 0 0 1385 0 0 1405 0 0 1334 0 0 1348 0 0 1285 0 0 1351 0 0 1291 0 0 1355 0 0 1435 0 0 1302 0 0 1313 0 0 1357 0 0 1369 0 0 1302 0 0 1367 0 0 669 0 0 96 0 0 71 0 0 65 0 0 54 0 0 38 0 0 30 0 0 24 0 0 23 0 0 24 0 0 
9 0 0 20 0 0 23 0 0 28 0 0 36 0 0 40 0 0 44 0 0 57 0 0 70 0 0 102 0 0 677 0 0 1450 0 0 1262 0 0 1352 0 0 1308 0 0 1291 0 0 1396 0 0 1390 0 0 1367 0 0 1341 0 0 1344 0 0 1468 0 0 1400 0 0 1376 0 0 1361 0 0 1276 0 0 1377 0 0 1334 0 0 1280 0 0 1484 0 0 1380 0 0 1406 0 0 1373 0 0 1408 0 0 1389 0 0 1337 0 0 1396 0 0 1401 0 0 1451 0 0 1359 0 0 1262 0 0 1425 0 0 1429 0 0 1375 0 0 1314 0 0 1401 0 0 1368 0 0 1404 0 0 1364 0 0 1262 0 0 658 0 0 79 0 0 73 0 0 63 0 0 49 0 0 42 0 0 34 0 0 28 0 0 26 0 0 20 0 0 
9 0 0 22 0 0 30 0 0 28 0 0 37 0 0 39 0 0 45 0 0 67 0 0 60 0 0 76 0 0 650 0 0 1267 0 0 1254 0 0 1378 0 0 1331 0 0 1350 0 0 1315 0 0 1340 0 0 1459 0 0 1308 0 0 1335 0 0 1307 0 0 1407 0 0 1328 0 0 1347 0 0 1422 0 0 1357 0 0 1370 0 0 1359 0 0 1332 0 0 1418 0 0 1327 0 0 1377 0 0 1297 0 0 1343 0 0 1334 0 0 1426 0 0 1440 0 0 1363 0 0 1312 0 0 1324 0 0 1309 0 0 1384 0 0 1436 0 0 1308 0 0 1396 0 0 1356 0 0 1420 0 0 1302 0 0 1290 0 0 695 0 0 94 0 0 72 0 0 49 0 0 48 0 0 41 0 0 33 0 0 30 0 0 25 0 0 24 0 0 
11 0 0 23 0 0 24 0 0 29 0 0 32 0 0 43 0 0 43 0 0 56 0 0 69 0 0 88 0 0 712 0 0 1222 0 0 1377 0 0 1444 0 0 1355 0 0 1284 0 0 1338 0 0 1332 0 0 1314 0 0 1373 0 0 1384 0 0 1399 0 0 1294 0 0 1482 0 0 1418 0 0 1294 0 0 1354 0 0 1287 0 0 1382 0 0 1341 0 0 1249 0 0 1388 0 0 1404 0 0 1377 0 0 1363 0 0 1369 0 0 1338 0 0 1310 0 0 1407 0 0 1362 0 0 1403 0 0 1326 0 0 1285 0 0 1388 0 0 1258 0 0 1405 0 0 1374 0 0 1331 0 0 1297 0 0 1365 0 0 640 0 0 89 0 0 70 0 0 61 0 0 47 0 0 39 0 0 33 0 0 28 0 0 26 0 0 22 0 0 
12 0 0 21 0 0 26 0 0 31 0 0 34 0 0 39 0 0 44 0 0 63 0 0 66 0 0 83 0 0 706 0 0 1287 0 0 1316 0 0 1190 0 0 1313 0 0 1313 0 0 1279 0 0 1329 0 0 1374 0 0 1388 0 0 1340 0 0 1284 0 0 1380 0 0 1384 0 0 1297 0 0 1429 0 0 1367 0 0 1365 0 0 1325 0 0 1444 0 0 1363 0 0 1361 0 0 1378 0 0 1454 0 0 1402 0 0 1374 0 0 1350 0 0 1382 0 0 1437 0 0 1410 0 0 1345 0 0 1373 0 0 1356 0 0 1406 0 0 2431 0 0 1323 0 0 1257 0 0 1338 0 0 1318 0 0 1297 0 0 791 0 0 86 0 0 65 0 0 49 0 0 45 0 0 40 0 0 36 0 0 28 0 0 24 0 0 23 0 0 
10 0 0 25 0 0 26 0 0 25 0 0 35 0 0 42 0 0 45 0 0 58 0 0 71 0 0 96 0 0 739 0 0 1250 0 0 1350 0 0 1370 0 0 1308 0 0 1345 0 0 1324 0 0 1273 0 0 1537 0 0 1432 0 0 1417 0 0 1409 0 0 1378 0 0 1380 0 0 1402 0 0 1375 0 0 1373 0 0 1280 0 0 1389 0 0 1445 0 0 1311 0 0 1429 0 0 1386 0 0 1343 0 0 1357 0 0 1537 0 0 1338 0 0 1320 0 0 1442 0 0 1411 0 0 1339 0 0 1337 0 0 1304 0 0 1351 0 0 1345 0 0 1329 0 0 1393 0 0 1314 0 0 1285 0 0 1231 0 0 645 0 0 99 0 0 79 0 0 55 0 0 50 0 0 38 0 0 36 0 0 30 0 0 25 0 0 25 0 0 
8 0 0 23 0 0 28 0 0 39 0 0 37 0 0 38 0 0 45 0 0 51 0 0 69 0 0 88 0 0 678 0 0 1278 0 0 1305 0 0 1333 0 0 1500 0 0 1383 0 0 1316 0 0 1387 0 0 1287 0 0 1310 0 0 1299 0 0 1312 0 0 1378 0 0 1387 0 0 1279 0 0 1376 0 0 1364 0 0 1491 0 0 1390 0 0 1423 0 0 1441 0 0 1281 0 0 1452 0 0 1344 0 0 1444 0 0 1491 0 0 1416 0 0 1317 0 0 1312 0 0 1370 0 0 1404 0 0 1306 0 0 1339 0 0 1362 0 0 1395 0 0 1268 0 0 1413 0 0 1214 0 0 1366 0 0 1538 0 0 664 0 0 74 0 0 67 0 0 53 0 0 48 0 0 41 0 0 36 0 0 30 0 0 26 0 0 21 0 0 
9 0 0 22 0 0 26 0 0 30 0 0 33 0 0 39 0 0 48 0 0 59 0 0 66 0 0 90 0 0 654 0 0 1221 0 0 1318 0 0 1333 0 0 1367 0 0 1415 0 0 1300 0 0 1380 0 0 1410 0 0 1427 0 0 1206 0 0 1457 0 0 1333 0 0 1311 0 0 1674 0 0 1359 0 0 1419 0 0 1410 0 0 1424 0 0 1405 0 0 1401 0 0 1350 0 0 1323 0 0 1425 0 0 1350 0 0 1461 0 0 1264 0 0 1363 0 0 1214 0 0 1400 0 0 1315 0 0 1407 0 0 1301 0 0 1382 0 0 1361 0 0 1284 0 0 1353 0 0 1370 0 0 1320 0 0 1259 0 0 688 0 0 87 0 0 78 0 0 64 0 0 45 0 0 40 0 0 37 0 0 25 0 0 24 0 0 22 0 0 
12 0 0 26 0 0 28 0 0 30 0 0 39 0 0 49 0 0 49 0 0 58 0 0 61 0 0 92 0 0 730 0 0 1309 0 0 1331 0 0 1285 0 0 1396 0 0 1439 0 0 1284 0 0 1385 0 0 1337 0 0 1362 0 0 1374 0 0 1366 0 0 1405 0 0 1281 0 0 1386 0 0 1349 0 0 1378 0 0 1386 0 0 1405 0 0 1341 0 0 1313 0 0 1225 0 0 1382 0 0 1384 0 0 1310 0 0 1341 0 0 1346 0 0 1402 0 0 1367 0 0 1379 0 0 1368 0 0 1300 0 0 1407 0 0 1253 0 0 1557 0 0 1350 0 0 1361 0 0 1294 0 0 1275 0 0 1415 0 0 703 0 0 92 0 0 67 0 0 56 0 0 45 0 0 40 0 0 30 0 0 29 0 0 25 0 0 23 0 0 
11 0 0 24 0 0 27 0 0 28 0 0 32 0 0 36 0 0 48 0 0 57 0 0 68 0 0 89 0 0 768 0 0 1400 0 0 1238 0 0 1361 0 0 1311 0 0 1361 0 0 1346 0 0 1272 0 0 1352 0 0 1391 0 0 1599 0 0 1439 0 0 1451 0 0 1280 0 0 1374 0 0 1294 0 0 1423 0 0 1325 0 0 1386 0 0 1337 0 0 1460 0 0 1354 0 0 1349 0 0 1468 0 0 1390 0 0 1329 0 0 1368 0 0 1589 0 0 1331 0 0 1440 0 0 1348 0 0 1349 0 0 1421 0 0 1421 0 0 1314 0 0 1340 0 0 1305 0 0 1244 0 0 1392 0 0 1274 0 0 769 0 0 79 0 0 70 0 0 58 0 0 50 0 0 37 0 0 36 0 0 30 0 0 24 0 0 20 0 0 
9 0 0 24 0 0 26 0 0 27 0 0 38 0 0 43 0 0 48 0 0 57 0 0 67 0 0 88 0 0 670 0 0 1249 0 0 1498 0 0 1317 0 0 1332 0 0 1328 0 0 1348 0 0 1368 0 0 1451 0 0 1335 0 0 1317 0 0 1385 0 0 1342 0 0 1320 0 0 1309 0 0 1295 0 0 1330 0 0 1433 0 0 1411 0 0 1342 0 0 1389 0 0 1365 0 0 1354 0 0 1404 0 0 1343 0 0 1418 0 0 1470 0 0 1541 0 0 1336 0 0 1503 0 0 1244 0 0 1443 0 0 1377 0 0 1315 0 0 1560 0 0 1548 0 0 1353 0 0 1366 0 0 1245 0 0 1263 0 0 656 0 0 103 0 0 75 0 0 55 0 0 48 0 0 39 0 0 38 0 0 35 0 0 23 0 0 22 0 0 
10 0 0 16 0 0 23 0 0 31 0 0 34 0 0 46 0 0 48 0 0 53 0 0 67 0 0 105 0 0 677 0 0 1275 0 0 1201 0 0 1395 0 0 1399 0 0 1298 0 0 1322 0 0 1281 0 0 1390 0 0 1350 0 0 1326 0 0 1402 0 0 1283 0 0 1358 0 0 1366 0 0 1351 0 0 1271 0 0 1398 0 0 1288 0 0 1315 0 0 1420 0 0 1307 0 0 1338 0 0 1388 0 0 1363 0 0 1430 0 0 1398 0 0 1391 0 0 1403 0 0 1346 0 0 1305 0 0 1341 0 0 1402 0 0 1281 0 0 1306 0 0 1335 0 0 1375 0 0 1336 0 0 1484 0 0 1244 0 0 710 0 0 99 0 0 73 0 0 61 0 0 50 0 0 40 0 0 36 0 0 30 0 0 30 0 0 22 0 0 
10 0 0 25 0 0 22 0 0 25 0 0 30 0 0 41 0 0 48 0 0 62 0 0 71 0 0 96 0 0 707 0 0 1171 0 0 1322 0 0 1353 0 0 1426 0 0 1303 0 0 1315 0 0 1332 0 0 1364 0 0 1315 0 0 1363 0 0 1440 0 0 1340 0 0 1344 0 0 1454 0 0 1390 0 0 1288 0 0 1363 0 0 1429 0 0 1353 0 0 1339 0 0 1331 0 0 1380 0 0 1352 0 0 1392 0 0 1431 0 0 1424 0 0 1342 0 0 1363 0 0 1387 0 0 1391 0 0 1424 0 0 1370 0 0 1364 0 0 1255 0 0 1332 0 0 1406 0 0 1280 0 0 1278 0 0 1266 0 0 704 0 0 87 0 0 73 0 0 58 0 0 46 0 0 40 0 0 33 0 0 33 0 0 26 0 0 25 0 0 
9 0 0 24 0 0 26 0 0 30 0 0 30 0 0 41 0 0 49 0 0 54 0 0 74 0 0 77 0 0 677 0 0 1297 0 0 1325 0 0 1377 0 0 1405 0 0 1351 0 0 1360 0 0 1290 0 0 1307 0 0 1356 0 0 1383 0 0 1376 0 0 1447 0 0 1342 0 0 1390 0 0 1363 0 0 1378 0 0 1436 0 0 1341 0 0 1548 0 0 1421 0 0 1329 0 0 1495 0 0 1409 0 0 1395 0 0 1313 0 0 1364 0 0 1397 0 0 1336 0 0 1368 0 0 1306 0 0 1420 0 0 1365 0 0 1365 0 0 1341 0 0 1418 0 0 1296 0 0 1318 0 0 1246 0 0 1306 0 0 658 0 0 85 0 0 67 0 0 58 0 0 44 0 0 45 0 0 38 0 0 28 0 0 27 0 0 21 0 0 
10 0 0 26 0 0 22 0 0 29 0 0 34 0 0 36 0 0 42 0 0 65 0 0 64 0 0 85 0 0 664 0 0 1235 0 0 1310 0 0 1340 0 0 1413 0 0 1428 0 0 1374 0 0 1392 0 0 1245 0 0 1293 0 0 1365 0 0 1370 0 0 1348 0 0 1431 0 0 1343 0 0 1388 0 0 1393 0 0 1445 0 0 1444 0 0 1375 0 0 1362 0 0 1358 0 0 1330 0 0 1539 0 0 1373 0 0 1635 0 0 1346 0 0 1334 0 0 1285 0 0 1369 0 0 1459 0 0 1378 0 0 1407 0 0 1379 0 0 1422 0 0 1338 0 0 1393 0 0 1354 0 0 1365 0 0 1273 0 0 689 0 0 88 0 0 67 0 0 55 0 0 46 0 0 39 0 0 35 0 0 25 0 0 23 0 0 21 0 0 
9 0 0 22 0 0 23 0 0 30 0 0 33 0 0 40 0 0 46 0 0 58 0 0 64 0 0 94 0 0 692 0 0 1182 0 0 1359 0 0 1334 0 0 1328 0 0 1378 0 0 1403 0 0 1352 0 0 1342 0 0 1278 0 0 1258 0 0 1393 0 0 1411 0 0 1426 0 0 1314 0 0 1343 0 0 1375 0 0 1446 0 0 1441 0 0 1256 0 0 1408 0 0 1362 0 0 1381 0 0 1325 0 0 1409 0 0 1458 0 0 1343 0 0 1360 0 0 1372 0 0 1359 0 0 1324 0 0 1269 0 0 4593 0 0 1256 0 0 1348 0 0 1334 0 0 1359 0 0 1262 0 0 1351 0 0 1323 0 0 733 0 0 90 0 0 76 0 0 57 0 0 44 0 0 39 0 0 37 0 0 28 0 0 25 0 0 22 0 0 
9 0 0 23 0 0 22 0 0 26 0 0 32 0 0 37 0 0 46 0 0 53 0 0 76 0 0 86 0 0 732 0 0 1237 0 0 1324 0 0 1394 0 0 119550 0 0 1320 0 0 1329 0 0 1341 0 0 1373 0 0 1427 0 0 1344 0 0 1389 0 0 1326 0 0 1381 0 0 1448 0 0 1337 0 0 1343 0 0 1470 0 0 1438 0 0 1289 0 0 1374 0 0 1400 0 0 1417 0 0 1304 0 0 1400 0 0 1425 0 0 1376 0 0 1396 0 0 1324 0 0 1383 0 0 1432 0 0 1336 0 0 1299 0 0 1301 0 0 1421 0 0 1762 0 0 1387 0 0 1248 0 0 1316 0 0 1305 0 0 629 0 0 90 0 0 64 0 0 54 0 0 44 0 0 33 0 0 32 0 0 29 0 0 29 0 0 25 0 0 
8 0 0 23 0 0 23 0 0 27 0 0 30 0 0 39 0 0 49 0 0 62 0 0 67 0 0 76 0 0 673 0 0 1266 0 0 1340 0 0 1296 0 0 1316 0 0 1407 0 0 1353 0 0 1332 0 0 1376 0 0 1368 0 0 1337 0 0 1315 0 0 1392 0 0 1426 0 0 1378 0 0 1371 0 0 1301 0 0 1361 0 0 1427 0 0 1387 0 0 1294 0 0 1325 0 0 1414 0 0 1372 0 0 1348 0 0 1332 0 0 1396 0 0 1373 0 0 1314 0 0 1369 0 0 1337 0 0 1414 0 0 1361 0 0 1312 0 0 1235 0 0 1352 0 0 1423 0 0 1320 0 0 1261 0 0 1306 0 0 676 0 0 91 0 0 58 0 0 51 0 0 47 0 0 34 0 0 35 0 0 30 0 0 26 0 0 20 0 0 
8 0 0 22 0 0 24 0 0 28 0 0 29 0 0 34 0 0 46 0 0 49 0 0 59 0 0 90 0 0 696 0 0 1287 0 0 1272 0 0 1365 0 0 1249 0 0 1308 0 0 1278 0 0 1286 0 0 1297 0 0 1296 0 0 1318 0 0 1409 0 0 1399 0 0 1374 0 0 1365 0 0 1341 0 0 1377 0 0 1338 0 0 1415 0 0 1367 0 0 1293 0 0 1326 0 0 1301 0 0 1338 0 0 1345 0 0 1356 0 0 1346 0 0 1253 0 0 1344 0 0 1311 0 0 1332 0 0 1345 0 0 1309 0 0 1347 0 0 1314 0 0 1291 0 0 1373 0 0 1323 0 0 1336 0 0 1225 0 0 596 0 0 82 0 0 68 0 0 52 0 0 49 0 0 40 0 0 37 0 0 26 0 0 24 0 0 19 0 0 
8 0 0 21 0 0 23 0 0 27 0 0 31 0 0 36 0 0 43 0 0 55 0 0 74 0 0 88 0 0 685 0 0 1317 0 0 1326 0 0 1276 0 0 1372 0 0 1334 0 0 1298 0 0 1353 0 0 1349 0 0 1349 0 0 1353 0 0 1341 0 0 1348 0 0 1338 0 0 1369 0 0 1447 0 0 1370 0 0 1417 0 0 1385 0 0 1282 0 0 1331 0 0 1292 0 0 1357 0 0 1306 0 0 1313 0 0 1448 0 0 1351 0 0 1427 0 0 1321 0 0 1312 0 0 1288 0 0 1343 0 0 1308 0 0 1381 0 0 1348 0 0 1382 0 0 1283 0 0 1325 0 0 1286 0 0 1244 0 0 777 0 0 82 0 0 64 0 0 46 0 0 46 0 0 34 0 0 32 0 0 24 0 0 25 0 0 20 0 0 
9 0 0 17 0 0 23 0 0 27 0 0 32 0 0 33 0 0 42 0 0 55 0 0 60 0 0 81 0 0 667 0 0 1337 0 0 1314 0 0 1259 0 0 1378 0 0 1335 0 0 1257 0 0 1346 0 0 1400 0 0 1344 0 0 1348 0 0 1408 0 0 1467 0 0 1264 0 0 1376 0 0 1375 0 0 1309 0 0 1333 0 0 1340 0 0 1345 0 0 1307 0 0 1340 0 0 1377 0 0 1366 0 0 1347 0 0 1328 0 0 1361 0 0 1384 0 0 1359 0 0 1349 0 0 1335 0 0 1301 0 0 1404 0 0 1393 0 0 1315 0 0 1297 0 0 1431 0 0 1345 0 0 1284 0 0 1325 0 0 668 0 0 85 0 0 67 0 0 55 0 0 44 0 0 32 0 0 31 0 0 24 0 0 25 0 0 21 0 0 
9 0 0 18 0 0 25 0 0 24 0 0 30 0 0 36 0 0 45 0 0 48 0 0 70 0 0 81 0 0 703 0 0 1299 0 0 1402 0 0 1320 0 0 1311 0 0 1295 0 0 1320 0 0 1409 0 0 1266 0 0 1387 0 0 1560 0 0 1343 0 0 1398 0 0 1398 0 0 1301 0 0 1356 0 0 1424 0 0 1435 0 0 1293 0 0 1381 0 0 1397 0 0 1406 0 0 1395 0 0 1360 0 0 1353 0 0 1410 0 0 1320 0 0 1383 0 0 1265 0 0 1323 0 0 1421 0 0 1485 0 0 1333 0 0 1281 0 0 1285 0 0 1260 0 0 1349 0 0 1304 0 0 1296 0 0 1300 0 0 673 0 0 73 0 0 61 0 0 49 0 0 46 0 0 36 0 0 29 0 0 24 0 0 22 0 0 20 0 0 
6 0 0 16 0 0 22 0 0 24 0 0 29 0 0 31 0 0 41 0 0 54 0 0 59 0 0 66 0 0 686 0 0 1291 0 0 1341 0 0 1349 0 0 1264 0 0 1352 0 0 1380 0 0 1224 0 0 1254 0 0 1366 0 0 1251 0 0 1352 0 0 1382 0 0 1348 0 0 1334 0 0 1283 0 0 1363 0 0 1451 0 0 1382 0 0 1317 0 0 1402 0 0 1270 0 0 1386 0 0 1292 0 0 1381 0 0 1346 0 0 1401 0 0 1312 0 0 1380 0 0 1287 0 0 1238 0 0 1338 0 0 1338 0 0 1389 0 0 1298 0 0 1385 0 0 1244 0 0 1459 0 0 1280 0 0 1269 0 0 665 0 0 79 0 0 57 0 0 48 0 0 48 0 0 33 0 0 25 0 0 28 0 0 21 0 0 17 0 0 
8 0 0 17 0 0 22 0 0 25 0 0 26 0 0 32 0 0 43 0 0 44 0 0 64 0 0 71 0 0 670 0 0 1268 0 0 1288 0 0 1368 0 0 1281 0 0 1332 0 0 1390 0 0 1282 0 0 1293 0 0 1326 0 0 1406 0 0 1318 0 0 1432 0 0 1336 0 0 1262 0 0 1292 0 0 1315 0 0 1349 0 0 1353 0 0 1328 0 0 1351 0 0 1379 0 0 1448 0 0 1311 0 0 1350 0 0 1302 0 0 1399 0 0 1368 0 0 1279 0 0 1329 0 0 1322 0 0 1349 0 0 1424 0 0 1266 0 0 1311 0 0 1336 0 0 1356 0 0 1376 0 0 1329 0 0 1214 0 0 632 0 0 76 0 0 58 0 0 150 0 0 34 0 0 32 0 0 25 0 0 23 0 0 23 0 0 20 0 0 
7 0 0 16 0 0 19 0 0 25 0 0 25 0 0 29 0 0 36 0 0 45 0 0 57 0 0 68 0 0 617 0 0 1296 0 0 1248 0 0 1257 0 0 1366 0 0 1350 0 0 1287 0 0 1342 0 0 1383 0 0 1290 0 0 1331 0 0 1332 0 0 1708 0 0 1373 0 0 1308 0 0 1320 0 0 1246 0 0 1327 0 0 1368 0 0 1313 0 0 1312 0 0 1340 0 0 1305 0 0 1288 0 0 1295 0 0 1331 0 0 1373 0 0 1270 0 0 1322 0 0 1262 0 0 1315 0 0 1534 0 0 1442 0 0 1288 0 0 1276 0 0 1401 0 0 1281 0 0 1345 0 0 1333 0 0 1337 0 0 667 0 0 460 0 0 53 0 0 39 0 0 40 0 0 31 0 0 28 0 0 23 0 0 18 0 0 15 0 0 
7 0 0 16 0 0 16 0 0 23 0 0 25 0 0 26 0 0 38 0 0 37 0 0 49 0 0 76 0 0 724 0 0 1258 0 0 1275 0 0 1508 0 0 1340 0 0 1212 0 0 1472 0 0 1428 0 0 1287 0 0 1315 0 0 1393 0 0 1251 0 0 1284 0 0 1256 0 0 1399 0 0 1264 0 0 1278 0 0 1430 0 0 1275 0 0 1249 0 0 1297 0 0 1305 0 0 1309 0 0 1294 0 0 1294 0 0 1381 0 0 1296 0 0 1323 0 0 1300 0 0 1390 0 0 1324 0 0 1350 0 0 1271 0 0 1269 0 0 1287 0 0 1345 0 0 1262 0 0 1276 0 0 1416 0 0 1272 0 0 711 0 0 69 0 0 62 0 0 45 0 0 36 0 0 31 0 0 24 0 0 21 0 0 15 0 0 16 0 0 
6 0 0 18 0 0 18 0 0 19 0 0 26 0 0 31 0 0 33 0 0 40 0 0 51 0 0 65 0 0 618 0 0 1225 0 0 1367 0 0 1254 0 0 1329 0 0 1290 0 0 1307 0 0 1317 0 0 1232 0 0 1391 0 0 1259 0 0 1334 0 0 1205 0 0 1302 0 0 1302 0 0 1287 0 0 1247 0 0 1303 0 0 1270 0 0 1332 0 0 1362 0 0 1348 0 0 1365 0 0 1406 0 0 1322 0 0 1300 0 0 1254 0 0 1315 0 0 1381 0 0 1311 0 0 1258 0 0 1260 0 0 1349 0 0 1366 0 0 1333 0 0 1368 0 0 1320 0 0 1252 0 0 1241 0 0 1311 0 0 562 0 0 71 0 0 48 0 0 44 0 0 31 0 0 30 0 0 27 0 0 23 0 0 16 0 0 14 0 0 
8 0 0 15 0 0 16 0 0 16 0 0 25 0 0 27 0 0 26 0 0 37 0 0 46 0 0 57 0 0 669 0 0 1269 0 0 1202 0 0 1333 0 0 1288 0 0 1283 0 0 1912 0 0 1333 0 0 1219 0 0 1330 0 0 1237 0 0 1259 0 0 1188 0 0 1368 0 0 1284 0 0 1313 0 0 1226 0 0 1379 0 0 1279 0 0 1289 0 0 1274 0 0 1507 0 0 1331 0 0 1242 0 0 1324 0 0 1277 0 0 1288 0 0 1290 0 0 1281 0 0 1230 0 0 1359 0 0 1271 0 0 1303 0 0 1215 0 0 1354 0 0 1232 0 0 1268 0 0 1314 0 0 1281 0 0 1192 0 0 659 0 0 68 0 0 51 0 0 32 0 0 32 0 0 22 0 0 18 0 0 20 0 0 16 0 0 15 0 0 
6 0 0 14 0 0 15 0 0 19 0 0 18 0 0 22 0 0 30 0 0 32 0 0 42 0 0 50 0 0 391 0 0 695 0 0 634 0 0 700 0 0 697 0 0 699 0 0 711 0 0 740 0 0 641 0 0 613 0 0 680 0 0 662 0 0 650 0 0 652 0 0 722 0 0 658 0 0 598 0 0 632 0 0 656 0 0 712 0 0 725 0 0 689 0 0 742 0 0 647 0 0 664 0 0 635 0 0 649 0 0 694 0 0 700 0 0 689 0 0 804 0 0 696 0 0 661 0 0 765 0 0 682 0 0 680 0 0 655 0 0 674 0 0 710 0 0 570 0 0 368 0 0 50 0 0 36 0 0 32 0 0 28 0 0 23 0 0 22 0 0 15 0 0 18 0 0 14 0 0 
5 0 0 13 0 0 14 0 0 17 0 0 16 0 0 24 0 0 24 0 0 30 0 0 35 0 0 38 0 0 52 0 0 51 0 0 69 0 0 74 0 0 64 0 0 76 0 0 79 0 0 77 0 0 91 0 0 75 0 0 95 0 0 81 0 0 86 0 0 81 0 0 99 0 0 86 0 0 92 0 0 94 0 0 86 0 0 90 0 0 103 0 0 91 0 0 91 0 0 89 0 0 91 0 0 106 0 0 82 0 0 93 0 0 89 0 0 76 0 0 91 0 0 89 0 0 81 0 0 74 0 0 74 0 0 77 0 0 74 0 0 68 0 0 67 0 0 55 0 0 51 0 0 47 0 0 38 0 0 31 0 0 29 0 0 25 0 0 18 0 0 16 0 0 14 0 0 15 0 0 
6 0 0 12 0 0 13 0 0 14 0 0 18 0 0 17 0 0 21 0 0 28 0 0 32 0 0 39 0 0 48 0 0 40 0 0 49 0 0 49 0 0 55 0 0 62 0 0 62 0 0 64 0 0 72 0 0 64 0 0 65 0 0 68 0 0 61 0 0 66 0 0 60 0 0 77 0 0 71 0 0 70 0 0 69 0 0 68 0 0 77 0 0 77 0 0 63 0 0 69 0 0 75 0 0 67 0 0 64 0 0 59 0 0 70 0 0 67 0 0 68 0 0 62 0 0 68 0 0 64 0 0 64 0 0 63 0 0 56 0 0 48 0 0 48 0 0 47 0 0 36 0 0 36 0 0 25 0 0 27 0 0 22 0 0 23 0 0 18 0 0 15 0 0 14 0 0 14 0 0 
4 0 0 9 0 0 14 0 0 13 0 0 18 0 0 16 0 0 19 0 0 27 0 0 26 0 0 28 0 0 36 0 0 34 0 0 35 0 0 39 0 0 41 0 0 47 0 0 48 0 0 45 0 0 51 0 0 52 0 0 52 0 0 54 0 0 54 0 0 54 0 0 58 0 0 55 0 0 51 0 0 54 0 0 61 0 0 54 0 0 56 0 0 57 0 0 54 0 0 62 0 0 63 0 0 62 0 0 55 0 0 64 0 0 57 0 0 51 0 0 50 0 0 51 0 0 51 0 0 49 0 0 48 0 0 56 0 0 47 0 0 43 0 0 38 0 0 35 0 0 30 0 0 29 0 0 28 0 0 22 0 0 16 0 0 17 0 0 19 0 0 13 0 0 13 0 0 11 0 0 
4 0 0 12 0 0 13 0 0 13 0 0 14 0 0 18 0 0 18 0 0 21 0 0 23 0 0 25 0 0 27 0 0 28 0 0 37 0 0 33 0 0 30 0 0 42 0 0 35 0 0 39 0 0 46 0 0 43 0 0 43 0 0 49 0 0 43 0 0 46 0 0 37 0 0 46 0 0 47 0 0 51 0 0 49 0 0 51 0 0 48 0 0 45 0 0 51 0 0 45 0 0 49 0 0 46 0 0 45 0 0 46 0 0 46 0 0 41 0 0 44 0 0 38 0 0 45 0 0 39 0 0 37 0 0 38 0 0 38 0 0 39 0 0 41 0 0 32 0 0 28 0 0 26 0 0 19 0 0 21 0 0 19 0 0 17 0 0 16 0 0 13 0 0 17 0 0 13 0 0 
5 0 0 11 0 0 13 0 0 14 0 0 14 0 0 16 0 0 16 0 0 17 0 0 20 0 0 23 0 0 24 0 0 30 0 0 28 0 0 33 0 0 31 0 0 33 0 0 36 0 0 36 0 0 37 0 0 38 0 0 36 0 0 40 0 0 38 0 0 41 0 0 42 0 0 41 0 0 42 0 0 36 0 0 41 0 0 38 0 0 35 0 0 44 0 0 36 0 0 43 0 0 39 0 0 43 0 0 46 0 0 41 0 0 38 0 0 40 0 0 38 0 0 40 0 0 36 0 0 33 0 0 33 0 0 32 0 0 31 0 0 30 0 0 25 0 0 25 0 0 22 0 0 28 0 0 19 0 0 18 0 0 16 0 0 15 0 0 14 0 0 12 0 0 10 0 0 8 0 0 
5 0 0 9 0 0 10 0 0 12 0 0 10 0 0 16 0 0 13 0 0 18 0 0 16 0 0 17 0 0 22 0 0 25 0 0 26 0 0 29 0 0 25 0 0 28 0 0 29 0 0 26 0 0 29 0 0 32 0 0 32 0 0 30 0 0 31 0 0 38 0 0 40 0 0 36 0 0 32 0 0 35 0 0 34 0 0 34 0 0 35 0 0 35 0 0 33 0 0 36 0 0 37 0 0 40 0 0 39 0 0 31 0 0 34 0 0 34 0 0 34 0 0 28 0 0 32 0 0 28 0 0 31 0 0 25 0 0 28 0 0 24 0 0 22 0 0 25 0 0 22 0 0 19 0 0 20 0 0 18 0 0 14 0 0 14 0 0 10 0 0 9 0 0 10 0 0 13 0 0 
4 0 0 9 0 0 11 0 0 10 0 0 10 0 0 12 0 0 13 0 0 17 0 0 19 0 0 17 0 0 21 0 0 19 0 0 24 0 0 24 0 0 22 0 0 23 0 0 26 0 0 27 0 0 23 0 0 23 0 0 26 0 0 27 0 0 28 0 0 28 0 0 29 0 0 34 0 0 29 0 0 29 0 0 31 0 0 30 0 0 30 0 0 29 0 0 32 0 0 30 0 0 27 0 0 27 0 0 30 0 0 26 0 0 29 0 0 23 0 0 29 0 0 30 0 0 25 0 0 25 0 0 24 0 0 23 0 0 25 0 0 22 0 0 21 0 0 20 0 0 19 0 0 17 0 0 14 0 0 16 0 0 13 0 0 14 0 0 10 0 0 11 0 0 11 0 0 9 0 0 
3 0 0 7 0 0 8 0 0 9 0 0 12 0 0 10 0 0 14 0 0 17 0 0 15 0 0 17 0 0 14 0 0 15 0 0 15 0 0 19 0 0 21 0 0 17 0 0 22 0 0 20 0 0 23 0 0 24 0 0 26 0 0 23 0 0 25 0 0 28 0 0 24 0 0 25 0 0 25 0 0 27 0 0 26 0 0 25 0 0 26 0 0 28 0 0 27 0 0 23 0 0 28 0 0 22 0 0 24 0 0 26 0 0 25 0 0 26 0 0 25 0 0 19 0 0 26 0 0 24 0 0 23 0 0 21 0 0 23 0 0 18 0 0 18 0 0 16 0 0 15 0 0 18 0 0 14 0 0 14 0 0 12 0 0 11 0 0 11 0 0 11 0 0 10 0 0 8 0 0 
3 0 0 8 0 0 9 0 0 9 0 0 9 0 0 9 0 0 10 0 0 13 0 0 11 0 0 15 0 0 14 0 0 14 0 0 13 0 0 16 0 0 18 0 0 17 0 0 18 0 0 19 0 0 18 0 0 24 0 0 20 0 0 19 0 0 20 0 0 22 0 0 21 0 0 22 0 0 24 0 0 23 0 0 25 0 0 22 0 0 21 0 0 23 0 0 22 0 0 20 0 0 24 0 0 20 0 0 20 0 0 22 0 0 24 0 0 21 0 0 21 0 0 18 0 0 19 0 0 20 0 0 18 0 0 19 0 0 14 0 0 15 0 0 15 0 0 17 0 0 13 0 0 14 0 0 16 0 0 11 0 0 10 0 0 10 0 0 8 0 0 10 0 0 9 0 0 7 0 0 
