P3
# This is a kerma file slice at depth 35 of 100
60 60
# now we give the maximum value of the RGB coordinates.
651919
2 0 0 6 0 0 8 0 0 8 0 0 10 0 0 7 0 0 8 0 0 9 0 0 12 0 0 13 0 0 12 0 0 13 0 0 9 0 0 10 0 0 13 0 0 16 0 0 18 0 0 20 0 0 19 0 0 16 0 0 23 0 0 20 0 0 17 0 0 18 0 0 20 0 0 18 0 0 19 0 0 15 0 0 17 0 0 20 0 0 19 0 0 15 0 0 19 0 0 23 0 0 18 0 0 16 0 0 20 0 0 23 0 0 27 0 0 19 0 0 19 0 0 16 0 0 18 0 0 16 0 0 16 0 0 14 0 0 15 0 0 13 0 0 16 0 0 15 0 0 12 0 0 13 0 0 10 0 0 11 0 0 10 0 0 8 0 0 8 0 0 8 0 0 8 0 0 5 0 0 
8 0 0 20 0 0 17 0 0 16 0 0 19 0 0 22 0 0 21 0 0 20 0 0 21 0 0 18 0 0 27 0 0 34 0 0 36 0 0 29 0 0 33 0 0 44 0 0 39 0 0 48 0 0 37 0 0 37 0 0 40 0 0 40 0 0 48 0 0 44 0 0 40 0 0 46 0 0 44 0 0 52 0 0 45 0 0 56 0 0 45 0 0 49 0 0 46 0 0 45 0 0 45 0 0 36 0 0 52 0 0 43 0 0 45 0 0 45 0 0 39 0 0 40 0 0 39 0 0 42 0 0 34 0 0 43 0 0 31 0 0 30 0 0 33 0 0 29 0 0 29 0 0 21 0 0 25 0 0 21 0 0 22 0 0 23 0 0 19 0 0 19 0 0 16 0 0 15 0 0 
8 0 0 16 0 0 18 0 0 21 0 0 21 0 0 22 0 0 29 0 0 19 0 0 34 0 0 28 0 0 36 0 0 34 0 0 34 0 0 40 0 0 41 0 0 43 0 0 38 0 0 40 0 0 51 0 0 51 0 0 51 0 0 43 0 0 52 0 0 50 0 0 52 0 0 43 0 0 48 0 0 46 0 0 46 0 0 42 0 0 55 0 0 46 0 0 51 0 0 56 0 0 49 0 0 51 0 0 46 0 0 56 0 0 49 0 0 48 0 0 43 0 0 38 0 0 42 0 0 55 0 0 37 0 0 44 0 0 46 0 0 45 0 0 34 0 0 26 0 0 33 0 0 22 0 0 27 0 0 27 0 0 25 0 0 27 0 0 19 0 0 20 0 0 19 0 0 16 0 0 
9 0 0 15 0 0 23 0 0 19 0 0 23 0 0 26 0 0 25 0 0 38 0 0 24 0 0 35 0 0 39 0 0 38 0 0 38 0 0 41 0 0 46 0 0 47 0 0 48 0 0 51 0 0 47 0 0 52 0 0 65 0 0 57 0 0 57 0 0 57 0 0 64 0 0 60 0 0 54 0 0 61 0 0 48 0 0 54 0 0 55 0 0 66 0 0 62 0 0 58 0 0 59 0 0 56 0 0 54 0 0 52 0 0 57 0 0 62 0 0 56 0 0 58 0 0 48 0 0 49 0 0 45 0 0 48 0 0 42 0 0 48 0 0 43 0 0 37 0 0 34 0 0 35 0 0 30 0 0 27 0 0 30 0 0 22 0 0 23 0 0 26 0 0 18 0 0 19 0 0 
7 0 0 15 0 0 17 0 0 23 0 0 32 0 0 27 0 0 34 0 0 36 0 0 33 0 0 37 0 0 37 0 0 39 0 0 46 0 0 41 0 0 49 0 0 61 0 0 48 0 0 50 0 0 54 0 0 59 0 0 55 0 0 60 0 0 60 0 0 61 0 0 68 0 0 59 0 0 67 0 0 77 0 0 68 0 0 62 0 0 67 0 0 60 0 0 61 0 0 72 0 0 65 0 0 68 0 0 72 0 0 61 0 0 68 0 0 62 0 0 62 0 0 68 0 0 56 0 0 56 0 0 52 0 0 48 0 0 46 0 0 53 0 0 48 0 0 45 0 0 38 0 0 36 0 0 37 0 0 30 0 0 29 0 0 26 0 0 20 0 0 20 0 0 22 0 0 17 0 0 
9 0 0 23 0 0 22 0 0 27 0 0 27 0 0 34 0 0 32 0 0 34 0 0 43 0 0 48 0 0 43 0 0 49 0 0 57 0 0 60 0 0 44 0 0 58 0 0 52 0 0 58 0 0 55 0 0 56 0 0 89 0 0 75 0 0 78 0 0 81 0 0 72 0 0 79 0 0 72 0 0 72 0 0 68 0 0 64 0 0 86 0 0 80 0 0 75 0 0 83 0 0 77 0 0 71 0 0 74 0 0 76 0 0 72 0 0 68 0 0 77 0 0 66 0 0 68 0 0 62 0 0 59 0 0 66 0 0 51 0 0 57 0 0 46 0 0 61 0 0 41 0 0 41 0 0 35 0 0 35 0 0 28 0 0 28 0 0 30 0 0 29 0 0 18 0 0 18 0 0 
14 0 0 22 0 0 25 0 0 23 0 0 38 0 0 33 0 0 38 0 0 40 0 0 39 0 0 52 0 0 43 0 0 66 0 0 61 0 0 53 0 0 70 0 0 72 0 0 70 0 0 76 0 0 65 0 0 81 0 0 75 0 0 79 0 0 71 0 0 87 0 0 68 0 0 83 0 0 93 0 0 87 0 0 82 0 0 92 0 0 92 0 0 84 0 0 88 0 0 83 0 0 95 0 0 82 0 0 95 0 0 86 0 0 82 0 0 75 0 0 79 0 0 80 0 0 75 0 0 77 0 0 73 0 0 62 0 0 52 0 0 60 0 0 66 0 0 67 0 0 53 0 0 44 0 0 43 0 0 38 0 0 40 0 0 22 0 0 33 0 0 23 0 0 20 0 0 24 0 0 
9 0 0 28 0 0 27 0 0 27 0 0 35 0 0 38 0 0 41 0 0 49 0 0 46 0 0 52 0 0 53 0 0 59 0 0 70 0 0 68 0 0 74 0 0 82 0 0 76 0 0 88 0 0 80 0 0 89 0 0 80 0 0 86 0 0 106 0 0 86 0 0 91 0 0 96 0 0 108 0 0 103 0 0 91 0 0 95 0 0 95 0 0 90 0 0 112 0 0 161 0 0 96 0 0 90 0 0 100 0 0 107 0 0 85 0 0 98 0 0 110 0 0 86 0 0 90 0 0 83 0 0 80 0 0 71 0 0 66 0 0 73 0 0 59 0 0 66 0 0 55 0 0 54 0 0 46 0 0 39 0 0 43 0 0 33 0 0 24 0 0 25 0 0 30 0 0 23 0 0 
9 0 0 23 0 0 27 0 0 32 0 0 37 0 0 39 0 0 44 0 0 49 0 0 43 0 0 71 0 0 64 0 0 59 0 0 73 0 0 86 0 0 77 0 0 91 0 0 87 0 0 100 0 0 102 0 0 102 0 0 108 0 0 109 0 0 90 0 0 107 0 0 103 0 0 112 0 0 106 0 0 123 0 0 119 0 0 114 0 0 125 0 0 114 0 0 114 0 0 108 0 0 99 0 0 125 0 0 111 0 0 91 0 0 112 0 0 104 0 0 114 0 0 104 0 0 106 0 0 108 0 0 101 0 0 92 0 0 86 0 0 80 0 0 60 0 0 86 0 0 69 0 0 61 0 0 51 0 0 56 0 0 40 0 0 46 0 0 36 0 0 29 0 0 29 0 0 26 0 0 
14 0 0 22 0 0 29 0 0 29 0 0 42 0 0 41 0 0 48 0 0 45 0 0 49 0 0 72 0 0 70 0 0 91 0 0 92 0 0 77 0 0 100 0 0 107 0 0 112 0 0 129 0 0 122 0 0 117 0 0 115 0 0 120 0 0 115 0 0 123 0 0 108 0 0 134 0 0 130 0 0 148 0 0 140 0 0 114 0 0 133 0 0 136 0 0 130 0 0 115 0 0 145 0 0 123 0 0 150 0 0 126 0 0 112 0 0 129 0 0 117 0 0 127 0 0 100 0 0 114 0 0 112 0 0 109 0 0 88 0 0 90 0 0 85 0 0 77 0 0 67 0 0 59 0 0 68 0 0 56 0 0 53 0 0 38 0 0 43 0 0 36 0 0 34 0 0 23 0 0 
15 0 0 32 0 0 27 0 0 32 0 0 32 0 0 49 0 0 50 0 0 56 0 0 58 0 0 73 0 0 237 0 0 398 0 0 453 0 0 427 0 0 445 0 0 421 0 0 456 0 0 513 0 0 454 0 0 443 0 0 523 0 0 431 0 0 471 0 0 453 0 0 448 0 0 509 0 0 522 0 0 482 0 0 498 0 0 485 0 0 510 0 0 498 0 0 466 0 0 504 0 0 511 0 0 550 0 0 488 0 0 459 0 0 420 0 0 477 0 0 439 0 0 477 0 0 478 0 0 522 0 0 487 0 0 455 0 0 479 0 0 492 0 0 478 0 0 503 0 0 254 0 0 87 0 0 62 0 0 47 0 0 54 0 0 43 0 0 42 0 0 34 0 0 32 0 0 29 0 0 
15 0 0 27 0 0 33 0 0 42 0 0 40 0 0 50 0 0 52 0 0 64 0 0 58 0 0 71 0 0 436 0 0 788 0 0 798 0 0 829 0 0 822 0 0 829 0 0 808 0 0 811 0 0 815 0 0 884 0 0 891 0 0 859 0 0 837 0 0 868 0 0 820 0 0 803 0 0 814 0 0 806 0 0 857 0 0 847 0 0 817 0 0 864 0 0 747 0 0 845 0 0 878 0 0 798 0 0 801 0 0 794 0 0 844 0 0 836 0 0 855 0 0 818 0 0 796 0 0 831 0 0 778 0 0 836 0 0 778 0 0 770 0 0 795 0 0 708 0 0 371 0 0 96 0 0 53 0 0 62 0 0 70 0 0 57 0 0 44 0 0 41 0 0 32 0 0 29 0 0 
16 0 0 32 0 0 37 0 0 41 0 0 47 0 0 46 0 0 45 0 0 67 0 0 76 0 0 98 0 0 435 0 0 772 0 0 921 0 0 798 0 0 895 0 0 869 0 0 803 0 0 865 0 0 857 0 0 868 0 0 894 0 0 872 0 0 839 0 0 880 0 0 885 0 0 857 0 0 840 0 0 944 0 0 938 0 0 809 0 0 862 0 0 875 0 0 872 0 0 926 0 0 859 0 0 834 0 0 774 0 0 879 0 0 919 0 0 951 0 0 890 0 0 818 0 0 820 0 0 830 0 0 855 0 0 801 0 0 825 0 0 827 0 0 754 0 0 735 0 0 402 0 0 96 0 0 70 0 0 77 0 0 64 0 0 42 0 0 44 0 0 40 0 0 35 0 0 30 0 0 
16 0 0 35 0 0 35 0 0 40 0 0 50 0 0 59 0 0 64 0 0 68 0 0 82 0 0 94 0 0 480 0 0 760 0 0 745 0 0 851 0 0 764 0 0 821 0 0 899 0 0 864 0 0 853 0 0 815 0 0 863 0 0 849 0 0 851 0 0 861 0 0 858 0 0 959 0 0 803 0 0 874 0 0 872 0 0 847 0 0 938 0 0 900 0 0 926 0 0 915 0 0 885 0 0 907 0 0 860 0 0 859 0 0 767 0 0 855 0 0 871 0 0 877 0 0 877 0 0 865 0 0 813 0 0 794 0 0 811 0 0 882 0 0 844 0 0 760 0 0 435 0 0 102 0 0 72 0 0 75 0 0 61 0 0 49 0 0 44 0 0 43 0 0 37 0 0 39 0 0 
14 0 0 31 0 0 36 0 0 42 0 0 52 0 0 53 0 0 60 0 0 83 0 0 78 0 0 95 0 0 461 0 0 828 0 0 846 0 0 840 0 0 847 0 0 831 0 0 876 0 0 890 0 0 846 0 0 954 0 0 918 0 0 879 0 0 894 0 0 893 0 0 906 0 0 904 0 0 860 0 0 865 0 0 936 0 0 860 0 0 844 0 0 835 0 0 852 0 0 758 0 0 876 0 0 882 0 0 849 0 0 935 0 0 978 0 0 2993 0 0 933 0 0 826 0 0 855 0 0 902 0 0 898 0 0 895 0 0 880 0 0 824 0 0 860 0 0 750 0 0 483 0 0 98 0 0 86 0 0 78 0 0 61 0 0 56 0 0 49 0 0 35 0 0 40 0 0 29 0 0 
13 0 0 41 0 0 41 0 0 41 0 0 57 0 0 57 0 0 58 0 0 70 0 0 87 0 0 98 0 0 434 0 0 801 0 0 821 0 0 777 0 0 801 0 0 811 0 0 818 0 0 856 0 0 898 0 0 928 0 0 873 0 0 896 0 0 859 0 0 894 0 0 924 0 0 890 0 0 942 0 0 902 0 0 914 0 0 847 0 0 894 0 0 870 0 0 873 0 0 1451 0 0 849 0 0 900 0 0 806 0 0 867 0 0 908 0 0 840 0 0 877 0 0 930 0 0 859 0 0 881 0 0 839 0 0 866 0 0 858 0 0 861 0 0 868 0 0 834 0 0 497 0 0 94 0 0 89 0 0 67 0 0 68 0 0 61 0 0 45 0 0 60 0 0 40 0 0 34 0 0 
18 0 0 39 0 0 42 0 0 53 0 0 59 0 0 63 0 0 70 0 0 89 0 0 76 0 0 116 0 0 416 0 0 811 0 0 908 0 0 811 0 0 858 0 0 883 0 0 809 0 0 862 0 0 853 0 0 899 0 0 920 0 0 926 0 0 861 0 0 905 0 0 878 0 0 857 0 0 926 0 0 900 0 0 877 0 0 840 0 0 916 0 0 903 0 0 850 0 0 929 0 0 897 0 0 936 0 0 845 0 0 898 0 0 894 0 0 839 0 0 871 0 0 960 0 0 932 0 0 884 0 0 893 0 0 872 0 0 894 0 0 903 0 0 803 0 0 768 0 0 460 0 0 113 0 0 95 0 0 78 0 0 60 0 0 64 0 0 55 0 0 40 0 0 42 0 0 45 0 0 
15 0 0 44 0 0 47 0 0 52 0 0 55 0 0 67 0 0 70 0 0 82 0 0 92 0 0 131 0 0 420 0 0 810 0 0 808 0 0 757 0 0 823 0 0 860 0 0 863 0 0 833 0 0 805 0 0 857 0 0 903 0 0 982 0 0 883 0 0 888 0 0 941 0 0 912 0 0 929 0 0 898 0 0 888 0 0 952 0 0 879 0 0 912 0 0 890 0 0 872 0 0 906 0 0 944 0 0 902 0 0 960 0 0 901 0 0 977 0 0 8740 0 0 878 0 0 875 0 0 877 0 0 828 0 0 827 0 0 920 0 0 820 0 0 963 0 0 775 0 0 445 0 0 115 0 0 83 0 0 85 0 0 72 0 0 63 0 0 44 0 0 45 0 0 39 0 0 44 0 0 
22 0 0 42 0 0 39 0 0 48 0 0 58 0 0 74 0 0 67 0 0 74 0 0 99 0 0 111 0 0 436 0 0 850 0 0 874 0 0 878 0 0 869 0 0 907 0 0 820 0 0 886 0 0 941 0 0 899 0 0 827 0 0 932 0 0 922 0 0 927 0 0 894 0 0 877 0 0 911 0 0 879 0 0 907 0 0 868 0 0 993 0 0 992 0 0 939 0 0 828 0 0 887 0 0 883 0 0 875 0 0 944 0 0 951 0 0 946 0 0 937 0 0 946 0 0 930 0 0 979 0 0 891 0 0 841 0 0 822 0 0 826 0 0 861 0 0 813 0 0 455 0 0 132 0 0 98 0 0 86 0 0 88 0 0 60 0 0 53 0 0 44 0 0 48 0 0 37 0 0 
12 0 0 39 0 0 42 0 0 47 0 0 49 0 0 59 0 0 86 0 0 86 0 0 96 0 0 106 0 0 467 0 0 767 0 0 818 0 0 788 0 0 892 0 0 863 0 0 978 0 0 936 0 0 981 0 0 915 0 0 919 0 0 846 0 0 967 0 0 879 0 0 978 0 0 886 0 0 939 0 0 879 0 0 990 0 0 934 0 0 937 0 0 917 0 0 914 0 0 899 0 0 902 0 0 1034 0 0 874 0 0 938 0 0 881 0 0 859 0 0 881 0 0 867 0 0 887 0 0 840 0 0 892 0 0 880 0 0 839 0 0 846 0 0 841 0 0 854 0 0 451 0 0 103 0 0 90 0 0 87 0 0 70 0 0 65 0 0 60 0 0 52 0 0 40 0 0 47 0 0 
19 0 0 38 0 0 47 0 0 47 0 0 68 0 0 74 0 0 76 0 0 99 0 0 111 0 0 118 0 0 486 0 0 879 0 0 826 0 0 1004 0 0 860 0 0 868 0 0 822 0 0 947 0 0 938 0 0 943 0 0 1147 0 0 871 0 0 978 0 0 927 0 0 814 0 0 964 0 0 955 0 0 926 0 0 916 0 0 880 0 0 955 0 0 979 0 0 949 0 0 923 0 0 867 0 0 911 0 0 901 0 0 872 0 0 828 0 0 983 0 0 933 0 0 881 0 0 861 0 0 886 0 0 863 0 0 853 0 0 814 0 0 864 0 0 832 0 0 751 0 0 488 0 0 115 0 0 90 0 0 94 0 0 79 0 0 66 0 0 69 0 0 61 0 0 50 0 0 36 0 0 
18 0 0 47 0 0 47 0 0 60 0 0 56 0 0 74 0 0 85 0 0 81 0 0 99 0 0 121 0 0 453 0 0 785 0 0 767 0 0 886 0 0 835 0 0 926 0 0 865 0 0 904 0 0 868 0 0 911 0 0 867 0 0 951 0 0 1004 0 0 928 0 0 944 0 0 853 0 0 870 0 0 881 0 0 921 0 0 846 0 0 949 0 0 878 0 0 938 0 0 866 0 0 964 0 0 886 0 0 861 0 0 915 0 0 970 0 0 1012 0 0 923 0 0 950 0 0 901 0 0 963 0 0 847 0 0 890 0 0 818 0 0 871 0 0 872 0 0 903 0 0 474 0 0 113 0 0 105 0 0 84 0 0 74 0 0 58 0 0 67 0 0 58 0 0 49 0 0 52 0 0 
21 0 0 34 0 0 54 0 0 55 0 0 59 0 0 67 0 0 73 0 0 82 0 0 94 0 0 130 0 0 497 0 0 916 0 0 765 0 0 854 0 0 855 0 0 876 0 0 891 0 0 903 0 0 822 0 0 878 0 0 952 0 0 944 0 0 1055 0 0 919 0 0 883 0 0 876 0 0 1013 0 0 913 0 0 950 0 0 901 0 0 926 0 0 955 0 0 828 0 0 917 0 0 928 0 0 1266 0 0 943 0 0 965 0 0 933 0 0 933 0 0 853 0 0 904 0 0 910 0 0 906 0 0 876 0 0 914 0 0 959 0 0 866 0 0 839 0 0 907 0 0 461 0 0 113 0 0 101 0 0 95 0 0 76 0 0 74 0 0 77 0 0 58 0 0 43 0 0 46 0 0 
19 0 0 50 0 0 50 0 0 55 0 0 82 0 0 68 0 0 89 0 0 88 0 0 111 0 0 132 0 0 454 0 0 873 0 0 796 0 0 871 0 0 846 0 0 828 0 0 914 0 0 916 0 0 952 0 0 852 0 0 845 0 0 889 0 0 946 0 0 855 0 0 900 0 0 886 0 0 879 0 0 951 0 0 922 0 0 925 0 0 919 0 0 942 0 0 948 0 0 931 0 0 865 0 0 911 0 0 871 0 0 965 0 0 853 0 0 933 0 0 855 0 0 915 0 0 904 0 0 967 0 0 856 0 0 898 0 0 917 0 0 848 0 0 915 0 0 826 0 0 456 0 0 120 0 0 111 0 0 107 0 0 84 0 0 71 0 0 53 0 0 55 0 0 55 0 0 43 0 0 
15 0 0 47 0 0 49 0 0 46 0 0 55 0 0 76 0 0 92 0 0 90 0 0 109 0 0 147 0 0 463 0 0 863 0 0 842 0 0 895 0 0 888 0 0 905 0 0 907 0 0 906 0 0 990 0 0 858 0 0 930 0 0 927 0 0 897 0 0 900 0 0 966 0 0 917 0 0 922 0 0 958 0 0 961 0 0 961 0 0 907 0 0 1133 0 0 916 0 0 932 0 0 902 0 0 952 0 0 944 0 0 972 0 0 964 0 0 889 0 0 973 0 0 904 0 0 960 0 0 912 0 0 908 0 0 907 0 0 853 0 0 887 0 0 861 0 0 832 0 0 470 0 0 130 0 0 126 0 0 96 0 0 83 0 0 66 0 0 63 0 0 54 0 0 44 0 0 42 0 0 
21 0 0 47 0 0 53 0 0 68 0 0 82 0 0 79 0 0 79 0 0 90 0 0 116 0 0 124 0 0 435 0 0 841 0 0 879 0 0 884 0 0 889 0 0 888 0 0 887 0 0 882 0 0 923 0 0 906 0 0 938 0 0 951 0 0 932 0 0 868 0 0 929 0 0 974 0 0 904 0 0 936 0 0 931 0 0 954 0 0 991 0 0 936 0 0 1006 0 0 936 0 0 1007 0 0 831 0 0 988 0 0 912 0 0 891 0 0 938 0 0 903 0 0 805 0 0 866 0 0 889 0 0 965 0 0 893 0 0 878 0 0 839 0 0 865 0 0 868 0 0 554 0 0 129 0 0 100 0 0 78 0 0 81 0 0 82 0 0 71 0 0 60 0 0 48 0 0 45 0 0 
19 0 0 35 0 0 49 0 0 56 0 0 63 0 0 75 0 0 72 0 0 95 0 0 117 0 0 144 0 0 484 0 0 834 0 0 936 0 0 931 0 0 866 0 0 757 0 0 908 0 0 915 0 0 977 0 0 993 0 0 905 0 0 914 0 0 917 0 0 941 0 0 1007 0 0 920 0 0 916 0 0 838 0 0 865 0 0 917 0 0 1007 0 0 874 0 0 1025 0 0 932 0 0 948 0 0 948 0 0 957 0 0 953 0 0 958 0 0 872 0 0 881 0 0 878 0 0 890 0 0 928 0 0 974 0 0 899 0 0 930 0 0 898 0 0 827 0 0 846 0 0 455 0 0 125 0 0 100 0 0 100 0 0 83 0 0 77 0 0 59 0 0 55 0 0 54 0 0 50 0 0 
22 0 0 49 0 0 51 0 0 56 0 0 60 0 0 81 0 0 106 0 0 91 0 0 118 0 0 140 0 0 509 0 0 801 0 0 921 0 0 850 0 0 809 0 0 902 0 0 871 0 0 877 0 0 815 0 0 966 0 0 985 0 0 935 0 0 957 0 0 926 0 0 937 0 0 943 0 0 918 0 0 933 0 0 929 0 0 914 0 0 986 0 0 957 0 0 915 0 0 992 0 0 932 0 0 982 0 0 924 0 0 901 0 0 883 0 0 913 0 0 950 0 0 936 0 0 890 0 0 900 0 0 977 0 0 855 0 0 866 0 0 893 0 0 849 0 0 844 0 0 415 0 0 150 0 0 108 0 0 100 0 0 91 0 0 72 0 0 80 0 0 69 0 0 49 0 0 40 0 0 
21 0 0 40 0 0 52 0 0 52 0 0 57 0 0 85 0 0 86 0 0 98 0 0 115 0 0 111 0 0 547 0 0 802 0 0 803 0 0 909 0 0 854 0 0 866 0 0 856 0 0 869 0 0 945 0 0 1005 0 0 953 0 0 916 0 0 873 0 0 949 0 0 957 0 0 943 0 0 867 0 0 882 0 0 1005 0 0 948 0 0 924 0 0 909 0 0 895 0 0 882 0 0 851 0 0 893 0 0 977 0 0 953 0 0 967 0 0 904 0 0 895 0 0 899 0 0 864 0 0 857 0 0 930 0 0 923 0 0 848 0 0 858 0 0 877 0 0 872 0 0 538 0 0 154 0 0 121 0 0 106 0 0 81 0 0 72 0 0 69 0 0 58 0 0 47 0 0 47 0 0 
15 0 0 48 0 0 53 0 0 56 0 0 63 0 0 76 0 0 83 0 0 99 0 0 114 0 0 139 0 0 468 0 0 861 0 0 870 0 0 872 0 0 853 0 0 913 0 0 894 0 0 862 0 0 919 0 0 939 0 0 1013 0 0 923 0 0 894 0 0 916 0 0 979 0 0 956 0 0 930 0 0 951 0 0 915 0 0 935 0 0 947 0 0 835 0 0 990 0 0 1043 0 0 974 0 0 1134 0 0 938 0 0 893 0 0 1647 0 0 894 0 0 886 0 0 923 0 0 975 0 0 916 0 0 855 0 0 854 0 0 920 0 0 891 0 0 867 0 0 885 0 0 501 0 0 135 0 0 123 0 0 89 0 0 81 0 0 75 0 0 70 0 0 53 0 0 49 0 0 42 0 0 
23 0 0 47 0 0 57 0 0 57 0 0 69 0 0 82 0 0 82 0 0 107 0 0 101 0 0 146 0 0 479 0 0 862 0 0 789 0 0 852 0 0 906 0 0 865 0 0 995 0 0 893 0 0 930 0 0 962 0 0 975 0 0 859 0 0 865 0 0 916 0 0 949 0 0 885 0 0 949 0 0 946 0 0 962 0 0 943 0 0 856 0 0 932 0 0 999 0 0 926 0 0 981 0 0 959 0 0 902 0 0 938 0 0 1034 0 0 948 0 0 894 0 0 902 0 0 874 0 0 908 0 0 907 0 0 899 0 0 875 0 0 871 0 0 890 0 0 850 0 0 519 0 0 136 0 0 122 0 0 100 0 0 87 0 0 67 0 0 64 0 0 61 0 0 55 0 0 48 0 0 
18 0 0 47 0 0 52 0 0 52 0 0 61 0 0 78 0 0 82 0 0 93 0 0 101 0 0 152 0 0 468 0 0 760 0 0 841 0 0 869 0 0 907 0 0 846 0 0 810 0 0 901 0 0 916 0 0 952 0 0 885 0 0 983 0 0 967 0 0 875 0 0 984 0 0 944 0 0 905 0 0 938 0 0 953 0 0 941 0 0 959 0 0 1003 0 0 1024 0 0 860 0 0 967 0 0 1036 0 0 867 0 0 839 0 0 890 0 0 903 0 0 956 0 0 5313 0 0 889 0 0 934 0 0 885 0 0 951 0 0 877 0 0 867 0 0 895 0 0 814 0 0 465 0 0 139 0 0 110 0 0 105 0 0 79 0 0 82 0 0 53 0 0 59 0 0 52 0 0 46 0 0 
17 0 0 45 0 0 55 0 0 51 0 0 56 0 0 78 0 0 83 0 0 84 0 0 113 0 0 146 0 0 468 0 0 798 0 0 889 0 0 822 0 0 880 0 0 868 0 0 879 0 0 919 0 0 947 0 0 991 0 0 936 0 0 993 0 0 902 0 0 945 0 0 849 0 0 922 0 0 973 0 0 934 0 0 965 0 0 934 0 0 988 0 0 923 0 0 941 0 0 984 0 0 929 0 0 904 0 0 1041 0 0 920 0 0 900 0 0 919 0 0 890 0 0 875 0 0 990 0 0 949 0 0 836 0 0 924 0 0 906 0 0 863 0 0 828 0 0 783 0 0 494 0 0 119 0 0 127 0 0 86 0 0 86 0 0 77 0 0 69 0 0 62 0 0 50 0 0 43 0 0 
21 0 0 41 0 0 53 0 0 48 0 0 71 0 0 72 0 0 93 0 0 107 0 0 114 0 0 140 0 0 495 0 0 900 0 0 839 0 0 871 0 0 838 0 0 891 0 0 860 0 0 877 0 0 949 0 0 926 0 0 929 0 0 959 0 0 929 0 0 961 0 0 877 0 0 893 0 0 900 0 0 944 0 0 938 0 0 969 0 0 944 0 0 917 0 0 915 0 0 1220 0 0 948 0 0 942 0 0 876 0 0 927 0 0 989 0 0 889 0 0 978 0 0 924 0 0 923 0 0 906 0 0 946 0 0 856 0 0 951 0 0 968 0 0 874 0 0 897 0 0 440 0 0 128 0 0 106 0 0 92 0 0 83 0 0 73 0 0 70 0 0 54 0 0 44 0 0 43 0 0 
27 0 0 48 0 0 51 0 0 55 0 0 58 0 0 72 0 0 82 0 0 84 0 0 115 0 0 126 0 0 447 0 0 837 0 0 872 0 0 887 0 0 832 0 0 852 0 0 914 0 0 947 0 0 897 0 0 1027 0 0 920 0 0 969 0 0 791 0 0 965 0 0 951 0 0 923 0 0 902 0 0 969 0 0 943 0 0 898 0 0 913 0 0 1015 0 0 946 0 0 950 0 0 918 0 0 911 0 0 918 0 0 910 0 0 972 0 0 925 0 0 904 0 0 913 0 0 886 0 0 1127 0 0 909 0 0 822 0 0 1007 0 0 820 0 0 851 0 0 858 0 0 554 0 0 150 0 0 134 0 0 100 0 0 93 0 0 75 0 0 72 0 0 54 0 0 55 0 0 47 0 0 
17 0 0 46 0 0 51 0 0 57 0 0 75 0 0 78 0 0 93 0 0 102 0 0 100 0 0 135 0 0 510 0 0 798 0 0 843 0 0 882 0 0 871 0 0 872 0 0 893 0 0 919 0 0 940 0 0 916 0 0 874 0 0 844 0 0 931 0 0 858 0 0 882 0 0 972 0 0 945 0 0 1020 0 0 969 0 0 843 0 0 881 0 0 976 0 0 966 0 0 972 0 0 933 0 0 1047 0 0 952 0 0 927 0 0 1154 0 0 960 0 0 944 0 0 894 0 0 878 0 0 903 0 0 891 0 0 876 0 0 875 0 0 874 0 0 870 0 0 820 0 0 418 0 0 125 0 0 105 0 0 94 0 0 70 0 0 68 0 0 64 0 0 63 0 0 55 0 0 46 0 0 
24 0 0 52 0 0 50 0 0 58 0 0 64 0 0 74 0 0 80 0 0 83 0 0 115 0 0 142 0 0 519 0 0 777 0 0 892 0 0 892 0 0 848 0 0 974 0 0 930 0 0 880 0 0 901 0 0 861 0 0 910 0 0 906 0 0 972 0 0 952 0 0 973 0 0 909 0 0 860 0 0 949 0 0 1149 0 0 969 0 0 928 0 0 1035 0 0 946 0 0 940 0 0 890 0 0 1377 0 0 897 0 0 933 0 0 928 0 0 935 0 0 919 0 0 1062 0 0 960 0 0 848 0 0 860 0 0 871 0 0 984 0 0 891 0 0 886 0 0 812 0 0 473 0 0 126 0 0 108 0 0 92 0 0 82 0 0 71 0 0 64 0 0 55 0 0 50 0 0 42 0 0 
21 0 0 40 0 0 52 0 0 56 0 0 62 0 0 63 0 0 90 0 0 100 0 0 95 0 0 116 0 0 483 0 0 835 0 0 791 0 0 858 0 0 847 0 0 892 0 0 859 0 0 909 0 0 941 0 0 963 0 0 896 0 0 986 0 0 931 0 0 912 0 0 966 0 0 919 0 0 934 0 0 1005 0 0 962 0 0 967 0 0 907 0 0 964 0 0 923 0 0 869 0 0 948 0 0 983 0 0 961 0 0 889 0 0 960 0 0 881 0 0 946 0 0 914 0 0 869 0 0 889 0 0 898 0 0 876 0 0 885 0 0 842 0 0 924 0 0 806 0 0 421 0 0 134 0 0 102 0 0 98 0 0 93 0 0 77 0 0 62 0 0 63 0 0 52 0 0 40 0 0 
22 0 0 41 0 0 48 0 0 49 0 0 61 0 0 74 0 0 85 0 0 81 0 0 109 0 0 120 0 0 478 0 0 859 0 0 876 0 0 829 0 0 929 0 0 847 0 0 884 0 0 935 0 0 811 0 0 910 0 0 883 0 0 921 0 0 975 0 0 850 0 0 910 0 0 897 0 0 962 0 0 923 0 0 916 0 0 888 0 0 957 0 0 882 0 0 927 0 0 953 0 0 913 0 0 849 0 0 880 0 0 958 0 0 978 0 0 921 0 0 991 0 0 839 0 0 1247 0 0 904 0 0 1070 0 0 960 0 0 855 0 0 887 0 0 878 0 0 822 0 0 485 0 0 140 0 0 125 0 0 90 0 0 85 0 0 68 0 0 58 0 0 63 0 0 49 0 0 45 0 0 
19 0 0 41 0 0 49 0 0 51 0 0 60 0 0 71 0 0 83 0 0 83 0 0 101 0 0 122 0 0 509 0 0 793 0 0 853 0 0 834 0 0 855 0 0 901 0 0 864 0 0 928 0 0 851 0 0 919 0 0 913 0 0 844 0 0 894 0 0 854 0 0 899 0 0 1102 0 0 953 0 0 898 0 0 996 0 0 856 0 0 910 0 0 944 0 0 957 0 0 913 0 0 894 0 0 877 0 0 969 0 0 914 0 0 894 0 0 868 0 0 916 0 0 904 0 0 984 0 0 936 0 0 951 0 0 857 0 0 830 0 0 882 0 0 754 0 0 873 0 0 528 0 0 128 0 0 105 0 0 83 0 0 77 0 0 73 0 0 53 0 0 49 0 0 51 0 0 40 0 0 
20 0 0 47 0 0 42 0 0 50 0 0 62 0 0 63 0 0 83 0 0 86 0 0 108 0 0 136 0 0 435 0 0 882 0 0 765 0 0 897 0 0 887 0 0 913 0 0 880 0 0 884 0 0 942 0 0 864 0 0 923 0 0 872 0 0 996 0 0 1010 0 0 859 0 0 880 0 0 891 0 0 917 0 0 940 0 0 951 0 0 885 0 0 975 0 0 888 0 0 914 0 0 938 0 0 878 0 0 969 0 0 933 0 0 903 0 0 879 0 0 900 0 0 917 0 0 993 0 0 894 0 0 892 0 0 864 0 0 877 0 0 856 0 0 795 0 0 838 0 0 482 0 0 117 0 0 102 0 0 85 0 0 91 0 0 70 0 0 55 0 0 48 0 0 45 0 0 49 0 0 
18 0 0 39 0 0 44 0 0 51 0 0 54 0 0 67 0 0 76 0 0 93 0 0 109 0 0 124 0 0 527 0 0 927 0 0 811 0 0 897 0 0 851 0 0 848 0 0 881 0 0 898 0 0 966 0 0 918 0 0 861 0 0 1005 0 0 861 0 0 917 0 0 937 0 0 972 0 0 899 0 0 936 0 0 827 0 0 879 0 0 908 0 0 824 0 0 910 0 0 944 0 0 872 0 0 913 0 0 982 0 0 918 0 0 902 0 0 921 0 0 891 0 0 965 0 0 931 0 0 845 0 0 981 0 0 812 0 0 839 0 0 756 0 0 742 0 0 867 0 0 476 0 0 114 0 0 95 0 0 73 0 0 79 0 0 56 0 0 70 0 0 53 0 0 51 0 0 41 0 0 
14 0 0 41 0 0 41 0 0 57 0 0 61 0 0 67 0 0 74 0 0 84 0 0 108 0 0 120 0 0 459 0 0 801 0 0 801 0 0 828 0 0 916 0 0 864 0 0 925 0 0 910 0 0 856 0 0 927 0 0 918 0 0 946 0 0 889 0 0 941 0 0 950 0 0 889 0 0 869 0 0 879 0 0 824 0 0 913 0 0 898 0 0 970 0 0 904 0 0 865 0 0 867 0 0 870 0 0 924 0 0 912 0 0 839 0 0 887 0 0 806 0 0 921 0 0 860 0 0 921 0 0 901 0 0 868 0 0 778 0 0 831 0 0 821 0 0 837 0 0 451 0 0 114 0 0 107 0 0 78 0 0 82 0 0 65 0 0 67 0 0 51 0 0 48 0 0 48 0 0 
15 0 0 37 0 0 45 0 0 45 0 0 51 0 0 58 0 0 62 0 0 72 0 0 112 0 0 111 0 0 487 0 0 793 0 0 836 0 0 889 0 0 867 0 0 886 0 0 944 0 0 850 0 0 896 0 0 932 0 0 889 0 0 1009 0 0 861 0 0 913 0 0 862 0 0 846 0 0 935 0 0 900 0 0 936 0 0 891 0 0 838 0 0 1013 0 0 877 0 0 951 0 0 936 0 0 849 0 0 949 0 0 964 0 0 947 0 0 829 0 0 900 0 0 923 0 0 916 0 0 864 0 0 836 0 0 905 0 0 887 0 0 844 0 0 972 0 0 785 0 0 471 0 0 115 0 0 94 0 0 81 0 0 71 0 0 65 0 0 55 0 0 49 0 0 44 0 0 33 0 0 
15 0 0 30 0 0 50 0 0 48 0 0 57 0 0 64 0 0 75 0 0 75 0 0 93 0 0 108 0 0 457 0 0 909 0 0 791 0 0 877 0 0 829 0 0 794 0 0 975 0 0 858 0 0 906 0 0 911 0 0 819 0 0 831 0 0 843 0 0 932 0 0 908 0 0 832 0 0 854 0 0 907 0 0 915 0 0 959 0 0 803 0 0 880 0 0 943 0 0 840 0 0 917 0 0 900 0 0 910 0 0 902 0 0 878 0 0 941 0 0 814 0 0 874 0 0 844 0 0 847 0 0 1162 0 0 900 0 0 852 0 0 817 0 0 761 0 0 727 0 0 483 0 0 125 0 0 106 0 0 87 0 0 77 0 0 68 0 0 57 0 0 46 0 0 43 0 0 41 0 0 
17 0 0 37 0 0 34 0 0 39 0 0 48 0 0 58 0 0 66 0 0 75 0 0 86 0 0 113 0 0 419 0 0 769 0 0 761 0 0 786 0 0 828 0 0 753 0 0 879 0 0 908 0 0 818 0 0 822 0 0 874 0 0 853 0 0 953 0 0 909 0 0 903 0 0 875 0 0 839 0 0 889 0 0 893 0 0 890 0 0 812 0 0 908 0 0 955 0 0 856 0 0 927 0 0 918 0 0 870 0 0 931 0 0 919 0 0 869 0 0 894 0 0 903 0 0 806 0 0 841 0 0 892 0 0 822 0 0 796 0 0 827 0 0 789 0 0 798 0 0 418 0 0 121 0 0 93 0 0 73 0 0 69 0 0 63 0 0 56 0 0 48 0 0 46 0 0 36 0 0 
15 0 0 27 0 0 41 0 0 44 0 0 50 0 0 58 0 0 62 0 0 72 0 0 86 0 0 110 0 0 475 0 0 767 0 0 772 0 0 839 0 0 838 0 0 883 0 0 843 0 0 900 0 0 860 0 0 1127 0 0 850 0 0 799 0 0 939 0 0 848 0 0 790 0 0 890 0 0 861 0 0 913 0 0 930 0 0 939 0 0 910 0 0 830 0 0 874 0 0 897 0 0 792 0 0 866 0 0 879 0 0 866 0 0 2530 0 0 878 0 0 839 0 0 843 0 0 835 0 0 824 0 0 912 0 0 983 0 0 855 0 0 812 0 0 778 0 0 747 0 0 417 0 0 113 0 0 76 0 0 71 0 0 72 0 0 55 0 0 50 0 0 47 0 0 46 0 0 37 0 0 
11 0 0 31 0 0 42 0 0 44 0 0 43 0 0 50 0 0 53 0 0 68 0 0 82 0 0 96 0 0 434 0 0 683 0 0 893 0 0 836 0 0 827 0 0 753 0 0 812 0 0 790 0 0 853 0 0 889 0 0 838 0 0 798 0 0 824 0 0 913 0 0 855 0 0 905 0 0 846 0 0 801 0 0 894 0 0 830 0 0 918 0 0 867 0 0 802 0 0 867 0 0 833 0 0 876 0 0 830 0 0 989 0 0 817 0 0 885 0 0 871 0 0 819 0 0 879 0 0 882 0 0 831 0 0 905 0 0 824 0 0 856 0 0 791 0 0 792 0 0 418 0 0 98 0 0 87 0 0 81 0 0 71 0 0 50 0 0 47 0 0 40 0 0 36 0 0 35 0 0 
13 0 0 33 0 0 30 0 0 38 0 0 45 0 0 47 0 0 60 0 0 63 0 0 64 0 0 99 0 0 390 0 0 745 0 0 798 0 0 847 0 0 842 0 0 849 0 0 912 0 0 794 0 0 821 0 0 903 0 0 872 0 0 808 0 0 866 0 0 816 0 0 782 0 0 896 0 0 774 0 0 808 0 0 893 0 0 848 0 0 851 0 0 833 0 0 974 0 0 827 0 0 884 0 0 836 0 0 786 0 0 849 0 0 866 0 0 856 0 0 896 0 0 799 0 0 860 0 0 945 0 0 794 0 0 790 0 0 894 0 0 812 0 0 810 0 0 769 0 0 466 0 0 92 0 0 82 0 0 67 0 0 54 0 0 58 0 0 35 0 0 40 0 0 32 0 0 30 0 0 
9 0 0 28 0 0 39 0 0 32 0 0 41 0 0 53 0 0 57 0 0 60 0 0 67 0 0 71 0 0 420 0 0 743 0 0 819 0 0 819 0 0 711 0 0 736 0 0 842 0 0 785 0 0 805 0 0 802 0 0 770 0 0 782 0 0 837 0 0 791 0 0 873 0 0 833 0 0 804 0 0 835 0 0 866 0 0 896 0 0 780 0 0 873 0 0 754 0 0 879 0 0 738 0 0 786 0 0 866 0 0 791 0 0 889 0 0 796 0 0 854 0 0 830 0 0 812 0 0 825 0 0 1018 0 0 796 0 0 828 0 0 791 0 0 758 0 0 804 0 0 450 0 0 87 0 0 64 0 0 64 0 0 56 0 0 48 0 0 38 0 0 34 0 0 32 0 0 30 0 0 
11 0 0 32 0 0 27 0 0 34 0 0 34 0 0 49 0 0 56 0 0 59 0 0 67 0 0 70 0 0 238 0 0 423 0 0 461 0 0 460 0 0 452 0 0 448 0 0 439 0 0 421 0 0 518 0 0 431 0 0 480 0 0 454 0 0 491 0 0 452 0 0 436 0 0 427 0 0 462 0 0 497 0 0 514 0 0 512 0 0 516 0 0 437 0 0 520 0 0 485 0 0 484 0 0 487 0 0 486 0 0 453 0 0 479 0 0 504 0 0 447 0 0 458 0 0 442 0 0 437 0 0 427 0 0 507 0 0 457 0 0 412 0 0 433 0 0 438 0 0 228 0 0 72 0 0 70 0 0 65 0 0 54 0 0 39 0 0 40 0 0 27 0 0 30 0 0 26 0 0 
12 0 0 23 0 0 27 0 0 29 0 0 31 0 0 39 0 0 50 0 0 48 0 0 53 0 0 71 0 0 67 0 0 77 0 0 89 0 0 93 0 0 98 0 0 109 0 0 97 0 0 107 0 0 115 0 0 127 0 0 119 0 0 119 0 0 135 0 0 129 0 0 138 0 0 128 0 0 122 0 0 145 0 0 128 0 0 144 0 0 118 0 0 113 0 0 132 0 0 144 0 0 140 0 0 124 0 0 118 0 0 120 0 0 123 0 0 136 0 0 127 0 0 126 0 0 122 0 0 115 0 0 106 0 0 116 0 0 93 0 0 95 0 0 86 0 0 72 0 0 74 0 0 57 0 0 80 0 0 51 0 0 51 0 0 43 0 0 43 0 0 35 0 0 26 0 0 28 0 0 
14 0 0 25 0 0 32 0 0 33 0 0 30 0 0 44 0 0 50 0 0 43 0 0 60 0 0 74 0 0 70 0 0 72 0 0 76 0 0 82 0 0 95 0 0 95 0 0 113 0 0 102 0 0 99 0 0 103 0 0 106 0 0 107 0 0 129 0 0 118 0 0 118 0 0 131 0 0 111 0 0 104 0 0 109 0 0 103 0 0 112 0 0 115 0 0 128 0 0 112 0 0 134 0 0 112 0 0 122 0 0 118 0 0 110 0 0 97 0 0 117 0 0 100 0 0 119 0 0 91 0 0 93 0 0 83 0 0 81 0 0 78 0 0 76 0 0 70 0 0 60 0 0 55 0 0 44 0 0 51 0 0 38 0 0 42 0 0 33 0 0 30 0 0 24 0 0 25 0 0 
13 0 0 25 0 0 21 0 0 23 0 0 29 0 0 42 0 0 41 0 0 39 0 0 52 0 0 55 0 0 54 0 0 55 0 0 64 0 0 72 0 0 65 0 0 69 0 0 79 0 0 87 0 0 85 0 0 98 0 0 80 0 0 95 0 0 97 0 0 86 0 0 92 0 0 90 0 0 92 0 0 91 0 0 91 0 0 96 0 0 88 0 0 101 0 0 102 0 0 97 0 0 94 0 0 101 0 0 91 0 0 96 0 0 89 0 0 92 0 0 91 0 0 87 0 0 90 0 0 62 0 0 83 0 0 80 0 0 70 0 0 62 0 0 58 0 0 55 0 0 53 0 0 52 0 0 41 0 0 47 0 0 33 0 0 29 0 0 34 0 0 30 0 0 26 0 0 23 0 0 
9 0 0 20 0 0 25 0 0 23 0 0 29 0 0 35 0 0 37 0 0 39 0 0 38 0 0 53 0 0 55 0 0 46 0 0 60 0 0 64 0 0 68 0 0 66 0 0 72 0 0 82 0 0 82 0 0 75 0 0 72 0 0 74 0 0 84 0 0 88 0 0 76 0 0 87 0 0 92 0 0 79 0 0 74 0 0 108 0 0 84 0 0 88 0 0 80 0 0 83 0 0 88 0 0 95 0 0 83 0 0 71 0 0 84 0 0 86 0 0 70 0 0 71 0 0 80 0 0 60 0 0 77 0 0 58 0 0 67 0 0 61 0 0 60 0 0 58 0 0 46 0 0 44 0 0 49 0 0 38 0 0 35 0 0 28 0 0 32 0 0 28 0 0 25 0 0 23 0 0 
8 0 0 16 0 0 25 0 0 19 0 0 27 0 0 30 0 0 32 0 0 45 0 0 36 0 0 46 0 0 45 0 0 47 0 0 50 0 0 56 0 0 56 0 0 63 0 0 60 0 0 72 0 0 75 0 0 67 0 0 70 0 0 70 0 0 73 0 0 74 0 0 75 0 0 77 0 0 79 0 0 64 0 0 70 0 0 70 0 0 75 0 0 78 0 0 76 0 0 65 0 0 76 0 0 70 0 0 77 0 0 67 0 0 70 0 0 71 0 0 67 0 0 62 0 0 58 0 0 62 0 0 68 0 0 61 0 0 54 0 0 46 0 0 51 0 0 50 0 0 55 0 0 48 0 0 38 0 0 32 0 0 29 0 0 28 0 0 21 0 0 21 0 0 28 0 0 20 0 0 
11 0 0 22 0 0 21 0 0 23 0 0 26 0 0 34 0 0 34 0 0 31 0 0 36 0 0 34 0 0 42 0 0 42 0 0 44 0 0 50 0 0 50 0 0 67 0 0 60 0 0 56 0 0 62 0 0 65 0 0 55 0 0 61 0 0 60 0 0 70 0 0 61 0 0 59 0 0 72 0 0 61 0 0 68 0 0 59 0 0 58 0 0 58 0 0 61 0 0 58 0 0 68 0 0 55 0 0 67 0 0 60 0 0 58 0 0 57 0 0 64 0 0 45 0 0 57 0 0 60 0 0 56 0 0 50 0 0 65 0 0 46 0 0 43 0 0 48 0 0 43 0 0 42 0 0 37 0 0 32 0 0 25 0 0 27 0 0 26 0 0 21 0 0 21 0 0 16 0 0 
8 0 0 24 0 0 19 0 0 24 0 0 26 0 0 27 0 0 23 0 0 27 0 0 27 0 0 28 0 0 33 0 0 36 0 0 37 0 0 48 0 0 41 0 0 40 0 0 54 0 0 52 0 0 51 0 0 55 0 0 59 0 0 59 0 0 65 0 0 50 0 0 64 0 0 66 0 0 57 0 0 70 0 0 53 0 0 59 0 0 57 0 0 54 0 0 58 0 0 54 0 0 54 0 0 53 0 0 50 0 0 55 0 0 50 0 0 57 0 0 54 0 0 47 0 0 38 0 0 54 0 0 47 0 0 48 0 0 44 0 0 37 0 0 39 0 0 32 0 0 34 0 0 34 0 0 28 0 0 30 0 0 26 0 0 28 0 0 26 0 0 18 0 0 23 0 0 16 0 0 
6 0 0 13 0 0 22 0 0 16 0 0 19 0 0 19 0 0 31 0 0 27 0 0 33 0 0 31 0 0 29 0 0 31 0 0 34 0 0 42 0 0 37 0 0 37 0 0 38 0 0 57 0 0 39 0 0 51 0 0 36 0 0 46 0 0 46 0 0 48 0 0 52 0 0 58 0 0 58 0 0 61 0 0 57 0 0 52 0 0 49 0 0 55 0 0 56 0 0 58 0 0 49 0 0 48 0 0 52 0 0 50 0 0 46 0 0 42 0 0 50 0 0 44 0 0 42 0 0 39 0 0 41 0 0 32 0 0 45 0 0 39 0 0 28 0 0 31 0 0 32 0 0 31 0 0 28 0 0 31 0 0 24 0 0 23 0 0 21 0 0 18 0 0 23 0 0 14 0 0 
5 0 0 18 0 0 12 0 0 17 0 0 19 0 0 22 0 0 24 0 0 17 0 0 28 0 0 22 0 0 29 0 0 32 0 0 29 0 0 27 0 0 31 0 0 39 0 0 36 0 0 35 0 0 43 0 0 45 0 0 47 0 0 37 0 0 45 0 0 47 0 0 44 0 0 52 0 0 43 0 0 49 0 0 49 0 0 39 0 0 41 0 0 49 0 0 42 0 0 42 0 0 47 0 0 40 0 0 42 0 0 42 0 0 45 0 0 44 0 0 43 0 0 41 0 0 37 0 0 41 0 0 37 0 0 40 0 0 36 0 0 27 0 0 30 0 0 26 0 0 29 0 0 28 0 0 29 0 0 21 0 0 22 0 0 19 0 0 20 0 0 21 0 0 18 0 0 13 0 0 
