P3
# This is a dose file slice at depth 13 of 100
60 60
# now we give the maximum value of the RGB coordinates.
1932
4 0 0 16 0 0 10 0 0 18 0 0 15 0 0 11 0 0 23 0 0 14 0 0 19 0 0 24 0 0 26 0 0 27 0 0 32 0 0 19 0 0 23 0 0 28 0 0 26 0 0 25 0 0 25 0 0 24 0 0 37 0 0 30 0 0 26 0 0 30 0 0 42 0 0 33 0 0 43 0 0 34 0 0 38 0 0 36 0 0 26 0 0 38 0 0 36 0 0 39 0 0 33 0 0 31 0 0 35 0 0 34 0 0 35 0 0 26 0 0 30 0 0 30 0 0 32 0 0 29 0 0 19 0 0 25 0 0 30 0 0 23 0 0 25 0 0 28 0 0 24 0 0 23 0 0 15 0 0 24 0 0 19 0 0 14 0 0 12 0 0 22 0 0 16 0 0 15 0 0 
12 0 0 24 0 0 33 0 0 28 0 0 27 0 0 42 0 0 38 0 0 48 0 0 39 0 0 41 0 0 49 0 0 44 0 0 53 0 0 45 0 0 50 0 0 48 0 0 49 0 0 64 0 0 59 0 0 80 0 0 73 0 0 73 0 0 65 0 0 78 0 0 77 0 0 87 0 0 79 0 0 88 0 0 81 0 0 67 0 0 76 0 0 86 0 0 84 0 0 74 0 0 78 0 0 70 0 0 78 0 0 77 0 0 74 0 0 79 0 0 74 0 0 72 0 0 80 0 0 72 0 0 57 0 0 52 0 0 65 0 0 44 0 0 52 0 0 52 0 0 50 0 0 43 0 0 38 0 0 46 0 0 39 0 0 35 0 0 25 0 0 29 0 0 32 0 0 19 0 0 
15 0 0 35 0 0 26 0 0 40 0 0 35 0 0 55 0 0 38 0 0 37 0 0 40 0 0 46 0 0 57 0 0 48 0 0 58 0 0 63 0 0 60 0 0 72 0 0 72 0 0 68 0 0 67 0 0 76 0 0 65 0 0 94 0 0 69 0 0 65 0 0 87 0 0 75 0 0 86 0 0 77 0 0 76 0 0 95 0 0 74 0 0 71 0 0 83 0 0 85 0 0 87 0 0 78 0 0 92 0 0 88 0 0 62 0 0 76 0 0 75 0 0 62 0 0 74 0 0 70 0 0 70 0 0 90 0 0 45 0 0 51 0 0 66 0 0 39 0 0 45 0 0 59 0 0 38 0 0 41 0 0 37 0 0 26 0 0 36 0 0 33 0 0 30 0 0 37 0 0 
17 0 0 39 0 0 32 0 0 39 0 0 43 0 0 31 0 0 50 0 0 51 0 0 60 0 0 62 0 0 59 0 0 56 0 0 60 0 0 55 0 0 86 0 0 65 0 0 74 0 0 77 0 0 78 0 0 99 0 0 72 0 0 89 0 0 88 0 0 99 0 0 88 0 0 101 0 0 100 0 0 102 0 0 95 0 0 97 0 0 96 0 0 102 0 0 81 0 0 96 0 0 110 0 0 105 0 0 104 0 0 96 0 0 86 0 0 94 0 0 84 0 0 105 0 0 77 0 0 69 0 0 70 0 0 84 0 0 80 0 0 81 0 0 59 0 0 61 0 0 60 0 0 49 0 0 44 0 0 41 0 0 37 0 0 54 0 0 39 0 0 36 0 0 34 0 0 32 0 0 
15 0 0 42 0 0 39 0 0 32 0 0 42 0 0 51 0 0 50 0 0 50 0 0 63 0 0 68 0 0 65 0 0 78 0 0 67 0 0 73 0 0 81 0 0 87 0 0 82 0 0 100 0 0 99 0 0 105 0 0 112 0 0 99 0 0 107 0 0 108 0 0 103 0 0 93 0 0 101 0 0 118 0 0 108 0 0 95 0 0 91 0 0 117 0 0 110 0 0 113 0 0 105 0 0 126 0 0 101 0 0 120 0 0 109 0 0 100 0 0 101 0 0 83 0 0 108 0 0 90 0 0 80 0 0 74 0 0 84 0 0 77 0 0 79 0 0 53 0 0 71 0 0 74 0 0 59 0 0 53 0 0 51 0 0 53 0 0 47 0 0 29 0 0 30 0 0 31 0 0 
13 0 0 29 0 0 35 0 0 48 0 0 44 0 0 49 0 0 58 0 0 69 0 0 71 0 0 75 0 0 69 0 0 78 0 0 85 0 0 81 0 0 107 0 0 100 0 0 92 0 0 102 0 0 98 0 0 111 0 0 125 0 0 134 0 0 127 0 0 124 0 0 121 0 0 131 0 0 121 0 0 114 0 0 121 0 0 112 0 0 131 0 0 112 0 0 112 0 0 127 0 0 121 0 0 117 0 0 139 0 0 117 0 0 110 0 0 133 0 0 116 0 0 107 0 0 105 0 0 120 0 0 123 0 0 84 0 0 88 0 0 120 0 0 89 0 0 97 0 0 62 0 0 72 0 0 51 0 0 59 0 0 54 0 0 46 0 0 42 0 0 39 0 0 42 0 0 34 0 0 
10 0 0 47 0 0 36 0 0 40 0 0 56 0 0 52 0 0 52 0 0 77 0 0 71 0 0 66 0 0 77 0 0 99 0 0 98 0 0 112 0 0 98 0 0 107 0 0 131 0 0 109 0 0 126 0 0 142 0 0 127 0 0 137 0 0 134 0 0 125 0 0 135 0 0 138 0 0 129 0 0 150 0 0 128 0 0 163 0 0 149 0 0 131 0 0 147 0 0 155 0 0 130 0 0 139 0 0 147 0 0 121 0 0 140 0 0 122 0 0 122 0 0 130 0 0 102 0 0 108 0 0 125 0 0 115 0 0 110 0 0 96 0 0 122 0 0 82 0 0 86 0 0 65 0 0 60 0 0 57 0 0 50 0 0 62 0 0 36 0 0 39 0 0 39 0 0 36 0 0 
17 0 0 32 0 0 52 0 0 48 0 0 49 0 0 49 0 0 57 0 0 82 0 0 68 0 0 90 0 0 87 0 0 97 0 0 110 0 0 131 0 0 132 0 0 131 0 0 147 0 0 158 0 0 172 0 0 140 0 0 157 0 0 167 0 0 159 0 0 156 0 0 137 0 0 153 0 0 153 0 0 168 0 0 173 0 0 181 0 0 179 0 0 173 0 0 180 0 0 174 0 0 166 0 0 167 0 0 169 0 0 138 0 0 185 0 0 140 0 0 152 0 0 170 0 0 166 0 0 167 0 0 133 0 0 141 0 0 107 0 0 116 0 0 128 0 0 100 0 0 107 0 0 99 0 0 87 0 0 87 0 0 63 0 0 58 0 0 45 0 0 51 0 0 38 0 0 49 0 0 
30 0 0 45 0 0 53 0 0 44 0 0 69 0 0 72 0 0 83 0 0 95 0 0 88 0 0 100 0 0 99 0 0 123 0 0 126 0 0 125 0 0 162 0 0 147 0 0 180 0 0 156 0 0 192 0 0 183 0 0 186 0 0 178 0 0 205 0 0 189 0 0 199 0 0 158 0 0 193 0 0 196 0 0 210 0 0 192 0 0 198 0 0 216 0 0 217 0 0 182 0 0 199 0 0 215 0 0 204 0 0 201 0 0 207 0 0 192 0 0 197 0 0 203 0 0 168 0 0 161 0 0 172 0 0 149 0 0 151 0 0 148 0 0 160 0 0 131 0 0 113 0 0 75 0 0 84 0 0 87 0 0 75 0 0 69 0 0 48 0 0 58 0 0 49 0 0 36 0 0 
17 0 0 42 0 0 41 0 0 51 0 0 67 0 0 64 0 0 83 0 0 90 0 0 102 0 0 111 0 0 137 0 0 163 0 0 158 0 0 196 0 0 210 0 0 207 0 0 207 0 0 221 0 0 223 0 0 208 0 0 229 0 0 245 0 0 251 0 0 240 0 0 229 0 0 228 0 0 243 0 0 224 0 0 249 0 0 259 0 0 226 0 0 240 0 0 275 0 0 218 0 0 245 0 0 239 0 0 226 0 0 255 0 0 240 0 0 230 0 0 254 0 0 234 0 0 231 0 0 198 0 0 234 0 0 218 0 0 195 0 0 175 0 0 166 0 0 145 0 0 129 0 0 109 0 0 83 0 0 91 0 0 88 0 0 72 0 0 50 0 0 55 0 0 32 0 0 41 0 0 
24 0 0 57 0 0 47 0 0 58 0 0 62 0 0 77 0 0 93 0 0 83 0 0 103 0 0 149 0 0 422 0 0 757 0 0 797 0 0 725 0 0 840 0 0 765 0 0 810 0 0 858 0 0 820 0 0 868 0 0 814 0 0 834 0 0 840 0 0 837 0 0 806 0 0 834 0 0 851 0 0 904 0 0 866 0 0 870 0 0 816 0 0 868 0 0 910 0 0 885 0 0 874 0 0 861 0 0 831 0 0 855 0 0 827 0 0 796 0 0 817 0 0 862 0 0 825 0 0 796 0 0 774 0 0 804 0 0 829 0 0 762 0 0 779 0 0 718 0 0 431 0 0 152 0 0 130 0 0 104 0 0 81 0 0 75 0 0 70 0 0 52 0 0 42 0 0 35 0 0 
21 0 0 54 0 0 61 0 0 68 0 0 68 0 0 75 0 0 94 0 0 91 0 0 132 0 0 153 0 0 745 0 0 1333 0 0 1406 0 0 1297 0 0 1363 0 0 1407 0 0 1431 0 0 1449 0 0 1439 0 0 1409 0 0 1507 0 0 1446 0 0 1437 0 0 1443 0 0 1459 0 0 1426 0 0 1392 0 0 1480 0 0 1471 0 0 1451 0 0 1370 0 0 1509 0 0 1470 0 0 1429 0 0 1393 0 0 1423 0 0 1463 0 0 1366 0 0 1412 0 0 1392 0 0 1423 0 0 1444 0 0 1414 0 0 1470 0 0 1433 0 0 1400 0 0 1444 0 0 1380 0 0 1277 0 0 1405 0 0 721 0 0 148 0 0 133 0 0 104 0 0 90 0 0 83 0 0 68 0 0 64 0 0 61 0 0 68 0 0 
23 0 0 55 0 0 53 0 0 68 0 0 70 0 0 86 0 0 99 0 0 94 0 0 131 0 0 178 0 0 809 0 0 1390 0 0 1395 0 0 1419 0 0 1450 0 0 1403 0 0 1563 0 0 1419 0 0 1490 0 0 1511 0 0 1492 0 0 1468 0 0 1507 0 0 1515 0 0 1532 0 0 1423 0 0 1487 0 0 1506 0 0 1507 0 0 1519 0 0 1507 0 0 1463 0 0 1541 0 0 1544 0 0 1458 0 0 1437 0 0 1556 0 0 1525 0 0 1456 0 0 1471 0 0 1530 0 0 1427 0 0 1451 0 0 1467 0 0 1410 0 0 1399 0 0 1366 0 0 1445 0 0 1372 0 0 1359 0 0 770 0 0 159 0 0 123 0 0 105 0 0 88 0 0 90 0 0 58 0 0 65 0 0 65 0 0 72 0 0 
21 0 0 59 0 0 74 0 0 67 0 0 84 0 0 82 0 0 116 0 0 121 0 0 140 0 0 183 0 0 855 0 0 1369 0 0 1491 0 0 1510 0 0 1431 0 0 1540 0 0 1463 0 0 1469 0 0 1558 0 0 1529 0 0 1496 0 0 1430 0 0 1564 0 0 1501 0 0 1500 0 0 1546 0 0 1450 0 0 1565 0 0 1517 0 0 1556 0 0 1531 0 0 1508 0 0 1498 0 0 1462 0 0 1444 0 0 1496 0 0 1501 0 0 1528 0 0 1562 0 0 1513 0 0 1498 0 0 1486 0 0 1486 0 0 1472 0 0 1475 0 0 1369 0 0 1388 0 0 1401 0 0 1431 0 0 1404 0 0 810 0 0 174 0 0 136 0 0 118 0 0 104 0 0 95 0 0 68 0 0 72 0 0 63 0 0 61 0 0 
18 0 0 55 0 0 64 0 0 74 0 0 76 0 0 106 0 0 109 0 0 131 0 0 164 0 0 209 0 0 785 0 0 1381 0 0 1406 0 0 1463 0 0 1476 0 0 1443 0 0 1484 0 0 1513 0 0 1506 0 0 1507 0 0 1618 0 0 1555 0 0 1541 0 0 1568 0 0 1533 0 0 1608 0 0 1590 0 0 1586 0 0 1560 0 0 1552 0 0 1537 0 0 1504 0 0 1495 0 0 1535 0 0 1586 0 0 1600 0 0 1582 0 0 1535 0 0 1604 0 0 1494 0 0 1562 0 0 1536 0 0 1511 0 0 1491 0 0 1482 0 0 1479 0 0 1565 0 0 1472 0 0 1465 0 0 1422 0 0 823 0 0 186 0 0 153 0 0 158 0 0 114 0 0 103 0 0 80 0 0 70 0 0 54 0 0 46 0 0 
29 0 0 52 0 0 61 0 0 77 0 0 105 0 0 110 0 0 112 0 0 122 0 0 159 0 0 195 0 0 746 0 0 1435 0 0 1440 0 0 1491 0 0 1501 0 0 1622 0 0 1597 0 0 1503 0 0 1569 0 0 1481 0 0 1560 0 0 1531 0 0 1563 0 0 1604 0 0 1523 0 0 1638 0 0 1564 0 0 1591 0 0 1554 0 0 1627 0 0 1586 0 0 1563 0 0 1600 0 0 1678 0 0 1619 0 0 1588 0 0 1531 0 0 1649 0 0 1631 0 0 1613 0 0 1592 0 0 1571 0 0 1508 0 0 1485 0 0 1527 0 0 1573 0 0 1518 0 0 1519 0 0 1389 0 0 1365 0 0 818 0 0 228 0 0 190 0 0 158 0 0 125 0 0 109 0 0 98 0 0 73 0 0 93 0 0 57 0 0 
29 0 0 64 0 0 77 0 0 76 0 0 98 0 0 89 0 0 111 0 0 146 0 0 185 0 0 184 0 0 803 0 0 1473 0 0 1469 0 0 1446 0 0 1524 0 0 1522 0 0 1508 0 0 1562 0 0 1510 0 0 1584 0 0 1612 0 0 1638 0 0 1574 0 0 1629 0 0 1592 0 0 1523 0 0 1675 0 0 1580 0 0 1549 0 0 1556 0 0 1637 0 0 1583 0 0 1578 0 0 1527 0 0 1599 0 0 1558 0 0 1537 0 0 1549 0 0 1557 0 0 1580 0 0 1635 0 0 1558 0 0 1594 0 0 1553 0 0 1487 0 0 1546 0 0 1591 0 0 1533 0 0 1439 0 0 1437 0 0 844 0 0 230 0 0 166 0 0 129 0 0 136 0 0 96 0 0 101 0 0 93 0 0 71 0 0 49 0 0 
32 0 0 78 0 0 57 0 0 93 0 0 96 0 0 109 0 0 131 0 0 155 0 0 178 0 0 208 0 0 849 0 0 1375 0 0 1436 0 0 1469 0 0 1497 0 0 1538 0 0 1616 0 0 1548 0 0 1511 0 0 1610 0 0 1601 0 0 1608 0 0 1664 0 0 1597 0 0 1654 0 0 1551 0 0 1582 0 0 1626 0 0 1585 0 0 1661 0 0 1654 0 0 1615 0 0 1599 0 0 1522 0 0 1568 0 0 1594 0 0 1586 0 0 1542 0 0 1521 0 0 1645 0 0 1623 0 0 1672 0 0 1587 0 0 1480 0 0 1527 0 0 1559 0 0 1580 0 0 1461 0 0 1422 0 0 1383 0 0 801 0 0 247 0 0 165 0 0 125 0 0 110 0 0 93 0 0 93 0 0 93 0 0 81 0 0 52 0 0 
23 0 0 73 0 0 86 0 0 92 0 0 92 0 0 122 0 0 125 0 0 149 0 0 191 0 0 221 0 0 799 0 0 1449 0 0 1511 0 0 1539 0 0 1580 0 0 1581 0 0 1564 0 0 1607 0 0 1590 0 0 1576 0 0 1584 0 0 1604 0 0 1544 0 0 1554 0 0 1594 0 0 1604 0 0 1580 0 0 1660 0 0 1603 0 0 1604 0 0 1530 0 0 1617 0 0 1590 0 0 1635 0 0 1561 0 0 1594 0 0 1629 0 0 1593 0 0 1607 0 0 1545 0 0 1575 0 0 1604 0 0 1582 0 0 1622 0 0 1523 0 0 1605 0 0 1516 0 0 1563 0 0 1477 0 0 1491 0 0 840 0 0 219 0 0 189 0 0 148 0 0 128 0 0 111 0 0 92 0 0 88 0 0 75 0 0 68 0 0 
33 0 0 71 0 0 80 0 0 87 0 0 110 0 0 102 0 0 133 0 0 163 0 0 178 0 0 239 0 0 839 0 0 1416 0 0 1574 0 0 1594 0 0 1549 0 0 1495 0 0 1534 0 0 1547 0 0 1628 0 0 1634 0 0 1606 0 0 1596 0 0 1572 0 0 1612 0 0 1595 0 0 1534 0 0 1526 0 0 1634 0 0 1639 0 0 1633 0 0 1562 0 0 1588 0 0 1624 0 0 1533 0 0 1633 0 0 1597 0 0 1542 0 0 1597 0 0 1585 0 0 1597 0 0 1596 0 0 1581 0 0 1596 0 0 1555 0 0 1562 0 0 1463 0 0 1537 0 0 1513 0 0 1506 0 0 1447 0 0 767 0 0 214 0 0 182 0 0 155 0 0 124 0 0 105 0 0 86 0 0 78 0 0 85 0 0 64 0 0 
33 0 0 82 0 0 69 0 0 87 0 0 94 0 0 110 0 0 137 0 0 165 0 0 172 0 0 227 0 0 842 0 0 1447 0 0 1479 0 0 1482 0 0 1550 0 0 1580 0 0 1514 0 0 1574 0 0 1567 0 0 1521 0 0 1602 0 0 1552 0 0 1675 0 0 1576 0 0 1612 0 0 1621 0 0 1696 0 0 1590 0 0 1606 0 0 1587 0 0 1627 0 0 1664 0 0 1610 0 0 1614 0 0 1653 0 0 1636 0 0 1692 0 0 1682 0 0 1613 0 0 1640 0 0 1630 0 0 1596 0 0 1603 0 0 1581 0 0 1583 0 0 1562 0 0 1499 0 0 1506 0 0 1484 0 0 1466 0 0 864 0 0 239 0 0 198 0 0 145 0 0 133 0 0 138 0 0 91 0 0 79 0 0 83 0 0 73 0 0 
27 0 0 72 0 0 88 0 0 74 0 0 102 0 0 101 0 0 135 0 0 137 0 0 201 0 0 225 0 0 833 0 0 1353 0 0 1492 0 0 1569 0 0 1504 0 0 1490 0 0 1547 0 0 1687 0 0 1499 0 0 1580 0 0 1585 0 0 1663 0 0 1656 0 0 1706 0 0 1535 0 0 1583 0 0 1651 0 0 1660 0 0 1653 0 0 1627 0 0 1628 0 0 1582 0 0 1618 0 0 1625 0 0 1588 0 0 1568 0 0 1645 0 0 1725 0 0 1646 0 0 1575 0 0 1561 0 0 1620 0 0 1584 0 0 1577 0 0 1585 0 0 1585 0 0 1501 0 0 1471 0 0 1466 0 0 1462 0 0 846 0 0 225 0 0 203 0 0 147 0 0 138 0 0 111 0 0 117 0 0 88 0 0 82 0 0 74 0 0 
41 0 0 65 0 0 79 0 0 96 0 0 110 0 0 122 0 0 116 0 0 170 0 0 199 0 0 241 0 0 843 0 0 1513 0 0 1509 0 0 1520 0 0 1576 0 0 1619 0 0 1653 0 0 1535 0 0 1566 0 0 1658 0 0 1597 0 0 1641 0 0 1643 0 0 1689 0 0 1599 0 0 1619 0 0 1626 0 0 1626 0 0 1627 0 0 1606 0 0 1661 0 0 1616 0 0 1540 0 0 1590 0 0 1664 0 0 1641 0 0 1608 0 0 1655 0 0 1523 0 0 1700 0 0 1622 0 0 1628 0 0 1599 0 0 1572 0 0 1587 0 0 1483 0 0 1552 0 0 1510 0 0 1474 0 0 1448 0 0 835 0 0 206 0 0 196 0 0 148 0 0 140 0 0 124 0 0 103 0 0 88 0 0 69 0 0 59 0 0 
27 0 0 71 0 0 69 0 0 94 0 0 98 0 0 109 0 0 147 0 0 168 0 0 202 0 0 252 0 0 855 0 0 1441 0 0 1451 0 0 1474 0 0 1511 0 0 1570 0 0 1564 0 0 1580 0 0 1618 0 0 1677 0 0 1616 0 0 1657 0 0 1647 0 0 1622 0 0 1670 0 0 1692 0 0 1586 0 0 1622 0 0 1747 0 0 1688 0 0 1598 0 0 1643 0 0 1551 0 0 1688 0 0 1662 0 0 1632 0 0 1678 0 0 1655 0 0 1613 0 0 1574 0 0 1676 0 0 1588 0 0 1541 0 0 1589 0 0 1564 0 0 1475 0 0 1663 0 0 1591 0 0 1476 0 0 1437 0 0 801 0 0 248 0 0 219 0 0 149 0 0 127 0 0 115 0 0 106 0 0 98 0 0 80 0 0 83 0 0 
36 0 0 64 0 0 66 0 0 103 0 0 115 0 0 131 0 0 142 0 0 192 0 0 187 0 0 238 0 0 851 0 0 1447 0 0 1504 0 0 1507 0 0 1538 0 0 1593 0 0 1583 0 0 1618 0 0 1520 0 0 1580 0 0 1614 0 0 1678 0 0 1645 0 0 1656 0 0 1629 0 0 1559 0 0 1632 0 0 1644 0 0 1544 0 0 1712 0 0 1618 0 0 1662 0 0 1663 0 0 1661 0 0 1674 0 0 1665 0 0 1630 0 0 1647 0 0 1649 0 0 1592 0 0 1653 0 0 1608 0 0 1583 0 0 1623 0 0 1554 0 0 1561 0 0 1656 0 0 1516 0 0 1452 0 0 1449 0 0 847 0 0 224 0 0 183 0 0 159 0 0 162 0 0 118 0 0 113 0 0 92 0 0 78 0 0 58 0 0 
40 0 0 75 0 0 90 0 0 100 0 0 121 0 0 128 0 0 153 0 0 177 0 0 204 0 0 233 0 0 886 0 0 1424 0 0 1478 0 0 1525 0 0 1496 0 0 1525 0 0 1588 0 0 1583 0 0 1663 0 0 1591 0 0 1645 0 0 1700 0 0 1680 0 0 1662 0 0 1674 0 0 1589 0 0 1681 0 0 1685 0 0 1655 0 0 1683 0 0 1679 0 0 1683 0 0 1637 0 0 1646 0 0 1619 0 0 1767 0 0 1643 0 0 1574 0 0 1679 0 0 1548 0 0 1597 0 0 1608 0 0 1668 0 0 1691 0 0 1588 0 0 1548 0 0 1542 0 0 1549 0 0 1469 0 0 1529 0 0 849 0 0 230 0 0 220 0 0 148 0 0 129 0 0 93 0 0 105 0 0 89 0 0 77 0 0 58 0 0 
29 0 0 67 0 0 71 0 0 97 0 0 124 0 0 111 0 0 156 0 0 177 0 0 223 0 0 260 0 0 901 0 0 1451 0 0 1489 0 0 1549 0 0 1547 0 0 1607 0 0 1613 0 0 1613 0 0 1589 0 0 1661 0 0 1582 0 0 1603 0 0 1619 0 0 1640 0 0 1701 0 0 1598 0 0 1608 0 0 1669 0 0 1678 0 0 1561 0 0 1633 0 0 1664 0 0 1599 0 0 1682 0 0 1622 0 0 1663 0 0 1683 0 0 1635 0 0 1650 0 0 1666 0 0 1586 0 0 1647 0 0 1661 0 0 1646 0 0 1581 0 0 1606 0 0 1588 0 0 1552 0 0 1500 0 0 1524 0 0 876 0 0 248 0 0 192 0 0 172 0 0 142 0 0 111 0 0 107 0 0 103 0 0 76 0 0 67 0 0 
27 0 0 91 0 0 80 0 0 102 0 0 104 0 0 140 0 0 156 0 0 187 0 0 211 0 0 248 0 0 878 0 0 1466 0 0 1493 0 0 1548 0 0 1539 0 0 1574 0 0 1524 0 0 1628 0 0 1564 0 0 1578 0 0 1586 0 0 1649 0 0 1588 0 0 1622 0 0 1708 0 0 1660 0 0 1667 0 0 1678 0 0 1662 0 0 1634 0 0 1589 0 0 1598 0 0 1671 0 0 1719 0 0 1698 0 0 1691 0 0 1696 0 0 1659 0 0 1633 0 0 1655 0 0 1590 0 0 1733 0 0 1588 0 0 1584 0 0 1614 0 0 1569 0 0 1556 0 0 1557 0 0 1490 0 0 1467 0 0 811 0 0 259 0 0 182 0 0 162 0 0 107 0 0 125 0 0 114 0 0 83 0 0 83 0 0 82 0 0 
26 0 0 75 0 0 78 0 0 95 0 0 105 0 0 122 0 0 136 0 0 141 0 0 188 0 0 226 0 0 846 0 0 1390 0 0 1399 0 0 1564 0 0 1566 0 0 1581 0 0 1539 0 0 1596 0 0 1613 0 0 1653 0 0 1671 0 0 1603 0 0 1637 0 0 1614 0 0 1726 0 0 1541 0 0 1665 0 0 1671 0 0 1615 0 0 1580 0 0 1686 0 0 1639 0 0 1681 0 0 1653 0 0 1773 0 0 1604 0 0 1722 0 0 1692 0 0 1607 0 0 1651 0 0 1603 0 0 1602 0 0 1578 0 0 1586 0 0 1592 0 0 1578 0 0 1548 0 0 1561 0 0 1461 0 0 1392 0 0 812 0 0 249 0 0 181 0 0 167 0 0 142 0 0 109 0 0 126 0 0 97 0 0 83 0 0 84 0 0 
35 0 0 78 0 0 92 0 0 99 0 0 124 0 0 124 0 0 153 0 0 179 0 0 190 0 0 237 0 0 849 0 0 1519 0 0 1534 0 0 1501 0 0 1529 0 0 1523 0 0 1569 0 0 1560 0 0 1626 0 0 1644 0 0 1727 0 0 1631 0 0 1677 0 0 1659 0 0 1590 0 0 1649 0 0 1629 0 0 1653 0 0 1698 0 0 1683 0 0 1741 0 0 1625 0 0 1640 0 0 1754 0 0 1540 0 0 1662 0 0 1657 0 0 1654 0 0 1664 0 0 1729 0 0 1639 0 0 1614 0 0 1564 0 0 1663 0 0 1615 0 0 1583 0 0 1561 0 0 1488 0 0 1587 0 0 1507 0 0 847 0 0 245 0 0 186 0 0 147 0 0 152 0 0 134 0 0 113 0 0 112 0 0 81 0 0 85 0 0 
33 0 0 78 0 0 106 0 0 92 0 0 128 0 0 116 0 0 139 0 0 180 0 0 191 0 0 262 0 0 899 0 0 1460 0 0 1502 0 0 1630 0 0 1581 0 0 1529 0 0 1611 0 0 1531 0 0 1598 0 0 1672 0 0 1627 0 0 1634 0 0 1682 0 0 1681 0 0 1579 0 0 1619 0 0 1617 0 0 1621 0 0 1676 0 0 1633 0 0 1600 0 0 1692 0 0 1671 0 0 1781 0 0 1600 0 0 1612 0 0 1591 0 0 1677 0 0 1612 0 0 1653 0 0 1557 0 0 1623 0 0 1653 0 0 1606 0 0 1520 0 0 1608 0 0 1496 0 0 1526 0 0 1551 0 0 1414 0 0 746 0 0 240 0 0 199 0 0 182 0 0 151 0 0 125 0 0 111 0 0 108 0 0 99 0 0 67 0 0 
41 0 0 62 0 0 95 0 0 112 0 0 94 0 0 112 0 0 145 0 0 165 0 0 164 0 0 279 0 0 850 0 0 1486 0 0 1500 0 0 1544 0 0 1516 0 0 1620 0 0 1563 0 0 1658 0 0 1518 0 0 1602 0 0 1618 0 0 1687 0 0 1670 0 0 1669 0 0 1672 0 0 1614 0 0 1645 0 0 1629 0 0 1632 0 0 1634 0 0 1709 0 0 1613 0 0 1638 0 0 1709 0 0 1674 0 0 1616 0 0 1715 0 0 1637 0 0 1655 0 0 1715 0 0 1615 0 0 1659 0 0 1587 0 0 1602 0 0 1567 0 0 1538 0 0 1634 0 0 1519 0 0 1490 0 0 1406 0 0 902 0 0 242 0 0 191 0 0 164 0 0 153 0 0 148 0 0 110 0 0 87 0 0 80 0 0 61 0 0 
45 0 0 72 0 0 85 0 0 93 0 0 124 0 0 136 0 0 160 0 0 172 0 0 194 0 0 246 0 0 801 0 0 1530 0 0 1544 0 0 1525 0 0 1537 0 0 1577 0 0 1590 0 0 1603 0 0 1576 0 0 1647 0 0 1583 0 0 1658 0 0 1611 0 0 1603 0 0 1699 0 0 1721 0 0 1644 0 0 1636 0 0 1679 0 0 1724 0 0 1684 0 0 1710 0 0 1666 0 0 1586 0 0 1643 0 0 1628 0 0 1668 0 0 1611 0 0 1690 0 0 1617 0 0 1649 0 0 1577 0 0 1701 0 0 1630 0 0 1564 0 0 1631 0 0 1599 0 0 1546 0 0 1629 0 0 1571 0 0 809 0 0 251 0 0 200 0 0 163 0 0 165 0 0 128 0 0 98 0 0 98 0 0 90 0 0 66 0 0 
35 0 0 76 0 0 91 0 0 89 0 0 122 0 0 128 0 0 162 0 0 180 0 0 221 0 0 243 0 0 831 0 0 1389 0 0 1462 0 0 1571 0 0 1450 0 0 1550 0 0 1651 0 0 1641 0 0 1524 0 0 1543 0 0 1612 0 0 1649 0 0 1680 0 0 1636 0 0 1636 0 0 1745 0 0 1625 0 0 1582 0 0 1626 0 0 1702 0 0 1722 0 0 1633 0 0 1612 0 0 1743 0 0 1622 0 0 1708 0 0 1596 0 0 1670 0 0 1660 0 0 1600 0 0 1597 0 0 1620 0 0 1591 0 0 1634 0 0 1566 0 0 1465 0 0 1599 0 0 1570 0 0 1510 0 0 1408 0 0 887 0 0 261 0 0 210 0 0 163 0 0 151 0 0 114 0 0 97 0 0 95 0 0 99 0 0 59 0 0 
28 0 0 79 0 0 84 0 0 98 0 0 113 0 0 110 0 0 147 0 0 169 0 0 222 0 0 245 0 0 832 0 0 1429 0 0 1530 0 0 1507 0 0 1629 0 0 1525 0 0 1600 0 0 1589 0 0 1644 0 0 1553 0 0 1668 0 0 1635 0 0 1734 0 0 1674 0 0 1622 0 0 1656 0 0 1658 0 0 1602 0 0 1671 0 0 1722 0 0 1647 0 0 1685 0 0 1644 0 0 1681 0 0 1653 0 0 1687 0 0 1616 0 0 1654 0 0 1585 0 0 1601 0 0 1586 0 0 1551 0 0 1624 0 0 1587 0 0 1553 0 0 1552 0 0 1530 0 0 1542 0 0 1498 0 0 1457 0 0 895 0 0 256 0 0 190 0 0 153 0 0 155 0 0 123 0 0 88 0 0 87 0 0 93 0 0 66 0 0 
28 0 0 76 0 0 91 0 0 85 0 0 97 0 0 100 0 0 137 0 0 160 0 0 214 0 0 272 0 0 864 0 0 1371 0 0 1485 0 0 1451 0 0 1547 0 0 1588 0 0 1563 0 0 1600 0 0 1559 0 0 1676 0 0 1628 0 0 1603 0 0 1633 0 0 1679 0 0 1569 0 0 1617 0 0 1723 0 0 1671 0 0 1680 0 0 1642 0 0 1710 0 0 1712 0 0 1644 0 0 1668 0 0 1644 0 0 1646 0 0 1608 0 0 1646 0 0 1644 0 0 1656 0 0 1672 0 0 1651 0 0 1661 0 0 1557 0 0 1573 0 0 1583 0 0 1544 0 0 1551 0 0 1521 0 0 1482 0 0 842 0 0 249 0 0 191 0 0 158 0 0 142 0 0 112 0 0 104 0 0 99 0 0 100 0 0 78 0 0 
36 0 0 78 0 0 92 0 0 95 0 0 113 0 0 109 0 0 162 0 0 174 0 0 185 0 0 235 0 0 808 0 0 1473 0 0 1503 0 0 1476 0 0 1515 0 0 1576 0 0 1538 0 0 1550 0 0 1581 0 0 1601 0 0 1642 0 0 1598 0 0 1634 0 0 1660 0 0 1606 0 0 1606 0 0 1657 0 0 1626 0 0 1649 0 0 1606 0 0 1623 0 0 1722 0 0 1668 0 0 1627 0 0 1574 0 0 1711 0 0 1624 0 0 1626 0 0 1712 0 0 1659 0 0 1700 0 0 1613 0 0 1577 0 0 1524 0 0 1508 0 0 1589 0 0 1508 0 0 1521 0 0 1485 0 0 1475 0 0 824 0 0 262 0 0 188 0 0 152 0 0 134 0 0 99 0 0 109 0 0 97 0 0 84 0 0 78 0 0 
34 0 0 77 0 0 90 0 0 91 0 0 99 0 0 132 0 0 117 0 0 162 0 0 218 0 0 233 0 0 876 0 0 1370 0 0 1474 0 0 1547 0 0 1585 0 0 1571 0 0 1579 0 0 1565 0 0 1646 0 0 1617 0 0 1553 0 0 1665 0 0 1694 0 0 1596 0 0 1673 0 0 1595 0 0 1671 0 0 1705 0 0 1612 0 0 1687 0 0 1605 0 0 1634 0 0 1619 0 0 1626 0 0 1549 0 0 1656 0 0 1601 0 0 1674 0 0 1689 0 0 1653 0 0 1633 0 0 1597 0 0 1624 0 0 1582 0 0 1554 0 0 1579 0 0 1539 0 0 1541 0 0 1502 0 0 1420 0 0 809 0 0 229 0 0 204 0 0 166 0 0 144 0 0 120 0 0 116 0 0 94 0 0 78 0 0 89 0 0 
32 0 0 50 0 0 70 0 0 80 0 0 95 0 0 113 0 0 130 0 0 150 0 0 202 0 0 255 0 0 816 0 0 1417 0 0 1537 0 0 1540 0 0 1577 0 0 1625 0 0 1591 0 0 1605 0 0 1560 0 0 1593 0 0 1548 0 0 1549 0 0 1652 0 0 1642 0 0 1672 0 0 1651 0 0 1585 0 0 1598 0 0 1661 0 0 1718 0 0 1683 0 0 1593 0 0 1653 0 0 1569 0 0 1641 0 0 1699 0 0 1639 0 0 1583 0 0 1602 0 0 1639 0 0 1598 0 0 1650 0 0 1595 0 0 1660 0 0 1586 0 0 1627 0 0 1492 0 0 1490 0 0 1541 0 0 1426 0 0 846 0 0 231 0 0 191 0 0 170 0 0 146 0 0 114 0 0 101 0 0 96 0 0 70 0 0 72 0 0 
35 0 0 64 0 0 77 0 0 90 0 0 99 0 0 114 0 0 109 0 0 152 0 0 175 0 0 235 0 0 828 0 0 1481 0 0 1502 0 0 1506 0 0 1608 0 0 1588 0 0 1587 0 0 1579 0 0 1557 0 0 1502 0 0 1615 0 0 1624 0 0 1631 0 0 1638 0 0 1537 0 0 1584 0 0 1595 0 0 1642 0 0 1598 0 0 1592 0 0 1629 0 0 1631 0 0 1634 0 0 1676 0 0 1624 0 0 1548 0 0 1582 0 0 1624 0 0 1644 0 0 1573 0 0 1591 0 0 1607 0 0 1577 0 0 1566 0 0 1574 0 0 1629 0 0 1580 0 0 1543 0 0 1467 0 0 1384 0 0 859 0 0 246 0 0 216 0 0 143 0 0 152 0 0 113 0 0 110 0 0 100 0 0 88 0 0 70 0 0 
28 0 0 63 0 0 77 0 0 98 0 0 100 0 0 109 0 0 143 0 0 175 0 0 194 0 0 216 0 0 827 0 0 1460 0 0 1439 0 0 1519 0 0 1526 0 0 1551 0 0 1531 0 0 1591 0 0 1646 0 0 1599 0 0 1633 0 0 1609 0 0 1702 0 0 1692 0 0 1642 0 0 1667 0 0 1587 0 0 1635 0 0 1625 0 0 1644 0 0 1632 0 0 1666 0 0 1641 0 0 1684 0 0 1577 0 0 1561 0 0 1667 0 0 1608 0 0 1651 0 0 1622 0 0 1579 0 0 1601 0 0 1586 0 0 1558 0 0 1562 0 0 1547 0 0 1516 0 0 1446 0 0 1457 0 0 1473 0 0 881 0 0 231 0 0 201 0 0 175 0 0 150 0 0 108 0 0 114 0 0 77 0 0 74 0 0 73 0 0 
34 0 0 59 0 0 76 0 0 70 0 0 117 0 0 122 0 0 144 0 0 142 0 0 208 0 0 234 0 0 847 0 0 1330 0 0 1418 0 0 1519 0 0 1492 0 0 1483 0 0 1558 0 0 1542 0 0 1611 0 0 1608 0 0 1506 0 0 1615 0 0 1548 0 0 1588 0 0 1681 0 0 1692 0 0 1667 0 0 1642 0 0 1644 0 0 1549 0 0 1592 0 0 1721 0 0 1590 0 0 1666 0 0 1560 0 0 1642 0 0 1597 0 0 1636 0 0 1542 0 0 1590 0 0 1564 0 0 1568 0 0 1548 0 0 1544 0 0 1515 0 0 1611 0 0 1531 0 0 1519 0 0 1441 0 0 1525 0 0 822 0 0 207 0 0 171 0 0 166 0 0 134 0 0 116 0 0 93 0 0 89 0 0 86 0 0 70 0 0 
35 0 0 69 0 0 74 0 0 99 0 0 83 0 0 85 0 0 135 0 0 141 0 0 164 0 0 230 0 0 758 0 0 1502 0 0 1507 0 0 1568 0 0 1587 0 0 1566 0 0 1530 0 0 1535 0 0 1609 0 0 1583 0 0 1594 0 0 1560 0 0 1560 0 0 1600 0 0 1605 0 0 1606 0 0 1618 0 0 1632 0 0 1620 0 0 1640 0 0 1674 0 0 1647 0 0 1644 0 0 1618 0 0 1643 0 0 1624 0 0 1563 0 0 1621 0 0 1673 0 0 1574 0 0 1621 0 0 1581 0 0 1512 0 0 1569 0 0 1529 0 0 1503 0 0 1595 0 0 1545 0 0 1481 0 0 1448 0 0 843 0 0 208 0 0 160 0 0 170 0 0 121 0 0 99 0 0 109 0 0 76 0 0 77 0 0 76 0 0 
33 0 0 58 0 0 71 0 0 70 0 0 86 0 0 126 0 0 130 0 0 136 0 0 189 0 0 209 0 0 877 0 0 1340 0 0 1480 0 0 1508 0 0 1521 0 0 1554 0 0 1492 0 0 1519 0 0 1581 0 0 1545 0 0 1631 0 0 1623 0 0 1606 0 0 1620 0 0 1592 0 0 1614 0 0 1560 0 0 1611 0 0 1619 0 0 1567 0 0 1570 0 0 1641 0 0 1516 0 0 1569 0 0 1510 0 0 1617 0 0 1632 0 0 1578 0 0 1517 0 0 1594 0 0 1539 0 0 1559 0 0 1602 0 0 1545 0 0 1541 0 0 1586 0 0 1446 0 0 1473 0 0 1423 0 0 1366 0 0 891 0 0 202 0 0 172 0 0 143 0 0 126 0 0 111 0 0 88 0 0 80 0 0 61 0 0 57 0 0 
24 0 0 63 0 0 75 0 0 82 0 0 90 0 0 102 0 0 114 0 0 154 0 0 165 0 0 198 0 0 825 0 0 1436 0 0 1408 0 0 1524 0 0 1539 0 0 1475 0 0 1539 0 0 1578 0 0 1565 0 0 1554 0 0 1642 0 0 1620 0 0 1578 0 0 1571 0 0 1640 0 0 1564 0 0 1579 0 0 1540 0 0 1609 0 0 1656 0 0 1580 0 0 1578 0 0 1638 0 0 1541 0 0 1584 0 0 1573 0 0 1600 0 0 1575 0 0 1609 0 0 1584 0 0 1574 0 0 1549 0 0 1627 0 0 1522 0 0 1613 0 0 1567 0 0 1551 0 0 1394 0 0 1462 0 0 1406 0 0 813 0 0 191 0 0 182 0 0 144 0 0 122 0 0 104 0 0 102 0 0 86 0 0 83 0 0 58 0 0 
36 0 0 59 0 0 68 0 0 82 0 0 87 0 0 88 0 0 110 0 0 134 0 0 136 0 0 203 0 0 814 0 0 1395 0 0 1446 0 0 1448 0 0 1457 0 0 1501 0 0 1593 0 0 1628 0 0 1473 0 0 1503 0 0 1618 0 0 1591 0 0 1635 0 0 1563 0 0 1572 0 0 1663 0 0 1597 0 0 1548 0 0 1557 0 0 1654 0 0 1602 0 0 1590 0 0 1587 0 0 1578 0 0 1533 0 0 1494 0 0 1600 0 0 1517 0 0 1543 0 0 1555 0 0 1548 0 0 1511 0 0 1623 0 0 1537 0 0 1555 0 0 1494 0 0 1461 0 0 1529 0 0 1429 0 0 1408 0 0 806 0 0 199 0 0 191 0 0 155 0 0 113 0 0 96 0 0 79 0 0 67 0 0 59 0 0 62 0 0 
23 0 0 57 0 0 67 0 0 60 0 0 89 0 0 90 0 0 108 0 0 118 0 0 154 0 0 210 0 0 866 0 0 1386 0 0 1421 0 0 1431 0 0 1478 0 0 1545 0 0 1511 0 0 1517 0 0 1507 0 0 1494 0 0 1464 0 0 1571 0 0 1554 0 0 1526 0 0 1610 0 0 1565 0 0 1583 0 0 1573 0 0 1563 0 0 1540 0 0 1455 0 0 1609 0 0 1542 0 0 1495 0 0 1536 0 0 1522 0 0 1585 0 0 1538 0 0 1566 0 0 1511 0 0 1523 0 0 1507 0 0 1549 0 0 1559 0 0 1505 0 0 1398 0 0 1462 0 0 1402 0 0 1473 0 0 1437 0 0 734 0 0 207 0 0 161 0 0 124 0 0 108 0 0 108 0 0 81 0 0 76 0 0 71 0 0 54 0 0 
29 0 0 63 0 0 66 0 0 70 0 0 72 0 0 108 0 0 114 0 0 121 0 0 147 0 0 195 0 0 763 0 0 1427 0 0 1346 0 0 1528 0 0 1486 0 0 1401 0 0 1520 0 0 1514 0 0 1563 0 0 1573 0 0 1552 0 0 1561 0 0 1560 0 0 1496 0 0 1565 0 0 1531 0 0 1496 0 0 1551 0 0 1541 0 0 1541 0 0 1475 0 0 1510 0 0 1604 0 0 1517 0 0 1453 0 0 1481 0 0 1538 0 0 1561 0 0 1503 0 0 1530 0 0 1471 0 0 1487 0 0 1576 0 0 1498 0 0 1504 0 0 1462 0 0 1497 0 0 1426 0 0 1375 0 0 1352 0 0 793 0 0 190 0 0 158 0 0 111 0 0 111 0 0 91 0 0 89 0 0 65 0 0 46 0 0 53 0 0 
25 0 0 47 0 0 60 0 0 69 0 0 67 0 0 77 0 0 96 0 0 102 0 0 130 0 0 164 0 0 774 0 0 1344 0 0 1371 0 0 1456 0 0 1434 0 0 1445 0 0 1422 0 0 1463 0 0 1431 0 0 1434 0 0 1432 0 0 1354 0 0 1534 0 0 1521 0 0 1442 0 0 1555 0 0 1413 0 0 1503 0 0 1476 0 0 1486 0 0 1471 0 0 1494 0 0 1462 0 0 1518 0 0 1454 0 0 1415 0 0 1474 0 0 1492 0 0 1490 0 0 1467 0 0 1499 0 0 1412 0 0 1484 0 0 1418 0 0 1440 0 0 1483 0 0 1476 0 0 1500 0 0 1372 0 0 1296 0 0 739 0 0 184 0 0 134 0 0 131 0 0 102 0 0 71 0 0 86 0 0 69 0 0 50 0 0 56 0 0 
15 0 0 44 0 0 61 0 0 63 0 0 71 0 0 71 0 0 82 0 0 111 0 0 120 0 0 152 0 0 734 0 0 1337 0 0 1392 0 0 1398 0 0 1390 0 0 1400 0 0 1485 0 0 1417 0 0 1383 0 0 1451 0 0 1375 0 0 1428 0 0 1427 0 0 1404 0 0 1414 0 0 1488 0 0 1453 0 0 1501 0 0 1484 0 0 1448 0 0 1459 0 0 1472 0 0 1527 0 0 1357 0 0 1496 0 0 1436 0 0 1494 0 0 1416 0 0 1417 0 0 1459 0 0 1486 0 0 1459 0 0 1440 0 0 1366 0 0 1378 0 0 1395 0 0 1356 0 0 1388 0 0 1356 0 0 1382 0 0 764 0 0 143 0 0 141 0 0 112 0 0 81 0 0 76 0 0 69 0 0 67 0 0 71 0 0 53 0 0 
18 0 0 50 0 0 52 0 0 56 0 0 67 0 0 63 0 0 79 0 0 84 0 0 98 0 0 134 0 0 399 0 0 713 0 0 744 0 0 760 0 0 778 0 0 808 0 0 829 0 0 812 0 0 832 0 0 811 0 0 836 0 0 886 0 0 766 0 0 860 0 0 816 0 0 828 0 0 879 0 0 872 0 0 859 0 0 838 0 0 892 0 0 890 0 0 890 0 0 878 0 0 877 0 0 850 0 0 811 0 0 830 0 0 845 0 0 835 0 0 851 0 0 796 0 0 821 0 0 828 0 0 810 0 0 776 0 0 776 0 0 760 0 0 800 0 0 699 0 0 467 0 0 148 0 0 107 0 0 82 0 0 88 0 0 66 0 0 71 0 0 72 0 0 45 0 0 49 0 0 
33 0 0 51 0 0 40 0 0 56 0 0 56 0 0 67 0 0 81 0 0 105 0 0 97 0 0 120 0 0 107 0 0 160 0 0 168 0 0 192 0 0 190 0 0 193 0 0 215 0 0 222 0 0 185 0 0 237 0 0 213 0 0 236 0 0 221 0 0 232 0 0 228 0 0 225 0 0 229 0 0 239 0 0 231 0 0 271 0 0 264 0 0 200 0 0 275 0 0 238 0 0 227 0 0 248 0 0 256 0 0 227 0 0 228 0 0 249 0 0 236 0 0 223 0 0 222 0 0 215 0 0 189 0 0 181 0 0 197 0 0 178 0 0 171 0 0 158 0 0 136 0 0 149 0 0 97 0 0 88 0 0 76 0 0 73 0 0 73 0 0 58 0 0 43 0 0 39 0 0 
23 0 0 42 0 0 49 0 0 41 0 0 67 0 0 75 0 0 64 0 0 89 0 0 73 0 0 100 0 0 93 0 0 99 0 0 135 0 0 148 0 0 166 0 0 177 0 0 176 0 0 183 0 0 191 0 0 169 0 0 192 0 0 200 0 0 189 0 0 198 0 0 177 0 0 198 0 0 210 0 0 204 0 0 188 0 0 188 0 0 196 0 0 194 0 0 225 0 0 205 0 0 207 0 0 214 0 0 195 0 0 205 0 0 175 0 0 205 0 0 195 0 0 201 0 0 182 0 0 184 0 0 171 0 0 172 0 0 174 0 0 143 0 0 149 0 0 116 0 0 131 0 0 113 0 0 75 0 0 72 0 0 76 0 0 64 0 0 51 0 0 58 0 0 36 0 0 40 0 0 
12 0 0 45 0 0 49 0 0 41 0 0 51 0 0 53 0 0 64 0 0 77 0 0 86 0 0 98 0 0 108 0 0 110 0 0 130 0 0 120 0 0 142 0 0 142 0 0 136 0 0 149 0 0 135 0 0 161 0 0 152 0 0 158 0 0 156 0 0 168 0 0 174 0 0 162 0 0 175 0 0 159 0 0 173 0 0 138 0 0 163 0 0 161 0 0 183 0 0 168 0 0 174 0 0 170 0 0 149 0 0 174 0 0 151 0 0 162 0 0 166 0 0 173 0 0 148 0 0 170 0 0 150 0 0 152 0 0 129 0 0 136 0 0 121 0 0 101 0 0 93 0 0 86 0 0 69 0 0 57 0 0 68 0 0 62 0 0 56 0 0 63 0 0 43 0 0 38 0 0 
25 0 0 42 0 0 48 0 0 45 0 0 39 0 0 51 0 0 50 0 0 55 0 0 77 0 0 58 0 0 72 0 0 102 0 0 107 0 0 91 0 0 131 0 0 105 0 0 117 0 0 113 0 0 105 0 0 104 0 0 116 0 0 132 0 0 150 0 0 144 0 0 121 0 0 140 0 0 134 0 0 169 0 0 130 0 0 159 0 0 146 0 0 145 0 0 134 0 0 148 0 0 135 0 0 148 0 0 161 0 0 129 0 0 148 0 0 145 0 0 113 0 0 144 0 0 121 0 0 113 0 0 110 0 0 103 0 0 91 0 0 100 0 0 89 0 0 90 0 0 97 0 0 62 0 0 63 0 0 55 0 0 50 0 0 61 0 0 51 0 0 46 0 0 30 0 0 45 0 0 
15 0 0 35 0 0 21 0 0 34 0 0 58 0 0 51 0 0 62 0 0 73 0 0 74 0 0 68 0 0 78 0 0 90 0 0 97 0 0 104 0 0 92 0 0 91 0 0 106 0 0 81 0 0 110 0 0 101 0 0 105 0 0 122 0 0 123 0 0 105 0 0 120 0 0 118 0 0 111 0 0 112 0 0 116 0 0 133 0 0 112 0 0 123 0 0 123 0 0 102 0 0 125 0 0 129 0 0 122 0 0 117 0 0 128 0 0 108 0 0 104 0 0 135 0 0 123 0 0 108 0 0 95 0 0 95 0 0 99 0 0 92 0 0 85 0 0 82 0 0 56 0 0 46 0 0 77 0 0 51 0 0 53 0 0 46 0 0 40 0 0 44 0 0 34 0 0 42 0 0 
10 0 0 24 0 0 36 0 0 43 0 0 50 0 0 39 0 0 41 0 0 50 0 0 53 0 0 60 0 0 69 0 0 86 0 0 67 0 0 79 0 0 80 0 0 85 0 0 92 0 0 87 0 0 101 0 0 102 0 0 99 0 0 105 0 0 100 0 0 93 0 0 107 0 0 112 0 0 89 0 0 104 0 0 121 0 0 94 0 0 113 0 0 111 0 0 108 0 0 107 0 0 110 0 0 111 0 0 100 0 0 101 0 0 90 0 0 116 0 0 90 0 0 105 0 0 85 0 0 86 0 0 106 0 0 86 0 0 67 0 0 72 0 0 82 0 0 93 0 0 64 0 0 57 0 0 62 0 0 51 0 0 52 0 0 54 0 0 35 0 0 35 0 0 39 0 0 30 0 0 
13 0 0 39 0 0 33 0 0 37 0 0 34 0 0 54 0 0 47 0 0 48 0 0 44 0 0 64 0 0 66 0 0 56 0 0 75 0 0 80 0 0 81 0 0 74 0 0 68 0 0 85 0 0 90 0 0 82 0 0 102 0 0 88 0 0 88 0 0 88 0 0 86 0 0 88 0 0 112 0 0 114 0 0 91 0 0 88 0 0 90 0 0 94 0 0 98 0 0 106 0 0 104 0 0 92 0 0 100 0 0 95 0 0 90 0 0 82 0 0 77 0 0 91 0 0 83 0 0 79 0 0 77 0 0 74 0 0 79 0 0 67 0 0 65 0 0 67 0 0 57 0 0 47 0 0 59 0 0 40 0 0 32 0 0 28 0 0 31 0 0 23 0 0 29 0 0 35 0 0 
14 0 0 20 0 0 25 0 0 30 0 0 37 0 0 27 0 0 45 0 0 37 0 0 43 0 0 51 0 0 46 0 0 44 0 0 61 0 0 59 0 0 64 0 0 66 0 0 70 0 0 60 0 0 67 0 0 74 0 0 80 0 0 78 0 0 74 0 0 92 0 0 95 0 0 88 0 0 81 0 0 86 0 0 81 0 0 83 0 0 88 0 0 74 0 0 81 0 0 82 0 0 75 0 0 73 0 0 78 0 0 78 0 0 80 0 0 103 0 0 103 0 0 69 0 0 79 0 0 74 0 0 80 0 0 53 0 0 61 0 0 61 0 0 61 0 0 65 0 0 49 0 0 51 0 0 51 0 0 50 0 0 40 0 0 37 0 0 35 0 0 40 0 0 38 0 0 24 0 0 
10 0 0 22 0 0 37 0 0 34 0 0 31 0 0 27 0 0 32 0 0 49 0 0 46 0 0 43 0 0 47 0 0 50 0 0 71 0 0 48 0 0 56 0 0 65 0 0 59 0 0 69 0 0 58 0 0 62 0 0 66 0 0 70 0 0 71 0 0 69 0 0 57 0 0 78 0 0 79 0 0 81 0 0 69 0 0 74 0 0 70 0 0 70 0 0 75 0 0 70 0 0 63 0 0 81 0 0 69 0 0 77 0 0 73 0 0 69 0 0 64 0 0 58 0 0 53 0 0 70 0 0 53 0 0 56 0 0 46 0 0 55 0 0 54 0 0 39 0 0 51 0 0 32 0 0 47 0 0 36 0 0 42 0 0 32 0 0 38 0 0 31 0 0 17 0 0 27 0 0 
