P3
# This is a kerma file slice at depth 25 of 100
60 60
# now we give the maximum value of the RGB coordinates.
651919
3 0 0 5 0 0 8 0 0 7 0 0 8 0 0 5 0 0 8 0 0 10 0 0 9 0 0 13 0 0 11 0 0 11 0 0 10 0 0 13 0 0 9 0 0 13 0 0 14 0 0 12 0 0 15 0 0 14 0 0 17 0 0 17 0 0 14 0 0 15 0 0 16 0 0 22 0 0 15 0 0 15 0 0 20 0 0 18 0 0 18 0 0 18 0 0 17 0 0 15 0 0 24 0 0 14 0 0 22 0 0 17 0 0 17 0 0 17 0 0 16 0 0 13 0 0 12 0 0 10 0 0 15 0 0 19 0 0 12 0 0 15 0 0 14 0 0 12 0 0 11 0 0 10 0 0 12 0 0 8 0 0 7 0 0 7 0 0 8 0 0 6 0 0 6 0 0 5 0 0 
5 0 0 13 0 0 11 0 0 15 0 0 11 0 0 16 0 0 19 0 0 22 0 0 19 0 0 28 0 0 22 0 0 21 0 0 25 0 0 33 0 0 28 0 0 31 0 0 38 0 0 30 0 0 36 0 0 33 0 0 33 0 0 39 0 0 35 0 0 34 0 0 38 0 0 39 0 0 34 0 0 34 0 0 36 0 0 34 0 0 44 0 0 38 0 0 36 0 0 38 0 0 34 0 0 38 0 0 35 0 0 40 0 0 37 0 0 41 0 0 37 0 0 43 0 0 32 0 0 33 0 0 35 0 0 31 0 0 26 0 0 26 0 0 29 0 0 29 0 0 27 0 0 24 0 0 18 0 0 19 0 0 20 0 0 18 0 0 16 0 0 16 0 0 13 0 0 12 0 0 
6 0 0 12 0 0 17 0 0 15 0 0 17 0 0 19 0 0 23 0 0 17 0 0 23 0 0 29 0 0 27 0 0 26 0 0 28 0 0 31 0 0 42 0 0 34 0 0 34 0 0 40 0 0 43 0 0 41 0 0 42 0 0 40 0 0 43 0 0 39 0 0 43 0 0 43 0 0 45 0 0 45 0 0 46 0 0 38 0 0 48 0 0 52 0 0 46 0 0 38 0 0 40 0 0 41 0 0 44 0 0 40 0 0 37 0 0 38 0 0 44 0 0 34 0 0 46 0 0 38 0 0 32 0 0 33 0 0 40 0 0 33 0 0 32 0 0 33 0 0 33 0 0 22 0 0 21 0 0 30 0 0 19 0 0 18 0 0 21 0 0 20 0 0 16 0 0 14 0 0 
7 0 0 16 0 0 14 0 0 15 0 0 21 0 0 21 0 0 24 0 0 32 0 0 26 0 0 29 0 0 33 0 0 35 0 0 36 0 0 40 0 0 37 0 0 42 0 0 40 0 0 40 0 0 48 0 0 51 0 0 46 0 0 48 0 0 41 0 0 45 0 0 45 0 0 43 0 0 49 0 0 57 0 0 52 0 0 56 0 0 53 0 0 51 0 0 49 0 0 53 0 0 48 0 0 58 0 0 48 0 0 48 0 0 52 0 0 42 0 0 47 0 0 48 0 0 46 0 0 41 0 0 40 0 0 40 0 0 45 0 0 44 0 0 38 0 0 32 0 0 28 0 0 30 0 0 25 0 0 28 0 0 23 0 0 22 0 0 17 0 0 17 0 0 15 0 0 10 0 0 
9 0 0 15 0 0 16 0 0 23 0 0 22 0 0 22 0 0 27 0 0 31 0 0 28 0 0 32 0 0 38 0 0 36 0 0 41 0 0 44 0 0 44 0 0 41 0 0 47 0 0 51 0 0 51 0 0 50 0 0 62 0 0 56 0 0 61 0 0 57 0 0 55 0 0 62 0 0 63 0 0 69 0 0 48 0 0 52 0 0 58 0 0 57 0 0 61 0 0 56 0 0 64 0 0 64 0 0 53 0 0 59 0 0 66 0 0 61 0 0 51 0 0 68 0 0 53 0 0 58 0 0 46 0 0 43 0 0 49 0 0 42 0 0 41 0 0 38 0 0 36 0 0 36 0 0 29 0 0 33 0 0 25 0 0 25 0 0 16 0 0 19 0 0 18 0 0 16 0 0 
8 0 0 17 0 0 17 0 0 24 0 0 22 0 0 25 0 0 30 0 0 35 0 0 33 0 0 35 0 0 39 0 0 45 0 0 43 0 0 51 0 0 54 0 0 43 0 0 55 0 0 49 0 0 56 0 0 58 0 0 64 0 0 60 0 0 69 0 0 62 0 0 66 0 0 69 0 0 61 0 0 66 0 0 75 0 0 72 0 0 61 0 0 61 0 0 65 0 0 74 0 0 78 0 0 62 0 0 68 0 0 71 0 0 66 0 0 70 0 0 68 0 0 64 0 0 60 0 0 56 0 0 61 0 0 57 0 0 50 0 0 41 0 0 55 0 0 38 0 0 37 0 0 35 0 0 29 0 0 29 0 0 26 0 0 27 0 0 21 0 0 17 0 0 21 0 0 17 0 0 
9 0 0 19 0 0 24 0 0 22 0 0 24 0 0 24 0 0 30 0 0 35 0 0 41 0 0 43 0 0 43 0 0 50 0 0 56 0 0 53 0 0 64 0 0 67 0 0 59 0 0 68 0 0 65 0 0 66 0 0 74 0 0 67 0 0 67 0 0 65 0 0 78 0 0 69 0 0 73 0 0 75 0 0 81 0 0 70 0 0 89 0 0 86 0 0 77 0 0 81 0 0 88 0 0 83 0 0 76 0 0 77 0 0 70 0 0 74 0 0 80 0 0 72 0 0 65 0 0 72 0 0 58 0 0 65 0 0 64 0 0 61 0 0 46 0 0 49 0 0 49 0 0 36 0 0 45 0 0 39 0 0 38 0 0 27 0 0 26 0 0 25 0 0 19 0 0 15 0 0 
8 0 0 23 0 0 26 0 0 23 0 0 28 0 0 33 0 0 30 0 0 35 0 0 38 0 0 50 0 0 53 0 0 58 0 0 62 0 0 57 0 0 64 0 0 58 0 0 77 0 0 73 0 0 84 0 0 71 0 0 77 0 0 90 0 0 85 0 0 86 0 0 78 0 0 89 0 0 96 0 0 84 0 0 92 0 0 93 0 0 107 0 0 83 0 0 95 0 0 101 0 0 83 0 0 87 0 0 86 0 0 86 0 0 80 0 0 87 0 0 85 0 0 76 0 0 79 0 0 80 0 0 83 0 0 71 0 0 64 0 0 79 0 0 61 0 0 59 0 0 57 0 0 49 0 0 45 0 0 29 0 0 43 0 0 30 0 0 30 0 0 24 0 0 25 0 0 24 0 0 
8 0 0 23 0 0 27 0 0 33 0 0 33 0 0 36 0 0 42 0 0 38 0 0 47 0 0 56 0 0 64 0 0 65 0 0 79 0 0 87 0 0 77 0 0 88 0 0 87 0 0 91 0 0 99 0 0 84 0 0 106 0 0 92 0 0 125 0 0 97 0 0 95 0 0 118 0 0 90 0 0 98 0 0 115 0 0 106 0 0 105 0 0 104 0 0 108 0 0 93 0 0 121 0 0 102 0 0 102 0 0 113 0 0 103 0 0 91 0 0 96 0 0 104 0 0 97 0 0 107 0 0 74 0 0 76 0 0 83 0 0 82 0 0 73 0 0 75 0 0 57 0 0 56 0 0 45 0 0 41 0 0 35 0 0 31 0 0 31 0 0 27 0 0 30 0 0 23 0 0 
9 0 0 23 0 0 28 0 0 29 0 0 31 0 0 35 0 0 42 0 0 50 0 0 51 0 0 62 0 0 80 0 0 66 0 0 95 0 0 100 0 0 103 0 0 99 0 0 114 0 0 111 0 0 124 0 0 107 0 0 124 0 0 112 0 0 121 0 0 124 0 0 109 0 0 137 0 0 121 0 0 118 0 0 138 0 0 129 0 0 119 0 0 116 0 0 115 0 0 120 0 0 129 0 0 121 0 0 120 0 0 115 0 0 131 0 0 117 0 0 115 0 0 102 0 0 121 0 0 107 0 0 119 0 0 107 0 0 103 0 0 96 0 0 89 0 0 89 0 0 66 0 0 59 0 0 60 0 0 48 0 0 44 0 0 35 0 0 29 0 0 33 0 0 29 0 0 22 0 0 
8 0 0 24 0 0 30 0 0 30 0 0 35 0 0 40 0 0 47 0 0 61 0 0 56 0 0 67 0 0 297 0 0 556 0 0 535 0 0 530 0 0 557 0 0 598 0 0 545 0 0 561 0 0 558 0 0 536 0 0 543 0 0 588 0 0 549 0 0 579 0 0 533 0 0 591 0 0 547 0 0 558 0 0 590 0 0 535 0 0 550 0 0 556 0 0 586 0 0 632 0 0 630 0 0 585 0 0 554 0 0 575 0 0 572 0 0 540 0 0 568 0 0 536 0 0 582 0 0 539 0 0 549 0 0 538 0 0 538 0 0 488 0 0 535 0 0 513 0 0 291 0 0 82 0 0 56 0 0 49 0 0 45 0 0 41 0 0 31 0 0 35 0 0 29 0 0 25 0 0 
12 0 0 26 0 0 27 0 0 36 0 0 32 0 0 44 0 0 47 0 0 51 0 0 67 0 0 96 0 0 522 0 0 874 0 0 947 0 0 989 0 0 947 0 0 959 0 0 975 0 0 1046 0 0 937 0 0 905 0 0 986 0 0 1039 0 0 1077 0 0 1092 0 0 995 0 0 977 0 0 1031 0 0 992 0 0 951 0 0 981 0 0 1066 0 0 1037 0 0 1027 0 0 1052 0 0 959 0 0 981 0 0 1026 0 0 1036 0 0 949 0 0 1007 0 0 1039 0 0 996 0 0 1039 0 0 949 0 0 948 0 0 909 0 0 941 0 0 855 0 0 963 0 0 941 0 0 502 0 0 84 0 0 70 0 0 56 0 0 50 0 0 37 0 0 35 0 0 33 0 0 28 0 0 28 0 0 
14 0 0 29 0 0 31 0 0 29 0 0 35 0 0 46 0 0 49 0 0 60 0 0 67 0 0 82 0 0 524 0 0 989 0 0 972 0 0 1023 0 0 951 0 0 938 0 0 1016 0 0 1018 0 0 1050 0 0 1022 0 0 1000 0 0 1022 0 0 1015 0 0 981 0 0 986 0 0 996 0 0 1030 0 0 1011 0 0 1055 0 0 1100 0 0 1045 0 0 1098 0 0 996 0 0 1050 0 0 983 0 0 1081 0 0 1027 0 0 1085 0 0 949 0 0 1036 0 0 979 0 0 947 0 0 980 0 0 965 0 0 948 0 0 983 0 0 1003 0 0 934 0 0 1552 0 0 992 0 0 534 0 0 100 0 0 82 0 0 61 0 0 57 0 0 50 0 0 43 0 0 32 0 0 28 0 0 28 0 0 
11 0 0 33 0 0 29 0 0 34 0 0 39 0 0 54 0 0 48 0 0 57 0 0 86 0 0 88 0 0 534 0 0 994 0 0 971 0 0 1046 0 0 1005 0 0 1006 0 0 983 0 0 957 0 0 1089 0 0 979 0 0 1035 0 0 1019 0 0 1085 0 0 1045 0 0 1072 0 0 1059 0 0 1031 0 0 1063 0 0 986 0 0 1023 0 0 1047 0 0 1082 0 0 989 0 0 1052 0 0 1008 0 0 1061 0 0 1114 0 0 1187 0 0 1057 0 0 1196 0 0 994 0 0 1082 0 0 1025 0 0 1021 0 0 1077 0 0 1039 0 0 1074 0 0 999 0 0 959 0 0 990 0 0 476 0 0 99 0 0 90 0 0 77 0 0 63 0 0 51 0 0 35 0 0 37 0 0 28 0 0 31 0 0 
13 0 0 37 0 0 35 0 0 38 0 0 42 0 0 55 0 0 68 0 0 69 0 0 85 0 0 100 0 0 519 0 0 944 0 0 1073 0 0 1032 0 0 1070 0 0 932 0 0 1060 0 0 1039 0 0 1010 0 0 1060 0 0 1663 0 0 1130 0 0 1100 0 0 1084 0 0 1026 0 0 1040 0 0 999 0 0 993 0 0 1081 0 0 1055 0 0 1019 0 0 1071 0 0 1074 0 0 1066 0 0 1068 0 0 992 0 0 1089 0 0 1014 0 0 1039 0 0 1005 0 0 1248 0 0 1043 0 0 1048 0 0 1102 0 0 1955 0 0 1029 0 0 1028 0 0 1079 0 0 1000 0 0 1113 0 0 572 0 0 100 0 0 83 0 0 64 0 0 61 0 0 54 0 0 44 0 0 41 0 0 29 0 0 31 0 0 
13 0 0 40 0 0 41 0 0 34 0 0 44 0 0 51 0 0 59 0 0 75 0 0 79 0 0 99 0 0 532 0 0 951 0 0 1008 0 0 984 0 0 968 0 0 1060 0 0 1086 0 0 1126 0 0 1078 0 0 1127 0 0 1016 0 0 1044 0 0 1039 0 0 1036 0 0 1088 0 0 1039 0 0 1045 0 0 1128 0 0 1062 0 0 1027 0 0 1143 0 0 1045 0 0 1020 0 0 1054 0 0 1130 0 0 1112 0 0 1057 0 0 1020 0 0 1041 0 0 1050 0 0 1075 0 0 1020 0 0 1048 0 0 994 0 0 1073 0 0 1064 0 0 1020 0 0 951 0 0 1070 0 0 1025 0 0 501 0 0 101 0 0 74 0 0 69 0 0 67 0 0 52 0 0 44 0 0 36 0 0 31 0 0 28 0 0 
13 0 0 34 0 0 38 0 0 40 0 0 49 0 0 62 0 0 66 0 0 80 0 0 87 0 0 115 0 0 540 0 0 1045 0 0 1020 0 0 1055 0 0 958 0 0 1063 0 0 1096 0 0 995 0 0 1060 0 0 1074 0 0 1087 0 0 1128 0 0 1055 0 0 1047 0 0 1093 0 0 1062 0 0 1008 0 0 1065 0 0 990 0 0 1099 0 0 1044 0 0 1079 0 0 1073 0 0 1083 0 0 1037 0 0 1109 0 0 1105 0 0 1060 0 0 1029 0 0 1059 0 0 1047 0 0 1049 0 0 1878 0 0 1065 0 0 1144 0 0 977 0 0 1011 0 0 1021 0 0 1001 0 0 949 0 0 607 0 0 104 0 0 85 0 0 75 0 0 59 0 0 59 0 0 42 0 0 40 0 0 34 0 0 35 0 0 
15 0 0 30 0 0 34 0 0 51 0 0 53 0 0 62 0 0 64 0 0 67 0 0 96 0 0 117 0 0 542 0 0 1032 0 0 1058 0 0 1076 0 0 1059 0 0 1140 0 0 1037 0 0 1094 0 0 1032 0 0 1024 0 0 1097 0 0 1076 0 0 999 0 0 1112 0 0 1082 0 0 1102 0 0 1099 0 0 997 0 0 1085 0 0 1134 0 0 1058 0 0 1030 0 0 1151 0 0 1045 0 0 1093 0 0 1080 0 0 1091 0 0 1137 0 0 1095 0 0 1053 0 0 1070 0 0 996 0 0 1049 0 0 1047 0 0 1053 0 0 1080 0 0 990 0 0 1029 0 0 954 0 0 992 0 0 501 0 0 104 0 0 101 0 0 76 0 0 68 0 0 57 0 0 49 0 0 45 0 0 36 0 0 33 0 0 
13 0 0 34 0 0 36 0 0 46 0 0 53 0 0 60 0 0 76 0 0 74 0 0 88 0 0 131 0 0 523 0 0 938 0 0 980 0 0 1021 0 0 1051 0 0 1049 0 0 1114 0 0 1047 0 0 1072 0 0 1106 0 0 1079 0 0 1128 0 0 1046 0 0 1092 0 0 1032 0 0 1017 0 0 1053 0 0 1058 0 0 1110 0 0 1057 0 0 1130 0 0 1121 0 0 1108 0 0 1129 0 0 1049 0 0 1070 0 0 1143 0 0 1018 0 0 1084 0 0 1089 0 0 1130 0 0 1118 0 0 1119 0 0 1105 0 0 1016 0 0 1033 0 0 1097 0 0 1058 0 0 1020 0 0 937 0 0 564 0 0 117 0 0 101 0 0 74 0 0 71 0 0 67 0 0 49 0 0 44 0 0 41 0 0 37 0 0 
12 0 0 35 0 0 34 0 0 46 0 0 54 0 0 63 0 0 60 0 0 84 0 0 91 0 0 117 0 0 619 0 0 922 0 0 1009 0 0 1087 0 0 1026 0 0 1009 0 0 1060 0 0 1083 0 0 1023 0 0 1087 0 0 1214 0 0 1067 0 0 1128 0 0 1105 0 0 1126 0 0 1120 0 0 1151 0 0 1081 0 0 1137 0 0 1076 0 0 1057 0 0 1154 0 0 1149 0 0 1038 0 0 1156 0 0 1025 0 0 1084 0 0 1105 0 0 1076 0 0 996 0 0 1033 0 0 1114 0 0 1089 0 0 983 0 0 1062 0 0 1035 0 0 1034 0 0 1026 0 0 1060 0 0 915 0 0 514 0 0 115 0 0 86 0 0 78 0 0 70 0 0 68 0 0 43 0 0 55 0 0 40 0 0 32 0 0 
17 0 0 38 0 0 40 0 0 38 0 0 46 0 0 75 0 0 79 0 0 83 0 0 96 0 0 114 0 0 583 0 0 1053 0 0 1064 0 0 1140 0 0 998 0 0 982 0 0 1095 0 0 968 0 0 1110 0 0 1145 0 0 1119 0 0 1114 0 0 1047 0 0 1068 0 0 1155 0 0 1090 0 0 1077 0 0 1110 0 0 1155 0 0 1065 0 0 1088 0 0 1084 0 0 1188 0 0 1058 0 0 1047 0 0 1100 0 0 1076 0 0 1048 0 0 1020 0 0 1064 0 0 1064 0 0 1112 0 0 1126 0 0 1077 0 0 1139 0 0 1068 0 0 994 0 0 5489 0 0 1007 0 0 1080 0 0 525 0 0 118 0 0 96 0 0 73 0 0 71 0 0 63 0 0 49 0 0 44 0 0 42 0 0 32 0 0 
19 0 0 38 0 0 39 0 0 46 0 0 51 0 0 63 0 0 69 0 0 89 0 0 98 0 0 107 0 0 571 0 0 988 0 0 1045 0 0 1016 0 0 1070 0 0 1031 0 0 1027 0 0 1118 0 0 1023 0 0 1110 0 0 1136 0 0 1090 0 0 1089 0 0 1047 0 0 1053 0 0 1110 0 0 1161 0 0 1108 0 0 1074 0 0 1200 0 0 1004 0 0 1125 0 0 1076 0 0 1065 0 0 1121 0 0 1161 0 0 1141 0 0 1142 0 0 1121 0 0 1144 0 0 1030 0 0 1072 0 0 1108 0 0 1142 0 0 1024 0 0 1034 0 0 1066 0 0 987 0 0 1012 0 0 925 0 0 530 0 0 137 0 0 105 0 0 88 0 0 68 0 0 73 0 0 52 0 0 50 0 0 40 0 0 37 0 0 
17 0 0 35 0 0 41 0 0 43 0 0 64 0 0 65 0 0 76 0 0 78 0 0 104 0 0 124 0 0 597 0 0 1054 0 0 1012 0 0 1014 0 0 1063 0 0 1000 0 0 1103 0 0 1120 0 0 1119 0 0 1091 0 0 1022 0 0 1151 0 0 1097 0 0 1102 0 0 1117 0 0 1095 0 0 1124 0 0 1054 0 0 1109 0 0 1169 0 0 1086 0 0 1077 0 0 1020 0 0 1062 0 0 1124 0 0 1091 0 0 1091 0 0 1051 0 0 1029 0 0 1217 0 0 1077 0 0 1070 0 0 978 0 0 1024 0 0 1123 0 0 1048 0 0 1085 0 0 1072 0 0 980 0 0 1034 0 0 551 0 0 129 0 0 97 0 0 81 0 0 73 0 0 74 0 0 56 0 0 47 0 0 37 0 0 37 0 0 
14 0 0 40 0 0 38 0 0 52 0 0 52 0 0 65 0 0 72 0 0 87 0 0 101 0 0 124 0 0 549 0 0 980 0 0 1031 0 0 1051 0 0 1126 0 0 1081 0 0 1098 0 0 993 0 0 1071 0 0 1112 0 0 1041 0 0 1132 0 0 1077 0 0 1155 0 0 1063 0 0 1041 0 0 1091 0 0 1107 0 0 1118 0 0 1117 0 0 1013 0 0 1015 0 0 1018 0 0 1098 0 0 1095 0 0 1105 0 0 1132 0 0 1093 0 0 1135 0 0 1095 0 0 1092 0 0 1059 0 0 1059 0 0 1007 0 0 1117 0 0 1035 0 0 1069 0 0 1079 0 0 964 0 0 972 0 0 512 0 0 129 0 0 119 0 0 108 0 0 84 0 0 66 0 0 52 0 0 47 0 0 45 0 0 44 0 0 
17 0 0 37 0 0 46 0 0 49 0 0 63 0 0 68 0 0 79 0 0 89 0 0 94 0 0 127 0 0 562 0 0 1002 0 0 943 0 0 979 0 0 1038 0 0 1123 0 0 1134 0 0 1116 0 0 1101 0 0 1059 0 0 1131 0 0 1117 0 0 1152 0 0 1066 0 0 1160 0 0 1167 0 0 1141 0 0 1139 0 0 1037 0 0 1107 0 0 1035 0 0 1097 0 0 1073 0 0 1094 0 0 1120 0 0 1093 0 0 1051 0 0 1070 0 0 1085 0 0 1127 0 0 1056 0 0 1076 0 0 1124 0 0 1096 0 0 1033 0 0 1140 0 0 1082 0 0 1063 0 0 956 0 0 916 0 0 573 0 0 121 0 0 106 0 0 91 0 0 81 0 0 64 0 0 62 0 0 45 0 0 43 0 0 37 0 0 
16 0 0 36 0 0 43 0 0 51 0 0 66 0 0 58 0 0 77 0 0 95 0 0 114 0 0 139 0 0 573 0 0 930 0 0 1042 0 0 1036 0 0 1017 0 0 1027 0 0 1112 0 0 1037 0 0 1236 0 0 1104 0 0 1099 0 0 1122 0 0 1066 0 0 1082 0 0 1081 0 0 1152 0 0 1129 0 0 1090 0 0 1155 0 0 1084 0 0 997 0 0 1161 0 0 1067 0 0 1027 0 0 1084 0 0 1145 0 0 1065 0 0 1059 0 0 1108 0 0 1096 0 0 1121 0 0 1125 0 0 1137 0 0 1082 0 0 1051 0 0 1042 0 0 1000 0 0 1014 0 0 987 0 0 1022 0 0 564 0 0 130 0 0 99 0 0 86 0 0 81 0 0 70 0 0 47 0 0 50 0 0 37 0 0 38 0 0 
15 0 0 40 0 0 42 0 0 48 0 0 64 0 0 72 0 0 70 0 0 80 0 0 103 0 0 129 0 0 556 0 0 1034 0 0 984 0 0 1052 0 0 999 0 0 1075 0 0 1077 0 0 1150 0 0 1060 0 0 1118 0 0 1378 0 0 1093 0 0 1123 0 0 1149 0 0 1149 0 0 1052 0 0 1106 0 0 1101 0 0 1150 0 0 1131 0 0 1154 0 0 1137 0 0 1077 0 0 1084 0 0 1100 0 0 1099 0 0 1120 0 0 1152 0 0 1102 0 0 1060 0 0 1054 0 0 1137 0 0 1033 0 0 1116 0 0 1249 0 0 1015 0 0 1141 0 0 1044 0 0 1034 0 0 1091 0 0 589 0 0 125 0 0 107 0 0 93 0 0 68 0 0 65 0 0 63 0 0 48 0 0 41 0 0 45 0 0 
15 0 0 35 0 0 42 0 0 49 0 0 52 0 0 62 0 0 73 0 0 96 0 0 105 0 0 121 0 0 562 0 0 1156 0 0 1004 0 0 983 0 0 1101 0 0 1090 0 0 1025 0 0 1025 0 0 1038 0 0 1143 0 0 1043 0 0 1080 0 0 1065 0 0 1114 0 0 1104 0 0 1164 0 0 1078 0 0 1249 0 0 1146 0 0 1088 0 0 1085 0 0 1259 0 0 1109 0 0 1032 0 0 1125 0 0 1081 0 0 1066 0 0 1080 0 0 1117 0 0 1190 0 0 1157 0 0 1036 0 0 1033 0 0 1072 0 0 1063 0 0 1045 0 0 1074 0 0 1059 0 0 1103 0 0 1049 0 0 580 0 0 123 0 0 102 0 0 101 0 0 82 0 0 55 0 0 63 0 0 44 0 0 48 0 0 45 0 0 
18 0 0 47 0 0 48 0 0 57 0 0 55 0 0 63 0 0 78 0 0 92 0 0 111 0 0 135 0 0 551 0 0 2022 0 0 1062 0 0 1091 0 0 1021 0 0 1133 0 0 1088 0 0 1106 0 0 1060 0 0 1004 0 0 1102 0 0 1062 0 0 1106 0 0 1081 0 0 1139 0 0 1057 0 0 1103 0 0 1100 0 0 1062 0 0 1070 0 0 1104 0 0 1154 0 0 1126 0 0 1146 0 0 1065 0 0 1148 0 0 1074 0 0 1129 0 0 1087 0 0 1166 0 0 1132 0 0 991 0 0 1099 0 0 1057 0 0 1072 0 0 1166 0 0 1137 0 0 1060 0 0 969 0 0 1003 0 0 709 0 0 143 0 0 115 0 0 90 0 0 68 0 0 68 0 0 58 0 0 47 0 0 43 0 0 40 0 0 
20 0 0 34 0 0 55 0 0 54 0 0 60 0 0 61 0 0 88 0 0 102 0 0 121 0 0 127 0 0 545 0 0 953 0 0 1037 0 0 1082 0 0 1017 0 0 1010 0 0 1079 0 0 1053 0 0 1068 0 0 1078 0 0 1121 0 0 1140 0 0 1124 0 0 1050 0 0 1179 0 0 1147 0 0 1079 0 0 1113 0 0 1074 0 0 1165 0 0 1066 0 0 1055 0 0 1100 0 0 1069 0 0 1019 0 0 1127 0 0 1155 0 0 1057 0 0 1177 0 0 981 0 0 1090 0 0 1133 0 0 1122 0 0 1011 0 0 1142 0 0 1116 0 0 1013 0 0 1008 0 0 1110 0 0 1035 0 0 562 0 0 129 0 0 100 0 0 97 0 0 81 0 0 66 0 0 54 0 0 52 0 0 48 0 0 39 0 0 
17 0 0 39 0 0 46 0 0 54 0 0 70 0 0 69 0 0 80 0 0 81 0 0 100 0 0 123 0 0 571 0 0 1000 0 0 1021 0 0 1055 0 0 1009 0 0 1011 0 0 1059 0 0 1073 0 0 1110 0 0 1109 0 0 1143 0 0 1109 0 0 1025 0 0 1153 0 0 1183 0 0 1063 0 0 1085 0 0 1110 0 0 1074 0 0 1174 0 0 1075 0 0 1571 0 0 1205 0 0 1016 0 0 1173 0 0 1117 0 0 1043 0 0 1159 0 0 1114 0 0 1284 0 0 1127 0 0 1079 0 0 1028 0 0 1075 0 0 1156 0 0 1083 0 0 1039 0 0 1024 0 0 1034 0 0 1027 0 0 662 0 0 128 0 0 102 0 0 88 0 0 72 0 0 64 0 0 52 0 0 56 0 0 45 0 0 38 0 0 
19 0 0 46 0 0 37 0 0 51 0 0 60 0 0 67 0 0 86 0 0 94 0 0 115 0 0 123 0 0 502 0 0 1077 0 0 1078 0 0 1069 0 0 1003 0 0 1066 0 0 1112 0 0 1079 0 0 1014 0 0 1111 0 0 1108 0 0 1015 0 0 1017 0 0 1149 0 0 1152 0 0 1105 0 0 1130 0 0 1084 0 0 1124 0 0 1080 0 0 1062 0 0 1193 0 0 1084 0 0 1196 0 0 1249 0 0 1099 0 0 1111 0 0 1154 0 0 1100 0 0 1142 0 0 1181 0 0 1130 0 0 1073 0 0 1089 0 0 1051 0 0 1028 0 0 1036 0 0 1125 0 0 1013 0 0 1009 0 0 557 0 0 123 0 0 119 0 0 99 0 0 81 0 0 68 0 0 60 0 0 51 0 0 50 0 0 38 0 0 
16 0 0 40 0 0 51 0 0 43 0 0 57 0 0 61 0 0 78 0 0 92 0 0 152 0 0 120 0 0 576 0 0 988 0 0 964 0 0 1063 0 0 1078 0 0 1062 0 0 1129 0 0 1135 0 0 1114 0 0 1092 0 0 1088 0 0 1236 0 0 1042 0 0 1169 0 0 1079 0 0 1101 0 0 1095 0 0 1171 0 0 1192 0 0 1136 0 0 1105 0 0 1100 0 0 1069 0 0 1095 0 0 1070 0 0 1046 0 0 1077 0 0 1063 0 0 1144 0 0 1099 0 0 1146 0 0 1084 0 0 1060 0 0 1079 0 0 1096 0 0 1072 0 0 1061 0 0 975 0 0 1027 0 0 1041 0 0 556 0 0 125 0 0 105 0 0 88 0 0 87 0 0 75 0 0 59 0 0 46 0 0 46 0 0 35 0 0 
15 0 0 35 0 0 51 0 0 52 0 0 61 0 0 67 0 0 76 0 0 93 0 0 90 0 0 133 0 0 557 0 0 1047 0 0 1030 0 0 1078 0 0 998 0 0 1071 0 0 1092 0 0 1098 0 0 1160 0 0 1069 0 0 1084 0 0 1162 0 0 1116 0 0 1063 0 0 1099 0 0 1137 0 0 1139 0 0 1082 0 0 1163 0 0 1114 0 0 1119 0 0 1138 0 0 1026 0 0 1058 0 0 1145 0 0 1100 0 0 1057 0 0 1085 0 0 1059 0 0 1181 0 0 1105 0 0 1118 0 0 1145 0 0 1009 0 0 1139 0 0 1116 0 0 970 0 0 1065 0 0 1038 0 0 1053 0 0 570 0 0 113 0 0 112 0 0 96 0 0 88 0 0 56 0 0 55 0 0 47 0 0 44 0 0 42 0 0 
15 0 0 36 0 0 43 0 0 44 0 0 58 0 0 69 0 0 87 0 0 98 0 0 102 0 0 146 0 0 556 0 0 975 0 0 1004 0 0 1058 0 0 1061 0 0 1171 0 0 1034 0 0 1086 0 0 1064 0 0 1099 0 0 1149 0 0 1104 0 0 1059 0 0 1100 0 0 1060 0 0 1137 0 0 1158 0 0 1087 0 0 1185 0 0 1010 0 0 1088 0 0 1114 0 0 1037 0 0 1132 0 0 1052 0 0 1129 0 0 1076 0 0 1143 0 0 1032 0 0 1026 0 0 1092 0 0 1051 0 0 1092 0 0 1105 0 0 1058 0 0 1152 0 0 1037 0 0 1121 0 0 1055 0 0 978 0 0 613 0 0 119 0 0 102 0 0 81 0 0 81 0 0 64 0 0 61 0 0 63 0 0 46 0 0 38 0 0 
18 0 0 38 0 0 42 0 0 49 0 0 65 0 0 68 0 0 77 0 0 89 0 0 102 0 0 128 0 0 508 0 0 1008 0 0 1022 0 0 1102 0 0 1074 0 0 1125 0 0 1119 0 0 1031 0 0 1084 0 0 970 0 0 1115 0 0 2552 0 0 1026 0 0 1096 0 0 1125 0 0 1178 0 0 1105 0 0 1061 0 0 1136 0 0 1106 0 0 1133 0 0 1179 0 0 1139 0 0 1103 0 0 1248 0 0 1042 0 0 1068 0 0 1239 0 0 1074 0 0 1068 0 0 1158 0 0 1058 0 0 1092 0 0 1021 0 0 1062 0 0 1048 0 0 1043 0 0 970 0 0 1056 0 0 1031 0 0 553 0 0 141 0 0 93 0 0 98 0 0 83 0 0 72 0 0 62 0 0 41 0 0 47 0 0 45 0 0 
16 0 0 37 0 0 37 0 0 45 0 0 59 0 0 64 0 0 75 0 0 86 0 0 107 0 0 151 0 0 539 0 0 987 0 0 1063 0 0 1150 0 0 1115 0 0 1080 0 0 1094 0 0 1060 0 0 1060 0 0 1093 0 0 987 0 0 2714 0 0 1086 0 0 1063 0 0 1059 0 0 1148 0 0 1116 0 0 1051 0 0 1141 0 0 1170 0 0 1163 0 0 1057 0 0 1102 0 0 1072 0 0 1132 0 0 1049 0 0 1126 0 0 1147 0 0 1153 0 0 1121 0 0 1067 0 0 1085 0 0 1108 0 0 972 0 0 1007 0 0 1085 0 0 1015 0 0 1103 0 0 1035 0 0 919 0 0 595 0 0 123 0 0 117 0 0 88 0 0 80 0 0 74 0 0 63 0 0 50 0 0 45 0 0 38 0 0 
20 0 0 35 0 0 40 0 0 49 0 0 60 0 0 65 0 0 69 0 0 94 0 0 106 0 0 123 0 0 509 0 0 3568 0 0 1092 0 0 1074 0 0 1053 0 0 1084 0 0 1142 0 0 1003 0 0 1053 0 0 1108 0 0 1126 0 0 1077 0 0 1105 0 0 1153 0 0 1075 0 0 1155 0 0 1153 0 0 1083 0 0 1176 0 0 1049 0 0 1117 0 0 1044 0 0 1111 0 0 1134 0 0 1168 0 0 1180 0 0 1093 0 0 1127 0 0 1115 0 0 1077 0 0 1137 0 0 1042 0 0 1047 0 0 1011 0 0 1159 0 0 1147 0 0 1035 0 0 1037 0 0 2001 0 0 1032 0 0 567 0 0 130 0 0 105 0 0 85 0 0 73 0 0 62 0 0 61 0 0 52 0 0 47 0 0 41 0 0 
15 0 0 40 0 0 51 0 0 47 0 0 51 0 0 68 0 0 70 0 0 95 0 0 113 0 0 119 0 0 556 0 0 1078 0 0 1062 0 0 1198 0 0 1025 0 0 1010 0 0 1054 0 0 1042 0 0 986 0 0 1022 0 0 1083 0 0 1030 0 0 1258 0 0 1053 0 0 1277 0 0 1115 0 0 1095 0 0 1119 0 0 1179 0 0 1132 0 0 1107 0 0 1102 0 0 1109 0 0 1123 0 0 1204 0 0 1107 0 0 1066 0 0 1204 0 0 1084 0 0 1107 0 0 1075 0 0 1006 0 0 1019 0 0 1135 0 0 1068 0 0 1067 0 0 1061 0 0 1072 0 0 966 0 0 987 0 0 605 0 0 132 0 0 104 0 0 100 0 0 74 0 0 64 0 0 56 0 0 44 0 0 46 0 0 36 0 0 
16 0 0 34 0 0 46 0 0 46 0 0 46 0 0 60 0 0 68 0 0 82 0 0 96 0 0 112 0 0 507 0 0 986 0 0 1189 0 0 1024 0 0 1039 0 0 1040 0 0 1011 0 0 1035 0 0 1074 0 0 1112 0 0 1071 0 0 1131 0 0 1126 0 0 1132 0 0 1130 0 0 1133 0 0 1154 0 0 1058 0 0 1123 0 0 1190 0 0 1200 0 0 1058 0 0 1123 0 0 1115 0 0 1089 0 0 1240 0 0 1152 0 0 1379 0 0 1045 0 0 1101 0 0 1035 0 0 1019 0 0 1097 0 0 1047 0 0 1031 0 0 1047 0 0 1017 0 0 1041 0 0 1051 0 0 1059 0 0 590 0 0 105 0 0 93 0 0 88 0 0 68 0 0 61 0 0 51 0 0 58 0 0 41 0 0 35 0 0 
14 0 0 33 0 0 35 0 0 49 0 0 51 0 0 60 0 0 76 0 0 88 0 0 105 0 0 123 0 0 556 0 0 1061 0 0 1022 0 0 1029 0 0 968 0 0 1094 0 0 1099 0 0 1220 0 0 1136 0 0 1080 0 0 1157 0 0 1106 0 0 1073 0 0 1071 0 0 1065 0 0 1138 0 0 1003 0 0 1148 0 0 1091 0 0 1088 0 0 1069 0 0 1182 0 0 1094 0 0 1156 0 0 1076 0 0 1034 0 0 1064 0 0 1096 0 0 1179 0 0 1116 0 0 1062 0 0 1145 0 0 1276 0 0 1055 0 0 1037 0 0 1095 0 0 1071 0 0 1011 0 0 999 0 0 992 0 0 567 0 0 126 0 0 123 0 0 85 0 0 66 0 0 68 0 0 53 0 0 43 0 0 43 0 0 37 0 0 
15 0 0 37 0 0 42 0 0 53 0 0 53 0 0 60 0 0 63 0 0 86 0 0 101 0 0 120 0 0 568 0 0 1006 0 0 1043 0 0 1062 0 0 1042 0 0 999 0 0 1090 0 0 1126 0 0 1109 0 0 1061 0 0 1018 0 0 1082 0 0 1200 0 0 1064 0 0 1107 0 0 1163 0 0 1043 0 0 1090 0 0 1137 0 0 1098 0 0 1090 0 0 1058 0 0 1099 0 0 1114 0 0 1033 0 0 1112 0 0 1015 0 0 1030 0 0 1222 0 0 1086 0 0 1075 0 0 1131 0 0 1096 0 0 1037 0 0 1026 0 0 1033 0 0 1101 0 0 1044 0 0 1055 0 0 1029 0 0 591 0 0 105 0 0 110 0 0 118 0 0 70 0 0 56 0 0 53 0 0 47 0 0 41 0 0 36 0 0 
15 0 0 29 0 0 37 0 0 52 0 0 55 0 0 57 0 0 67 0 0 72 0 0 93 0 0 117 0 0 577 0 0 988 0 0 1109 0 0 1070 0 0 1266 0 0 1039 0 0 1078 0 0 976 0 0 1047 0 0 1078 0 0 1228 0 0 1050 0 0 1065 0 0 1133 0 0 1037 0 0 1116 0 0 1129 0 0 1012 0 0 1090 0 0 1073 0 0 996 0 0 997 0 0 1065 0 0 1033 0 0 1075 0 0 1067 0 0 1167 0 0 1038 0 0 1105 0 0 1045 0 0 1247 0 0 1099 0 0 1132 0 0 1081 0 0 1072 0 0 1092 0 0 1057 0 0 1078 0 0 990 0 0 1017 0 0 527 0 0 108 0 0 90 0 0 84 0 0 71 0 0 71 0 0 53 0 0 44 0 0 33 0 0 32 0 0 
15 0 0 31 0 0 37 0 0 43 0 0 49 0 0 63 0 0 65 0 0 71 0 0 83 0 0 124 0 0 579 0 0 1051 0 0 973 0 0 968 0 0 1050 0 0 1090 0 0 1073 0 0 1024 0 0 1027 0 0 1051 0 0 1091 0 0 1017 0 0 1547 0 0 1109 0 0 1025 0 0 1036 0 0 1074 0 0 1049 0 0 1118 0 0 1098 0 0 1116 0 0 1072 0 0 1187 0 0 1096 0 0 1175 0 0 944 0 0 1082 0 0 1027 0 0 1153 0 0 1066 0 0 1071 0 0 1070 0 0 1086 0 0 1027 0 0 1031 0 0 981 0 0 984 0 0 161708 0 0 953 0 0 1071 0 0 508 0 0 122 0 0 86 0 0 80 0 0 62 0 0 62 0 0 45 0 0 36 0 0 33 0 0 32 0 0 
14 0 0 34 0 0 35 0 0 46 0 0 51 0 0 44 0 0 59 0 0 83 0 0 85 0 0 125 0 0 573 0 0 956 0 0 1036 0 0 981 0 0 1144 0 0 1155 0 0 1094 0 0 1061 0 0 1099 0 0 1064 0 0 1063 0 0 1064 0 0 1020 0 0 1095 0 0 1109 0 0 1133 0 0 1049 0 0 1102 0 0 1133 0 0 1104 0 0 1074 0 0 1122 0 0 1082 0 0 1127 0 0 1090 0 0 1080 0 0 1125 0 0 1056 0 0 1254 0 0 1059 0 0 1048 0 0 1068 0 0 1097 0 0 1042 0 0 1044 0 0 1057 0 0 1051 0 0 1067 0 0 1004 0 0 995 0 0 526 0 0 114 0 0 99 0 0 79 0 0 66 0 0 56 0 0 43 0 0 41 0 0 35 0 0 31 0 0 
15 0 0 29 0 0 34 0 0 42 0 0 53 0 0 52 0 0 55 0 0 69 0 0 92 0 0 108 0 0 441 0 0 1010 0 0 974 0 0 988 0 0 1040 0 0 1116 0 0 971 0 0 1062 0 0 1047 0 0 1058 0 0 1085 0 0 1045 0 0 1066 0 0 1029 0 0 1110 0 0 1038 0 0 1020 0 0 1044 0 0 1056 0 0 1067 0 0 1106 0 0 1050 0 0 1050 0 0 1157 0 0 1058 0 0 1042 0 0 1095 0 0 1137 0 0 1085 0 0 1081 0 0 1073 0 0 1019 0 0 1031 0 0 1087 0 0 1037 0 0 1037 0 0 999 0 0 1046 0 0 960 0 0 976 0 0 515 0 0 113 0 0 75 0 0 80 0 0 66 0 0 53 0 0 51 0 0 40 0 0 34 0 0 25 0 0 
15 0 0 29 0 0 33 0 0 36 0 0 35 0 0 46 0 0 56 0 0 74 0 0 82 0 0 123 0 0 529 0 0 918 0 0 1028 0 0 1021 0 0 1044 0 0 1085 0 0 1063 0 0 1010 0 0 1071 0 0 1070 0 0 1107 0 0 1022 0 0 1148 0 0 1000 0 0 1133 0 0 1050 0 0 989 0 0 1119 0 0 1064 0 0 1071 0 0 1013 0 0 1036 0 0 1100 0 0 1016 0 0 1068 0 0 1063 0 0 1127 0 0 953 0 0 970 0 0 1036 0 0 1144 0 0 1053 0 0 1055 0 0 1117 0 0 966 0 0 983 0 0 1025 0 0 1099 0 0 1014 0 0 949 0 0 573 0 0 109 0 0 88 0 0 81 0 0 60 0 0 60 0 0 43 0 0 35 0 0 34 0 0 32 0 0 
11 0 0 29 0 0 32 0 0 30 0 0 43 0 0 51 0 0 54 0 0 68 0 0 84 0 0 94 0 0 553 0 0 933 0 0 1111 0 0 991 0 0 996 0 0 1019 0 0 1012 0 0 983 0 0 1090 0 0 989 0 0 984 0 0 1067 0 0 1042 0 0 1065 0 0 989 0 0 989 0 0 1069 0 0 1102 0 0 1063 0 0 1029 0 0 1110 0 0 1101 0 0 1074 0 0 1045 0 0 1054 0 0 1029 0 0 1087 0 0 1007 0 0 1100 0 0 1049 0 0 1066 0 0 1056 0 0 982 0 0 988 0 0 1071 0 0 1100 0 0 1212 0 0 991 0 0 943 0 0 854 0 0 496 0 0 95 0 0 89 0 0 59 0 0 56 0 0 52 0 0 45 0 0 34 0 0 35 0 0 28 0 0 
11 0 0 26 0 0 33 0 0 37 0 0 45 0 0 47 0 0 50 0 0 75 0 0 72 0 0 89 0 0 536 0 0 4646 0 0 988 0 0 921 0 0 999 0 0 928 0 0 985 0 0 1039 0 0 972 0 0 1030 0 0 1004 0 0 973 0 0 899 0 0 1008 0 0 1087 0 0 1011 0 0 1066 0 0 1008 0 0 1109 0 0 965 0 0 948 0 0 1044 0 0 1043 0 0 1077 0 0 1017 0 0 996 0 0 1043 0 0 1092 0 0 1014 0 0 1048 0 0 1247 0 0 1019 0 0 965 0 0 982 0 0 1027 0 0 931 0 0 938 0 0 1018 0 0 859 0 0 967 0 0 533 0 0 80 0 0 65 0 0 60 0 0 52 0 0 43 0 0 44 0 0 31 0 0 28 0 0 28 0 0 
10 0 0 24 0 0 25 0 0 33 0 0 37 0 0 41 0 0 44 0 0 59 0 0 64 0 0 76 0 0 520 0 0 903 0 0 986 0 0 1050 0 0 893 0 0 948 0 0 1021 0 0 952 0 0 974 0 0 950 0 0 1041 0 0 990 0 0 927 0 0 1523 0 0 1118 0 0 944 0 0 1015 0 0 1057 0 0 1071 0 0 966 0 0 1011 0 0 997 0 0 1012 0 0 1048 0 0 945 0 0 890 0 0 949 0 0 1037 0 0 914 0 0 1030 0 0 1068 0 0 1022 0 0 1007 0 0 966 0 0 1085 0 0 986 0 0 909 0 0 955 0 0 992 0 0 895 0 0 458 0 0 79 0 0 5985 0 0 50 0 0 59 0 0 38 0 0 43 0 0 28 0 0 23 0 0 30 0 0 
9 0 0 23 0 0 29 0 0 25 0 0 31 0 0 35 0 0 42 0 0 52 0 0 52 0 0 70 0 0 288 0 0 523 0 0 485 0 0 518 0 0 578 0 0 521 0 0 611 0 0 567 0 0 597 0 0 562 0 0 601 0 0 531 0 0 569 0 0 541 0 0 587 0 0 562 0 0 523 0 0 600 0 0 549 0 0 545 0 0 628 0 0 517 0 0 600 0 0 533 0 0 566 0 0 502 0 0 604 0 0 551 0 0 519 0 0 554 0 0 639 0 0 555 0 0 540 0 0 550 0 0 555 0 0 517 0 0 471 0 0 470 0 0 435 0 0 475 0 0 314 0 0 70 0 0 56 0 0 53 0 0 39 0 0 39 0 0 36 0 0 30 0 0 30 0 0 21 0 0 
11 0 0 22 0 0 26 0 0 27 0 0 37 0 0 28 0 0 46 0 0 52 0 0 66 0 0 67 0 0 70 0 0 84 0 0 84 0 0 79 0 0 100 0 0 112 0 0 118 0 0 107 0 0 126 0 0 118 0 0 132 0 0 118 0 0 127 0 0 120 0 0 137 0 0 117 0 0 112 0 0 128 0 0 133 0 0 131 0 0 127 0 0 131 0 0 127 0 0 133 0 0 135 0 0 133 0 0 132 0 0 117 0 0 137 0 0 123 0 0 130 0 0 131 0 0 115 0 0 120 0 0 109 0 0 112 0 0 97 0 0 92 0 0 88 0 0 85 0 0 76 0 0 69 0 0 58 0 0 48 0 0 44 0 0 40 0 0 36 0 0 34 0 0 26 0 0 27 0 0 
10 0 0 21 0 0 23 0 0 30 0 0 30 0 0 36 0 0 38 0 0 44 0 0 42 0 0 55 0 0 60 0 0 67 0 0 74 0 0 89 0 0 70 0 0 109 0 0 84 0 0 97 0 0 94 0 0 121 0 0 90 0 0 109 0 0 106 0 0 94 0 0 90 0 0 108 0 0 106 0 0 104 0 0 105 0 0 116 0 0 103 0 0 115 0 0 95 0 0 119 0 0 110 0 0 105 0 0 100 0 0 99 0 0 112 0 0 108 0 0 97 0 0 103 0 0 106 0 0 99 0 0 83 0 0 103 0 0 77 0 0 74 0 0 59 0 0 69 0 0 57 0 0 55 0 0 47 0 0 41 0 0 42 0 0 33 0 0 31 0 0 27 0 0 22 0 0 20 0 0 
11 0 0 18 0 0 26 0 0 25 0 0 30 0 0 28 0 0 32 0 0 40 0 0 41 0 0 49 0 0 52 0 0 59 0 0 63 0 0 68 0 0 71 0 0 78 0 0 75 0 0 89 0 0 73 0 0 95 0 0 91 0 0 99 0 0 94 0 0 84 0 0 91 0 0 90 0 0 77 0 0 90 0 0 89 0 0 109 0 0 85 0 0 98 0 0 95 0 0 89 0 0 77 0 0 98 0 0 71 0 0 84 0 0 76 0 0 84 0 0 80 0 0 89 0 0 80 0 0 81 0 0 80 0 0 78 0 0 70 0 0 62 0 0 68 0 0 55 0 0 47 0 0 47 0 0 46 0 0 38 0 0 35 0 0 31 0 0 30 0 0 28 0 0 20 0 0 15 0 0 
9 0 0 20 0 0 20 0 0 25 0 0 24 0 0 22 0 0 31 0 0 35 0 0 33 0 0 35 0 0 48 0 0 43 0 0 53 0 0 53 0 0 58 0 0 62 0 0 63 0 0 70 0 0 63 0 0 82 0 0 75 0 0 66 0 0 71 0 0 80 0 0 85 0 0 81 0 0 86 0 0 76 0 0 69 0 0 75 0 0 84 0 0 71 0 0 76 0 0 70 0 0 79 0 0 75 0 0 69 0 0 66 0 0 71 0 0 62 0 0 73 0 0 63 0 0 67 0 0 75 0 0 59 0 0 70 0 0 73 0 0 52 0 0 56 0 0 47 0 0 43 0 0 38 0 0 42 0 0 33 0 0 30 0 0 30 0 0 22 0 0 25 0 0 22 0 0 15 0 0 
8 0 0 17 0 0 20 0 0 22 0 0 20 0 0 24 0 0 28 0 0 32 0 0 33 0 0 99 0 0 42 0 0 44 0 0 41 0 0 51 0 0 60 0 0 50 0 0 52 0 0 54 0 0 57 0 0 60 0 0 55 0 0 60 0 0 68 0 0 62 0 0 67 0 0 69 0 0 66 0 0 59 0 0 63 0 0 64 0 0 62 0 0 65 0 0 64 0 0 71 0 0 66 0 0 66 0 0 61 0 0 65 0 0 65 0 0 66 0 0 61 0 0 60 0 0 63 0 0 50 0 0 52 0 0 55 0 0 52 0 0 50 0 0 50 0 0 39 0 0 42 0 0 40 0 0 33 0 0 27 0 0 26 0 0 28 0 0 27 0 0 22 0 0 18 0 0 19 0 0 
6 0 0 15 0 0 19 0 0 20 0 0 21 0 0 27 0 0 30 0 0 25 0 0 34 0 0 35 0 0 37 0 0 37 0 0 36 0 0 40 0 0 38 0 0 45 0 0 45 0 0 52 0 0 43 0 0 56 0 0 58 0 0 51 0 0 52 0 0 60 0 0 62 0 0 54 0 0 61 0 0 55 0 0 69 0 0 59 0 0 65 0 0 52 0 0 51 0 0 57 0 0 58 0 0 61 0 0 61 0 0 65 0 0 50 0 0 54 0 0 54 0 0 54 0 0 56 0 0 52 0 0 53 0 0 48 0 0 38 0 0 43 0 0 36 0 0 43 0 0 39 0 0 28 0 0 26 0 0 27 0 0 26 0 0 24 0 0 23 0 0 16 0 0 15 0 0 14 0 0 
8 0 0 14 0 0 20 0 0 14 0 0 18 0 0 19 0 0 27 0 0 24 0 0 27 0 0 31 0 0 34 0 0 31 0 0 39 0 0 41 0 0 36 0 0 44 0 0 42 0 0 45 0 0 41 0 0 42 0 0 44 0 0 42 0 0 48 0 0 52 0 0 51 0 0 45 0 0 54 0 0 44 0 0 52 0 0 50 0 0 48 0 0 46 0 0 62 0 0 50 0 0 40 0 0 45 0 0 54 0 0 46 0 0 57 0 0 44 0 0 46 0 0 50 0 0 47 0 0 46 0 0 41 0 0 38 0 0 35 0 0 38 0 0 34 0 0 39 0 0 33 0 0 28 0 0 24 0 0 25 0 0 18 0 0 23 0 0 20 0 0 15 0 0 15 0 0 17 0 0 
5 0 0 15 0 0 15 0 0 14 0 0 17 0 0 17 0 0 19 0 0 23 0 0 24 0 0 31 0 0 25 0 0 25 0 0 28 0 0 33 0 0 33 0 0 38 0 0 36 0 0 39 0 0 37 0 0 34 0 0 37 0 0 49 0 0 38 0 0 35 0 0 44 0 0 47 0 0 42 0 0 42 0 0 43 0 0 42 0 0 47 0 0 45 0 0 46 0 0 48 0 0 42 0 0 42 0 0 38 0 0 36 0 0 39 0 0 43 0 0 41 0 0 36 0 0 43 0 0 38 0 0 40 0 0 38 0 0 28 0 0 35 0 0 31 0 0 28 0 0 24 0 0 27 0 0 22 0 0 24 0 0 18 0 0 23 0 0 17 0 0 14 0 0 14 0 0 14 0 0 
4 0 0 10 0 0 12 0 0 12 0 0 17 0 0 17 0 0 15 0 0 18 0 0 19 0 0 20 0 0 21 0 0 26 0 0 30 0 0 28 0 0 33 0 0 31 0 0 32 0 0 41 0 0 32 0 0 38 0 0 37 0 0 33 0 0 35 0 0 37 0 0 38 0 0 37 0 0 34 0 0 43 0 0 43 0 0 37 0 0 45 0 0 41 0 0 41 0 0 41 0 0 36 0 0 35 0 0 38 0 0 38 0 0 45 0 0 36 0 0 32 0 0 39 0 0 39 0 0 34 0 0 33 0 0 34 0 0 31 0 0 31 0 0 29 0 0 26 0 0 19 0 0 17 0 0 21 0 0 18 0 0 19 0 0 17 0 0 16 0 0 15 0 0 11 0 0 13 0 0 
