P3
# This is a kerma file slice at depth 4 of 100
60 60
# now we give the maximum value of the RGB coordinates.
651919
1 0 0 3 0 0 2 0 0 2 0 0 3 0 0 3 0 0 5 0 0 3 0 0 3 0 0 5 0 0 4 0 0 4 0 0 4 0 0 4 0 0 5 0 0 4 0 0 6 0 0 5 0 0 5 0 0 5 0 0 5 0 0 5 0 0 5 0 0 6 0 0 5 0 0 5 0 0 5 0 0 5 0 0 6 0 0 7 0 0 6 0 0 6 0 0 6 0 0 5 0 0 6 0 0 6 0 0 6 0 0 5 0 0 6 0 0 4 0 0 5 0 0 6 0 0 3 0 0 5 0 0 4 0 0 5 0 0 5 0 0 5 0 0 4 0 0 4 0 0 4 0 0 3 0 0 4 0 0 3 0 0 3 0 0 3 0 0 2 0 0 3 0 0 2 0 0 2 0 0 
2 0 0 5 0 0 5 0 0 4 0 0 4 0 0 6 0 0 8 0 0 9 0 0 8 0 0 9 0 0 9 0 0 11 0 0 9 0 0 10 0 0 8 0 0 11 0 0 12 0 0 13 0 0 11 0 0 14 0 0 14 0 0 13 0 0 11 0 0 11 0 0 14 0 0 11 0 0 12 0 0 13 0 0 14 0 0 16 0 0 13 0 0 15 0 0 16 0 0 15 0 0 17 0 0 14 0 0 12 0 0 13 0 0 11 0 0 12 0 0 13 0 0 13 0 0 12 0 0 11 0 0 10 0 0 10 0 0 11 0 0 11 0 0 10 0 0 10 0 0 7 0 0 8 0 0 9 0 0 7 0 0 6 0 0 7 0 0 6 0 0 6 0 0 6 0 0 4 0 0 
2 0 0 5 0 0 6 0 0 6 0 0 6 0 0 7 0 0 9 0 0 8 0 0 9 0 0 11 0 0 9 0 0 10 0 0 11 0 0 11 0 0 13 0 0 11 0 0 12 0 0 14 0 0 12 0 0 13 0 0 15 0 0 13 0 0 15 0 0 16 0 0 15 0 0 16 0 0 15 0 0 16 0 0 15 0 0 13 0 0 15 0 0 15 0 0 14 0 0 16 0 0 14 0 0 17 0 0 15 0 0 14 0 0 16 0 0 15 0 0 16 0 0 14 0 0 14 0 0 12 0 0 12 0 0 12 0 0 13 0 0 14 0 0 10 0 0 11 0 0 10 0 0 8 0 0 10 0 0 9 0 0 8 0 0 7 0 0 7 0 0 5 0 0 5 0 0 5 0 0 
2 0 0 7 0 0 7 0 0 7 0 0 6 0 0 9 0 0 8 0 0 10 0 0 10 0 0 10 0 0 13 0 0 10 0 0 11 0 0 12 0 0 15 0 0 14 0 0 15 0 0 15 0 0 17 0 0 17 0 0 17 0 0 17 0 0 16 0 0 16 0 0 20 0 0 17 0 0 16 0 0 20 0 0 18 0 0 18 0 0 16 0 0 18 0 0 18 0 0 16 0 0 18 0 0 19 0 0 18 0 0 17 0 0 17 0 0 16 0 0 16 0 0 15 0 0 16 0 0 14 0 0 15 0 0 15 0 0 13 0 0 11 0 0 12 0 0 11 0 0 11 0 0 9 0 0 9 0 0 12 0 0 7 0 0 7 0 0 7 0 0 8 0 0 6 0 0 5 0 0 
3 0 0 6 0 0 6 0 0 7 0 0 7 0 0 9 0 0 10 0 0 10 0 0 9 0 0 11 0 0 13 0 0 12 0 0 14 0 0 14 0 0 15 0 0 14 0 0 15 0 0 19 0 0 17 0 0 17 0 0 21 0 0 20 0 0 17 0 0 19 0 0 21 0 0 20 0 0 19 0 0 19 0 0 20 0 0 19 0 0 19 0 0 19 0 0 16 0 0 19 0 0 21 0 0 20 0 0 18 0 0 18 0 0 20 0 0 17 0 0 16 0 0 17 0 0 18 0 0 18 0 0 15 0 0 17 0 0 14 0 0 16 0 0 17 0 0 14 0 0 14 0 0 12 0 0 9 0 0 8 0 0 8 0 0 11 0 0 7 0 0 6 0 0 7 0 0 7 0 0 
2 0 0 6 0 0 9 0 0 8 0 0 9 0 0 9 0 0 9 0 0 10 0 0 11 0 0 13 0 0 13 0 0 14 0 0 16 0 0 17 0 0 17 0 0 16 0 0 17 0 0 22 0 0 21 0 0 19 0 0 23 0 0 24 0 0 25 0 0 20 0 0 21 0 0 24 0 0 24 0 0 25 0 0 22 0 0 22 0 0 22 0 0 23 0 0 22 0 0 21 0 0 26 0 0 25 0 0 21 0 0 20 0 0 20 0 0 20 0 0 20 0 0 20 0 0 19 0 0 20 0 0 22 0 0 21 0 0 17 0 0 19 0 0 14 0 0 15 0 0 12 0 0 13 0 0 13 0 0 10 0 0 9 0 0 7 0 0 9 0 0 8 0 0 8 0 0 6 0 0 
2 0 0 8 0 0 10 0 0 8 0 0 10 0 0 10 0 0 12 0 0 9 0 0 11 0 0 14 0 0 18 0 0 17 0 0 18 0 0 18 0 0 22 0 0 21 0 0 19 0 0 21 0 0 25 0 0 23 0 0 24 0 0 27 0 0 27 0 0 23 0 0 25 0 0 29 0 0 27 0 0 25 0 0 29 0 0 24 0 0 28 0 0 26 0 0 26 0 0 22 0 0 24 0 0 22 0 0 26 0 0 23 0 0 27 0 0 26 0 0 23 0 0 25 0 0 22 0 0 19 0 0 21 0 0 21 0 0 21 0 0 20 0 0 17 0 0 17 0 0 18 0 0 12 0 0 16 0 0 12 0 0 11 0 0 12 0 0 10 0 0 7 0 0 8 0 0 7 0 0 
3 0 0 9 0 0 6 0 0 10 0 0 9 0 0 12 0 0 13 0 0 15 0 0 14 0 0 17 0 0 19 0 0 23 0 0 21 0 0 21 0 0 22 0 0 21 0 0 25 0 0 24 0 0 29 0 0 24 0 0 30 0 0 27 0 0 32 0 0 27 0 0 30 0 0 28 0 0 32 0 0 32 0 0 29 0 0 30 0 0 29 0 0 29 0 0 29 0 0 32 0 0 30 0 0 30 0 0 31 0 0 32 0 0 29 0 0 29 0 0 25 0 0 29 0 0 28 0 0 25 0 0 25 0 0 24 0 0 22 0 0 22 0 0 19 0 0 18 0 0 18 0 0 19 0 0 14 0 0 14 0 0 13 0 0 12 0 0 10 0 0 9 0 0 9 0 0 5 0 0 
4 0 0 9 0 0 10 0 0 10 0 0 12 0 0 12 0 0 13 0 0 14 0 0 16 0 0 18 0 0 22 0 0 25 0 0 26 0 0 27 0 0 29 0 0 30 0 0 32 0 0 37 0 0 35 0 0 35 0 0 35 0 0 36 0 0 35 0 0 38 0 0 35 0 0 36 0 0 40 0 0 36 0 0 37 0 0 35 0 0 39 0 0 40 0 0 36 0 0 33 0 0 36 0 0 33 0 0 36 0 0 35 0 0 35 0 0 35 0 0 36 0 0 34 0 0 36 0 0 32 0 0 33 0 0 29 0 0 29 0 0 26 0 0 25 0 0 25 0 0 22 0 0 19 0 0 19 0 0 15 0 0 13 0 0 12 0 0 12 0 0 10 0 0 9 0 0 11 0 0 
3 0 0 7 0 0 10 0 0 11 0 0 13 0 0 13 0 0 15 0 0 15 0 0 19 0 0 22 0 0 28 0 0 31 0 0 34 0 0 37 0 0 38 0 0 41 0 0 41 0 0 41 0 0 45 0 0 42 0 0 40 0 0 43 0 0 45 0 0 49 0 0 50 0 0 49 0 0 49 0 0 50 0 0 50 0 0 53 0 0 46 0 0 46 0 0 47 0 0 51 0 0 43 0 0 41 0 0 50 0 0 48 0 0 46 0 0 50 0 0 45 0 0 51 0 0 44 0 0 47 0 0 41 0 0 39 0 0 37 0 0 37 0 0 40 0 0 31 0 0 33 0 0 20 0 0 17 0 0 17 0 0 13 0 0 13 0 0 14 0 0 12 0 0 11 0 0 7 0 0 
3 0 0 9 0 0 9 0 0 13 0 0 13 0 0 14 0 0 15 0 0 17 0 0 23 0 0 28 0 0 363 0 0 743 0 0 774 0 0 757 0 0 766 0 0 755 0 0 728 0 0 744 0 0 737 0 0 709 0 0 792 0 0 718 0 0 781 0 0 732 0 0 776 0 0 751 0 0 796 0 0 690 0 0 735 0 0 798 0 0 800 0 0 808 0 0 731 0 0 722 0 0 774 0 0 736 0 0 738 0 0 739 0 0 746 0 0 704 0 0 774 0 0 747 0 0 709 0 0 753 0 0 773 0 0 798 0 0 780 0 0 725 0 0 679 0 0 746 0 0 436 0 0 26 0 0 22 0 0 23 0 0 17 0 0 16 0 0 13 0 0 11 0 0 12 0 0 8 0 0 
5 0 0 9 0 0 10 0 0 11 0 0 14 0 0 14 0 0 19 0 0 18 0 0 25 0 0 36 0 0 730 0 0 1393 0 0 1442 0 0 1400 0 0 1319 0 0 1340 0 0 1418 0 0 1474 0 0 1341 0 0 1388 0 0 1607 0 0 1421 0 0 1412 0 0 1463 0 0 1367 0 0 1549 0 0 1463 0 0 1330 0 0 1379 0 0 1506 0 0 1424 0 0 1452 0 0 1478 0 0 1474 0 0 1491 0 0 1410 0 0 1502 0 0 1504 0 0 1379 0 0 1413 0 0 1486 0 0 1463 0 0 1385 0 0 1564 0 0 1480 0 0 1485 0 0 1467 0 0 1469 0 0 1302 0 0 1307 0 0 693 0 0 32 0 0 26 0 0 22 0 0 15 0 0 16 0 0 13 0 0 11 0 0 9 0 0 8 0 0 
4 0 0 8 0 0 12 0 0 10 0 0 13 0 0 16 0 0 20 0 0 23 0 0 32 0 0 31 0 0 766 0 0 1411 0 0 1474 0 0 1424 0 0 1385 0 0 1408 0 0 1365 0 0 1419 0 0 1453 0 0 1500 0 0 1432 0 0 1450 0 0 1441 0 0 1444 0 0 1384 0 0 1506 0 0 1448 0 0 1412 0 0 1491 0 0 1427 0 0 1448 0 0 1479 0 0 1481 0 0 1468 0 0 1506 0 0 1449 0 0 1381 0 0 1466 0 0 1383 0 0 1481 0 0 1467 0 0 1589 0 0 1392 0 0 1416 0 0 1393 0 0 1470 0 0 1439 0 0 1497 0 0 1451 0 0 1450 0 0 733 0 0 30 0 0 25 0 0 20 0 0 15 0 0 16 0 0 15 0 0 12 0 0 11 0 0 10 0 0 
4 0 0 9 0 0 12 0 0 15 0 0 14 0 0 17 0 0 18 0 0 24 0 0 30 0 0 36 0 0 763 0 0 1420 0 0 1504 0 0 1584 0 0 1431 0 0 1364 0 0 1480 0 0 1510 0 0 1391 0 0 1459 0 0 1355 0 0 1431 0 0 1441 0 0 1387 0 0 1550 0 0 1531 0 0 1408 0 0 1497 0 0 1325 0 0 1510 0 0 1473 0 0 1605 0 0 1530 0 0 1473 0 0 1427 0 0 1445 0 0 1459 0 0 1379 0 0 1429 0 0 1428 0 0 1465 0 0 1485 0 0 1409 0 0 1386 0 0 1511 0 0 1605 0 0 1473 0 0 1456 0 0 1591 0 0 1512 0 0 796 0 0 39 0 0 29 0 0 24 0 0 17 0 0 15 0 0 13 0 0 13 0 0 11 0 0 11 0 0 
7 0 0 9 0 0 14 0 0 13 0 0 16 0 0 18 0 0 20 0 0 24 0 0 25 0 0 36 0 0 735 0 0 1417 0 0 1485 0 0 1399 0 0 1566 0 0 1425 0 0 1722 0 0 1485 0 0 1424 0 0 1439 0 0 1436 0 0 1456 0 0 1552 0 0 1370 0 0 1533 0 0 1452 0 0 1521 0 0 1452 0 0 1543 0 0 1505 0 0 1449 0 0 1472 0 0 1443 0 0 1540 0 0 1565 0 0 1424 0 0 1366 0 0 1481 0 0 1355 0 0 1444 0 0 1354 0 0 1455 0 0 1449 0 0 1367 0 0 1500 0 0 1490 0 0 1446 0 0 1428 0 0 1458 0 0 1792 0 0 740 0 0 41 0 0 33 0 0 22 0 0 19 0 0 16 0 0 14 0 0 13 0 0 14 0 0 9 0 0 
5 0 0 11 0 0 12 0 0 13 0 0 14 0 0 20 0 0 22 0 0 21 0 0 27 0 0 40 0 0 727 0 0 1421 0 0 1430 0 0 1454 0 0 1513 0 0 1981 0 0 1492 0 0 1549 0 0 1402 0 0 1404 0 0 1463 0 0 1513 0 0 1478 0 0 1503 0 0 1519 0 0 1469 0 0 1483 0 0 1516 0 0 1730 0 0 1445 0 0 1392 0 0 1438 0 0 1414 0 0 1416 0 0 1448 0 0 1436 0 0 1471 0 0 1375 0 0 1545 0 0 1525 0 0 1319 0 0 1545 0 0 1492 0 0 1405 0 0 1522 0 0 1500 0 0 1495 0 0 1461 0 0 1444 0 0 1452 0 0 718 0 0 41 0 0 30 0 0 23 0 0 20 0 0 16 0 0 16 0 0 16 0 0 10 0 0 10 0 0 
6 0 0 10 0 0 13 0 0 15 0 0 14 0 0 18 0 0 20 0 0 21 0 0 33 0 0 43 0 0 767 0 0 1448 0 0 1477 0 0 1388 0 0 1431 0 0 1464 0 0 1520 0 0 1675 0 0 1425 0 0 1416 0 0 1435 0 0 1486 0 0 1593 0 0 1437 0 0 1609 0 0 1446 0 0 1427 0 0 1445 0 0 1408 0 0 1523 0 0 1496 0 0 1415 0 0 1509 0 0 1440 0 0 1563 0 0 1447 0 0 1559 0 0 1470 0 0 1431 0 0 1519 0 0 1492 0 0 1506 0 0 1450 0 0 1483 0 0 1460 0 0 1402 0 0 1387 0 0 1389 0 0 1513 0 0 1409 0 0 715 0 0 43 0 0 31 0 0 28 0 0 21 0 0 22 0 0 18 0 0 15 0 0 15 0 0 11 0 0 
5 0 0 11 0 0 12 0 0 16 0 0 16 0 0 18 0 0 22 0 0 28 0 0 32 0 0 38 0 0 762 0 0 1468 0 0 1453 0 0 1459 0 0 1498 0 0 1428 0 0 1548 0 0 1412 0 0 1560 0 0 1472 0 0 1441 0 0 1540 0 0 1410 0 0 1467 0 0 1496 0 0 1414 0 0 1429 0 0 1499 0 0 1470 0 0 1347 0 0 1471 0 0 1515 0 0 1477 0 0 1586 0 0 1609 0 0 1586 0 0 1566 0 0 1321 0 0 1508 0 0 1516 0 0 1798 0 0 1417 0 0 1558 0 0 1421 0 0 1523 0 0 1448 0 0 1596 0 0 1487 0 0 1372 0 0 1470 0 0 771 0 0 41 0 0 32 0 0 29 0 0 20 0 0 17 0 0 16 0 0 15 0 0 13 0 0 12 0 0 
6 0 0 10 0 0 15 0 0 15 0 0 19 0 0 20 0 0 23 0 0 26 0 0 31 0 0 47 0 0 740 0 0 1415 0 0 1468 0 0 1434 0 0 1521 0 0 1532 0 0 1452 0 0 1558 0 0 1767 0 0 1456 0 0 1541 0 0 1594 0 0 1511 0 0 1490 0 0 1586 0 0 1545 0 0 1485 0 0 1551 0 0 1520 0 0 1645 0 0 1473 0 0 1538 0 0 1454 0 0 1443 0 0 1505 0 0 1512 0 0 1505 0 0 1458 0 0 1477 0 0 1451 0 0 1414 0 0 1424 0 0 1409 0 0 1407 0 0 1508 0 0 1486 0 0 1485 0 0 1468 0 0 1437 0 0 1443 0 0 729 0 0 47 0 0 31 0 0 24 0 0 25 0 0 20 0 0 18 0 0 12 0 0 11 0 0 12 0 0 
5 0 0 14 0 0 12 0 0 15 0 0 17 0 0 21 0 0 23 0 0 28 0 0 33 0 0 47 0 0 814 0 0 1393 0 0 1455 0 0 1499 0 0 1516 0 0 1392 0 0 1718 0 0 1452 0 0 1283 0 0 1509 0 0 1448 0 0 1386 0 0 1460 0 0 1433 0 0 1534 0 0 1405 0 0 1597 0 0 1410 0 0 1498 0 0 1498 0 0 1495 0 0 1417 0 0 1464 0 0 1525 0 0 1520 0 0 1568 0 0 1584 0 0 1479 0 0 1582 0 0 1500 0 0 1477 0 0 1481 0 0 1463 0 0 1398 0 0 1541 0 0 1456 0 0 1508 0 0 1465 0 0 1445 0 0 1411 0 0 796 0 0 41 0 0 32 0 0 27 0 0 27 0 0 19 0 0 18 0 0 17 0 0 15 0 0 11 0 0 
5 0 0 11 0 0 14 0 0 16 0 0 18 0 0 22 0 0 21 0 0 29 0 0 33 0 0 42 0 0 768 0 0 1512 0 0 1486 0 0 1542 0 0 1442 0 0 1444 0 0 1453 0 0 1489 0 0 1479 0 0 1562 0 0 1462 0 0 1445 0 0 1419 0 0 1557 0 0 1462 0 0 1529 0 0 1545 0 0 1491 0 0 1553 0 0 1513 0 0 1478 0 0 1532 0 0 1440 0 0 1370 0 0 1466 0 0 1389 0 0 1499 0 0 1499 0 0 1532 0 0 1473 0 0 1542 0 0 1555 0 0 1400 0 0 1526 0 0 1381 0 0 1501 0 0 1440 0 0 1791 0 0 1401 0 0 1470 0 0 717 0 0 45 0 0 35 0 0 28 0 0 25 0 0 22 0 0 21 0 0 20 0 0 17 0 0 14 0 0 
5 0 0 12 0 0 16 0 0 18 0 0 18 0 0 21 0 0 24 0 0 29 0 0 34 0 0 44 0 0 814 0 0 1363 0 0 1518 0 0 1461 0 0 1478 0 0 1595 0 0 1383 0 0 1549 0 0 1536 0 0 1366 0 0 1487 0 0 1475 0 0 1469 0 0 1440 0 0 1442 0 0 1439 0 0 1494 0 0 1452 0 0 1548 0 0 1392 0 0 1451 0 0 1422 0 0 1509 0 0 1443 0 0 1580 0 0 1419 0 0 1487 0 0 1471 0 0 1513 0 0 1518 0 0 1561 0 0 1503 0 0 1531 0 0 1525 0 0 1467 0 0 1425 0 0 1432 0 0 1518 0 0 1491 0 0 1503 0 0 773 0 0 49 0 0 35 0 0 28 0 0 25 0 0 20 0 0 19 0 0 17 0 0 14 0 0 17 0 0 
6 0 0 13 0 0 15 0 0 17 0 0 18 0 0 23 0 0 26 0 0 27 0 0 37 0 0 51 0 0 786 0 0 1501 0 0 1423 0 0 1379 0 0 1463 0 0 1471 0 0 1600 0 0 1436 0 0 1480 0 0 1491 0 0 1420 0 0 1450 0 0 1546 0 0 1392 0 0 1380 0 0 1483 0 0 1412 0 0 1452 0 0 1488 0 0 1740 0 0 1513 0 0 1482 0 0 1448 0 0 1458 0 0 1490 0 0 1531 0 0 1580 0 0 1530 0 0 1583 0 0 1453 0 0 1446 0 0 1473 0 0 1455 0 0 1537 0 0 1481 0 0 1568 0 0 1425 0 0 1424 0 0 1399 0 0 1485 0 0 755 0 0 47 0 0 30 0 0 32 0 0 25 0 0 22 0 0 21 0 0 19 0 0 14 0 0 11 0 0 
6 0 0 13 0 0 16 0 0 18 0 0 21 0 0 22 0 0 26 0 0 33 0 0 39 0 0 46 0 0 682 0 0 1464 0 0 1436 0 0 1445 0 0 1448 0 0 1407 0 0 1512 0 0 1464 0 0 1460 0 0 1493 0 0 1530 0 0 1540 0 0 1470 0 0 1425 0 0 1354 0 0 1386 0 0 1483 0 0 1495 0 0 1423 0 0 1500 0 0 1371 0 0 1414 0 0 1527 0 0 1570 0 0 1454 0 0 1458 0 0 1571 0 0 1403 0 0 1503 0 0 1463 0 0 1496 0 0 1569 0 0 1505 0 0 1497 0 0 1519 0 0 1447 0 0 1489 0 0 1405 0 0 1885 0 0 1426 0 0 741 0 0 48 0 0 34 0 0 33 0 0 24 0 0 23 0 0 19 0 0 16 0 0 14 0 0 12 0 0 
5 0 0 13 0 0 16 0 0 17 0 0 18 0 0 19 0 0 27 0 0 30 0 0 31 0 0 45 0 0 688 0 0 1399 0 0 1434 0 0 1536 0 0 1419 0 0 1425 0 0 1513 0 0 1495 0 0 1561 0 0 1458 0 0 1371 0 0 1480 0 0 1376 0 0 1489 0 0 1482 0 0 1479 0 0 1553 0 0 1435 0 0 1492 0 0 1418 0 0 1460 0 0 1431 0 0 1533 0 0 1557 0 0 1430 0 0 1493 0 0 1487 0 0 1394 0 0 1512 0 0 1520 0 0 1490 0 0 1562 0 0 1546 0 0 1472 0 0 1456 0 0 1453 0 0 1482 0 0 1463 0 0 1390 0 0 1653 0 0 733 0 0 48 0 0 39 0 0 29 0 0 25 0 0 22 0 0 18 0 0 18 0 0 17 0 0 14 0 0 
5 0 0 14 0 0 14 0 0 17 0 0 16 0 0 23 0 0 24 0 0 35 0 0 36 0 0 49 0 0 640 0 0 1323 0 0 1420 0 0 1402 0 0 1474 0 0 1555 0 0 1494 0 0 1563 0 0 1538 0 0 1494 0 0 1459 0 0 1534 0 0 1585 0 0 1497 0 0 1565 0 0 1516 0 0 2532 0 0 1529 0 0 1431 0 0 1443 0 0 1518 0 0 1444 0 0 1547 0 0 1461 0 0 1489 0 0 1799 0 0 1398 0 0 1466 0 0 1451 0 0 1499 0 0 1496 0 0 1517 0 0 1511 0 0 1455 0 0 1399 0 0 1483 0 0 1535 0 0 1416 0 0 1505 0 0 1411 0 0 810 0 0 43 0 0 31 0 0 28 0 0 25 0 0 24 0 0 20 0 0 16 0 0 14 0 0 15 0 0 
6 0 0 15 0 0 15 0 0 17 0 0 20 0 0 23 0 0 28 0 0 29 0 0 33 0 0 44 0 0 830 0 0 1458 0 0 1539 0 0 1448 0 0 1557 0 0 1570 0 0 1397 0 0 1500 0 0 1406 0 0 1554 0 0 1456 0 0 1482 0 0 1484 0 0 1545 0 0 1476 0 0 1415 0 0 1533 0 0 1560 0 0 1523 0 0 1438 0 0 1690 0 0 1475 0 0 1595 0 0 1449 0 0 1499 0 0 1542 0 0 1606 0 0 1456 0 0 1536 0 0 1434 0 0 1531 0 0 1666 0 0 1529 0 0 1501 0 0 1500 0 0 1502 0 0 1513 0 0 1469 0 0 1493 0 0 1425 0 0 727 0 0 48 0 0 34 0 0 29 0 0 23 0 0 20 0 0 20 0 0 19 0 0 18 0 0 14 0 0 
7 0 0 14 0 0 15 0 0 17 0 0 20 0 0 21 0 0 27 0 0 26 0 0 37 0 0 46 0 0 761 0 0 1563 0 0 1382 0 0 1541 0 0 1508 0 0 1490 0 0 1497 0 0 4926 0 0 1494 0 0 1478 0 0 1427 0 0 1514 0 0 1579 0 0 1489 0 0 1416 0 0 1471 0 0 1554 0 0 1548 0 0 1419 0 0 1536 0 0 1391 0 0 1568 0 0 1551 0 0 1522 0 0 1459 0 0 1569 0 0 1549 0 0 1456 0 0 1442 0 0 1481 0 0 1526 0 0 1450 0 0 1562 0 0 1490 0 0 1503 0 0 1420 0 0 1479 0 0 1545 0 0 1457 0 0 1483 0 0 711 0 0 49 0 0 39 0 0 29 0 0 24 0 0 23 0 0 19 0 0 16 0 0 15 0 0 13 0 0 
7 0 0 16 0 0 18 0 0 18 0 0 20 0 0 22 0 0 23 0 0 33 0 0 36 0 0 46 0 0 1618 0 0 1437 0 0 1423 0 0 1447 0 0 1640 0 0 1453 0 0 1491 0 0 1461 0 0 1623 0 0 1399 0 0 1425 0 0 1417 0 0 1427 0 0 1498 0 0 1466 0 0 1488 0 0 1639 0 0 1418 0 0 1531 0 0 1544 0 0 1529 0 0 1485 0 0 1434 0 0 1516 0 0 1465 0 0 1444 0 0 1406 0 0 1477 0 0 1523 0 0 1441 0 0 1527 0 0 1496 0 0 1642 0 0 1384 0 0 1509 0 0 1428 0 0 1476 0 0 1350 0 0 1415 0 0 1399 0 0 743 0 0 44 0 0 34 0 0 30 0 0 24 0 0 25 0 0 19 0 0 17 0 0 16 0 0 16 0 0 
5 0 0 17 0 0 16 0 0 20 0 0 21 0 0 24 0 0 26 0 0 30 0 0 44 0 0 51 0 0 613 0 0 1403 0 0 1350 0 0 1442 0 0 1461 0 0 1432 0 0 1433 0 0 1504 0 0 1514 0 0 1426 0 0 1504 0 0 1506 0 0 1482 0 0 1447 0 0 1404 0 0 1541 0 0 1536 0 0 1465 0 0 1470 0 0 1430 0 0 1531 0 0 1436 0 0 1505 0 0 1486 0 0 1487 0 0 1425 0 0 1463 0 0 1470 0 0 1458 0 0 1443 0 0 1421 0 0 1504 0 0 1742 0 0 1430 0 0 1532 0 0 1545 0 0 1437 0 0 1385 0 0 1735 0 0 1439 0 0 788 0 0 49 0 0 36 0 0 30 0 0 27 0 0 23 0 0 23 0 0 17 0 0 16 0 0 13 0 0 
6 0 0 15 0 0 16 0 0 17 0 0 19 0 0 26 0 0 29 0 0 28 0 0 33 0 0 50 0 0 681 0 0 1375 0 0 1519 0 0 1518 0 0 1426 0 0 1473 0 0 1504 0 0 1439 0 0 1425 0 0 1447 0 0 1516 0 0 1512 0 0 1414 0 0 1464 0 0 1408 0 0 1495 0 0 1537 0 0 1486 0 0 1421 0 0 1477 0 0 1424 0 0 1464 0 0 1379 0 0 1585 0 0 1472 0 0 1466 0 0 1533 0 0 1410 0 0 1507 0 0 1460 0 0 1500 0 0 1473 0 0 1410 0 0 1512 0 0 1517 0 0 1538 0 0 1540 0 0 1497 0 0 1453 0 0 1433 0 0 694 0 0 52 0 0 32 0 0 29 0 0 29 0 0 22 0 0 18 0 0 16 0 0 16 0 0 14 0 0 
6 0 0 12 0 0 15 0 0 16 0 0 21 0 0 21 0 0 24 0 0 28 0 0 36 0 0 49 0 0 743 0 0 1411 0 0 1538 0 0 1501 0 0 1472 0 0 1500 0 0 1531 0 0 1537 0 0 1549 0 0 1583 0 0 1453 0 0 1511 0 0 1491 0 0 1510 0 0 1504 0 0 1536 0 0 1470 0 0 1523 0 0 1403 0 0 1472 0 0 1569 0 0 1406 0 0 1463 0 0 1548 0 0 1532 0 0 1633 0 0 1502 0 0 1391 0 0 1459 0 0 1412 0 0 1568 0 0 1544 0 0 1371 0 0 1524 0 0 1433 0 0 1502 0 0 1374 0 0 1480 0 0 1342 0 0 1503 0 0 793 0 0 42 0 0 34 0 0 34 0 0 29 0 0 23 0 0 20 0 0 19 0 0 16 0 0 16 0 0 
5 0 0 12 0 0 14 0 0 20 0 0 21 0 0 21 0 0 28 0 0 30 0 0 37 0 0 47 0 0 721 0 0 1417 0 0 1466 0 0 1394 0 0 1430 0 0 1459 0 0 1514 0 0 1550 0 0 1549 0 0 1464 0 0 1402 0 0 1481 0 0 1484 0 0 1533 0 0 1566 0 0 1452 0 0 1391 0 0 1445 0 0 1516 0 0 1455 0 0 1508 0 0 1491 0 0 1514 0 0 1406 0 0 1443 0 0 1435 0 0 1463 0 0 1413 0 0 1461 0 0 1487 0 0 1620 0 0 1436 0 0 1525 0 0 1452 0 0 1429 0 0 1463 0 0 1438 0 0 1464 0 0 1409 0 0 1370 0 0 813 0 0 46 0 0 35 0 0 29 0 0 26 0 0 25 0 0 20 0 0 17 0 0 14 0 0 13 0 0 
5 0 0 11 0 0 14 0 0 18 0 0 18 0 0 24 0 0 27 0 0 27 0 0 38 0 0 47 0 0 780 0 0 1534 0 0 1324 0 0 1456 0 0 1400 0 0 1390 0 0 1408 0 0 1452 0 0 1424 0 0 1591 0 0 1975 0 0 1500 0 0 1530 0 0 1419 0 0 1498 0 0 1508 0 0 1508 0 0 1584 0 0 1409 0 0 1372 0 0 1488 0 0 1427 0 0 1484 0 0 1475 0 0 1448 0 0 1482 0 0 1443 0 0 1531 0 0 1509 0 0 1384 0 0 1533 0 0 1437 0 0 1368 0 0 1538 0 0 1515 0 0 1582 0 0 1455 0 0 1503 0 0 1430 0 0 1491 0 0 714 0 0 45 0 0 36 0 0 29 0 0 26 0 0 19 0 0 21 0 0 17 0 0 15 0 0 13 0 0 
5 0 0 14 0 0 15 0 0 19 0 0 21 0 0 21 0 0 24 0 0 31 0 0 32 0 0 52 0 0 790 0 0 1461 0 0 1414 0 0 1458 0 0 1390 0 0 1397 0 0 1398 0 0 1532 0 0 1370 0 0 1465 0 0 1517 0 0 1385 0 0 1632 0 0 1477 0 0 1526 0 0 1588 0 0 1517 0 0 1412 0 0 1470 0 0 1425 0 0 1432 0 0 1478 0 0 1642 0 0 1528 0 0 1522 0 0 1476 0 0 1403 0 0 1548 0 0 1473 0 0 1491 0 0 1504 0 0 1417 0 0 1442 0 0 1468 0 0 1491 0 0 1524 0 0 1502 0 0 1439 0 0 1428 0 0 1390 0 0 682 0 0 48 0 0 40 0 0 28 0 0 29 0 0 23 0 0 20 0 0 19 0 0 17 0 0 15 0 0 
6 0 0 13 0 0 16 0 0 18 0 0 21 0 0 23 0 0 26 0 0 29 0 0 34 0 0 46 0 0 801 0 0 1513 0 0 1455 0 0 1375 0 0 1492 0 0 1537 0 0 1590 0 0 1477 0 0 1467 0 0 1484 0 0 1398 0 0 1470 0 0 1445 0 0 1470 0 0 1556 0 0 1461 0 0 1471 0 0 1553 0 0 1551 0 0 1404 0 0 1472 0 0 1475 0 0 1564 0 0 1362 0 0 1479 0 0 1524 0 0 1444 0 0 1443 0 0 1621 0 0 1542 0 0 1445 0 0 1531 0 0 1538 0 0 1550 0 0 1507 0 0 1441 0 0 1472 0 0 1376 0 0 6714 0 0 1443 0 0 841 0 0 41 0 0 33 0 0 35 0 0 31 0 0 22 0 0 19 0 0 17 0 0 14 0 0 13 0 0 
5 0 0 14 0 0 16 0 0 19 0 0 17 0 0 21 0 0 25 0 0 33 0 0 35 0 0 42 0 0 754 0 0 1449 0 0 1534 0 0 1434 0 0 1425 0 0 1462 0 0 1528 0 0 1460 0 0 1537 0 0 1432 0 0 1470 0 0 1466 0 0 1451 0 0 1485 0 0 1505 0 0 1500 0 0 1417 0 0 1527 0 0 1505 0 0 1522 0 0 1447 0 0 1525 0 0 1405 0 0 1445 0 0 1445 0 0 1481 0 0 1417 0 0 1396 0 0 1462 0 0 1451 0 0 1423 0 0 1651 0 0 1490 0 0 1486 0 0 1510 0 0 1445 0 0 1468 0 0 1429 0 0 1423 0 0 1420 0 0 760 0 0 44 0 0 37 0 0 29 0 0 26 0 0 21 0 0 19 0 0 18 0 0 15 0 0 14 0 0 
6 0 0 13 0 0 13 0 0 17 0 0 18 0 0 23 0 0 24 0 0 32 0 0 35 0 0 48 0 0 748 0 0 1434 0 0 1393 0 0 1514 0 0 1401 0 0 1543 0 0 1499 0 0 1551 0 0 1511 0 0 1432 0 0 1498 0 0 1521 0 0 1458 0 0 1510 0 0 1487 0 0 1481 0 0 1481 0 0 1472 0 0 1385 0 0 1513 0 0 1611 0 0 1475 0 0 1350 0 0 1568 0 0 1520 0 0 1505 0 0 1480 0 0 1508 0 0 1510 0 0 1359 0 0 1451 0 0 1475 0 0 1477 0 0 1495 0 0 1545 0 0 1410 0 0 1365 0 0 1430 0 0 1513 0 0 1462 0 0 744 0 0 43 0 0 36 0 0 32 0 0 26 0 0 21 0 0 17 0 0 18 0 0 15 0 0 12 0 0 
5 0 0 13 0 0 14 0 0 17 0 0 20 0 0 24 0 0 23 0 0 31 0 0 36 0 0 45 0 0 837 0 0 1490 0 0 1433 0 0 1492 0 0 1456 0 0 1451 0 0 1388 0 0 1475 0 0 1466 0 0 1512 0 0 1491 0 0 1418 0 0 1520 0 0 1455 0 0 1517 0 0 1409 0 0 1440 0 0 1512 0 0 1509 0 0 1508 0 0 1424 0 0 1528 0 0 1482 0 0 1504 0 0 1531 0 0 1479 0 0 1511 0 0 1463 0 0 1531 0 0 1520 0 0 1505 0 0 1459 0 0 1459 0 0 1425 0 0 1443 0 0 1458 0 0 1482 0 0 1460 0 0 1442 0 0 1410 0 0 699 0 0 41 0 0 36 0 0 27 0 0 25 0 0 22 0 0 18 0 0 17 0 0 14 0 0 13 0 0 
4 0 0 12 0 0 14 0 0 17 0 0 19 0 0 20 0 0 25 0 0 28 0 0 32 0 0 41 0 0 761 0 0 1390 0 0 1500 0 0 1367 0 0 1492 0 0 1404 0 0 1546 0 0 1414 0 0 1449 0 0 1438 0 0 1568 0 0 1480 0 0 1534 0 0 1533 0 0 1495 0 0 1494 0 0 1454 0 0 1535 0 0 1485 0 0 1494 0 0 1455 0 0 1446 0 0 1462 0 0 1489 0 0 1528 0 0 1475 0 0 1511 0 0 1552 0 0 1427 0 0 1540 0 0 1480 0 0 1431 0 0 1440 0 0 1459 0 0 1439 0 0 1478 0 0 1512 0 0 1455 0 0 1488 0 0 1389 0 0 707 0 0 43 0 0 41 0 0 29 0 0 25 0 0 22 0 0 15 0 0 17 0 0 16 0 0 12 0 0 
5 0 0 12 0 0 15 0 0 15 0 0 16 0 0 20 0 0 25 0 0 29 0 0 32 0 0 48 0 0 756 0 0 1389 0 0 1419 0 0 1418 0 0 1527 0 0 1524 0 0 1518 0 0 1388 0 0 1431 0 0 1516 0 0 1470 0 0 1888 0 0 1503 0 0 1400 0 0 1489 0 0 1488 0 0 1451 0 0 1423 0 0 1494 0 0 1566 0 0 1421 0 0 1423 0 0 1492 0 0 1588 0 0 1505 0 0 1538 0 0 1663 0 0 1461 0 0 1459 0 0 1485 0 0 1618 0 0 1407 0 0 1534 0 0 1434 0 0 1550 0 0 1451 0 0 1512 0 0 1622 0 0 1405 0 0 1356 0 0 717 0 0 48 0 0 29 0 0 29 0 0 24 0 0 23 0 0 18 0 0 14 0 0 14 0 0 13 0 0 
5 0 0 13 0 0 14 0 0 17 0 0 18 0 0 21 0 0 23 0 0 27 0 0 32 0 0 44 0 0 745 0 0 1341 0 0 1487 0 0 1458 0 0 1496 0 0 1495 0 0 1449 0 0 1472 0 0 1471 0 0 1393 0 0 1528 0 0 1417 0 0 1435 0 0 1495 0 0 1559 0 0 1593 0 0 1492 0 0 1527 0 0 1403 0 0 1485 0 0 1461 0 0 1475 0 0 1553 0 0 1494 0 0 1782 0 0 1508 0 0 1403 0 0 1378 0 0 1543 0 0 1469 0 0 1518 0 0 1478 0 0 1529 0 0 1561 0 0 1460 0 0 1530 0 0 1468 0 0 1495 0 0 1426 0 0 1480 0 0 776 0 0 44 0 0 35 0 0 25 0 0 22 0 0 21 0 0 16 0 0 16 0 0 14 0 0 15 0 0 
4 0 0 12 0 0 12 0 0 14 0 0 19 0 0 21 0 0 22 0 0 26 0 0 30 0 0 44 0 0 747 0 0 1376 0 0 1517 0 0 1467 0 0 1403 0 0 1452 0 0 1404 0 0 1502 0 0 1520 0 0 1484 0 0 1523 0 0 1395 0 0 1516 0 0 1464 0 0 1504 0 0 1446 0 0 1522 0 0 1529 0 0 1453 0 0 1473 0 0 1446 0 0 1532 0 0 1489 0 0 1442 0 0 1406 0 0 1373 0 0 1347 0 0 1595 0 0 1364 0 0 1425 0 0 1440 0 0 1432 0 0 1521 0 0 1579 0 0 1411 0 0 1453 0 0 1438 0 0 1551 0 0 1476 0 0 1392 0 0 712 0 0 41 0 0 32 0 0 25 0 0 23 0 0 22 0 0 18 0 0 16 0 0 12 0 0 12 0 0 
5 0 0 13 0 0 14 0 0 15 0 0 18 0 0 18 0 0 22 0 0 25 0 0 30 0 0 39 0 0 803 0 0 1436 0 0 1451 0 0 1670 0 0 1441 0 0 1574 0 0 1476 0 0 1585 0 0 1490 0 0 1431 0 0 1529 0 0 1483 0 0 1501 0 0 1526 0 0 1446 0 0 1419 0 0 1386 0 0 1486 0 0 1453 0 0 1468 0 0 1476 0 0 1469 0 0 1491 0 0 1524 0 0 1463 0 0 1392 0 0 1469 0 0 1497 0 0 1434 0 0 1342 0 0 1473 0 0 1499 0 0 1556 0 0 1499 0 0 1462 0 0 1478 0 0 1419 0 0 1448 0 0 1547 0 0 1443 0 0 750 0 0 44 0 0 29 0 0 31 0 0 20 0 0 21 0 0 14 0 0 14 0 0 14 0 0 11 0 0 
5 0 0 12 0 0 14 0 0 15 0 0 16 0 0 18 0 0 20 0 0 26 0 0 28 0 0 41 0 0 757 0 0 1383 0 0 1333 0 0 1385 0 0 1501 0 0 1488 0 0 1470 0 0 1514 0 0 1487 0 0 1439 0 0 1395 0 0 1522 0 0 1419 0 0 1461 0 0 1510 0 0 1374 0 0 1405 0 0 1494 0 0 1462 0 0 1451 0 0 1421 0 0 1461 0 0 1529 0 0 1497 0 0 1482 0 0 1580 0 0 1513 0 0 1410 0 0 1382 0 0 1420 0 0 2008 0 0 1457 0 0 1487 0 0 1475 0 0 1423 0 0 1527 0 0 1412 0 0 1407 0 0 1426 0 0 1484 0 0 692 0 0 47 0 0 32 0 0 25 0 0 23 0 0 18 0 0 18 0 0 14 0 0 11 0 0 12 0 0 
5 0 0 12 0 0 16 0 0 14 0 0 17 0 0 19 0 0 18 0 0 21 0 0 32 0 0 37 0 0 708 0 0 1424 0 0 1384 0 0 1352 0 0 1492 0 0 1579 0 0 1428 0 0 1446 0 0 1477 0 0 1344 0 0 1404 0 0 1488 0 0 1503 0 0 1527 0 0 1566 0 0 1531 0 0 1447 0 0 1545 0 0 1503 0 0 1513 0 0 1424 0 0 1534 0 0 1511 0 0 2032 0 0 1417 0 0 1470 0 0 1458 0 0 1504 0 0 1551 0 0 1727 0 0 1616 0 0 1468 0 0 1512 0 0 1463 0 0 1470 0 0 1411 0 0 1464 0 0 1462 0 0 1434 0 0 1497 0 0 753 0 0 40 0 0 29 0 0 24 0 0 22 0 0 17 0 0 16 0 0 15 0 0 11 0 0 10 0 0 
4 0 0 9 0 0 12 0 0 13 0 0 18 0 0 17 0 0 17 0 0 25 0 0 30 0 0 39 0 0 703 0 0 1399 0 0 1372 0 0 1445 0 0 1448 0 0 1431 0 0 1430 0 0 1482 0 0 1496 0 0 1417 0 0 1456 0 0 1470 0 0 1491 0 0 1469 0 0 1448 0 0 1433 0 0 1502 0 0 1444 0 0 1462 0 0 1496 0 0 1504 0 0 1514 0 0 1384 0 0 1574 0 0 1431 0 0 1491 0 0 1588 0 0 1517 0 0 1485 0 0 1493 0 0 2353 0 0 1488 0 0 1560 0 0 1502 0 0 1450 0 0 1412 0 0 1455 0 0 1475 0 0 1398 0 0 1542 0 0 717 0 0 36 0 0 29 0 0 24 0 0 19 0 0 17 0 0 16 0 0 15 0 0 12 0 0 11 0 0 
4 0 0 9 0 0 11 0 0 10 0 0 14 0 0 15 0 0 16 0 0 22 0 0 28 0 0 37 0 0 730 0 0 1416 0 0 1489 0 0 1471 0 0 1472 0 0 1531 0 0 1391 0 0 1483 0 0 1411 0 0 1535 0 0 1583 0 0 1463 0 0 1417 0 0 1485 0 0 1429 0 0 1479 0 0 1414 0 0 1410 0 0 1383 0 0 1463 0 0 1543 0 0 1508 0 0 1480 0 0 1484 0 0 1517 0 0 1454 0 0 1454 0 0 1491 0 0 1392 0 0 1511 0 0 1501 0 0 1557 0 0 1423 0 0 1533 0 0 1479 0 0 1494 0 0 1548 0 0 1351 0 0 1382 0 0 1388 0 0 767 0 0 36 0 0 27 0 0 23 0 0 19 0 0 17 0 0 13 0 0 14 0 0 11 0 0 12 0 0 
5 0 0 10 0 0 11 0 0 10 0 0 14 0 0 16 0 0 20 0 0 18 0 0 27 0 0 31 0 0 763 0 0 1416 0 0 1547 0 0 1493 0 0 1511 0 0 1447 0 0 1484 0 0 1441 0 0 1506 0 0 1432 0 0 1454 0 0 1407 0 0 1439 0 0 1513 0 0 1445 0 0 1465 0 0 1503 0 0 1468 0 0 1482 0 0 1453 0 0 1535 0 0 1484 0 0 1419 0 0 1458 0 0 1389 0 0 1413 0 0 1423 0 0 1468 0 0 1457 0 0 1391 0 0 1922 0 0 1508 0 0 1460 0 0 1487 0 0 1434 0 0 1426 0 0 1452 0 0 1433 0 0 1441 0 0 1384 0 0 711 0 0 35 0 0 25 0 0 26 0 0 19 0 0 17 0 0 14 0 0 11 0 0 13 0 0 8 0 0 
3 0 0 10 0 0 12 0 0 11 0 0 12 0 0 14 0 0 17 0 0 18 0 0 29 0 0 32 0 0 712 0 0 1418 0 0 1366 0 0 1369 0 0 1334 0 0 1456 0 0 1524 0 0 1439 0 0 1489 0 0 1413 0 0 1369 0 0 1403 0 0 1484 0 0 1497 0 0 1476 0 0 1629 0 0 1388 0 0 1456 0 0 1430 0 0 1386 0 0 1421 0 0 1507 0 0 1399 0 0 1427 0 0 1414 0 0 1495 0 0 1403 0 0 1524 0 0 1426 0 0 1724 0 0 1444 0 0 1432 0 0 1490 0 0 1507 0 0 1442 0 0 1453 0 0 4190 0 0 1330 0 0 1440 0 0 1319 0 0 712 0 0 31 0 0 24 0 0 20 0 0 18 0 0 15 0 0 12 0 0 12 0 0 10 0 0 10 0 0 
3 0 0 10 0 0 9 0 0 13 0 0 13 0 0 14 0 0 15 0 0 19 0 0 24 0 0 29 0 0 339 0 0 769 0 0 721 0 0 675 0 0 790 0 0 708 0 0 684 0 0 777 0 0 773 0 0 749 0 0 666 0 0 731 0 0 708 0 0 721 0 0 696 0 0 719 0 0 703 0 0 807 0 0 780 0 0 812 0 0 759 0 0 731 0 0 780 0 0 720 0 0 737 0 0 736 0 0 842 0 0 742 0 0 702 0 0 682 0 0 750 0 0 694 0 0 754 0 0 711 0 0 730 0 0 747 0 0 782 0 0 713 0 0 734 0 0 741 0 0 360 0 0 25 0 0 21 0 0 20 0 0 14 0 0 12 0 0 13 0 0 13 0 0 11 0 0 9 0 0 
4 0 0 7 0 0 8 0 0 9 0 0 11 0 0 13 0 0 14 0 0 16 0 0 19 0 0 22 0 0 27 0 0 32 0 0 33 0 0 34 0 0 35 0 0 42 0 0 43 0 0 46 0 0 41 0 0 48 0 0 47 0 0 45 0 0 47 0 0 50 0 0 44 0 0 47 0 0 44 0 0 44 0 0 48 0 0 47 0 0 47 0 0 49 0 0 44 0 0 44 0 0 43 0 0 48 0 0 46 0 0 48 0 0 47 0 0 41 0 0 47 0 0 43 0 0 40 0 0 46 0 0 47 0 0 41 0 0 40 0 0 42 0 0 34 0 0 32 0 0 29 0 0 19 0 0 22 0 0 15 0 0 13 0 0 14 0 0 12 0 0 12 0 0 10 0 0 7 0 0 
3 0 0 8 0 0 10 0 0 8 0 0 10 0 0 12 0 0 16 0 0 13 0 0 16 0 0 18 0 0 23 0 0 23 0 0 27 0 0 27 0 0 30 0 0 31 0 0 30 0 0 30 0 0 29 0 0 31 0 0 30 0 0 34 0 0 36 0 0 39 0 0 40 0 0 35 0 0 34 0 0 34 0 0 34 0 0 38 0 0 42 0 0 37 0 0 34 0 0 33 0 0 34 0 0 36 0 0 39 0 0 39 0 0 32 0 0 35 0 0 31 0 0 36 0 0 31 0 0 34 0 0 29 0 0 27 0 0 29 0 0 30 0 0 26 0 0 29 0 0 21 0 0 18 0 0 16 0 0 14 0 0 13 0 0 10 0 0 12 0 0 9 0 0 8 0 0 8 0 0 
3 0 0 8 0 0 8 0 0 10 0 0 12 0 0 10 0 0 11 0 0 13 0 0 16 0 0 14 0 0 16 0 0 18 0 0 19 0 0 23 0 0 24 0 0 24 0 0 24 0 0 23 0 0 27 0 0 26 0 0 27 0 0 26 0 0 31 0 0 32 0 0 31 0 0 32 0 0 27 0 0 31 0 0 31 0 0 29 0 0 29 0 0 30 0 0 28 0 0 31 0 0 32 0 0 30 0 0 33 0 0 32 0 0 26 0 0 29 0 0 26 0 0 30 0 0 27 0 0 26 0 0 27 0 0 24 0 0 23 0 0 22 0 0 20 0 0 18 0 0 18 0 0 14 0 0 17 0 0 15 0 0 11 0 0 10 0 0 8 0 0 10 0 0 8 0 0 7 0 0 
3 0 0 7 0 0 7 0 0 9 0 0 7 0 0 10 0 0 11 0 0 12 0 0 13 0 0 13 0 0 14 0 0 21 0 0 18 0 0 19 0 0 21 0 0 19 0 0 22 0 0 21 0 0 20 0 0 23 0 0 24 0 0 23 0 0 29 0 0 23 0 0 23 0 0 27 0 0 24 0 0 24 0 0 25 0 0 26 0 0 27 0 0 29 0 0 27 0 0 25 0 0 27 0 0 28 0 0 25 0 0 26 0 0 27 0 0 25 0 0 26 0 0 21 0 0 22 0 0 18 0 0 21 0 0 19 0 0 23 0 0 20 0 0 16 0 0 20 0 0 15 0 0 14 0 0 14 0 0 12 0 0 9 0 0 9 0 0 10 0 0 9 0 0 8 0 0 8 0 0 
3 0 0 7 0 0 8 0 0 6 0 0 9 0 0 9 0 0 11 0 0 12 0 0 12 0 0 13 0 0 12 0 0 15 0 0 15 0 0 16 0 0 17 0 0 20 0 0 15 0 0 19 0 0 16 0 0 21 0 0 19 0 0 24 0 0 25 0 0 22 0 0 20 0 0 24 0 0 20 0 0 21 0 0 21 0 0 24 0 0 21 0 0 24 0 0 23 0 0 23 0 0 21 0 0 22 0 0 23 0 0 22 0 0 21 0 0 22 0 0 22 0 0 20 0 0 22 0 0 16 0 0 17 0 0 18 0 0 15 0 0 16 0 0 14 0 0 14 0 0 13 0 0 13 0 0 10 0 0 10 0 0 11 0 0 9 0 0 7 0 0 7 0 0 8 0 0 7 0 0 
2 0 0 6 0 0 6 0 0 7 0 0 8 0 0 9 0 0 9 0 0 9 0 0 14 0 0 11 0 0 11 0 0 13 0 0 13 0 0 13 0 0 15 0 0 18 0 0 14 0 0 15 0 0 19 0 0 19 0 0 18 0 0 17 0 0 18 0 0 19 0 0 20 0 0 19 0 0 24 0 0 23 0 0 18 0 0 20 0 0 22 0 0 23 0 0 19 0 0 19 0 0 20 0 0 17 0 0 19 0 0 19 0 0 20 0 0 20 0 0 17 0 0 19 0 0 17 0 0 17 0 0 16 0 0 14 0 0 14 0 0 14 0 0 15 0 0 15 0 0 13 0 0 12 0 0 11 0 0 11 0 0 8 0 0 9 0 0 9 0 0 8 0 0 7 0 0 7 0 0 
2 0 0 5 0 0 5 0 0 7 0 0 8 0 0 7 0 0 7 0 0 11 0 0 10 0 0 10 0 0 11 0 0 10 0 0 13 0 0 15 0 0 13 0 0 15 0 0 14 0 0 16 0 0 13 0 0 15 0 0 15 0 0 17 0 0 16 0 0 20 0 0 18 0 0 20 0 0 17 0 0 17 0 0 17 0 0 17 0 0 17 0 0 17 0 0 16 0 0 18 0 0 17 0 0 20 0 0 18 0 0 17 0 0 19 0 0 18 0 0 17 0 0 19 0 0 16 0 0 15 0 0 14 0 0 14 0 0 14 0 0 14 0 0 13 0 0 11 0 0 12 0 0 11 0 0 11 0 0 10 0 0 7 0 0 8 0 0 9 0 0 6 0 0 6 0 0 4 0 0 
3 0 0 5 0 0 5 0 0 5 0 0 6 0 0 8 0 0 6 0 0 9 0 0 9 0 0 10 0 0 10 0 0 10 0 0 11 0 0 10 0 0 12 0 0 12 0 0 13 0 0 11 0 0 14 0 0 12 0 0 13 0 0 15 0 0 17 0 0 14 0 0 15 0 0 16 0 0 15 0 0 17 0 0 16 0 0 14 0 0 18 0 0 18 0 0 15 0 0 16 0 0 17 0 0 17 0 0 15 0 0 15 0 0 16 0 0 14 0 0 15 0 0 12 0 0 14 0 0 14 0 0 13 0 0 12 0 0 12 0 0 12 0 0 11 0 0 8 0 0 11 0 0 10 0 0 9 0 0 8 0 0 9 0 0 8 0 0 5 0 0 6 0 0 5 0 0 4 0 0 
2 0 0 4 0 0 4 0 0 6 0 0 4 0 0 7 0 0 7 0 0 7 0 0 8 0 0 8 0 0 10 0 0 10 0 0 9 0 0 10 0 0 9 0 0 13 0 0 10 0 0 11 0 0 12 0 0 13 0 0 11 0 0 14 0 0 11 0 0 14 0 0 12 0 0 14 0 0 13 0 0 18 0 0 14 0 0 14 0 0 15 0 0 13 0 0 13 0 0 15 0 0 15 0 0 14 0 0 15 0 0 12 0 0 14 0 0 12 0 0 13 0 0 13 0 0 12 0 0 12 0 0 12 0 0 10 0 0 11 0 0 10 0 0 9 0 0 9 0 0 8 0 0 10 0 0 8 0 0 7 0 0 7 0 0 7 0 0 6 0 0 6 0 0 4 0 0 3 0 0 
