P3
# This is a dose file slice at depth 39 of 100
60 60
# now we give the maximum value of the RGB coordinates.
34334
0 0 0 0 0 0 0 0 0 0 0 0 0 0 0 0 0 0 0 0 0 0 0 0 0 0 0 0 0 0 0 0 0 0 0 0 0 0 0 0 0 0 0 0 0 0 0 0 0 0 0 0 0 0 0 0 0 0 0 0 0 0 0 0 0 0 0 0 0 0 0 0 0 0 0 0 0 0 0 0 0 0 0 0 0 0 0 0 0 0 0 0 0 0 0 0 0 0 0 0 0 0 0 0 0 0 0 0 0 0 0 0 0 0 0 0 0 0 0 0 0 0 0 0 0 0 0 0 0 0 0 0 0 0 0 0 0 0 0 0 0 0 0 0 0 0 0 0 0 0 0 0 0 0 0 0 0 0 0 0 0 0 0 0 0 0 0 0 0 0 0 0 0 0 0 0 0 0 0 0 
0 0 0 0 0 0 0 0 0 0 0 0 0 0 0 0 0 0 0 0 0 0 0 0 0 0 0 0 0 0 0 0 0 0 0 0 0 0 0 0 0 0 0 0 0 0 0 0 0 0 0 0 0 0 0 0 0 0 0 0 0 0 0 0 0 0 0 0 0 0 0 0 0 0 0 0 0 0 0 0 0 0 0 0 0 0 0 0 0 0 0 0 0 0 0 0 0 0 0 0 0 0 0 0 0 0 0 0 0 0 0 0 0 0 0 0 0 0 0 0 0 0 0 0 0 0 0 0 0 0 0 0 0 0 0 0 0 0 0 0 0 0 0 0 0 0 0 0 0 0 0 0 0 0 0 0 0 0 0 0 0 0 0 0 0 0 0 0 0 0 0 0 0 0 0 0 0 0 0 0 
0 0 0 0 0 0 0 0 0 0 0 0 0 0 0 0 0 0 0 0 0 0 0 0 0 0 0 0 0 0 0 0 0 0 0 0 0 0 0 0 0 0 0 0 0 0 0 0 0 0 0 0 0 0 0 0 0 0 0 0 0 0 0 0 0 0 0 0 0 0 0 0 0 0 0 0 0 0 0 0 0 0 0 0 0 0 0 0 0 0 0 0 0 0 0 0 0 0 0 0 0 0 0 0 0 0 0 0 0 0 0 0 0 0 0 0 0 0 0 0 0 0 0 0 0 0 0 0 0 0 0 0 0 0 0 0 0 0 0 0 0 0 0 0 0 0 0 0 0 0 0 0 0 0 0 0 0 0 0 0 0 0 0 0 0 0 0 0 0 0 0 0 0 0 0 0 0 0 0 0 
0 0 0 0 0 0 0 0 0 0 0 0 0 0 0 0 0 0 0 0 0 0 0 0 0 0 0 0 0 0 0 0 0 0 0 0 0 0 0 0 0 0 0 0 0 0 0 0 0 0 0 0 0 0 0 0 0 0 0 0 0 0 0 0 0 0 0 0 0 0 0 0 0 0 0 0 0 0 0 0 0 0 0 0 0 0 0 0 0 0 0 0 0 0 0 0 0 0 0 0 0 0 0 0 0 0 0 0 0 0 0 0 0 0 0 0 0 0 0 0 0 0 0 0 0 0 0 0 0 0 0 0 0 0 0 0 0 0 0 0 0 0 0 0 0 0 0 0 0 0 0 0 0 0 0 0 0 0 0 0 0 0 0 0 0 0 0 0 0 0 0 0 0 0 0 0 0 0 0 0 
0 0 0 0 0 0 0 0 0 0 0 0 0 0 0 0 0 0 0 0 0 0 0 0 0 0 0 0 0 0 0 0 0 0 0 0 0 0 0 0 0 0 0 0 0 0 0 0 0 0 0 0 0 0 0 0 0 0 0 0 0 0 0 0 0 0 0 0 0 0 0 0 0 0 0 0 0 0 0 0 0 0 0 0 0 0 0 0 0 0 0 0 0 0 0 0 0 0 0 0 0 0 0 0 0 0 0 0 0 0 0 0 0 0 0 0 0 0 0 0 0 0 0 0 0 0 0 0 0 0 0 0 0 0 0 0 0 0 0 0 0 0 0 0 0 0 0 0 0 0 0 0 0 0 0 0 0 0 0 0 0 0 0 0 0 0 0 0 0 0 0 0 0 0 0 0 0 0 0 0 
0 0 0 0 0 0 0 0 0 0 0 0 0 0 0 0 0 0 0 0 0 0 0 0 0 0 0 0 0 0 0 0 0 0 0 0 0 0 0 0 0 0 0 0 0 0 0 0 0 0 0 0 0 0 0 0 0 0 0 0 0 0 0 0 0 0 0 0 0 0 0 0 0 0 0 0 0 0 0 0 0 0 0 0 0 0 0 0 0 0 0 0 0 0 0 0 0 0 0 0 0 0 0 0 0 0 0 0 0 0 0 0 0 0 0 0 0 0 0 0 0 0 0 0 0 0 0 0 0 0 0 0 0 0 0 0 0 0 0 0 0 0 0 0 0 0 0 0 0 0 0 0 0 0 0 0 0 0 0 0 0 0 0 0 0 0 0 0 0 0 0 0 0 0 0 0 0 0 0 0 
0 0 0 0 0 0 0 0 0 0 0 0 0 0 0 0 0 0 0 0 0 0 0 0 0 0 0 0 0 0 0 0 0 0 0 0 0 0 0 0 0 0 0 0 0 0 0 0 0 0 0 0 0 0 0 0 0 0 0 0 0 0 0 0 0 0 0 0 0 0 0 0 0 0 0 0 0 0 0 0 0 0 0 0 0 0 0 0 0 0 0 0 0 0 0 0 0 0 0 0 0 0 0 0 0 0 0 0 0 0 0 0 0 0 0 0 0 0 0 0 0 0 0 0 0 0 0 0 0 0 0 0 0 0 0 0 0 0 0 0 0 0 0 0 0 0 0 0 0 0 0 0 0 0 0 0 0 0 0 0 0 0 0 0 0 0 0 0 0 0 0 0 0 0 0 0 0 0 0 0 
0 0 0 0 0 0 0 0 0 0 0 0 0 0 0 0 0 0 0 0 0 0 0 0 0 0 0 0 0 0 0 0 0 0 0 0 0 0 0 0 0 0 0 0 0 0 0 0 0 0 0 0 0 0 0 0 0 0 0 0 0 0 0 0 0 0 0 0 0 0 0 0 0 0 0 0 0 0 0 0 0 0 0 0 0 0 0 0 0 0 0 0 0 0 0 0 0 0 0 0 0 0 0 0 0 0 0 0 0 0 0 0 0 0 0 0 0 0 0 0 0 0 0 0 0 0 0 0 0 0 0 0 0 0 0 0 0 0 0 0 0 0 0 0 0 0 0 0 0 0 0 0 0 0 0 0 0 0 0 0 0 0 0 0 0 0 0 0 0 0 0 0 0 0 0 0 0 0 0 0 
0 0 0 0 0 0 0 0 0 0 0 0 0 0 0 0 0 0 0 0 0 0 0 0 0 0 0 0 0 0 0 0 0 0 0 0 0 0 0 0 0 0 0 0 0 0 0 0 0 0 0 0 0 0 0 0 0 0 0 0 0 0 0 0 0 0 0 0 0 0 0 0 0 0 0 0 0 0 0 0 0 0 0 0 0 0 0 0 0 0 0 0 0 0 0 0 0 0 0 0 0 0 0 0 0 0 0 0 0 0 0 0 0 0 0 0 0 0 0 0 0 0 0 0 0 0 0 0 0 0 0 0 0 0 0 0 0 0 0 0 0 0 0 0 0 0 0 0 0 0 0 0 0 0 0 0 0 0 0 0 0 0 0 0 0 0 0 0 0 0 0 0 0 0 0 0 0 0 0 0 
0 0 0 0 0 0 0 0 0 0 0 0 0 0 0 0 0 0 0 0 0 0 0 0 0 0 0 0 0 0 0 0 0 0 0 0 0 0 0 0 0 0 0 0 0 0 0 0 0 0 0 0 0 0 0 0 0 0 0 0 0 0 0 0 0 0 0 0 0 0 0 0 0 0 0 0 0 0 0 0 0 0 0 0 0 0 0 0 0 0 0 0 0 0 0 0 0 0 0 0 0 0 0 0 0 0 0 0 0 0 0 0 0 0 0 0 0 0 0 0 0 0 0 0 0 0 0 0 0 0 0 0 0 0 0 0 0 0 0 0 0 0 0 0 0 0 0 0 0 0 0 0 0 0 0 0 0 0 0 0 0 0 0 0 0 0 0 0 0 0 0 0 0 0 0 0 0 0 0 0 
0 0 0 0 0 0 0 0 0 0 0 0 0 0 0 0 0 0 0 0 0 0 0 0 0 0 0 0 0 0 2619 0 0 5426 0 0 5245 0 0 5243 0 0 5291 0 0 5325 0 0 5256 0 0 5382 0 0 5327 0 0 5294 0 0 5306 0 0 5218 0 0 5330 0 0 5355 0 0 5318 0 0 5376 0 0 5303 0 0 5329 0 0 5402 0 0 5191 0 0 5295 0 0 5283 0 0 5206 0 0 5286 0 0 5301 0 0 5202 0 0 5362 0 0 5163 0 0 5301 0 0 5241 0 0 5192 0 0 5385 0 0 5381 0 0 5343 0 0 5259 0 0 5435 0 0 5333 0 0 5323 0 0 5289 0 0 5402 0 0 2566 0 0 0 0 0 0 0 0 0 0 0 0 0 0 0 0 0 0 0 0 0 0 0 0 0 0 0 0 0 
0 0 0 0 0 0 0 0 0 0 0 0 0 0 0 0 0 0 0 0 0 0 0 0 0 0 0 0 0 0 5188 0 0 10616 0 0 10443 0 0 10779 0 0 10749 0 0 10592 0 0 10830 0 0 10577 0 0 10576 0 0 10540 0 0 10582 0 0 10700 0 0 10604 0 0 10715 0 0 10547 0 0 10620 0 0 10560 0 0 10724 0 0 10516 0 0 10767 0 0 10569 0 0 10535 0 0 10646 0 0 10632 0 0 10586 0 0 10621 0 0 10595 0 0 10581 0 0 10576 0 0 10570 0 0 10636 0 0 10470 0 0 10565 0 0 10515 0 0 10700 0 0 10704 0 0 10425 0 0 10508 0 0 10643 0 0 10528 0 0 5314 0 0 0 0 0 0 0 0 0 0 0 0 0 0 0 0 0 0 0 0 0 0 0 0 0 0 0 0 0 
0 0 0 0 0 0 0 0 0 0 0 0 0 0 0 0 0 0 0 0 0 0 0 0 0 0 0 0 0 0 5271 0 0 10611 0 0 10684 0 0 10479 0 0 10690 0 0 10566 0 0 10683 0 0 10631 0 0 10479 0 0 10418 0 0 10663 0 0 10606 0 0 10636 0 0 10474 0 0 10537 0 0 10666 0 0 10494 0 0 10509 0 0 10548 0 0 10572 0 0 10549 0 0 10541 0 0 10397 0 0 10615 0 0 10589 0 0 10405 0 0 10637 0 0 10552 0 0 10410 0 0 10753 0 0 10556 0 0 10618 0 0 10688 0 0 10536 0 0 10441 0 0 10664 0 0 10783 0 0 10377 0 0 10536 0 0 10640 0 0 5316 0 0 0 0 0 0 0 0 0 0 0 0 0 0 0 0 0 0 0 0 0 0 0 0 0 0 0 0 0 
0 0 0 0 0 0 0 0 0 0 0 0 0 0 0 0 0 0 0 0 0 0 0 0 0 0 0 0 0 0 5269 0 0 10762 0 0 10595 0 0 10422 0 0 10625 0 0 10593 0 0 10651 0 0 10613 0 0 10696 0 0 10523 0 0 10638 0 0 10483 0 0 10593 0 0 10634 0 0 10597 0 0 10535 0 0 10572 0 0 10686 0 0 10764 0 0 10640 0 0 10500 0 0 10802 0 0 10730 0 0 10600 0 0 10512 0 0 10705 0 0 10475 0 0 10402 0 0 10665 0 0 10692 0 0 10681 0 0 10832 0 0 10503 0 0 10702 0 0 10808 0 0 10579 0 0 10533 0 0 10535 0 0 10521 0 0 10581 0 0 5315 0 0 0 0 0 0 0 0 0 0 0 0 0 0 0 0 0 0 0 0 0 0 0 0 0 0 0 0 0 
0 0 0 0 0 0 0 0 0 0 0 0 0 0 0 0 0 0 0 0 0 0 0 0 0 0 0 0 0 0 5353 0 0 10671 0 0 10567 0 0 10608 0 0 10730 0 0 10746 0 0 10664 0 0 10679 0 0 10564 0 0 10344 0 0 10558 0 0 10729 0 0 10564 0 0 10749 0 0 10734 0 0 10527 0 0 10554 0 0 10523 0 0 10617 0 0 10741 0 0 10514 0 0 10726 0 0 10694 0 0 10430 0 0 10485 0 0 10501 0 0 10705 0 0 10802 0 0 10469 0 0 10600 0 0 10462 0 0 10485 0 0 10580 0 0 10594 0 0 10597 0 0 10722 0 0 10722 0 0 10655 0 0 10505 0 0 10668 0 0 5357 0 0 0 0 0 0 0 0 0 0 0 0 0 0 0 0 0 0 0 0 0 0 0 0 0 0 0 0 0 
0 0 0 0 0 0 0 0 0 0 0 0 0 0 0 0 0 0 0 0 0 0 0 0 0 0 0 0 0 0 5268 0 0 10690 0 0 10545 0 0 10444 0 0 10465 0 0 10710 0 0 10625 0 0 10516 0 0 10473 0 0 10647 0 0 10748 0 0 10458 0 0 10570 0 0 10577 0 0 10584 0 0 10529 0 0 10620 0 0 10409 0 0 10533 0 0 10444 0 0 10600 0 0 10809 0 0 10420 0 0 10720 0 0 10569 0 0 10762 0 0 10550 0 0 10663 0 0 10609 0 0 10533 0 0 10813 0 0 10568 0 0 10673 0 0 10575 0 0 10460 0 0 10716 0 0 10676 0 0 10688 0 0 10588 0 0 10641 0 0 5355 0 0 0 0 0 0 0 0 0 0 0 0 0 0 0 0 0 0 0 0 0 0 0 0 0 0 0 0 0 
0 0 0 0 0 0 0 0 0 0 0 0 0 0 0 0 0 0 0 0 0 0 0 0 0 0 0 0 0 0 5336 0 0 10564 0 0 10662 0 0 10559 0 0 10530 0 0 10528 0 0 10640 0 0 10816 0 0 10669 0 0 10538 0 0 10746 0 0 10563 0 0 10681 0 0 10559 0 0 10696 0 0 10637 0 0 10635 0 0 10568 0 0 10661 0 0 10681 0 0 10893 0 0 10522 0 0 10673 0 0 10579 0 0 10475 0 0 10726 0 0 10409 0 0 10312 0 0 10576 0 0 10586 0 0 10613 0 0 10545 0 0 10461 0 0 10478 0 0 10556 0 0 10485 0 0 10755 0 0 10528 0 0 10709 0 0 10711 0 0 5377 0 0 0 0 0 0 0 0 0 0 0 0 0 0 0 0 0 0 0 0 0 0 0 0 0 0 0 0 0 
0 0 0 0 0 0 0 0 0 0 0 0 0 0 0 0 0 0 0 0 0 0 0 0 0 0 0 0 0 0 5322 0 0 10664 0 0 10669 0 0 10636 0 0 10675 0 0 10733 0 0 10576 0 0 10493 0 0 10495 0 0 10695 0 0 10522 0 0 10550 0 0 10753 0 0 10475 0 0 10607 0 0 10622 0 0 10513 0 0 10539 0 0 10490 0 0 10483 0 0 10427 0 0 10852 0 0 10505 0 0 10500 0 0 10625 0 0 10549 0 0 10769 0 0 10500 0 0 10691 0 0 10676 0 0 10632 0 0 10615 0 0 10624 0 0 10525 0 0 10579 0 0 10537 0 0 10578 0 0 10388 0 0 10485 0 0 10561 0 0 5311 0 0 0 0 0 0 0 0 0 0 0 0 0 0 0 0 0 0 0 0 0 0 0 0 0 0 0 0 0 
0 0 0 0 0 0 0 0 0 0 0 0 0 0 0 0 0 0 0 0 0 0 0 0 0 0 0 0 0 0 5220 0 0 10517 0 0 10643 0 0 10657 0 0 10449 0 0 10479 0 0 10479 0 0 10670 0 0 10655 0 0 10664 0 0 10489 0 0 10612 0 0 10821 0 0 10538 0 0 10505 0 0 10460 0 0 10424 0 0 10548 0 0 10781 0 0 10749 0 0 10666 0 0 10649 0 0 10710 0 0 10514 0 0 10572 0 0 10639 0 0 10619 0 0 10787 0 0 10603 0 0 10822 0 0 10588 0 0 10538 0 0 10680 0 0 10635 0 0 10513 0 0 10785 0 0 10554 0 0 10457 0 0 10624 0 0 10648 0 0 5316 0 0 0 0 0 0 0 0 0 0 0 0 0 0 0 0 0 0 0 0 0 0 0 0 0 0 0 0 0 
0 0 0 0 0 0 0 0 0 0 0 0 0 0 0 0 0 0 0 0 0 0 0 0 0 0 0 0 0 0 5102 0 0 10644 0 0 10743 0 0 10491 0 0 10708 0 0 10439 0 0 10521 0 0 10647 0 0 10587 0 0 10811 0 0 10786 0 0 10546 0 0 10521 0 0 10645 0 0 10621 0 0 10782 0 0 10470 0 0 10435 0 0 10516 0 0 10433 0 0 10452 0 0 10548 0 0 10505 0 0 10444 0 0 10744 0 0 10490 0 0 10697 0 0 10452 0 0 10650 0 0 10607 0 0 10481 0 0 10589 0 0 10570 0 0 10578 0 0 10822 0 0 10572 0 0 10713 0 0 10579 0 0 10547 0 0 10646 0 0 5386 0 0 0 0 0 0 0 0 0 0 0 0 0 0 0 0 0 0 0 0 0 0 0 0 0 0 0 0 0 
0 0 0 0 0 0 0 0 0 0 0 0 0 0 0 0 0 0 0 0 0 0 0 0 0 0 0 0 0 0 5285 0 0 10613 0 0 10556 0 0 10673 0 0 10605 0 0 10450 0 0 10617 0 0 10490 0 0 10644 0 0 10373 0 0 10609 0 0 10715 0 0 10596 0 0 10652 0 0 10645 0 0 10687 0 0 10533 0 0 10583 0 0 10626 0 0 10656 0 0 10552 0 0 10377 0 0 10660 0 0 10490 0 0 10526 0 0 10398 0 0 10479 0 0 10684 0 0 10452 0 0 10520 0 0 10515 0 0 10619 0 0 10779 0 0 10574 0 0 10685 0 0 10625 0 0 10443 0 0 10634 0 0 10585 0 0 10520 0 0 5211 0 0 0 0 0 0 0 0 0 0 0 0 0 0 0 0 0 0 0 0 0 0 0 0 0 0 0 0 0 
0 0 0 0 0 0 0 0 0 0 0 0 0 0 0 0 0 0 0 0 0 0 0 0 0 0 0 0 0 0 5327 0 0 10766 0 0 10623 0 0 10629 0 0 10564 0 0 10530 0 0 10650 0 0 10473 0 0 10558 0 0 10772 0 0 10591 0 0 10600 0 0 10715 0 0 10495 0 0 10454 0 0 10605 0 0 10783 0 0 10374 0 0 10686 0 0 10548 0 0 10493 0 0 10452 0 0 10599 0 0 10684 0 0 10415 0 0 10457 0 0 10565 0 0 10465 0 0 10690 0 0 10674 0 0 10713 0 0 10484 0 0 10560 0 0 10571 0 0 10717 0 0 10494 0 0 10663 0 0 10547 0 0 10665 0 0 10672 0 0 5304 0 0 0 0 0 0 0 0 0 0 0 0 0 0 0 0 0 0 0 0 0 0 0 0 0 0 0 0 0 
0 0 0 0 0 0 0 0 0 0 0 0 0 0 0 0 0 0 0 0 0 0 0 0 0 0 0 0 0 0 5280 0 0 10550 0 0 10781 0 0 10544 0 0 10345 0 0 10457 0 0 10668 0 0 10393 0 0 10593 0 0 10644 0 0 10453 0 0 10827 0 0 10760 0 0 10582 0 0 10573 0 0 10585 0 0 10491 0 0 10696 0 0 10688 0 0 10697 0 0 10673 0 0 10763 0 0 10678 0 0 10736 0 0 10509 0 0 10731 0 0 10658 0 0 10861 0 0 10560 0 0 10647 0 0 10425 0 0 10658 0 0 10431 0 0 10568 0 0 10645 0 0 10789 0 0 10537 0 0 10564 0 0 10616 0 0 10493 0 0 5320 0 0 0 0 0 0 0 0 0 0 0 0 0 0 0 0 0 0 0 0 0 0 0 0 0 0 0 0 0 
0 0 0 0 0 0 0 0 0 0 0 0 0 0 0 0 0 0 0 0 0 0 0 0 0 0 0 0 0 0 5296 0 0 10508 0 0 10855 0 0 10414 0 0 10737 0 0 10659 0 0 10647 0 0 10632 0 0 10538 0 0 10677 0 0 10633 0 0 10792 0 0 10599 0 0 10544 0 0 10535 0 0 10492 0 0 10730 0 0 10642 0 0 10501 0 0 10674 0 0 10614 0 0 10605 0 0 10477 0 0 10609 0 0 10648 0 0 10612 0 0 10663 0 0 10613 0 0 10654 0 0 10692 0 0 10686 0 0 10503 0 0 10513 0 0 10780 0 0 10669 0 0 10798 0 0 10543 0 0 10609 0 0 10646 0 0 10523 0 0 5301 0 0 0 0 0 0 0 0 0 0 0 0 0 0 0 0 0 0 0 0 0 0 0 0 0 0 0 0 0 
0 0 0 0 0 0 0 0 0 0 0 0 0 0 0 0 0 0 0 0 0 0 0 0 0 0 0 0 0 0 5361 0 0 10637 0 0 10543 0 0 10641 0 0 10503 0 0 10579 0 0 10608 0 0 10603 0 0 10386 0 0 10558 0 0 10515 0 0 10698 0 0 10631 0 0 10721 0 0 10657 0 0 10527 0 0 10531 0 0 10759 0 0 10696 0 0 10395 0 0 10931 0 0 10619 0 0 10439 0 0 10574 0 0 10505 0 0 10593 0 0 10391 0 0 10675 0 0 10504 0 0 10682 0 0 10588 0 0 10438 0 0 10491 0 0 10703 0 0 10555 0 0 10586 0 0 10591 0 0 10616 0 0 10774 0 0 10608 0 0 5254 0 0 0 0 0 0 0 0 0 0 0 0 0 0 0 0 0 0 0 0 0 0 0 0 0 0 0 0 0 
0 0 0 0 0 0 0 0 0 0 0 0 0 0 0 0 0 0 0 0 0 0 0 0 0 0 0 0 0 0 5375 0 0 10603 0 0 10473 0 0 10528 0 0 10552 0 0 10530 0 0 10699 0 0 10591 0 0 10559 0 0 10737 0 0 10516 0 0 10562 0 0 10567 0 0 10622 0 0 10606 0 0 10712 0 0 10485 0 0 10622 0 0 10490 0 0 10634 0 0 10669 0 0 10572 0 0 10659 0 0 10825 0 0 10612 0 0 10565 0 0 10462 0 0 10483 0 0 10652 0 0 10464 0 0 10902 0 0 10554 0 0 10522 0 0 10559 0 0 10640 0 0 10644 0 0 10454 0 0 10654 0 0 10592 0 0 10591 0 0 5269 0 0 0 0 0 0 0 0 0 0 0 0 0 0 0 0 0 0 0 0 0 0 0 0 0 0 0 0 0 
0 0 0 0 0 0 0 0 0 0 0 0 0 0 0 0 0 0 0 0 0 0 0 0 0 0 0 0 0 0 5246 0 0 10706 0 0 10488 0 0 10550 0 0 10660 0 0 10488 0 0 10642 0 0 10673 0 0 10505 0 0 10768 0 0 10486 0 0 10658 0 0 10583 0 0 10566 0 0 10780 0 0 10493 0 0 10807 0 0 10467 0 0 10711 0 0 10553 0 0 10790 0 0 10594 0 0 10693 0 0 10318 0 0 10493 0 0 10653 0 0 10741 0 0 10469 0 0 10461 0 0 10586 0 0 10589 0 0 10412 0 0 10585 0 0 10598 0 0 10782 0 0 10540 0 0 10510 0 0 10582 0 0 10521 0 0 10616 0 0 5227 0 0 0 0 0 0 0 0 0 0 0 0 0 0 0 0 0 0 0 0 0 0 0 0 0 0 0 0 0 
0 0 0 0 0 0 0 0 0 0 0 0 0 0 0 0 0 0 0 0 0 0 0 0 0 0 0 0 0 0 5299 0 0 10482 0 0 10578 0 0 10488 0 0 10477 0 0 10605 0 0 10588 0 0 10775 0 0 10628 0 0 10811 0 0 10605 0 0 10534 0 0 10560 0 0 10682 0 0 10631 0 0 10589 0 0 10472 0 0 10685 0 0 10352 0 0 10567 0 0 10558 0 0 10462 0 0 10725 0 0 10785 0 0 10612 0 0 10717 0 0 10470 0 0 10687 0 0 10554 0 0 10348 0 0 10576 0 0 10358 0 0 10408 0 0 10543 0 0 10516 0 0 10599 0 0 10593 0 0 10671 0 0 10497 0 0 10689 0 0 5331 0 0 0 0 0 0 0 0 0 0 0 0 0 0 0 0 0 0 0 0 0 0 0 0 0 0 0 0 0 
0 0 0 0 0 0 0 0 0 0 0 0 0 0 0 0 0 0 0 0 0 0 0 0 0 0 0 0 0 0 5277 0 0 10449 0 0 10454 0 0 10676 0 0 10726 0 0 10556 0 0 10570 0 0 10493 0 0 10470 0 0 10598 0 0 10440 0 0 10553 0 0 10522 0 0 10785 0 0 10528 0 0 10749 0 0 10529 0 0 10506 0 0 10532 0 0 10644 0 0 10612 0 0 10507 0 0 10736 0 0 10607 0 0 10661 0 0 10478 0 0 10713 0 0 10826 0 0 10429 0 0 10507 0 0 10474 0 0 10530 0 0 10691 0 0 10678 0 0 10658 0 0 10700 0 0 10509 0 0 10652 0 0 10757 0 0 10572 0 0 5313 0 0 0 0 0 0 0 0 0 0 0 0 0 0 0 0 0 0 0 0 0 0 0 0 0 0 0 0 0 
0 0 0 0 0 0 0 0 0 0 0 0 0 0 0 0 0 0 0 0 0 0 0 0 0 0 0 0 0 0 5279 0 0 10486 0 0 10588 0 0 10625 0 0 10564 0 0 10684 0 0 10587 0 0 10534 0 0 10451 0 0 10696 0 0 10439 0 0 10698 0 0 10520 0 0 10444 0 0 10822 0 0 10616 0 0 10633 0 0 10571 0 0 10492 0 0 10442 0 0 10577 0 0 10537 0 0 10559 0 0 10545 0 0 10563 0 0 10690 0 0 10603 0 0 10708 0 0 10587 0 0 10613 0 0 10631 0 0 10561 0 0 10520 0 0 10573 0 0 10609 0 0 10631 0 0 10446 0 0 10717 0 0 10751 0 0 10487 0 0 5169 0 0 0 0 0 0 0 0 0 0 0 0 0 0 0 0 0 0 0 0 0 0 0 0 0 0 0 0 0 
0 0 0 0 0 0 0 0 0 0 0 0 0 0 0 0 0 0 0 0 0 0 0 0 0 0 0 0 0 0 5247 0 0 10741 0 0 10550 0 0 10389 0 0 10843 0 0 10732 0 0 10473 0 0 10561 0 0 10533 0 0 10576 0 0 10636 0 0 10460 0 0 10532 0 0 10528 0 0 10597 0 0 10449 0 0 10396 0 0 10460 0 0 10551 0 0 10818 0 0 10613 0 0 10665 0 0 10862 0 0 10696 0 0 10600 0 0 10547 0 0 10605 0 0 10674 0 0 10501 0 0 10594 0 0 10498 0 0 10627 0 0 10717 0 0 10535 0 0 10541 0 0 10701 0 0 10658 0 0 10379 0 0 10485 0 0 10646 0 0 5317 0 0 0 0 0 0 0 0 0 0 0 0 0 0 0 0 0 0 0 0 0 0 0 0 0 0 0 0 0 
0 0 0 0 0 0 0 0 0 0 0 0 0 0 0 0 0 0 0 0 0 0 0 0 0 0 0 0 0 0 5230 0 0 10751 0 0 10819 0 0 10661 0 0 10465 0 0 10540 0 0 10842 0 0 10607 0 0 10536 0 0 10638 0 0 10583 0 0 10611 0 0 10800 0 0 10400 0 0 10647 0 0 10477 0 0 10775 0 0 10357 0 0 10501 0 0 10640 0 0 10468 0 0 10764 0 0 10399 0 0 10761 0 0 10660 0 0 10702 0 0 10448 0 0 10401 0 0 10499 0 0 10827 0 0 10723 0 0 10649 0 0 10673 0 0 10552 0 0 10530 0 0 10556 0 0 10640 0 0 10569 0 0 10695 0 0 10516 0 0 5323 0 0 0 0 0 0 0 0 0 0 0 0 0 0 0 0 0 0 0 0 0 0 0 0 0 0 0 0 0 
0 0 0 0 0 0 0 0 0 0 0 0 0 0 0 0 0 0 0 0 0 0 0 0 0 0 0 0 0 0 5284 0 0 10613 0 0 10635 0 0 10382 0 0 10491 0 0 10556 0 0 10652 0 0 10578 0 0 10554 0 0 10582 0 0 10622 0 0 10690 0 0 10537 0 0 10405 0 0 10726 0 0 10458 0 0 10593 0 0 10654 0 0 10581 0 0 10579 0 0 10703 0 0 10548 0 0 10675 0 0 10467 0 0 10618 0 0 10670 0 0 10610 0 0 10519 0 0 10519 0 0 10607 0 0 10636 0 0 10603 0 0 10575 0 0 10514 0 0 10527 0 0 10859 0 0 10584 0 0 10740 0 0 10455 0 0 10648 0 0 5146 0 0 0 0 0 0 0 0 0 0 0 0 0 0 0 0 0 0 0 0 0 0 0 0 0 0 0 0 0 
0 0 0 0 0 0 0 0 0 0 0 0 0 0 0 0 0 0 0 0 0 0 0 0 0 0 0 0 0 0 5219 0 0 10624 0 0 10625 0 0 10530 0 0 10539 0 0 10692 0 0 10502 0 0 10413 0 0 10464 0 0 10550 0 0 10563 0 0 10669 0 0 10665 0 0 10651 0 0 10580 0 0 10532 0 0 10633 0 0 10394 0 0 10533 0 0 10568 0 0 10710 0 0 10470 0 0 10642 0 0 10552 0 0 10677 0 0 10654 0 0 10673 0 0 10480 0 0 10593 0 0 10364 0 0 10776 0 0 10715 0 0 10365 0 0 10509 0 0 10721 0 0 10782 0 0 10756 0 0 10516 0 0 10442 0 0 10622 0 0 5389 0 0 0 0 0 0 0 0 0 0 0 0 0 0 0 0 0 0 0 0 0 0 0 0 0 0 0 0 0 
0 0 0 0 0 0 0 0 0 0 0 0 0 0 0 0 0 0 0 0 0 0 0 0 0 0 0 0 0 0 5441 0 0 10572 0 0 10419 0 0 10735 0 0 10601 0 0 10515 0 0 10685 0 0 10593 0 0 10656 0 0 10448 0 0 10745 0 0 10734 0 0 10513 0 0 10559 0 0 10570 0 0 10563 0 0 10524 0 0 10443 0 0 10671 0 0 10641 0 0 10556 0 0 10763 0 0 10625 0 0 10822 0 0 10647 0 0 10650 0 0 10506 0 0 10581 0 0 10527 0 0 10557 0 0 10577 0 0 10765 0 0 10551 0 0 10519 0 0 10651 0 0 10526 0 0 10597 0 0 10666 0 0 10573 0 0 10671 0 0 5183 0 0 0 0 0 0 0 0 0 0 0 0 0 0 0 0 0 0 0 0 0 0 0 0 0 0 0 0 0 
0 0 0 0 0 0 0 0 0 0 0 0 0 0 0 0 0 0 0 0 0 0 0 0 0 0 0 0 0 0 5368 0 0 10518 0 0 10724 0 0 10652 0 0 10668 0 0 10665 0 0 10791 0 0 10665 0 0 10592 0 0 10792 0 0 10743 0 0 10563 0 0 10410 0 0 10573 0 0 10348 0 0 10561 0 0 10600 0 0 10622 0 0 10728 0 0 10608 0 0 10526 0 0 10644 0 0 10726 0 0 10566 0 0 10588 0 0 10723 0 0 10594 0 0 10682 0 0 10680 0 0 10691 0 0 10449 0 0 10592 0 0 10585 0 0 10367 0 0 10558 0 0 10441 0 0 10665 0 0 10561 0 0 10376 0 0 10737 0 0 5225 0 0 0 0 0 0 0 0 0 0 0 0 0 0 0 0 0 0 0 0 0 0 0 0 0 0 0 0 0 
0 0 0 0 0 0 0 0 0 0 0 0 0 0 0 0 0 0 0 0 0 0 0 0 0 0 0 0 0 0 5241 0 0 10650 0 0 10596 0 0 10718 0 0 10627 0 0 10800 0 0 10639 0 0 10654 0 0 10440 0 0 10490 0 0 10656 0 0 10613 0 0 10527 0 0 10561 0 0 10644 0 0 10623 0 0 10758 0 0 10524 0 0 10604 0 0 10610 0 0 10627 0 0 10655 0 0 10517 0 0 10538 0 0 10712 0 0 10416 0 0 10597 0 0 10583 0 0 10748 0 0 10450 0 0 10462 0 0 10403 0 0 10741 0 0 10664 0 0 10583 0 0 10638 0 0 10570 0 0 10693 0 0 10467 0 0 10529 0 0 5299 0 0 0 0 0 0 0 0 0 0 0 0 0 0 0 0 0 0 0 0 0 0 0 0 0 0 0 0 0 
0 0 0 0 0 0 0 0 0 0 0 0 0 0 0 0 0 0 0 0 0 0 0 0 0 0 0 0 0 0 5315 0 0 10552 0 0 10617 0 0 10640 0 0 10584 0 0 10429 0 0 10456 0 0 10575 0 0 10605 0 0 10531 0 0 10516 0 0 10558 0 0 10596 0 0 10603 0 0 10648 0 0 10455 0 0 10527 0 0 10693 0 0 10416 0 0 10609 0 0 10699 0 0 10512 0 0 10508 0 0 10457 0 0 10706 0 0 10611 0 0 10596 0 0 10617 0 0 10329 0 0 10679 0 0 10603 0 0 10707 0 0 10527 0 0 10417 0 0 10502 0 0 10545 0 0 10729 0 0 10604 0 0 10466 0 0 10652 0 0 5367 0 0 0 0 0 0 0 0 0 0 0 0 0 0 0 0 0 0 0 0 0 0 0 0 0 0 0 0 0 
0 0 0 0 0 0 0 0 0 0 0 0 0 0 0 0 0 0 0 0 0 0 0 0 0 0 0 0 0 0 5382 0 0 10694 0 0 10862 0 0 10734 0 0 10409 0 0 10721 0 0 10731 0 0 10515 0 0 10647 0 0 10549 0 0 10668 0 0 10761 0 0 10552 0 0 10461 0 0 10542 0 0 10694 0 0 10754 0 0 10625 0 0 10572 0 0 10538 0 0 10555 0 0 10590 0 0 10573 0 0 10616 0 0 10683 0 0 10481 0 0 10477 0 0 10702 0 0 10766 0 0 10434 0 0 10524 0 0 10470 0 0 10713 0 0 10558 0 0 10549 0 0 10526 0 0 10620 0 0 10816 0 0 10349 0 0 10475 0 0 5344 0 0 0 0 0 0 0 0 0 0 0 0 0 0 0 0 0 0 0 0 0 0 0 0 0 0 0 0 0 
0 0 0 0 0 0 0 0 0 0 0 0 0 0 0 0 0 0 0 0 0 0 0 0 0 0 0 0 0 0 5314 0 0 10661 0 0 10631 0 0 10414 0 0 10649 0 0 10686 0 0 10468 0 0 10754 0 0 10537 0 0 10631 0 0 10643 0 0 10648 0 0 10711 0 0 10466 0 0 10604 0 0 10578 0 0 10642 0 0 10370 0 0 10655 0 0 10638 0 0 10557 0 0 10444 0 0 10509 0 0 10613 0 0 10378 0 0 10585 0 0 10453 0 0 10436 0 0 10654 0 0 10602 0 0 10597 0 0 10573 0 0 10506 0 0 10521 0 0 10482 0 0 10585 0 0 10591 0 0 10483 0 0 10732 0 0 10579 0 0 5401 0 0 0 0 0 0 0 0 0 0 0 0 0 0 0 0 0 0 0 0 0 0 0 0 0 0 0 0 0 
0 0 0 0 0 0 0 0 0 0 0 0 0 0 0 0 0 0 0 0 0 0 0 0 0 0 0 0 0 0 5387 0 0 10626 0 0 10521 0 0 10554 0 0 10688 0 0 10734 0 0 10446 0 0 10617 0 0 10686 0 0 10602 0 0 10544 0 0 10397 0 0 10546 0 0 10616 0 0 10860 0 0 10494 0 0 10498 0 0 10604 0 0 10599 0 0 10676 0 0 10283 0 0 10677 0 0 10591 0 0 10589 0 0 10694 0 0 10465 0 0 10456 0 0 10701 0 0 10608 0 0 10686 0 0 10728 0 0 10542 0 0 10551 0 0 10501 0 0 10594 0 0 10612 0 0 10561 0 0 10627 0 0 10718 0 0 10547 0 0 5365 0 0 0 0 0 0 0 0 0 0 0 0 0 0 0 0 0 0 0 0 0 0 0 0 0 0 0 0 0 
0 0 0 0 0 0 0 0 0 0 0 0 0 0 0 0 0 0 0 0 0 0 0 0 0 0 0 0 0 0 5310 0 0 10686 0 0 10527 0 0 10511 0 0 10680 0 0 10494 0 0 10789 0 0 10670 0 0 10763 0 0 10645 0 0 10554 0 0 10904 0 0 10600 0 0 10488 0 0 10703 0 0 10428 0 0 10541 0 0 10543 0 0 10666 0 0 10670 0 0 10780 0 0 10494 0 0 10840 0 0 10498 0 0 10415 0 0 10601 0 0 10468 0 0 10569 0 0 10603 0 0 10604 0 0 10657 0 0 10597 0 0 10555 0 0 10716 0 0 10589 0 0 10584 0 0 10578 0 0 10695 0 0 10503 0 0 10658 0 0 5463 0 0 0 0 0 0 0 0 0 0 0 0 0 0 0 0 0 0 0 0 0 0 0 0 0 0 0 0 0 
0 0 0 0 0 0 0 0 0 0 0 0 0 0 0 0 0 0 0 0 0 0 0 0 0 0 0 0 0 0 5296 0 0 10804 0 0 10500 0 0 10651 0 0 10577 0 0 10697 0 0 10552 0 0 10698 0 0 10409 0 0 10600 0 0 10549 0 0 10558 0 0 10472 0 0 10683 0 0 10618 0 0 10456 0 0 10578 0 0 10760 0 0 10678 0 0 10448 0 0 10837 0 0 10487 0 0 10454 0 0 10626 0 0 10531 0 0 10550 0 0 10276 0 0 10799 0 0 10492 0 0 10584 0 0 10625 0 0 10620 0 0 10623 0 0 10676 0 0 10449 0 0 10535 0 0 10441 0 0 10815 0 0 10565 0 0 10501 0 0 5332 0 0 0 0 0 0 0 0 0 0 0 0 0 0 0 0 0 0 0 0 0 0 0 0 0 0 0 0 0 
0 0 0 0 0 0 0 0 0 0 0 0 0 0 0 0 0 0 0 0 0 0 0 0 0 0 0 0 0 0 5402 0 0 10511 0 0 10613 0 0 10554 0 0 10692 0 0 10625 0 0 10536 0 0 10612 0 0 10790 0 0 10669 0 0 10473 0 0 10618 0 0 10662 0 0 10632 0 0 10576 0 0 10671 0 0 10748 0 0 10617 0 0 10648 0 0 10536 0 0 10547 0 0 10522 0 0 10722 0 0 10611 0 0 10550 0 0 10456 0 0 10540 0 0 10613 0 0 10459 0 0 10632 0 0 10333 0 0 10539 0 0 10653 0 0 10634 0 0 10552 0 0 10696 0 0 10720 0 0 10624 0 0 10532 0 0 10503 0 0 5258 0 0 0 0 0 0 0 0 0 0 0 0 0 0 0 0 0 0 0 0 0 0 0 0 0 0 0 0 0 
0 0 0 0 0 0 0 0 0 0 0 0 0 0 0 0 0 0 0 0 0 0 0 0 0 0 0 0 0 0 5249 0 0 10756 0 0 10589 0 0 10621 0 0 10453 0 0 10581 0 0 10674 0 0 10779 0 0 10555 0 0 10697 0 0 10709 0 0 10612 0 0 10689 0 0 10456 0 0 10568 0 0 10562 0 0 10397 0 0 10520 0 0 10673 0 0 10841 0 0 10684 0 0 10444 0 0 10526 0 0 10508 0 0 10507 0 0 10542 0 0 10584 0 0 10551 0 0 10696 0 0 10476 0 0 10400 0 0 10631 0 0 10548 0 0 10704 0 0 10667 0 0 10659 0 0 10534 0 0 10612 0 0 10743 0 0 10440 0 0 5478 0 0 0 0 0 0 0 0 0 0 0 0 0 0 0 0 0 0 0 0 0 0 0 0 0 0 0 0 0 
0 0 0 0 0 0 0 0 0 0 0 0 0 0 0 0 0 0 0 0 0 0 0 0 0 0 0 0 0 0 5294 0 0 10519 0 0 10487 0 0 10726 0 0 10594 0 0 10579 0 0 10554 0 0 10503 0 0 10680 0 0 10514 0 0 10559 0 0 10626 0 0 10420 0 0 10476 0 0 10772 0 0 10598 0 0 10885 0 0 10609 0 0 10451 0 0 10547 0 0 10795 0 0 10632 0 0 10655 0 0 10625 0 0 10519 0 0 10457 0 0 10754 0 0 10814 0 0 10621 0 0 10442 0 0 10658 0 0 10764 0 0 10346 0 0 10507 0 0 10586 0 0 10337 0 0 10540 0 0 10399 0 0 10482 0 0 10614 0 0 5302 0 0 0 0 0 0 0 0 0 0 0 0 0 0 0 0 0 0 0 0 0 0 0 0 0 0 0 0 0 
0 0 0 0 0 0 0 0 0 0 0 0 0 0 0 0 0 0 0 0 0 0 0 0 0 0 0 0 0 0 5327 0 0 10724 0 0 10492 0 0 10541 0 0 10583 0 0 10453 0 0 10629 0 0 10858 0 0 10635 0 0 10631 0 0 10535 0 0 10621 0 0 10522 0 0 10504 0 0 10615 0 0 10715 0 0 10752 0 0 10645 0 0 10407 0 0 10539 0 0 10543 0 0 10595 0 0 10695 0 0 10524 0 0 10667 0 0 10451 0 0 10702 0 0 10430 0 0 10682 0 0 10633 0 0 10703 0 0 10535 0 0 10767 0 0 10748 0 0 10736 0 0 10724 0 0 10862 0 0 10578 0 0 10486 0 0 10448 0 0 5317 0 0 0 0 0 0 0 0 0 0 0 0 0 0 0 0 0 0 0 0 0 0 0 0 0 0 0 0 0 
0 0 0 0 0 0 0 0 0 0 0 0 0 0 0 0 0 0 0 0 0 0 0 0 0 0 0 0 0 0 5236 0 0 10510 0 0 10590 0 0 10274 0 0 10579 0 0 10591 0 0 10799 0 0 10427 0 0 10480 0 0 10430 0 0 10637 0 0 10650 0 0 10586 0 0 10606 0 0 10869 0 0 10651 0 0 10671 0 0 10490 0 0 10577 0 0 10579 0 0 10506 0 0 10665 0 0 10511 0 0 10518 0 0 10652 0 0 10582 0 0 10748 0 0 10692 0 0 10501 0 0 10563 0 0 10621 0 0 10444 0 0 10612 0 0 10428 0 0 10650 0 0 10593 0 0 10792 0 0 10463 0 0 10564 0 0 10761 0 0 5344 0 0 0 0 0 0 0 0 0 0 0 0 0 0 0 0 0 0 0 0 0 0 0 0 0 0 0 0 0 
0 0 0 0 0 0 0 0 0 0 0 0 0 0 0 0 0 0 0 0 0 0 0 0 0 0 0 0 0 0 5277 0 0 10657 0 0 10512 0 0 10515 0 0 10510 0 0 10372 0 0 10651 0 0 10583 0 0 10638 0 0 10636 0 0 10731 0 0 10601 0 0 10564 0 0 10761 0 0 10439 0 0 10634 0 0 10654 0 0 10569 0 0 10625 0 0 10753 0 0 10531 0 0 10703 0 0 10449 0 0 10566 0 0 10641 0 0 10793 0 0 10462 0 0 10512 0 0 10710 0 0 10749 0 0 10646 0 0 10657 0 0 10528 0 0 10376 0 0 10639 0 0 10879 0 0 10627 0 0 10599 0 0 10510 0 0 10662 0 0 5187 0 0 0 0 0 0 0 0 0 0 0 0 0 0 0 0 0 0 0 0 0 0 0 0 0 0 0 0 0 
0 0 0 0 0 0 0 0 0 0 0 0 0 0 0 0 0 0 0 0 0 0 0 0 0 0 0 0 0 0 5260 0 0 10505 0 0 10566 0 0 10437 0 0 10554 0 0 10589 0 0 10712 0 0 10538 0 0 10496 0 0 10565 0 0 10499 0 0 10508 0 0 10570 0 0 10649 0 0 10694 0 0 10588 0 0 10613 0 0 10830 0 0 10498 0 0 10436 0 0 10693 0 0 10627 0 0 10549 0 0 10555 0 0 10536 0 0 10670 0 0 10534 0 0 10591 0 0 10679 0 0 10575 0 0 10590 0 0 10808 0 0 10376 0 0 10587 0 0 10708 0 0 10659 0 0 10517 0 0 10583 0 0 10861 0 0 10634 0 0 5294 0 0 0 0 0 0 0 0 0 0 0 0 0 0 0 0 0 0 0 0 0 0 0 0 0 0 0 0 0 
0 0 0 0 0 0 0 0 0 0 0 0 0 0 0 0 0 0 0 0 0 0 0 0 0 0 0 0 0 0 2622 0 0 5329 0 0 5343 0 0 5251 0 0 5391 0 0 5180 0 0 5316 0 0 5256 0 0 5426 0 0 5270 0 0 5338 0 0 5315 0 0 5338 0 0 5268 0 0 5264 0 0 5215 0 0 5275 0 0 5329 0 0 5336 0 0 5322 0 0 5309 0 0 5382 0 0 5396 0 0 5253 0 0 5351 0 0 5250 0 0 5437 0 0 5363 0 0 5217 0 0 5345 0 0 5346 0 0 5184 0 0 5336 0 0 5391 0 0 5336 0 0 5419 0 0 5321 0 0 5254 0 0 5169 0 0 5274 0 0 2559 0 0 0 0 0 0 0 0 0 0 0 0 0 0 0 0 0 0 0 0 0 0 0 0 0 0 0 0 0 
0 0 0 0 0 0 0 0 0 0 0 0 0 0 0 0 0 0 0 0 0 0 0 0 0 0 0 0 0 0 0 0 0 0 0 0 0 0 0 0 0 0 0 0 0 0 0 0 0 0 0 0 0 0 0 0 0 0 0 0 0 0 0 0 0 0 0 0 0 0 0 0 0 0 0 0 0 0 0 0 0 0 0 0 0 0 0 0 0 0 0 0 0 0 0 0 0 0 0 0 0 0 0 0 0 0 0 0 0 0 0 0 0 0 0 0 0 0 0 0 0 0 0 0 0 0 0 0 0 0 0 0 0 0 0 0 0 0 0 0 0 0 0 0 0 0 0 0 0 0 0 0 0 0 0 0 0 0 0 0 0 0 0 0 0 0 0 0 0 0 0 0 0 0 0 0 0 0 0 0 
0 0 0 0 0 0 0 0 0 0 0 0 0 0 0 0 0 0 0 0 0 0 0 0 0 0 0 0 0 0 0 0 0 0 0 0 0 0 0 0 0 0 0 0 0 0 0 0 0 0 0 0 0 0 0 0 0 0 0 0 0 0 0 0 0 0 0 0 0 0 0 0 0 0 0 0 0 0 0 0 0 0 0 0 0 0 0 0 0 0 0 0 0 0 0 0 0 0 0 0 0 0 0 0 0 0 0 0 0 0 0 0 0 0 0 0 0 0 0 0 0 0 0 0 0 0 0 0 0 0 0 0 0 0 0 0 0 0 0 0 0 0 0 0 0 0 0 0 0 0 0 0 0 0 0 0 0 0 0 0 0 0 0 0 0 0 0 0 0 0 0 0 0 0 0 0 0 0 0 0 
0 0 0 0 0 0 0 0 0 0 0 0 0 0 0 0 0 0 0 0 0 0 0 0 0 0 0 0 0 0 0 0 0 0 0 0 0 0 0 0 0 0 0 0 0 0 0 0 0 0 0 0 0 0 0 0 0 0 0 0 0 0 0 0 0 0 0 0 0 0 0 0 0 0 0 0 0 0 0 0 0 0 0 0 0 0 0 0 0 0 0 0 0 0 0 0 0 0 0 0 0 0 0 0 0 0 0 0 0 0 0 0 0 0 0 0 0 0 0 0 0 0 0 0 0 0 0 0 0 0 0 0 0 0 0 0 0 0 0 0 0 0 0 0 0 0 0 0 0 0 0 0 0 0 0 0 0 0 0 0 0 0 0 0 0 0 0 0 0 0 0 0 0 0 0 0 0 0 0 0 
0 0 0 0 0 0 0 0 0 0 0 0 0 0 0 0 0 0 0 0 0 0 0 0 0 0 0 0 0 0 0 0 0 0 0 0 0 0 0 0 0 0 0 0 0 0 0 0 0 0 0 0 0 0 0 0 0 0 0 0 0 0 0 0 0 0 0 0 0 0 0 0 0 0 0 0 0 0 0 0 0 0 0 0 0 0 0 0 0 0 0 0 0 0 0 0 0 0 0 0 0 0 0 0 0 0 0 0 0 0 0 0 0 0 0 0 0 0 0 0 0 0 0 0 0 0 0 0 0 0 0 0 0 0 0 0 0 0 0 0 0 0 0 0 0 0 0 0 0 0 0 0 0 0 0 0 0 0 0 0 0 0 0 0 0 0 0 0 0 0 0 0 0 0 0 0 0 0 0 0 
0 0 0 0 0 0 0 0 0 0 0 0 0 0 0 0 0 0 0 0 0 0 0 0 0 0 0 0 0 0 0 0 0 0 0 0 0 0 0 0 0 0 0 0 0 0 0 0 0 0 0 0 0 0 0 0 0 0 0 0 0 0 0 0 0 0 0 0 0 0 0 0 0 0 0 0 0 0 0 0 0 0 0 0 0 0 0 0 0 0 0 0 0 0 0 0 0 0 0 0 0 0 0 0 0 0 0 0 0 0 0 0 0 0 0 0 0 0 0 0 0 0 0 0 0 0 0 0 0 0 0 0 0 0 0 0 0 0 0 0 0 0 0 0 0 0 0 0 0 0 0 0 0 0 0 0 0 0 0 0 0 0 0 0 0 0 0 0 0 0 0 0 0 0 0 0 0 0 0 0 
0 0 0 0 0 0 0 0 0 0 0 0 0 0 0 0 0 0 0 0 0 0 0 0 0 0 0 0 0 0 0 0 0 0 0 0 0 0 0 0 0 0 0 0 0 0 0 0 0 0 0 0 0 0 0 0 0 0 0 0 0 0 0 0 0 0 0 0 0 0 0 0 0 0 0 0 0 0 0 0 0 0 0 0 0 0 0 0 0 0 0 0 0 0 0 0 0 0 0 0 0 0 0 0 0 0 0 0 0 0 0 0 0 0 0 0 0 0 0 0 0 0 0 0 0 0 0 0 0 0 0 0 0 0 0 0 0 0 0 0 0 0 0 0 0 0 0 0 0 0 0 0 0 0 0 0 0 0 0 0 0 0 0 0 0 0 0 0 0 0 0 0 0 0 0 0 0 0 0 0 
0 0 0 0 0 0 0 0 0 0 0 0 0 0 0 0 0 0 0 0 0 0 0 0 0 0 0 0 0 0 0 0 0 0 0 0 0 0 0 0 0 0 0 0 0 0 0 0 0 0 0 0 0 0 0 0 0 0 0 0 0 0 0 0 0 0 0 0 0 0 0 0 0 0 0 0 0 0 0 0 0 0 0 0 0 0 0 0 0 0 0 0 0 0 0 0 0 0 0 0 0 0 0 0 0 0 0 0 0 0 0 0 0 0 0 0 0 0 0 0 0 0 0 0 0 0 0 0 0 0 0 0 0 0 0 0 0 0 0 0 0 0 0 0 0 0 0 0 0 0 0 0 0 0 0 0 0 0 0 0 0 0 0 0 0 0 0 0 0 0 0 0 0 0 0 0 0 0 0 0 
0 0 0 0 0 0 0 0 0 0 0 0 0 0 0 0 0 0 0 0 0 0 0 0 0 0 0 0 0 0 0 0 0 0 0 0 0 0 0 0 0 0 0 0 0 0 0 0 0 0 0 0 0 0 0 0 0 0 0 0 0 0 0 0 0 0 0 0 0 0 0 0 0 0 0 0 0 0 0 0 0 0 0 0 0 0 0 0 0 0 0 0 0 0 0 0 0 0 0 0 0 0 0 0 0 0 0 0 0 0 0 0 0 0 0 0 0 0 0 0 0 0 0 0 0 0 0 0 0 0 0 0 0 0 0 0 0 0 0 0 0 0 0 0 0 0 0 0 0 0 0 0 0 0 0 0 0 0 0 0 0 0 0 0 0 0 0 0 0 0 0 0 0 0 0 0 0 0 0 0 
0 0 0 0 0 0 0 0 0 0 0 0 0 0 0 0 0 0 0 0 0 0 0 0 0 0 0 0 0 0 0 0 0 0 0 0 0 0 0 0 0 0 0 0 0 0 0 0 0 0 0 0 0 0 0 0 0 0 0 0 0 0 0 0 0 0 0 0 0 0 0 0 0 0 0 0 0 0 0 0 0 0 0 0 0 0 0 0 0 0 0 0 0 0 0 0 0 0 0 0 0 0 0 0 0 0 0 0 0 0 0 0 0 0 0 0 0 0 0 0 0 0 0 0 0 0 0 0 0 0 0 0 0 0 0 0 0 0 0 0 0 0 0 0 0 0 0 0 0 0 0 0 0 0 0 0 0 0 0 0 0 0 0 0 0 0 0 0 0 0 0 0 0 0 0 0 0 0 0 0 
