P3
# This is a dose file slice at depth 30 of 100
60 60
# now we give the maximum value of the RGB coordinates.
32965
0 0 0 5 0 0 2 0 0 1 0 0 0 0 0 0 0 0 4 0 0 1 0 0 3 0 0 4 0 0 3 0 0 1 0 0 2 0 0 3 0 0 4 0 0 3 0 0 5 0 0 6 0 0 4 0 0 4 0 0 5 0 0 3 0 0 1 0 0 4 0 0 5 0 0 1 0 0 7 0 0 5 0 0 5 0 0 4 0 0 5 0 0 5 0 0 5 0 0 4 0 0 4 0 0 2 0 0 2 0 0 5 0 0 3 0 0 2 0 0 2 0 0 6 0 0 3 0 0 4 0 0 8 0 0 3 0 0 1 0 0 4 0 0 1 0 0 3 0 0 5 0 0 4 0 0 6 0 0 2 0 0 1 0 0 3 0 0 3 0 0 0 0 0 0 0 0 3 0 0 
3 0 0 5 0 0 7 0 0 6 0 0 4 0 0 3 0 0 5 0 0 10 0 0 4 0 0 7 0 0 9 0 0 8 0 0 6 0 0 7 0 0 7 0 0 5 0 0 12 0 0 11 0 0 6 0 0 9 0 0 7 0 0 5 0 0 5 0 0 5 0 0 12 0 0 6 0 0 12 0 0 13 0 0 14 0 0 7 0 0 9 0 0 7 0 0 10 0 0 13 0 0 14 0 0 7 0 0 4 0 0 13 0 0 12 0 0 7 0 0 12 0 0 12 0 0 9 0 0 12 0 0 15 0 0 4 0 0 8 0 0 6 0 0 10 0 0 4 0 0 10 0 0 11 0 0 6 0 0 4 0 0 3 0 0 6 0 0 4 0 0 4 0 0 9 0 0 9 0 0 
0 0 0 5 0 0 6 0 0 4 0 0 6 0 0 5 0 0 3 0 0 8 0 0 6 0 0 5 0 0 13 0 0 10 0 0 9 0 0 9 0 0 9 0 0 7 0 0 11 0 0 10 0 0 10 0 0 9 0 0 9 0 0 3 0 0 6 0 0 9 0 0 11 0 0 10 0 0 7 0 0 17 0 0 12 0 0 9 0 0 7 0 0 5 0 0 13 0 0 12 0 0 19 0 0 10 0 0 7 0 0 10 0 0 10 0 0 7 0 0 10 0 0 14 0 0 13 0 0 12 0 0 12 0 0 10 0 0 12 0 0 9 0 0 10 0 0 6 0 0 9 0 0 18 0 0 5 0 0 6 0 0 6 0 0 4 0 0 4 0 0 4 0 0 4 0 0 3 0 0 
1 0 0 1 0 0 3 0 0 4 0 0 9 0 0 8 0 0 9 0 0 5 0 0 8 0 0 11 0 0 6 0 0 8 0 0 7 0 0 8 0 0 12 0 0 7 0 0 10 0 0 12 0 0 13 0 0 13 0 0 13 0 0 11 0 0 7 0 0 13 0 0 8 0 0 15 0 0 15 0 0 12 0 0 10 0 0 9 0 0 11 0 0 6 0 0 9 0 0 14 0 0 17 0 0 12 0 0 7 0 0 16 0 0 12 0 0 5 0 0 14 0 0 17 0 0 11 0 0 4 0 0 17 0 0 13 0 0 6 0 0 8 0 0 12 0 0 10 0 0 12 0 0 8 0 0 6 0 0 4 0 0 5 0 0 3 0 0 5 0 0 2 0 0 5 0 0 5 0 0 
4 0 0 5 0 0 4 0 0 3 0 0 6 0 0 7 0 0 6 0 0 5 0 0 5 0 0 8 0 0 11 0 0 4 0 0 8 0 0 9 0 0 11 0 0 16 0 0 13 0 0 12 0 0 12 0 0 19 0 0 17 0 0 12 0 0 11 0 0 17 0 0 13 0 0 13 0 0 14 0 0 20 0 0 15 0 0 20 0 0 16 0 0 4 0 0 12 0 0 15 0 0 16 0 0 12 0 0 13 0 0 18 0 0 16 0 0 9 0 0 13 0 0 19 0 0 11 0 0 6 0 0 17 0 0 7 0 0 12 0 0 6 0 0 11 0 0 14 0 0 15 0 0 6 0 0 6 0 0 8 0 0 4 0 0 4 0 0 2 0 0 2 0 0 5 0 0 2 0 0 
1 0 0 3 0 0 5 0 0 8 0 0 9 0 0 6 0 0 6 0 0 11 0 0 7 0 0 8 0 0 11 0 0 12 0 0 6 0 0 15 0 0 10 0 0 18 0 0 14 0 0 14 0 0 16 0 0 15 0 0 15 0 0 11 0 0 15 0 0 13 0 0 14 0 0 21 0 0 12 0 0 21 0 0 24 0 0 15 0 0 10 0 0 20 0 0 13 0 0 17 0 0 15 0 0 15 0 0 19 0 0 23 0 0 15 0 0 7 0 0 13 0 0 15 0 0 11 0 0 13 0 0 11 0 0 18 0 0 11 0 0 10 0 0 12 0 0 10 0 0 18 0 0 9 0 0 7 0 0 6 0 0 3 0 0 7 0 0 3 0 0 4 0 0 1 0 0 4 0 0 
1 0 0 8 0 0 3 0 0 3 0 0 8 0 0 6 0 0 12 0 0 12 0 0 12 0 0 14 0 0 14 0 0 12 0 0 10 0 0 12 0 0 15 0 0 14 0 0 19 0 0 24 0 0 19 0 0 17 0 0 21 0 0 20 0 0 15 0 0 20 0 0 10 0 0 19 0 0 25 0 0 20 0 0 22 0 0 19 0 0 20 0 0 18 0 0 13 0 0 16 0 0 18 0 0 22 0 0 19 0 0 23 0 0 27 0 0 8 0 0 18 0 0 22 0 0 18 0 0 17 0 0 18 0 0 11 0 0 18 0 0 15 0 0 12 0 0 17 0 0 16 0 0 12 0 0 9 0 0 7 0 0 9 0 0 5 0 0 4 0 0 4 0 0 7 0 0 12 0 0 
2 0 0 9 0 0 12 0 0 9 0 0 11 0 0 13 0 0 7 0 0 11 0 0 18 0 0 15 0 0 19 0 0 20 0 0 16 0 0 19 0 0 13 0 0 17 0 0 20 0 0 24 0 0 23 0 0 19 0 0 24 0 0 29 0 0 20 0 0 22 0 0 17 0 0 18 0 0 29 0 0 24 0 0 19 0 0 29 0 0 28 0 0 23 0 0 22 0 0 13 0 0 25 0 0 27 0 0 21 0 0 29 0 0 33 0 0 23 0 0 21 0 0 17 0 0 23 0 0 21 0 0 18 0 0 14 0 0 17 0 0 15 0 0 15 0 0 11 0 0 7 0 0 11 0 0 12 0 0 7 0 0 12 0 0 7 0 0 7 0 0 7 0 0 10 0 0 9 0 0 
3 0 0 4 0 0 9 0 0 10 0 0 10 0 0 12 0 0 12 0 0 10 0 0 17 0 0 21 0 0 17 0 0 18 0 0 20 0 0 20 0 0 24 0 0 15 0 0 24 0 0 25 0 0 24 0 0 35 0 0 29 0 0 30 0 0 33 0 0 28 0 0 30 0 0 27 0 0 30 0 0 30 0 0 31 0 0 36 0 0 29 0 0 27 0 0 24 0 0 36 0 0 24 0 0 33 0 0 30 0 0 36 0 0 35 0 0 21 0 0 32 0 0 29 0 0 21 0 0 24 0 0 31 0 0 24 0 0 19 0 0 15 0 0 18 0 0 19 0 0 14 0 0 14 0 0 17 0 0 14 0 0 7 0 0 9 0 0 9 0 0 6 0 0 6 0 0 10 0 0 
2 0 0 5 0 0 8 0 0 7 0 0 9 0 0 14 0 0 7 0 0 12 0 0 16 0 0 23 0 0 61 0 0 97 0 0 96 0 0 116 0 0 107 0 0 115 0 0 121 0 0 109 0 0 113 0 0 115 0 0 123 0 0 120 0 0 117 0 0 127 0 0 125 0 0 135 0 0 125 0 0 133 0 0 130 0 0 134 0 0 144 0 0 120 0 0 125 0 0 127 0 0 114 0 0 109 0 0 110 0 0 118 0 0 125 0 0 119 0 0 119 0 0 135 0 0 108 0 0 118 0 0 110 0 0 117 0 0 104 0 0 125 0 0 103 0 0 111 0 0 64 0 0 17 0 0 20 0 0 10 0 0 9 0 0 11 0 0 8 0 0 6 0 0 3 0 0 10 0 0 
2 0 0 6 0 0 8 0 0 5 0 0 6 0 0 11 0 0 12 0 0 17 0 0 22 0 0 68 0 0 4237 0 0 8190 0 0 8354 0 0 8288 0 0 8453 0 0 8264 0 0 8329 0 0 8315 0 0 8180 0 0 8351 0 0 8398 0 0 8547 0 0 8306 0 0 8367 0 0 8432 0 0 8364 0 0 8354 0 0 8332 0 0 8278 0 0 8355 0 0 8331 0 0 8320 0 0 8407 0 0 8351 0 0 8511 0 0 8302 0 0 8272 0 0 8315 0 0 8385 0 0 8336 0 0 8368 0 0 8558 0 0 8305 0 0 8333 0 0 8290 0 0 8224 0 0 8253 0 0 8285 0 0 8281 0 0 8309 0 0 4107 0 0 70 0 0 18 0 0 12 0 0 10 0 0 9 0 0 11 0 0 5 0 0 6 0 0 7 0 0 
1 0 0 5 0 0 8 0 0 6 0 0 6 0 0 5 0 0 6 0 0 9 0 0 24 0 0 109 0 0 8292 0 0 16570 0 0 16585 0 0 16623 0 0 16715 0 0 16697 0 0 16548 0 0 16644 0 0 16620 0 0 16661 0 0 16584 0 0 16570 0 0 16514 0 0 16580 0 0 16591 0 0 16652 0 0 16623 0 0 16705 0 0 16622 0 0 16785 0 0 16621 0 0 16651 0 0 16424 0 0 16524 0 0 16571 0 0 16657 0 0 16588 0 0 16646 0 0 16636 0 0 16711 0 0 16661 0 0 16578 0 0 16608 0 0 16438 0 0 16566 0 0 16661 0 0 16499 0 0 16374 0 0 16665 0 0 16447 0 0 8382 0 0 120 0 0 19 0 0 12 0 0 13 0 0 14 0 0 9 0 0 8 0 0 10 0 0 6 0 0 
3 0 0 7 0 0 7 0 0 7 0 0 11 0 0 12 0 0 9 0 0 15 0 0 24 0 0 120 0 0 8379 0 0 16785 0 0 16687 0 0 16752 0 0 16721 0 0 16877 0 0 16707 0 0 16767 0 0 16725 0 0 16675 0 0 16660 0 0 16721 0 0 16759 0 0 16679 0 0 16745 0 0 16748 0 0 16776 0 0 16995 0 0 16622 0 0 16722 0 0 16653 0 0 16761 0 0 16760 0 0 16482 0 0 16659 0 0 16633 0 0 16702 0 0 16687 0 0 16679 0 0 16772 0 0 16617 0 0 16555 0 0 16741 0 0 16650 0 0 16701 0 0 16666 0 0 16519 0 0 16725 0 0 16706 0 0 16575 0 0 8472 0 0 115 0 0 24 0 0 18 0 0 18 0 0 12 0 0 16 0 0 10 0 0 9 0 0 8 0 0 
4 0 0 7 0 0 9 0 0 10 0 0 13 0 0 13 0 0 17 0 0 27 0 0 21 0 0 118 0 0 8427 0 0 16637 0 0 16697 0 0 16627 0 0 16717 0 0 16750 0 0 16552 0 0 16780 0 0 16871 0 0 16553 0 0 16638 0 0 16819 0 0 16840 0 0 16795 0 0 16806 0 0 16607 0 0 16586 0 0 16583 0 0 16789 0 0 16677 0 0 16588 0 0 16749 0 0 16634 0 0 16804 0 0 16656 0 0 16681 0 0 16549 0 0 16734 0 0 16524 0 0 16755 0 0 16739 0 0 16577 0 0 16807 0 0 16590 0 0 16481 0 0 16844 0 0 16646 0 0 16705 0 0 16704 0 0 16624 0 0 8245 0 0 134 0 0 27 0 0 21 0 0 18 0 0 18 0 0 10 0 0 7 0 0 10 0 0 11 0 0 
3 0 0 7 0 0 9 0 0 11 0 0 11 0 0 15 0 0 10 0 0 20 0 0 29 0 0 136 0 0 8387 0 0 16533 0 0 16819 0 0 16819 0 0 16652 0 0 16658 0 0 16633 0 0 16770 0 0 16624 0 0 16878 0 0 16772 0 0 16522 0 0 16820 0 0 16665 0 0 16832 0 0 16800 0 0 16829 0 0 16698 0 0 16860 0 0 16713 0 0 16502 0 0 16617 0 0 16865 0 0 16721 0 0 16900 0 0 16773 0 0 16851 0 0 16822 0 0 16850 0 0 16782 0 0 16773 0 0 16550 0 0 16797 0 0 16798 0 0 16570 0 0 16584 0 0 16664 0 0 16536 0 0 16620 0 0 16558 0 0 8411 0 0 121 0 0 19 0 0 19 0 0 17 0 0 10 0 0 10 0 0 10 0 0 15 0 0 14 0 0 
5 0 0 12 0 0 7 0 0 8 0 0 12 0 0 12 0 0 12 0 0 15 0 0 24 0 0 125 0 0 8360 0 0 16449 0 0 16874 0 0 16548 0 0 16689 0 0 16813 0 0 16473 0 0 16772 0 0 16844 0 0 16740 0 0 16826 0 0 16671 0 0 16621 0 0 16542 0 0 16821 0 0 16759 0 0 16716 0 0 16699 0 0 16766 0 0 16836 0 0 16497 0 0 16880 0 0 16706 0 0 16739 0 0 16632 0 0 16449 0 0 16650 0 0 16548 0 0 16490 0 0 16690 0 0 16694 0 0 16783 0 0 16568 0 0 16629 0 0 16701 0 0 16685 0 0 16733 0 0 16692 0 0 16433 0 0 16541 0 0 8422 0 0 124 0 0 33 0 0 18 0 0 14 0 0 12 0 0 16 0 0 15 0 0 16 0 0 11 0 0 
7 0 0 15 0 0 12 0 0 15 0 0 11 0 0 13 0 0 18 0 0 21 0 0 33 0 0 125 0 0 8326 0 0 16437 0 0 16655 0 0 16804 0 0 16640 0 0 16796 0 0 17007 0 0 16666 0 0 16722 0 0 16683 0 0 16520 0 0 16533 0 0 16792 0 0 16588 0 0 16901 0 0 16654 0 0 16605 0 0 16757 0 0 16792 0 0 16582 0 0 16832 0 0 16508 0 0 16773 0 0 16653 0 0 16632 0 0 16605 0 0 16677 0 0 16803 0 0 16809 0 0 16860 0 0 16772 0 0 16604 0 0 16527 0 0 16765 0 0 16704 0 0 16694 0 0 16648 0 0 16612 0 0 16700 0 0 16419 0 0 8279 0 0 118 0 0 28 0 0 30 0 0 22 0 0 19 0 0 13 0 0 13 0 0 12 0 0 16 0 0 
10 0 0 13 0 0 13 0 0 14 0 0 18 0 0 15 0 0 15 0 0 16 0 0 36 0 0 122 0 0 8440 0 0 16700 0 0 16736 0 0 16457 0 0 16634 0 0 16716 0 0 16681 0 0 16907 0 0 16828 0 0 16948 0 0 16722 0 0 16695 0 0 16649 0 0 16686 0 0 16706 0 0 16625 0 0 16918 0 0 16682 0 0 16783 0 0 16718 0 0 16588 0 0 16770 0 0 16694 0 0 16859 0 0 16735 0 0 16596 0 0 16687 0 0 16746 0 0 16590 0 0 16755 0 0 16517 0 0 16682 0 0 16647 0 0 16813 0 0 16786 0 0 16792 0 0 16788 0 0 16759 0 0 16867 0 0 16393 0 0 8376 0 0 117 0 0 32 0 0 23 0 0 16 0 0 12 0 0 12 0 0 17 0 0 9 0 0 6 0 0 
3 0 0 10 0 0 10 0 0 10 0 0 13 0 0 14 0 0 26 0 0 23 0 0 33 0 0 141 0 0 8393 0 0 16508 0 0 16664 0 0 16667 0 0 16769 0 0 16756 0 0 16747 0 0 16586 0 0 16975 0 0 16610 0 0 16710 0 0 16833 0 0 16753 0 0 16752 0 0 16788 0 0 16708 0 0 16718 0 0 16695 0 0 16796 0 0 16787 0 0 16536 0 0 16752 0 0 16736 0 0 16584 0 0 16645 0 0 16830 0 0 16701 0 0 16558 0 0 16728 0 0 16773 0 0 16654 0 0 16654 0 0 16799 0 0 16826 0 0 16711 0 0 16737 0 0 16706 0 0 16715 0 0 16755 0 0 16530 0 0 8301 0 0 126 0 0 25 0 0 19 0 0 14 0 0 22 0 0 14 0 0 16 0 0 16 0 0 12 0 0 
5 0 0 12 0 0 8 0 0 11 0 0 12 0 0 18 0 0 17 0 0 24 0 0 28 0 0 127 0 0 8428 0 0 16704 0 0 16774 0 0 16786 0 0 16518 0 0 16898 0 0 16689 0 0 16836 0 0 16655 0 0 16724 0 0 16731 0 0 16679 0 0 16661 0 0 16810 0 0 16570 0 0 16802 0 0 16649 0 0 16677 0 0 16667 0 0 16722 0 0 16915 0 0 16775 0 0 16793 0 0 16909 0 0 16673 0 0 16819 0 0 16633 0 0 16665 0 0 16775 0 0 16659 0 0 17012 0 0 16618 0 0 16490 0 0 16701 0 0 16452 0 0 16753 0 0 16651 0 0 16820 0 0 16793 0 0 16638 0 0 8314 0 0 108 0 0 24 0 0 19 0 0 14 0 0 20 0 0 10 0 0 10 0 0 10 0 0 11 0 0 
3 0 0 12 0 0 7 0 0 9 0 0 17 0 0 14 0 0 12 0 0 15 0 0 20 0 0 118 0 0 8327 0 0 16504 0 0 16496 0 0 16792 0 0 16853 0 0 16755 0 0 16572 0 0 16730 0 0 16641 0 0 16662 0 0 16799 0 0 16870 0 0 16724 0 0 16716 0 0 16784 0 0 16708 0 0 16755 0 0 16638 0 0 16693 0 0 16693 0 0 16781 0 0 16573 0 0 16974 0 0 16732 0 0 16690 0 0 16604 0 0 16784 0 0 16874 0 0 16717 0 0 16753 0 0 16771 0 0 16794 0 0 16931 0 0 16825 0 0 16734 0 0 16847 0 0 16734 0 0 16840 0 0 16602 0 0 16514 0 0 8328 0 0 120 0 0 24 0 0 22 0 0 18 0 0 15 0 0 9 0 0 10 0 0 5 0 0 6 0 0 
2 0 0 11 0 0 16 0 0 15 0 0 15 0 0 17 0 0 20 0 0 19 0 0 26 0 0 103 0 0 8309 0 0 16392 0 0 16776 0 0 17015 0 0 16632 0 0 16560 0 0 16688 0 0 16709 0 0 16844 0 0 16479 0 0 16687 0 0 16828 0 0 16788 0 0 16674 0 0 16705 0 0 16610 0 0 16697 0 0 16607 0 0 16782 0 0 16825 0 0 16807 0 0 16796 0 0 16761 0 0 16666 0 0 16796 0 0 16597 0 0 16770 0 0 16672 0 0 16734 0 0 16827 0 0 16739 0 0 16781 0 0 16764 0 0 16602 0 0 16693 0 0 16827 0 0 16681 0 0 16518 0 0 16657 0 0 16524 0 0 8449 0 0 113 0 0 24 0 0 24 0 0 24 0 0 22 0 0 16 0 0 11 0 0 12 0 0 13 0 0 
6 0 0 9 0 0 5 0 0 10 0 0 13 0 0 16 0 0 20 0 0 27 0 0 28 0 0 117 0 0 8505 0 0 16340 0 0 16764 0 0 16386 0 0 16549 0 0 16690 0 0 16871 0 0 16839 0 0 16852 0 0 16588 0 0 16900 0 0 16712 0 0 16912 0 0 16855 0 0 16818 0 0 16784 0 0 16559 0 0 16560 0 0 16878 0 0 16505 0 0 16590 0 0 16635 0 0 16799 0 0 16758 0 0 16774 0 0 16745 0 0 16668 0 0 16729 0 0 16661 0 0 16666 0 0 16756 0 0 16433 0 0 16609 0 0 16474 0 0 16629 0 0 16687 0 0 16745 0 0 16496 0 0 16656 0 0 16584 0 0 8483 0 0 121 0 0 25 0 0 16 0 0 20 0 0 18 0 0 16 0 0 14 0 0 12 0 0 11 0 0 
4 0 0 12 0 0 14 0 0 14 0 0 12 0 0 14 0 0 16 0 0 22 0 0 38 0 0 121 0 0 8499 0 0 16726 0 0 16671 0 0 16890 0 0 16794 0 0 16918 0 0 16710 0 0 16737 0 0 16692 0 0 16719 0 0 16523 0 0 16831 0 0 16712 0 0 16785 0 0 16515 0 0 16743 0 0 16881 0 0 16889 0 0 16863 0 0 16729 0 0 16634 0 0 16708 0 0 16663 0 0 16539 0 0 16874 0 0 16854 0 0 16569 0 0 16630 0 0 16654 0 0 16776 0 0 16766 0 0 16863 0 0 16536 0 0 16864 0 0 16851 0 0 16798 0 0 16466 0 0 16576 0 0 16646 0 0 16628 0 0 8353 0 0 127 0 0 26 0 0 34 0 0 18 0 0 15 0 0 15 0 0 15 0 0 12 0 0 12 0 0 
6 0 0 21 0 0 19 0 0 15 0 0 16 0 0 17 0 0 17 0 0 30 0 0 26 0 0 117 0 0 8246 0 0 16737 0 0 16666 0 0 16781 0 0 16793 0 0 16780 0 0 16810 0 0 16588 0 0 16534 0 0 16773 0 0 16858 0 0 16761 0 0 16871 0 0 16816 0 0 16726 0 0 16628 0 0 16724 0 0 16743 0 0 16913 0 0 16746 0 0 16456 0 0 16655 0 0 16686 0 0 16777 0 0 16618 0 0 16638 0 0 16759 0 0 16576 0 0 16752 0 0 16734 0 0 16911 0 0 16687 0 0 16513 0 0 16709 0 0 16785 0 0 16659 0 0 16722 0 0 16752 0 0 16762 0 0 16655 0 0 8316 0 0 134 0 0 33 0 0 29 0 0 18 0 0 16 0 0 17 0 0 12 0 0 9 0 0 12 0 0 
5 0 0 6 0 0 11 0 0 19 0 0 19 0 0 17 0 0 19 0 0 19 0 0 24 0 0 120 0 0 8319 0 0 16499 0 0 16719 0 0 16800 0 0 16433 0 0 16574 0 0 16903 0 0 16650 0 0 16518 0 0 16635 0 0 16671 0 0 16813 0 0 16787 0 0 16652 0 0 16928 0 0 16791 0 0 16837 0 0 16725 0 0 16683 0 0 16815 0 0 16599 0 0 16703 0 0 16468 0 0 16732 0 0 16630 0 0 16694 0 0 16821 0 0 16701 0 0 16606 0 0 16583 0 0 16755 0 0 16703 0 0 16684 0 0 16518 0 0 16543 0 0 16633 0 0 16575 0 0 16653 0 0 16917 0 0 16798 0 0 8273 0 0 121 0 0 35 0 0 27 0 0 22 0 0 24 0 0 15 0 0 12 0 0 8 0 0 7 0 0 
4 0 0 9 0 0 9 0 0 12 0 0 15 0 0 29 0 0 20 0 0 16 0 0 22 0 0 114 0 0 8347 0 0 16573 0 0 16426 0 0 16561 0 0 16499 0 0 16793 0 0 16584 0 0 16747 0 0 16731 0 0 16626 0 0 16569 0 0 16759 0 0 16761 0 0 16767 0 0 16813 0 0 16702 0 0 16675 0 0 16479 0 0 16735 0 0 16924 0 0 16696 0 0 17026 0 0 16752 0 0 16878 0 0 16716 0 0 16612 0 0 16639 0 0 16763 0 0 16713 0 0 16801 0 0 16661 0 0 16449 0 0 16658 0 0 16632 0 0 16403 0 0 16699 0 0 16689 0 0 16418 0 0 16488 0 0 16499 0 0 8471 0 0 138 0 0 34 0 0 26 0 0 23 0 0 14 0 0 9 0 0 12 0 0 12 0 0 11 0 0 
2 0 0 9 0 0 7 0 0 10 0 0 10 0 0 10 0 0 24 0 0 28 0 0 30 0 0 122 0 0 8527 0 0 16566 0 0 16756 0 0 16609 0 0 16695 0 0 16821 0 0 16750 0 0 16744 0 0 16684 0 0 16629 0 0 16749 0 0 16710 0 0 16562 0 0 16815 0 0 16667 0 0 16568 0 0 16580 0 0 16720 0 0 16843 0 0 16681 0 0 16725 0 0 16887 0 0 16650 0 0 16714 0 0 16802 0 0 16799 0 0 16795 0 0 16845 0 0 16854 0 0 16625 0 0 16897 0 0 16596 0 0 16784 0 0 16943 0 0 16720 0 0 17031 0 0 16800 0 0 16499 0 0 16572 0 0 16658 0 0 8307 0 0 145 0 0 27 0 0 23 0 0 23 0 0 14 0 0 17 0 0 19 0 0 13 0 0 12 0 0 
4 0 0 8 0 0 10 0 0 11 0 0 11 0 0 22 0 0 24 0 0 27 0 0 29 0 0 132 0 0 8326 0 0 16723 0 0 16655 0 0 16768 0 0 16760 0 0 16748 0 0 16617 0 0 16632 0 0 16538 0 0 16604 0 0 16716 0 0 16760 0 0 16759 0 0 16768 0 0 16753 0 0 16965 0 0 16597 0 0 16724 0 0 16739 0 0 16638 0 0 16739 0 0 16661 0 0 16688 0 0 16777 0 0 16632 0 0 16644 0 0 16785 0 0 16575 0 0 16708 0 0 16799 0 0 16586 0 0 16786 0 0 16665 0 0 16399 0 0 16651 0 0 16666 0 0 16915 0 0 16572 0 0 16626 0 0 16478 0 0 8333 0 0 137 0 0 31 0 0 29 0 0 15 0 0 10 0 0 12 0 0 10 0 0 15 0 0 11 0 0 
7 0 0 17 0 0 12 0 0 16 0 0 16 0 0 17 0 0 24 0 0 35 0 0 25 0 0 111 0 0 8404 0 0 16791 0 0 16913 0 0 16836 0 0 16906 0 0 16760 0 0 16916 0 0 16805 0 0 16772 0 0 16830 0 0 16845 0 0 16760 0 0 16964 0 0 16816 0 0 16583 0 0 16645 0 0 16711 0 0 16457 0 0 16830 0 0 16631 0 0 16877 0 0 16779 0 0 16683 0 0 16556 0 0 16697 0 0 16882 0 0 16824 0 0 16693 0 0 16661 0 0 16710 0 0 16710 0 0 16676 0 0 16632 0 0 16688 0 0 16712 0 0 16553 0 0 16523 0 0 16713 0 0 16809 0 0 16572 0 0 8235 0 0 130 0 0 33 0 0 30 0 0 21 0 0 20 0 0 20 0 0 11 0 0 12 0 0 12 0 0 
8 0 0 14 0 0 12 0 0 11 0 0 13 0 0 19 0 0 15 0 0 24 0 0 29 0 0 122 0 0 8301 0 0 16540 0 0 16581 0 0 16672 0 0 17021 0 0 16874 0 0 16649 0 0 16888 0 0 16604 0 0 16702 0 0 16736 0 0 16720 0 0 16791 0 0 16850 0 0 16711 0 0 16679 0 0 16904 0 0 16840 0 0 16709 0 0 16789 0 0 16853 0 0 16805 0 0 16688 0 0 16712 0 0 16823 0 0 16506 0 0 16801 0 0 16498 0 0 16740 0 0 16697 0 0 16744 0 0 16788 0 0 16688 0 0 16925 0 0 16498 0 0 16778 0 0 16556 0 0 16799 0 0 16439 0 0 16717 0 0 8266 0 0 116 0 0 43 0 0 27 0 0 28 0 0 17 0 0 19 0 0 17 0 0 7 0 0 9 0 0 
6 0 0 10 0 0 11 0 0 20 0 0 24 0 0 18 0 0 14 0 0 22 0 0 31 0 0 126 0 0 8466 0 0 16655 0 0 16611 0 0 16757 0 0 16705 0 0 16589 0 0 16656 0 0 16723 0 0 16806 0 0 16655 0 0 16877 0 0 16617 0 0 16877 0 0 16679 0 0 16798 0 0 16917 0 0 16748 0 0 16843 0 0 16721 0 0 16602 0 0 16715 0 0 16707 0 0 16813 0 0 16855 0 0 16676 0 0 16725 0 0 16743 0 0 16650 0 0 16771 0 0 16805 0 0 16852 0 0 16765 0 0 16641 0 0 16599 0 0 16797 0 0 16679 0 0 16345 0 0 16731 0 0 16821 0 0 16461 0 0 8247 0 0 156 0 0 30 0 0 37 0 0 18 0 0 22 0 0 14 0 0 12 0 0 14 0 0 12 0 0 
6 0 0 8 0 0 10 0 0 16 0 0 20 0 0 14 0 0 12 0 0 25 0 0 26 0 0 127 0 0 8450 0 0 16738 0 0 16704 0 0 16602 0 0 16706 0 0 16425 0 0 16666 0 0 16514 0 0 17005 0 0 16815 0 0 16773 0 0 16680 0 0 16792 0 0 16666 0 0 16932 0 0 16688 0 0 16742 0 0 16906 0 0 16783 0 0 16815 0 0 16446 0 0 16837 0 0 16813 0 0 16828 0 0 16699 0 0 16734 0 0 16646 0 0 16725 0 0 16701 0 0 16750 0 0 16621 0 0 16865 0 0 16455 0 0 16762 0 0 16649 0 0 16713 0 0 16721 0 0 16781 0 0 16621 0 0 16667 0 0 8379 0 0 141 0 0 41 0 0 16 0 0 20 0 0 20 0 0 18 0 0 13 0 0 10 0 0 9 0 0 
3 0 0 11 0 0 14 0 0 14 0 0 13 0 0 13 0 0 15 0 0 19 0 0 29 0 0 138 0 0 8431 0 0 16749 0 0 16694 0 0 16822 0 0 16809 0 0 16551 0 0 16533 0 0 16972 0 0 16717 0 0 16633 0 0 16928 0 0 16735 0 0 16561 0 0 16743 0 0 16953 0 0 16840 0 0 16885 0 0 16730 0 0 16792 0 0 16632 0 0 16563 0 0 16612 0 0 16713 0 0 16822 0 0 16576 0 0 16902 0 0 16766 0 0 16824 0 0 16827 0 0 16524 0 0 16719 0 0 16835 0 0 16942 0 0 16751 0 0 16832 0 0 16763 0 0 16684 0 0 16814 0 0 16625 0 0 16653 0 0 8312 0 0 135 0 0 33 0 0 31 0 0 22 0 0 16 0 0 21 0 0 18 0 0 11 0 0 9 0 0 
2 0 0 12 0 0 11 0 0 12 0 0 13 0 0 11 0 0 16 0 0 29 0 0 30 0 0 118 0 0 8339 0 0 16656 0 0 16925 0 0 16676 0 0 16703 0 0 16812 0 0 16627 0 0 16699 0 0 16603 0 0 16721 0 0 16738 0 0 16632 0 0 16739 0 0 16957 0 0 16714 0 0 16746 0 0 16812 0 0 16818 0 0 16886 0 0 16660 0 0 16687 0 0 16700 0 0 16727 0 0 16685 0 0 16889 0 0 16734 0 0 16548 0 0 16716 0 0 16677 0 0 16792 0 0 16879 0 0 16911 0 0 16776 0 0 16724 0 0 16889 0 0 16773 0 0 16832 0 0 16839 0 0 16641 0 0 16687 0 0 8431 0 0 122 0 0 36 0 0 20 0 0 23 0 0 20 0 0 18 0 0 11 0 0 7 0 0 11 0 0 
6 0 0 7 0 0 14 0 0 11 0 0 13 0 0 17 0 0 22 0 0 29 0 0 33 0 0 113 0 0 8434 0 0 16650 0 0 16623 0 0 16887 0 0 16804 0 0 16718 0 0 16911 0 0 16722 0 0 16509 0 0 16545 0 0 16652 0 0 16676 0 0 16485 0 0 16820 0 0 16748 0 0 16638 0 0 16639 0 0 16714 0 0 16873 0 0 16819 0 0 16784 0 0 16790 0 0 16685 0 0 16895 0 0 16655 0 0 16781 0 0 16670 0 0 16681 0 0 16699 0 0 16725 0 0 16336 0 0 16732 0 0 16485 0 0 16551 0 0 16714 0 0 16670 0 0 16837 0 0 16677 0 0 16607 0 0 16673 0 0 8294 0 0 131 0 0 29 0 0 25 0 0 22 0 0 23 0 0 9 0 0 12 0 0 8 0 0 7 0 0 
7 0 0 12 0 0 10 0 0 9 0 0 9 0 0 18 0 0 25 0 0 26 0 0 33 0 0 124 0 0 8338 0 0 16576 0 0 16783 0 0 16701 0 0 16571 0 0 16882 0 0 16671 0 0 16743 0 0 16679 0 0 16829 0 0 16613 0 0 16638 0 0 16642 0 0 16677 0 0 16765 0 0 16741 0 0 16795 0 0 16792 0 0 16752 0 0 16582 0 0 16640 0 0 16807 0 0 16694 0 0 16551 0 0 16714 0 0 16760 0 0 16759 0 0 16757 0 0 16712 0 0 16698 0 0 16547 0 0 16852 0 0 16757 0 0 16589 0 0 16735 0 0 16936 0 0 16744 0 0 16439 0 0 16713 0 0 16571 0 0 8323 0 0 130 0 0 35 0 0 28 0 0 20 0 0 15 0 0 14 0 0 12 0 0 13 0 0 16 0 0 
7 0 0 15 0 0 9 0 0 10 0 0 10 0 0 14 0 0 16 0 0 19 0 0 24 0 0 120 0 0 8321 0 0 16837 0 0 16663 0 0 16505 0 0 16697 0 0 16742 0 0 16620 0 0 16630 0 0 16715 0 0 16796 0 0 16671 0 0 16617 0 0 16788 0 0 16858 0 0 16941 0 0 16702 0 0 16832 0 0 16807 0 0 16757 0 0 16463 0 0 16634 0 0 16745 0 0 16821 0 0 16573 0 0 16688 0 0 16986 0 0 16615 0 0 16597 0 0 16478 0 0 16575 0 0 16737 0 0 16699 0 0 16854 0 0 16595 0 0 16758 0 0 16761 0 0 16737 0 0 16740 0 0 16785 0 0 16313 0 0 8290 0 0 120 0 0 31 0 0 26 0 0 25 0 0 20 0 0 17 0 0 15 0 0 17 0 0 11 0 0 
4 0 0 10 0 0 9 0 0 14 0 0 12 0 0 12 0 0 17 0 0 19 0 0 26 0 0 141 0 0 8496 0 0 16594 0 0 16621 0 0 16616 0 0 16644 0 0 16790 0 0 16728 0 0 16717 0 0 16696 0 0 16728 0 0 16588 0 0 16495 0 0 16854 0 0 16715 0 0 16773 0 0 16885 0 0 16518 0 0 16970 0 0 16747 0 0 16622 0 0 16696 0 0 16809 0 0 16977 0 0 16763 0 0 16895 0 0 16776 0 0 16868 0 0 16723 0 0 16748 0 0 16817 0 0 16751 0 0 16613 0 0 16877 0 0 16750 0 0 16747 0 0 16631 0 0 16611 0 0 16593 0 0 16847 0 0 16358 0 0 8354 0 0 141 0 0 47 0 0 31 0 0 20 0 0 14 0 0 22 0 0 16 0 0 14 0 0 10 0 0 
4 0 0 8 0 0 8 0 0 9 0 0 11 0 0 21 0 0 15 0 0 18 0 0 18 0 0 120 0 0 8232 0 0 16802 0 0 16776 0 0 16609 0 0 16640 0 0 16708 0 0 16874 0 0 16452 0 0 16741 0 0 16851 0 0 16646 0 0 16691 0 0 16677 0 0 16687 0 0 16708 0 0 16706 0 0 16768 0 0 16877 0 0 16755 0 0 16668 0 0 16687 0 0 16527 0 0 16717 0 0 16833 0 0 16799 0 0 16728 0 0 16480 0 0 16509 0 0 16570 0 0 16629 0 0 16750 0 0 16694 0 0 16580 0 0 16837 0 0 16776 0 0 16837 0 0 16620 0 0 16674 0 0 16642 0 0 16665 0 0 8373 0 0 127 0 0 33 0 0 25 0 0 17 0 0 23 0 0 15 0 0 19 0 0 19 0 0 18 0 0 
6 0 0 5 0 0 8 0 0 10 0 0 13 0 0 15 0 0 23 0 0 22 0 0 27 0 0 114 0 0 8203 0 0 16556 0 0 16685 0 0 16613 0 0 16685 0 0 16688 0 0 16745 0 0 16627 0 0 16587 0 0 17027 0 0 16750 0 0 16754 0 0 16664 0 0 16715 0 0 16853 0 0 16763 0 0 16637 0 0 16527 0 0 16697 0 0 16744 0 0 16755 0 0 16802 0 0 16810 0 0 16660 0 0 16847 0 0 16949 0 0 16796 0 0 16825 0 0 16529 0 0 16816 0 0 16769 0 0 16989 0 0 16801 0 0 16730 0 0 16652 0 0 16600 0 0 16573 0 0 16773 0 0 16817 0 0 16839 0 0 8412 0 0 116 0 0 27 0 0 20 0 0 14 0 0 12 0 0 15 0 0 15 0 0 19 0 0 14 0 0 
1 0 0 7 0 0 7 0 0 8 0 0 8 0 0 18 0 0 13 0 0 24 0 0 30 0 0 123 0 0 8342 0 0 16627 0 0 16747 0 0 16640 0 0 16556 0 0 16658 0 0 16644 0 0 16618 0 0 16733 0 0 16764 0 0 16829 0 0 16630 0 0 16926 0 0 16794 0 0 16905 0 0 16630 0 0 16772 0 0 16836 0 0 16812 0 0 16669 0 0 16834 0 0 16622 0 0 16805 0 0 16661 0 0 16760 0 0 16809 0 0 16608 0 0 16689 0 0 16439 0 0 16736 0 0 16823 0 0 16843 0 0 16657 0 0 16595 0 0 16497 0 0 16417 0 0 16810 0 0 16585 0 0 16552 0 0 16484 0 0 8360 0 0 113 0 0 25 0 0 21 0 0 21 0 0 14 0 0 13 0 0 9 0 0 12 0 0 12 0 0 
1 0 0 2 0 0 7 0 0 23 0 0 20 0 0 13 0 0 17 0 0 25 0 0 24 0 0 108 0 0 8425 0 0 16717 0 0 16639 0 0 16579 0 0 16717 0 0 16586 0 0 16883 0 0 16555 0 0 16836 0 0 16515 0 0 16657 0 0 16713 0 0 16675 0 0 16588 0 0 16737 0 0 16746 0 0 16578 0 0 16631 0 0 16719 0 0 16725 0 0 16720 0 0 16806 0 0 16663 0 0 16574 0 0 16832 0 0 16700 0 0 16870 0 0 16700 0 0 16534 0 0 16648 0 0 16651 0 0 16684 0 0 16682 0 0 16717 0 0 16870 0 0 16856 0 0 16819 0 0 16736 0 0 16667 0 0 16652 0 0 8314 0 0 120 0 0 23 0 0 20 0 0 21 0 0 16 0 0 16 0 0 12 0 0 2 0 0 9 0 0 
3 0 0 12 0 0 14 0 0 12 0 0 19 0 0 17 0 0 17 0 0 25 0 0 32 0 0 128 0 0 8424 0 0 16783 0 0 16658 0 0 16578 0 0 16928 0 0 16539 0 0 16845 0 0 16758 0 0 16454 0 0 16736 0 0 16744 0 0 16640 0 0 16671 0 0 16614 0 0 16730 0 0 16682 0 0 16512 0 0 16944 0 0 16491 0 0 16663 0 0 16600 0 0 16436 0 0 16624 0 0 16678 0 0 16563 0 0 16760 0 0 16615 0 0 16671 0 0 16870 0 0 16673 0 0 16651 0 0 16638 0 0 16754 0 0 16776 0 0 16752 0 0 16717 0 0 16634 0 0 16732 0 0 16830 0 0 16715 0 0 8474 0 0 116 0 0 25 0 0 16 0 0 14 0 0 8 0 0 14 0 0 9 0 0 10 0 0 4 0 0 
3 0 0 12 0 0 12 0 0 12 0 0 11 0 0 9 0 0 13 0 0 16 0 0 18 0 0 118 0 0 8356 0 0 16728 0 0 16824 0 0 16721 0 0 16698 0 0 16620 0 0 16718 0 0 16701 0 0 16683 0 0 16686 0 0 16750 0 0 16547 0 0 16619 0 0 16716 0 0 16634 0 0 16593 0 0 16599 0 0 16720 0 0 16669 0 0 16647 0 0 16868 0 0 16730 0 0 16748 0 0 16679 0 0 16696 0 0 16662 0 0 16750 0 0 16577 0 0 16906 0 0 16575 0 0 16868 0 0 16794 0 0 16661 0 0 16936 0 0 16807 0 0 16617 0 0 16623 0 0 16820 0 0 16739 0 0 16594 0 0 8300 0 0 113 0 0 31 0 0 18 0 0 19 0 0 17 0 0 11 0 0 7 0 0 10 0 0 14 0 0 
3 0 0 4 0 0 8 0 0 10 0 0 12 0 0 15 0 0 13 0 0 14 0 0 14 0 0 108 0 0 8323 0 0 16596 0 0 16469 0 0 16696 0 0 16889 0 0 16601 0 0 16602 0 0 16731 0 0 16760 0 0 16856 0 0 16663 0 0 16432 0 0 16854 0 0 16760 0 0 16715 0 0 16722 0 0 16902 0 0 16371 0 0 16567 0 0 16535 0 0 16734 0 0 16650 0 0 16900 0 0 16682 0 0 16527 0 0 16590 0 0 16874 0 0 16713 0 0 16609 0 0 16545 0 0 16746 0 0 16994 0 0 16754 0 0 16778 0 0 16649 0 0 16672 0 0 16620 0 0 16563 0 0 16777 0 0 16601 0 0 8464 0 0 120 0 0 24 0 0 22 0 0 24 0 0 13 0 0 15 0 0 11 0 0 7 0 0 11 0 0 
2 0 0 4 0 0 8 0 0 13 0 0 13 0 0 15 0 0 16 0 0 16 0 0 25 0 0 104 0 0 8503 0 0 16438 0 0 16570 0 0 16629 0 0 16739 0 0 16643 0 0 16743 0 0 16638 0 0 16719 0 0 16668 0 0 16767 0 0 16772 0 0 16912 0 0 16719 0 0 16518 0 0 16539 0 0 16742 0 0 16823 0 0 16649 0 0 16774 0 0 16970 0 0 16524 0 0 16574 0 0 16833 0 0 16699 0 0 16840 0 0 16784 0 0 16785 0 0 16643 0 0 16803 0 0 16564 0 0 16725 0 0 16663 0 0 16714 0 0 16735 0 0 16691 0 0 16585 0 0 16587 0 0 16639 0 0 16603 0 0 8249 0 0 109 0 0 26 0 0 17 0 0 18 0 0 24 0 0 13 0 0 10 0 0 12 0 0 8 0 0 
5 0 0 11 0 0 11 0 0 10 0 0 9 0 0 10 0 0 14 0 0 12 0 0 21 0 0 115 0 0 8174 0 0 16448 0 0 16714 0 0 16573 0 0 16806 0 0 16634 0 0 16727 0 0 16530 0 0 16764 0 0 16873 0 0 16538 0 0 16621 0 0 16611 0 0 16784 0 0 16671 0 0 16873 0 0 16629 0 0 16767 0 0 16784 0 0 16780 0 0 16805 0 0 16604 0 0 16733 0 0 16620 0 0 16697 0 0 16809 0 0 16816 0 0 16755 0 0 16500 0 0 16704 0 0 16520 0 0 16561 0 0 16643 0 0 16689 0 0 16670 0 0 16247 0 0 16619 0 0 16868 0 0 16808 0 0 16618 0 0 8296 0 0 114 0 0 31 0 0 23 0 0 15 0 0 14 0 0 13 0 0 14 0 0 9 0 0 4 0 0 
5 0 0 9 0 0 11 0 0 6 0 0 10 0 0 12 0 0 18 0 0 16 0 0 24 0 0 101 0 0 8492 0 0 16489 0 0 16540 0 0 16681 0 0 16721 0 0 16664 0 0 16713 0 0 16766 0 0 16776 0 0 16932 0 0 16740 0 0 16697 0 0 16699 0 0 16464 0 0 16827 0 0 16727 0 0 16961 0 0 16767 0 0 16767 0 0 16586 0 0 16407 0 0 16697 0 0 16554 0 0 16727 0 0 16672 0 0 16752 0 0 16977 0 0 16609 0 0 16659 0 0 16661 0 0 16844 0 0 16793 0 0 16770 0 0 16747 0 0 16856 0 0 16695 0 0 16668 0 0 16625 0 0 16761 0 0 16780 0 0 8382 0 0 127 0 0 21 0 0 19 0 0 15 0 0 15 0 0 12 0 0 10 0 0 7 0 0 4 0 0 
6 0 0 12 0 0 5 0 0 8 0 0 10 0 0 15 0 0 15 0 0 17 0 0 19 0 0 100 0 0 8343 0 0 16517 0 0 16729 0 0 16508 0 0 16656 0 0 16379 0 0 16454 0 0 16659 0 0 16675 0 0 16774 0 0 16567 0 0 16660 0 0 16578 0 0 16681 0 0 16495 0 0 16617 0 0 16460 0 0 16565 0 0 16585 0 0 16500 0 0 16516 0 0 16719 0 0 16729 0 0 16631 0 0 16605 0 0 16419 0 0 16604 0 0 16501 0 0 16619 0 0 16605 0 0 16350 0 0 16715 0 0 16654 0 0 16461 0 0 16454 0 0 16544 0 0 16570 0 0 16740 0 0 16520 0 0 16484 0 0 8212 0 0 110 0 0 24 0 0 11 0 0 8 0 0 15 0 0 14 0 0 8 0 0 9 0 0 6 0 0 
5 0 0 7 0 0 5 0 0 7 0 0 11 0 0 13 0 0 9 0 0 6 0 0 17 0 0 58 0 0 4219 0 0 8297 0 0 8462 0 0 8490 0 0 8137 0 0 8309 0 0 8451 0 0 8223 0 0 8348 0 0 8338 0 0 8385 0 0 8333 0 0 8336 0 0 8364 0 0 8286 0 0 8498 0 0 8254 0 0 8318 0 0 8382 0 0 8236 0 0 8351 0 0 8405 0 0 8212 0 0 8291 0 0 8346 0 0 8349 0 0 8304 0 0 8354 0 0 8324 0 0 8319 0 0 8143 0 0 8196 0 0 8140 0 0 8359 0 0 8432 0 0 8359 0 0 8204 0 0 8247 0 0 8370 0 0 8369 0 0 4173 0 0 61 0 0 22 0 0 12 0 0 13 0 0 5 0 0 8 0 0 3 0 0 9 0 0 9 0 0 
1 0 0 2 0 0 7 0 0 10 0 0 8 0 0 12 0 0 7 0 0 13 0 0 16 0 0 12 0 0 63 0 0 125 0 0 101 0 0 117 0 0 128 0 0 110 0 0 129 0 0 117 0 0 126 0 0 127 0 0 121 0 0 119 0 0 115 0 0 122 0 0 116 0 0 140 0 0 137 0 0 118 0 0 132 0 0 128 0 0 113 0 0 119 0 0 116 0 0 118 0 0 128 0 0 117 0 0 130 0 0 120 0 0 128 0 0 109 0 0 132 0 0 132 0 0 114 0 0 130 0 0 141 0 0 116 0 0 137 0 0 132 0 0 119 0 0 108 0 0 51 0 0 14 0 0 18 0 0 17 0 0 11 0 0 13 0 0 7 0 0 7 0 0 4 0 0 8 0 0 
4 0 0 9 0 0 8 0 0 4 0 0 5 0 0 16 0 0 12 0 0 12 0 0 10 0 0 12 0 0 15 0 0 15 0 0 21 0 0 18 0 0 25 0 0 20 0 0 28 0 0 25 0 0 26 0 0 20 0 0 35 0 0 34 0 0 37 0 0 34 0 0 31 0 0 37 0 0 32 0 0 35 0 0 31 0 0 41 0 0 33 0 0 36 0 0 39 0 0 30 0 0 33 0 0 33 0 0 33 0 0 35 0 0 28 0 0 30 0 0 27 0 0 23 0 0 29 0 0 28 0 0 28 0 0 24 0 0 30 0 0 25 0 0 19 0 0 23 0 0 19 0 0 10 0 0 17 0 0 12 0 0 14 0 0 12 0 0 12 0 0 9 0 0 4 0 0 5 0 0 
1 0 0 5 0 0 2 0 0 6 0 0 13 0 0 12 0 0 6 0 0 5 0 0 7 0 0 10 0 0 11 0 0 15 0 0 13 0 0 19 0 0 15 0 0 11 0 0 15 0 0 20 0 0 16 0 0 20 0 0 21 0 0 20 0 0 24 0 0 31 0 0 26 0 0 27 0 0 23 0 0 28 0 0 23 0 0 25 0 0 24 0 0 30 0 0 24 0 0 21 0 0 24 0 0 27 0 0 24 0 0 22 0 0 27 0 0 21 0 0 16 0 0 15 0 0 22 0 0 27 0 0 12 0 0 22 0 0 18 0 0 16 0 0 15 0 0 19 0 0 12 0 0 10 0 0 11 0 0 5 0 0 9 0 0 9 0 0 14 0 0 9 0 0 7 0 0 4 0 0 
3 0 0 7 0 0 5 0 0 6 0 0 11 0 0 6 0 0 9 0 0 10 0 0 11 0 0 9 0 0 7 0 0 14 0 0 16 0 0 18 0 0 18 0 0 15 0 0 17 0 0 21 0 0 20 0 0 14 0 0 15 0 0 22 0 0 17 0 0 12 0 0 19 0 0 23 0 0 23 0 0 24 0 0 20 0 0 23 0 0 23 0 0 21 0 0 19 0 0 16 0 0 18 0 0 18 0 0 13 0 0 24 0 0 25 0 0 20 0 0 12 0 0 14 0 0 13 0 0 21 0 0 19 0 0 13 0 0 16 0 0 9 0 0 9 0 0 10 0 0 16 0 0 11 0 0 6 0 0 6 0 0 9 0 0 1 0 0 8 0 0 7 0 0 7 0 0 5 0 0 
3 0 0 6 0 0 6 0 0 5 0 0 3 0 0 5 0 0 8 0 0 12 0 0 10 0 0 8 0 0 12 0 0 18 0 0 21 0 0 12 0 0 18 0 0 12 0 0 13 0 0 18 0 0 18 0 0 18 0 0 17 0 0 10 0 0 12 0 0 8 0 0 12 0 0 14 0 0 15 0 0 18 0 0 24 0 0 18 0 0 31 0 0 21 0 0 17 0 0 9 0 0 17 0 0 15 0 0 14 0 0 23 0 0 23 0 0 18 0 0 13 0 0 14 0 0 10 0 0 18 0 0 19 0 0 9 0 0 11 0 0 10 0 0 11 0 0 8 0 0 10 0 0 8 0 0 12 0 0 3 0 0 7 0 0 3 0 0 7 0 0 5 0 0 10 0 0 5 0 0 
1 0 0 4 0 0 6 0 0 9 0 0 3 0 0 6 0 0 6 0 0 11 0 0 2 0 0 15 0 0 9 0 0 14 0 0 15 0 0 11 0 0 10 0 0 13 0 0 11 0 0 6 0 0 19 0 0 18 0 0 12 0 0 9 0 0 10 0 0 14 0 0 8 0 0 13 0 0 12 0 0 17 0 0 12 0 0 19 0 0 20 0 0 19 0 0 8 0 0 14 0 0 19 0 0 21 0 0 16 0 0 9 0 0 14 0 0 15 0 0 11 0 0 17 0 0 12 0 0 19 0 0 10 0 0 3 0 0 11 0 0 8 0 0 5 0 0 8 0 0 7 0 0 4 0 0 7 0 0 7 0 0 4 0 0 6 0 0 5 0 0 5 0 0 4 0 0 6 0 0 
0 0 0 5 0 0 7 0 0 5 0 0 2 0 0 4 0 0 7 0 0 7 0 0 5 0 0 11 0 0 9 0 0 10 0 0 16 0 0 10 0 0 10 0 0 15 0 0 4 0 0 7 0 0 12 0 0 18 0 0 8 0 0 9 0 0 13 0 0 19 0 0 13 0 0 11 0 0 19 0 0 12 0 0 14 0 0 21 0 0 22 0 0 20 0 0 11 0 0 17 0 0 24 0 0 22 0 0 12 0 0 14 0 0 9 0 0 12 0 0 3 0 0 16 0 0 12 0 0 13 0 0 10 0 0 5 0 0 6 0 0 9 0 0 5 0 0 5 0 0 5 0 0 7 0 0 3 0 0 8 0 0 4 0 0 7 0 0 4 0 0 4 0 0 4 0 0 12 0 0 
1 0 0 7 0 0 6 0 0 4 0 0 4 0 0 7 0 0 12 0 0 11 0 0 6 0 0 5 0 0 8 0 0 7 0 0 5 0 0 6 0 0 8 0 0 14 0 0 1 0 0 11 0 0 13 0 0 12 0 0 6 0 0 14 0 0 14 0 0 9 0 0 8 0 0 9 0 0 14 0 0 12 0 0 12 0 0 12 0 0 16 0 0 16 0 0 20 0 0 12 0 0 14 0 0 20 0 0 8 0 0 12 0 0 12 0 0 11 0 0 13 0 0 8 0 0 10 0 0 11 0 0 9 0 0 9 0 0 8 0 0 9 0 0 5 0 0 7 0 0 6 0 0 6 0 0 9 0 0 5 0 0 11 0 0 12 0 0 10 0 0 6 0 0 3 0 0 8 0 0 
3 0 0 5 0 0 6 0 0 8 0 0 10 0 0 9 0 0 12 0 0 7 0 0 6 0 0 8 0 0 4 0 0 6 0 0 6 0 0 10 0 0 12 0 0 9 0 0 6 0 0 8 0 0 8 0 0 15 0 0 8 0 0 8 0 0 18 0 0 10 0 0 16 0 0 10 0 0 9 0 0 11 0 0 10 0 0 10 0 0 14 0 0 11 0 0 19 0 0 13 0 0 11 0 0 15 0 0 11 0 0 12 0 0 17 0 0 12 0 0 12 0 0 9 0 0 14 0 0 15 0 0 9 0 0 2 0 0 6 0 0 7 0 0 4 0 0 7 0 0 2 0 0 6 0 0 8 0 0 4 0 0 3 0 0 8 0 0 7 0 0 10 0 0 6 0 0 5 0 0 
