P3
# This is a dose file slice at depth 75 of 100
60 60
# now we give the maximum value of the RGB coordinates.
34334
0 0 0 0 0 0 0 0 0 0 0 0 0 0 0 0 0 0 0 0 0 0 0 0 0 0 0 0 0 0 0 0 0 0 0 0 0 0 0 0 0 0 0 0 0 0 0 0 0 0 0 0 0 0 0 0 0 0 0 0 0 0 0 0 0 0 0 0 0 0 0 0 0 0 0 0 0 0 0 0 0 0 0 0 0 0 0 0 0 0 0 0 0 0 0 0 0 0 0 0 0 0 0 0 0 0 0 0 0 0 0 0 0 0 0 0 0 0 0 0 0 0 0 0 0 0 0 0 0 0 0 0 0 0 0 0 0 0 0 0 0 0 0 0 0 0 0 0 0 0 0 0 0 0 0 0 0 0 0 0 0 0 0 0 0 0 0 0 0 0 0 0 0 0 0 0 0 0 0 0 
0 0 0 0 0 0 0 0 0 0 0 0 0 0 0 0 0 0 0 0 0 0 0 0 0 0 0 0 0 0 0 0 0 0 0 0 0 0 0 0 0 0 0 0 0 0 0 0 0 0 0 0 0 0 0 0 0 0 0 0 0 0 0 0 0 0 0 0 0 0 0 0 0 0 0 0 0 0 0 0 0 0 0 0 0 0 0 0 0 0 0 0 0 0 0 0 0 0 0 0 0 0 0 0 0 0 0 0 0 0 0 0 0 0 0 0 0 0 0 0 0 0 0 0 0 0 0 0 0 0 0 0 0 0 0 0 0 0 0 0 0 0 0 0 0 0 0 0 0 0 0 0 0 0 0 0 0 0 0 0 0 0 0 0 0 0 0 0 0 0 0 0 0 0 0 0 0 0 0 0 
0 0 0 0 0 0 0 0 0 0 0 0 0 0 0 0 0 0 0 0 0 0 0 0 0 0 0 0 0 0 0 0 0 0 0 0 0 0 0 0 0 0 0 0 0 0 0 0 0 0 0 0 0 0 0 0 0 0 0 0 0 0 0 0 0 0 0 0 0 0 0 0 0 0 0 0 0 0 0 0 0 0 0 0 0 0 0 0 0 0 0 0 0 0 0 0 0 0 0 0 0 0 0 0 0 0 0 0 0 0 0 0 0 0 0 0 0 0 0 0 0 0 0 0 0 0 0 0 0 0 0 0 0 0 0 0 0 0 0 0 0 0 0 0 0 0 0 0 0 0 0 0 0 0 0 0 0 0 0 0 0 0 0 0 0 0 0 0 0 0 0 0 0 0 0 0 0 0 0 0 
0 0 0 0 0 0 0 0 0 0 0 0 0 0 0 0 0 0 0 0 0 0 0 0 0 0 0 0 0 0 0 0 0 0 0 0 0 0 0 0 0 0 0 0 0 0 0 0 0 0 0 0 0 0 0 0 0 0 0 0 0 0 0 0 0 0 0 0 0 0 0 0 0 0 0 0 0 0 0 0 0 0 0 0 0 0 0 0 0 0 0 0 0 0 0 0 0 0 0 0 0 0 0 0 0 0 0 0 0 0 0 0 0 0 0 0 0 0 0 0 0 0 0 0 0 0 0 0 0 0 0 0 0 0 0 0 0 0 0 0 0 0 0 0 0 0 0 0 0 0 0 0 0 0 0 0 0 0 0 0 0 0 0 0 0 0 0 0 0 0 0 0 0 0 0 0 0 0 0 0 
0 0 0 0 0 0 0 0 0 0 0 0 0 0 0 0 0 0 0 0 0 0 0 0 0 0 0 0 0 0 0 0 0 0 0 0 0 0 0 0 0 0 0 0 0 0 0 0 0 0 0 0 0 0 0 0 0 0 0 0 0 0 0 0 0 0 0 0 0 0 0 0 0 0 0 0 0 0 0 0 0 0 0 0 0 0 0 0 0 0 0 0 0 0 0 0 0 0 0 0 0 0 0 0 0 0 0 0 0 0 0 0 0 0 0 0 0 0 0 0 0 0 0 0 0 0 0 0 0 0 0 0 0 0 0 0 0 0 0 0 0 0 0 0 0 0 0 0 0 0 0 0 0 0 0 0 0 0 0 0 0 0 0 0 0 0 0 0 0 0 0 0 0 0 0 0 0 0 0 0 
0 0 0 0 0 0 0 0 0 0 0 0 0 0 0 0 0 0 0 0 0 0 0 0 0 0 0 0 0 0 0 0 0 0 0 0 0 0 0 0 0 0 0 0 0 0 0 0 0 0 0 0 0 0 0 0 0 0 0 0 0 0 0 0 0 0 0 0 0 0 0 0 0 0 0 0 0 0 0 0 0 0 0 0 0 0 0 0 0 0 0 0 0 0 0 0 0 0 0 0 0 0 0 0 0 0 0 0 0 0 0 0 0 0 0 0 0 0 0 0 0 0 0 0 0 0 0 0 0 0 0 0 0 0 0 0 0 0 0 0 0 0 0 0 0 0 0 0 0 0 0 0 0 0 0 0 0 0 0 0 0 0 0 0 0 0 0 0 0 0 0 0 0 0 0 0 0 0 0 0 
0 0 0 0 0 0 0 0 0 0 0 0 0 0 0 0 0 0 0 0 0 0 0 0 0 0 0 0 0 0 0 0 0 0 0 0 0 0 0 0 0 0 0 0 0 0 0 0 0 0 0 0 0 0 0 0 0 0 0 0 0 0 0 0 0 0 0 0 0 0 0 0 0 0 0 0 0 0 0 0 0 0 0 0 0 0 0 0 0 0 0 0 0 0 0 0 0 0 0 0 0 0 0 0 0 0 0 0 0 0 0 0 0 0 0 0 0 0 0 0 0 0 0 0 0 0 0 0 0 0 0 0 0 0 0 0 0 0 0 0 0 0 0 0 0 0 0 0 0 0 0 0 0 0 0 0 0 0 0 0 0 0 0 0 0 0 0 0 0 0 0 0 0 0 0 0 0 0 0 0 
0 0 0 0 0 0 0 0 0 0 0 0 0 0 0 0 0 0 0 0 0 0 0 0 0 0 0 0 0 0 0 0 0 0 0 0 0 0 0 0 0 0 0 0 0 0 0 0 0 0 0 0 0 0 0 0 0 0 0 0 0 0 0 0 0 0 0 0 0 0 0 0 0 0 0 0 0 0 0 0 0 0 0 0 0 0 0 0 0 0 0 0 0 0 0 0 0 0 0 0 0 0 0 0 0 0 0 0 0 0 0 0 0 0 0 0 0 0 0 0 0 0 0 0 0 0 0 0 0 0 0 0 0 0 0 0 0 0 0 0 0 0 0 0 0 0 0 0 0 0 0 0 0 0 0 0 0 0 0 0 0 0 0 0 0 0 0 0 0 0 0 0 0 0 0 0 0 0 0 0 
0 0 0 0 0 0 0 0 0 0 0 0 0 0 0 0 0 0 0 0 0 0 0 0 0 0 0 0 0 0 0 0 0 0 0 0 0 0 0 0 0 0 0 0 0 0 0 0 0 0 0 0 0 0 0 0 0 0 0 0 0 0 0 0 0 0 0 0 0 0 0 0 0 0 0 0 0 0 0 0 0 0 0 0 0 0 0 0 0 0 0 0 0 0 0 0 0 0 0 0 0 0 0 0 0 0 0 0 0 0 0 0 0 0 0 0 0 0 0 0 0 0 0 0 0 0 0 0 0 0 0 0 0 0 0 0 0 0 0 0 0 0 0 0 0 0 0 0 0 0 0 0 0 0 0 0 0 0 0 0 0 0 0 0 0 0 0 0 0 0 0 0 0 0 0 0 0 0 0 0 
0 0 0 0 0 0 0 0 0 0 0 0 0 0 0 0 0 0 0 0 0 0 0 0 0 0 0 0 0 0 0 0 0 0 0 0 0 0 0 0 0 0 0 0 0 0 0 0 0 0 0 0 0 0 0 0 0 0 0 0 0 0 0 0 0 0 0 0 0 0 0 0 0 0 0 0 0 0 0 0 0 0 0 0 0 0 0 0 0 0 0 0 0 0 0 0 0 0 0 0 0 0 0 0 0 0 0 0 0 0 0 0 0 0 0 0 0 0 0 0 0 0 0 0 0 0 0 0 0 0 0 0 0 0 0 0 0 0 0 0 0 0 0 0 0 0 0 0 0 0 0 0 0 0 0 0 0 0 0 0 0 0 0 0 0 0 0 0 0 0 0 0 0 0 0 0 0 0 0 0 
0 0 0 0 0 0 0 0 0 0 0 0 0 0 0 0 0 0 0 0 0 0 0 0 0 0 0 0 0 0 1088 0 0 1989 0 0 1979 0 0 1961 0 0 2010 0 0 2054 0 0 2023 0 0 2079 0 0 2045 0 0 1952 0 0 2013 0 0 1972 0 0 2083 0 0 2004 0 0 1968 0 0 2003 0 0 2060 0 0 2004 0 0 2010 0 0 1971 0 0 2055 0 0 2047 0 0 2005 0 0 1988 0 0 1989 0 0 2028 0 0 1999 0 0 2016 0 0 2044 0 0 2027 0 0 2016 0 0 1979 0 0 1938 0 0 1986 0 0 1951 0 0 1984 0 0 1883 0 0 2069 0 0 2113 0 0 2154 0 0 974 0 0 0 0 0 0 0 0 0 0 0 0 0 0 0 0 0 0 0 0 0 0 0 0 0 0 0 0 0 
0 0 0 0 0 0 0 0 0 0 0 0 0 0 0 0 0 0 0 0 0 0 0 0 0 0 0 0 0 0 2054 0 0 4069 0 0 4078 0 0 4011 0 0 4043 0 0 4096 0 0 3946 0 0 4141 0 0 4124 0 0 3978 0 0 3972 0 0 3995 0 0 3968 0 0 4094 0 0 3996 0 0 4198 0 0 4205 0 0 4060 0 0 4080 0 0 4005 0 0 4088 0 0 3888 0 0 4220 0 0 3906 0 0 4038 0 0 4040 0 0 4009 0 0 4010 0 0 3984 0 0 4032 0 0 3934 0 0 4112 0 0 4127 0 0 4092 0 0 4108 0 0 3898 0 0 4019 0 0 4037 0 0 4019 0 0 3980 0 0 1984 0 0 0 0 0 0 0 0 0 0 0 0 0 0 0 0 0 0 0 0 0 0 0 0 0 0 0 0 0 
0 0 0 0 0 0 0 0 0 0 0 0 0 0 0 0 0 0 0 0 0 0 0 0 0 0 0 0 0 0 2048 0 0 4211 0 0 4002 0 0 3961 0 0 4008 0 0 4039 0 0 4092 0 0 4117 0 0 4018 0 0 4078 0 0 4163 0 0 4097 0 0 4053 0 0 4110 0 0 4121 0 0 4050 0 0 4040 0 0 4080 0 0 4109 0 0 4219 0 0 3980 0 0 4114 0 0 3948 0 0 4002 0 0 4055 0 0 4102 0 0 4011 0 0 4018 0 0 4025 0 0 4021 0 0 4091 0 0 4067 0 0 4034 0 0 3979 0 0 3976 0 0 4064 0 0 4094 0 0 4097 0 0 4012 0 0 4074 0 0 1994 0 0 0 0 0 0 0 0 0 0 0 0 0 0 0 0 0 0 0 0 0 0 0 0 0 0 0 0 0 
0 0 0 0 0 0 0 0 0 0 0 0 0 0 0 0 0 0 0 0 0 0 0 0 0 0 0 0 0 0 1951 0 0 4180 0 0 4017 0 0 4097 0 0 4056 0 0 4093 0 0 4022 0 0 4132 0 0 4064 0 0 4003 0 0 4080 0 0 4069 0 0 3931 0 0 4095 0 0 3960 0 0 4105 0 0 4089 0 0 3946 0 0 4098 0 0 4072 0 0 4094 0 0 4118 0 0 4003 0 0 4116 0 0 4246 0 0 4074 0 0 4115 0 0 4030 0 0 4084 0 0 4144 0 0 4075 0 0 4206 0 0 4034 0 0 4039 0 0 4158 0 0 3940 0 0 4047 0 0 4094 0 0 4060 0 0 3967 0 0 1926 0 0 0 0 0 0 0 0 0 0 0 0 0 0 0 0 0 0 0 0 0 0 0 0 0 0 0 0 0 
0 0 0 0 0 0 0 0 0 0 0 0 0 0 0 0 0 0 0 0 0 0 0 0 0 0 0 0 0 0 2043 0 0 3977 0 0 4030 0 0 4067 0 0 4075 0 0 4096 0 0 4046 0 0 4073 0 0 4147 0 0 3929 0 0 4018 0 0 4002 0 0 4035 0 0 4059 0 0 4033 0 0 4070 0 0 4061 0 0 4170 0 0 3964 0 0 4149 0 0 4062 0 0 4071 0 0 4118 0 0 4009 0 0 4019 0 0 4098 0 0 3935 0 0 3972 0 0 3994 0 0 4025 0 0 4076 0 0 4038 0 0 4004 0 0 4066 0 0 4053 0 0 4011 0 0 4072 0 0 4017 0 0 3976 0 0 4023 0 0 2087 0 0 0 0 0 0 0 0 0 0 0 0 0 0 0 0 0 0 0 0 0 0 0 0 0 0 0 0 0 
0 0 0 0 0 0 0 0 0 0 0 0 0 0 0 0 0 0 0 0 0 0 0 0 0 0 0 0 0 0 2017 0 0 4082 0 0 4042 0 0 4041 0 0 4009 0 0 4019 0 0 4093 0 0 4067 0 0 4036 0 0 3963 0 0 4037 0 0 4057 0 0 4090 0 0 4101 0 0 4134 0 0 3849 0 0 4097 0 0 4076 0 0 3980 0 0 4044 0 0 4077 0 0 4010 0 0 4095 0 0 3994 0 0 4050 0 0 4116 0 0 4031 0 0 3999 0 0 3927 0 0 3977 0 0 4074 0 0 4058 0 0 4046 0 0 4082 0 0 3955 0 0 4103 0 0 4123 0 0 4059 0 0 4090 0 0 4074 0 0 1996 0 0 0 0 0 0 0 0 0 0 0 0 0 0 0 0 0 0 0 0 0 0 0 0 0 0 0 0 0 
0 0 0 0 0 0 0 0 0 0 0 0 0 0 0 0 0 0 0 0 0 0 0 0 0 0 0 0 0 0 2014 0 0 4076 0 0 4066 0 0 4024 0 0 4008 0 0 4022 0 0 4072 0 0 3923 0 0 4058 0 0 3879 0 0 4069 0 0 3886 0 0 3976 0 0 4062 0 0 4122 0 0 4204 0 0 4020 0 0 4116 0 0 4080 0 0 4037 0 0 4015 0 0 4116 0 0 3942 0 0 4020 0 0 4110 0 0 4064 0 0 4069 0 0 4063 0 0 3959 0 0 4152 0 0 4066 0 0 3980 0 0 4066 0 0 4068 0 0 4048 0 0 4080 0 0 4040 0 0 3868 0 0 4125 0 0 4084 0 0 2067 0 0 0 0 0 0 0 0 0 0 0 0 0 0 0 0 0 0 0 0 0 0 0 0 0 0 0 0 0 
0 0 0 0 0 0 0 0 0 0 0 0 0 0 0 0 0 0 0 0 0 0 0 0 0 0 0 0 0 0 1941 0 0 4007 0 0 4068 0 0 4090 0 0 4117 0 0 3959 0 0 4016 0 0 4092 0 0 4076 0 0 4005 0 0 4058 0 0 3960 0 0 4090 0 0 4049 0 0 4009 0 0 4176 0 0 4021 0 0 4095 0 0 3989 0 0 4043 0 0 4012 0 0 4054 0 0 3966 0 0 4212 0 0 3989 0 0 3993 0 0 4091 0 0 4001 0 0 4094 0 0 4055 0 0 4042 0 0 3999 0 0 3893 0 0 4079 0 0 4081 0 0 3977 0 0 3909 0 0 4006 0 0 4143 0 0 4050 0 0 2004 0 0 0 0 0 0 0 0 0 0 0 0 0 0 0 0 0 0 0 0 0 0 0 0 0 0 0 0 0 
0 0 0 0 0 0 0 0 0 0 0 0 0 0 0 0 0 0 0 0 0 0 0 0 0 0 0 0 0 0 1940 0 0 4026 0 0 4021 0 0 4001 0 0 4111 0 0 3967 0 0 4026 0 0 4068 0 0 4153 0 0 4017 0 0 3989 0 0 3936 0 0 4188 0 0 3966 0 0 4018 0 0 4095 0 0 4043 0 0 4081 0 0 4061 0 0 3908 0 0 4127 0 0 4001 0 0 3982 0 0 3935 0 0 3930 0 0 3942 0 0 4119 0 0 4039 0 0 4015 0 0 4037 0 0 4003 0 0 3919 0 0 4065 0 0 4083 0 0 4018 0 0 4011 0 0 4030 0 0 4054 0 0 3946 0 0 4073 0 0 1997 0 0 0 0 0 0 0 0 0 0 0 0 0 0 0 0 0 0 0 0 0 0 0 0 0 0 0 0 0 
0 0 0 0 0 0 0 0 0 0 0 0 0 0 0 0 0 0 0 0 0 0 0 0 0 0 0 0 0 0 1959 0 0 4046 0 0 4126 0 0 3975 0 0 4040 0 0 4113 0 0 4118 0 0 4021 0 0 4043 0 0 4111 0 0 3989 0 0 4075 0 0 3968 0 0 4071 0 0 4045 0 0 4176 0 0 4097 0 0 4150 0 0 3953 0 0 4064 0 0 3979 0 0 4057 0 0 3897 0 0 4038 0 0 4019 0 0 4165 0 0 3908 0 0 4002 0 0 4018 0 0 3981 0 0 4039 0 0 4098 0 0 3939 0 0 3991 0 0 3978 0 0 4000 0 0 3951 0 0 3965 0 0 4056 0 0 4095 0 0 2076 0 0 0 0 0 0 0 0 0 0 0 0 0 0 0 0 0 0 0 0 0 0 0 0 0 0 0 0 0 
0 0 0 0 0 0 0 0 0 0 0 0 0 0 0 0 0 0 0 0 0 0 0 0 0 0 0 0 0 0 1999 0 0 3974 0 0 4136 0 0 4164 0 0 4152 0 0 3935 0 0 4007 0 0 4009 0 0 4038 0 0 3979 0 0 4179 0 0 4097 0 0 4020 0 0 4104 0 0 3991 0 0 4050 0 0 4099 0 0 4161 0 0 4061 0 0 4149 0 0 4103 0 0 4043 0 0 3999 0 0 4163 0 0 4022 0 0 4045 0 0 4108 0 0 4129 0 0 3933 0 0 4031 0 0 3957 0 0 4155 0 0 4028 0 0 4030 0 0 4120 0 0 3991 0 0 4017 0 0 4066 0 0 4196 0 0 4060 0 0 1996 0 0 0 0 0 0 0 0 0 0 0 0 0 0 0 0 0 0 0 0 0 0 0 0 0 0 0 0 0 
0 0 0 0 0 0 0 0 0 0 0 0 0 0 0 0 0 0 0 0 0 0 0 0 0 0 0 0 0 0 2020 0 0 4129 0 0 3995 0 0 3998 0 0 3936 0 0 4087 0 0 4104 0 0 4015 0 0 4036 0 0 4090 0 0 3990 0 0 3938 0 0 4058 0 0 3984 0 0 3986 0 0 3964 0 0 4008 0 0 4087 0 0 4061 0 0 4042 0 0 4008 0 0 4079 0 0 4168 0 0 3958 0 0 4030 0 0 3973 0 0 4131 0 0 3942 0 0 3951 0 0 4126 0 0 4021 0 0 4021 0 0 4196 0 0 4020 0 0 4014 0 0 4086 0 0 4040 0 0 4124 0 0 4124 0 0 4079 0 0 2025 0 0 0 0 0 0 0 0 0 0 0 0 0 0 0 0 0 0 0 0 0 0 0 0 0 0 0 0 0 
0 0 0 0 0 0 0 0 0 0 0 0 0 0 0 0 0 0 0 0 0 0 0 0 0 0 0 0 0 0 2092 0 0 4135 0 0 4070 0 0 4003 0 0 3961 0 0 4038 0 0 4059 0 0 4103 0 0 3983 0 0 3873 0 0 4079 0 0 4137 0 0 3963 0 0 4015 0 0 4024 0 0 4052 0 0 4143 0 0 4013 0 0 3942 0 0 4036 0 0 4178 0 0 3930 0 0 4104 0 0 4141 0 0 4092 0 0 4050 0 0 3943 0 0 4010 0 0 4087 0 0 4012 0 0 4138 0 0 4042 0 0 4104 0 0 4196 0 0 3934 0 0 3889 0 0 4018 0 0 4041 0 0 4075 0 0 4010 0 0 2056 0 0 0 0 0 0 0 0 0 0 0 0 0 0 0 0 0 0 0 0 0 0 0 0 0 0 0 0 0 
0 0 0 0 0 0 0 0 0 0 0 0 0 0 0 0 0 0 0 0 0 0 0 0 0 0 0 0 0 0 2025 0 0 4007 0 0 4057 0 0 3983 0 0 4082 0 0 3974 0 0 4042 0 0 4015 0 0 4052 0 0 3995 0 0 4049 0 0 4064 0 0 4053 0 0 4085 0 0 4030 0 0 4192 0 0 4116 0 0 3998 0 0 3940 0 0 3999 0 0 4005 0 0 3998 0 0 4019 0 0 3880 0 0 3961 0 0 4091 0 0 4269 0 0 4061 0 0 3991 0 0 3977 0 0 4111 0 0 4092 0 0 4025 0 0 4046 0 0 3996 0 0 3890 0 0 4062 0 0 4087 0 0 4083 0 0 4040 0 0 2063 0 0 0 0 0 0 0 0 0 0 0 0 0 0 0 0 0 0 0 0 0 0 0 0 0 0 0 0 0 
0 0 0 0 0 0 0 0 0 0 0 0 0 0 0 0 0 0 0 0 0 0 0 0 0 0 0 0 0 0 2062 0 0 4043 0 0 4106 0 0 4099 0 0 4172 0 0 4156 0 0 4031 0 0 3887 0 0 4096 0 0 3989 0 0 4057 0 0 4004 0 0 4016 0 0 4148 0 0 4106 0 0 4000 0 0 3984 0 0 4026 0 0 4094 0 0 3961 0 0 3946 0 0 4032 0 0 4062 0 0 3992 0 0 4036 0 0 4019 0 0 4137 0 0 4133 0 0 3991 0 0 4018 0 0 4102 0 0 3999 0 0 4153 0 0 4127 0 0 4032 0 0 4042 0 0 4095 0 0 4111 0 0 4022 0 0 3914 0 0 2094 0 0 0 0 0 0 0 0 0 0 0 0 0 0 0 0 0 0 0 0 0 0 0 0 0 0 0 0 0 
0 0 0 0 0 0 0 0 0 0 0 0 0 0 0 0 0 0 0 0 0 0 0 0 0 0 0 0 0 0 1948 0 0 4096 0 0 4028 0 0 3971 0 0 3963 0 0 4079 0 0 3987 0 0 4035 0 0 3909 0 0 4081 0 0 4030 0 0 4063 0 0 4015 0 0 3950 0 0 4065 0 0 4044 0 0 4077 0 0 4014 0 0 3985 0 0 3976 0 0 4060 0 0 4066 0 0 3974 0 0 4104 0 0 3960 0 0 4085 0 0 4162 0 0 4109 0 0 4154 0 0 4029 0 0 4039 0 0 4017 0 0 3971 0 0 4170 0 0 4109 0 0 4070 0 0 4032 0 0 4074 0 0 4029 0 0 4116 0 0 2002 0 0 0 0 0 0 0 0 0 0 0 0 0 0 0 0 0 0 0 0 0 0 0 0 0 0 0 0 0 
0 0 0 0 0 0 0 0 0 0 0 0 0 0 0 0 0 0 0 0 0 0 0 0 0 0 0 0 0 0 2068 0 0 4076 0 0 3927 0 0 4099 0 0 4141 0 0 3907 0 0 4064 0 0 3991 0 0 4158 0 0 4031 0 0 4012 0 0 4197 0 0 4114 0 0 4056 0 0 4003 0 0 4019 0 0 4193 0 0 3956 0 0 4030 0 0 4024 0 0 4075 0 0 4057 0 0 3994 0 0 4085 0 0 4078 0 0 3970 0 0 4001 0 0 4046 0 0 4051 0 0 4042 0 0 4000 0 0 4144 0 0 3936 0 0 4092 0 0 4077 0 0 4104 0 0 3985 0 0 4137 0 0 4183 0 0 3995 0 0 2023 0 0 0 0 0 0 0 0 0 0 0 0 0 0 0 0 0 0 0 0 0 0 0 0 0 0 0 0 0 
0 0 0 0 0 0 0 0 0 0 0 0 0 0 0 0 0 0 0 0 0 0 0 0 0 0 0 0 0 0 1920 0 0 4027 0 0 4014 0 0 4096 0 0 4114 0 0 4078 0 0 4035 0 0 4085 0 0 4117 0 0 3978 0 0 4009 0 0 4029 0 0 3979 0 0 4019 0 0 3991 0 0 4057 0 0 4097 0 0 4136 0 0 4148 0 0 3999 0 0 4139 0 0 3947 0 0 4046 0 0 4057 0 0 4133 0 0 3995 0 0 3878 0 0 4049 0 0 4057 0 0 3943 0 0 4086 0 0 3962 0 0 3969 0 0 4045 0 0 4079 0 0 4076 0 0 4054 0 0 4018 0 0 3959 0 0 4046 0 0 2004 0 0 0 0 0 0 0 0 0 0 0 0 0 0 0 0 0 0 0 0 0 0 0 0 0 0 0 0 0 
0 0 0 0 0 0 0 0 0 0 0 0 0 0 0 0 0 0 0 0 0 0 0 0 0 0 0 0 0 0 1937 0 0 3933 0 0 4066 0 0 3954 0 0 3997 0 0 4059 0 0 4036 0 0 3976 0 0 3993 0 0 4111 0 0 3963 0 0 4032 0 0 4066 0 0 4151 0 0 4146 0 0 3971 0 0 4065 0 0 4095 0 0 4085 0 0 4084 0 0 3990 0 0 3943 0 0 3951 0 0 4097 0 0 4072 0 0 4062 0 0 4020 0 0 4170 0 0 4134 0 0 3976 0 0 4032 0 0 4140 0 0 4007 0 0 3930 0 0 4217 0 0 4140 0 0 4095 0 0 3922 0 0 4081 0 0 4060 0 0 2048 0 0 0 0 0 0 0 0 0 0 0 0 0 0 0 0 0 0 0 0 0 0 0 0 0 0 0 0 0 
0 0 0 0 0 0 0 0 0 0 0 0 0 0 0 0 0 0 0 0 0 0 0 0 0 0 0 0 0 0 2065 0 0 4034 0 0 4048 0 0 4004 0 0 4054 0 0 4105 0 0 3953 0 0 4016 0 0 4030 0 0 4051 0 0 4019 0 0 4086 0 0 4068 0 0 4107 0 0 4056 0 0 3967 0 0 4050 0 0 3971 0 0 4019 0 0 4140 0 0 4062 0 0 4060 0 0 4060 0 0 4005 0 0 4012 0 0 3907 0 0 3980 0 0 4144 0 0 4009 0 0 4106 0 0 4069 0 0 4073 0 0 4074 0 0 4018 0 0 3967 0 0 4019 0 0 4125 0 0 4010 0 0 3993 0 0 3987 0 0 2039 0 0 0 0 0 0 0 0 0 0 0 0 0 0 0 0 0 0 0 0 0 0 0 0 0 0 0 0 0 
0 0 0 0 0 0 0 0 0 0 0 0 0 0 0 0 0 0 0 0 0 0 0 0 0 0 0 0 0 0 2041 0 0 4102 0 0 4144 0 0 4043 0 0 4020 0 0 3972 0 0 4051 0 0 4071 0 0 4041 0 0 4073 0 0 3887 0 0 4140 0 0 4060 0 0 3923 0 0 4051 0 0 4072 0 0 4119 0 0 3987 0 0 4057 0 0 4004 0 0 4016 0 0 4090 0 0 3964 0 0 4045 0 0 4021 0 0 4146 0 0 4058 0 0 4071 0 0 4116 0 0 4062 0 0 4031 0 0 4018 0 0 4100 0 0 4002 0 0 3959 0 0 4208 0 0 4049 0 0 4095 0 0 4099 0 0 4008 0 0 2035 0 0 0 0 0 0 0 0 0 0 0 0 0 0 0 0 0 0 0 0 0 0 0 0 0 0 0 0 0 
0 0 0 0 0 0 0 0 0 0 0 0 0 0 0 0 0 0 0 0 0 0 0 0 0 0 0 0 0 0 2072 0 0 4115 0 0 3909 0 0 4010 0 0 4071 0 0 4112 0 0 4059 0 0 3913 0 0 4155 0 0 4025 0 0 4100 0 0 4006 0 0 4044 0 0 4080 0 0 3994 0 0 4022 0 0 3969 0 0 4130 0 0 4038 0 0 4015 0 0 4209 0 0 3991 0 0 4116 0 0 4057 0 0 4004 0 0 4017 0 0 4145 0 0 4093 0 0 4062 0 0 4052 0 0 3981 0 0 4049 0 0 4083 0 0 3945 0 0 4069 0 0 4137 0 0 3945 0 0 4084 0 0 4058 0 0 4148 0 0 2095 0 0 0 0 0 0 0 0 0 0 0 0 0 0 0 0 0 0 0 0 0 0 0 0 0 0 0 0 0 
0 0 0 0 0 0 0 0 0 0 0 0 0 0 0 0 0 0 0 0 0 0 0 0 0 0 0 0 0 0 2010 0 0 4114 0 0 3951 0 0 4172 0 0 4015 0 0 4054 0 0 4018 0 0 4011 0 0 4210 0 0 4031 0 0 4008 0 0 3999 0 0 4143 0 0 4090 0 0 3948 0 0 4049 0 0 4022 0 0 4109 0 0 4160 0 0 4040 0 0 4073 0 0 4015 0 0 4045 0 0 4021 0 0 4116 0 0 4142 0 0 4103 0 0 4090 0 0 4098 0 0 3999 0 0 4096 0 0 4168 0 0 4081 0 0 3957 0 0 4016 0 0 4158 0 0 4127 0 0 4036 0 0 4083 0 0 4124 0 0 1987 0 0 0 0 0 0 0 0 0 0 0 0 0 0 0 0 0 0 0 0 0 0 0 0 0 0 0 0 0 
0 0 0 0 0 0 0 0 0 0 0 0 0 0 0 0 0 0 0 0 0 0 0 0 0 0 0 0 0 0 2011 0 0 4090 0 0 4012 0 0 4169 0 0 3997 0 0 4060 0 0 3968 0 0 4032 0 0 4066 0 0 4049 0 0 4051 0 0 4046 0 0 4033 0 0 3977 0 0 4016 0 0 3947 0 0 4075 0 0 4015 0 0 4068 0 0 4102 0 0 4104 0 0 4168 0 0 3936 0 0 3978 0 0 4002 0 0 4093 0 0 4136 0 0 4013 0 0 4126 0 0 4021 0 0 4076 0 0 4101 0 0 4116 0 0 4072 0 0 4092 0 0 4035 0 0 3976 0 0 4015 0 0 4108 0 0 4014 0 0 2078 0 0 0 0 0 0 0 0 0 0 0 0 0 0 0 0 0 0 0 0 0 0 0 0 0 0 0 0 0 
0 0 0 0 0 0 0 0 0 0 0 0 0 0 0 0 0 0 0 0 0 0 0 0 0 0 0 0 0 0 2060 0 0 4146 0 0 4092 0 0 3964 0 0 4016 0 0 4156 0 0 4107 0 0 4001 0 0 3915 0 0 3985 0 0 3989 0 0 4096 0 0 3902 0 0 4006 0 0 4137 0 0 4097 0 0 4046 0 0 4064 0 0 4071 0 0 4027 0 0 3956 0 0 4039 0 0 4107 0 0 4015 0 0 4015 0 0 4011 0 0 4055 0 0 3970 0 0 4107 0 0 4120 0 0 3949 0 0 4032 0 0 4022 0 0 4013 0 0 4048 0 0 4039 0 0 4064 0 0 4078 0 0 4094 0 0 3960 0 0 2013 0 0 0 0 0 0 0 0 0 0 0 0 0 0 0 0 0 0 0 0 0 0 0 0 0 0 0 0 0 
0 0 0 0 0 0 0 0 0 0 0 0 0 0 0 0 0 0 0 0 0 0 0 0 0 0 0 0 0 0 2058 0 0 4046 0 0 4047 0 0 3993 0 0 3924 0 0 4114 0 0 4012 0 0 4116 0 0 4065 0 0 4118 0 0 4022 0 0 4002 0 0 3974 0 0 4063 0 0 4161 0 0 4024 0 0 3997 0 0 4175 0 0 4001 0 0 4079 0 0 4008 0 0 4193 0 0 4118 0 0 4004 0 0 4046 0 0 4148 0 0 4048 0 0 4028 0 0 4116 0 0 4044 0 0 3948 0 0 4003 0 0 4056 0 0 4017 0 0 3927 0 0 4010 0 0 4043 0 0 3992 0 0 4007 0 0 3937 0 0 1993 0 0 0 0 0 0 0 0 0 0 0 0 0 0 0 0 0 0 0 0 0 0 0 0 0 0 0 0 0 
0 0 0 0 0 0 0 0 0 0 0 0 0 0 0 0 0 0 0 0 0 0 0 0 0 0 0 0 0 0 2008 0 0 3970 0 0 3972 0 0 3996 0 0 4010 0 0 4102 0 0 4048 0 0 3899 0 0 4157 0 0 3925 0 0 4067 0 0 4042 0 0 4111 0 0 4102 0 0 3980 0 0 4168 0 0 4039 0 0 4000 0 0 4037 0 0 3943 0 0 4213 0 0 4043 0 0 4022 0 0 4033 0 0 3985 0 0 4067 0 0 4119 0 0 4094 0 0 3986 0 0 3994 0 0 4063 0 0 4101 0 0 4086 0 0 3966 0 0 4070 0 0 4049 0 0 4038 0 0 4064 0 0 4087 0 0 4066 0 0 2009 0 0 0 0 0 0 0 0 0 0 0 0 0 0 0 0 0 0 0 0 0 0 0 0 0 0 0 0 0 
0 0 0 0 0 0 0 0 0 0 0 0 0 0 0 0 0 0 0 0 0 0 0 0 0 0 0 0 0 0 1991 0 0 4018 0 0 4100 0 0 4080 0 0 4081 0 0 4130 0 0 4087 0 0 4062 0 0 4005 0 0 4142 0 0 4077 0 0 4009 0 0 4097 0 0 3962 0 0 3984 0 0 4052 0 0 4011 0 0 4038 0 0 3959 0 0 3997 0 0 3968 0 0 4062 0 0 4072 0 0 4023 0 0 4078 0 0 3989 0 0 3966 0 0 4043 0 0 4064 0 0 4039 0 0 4002 0 0 4148 0 0 4109 0 0 4015 0 0 4022 0 0 4194 0 0 3976 0 0 4183 0 0 3902 0 0 4051 0 0 2067 0 0 0 0 0 0 0 0 0 0 0 0 0 0 0 0 0 0 0 0 0 0 0 0 0 0 0 0 0 
0 0 0 0 0 0 0 0 0 0 0 0 0 0 0 0 0 0 0 0 0 0 0 0 0 0 0 0 0 0 2007 0 0 4102 0 0 4037 0 0 4000 0 0 3920 0 0 4055 0 0 4132 0 0 4031 0 0 4003 0 0 4063 0 0 4070 0 0 3985 0 0 4016 0 0 4051 0 0 4044 0 0 4059 0 0 4105 0 0 4003 0 0 3944 0 0 3966 0 0 4183 0 0 4152 0 0 4101 0 0 4046 0 0 4041 0 0 4006 0 0 4224 0 0 3986 0 0 4142 0 0 4043 0 0 4059 0 0 4029 0 0 4061 0 0 3971 0 0 3981 0 0 3946 0 0 4043 0 0 3977 0 0 4092 0 0 3973 0 0 2046 0 0 0 0 0 0 0 0 0 0 0 0 0 0 0 0 0 0 0 0 0 0 0 0 0 0 0 0 0 
0 0 0 0 0 0 0 0 0 0 0 0 0 0 0 0 0 0 0 0 0 0 0 0 0 0 0 0 0 0 2021 0 0 3972 0 0 3923 0 0 4056 0 0 4081 0 0 3870 0 0 4100 0 0 3969 0 0 4117 0 0 4121 0 0 3892 0 0 4048 0 0 4062 0 0 3904 0 0 4133 0 0 4101 0 0 3938 0 0 3923 0 0 4016 0 0 4106 0 0 4040 0 0 4028 0 0 4030 0 0 4058 0 0 4021 0 0 4088 0 0 3997 0 0 4047 0 0 4086 0 0 4024 0 0 4051 0 0 4090 0 0 4070 0 0 4121 0 0 3928 0 0 4088 0 0 3911 0 0 4088 0 0 4089 0 0 4057 0 0 2013 0 0 0 0 0 0 0 0 0 0 0 0 0 0 0 0 0 0 0 0 0 0 0 0 0 0 0 0 0 
0 0 0 0 0 0 0 0 0 0 0 0 0 0 0 0 0 0 0 0 0 0 0 0 0 0 0 0 0 0 2022 0 0 4036 0 0 4078 0 0 4093 0 0 4103 0 0 3925 0 0 4016 0 0 4095 0 0 4143 0 0 4104 0 0 4094 0 0 3996 0 0 4101 0 0 3915 0 0 4017 0 0 3999 0 0 4020 0 0 4141 0 0 4048 0 0 4043 0 0 4017 0 0 4081 0 0 4043 0 0 4106 0 0 4102 0 0 4024 0 0 4148 0 0 3958 0 0 3971 0 0 4044 0 0 3992 0 0 4058 0 0 3964 0 0 4144 0 0 4032 0 0 4004 0 0 4083 0 0 4035 0 0 4118 0 0 4099 0 0 2108 0 0 0 0 0 0 0 0 0 0 0 0 0 0 0 0 0 0 0 0 0 0 0 0 0 0 0 0 0 
0 0 0 0 0 0 0 0 0 0 0 0 0 0 0 0 0 0 0 0 0 0 0 0 0 0 0 0 0 0 1991 0 0 4016 0 0 4010 0 0 4051 0 0 4037 0 0 4081 0 0 4086 0 0 4039 0 0 4043 0 0 4063 0 0 4009 0 0 4019 0 0 4039 0 0 4048 0 0 3934 0 0 3912 0 0 4051 0 0 4148 0 0 3987 0 0 3945 0 0 3928 0 0 4048 0 0 4021 0 0 4091 0 0 4128 0 0 4006 0 0 3967 0 0 4017 0 0 4070 0 0 4148 0 0 4107 0 0 4116 0 0 4010 0 0 4044 0 0 4075 0 0 3987 0 0 3998 0 0 4132 0 0 4149 0 0 4009 0 0 2051 0 0 0 0 0 0 0 0 0 0 0 0 0 0 0 0 0 0 0 0 0 0 0 0 0 0 0 0 0 
0 0 0 0 0 0 0 0 0 0 0 0 0 0 0 0 0 0 0 0 0 0 0 0 0 0 0 0 0 0 1990 0 0 4119 0 0 4039 0 0 3993 0 0 4054 0 0 4112 0 0 4033 0 0 4045 0 0 4091 0 0 3931 0 0 4038 0 0 4032 0 0 4015 0 0 4027 0 0 3997 0 0 4148 0 0 4052 0 0 4057 0 0 4030 0 0 4071 0 0 4064 0 0 4011 0 0 4055 0 0 4127 0 0 4113 0 0 4068 0 0 4075 0 0 3971 0 0 4091 0 0 4057 0 0 4036 0 0 4062 0 0 3969 0 0 3987 0 0 4000 0 0 4045 0 0 3989 0 0 3981 0 0 4090 0 0 3965 0 0 2095 0 0 0 0 0 0 0 0 0 0 0 0 0 0 0 0 0 0 0 0 0 0 0 0 0 0 0 0 0 
0 0 0 0 0 0 0 0 0 0 0 0 0 0 0 0 0 0 0 0 0 0 0 0 0 0 0 0 0 0 1972 0 0 4090 0 0 4097 0 0 4065 0 0 4029 0 0 3982 0 0 4062 0 0 4025 0 0 4069 0 0 4023 0 0 4042 0 0 4055 0 0 4064 0 0 4037 0 0 4067 0 0 4163 0 0 4103 0 0 4026 0 0 3985 0 0 4248 0 0 4150 0 0 4106 0 0 4056 0 0 4061 0 0 3999 0 0 4048 0 0 4136 0 0 4164 0 0 4042 0 0 3982 0 0 3988 0 0 3974 0 0 3912 0 0 4064 0 0 4059 0 0 4005 0 0 4116 0 0 4063 0 0 4017 0 0 4091 0 0 2113 0 0 0 0 0 0 0 0 0 0 0 0 0 0 0 0 0 0 0 0 0 0 0 0 0 0 0 0 0 
0 0 0 0 0 0 0 0 0 0 0 0 0 0 0 0 0 0 0 0 0 0 0 0 0 0 0 0 0 0 2046 0 0 4027 0 0 4039 0 0 4134 0 0 4145 0 0 4007 0 0 3987 0 0 4024 0 0 3976 0 0 4004 0 0 4034 0 0 3955 0 0 3986 0 0 4055 0 0 4033 0 0 4072 0 0 4098 0 0 3968 0 0 4016 0 0 4013 0 0 4003 0 0 4032 0 0 4126 0 0 4085 0 0 3910 0 0 3957 0 0 3917 0 0 4180 0 0 4025 0 0 4051 0 0 3968 0 0 4104 0 0 3976 0 0 3972 0 0 3931 0 0 4040 0 0 4083 0 0 4106 0 0 4067 0 0 4034 0 0 1969 0 0 0 0 0 0 0 0 0 0 0 0 0 0 0 0 0 0 0 0 0 0 0 0 0 0 0 0 0 
0 0 0 0 0 0 0 0 0 0 0 0 0 0 0 0 0 0 0 0 0 0 0 0 0 0 0 0 0 0 2046 0 0 3985 0 0 3990 0 0 3952 0 0 3938 0 0 4068 0 0 3941 0 0 4165 0 0 4013 0 0 4006 0 0 4096 0 0 4123 0 0 4010 0 0 4088 0 0 3962 0 0 4166 0 0 3977 0 0 4154 0 0 3994 0 0 4097 0 0 3929 0 0 3993 0 0 3996 0 0 4100 0 0 4010 0 0 4096 0 0 4061 0 0 3949 0 0 3989 0 0 4043 0 0 4098 0 0 4090 0 0 3974 0 0 4049 0 0 3984 0 0 3965 0 0 4125 0 0 4095 0 0 3995 0 0 4071 0 0 2049 0 0 0 0 0 0 0 0 0 0 0 0 0 0 0 0 0 0 0 0 0 0 0 0 0 0 0 0 0 
0 0 0 0 0 0 0 0 0 0 0 0 0 0 0 0 0 0 0 0 0 0 0 0 0 0 0 0 0 0 2066 0 0 3964 0 0 4039 0 0 4140 0 0 4037 0 0 4044 0 0 4012 0 0 4132 0 0 4048 0 0 4058 0 0 4099 0 0 3872 0 0 4031 0 0 4076 0 0 4046 0 0 4093 0 0 4155 0 0 4160 0 0 4021 0 0 4008 0 0 3976 0 0 3993 0 0 4104 0 0 4054 0 0 4063 0 0 4146 0 0 4240 0 0 4103 0 0 4060 0 0 3922 0 0 4032 0 0 3958 0 0 3981 0 0 3971 0 0 4036 0 0 4118 0 0 3978 0 0 3987 0 0 4022 0 0 4123 0 0 2057 0 0 0 0 0 0 0 0 0 0 0 0 0 0 0 0 0 0 0 0 0 0 0 0 0 0 0 0 0 
0 0 0 0 0 0 0 0 0 0 0 0 0 0 0 0 0 0 0 0 0 0 0 0 0 0 0 0 0 0 2067 0 0 3967 0 0 4031 0 0 4055 0 0 4021 0 0 4035 0 0 4051 0 0 4077 0 0 4072 0 0 4036 0 0 4023 0 0 4054 0 0 4029 0 0 4138 0 0 4064 0 0 4108 0 0 3999 0 0 3994 0 0 4044 0 0 4111 0 0 3935 0 0 3966 0 0 4014 0 0 3991 0 0 4065 0 0 4026 0 0 4104 0 0 4079 0 0 3994 0 0 4195 0 0 4006 0 0 3979 0 0 3948 0 0 4158 0 0 4106 0 0 4017 0 0 3995 0 0 3988 0 0 3959 0 0 4066 0 0 2044 0 0 0 0 0 0 0 0 0 0 0 0 0 0 0 0 0 0 0 0 0 0 0 0 0 0 0 0 0 
0 0 0 0 0 0 0 0 0 0 0 0 0 0 0 0 0 0 0 0 0 0 0 0 0 0 0 0 0 0 2089 0 0 4104 0 0 4035 0 0 3957 0 0 4129 0 0 4137 0 0 4112 0 0 3973 0 0 4024 0 0 4049 0 0 4150 0 0 4040 0 0 4045 0 0 4014 0 0 4105 0 0 3948 0 0 4074 0 0 4100 0 0 3988 0 0 3949 0 0 4031 0 0 4080 0 0 4013 0 0 4035 0 0 4085 0 0 3946 0 0 3973 0 0 4109 0 0 4081 0 0 4148 0 0 3994 0 0 3947 0 0 3923 0 0 4043 0 0 4028 0 0 3961 0 0 4046 0 0 4145 0 0 3936 0 0 4168 0 0 1999 0 0 0 0 0 0 0 0 0 0 0 0 0 0 0 0 0 0 0 0 0 0 0 0 0 0 0 0 0 
0 0 0 0 0 0 0 0 0 0 0 0 0 0 0 0 0 0 0 0 0 0 0 0 0 0 0 0 0 0 2040 0 0 3952 0 0 4014 0 0 3919 0 0 4131 0 0 4090 0 0 4095 0 0 4056 0 0 4018 0 0 4074 0 0 4026 0 0 4108 0 0 3938 0 0 4095 0 0 4065 0 0 4041 0 0 4100 0 0 4093 0 0 3978 0 0 4011 0 0 3973 0 0 3990 0 0 4142 0 0 4107 0 0 4110 0 0 4090 0 0 3939 0 0 4010 0 0 4117 0 0 3898 0 0 3984 0 0 4026 0 0 4075 0 0 4063 0 0 4152 0 0 4095 0 0 4017 0 0 3982 0 0 4026 0 0 4144 0 0 2097 0 0 0 0 0 0 0 0 0 0 0 0 0 0 0 0 0 0 0 0 0 0 0 0 0 0 0 0 0 
0 0 0 0 0 0 0 0 0 0 0 0 0 0 0 0 0 0 0 0 0 0 0 0 0 0 0 0 0 0 1019 0 0 2056 0 0 1942 0 0 1980 0 0 2027 0 0 2046 0 0 2067 0 0 2076 0 0 1965 0 0 1994 0 0 1949 0 0 1949 0 0 1993 0 0 1930 0 0 2031 0 0 2000 0 0 2052 0 0 2028 0 0 2071 0 0 2093 0 0 2055 0 0 2070 0 0 2014 0 0 1978 0 0 2017 0 0 1948 0 0 2009 0 0 2003 0 0 2031 0 0 2041 0 0 2068 0 0 2035 0 0 2065 0 0 1992 0 0 2076 0 0 2039 0 0 2017 0 0 2045 0 0 2089 0 0 2035 0 0 999 0 0 0 0 0 0 0 0 0 0 0 0 0 0 0 0 0 0 0 0 0 0 0 0 0 0 0 0 0 
0 0 0 0 0 0 0 0 0 0 0 0 0 0 0 0 0 0 0 0 0 0 0 0 0 0 0 0 0 0 0 0 0 0 0 0 0 0 0 0 0 0 0 0 0 0 0 0 0 0 0 0 0 0 0 0 0 0 0 0 0 0 0 0 0 0 0 0 0 0 0 0 0 0 0 0 0 0 0 0 0 0 0 0 0 0 0 0 0 0 0 0 0 0 0 0 0 0 0 0 0 0 0 0 0 0 0 0 0 0 0 0 0 0 0 0 0 0 0 0 0 0 0 0 0 0 0 0 0 0 0 0 0 0 0 0 0 0 0 0 0 0 0 0 0 0 0 0 0 0 0 0 0 0 0 0 0 0 0 0 0 0 0 0 0 0 0 0 0 0 0 0 0 0 0 0 0 0 0 0 
0 0 0 0 0 0 0 0 0 0 0 0 0 0 0 0 0 0 0 0 0 0 0 0 0 0 0 0 0 0 0 0 0 0 0 0 0 0 0 0 0 0 0 0 0 0 0 0 0 0 0 0 0 0 0 0 0 0 0 0 0 0 0 0 0 0 0 0 0 0 0 0 0 0 0 0 0 0 0 0 0 0 0 0 0 0 0 0 0 0 0 0 0 0 0 0 0 0 0 0 0 0 0 0 0 0 0 0 0 0 0 0 0 0 0 0 0 0 0 0 0 0 0 0 0 0 0 0 0 0 0 0 0 0 0 0 0 0 0 0 0 0 0 0 0 0 0 0 0 0 0 0 0 0 0 0 0 0 0 0 0 0 0 0 0 0 0 0 0 0 0 0 0 0 0 0 0 0 0 0 
0 0 0 0 0 0 0 0 0 0 0 0 0 0 0 0 0 0 0 0 0 0 0 0 0 0 0 0 0 0 0 0 0 0 0 0 0 0 0 0 0 0 0 0 0 0 0 0 0 0 0 0 0 0 0 0 0 0 0 0 0 0 0 0 0 0 0 0 0 0 0 0 0 0 0 0 0 0 0 0 0 0 0 0 0 0 0 0 0 0 0 0 0 0 0 0 0 0 0 0 0 0 0 0 0 0 0 0 0 0 0 0 0 0 0 0 0 0 0 0 0 0 0 0 0 0 0 0 0 0 0 0 0 0 0 0 0 0 0 0 0 0 0 0 0 0 0 0 0 0 0 0 0 0 0 0 0 0 0 0 0 0 0 0 0 0 0 0 0 0 0 0 0 0 0 0 0 0 0 0 
0 0 0 0 0 0 0 0 0 0 0 0 0 0 0 0 0 0 0 0 0 0 0 0 0 0 0 0 0 0 0 0 0 0 0 0 0 0 0 0 0 0 0 0 0 0 0 0 0 0 0 0 0 0 0 0 0 0 0 0 0 0 0 0 0 0 0 0 0 0 0 0 0 0 0 0 0 0 0 0 0 0 0 0 0 0 0 0 0 0 0 0 0 0 0 0 0 0 0 0 0 0 0 0 0 0 0 0 0 0 0 0 0 0 0 0 0 0 0 0 0 0 0 0 0 0 0 0 0 0 0 0 0 0 0 0 0 0 0 0 0 0 0 0 0 0 0 0 0 0 0 0 0 0 0 0 0 0 0 0 0 0 0 0 0 0 0 0 0 0 0 0 0 0 0 0 0 0 0 0 
0 0 0 0 0 0 0 0 0 0 0 0 0 0 0 0 0 0 0 0 0 0 0 0 0 0 0 0 0 0 0 0 0 0 0 0 0 0 0 0 0 0 0 0 0 0 0 0 0 0 0 0 0 0 0 0 0 0 0 0 0 0 0 0 0 0 0 0 0 0 0 0 0 0 0 0 0 0 0 0 0 0 0 0 0 0 0 0 0 0 0 0 0 0 0 0 0 0 0 0 0 0 0 0 0 0 0 0 0 0 0 0 0 0 0 0 0 0 0 0 0 0 0 0 0 0 0 0 0 0 0 0 0 0 0 0 0 0 0 0 0 0 0 0 0 0 0 0 0 0 0 0 0 0 0 0 0 0 0 0 0 0 0 0 0 0 0 0 0 0 0 0 0 0 0 0 0 0 0 0 
0 0 0 0 0 0 0 0 0 0 0 0 0 0 0 0 0 0 0 0 0 0 0 0 0 0 0 0 0 0 0 0 0 0 0 0 0 0 0 0 0 0 0 0 0 0 0 0 0 0 0 0 0 0 0 0 0 0 0 0 0 0 0 0 0 0 0 0 0 0 0 0 0 0 0 0 0 0 0 0 0 0 0 0 0 0 0 0 0 0 0 0 0 0 0 0 0 0 0 0 0 0 0 0 0 0 0 0 0 0 0 0 0 0 0 0 0 0 0 0 0 0 0 0 0 0 0 0 0 0 0 0 0 0 0 0 0 0 0 0 0 0 0 0 0 0 0 0 0 0 0 0 0 0 0 0 0 0 0 0 0 0 0 0 0 0 0 0 0 0 0 0 0 0 0 0 0 0 0 0 
0 0 0 0 0 0 0 0 0 0 0 0 0 0 0 0 0 0 0 0 0 0 0 0 0 0 0 0 0 0 0 0 0 0 0 0 0 0 0 0 0 0 0 0 0 0 0 0 0 0 0 0 0 0 0 0 0 0 0 0 0 0 0 0 0 0 0 0 0 0 0 0 0 0 0 0 0 0 0 0 0 0 0 0 0 0 0 0 0 0 0 0 0 0 0 0 0 0 0 0 0 0 0 0 0 0 0 0 0 0 0 0 0 0 0 0 0 0 0 0 0 0 0 0 0 0 0 0 0 0 0 0 0 0 0 0 0 0 0 0 0 0 0 0 0 0 0 0 0 0 0 0 0 0 0 0 0 0 0 0 0 0 0 0 0 0 0 0 0 0 0 0 0 0 0 0 0 0 0 0 
0 0 0 0 0 0 0 0 0 0 0 0 0 0 0 0 0 0 0 0 0 0 0 0 0 0 0 0 0 0 0 0 0 0 0 0 0 0 0 0 0 0 0 0 0 0 0 0 0 0 0 0 0 0 0 0 0 0 0 0 0 0 0 0 0 0 0 0 0 0 0 0 0 0 0 0 0 0 0 0 0 0 0 0 0 0 0 0 0 0 0 0 0 0 0 0 0 0 0 0 0 0 0 0 0 0 0 0 0 0 0 0 0 0 0 0 0 0 0 0 0 0 0 0 0 0 0 0 0 0 0 0 0 0 0 0 0 0 0 0 0 0 0 0 0 0 0 0 0 0 0 0 0 0 0 0 0 0 0 0 0 0 0 0 0 0 0 0 0 0 0 0 0 0 0 0 0 0 0 0 
0 0 0 0 0 0 0 0 0 0 0 0 0 0 0 0 0 0 0 0 0 0 0 0 0 0 0 0 0 0 0 0 0 0 0 0 0 0 0 0 0 0 0 0 0 0 0 0 0 0 0 0 0 0 0 0 0 0 0 0 0 0 0 0 0 0 0 0 0 0 0 0 0 0 0 0 0 0 0 0 0 0 0 0 0 0 0 0 0 0 0 0 0 0 0 0 0 0 0 0 0 0 0 0 0 0 0 0 0 0 0 0 0 0 0 0 0 0 0 0 0 0 0 0 0 0 0 0 0 0 0 0 0 0 0 0 0 0 0 0 0 0 0 0 0 0 0 0 0 0 0 0 0 0 0 0 0 0 0 0 0 0 0 0 0 0 0 0 0 0 0 0 0 0 0 0 0 0 0 0 
