P3
# This is a dose file slice at depth 86 of 100
60 60
# now we give the maximum value of the RGB coordinates.
32965
0 0 0 0 0 0 0 0 0 1 0 0 0 0 0 0 0 0 0 0 0 0 0 0 1 0 0 1 0 0 0 0 0 0 0 0 0 0 0 2 0 0 1 0 0 2 0 0 0 0 0 0 0 0 0 0 0 0 0 0 1 0 0 0 0 0 1 0 0 1 0 0 1 0 0 1 0 0 3 0 0 1 0 0 1 0 0 0 0 0 0 0 0 1 0 0 1 0 0 2 0 0 1 0 0 1 0 0 3 0 0 0 0 0 0 0 0 2 0 0 0 0 0 0 0 0 0 0 0 1 0 0 1 0 0 0 0 0 1 0 0 0 0 0 0 0 0 2 0 0 0 0 0 0 0 0 0 0 0 0 0 0 0 0 0 0 0 0 0 0 0 0 0 0 0 0 0 0 0 0 
0 0 0 1 0 0 1 0 0 1 0 0 1 0 0 0 0 0 2 0 0 2 0 0 4 0 0 4 0 0 0 0 0 0 0 0 0 0 0 4 0 0 1 0 0 6 0 0 3 0 0 0 0 0 2 0 0 7 0 0 3 0 0 3 0 0 2 0 0 0 0 0 1 0 0 3 0 0 4 0 0 1 0 0 4 0 0 4 0 0 5 0 0 3 0 0 4 0 0 1 0 0 1 0 0 2 0 0 4 0 0 2 0 0 3 0 0 2 0 0 2 0 0 1 0 0 2 0 0 2 0 0 4 0 0 1 0 0 4 0 0 0 0 0 2 0 0 3 0 0 3 0 0 0 0 0 0 0 0 1 0 0 3 0 0 1 0 0 0 0 0 1 0 0 1 0 0 1 0 0 
1 0 0 1 0 0 1 0 0 1 0 0 1 0 0 0 0 0 1 0 0 1 0 0 3 0 0 1 0 0 1 0 0 1 0 0 0 0 0 0 0 0 4 0 0 2 0 0 4 0 0 1 0 0 2 0 0 2 0 0 4 0 0 1 0 0 4 0 0 0 0 0 0 0 0 2 0 0 4 0 0 1 0 0 1 0 0 6 0 0 3 0 0 5 0 0 2 0 0 0 0 0 2 0 0 5 0 0 0 0 0 7 0 0 6 0 0 1 0 0 0 0 0 0 0 0 1 0 0 3 0 0 4 0 0 2 0 0 5 0 0 1 0 0 1 0 0 1 0 0 2 0 0 0 0 0 1 0 0 2 0 0 0 0 0 0 0 0 2 0 0 0 0 0 0 0 0 0 0 0 
0 0 0 1 0 0 3 0 0 0 0 0 1 0 0 0 0 0 2 0 0 2 0 0 2 0 0 3 0 0 2 0 0 5 0 0 2 0 0 5 0 0 3 0 0 3 0 0 3 0 0 3 0 0 3 0 0 6 0 0 4 0 0 2 0 0 3 0 0 5 0 0 6 0 0 4 0 0 6 0 0 3 0 0 4 0 0 7 0 0 5 0 0 4 0 0 2 0 0 1 0 0 5 0 0 3 0 0 2 0 0 7 0 0 3 0 0 4 0 0 1 0 0 0 0 0 1 0 0 2 0 0 8 0 0 4 0 0 3 0 0 4 0 0 1 0 0 1 0 0 3 0 0 1 0 0 2 0 0 0 0 0 0 0 0 1 0 0 0 0 0 2 0 0 0 0 0 2 0 0 
0 0 0 1 0 0 0 0 0 0 0 0 0 0 0 0 0 0 1 0 0 1 0 0 0 0 0 4 0 0 0 0 0 3 0 0 5 0 0 2 0 0 4 0 0 3 0 0 5 0 0 7 0 0 3 0 0 3 0 0 5 0 0 3 0 0 4 0 0 5 0 0 3 0 0 9 0 0 6 0 0 3 0 0 2 0 0 8 0 0 6 0 0 3 0 0 2 0 0 3 0 0 3 0 0 3 0 0 3 0 0 2 0 0 5 0 0 4 0 0 2 0 0 2 0 0 0 0 0 6 0 0 4 0 0 2 0 0 1 0 0 4 0 0 5 0 0 1 0 0 3 0 0 1 0 0 1 0 0 3 0 0 0 0 0 3 0 0 2 0 0 3 0 0 2 0 0 1 0 0 
0 0 0 0 0 0 1 0 0 0 0 0 3 0 0 2 0 0 0 0 0 1 0 0 0 0 0 2 0 0 1 0 0 3 0 0 6 0 0 3 0 0 3 0 0 3 0 0 5 0 0 3 0 0 4 0 0 5 0 0 6 0 0 5 0 0 5 0 0 5 0 0 6 0 0 4 0 0 7 0 0 4 0 0 5 0 0 11 0 0 8 0 0 3 0 0 1 0 0 3 0 0 5 0 0 5 0 0 2 0 0 3 0 0 6 0 0 3 0 0 2 0 0 9 0 0 2 0 0 5 0 0 4 0 0 4 0 0 1 0 0 6 0 0 5 0 0 1 0 0 1 0 0 1 0 0 3 0 0 1 0 0 2 0 0 3 0 0 0 0 0 2 0 0 2 0 0 1 0 0 
0 0 0 0 0 0 0 0 0 1 0 0 1 0 0 3 0 0 0 0 0 1 0 0 1 0 0 3 0 0 0 0 0 1 0 0 4 0 0 7 0 0 5 0 0 7 0 0 2 0 0 6 0 0 6 0 0 7 0 0 8 0 0 2 0 0 6 0 0 8 0 0 3 0 0 2 0 0 6 0 0 11 0 0 9 0 0 8 0 0 7 0 0 2 0 0 4 0 0 3 0 0 4 0 0 9 0 0 1 0 0 4 0 0 6 0 0 6 0 0 3 0 0 5 0 0 4 0 0 9 0 0 4 0 0 7 0 0 5 0 0 7 0 0 5 0 0 3 0 0 6 0 0 3 0 0 1 0 0 0 0 0 1 0 0 3 0 0 2 0 0 0 0 0 0 0 0 0 0 0 
0 0 0 1 0 0 0 0 0 1 0 0 1 0 0 4 0 0 0 0 0 1 0 0 5 0 0 3 0 0 6 0 0 4 0 0 8 0 0 8 0 0 11 0 0 11 0 0 6 0 0 4 0 0 6 0 0 9 0 0 9 0 0 9 0 0 4 0 0 8 0 0 4 0 0 4 0 0 12 0 0 4 0 0 1 0 0 4 0 0 11 0 0 4 0 0 3 0 0 10 0 0 7 0 0 5 0 0 2 0 0 11 0 0 6 0 0 8 0 0 4 0 0 8 0 0 9 0 0 5 0 0 4 0 0 12 0 0 6 0 0 8 0 0 6 0 0 3 0 0 3 0 0 4 0 0 3 0 0 1 0 0 1 0 0 3 0 0 3 0 0 0 0 0 0 0 0 0 0 0 
1 0 0 0 0 0 0 0 0 3 0 0 3 0 0 4 0 0 2 0 0 1 0 0 5 0 0 5 0 0 4 0 0 4 0 0 7 0 0 7 0 0 11 0 0 7 0 0 8 0 0 10 0 0 12 0 0 3 0 0 12 0 0 7 0 0 9 0 0 10 0 0 8 0 0 8 0 0 5 0 0 5 0 0 5 0 0 10 0 0 17 0 0 6 0 0 6 0 0 15 0 0 7 0 0 12 0 0 8 0 0 13 0 0 9 0 0 8 0 0 5 0 0 6 0 0 8 0 0 6 0 0 8 0 0 8 0 0 9 0 0 9 0 0 8 0 0 3 0 0 2 0 0 2 0 0 3 0 0 4 0 0 3 0 0 2 0 0 1 0 0 0 0 0 0 0 0 0 0 0 
1 0 0 3 0 0 0 0 0 0 0 0 0 0 0 2 0 0 6 0 0 7 0 0 1 0 0 7 0 0 26 0 0 38 0 0 32 0 0 41 0 0 40 0 0 39 0 0 36 0 0 42 0 0 33 0 0 49 0 0 48 0 0 44 0 0 37 0 0 50 0 0 45 0 0 48 0 0 40 0 0 37 0 0 47 0 0 39 0 0 47 0 0 43 0 0 49 0 0 47 0 0 43 0 0 48 0 0 45 0 0 43 0 0 50 0 0 44 0 0 42 0 0 42 0 0 45 0 0 48 0 0 54 0 0 54 0 0 55 0 0 38 0 0 38 0 0 33 0 0 15 0 0 3 0 0 4 0 0 2 0 0 0 0 0 0 0 0 5 0 0 3 0 0 1 0 0 2 0 0 
1 0 0 0 0 0 1 0 0 0 0 0 2 0 0 2 0 0 1 0 0 4 0 0 6 0 0 18 0 0 1181 0 0 2486 0 0 2554 0 0 2538 0 0 2560 0 0 2518 0 0 2492 0 0 2509 0 0 2521 0 0 2516 0 0 2532 0 0 2579 0 0 2434 0 0 2490 0 0 2545 0 0 2544 0 0 2565 0 0 2434 0 0 2481 0 0 2519 0 0 2575 0 0 2441 0 0 2498 0 0 2460 0 0 2479 0 0 2504 0 0 2547 0 0 2601 0 0 2514 0 0 2577 0 0 2490 0 0 2544 0 0 2487 0 0 2495 0 0 2438 0 0 2509 0 0 2516 0 0 2503 0 0 2483 0 0 2505 0 0 1247 0 0 18 0 0 4 0 0 4 0 0 4 0 0 5 0 0 3 0 0 3 0 0 5 0 0 0 0 0 
0 0 0 1 0 0 1 0 0 1 0 0 1 0 0 3 0 0 0 0 0 0 0 0 4 0 0 36 0 0 2532 0 0 5040 0 0 4968 0 0 5005 0 0 4961 0 0 4975 0 0 5021 0 0 5076 0 0 4985 0 0 5046 0 0 4920 0 0 4938 0 0 5033 0 0 5048 0 0 4898 0 0 5064 0 0 4974 0 0 4986 0 0 5035 0 0 5001 0 0 5053 0 0 5055 0 0 5033 0 0 5024 0 0 4969 0 0 5081 0 0 4925 0 0 4959 0 0 5102 0 0 5001 0 0 5033 0 0 4944 0 0 4988 0 0 5062 0 0 4993 0 0 5054 0 0 5087 0 0 4985 0 0 4937 0 0 4890 0 0 2585 0 0 40 0 0 9 0 0 3 0 0 3 0 0 6 0 0 1 0 0 1 0 0 3 0 0 3 0 0 
0 0 0 2 0 0 1 0 0 1 0 0 2 0 0 1 0 0 8 0 0 4 0 0 8 0 0 36 0 0 2486 0 0 5007 0 0 5012 0 0 4964 0 0 5064 0 0 4893 0 0 4947 0 0 4925 0 0 5078 0 0 4946 0 0 5029 0 0 5178 0 0 5076 0 0 5042 0 0 5103 0 0 5116 0 0 4924 0 0 5058 0 0 5037 0 0 4983 0 0 5131 0 0 5057 0 0 5067 0 0 5034 0 0 5017 0 0 4973 0 0 5035 0 0 4955 0 0 5049 0 0 4938 0 0 5196 0 0 5090 0 0 4955 0 0 5100 0 0 5002 0 0 4990 0 0 5055 0 0 5084 0 0 5062 0 0 4894 0 0 2506 0 0 33 0 0 6 0 0 8 0 0 7 0 0 6 0 0 6 0 0 4 0 0 3 0 0 1 0 0 
0 0 0 2 0 0 6 0 0 6 0 0 3 0 0 0 0 0 1 0 0 3 0 0 4 0 0 44 0 0 2527 0 0 4976 0 0 4885 0 0 5078 0 0 5112 0 0 5136 0 0 4963 0 0 5109 0 0 5023 0 0 5061 0 0 5061 0 0 5000 0 0 4943 0 0 5044 0 0 4901 0 0 5056 0 0 4936 0 0 5093 0 0 4988 0 0 4974 0 0 4996 0 0 5112 0 0 5096 0 0 5084 0 0 5095 0 0 5068 0 0 5006 0 0 5021 0 0 4991 0 0 5053 0 0 5009 0 0 5095 0 0 4983 0 0 5059 0 0 4991 0 0 4962 0 0 4908 0 0 5134 0 0 5032 0 0 4968 0 0 2449 0 0 40 0 0 8 0 0 4 0 0 6 0 0 9 0 0 7 0 0 5 0 0 3 0 0 0 0 0 
1 0 0 1 0 0 4 0 0 3 0 0 5 0 0 1 0 0 3 0 0 1 0 0 8 0 0 48 0 0 2570 0 0 4944 0 0 5014 0 0 4971 0 0 4936 0 0 5113 0 0 5078 0 0 5012 0 0 5006 0 0 4995 0 0 5160 0 0 5034 0 0 5022 0 0 5142 0 0 4930 0 0 5127 0 0 4901 0 0 5088 0 0 5074 0 0 5052 0 0 4990 0 0 5003 0 0 4957 0 0 5056 0 0 5039 0 0 5065 0 0 5033 0 0 5004 0 0 5008 0 0 5078 0 0 5137 0 0 5013 0 0 5024 0 0 5080 0 0 5041 0 0 4960 0 0 4966 0 0 5046 0 0 4972 0 0 4894 0 0 2478 0 0 56 0 0 5 0 0 4 0 0 3 0 0 5 0 0 1 0 0 0 0 0 0 0 0 0 0 0 
0 0 0 1 0 0 4 0 0 7 0 0 3 0 0 3 0 0 6 0 0 4 0 0 9 0 0 39 0 0 2547 0 0 5017 0 0 5140 0 0 4941 0 0 5085 0 0 5057 0 0 4965 0 0 5127 0 0 5025 0 0 4975 0 0 5054 0 0 5027 0 0 4965 0 0 5040 0 0 5019 0 0 4914 0 0 4970 0 0 5025 0 0 4982 0 0 4982 0 0 4926 0 0 5085 0 0 5026 0 0 4947 0 0 5130 0 0 5029 0 0 5111 0 0 5197 0 0 5055 0 0 5005 0 0 5124 0 0 5080 0 0 5101 0 0 5151 0 0 5059 0 0 5047 0 0 5035 0 0 5176 0 0 5090 0 0 4978 0 0 2493 0 0 43 0 0 2 0 0 4 0 0 1 0 0 6 0 0 4 0 0 3 0 0 0 0 0 1 0 0 
0 0 0 1 0 0 2 0 0 4 0 0 7 0 0 3 0 0 2 0 0 5 0 0 6 0 0 43 0 0 2594 0 0 5021 0 0 5107 0 0 4989 0 0 5001 0 0 5104 0 0 5028 0 0 5117 0 0 5062 0 0 4973 0 0 5038 0 0 5069 0 0 5073 0 0 5078 0 0 5053 0 0 5072 0 0 4960 0 0 4962 0 0 5031 0 0 4929 0 0 4869 0 0 5063 0 0 5063 0 0 5037 0 0 5050 0 0 5040 0 0 5044 0 0 4981 0 0 5075 0 0 4986 0 0 4938 0 0 5119 0 0 5116 0 0 4973 0 0 5131 0 0 5031 0 0 4980 0 0 5036 0 0 5023 0 0 4949 0 0 2559 0 0 45 0 0 10 0 0 5 0 0 3 0 0 2 0 0 3 0 0 2 0 0 5 0 0 4 0 0 
0 0 0 0 0 0 0 0 0 1 0 0 2 0 0 4 0 0 5 0 0 6 0 0 7 0 0 41 0 0 2571 0 0 5053 0 0 4972 0 0 5108 0 0 4937 0 0 5014 0 0 5063 0 0 5022 0 0 4867 0 0 4957 0 0 4933 0 0 5088 0 0 5007 0 0 5029 0 0 5014 0 0 4988 0 0 5033 0 0 5077 0 0 5147 0 0 5062 0 0 5081 0 0 5108 0 0 5099 0 0 5012 0 0 5089 0 0 4988 0 0 5102 0 0 4963 0 0 5080 0 0 5021 0 0 4963 0 0 5077 0 0 4954 0 0 5092 0 0 5013 0 0 5037 0 0 5045 0 0 4988 0 0 5045 0 0 5031 0 0 2495 0 0 44 0 0 4 0 0 4 0 0 1 0 0 0 0 0 0 0 0 0 0 0 0 0 0 0 0 0 
1 0 0 4 0 0 4 0 0 1 0 0 2 0 0 4 0 0 4 0 0 6 0 0 9 0 0 52 0 0 2591 0 0 4951 0 0 5067 0 0 4941 0 0 5055 0 0 4937 0 0 4994 0 0 4968 0 0 5043 0 0 5174 0 0 5124 0 0 5068 0 0 5137 0 0 5150 0 0 4990 0 0 5036 0 0 5120 0 0 5081 0 0 5066 0 0 4993 0 0 5113 0 0 4997 0 0 5112 0 0 4980 0 0 5011 0 0 5099 0 0 5087 0 0 5159 0 0 5110 0 0 4964 0 0 4977 0 0 5043 0 0 5043 0 0 5027 0 0 5022 0 0 4989 0 0 5058 0 0 4938 0 0 5137 0 0 5015 0 0 2551 0 0 47 0 0 14 0 0 7 0 0 4 0 0 3 0 0 4 0 0 3 0 0 3 0 0 3 0 0 
0 0 0 0 0 0 3 0 0 1 0 0 0 0 0 4 0 0 7 0 0 8 0 0 4 0 0 42 0 0 2478 0 0 5004 0 0 4982 0 0 5093 0 0 5048 0 0 4986 0 0 4946 0 0 5068 0 0 5018 0 0 5064 0 0 5129 0 0 5030 0 0 4987 0 0 4992 0 0 5032 0 0 4985 0 0 4999 0 0 4976 0 0 5023 0 0 4967 0 0 4986 0 0 5031 0 0 5100 0 0 4990 0 0 5096 0 0 4900 0 0 5021 0 0 5091 0 0 5038 0 0 5087 0 0 4950 0 0 5084 0 0 5055 0 0 5070 0 0 5053 0 0 4979 0 0 4942 0 0 4967 0 0 4964 0 0 4978 0 0 2535 0 0 46 0 0 4 0 0 7 0 0 4 0 0 7 0 0 3 0 0 1 0 0 3 0 0 1 0 0 
0 0 0 1 0 0 0 0 0 2 0 0 2 0 0 3 0 0 4 0 0 2 0 0 4 0 0 44 0 0 2502 0 0 5070 0 0 5012 0 0 5091 0 0 5127 0 0 5007 0 0 4964 0 0 5052 0 0 5020 0 0 5055 0 0 5020 0 0 5075 0 0 5068 0 0 5047 0 0 5109 0 0 5046 0 0 4987 0 0 5095 0 0 5100 0 0 5183 0 0 5149 0 0 4935 0 0 5025 0 0 5001 0 0 5040 0 0 4936 0 0 5019 0 0 5001 0 0 5083 0 0 4919 0 0 5037 0 0 5043 0 0 5052 0 0 4993 0 0 4980 0 0 4966 0 0 4989 0 0 5018 0 0 5005 0 0 4905 0 0 2451 0 0 40 0 0 6 0 0 3 0 0 3 0 0 0 0 0 2 0 0 2 0 0 0 0 0 0 0 0 
1 0 0 2 0 0 1 0 0 4 0 0 5 0 0 6 0 0 3 0 0 4 0 0 3 0 0 38 0 0 2519 0 0 5104 0 0 5049 0 0 4988 0 0 5023 0 0 4987 0 0 5034 0 0 5005 0 0 5012 0 0 4987 0 0 5060 0 0 4941 0 0 5132 0 0 4991 0 0 5097 0 0 5056 0 0 5029 0 0 5089 0 0 5004 0 0 5036 0 0 5099 0 0 5017 0 0 4977 0 0 4997 0 0 5033 0 0 5071 0 0 4979 0 0 5017 0 0 5099 0 0 5048 0 0 5098 0 0 5087 0 0 5034 0 0 5099 0 0 5035 0 0 4992 0 0 5005 0 0 5016 0 0 5022 0 0 4934 0 0 2535 0 0 51 0 0 8 0 0 5 0 0 3 0 0 4 0 0 1 0 0 0 0 0 2 0 0 3 0 0 
0 0 0 2 0 0 1 0 0 6 0 0 3 0 0 9 0 0 5 0 0 3 0 0 7 0 0 34 0 0 2548 0 0 4983 0 0 5072 0 0 4996 0 0 5113 0 0 4990 0 0 5048 0 0 5075 0 0 5082 0 0 4970 0 0 4939 0 0 4989 0 0 5082 0 0 5156 0 0 5149 0 0 4920 0 0 5175 0 0 5112 0 0 5049 0 0 4999 0 0 5150 0 0 5034 0 0 5075 0 0 5080 0 0 4967 0 0 5018 0 0 4990 0 0 5097 0 0 5006 0 0 5064 0 0 5037 0 0 4999 0 0 5084 0 0 5012 0 0 5024 0 0 5047 0 0 5045 0 0 5111 0 0 5019 0 0 5010 0 0 2537 0 0 52 0 0 5 0 0 9 0 0 2 0 0 0 0 0 2 0 0 5 0 0 6 0 0 3 0 0 
3 0 0 5 0 0 1 0 0 5 0 0 1 0 0 3 0 0 6 0 0 3 0 0 6 0 0 35 0 0 2558 0 0 5004 0 0 4967 0 0 4977 0 0 4978 0 0 5017 0 0 5050 0 0 4932 0 0 4966 0 0 5035 0 0 5053 0 0 5207 0 0 5145 0 0 5057 0 0 5000 0 0 5024 0 0 4946 0 0 5075 0 0 5073 0 0 5046 0 0 5118 0 0 5155 0 0 5101 0 0 5061 0 0 5059 0 0 5060 0 0 5072 0 0 4987 0 0 4939 0 0 4967 0 0 4992 0 0 4985 0 0 5042 0 0 5053 0 0 4946 0 0 5129 0 0 4922 0 0 5111 0 0 5039 0 0 5007 0 0 2544 0 0 41 0 0 6 0 0 3 0 0 6 0 0 5 0 0 2 0 0 3 0 0 3 0 0 3 0 0 
0 0 0 2 0 0 2 0 0 4 0 0 4 0 0 5 0 0 4 0 0 5 0 0 5 0 0 43 0 0 2519 0 0 4980 0 0 5120 0 0 5046 0 0 4946 0 0 5107 0 0 5012 0 0 5030 0 0 5103 0 0 5048 0 0 5002 0 0 5093 0 0 5044 0 0 4944 0 0 5104 0 0 4961 0 0 5056 0 0 4995 0 0 5044 0 0 5167 0 0 4961 0 0 5011 0 0 5077 0 0 5048 0 0 5038 0 0 5026 0 0 5062 0 0 5078 0 0 5084 0 0 5039 0 0 5053 0 0 5043 0 0 5011 0 0 5003 0 0 4987 0 0 5021 0 0 5065 0 0 5047 0 0 5124 0 0 5133 0 0 2609 0 0 47 0 0 9 0 0 5 0 0 5 0 0 3 0 0 2 0 0 2 0 0 5 0 0 1 0 0 
0 0 0 3 0 0 5 0 0 0 0 0 0 0 0 2 0 0 8 0 0 6 0 0 8 0 0 50 0 0 2527 0 0 5015 0 0 5028 0 0 5076 0 0 5104 0 0 5044 0 0 5025 0 0 4989 0 0 4977 0 0 4915 0 0 5039 0 0 4966 0 0 5134 0 0 4970 0 0 5044 0 0 5144 0 0 5057 0 0 5053 0 0 5079 0 0 5011 0 0 5057 0 0 5022 0 0 4984 0 0 4988 0 0 4992 0 0 4998 0 0 5102 0 0 4909 0 0 5044 0 0 5026 0 0 5038 0 0 5040 0 0 4964 0 0 5033 0 0 5038 0 0 5120 0 0 4987 0 0 5055 0 0 5057 0 0 5091 0 0 2533 0 0 39 0 0 6 0 0 1 0 0 0 0 0 2 0 0 2 0 0 4 0 0 2 0 0 1 0 0 
0 0 0 0 0 0 2 0 0 3 0 0 2 0 0 1 0 0 9 0 0 10 0 0 8 0 0 43 0 0 2559 0 0 5039 0 0 5119 0 0 5109 0 0 5020 0 0 4932 0 0 4994 0 0 4968 0 0 4986 0 0 5096 0 0 4977 0 0 5091 0 0 5054 0 0 4939 0 0 5050 0 0 5069 0 0 5111 0 0 5071 0 0 4949 0 0 4994 0 0 5051 0 0 4989 0 0 5112 0 0 5074 0 0 5028 0 0 4983 0 0 4975 0 0 4961 0 0 4985 0 0 4976 0 0 5070 0 0 5050 0 0 4999 0 0 5031 0 0 5057 0 0 5024 0 0 4974 0 0 5076 0 0 5008 0 0 4972 0 0 2541 0 0 48 0 0 6 0 0 4 0 0 3 0 0 5 0 0 2 0 0 4 0 0 6 0 0 1 0 0 
1 0 0 1 0 0 1 0 0 2 0 0 7 0 0 4 0 0 6 0 0 12 0 0 9 0 0 44 0 0 2480 0 0 5075 0 0 5000 0 0 5017 0 0 5047 0 0 5097 0 0 5134 0 0 5114 0 0 5064 0 0 5031 0 0 5175 0 0 5002 0 0 5122 0 0 5018 0 0 4992 0 0 5114 0 0 5026 0 0 5023 0 0 5016 0 0 4942 0 0 4994 0 0 5020 0 0 4906 0 0 5080 0 0 5034 0 0 5007 0 0 5007 0 0 5046 0 0 5013 0 0 5044 0 0 4989 0 0 5035 0 0 4975 0 0 5004 0 0 4940 0 0 5078 0 0 5002 0 0 4936 0 0 5034 0 0 5054 0 0 2553 0 0 47 0 0 12 0 0 1 0 0 1 0 0 4 0 0 4 0 0 3 0 0 3 0 0 4 0 0 
1 0 0 1 0 0 1 0 0 0 0 0 3 0 0 4 0 0 6 0 0 9 0 0 10 0 0 40 0 0 2563 0 0 4974 0 0 5028 0 0 5026 0 0 5002 0 0 5038 0 0 5065 0 0 4958 0 0 5045 0 0 5084 0 0 4912 0 0 4961 0 0 5116 0 0 5000 0 0 5094 0 0 4994 0 0 4980 0 0 4996 0 0 5144 0 0 5089 0 0 4965 0 0 4990 0 0 5001 0 0 5067 0 0 5003 0 0 5080 0 0 5011 0 0 4988 0 0 5006 0 0 5047 0 0 5192 0 0 5174 0 0 4989 0 0 5222 0 0 5038 0 0 4929 0 0 5056 0 0 5190 0 0 4971 0 0 4984 0 0 2446 0 0 44 0 0 10 0 0 8 0 0 7 0 0 5 0 0 3 0 0 6 0 0 6 0 0 4 0 0 
1 0 0 6 0 0 4 0 0 8 0 0 5 0 0 3 0 0 9 0 0 6 0 0 10 0 0 49 0 0 2568 0 0 5082 0 0 5048 0 0 5044 0 0 5133 0 0 5056 0 0 5011 0 0 4951 0 0 4977 0 0 5070 0 0 5062 0 0 4975 0 0 5038 0 0 5112 0 0 4941 0 0 5024 0 0 5069 0 0 5041 0 0 5069 0 0 4992 0 0 5133 0 0 5086 0 0 5083 0 0 5063 0 0 4962 0 0 5009 0 0 4983 0 0 5147 0 0 5174 0 0 5088 0 0 5038 0 0 4986 0 0 4944 0 0 5057 0 0 4977 0 0 5044 0 0 4989 0 0 4927 0 0 4930 0 0 5012 0 0 2602 0 0 41 0 0 4 0 0 3 0 0 2 0 0 6 0 0 4 0 0 4 0 0 5 0 0 2 0 0 
3 0 0 3 0 0 4 0 0 1 0 0 2 0 0 7 0 0 6 0 0 6 0 0 5 0 0 44 0 0 2507 0 0 5021 0 0 5056 0 0 5029 0 0 4931 0 0 4958 0 0 5032 0 0 5016 0 0 4995 0 0 5181 0 0 4958 0 0 5001 0 0 5046 0 0 5018 0 0 5025 0 0 5109 0 0 5153 0 0 5031 0 0 4881 0 0 5143 0 0 4923 0 0 4997 0 0 5047 0 0 4968 0 0 5094 0 0 5092 0 0 5110 0 0 4993 0 0 4998 0 0 4974 0 0 4951 0 0 4961 0 0 4895 0 0 5001 0 0 5000 0 0 4856 0 0 4912 0 0 5001 0 0 5044 0 0 4954 0 0 2523 0 0 40 0 0 10 0 0 4 0 0 9 0 0 2 0 0 3 0 0 2 0 0 3 0 0 7 0 0 
0 0 0 0 0 0 2 0 0 4 0 0 2 0 0 2 0 0 4 0 0 3 0 0 7 0 0 52 0 0 2515 0 0 5004 0 0 5036 0 0 5139 0 0 5103 0 0 5074 0 0 4972 0 0 5003 0 0 4991 0 0 4963 0 0 4986 0 0 5023 0 0 5039 0 0 5027 0 0 5113 0 0 5074 0 0 5087 0 0 5044 0 0 5070 0 0 4995 0 0 5009 0 0 5038 0 0 4956 0 0 5146 0 0 5091 0 0 5094 0 0 4969 0 0 4995 0 0 5112 0 0 4965 0 0 5017 0 0 5058 0 0 5067 0 0 5094 0 0 5133 0 0 5109 0 0 5132 0 0 4965 0 0 4913 0 0 5144 0 0 2537 0 0 41 0 0 3 0 0 6 0 0 6 0 0 2 0 0 3 0 0 2 0 0 2 0 0 0 0 0 
0 0 0 2 0 0 6 0 0 2 0 0 3 0 0 2 0 0 5 0 0 1 0 0 12 0 0 48 0 0 2481 0 0 5049 0 0 5037 0 0 4985 0 0 5033 0 0 5116 0 0 4973 0 0 5022 0 0 4895 0 0 5125 0 0 5057 0 0 5074 0 0 5065 0 0 5023 0 0 5125 0 0 5078 0 0 5145 0 0 5001 0 0 5047 0 0 4975 0 0 5070 0 0 5071 0 0 5023 0 0 5182 0 0 5056 0 0 5050 0 0 5103 0 0 5012 0 0 4978 0 0 5089 0 0 5049 0 0 4883 0 0 4987 0 0 5005 0 0 5095 0 0 5035 0 0 5100 0 0 5099 0 0 4950 0 0 5003 0 0 2515 0 0 38 0 0 11 0 0 3 0 0 6 0 0 7 0 0 2 0 0 3 0 0 0 0 0 3 0 0 
0 0 0 2 0 0 3 0 0 1 0 0 2 0 0 2 0 0 4 0 0 5 0 0 12 0 0 44 0 0 2509 0 0 4896 0 0 4827 0 0 4977 0 0 5085 0 0 5021 0 0 4967 0 0 4986 0 0 5049 0 0 5063 0 0 5042 0 0 5043 0 0 5026 0 0 5052 0 0 5103 0 0 5030 0 0 5129 0 0 5008 0 0 4967 0 0 5048 0 0 4883 0 0 5015 0 0 5031 0 0 4820 0 0 5020 0 0 4943 0 0 5141 0 0 5071 0 0 4975 0 0 5000 0 0 5045 0 0 5011 0 0 4960 0 0 4879 0 0 5015 0 0 5023 0 0 5150 0 0 5044 0 0 4998 0 0 5062 0 0 2551 0 0 36 0 0 7 0 0 5 0 0 3 0 0 6 0 0 4 0 0 3 0 0 2 0 0 1 0 0 
0 0 0 1 0 0 2 0 0 0 0 0 6 0 0 3 0 0 5 0 0 12 0 0 16 0 0 37 0 0 2395 0 0 5014 0 0 5094 0 0 5112 0 0 5015 0 0 4932 0 0 5067 0 0 4964 0 0 5010 0 0 4892 0 0 5024 0 0 4868 0 0 4996 0 0 5083 0 0 5062 0 0 5028 0 0 5119 0 0 5082 0 0 5074 0 0 5059 0 0 5055 0 0 5094 0 0 5052 0 0 5120 0 0 4958 0 0 5116 0 0 5034 0 0 5022 0 0 5043 0 0 4970 0 0 5032 0 0 5087 0 0 5024 0 0 4939 0 0 5047 0 0 4986 0 0 5063 0 0 4946 0 0 5055 0 0 4953 0 0 2530 0 0 42 0 0 9 0 0 7 0 0 2 0 0 0 0 0 3 0 0 3 0 0 0 0 0 4 0 0 
0 0 0 2 0 0 2 0 0 3 0 0 6 0 0 7 0 0 8 0 0 9 0 0 11 0 0 63 0 0 2526 0 0 5019 0 0 5077 0 0 4988 0 0 5051 0 0 4902 0 0 5008 0 0 5030 0 0 4995 0 0 5081 0 0 5060 0 0 4971 0 0 5032 0 0 5091 0 0 4965 0 0 5109 0 0 4929 0 0 5051 0 0 5061 0 0 5060 0 0 5018 0 0 5082 0 0 5010 0 0 4996 0 0 4944 0 0 5150 0 0 5126 0 0 5112 0 0 5015 0 0 5044 0 0 4981 0 0 4963 0 0 4876 0 0 4992 0 0 5078 0 0 4899 0 0 5074 0 0 4975 0 0 5034 0 0 5005 0 0 2521 0 0 47 0 0 15 0 0 7 0 0 6 0 0 5 0 0 3 0 0 5 0 0 1 0 0 0 0 0 
0 0 0 5 0 0 6 0 0 7 0 0 4 0 0 8 0 0 7 0 0 4 0 0 3 0 0 46 0 0 2534 0 0 5056 0 0 5079 0 0 4994 0 0 4998 0 0 5052 0 0 5054 0 0 5000 0 0 5143 0 0 4996 0 0 5024 0 0 5082 0 0 4892 0 0 5053 0 0 5151 0 0 5005 0 0 5100 0 0 5010 0 0 5083 0 0 5016 0 0 5044 0 0 5147 0 0 5033 0 0 5126 0 0 4992 0 0 5123 0 0 5053 0 0 5100 0 0 5143 0 0 4977 0 0 5055 0 0 5058 0 0 4931 0 0 5119 0 0 5064 0 0 5052 0 0 4953 0 0 5036 0 0 4990 0 0 5017 0 0 2594 0 0 42 0 0 5 0 0 7 0 0 5 0 0 2 0 0 1 0 0 3 0 0 0 0 0 0 0 0 
2 0 0 5 0 0 4 0 0 0 0 0 2 0 0 5 0 0 9 0 0 5 0 0 6 0 0 49 0 0 2460 0 0 5037 0 0 5027 0 0 4931 0 0 4965 0 0 4958 0 0 5150 0 0 4974 0 0 5051 0 0 5111 0 0 5009 0 0 4922 0 0 5048 0 0 4984 0 0 5058 0 0 5101 0 0 5084 0 0 5030 0 0 4936 0 0 5005 0 0 4959 0 0 4959 0 0 5021 0 0 4998 0 0 5025 0 0 5008 0 0 5104 0 0 5063 0 0 5055 0 0 5090 0 0 5044 0 0 5012 0 0 5053 0 0 5106 0 0 5029 0 0 5136 0 0 5107 0 0 5044 0 0 4912 0 0 5170 0 0 2538 0 0 52 0 0 7 0 0 6 0 0 2 0 0 4 0 0 4 0 0 3 0 0 2 0 0 2 0 0 
0 0 0 3 0 0 3 0 0 4 0 0 5 0 0 2 0 0 2 0 0 6 0 0 12 0 0 39 0 0 2509 0 0 5010 0 0 4982 0 0 4987 0 0 4975 0 0 4982 0 0 5045 0 0 5025 0 0 4932 0 0 4908 0 0 5025 0 0 4996 0 0 5082 0 0 5034 0 0 5037 0 0 4993 0 0 5064 0 0 4973 0 0 5070 0 0 5098 0 0 5023 0 0 5126 0 0 5056 0 0 5111 0 0 5043 0 0 5007 0 0 5002 0 0 5080 0 0 4988 0 0 5055 0 0 5077 0 0 4981 0 0 4988 0 0 5040 0 0 5083 0 0 5060 0 0 4962 0 0 4990 0 0 5091 0 0 4906 0 0 2537 0 0 39 0 0 11 0 0 5 0 0 3 0 0 2 0 0 3 0 0 3 0 0 2 0 0 1 0 0 
1 0 0 1 0 0 1 0 0 3 0 0 2 0 0 3 0 0 5 0 0 4 0 0 14 0 0 53 0 0 2545 0 0 5023 0 0 5014 0 0 5050 0 0 5091 0 0 5009 0 0 4936 0 0 5010 0 0 5052 0 0 4983 0 0 5023 0 0 4963 0 0 5005 0 0 5087 0 0 5083 0 0 5005 0 0 4962 0 0 5071 0 0 4988 0 0 5059 0 0 5143 0 0 5085 0 0 5099 0 0 4996 0 0 5038 0 0 5038 0 0 4896 0 0 4828 0 0 4959 0 0 4993 0 0 5022 0 0 5076 0 0 5022 0 0 5063 0 0 5039 0 0 5151 0 0 4969 0 0 5117 0 0 5059 0 0 4986 0 0 2488 0 0 41 0 0 9 0 0 7 0 0 7 0 0 3 0 0 0 0 0 1 0 0 6 0 0 5 0 0 
0 0 0 0 0 0 3 0 0 2 0 0 3 0 0 9 0 0 8 0 0 8 0 0 11 0 0 48 0 0 2532 0 0 4929 0 0 5105 0 0 5181 0 0 4969 0 0 4988 0 0 4901 0 0 5041 0 0 4981 0 0 4931 0 0 5034 0 0 5013 0 0 5066 0 0 5059 0 0 5036 0 0 5028 0 0 5136 0 0 4914 0 0 5041 0 0 5042 0 0 5046 0 0 4923 0 0 5073 0 0 5049 0 0 4994 0 0 4985 0 0 5045 0 0 5074 0 0 4971 0 0 5066 0 0 4999 0 0 5126 0 0 5056 0 0 4929 0 0 5102 0 0 4958 0 0 5050 0 0 5129 0 0 5145 0 0 4924 0 0 2532 0 0 50 0 0 8 0 0 5 0 0 6 0 0 5 0 0 1 0 0 2 0 0 6 0 0 11 0 0 
0 0 0 1 0 0 1 0 0 0 0 0 4 0 0 3 0 0 2 0 0 10 0 0 9 0 0 44 0 0 2580 0 0 5071 0 0 5070 0 0 4959 0 0 5050 0 0 4993 0 0 5032 0 0 5124 0 0 5102 0 0 4962 0 0 5077 0 0 5071 0 0 5021 0 0 5000 0 0 5089 0 0 5006 0 0 4985 0 0 5036 0 0 5024 0 0 5074 0 0 5154 0 0 5064 0 0 5100 0 0 4986 0 0 4975 0 0 5084 0 0 4878 0 0 4968 0 0 4949 0 0 5074 0 0 5095 0 0 5031 0 0 4965 0 0 5102 0 0 4952 0 0 5010 0 0 4944 0 0 5082 0 0 5108 0 0 4952 0 0 2591 0 0 47 0 0 9 0 0 6 0 0 5 0 0 9 0 0 8 0 0 7 0 0 4 0 0 4 0 0 
0 0 0 0 0 0 3 0 0 5 0 0 3 0 0 3 0 0 0 0 0 5 0 0 11 0 0 36 0 0 2454 0 0 4947 0 0 5042 0 0 5077 0 0 4925 0 0 4966 0 0 4831 0 0 5033 0 0 4970 0 0 5019 0 0 5075 0 0 4961 0 0 5038 0 0 5057 0 0 4998 0 0 4957 0 0 4987 0 0 4923 0 0 5146 0 0 5044 0 0 4966 0 0 4949 0 0 5025 0 0 5066 0 0 4974 0 0 5031 0 0 5028 0 0 5035 0 0 5041 0 0 5032 0 0 5067 0 0 5109 0 0 5040 0 0 5132 0 0 5061 0 0 5059 0 0 5017 0 0 4969 0 0 5053 0 0 4983 0 0 2539 0 0 42 0 0 6 0 0 7 0 0 3 0 0 4 0 0 5 0 0 3 0 0 5 0 0 3 0 0 
2 0 0 6 0 0 3 0 0 2 0 0 0 0 0 2 0 0 7 0 0 10 0 0 8 0 0 48 0 0 2606 0 0 4965 0 0 5110 0 0 5050 0 0 5055 0 0 5017 0 0 5091 0 0 5024 0 0 5214 0 0 5058 0 0 5127 0 0 5007 0 0 5032 0 0 4974 0 0 5064 0 0 5014 0 0 5093 0 0 5042 0 0 5089 0 0 4986 0 0 4959 0 0 5030 0 0 5004 0 0 5071 0 0 5065 0 0 5022 0 0 5029 0 0 5084 0 0 5060 0 0 5000 0 0 4972 0 0 4990 0 0 5079 0 0 5049 0 0 4994 0 0 5047 0 0 5100 0 0 4982 0 0 5008 0 0 4939 0 0 2501 0 0 35 0 0 3 0 0 1 0 0 7 0 0 3 0 0 8 0 0 3 0 0 0 0 0 0 0 0 
1 0 0 2 0 0 1 0 0 4 0 0 2 0 0 2 0 0 5 0 0 8 0 0 11 0 0 42 0 0 2575 0 0 5066 0 0 5015 0 0 5026 0 0 5078 0 0 5066 0 0 5108 0 0 5057 0 0 4991 0 0 4995 0 0 5053 0 0 5030 0 0 5061 0 0 5108 0 0 5006 0 0 4973 0 0 5051 0 0 5120 0 0 5016 0 0 5070 0 0 5054 0 0 5060 0 0 4947 0 0 5036 0 0 4951 0 0 5120 0 0 5022 0 0 5014 0 0 5036 0 0 5046 0 0 5102 0 0 5055 0 0 4948 0 0 4972 0 0 4985 0 0 4913 0 0 5002 0 0 5041 0 0 5024 0 0 4933 0 0 2488 0 0 35 0 0 5 0 0 8 0 0 5 0 0 6 0 0 6 0 0 7 0 0 0 0 0 0 0 0 
0 0 0 1 0 0 1 0 0 3 0 0 2 0 0 4 0 0 10 0 0 11 0 0 12 0 0 48 0 0 2498 0 0 4953 0 0 4895 0 0 5015 0 0 5043 0 0 5044 0 0 4963 0 0 5074 0 0 5137 0 0 5041 0 0 4968 0 0 4978 0 0 4900 0 0 4938 0 0 5069 0 0 5069 0 0 5121 0 0 5024 0 0 5071 0 0 5061 0 0 4985 0 0 5013 0 0 4912 0 0 5001 0 0 4981 0 0 5056 0 0 4928 0 0 4936 0 0 4962 0 0 4952 0 0 5033 0 0 4996 0 0 5012 0 0 4948 0 0 5012 0 0 5180 0 0 5046 0 0 5051 0 0 5053 0 0 5023 0 0 2527 0 0 65 0 0 9 0 0 7 0 0 7 0 0 2 0 0 3 0 0 4 0 0 3 0 0 2 0 0 
1 0 0 2 0 0 1 0 0 3 0 0 4 0 0 5 0 0 6 0 0 10 0 0 10 0 0 39 0 0 2496 0 0 5008 0 0 5004 0 0 5083 0 0 5118 0 0 5020 0 0 4922 0 0 5027 0 0 5018 0 0 5024 0 0 5019 0 0 4962 0 0 4977 0 0 5115 0 0 4976 0 0 5091 0 0 5050 0 0 5104 0 0 4875 0 0 5118 0 0 5116 0 0 4964 0 0 5019 0 0 5050 0 0 4953 0 0 4984 0 0 4979 0 0 5014 0 0 5073 0 0 4991 0 0 5070 0 0 4966 0 0 5055 0 0 4972 0 0 5033 0 0 5004 0 0 5037 0 0 5049 0 0 5053 0 0 4963 0 0 2482 0 0 36 0 0 8 0 0 4 0 0 8 0 0 5 0 0 6 0 0 3 0 0 5 0 0 3 0 0 
1 0 0 4 0 0 4 0 0 4 0 0 5 0 0 3 0 0 3 0 0 5 0 0 6 0 0 37 0 0 2493 0 0 4997 0 0 5060 0 0 5072 0 0 5011 0 0 5044 0 0 4929 0 0 5079 0 0 4931 0 0 5107 0 0 5071 0 0 5139 0 0 5086 0 0 5012 0 0 5114 0 0 5101 0 0 4992 0 0 5049 0 0 4979 0 0 5069 0 0 4935 0 0 5050 0 0 4900 0 0 4949 0 0 4998 0 0 4974 0 0 4971 0 0 5103 0 0 5065 0 0 4921 0 0 5000 0 0 4963 0 0 5051 0 0 4957 0 0 5097 0 0 5183 0 0 5040 0 0 5009 0 0 5086 0 0 4964 0 0 2433 0 0 33 0 0 8 0 0 5 0 0 4 0 0 3 0 0 3 0 0 1 0 0 5 0 0 1 0 0 
0 0 0 0 0 0 1 0 0 3 0 0 4 0 0 3 0 0 2 0 0 4 0 0 10 0 0 38 0 0 2504 0 0 4984 0 0 4906 0 0 5030 0 0 5025 0 0 4909 0 0 5024 0 0 5057 0 0 5058 0 0 5024 0 0 4939 0 0 4947 0 0 4975 0 0 4914 0 0 4954 0 0 5108 0 0 5131 0 0 5089 0 0 5125 0 0 4961 0 0 5071 0 0 5012 0 0 4997 0 0 4997 0 0 5122 0 0 4992 0 0 5018 0 0 4984 0 0 5062 0 0 4980 0 0 4986 0 0 5086 0 0 5030 0 0 5083 0 0 5149 0 0 4955 0 0 5039 0 0 4993 0 0 5031 0 0 5001 0 0 2531 0 0 43 0 0 7 0 0 1 0 0 4 0 0 3 0 0 0 0 0 2 0 0 2 0 0 3 0 0 
0 0 0 1 0 0 2 0 0 1 0 0 1 0 0 4 0 0 2 0 0 2 0 0 6 0 0 38 0 0 2528 0 0 4873 0 0 4924 0 0 5089 0 0 5069 0 0 5004 0 0 5034 0 0 4974 0 0 4898 0 0 4930 0 0 4990 0 0 4982 0 0 4921 0 0 4863 0 0 5045 0 0 5156 0 0 4908 0 0 4946 0 0 4965 0 0 5003 0 0 5043 0 0 5022 0 0 4997 0 0 5049 0 0 5036 0 0 4961 0 0 4916 0 0 5129 0 0 5025 0 0 5074 0 0 5114 0 0 4985 0 0 4997 0 0 5033 0 0 4990 0 0 4959 0 0 5020 0 0 4952 0 0 5040 0 0 4853 0 0 2443 0 0 36 0 0 6 0 0 2 0 0 2 0 0 3 0 0 0 0 0 0 0 0 2 0 0 3 0 0 
2 0 0 6 0 0 2 0 0 0 0 0 1 0 0 1 0 0 2 0 0 4 0 0 2 0 0 16 0 0 1280 0 0 2485 0 0 2548 0 0 2523 0 0 2492 0 0 2412 0 0 2555 0 0 2466 0 0 2498 0 0 2636 0 0 2455 0 0 2568 0 0 2605 0 0 2473 0 0 2561 0 0 2515 0 0 2474 0 0 2582 0 0 2517 0 0 2520 0 0 2599 0 0 2549 0 0 2483 0 0 2505 0 0 2477 0 0 2503 0 0 2476 0 0 2582 0 0 2538 0 0 2525 0 0 2633 0 0 2441 0 0 2541 0 0 2487 0 0 2529 0 0 2525 0 0 2535 0 0 2484 0 0 2407 0 0 2493 0 0 1276 0 0 30 0 0 6 0 0 6 0 0 5 0 0 3 0 0 4 0 0 1 0 0 2 0 0 0 0 0 
2 0 0 1 0 0 2 0 0 2 0 0 0 0 0 0 0 0 2 0 0 2 0 0 2 0 0 9 0 0 21 0 0 33 0 0 31 0 0 37 0 0 50 0 0 38 0 0 51 0 0 36 0 0 38 0 0 49 0 0 41 0 0 36 0 0 37 0 0 46 0 0 39 0 0 45 0 0 43 0 0 48 0 0 50 0 0 53 0 0 41 0 0 46 0 0 40 0 0 38 0 0 48 0 0 47 0 0 43 0 0 39 0 0 43 0 0 37 0 0 44 0 0 48 0 0 37 0 0 42 0 0 43 0 0 46 0 0 42 0 0 32 0 0 32 0 0 44 0 0 25 0 0 10 0 0 4 0 0 3 0 0 3 0 0 3 0 0 4 0 0 5 0 0 3 0 0 1 0 0 
2 0 0 2 0 0 4 0 0 1 0 0 0 0 0 1 0 0 2 0 0 0 0 0 3 0 0 7 0 0 6 0 0 4 0 0 11 0 0 6 0 0 9 0 0 6 0 0 7 0 0 6 0 0 15 0 0 7 0 0 6 0 0 7 0 0 10 0 0 9 0 0 9 0 0 5 0 0 4 0 0 4 0 0 5 0 0 8 0 0 8 0 0 10 0 0 2 0 0 9 0 0 10 0 0 8 0 0 10 0 0 15 0 0 9 0 0 12 0 0 8 0 0 12 0 0 7 0 0 8 0 0 15 0 0 11 0 0 6 0 0 6 0 0 3 0 0 9 0 0 2 0 0 4 0 0 10 0 0 7 0 0 4 0 0 1 0 0 3 0 0 1 0 0 3 0 0 3 0 0 
0 0 0 0 0 0 1 0 0 0 0 0 1 0 0 0 0 0 3 0 0 2 0 0 3 0 0 6 0 0 4 0 0 6 0 0 9 0 0 6 0 0 6 0 0 5 0 0 4 0 0 8 0 0 7 0 0 4 0 0 4 0 0 3 0 0 8 0 0 5 0 0 5 0 0 3 0 0 3 0 0 5 0 0 3 0 0 7 0 0 6 0 0 3 0 0 4 0 0 8 0 0 9 0 0 7 0 0 5 0 0 10 0 0 7 0 0 8 0 0 15 0 0 5 0 0 6 0 0 7 0 0 10 0 0 6 0 0 7 0 0 1 0 0 5 0 0 2 0 0 5 0 0 7 0 0 7 0 0 7 0 0 1 0 0 2 0 0 1 0 0 4 0 0 1 0 0 0 0 0 
0 0 0 1 0 0 0 0 0 0 0 0 0 0 0 2 0 0 2 0 0 0 0 0 2 0 0 3 0 0 4 0 0 3 0 0 6 0 0 9 0 0 1 0 0 2 0 0 2 0 0 6 0 0 5 0 0 5 0 0 5 0 0 4 0 0 8 0 0 4 0 0 5 0 0 6 0 0 3 0 0 4 0 0 3 0 0 8 0 0 4 0 0 3 0 0 6 0 0 1 0 0 2 0 0 2 0 0 6 0 0 3 0 0 5 0 0 5 0 0 6 0 0 6 0 0 6 0 0 6 0 0 8 0 0 3 0 0 12 0 0 3 0 0 3 0 0 3 0 0 3 0 0 7 0 0 5 0 0 4 0 0 3 0 0 0 0 0 0 0 0 2 0 0 3 0 0 1 0 0 
1 0 0 3 0 0 1 0 0 0 0 0 2 0 0 2 0 0 2 0 0 0 0 0 4 0 0 3 0 0 6 0 0 4 0 0 12 0 0 1 0 0 2 0 0 4 0 0 1 0 0 1 0 0 3 0 0 4 0 0 3 0 0 1 0 0 5 0 0 5 0 0 4 0 0 4 0 0 6 0 0 3 0 0 3 0 0 7 0 0 1 0 0 2 0 0 2 0 0 4 0 0 3 0 0 5 0 0 3 0 0 2 0 0 5 0 0 7 0 0 2 0 0 8 0 0 4 0 0 3 0 0 6 0 0 3 0 0 2 0 0 3 0 0 3 0 0 3 0 0 3 0 0 2 0 0 5 0 0 3 0 0 0 0 0 2 0 0 1 0 0 0 0 0 0 0 0 0 0 0 
1 0 0 0 0 0 0 0 0 1 0 0 3 0 0 3 0 0 2 0 0 3 0 0 2 0 0 6 0 0 4 0 0 5 0 0 4 0 0 1 0 0 3 0 0 1 0 0 2 0 0 1 0 0 2 0 0 3 0 0 3 0 0 3 0 0 3 0 0 1 0 0 2 0 0 5 0 0 4 0 0 0 0 0 4 0 0 5 0 0 3 0 0 1 0 0 2 0 0 1 0 0 4 0 0 3 0 0 2 0 0 1 0 0 3 0 0 11 0 0 0 0 0 1 0 0 2 0 0 5 0 0 4 0 0 2 0 0 5 0 0 1 0 0 3 0 0 4 0 0 2 0 0 5 0 0 5 0 0 0 0 0 1 0 0 1 0 0 1 0 0 0 0 0 0 0 0 0 0 0 
0 0 0 0 0 0 0 0 0 0 0 0 1 0 0 2 0 0 3 0 0 4 0 0 7 0 0 5 0 0 3 0 0 2 0 0 3 0 0 2 0 0 0 0 0 1 0 0 4 0 0 1 0 0 7 0 0 0 0 0 4 0 0 4 0 0 1 0 0 0 0 0 3 0 0 2 0 0 5 0 0 1 0 0 0 0 0 5 0 0 5 0 0 1 0 0 1 0 0 5 0 0 4 0 0 3 0 0 5 0 0 0 0 0 1 0 0 5 0 0 3 0 0 3 0 0 2 0 0 5 0 0 7 0 0 1 0 0 0 0 0 2 0 0 1 0 0 1 0 0 2 0 0 2 0 0 1 0 0 1 0 0 0 0 0 0 0 0 1 0 0 2 0 0 0 0 0 1 0 0 
0 0 0 0 0 0 0 0 0 1 0 0 2 0 0 4 0 0 3 0 0 4 0 0 4 0 0 0 0 0 1 0 0 1 0 0 2 0 0 3 0 0 2 0 0 1 0 0 2 0 0 4 0 0 2 0 0 0 0 0 2 0 0 0 0 0 1 0 0 1 0 0 3 0 0 3 0 0 2 0 0 0 0 0 3 0 0 3 0 0 3 0 0 1 0 0 0 0 0 6 0 0 3 0 0 5 0 0 5 0 0 1 0 0 0 0 0 7 0 0 6 0 0 2 0 0 1 0 0 1 0 0 1 0 0 5 0 0 2 0 0 2 0 0 1 0 0 0 0 0 4 0 0 0 0 0 0 0 0 0 0 0 0 0 0 0 0 0 0 0 0 0 0 0 1 0 0 0 0 0 
0 0 0 0 0 0 0 0 0 0 0 0 2 0 0 0 0 0 3 0 0 0 0 0 1 0 0 0 0 0 1 0 0 3 0 0 5 0 0 2 0 0 0 0 0 5 0 0 2 0 0 0 0 0 1 0 0 3 0 0 4 0 0 2 0 0 3 0 0 2 0 0 1 0 0 2 0 0 4 0 0 3 0 0 2 0 0 2 0 0 3 0 0 2 0 0 2 0 0 1 0 0 1 0 0 2 0 0 2 0 0 1 0 0 3 0 0 5 0 0 3 0 0 4 0 0 2 0 0 3 0 0 1 0 0 5 0 0 3 0 0 1 0 0 4 0 0 3 0 0 0 0 0 0 0 0 1 0 0 0 0 0 1 0 0 0 0 0 1 0 0 0 0 0 0 0 0 2 0 0 
