P3
# This is a dose file slice at depth 94 of 100
60 60
# now we give the maximum value of the RGB coordinates.
34334
0 0 0 0 0 0 0 0 0 0 0 0 0 0 0 0 0 0 0 0 0 0 0 0 0 0 0 0 0 0 0 0 0 0 0 0 0 0 0 0 0 0 0 0 0 0 0 0 0 0 0 0 0 0 0 0 0 0 0 0 0 0 0 0 0 0 0 0 0 0 0 0 0 0 0 0 0 0 0 0 0 0 0 0 0 0 0 0 0 0 0 0 0 0 0 0 0 0 0 0 0 0 0 0 0 0 0 0 0 0 0 0 0 0 0 0 0 0 0 0 0 0 0 0 0 0 0 0 0 0 0 0 0 0 0 0 0 0 0 0 0 0 0 0 0 0 0 0 0 0 0 0 0 0 0 0 0 0 0 0 0 0 0 0 0 0 0 0 0 0 0 0 0 0 0 0 0 0 0 0 
0 0 0 0 0 0 0 0 0 0 0 0 0 0 0 0 0 0 0 0 0 0 0 0 0 0 0 0 0 0 0 0 0 0 0 0 0 0 0 0 0 0 0 0 0 0 0 0 0 0 0 0 0 0 0 0 0 0 0 0 0 0 0 0 0 0 0 0 0 0 0 0 0 0 0 0 0 0 0 0 0 0 0 0 0 0 0 0 0 0 0 0 0 0 0 0 0 0 0 0 0 0 0 0 0 0 0 0 0 0 0 0 0 0 0 0 0 0 0 0 0 0 0 0 0 0 0 0 0 0 0 0 0 0 0 0 0 0 0 0 0 0 0 0 0 0 0 0 0 0 0 0 0 0 0 0 0 0 0 0 0 0 0 0 0 0 0 0 0 0 0 0 0 0 0 0 0 0 0 0 
0 0 0 0 0 0 0 0 0 0 0 0 0 0 0 0 0 0 0 0 0 0 0 0 0 0 0 0 0 0 0 0 0 0 0 0 0 0 0 0 0 0 0 0 0 0 0 0 0 0 0 0 0 0 0 0 0 0 0 0 0 0 0 0 0 0 0 0 0 0 0 0 0 0 0 0 0 0 0 0 0 0 0 0 0 0 0 0 0 0 0 0 0 0 0 0 0 0 0 0 0 0 0 0 0 0 0 0 0 0 0 0 0 0 0 0 0 0 0 0 0 0 0 0 0 0 0 0 0 0 0 0 0 0 0 0 0 0 0 0 0 0 0 0 0 0 0 0 0 0 0 0 0 0 0 0 0 0 0 0 0 0 0 0 0 0 0 0 0 0 0 0 0 0 0 0 0 0 0 0 
0 0 0 0 0 0 0 0 0 0 0 0 0 0 0 0 0 0 0 0 0 0 0 0 0 0 0 0 0 0 0 0 0 0 0 0 0 0 0 0 0 0 0 0 0 0 0 0 0 0 0 0 0 0 0 0 0 0 0 0 0 0 0 0 0 0 0 0 0 0 0 0 0 0 0 0 0 0 0 0 0 0 0 0 0 0 0 0 0 0 0 0 0 0 0 0 0 0 0 0 0 0 0 0 0 0 0 0 0 0 0 0 0 0 0 0 0 0 0 0 0 0 0 0 0 0 0 0 0 0 0 0 0 0 0 0 0 0 0 0 0 0 0 0 0 0 0 0 0 0 0 0 0 0 0 0 0 0 0 0 0 0 0 0 0 0 0 0 0 0 0 0 0 0 0 0 0 0 0 0 
0 0 0 0 0 0 0 0 0 0 0 0 0 0 0 0 0 0 0 0 0 0 0 0 0 0 0 0 0 0 0 0 0 0 0 0 0 0 0 0 0 0 0 0 0 0 0 0 0 0 0 0 0 0 0 0 0 0 0 0 0 0 0 0 0 0 0 0 0 0 0 0 0 0 0 0 0 0 0 0 0 0 0 0 0 0 0 0 0 0 0 0 0 0 0 0 0 0 0 0 0 0 0 0 0 0 0 0 0 0 0 0 0 0 0 0 0 0 0 0 0 0 0 0 0 0 0 0 0 0 0 0 0 0 0 0 0 0 0 0 0 0 0 0 0 0 0 0 0 0 0 0 0 0 0 0 0 0 0 0 0 0 0 0 0 0 0 0 0 0 0 0 0 0 0 0 0 0 0 0 
0 0 0 0 0 0 0 0 0 0 0 0 0 0 0 0 0 0 0 0 0 0 0 0 0 0 0 0 0 0 0 0 0 0 0 0 0 0 0 0 0 0 0 0 0 0 0 0 0 0 0 0 0 0 0 0 0 0 0 0 0 0 0 0 0 0 0 0 0 0 0 0 0 0 0 0 0 0 0 0 0 0 0 0 0 0 0 0 0 0 0 0 0 0 0 0 0 0 0 0 0 0 0 0 0 0 0 0 0 0 0 0 0 0 0 0 0 0 0 0 0 0 0 0 0 0 0 0 0 0 0 0 0 0 0 0 0 0 0 0 0 0 0 0 0 0 0 0 0 0 0 0 0 0 0 0 0 0 0 0 0 0 0 0 0 0 0 0 0 0 0 0 0 0 0 0 0 0 0 0 
0 0 0 0 0 0 0 0 0 0 0 0 0 0 0 0 0 0 0 0 0 0 0 0 0 0 0 0 0 0 0 0 0 0 0 0 0 0 0 0 0 0 0 0 0 0 0 0 0 0 0 0 0 0 0 0 0 0 0 0 0 0 0 0 0 0 0 0 0 0 0 0 0 0 0 0 0 0 0 0 0 0 0 0 0 0 0 0 0 0 0 0 0 0 0 0 0 0 0 0 0 0 0 0 0 0 0 0 0 0 0 0 0 0 0 0 0 0 0 0 0 0 0 0 0 0 0 0 0 0 0 0 0 0 0 0 0 0 0 0 0 0 0 0 0 0 0 0 0 0 0 0 0 0 0 0 0 0 0 0 0 0 0 0 0 0 0 0 0 0 0 0 0 0 0 0 0 0 0 0 
0 0 0 0 0 0 0 0 0 0 0 0 0 0 0 0 0 0 0 0 0 0 0 0 0 0 0 0 0 0 0 0 0 0 0 0 0 0 0 0 0 0 0 0 0 0 0 0 0 0 0 0 0 0 0 0 0 0 0 0 0 0 0 0 0 0 0 0 0 0 0 0 0 0 0 0 0 0 0 0 0 0 0 0 0 0 0 0 0 0 0 0 0 0 0 0 0 0 0 0 0 0 0 0 0 0 0 0 0 0 0 0 0 0 0 0 0 0 0 0 0 0 0 0 0 0 0 0 0 0 0 0 0 0 0 0 0 0 0 0 0 0 0 0 0 0 0 0 0 0 0 0 0 0 0 0 0 0 0 0 0 0 0 0 0 0 0 0 0 0 0 0 0 0 0 0 0 0 0 0 
0 0 0 0 0 0 0 0 0 0 0 0 0 0 0 0 0 0 0 0 0 0 0 0 0 0 0 0 0 0 0 0 0 0 0 0 0 0 0 0 0 0 0 0 0 0 0 0 0 0 0 0 0 0 0 0 0 0 0 0 0 0 0 0 0 0 0 0 0 0 0 0 0 0 0 0 0 0 0 0 0 0 0 0 0 0 0 0 0 0 0 0 0 0 0 0 0 0 0 0 0 0 0 0 0 0 0 0 0 0 0 0 0 0 0 0 0 0 0 0 0 0 0 0 0 0 0 0 0 0 0 0 0 0 0 0 0 0 0 0 0 0 0 0 0 0 0 0 0 0 0 0 0 0 0 0 0 0 0 0 0 0 0 0 0 0 0 0 0 0 0 0 0 0 0 0 0 0 0 0 
0 0 0 0 0 0 0 0 0 0 0 0 0 0 0 0 0 0 0 0 0 0 0 0 0 0 0 0 0 0 0 0 0 0 0 0 0 0 0 0 0 0 0 0 0 0 0 0 0 0 0 0 0 0 0 0 0 0 0 0 0 0 0 0 0 0 0 0 0 0 0 0 0 0 0 0 0 0 0 0 0 0 0 0 0 0 0 0 0 0 0 0 0 0 0 0 0 0 0 0 0 0 0 0 0 0 0 0 0 0 0 0 0 0 0 0 0 0 0 0 0 0 0 0 0 0 0 0 0 0 0 0 0 0 0 0 0 0 0 0 0 0 0 0 0 0 0 0 0 0 0 0 0 0 0 0 0 0 0 0 0 0 0 0 0 0 0 0 0 0 0 0 0 0 0 0 0 0 0 0 
0 0 0 0 0 0 0 0 0 0 0 0 0 0 0 0 0 0 0 0 0 0 0 0 0 0 0 0 0 0 658 0 0 1228 0 0 1243 0 0 1294 0 0 1211 0 0 1283 0 0 1239 0 0 1249 0 0 1260 0 0 1239 0 0 1284 0 0 1264 0 0 1303 0 0 1225 0 0 1257 0 0 1325 0 0 1229 0 0 1200 0 0 1251 0 0 1321 0 0 1249 0 0 1177 0 0 1239 0 0 1239 0 0 1269 0 0 1241 0 0 1326 0 0 1257 0 0 1235 0 0 1339 0 0 1309 0 0 1221 0 0 1261 0 0 1253 0 0 1260 0 0 1302 0 0 1246 0 0 1267 0 0 1314 0 0 1246 0 0 618 0 0 0 0 0 0 0 0 0 0 0 0 0 0 0 0 0 0 0 0 0 0 0 0 0 0 0 0 0 
0 0 0 0 0 0 0 0 0 0 0 0 0 0 0 0 0 0 0 0 0 0 0 0 0 0 0 0 0 0 1225 0 0 2452 0 0 2454 0 0 2556 0 0 2501 0 0 2513 0 0 2458 0 0 2483 0 0 2563 0 0 2600 0 0 2555 0 0 2575 0 0 2600 0 0 2520 0 0 2473 0 0 2623 0 0 2530 0 0 2532 0 0 2583 0 0 2481 0 0 2524 0 0 2560 0 0 2620 0 0 2441 0 0 2596 0 0 2478 0 0 2640 0 0 2552 0 0 2545 0 0 2505 0 0 2506 0 0 2548 0 0 2538 0 0 2443 0 0 2425 0 0 2581 0 0 2544 0 0 2536 0 0 2530 0 0 2516 0 0 1268 0 0 0 0 0 0 0 0 0 0 0 0 0 0 0 0 0 0 0 0 0 0 0 0 0 0 0 0 0 
0 0 0 0 0 0 0 0 0 0 0 0 0 0 0 0 0 0 0 0 0 0 0 0 0 0 0 0 0 0 1239 0 0 2616 0 0 2542 0 0 2538 0 0 2576 0 0 2499 0 0 2583 0 0 2581 0 0 2477 0 0 2540 0 0 2556 0 0 2574 0 0 2522 0 0 2580 0 0 2634 0 0 2492 0 0 2515 0 0 2579 0 0 2445 0 0 2497 0 0 2527 0 0 2662 0 0 2539 0 0 2496 0 0 2488 0 0 2548 0 0 2643 0 0 2512 0 0 2612 0 0 2512 0 0 2524 0 0 2501 0 0 2463 0 0 2530 0 0 2541 0 0 2520 0 0 2567 0 0 2429 0 0 2521 0 0 2507 0 0 1258 0 0 0 0 0 0 0 0 0 0 0 0 0 0 0 0 0 0 0 0 0 0 0 0 0 0 0 0 0 
0 0 0 0 0 0 0 0 0 0 0 0 0 0 0 0 0 0 0 0 0 0 0 0 0 0 0 0 0 0 1333 0 0 2556 0 0 2528 0 0 2502 0 0 2496 0 0 2535 0 0 2498 0 0 2519 0 0 2526 0 0 2560 0 0 2557 0 0 2658 0 0 2564 0 0 2590 0 0 2459 0 0 2525 0 0 2565 0 0 2456 0 0 2483 0 0 2570 0 0 2544 0 0 2603 0 0 2530 0 0 2598 0 0 2486 0 0 2592 0 0 2517 0 0 2536 0 0 2541 0 0 2630 0 0 2577 0 0 2558 0 0 2518 0 0 2586 0 0 2496 0 0 2577 0 0 2481 0 0 2464 0 0 2549 0 0 2546 0 0 1337 0 0 0 0 0 0 0 0 0 0 0 0 0 0 0 0 0 0 0 0 0 0 0 0 0 0 0 0 0 
0 0 0 0 0 0 0 0 0 0 0 0 0 0 0 0 0 0 0 0 0 0 0 0 0 0 0 0 0 0 1350 0 0 2490 0 0 2603 0 0 2456 0 0 2565 0 0 2512 0 0 2492 0 0 2557 0 0 2567 0 0 2603 0 0 2607 0 0 2570 0 0 2618 0 0 2454 0 0 2460 0 0 2510 0 0 2476 0 0 2494 0 0 2619 0 0 2466 0 0 2558 0 0 2533 0 0 2511 0 0 2513 0 0 2568 0 0 2502 0 0 2426 0 0 2571 0 0 2479 0 0 2540 0 0 2523 0 0 2493 0 0 2594 0 0 2480 0 0 2557 0 0 2569 0 0 2576 0 0 2501 0 0 2601 0 0 2570 0 0 1317 0 0 0 0 0 0 0 0 0 0 0 0 0 0 0 0 0 0 0 0 0 0 0 0 0 0 0 0 0 
0 0 0 0 0 0 0 0 0 0 0 0 0 0 0 0 0 0 0 0 0 0 0 0 0 0 0 0 0 0 1306 0 0 2473 0 0 2603 0 0 2517 0 0 2552 0 0 2496 0 0 2479 0 0 2581 0 0 2575 0 0 2514 0 0 2680 0 0 2533 0 0 2438 0 0 2427 0 0 2555 0 0 2515 0 0 2508 0 0 2509 0 0 2500 0 0 2618 0 0 2571 0 0 2544 0 0 2487 0 0 2544 0 0 2506 0 0 2502 0 0 2426 0 0 2553 0 0 2506 0 0 2468 0 0 2502 0 0 2575 0 0 2551 0 0 2541 0 0 2533 0 0 2601 0 0 2594 0 0 2516 0 0 2642 0 0 2513 0 0 1349 0 0 0 0 0 0 0 0 0 0 0 0 0 0 0 0 0 0 0 0 0 0 0 0 0 0 0 0 0 
0 0 0 0 0 0 0 0 0 0 0 0 0 0 0 0 0 0 0 0 0 0 0 0 0 0 0 0 0 0 1232 0 0 2535 0 0 2500 0 0 2524 0 0 2490 0 0 2499 0 0 2551 0 0 2603 0 0 2542 0 0 2475 0 0 2670 0 0 2487 0 0 2568 0 0 2597 0 0 2569 0 0 2435 0 0 2609 0 0 2498 0 0 2612 0 0 2610 0 0 2550 0 0 2589 0 0 2573 0 0 2553 0 0 2365 0 0 2583 0 0 2500 0 0 2551 0 0 2589 0 0 2536 0 0 2498 0 0 2523 0 0 2590 0 0 2575 0 0 2554 0 0 2487 0 0 2631 0 0 2498 0 0 2526 0 0 2505 0 0 1302 0 0 0 0 0 0 0 0 0 0 0 0 0 0 0 0 0 0 0 0 0 0 0 0 0 0 0 0 0 
0 0 0 0 0 0 0 0 0 0 0 0 0 0 0 0 0 0 0 0 0 0 0 0 0 0 0 0 0 0 1225 0 0 2509 0 0 2473 0 0 2562 0 0 2534 0 0 2532 0 0 2512 0 0 2655 0 0 2563 0 0 2554 0 0 2540 0 0 2613 0 0 2559 0 0 2460 0 0 2565 0 0 2521 0 0 2523 0 0 2558 0 0 2512 0 0 2542 0 0 2451 0 0 2582 0 0 2509 0 0 2565 0 0 2532 0 0 2546 0 0 2482 0 0 2488 0 0 2565 0 0 2505 0 0 2499 0 0 2572 0 0 2556 0 0 2498 0 0 2547 0 0 2562 0 0 2584 0 0 2534 0 0 2450 0 0 2489 0 0 1241 0 0 0 0 0 0 0 0 0 0 0 0 0 0 0 0 0 0 0 0 0 0 0 0 0 0 0 0 0 
0 0 0 0 0 0 0 0 0 0 0 0 0 0 0 0 0 0 0 0 0 0 0 0 0 0 0 0 0 0 1321 0 0 2573 0 0 2555 0 0 2501 0 0 2531 0 0 2595 0 0 2542 0 0 2701 0 0 2500 0 0 2543 0 0 2592 0 0 2521 0 0 2522 0 0 2566 0 0 2540 0 0 2606 0 0 2492 0 0 2508 0 0 2511 0 0 2520 0 0 2532 0 0 2580 0 0 2486 0 0 2485 0 0 2585 0 0 2594 0 0 2592 0 0 2600 0 0 2569 0 0 2475 0 0 2444 0 0 2505 0 0 2619 0 0 2576 0 0 2549 0 0 2452 0 0 2585 0 0 2517 0 0 2507 0 0 2523 0 0 1301 0 0 0 0 0 0 0 0 0 0 0 0 0 0 0 0 0 0 0 0 0 0 0 0 0 0 0 0 0 
0 0 0 0 0 0 0 0 0 0 0 0 0 0 0 0 0 0 0 0 0 0 0 0 0 0 0 0 0 0 1284 0 0 2606 0 0 2470 0 0 2523 0 0 2554 0 0 2589 0 0 2544 0 0 2521 0 0 2439 0 0 2482 0 0 2570 0 0 2541 0 0 2510 0 0 2626 0 0 2454 0 0 2491 0 0 2684 0 0 2582 0 0 2457 0 0 2645 0 0 2535 0 0 2529 0 0 2467 0 0 2593 0 0 2515 0 0 2564 0 0 2537 0 0 2565 0 0 2551 0 0 2563 0 0 2532 0 0 2693 0 0 2529 0 0 2545 0 0 2557 0 0 2645 0 0 2540 0 0 2503 0 0 2402 0 0 2485 0 0 1301 0 0 0 0 0 0 0 0 0 0 0 0 0 0 0 0 0 0 0 0 0 0 0 0 0 0 0 0 0 
0 0 0 0 0 0 0 0 0 0 0 0 0 0 0 0 0 0 0 0 0 0 0 0 0 0 0 0 0 0 1297 0 0 2467 0 0 2457 0 0 2586 0 0 2493 0 0 2541 0 0 2526 0 0 2464 0 0 2465 0 0 2510 0 0 2591 0 0 2482 0 0 2491 0 0 2426 0 0 2503 0 0 2550 0 0 2437 0 0 2481 0 0 2436 0 0 2610 0 0 2545 0 0 2552 0 0 2541 0 0 2523 0 0 2541 0 0 2552 0 0 2494 0 0 2546 0 0 2577 0 0 2548 0 0 2597 0 0 2561 0 0 2548 0 0 2471 0 0 2435 0 0 2529 0 0 2550 0 0 2523 0 0 2572 0 0 2557 0 0 1294 0 0 0 0 0 0 0 0 0 0 0 0 0 0 0 0 0 0 0 0 0 0 0 0 0 0 0 0 0 
0 0 0 0 0 0 0 0 0 0 0 0 0 0 0 0 0 0 0 0 0 0 0 0 0 0 0 0 0 0 1260 0 0 2556 0 0 2584 0 0 2524 0 0 2484 0 0 2469 0 0 2597 0 0 2493 0 0 2551 0 0 2492 0 0 2485 0 0 2581 0 0 2551 0 0 2488 0 0 2518 0 0 2576 0 0 2572 0 0 2477 0 0 2507 0 0 2601 0 0 2437 0 0 2564 0 0 2581 0 0 2502 0 0 2576 0 0 2591 0 0 2556 0 0 2557 0 0 2578 0 0 2608 0 0 2545 0 0 2563 0 0 2596 0 0 2545 0 0 2626 0 0 2562 0 0 2548 0 0 2511 0 0 2567 0 0 2535 0 0 1283 0 0 0 0 0 0 0 0 0 0 0 0 0 0 0 0 0 0 0 0 0 0 0 0 0 0 0 0 0 
0 0 0 0 0 0 0 0 0 0 0 0 0 0 0 0 0 0 0 0 0 0 0 0 0 0 0 0 0 0 1191 0 0 2511 0 0 2548 0 0 2550 0 0 2518 0 0 2569 0 0 2496 0 0 2522 0 0 2533 0 0 2537 0 0 2495 0 0 2575 0 0 2467 0 0 2488 0 0 2516 0 0 2523 0 0 2544 0 0 2604 0 0 2459 0 0 2489 0 0 2489 0 0 2612 0 0 2589 0 0 2554 0 0 2494 0 0 2585 0 0 2600 0 0 2578 0 0 2475 0 0 2574 0 0 2500 0 0 2520 0 0 2542 0 0 2550 0 0 2551 0 0 2554 0 0 2538 0 0 2467 0 0 2501 0 0 2513 0 0 1245 0 0 0 0 0 0 0 0 0 0 0 0 0 0 0 0 0 0 0 0 0 0 0 0 0 0 0 0 0 
0 0 0 0 0 0 0 0 0 0 0 0 0 0 0 0 0 0 0 0 0 0 0 0 0 0 0 0 0 0 1247 0 0 2583 0 0 2522 0 0 2469 0 0 2615 0 0 2513 0 0 2460 0 0 2582 0 0 2603 0 0 2639 0 0 2563 0 0 2474 0 0 2502 0 0 2572 0 0 2468 0 0 2556 0 0 2483 0 0 2568 0 0 2461 0 0 2521 0 0 2433 0 0 2650 0 0 2586 0 0 2610 0 0 2587 0 0 2573 0 0 2646 0 0 2562 0 0 2620 0 0 2562 0 0 2600 0 0 2586 0 0 2522 0 0 2523 0 0 2453 0 0 2524 0 0 2447 0 0 2560 0 0 2465 0 0 2517 0 0 1219 0 0 0 0 0 0 0 0 0 0 0 0 0 0 0 0 0 0 0 0 0 0 0 0 0 0 0 0 0 
0 0 0 0 0 0 0 0 0 0 0 0 0 0 0 0 0 0 0 0 0 0 0 0 0 0 0 0 0 0 1276 0 0 2502 0 0 2511 0 0 2534 0 0 2624 0 0 2513 0 0 2611 0 0 2600 0 0 2516 0 0 2594 0 0 2513 0 0 2578 0 0 2625 0 0 2525 0 0 2552 0 0 2504 0 0 2478 0 0 2564 0 0 2503 0 0 2510 0 0 2557 0 0 2515 0 0 2579 0 0 2588 0 0 2532 0 0 2504 0 0 2519 0 0 2458 0 0 2574 0 0 2503 0 0 2591 0 0 2520 0 0 2575 0 0 2615 0 0 2547 0 0 2504 0 0 2506 0 0 2624 0 0 2567 0 0 2581 0 0 1202 0 0 0 0 0 0 0 0 0 0 0 0 0 0 0 0 0 0 0 0 0 0 0 0 0 0 0 0 0 
0 0 0 0 0 0 0 0 0 0 0 0 0 0 0 0 0 0 0 0 0 0 0 0 0 0 0 0 0 0 1171 0 0 2559 0 0 2592 0 0 2482 0 0 2561 0 0 2530 0 0 2582 0 0 2455 0 0 2598 0 0 2578 0 0 2483 0 0 2580 0 0 2519 0 0 2554 0 0 2503 0 0 2626 0 0 2572 0 0 2487 0 0 2563 0 0 2558 0 0 2550 0 0 2545 0 0 2539 0 0 2588 0 0 2547 0 0 2574 0 0 2493 0 0 2456 0 0 2562 0 0 2581 0 0 2566 0 0 2601 0 0 2466 0 0 2559 0 0 2492 0 0 2535 0 0 2509 0 0 2470 0 0 2551 0 0 2565 0 0 1261 0 0 0 0 0 0 0 0 0 0 0 0 0 0 0 0 0 0 0 0 0 0 0 0 0 0 0 0 0 
0 0 0 0 0 0 0 0 0 0 0 0 0 0 0 0 0 0 0 0 0 0 0 0 0 0 0 0 0 0 1359 0 0 2537 0 0 2590 0 0 2469 0 0 2523 0 0 2516 0 0 2550 0 0 2485 0 0 2483 0 0 2487 0 0 2515 0 0 2493 0 0 2507 0 0 2571 0 0 2435 0 0 2550 0 0 2512 0 0 2576 0 0 2519 0 0 2458 0 0 2535 0 0 2471 0 0 2534 0 0 2556 0 0 2579 0 0 2557 0 0 2585 0 0 2578 0 0 2436 0 0 2549 0 0 2523 0 0 2492 0 0 2585 0 0 2493 0 0 2540 0 0 2535 0 0 2491 0 0 2520 0 0 2535 0 0 2489 0 0 1284 0 0 0 0 0 0 0 0 0 0 0 0 0 0 0 0 0 0 0 0 0 0 0 0 0 0 0 0 0 
0 0 0 0 0 0 0 0 0 0 0 0 0 0 0 0 0 0 0 0 0 0 0 0 0 0 0 0 0 0 1251 0 0 2587 0 0 2529 0 0 2465 0 0 2490 0 0 2464 0 0 2609 0 0 2527 0 0 2599 0 0 2547 0 0 2558 0 0 2561 0 0 2519 0 0 2471 0 0 2567 0 0 2545 0 0 2503 0 0 2546 0 0 2603 0 0 2458 0 0 2534 0 0 2529 0 0 2580 0 0 2480 0 0 2425 0 0 2467 0 0 2590 0 0 2581 0 0 2486 0 0 2575 0 0 2471 0 0 2544 0 0 2465 0 0 2562 0 0 2464 0 0 2500 0 0 2495 0 0 2507 0 0 2492 0 0 2510 0 0 1307 0 0 0 0 0 0 0 0 0 0 0 0 0 0 0 0 0 0 0 0 0 0 0 0 0 0 0 0 0 
0 0 0 0 0 0 0 0 0 0 0 0 0 0 0 0 0 0 0 0 0 0 0 0 0 0 0 0 0 0 1297 0 0 2501 0 0 2524 0 0 2400 0 0 2510 0 0 2583 0 0 2504 0 0 2527 0 0 2540 0 0 2600 0 0 2553 0 0 2491 0 0 2474 0 0 2506 0 0 2474 0 0 2451 0 0 2481 0 0 2557 0 0 2579 0 0 2489 0 0 2483 0 0 2602 0 0 2494 0 0 2473 0 0 2457 0 0 2546 0 0 2578 0 0 2534 0 0 2588 0 0 2585 0 0 2514 0 0 2540 0 0 2598 0 0 2568 0 0 2512 0 0 2543 0 0 2542 0 0 2532 0 0 2615 0 0 2590 0 0 1260 0 0 0 0 0 0 0 0 0 0 0 0 0 0 0 0 0 0 0 0 0 0 0 0 0 0 0 0 0 
0 0 0 0 0 0 0 0 0 0 0 0 0 0 0 0 0 0 0 0 0 0 0 0 0 0 0 0 0 0 1235 0 0 2528 0 0 2488 0 0 2603 0 0 2564 0 0 2535 0 0 2544 0 0 2448 0 0 2497 0 0 2566 0 0 2517 0 0 2517 0 0 2572 0 0 2570 0 0 2527 0 0 2517 0 0 2508 0 0 2470 0 0 2505 0 0 2520 0 0 2548 0 0 2591 0 0 2502 0 0 2590 0 0 2612 0 0 2560 0 0 2523 0 0 2576 0 0 2471 0 0 2531 0 0 2527 0 0 2568 0 0 2574 0 0 2569 0 0 2538 0 0 2514 0 0 2498 0 0 2537 0 0 2454 0 0 2507 0 0 1302 0 0 0 0 0 0 0 0 0 0 0 0 0 0 0 0 0 0 0 0 0 0 0 0 0 0 0 0 0 
0 0 0 0 0 0 0 0 0 0 0 0 0 0 0 0 0 0 0 0 0 0 0 0 0 0 0 0 0 0 1273 0 0 2545 0 0 2570 0 0 2478 0 0 2566 0 0 2589 0 0 2619 0 0 2469 0 0 2583 0 0 2507 0 0 2599 0 0 2538 0 0 2494 0 0 2526 0 0 2528 0 0 2617 0 0 2509 0 0 2643 0 0 2564 0 0 2500 0 0 2592 0 0 2538 0 0 2460 0 0 2651 0 0 2510 0 0 2549 0 0 2595 0 0 2612 0 0 2605 0 0 2614 0 0 2558 0 0 2513 0 0 2480 0 0 2536 0 0 2625 0 0 2462 0 0 2575 0 0 2580 0 0 2567 0 0 2500 0 0 1230 0 0 0 0 0 0 0 0 0 0 0 0 0 0 0 0 0 0 0 0 0 0 0 0 0 0 0 0 0 
0 0 0 0 0 0 0 0 0 0 0 0 0 0 0 0 0 0 0 0 0 0 0 0 0 0 0 0 0 0 1268 0 0 2524 0 0 2493 0 0 2532 0 0 2434 0 0 2506 0 0 2484 0 0 2573 0 0 2556 0 0 2504 0 0 2493 0 0 2571 0 0 2479 0 0 2536 0 0 2511 0 0 2545 0 0 2581 0 0 2457 0 0 2490 0 0 2583 0 0 2532 0 0 2549 0 0 2518 0 0 2504 0 0 2533 0 0 2600 0 0 2568 0 0 2548 0 0 2513 0 0 2592 0 0 2475 0 0 2619 0 0 2606 0 0 2600 0 0 2523 0 0 2562 0 0 2554 0 0 2549 0 0 2582 0 0 2651 0 0 1296 0 0 0 0 0 0 0 0 0 0 0 0 0 0 0 0 0 0 0 0 0 0 0 0 0 0 0 0 0 
0 0 0 0 0 0 0 0 0 0 0 0 0 0 0 0 0 0 0 0 0 0 0 0 0 0 0 0 0 0 1255 0 0 2552 0 0 2500 0 0 2535 0 0 2649 0 0 2546 0 0 2611 0 0 2440 0 0 2593 0 0 2546 0 0 2529 0 0 2484 0 0 2536 0 0 2504 0 0 2549 0 0 2621 0 0 2491 0 0 2526 0 0 2570 0 0 2570 0 0 2622 0 0 2585 0 0 2575 0 0 2483 0 0 2540 0 0 2580 0 0 2455 0 0 2553 0 0 2541 0 0 2561 0 0 2497 0 0 2548 0 0 2594 0 0 2449 0 0 2455 0 0 2541 0 0 2557 0 0 2533 0 0 2509 0 0 2432 0 0 1199 0 0 0 0 0 0 0 0 0 0 0 0 0 0 0 0 0 0 0 0 0 0 0 0 0 0 0 0 0 
0 0 0 0 0 0 0 0 0 0 0 0 0 0 0 0 0 0 0 0 0 0 0 0 0 0 0 0 0 0 1225 0 0 2568 0 0 2612 0 0 2497 0 0 2489 0 0 2583 0 0 2506 0 0 2524 0 0 2567 0 0 2516 0 0 2621 0 0 2538 0 0 2632 0 0 2575 0 0 2491 0 0 2617 0 0 2578 0 0 2430 0 0 2601 0 0 2529 0 0 2582 0 0 2578 0 0 2637 0 0 2517 0 0 2585 0 0 2541 0 0 2520 0 0 2530 0 0 2495 0 0 2454 0 0 2542 0 0 2583 0 0 2467 0 0 2485 0 0 2584 0 0 2629 0 0 2532 0 0 2529 0 0 2618 0 0 2460 0 0 1212 0 0 0 0 0 0 0 0 0 0 0 0 0 0 0 0 0 0 0 0 0 0 0 0 0 0 0 0 0 
0 0 0 0 0 0 0 0 0 0 0 0 0 0 0 0 0 0 0 0 0 0 0 0 0 0 0 0 0 0 1259 0 0 2520 0 0 2561 0 0 2557 0 0 2550 0 0 2557 0 0 2644 0 0 2556 0 0 2528 0 0 2499 0 0 2650 0 0 2606 0 0 2521 0 0 2540 0 0 2413 0 0 2456 0 0 2556 0 0 2492 0 0 2494 0 0 2563 0 0 2498 0 0 2560 0 0 2500 0 0 2513 0 0 2569 0 0 2478 0 0 2567 0 0 2603 0 0 2537 0 0 2528 0 0 2596 0 0 2577 0 0 2558 0 0 2458 0 0 2553 0 0 2464 0 0 2614 0 0 2568 0 0 2623 0 0 2624 0 0 1227 0 0 0 0 0 0 0 0 0 0 0 0 0 0 0 0 0 0 0 0 0 0 0 0 0 0 0 0 0 
0 0 0 0 0 0 0 0 0 0 0 0 0 0 0 0 0 0 0 0 0 0 0 0 0 0 0 0 0 0 1266 0 0 2519 0 0 2578 0 0 2421 0 0 2511 0 0 2570 0 0 2537 0 0 2517 0 0 2579 0 0 2566 0 0 2603 0 0 2580 0 0 2529 0 0 2521 0 0 2562 0 0 2508 0 0 2509 0 0 2497 0 0 2587 0 0 2562 0 0 2564 0 0 2525 0 0 2545 0 0 2564 0 0 2558 0 0 2506 0 0 2453 0 0 2535 0 0 2513 0 0 2537 0 0 2457 0 0 2533 0 0 2480 0 0 2488 0 0 2641 0 0 2574 0 0 2635 0 0 2569 0 0 2545 0 0 2604 0 0 1272 0 0 0 0 0 0 0 0 0 0 0 0 0 0 0 0 0 0 0 0 0 0 0 0 0 0 0 0 0 
0 0 0 0 0 0 0 0 0 0 0 0 0 0 0 0 0 0 0 0 0 0 0 0 0 0 0 0 0 0 1344 0 0 2513 0 0 2539 0 0 2491 0 0 2613 0 0 2564 0 0 2411 0 0 2573 0 0 2542 0 0 2551 0 0 2499 0 0 2508 0 0 2494 0 0 2604 0 0 2552 0 0 2515 0 0 2533 0 0 2456 0 0 2579 0 0 2534 0 0 2528 0 0 2532 0 0 2555 0 0 2568 0 0 2499 0 0 2527 0 0 2532 0 0 2484 0 0 2587 0 0 2550 0 0 2546 0 0 2621 0 0 2589 0 0 2588 0 0 2469 0 0 2661 0 0 2509 0 0 2587 0 0 2503 0 0 2495 0 0 1200 0 0 0 0 0 0 0 0 0 0 0 0 0 0 0 0 0 0 0 0 0 0 0 0 0 0 0 0 0 
0 0 0 0 0 0 0 0 0 0 0 0 0 0 0 0 0 0 0 0 0 0 0 0 0 0 0 0 0 0 1267 0 0 2473 0 0 2488 0 0 2692 0 0 2510 0 0 2473 0 0 2493 0 0 2546 0 0 2575 0 0 2535 0 0 2440 0 0 2599 0 0 2583 0 0 2565 0 0 2558 0 0 2512 0 0 2533 0 0 2582 0 0 2490 0 0 2503 0 0 2529 0 0 2620 0 0 2568 0 0 2574 0 0 2556 0 0 2593 0 0 2554 0 0 2515 0 0 2407 0 0 2471 0 0 2563 0 0 2569 0 0 2495 0 0 2493 0 0 2561 0 0 2569 0 0 2502 0 0 2547 0 0 2562 0 0 2567 0 0 1337 0 0 0 0 0 0 0 0 0 0 0 0 0 0 0 0 0 0 0 0 0 0 0 0 0 0 0 0 0 
0 0 0 0 0 0 0 0 0 0 0 0 0 0 0 0 0 0 0 0 0 0 0 0 0 0 0 0 0 0 1285 0 0 2580 0 0 2589 0 0 2544 0 0 2471 0 0 2526 0 0 2571 0 0 2576 0 0 2536 0 0 2450 0 0 2534 0 0 2568 0 0 2528 0 0 2562 0 0 2547 0 0 2516 0 0 2483 0 0 2507 0 0 2590 0 0 2601 0 0 2496 0 0 2432 0 0 2519 0 0 2527 0 0 2473 0 0 2562 0 0 2519 0 0 2525 0 0 2532 0 0 2522 0 0 2503 0 0 2546 0 0 2558 0 0 2608 0 0 2480 0 0 2540 0 0 2544 0 0 2482 0 0 2547 0 0 2552 0 0 1306 0 0 0 0 0 0 0 0 0 0 0 0 0 0 0 0 0 0 0 0 0 0 0 0 0 0 0 0 0 
0 0 0 0 0 0 0 0 0 0 0 0 0 0 0 0 0 0 0 0 0 0 0 0 0 0 0 0 0 0 1385 0 0 2454 0 0 2545 0 0 2524 0 0 2613 0 0 2497 0 0 2592 0 0 2496 0 0 2447 0 0 2482 0 0 2441 0 0 2527 0 0 2479 0 0 2481 0 0 2541 0 0 2610 0 0 2583 0 0 2625 0 0 2482 0 0 2634 0 0 2556 0 0 2412 0 0 2587 0 0 2551 0 0 2480 0 0 2468 0 0 2516 0 0 2556 0 0 2628 0 0 2658 0 0 2519 0 0 2522 0 0 2528 0 0 2540 0 0 2518 0 0 2472 0 0 2572 0 0 2594 0 0 2535 0 0 2563 0 0 1294 0 0 0 0 0 0 0 0 0 0 0 0 0 0 0 0 0 0 0 0 0 0 0 0 0 0 0 0 0 
0 0 0 0 0 0 0 0 0 0 0 0 0 0 0 0 0 0 0 0 0 0 0 0 0 0 0 0 0 0 1265 0 0 2504 0 0 2550 0 0 2452 0 0 2522 0 0 2547 0 0 2417 0 0 2493 0 0 2504 0 0 2562 0 0 2531 0 0 2568 0 0 2523 0 0 2514 0 0 2496 0 0 2510 0 0 2543 0 0 2516 0 0 2474 0 0 2409 0 0 2547 0 0 2564 0 0 2475 0 0 2538 0 0 2524 0 0 2491 0 0 2516 0 0 2521 0 0 2560 0 0 2590 0 0 2530 0 0 2524 0 0 2609 0 0 2553 0 0 2544 0 0 2530 0 0 2564 0 0 2530 0 0 2554 0 0 2585 0 0 1267 0 0 0 0 0 0 0 0 0 0 0 0 0 0 0 0 0 0 0 0 0 0 0 0 0 0 0 0 0 
0 0 0 0 0 0 0 0 0 0 0 0 0 0 0 0 0 0 0 0 0 0 0 0 0 0 0 0 0 0 1252 0 0 2596 0 0 2492 0 0 2525 0 0 2492 0 0 2522 0 0 2644 0 0 2576 0 0 2520 0 0 2591 0 0 2541 0 0 2605 0 0 2522 0 0 2574 0 0 2577 0 0 2461 0 0 2558 0 0 2607 0 0 2512 0 0 2553 0 0 2564 0 0 2480 0 0 2508 0 0 2563 0 0 2513 0 0 2650 0 0 2575 0 0 2564 0 0 2579 0 0 2499 0 0 2465 0 0 2579 0 0 2588 0 0 2576 0 0 2565 0 0 2532 0 0 2578 0 0 2479 0 0 2589 0 0 2579 0 0 1237 0 0 0 0 0 0 0 0 0 0 0 0 0 0 0 0 0 0 0 0 0 0 0 0 0 0 0 0 0 
0 0 0 0 0 0 0 0 0 0 0 0 0 0 0 0 0 0 0 0 0 0 0 0 0 0 0 0 0 0 1247 0 0 2646 0 0 2557 0 0 2566 0 0 2532 0 0 2518 0 0 2544 0 0 2516 0 0 2516 0 0 2567 0 0 2555 0 0 2560 0 0 2500 0 0 2590 0 0 2533 0 0 2579 0 0 2541 0 0 2565 0 0 2478 0 0 2562 0 0 2563 0 0 2544 0 0 2536 0 0 2465 0 0 2444 0 0 2491 0 0 2554 0 0 2444 0 0 2582 0 0 2506 0 0 2505 0 0 2581 0 0 2531 0 0 2530 0 0 2518 0 0 2567 0 0 2494 0 0 2542 0 0 2519 0 0 2480 0 0 1199 0 0 0 0 0 0 0 0 0 0 0 0 0 0 0 0 0 0 0 0 0 0 0 0 0 0 0 0 0 
0 0 0 0 0 0 0 0 0 0 0 0 0 0 0 0 0 0 0 0 0 0 0 0 0 0 0 0 0 0 1297 0 0 2568 0 0 2502 0 0 2548 0 0 2530 0 0 2490 0 0 2568 0 0 2467 0 0 2529 0 0 2556 0 0 2540 0 0 2478 0 0 2441 0 0 2553 0 0 2506 0 0 2524 0 0 2531 0 0 2556 0 0 2612 0 0 2454 0 0 2553 0 0 2608 0 0 2507 0 0 2535 0 0 2505 0 0 2491 0 0 2517 0 0 2580 0 0 2563 0 0 2549 0 0 2548 0 0 2551 0 0 2550 0 0 2505 0 0 2480 0 0 2535 0 0 2504 0 0 2586 0 0 2594 0 0 2408 0 0 1274 0 0 0 0 0 0 0 0 0 0 0 0 0 0 0 0 0 0 0 0 0 0 0 0 0 0 0 0 0 
0 0 0 0 0 0 0 0 0 0 0 0 0 0 0 0 0 0 0 0 0 0 0 0 0 0 0 0 0 0 1258 0 0 2525 0 0 2530 0 0 2562 0 0 2541 0 0 2523 0 0 2550 0 0 2531 0 0 2561 0 0 2526 0 0 2542 0 0 2502 0 0 2619 0 0 2536 0 0 2591 0 0 2604 0 0 2628 0 0 2490 0 0 2548 0 0 2650 0 0 2654 0 0 2548 0 0 2566 0 0 2507 0 0 2624 0 0 2521 0 0 2471 0 0 2593 0 0 2466 0 0 2562 0 0 2532 0 0 2481 0 0 2602 0 0 2531 0 0 2510 0 0 2490 0 0 2526 0 0 2526 0 0 2530 0 0 2516 0 0 1303 0 0 0 0 0 0 0 0 0 0 0 0 0 0 0 0 0 0 0 0 0 0 0 0 0 0 0 0 0 
0 0 0 0 0 0 0 0 0 0 0 0 0 0 0 0 0 0 0 0 0 0 0 0 0 0 0 0 0 0 1275 0 0 2519 0 0 2522 0 0 2562 0 0 2556 0 0 2540 0 0 2439 0 0 2571 0 0 2504 0 0 2464 0 0 2639 0 0 2505 0 0 2589 0 0 2518 0 0 2439 0 0 2534 0 0 2585 0 0 2499 0 0 2535 0 0 2471 0 0 2585 0 0 2467 0 0 2542 0 0 2465 0 0 2510 0 0 2618 0 0 2617 0 0 2550 0 0 2537 0 0 2498 0 0 2492 0 0 2551 0 0 2574 0 0 2563 0 0 2601 0 0 2529 0 0 2554 0 0 2567 0 0 2595 0 0 2614 0 0 1228 0 0 0 0 0 0 0 0 0 0 0 0 0 0 0 0 0 0 0 0 0 0 0 0 0 0 0 0 0 
0 0 0 0 0 0 0 0 0 0 0 0 0 0 0 0 0 0 0 0 0 0 0 0 0 0 0 0 0 0 1273 0 0 2612 0 0 2587 0 0 2621 0 0 2464 0 0 2527 0 0 2482 0 0 2540 0 0 2551 0 0 2505 0 0 2494 0 0 2494 0 0 2586 0 0 2485 0 0 2572 0 0 2490 0 0 2630 0 0 2606 0 0 2531 0 0 2601 0 0 2599 0 0 2623 0 0 2484 0 0 2469 0 0 2561 0 0 2458 0 0 2558 0 0 2553 0 0 2533 0 0 2562 0 0 2691 0 0 2511 0 0 2506 0 0 2492 0 0 2532 0 0 2469 0 0 2553 0 0 2575 0 0 2500 0 0 2506 0 0 1274 0 0 0 0 0 0 0 0 0 0 0 0 0 0 0 0 0 0 0 0 0 0 0 0 0 0 0 0 0 
0 0 0 0 0 0 0 0 0 0 0 0 0 0 0 0 0 0 0 0 0 0 0 0 0 0 0 0 0 0 1270 0 0 2476 0 0 2448 0 0 2478 0 0 2542 0 0 2533 0 0 2460 0 0 2513 0 0 2588 0 0 2483 0 0 2462 0 0 2534 0 0 2564 0 0 2508 0 0 2536 0 0 2526 0 0 2467 0 0 2593 0 0 2543 0 0 2621 0 0 2574 0 0 2492 0 0 2498 0 0 2487 0 0 2603 0 0 2541 0 0 2449 0 0 2470 0 0 2531 0 0 2519 0 0 2508 0 0 2532 0 0 2532 0 0 2564 0 0 2568 0 0 2490 0 0 2587 0 0 2579 0 0 2471 0 0 2574 0 0 1249 0 0 0 0 0 0 0 0 0 0 0 0 0 0 0 0 0 0 0 0 0 0 0 0 0 0 0 0 0 
0 0 0 0 0 0 0 0 0 0 0 0 0 0 0 0 0 0 0 0 0 0 0 0 0 0 0 0 0 0 1326 0 0 2509 0 0 2502 0 0 2541 0 0 2487 0 0 2521 0 0 2500 0 0 2694 0 0 2474 0 0 2603 0 0 2568 0 0 2509 0 0 2514 0 0 2551 0 0 2581 0 0 2427 0 0 2598 0 0 2510 0 0 2533 0 0 2458 0 0 2532 0 0 2516 0 0 2497 0 0 2608 0 0 2553 0 0 2552 0 0 2450 0 0 2564 0 0 2604 0 0 2493 0 0 2552 0 0 2581 0 0 2542 0 0 2519 0 0 2505 0 0 2557 0 0 2627 0 0 2545 0 0 2528 0 0 2626 0 0 1233 0 0 0 0 0 0 0 0 0 0 0 0 0 0 0 0 0 0 0 0 0 0 0 0 0 0 0 0 0 
0 0 0 0 0 0 0 0 0 0 0 0 0 0 0 0 0 0 0 0 0 0 0 0 0 0 0 0 0 0 1284 0 0 2485 0 0 2502 0 0 2472 0 0 2608 0 0 2471 0 0 2573 0 0 2507 0 0 2585 0 0 2521 0 0 2525 0 0 2597 0 0 2483 0 0 2507 0 0 2516 0 0 2547 0 0 2514 0 0 2538 0 0 2488 0 0 2480 0 0 2495 0 0 2599 0 0 2550 0 0 2529 0 0 2532 0 0 2498 0 0 2598 0 0 2527 0 0 2616 0 0 2538 0 0 2603 0 0 2568 0 0 2597 0 0 2613 0 0 2602 0 0 2508 0 0 2460 0 0 2616 0 0 2532 0 0 2527 0 0 1310 0 0 0 0 0 0 0 0 0 0 0 0 0 0 0 0 0 0 0 0 0 0 0 0 0 0 0 0 0 
0 0 0 0 0 0 0 0 0 0 0 0 0 0 0 0 0 0 0 0 0 0 0 0 0 0 0 0 0 0 605 0 0 1323 0 0 1197 0 0 1347 0 0 1259 0 0 1280 0 0 1247 0 0 1249 0 0 1236 0 0 1261 0 0 1278 0 0 1312 0 0 1279 0 0 1221 0 0 1252 0 0 1241 0 0 1261 0 0 1260 0 0 1314 0 0 1320 0 0 1264 0 0 1296 0 0 1223 0 0 1291 0 0 1263 0 0 1294 0 0 1197 0 0 1304 0 0 1231 0 0 1315 0 0 1244 0 0 1248 0 0 1275 0 0 1159 0 0 1210 0 0 1244 0 0 1313 0 0 1207 0 0 1260 0 0 1281 0 0 660 0 0 0 0 0 0 0 0 0 0 0 0 0 0 0 0 0 0 0 0 0 0 0 0 0 0 0 0 0 
0 0 0 0 0 0 0 0 0 0 0 0 0 0 0 0 0 0 0 0 0 0 0 0 0 0 0 0 0 0 0 0 0 0 0 0 0 0 0 0 0 0 0 0 0 0 0 0 0 0 0 0 0 0 0 0 0 0 0 0 0 0 0 0 0 0 0 0 0 0 0 0 0 0 0 0 0 0 0 0 0 0 0 0 0 0 0 0 0 0 0 0 0 0 0 0 0 0 0 0 0 0 0 0 0 0 0 0 0 0 0 0 0 0 0 0 0 0 0 0 0 0 0 0 0 0 0 0 0 0 0 0 0 0 0 0 0 0 0 0 0 0 0 0 0 0 0 0 0 0 0 0 0 0 0 0 0 0 0 0 0 0 0 0 0 0 0 0 0 0 0 0 0 0 0 0 0 0 0 0 
0 0 0 0 0 0 0 0 0 0 0 0 0 0 0 0 0 0 0 0 0 0 0 0 0 0 0 0 0 0 0 0 0 0 0 0 0 0 0 0 0 0 0 0 0 0 0 0 0 0 0 0 0 0 0 0 0 0 0 0 0 0 0 0 0 0 0 0 0 0 0 0 0 0 0 0 0 0 0 0 0 0 0 0 0 0 0 0 0 0 0 0 0 0 0 0 0 0 0 0 0 0 0 0 0 0 0 0 0 0 0 0 0 0 0 0 0 0 0 0 0 0 0 0 0 0 0 0 0 0 0 0 0 0 0 0 0 0 0 0 0 0 0 0 0 0 0 0 0 0 0 0 0 0 0 0 0 0 0 0 0 0 0 0 0 0 0 0 0 0 0 0 0 0 0 0 0 0 0 0 
0 0 0 0 0 0 0 0 0 0 0 0 0 0 0 0 0 0 0 0 0 0 0 0 0 0 0 0 0 0 0 0 0 0 0 0 0 0 0 0 0 0 0 0 0 0 0 0 0 0 0 0 0 0 0 0 0 0 0 0 0 0 0 0 0 0 0 0 0 0 0 0 0 0 0 0 0 0 0 0 0 0 0 0 0 0 0 0 0 0 0 0 0 0 0 0 0 0 0 0 0 0 0 0 0 0 0 0 0 0 0 0 0 0 0 0 0 0 0 0 0 0 0 0 0 0 0 0 0 0 0 0 0 0 0 0 0 0 0 0 0 0 0 0 0 0 0 0 0 0 0 0 0 0 0 0 0 0 0 0 0 0 0 0 0 0 0 0 0 0 0 0 0 0 0 0 0 0 0 0 
0 0 0 0 0 0 0 0 0 0 0 0 0 0 0 0 0 0 0 0 0 0 0 0 0 0 0 0 0 0 0 0 0 0 0 0 0 0 0 0 0 0 0 0 0 0 0 0 0 0 0 0 0 0 0 0 0 0 0 0 0 0 0 0 0 0 0 0 0 0 0 0 0 0 0 0 0 0 0 0 0 0 0 0 0 0 0 0 0 0 0 0 0 0 0 0 0 0 0 0 0 0 0 0 0 0 0 0 0 0 0 0 0 0 0 0 0 0 0 0 0 0 0 0 0 0 0 0 0 0 0 0 0 0 0 0 0 0 0 0 0 0 0 0 0 0 0 0 0 0 0 0 0 0 0 0 0 0 0 0 0 0 0 0 0 0 0 0 0 0 0 0 0 0 0 0 0 0 0 0 
0 0 0 0 0 0 0 0 0 0 0 0 0 0 0 0 0 0 0 0 0 0 0 0 0 0 0 0 0 0 0 0 0 0 0 0 0 0 0 0 0 0 0 0 0 0 0 0 0 0 0 0 0 0 0 0 0 0 0 0 0 0 0 0 0 0 0 0 0 0 0 0 0 0 0 0 0 0 0 0 0 0 0 0 0 0 0 0 0 0 0 0 0 0 0 0 0 0 0 0 0 0 0 0 0 0 0 0 0 0 0 0 0 0 0 0 0 0 0 0 0 0 0 0 0 0 0 0 0 0 0 0 0 0 0 0 0 0 0 0 0 0 0 0 0 0 0 0 0 0 0 0 0 0 0 0 0 0 0 0 0 0 0 0 0 0 0 0 0 0 0 0 0 0 0 0 0 0 0 0 
0 0 0 0 0 0 0 0 0 0 0 0 0 0 0 0 0 0 0 0 0 0 0 0 0 0 0 0 0 0 0 0 0 0 0 0 0 0 0 0 0 0 0 0 0 0 0 0 0 0 0 0 0 0 0 0 0 0 0 0 0 0 0 0 0 0 0 0 0 0 0 0 0 0 0 0 0 0 0 0 0 0 0 0 0 0 0 0 0 0 0 0 0 0 0 0 0 0 0 0 0 0 0 0 0 0 0 0 0 0 0 0 0 0 0 0 0 0 0 0 0 0 0 0 0 0 0 0 0 0 0 0 0 0 0 0 0 0 0 0 0 0 0 0 0 0 0 0 0 0 0 0 0 0 0 0 0 0 0 0 0 0 0 0 0 0 0 0 0 0 0 0 0 0 0 0 0 0 0 0 
0 0 0 0 0 0 0 0 0 0 0 0 0 0 0 0 0 0 0 0 0 0 0 0 0 0 0 0 0 0 0 0 0 0 0 0 0 0 0 0 0 0 0 0 0 0 0 0 0 0 0 0 0 0 0 0 0 0 0 0 0 0 0 0 0 0 0 0 0 0 0 0 0 0 0 0 0 0 0 0 0 0 0 0 0 0 0 0 0 0 0 0 0 0 0 0 0 0 0 0 0 0 0 0 0 0 0 0 0 0 0 0 0 0 0 0 0 0 0 0 0 0 0 0 0 0 0 0 0 0 0 0 0 0 0 0 0 0 0 0 0 0 0 0 0 0 0 0 0 0 0 0 0 0 0 0 0 0 0 0 0 0 0 0 0 0 0 0 0 0 0 0 0 0 0 0 0 0 0 0 
0 0 0 0 0 0 0 0 0 0 0 0 0 0 0 0 0 0 0 0 0 0 0 0 0 0 0 0 0 0 0 0 0 0 0 0 0 0 0 0 0 0 0 0 0 0 0 0 0 0 0 0 0 0 0 0 0 0 0 0 0 0 0 0 0 0 0 0 0 0 0 0 0 0 0 0 0 0 0 0 0 0 0 0 0 0 0 0 0 0 0 0 0 0 0 0 0 0 0 0 0 0 0 0 0 0 0 0 0 0 0 0 0 0 0 0 0 0 0 0 0 0 0 0 0 0 0 0 0 0 0 0 0 0 0 0 0 0 0 0 0 0 0 0 0 0 0 0 0 0 0 0 0 0 0 0 0 0 0 0 0 0 0 0 0 0 0 0 0 0 0 0 0 0 0 0 0 0 0 0 
0 0 0 0 0 0 0 0 0 0 0 0 0 0 0 0 0 0 0 0 0 0 0 0 0 0 0 0 0 0 0 0 0 0 0 0 0 0 0 0 0 0 0 0 0 0 0 0 0 0 0 0 0 0 0 0 0 0 0 0 0 0 0 0 0 0 0 0 0 0 0 0 0 0 0 0 0 0 0 0 0 0 0 0 0 0 0 0 0 0 0 0 0 0 0 0 0 0 0 0 0 0 0 0 0 0 0 0 0 0 0 0 0 0 0 0 0 0 0 0 0 0 0 0 0 0 0 0 0 0 0 0 0 0 0 0 0 0 0 0 0 0 0 0 0 0 0 0 0 0 0 0 0 0 0 0 0 0 0 0 0 0 0 0 0 0 0 0 0 0 0 0 0 0 0 0 0 0 0 0 
