P3
# This is a dose file slice at depth 55 of 100
60 60
# now we give the maximum value of the RGB coordinates.
34334
0 0 0 0 0 0 0 0 0 0 0 0 0 0 0 0 0 0 0 0 0 0 0 0 0 0 0 0 0 0 0 0 0 0 0 0 0 0 0 0 0 0 0 0 0 0 0 0 0 0 0 0 0 0 0 0 0 0 0 0 0 0 0 0 0 0 0 0 0 0 0 0 0 0 0 0 0 0 0 0 0 0 0 0 0 0 0 0 0 0 0 0 0 0 0 0 0 0 0 0 0 0 0 0 0 0 0 0 0 0 0 0 0 0 0 0 0 0 0 0 0 0 0 0 0 0 0 0 0 0 0 0 0 0 0 0 0 0 0 0 0 0 0 0 0 0 0 0 0 0 0 0 0 0 0 0 0 0 0 0 0 0 0 0 0 0 0 0 0 0 0 0 0 0 0 0 0 0 0 0 
0 0 0 0 0 0 0 0 0 0 0 0 0 0 0 0 0 0 0 0 0 0 0 0 0 0 0 0 0 0 0 0 0 0 0 0 0 0 0 0 0 0 0 0 0 0 0 0 0 0 0 0 0 0 0 0 0 0 0 0 0 0 0 0 0 0 0 0 0 0 0 0 0 0 0 0 0 0 0 0 0 0 0 0 0 0 0 0 0 0 0 0 0 0 0 0 0 0 0 0 0 0 0 0 0 0 0 0 0 0 0 0 0 0 0 0 0 0 0 0 0 0 0 0 0 0 0 0 0 0 0 0 0 0 0 0 0 0 0 0 0 0 0 0 0 0 0 0 0 0 0 0 0 0 0 0 0 0 0 0 0 0 0 0 0 0 0 0 0 0 0 0 0 0 0 0 0 0 0 0 
0 0 0 0 0 0 0 0 0 0 0 0 0 0 0 0 0 0 0 0 0 0 0 0 0 0 0 0 0 0 0 0 0 0 0 0 0 0 0 0 0 0 0 0 0 0 0 0 0 0 0 0 0 0 0 0 0 0 0 0 0 0 0 0 0 0 0 0 0 0 0 0 0 0 0 0 0 0 0 0 0 0 0 0 0 0 0 0 0 0 0 0 0 0 0 0 0 0 0 0 0 0 0 0 0 0 0 0 0 0 0 0 0 0 0 0 0 0 0 0 0 0 0 0 0 0 0 0 0 0 0 0 0 0 0 0 0 0 0 0 0 0 0 0 0 0 0 0 0 0 0 0 0 0 0 0 0 0 0 0 0 0 0 0 0 0 0 0 0 0 0 0 0 0 0 0 0 0 0 0 
0 0 0 0 0 0 0 0 0 0 0 0 0 0 0 0 0 0 0 0 0 0 0 0 0 0 0 0 0 0 0 0 0 0 0 0 0 0 0 0 0 0 0 0 0 0 0 0 0 0 0 0 0 0 0 0 0 0 0 0 0 0 0 0 0 0 0 0 0 0 0 0 0 0 0 0 0 0 0 0 0 0 0 0 0 0 0 0 0 0 0 0 0 0 0 0 0 0 0 0 0 0 0 0 0 0 0 0 0 0 0 0 0 0 0 0 0 0 0 0 0 0 0 0 0 0 0 0 0 0 0 0 0 0 0 0 0 0 0 0 0 0 0 0 0 0 0 0 0 0 0 0 0 0 0 0 0 0 0 0 0 0 0 0 0 0 0 0 0 0 0 0 0 0 0 0 0 0 0 0 
0 0 0 0 0 0 0 0 0 0 0 0 0 0 0 0 0 0 0 0 0 0 0 0 0 0 0 0 0 0 0 0 0 0 0 0 0 0 0 0 0 0 0 0 0 0 0 0 0 0 0 0 0 0 0 0 0 0 0 0 0 0 0 0 0 0 0 0 0 0 0 0 0 0 0 0 0 0 0 0 0 0 0 0 0 0 0 0 0 0 0 0 0 0 0 0 0 0 0 0 0 0 0 0 0 0 0 0 0 0 0 0 0 0 0 0 0 0 0 0 0 0 0 0 0 0 0 0 0 0 0 0 0 0 0 0 0 0 0 0 0 0 0 0 0 0 0 0 0 0 0 0 0 0 0 0 0 0 0 0 0 0 0 0 0 0 0 0 0 0 0 0 0 0 0 0 0 0 0 0 
0 0 0 0 0 0 0 0 0 0 0 0 0 0 0 0 0 0 0 0 0 0 0 0 0 0 0 0 0 0 0 0 0 0 0 0 0 0 0 0 0 0 0 0 0 0 0 0 0 0 0 0 0 0 0 0 0 0 0 0 0 0 0 0 0 0 0 0 0 0 0 0 0 0 0 0 0 0 0 0 0 0 0 0 0 0 0 0 0 0 0 0 0 0 0 0 0 0 0 0 0 0 0 0 0 0 0 0 0 0 0 0 0 0 0 0 0 0 0 0 0 0 0 0 0 0 0 0 0 0 0 0 0 0 0 0 0 0 0 0 0 0 0 0 0 0 0 0 0 0 0 0 0 0 0 0 0 0 0 0 0 0 0 0 0 0 0 0 0 0 0 0 0 0 0 0 0 0 0 0 
0 0 0 0 0 0 0 0 0 0 0 0 0 0 0 0 0 0 0 0 0 0 0 0 0 0 0 0 0 0 0 0 0 0 0 0 0 0 0 0 0 0 0 0 0 0 0 0 0 0 0 0 0 0 0 0 0 0 0 0 0 0 0 0 0 0 0 0 0 0 0 0 0 0 0 0 0 0 0 0 0 0 0 0 0 0 0 0 0 0 0 0 0 0 0 0 0 0 0 0 0 0 0 0 0 0 0 0 0 0 0 0 0 0 0 0 0 0 0 0 0 0 0 0 0 0 0 0 0 0 0 0 0 0 0 0 0 0 0 0 0 0 0 0 0 0 0 0 0 0 0 0 0 0 0 0 0 0 0 0 0 0 0 0 0 0 0 0 0 0 0 0 0 0 0 0 0 0 0 0 
0 0 0 0 0 0 0 0 0 0 0 0 0 0 0 0 0 0 0 0 0 0 0 0 0 0 0 0 0 0 0 0 0 0 0 0 0 0 0 0 0 0 0 0 0 0 0 0 0 0 0 0 0 0 0 0 0 0 0 0 0 0 0 0 0 0 0 0 0 0 0 0 0 0 0 0 0 0 0 0 0 0 0 0 0 0 0 0 0 0 0 0 0 0 0 0 0 0 0 0 0 0 0 0 0 0 0 0 0 0 0 0 0 0 0 0 0 0 0 0 0 0 0 0 0 0 0 0 0 0 0 0 0 0 0 0 0 0 0 0 0 0 0 0 0 0 0 0 0 0 0 0 0 0 0 0 0 0 0 0 0 0 0 0 0 0 0 0 0 0 0 0 0 0 0 0 0 0 0 0 
0 0 0 0 0 0 0 0 0 0 0 0 0 0 0 0 0 0 0 0 0 0 0 0 0 0 0 0 0 0 0 0 0 0 0 0 0 0 0 0 0 0 0 0 0 0 0 0 0 0 0 0 0 0 0 0 0 0 0 0 0 0 0 0 0 0 0 0 0 0 0 0 0 0 0 0 0 0 0 0 0 0 0 0 0 0 0 0 0 0 0 0 0 0 0 0 0 0 0 0 0 0 0 0 0 0 0 0 0 0 0 0 0 0 0 0 0 0 0 0 0 0 0 0 0 0 0 0 0 0 0 0 0 0 0 0 0 0 0 0 0 0 0 0 0 0 0 0 0 0 0 0 0 0 0 0 0 0 0 0 0 0 0 0 0 0 0 0 0 0 0 0 0 0 0 0 0 0 0 0 
0 0 0 0 0 0 0 0 0 0 0 0 0 0 0 0 0 0 0 0 0 0 0 0 0 0 0 0 0 0 0 0 0 0 0 0 0 0 0 0 0 0 0 0 0 0 0 0 0 0 0 0 0 0 0 0 0 0 0 0 0 0 0 0 0 0 0 0 0 0 0 0 0 0 0 0 0 0 0 0 0 0 0 0 0 0 0 0 0 0 0 0 0 0 0 0 0 0 0 0 0 0 0 0 0 0 0 0 0 0 0 0 0 0 0 0 0 0 0 0 0 0 0 0 0 0 0 0 0 0 0 0 0 0 0 0 0 0 0 0 0 0 0 0 0 0 0 0 0 0 0 0 0 0 0 0 0 0 0 0 0 0 0 0 0 0 0 0 0 0 0 0 0 0 0 0 0 0 0 0 
0 0 0 0 0 0 0 0 0 0 0 0 0 0 0 0 0 0 0 0 0 0 0 0 0 0 0 0 0 0 1747 0 0 3388 0 0 3372 0 0 3441 0 0 3441 0 0 3445 0 0 3397 0 0 3290 0 0 3378 0 0 3424 0 0 3353 0 0 3514 0 0 3345 0 0 3436 0 0 3327 0 0 3392 0 0 3360 0 0 3373 0 0 3359 0 0 3451 0 0 3438 0 0 3411 0 0 3419 0 0 3347 0 0 3355 0 0 3405 0 0 3403 0 0 3385 0 0 3422 0 0 3500 0 0 3395 0 0 3479 0 0 3384 0 0 3383 0 0 3569 0 0 3448 0 0 3313 0 0 3377 0 0 3364 0 0 3519 0 0 1691 0 0 0 0 0 0 0 0 0 0 0 0 0 0 0 0 0 0 0 0 0 0 0 0 0 0 0 0 0 
0 0 0 0 0 0 0 0 0 0 0 0 0 0 0 0 0 0 0 0 0 0 0 0 0 0 0 0 0 0 3336 0 0 6878 0 0 6683 0 0 6650 0 0 6760 0 0 6704 0 0 6868 0 0 6718 0 0 6840 0 0 6940 0 0 6785 0 0 6911 0 0 6791 0 0 6874 0 0 6926 0 0 6774 0 0 6760 0 0 6827 0 0 6763 0 0 6725 0 0 6685 0 0 6804 0 0 6784 0 0 6815 0 0 6903 0 0 6778 0 0 6735 0 0 6881 0 0 6840 0 0 6827 0 0 6865 0 0 6906 0 0 6904 0 0 6830 0 0 6662 0 0 6804 0 0 6875 0 0 6737 0 0 6935 0 0 6877 0 0 3444 0 0 0 0 0 0 0 0 0 0 0 0 0 0 0 0 0 0 0 0 0 0 0 0 0 0 0 0 0 
0 0 0 0 0 0 0 0 0 0 0 0 0 0 0 0 0 0 0 0 0 0 0 0 0 0 0 0 0 0 3429 0 0 6772 0 0 6859 0 0 6897 0 0 6858 0 0 6789 0 0 6906 0 0 6954 0 0 6721 0 0 6848 0 0 6881 0 0 6807 0 0 6780 0 0 6677 0 0 6907 0 0 7055 0 0 6732 0 0 6972 0 0 6857 0 0 6784 0 0 6740 0 0 6814 0 0 6731 0 0 6951 0 0 6763 0 0 6792 0 0 6689 0 0 6930 0 0 6999 0 0 6754 0 0 6842 0 0 6873 0 0 6858 0 0 6829 0 0 6737 0 0 6854 0 0 6852 0 0 6918 0 0 6953 0 0 6837 0 0 3440 0 0 0 0 0 0 0 0 0 0 0 0 0 0 0 0 0 0 0 0 0 0 0 0 0 0 0 0 0 
0 0 0 0 0 0 0 0 0 0 0 0 0 0 0 0 0 0 0 0 0 0 0 0 0 0 0 0 0 0 3494 0 0 6725 0 0 6979 0 0 6957 0 0 6879 0 0 6839 0 0 6783 0 0 6790 0 0 6806 0 0 6696 0 0 6855 0 0 6862 0 0 6824 0 0 6693 0 0 6882 0 0 6804 0 0 6795 0 0 6863 0 0 6695 0 0 6848 0 0 6860 0 0 6977 0 0 6828 0 0 6810 0 0 6760 0 0 6678 0 0 6674 0 0 6851 0 0 6638 0 0 6712 0 0 6638 0 0 6892 0 0 6761 0 0 6901 0 0 6917 0 0 6636 0 0 6790 0 0 6753 0 0 6835 0 0 6910 0 0 3293 0 0 0 0 0 0 0 0 0 0 0 0 0 0 0 0 0 0 0 0 0 0 0 0 0 0 0 0 0 
0 0 0 0 0 0 0 0 0 0 0 0 0 0 0 0 0 0 0 0 0 0 0 0 0 0 0 0 0 0 3354 0 0 6948 0 0 6566 0 0 6735 0 0 6709 0 0 6812 0 0 6824 0 0 6692 0 0 6893 0 0 6807 0 0 6736 0 0 6938 0 0 6852 0 0 6996 0 0 6830 0 0 6725 0 0 6786 0 0 6773 0 0 6909 0 0 6862 0 0 6873 0 0 6798 0 0 6822 0 0 6794 0 0 6639 0 0 6939 0 0 6752 0 0 6756 0 0 6858 0 0 6755 0 0 6874 0 0 6837 0 0 6835 0 0 6905 0 0 6792 0 0 6869 0 0 6707 0 0 6619 0 0 6721 0 0 6856 0 0 3440 0 0 0 0 0 0 0 0 0 0 0 0 0 0 0 0 0 0 0 0 0 0 0 0 0 0 0 0 0 
0 0 0 0 0 0 0 0 0 0 0 0 0 0 0 0 0 0 0 0 0 0 0 0 0 0 0 0 0 0 3329 0 0 6819 0 0 6744 0 0 6940 0 0 6831 0 0 6708 0 0 6771 0 0 6866 0 0 6767 0 0 6882 0 0 6784 0 0 6742 0 0 6850 0 0 6876 0 0 6769 0 0 6842 0 0 6883 0 0 6783 0 0 6800 0 0 6860 0 0 6873 0 0 6810 0 0 6708 0 0 6944 0 0 6785 0 0 6788 0 0 6614 0 0 6901 0 0 6782 0 0 6889 0 0 6785 0 0 6953 0 0 6915 0 0 6819 0 0 6821 0 0 6959 0 0 6860 0 0 6975 0 0 6807 0 0 6710 0 0 3462 0 0 0 0 0 0 0 0 0 0 0 0 0 0 0 0 0 0 0 0 0 0 0 0 0 0 0 0 0 
0 0 0 0 0 0 0 0 0 0 0 0 0 0 0 0 0 0 0 0 0 0 0 0 0 0 0 0 0 0 3417 0 0 6707 0 0 6734 0 0 6780 0 0 6903 0 0 6863 0 0 6840 0 0 6817 0 0 6924 0 0 6849 0 0 6683 0 0 6774 0 0 6734 0 0 6798 0 0 6819 0 0 6756 0 0 6745 0 0 6725 0 0 6808 0 0 6939 0 0 6715 0 0 6910 0 0 6842 0 0 7001 0 0 6776 0 0 6940 0 0 6749 0 0 6900 0 0 6754 0 0 6924 0 0 6744 0 0 6789 0 0 6817 0 0 6866 0 0 6928 0 0 6838 0 0 6688 0 0 6777 0 0 6916 0 0 6770 0 0 3434 0 0 0 0 0 0 0 0 0 0 0 0 0 0 0 0 0 0 0 0 0 0 0 0 0 0 0 0 0 
0 0 0 0 0 0 0 0 0 0 0 0 0 0 0 0 0 0 0 0 0 0 0 0 0 0 0 0 0 0 3475 0 0 6741 0 0 6639 0 0 6664 0 0 6895 0 0 6922 0 0 6865 0 0 6853 0 0 6638 0 0 6688 0 0 6787 0 0 6875 0 0 6729 0 0 6927 0 0 6825 0 0 6774 0 0 6817 0 0 6794 0 0 6691 0 0 6702 0 0 6886 0 0 7005 0 0 6806 0 0 6744 0 0 6909 0 0 6943 0 0 6818 0 0 6801 0 0 6827 0 0 6835 0 0 6888 0 0 6842 0 0 6863 0 0 6808 0 0 6795 0 0 6793 0 0 6756 0 0 6819 0 0 6949 0 0 6793 0 0 3492 0 0 0 0 0 0 0 0 0 0 0 0 0 0 0 0 0 0 0 0 0 0 0 0 0 0 0 0 0 
0 0 0 0 0 0 0 0 0 0 0 0 0 0 0 0 0 0 0 0 0 0 0 0 0 0 0 0 0 0 3345 0 0 6704 0 0 6942 0 0 6954 0 0 6885 0 0 6911 0 0 6797 0 0 6769 0 0 6805 0 0 6774 0 0 6871 0 0 6794 0 0 6572 0 0 6754 0 0 6857 0 0 6554 0 0 6836 0 0 6878 0 0 6818 0 0 6849 0 0 6724 0 0 6968 0 0 6858 0 0 6793 0 0 6818 0 0 6731 0 0 6843 0 0 6839 0 0 6704 0 0 6731 0 0 6739 0 0 6726 0 0 6740 0 0 6894 0 0 6906 0 0 6799 0 0 6775 0 0 6911 0 0 6854 0 0 6749 0 0 3368 0 0 0 0 0 0 0 0 0 0 0 0 0 0 0 0 0 0 0 0 0 0 0 0 0 0 0 0 0 
0 0 0 0 0 0 0 0 0 0 0 0 0 0 0 0 0 0 0 0 0 0 0 0 0 0 0 0 0 0 3402 0 0 6977 0 0 6875 0 0 6841 0 0 6616 0 0 6945 0 0 6869 0 0 6871 0 0 6755 0 0 6879 0 0 6685 0 0 6849 0 0 6864 0 0 6855 0 0 6893 0 0 6701 0 0 6729 0 0 6720 0 0 6661 0 0 6774 0 0 6806 0 0 6700 0 0 6910 0 0 6736 0 0 6927 0 0 6804 0 0 6771 0 0 6699 0 0 6862 0 0 6880 0 0 6918 0 0 6831 0 0 6772 0 0 6870 0 0 6880 0 0 6697 0 0 6818 0 0 6969 0 0 6756 0 0 6745 0 0 3506 0 0 0 0 0 0 0 0 0 0 0 0 0 0 0 0 0 0 0 0 0 0 0 0 0 0 0 0 0 
0 0 0 0 0 0 0 0 0 0 0 0 0 0 0 0 0 0 0 0 0 0 0 0 0 0 0 0 0 0 3426 0 0 6859 0 0 6868 0 0 6826 0 0 6747 0 0 6709 0 0 6869 0 0 6873 0 0 6843 0 0 6878 0 0 6867 0 0 6851 0 0 6751 0 0 6836 0 0 6946 0 0 6791 0 0 6838 0 0 6751 0 0 6850 0 0 6706 0 0 6760 0 0 6762 0 0 6767 0 0 6752 0 0 6917 0 0 6697 0 0 6916 0 0 6930 0 0 6811 0 0 6782 0 0 6729 0 0 6777 0 0 6799 0 0 6778 0 0 6814 0 0 6688 0 0 6820 0 0 6810 0 0 6795 0 0 6887 0 0 3456 0 0 0 0 0 0 0 0 0 0 0 0 0 0 0 0 0 0 0 0 0 0 0 0 0 0 0 0 0 
0 0 0 0 0 0 0 0 0 0 0 0 0 0 0 0 0 0 0 0 0 0 0 0 0 0 0 0 0 0 3454 0 0 6818 0 0 6779 0 0 6945 0 0 6846 0 0 6852 0 0 6752 0 0 6810 0 0 6876 0 0 6867 0 0 6801 0 0 6746 0 0 6774 0 0 6842 0 0 6867 0 0 6649 0 0 6885 0 0 6747 0 0 6870 0 0 6904 0 0 6988 0 0 6887 0 0 6742 0 0 6758 0 0 6725 0 0 6908 0 0 6762 0 0 6881 0 0 6738 0 0 6803 0 0 6772 0 0 6866 0 0 6828 0 0 6923 0 0 6799 0 0 6801 0 0 6897 0 0 6784 0 0 6942 0 0 6715 0 0 3418 0 0 0 0 0 0 0 0 0 0 0 0 0 0 0 0 0 0 0 0 0 0 0 0 0 0 0 0 0 
0 0 0 0 0 0 0 0 0 0 0 0 0 0 0 0 0 0 0 0 0 0 0 0 0 0 0 0 0 0 3325 0 0 6832 0 0 6844 0 0 6879 0 0 6823 0 0 6876 0 0 6903 0 0 6927 0 0 6792 0 0 6821 0 0 6854 0 0 6918 0 0 6868 0 0 6847 0 0 6875 0 0 6814 0 0 6749 0 0 6822 0 0 6793 0 0 6889 0 0 6845 0 0 6841 0 0 6847 0 0 6757 0 0 6715 0 0 6759 0 0 6868 0 0 6631 0 0 6827 0 0 6988 0 0 6788 0 0 6798 0 0 6786 0 0 6861 0 0 6830 0 0 6815 0 0 6771 0 0 6817 0 0 6737 0 0 6812 0 0 3440 0 0 0 0 0 0 0 0 0 0 0 0 0 0 0 0 0 0 0 0 0 0 0 0 0 0 0 0 0 
0 0 0 0 0 0 0 0 0 0 0 0 0 0 0 0 0 0 0 0 0 0 0 0 0 0 0 0 0 0 3436 0 0 6755 0 0 6725 0 0 6790 0 0 6905 0 0 6948 0 0 6922 0 0 6812 0 0 6736 0 0 6689 0 0 6835 0 0 6728 0 0 6653 0 0 6861 0 0 6679 0 0 6608 0 0 6710 0 0 6833 0 0 6832 0 0 6903 0 0 6801 0 0 6811 0 0 6755 0 0 6840 0 0 6766 0 0 6809 0 0 6927 0 0 6725 0 0 6821 0 0 6860 0 0 6981 0 0 6700 0 0 6924 0 0 6801 0 0 6748 0 0 6929 0 0 6813 0 0 6809 0 0 6779 0 0 6832 0 0 3386 0 0 0 0 0 0 0 0 0 0 0 0 0 0 0 0 0 0 0 0 0 0 0 0 0 0 0 0 0 
0 0 0 0 0 0 0 0 0 0 0 0 0 0 0 0 0 0 0 0 0 0 0 0 0 0 0 0 0 0 3401 0 0 6979 0 0 6764 0 0 6771 0 0 6894 0 0 6667 0 0 6871 0 0 6788 0 0 6885 0 0 6664 0 0 6812 0 0 6769 0 0 6756 0 0 6858 0 0 6787 0 0 6911 0 0 6761 0 0 6708 0 0 6872 0 0 6808 0 0 6931 0 0 6780 0 0 6731 0 0 6807 0 0 6754 0 0 6760 0 0 6764 0 0 6831 0 0 6945 0 0 6805 0 0 6798 0 0 6812 0 0 6819 0 0 6932 0 0 6856 0 0 6774 0 0 6742 0 0 6699 0 0 6757 0 0 6796 0 0 3468 0 0 0 0 0 0 0 0 0 0 0 0 0 0 0 0 0 0 0 0 0 0 0 0 0 0 0 0 0 
0 0 0 0 0 0 0 0 0 0 0 0 0 0 0 0 0 0 0 0 0 0 0 0 0 0 0 0 0 0 3415 0 0 6681 0 0 6741 0 0 6748 0 0 6771 0 0 6721 0 0 6665 0 0 6942 0 0 6902 0 0 6840 0 0 6907 0 0 6854 0 0 6817 0 0 7008 0 0 6937 0 0 6913 0 0 6824 0 0 6770 0 0 6743 0 0 6942 0 0 6671 0 0 6874 0 0 7015 0 0 6777 0 0 6720 0 0 6807 0 0 6824 0 0 6854 0 0 6765 0 0 6742 0 0 6722 0 0 6820 0 0 6907 0 0 6553 0 0 6747 0 0 6850 0 0 6781 0 0 6872 0 0 6825 0 0 6870 0 0 3435 0 0 0 0 0 0 0 0 0 0 0 0 0 0 0 0 0 0 0 0 0 0 0 0 0 0 0 0 0 
0 0 0 0 0 0 0 0 0 0 0 0 0 0 0 0 0 0 0 0 0 0 0 0 0 0 0 0 0 0 3514 0 0 6864 0 0 6798 0 0 6982 0 0 6963 0 0 6812 0 0 6866 0 0 6855 0 0 6768 0 0 6669 0 0 6991 0 0 6902 0 0 6788 0 0 6966 0 0 6731 0 0 6701 0 0 6863 0 0 6722 0 0 6875 0 0 6945 0 0 6792 0 0 6741 0 0 6886 0 0 6701 0 0 6922 0 0 6753 0 0 6963 0 0 6714 0 0 6799 0 0 6755 0 0 6686 0 0 6757 0 0 6718 0 0 6848 0 0 6743 0 0 6761 0 0 6959 0 0 6851 0 0 6823 0 0 6719 0 0 3426 0 0 0 0 0 0 0 0 0 0 0 0 0 0 0 0 0 0 0 0 0 0 0 0 0 0 0 0 0 
0 0 0 0 0 0 0 0 0 0 0 0 0 0 0 0 0 0 0 0 0 0 0 0 0 0 0 0 0 0 3354 0 0 6859 0 0 6691 0 0 6839 0 0 6885 0 0 6736 0 0 6671 0 0 6762 0 0 6814 0 0 6927 0 0 6810 0 0 6850 0 0 6842 0 0 6934 0 0 6733 0 0 6899 0 0 6880 0 0 6827 0 0 6935 0 0 6811 0 0 6964 0 0 6771 0 0 6847 0 0 6699 0 0 6945 0 0 6916 0 0 6857 0 0 6779 0 0 6802 0 0 6755 0 0 6677 0 0 6799 0 0 6623 0 0 6723 0 0 6884 0 0 6849 0 0 6861 0 0 6777 0 0 6855 0 0 6813 0 0 3445 0 0 0 0 0 0 0 0 0 0 0 0 0 0 0 0 0 0 0 0 0 0 0 0 0 0 0 0 0 
0 0 0 0 0 0 0 0 0 0 0 0 0 0 0 0 0 0 0 0 0 0 0 0 0 0 0 0 0 0 3444 0 0 6834 0 0 6839 0 0 6667 0 0 6793 0 0 6734 0 0 6633 0 0 6822 0 0 6578 0 0 6669 0 0 6736 0 0 6881 0 0 6900 0 0 6869 0 0 6658 0 0 6689 0 0 6817 0 0 6779 0 0 6829 0 0 6702 0 0 6703 0 0 6916 0 0 6746 0 0 6905 0 0 6836 0 0 6826 0 0 6794 0 0 6812 0 0 6970 0 0 6779 0 0 6790 0 0 6762 0 0 6740 0 0 6693 0 0 6840 0 0 6720 0 0 6794 0 0 6756 0 0 6879 0 0 6812 0 0 3461 0 0 0 0 0 0 0 0 0 0 0 0 0 0 0 0 0 0 0 0 0 0 0 0 0 0 0 0 0 
0 0 0 0 0 0 0 0 0 0 0 0 0 0 0 0 0 0 0 0 0 0 0 0 0 0 0 0 0 0 3453 0 0 6676 0 0 6724 0 0 6769 0 0 6869 0 0 6817 0 0 6885 0 0 6947 0 0 6843 0 0 6760 0 0 6840 0 0 6840 0 0 6801 0 0 6754 0 0 6700 0 0 6786 0 0 6859 0 0 6949 0 0 6749 0 0 6940 0 0 6879 0 0 6861 0 0 6664 0 0 6738 0 0 6864 0 0 6904 0 0 6938 0 0 6798 0 0 6917 0 0 6866 0 0 6794 0 0 6887 0 0 6871 0 0 6888 0 0 6820 0 0 6793 0 0 6807 0 0 6820 0 0 6874 0 0 6808 0 0 3411 0 0 0 0 0 0 0 0 0 0 0 0 0 0 0 0 0 0 0 0 0 0 0 0 0 0 0 0 0 
0 0 0 0 0 0 0 0 0 0 0 0 0 0 0 0 0 0 0 0 0 0 0 0 0 0 0 0 0 0 3365 0 0 6788 0 0 6815 0 0 6809 0 0 6834 0 0 6762 0 0 6828 0 0 6942 0 0 6876 0 0 6822 0 0 6775 0 0 6727 0 0 6675 0 0 6773 0 0 6722 0 0 6913 0 0 6897 0 0 6837 0 0 6762 0 0 6690 0 0 6674 0 0 6937 0 0 6745 0 0 6890 0 0 6882 0 0 6880 0 0 6733 0 0 6731 0 0 6942 0 0 6784 0 0 6779 0 0 6959 0 0 6948 0 0 6941 0 0 6911 0 0 6670 0 0 6754 0 0 6835 0 0 6869 0 0 6898 0 0 3411 0 0 0 0 0 0 0 0 0 0 0 0 0 0 0 0 0 0 0 0 0 0 0 0 0 0 0 0 0 
0 0 0 0 0 0 0 0 0 0 0 0 0 0 0 0 0 0 0 0 0 0 0 0 0 0 0 0 0 0 3406 0 0 6865 0 0 6702 0 0 6826 0 0 6765 0 0 6793 0 0 6805 0 0 6626 0 0 6907 0 0 6839 0 0 6871 0 0 6763 0 0 6794 0 0 6905 0 0 6887 0 0 6942 0 0 6734 0 0 6850 0 0 6817 0 0 6879 0 0 6916 0 0 6873 0 0 6710 0 0 6809 0 0 6757 0 0 6777 0 0 6768 0 0 6757 0 0 6772 0 0 6786 0 0 6715 0 0 6781 0 0 6763 0 0 6756 0 0 6896 0 0 6819 0 0 6788 0 0 7010 0 0 6944 0 0 6969 0 0 3440 0 0 0 0 0 0 0 0 0 0 0 0 0 0 0 0 0 0 0 0 0 0 0 0 0 0 0 0 0 
0 0 0 0 0 0 0 0 0 0 0 0 0 0 0 0 0 0 0 0 0 0 0 0 0 0 0 0 0 0 3340 0 0 6730 0 0 6821 0 0 6693 0 0 6705 0 0 6864 0 0 6903 0 0 6822 0 0 6882 0 0 6711 0 0 6779 0 0 6697 0 0 6840 0 0 6751 0 0 6893 0 0 6806 0 0 6814 0 0 6635 0 0 6795 0 0 6841 0 0 6825 0 0 7069 0 0 6730 0 0 6762 0 0 6683 0 0 6677 0 0 6655 0 0 6783 0 0 6854 0 0 6751 0 0 6805 0 0 6769 0 0 6862 0 0 6575 0 0 6844 0 0 6919 0 0 6779 0 0 6790 0 0 6845 0 0 6826 0 0 3384 0 0 0 0 0 0 0 0 0 0 0 0 0 0 0 0 0 0 0 0 0 0 0 0 0 0 0 0 0 
0 0 0 0 0 0 0 0 0 0 0 0 0 0 0 0 0 0 0 0 0 0 0 0 0 0 0 0 0 0 3324 0 0 6698 0 0 6671 0 0 6830 0 0 6774 0 0 6765 0 0 6852 0 0 6827 0 0 6699 0 0 6774 0 0 6767 0 0 6771 0 0 6824 0 0 6859 0 0 6853 0 0 6783 0 0 6784 0 0 6767 0 0 6722 0 0 6819 0 0 6857 0 0 6807 0 0 6865 0 0 6663 0 0 6937 0 0 6864 0 0 6676 0 0 6711 0 0 6821 0 0 6902 0 0 6718 0 0 6919 0 0 6730 0 0 6813 0 0 6748 0 0 6689 0 0 6774 0 0 6808 0 0 7127 0 0 6657 0 0 3318 0 0 0 0 0 0 0 0 0 0 0 0 0 0 0 0 0 0 0 0 0 0 0 0 0 0 0 0 0 
0 0 0 0 0 0 0 0 0 0 0 0 0 0 0 0 0 0 0 0 0 0 0 0 0 0 0 0 0 0 3441 0 0 6813 0 0 6758 0 0 6927 0 0 6821 0 0 6777 0 0 6885 0 0 6810 0 0 6856 0 0 6934 0 0 6894 0 0 6810 0 0 6954 0 0 6715 0 0 6738 0 0 6763 0 0 6772 0 0 6806 0 0 6945 0 0 6642 0 0 6756 0 0 6887 0 0 6816 0 0 6709 0 0 6857 0 0 6642 0 0 6883 0 0 6690 0 0 6813 0 0 6691 0 0 6841 0 0 6765 0 0 6805 0 0 6822 0 0 6742 0 0 6807 0 0 6827 0 0 6917 0 0 6714 0 0 6811 0 0 3295 0 0 0 0 0 0 0 0 0 0 0 0 0 0 0 0 0 0 0 0 0 0 0 0 0 0 0 0 0 
0 0 0 0 0 0 0 0 0 0 0 0 0 0 0 0 0 0 0 0 0 0 0 0 0 0 0 0 0 0 3503 0 0 6837 0 0 6770 0 0 6735 0 0 6807 0 0 6762 0 0 6776 0 0 6779 0 0 6656 0 0 6789 0 0 6846 0 0 6738 0 0 6738 0 0 6912 0 0 6886 0 0 6813 0 0 6886 0 0 6760 0 0 6701 0 0 6832 0 0 6766 0 0 6895 0 0 6720 0 0 6762 0 0 6723 0 0 6673 0 0 6792 0 0 6705 0 0 6730 0 0 7002 0 0 6746 0 0 6827 0 0 6752 0 0 6761 0 0 6787 0 0 6824 0 0 6993 0 0 6701 0 0 6855 0 0 6700 0 0 3329 0 0 0 0 0 0 0 0 0 0 0 0 0 0 0 0 0 0 0 0 0 0 0 0 0 0 0 0 0 
0 0 0 0 0 0 0 0 0 0 0 0 0 0 0 0 0 0 0 0 0 0 0 0 0 0 0 0 0 0 3513 0 0 6689 0 0 6762 0 0 6778 0 0 6853 0 0 6810 0 0 6836 0 0 6848 0 0 6756 0 0 6801 0 0 6846 0 0 6810 0 0 6766 0 0 6937 0 0 6990 0 0 6643 0 0 7040 0 0 6728 0 0 6950 0 0 6920 0 0 6689 0 0 6699 0 0 6774 0 0 6909 0 0 6827 0 0 6603 0 0 6645 0 0 6809 0 0 6680 0 0 6654 0 0 6756 0 0 6868 0 0 6738 0 0 6857 0 0 6862 0 0 6807 0 0 6680 0 0 6991 0 0 7013 0 0 6634 0 0 3448 0 0 0 0 0 0 0 0 0 0 0 0 0 0 0 0 0 0 0 0 0 0 0 0 0 0 0 0 0 
0 0 0 0 0 0 0 0 0 0 0 0 0 0 0 0 0 0 0 0 0 0 0 0 0 0 0 0 0 0 3370 0 0 6682 0 0 6852 0 0 6769 0 0 6861 0 0 6808 0 0 6896 0 0 6790 0 0 6788 0 0 6805 0 0 6769 0 0 6937 0 0 6854 0 0 6817 0 0 6862 0 0 6947 0 0 6966 0 0 6787 0 0 6935 0 0 6812 0 0 6867 0 0 6753 0 0 6768 0 0 6716 0 0 6940 0 0 6849 0 0 6838 0 0 6865 0 0 6917 0 0 6784 0 0 6922 0 0 6627 0 0 6841 0 0 6833 0 0 6837 0 0 6785 0 0 6889 0 0 6788 0 0 6964 0 0 6638 0 0 3441 0 0 0 0 0 0 0 0 0 0 0 0 0 0 0 0 0 0 0 0 0 0 0 0 0 0 0 0 0 
0 0 0 0 0 0 0 0 0 0 0 0 0 0 0 0 0 0 0 0 0 0 0 0 0 0 0 0 0 0 3328 0 0 6747 0 0 6883 0 0 6660 0 0 6784 0 0 6893 0 0 6738 0 0 6844 0 0 6710 0 0 6736 0 0 6839 0 0 6864 0 0 6750 0 0 6802 0 0 6901 0 0 6835 0 0 6832 0 0 6854 0 0 6865 0 0 6816 0 0 6808 0 0 6946 0 0 6771 0 0 6676 0 0 6831 0 0 6911 0 0 6681 0 0 6754 0 0 6822 0 0 6979 0 0 6723 0 0 6812 0 0 6847 0 0 6854 0 0 6861 0 0 6884 0 0 6721 0 0 6747 0 0 6903 0 0 6768 0 0 3379 0 0 0 0 0 0 0 0 0 0 0 0 0 0 0 0 0 0 0 0 0 0 0 0 0 0 0 0 0 
0 0 0 0 0 0 0 0 0 0 0 0 0 0 0 0 0 0 0 0 0 0 0 0 0 0 0 0 0 0 3440 0 0 6758 0 0 6759 0 0 6711 0 0 6645 0 0 6843 0 0 6846 0 0 6867 0 0 6829 0 0 6726 0 0 6739 0 0 6773 0 0 6705 0 0 6870 0 0 6724 0 0 6785 0 0 6901 0 0 6865 0 0 6818 0 0 6859 0 0 6717 0 0 6731 0 0 6832 0 0 6769 0 0 6855 0 0 6984 0 0 6819 0 0 6803 0 0 6847 0 0 6838 0 0 6651 0 0 6857 0 0 6792 0 0 6930 0 0 6883 0 0 6816 0 0 6919 0 0 6770 0 0 6781 0 0 6769 0 0 3387 0 0 0 0 0 0 0 0 0 0 0 0 0 0 0 0 0 0 0 0 0 0 0 0 0 0 0 0 0 
0 0 0 0 0 0 0 0 0 0 0 0 0 0 0 0 0 0 0 0 0 0 0 0 0 0 0 0 0 0 3362 0 0 6793 0 0 6902 0 0 6771 0 0 6856 0 0 6862 0 0 6891 0 0 6770 0 0 6988 0 0 6707 0 0 6813 0 0 6739 0 0 6762 0 0 6890 0 0 6790 0 0 6929 0 0 6798 0 0 6940 0 0 6654 0 0 6912 0 0 6778 0 0 6933 0 0 6869 0 0 6936 0 0 6643 0 0 6802 0 0 6845 0 0 6821 0 0 6871 0 0 6910 0 0 6788 0 0 6676 0 0 6910 0 0 6785 0 0 6783 0 0 6857 0 0 6751 0 0 7034 0 0 6815 0 0 6736 0 0 3348 0 0 0 0 0 0 0 0 0 0 0 0 0 0 0 0 0 0 0 0 0 0 0 0 0 0 0 0 0 
0 0 0 0 0 0 0 0 0 0 0 0 0 0 0 0 0 0 0 0 0 0 0 0 0 0 0 0 0 0 3355 0 0 6906 0 0 6829 0 0 6872 0 0 6801 0 0 6732 0 0 6657 0 0 6837 0 0 6739 0 0 6824 0 0 6886 0 0 6764 0 0 6830 0 0 6963 0 0 6896 0 0 6803 0 0 6901 0 0 6916 0 0 6637 0 0 6973 0 0 6956 0 0 6753 0 0 6974 0 0 6794 0 0 6697 0 0 6946 0 0 6832 0 0 6813 0 0 6831 0 0 6800 0 0 6886 0 0 6850 0 0 6864 0 0 6760 0 0 6727 0 0 6755 0 0 6867 0 0 6855 0 0 6716 0 0 6794 0 0 3331 0 0 0 0 0 0 0 0 0 0 0 0 0 0 0 0 0 0 0 0 0 0 0 0 0 0 0 0 0 
0 0 0 0 0 0 0 0 0 0 0 0 0 0 0 0 0 0 0 0 0 0 0 0 0 0 0 0 0 0 3432 0 0 6649 0 0 6792 0 0 6699 0 0 6727 0 0 6657 0 0 6872 0 0 6898 0 0 6959 0 0 6774 0 0 6825 0 0 6873 0 0 6859 0 0 6653 0 0 6899 0 0 6675 0 0 6843 0 0 6539 0 0 6737 0 0 6871 0 0 6808 0 0 6702 0 0 6733 0 0 6679 0 0 6791 0 0 6788 0 0 6773 0 0 6657 0 0 6773 0 0 6844 0 0 6827 0 0 6800 0 0 6952 0 0 6929 0 0 6734 0 0 6853 0 0 6686 0 0 7024 0 0 6970 0 0 6782 0 0 3420 0 0 0 0 0 0 0 0 0 0 0 0 0 0 0 0 0 0 0 0 0 0 0 0 0 0 0 0 0 
0 0 0 0 0 0 0 0 0 0 0 0 0 0 0 0 0 0 0 0 0 0 0 0 0 0 0 0 0 0 3476 0 0 6677 0 0 6872 0 0 6783 0 0 6711 0 0 6781 0 0 6717 0 0 6713 0 0 6870 0 0 6785 0 0 6703 0 0 6848 0 0 6839 0 0 6882 0 0 6734 0 0 6827 0 0 6864 0 0 6895 0 0 6710 0 0 6896 0 0 6726 0 0 6729 0 0 6747 0 0 6911 0 0 6825 0 0 6890 0 0 6760 0 0 6882 0 0 6777 0 0 6708 0 0 6812 0 0 6682 0 0 6883 0 0 6774 0 0 6849 0 0 6788 0 0 6797 0 0 6699 0 0 6759 0 0 6748 0 0 3413 0 0 0 0 0 0 0 0 0 0 0 0 0 0 0 0 0 0 0 0 0 0 0 0 0 0 0 0 0 
0 0 0 0 0 0 0 0 0 0 0 0 0 0 0 0 0 0 0 0 0 0 0 0 0 0 0 0 0 0 3412 0 0 6798 0 0 6811 0 0 6894 0 0 6992 0 0 6798 0 0 6877 0 0 6742 0 0 6752 0 0 6919 0 0 6844 0 0 6859 0 0 6790 0 0 6995 0 0 6857 0 0 6732 0 0 6905 0 0 6782 0 0 6810 0 0 6810 0 0 6784 0 0 6742 0 0 6758 0 0 6781 0 0 6955 0 0 7032 0 0 6914 0 0 6984 0 0 6846 0 0 6828 0 0 6614 0 0 6848 0 0 6965 0 0 6848 0 0 6802 0 0 6753 0 0 6709 0 0 6841 0 0 6815 0 0 6963 0 0 3356 0 0 0 0 0 0 0 0 0 0 0 0 0 0 0 0 0 0 0 0 0 0 0 0 0 0 0 0 0 
0 0 0 0 0 0 0 0 0 0 0 0 0 0 0 0 0 0 0 0 0 0 0 0 0 0 0 0 0 0 3415 0 0 6805 0 0 6840 0 0 6850 0 0 6655 0 0 6753 0 0 6983 0 0 6709 0 0 6773 0 0 6899 0 0 7046 0 0 6666 0 0 6746 0 0 6972 0 0 6782 0 0 6694 0 0 6898 0 0 6680 0 0 6744 0 0 6806 0 0 6715 0 0 6797 0 0 6751 0 0 6983 0 0 6775 0 0 6756 0 0 6799 0 0 6835 0 0 6812 0 0 6859 0 0 6756 0 0 6863 0 0 6759 0 0 6824 0 0 6847 0 0 6814 0 0 6933 0 0 6676 0 0 6890 0 0 6802 0 0 3421 0 0 0 0 0 0 0 0 0 0 0 0 0 0 0 0 0 0 0 0 0 0 0 0 0 0 0 0 0 
0 0 0 0 0 0 0 0 0 0 0 0 0 0 0 0 0 0 0 0 0 0 0 0 0 0 0 0 0 0 3310 0 0 6776 0 0 6882 0 0 6755 0 0 6845 0 0 6895 0 0 6713 0 0 6913 0 0 6794 0 0 6745 0 0 6876 0 0 6813 0 0 6970 0 0 7009 0 0 6807 0 0 6852 0 0 6886 0 0 6766 0 0 6938 0 0 6716 0 0 6781 0 0 6922 0 0 6740 0 0 6751 0 0 6754 0 0 6832 0 0 6731 0 0 6825 0 0 6734 0 0 6930 0 0 6745 0 0 6883 0 0 6716 0 0 6835 0 0 6856 0 0 6732 0 0 6802 0 0 6840 0 0 6762 0 0 6741 0 0 3416 0 0 0 0 0 0 0 0 0 0 0 0 0 0 0 0 0 0 0 0 0 0 0 0 0 0 0 0 0 
0 0 0 0 0 0 0 0 0 0 0 0 0 0 0 0 0 0 0 0 0 0 0 0 0 0 0 0 0 0 3452 0 0 6913 0 0 6919 0 0 6914 0 0 6875 0 0 6906 0 0 6924 0 0 6767 0 0 6827 0 0 6828 0 0 6811 0 0 6819 0 0 6741 0 0 6794 0 0 6756 0 0 6894 0 0 6690 0 0 6893 0 0 6888 0 0 6916 0 0 6872 0 0 6742 0 0 6822 0 0 7032 0 0 6809 0 0 6737 0 0 6744 0 0 6915 0 0 6945 0 0 6773 0 0 6855 0 0 6752 0 0 6781 0 0 6738 0 0 6799 0 0 6854 0 0 6795 0 0 6900 0 0 6826 0 0 6717 0 0 3481 0 0 0 0 0 0 0 0 0 0 0 0 0 0 0 0 0 0 0 0 0 0 0 0 0 0 0 0 0 
0 0 0 0 0 0 0 0 0 0 0 0 0 0 0 0 0 0 0 0 0 0 0 0 0 0 0 0 0 0 3370 0 0 6799 0 0 6823 0 0 6623 0 0 6798 0 0 6729 0 0 6817 0 0 6885 0 0 6692 0 0 6882 0 0 6800 0 0 6696 0 0 6749 0 0 6833 0 0 6728 0 0 6878 0 0 6809 0 0 6746 0 0 6855 0 0 6816 0 0 6785 0 0 6819 0 0 6773 0 0 6789 0 0 6835 0 0 6844 0 0 6800 0 0 6816 0 0 6800 0 0 6773 0 0 6866 0 0 6870 0 0 6811 0 0 6838 0 0 6867 0 0 6951 0 0 6796 0 0 6867 0 0 6913 0 0 6833 0 0 3373 0 0 0 0 0 0 0 0 0 0 0 0 0 0 0 0 0 0 0 0 0 0 0 0 0 0 0 0 0 
0 0 0 0 0 0 0 0 0 0 0 0 0 0 0 0 0 0 0 0 0 0 0 0 0 0 0 0 0 0 3353 0 0 6774 0 0 6664 0 0 6888 0 0 6834 0 0 6933 0 0 6805 0 0 6823 0 0 6802 0 0 6728 0 0 6857 0 0 6872 0 0 6938 0 0 6767 0 0 6717 0 0 6708 0 0 7069 0 0 6931 0 0 6803 0 0 6794 0 0 6828 0 0 6742 0 0 6781 0 0 6901 0 0 6684 0 0 6843 0 0 7021 0 0 7042 0 0 6791 0 0 6735 0 0 6790 0 0 6839 0 0 6706 0 0 6791 0 0 6865 0 0 6817 0 0 6917 0 0 6846 0 0 6871 0 0 6829 0 0 3247 0 0 0 0 0 0 0 0 0 0 0 0 0 0 0 0 0 0 0 0 0 0 0 0 0 0 0 0 0 
0 0 0 0 0 0 0 0 0 0 0 0 0 0 0 0 0 0 0 0 0 0 0 0 0 0 0 0 0 0 1718 0 0 3483 0 0 3388 0 0 3347 0 0 3453 0 0 3452 0 0 3415 0 0 3358 0 0 3483 0 0 3454 0 0 3488 0 0 3392 0 0 3382 0 0 3423 0 0 3404 0 0 3435 0 0 3469 0 0 3336 0 0 3485 0 0 3421 0 0 3401 0 0 3334 0 0 3464 0 0 3454 0 0 3360 0 0 3450 0 0 3485 0 0 3449 0 0 3481 0 0 3387 0 0 3390 0 0 3339 0 0 3444 0 0 3523 0 0 3476 0 0 3358 0 0 3462 0 0 3441 0 0 3392 0 0 3370 0 0 1637 0 0 0 0 0 0 0 0 0 0 0 0 0 0 0 0 0 0 0 0 0 0 0 0 0 0 0 0 0 
0 0 0 0 0 0 0 0 0 0 0 0 0 0 0 0 0 0 0 0 0 0 0 0 0 0 0 0 0 0 0 0 0 0 0 0 0 0 0 0 0 0 0 0 0 0 0 0 0 0 0 0 0 0 0 0 0 0 0 0 0 0 0 0 0 0 0 0 0 0 0 0 0 0 0 0 0 0 0 0 0 0 0 0 0 0 0 0 0 0 0 0 0 0 0 0 0 0 0 0 0 0 0 0 0 0 0 0 0 0 0 0 0 0 0 0 0 0 0 0 0 0 0 0 0 0 0 0 0 0 0 0 0 0 0 0 0 0 0 0 0 0 0 0 0 0 0 0 0 0 0 0 0 0 0 0 0 0 0 0 0 0 0 0 0 0 0 0 0 0 0 0 0 0 0 0 0 0 0 0 
0 0 0 0 0 0 0 0 0 0 0 0 0 0 0 0 0 0 0 0 0 0 0 0 0 0 0 0 0 0 0 0 0 0 0 0 0 0 0 0 0 0 0 0 0 0 0 0 0 0 0 0 0 0 0 0 0 0 0 0 0 0 0 0 0 0 0 0 0 0 0 0 0 0 0 0 0 0 0 0 0 0 0 0 0 0 0 0 0 0 0 0 0 0 0 0 0 0 0 0 0 0 0 0 0 0 0 0 0 0 0 0 0 0 0 0 0 0 0 0 0 0 0 0 0 0 0 0 0 0 0 0 0 0 0 0 0 0 0 0 0 0 0 0 0 0 0 0 0 0 0 0 0 0 0 0 0 0 0 0 0 0 0 0 0 0 0 0 0 0 0 0 0 0 0 0 0 0 0 0 
0 0 0 0 0 0 0 0 0 0 0 0 0 0 0 0 0 0 0 0 0 0 0 0 0 0 0 0 0 0 0 0 0 0 0 0 0 0 0 0 0 0 0 0 0 0 0 0 0 0 0 0 0 0 0 0 0 0 0 0 0 0 0 0 0 0 0 0 0 0 0 0 0 0 0 0 0 0 0 0 0 0 0 0 0 0 0 0 0 0 0 0 0 0 0 0 0 0 0 0 0 0 0 0 0 0 0 0 0 0 0 0 0 0 0 0 0 0 0 0 0 0 0 0 0 0 0 0 0 0 0 0 0 0 0 0 0 0 0 0 0 0 0 0 0 0 0 0 0 0 0 0 0 0 0 0 0 0 0 0 0 0 0 0 0 0 0 0 0 0 0 0 0 0 0 0 0 0 0 0 
0 0 0 0 0 0 0 0 0 0 0 0 0 0 0 0 0 0 0 0 0 0 0 0 0 0 0 0 0 0 0 0 0 0 0 0 0 0 0 0 0 0 0 0 0 0 0 0 0 0 0 0 0 0 0 0 0 0 0 0 0 0 0 0 0 0 0 0 0 0 0 0 0 0 0 0 0 0 0 0 0 0 0 0 0 0 0 0 0 0 0 0 0 0 0 0 0 0 0 0 0 0 0 0 0 0 0 0 0 0 0 0 0 0 0 0 0 0 0 0 0 0 0 0 0 0 0 0 0 0 0 0 0 0 0 0 0 0 0 0 0 0 0 0 0 0 0 0 0 0 0 0 0 0 0 0 0 0 0 0 0 0 0 0 0 0 0 0 0 0 0 0 0 0 0 0 0 0 0 0 
0 0 0 0 0 0 0 0 0 0 0 0 0 0 0 0 0 0 0 0 0 0 0 0 0 0 0 0 0 0 0 0 0 0 0 0 0 0 0 0 0 0 0 0 0 0 0 0 0 0 0 0 0 0 0 0 0 0 0 0 0 0 0 0 0 0 0 0 0 0 0 0 0 0 0 0 0 0 0 0 0 0 0 0 0 0 0 0 0 0 0 0 0 0 0 0 0 0 0 0 0 0 0 0 0 0 0 0 0 0 0 0 0 0 0 0 0 0 0 0 0 0 0 0 0 0 0 0 0 0 0 0 0 0 0 0 0 0 0 0 0 0 0 0 0 0 0 0 0 0 0 0 0 0 0 0 0 0 0 0 0 0 0 0 0 0 0 0 0 0 0 0 0 0 0 0 0 0 0 0 
0 0 0 0 0 0 0 0 0 0 0 0 0 0 0 0 0 0 0 0 0 0 0 0 0 0 0 0 0 0 0 0 0 0 0 0 0 0 0 0 0 0 0 0 0 0 0 0 0 0 0 0 0 0 0 0 0 0 0 0 0 0 0 0 0 0 0 0 0 0 0 0 0 0 0 0 0 0 0 0 0 0 0 0 0 0 0 0 0 0 0 0 0 0 0 0 0 0 0 0 0 0 0 0 0 0 0 0 0 0 0 0 0 0 0 0 0 0 0 0 0 0 0 0 0 0 0 0 0 0 0 0 0 0 0 0 0 0 0 0 0 0 0 0 0 0 0 0 0 0 0 0 0 0 0 0 0 0 0 0 0 0 0 0 0 0 0 0 0 0 0 0 0 0 0 0 0 0 0 0 
0 0 0 0 0 0 0 0 0 0 0 0 0 0 0 0 0 0 0 0 0 0 0 0 0 0 0 0 0 0 0 0 0 0 0 0 0 0 0 0 0 0 0 0 0 0 0 0 0 0 0 0 0 0 0 0 0 0 0 0 0 0 0 0 0 0 0 0 0 0 0 0 0 0 0 0 0 0 0 0 0 0 0 0 0 0 0 0 0 0 0 0 0 0 0 0 0 0 0 0 0 0 0 0 0 0 0 0 0 0 0 0 0 0 0 0 0 0 0 0 0 0 0 0 0 0 0 0 0 0 0 0 0 0 0 0 0 0 0 0 0 0 0 0 0 0 0 0 0 0 0 0 0 0 0 0 0 0 0 0 0 0 0 0 0 0 0 0 0 0 0 0 0 0 0 0 0 0 0 0 
0 0 0 0 0 0 0 0 0 0 0 0 0 0 0 0 0 0 0 0 0 0 0 0 0 0 0 0 0 0 0 0 0 0 0 0 0 0 0 0 0 0 0 0 0 0 0 0 0 0 0 0 0 0 0 0 0 0 0 0 0 0 0 0 0 0 0 0 0 0 0 0 0 0 0 0 0 0 0 0 0 0 0 0 0 0 0 0 0 0 0 0 0 0 0 0 0 0 0 0 0 0 0 0 0 0 0 0 0 0 0 0 0 0 0 0 0 0 0 0 0 0 0 0 0 0 0 0 0 0 0 0 0 0 0 0 0 0 0 0 0 0 0 0 0 0 0 0 0 0 0 0 0 0 0 0 0 0 0 0 0 0 0 0 0 0 0 0 0 0 0 0 0 0 0 0 0 0 0 0 
0 0 0 0 0 0 0 0 0 0 0 0 0 0 0 0 0 0 0 0 0 0 0 0 0 0 0 0 0 0 0 0 0 0 0 0 0 0 0 0 0 0 0 0 0 0 0 0 0 0 0 0 0 0 0 0 0 0 0 0 0 0 0 0 0 0 0 0 0 0 0 0 0 0 0 0 0 0 0 0 0 0 0 0 0 0 0 0 0 0 0 0 0 0 0 0 0 0 0 0 0 0 0 0 0 0 0 0 0 0 0 0 0 0 0 0 0 0 0 0 0 0 0 0 0 0 0 0 0 0 0 0 0 0 0 0 0 0 0 0 0 0 0 0 0 0 0 0 0 0 0 0 0 0 0 0 0 0 0 0 0 0 0 0 0 0 0 0 0 0 0 0 0 0 0 0 0 0 0 0 
