P3
# This is a dose file slice at depth 54 of 100
60 60
# now we give the maximum value of the RGB coordinates.
32965
1 0 0 1 0 0 1 0 0 1 0 0 1 0 0 1 0 0 0 0 0 3 0 0 1 0 0 2 0 0 1 0 0 4 0 0 2 0 0 3 0 0 1 0 0 3 0 0 2 0 0 0 0 0 1 0 0 0 0 0 4 0 0 2 0 0 2 0 0 3 0 0 1 0 0 2 0 0 3 0 0 4 0 0 0 0 0 3 0 0 2 0 0 2 0 0 3 0 0 0 0 0 1 0 0 3 0 0 2 0 0 2 0 0 1 0 0 4 0 0 2 0 0 2 0 0 3 0 0 1 0 0 2 0 0 2 0 0 0 0 0 0 0 0 1 0 0 2 0 0 1 0 0 1 0 0 0 0 0 0 0 0 1 0 0 1 0 0 0 0 0 0 0 0 0 0 0 0 0 0 
1 0 0 2 0 0 2 0 0 2 0 0 3 0 0 6 0 0 2 0 0 3 0 0 1 0 0 3 0 0 1 0 0 5 0 0 4 0 0 9 0 0 3 0 0 8 0 0 7 0 0 4 0 0 4 0 0 2 0 0 7 0 0 10 0 0 4 0 0 9 0 0 5 0 0 10 0 0 12 0 0 7 0 0 5 0 0 8 0 0 10 0 0 5 0 0 5 0 0 3 0 0 3 0 0 5 0 0 3 0 0 4 0 0 2 0 0 6 0 0 9 0 0 6 0 0 3 0 0 6 0 0 5 0 0 4 0 0 3 0 0 2 0 0 7 0 0 7 0 0 2 0 0 7 0 0 5 0 0 5 0 0 4 0 0 2 0 0 1 0 0 2 0 0 0 0 0 2 0 0 
1 0 0 1 0 0 2 0 0 3 0 0 4 0 0 2 0 0 2 0 0 4 0 0 1 0 0 2 0 0 1 0 0 6 0 0 5 0 0 12 0 0 9 0 0 6 0 0 5 0 0 3 0 0 4 0 0 9 0 0 6 0 0 7 0 0 8 0 0 10 0 0 5 0 0 3 0 0 7 0 0 5 0 0 11 0 0 6 0 0 5 0 0 12 0 0 7 0 0 2 0 0 5 0 0 6 0 0 3 0 0 2 0 0 11 0 0 4 0 0 11 0 0 1 0 0 4 0 0 5 0 0 6 0 0 8 0 0 3 0 0 3 0 0 7 0 0 7 0 0 1 0 0 5 0 0 3 0 0 4 0 0 2 0 0 0 0 0 1 0 0 3 0 0 2 0 0 4 0 0 
0 0 0 1 0 0 2 0 0 2 0 0 1 0 0 5 0 0 2 0 0 2 0 0 4 0 0 5 0 0 2 0 0 7 0 0 5 0 0 12 0 0 8 0 0 11 0 0 7 0 0 7 0 0 7 0 0 2 0 0 6 0 0 9 0 0 10 0 0 7 0 0 9 0 0 6 0 0 7 0 0 8 0 0 10 0 0 7 0 0 7 0 0 10 0 0 9 0 0 3 0 0 5 0 0 4 0 0 4 0 0 6 0 0 5 0 0 7 0 0 5 0 0 6 0 0 11 0 0 7 0 0 8 0 0 7 0 0 3 0 0 4 0 0 11 0 0 3 0 0 3 0 0 6 0 0 5 0 0 3 0 0 1 0 0 1 0 0 3 0 0 6 0 0 5 0 0 3 0 0 
0 0 0 0 0 0 2 0 0 2 0 0 6 0 0 1 0 0 3 0 0 2 0 0 7 0 0 5 0 0 6 0 0 6 0 0 6 0 0 8 0 0 8 0 0 7 0 0 9 0 0 12 0 0 6 0 0 1 0 0 7 0 0 6 0 0 11 0 0 11 0 0 6 0 0 9 0 0 9 0 0 6 0 0 10 0 0 10 0 0 8 0 0 5 0 0 12 0 0 6 0 0 8 0 0 5 0 0 9 0 0 10 0 0 4 0 0 8 0 0 8 0 0 7 0 0 16 0 0 9 0 0 9 0 0 4 0 0 1 0 0 5 0 0 12 0 0 4 0 0 5 0 0 4 0 0 4 0 0 5 0 0 4 0 0 1 0 0 1 0 0 3 0 0 2 0 0 2 0 0 
0 0 0 3 0 0 2 0 0 2 0 0 4 0 0 6 0 0 4 0 0 2 0 0 4 0 0 9 0 0 6 0 0 10 0 0 9 0 0 9 0 0 8 0 0 8 0 0 12 0 0 7 0 0 10 0 0 9 0 0 6 0 0 4 0 0 8 0 0 15 0 0 12 0 0 12 0 0 9 0 0 7 0 0 12 0 0 16 0 0 4 0 0 7 0 0 10 0 0 10 0 0 11 0 0 9 0 0 10 0 0 8 0 0 6 0 0 8 0 0 12 0 0 12 0 0 8 0 0 9 0 0 10 0 0 5 0 0 6 0 0 8 0 0 6 0 0 1 0 0 4 0 0 4 0 0 3 0 0 3 0 0 2 0 0 2 0 0 1 0 0 0 0 0 4 0 0 8 0 0 
2 0 0 1 0 0 2 0 0 3 0 0 6 0 0 5 0 0 6 0 0 3 0 0 5 0 0 7 0 0 3 0 0 10 0 0 10 0 0 8 0 0 12 0 0 12 0 0 10 0 0 11 0 0 9 0 0 9 0 0 3 0 0 6 0 0 7 0 0 18 0 0 15 0 0 13 0 0 15 0 0 22 0 0 11 0 0 11 0 0 12 0 0 10 0 0 14 0 0 9 0 0 9 0 0 17 0 0 6 0 0 12 0 0 7 0 0 13 0 0 16 0 0 12 0 0 8 0 0 12 0 0 15 0 0 6 0 0 10 0 0 7 0 0 9 0 0 3 0 0 3 0 0 3 0 0 5 0 0 3 0 0 4 0 0 4 0 0 1 0 0 0 0 0 4 0 0 3 0 0 
2 0 0 9 0 0 3 0 0 8 0 0 4 0 0 7 0 0 9 0 0 10 0 0 7 0 0 8 0 0 7 0 0 10 0 0 9 0 0 11 0 0 8 0 0 13 0 0 12 0 0 13 0 0 12 0 0 12 0 0 11 0 0 7 0 0 14 0 0 13 0 0 12 0 0 13 0 0 22 0 0 21 0 0 15 0 0 12 0 0 10 0 0 12 0 0 26 0 0 12 0 0 6 0 0 19 0 0 21 0 0 14 0 0 16 0 0 11 0 0 16 0 0 12 0 0 11 0 0 14 0 0 11 0 0 13 0 0 17 0 0 11 0 0 11 0 0 10 0 0 7 0 0 8 0 0 7 0 0 4 0 0 3 0 0 2 0 0 1 0 0 2 0 0 4 0 0 0 0 0 
0 0 0 2 0 0 6 0 0 6 0 0 11 0 0 8 0 0 9 0 0 11 0 0 9 0 0 8 0 0 12 0 0 15 0 0 17 0 0 17 0 0 13 0 0 20 0 0 22 0 0 22 0 0 16 0 0 13 0 0 16 0 0 11 0 0 20 0 0 12 0 0 18 0 0 16 0 0 22 0 0 23 0 0 18 0 0 15 0 0 14 0 0 14 0 0 23 0 0 20 0 0 14 0 0 17 0 0 15 0 0 11 0 0 14 0 0 13 0 0 18 0 0 16 0 0 16 0 0 24 0 0 13 0 0 11 0 0 10 0 0 14 0 0 15 0 0 13 0 0 11 0 0 11 0 0 6 0 0 5 0 0 5 0 0 2 0 0 0 0 0 3 0 0 2 0 0 3 0 0 
1 0 0 2 0 0 4 0 0 4 0 0 10 0 0 10 0 0 4 0 0 8 0 0 11 0 0 14 0 0 45 0 0 68 0 0 80 0 0 73 0 0 81 0 0 87 0 0 71 0 0 74 0 0 69 0 0 88 0 0 69 0 0 71 0 0 78 0 0 84 0 0 96 0 0 91 0 0 82 0 0 84 0 0 80 0 0 84 0 0 86 0 0 80 0 0 88 0 0 74 0 0 87 0 0 89 0 0 75 0 0 82 0 0 71 0 0 82 0 0 62 0 0 68 0 0 75 0 0 76 0 0 77 0 0 73 0 0 72 0 0 73 0 0 84 0 0 71 0 0 50 0 0 13 0 0 8 0 0 8 0 0 4 0 0 1 0 0 4 0 0 6 0 0 3 0 0 5 0 0 
1 0 0 1 0 0 3 0 0 3 0 0 4 0 0 8 0 0 5 0 0 7 0 0 8 0 0 35 0 0 2515 0 0 4976 0 0 4898 0 0 4948 0 0 4872 0 0 4891 0 0 4878 0 0 4888 0 0 4882 0 0 4824 0 0 4902 0 0 5009 0 0 4985 0 0 4936 0 0 4824 0 0 4936 0 0 4801 0 0 4860 0 0 4925 0 0 4907 0 0 4893 0 0 4925 0 0 4892 0 0 4892 0 0 4957 0 0 4919 0 0 4881 0 0 4943 0 0 4982 0 0 5020 0 0 4978 0 0 4945 0 0 4839 0 0 4859 0 0 4976 0 0 5059 0 0 4750 0 0 4830 0 0 4799 0 0 4898 0 0 2473 0 0 39 0 0 9 0 0 4 0 0 7 0 0 9 0 0 5 0 0 5 0 0 5 0 0 6 0 0 
1 0 0 1 0 0 1 0 0 2 0 0 3 0 0 7 0 0 11 0 0 12 0 0 9 0 0 68 0 0 4871 0 0 9768 0 0 9676 0 0 9545 0 0 9728 0 0 9701 0 0 9758 0 0 9626 0 0 9690 0 0 9892 0 0 9818 0 0 9748 0 0 9711 0 0 9771 0 0 9868 0 0 9876 0 0 9689 0 0 9641 0 0 9847 0 0 9679 0 0 9684 0 0 9706 0 0 9795 0 0 9691 0 0 9891 0 0 9709 0 0 9669 0 0 9870 0 0 9764 0 0 9917 0 0 9784 0 0 9646 0 0 9759 0 0 9686 0 0 9677 0 0 9736 0 0 9795 0 0 9823 0 0 9851 0 0 9657 0 0 4927 0 0 70 0 0 14 0 0 8 0 0 7 0 0 6 0 0 7 0 0 4 0 0 5 0 0 7 0 0 
1 0 0 4 0 0 4 0 0 6 0 0 8 0 0 6 0 0 11 0 0 12 0 0 12 0 0 70 0 0 4921 0 0 9763 0 0 9939 0 0 9828 0 0 9807 0 0 9868 0 0 9866 0 0 9792 0 0 9685 0 0 9748 0 0 9773 0 0 9762 0 0 9781 0 0 9671 0 0 9797 0 0 9890 0 0 9808 0 0 9782 0 0 9864 0 0 9786 0 0 9905 0 0 9889 0 0 9915 0 0 9925 0 0 9978 0 0 9800 0 0 9959 0 0 9886 0 0 9813 0 0 9917 0 0 9768 0 0 9724 0 0 9863 0 0 9868 0 0 9803 0 0 9842 0 0 9917 0 0 9915 0 0 10021 0 0 9786 0 0 4797 0 0 53 0 0 4 0 0 12 0 0 12 0 0 8 0 0 7 0 0 6 0 0 3 0 0 3 0 0 
1 0 0 2 0 0 3 0 0 0 0 0 6 0 0 13 0 0 17 0 0 11 0 0 18 0 0 69 0 0 4936 0 0 9750 0 0 9984 0 0 9836 0 0 9901 0 0 9714 0 0 9857 0 0 9875 0 0 9677 0 0 9812 0 0 9813 0 0 9940 0 0 9841 0 0 9819 0 0 9893 0 0 9891 0 0 9848 0 0 9939 0 0 9809 0 0 9786 0 0 9750 0 0 9985 0 0 9778 0 0 9859 0 0 9698 0 0 9754 0 0 9666 0 0 9880 0 0 9750 0 0 9902 0 0 9717 0 0 9801 0 0 9730 0 0 9879 0 0 9842 0 0 9732 0 0 9775 0 0 9799 0 0 9886 0 0 9750 0 0 4994 0 0 78 0 0 12 0 0 12 0 0 8 0 0 3 0 0 4 0 0 5 0 0 5 0 0 5 0 0 
1 0 0 7 0 0 6 0 0 5 0 0 3 0 0 5 0 0 7 0 0 10 0 0 12 0 0 87 0 0 4856 0 0 9687 0 0 9616 0 0 9711 0 0 9822 0 0 9762 0 0 9652 0 0 9784 0 0 9930 0 0 9853 0 0 9725 0 0 9893 0 0 9801 0 0 9968 0 0 9893 0 0 9643 0 0 9878 0 0 9827 0 0 9816 0 0 9870 0 0 9889 0 0 9833 0 0 9923 0 0 9819 0 0 9658 0 0 9954 0 0 9794 0 0 9795 0 0 9944 0 0 9918 0 0 9669 0 0 9806 0 0 9889 0 0 9826 0 0 9798 0 0 9913 0 0 9859 0 0 9464 0 0 9724 0 0 9813 0 0 4926 0 0 75 0 0 16 0 0 16 0 0 10 0 0 4 0 0 5 0 0 3 0 0 8 0 0 2 0 0 
2 0 0 5 0 0 5 0 0 4 0 0 4 0 0 2 0 0 7 0 0 8 0 0 11 0 0 65 0 0 4874 0 0 9644 0 0 9738 0 0 9821 0 0 9852 0 0 9725 0 0 9785 0 0 9984 0 0 9900 0 0 9912 0 0 9901 0 0 9860 0 0 9817 0 0 9886 0 0 9774 0 0 9806 0 0 9661 0 0 9892 0 0 9711 0 0 9903 0 0 9842 0 0 9875 0 0 9653 0 0 9799 0 0 9869 0 0 9927 0 0 9812 0 0 9857 0 0 9804 0 0 9904 0 0 9811 0 0 9981 0 0 9867 0 0 9899 0 0 9691 0 0 9933 0 0 9964 0 0 9805 0 0 9828 0 0 9636 0 0 4868 0 0 73 0 0 23 0 0 12 0 0 10 0 0 7 0 0 6 0 0 8 0 0 3 0 0 1 0 0 
1 0 0 4 0 0 3 0 0 5 0 0 3 0 0 8 0 0 8 0 0 9 0 0 14 0 0 67 0 0 4819 0 0 9640 0 0 9788 0 0 9905 0 0 9792 0 0 9903 0 0 9902 0 0 9828 0 0 9888 0 0 9861 0 0 9700 0 0 9725 0 0 9870 0 0 9900 0 0 9881 0 0 9758 0 0 9926 0 0 9914 0 0 9862 0 0 9933 0 0 9806 0 0 9904 0 0 9723 0 0 9920 0 0 9755 0 0 9809 0 0 9930 0 0 9794 0 0 9867 0 0 9934 0 0 9872 0 0 9834 0 0 9929 0 0 9860 0 0 9846 0 0 9809 0 0 9819 0 0 9795 0 0 9836 0 0 9712 0 0 4974 0 0 76 0 0 20 0 0 11 0 0 10 0 0 5 0 0 7 0 0 7 0 0 1 0 0 4 0 0 
2 0 0 5 0 0 6 0 0 6 0 0 9 0 0 6 0 0 5 0 0 4 0 0 15 0 0 70 0 0 4941 0 0 9665 0 0 9902 0 0 9684 0 0 9635 0 0 9781 0 0 9715 0 0 9833 0 0 9850 0 0 9832 0 0 9858 0 0 9836 0 0 9838 0 0 9923 0 0 9732 0 0 9817 0 0 9751 0 0 9862 0 0 9772 0 0 9904 0 0 9937 0 0 9715 0 0 9762 0 0 9702 0 0 9965 0 0 9981 0 0 9929 0 0 9840 0 0 9907 0 0 10007 0 0 9745 0 0 9790 0 0 10031 0 0 9761 0 0 9991 0 0 9778 0 0 9679 0 0 9755 0 0 9816 0 0 9651 0 0 4960 0 0 78 0 0 22 0 0 14 0 0 13 0 0 12 0 0 8 0 0 4 0 0 7 0 0 6 0 0 
4 0 0 6 0 0 7 0 0 9 0 0 5 0 0 10 0 0 6 0 0 14 0 0 17 0 0 80 0 0 4874 0 0 9861 0 0 9809 0 0 9855 0 0 9934 0 0 9964 0 0 9815 0 0 9895 0 0 9813 0 0 9761 0 0 9664 0 0 9772 0 0 9715 0 0 9766 0 0 9661 0 0 9660 0 0 9648 0 0 9931 0 0 9813 0 0 9842 0 0 9824 0 0 9884 0 0 9796 0 0 9922 0 0 9919 0 0 9838 0 0 9766 0 0 9688 0 0 9803 0 0 9695 0 0 9821 0 0 9846 0 0 9822 0 0 10019 0 0 9979 0 0 9904 0 0 9804 0 0 9751 0 0 9870 0 0 9722 0 0 4936 0 0 87 0 0 16 0 0 17 0 0 17 0 0 15 0 0 7 0 0 7 0 0 3 0 0 8 0 0 
3 0 0 6 0 0 3 0 0 8 0 0 10 0 0 8 0 0 11 0 0 12 0 0 16 0 0 77 0 0 4937 0 0 9855 0 0 9945 0 0 9844 0 0 9752 0 0 9889 0 0 9681 0 0 9916 0 0 9852 0 0 9929 0 0 9694 0 0 9960 0 0 9814 0 0 9870 0 0 9873 0 0 9918 0 0 9815 0 0 9957 0 0 9814 0 0 9849 0 0 9715 0 0 9795 0 0 9741 0 0 9889 0 0 10092 0 0 9826 0 0 9794 0 0 9724 0 0 9963 0 0 9918 0 0 9928 0 0 9800 0 0 9864 0 0 9887 0 0 9843 0 0 9835 0 0 9856 0 0 9765 0 0 9802 0 0 9654 0 0 5021 0 0 71 0 0 13 0 0 14 0 0 16 0 0 8 0 0 8 0 0 5 0 0 8 0 0 8 0 0 
4 0 0 9 0 0 8 0 0 7 0 0 7 0 0 9 0 0 10 0 0 13 0 0 15 0 0 64 0 0 4865 0 0 9892 0 0 9726 0 0 9886 0 0 9732 0 0 10012 0 0 9718 0 0 9914 0 0 9809 0 0 9980 0 0 9917 0 0 9636 0 0 9763 0 0 9764 0 0 10067 0 0 9661 0 0 9751 0 0 9807 0 0 9986 0 0 9656 0 0 9643 0 0 9748 0 0 9858 0 0 9779 0 0 9846 0 0 9833 0 0 9969 0 0 9775 0 0 9797 0 0 9826 0 0 9726 0 0 9749 0 0 9751 0 0 9867 0 0 9883 0 0 9896 0 0 9565 0 0 9840 0 0 9816 0 0 9833 0 0 4884 0 0 84 0 0 18 0 0 20 0 0 19 0 0 16 0 0 8 0 0 9 0 0 10 0 0 3 0 0 
1 0 0 2 0 0 3 0 0 6 0 0 7 0 0 12 0 0 20 0 0 14 0 0 15 0 0 81 0 0 4905 0 0 9797 0 0 9852 0 0 9789 0 0 9821 0 0 9756 0 0 9827 0 0 9791 0 0 9801 0 0 9778 0 0 9828 0 0 9817 0 0 9819 0 0 9928 0 0 9694 0 0 9817 0 0 9877 0 0 9700 0 0 9914 0 0 10032 0 0 9873 0 0 9893 0 0 9679 0 0 9921 0 0 9647 0 0 10010 0 0 9794 0 0 9902 0 0 9806 0 0 9770 0 0 9829 0 0 9824 0 0 9853 0 0 9854 0 0 9852 0 0 9852 0 0 9934 0 0 9922 0 0 9830 0 0 9742 0 0 4985 0 0 97 0 0 23 0 0 15 0 0 13 0 0 10 0 0 11 0 0 12 0 0 8 0 0 8 0 0 
3 0 0 8 0 0 9 0 0 8 0 0 9 0 0 13 0 0 11 0 0 14 0 0 16 0 0 74 0 0 4860 0 0 9655 0 0 9780 0 0 9952 0 0 9740 0 0 9728 0 0 9945 0 0 9762 0 0 9856 0 0 9919 0 0 9703 0 0 9889 0 0 9707 0 0 9957 0 0 9797 0 0 9727 0 0 9751 0 0 9924 0 0 9741 0 0 9748 0 0 9963 0 0 9771 0 0 9929 0 0 9882 0 0 10095 0 0 9973 0 0 9864 0 0 9677 0 0 9897 0 0 9900 0 0 9746 0 0 9816 0 0 9806 0 0 9765 0 0 9763 0 0 9911 0 0 9708 0 0 9900 0 0 9803 0 0 9779 0 0 4901 0 0 83 0 0 18 0 0 10 0 0 13 0 0 12 0 0 4 0 0 4 0 0 10 0 0 8 0 0 
4 0 0 8 0 0 10 0 0 8 0 0 5 0 0 7 0 0 13 0 0 18 0 0 13 0 0 79 0 0 4930 0 0 9731 0 0 9892 0 0 9768 0 0 9877 0 0 9895 0 0 9904 0 0 9836 0 0 9837 0 0 9688 0 0 9855 0 0 9788 0 0 9761 0 0 9723 0 0 9647 0 0 9879 0 0 9791 0 0 9899 0 0 9755 0 0 9829 0 0 9894 0 0 9882 0 0 9866 0 0 9795 0 0 9839 0 0 9974 0 0 9996 0 0 9754 0 0 9903 0 0 9979 0 0 9771 0 0 9791 0 0 9826 0 0 9876 0 0 9745 0 0 9884 0 0 9867 0 0 9725 0 0 9976 0 0 9787 0 0 4909 0 0 84 0 0 12 0 0 15 0 0 12 0 0 10 0 0 8 0 0 9 0 0 7 0 0 2 0 0 
1 0 0 4 0 0 4 0 0 4 0 0 8 0 0 6 0 0 12 0 0 12 0 0 17 0 0 71 0 0 5051 0 0 9728 0 0 9672 0 0 9809 0 0 9751 0 0 9776 0 0 9859 0 0 9983 0 0 9997 0 0 9767 0 0 9664 0 0 9921 0 0 9901 0 0 9746 0 0 9896 0 0 9705 0 0 9785 0 0 9907 0 0 9763 0 0 9910 0 0 9833 0 0 9642 0 0 9633 0 0 9856 0 0 9816 0 0 9871 0 0 9972 0 0 9683 0 0 9773 0 0 9693 0 0 9731 0 0 9881 0 0 9794 0 0 9784 0 0 9775 0 0 9876 0 0 9778 0 0 9837 0 0 9879 0 0 9853 0 0 4946 0 0 78 0 0 15 0 0 13 0 0 12 0 0 6 0 0 6 0 0 11 0 0 11 0 0 5 0 0 
3 0 0 6 0 0 10 0 0 8 0 0 9 0 0 7 0 0 10 0 0 14 0 0 20 0 0 87 0 0 4804 0 0 9625 0 0 9758 0 0 9803 0 0 9835 0 0 9861 0 0 9794 0 0 9805 0 0 9855 0 0 9837 0 0 9770 0 0 9809 0 0 9849 0 0 9923 0 0 9919 0 0 9832 0 0 9911 0 0 9791 0 0 9773 0 0 9796 0 0 9652 0 0 9830 0 0 9869 0 0 9848 0 0 9936 0 0 9964 0 0 9885 0 0 9691 0 0 9781 0 0 9648 0 0 9920 0 0 9903 0 0 9766 0 0 9843 0 0 9777 0 0 9789 0 0 9725 0 0 9800 0 0 9727 0 0 9712 0 0 4999 0 0 67 0 0 18 0 0 18 0 0 11 0 0 7 0 0 8 0 0 5 0 0 7 0 0 9 0 0 
4 0 0 8 0 0 5 0 0 6 0 0 6 0 0 4 0 0 8 0 0 16 0 0 17 0 0 96 0 0 4937 0 0 9744 0 0 9799 0 0 9832 0 0 9854 0 0 9705 0 0 9879 0 0 9894 0 0 9744 0 0 9813 0 0 10062 0 0 9885 0 0 9930 0 0 9986 0 0 9746 0 0 9823 0 0 9848 0 0 9686 0 0 9855 0 0 9894 0 0 9813 0 0 9735 0 0 9943 0 0 9711 0 0 9908 0 0 9925 0 0 9904 0 0 9899 0 0 9769 0 0 9726 0 0 9772 0 0 10034 0 0 9874 0 0 9953 0 0 9837 0 0 9747 0 0 9784 0 0 9857 0 0 9918 0 0 9619 0 0 4907 0 0 67 0 0 20 0 0 17 0 0 10 0 0 2 0 0 6 0 0 7 0 0 8 0 0 2 0 0 
3 0 0 5 0 0 5 0 0 4 0 0 11 0 0 11 0 0 8 0 0 14 0 0 16 0 0 78 0 0 4807 0 0 9901 0 0 9787 0 0 9760 0 0 9760 0 0 9733 0 0 9781 0 0 9711 0 0 9818 0 0 9808 0 0 9653 0 0 9811 0 0 9805 0 0 9877 0 0 9620 0 0 9713 0 0 9996 0 0 9850 0 0 9950 0 0 9891 0 0 9889 0 0 9796 0 0 9769 0 0 9919 0 0 9756 0 0 9848 0 0 9900 0 0 9728 0 0 9773 0 0 9889 0 0 9894 0 0 9791 0 0 9673 0 0 9774 0 0 9945 0 0 9699 0 0 9822 0 0 9797 0 0 9897 0 0 9703 0 0 4975 0 0 86 0 0 16 0 0 8 0 0 9 0 0 13 0 0 9 0 0 10 0 0 3 0 0 2 0 0 
2 0 0 6 0 0 5 0 0 7 0 0 7 0 0 12 0 0 15 0 0 14 0 0 20 0 0 101 0 0 4924 0 0 9742 0 0 9622 0 0 9681 0 0 9774 0 0 9697 0 0 9674 0 0 9878 0 0 10012 0 0 9825 0 0 9831 0 0 9962 0 0 9812 0 0 9853 0 0 9818 0 0 9807 0 0 9672 0 0 9748 0 0 9799 0 0 9726 0 0 9870 0 0 9734 0 0 9927 0 0 9816 0 0 9876 0 0 9870 0 0 9781 0 0 9809 0 0 9924 0 0 9746 0 0 9851 0 0 9846 0 0 9720 0 0 9756 0 0 9726 0 0 9701 0 0 9790 0 0 9824 0 0 9916 0 0 9770 0 0 4970 0 0 67 0 0 18 0 0 12 0 0 12 0 0 7 0 0 9 0 0 5 0 0 7 0 0 2 0 0 
6 0 0 9 0 0 8 0 0 11 0 0 11 0 0 14 0 0 12 0 0 13 0 0 18 0 0 65 0 0 4922 0 0 9702 0 0 9686 0 0 9809 0 0 9814 0 0 9822 0 0 10035 0 0 9963 0 0 9847 0 0 9725 0 0 9875 0 0 9821 0 0 9925 0 0 9680 0 0 9868 0 0 9703 0 0 9900 0 0 9816 0 0 9749 0 0 9989 0 0 9924 0 0 9914 0 0 9692 0 0 9670 0 0 9989 0 0 9856 0 0 9870 0 0 9867 0 0 9759 0 0 9825 0 0 9907 0 0 9593 0 0 9741 0 0 9907 0 0 9887 0 0 9828 0 0 9959 0 0 9677 0 0 9897 0 0 9644 0 0 4939 0 0 71 0 0 17 0 0 11 0 0 12 0 0 12 0 0 10 0 0 6 0 0 5 0 0 3 0 0 
1 0 0 5 0 0 10 0 0 2 0 0 4 0 0 8 0 0 11 0 0 11 0 0 20 0 0 90 0 0 4809 0 0 9749 0 0 9930 0 0 9890 0 0 9912 0 0 9876 0 0 9852 0 0 9933 0 0 9953 0 0 9860 0 0 9705 0 0 9864 0 0 9860 0 0 9891 0 0 9961 0 0 9742 0 0 9930 0 0 9839 0 0 9646 0 0 9679 0 0 9752 0 0 9918 0 0 10095 0 0 9638 0 0 9916 0 0 9865 0 0 9731 0 0 9739 0 0 9787 0 0 9673 0 0 9853 0 0 9882 0 0 9808 0 0 9978 0 0 9942 0 0 9739 0 0 9828 0 0 9813 0 0 9776 0 0 9899 0 0 4938 0 0 72 0 0 11 0 0 12 0 0 7 0 0 6 0 0 8 0 0 1 0 0 2 0 0 10 0 0 
1 0 0 4 0 0 6 0 0 3 0 0 3 0 0 3 0 0 9 0 0 8 0 0 15 0 0 72 0 0 4934 0 0 9821 0 0 9748 0 0 9941 0 0 9740 0 0 9771 0 0 9773 0 0 9853 0 0 9932 0 0 9856 0 0 9900 0 0 9823 0 0 9896 0 0 9879 0 0 9901 0 0 9814 0 0 9724 0 0 9870 0 0 9735 0 0 9859 0 0 10061 0 0 9871 0 0 9796 0 0 9872 0 0 9790 0 0 9839 0 0 9715 0 0 9769 0 0 9707 0 0 9916 0 0 9905 0 0 9745 0 0 9769 0 0 9880 0 0 9976 0 0 9753 0 0 9802 0 0 9856 0 0 9693 0 0 9851 0 0 4911 0 0 77 0 0 14 0 0 19 0 0 17 0 0 11 0 0 10 0 0 11 0 0 7 0 0 3 0 0 
3 0 0 9 0 0 8 0 0 6 0 0 7 0 0 8 0 0 4 0 0 17 0 0 16 0 0 76 0 0 4936 0 0 9795 0 0 9830 0 0 9795 0 0 9764 0 0 9854 0 0 9886 0 0 9811 0 0 10015 0 0 9796 0 0 9731 0 0 9869 0 0 9873 0 0 9623 0 0 9798 0 0 9807 0 0 9772 0 0 9785 0 0 9807 0 0 9841 0 0 9783 0 0 9908 0 0 9724 0 0 9873 0 0 9894 0 0 9873 0 0 9744 0 0 9786 0 0 9857 0 0 9783 0 0 9706 0 0 9825 0 0 9759 0 0 9694 0 0 9690 0 0 9693 0 0 9943 0 0 9838 0 0 9904 0 0 9830 0 0 4934 0 0 78 0 0 11 0 0 12 0 0 10 0 0 12 0 0 8 0 0 12 0 0 6 0 0 6 0 0 
1 0 0 3 0 0 8 0 0 6 0 0 11 0 0 12 0 0 18 0 0 19 0 0 19 0 0 81 0 0 4853 0 0 9667 0 0 9793 0 0 9865 0 0 9737 0 0 9698 0 0 9776 0 0 9817 0 0 9741 0 0 9833 0 0 9742 0 0 9692 0 0 9786 0 0 9725 0 0 9880 0 0 9899 0 0 9941 0 0 9723 0 0 9715 0 0 9797 0 0 9763 0 0 9733 0 0 9574 0 0 9741 0 0 9862 0 0 9780 0 0 9880 0 0 9833 0 0 9832 0 0 9859 0 0 9841 0 0 9749 0 0 9788 0 0 9873 0 0 9841 0 0 9698 0 0 9905 0 0 9844 0 0 9882 0 0 9671 0 0 4994 0 0 77 0 0 20 0 0 11 0 0 11 0 0 11 0 0 10 0 0 11 0 0 8 0 0 9 0 0 
3 0 0 8 0 0 8 0 0 7 0 0 13 0 0 12 0 0 15 0 0 20 0 0 22 0 0 82 0 0 4899 0 0 9734 0 0 9741 0 0 10033 0 0 9967 0 0 9758 0 0 9900 0 0 9758 0 0 9874 0 0 9932 0 0 10033 0 0 9791 0 0 9897 0 0 9895 0 0 9827 0 0 9930 0 0 9810 0 0 10010 0 0 9814 0 0 9755 0 0 9827 0 0 9877 0 0 9841 0 0 9927 0 0 9931 0 0 9738 0 0 9755 0 0 9848 0 0 9838 0 0 9832 0 0 9777 0 0 9781 0 0 9857 0 0 9868 0 0 9691 0 0 9795 0 0 9747 0 0 9693 0 0 9788 0 0 9730 0 0 4871 0 0 71 0 0 22 0 0 9 0 0 10 0 0 10 0 0 8 0 0 4 0 0 3 0 0 6 0 0 
5 0 0 8 0 0 7 0 0 12 0 0 11 0 0 12 0 0 14 0 0 11 0 0 17 0 0 76 0 0 4958 0 0 9844 0 0 9681 0 0 9693 0 0 9732 0 0 9704 0 0 9777 0 0 9786 0 0 9825 0 0 9827 0 0 9869 0 0 9804 0 0 9967 0 0 9935 0 0 9847 0 0 9735 0 0 9885 0 0 9833 0 0 9826 0 0 9850 0 0 9796 0 0 9750 0 0 9640 0 0 9724 0 0 9975 0 0 9671 0 0 9868 0 0 9771 0 0 9960 0 0 9821 0 0 9776 0 0 9840 0 0 9778 0 0 9941 0 0 9890 0 0 9758 0 0 9872 0 0 9729 0 0 9881 0 0 9700 0 0 4815 0 0 85 0 0 19 0 0 16 0 0 13 0 0 14 0 0 12 0 0 10 0 0 8 0 0 4 0 0 
1 0 0 3 0 0 4 0 0 6 0 0 6 0 0 9 0 0 12 0 0 9 0 0 14 0 0 85 0 0 5036 0 0 9802 0 0 9798 0 0 9845 0 0 9843 0 0 9767 0 0 9727 0 0 9936 0 0 9759 0 0 9783 0 0 9852 0 0 9885 0 0 9694 0 0 10090 0 0 10078 0 0 9792 0 0 9852 0 0 9866 0 0 9876 0 0 9753 0 0 9711 0 0 9777 0 0 9934 0 0 9924 0 0 9814 0 0 9852 0 0 9769 0 0 9713 0 0 9749 0 0 9798 0 0 9895 0 0 9845 0 0 9736 0 0 9809 0 0 9882 0 0 9857 0 0 9824 0 0 9917 0 0 9933 0 0 9489 0 0 4917 0 0 83 0 0 20 0 0 12 0 0 5 0 0 8 0 0 3 0 0 3 0 0 5 0 0 2 0 0 
0 0 0 0 0 0 4 0 0 5 0 0 7 0 0 8 0 0 6 0 0 12 0 0 18 0 0 71 0 0 4810 0 0 9763 0 0 9652 0 0 9835 0 0 9820 0 0 9890 0 0 9755 0 0 9682 0 0 9882 0 0 9745 0 0 9769 0 0 9745 0 0 9801 0 0 9962 0 0 9791 0 0 9924 0 0 10000 0 0 9842 0 0 9877 0 0 10033 0 0 9611 0 0 9850 0 0 9631 0 0 9813 0 0 9862 0 0 9918 0 0 9917 0 0 9904 0 0 9914 0 0 9785 0 0 9845 0 0 9759 0 0 9739 0 0 9728 0 0 9686 0 0 9764 0 0 9855 0 0 9962 0 0 9907 0 0 9647 0 0 4869 0 0 81 0 0 18 0 0 13 0 0 17 0 0 11 0 0 10 0 0 8 0 0 4 0 0 4 0 0 
2 0 0 5 0 0 3 0 0 8 0 0 8 0 0 9 0 0 10 0 0 14 0 0 23 0 0 86 0 0 4862 0 0 9735 0 0 9853 0 0 9614 0 0 9731 0 0 9725 0 0 9872 0 0 9770 0 0 9864 0 0 9709 0 0 9644 0 0 9839 0 0 9948 0 0 10040 0 0 9740 0 0 9778 0 0 9757 0 0 9734 0 0 9824 0 0 9811 0 0 9818 0 0 9928 0 0 9884 0 0 9753 0 0 9755 0 0 9783 0 0 9733 0 0 9768 0 0 10020 0 0 10053 0 0 9743 0 0 9894 0 0 9807 0 0 9969 0 0 9809 0 0 9783 0 0 9675 0 0 9811 0 0 9754 0 0 9781 0 0 4955 0 0 78 0 0 14 0 0 9 0 0 7 0 0 9 0 0 9 0 0 7 0 0 6 0 0 5 0 0 
2 0 0 5 0 0 4 0 0 4 0 0 10 0 0 8 0 0 8 0 0 10 0 0 22 0 0 94 0 0 4966 0 0 9648 0 0 9902 0 0 9710 0 0 9785 0 0 9835 0 0 9897 0 0 9675 0 0 9838 0 0 9741 0 0 9764 0 0 9904 0 0 9796 0 0 9828 0 0 9826 0 0 9755 0 0 10008 0 0 9732 0 0 10000 0 0 9814 0 0 9762 0 0 9793 0 0 9847 0 0 9873 0 0 9782 0 0 9949 0 0 9972 0 0 9779 0 0 9847 0 0 9873 0 0 9709 0 0 9846 0 0 9812 0 0 9868 0 0 9837 0 0 9853 0 0 10071 0 0 9869 0 0 9778 0 0 9674 0 0 4857 0 0 90 0 0 24 0 0 12 0 0 7 0 0 6 0 0 8 0 0 4 0 0 3 0 0 4 0 0 
3 0 0 5 0 0 8 0 0 8 0 0 8 0 0 11 0 0 8 0 0 11 0 0 12 0 0 80 0 0 4772 0 0 9729 0 0 9872 0 0 9785 0 0 9903 0 0 9840 0 0 9758 0 0 9742 0 0 9908 0 0 9886 0 0 9753 0 0 9728 0 0 9821 0 0 9962 0 0 9776 0 0 9748 0 0 9901 0 0 9885 0 0 9714 0 0 9859 0 0 9704 0 0 9885 0 0 9897 0 0 9730 0 0 9583 0 0 9956 0 0 9873 0 0 9760 0 0 9869 0 0 9970 0 0 9808 0 0 9585 0 0 9796 0 0 9875 0 0 9754 0 0 9787 0 0 9946 0 0 9889 0 0 9755 0 0 9640 0 0 4868 0 0 84 0 0 12 0 0 12 0 0 10 0 0 8 0 0 5 0 0 4 0 0 2 0 0 5 0 0 
2 0 0 5 0 0 9 0 0 9 0 0 17 0 0 11 0 0 10 0 0 16 0 0 22 0 0 86 0 0 4955 0 0 9879 0 0 9824 0 0 9784 0 0 9603 0 0 9945 0 0 9803 0 0 9880 0 0 9774 0 0 9878 0 0 9898 0 0 9741 0 0 9894 0 0 9777 0 0 9810 0 0 9753 0 0 9869 0 0 9895 0 0 9757 0 0 9874 0 0 9824 0 0 9808 0 0 10097 0 0 9859 0 0 9759 0 0 9770 0 0 9845 0 0 9790 0 0 9838 0 0 9754 0 0 9883 0 0 9858 0 0 9828 0 0 9836 0 0 9838 0 0 9915 0 0 9840 0 0 9948 0 0 9791 0 0 9540 0 0 4917 0 0 78 0 0 9 0 0 12 0 0 11 0 0 6 0 0 5 0 0 1 0 0 8 0 0 7 0 0 
3 0 0 5 0 0 7 0 0 8 0 0 7 0 0 10 0 0 11 0 0 14 0 0 16 0 0 66 0 0 4991 0 0 9693 0 0 9849 0 0 9924 0 0 9735 0 0 9821 0 0 9814 0 0 9849 0 0 9912 0 0 9998 0 0 9801 0 0 9825 0 0 9869 0 0 9945 0 0 9774 0 0 9822 0 0 9845 0 0 9804 0 0 9849 0 0 9848 0 0 9763 0 0 9758 0 0 9744 0 0 9697 0 0 9776 0 0 10086 0 0 9654 0 0 9767 0 0 9907 0 0 9809 0 0 9857 0 0 9944 0 0 9968 0 0 9953 0 0 9732 0 0 9677 0 0 9898 0 0 9750 0 0 9855 0 0 9844 0 0 4869 0 0 71 0 0 13 0 0 12 0 0 12 0 0 7 0 0 5 0 0 7 0 0 4 0 0 3 0 0 
1 0 0 2 0 0 6 0 0 4 0 0 3 0 0 6 0 0 12 0 0 9 0 0 14 0 0 87 0 0 4970 0 0 9548 0 0 9771 0 0 9696 0 0 9857 0 0 9952 0 0 9781 0 0 9785 0 0 9824 0 0 9808 0 0 9824 0 0 9992 0 0 9760 0 0 9617 0 0 9652 0 0 9847 0 0 9738 0 0 9767 0 0 9916 0 0 9843 0 0 9675 0 0 9969 0 0 9893 0 0 9831 0 0 9800 0 0 9881 0 0 9904 0 0 9914 0 0 9722 0 0 9705 0 0 9889 0 0 9811 0 0 9862 0 0 9786 0 0 10000 0 0 9795 0 0 9832 0 0 9789 0 0 9711 0 0 9730 0 0 4907 0 0 89 0 0 15 0 0 10 0 0 13 0 0 9 0 0 9 0 0 5 0 0 2 0 0 8 0 0 
1 0 0 4 0 0 8 0 0 6 0 0 2 0 0 5 0 0 3 0 0 10 0 0 16 0 0 70 0 0 4967 0 0 9667 0 0 9779 0 0 10002 0 0 9801 0 0 9938 0 0 9986 0 0 9671 0 0 9784 0 0 10024 0 0 10008 0 0 9839 0 0 9927 0 0 9837 0 0 10000 0 0 9788 0 0 9811 0 0 9744 0 0 9659 0 0 9960 0 0 9850 0 0 9809 0 0 9762 0 0 9720 0 0 9871 0 0 10042 0 0 9918 0 0 9919 0 0 9699 0 0 9672 0 0 9651 0 0 9795 0 0 9938 0 0 9664 0 0 9871 0 0 9706 0 0 9669 0 0 9749 0 0 9759 0 0 9972 0 0 5012 0 0 71 0 0 18 0 0 11 0 0 10 0 0 10 0 0 10 0 0 9 0 0 5 0 0 2 0 0 
0 0 0 4 0 0 4 0 0 2 0 0 6 0 0 11 0 0 9 0 0 8 0 0 9 0 0 71 0 0 4858 0 0 9804 0 0 9816 0 0 9818 0 0 9583 0 0 9858 0 0 9954 0 0 9693 0 0 9828 0 0 9883 0 0 9901 0 0 9767 0 0 9767 0 0 9924 0 0 9968 0 0 9807 0 0 9945 0 0 9712 0 0 9642 0 0 9772 0 0 9832 0 0 9879 0 0 9632 0 0 9924 0 0 9776 0 0 9659 0 0 9831 0 0 9827 0 0 9931 0 0 9894 0 0 9912 0 0 9833 0 0 9760 0 0 9801 0 0 9964 0 0 9744 0 0 9822 0 0 9844 0 0 9944 0 0 9749 0 0 4926 0 0 77 0 0 15 0 0 10 0 0 11 0 0 12 0 0 6 0 0 3 0 0 8 0 0 5 0 0 
1 0 0 3 0 0 4 0 0 7 0 0 3 0 0 16 0 0 7 0 0 6 0 0 10 0 0 74 0 0 4893 0 0 9799 0 0 9810 0 0 9847 0 0 9632 0 0 9856 0 0 9649 0 0 9984 0 0 9863 0 0 9755 0 0 9919 0 0 9727 0 0 9997 0 0 9837 0 0 9862 0 0 9696 0 0 9871 0 0 9684 0 0 9874 0 0 9755 0 0 9782 0 0 9878 0 0 9758 0 0 9916 0 0 9661 0 0 9846 0 0 9783 0 0 9779 0 0 9640 0 0 9725 0 0 9872 0 0 9828 0 0 9871 0 0 9632 0 0 9797 0 0 9833 0 0 9680 0 0 9855 0 0 9690 0 0 9847 0 0 4933 0 0 61 0 0 14 0 0 8 0 0 10 0 0 8 0 0 5 0 0 4 0 0 7 0 0 2 0 0 
2 0 0 5 0 0 5 0 0 5 0 0 8 0 0 14 0 0 12 0 0 10 0 0 8 0 0 76 0 0 4918 0 0 9887 0 0 9898 0 0 9744 0 0 9863 0 0 9863 0 0 9879 0 0 9817 0 0 9823 0 0 9759 0 0 9695 0 0 9731 0 0 9886 0 0 9743 0 0 9833 0 0 9737 0 0 9833 0 0 9842 0 0 9854 0 0 9846 0 0 9845 0 0 9816 0 0 9607 0 0 9887 0 0 9777 0 0 9899 0 0 9710 0 0 10019 0 0 9703 0 0 9649 0 0 9772 0 0 9834 0 0 9866 0 0 9707 0 0 9818 0 0 9697 0 0 9899 0 0 9864 0 0 9856 0 0 9736 0 0 4909 0 0 74 0 0 17 0 0 12 0 0 11 0 0 8 0 0 8 0 0 5 0 0 4 0 0 8 0 0 
1 0 0 5 0 0 5 0 0 8 0 0 8 0 0 8 0 0 5 0 0 6 0 0 18 0 0 79 0 0 4876 0 0 9661 0 0 9736 0 0 9819 0 0 9796 0 0 9771 0 0 9838 0 0 9873 0 0 9844 0 0 9870 0 0 9836 0 0 9748 0 0 9862 0 0 9829 0 0 9803 0 0 9843 0 0 9790 0 0 9914 0 0 9773 0 0 9831 0 0 9717 0 0 9637 0 0 9960 0 0 9831 0 0 9916 0 0 9986 0 0 9650 0 0 9753 0 0 9769 0 0 9704 0 0 9747 0 0 9938 0 0 9827 0 0 9804 0 0 9948 0 0 9879 0 0 9839 0 0 9809 0 0 9772 0 0 9796 0 0 4874 0 0 74 0 0 14 0 0 10 0 0 1 0 0 5 0 0 2 0 0 3 0 0 7 0 0 4 0 0 
1 0 0 4 0 0 6 0 0 5 0 0 4 0 0 6 0 0 7 0 0 8 0 0 14 0 0 72 0 0 4881 0 0 9628 0 0 9714 0 0 9801 0 0 9834 0 0 9724 0 0 9730 0 0 9722 0 0 9755 0 0 9863 0 0 9652 0 0 9785 0 0 9813 0 0 9865 0 0 9594 0 0 9587 0 0 9929 0 0 9770 0 0 9746 0 0 9791 0 0 9816 0 0 9659 0 0 9746 0 0 9798 0 0 9614 0 0 9797 0 0 9771 0 0 9863 0 0 9681 0 0 9672 0 0 9767 0 0 9669 0 0 9665 0 0 9729 0 0 9773 0 0 9810 0 0 9762 0 0 9855 0 0 9712 0 0 9602 0 0 4849 0 0 66 0 0 10 0 0 9 0 0 5 0 0 7 0 0 3 0 0 3 0 0 5 0 0 4 0 0 
0 0 0 4 0 0 5 0 0 3 0 0 4 0 0 5 0 0 8 0 0 7 0 0 12 0 0 38 0 0 2527 0 0 4875 0 0 5021 0 0 4878 0 0 4897 0 0 4897 0 0 4927 0 0 4828 0 0 5001 0 0 4938 0 0 4994 0 0 4889 0 0 4866 0 0 4855 0 0 5002 0 0 4952 0 0 4985 0 0 4904 0 0 4962 0 0 4876 0 0 4882 0 0 4901 0 0 4905 0 0 4912 0 0 4833 0 0 5055 0 0 4963 0 0 4985 0 0 4914 0 0 5027 0 0 4912 0 0 4948 0 0 4991 0 0 5004 0 0 4840 0 0 5000 0 0 4979 0 0 4926 0 0 4769 0 0 4736 0 0 2472 0 0 41 0 0 12 0 0 11 0 0 1 0 0 3 0 0 6 0 0 6 0 0 3 0 0 5 0 0 
1 0 0 3 0 0 3 0 0 9 0 0 6 0 0 4 0 0 4 0 0 6 0 0 7 0 0 17 0 0 37 0 0 71 0 0 80 0 0 79 0 0 77 0 0 70 0 0 82 0 0 84 0 0 68 0 0 74 0 0 79 0 0 74 0 0 87 0 0 86 0 0 76 0 0 76 0 0 83 0 0 74 0 0 82 0 0 87 0 0 80 0 0 90 0 0 77 0 0 65 0 0 87 0 0 80 0 0 93 0 0 77 0 0 84 0 0 76 0 0 78 0 0 83 0 0 85 0 0 77 0 0 85 0 0 79 0 0 71 0 0 86 0 0 61 0 0 67 0 0 39 0 0 12 0 0 8 0 0 9 0 0 11 0 0 6 0 0 7 0 0 3 0 0 1 0 0 0 0 0 
3 0 0 6 0 0 7 0 0 8 0 0 5 0 0 2 0 0 10 0 0 5 0 0 5 0 0 9 0 0 11 0 0 13 0 0 16 0 0 15 0 0 7 0 0 13 0 0 15 0 0 17 0 0 21 0 0 21 0 0 14 0 0 22 0 0 16 0 0 23 0 0 13 0 0 21 0 0 21 0 0 14 0 0 19 0 0 24 0 0 24 0 0 26 0 0 16 0 0 15 0 0 15 0 0 23 0 0 18 0 0 18 0 0 19 0 0 22 0 0 11 0 0 21 0 0 15 0 0 23 0 0 18 0 0 13 0 0 15 0 0 15 0 0 12 0 0 12 0 0 14 0 0 6 0 0 7 0 0 1 0 0 2 0 0 3 0 0 5 0 0 4 0 0 0 0 0 0 0 0 
3 0 0 3 0 0 1 0 0 2 0 0 3 0 0 6 0 0 5 0 0 10 0 0 8 0 0 9 0 0 12 0 0 8 0 0 11 0 0 7 0 0 11 0 0 8 0 0 13 0 0 17 0 0 19 0 0 14 0 0 13 0 0 14 0 0 9 0 0 15 0 0 20 0 0 20 0 0 15 0 0 12 0 0 18 0 0 15 0 0 16 0 0 16 0 0 13 0 0 13 0 0 15 0 0 13 0 0 14 0 0 10 0 0 19 0 0 16 0 0 14 0 0 13 0 0 10 0 0 15 0 0 14 0 0 14 0 0 10 0 0 9 0 0 7 0 0 8 0 0 11 0 0 8 0 0 6 0 0 0 0 0 4 0 0 3 0 0 5 0 0 8 0 0 2 0 0 0 0 0 
1 0 0 1 0 0 6 0 0 3 0 0 4 0 0 2 0 0 2 0 0 9 0 0 6 0 0 6 0 0 6 0 0 9 0 0 11 0 0 13 0 0 12 0 0 12 0 0 8 0 0 14 0 0 16 0 0 13 0 0 9 0 0 7 0 0 10 0 0 16 0 0 16 0 0 12 0 0 16 0 0 10 0 0 11 0 0 12 0 0 12 0 0 13 0 0 9 0 0 12 0 0 18 0 0 15 0 0 6 0 0 10 0 0 10 0 0 10 0 0 11 0 0 8 0 0 9 0 0 9 0 0 4 0 0 9 0 0 7 0 0 8 0 0 5 0 0 6 0 0 3 0 0 10 0 0 6 0 0 2 0 0 2 0 0 5 0 0 1 0 0 4 0 0 1 0 0 2 0 0 
0 0 0 2 0 0 3 0 0 0 0 0 0 0 0 1 0 0 5 0 0 7 0 0 4 0 0 4 0 0 4 0 0 4 0 0 7 0 0 12 0 0 7 0 0 6 0 0 10 0 0 12 0 0 12 0 0 12 0 0 10 0 0 7 0 0 8 0 0 16 0 0 8 0 0 12 0 0 10 0 0 12 0 0 9 0 0 11 0 0 12 0 0 11 0 0 7 0 0 9 0 0 15 0 0 10 0 0 12 0 0 9 0 0 5 0 0 8 0 0 5 0 0 10 0 0 6 0 0 7 0 0 6 0 0 10 0 0 9 0 0 11 0 0 6 0 0 6 0 0 2 0 0 3 0 0 8 0 0 4 0 0 2 0 0 4 0 0 0 0 0 3 0 0 4 0 0 1 0 0 
1 0 0 3 0 0 1 0 0 2 0 0 0 0 0 2 0 0 7 0 0 4 0 0 3 0 0 4 0 0 5 0 0 7 0 0 9 0 0 8 0 0 6 0 0 8 0 0 6 0 0 2 0 0 8 0 0 12 0 0 11 0 0 7 0 0 11 0 0 12 0 0 8 0 0 14 0 0 10 0 0 14 0 0 7 0 0 8 0 0 8 0 0 8 0 0 7 0 0 15 0 0 7 0 0 2 0 0 9 0 0 7 0 0 6 0 0 5 0 0 3 0 0 6 0 0 7 0 0 3 0 0 3 0 0 8 0 0 12 0 0 6 0 0 2 0 0 3 0 0 5 0 0 3 0 0 6 0 0 7 0 0 1 0 0 3 0 0 2 0 0 2 0 0 3 0 0 2 0 0 
0 0 0 2 0 0 4 0 0 1 0 0 2 0 0 3 0 0 1 0 0 2 0 0 3 0 0 2 0 0 2 0 0 7 0 0 5 0 0 14 0 0 11 0 0 9 0 0 3 0 0 4 0 0 8 0 0 9 0 0 11 0 0 12 0 0 10 0 0 9 0 0 5 0 0 12 0 0 10 0 0 9 0 0 8 0 0 8 0 0 6 0 0 6 0 0 5 0 0 11 0 0 10 0 0 5 0 0 11 0 0 11 0 0 7 0 0 4 0 0 3 0 0 1 0 0 2 0 0 4 0 0 6 0 0 3 0 0 7 0 0 2 0 0 3 0 0 1 0 0 4 0 0 5 0 0 3 0 0 6 0 0 4 0 0 4 0 0 5 0 0 0 0 0 1 0 0 3 0 0 
0 0 0 8 0 0 1 0 0 2 0 0 0 0 0 3 0 0 1 0 0 3 0 0 2 0 0 4 0 0 6 0 0 2 0 0 6 0 0 9 0 0 6 0 0 7 0 0 5 0 0 6 0 0 7 0 0 8 0 0 6 0 0 11 0 0 8 0 0 9 0 0 6 0 0 8 0 0 6 0 0 3 0 0 4 0 0 6 0 0 6 0 0 6 0 0 6 0 0 8 0 0 4 0 0 6 0 0 6 0 0 5 0 0 5 0 0 3 0 0 4 0 0 4 0 0 1 0 0 7 0 0 4 0 0 2 0 0 6 0 0 3 0 0 3 0 0 2 0 0 5 0 0 5 0 0 2 0 0 4 0 0 3 0 0 0 0 0 5 0 0 3 0 0 2 0 0 4 0 0 
3 0 0 4 0 0 0 0 0 5 0 0 3 0 0 3 0 0 0 0 0 4 0 0 5 0 0 5 0 0 3 0 0 4 0 0 6 0 0 12 0 0 10 0 0 5 0 0 3 0 0 6 0 0 6 0 0 6 0 0 6 0 0 9 0 0 6 0 0 9 0 0 12 0 0 4 0 0 4 0 0 7 0 0 2 0 0 6 0 0 9 0 0 11 0 0 5 0 0 5 0 0 5 0 0 6 0 0 6 0 0 3 0 0 4 0 0 3 0 0 2 0 0 4 0 0 4 0 0 5 0 0 3 0 0 1 0 0 5 0 0 7 0 0 2 0 0 2 0 0 3 0 0 6 0 0 4 0 0 4 0 0 4 0 0 0 0 0 3 0 0 4 0 0 0 0 0 1 0 0 
