P3
# This is a dose file slice at depth 10 of 100
60 60
# now we give the maximum value of the RGB coordinates.
32965
1 0 0 2 0 0 1 0 0 1 0 0 2 0 0 2 0 0 1 0 0 3 0 0 4 0 0 5 0 0 4 0 0 4 0 0 5 0 0 8 0 0 5 0 0 8 0 0 8 0 0 5 0 0 7 0 0 7 0 0 7 0 0 3 0 0 4 0 0 6 0 0 7 0 0 4 0 0 9 0 0 4 0 0 6 0 0 4 0 0 7 0 0 5 0 0 10 0 0 6 0 0 7 0 0 5 0 0 5 0 0 12 0 0 5 0 0 7 0 0 7 0 0 5 0 0 5 0 0 8 0 0 10 0 0 8 0 0 7 0 0 7 0 0 3 0 0 5 0 0 2 0 0 3 0 0 2 0 0 2 0 0 3 0 0 1 0 0 6 0 0 4 0 0 2 0 0 1 0 0 
3 0 0 7 0 0 5 0 0 3 0 0 2 0 0 8 0 0 5 0 0 3 0 0 7 0 0 12 0 0 10 0 0 10 0 0 12 0 0 13 0 0 14 0 0 11 0 0 14 0 0 17 0 0 13 0 0 19 0 0 18 0 0 9 0 0 12 0 0 12 0 0 12 0 0 16 0 0 13 0 0 14 0 0 13 0 0 10 0 0 20 0 0 7 0 0 15 0 0 10 0 0 14 0 0 13 0 0 14 0 0 17 0 0 12 0 0 12 0 0 14 0 0 11 0 0 12 0 0 20 0 0 22 0 0 22 0 0 10 0 0 12 0 0 8 0 0 12 0 0 8 0 0 11 0 0 3 0 0 7 0 0 4 0 0 10 0 0 11 0 0 9 0 0 3 0 0 3 0 0 
4 0 0 7 0 0 8 0 0 11 0 0 3 0 0 6 0 0 9 0 0 8 0 0 9 0 0 13 0 0 12 0 0 9 0 0 7 0 0 12 0 0 13 0 0 12 0 0 12 0 0 12 0 0 13 0 0 19 0 0 17 0 0 22 0 0 14 0 0 19 0 0 20 0 0 17 0 0 11 0 0 14 0 0 13 0 0 15 0 0 15 0 0 17 0 0 11 0 0 10 0 0 18 0 0 19 0 0 13 0 0 23 0 0 8 0 0 15 0 0 17 0 0 13 0 0 19 0 0 25 0 0 16 0 0 14 0 0 10 0 0 13 0 0 11 0 0 11 0 0 10 0 0 9 0 0 4 0 0 6 0 0 7 0 0 15 0 0 10 0 0 4 0 0 4 0 0 3 0 0 
4 0 0 9 0 0 7 0 0 7 0 0 11 0 0 5 0 0 13 0 0 10 0 0 13 0 0 8 0 0 11 0 0 10 0 0 7 0 0 12 0 0 13 0 0 12 0 0 10 0 0 12 0 0 10 0 0 15 0 0 22 0 0 13 0 0 17 0 0 19 0 0 26 0 0 9 0 0 12 0 0 17 0 0 16 0 0 23 0 0 23 0 0 13 0 0 18 0 0 17 0 0 20 0 0 27 0 0 18 0 0 25 0 0 12 0 0 21 0 0 18 0 0 21 0 0 20 0 0 24 0 0 17 0 0 16 0 0 16 0 0 13 0 0 8 0 0 12 0 0 12 0 0 12 0 0 8 0 0 8 0 0 12 0 0 15 0 0 8 0 0 8 0 0 7 0 0 5 0 0 
1 0 0 3 0 0 6 0 0 11 0 0 11 0 0 10 0 0 6 0 0 9 0 0 18 0 0 13 0 0 11 0 0 12 0 0 11 0 0 15 0 0 19 0 0 16 0 0 12 0 0 18 0 0 10 0 0 16 0 0 30 0 0 15 0 0 17 0 0 24 0 0 20 0 0 9 0 0 10 0 0 20 0 0 14 0 0 18 0 0 20 0 0 16 0 0 20 0 0 20 0 0 22 0 0 19 0 0 15 0 0 23 0 0 14 0 0 18 0 0 19 0 0 25 0 0 17 0 0 22 0 0 24 0 0 17 0 0 22 0 0 14 0 0 11 0 0 11 0 0 15 0 0 13 0 0 10 0 0 12 0 0 16 0 0 13 0 0 10 0 0 6 0 0 7 0 0 6 0 0 
4 0 0 6 0 0 6 0 0 5 0 0 10 0 0 13 0 0 6 0 0 8 0 0 13 0 0 22 0 0 9 0 0 13 0 0 15 0 0 18 0 0 22 0 0 23 0 0 21 0 0 23 0 0 22 0 0 18 0 0 24 0 0 27 0 0 20 0 0 29 0 0 22 0 0 22 0 0 26 0 0 22 0 0 13 0 0 23 0 0 25 0 0 21 0 0 28 0 0 18 0 0 25 0 0 35 0 0 17 0 0 24 0 0 20 0 0 24 0 0 15 0 0 24 0 0 20 0 0 22 0 0 33 0 0 17 0 0 23 0 0 21 0 0 12 0 0 16 0 0 16 0 0 10 0 0 14 0 0 13 0 0 15 0 0 14 0 0 9 0 0 7 0 0 9 0 0 7 0 0 
6 0 0 13 0 0 12 0 0 6 0 0 6 0 0 11 0 0 16 0 0 10 0 0 15 0 0 16 0 0 18 0 0 20 0 0 18 0 0 29 0 0 20 0 0 26 0 0 26 0 0 21 0 0 29 0 0 21 0 0 28 0 0 26 0 0 30 0 0 35 0 0 29 0 0 28 0 0 28 0 0 19 0 0 25 0 0 30 0 0 25 0 0 27 0 0 33 0 0 32 0 0 30 0 0 32 0 0 26 0 0 26 0 0 31 0 0 17 0 0 27 0 0 22 0 0 25 0 0 22 0 0 27 0 0 24 0 0 27 0 0 24 0 0 13 0 0 25 0 0 11 0 0 20 0 0 12 0 0 16 0 0 19 0 0 12 0 0 10 0 0 7 0 0 12 0 0 12 0 0 
2 0 0 10 0 0 12 0 0 12 0 0 11 0 0 6 0 0 11 0 0 16 0 0 12 0 0 13 0 0 19 0 0 21 0 0 19 0 0 24 0 0 22 0 0 31 0 0 30 0 0 33 0 0 34 0 0 28 0 0 38 0 0 33 0 0 27 0 0 29 0 0 35 0 0 34 0 0 52 0 0 37 0 0 30 0 0 37 0 0 41 0 0 34 0 0 36 0 0 37 0 0 29 0 0 30 0 0 30 0 0 28 0 0 45 0 0 21 0 0 32 0 0 36 0 0 33 0 0 26 0 0 29 0 0 36 0 0 28 0 0 29 0 0 26 0 0 20 0 0 26 0 0 20 0 0 15 0 0 22 0 0 21 0 0 15 0 0 11 0 0 12 0 0 7 0 0 5 0 0 
6 0 0 6 0 0 11 0 0 14 0 0 14 0 0 11 0 0 9 0 0 11 0 0 16 0 0 20 0 0 20 0 0 26 0 0 31 0 0 30 0 0 29 0 0 32 0 0 33 0 0 43 0 0 40 0 0 38 0 0 53 0 0 45 0 0 34 0 0 35 0 0 43 0 0 41 0 0 50 0 0 56 0 0 54 0 0 46 0 0 58 0 0 42 0 0 41 0 0 38 0 0 39 0 0 43 0 0 39 0 0 46 0 0 42 0 0 41 0 0 45 0 0 46 0 0 42 0 0 42 0 0 42 0 0 48 0 0 44 0 0 36 0 0 32 0 0 35 0 0 26 0 0 21 0 0 12 0 0 16 0 0 16 0 0 12 0 0 11 0 0 10 0 0 8 0 0 6 0 0 
1 0 0 8 0 0 11 0 0 14 0 0 15 0 0 17 0 0 13 0 0 15 0 0 21 0 0 29 0 0 95 0 0 159 0 0 162 0 0 170 0 0 157 0 0 167 0 0 156 0 0 181 0 0 177 0 0 152 0 0 188 0 0 182 0 0 173 0 0 160 0 0 186 0 0 183 0 0 168 0 0 179 0 0 192 0 0 184 0 0 151 0 0 180 0 0 183 0 0 154 0 0 152 0 0 196 0 0 181 0 0 193 0 0 184 0 0 176 0 0 182 0 0 167 0 0 190 0 0 186 0 0 188 0 0 172 0 0 164 0 0 187 0 0 159 0 0 152 0 0 84 0 0 25 0 0 25 0 0 21 0 0 21 0 0 21 0 0 12 0 0 12 0 0 12 0 0 7 0 0 
5 0 0 12 0 0 7 0 0 13 0 0 14 0 0 13 0 0 20 0 0 22 0 0 19 0 0 95 0 0 6591 0 0 13310 0 0 13224 0 0 13426 0 0 13360 0 0 13467 0 0 13264 0 0 13368 0 0 13477 0 0 13458 0 0 13292 0 0 13399 0 0 13377 0 0 13261 0 0 13518 0 0 13457 0 0 13342 0 0 13356 0 0 13345 0 0 13293 0 0 13221 0 0 13404 0 0 13645 0 0 13414 0 0 13342 0 0 13224 0 0 13460 0 0 13421 0 0 13481 0 0 13270 0 0 13311 0 0 13229 0 0 13330 0 0 13474 0 0 13215 0 0 13427 0 0 13406 0 0 13454 0 0 13312 0 0 13174 0 0 6620 0 0 101 0 0 25 0 0 27 0 0 25 0 0 21 0 0 14 0 0 14 0 0 8 0 0 8 0 0 
2 0 0 4 0 0 13 0 0 8 0 0 14 0 0 17 0 0 20 0 0 17 0 0 29 0 0 173 0 0 13178 0 0 26364 0 0 26321 0 0 26489 0 0 26488 0 0 26491 0 0 26512 0 0 26622 0 0 26515 0 0 26575 0 0 26581 0 0 26613 0 0 26481 0 0 26360 0 0 26336 0 0 26707 0 0 26679 0 0 26440 0 0 26579 0 0 26310 0 0 26710 0 0 26598 0 0 26512 0 0 26587 0 0 26516 0 0 26393 0 0 26504 0 0 26446 0 0 26709 0 0 26380 0 0 26553 0 0 26335 0 0 26413 0 0 26530 0 0 26488 0 0 26797 0 0 26689 0 0 26409 0 0 26261 0 0 26234 0 0 13230 0 0 161 0 0 31 0 0 24 0 0 19 0 0 19 0 0 13 0 0 13 0 0 7 0 0 7 0 0 
3 0 0 8 0 0 11 0 0 11 0 0 8 0 0 12 0 0 19 0 0 22 0 0 24 0 0 160 0 0 13425 0 0 26531 0 0 26660 0 0 26936 0 0 26534 0 0 26399 0 0 26643 0 0 26786 0 0 26812 0 0 26569 0 0 26731 0 0 27003 0 0 26728 0 0 26675 0 0 26838 0 0 26552 0 0 26703 0 0 26704 0 0 26732 0 0 26834 0 0 26704 0 0 26859 0 0 26547 0 0 26717 0 0 26566 0 0 26342 0 0 26945 0 0 26761 0 0 26616 0 0 26694 0 0 26880 0 0 27004 0 0 26769 0 0 26556 0 0 26795 0 0 26794 0 0 26729 0 0 26686 0 0 26625 0 0 26638 0 0 13401 0 0 161 0 0 32 0 0 29 0 0 19 0 0 21 0 0 13 0 0 9 0 0 10 0 0 7 0 0 
5 0 0 9 0 0 10 0 0 10 0 0 11 0 0 19 0 0 19 0 0 35 0 0 42 0 0 158 0 0 13401 0 0 26297 0 0 26584 0 0 26700 0 0 26781 0 0 26930 0 0 26720 0 0 26636 0 0 26471 0 0 26642 0 0 26804 0 0 26468 0 0 26345 0 0 26620 0 0 26553 0 0 26471 0 0 26779 0 0 26623 0 0 26714 0 0 26855 0 0 26628 0 0 26992 0 0 26555 0 0 26686 0 0 26659 0 0 26769 0 0 26734 0 0 26677 0 0 26982 0 0 26798 0 0 26752 0 0 26829 0 0 26600 0 0 26883 0 0 26655 0 0 26670 0 0 26621 0 0 26696 0 0 27002 0 0 26318 0 0 13431 0 0 181 0 0 37 0 0 26 0 0 20 0 0 19 0 0 15 0 0 12 0 0 9 0 0 7 0 0 
4 0 0 10 0 0 7 0 0 7 0 0 15 0 0 18 0 0 22 0 0 25 0 0 33 0 0 175 0 0 13378 0 0 26536 0 0 26667 0 0 26922 0 0 26439 0 0 26552 0 0 26398 0 0 26675 0 0 26630 0 0 26624 0 0 26529 0 0 26665 0 0 26583 0 0 26552 0 0 26599 0 0 26564 0 0 26704 0 0 26863 0 0 26784 0 0 26669 0 0 26758 0 0 26921 0 0 26820 0 0 26767 0 0 26500 0 0 26678 0 0 26669 0 0 26720 0 0 26584 0 0 26398 0 0 26503 0 0 26998 0 0 26642 0 0 26799 0 0 26922 0 0 26662 0 0 26554 0 0 26603 0 0 26652 0 0 26405 0 0 13524 0 0 170 0 0 32 0 0 26 0 0 19 0 0 14 0 0 13 0 0 6 0 0 5 0 0 6 0 0 
5 0 0 7 0 0 13 0 0 12 0 0 12 0 0 11 0 0 15 0 0 27 0 0 27 0 0 162 0 0 13366 0 0 26489 0 0 26784 0 0 26824 0 0 26810 0 0 26903 0 0 26691 0 0 26890 0 0 26780 0 0 26471 0 0 26776 0 0 26607 0 0 26865 0 0 26396 0 0 26608 0 0 26745 0 0 26711 0 0 26510 0 0 26708 0 0 26536 0 0 26695 0 0 26598 0 0 26831 0 0 26650 0 0 26668 0 0 26619 0 0 26853 0 0 26677 0 0 26835 0 0 26525 0 0 26619 0 0 26511 0 0 26712 0 0 26528 0 0 26947 0 0 26776 0 0 26655 0 0 27060 0 0 26589 0 0 26582 0 0 13498 0 0 144 0 0 32 0 0 31 0 0 21 0 0 16 0 0 16 0 0 13 0 0 12 0 0 14 0 0 
4 0 0 9 0 0 10 0 0 15 0 0 17 0 0 21 0 0 22 0 0 38 0 0 37 0 0 176 0 0 13498 0 0 26807 0 0 26696 0 0 26501 0 0 26669 0 0 26659 0 0 26465 0 0 26682 0 0 26856 0 0 26452 0 0 26462 0 0 26520 0 0 26652 0 0 26734 0 0 26529 0 0 26413 0 0 26533 0 0 26687 0 0 26819 0 0 26688 0 0 26807 0 0 26567 0 0 26796 0 0 26761 0 0 26445 0 0 26595 0 0 26478 0 0 26681 0 0 26612 0 0 26780 0 0 26544 0 0 27028 0 0 26659 0 0 26627 0 0 27103 0 0 26529 0 0 26770 0 0 26743 0 0 26842 0 0 26509 0 0 13320 0 0 159 0 0 36 0 0 30 0 0 14 0 0 12 0 0 16 0 0 12 0 0 12 0 0 12 0 0 
4 0 0 12 0 0 19 0 0 16 0 0 16 0 0 24 0 0 30 0 0 42 0 0 50 0 0 190 0 0 13515 0 0 26455 0 0 26561 0 0 26902 0 0 26627 0 0 26545 0 0 26695 0 0 26783 0 0 26472 0 0 26276 0 0 26703 0 0 26622 0 0 26611 0 0 26867 0 0 26780 0 0 26746 0 0 26571 0 0 26846 0 0 26806 0 0 26757 0 0 26645 0 0 26631 0 0 26783 0 0 26658 0 0 26794 0 0 26550 0 0 26422 0 0 26593 0 0 26698 0 0 26902 0 0 26948 0 0 26481 0 0 26752 0 0 26812 0 0 26639 0 0 26558 0 0 26518 0 0 26832 0 0 26335 0 0 26434 0 0 13493 0 0 164 0 0 44 0 0 31 0 0 27 0 0 20 0 0 17 0 0 15 0 0 17 0 0 14 0 0 
7 0 0 13 0 0 15 0 0 14 0 0 14 0 0 23 0 0 29 0 0 38 0 0 45 0 0 166 0 0 13275 0 0 26415 0 0 26763 0 0 26832 0 0 26761 0 0 26598 0 0 26619 0 0 26597 0 0 26706 0 0 26687 0 0 26603 0 0 26605 0 0 26625 0 0 26493 0 0 26680 0 0 26835 0 0 26494 0 0 26888 0 0 26678 0 0 26614 0 0 26916 0 0 26814 0 0 26643 0 0 26573 0 0 26902 0 0 26692 0 0 26754 0 0 26681 0 0 26727 0 0 26653 0 0 26681 0 0 26791 0 0 26715 0 0 26679 0 0 26699 0 0 26687 0 0 26819 0 0 26775 0 0 26747 0 0 26653 0 0 13195 0 0 170 0 0 48 0 0 45 0 0 33 0 0 25 0 0 21 0 0 13 0 0 13 0 0 14 0 0 
3 0 0 10 0 0 8 0 0 18 0 0 17 0 0 22 0 0 21 0 0 34 0 0 56 0 0 183 0 0 13383 0 0 26691 0 0 26599 0 0 26548 0 0 26694 0 0 26623 0 0 26794 0 0 26682 0 0 26639 0 0 26894 0 0 26682 0 0 26786 0 0 26827 0 0 26396 0 0 26501 0 0 26575 0 0 26692 0 0 26693 0 0 26603 0 0 26928 0 0 26559 0 0 27063 0 0 26437 0 0 26648 0 0 26811 0 0 26863 0 0 26756 0 0 26809 0 0 26747 0 0 26763 0 0 26586 0 0 26563 0 0 26739 0 0 26812 0 0 26629 0 0 26732 0 0 26955 0 0 26757 0 0 26787 0 0 26852 0 0 13292 0 0 191 0 0 49 0 0 37 0 0 27 0 0 25 0 0 22 0 0 12 0 0 12 0 0 13 0 0 
3 0 0 12 0 0 11 0 0 13 0 0 12 0 0 24 0 0 31 0 0 41 0 0 56 0 0 196 0 0 13361 0 0 26505 0 0 26734 0 0 26586 0 0 26614 0 0 26747 0 0 26731 0 0 26669 0 0 26625 0 0 26629 0 0 26489 0 0 26604 0 0 26486 0 0 26738 0 0 26839 0 0 26791 0 0 26549 0 0 26663 0 0 26802 0 0 26775 0 0 26646 0 0 27097 0 0 26585 0 0 26698 0 0 26554 0 0 26525 0 0 26566 0 0 26652 0 0 26442 0 0 26780 0 0 26522 0 0 26643 0 0 26698 0 0 26739 0 0 26460 0 0 26681 0 0 26699 0 0 26583 0 0 26872 0 0 26675 0 0 13312 0 0 179 0 0 52 0 0 35 0 0 33 0 0 24 0 0 22 0 0 19 0 0 15 0 0 13 0 0 
9 0 0 19 0 0 13 0 0 15 0 0 23 0 0 21 0 0 24 0 0 35 0 0 42 0 0 182 0 0 13353 0 0 26517 0 0 26823 0 0 26754 0 0 26736 0 0 26795 0 0 26859 0 0 26653 0 0 26739 0 0 26610 0 0 26646 0 0 26486 0 0 26894 0 0 26797 0 0 26866 0 0 26461 0 0 26731 0 0 26848 0 0 26894 0 0 26503 0 0 26591 0 0 26870 0 0 27016 0 0 26660 0 0 26843 0 0 26836 0 0 26742 0 0 26735 0 0 26927 0 0 26764 0 0 26763 0 0 26775 0 0 26837 0 0 26738 0 0 26515 0 0 26548 0 0 26502 0 0 26922 0 0 26675 0 0 26516 0 0 13371 0 0 188 0 0 52 0 0 37 0 0 24 0 0 21 0 0 16 0 0 12 0 0 12 0 0 10 0 0 
5 0 0 12 0 0 19 0 0 18 0 0 17 0 0 20 0 0 28 0 0 44 0 0 54 0 0 165 0 0 13374 0 0 26747 0 0 26708 0 0 26722 0 0 26760 0 0 26841 0 0 26529 0 0 26528 0 0 26803 0 0 26575 0 0 26878 0 0 26665 0 0 26412 0 0 26736 0 0 26656 0 0 26753 0 0 26711 0 0 26789 0 0 26726 0 0 26669 0 0 26713 0 0 26755 0 0 26743 0 0 27137 0 0 27021 0 0 26985 0 0 26734 0 0 26707 0 0 26592 0 0 26608 0 0 26866 0 0 26810 0 0 26866 0 0 26661 0 0 26678 0 0 26888 0 0 26664 0 0 26746 0 0 26334 0 0 26390 0 0 13384 0 0 192 0 0 51 0 0 31 0 0 31 0 0 32 0 0 16 0 0 14 0 0 11 0 0 13 0 0 
4 0 0 18 0 0 10 0 0 16 0 0 13 0 0 24 0 0 32 0 0 28 0 0 35 0 0 186 0 0 13327 0 0 26401 0 0 26423 0 0 26606 0 0 26749 0 0 26608 0 0 26543 0 0 26433 0 0 26589 0 0 26802 0 0 27006 0 0 26948 0 0 26588 0 0 26516 0 0 26721 0 0 26596 0 0 26599 0 0 26473 0 0 26705 0 0 26753 0 0 26795 0 0 26832 0 0 26746 0 0 26869 0 0 26580 0 0 26433 0 0 26620 0 0 26367 0 0 26762 0 0 27000 0 0 26600 0 0 26591 0 0 26515 0 0 26530 0 0 26507 0 0 26792 0 0 26767 0 0 26611 0 0 26654 0 0 26557 0 0 13277 0 0 179 0 0 47 0 0 35 0 0 31 0 0 18 0 0 17 0 0 8 0 0 12 0 0 11 0 0 
8 0 0 11 0 0 12 0 0 9 0 0 15 0 0 17 0 0 32 0 0 36 0 0 41 0 0 186 0 0 13574 0 0 26636 0 0 26634 0 0 26754 0 0 26667 0 0 26457 0 0 26735 0 0 27017 0 0 26876 0 0 26748 0 0 26969 0 0 26671 0 0 26793 0 0 26813 0 0 26862 0 0 26733 0 0 26575 0 0 26641 0 0 26619 0 0 26804 0 0 26956 0 0 26678 0 0 26478 0 0 26772 0 0 26492 0 0 26602 0 0 26812 0 0 26652 0 0 26746 0 0 26793 0 0 26699 0 0 26816 0 0 26724 0 0 26776 0 0 26613 0 0 26774 0 0 26827 0 0 26692 0 0 26733 0 0 26331 0 0 13334 0 0 178 0 0 47 0 0 46 0 0 30 0 0 20 0 0 16 0 0 9 0 0 7 0 0 12 0 0 
11 0 0 16 0 0 15 0 0 22 0 0 18 0 0 17 0 0 26 0 0 42 0 0 49 0 0 173 0 0 13465 0 0 26321 0 0 26862 0 0 26761 0 0 26741 0 0 26735 0 0 26826 0 0 26782 0 0 26653 0 0 26562 0 0 26876 0 0 26928 0 0 26623 0 0 26570 0 0 27096 0 0 26603 0 0 26721 0 0 26699 0 0 26424 0 0 26607 0 0 26582 0 0 26949 0 0 26541 0 0 26779 0 0 26764 0 0 26690 0 0 26778 0 0 26691 0 0 26584 0 0 26818 0 0 26922 0 0 26626 0 0 26705 0 0 26530 0 0 26805 0 0 26711 0 0 26422 0 0 26487 0 0 26542 0 0 26301 0 0 13451 0 0 178 0 0 41 0 0 38 0 0 32 0 0 23 0 0 16 0 0 19 0 0 18 0 0 12 0 0 
9 0 0 20 0 0 17 0 0 16 0 0 16 0 0 20 0 0 29 0 0 37 0 0 51 0 0 179 0 0 13321 0 0 26528 0 0 26546 0 0 26519 0 0 26812 0 0 26694 0 0 26693 0 0 26434 0 0 26900 0 0 26881 0 0 26632 0 0 26602 0 0 26718 0 0 26745 0 0 26706 0 0 26780 0 0 26712 0 0 26668 0 0 26873 0 0 26601 0 0 26728 0 0 26697 0 0 26736 0 0 26844 0 0 26503 0 0 26844 0 0 26824 0 0 26769 0 0 26612 0 0 26803 0 0 26675 0 0 26574 0 0 26688 0 0 26914 0 0 26666 0 0 26931 0 0 26813 0 0 26785 0 0 26684 0 0 26581 0 0 13421 0 0 171 0 0 55 0 0 37 0 0 24 0 0 17 0 0 17 0 0 18 0 0 17 0 0 15 0 0 
7 0 0 18 0 0 16 0 0 22 0 0 26 0 0 18 0 0 21 0 0 35 0 0 46 0 0 173 0 0 13341 0 0 26509 0 0 26498 0 0 26675 0 0 26554 0 0 26790 0 0 26741 0 0 27000 0 0 26620 0 0 26895 0 0 26732 0 0 26450 0 0 26952 0 0 26546 0 0 26628 0 0 26957 0 0 26738 0 0 26693 0 0 26879 0 0 26595 0 0 26588 0 0 26806 0 0 26516 0 0 26656 0 0 26758 0 0 26691 0 0 26912 0 0 26597 0 0 26634 0 0 27092 0 0 26573 0 0 26700 0 0 27143 0 0 26920 0 0 26671 0 0 26694 0 0 26750 0 0 26688 0 0 26640 0 0 26412 0 0 13415 0 0 181 0 0 44 0 0 48 0 0 36 0 0 22 0 0 19 0 0 14 0 0 16 0 0 12 0 0 
4 0 0 10 0 0 15 0 0 17 0 0 15 0 0 28 0 0 24 0 0 24 0 0 45 0 0 195 0 0 13369 0 0 26388 0 0 26670 0 0 26870 0 0 26903 0 0 26768 0 0 26873 0 0 26501 0 0 26556 0 0 26841 0 0 26525 0 0 26713 0 0 26785 0 0 26786 0 0 26877 0 0 26754 0 0 26777 0 0 26774 0 0 26648 0 0 26461 0 0 26949 0 0 26661 0 0 26735 0 0 26604 0 0 26793 0 0 26517 0 0 26949 0 0 26909 0 0 26784 0 0 26712 0 0 26910 0 0 26986 0 0 26944 0 0 26748 0 0 26595 0 0 26549 0 0 26671 0 0 26697 0 0 26891 0 0 26493 0 0 13353 0 0 154 0 0 38 0 0 32 0 0 31 0 0 23 0 0 17 0 0 12 0 0 11 0 0 17 0 0 
3 0 0 10 0 0 19 0 0 20 0 0 33 0 0 27 0 0 27 0 0 34 0 0 39 0 0 178 0 0 13410 0 0 26615 0 0 26597 0 0 26778 0 0 26642 0 0 26969 0 0 26677 0 0 26653 0 0 26686 0 0 26646 0 0 26550 0 0 26862 0 0 26833 0 0 26688 0 0 26769 0 0 26702 0 0 26798 0 0 26708 0 0 26636 0 0 26540 0 0 26729 0 0 26673 0 0 26550 0 0 26696 0 0 26577 0 0 26713 0 0 26854 0 0 26534 0 0 26722 0 0 26662 0 0 27029 0 0 27027 0 0 26834 0 0 26696 0 0 26992 0 0 26631 0 0 26798 0 0 26711 0 0 26563 0 0 26466 0 0 13348 0 0 179 0 0 54 0 0 38 0 0 28 0 0 32 0 0 26 0 0 19 0 0 18 0 0 13 0 0 
5 0 0 10 0 0 12 0 0 21 0 0 22 0 0 30 0 0 29 0 0 35 0 0 57 0 0 171 0 0 13386 0 0 26606 0 0 26600 0 0 26780 0 0 26502 0 0 27064 0 0 26779 0 0 26817 0 0 26530 0 0 26959 0 0 26807 0 0 26892 0 0 26730 0 0 26578 0 0 26646 0 0 26556 0 0 26788 0 0 26515 0 0 26733 0 0 26506 0 0 26956 0 0 26744 0 0 26738 0 0 26819 0 0 26451 0 0 26786 0 0 26784 0 0 26904 0 0 26786 0 0 26984 0 0 26692 0 0 26651 0 0 26441 0 0 26492 0 0 26687 0 0 26860 0 0 26700 0 0 26731 0 0 26552 0 0 26497 0 0 13318 0 0 158 0 0 47 0 0 34 0 0 27 0 0 22 0 0 25 0 0 25 0 0 18 0 0 18 0 0 
2 0 0 8 0 0 14 0 0 16 0 0 21 0 0 23 0 0 33 0 0 38 0 0 59 0 0 176 0 0 13161 0 0 26516 0 0 26626 0 0 26612 0 0 26925 0 0 26807 0 0 26751 0 0 26725 0 0 26658 0 0 26772 0 0 26667 0 0 26828 0 0 26625 0 0 26459 0 0 26731 0 0 26593 0 0 26793 0 0 26747 0 0 26697 0 0 26823 0 0 26639 0 0 26691 0 0 26792 0 0 26630 0 0 26926 0 0 26691 0 0 26644 0 0 26669 0 0 26618 0 0 26940 0 0 26511 0 0 26629 0 0 26829 0 0 26985 0 0 26769 0 0 26651 0 0 26767 0 0 26499 0 0 26484 0 0 26666 0 0 13327 0 0 182 0 0 46 0 0 29 0 0 22 0 0 24 0 0 27 0 0 19 0 0 19 0 0 14 0 0 
4 0 0 9 0 0 13 0 0 18 0 0 18 0 0 22 0 0 27 0 0 31 0 0 54 0 0 197 0 0 13131 0 0 26397 0 0 26800 0 0 26769 0 0 26415 0 0 26502 0 0 26870 0 0 26688 0 0 26711 0 0 26795 0 0 26578 0 0 26627 0 0 26836 0 0 26716 0 0 27094 0 0 26609 0 0 26616 0 0 26425 0 0 26521 0 0 26763 0 0 26745 0 0 26899 0 0 26709 0 0 26812 0 0 26478 0 0 26588 0 0 26581 0 0 26792 0 0 26351 0 0 26740 0 0 26607 0 0 26699 0 0 26608 0 0 26736 0 0 26699 0 0 26548 0 0 26870 0 0 26565 0 0 26772 0 0 26615 0 0 13433 0 0 179 0 0 40 0 0 28 0 0 28 0 0 29 0 0 22 0 0 18 0 0 13 0 0 14 0 0 
5 0 0 12 0 0 18 0 0 14 0 0 21 0 0 18 0 0 25 0 0 35 0 0 35 0 0 173 0 0 13280 0 0 26454 0 0 26655 0 0 26793 0 0 26660 0 0 26524 0 0 26471 0 0 26924 0 0 26605 0 0 26666 0 0 26591 0 0 26759 0 0 26608 0 0 26594 0 0 26789 0 0 26714 0 0 26682 0 0 26670 0 0 26778 0 0 26645 0 0 26880 0 0 26603 0 0 26611 0 0 26762 0 0 26617 0 0 26723 0 0 26643 0 0 26857 0 0 27068 0 0 26860 0 0 26665 0 0 26677 0 0 26654 0 0 26780 0 0 26800 0 0 26689 0 0 26686 0 0 26678 0 0 26417 0 0 26457 0 0 13433 0 0 180 0 0 38 0 0 33 0 0 29 0 0 22 0 0 24 0 0 22 0 0 9 0 0 7 0 0 
4 0 0 17 0 0 19 0 0 23 0 0 14 0 0 23 0 0 35 0 0 37 0 0 60 0 0 186 0 0 13401 0 0 26603 0 0 26832 0 0 26713 0 0 26604 0 0 26775 0 0 26913 0 0 26801 0 0 26928 0 0 26537 0 0 26651 0 0 26786 0 0 26487 0 0 26698 0 0 26671 0 0 26648 0 0 26565 0 0 26744 0 0 26730 0 0 26808 0 0 26898 0 0 26745 0 0 26739 0 0 26671 0 0 26829 0 0 26633 0 0 26724 0 0 26653 0 0 26685 0 0 26959 0 0 26880 0 0 26821 0 0 26588 0 0 26832 0 0 26909 0 0 26583 0 0 26943 0 0 26630 0 0 26684 0 0 26560 0 0 13209 0 0 187 0 0 37 0 0 23 0 0 19 0 0 29 0 0 12 0 0 19 0 0 14 0 0 11 0 0 
9 0 0 17 0 0 18 0 0 20 0 0 17 0 0 26 0 0 30 0 0 44 0 0 40 0 0 170 0 0 13125 0 0 26685 0 0 26772 0 0 26664 0 0 26844 0 0 26877 0 0 26379 0 0 26809 0 0 26670 0 0 26519 0 0 26835 0 0 26582 0 0 26904 0 0 26711 0 0 26783 0 0 26770 0 0 26860 0 0 26647 0 0 26636 0 0 26586 0 0 26881 0 0 26504 0 0 26698 0 0 26869 0 0 26781 0 0 26744 0 0 26757 0 0 26890 0 0 26605 0 0 26755 0 0 26976 0 0 26583 0 0 26551 0 0 26694 0 0 26737 0 0 26809 0 0 26655 0 0 26675 0 0 26552 0 0 26669 0 0 13300 0 0 178 0 0 44 0 0 27 0 0 21 0 0 25 0 0 24 0 0 8 0 0 18 0 0 13 0 0 
9 0 0 14 0 0 17 0 0 16 0 0 25 0 0 25 0 0 33 0 0 35 0 0 47 0 0 173 0 0 13254 0 0 26561 0 0 26465 0 0 26735 0 0 26719 0 0 26825 0 0 26778 0 0 26594 0 0 26591 0 0 26752 0 0 26991 0 0 26820 0 0 26734 0 0 26667 0 0 26834 0 0 26660 0 0 26785 0 0 26784 0 0 26711 0 0 26674 0 0 26847 0 0 26599 0 0 26551 0 0 26867 0 0 26854 0 0 26945 0 0 26440 0 0 26757 0 0 26863 0 0 26694 0 0 26625 0 0 26901 0 0 26577 0 0 26758 0 0 26939 0 0 26848 0 0 26540 0 0 26618 0 0 26686 0 0 26220 0 0 13451 0 0 185 0 0 48 0 0 40 0 0 31 0 0 31 0 0 24 0 0 23 0 0 13 0 0 12 0 0 
5 0 0 16 0 0 11 0 0 25 0 0 22 0 0 22 0 0 19 0 0 32 0 0 46 0 0 178 0 0 13409 0 0 26612 0 0 26575 0 0 26692 0 0 26911 0 0 26807 0 0 26728 0 0 26723 0 0 26654 0 0 26501 0 0 26638 0 0 26850 0 0 26560 0 0 26824 0 0 26880 0 0 26587 0 0 26818 0 0 26844 0 0 26819 0 0 26449 0 0 26572 0 0 26822 0 0 26814 0 0 26944 0 0 26689 0 0 26749 0 0 26715 0 0 26775 0 0 26859 0 0 26686 0 0 26714 0 0 26408 0 0 26616 0 0 26498 0 0 26593 0 0 26753 0 0 26667 0 0 26717 0 0 26497 0 0 26613 0 0 13202 0 0 163 0 0 38 0 0 32 0 0 32 0 0 26 0 0 21 0 0 18 0 0 23 0 0 20 0 0 
10 0 0 19 0 0 23 0 0 16 0 0 17 0 0 19 0 0 32 0 0 32 0 0 39 0 0 175 0 0 13453 0 0 26810 0 0 26547 0 0 26741 0 0 26837 0 0 26911 0 0 26577 0 0 26972 0 0 26838 0 0 26861 0 0 26865 0 0 26824 0 0 26816 0 0 26803 0 0 26564 0 0 26669 0 0 26772 0 0 26608 0 0 26758 0 0 26675 0 0 26708 0 0 26772 0 0 26501 0 0 26682 0 0 26764 0 0 26570 0 0 27052 0 0 26839 0 0 26659 0 0 26603 0 0 26576 0 0 26499 0 0 26759 0 0 26747 0 0 26454 0 0 26494 0 0 26606 0 0 26806 0 0 26703 0 0 26761 0 0 13363 0 0 157 0 0 43 0 0 29 0 0 23 0 0 24 0 0 26 0 0 17 0 0 13 0 0 14 0 0 
5 0 0 10 0 0 17 0 0 21 0 0 29 0 0 31 0 0 31 0 0 31 0 0 49 0 0 196 0 0 13313 0 0 26413 0 0 26470 0 0 26542 0 0 27007 0 0 26648 0 0 26714 0 0 26850 0 0 26894 0 0 26711 0 0 26409 0 0 26826 0 0 26593 0 0 26721 0 0 26920 0 0 26732 0 0 26412 0 0 26631 0 0 26434 0 0 26804 0 0 26672 0 0 26822 0 0 26622 0 0 26571 0 0 26445 0 0 26550 0 0 26606 0 0 26735 0 0 26608 0 0 26703 0 0 26622 0 0 26602 0 0 26629 0 0 27034 0 0 26639 0 0 26804 0 0 26885 0 0 26539 0 0 26833 0 0 26796 0 0 13407 0 0 167 0 0 44 0 0 35 0 0 30 0 0 19 0 0 23 0 0 17 0 0 21 0 0 17 0 0 
9 0 0 17 0 0 16 0 0 18 0 0 17 0 0 22 0 0 24 0 0 41 0 0 45 0 0 145 0 0 13274 0 0 26426 0 0 26739 0 0 26838 0 0 26833 0 0 26511 0 0 26607 0 0 26570 0 0 26651 0 0 26627 0 0 26796 0 0 26579 0 0 26696 0 0 26986 0 0 26658 0 0 26751 0 0 26606 0 0 26872 0 0 26701 0 0 26840 0 0 26890 0 0 26605 0 0 26754 0 0 26943 0 0 26769 0 0 26718 0 0 26706 0 0 26942 0 0 26771 0 0 26518 0 0 26801 0 0 26765 0 0 26468 0 0 26659 0 0 26988 0 0 26614 0 0 26538 0 0 26657 0 0 26730 0 0 26722 0 0 13401 0 0 159 0 0 42 0 0 36 0 0 27 0 0 24 0 0 19 0 0 15 0 0 14 0 0 18 0 0 
5 0 0 10 0 0 13 0 0 11 0 0 14 0 0 15 0 0 20 0 0 34 0 0 47 0 0 169 0 0 13500 0 0 26648 0 0 26556 0 0 26609 0 0 26531 0 0 26531 0 0 26724 0 0 26466 0 0 26745 0 0 26543 0 0 26818 0 0 26652 0 0 26698 0 0 26581 0 0 26652 0 0 26841 0 0 26808 0 0 26738 0 0 26674 0 0 26822 0 0 26746 0 0 26638 0 0 26527 0 0 26585 0 0 26757 0 0 26610 0 0 26531 0 0 26711 0 0 26917 0 0 26762 0 0 26801 0 0 26826 0 0 26617 0 0 26743 0 0 26632 0 0 26907 0 0 26595 0 0 26830 0 0 26599 0 0 26485 0 0 13317 0 0 171 0 0 46 0 0 28 0 0 22 0 0 20 0 0 12 0 0 9 0 0 14 0 0 11 0 0 
6 0 0 10 0 0 12 0 0 11 0 0 17 0 0 17 0 0 19 0 0 25 0 0 33 0 0 163 0 0 13170 0 0 26313 0 0 26726 0 0 26645 0 0 26935 0 0 26630 0 0 26925 0 0 26725 0 0 26371 0 0 26845 0 0 26411 0 0 26520 0 0 26613 0 0 26851 0 0 26826 0 0 26820 0 0 26728 0 0 26614 0 0 26559 0 0 26852 0 0 26919 0 0 27018 0 0 26676 0 0 26483 0 0 26817 0 0 26841 0 0 27033 0 0 26894 0 0 26685 0 0 26483 0 0 26761 0 0 26774 0 0 26617 0 0 26674 0 0 26712 0 0 26345 0 0 26561 0 0 26471 0 0 26527 0 0 26531 0 0 13457 0 0 177 0 0 35 0 0 24 0 0 23 0 0 19 0 0 28 0 0 23 0 0 15 0 0 16 0 0 
5 0 0 8 0 0 16 0 0 17 0 0 23 0 0 17 0 0 20 0 0 28 0 0 42 0 0 160 0 0 13368 0 0 26465 0 0 26694 0 0 26725 0 0 26992 0 0 26733 0 0 26748 0 0 26711 0 0 26629 0 0 26833 0 0 26748 0 0 26674 0 0 26802 0 0 26602 0 0 26708 0 0 26654 0 0 26725 0 0 26692 0 0 26824 0 0 26689 0 0 26592 0 0 26595 0 0 26744 0 0 26951 0 0 26616 0 0 26522 0 0 26703 0 0 26578 0 0 26658 0 0 26806 0 0 26841 0 0 26964 0 0 26620 0 0 26531 0 0 26748 0 0 26555 0 0 26793 0 0 26768 0 0 26645 0 0 26301 0 0 13360 0 0 179 0 0 46 0 0 33 0 0 18 0 0 19 0 0 17 0 0 24 0 0 15 0 0 12 0 0 
6 0 0 13 0 0 18 0 0 19 0 0 15 0 0 16 0 0 23 0 0 30 0 0 34 0 0 175 0 0 13328 0 0 26536 0 0 26794 0 0 26760 0 0 26633 0 0 27002 0 0 26916 0 0 26571 0 0 26703 0 0 26626 0 0 26737 0 0 26700 0 0 26909 0 0 26737 0 0 26615 0 0 26636 0 0 26784 0 0 26687 0 0 26531 0 0 26797 0 0 26548 0 0 26434 0 0 26581 0 0 26897 0 0 26909 0 0 26870 0 0 26625 0 0 26565 0 0 26747 0 0 26540 0 0 26759 0 0 26912 0 0 26767 0 0 26838 0 0 26654 0 0 26535 0 0 26652 0 0 26698 0 0 26594 0 0 26799 0 0 13296 0 0 172 0 0 43 0 0 25 0 0 37 0 0 21 0 0 25 0 0 16 0 0 10 0 0 14 0 0 
4 0 0 16 0 0 13 0 0 16 0 0 15 0 0 12 0 0 16 0 0 35 0 0 41 0 0 185 0 0 13284 0 0 26383 0 0 26611 0 0 26488 0 0 26477 0 0 26908 0 0 26564 0 0 26729 0 0 26716 0 0 26718 0 0 26762 0 0 26671 0 0 26659 0 0 26658 0 0 26745 0 0 26694 0 0 26823 0 0 26908 0 0 26726 0 0 26639 0 0 26561 0 0 26645 0 0 26493 0 0 26400 0 0 26932 0 0 26767 0 0 26753 0 0 26594 0 0 26806 0 0 26400 0 0 26775 0 0 26738 0 0 26717 0 0 26684 0 0 26656 0 0 26594 0 0 26680 0 0 26901 0 0 26788 0 0 26105 0 0 13347 0 0 166 0 0 48 0 0 16 0 0 14 0 0 26 0 0 27 0 0 21 0 0 15 0 0 9 0 0 
9 0 0 13 0 0 12 0 0 14 0 0 9 0 0 18 0 0 22 0 0 24 0 0 43 0 0 158 0 0 13138 0 0 26665 0 0 26876 0 0 26566 0 0 27102 0 0 26664 0 0 26858 0 0 26745 0 0 26821 0 0 26754 0 0 26540 0 0 26925 0 0 27005 0 0 26610 0 0 26679 0 0 26539 0 0 26774 0 0 27041 0 0 26581 0 0 26718 0 0 27038 0 0 26574 0 0 26675 0 0 26779 0 0 26974 0 0 26844 0 0 26664 0 0 26682 0 0 26628 0 0 26841 0 0 26869 0 0 26826 0 0 26867 0 0 26835 0 0 26783 0 0 26595 0 0 26715 0 0 26696 0 0 26660 0 0 26639 0 0 13621 0 0 185 0 0 53 0 0 39 0 0 28 0 0 16 0 0 23 0 0 23 0 0 12 0 0 12 0 0 
6 0 0 10 0 0 12 0 0 14 0 0 20 0 0 19 0 0 18 0 0 20 0 0 30 0 0 168 0 0 13275 0 0 26564 0 0 26773 0 0 26834 0 0 26682 0 0 26711 0 0 26664 0 0 26520 0 0 26629 0 0 26547 0 0 26795 0 0 26827 0 0 26564 0 0 26850 0 0 26746 0 0 26846 0 0 26679 0 0 26664 0 0 26535 0 0 26707 0 0 26545 0 0 26718 0 0 26713 0 0 26685 0 0 26651 0 0 26760 0 0 26737 0 0 26687 0 0 26707 0 0 26738 0 0 26677 0 0 26608 0 0 26495 0 0 26815 0 0 26868 0 0 26698 0 0 26623 0 0 26563 0 0 26651 0 0 26476 0 0 13362 0 0 165 0 0 42 0 0 19 0 0 21 0 0 14 0 0 11 0 0 20 0 0 14 0 0 11 0 0 
4 0 0 7 0 0 8 0 0 13 0 0 17 0 0 13 0 0 16 0 0 23 0 0 43 0 0 167 0 0 13266 0 0 26705 0 0 26667 0 0 26530 0 0 26643 0 0 26841 0 0 26737 0 0 26985 0 0 26691 0 0 26766 0 0 26789 0 0 26728 0 0 26602 0 0 26734 0 0 26472 0 0 26557 0 0 26523 0 0 26435 0 0 26900 0 0 26943 0 0 26752 0 0 26563 0 0 26662 0 0 26693 0 0 26575 0 0 26742 0 0 26491 0 0 26747 0 0 26681 0 0 26537 0 0 26715 0 0 26525 0 0 26891 0 0 26770 0 0 26703 0 0 26588 0 0 26905 0 0 26680 0 0 26806 0 0 26659 0 0 13381 0 0 161 0 0 35 0 0 31 0 0 24 0 0 19 0 0 13 0 0 14 0 0 17 0 0 9 0 0 
3 0 0 9 0 0 12 0 0 12 0 0 12 0 0 13 0 0 23 0 0 24 0 0 32 0 0 151 0 0 13286 0 0 26194 0 0 26538 0 0 26556 0 0 26640 0 0 26809 0 0 26669 0 0 26641 0 0 26512 0 0 26389 0 0 26839 0 0 26696 0 0 26585 0 0 26800 0 0 26519 0 0 26594 0 0 26414 0 0 26637 0 0 26363 0 0 26454 0 0 26399 0 0 26669 0 0 26460 0 0 26639 0 0 26508 0 0 26593 0 0 26420 0 0 26694 0 0 26262 0 0 26581 0 0 26753 0 0 26595 0 0 26383 0 0 26682 0 0 26690 0 0 26778 0 0 26582 0 0 26732 0 0 26636 0 0 26403 0 0 13342 0 0 161 0 0 20 0 0 21 0 0 28 0 0 17 0 0 14 0 0 10 0 0 10 0 0 15 0 0 
3 0 0 9 0 0 8 0 0 11 0 0 11 0 0 12 0 0 19 0 0 18 0 0 23 0 0 93 0 0 6692 0 0 13193 0 0 13332 0 0 13353 0 0 13291 0 0 13429 0 0 13460 0 0 13305 0 0 13305 0 0 13365 0 0 13506 0 0 13353 0 0 13502 0 0 13345 0 0 13351 0 0 13502 0 0 13160 0 0 13326 0 0 13393 0 0 13266 0 0 13402 0 0 13182 0 0 13494 0 0 13260 0 0 13290 0 0 13404 0 0 13352 0 0 13431 0 0 13398 0 0 13467 0 0 13350 0 0 13355 0 0 13477 0 0 13242 0 0 13308 0 0 13262 0 0 13459 0 0 13258 0 0 13311 0 0 13161 0 0 6648 0 0 87 0 0 24 0 0 13 0 0 14 0 0 18 0 0 13 0 0 10 0 0 10 0 0 8 0 0 
3 0 0 7 0 0 12 0 0 14 0 0 11 0 0 14 0 0 14 0 0 21 0 0 24 0 0 38 0 0 95 0 0 142 0 0 136 0 0 160 0 0 176 0 0 172 0 0 159 0 0 171 0 0 163 0 0 194 0 0 187 0 0 168 0 0 174 0 0 177 0 0 197 0 0 195 0 0 159 0 0 175 0 0 170 0 0 170 0 0 190 0 0 160 0 0 165 0 0 186 0 0 171 0 0 198 0 0 171 0 0 163 0 0 183 0 0 185 0 0 163 0 0 190 0 0 167 0 0 197 0 0 160 0 0 158 0 0 166 0 0 170 0 0 170 0 0 157 0 0 101 0 0 34 0 0 25 0 0 25 0 0 20 0 0 13 0 0 14 0 0 11 0 0 6 0 0 7 0 0 
3 0 0 12 0 0 8 0 0 13 0 0 11 0 0 16 0 0 22 0 0 18 0 0 17 0 0 20 0 0 24 0 0 28 0 0 19 0 0 31 0 0 37 0 0 39 0 0 39 0 0 35 0 0 42 0 0 48 0 0 43 0 0 46 0 0 52 0 0 41 0 0 44 0 0 40 0 0 32 0 0 28 0 0 35 0 0 33 0 0 39 0 0 60 0 0 52 0 0 51 0 0 37 0 0 53 0 0 31 0 0 44 0 0 41 0 0 45 0 0 49 0 0 42 0 0 40 0 0 41 0 0 38 0 0 36 0 0 33 0 0 38 0 0 36 0 0 32 0 0 29 0 0 21 0 0 16 0 0 18 0 0 12 0 0 12 0 0 11 0 0 9 0 0 6 0 0 8 0 0 
1 0 0 4 0 0 12 0 0 9 0 0 12 0 0 12 0 0 17 0 0 11 0 0 10 0 0 9 0 0 16 0 0 20 0 0 20 0 0 23 0 0 26 0 0 23 0 0 31 0 0 24 0 0 31 0 0 30 0 0 50 0 0 35 0 0 29 0 0 45 0 0 33 0 0 34 0 0 25 0 0 27 0 0 30 0 0 26 0 0 31 0 0 36 0 0 39 0 0 39 0 0 26 0 0 30 0 0 26 0 0 30 0 0 34 0 0 32 0 0 28 0 0 30 0 0 34 0 0 33 0 0 28 0 0 27 0 0 24 0 0 29 0 0 28 0 0 20 0 0 18 0 0 21 0 0 20 0 0 19 0 0 12 0 0 8 0 0 10 0 0 8 0 0 9 0 0 4 0 0 
2 0 0 14 0 0 10 0 0 12 0 0 14 0 0 13 0 0 10 0 0 8 0 0 7 0 0 8 0 0 18 0 0 16 0 0 24 0 0 21 0 0 22 0 0 24 0 0 25 0 0 23 0 0 22 0 0 23 0 0 28 0 0 27 0 0 24 0 0 40 0 0 28 0 0 25 0 0 29 0 0 24 0 0 37 0 0 24 0 0 20 0 0 23 0 0 32 0 0 37 0 0 23 0 0 28 0 0 15 0 0 27 0 0 30 0 0 28 0 0 17 0 0 21 0 0 27 0 0 34 0 0 22 0 0 20 0 0 22 0 0 14 0 0 19 0 0 20 0 0 17 0 0 13 0 0 21 0 0 9 0 0 8 0 0 11 0 0 9 0 0 9 0 0 4 0 0 4 0 0 
4 0 0 8 0 0 11 0 0 8 0 0 14 0 0 8 0 0 7 0 0 9 0 0 9 0 0 11 0 0 13 0 0 14 0 0 18 0 0 19 0 0 12 0 0 18 0 0 22 0 0 17 0 0 16 0 0 30 0 0 28 0 0 26 0 0 23 0 0 19 0 0 26 0 0 18 0 0 21 0 0 21 0 0 28 0 0 24 0 0 16 0 0 26 0 0 29 0 0 24 0 0 22 0 0 22 0 0 21 0 0 21 0 0 21 0 0 27 0 0 18 0 0 13 0 0 20 0 0 28 0 0 23 0 0 18 0 0 19 0 0 18 0 0 18 0 0 15 0 0 17 0 0 12 0 0 9 0 0 14 0 0 5 0 0 4 0 0 7 0 0 9 0 0 9 0 0 7 0 0 
0 0 0 6 0 0 7 0 0 13 0 0 8 0 0 7 0 0 10 0 0 7 0 0 7 0 0 9 0 0 11 0 0 14 0 0 6 0 0 12 0 0 11 0 0 15 0 0 18 0 0 15 0 0 21 0 0 19 0 0 20 0 0 29 0 0 16 0 0 16 0 0 25 0 0 13 0 0 22 0 0 25 0 0 19 0 0 23 0 0 20 0 0 24 0 0 23 0 0 24 0 0 12 0 0 19 0 0 11 0 0 14 0 0 20 0 0 16 0 0 15 0 0 17 0 0 12 0 0 19 0 0 14 0 0 22 0 0 13 0 0 13 0 0 12 0 0 13 0 0 13 0 0 13 0 0 7 0 0 14 0 0 10 0 0 9 0 0 7 0 0 4 0 0 10 0 0 7 0 0 
2 0 0 7 0 0 11 0 0 5 0 0 11 0 0 7 0 0 6 0 0 3 0 0 4 0 0 12 0 0 9 0 0 12 0 0 4 0 0 7 0 0 8 0 0 11 0 0 12 0 0 13 0 0 16 0 0 16 0 0 18 0 0 21 0 0 15 0 0 18 0 0 13 0 0 19 0 0 18 0 0 18 0 0 17 0 0 23 0 0 16 0 0 19 0 0 18 0 0 19 0 0 15 0 0 13 0 0 9 0 0 19 0 0 18 0 0 11 0 0 15 0 0 24 0 0 13 0 0 15 0 0 12 0 0 12 0 0 13 0 0 12 0 0 14 0 0 13 0 0 9 0 0 13 0 0 8 0 0 11 0 0 14 0 0 10 0 0 12 0 0 7 0 0 8 0 0 6 0 0 
3 0 0 4 0 0 6 0 0 7 0 0 4 0 0 7 0 0 4 0 0 3 0 0 8 0 0 7 0 0 8 0 0 9 0 0 1 0 0 9 0 0 11 0 0 13 0 0 13 0 0 13 0 0 17 0 0 11 0 0 14 0 0 20 0 0 12 0 0 16 0 0 16 0 0 15 0 0 19 0 0 16 0 0 16 0 0 22 0 0 20 0 0 13 0 0 16 0 0 13 0 0 15 0 0 15 0 0 11 0 0 7 0 0 14 0 0 15 0 0 27 0 0 20 0 0 16 0 0 9 0 0 17 0 0 12 0 0 10 0 0 7 0 0 12 0 0 10 0 0 12 0 0 6 0 0 8 0 0 9 0 0 9 0 0 11 0 0 11 0 0 6 0 0 7 0 0 3 0 0 
1 0 0 6 0 0 8 0 0 4 0 0 7 0 0 5 0 0 8 0 0 7 0 0 8 0 0 7 0 0 8 0 0 3 0 0 6 0 0 8 0 0 8 0 0 13 0 0 10 0 0 12 0 0 14 0 0 4 0 0 12 0 0 10 0 0 13 0 0 14 0 0 14 0 0 13 0 0 14 0 0 17 0 0 8 0 0 13 0 0 15 0 0 12 0 0 20 0 0 10 0 0 11 0 0 10 0 0 12 0 0 13 0 0 7 0 0 15 0 0 19 0 0 16 0 0 14 0 0 10 0 0 12 0 0 14 0 0 7 0 0 5 0 0 7 0 0 10 0 0 10 0 0 9 0 0 7 0 0 7 0 0 8 0 0 6 0 0 5 0 0 9 0 0 5 0 0 6 0 0 
