P3
# This is a dose file slice at depth 95 of 100
60 60
# now we give the maximum value of the RGB coordinates.
34334
0 0 0 0 0 0 0 0 0 0 0 0 0 0 0 0 0 0 0 0 0 0 0 0 0 0 0 0 0 0 0 0 0 0 0 0 0 0 0 0 0 0 0 0 0 0 0 0 0 0 0 0 0 0 0 0 0 0 0 0 0 0 0 0 0 0 0 0 0 0 0 0 0 0 0 0 0 0 0 0 0 0 0 0 0 0 0 0 0 0 0 0 0 0 0 0 0 0 0 0 0 0 0 0 0 0 0 0 0 0 0 0 0 0 0 0 0 0 0 0 0 0 0 0 0 0 0 0 0 0 0 0 0 0 0 0 0 0 0 0 0 0 0 0 0 0 0 0 0 0 0 0 0 0 0 0 0 0 0 0 0 0 0 0 0 0 0 0 0 0 0 0 0 0 0 0 0 0 0 0 
0 0 0 0 0 0 0 0 0 0 0 0 0 0 0 0 0 0 0 0 0 0 0 0 0 0 0 0 0 0 0 0 0 0 0 0 0 0 0 0 0 0 0 0 0 0 0 0 0 0 0 0 0 0 0 0 0 0 0 0 0 0 0 0 0 0 0 0 0 0 0 0 0 0 0 0 0 0 0 0 0 0 0 0 0 0 0 0 0 0 0 0 0 0 0 0 0 0 0 0 0 0 0 0 0 0 0 0 0 0 0 0 0 0 0 0 0 0 0 0 0 0 0 0 0 0 0 0 0 0 0 0 0 0 0 0 0 0 0 0 0 0 0 0 0 0 0 0 0 0 0 0 0 0 0 0 0 0 0 0 0 0 0 0 0 0 0 0 0 0 0 0 0 0 0 0 0 0 0 0 
0 0 0 0 0 0 0 0 0 0 0 0 0 0 0 0 0 0 0 0 0 0 0 0 0 0 0 0 0 0 0 0 0 0 0 0 0 0 0 0 0 0 0 0 0 0 0 0 0 0 0 0 0 0 0 0 0 0 0 0 0 0 0 0 0 0 0 0 0 0 0 0 0 0 0 0 0 0 0 0 0 0 0 0 0 0 0 0 0 0 0 0 0 0 0 0 0 0 0 0 0 0 0 0 0 0 0 0 0 0 0 0 0 0 0 0 0 0 0 0 0 0 0 0 0 0 0 0 0 0 0 0 0 0 0 0 0 0 0 0 0 0 0 0 0 0 0 0 0 0 0 0 0 0 0 0 0 0 0 0 0 0 0 0 0 0 0 0 0 0 0 0 0 0 0 0 0 0 0 0 
0 0 0 0 0 0 0 0 0 0 0 0 0 0 0 0 0 0 0 0 0 0 0 0 0 0 0 0 0 0 0 0 0 0 0 0 0 0 0 0 0 0 0 0 0 0 0 0 0 0 0 0 0 0 0 0 0 0 0 0 0 0 0 0 0 0 0 0 0 0 0 0 0 0 0 0 0 0 0 0 0 0 0 0 0 0 0 0 0 0 0 0 0 0 0 0 0 0 0 0 0 0 0 0 0 0 0 0 0 0 0 0 0 0 0 0 0 0 0 0 0 0 0 0 0 0 0 0 0 0 0 0 0 0 0 0 0 0 0 0 0 0 0 0 0 0 0 0 0 0 0 0 0 0 0 0 0 0 0 0 0 0 0 0 0 0 0 0 0 0 0 0 0 0 0 0 0 0 0 0 
0 0 0 0 0 0 0 0 0 0 0 0 0 0 0 0 0 0 0 0 0 0 0 0 0 0 0 0 0 0 0 0 0 0 0 0 0 0 0 0 0 0 0 0 0 0 0 0 0 0 0 0 0 0 0 0 0 0 0 0 0 0 0 0 0 0 0 0 0 0 0 0 0 0 0 0 0 0 0 0 0 0 0 0 0 0 0 0 0 0 0 0 0 0 0 0 0 0 0 0 0 0 0 0 0 0 0 0 0 0 0 0 0 0 0 0 0 0 0 0 0 0 0 0 0 0 0 0 0 0 0 0 0 0 0 0 0 0 0 0 0 0 0 0 0 0 0 0 0 0 0 0 0 0 0 0 0 0 0 0 0 0 0 0 0 0 0 0 0 0 0 0 0 0 0 0 0 0 0 0 
0 0 0 0 0 0 0 0 0 0 0 0 0 0 0 0 0 0 0 0 0 0 0 0 0 0 0 0 0 0 0 0 0 0 0 0 0 0 0 0 0 0 0 0 0 0 0 0 0 0 0 0 0 0 0 0 0 0 0 0 0 0 0 0 0 0 0 0 0 0 0 0 0 0 0 0 0 0 0 0 0 0 0 0 0 0 0 0 0 0 0 0 0 0 0 0 0 0 0 0 0 0 0 0 0 0 0 0 0 0 0 0 0 0 0 0 0 0 0 0 0 0 0 0 0 0 0 0 0 0 0 0 0 0 0 0 0 0 0 0 0 0 0 0 0 0 0 0 0 0 0 0 0 0 0 0 0 0 0 0 0 0 0 0 0 0 0 0 0 0 0 0 0 0 0 0 0 0 0 0 
0 0 0 0 0 0 0 0 0 0 0 0 0 0 0 0 0 0 0 0 0 0 0 0 0 0 0 0 0 0 0 0 0 0 0 0 0 0 0 0 0 0 0 0 0 0 0 0 0 0 0 0 0 0 0 0 0 0 0 0 0 0 0 0 0 0 0 0 0 0 0 0 0 0 0 0 0 0 0 0 0 0 0 0 0 0 0 0 0 0 0 0 0 0 0 0 0 0 0 0 0 0 0 0 0 0 0 0 0 0 0 0 0 0 0 0 0 0 0 0 0 0 0 0 0 0 0 0 0 0 0 0 0 0 0 0 0 0 0 0 0 0 0 0 0 0 0 0 0 0 0 0 0 0 0 0 0 0 0 0 0 0 0 0 0 0 0 0 0 0 0 0 0 0 0 0 0 0 0 0 
0 0 0 0 0 0 0 0 0 0 0 0 0 0 0 0 0 0 0 0 0 0 0 0 0 0 0 0 0 0 0 0 0 0 0 0 0 0 0 0 0 0 0 0 0 0 0 0 0 0 0 0 0 0 0 0 0 0 0 0 0 0 0 0 0 0 0 0 0 0 0 0 0 0 0 0 0 0 0 0 0 0 0 0 0 0 0 0 0 0 0 0 0 0 0 0 0 0 0 0 0 0 0 0 0 0 0 0 0 0 0 0 0 0 0 0 0 0 0 0 0 0 0 0 0 0 0 0 0 0 0 0 0 0 0 0 0 0 0 0 0 0 0 0 0 0 0 0 0 0 0 0 0 0 0 0 0 0 0 0 0 0 0 0 0 0 0 0 0 0 0 0 0 0 0 0 0 0 0 0 
0 0 0 0 0 0 0 0 0 0 0 0 0 0 0 0 0 0 0 0 0 0 0 0 0 0 0 0 0 0 0 0 0 0 0 0 0 0 0 0 0 0 0 0 0 0 0 0 0 0 0 0 0 0 0 0 0 0 0 0 0 0 0 0 0 0 0 0 0 0 0 0 0 0 0 0 0 0 0 0 0 0 0 0 0 0 0 0 0 0 0 0 0 0 0 0 0 0 0 0 0 0 0 0 0 0 0 0 0 0 0 0 0 0 0 0 0 0 0 0 0 0 0 0 0 0 0 0 0 0 0 0 0 0 0 0 0 0 0 0 0 0 0 0 0 0 0 0 0 0 0 0 0 0 0 0 0 0 0 0 0 0 0 0 0 0 0 0 0 0 0 0 0 0 0 0 0 0 0 0 
0 0 0 0 0 0 0 0 0 0 0 0 0 0 0 0 0 0 0 0 0 0 0 0 0 0 0 0 0 0 0 0 0 0 0 0 0 0 0 0 0 0 0 0 0 0 0 0 0 0 0 0 0 0 0 0 0 0 0 0 0 0 0 0 0 0 0 0 0 0 0 0 0 0 0 0 0 0 0 0 0 0 0 0 0 0 0 0 0 0 0 0 0 0 0 0 0 0 0 0 0 0 0 0 0 0 0 0 0 0 0 0 0 0 0 0 0 0 0 0 0 0 0 0 0 0 0 0 0 0 0 0 0 0 0 0 0 0 0 0 0 0 0 0 0 0 0 0 0 0 0 0 0 0 0 0 0 0 0 0 0 0 0 0 0 0 0 0 0 0 0 0 0 0 0 0 0 0 0 0 
0 0 0 0 0 0 0 0 0 0 0 0 0 0 0 0 0 0 0 0 0 0 0 0 0 0 0 0 0 0 639 0 0 1248 0 0 1252 0 0 1282 0 0 1215 0 0 1298 0 0 1238 0 0 1162 0 0 1179 0 0 1166 0 0 1286 0 0 1274 0 0 1173 0 0 1174 0 0 1204 0 0 1183 0 0 1201 0 0 1233 0 0 1212 0 0 1191 0 0 1225 0 0 1196 0 0 1244 0 0 1142 0 0 1226 0 0 1261 0 0 1266 0 0 1197 0 0 1255 0 0 1264 0 0 1245 0 0 1263 0 0 1263 0 0 1172 0 0 1207 0 0 1202 0 0 1288 0 0 1188 0 0 1196 0 0 1284 0 0 567 0 0 0 0 0 0 0 0 0 0 0 0 0 0 0 0 0 0 0 0 0 0 0 0 0 0 0 0 0 
0 0 0 0 0 0 0 0 0 0 0 0 0 0 0 0 0 0 0 0 0 0 0 0 0 0 0 0 0 0 1303 0 0 2541 0 0 2484 0 0 2428 0 0 2517 0 0 2509 0 0 2486 0 0 2470 0 0 2487 0 0 2497 0 0 2494 0 0 2360 0 0 2503 0 0 2424 0 0 2393 0 0 2485 0 0 2453 0 0 2513 0 0 2395 0 0 2563 0 0 2434 0 0 2459 0 0 2542 0 0 2523 0 0 2441 0 0 2595 0 0 2439 0 0 2441 0 0 2530 0 0 2451 0 0 2495 0 0 2494 0 0 2531 0 0 2493 0 0 2413 0 0 2453 0 0 2520 0 0 2469 0 0 2512 0 0 2381 0 0 1283 0 0 0 0 0 0 0 0 0 0 0 0 0 0 0 0 0 0 0 0 0 0 0 0 0 0 0 0 0 
0 0 0 0 0 0 0 0 0 0 0 0 0 0 0 0 0 0 0 0 0 0 0 0 0 0 0 0 0 0 1229 0 0 2439 0 0 2477 0 0 2461 0 0 2471 0 0 2460 0 0 2509 0 0 2443 0 0 2576 0 0 2514 0 0 2407 0 0 2510 0 0 2412 0 0 2520 0 0 2521 0 0 2436 0 0 2493 0 0 2417 0 0 2391 0 0 2535 0 0 2432 0 0 2515 0 0 2553 0 0 2480 0 0 2542 0 0 2423 0 0 2478 0 0 2452 0 0 2345 0 0 2386 0 0 2547 0 0 2579 0 0 2557 0 0 2543 0 0 2496 0 0 2499 0 0 2521 0 0 2536 0 0 2574 0 0 2494 0 0 1198 0 0 0 0 0 0 0 0 0 0 0 0 0 0 0 0 0 0 0 0 0 0 0 0 0 0 0 0 0 
0 0 0 0 0 0 0 0 0 0 0 0 0 0 0 0 0 0 0 0 0 0 0 0 0 0 0 0 0 0 1204 0 0 2411 0 0 2465 0 0 2400 0 0 2422 0 0 2442 0 0 2573 0 0 2453 0 0 2445 0 0 2469 0 0 2494 0 0 2423 0 0 2482 0 0 2487 0 0 2433 0 0 2460 0 0 2536 0 0 2501 0 0 2624 0 0 2472 0 0 2595 0 0 2431 0 0 2536 0 0 2463 0 0 2465 0 0 2527 0 0 2422 0 0 2457 0 0 2408 0 0 2461 0 0 2578 0 0 2488 0 0 2436 0 0 2503 0 0 2504 0 0 2478 0 0 2388 0 0 2419 0 0 2520 0 0 2464 0 0 1280 0 0 0 0 0 0 0 0 0 0 0 0 0 0 0 0 0 0 0 0 0 0 0 0 0 0 0 0 0 
0 0 0 0 0 0 0 0 0 0 0 0 0 0 0 0 0 0 0 0 0 0 0 0 0 0 0 0 0 0 1251 0 0 2577 0 0 2429 0 0 2431 0 0 2543 0 0 2475 0 0 2471 0 0 2490 0 0 2504 0 0 2420 0 0 2405 0 0 2432 0 0 2462 0 0 2425 0 0 2474 0 0 2473 0 0 2447 0 0 2493 0 0 2411 0 0 2499 0 0 2440 0 0 2423 0 0 2501 0 0 2405 0 0 2557 0 0 2460 0 0 2499 0 0 2501 0 0 2422 0 0 2603 0 0 2534 0 0 2419 0 0 2427 0 0 2434 0 0 2520 0 0 2558 0 0 2369 0 0 2450 0 0 2532 0 0 2412 0 0 1231 0 0 0 0 0 0 0 0 0 0 0 0 0 0 0 0 0 0 0 0 0 0 0 0 0 0 0 0 0 
0 0 0 0 0 0 0 0 0 0 0 0 0 0 0 0 0 0 0 0 0 0 0 0 0 0 0 0 0 0 1279 0 0 2493 0 0 2440 0 0 2434 0 0 2614 0 0 2468 0 0 2431 0 0 2492 0 0 2516 0 0 2484 0 0 2530 0 0 2469 0 0 2497 0 0 2572 0 0 2450 0 0 2487 0 0 2418 0 0 2425 0 0 2449 0 0 2508 0 0 2498 0 0 2409 0 0 2421 0 0 2515 0 0 2488 0 0 2469 0 0 2451 0 0 2470 0 0 2573 0 0 2504 0 0 2396 0 0 2590 0 0 2372 0 0 2443 0 0 2412 0 0 2514 0 0 2562 0 0 2524 0 0 2578 0 0 2571 0 0 1231 0 0 0 0 0 0 0 0 0 0 0 0 0 0 0 0 0 0 0 0 0 0 0 0 0 0 0 0 0 
0 0 0 0 0 0 0 0 0 0 0 0 0 0 0 0 0 0 0 0 0 0 0 0 0 0 0 0 0 0 1253 0 0 2443 0 0 2376 0 0 2358 0 0 2501 0 0 2413 0 0 2509 0 0 2478 0 0 2520 0 0 2474 0 0 2543 0 0 2449 0 0 2460 0 0 2551 0 0 2449 0 0 2430 0 0 2420 0 0 2442 0 0 2471 0 0 2494 0 0 2458 0 0 2542 0 0 2438 0 0 2547 0 0 2442 0 0 2447 0 0 2449 0 0 2515 0 0 2581 0 0 2561 0 0 2537 0 0 2428 0 0 2453 0 0 2600 0 0 2496 0 0 2549 0 0 2451 0 0 2488 0 0 2500 0 0 2497 0 0 1225 0 0 0 0 0 0 0 0 0 0 0 0 0 0 0 0 0 0 0 0 0 0 0 0 0 0 0 0 0 
0 0 0 0 0 0 0 0 0 0 0 0 0 0 0 0 0 0 0 0 0 0 0 0 0 0 0 0 0 0 1266 0 0 2523 0 0 2485 0 0 2512 0 0 2482 0 0 2458 0 0 2574 0 0 2544 0 0 2497 0 0 2486 0 0 2425 0 0 2487 0 0 2389 0 0 2427 0 0 2412 0 0 2448 0 0 2408 0 0 2470 0 0 2405 0 0 2433 0 0 2496 0 0 2431 0 0 2493 0 0 2478 0 0 2439 0 0 2486 0 0 2435 0 0 2452 0 0 2470 0 0 2460 0 0 2386 0 0 2433 0 0 2528 0 0 2475 0 0 2421 0 0 2467 0 0 2513 0 0 2524 0 0 2489 0 0 2504 0 0 1271 0 0 0 0 0 0 0 0 0 0 0 0 0 0 0 0 0 0 0 0 0 0 0 0 0 0 0 0 0 
0 0 0 0 0 0 0 0 0 0 0 0 0 0 0 0 0 0 0 0 0 0 0 0 0 0 0 0 0 0 1251 0 0 2457 0 0 2462 0 0 2432 0 0 2437 0 0 2566 0 0 2526 0 0 2611 0 0 2502 0 0 2419 0 0 2398 0 0 2407 0 0 2490 0 0 2460 0 0 2394 0 0 2426 0 0 2475 0 0 2484 0 0 2566 0 0 2455 0 0 2406 0 0 2557 0 0 2514 0 0 2519 0 0 2451 0 0 2511 0 0 2491 0 0 2505 0 0 2436 0 0 2434 0 0 2562 0 0 2503 0 0 2447 0 0 2417 0 0 2509 0 0 2399 0 0 2503 0 0 2503 0 0 2463 0 0 2450 0 0 1223 0 0 0 0 0 0 0 0 0 0 0 0 0 0 0 0 0 0 0 0 0 0 0 0 0 0 0 0 0 
0 0 0 0 0 0 0 0 0 0 0 0 0 0 0 0 0 0 0 0 0 0 0 0 0 0 0 0 0 0 1261 0 0 2528 0 0 2457 0 0 2451 0 0 2397 0 0 2505 0 0 2470 0 0 2468 0 0 2470 0 0 2504 0 0 2437 0 0 2475 0 0 2517 0 0 2518 0 0 2470 0 0 2505 0 0 2400 0 0 2429 0 0 2513 0 0 2512 0 0 2450 0 0 2482 0 0 2473 0 0 2515 0 0 2499 0 0 2428 0 0 2505 0 0 2481 0 0 2477 0 0 2363 0 0 2509 0 0 2479 0 0 2589 0 0 2585 0 0 2547 0 0 2486 0 0 2507 0 0 2445 0 0 2430 0 0 2374 0 0 1278 0 0 0 0 0 0 0 0 0 0 0 0 0 0 0 0 0 0 0 0 0 0 0 0 0 0 0 0 0 
0 0 0 0 0 0 0 0 0 0 0 0 0 0 0 0 0 0 0 0 0 0 0 0 0 0 0 0 0 0 1254 0 0 2471 0 0 2470 0 0 2445 0 0 2450 0 0 2501 0 0 2484 0 0 2411 0 0 2544 0 0 2530 0 0 2440 0 0 2502 0 0 2568 0 0 2592 0 0 2473 0 0 2476 0 0 2482 0 0 2490 0 0 2401 0 0 2473 0 0 2482 0 0 2580 0 0 2455 0 0 2534 0 0 2415 0 0 2427 0 0 2520 0 0 2461 0 0 2454 0 0 2539 0 0 2535 0 0 2429 0 0 2357 0 0 2525 0 0 2495 0 0 2531 0 0 2425 0 0 2427 0 0 2536 0 0 2503 0 0 1233 0 0 0 0 0 0 0 0 0 0 0 0 0 0 0 0 0 0 0 0 0 0 0 0 0 0 0 0 0 
0 0 0 0 0 0 0 0 0 0 0 0 0 0 0 0 0 0 0 0 0 0 0 0 0 0 0 0 0 0 1223 0 0 2528 0 0 2502 0 0 2531 0 0 2381 0 0 2441 0 0 2417 0 0 2510 0 0 2446 0 0 2394 0 0 2435 0 0 2423 0 0 2506 0 0 2348 0 0 2440 0 0 2533 0 0 2478 0 0 2417 0 0 2590 0 0 2495 0 0 2470 0 0 2427 0 0 2485 0 0 2518 0 0 2537 0 0 2465 0 0 2467 0 0 2434 0 0 2404 0 0 2411 0 0 2516 0 0 2477 0 0 2473 0 0 2505 0 0 2500 0 0 2479 0 0 2384 0 0 2397 0 0 2462 0 0 2536 0 0 1248 0 0 0 0 0 0 0 0 0 0 0 0 0 0 0 0 0 0 0 0 0 0 0 0 0 0 0 0 0 
0 0 0 0 0 0 0 0 0 0 0 0 0 0 0 0 0 0 0 0 0 0 0 0 0 0 0 0 0 0 1240 0 0 2514 0 0 2507 0 0 2441 0 0 2416 0 0 2385 0 0 2474 0 0 2499 0 0 2505 0 0 2518 0 0 2487 0 0 2478 0 0 2503 0 0 2436 0 0 2389 0 0 2473 0 0 2548 0 0 2439 0 0 2319 0 0 2536 0 0 2410 0 0 2426 0 0 2603 0 0 2544 0 0 2486 0 0 2479 0 0 2471 0 0 2675 0 0 2428 0 0 2570 0 0 2524 0 0 2458 0 0 2583 0 0 2500 0 0 2542 0 0 2500 0 0 2501 0 0 2431 0 0 2469 0 0 2489 0 0 1258 0 0 0 0 0 0 0 0 0 0 0 0 0 0 0 0 0 0 0 0 0 0 0 0 0 0 0 0 0 
0 0 0 0 0 0 0 0 0 0 0 0 0 0 0 0 0 0 0 0 0 0 0 0 0 0 0 0 0 0 1223 0 0 2517 0 0 2397 0 0 2473 0 0 2520 0 0 2474 0 0 2486 0 0 2413 0 0 2478 0 0 2483 0 0 2547 0 0 2491 0 0 2482 0 0 2466 0 0 2478 0 0 2610 0 0 2447 0 0 2452 0 0 2574 0 0 2517 0 0 2391 0 0 2510 0 0 2553 0 0 2486 0 0 2464 0 0 2456 0 0 2555 0 0 2478 0 0 2449 0 0 2452 0 0 2437 0 0 2549 0 0 2374 0 0 2498 0 0 2416 0 0 2524 0 0 2549 0 0 2500 0 0 2400 0 0 2426 0 0 1224 0 0 0 0 0 0 0 0 0 0 0 0 0 0 0 0 0 0 0 0 0 0 0 0 0 0 0 0 0 
0 0 0 0 0 0 0 0 0 0 0 0 0 0 0 0 0 0 0 0 0 0 0 0 0 0 0 0 0 0 1230 0 0 2440 0 0 2486 0 0 2458 0 0 2402 0 0 2457 0 0 2370 0 0 2491 0 0 2515 0 0 2419 0 0 2518 0 0 2527 0 0 2529 0 0 2458 0 0 2468 0 0 2524 0 0 2494 0 0 2388 0 0 2484 0 0 2548 0 0 2483 0 0 2470 0 0 2507 0 0 2490 0 0 2445 0 0 2368 0 0 2467 0 0 2510 0 0 2461 0 0 2441 0 0 2419 0 0 2542 0 0 2488 0 0 2467 0 0 2551 0 0 2408 0 0 2481 0 0 2545 0 0 2432 0 0 2509 0 0 1251 0 0 0 0 0 0 0 0 0 0 0 0 0 0 0 0 0 0 0 0 0 0 0 0 0 0 0 0 0 
0 0 0 0 0 0 0 0 0 0 0 0 0 0 0 0 0 0 0 0 0 0 0 0 0 0 0 0 0 0 1256 0 0 2447 0 0 2500 0 0 2405 0 0 2435 0 0 2504 0 0 2609 0 0 2488 0 0 2509 0 0 2389 0 0 2467 0 0 2488 0 0 2494 0 0 2483 0 0 2482 0 0 2489 0 0 2404 0 0 2461 0 0 2581 0 0 2461 0 0 2493 0 0 2462 0 0 2496 0 0 2398 0 0 2478 0 0 2428 0 0 2482 0 0 2480 0 0 2469 0 0 2477 0 0 2492 0 0 2544 0 0 2542 0 0 2480 0 0 2462 0 0 2388 0 0 2572 0 0 2462 0 0 2511 0 0 2466 0 0 1232 0 0 0 0 0 0 0 0 0 0 0 0 0 0 0 0 0 0 0 0 0 0 0 0 0 0 0 0 0 
0 0 0 0 0 0 0 0 0 0 0 0 0 0 0 0 0 0 0 0 0 0 0 0 0 0 0 0 0 0 1294 0 0 2416 0 0 2503 0 0 2482 0 0 2443 0 0 2366 0 0 2425 0 0 2493 0 0 2460 0 0 2404 0 0 2504 0 0 2565 0 0 2448 0 0 2444 0 0 2523 0 0 2553 0 0 2589 0 0 2384 0 0 2402 0 0 2480 0 0 2565 0 0 2495 0 0 2542 0 0 2434 0 0 2440 0 0 2457 0 0 2542 0 0 2581 0 0 2452 0 0 2432 0 0 2486 0 0 2412 0 0 2450 0 0 2514 0 0 2405 0 0 2493 0 0 2452 0 0 2421 0 0 2475 0 0 2489 0 0 1305 0 0 0 0 0 0 0 0 0 0 0 0 0 0 0 0 0 0 0 0 0 0 0 0 0 0 0 0 0 
0 0 0 0 0 0 0 0 0 0 0 0 0 0 0 0 0 0 0 0 0 0 0 0 0 0 0 0 0 0 1252 0 0 2436 0 0 2481 0 0 2394 0 0 2480 0 0 2461 0 0 2526 0 0 2507 0 0 2516 0 0 2402 0 0 2431 0 0 2516 0 0 2507 0 0 2466 0 0 2426 0 0 2487 0 0 2426 0 0 2523 0 0 2483 0 0 2530 0 0 2431 0 0 2392 0 0 2435 0 0 2495 0 0 2533 0 0 2456 0 0 2428 0 0 2504 0 0 2457 0 0 2447 0 0 2463 0 0 2404 0 0 2476 0 0 2483 0 0 2506 0 0 2415 0 0 2455 0 0 2476 0 0 2553 0 0 2457 0 0 1216 0 0 0 0 0 0 0 0 0 0 0 0 0 0 0 0 0 0 0 0 0 0 0 0 0 0 0 0 0 
0 0 0 0 0 0 0 0 0 0 0 0 0 0 0 0 0 0 0 0 0 0 0 0 0 0 0 0 0 0 1249 0 0 2443 0 0 2533 0 0 2512 0 0 2515 0 0 2504 0 0 2528 0 0 2533 0 0 2486 0 0 2522 0 0 2483 0 0 2557 0 0 2457 0 0 2498 0 0 2477 0 0 2500 0 0 2480 0 0 2460 0 0 2507 0 0 2522 0 0 2413 0 0 2526 0 0 2466 0 0 2518 0 0 2539 0 0 2449 0 0 2380 0 0 2422 0 0 2440 0 0 2436 0 0 2495 0 0 2423 0 0 2399 0 0 2498 0 0 2398 0 0 2475 0 0 2422 0 0 2472 0 0 2488 0 0 2430 0 0 1247 0 0 0 0 0 0 0 0 0 0 0 0 0 0 0 0 0 0 0 0 0 0 0 0 0 0 0 0 0 
0 0 0 0 0 0 0 0 0 0 0 0 0 0 0 0 0 0 0 0 0 0 0 0 0 0 0 0 0 0 1237 0 0 2447 0 0 2436 0 0 2522 0 0 2526 0 0 2466 0 0 2521 0 0 2497 0 0 2456 0 0 2501 0 0 2546 0 0 2456 0 0 2464 0 0 2488 0 0 2627 0 0 2468 0 0 2491 0 0 2420 0 0 2521 0 0 2499 0 0 2405 0 0 2442 0 0 2453 0 0 2523 0 0 2313 0 0 2547 0 0 2527 0 0 2482 0 0 2397 0 0 2573 0 0 2473 0 0 2508 0 0 2466 0 0 2466 0 0 2454 0 0 2516 0 0 2525 0 0 2518 0 0 2515 0 0 2508 0 0 1252 0 0 0 0 0 0 0 0 0 0 0 0 0 0 0 0 0 0 0 0 0 0 0 0 0 0 0 0 0 
0 0 0 0 0 0 0 0 0 0 0 0 0 0 0 0 0 0 0 0 0 0 0 0 0 0 0 0 0 0 1243 0 0 2490 0 0 2521 0 0 2493 0 0 2502 0 0 2508 0 0 2510 0 0 2484 0 0 2497 0 0 2500 0 0 2564 0 0 2410 0 0 2388 0 0 2458 0 0 2447 0 0 2490 0 0 2445 0 0 2511 0 0 2414 0 0 2488 0 0 2490 0 0 2519 0 0 2503 0 0 2489 0 0 2456 0 0 2511 0 0 2468 0 0 2450 0 0 2425 0 0 2382 0 0 2483 0 0 2533 0 0 2424 0 0 2454 0 0 2507 0 0 2493 0 0 2473 0 0 2443 0 0 2375 0 0 2413 0 0 1308 0 0 0 0 0 0 0 0 0 0 0 0 0 0 0 0 0 0 0 0 0 0 0 0 0 0 0 0 0 
0 0 0 0 0 0 0 0 0 0 0 0 0 0 0 0 0 0 0 0 0 0 0 0 0 0 0 0 0 0 1215 0 0 2465 0 0 2524 0 0 2477 0 0 2574 0 0 2430 0 0 2407 0 0 2393 0 0 2516 0 0 2467 0 0 2463 0 0 2483 0 0 2446 0 0 2529 0 0 2547 0 0 2479 0 0 2512 0 0 2384 0 0 2482 0 0 2458 0 0 2531 0 0 2407 0 0 2393 0 0 2473 0 0 2451 0 0 2521 0 0 2496 0 0 2494 0 0 2423 0 0 2410 0 0 2392 0 0 2505 0 0 2443 0 0 2456 0 0 2499 0 0 2385 0 0 2571 0 0 2519 0 0 2483 0 0 2461 0 0 1282 0 0 0 0 0 0 0 0 0 0 0 0 0 0 0 0 0 0 0 0 0 0 0 0 0 0 0 0 0 
0 0 0 0 0 0 0 0 0 0 0 0 0 0 0 0 0 0 0 0 0 0 0 0 0 0 0 0 0 0 1233 0 0 2486 0 0 2500 0 0 2338 0 0 2498 0 0 2439 0 0 2448 0 0 2504 0 0 2493 0 0 2444 0 0 2452 0 0 2467 0 0 2402 0 0 2550 0 0 2442 0 0 2398 0 0 2468 0 0 2433 0 0 2526 0 0 2447 0 0 2435 0 0 2450 0 0 2441 0 0 2494 0 0 2480 0 0 2506 0 0 2485 0 0 2512 0 0 2474 0 0 2404 0 0 2470 0 0 2481 0 0 2406 0 0 2467 0 0 2474 0 0 2481 0 0 2501 0 0 2464 0 0 2525 0 0 2491 0 0 1270 0 0 0 0 0 0 0 0 0 0 0 0 0 0 0 0 0 0 0 0 0 0 0 0 0 0 0 0 0 
0 0 0 0 0 0 0 0 0 0 0 0 0 0 0 0 0 0 0 0 0 0 0 0 0 0 0 0 0 0 1282 0 0 2414 0 0 2440 0 0 2432 0 0 2436 0 0 2435 0 0 2544 0 0 2520 0 0 2504 0 0 2464 0 0 2456 0 0 2395 0 0 2520 0 0 2485 0 0 2481 0 0 2464 0 0 2427 0 0 2352 0 0 2503 0 0 2501 0 0 2512 0 0 2396 0 0 2566 0 0 2550 0 0 2486 0 0 2423 0 0 2439 0 0 2504 0 0 2551 0 0 2450 0 0 2498 0 0 2472 0 0 2476 0 0 2435 0 0 2489 0 0 2533 0 0 2370 0 0 2380 0 0 2564 0 0 2480 0 0 1268 0 0 0 0 0 0 0 0 0 0 0 0 0 0 0 0 0 0 0 0 0 0 0 0 0 0 0 0 0 
0 0 0 0 0 0 0 0 0 0 0 0 0 0 0 0 0 0 0 0 0 0 0 0 0 0 0 0 0 0 1224 0 0 2463 0 0 2452 0 0 2389 0 0 2481 0 0 2457 0 0 2467 0 0 2548 0 0 2478 0 0 2423 0 0 2492 0 0 2446 0 0 2453 0 0 2425 0 0 2480 0 0 2546 0 0 2448 0 0 2475 0 0 2591 0 0 2455 0 0 2512 0 0 2526 0 0 2528 0 0 2513 0 0 2520 0 0 2478 0 0 2502 0 0 2340 0 0 2478 0 0 2455 0 0 2340 0 0 2529 0 0 2414 0 0 2484 0 0 2563 0 0 2522 0 0 2395 0 0 2480 0 0 2483 0 0 2394 0 0 1225 0 0 0 0 0 0 0 0 0 0 0 0 0 0 0 0 0 0 0 0 0 0 0 0 0 0 0 0 0 
0 0 0 0 0 0 0 0 0 0 0 0 0 0 0 0 0 0 0 0 0 0 0 0 0 0 0 0 0 0 1223 0 0 2472 0 0 2457 0 0 2389 0 0 2490 0 0 2475 0 0 2462 0 0 2444 0 0 2445 0 0 2497 0 0 2464 0 0 2475 0 0 2458 0 0 2492 0 0 2534 0 0 2496 0 0 2462 0 0 2430 0 0 2457 0 0 2468 0 0 2439 0 0 2603 0 0 2370 0 0 2472 0 0 2427 0 0 2491 0 0 2487 0 0 2482 0 0 2479 0 0 2532 0 0 2376 0 0 2473 0 0 2570 0 0 2407 0 0 2395 0 0 2573 0 0 2449 0 0 2481 0 0 2480 0 0 2436 0 0 1272 0 0 0 0 0 0 0 0 0 0 0 0 0 0 0 0 0 0 0 0 0 0 0 0 0 0 0 0 0 
0 0 0 0 0 0 0 0 0 0 0 0 0 0 0 0 0 0 0 0 0 0 0 0 0 0 0 0 0 0 1217 0 0 2424 0 0 2559 0 0 2453 0 0 2405 0 0 2394 0 0 2410 0 0 2459 0 0 2520 0 0 2450 0 0 2498 0 0 2425 0 0 2470 0 0 2412 0 0 2551 0 0 2414 0 0 2483 0 0 2510 0 0 2456 0 0 2454 0 0 2465 0 0 2438 0 0 2436 0 0 2507 0 0 2375 0 0 2528 0 0 2511 0 0 2486 0 0 2491 0 0 2303 0 0 2495 0 0 2548 0 0 2360 0 0 2587 0 0 2495 0 0 2515 0 0 2410 0 0 2492 0 0 2488 0 0 2587 0 0 1248 0 0 0 0 0 0 0 0 0 0 0 0 0 0 0 0 0 0 0 0 0 0 0 0 0 0 0 0 0 
0 0 0 0 0 0 0 0 0 0 0 0 0 0 0 0 0 0 0 0 0 0 0 0 0 0 0 0 0 0 1273 0 0 2432 0 0 2527 0 0 2577 0 0 2458 0 0 2545 0 0 2508 0 0 2461 0 0 2516 0 0 2564 0 0 2520 0 0 2473 0 0 2526 0 0 2449 0 0 2540 0 0 2545 0 0 2491 0 0 2543 0 0 2478 0 0 2395 0 0 2523 0 0 2524 0 0 2562 0 0 2483 0 0 2398 0 0 2381 0 0 2447 0 0 2448 0 0 2514 0 0 2408 0 0 2519 0 0 2490 0 0 2568 0 0 2533 0 0 2425 0 0 2539 0 0 2502 0 0 2439 0 0 2442 0 0 2461 0 0 1205 0 0 0 0 0 0 0 0 0 0 0 0 0 0 0 0 0 0 0 0 0 0 0 0 0 0 0 0 0 
0 0 0 0 0 0 0 0 0 0 0 0 0 0 0 0 0 0 0 0 0 0 0 0 0 0 0 0 0 0 1200 0 0 2451 0 0 2509 0 0 2469 0 0 2520 0 0 2488 0 0 2400 0 0 2549 0 0 2434 0 0 2524 0 0 2425 0 0 2431 0 0 2470 0 0 2449 0 0 2520 0 0 2506 0 0 2429 0 0 2474 0 0 2398 0 0 2480 0 0 2447 0 0 2441 0 0 2483 0 0 2611 0 0 2516 0 0 2568 0 0 2428 0 0 2483 0 0 2625 0 0 2519 0 0 2473 0 0 2420 0 0 2490 0 0 2445 0 0 2473 0 0 2507 0 0 2647 0 0 2550 0 0 2518 0 0 2483 0 0 1248 0 0 0 0 0 0 0 0 0 0 0 0 0 0 0 0 0 0 0 0 0 0 0 0 0 0 0 0 0 
0 0 0 0 0 0 0 0 0 0 0 0 0 0 0 0 0 0 0 0 0 0 0 0 0 0 0 0 0 0 1216 0 0 2539 0 0 2618 0 0 2479 0 0 2450 0 0 2582 0 0 2430 0 0 2364 0 0 2403 0 0 2475 0 0 2436 0 0 2419 0 0 2463 0 0 2472 0 0 2586 0 0 2453 0 0 2475 0 0 2554 0 0 2484 0 0 2549 0 0 2490 0 0 2431 0 0 2517 0 0 2458 0 0 2510 0 0 2483 0 0 2392 0 0 2444 0 0 2408 0 0 2500 0 0 2534 0 0 2497 0 0 2428 0 0 2410 0 0 2462 0 0 2416 0 0 2491 0 0 2454 0 0 2524 0 0 2401 0 0 1192 0 0 0 0 0 0 0 0 0 0 0 0 0 0 0 0 0 0 0 0 0 0 0 0 0 0 0 0 0 
0 0 0 0 0 0 0 0 0 0 0 0 0 0 0 0 0 0 0 0 0 0 0 0 0 0 0 0 0 0 1170 0 0 2452 0 0 2466 0 0 2497 0 0 2485 0 0 2499 0 0 2578 0 0 2489 0 0 2481 0 0 2543 0 0 2539 0 0 2425 0 0 2576 0 0 2500 0 0 2426 0 0 2435 0 0 2550 0 0 2533 0 0 2454 0 0 2460 0 0 2529 0 0 2444 0 0 2495 0 0 2451 0 0 2460 0 0 2474 0 0 2427 0 0 2460 0 0 2567 0 0 2402 0 0 2483 0 0 2429 0 0 2441 0 0 2458 0 0 2345 0 0 2426 0 0 2436 0 0 2378 0 0 2466 0 0 2534 0 0 1242 0 0 0 0 0 0 0 0 0 0 0 0 0 0 0 0 0 0 0 0 0 0 0 0 0 0 0 0 0 
0 0 0 0 0 0 0 0 0 0 0 0 0 0 0 0 0 0 0 0 0 0 0 0 0 0 0 0 0 0 1289 0 0 2500 0 0 2373 0 0 2494 0 0 2477 0 0 2467 0 0 2508 0 0 2474 0 0 2463 0 0 2431 0 0 2479 0 0 2457 0 0 2479 0 0 2484 0 0 2509 0 0 2475 0 0 2508 0 0 2382 0 0 2499 0 0 2476 0 0 2513 0 0 2470 0 0 2423 0 0 2495 0 0 2496 0 0 2494 0 0 2573 0 0 2433 0 0 2450 0 0 2476 0 0 2433 0 0 2347 0 0 2426 0 0 2461 0 0 2418 0 0 2444 0 0 2444 0 0 2444 0 0 2428 0 0 2481 0 0 1262 0 0 0 0 0 0 0 0 0 0 0 0 0 0 0 0 0 0 0 0 0 0 0 0 0 0 0 0 0 
0 0 0 0 0 0 0 0 0 0 0 0 0 0 0 0 0 0 0 0 0 0 0 0 0 0 0 0 0 0 1236 0 0 2463 0 0 2503 0 0 2485 0 0 2458 0 0 2506 0 0 2321 0 0 2476 0 0 2438 0 0 2519 0 0 2537 0 0 2450 0 0 2464 0 0 2428 0 0 2495 0 0 2508 0 0 2486 0 0 2561 0 0 2471 0 0 2513 0 0 2491 0 0 2410 0 0 2542 0 0 2569 0 0 2508 0 0 2591 0 0 2625 0 0 2409 0 0 2573 0 0 2507 0 0 2498 0 0 2479 0 0 2543 0 0 2472 0 0 2425 0 0 2548 0 0 2475 0 0 2471 0 0 2481 0 0 2500 0 0 1227 0 0 0 0 0 0 0 0 0 0 0 0 0 0 0 0 0 0 0 0 0 0 0 0 0 0 0 0 0 
0 0 0 0 0 0 0 0 0 0 0 0 0 0 0 0 0 0 0 0 0 0 0 0 0 0 0 0 0 0 1247 0 0 2479 0 0 2487 0 0 2478 0 0 2517 0 0 2534 0 0 2461 0 0 2529 0 0 2474 0 0 2431 0 0 2469 0 0 2480 0 0 2495 0 0 2607 0 0 2475 0 0 2427 0 0 2433 0 0 2452 0 0 2456 0 0 2544 0 0 2524 0 0 2454 0 0 2517 0 0 2558 0 0 2447 0 0 2441 0 0 2490 0 0 2545 0 0 2440 0 0 2472 0 0 2420 0 0 2450 0 0 2476 0 0 2444 0 0 2507 0 0 2434 0 0 2512 0 0 2434 0 0 2472 0 0 2528 0 0 1187 0 0 0 0 0 0 0 0 0 0 0 0 0 0 0 0 0 0 0 0 0 0 0 0 0 0 0 0 0 
0 0 0 0 0 0 0 0 0 0 0 0 0 0 0 0 0 0 0 0 0 0 0 0 0 0 0 0 0 0 1224 0 0 2484 0 0 2475 0 0 2441 0 0 2451 0 0 2434 0 0 2431 0 0 2410 0 0 2401 0 0 2459 0 0 2528 0 0 2441 0 0 2520 0 0 2442 0 0 2552 0 0 2561 0 0 2523 0 0 2474 0 0 2544 0 0 2580 0 0 2542 0 0 2533 0 0 2448 0 0 2563 0 0 2441 0 0 2446 0 0 2423 0 0 2468 0 0 2544 0 0 2477 0 0 2441 0 0 2536 0 0 2471 0 0 2393 0 0 2539 0 0 2458 0 0 2532 0 0 2417 0 0 2587 0 0 2477 0 0 1236 0 0 0 0 0 0 0 0 0 0 0 0 0 0 0 0 0 0 0 0 0 0 0 0 0 0 0 0 0 
0 0 0 0 0 0 0 0 0 0 0 0 0 0 0 0 0 0 0 0 0 0 0 0 0 0 0 0 0 0 1220 0 0 2504 0 0 2477 0 0 2404 0 0 2471 0 0 2506 0 0 2508 0 0 2522 0 0 2471 0 0 2503 0 0 2336 0 0 2414 0 0 2450 0 0 2419 0 0 2519 0 0 2428 0 0 2505 0 0 2466 0 0 2491 0 0 2475 0 0 2503 0 0 2481 0 0 2472 0 0 2464 0 0 2494 0 0 2460 0 0 2599 0 0 2473 0 0 2511 0 0 2551 0 0 2550 0 0 2432 0 0 2485 0 0 2430 0 0 2508 0 0 2466 0 0 2441 0 0 2447 0 0 2440 0 0 2584 0 0 1226 0 0 0 0 0 0 0 0 0 0 0 0 0 0 0 0 0 0 0 0 0 0 0 0 0 0 0 0 0 
0 0 0 0 0 0 0 0 0 0 0 0 0 0 0 0 0 0 0 0 0 0 0 0 0 0 0 0 0 0 1294 0 0 2527 0 0 2453 0 0 2468 0 0 2574 0 0 2440 0 0 2452 0 0 2473 0 0 2489 0 0 2422 0 0 2370 0 0 2562 0 0 2599 0 0 2568 0 0 2405 0 0 2480 0 0 2367 0 0 2423 0 0 2534 0 0 2518 0 0 2490 0 0 2467 0 0 2412 0 0 2459 0 0 2520 0 0 2501 0 0 2457 0 0 2511 0 0 2373 0 0 2512 0 0 2520 0 0 2446 0 0 2398 0 0 2445 0 0 2459 0 0 2486 0 0 2453 0 0 2495 0 0 2471 0 0 2463 0 0 1228 0 0 0 0 0 0 0 0 0 0 0 0 0 0 0 0 0 0 0 0 0 0 0 0 0 0 0 0 0 
0 0 0 0 0 0 0 0 0 0 0 0 0 0 0 0 0 0 0 0 0 0 0 0 0 0 0 0 0 0 1205 0 0 2386 0 0 2483 0 0 2426 0 0 2524 0 0 2453 0 0 2540 0 0 2533 0 0 2501 0 0 2490 0 0 2573 0 0 2506 0 0 2542 0 0 2523 0 0 2557 0 0 2425 0 0 2339 0 0 2555 0 0 2532 0 0 2423 0 0 2544 0 0 2530 0 0 2511 0 0 2400 0 0 2455 0 0 2399 0 0 2448 0 0 2462 0 0 2419 0 0 2494 0 0 2489 0 0 2493 0 0 2443 0 0 2425 0 0 2461 0 0 2466 0 0 2497 0 0 2527 0 0 2499 0 0 2562 0 0 1206 0 0 0 0 0 0 0 0 0 0 0 0 0 0 0 0 0 0 0 0 0 0 0 0 0 0 0 0 0 
0 0 0 0 0 0 0 0 0 0 0 0 0 0 0 0 0 0 0 0 0 0 0 0 0 0 0 0 0 0 1242 0 0 2444 0 0 2435 0 0 2431 0 0 2424 0 0 2489 0 0 2534 0 0 2434 0 0 2460 0 0 2460 0 0 2489 0 0 2424 0 0 2432 0 0 2332 0 0 2439 0 0 2641 0 0 2449 0 0 2644 0 0 2448 0 0 2581 0 0 2480 0 0 2472 0 0 2514 0 0 2544 0 0 2466 0 0 2490 0 0 2466 0 0 2411 0 0 2505 0 0 2520 0 0 2488 0 0 2397 0 0 2531 0 0 2445 0 0 2424 0 0 2488 0 0 2609 0 0 2551 0 0 2499 0 0 2464 0 0 1211 0 0 0 0 0 0 0 0 0 0 0 0 0 0 0 0 0 0 0 0 0 0 0 0 0 0 0 0 0 
0 0 0 0 0 0 0 0 0 0 0 0 0 0 0 0 0 0 0 0 0 0 0 0 0 0 0 0 0 0 1239 0 0 2449 0 0 2427 0 0 2409 0 0 2460 0 0 2407 0 0 2511 0 0 2561 0 0 2490 0 0 2572 0 0 2492 0 0 2435 0 0 2438 0 0 2430 0 0 2500 0 0 2449 0 0 2500 0 0 2531 0 0 2342 0 0 2428 0 0 2421 0 0 2476 0 0 2473 0 0 2486 0 0 2476 0 0 2539 0 0 2441 0 0 2491 0 0 2452 0 0 2378 0 0 2529 0 0 2445 0 0 2524 0 0 2460 0 0 2451 0 0 2448 0 0 2454 0 0 2414 0 0 2446 0 0 2445 0 0 1246 0 0 0 0 0 0 0 0 0 0 0 0 0 0 0 0 0 0 0 0 0 0 0 0 0 0 0 0 0 
0 0 0 0 0 0 0 0 0 0 0 0 0 0 0 0 0 0 0 0 0 0 0 0 0 0 0 0 0 0 630 0 0 1209 0 0 1222 0 0 1185 0 0 1253 0 0 1246 0 0 1219 0 0 1249 0 0 1267 0 0 1290 0 0 1221 0 0 1170 0 0 1253 0 0 1154 0 0 1234 0 0 1217 0 0 1190 0 0 1188 0 0 1205 0 0 1185 0 0 1211 0 0 1249 0 0 1221 0 0 1251 0 0 1239 0 0 1241 0 0 1262 0 0 1299 0 0 1205 0 0 1216 0 0 1211 0 0 1260 0 0 1232 0 0 1189 0 0 1242 0 0 1262 0 0 1215 0 0 1216 0 0 1304 0 0 1224 0 0 631 0 0 0 0 0 0 0 0 0 0 0 0 0 0 0 0 0 0 0 0 0 0 0 0 0 0 0 0 0 
0 0 0 0 0 0 0 0 0 0 0 0 0 0 0 0 0 0 0 0 0 0 0 0 0 0 0 0 0 0 0 0 0 0 0 0 0 0 0 0 0 0 0 0 0 0 0 0 0 0 0 0 0 0 0 0 0 0 0 0 0 0 0 0 0 0 0 0 0 0 0 0 0 0 0 0 0 0 0 0 0 0 0 0 0 0 0 0 0 0 0 0 0 0 0 0 0 0 0 0 0 0 0 0 0 0 0 0 0 0 0 0 0 0 0 0 0 0 0 0 0 0 0 0 0 0 0 0 0 0 0 0 0 0 0 0 0 0 0 0 0 0 0 0 0 0 0 0 0 0 0 0 0 0 0 0 0 0 0 0 0 0 0 0 0 0 0 0 0 0 0 0 0 0 0 0 0 0 0 0 
0 0 0 0 0 0 0 0 0 0 0 0 0 0 0 0 0 0 0 0 0 0 0 0 0 0 0 0 0 0 0 0 0 0 0 0 0 0 0 0 0 0 0 0 0 0 0 0 0 0 0 0 0 0 0 0 0 0 0 0 0 0 0 0 0 0 0 0 0 0 0 0 0 0 0 0 0 0 0 0 0 0 0 0 0 0 0 0 0 0 0 0 0 0 0 0 0 0 0 0 0 0 0 0 0 0 0 0 0 0 0 0 0 0 0 0 0 0 0 0 0 0 0 0 0 0 0 0 0 0 0 0 0 0 0 0 0 0 0 0 0 0 0 0 0 0 0 0 0 0 0 0 0 0 0 0 0 0 0 0 0 0 0 0 0 0 0 0 0 0 0 0 0 0 0 0 0 0 0 0 
0 0 0 0 0 0 0 0 0 0 0 0 0 0 0 0 0 0 0 0 0 0 0 0 0 0 0 0 0 0 0 0 0 0 0 0 0 0 0 0 0 0 0 0 0 0 0 0 0 0 0 0 0 0 0 0 0 0 0 0 0 0 0 0 0 0 0 0 0 0 0 0 0 0 0 0 0 0 0 0 0 0 0 0 0 0 0 0 0 0 0 0 0 0 0 0 0 0 0 0 0 0 0 0 0 0 0 0 0 0 0 0 0 0 0 0 0 0 0 0 0 0 0 0 0 0 0 0 0 0 0 0 0 0 0 0 0 0 0 0 0 0 0 0 0 0 0 0 0 0 0 0 0 0 0 0 0 0 0 0 0 0 0 0 0 0 0 0 0 0 0 0 0 0 0 0 0 0 0 0 
0 0 0 0 0 0 0 0 0 0 0 0 0 0 0 0 0 0 0 0 0 0 0 0 0 0 0 0 0 0 0 0 0 0 0 0 0 0 0 0 0 0 0 0 0 0 0 0 0 0 0 0 0 0 0 0 0 0 0 0 0 0 0 0 0 0 0 0 0 0 0 0 0 0 0 0 0 0 0 0 0 0 0 0 0 0 0 0 0 0 0 0 0 0 0 0 0 0 0 0 0 0 0 0 0 0 0 0 0 0 0 0 0 0 0 0 0 0 0 0 0 0 0 0 0 0 0 0 0 0 0 0 0 0 0 0 0 0 0 0 0 0 0 0 0 0 0 0 0 0 0 0 0 0 0 0 0 0 0 0 0 0 0 0 0 0 0 0 0 0 0 0 0 0 0 0 0 0 0 0 
0 0 0 0 0 0 0 0 0 0 0 0 0 0 0 0 0 0 0 0 0 0 0 0 0 0 0 0 0 0 0 0 0 0 0 0 0 0 0 0 0 0 0 0 0 0 0 0 0 0 0 0 0 0 0 0 0 0 0 0 0 0 0 0 0 0 0 0 0 0 0 0 0 0 0 0 0 0 0 0 0 0 0 0 0 0 0 0 0 0 0 0 0 0 0 0 0 0 0 0 0 0 0 0 0 0 0 0 0 0 0 0 0 0 0 0 0 0 0 0 0 0 0 0 0 0 0 0 0 0 0 0 0 0 0 0 0 0 0 0 0 0 0 0 0 0 0 0 0 0 0 0 0 0 0 0 0 0 0 0 0 0 0 0 0 0 0 0 0 0 0 0 0 0 0 0 0 0 0 0 
0 0 0 0 0 0 0 0 0 0 0 0 0 0 0 0 0 0 0 0 0 0 0 0 0 0 0 0 0 0 0 0 0 0 0 0 0 0 0 0 0 0 0 0 0 0 0 0 0 0 0 0 0 0 0 0 0 0 0 0 0 0 0 0 0 0 0 0 0 0 0 0 0 0 0 0 0 0 0 0 0 0 0 0 0 0 0 0 0 0 0 0 0 0 0 0 0 0 0 0 0 0 0 0 0 0 0 0 0 0 0 0 0 0 0 0 0 0 0 0 0 0 0 0 0 0 0 0 0 0 0 0 0 0 0 0 0 0 0 0 0 0 0 0 0 0 0 0 0 0 0 0 0 0 0 0 0 0 0 0 0 0 0 0 0 0 0 0 0 0 0 0 0 0 0 0 0 0 0 0 
0 0 0 0 0 0 0 0 0 0 0 0 0 0 0 0 0 0 0 0 0 0 0 0 0 0 0 0 0 0 0 0 0 0 0 0 0 0 0 0 0 0 0 0 0 0 0 0 0 0 0 0 0 0 0 0 0 0 0 0 0 0 0 0 0 0 0 0 0 0 0 0 0 0 0 0 0 0 0 0 0 0 0 0 0 0 0 0 0 0 0 0 0 0 0 0 0 0 0 0 0 0 0 0 0 0 0 0 0 0 0 0 0 0 0 0 0 0 0 0 0 0 0 0 0 0 0 0 0 0 0 0 0 0 0 0 0 0 0 0 0 0 0 0 0 0 0 0 0 0 0 0 0 0 0 0 0 0 0 0 0 0 0 0 0 0 0 0 0 0 0 0 0 0 0 0 0 0 0 0 
0 0 0 0 0 0 0 0 0 0 0 0 0 0 0 0 0 0 0 0 0 0 0 0 0 0 0 0 0 0 0 0 0 0 0 0 0 0 0 0 0 0 0 0 0 0 0 0 0 0 0 0 0 0 0 0 0 0 0 0 0 0 0 0 0 0 0 0 0 0 0 0 0 0 0 0 0 0 0 0 0 0 0 0 0 0 0 0 0 0 0 0 0 0 0 0 0 0 0 0 0 0 0 0 0 0 0 0 0 0 0 0 0 0 0 0 0 0 0 0 0 0 0 0 0 0 0 0 0 0 0 0 0 0 0 0 0 0 0 0 0 0 0 0 0 0 0 0 0 0 0 0 0 0 0 0 0 0 0 0 0 0 0 0 0 0 0 0 0 0 0 0 0 0 0 0 0 0 0 0 
0 0 0 0 0 0 0 0 0 0 0 0 0 0 0 0 0 0 0 0 0 0 0 0 0 0 0 0 0 0 0 0 0 0 0 0 0 0 0 0 0 0 0 0 0 0 0 0 0 0 0 0 0 0 0 0 0 0 0 0 0 0 0 0 0 0 0 0 0 0 0 0 0 0 0 0 0 0 0 0 0 0 0 0 0 0 0 0 0 0 0 0 0 0 0 0 0 0 0 0 0 0 0 0 0 0 0 0 0 0 0 0 0 0 0 0 0 0 0 0 0 0 0 0 0 0 0 0 0 0 0 0 0 0 0 0 0 0 0 0 0 0 0 0 0 0 0 0 0 0 0 0 0 0 0 0 0 0 0 0 0 0 0 0 0 0 0 0 0 0 0 0 0 0 0 0 0 0 0 0 
