P3
# This is a dose file slice at depth 11 of 100
60 60
# now we give the maximum value of the RGB coordinates.
32965
1 0 0 1 0 0 1 0 0 0 0 0 3 0 0 6 0 0 1 0 0 4 0 0 1 0 0 6 0 0 2 0 0 4 0 0 4 0 0 2 0 0 4 0 0 5 0 0 6 0 0 4 0 0 7 0 0 8 0 0 4 0 0 5 0 0 9 0 0 5 0 0 4 0 0 6 0 0 6 0 0 6 0 0 4 0 0 5 0 0 6 0 0 4 0 0 8 0 0 7 0 0 3 0 0 8 0 0 7 0 0 9 0 0 4 0 0 6 0 0 6 0 0 7 0 0 5 0 0 6 0 0 6 0 0 6 0 0 6 0 0 6 0 0 4 0 0 4 0 0 9 0 0 6 0 0 1 0 0 3 0 0 3 0 0 3 0 0 5 0 0 1 0 0 6 0 0 1 0 0 
3 0 0 5 0 0 2 0 0 2 0 0 5 0 0 12 0 0 5 0 0 8 0 0 9 0 0 10 0 0 10 0 0 9 0 0 10 0 0 8 0 0 9 0 0 12 0 0 12 0 0 10 0 0 11 0 0 15 0 0 14 0 0 12 0 0 13 0 0 12 0 0 15 0 0 15 0 0 13 0 0 11 0 0 10 0 0 13 0 0 11 0 0 15 0 0 22 0 0 20 0 0 7 0 0 15 0 0 16 0 0 14 0 0 12 0 0 15 0 0 12 0 0 11 0 0 17 0 0 16 0 0 14 0 0 18 0 0 11 0 0 11 0 0 12 0 0 20 0 0 14 0 0 5 0 0 8 0 0 6 0 0 8 0 0 9 0 0 8 0 0 15 0 0 9 0 0 5 0 0 
2 0 0 9 0 0 7 0 0 6 0 0 7 0 0 9 0 0 9 0 0 6 0 0 10 0 0 11 0 0 13 0 0 14 0 0 7 0 0 9 0 0 14 0 0 10 0 0 7 0 0 12 0 0 14 0 0 18 0 0 16 0 0 11 0 0 10 0 0 13 0 0 16 0 0 17 0 0 16 0 0 14 0 0 12 0 0 12 0 0 14 0 0 15 0 0 20 0 0 18 0 0 16 0 0 20 0 0 17 0 0 16 0 0 18 0 0 15 0 0 10 0 0 10 0 0 27 0 0 15 0 0 14 0 0 22 0 0 12 0 0 15 0 0 11 0 0 12 0 0 9 0 0 2 0 0 8 0 0 11 0 0 9 0 0 10 0 0 10 0 0 7 0 0 3 0 0 5 0 0 
1 0 0 6 0 0 12 0 0 5 0 0 5 0 0 9 0 0 12 0 0 10 0 0 14 0 0 13 0 0 12 0 0 16 0 0 12 0 0 6 0 0 9 0 0 15 0 0 12 0 0 19 0 0 18 0 0 24 0 0 17 0 0 17 0 0 16 0 0 18 0 0 20 0 0 23 0 0 15 0 0 19 0 0 21 0 0 15 0 0 18 0 0 20 0 0 22 0 0 26 0 0 19 0 0 17 0 0 20 0 0 17 0 0 16 0 0 15 0 0 7 0 0 18 0 0 22 0 0 21 0 0 15 0 0 23 0 0 16 0 0 17 0 0 13 0 0 12 0 0 10 0 0 7 0 0 10 0 0 12 0 0 5 0 0 9 0 0 5 0 0 6 0 0 6 0 0 6 0 0 
2 0 0 5 0 0 9 0 0 12 0 0 7 0 0 5 0 0 10 0 0 12 0 0 14 0 0 15 0 0 10 0 0 24 0 0 19 0 0 7 0 0 11 0 0 18 0 0 12 0 0 12 0 0 21 0 0 20 0 0 17 0 0 31 0 0 14 0 0 20 0 0 22 0 0 23 0 0 12 0 0 24 0 0 18 0 0 22 0 0 24 0 0 24 0 0 19 0 0 25 0 0 22 0 0 24 0 0 24 0 0 19 0 0 20 0 0 20 0 0 15 0 0 22 0 0 22 0 0 24 0 0 20 0 0 18 0 0 19 0 0 12 0 0 16 0 0 19 0 0 8 0 0 5 0 0 11 0 0 7 0 0 10 0 0 3 0 0 11 0 0 9 0 0 8 0 0 5 0 0 
5 0 0 7 0 0 7 0 0 9 0 0 11 0 0 9 0 0 8 0 0 10 0 0 16 0 0 17 0 0 12 0 0 14 0 0 20 0 0 15 0 0 12 0 0 22 0 0 11 0 0 17 0 0 19 0 0 19 0 0 14 0 0 26 0 0 13 0 0 20 0 0 28 0 0 25 0 0 20 0 0 28 0 0 20 0 0 32 0 0 22 0 0 28 0 0 19 0 0 27 0 0 24 0 0 20 0 0 25 0 0 19 0 0 24 0 0 19 0 0 19 0 0 24 0 0 24 0 0 32 0 0 21 0 0 18 0 0 17 0 0 17 0 0 25 0 0 17 0 0 7 0 0 11 0 0 14 0 0 12 0 0 10 0 0 16 0 0 9 0 0 7 0 0 9 0 0 6 0 0 
3 0 0 3 0 0 6 0 0 9 0 0 7 0 0 13 0 0 9 0 0 14 0 0 9 0 0 23 0 0 19 0 0 20 0 0 23 0 0 16 0 0 22 0 0 18 0 0 21 0 0 17 0 0 27 0 0 30 0 0 21 0 0 25 0 0 20 0 0 25 0 0 29 0 0 21 0 0 30 0 0 23 0 0 24 0 0 40 0 0 29 0 0 28 0 0 27 0 0 22 0 0 35 0 0 30 0 0 34 0 0 19 0 0 24 0 0 19 0 0 29 0 0 26 0 0 33 0 0 30 0 0 24 0 0 23 0 0 20 0 0 24 0 0 18 0 0 18 0 0 16 0 0 22 0 0 14 0 0 12 0 0 13 0 0 9 0 0 10 0 0 9 0 0 9 0 0 13 0 0 
2 0 0 8 0 0 12 0 0 12 0 0 6 0 0 13 0 0 7 0 0 13 0 0 13 0 0 15 0 0 21 0 0 18 0 0 28 0 0 22 0 0 29 0 0 27 0 0 27 0 0 26 0 0 21 0 0 35 0 0 34 0 0 32 0 0 24 0 0 23 0 0 29 0 0 30 0 0 29 0 0 24 0 0 29 0 0 39 0 0 36 0 0 37 0 0 40 0 0 38 0 0 38 0 0 31 0 0 42 0 0 38 0 0 29 0 0 39 0 0 35 0 0 37 0 0 41 0 0 27 0 0 30 0 0 29 0 0 37 0 0 20 0 0 27 0 0 24 0 0 26 0 0 24 0 0 18 0 0 16 0 0 12 0 0 14 0 0 10 0 0 14 0 0 20 0 0 16 0 0 
3 0 0 12 0 0 11 0 0 15 0 0 13 0 0 10 0 0 11 0 0 13 0 0 15 0 0 14 0 0 22 0 0 29 0 0 26 0 0 36 0 0 41 0 0 42 0 0 38 0 0 41 0 0 41 0 0 49 0 0 41 0 0 36 0 0 37 0 0 31 0 0 45 0 0 42 0 0 38 0 0 43 0 0 42 0 0 45 0 0 36 0 0 44 0 0 53 0 0 46 0 0 50 0 0 40 0 0 43 0 0 47 0 0 48 0 0 49 0 0 42 0 0 38 0 0 52 0 0 39 0 0 39 0 0 42 0 0 46 0 0 36 0 0 32 0 0 37 0 0 31 0 0 18 0 0 16 0 0 19 0 0 14 0 0 11 0 0 15 0 0 14 0 0 13 0 0 7 0 0 
6 0 0 12 0 0 12 0 0 17 0 0 10 0 0 13 0 0 21 0 0 16 0 0 21 0 0 33 0 0 88 0 0 168 0 0 169 0 0 172 0 0 164 0 0 163 0 0 172 0 0 163 0 0 170 0 0 159 0 0 169 0 0 169 0 0 163 0 0 175 0 0 170 0 0 166 0 0 170 0 0 189 0 0 170 0 0 176 0 0 178 0 0 181 0 0 172 0 0 171 0 0 187 0 0 182 0 0 166 0 0 197 0 0 177 0 0 186 0 0 163 0 0 178 0 0 163 0 0 184 0 0 175 0 0 161 0 0 176 0 0 170 0 0 140 0 0 136 0 0 88 0 0 24 0 0 26 0 0 18 0 0 13 0 0 10 0 0 8 0 0 16 0 0 8 0 0 1 0 0 
3 0 0 6 0 0 16 0 0 13 0 0 13 0 0 14 0 0 22 0 0 24 0 0 24 0 0 77 0 0 6609 0 0 12807 0 0 13010 0 0 13144 0 0 13196 0 0 13075 0 0 12961 0 0 13160 0 0 13126 0 0 13124 0 0 12855 0 0 13016 0 0 13150 0 0 13025 0 0 12958 0 0 13000 0 0 12987 0 0 13061 0 0 12927 0 0 13005 0 0 12847 0 0 13218 0 0 13219 0 0 13015 0 0 12854 0 0 12988 0 0 13147 0 0 12882 0 0 13155 0 0 13039 0 0 13029 0 0 12992 0 0 13157 0 0 12989 0 0 12948 0 0 13175 0 0 12859 0 0 13195 0 0 13098 0 0 12920 0 0 6490 0 0 95 0 0 36 0 0 20 0 0 12 0 0 8 0 0 11 0 0 12 0 0 5 0 0 9 0 0 
3 0 0 8 0 0 5 0 0 10 0 0 15 0 0 23 0 0 15 0 0 24 0 0 29 0 0 151 0 0 12900 0 0 25992 0 0 25938 0 0 25999 0 0 25776 0 0 25948 0 0 26046 0 0 26023 0 0 25782 0 0 25760 0 0 25955 0 0 25885 0 0 25972 0 0 25727 0 0 25731 0 0 25763 0 0 25902 0 0 25886 0 0 25755 0 0 25872 0 0 26022 0 0 25780 0 0 26187 0 0 25965 0 0 25977 0 0 25722 0 0 25912 0 0 25967 0 0 25907 0 0 25724 0 0 25962 0 0 25820 0 0 25956 0 0 26186 0 0 25820 0 0 26033 0 0 25981 0 0 25916 0 0 25715 0 0 25592 0 0 12723 0 0 164 0 0 24 0 0 18 0 0 12 0 0 9 0 0 12 0 0 12 0 0 12 0 0 8 0 0 
7 0 0 13 0 0 10 0 0 7 0 0 14 0 0 15 0 0 16 0 0 22 0 0 22 0 0 179 0 0 13002 0 0 25865 0 0 25971 0 0 26291 0 0 26154 0 0 25899 0 0 25899 0 0 26138 0 0 26143 0 0 25919 0 0 26109 0 0 25971 0 0 26156 0 0 26204 0 0 26087 0 0 25952 0 0 26028 0 0 26007 0 0 26373 0 0 26007 0 0 25951 0 0 26331 0 0 25939 0 0 26053 0 0 26040 0 0 26058 0 0 26279 0 0 26052 0 0 25927 0 0 26017 0 0 26085 0 0 26013 0 0 25908 0 0 26091 0 0 26207 0 0 26314 0 0 25976 0 0 25986 0 0 25839 0 0 25737 0 0 13036 0 0 147 0 0 24 0 0 20 0 0 16 0 0 13 0 0 24 0 0 14 0 0 9 0 0 7 0 0 
1 0 0 8 0 0 13 0 0 21 0 0 14 0 0 17 0 0 21 0 0 18 0 0 32 0 0 162 0 0 13176 0 0 25952 0 0 26067 0 0 26130 0 0 26018 0 0 25988 0 0 25876 0 0 26049 0 0 25924 0 0 26202 0 0 26104 0 0 26052 0 0 25718 0 0 25999 0 0 26247 0 0 26044 0 0 26127 0 0 26110 0 0 26038 0 0 26108 0 0 25872 0 0 26032 0 0 25985 0 0 26039 0 0 25854 0 0 26070 0 0 26160 0 0 26108 0 0 26103 0 0 26132 0 0 26173 0 0 26242 0 0 25952 0 0 26215 0 0 26041 0 0 25892 0 0 25995 0 0 25890 0 0 26291 0 0 25519 0 0 13051 0 0 151 0 0 32 0 0 26 0 0 19 0 0 26 0 0 15 0 0 10 0 0 12 0 0 12 0 0 
7 0 0 12 0 0 8 0 0 17 0 0 11 0 0 15 0 0 26 0 0 26 0 0 33 0 0 152 0 0 12827 0 0 25867 0 0 26142 0 0 25777 0 0 25860 0 0 25960 0 0 25922 0 0 25919 0 0 26188 0 0 25926 0 0 26317 0 0 26083 0 0 25903 0 0 26141 0 0 26027 0 0 25773 0 0 26171 0 0 26249 0 0 26146 0 0 26029 0 0 26019 0 0 26016 0 0 26183 0 0 26100 0 0 25860 0 0 25832 0 0 26153 0 0 25973 0 0 26179 0 0 25804 0 0 26155 0 0 26311 0 0 26105 0 0 25977 0 0 26169 0 0 26272 0 0 25893 0 0 26127 0 0 25946 0 0 25942 0 0 13223 0 0 170 0 0 34 0 0 20 0 0 21 0 0 14 0 0 12 0 0 7 0 0 7 0 0 15 0 0 
5 0 0 7 0 0 12 0 0 13 0 0 16 0 0 12 0 0 22 0 0 24 0 0 29 0 0 174 0 0 13143 0 0 25681 0 0 26082 0 0 26010 0 0 26303 0 0 26174 0 0 26103 0 0 26012 0 0 25927 0 0 25912 0 0 26044 0 0 25799 0 0 26072 0 0 25802 0 0 26153 0 0 26194 0 0 26267 0 0 26025 0 0 25853 0 0 25860 0 0 26228 0 0 26041 0 0 25901 0 0 25922 0 0 25924 0 0 25962 0 0 26149 0 0 26040 0 0 26284 0 0 26012 0 0 26177 0 0 25895 0 0 26119 0 0 25831 0 0 26326 0 0 26202 0 0 25992 0 0 26274 0 0 25902 0 0 25878 0 0 13095 0 0 149 0 0 31 0 0 24 0 0 25 0 0 11 0 0 10 0 0 7 0 0 12 0 0 12 0 0 
5 0 0 10 0 0 5 0 0 8 0 0 14 0 0 25 0 0 35 0 0 39 0 0 36 0 0 158 0 0 13202 0 0 26174 0 0 26359 0 0 25769 0 0 26047 0 0 26121 0 0 25968 0 0 26071 0 0 26170 0 0 25951 0 0 25957 0 0 25998 0 0 26079 0 0 26178 0 0 26045 0 0 25840 0 0 26105 0 0 26285 0 0 26348 0 0 25876 0 0 26087 0 0 26178 0 0 26195 0 0 26141 0 0 25868 0 0 26112 0 0 25912 0 0 26003 0 0 25924 0 0 26094 0 0 25983 0 0 26226 0 0 26031 0 0 26383 0 0 25970 0 0 26059 0 0 26101 0 0 26217 0 0 26093 0 0 25785 0 0 13013 0 0 182 0 0 41 0 0 29 0 0 14 0 0 15 0 0 9 0 0 13 0 0 14 0 0 15 0 0 
10 0 0 18 0 0 18 0 0 14 0 0 18 0 0 17 0 0 20 0 0 32 0 0 39 0 0 166 0 0 13131 0 0 25911 0 0 26159 0 0 26087 0 0 25941 0 0 26156 0 0 25997 0 0 26223 0 0 26006 0 0 26041 0 0 26086 0 0 26074 0 0 26037 0 0 25993 0 0 26135 0 0 26069 0 0 25984 0 0 26194 0 0 26245 0 0 26070 0 0 25880 0 0 26113 0 0 26220 0 0 26131 0 0 25969 0 0 26125 0 0 25726 0 0 26103 0 0 25918 0 0 26087 0 0 26107 0 0 25768 0 0 26099 0 0 25947 0 0 25825 0 0 26083 0 0 25920 0 0 26007 0 0 25788 0 0 25967 0 0 12884 0 0 180 0 0 58 0 0 27 0 0 19 0 0 14 0 0 16 0 0 22 0 0 18 0 0 10 0 0 
3 0 0 14 0 0 15 0 0 18 0 0 18 0 0 21 0 0 32 0 0 39 0 0 38 0 0 157 0 0 13028 0 0 25882 0 0 26118 0 0 26147 0 0 26264 0 0 26037 0 0 25976 0 0 25879 0 0 26141 0 0 26046 0 0 25962 0 0 26164 0 0 25975 0 0 25957 0 0 26138 0 0 26014 0 0 25929 0 0 26264 0 0 26037 0 0 26308 0 0 26107 0 0 26332 0 0 26078 0 0 26012 0 0 26183 0 0 26107 0 0 25959 0 0 25967 0 0 25972 0 0 25842 0 0 26211 0 0 26228 0 0 25903 0 0 26085 0 0 26038 0 0 26134 0 0 26073 0 0 26325 0 0 26000 0 0 26074 0 0 12986 0 0 174 0 0 45 0 0 31 0 0 25 0 0 22 0 0 18 0 0 18 0 0 13 0 0 12 0 0 
2 0 0 9 0 0 20 0 0 13 0 0 17 0 0 20 0 0 29 0 0 43 0 0 43 0 0 191 0 0 12868 0 0 25956 0 0 26045 0 0 25842 0 0 25969 0 0 26045 0 0 26114 0 0 26061 0 0 26118 0 0 26149 0 0 26078 0 0 26000 0 0 26261 0 0 25741 0 0 25820 0 0 25983 0 0 26149 0 0 25934 0 0 26117 0 0 26159 0 0 26162 0 0 26069 0 0 26084 0 0 25803 0 0 26077 0 0 26492 0 0 26030 0 0 25950 0 0 26044 0 0 25996 0 0 26084 0 0 26117 0 0 26029 0 0 26151 0 0 26081 0 0 26124 0 0 26012 0 0 26033 0 0 26062 0 0 26079 0 0 13010 0 0 153 0 0 44 0 0 31 0 0 20 0 0 20 0 0 15 0 0 24 0 0 21 0 0 20 0 0 
9 0 0 17 0 0 15 0 0 16 0 0 27 0 0 27 0 0 37 0 0 32 0 0 44 0 0 171 0 0 13039 0 0 25736 0 0 25765 0 0 26170 0 0 25918 0 0 26022 0 0 26204 0 0 25929 0 0 26106 0 0 25918 0 0 26005 0 0 25965 0 0 25901 0 0 26147 0 0 25912 0 0 26035 0 0 26156 0 0 25933 0 0 25982 0 0 26319 0 0 26122 0 0 26227 0 0 26142 0 0 26265 0 0 26139 0 0 25891 0 0 25955 0 0 25881 0 0 25996 0 0 25954 0 0 26104 0 0 26119 0 0 26103 0 0 25876 0 0 25856 0 0 26013 0 0 25990 0 0 26033 0 0 25901 0 0 26105 0 0 13026 0 0 190 0 0 46 0 0 33 0 0 28 0 0 19 0 0 22 0 0 16 0 0 12 0 0 11 0 0 
6 0 0 15 0 0 11 0 0 16 0 0 16 0 0 26 0 0 32 0 0 35 0 0 47 0 0 163 0 0 13072 0 0 25885 0 0 26097 0 0 25989 0 0 26226 0 0 26167 0 0 26360 0 0 25897 0 0 26149 0 0 25967 0 0 26070 0 0 26029 0 0 26134 0 0 25858 0 0 25982 0 0 25863 0 0 25980 0 0 26242 0 0 26316 0 0 25928 0 0 26051 0 0 26018 0 0 26304 0 0 26177 0 0 26176 0 0 26236 0 0 26161 0 0 26223 0 0 26287 0 0 25968 0 0 25936 0 0 26110 0 0 26230 0 0 26135 0 0 25973 0 0 25895 0 0 26127 0 0 26050 0 0 25876 0 0 25666 0 0 12968 0 0 188 0 0 51 0 0 36 0 0 27 0 0 24 0 0 21 0 0 20 0 0 19 0 0 12 0 0 
6 0 0 13 0 0 18 0 0 13 0 0 14 0 0 15 0 0 18 0 0 29 0 0 56 0 0 168 0 0 13052 0 0 25902 0 0 26028 0 0 26052 0 0 26212 0 0 26265 0 0 25977 0 0 26039 0 0 26132 0 0 26138 0 0 26149 0 0 26212 0 0 26217 0 0 26310 0 0 26085 0 0 25764 0 0 25937 0 0 26173 0 0 25957 0 0 26204 0 0 26159 0 0 25972 0 0 26287 0 0 26121 0 0 26187 0 0 26212 0 0 26237 0 0 26060 0 0 25925 0 0 25958 0 0 26133 0 0 26046 0 0 26105 0 0 25801 0 0 25973 0 0 26176 0 0 26141 0 0 26067 0 0 26009 0 0 25835 0 0 13097 0 0 168 0 0 47 0 0 38 0 0 28 0 0 25 0 0 23 0 0 22 0 0 20 0 0 12 0 0 
5 0 0 10 0 0 19 0 0 15 0 0 21 0 0 27 0 0 29 0 0 37 0 0 39 0 0 178 0 0 13136 0 0 25789 0 0 25973 0 0 25975 0 0 26042 0 0 26010 0 0 25925 0 0 25892 0 0 26163 0 0 26285 0 0 26126 0 0 26076 0 0 25972 0 0 25793 0 0 25967 0 0 26102 0 0 25889 0 0 26137 0 0 26001 0 0 26100 0 0 26240 0 0 26329 0 0 26112 0 0 26209 0 0 26072 0 0 25960 0 0 26169 0 0 26012 0 0 26133 0 0 26152 0 0 26208 0 0 26014 0 0 25943 0 0 26130 0 0 25826 0 0 26071 0 0 26056 0 0 25792 0 0 26055 0 0 25884 0 0 12952 0 0 195 0 0 53 0 0 33 0 0 29 0 0 29 0 0 25 0 0 20 0 0 19 0 0 19 0 0 
7 0 0 23 0 0 24 0 0 25 0 0 26 0 0 28 0 0 28 0 0 34 0 0 36 0 0 171 0 0 13160 0 0 25984 0 0 26121 0 0 26143 0 0 25948 0 0 26100 0 0 26131 0 0 26139 0 0 26236 0 0 26005 0 0 26214 0 0 25919 0 0 26126 0 0 26271 0 0 26090 0 0 25958 0 0 26017 0 0 26004 0 0 25964 0 0 26274 0 0 26367 0 0 26085 0 0 25906 0 0 26120 0 0 26128 0 0 25977 0 0 26122 0 0 26073 0 0 25983 0 0 26056 0 0 26405 0 0 26201 0 0 26070 0 0 26157 0 0 25980 0 0 25917 0 0 26040 0 0 26140 0 0 26071 0 0 25989 0 0 12985 0 0 171 0 0 49 0 0 34 0 0 34 0 0 21 0 0 23 0 0 18 0 0 12 0 0 10 0 0 
4 0 0 12 0 0 11 0 0 14 0 0 18 0 0 21 0 0 34 0 0 35 0 0 47 0 0 177 0 0 13060 0 0 25834 0 0 26194 0 0 25978 0 0 26103 0 0 26222 0 0 26216 0 0 26249 0 0 26036 0 0 26019 0 0 26159 0 0 26233 0 0 26265 0 0 26081 0 0 26222 0 0 25901 0 0 26083 0 0 26165 0 0 26101 0 0 25967 0 0 26118 0 0 26001 0 0 25958 0 0 26084 0 0 26190 0 0 26013 0 0 26090 0 0 25943 0 0 26028 0 0 26024 0 0 26187 0 0 25851 0 0 26009 0 0 25869 0 0 26101 0 0 26143 0 0 26097 0 0 26067 0 0 26137 0 0 25915 0 0 13022 0 0 180 0 0 43 0 0 32 0 0 26 0 0 26 0 0 21 0 0 21 0 0 20 0 0 12 0 0 
4 0 0 14 0 0 15 0 0 9 0 0 14 0 0 19 0 0 27 0 0 38 0 0 47 0 0 157 0 0 13066 0 0 26046 0 0 25991 0 0 26129 0 0 26241 0 0 25992 0 0 26282 0 0 25922 0 0 26238 0 0 26080 0 0 25940 0 0 26061 0 0 26158 0 0 26130 0 0 25946 0 0 26123 0 0 26197 0 0 26234 0 0 26175 0 0 26079 0 0 26378 0 0 26133 0 0 26305 0 0 26174 0 0 25749 0 0 26044 0 0 26167 0 0 26119 0 0 26116 0 0 26217 0 0 25954 0 0 25794 0 0 25867 0 0 26306 0 0 26143 0 0 25912 0 0 26036 0 0 26038 0 0 25992 0 0 25829 0 0 13221 0 0 183 0 0 41 0 0 34 0 0 19 0 0 27 0 0 19 0 0 21 0 0 24 0 0 16 0 0 
9 0 0 12 0 0 15 0 0 22 0 0 16 0 0 18 0 0 24 0 0 31 0 0 45 0 0 164 0 0 13000 0 0 25696 0 0 25934 0 0 25914 0 0 25841 0 0 26128 0 0 26078 0 0 26270 0 0 26039 0 0 26287 0 0 26145 0 0 26223 0 0 26084 0 0 25965 0 0 25914 0 0 26140 0 0 26129 0 0 26105 0 0 26357 0 0 26010 0 0 25773 0 0 25960 0 0 26317 0 0 26143 0 0 26069 0 0 26002 0 0 26295 0 0 26218 0 0 25949 0 0 26269 0 0 25920 0 0 26032 0 0 26106 0 0 26504 0 0 26003 0 0 26145 0 0 26220 0 0 25977 0 0 25899 0 0 25901 0 0 13153 0 0 167 0 0 39 0 0 38 0 0 28 0 0 33 0 0 20 0 0 11 0 0 13 0 0 16 0 0 
7 0 0 11 0 0 13 0 0 17 0 0 21 0 0 26 0 0 24 0 0 41 0 0 50 0 0 176 0 0 13043 0 0 25856 0 0 26189 0 0 26031 0 0 26247 0 0 26156 0 0 26227 0 0 25947 0 0 26226 0 0 26217 0 0 25932 0 0 26206 0 0 26060 0 0 26099 0 0 26168 0 0 26245 0 0 26174 0 0 26150 0 0 25981 0 0 25957 0 0 26116 0 0 25909 0 0 25882 0 0 26217 0 0 26006 0 0 26030 0 0 26390 0 0 26104 0 0 26338 0 0 26450 0 0 26219 0 0 26080 0 0 26449 0 0 26170 0 0 25909 0 0 25969 0 0 26197 0 0 26460 0 0 26502 0 0 25920 0 0 13004 0 0 181 0 0 36 0 0 28 0 0 24 0 0 16 0 0 19 0 0 18 0 0 9 0 0 10 0 0 
9 0 0 12 0 0 9 0 0 13 0 0 17 0 0 26 0 0 32 0 0 39 0 0 45 0 0 170 0 0 13055 0 0 26053 0 0 26275 0 0 26021 0 0 26137 0 0 26087 0 0 25794 0 0 25889 0 0 26087 0 0 26180 0 0 25935 0 0 26005 0 0 26459 0 0 26084 0 0 26232 0 0 26137 0 0 26008 0 0 26144 0 0 25981 0 0 26132 0 0 26136 0 0 26097 0 0 26208 0 0 26175 0 0 26059 0 0 25872 0 0 26358 0 0 26154 0 0 25968 0 0 26249 0 0 26344 0 0 26180 0 0 26175 0 0 26320 0 0 26234 0 0 25945 0 0 26251 0 0 26060 0 0 26119 0 0 25939 0 0 13231 0 0 173 0 0 43 0 0 36 0 0 31 0 0 27 0 0 22 0 0 20 0 0 19 0 0 14 0 0 
6 0 0 16 0 0 14 0 0 13 0 0 17 0 0 20 0 0 34 0 0 28 0 0 46 0 0 166 0 0 12833 0 0 25965 0 0 26030 0 0 25725 0 0 26099 0 0 26029 0 0 26042 0 0 26295 0 0 25942 0 0 26319 0 0 26126 0 0 26191 0 0 26191 0 0 26194 0 0 26068 0 0 26290 0 0 26122 0 0 25879 0 0 26202 0 0 25991 0 0 26052 0 0 26005 0 0 25926 0 0 25956 0 0 25976 0 0 26146 0 0 26302 0 0 26082 0 0 26160 0 0 26153 0 0 26096 0 0 25996 0 0 25720 0 0 25975 0 0 26162 0 0 26114 0 0 26066 0 0 26095 0 0 25882 0 0 26157 0 0 12827 0 0 173 0 0 51 0 0 36 0 0 28 0 0 23 0 0 23 0 0 25 0 0 20 0 0 14 0 0 
6 0 0 14 0 0 14 0 0 24 0 0 21 0 0 25 0 0 18 0 0 31 0 0 49 0 0 171 0 0 12969 0 0 25895 0 0 26029 0 0 26253 0 0 26405 0 0 26147 0 0 25965 0 0 26254 0 0 26024 0 0 26110 0 0 26238 0 0 25925 0 0 26052 0 0 26238 0 0 26119 0 0 25945 0 0 25984 0 0 26144 0 0 26257 0 0 26343 0 0 26076 0 0 26188 0 0 26304 0 0 26109 0 0 26157 0 0 26086 0 0 26158 0 0 26002 0 0 26110 0 0 26297 0 0 25927 0 0 25982 0 0 26245 0 0 26366 0 0 26397 0 0 25834 0 0 26034 0 0 26014 0 0 25976 0 0 25773 0 0 13086 0 0 176 0 0 39 0 0 32 0 0 32 0 0 28 0 0 22 0 0 14 0 0 22 0 0 15 0 0 
6 0 0 14 0 0 16 0 0 22 0 0 18 0 0 30 0 0 18 0 0 36 0 0 48 0 0 182 0 0 12856 0 0 25815 0 0 26340 0 0 26022 0 0 25970 0 0 25911 0 0 26148 0 0 26019 0 0 26279 0 0 26339 0 0 25809 0 0 26083 0 0 26175 0 0 26019 0 0 26228 0 0 26262 0 0 26236 0 0 25961 0 0 25822 0 0 26116 0 0 26171 0 0 26194 0 0 26221 0 0 26212 0 0 26009 0 0 25980 0 0 26108 0 0 25960 0 0 25941 0 0 25841 0 0 26077 0 0 26173 0 0 25813 0 0 26186 0 0 26198 0 0 25959 0 0 26258 0 0 25978 0 0 26016 0 0 25796 0 0 13198 0 0 177 0 0 50 0 0 33 0 0 28 0 0 26 0 0 22 0 0 24 0 0 16 0 0 12 0 0 
7 0 0 18 0 0 12 0 0 15 0 0 20 0 0 24 0 0 32 0 0 41 0 0 47 0 0 177 0 0 12805 0 0 25743 0 0 26099 0 0 26317 0 0 26013 0 0 26028 0 0 25874 0 0 26255 0 0 26149 0 0 26134 0 0 26063 0 0 26239 0 0 25977 0 0 26061 0 0 25935 0 0 26076 0 0 25979 0 0 25923 0 0 26029 0 0 26037 0 0 26186 0 0 26181 0 0 26113 0 0 26180 0 0 26049 0 0 26263 0 0 26053 0 0 26223 0 0 26080 0 0 26227 0 0 25900 0 0 25993 0 0 26003 0 0 26000 0 0 26045 0 0 26008 0 0 26154 0 0 26195 0 0 25841 0 0 25885 0 0 13048 0 0 179 0 0 44 0 0 40 0 0 34 0 0 26 0 0 16 0 0 17 0 0 19 0 0 14 0 0 
9 0 0 11 0 0 14 0 0 16 0 0 27 0 0 23 0 0 25 0 0 31 0 0 51 0 0 188 0 0 13072 0 0 25972 0 0 26168 0 0 25977 0 0 26191 0 0 26194 0 0 26125 0 0 26074 0 0 26395 0 0 26088 0 0 26079 0 0 25947 0 0 25875 0 0 26010 0 0 26213 0 0 26019 0 0 25913 0 0 26103 0 0 25904 0 0 26033 0 0 26452 0 0 26324 0 0 26017 0 0 26329 0 0 26081 0 0 26029 0 0 26121 0 0 25935 0 0 26138 0 0 26176 0 0 26332 0 0 26190 0 0 26102 0 0 26048 0 0 26247 0 0 25914 0 0 26202 0 0 26115 0 0 25855 0 0 25957 0 0 12801 0 0 167 0 0 46 0 0 33 0 0 26 0 0 16 0 0 15 0 0 25 0 0 20 0 0 19 0 0 
6 0 0 22 0 0 14 0 0 16 0 0 17 0 0 24 0 0 27 0 0 34 0 0 48 0 0 173 0 0 13022 0 0 26100 0 0 26054 0 0 26170 0 0 26124 0 0 26005 0 0 25891 0 0 26135 0 0 26168 0 0 26204 0 0 26009 0 0 26163 0 0 26010 0 0 26010 0 0 26389 0 0 26158 0 0 26165 0 0 26020 0 0 26011 0 0 26051 0 0 26151 0 0 25897 0 0 25968 0 0 26110 0 0 25961 0 0 26087 0 0 25989 0 0 26084 0 0 26117 0 0 25876 0 0 25990 0 0 26184 0 0 25653 0 0 25965 0 0 26163 0 0 26373 0 0 26140 0 0 25979 0 0 26128 0 0 26066 0 0 13212 0 0 209 0 0 67 0 0 39 0 0 27 0 0 21 0 0 18 0 0 15 0 0 12 0 0 11 0 0 
10 0 0 17 0 0 13 0 0 11 0 0 15 0 0 18 0 0 24 0 0 25 0 0 33 0 0 184 0 0 13009 0 0 25893 0 0 25937 0 0 26132 0 0 25931 0 0 25999 0 0 25952 0 0 26122 0 0 25883 0 0 25986 0 0 26126 0 0 26197 0 0 26262 0 0 26006 0 0 26451 0 0 26190 0 0 26219 0 0 26143 0 0 25880 0 0 26231 0 0 26174 0 0 25991 0 0 25927 0 0 26203 0 0 26256 0 0 25978 0 0 25840 0 0 26044 0 0 26040 0 0 26038 0 0 25975 0 0 26213 0 0 25916 0 0 26254 0 0 26210 0 0 26129 0 0 26335 0 0 26089 0 0 26087 0 0 25845 0 0 13054 0 0 179 0 0 51 0 0 40 0 0 29 0 0 21 0 0 19 0 0 13 0 0 10 0 0 7 0 0 
7 0 0 13 0 0 13 0 0 14 0 0 17 0 0 12 0 0 22 0 0 25 0 0 44 0 0 169 0 0 13124 0 0 26019 0 0 25843 0 0 26019 0 0 26170 0 0 26192 0 0 25928 0 0 26148 0 0 26072 0 0 26054 0 0 25969 0 0 26282 0 0 26209 0 0 26058 0 0 26486 0 0 25930 0 0 25912 0 0 26230 0 0 26165 0 0 25887 0 0 26131 0 0 26146 0 0 26045 0 0 26399 0 0 25996 0 0 26002 0 0 26201 0 0 26124 0 0 25989 0 0 26170 0 0 25942 0 0 25783 0 0 25902 0 0 26122 0 0 26033 0 0 25935 0 0 25895 0 0 26138 0 0 25827 0 0 26028 0 0 12810 0 0 191 0 0 54 0 0 41 0 0 40 0 0 24 0 0 13 0 0 16 0 0 12 0 0 17 0 0 
3 0 0 16 0 0 22 0 0 23 0 0 27 0 0 24 0 0 28 0 0 37 0 0 51 0 0 183 0 0 13116 0 0 26213 0 0 25939 0 0 25962 0 0 26155 0 0 26214 0 0 25958 0 0 26133 0 0 26081 0 0 26125 0 0 26206 0 0 26057 0 0 25866 0 0 26151 0 0 25862 0 0 26128 0 0 26034 0 0 25861 0 0 26023 0 0 26244 0 0 26196 0 0 25986 0 0 26046 0 0 25884 0 0 25991 0 0 26363 0 0 26192 0 0 26069 0 0 26109 0 0 25970 0 0 26157 0 0 25894 0 0 26253 0 0 26200 0 0 25987 0 0 25907 0 0 26197 0 0 25945 0 0 26063 0 0 26297 0 0 12974 0 0 165 0 0 43 0 0 31 0 0 30 0 0 24 0 0 18 0 0 16 0 0 17 0 0 9 0 0 
8 0 0 13 0 0 22 0 0 23 0 0 23 0 0 28 0 0 24 0 0 32 0 0 37 0 0 178 0 0 13089 0 0 25814 0 0 26099 0 0 26034 0 0 26159 0 0 25963 0 0 26220 0 0 26227 0 0 26196 0 0 26072 0 0 25838 0 0 26127 0 0 25920 0 0 26164 0 0 26081 0 0 26091 0 0 25860 0 0 25840 0 0 25908 0 0 26290 0 0 25967 0 0 26248 0 0 25971 0 0 25778 0 0 25957 0 0 25935 0 0 26187 0 0 26308 0 0 25892 0 0 25979 0 0 25827 0 0 26010 0 0 26242 0 0 26299 0 0 26084 0 0 26068 0 0 26190 0 0 25897 0 0 26113 0 0 26131 0 0 12990 0 0 192 0 0 49 0 0 35 0 0 31 0 0 30 0 0 21 0 0 23 0 0 16 0 0 13 0 0 
10 0 0 19 0 0 22 0 0 18 0 0 15 0 0 21 0 0 26 0 0 35 0 0 47 0 0 182 0 0 12987 0 0 25872 0 0 25938 0 0 25928 0 0 25974 0 0 26118 0 0 25966 0 0 25933 0 0 26004 0 0 25864 0 0 25817 0 0 25860 0 0 26205 0 0 26243 0 0 26332 0 0 26042 0 0 26188 0 0 26309 0 0 25901 0 0 26179 0 0 26156 0 0 25889 0 0 25946 0 0 26272 0 0 26078 0 0 26066 0 0 26139 0 0 26187 0 0 26014 0 0 25946 0 0 26058 0 0 25968 0 0 26101 0 0 26130 0 0 26160 0 0 25924 0 0 25918 0 0 26053 0 0 26150 0 0 25915 0 0 13115 0 0 186 0 0 51 0 0 43 0 0 31 0 0 30 0 0 21 0 0 18 0 0 16 0 0 12 0 0 
9 0 0 20 0 0 8 0 0 8 0 0 11 0 0 16 0 0 25 0 0 33 0 0 40 0 0 175 0 0 13212 0 0 25836 0 0 26139 0 0 26023 0 0 25979 0 0 25933 0 0 25872 0 0 25935 0 0 26165 0 0 25939 0 0 25935 0 0 26246 0 0 26044 0 0 26080 0 0 26240 0 0 26158 0 0 26199 0 0 25985 0 0 26056 0 0 26239 0 0 26248 0 0 26047 0 0 25906 0 0 26114 0 0 25913 0 0 25685 0 0 25882 0 0 26037 0 0 26122 0 0 26156 0 0 26253 0 0 26123 0 0 25999 0 0 26027 0 0 25995 0 0 26340 0 0 26081 0 0 26255 0 0 26040 0 0 26045 0 0 12987 0 0 173 0 0 40 0 0 34 0 0 39 0 0 25 0 0 21 0 0 15 0 0 12 0 0 12 0 0 
12 0 0 22 0 0 19 0 0 22 0 0 18 0 0 33 0 0 30 0 0 32 0 0 35 0 0 181 0 0 12864 0 0 25605 0 0 26110 0 0 25958 0 0 26291 0 0 26195 0 0 26100 0 0 26108 0 0 25863 0 0 26091 0 0 25817 0 0 26083 0 0 25991 0 0 26033 0 0 26021 0 0 25965 0 0 26116 0 0 25908 0 0 26102 0 0 25799 0 0 26488 0 0 26293 0 0 26239 0 0 26187 0 0 26290 0 0 26246 0 0 26208 0 0 25935 0 0 25915 0 0 25972 0 0 26127 0 0 26260 0 0 26015 0 0 26206 0 0 25978 0 0 25975 0 0 26013 0 0 25826 0 0 25993 0 0 25772 0 0 13143 0 0 180 0 0 35 0 0 27 0 0 25 0 0 23 0 0 16 0 0 14 0 0 12 0 0 13 0 0 
4 0 0 8 0 0 9 0 0 27 0 0 23 0 0 16 0 0 23 0 0 38 0 0 41 0 0 159 0 0 13102 0 0 26002 0 0 26092 0 0 26130 0 0 26450 0 0 26049 0 0 26249 0 0 25901 0 0 26079 0 0 25987 0 0 26154 0 0 26082 0 0 25997 0 0 26219 0 0 26115 0 0 25982 0 0 25992 0 0 26163 0 0 26385 0 0 25926 0 0 25884 0 0 26035 0 0 26311 0 0 26100 0 0 26114 0 0 26010 0 0 26151 0 0 26017 0 0 26123 0 0 26010 0 0 26085 0 0 26221 0 0 25967 0 0 26076 0 0 26278 0 0 25882 0 0 26058 0 0 26108 0 0 26004 0 0 25648 0 0 13016 0 0 186 0 0 35 0 0 25 0 0 25 0 0 26 0 0 19 0 0 15 0 0 13 0 0 14 0 0 
4 0 0 11 0 0 22 0 0 19 0 0 17 0 0 20 0 0 35 0 0 26 0 0 35 0 0 173 0 0 13031 0 0 25884 0 0 26082 0 0 26095 0 0 25983 0 0 26224 0 0 26452 0 0 25947 0 0 25920 0 0 25881 0 0 25958 0 0 25962 0 0 26049 0 0 26289 0 0 25966 0 0 25983 0 0 25977 0 0 26232 0 0 26079 0 0 26179 0 0 26169 0 0 26047 0 0 26101 0 0 26134 0 0 26135 0 0 26101 0 0 26165 0 0 25861 0 0 25923 0 0 26044 0 0 26288 0 0 26138 0 0 26318 0 0 25979 0 0 25842 0 0 26046 0 0 26164 0 0 26175 0 0 25900 0 0 26106 0 0 13003 0 0 165 0 0 36 0 0 32 0 0 27 0 0 22 0 0 20 0 0 18 0 0 15 0 0 14 0 0 
4 0 0 16 0 0 10 0 0 14 0 0 22 0 0 24 0 0 27 0 0 26 0 0 38 0 0 173 0 0 12957 0 0 25683 0 0 26107 0 0 25843 0 0 26115 0 0 26035 0 0 26153 0 0 25829 0 0 25956 0 0 26195 0 0 26150 0 0 25796 0 0 25848 0 0 26163 0 0 26269 0 0 26141 0 0 26199 0 0 26333 0 0 26129 0 0 26055 0 0 25924 0 0 26303 0 0 26060 0 0 25610 0 0 26114 0 0 26021 0 0 26059 0 0 26032 0 0 26176 0 0 25750 0 0 26309 0 0 26236 0 0 25926 0 0 26021 0 0 26073 0 0 26087 0 0 26106 0 0 26085 0 0 26019 0 0 25691 0 0 12861 0 0 143 0 0 38 0 0 30 0 0 21 0 0 16 0 0 22 0 0 22 0 0 20 0 0 17 0 0 
7 0 0 11 0 0 12 0 0 14 0 0 18 0 0 21 0 0 27 0 0 37 0 0 54 0 0 156 0 0 13004 0 0 25944 0 0 25911 0 0 26191 0 0 26181 0 0 25885 0 0 26333 0 0 26193 0 0 26110 0 0 26301 0 0 25830 0 0 25913 0 0 26071 0 0 26128 0 0 26210 0 0 26309 0 0 25959 0 0 26241 0 0 25984 0 0 26104 0 0 26406 0 0 26038 0 0 26034 0 0 26189 0 0 25906 0 0 26292 0 0 26083 0 0 25964 0 0 26124 0 0 26119 0 0 25908 0 0 26084 0 0 26042 0 0 25977 0 0 26029 0 0 26090 0 0 26047 0 0 26120 0 0 26117 0 0 25890 0 0 13167 0 0 164 0 0 38 0 0 36 0 0 22 0 0 20 0 0 16 0 0 15 0 0 10 0 0 13 0 0 
6 0 0 14 0 0 10 0 0 12 0 0 16 0 0 18 0 0 20 0 0 22 0 0 35 0 0 153 0 0 12849 0 0 26041 0 0 26013 0 0 26140 0 0 26028 0 0 26009 0 0 26179 0 0 25908 0 0 25984 0 0 26137 0 0 26146 0 0 25903 0 0 25917 0 0 26012 0 0 26124 0 0 25934 0 0 26037 0 0 25874 0 0 26267 0 0 26088 0 0 25888 0 0 25979 0 0 26041 0 0 26030 0 0 26103 0 0 26202 0 0 25832 0 0 26021 0 0 25948 0 0 26126 0 0 26070 0 0 26045 0 0 25871 0 0 26315 0 0 26284 0 0 26127 0 0 26005 0 0 25906 0 0 26042 0 0 25797 0 0 13023 0 0 156 0 0 37 0 0 26 0 0 23 0 0 21 0 0 17 0 0 13 0 0 10 0 0 9 0 0 
7 0 0 10 0 0 11 0 0 9 0 0 12 0 0 15 0 0 22 0 0 26 0 0 32 0 0 159 0 0 13207 0 0 25801 0 0 25840 0 0 25815 0 0 26168 0 0 26040 0 0 25860 0 0 26066 0 0 26229 0 0 26049 0 0 26147 0 0 26302 0 0 26134 0 0 25881 0 0 26172 0 0 26012 0 0 25980 0 0 25971 0 0 26394 0 0 26056 0 0 25801 0 0 26028 0 0 25825 0 0 26140 0 0 25918 0 0 26296 0 0 25939 0 0 25904 0 0 25955 0 0 25713 0 0 26325 0 0 26111 0 0 25970 0 0 26213 0 0 26120 0 0 26101 0 0 26205 0 0 26036 0 0 26017 0 0 25955 0 0 13024 0 0 166 0 0 32 0 0 29 0 0 23 0 0 13 0 0 17 0 0 17 0 0 10 0 0 12 0 0 
2 0 0 11 0 0 10 0 0 7 0 0 12 0 0 19 0 0 19 0 0 30 0 0 37 0 0 154 0 0 13006 0 0 25725 0 0 25757 0 0 25720 0 0 25883 0 0 26256 0 0 26027 0 0 25920 0 0 26056 0 0 25861 0 0 26070 0 0 25857 0 0 25905 0 0 25925 0 0 25815 0 0 25995 0 0 25834 0 0 26120 0 0 25782 0 0 25817 0 0 25802 0 0 25734 0 0 26025 0 0 25837 0 0 25940 0 0 25933 0 0 25820 0 0 25566 0 0 25892 0 0 25842 0 0 25898 0 0 25527 0 0 25632 0 0 25985 0 0 25965 0 0 26140 0 0 25838 0 0 26019 0 0 26069 0 0 25866 0 0 12977 0 0 116 0 0 29 0 0 20 0 0 5 0 0 12 0 0 16 0 0 20 0 0 11 0 0 8 0 0 
4 0 0 6 0 0 8 0 0 11 0 0 15 0 0 16 0 0 17 0 0 24 0 0 18 0 0 80 0 0 6541 0 0 13047 0 0 13142 0 0 12859 0 0 12930 0 0 13191 0 0 13014 0 0 13099 0 0 13100 0 0 13112 0 0 13225 0 0 13154 0 0 13023 0 0 13076 0 0 12921 0 0 13138 0 0 13153 0 0 13054 0 0 12698 0 0 12919 0 0 13092 0 0 13076 0 0 13027 0 0 13022 0 0 12868 0 0 13089 0 0 12858 0 0 12994 0 0 13107 0 0 13138 0 0 12973 0 0 13104 0 0 13080 0 0 12871 0 0 13005 0 0 12983 0 0 12919 0 0 12951 0 0 13097 0 0 12932 0 0 6523 0 0 85 0 0 20 0 0 20 0 0 13 0 0 12 0 0 6 0 0 10 0 0 16 0 0 13 0 0 
3 0 0 7 0 0 8 0 0 12 0 0 9 0 0 14 0 0 22 0 0 13 0 0 17 0 0 30 0 0 82 0 0 140 0 0 159 0 0 170 0 0 155 0 0 163 0 0 152 0 0 167 0 0 180 0 0 160 0 0 168 0 0 170 0 0 189 0 0 174 0 0 169 0 0 181 0 0 170 0 0 176 0 0 173 0 0 172 0 0 190 0 0 187 0 0 169 0 0 183 0 0 169 0 0 179 0 0 183 0 0 153 0 0 169 0 0 201 0 0 172 0 0 176 0 0 152 0 0 183 0 0 148 0 0 163 0 0 156 0 0 155 0 0 168 0 0 167 0 0 99 0 0 34 0 0 17 0 0 14 0 0 17 0 0 21 0 0 13 0 0 9 0 0 7 0 0 5 0 0 
2 0 0 5 0 0 8 0 0 9 0 0 12 0 0 19 0 0 13 0 0 12 0 0 20 0 0 22 0 0 21 0 0 33 0 0 35 0 0 47 0 0 35 0 0 40 0 0 37 0 0 43 0 0 40 0 0 35 0 0 39 0 0 52 0 0 41 0 0 37 0 0 50 0 0 40 0 0 34 0 0 37 0 0 42 0 0 44 0 0 37 0 0 40 0 0 34 0 0 42 0 0 52 0 0 48 0 0 44 0 0 46 0 0 43 0 0 49 0 0 45 0 0 44 0 0 37 0 0 47 0 0 44 0 0 44 0 0 33 0 0 38 0 0 25 0 0 33 0 0 25 0 0 19 0 0 19 0 0 14 0 0 17 0 0 11 0 0 16 0 0 10 0 0 15 0 0 6 0 0 
3 0 0 6 0 0 10 0 0 10 0 0 19 0 0 9 0 0 10 0 0 14 0 0 17 0 0 12 0 0 18 0 0 25 0 0 32 0 0 26 0 0 24 0 0 24 0 0 28 0 0 30 0 0 30 0 0 25 0 0 39 0 0 35 0 0 31 0 0 30 0 0 28 0 0 28 0 0 32 0 0 25 0 0 28 0 0 36 0 0 29 0 0 33 0 0 25 0 0 38 0 0 41 0 0 33 0 0 29 0 0 34 0 0 40 0 0 34 0 0 35 0 0 32 0 0 24 0 0 32 0 0 29 0 0 36 0 0 22 0 0 23 0 0 22 0 0 22 0 0 18 0 0 19 0 0 22 0 0 16 0 0 10 0 0 15 0 0 11 0 0 11 0 0 10 0 0 12 0 0 
2 0 0 2 0 0 12 0 0 12 0 0 8 0 0 12 0 0 7 0 0 11 0 0 15 0 0 15 0 0 24 0 0 22 0 0 18 0 0 24 0 0 18 0 0 33 0 0 17 0 0 18 0 0 21 0 0 17 0 0 37 0 0 29 0 0 23 0 0 24 0 0 16 0 0 25 0 0 26 0 0 32 0 0 35 0 0 27 0 0 23 0 0 27 0 0 27 0 0 29 0 0 35 0 0 22 0 0 20 0 0 28 0 0 21 0 0 27 0 0 30 0 0 23 0 0 30 0 0 24 0 0 17 0 0 25 0 0 26 0 0 15 0 0 13 0 0 16 0 0 12 0 0 17 0 0 14 0 0 12 0 0 12 0 0 12 0 0 11 0 0 9 0 0 6 0 0 6 0 0 
4 0 0 7 0 0 5 0 0 9 0 0 7 0 0 8 0 0 6 0 0 13 0 0 14 0 0 19 0 0 17 0 0 17 0 0 17 0 0 15 0 0 15 0 0 17 0 0 18 0 0 18 0 0 13 0 0 24 0 0 31 0 0 30 0 0 25 0 0 17 0 0 19 0 0 19 0 0 23 0 0 29 0 0 29 0 0 22 0 0 21 0 0 24 0 0 18 0 0 36 0 0 27 0 0 21 0 0 24 0 0 19 0 0 24 0 0 19 0 0 24 0 0 23 0 0 14 0 0 22 0 0 24 0 0 23 0 0 12 0 0 18 0 0 12 0 0 18 0 0 10 0 0 15 0 0 10 0 0 11 0 0 13 0 0 10 0 0 6 0 0 8 0 0 7 0 0 5 0 0 
1 0 0 5 0 0 6 0 0 4 0 0 7 0 0 6 0 0 13 0 0 12 0 0 12 0 0 17 0 0 15 0 0 9 0 0 14 0 0 12 0 0 11 0 0 18 0 0 18 0 0 17 0 0 22 0 0 19 0 0 25 0 0 18 0 0 20 0 0 17 0 0 12 0 0 15 0 0 19 0 0 27 0 0 23 0 0 19 0 0 22 0 0 26 0 0 19 0 0 23 0 0 26 0 0 21 0 0 11 0 0 16 0 0 16 0 0 22 0 0 24 0 0 17 0 0 17 0 0 18 0 0 20 0 0 18 0 0 15 0 0 14 0 0 12 0 0 13 0 0 9 0 0 15 0 0 6 0 0 5 0 0 13 0 0 8 0 0 10 0 0 5 0 0 4 0 0 4 0 0 
3 0 0 5 0 0 4 0 0 9 0 0 4 0 0 8 0 0 6 0 0 9 0 0 12 0 0 15 0 0 14 0 0 11 0 0 19 0 0 10 0 0 14 0 0 14 0 0 16 0 0 18 0 0 11 0 0 16 0 0 14 0 0 23 0 0 22 0 0 15 0 0 18 0 0 17 0 0 24 0 0 18 0 0 21 0 0 20 0 0 19 0 0 22 0 0 24 0 0 15 0 0 18 0 0 24 0 0 11 0 0 16 0 0 12 0 0 10 0 0 22 0 0 20 0 0 14 0 0 16 0 0 13 0 0 15 0 0 13 0 0 12 0 0 16 0 0 15 0 0 10 0 0 16 0 0 11 0 0 7 0 0 9 0 0 9 0 0 7 0 0 2 0 0 2 0 0 3 0 0 
1 0 0 3 0 0 7 0 0 6 0 0 4 0 0 7 0 0 3 0 0 7 0 0 13 0 0 16 0 0 13 0 0 13 0 0 11 0 0 8 0 0 19 0 0 12 0 0 14 0 0 15 0 0 11 0 0 15 0 0 14 0 0 19 0 0 14 0 0 17 0 0 12 0 0 18 0 0 15 0 0 16 0 0 15 0 0 18 0 0 15 0 0 12 0 0 15 0 0 16 0 0 19 0 0 13 0 0 14 0 0 15 0 0 11 0 0 10 0 0 19 0 0 20 0 0 12 0 0 17 0 0 10 0 0 10 0 0 10 0 0 12 0 0 18 0 0 15 0 0 12 0 0 14 0 0 11 0 0 7 0 0 8 0 0 12 0 0 7 0 0 10 0 0 4 0 0 5 0 0 
0 0 0 5 0 0 2 0 0 4 0 0 6 0 0 7 0 0 12 0 0 8 0 0 10 0 0 9 0 0 7 0 0 7 0 0 11 0 0 11 0 0 13 0 0 12 0 0 9 0 0 13 0 0 12 0 0 13 0 0 22 0 0 16 0 0 11 0 0 17 0 0 11 0 0 13 0 0 15 0 0 17 0 0 16 0 0 18 0 0 16 0 0 18 0 0 16 0 0 14 0 0 16 0 0 14 0 0 9 0 0 16 0 0 12 0 0 9 0 0 15 0 0 21 0 0 7 0 0 15 0 0 4 0 0 11 0 0 4 0 0 8 0 0 13 0 0 13 0 0 12 0 0 10 0 0 9 0 0 6 0 0 8 0 0 10 0 0 9 0 0 7 0 0 8 0 0 3 0 0 
