P3
# This is a dose file slice at depth 19 of 100
60 60
# now we give the maximum value of the RGB coordinates.
32965
1 0 0 4 0 0 4 0 0 3 0 0 8 0 0 4 0 0 4 0 0 3 0 0 5 0 0 2 0 0 5 0 0 3 0 0 3 0 0 3 0 0 7 0 0 7 0 0 2 0 0 5 0 0 2 0 0 6 0 0 3 0 0 5 0 0 3 0 0 7 0 0 4 0 0 6 0 0 4 0 0 4 0 0 3 0 0 2 0 0 4 0 0 7 0 0 10 0 0 8 0 0 5 0 0 6 0 0 2 0 0 5 0 0 7 0 0 5 0 0 6 0 0 5 0 0 5 0 0 4 0 0 3 0 0 4 0 0 5 0 0 3 0 0 6 0 0 5 0 0 1 0 0 4 0 0 1 0 0 2 0 0 5 0 0 5 0 0 4 0 0 5 0 0 4 0 0 1 0 0 
5 0 0 5 0 0 9 0 0 11 0 0 7 0 0 9 0 0 6 0 0 7 0 0 10 0 0 9 0 0 9 0 0 7 0 0 10 0 0 7 0 0 10 0 0 10 0 0 10 0 0 12 0 0 12 0 0 5 0 0 11 0 0 10 0 0 12 0 0 11 0 0 16 0 0 14 0 0 7 0 0 12 0 0 12 0 0 10 0 0 18 0 0 10 0 0 18 0 0 12 0 0 8 0 0 12 0 0 14 0 0 13 0 0 12 0 0 14 0 0 9 0 0 11 0 0 14 0 0 13 0 0 5 0 0 12 0 0 11 0 0 11 0 0 14 0 0 9 0 0 5 0 0 6 0 0 8 0 0 6 0 0 7 0 0 10 0 0 10 0 0 11 0 0 6 0 0 5 0 0 
1 0 0 9 0 0 12 0 0 6 0 0 6 0 0 9 0 0 10 0 0 8 0 0 12 0 0 8 0 0 14 0 0 7 0 0 11 0 0 12 0 0 11 0 0 12 0 0 10 0 0 15 0 0 16 0 0 11 0 0 9 0 0 12 0 0 15 0 0 9 0 0 19 0 0 14 0 0 11 0 0 8 0 0 16 0 0 16 0 0 13 0 0 11 0 0 16 0 0 18 0 0 10 0 0 12 0 0 12 0 0 14 0 0 14 0 0 15 0 0 10 0 0 13 0 0 11 0 0 10 0 0 7 0 0 15 0 0 12 0 0 10 0 0 12 0 0 7 0 0 8 0 0 10 0 0 3 0 0 9 0 0 9 0 0 14 0 0 6 0 0 8 0 0 6 0 0 7 0 0 
3 0 0 3 0 0 11 0 0 14 0 0 5 0 0 9 0 0 10 0 0 15 0 0 11 0 0 13 0 0 12 0 0 13 0 0 9 0 0 14 0 0 13 0 0 12 0 0 8 0 0 15 0 0 14 0 0 12 0 0 12 0 0 15 0 0 18 0 0 15 0 0 8 0 0 18 0 0 15 0 0 20 0 0 16 0 0 12 0 0 12 0 0 20 0 0 18 0 0 19 0 0 20 0 0 9 0 0 15 0 0 18 0 0 17 0 0 16 0 0 9 0 0 18 0 0 14 0 0 8 0 0 13 0 0 14 0 0 5 0 0 15 0 0 9 0 0 7 0 0 13 0 0 10 0 0 4 0 0 6 0 0 7 0 0 9 0 0 6 0 0 8 0 0 4 0 0 5 0 0 
3 0 0 4 0 0 5 0 0 9 0 0 15 0 0 9 0 0 6 0 0 11 0 0 15 0 0 21 0 0 9 0 0 16 0 0 10 0 0 13 0 0 14 0 0 13 0 0 15 0 0 18 0 0 12 0 0 15 0 0 16 0 0 16 0 0 18 0 0 18 0 0 16 0 0 15 0 0 23 0 0 23 0 0 22 0 0 15 0 0 12 0 0 19 0 0 19 0 0 16 0 0 21 0 0 18 0 0 20 0 0 20 0 0 18 0 0 19 0 0 21 0 0 17 0 0 16 0 0 14 0 0 20 0 0 19 0 0 14 0 0 12 0 0 16 0 0 14 0 0 11 0 0 9 0 0 10 0 0 9 0 0 8 0 0 7 0 0 11 0 0 5 0 0 5 0 0 8 0 0 
6 0 0 7 0 0 3 0 0 6 0 0 8 0 0 14 0 0 8 0 0 9 0 0 16 0 0 16 0 0 16 0 0 20 0 0 15 0 0 12 0 0 15 0 0 16 0 0 19 0 0 20 0 0 21 0 0 14 0 0 19 0 0 23 0 0 25 0 0 26 0 0 19 0 0 22 0 0 24 0 0 24 0 0 21 0 0 21 0 0 12 0 0 25 0 0 22 0 0 25 0 0 19 0 0 23 0 0 26 0 0 27 0 0 23 0 0 27 0 0 23 0 0 21 0 0 18 0 0 18 0 0 10 0 0 22 0 0 21 0 0 15 0 0 16 0 0 21 0 0 14 0 0 11 0 0 8 0 0 7 0 0 11 0 0 5 0 0 10 0 0 6 0 0 6 0 0 5 0 0 
3 0 0 13 0 0 9 0 0 9 0 0 10 0 0 9 0 0 13 0 0 12 0 0 13 0 0 14 0 0 15 0 0 21 0 0 24 0 0 24 0 0 21 0 0 17 0 0 16 0 0 17 0 0 21 0 0 30 0 0 18 0 0 28 0 0 23 0 0 20 0 0 28 0 0 32 0 0 41 0 0 21 0 0 22 0 0 31 0 0 15 0 0 24 0 0 23 0 0 29 0 0 24 0 0 19 0 0 25 0 0 21 0 0 29 0 0 23 0 0 25 0 0 22 0 0 24 0 0 18 0 0 17 0 0 19 0 0 20 0 0 15 0 0 29 0 0 14 0 0 16 0 0 13 0 0 11 0 0 17 0 0 10 0 0 4 0 0 6 0 0 7 0 0 6 0 0 5 0 0 
4 0 0 10 0 0 5 0 0 7 0 0 11 0 0 13 0 0 17 0 0 14 0 0 22 0 0 17 0 0 19 0 0 24 0 0 23 0 0 21 0 0 25 0 0 21 0 0 13 0 0 18 0 0 25 0 0 27 0 0 28 0 0 29 0 0 28 0 0 26 0 0 36 0 0 35 0 0 34 0 0 28 0 0 35 0 0 38 0 0 29 0 0 34 0 0 27 0 0 31 0 0 32 0 0 36 0 0 26 0 0 22 0 0 27 0 0 18 0 0 33 0 0 25 0 0 26 0 0 21 0 0 24 0 0 29 0 0 24 0 0 23 0 0 26 0 0 15 0 0 13 0 0 13 0 0 13 0 0 15 0 0 6 0 0 10 0 0 3 0 0 1 0 0 6 0 0 4 0 0 
3 0 0 9 0 0 7 0 0 4 0 0 10 0 0 15 0 0 11 0 0 10 0 0 15 0 0 25 0 0 15 0 0 24 0 0 25 0 0 35 0 0 31 0 0 26 0 0 22 0 0 30 0 0 37 0 0 35 0 0 35 0 0 35 0 0 39 0 0 32 0 0 44 0 0 37 0 0 36 0 0 35 0 0 40 0 0 39 0 0 44 0 0 43 0 0 38 0 0 39 0 0 46 0 0 44 0 0 32 0 0 34 0 0 29 0 0 28 0 0 38 0 0 33 0 0 34 0 0 38 0 0 25 0 0 36 0 0 31 0 0 34 0 0 36 0 0 33 0 0 21 0 0 22 0 0 17 0 0 10 0 0 12 0 0 7 0 0 11 0 0 10 0 0 10 0 0 13 0 0 
5 0 0 8 0 0 9 0 0 12 0 0 11 0 0 10 0 0 21 0 0 17 0 0 19 0 0 22 0 0 72 0 0 126 0 0 128 0 0 151 0 0 139 0 0 137 0 0 142 0 0 124 0 0 137 0 0 136 0 0 152 0 0 157 0 0 135 0 0 159 0 0 142 0 0 137 0 0 158 0 0 148 0 0 151 0 0 138 0 0 147 0 0 149 0 0 156 0 0 141 0 0 156 0 0 154 0 0 139 0 0 146 0 0 150 0 0 169 0 0 159 0 0 153 0 0 141 0 0 147 0 0 149 0 0 161 0 0 117 0 0 165 0 0 153 0 0 131 0 0 83 0 0 27 0 0 20 0 0 10 0 0 15 0 0 17 0 0 15 0 0 18 0 0 12 0 0 12 0 0 
6 0 0 8 0 0 6 0 0 9 0 0 11 0 0 7 0 0 13 0 0 19 0 0 22 0 0 67 0 0 5531 0 0 10732 0 0 10814 0 0 10619 0 0 10738 0 0 10827 0 0 10776 0 0 10751 0 0 10950 0 0 10666 0 0 10947 0 0 10878 0 0 10610 0 0 10741 0 0 10922 0 0 10869 0 0 10760 0 0 10609 0 0 10827 0 0 10633 0 0 10874 0 0 10761 0 0 10820 0 0 10668 0 0 10702 0 0 10764 0 0 10756 0 0 10646 0 0 10762 0 0 10885 0 0 10664 0 0 10714 0 0 10640 0 0 10697 0 0 10914 0 0 10815 0 0 10755 0 0 10664 0 0 10634 0 0 10824 0 0 5332 0 0 74 0 0 17 0 0 14 0 0 14 0 0 16 0 0 10 0 0 10 0 0 14 0 0 9 0 0 
3 0 0 11 0 0 10 0 0 6 0 0 11 0 0 16 0 0 14 0 0 21 0 0 27 0 0 138 0 0 10683 0 0 20987 0 0 21340 0 0 21469 0 0 21474 0 0 21291 0 0 21292 0 0 21508 0 0 21365 0 0 21430 0 0 21512 0 0 21526 0 0 21484 0 0 21479 0 0 21496 0 0 21268 0 0 21221 0 0 21650 0 0 21449 0 0 21297 0 0 21183 0 0 21524 0 0 21427 0 0 21348 0 0 21406 0 0 21271 0 0 21314 0 0 21697 0 0 21454 0 0 21338 0 0 21410 0 0 21555 0 0 21441 0 0 21526 0 0 21629 0 0 21479 0 0 21394 0 0 21470 0 0 21366 0 0 21393 0 0 10756 0 0 122 0 0 24 0 0 16 0 0 20 0 0 17 0 0 16 0 0 16 0 0 13 0 0 6 0 0 
5 0 0 11 0 0 13 0 0 12 0 0 14 0 0 14 0 0 20 0 0 23 0 0 38 0 0 132 0 0 10934 0 0 21305 0 0 21434 0 0 21598 0 0 21515 0 0 21457 0 0 21510 0 0 21224 0 0 21553 0 0 21523 0 0 21472 0 0 21612 0 0 21443 0 0 21535 0 0 21497 0 0 21472 0 0 21617 0 0 21785 0 0 21512 0 0 21384 0 0 21436 0 0 21449 0 0 21732 0 0 21681 0 0 21527 0 0 21479 0 0 21465 0 0 21673 0 0 21489 0 0 21412 0 0 21305 0 0 21585 0 0 21504 0 0 21453 0 0 21585 0 0 21677 0 0 21600 0 0 21534 0 0 21815 0 0 21486 0 0 10763 0 0 162 0 0 30 0 0 24 0 0 19 0 0 20 0 0 17 0 0 17 0 0 17 0 0 11 0 0 
4 0 0 4 0 0 8 0 0 11 0 0 16 0 0 16 0 0 13 0 0 20 0 0 31 0 0 155 0 0 10828 0 0 21698 0 0 21683 0 0 21487 0 0 21660 0 0 21601 0 0 21622 0 0 21240 0 0 21571 0 0 21403 0 0 21486 0 0 21451 0 0 21669 0 0 21608 0 0 21470 0 0 21559 0 0 21729 0 0 21432 0 0 21530 0 0 21683 0 0 21600 0 0 21585 0 0 21295 0 0 21678 0 0 21469 0 0 21369 0 0 21638 0 0 21540 0 0 21505 0 0 21462 0 0 21640 0 0 21470 0 0 21410 0 0 21630 0 0 21412 0 0 21359 0 0 21491 0 0 21582 0 0 21549 0 0 21492 0 0 10921 0 0 139 0 0 32 0 0 29 0 0 24 0 0 28 0 0 14 0 0 16 0 0 11 0 0 10 0 0 
2 0 0 5 0 0 9 0 0 12 0 0 18 0 0 19 0 0 21 0 0 20 0 0 38 0 0 150 0 0 10740 0 0 21490 0 0 21277 0 0 21546 0 0 21372 0 0 21746 0 0 21658 0 0 21458 0 0 21648 0 0 21539 0 0 21452 0 0 21432 0 0 21782 0 0 21481 0 0 21583 0 0 21707 0 0 21538 0 0 21456 0 0 21766 0 0 21523 0 0 21442 0 0 21468 0 0 21408 0 0 21685 0 0 21419 0 0 21762 0 0 21468 0 0 21272 0 0 21365 0 0 21479 0 0 21782 0 0 21697 0 0 21573 0 0 21734 0 0 21526 0 0 21478 0 0 21288 0 0 21645 0 0 21495 0 0 21374 0 0 10855 0 0 137 0 0 37 0 0 32 0 0 23 0 0 20 0 0 13 0 0 9 0 0 7 0 0 7 0 0 
5 0 0 13 0 0 9 0 0 13 0 0 18 0 0 17 0 0 24 0 0 20 0 0 26 0 0 137 0 0 10697 0 0 21274 0 0 21557 0 0 21533 0 0 21486 0 0 21676 0 0 21499 0 0 21533 0 0 21305 0 0 21434 0 0 21623 0 0 21624 0 0 21593 0 0 21535 0 0 21586 0 0 21392 0 0 21649 0 0 21578 0 0 21436 0 0 21499 0 0 21373 0 0 21574 0 0 21513 0 0 21611 0 0 21134 0 0 21574 0 0 21597 0 0 21666 0 0 21816 0 0 21428 0 0 21345 0 0 21560 0 0 21543 0 0 21842 0 0 21564 0 0 21546 0 0 21438 0 0 21560 0 0 21561 0 0 21223 0 0 10864 0 0 149 0 0 27 0 0 30 0 0 22 0 0 14 0 0 15 0 0 15 0 0 15 0 0 9 0 0 
5 0 0 12 0 0 19 0 0 23 0 0 18 0 0 18 0 0 19 0 0 30 0 0 38 0 0 142 0 0 10810 0 0 21445 0 0 21498 0 0 21441 0 0 21512 0 0 21420 0 0 21412 0 0 21470 0 0 21587 0 0 21713 0 0 21467 0 0 21656 0 0 21507 0 0 21563 0 0 21487 0 0 21667 0 0 21529 0 0 21509 0 0 21605 0 0 21444 0 0 21700 0 0 21353 0 0 21679 0 0 21556 0 0 21413 0 0 21578 0 0 21691 0 0 21630 0 0 21542 0 0 21465 0 0 21695 0 0 21529 0 0 21545 0 0 21595 0 0 21671 0 0 21523 0 0 21621 0 0 21488 0 0 21345 0 0 21528 0 0 10950 0 0 151 0 0 41 0 0 26 0 0 25 0 0 20 0 0 15 0 0 8 0 0 13 0 0 12 0 0 
4 0 0 5 0 0 5 0 0 12 0 0 19 0 0 20 0 0 17 0 0 24 0 0 33 0 0 140 0 0 10627 0 0 21239 0 0 21658 0 0 21684 0 0 21440 0 0 21720 0 0 21447 0 0 21606 0 0 21558 0 0 21435 0 0 21476 0 0 21535 0 0 21718 0 0 21715 0 0 21531 0 0 21472 0 0 21411 0 0 21465 0 0 21519 0 0 21508 0 0 21582 0 0 21627 0 0 21770 0 0 21577 0 0 21577 0 0 21707 0 0 21709 0 0 21338 0 0 21540 0 0 21425 0 0 21560 0 0 21462 0 0 21376 0 0 21770 0 0 21690 0 0 21620 0 0 21519 0 0 21411 0 0 21708 0 0 21438 0 0 10813 0 0 158 0 0 56 0 0 33 0 0 21 0 0 22 0 0 18 0 0 21 0 0 9 0 0 10 0 0 
1 0 0 4 0 0 8 0 0 13 0 0 15 0 0 17 0 0 22 0 0 28 0 0 33 0 0 141 0 0 10712 0 0 21134 0 0 21380 0 0 21603 0 0 21466 0 0 21348 0 0 21591 0 0 21803 0 0 21438 0 0 21381 0 0 21585 0 0 21325 0 0 21652 0 0 21641 0 0 21668 0 0 21648 0 0 21621 0 0 21398 0 0 21741 0 0 21602 0 0 21480 0 0 21361 0 0 21450 0 0 21640 0 0 21470 0 0 21523 0 0 21533 0 0 21589 0 0 21588 0 0 21650 0 0 21453 0 0 21656 0 0 21607 0 0 21688 0 0 21405 0 0 21526 0 0 21544 0 0 21400 0 0 21670 0 0 21283 0 0 10890 0 0 163 0 0 43 0 0 29 0 0 25 0 0 17 0 0 21 0 0 24 0 0 16 0 0 13 0 0 
4 0 0 11 0 0 10 0 0 18 0 0 25 0 0 25 0 0 24 0 0 34 0 0 38 0 0 154 0 0 10780 0 0 21632 0 0 21677 0 0 21607 0 0 21626 0 0 21417 0 0 21506 0 0 21647 0 0 21561 0 0 21739 0 0 21456 0 0 21643 0 0 21482 0 0 21775 0 0 21592 0 0 21559 0 0 21876 0 0 21579 0 0 21295 0 0 21652 0 0 21611 0 0 21614 0 0 21381 0 0 21550 0 0 21560 0 0 21550 0 0 21299 0 0 21481 0 0 21576 0 0 21525 0 0 21586 0 0 21521 0 0 21345 0 0 21561 0 0 21413 0 0 21549 0 0 21788 0 0 21647 0 0 21526 0 0 21034 0 0 10885 0 0 156 0 0 43 0 0 31 0 0 23 0 0 10 0 0 12 0 0 11 0 0 14 0 0 18 0 0 
7 0 0 15 0 0 18 0 0 20 0 0 19 0 0 19 0 0 22 0 0 32 0 0 39 0 0 172 0 0 10843 0 0 21337 0 0 21610 0 0 21580 0 0 21740 0 0 21470 0 0 21444 0 0 21499 0 0 21573 0 0 21409 0 0 21569 0 0 21559 0 0 21788 0 0 21580 0 0 21443 0 0 21538 0 0 21551 0 0 21626 0 0 21633 0 0 21677 0 0 21541 0 0 21523 0 0 21750 0 0 21449 0 0 21611 0 0 21480 0 0 21642 0 0 21324 0 0 21569 0 0 21491 0 0 21587 0 0 21672 0 0 21575 0 0 21742 0 0 21699 0 0 21504 0 0 21536 0 0 21549 0 0 21516 0 0 21607 0 0 10804 0 0 144 0 0 42 0 0 36 0 0 22 0 0 16 0 0 16 0 0 16 0 0 19 0 0 13 0 0 
6 0 0 18 0 0 15 0 0 13 0 0 18 0 0 22 0 0 23 0 0 26 0 0 36 0 0 142 0 0 10756 0 0 21263 0 0 21537 0 0 21487 0 0 21626 0 0 21497 0 0 21524 0 0 21592 0 0 21578 0 0 21444 0 0 21424 0 0 21625 0 0 21616 0 0 21621 0 0 21570 0 0 21707 0 0 21251 0 0 21444 0 0 21610 0 0 21462 0 0 21428 0 0 21606 0 0 21439 0 0 21573 0 0 21535 0 0 21613 0 0 21582 0 0 21370 0 0 21660 0 0 21575 0 0 21697 0 0 21428 0 0 21493 0 0 21496 0 0 21498 0 0 21746 0 0 21492 0 0 21603 0 0 21450 0 0 21457 0 0 10731 0 0 137 0 0 35 0 0 33 0 0 23 0 0 21 0 0 15 0 0 17 0 0 15 0 0 25 0 0 
4 0 0 12 0 0 16 0 0 19 0 0 20 0 0 22 0 0 24 0 0 30 0 0 33 0 0 149 0 0 10726 0 0 21713 0 0 21667 0 0 21662 0 0 21834 0 0 21695 0 0 21766 0 0 21729 0 0 21308 0 0 21456 0 0 21489 0 0 21713 0 0 21838 0 0 21498 0 0 21724 0 0 21414 0 0 21338 0 0 21533 0 0 21393 0 0 21781 0 0 21675 0 0 21553 0 0 21396 0 0 21313 0 0 21556 0 0 21363 0 0 21567 0 0 21623 0 0 21550 0 0 21646 0 0 21565 0 0 21587 0 0 21635 0 0 21566 0 0 21638 0 0 21532 0 0 21671 0 0 21355 0 0 21637 0 0 21504 0 0 10634 0 0 153 0 0 34 0 0 28 0 0 23 0 0 18 0 0 10 0 0 15 0 0 14 0 0 12 0 0 
7 0 0 11 0 0 12 0 0 13 0 0 15 0 0 19 0 0 25 0 0 24 0 0 35 0 0 142 0 0 10781 0 0 21528 0 0 21496 0 0 21394 0 0 21449 0 0 21633 0 0 21455 0 0 21535 0 0 21548 0 0 21582 0 0 21660 0 0 21731 0 0 21278 0 0 21599 0 0 21389 0 0 21630 0 0 21493 0 0 21638 0 0 21528 0 0 21519 0 0 21429 0 0 21590 0 0 21694 0 0 21848 0 0 21817 0 0 21399 0 0 21565 0 0 21498 0 0 21583 0 0 21517 0 0 21690 0 0 21443 0 0 21706 0 0 21665 0 0 21487 0 0 21524 0 0 21715 0 0 21442 0 0 21636 0 0 21321 0 0 10923 0 0 159 0 0 28 0 0 24 0 0 24 0 0 20 0 0 25 0 0 20 0 0 12 0 0 14 0 0 
9 0 0 16 0 0 17 0 0 16 0 0 20 0 0 16 0 0 21 0 0 24 0 0 34 0 0 140 0 0 10858 0 0 21558 0 0 21665 0 0 21535 0 0 21473 0 0 21766 0 0 21353 0 0 21567 0 0 21514 0 0 21746 0 0 21432 0 0 21679 0 0 21593 0 0 21587 0 0 21626 0 0 21543 0 0 21356 0 0 21635 0 0 21566 0 0 21704 0 0 21706 0 0 21496 0 0 21597 0 0 21428 0 0 21738 0 0 21719 0 0 21478 0 0 21658 0 0 21526 0 0 21337 0 0 21655 0 0 21542 0 0 21596 0 0 21362 0 0 21625 0 0 21660 0 0 21802 0 0 21530 0 0 21409 0 0 21280 0 0 10719 0 0 145 0 0 36 0 0 28 0 0 25 0 0 24 0 0 16 0 0 13 0 0 12 0 0 17 0 0 
3 0 0 11 0 0 14 0 0 15 0 0 20 0 0 19 0 0 16 0 0 26 0 0 34 0 0 152 0 0 10703 0 0 21278 0 0 21505 0 0 21752 0 0 21426 0 0 21557 0 0 21535 0 0 21548 0 0 21664 0 0 21805 0 0 21679 0 0 21411 0 0 21775 0 0 21465 0 0 21498 0 0 21702 0 0 21752 0 0 21524 0 0 21549 0 0 21446 0 0 21526 0 0 21551 0 0 21604 0 0 21695 0 0 21404 0 0 21644 0 0 21445 0 0 21653 0 0 21402 0 0 21681 0 0 21702 0 0 21700 0 0 21591 0 0 21683 0 0 21468 0 0 21780 0 0 21663 0 0 21611 0 0 21952 0 0 21708 0 0 10592 0 0 153 0 0 41 0 0 32 0 0 24 0 0 15 0 0 17 0 0 14 0 0 10 0 0 9 0 0 
3 0 0 7 0 0 12 0 0 18 0 0 18 0 0 23 0 0 28 0 0 39 0 0 33 0 0 136 0 0 10765 0 0 21340 0 0 21556 0 0 21367 0 0 21482 0 0 21642 0 0 21530 0 0 21351 0 0 21607 0 0 21634 0 0 21839 0 0 21777 0 0 21472 0 0 21559 0 0 21583 0 0 21498 0 0 21501 0 0 21568 0 0 21682 0 0 21578 0 0 21726 0 0 21629 0 0 21653 0 0 21533 0 0 21729 0 0 21352 0 0 21636 0 0 21523 0 0 21728 0 0 21445 0 0 21379 0 0 21677 0 0 21615 0 0 21712 0 0 21401 0 0 21563 0 0 21306 0 0 21443 0 0 21448 0 0 21348 0 0 10758 0 0 141 0 0 40 0 0 28 0 0 30 0 0 21 0 0 23 0 0 26 0 0 16 0 0 14 0 0 
6 0 0 13 0 0 18 0 0 11 0 0 19 0 0 26 0 0 33 0 0 32 0 0 51 0 0 172 0 0 10840 0 0 21366 0 0 21581 0 0 21571 0 0 21569 0 0 21600 0 0 21542 0 0 21598 0 0 21331 0 0 21766 0 0 21600 0 0 21578 0 0 21685 0 0 21376 0 0 21695 0 0 21556 0 0 21738 0 0 21526 0 0 21599 0 0 21567 0 0 21489 0 0 21703 0 0 21624 0 0 21610 0 0 21766 0 0 21688 0 0 21508 0 0 21590 0 0 21581 0 0 21472 0 0 21407 0 0 21910 0 0 21489 0 0 21536 0 0 21579 0 0 21611 0 0 21571 0 0 21589 0 0 21506 0 0 21543 0 0 10899 0 0 155 0 0 35 0 0 34 0 0 19 0 0 18 0 0 18 0 0 10 0 0 13 0 0 11 0 0 
7 0 0 22 0 0 19 0 0 23 0 0 23 0 0 28 0 0 25 0 0 35 0 0 40 0 0 178 0 0 10855 0 0 21412 0 0 21700 0 0 21573 0 0 21508 0 0 21381 0 0 21483 0 0 21481 0 0 21514 0 0 21492 0 0 21694 0 0 21620 0 0 21480 0 0 21315 0 0 21644 0 0 21537 0 0 21542 0 0 21556 0 0 21833 0 0 21460 0 0 21950 0 0 21756 0 0 21515 0 0 21497 0 0 21645 0 0 21681 0 0 21449 0 0 21436 0 0 21289 0 0 21464 0 0 21768 0 0 21502 0 0 21418 0 0 21534 0 0 21509 0 0 21606 0 0 21500 0 0 21420 0 0 21529 0 0 21188 0 0 10859 0 0 161 0 0 32 0 0 26 0 0 24 0 0 14 0 0 16 0 0 12 0 0 5 0 0 5 0 0 
7 0 0 17 0 0 23 0 0 12 0 0 23 0 0 21 0 0 26 0 0 30 0 0 42 0 0 171 0 0 10845 0 0 21308 0 0 21505 0 0 21674 0 0 21545 0 0 21622 0 0 21612 0 0 21462 0 0 21573 0 0 21543 0 0 21561 0 0 21553 0 0 21741 0 0 21409 0 0 21646 0 0 21514 0 0 21461 0 0 21411 0 0 21372 0 0 21726 0 0 21648 0 0 21498 0 0 21783 0 0 21648 0 0 21529 0 0 21580 0 0 21529 0 0 21607 0 0 21513 0 0 21425 0 0 21585 0 0 21785 0 0 21441 0 0 21578 0 0 21434 0 0 21569 0 0 21557 0 0 21616 0 0 21422 0 0 21534 0 0 10855 0 0 173 0 0 41 0 0 27 0 0 26 0 0 21 0 0 16 0 0 12 0 0 13 0 0 17 0 0 
6 0 0 12 0 0 12 0 0 15 0 0 20 0 0 19 0 0 18 0 0 30 0 0 55 0 0 160 0 0 10839 0 0 21459 0 0 21492 0 0 21638 0 0 21556 0 0 21770 0 0 21703 0 0 21808 0 0 21416 0 0 21688 0 0 21446 0 0 21407 0 0 21345 0 0 21482 0 0 21495 0 0 21752 0 0 21681 0 0 21524 0 0 21586 0 0 21728 0 0 21691 0 0 21640 0 0 21732 0 0 21667 0 0 21587 0 0 21513 0 0 21579 0 0 21696 0 0 21897 0 0 21476 0 0 21669 0 0 21756 0 0 21635 0 0 21856 0 0 21533 0 0 21528 0 0 21477 0 0 21385 0 0 21174 0 0 21471 0 0 10763 0 0 158 0 0 36 0 0 25 0 0 21 0 0 23 0 0 15 0 0 13 0 0 11 0 0 7 0 0 
9 0 0 17 0 0 16 0 0 18 0 0 18 0 0 16 0 0 22 0 0 35 0 0 44 0 0 163 0 0 10828 0 0 21468 0 0 21327 0 0 21461 0 0 21608 0 0 21516 0 0 21317 0 0 21590 0 0 21617 0 0 21765 0 0 21600 0 0 21583 0 0 21522 0 0 21494 0 0 21492 0 0 21608 0 0 21527 0 0 21637 0 0 21476 0 0 21779 0 0 21582 0 0 21380 0 0 21608 0 0 21350 0 0 21552 0 0 21438 0 0 21777 0 0 21477 0 0 21670 0 0 21575 0 0 21566 0 0 21324 0 0 21648 0 0 21588 0 0 21515 0 0 21660 0 0 21586 0 0 21544 0 0 21599 0 0 21246 0 0 10753 0 0 151 0 0 37 0 0 27 0 0 22 0 0 27 0 0 19 0 0 13 0 0 11 0 0 15 0 0 
8 0 0 24 0 0 25 0 0 24 0 0 12 0 0 15 0 0 28 0 0 37 0 0 54 0 0 151 0 0 10866 0 0 21354 0 0 21775 0 0 21695 0 0 21837 0 0 21700 0 0 21555 0 0 21550 0 0 21658 0 0 21711 0 0 21746 0 0 21492 0 0 21470 0 0 21503 0 0 21762 0 0 21444 0 0 21726 0 0 21669 0 0 21494 0 0 21488 0 0 21627 0 0 21730 0 0 21501 0 0 21531 0 0 21535 0 0 21303 0 0 21542 0 0 21573 0 0 21537 0 0 21602 0 0 21630 0 0 21320 0 0 21488 0 0 21297 0 0 21399 0 0 21663 0 0 21720 0 0 21620 0 0 21582 0 0 21186 0 0 10839 0 0 156 0 0 37 0 0 28 0 0 25 0 0 23 0 0 16 0 0 21 0 0 13 0 0 14 0 0 
10 0 0 15 0 0 19 0 0 15 0 0 26 0 0 27 0 0 28 0 0 36 0 0 43 0 0 148 0 0 10808 0 0 21319 0 0 21616 0 0 21511 0 0 21498 0 0 21706 0 0 21780 0 0 21468 0 0 21674 0 0 21533 0 0 21599 0 0 21526 0 0 21743 0 0 21571 0 0 21742 0 0 21490 0 0 21693 0 0 21439 0 0 21721 0 0 21453 0 0 21576 0 0 21671 0 0 21683 0 0 21611 0 0 21385 0 0 21736 0 0 21705 0 0 21523 0 0 21416 0 0 21439 0 0 21523 0 0 21769 0 0 21468 0 0 21860 0 0 21507 0 0 21415 0 0 21614 0 0 21407 0 0 21634 0 0 21499 0 0 10825 0 0 145 0 0 38 0 0 25 0 0 29 0 0 21 0 0 17 0 0 20 0 0 24 0 0 14 0 0 
7 0 0 14 0 0 13 0 0 18 0 0 20 0 0 20 0 0 28 0 0 39 0 0 46 0 0 160 0 0 10817 0 0 21447 0 0 21563 0 0 21620 0 0 21558 0 0 21844 0 0 21527 0 0 21540 0 0 21788 0 0 21615 0 0 21626 0 0 21482 0 0 21530 0 0 21652 0 0 21406 0 0 21539 0 0 21591 0 0 21513 0 0 21547 0 0 21417 0 0 21541 0 0 21919 0 0 21645 0 0 21530 0 0 21575 0 0 21406 0 0 21584 0 0 21463 0 0 21683 0 0 21684 0 0 21581 0 0 21246 0 0 21651 0 0 21418 0 0 21339 0 0 21457 0 0 21723 0 0 21315 0 0 21582 0 0 21363 0 0 10805 0 0 160 0 0 45 0 0 36 0 0 30 0 0 26 0 0 24 0 0 16 0 0 23 0 0 20 0 0 
6 0 0 17 0 0 21 0 0 25 0 0 23 0 0 23 0 0 24 0 0 33 0 0 50 0 0 178 0 0 10763 0 0 21416 0 0 21529 0 0 21423 0 0 21451 0 0 21549 0 0 21472 0 0 21581 0 0 21619 0 0 21765 0 0 21394 0 0 21552 0 0 21463 0 0 21571 0 0 21677 0 0 21602 0 0 21675 0 0 21228 0 0 21448 0 0 21645 0 0 21469 0 0 21502 0 0 21606 0 0 21768 0 0 21669 0 0 21464 0 0 21319 0 0 21518 0 0 21425 0 0 21578 0 0 21517 0 0 21340 0 0 21607 0 0 21752 0 0 21297 0 0 21232 0 0 21602 0 0 21461 0 0 21591 0 0 21314 0 0 10825 0 0 136 0 0 35 0 0 32 0 0 36 0 0 23 0 0 24 0 0 25 0 0 20 0 0 17 0 0 
4 0 0 7 0 0 15 0 0 16 0 0 20 0 0 19 0 0 22 0 0 38 0 0 46 0 0 143 0 0 10850 0 0 21532 0 0 21597 0 0 21571 0 0 21596 0 0 21608 0 0 21697 0 0 21459 0 0 21494 0 0 21532 0 0 21596 0 0 21311 0 0 21630 0 0 21449 0 0 21680 0 0 21671 0 0 21499 0 0 21434 0 0 21706 0 0 21682 0 0 21494 0 0 21641 0 0 21549 0 0 21678 0 0 21662 0 0 21611 0 0 21578 0 0 21492 0 0 21744 0 0 21470 0 0 21635 0 0 21552 0 0 21701 0 0 21595 0 0 21564 0 0 21588 0 0 21464 0 0 21491 0 0 21533 0 0 21485 0 0 10869 0 0 148 0 0 31 0 0 31 0 0 29 0 0 18 0 0 12 0 0 15 0 0 21 0 0 16 0 0 
4 0 0 12 0 0 9 0 0 15 0 0 22 0 0 23 0 0 25 0 0 24 0 0 32 0 0 158 0 0 10793 0 0 21515 0 0 21528 0 0 21308 0 0 21529 0 0 21555 0 0 21422 0 0 21502 0 0 21762 0 0 21363 0 0 21595 0 0 21872 0 0 21549 0 0 21513 0 0 21619 0 0 21435 0 0 21685 0 0 21583 0 0 21338 0 0 21531 0 0 21617 0 0 21564 0 0 21557 0 0 21779 0 0 21455 0 0 21340 0 0 21571 0 0 21569 0 0 21581 0 0 21436 0 0 21562 0 0 21721 0 0 21536 0 0 21478 0 0 21553 0 0 21432 0 0 21671 0 0 21558 0 0 21709 0 0 21170 0 0 10795 0 0 155 0 0 36 0 0 25 0 0 21 0 0 13 0 0 14 0 0 18 0 0 15 0 0 13 0 0 
4 0 0 12 0 0 11 0 0 11 0 0 21 0 0 31 0 0 27 0 0 37 0 0 46 0 0 161 0 0 10932 0 0 21724 0 0 21816 0 0 21753 0 0 21550 0 0 21391 0 0 21407 0 0 21578 0 0 21536 0 0 21727 0 0 21601 0 0 21476 0 0 21759 0 0 21379 0 0 21676 0 0 21485 0 0 21640 0 0 21762 0 0 21402 0 0 21738 0 0 21445 0 0 21483 0 0 21603 0 0 21484 0 0 21693 0 0 21461 0 0 21642 0 0 21414 0 0 21451 0 0 21598 0 0 21797 0 0 21539 0 0 21659 0 0 21295 0 0 21396 0 0 21324 0 0 21610 0 0 21633 0 0 21477 0 0 21439 0 0 10793 0 0 149 0 0 35 0 0 33 0 0 21 0 0 26 0 0 14 0 0 13 0 0 14 0 0 16 0 0 
2 0 0 12 0 0 17 0 0 14 0 0 15 0 0 15 0 0 22 0 0 24 0 0 26 0 0 140 0 0 10858 0 0 21333 0 0 21451 0 0 21381 0 0 21709 0 0 21828 0 0 21712 0 0 21714 0 0 21432 0 0 21481 0 0 21591 0 0 21516 0 0 21667 0 0 21575 0 0 21359 0 0 21637 0 0 21678 0 0 21772 0 0 21533 0 0 21539 0 0 21613 0 0 21675 0 0 21450 0 0 21560 0 0 21596 0 0 21550 0 0 21463 0 0 21565 0 0 21503 0 0 21647 0 0 21459 0 0 21406 0 0 21253 0 0 21377 0 0 21821 0 0 21621 0 0 21513 0 0 21541 0 0 21405 0 0 21381 0 0 10871 0 0 163 0 0 36 0 0 24 0 0 26 0 0 20 0 0 17 0 0 14 0 0 16 0 0 12 0 0 
6 0 0 8 0 0 9 0 0 15 0 0 13 0 0 22 0 0 23 0 0 34 0 0 27 0 0 136 0 0 10750 0 0 21551 0 0 21876 0 0 21358 0 0 21658 0 0 21763 0 0 21612 0 0 21727 0 0 21655 0 0 21529 0 0 21636 0 0 21410 0 0 21409 0 0 21628 0 0 21552 0 0 21471 0 0 21645 0 0 21729 0 0 21679 0 0 21392 0 0 21494 0 0 21532 0 0 21672 0 0 21642 0 0 21495 0 0 21374 0 0 21604 0 0 21578 0 0 21616 0 0 21714 0 0 21505 0 0 21504 0 0 21575 0 0 21440 0 0 21599 0 0 21653 0 0 21749 0 0 21542 0 0 21606 0 0 21208 0 0 10708 0 0 162 0 0 36 0 0 18 0 0 21 0 0 17 0 0 17 0 0 15 0 0 18 0 0 22 0 0 
3 0 0 12 0 0 12 0 0 14 0 0 14 0 0 21 0 0 28 0 0 31 0 0 38 0 0 148 0 0 10737 0 0 21752 0 0 21621 0 0 21542 0 0 21656 0 0 21398 0 0 21592 0 0 21570 0 0 21645 0 0 21677 0 0 21690 0 0 21716 0 0 21684 0 0 21593 0 0 21586 0 0 21663 0 0 21743 0 0 21439 0 0 21520 0 0 21543 0 0 21740 0 0 21701 0 0 21456 0 0 21766 0 0 21689 0 0 21395 0 0 21474 0 0 21592 0 0 21545 0 0 21549 0 0 21453 0 0 21486 0 0 21389 0 0 21652 0 0 21396 0 0 21503 0 0 21870 0 0 21482 0 0 21704 0 0 21585 0 0 10916 0 0 145 0 0 46 0 0 31 0 0 24 0 0 19 0 0 16 0 0 10 0 0 7 0 0 11 0 0 
8 0 0 13 0 0 6 0 0 16 0 0 23 0 0 18 0 0 22 0 0 28 0 0 38 0 0 158 0 0 10936 0 0 21419 0 0 21561 0 0 21506 0 0 21509 0 0 21578 0 0 21524 0 0 21477 0 0 21692 0 0 21674 0 0 21523 0 0 21406 0 0 21783 0 0 21769 0 0 21485 0 0 21509 0 0 21665 0 0 21689 0 0 21710 0 0 21395 0 0 21667 0 0 21737 0 0 21797 0 0 21696 0 0 21460 0 0 21604 0 0 21661 0 0 21435 0 0 21651 0 0 21301 0 0 21694 0 0 21497 0 0 21604 0 0 21482 0 0 21720 0 0 21635 0 0 21772 0 0 21445 0 0 21630 0 0 21185 0 0 10686 0 0 146 0 0 39 0 0 30 0 0 23 0 0 23 0 0 14 0 0 13 0 0 8 0 0 10 0 0 
7 0 0 18 0 0 24 0 0 20 0 0 22 0 0 18 0 0 24 0 0 29 0 0 37 0 0 138 0 0 10870 0 0 21444 0 0 21597 0 0 21760 0 0 21607 0 0 21696 0 0 21620 0 0 21618 0 0 21552 0 0 21620 0 0 21821 0 0 21331 0 0 21786 0 0 21564 0 0 21336 0 0 21876 0 0 21378 0 0 21605 0 0 21537 0 0 21297 0 0 21578 0 0 21512 0 0 21529 0 0 21598 0 0 21619 0 0 21565 0 0 21409 0 0 21354 0 0 21630 0 0 21670 0 0 21398 0 0 21518 0 0 21444 0 0 21577 0 0 21395 0 0 21388 0 0 21399 0 0 21630 0 0 21381 0 0 21358 0 0 10867 0 0 153 0 0 43 0 0 21 0 0 22 0 0 14 0 0 17 0 0 13 0 0 15 0 0 16 0 0 
4 0 0 12 0 0 16 0 0 17 0 0 20 0 0 21 0 0 27 0 0 30 0 0 47 0 0 151 0 0 10814 0 0 21447 0 0 21615 0 0 21776 0 0 21567 0 0 21661 0 0 21636 0 0 21551 0 0 21435 0 0 21557 0 0 21538 0 0 21527 0 0 21429 0 0 21689 0 0 21645 0 0 21415 0 0 21248 0 0 21613 0 0 21693 0 0 21423 0 0 21367 0 0 21596 0 0 21513 0 0 21619 0 0 21763 0 0 21654 0 0 21683 0 0 21588 0 0 21707 0 0 21515 0 0 21343 0 0 21885 0 0 21463 0 0 21401 0 0 21415 0 0 21693 0 0 21571 0 0 21553 0 0 21373 0 0 21274 0 0 10916 0 0 137 0 0 36 0 0 28 0 0 23 0 0 18 0 0 14 0 0 14 0 0 10 0 0 12 0 0 
4 0 0 10 0 0 11 0 0 14 0 0 19 0 0 20 0 0 23 0 0 26 0 0 30 0 0 125 0 0 10785 0 0 21275 0 0 21284 0 0 21666 0 0 21421 0 0 21638 0 0 21552 0 0 21673 0 0 21594 0 0 21436 0 0 21460 0 0 21472 0 0 21599 0 0 21695 0 0 21618 0 0 21602 0 0 21634 0 0 21498 0 0 21720 0 0 21488 0 0 21490 0 0 21338 0 0 21724 0 0 21666 0 0 21487 0 0 21778 0 0 21572 0 0 21404 0 0 21585 0 0 21581 0 0 21541 0 0 21587 0 0 21571 0 0 21517 0 0 21661 0 0 21675 0 0 21666 0 0 21365 0 0 21663 0 0 21510 0 0 10887 0 0 156 0 0 22 0 0 24 0 0 19 0 0 16 0 0 16 0 0 18 0 0 9 0 0 6 0 0 
4 0 0 10 0 0 8 0 0 9 0 0 14 0 0 22 0 0 21 0 0 27 0 0 30 0 0 165 0 0 11088 0 0 21278 0 0 21637 0 0 21535 0 0 21191 0 0 21372 0 0 21397 0 0 21452 0 0 21301 0 0 21538 0 0 21521 0 0 21615 0 0 21479 0 0 21272 0 0 21559 0 0 21606 0 0 21545 0 0 21580 0 0 21566 0 0 21409 0 0 21710 0 0 21585 0 0 21832 0 0 21761 0 0 21517 0 0 21631 0 0 21573 0 0 21632 0 0 21713 0 0 21567 0 0 21554 0 0 21546 0 0 21353 0 0 21719 0 0 21574 0 0 21465 0 0 21418 0 0 21574 0 0 21457 0 0 21350 0 0 10832 0 0 133 0 0 41 0 0 25 0 0 26 0 0 20 0 0 11 0 0 12 0 0 11 0 0 5 0 0 
5 0 0 12 0 0 11 0 0 15 0 0 11 0 0 12 0 0 14 0 0 28 0 0 34 0 0 140 0 0 10616 0 0 21464 0 0 21527 0 0 21563 0 0 21462 0 0 21606 0 0 21595 0 0 21373 0 0 21421 0 0 21523 0 0 21538 0 0 21698 0 0 21602 0 0 21369 0 0 21266 0 0 21728 0 0 21607 0 0 21480 0 0 21532 0 0 21618 0 0 21706 0 0 21484 0 0 21342 0 0 21539 0 0 21325 0 0 21666 0 0 21698 0 0 21726 0 0 21546 0 0 21507 0 0 21251 0 0 21495 0 0 21646 0 0 21479 0 0 21462 0 0 21626 0 0 21532 0 0 21523 0 0 21240 0 0 21528 0 0 10745 0 0 150 0 0 34 0 0 24 0 0 19 0 0 19 0 0 14 0 0 9 0 0 11 0 0 9 0 0 
4 0 0 10 0 0 11 0 0 15 0 0 12 0 0 14 0 0 21 0 0 31 0 0 29 0 0 152 0 0 10709 0 0 21414 0 0 21500 0 0 21647 0 0 21477 0 0 21639 0 0 21693 0 0 21559 0 0 21501 0 0 21479 0 0 21642 0 0 21694 0 0 21222 0 0 21698 0 0 21347 0 0 21760 0 0 21422 0 0 21411 0 0 21702 0 0 21585 0 0 21697 0 0 21554 0 0 21446 0 0 21690 0 0 21572 0 0 21558 0 0 21496 0 0 21760 0 0 21313 0 0 21636 0 0 21423 0 0 21539 0 0 21590 0 0 21702 0 0 21392 0 0 21609 0 0 21605 0 0 21513 0 0 21429 0 0 21293 0 0 10562 0 0 128 0 0 28 0 0 20 0 0 14 0 0 14 0 0 14 0 0 11 0 0 13 0 0 12 0 0 
5 0 0 8 0 0 11 0 0 8 0 0 9 0 0 12 0 0 19 0 0 18 0 0 24 0 0 118 0 0 10657 0 0 21219 0 0 21409 0 0 21390 0 0 21323 0 0 21384 0 0 21419 0 0 21260 0 0 21503 0 0 21459 0 0 21514 0 0 21445 0 0 21664 0 0 21520 0 0 21417 0 0 21412 0 0 21523 0 0 21597 0 0 21391 0 0 21443 0 0 21629 0 0 21532 0 0 21510 0 0 21072 0 0 21343 0 0 21753 0 0 21355 0 0 21549 0 0 21380 0 0 21493 0 0 21290 0 0 21341 0 0 21585 0 0 21348 0 0 21347 0 0 21351 0 0 21541 0 0 21542 0 0 21412 0 0 21144 0 0 10755 0 0 118 0 0 24 0 0 14 0 0 15 0 0 10 0 0 10 0 0 16 0 0 13 0 0 16 0 0 
5 0 0 9 0 0 8 0 0 10 0 0 8 0 0 8 0 0 16 0 0 19 0 0 26 0 0 76 0 0 5355 0 0 10678 0 0 10627 0 0 10842 0 0 10717 0 0 10829 0 0 10882 0 0 10860 0 0 10774 0 0 10630 0 0 10740 0 0 10900 0 0 10795 0 0 10888 0 0 10908 0 0 10671 0 0 10856 0 0 10838 0 0 10704 0 0 10738 0 0 10811 0 0 10824 0 0 10935 0 0 10807 0 0 10774 0 0 10624 0 0 10961 0 0 10701 0 0 10813 0 0 10766 0 0 10726 0 0 10938 0 0 10809 0 0 10730 0 0 10873 0 0 10653 0 0 10778 0 0 10927 0 0 10800 0 0 10657 0 0 5435 0 0 59 0 0 22 0 0 16 0 0 13 0 0 19 0 0 10 0 0 11 0 0 9 0 0 7 0 0 
4 0 0 7 0 0 9 0 0 8 0 0 5 0 0 12 0 0 14 0 0 18 0 0 20 0 0 33 0 0 92 0 0 140 0 0 152 0 0 134 0 0 138 0 0 152 0 0 149 0 0 144 0 0 140 0 0 153 0 0 152 0 0 172 0 0 150 0 0 166 0 0 158 0 0 172 0 0 144 0 0 156 0 0 135 0 0 164 0 0 165 0 0 153 0 0 155 0 0 145 0 0 164 0 0 150 0 0 151 0 0 144 0 0 138 0 0 149 0 0 123 0 0 168 0 0 148 0 0 137 0 0 147 0 0 158 0 0 144 0 0 149 0 0 139 0 0 148 0 0 88 0 0 31 0 0 23 0 0 15 0 0 12 0 0 9 0 0 6 0 0 7 0 0 13 0 0 9 0 0 
3 0 0 6 0 0 9 0 0 8 0 0 20 0 0 16 0 0 16 0 0 12 0 0 18 0 0 16 0 0 24 0 0 20 0 0 36 0 0 36 0 0 40 0 0 36 0 0 40 0 0 43 0 0 38 0 0 33 0 0 39 0 0 41 0 0 39 0 0 39 0 0 47 0 0 34 0 0 31 0 0 39 0 0 34 0 0 28 0 0 39 0 0 35 0 0 41 0 0 50 0 0 37 0 0 32 0 0 41 0 0 45 0 0 38 0 0 40 0 0 33 0 0 32 0 0 35 0 0 32 0 0 28 0 0 37 0 0 35 0 0 30 0 0 35 0 0 27 0 0 20 0 0 13 0 0 17 0 0 23 0 0 17 0 0 17 0 0 10 0 0 7 0 0 5 0 0 6 0 0 
1 0 0 10 0 0 12 0 0 10 0 0 11 0 0 14 0 0 7 0 0 13 0 0 12 0 0 16 0 0 18 0 0 15 0 0 35 0 0 27 0 0 40 0 0 35 0 0 33 0 0 30 0 0 32 0 0 21 0 0 27 0 0 27 0 0 34 0 0 23 0 0 29 0 0 24 0 0 30 0 0 30 0 0 21 0 0 23 0 0 34 0 0 33 0 0 26 0 0 30 0 0 26 0 0 31 0 0 31 0 0 32 0 0 33 0 0 29 0 0 27 0 0 25 0 0 22 0 0 22 0 0 22 0 0 28 0 0 31 0 0 25 0 0 25 0 0 18 0 0 18 0 0 18 0 0 11 0 0 10 0 0 18 0 0 9 0 0 9 0 0 11 0 0 10 0 0 4 0 0 
5 0 0 7 0 0 9 0 0 6 0 0 10 0 0 6 0 0 10 0 0 8 0 0 12 0 0 15 0 0 18 0 0 15 0 0 19 0 0 16 0 0 22 0 0 19 0 0 22 0 0 26 0 0 20 0 0 13 0 0 24 0 0 23 0 0 35 0 0 19 0 0 19 0 0 24 0 0 19 0 0 22 0 0 22 0 0 24 0 0 33 0 0 28 0 0 24 0 0 24 0 0 35 0 0 31 0 0 20 0 0 23 0 0 30 0 0 26 0 0 24 0 0 15 0 0 18 0 0 22 0 0 24 0 0 23 0 0 15 0 0 31 0 0 21 0 0 16 0 0 14 0 0 17 0 0 9 0 0 11 0 0 13 0 0 17 0 0 8 0 0 9 0 0 11 0 0 10 0 0 
2 0 0 10 0 0 7 0 0 4 0 0 4 0 0 9 0 0 12 0 0 12 0 0 13 0 0 12 0 0 12 0 0 12 0 0 16 0 0 14 0 0 10 0 0 24 0 0 14 0 0 18 0 0 9 0 0 12 0 0 23 0 0 20 0 0 25 0 0 24 0 0 23 0 0 23 0 0 18 0 0 21 0 0 21 0 0 16 0 0 24 0 0 18 0 0 20 0 0 19 0 0 31 0 0 22 0 0 28 0 0 15 0 0 22 0 0 25 0 0 21 0 0 17 0 0 19 0 0 22 0 0 22 0 0 26 0 0 14 0 0 20 0 0 26 0 0 11 0 0 9 0 0 15 0 0 14 0 0 10 0 0 10 0 0 14 0 0 14 0 0 7 0 0 7 0 0 11 0 0 
3 0 0 7 0 0 4 0 0 5 0 0 9 0 0 10 0 0 9 0 0 7 0 0 12 0 0 11 0 0 11 0 0 7 0 0 15 0 0 15 0 0 16 0 0 20 0 0 11 0 0 10 0 0 16 0 0 18 0 0 19 0 0 19 0 0 14 0 0 17 0 0 23 0 0 22 0 0 23 0 0 15 0 0 17 0 0 9 0 0 16 0 0 23 0 0 18 0 0 15 0 0 24 0 0 26 0 0 22 0 0 17 0 0 12 0 0 20 0 0 21 0 0 20 0 0 15 0 0 22 0 0 17 0 0 16 0 0 22 0 0 16 0 0 18 0 0 22 0 0 18 0 0 16 0 0 13 0 0 10 0 0 7 0 0 3 0 0 15 0 0 15 0 0 6 0 0 6 0 0 
2 0 0 7 0 0 8 0 0 8 0 0 7 0 0 8 0 0 5 0 0 3 0 0 7 0 0 12 0 0 9 0 0 5 0 0 12 0 0 11 0 0 12 0 0 16 0 0 12 0 0 8 0 0 24 0 0 20 0 0 12 0 0 17 0 0 13 0 0 18 0 0 23 0 0 13 0 0 20 0 0 14 0 0 12 0 0 5 0 0 10 0 0 17 0 0 16 0 0 17 0 0 17 0 0 25 0 0 20 0 0 11 0 0 17 0 0 17 0 0 12 0 0 8 0 0 13 0 0 21 0 0 17 0 0 15 0 0 12 0 0 12 0 0 14 0 0 14 0 0 15 0 0 14 0 0 12 0 0 9 0 0 6 0 0 3 0 0 6 0 0 10 0 0 8 0 0 7 0 0 
2 0 0 6 0 0 7 0 0 6 0 0 7 0 0 5 0 0 6 0 0 4 0 0 8 0 0 14 0 0 8 0 0 8 0 0 10 0 0 9 0 0 10 0 0 10 0 0 5 0 0 12 0 0 16 0 0 11 0 0 10 0 0 12 0 0 23 0 0 14 0 0 18 0 0 10 0 0 18 0 0 16 0 0 12 0 0 8 0 0 5 0 0 17 0 0 11 0 0 11 0 0 23 0 0 21 0 0 13 0 0 12 0 0 13 0 0 18 0 0 14 0 0 11 0 0 13 0 0 14 0 0 13 0 0 14 0 0 4 0 0 7 0 0 13 0 0 12 0 0 12 0 0 12 0 0 15 0 0 8 0 0 9 0 0 14 0 0 5 0 0 6 0 0 5 0 0 9 0 0 
2 0 0 9 0 0 3 0 0 4 0 0 1 0 0 7 0 0 4 0 0 7 0 0 12 0 0 4 0 0 7 0 0 10 0 0 9 0 0 7 0 0 6 0 0 9 0 0 6 0 0 11 0 0 10 0 0 14 0 0 8 0 0 9 0 0 12 0 0 15 0 0 21 0 0 10 0 0 12 0 0 15 0 0 7 0 0 4 0 0 8 0 0 12 0 0 12 0 0 6 0 0 14 0 0 13 0 0 16 0 0 18 0 0 10 0 0 12 0 0 10 0 0 14 0 0 12 0 0 11 0 0 12 0 0 10 0 0 9 0 0 4 0 0 7 0 0 11 0 0 12 0 0 9 0 0 14 0 0 14 0 0 8 0 0 6 0 0 8 0 0 9 0 0 5 0 0 5 0 0 
