P3
# This is a dose file slice at depth 23 of 100
60 60
# now we give the maximum value of the RGB coordinates.
32965
1 0 0 2 0 0 2 0 0 2 0 0 4 0 0 4 0 0 6 0 0 1 0 0 2 0 0 3 0 0 4 0 0 3 0 0 4 0 0 3 0 0 4 0 0 5 0 0 5 0 0 8 0 0 1 0 0 2 0 0 3 0 0 8 0 0 6 0 0 3 0 0 5 0 0 7 0 0 4 0 0 3 0 0 4 0 0 7 0 0 5 0 0 6 0 0 6 0 0 12 0 0 3 0 0 5 0 0 4 0 0 5 0 0 4 0 0 6 0 0 3 0 0 4 0 0 6 0 0 6 0 0 5 0 0 4 0 0 6 0 0 5 0 0 4 0 0 2 0 0 3 0 0 5 0 0 6 0 0 2 0 0 3 0 0 4 0 0 4 0 0 2 0 0 1 0 0 4 0 0 
3 0 0 6 0 0 4 0 0 3 0 0 10 0 0 5 0 0 12 0 0 7 0 0 7 0 0 5 0 0 7 0 0 7 0 0 9 0 0 8 0 0 11 0 0 10 0 0 10 0 0 12 0 0 2 0 0 6 0 0 11 0 0 14 0 0 16 0 0 8 0 0 10 0 0 15 0 0 10 0 0 7 0 0 13 0 0 16 0 0 8 0 0 12 0 0 16 0 0 15 0 0 11 0 0 8 0 0 13 0 0 7 0 0 10 0 0 14 0 0 8 0 0 6 0 0 13 0 0 12 0 0 9 0 0 11 0 0 14 0 0 10 0 0 9 0 0 12 0 0 14 0 0 7 0 0 6 0 0 7 0 0 5 0 0 9 0 0 8 0 0 3 0 0 9 0 0 4 0 0 
3 0 0 3 0 0 5 0 0 5 0 0 5 0 0 11 0 0 4 0 0 8 0 0 7 0 0 14 0 0 7 0 0 10 0 0 9 0 0 10 0 0 11 0 0 7 0 0 18 0 0 9 0 0 8 0 0 7 0 0 11 0 0 11 0 0 19 0 0 15 0 0 11 0 0 19 0 0 7 0 0 12 0 0 22 0 0 14 0 0 16 0 0 10 0 0 22 0 0 13 0 0 10 0 0 11 0 0 10 0 0 6 0 0 11 0 0 16 0 0 14 0 0 12 0 0 22 0 0 12 0 0 12 0 0 14 0 0 14 0 0 13 0 0 15 0 0 7 0 0 10 0 0 4 0 0 7 0 0 8 0 0 8 0 0 7 0 0 10 0 0 11 0 0 6 0 0 6 0 0 
2 0 0 4 0 0 8 0 0 11 0 0 4 0 0 5 0 0 8 0 0 11 0 0 12 0 0 12 0 0 13 0 0 16 0 0 12 0 0 10 0 0 14 0 0 14 0 0 10 0 0 17 0 0 12 0 0 15 0 0 8 0 0 9 0 0 20 0 0 21 0 0 18 0 0 20 0 0 10 0 0 21 0 0 19 0 0 17 0 0 18 0 0 23 0 0 21 0 0 11 0 0 14 0 0 25 0 0 12 0 0 13 0 0 15 0 0 14 0 0 17 0 0 15 0 0 12 0 0 12 0 0 18 0 0 18 0 0 16 0 0 14 0 0 11 0 0 12 0 0 8 0 0 8 0 0 5 0 0 8 0 0 13 0 0 12 0 0 11 0 0 9 0 0 7 0 0 6 0 0 
2 0 0 7 0 0 6 0 0 7 0 0 5 0 0 2 0 0 6 0 0 8 0 0 11 0 0 11 0 0 15 0 0 12 0 0 16 0 0 13 0 0 11 0 0 9 0 0 13 0 0 18 0 0 21 0 0 18 0 0 15 0 0 11 0 0 17 0 0 17 0 0 24 0 0 22 0 0 17 0 0 18 0 0 22 0 0 19 0 0 16 0 0 19 0 0 25 0 0 20 0 0 11 0 0 20 0 0 15 0 0 16 0 0 14 0 0 14 0 0 16 0 0 14 0 0 11 0 0 18 0 0 26 0 0 18 0 0 17 0 0 13 0 0 10 0 0 10 0 0 7 0 0 7 0 0 9 0 0 11 0 0 10 0 0 12 0 0 11 0 0 6 0 0 3 0 0 4 0 0 
6 0 0 7 0 0 6 0 0 5 0 0 8 0 0 7 0 0 6 0 0 5 0 0 11 0 0 11 0 0 15 0 0 23 0 0 13 0 0 20 0 0 21 0 0 11 0 0 14 0 0 18 0 0 30 0 0 20 0 0 24 0 0 21 0 0 22 0 0 25 0 0 27 0 0 22 0 0 21 0 0 22 0 0 22 0 0 27 0 0 25 0 0 22 0 0 19 0 0 21 0 0 21 0 0 21 0 0 21 0 0 21 0 0 21 0 0 19 0 0 14 0 0 17 0 0 22 0 0 26 0 0 27 0 0 18 0 0 21 0 0 13 0 0 10 0 0 13 0 0 9 0 0 15 0 0 16 0 0 14 0 0 5 0 0 9 0 0 8 0 0 7 0 0 7 0 0 7 0 0 
1 0 0 8 0 0 10 0 0 6 0 0 9 0 0 8 0 0 12 0 0 7 0 0 12 0 0 13 0 0 14 0 0 18 0 0 21 0 0 16 0 0 17 0 0 17 0 0 17 0 0 22 0 0 26 0 0 29 0 0 27 0 0 23 0 0 19 0 0 31 0 0 26 0 0 30 0 0 24 0 0 16 0 0 19 0 0 22 0 0 32 0 0 24 0 0 19 0 0 24 0 0 20 0 0 17 0 0 26 0 0 22 0 0 20 0 0 24 0 0 17 0 0 23 0 0 19 0 0 26 0 0 28 0 0 25 0 0 20 0 0 22 0 0 14 0 0 17 0 0 13 0 0 11 0 0 15 0 0 11 0 0 12 0 0 13 0 0 6 0 0 7 0 0 8 0 0 14 0 0 
3 0 0 2 0 0 5 0 0 7 0 0 11 0 0 11 0 0 6 0 0 16 0 0 12 0 0 11 0 0 15 0 0 17 0 0 21 0 0 25 0 0 21 0 0 28 0 0 22 0 0 29 0 0 41 0 0 34 0 0 26 0 0 27 0 0 21 0 0 35 0 0 43 0 0 35 0 0 23 0 0 28 0 0 31 0 0 30 0 0 33 0 0 28 0 0 22 0 0 24 0 0 35 0 0 28 0 0 29 0 0 27 0 0 23 0 0 14 0 0 25 0 0 24 0 0 24 0 0 28 0 0 34 0 0 25 0 0 24 0 0 19 0 0 15 0 0 17 0 0 17 0 0 14 0 0 16 0 0 11 0 0 12 0 0 14 0 0 8 0 0 6 0 0 10 0 0 4 0 0 
2 0 0 11 0 0 9 0 0 8 0 0 9 0 0 11 0 0 10 0 0 12 0 0 14 0 0 21 0 0 20 0 0 22 0 0 26 0 0 33 0 0 32 0 0 40 0 0 26 0 0 36 0 0 39 0 0 40 0 0 29 0 0 41 0 0 38 0 0 39 0 0 41 0 0 40 0 0 37 0 0 44 0 0 51 0 0 39 0 0 45 0 0 39 0 0 37 0 0 38 0 0 37 0 0 43 0 0 34 0 0 37 0 0 38 0 0 29 0 0 35 0 0 26 0 0 30 0 0 31 0 0 26 0 0 18 0 0 34 0 0 31 0 0 24 0 0 19 0 0 16 0 0 23 0 0 16 0 0 13 0 0 14 0 0 10 0 0 7 0 0 7 0 0 6 0 0 6 0 0 
4 0 0 11 0 0 12 0 0 10 0 0 10 0 0 12 0 0 11 0 0 16 0 0 17 0 0 27 0 0 74 0 0 130 0 0 123 0 0 144 0 0 129 0 0 131 0 0 131 0 0 132 0 0 125 0 0 166 0 0 122 0 0 148 0 0 151 0 0 141 0 0 139 0 0 143 0 0 124 0 0 147 0 0 143 0 0 138 0 0 149 0 0 139 0 0 154 0 0 154 0 0 134 0 0 142 0 0 135 0 0 144 0 0 133 0 0 130 0 0 143 0 0 134 0 0 128 0 0 131 0 0 146 0 0 123 0 0 134 0 0 129 0 0 129 0 0 111 0 0 68 0 0 21 0 0 13 0 0 10 0 0 15 0 0 10 0 0 12 0 0 10 0 0 9 0 0 9 0 0 
3 0 0 7 0 0 9 0 0 11 0 0 12 0 0 12 0 0 19 0 0 20 0 0 30 0 0 77 0 0 4938 0 0 9910 0 0 9812 0 0 9834 0 0 9776 0 0 9824 0 0 9801 0 0 9814 0 0 9801 0 0 9875 0 0 9954 0 0 9797 0 0 9823 0 0 9825 0 0 9617 0 0 9728 0 0 9722 0 0 9815 0 0 9731 0 0 9765 0 0 9801 0 0 9758 0 0 9877 0 0 9883 0 0 9904 0 0 9903 0 0 9808 0 0 9775 0 0 9924 0 0 9803 0 0 9750 0 0 9815 0 0 9629 0 0 9761 0 0 9780 0 0 9812 0 0 10030 0 0 9836 0 0 9768 0 0 9906 0 0 4885 0 0 84 0 0 18 0 0 17 0 0 18 0 0 17 0 0 12 0 0 10 0 0 10 0 0 10 0 0 
5 0 0 12 0 0 9 0 0 8 0 0 6 0 0 11 0 0 17 0 0 23 0 0 31 0 0 138 0 0 9809 0 0 19415 0 0 19612 0 0 19619 0 0 19369 0 0 19730 0 0 19479 0 0 19513 0 0 19538 0 0 19290 0 0 19647 0 0 19397 0 0 19767 0 0 19461 0 0 19650 0 0 19555 0 0 19432 0 0 19644 0 0 19294 0 0 19484 0 0 19521 0 0 19514 0 0 19669 0 0 19682 0 0 19728 0 0 19371 0 0 19450 0 0 19598 0 0 19598 0 0 19601 0 0 19398 0 0 19718 0 0 19513 0 0 19752 0 0 19690 0 0 19654 0 0 19337 0 0 19265 0 0 19627 0 0 19561 0 0 9793 0 0 119 0 0 20 0 0 17 0 0 20 0 0 15 0 0 16 0 0 12 0 0 13 0 0 6 0 0 
2 0 0 9 0 0 12 0 0 15 0 0 15 0 0 8 0 0 15 0 0 20 0 0 23 0 0 132 0 0 9774 0 0 19497 0 0 19628 0 0 19652 0 0 19617 0 0 19761 0 0 19492 0 0 19528 0 0 19720 0 0 19640 0 0 19458 0 0 19377 0 0 19459 0 0 19653 0 0 19664 0 0 19712 0 0 19788 0 0 19734 0 0 19749 0 0 19539 0 0 19961 0 0 19706 0 0 19662 0 0 19544 0 0 19817 0 0 19541 0 0 19415 0 0 19754 0 0 19750 0 0 19752 0 0 19936 0 0 19479 0 0 19647 0 0 19717 0 0 19563 0 0 19600 0 0 19421 0 0 19367 0 0 19724 0 0 19073 0 0 9917 0 0 117 0 0 30 0 0 22 0 0 12 0 0 13 0 0 13 0 0 12 0 0 6 0 0 9 0 0 
5 0 0 9 0 0 8 0 0 6 0 0 11 0 0 16 0 0 14 0 0 16 0 0 27 0 0 141 0 0 9750 0 0 19659 0 0 19887 0 0 19813 0 0 19813 0 0 19593 0 0 19632 0 0 19632 0 0 19412 0 0 19331 0 0 19585 0 0 19737 0 0 19540 0 0 19509 0 0 19691 0 0 19600 0 0 19682 0 0 19578 0 0 19353 0 0 19638 0 0 19503 0 0 19757 0 0 19623 0 0 19573 0 0 19689 0 0 19470 0 0 19552 0 0 19751 0 0 19565 0 0 19644 0 0 19627 0 0 19562 0 0 19702 0 0 19653 0 0 19736 0 0 19660 0 0 19485 0 0 19507 0 0 19643 0 0 19614 0 0 9753 0 0 153 0 0 35 0 0 21 0 0 18 0 0 12 0 0 11 0 0 8 0 0 8 0 0 14 0 0 
3 0 0 7 0 0 10 0 0 15 0 0 11 0 0 20 0 0 18 0 0 21 0 0 30 0 0 136 0 0 9780 0 0 19537 0 0 19725 0 0 19700 0 0 19723 0 0 19647 0 0 19461 0 0 19660 0 0 19766 0 0 19615 0 0 19576 0 0 19579 0 0 19305 0 0 19761 0 0 19595 0 0 19825 0 0 19701 0 0 19636 0 0 19660 0 0 19690 0 0 19509 0 0 19664 0 0 19629 0 0 19624 0 0 19527 0 0 19624 0 0 19666 0 0 19723 0 0 19686 0 0 19552 0 0 19589 0 0 19708 0 0 19489 0 0 19615 0 0 19490 0 0 19667 0 0 19499 0 0 19803 0 0 19579 0 0 19473 0 0 9781 0 0 136 0 0 37 0 0 25 0 0 22 0 0 16 0 0 10 0 0 14 0 0 12 0 0 11 0 0 
4 0 0 13 0 0 16 0 0 17 0 0 23 0 0 15 0 0 17 0 0 25 0 0 42 0 0 130 0 0 10019 0 0 19563 0 0 19629 0 0 19654 0 0 19612 0 0 19718 0 0 19701 0 0 19579 0 0 19545 0 0 19568 0 0 19643 0 0 19496 0 0 19434 0 0 19676 0 0 19444 0 0 19508 0 0 19697 0 0 19700 0 0 19775 0 0 19688 0 0 19564 0 0 19714 0 0 19942 0 0 19644 0 0 19369 0 0 19746 0 0 19624 0 0 19591 0 0 19836 0 0 19642 0 0 19544 0 0 19609 0 0 19809 0 0 19404 0 0 19659 0 0 19682 0 0 19632 0 0 19550 0 0 19640 0 0 19629 0 0 9943 0 0 133 0 0 30 0 0 24 0 0 15 0 0 11 0 0 9 0 0 11 0 0 15 0 0 9 0 0 
3 0 0 6 0 0 6 0 0 12 0 0 12 0 0 10 0 0 17 0 0 15 0 0 31 0 0 133 0 0 9831 0 0 19284 0 0 19477 0 0 19788 0 0 19611 0 0 19571 0 0 19592 0 0 19639 0 0 19503 0 0 19532 0 0 19800 0 0 19334 0 0 19568 0 0 19635 0 0 19816 0 0 19654 0 0 19623 0 0 19678 0 0 19737 0 0 19466 0 0 19846 0 0 19410 0 0 19590 0 0 19582 0 0 19621 0 0 19584 0 0 19665 0 0 19629 0 0 19818 0 0 19756 0 0 19725 0 0 19750 0 0 19757 0 0 19705 0 0 19821 0 0 19599 0 0 19649 0 0 19789 0 0 19512 0 0 19472 0 0 9974 0 0 127 0 0 25 0 0 22 0 0 15 0 0 15 0 0 14 0 0 12 0 0 9 0 0 7 0 0 
7 0 0 10 0 0 9 0 0 10 0 0 9 0 0 12 0 0 12 0 0 24 0 0 22 0 0 134 0 0 9796 0 0 19392 0 0 19572 0 0 19405 0 0 19559 0 0 19514 0 0 19710 0 0 19475 0 0 19710 0 0 19569 0 0 19463 0 0 19401 0 0 19783 0 0 19608 0 0 19668 0 0 19653 0 0 19573 0 0 19703 0 0 19644 0 0 19422 0 0 19352 0 0 19674 0 0 19875 0 0 19852 0 0 19566 0 0 19419 0 0 19492 0 0 19748 0 0 19593 0 0 19570 0 0 19566 0 0 19677 0 0 19832 0 0 19587 0 0 19859 0 0 19661 0 0 19464 0 0 19393 0 0 19645 0 0 19438 0 0 9883 0 0 138 0 0 41 0 0 17 0 0 18 0 0 13 0 0 14 0 0 8 0 0 4 0 0 8 0 0 
4 0 0 8 0 0 11 0 0 9 0 0 15 0 0 15 0 0 18 0 0 21 0 0 31 0 0 137 0 0 9905 0 0 19419 0 0 19607 0 0 19712 0 0 19734 0 0 19440 0 0 19492 0 0 19571 0 0 19752 0 0 19816 0 0 19563 0 0 19591 0 0 19557 0 0 19664 0 0 19680 0 0 19790 0 0 19632 0 0 19557 0 0 19647 0 0 19537 0 0 19601 0 0 19698 0 0 19742 0 0 19539 0 0 19716 0 0 19730 0 0 19393 0 0 19681 0 0 19517 0 0 19706 0 0 19568 0 0 19742 0 0 19586 0 0 19721 0 0 19566 0 0 19731 0 0 19721 0 0 19803 0 0 19712 0 0 19389 0 0 9832 0 0 136 0 0 40 0 0 28 0 0 24 0 0 15 0 0 14 0 0 10 0 0 13 0 0 12 0 0 
7 0 0 14 0 0 14 0 0 12 0 0 18 0 0 17 0 0 21 0 0 30 0 0 32 0 0 136 0 0 9764 0 0 19396 0 0 19409 0 0 19607 0 0 19632 0 0 19509 0 0 19543 0 0 19699 0 0 19836 0 0 19764 0 0 19787 0 0 19792 0 0 19615 0 0 19657 0 0 19616 0 0 19691 0 0 19733 0 0 19591 0 0 19799 0 0 19776 0 0 19651 0 0 19751 0 0 19531 0 0 19651 0 0 19359 0 0 19714 0 0 19492 0 0 19721 0 0 19464 0 0 19794 0 0 19665 0 0 19690 0 0 19681 0 0 19670 0 0 19422 0 0 19601 0 0 19719 0 0 19869 0 0 19473 0 0 19680 0 0 9926 0 0 136 0 0 43 0 0 35 0 0 20 0 0 14 0 0 15 0 0 13 0 0 14 0 0 10 0 0 
3 0 0 9 0 0 13 0 0 19 0 0 12 0 0 12 0 0 20 0 0 25 0 0 30 0 0 140 0 0 9809 0 0 19477 0 0 19647 0 0 19576 0 0 19885 0 0 19342 0 0 19654 0 0 19478 0 0 19645 0 0 19649 0 0 19581 0 0 19740 0 0 19455 0 0 19887 0 0 19600 0 0 19274 0 0 19607 0 0 19598 0 0 19691 0 0 19544 0 0 19842 0 0 19731 0 0 19725 0 0 19474 0 0 19636 0 0 19714 0 0 19713 0 0 19750 0 0 19802 0 0 19607 0 0 19464 0 0 19564 0 0 19591 0 0 19780 0 0 19640 0 0 19441 0 0 19647 0 0 19634 0 0 19538 0 0 19563 0 0 9974 0 0 140 0 0 41 0 0 24 0 0 25 0 0 23 0 0 18 0 0 15 0 0 10 0 0 11 0 0 
3 0 0 9 0 0 11 0 0 20 0 0 21 0 0 26 0 0 28 0 0 27 0 0 36 0 0 130 0 0 9949 0 0 19292 0 0 19454 0 0 19760 0 0 19740 0 0 19427 0 0 19433 0 0 19717 0 0 19692 0 0 19813 0 0 19469 0 0 19546 0 0 19691 0 0 19390 0 0 19777 0 0 19580 0 0 19619 0 0 19749 0 0 19427 0 0 19600 0 0 19560 0 0 19526 0 0 19501 0 0 19804 0 0 19632 0 0 19555 0 0 19796 0 0 19620 0 0 19570 0 0 19579 0 0 19495 0 0 19643 0 0 19506 0 0 19528 0 0 19609 0 0 19610 0 0 19749 0 0 19605 0 0 19568 0 0 19235 0 0 9864 0 0 150 0 0 29 0 0 24 0 0 23 0 0 18 0 0 13 0 0 15 0 0 8 0 0 10 0 0 
8 0 0 13 0 0 16 0 0 18 0 0 22 0 0 21 0 0 23 0 0 24 0 0 35 0 0 125 0 0 9825 0 0 19489 0 0 19626 0 0 19600 0 0 19423 0 0 19498 0 0 19630 0 0 19662 0 0 19650 0 0 19484 0 0 19681 0 0 19648 0 0 19672 0 0 19520 0 0 19743 0 0 19829 0 0 19754 0 0 19671 0 0 19947 0 0 19455 0 0 19608 0 0 19603 0 0 19471 0 0 19567 0 0 19614 0 0 19379 0 0 19899 0 0 19698 0 0 19728 0 0 19629 0 0 19531 0 0 19796 0 0 19587 0 0 19534 0 0 19658 0 0 19559 0 0 19725 0 0 19691 0 0 19586 0 0 19471 0 0 9778 0 0 147 0 0 32 0 0 17 0 0 22 0 0 23 0 0 19 0 0 12 0 0 12 0 0 11 0 0 
6 0 0 15 0 0 18 0 0 13 0 0 21 0 0 22 0 0 26 0 0 35 0 0 36 0 0 139 0 0 9835 0 0 19574 0 0 19496 0 0 19529 0 0 19596 0 0 19591 0 0 19589 0 0 19794 0 0 19722 0 0 19965 0 0 19646 0 0 19850 0 0 19513 0 0 19703 0 0 19635 0 0 19612 0 0 19406 0 0 19707 0 0 19752 0 0 19452 0 0 19893 0 0 19752 0 0 19341 0 0 19565 0 0 19611 0 0 19496 0 0 19758 0 0 19679 0 0 19622 0 0 19814 0 0 19557 0 0 19658 0 0 19745 0 0 19937 0 0 19418 0 0 19605 0 0 19735 0 0 19835 0 0 19772 0 0 19481 0 0 9761 0 0 145 0 0 30 0 0 24 0 0 24 0 0 19 0 0 21 0 0 13 0 0 11 0 0 11 0 0 
6 0 0 10 0 0 10 0 0 12 0 0 12 0 0 16 0 0 24 0 0 21 0 0 23 0 0 136 0 0 9940 0 0 19583 0 0 19412 0 0 19494 0 0 19599 0 0 19769 0 0 19575 0 0 19496 0 0 19603 0 0 19554 0 0 19687 0 0 19868 0 0 19826 0 0 19708 0 0 19605 0 0 19667 0 0 19586 0 0 19615 0 0 19512 0 0 19801 0 0 19624 0 0 19682 0 0 19558 0 0 19857 0 0 19697 0 0 19645 0 0 19700 0 0 19770 0 0 19677 0 0 19671 0 0 19598 0 0 19547 0 0 19511 0 0 19733 0 0 19719 0 0 19726 0 0 19730 0 0 19759 0 0 19622 0 0 19391 0 0 9764 0 0 133 0 0 37 0 0 38 0 0 29 0 0 22 0 0 14 0 0 13 0 0 14 0 0 9 0 0 
2 0 0 5 0 0 17 0 0 16 0 0 20 0 0 24 0 0 20 0 0 17 0 0 23 0 0 118 0 0 9794 0 0 19618 0 0 19430 0 0 19446 0 0 19766 0 0 19633 0 0 19609 0 0 19638 0 0 19528 0 0 19830 0 0 19828 0 0 19573 0 0 19708 0 0 19709 0 0 19814 0 0 19760 0 0 19542 0 0 19454 0 0 19593 0 0 19727 0 0 19701 0 0 19583 0 0 19679 0 0 19645 0 0 19552 0 0 19488 0 0 19753 0 0 19505 0 0 19735 0 0 19701 0 0 19591 0 0 19653 0 0 19434 0 0 19628 0 0 19468 0 0 19658 0 0 19526 0 0 19724 0 0 19916 0 0 19552 0 0 9668 0 0 142 0 0 37 0 0 28 0 0 20 0 0 19 0 0 13 0 0 16 0 0 12 0 0 14 0 0 
5 0 0 12 0 0 11 0 0 13 0 0 18 0 0 19 0 0 28 0 0 24 0 0 41 0 0 136 0 0 9807 0 0 19502 0 0 19634 0 0 19551 0 0 19715 0 0 19471 0 0 19632 0 0 19495 0 0 19471 0 0 19489 0 0 19832 0 0 19807 0 0 19556 0 0 19709 0 0 19471 0 0 19687 0 0 19568 0 0 19696 0 0 19758 0 0 19831 0 0 19325 0 0 19786 0 0 19750 0 0 19646 0 0 19632 0 0 19558 0 0 19635 0 0 19739 0 0 19601 0 0 19596 0 0 19586 0 0 19485 0 0 19413 0 0 19692 0 0 19584 0 0 19551 0 0 19639 0 0 19587 0 0 19814 0 0 19376 0 0 9960 0 0 129 0 0 27 0 0 19 0 0 17 0 0 17 0 0 13 0 0 10 0 0 14 0 0 10 0 0 
7 0 0 9 0 0 8 0 0 15 0 0 16 0 0 21 0 0 19 0 0 28 0 0 41 0 0 129 0 0 9830 0 0 19620 0 0 19785 0 0 19605 0 0 19515 0 0 19463 0 0 19499 0 0 19731 0 0 19700 0 0 19822 0 0 19671 0 0 19380 0 0 19965 0 0 19503 0 0 19507 0 0 19583 0 0 19543 0 0 19873 0 0 19619 0 0 19603 0 0 19671 0 0 19527 0 0 19616 0 0 19663 0 0 19624 0 0 19428 0 0 19665 0 0 19631 0 0 19836 0 0 19682 0 0 19756 0 0 19853 0 0 19382 0 0 19865 0 0 19733 0 0 19638 0 0 19613 0 0 19822 0 0 19541 0 0 19584 0 0 9909 0 0 143 0 0 30 0 0 29 0 0 24 0 0 16 0 0 21 0 0 16 0 0 19 0 0 11 0 0 
7 0 0 12 0 0 10 0 0 9 0 0 10 0 0 14 0 0 20 0 0 28 0 0 39 0 0 144 0 0 9675 0 0 19766 0 0 19682 0 0 19770 0 0 19621 0 0 19433 0 0 19911 0 0 19535 0 0 19502 0 0 19507 0 0 19505 0 0 19516 0 0 19628 0 0 19598 0 0 19573 0 0 19651 0 0 19740 0 0 19557 0 0 19628 0 0 19660 0 0 19722 0 0 19487 0 0 19729 0 0 19601 0 0 19844 0 0 19538 0 0 19605 0 0 19656 0 0 19636 0 0 19509 0 0 19516 0 0 19716 0 0 19496 0 0 19624 0 0 19685 0 0 19608 0 0 19467 0 0 19492 0 0 19616 0 0 19686 0 0 9683 0 0 133 0 0 39 0 0 34 0 0 33 0 0 23 0 0 14 0 0 8 0 0 10 0 0 13 0 0 
6 0 0 14 0 0 13 0 0 15 0 0 9 0 0 13 0 0 20 0 0 33 0 0 41 0 0 133 0 0 9812 0 0 19440 0 0 19708 0 0 19787 0 0 19464 0 0 19511 0 0 19655 0 0 19426 0 0 19583 0 0 19524 0 0 19652 0 0 19576 0 0 19618 0 0 19834 0 0 19586 0 0 19665 0 0 19695 0 0 19513 0 0 19519 0 0 19767 0 0 19895 0 0 19591 0 0 19531 0 0 19355 0 0 19585 0 0 19865 0 0 19572 0 0 19672 0 0 19775 0 0 19502 0 0 19547 0 0 19705 0 0 19526 0 0 19720 0 0 19610 0 0 19661 0 0 19750 0 0 19362 0 0 19517 0 0 19565 0 0 9886 0 0 143 0 0 35 0 0 25 0 0 19 0 0 23 0 0 23 0 0 16 0 0 11 0 0 11 0 0 
5 0 0 11 0 0 8 0 0 12 0 0 12 0 0 15 0 0 18 0 0 23 0 0 43 0 0 143 0 0 9838 0 0 19516 0 0 19443 0 0 19502 0 0 19499 0 0 19635 0 0 19676 0 0 19544 0 0 19574 0 0 19740 0 0 19693 0 0 19618 0 0 19544 0 0 19827 0 0 19810 0 0 19623 0 0 19627 0 0 19764 0 0 19519 0 0 19553 0 0 19764 0 0 19750 0 0 19698 0 0 19789 0 0 19535 0 0 19464 0 0 19562 0 0 19732 0 0 19727 0 0 19803 0 0 19634 0 0 19426 0 0 19417 0 0 19580 0 0 19668 0 0 19588 0 0 19450 0 0 19500 0 0 19533 0 0 19463 0 0 9748 0 0 164 0 0 46 0 0 29 0 0 25 0 0 26 0 0 19 0 0 16 0 0 11 0 0 7 0 0 
4 0 0 10 0 0 17 0 0 15 0 0 15 0 0 16 0 0 20 0 0 24 0 0 37 0 0 148 0 0 9676 0 0 19437 0 0 19509 0 0 19551 0 0 19572 0 0 19551 0 0 19936 0 0 19829 0 0 19689 0 0 19537 0 0 19851 0 0 19648 0 0 19783 0 0 19727 0 0 19684 0 0 19534 0 0 19792 0 0 19641 0 0 19757 0 0 19564 0 0 19599 0 0 19618 0 0 19545 0 0 19662 0 0 19762 0 0 19571 0 0 19788 0 0 19806 0 0 19622 0 0 19543 0 0 19642 0 0 19596 0 0 19336 0 0 19631 0 0 19670 0 0 19614 0 0 19533 0 0 19444 0 0 19496 0 0 19271 0 0 9950 0 0 144 0 0 24 0 0 31 0 0 17 0 0 16 0 0 20 0 0 14 0 0 14 0 0 11 0 0 
5 0 0 10 0 0 10 0 0 9 0 0 16 0 0 21 0 0 25 0 0 27 0 0 36 0 0 170 0 0 9700 0 0 19440 0 0 19620 0 0 19636 0 0 19546 0 0 19589 0 0 19694 0 0 19582 0 0 19820 0 0 19455 0 0 19469 0 0 19802 0 0 19634 0 0 19580 0 0 19582 0 0 19708 0 0 19746 0 0 19670 0 0 19833 0 0 19440 0 0 19704 0 0 19712 0 0 19525 0 0 19603 0 0 19542 0 0 19475 0 0 19788 0 0 19505 0 0 19360 0 0 19724 0 0 19631 0 0 19810 0 0 19435 0 0 19672 0 0 19664 0 0 19647 0 0 19929 0 0 19556 0 0 19553 0 0 19630 0 0 9837 0 0 148 0 0 33 0 0 20 0 0 19 0 0 15 0 0 14 0 0 14 0 0 14 0 0 15 0 0 
5 0 0 11 0 0 12 0 0 16 0 0 19 0 0 18 0 0 26 0 0 29 0 0 29 0 0 135 0 0 9787 0 0 19671 0 0 19569 0 0 19812 0 0 19859 0 0 19708 0 0 19692 0 0 19703 0 0 19740 0 0 19721 0 0 19539 0 0 19598 0 0 19430 0 0 19488 0 0 19491 0 0 19750 0 0 19740 0 0 19718 0 0 19517 0 0 19855 0 0 19788 0 0 19913 0 0 19667 0 0 19598 0 0 19754 0 0 19740 0 0 19638 0 0 19461 0 0 19706 0 0 19613 0 0 19501 0 0 19627 0 0 19774 0 0 19634 0 0 19760 0 0 19589 0 0 19573 0 0 19433 0 0 19463 0 0 19478 0 0 9825 0 0 155 0 0 27 0 0 23 0 0 12 0 0 10 0 0 13 0 0 9 0 0 12 0 0 10 0 0 
8 0 0 13 0 0 14 0 0 21 0 0 22 0 0 19 0 0 17 0 0 29 0 0 28 0 0 131 0 0 9753 0 0 19421 0 0 19735 0 0 19624 0 0 19776 0 0 19978 0 0 19664 0 0 19596 0 0 19582 0 0 19460 0 0 19577 0 0 19654 0 0 19570 0 0 19533 0 0 19730 0 0 19759 0 0 19651 0 0 19572 0 0 19737 0 0 19705 0 0 19870 0 0 19967 0 0 19845 0 0 19537 0 0 19719 0 0 19812 0 0 19466 0 0 19637 0 0 19618 0 0 19737 0 0 19825 0 0 19700 0 0 19594 0 0 19578 0 0 19954 0 0 19690 0 0 19532 0 0 19621 0 0 19629 0 0 19434 0 0 9920 0 0 142 0 0 35 0 0 27 0 0 19 0 0 23 0 0 13 0 0 10 0 0 7 0 0 6 0 0 
5 0 0 7 0 0 13 0 0 17 0 0 13 0 0 15 0 0 26 0 0 32 0 0 45 0 0 165 0 0 9689 0 0 19669 0 0 19437 0 0 19770 0 0 19589 0 0 19791 0 0 19758 0 0 19651 0 0 19587 0 0 19653 0 0 19776 0 0 19545 0 0 19556 0 0 19415 0 0 19507 0 0 20009 0 0 19441 0 0 19704 0 0 19654 0 0 19571 0 0 19625 0 0 19763 0 0 19817 0 0 19673 0 0 19586 0 0 19397 0 0 19608 0 0 19590 0 0 19542 0 0 19514 0 0 19637 0 0 19616 0 0 19656 0 0 19542 0 0 19866 0 0 19593 0 0 19599 0 0 19731 0 0 19568 0 0 19366 0 0 9808 0 0 151 0 0 40 0 0 31 0 0 25 0 0 20 0 0 20 0 0 23 0 0 14 0 0 11 0 0 
7 0 0 16 0 0 14 0 0 19 0 0 15 0 0 20 0 0 29 0 0 30 0 0 46 0 0 144 0 0 9723 0 0 19432 0 0 19864 0 0 19448 0 0 19744 0 0 19581 0 0 19639 0 0 19608 0 0 19694 0 0 19702 0 0 19860 0 0 19582 0 0 19564 0 0 19832 0 0 19855 0 0 19549 0 0 19549 0 0 19781 0 0 19733 0 0 19636 0 0 19755 0 0 19908 0 0 19740 0 0 19725 0 0 19628 0 0 19562 0 0 19643 0 0 19522 0 0 19744 0 0 19617 0 0 19640 0 0 19749 0 0 19759 0 0 19596 0 0 19516 0 0 19723 0 0 19614 0 0 19471 0 0 19694 0 0 19555 0 0 9853 0 0 126 0 0 37 0 0 24 0 0 27 0 0 17 0 0 13 0 0 9 0 0 10 0 0 13 0 0 
9 0 0 15 0 0 17 0 0 14 0 0 15 0 0 34 0 0 24 0 0 32 0 0 37 0 0 137 0 0 9591 0 0 19474 0 0 19682 0 0 19502 0 0 19639 0 0 19504 0 0 19435 0 0 19553 0 0 19702 0 0 19599 0 0 19445 0 0 19624 0 0 19699 0 0 19575 0 0 19799 0 0 19598 0 0 19430 0 0 19705 0 0 19705 0 0 19563 0 0 19657 0 0 19543 0 0 19690 0 0 19646 0 0 19614 0 0 19451 0 0 19183 0 0 19804 0 0 19791 0 0 19478 0 0 19784 0 0 19579 0 0 19604 0 0 19616 0 0 19763 0 0 19511 0 0 19669 0 0 19587 0 0 19757 0 0 19614 0 0 9973 0 0 162 0 0 32 0 0 24 0 0 21 0 0 17 0 0 15 0 0 14 0 0 10 0 0 11 0 0 
5 0 0 10 0 0 14 0 0 14 0 0 19 0 0 27 0 0 25 0 0 28 0 0 40 0 0 132 0 0 9732 0 0 19504 0 0 19725 0 0 19727 0 0 19819 0 0 19560 0 0 19440 0 0 19567 0 0 19597 0 0 19715 0 0 19531 0 0 19593 0 0 19647 0 0 19482 0 0 19746 0 0 19462 0 0 19691 0 0 19728 0 0 19716 0 0 19576 0 0 19596 0 0 19585 0 0 19512 0 0 19798 0 0 19532 0 0 19509 0 0 19487 0 0 19629 0 0 19578 0 0 19503 0 0 19503 0 0 19474 0 0 19923 0 0 19794 0 0 19775 0 0 19585 0 0 19584 0 0 19640 0 0 19417 0 0 19564 0 0 9968 0 0 154 0 0 37 0 0 19 0 0 20 0 0 10 0 0 12 0 0 15 0 0 12 0 0 7 0 0 
6 0 0 14 0 0 12 0 0 19 0 0 24 0 0 18 0 0 22 0 0 22 0 0 35 0 0 146 0 0 9872 0 0 19435 0 0 19784 0 0 19650 0 0 19842 0 0 19564 0 0 19507 0 0 19586 0 0 19522 0 0 19558 0 0 19532 0 0 19757 0 0 19554 0 0 19674 0 0 19723 0 0 19780 0 0 19742 0 0 19488 0 0 19658 0 0 19776 0 0 19603 0 0 19702 0 0 19672 0 0 19626 0 0 19749 0 0 19424 0 0 19564 0 0 19499 0 0 19645 0 0 19712 0 0 19756 0 0 19753 0 0 19630 0 0 19520 0 0 19669 0 0 19617 0 0 19593 0 0 19443 0 0 19784 0 0 19440 0 0 9843 0 0 131 0 0 34 0 0 32 0 0 24 0 0 16 0 0 15 0 0 14 0 0 18 0 0 12 0 0 
8 0 0 14 0 0 14 0 0 21 0 0 18 0 0 16 0 0 17 0 0 27 0 0 41 0 0 147 0 0 9826 0 0 19450 0 0 19628 0 0 19746 0 0 19868 0 0 19617 0 0 19679 0 0 19640 0 0 19701 0 0 19512 0 0 19564 0 0 19794 0 0 19576 0 0 19591 0 0 19716 0 0 19576 0 0 19601 0 0 19760 0 0 19720 0 0 19600 0 0 19682 0 0 19507 0 0 19698 0 0 19442 0 0 19492 0 0 19697 0 0 19590 0 0 19592 0 0 19736 0 0 19864 0 0 19729 0 0 19506 0 0 19650 0 0 19471 0 0 19626 0 0 19798 0 0 19607 0 0 19495 0 0 19442 0 0 19595 0 0 9688 0 0 132 0 0 29 0 0 26 0 0 24 0 0 27 0 0 22 0 0 14 0 0 11 0 0 10 0 0 
5 0 0 8 0 0 14 0 0 12 0 0 9 0 0 15 0 0 23 0 0 30 0 0 40 0 0 139 0 0 9821 0 0 19470 0 0 19519 0 0 19648 0 0 19700 0 0 19576 0 0 19635 0 0 19730 0 0 19501 0 0 19576 0 0 19945 0 0 19444 0 0 19490 0 0 19571 0 0 19655 0 0 19747 0 0 19569 0 0 19623 0 0 19627 0 0 19442 0 0 19637 0 0 19513 0 0 19864 0 0 19701 0 0 19553 0 0 19730 0 0 19657 0 0 19891 0 0 19540 0 0 19922 0 0 19627 0 0 19446 0 0 19541 0 0 19601 0 0 19609 0 0 19632 0 0 19560 0 0 19687 0 0 19536 0 0 19502 0 0 9770 0 0 114 0 0 27 0 0 23 0 0 26 0 0 24 0 0 23 0 0 18 0 0 11 0 0 10 0 0 
4 0 0 6 0 0 10 0 0 18 0 0 15 0 0 12 0 0 24 0 0 26 0 0 33 0 0 137 0 0 9749 0 0 19489 0 0 19614 0 0 19725 0 0 19705 0 0 19578 0 0 19727 0 0 19684 0 0 19463 0 0 19644 0 0 19675 0 0 19634 0 0 19526 0 0 19733 0 0 19772 0 0 19910 0 0 19723 0 0 19534 0 0 19622 0 0 19820 0 0 19571 0 0 19536 0 0 19732 0 0 19546 0 0 19675 0 0 19754 0 0 19619 0 0 19730 0 0 19445 0 0 19677 0 0 19782 0 0 19752 0 0 19417 0 0 19403 0 0 19665 0 0 19592 0 0 19705 0 0 19685 0 0 19689 0 0 19598 0 0 9814 0 0 143 0 0 37 0 0 23 0 0 21 0 0 23 0 0 19 0 0 17 0 0 10 0 0 6 0 0 
2 0 0 9 0 0 15 0 0 20 0 0 24 0 0 18 0 0 18 0 0 25 0 0 35 0 0 137 0 0 9672 0 0 19298 0 0 19666 0 0 19464 0 0 19485 0 0 19542 0 0 19481 0 0 19507 0 0 19655 0 0 19656 0 0 19475 0 0 19519 0 0 19615 0 0 19679 0 0 19789 0 0 19514 0 0 19819 0 0 19630 0 0 19585 0 0 19240 0 0 19600 0 0 19679 0 0 19609 0 0 19614 0 0 19627 0 0 19465 0 0 19492 0 0 19383 0 0 19602 0 0 19751 0 0 19914 0 0 19673 0 0 19432 0 0 19634 0 0 19789 0 0 19551 0 0 19476 0 0 19605 0 0 19631 0 0 19498 0 0 9754 0 0 128 0 0 34 0 0 31 0 0 26 0 0 20 0 0 21 0 0 27 0 0 17 0 0 8 0 0 
5 0 0 11 0 0 6 0 0 14 0 0 14 0 0 12 0 0 19 0 0 27 0 0 30 0 0 136 0 0 9767 0 0 19591 0 0 19559 0 0 19618 0 0 19761 0 0 19719 0 0 19564 0 0 19567 0 0 19434 0 0 19700 0 0 19591 0 0 19679 0 0 19588 0 0 19833 0 0 19655 0 0 19717 0 0 19633 0 0 19449 0 0 19624 0 0 19646 0 0 19616 0 0 19728 0 0 19638 0 0 19562 0 0 19444 0 0 19696 0 0 19974 0 0 19909 0 0 19648 0 0 19503 0 0 19644 0 0 19944 0 0 19592 0 0 19519 0 0 19526 0 0 19452 0 0 19774 0 0 19649 0 0 19633 0 0 19617 0 0 9824 0 0 152 0 0 30 0 0 22 0 0 17 0 0 20 0 0 21 0 0 20 0 0 16 0 0 14 0 0 
4 0 0 8 0 0 10 0 0 7 0 0 10 0 0 17 0 0 24 0 0 20 0 0 26 0 0 132 0 0 9890 0 0 19604 0 0 19387 0 0 19454 0 0 19552 0 0 19557 0 0 19798 0 0 19673 0 0 19700 0 0 19376 0 0 19520 0 0 19676 0 0 19642 0 0 19739 0 0 19699 0 0 19620 0 0 19740 0 0 19523 0 0 19610 0 0 19505 0 0 19875 0 0 19480 0 0 19592 0 0 19599 0 0 19513 0 0 19596 0 0 19670 0 0 19758 0 0 19631 0 0 19555 0 0 19861 0 0 19663 0 0 19617 0 0 19592 0 0 19637 0 0 19569 0 0 19713 0 0 19853 0 0 19500 0 0 19613 0 0 9933 0 0 139 0 0 31 0 0 20 0 0 8 0 0 16 0 0 12 0 0 14 0 0 10 0 0 7 0 0 
4 0 0 10 0 0 9 0 0 9 0 0 18 0 0 12 0 0 15 0 0 12 0 0 28 0 0 123 0 0 9753 0 0 19236 0 0 19717 0 0 19479 0 0 19576 0 0 19573 0 0 19813 0 0 19720 0 0 19695 0 0 19679 0 0 19422 0 0 19586 0 0 19790 0 0 19669 0 0 19687 0 0 19465 0 0 19358 0 0 19493 0 0 19792 0 0 19646 0 0 19501 0 0 19909 0 0 19627 0 0 19459 0 0 19793 0 0 19597 0 0 19829 0 0 19562 0 0 19803 0 0 19715 0 0 19691 0 0 19647 0 0 19589 0 0 19514 0 0 19640 0 0 19528 0 0 19635 0 0 19796 0 0 19510 0 0 19399 0 0 9885 0 0 127 0 0 28 0 0 21 0 0 12 0 0 10 0 0 9 0 0 8 0 0 4 0 0 6 0 0 
2 0 0 7 0 0 7 0 0 15 0 0 20 0 0 19 0 0 13 0 0 23 0 0 28 0 0 138 0 0 9896 0 0 19701 0 0 19510 0 0 19574 0 0 19444 0 0 19891 0 0 19790 0 0 19652 0 0 19716 0 0 19581 0 0 19633 0 0 19713 0 0 19550 0 0 19591 0 0 19724 0 0 19772 0 0 19472 0 0 19548 0 0 19595 0 0 19416 0 0 19454 0 0 19897 0 0 19574 0 0 19557 0 0 19542 0 0 19690 0 0 19671 0 0 19465 0 0 19642 0 0 19795 0 0 19605 0 0 19613 0 0 19612 0 0 19742 0 0 19407 0 0 19563 0 0 19486 0 0 19769 0 0 19411 0 0 19523 0 0 9831 0 0 132 0 0 29 0 0 18 0 0 18 0 0 20 0 0 19 0 0 15 0 0 14 0 0 15 0 0 
2 0 0 10 0 0 13 0 0 7 0 0 12 0 0 16 0 0 19 0 0 20 0 0 17 0 0 123 0 0 9853 0 0 19622 0 0 19714 0 0 19235 0 0 19334 0 0 19622 0 0 19326 0 0 19837 0 0 19603 0 0 19931 0 0 19679 0 0 19369 0 0 19604 0 0 19334 0 0 19620 0 0 19654 0 0 19716 0 0 19631 0 0 19644 0 0 19561 0 0 19549 0 0 19620 0 0 19535 0 0 19184 0 0 19600 0 0 19756 0 0 20059 0 0 19538 0 0 19308 0 0 19842 0 0 19626 0 0 19678 0 0 19676 0 0 19622 0 0 19765 0 0 19708 0 0 19575 0 0 19507 0 0 19669 0 0 19564 0 0 9992 0 0 127 0 0 26 0 0 12 0 0 11 0 0 10 0 0 13 0 0 12 0 0 10 0 0 10 0 0 
4 0 0 11 0 0 7 0 0 10 0 0 12 0 0 17 0 0 19 0 0 22 0 0 21 0 0 106 0 0 9838 0 0 19427 0 0 19394 0 0 19399 0 0 19569 0 0 19555 0 0 19535 0 0 19501 0 0 19401 0 0 19513 0 0 19747 0 0 19404 0 0 19389 0 0 19500 0 0 19403 0 0 19644 0 0 19364 0 0 19521 0 0 19497 0 0 19328 0 0 19464 0 0 19495 0 0 19492 0 0 19370 0 0 19503 0 0 19612 0 0 19686 0 0 19358 0 0 19529 0 0 19406 0 0 19263 0 0 19415 0 0 19632 0 0 19305 0 0 19420 0 0 19368 0 0 19488 0 0 19638 0 0 19494 0 0 19278 0 0 9692 0 0 108 0 0 24 0 0 16 0 0 16 0 0 10 0 0 14 0 0 12 0 0 11 0 0 10 0 0 
3 0 0 5 0 0 9 0 0 9 0 0 10 0 0 15 0 0 13 0 0 23 0 0 19 0 0 66 0 0 5017 0 0 9841 0 0 9864 0 0 9979 0 0 9883 0 0 9688 0 0 9845 0 0 9658 0 0 9837 0 0 9792 0 0 9852 0 0 9698 0 0 9834 0 0 9847 0 0 9761 0 0 9801 0 0 9770 0 0 9849 0 0 9870 0 0 9761 0 0 9950 0 0 9935 0 0 9934 0 0 9790 0 0 9902 0 0 9837 0 0 9850 0 0 9781 0 0 9864 0 0 9852 0 0 9972 0 0 9737 0 0 9796 0 0 9855 0 0 9668 0 0 9878 0 0 9954 0 0 9800 0 0 9841 0 0 9787 0 0 4860 0 0 61 0 0 16 0 0 15 0 0 15 0 0 11 0 0 7 0 0 11 0 0 9 0 0 9 0 0 
1 0 0 4 0 0 7 0 0 8 0 0 15 0 0 17 0 0 17 0 0 18 0 0 16 0 0 14 0 0 78 0 0 130 0 0 126 0 0 146 0 0 127 0 0 126 0 0 136 0 0 145 0 0 155 0 0 135 0 0 128 0 0 140 0 0 149 0 0 126 0 0 151 0 0 145 0 0 152 0 0 137 0 0 132 0 0 136 0 0 138 0 0 155 0 0 152 0 0 150 0 0 123 0 0 147 0 0 149 0 0 169 0 0 138 0 0 147 0 0 149 0 0 111 0 0 129 0 0 135 0 0 161 0 0 124 0 0 122 0 0 142 0 0 149 0 0 116 0 0 84 0 0 22 0 0 17 0 0 15 0 0 20 0 0 8 0 0 7 0 0 7 0 0 4 0 0 10 0 0 
6 0 0 12 0 0 13 0 0 11 0 0 14 0 0 9 0 0 12 0 0 11 0 0 13 0 0 16 0 0 20 0 0 21 0 0 34 0 0 28 0 0 33 0 0 34 0 0 28 0 0 38 0 0 27 0 0 28 0 0 24 0 0 24 0 0 33 0 0 33 0 0 31 0 0 39 0 0 32 0 0 37 0 0 33 0 0 32 0 0 36 0 0 42 0 0 40 0 0 42 0 0 43 0 0 42 0 0 45 0 0 46 0 0 26 0 0 34 0 0 27 0 0 37 0 0 25 0 0 37 0 0 35 0 0 35 0 0 30 0 0 30 0 0 32 0 0 24 0 0 21 0 0 15 0 0 20 0 0 10 0 0 12 0 0 8 0 0 15 0 0 12 0 0 8 0 0 8 0 0 
2 0 0 9 0 0 8 0 0 11 0 0 10 0 0 12 0 0 14 0 0 11 0 0 12 0 0 19 0 0 18 0 0 14 0 0 19 0 0 22 0 0 19 0 0 25 0 0 26 0 0 26 0 0 24 0 0 21 0 0 26 0 0 31 0 0 35 0 0 29 0 0 31 0 0 25 0 0 40 0 0 36 0 0 27 0 0 21 0 0 26 0 0 35 0 0 34 0 0 30 0 0 34 0 0 32 0 0 41 0 0 22 0 0 24 0 0 34 0 0 26 0 0 14 0 0 28 0 0 28 0 0 28 0 0 17 0 0 27 0 0 22 0 0 16 0 0 22 0 0 21 0 0 12 0 0 17 0 0 9 0 0 15 0 0 12 0 0 8 0 0 9 0 0 6 0 0 8 0 0 
3 0 0 7 0 0 8 0 0 8 0 0 9 0 0 11 0 0 8 0 0 16 0 0 19 0 0 17 0 0 16 0 0 11 0 0 18 0 0 13 0 0 16 0 0 17 0 0 23 0 0 15 0 0 20 0 0 18 0 0 22 0 0 32 0 0 26 0 0 21 0 0 29 0 0 24 0 0 31 0 0 23 0 0 22 0 0 18 0 0 21 0 0 23 0 0 18 0 0 20 0 0 31 0 0 25 0 0 35 0 0 26 0 0 19 0 0 23 0 0 26 0 0 22 0 0 19 0 0 23 0 0 19 0 0 20 0 0 21 0 0 27 0 0 17 0 0 11 0 0 21 0 0 16 0 0 21 0 0 14 0 0 8 0 0 8 0 0 5 0 0 5 0 0 5 0 0 7 0 0 
3 0 0 5 0 0 2 0 0 8 0 0 9 0 0 12 0 0 9 0 0 16 0 0 16 0 0 14 0 0 12 0 0 10 0 0 20 0 0 12 0 0 15 0 0 26 0 0 18 0 0 24 0 0 18 0 0 21 0 0 26 0 0 29 0 0 23 0 0 23 0 0 16 0 0 15 0 0 21 0 0 13 0 0 14 0 0 21 0 0 23 0 0 17 0 0 17 0 0 11 0 0 22 0 0 21 0 0 22 0 0 21 0 0 26 0 0 17 0 0 18 0 0 13 0 0 17 0 0 18 0 0 21 0 0 17 0 0 17 0 0 25 0 0 15 0 0 18 0 0 14 0 0 13 0 0 16 0 0 13 0 0 12 0 0 11 0 0 4 0 0 2 0 0 3 0 0 3 0 0 
0 0 0 3 0 0 7 0 0 6 0 0 9 0 0 8 0 0 12 0 0 8 0 0 13 0 0 10 0 0 13 0 0 12 0 0 22 0 0 12 0 0 9 0 0 14 0 0 8 0 0 13 0 0 20 0 0 19 0 0 20 0 0 29 0 0 18 0 0 18 0 0 15 0 0 13 0 0 20 0 0 15 0 0 12 0 0 14 0 0 30 0 0 15 0 0 17 0 0 20 0 0 13 0 0 21 0 0 20 0 0 26 0 0 24 0 0 15 0 0 16 0 0 12 0 0 13 0 0 13 0 0 17 0 0 14 0 0 15 0 0 17 0 0 16 0 0 16 0 0 12 0 0 12 0 0 4 0 0 12 0 0 9 0 0 9 0 0 11 0 0 5 0 0 2 0 0 4 0 0 
1 0 0 6 0 0 2 0 0 4 0 0 12 0 0 7 0 0 11 0 0 10 0 0 8 0 0 7 0 0 11 0 0 12 0 0 17 0 0 8 0 0 12 0 0 14 0 0 13 0 0 8 0 0 15 0 0 20 0 0 14 0 0 25 0 0 18 0 0 16 0 0 13 0 0 19 0 0 15 0 0 13 0 0 11 0 0 20 0 0 18 0 0 25 0 0 16 0 0 10 0 0 21 0 0 14 0 0 18 0 0 19 0 0 13 0 0 11 0 0 14 0 0 8 0 0 10 0 0 10 0 0 10 0 0 7 0 0 17 0 0 12 0 0 12 0 0 18 0 0 8 0 0 9 0 0 10 0 0 4 0 0 6 0 0 7 0 0 6 0 0 2 0 0 3 0 0 3 0 0 
2 0 0 1 0 0 6 0 0 13 0 0 11 0 0 7 0 0 9 0 0 4 0 0 11 0 0 14 0 0 3 0 0 11 0 0 12 0 0 10 0 0 11 0 0 11 0 0 12 0 0 11 0 0 23 0 0 14 0 0 16 0 0 11 0 0 14 0 0 10 0 0 17 0 0 15 0 0 8 0 0 11 0 0 10 0 0 19 0 0 16 0 0 21 0 0 16 0 0 11 0 0 13 0 0 12 0 0 12 0 0 13 0 0 12 0 0 10 0 0 12 0 0 10 0 0 8 0 0 7 0 0 14 0 0 3 0 0 10 0 0 10 0 0 9 0 0 10 0 0 7 0 0 7 0 0 10 0 0 6 0 0 6 0 0 6 0 0 8 0 0 7 0 0 2 0 0 1 0 0 
0 0 0 4 0 0 7 0 0 8 0 0 5 0 0 10 0 0 9 0 0 7 0 0 12 0 0 4 0 0 1 0 0 8 0 0 11 0 0 11 0 0 5 0 0 14 0 0 9 0 0 6 0 0 11 0 0 10 0 0 19 0 0 6 0 0 14 0 0 7 0 0 12 0 0 17 0 0 4 0 0 7 0 0 14 0 0 15 0 0 16 0 0 12 0 0 12 0 0 15 0 0 14 0 0 21 0 0 12 0 0 14 0 0 12 0 0 12 0 0 8 0 0 12 0 0 9 0 0 5 0 0 5 0 0 6 0 0 9 0 0 11 0 0 6 0 0 4 0 0 7 0 0 6 0 0 6 0 0 8 0 0 6 0 0 2 0 0 6 0 0 8 0 0 7 0 0 2 0 0 
