P3
# This is a dose file slice at depth 73 of 100
60 60
# now we give the maximum value of the RGB coordinates.
34334
0 0 0 0 0 0 0 0 0 0 0 0 0 0 0 0 0 0 0 0 0 0 0 0 0 0 0 0 0 0 0 0 0 0 0 0 0 0 0 0 0 0 0 0 0 0 0 0 0 0 0 0 0 0 0 0 0 0 0 0 0 0 0 0 0 0 0 0 0 0 0 0 0 0 0 0 0 0 0 0 0 0 0 0 0 0 0 0 0 0 0 0 0 0 0 0 0 0 0 0 0 0 0 0 0 0 0 0 0 0 0 0 0 0 0 0 0 0 0 0 0 0 0 0 0 0 0 0 0 0 0 0 0 0 0 0 0 0 0 0 0 0 0 0 0 0 0 0 0 0 0 0 0 0 0 0 0 0 0 0 0 0 0 0 0 0 0 0 0 0 0 0 0 0 0 0 0 0 0 0 
0 0 0 0 0 0 0 0 0 0 0 0 0 0 0 0 0 0 0 0 0 0 0 0 0 0 0 0 0 0 0 0 0 0 0 0 0 0 0 0 0 0 0 0 0 0 0 0 0 0 0 0 0 0 0 0 0 0 0 0 0 0 0 0 0 0 0 0 0 0 0 0 0 0 0 0 0 0 0 0 0 0 0 0 0 0 0 0 0 0 0 0 0 0 0 0 0 0 0 0 0 0 0 0 0 0 0 0 0 0 0 0 0 0 0 0 0 0 0 0 0 0 0 0 0 0 0 0 0 0 0 0 0 0 0 0 0 0 0 0 0 0 0 0 0 0 0 0 0 0 0 0 0 0 0 0 0 0 0 0 0 0 0 0 0 0 0 0 0 0 0 0 0 0 0 0 0 0 0 0 
0 0 0 0 0 0 0 0 0 0 0 0 0 0 0 0 0 0 0 0 0 0 0 0 0 0 0 0 0 0 0 0 0 0 0 0 0 0 0 0 0 0 0 0 0 0 0 0 0 0 0 0 0 0 0 0 0 0 0 0 0 0 0 0 0 0 0 0 0 0 0 0 0 0 0 0 0 0 0 0 0 0 0 0 0 0 0 0 0 0 0 0 0 0 0 0 0 0 0 0 0 0 0 0 0 0 0 0 0 0 0 0 0 0 0 0 0 0 0 0 0 0 0 0 0 0 0 0 0 0 0 0 0 0 0 0 0 0 0 0 0 0 0 0 0 0 0 0 0 0 0 0 0 0 0 0 0 0 0 0 0 0 0 0 0 0 0 0 0 0 0 0 0 0 0 0 0 0 0 0 
0 0 0 0 0 0 0 0 0 0 0 0 0 0 0 0 0 0 0 0 0 0 0 0 0 0 0 0 0 0 0 0 0 0 0 0 0 0 0 0 0 0 0 0 0 0 0 0 0 0 0 0 0 0 0 0 0 0 0 0 0 0 0 0 0 0 0 0 0 0 0 0 0 0 0 0 0 0 0 0 0 0 0 0 0 0 0 0 0 0 0 0 0 0 0 0 0 0 0 0 0 0 0 0 0 0 0 0 0 0 0 0 0 0 0 0 0 0 0 0 0 0 0 0 0 0 0 0 0 0 0 0 0 0 0 0 0 0 0 0 0 0 0 0 0 0 0 0 0 0 0 0 0 0 0 0 0 0 0 0 0 0 0 0 0 0 0 0 0 0 0 0 0 0 0 0 0 0 0 0 
0 0 0 0 0 0 0 0 0 0 0 0 0 0 0 0 0 0 0 0 0 0 0 0 0 0 0 0 0 0 0 0 0 0 0 0 0 0 0 0 0 0 0 0 0 0 0 0 0 0 0 0 0 0 0 0 0 0 0 0 0 0 0 0 0 0 0 0 0 0 0 0 0 0 0 0 0 0 0 0 0 0 0 0 0 0 0 0 0 0 0 0 0 0 0 0 0 0 0 0 0 0 0 0 0 0 0 0 0 0 0 0 0 0 0 0 0 0 0 0 0 0 0 0 0 0 0 0 0 0 0 0 0 0 0 0 0 0 0 0 0 0 0 0 0 0 0 0 0 0 0 0 0 0 0 0 0 0 0 0 0 0 0 0 0 0 0 0 0 0 0 0 0 0 0 0 0 0 0 0 
0 0 0 0 0 0 0 0 0 0 0 0 0 0 0 0 0 0 0 0 0 0 0 0 0 0 0 0 0 0 0 0 0 0 0 0 0 0 0 0 0 0 0 0 0 0 0 0 0 0 0 0 0 0 0 0 0 0 0 0 0 0 0 0 0 0 0 0 0 0 0 0 0 0 0 0 0 0 0 0 0 0 0 0 0 0 0 0 0 0 0 0 0 0 0 0 0 0 0 0 0 0 0 0 0 0 0 0 0 0 0 0 0 0 0 0 0 0 0 0 0 0 0 0 0 0 0 0 0 0 0 0 0 0 0 0 0 0 0 0 0 0 0 0 0 0 0 0 0 0 0 0 0 0 0 0 0 0 0 0 0 0 0 0 0 0 0 0 0 0 0 0 0 0 0 0 0 0 0 0 
0 0 0 0 0 0 0 0 0 0 0 0 0 0 0 0 0 0 0 0 0 0 0 0 0 0 0 0 0 0 0 0 0 0 0 0 0 0 0 0 0 0 0 0 0 0 0 0 0 0 0 0 0 0 0 0 0 0 0 0 0 0 0 0 0 0 0 0 0 0 0 0 0 0 0 0 0 0 0 0 0 0 0 0 0 0 0 0 0 0 0 0 0 0 0 0 0 0 0 0 0 0 0 0 0 0 0 0 0 0 0 0 0 0 0 0 0 0 0 0 0 0 0 0 0 0 0 0 0 0 0 0 0 0 0 0 0 0 0 0 0 0 0 0 0 0 0 0 0 0 0 0 0 0 0 0 0 0 0 0 0 0 0 0 0 0 0 0 0 0 0 0 0 0 0 0 0 0 0 0 
0 0 0 0 0 0 0 0 0 0 0 0 0 0 0 0 0 0 0 0 0 0 0 0 0 0 0 0 0 0 0 0 0 0 0 0 0 0 0 0 0 0 0 0 0 0 0 0 0 0 0 0 0 0 0 0 0 0 0 0 0 0 0 0 0 0 0 0 0 0 0 0 0 0 0 0 0 0 0 0 0 0 0 0 0 0 0 0 0 0 0 0 0 0 0 0 0 0 0 0 0 0 0 0 0 0 0 0 0 0 0 0 0 0 0 0 0 0 0 0 0 0 0 0 0 0 0 0 0 0 0 0 0 0 0 0 0 0 0 0 0 0 0 0 0 0 0 0 0 0 0 0 0 0 0 0 0 0 0 0 0 0 0 0 0 0 0 0 0 0 0 0 0 0 0 0 0 0 0 0 
0 0 0 0 0 0 0 0 0 0 0 0 0 0 0 0 0 0 0 0 0 0 0 0 0 0 0 0 0 0 0 0 0 0 0 0 0 0 0 0 0 0 0 0 0 0 0 0 0 0 0 0 0 0 0 0 0 0 0 0 0 0 0 0 0 0 0 0 0 0 0 0 0 0 0 0 0 0 0 0 0 0 0 0 0 0 0 0 0 0 0 0 0 0 0 0 0 0 0 0 0 0 0 0 0 0 0 0 0 0 0 0 0 0 0 0 0 0 0 0 0 0 0 0 0 0 0 0 0 0 0 0 0 0 0 0 0 0 0 0 0 0 0 0 0 0 0 0 0 0 0 0 0 0 0 0 0 0 0 0 0 0 0 0 0 0 0 0 0 0 0 0 0 0 0 0 0 0 0 0 
0 0 0 0 0 0 0 0 0 0 0 0 0 0 0 0 0 0 0 0 0 0 0 0 0 0 0 0 0 0 0 0 0 0 0 0 0 0 0 0 0 0 0 0 0 0 0 0 0 0 0 0 0 0 0 0 0 0 0 0 0 0 0 0 0 0 0 0 0 0 0 0 0 0 0 0 0 0 0 0 0 0 0 0 0 0 0 0 0 0 0 0 0 0 0 0 0 0 0 0 0 0 0 0 0 0 0 0 0 0 0 0 0 0 0 0 0 0 0 0 0 0 0 0 0 0 0 0 0 0 0 0 0 0 0 0 0 0 0 0 0 0 0 0 0 0 0 0 0 0 0 0 0 0 0 0 0 0 0 0 0 0 0 0 0 0 0 0 0 0 0 0 0 0 0 0 0 0 0 0 
0 0 0 0 0 0 0 0 0 0 0 0 0 0 0 0 0 0 0 0 0 0 0 0 0 0 0 0 0 0 1086 0 0 2135 0 0 2176 0 0 2122 0 0 2149 0 0 2106 0 0 2162 0 0 2035 0 0 2078 0 0 2023 0 0 2169 0 0 2129 0 0 2122 0 0 2143 0 0 2125 0 0 2177 0 0 2119 0 0 2151 0 0 2081 0 0 2150 0 0 2224 0 0 2125 0 0 2066 0 0 2081 0 0 2114 0 0 2117 0 0 2196 0 0 2135 0 0 2121 0 0 2195 0 0 2099 0 0 2095 0 0 2194 0 0 2100 0 0 2136 0 0 2085 0 0 2077 0 0 2146 0 0 2165 0 0 2179 0 0 1066 0 0 0 0 0 0 0 0 0 0 0 0 0 0 0 0 0 0 0 0 0 0 0 0 0 0 0 0 0 
0 0 0 0 0 0 0 0 0 0 0 0 0 0 0 0 0 0 0 0 0 0 0 0 0 0 0 0 0 0 2154 0 0 4303 0 0 4321 0 0 4219 0 0 4285 0 0 4174 0 0 4271 0 0 4223 0 0 4370 0 0 4285 0 0 4381 0 0 4346 0 0 4258 0 0 4257 0 0 4223 0 0 4230 0 0 4296 0 0 4232 0 0 4349 0 0 4166 0 0 4297 0 0 4377 0 0 4368 0 0 4403 0 0 4218 0 0 4198 0 0 4305 0 0 4327 0 0 4217 0 0 4218 0 0 4105 0 0 4274 0 0 4367 0 0 4182 0 0 4208 0 0 4276 0 0 4310 0 0 4167 0 0 4256 0 0 4145 0 0 2217 0 0 0 0 0 0 0 0 0 0 0 0 0 0 0 0 0 0 0 0 0 0 0 0 0 0 0 0 0 
0 0 0 0 0 0 0 0 0 0 0 0 0 0 0 0 0 0 0 0 0 0 0 0 0 0 0 0 0 0 2135 0 0 4325 0 0 4187 0 0 4319 0 0 4237 0 0 4109 0 0 4095 0 0 4316 0 0 4159 0 0 4204 0 0 4375 0 0 4285 0 0 4222 0 0 4219 0 0 4283 0 0 4218 0 0 4218 0 0 4284 0 0 4254 0 0 3995 0 0 4141 0 0 4189 0 0 4227 0 0 4220 0 0 4223 0 0 4308 0 0 4263 0 0 4177 0 0 4370 0 0 4229 0 0 4179 0 0 4278 0 0 4135 0 0 4300 0 0 4216 0 0 4187 0 0 4241 0 0 4253 0 0 4264 0 0 4264 0 0 2085 0 0 0 0 0 0 0 0 0 0 0 0 0 0 0 0 0 0 0 0 0 0 0 0 0 0 0 0 0 
0 0 0 0 0 0 0 0 0 0 0 0 0 0 0 0 0 0 0 0 0 0 0 0 0 0 0 0 0 0 2154 0 0 4348 0 0 4210 0 0 4249 0 0 4303 0 0 4259 0 0 4261 0 0 4307 0 0 4326 0 0 4311 0 0 4235 0 0 4139 0 0 4329 0 0 4262 0 0 4196 0 0 4354 0 0 4317 0 0 4195 0 0 4183 0 0 4388 0 0 4265 0 0 4187 0 0 4331 0 0 4285 0 0 4329 0 0 4302 0 0 4403 0 0 4307 0 0 4168 0 0 4181 0 0 4336 0 0 4264 0 0 4150 0 0 4230 0 0 4228 0 0 4397 0 0 4314 0 0 4300 0 0 4364 0 0 4274 0 0 2131 0 0 0 0 0 0 0 0 0 0 0 0 0 0 0 0 0 0 0 0 0 0 0 0 0 0 0 0 0 
0 0 0 0 0 0 0 0 0 0 0 0 0 0 0 0 0 0 0 0 0 0 0 0 0 0 0 0 0 0 2164 0 0 4275 0 0 4279 0 0 4328 0 0 4241 0 0 4262 0 0 4301 0 0 4181 0 0 4236 0 0 4271 0 0 4278 0 0 4170 0 0 4282 0 0 4091 0 0 4186 0 0 4296 0 0 4195 0 0 4337 0 0 4298 0 0 4348 0 0 4259 0 0 4152 0 0 4412 0 0 4279 0 0 4309 0 0 4213 0 0 4217 0 0 4201 0 0 4258 0 0 4269 0 0 4275 0 0 4260 0 0 4168 0 0 4211 0 0 4185 0 0 4238 0 0 4208 0 0 4224 0 0 4327 0 0 4252 0 0 2052 0 0 0 0 0 0 0 0 0 0 0 0 0 0 0 0 0 0 0 0 0 0 0 0 0 0 0 0 0 
0 0 0 0 0 0 0 0 0 0 0 0 0 0 0 0 0 0 0 0 0 0 0 0 0 0 0 0 0 0 2112 0 0 4204 0 0 4264 0 0 4222 0 0 4367 0 0 4311 0 0 4250 0 0 4215 0 0 4255 0 0 4213 0 0 4087 0 0 4265 0 0 4270 0 0 4333 0 0 4178 0 0 4329 0 0 4275 0 0 4234 0 0 4251 0 0 4205 0 0 4316 0 0 4255 0 0 4387 0 0 4345 0 0 4344 0 0 4239 0 0 4271 0 0 4158 0 0 4293 0 0 4157 0 0 4401 0 0 4192 0 0 4237 0 0 4229 0 0 4195 0 0 4225 0 0 4248 0 0 4359 0 0 4177 0 0 4228 0 0 2111 0 0 0 0 0 0 0 0 0 0 0 0 0 0 0 0 0 0 0 0 0 0 0 0 0 0 0 0 0 
0 0 0 0 0 0 0 0 0 0 0 0 0 0 0 0 0 0 0 0 0 0 0 0 0 0 0 0 0 0 2096 0 0 4285 0 0 4260 0 0 4317 0 0 4236 0 0 4262 0 0 4202 0 0 4214 0 0 4272 0 0 4341 0 0 4242 0 0 4240 0 0 4298 0 0 4146 0 0 4273 0 0 4296 0 0 4260 0 0 4311 0 0 4216 0 0 4203 0 0 4261 0 0 4313 0 0 4227 0 0 4178 0 0 4335 0 0 4222 0 0 4240 0 0 4214 0 0 4312 0 0 4191 0 0 4220 0 0 4294 0 0 4293 0 0 4289 0 0 4215 0 0 4322 0 0 4186 0 0 4199 0 0 4238 0 0 4375 0 0 2138 0 0 0 0 0 0 0 0 0 0 0 0 0 0 0 0 0 0 0 0 0 0 0 0 0 0 0 0 0 
0 0 0 0 0 0 0 0 0 0 0 0 0 0 0 0 0 0 0 0 0 0 0 0 0 0 0 0 0 0 2126 0 0 4337 0 0 4287 0 0 4188 0 0 4195 0 0 4203 0 0 4302 0 0 4167 0 0 4269 0 0 4306 0 0 4228 0 0 4194 0 0 4398 0 0 4200 0 0 4260 0 0 4239 0 0 4305 0 0 4063 0 0 4273 0 0 4204 0 0 4286 0 0 4305 0 0 4144 0 0 4378 0 0 4354 0 0 4229 0 0 4330 0 0 4242 0 0 4262 0 0 4240 0 0 4173 0 0 4249 0 0 4229 0 0 4320 0 0 4255 0 0 4279 0 0 4251 0 0 4132 0 0 4210 0 0 4182 0 0 2096 0 0 0 0 0 0 0 0 0 0 0 0 0 0 0 0 0 0 0 0 0 0 0 0 0 0 0 0 0 
0 0 0 0 0 0 0 0 0 0 0 0 0 0 0 0 0 0 0 0 0 0 0 0 0 0 0 0 0 0 2180 0 0 4284 0 0 4314 0 0 4298 0 0 4151 0 0 4138 0 0 4240 0 0 4360 0 0 4192 0 0 4199 0 0 4226 0 0 4153 0 0 4266 0 0 4270 0 0 4292 0 0 4287 0 0 4307 0 0 4307 0 0 4354 0 0 4225 0 0 4194 0 0 4255 0 0 4355 0 0 4189 0 0 4190 0 0 4201 0 0 4174 0 0 4368 0 0 4314 0 0 4152 0 0 4296 0 0 4215 0 0 4234 0 0 4147 0 0 4121 0 0 4412 0 0 4321 0 0 4102 0 0 4255 0 0 4329 0 0 2142 0 0 0 0 0 0 0 0 0 0 0 0 0 0 0 0 0 0 0 0 0 0 0 0 0 0 0 0 0 
0 0 0 0 0 0 0 0 0 0 0 0 0 0 0 0 0 0 0 0 0 0 0 0 0 0 0 0 0 0 2143 0 0 4344 0 0 4200 0 0 4283 0 0 4258 0 0 4230 0 0 4188 0 0 4259 0 0 4352 0 0 4287 0 0 4289 0 0 4365 0 0 4324 0 0 4307 0 0 4198 0 0 4235 0 0 4272 0 0 4214 0 0 4270 0 0 4274 0 0 4230 0 0 4235 0 0 4231 0 0 4349 0 0 4260 0 0 4238 0 0 4278 0 0 4197 0 0 4287 0 0 4291 0 0 4185 0 0 4056 0 0 4325 0 0 4150 0 0 4278 0 0 4281 0 0 4251 0 0 4293 0 0 4248 0 0 4290 0 0 2110 0 0 0 0 0 0 0 0 0 0 0 0 0 0 0 0 0 0 0 0 0 0 0 0 0 0 0 0 0 
0 0 0 0 0 0 0 0 0 0 0 0 0 0 0 0 0 0 0 0 0 0 0 0 0 0 0 0 0 0 2053 0 0 4187 0 0 4328 0 0 4117 0 0 4304 0 0 4204 0 0 4217 0 0 4191 0 0 4250 0 0 4250 0 0 4165 0 0 4325 0 0 4351 0 0 4367 0 0 4295 0 0 4348 0 0 4357 0 0 4330 0 0 4225 0 0 4137 0 0 4261 0 0 4236 0 0 4258 0 0 4245 0 0 4317 0 0 4255 0 0 4254 0 0 4193 0 0 4313 0 0 4249 0 0 4290 0 0 4271 0 0 4231 0 0 4080 0 0 4227 0 0 4283 0 0 4206 0 0 4349 0 0 4182 0 0 4380 0 0 2212 0 0 0 0 0 0 0 0 0 0 0 0 0 0 0 0 0 0 0 0 0 0 0 0 0 0 0 0 0 
0 0 0 0 0 0 0 0 0 0 0 0 0 0 0 0 0 0 0 0 0 0 0 0 0 0 0 0 0 0 2073 0 0 4179 0 0 4155 0 0 4172 0 0 4323 0 0 4299 0 0 4374 0 0 4232 0 0 4278 0 0 4356 0 0 4193 0 0 4306 0 0 4279 0 0 4306 0 0 4148 0 0 4243 0 0 4353 0 0 4312 0 0 4201 0 0 4263 0 0 4219 0 0 4413 0 0 4165 0 0 4394 0 0 4312 0 0 4287 0 0 4181 0 0 4280 0 0 4201 0 0 4322 0 0 4169 0 0 4187 0 0 4283 0 0 4336 0 0 4358 0 0 4394 0 0 4333 0 0 4452 0 0 4311 0 0 4242 0 0 2018 0 0 0 0 0 0 0 0 0 0 0 0 0 0 0 0 0 0 0 0 0 0 0 0 0 0 0 0 0 
0 0 0 0 0 0 0 0 0 0 0 0 0 0 0 0 0 0 0 0 0 0 0 0 0 0 0 0 0 0 2049 0 0 4150 0 0 4405 0 0 4246 0 0 4377 0 0 4196 0 0 4124 0 0 4371 0 0 4230 0 0 4306 0 0 4345 0 0 4178 0 0 4119 0 0 4310 0 0 4244 0 0 4321 0 0 4339 0 0 4214 0 0 4350 0 0 4259 0 0 4409 0 0 4235 0 0 4298 0 0 4163 0 0 4253 0 0 4340 0 0 4301 0 0 4229 0 0 4301 0 0 4328 0 0 4202 0 0 4251 0 0 4311 0 0 4289 0 0 4225 0 0 4367 0 0 4186 0 0 4342 0 0 4145 0 0 4328 0 0 2132 0 0 0 0 0 0 0 0 0 0 0 0 0 0 0 0 0 0 0 0 0 0 0 0 0 0 0 0 0 
0 0 0 0 0 0 0 0 0 0 0 0 0 0 0 0 0 0 0 0 0 0 0 0 0 0 0 0 0 0 2134 0 0 4296 0 0 4254 0 0 4217 0 0 4162 0 0 4246 0 0 4259 0 0 4165 0 0 4353 0 0 4224 0 0 4279 0 0 4157 0 0 4296 0 0 4285 0 0 4222 0 0 4156 0 0 4275 0 0 4297 0 0 4232 0 0 4234 0 0 4271 0 0 4281 0 0 4256 0 0 4227 0 0 4325 0 0 4271 0 0 4407 0 0 4356 0 0 4218 0 0 4372 0 0 4372 0 0 4283 0 0 4201 0 0 4194 0 0 4218 0 0 4397 0 0 4365 0 0 4191 0 0 4316 0 0 4254 0 0 2125 0 0 0 0 0 0 0 0 0 0 0 0 0 0 0 0 0 0 0 0 0 0 0 0 0 0 0 0 0 
0 0 0 0 0 0 0 0 0 0 0 0 0 0 0 0 0 0 0 0 0 0 0 0 0 0 0 0 0 0 2086 0 0 4291 0 0 4258 0 0 4279 0 0 4456 0 0 4265 0 0 4292 0 0 4438 0 0 4229 0 0 4276 0 0 4238 0 0 4242 0 0 4267 0 0 4364 0 0 4448 0 0 4280 0 0 4223 0 0 4281 0 0 4200 0 0 4241 0 0 4144 0 0 4248 0 0 4212 0 0 4302 0 0 4290 0 0 4166 0 0 4135 0 0 4272 0 0 4316 0 0 4392 0 0 4245 0 0 4305 0 0 4259 0 0 4319 0 0 4354 0 0 4292 0 0 4291 0 0 4295 0 0 4212 0 0 4244 0 0 2122 0 0 0 0 0 0 0 0 0 0 0 0 0 0 0 0 0 0 0 0 0 0 0 0 0 0 0 0 0 
0 0 0 0 0 0 0 0 0 0 0 0 0 0 0 0 0 0 0 0 0 0 0 0 0 0 0 0 0 0 2032 0 0 4252 0 0 4186 0 0 4302 0 0 4326 0 0 4231 0 0 4097 0 0 4208 0 0 4253 0 0 4231 0 0 4341 0 0 4179 0 0 4242 0 0 4344 0 0 4263 0 0 4233 0 0 4349 0 0 4308 0 0 4319 0 0 4277 0 0 4158 0 0 4143 0 0 4192 0 0 4373 0 0 4328 0 0 4302 0 0 4230 0 0 4230 0 0 4234 0 0 4186 0 0 4301 0 0 4237 0 0 4320 0 0 4177 0 0 4283 0 0 4206 0 0 4278 0 0 4278 0 0 4262 0 0 4276 0 0 2218 0 0 0 0 0 0 0 0 0 0 0 0 0 0 0 0 0 0 0 0 0 0 0 0 0 0 0 0 0 
0 0 0 0 0 0 0 0 0 0 0 0 0 0 0 0 0 0 0 0 0 0 0 0 0 0 0 0 0 0 2130 0 0 4374 0 0 4169 0 0 4308 0 0 4300 0 0 4193 0 0 4351 0 0 4147 0 0 4262 0 0 4323 0 0 4316 0 0 4241 0 0 4232 0 0 4403 0 0 4296 0 0 4187 0 0 4370 0 0 4272 0 0 4303 0 0 4100 0 0 4266 0 0 4109 0 0 4394 0 0 4354 0 0 4164 0 0 4374 0 0 4158 0 0 4308 0 0 4280 0 0 4185 0 0 4193 0 0 4304 0 0 4191 0 0 4360 0 0 4239 0 0 4268 0 0 4293 0 0 4281 0 0 4233 0 0 4366 0 0 2098 0 0 0 0 0 0 0 0 0 0 0 0 0 0 0 0 0 0 0 0 0 0 0 0 0 0 0 0 0 
0 0 0 0 0 0 0 0 0 0 0 0 0 0 0 0 0 0 0 0 0 0 0 0 0 0 0 0 0 0 2084 0 0 4301 0 0 4256 0 0 4277 0 0 4275 0 0 4196 0 0 4250 0 0 4291 0 0 4302 0 0 4319 0 0 4165 0 0 4201 0 0 4121 0 0 4297 0 0 4227 0 0 4240 0 0 4150 0 0 4221 0 0 4218 0 0 4246 0 0 4196 0 0 4142 0 0 4257 0 0 4180 0 0 4315 0 0 4244 0 0 4223 0 0 4228 0 0 4146 0 0 4270 0 0 4265 0 0 4126 0 0 4303 0 0 4220 0 0 4276 0 0 4267 0 0 4311 0 0 4238 0 0 4109 0 0 4095 0 0 2155 0 0 0 0 0 0 0 0 0 0 0 0 0 0 0 0 0 0 0 0 0 0 0 0 0 0 0 0 0 
0 0 0 0 0 0 0 0 0 0 0 0 0 0 0 0 0 0 0 0 0 0 0 0 0 0 0 0 0 0 2187 0 0 4240 0 0 4253 0 0 4375 0 0 4277 0 0 4317 0 0 4219 0 0 4313 0 0 4352 0 0 4300 0 0 4332 0 0 4367 0 0 4163 0 0 4213 0 0 4271 0 0 4186 0 0 4377 0 0 4276 0 0 4220 0 0 4193 0 0 4290 0 0 4308 0 0 4222 0 0 4280 0 0 4342 0 0 4267 0 0 4324 0 0 4102 0 0 4332 0 0 4322 0 0 4320 0 0 4210 0 0 4246 0 0 4180 0 0 4211 0 0 4327 0 0 4319 0 0 4262 0 0 4227 0 0 4231 0 0 2093 0 0 0 0 0 0 0 0 0 0 0 0 0 0 0 0 0 0 0 0 0 0 0 0 0 0 0 0 0 
0 0 0 0 0 0 0 0 0 0 0 0 0 0 0 0 0 0 0 0 0 0 0 0 0 0 0 0 0 0 2099 0 0 4288 0 0 4131 0 0 4272 0 0 4241 0 0 4365 0 0 4404 0 0 4309 0 0 4212 0 0 4254 0 0 4303 0 0 4228 0 0 4313 0 0 4210 0 0 4218 0 0 4321 0 0 4200 0 0 4272 0 0 4215 0 0 4400 0 0 4239 0 0 4251 0 0 4345 0 0 4162 0 0 4046 0 0 4264 0 0 4243 0 0 4293 0 0 4243 0 0 4309 0 0 4280 0 0 4232 0 0 4324 0 0 4224 0 0 4317 0 0 4333 0 0 4322 0 0 4179 0 0 4220 0 0 4241 0 0 2110 0 0 0 0 0 0 0 0 0 0 0 0 0 0 0 0 0 0 0 0 0 0 0 0 0 0 0 0 0 
0 0 0 0 0 0 0 0 0 0 0 0 0 0 0 0 0 0 0 0 0 0 0 0 0 0 0 0 0 0 2070 0 0 4288 0 0 4425 0 0 4141 0 0 4252 0 0 4312 0 0 4319 0 0 4185 0 0 4325 0 0 4337 0 0 4125 0 0 4278 0 0 4249 0 0 4258 0 0 4253 0 0 4272 0 0 4353 0 0 4266 0 0 4302 0 0 4246 0 0 4134 0 0 4115 0 0 4221 0 0 4166 0 0 4287 0 0 4340 0 0 4246 0 0 4229 0 0 4254 0 0 4209 0 0 4295 0 0 4287 0 0 4266 0 0 4261 0 0 4238 0 0 4326 0 0 4178 0 0 4280 0 0 4189 0 0 4297 0 0 2162 0 0 0 0 0 0 0 0 0 0 0 0 0 0 0 0 0 0 0 0 0 0 0 0 0 0 0 0 0 
0 0 0 0 0 0 0 0 0 0 0 0 0 0 0 0 0 0 0 0 0 0 0 0 0 0 0 0 0 0 2050 0 0 4202 0 0 4207 0 0 4257 0 0 4221 0 0 4329 0 0 4208 0 0 4131 0 0 4324 0 0 4357 0 0 4341 0 0 4319 0 0 4255 0 0 4224 0 0 4303 0 0 4333 0 0 4165 0 0 4127 0 0 4282 0 0 4316 0 0 4233 0 0 4345 0 0 4336 0 0 3984 0 0 4237 0 0 4245 0 0 4233 0 0 4319 0 0 4321 0 0 4195 0 0 4224 0 0 4255 0 0 4388 0 0 4255 0 0 4315 0 0 4300 0 0 4224 0 0 4092 0 0 4240 0 0 4250 0 0 2172 0 0 0 0 0 0 0 0 0 0 0 0 0 0 0 0 0 0 0 0 0 0 0 0 0 0 0 0 0 
0 0 0 0 0 0 0 0 0 0 0 0 0 0 0 0 0 0 0 0 0 0 0 0 0 0 0 0 0 0 2124 0 0 4340 0 0 4221 0 0 4220 0 0 4246 0 0 4121 0 0 4104 0 0 4230 0 0 4339 0 0 4246 0 0 4244 0 0 4331 0 0 4192 0 0 4354 0 0 4197 0 0 4225 0 0 4197 0 0 4248 0 0 4397 0 0 4268 0 0 4277 0 0 4212 0 0 4191 0 0 4214 0 0 4213 0 0 4223 0 0 4172 0 0 4264 0 0 4278 0 0 4229 0 0 4266 0 0 4327 0 0 4270 0 0 4355 0 0 4268 0 0 4140 0 0 4242 0 0 4215 0 0 4219 0 0 4207 0 0 2185 0 0 0 0 0 0 0 0 0 0 0 0 0 0 0 0 0 0 0 0 0 0 0 0 0 0 0 0 0 
0 0 0 0 0 0 0 0 0 0 0 0 0 0 0 0 0 0 0 0 0 0 0 0 0 0 0 0 0 0 2111 0 0 4352 0 0 4261 0 0 4212 0 0 4081 0 0 4330 0 0 4340 0 0 4301 0 0 4227 0 0 4239 0 0 4219 0 0 4343 0 0 4143 0 0 4333 0 0 4220 0 0 4188 0 0 4164 0 0 4254 0 0 4246 0 0 4292 0 0 4205 0 0 4246 0 0 4201 0 0 4300 0 0 4150 0 0 4306 0 0 4242 0 0 4195 0 0 4335 0 0 4302 0 0 4185 0 0 4154 0 0 4258 0 0 4168 0 0 4319 0 0 4397 0 0 4324 0 0 4259 0 0 4197 0 0 4255 0 0 2034 0 0 0 0 0 0 0 0 0 0 0 0 0 0 0 0 0 0 0 0 0 0 0 0 0 0 0 0 0 
0 0 0 0 0 0 0 0 0 0 0 0 0 0 0 0 0 0 0 0 0 0 0 0 0 0 0 0 0 0 2160 0 0 4319 0 0 4337 0 0 4224 0 0 4272 0 0 4268 0 0 4289 0 0 4357 0 0 4245 0 0 4190 0 0 4192 0 0 4337 0 0 4238 0 0 4297 0 0 4287 0 0 4414 0 0 4195 0 0 4254 0 0 4369 0 0 4201 0 0 4248 0 0 4205 0 0 4296 0 0 4160 0 0 4279 0 0 4224 0 0 4238 0 0 4327 0 0 4266 0 0 4223 0 0 4376 0 0 4218 0 0 4226 0 0 4084 0 0 4174 0 0 4287 0 0 4215 0 0 4311 0 0 4294 0 0 4255 0 0 2085 0 0 0 0 0 0 0 0 0 0 0 0 0 0 0 0 0 0 0 0 0 0 0 0 0 0 0 0 0 
0 0 0 0 0 0 0 0 0 0 0 0 0 0 0 0 0 0 0 0 0 0 0 0 0 0 0 0 0 0 2159 0 0 4219 0 0 4299 0 0 4252 0 0 4253 0 0 4216 0 0 4243 0 0 4326 0 0 4205 0 0 4272 0 0 4197 0 0 4384 0 0 4297 0 0 4367 0 0 4112 0 0 4312 0 0 4232 0 0 4258 0 0 4119 0 0 4233 0 0 4208 0 0 4296 0 0 4236 0 0 4281 0 0 4360 0 0 4342 0 0 4339 0 0 4181 0 0 4339 0 0 4265 0 0 4229 0 0 4269 0 0 4164 0 0 4294 0 0 4236 0 0 4210 0 0 4121 0 0 4247 0 0 4215 0 0 4100 0 0 2093 0 0 0 0 0 0 0 0 0 0 0 0 0 0 0 0 0 0 0 0 0 0 0 0 0 0 0 0 0 
0 0 0 0 0 0 0 0 0 0 0 0 0 0 0 0 0 0 0 0 0 0 0 0 0 0 0 0 0 0 2179 0 0 4191 0 0 4237 0 0 4227 0 0 4273 0 0 4250 0 0 4203 0 0 4281 0 0 4308 0 0 4334 0 0 4212 0 0 4253 0 0 4318 0 0 4168 0 0 4184 0 0 4186 0 0 4252 0 0 4271 0 0 4186 0 0 4161 0 0 4221 0 0 4195 0 0 4260 0 0 4353 0 0 4162 0 0 4277 0 0 4386 0 0 4158 0 0 4099 0 0 4246 0 0 4351 0 0 4173 0 0 4322 0 0 4351 0 0 4329 0 0 4254 0 0 4265 0 0 4279 0 0 4271 0 0 4276 0 0 2137 0 0 0 0 0 0 0 0 0 0 0 0 0 0 0 0 0 0 0 0 0 0 0 0 0 0 0 0 0 
0 0 0 0 0 0 0 0 0 0 0 0 0 0 0 0 0 0 0 0 0 0 0 0 0 0 0 0 0 0 2069 0 0 4220 0 0 4304 0 0 4198 0 0 4230 0 0 4183 0 0 4288 0 0 4237 0 0 4244 0 0 4101 0 0 4277 0 0 4298 0 0 4339 0 0 4148 0 0 4318 0 0 4288 0 0 4232 0 0 4298 0 0 4176 0 0 4208 0 0 4230 0 0 4172 0 0 4201 0 0 4272 0 0 4273 0 0 4158 0 0 4210 0 0 4321 0 0 4379 0 0 4293 0 0 4180 0 0 4201 0 0 4246 0 0 4241 0 0 4168 0 0 4268 0 0 4190 0 0 4305 0 0 4337 0 0 4229 0 0 2093 0 0 0 0 0 0 0 0 0 0 0 0 0 0 0 0 0 0 0 0 0 0 0 0 0 0 0 0 0 
0 0 0 0 0 0 0 0 0 0 0 0 0 0 0 0 0 0 0 0 0 0 0 0 0 0 0 0 0 0 2057 0 0 4224 0 0 4146 0 0 4288 0 0 4174 0 0 4116 0 0 4184 0 0 4225 0 0 4350 0 0 4136 0 0 4292 0 0 4281 0 0 4413 0 0 4207 0 0 4235 0 0 4215 0 0 4189 0 0 4147 0 0 4241 0 0 4247 0 0 4302 0 0 4281 0 0 4246 0 0 4236 0 0 4332 0 0 4196 0 0 4163 0 0 4301 0 0 4281 0 0 4202 0 0 4358 0 0 4356 0 0 4274 0 0 4277 0 0 4257 0 0 4306 0 0 4417 0 0 4318 0 0 4363 0 0 4274 0 0 2115 0 0 0 0 0 0 0 0 0 0 0 0 0 0 0 0 0 0 0 0 0 0 0 0 0 0 0 0 0 
0 0 0 0 0 0 0 0 0 0 0 0 0 0 0 0 0 0 0 0 0 0 0 0 0 0 0 0 0 0 2083 0 0 4299 0 0 4179 0 0 4295 0 0 4334 0 0 4366 0 0 4187 0 0 4176 0 0 4193 0 0 4251 0 0 4231 0 0 4365 0 0 4228 0 0 4211 0 0 4138 0 0 4288 0 0 4275 0 0 4241 0 0 4296 0 0 4150 0 0 4343 0 0 4320 0 0 4133 0 0 4264 0 0 4277 0 0 4240 0 0 4289 0 0 4201 0 0 4278 0 0 4247 0 0 4316 0 0 4234 0 0 4219 0 0 4342 0 0 4283 0 0 4209 0 0 4299 0 0 4154 0 0 4248 0 0 4270 0 0 2197 0 0 0 0 0 0 0 0 0 0 0 0 0 0 0 0 0 0 0 0 0 0 0 0 0 0 0 0 0 
0 0 0 0 0 0 0 0 0 0 0 0 0 0 0 0 0 0 0 0 0 0 0 0 0 0 0 0 0 0 2195 0 0 4115 0 0 4331 0 0 4268 0 0 4232 0 0 4217 0 0 4228 0 0 4209 0 0 4262 0 0 4348 0 0 4283 0 0 4313 0 0 4307 0 0 4265 0 0 4342 0 0 4226 0 0 4212 0 0 4219 0 0 4382 0 0 4343 0 0 4203 0 0 4267 0 0 4168 0 0 4368 0 0 4303 0 0 4206 0 0 4259 0 0 4215 0 0 4150 0 0 4236 0 0 4161 0 0 4235 0 0 4326 0 0 4295 0 0 4232 0 0 4267 0 0 4282 0 0 4233 0 0 4274 0 0 4317 0 0 2131 0 0 0 0 0 0 0 0 0 0 0 0 0 0 0 0 0 0 0 0 0 0 0 0 0 0 0 0 0 
0 0 0 0 0 0 0 0 0 0 0 0 0 0 0 0 0 0 0 0 0 0 0 0 0 0 0 0 0 0 2198 0 0 4257 0 0 4116 0 0 4314 0 0 4206 0 0 4255 0 0 4151 0 0 4179 0 0 4310 0 0 4177 0 0 4268 0 0 4184 0 0 4227 0 0 4143 0 0 4214 0 0 4286 0 0 4210 0 0 4242 0 0 4384 0 0 4331 0 0 4191 0 0 4186 0 0 4298 0 0 4245 0 0 4219 0 0 4334 0 0 4353 0 0 4255 0 0 4253 0 0 4221 0 0 4234 0 0 4385 0 0 4286 0 0 4289 0 0 4253 0 0 4217 0 0 4181 0 0 4349 0 0 4163 0 0 4210 0 0 2044 0 0 0 0 0 0 0 0 0 0 0 0 0 0 0 0 0 0 0 0 0 0 0 0 0 0 0 0 0 
0 0 0 0 0 0 0 0 0 0 0 0 0 0 0 0 0 0 0 0 0 0 0 0 0 0 0 0 0 0 2126 0 0 4233 0 0 4266 0 0 4271 0 0 4239 0 0 4198 0 0 4229 0 0 4239 0 0 4324 0 0 4204 0 0 4381 0 0 4289 0 0 4188 0 0 4286 0 0 4203 0 0 4229 0 0 4207 0 0 4213 0 0 4131 0 0 4329 0 0 4363 0 0 4344 0 0 4233 0 0 4281 0 0 4249 0 0 4333 0 0 4196 0 0 4155 0 0 4225 0 0 4137 0 0 4199 0 0 4274 0 0 4142 0 0 4287 0 0 4120 0 0 4249 0 0 4188 0 0 4250 0 0 4168 0 0 4258 0 0 2067 0 0 0 0 0 0 0 0 0 0 0 0 0 0 0 0 0 0 0 0 0 0 0 0 0 0 0 0 0 
0 0 0 0 0 0 0 0 0 0 0 0 0 0 0 0 0 0 0 0 0 0 0 0 0 0 0 0 0 0 2092 0 0 4146 0 0 4195 0 0 4355 0 0 4290 0 0 4274 0 0 4342 0 0 4311 0 0 4284 0 0 4298 0 0 4270 0 0 4426 0 0 4233 0 0 4305 0 0 4184 0 0 4364 0 0 4178 0 0 4136 0 0 4333 0 0 4359 0 0 4298 0 0 4200 0 0 4324 0 0 4245 0 0 4280 0 0 4302 0 0 4181 0 0 4313 0 0 4367 0 0 4271 0 0 4199 0 0 4309 0 0 4314 0 0 4226 0 0 4313 0 0 4273 0 0 4277 0 0 4311 0 0 4306 0 0 4269 0 0 2192 0 0 0 0 0 0 0 0 0 0 0 0 0 0 0 0 0 0 0 0 0 0 0 0 0 0 0 0 0 
0 0 0 0 0 0 0 0 0 0 0 0 0 0 0 0 0 0 0 0 0 0 0 0 0 0 0 0 0 0 2156 0 0 4275 0 0 4273 0 0 4315 0 0 4267 0 0 4310 0 0 4158 0 0 4234 0 0 4163 0 0 4181 0 0 4149 0 0 4270 0 0 4264 0 0 4308 0 0 4333 0 0 4323 0 0 4256 0 0 4142 0 0 4262 0 0 4302 0 0 4239 0 0 4300 0 0 4209 0 0 4171 0 0 4207 0 0 4351 0 0 4298 0 0 4234 0 0 4248 0 0 4116 0 0 4340 0 0 4236 0 0 4123 0 0 4333 0 0 4281 0 0 4229 0 0 4390 0 0 4311 0 0 4205 0 0 4240 0 0 2167 0 0 0 0 0 0 0 0 0 0 0 0 0 0 0 0 0 0 0 0 0 0 0 0 0 0 0 0 0 
0 0 0 0 0 0 0 0 0 0 0 0 0 0 0 0 0 0 0 0 0 0 0 0 0 0 0 0 0 0 2160 0 0 4138 0 0 4369 0 0 4302 0 0 4299 0 0 4184 0 0 4277 0 0 4295 0 0 4224 0 0 4307 0 0 4302 0 0 4300 0 0 4167 0 0 4206 0 0 4194 0 0 4262 0 0 4439 0 0 4325 0 0 4208 0 0 4307 0 0 4198 0 0 4199 0 0 4252 0 0 4254 0 0 4221 0 0 4161 0 0 4170 0 0 4293 0 0 4222 0 0 4326 0 0 4326 0 0 4235 0 0 4260 0 0 4216 0 0 4305 0 0 4305 0 0 4149 0 0 4269 0 0 4192 0 0 4244 0 0 2071 0 0 0 0 0 0 0 0 0 0 0 0 0 0 0 0 0 0 0 0 0 0 0 0 0 0 0 0 0 
0 0 0 0 0 0 0 0 0 0 0 0 0 0 0 0 0 0 0 0 0 0 0 0 0 0 0 0 0 0 2109 0 0 4253 0 0 4178 0 0 4251 0 0 4312 0 0 4185 0 0 4230 0 0 4228 0 0 4290 0 0 4246 0 0 4248 0 0 4182 0 0 4288 0 0 4192 0 0 4359 0 0 4217 0 0 4204 0 0 4183 0 0 4227 0 0 4266 0 0 4319 0 0 4243 0 0 4162 0 0 4274 0 0 4309 0 0 4288 0 0 4197 0 0 4227 0 0 4229 0 0 4221 0 0 4229 0 0 4205 0 0 4219 0 0 4069 0 0 4264 0 0 4169 0 0 4279 0 0 4207 0 0 4166 0 0 4140 0 0 2115 0 0 0 0 0 0 0 0 0 0 0 0 0 0 0 0 0 0 0 0 0 0 0 0 0 0 0 0 0 
0 0 0 0 0 0 0 0 0 0 0 0 0 0 0 0 0 0 0 0 0 0 0 0 0 0 0 0 0 0 2134 0 0 4182 0 0 4175 0 0 4337 0 0 4313 0 0 4168 0 0 4363 0 0 4351 0 0 4265 0 0 4231 0 0 4316 0 0 4204 0 0 4297 0 0 4321 0 0 4239 0 0 4208 0 0 4260 0 0 4225 0 0 4194 0 0 4323 0 0 4268 0 0 4177 0 0 4344 0 0 4346 0 0 4342 0 0 4139 0 0 4347 0 0 4231 0 0 4186 0 0 4333 0 0 4229 0 0 4251 0 0 4302 0 0 4174 0 0 4205 0 0 4253 0 0 4180 0 0 4270 0 0 4338 0 0 4187 0 0 2034 0 0 0 0 0 0 0 0 0 0 0 0 0 0 0 0 0 0 0 0 0 0 0 0 0 0 0 0 0 
0 0 0 0 0 0 0 0 0 0 0 0 0 0 0 0 0 0 0 0 0 0 0 0 0 0 0 0 0 0 2130 0 0 4288 0 0 4266 0 0 4249 0 0 4347 0 0 4186 0 0 4287 0 0 4214 0 0 4288 0 0 4336 0 0 4261 0 0 4258 0 0 4272 0 0 4210 0 0 4335 0 0 4358 0 0 4221 0 0 4374 0 0 4397 0 0 4358 0 0 4242 0 0 4275 0 0 4308 0 0 4242 0 0 4190 0 0 4248 0 0 4220 0 0 4212 0 0 4227 0 0 4277 0 0 4322 0 0 4198 0 0 4298 0 0 4264 0 0 4181 0 0 4382 0 0 4203 0 0 4184 0 0 4161 0 0 4225 0 0 2081 0 0 0 0 0 0 0 0 0 0 0 0 0 0 0 0 0 0 0 0 0 0 0 0 0 0 0 0 0 
0 0 0 0 0 0 0 0 0 0 0 0 0 0 0 0 0 0 0 0 0 0 0 0 0 0 0 0 0 0 2094 0 0 4304 0 0 4291 0 0 4236 0 0 4208 0 0 4211 0 0 4209 0 0 4253 0 0 4271 0 0 4169 0 0 4272 0 0 4188 0 0 4141 0 0 4394 0 0 4317 0 0 4168 0 0 4231 0 0 4286 0 0 4194 0 0 4311 0 0 4325 0 0 4262 0 0 4182 0 0 4238 0 0 4225 0 0 4211 0 0 4343 0 0 4383 0 0 4278 0 0 4276 0 0 4303 0 0 4242 0 0 4126 0 0 4218 0 0 4214 0 0 4275 0 0 4230 0 0 4307 0 0 4145 0 0 4196 0 0 2077 0 0 0 0 0 0 0 0 0 0 0 0 0 0 0 0 0 0 0 0 0 0 0 0 0 0 0 0 0 
0 0 0 0 0 0 0 0 0 0 0 0 0 0 0 0 0 0 0 0 0 0 0 0 0 0 0 0 0 0 1006 0 0 2189 0 0 2147 0 0 2120 0 0 2145 0 0 2198 0 0 2160 0 0 2063 0 0 2110 0 0 2150 0 0 2056 0 0 2071 0 0 2153 0 0 2087 0 0 2149 0 0 2077 0 0 2146 0 0 2098 0 0 2102 0 0 2159 0 0 2080 0 0 2199 0 0 2077 0 0 2125 0 0 2167 0 0 2100 0 0 2160 0 0 2183 0 0 2094 0 0 2075 0 0 2155 0 0 2134 0 0 2088 0 0 2081 0 0 2177 0 0 2136 0 0 2092 0 0 2098 0 0 2187 0 0 2185 0 0 1081 0 0 0 0 0 0 0 0 0 0 0 0 0 0 0 0 0 0 0 0 0 0 0 0 0 0 0 0 0 
0 0 0 0 0 0 0 0 0 0 0 0 0 0 0 0 0 0 0 0 0 0 0 0 0 0 0 0 0 0 0 0 0 0 0 0 0 0 0 0 0 0 0 0 0 0 0 0 0 0 0 0 0 0 0 0 0 0 0 0 0 0 0 0 0 0 0 0 0 0 0 0 0 0 0 0 0 0 0 0 0 0 0 0 0 0 0 0 0 0 0 0 0 0 0 0 0 0 0 0 0 0 0 0 0 0 0 0 0 0 0 0 0 0 0 0 0 0 0 0 0 0 0 0 0 0 0 0 0 0 0 0 0 0 0 0 0 0 0 0 0 0 0 0 0 0 0 0 0 0 0 0 0 0 0 0 0 0 0 0 0 0 0 0 0 0 0 0 0 0 0 0 0 0 0 0 0 0 0 0 
0 0 0 0 0 0 0 0 0 0 0 0 0 0 0 0 0 0 0 0 0 0 0 0 0 0 0 0 0 0 0 0 0 0 0 0 0 0 0 0 0 0 0 0 0 0 0 0 0 0 0 0 0 0 0 0 0 0 0 0 0 0 0 0 0 0 0 0 0 0 0 0 0 0 0 0 0 0 0 0 0 0 0 0 0 0 0 0 0 0 0 0 0 0 0 0 0 0 0 0 0 0 0 0 0 0 0 0 0 0 0 0 0 0 0 0 0 0 0 0 0 0 0 0 0 0 0 0 0 0 0 0 0 0 0 0 0 0 0 0 0 0 0 0 0 0 0 0 0 0 0 0 0 0 0 0 0 0 0 0 0 0 0 0 0 0 0 0 0 0 0 0 0 0 0 0 0 0 0 0 
0 0 0 0 0 0 0 0 0 0 0 0 0 0 0 0 0 0 0 0 0 0 0 0 0 0 0 0 0 0 0 0 0 0 0 0 0 0 0 0 0 0 0 0 0 0 0 0 0 0 0 0 0 0 0 0 0 0 0 0 0 0 0 0 0 0 0 0 0 0 0 0 0 0 0 0 0 0 0 0 0 0 0 0 0 0 0 0 0 0 0 0 0 0 0 0 0 0 0 0 0 0 0 0 0 0 0 0 0 0 0 0 0 0 0 0 0 0 0 0 0 0 0 0 0 0 0 0 0 0 0 0 0 0 0 0 0 0 0 0 0 0 0 0 0 0 0 0 0 0 0 0 0 0 0 0 0 0 0 0 0 0 0 0 0 0 0 0 0 0 0 0 0 0 0 0 0 0 0 0 
0 0 0 0 0 0 0 0 0 0 0 0 0 0 0 0 0 0 0 0 0 0 0 0 0 0 0 0 0 0 0 0 0 0 0 0 0 0 0 0 0 0 0 0 0 0 0 0 0 0 0 0 0 0 0 0 0 0 0 0 0 0 0 0 0 0 0 0 0 0 0 0 0 0 0 0 0 0 0 0 0 0 0 0 0 0 0 0 0 0 0 0 0 0 0 0 0 0 0 0 0 0 0 0 0 0 0 0 0 0 0 0 0 0 0 0 0 0 0 0 0 0 0 0 0 0 0 0 0 0 0 0 0 0 0 0 0 0 0 0 0 0 0 0 0 0 0 0 0 0 0 0 0 0 0 0 0 0 0 0 0 0 0 0 0 0 0 0 0 0 0 0 0 0 0 0 0 0 0 0 
0 0 0 0 0 0 0 0 0 0 0 0 0 0 0 0 0 0 0 0 0 0 0 0 0 0 0 0 0 0 0 0 0 0 0 0 0 0 0 0 0 0 0 0 0 0 0 0 0 0 0 0 0 0 0 0 0 0 0 0 0 0 0 0 0 0 0 0 0 0 0 0 0 0 0 0 0 0 0 0 0 0 0 0 0 0 0 0 0 0 0 0 0 0 0 0 0 0 0 0 0 0 0 0 0 0 0 0 0 0 0 0 0 0 0 0 0 0 0 0 0 0 0 0 0 0 0 0 0 0 0 0 0 0 0 0 0 0 0 0 0 0 0 0 0 0 0 0 0 0 0 0 0 0 0 0 0 0 0 0 0 0 0 0 0 0 0 0 0 0 0 0 0 0 0 0 0 0 0 0 
0 0 0 0 0 0 0 0 0 0 0 0 0 0 0 0 0 0 0 0 0 0 0 0 0 0 0 0 0 0 0 0 0 0 0 0 0 0 0 0 0 0 0 0 0 0 0 0 0 0 0 0 0 0 0 0 0 0 0 0 0 0 0 0 0 0 0 0 0 0 0 0 0 0 0 0 0 0 0 0 0 0 0 0 0 0 0 0 0 0 0 0 0 0 0 0 0 0 0 0 0 0 0 0 0 0 0 0 0 0 0 0 0 0 0 0 0 0 0 0 0 0 0 0 0 0 0 0 0 0 0 0 0 0 0 0 0 0 0 0 0 0 0 0 0 0 0 0 0 0 0 0 0 0 0 0 0 0 0 0 0 0 0 0 0 0 0 0 0 0 0 0 0 0 0 0 0 0 0 0 
0 0 0 0 0 0 0 0 0 0 0 0 0 0 0 0 0 0 0 0 0 0 0 0 0 0 0 0 0 0 0 0 0 0 0 0 0 0 0 0 0 0 0 0 0 0 0 0 0 0 0 0 0 0 0 0 0 0 0 0 0 0 0 0 0 0 0 0 0 0 0 0 0 0 0 0 0 0 0 0 0 0 0 0 0 0 0 0 0 0 0 0 0 0 0 0 0 0 0 0 0 0 0 0 0 0 0 0 0 0 0 0 0 0 0 0 0 0 0 0 0 0 0 0 0 0 0 0 0 0 0 0 0 0 0 0 0 0 0 0 0 0 0 0 0 0 0 0 0 0 0 0 0 0 0 0 0 0 0 0 0 0 0 0 0 0 0 0 0 0 0 0 0 0 0 0 0 0 0 0 
0 0 0 0 0 0 0 0 0 0 0 0 0 0 0 0 0 0 0 0 0 0 0 0 0 0 0 0 0 0 0 0 0 0 0 0 0 0 0 0 0 0 0 0 0 0 0 0 0 0 0 0 0 0 0 0 0 0 0 0 0 0 0 0 0 0 0 0 0 0 0 0 0 0 0 0 0 0 0 0 0 0 0 0 0 0 0 0 0 0 0 0 0 0 0 0 0 0 0 0 0 0 0 0 0 0 0 0 0 0 0 0 0 0 0 0 0 0 0 0 0 0 0 0 0 0 0 0 0 0 0 0 0 0 0 0 0 0 0 0 0 0 0 0 0 0 0 0 0 0 0 0 0 0 0 0 0 0 0 0 0 0 0 0 0 0 0 0 0 0 0 0 0 0 0 0 0 0 0 0 
0 0 0 0 0 0 0 0 0 0 0 0 0 0 0 0 0 0 0 0 0 0 0 0 0 0 0 0 0 0 0 0 0 0 0 0 0 0 0 0 0 0 0 0 0 0 0 0 0 0 0 0 0 0 0 0 0 0 0 0 0 0 0 0 0 0 0 0 0 0 0 0 0 0 0 0 0 0 0 0 0 0 0 0 0 0 0 0 0 0 0 0 0 0 0 0 0 0 0 0 0 0 0 0 0 0 0 0 0 0 0 0 0 0 0 0 0 0 0 0 0 0 0 0 0 0 0 0 0 0 0 0 0 0 0 0 0 0 0 0 0 0 0 0 0 0 0 0 0 0 0 0 0 0 0 0 0 0 0 0 0 0 0 0 0 0 0 0 0 0 0 0 0 0 0 0 0 0 0 0 
