P3
# This is a dose file slice at depth 16 of 100
60 60
# now we give the maximum value of the RGB coordinates.
32965
0 0 0 1 0 0 2 0 0 1 0 0 1 0 0 3 0 0 4 0 0 2 0 0 5 0 0 1 0 0 3 0 0 9 0 0 5 0 0 4 0 0 6 0 0 7 0 0 5 0 0 8 0 0 9 0 0 6 0 0 8 0 0 4 0 0 11 0 0 7 0 0 5 0 0 6 0 0 4 0 0 7 0 0 7 0 0 3 0 0 6 0 0 5 0 0 12 0 0 5 0 0 4 0 0 5 0 0 7 0 0 10 0 0 4 0 0 9 0 0 4 0 0 3 0 0 5 0 0 6 0 0 4 0 0 6 0 0 4 0 0 0 0 0 2 0 0 6 0 0 4 0 0 1 0 0 5 0 0 3 0 0 3 0 0 1 0 0 4 0 0 4 0 0 7 0 0 1 0 0 
3 0 0 7 0 0 5 0 0 3 0 0 2 0 0 1 0 0 7 0 0 5 0 0 9 0 0 11 0 0 4 0 0 10 0 0 12 0 0 12 0 0 12 0 0 9 0 0 17 0 0 15 0 0 12 0 0 12 0 0 19 0 0 12 0 0 21 0 0 16 0 0 16 0 0 10 0 0 9 0 0 14 0 0 13 0 0 13 0 0 10 0 0 14 0 0 25 0 0 11 0 0 12 0 0 17 0 0 10 0 0 14 0 0 9 0 0 18 0 0 8 0 0 9 0 0 12 0 0 11 0 0 11 0 0 10 0 0 8 0 0 7 0 0 10 0 0 9 0 0 8 0 0 6 0 0 11 0 0 8 0 0 10 0 0 6 0 0 7 0 0 10 0 0 8 0 0 3 0 0 
3 0 0 5 0 0 5 0 0 5 0 0 1 0 0 2 0 0 5 0 0 8 0 0 8 0 0 9 0 0 11 0 0 8 0 0 9 0 0 9 0 0 13 0 0 12 0 0 15 0 0 12 0 0 10 0 0 12 0 0 16 0 0 16 0 0 16 0 0 12 0 0 16 0 0 9 0 0 12 0 0 16 0 0 17 0 0 12 0 0 14 0 0 18 0 0 21 0 0 20 0 0 23 0 0 15 0 0 16 0 0 12 0 0 21 0 0 13 0 0 12 0 0 7 0 0 16 0 0 16 0 0 17 0 0 8 0 0 8 0 0 7 0 0 8 0 0 8 0 0 6 0 0 8 0 0 11 0 0 8 0 0 7 0 0 6 0 0 7 0 0 5 0 0 7 0 0 8 0 0 
1 0 0 11 0 0 2 0 0 9 0 0 11 0 0 3 0 0 1 0 0 8 0 0 8 0 0 7 0 0 6 0 0 11 0 0 7 0 0 13 0 0 15 0 0 10 0 0 17 0 0 12 0 0 13 0 0 12 0 0 12 0 0 15 0 0 16 0 0 21 0 0 15 0 0 9 0 0 12 0 0 22 0 0 19 0 0 23 0 0 13 0 0 21 0 0 20 0 0 22 0 0 18 0 0 17 0 0 21 0 0 16 0 0 20 0 0 13 0 0 17 0 0 12 0 0 14 0 0 18 0 0 12 0 0 11 0 0 7 0 0 9 0 0 11 0 0 8 0 0 10 0 0 9 0 0 12 0 0 11 0 0 9 0 0 4 0 0 4 0 0 9 0 0 10 0 0 10 0 0 
1 0 0 3 0 0 12 0 0 6 0 0 8 0 0 6 0 0 4 0 0 9 0 0 9 0 0 11 0 0 5 0 0 11 0 0 10 0 0 14 0 0 15 0 0 9 0 0 22 0 0 18 0 0 15 0 0 18 0 0 15 0 0 13 0 0 23 0 0 14 0 0 23 0 0 12 0 0 18 0 0 24 0 0 30 0 0 31 0 0 17 0 0 26 0 0 18 0 0 21 0 0 24 0 0 18 0 0 17 0 0 19 0 0 15 0 0 20 0 0 17 0 0 10 0 0 16 0 0 20 0 0 20 0 0 16 0 0 15 0 0 9 0 0 10 0 0 15 0 0 10 0 0 13 0 0 12 0 0 14 0 0 12 0 0 1 0 0 8 0 0 12 0 0 12 0 0 7 0 0 
2 0 0 5 0 0 8 0 0 12 0 0 12 0 0 11 0 0 6 0 0 7 0 0 14 0 0 10 0 0 15 0 0 11 0 0 15 0 0 17 0 0 11 0 0 15 0 0 23 0 0 18 0 0 16 0 0 27 0 0 19 0 0 19 0 0 25 0 0 19 0 0 19 0 0 17 0 0 22 0 0 23 0 0 24 0 0 32 0 0 26 0 0 31 0 0 22 0 0 26 0 0 29 0 0 16 0 0 24 0 0 17 0 0 14 0 0 23 0 0 15 0 0 16 0 0 16 0 0 27 0 0 13 0 0 16 0 0 20 0 0 19 0 0 9 0 0 13 0 0 9 0 0 12 0 0 13 0 0 18 0 0 7 0 0 8 0 0 12 0 0 12 0 0 10 0 0 3 0 0 
5 0 0 9 0 0 10 0 0 13 0 0 10 0 0 11 0 0 6 0 0 8 0 0 9 0 0 17 0 0 20 0 0 18 0 0 21 0 0 28 0 0 24 0 0 17 0 0 23 0 0 24 0 0 32 0 0 34 0 0 16 0 0 18 0 0 28 0 0 25 0 0 17 0 0 25 0 0 24 0 0 24 0 0 24 0 0 31 0 0 38 0 0 27 0 0 26 0 0 27 0 0 26 0 0 26 0 0 30 0 0 24 0 0 25 0 0 20 0 0 33 0 0 22 0 0 21 0 0 21 0 0 15 0 0 24 0 0 18 0 0 17 0 0 13 0 0 15 0 0 16 0 0 12 0 0 19 0 0 8 0 0 14 0 0 11 0 0 12 0 0 14 0 0 5 0 0 4 0 0 
4 0 0 6 0 0 8 0 0 18 0 0 19 0 0 9 0 0 12 0 0 10 0 0 10 0 0 11 0 0 17 0 0 23 0 0 22 0 0 28 0 0 31 0 0 36 0 0 21 0 0 24 0 0 27 0 0 32 0 0 33 0 0 21 0 0 29 0 0 36 0 0 35 0 0 26 0 0 22 0 0 33 0 0 35 0 0 42 0 0 36 0 0 34 0 0 35 0 0 29 0 0 37 0 0 35 0 0 35 0 0 24 0 0 28 0 0 28 0 0 26 0 0 35 0 0 24 0 0 27 0 0 35 0 0 27 0 0 19 0 0 21 0 0 17 0 0 20 0 0 23 0 0 16 0 0 14 0 0 12 0 0 7 0 0 13 0 0 13 0 0 11 0 0 6 0 0 10 0 0 
3 0 0 11 0 0 8 0 0 14 0 0 16 0 0 12 0 0 13 0 0 13 0 0 10 0 0 17 0 0 22 0 0 26 0 0 30 0 0 31 0 0 41 0 0 38 0 0 40 0 0 24 0 0 35 0 0 40 0 0 37 0 0 43 0 0 41 0 0 45 0 0 46 0 0 51 0 0 38 0 0 54 0 0 37 0 0 40 0 0 37 0 0 44 0 0 42 0 0 45 0 0 43 0 0 33 0 0 57 0 0 34 0 0 24 0 0 30 0 0 41 0 0 40 0 0 37 0 0 32 0 0 43 0 0 39 0 0 39 0 0 26 0 0 29 0 0 29 0 0 24 0 0 16 0 0 21 0 0 14 0 0 16 0 0 21 0 0 16 0 0 3 0 0 6 0 0 6 0 0 
3 0 0 9 0 0 10 0 0 3 0 0 12 0 0 13 0 0 15 0 0 16 0 0 19 0 0 19 0 0 85 0 0 141 0 0 128 0 0 157 0 0 147 0 0 160 0 0 175 0 0 182 0 0 156 0 0 158 0 0 155 0 0 152 0 0 179 0 0 142 0 0 162 0 0 161 0 0 168 0 0 168 0 0 155 0 0 174 0 0 148 0 0 168 0 0 152 0 0 162 0 0 163 0 0 169 0 0 167 0 0 180 0 0 148 0 0 151 0 0 171 0 0 160 0 0 175 0 0 175 0 0 171 0 0 163 0 0 163 0 0 165 0 0 157 0 0 135 0 0 84 0 0 30 0 0 25 0 0 20 0 0 19 0 0 9 0 0 9 0 0 7 0 0 6 0 0 7 0 0 
3 0 0 6 0 0 7 0 0 8 0 0 15 0 0 14 0 0 16 0 0 21 0 0 28 0 0 87 0 0 5902 0 0 11384 0 0 11581 0 0 11615 0 0 11567 0 0 11405 0 0 11365 0 0 11569 0 0 11587 0 0 11502 0 0 11450 0 0 11489 0 0 11567 0 0 11645 0 0 11541 0 0 11350 0 0 11520 0 0 11701 0 0 11537 0 0 11447 0 0 11548 0 0 11729 0 0 11711 0 0 11682 0 0 11496 0 0 11593 0 0 11719 0 0 11527 0 0 11668 0 0 11621 0 0 11593 0 0 11553 0 0 11581 0 0 11561 0 0 11733 0 0 11399 0 0 11519 0 0 11550 0 0 11591 0 0 11418 0 0 5736 0 0 96 0 0 30 0 0 25 0 0 17 0 0 14 0 0 18 0 0 12 0 0 16 0 0 10 0 0 
5 0 0 11 0 0 9 0 0 9 0 0 11 0 0 18 0 0 22 0 0 20 0 0 27 0 0 133 0 0 11488 0 0 22884 0 0 22931 0 0 23190 0 0 23020 0 0 23075 0 0 23054 0 0 22976 0 0 22990 0 0 22991 0 0 23155 0 0 22926 0 0 22950 0 0 23158 0 0 22730 0 0 23044 0 0 23028 0 0 23114 0 0 22798 0 0 23045 0 0 23021 0 0 22965 0 0 22854 0 0 22846 0 0 22825 0 0 22982 0 0 22858 0 0 22841 0 0 23213 0 0 22936 0 0 23021 0 0 23052 0 0 23098 0 0 23062 0 0 23195 0 0 22927 0 0 22849 0 0 23028 0 0 23249 0 0 22813 0 0 11582 0 0 145 0 0 27 0 0 23 0 0 16 0 0 13 0 0 8 0 0 11 0 0 8 0 0 7 0 0 
3 0 0 9 0 0 12 0 0 13 0 0 12 0 0 13 0 0 13 0 0 24 0 0 31 0 0 141 0 0 11439 0 0 22864 0 0 23090 0 0 23100 0 0 23033 0 0 23206 0 0 23280 0 0 23134 0 0 22999 0 0 23210 0 0 23043 0 0 23217 0 0 23347 0 0 23158 0 0 23082 0 0 23073 0 0 23212 0 0 23258 0 0 23050 0 0 23218 0 0 23338 0 0 23371 0 0 23043 0 0 23039 0 0 23133 0 0 23009 0 0 23176 0 0 23079 0 0 23163 0 0 23010 0 0 23219 0 0 22882 0 0 23079 0 0 23055 0 0 23121 0 0 22720 0 0 22951 0 0 23307 0 0 23073 0 0 23054 0 0 11562 0 0 144 0 0 32 0 0 18 0 0 16 0 0 12 0 0 14 0 0 11 0 0 12 0 0 12 0 0 
6 0 0 8 0 0 10 0 0 15 0 0 11 0 0 9 0 0 11 0 0 17 0 0 28 0 0 156 0 0 11363 0 0 23135 0 0 23075 0 0 23096 0 0 23187 0 0 23264 0 0 23282 0 0 23183 0 0 23153 0 0 23314 0 0 23058 0 0 23058 0 0 23292 0 0 23025 0 0 23128 0 0 23161 0 0 22871 0 0 23490 0 0 23277 0 0 23201 0 0 23303 0 0 23070 0 0 22957 0 0 23090 0 0 23110 0 0 22926 0 0 22987 0 0 23131 0 0 23058 0 0 23093 0 0 23091 0 0 23028 0 0 23096 0 0 23103 0 0 23181 0 0 23131 0 0 22966 0 0 23150 0 0 23101 0 0 22865 0 0 11760 0 0 155 0 0 38 0 0 23 0 0 15 0 0 15 0 0 15 0 0 10 0 0 9 0 0 14 0 0 
6 0 0 12 0 0 17 0 0 21 0 0 30 0 0 25 0 0 22 0 0 32 0 0 27 0 0 147 0 0 11572 0 0 22940 0 0 23098 0 0 23129 0 0 23142 0 0 22905 0 0 23466 0 0 23131 0 0 23048 0 0 23075 0 0 23195 0 0 23320 0 0 23145 0 0 22961 0 0 23141 0 0 23167 0 0 23114 0 0 22980 0 0 23084 0 0 22923 0 0 23037 0 0 22994 0 0 23313 0 0 23126 0 0 23192 0 0 23179 0 0 23175 0 0 23163 0 0 23001 0 0 23215 0 0 23266 0 0 23354 0 0 23245 0 0 23166 0 0 23210 0 0 23200 0 0 23005 0 0 23362 0 0 23000 0 0 23020 0 0 11571 0 0 163 0 0 44 0 0 32 0 0 24 0 0 27 0 0 21 0 0 18 0 0 15 0 0 13 0 0 
3 0 0 8 0 0 9 0 0 18 0 0 25 0 0 33 0 0 27 0 0 28 0 0 34 0 0 137 0 0 11714 0 0 22876 0 0 22943 0 0 23017 0 0 22983 0 0 23165 0 0 22949 0 0 22923 0 0 23168 0 0 23161 0 0 23171 0 0 23422 0 0 22995 0 0 23228 0 0 23254 0 0 23235 0 0 23044 0 0 23058 0 0 22957 0 0 23170 0 0 23161 0 0 23158 0 0 23112 0 0 23181 0 0 23165 0 0 23210 0 0 23196 0 0 23056 0 0 23119 0 0 22942 0 0 23087 0 0 23242 0 0 23137 0 0 23408 0 0 23315 0 0 23128 0 0 23106 0 0 22993 0 0 23634 0 0 23042 0 0 11534 0 0 161 0 0 46 0 0 23 0 0 17 0 0 18 0 0 22 0 0 13 0 0 11 0 0 8 0 0 
9 0 0 15 0 0 13 0 0 16 0 0 15 0 0 16 0 0 23 0 0 27 0 0 35 0 0 171 0 0 11696 0 0 22975 0 0 23112 0 0 23247 0 0 23232 0 0 23057 0 0 23239 0 0 23225 0 0 23113 0 0 23342 0 0 23107 0 0 23277 0 0 22943 0 0 23073 0 0 23140 0 0 22974 0 0 22941 0 0 23013 0 0 23450 0 0 22957 0 0 23139 0 0 23079 0 0 23363 0 0 23053 0 0 23141 0 0 23264 0 0 22896 0 0 23054 0 0 23200 0 0 23315 0 0 23251 0 0 23170 0 0 23264 0 0 23035 0 0 23172 0 0 22971 0 0 23226 0 0 23019 0 0 23325 0 0 22999 0 0 11594 0 0 154 0 0 31 0 0 23 0 0 29 0 0 26 0 0 20 0 0 21 0 0 14 0 0 13 0 0 
3 0 0 10 0 0 12 0 0 13 0 0 14 0 0 18 0 0 24 0 0 31 0 0 37 0 0 158 0 0 11457 0 0 22916 0 0 23101 0 0 22921 0 0 23356 0 0 23047 0 0 23154 0 0 23097 0 0 23131 0 0 22986 0 0 23126 0 0 23125 0 0 23324 0 0 23356 0 0 22877 0 0 23234 0 0 23246 0 0 23226 0 0 22993 0 0 23179 0 0 23304 0 0 23256 0 0 22988 0 0 23233 0 0 23034 0 0 23099 0 0 23059 0 0 23065 0 0 23213 0 0 23096 0 0 23052 0 0 23054 0 0 22942 0 0 23335 0 0 23114 0 0 23151 0 0 23083 0 0 23039 0 0 23262 0 0 22994 0 0 11585 0 0 176 0 0 33 0 0 28 0 0 31 0 0 25 0 0 19 0 0 20 0 0 18 0 0 14 0 0 
5 0 0 6 0 0 12 0 0 15 0 0 19 0 0 20 0 0 25 0 0 30 0 0 38 0 0 142 0 0 11610 0 0 23060 0 0 23214 0 0 23243 0 0 23022 0 0 23036 0 0 22958 0 0 23085 0 0 23157 0 0 23081 0 0 23109 0 0 23098 0 0 23109 0 0 23189 0 0 23135 0 0 23212 0 0 23315 0 0 23238 0 0 22959 0 0 23268 0 0 23501 0 0 23203 0 0 23157 0 0 23297 0 0 22912 0 0 23265 0 0 23143 0 0 23200 0 0 23035 0 0 23157 0 0 23042 0 0 23148 0 0 23097 0 0 23185 0 0 22897 0 0 23039 0 0 22877 0 0 23231 0 0 23166 0 0 22998 0 0 11766 0 0 153 0 0 35 0 0 26 0 0 24 0 0 26 0 0 24 0 0 22 0 0 12 0 0 19 0 0 
3 0 0 12 0 0 12 0 0 15 0 0 19 0 0 24 0 0 30 0 0 32 0 0 35 0 0 165 0 0 11597 0 0 23088 0 0 23074 0 0 23456 0 0 23191 0 0 23139 0 0 23145 0 0 23082 0 0 23286 0 0 23135 0 0 23153 0 0 23277 0 0 23258 0 0 23281 0 0 22890 0 0 23116 0 0 23390 0 0 23177 0 0 23174 0 0 23357 0 0 23217 0 0 22890 0 0 23079 0 0 23355 0 0 23239 0 0 22865 0 0 22908 0 0 23161 0 0 23289 0 0 22944 0 0 23004 0 0 23359 0 0 23342 0 0 23330 0 0 23099 0 0 23203 0 0 23097 0 0 23022 0 0 22976 0 0 23187 0 0 11646 0 0 181 0 0 31 0 0 25 0 0 22 0 0 26 0 0 21 0 0 16 0 0 19 0 0 13 0 0 
7 0 0 14 0 0 16 0 0 12 0 0 13 0 0 14 0 0 28 0 0 33 0 0 42 0 0 148 0 0 11450 0 0 23175 0 0 23151 0 0 23062 0 0 23197 0 0 23011 0 0 23212 0 0 23283 0 0 22971 0 0 23116 0 0 23086 0 0 23165 0 0 23109 0 0 23205 0 0 23211 0 0 23200 0 0 23314 0 0 23087 0 0 23124 0 0 23140 0 0 23031 0 0 22923 0 0 23149 0 0 23209 0 0 23357 0 0 23203 0 0 23065 0 0 22941 0 0 23138 0 0 23066 0 0 22998 0 0 23300 0 0 23263 0 0 23166 0 0 22998 0 0 23165 0 0 23188 0 0 22724 0 0 23019 0 0 23023 0 0 11655 0 0 177 0 0 37 0 0 25 0 0 17 0 0 21 0 0 25 0 0 23 0 0 13 0 0 15 0 0 
3 0 0 8 0 0 12 0 0 18 0 0 20 0 0 19 0 0 21 0 0 31 0 0 48 0 0 152 0 0 11746 0 0 22949 0 0 23120 0 0 23084 0 0 23141 0 0 23072 0 0 23188 0 0 23150 0 0 23107 0 0 23091 0 0 23141 0 0 23035 0 0 23272 0 0 23187 0 0 23306 0 0 23118 0 0 23134 0 0 23538 0 0 23137 0 0 23250 0 0 23137 0 0 23164 0 0 23204 0 0 22926 0 0 23312 0 0 23033 0 0 23215 0 0 23348 0 0 23139 0 0 23130 0 0 23361 0 0 23126 0 0 22824 0 0 23329 0 0 22995 0 0 23436 0 0 23105 0 0 23030 0 0 22896 0 0 23059 0 0 11497 0 0 158 0 0 41 0 0 35 0 0 24 0 0 21 0 0 17 0 0 17 0 0 20 0 0 11 0 0 
7 0 0 12 0 0 13 0 0 14 0 0 24 0 0 20 0 0 24 0 0 26 0 0 33 0 0 148 0 0 11535 0 0 23056 0 0 22915 0 0 23030 0 0 23127 0 0 23149 0 0 22972 0 0 23113 0 0 23176 0 0 23261 0 0 22927 0 0 23076 0 0 23261 0 0 22969 0 0 23150 0 0 23261 0 0 23189 0 0 23181 0 0 22984 0 0 23196 0 0 22986 0 0 22871 0 0 23189 0 0 23233 0 0 23376 0 0 23316 0 0 23175 0 0 23042 0 0 22945 0 0 23162 0 0 23222 0 0 23310 0 0 23257 0 0 23023 0 0 23226 0 0 23133 0 0 23081 0 0 23076 0 0 23147 0 0 22906 0 0 11481 0 0 159 0 0 36 0 0 32 0 0 21 0 0 21 0 0 18 0 0 12 0 0 9 0 0 9 0 0 
3 0 0 7 0 0 12 0 0 16 0 0 19 0 0 22 0 0 34 0 0 38 0 0 34 0 0 150 0 0 11566 0 0 22986 0 0 23197 0 0 23054 0 0 23089 0 0 23044 0 0 23296 0 0 23306 0 0 23060 0 0 22987 0 0 23149 0 0 23032 0 0 23287 0 0 22934 0 0 23138 0 0 23180 0 0 23010 0 0 23204 0 0 23229 0 0 23060 0 0 22937 0 0 23132 0 0 23033 0 0 22951 0 0 23168 0 0 23143 0 0 23036 0 0 23211 0 0 23088 0 0 22967 0 0 23203 0 0 23196 0 0 23472 0 0 23173 0 0 23180 0 0 23007 0 0 23028 0 0 22981 0 0 23136 0 0 22748 0 0 11644 0 0 162 0 0 31 0 0 23 0 0 20 0 0 27 0 0 22 0 0 22 0 0 14 0 0 13 0 0 
5 0 0 8 0 0 8 0 0 10 0 0 12 0 0 13 0 0 15 0 0 36 0 0 41 0 0 160 0 0 11441 0 0 23006 0 0 23248 0 0 22924 0 0 23011 0 0 23102 0 0 23153 0 0 23107 0 0 23155 0 0 23092 0 0 23043 0 0 23216 0 0 23357 0 0 23071 0 0 23149 0 0 23335 0 0 23208 0 0 22985 0 0 23086 0 0 23309 0 0 23316 0 0 23129 0 0 23169 0 0 23102 0 0 23289 0 0 23038 0 0 23198 0 0 23089 0 0 23364 0 0 22932 0 0 22622 0 0 23000 0 0 23126 0 0 22957 0 0 23058 0 0 23070 0 0 23137 0 0 22970 0 0 23216 0 0 22830 0 0 11445 0 0 169 0 0 38 0 0 40 0 0 28 0 0 27 0 0 25 0 0 19 0 0 14 0 0 11 0 0 
4 0 0 13 0 0 15 0 0 11 0 0 14 0 0 17 0 0 23 0 0 35 0 0 53 0 0 162 0 0 11738 0 0 22835 0 0 23266 0 0 23180 0 0 23239 0 0 23071 0 0 23016 0 0 23221 0 0 23339 0 0 23133 0 0 22895 0 0 23203 0 0 23420 0 0 23315 0 0 23285 0 0 22971 0 0 23450 0 0 23209 0 0 23300 0 0 23399 0 0 23141 0 0 22798 0 0 23009 0 0 23250 0 0 23086 0 0 22967 0 0 23284 0 0 23048 0 0 23140 0 0 23176 0 0 23229 0 0 23165 0 0 23138 0 0 23254 0 0 23182 0 0 23093 0 0 23151 0 0 23064 0 0 23212 0 0 22898 0 0 11663 0 0 129 0 0 46 0 0 33 0 0 28 0 0 20 0 0 19 0 0 18 0 0 15 0 0 11 0 0 
6 0 0 13 0 0 13 0 0 16 0 0 18 0 0 22 0 0 21 0 0 29 0 0 39 0 0 157 0 0 11545 0 0 23225 0 0 23186 0 0 22927 0 0 22910 0 0 23145 0 0 23487 0 0 23179 0 0 23320 0 0 23372 0 0 23183 0 0 23086 0 0 23126 0 0 23206 0 0 22923 0 0 23220 0 0 23180 0 0 23212 0 0 22975 0 0 23020 0 0 23238 0 0 23241 0 0 22959 0 0 23009 0 0 23182 0 0 23132 0 0 23054 0 0 22984 0 0 22977 0 0 23209 0 0 23246 0 0 23336 0 0 23215 0 0 23269 0 0 23117 0 0 23105 0 0 23127 0 0 22926 0 0 23430 0 0 23027 0 0 11539 0 0 144 0 0 33 0 0 41 0 0 25 0 0 25 0 0 18 0 0 17 0 0 17 0 0 14 0 0 
8 0 0 12 0 0 17 0 0 23 0 0 19 0 0 25 0 0 26 0 0 31 0 0 38 0 0 165 0 0 11336 0 0 23084 0 0 23160 0 0 23073 0 0 22878 0 0 23011 0 0 23028 0 0 23161 0 0 22972 0 0 23198 0 0 23205 0 0 23165 0 0 23260 0 0 23171 0 0 23022 0 0 23205 0 0 22996 0 0 22961 0 0 23159 0 0 23292 0 0 23340 0 0 23169 0 0 23173 0 0 23002 0 0 23279 0 0 23235 0 0 22935 0 0 23069 0 0 22910 0 0 23126 0 0 23195 0 0 23179 0 0 23074 0 0 22797 0 0 23224 0 0 23042 0 0 23098 0 0 23213 0 0 23018 0 0 22996 0 0 11493 0 0 145 0 0 25 0 0 30 0 0 25 0 0 14 0 0 15 0 0 24 0 0 23 0 0 11 0 0 
3 0 0 12 0 0 15 0 0 15 0 0 20 0 0 17 0 0 23 0 0 25 0 0 47 0 0 157 0 0 11566 0 0 22949 0 0 23397 0 0 23190 0 0 23144 0 0 22955 0 0 23369 0 0 23250 0 0 23179 0 0 23086 0 0 23003 0 0 22987 0 0 22905 0 0 23151 0 0 23123 0 0 23167 0 0 23103 0 0 23035 0 0 23068 0 0 23162 0 0 23262 0 0 23256 0 0 23359 0 0 23253 0 0 23050 0 0 22841 0 0 23286 0 0 23170 0 0 23094 0 0 23174 0 0 23142 0 0 22951 0 0 23091 0 0 23055 0 0 23071 0 0 23058 0 0 22995 0 0 22989 0 0 23125 0 0 22917 0 0 11679 0 0 164 0 0 37 0 0 25 0 0 23 0 0 22 0 0 29 0 0 18 0 0 12 0 0 14 0 0 
7 0 0 11 0 0 9 0 0 13 0 0 13 0 0 8 0 0 17 0 0 16 0 0 38 0 0 179 0 0 11567 0 0 23204 0 0 23150 0 0 23263 0 0 23099 0 0 23029 0 0 23176 0 0 22872 0 0 23286 0 0 23219 0 0 22734 0 0 23242 0 0 23113 0 0 23077 0 0 23310 0 0 23280 0 0 23013 0 0 23002 0 0 23152 0 0 23251 0 0 23230 0 0 23140 0 0 23515 0 0 23123 0 0 23158 0 0 23119 0 0 23102 0 0 23290 0 0 23000 0 0 23065 0 0 23043 0 0 23215 0 0 22970 0 0 23220 0 0 23069 0 0 23028 0 0 23400 0 0 23100 0 0 22814 0 0 22987 0 0 11701 0 0 163 0 0 50 0 0 42 0 0 42 0 0 18 0 0 16 0 0 19 0 0 9 0 0 12 0 0 
6 0 0 12 0 0 12 0 0 11 0 0 20 0 0 28 0 0 28 0 0 31 0 0 28 0 0 157 0 0 11683 0 0 22827 0 0 23146 0 0 23150 0 0 23217 0 0 22865 0 0 23143 0 0 23084 0 0 23188 0 0 23330 0 0 23135 0 0 23223 0 0 23178 0 0 23237 0 0 22925 0 0 23263 0 0 23205 0 0 23141 0 0 23064 0 0 23145 0 0 23303 0 0 22928 0 0 23136 0 0 23295 0 0 23041 0 0 22992 0 0 23242 0 0 23071 0 0 23212 0 0 23145 0 0 23191 0 0 23362 0 0 23249 0 0 23143 0 0 23060 0 0 22976 0 0 23007 0 0 22998 0 0 23177 0 0 22940 0 0 11664 0 0 138 0 0 51 0 0 35 0 0 33 0 0 32 0 0 24 0 0 19 0 0 17 0 0 13 0 0 
4 0 0 14 0 0 12 0 0 12 0 0 17 0 0 22 0 0 26 0 0 32 0 0 42 0 0 162 0 0 11685 0 0 23150 0 0 23146 0 0 23038 0 0 23178 0 0 23378 0 0 22883 0 0 23242 0 0 22991 0 0 23242 0 0 23177 0 0 23151 0 0 23158 0 0 23164 0 0 23197 0 0 23179 0 0 23166 0 0 23337 0 0 23340 0 0 23378 0 0 23315 0 0 23102 0 0 23124 0 0 23192 0 0 22961 0 0 22993 0 0 22924 0 0 23325 0 0 23160 0 0 23156 0 0 23086 0 0 23171 0 0 23152 0 0 23295 0 0 23364 0 0 23049 0 0 23176 0 0 23065 0 0 22857 0 0 23023 0 0 11556 0 0 172 0 0 46 0 0 42 0 0 28 0 0 22 0 0 24 0 0 18 0 0 15 0 0 14 0 0 
5 0 0 10 0 0 13 0 0 18 0 0 16 0 0 19 0 0 23 0 0 28 0 0 36 0 0 167 0 0 11631 0 0 22952 0 0 23158 0 0 22903 0 0 23063 0 0 23088 0 0 23035 0 0 23084 0 0 23151 0 0 23225 0 0 23436 0 0 23121 0 0 23079 0 0 23054 0 0 23216 0 0 23146 0 0 23123 0 0 22925 0 0 23089 0 0 23074 0 0 23172 0 0 23256 0 0 23209 0 0 23123 0 0 23157 0 0 23308 0 0 23016 0 0 23110 0 0 23337 0 0 22933 0 0 23145 0 0 23301 0 0 23134 0 0 23341 0 0 23327 0 0 23303 0 0 23071 0 0 23113 0 0 23102 0 0 23251 0 0 11493 0 0 167 0 0 38 0 0 33 0 0 32 0 0 22 0 0 19 0 0 23 0 0 14 0 0 12 0 0 
5 0 0 17 0 0 15 0 0 14 0 0 23 0 0 28 0 0 29 0 0 32 0 0 27 0 0 157 0 0 11795 0 0 23167 0 0 23234 0 0 23159 0 0 23198 0 0 23082 0 0 23152 0 0 23056 0 0 23169 0 0 22983 0 0 23287 0 0 23044 0 0 23235 0 0 23139 0 0 22940 0 0 23312 0 0 23090 0 0 23121 0 0 23091 0 0 23263 0 0 23320 0 0 23174 0 0 23196 0 0 23141 0 0 23226 0 0 23152 0 0 22992 0 0 23193 0 0 23241 0 0 23210 0 0 23236 0 0 23241 0 0 23354 0 0 23113 0 0 23444 0 0 23104 0 0 23015 0 0 23040 0 0 23219 0 0 22896 0 0 11525 0 0 127 0 0 37 0 0 33 0 0 24 0 0 24 0 0 27 0 0 25 0 0 20 0 0 10 0 0 
4 0 0 7 0 0 8 0 0 17 0 0 20 0 0 28 0 0 36 0 0 42 0 0 48 0 0 156 0 0 11563 0 0 22966 0 0 23000 0 0 23092 0 0 23060 0 0 23506 0 0 23478 0 0 23252 0 0 23050 0 0 23397 0 0 23186 0 0 23257 0 0 23259 0 0 23252 0 0 23107 0 0 22956 0 0 23219 0 0 23344 0 0 23307 0 0 23080 0 0 23023 0 0 23066 0 0 23100 0 0 23142 0 0 23386 0 0 23392 0 0 23237 0 0 23255 0 0 23067 0 0 23253 0 0 23425 0 0 22873 0 0 23314 0 0 23318 0 0 23297 0 0 23211 0 0 23110 0 0 23305 0 0 23270 0 0 22880 0 0 11512 0 0 173 0 0 47 0 0 34 0 0 38 0 0 24 0 0 21 0 0 21 0 0 15 0 0 9 0 0 
2 0 0 8 0 0 12 0 0 14 0 0 16 0 0 24 0 0 28 0 0 29 0 0 38 0 0 164 0 0 11664 0 0 23056 0 0 23208 0 0 23242 0 0 23196 0 0 23190 0 0 23140 0 0 23287 0 0 23266 0 0 23174 0 0 23239 0 0 23019 0 0 23170 0 0 23234 0 0 23311 0 0 23002 0 0 22968 0 0 22930 0 0 23406 0 0 23179 0 0 23126 0 0 23271 0 0 23076 0 0 23197 0 0 23240 0 0 23268 0 0 23310 0 0 23118 0 0 23167 0 0 23116 0 0 23042 0 0 23094 0 0 23273 0 0 23071 0 0 23231 0 0 22949 0 0 23120 0 0 23234 0 0 23048 0 0 22873 0 0 11502 0 0 163 0 0 52 0 0 27 0 0 21 0 0 30 0 0 29 0 0 18 0 0 22 0 0 18 0 0 
8 0 0 14 0 0 16 0 0 22 0 0 25 0 0 20 0 0 30 0 0 35 0 0 47 0 0 181 0 0 11544 0 0 22934 0 0 23086 0 0 23304 0 0 23259 0 0 23256 0 0 23141 0 0 23025 0 0 23106 0 0 23125 0 0 23098 0 0 23293 0 0 23144 0 0 23190 0 0 23174 0 0 23326 0 0 23013 0 0 23111 0 0 23107 0 0 23232 0 0 23295 0 0 23352 0 0 23172 0 0 23330 0 0 23189 0 0 23074 0 0 23278 0 0 23248 0 0 23073 0 0 23234 0 0 23032 0 0 23011 0 0 23026 0 0 23360 0 0 23086 0 0 22917 0 0 23192 0 0 23042 0 0 23197 0 0 23034 0 0 11523 0 0 166 0 0 42 0 0 35 0 0 28 0 0 22 0 0 24 0 0 16 0 0 15 0 0 20 0 0 
2 0 0 11 0 0 16 0 0 24 0 0 17 0 0 24 0 0 26 0 0 27 0 0 40 0 0 145 0 0 11527 0 0 23008 0 0 22951 0 0 23067 0 0 22911 0 0 23177 0 0 23016 0 0 23323 0 0 23416 0 0 22977 0 0 23116 0 0 22986 0 0 23217 0 0 23132 0 0 23213 0 0 23044 0 0 23218 0 0 23202 0 0 23267 0 0 22932 0 0 23173 0 0 23056 0 0 23069 0 0 23162 0 0 23504 0 0 23290 0 0 22966 0 0 23111 0 0 23211 0 0 23072 0 0 23261 0 0 22924 0 0 23065 0 0 23123 0 0 23128 0 0 23043 0 0 23106 0 0 23007 0 0 23031 0 0 23207 0 0 11478 0 0 170 0 0 51 0 0 40 0 0 31 0 0 19 0 0 15 0 0 17 0 0 12 0 0 11 0 0 
8 0 0 16 0 0 14 0 0 14 0 0 16 0 0 18 0 0 21 0 0 23 0 0 34 0 0 159 0 0 11540 0 0 22963 0 0 23155 0 0 23045 0 0 23188 0 0 23216 0 0 22988 0 0 23050 0 0 23130 0 0 23144 0 0 23086 0 0 23206 0 0 23271 0 0 23072 0 0 23214 0 0 23339 0 0 23304 0 0 23179 0 0 23074 0 0 23047 0 0 22933 0 0 23022 0 0 23169 0 0 23008 0 0 23182 0 0 23396 0 0 23351 0 0 23121 0 0 22903 0 0 23180 0 0 23167 0 0 23086 0 0 23067 0 0 23336 0 0 23209 0 0 23181 0 0 23287 0 0 23468 0 0 23011 0 0 23006 0 0 11643 0 0 168 0 0 47 0 0 35 0 0 21 0 0 21 0 0 13 0 0 11 0 0 14 0 0 14 0 0 
4 0 0 11 0 0 7 0 0 11 0 0 11 0 0 18 0 0 28 0 0 28 0 0 37 0 0 153 0 0 11567 0 0 23104 0 0 23220 0 0 22939 0 0 23257 0 0 23111 0 0 23157 0 0 23282 0 0 23100 0 0 23221 0 0 23085 0 0 22842 0 0 23167 0 0 23096 0 0 23059 0 0 22925 0 0 23475 0 0 23067 0 0 23021 0 0 23204 0 0 23246 0 0 22946 0 0 23106 0 0 23273 0 0 23092 0 0 22993 0 0 23041 0 0 23195 0 0 23242 0 0 22886 0 0 23008 0 0 23143 0 0 23185 0 0 23321 0 0 23140 0 0 23114 0 0 23104 0 0 23025 0 0 23050 0 0 23026 0 0 11508 0 0 144 0 0 40 0 0 36 0 0 28 0 0 24 0 0 24 0 0 17 0 0 16 0 0 9 0 0 
5 0 0 11 0 0 11 0 0 14 0 0 16 0 0 21 0 0 30 0 0 29 0 0 37 0 0 152 0 0 11563 0 0 23011 0 0 23298 0 0 22883 0 0 23051 0 0 23086 0 0 23062 0 0 23133 0 0 23052 0 0 23289 0 0 23395 0 0 23261 0 0 23186 0 0 23136 0 0 23057 0 0 23130 0 0 23326 0 0 23037 0 0 23105 0 0 23136 0 0 23087 0 0 23275 0 0 23109 0 0 23255 0 0 23021 0 0 23098 0 0 23232 0 0 23090 0 0 23239 0 0 23196 0 0 23318 0 0 23204 0 0 23024 0 0 23048 0 0 23135 0 0 23200 0 0 23162 0 0 23114 0 0 23254 0 0 22963 0 0 11463 0 0 143 0 0 32 0 0 32 0 0 28 0 0 19 0 0 18 0 0 17 0 0 15 0 0 11 0 0 
5 0 0 12 0 0 12 0 0 18 0 0 18 0 0 22 0 0 26 0 0 33 0 0 39 0 0 152 0 0 11564 0 0 23268 0 0 22926 0 0 23105 0 0 23007 0 0 23068 0 0 23279 0 0 23077 0 0 23227 0 0 23239 0 0 23357 0 0 23118 0 0 23063 0 0 23172 0 0 23222 0 0 22991 0 0 23157 0 0 23252 0 0 22811 0 0 23233 0 0 23026 0 0 23015 0 0 23277 0 0 23144 0 0 23324 0 0 23269 0 0 23175 0 0 23197 0 0 23089 0 0 23074 0 0 23085 0 0 23125 0 0 23232 0 0 23142 0 0 23336 0 0 22955 0 0 23174 0 0 23183 0 0 23003 0 0 23064 0 0 11572 0 0 157 0 0 38 0 0 43 0 0 25 0 0 22 0 0 14 0 0 15 0 0 13 0 0 9 0 0 
6 0 0 12 0 0 13 0 0 20 0 0 18 0 0 20 0 0 21 0 0 34 0 0 42 0 0 145 0 0 11473 0 0 22882 0 0 23082 0 0 23236 0 0 23050 0 0 23391 0 0 23194 0 0 23171 0 0 23171 0 0 23146 0 0 23048 0 0 23098 0 0 23098 0 0 23208 0 0 23068 0 0 23134 0 0 23124 0 0 23187 0 0 23202 0 0 23137 0 0 23094 0 0 23162 0 0 22855 0 0 23026 0 0 23252 0 0 23159 0 0 23044 0 0 23074 0 0 23126 0 0 23059 0 0 23319 0 0 23099 0 0 23123 0 0 23206 0 0 23169 0 0 23141 0 0 22817 0 0 22929 0 0 23024 0 0 23030 0 0 11533 0 0 147 0 0 46 0 0 32 0 0 26 0 0 22 0 0 19 0 0 13 0 0 13 0 0 17 0 0 
9 0 0 14 0 0 12 0 0 14 0 0 15 0 0 21 0 0 27 0 0 28 0 0 33 0 0 165 0 0 11403 0 0 23064 0 0 23018 0 0 23091 0 0 23093 0 0 23237 0 0 23370 0 0 23028 0 0 22958 0 0 23069 0 0 23267 0 0 23018 0 0 23301 0 0 23159 0 0 23239 0 0 23197 0 0 22937 0 0 23086 0 0 23086 0 0 23380 0 0 23117 0 0 23281 0 0 23194 0 0 23234 0 0 23054 0 0 23002 0 0 23207 0 0 23119 0 0 23250 0 0 23434 0 0 23252 0 0 23202 0 0 22938 0 0 23040 0 0 23090 0 0 23045 0 0 23306 0 0 23029 0 0 23137 0 0 22947 0 0 11532 0 0 152 0 0 40 0 0 29 0 0 21 0 0 17 0 0 19 0 0 16 0 0 17 0 0 17 0 0 
5 0 0 11 0 0 15 0 0 16 0 0 21 0 0 24 0 0 20 0 0 30 0 0 43 0 0 163 0 0 11580 0 0 22762 0 0 23188 0 0 23031 0 0 23255 0 0 23402 0 0 23007 0 0 23279 0 0 23059 0 0 23117 0 0 23148 0 0 23089 0 0 23209 0 0 23242 0 0 23331 0 0 23224 0 0 23049 0 0 23293 0 0 23120 0 0 23322 0 0 23275 0 0 23165 0 0 22866 0 0 23068 0 0 23271 0 0 23084 0 0 23151 0 0 22927 0 0 23173 0 0 22981 0 0 23147 0 0 23076 0 0 23265 0 0 22989 0 0 23232 0 0 23303 0 0 23124 0 0 23071 0 0 23157 0 0 22843 0 0 11705 0 0 145 0 0 38 0 0 22 0 0 27 0 0 16 0 0 20 0 0 20 0 0 12 0 0 12 0 0 
2 0 0 11 0 0 12 0 0 12 0 0 19 0 0 13 0 0 19 0 0 23 0 0 36 0 0 148 0 0 11494 0 0 22955 0 0 23132 0 0 23101 0 0 22978 0 0 23161 0 0 23207 0 0 23183 0 0 23256 0 0 23039 0 0 23198 0 0 23255 0 0 23050 0 0 23066 0 0 23099 0 0 23312 0 0 23161 0 0 23275 0 0 23371 0 0 23079 0 0 23130 0 0 23084 0 0 23440 0 0 22932 0 0 23230 0 0 23346 0 0 23344 0 0 23281 0 0 23293 0 0 23199 0 0 23190 0 0 23269 0 0 23197 0 0 23154 0 0 23189 0 0 23019 0 0 23113 0 0 23049 0 0 22831 0 0 22772 0 0 11694 0 0 176 0 0 30 0 0 20 0 0 22 0 0 21 0 0 17 0 0 15 0 0 13 0 0 13 0 0 
1 0 0 4 0 0 3 0 0 10 0 0 9 0 0 15 0 0 18 0 0 25 0 0 40 0 0 158 0 0 11666 0 0 23015 0 0 23293 0 0 23123 0 0 23091 0 0 23052 0 0 23144 0 0 23233 0 0 23235 0 0 22893 0 0 23164 0 0 23091 0 0 23083 0 0 23284 0 0 23021 0 0 23209 0 0 23278 0 0 23116 0 0 23134 0 0 23203 0 0 23273 0 0 23078 0 0 23113 0 0 23061 0 0 23261 0 0 23021 0 0 23215 0 0 23207 0 0 23136 0 0 23289 0 0 23136 0 0 23046 0 0 22963 0 0 23330 0 0 23114 0 0 23199 0 0 22879 0 0 23255 0 0 22805 0 0 22865 0 0 11672 0 0 154 0 0 30 0 0 26 0 0 19 0 0 19 0 0 12 0 0 9 0 0 9 0 0 8 0 0 
4 0 0 11 0 0 12 0 0 11 0 0 14 0 0 12 0 0 19 0 0 30 0 0 36 0 0 136 0 0 11570 0 0 23049 0 0 23281 0 0 23176 0 0 23101 0 0 22919 0 0 23409 0 0 23208 0 0 23129 0 0 23060 0 0 23100 0 0 23079 0 0 23069 0 0 23188 0 0 22980 0 0 23202 0 0 23155 0 0 23417 0 0 23450 0 0 22927 0 0 23132 0 0 23238 0 0 23103 0 0 23054 0 0 23188 0 0 23385 0 0 23050 0 0 23310 0 0 23095 0 0 23232 0 0 23250 0 0 23070 0 0 23228 0 0 22968 0 0 23090 0 0 22998 0 0 23033 0 0 23151 0 0 23271 0 0 22825 0 0 11682 0 0 149 0 0 32 0 0 26 0 0 21 0 0 21 0 0 15 0 0 8 0 0 13 0 0 12 0 0 
2 0 0 12 0 0 7 0 0 9 0 0 11 0 0 15 0 0 21 0 0 23 0 0 22 0 0 130 0 0 11553 0 0 22875 0 0 22897 0 0 23140 0 0 23346 0 0 23360 0 0 23270 0 0 23104 0 0 23405 0 0 23162 0 0 23026 0 0 23046 0 0 23232 0 0 22928 0 0 23154 0 0 23034 0 0 23041 0 0 22856 0 0 23277 0 0 23250 0 0 23140 0 0 23229 0 0 23055 0 0 22848 0 0 23087 0 0 23053 0 0 23054 0 0 23128 0 0 22969 0 0 23212 0 0 23214 0 0 22920 0 0 23099 0 0 23015 0 0 22943 0 0 22994 0 0 23180 0 0 23154 0 0 23246 0 0 23097 0 0 11481 0 0 137 0 0 21 0 0 21 0 0 24 0 0 24 0 0 19 0 0 12 0 0 11 0 0 10 0 0 
7 0 0 10 0 0 8 0 0 11 0 0 14 0 0 15 0 0 14 0 0 13 0 0 26 0 0 147 0 0 11449 0 0 22776 0 0 22885 0 0 23035 0 0 23023 0 0 22870 0 0 23192 0 0 22811 0 0 23079 0 0 23028 0 0 23079 0 0 23037 0 0 23173 0 0 23184 0 0 23131 0 0 23059 0 0 23110 0 0 23103 0 0 23066 0 0 22917 0 0 23002 0 0 23035 0 0 23115 0 0 22889 0 0 23241 0 0 23123 0 0 22748 0 0 22830 0 0 22989 0 0 22798 0 0 23160 0 0 22919 0 0 22899 0 0 22899 0 0 22811 0 0 22882 0 0 23049 0 0 23115 0 0 23272 0 0 22929 0 0 11391 0 0 142 0 0 29 0 0 20 0 0 12 0 0 11 0 0 13 0 0 14 0 0 10 0 0 4 0 0 
6 0 0 8 0 0 5 0 0 10 0 0 9 0 0 10 0 0 13 0 0 21 0 0 28 0 0 85 0 0 5827 0 0 11357 0 0 11603 0 0 11647 0 0 11704 0 0 11568 0 0 11721 0 0 11705 0 0 11499 0 0 11516 0 0 11659 0 0 11542 0 0 11518 0 0 11672 0 0 11677 0 0 11451 0 0 11456 0 0 11600 0 0 11576 0 0 11433 0 0 11526 0 0 11410 0 0 11530 0 0 11591 0 0 11414 0 0 11615 0 0 11708 0 0 11687 0 0 11384 0 0 11754 0 0 11402 0 0 11622 0 0 11601 0 0 11790 0 0 11603 0 0 11634 0 0 11684 0 0 11566 0 0 11423 0 0 11367 0 0 5775 0 0 85 0 0 24 0 0 24 0 0 16 0 0 8 0 0 6 0 0 12 0 0 11 0 0 9 0 0 
1 0 0 12 0 0 11 0 0 10 0 0 17 0 0 11 0 0 17 0 0 21 0 0 24 0 0 25 0 0 83 0 0 144 0 0 131 0 0 151 0 0 143 0 0 158 0 0 159 0 0 169 0 0 156 0 0 144 0 0 155 0 0 162 0 0 174 0 0 153 0 0 149 0 0 157 0 0 150 0 0 156 0 0 144 0 0 171 0 0 174 0 0 143 0 0 144 0 0 158 0 0 175 0 0 175 0 0 175 0 0 157 0 0 158 0 0 187 0 0 168 0 0 164 0 0 163 0 0 163 0 0 158 0 0 180 0 0 155 0 0 165 0 0 153 0 0 151 0 0 80 0 0 23 0 0 20 0 0 14 0 0 18 0 0 16 0 0 9 0 0 13 0 0 10 0 0 10 0 0 
4 0 0 5 0 0 7 0 0 7 0 0 2 0 0 9 0 0 14 0 0 12 0 0 10 0 0 17 0 0 27 0 0 25 0 0 26 0 0 22 0 0 23 0 0 26 0 0 46 0 0 38 0 0 32 0 0 44 0 0 48 0 0 41 0 0 33 0 0 35 0 0 34 0 0 40 0 0 41 0 0 42 0 0 36 0 0 39 0 0 38 0 0 46 0 0 36 0 0 44 0 0 54 0 0 40 0 0 43 0 0 40 0 0 31 0 0 45 0 0 38 0 0 34 0 0 28 0 0 42 0 0 40 0 0 38 0 0 37 0 0 44 0 0 32 0 0 31 0 0 25 0 0 19 0 0 20 0 0 15 0 0 14 0 0 8 0 0 10 0 0 8 0 0 10 0 0 11 0 0 
3 0 0 5 0 0 1 0 0 7 0 0 10 0 0 13 0 0 12 0 0 11 0 0 18 0 0 18 0 0 19 0 0 14 0 0 21 0 0 18 0 0 24 0 0 25 0 0 24 0 0 32 0 0 21 0 0 37 0 0 35 0 0 30 0 0 20 0 0 23 0 0 33 0 0 31 0 0 40 0 0 42 0 0 37 0 0 25 0 0 38 0 0 25 0 0 44 0 0 46 0 0 44 0 0 33 0 0 32 0 0 38 0 0 37 0 0 29 0 0 31 0 0 30 0 0 28 0 0 28 0 0 27 0 0 26 0 0 23 0 0 25 0 0 35 0 0 22 0 0 24 0 0 23 0 0 14 0 0 18 0 0 11 0 0 10 0 0 9 0 0 11 0 0 11 0 0 9 0 0 
4 0 0 5 0 0 6 0 0 3 0 0 13 0 0 12 0 0 14 0 0 12 0 0 14 0 0 15 0 0 11 0 0 12 0 0 24 0 0 17 0 0 16 0 0 17 0 0 21 0 0 18 0 0 12 0 0 23 0 0 27 0 0 28 0 0 17 0 0 23 0 0 24 0 0 25 0 0 29 0 0 26 0 0 31 0 0 28 0 0 23 0 0 20 0 0 24 0 0 32 0 0 31 0 0 30 0 0 24 0 0 20 0 0 24 0 0 20 0 0 22 0 0 19 0 0 22 0 0 24 0 0 29 0 0 16 0 0 23 0 0 28 0 0 22 0 0 26 0 0 21 0 0 20 0 0 22 0 0 5 0 0 10 0 0 8 0 0 12 0 0 12 0 0 6 0 0 7 0 0 
3 0 0 4 0 0 6 0 0 9 0 0 14 0 0 12 0 0 10 0 0 14 0 0 11 0 0 17 0 0 6 0 0 14 0 0 21 0 0 21 0 0 14 0 0 22 0 0 12 0 0 26 0 0 22 0 0 17 0 0 17 0 0 26 0 0 23 0 0 26 0 0 13 0 0 22 0 0 23 0 0 21 0 0 25 0 0 17 0 0 30 0 0 21 0 0 22 0 0 37 0 0 13 0 0 20 0 0 19 0 0 10 0 0 20 0 0 25 0 0 22 0 0 15 0 0 11 0 0 20 0 0 23 0 0 20 0 0 17 0 0 14 0 0 13 0 0 17 0 0 13 0 0 14 0 0 18 0 0 19 0 0 13 0 0 6 0 0 9 0 0 10 0 0 11 0 0 7 0 0 
3 0 0 7 0 0 11 0 0 11 0 0 8 0 0 6 0 0 15 0 0 8 0 0 12 0 0 15 0 0 7 0 0 14 0 0 16 0 0 19 0 0 10 0 0 11 0 0 12 0 0 21 0 0 25 0 0 15 0 0 14 0 0 26 0 0 19 0 0 21 0 0 7 0 0 17 0 0 27 0 0 20 0 0 19 0 0 17 0 0 25 0 0 29 0 0 16 0 0 25 0 0 10 0 0 19 0 0 17 0 0 16 0 0 17 0 0 24 0 0 16 0 0 14 0 0 12 0 0 13 0 0 20 0 0 9 0 0 13 0 0 12 0 0 13 0 0 14 0 0 8 0 0 3 0 0 9 0 0 17 0 0 20 0 0 11 0 0 3 0 0 10 0 0 6 0 0 8 0 0 
2 0 0 4 0 0 5 0 0 8 0 0 8 0 0 9 0 0 12 0 0 12 0 0 9 0 0 9 0 0 12 0 0 13 0 0 8 0 0 9 0 0 12 0 0 12 0 0 19 0 0 13 0 0 19 0 0 12 0 0 20 0 0 23 0 0 13 0 0 14 0 0 7 0 0 13 0 0 17 0 0 24 0 0 24 0 0 17 0 0 21 0 0 18 0 0 16 0 0 22 0 0 12 0 0 13 0 0 12 0 0 15 0 0 16 0 0 22 0 0 21 0 0 15 0 0 10 0 0 14 0 0 18 0 0 10 0 0 12 0 0 13 0 0 15 0 0 12 0 0 14 0 0 7 0 0 3 0 0 5 0 0 11 0 0 14 0 0 7 0 0 7 0 0 9 0 0 9 0 0 
1 0 0 3 0 0 5 0 0 10 0 0 8 0 0 8 0 0 8 0 0 10 0 0 7 0 0 6 0 0 5 0 0 14 0 0 5 0 0 12 0 0 9 0 0 15 0 0 16 0 0 10 0 0 13 0 0 13 0 0 20 0 0 9 0 0 17 0 0 10 0 0 12 0 0 17 0 0 11 0 0 11 0 0 17 0 0 17 0 0 22 0 0 17 0 0 15 0 0 16 0 0 15 0 0 17 0 0 9 0 0 10 0 0 10 0 0 10 0 0 17 0 0 13 0 0 8 0 0 12 0 0 12 0 0 17 0 0 7 0 0 13 0 0 14 0 0 13 0 0 7 0 0 11 0 0 7 0 0 5 0 0 3 0 0 9 0 0 7 0 0 5 0 0 8 0 0 8 0 0 
2 0 0 4 0 0 9 0 0 9 0 0 8 0 0 9 0 0 9 0 0 7 0 0 7 0 0 4 0 0 10 0 0 15 0 0 6 0 0 9 0 0 11 0 0 11 0 0 16 0 0 10 0 0 16 0 0 14 0 0 11 0 0 12 0 0 12 0 0 4 0 0 7 0 0 13 0 0 8 0 0 12 0 0 13 0 0 22 0 0 15 0 0 10 0 0 12 0 0 19 0 0 11 0 0 15 0 0 14 0 0 8 0 0 12 0 0 16 0 0 11 0 0 12 0 0 7 0 0 11 0 0 12 0 0 11 0 0 16 0 0 13 0 0 5 0 0 11 0 0 9 0 0 8 0 0 14 0 0 9 0 0 2 0 0 5 0 0 10 0 0 4 0 0 5 0 0 5 0 0 
