P3
# This is a dose file slice at depth 56 of 100
60 60
# now we give the maximum value of the RGB coordinates.
32965
0 0 0 0 0 0 0 0 0 0 0 0 1 0 0 1 0 0 0 0 0 0 0 0 0 0 0 3 0 0 1 0 0 0 0 0 2 0 0 1 0 0 3 0 0 1 0 0 2 0 0 1 0 0 2 0 0 0 0 0 2 0 0 0 0 0 1 0 0 6 0 0 3 0 0 3 0 0 2 0 0 3 0 0 3 0 0 1 0 0 1 0 0 3 0 0 3 0 0 3 0 0 3 0 0 2 0 0 3 0 0 1 0 0 1 0 0 2 0 0 1 0 0 3 0 0 1 0 0 2 0 0 0 0 0 2 0 0 2 0 0 0 0 0 4 0 0 2 0 0 2 0 0 4 0 0 1 0 0 0 0 0 2 0 0 1 0 0 2 0 0 1 0 0 0 0 0 1 0 0 
0 0 0 0 0 0 3 0 0 2 0 0 4 0 0 2 0 0 2 0 0 0 0 0 2 0 0 4 0 0 3 0 0 2 0 0 4 0 0 3 0 0 3 0 0 4 0 0 3 0 0 3 0 0 3 0 0 2 0 0 3 0 0 3 0 0 2 0 0 9 0 0 4 0 0 4 0 0 5 0 0 3 0 0 5 0 0 2 0 0 2 0 0 11 0 0 7 0 0 8 0 0 6 0 0 4 0 0 1 0 0 9 0 0 5 0 0 4 0 0 7 0 0 6 0 0 2 0 0 1 0 0 5 0 0 7 0 0 7 0 0 3 0 0 5 0 0 4 0 0 3 0 0 5 0 0 2 0 0 4 0 0 4 0 0 2 0 0 3 0 0 4 0 0 3 0 0 3 0 0 
0 0 0 0 0 0 2 0 0 5 0 0 2 0 0 4 0 0 2 0 0 3 0 0 0 0 0 4 0 0 4 0 0 6 0 0 6 0 0 1 0 0 6 0 0 3 0 0 3 0 0 9 0 0 6 0 0 3 0 0 1 0 0 7 0 0 4 0 0 6 0 0 8 0 0 5 0 0 10 0 0 3 0 0 7 0 0 5 0 0 4 0 0 4 0 0 8 0 0 3 0 0 3 0 0 3 0 0 1 0 0 4 0 0 3 0 0 7 0 0 7 0 0 2 0 0 1 0 0 3 0 0 4 0 0 12 0 0 5 0 0 3 0 0 4 0 0 5 0 0 6 0 0 5 0 0 4 0 0 6 0 0 2 0 0 4 0 0 4 0 0 3 0 0 2 0 0 0 0 0 
1 0 0 2 0 0 1 0 0 4 0 0 2 0 0 4 0 0 2 0 0 2 0 0 5 0 0 2 0 0 4 0 0 5 0 0 3 0 0 5 0 0 5 0 0 5 0 0 1 0 0 9 0 0 4 0 0 5 0 0 5 0 0 6 0 0 8 0 0 13 0 0 9 0 0 7 0 0 5 0 0 6 0 0 4 0 0 5 0 0 4 0 0 10 0 0 7 0 0 4 0 0 4 0 0 7 0 0 5 0 0 5 0 0 5 0 0 7 0 0 8 0 0 5 0 0 7 0 0 3 0 0 5 0 0 9 0 0 3 0 0 5 0 0 3 0 0 6 0 0 6 0 0 7 0 0 3 0 0 4 0 0 4 0 0 0 0 0 2 0 0 1 0 0 0 0 0 6 0 0 
2 0 0 4 0 0 2 0 0 3 0 0 2 0 0 4 0 0 6 0 0 3 0 0 4 0 0 5 0 0 5 0 0 5 0 0 5 0 0 6 0 0 5 0 0 6 0 0 4 0 0 9 0 0 7 0 0 4 0 0 9 0 0 8 0 0 11 0 0 10 0 0 10 0 0 6 0 0 5 0 0 3 0 0 2 0 0 6 0 0 6 0 0 7 0 0 4 0 0 7 0 0 10 0 0 6 0 0 9 0 0 9 0 0 8 0 0 7 0 0 5 0 0 6 0 0 5 0 0 5 0 0 6 0 0 9 0 0 4 0 0 4 0 0 4 0 0 9 0 0 5 0 0 4 0 0 1 0 0 3 0 0 2 0 0 3 0 0 2 0 0 1 0 0 2 0 0 1 0 0 
2 0 0 1 0 0 1 0 0 3 0 0 2 0 0 3 0 0 5 0 0 4 0 0 4 0 0 3 0 0 8 0 0 1 0 0 3 0 0 8 0 0 5 0 0 8 0 0 4 0 0 10 0 0 4 0 0 8 0 0 12 0 0 8 0 0 11 0 0 11 0 0 13 0 0 8 0 0 12 0 0 7 0 0 4 0 0 8 0 0 10 0 0 10 0 0 7 0 0 10 0 0 5 0 0 6 0 0 9 0 0 6 0 0 12 0 0 5 0 0 8 0 0 9 0 0 12 0 0 7 0 0 6 0 0 11 0 0 3 0 0 6 0 0 11 0 0 10 0 0 3 0 0 5 0 0 7 0 0 5 0 0 6 0 0 7 0 0 3 0 0 10 0 0 5 0 0 4 0 0 
1 0 0 2 0 0 4 0 0 1 0 0 3 0 0 3 0 0 5 0 0 2 0 0 2 0 0 7 0 0 7 0 0 7 0 0 4 0 0 7 0 0 8 0 0 12 0 0 8 0 0 14 0 0 12 0 0 7 0 0 12 0 0 7 0 0 15 0 0 11 0 0 16 0 0 15 0 0 7 0 0 14 0 0 7 0 0 10 0 0 8 0 0 13 0 0 12 0 0 16 0 0 10 0 0 7 0 0 12 0 0 9 0 0 6 0 0 15 0 0 15 0 0 10 0 0 10 0 0 12 0 0 6 0 0 6 0 0 8 0 0 8 0 0 11 0 0 6 0 0 4 0 0 12 0 0 3 0 0 7 0 0 8 0 0 9 0 0 6 0 0 4 0 0 3 0 0 2 0 0 
1 0 0 1 0 0 1 0 0 2 0 0 4 0 0 6 0 0 7 0 0 7 0 0 5 0 0 5 0 0 2 0 0 15 0 0 13 0 0 9 0 0 10 0 0 11 0 0 12 0 0 12 0 0 13 0 0 9 0 0 15 0 0 12 0 0 13 0 0 12 0 0 19 0 0 11 0 0 5 0 0 10 0 0 8 0 0 12 0 0 15 0 0 15 0 0 17 0 0 15 0 0 14 0 0 9 0 0 12 0 0 11 0 0 11 0 0 14 0 0 20 0 0 14 0 0 12 0 0 13 0 0 7 0 0 12 0 0 8 0 0 11 0 0 19 0 0 4 0 0 4 0 0 6 0 0 6 0 0 6 0 0 4 0 0 6 0 0 3 0 0 7 0 0 1 0 0 0 0 0 
1 0 0 4 0 0 6 0 0 5 0 0 1 0 0 4 0 0 5 0 0 7 0 0 9 0 0 11 0 0 12 0 0 15 0 0 12 0 0 13 0 0 13 0 0 16 0 0 23 0 0 16 0 0 17 0 0 18 0 0 16 0 0 13 0 0 19 0 0 22 0 0 10 0 0 22 0 0 12 0 0 12 0 0 17 0 0 13 0 0 15 0 0 16 0 0 25 0 0 19 0 0 14 0 0 11 0 0 16 0 0 17 0 0 19 0 0 19 0 0 22 0 0 15 0 0 19 0 0 16 0 0 8 0 0 13 0 0 11 0 0 9 0 0 14 0 0 8 0 0 8 0 0 10 0 0 3 0 0 5 0 0 5 0 0 4 0 0 6 0 0 1 0 0 2 0 0 3 0 0 
1 0 0 3 0 0 3 0 0 5 0 0 9 0 0 4 0 0 2 0 0 1 0 0 8 0 0 9 0 0 36 0 0 72 0 0 82 0 0 82 0 0 75 0 0 68 0 0 66 0 0 75 0 0 85 0 0 68 0 0 78 0 0 70 0 0 71 0 0 83 0 0 78 0 0 77 0 0 59 0 0 71 0 0 71 0 0 73 0 0 85 0 0 73 0 0 79 0 0 87 0 0 102 0 0 63 0 0 86 0 0 84 0 0 63 0 0 79 0 0 79 0 0 72 0 0 68 0 0 66 0 0 78 0 0 73 0 0 73 0 0 72 0 0 85 0 0 58 0 0 39 0 0 13 0 0 8 0 0 7 0 0 9 0 0 9 0 0 4 0 0 6 0 0 3 0 0 1 0 0 
3 0 0 7 0 0 2 0 0 2 0 0 6 0 0 5 0 0 6 0 0 6 0 0 4 0 0 35 0 0 2404 0 0 4780 0 0 4776 0 0 4751 0 0 4718 0 0 4652 0 0 4679 0 0 4676 0 0 4622 0 0 4686 0 0 4819 0 0 4598 0 0 4751 0 0 4730 0 0 4674 0 0 4623 0 0 4681 0 0 4601 0 0 4687 0 0 4854 0 0 4570 0 0 4711 0 0 4593 0 0 4649 0 0 4740 0 0 4638 0 0 4717 0 0 4668 0 0 4836 0 0 4706 0 0 4834 0 0 4677 0 0 4627 0 0 4727 0 0 4685 0 0 4810 0 0 4740 0 0 4695 0 0 4727 0 0 4677 0 0 2437 0 0 40 0 0 10 0 0 6 0 0 10 0 0 5 0 0 7 0 0 4 0 0 3 0 0 3 0 0 
1 0 0 2 0 0 3 0 0 2 0 0 1 0 0 0 0 0 5 0 0 7 0 0 5 0 0 67 0 0 4709 0 0 9341 0 0 9266 0 0 9234 0 0 9485 0 0 9354 0 0 9225 0 0 9261 0 0 9301 0 0 9422 0 0 9320 0 0 9272 0 0 9392 0 0 9389 0 0 9458 0 0 9339 0 0 9304 0 0 9497 0 0 9261 0 0 9364 0 0 9241 0 0 9235 0 0 9503 0 0 9350 0 0 9441 0 0 9488 0 0 9433 0 0 9379 0 0 9262 0 0 9499 0 0 9262 0 0 9224 0 0 9242 0 0 9467 0 0 9413 0 0 9366 0 0 9373 0 0 9337 0 0 9385 0 0 9247 0 0 4654 0 0 68 0 0 15 0 0 10 0 0 10 0 0 6 0 0 2 0 0 2 0 0 3 0 0 5 0 0 
2 0 0 3 0 0 3 0 0 3 0 0 5 0 0 3 0 0 4 0 0 9 0 0 10 0 0 65 0 0 4757 0 0 9357 0 0 9583 0 0 9322 0 0 9311 0 0 9436 0 0 9496 0 0 9389 0 0 9406 0 0 9282 0 0 9420 0 0 9284 0 0 9460 0 0 9492 0 0 9403 0 0 9483 0 0 9410 0 0 9330 0 0 9513 0 0 9347 0 0 9325 0 0 9440 0 0 9356 0 0 9440 0 0 9503 0 0 9347 0 0 9459 0 0 9366 0 0 9475 0 0 9421 0 0 9446 0 0 9463 0 0 9341 0 0 9488 0 0 9406 0 0 9317 0 0 9244 0 0 9405 0 0 9286 0 0 9310 0 0 4773 0 0 71 0 0 10 0 0 10 0 0 9 0 0 9 0 0 5 0 0 6 0 0 7 0 0 4 0 0 
2 0 0 4 0 0 5 0 0 3 0 0 7 0 0 8 0 0 9 0 0 9 0 0 14 0 0 66 0 0 4701 0 0 9420 0 0 9474 0 0 9461 0 0 9500 0 0 9294 0 0 9348 0 0 9428 0 0 9425 0 0 9524 0 0 9456 0 0 9334 0 0 9343 0 0 9324 0 0 9403 0 0 9405 0 0 9414 0 0 9573 0 0 9415 0 0 9490 0 0 9343 0 0 9518 0 0 9252 0 0 9475 0 0 9342 0 0 9397 0 0 9323 0 0 9455 0 0 9447 0 0 9538 0 0 9458 0 0 9438 0 0 9464 0 0 9437 0 0 9315 0 0 9374 0 0 9147 0 0 9355 0 0 9524 0 0 9523 0 0 4787 0 0 68 0 0 7 0 0 9 0 0 6 0 0 5 0 0 4 0 0 5 0 0 4 0 0 4 0 0 
4 0 0 6 0 0 5 0 0 7 0 0 7 0 0 10 0 0 5 0 0 7 0 0 14 0 0 73 0 0 4651 0 0 9359 0 0 9261 0 0 9129 0 0 9454 0 0 9427 0 0 9333 0 0 9525 0 0 9447 0 0 9538 0 0 9386 0 0 9460 0 0 9478 0 0 9442 0 0 9590 0 0 9329 0 0 9323 0 0 9339 0 0 9314 0 0 9385 0 0 9445 0 0 9410 0 0 9505 0 0 9320 0 0 9425 0 0 9637 0 0 9562 0 0 9483 0 0 9526 0 0 9323 0 0 9354 0 0 9420 0 0 9343 0 0 9370 0 0 9381 0 0 9365 0 0 9477 0 0 9406 0 0 9440 0 0 9339 0 0 4659 0 0 68 0 0 17 0 0 12 0 0 12 0 0 12 0 0 3 0 0 10 0 0 8 0 0 2 0 0 
2 0 0 6 0 0 3 0 0 6 0 0 15 0 0 9 0 0 9 0 0 12 0 0 17 0 0 78 0 0 4716 0 0 9427 0 0 9413 0 0 9440 0 0 9373 0 0 9439 0 0 9384 0 0 9278 0 0 9426 0 0 9385 0 0 9355 0 0 9307 0 0 9370 0 0 9547 0 0 9561 0 0 9490 0 0 9539 0 0 9387 0 0 9474 0 0 9351 0 0 9482 0 0 9485 0 0 9305 0 0 9417 0 0 9408 0 0 9357 0 0 9425 0 0 9323 0 0 9471 0 0 9318 0 0 9437 0 0 9450 0 0 9534 0 0 9519 0 0 9414 0 0 9448 0 0 9438 0 0 9339 0 0 9601 0 0 9157 0 0 4687 0 0 65 0 0 22 0 0 11 0 0 7 0 0 5 0 0 6 0 0 7 0 0 4 0 0 4 0 0 
1 0 0 1 0 0 1 0 0 3 0 0 8 0 0 9 0 0 13 0 0 10 0 0 16 0 0 74 0 0 4714 0 0 9223 0 0 9543 0 0 9528 0 0 9468 0 0 9342 0 0 9341 0 0 9526 0 0 9375 0 0 9564 0 0 9321 0 0 9485 0 0 9617 0 0 9454 0 0 9493 0 0 9338 0 0 9643 0 0 9353 0 0 9286 0 0 9502 0 0 9424 0 0 9436 0 0 9624 0 0 9583 0 0 9378 0 0 9324 0 0 9449 0 0 9482 0 0 9450 0 0 9512 0 0 9605 0 0 9415 0 0 9391 0 0 9546 0 0 9482 0 0 9215 0 0 9465 0 0 9337 0 0 9301 0 0 9516 0 0 4764 0 0 76 0 0 20 0 0 14 0 0 12 0 0 9 0 0 13 0 0 8 0 0 6 0 0 3 0 0 
3 0 0 9 0 0 6 0 0 6 0 0 7 0 0 10 0 0 9 0 0 9 0 0 20 0 0 80 0 0 4781 0 0 9407 0 0 9439 0 0 9288 0 0 9376 0 0 9358 0 0 9466 0 0 9443 0 0 9229 0 0 9580 0 0 9454 0 0 9410 0 0 9403 0 0 9453 0 0 9414 0 0 9259 0 0 9304 0 0 9284 0 0 9485 0 0 9653 0 0 9376 0 0 9387 0 0 9304 0 0 9430 0 0 9636 0 0 9517 0 0 9327 0 0 9433 0 0 9537 0 0 9469 0 0 9378 0 0 9455 0 0 9564 0 0 9347 0 0 9462 0 0 9435 0 0 9395 0 0 9417 0 0 9182 0 0 9359 0 0 4781 0 0 92 0 0 15 0 0 21 0 0 14 0 0 11 0 0 6 0 0 6 0 0 6 0 0 8 0 0 
0 0 0 3 0 0 9 0 0 7 0 0 8 0 0 12 0 0 11 0 0 16 0 0 17 0 0 81 0 0 4729 0 0 9387 0 0 9410 0 0 9393 0 0 9499 0 0 9503 0 0 9230 0 0 9425 0 0 9315 0 0 9445 0 0 9300 0 0 9392 0 0 9473 0 0 9407 0 0 9351 0 0 9301 0 0 9353 0 0 9422 0 0 9285 0 0 9447 0 0 9391 0 0 9445 0 0 9338 0 0 9430 0 0 9308 0 0 9629 0 0 9447 0 0 9325 0 0 9332 0 0 9404 0 0 9452 0 0 9504 0 0 9441 0 0 9390 0 0 9465 0 0 9571 0 0 9215 0 0 9451 0 0 9324 0 0 9231 0 0 4743 0 0 83 0 0 26 0 0 16 0 0 9 0 0 8 0 0 5 0 0 10 0 0 5 0 0 5 0 0 
2 0 0 5 0 0 5 0 0 8 0 0 8 0 0 10 0 0 11 0 0 20 0 0 25 0 0 74 0 0 4714 0 0 9417 0 0 9435 0 0 9387 0 0 9505 0 0 9414 0 0 9345 0 0 9374 0 0 9326 0 0 9528 0 0 9305 0 0 9335 0 0 9356 0 0 9560 0 0 9324 0 0 9534 0 0 9465 0 0 9410 0 0 9559 0 0 9406 0 0 9277 0 0 9514 0 0 9321 0 0 9539 0 0 9622 0 0 9489 0 0 9469 0 0 9295 0 0 9398 0 0 9501 0 0 9457 0 0 9329 0 0 9417 0 0 9437 0 0 9370 0 0 9255 0 0 9430 0 0 9483 0 0 9463 0 0 9499 0 0 4694 0 0 82 0 0 14 0 0 7 0 0 9 0 0 9 0 0 9 0 0 6 0 0 5 0 0 4 0 0 
2 0 0 4 0 0 3 0 0 6 0 0 6 0 0 8 0 0 5 0 0 12 0 0 12 0 0 83 0 0 4643 0 0 9309 0 0 9344 0 0 9516 0 0 9453 0 0 9513 0 0 9372 0 0 9429 0 0 9372 0 0 9520 0 0 9311 0 0 9284 0 0 9407 0 0 9426 0 0 9475 0 0 9413 0 0 9410 0 0 9458 0 0 9445 0 0 9335 0 0 9440 0 0 9283 0 0 9406 0 0 9366 0 0 9398 0 0 9470 0 0 9285 0 0 9270 0 0 9466 0 0 9392 0 0 9384 0 0 9459 0 0 9433 0 0 9377 0 0 9402 0 0 9486 0 0 9423 0 0 9409 0 0 9456 0 0 9500 0 0 4821 0 0 69 0 0 18 0 0 11 0 0 6 0 0 8 0 0 9 0 0 6 0 0 7 0 0 8 0 0 
1 0 0 2 0 0 6 0 0 7 0 0 4 0 0 5 0 0 8 0 0 9 0 0 15 0 0 86 0 0 4756 0 0 9433 0 0 9391 0 0 9532 0 0 9286 0 0 9308 0 0 9413 0 0 9337 0 0 9479 0 0 9352 0 0 9438 0 0 9446 0 0 9453 0 0 9476 0 0 9484 0 0 9447 0 0 9419 0 0 9467 0 0 9509 0 0 9348 0 0 9295 0 0 9496 0 0 9562 0 0 9376 0 0 9441 0 0 9367 0 0 9511 0 0 9364 0 0 9533 0 0 9473 0 0 9531 0 0 9700 0 0 9541 0 0 9227 0 0 9486 0 0 9432 0 0 9276 0 0 9372 0 0 9200 0 0 9363 0 0 4743 0 0 67 0 0 9 0 0 12 0 0 6 0 0 4 0 0 8 0 0 8 0 0 10 0 0 12 0 0 
3 0 0 4 0 0 6 0 0 6 0 0 5 0 0 8 0 0 8 0 0 10 0 0 12 0 0 76 0 0 4705 0 0 9306 0 0 9436 0 0 9497 0 0 9418 0 0 9364 0 0 9369 0 0 9421 0 0 9454 0 0 9549 0 0 9371 0 0 9266 0 0 9250 0 0 9535 0 0 9412 0 0 9373 0 0 9472 0 0 9344 0 0 9372 0 0 9355 0 0 9480 0 0 9502 0 0 9414 0 0 9434 0 0 9542 0 0 9430 0 0 9366 0 0 9511 0 0 9501 0 0 9489 0 0 9594 0 0 9482 0 0 9374 0 0 9448 0 0 9468 0 0 9395 0 0 9380 0 0 9467 0 0 9416 0 0 9270 0 0 4727 0 0 78 0 0 15 0 0 12 0 0 9 0 0 3 0 0 7 0 0 5 0 0 7 0 0 9 0 0 
0 0 0 2 0 0 3 0 0 5 0 0 9 0 0 9 0 0 18 0 0 18 0 0 20 0 0 75 0 0 4652 0 0 9337 0 0 9438 0 0 9585 0 0 9497 0 0 9402 0 0 9421 0 0 9475 0 0 9347 0 0 9556 0 0 9520 0 0 9523 0 0 9456 0 0 9297 0 0 9496 0 0 9523 0 0 9460 0 0 9388 0 0 9305 0 0 9441 0 0 9238 0 0 9515 0 0 9342 0 0 9420 0 0 9490 0 0 9549 0 0 9476 0 0 9459 0 0 9583 0 0 9356 0 0 9345 0 0 9516 0 0 9530 0 0 9412 0 0 9340 0 0 9396 0 0 9395 0 0 9389 0 0 9416 0 0 9276 0 0 4715 0 0 80 0 0 16 0 0 12 0 0 13 0 0 12 0 0 7 0 0 7 0 0 5 0 0 4 0 0 
4 0 0 6 0 0 10 0 0 6 0 0 8 0 0 13 0 0 12 0 0 13 0 0 20 0 0 77 0 0 4620 0 0 9289 0 0 9475 0 0 9567 0 0 9378 0 0 9389 0 0 9506 0 0 9439 0 0 9292 0 0 9475 0 0 9377 0 0 9465 0 0 9407 0 0 9347 0 0 9446 0 0 9288 0 0 9364 0 0 9445 0 0 9482 0 0 9210 0 0 9441 0 0 9509 0 0 9435 0 0 9441 0 0 9428 0 0 9425 0 0 9441 0 0 9282 0 0 9346 0 0 9425 0 0 9405 0 0 9396 0 0 9457 0 0 9409 0 0 9407 0 0 9365 0 0 9378 0 0 9296 0 0 9365 0 0 9471 0 0 4706 0 0 79 0 0 24 0 0 9 0 0 13 0 0 10 0 0 8 0 0 8 0 0 8 0 0 7 0 0 
2 0 0 6 0 0 5 0 0 12 0 0 6 0 0 6 0 0 10 0 0 14 0 0 21 0 0 77 0 0 4573 0 0 9331 0 0 9482 0 0 9495 0 0 9344 0 0 9399 0 0 9302 0 0 9374 0 0 9198 0 0 9218 0 0 9559 0 0 9332 0 0 9442 0 0 9489 0 0 9403 0 0 9467 0 0 9303 0 0 9415 0 0 9424 0 0 9360 0 0 9400 0 0 9233 0 0 9414 0 0 9337 0 0 9455 0 0 9385 0 0 9466 0 0 9292 0 0 9374 0 0 9353 0 0 9261 0 0 9341 0 0 9519 0 0 9374 0 0 9321 0 0 9290 0 0 9526 0 0 9421 0 0 9464 0 0 9184 0 0 4731 0 0 65 0 0 18 0 0 14 0 0 5 0 0 4 0 0 8 0 0 8 0 0 6 0 0 5 0 0 
0 0 0 3 0 0 5 0 0 7 0 0 12 0 0 8 0 0 10 0 0 9 0 0 12 0 0 69 0 0 4685 0 0 9245 0 0 9383 0 0 9370 0 0 9276 0 0 9481 0 0 9399 0 0 9351 0 0 9354 0 0 9250 0 0 9315 0 0 9406 0 0 9387 0 0 9580 0 0 9317 0 0 9369 0 0 9553 0 0 9382 0 0 9475 0 0 9429 0 0 9398 0 0 9424 0 0 9518 0 0 9356 0 0 9641 0 0 9411 0 0 9422 0 0 9374 0 0 9451 0 0 9405 0 0 9333 0 0 9522 0 0 9362 0 0 9481 0 0 9371 0 0 9436 0 0 9273 0 0 9405 0 0 9344 0 0 9247 0 0 4629 0 0 69 0 0 15 0 0 16 0 0 10 0 0 16 0 0 9 0 0 7 0 0 8 0 0 5 0 0 
1 0 0 1 0 0 9 0 0 6 0 0 8 0 0 10 0 0 10 0 0 14 0 0 17 0 0 71 0 0 4786 0 0 9145 0 0 9435 0 0 9396 0 0 9340 0 0 9485 0 0 9341 0 0 9495 0 0 9455 0 0 9416 0 0 9345 0 0 9481 0 0 9383 0 0 9550 0 0 9356 0 0 9311 0 0 9473 0 0 9502 0 0 9484 0 0 9496 0 0 9425 0 0 9455 0 0 9345 0 0 9344 0 0 9349 0 0 9560 0 0 9421 0 0 9432 0 0 9292 0 0 9410 0 0 9550 0 0 9451 0 0 9570 0 0 9507 0 0 9477 0 0 9517 0 0 9430 0 0 9321 0 0 9427 0 0 9328 0 0 4739 0 0 84 0 0 21 0 0 11 0 0 13 0 0 8 0 0 7 0 0 5 0 0 5 0 0 7 0 0 
0 0 0 4 0 0 5 0 0 2 0 0 6 0 0 6 0 0 12 0 0 18 0 0 13 0 0 79 0 0 4708 0 0 9423 0 0 9249 0 0 9332 0 0 9473 0 0 9207 0 0 9356 0 0 9480 0 0 9483 0 0 9375 0 0 9441 0 0 9483 0 0 9415 0 0 9489 0 0 9386 0 0 9403 0 0 9321 0 0 9465 0 0 9306 0 0 9272 0 0 9423 0 0 9261 0 0 9470 0 0 9336 0 0 9512 0 0 9365 0 0 9171 0 0 9452 0 0 9467 0 0 9394 0 0 9389 0 0 9267 0 0 9487 0 0 9354 0 0 9365 0 0 9461 0 0 9330 0 0 9444 0 0 9427 0 0 9403 0 0 4609 0 0 84 0 0 28 0 0 19 0 0 11 0 0 12 0 0 6 0 0 7 0 0 7 0 0 7 0 0 
2 0 0 8 0 0 2 0 0 5 0 0 5 0 0 10 0 0 8 0 0 15 0 0 19 0 0 80 0 0 4851 0 0 9237 0 0 9448 0 0 9427 0 0 9300 0 0 9424 0 0 9342 0 0 9591 0 0 9250 0 0 9487 0 0 9266 0 0 9525 0 0 9456 0 0 9363 0 0 9483 0 0 9243 0 0 9533 0 0 9460 0 0 9395 0 0 9426 0 0 9523 0 0 9461 0 0 9275 0 0 9249 0 0 9529 0 0 9335 0 0 9368 0 0 9519 0 0 9466 0 0 9453 0 0 9431 0 0 9334 0 0 9264 0 0 9469 0 0 9378 0 0 9350 0 0 9540 0 0 9321 0 0 9309 0 0 9299 0 0 4744 0 0 79 0 0 25 0 0 24 0 0 15 0 0 15 0 0 11 0 0 7 0 0 6 0 0 8 0 0 
3 0 0 4 0 0 6 0 0 10 0 0 12 0 0 15 0 0 17 0 0 17 0 0 26 0 0 85 0 0 4719 0 0 9343 0 0 9551 0 0 9363 0 0 9544 0 0 9395 0 0 9389 0 0 9504 0 0 9353 0 0 9420 0 0 9419 0 0 9568 0 0 9596 0 0 9496 0 0 9560 0 0 9281 0 0 9563 0 0 9415 0 0 9330 0 0 9393 0 0 9339 0 0 9444 0 0 9410 0 0 9344 0 0 9613 0 0 9548 0 0 9255 0 0 9324 0 0 9462 0 0 9341 0 0 9306 0 0 9285 0 0 9493 0 0 9298 0 0 9289 0 0 9395 0 0 9362 0 0 9392 0 0 9350 0 0 9352 0 0 4630 0 0 73 0 0 11 0 0 12 0 0 13 0 0 12 0 0 9 0 0 9 0 0 8 0 0 7 0 0 
6 0 0 6 0 0 6 0 0 8 0 0 12 0 0 12 0 0 7 0 0 8 0 0 11 0 0 68 0 0 4714 0 0 9378 0 0 9237 0 0 9410 0 0 9293 0 0 9351 0 0 9370 0 0 9451 0 0 9335 0 0 9246 0 0 9319 0 0 9382 0 0 9466 0 0 9431 0 0 9379 0 0 9316 0 0 9533 0 0 9542 0 0 9491 0 0 9418 0 0 9334 0 0 9541 0 0 9428 0 0 9489 0 0 9281 0 0 9379 0 0 9285 0 0 9299 0 0 9326 0 0 9523 0 0 9403 0 0 9490 0 0 9491 0 0 9476 0 0 9348 0 0 9245 0 0 9329 0 0 9531 0 0 9246 0 0 9467 0 0 4649 0 0 89 0 0 12 0 0 14 0 0 13 0 0 11 0 0 9 0 0 6 0 0 2 0 0 2 0 0 
5 0 0 12 0 0 9 0 0 6 0 0 7 0 0 11 0 0 12 0 0 11 0 0 11 0 0 69 0 0 4623 0 0 9313 0 0 9380 0 0 9223 0 0 9426 0 0 9505 0 0 9453 0 0 9543 0 0 9492 0 0 9467 0 0 9359 0 0 9451 0 0 9341 0 0 9253 0 0 9443 0 0 9282 0 0 9464 0 0 9322 0 0 9329 0 0 9432 0 0 9445 0 0 9518 0 0 9482 0 0 9337 0 0 9464 0 0 9420 0 0 9281 0 0 9264 0 0 9263 0 0 9254 0 0 9329 0 0 9428 0 0 9420 0 0 9464 0 0 9377 0 0 9378 0 0 9352 0 0 9492 0 0 9476 0 0 9421 0 0 4745 0 0 86 0 0 17 0 0 16 0 0 16 0 0 14 0 0 8 0 0 7 0 0 6 0 0 6 0 0 
1 0 0 4 0 0 2 0 0 3 0 0 6 0 0 8 0 0 11 0 0 13 0 0 14 0 0 67 0 0 4856 0 0 9275 0 0 9408 0 0 9410 0 0 9334 0 0 9343 0 0 9357 0 0 9291 0 0 9280 0 0 9374 0 0 9318 0 0 9415 0 0 9358 0 0 9289 0 0 9402 0 0 9451 0 0 9413 0 0 9470 0 0 9543 0 0 9278 0 0 9487 0 0 9528 0 0 9350 0 0 9310 0 0 9429 0 0 9544 0 0 9552 0 0 9325 0 0 9349 0 0 9466 0 0 9374 0 0 9433 0 0 9439 0 0 9506 0 0 9355 0 0 9459 0 0 9625 0 0 9433 0 0 9381 0 0 9165 0 0 4702 0 0 86 0 0 23 0 0 19 0 0 12 0 0 4 0 0 3 0 0 5 0 0 2 0 0 6 0 0 
2 0 0 6 0 0 6 0 0 8 0 0 6 0 0 10 0 0 14 0 0 11 0 0 10 0 0 63 0 0 4788 0 0 9282 0 0 9328 0 0 9392 0 0 9482 0 0 9347 0 0 9322 0 0 9448 0 0 9382 0 0 9277 0 0 9406 0 0 9272 0 0 9499 0 0 9489 0 0 9553 0 0 9327 0 0 9286 0 0 9376 0 0 9540 0 0 9340 0 0 9490 0 0 9348 0 0 9305 0 0 9411 0 0 9411 0 0 9421 0 0 9500 0 0 9249 0 0 9349 0 0 9435 0 0 9484 0 0 9338 0 0 9456 0 0 9405 0 0 9456 0 0 9582 0 0 9308 0 0 9361 0 0 9425 0 0 9451 0 0 4808 0 0 78 0 0 17 0 0 15 0 0 13 0 0 15 0 0 12 0 0 4 0 0 10 0 0 6 0 0 
2 0 0 5 0 0 6 0 0 10 0 0 6 0 0 7 0 0 7 0 0 18 0 0 19 0 0 71 0 0 4694 0 0 9380 0 0 9404 0 0 9457 0 0 9303 0 0 9321 0 0 9401 0 0 9313 0 0 9417 0 0 9418 0 0 9371 0 0 9361 0 0 9448 0 0 9251 0 0 9574 0 0 9444 0 0 9435 0 0 9340 0 0 9265 0 0 9498 0 0 9305 0 0 9289 0 0 9361 0 0 9262 0 0 9582 0 0 9437 0 0 9337 0 0 9497 0 0 9402 0 0 9316 0 0 9398 0 0 9284 0 0 9365 0 0 9513 0 0 9434 0 0 9417 0 0 9343 0 0 9339 0 0 9531 0 0 9257 0 0 4600 0 0 78 0 0 26 0 0 13 0 0 7 0 0 3 0 0 3 0 0 5 0 0 8 0 0 5 0 0 
2 0 0 6 0 0 7 0 0 4 0 0 7 0 0 12 0 0 19 0 0 12 0 0 22 0 0 69 0 0 4627 0 0 9433 0 0 9400 0 0 9424 0 0 9362 0 0 9481 0 0 9421 0 0 9523 0 0 9461 0 0 9472 0 0 9481 0 0 9441 0 0 9447 0 0 9494 0 0 9476 0 0 9416 0 0 9278 0 0 9542 0 0 9288 0 0 9464 0 0 9343 0 0 9372 0 0 9523 0 0 9400 0 0 9294 0 0 9446 0 0 9528 0 0 9482 0 0 9278 0 0 9450 0 0 9331 0 0 9277 0 0 9353 0 0 9493 0 0 9335 0 0 9428 0 0 9367 0 0 9541 0 0 9451 0 0 9381 0 0 4675 0 0 88 0 0 17 0 0 15 0 0 13 0 0 8 0 0 11 0 0 9 0 0 5 0 0 1 0 0 
1 0 0 5 0 0 8 0 0 8 0 0 17 0 0 12 0 0 16 0 0 22 0 0 24 0 0 79 0 0 4651 0 0 9273 0 0 9343 0 0 9490 0 0 9411 0 0 9320 0 0 9442 0 0 9352 0 0 9288 0 0 9464 0 0 9410 0 0 9416 0 0 9499 0 0 9450 0 0 9314 0 0 9411 0 0 9612 0 0 9442 0 0 9389 0 0 9565 0 0 9306 0 0 9422 0 0 9356 0 0 9412 0 0 9377 0 0 9457 0 0 9497 0 0 9504 0 0 9378 0 0 9316 0 0 9384 0 0 9505 0 0 9331 0 0 9403 0 0 9436 0 0 9354 0 0 9444 0 0 9607 0 0 9461 0 0 9382 0 0 4653 0 0 75 0 0 18 0 0 8 0 0 12 0 0 14 0 0 8 0 0 9 0 0 5 0 0 8 0 0 
3 0 0 6 0 0 4 0 0 9 0 0 5 0 0 5 0 0 9 0 0 15 0 0 23 0 0 77 0 0 4640 0 0 9348 0 0 9283 0 0 9291 0 0 9432 0 0 9257 0 0 9527 0 0 9415 0 0 9471 0 0 9342 0 0 9406 0 0 9457 0 0 9365 0 0 9342 0 0 9427 0 0 9371 0 0 9520 0 0 9421 0 0 9407 0 0 9339 0 0 9417 0 0 9455 0 0 9389 0 0 9253 0 0 9366 0 0 9320 0 0 9375 0 0 9481 0 0 9472 0 0 9498 0 0 9416 0 0 9437 0 0 9450 0 0 9663 0 0 9333 0 0 9377 0 0 9573 0 0 9256 0 0 9310 0 0 9244 0 0 4680 0 0 67 0 0 20 0 0 9 0 0 6 0 0 7 0 0 6 0 0 9 0 0 3 0 0 3 0 0 
0 0 0 4 0 0 7 0 0 9 0 0 3 0 0 8 0 0 6 0 0 15 0 0 20 0 0 77 0 0 4732 0 0 9403 0 0 9401 0 0 9391 0 0 9502 0 0 9548 0 0 9381 0 0 9303 0 0 9296 0 0 9291 0 0 9415 0 0 9362 0 0 9496 0 0 9248 0 0 9416 0 0 9435 0 0 9571 0 0 9412 0 0 9499 0 0 9389 0 0 9311 0 0 9427 0 0 9522 0 0 9395 0 0 9499 0 0 9378 0 0 9425 0 0 9335 0 0 9453 0 0 9504 0 0 9368 0 0 9421 0 0 9538 0 0 9271 0 0 9458 0 0 9421 0 0 9287 0 0 9610 0 0 9369 0 0 9348 0 0 4633 0 0 80 0 0 20 0 0 20 0 0 13 0 0 11 0 0 11 0 0 4 0 0 3 0 0 2 0 0 
1 0 0 2 0 0 4 0 0 4 0 0 5 0 0 5 0 0 13 0 0 12 0 0 12 0 0 77 0 0 4704 0 0 9369 0 0 9633 0 0 9452 0 0 9636 0 0 9282 0 0 9472 0 0 9397 0 0 9478 0 0 9297 0 0 9410 0 0 9321 0 0 9386 0 0 9650 0 0 9320 0 0 9371 0 0 9446 0 0 9394 0 0 9254 0 0 9613 0 0 9553 0 0 9350 0 0 9390 0 0 9412 0 0 9423 0 0 9554 0 0 9441 0 0 9351 0 0 9299 0 0 9505 0 0 9460 0 0 9498 0 0 9381 0 0 9342 0 0 9498 0 0 9469 0 0 9456 0 0 9408 0 0 9389 0 0 9218 0 0 4701 0 0 75 0 0 17 0 0 12 0 0 21 0 0 13 0 0 3 0 0 1 0 0 5 0 0 4 0 0 
2 0 0 4 0 0 5 0 0 5 0 0 7 0 0 10 0 0 12 0 0 14 0 0 9 0 0 84 0 0 4715 0 0 9370 0 0 9418 0 0 9282 0 0 9311 0 0 9429 0 0 9377 0 0 9426 0 0 9408 0 0 9495 0 0 9517 0 0 9430 0 0 9482 0 0 9425 0 0 9366 0 0 9366 0 0 9337 0 0 9332 0 0 9389 0 0 9462 0 0 9538 0 0 9444 0 0 9492 0 0 9457 0 0 9565 0 0 9267 0 0 9469 0 0 9447 0 0 9450 0 0 9405 0 0 9552 0 0 9280 0 0 9534 0 0 9493 0 0 9420 0 0 9450 0 0 9312 0 0 9393 0 0 9579 0 0 9406 0 0 4746 0 0 58 0 0 13 0 0 6 0 0 8 0 0 6 0 0 6 0 0 5 0 0 6 0 0 2 0 0 
2 0 0 5 0 0 6 0 0 8 0 0 10 0 0 6 0 0 10 0 0 14 0 0 17 0 0 77 0 0 4610 0 0 9405 0 0 9369 0 0 9440 0 0 9365 0 0 9590 0 0 9403 0 0 9374 0 0 9428 0 0 9452 0 0 9509 0 0 9466 0 0 9361 0 0 9414 0 0 9405 0 0 9340 0 0 9409 0 0 9464 0 0 9338 0 0 9518 0 0 9285 0 0 9336 0 0 9364 0 0 9571 0 0 9369 0 0 9365 0 0 9376 0 0 9353 0 0 9400 0 0 9442 0 0 9436 0 0 9383 0 0 9525 0 0 9370 0 0 9338 0 0 9207 0 0 9394 0 0 9361 0 0 9373 0 0 9380 0 0 4762 0 0 69 0 0 16 0 0 10 0 0 9 0 0 6 0 0 3 0 0 5 0 0 4 0 0 7 0 0 
3 0 0 4 0 0 1 0 0 5 0 0 6 0 0 8 0 0 5 0 0 11 0 0 12 0 0 82 0 0 4722 0 0 9408 0 0 9138 0 0 9384 0 0 9449 0 0 9669 0 0 9538 0 0 9438 0 0 9532 0 0 9473 0 0 9265 0 0 9467 0 0 9181 0 0 9363 0 0 9327 0 0 9311 0 0 9404 0 0 9326 0 0 9483 0 0 9416 0 0 9214 0 0 9477 0 0 9495 0 0 9433 0 0 9523 0 0 9549 0 0 9460 0 0 9355 0 0 9343 0 0 9509 0 0 9475 0 0 9289 0 0 9338 0 0 9355 0 0 9370 0 0 9406 0 0 9351 0 0 9452 0 0 9405 0 0 9263 0 0 4689 0 0 83 0 0 17 0 0 12 0 0 7 0 0 9 0 0 4 0 0 5 0 0 4 0 0 5 0 0 
1 0 0 2 0 0 3 0 0 2 0 0 3 0 0 7 0 0 6 0 0 13 0 0 11 0 0 76 0 0 4677 0 0 9347 0 0 9347 0 0 9320 0 0 9330 0 0 9330 0 0 9269 0 0 9404 0 0 9433 0 0 9510 0 0 9580 0 0 9379 0 0 9269 0 0 9430 0 0 9505 0 0 9369 0 0 9241 0 0 9223 0 0 9451 0 0 9503 0 0 9292 0 0 9459 0 0 9384 0 0 9405 0 0 9480 0 0 9330 0 0 9394 0 0 9436 0 0 9358 0 0 9298 0 0 9321 0 0 9491 0 0 9368 0 0 9350 0 0 9479 0 0 9390 0 0 9366 0 0 9100 0 0 9435 0 0 9428 0 0 4718 0 0 88 0 0 22 0 0 12 0 0 14 0 0 7 0 0 2 0 0 4 0 0 5 0 0 8 0 0 
0 0 0 3 0 0 7 0 0 7 0 0 8 0 0 7 0 0 11 0 0 13 0 0 19 0 0 74 0 0 4734 0 0 9311 0 0 9301 0 0 9350 0 0 9196 0 0 9454 0 0 9383 0 0 9289 0 0 9532 0 0 9394 0 0 9469 0 0 9363 0 0 9442 0 0 9432 0 0 9377 0 0 9321 0 0 9392 0 0 9407 0 0 9125 0 0 9241 0 0 9340 0 0 9486 0 0 9455 0 0 9473 0 0 9367 0 0 9327 0 0 9533 0 0 9312 0 0 9390 0 0 9368 0 0 9486 0 0 9354 0 0 9471 0 0 9411 0 0 9559 0 0 9434 0 0 9233 0 0 9301 0 0 9375 0 0 9306 0 0 4683 0 0 83 0 0 15 0 0 12 0 0 8 0 0 6 0 0 9 0 0 4 0 0 3 0 0 2 0 0 
2 0 0 6 0 0 3 0 0 5 0 0 4 0 0 11 0 0 12 0 0 7 0 0 13 0 0 79 0 0 4715 0 0 9175 0 0 9416 0 0 9444 0 0 9484 0 0 9389 0 0 9363 0 0 9378 0 0 9251 0 0 9294 0 0 9507 0 0 9318 0 0 9470 0 0 9315 0 0 9350 0 0 9325 0 0 9345 0 0 9349 0 0 9454 0 0 9361 0 0 9441 0 0 9221 0 0 9264 0 0 9485 0 0 9408 0 0 9353 0 0 9379 0 0 9344 0 0 9235 0 0 9397 0 0 9384 0 0 9309 0 0 9516 0 0 9190 0 0 9298 0 0 9438 0 0 9297 0 0 9473 0 0 9454 0 0 9297 0 0 4804 0 0 74 0 0 10 0 0 8 0 0 14 0 0 9 0 0 5 0 0 7 0 0 7 0 0 6 0 0 
0 0 0 3 0 0 8 0 0 9 0 0 7 0 0 7 0 0 10 0 0 11 0 0 16 0 0 61 0 0 4706 0 0 9336 0 0 9403 0 0 9404 0 0 9488 0 0 9363 0 0 9397 0 0 9218 0 0 9472 0 0 9235 0 0 9419 0 0 9441 0 0 9410 0 0 9391 0 0 9363 0 0 9340 0 0 9387 0 0 9436 0 0 9421 0 0 9401 0 0 9515 0 0 9320 0 0 9385 0 0 9330 0 0 9249 0 0 9402 0 0 9380 0 0 9285 0 0 9345 0 0 9409 0 0 9312 0 0 9484 0 0 9267 0 0 9517 0 0 9389 0 0 9348 0 0 9506 0 0 9573 0 0 9138 0 0 9294 0 0 4682 0 0 72 0 0 12 0 0 9 0 0 7 0 0 7 0 0 7 0 0 11 0 0 7 0 0 7 0 0 
1 0 0 5 0 0 6 0 0 3 0 0 8 0 0 7 0 0 6 0 0 9 0 0 14 0 0 55 0 0 4804 0 0 9198 0 0 9371 0 0 9376 0 0 9381 0 0 9354 0 0 9310 0 0 9572 0 0 9454 0 0 9300 0 0 9319 0 0 9398 0 0 9543 0 0 9273 0 0 9238 0 0 9378 0 0 9318 0 0 9369 0 0 9488 0 0 9408 0 0 9372 0 0 9458 0 0 9462 0 0 9262 0 0 9324 0 0 9281 0 0 9272 0 0 9425 0 0 9466 0 0 9271 0 0 9613 0 0 9423 0 0 9425 0 0 9374 0 0 9471 0 0 9524 0 0 9300 0 0 9444 0 0 9543 0 0 9380 0 0 4780 0 0 72 0 0 17 0 0 9 0 0 13 0 0 11 0 0 7 0 0 7 0 0 9 0 0 8 0 0 
1 0 0 2 0 0 3 0 0 5 0 0 3 0 0 4 0 0 10 0 0 9 0 0 8 0 0 66 0 0 4668 0 0 9245 0 0 9233 0 0 9248 0 0 9438 0 0 9308 0 0 9437 0 0 9321 0 0 9348 0 0 9399 0 0 9435 0 0 9305 0 0 9375 0 0 9440 0 0 9305 0 0 9197 0 0 9347 0 0 9369 0 0 9410 0 0 9410 0 0 9370 0 0 9124 0 0 9370 0 0 9228 0 0 9240 0 0 9329 0 0 9334 0 0 9371 0 0 9346 0 0 9279 0 0 9287 0 0 9457 0 0 9186 0 0 9318 0 0 9350 0 0 9301 0 0 9318 0 0 9304 0 0 9392 0 0 9418 0 0 4781 0 0 63 0 0 12 0 0 15 0 0 7 0 0 12 0 0 6 0 0 3 0 0 2 0 0 7 0 0 
0 0 0 3 0 0 2 0 0 8 0 0 8 0 0 5 0 0 10 0 0 6 0 0 4 0 0 34 0 0 2365 0 0 4694 0 0 4658 0 0 4656 0 0 4734 0 0 4738 0 0 4692 0 0 4708 0 0 4758 0 0 4781 0 0 4695 0 0 4816 0 0 4645 0 0 4653 0 0 4685 0 0 4833 0 0 4705 0 0 4701 0 0 4704 0 0 4780 0 0 4679 0 0 4599 0 0 4591 0 0 4698 0 0 4676 0 0 4667 0 0 4671 0 0 4597 0 0 4667 0 0 4714 0 0 4679 0 0 4685 0 0 4649 0 0 4748 0 0 4749 0 0 4727 0 0 4715 0 0 4800 0 0 4759 0 0 4641 0 0 2408 0 0 43 0 0 10 0 0 9 0 0 2 0 0 4 0 0 7 0 0 5 0 0 10 0 0 8 0 0 
1 0 0 2 0 0 4 0 0 5 0 0 5 0 0 6 0 0 2 0 0 8 0 0 11 0 0 15 0 0 35 0 0 64 0 0 74 0 0 65 0 0 68 0 0 72 0 0 80 0 0 73 0 0 79 0 0 75 0 0 79 0 0 83 0 0 89 0 0 74 0 0 70 0 0 63 0 0 63 0 0 86 0 0 74 0 0 87 0 0 74 0 0 76 0 0 88 0 0 76 0 0 73 0 0 64 0 0 90 0 0 85 0 0 74 0 0 69 0 0 70 0 0 71 0 0 68 0 0 67 0 0 74 0 0 80 0 0 79 0 0 89 0 0 59 0 0 64 0 0 42 0 0 8 0 0 6 0 0 8 0 0 8 0 0 3 0 0 5 0 0 4 0 0 8 0 0 13 0 0 
0 0 0 3 0 0 3 0 0 5 0 0 5 0 0 2 0 0 5 0 0 10 0 0 5 0 0 7 0 0 13 0 0 11 0 0 11 0 0 15 0 0 11 0 0 23 0 0 21 0 0 13 0 0 15 0 0 19 0 0 21 0 0 19 0 0 22 0 0 22 0 0 15 0 0 19 0 0 16 0 0 11 0 0 17 0 0 20 0 0 17 0 0 20 0 0 18 0 0 18 0 0 24 0 0 19 0 0 18 0 0 21 0 0 17 0 0 13 0 0 11 0 0 15 0 0 14 0 0 16 0 0 20 0 0 15 0 0 13 0 0 13 0 0 22 0 0 13 0 0 10 0 0 10 0 0 7 0 0 8 0 0 7 0 0 6 0 0 5 0 0 6 0 0 3 0 0 4 0 0 
3 0 0 6 0 0 5 0 0 6 0 0 2 0 0 3 0 0 6 0 0 8 0 0 4 0 0 10 0 0 14 0 0 12 0 0 9 0 0 10 0 0 10 0 0 12 0 0 15 0 0 14 0 0 11 0 0 15 0 0 25 0 0 24 0 0 12 0 0 15 0 0 9 0 0 11 0 0 13 0 0 7 0 0 12 0 0 21 0 0 16 0 0 19 0 0 10 0 0 16 0 0 19 0 0 16 0 0 12 0 0 15 0 0 18 0 0 16 0 0 10 0 0 14 0 0 8 0 0 7 0 0 8 0 0 7 0 0 4 0 0 6 0 0 12 0 0 11 0 0 8 0 0 7 0 0 6 0 0 8 0 0 4 0 0 2 0 0 4 0 0 4 0 0 5 0 0 4 0 0 
2 0 0 3 0 0 6 0 0 5 0 0 1 0 0 7 0 0 5 0 0 5 0 0 4 0 0 6 0 0 11 0 0 6 0 0 10 0 0 10 0 0 10 0 0 6 0 0 7 0 0 13 0 0 10 0 0 17 0 0 12 0 0 16 0 0 10 0 0 9 0 0 5 0 0 7 0 0 7 0 0 11 0 0 11 0 0 12 0 0 14 0 0 14 0 0 8 0 0 9 0 0 16 0 0 15 0 0 11 0 0 5 0 0 12 0 0 15 0 0 12 0 0 4 0 0 7 0 0 9 0 0 6 0 0 3 0 0 6 0 0 0 0 0 6 0 0 3 0 0 7 0 0 7 0 0 5 0 0 8 0 0 5 0 0 2 0 0 4 0 0 2 0 0 7 0 0 0 0 0 
0 0 0 2 0 0 4 0 0 4 0 0 8 0 0 1 0 0 5 0 0 4 0 0 3 0 0 6 0 0 4 0 0 5 0 0 7 0 0 2 0 0 10 0 0 6 0 0 12 0 0 10 0 0 5 0 0 11 0 0 11 0 0 8 0 0 6 0 0 8 0 0 10 0 0 10 0 0 11 0 0 9 0 0 3 0 0 11 0 0 5 0 0 8 0 0 8 0 0 11 0 0 15 0 0 16 0 0 8 0 0 11 0 0 8 0 0 12 0 0 6 0 0 6 0 0 6 0 0 6 0 0 5 0 0 4 0 0 7 0 0 4 0 0 9 0 0 2 0 0 2 0 0 5 0 0 2 0 0 2 0 0 2 0 0 6 0 0 5 0 0 6 0 0 4 0 0 5 0 0 
2 0 0 2 0 0 4 0 0 5 0 0 1 0 0 3 0 0 6 0 0 6 0 0 5 0 0 7 0 0 10 0 0 2 0 0 7 0 0 3 0 0 3 0 0 5 0 0 4 0 0 5 0 0 8 0 0 12 0 0 5 0 0 7 0 0 11 0 0 4 0 0 8 0 0 7 0 0 10 0 0 9 0 0 12 0 0 7 0 0 7 0 0 5 0 0 10 0 0 3 0 0 16 0 0 13 0 0 8 0 0 8 0 0 8 0 0 3 0 0 6 0 0 3 0 0 9 0 0 1 0 0 2 0 0 5 0 0 4 0 0 4 0 0 5 0 0 2 0 0 2 0 0 3 0 0 4 0 0 3 0 0 2 0 0 0 0 0 2 0 0 4 0 0 7 0 0 4 0 0 
0 0 0 3 0 0 5 0 0 1 0 0 1 0 0 8 0 0 8 0 0 3 0 0 9 0 0 7 0 0 9 0 0 6 0 0 4 0 0 3 0 0 2 0 0 1 0 0 4 0 0 9 0 0 11 0 0 6 0 0 7 0 0 6 0 0 10 0 0 4 0 0 5 0 0 9 0 0 9 0 0 4 0 0 9 0 0 5 0 0 7 0 0 11 0 0 12 0 0 4 0 0 8 0 0 9 0 0 6 0 0 4 0 0 7 0 0 10 0 0 9 0 0 3 0 0 9 0 0 1 0 0 5 0 0 3 0 0 1 0 0 8 0 0 8 0 0 6 0 0 4 0 0 0 0 0 3 0 0 2 0 0 2 0 0 0 0 0 1 0 0 1 0 0 2 0 0 3 0 0 
0 0 0 3 0 0 4 0 0 2 0 0 6 0 0 10 0 0 2 0 0 5 0 0 6 0 0 6 0 0 8 0 0 4 0 0 2 0 0 8 0 0 2 0 0 4 0 0 3 0 0 10 0 0 8 0 0 2 0 0 3 0 0 4 0 0 5 0 0 4 0 0 8 0 0 5 0 0 9 0 0 3 0 0 7 0 0 8 0 0 11 0 0 8 0 0 7 0 0 5 0 0 9 0 0 6 0 0 7 0 0 2 0 0 2 0 0 7 0 0 5 0 0 6 0 0 9 0 0 5 0 0 3 0 0 5 0 0 6 0 0 6 0 0 6 0 0 3 0 0 6 0 0 2 0 0 3 0 0 3 0 0 2 0 0 2 0 0 1 0 0 1 0 0 2 0 0 1 0 0 
2 0 0 3 0 0 1 0 0 0 0 0 5 0 0 1 0 0 4 0 0 7 0 0 6 0 0 6 0 0 5 0 0 1 0 0 3 0 0 7 0 0 1 0 0 4 0 0 4 0 0 3 0 0 7 0 0 6 0 0 4 0 0 2 0 0 5 0 0 8 0 0 5 0 0 2 0 0 7 0 0 3 0 0 5 0 0 6 0 0 11 0 0 5 0 0 3 0 0 2 0 0 7 0 0 4 0 0 11 0 0 7 0 0 4 0 0 5 0 0 5 0 0 5 0 0 7 0 0 7 0 0 7 0 0 2 0 0 6 0 0 3 0 0 6 0 0 2 0 0 0 0 0 2 0 0 2 0 0 3 0 0 4 0 0 4 0 0 4 0 0 2 0 0 1 0 0 1 0 0 
