P3
# This is a dose file slice at depth 7 of 100
60 60
# now we give the maximum value of the RGB coordinates.
32965
1 0 0 3 0 0 3 0 0 6 0 0 5 0 0 5 0 0 0 0 0 3 0 0 1 0 0 2 0 0 5 0 0 4 0 0 6 0 0 7 0 0 2 0 0 3 0 0 2 0 0 5 0 0 4 0 0 5 0 0 7 0 0 7 0 0 8 0 0 7 0 0 3 0 0 5 0 0 8 0 0 3 0 0 4 0 0 6 0 0 5 0 0 4 0 0 6 0 0 9 0 0 7 0 0 8 0 0 12 0 0 7 0 0 8 0 0 4 0 0 7 0 0 5 0 0 4 0 0 7 0 0 5 0 0 4 0 0 3 0 0 5 0 0 5 0 0 10 0 0 6 0 0 2 0 0 1 0 0 3 0 0 5 0 0 1 0 0 2 0 0 3 0 0 2 0 0 4 0 0 
2 0 0 5 0 0 6 0 0 7 0 0 8 0 0 10 0 0 9 0 0 9 0 0 7 0 0 4 0 0 9 0 0 13 0 0 10 0 0 18 0 0 11 0 0 4 0 0 9 0 0 6 0 0 11 0 0 10 0 0 14 0 0 16 0 0 16 0 0 15 0 0 12 0 0 10 0 0 19 0 0 10 0 0 9 0 0 13 0 0 13 0 0 14 0 0 12 0 0 16 0 0 16 0 0 25 0 0 20 0 0 17 0 0 15 0 0 14 0 0 10 0 0 10 0 0 13 0 0 16 0 0 7 0 0 7 0 0 9 0 0 9 0 0 18 0 0 14 0 0 14 0 0 4 0 0 6 0 0 9 0 0 5 0 0 6 0 0 6 0 0 8 0 0 4 0 0 4 0 0 
3 0 0 4 0 0 8 0 0 6 0 0 7 0 0 11 0 0 8 0 0 7 0 0 8 0 0 4 0 0 9 0 0 7 0 0 12 0 0 18 0 0 14 0 0 10 0 0 9 0 0 9 0 0 13 0 0 7 0 0 16 0 0 18 0 0 13 0 0 21 0 0 22 0 0 20 0 0 10 0 0 16 0 0 12 0 0 13 0 0 13 0 0 19 0 0 14 0 0 14 0 0 21 0 0 23 0 0 19 0 0 17 0 0 15 0 0 18 0 0 8 0 0 19 0 0 14 0 0 13 0 0 8 0 0 7 0 0 5 0 0 14 0 0 15 0 0 18 0 0 10 0 0 4 0 0 8 0 0 7 0 0 3 0 0 8 0 0 10 0 0 4 0 0 0 0 0 3 0 0 
2 0 0 3 0 0 6 0 0 8 0 0 3 0 0 11 0 0 10 0 0 10 0 0 7 0 0 7 0 0 8 0 0 14 0 0 11 0 0 17 0 0 21 0 0 18 0 0 14 0 0 14 0 0 13 0 0 13 0 0 13 0 0 16 0 0 14 0 0 20 0 0 25 0 0 17 0 0 11 0 0 14 0 0 19 0 0 13 0 0 13 0 0 24 0 0 16 0 0 14 0 0 21 0 0 24 0 0 24 0 0 17 0 0 24 0 0 19 0 0 7 0 0 20 0 0 19 0 0 15 0 0 8 0 0 8 0 0 15 0 0 18 0 0 14 0 0 20 0 0 9 0 0 3 0 0 9 0 0 11 0 0 11 0 0 10 0 0 9 0 0 2 0 0 2 0 0 4 0 0 
3 0 0 3 0 0 2 0 0 6 0 0 12 0 0 6 0 0 13 0 0 18 0 0 12 0 0 8 0 0 7 0 0 12 0 0 20 0 0 17 0 0 18 0 0 18 0 0 16 0 0 12 0 0 19 0 0 18 0 0 15 0 0 20 0 0 17 0 0 22 0 0 19 0 0 18 0 0 16 0 0 16 0 0 18 0 0 19 0 0 13 0 0 23 0 0 19 0 0 15 0 0 30 0 0 33 0 0 14 0 0 22 0 0 24 0 0 26 0 0 13 0 0 16 0 0 20 0 0 17 0 0 12 0 0 16 0 0 21 0 0 15 0 0 7 0 0 17 0 0 8 0 0 5 0 0 9 0 0 12 0 0 11 0 0 6 0 0 5 0 0 3 0 0 5 0 0 9 0 0 
0 0 0 9 0 0 10 0 0 6 0 0 9 0 0 11 0 0 10 0 0 13 0 0 13 0 0 13 0 0 13 0 0 11 0 0 20 0 0 25 0 0 19 0 0 25 0 0 17 0 0 16 0 0 22 0 0 25 0 0 22 0 0 22 0 0 23 0 0 19 0 0 17 0 0 21 0 0 20 0 0 23 0 0 22 0 0 20 0 0 21 0 0 27 0 0 26 0 0 26 0 0 25 0 0 30 0 0 31 0 0 24 0 0 28 0 0 20 0 0 26 0 0 18 0 0 26 0 0 18 0 0 14 0 0 17 0 0 17 0 0 20 0 0 14 0 0 17 0 0 9 0 0 8 0 0 15 0 0 12 0 0 6 0 0 4 0 0 1 0 0 7 0 0 10 0 0 7 0 0 
4 0 0 3 0 0 9 0 0 12 0 0 14 0 0 12 0 0 11 0 0 13 0 0 17 0 0 18 0 0 15 0 0 19 0 0 20 0 0 31 0 0 30 0 0 30 0 0 24 0 0 37 0 0 30 0 0 22 0 0 29 0 0 27 0 0 26 0 0 28 0 0 30 0 0 30 0 0 28 0 0 21 0 0 34 0 0 23 0 0 31 0 0 26 0 0 45 0 0 29 0 0 28 0 0 31 0 0 42 0 0 26 0 0 24 0 0 31 0 0 19 0 0 26 0 0 27 0 0 24 0 0 17 0 0 24 0 0 19 0 0 26 0 0 14 0 0 28 0 0 17 0 0 17 0 0 12 0 0 10 0 0 4 0 0 4 0 0 7 0 0 10 0 0 8 0 0 5 0 0 
3 0 0 6 0 0 6 0 0 7 0 0 15 0 0 13 0 0 12 0 0 15 0 0 16 0 0 18 0 0 23 0 0 20 0 0 19 0 0 31 0 0 33 0 0 43 0 0 37 0 0 35 0 0 37 0 0 37 0 0 39 0 0 33 0 0 30 0 0 40 0 0 35 0 0 38 0 0 33 0 0 27 0 0 25 0 0 34 0 0 42 0 0 47 0 0 45 0 0 29 0 0 31 0 0 36 0 0 27 0 0 29 0 0 34 0 0 25 0 0 30 0 0 28 0 0 32 0 0 26 0 0 31 0 0 27 0 0 24 0 0 25 0 0 19 0 0 26 0 0 14 0 0 13 0 0 14 0 0 14 0 0 6 0 0 12 0 0 9 0 0 10 0 0 14 0 0 5 0 0 
5 0 0 6 0 0 4 0 0 4 0 0 5 0 0 11 0 0 14 0 0 14 0 0 22 0 0 23 0 0 24 0 0 34 0 0 31 0 0 37 0 0 35 0 0 30 0 0 48 0 0 50 0 0 51 0 0 43 0 0 52 0 0 37 0 0 42 0 0 44 0 0 51 0 0 48 0 0 45 0 0 45 0 0 37 0 0 39 0 0 46 0 0 60 0 0 50 0 0 44 0 0 33 0 0 43 0 0 44 0 0 47 0 0 42 0 0 48 0 0 45 0 0 48 0 0 40 0 0 47 0 0 36 0 0 44 0 0 35 0 0 28 0 0 31 0 0 30 0 0 22 0 0 10 0 0 13 0 0 11 0 0 10 0 0 15 0 0 11 0 0 11 0 0 2 0 0 3 0 0 
2 0 0 4 0 0 9 0 0 13 0 0 11 0 0 11 0 0 12 0 0 16 0 0 28 0 0 33 0 0 92 0 0 159 0 0 196 0 0 187 0 0 179 0 0 171 0 0 173 0 0 184 0 0 173 0 0 177 0 0 179 0 0 193 0 0 159 0 0 172 0 0 179 0 0 182 0 0 191 0 0 175 0 0 189 0 0 177 0 0 175 0 0 187 0 0 195 0 0 176 0 0 192 0 0 164 0 0 167 0 0 188 0 0 193 0 0 170 0 0 186 0 0 182 0 0 175 0 0 171 0 0 194 0 0 194 0 0 166 0 0 171 0 0 183 0 0 169 0 0 85 0 0 21 0 0 12 0 0 11 0 0 20 0 0 11 0 0 9 0 0 7 0 0 7 0 0 9 0 0 
4 0 0 12 0 0 12 0 0 10 0 0 12 0 0 22 0 0 22 0 0 22 0 0 24 0 0 94 0 0 7157 0 0 14255 0 0 14581 0 0 14238 0 0 14325 0 0 14578 0 0 14534 0 0 14323 0 0 14363 0 0 14410 0 0 14439 0 0 14421 0 0 14218 0 0 14306 0 0 14452 0 0 14332 0 0 14498 0 0 14185 0 0 14355 0 0 14440 0 0 14334 0 0 14250 0 0 14313 0 0 14155 0 0 14419 0 0 14211 0 0 14317 0 0 14435 0 0 14325 0 0 14308 0 0 14271 0 0 14451 0 0 14414 0 0 14198 0 0 14306 0 0 14327 0 0 14297 0 0 14367 0 0 14448 0 0 14277 0 0 7278 0 0 92 0 0 21 0 0 16 0 0 11 0 0 13 0 0 11 0 0 11 0 0 8 0 0 7 0 0 
2 0 0 6 0 0 10 0 0 7 0 0 10 0 0 17 0 0 14 0 0 21 0 0 35 0 0 164 0 0 14280 0 0 28228 0 0 28502 0 0 28501 0 0 28677 0 0 28449 0 0 28484 0 0 28577 0 0 28580 0 0 28609 0 0 28761 0 0 28394 0 0 28493 0 0 28635 0 0 28399 0 0 28625 0 0 28765 0 0 28676 0 0 28617 0 0 28370 0 0 28478 0 0 28368 0 0 28459 0 0 28371 0 0 28530 0 0 28463 0 0 28752 0 0 28610 0 0 28671 0 0 28487 0 0 28487 0 0 28631 0 0 28626 0 0 28486 0 0 28639 0 0 28875 0 0 28521 0 0 28633 0 0 28491 0 0 28400 0 0 14218 0 0 161 0 0 27 0 0 22 0 0 20 0 0 20 0 0 11 0 0 10 0 0 5 0 0 3 0 0 
4 0 0 4 0 0 9 0 0 9 0 0 8 0 0 16 0 0 20 0 0 23 0 0 41 0 0 170 0 0 14293 0 0 28576 0 0 28727 0 0 28954 0 0 28533 0 0 28672 0 0 28578 0 0 28856 0 0 28929 0 0 28685 0 0 28606 0 0 28949 0 0 28575 0 0 28699 0 0 28595 0 0 28586 0 0 28486 0 0 28810 0 0 29052 0 0 28590 0 0 28646 0 0 28743 0 0 28787 0 0 28610 0 0 28955 0 0 28677 0 0 28820 0 0 28779 0 0 28629 0 0 28761 0 0 28653 0 0 28724 0 0 28378 0 0 28763 0 0 28827 0 0 28541 0 0 28687 0 0 28455 0 0 28646 0 0 28278 0 0 14385 0 0 182 0 0 29 0 0 18 0 0 12 0 0 5 0 0 8 0 0 6 0 0 9 0 0 10 0 0 
4 0 0 6 0 0 11 0 0 19 0 0 21 0 0 20 0 0 20 0 0 32 0 0 35 0 0 179 0 0 14441 0 0 28671 0 0 28568 0 0 28785 0 0 28522 0 0 28642 0 0 28702 0 0 28857 0 0 28745 0 0 28829 0 0 28662 0 0 28825 0 0 28760 0 0 28742 0 0 28530 0 0 28459 0 0 28656 0 0 28675 0 0 28861 0 0 28725 0 0 28453 0 0 28715 0 0 28507 0 0 28577 0 0 28867 0 0 28753 0 0 29089 0 0 28549 0 0 28433 0 0 28753 0 0 28782 0 0 28734 0 0 28699 0 0 28889 0 0 28740 0 0 28518 0 0 28535 0 0 28878 0 0 28523 0 0 28537 0 0 14463 0 0 178 0 0 41 0 0 28 0 0 19 0 0 17 0 0 19 0 0 15 0 0 12 0 0 9 0 0 
3 0 0 7 0 0 6 0 0 7 0 0 12 0 0 16 0 0 24 0 0 22 0 0 41 0 0 163 0 0 14398 0 0 28421 0 0 28830 0 0 28747 0 0 28699 0 0 28815 0 0 28651 0 0 28841 0 0 28604 0 0 28632 0 0 28921 0 0 28598 0 0 28803 0 0 28678 0 0 28695 0 0 28649 0 0 28678 0 0 28789 0 0 28737 0 0 28772 0 0 28845 0 0 28457 0 0 28743 0 0 28606 0 0 28768 0 0 28870 0 0 28754 0 0 28736 0 0 29010 0 0 28667 0 0 28658 0 0 28439 0 0 28883 0 0 28525 0 0 28457 0 0 28795 0 0 28772 0 0 28746 0 0 28895 0 0 28430 0 0 14242 0 0 174 0 0 27 0 0 26 0 0 20 0 0 18 0 0 8 0 0 12 0 0 7 0 0 10 0 0 
3 0 0 9 0 0 13 0 0 17 0 0 19 0 0 19 0 0 23 0 0 30 0 0 37 0 0 179 0 0 14564 0 0 28547 0 0 28554 0 0 28575 0 0 28634 0 0 28910 0 0 28729 0 0 28598 0 0 28585 0 0 28679 0 0 28784 0 0 28620 0 0 28769 0 0 28511 0 0 28574 0 0 28616 0 0 28863 0 0 28894 0 0 28676 0 0 28526 0 0 28563 0 0 28569 0 0 28543 0 0 28413 0 0 28580 0 0 28771 0 0 28576 0 0 28526 0 0 29002 0 0 28589 0 0 28700 0 0 28551 0 0 28623 0 0 28840 0 0 28530 0 0 29018 0 0 28621 0 0 29052 0 0 28592 0 0 28664 0 0 14403 0 0 190 0 0 40 0 0 30 0 0 20 0 0 16 0 0 13 0 0 10 0 0 8 0 0 10 0 0 
4 0 0 9 0 0 8 0 0 12 0 0 15 0 0 24 0 0 28 0 0 34 0 0 39 0 0 173 0 0 14479 0 0 28751 0 0 28662 0 0 28769 0 0 28748 0 0 28408 0 0 28799 0 0 28618 0 0 28773 0 0 28858 0 0 28599 0 0 28788 0 0 28826 0 0 28860 0 0 28569 0 0 28527 0 0 28758 0 0 28727 0 0 28604 0 0 28639 0 0 28538 0 0 28526 0 0 28641 0 0 28674 0 0 28883 0 0 28674 0 0 28671 0 0 28815 0 0 28873 0 0 28876 0 0 28563 0 0 28765 0 0 29087 0 0 28750 0 0 28647 0 0 28806 0 0 28447 0 0 28887 0 0 28569 0 0 28421 0 0 14363 0 0 191 0 0 49 0 0 24 0 0 18 0 0 27 0 0 21 0 0 23 0 0 15 0 0 13 0 0 
4 0 0 5 0 0 12 0 0 17 0 0 18 0 0 16 0 0 28 0 0 25 0 0 43 0 0 176 0 0 14446 0 0 28504 0 0 28589 0 0 28855 0 0 28940 0 0 28661 0 0 28498 0 0 28424 0 0 28607 0 0 28496 0 0 28710 0 0 28609 0 0 28687 0 0 28642 0 0 28718 0 0 28769 0 0 28672 0 0 28659 0 0 28598 0 0 28665 0 0 28877 0 0 28756 0 0 28571 0 0 28524 0 0 28737 0 0 28573 0 0 28602 0 0 28866 0 0 28550 0 0 28875 0 0 28763 0 0 28875 0 0 28640 0 0 28753 0 0 28610 0 0 28687 0 0 28839 0 0 28523 0 0 28499 0 0 28414 0 0 14377 0 0 183 0 0 46 0 0 31 0 0 30 0 0 17 0 0 14 0 0 17 0 0 14 0 0 9 0 0 
6 0 0 15 0 0 14 0 0 17 0 0 17 0 0 19 0 0 32 0 0 34 0 0 43 0 0 194 0 0 14273 0 0 28611 0 0 28568 0 0 28638 0 0 28517 0 0 28827 0 0 28873 0 0 28722 0 0 28786 0 0 28958 0 0 28760 0 0 28640 0 0 28620 0 0 28526 0 0 28747 0 0 28705 0 0 29008 0 0 28824 0 0 28587 0 0 28809 0 0 28947 0 0 28905 0 0 28942 0 0 28799 0 0 28905 0 0 28540 0 0 29017 0 0 28677 0 0 28802 0 0 28860 0 0 28681 0 0 28778 0 0 28675 0 0 28501 0 0 28844 0 0 28793 0 0 28964 0 0 28734 0 0 28493 0 0 28562 0 0 14388 0 0 200 0 0 41 0 0 32 0 0 32 0 0 18 0 0 20 0 0 13 0 0 14 0 0 12 0 0 
6 0 0 14 0 0 13 0 0 12 0 0 11 0 0 17 0 0 26 0 0 30 0 0 46 0 0 169 0 0 14138 0 0 28638 0 0 28977 0 0 28746 0 0 28597 0 0 28742 0 0 28829 0 0 28884 0 0 28721 0 0 28833 0 0 29064 0 0 28766 0 0 28750 0 0 28595 0 0 28732 0 0 28694 0 0 28564 0 0 28955 0 0 28604 0 0 28606 0 0 28667 0 0 28840 0 0 28617 0 0 28600 0 0 28773 0 0 28711 0 0 28749 0 0 28689 0 0 28661 0 0 28650 0 0 28786 0 0 29164 0 0 28476 0 0 28330 0 0 28652 0 0 28558 0 0 28173 0 0 28540 0 0 28620 0 0 28403 0 0 14303 0 0 182 0 0 27 0 0 35 0 0 22 0 0 18 0 0 13 0 0 9 0 0 11 0 0 11 0 0 
7 0 0 11 0 0 12 0 0 15 0 0 10 0 0 20 0 0 24 0 0 29 0 0 39 0 0 145 0 0 14301 0 0 28626 0 0 28688 0 0 28656 0 0 28778 0 0 28692 0 0 28449 0 0 28638 0 0 28702 0 0 28766 0 0 28789 0 0 28620 0 0 28636 0 0 28761 0 0 28510 0 0 28809 0 0 28693 0 0 28894 0 0 28733 0 0 28923 0 0 28574 0 0 28917 0 0 28981 0 0 28703 0 0 28935 0 0 28722 0 0 28793 0 0 28641 0 0 28568 0 0 28763 0 0 28797 0 0 28978 0 0 28600 0 0 28656 0 0 28610 0 0 28891 0 0 28724 0 0 28654 0 0 28629 0 0 28588 0 0 14340 0 0 193 0 0 40 0 0 31 0 0 20 0 0 20 0 0 20 0 0 19 0 0 12 0 0 11 0 0 
8 0 0 12 0 0 12 0 0 24 0 0 24 0 0 26 0 0 30 0 0 30 0 0 37 0 0 169 0 0 14312 0 0 28772 0 0 28620 0 0 28931 0 0 28493 0 0 28503 0 0 28680 0 0 28521 0 0 28652 0 0 28436 0 0 28691 0 0 28450 0 0 28733 0 0 28918 0 0 28878 0 0 28614 0 0 28485 0 0 28662 0 0 28549 0 0 29013 0 0 28968 0 0 28711 0 0 29068 0 0 28901 0 0 28931 0 0 28737 0 0 28540 0 0 28623 0 0 28820 0 0 28807 0 0 28577 0 0 28790 0 0 28515 0 0 28641 0 0 28939 0 0 28619 0 0 28839 0 0 28858 0 0 28434 0 0 28875 0 0 14233 0 0 186 0 0 52 0 0 38 0 0 30 0 0 16 0 0 15 0 0 18 0 0 15 0 0 12 0 0 
4 0 0 9 0 0 13 0 0 16 0 0 15 0 0 17 0 0 24 0 0 28 0 0 45 0 0 175 0 0 14258 0 0 28602 0 0 28899 0 0 28887 0 0 28396 0 0 28756 0 0 28707 0 0 28877 0 0 28746 0 0 28686 0 0 28607 0 0 28943 0 0 28857 0 0 28731 0 0 28556 0 0 28628 0 0 28901 0 0 28786 0 0 28380 0 0 28634 0 0 28492 0 0 28823 0 0 28702 0 0 28648 0 0 28760 0 0 28412 0 0 28667 0 0 28627 0 0 28553 0 0 28734 0 0 28663 0 0 28799 0 0 28527 0 0 28759 0 0 28551 0 0 28600 0 0 28582 0 0 28794 0 0 28591 0 0 28695 0 0 14546 0 0 186 0 0 39 0 0 35 0 0 24 0 0 16 0 0 15 0 0 12 0 0 12 0 0 15 0 0 
5 0 0 10 0 0 14 0 0 15 0 0 21 0 0 20 0 0 19 0 0 40 0 0 47 0 0 185 0 0 14434 0 0 28541 0 0 28861 0 0 28696 0 0 28897 0 0 28802 0 0 28359 0 0 28500 0 0 28640 0 0 28776 0 0 28711 0 0 28741 0 0 28525 0 0 29009 0 0 28725 0 0 28903 0 0 28763 0 0 28517 0 0 28733 0 0 28616 0 0 28592 0 0 28753 0 0 28769 0 0 28738 0 0 29023 0 0 28705 0 0 28569 0 0 28634 0 0 28570 0 0 28833 0 0 28715 0 0 28575 0 0 28627 0 0 28752 0 0 28773 0 0 28640 0 0 28625 0 0 28870 0 0 28797 0 0 28423 0 0 14602 0 0 190 0 0 49 0 0 27 0 0 21 0 0 18 0 0 19 0 0 12 0 0 13 0 0 12 0 0 
6 0 0 13 0 0 18 0 0 19 0 0 20 0 0 22 0 0 30 0 0 29 0 0 33 0 0 204 0 0 14384 0 0 28386 0 0 28812 0 0 28567 0 0 28793 0 0 28665 0 0 28681 0 0 28779 0 0 29057 0 0 28889 0 0 28908 0 0 28625 0 0 28916 0 0 28679 0 0 28880 0 0 28536 0 0 28730 0 0 28595 0 0 28599 0 0 28657 0 0 28694 0 0 28735 0 0 28944 0 0 28583 0 0 28565 0 0 28826 0 0 28841 0 0 28496 0 0 28608 0 0 28748 0 0 28782 0 0 28635 0 0 28706 0 0 28711 0 0 28734 0 0 28695 0 0 28593 0 0 28465 0 0 28688 0 0 28510 0 0 14379 0 0 197 0 0 43 0 0 27 0 0 28 0 0 23 0 0 23 0 0 20 0 0 16 0 0 10 0 0 
5 0 0 20 0 0 18 0 0 18 0 0 19 0 0 23 0 0 33 0 0 30 0 0 31 0 0 181 0 0 14422 0 0 28825 0 0 28705 0 0 28664 0 0 28617 0 0 28579 0 0 28784 0 0 28827 0 0 28609 0 0 28825 0 0 28809 0 0 28933 0 0 28917 0 0 28846 0 0 28647 0 0 28703 0 0 28925 0 0 29011 0 0 28804 0 0 28780 0 0 28889 0 0 29036 0 0 28766 0 0 28576 0 0 28757 0 0 28978 0 0 28771 0 0 28727 0 0 28542 0 0 28593 0 0 28945 0 0 28675 0 0 28872 0 0 28582 0 0 28815 0 0 29007 0 0 28608 0 0 28725 0 0 28649 0 0 28676 0 0 14272 0 0 199 0 0 46 0 0 34 0 0 27 0 0 24 0 0 17 0 0 9 0 0 8 0 0 10 0 0 
4 0 0 8 0 0 14 0 0 15 0 0 23 0 0 27 0 0 24 0 0 35 0 0 39 0 0 190 0 0 14453 0 0 28596 0 0 28829 0 0 28690 0 0 28534 0 0 28926 0 0 28801 0 0 28723 0 0 28598 0 0 28648 0 0 28643 0 0 28679 0 0 28890 0 0 28714 0 0 28409 0 0 28869 0 0 28656 0 0 28722 0 0 28592 0 0 28624 0 0 28939 0 0 28869 0 0 28775 0 0 28508 0 0 28712 0 0 28883 0 0 28630 0 0 28591 0 0 28752 0 0 28953 0 0 28733 0 0 28873 0 0 28607 0 0 28503 0 0 28710 0 0 28702 0 0 28881 0 0 28651 0 0 28462 0 0 28480 0 0 14386 0 0 171 0 0 41 0 0 27 0 0 31 0 0 21 0 0 11 0 0 12 0 0 16 0 0 7 0 0 
5 0 0 10 0 0 13 0 0 19 0 0 24 0 0 21 0 0 33 0 0 35 0 0 49 0 0 192 0 0 14336 0 0 28466 0 0 28693 0 0 28655 0 0 28886 0 0 28760 0 0 29044 0 0 28942 0 0 28553 0 0 28704 0 0 28810 0 0 28731 0 0 28753 0 0 28414 0 0 28693 0 0 29005 0 0 28821 0 0 28649 0 0 28729 0 0 28535 0 0 28450 0 0 29138 0 0 28757 0 0 28688 0 0 28687 0 0 29002 0 0 28852 0 0 28766 0 0 28565 0 0 28751 0 0 28592 0 0 28756 0 0 28507 0 0 28586 0 0 28477 0 0 28434 0 0 28781 0 0 28629 0 0 28472 0 0 28584 0 0 14296 0 0 180 0 0 54 0 0 40 0 0 25 0 0 21 0 0 21 0 0 17 0 0 13 0 0 12 0 0 
6 0 0 14 0 0 18 0 0 12 0 0 25 0 0 20 0 0 19 0 0 39 0 0 61 0 0 178 0 0 14212 0 0 28632 0 0 28630 0 0 28647 0 0 28765 0 0 28504 0 0 28726 0 0 28660 0 0 28605 0 0 28784 0 0 28623 0 0 28572 0 0 28854 0 0 29073 0 0 28779 0 0 28799 0 0 28767 0 0 28806 0 0 28443 0 0 28680 0 0 28712 0 0 28640 0 0 28742 0 0 28930 0 0 28809 0 0 28676 0 0 28891 0 0 28648 0 0 28824 0 0 28698 0 0 28742 0 0 28788 0 0 28651 0 0 28530 0 0 28622 0 0 28424 0 0 28521 0 0 28611 0 0 28561 0 0 28449 0 0 14419 0 0 172 0 0 53 0 0 42 0 0 35 0 0 28 0 0 29 0 0 18 0 0 12 0 0 11 0 0 
6 0 0 17 0 0 13 0 0 21 0 0 24 0 0 24 0 0 30 0 0 46 0 0 52 0 0 173 0 0 14255 0 0 28326 0 0 28617 0 0 28597 0 0 28533 0 0 28709 0 0 28781 0 0 28674 0 0 28972 0 0 28654 0 0 28689 0 0 28791 0 0 28481 0 0 28903 0 0 29027 0 0 28895 0 0 28704 0 0 28859 0 0 28765 0 0 28649 0 0 28470 0 0 28599 0 0 28740 0 0 28547 0 0 28756 0 0 28605 0 0 28626 0 0 28662 0 0 28966 0 0 28684 0 0 28866 0 0 28720 0 0 28781 0 0 28601 0 0 28768 0 0 28739 0 0 28793 0 0 28904 0 0 28598 0 0 28735 0 0 14368 0 0 199 0 0 51 0 0 36 0 0 31 0 0 33 0 0 24 0 0 16 0 0 13 0 0 14 0 0 
6 0 0 16 0 0 20 0 0 18 0 0 16 0 0 31 0 0 40 0 0 35 0 0 39 0 0 168 0 0 14323 0 0 28637 0 0 29018 0 0 28826 0 0 28722 0 0 28726 0 0 28871 0 0 29134 0 0 28798 0 0 28842 0 0 28503 0 0 28568 0 0 28721 0 0 28761 0 0 28769 0 0 28670 0 0 28462 0 0 29054 0 0 28497 0 0 28670 0 0 28844 0 0 28759 0 0 28806 0 0 28818 0 0 28744 0 0 28926 0 0 28679 0 0 28695 0 0 28835 0 0 28830 0 0 28579 0 0 28654 0 0 28789 0 0 28511 0 0 28690 0 0 28768 0 0 28768 0 0 28925 0 0 28612 0 0 28581 0 0 14355 0 0 209 0 0 40 0 0 36 0 0 28 0 0 21 0 0 22 0 0 23 0 0 17 0 0 15 0 0 
5 0 0 18 0 0 19 0 0 24 0 0 25 0 0 19 0 0 28 0 0 35 0 0 46 0 0 188 0 0 14300 0 0 28578 0 0 28866 0 0 28893 0 0 28910 0 0 29005 0 0 28826 0 0 28629 0 0 28629 0 0 28526 0 0 28893 0 0 28906 0 0 28488 0 0 28778 0 0 28780 0 0 28653 0 0 28826 0 0 28813 0 0 28708 0 0 28809 0 0 28624 0 0 28730 0 0 28795 0 0 28921 0 0 28548 0 0 28264 0 0 29023 0 0 28537 0 0 28519 0 0 28637 0 0 28418 0 0 28798 0 0 28733 0 0 28618 0 0 28308 0 0 28621 0 0 28873 0 0 28678 0 0 28691 0 0 28595 0 0 14370 0 0 195 0 0 39 0 0 36 0 0 26 0 0 20 0 0 22 0 0 10 0 0 11 0 0 9 0 0 
5 0 0 7 0 0 14 0 0 17 0 0 20 0 0 29 0 0 33 0 0 44 0 0 54 0 0 189 0 0 14443 0 0 28760 0 0 28531 0 0 28312 0 0 28777 0 0 28592 0 0 28912 0 0 28839 0 0 28673 0 0 28783 0 0 28438 0 0 28650 0 0 28475 0 0 28886 0 0 28481 0 0 28623 0 0 28774 0 0 28630 0 0 28632 0 0 28932 0 0 28492 0 0 28961 0 0 28933 0 0 28656 0 0 28956 0 0 28807 0 0 28602 0 0 28922 0 0 28662 0 0 28416 0 0 28738 0 0 28622 0 0 28461 0 0 28645 0 0 28525 0 0 28793 0 0 28746 0 0 28775 0 0 28664 0 0 28543 0 0 14384 0 0 174 0 0 49 0 0 32 0 0 25 0 0 23 0 0 15 0 0 21 0 0 15 0 0 14 0 0 
10 0 0 22 0 0 23 0 0 26 0 0 26 0 0 26 0 0 32 0 0 45 0 0 37 0 0 187 0 0 14306 0 0 28560 0 0 28793 0 0 28759 0 0 28795 0 0 28601 0 0 28592 0 0 28626 0 0 28805 0 0 28756 0 0 28627 0 0 28721 0 0 28847 0 0 28792 0 0 28962 0 0 28778 0 0 28743 0 0 28724 0 0 28893 0 0 28744 0 0 28741 0 0 28870 0 0 29051 0 0 28641 0 0 28674 0 0 28614 0 0 28712 0 0 28707 0 0 28701 0 0 28995 0 0 28652 0 0 28543 0 0 28717 0 0 28708 0 0 28804 0 0 28859 0 0 28756 0 0 28619 0 0 28635 0 0 28480 0 0 14537 0 0 190 0 0 49 0 0 45 0 0 23 0 0 24 0 0 32 0 0 15 0 0 15 0 0 11 0 0 
5 0 0 11 0 0 11 0 0 21 0 0 22 0 0 26 0 0 25 0 0 35 0 0 42 0 0 177 0 0 14423 0 0 28203 0 0 28686 0 0 28725 0 0 28605 0 0 28643 0 0 28938 0 0 28906 0 0 28656 0 0 28761 0 0 28689 0 0 28675 0 0 28941 0 0 28757 0 0 28836 0 0 28490 0 0 28532 0 0 28750 0 0 28756 0 0 28612 0 0 28579 0 0 28795 0 0 28565 0 0 29070 0 0 28521 0 0 28448 0 0 28738 0 0 28532 0 0 28733 0 0 28871 0 0 28807 0 0 28794 0 0 28892 0 0 28693 0 0 28786 0 0 28642 0 0 28653 0 0 29050 0 0 28981 0 0 28552 0 0 14477 0 0 191 0 0 51 0 0 37 0 0 21 0 0 25 0 0 20 0 0 19 0 0 15 0 0 16 0 0 
7 0 0 16 0 0 22 0 0 16 0 0 18 0 0 20 0 0 26 0 0 41 0 0 51 0 0 181 0 0 14369 0 0 28528 0 0 28518 0 0 29037 0 0 28648 0 0 28745 0 0 28785 0 0 28447 0 0 28669 0 0 28765 0 0 28991 0 0 28804 0 0 28576 0 0 29082 0 0 28713 0 0 28630 0 0 28696 0 0 28773 0 0 28716 0 0 28848 0 0 28771 0 0 28964 0 0 28653 0 0 28947 0 0 28750 0 0 28862 0 0 28646 0 0 28732 0 0 28707 0 0 28708 0 0 28674 0 0 28837 0 0 28535 0 0 28879 0 0 28732 0 0 28760 0 0 28767 0 0 28776 0 0 28643 0 0 28768 0 0 14364 0 0 189 0 0 39 0 0 33 0 0 23 0 0 12 0 0 13 0 0 18 0 0 17 0 0 13 0 0 
3 0 0 11 0 0 15 0 0 21 0 0 25 0 0 24 0 0 30 0 0 35 0 0 43 0 0 197 0 0 14469 0 0 28444 0 0 28531 0 0 28425 0 0 28727 0 0 28793 0 0 28631 0 0 28696 0 0 28653 0 0 28541 0 0 29104 0 0 28841 0 0 28890 0 0 28754 0 0 28596 0 0 28864 0 0 28702 0 0 28819 0 0 28567 0 0 28590 0 0 28834 0 0 28556 0 0 28577 0 0 28633 0 0 28546 0 0 28796 0 0 28702 0 0 29026 0 0 28783 0 0 28735 0 0 28499 0 0 28725 0 0 28547 0 0 28824 0 0 29195 0 0 28703 0 0 28923 0 0 28627 0 0 28665 0 0 28308 0 0 14379 0 0 174 0 0 46 0 0 41 0 0 22 0 0 20 0 0 18 0 0 10 0 0 13 0 0 11 0 0 
11 0 0 22 0 0 18 0 0 20 0 0 24 0 0 24 0 0 26 0 0 32 0 0 42 0 0 186 0 0 14357 0 0 28325 0 0 28737 0 0 28793 0 0 28732 0 0 28741 0 0 28681 0 0 28686 0 0 28607 0 0 28509 0 0 28878 0 0 28583 0 0 28884 0 0 28875 0 0 28795 0 0 28896 0 0 28683 0 0 28827 0 0 29069 0 0 28689 0 0 28741 0 0 28772 0 0 28607 0 0 28711 0 0 28857 0 0 28545 0 0 28683 0 0 28867 0 0 28940 0 0 28804 0 0 28813 0 0 28518 0 0 28591 0 0 28946 0 0 28782 0 0 28899 0 0 28696 0 0 28682 0 0 28554 0 0 28334 0 0 14352 0 0 175 0 0 47 0 0 35 0 0 32 0 0 26 0 0 12 0 0 13 0 0 11 0 0 8 0 0 
7 0 0 17 0 0 22 0 0 21 0 0 21 0 0 27 0 0 32 0 0 33 0 0 31 0 0 178 0 0 14460 0 0 28378 0 0 28894 0 0 29041 0 0 28547 0 0 28576 0 0 28633 0 0 28791 0 0 28967 0 0 28809 0 0 28786 0 0 28623 0 0 28716 0 0 28835 0 0 28659 0 0 28649 0 0 28535 0 0 28641 0 0 28667 0 0 28834 0 0 28688 0 0 28921 0 0 28648 0 0 29066 0 0 28701 0 0 28614 0 0 28823 0 0 29018 0 0 28740 0 0 28846 0 0 28424 0 0 28804 0 0 28783 0 0 28671 0 0 28652 0 0 28628 0 0 28915 0 0 28575 0 0 28677 0 0 28504 0 0 14481 0 0 178 0 0 49 0 0 33 0 0 29 0 0 22 0 0 16 0 0 21 0 0 17 0 0 12 0 0 
8 0 0 14 0 0 20 0 0 18 0 0 19 0 0 24 0 0 26 0 0 32 0 0 44 0 0 175 0 0 14336 0 0 28299 0 0 28898 0 0 28563 0 0 28777 0 0 28610 0 0 28759 0 0 28525 0 0 28651 0 0 28933 0 0 28706 0 0 28436 0 0 28645 0 0 28686 0 0 28574 0 0 28642 0 0 28629 0 0 29026 0 0 28773 0 0 28661 0 0 28755 0 0 29003 0 0 28829 0 0 28757 0 0 28756 0 0 28947 0 0 28681 0 0 28883 0 0 28782 0 0 28480 0 0 28579 0 0 28794 0 0 28727 0 0 28615 0 0 28697 0 0 28739 0 0 28645 0 0 28740 0 0 28711 0 0 28712 0 0 14198 0 0 178 0 0 39 0 0 31 0 0 28 0 0 23 0 0 17 0 0 12 0 0 12 0 0 7 0 0 
3 0 0 9 0 0 12 0 0 13 0 0 19 0 0 26 0 0 37 0 0 36 0 0 44 0 0 172 0 0 14167 0 0 28783 0 0 28452 0 0 28490 0 0 28646 0 0 28539 0 0 28921 0 0 28823 0 0 28684 0 0 28739 0 0 29067 0 0 28582 0 0 28919 0 0 28785 0 0 28940 0 0 28628 0 0 28581 0 0 28557 0 0 28680 0 0 28482 0 0 28655 0 0 28784 0 0 28868 0 0 28715 0 0 28707 0 0 28455 0 0 28469 0 0 28778 0 0 28859 0 0 28603 0 0 28653 0 0 28841 0 0 28825 0 0 28576 0 0 28485 0 0 28817 0 0 28571 0 0 28804 0 0 28648 0 0 28318 0 0 14278 0 0 198 0 0 52 0 0 47 0 0 21 0 0 14 0 0 14 0 0 13 0 0 11 0 0 10 0 0 
3 0 0 9 0 0 13 0 0 17 0 0 16 0 0 22 0 0 22 0 0 31 0 0 40 0 0 178 0 0 14384 0 0 28588 0 0 28380 0 0 28826 0 0 28692 0 0 28745 0 0 28940 0 0 28773 0 0 28636 0 0 28847 0 0 28667 0 0 28734 0 0 28732 0 0 28785 0 0 28896 0 0 28675 0 0 29065 0 0 28586 0 0 28613 0 0 28690 0 0 28555 0 0 28844 0 0 28472 0 0 28708 0 0 28704 0 0 28789 0 0 28717 0 0 28603 0 0 28742 0 0 28640 0 0 28732 0 0 28677 0 0 28730 0 0 28881 0 0 28873 0 0 28664 0 0 28444 0 0 28897 0 0 28344 0 0 28531 0 0 14405 0 0 200 0 0 47 0 0 33 0 0 19 0 0 18 0 0 11 0 0 11 0 0 9 0 0 6 0 0 
2 0 0 5 0 0 8 0 0 13 0 0 24 0 0 22 0 0 30 0 0 30 0 0 31 0 0 179 0 0 14481 0 0 28750 0 0 28415 0 0 28659 0 0 28409 0 0 28765 0 0 29036 0 0 28668 0 0 28441 0 0 28649 0 0 28814 0 0 28545 0 0 28824 0 0 28564 0 0 28706 0 0 28861 0 0 28724 0 0 28731 0 0 28708 0 0 28507 0 0 28833 0 0 28533 0 0 28958 0 0 28616 0 0 28818 0 0 28581 0 0 28622 0 0 28846 0 0 28928 0 0 28420 0 0 28672 0 0 28763 0 0 28579 0 0 28496 0 0 28753 0 0 28965 0 0 28991 0 0 28527 0 0 28473 0 0 28725 0 0 14307 0 0 167 0 0 31 0 0 34 0 0 29 0 0 29 0 0 23 0 0 18 0 0 10 0 0 14 0 0 
4 0 0 11 0 0 10 0 0 17 0 0 15 0 0 22 0 0 25 0 0 39 0 0 38 0 0 173 0 0 14382 0 0 28589 0 0 28445 0 0 28847 0 0 28770 0 0 28485 0 0 28723 0 0 28614 0 0 28718 0 0 28684 0 0 28673 0 0 28771 0 0 28838 0 0 28699 0 0 28644 0 0 28604 0 0 28594 0 0 28974 0 0 28679 0 0 28704 0 0 28412 0 0 28686 0 0 28814 0 0 28578 0 0 28974 0 0 28649 0 0 28594 0 0 28572 0 0 28527 0 0 28406 0 0 28803 0 0 28583 0 0 28949 0 0 28543 0 0 28658 0 0 28542 0 0 28662 0 0 28755 0 0 28398 0 0 28574 0 0 14500 0 0 187 0 0 42 0 0 34 0 0 27 0 0 19 0 0 18 0 0 13 0 0 9 0 0 6 0 0 
3 0 0 10 0 0 16 0 0 18 0 0 13 0 0 21 0 0 29 0 0 34 0 0 49 0 0 173 0 0 14217 0 0 28323 0 0 29022 0 0 28435 0 0 28732 0 0 28747 0 0 28789 0 0 28401 0 0 28746 0 0 28910 0 0 28497 0 0 28683 0 0 28762 0 0 28763 0 0 28742 0 0 28816 0 0 28636 0 0 28715 0 0 28557 0 0 28722 0 0 28721 0 0 28738 0 0 28451 0 0 28544 0 0 28543 0 0 28672 0 0 28760 0 0 28679 0 0 28908 0 0 28794 0 0 28617 0 0 28536 0 0 28694 0 0 28639 0 0 28702 0 0 28918 0 0 28734 0 0 28834 0 0 28781 0 0 28548 0 0 14278 0 0 177 0 0 31 0 0 26 0 0 23 0 0 16 0 0 9 0 0 12 0 0 11 0 0 9 0 0 
4 0 0 14 0 0 15 0 0 15 0 0 23 0 0 17 0 0 23 0 0 30 0 0 46 0 0 177 0 0 14146 0 0 28743 0 0 28832 0 0 28762 0 0 28802 0 0 28612 0 0 28826 0 0 28634 0 0 28695 0 0 28839 0 0 28804 0 0 28801 0 0 28549 0 0 28555 0 0 28772 0 0 29033 0 0 28862 0 0 28606 0 0 28927 0 0 28779 0 0 28614 0 0 28650 0 0 28855 0 0 28584 0 0 28570 0 0 28560 0 0 28595 0 0 28576 0 0 28739 0 0 28751 0 0 28529 0 0 28674 0 0 28870 0 0 29109 0 0 28591 0 0 28715 0 0 28493 0 0 28554 0 0 28641 0 0 28496 0 0 14264 0 0 168 0 0 38 0 0 23 0 0 25 0 0 15 0 0 16 0 0 13 0 0 11 0 0 12 0 0 
4 0 0 9 0 0 10 0 0 13 0 0 14 0 0 12 0 0 21 0 0 25 0 0 37 0 0 166 0 0 14364 0 0 28752 0 0 28852 0 0 28815 0 0 28816 0 0 28878 0 0 28734 0 0 28605 0 0 28542 0 0 28341 0 0 28807 0 0 28650 0 0 28489 0 0 28672 0 0 28784 0 0 28724 0 0 28861 0 0 28689 0 0 28862 0 0 28779 0 0 28842 0 0 28902 0 0 28537 0 0 28706 0 0 28676 0 0 28751 0 0 28544 0 0 28783 0 0 28570 0 0 28712 0 0 28866 0 0 28588 0 0 28775 0 0 28756 0 0 28663 0 0 28734 0 0 28536 0 0 28756 0 0 28601 0 0 28633 0 0 14366 0 0 188 0 0 36 0 0 28 0 0 22 0 0 20 0 0 15 0 0 11 0 0 9 0 0 4 0 0 
4 0 0 11 0 0 11 0 0 10 0 0 13 0 0 17 0 0 18 0 0 24 0 0 35 0 0 158 0 0 14058 0 0 28288 0 0 28729 0 0 28605 0 0 28498 0 0 28872 0 0 28740 0 0 28796 0 0 28698 0 0 28809 0 0 28534 0 0 28507 0 0 28822 0 0 28548 0 0 28573 0 0 28717 0 0 28738 0 0 28883 0 0 28738 0 0 28508 0 0 28910 0 0 28618 0 0 28701 0 0 28781 0 0 28796 0 0 28697 0 0 28509 0 0 29024 0 0 28974 0 0 28744 0 0 28823 0 0 28371 0 0 28942 0 0 28735 0 0 28768 0 0 28860 0 0 28676 0 0 28753 0 0 28639 0 0 28349 0 0 14328 0 0 175 0 0 46 0 0 30 0 0 25 0 0 18 0 0 17 0 0 14 0 0 14 0 0 12 0 0 
5 0 0 8 0 0 7 0 0 10 0 0 8 0 0 13 0 0 20 0 0 22 0 0 26 0 0 162 0 0 14474 0 0 28520 0 0 28754 0 0 28579 0 0 28629 0 0 28871 0 0 28707 0 0 28527 0 0 28840 0 0 28585 0 0 28696 0 0 28586 0 0 28647 0 0 28579 0 0 28670 0 0 28381 0 0 28715 0 0 28485 0 0 28740 0 0 28894 0 0 28398 0 0 28496 0 0 28693 0 0 28708 0 0 28612 0 0 28777 0 0 28408 0 0 28413 0 0 28764 0 0 28766 0 0 28695 0 0 28812 0 0 28657 0 0 28785 0 0 28749 0 0 28798 0 0 28630 0 0 28514 0 0 28697 0 0 28554 0 0 14454 0 0 179 0 0 32 0 0 29 0 0 21 0 0 17 0 0 13 0 0 13 0 0 13 0 0 10 0 0 
1 0 0 6 0 0 11 0 0 8 0 0 8 0 0 17 0 0 13 0 0 13 0 0 24 0 0 144 0 0 14116 0 0 28368 0 0 28495 0 0 28651 0 0 28689 0 0 28692 0 0 28858 0 0 28520 0 0 28581 0 0 28545 0 0 28701 0 0 28492 0 0 28739 0 0 28780 0 0 28847 0 0 28433 0 0 28572 0 0 28396 0 0 28652 0 0 28403 0 0 28592 0 0 28443 0 0 28333 0 0 28718 0 0 28737 0 0 28413 0 0 28244 0 0 28453 0 0 28563 0 0 28383 0 0 28644 0 0 28487 0 0 28611 0 0 28655 0 0 28762 0 0 28578 0 0 28472 0 0 28665 0 0 28451 0 0 28374 0 0 14223 0 0 167 0 0 32 0 0 15 0 0 13 0 0 11 0 0 16 0 0 12 0 0 13 0 0 12 0 0 
2 0 0 9 0 0 9 0 0 11 0 0 12 0 0 17 0 0 11 0 0 12 0 0 22 0 0 103 0 0 7098 0 0 14279 0 0 14383 0 0 14436 0 0 14259 0 0 14454 0 0 14658 0 0 14346 0 0 14319 0 0 14468 0 0 14386 0 0 14521 0 0 14519 0 0 14331 0 0 14278 0 0 14514 0 0 14094 0 0 14283 0 0 14427 0 0 14471 0 0 14463 0 0 14439 0 0 14381 0 0 14268 0 0 14277 0 0 14439 0 0 14388 0 0 14574 0 0 14518 0 0 14445 0 0 14288 0 0 14520 0 0 14377 0 0 14418 0 0 14301 0 0 14336 0 0 14231 0 0 14441 0 0 14503 0 0 14320 0 0 7169 0 0 91 0 0 29 0 0 26 0 0 19 0 0 20 0 0 15 0 0 12 0 0 15 0 0 11 0 0 
3 0 0 7 0 0 6 0 0 11 0 0 18 0 0 15 0 0 16 0 0 15 0 0 21 0 0 26 0 0 100 0 0 152 0 0 174 0 0 187 0 0 153 0 0 183 0 0 180 0 0 177 0 0 187 0 0 186 0 0 191 0 0 173 0 0 188 0 0 191 0 0 189 0 0 177 0 0 202 0 0 196 0 0 191 0 0 204 0 0 194 0 0 193 0 0 166 0 0 194 0 0 189 0 0 176 0 0 176 0 0 205 0 0 188 0 0 192 0 0 178 0 0 170 0 0 185 0 0 182 0 0 179 0 0 155 0 0 170 0 0 172 0 0 163 0 0 181 0 0 91 0 0 23 0 0 26 0 0 19 0 0 17 0 0 17 0 0 14 0 0 10 0 0 9 0 0 12 0 0 
3 0 0 9 0 0 9 0 0 7 0 0 8 0 0 16 0 0 11 0 0 8 0 0 17 0 0 19 0 0 21 0 0 28 0 0 44 0 0 34 0 0 35 0 0 33 0 0 41 0 0 43 0 0 40 0 0 48 0 0 51 0 0 45 0 0 47 0 0 40 0 0 58 0 0 37 0 0 47 0 0 43 0 0 44 0 0 48 0 0 56 0 0 51 0 0 36 0 0 40 0 0 58 0 0 36 0 0 34 0 0 43 0 0 51 0 0 45 0 0 41 0 0 46 0 0 35 0 0 35 0 0 47 0 0 36 0 0 41 0 0 40 0 0 42 0 0 36 0 0 31 0 0 28 0 0 18 0 0 16 0 0 13 0 0 12 0 0 13 0 0 10 0 0 13 0 0 10 0 0 
3 0 0 5 0 0 2 0 0 4 0 0 17 0 0 13 0 0 10 0 0 18 0 0 15 0 0 15 0 0 14 0 0 25 0 0 29 0 0 32 0 0 25 0 0 32 0 0 27 0 0 39 0 0 34 0 0 37 0 0 38 0 0 29 0 0 30 0 0 36 0 0 48 0 0 35 0 0 47 0 0 32 0 0 32 0 0 37 0 0 37 0 0 41 0 0 32 0 0 37 0 0 40 0 0 39 0 0 28 0 0 36 0 0 35 0 0 26 0 0 31 0 0 34 0 0 29 0 0 20 0 0 34 0 0 31 0 0 24 0 0 23 0 0 29 0 0 28 0 0 21 0 0 19 0 0 19 0 0 15 0 0 10 0 0 12 0 0 17 0 0 8 0 0 6 0 0 9 0 0 
0 0 0 1 0 0 3 0 0 13 0 0 11 0 0 8 0 0 11 0 0 16 0 0 19 0 0 23 0 0 13 0 0 28 0 0 25 0 0 15 0 0 26 0 0 24 0 0 27 0 0 21 0 0 27 0 0 25 0 0 34 0 0 28 0 0 32 0 0 46 0 0 37 0 0 36 0 0 33 0 0 22 0 0 26 0 0 25 0 0 26 0 0 29 0 0 24 0 0 23 0 0 34 0 0 28 0 0 29 0 0 30 0 0 24 0 0 22 0 0 35 0 0 27 0 0 24 0 0 21 0 0 22 0 0 30 0 0 15 0 0 26 0 0 23 0 0 25 0 0 14 0 0 16 0 0 22 0 0 16 0 0 15 0 0 12 0 0 13 0 0 12 0 0 10 0 0 6 0 0 
2 0 0 5 0 0 12 0 0 10 0 0 7 0 0 7 0 0 12 0 0 13 0 0 16 0 0 16 0 0 18 0 0 19 0 0 18 0 0 18 0 0 24 0 0 14 0 0 16 0 0 15 0 0 33 0 0 20 0 0 24 0 0 27 0 0 35 0 0 26 0 0 30 0 0 26 0 0 21 0 0 19 0 0 22 0 0 25 0 0 24 0 0 15 0 0 19 0 0 30 0 0 28 0 0 13 0 0 24 0 0 23 0 0 17 0 0 28 0 0 24 0 0 17 0 0 21 0 0 20 0 0 14 0 0 21 0 0 17 0 0 19 0 0 19 0 0 26 0 0 14 0 0 9 0 0 12 0 0 17 0 0 14 0 0 9 0 0 7 0 0 11 0 0 12 0 0 8 0 0 
2 0 0 12 0 0 9 0 0 6 0 0 5 0 0 7 0 0 11 0 0 9 0 0 17 0 0 11 0 0 10 0 0 18 0 0 17 0 0 17 0 0 18 0 0 22 0 0 10 0 0 13 0 0 20 0 0 23 0 0 21 0 0 28 0 0 26 0 0 22 0 0 28 0 0 30 0 0 18 0 0 15 0 0 21 0 0 18 0 0 15 0 0 18 0 0 20 0 0 18 0 0 22 0 0 19 0 0 19 0 0 22 0 0 11 0 0 23 0 0 23 0 0 15 0 0 14 0 0 13 0 0 20 0 0 21 0 0 14 0 0 13 0 0 18 0 0 14 0 0 11 0 0 14 0 0 8 0 0 16 0 0 11 0 0 7 0 0 6 0 0 7 0 0 5 0 0 6 0 0 
3 0 0 5 0 0 6 0 0 8 0 0 3 0 0 8 0 0 16 0 0 10 0 0 12 0 0 10 0 0 14 0 0 15 0 0 19 0 0 12 0 0 15 0 0 17 0 0 12 0 0 14 0 0 24 0 0 19 0 0 27 0 0 18 0 0 27 0 0 18 0 0 29 0 0 16 0 0 15 0 0 13 0 0 22 0 0 13 0 0 11 0 0 15 0 0 18 0 0 21 0 0 14 0 0 12 0 0 12 0 0 17 0 0 11 0 0 16 0 0 20 0 0 15 0 0 14 0 0 15 0 0 17 0 0 20 0 0 9 0 0 12 0 0 10 0 0 12 0 0 11 0 0 9 0 0 8 0 0 6 0 0 12 0 0 7 0 0 5 0 0 9 0 0 3 0 0 5 0 0 
0 0 0 6 0 0 4 0 0 3 0 0 6 0 0 8 0 0 4 0 0 6 0 0 11 0 0 8 0 0 10 0 0 16 0 0 14 0 0 12 0 0 13 0 0 18 0 0 10 0 0 18 0 0 18 0 0 22 0 0 17 0 0 13 0 0 20 0 0 19 0 0 17 0 0 12 0 0 12 0 0 12 0 0 15 0 0 13 0 0 12 0 0 9 0 0 13 0 0 19 0 0 12 0 0 11 0 0 17 0 0 14 0 0 14 0 0 19 0 0 12 0 0 20 0 0 13 0 0 11 0 0 16 0 0 12 0 0 10 0 0 8 0 0 6 0 0 12 0 0 9 0 0 10 0 0 8 0 0 7 0 0 10 0 0 5 0 0 11 0 0 6 0 0 2 0 0 4 0 0 
2 0 0 2 0 0 3 0 0 5 0 0 8 0 0 9 0 0 7 0 0 7 0 0 11 0 0 7 0 0 7 0 0 10 0 0 15 0 0 12 0 0 11 0 0 11 0 0 12 0 0 12 0 0 14 0 0 17 0 0 15 0 0 12 0 0 16 0 0 15 0 0 9 0 0 8 0 0 10 0 0 10 0 0 13 0 0 13 0 0 6 0 0 10 0 0 15 0 0 12 0 0 8 0 0 16 0 0 13 0 0 12 0 0 22 0 0 10 0 0 13 0 0 7 0 0 12 0 0 16 0 0 12 0 0 12 0 0 7 0 0 9 0 0 6 0 0 14 0 0 7 0 0 5 0 0 8 0 0 6 0 0 3 0 0 5 0 0 6 0 0 9 0 0 4 0 0 1 0 0 
