P3
# This is a dose file slice at depth 75 of 100
60 60
# now we give the maximum value of the RGB coordinates.
32965
0 0 0 0 0 0 1 0 0 1 0 0 3 0 0 0 0 0 0 0 0 2 0 0 0 0 0 1 0 0 1 0 0 2 0 0 3 0 0 1 0 0 1 0 0 0 0 0 3 0 0 0 0 0 1 0 0 1 0 0 1 0 0 0 0 0 1 0 0 1 0 0 3 0 0 0 0 0 0 0 0 0 0 0 0 0 0 1 0 0 1 0 0 2 0 0 2 0 0 1 0 0 1 0 0 1 0 0 1 0 0 0 0 0 3 0 0 2 0 0 0 0 0 2 0 0 2 0 0 0 0 0 1 0 0 0 0 0 3 0 0 0 0 0 0 0 0 1 0 0 1 0 0 4 0 0 0 0 0 0 0 0 0 0 0 0 0 0 0 0 0 1 0 0 0 0 0 1 0 0 
2 0 0 4 0 0 0 0 0 4 0 0 5 0 0 2 0 0 0 0 0 3 0 0 1 0 0 3 0 0 3 0 0 4 0 0 5 0 0 8 0 0 5 0 0 1 0 0 3 0 0 4 0 0 4 0 0 1 0 0 4 0 0 4 0 0 3 0 0 3 0 0 5 0 0 3 0 0 3 0 0 3 0 0 0 0 0 3 0 0 2 0 0 3 0 0 1 0 0 5 0 0 2 0 0 4 0 0 2 0 0 3 0 0 4 0 0 7 0 0 4 0 0 2 0 0 2 0 0 1 0 0 2 0 0 4 0 0 4 0 0 2 0 0 2 0 0 2 0 0 2 0 0 7 0 0 0 0 0 1 0 0 0 0 0 0 0 0 3 0 0 0 0 0 2 0 0 3 0 0 
2 0 0 3 0 0 4 0 0 4 0 0 6 0 0 5 0 0 4 0 0 2 0 0 2 0 0 4 0 0 4 0 0 3 0 0 0 0 0 5 0 0 7 0 0 6 0 0 2 0 0 9 0 0 6 0 0 5 0 0 6 0 0 2 0 0 4 0 0 5 0 0 6 0 0 2 0 0 5 0 0 1 0 0 3 0 0 3 0 0 3 0 0 3 0 0 0 0 0 4 0 0 4 0 0 2 0 0 2 0 0 1 0 0 5 0 0 6 0 0 5 0 0 2 0 0 3 0 0 4 0 0 1 0 0 3 0 0 0 0 0 7 0 0 2 0 0 1 0 0 3 0 0 5 0 0 1 0 0 0 0 0 1 0 0 1 0 0 0 0 0 2 0 0 4 0 0 1 0 0 
0 0 0 3 0 0 1 0 0 0 0 0 1 0 0 3 0 0 4 0 0 2 0 0 3 0 0 2 0 0 3 0 0 4 0 0 0 0 0 3 0 0 5 0 0 6 0 0 8 0 0 6 0 0 5 0 0 6 0 0 8 0 0 6 0 0 5 0 0 1 0 0 4 0 0 4 0 0 3 0 0 6 0 0 3 0 0 3 0 0 5 0 0 5 0 0 1 0 0 3 0 0 8 0 0 3 0 0 3 0 0 4 0 0 11 0 0 7 0 0 3 0 0 0 0 0 5 0 0 3 0 0 4 0 0 1 0 0 4 0 0 5 0 0 3 0 0 3 0 0 3 0 0 1 0 0 0 0 0 1 0 0 1 0 0 3 0 0 4 0 0 2 0 0 2 0 0 1 0 0 
0 0 0 0 0 0 3 0 0 1 0 0 0 0 0 3 0 0 1 0 0 7 0 0 6 0 0 2 0 0 3 0 0 2 0 0 2 0 0 4 0 0 3 0 0 4 0 0 8 0 0 7 0 0 3 0 0 6 0 0 9 0 0 10 0 0 1 0 0 5 0 0 6 0 0 2 0 0 2 0 0 9 0 0 4 0 0 3 0 0 4 0 0 4 0 0 3 0 0 7 0 0 6 0 0 3 0 0 7 0 0 6 0 0 5 0 0 4 0 0 5 0 0 2 0 0 2 0 0 5 0 0 4 0 0 4 0 0 5 0 0 4 0 0 6 0 0 6 0 0 2 0 0 0 0 0 5 0 0 2 0 0 4 0 0 4 0 0 2 0 0 1 0 0 1 0 0 5 0 0 
0 0 0 0 0 0 1 0 0 2 0 0 2 0 0 2 0 0 6 0 0 2 0 0 4 0 0 5 0 0 1 0 0 3 0 0 6 0 0 3 0 0 10 0 0 2 0 0 5 0 0 6 0 0 5 0 0 8 0 0 9 0 0 5 0 0 5 0 0 3 0 0 10 0 0 8 0 0 7 0 0 5 0 0 4 0 0 2 0 0 6 0 0 2 0 0 3 0 0 8 0 0 2 0 0 4 0 0 2 0 0 7 0 0 8 0 0 3 0 0 4 0 0 2 0 0 2 0 0 6 0 0 2 0 0 4 0 0 2 0 0 4 0 0 8 0 0 5 0 0 2 0 0 0 0 0 3 0 0 3 0 0 4 0 0 2 0 0 2 0 0 4 0 0 0 0 0 1 0 0 
0 0 0 0 0 0 1 0 0 2 0 0 3 0 0 2 0 0 4 0 0 3 0 0 4 0 0 7 0 0 4 0 0 3 0 0 3 0 0 4 0 0 6 0 0 2 0 0 7 0 0 9 0 0 2 0 0 5 0 0 8 0 0 10 0 0 8 0 0 7 0 0 3 0 0 5 0 0 8 0 0 7 0 0 4 0 0 7 0 0 5 0 0 3 0 0 2 0 0 5 0 0 1 0 0 2 0 0 6 0 0 8 0 0 8 0 0 6 0 0 7 0 0 6 0 0 6 0 0 9 0 0 4 0 0 7 0 0 4 0 0 5 0 0 4 0 0 3 0 0 0 0 0 4 0 0 3 0 0 3 0 0 3 0 0 1 0 0 3 0 0 5 0 0 4 0 0 1 0 0 
0 0 0 0 0 0 0 0 0 0 0 0 1 0 0 4 0 0 3 0 0 7 0 0 4 0 0 4 0 0 5 0 0 4 0 0 5 0 0 8 0 0 5 0 0 5 0 0 11 0 0 9 0 0 6 0 0 3 0 0 10 0 0 12 0 0 12 0 0 12 0 0 8 0 0 7 0 0 9 0 0 7 0 0 10 0 0 14 0 0 6 0 0 7 0 0 5 0 0 7 0 0 8 0 0 3 0 0 9 0 0 10 0 0 8 0 0 7 0 0 9 0 0 3 0 0 9 0 0 12 0 0 9 0 0 9 0 0 4 0 0 5 0 0 6 0 0 6 0 0 7 0 0 8 0 0 5 0 0 3 0 0 2 0 0 2 0 0 3 0 0 3 0 0 0 0 0 0 0 0 
3 0 0 1 0 0 0 0 0 1 0 0 0 0 0 2 0 0 3 0 0 6 0 0 6 0 0 6 0 0 10 0 0 7 0 0 7 0 0 4 0 0 12 0 0 11 0 0 12 0 0 12 0 0 9 0 0 9 0 0 14 0 0 14 0 0 13 0 0 11 0 0 12 0 0 11 0 0 18 0 0 16 0 0 4 0 0 7 0 0 8 0 0 5 0 0 3 0 0 12 0 0 13 0 0 5 0 0 9 0 0 10 0 0 11 0 0 9 0 0 13 0 0 6 0 0 13 0 0 9 0 0 9 0 0 11 0 0 6 0 0 11 0 0 6 0 0 7 0 0 9 0 0 7 0 0 4 0 0 3 0 0 3 0 0 3 0 0 3 0 0 1 0 0 0 0 0 0 0 0 
2 0 0 4 0 0 2 0 0 4 0 0 2 0 0 4 0 0 2 0 0 3 0 0 7 0 0 6 0 0 26 0 0 38 0 0 47 0 0 50 0 0 52 0 0 56 0 0 57 0 0 56 0 0 53 0 0 53 0 0 46 0 0 51 0 0 59 0 0 63 0 0 54 0 0 50 0 0 58 0 0 59 0 0 47 0 0 60 0 0 56 0 0 43 0 0 38 0 0 53 0 0 46 0 0 45 0 0 47 0 0 57 0 0 60 0 0 66 0 0 53 0 0 44 0 0 53 0 0 51 0 0 52 0 0 50 0 0 52 0 0 58 0 0 43 0 0 60 0 0 32 0 0 9 0 0 2 0 0 6 0 0 6 0 0 1 0 0 2 0 0 2 0 0 1 0 0 2 0 0 
0 0 0 3 0 0 3 0 0 2 0 0 1 0 0 2 0 0 4 0 0 0 0 0 10 0 0 30 0 0 1636 0 0 3166 0 0 3054 0 0 3101 0 0 3106 0 0 3181 0 0 3170 0 0 3114 0 0 3162 0 0 3096 0 0 3127 0 0 3075 0 0 3225 0 0 3111 0 0 3124 0 0 3152 0 0 3100 0 0 3163 0 0 3191 0 0 3197 0 0 3165 0 0 3115 0 0 3098 0 0 3137 0 0 3177 0 0 3217 0 0 3099 0 0 3223 0 0 3092 0 0 3153 0 0 3146 0 0 3205 0 0 3182 0 0 3112 0 0 3125 0 0 3209 0 0 3111 0 0 3182 0 0 3166 0 0 3203 0 0 1612 0 0 17 0 0 4 0 0 3 0 0 4 0 0 5 0 0 4 0 0 1 0 0 2 0 0 3 0 0 
1 0 0 4 0 0 3 0 0 2 0 0 3 0 0 4 0 0 7 0 0 9 0 0 14 0 0 53 0 0 3201 0 0 6207 0 0 6297 0 0 6306 0 0 6215 0 0 6413 0 0 6262 0 0 6265 0 0 6226 0 0 6184 0 0 6116 0 0 6342 0 0 6267 0 0 6347 0 0 6289 0 0 6314 0 0 6283 0 0 6321 0 0 6543 0 0 6142 0 0 6229 0 0 6242 0 0 6255 0 0 6078 0 0 6100 0 0 6379 0 0 6322 0 0 6256 0 0 6166 0 0 6285 0 0 6226 0 0 6287 0 0 6238 0 0 6357 0 0 6251 0 0 6322 0 0 6235 0 0 6221 0 0 6210 0 0 6140 0 0 3088 0 0 43 0 0 6 0 0 4 0 0 4 0 0 4 0 0 5 0 0 3 0 0 2 0 0 2 0 0 
1 0 0 1 0 0 3 0 0 3 0 0 3 0 0 3 0 0 4 0 0 4 0 0 3 0 0 48 0 0 3177 0 0 6268 0 0 6249 0 0 6210 0 0 6286 0 0 6367 0 0 6368 0 0 6411 0 0 6395 0 0 6229 0 0 6300 0 0 6396 0 0 6373 0 0 6365 0 0 6292 0 0 6296 0 0 6316 0 0 6520 0 0 6321 0 0 6341 0 0 6242 0 0 6215 0 0 6363 0 0 6257 0 0 6282 0 0 6360 0 0 6241 0 0 6293 0 0 6368 0 0 6315 0 0 6404 0 0 6273 0 0 6198 0 0 6372 0 0 6274 0 0 6233 0 0 6372 0 0 6388 0 0 6303 0 0 6281 0 0 3123 0 0 51 0 0 9 0 0 1 0 0 4 0 0 5 0 0 3 0 0 1 0 0 3 0 0 4 0 0 
1 0 0 1 0 0 2 0 0 4 0 0 5 0 0 4 0 0 5 0 0 6 0 0 9 0 0 55 0 0 3101 0 0 6329 0 0 6248 0 0 6278 0 0 6294 0 0 6376 0 0 6239 0 0 6262 0 0 6244 0 0 6307 0 0 6245 0 0 6281 0 0 6391 0 0 6236 0 0 6301 0 0 6341 0 0 6335 0 0 6298 0 0 6302 0 0 6304 0 0 6336 0 0 6422 0 0 6277 0 0 6344 0 0 6188 0 0 6256 0 0 6412 0 0 6292 0 0 6367 0 0 6358 0 0 6365 0 0 6401 0 0 6286 0 0 6293 0 0 6355 0 0 6188 0 0 6253 0 0 6335 0 0 6288 0 0 6262 0 0 3128 0 0 49 0 0 10 0 0 5 0 0 4 0 0 8 0 0 4 0 0 2 0 0 2 0 0 2 0 0 
2 0 0 2 0 0 2 0 0 7 0 0 6 0 0 3 0 0 7 0 0 9 0 0 19 0 0 55 0 0 3109 0 0 6303 0 0 6242 0 0 6440 0 0 6248 0 0 6242 0 0 6330 0 0 6269 0 0 6296 0 0 6278 0 0 6347 0 0 6276 0 0 6193 0 0 6289 0 0 6131 0 0 6236 0 0 6312 0 0 6281 0 0 6309 0 0 6300 0 0 6298 0 0 6374 0 0 6354 0 0 6394 0 0 6381 0 0 6359 0 0 6183 0 0 6345 0 0 6250 0 0 6266 0 0 6424 0 0 6223 0 0 6236 0 0 6292 0 0 6314 0 0 6471 0 0 6332 0 0 6153 0 0 6152 0 0 6232 0 0 3063 0 0 54 0 0 11 0 0 8 0 0 11 0 0 8 0 0 5 0 0 6 0 0 4 0 0 7 0 0 
1 0 0 4 0 0 3 0 0 4 0 0 2 0 0 6 0 0 10 0 0 5 0 0 8 0 0 53 0 0 3154 0 0 6241 0 0 6385 0 0 6349 0 0 6307 0 0 6257 0 0 6214 0 0 6323 0 0 6281 0 0 6309 0 0 6380 0 0 6285 0 0 6271 0 0 6336 0 0 6339 0 0 6241 0 0 6385 0 0 6354 0 0 6252 0 0 6261 0 0 6328 0 0 6244 0 0 6243 0 0 6354 0 0 6335 0 0 6240 0 0 6263 0 0 6271 0 0 6300 0 0 6373 0 0 6321 0 0 6332 0 0 6298 0 0 6155 0 0 6272 0 0 6363 0 0 6419 0 0 6249 0 0 6315 0 0 6235 0 0 3128 0 0 50 0 0 7 0 0 8 0 0 9 0 0 2 0 0 5 0 0 1 0 0 1 0 0 5 0 0 
1 0 0 2 0 0 4 0 0 2 0 0 2 0 0 4 0 0 11 0 0 7 0 0 8 0 0 53 0 0 3065 0 0 6395 0 0 6379 0 0 6324 0 0 6319 0 0 6283 0 0 6328 0 0 6292 0 0 6466 0 0 6232 0 0 6316 0 0 6234 0 0 6398 0 0 6369 0 0 6188 0 0 6307 0 0 6357 0 0 6281 0 0 6195 0 0 6249 0 0 6328 0 0 6444 0 0 6277 0 0 6363 0 0 6378 0 0 6283 0 0 6430 0 0 6214 0 0 6298 0 0 6350 0 0 6289 0 0 6146 0 0 6236 0 0 6273 0 0 6131 0 0 6381 0 0 6220 0 0 6301 0 0 6385 0 0 6290 0 0 3179 0 0 50 0 0 8 0 0 1 0 0 2 0 0 5 0 0 2 0 0 0 0 0 3 0 0 1 0 0 
0 0 0 2 0 0 2 0 0 3 0 0 6 0 0 7 0 0 6 0 0 10 0 0 15 0 0 51 0 0 3164 0 0 6280 0 0 6321 0 0 6334 0 0 6281 0 0 6192 0 0 6286 0 0 6408 0 0 6354 0 0 6349 0 0 6276 0 0 6356 0 0 6287 0 0 6156 0 0 6266 0 0 6265 0 0 6283 0 0 6290 0 0 6288 0 0 6406 0 0 6288 0 0 6061 0 0 6231 0 0 6386 0 0 6250 0 0 6257 0 0 6288 0 0 6238 0 0 6334 0 0 6297 0 0 6252 0 0 6380 0 0 6173 0 0 6256 0 0 6274 0 0 6281 0 0 6186 0 0 6316 0 0 6343 0 0 6251 0 0 3134 0 0 46 0 0 12 0 0 7 0 0 7 0 0 5 0 0 6 0 0 3 0 0 3 0 0 2 0 0 
1 0 0 5 0 0 2 0 0 2 0 0 1 0 0 3 0 0 7 0 0 12 0 0 13 0 0 46 0 0 3195 0 0 6354 0 0 6304 0 0 6154 0 0 6331 0 0 6281 0 0 6352 0 0 6221 0 0 6334 0 0 6330 0 0 6064 0 0 6258 0 0 6425 0 0 6269 0 0 6328 0 0 6390 0 0 6280 0 0 6434 0 0 6365 0 0 6222 0 0 6287 0 0 6208 0 0 6295 0 0 6253 0 0 6214 0 0 6153 0 0 6441 0 0 6316 0 0 6240 0 0 6217 0 0 6373 0 0 6289 0 0 6242 0 0 6163 0 0 6312 0 0 6180 0 0 6291 0 0 6281 0 0 6275 0 0 6251 0 0 3173 0 0 53 0 0 9 0 0 10 0 0 11 0 0 12 0 0 8 0 0 6 0 0 6 0 0 7 0 0 
1 0 0 1 0 0 1 0 0 1 0 0 2 0 0 3 0 0 8 0 0 7 0 0 8 0 0 51 0 0 3115 0 0 6286 0 0 6292 0 0 6357 0 0 6358 0 0 6377 0 0 6250 0 0 6180 0 0 6255 0 0 6281 0 0 6337 0 0 6294 0 0 6274 0 0 6329 0 0 6367 0 0 6290 0 0 6424 0 0 6372 0 0 6316 0 0 6264 0 0 6299 0 0 6312 0 0 6328 0 0 6369 0 0 6510 0 0 6395 0 0 6374 0 0 6457 0 0 6328 0 0 6327 0 0 6294 0 0 6252 0 0 6285 0 0 6264 0 0 6158 0 0 6275 0 0 6322 0 0 6191 0 0 6473 0 0 6291 0 0 3166 0 0 59 0 0 12 0 0 8 0 0 12 0 0 9 0 0 12 0 0 9 0 0 4 0 0 2 0 0 
1 0 0 3 0 0 1 0 0 2 0 0 3 0 0 2 0 0 5 0 0 6 0 0 10 0 0 51 0 0 3105 0 0 6258 0 0 6247 0 0 6381 0 0 6276 0 0 6414 0 0 6221 0 0 6283 0 0 6264 0 0 6345 0 0 6307 0 0 6370 0 0 6364 0 0 6325 0 0 6259 0 0 6224 0 0 6360 0 0 6369 0 0 6360 0 0 6433 0 0 6328 0 0 6271 0 0 6371 0 0 6215 0 0 6364 0 0 6302 0 0 6341 0 0 6382 0 0 6365 0 0 6358 0 0 6214 0 0 6263 0 0 6353 0 0 6306 0 0 6271 0 0 6274 0 0 6235 0 0 6365 0 0 6223 0 0 6207 0 0 3147 0 0 49 0 0 14 0 0 9 0 0 4 0 0 6 0 0 6 0 0 3 0 0 1 0 0 1 0 0 
0 0 0 0 0 0 4 0 0 2 0 0 2 0 0 2 0 0 5 0 0 12 0 0 8 0 0 54 0 0 3146 0 0 6273 0 0 6232 0 0 6348 0 0 6345 0 0 6408 0 0 6287 0 0 6309 0 0 6371 0 0 6382 0 0 6234 0 0 6265 0 0 6292 0 0 6275 0 0 6296 0 0 6151 0 0 6276 0 0 6313 0 0 6291 0 0 6350 0 0 6426 0 0 6351 0 0 6290 0 0 6231 0 0 6207 0 0 6329 0 0 6377 0 0 6410 0 0 6348 0 0 6281 0 0 6105 0 0 6263 0 0 6329 0 0 6364 0 0 6235 0 0 6424 0 0 6260 0 0 6358 0 0 6298 0 0 6458 0 0 3151 0 0 59 0 0 16 0 0 12 0 0 9 0 0 6 0 0 1 0 0 4 0 0 2 0 0 1 0 0 
1 0 0 0 0 0 3 0 0 4 0 0 4 0 0 3 0 0 7 0 0 9 0 0 8 0 0 45 0 0 3129 0 0 6278 0 0 6301 0 0 6176 0 0 6443 0 0 6388 0 0 6222 0 0 6270 0 0 6113 0 0 6199 0 0 6152 0 0 6344 0 0 6318 0 0 6241 0 0 6250 0 0 6306 0 0 6354 0 0 6216 0 0 6214 0 0 6275 0 0 6212 0 0 6307 0 0 6225 0 0 6259 0 0 6393 0 0 6405 0 0 6356 0 0 6296 0 0 6318 0 0 6350 0 0 6325 0 0 6346 0 0 6399 0 0 6304 0 0 6226 0 0 6350 0 0 6246 0 0 6426 0 0 6324 0 0 6184 0 0 3198 0 0 59 0 0 15 0 0 10 0 0 5 0 0 6 0 0 2 0 0 3 0 0 1 0 0 5 0 0 
1 0 0 3 0 0 2 0 0 5 0 0 4 0 0 8 0 0 7 0 0 10 0 0 3 0 0 52 0 0 3088 0 0 6271 0 0 6239 0 0 6261 0 0 6289 0 0 6423 0 0 6345 0 0 6323 0 0 6299 0 0 6218 0 0 6270 0 0 6329 0 0 6255 0 0 6342 0 0 6307 0 0 6491 0 0 6305 0 0 6280 0 0 6247 0 0 6251 0 0 6306 0 0 6341 0 0 6380 0 0 6358 0 0 6280 0 0 6347 0 0 6428 0 0 6428 0 0 6229 0 0 6486 0 0 6277 0 0 6277 0 0 6242 0 0 6308 0 0 6343 0 0 6249 0 0 6317 0 0 6251 0 0 6306 0 0 6313 0 0 3197 0 0 60 0 0 9 0 0 10 0 0 6 0 0 7 0 0 3 0 0 3 0 0 2 0 0 3 0 0 
3 0 0 8 0 0 5 0 0 2 0 0 7 0 0 8 0 0 3 0 0 10 0 0 16 0 0 47 0 0 3162 0 0 6258 0 0 6228 0 0 6374 0 0 6347 0 0 6357 0 0 6320 0 0 6310 0 0 6339 0 0 6334 0 0 6341 0 0 6423 0 0 6330 0 0 6299 0 0 6408 0 0 6274 0 0 6271 0 0 6333 0 0 6343 0 0 6277 0 0 6242 0 0 6218 0 0 6225 0 0 6286 0 0 6195 0 0 6228 0 0 6395 0 0 6468 0 0 6340 0 0 6292 0 0 6352 0 0 6194 0 0 6350 0 0 6380 0 0 6456 0 0 6326 0 0 6240 0 0 6299 0 0 6224 0 0 6204 0 0 3149 0 0 52 0 0 12 0 0 4 0 0 12 0 0 10 0 0 7 0 0 8 0 0 7 0 0 3 0 0 
0 0 0 1 0 0 2 0 0 2 0 0 6 0 0 6 0 0 5 0 0 14 0 0 16 0 0 57 0 0 3107 0 0 6249 0 0 6310 0 0 6387 0 0 6362 0 0 6317 0 0 6256 0 0 6168 0 0 6263 0 0 6323 0 0 6341 0 0 6225 0 0 6303 0 0 6203 0 0 6191 0 0 6370 0 0 6351 0 0 6382 0 0 6321 0 0 6221 0 0 6326 0 0 6234 0 0 6279 0 0 6331 0 0 6330 0 0 6325 0 0 6395 0 0 6230 0 0 6354 0 0 6325 0 0 6160 0 0 6383 0 0 6270 0 0 6316 0 0 6235 0 0 6345 0 0 6304 0 0 6199 0 0 6198 0 0 6314 0 0 3043 0 0 56 0 0 12 0 0 10 0 0 11 0 0 8 0 0 6 0 0 7 0 0 6 0 0 3 0 0 
2 0 0 2 0 0 4 0 0 1 0 0 2 0 0 6 0 0 12 0 0 16 0 0 15 0 0 50 0 0 3136 0 0 6318 0 0 6265 0 0 6295 0 0 6232 0 0 6207 0 0 6254 0 0 6391 0 0 6341 0 0 6260 0 0 6285 0 0 6244 0 0 6267 0 0 6260 0 0 6243 0 0 6368 0 0 6312 0 0 6296 0 0 6341 0 0 6203 0 0 6399 0 0 6284 0 0 6261 0 0 6276 0 0 6302 0 0 6377 0 0 6262 0 0 6277 0 0 6262 0 0 6260 0 0 6251 0 0 6502 0 0 6259 0 0 6425 0 0 6325 0 0 6289 0 0 6351 0 0 6264 0 0 6367 0 0 6018 0 0 3230 0 0 54 0 0 10 0 0 10 0 0 9 0 0 8 0 0 5 0 0 3 0 0 5 0 0 1 0 0 
2 0 0 4 0 0 7 0 0 9 0 0 6 0 0 4 0 0 12 0 0 8 0 0 12 0 0 53 0 0 3116 0 0 6238 0 0 6189 0 0 6280 0 0 6372 0 0 6345 0 0 6090 0 0 6356 0 0 6323 0 0 6236 0 0 6319 0 0 6286 0 0 6343 0 0 6142 0 0 6193 0 0 6317 0 0 6331 0 0 6300 0 0 6472 0 0 6321 0 0 6365 0 0 6275 0 0 6372 0 0 6205 0 0 6295 0 0 6471 0 0 6220 0 0 6337 0 0 6229 0 0 6303 0 0 6334 0 0 6417 0 0 6357 0 0 6301 0 0 6304 0 0 6312 0 0 6442 0 0 6244 0 0 6256 0 0 6242 0 0 3177 0 0 60 0 0 12 0 0 11 0 0 5 0 0 4 0 0 3 0 0 6 0 0 3 0 0 2 0 0 
4 0 0 4 0 0 5 0 0 8 0 0 12 0 0 8 0 0 9 0 0 9 0 0 8 0 0 47 0 0 3108 0 0 6156 0 0 6334 0 0 6252 0 0 6135 0 0 6231 0 0 6315 0 0 6345 0 0 6267 0 0 6273 0 0 6186 0 0 6239 0 0 6165 0 0 6341 0 0 6295 0 0 6353 0 0 6444 0 0 6364 0 0 6362 0 0 6344 0 0 6322 0 0 6309 0 0 6158 0 0 6432 0 0 6389 0 0 6285 0 0 6229 0 0 6275 0 0 6332 0 0 6168 0 0 6308 0 0 6309 0 0 6257 0 0 6346 0 0 6427 0 0 6406 0 0 6340 0 0 6351 0 0 6237 0 0 6302 0 0 3144 0 0 48 0 0 7 0 0 7 0 0 10 0 0 8 0 0 8 0 0 6 0 0 3 0 0 3 0 0 
3 0 0 5 0 0 2 0 0 2 0 0 1 0 0 7 0 0 6 0 0 11 0 0 10 0 0 48 0 0 3176 0 0 6254 0 0 6393 0 0 6263 0 0 6291 0 0 6389 0 0 6254 0 0 6312 0 0 6370 0 0 6394 0 0 6294 0 0 6222 0 0 6249 0 0 6460 0 0 6376 0 0 6231 0 0 6308 0 0 6272 0 0 6406 0 0 6319 0 0 6311 0 0 6207 0 0 6246 0 0 6260 0 0 6217 0 0 6090 0 0 6343 0 0 6386 0 0 6227 0 0 6262 0 0 6290 0 0 6347 0 0 6207 0 0 6226 0 0 6304 0 0 6271 0 0 6170 0 0 6221 0 0 6317 0 0 6178 0 0 3124 0 0 58 0 0 11 0 0 4 0 0 7 0 0 7 0 0 4 0 0 5 0 0 3 0 0 4 0 0 
4 0 0 4 0 0 3 0 0 4 0 0 8 0 0 5 0 0 4 0 0 5 0 0 10 0 0 38 0 0 3202 0 0 6334 0 0 6314 0 0 6251 0 0 6415 0 0 6364 0 0 6448 0 0 6463 0 0 6340 0 0 6400 0 0 6349 0 0 6339 0 0 6407 0 0 6227 0 0 6208 0 0 6277 0 0 6384 0 0 6405 0 0 6260 0 0 6250 0 0 6181 0 0 6312 0 0 6380 0 0 6145 0 0 6260 0 0 6225 0 0 6364 0 0 6253 0 0 6292 0 0 6342 0 0 6281 0 0 6300 0 0 6430 0 0 6177 0 0 6260 0 0 6311 0 0 6270 0 0 6293 0 0 6292 0 0 6156 0 0 3090 0 0 42 0 0 10 0 0 10 0 0 3 0 0 3 0 0 5 0 0 4 0 0 0 0 0 0 0 0 
2 0 0 8 0 0 7 0 0 7 0 0 5 0 0 6 0 0 6 0 0 7 0 0 5 0 0 52 0 0 3239 0 0 6349 0 0 6270 0 0 6312 0 0 6343 0 0 6219 0 0 6348 0 0 6284 0 0 6223 0 0 6341 0 0 6259 0 0 6286 0 0 6294 0 0 6374 0 0 6210 0 0 6241 0 0 6238 0 0 6421 0 0 6396 0 0 6270 0 0 6273 0 0 6239 0 0 6240 0 0 6210 0 0 6304 0 0 6417 0 0 6320 0 0 6254 0 0 6194 0 0 6387 0 0 6267 0 0 6187 0 0 6415 0 0 6289 0 0 6279 0 0 6410 0 0 6293 0 0 6289 0 0 6311 0 0 6188 0 0 3210 0 0 53 0 0 15 0 0 12 0 0 7 0 0 5 0 0 5 0 0 4 0 0 6 0 0 2 0 0 
0 0 0 4 0 0 2 0 0 4 0 0 7 0 0 6 0 0 8 0 0 16 0 0 9 0 0 47 0 0 3205 0 0 6270 0 0 6225 0 0 6331 0 0 6220 0 0 6306 0 0 6255 0 0 6226 0 0 6297 0 0 6249 0 0 6281 0 0 6435 0 0 6403 0 0 6254 0 0 6276 0 0 6262 0 0 6288 0 0 6287 0 0 6247 0 0 6210 0 0 6456 0 0 6316 0 0 6214 0 0 6230 0 0 6380 0 0 6260 0 0 6413 0 0 6348 0 0 6263 0 0 6346 0 0 6203 0 0 6356 0 0 6444 0 0 6338 0 0 6334 0 0 6344 0 0 6278 0 0 6288 0 0 6340 0 0 6246 0 0 3103 0 0 49 0 0 11 0 0 10 0 0 12 0 0 7 0 0 4 0 0 5 0 0 5 0 0 8 0 0 
3 0 0 4 0 0 3 0 0 8 0 0 7 0 0 4 0 0 4 0 0 4 0 0 15 0 0 62 0 0 3170 0 0 6307 0 0 6473 0 0 6354 0 0 6270 0 0 6340 0 0 6205 0 0 6246 0 0 6316 0 0 6279 0 0 6233 0 0 6282 0 0 6311 0 0 6366 0 0 6244 0 0 6344 0 0 6257 0 0 6365 0 0 6321 0 0 6324 0 0 6298 0 0 6301 0 0 6203 0 0 6198 0 0 6289 0 0 6405 0 0 6321 0 0 6304 0 0 6422 0 0 6308 0 0 6297 0 0 6299 0 0 6300 0 0 6426 0 0 6284 0 0 6292 0 0 6250 0 0 6330 0 0 6291 0 0 6137 0 0 3098 0 0 56 0 0 13 0 0 9 0 0 4 0 0 4 0 0 4 0 0 6 0 0 5 0 0 5 0 0 
2 0 0 2 0 0 3 0 0 4 0 0 3 0 0 1 0 0 3 0 0 9 0 0 9 0 0 43 0 0 3191 0 0 6368 0 0 6152 0 0 6285 0 0 6247 0 0 6491 0 0 6303 0 0 6297 0 0 6104 0 0 6207 0 0 6158 0 0 6297 0 0 6286 0 0 6265 0 0 6282 0 0 6380 0 0 6242 0 0 6320 0 0 6436 0 0 6245 0 0 6296 0 0 6330 0 0 6299 0 0 6306 0 0 6203 0 0 6160 0 0 6189 0 0 6221 0 0 6220 0 0 6196 0 0 6234 0 0 6291 0 0 6145 0 0 6319 0 0 6233 0 0 6333 0 0 6280 0 0 6301 0 0 6344 0 0 6341 0 0 3169 0 0 70 0 0 10 0 0 10 0 0 2 0 0 4 0 0 10 0 0 6 0 0 6 0 0 8 0 0 
0 0 0 2 0 0 2 0 0 6 0 0 7 0 0 7 0 0 7 0 0 13 0 0 13 0 0 49 0 0 3178 0 0 6324 0 0 6335 0 0 6291 0 0 6326 0 0 6329 0 0 6276 0 0 6319 0 0 6220 0 0 6274 0 0 6289 0 0 6355 0 0 6446 0 0 6323 0 0 6318 0 0 6386 0 0 6388 0 0 6308 0 0 6156 0 0 6308 0 0 6354 0 0 6332 0 0 6394 0 0 6109 0 0 6298 0 0 6315 0 0 6336 0 0 6311 0 0 6343 0 0 6318 0 0 6304 0 0 6388 0 0 6271 0 0 6182 0 0 6196 0 0 6313 0 0 6455 0 0 6351 0 0 6199 0 0 6284 0 0 3171 0 0 54 0 0 15 0 0 6 0 0 3 0 0 3 0 0 3 0 0 5 0 0 7 0 0 5 0 0 
2 0 0 4 0 0 3 0 0 7 0 0 5 0 0 5 0 0 11 0 0 3 0 0 9 0 0 51 0 0 3185 0 0 6275 0 0 6240 0 0 6280 0 0 6233 0 0 6368 0 0 6332 0 0 6243 0 0 6383 0 0 6330 0 0 6212 0 0 6275 0 0 6363 0 0 6202 0 0 6228 0 0 6414 0 0 6263 0 0 6407 0 0 6270 0 0 6338 0 0 6110 0 0 6302 0 0 6257 0 0 6260 0 0 6153 0 0 6307 0 0 6256 0 0 6331 0 0 6271 0 0 6321 0 0 6333 0 0 6328 0 0 6273 0 0 6336 0 0 6351 0 0 6369 0 0 6347 0 0 6190 0 0 6294 0 0 6286 0 0 3158 0 0 54 0 0 12 0 0 7 0 0 6 0 0 4 0 0 2 0 0 4 0 0 7 0 0 2 0 0 
3 0 0 0 0 0 4 0 0 6 0 0 11 0 0 9 0 0 8 0 0 9 0 0 8 0 0 44 0 0 3120 0 0 6165 0 0 6477 0 0 6410 0 0 6251 0 0 6428 0 0 6283 0 0 6333 0 0 6304 0 0 6453 0 0 6354 0 0 6326 0 0 6278 0 0 6357 0 0 6287 0 0 6358 0 0 6353 0 0 6335 0 0 6283 0 0 6430 0 0 6214 0 0 6386 0 0 6252 0 0 6270 0 0 6301 0 0 6288 0 0 6188 0 0 6370 0 0 6358 0 0 6288 0 0 6274 0 0 6484 0 0 6360 0 0 6261 0 0 6262 0 0 6314 0 0 6335 0 0 6452 0 0 6287 0 0 6216 0 0 3140 0 0 47 0 0 14 0 0 9 0 0 9 0 0 4 0 0 6 0 0 6 0 0 8 0 0 5 0 0 
3 0 0 6 0 0 3 0 0 4 0 0 8 0 0 7 0 0 10 0 0 11 0 0 7 0 0 50 0 0 3119 0 0 6331 0 0 6289 0 0 6281 0 0 6288 0 0 6288 0 0 6437 0 0 6239 0 0 6209 0 0 6419 0 0 6195 0 0 6212 0 0 6313 0 0 6331 0 0 6400 0 0 6208 0 0 6377 0 0 6316 0 0 6358 0 0 6135 0 0 6395 0 0 6340 0 0 6369 0 0 6422 0 0 6326 0 0 6331 0 0 6548 0 0 6218 0 0 6389 0 0 6321 0 0 6344 0 0 6413 0 0 6321 0 0 6257 0 0 6197 0 0 6379 0 0 6354 0 0 6180 0 0 6291 0 0 6331 0 0 3238 0 0 52 0 0 12 0 0 4 0 0 6 0 0 5 0 0 0 0 0 6 0 0 3 0 0 4 0 0 
2 0 0 3 0 0 3 0 0 0 0 0 2 0 0 2 0 0 7 0 0 11 0 0 12 0 0 72 0 0 3164 0 0 6179 0 0 6241 0 0 6298 0 0 6374 0 0 6236 0 0 6310 0 0 6354 0 0 6318 0 0 6293 0 0 6344 0 0 6270 0 0 6240 0 0 6307 0 0 6366 0 0 6321 0 0 6253 0 0 6216 0 0 6149 0 0 6230 0 0 6399 0 0 6182 0 0 6234 0 0 6275 0 0 6298 0 0 6354 0 0 6259 0 0 6274 0 0 6240 0 0 6259 0 0 6265 0 0 6428 0 0 6319 0 0 6266 0 0 6066 0 0 6201 0 0 6350 0 0 6344 0 0 6349 0 0 6209 0 0 3198 0 0 49 0 0 9 0 0 10 0 0 10 0 0 8 0 0 8 0 0 8 0 0 4 0 0 5 0 0 
0 0 0 2 0 0 4 0 0 1 0 0 2 0 0 3 0 0 4 0 0 13 0 0 16 0 0 58 0 0 3223 0 0 6206 0 0 6413 0 0 6274 0 0 6405 0 0 6217 0 0 6195 0 0 6236 0 0 6276 0 0 6241 0 0 6299 0 0 6298 0 0 6202 0 0 6286 0 0 6294 0 0 6430 0 0 6255 0 0 6304 0 0 6354 0 0 6266 0 0 6275 0 0 6391 0 0 6349 0 0 6431 0 0 6373 0 0 6329 0 0 6448 0 0 6343 0 0 6271 0 0 6358 0 0 6263 0 0 6361 0 0 6208 0 0 6390 0 0 6303 0 0 6373 0 0 6351 0 0 6240 0 0 6328 0 0 6266 0 0 3218 0 0 48 0 0 15 0 0 12 0 0 8 0 0 3 0 0 3 0 0 5 0 0 4 0 0 4 0 0 
1 0 0 1 0 0 1 0 0 3 0 0 6 0 0 6 0 0 5 0 0 14 0 0 12 0 0 51 0 0 3108 0 0 6189 0 0 6300 0 0 6176 0 0 6350 0 0 6294 0 0 6317 0 0 6447 0 0 6236 0 0 6352 0 0 6165 0 0 6318 0 0 6299 0 0 6477 0 0 6211 0 0 6146 0 0 6307 0 0 6201 0 0 6254 0 0 6331 0 0 6216 0 0 6184 0 0 6445 0 0 6295 0 0 6333 0 0 6176 0 0 6169 0 0 6360 0 0 6312 0 0 6316 0 0 6384 0 0 6286 0 0 6314 0 0 6218 0 0 6231 0 0 6343 0 0 6194 0 0 6249 0 0 6240 0 0 6235 0 0 3153 0 0 48 0 0 11 0 0 10 0 0 5 0 0 6 0 0 11 0 0 6 0 0 6 0 0 4 0 0 
1 0 0 2 0 0 4 0 0 3 0 0 3 0 0 4 0 0 10 0 0 8 0 0 16 0 0 50 0 0 3160 0 0 6265 0 0 6281 0 0 6241 0 0 6314 0 0 6392 0 0 6332 0 0 6236 0 0 6288 0 0 6231 0 0 6167 0 0 6423 0 0 6405 0 0 6345 0 0 6266 0 0 6308 0 0 6231 0 0 6392 0 0 6139 0 0 6315 0 0 6360 0 0 6301 0 0 6407 0 0 6323 0 0 6247 0 0 6277 0 0 6329 0 0 6284 0 0 6223 0 0 6404 0 0 6276 0 0 6321 0 0 6261 0 0 6296 0 0 6284 0 0 6300 0 0 6286 0 0 6326 0 0 6343 0 0 6235 0 0 3130 0 0 58 0 0 19 0 0 16 0 0 12 0 0 9 0 0 2 0 0 2 0 0 1 0 0 1 0 0 
0 0 0 1 0 0 5 0 0 2 0 0 0 0 0 5 0 0 6 0 0 4 0 0 10 0 0 37 0 0 3054 0 0 6165 0 0 6258 0 0 6314 0 0 6372 0 0 6245 0 0 6254 0 0 6152 0 0 6316 0 0 6291 0 0 6305 0 0 6365 0 0 6238 0 0 6312 0 0 6302 0 0 6447 0 0 6239 0 0 6422 0 0 6329 0 0 6464 0 0 6267 0 0 6313 0 0 6260 0 0 6332 0 0 6376 0 0 6313 0 0 6351 0 0 6357 0 0 6344 0 0 6285 0 0 6272 0 0 6339 0 0 6178 0 0 6301 0 0 6291 0 0 6247 0 0 6330 0 0 6396 0 0 6313 0 0 6250 0 0 3126 0 0 53 0 0 17 0 0 12 0 0 8 0 0 4 0 0 2 0 0 0 0 0 3 0 0 0 0 0 
1 0 0 5 0 0 1 0 0 5 0 0 4 0 0 3 0 0 6 0 0 4 0 0 11 0 0 47 0 0 3209 0 0 6203 0 0 6228 0 0 6316 0 0 6312 0 0 6330 0 0 6341 0 0 6289 0 0 6197 0 0 6344 0 0 6254 0 0 6248 0 0 6310 0 0 6277 0 0 6222 0 0 6353 0 0 6286 0 0 6212 0 0 6292 0 0 6363 0 0 6369 0 0 6229 0 0 6346 0 0 6195 0 0 6278 0 0 6324 0 0 6255 0 0 6409 0 0 6147 0 0 6345 0 0 6331 0 0 6205 0 0 6247 0 0 6177 0 0 6127 0 0 6330 0 0 6300 0 0 6394 0 0 6338 0 0 6309 0 0 3079 0 0 51 0 0 8 0 0 8 0 0 5 0 0 8 0 0 4 0 0 9 0 0 2 0 0 3 0 0 
2 0 0 3 0 0 1 0 0 1 0 0 4 0 0 4 0 0 5 0 0 7 0 0 8 0 0 57 0 0 3167 0 0 6300 0 0 6188 0 0 6204 0 0 6300 0 0 6317 0 0 6326 0 0 6427 0 0 6187 0 0 6400 0 0 6329 0 0 6348 0 0 6330 0 0 6275 0 0 6239 0 0 6304 0 0 6262 0 0 6353 0 0 6350 0 0 6235 0 0 6302 0 0 6271 0 0 6229 0 0 6283 0 0 6277 0 0 6298 0 0 6132 0 0 6259 0 0 6302 0 0 6326 0 0 6295 0 0 6234 0 0 6237 0 0 6289 0 0 6301 0 0 6321 0 0 6432 0 0 6205 0 0 6237 0 0 6152 0 0 3249 0 0 51 0 0 8 0 0 6 0 0 5 0 0 8 0 0 3 0 0 3 0 0 5 0 0 1 0 0 
0 0 0 1 0 0 0 0 0 4 0 0 1 0 0 1 0 0 4 0 0 4 0 0 15 0 0 48 0 0 3229 0 0 6283 0 0 6324 0 0 6266 0 0 6415 0 0 6301 0 0 6380 0 0 6296 0 0 6323 0 0 6275 0 0 6297 0 0 6252 0 0 6278 0 0 6362 0 0 6427 0 0 6341 0 0 6241 0 0 6210 0 0 6326 0 0 6176 0 0 6369 0 0 6181 0 0 6216 0 0 6422 0 0 6382 0 0 6367 0 0 6339 0 0 6430 0 0 6366 0 0 6387 0 0 6365 0 0 6264 0 0 6241 0 0 6295 0 0 6173 0 0 6251 0 0 6204 0 0 6289 0 0 6233 0 0 6226 0 0 3200 0 0 55 0 0 9 0 0 7 0 0 3 0 0 2 0 0 3 0 0 1 0 0 6 0 0 2 0 0 
1 0 0 2 0 0 5 0 0 2 0 0 3 0 0 5 0 0 3 0 0 6 0 0 6 0 0 52 0 0 3209 0 0 6158 0 0 6248 0 0 6317 0 0 6281 0 0 6218 0 0 6224 0 0 6387 0 0 6401 0 0 6393 0 0 6257 0 0 6215 0 0 6348 0 0 6223 0 0 6320 0 0 6329 0 0 6399 0 0 6261 0 0 6306 0 0 6386 0 0 6153 0 0 6386 0 0 6430 0 0 6360 0 0 6204 0 0 6317 0 0 6428 0 0 6464 0 0 6286 0 0 6253 0 0 6388 0 0 6439 0 0 6195 0 0 6262 0 0 6312 0 0 6229 0 0 6168 0 0 6190 0 0 6330 0 0 6284 0 0 3171 0 0 59 0 0 11 0 0 7 0 0 3 0 0 4 0 0 3 0 0 2 0 0 2 0 0 1 0 0 
1 0 0 2 0 0 3 0 0 5 0 0 10 0 0 12 0 0 3 0 0 4 0 0 6 0 0 59 0 0 3176 0 0 6402 0 0 6375 0 0 6196 0 0 6304 0 0 6344 0 0 6381 0 0 6215 0 0 6210 0 0 6368 0 0 6429 0 0 6285 0 0 6333 0 0 6355 0 0 6518 0 0 6318 0 0 6378 0 0 6330 0 0 6309 0 0 6262 0 0 6265 0 0 6307 0 0 6337 0 0 6310 0 0 6198 0 0 6257 0 0 6370 0 0 6226 0 0 6260 0 0 6299 0 0 6255 0 0 6293 0 0 6219 0 0 6240 0 0 6339 0 0 6402 0 0 6213 0 0 6348 0 0 6321 0 0 6358 0 0 3185 0 0 52 0 0 9 0 0 5 0 0 7 0 0 8 0 0 4 0 0 7 0 0 7 0 0 0 0 0 
0 0 0 1 0 0 2 0 0 5 0 0 5 0 0 5 0 0 4 0 0 5 0 0 4 0 0 49 0 0 3106 0 0 6256 0 0 6162 0 0 6193 0 0 6420 0 0 6318 0 0 6183 0 0 6179 0 0 6162 0 0 6165 0 0 6238 0 0 6258 0 0 6211 0 0 6235 0 0 6255 0 0 6147 0 0 6198 0 0 6207 0 0 6246 0 0 6364 0 0 6205 0 0 6286 0 0 6337 0 0 6385 0 0 6365 0 0 6331 0 0 6215 0 0 6285 0 0 6284 0 0 6269 0 0 6296 0 0 6281 0 0 6297 0 0 6141 0 0 6273 0 0 6247 0 0 6295 0 0 6112 0 0 6268 0 0 6294 0 0 3193 0 0 51 0 0 6 0 0 6 0 0 4 0 0 6 0 0 7 0 0 5 0 0 7 0 0 4 0 0 
0 0 0 2 0 0 2 0 0 4 0 0 5 0 0 1 0 0 3 0 0 2 0 0 6 0 0 29 0 0 1529 0 0 3163 0 0 3150 0 0 3123 0 0 3169 0 0 3106 0 0 3146 0 0 3176 0 0 3198 0 0 3170 0 0 3054 0 0 3107 0 0 3263 0 0 3180 0 0 3083 0 0 3116 0 0 3192 0 0 3074 0 0 3213 0 0 3140 0 0 3200 0 0 3170 0 0 2986 0 0 3107 0 0 3134 0 0 3231 0 0 3231 0 0 3075 0 0 3206 0 0 3130 0 0 3103 0 0 3083 0 0 3111 0 0 3073 0 0 3163 0 0 3146 0 0 3115 0 0 3141 0 0 3138 0 0 3153 0 0 1577 0 0 25 0 0 9 0 0 6 0 0 5 0 0 3 0 0 4 0 0 4 0 0 5 0 0 4 0 0 
0 0 0 3 0 0 3 0 0 2 0 0 1 0 0 0 0 0 2 0 0 3 0 0 1 0 0 3 0 0 33 0 0 45 0 0 51 0 0 62 0 0 47 0 0 56 0 0 40 0 0 42 0 0 60 0 0 40 0 0 48 0 0 64 0 0 53 0 0 48 0 0 54 0 0 55 0 0 55 0 0 66 0 0 51 0 0 49 0 0 59 0 0 52 0 0 59 0 0 63 0 0 50 0 0 52 0 0 54 0 0 51 0 0 48 0 0 51 0 0 44 0 0 56 0 0 49 0 0 57 0 0 56 0 0 50 0 0 47 0 0 53 0 0 60 0 0 44 0 0 20 0 0 5 0 0 9 0 0 6 0 0 4 0 0 4 0 0 2 0 0 0 0 0 0 0 0 2 0 0 
0 0 0 0 0 0 1 0 0 0 0 0 1 0 0 5 0 0 1 0 0 2 0 0 5 0 0 6 0 0 3 0 0 5 0 0 7 0 0 7 0 0 10 0 0 8 0 0 4 0 0 12 0 0 16 0 0 8 0 0 13 0 0 13 0 0 9 0 0 8 0 0 12 0 0 7 0 0 12 0 0 11 0 0 14 0 0 11 0 0 7 0 0 11 0 0 11 0 0 12 0 0 11 0 0 11 0 0 12 0 0 13 0 0 12 0 0 13 0 0 11 0 0 18 0 0 4 0 0 13 0 0 9 0 0 8 0 0 10 0 0 6 0 0 12 0 0 6 0 0 5 0 0 2 0 0 4 0 0 5 0 0 6 0 0 6 0 0 2 0 0 5 0 0 0 0 0 2 0 0 
0 0 0 0 0 0 2 0 0 0 0 0 1 0 0 3 0 0 3 0 0 4 0 0 4 0 0 1 0 0 2 0 0 0 0 0 5 0 0 7 0 0 5 0 0 4 0 0 8 0 0 12 0 0 9 0 0 6 0 0 6 0 0 9 0 0 2 0 0 6 0 0 9 0 0 9 0 0 14 0 0 6 0 0 6 0 0 10 0 0 8 0 0 4 0 0 7 0 0 7 0 0 11 0 0 6 0 0 12 0 0 12 0 0 8 0 0 7 0 0 14 0 0 9 0 0 1 0 0 9 0 0 3 0 0 6 0 0 10 0 0 3 0 0 5 0 0 7 0 0 10 0 0 2 0 0 1 0 0 0 0 0 1 0 0 4 0 0 8 0 0 2 0 0 8 0 0 0 0 0 
0 0 0 0 0 0 0 0 0 1 0 0 1 0 0 1 0 0 1 0 0 8 0 0 4 0 0 4 0 0 0 0 0 3 0 0 5 0 0 6 0 0 3 0 0 2 0 0 5 0 0 8 0 0 7 0 0 2 0 0 9 0 0 12 0 0 12 0 0 7 0 0 6 0 0 5 0 0 7 0 0 6 0 0 5 0 0 5 0 0 3 0 0 2 0 0 4 0 0 4 0 0 11 0 0 9 0 0 11 0 0 7 0 0 2 0 0 5 0 0 10 0 0 5 0 0 3 0 0 6 0 0 5 0 0 8 0 0 10 0 0 4 0 0 6 0 0 6 0 0 7 0 0 0 0 0 3 0 0 3 0 0 0 0 0 1 0 0 6 0 0 7 0 0 1 0 0 2 0 0 
1 0 0 0 0 0 0 0 0 2 0 0 0 0 0 2 0 0 3 0 0 2 0 0 2 0 0 0 0 0 0 0 0 9 0 0 4 0 0 3 0 0 2 0 0 1 0 0 8 0 0 5 0 0 8 0 0 4 0 0 8 0 0 8 0 0 8 0 0 5 0 0 8 0 0 4 0 0 5 0 0 7 0 0 7 0 0 2 0 0 2 0 0 1 0 0 4 0 0 2 0 0 7 0 0 6 0 0 9 0 0 4 0 0 6 0 0 7 0 0 2 0 0 4 0 0 4 0 0 7 0 0 6 0 0 6 0 0 5 0 0 4 0 0 4 0 0 7 0 0 5 0 0 1 0 0 1 0 0 3 0 0 3 0 0 3 0 0 1 0 0 3 0 0 3 0 0 1 0 0 
0 0 0 1 0 0 1 0 0 1 0 0 4 0 0 2 0 0 7 0 0 2 0 0 0 0 0 1 0 0 2 0 0 2 0 0 6 0 0 3 0 0 1 0 0 9 0 0 4 0 0 2 0 0 4 0 0 3 0 0 6 0 0 8 0 0 5 0 0 5 0 0 7 0 0 2 0 0 3 0 0 3 0 0 8 0 0 3 0 0 1 0 0 2 0 0 2 0 0 3 0 0 2 0 0 3 0 0 6 0 0 1 0 0 7 0 0 5 0 0 4 0 0 4 0 0 2 0 0 4 0 0 6 0 0 7 0 0 6 0 0 8 0 0 2 0 0 3 0 0 4 0 0 1 0 0 4 0 0 1 0 0 1 0 0 2 0 0 0 0 0 0 0 0 2 0 0 0 0 0 
0 0 0 2 0 0 3 0 0 5 0 0 3 0 0 4 0 0 3 0 0 2 0 0 3 0 0 6 0 0 4 0 0 2 0 0 1 0 0 1 0 0 2 0 0 3 0 0 1 0 0 2 0 0 5 0 0 5 0 0 8 0 0 7 0 0 5 0 0 3 0 0 6 0 0 4 0 0 2 0 0 3 0 0 4 0 0 4 0 0 0 0 0 0 0 0 1 0 0 1 0 0 2 0 0 4 0 0 2 0 0 0 0 0 2 0 0 4 0 0 4 0 0 4 0 0 2 0 0 2 0 0 2 0 0 3 0 0 8 0 0 5 0 0 3 0 0 7 0 0 3 0 0 2 0 0 4 0 0 5 0 0 1 0 0 0 0 0 2 0 0 0 0 0 0 0 0 2 0 0 
1 0 0 2 0 0 1 0 0 0 0 0 7 0 0 3 0 0 0 0 0 3 0 0 0 0 0 3 0 0 3 0 0 2 0 0 2 0 0 2 0 0 7 0 0 2 0 0 2 0 0 2 0 0 7 0 0 3 0 0 3 0 0 3 0 0 9 0 0 4 0 0 4 0 0 3 0 0 9 0 0 2 0 0 2 0 0 3 0 0 1 0 0 2 0 0 0 0 0 2 0 0 4 0 0 6 0 0 4 0 0 1 0 0 4 0 0 3 0 0 2 0 0 2 0 0 4 0 0 7 0 0 1 0 0 2 0 0 9 0 0 1 0 0 1 0 0 2 0 0 4 0 0 0 0 0 3 0 0 2 0 0 2 0 0 1 0 0 1 0 0 2 0 0 1 0 0 0 0 0 
1 0 0 0 0 0 1 0 0 3 0 0 4 0 0 0 0 0 1 0 0 2 0 0 3 0 0 3 0 0 4 0 0 1 0 0 0 0 0 8 0 0 2 0 0 0 0 0 1 0 0 2 0 0 7 0 0 1 0 0 1 0 0 5 0 0 2 0 0 7 0 0 2 0 0 3 0 0 8 0 0 1 0 0 2 0 0 7 0 0 0 0 0 1 0 0 2 0 0 2 0 0 2 0 0 3 0 0 3 0 0 4 0 0 5 0 0 4 0 0 1 0 0 2 0 0 7 0 0 3 0 0 2 0 0 5 0 0 4 0 0 0 0 0 3 0 0 3 0 0 3 0 0 4 0 0 2 0 0 2 0 0 2 0 0 2 0 0 0 0 0 0 0 0 2 0 0 4 0 0 
