P3
# This is a dose file slice at depth 20 of 100
60 60
# now we give the maximum value of the RGB coordinates.
34334
0 0 0 0 0 0 0 0 0 0 0 0 0 0 0 0 0 0 0 0 0 0 0 0 0 0 0 0 0 0 0 0 0 0 0 0 0 0 0 0 0 0 0 0 0 0 0 0 0 0 0 0 0 0 0 0 0 0 0 0 0 0 0 0 0 0 0 0 0 0 0 0 0 0 0 0 0 0 0 0 0 0 0 0 0 0 0 0 0 0 0 0 0 0 0 0 0 0 0 0 0 0 0 0 0 0 0 0 0 0 0 0 0 0 0 0 0 0 0 0 0 0 0 0 0 0 0 0 0 0 0 0 0 0 0 0 0 0 0 0 0 0 0 0 0 0 0 0 0 0 0 0 0 0 0 0 0 0 0 0 0 0 0 0 0 0 0 0 0 0 0 0 0 0 0 0 0 0 0 0 
0 0 0 0 0 0 0 0 0 0 0 0 0 0 0 0 0 0 0 0 0 0 0 0 0 0 0 0 0 0 0 0 0 0 0 0 0 0 0 0 0 0 0 0 0 0 0 0 0 0 0 0 0 0 0 0 0 0 0 0 0 0 0 0 0 0 0 0 0 0 0 0 0 0 0 0 0 0 0 0 0 0 0 0 0 0 0 0 0 0 0 0 0 0 0 0 0 0 0 0 0 0 0 0 0 0 0 0 0 0 0 0 0 0 0 0 0 0 0 0 0 0 0 0 0 0 0 0 0 0 0 0 0 0 0 0 0 0 0 0 0 0 0 0 0 0 0 0 0 0 0 0 0 0 0 0 0 0 0 0 0 0 0 0 0 0 0 0 0 0 0 0 0 0 0 0 0 0 0 0 
0 0 0 0 0 0 0 0 0 0 0 0 0 0 0 0 0 0 0 0 0 0 0 0 0 0 0 0 0 0 0 0 0 0 0 0 0 0 0 0 0 0 0 0 0 0 0 0 0 0 0 0 0 0 0 0 0 0 0 0 0 0 0 0 0 0 0 0 0 0 0 0 0 0 0 0 0 0 0 0 0 0 0 0 0 0 0 0 0 0 0 0 0 0 0 0 0 0 0 0 0 0 0 0 0 0 0 0 0 0 0 0 0 0 0 0 0 0 0 0 0 0 0 0 0 0 0 0 0 0 0 0 0 0 0 0 0 0 0 0 0 0 0 0 0 0 0 0 0 0 0 0 0 0 0 0 0 0 0 0 0 0 0 0 0 0 0 0 0 0 0 0 0 0 0 0 0 0 0 0 
0 0 0 0 0 0 0 0 0 0 0 0 0 0 0 0 0 0 0 0 0 0 0 0 0 0 0 0 0 0 0 0 0 0 0 0 0 0 0 0 0 0 0 0 0 0 0 0 0 0 0 0 0 0 0 0 0 0 0 0 0 0 0 0 0 0 0 0 0 0 0 0 0 0 0 0 0 0 0 0 0 0 0 0 0 0 0 0 0 0 0 0 0 0 0 0 0 0 0 0 0 0 0 0 0 0 0 0 0 0 0 0 0 0 0 0 0 0 0 0 0 0 0 0 0 0 0 0 0 0 0 0 0 0 0 0 0 0 0 0 0 0 0 0 0 0 0 0 0 0 0 0 0 0 0 0 0 0 0 0 0 0 0 0 0 0 0 0 0 0 0 0 0 0 0 0 0 0 0 0 
0 0 0 0 0 0 0 0 0 0 0 0 0 0 0 0 0 0 0 0 0 0 0 0 0 0 0 0 0 0 0 0 0 0 0 0 0 0 0 0 0 0 0 0 0 0 0 0 0 0 0 0 0 0 0 0 0 0 0 0 0 0 0 0 0 0 0 0 0 0 0 0 0 0 0 0 0 0 0 0 0 0 0 0 0 0 0 0 0 0 0 0 0 0 0 0 0 0 0 0 0 0 0 0 0 0 0 0 0 0 0 0 0 0 0 0 0 0 0 0 0 0 0 0 0 0 0 0 0 0 0 0 0 0 0 0 0 0 0 0 0 0 0 0 0 0 0 0 0 0 0 0 0 0 0 0 0 0 0 0 0 0 0 0 0 0 0 0 0 0 0 0 0 0 0 0 0 0 0 0 
0 0 0 0 0 0 0 0 0 0 0 0 0 0 0 0 0 0 0 0 0 0 0 0 0 0 0 0 0 0 0 0 0 0 0 0 0 0 0 0 0 0 0 0 0 0 0 0 0 0 0 0 0 0 0 0 0 0 0 0 0 0 0 0 0 0 0 0 0 0 0 0 0 0 0 0 0 0 0 0 0 0 0 0 0 0 0 0 0 0 0 0 0 0 0 0 0 0 0 0 0 0 0 0 0 0 0 0 0 0 0 0 0 0 0 0 0 0 0 0 0 0 0 0 0 0 0 0 0 0 0 0 0 0 0 0 0 0 0 0 0 0 0 0 0 0 0 0 0 0 0 0 0 0 0 0 0 0 0 0 0 0 0 0 0 0 0 0 0 0 0 0 0 0 0 0 0 0 0 0 
0 0 0 0 0 0 0 0 0 0 0 0 0 0 0 0 0 0 0 0 0 0 0 0 0 0 0 0 0 0 0 0 0 0 0 0 0 0 0 0 0 0 0 0 0 0 0 0 0 0 0 0 0 0 0 0 0 0 0 0 0 0 0 0 0 0 0 0 0 0 0 0 0 0 0 0 0 0 0 0 0 0 0 0 0 0 0 0 0 0 0 0 0 0 0 0 0 0 0 0 0 0 0 0 0 0 0 0 0 0 0 0 0 0 0 0 0 0 0 0 0 0 0 0 0 0 0 0 0 0 0 0 0 0 0 0 0 0 0 0 0 0 0 0 0 0 0 0 0 0 0 0 0 0 0 0 0 0 0 0 0 0 0 0 0 0 0 0 0 0 0 0 0 0 0 0 0 0 0 0 
0 0 0 0 0 0 0 0 0 0 0 0 0 0 0 0 0 0 0 0 0 0 0 0 0 0 0 0 0 0 0 0 0 0 0 0 0 0 0 0 0 0 0 0 0 0 0 0 0 0 0 0 0 0 0 0 0 0 0 0 0 0 0 0 0 0 0 0 0 0 0 0 0 0 0 0 0 0 0 0 0 0 0 0 0 0 0 0 0 0 0 0 0 0 0 0 0 0 0 0 0 0 0 0 0 0 0 0 0 0 0 0 0 0 0 0 0 0 0 0 0 0 0 0 0 0 0 0 0 0 0 0 0 0 0 0 0 0 0 0 0 0 0 0 0 0 0 0 0 0 0 0 0 0 0 0 0 0 0 0 0 0 0 0 0 0 0 0 0 0 0 0 0 0 0 0 0 0 0 0 
0 0 0 0 0 0 0 0 0 0 0 0 0 0 0 0 0 0 0 0 0 0 0 0 0 0 0 0 0 0 0 0 0 0 0 0 0 0 0 0 0 0 0 0 0 0 0 0 0 0 0 0 0 0 0 0 0 0 0 0 0 0 0 0 0 0 0 0 0 0 0 0 0 0 0 0 0 0 0 0 0 0 0 0 0 0 0 0 0 0 0 0 0 0 0 0 0 0 0 0 0 0 0 0 0 0 0 0 0 0 0 0 0 0 0 0 0 0 0 0 0 0 0 0 0 0 0 0 0 0 0 0 0 0 0 0 0 0 0 0 0 0 0 0 0 0 0 0 0 0 0 0 0 0 0 0 0 0 0 0 0 0 0 0 0 0 0 0 0 0 0 0 0 0 0 0 0 0 0 0 
0 0 0 0 0 0 0 0 0 0 0 0 0 0 0 0 0 0 0 0 0 0 0 0 0 0 0 0 0 0 0 0 0 0 0 0 0 0 0 0 0 0 0 0 0 0 0 0 0 0 0 0 0 0 0 0 0 0 0 0 0 0 0 0 0 0 0 0 0 0 0 0 0 0 0 0 0 0 0 0 0 0 0 0 0 0 0 0 0 0 0 0 0 0 0 0 0 0 0 0 0 0 0 0 0 0 0 0 0 0 0 0 0 0 0 0 0 0 0 0 0 0 0 0 0 0 0 0 0 0 0 0 0 0 0 0 0 0 0 0 0 0 0 0 0 0 0 0 0 0 0 0 0 0 0 0 0 0 0 0 0 0 0 0 0 0 0 0 0 0 0 0 0 0 0 0 0 0 0 0 
0 0 0 0 0 0 0 0 0 0 0 0 0 0 0 0 0 0 0 0 0 0 0 0 0 0 0 0 0 0 4733 0 0 9282 0 0 9306 0 0 9183 0 0 9263 0 0 9196 0 0 9287 0 0 9187 0 0 9322 0 0 9210 0 0 9346 0 0 9178 0 0 9168 0 0 9096 0 0 9482 0 0 9228 0 0 9191 0 0 9296 0 0 9395 0 0 9152 0 0 9244 0 0 9237 0 0 9311 0 0 9166 0 0 9289 0 0 9197 0 0 9201 0 0 9291 0 0 9292 0 0 9253 0 0 9332 0 0 9331 0 0 9202 0 0 9255 0 0 9331 0 0 9261 0 0 9279 0 0 9277 0 0 9183 0 0 9285 0 0 4737 0 0 0 0 0 0 0 0 0 0 0 0 0 0 0 0 0 0 0 0 0 0 0 0 0 0 0 0 0 
0 0 0 0 0 0 0 0 0 0 0 0 0 0 0 0 0 0 0 0 0 0 0 0 0 0 0 0 0 0 9231 0 0 18435 0 0 18377 0 0 18588 0 0 18602 0 0 18292 0 0 18307 0 0 18409 0 0 18342 0 0 18788 0 0 18359 0 0 18725 0 0 18761 0 0 18662 0 0 18458 0 0 18535 0 0 18621 0 0 18637 0 0 18426 0 0 18508 0 0 18593 0 0 18401 0 0 18439 0 0 18578 0 0 18637 0 0 18333 0 0 18272 0 0 18702 0 0 18530 0 0 18798 0 0 18486 0 0 18364 0 0 18491 0 0 18507 0 0 18461 0 0 18751 0 0 18324 0 0 18485 0 0 18229 0 0 18561 0 0 9280 0 0 0 0 0 0 0 0 0 0 0 0 0 0 0 0 0 0 0 0 0 0 0 0 0 0 0 0 0 
0 0 0 0 0 0 0 0 0 0 0 0 0 0 0 0 0 0 0 0 0 0 0 0 0 0 0 0 0 0 9368 0 0 18677 0 0 18681 0 0 18666 0 0 18604 0 0 18659 0 0 18443 0 0 18297 0 0 18765 0 0 18353 0 0 18372 0 0 18489 0 0 18458 0 0 18604 0 0 18761 0 0 18554 0 0 18612 0 0 18729 0 0 18566 0 0 18394 0 0 18489 0 0 18492 0 0 18445 0 0 18692 0 0 18456 0 0 18616 0 0 18561 0 0 18961 0 0 18502 0 0 18454 0 0 18437 0 0 18366 0 0 18389 0 0 18286 0 0 18555 0 0 18347 0 0 18602 0 0 18518 0 0 18619 0 0 18341 0 0 9477 0 0 0 0 0 0 0 0 0 0 0 0 0 0 0 0 0 0 0 0 0 0 0 0 0 0 0 0 0 
0 0 0 0 0 0 0 0 0 0 0 0 0 0 0 0 0 0 0 0 0 0 0 0 0 0 0 0 0 0 9221 0 0 18621 0 0 18355 0 0 18551 0 0 18506 0 0 18520 0 0 18576 0 0 18439 0 0 18294 0 0 18537 0 0 18492 0 0 18382 0 0 18493 0 0 18610 0 0 18255 0 0 18523 0 0 18650 0 0 18164 0 0 18337 0 0 18245 0 0 18561 0 0 18439 0 0 18525 0 0 18519 0 0 18730 0 0 18361 0 0 18467 0 0 18651 0 0 18487 0 0 18607 0 0 18523 0 0 18239 0 0 18407 0 0 18597 0 0 18574 0 0 18395 0 0 18431 0 0 18472 0 0 18667 0 0 18727 0 0 9473 0 0 0 0 0 0 0 0 0 0 0 0 0 0 0 0 0 0 0 0 0 0 0 0 0 0 0 0 0 
0 0 0 0 0 0 0 0 0 0 0 0 0 0 0 0 0 0 0 0 0 0 0 0 0 0 0 0 0 0 9065 0 0 18459 0 0 18365 0 0 18615 0 0 18496 0 0 18487 0 0 18666 0 0 18486 0 0 18619 0 0 18497 0 0 18466 0 0 18508 0 0 18542 0 0 18448 0 0 18336 0 0 18731 0 0 18633 0 0 18665 0 0 18543 0 0 18502 0 0 18385 0 0 18577 0 0 18455 0 0 18620 0 0 18549 0 0 18584 0 0 18520 0 0 18388 0 0 18564 0 0 18544 0 0 18501 0 0 18576 0 0 18342 0 0 18503 0 0 18489 0 0 18454 0 0 18565 0 0 18510 0 0 18454 0 0 18371 0 0 9187 0 0 0 0 0 0 0 0 0 0 0 0 0 0 0 0 0 0 0 0 0 0 0 0 0 0 0 0 0 
0 0 0 0 0 0 0 0 0 0 0 0 0 0 0 0 0 0 0 0 0 0 0 0 0 0 0 0 0 0 9175 0 0 18359 0 0 18503 0 0 18567 0 0 18389 0 0 18718 0 0 18438 0 0 18579 0 0 18448 0 0 18453 0 0 18711 0 0 18565 0 0 18663 0 0 18431 0 0 18457 0 0 18613 0 0 18445 0 0 18413 0 0 18455 0 0 18544 0 0 18321 0 0 18545 0 0 18483 0 0 18430 0 0 18357 0 0 18481 0 0 18654 0 0 18709 0 0 18494 0 0 18401 0 0 18439 0 0 18569 0 0 18658 0 0 18480 0 0 18705 0 0 18398 0 0 18465 0 0 18458 0 0 18613 0 0 18460 0 0 9234 0 0 0 0 0 0 0 0 0 0 0 0 0 0 0 0 0 0 0 0 0 0 0 0 0 0 0 0 0 
0 0 0 0 0 0 0 0 0 0 0 0 0 0 0 0 0 0 0 0 0 0 0 0 0 0 0 0 0 0 9129 0 0 18399 0 0 18536 0 0 18506 0 0 18571 0 0 18605 0 0 18349 0 0 18627 0 0 18321 0 0 18776 0 0 18428 0 0 18529 0 0 18451 0 0 18197 0 0 18515 0 0 18737 0 0 18674 0 0 18412 0 0 18541 0 0 18649 0 0 18624 0 0 18301 0 0 18492 0 0 18582 0 0 18464 0 0 18574 0 0 18571 0 0 18372 0 0 18307 0 0 18397 0 0 18737 0 0 18315 0 0 18547 0 0 18475 0 0 18406 0 0 18203 0 0 18433 0 0 18396 0 0 18433 0 0 18500 0 0 9201 0 0 0 0 0 0 0 0 0 0 0 0 0 0 0 0 0 0 0 0 0 0 0 0 0 0 0 0 0 
0 0 0 0 0 0 0 0 0 0 0 0 0 0 0 0 0 0 0 0 0 0 0 0 0 0 0 0 0 0 9176 0 0 18538 0 0 18541 0 0 18771 0 0 18475 0 0 18599 0 0 18357 0 0 18681 0 0 18442 0 0 18545 0 0 18629 0 0 18402 0 0 18403 0 0 18559 0 0 18314 0 0 18641 0 0 18306 0 0 18533 0 0 18332 0 0 18340 0 0 18618 0 0 18537 0 0 18392 0 0 18380 0 0 18401 0 0 18324 0 0 18737 0 0 18630 0 0 18448 0 0 18506 0 0 18438 0 0 18471 0 0 18377 0 0 18428 0 0 18631 0 0 18597 0 0 18458 0 0 18342 0 0 18592 0 0 18510 0 0 9118 0 0 0 0 0 0 0 0 0 0 0 0 0 0 0 0 0 0 0 0 0 0 0 0 0 0 0 0 0 
0 0 0 0 0 0 0 0 0 0 0 0 0 0 0 0 0 0 0 0 0 0 0 0 0 0 0 0 0 0 9191 0 0 18288 0 0 18485 0 0 18412 0 0 18395 0 0 18617 0 0 18297 0 0 18713 0 0 18493 0 0 18312 0 0 18387 0 0 18402 0 0 18627 0 0 18527 0 0 18485 0 0 18411 0 0 18542 0 0 18385 0 0 18636 0 0 18406 0 0 18421 0 0 18244 0 0 18455 0 0 18430 0 0 18497 0 0 18589 0 0 18359 0 0 18545 0 0 18728 0 0 18543 0 0 18417 0 0 18830 0 0 18716 0 0 18579 0 0 18327 0 0 18336 0 0 18657 0 0 18636 0 0 18612 0 0 18391 0 0 9274 0 0 0 0 0 0 0 0 0 0 0 0 0 0 0 0 0 0 0 0 0 0 0 0 0 0 0 0 0 
0 0 0 0 0 0 0 0 0 0 0 0 0 0 0 0 0 0 0 0 0 0 0 0 0 0 0 0 0 0 9366 0 0 18704 0 0 18580 0 0 18501 0 0 18513 0 0 18587 0 0 18485 0 0 18568 0 0 18477 0 0 18492 0 0 18395 0 0 18382 0 0 18523 0 0 18897 0 0 18426 0 0 18286 0 0 18767 0 0 18328 0 0 18604 0 0 18732 0 0 18594 0 0 18409 0 0 18491 0 0 18454 0 0 18341 0 0 18327 0 0 18450 0 0 18318 0 0 18454 0 0 18657 0 0 18545 0 0 18515 0 0 18502 0 0 18646 0 0 18385 0 0 18540 0 0 18440 0 0 18413 0 0 18477 0 0 18535 0 0 9439 0 0 0 0 0 0 0 0 0 0 0 0 0 0 0 0 0 0 0 0 0 0 0 0 0 0 0 0 0 
0 0 0 0 0 0 0 0 0 0 0 0 0 0 0 0 0 0 0 0 0 0 0 0 0 0 0 0 0 0 9099 0 0 18668 0 0 18345 0 0 18462 0 0 18570 0 0 18395 0 0 18600 0 0 18485 0 0 18396 0 0 18534 0 0 18460 0 0 18556 0 0 18437 0 0 18578 0 0 18520 0 0 18603 0 0 18392 0 0 18604 0 0 18507 0 0 18621 0 0 18482 0 0 18416 0 0 18582 0 0 18468 0 0 18430 0 0 18327 0 0 18367 0 0 18429 0 0 18626 0 0 18680 0 0 18548 0 0 18742 0 0 18641 0 0 18499 0 0 18597 0 0 18641 0 0 18741 0 0 18614 0 0 18515 0 0 18634 0 0 9257 0 0 0 0 0 0 0 0 0 0 0 0 0 0 0 0 0 0 0 0 0 0 0 0 0 0 0 0 0 
0 0 0 0 0 0 0 0 0 0 0 0 0 0 0 0 0 0 0 0 0 0 0 0 0 0 0 0 0 0 9374 0 0 18305 0 0 18568 0 0 18172 0 0 18363 0 0 18533 0 0 18433 0 0 18554 0 0 18236 0 0 18450 0 0 18439 0 0 18705 0 0 18438 0 0 18429 0 0 18466 0 0 18599 0 0 18313 0 0 18407 0 0 18376 0 0 18330 0 0 18502 0 0 18536 0 0 18326 0 0 18503 0 0 18252 0 0 18440 0 0 18520 0 0 18450 0 0 18652 0 0 18600 0 0 18808 0 0 18410 0 0 18261 0 0 18486 0 0 18399 0 0 18506 0 0 18286 0 0 18629 0 0 18484 0 0 18454 0 0 9118 0 0 0 0 0 0 0 0 0 0 0 0 0 0 0 0 0 0 0 0 0 0 0 0 0 0 0 0 0 
0 0 0 0 0 0 0 0 0 0 0 0 0 0 0 0 0 0 0 0 0 0 0 0 0 0 0 0 0 0 9246 0 0 18503 0 0 18479 0 0 18493 0 0 18716 0 0 18583 0 0 18551 0 0 18577 0 0 18608 0 0 18570 0 0 18424 0 0 18256 0 0 18623 0 0 18671 0 0 18494 0 0 18545 0 0 18452 0 0 18515 0 0 18628 0 0 18421 0 0 18600 0 0 18618 0 0 18148 0 0 18568 0 0 18607 0 0 18476 0 0 18495 0 0 18552 0 0 18612 0 0 18397 0 0 18647 0 0 18730 0 0 18490 0 0 18544 0 0 18519 0 0 18589 0 0 18500 0 0 18532 0 0 18258 0 0 18724 0 0 9233 0 0 0 0 0 0 0 0 0 0 0 0 0 0 0 0 0 0 0 0 0 0 0 0 0 0 0 0 0 
0 0 0 0 0 0 0 0 0 0 0 0 0 0 0 0 0 0 0 0 0 0 0 0 0 0 0 0 0 0 9328 0 0 18631 0 0 18445 0 0 18698 0 0 18280 0 0 18707 0 0 18348 0 0 18545 0 0 18453 0 0 18349 0 0 18499 0 0 18916 0 0 18523 0 0 18646 0 0 18248 0 0 18457 0 0 18437 0 0 18450 0 0 18715 0 0 18540 0 0 18439 0 0 18487 0 0 18406 0 0 18588 0 0 18546 0 0 18628 0 0 18472 0 0 18505 0 0 18679 0 0 18589 0 0 18427 0 0 18430 0 0 18531 0 0 18552 0 0 18502 0 0 18586 0 0 18882 0 0 18571 0 0 18652 0 0 18299 0 0 9261 0 0 0 0 0 0 0 0 0 0 0 0 0 0 0 0 0 0 0 0 0 0 0 0 0 0 0 0 0 
0 0 0 0 0 0 0 0 0 0 0 0 0 0 0 0 0 0 0 0 0 0 0 0 0 0 0 0 0 0 9251 0 0 18794 0 0 18470 0 0 18605 0 0 18622 0 0 18723 0 0 18417 0 0 18273 0 0 18316 0 0 18579 0 0 18417 0 0 18672 0 0 18698 0 0 18318 0 0 18392 0 0 18211 0 0 18281 0 0 18634 0 0 18455 0 0 18733 0 0 18460 0 0 18466 0 0 18503 0 0 18569 0 0 18585 0 0 18542 0 0 18369 0 0 18614 0 0 18523 0 0 18497 0 0 18498 0 0 18375 0 0 18710 0 0 18234 0 0 18437 0 0 18429 0 0 18448 0 0 18493 0 0 18332 0 0 18326 0 0 9191 0 0 0 0 0 0 0 0 0 0 0 0 0 0 0 0 0 0 0 0 0 0 0 0 0 0 0 0 0 
0 0 0 0 0 0 0 0 0 0 0 0 0 0 0 0 0 0 0 0 0 0 0 0 0 0 0 0 0 0 9084 0 0 18368 0 0 18413 0 0 18448 0 0 18573 0 0 18416 0 0 18525 0 0 18441 0 0 18523 0 0 18640 0 0 18591 0 0 18386 0 0 18663 0 0 18258 0 0 18680 0 0 18602 0 0 18540 0 0 18537 0 0 18539 0 0 18302 0 0 18363 0 0 18463 0 0 18671 0 0 18478 0 0 18424 0 0 18384 0 0 18578 0 0 18673 0 0 18306 0 0 18439 0 0 18789 0 0 18467 0 0 18247 0 0 18642 0 0 18598 0 0 18506 0 0 18573 0 0 18723 0 0 18532 0 0 18805 0 0 9133 0 0 0 0 0 0 0 0 0 0 0 0 0 0 0 0 0 0 0 0 0 0 0 0 0 0 0 0 0 
0 0 0 0 0 0 0 0 0 0 0 0 0 0 0 0 0 0 0 0 0 0 0 0 0 0 0 0 0 0 9160 0 0 18473 0 0 18544 0 0 18455 0 0 18413 0 0 18467 0 0 18363 0 0 18212 0 0 18601 0 0 18478 0 0 18668 0 0 18548 0 0 18223 0 0 18769 0 0 18566 0 0 18465 0 0 18496 0 0 18567 0 0 18670 0 0 18584 0 0 18721 0 0 18304 0 0 18561 0 0 18527 0 0 18529 0 0 18282 0 0 18366 0 0 18562 0 0 18501 0 0 18252 0 0 18435 0 0 18681 0 0 18497 0 0 18666 0 0 18598 0 0 18534 0 0 18419 0 0 18291 0 0 18422 0 0 18364 0 0 9177 0 0 0 0 0 0 0 0 0 0 0 0 0 0 0 0 0 0 0 0 0 0 0 0 0 0 0 0 0 
0 0 0 0 0 0 0 0 0 0 0 0 0 0 0 0 0 0 0 0 0 0 0 0 0 0 0 0 0 0 9337 0 0 18355 0 0 18453 0 0 18573 0 0 18569 0 0 18398 0 0 18564 0 0 18573 0 0 18647 0 0 18609 0 0 18610 0 0 18322 0 0 18531 0 0 18621 0 0 18211 0 0 18476 0 0 18428 0 0 18466 0 0 18316 0 0 18399 0 0 18482 0 0 18769 0 0 18562 0 0 18328 0 0 18627 0 0 18559 0 0 18343 0 0 18585 0 0 18489 0 0 18415 0 0 18364 0 0 18683 0 0 18571 0 0 18392 0 0 18569 0 0 18420 0 0 18389 0 0 18543 0 0 18331 0 0 18633 0 0 9325 0 0 0 0 0 0 0 0 0 0 0 0 0 0 0 0 0 0 0 0 0 0 0 0 0 0 0 0 0 
0 0 0 0 0 0 0 0 0 0 0 0 0 0 0 0 0 0 0 0 0 0 0 0 0 0 0 0 0 0 9302 0 0 18602 0 0 18571 0 0 18359 0 0 18482 0 0 18441 0 0 18409 0 0 18527 0 0 18469 0 0 18265 0 0 18499 0 0 18636 0 0 18626 0 0 18422 0 0 18598 0 0 18590 0 0 18562 0 0 18552 0 0 18498 0 0 18438 0 0 18486 0 0 18618 0 0 18552 0 0 18440 0 0 18507 0 0 18507 0 0 18319 0 0 18320 0 0 18387 0 0 18532 0 0 18916 0 0 18566 0 0 18474 0 0 18483 0 0 18448 0 0 18558 0 0 18610 0 0 18554 0 0 18339 0 0 18618 0 0 9172 0 0 0 0 0 0 0 0 0 0 0 0 0 0 0 0 0 0 0 0 0 0 0 0 0 0 0 0 0 
0 0 0 0 0 0 0 0 0 0 0 0 0 0 0 0 0 0 0 0 0 0 0 0 0 0 0 0 0 0 9192 0 0 18405 0 0 18465 0 0 18506 0 0 18685 0 0 18269 0 0 18434 0 0 18288 0 0 18770 0 0 18414 0 0 18450 0 0 18739 0 0 18612 0 0 18416 0 0 18666 0 0 18547 0 0 18443 0 0 18327 0 0 18430 0 0 18810 0 0 18578 0 0 18405 0 0 18551 0 0 18579 0 0 18329 0 0 18507 0 0 18454 0 0 18358 0 0 18620 0 0 18391 0 0 18594 0 0 18644 0 0 18117 0 0 18487 0 0 18431 0 0 18616 0 0 18513 0 0 18640 0 0 18421 0 0 18540 0 0 9332 0 0 0 0 0 0 0 0 0 0 0 0 0 0 0 0 0 0 0 0 0 0 0 0 0 0 0 0 0 
0 0 0 0 0 0 0 0 0 0 0 0 0 0 0 0 0 0 0 0 0 0 0 0 0 0 0 0 0 0 9269 0 0 18503 0 0 18482 0 0 18685 0 0 18419 0 0 18608 0 0 18490 0 0 18393 0 0 18633 0 0 18563 0 0 18461 0 0 18358 0 0 18456 0 0 18446 0 0 18224 0 0 18401 0 0 18556 0 0 18410 0 0 18467 0 0 18607 0 0 18619 0 0 18382 0 0 18749 0 0 18522 0 0 18441 0 0 18418 0 0 18406 0 0 18716 0 0 18629 0 0 18407 0 0 18588 0 0 18481 0 0 18301 0 0 18816 0 0 18431 0 0 18656 0 0 18409 0 0 18582 0 0 18074 0 0 18387 0 0 9173 0 0 0 0 0 0 0 0 0 0 0 0 0 0 0 0 0 0 0 0 0 0 0 0 0 0 0 0 0 
0 0 0 0 0 0 0 0 0 0 0 0 0 0 0 0 0 0 0 0 0 0 0 0 0 0 0 0 0 0 9231 0 0 18411 0 0 18396 0 0 18400 0 0 18550 0 0 18542 0 0 18264 0 0 18264 0 0 18529 0 0 18703 0 0 18361 0 0 18637 0 0 18250 0 0 18543 0 0 18496 0 0 18508 0 0 18306 0 0 18452 0 0 18193 0 0 18553 0 0 18319 0 0 18440 0 0 18548 0 0 18346 0 0 18505 0 0 18815 0 0 18823 0 0 18347 0 0 18628 0 0 18387 0 0 18504 0 0 18443 0 0 18464 0 0 18478 0 0 18446 0 0 18638 0 0 18276 0 0 18411 0 0 18497 0 0 18445 0 0 9159 0 0 0 0 0 0 0 0 0 0 0 0 0 0 0 0 0 0 0 0 0 0 0 0 0 0 0 0 0 
0 0 0 0 0 0 0 0 0 0 0 0 0 0 0 0 0 0 0 0 0 0 0 0 0 0 0 0 0 0 9221 0 0 18575 0 0 18891 0 0 18322 0 0 18632 0 0 18631 0 0 18437 0 0 18648 0 0 18472 0 0 18549 0 0 18589 0 0 18437 0 0 18652 0 0 18193 0 0 18568 0 0 18649 0 0 18369 0 0 18596 0 0 18734 0 0 18516 0 0 18373 0 0 18689 0 0 18512 0 0 18392 0 0 18545 0 0 18284 0 0 18401 0 0 18654 0 0 18474 0 0 18481 0 0 18553 0 0 18450 0 0 18519 0 0 18365 0 0 18553 0 0 18684 0 0 18622 0 0 18670 0 0 18285 0 0 18295 0 0 9326 0 0 0 0 0 0 0 0 0 0 0 0 0 0 0 0 0 0 0 0 0 0 0 0 0 0 0 0 0 
0 0 0 0 0 0 0 0 0 0 0 0 0 0 0 0 0 0 0 0 0 0 0 0 0 0 0 0 0 0 9274 0 0 18692 0 0 18510 0 0 18494 0 0 18470 0 0 18573 0 0 18558 0 0 18721 0 0 18559 0 0 18538 0 0 18689 0 0 18562 0 0 18513 0 0 18395 0 0 18678 0 0 18226 0 0 18570 0 0 18559 0 0 18539 0 0 18283 0 0 18589 0 0 18616 0 0 18563 0 0 18554 0 0 18393 0 0 18702 0 0 18586 0 0 18627 0 0 18561 0 0 18300 0 0 18425 0 0 18542 0 0 18418 0 0 18851 0 0 18645 0 0 18429 0 0 18338 0 0 18563 0 0 18897 0 0 18240 0 0 9264 0 0 0 0 0 0 0 0 0 0 0 0 0 0 0 0 0 0 0 0 0 0 0 0 0 0 0 0 0 
0 0 0 0 0 0 0 0 0 0 0 0 0 0 0 0 0 0 0 0 0 0 0 0 0 0 0 0 0 0 9410 0 0 18432 0 0 18437 0 0 18353 0 0 18682 0 0 18458 0 0 18395 0 0 18371 0 0 18436 0 0 18488 0 0 18595 0 0 18606 0 0 18438 0 0 18499 0 0 18269 0 0 18433 0 0 18554 0 0 18390 0 0 18334 0 0 18220 0 0 18563 0 0 18808 0 0 18513 0 0 18443 0 0 18453 0 0 18420 0 0 18443 0 0 18447 0 0 18448 0 0 18241 0 0 18591 0 0 18414 0 0 18489 0 0 18473 0 0 18281 0 0 18427 0 0 18646 0 0 18383 0 0 18778 0 0 18489 0 0 9456 0 0 0 0 0 0 0 0 0 0 0 0 0 0 0 0 0 0 0 0 0 0 0 0 0 0 0 0 0 
0 0 0 0 0 0 0 0 0 0 0 0 0 0 0 0 0 0 0 0 0 0 0 0 0 0 0 0 0 0 9021 0 0 18591 0 0 18397 0 0 18146 0 0 18317 0 0 18567 0 0 18433 0 0 18413 0 0 18430 0 0 18422 0 0 18379 0 0 18746 0 0 18697 0 0 18223 0 0 18488 0 0 18641 0 0 18614 0 0 18195 0 0 18311 0 0 18468 0 0 18472 0 0 18416 0 0 18708 0 0 18440 0 0 18449 0 0 18315 0 0 18387 0 0 18545 0 0 18534 0 0 18643 0 0 18434 0 0 18386 0 0 18462 0 0 18542 0 0 18192 0 0 18276 0 0 18446 0 0 18517 0 0 18683 0 0 18530 0 0 9294 0 0 0 0 0 0 0 0 0 0 0 0 0 0 0 0 0 0 0 0 0 0 0 0 0 0 0 0 0 
0 0 0 0 0 0 0 0 0 0 0 0 0 0 0 0 0 0 0 0 0 0 0 0 0 0 0 0 0 0 9257 0 0 18281 0 0 18679 0 0 18419 0 0 18360 0 0 18594 0 0 18569 0 0 18530 0 0 18619 0 0 18673 0 0 18404 0 0 18622 0 0 18455 0 0 18489 0 0 18359 0 0 18607 0 0 18346 0 0 18600 0 0 18551 0 0 18348 0 0 18426 0 0 18407 0 0 18467 0 0 18518 0 0 18472 0 0 18482 0 0 18628 0 0 18446 0 0 18671 0 0 18253 0 0 18816 0 0 18455 0 0 18640 0 0 18543 0 0 18332 0 0 18415 0 0 18508 0 0 18605 0 0 18653 0 0 18600 0 0 9248 0 0 0 0 0 0 0 0 0 0 0 0 0 0 0 0 0 0 0 0 0 0 0 0 0 0 0 0 0 
0 0 0 0 0 0 0 0 0 0 0 0 0 0 0 0 0 0 0 0 0 0 0 0 0 0 0 0 0 0 9071 0 0 18330 0 0 18679 0 0 18663 0 0 18488 0 0 18656 0 0 18273 0 0 18718 0 0 18538 0 0 18469 0 0 18683 0 0 18451 0 0 18610 0 0 18446 0 0 18583 0 0 18419 0 0 18487 0 0 18603 0 0 18379 0 0 18503 0 0 18862 0 0 18402 0 0 18624 0 0 18613 0 0 18599 0 0 18393 0 0 18716 0 0 18575 0 0 18505 0 0 18507 0 0 18703 0 0 18506 0 0 18379 0 0 18378 0 0 18416 0 0 18334 0 0 18565 0 0 18441 0 0 18559 0 0 18288 0 0 9416 0 0 0 0 0 0 0 0 0 0 0 0 0 0 0 0 0 0 0 0 0 0 0 0 0 0 0 0 0 
0 0 0 0 0 0 0 0 0 0 0 0 0 0 0 0 0 0 0 0 0 0 0 0 0 0 0 0 0 0 9034 0 0 18646 0 0 18518 0 0 18576 0 0 18566 0 0 18683 0 0 18313 0 0 18528 0 0 18645 0 0 18769 0 0 18442 0 0 18310 0 0 18777 0 0 18289 0 0 18577 0 0 18392 0 0 18699 0 0 18274 0 0 18377 0 0 18508 0 0 18609 0 0 18419 0 0 18420 0 0 18352 0 0 18436 0 0 18264 0 0 18732 0 0 18120 0 0 18309 0 0 18569 0 0 18486 0 0 18446 0 0 18520 0 0 18321 0 0 18318 0 0 18370 0 0 18180 0 0 18376 0 0 18452 0 0 18232 0 0 9250 0 0 0 0 0 0 0 0 0 0 0 0 0 0 0 0 0 0 0 0 0 0 0 0 0 0 0 0 0 
0 0 0 0 0 0 0 0 0 0 0 0 0 0 0 0 0 0 0 0 0 0 0 0 0 0 0 0 0 0 9266 0 0 18387 0 0 18303 0 0 18264 0 0 18690 0 0 18466 0 0 18568 0 0 18670 0 0 18506 0 0 18594 0 0 18551 0 0 18431 0 0 18374 0 0 18509 0 0 18213 0 0 18754 0 0 18690 0 0 18659 0 0 18764 0 0 18490 0 0 18562 0 0 18483 0 0 18653 0 0 18405 0 0 18700 0 0 18475 0 0 18255 0 0 18577 0 0 18537 0 0 18607 0 0 18368 0 0 18282 0 0 18311 0 0 18372 0 0 18751 0 0 18335 0 0 18553 0 0 18523 0 0 18507 0 0 18350 0 0 9286 0 0 0 0 0 0 0 0 0 0 0 0 0 0 0 0 0 0 0 0 0 0 0 0 0 0 0 0 0 
0 0 0 0 0 0 0 0 0 0 0 0 0 0 0 0 0 0 0 0 0 0 0 0 0 0 0 0 0 0 9173 0 0 18412 0 0 18599 0 0 18501 0 0 18522 0 0 18545 0 0 18640 0 0 18713 0 0 18584 0 0 18473 0 0 18426 0 0 18286 0 0 18663 0 0 18597 0 0 18524 0 0 18325 0 0 18595 0 0 18580 0 0 18493 0 0 18653 0 0 18359 0 0 18514 0 0 18539 0 0 18452 0 0 18434 0 0 18509 0 0 18479 0 0 18793 0 0 18353 0 0 18478 0 0 18286 0 0 18323 0 0 18408 0 0 18528 0 0 18619 0 0 18476 0 0 18524 0 0 18531 0 0 18406 0 0 18352 0 0 9187 0 0 0 0 0 0 0 0 0 0 0 0 0 0 0 0 0 0 0 0 0 0 0 0 0 0 0 0 0 
0 0 0 0 0 0 0 0 0 0 0 0 0 0 0 0 0 0 0 0 0 0 0 0 0 0 0 0 0 0 9233 0 0 18572 0 0 18701 0 0 18535 0 0 18643 0 0 18342 0 0 18294 0 0 18652 0 0 18809 0 0 18609 0 0 18517 0 0 18704 0 0 18544 0 0 18553 0 0 18526 0 0 18288 0 0 18550 0 0 18405 0 0 18830 0 0 18226 0 0 18531 0 0 18714 0 0 18441 0 0 18374 0 0 18886 0 0 18515 0 0 18561 0 0 18482 0 0 18493 0 0 18365 0 0 18172 0 0 18657 0 0 18405 0 0 18433 0 0 18367 0 0 18447 0 0 18359 0 0 18480 0 0 18734 0 0 18627 0 0 9218 0 0 0 0 0 0 0 0 0 0 0 0 0 0 0 0 0 0 0 0 0 0 0 0 0 0 0 0 0 
0 0 0 0 0 0 0 0 0 0 0 0 0 0 0 0 0 0 0 0 0 0 0 0 0 0 0 0 0 0 9244 0 0 18439 0 0 18458 0 0 18436 0 0 18456 0 0 18358 0 0 18385 0 0 18433 0 0 18880 0 0 18602 0 0 18131 0 0 18474 0 0 18648 0 0 18570 0 0 18208 0 0 18495 0 0 18533 0 0 18580 0 0 18715 0 0 18390 0 0 18629 0 0 18370 0 0 18577 0 0 18727 0 0 18514 0 0 18744 0 0 18511 0 0 18603 0 0 18660 0 0 18545 0 0 18600 0 0 18472 0 0 18312 0 0 18504 0 0 18560 0 0 18491 0 0 18460 0 0 18551 0 0 18652 0 0 18385 0 0 9158 0 0 0 0 0 0 0 0 0 0 0 0 0 0 0 0 0 0 0 0 0 0 0 0 0 0 0 0 0 
0 0 0 0 0 0 0 0 0 0 0 0 0 0 0 0 0 0 0 0 0 0 0 0 0 0 0 0 0 0 9230 0 0 18428 0 0 18285 0 0 18553 0 0 18734 0 0 18603 0 0 18370 0 0 18503 0 0 18433 0 0 18876 0 0 18652 0 0 18491 0 0 18650 0 0 18569 0 0 18271 0 0 18575 0 0 18538 0 0 18695 0 0 18490 0 0 18475 0 0 18689 0 0 18655 0 0 18859 0 0 18599 0 0 18695 0 0 18636 0 0 18716 0 0 18359 0 0 18518 0 0 18682 0 0 18416 0 0 18138 0 0 18324 0 0 18396 0 0 18464 0 0 18220 0 0 18501 0 0 18479 0 0 18493 0 0 18580 0 0 9066 0 0 0 0 0 0 0 0 0 0 0 0 0 0 0 0 0 0 0 0 0 0 0 0 0 0 0 0 0 
0 0 0 0 0 0 0 0 0 0 0 0 0 0 0 0 0 0 0 0 0 0 0 0 0 0 0 0 0 0 9376 0 0 18540 0 0 18583 0 0 18625 0 0 18402 0 0 18385 0 0 18529 0 0 18384 0 0 18474 0 0 18514 0 0 18462 0 0 18742 0 0 18463 0 0 18547 0 0 18609 0 0 18319 0 0 18348 0 0 18818 0 0 18540 0 0 18492 0 0 18342 0 0 18429 0 0 18620 0 0 18445 0 0 18526 0 0 18779 0 0 18791 0 0 18474 0 0 18473 0 0 18680 0 0 18443 0 0 18556 0 0 18624 0 0 18637 0 0 18377 0 0 18554 0 0 18608 0 0 18538 0 0 18533 0 0 18677 0 0 9369 0 0 0 0 0 0 0 0 0 0 0 0 0 0 0 0 0 0 0 0 0 0 0 0 0 0 0 0 0 
0 0 0 0 0 0 0 0 0 0 0 0 0 0 0 0 0 0 0 0 0 0 0 0 0 0 0 0 0 0 9300 0 0 18703 0 0 18224 0 0 18513 0 0 18355 0 0 18420 0 0 18395 0 0 18764 0 0 18654 0 0 18454 0 0 18441 0 0 18712 0 0 18483 0 0 18469 0 0 18589 0 0 18561 0 0 18629 0 0 18366 0 0 18458 0 0 18419 0 0 18577 0 0 18192 0 0 18467 0 0 18436 0 0 18705 0 0 18637 0 0 18301 0 0 18479 0 0 18534 0 0 18493 0 0 18463 0 0 18555 0 0 18564 0 0 18551 0 0 18793 0 0 18657 0 0 18247 0 0 18316 0 0 18651 0 0 18648 0 0 9206 0 0 0 0 0 0 0 0 0 0 0 0 0 0 0 0 0 0 0 0 0 0 0 0 0 0 0 0 0 
0 0 0 0 0 0 0 0 0 0 0 0 0 0 0 0 0 0 0 0 0 0 0 0 0 0 0 0 0 0 9177 0 0 18374 0 0 18465 0 0 18560 0 0 18406 0 0 18492 0 0 18144 0 0 18546 0 0 18328 0 0 18469 0 0 18280 0 0 18306 0 0 18486 0 0 18424 0 0 18522 0 0 18772 0 0 18525 0 0 18300 0 0 18459 0 0 18274 0 0 18745 0 0 18345 0 0 18579 0 0 18527 0 0 18443 0 0 18370 0 0 18627 0 0 18560 0 0 18466 0 0 18675 0 0 18438 0 0 18306 0 0 18364 0 0 18669 0 0 18719 0 0 18305 0 0 18420 0 0 18582 0 0 18520 0 0 18510 0 0 9315 0 0 0 0 0 0 0 0 0 0 0 0 0 0 0 0 0 0 0 0 0 0 0 0 0 0 0 0 0 
0 0 0 0 0 0 0 0 0 0 0 0 0 0 0 0 0 0 0 0 0 0 0 0 0 0 0 0 0 0 9357 0 0 18531 0 0 18356 0 0 18377 0 0 18470 0 0 18728 0 0 18206 0 0 18554 0 0 18418 0 0 18332 0 0 18328 0 0 18623 0 0 18519 0 0 18158 0 0 18266 0 0 18571 0 0 18786 0 0 18416 0 0 18371 0 0 18496 0 0 18563 0 0 18628 0 0 18383 0 0 18697 0 0 18513 0 0 18640 0 0 18710 0 0 18498 0 0 18069 0 0 18621 0 0 18327 0 0 18604 0 0 18659 0 0 18354 0 0 18427 0 0 18418 0 0 18578 0 0 18480 0 0 18429 0 0 18510 0 0 9239 0 0 0 0 0 0 0 0 0 0 0 0 0 0 0 0 0 0 0 0 0 0 0 0 0 0 0 0 0 
0 0 0 0 0 0 0 0 0 0 0 0 0 0 0 0 0 0 0 0 0 0 0 0 0 0 0 0 0 0 9137 0 0 18315 0 0 18758 0 0 18544 0 0 18321 0 0 18655 0 0 18576 0 0 18695 0 0 18720 0 0 18636 0 0 18499 0 0 18705 0 0 18337 0 0 18605 0 0 18576 0 0 18632 0 0 18747 0 0 18449 0 0 18539 0 0 18442 0 0 18492 0 0 18588 0 0 18419 0 0 18657 0 0 18453 0 0 18560 0 0 18380 0 0 18612 0 0 18584 0 0 18478 0 0 18454 0 0 18437 0 0 18512 0 0 18540 0 0 18381 0 0 18536 0 0 18615 0 0 18321 0 0 18395 0 0 18659 0 0 9364 0 0 0 0 0 0 0 0 0 0 0 0 0 0 0 0 0 0 0 0 0 0 0 0 0 0 0 0 0 
0 0 0 0 0 0 0 0 0 0 0 0 0 0 0 0 0 0 0 0 0 0 0 0 0 0 0 0 0 0 9129 0 0 18389 0 0 18630 0 0 18576 0 0 18503 0 0 18634 0 0 18330 0 0 18277 0 0 18544 0 0 18698 0 0 18380 0 0 18599 0 0 18542 0 0 18628 0 0 18600 0 0 18514 0 0 18611 0 0 18601 0 0 18565 0 0 18323 0 0 18485 0 0 18270 0 0 18722 0 0 18292 0 0 18529 0 0 18717 0 0 18515 0 0 18451 0 0 18302 0 0 18229 0 0 18276 0 0 18607 0 0 18733 0 0 18427 0 0 18415 0 0 18588 0 0 18457 0 0 18545 0 0 18565 0 0 18602 0 0 9181 0 0 0 0 0 0 0 0 0 0 0 0 0 0 0 0 0 0 0 0 0 0 0 0 0 0 0 0 0 
0 0 0 0 0 0 0 0 0 0 0 0 0 0 0 0 0 0 0 0 0 0 0 0 0 0 0 0 0 0 4641 0 0 9354 0 0 9055 0 0 9391 0 0 9085 0 0 9172 0 0 9262 0 0 9157 0 0 9270 0 0 9243 0 0 9034 0 0 9137 0 0 9245 0 0 9345 0 0 9270 0 0 9144 0 0 9144 0 0 9335 0 0 9098 0 0 9306 0 0 9276 0 0 9238 0 0 9178 0 0 9254 0 0 9315 0 0 9231 0 0 9442 0 0 9363 0 0 9120 0 0 9409 0 0 9246 0 0 9249 0 0 9443 0 0 8985 0 0 9337 0 0 9251 0 0 9316 0 0 9191 0 0 8996 0 0 9236 0 0 4661 0 0 0 0 0 0 0 0 0 0 0 0 0 0 0 0 0 0 0 0 0 0 0 0 0 0 0 0 0 
0 0 0 0 0 0 0 0 0 0 0 0 0 0 0 0 0 0 0 0 0 0 0 0 0 0 0 0 0 0 0 0 0 0 0 0 0 0 0 0 0 0 0 0 0 0 0 0 0 0 0 0 0 0 0 0 0 0 0 0 0 0 0 0 0 0 0 0 0 0 0 0 0 0 0 0 0 0 0 0 0 0 0 0 0 0 0 0 0 0 0 0 0 0 0 0 0 0 0 0 0 0 0 0 0 0 0 0 0 0 0 0 0 0 0 0 0 0 0 0 0 0 0 0 0 0 0 0 0 0 0 0 0 0 0 0 0 0 0 0 0 0 0 0 0 0 0 0 0 0 0 0 0 0 0 0 0 0 0 0 0 0 0 0 0 0 0 0 0 0 0 0 0 0 0 0 0 0 0 0 
0 0 0 0 0 0 0 0 0 0 0 0 0 0 0 0 0 0 0 0 0 0 0 0 0 0 0 0 0 0 0 0 0 0 0 0 0 0 0 0 0 0 0 0 0 0 0 0 0 0 0 0 0 0 0 0 0 0 0 0 0 0 0 0 0 0 0 0 0 0 0 0 0 0 0 0 0 0 0 0 0 0 0 0 0 0 0 0 0 0 0 0 0 0 0 0 0 0 0 0 0 0 0 0 0 0 0 0 0 0 0 0 0 0 0 0 0 0 0 0 0 0 0 0 0 0 0 0 0 0 0 0 0 0 0 0 0 0 0 0 0 0 0 0 0 0 0 0 0 0 0 0 0 0 0 0 0 0 0 0 0 0 0 0 0 0 0 0 0 0 0 0 0 0 0 0 0 0 0 0 
0 0 0 0 0 0 0 0 0 0 0 0 0 0 0 0 0 0 0 0 0 0 0 0 0 0 0 0 0 0 0 0 0 0 0 0 0 0 0 0 0 0 0 0 0 0 0 0 0 0 0 0 0 0 0 0 0 0 0 0 0 0 0 0 0 0 0 0 0 0 0 0 0 0 0 0 0 0 0 0 0 0 0 0 0 0 0 0 0 0 0 0 0 0 0 0 0 0 0 0 0 0 0 0 0 0 0 0 0 0 0 0 0 0 0 0 0 0 0 0 0 0 0 0 0 0 0 0 0 0 0 0 0 0 0 0 0 0 0 0 0 0 0 0 0 0 0 0 0 0 0 0 0 0 0 0 0 0 0 0 0 0 0 0 0 0 0 0 0 0 0 0 0 0 0 0 0 0 0 0 
0 0 0 0 0 0 0 0 0 0 0 0 0 0 0 0 0 0 0 0 0 0 0 0 0 0 0 0 0 0 0 0 0 0 0 0 0 0 0 0 0 0 0 0 0 0 0 0 0 0 0 0 0 0 0 0 0 0 0 0 0 0 0 0 0 0 0 0 0 0 0 0 0 0 0 0 0 0 0 0 0 0 0 0 0 0 0 0 0 0 0 0 0 0 0 0 0 0 0 0 0 0 0 0 0 0 0 0 0 0 0 0 0 0 0 0 0 0 0 0 0 0 0 0 0 0 0 0 0 0 0 0 0 0 0 0 0 0 0 0 0 0 0 0 0 0 0 0 0 0 0 0 0 0 0 0 0 0 0 0 0 0 0 0 0 0 0 0 0 0 0 0 0 0 0 0 0 0 0 0 
0 0 0 0 0 0 0 0 0 0 0 0 0 0 0 0 0 0 0 0 0 0 0 0 0 0 0 0 0 0 0 0 0 0 0 0 0 0 0 0 0 0 0 0 0 0 0 0 0 0 0 0 0 0 0 0 0 0 0 0 0 0 0 0 0 0 0 0 0 0 0 0 0 0 0 0 0 0 0 0 0 0 0 0 0 0 0 0 0 0 0 0 0 0 0 0 0 0 0 0 0 0 0 0 0 0 0 0 0 0 0 0 0 0 0 0 0 0 0 0 0 0 0 0 0 0 0 0 0 0 0 0 0 0 0 0 0 0 0 0 0 0 0 0 0 0 0 0 0 0 0 0 0 0 0 0 0 0 0 0 0 0 0 0 0 0 0 0 0 0 0 0 0 0 0 0 0 0 0 0 
0 0 0 0 0 0 0 0 0 0 0 0 0 0 0 0 0 0 0 0 0 0 0 0 0 0 0 0 0 0 0 0 0 0 0 0 0 0 0 0 0 0 0 0 0 0 0 0 0 0 0 0 0 0 0 0 0 0 0 0 0 0 0 0 0 0 0 0 0 0 0 0 0 0 0 0 0 0 0 0 0 0 0 0 0 0 0 0 0 0 0 0 0 0 0 0 0 0 0 0 0 0 0 0 0 0 0 0 0 0 0 0 0 0 0 0 0 0 0 0 0 0 0 0 0 0 0 0 0 0 0 0 0 0 0 0 0 0 0 0 0 0 0 0 0 0 0 0 0 0 0 0 0 0 0 0 0 0 0 0 0 0 0 0 0 0 0 0 0 0 0 0 0 0 0 0 0 0 0 0 
0 0 0 0 0 0 0 0 0 0 0 0 0 0 0 0 0 0 0 0 0 0 0 0 0 0 0 0 0 0 0 0 0 0 0 0 0 0 0 0 0 0 0 0 0 0 0 0 0 0 0 0 0 0 0 0 0 0 0 0 0 0 0 0 0 0 0 0 0 0 0 0 0 0 0 0 0 0 0 0 0 0 0 0 0 0 0 0 0 0 0 0 0 0 0 0 0 0 0 0 0 0 0 0 0 0 0 0 0 0 0 0 0 0 0 0 0 0 0 0 0 0 0 0 0 0 0 0 0 0 0 0 0 0 0 0 0 0 0 0 0 0 0 0 0 0 0 0 0 0 0 0 0 0 0 0 0 0 0 0 0 0 0 0 0 0 0 0 0 0 0 0 0 0 0 0 0 0 0 0 
0 0 0 0 0 0 0 0 0 0 0 0 0 0 0 0 0 0 0 0 0 0 0 0 0 0 0 0 0 0 0 0 0 0 0 0 0 0 0 0 0 0 0 0 0 0 0 0 0 0 0 0 0 0 0 0 0 0 0 0 0 0 0 0 0 0 0 0 0 0 0 0 0 0 0 0 0 0 0 0 0 0 0 0 0 0 0 0 0 0 0 0 0 0 0 0 0 0 0 0 0 0 0 0 0 0 0 0 0 0 0 0 0 0 0 0 0 0 0 0 0 0 0 0 0 0 0 0 0 0 0 0 0 0 0 0 0 0 0 0 0 0 0 0 0 0 0 0 0 0 0 0 0 0 0 0 0 0 0 0 0 0 0 0 0 0 0 0 0 0 0 0 0 0 0 0 0 0 0 0 
0 0 0 0 0 0 0 0 0 0 0 0 0 0 0 0 0 0 0 0 0 0 0 0 0 0 0 0 0 0 0 0 0 0 0 0 0 0 0 0 0 0 0 0 0 0 0 0 0 0 0 0 0 0 0 0 0 0 0 0 0 0 0 0 0 0 0 0 0 0 0 0 0 0 0 0 0 0 0 0 0 0 0 0 0 0 0 0 0 0 0 0 0 0 0 0 0 0 0 0 0 0 0 0 0 0 0 0 0 0 0 0 0 0 0 0 0 0 0 0 0 0 0 0 0 0 0 0 0 0 0 0 0 0 0 0 0 0 0 0 0 0 0 0 0 0 0 0 0 0 0 0 0 0 0 0 0 0 0 0 0 0 0 0 0 0 0 0 0 0 0 0 0 0 0 0 0 0 0 0 
