P3
# This is a dose file slice at depth 29 of 100
60 60
# now we give the maximum value of the RGB coordinates.
32965
1 0 0 0 0 0 0 0 0 1 0 0 0 0 0 0 0 0 5 0 0 1 0 0 4 0 0 2 0 0 4 0 0 1 0 0 5 0 0 4 0 0 3 0 0 2 0 0 4 0 0 3 0 0 3 0 0 0 0 0 6 0 0 5 0 0 0 0 0 3 0 0 6 0 0 6 0 0 5 0 0 5 0 0 4 0 0 3 0 0 3 0 0 5 0 0 6 0 0 5 0 0 7 0 0 7 0 0 6 0 0 4 0 0 2 0 0 3 0 0 3 0 0 1 0 0 3 0 0 2 0 0 6 0 0 2 0 0 1 0 0 3 0 0 2 0 0 2 0 0 4 0 0 3 0 0 3 0 0 2 0 0 4 0 0 2 0 0 2 0 0 0 0 0 2 0 0 3 0 0 
2 0 0 4 0 0 4 0 0 5 0 0 3 0 0 1 0 0 5 0 0 6 0 0 9 0 0 7 0 0 6 0 0 7 0 0 8 0 0 11 0 0 10 0 0 5 0 0 8 0 0 7 0 0 9 0 0 9 0 0 10 0 0 8 0 0 4 0 0 8 0 0 11 0 0 13 0 0 12 0 0 9 0 0 8 0 0 7 0 0 14 0 0 11 0 0 17 0 0 12 0 0 14 0 0 8 0 0 10 0 0 6 0 0 9 0 0 3 0 0 8 0 0 4 0 0 8 0 0 8 0 0 7 0 0 12 0 0 7 0 0 5 0 0 6 0 0 11 0 0 11 0 0 10 0 0 8 0 0 6 0 0 6 0 0 9 0 0 3 0 0 4 0 0 9 0 0 1 0 0 
5 0 0 8 0 0 6 0 0 7 0 0 9 0 0 4 0 0 3 0 0 4 0 0 6 0 0 7 0 0 8 0 0 6 0 0 10 0 0 11 0 0 9 0 0 6 0 0 8 0 0 8 0 0 9 0 0 7 0 0 8 0 0 9 0 0 6 0 0 10 0 0 9 0 0 13 0 0 15 0 0 18 0 0 15 0 0 8 0 0 12 0 0 13 0 0 12 0 0 11 0 0 10 0 0 10 0 0 11 0 0 10 0 0 10 0 0 5 0 0 8 0 0 6 0 0 14 0 0 13 0 0 8 0 0 15 0 0 10 0 0 8 0 0 12 0 0 8 0 0 11 0 0 11 0 0 5 0 0 5 0 0 5 0 0 7 0 0 5 0 0 5 0 0 5 0 0 5 0 0 
2 0 0 10 0 0 5 0 0 10 0 0 9 0 0 3 0 0 6 0 0 8 0 0 3 0 0 3 0 0 9 0 0 7 0 0 13 0 0 10 0 0 8 0 0 10 0 0 8 0 0 7 0 0 12 0 0 5 0 0 3 0 0 12 0 0 6 0 0 11 0 0 9 0 0 16 0 0 15 0 0 22 0 0 9 0 0 15 0 0 12 0 0 13 0 0 13 0 0 14 0 0 12 0 0 8 0 0 9 0 0 13 0 0 8 0 0 8 0 0 12 0 0 16 0 0 12 0 0 12 0 0 12 0 0 12 0 0 12 0 0 12 0 0 7 0 0 11 0 0 12 0 0 7 0 0 5 0 0 6 0 0 6 0 0 4 0 0 8 0 0 7 0 0 5 0 0 8 0 0 
3 0 0 8 0 0 7 0 0 6 0 0 7 0 0 12 0 0 5 0 0 4 0 0 8 0 0 6 0 0 9 0 0 15 0 0 10 0 0 16 0 0 13 0 0 12 0 0 12 0 0 7 0 0 10 0 0 12 0 0 7 0 0 12 0 0 10 0 0 10 0 0 20 0 0 14 0 0 12 0 0 18 0 0 15 0 0 15 0 0 11 0 0 9 0 0 14 0 0 13 0 0 9 0 0 13 0 0 12 0 0 13 0 0 11 0 0 11 0 0 17 0 0 23 0 0 23 0 0 19 0 0 17 0 0 12 0 0 12 0 0 15 0 0 13 0 0 12 0 0 13 0 0 8 0 0 6 0 0 11 0 0 10 0 0 6 0 0 7 0 0 7 0 0 4 0 0 4 0 0 
1 0 0 7 0 0 10 0 0 7 0 0 5 0 0 10 0 0 12 0 0 8 0 0 5 0 0 6 0 0 7 0 0 12 0 0 9 0 0 13 0 0 19 0 0 13 0 0 23 0 0 12 0 0 12 0 0 16 0 0 8 0 0 12 0 0 15 0 0 11 0 0 22 0 0 15 0 0 11 0 0 11 0 0 27 0 0 14 0 0 15 0 0 12 0 0 10 0 0 20 0 0 18 0 0 15 0 0 19 0 0 16 0 0 17 0 0 16 0 0 9 0 0 15 0 0 17 0 0 21 0 0 13 0 0 14 0 0 12 0 0 14 0 0 12 0 0 17 0 0 10 0 0 7 0 0 12 0 0 9 0 0 6 0 0 3 0 0 2 0 0 6 0 0 6 0 0 6 0 0 
4 0 0 10 0 0 10 0 0 12 0 0 5 0 0 6 0 0 9 0 0 13 0 0 13 0 0 4 0 0 12 0 0 11 0 0 11 0 0 16 0 0 12 0 0 17 0 0 20 0 0 15 0 0 12 0 0 24 0 0 18 0 0 19 0 0 22 0 0 19 0 0 35 0 0 24 0 0 19 0 0 19 0 0 20 0 0 21 0 0 13 0 0 9 0 0 5 0 0 26 0 0 21 0 0 15 0 0 17 0 0 37 0 0 18 0 0 11 0 0 12 0 0 11 0 0 23 0 0 20 0 0 15 0 0 13 0 0 18 0 0 14 0 0 22 0 0 16 0 0 10 0 0 12 0 0 8 0 0 8 0 0 4 0 0 2 0 0 7 0 0 9 0 0 5 0 0 6 0 0 
3 0 0 7 0 0 8 0 0 9 0 0 11 0 0 7 0 0 7 0 0 9 0 0 15 0 0 12 0 0 13 0 0 23 0 0 12 0 0 18 0 0 17 0 0 16 0 0 23 0 0 23 0 0 20 0 0 26 0 0 33 0 0 21 0 0 22 0 0 21 0 0 43 0 0 24 0 0 32 0 0 22 0 0 24 0 0 21 0 0 26 0 0 18 0 0 19 0 0 17 0 0 27 0 0 25 0 0 17 0 0 29 0 0 27 0 0 28 0 0 11 0 0 20 0 0 22 0 0 16 0 0 23 0 0 19 0 0 15 0 0 24 0 0 23 0 0 11 0 0 14 0 0 12 0 0 11 0 0 7 0 0 8 0 0 10 0 0 12 0 0 12 0 0 12 0 0 6 0 0 
3 0 0 7 0 0 5 0 0 3 0 0 4 0 0 14 0 0 8 0 0 9 0 0 11 0 0 11 0 0 26 0 0 24 0 0 25 0 0 23 0 0 22 0 0 35 0 0 24 0 0 32 0 0 24 0 0 36 0 0 31 0 0 31 0 0 36 0 0 42 0 0 34 0 0 34 0 0 33 0 0 35 0 0 36 0 0 32 0 0 27 0 0 29 0 0 24 0 0 26 0 0 31 0 0 35 0 0 30 0 0 35 0 0 29 0 0 31 0 0 29 0 0 25 0 0 29 0 0 23 0 0 20 0 0 26 0 0 29 0 0 27 0 0 21 0 0 21 0 0 16 0 0 10 0 0 8 0 0 13 0 0 9 0 0 12 0 0 7 0 0 10 0 0 6 0 0 3 0 0 
3 0 0 4 0 0 10 0 0 10 0 0 9 0 0 8 0 0 14 0 0 12 0 0 18 0 0 13 0 0 74 0 0 113 0 0 103 0 0 106 0 0 122 0 0 126 0 0 140 0 0 108 0 0 105 0 0 116 0 0 115 0 0 125 0 0 144 0 0 127 0 0 132 0 0 103 0 0 130 0 0 133 0 0 135 0 0 132 0 0 121 0 0 116 0 0 125 0 0 141 0 0 131 0 0 135 0 0 138 0 0 124 0 0 142 0 0 117 0 0 130 0 0 129 0 0 119 0 0 115 0 0 115 0 0 109 0 0 122 0 0 122 0 0 111 0 0 111 0 0 57 0 0 18 0 0 19 0 0 15 0 0 12 0 0 8 0 0 6 0 0 5 0 0 8 0 0 7 0 0 
6 0 0 11 0 0 6 0 0 8 0 0 15 0 0 15 0 0 17 0 0 16 0 0 17 0 0 66 0 0 4257 0 0 8499 0 0 8498 0 0 8592 0 0 8505 0 0 8556 0 0 8490 0 0 8565 0 0 8471 0 0 8632 0 0 8436 0 0 8782 0 0 8576 0 0 8661 0 0 8593 0 0 8589 0 0 8641 0 0 8484 0 0 8535 0 0 8563 0 0 8426 0 0 8607 0 0 8680 0 0 8614 0 0 8694 0 0 8606 0 0 8528 0 0 8546 0 0 8618 0 0 8535 0 0 8475 0 0 8583 0 0 8466 0 0 8555 0 0 8558 0 0 8520 0 0 8453 0 0 8458 0 0 8473 0 0 8538 0 0 4203 0 0 64 0 0 15 0 0 13 0 0 12 0 0 9 0 0 6 0 0 8 0 0 11 0 0 10 0 0 
3 0 0 5 0 0 3 0 0 6 0 0 11 0 0 15 0 0 15 0 0 17 0 0 25 0 0 100 0 0 8452 0 0 16780 0 0 16894 0 0 16967 0 0 17312 0 0 17079 0 0 17114 0 0 17125 0 0 17011 0 0 16840 0 0 16884 0 0 16875 0 0 16895 0 0 16910 0 0 16804 0 0 17011 0 0 17077 0 0 17057 0 0 16888 0 0 17030 0 0 17057 0 0 16963 0 0 16755 0 0 16696 0 0 16960 0 0 16921 0 0 17312 0 0 17087 0 0 17005 0 0 16809 0 0 16813 0 0 16984 0 0 17094 0 0 16931 0 0 16981 0 0 17163 0 0 16875 0 0 16797 0 0 16960 0 0 16905 0 0 8511 0 0 111 0 0 19 0 0 19 0 0 13 0 0 4 0 0 7 0 0 10 0 0 8 0 0 7 0 0 
3 0 0 5 0 0 6 0 0 6 0 0 7 0 0 25 0 0 18 0 0 18 0 0 22 0 0 130 0 0 8556 0 0 17000 0 0 17013 0 0 17163 0 0 17062 0 0 17177 0 0 17111 0 0 17032 0 0 16978 0 0 17065 0 0 17126 0 0 17112 0 0 17396 0 0 17172 0 0 16876 0 0 17109 0 0 17253 0 0 17312 0 0 17026 0 0 17288 0 0 17083 0 0 17025 0 0 17242 0 0 17069 0 0 17038 0 0 16933 0 0 16996 0 0 17039 0 0 17184 0 0 17216 0 0 17015 0 0 16799 0 0 17170 0 0 17149 0 0 16974 0 0 16941 0 0 16964 0 0 17130 0 0 17207 0 0 17084 0 0 8572 0 0 96 0 0 29 0 0 23 0 0 21 0 0 15 0 0 9 0 0 6 0 0 9 0 0 9 0 0 
6 0 0 11 0 0 11 0 0 6 0 0 7 0 0 11 0 0 14 0 0 19 0 0 23 0 0 128 0 0 8512 0 0 16881 0 0 17149 0 0 16944 0 0 17083 0 0 17225 0 0 17138 0 0 17060 0 0 17019 0 0 17089 0 0 16975 0 0 17115 0 0 17125 0 0 17145 0 0 17138 0 0 17153 0 0 16938 0 0 16952 0 0 17200 0 0 17066 0 0 16983 0 0 17065 0 0 16923 0 0 17272 0 0 16908 0 0 16943 0 0 17046 0 0 17112 0 0 17024 0 0 17414 0 0 17022 0 0 17012 0 0 17163 0 0 17160 0 0 17131 0 0 17266 0 0 17067 0 0 17129 0 0 17007 0 0 16805 0 0 8547 0 0 116 0 0 24 0 0 24 0 0 13 0 0 14 0 0 6 0 0 8 0 0 7 0 0 9 0 0 
4 0 0 10 0 0 12 0 0 10 0 0 5 0 0 9 0 0 15 0 0 14 0 0 28 0 0 126 0 0 8558 0 0 16947 0 0 17116 0 0 17172 0 0 17317 0 0 17065 0 0 17225 0 0 17008 0 0 17049 0 0 17280 0 0 17324 0 0 16872 0 0 17040 0 0 17107 0 0 17113 0 0 17080 0 0 17203 0 0 17203 0 0 17264 0 0 17215 0 0 17021 0 0 17134 0 0 17225 0 0 16932 0 0 17061 0 0 17255 0 0 17133 0 0 17254 0 0 17197 0 0 17056 0 0 16928 0 0 17062 0 0 17240 0 0 16971 0 0 17083 0 0 17122 0 0 17099 0 0 17054 0 0 17106 0 0 17030 0 0 8454 0 0 117 0 0 24 0 0 16 0 0 21 0 0 17 0 0 14 0 0 13 0 0 7 0 0 13 0 0 
3 0 0 5 0 0 10 0 0 12 0 0 10 0 0 14 0 0 22 0 0 20 0 0 31 0 0 114 0 0 8484 0 0 17088 0 0 17259 0 0 16840 0 0 17067 0 0 17105 0 0 17070 0 0 17088 0 0 17097 0 0 17173 0 0 17002 0 0 16936 0 0 17052 0 0 17077 0 0 17133 0 0 17192 0 0 17044 0 0 17033 0 0 17216 0 0 17109 0 0 17094 0 0 17241 0 0 16886 0 0 17260 0 0 17080 0 0 16904 0 0 17100 0 0 17188 0 0 16906 0 0 16928 0 0 17238 0 0 17312 0 0 17189 0 0 17003 0 0 17048 0 0 17051 0 0 17074 0 0 17008 0 0 16915 0 0 16842 0 0 8637 0 0 111 0 0 25 0 0 27 0 0 26 0 0 23 0 0 19 0 0 11 0 0 16 0 0 12 0 0 
4 0 0 5 0 0 10 0 0 11 0 0 14 0 0 17 0 0 24 0 0 26 0 0 28 0 0 100 0 0 8467 0 0 16936 0 0 16961 0 0 17093 0 0 17232 0 0 17282 0 0 17086 0 0 17020 0 0 17004 0 0 17084 0 0 16868 0 0 17060 0 0 17363 0 0 17138 0 0 17224 0 0 17106 0 0 17063 0 0 17003 0 0 17175 0 0 16906 0 0 17057 0 0 16981 0 0 17164 0 0 17061 0 0 17054 0 0 16889 0 0 17130 0 0 17206 0 0 16994 0 0 17122 0 0 17142 0 0 17117 0 0 16957 0 0 17234 0 0 17160 0 0 17152 0 0 17067 0 0 17093 0 0 17108 0 0 16872 0 0 8461 0 0 140 0 0 37 0 0 27 0 0 16 0 0 19 0 0 21 0 0 16 0 0 12 0 0 6 0 0 
4 0 0 10 0 0 10 0 0 8 0 0 17 0 0 12 0 0 14 0 0 22 0 0 17 0 0 125 0 0 8643 0 0 17076 0 0 16986 0 0 17007 0 0 17043 0 0 17057 0 0 17140 0 0 16978 0 0 17156 0 0 17161 0 0 17208 0 0 17136 0 0 17127 0 0 17008 0 0 17139 0 0 17045 0 0 17190 0 0 17103 0 0 17192 0 0 16982 0 0 16948 0 0 17063 0 0 17187 0 0 17265 0 0 17245 0 0 17061 0 0 17048 0 0 17157 0 0 16862 0 0 17077 0 0 17093 0 0 17103 0 0 17089 0 0 17265 0 0 17021 0 0 17008 0 0 17116 0 0 17109 0 0 17124 0 0 17017 0 0 8498 0 0 123 0 0 34 0 0 24 0 0 22 0 0 17 0 0 15 0 0 14 0 0 11 0 0 9 0 0 
2 0 0 6 0 0 13 0 0 14 0 0 12 0 0 22 0 0 11 0 0 17 0 0 30 0 0 112 0 0 8486 0 0 16797 0 0 17060 0 0 17033 0 0 17143 0 0 17244 0 0 17162 0 0 16922 0 0 17273 0 0 16998 0 0 17147 0 0 17310 0 0 17228 0 0 17244 0 0 17135 0 0 17056 0 0 16998 0 0 17145 0 0 17098 0 0 17170 0 0 16934 0 0 17225 0 0 17154 0 0 17060 0 0 17077 0 0 17051 0 0 17098 0 0 16922 0 0 17350 0 0 17310 0 0 17015 0 0 16883 0 0 17041 0 0 17225 0 0 17237 0 0 17144 0 0 16909 0 0 17056 0 0 17053 0 0 16911 0 0 8464 0 0 119 0 0 30 0 0 23 0 0 16 0 0 15 0 0 22 0 0 18 0 0 12 0 0 8 0 0 
6 0 0 8 0 0 10 0 0 8 0 0 11 0 0 18 0 0 22 0 0 26 0 0 31 0 0 115 0 0 8602 0 0 16973 0 0 16996 0 0 16958 0 0 17125 0 0 17237 0 0 17053 0 0 17030 0 0 17116 0 0 17017 0 0 17117 0 0 17188 0 0 17085 0 0 17168 0 0 16906 0 0 17057 0 0 16998 0 0 16838 0 0 17155 0 0 17051 0 0 17001 0 0 16995 0 0 17139 0 0 17084 0 0 17040 0 0 17156 0 0 17193 0 0 16944 0 0 17098 0 0 17161 0 0 17290 0 0 16831 0 0 17035 0 0 17078 0 0 17021 0 0 17055 0 0 17067 0 0 17198 0 0 17223 0 0 17122 0 0 8467 0 0 138 0 0 31 0 0 19 0 0 21 0 0 23 0 0 21 0 0 13 0 0 12 0 0 7 0 0 
6 0 0 12 0 0 14 0 0 12 0 0 15 0 0 13 0 0 13 0 0 21 0 0 29 0 0 122 0 0 8535 0 0 16933 0 0 16822 0 0 17152 0 0 17257 0 0 17163 0 0 17228 0 0 17059 0 0 17026 0 0 16961 0 0 17127 0 0 17225 0 0 17115 0 0 17052 0 0 17097 0 0 16873 0 0 17168 0 0 17049 0 0 17054 0 0 17250 0 0 17285 0 0 16911 0 0 17380 0 0 16989 0 0 17241 0 0 17126 0 0 17252 0 0 17070 0 0 17056 0 0 17059 0 0 17181 0 0 17280 0 0 17377 0 0 17110 0 0 17188 0 0 17388 0 0 17064 0 0 17243 0 0 16907 0 0 16977 0 0 8554 0 0 126 0 0 35 0 0 25 0 0 19 0 0 16 0 0 11 0 0 7 0 0 8 0 0 8 0 0 
3 0 0 9 0 0 18 0 0 27 0 0 16 0 0 13 0 0 22 0 0 21 0 0 22 0 0 118 0 0 8510 0 0 16875 0 0 17110 0 0 17336 0 0 16987 0 0 16938 0 0 17118 0 0 17186 0 0 16948 0 0 16996 0 0 17189 0 0 17340 0 0 16959 0 0 17163 0 0 17120 0 0 16902 0 0 17211 0 0 17133 0 0 17183 0 0 17022 0 0 16990 0 0 17117 0 0 17253 0 0 17127 0 0 17172 0 0 17131 0 0 17133 0 0 17041 0 0 17095 0 0 17234 0 0 17243 0 0 17184 0 0 17087 0 0 16991 0 0 17232 0 0 17170 0 0 17134 0 0 16959 0 0 16952 0 0 16903 0 0 8615 0 0 123 0 0 34 0 0 28 0 0 18 0 0 16 0 0 13 0 0 10 0 0 8 0 0 6 0 0 
4 0 0 10 0 0 12 0 0 13 0 0 16 0 0 24 0 0 22 0 0 24 0 0 32 0 0 129 0 0 8610 0 0 16983 0 0 17259 0 0 16944 0 0 17004 0 0 17158 0 0 17249 0 0 17244 0 0 17228 0 0 17012 0 0 17062 0 0 17128 0 0 17252 0 0 17268 0 0 17327 0 0 17145 0 0 17110 0 0 16980 0 0 17350 0 0 17010 0 0 17074 0 0 17082 0 0 17007 0 0 17172 0 0 17001 0 0 16961 0 0 16952 0 0 17164 0 0 17194 0 0 17311 0 0 17070 0 0 17146 0 0 17119 0 0 17023 0 0 17234 0 0 17005 0 0 17070 0 0 16825 0 0 17072 0 0 17048 0 0 8565 0 0 122 0 0 31 0 0 34 0 0 24 0 0 22 0 0 11 0 0 13 0 0 10 0 0 7 0 0 
9 0 0 6 0 0 9 0 0 8 0 0 19 0 0 15 0 0 18 0 0 26 0 0 34 0 0 140 0 0 8770 0 0 17106 0 0 17031 0 0 17322 0 0 17112 0 0 17039 0 0 17148 0 0 17208 0 0 17021 0 0 17200 0 0 17043 0 0 17067 0 0 17012 0 0 17184 0 0 16946 0 0 17339 0 0 16951 0 0 17333 0 0 17102 0 0 17130 0 0 17085 0 0 17160 0 0 17131 0 0 17232 0 0 17171 0 0 17284 0 0 16927 0 0 17106 0 0 17043 0 0 17254 0 0 17302 0 0 16972 0 0 17006 0 0 17188 0 0 17202 0 0 17247 0 0 16781 0 0 16999 0 0 16901 0 0 17266 0 0 8656 0 0 132 0 0 40 0 0 32 0 0 25 0 0 23 0 0 12 0 0 15 0 0 13 0 0 13 0 0 
4 0 0 12 0 0 16 0 0 12 0 0 18 0 0 18 0 0 15 0 0 13 0 0 23 0 0 139 0 0 8477 0 0 16963 0 0 17113 0 0 17145 0 0 17033 0 0 17257 0 0 17159 0 0 17117 0 0 16876 0 0 17075 0 0 17253 0 0 17135 0 0 17165 0 0 17183 0 0 17127 0 0 17097 0 0 17041 0 0 17349 0 0 17244 0 0 17183 0 0 16994 0 0 17033 0 0 17006 0 0 17161 0 0 17137 0 0 17025 0 0 17221 0 0 17024 0 0 17073 0 0 17176 0 0 17270 0 0 17139 0 0 16925 0 0 16987 0 0 17153 0 0 17115 0 0 16996 0 0 17044 0 0 17190 0 0 16899 0 0 8628 0 0 136 0 0 52 0 0 34 0 0 29 0 0 14 0 0 12 0 0 12 0 0 5 0 0 7 0 0 
5 0 0 7 0 0 8 0 0 13 0 0 18 0 0 23 0 0 22 0 0 17 0 0 32 0 0 137 0 0 8424 0 0 17048 0 0 17064 0 0 17115 0 0 16883 0 0 17006 0 0 17140 0 0 17147 0 0 17046 0 0 16973 0 0 17045 0 0 17029 0 0 17219 0 0 17139 0 0 17198 0 0 16964 0 0 17118 0 0 17093 0 0 17046 0 0 17063 0 0 17153 0 0 17215 0 0 17125 0 0 17002 0 0 17028 0 0 17063 0 0 16961 0 0 16970 0 0 17071 0 0 17108 0 0 17228 0 0 16971 0 0 17051 0 0 16894 0 0 16953 0 0 17005 0 0 16944 0 0 17090 0 0 17258 0 0 17107 0 0 8480 0 0 135 0 0 49 0 0 33 0 0 24 0 0 17 0 0 15 0 0 8 0 0 7 0 0 8 0 0 
5 0 0 10 0 0 11 0 0 13 0 0 14 0 0 23 0 0 32 0 0 32 0 0 28 0 0 112 0 0 8475 0 0 17025 0 0 17054 0 0 16994 0 0 17130 0 0 17204 0 0 17158 0 0 17078 0 0 17074 0 0 17053 0 0 17168 0 0 17172 0 0 17381 0 0 17117 0 0 17201 0 0 17217 0 0 17073 0 0 17189 0 0 16891 0 0 17041 0 0 17094 0 0 17430 0 0 17237 0 0 17142 0 0 17008 0 0 17063 0 0 17255 0 0 16984 0 0 17032 0 0 17068 0 0 16983 0 0 17015 0 0 16787 0 0 16989 0 0 16810 0 0 17203 0 0 17145 0 0 16865 0 0 16892 0 0 16922 0 0 8573 0 0 152 0 0 28 0 0 26 0 0 26 0 0 22 0 0 11 0 0 10 0 0 19 0 0 10 0 0 
3 0 0 9 0 0 20 0 0 15 0 0 13 0 0 22 0 0 25 0 0 35 0 0 37 0 0 135 0 0 8465 0 0 16751 0 0 17242 0 0 17004 0 0 17146 0 0 17145 0 0 17157 0 0 16990 0 0 16954 0 0 17186 0 0 17194 0 0 17007 0 0 16927 0 0 17032 0 0 17054 0 0 17052 0 0 16999 0 0 17304 0 0 17199 0 0 17103 0 0 17351 0 0 17018 0 0 16960 0 0 17195 0 0 17196 0 0 17220 0 0 17040 0 0 16905 0 0 17144 0 0 17208 0 0 17305 0 0 17066 0 0 17074 0 0 17133 0 0 17129 0 0 17181 0 0 17206 0 0 17037 0 0 16828 0 0 16899 0 0 8506 0 0 108 0 0 34 0 0 34 0 0 22 0 0 18 0 0 15 0 0 12 0 0 12 0 0 6 0 0 
6 0 0 6 0 0 12 0 0 15 0 0 20 0 0 18 0 0 24 0 0 20 0 0 35 0 0 141 0 0 8412 0 0 17068 0 0 17103 0 0 17064 0 0 17114 0 0 17138 0 0 16992 0 0 17050 0 0 17169 0 0 16970 0 0 17228 0 0 17194 0 0 17209 0 0 17243 0 0 17211 0 0 17263 0 0 17207 0 0 17089 0 0 17063 0 0 17113 0 0 17028 0 0 17038 0 0 17122 0 0 17136 0 0 16894 0 0 16966 0 0 17115 0 0 17122 0 0 17111 0 0 17199 0 0 17118 0 0 17106 0 0 17016 0 0 17044 0 0 17001 0 0 16972 0 0 17256 0 0 16988 0 0 17192 0 0 16877 0 0 8597 0 0 135 0 0 35 0 0 23 0 0 14 0 0 12 0 0 10 0 0 10 0 0 12 0 0 10 0 0 
2 0 0 6 0 0 7 0 0 10 0 0 14 0 0 19 0 0 24 0 0 33 0 0 36 0 0 122 0 0 8531 0 0 17020 0 0 17168 0 0 17308 0 0 17214 0 0 17140 0 0 17178 0 0 16842 0 0 17222 0 0 17128 0 0 17253 0 0 17020 0 0 17320 0 0 17149 0 0 16924 0 0 17075 0 0 17076 0 0 17158 0 0 16969 0 0 16851 0 0 17163 0 0 17101 0 0 17154 0 0 17181 0 0 16915 0 0 17236 0 0 17131 0 0 17171 0 0 17021 0 0 16977 0 0 17017 0 0 17143 0 0 17055 0 0 17004 0 0 17021 0 0 17141 0 0 16912 0 0 17000 0 0 17262 0 0 17087 0 0 8565 0 0 131 0 0 28 0 0 22 0 0 23 0 0 19 0 0 16 0 0 10 0 0 10 0 0 10 0 0 
5 0 0 12 0 0 12 0 0 16 0 0 15 0 0 18 0 0 32 0 0 37 0 0 28 0 0 117 0 0 8564 0 0 16942 0 0 17065 0 0 17007 0 0 17250 0 0 17060 0 0 17101 0 0 17363 0 0 17144 0 0 17109 0 0 16980 0 0 17113 0 0 17074 0 0 17250 0 0 17035 0 0 16959 0 0 17263 0 0 17247 0 0 17278 0 0 17028 0 0 17184 0 0 17431 0 0 17137 0 0 17239 0 0 17073 0 0 16994 0 0 17005 0 0 16913 0 0 17161 0 0 17200 0 0 17131 0 0 17254 0 0 17038 0 0 17310 0 0 17018 0 0 17125 0 0 16905 0 0 17195 0 0 16862 0 0 16976 0 0 8595 0 0 105 0 0 40 0 0 21 0 0 14 0 0 19 0 0 15 0 0 17 0 0 11 0 0 12 0 0 
4 0 0 9 0 0 14 0 0 10 0 0 11 0 0 18 0 0 17 0 0 22 0 0 34 0 0 155 0 0 8665 0 0 17097 0 0 16906 0 0 16865 0 0 17429 0 0 17085 0 0 17089 0 0 17083 0 0 17258 0 0 17075 0 0 17292 0 0 17129 0 0 17277 0 0 17136 0 0 17183 0 0 17359 0 0 17157 0 0 17274 0 0 17284 0 0 17189 0 0 16997 0 0 17018 0 0 17250 0 0 17157 0 0 17017 0 0 17044 0 0 17279 0 0 17073 0 0 17312 0 0 17145 0 0 17181 0 0 17199 0 0 17182 0 0 16876 0 0 17163 0 0 17122 0 0 17061 0 0 17124 0 0 17142 0 0 17031 0 0 8563 0 0 129 0 0 35 0 0 20 0 0 22 0 0 12 0 0 7 0 0 7 0 0 11 0 0 12 0 0 
5 0 0 7 0 0 12 0 0 11 0 0 13 0 0 21 0 0 22 0 0 20 0 0 36 0 0 143 0 0 8500 0 0 16939 0 0 17120 0 0 17069 0 0 17119 0 0 16977 0 0 17035 0 0 17151 0 0 17131 0 0 17150 0 0 17028 0 0 17186 0 0 17099 0 0 17131 0 0 17289 0 0 17077 0 0 17178 0 0 17144 0 0 17104 0 0 17079 0 0 16869 0 0 17214 0 0 17190 0 0 17332 0 0 16957 0 0 17244 0 0 17033 0 0 17186 0 0 17035 0 0 17110 0 0 16951 0 0 17137 0 0 16809 0 0 17196 0 0 16886 0 0 17074 0 0 17054 0 0 17307 0 0 16997 0 0 17040 0 0 8494 0 0 117 0 0 35 0 0 25 0 0 24 0 0 23 0 0 13 0 0 17 0 0 14 0 0 8 0 0 
3 0 0 15 0 0 12 0 0 11 0 0 12 0 0 16 0 0 20 0 0 33 0 0 30 0 0 137 0 0 8722 0 0 17195 0 0 17030 0 0 17121 0 0 17113 0 0 16979 0 0 16923 0 0 17291 0 0 17188 0 0 17123 0 0 17021 0 0 17367 0 0 16995 0 0 17158 0 0 17312 0 0 17228 0 0 17065 0 0 17185 0 0 17358 0 0 17052 0 0 17073 0 0 17005 0 0 17114 0 0 17148 0 0 16949 0 0 17227 0 0 17124 0 0 17130 0 0 16961 0 0 17109 0 0 17158 0 0 17195 0 0 17294 0 0 17093 0 0 17236 0 0 17182 0 0 17119 0 0 17140 0 0 17032 0 0 17141 0 0 8567 0 0 127 0 0 28 0 0 30 0 0 23 0 0 24 0 0 25 0 0 17 0 0 14 0 0 7 0 0 
5 0 0 9 0 0 12 0 0 17 0 0 13 0 0 18 0 0 22 0 0 17 0 0 27 0 0 123 0 0 8672 0 0 17019 0 0 17014 0 0 17052 0 0 17119 0 0 17195 0 0 17095 0 0 17003 0 0 16992 0 0 17046 0 0 17095 0 0 17065 0 0 16968 0 0 17390 0 0 17187 0 0 17233 0 0 17160 0 0 17082 0 0 17096 0 0 16964 0 0 17098 0 0 17077 0 0 17046 0 0 17261 0 0 17276 0 0 16983 0 0 17094 0 0 17104 0 0 17145 0 0 17108 0 0 17345 0 0 17258 0 0 17263 0 0 17124 0 0 17125 0 0 17016 0 0 16957 0 0 17192 0 0 16846 0 0 16967 0 0 8612 0 0 143 0 0 49 0 0 34 0 0 24 0 0 24 0 0 19 0 0 13 0 0 14 0 0 14 0 0 
4 0 0 9 0 0 10 0 0 7 0 0 12 0 0 20 0 0 14 0 0 29 0 0 34 0 0 109 0 0 8539 0 0 17013 0 0 17286 0 0 17255 0 0 17140 0 0 17128 0 0 17263 0 0 17192 0 0 16995 0 0 17007 0 0 17114 0 0 16998 0 0 17032 0 0 17234 0 0 17079 0 0 17036 0 0 17156 0 0 17025 0 0 17273 0 0 17193 0 0 17169 0 0 17077 0 0 17179 0 0 17242 0 0 17045 0 0 17027 0 0 17120 0 0 17041 0 0 17123 0 0 16963 0 0 17005 0 0 16996 0 0 17027 0 0 16963 0 0 17111 0 0 17238 0 0 17273 0 0 17120 0 0 16901 0 0 16979 0 0 8576 0 0 124 0 0 31 0 0 32 0 0 31 0 0 15 0 0 12 0 0 6 0 0 12 0 0 10 0 0 
4 0 0 9 0 0 12 0 0 11 0 0 12 0 0 19 0 0 17 0 0 24 0 0 38 0 0 123 0 0 8577 0 0 17075 0 0 17156 0 0 17154 0 0 16890 0 0 17019 0 0 17049 0 0 17164 0 0 17123 0 0 17044 0 0 17082 0 0 17185 0 0 16972 0 0 17050 0 0 17293 0 0 17290 0 0 17268 0 0 17069 0 0 17223 0 0 17011 0 0 16968 0 0 17210 0 0 17079 0 0 17101 0 0 17020 0 0 17039 0 0 17406 0 0 17102 0 0 17130 0 0 17153 0 0 16976 0 0 17146 0 0 17048 0 0 16952 0 0 17076 0 0 17055 0 0 17000 0 0 16974 0 0 17121 0 0 16918 0 0 8475 0 0 131 0 0 39 0 0 27 0 0 21 0 0 19 0 0 14 0 0 12 0 0 14 0 0 12 0 0 
4 0 0 15 0 0 18 0 0 18 0 0 21 0 0 12 0 0 13 0 0 19 0 0 28 0 0 137 0 0 8621 0 0 16902 0 0 17014 0 0 17024 0 0 17313 0 0 17167 0 0 17076 0 0 16972 0 0 17337 0 0 16977 0 0 17181 0 0 17051 0 0 17152 0 0 17027 0 0 17300 0 0 17151 0 0 17158 0 0 17148 0 0 17156 0 0 17037 0 0 17162 0 0 17176 0 0 17090 0 0 17110 0 0 16988 0 0 17148 0 0 17146 0 0 17200 0 0 17074 0 0 16954 0 0 17061 0 0 17076 0 0 17069 0 0 17122 0 0 16907 0 0 17032 0 0 17016 0 0 16904 0 0 17269 0 0 16845 0 0 8474 0 0 123 0 0 33 0 0 24 0 0 28 0 0 18 0 0 7 0 0 15 0 0 15 0 0 11 0 0 
3 0 0 6 0 0 9 0 0 15 0 0 14 0 0 20 0 0 20 0 0 26 0 0 31 0 0 115 0 0 8602 0 0 16893 0 0 16949 0 0 17003 0 0 16976 0 0 17147 0 0 17186 0 0 17157 0 0 17053 0 0 17102 0 0 16903 0 0 17153 0 0 17039 0 0 17096 0 0 17296 0 0 17374 0 0 17007 0 0 17076 0 0 17210 0 0 16966 0 0 17144 0 0 17216 0 0 17104 0 0 17157 0 0 17219 0 0 17077 0 0 17151 0 0 16940 0 0 17136 0 0 17156 0 0 17193 0 0 17036 0 0 17053 0 0 17243 0 0 17096 0 0 16990 0 0 16987 0 0 17079 0 0 17195 0 0 16984 0 0 8569 0 0 123 0 0 35 0 0 31 0 0 27 0 0 25 0 0 23 0 0 13 0 0 12 0 0 13 0 0 
5 0 0 14 0 0 12 0 0 13 0 0 17 0 0 23 0 0 25 0 0 26 0 0 38 0 0 123 0 0 8521 0 0 17049 0 0 17162 0 0 16994 0 0 16973 0 0 17061 0 0 17131 0 0 17193 0 0 17082 0 0 17217 0 0 17109 0 0 17284 0 0 16953 0 0 17021 0 0 17143 0 0 17181 0 0 17151 0 0 17241 0 0 17182 0 0 16888 0 0 17148 0 0 17027 0 0 17096 0 0 17049 0 0 17283 0 0 17132 0 0 16914 0 0 17037 0 0 17018 0 0 16851 0 0 17136 0 0 16921 0 0 17040 0 0 17062 0 0 17084 0 0 17199 0 0 17047 0 0 17261 0 0 17011 0 0 17060 0 0 8684 0 0 125 0 0 39 0 0 26 0 0 12 0 0 16 0 0 21 0 0 15 0 0 10 0 0 12 0 0 
3 0 0 8 0 0 9 0 0 11 0 0 18 0 0 20 0 0 21 0 0 25 0 0 42 0 0 119 0 0 8554 0 0 17011 0 0 17060 0 0 17078 0 0 17062 0 0 17167 0 0 17283 0 0 17082 0 0 17080 0 0 17220 0 0 17087 0 0 17122 0 0 16994 0 0 17028 0 0 17132 0 0 17198 0 0 17262 0 0 16878 0 0 17171 0 0 17143 0 0 17183 0 0 17196 0 0 17222 0 0 17088 0 0 17077 0 0 17099 0 0 17009 0 0 17103 0 0 17058 0 0 17091 0 0 17275 0 0 17366 0 0 17169 0 0 17091 0 0 17106 0 0 17050 0 0 16942 0 0 17184 0 0 17089 0 0 17090 0 0 8654 0 0 114 0 0 35 0 0 33 0 0 19 0 0 17 0 0 16 0 0 15 0 0 11 0 0 10 0 0 
4 0 0 6 0 0 3 0 0 12 0 0 16 0 0 16 0 0 19 0 0 27 0 0 36 0 0 118 0 0 8564 0 0 16960 0 0 17015 0 0 17004 0 0 17023 0 0 16995 0 0 17140 0 0 16998 0 0 17169 0 0 17189 0 0 17222 0 0 16993 0 0 17296 0 0 17101 0 0 17395 0 0 17195 0 0 17095 0 0 17093 0 0 17195 0 0 17101 0 0 17156 0 0 17127 0 0 17310 0 0 17093 0 0 17125 0 0 17130 0 0 16903 0 0 17002 0 0 17027 0 0 17090 0 0 17085 0 0 17249 0 0 17000 0 0 17023 0 0 17012 0 0 16864 0 0 17216 0 0 17028 0 0 17012 0 0 16899 0 0 8450 0 0 113 0 0 28 0 0 22 0 0 20 0 0 12 0 0 12 0 0 12 0 0 12 0 0 8 0 0 
4 0 0 11 0 0 9 0 0 9 0 0 12 0 0 21 0 0 20 0 0 22 0 0 30 0 0 126 0 0 8467 0 0 17001 0 0 17256 0 0 17082 0 0 16946 0 0 17058 0 0 17039 0 0 16931 0 0 17204 0 0 16950 0 0 17184 0 0 17107 0 0 17173 0 0 16932 0 0 17156 0 0 17119 0 0 17134 0 0 17137 0 0 17018 0 0 17156 0 0 17280 0 0 17167 0 0 16983 0 0 17103 0 0 17104 0 0 17074 0 0 17249 0 0 17198 0 0 16922 0 0 17118 0 0 17046 0 0 17145 0 0 17138 0 0 17082 0 0 17210 0 0 17211 0 0 17153 0 0 17254 0 0 17186 0 0 17070 0 0 8429 0 0 118 0 0 22 0 0 19 0 0 20 0 0 23 0 0 17 0 0 10 0 0 12 0 0 9 0 0 
5 0 0 6 0 0 12 0 0 13 0 0 17 0 0 21 0 0 18 0 0 24 0 0 22 0 0 124 0 0 8624 0 0 17166 0 0 16937 0 0 16985 0 0 17060 0 0 17116 0 0 17246 0 0 16903 0 0 16951 0 0 17177 0 0 16999 0 0 17148 0 0 16752 0 0 16999 0 0 17224 0 0 17227 0 0 17108 0 0 17105 0 0 16951 0 0 17051 0 0 17061 0 0 16963 0 0 16975 0 0 17193 0 0 16937 0 0 17223 0 0 17046 0 0 17030 0 0 16966 0 0 17133 0 0 17064 0 0 17095 0 0 17040 0 0 17162 0 0 17081 0 0 17110 0 0 16987 0 0 17142 0 0 17168 0 0 17030 0 0 8465 0 0 115 0 0 25 0 0 16 0 0 12 0 0 12 0 0 12 0 0 9 0 0 9 0 0 11 0 0 
4 0 0 12 0 0 14 0 0 17 0 0 17 0 0 24 0 0 21 0 0 24 0 0 26 0 0 117 0 0 8559 0 0 16984 0 0 17329 0 0 17004 0 0 17245 0 0 17097 0 0 17055 0 0 17012 0 0 17012 0 0 17161 0 0 17284 0 0 16840 0 0 17186 0 0 16886 0 0 16965 0 0 17191 0 0 17000 0 0 16908 0 0 17032 0 0 17118 0 0 17175 0 0 17167 0 0 17054 0 0 17076 0 0 17091 0 0 17133 0 0 17153 0 0 16847 0 0 17363 0 0 16968 0 0 17070 0 0 17033 0 0 16939 0 0 17163 0 0 17227 0 0 16952 0 0 16992 0 0 17196 0 0 17122 0 0 17200 0 0 8647 0 0 113 0 0 30 0 0 22 0 0 21 0 0 11 0 0 13 0 0 10 0 0 10 0 0 7 0 0 
7 0 0 14 0 0 9 0 0 8 0 0 22 0 0 16 0 0 17 0 0 22 0 0 23 0 0 109 0 0 8465 0 0 16967 0 0 16954 0 0 17083 0 0 17244 0 0 17142 0 0 17181 0 0 17224 0 0 17074 0 0 17151 0 0 16916 0 0 16999 0 0 17179 0 0 17203 0 0 17080 0 0 17067 0 0 17351 0 0 16863 0 0 17045 0 0 17101 0 0 17087 0 0 16811 0 0 17276 0 0 17253 0 0 16992 0 0 17127 0 0 17096 0 0 17065 0 0 17083 0 0 16970 0 0 17023 0 0 17217 0 0 17133 0 0 17143 0 0 17172 0 0 17048 0 0 16961 0 0 16937 0 0 17033 0 0 16965 0 0 8605 0 0 128 0 0 41 0 0 21 0 0 15 0 0 16 0 0 12 0 0 10 0 0 7 0 0 6 0 0 
1 0 0 8 0 0 11 0 0 19 0 0 11 0 0 14 0 0 20 0 0 22 0 0 27 0 0 128 0 0 8574 0 0 16671 0 0 16994 0 0 16867 0 0 17071 0 0 17098 0 0 17127 0 0 17012 0 0 17041 0 0 17125 0 0 17098 0 0 17234 0 0 17315 0 0 17252 0 0 16982 0 0 16968 0 0 17160 0 0 17117 0 0 17022 0 0 17194 0 0 17127 0 0 17082 0 0 17099 0 0 17083 0 0 17006 0 0 17193 0 0 17002 0 0 17260 0 0 16991 0 0 17167 0 0 16996 0 0 17060 0 0 17011 0 0 17206 0 0 17216 0 0 16978 0 0 16997 0 0 16962 0 0 16987 0 0 16907 0 0 8460 0 0 125 0 0 26 0 0 22 0 0 12 0 0 19 0 0 13 0 0 10 0 0 9 0 0 3 0 0 
5 0 0 13 0 0 13 0 0 9 0 0 13 0 0 14 0 0 17 0 0 14 0 0 21 0 0 123 0 0 8408 0 0 16881 0 0 17128 0 0 17056 0 0 17199 0 0 17090 0 0 17095 0 0 16864 0 0 17264 0 0 17158 0 0 16994 0 0 17253 0 0 17129 0 0 17131 0 0 17131 0 0 17275 0 0 17037 0 0 17294 0 0 17161 0 0 17038 0 0 17008 0 0 17020 0 0 17105 0 0 16953 0 0 16983 0 0 17117 0 0 17170 0 0 16995 0 0 16981 0 0 17319 0 0 16897 0 0 17179 0 0 17063 0 0 17097 0 0 16942 0 0 16851 0 0 17078 0 0 17211 0 0 17189 0 0 17048 0 0 8559 0 0 133 0 0 36 0 0 27 0 0 22 0 0 16 0 0 12 0 0 8 0 0 9 0 0 5 0 0 
7 0 0 11 0 0 9 0 0 7 0 0 7 0 0 14 0 0 12 0 0 12 0 0 26 0 0 121 0 0 8626 0 0 16860 0 0 16990 0 0 16926 0 0 17235 0 0 16932 0 0 16907 0 0 17002 0 0 16865 0 0 17257 0 0 17161 0 0 16986 0 0 17048 0 0 17069 0 0 17470 0 0 17199 0 0 17324 0 0 17139 0 0 17067 0 0 17217 0 0 16881 0 0 16867 0 0 17007 0 0 17007 0 0 17004 0 0 16987 0 0 17179 0 0 17085 0 0 16928 0 0 17118 0 0 17171 0 0 17168 0 0 17179 0 0 17036 0 0 17040 0 0 16920 0 0 17140 0 0 16982 0 0 17197 0 0 17102 0 0 8476 0 0 118 0 0 29 0 0 19 0 0 14 0 0 9 0 0 7 0 0 7 0 0 3 0 0 6 0 0 
3 0 0 4 0 0 5 0 0 4 0 0 6 0 0 10 0 0 13 0 0 14 0 0 21 0 0 112 0 0 8486 0 0 16854 0 0 17075 0 0 16921 0 0 16952 0 0 16821 0 0 16855 0 0 17064 0 0 17102 0 0 17243 0 0 17212 0 0 16949 0 0 16945 0 0 17207 0 0 16914 0 0 16962 0 0 16779 0 0 16982 0 0 16851 0 0 17079 0 0 17028 0 0 16946 0 0 16937 0 0 17061 0 0 17085 0 0 16845 0 0 17118 0 0 17088 0 0 16753 0 0 16895 0 0 16932 0 0 17050 0 0 16975 0 0 16900 0 0 16808 0 0 16833 0 0 16968 0 0 16740 0 0 16980 0 0 16840 0 0 8271 0 0 113 0 0 27 0 0 20 0 0 12 0 0 10 0 0 7 0 0 8 0 0 8 0 0 5 0 0 
5 0 0 9 0 0 6 0 0 10 0 0 11 0 0 7 0 0 14 0 0 12 0 0 16 0 0 72 0 0 4336 0 0 8588 0 0 8634 0 0 8577 0 0 8530 0 0 8539 0 0 8595 0 0 8438 0 0 8605 0 0 8484 0 0 8585 0 0 8428 0 0 8438 0 0 8553 0 0 8481 0 0 8694 0 0 8566 0 0 8441 0 0 8574 0 0 8390 0 0 8656 0 0 8605 0 0 8440 0 0 8471 0 0 8535 0 0 8484 0 0 8470 0 0 8499 0 0 8594 0 0 8421 0 0 8429 0 0 8510 0 0 8437 0 0 8647 0 0 8621 0 0 8602 0 0 8435 0 0 8588 0 0 8649 0 0 8528 0 0 4251 0 0 59 0 0 21 0 0 15 0 0 13 0 0 12 0 0 7 0 0 6 0 0 5 0 0 6 0 0 
3 0 0 5 0 0 5 0 0 10 0 0 7 0 0 14 0 0 10 0 0 18 0 0 20 0 0 28 0 0 62 0 0 125 0 0 102 0 0 129 0 0 117 0 0 112 0 0 128 0 0 121 0 0 109 0 0 139 0 0 114 0 0 115 0 0 127 0 0 130 0 0 137 0 0 130 0 0 131 0 0 126 0 0 132 0 0 127 0 0 128 0 0 120 0 0 130 0 0 123 0 0 120 0 0 125 0 0 121 0 0 124 0 0 127 0 0 115 0 0 117 0 0 106 0 0 106 0 0 124 0 0 122 0 0 109 0 0 116 0 0 132 0 0 115 0 0 103 0 0 66 0 0 18 0 0 14 0 0 11 0 0 12 0 0 14 0 0 11 0 0 8 0 0 3 0 0 5 0 0 
2 0 0 6 0 0 9 0 0 8 0 0 10 0 0 10 0 0 8 0 0 14 0 0 9 0 0 18 0 0 22 0 0 23 0 0 17 0 0 21 0 0 38 0 0 25 0 0 27 0 0 23 0 0 24 0 0 19 0 0 25 0 0 31 0 0 26 0 0 29 0 0 20 0 0 24 0 0 41 0 0 37 0 0 34 0 0 31 0 0 43 0 0 23 0 0 29 0 0 31 0 0 26 0 0 26 0 0 31 0 0 29 0 0 33 0 0 28 0 0 31 0 0 21 0 0 23 0 0 19 0 0 28 0 0 22 0 0 26 0 0 23 0 0 24 0 0 24 0 0 12 0 0 13 0 0 6 0 0 11 0 0 9 0 0 6 0 0 10 0 0 5 0 0 3 0 0 5 0 0 
2 0 0 11 0 0 9 0 0 7 0 0 6 0 0 5 0 0 7 0 0 7 0 0 13 0 0 18 0 0 18 0 0 18 0 0 17 0 0 19 0 0 23 0 0 21 0 0 21 0 0 18 0 0 26 0 0 28 0 0 18 0 0 18 0 0 32 0 0 14 0 0 15 0 0 18 0 0 22 0 0 24 0 0 28 0 0 27 0 0 15 0 0 30 0 0 18 0 0 24 0 0 35 0 0 28 0 0 23 0 0 19 0 0 17 0 0 29 0 0 31 0 0 28 0 0 17 0 0 18 0 0 16 0 0 14 0 0 17 0 0 19 0 0 14 0 0 14 0 0 22 0 0 18 0 0 8 0 0 8 0 0 7 0 0 5 0 0 10 0 0 3 0 0 3 0 0 4 0 0 
4 0 0 9 0 0 8 0 0 3 0 0 11 0 0 4 0 0 4 0 0 5 0 0 9 0 0 11 0 0 14 0 0 17 0 0 19 0 0 16 0 0 13 0 0 20 0 0 14 0 0 17 0 0 21 0 0 21 0 0 13 0 0 24 0 0 19 0 0 13 0 0 17 0 0 17 0 0 21 0 0 26 0 0 13 0 0 21 0 0 14 0 0 22 0 0 21 0 0 24 0 0 23 0 0 20 0 0 20 0 0 18 0 0 16 0 0 23 0 0 17 0 0 24 0 0 19 0 0 14 0 0 16 0 0 11 0 0 18 0 0 14 0 0 17 0 0 12 0 0 14 0 0 15 0 0 17 0 0 6 0 0 6 0 0 5 0 0 9 0 0 14 0 0 4 0 0 2 0 0 
3 0 0 5 0 0 3 0 0 8 0 0 11 0 0 9 0 0 2 0 0 8 0 0 9 0 0 13 0 0 17 0 0 13 0 0 8 0 0 12 0 0 12 0 0 18 0 0 10 0 0 16 0 0 24 0 0 21 0 0 10 0 0 22 0 0 16 0 0 24 0 0 20 0 0 13 0 0 22 0 0 17 0 0 12 0 0 14 0 0 12 0 0 16 0 0 28 0 0 21 0 0 17 0 0 24 0 0 16 0 0 15 0 0 17 0 0 16 0 0 13 0 0 14 0 0 22 0 0 21 0 0 11 0 0 8 0 0 15 0 0 16 0 0 14 0 0 8 0 0 5 0 0 12 0 0 19 0 0 12 0 0 14 0 0 8 0 0 3 0 0 9 0 0 10 0 0 4 0 0 
1 0 0 3 0 0 2 0 0 9 0 0 11 0 0 5 0 0 4 0 0 12 0 0 12 0 0 14 0 0 12 0 0 9 0 0 12 0 0 14 0 0 12 0 0 14 0 0 7 0 0 11 0 0 13 0 0 18 0 0 18 0 0 20 0 0 9 0 0 20 0 0 14 0 0 18 0 0 11 0 0 13 0 0 9 0 0 14 0 0 10 0 0 20 0 0 21 0 0 18 0 0 20 0 0 19 0 0 20 0 0 12 0 0 14 0 0 10 0 0 15 0 0 8 0 0 17 0 0 19 0 0 9 0 0 13 0 0 14 0 0 10 0 0 12 0 0 13 0 0 7 0 0 8 0 0 13 0 0 14 0 0 16 0 0 13 0 0 9 0 0 3 0 0 8 0 0 8 0 0 
2 0 0 4 0 0 3 0 0 6 0 0 9 0 0 5 0 0 7 0 0 7 0 0 12 0 0 12 0 0 7 0 0 13 0 0 10 0 0 9 0 0 6 0 0 10 0 0 13 0 0 9 0 0 8 0 0 17 0 0 15 0 0 12 0 0 14 0 0 11 0 0 8 0 0 12 0 0 8 0 0 8 0 0 7 0 0 14 0 0 19 0 0 14 0 0 11 0 0 22 0 0 16 0 0 14 0 0 19 0 0 13 0 0 17 0 0 12 0 0 11 0 0 9 0 0 15 0 0 12 0 0 8 0 0 18 0 0 12 0 0 12 0 0 7 0 0 7 0 0 6 0 0 8 0 0 9 0 0 12 0 0 18 0 0 11 0 0 6 0 0 9 0 0 10 0 0 7 0 0 
1 0 0 4 0 0 3 0 0 3 0 0 6 0 0 6 0 0 9 0 0 10 0 0 14 0 0 6 0 0 7 0 0 9 0 0 9 0 0 8 0 0 7 0 0 12 0 0 13 0 0 6 0 0 14 0 0 16 0 0 10 0 0 8 0 0 12 0 0 6 0 0 12 0 0 6 0 0 9 0 0 10 0 0 13 0 0 13 0 0 18 0 0 12 0 0 16 0 0 15 0 0 15 0 0 9 0 0 12 0 0 18 0 0 13 0 0 17 0 0 13 0 0 12 0 0 17 0 0 15 0 0 9 0 0 10 0 0 11 0 0 12 0 0 11 0 0 5 0 0 5 0 0 5 0 0 5 0 0 5 0 0 7 0 0 14 0 0 10 0 0 4 0 0 2 0 0 5 0 0 
3 0 0 5 0 0 7 0 0 6 0 0 10 0 0 10 0 0 8 0 0 7 0 0 11 0 0 3 0 0 11 0 0 12 0 0 5 0 0 7 0 0 7 0 0 8 0 0 11 0 0 14 0 0 9 0 0 13 0 0 7 0 0 12 0 0 10 0 0 4 0 0 8 0 0 3 0 0 4 0 0 7 0 0 11 0 0 17 0 0 12 0 0 16 0 0 13 0 0 5 0 0 13 0 0 8 0 0 11 0 0 8 0 0 17 0 0 16 0 0 14 0 0 13 0 0 9 0 0 7 0 0 8 0 0 6 0 0 10 0 0 11 0 0 9 0 0 9 0 0 5 0 0 5 0 0 5 0 0 5 0 0 2 0 0 9 0 0 8 0 0 9 0 0 5 0 0 2 0 0 
