P3
# This is a dose file slice at depth 46 of 100
60 60
# now we give the maximum value of the RGB coordinates.
32965
1 0 0 2 0 0 1 0 0 1 0 0 1 0 0 1 0 0 1 0 0 5 0 0 0 0 0 3 0 0 4 0 0 2 0 0 2 0 0 2 0 0 2 0 0 1 0 0 4 0 0 3 0 0 5 0 0 1 0 0 4 0 0 3 0 0 0 0 0 4 0 0 1 0 0 4 0 0 5 0 0 2 0 0 1 0 0 3 0 0 4 0 0 3 0 0 2 0 0 2 0 0 8 0 0 3 0 0 2 0 0 2 0 0 6 0 0 5 0 0 4 0 0 4 0 0 4 0 0 4 0 0 0 0 0 1 0 0 5 0 0 3 0 0 4 0 0 2 0 0 2 0 0 1 0 0 4 0 0 2 0 0 3 0 0 1 0 0 0 0 0 2 0 0 1 0 0 0 0 0 
1 0 0 3 0 0 4 0 0 1 0 0 2 0 0 5 0 0 4 0 0 8 0 0 7 0 0 1 0 0 6 0 0 6 0 0 8 0 0 2 0 0 0 0 0 3 0 0 9 0 0 4 0 0 8 0 0 6 0 0 5 0 0 7 0 0 3 0 0 6 0 0 7 0 0 4 0 0 12 0 0 3 0 0 7 0 0 8 0 0 11 0 0 6 0 0 4 0 0 7 0 0 10 0 0 5 0 0 7 0 0 12 0 0 5 0 0 11 0 0 9 0 0 9 0 0 7 0 0 8 0 0 5 0 0 7 0 0 8 0 0 6 0 0 5 0 0 7 0 0 7 0 0 4 0 0 7 0 0 6 0 0 6 0 0 3 0 0 7 0 0 3 0 0 4 0 0 1 0 0 
0 0 0 4 0 0 1 0 0 4 0 0 6 0 0 2 0 0 4 0 0 2 0 0 6 0 0 5 0 0 4 0 0 7 0 0 6 0 0 6 0 0 2 0 0 1 0 0 5 0 0 2 0 0 8 0 0 7 0 0 2 0 0 5 0 0 9 0 0 3 0 0 7 0 0 6 0 0 10 0 0 5 0 0 4 0 0 7 0 0 10 0 0 10 0 0 5 0 0 7 0 0 4 0 0 7 0 0 10 0 0 12 0 0 4 0 0 8 0 0 12 0 0 4 0 0 4 0 0 6 0 0 6 0 0 7 0 0 5 0 0 9 0 0 4 0 0 6 0 0 6 0 0 6 0 0 8 0 0 6 0 0 6 0 0 4 0 0 2 0 0 2 0 0 2 0 0 4 0 0 
3 0 0 2 0 0 3 0 0 4 0 0 1 0 0 5 0 0 3 0 0 7 0 0 9 0 0 5 0 0 5 0 0 5 0 0 6 0 0 11 0 0 8 0 0 3 0 0 5 0 0 8 0 0 9 0 0 9 0 0 4 0 0 6 0 0 7 0 0 7 0 0 10 0 0 6 0 0 10 0 0 7 0 0 3 0 0 7 0 0 7 0 0 9 0 0 12 0 0 12 0 0 12 0 0 6 0 0 14 0 0 11 0 0 7 0 0 14 0 0 8 0 0 8 0 0 6 0 0 3 0 0 11 0 0 5 0 0 6 0 0 5 0 0 4 0 0 6 0 0 3 0 0 10 0 0 8 0 0 8 0 0 6 0 0 3 0 0 0 0 0 4 0 0 4 0 0 3 0 0 
2 0 0 4 0 0 3 0 0 1 0 0 4 0 0 5 0 0 3 0 0 1 0 0 8 0 0 9 0 0 8 0 0 10 0 0 6 0 0 10 0 0 10 0 0 11 0 0 9 0 0 2 0 0 9 0 0 7 0 0 5 0 0 9 0 0 9 0 0 9 0 0 5 0 0 10 0 0 12 0 0 12 0 0 7 0 0 9 0 0 7 0 0 11 0 0 13 0 0 17 0 0 13 0 0 11 0 0 16 0 0 12 0 0 11 0 0 14 0 0 7 0 0 8 0 0 5 0 0 7 0 0 11 0 0 6 0 0 8 0 0 4 0 0 5 0 0 7 0 0 8 0 0 8 0 0 12 0 0 6 0 0 6 0 0 3 0 0 4 0 0 6 0 0 5 0 0 2 0 0 
0 0 0 3 0 0 4 0 0 0 0 0 2 0 0 5 0 0 8 0 0 0 0 0 3 0 0 12 0 0 9 0 0 11 0 0 12 0 0 12 0 0 15 0 0 14 0 0 12 0 0 12 0 0 12 0 0 14 0 0 9 0 0 8 0 0 12 0 0 9 0 0 7 0 0 9 0 0 11 0 0 16 0 0 9 0 0 10 0 0 11 0 0 9 0 0 9 0 0 15 0 0 12 0 0 13 0 0 18 0 0 15 0 0 12 0 0 12 0 0 8 0 0 10 0 0 14 0 0 7 0 0 10 0 0 10 0 0 12 0 0 8 0 0 6 0 0 6 0 0 8 0 0 6 0 0 6 0 0 7 0 0 3 0 0 4 0 0 5 0 0 3 0 0 4 0 0 6 0 0 
1 0 0 8 0 0 5 0 0 4 0 0 8 0 0 6 0 0 6 0 0 6 0 0 4 0 0 8 0 0 9 0 0 11 0 0 12 0 0 10 0 0 8 0 0 12 0 0 18 0 0 14 0 0 17 0 0 15 0 0 15 0 0 17 0 0 13 0 0 9 0 0 16 0 0 13 0 0 13 0 0 16 0 0 10 0 0 10 0 0 12 0 0 15 0 0 6 0 0 14 0 0 12 0 0 20 0 0 19 0 0 12 0 0 15 0 0 15 0 0 11 0 0 12 0 0 22 0 0 15 0 0 13 0 0 7 0 0 14 0 0 8 0 0 6 0 0 9 0 0 11 0 0 8 0 0 10 0 0 6 0 0 2 0 0 4 0 0 5 0 0 4 0 0 5 0 0 1 0 0 
0 0 0 5 0 0 3 0 0 1 0 0 2 0 0 4 0 0 6 0 0 5 0 0 6 0 0 6 0 0 11 0 0 9 0 0 11 0 0 8 0 0 14 0 0 22 0 0 21 0 0 18 0 0 17 0 0 14 0 0 17 0 0 18 0 0 24 0 0 15 0 0 13 0 0 11 0 0 25 0 0 28 0 0 13 0 0 10 0 0 16 0 0 14 0 0 11 0 0 16 0 0 19 0 0 35 0 0 14 0 0 23 0 0 12 0 0 21 0 0 20 0 0 17 0 0 24 0 0 15 0 0 8 0 0 10 0 0 18 0 0 7 0 0 15 0 0 14 0 0 12 0 0 6 0 0 12 0 0 8 0 0 6 0 0 4 0 0 5 0 0 7 0 0 5 0 0 5 0 0 
0 0 0 3 0 0 3 0 0 3 0 0 2 0 0 3 0 0 3 0 0 8 0 0 12 0 0 12 0 0 13 0 0 11 0 0 17 0 0 10 0 0 28 0 0 21 0 0 17 0 0 33 0 0 23 0 0 29 0 0 26 0 0 25 0 0 22 0 0 22 0 0 15 0 0 23 0 0 23 0 0 18 0 0 25 0 0 22 0 0 18 0 0 19 0 0 20 0 0 27 0 0 27 0 0 29 0 0 20 0 0 23 0 0 15 0 0 28 0 0 28 0 0 26 0 0 26 0 0 18 0 0 20 0 0 20 0 0 13 0 0 11 0 0 17 0 0 15 0 0 15 0 0 14 0 0 7 0 0 5 0 0 7 0 0 6 0 0 8 0 0 12 0 0 6 0 0 7 0 0 
2 0 0 5 0 0 4 0 0 5 0 0 1 0 0 1 0 0 4 0 0 3 0 0 9 0 0 21 0 0 50 0 0 68 0 0 83 0 0 85 0 0 104 0 0 91 0 0 84 0 0 92 0 0 103 0 0 101 0 0 102 0 0 103 0 0 88 0 0 89 0 0 74 0 0 88 0 0 93 0 0 97 0 0 102 0 0 97 0 0 89 0 0 103 0 0 82 0 0 86 0 0 105 0 0 92 0 0 94 0 0 97 0 0 97 0 0 88 0 0 90 0 0 96 0 0 96 0 0 85 0 0 87 0 0 95 0 0 80 0 0 97 0 0 87 0 0 89 0 0 53 0 0 11 0 0 7 0 0 8 0 0 12 0 0 7 0 0 12 0 0 9 0 0 6 0 0 2 0 0 
3 0 0 4 0 0 4 0 0 5 0 0 6 0 0 3 0 0 8 0 0 5 0 0 9 0 0 52 0 0 2963 0 0 5755 0 0 5865 0 0 5871 0 0 5905 0 0 5854 0 0 5896 0 0 5906 0 0 5885 0 0 5820 0 0 5937 0 0 5910 0 0 5807 0 0 5836 0 0 5840 0 0 5776 0 0 5822 0 0 5814 0 0 5776 0 0 5811 0 0 5873 0 0 5743 0 0 5719 0 0 5919 0 0 5863 0 0 5937 0 0 5861 0 0 5887 0 0 5769 0 0 5899 0 0 5815 0 0 5862 0 0 5961 0 0 5926 0 0 6054 0 0 5803 0 0 5776 0 0 5910 0 0 5796 0 0 5780 0 0 2935 0 0 49 0 0 5 0 0 6 0 0 10 0 0 9 0 0 8 0 0 4 0 0 5 0 0 4 0 0 
1 0 0 3 0 0 9 0 0 12 0 0 8 0 0 9 0 0 7 0 0 5 0 0 8 0 0 75 0 0 5839 0 0 11533 0 0 11648 0 0 11748 0 0 11683 0 0 11429 0 0 11402 0 0 11712 0 0 11470 0 0 11704 0 0 11703 0 0 11614 0 0 11505 0 0 11629 0 0 11688 0 0 11509 0 0 11588 0 0 11580 0 0 11465 0 0 11626 0 0 11722 0 0 11667 0 0 11693 0 0 11579 0 0 11632 0 0 11658 0 0 11785 0 0 11544 0 0 11724 0 0 11511 0 0 11598 0 0 11680 0 0 11656 0 0 11607 0 0 11534 0 0 11641 0 0 11526 0 0 11532 0 0 11537 0 0 11531 0 0 5867 0 0 81 0 0 12 0 0 17 0 0 14 0 0 5 0 0 4 0 0 6 0 0 11 0 0 11 0 0 
1 0 0 4 0 0 4 0 0 6 0 0 7 0 0 10 0 0 7 0 0 9 0 0 14 0 0 69 0 0 5851 0 0 11701 0 0 11805 0 0 11641 0 0 11746 0 0 11601 0 0 11599 0 0 11623 0 0 11641 0 0 11593 0 0 11577 0 0 11832 0 0 11748 0 0 11687 0 0 11646 0 0 11661 0 0 11787 0 0 12002 0 0 11796 0 0 11651 0 0 11634 0 0 11710 0 0 11626 0 0 11736 0 0 11702 0 0 11680 0 0 11524 0 0 11556 0 0 11711 0 0 11736 0 0 11778 0 0 11523 0 0 11770 0 0 11701 0 0 11613 0 0 11769 0 0 11657 0 0 11771 0 0 11775 0 0 11735 0 0 5788 0 0 74 0 0 25 0 0 16 0 0 12 0 0 11 0 0 10 0 0 15 0 0 9 0 0 6 0 0 
4 0 0 11 0 0 9 0 0 10 0 0 7 0 0 4 0 0 8 0 0 12 0 0 19 0 0 97 0 0 5891 0 0 11498 0 0 11729 0 0 11673 0 0 11601 0 0 11664 0 0 11743 0 0 11503 0 0 11737 0 0 11585 0 0 11878 0 0 11671 0 0 11582 0 0 11524 0 0 11665 0 0 11691 0 0 11536 0 0 11572 0 0 11645 0 0 11451 0 0 11648 0 0 11752 0 0 11590 0 0 11708 0 0 11764 0 0 11736 0 0 11657 0 0 11651 0 0 11715 0 0 11864 0 0 11729 0 0 11633 0 0 11630 0 0 11942 0 0 11640 0 0 11643 0 0 11683 0 0 11706 0 0 11772 0 0 11757 0 0 5880 0 0 90 0 0 16 0 0 13 0 0 7 0 0 4 0 0 8 0 0 1 0 0 4 0 0 2 0 0 
3 0 0 7 0 0 8 0 0 5 0 0 12 0 0 12 0 0 12 0 0 14 0 0 15 0 0 84 0 0 5864 0 0 11474 0 0 11783 0 0 11699 0 0 11810 0 0 11547 0 0 11634 0 0 11574 0 0 11689 0 0 11661 0 0 11642 0 0 11711 0 0 11543 0 0 11783 0 0 11720 0 0 11661 0 0 11465 0 0 11742 0 0 11606 0 0 11633 0 0 11701 0 0 11726 0 0 11680 0 0 11808 0 0 11635 0 0 11917 0 0 11672 0 0 11781 0 0 11734 0 0 11578 0 0 11494 0 0 11510 0 0 11690 0 0 11731 0 0 11739 0 0 11723 0 0 11900 0 0 11888 0 0 11512 0 0 11446 0 0 5828 0 0 82 0 0 20 0 0 9 0 0 6 0 0 11 0 0 11 0 0 4 0 0 5 0 0 4 0 0 
5 0 0 12 0 0 11 0 0 10 0 0 9 0 0 13 0 0 12 0 0 15 0 0 19 0 0 86 0 0 5711 0 0 11687 0 0 11635 0 0 11727 0 0 11804 0 0 11612 0 0 11779 0 0 11721 0 0 11802 0 0 11575 0 0 11676 0 0 11705 0 0 11707 0 0 11573 0 0 11459 0 0 11708 0 0 11716 0 0 11657 0 0 11571 0 0 11633 0 0 11661 0 0 11554 0 0 11711 0 0 11551 0 0 11731 0 0 11674 0 0 11483 0 0 11567 0 0 11661 0 0 11760 0 0 11635 0 0 11781 0 0 11601 0 0 11774 0 0 11747 0 0 11594 0 0 11442 0 0 11846 0 0 11722 0 0 11478 0 0 5696 0 0 99 0 0 24 0 0 19 0 0 12 0 0 13 0 0 7 0 0 3 0 0 5 0 0 5 0 0 
6 0 0 6 0 0 8 0 0 6 0 0 15 0 0 14 0 0 18 0 0 16 0 0 21 0 0 97 0 0 5859 0 0 11551 0 0 11570 0 0 11699 0 0 11731 0 0 11593 0 0 11857 0 0 11760 0 0 11737 0 0 11614 0 0 11583 0 0 11568 0 0 11678 0 0 11645 0 0 11639 0 0 11857 0 0 11784 0 0 11634 0 0 11658 0 0 11625 0 0 11634 0 0 11771 0 0 11817 0 0 11848 0 0 11705 0 0 11586 0 0 11763 0 0 11748 0 0 11650 0 0 11629 0 0 11556 0 0 11544 0 0 11678 0 0 11839 0 0 11688 0 0 11671 0 0 11691 0 0 11760 0 0 11881 0 0 11522 0 0 5799 0 0 80 0 0 22 0 0 15 0 0 6 0 0 10 0 0 5 0 0 5 0 0 1 0 0 2 0 0 
3 0 0 6 0 0 5 0 0 5 0 0 9 0 0 15 0 0 13 0 0 22 0 0 27 0 0 91 0 0 5925 0 0 11508 0 0 11663 0 0 11600 0 0 11820 0 0 11714 0 0 11771 0 0 11775 0 0 11493 0 0 11620 0 0 11664 0 0 11719 0 0 11669 0 0 11656 0 0 11725 0 0 11585 0 0 11619 0 0 11654 0 0 11772 0 0 11580 0 0 11854 0 0 11611 0 0 11719 0 0 11581 0 0 11879 0 0 11733 0 0 11585 0 0 11618 0 0 11762 0 0 11858 0 0 11649 0 0 11703 0 0 11788 0 0 11584 0 0 11642 0 0 11752 0 0 11439 0 0 11512 0 0 11653 0 0 11668 0 0 5769 0 0 96 0 0 21 0 0 14 0 0 9 0 0 7 0 0 11 0 0 9 0 0 5 0 0 7 0 0 
1 0 0 8 0 0 12 0 0 7 0 0 13 0 0 13 0 0 11 0 0 12 0 0 21 0 0 108 0 0 5857 0 0 11685 0 0 11642 0 0 11644 0 0 11655 0 0 11660 0 0 11758 0 0 11643 0 0 11602 0 0 11681 0 0 11761 0 0 11719 0 0 11577 0 0 11645 0 0 11636 0 0 11683 0 0 11693 0 0 11822 0 0 11760 0 0 11719 0 0 11779 0 0 11693 0 0 11786 0 0 11725 0 0 11733 0 0 11687 0 0 11651 0 0 11563 0 0 11659 0 0 11690 0 0 11588 0 0 11792 0 0 11812 0 0 11675 0 0 11770 0 0 11691 0 0 11707 0 0 11675 0 0 11527 0 0 11519 0 0 5844 0 0 95 0 0 18 0 0 14 0 0 18 0 0 8 0 0 7 0 0 9 0 0 9 0 0 11 0 0 
3 0 0 4 0 0 8 0 0 10 0 0 13 0 0 13 0 0 14 0 0 19 0 0 25 0 0 93 0 0 5848 0 0 11651 0 0 11674 0 0 11750 0 0 11732 0 0 11624 0 0 11724 0 0 11554 0 0 11866 0 0 11731 0 0 11770 0 0 11898 0 0 11662 0 0 11636 0 0 11535 0 0 11702 0 0 11697 0 0 11499 0 0 11605 0 0 11610 0 0 11610 0 0 11530 0 0 11760 0 0 11865 0 0 11735 0 0 11625 0 0 11744 0 0 11769 0 0 11628 0 0 11766 0 0 11611 0 0 11689 0 0 11522 0 0 11499 0 0 11810 0 0 11689 0 0 11710 0 0 11868 0 0 11794 0 0 11496 0 0 5939 0 0 88 0 0 18 0 0 20 0 0 16 0 0 8 0 0 9 0 0 9 0 0 12 0 0 5 0 0 
2 0 0 8 0 0 8 0 0 5 0 0 10 0 0 14 0 0 15 0 0 13 0 0 21 0 0 73 0 0 5802 0 0 11637 0 0 11740 0 0 11656 0 0 11772 0 0 11773 0 0 11595 0 0 11865 0 0 11561 0 0 11705 0 0 11489 0 0 11699 0 0 11686 0 0 11628 0 0 11718 0 0 11727 0 0 11643 0 0 11650 0 0 11822 0 0 11776 0 0 11704 0 0 11859 0 0 11648 0 0 11628 0 0 11603 0 0 11724 0 0 11930 0 0 11699 0 0 11639 0 0 11776 0 0 11749 0 0 11630 0 0 11722 0 0 11547 0 0 11604 0 0 11647 0 0 11679 0 0 11556 0 0 11632 0 0 11490 0 0 5793 0 0 86 0 0 14 0 0 14 0 0 14 0 0 10 0 0 8 0 0 10 0 0 11 0 0 10 0 0 
6 0 0 9 0 0 15 0 0 14 0 0 13 0 0 12 0 0 7 0 0 9 0 0 20 0 0 75 0 0 5943 0 0 11708 0 0 11744 0 0 11627 0 0 11601 0 0 11836 0 0 11803 0 0 11740 0 0 11775 0 0 11553 0 0 11650 0 0 11615 0 0 11601 0 0 11521 0 0 11570 0 0 11827 0 0 11518 0 0 11679 0 0 11703 0 0 11830 0 0 11592 0 0 11796 0 0 11721 0 0 11733 0 0 11815 0 0 11707 0 0 11534 0 0 11613 0 0 11721 0 0 11850 0 0 11803 0 0 11398 0 0 11633 0 0 11850 0 0 11754 0 0 11665 0 0 11750 0 0 11587 0 0 11636 0 0 11468 0 0 5864 0 0 94 0 0 20 0 0 13 0 0 12 0 0 9 0 0 11 0 0 10 0 0 12 0 0 11 0 0 
2 0 0 9 0 0 4 0 0 8 0 0 11 0 0 7 0 0 17 0 0 12 0 0 19 0 0 84 0 0 5820 0 0 11536 0 0 11871 0 0 11757 0 0 11587 0 0 11751 0 0 11588 0 0 11620 0 0 11755 0 0 11731 0 0 11770 0 0 11685 0 0 11750 0 0 11694 0 0 11789 0 0 11768 0 0 11745 0 0 11667 0 0 11821 0 0 11734 0 0 11696 0 0 11654 0 0 11649 0 0 11600 0 0 11647 0 0 11746 0 0 11697 0 0 11709 0 0 11659 0 0 11758 0 0 11610 0 0 11814 0 0 11547 0 0 11725 0 0 11804 0 0 11800 0 0 11676 0 0 11707 0 0 11663 0 0 11708 0 0 5955 0 0 96 0 0 20 0 0 18 0 0 11 0 0 14 0 0 21 0 0 12 0 0 8 0 0 6 0 0 
2 0 0 6 0 0 7 0 0 7 0 0 5 0 0 14 0 0 16 0 0 19 0 0 25 0 0 95 0 0 5843 0 0 11679 0 0 11542 0 0 11745 0 0 11700 0 0 11623 0 0 11528 0 0 11810 0 0 11684 0 0 11585 0 0 11651 0 0 11689 0 0 11629 0 0 11740 0 0 11718 0 0 11832 0 0 11690 0 0 11642 0 0 11689 0 0 11614 0 0 11516 0 0 11544 0 0 11615 0 0 11747 0 0 11636 0 0 11750 0 0 11704 0 0 11795 0 0 11747 0 0 11713 0 0 11645 0 0 11638 0 0 11577 0 0 11400 0 0 11839 0 0 11531 0 0 11734 0 0 11711 0 0 11762 0 0 11335 0 0 5999 0 0 80 0 0 19 0 0 16 0 0 18 0 0 14 0 0 10 0 0 14 0 0 6 0 0 4 0 0 
5 0 0 6 0 0 12 0 0 8 0 0 12 0 0 18 0 0 10 0 0 16 0 0 15 0 0 89 0 0 5857 0 0 11633 0 0 11871 0 0 11760 0 0 11615 0 0 11654 0 0 11790 0 0 11941 0 0 11651 0 0 11741 0 0 11761 0 0 11644 0 0 11728 0 0 11752 0 0 11535 0 0 11603 0 0 11601 0 0 11671 0 0 11645 0 0 11629 0 0 11682 0 0 11672 0 0 11577 0 0 11638 0 0 11592 0 0 11834 0 0 11480 0 0 11547 0 0 11650 0 0 11724 0 0 11738 0 0 11655 0 0 11756 0 0 11663 0 0 11722 0 0 11629 0 0 11539 0 0 11652 0 0 11789 0 0 11517 0 0 5942 0 0 95 0 0 24 0 0 18 0 0 13 0 0 8 0 0 8 0 0 8 0 0 5 0 0 3 0 0 
4 0 0 12 0 0 11 0 0 7 0 0 8 0 0 13 0 0 16 0 0 12 0 0 20 0 0 94 0 0 5906 0 0 11617 0 0 11830 0 0 11673 0 0 11857 0 0 11666 0 0 11708 0 0 11612 0 0 11597 0 0 11794 0 0 11761 0 0 11763 0 0 11631 0 0 11497 0 0 11849 0 0 11540 0 0 11836 0 0 11592 0 0 11764 0 0 11853 0 0 11648 0 0 11623 0 0 11595 0 0 11654 0 0 11724 0 0 11679 0 0 11727 0 0 11615 0 0 11601 0 0 11747 0 0 11710 0 0 11684 0 0 11695 0 0 11657 0 0 11719 0 0 11549 0 0 11610 0 0 11520 0 0 11626 0 0 11495 0 0 5755 0 0 120 0 0 27 0 0 20 0 0 12 0 0 11 0 0 10 0 0 7 0 0 4 0 0 7 0 0 
5 0 0 5 0 0 7 0 0 7 0 0 7 0 0 7 0 0 16 0 0 12 0 0 25 0 0 96 0 0 5773 0 0 11604 0 0 11672 0 0 11777 0 0 11645 0 0 11712 0 0 11378 0 0 11732 0 0 11694 0 0 11670 0 0 11769 0 0 11748 0 0 11723 0 0 11692 0 0 11654 0 0 11779 0 0 11805 0 0 11595 0 0 11628 0 0 11618 0 0 11611 0 0 11837 0 0 11748 0 0 11742 0 0 11798 0 0 11561 0 0 11597 0 0 11583 0 0 11637 0 0 11825 0 0 11724 0 0 11601 0 0 11790 0 0 11773 0 0 11747 0 0 11696 0 0 11912 0 0 11688 0 0 11583 0 0 11565 0 0 5907 0 0 112 0 0 30 0 0 22 0 0 20 0 0 17 0 0 11 0 0 10 0 0 9 0 0 2 0 0 
6 0 0 13 0 0 7 0 0 12 0 0 8 0 0 9 0 0 13 0 0 14 0 0 16 0 0 99 0 0 5825 0 0 11607 0 0 11795 0 0 11664 0 0 11752 0 0 11721 0 0 11645 0 0 11560 0 0 11578 0 0 11796 0 0 11896 0 0 11484 0 0 11843 0 0 11701 0 0 11510 0 0 11794 0 0 11532 0 0 11654 0 0 11669 0 0 11703 0 0 11689 0 0 11607 0 0 11722 0 0 11835 0 0 11881 0 0 11608 0 0 11770 0 0 11534 0 0 11712 0 0 11673 0 0 11759 0 0 11913 0 0 11734 0 0 11906 0 0 11732 0 0 11694 0 0 11600 0 0 11495 0 0 11703 0 0 11487 0 0 5892 0 0 92 0 0 24 0 0 25 0 0 17 0 0 12 0 0 14 0 0 9 0 0 3 0 0 5 0 0 
3 0 0 10 0 0 9 0 0 5 0 0 8 0 0 14 0 0 16 0 0 20 0 0 22 0 0 78 0 0 5843 0 0 11636 0 0 11667 0 0 11512 0 0 11658 0 0 11847 0 0 11555 0 0 11681 0 0 11641 0 0 11665 0 0 11655 0 0 11521 0 0 11655 0 0 11759 0 0 11872 0 0 11863 0 0 11855 0 0 11624 0 0 11852 0 0 11740 0 0 11752 0 0 11694 0 0 11596 0 0 11734 0 0 11787 0 0 11442 0 0 11904 0 0 11703 0 0 11789 0 0 11768 0 0 11659 0 0 11794 0 0 11700 0 0 11472 0 0 11855 0 0 11740 0 0 11764 0 0 11642 0 0 11904 0 0 11496 0 0 5835 0 0 107 0 0 24 0 0 14 0 0 7 0 0 10 0 0 11 0 0 8 0 0 6 0 0 6 0 0 
4 0 0 7 0 0 8 0 0 12 0 0 13 0 0 11 0 0 17 0 0 22 0 0 32 0 0 82 0 0 5939 0 0 11891 0 0 11673 0 0 11505 0 0 11668 0 0 11543 0 0 11614 0 0 11664 0 0 11676 0 0 11681 0 0 11706 0 0 11690 0 0 11572 0 0 11650 0 0 11603 0 0 11563 0 0 11871 0 0 11808 0 0 11685 0 0 11749 0 0 11753 0 0 11609 0 0 11717 0 0 11736 0 0 11666 0 0 11679 0 0 11688 0 0 11567 0 0 11764 0 0 11623 0 0 11661 0 0 11628 0 0 11668 0 0 11761 0 0 11778 0 0 11613 0 0 11679 0 0 11767 0 0 11662 0 0 11562 0 0 5866 0 0 89 0 0 14 0 0 11 0 0 9 0 0 7 0 0 6 0 0 9 0 0 8 0 0 6 0 0 
2 0 0 12 0 0 8 0 0 8 0 0 13 0 0 8 0 0 12 0 0 14 0 0 27 0 0 93 0 0 5877 0 0 11440 0 0 11701 0 0 11382 0 0 11766 0 0 11620 0 0 11659 0 0 11774 0 0 11534 0 0 11715 0 0 11905 0 0 11672 0 0 11562 0 0 11714 0 0 11648 0 0 11599 0 0 11838 0 0 11807 0 0 11681 0 0 11503 0 0 11673 0 0 11741 0 0 11804 0 0 11639 0 0 11697 0 0 11631 0 0 11448 0 0 11665 0 0 11404 0 0 11756 0 0 11543 0 0 11655 0 0 11764 0 0 11489 0 0 11715 0 0 11657 0 0 11556 0 0 11727 0 0 11689 0 0 11663 0 0 6087 0 0 96 0 0 17 0 0 15 0 0 11 0 0 7 0 0 5 0 0 7 0 0 4 0 0 7 0 0 
3 0 0 4 0 0 6 0 0 11 0 0 14 0 0 12 0 0 12 0 0 13 0 0 19 0 0 93 0 0 5901 0 0 11727 0 0 11590 0 0 11605 0 0 11717 0 0 11542 0 0 11694 0 0 11632 0 0 11658 0 0 11504 0 0 11717 0 0 11740 0 0 11728 0 0 11651 0 0 11672 0 0 11741 0 0 11711 0 0 11671 0 0 11531 0 0 11721 0 0 11641 0 0 11748 0 0 11787 0 0 11745 0 0 11818 0 0 11777 0 0 11528 0 0 11727 0 0 11713 0 0 11744 0 0 11791 0 0 11709 0 0 11667 0 0 11708 0 0 11780 0 0 11715 0 0 11755 0 0 11819 0 0 11726 0 0 11670 0 0 5834 0 0 80 0 0 23 0 0 20 0 0 15 0 0 19 0 0 11 0 0 5 0 0 7 0 0 4 0 0 
6 0 0 9 0 0 5 0 0 12 0 0 14 0 0 16 0 0 14 0 0 13 0 0 21 0 0 76 0 0 5801 0 0 11682 0 0 11553 0 0 11570 0 0 11739 0 0 11809 0 0 11746 0 0 11698 0 0 11649 0 0 11644 0 0 11635 0 0 11667 0 0 11645 0 0 11765 0 0 11736 0 0 11665 0 0 11621 0 0 11744 0 0 11696 0 0 11908 0 0 11546 0 0 11790 0 0 11578 0 0 11567 0 0 11717 0 0 11541 0 0 11377 0 0 11612 0 0 11492 0 0 11661 0 0 11649 0 0 11875 0 0 11621 0 0 11790 0 0 11591 0 0 11914 0 0 11800 0 0 11748 0 0 11638 0 0 11712 0 0 5937 0 0 106 0 0 20 0 0 17 0 0 14 0 0 13 0 0 10 0 0 7 0 0 5 0 0 5 0 0 
3 0 0 5 0 0 10 0 0 16 0 0 12 0 0 13 0 0 19 0 0 20 0 0 31 0 0 91 0 0 5752 0 0 11505 0 0 11465 0 0 11798 0 0 11586 0 0 11671 0 0 11695 0 0 11687 0 0 11659 0 0 11725 0 0 11727 0 0 11682 0 0 11803 0 0 11717 0 0 11563 0 0 11738 0 0 11556 0 0 11648 0 0 11586 0 0 11885 0 0 11897 0 0 11835 0 0 11697 0 0 11632 0 0 11617 0 0 11646 0 0 11693 0 0 11634 0 0 11798 0 0 11604 0 0 11770 0 0 11515 0 0 11766 0 0 11681 0 0 11614 0 0 11896 0 0 11705 0 0 11553 0 0 11798 0 0 11647 0 0 5950 0 0 87 0 0 23 0 0 28 0 0 9 0 0 7 0 0 8 0 0 12 0 0 7 0 0 8 0 0 
3 0 0 10 0 0 9 0 0 4 0 0 13 0 0 19 0 0 12 0 0 14 0 0 18 0 0 96 0 0 5695 0 0 11542 0 0 11657 0 0 11745 0 0 11693 0 0 11687 0 0 11678 0 0 11796 0 0 11572 0 0 11591 0 0 11623 0 0 11757 0 0 11751 0 0 11813 0 0 11731 0 0 11719 0 0 11831 0 0 11706 0 0 11806 0 0 11780 0 0 11640 0 0 11714 0 0 11534 0 0 11689 0 0 11678 0 0 11920 0 0 11662 0 0 11638 0 0 11611 0 0 11776 0 0 11614 0 0 11712 0 0 11652 0 0 11475 0 0 11809 0 0 11542 0 0 11674 0 0 11740 0 0 11595 0 0 11670 0 0 5792 0 0 91 0 0 24 0 0 16 0 0 14 0 0 13 0 0 13 0 0 9 0 0 7 0 0 3 0 0 
3 0 0 6 0 0 12 0 0 10 0 0 7 0 0 6 0 0 16 0 0 17 0 0 32 0 0 91 0 0 5849 0 0 11401 0 0 11547 0 0 11765 0 0 11765 0 0 11710 0 0 11610 0 0 11737 0 0 11660 0 0 11820 0 0 11791 0 0 11673 0 0 11652 0 0 11716 0 0 11611 0 0 11754 0 0 11692 0 0 11716 0 0 11675 0 0 11831 0 0 11703 0 0 11603 0 0 11785 0 0 11692 0 0 11701 0 0 11807 0 0 11808 0 0 11500 0 0 11711 0 0 11669 0 0 11710 0 0 11728 0 0 11467 0 0 11716 0 0 11727 0 0 11767 0 0 11820 0 0 11799 0 0 11750 0 0 11626 0 0 5823 0 0 91 0 0 22 0 0 13 0 0 10 0 0 12 0 0 12 0 0 11 0 0 11 0 0 7 0 0 
1 0 0 3 0 0 8 0 0 13 0 0 11 0 0 12 0 0 16 0 0 22 0 0 25 0 0 84 0 0 5863 0 0 11546 0 0 11795 0 0 11779 0 0 11707 0 0 11544 0 0 11659 0 0 11648 0 0 11623 0 0 11619 0 0 11805 0 0 11486 0 0 11711 0 0 11825 0 0 11730 0 0 11898 0 0 11694 0 0 11662 0 0 11584 0 0 11662 0 0 11717 0 0 11699 0 0 11869 0 0 11625 0 0 11834 0 0 11660 0 0 11609 0 0 11713 0 0 11645 0 0 11826 0 0 11773 0 0 11748 0 0 11702 0 0 11522 0 0 11779 0 0 11712 0 0 11746 0 0 11586 0 0 11720 0 0 11528 0 0 5894 0 0 81 0 0 23 0 0 16 0 0 14 0 0 11 0 0 11 0 0 11 0 0 8 0 0 8 0 0 
4 0 0 8 0 0 9 0 0 8 0 0 13 0 0 15 0 0 16 0 0 17 0 0 20 0 0 95 0 0 5779 0 0 11556 0 0 11542 0 0 11541 0 0 11706 0 0 11645 0 0 11686 0 0 11615 0 0 11665 0 0 11696 0 0 11761 0 0 11726 0 0 11606 0 0 11755 0 0 11735 0 0 11645 0 0 11604 0 0 11598 0 0 11635 0 0 11658 0 0 11834 0 0 11819 0 0 11709 0 0 11543 0 0 11696 0 0 11666 0 0 11828 0 0 11570 0 0 11667 0 0 11698 0 0 11764 0 0 11569 0 0 11398 0 0 11680 0 0 11725 0 0 11641 0 0 11606 0 0 11633 0 0 11782 0 0 11646 0 0 5915 0 0 88 0 0 23 0 0 15 0 0 14 0 0 11 0 0 9 0 0 9 0 0 7 0 0 6 0 0 
1 0 0 5 0 0 8 0 0 7 0 0 5 0 0 8 0 0 16 0 0 21 0 0 25 0 0 95 0 0 5923 0 0 11625 0 0 11773 0 0 11821 0 0 11699 0 0 11546 0 0 11570 0 0 11670 0 0 11704 0 0 11773 0 0 11577 0 0 11599 0 0 11500 0 0 11551 0 0 11439 0 0 11632 0 0 11727 0 0 11697 0 0 11623 0 0 11736 0 0 11734 0 0 11644 0 0 11889 0 0 11586 0 0 11603 0 0 11641 0 0 11741 0 0 11772 0 0 11691 0 0 11705 0 0 11711 0 0 11719 0 0 11613 0 0 11754 0 0 11484 0 0 11737 0 0 11698 0 0 11623 0 0 11618 0 0 11604 0 0 5949 0 0 92 0 0 15 0 0 17 0 0 10 0 0 14 0 0 10 0 0 6 0 0 11 0 0 8 0 0 
8 0 0 10 0 0 5 0 0 0 0 0 1 0 0 9 0 0 18 0 0 16 0 0 27 0 0 93 0 0 5860 0 0 11623 0 0 11623 0 0 11634 0 0 11625 0 0 11753 0 0 11803 0 0 11692 0 0 11601 0 0 11711 0 0 11568 0 0 11656 0 0 11681 0 0 11602 0 0 11579 0 0 11550 0 0 11720 0 0 11781 0 0 11636 0 0 11762 0 0 11824 0 0 11641 0 0 11835 0 0 11672 0 0 11794 0 0 11792 0 0 11572 0 0 11560 0 0 11677 0 0 11670 0 0 11637 0 0 11514 0 0 11799 0 0 11637 0 0 11712 0 0 11742 0 0 11758 0 0 11716 0 0 11584 0 0 11451 0 0 5910 0 0 89 0 0 20 0 0 14 0 0 12 0 0 12 0 0 5 0 0 2 0 0 3 0 0 4 0 0 
3 0 0 8 0 0 5 0 0 5 0 0 7 0 0 13 0 0 15 0 0 17 0 0 16 0 0 106 0 0 5920 0 0 11551 0 0 11654 0 0 11547 0 0 11776 0 0 11584 0 0 11652 0 0 11650 0 0 11719 0 0 11816 0 0 11819 0 0 11557 0 0 11714 0 0 11499 0 0 11769 0 0 11904 0 0 11720 0 0 11891 0 0 11731 0 0 11818 0 0 11392 0 0 11749 0 0 11756 0 0 11600 0 0 11629 0 0 11618 0 0 11768 0 0 11838 0 0 11556 0 0 11582 0 0 11918 0 0 11551 0 0 11731 0 0 11767 0 0 11755 0 0 11716 0 0 11747 0 0 11765 0 0 11615 0 0 11498 0 0 5935 0 0 92 0 0 24 0 0 13 0 0 7 0 0 11 0 0 7 0 0 10 0 0 11 0 0 10 0 0 
0 0 0 2 0 0 5 0 0 5 0 0 6 0 0 7 0 0 7 0 0 10 0 0 15 0 0 97 0 0 5885 0 0 11405 0 0 11576 0 0 11688 0 0 11642 0 0 11652 0 0 11634 0 0 11682 0 0 11671 0 0 11648 0 0 11695 0 0 11583 0 0 11580 0 0 11776 0 0 11560 0 0 11680 0 0 11554 0 0 11763 0 0 11656 0 0 11620 0 0 11557 0 0 11727 0 0 11735 0 0 11648 0 0 11512 0 0 11638 0 0 11643 0 0 11760 0 0 11701 0 0 11725 0 0 11730 0 0 11675 0 0 11647 0 0 11559 0 0 11652 0 0 11662 0 0 11442 0 0 11713 0 0 11808 0 0 11644 0 0 5908 0 0 94 0 0 20 0 0 19 0 0 7 0 0 9 0 0 7 0 0 7 0 0 13 0 0 8 0 0 
4 0 0 8 0 0 2 0 0 6 0 0 8 0 0 12 0 0 9 0 0 14 0 0 25 0 0 100 0 0 5778 0 0 11755 0 0 11669 0 0 11690 0 0 11750 0 0 11588 0 0 11640 0 0 11714 0 0 11678 0 0 11819 0 0 11656 0 0 11532 0 0 11655 0 0 11592 0 0 11675 0 0 11672 0 0 11492 0 0 11780 0 0 11568 0 0 11503 0 0 11787 0 0 11653 0 0 11615 0 0 11564 0 0 11648 0 0 11687 0 0 11596 0 0 11666 0 0 11795 0 0 11547 0 0 11646 0 0 11717 0 0 11873 0 0 11878 0 0 11698 0 0 11666 0 0 11649 0 0 11746 0 0 11694 0 0 11839 0 0 5884 0 0 93 0 0 17 0 0 18 0 0 13 0 0 11 0 0 5 0 0 6 0 0 5 0 0 5 0 0 
2 0 0 7 0 0 10 0 0 5 0 0 7 0 0 9 0 0 10 0 0 21 0 0 25 0 0 95 0 0 5840 0 0 11575 0 0 11695 0 0 11670 0 0 11792 0 0 11652 0 0 11555 0 0 11650 0 0 11616 0 0 11628 0 0 11813 0 0 11602 0 0 11729 0 0 11611 0 0 11555 0 0 11590 0 0 11725 0 0 11696 0 0 11468 0 0 11568 0 0 11649 0 0 11740 0 0 11611 0 0 11675 0 0 11850 0 0 11873 0 0 11930 0 0 11822 0 0 11776 0 0 11733 0 0 11652 0 0 11715 0 0 11512 0 0 11595 0 0 11892 0 0 11647 0 0 11683 0 0 11680 0 0 11723 0 0 11595 0 0 5856 0 0 99 0 0 24 0 0 15 0 0 13 0 0 9 0 0 7 0 0 5 0 0 6 0 0 2 0 0 
4 0 0 4 0 0 3 0 0 4 0 0 5 0 0 10 0 0 15 0 0 15 0 0 24 0 0 88 0 0 5887 0 0 11375 0 0 11743 0 0 11598 0 0 11676 0 0 11408 0 0 11697 0 0 11688 0 0 11827 0 0 11673 0 0 11736 0 0 11590 0 0 11649 0 0 11732 0 0 11804 0 0 11593 0 0 11558 0 0 11705 0 0 11690 0 0 11670 0 0 11690 0 0 11767 0 0 11513 0 0 11778 0 0 11825 0 0 11579 0 0 11688 0 0 11700 0 0 11779 0 0 11535 0 0 11498 0 0 11618 0 0 11769 0 0 11626 0 0 11745 0 0 11712 0 0 11747 0 0 11682 0 0 11678 0 0 11644 0 0 5821 0 0 88 0 0 13 0 0 12 0 0 9 0 0 13 0 0 4 0 0 7 0 0 7 0 0 4 0 0 
3 0 0 2 0 0 6 0 0 9 0 0 8 0 0 13 0 0 16 0 0 11 0 0 9 0 0 72 0 0 5705 0 0 11584 0 0 11645 0 0 11652 0 0 11626 0 0 11587 0 0 11824 0 0 11840 0 0 11762 0 0 11542 0 0 11689 0 0 11727 0 0 11629 0 0 11577 0 0 11599 0 0 11928 0 0 11573 0 0 11574 0 0 11589 0 0 11596 0 0 11561 0 0 11739 0 0 11671 0 0 11562 0 0 11641 0 0 11684 0 0 11573 0 0 11724 0 0 11768 0 0 11643 0 0 11630 0 0 11738 0 0 11678 0 0 11694 0 0 11831 0 0 11751 0 0 11366 0 0 11822 0 0 11840 0 0 11674 0 0 5867 0 0 87 0 0 21 0 0 11 0 0 12 0 0 10 0 0 8 0 0 4 0 0 3 0 0 6 0 0 
1 0 0 4 0 0 5 0 0 11 0 0 10 0 0 12 0 0 10 0 0 12 0 0 16 0 0 86 0 0 5834 0 0 11833 0 0 11613 0 0 11542 0 0 11514 0 0 11833 0 0 11644 0 0 11719 0 0 11675 0 0 11810 0 0 11606 0 0 11794 0 0 11669 0 0 11647 0 0 11722 0 0 11614 0 0 11549 0 0 11740 0 0 11643 0 0 11493 0 0 11522 0 0 11691 0 0 11694 0 0 11660 0 0 11673 0 0 11737 0 0 11646 0 0 11726 0 0 11760 0 0 11784 0 0 11528 0 0 11598 0 0 11522 0 0 11763 0 0 11552 0 0 11637 0 0 11753 0 0 11730 0 0 11584 0 0 11413 0 0 5856 0 0 85 0 0 10 0 0 15 0 0 12 0 0 10 0 0 5 0 0 9 0 0 2 0 0 4 0 0 
4 0 0 8 0 0 12 0 0 8 0 0 9 0 0 7 0 0 6 0 0 9 0 0 15 0 0 69 0 0 5811 0 0 11668 0 0 11637 0 0 11679 0 0 11738 0 0 11641 0 0 11592 0 0 11740 0 0 11707 0 0 11726 0 0 11720 0 0 11637 0 0 11599 0 0 11503 0 0 11615 0 0 11687 0 0 11619 0 0 11697 0 0 11595 0 0 11725 0 0 11651 0 0 11718 0 0 11730 0 0 11832 0 0 11712 0 0 11587 0 0 11779 0 0 11772 0 0 11712 0 0 11663 0 0 11594 0 0 11766 0 0 11782 0 0 11761 0 0 11722 0 0 11698 0 0 11785 0 0 11771 0 0 11587 0 0 11543 0 0 5936 0 0 84 0 0 15 0 0 12 0 0 9 0 0 9 0 0 5 0 0 2 0 0 5 0 0 3 0 0 
1 0 0 7 0 0 7 0 0 3 0 0 6 0 0 8 0 0 14 0 0 12 0 0 19 0 0 77 0 0 5787 0 0 11585 0 0 11684 0 0 11590 0 0 11724 0 0 11773 0 0 11674 0 0 11655 0 0 11715 0 0 11791 0 0 11658 0 0 11705 0 0 11696 0 0 11722 0 0 11723 0 0 11554 0 0 11740 0 0 11665 0 0 11694 0 0 11655 0 0 11516 0 0 11652 0 0 11782 0 0 11770 0 0 11505 0 0 11802 0 0 11777 0 0 11689 0 0 11897 0 0 11758 0 0 11642 0 0 11652 0 0 11488 0 0 11851 0 0 11742 0 0 11499 0 0 11539 0 0 11605 0 0 11666 0 0 11701 0 0 5801 0 0 95 0 0 15 0 0 11 0 0 8 0 0 8 0 0 9 0 0 3 0 0 2 0 0 5 0 0 
2 0 0 4 0 0 2 0 0 5 0 0 7 0 0 7 0 0 10 0 0 10 0 0 13 0 0 83 0 0 5739 0 0 11406 0 0 11584 0 0 11747 0 0 11640 0 0 11693 0 0 11553 0 0 11725 0 0 11618 0 0 11681 0 0 11424 0 0 11561 0 0 11429 0 0 11627 0 0 11582 0 0 11504 0 0 11544 0 0 11599 0 0 11643 0 0 11705 0 0 11725 0 0 11539 0 0 11582 0 0 11672 0 0 11750 0 0 11428 0 0 11564 0 0 11581 0 0 11467 0 0 11561 0 0 11608 0 0 11710 0 0 11456 0 0 11572 0 0 11634 0 0 11595 0 0 11622 0 0 11670 0 0 11614 0 0 11494 0 0 5847 0 0 88 0 0 15 0 0 12 0 0 11 0 0 7 0 0 7 0 0 3 0 0 7 0 0 4 0 0 
2 0 0 3 0 0 1 0 0 6 0 0 6 0 0 6 0 0 8 0 0 8 0 0 8 0 0 57 0 0 2950 0 0 5769 0 0 5939 0 0 5747 0 0 5861 0 0 5833 0 0 5895 0 0 5902 0 0 5878 0 0 5902 0 0 5867 0 0 5900 0 0 5877 0 0 5767 0 0 5788 0 0 5881 0 0 5788 0 0 5794 0 0 5911 0 0 5798 0 0 5872 0 0 5722 0 0 5847 0 0 5758 0 0 5836 0 0 5770 0 0 5721 0 0 5795 0 0 5876 0 0 5875 0 0 5770 0 0 5840 0 0 5792 0 0 5911 0 0 5951 0 0 5891 0 0 5895 0 0 5752 0 0 5851 0 0 5833 0 0 2918 0 0 48 0 0 13 0 0 9 0 0 14 0 0 7 0 0 6 0 0 4 0 0 4 0 0 5 0 0 
0 0 0 1 0 0 0 0 0 2 0 0 4 0 0 7 0 0 6 0 0 4 0 0 8 0 0 13 0 0 47 0 0 93 0 0 81 0 0 77 0 0 108 0 0 72 0 0 84 0 0 95 0 0 84 0 0 89 0 0 90 0 0 98 0 0 93 0 0 96 0 0 88 0 0 90 0 0 82 0 0 85 0 0 106 0 0 94 0 0 94 0 0 104 0 0 94 0 0 86 0 0 96 0 0 82 0 0 94 0 0 91 0 0 89 0 0 92 0 0 89 0 0 79 0 0 108 0 0 89 0 0 89 0 0 85 0 0 66 0 0 77 0 0 80 0 0 85 0 0 52 0 0 15 0 0 11 0 0 7 0 0 8 0 0 12 0 0 6 0 0 2 0 0 4 0 0 6 0 0 
1 0 0 2 0 0 2 0 0 1 0 0 7 0 0 6 0 0 9 0 0 10 0 0 9 0 0 14 0 0 11 0 0 22 0 0 17 0 0 17 0 0 17 0 0 20 0 0 28 0 0 22 0 0 15 0 0 11 0 0 26 0 0 21 0 0 22 0 0 22 0 0 19 0 0 20 0 0 34 0 0 31 0 0 32 0 0 19 0 0 16 0 0 19 0 0 16 0 0 21 0 0 14 0 0 18 0 0 30 0 0 27 0 0 16 0 0 23 0 0 20 0 0 20 0 0 25 0 0 21 0 0 13 0 0 14 0 0 17 0 0 13 0 0 22 0 0 11 0 0 16 0 0 12 0 0 8 0 0 8 0 0 7 0 0 8 0 0 7 0 0 6 0 0 3 0 0 2 0 0 
1 0 0 6 0 0 5 0 0 8 0 0 3 0 0 8 0 0 5 0 0 5 0 0 7 0 0 5 0 0 10 0 0 21 0 0 13 0 0 19 0 0 14 0 0 14 0 0 13 0 0 17 0 0 11 0 0 10 0 0 15 0 0 16 0 0 19 0 0 20 0 0 16 0 0 17 0 0 19 0 0 26 0 0 15 0 0 14 0 0 13 0 0 13 0 0 13 0 0 8 0 0 13 0 0 23 0 0 23 0 0 20 0 0 12 0 0 12 0 0 19 0 0 15 0 0 15 0 0 16 0 0 7 0 0 11 0 0 13 0 0 10 0 0 15 0 0 12 0 0 8 0 0 8 0 0 9 0 0 6 0 0 3 0 0 4 0 0 7 0 0 8 0 0 2 0 0 2 0 0 
3 0 0 4 0 0 5 0 0 3 0 0 8 0 0 4 0 0 7 0 0 5 0 0 6 0 0 7 0 0 14 0 0 12 0 0 12 0 0 10 0 0 5 0 0 11 0 0 11 0 0 12 0 0 6 0 0 7 0 0 11 0 0 18 0 0 15 0 0 21 0 0 15 0 0 17 0 0 11 0 0 16 0 0 15 0 0 11 0 0 14 0 0 13 0 0 12 0 0 9 0 0 12 0 0 17 0 0 17 0 0 13 0 0 15 0 0 10 0 0 9 0 0 14 0 0 10 0 0 12 0 0 8 0 0 8 0 0 10 0 0 9 0 0 15 0 0 15 0 0 5 0 0 6 0 0 9 0 0 7 0 0 5 0 0 4 0 0 8 0 0 7 0 0 10 0 0 3 0 0 
2 0 0 10 0 0 8 0 0 9 0 0 7 0 0 8 0 0 4 0 0 4 0 0 5 0 0 7 0 0 9 0 0 8 0 0 7 0 0 6 0 0 8 0 0 14 0 0 7 0 0 10 0 0 8 0 0 9 0 0 13 0 0 8 0 0 11 0 0 17 0 0 12 0 0 10 0 0 10 0 0 10 0 0 8 0 0 12 0 0 16 0 0 12 0 0 10 0 0 11 0 0 16 0 0 15 0 0 16 0 0 6 0 0 16 0 0 12 0 0 10 0 0 11 0 0 9 0 0 9 0 0 14 0 0 10 0 0 11 0 0 8 0 0 9 0 0 9 0 0 3 0 0 3 0 0 3 0 0 5 0 0 1 0 0 6 0 0 5 0 0 4 0 0 4 0 0 8 0 0 
1 0 0 5 0 0 3 0 0 7 0 0 5 0 0 4 0 0 5 0 0 3 0 0 4 0 0 6 0 0 6 0 0 4 0 0 7 0 0 5 0 0 11 0 0 12 0 0 9 0 0 7 0 0 9 0 0 12 0 0 11 0 0 10 0 0 10 0 0 9 0 0 9 0 0 14 0 0 7 0 0 3 0 0 9 0 0 14 0 0 14 0 0 9 0 0 11 0 0 12 0 0 15 0 0 16 0 0 13 0 0 6 0 0 12 0 0 6 0 0 13 0 0 10 0 0 6 0 0 8 0 0 9 0 0 11 0 0 8 0 0 6 0 0 8 0 0 11 0 0 6 0 0 3 0 0 5 0 0 4 0 0 4 0 0 4 0 0 4 0 0 4 0 0 5 0 0 1 0 0 
2 0 0 3 0 0 3 0 0 3 0 0 2 0 0 4 0 0 4 0 0 2 0 0 4 0 0 4 0 0 7 0 0 2 0 0 3 0 0 8 0 0 10 0 0 8 0 0 5 0 0 6 0 0 10 0 0 12 0 0 12 0 0 7 0 0 9 0 0 3 0 0 9 0 0 13 0 0 8 0 0 2 0 0 10 0 0 18 0 0 8 0 0 10 0 0 10 0 0 7 0 0 12 0 0 12 0 0 10 0 0 6 0 0 13 0 0 8 0 0 2 0 0 11 0 0 5 0 0 5 0 0 7 0 0 10 0 0 12 0 0 9 0 0 4 0 0 12 0 0 9 0 0 3 0 0 6 0 0 5 0 0 4 0 0 4 0 0 5 0 0 6 0 0 3 0 0 7 0 0 
2 0 0 1 0 0 0 0 0 0 0 0 2 0 0 7 0 0 3 0 0 2 0 0 5 0 0 4 0 0 1 0 0 3 0 0 5 0 0 6 0 0 4 0 0 6 0 0 8 0 0 2 0 0 8 0 0 7 0 0 12 0 0 7 0 0 9 0 0 5 0 0 9 0 0 9 0 0 9 0 0 6 0 0 10 0 0 9 0 0 10 0 0 7 0 0 6 0 0 8 0 0 10 0 0 8 0 0 11 0 0 6 0 0 10 0 0 9 0 0 4 0 0 6 0 0 8 0 0 7 0 0 5 0 0 8 0 0 11 0 0 6 0 0 6 0 0 11 0 0 10 0 0 1 0 0 4 0 0 8 0 0 6 0 0 4 0 0 7 0 0 2 0 0 3 0 0 2 0 0 
0 0 0 2 0 0 2 0 0 2 0 0 4 0 0 4 0 0 3 0 0 1 0 0 5 0 0 5 0 0 3 0 0 2 0 0 5 0 0 6 0 0 7 0 0 4 0 0 5 0 0 3 0 0 8 0 0 10 0 0 7 0 0 9 0 0 7 0 0 10 0 0 6 0 0 7 0 0 7 0 0 8 0 0 11 0 0 11 0 0 7 0 0 6 0 0 3 0 0 6 0 0 8 0 0 9 0 0 6 0 0 11 0 0 6 0 0 9 0 0 6 0 0 2 0 0 4 0 0 8 0 0 4 0 0 15 0 0 9 0 0 8 0 0 5 0 0 9 0 0 5 0 0 7 0 0 2 0 0 3 0 0 8 0 0 2 0 0 3 0 0 3 0 0 2 0 0 2 0 0 
