P3
# This is a dose file slice at depth 49 of 100
60 60
# now we give the maximum value of the RGB coordinates.
34334
0 0 0 0 0 0 0 0 0 0 0 0 0 0 0 0 0 0 0 0 0 0 0 0 0 0 0 0 0 0 0 0 0 0 0 0 0 0 0 0 0 0 0 0 0 0 0 0 0 0 0 0 0 0 0 0 0 0 0 0 0 0 0 0 0 0 0 0 0 0 0 0 0 0 0 0 0 0 0 0 0 0 0 0 0 0 0 0 0 0 0 0 0 0 0 0 0 0 0 0 0 0 0 0 0 0 0 0 0 0 0 0 0 0 0 0 0 0 0 0 0 0 0 0 0 0 0 0 0 0 0 0 0 0 0 0 0 0 0 0 0 0 0 0 0 0 0 0 0 0 0 0 0 0 0 0 0 0 0 0 0 0 0 0 0 0 0 0 0 0 0 0 0 0 0 0 0 0 0 0 
0 0 0 0 0 0 0 0 0 0 0 0 0 0 0 0 0 0 0 0 0 0 0 0 0 0 0 0 0 0 0 0 0 0 0 0 0 0 0 0 0 0 0 0 0 0 0 0 0 0 0 0 0 0 0 0 0 0 0 0 0 0 0 0 0 0 0 0 0 0 0 0 0 0 0 0 0 0 0 0 0 0 0 0 0 0 0 0 0 0 0 0 0 0 0 0 0 0 0 0 0 0 0 0 0 0 0 0 0 0 0 0 0 0 0 0 0 0 0 0 0 0 0 0 0 0 0 0 0 0 0 0 0 0 0 0 0 0 0 0 0 0 0 0 0 0 0 0 0 0 0 0 0 0 0 0 0 0 0 0 0 0 0 0 0 0 0 0 0 0 0 0 0 0 0 0 0 0 0 0 
0 0 0 0 0 0 0 0 0 0 0 0 0 0 0 0 0 0 0 0 0 0 0 0 0 0 0 0 0 0 0 0 0 0 0 0 0 0 0 0 0 0 0 0 0 0 0 0 0 0 0 0 0 0 0 0 0 0 0 0 0 0 0 0 0 0 0 0 0 0 0 0 0 0 0 0 0 0 0 0 0 0 0 0 0 0 0 0 0 0 0 0 0 0 0 0 0 0 0 0 0 0 0 0 0 0 0 0 0 0 0 0 0 0 0 0 0 0 0 0 0 0 0 0 0 0 0 0 0 0 0 0 0 0 0 0 0 0 0 0 0 0 0 0 0 0 0 0 0 0 0 0 0 0 0 0 0 0 0 0 0 0 0 0 0 0 0 0 0 0 0 0 0 0 0 0 0 0 0 0 
0 0 0 0 0 0 0 0 0 0 0 0 0 0 0 0 0 0 0 0 0 0 0 0 0 0 0 0 0 0 0 0 0 0 0 0 0 0 0 0 0 0 0 0 0 0 0 0 0 0 0 0 0 0 0 0 0 0 0 0 0 0 0 0 0 0 0 0 0 0 0 0 0 0 0 0 0 0 0 0 0 0 0 0 0 0 0 0 0 0 0 0 0 0 0 0 0 0 0 0 0 0 0 0 0 0 0 0 0 0 0 0 0 0 0 0 0 0 0 0 0 0 0 0 0 0 0 0 0 0 0 0 0 0 0 0 0 0 0 0 0 0 0 0 0 0 0 0 0 0 0 0 0 0 0 0 0 0 0 0 0 0 0 0 0 0 0 0 0 0 0 0 0 0 0 0 0 0 0 0 
0 0 0 0 0 0 0 0 0 0 0 0 0 0 0 0 0 0 0 0 0 0 0 0 0 0 0 0 0 0 0 0 0 0 0 0 0 0 0 0 0 0 0 0 0 0 0 0 0 0 0 0 0 0 0 0 0 0 0 0 0 0 0 0 0 0 0 0 0 0 0 0 0 0 0 0 0 0 0 0 0 0 0 0 0 0 0 0 0 0 0 0 0 0 0 0 0 0 0 0 0 0 0 0 0 0 0 0 0 0 0 0 0 0 0 0 0 0 0 0 0 0 0 0 0 0 0 0 0 0 0 0 0 0 0 0 0 0 0 0 0 0 0 0 0 0 0 0 0 0 0 0 0 0 0 0 0 0 0 0 0 0 0 0 0 0 0 0 0 0 0 0 0 0 0 0 0 0 0 0 
0 0 0 0 0 0 0 0 0 0 0 0 0 0 0 0 0 0 0 0 0 0 0 0 0 0 0 0 0 0 0 0 0 0 0 0 0 0 0 0 0 0 0 0 0 0 0 0 0 0 0 0 0 0 0 0 0 0 0 0 0 0 0 0 0 0 0 0 0 0 0 0 0 0 0 0 0 0 0 0 0 0 0 0 0 0 0 0 0 0 0 0 0 0 0 0 0 0 0 0 0 0 0 0 0 0 0 0 0 0 0 0 0 0 0 0 0 0 0 0 0 0 0 0 0 0 0 0 0 0 0 0 0 0 0 0 0 0 0 0 0 0 0 0 0 0 0 0 0 0 0 0 0 0 0 0 0 0 0 0 0 0 0 0 0 0 0 0 0 0 0 0 0 0 0 0 0 0 0 0 
0 0 0 0 0 0 0 0 0 0 0 0 0 0 0 0 0 0 0 0 0 0 0 0 0 0 0 0 0 0 0 0 0 0 0 0 0 0 0 0 0 0 0 0 0 0 0 0 0 0 0 0 0 0 0 0 0 0 0 0 0 0 0 0 0 0 0 0 0 0 0 0 0 0 0 0 0 0 0 0 0 0 0 0 0 0 0 0 0 0 0 0 0 0 0 0 0 0 0 0 0 0 0 0 0 0 0 0 0 0 0 0 0 0 0 0 0 0 0 0 0 0 0 0 0 0 0 0 0 0 0 0 0 0 0 0 0 0 0 0 0 0 0 0 0 0 0 0 0 0 0 0 0 0 0 0 0 0 0 0 0 0 0 0 0 0 0 0 0 0 0 0 0 0 0 0 0 0 0 0 
0 0 0 0 0 0 0 0 0 0 0 0 0 0 0 0 0 0 0 0 0 0 0 0 0 0 0 0 0 0 0 0 0 0 0 0 0 0 0 0 0 0 0 0 0 0 0 0 0 0 0 0 0 0 0 0 0 0 0 0 0 0 0 0 0 0 0 0 0 0 0 0 0 0 0 0 0 0 0 0 0 0 0 0 0 0 0 0 0 0 0 0 0 0 0 0 0 0 0 0 0 0 0 0 0 0 0 0 0 0 0 0 0 0 0 0 0 0 0 0 0 0 0 0 0 0 0 0 0 0 0 0 0 0 0 0 0 0 0 0 0 0 0 0 0 0 0 0 0 0 0 0 0 0 0 0 0 0 0 0 0 0 0 0 0 0 0 0 0 0 0 0 0 0 0 0 0 0 0 0 
0 0 0 0 0 0 0 0 0 0 0 0 0 0 0 0 0 0 0 0 0 0 0 0 0 0 0 0 0 0 0 0 0 0 0 0 0 0 0 0 0 0 0 0 0 0 0 0 0 0 0 0 0 0 0 0 0 0 0 0 0 0 0 0 0 0 0 0 0 0 0 0 0 0 0 0 0 0 0 0 0 0 0 0 0 0 0 0 0 0 0 0 0 0 0 0 0 0 0 0 0 0 0 0 0 0 0 0 0 0 0 0 0 0 0 0 0 0 0 0 0 0 0 0 0 0 0 0 0 0 0 0 0 0 0 0 0 0 0 0 0 0 0 0 0 0 0 0 0 0 0 0 0 0 0 0 0 0 0 0 0 0 0 0 0 0 0 0 0 0 0 0 0 0 0 0 0 0 0 0 
0 0 0 0 0 0 0 0 0 0 0 0 0 0 0 0 0 0 0 0 0 0 0 0 0 0 0 0 0 0 0 0 0 0 0 0 0 0 0 0 0 0 0 0 0 0 0 0 0 0 0 0 0 0 0 0 0 0 0 0 0 0 0 0 0 0 0 0 0 0 0 0 0 0 0 0 0 0 0 0 0 0 0 0 0 0 0 0 0 0 0 0 0 0 0 0 0 0 0 0 0 0 0 0 0 0 0 0 0 0 0 0 0 0 0 0 0 0 0 0 0 0 0 0 0 0 0 0 0 0 0 0 0 0 0 0 0 0 0 0 0 0 0 0 0 0 0 0 0 0 0 0 0 0 0 0 0 0 0 0 0 0 0 0 0 0 0 0 0 0 0 0 0 0 0 0 0 0 0 0 
0 0 0 0 0 0 0 0 0 0 0 0 0 0 0 0 0 0 0 0 0 0 0 0 0 0 0 0 0 0 1968 0 0 3979 0 0 3943 0 0 4000 0 0 4008 0 0 4018 0 0 4146 0 0 3892 0 0 3942 0 0 3894 0 0 3954 0 0 4114 0 0 4029 0 0 3992 0 0 4041 0 0 3911 0 0 3946 0 0 3988 0 0 3991 0 0 4074 0 0 3968 0 0 4076 0 0 4032 0 0 3987 0 0 3999 0 0 4110 0 0 4030 0 0 4032 0 0 3993 0 0 4157 0 0 4044 0 0 4038 0 0 4101 0 0 4020 0 0 4018 0 0 3990 0 0 4080 0 0 4115 0 0 4026 0 0 4138 0 0 1937 0 0 0 0 0 0 0 0 0 0 0 0 0 0 0 0 0 0 0 0 0 0 0 0 0 0 0 0 0 
0 0 0 0 0 0 0 0 0 0 0 0 0 0 0 0 0 0 0 0 0 0 0 0 0 0 0 0 0 0 3940 0 0 8088 0 0 8076 0 0 8083 0 0 8054 0 0 7985 0 0 8124 0 0 8050 0 0 8081 0 0 8130 0 0 8209 0 0 8062 0 0 8007 0 0 8068 0 0 8039 0 0 8112 0 0 8098 0 0 7976 0 0 8007 0 0 8011 0 0 8075 0 0 7851 0 0 8077 0 0 8182 0 0 7932 0 0 8115 0 0 7892 0 0 7867 0 0 8006 0 0 7950 0 0 8051 0 0 7919 0 0 7936 0 0 8085 0 0 8052 0 0 8119 0 0 8278 0 0 7948 0 0 8129 0 0 8105 0 0 4065 0 0 0 0 0 0 0 0 0 0 0 0 0 0 0 0 0 0 0 0 0 0 0 0 0 0 0 0 0 
0 0 0 0 0 0 0 0 0 0 0 0 0 0 0 0 0 0 0 0 0 0 0 0 0 0 0 0 0 0 3969 0 0 8116 0 0 8104 0 0 8054 0 0 7938 0 0 8042 0 0 7981 0 0 7960 0 0 8060 0 0 7903 0 0 7938 0 0 8016 0 0 7952 0 0 8141 0 0 8003 0 0 7908 0 0 7866 0 0 8043 0 0 8027 0 0 8025 0 0 8068 0 0 8124 0 0 8144 0 0 8043 0 0 7976 0 0 7956 0 0 8048 0 0 8088 0 0 8120 0 0 8004 0 0 8069 0 0 8012 0 0 8130 0 0 8139 0 0 8001 0 0 8069 0 0 8090 0 0 7923 0 0 7864 0 0 8036 0 0 4091 0 0 0 0 0 0 0 0 0 0 0 0 0 0 0 0 0 0 0 0 0 0 0 0 0 0 0 0 0 
0 0 0 0 0 0 0 0 0 0 0 0 0 0 0 0 0 0 0 0 0 0 0 0 0 0 0 0 0 0 3892 0 0 8122 0 0 7887 0 0 7921 0 0 7965 0 0 8058 0 0 8229 0 0 8013 0 0 8065 0 0 8082 0 0 8036 0 0 7921 0 0 7933 0 0 8184 0 0 7958 0 0 8046 0 0 7792 0 0 8219 0 0 7932 0 0 8015 0 0 8011 0 0 8038 0 0 8042 0 0 8001 0 0 8069 0 0 7997 0 0 8004 0 0 7890 0 0 8017 0 0 7963 0 0 8115 0 0 8004 0 0 8143 0 0 7967 0 0 8020 0 0 8140 0 0 7941 0 0 8210 0 0 8046 0 0 7981 0 0 4111 0 0 0 0 0 0 0 0 0 0 0 0 0 0 0 0 0 0 0 0 0 0 0 0 0 0 0 0 0 
0 0 0 0 0 0 0 0 0 0 0 0 0 0 0 0 0 0 0 0 0 0 0 0 0 0 0 0 0 0 3954 0 0 8047 0 0 7930 0 0 8027 0 0 8031 0 0 8033 0 0 8038 0 0 8117 0 0 7923 0 0 8054 0 0 7978 0 0 8215 0 0 7957 0 0 8119 0 0 7996 0 0 8029 0 0 8014 0 0 8066 0 0 8001 0 0 8050 0 0 7943 0 0 8102 0 0 7995 0 0 8083 0 0 7931 0 0 8154 0 0 8125 0 0 8048 0 0 7968 0 0 8068 0 0 8016 0 0 8007 0 0 8088 0 0 7962 0 0 7985 0 0 8123 0 0 7993 0 0 8110 0 0 8001 0 0 7947 0 0 3963 0 0 0 0 0 0 0 0 0 0 0 0 0 0 0 0 0 0 0 0 0 0 0 0 0 0 0 0 0 
0 0 0 0 0 0 0 0 0 0 0 0 0 0 0 0 0 0 0 0 0 0 0 0 0 0 0 0 0 0 3931 0 0 7883 0 0 7910 0 0 8013 0 0 7984 0 0 8059 0 0 8119 0 0 7912 0 0 8003 0 0 7927 0 0 8089 0 0 7833 0 0 8017 0 0 7961 0 0 7817 0 0 7977 0 0 7935 0 0 7985 0 0 8112 0 0 8012 0 0 8109 0 0 8035 0 0 7973 0 0 7973 0 0 7889 0 0 8085 0 0 7927 0 0 7983 0 0 7963 0 0 8102 0 0 8061 0 0 8135 0 0 7945 0 0 8006 0 0 8071 0 0 7815 0 0 8051 0 0 8096 0 0 7928 0 0 7876 0 0 3999 0 0 0 0 0 0 0 0 0 0 0 0 0 0 0 0 0 0 0 0 0 0 0 0 0 0 0 0 0 
0 0 0 0 0 0 0 0 0 0 0 0 0 0 0 0 0 0 0 0 0 0 0 0 0 0 0 0 0 0 3948 0 0 7944 0 0 7940 0 0 8007 0 0 7985 0 0 8035 0 0 8125 0 0 8050 0 0 8129 0 0 8209 0 0 8007 0 0 7904 0 0 8068 0 0 7990 0 0 8031 0 0 8088 0 0 8115 0 0 8074 0 0 8153 0 0 8107 0 0 8100 0 0 8005 0 0 8024 0 0 7967 0 0 8065 0 0 8081 0 0 8108 0 0 7993 0 0 7988 0 0 7966 0 0 8013 0 0 8011 0 0 7910 0 0 7938 0 0 8124 0 0 7891 0 0 7970 0 0 8179 0 0 8095 0 0 7998 0 0 4020 0 0 0 0 0 0 0 0 0 0 0 0 0 0 0 0 0 0 0 0 0 0 0 0 0 0 0 0 0 
0 0 0 0 0 0 0 0 0 0 0 0 0 0 0 0 0 0 0 0 0 0 0 0 0 0 0 0 0 0 3985 0 0 8220 0 0 7935 0 0 8040 0 0 8162 0 0 8134 0 0 7971 0 0 7946 0 0 7925 0 0 7975 0 0 8069 0 0 8123 0 0 8006 0 0 7987 0 0 7914 0 0 8058 0 0 7891 0 0 8104 0 0 7929 0 0 7969 0 0 8255 0 0 8045 0 0 7957 0 0 7903 0 0 8042 0 0 7991 0 0 8131 0 0 8045 0 0 8025 0 0 7998 0 0 8164 0 0 8013 0 0 8177 0 0 7906 0 0 8000 0 0 8064 0 0 8047 0 0 8044 0 0 8182 0 0 8316 0 0 4044 0 0 0 0 0 0 0 0 0 0 0 0 0 0 0 0 0 0 0 0 0 0 0 0 0 0 0 0 0 
0 0 0 0 0 0 0 0 0 0 0 0 0 0 0 0 0 0 0 0 0 0 0 0 0 0 0 0 0 0 3986 0 0 7987 0 0 7947 0 0 7888 0 0 8051 0 0 7915 0 0 7983 0 0 8122 0 0 8032 0 0 8070 0 0 8008 0 0 8029 0 0 8002 0 0 7773 0 0 8051 0 0 8113 0 0 7997 0 0 8128 0 0 7870 0 0 7915 0 0 8039 0 0 8083 0 0 7954 0 0 8095 0 0 8099 0 0 8070 0 0 7918 0 0 8073 0 0 7909 0 0 7955 0 0 7916 0 0 7989 0 0 7898 0 0 8055 0 0 8010 0 0 8228 0 0 8020 0 0 7939 0 0 8046 0 0 7868 0 0 4141 0 0 0 0 0 0 0 0 0 0 0 0 0 0 0 0 0 0 0 0 0 0 0 0 0 0 0 0 0 
0 0 0 0 0 0 0 0 0 0 0 0 0 0 0 0 0 0 0 0 0 0 0 0 0 0 0 0 0 0 4014 0 0 8101 0 0 7958 0 0 7820 0 0 7998 0 0 7940 0 0 7974 0 0 7886 0 0 8141 0 0 7829 0 0 8024 0 0 7934 0 0 8039 0 0 8173 0 0 7974 0 0 8218 0 0 8069 0 0 7843 0 0 8126 0 0 7973 0 0 7893 0 0 8063 0 0 7936 0 0 8023 0 0 7982 0 0 7976 0 0 7904 0 0 7950 0 0 8146 0 0 7821 0 0 7990 0 0 8003 0 0 8286 0 0 7958 0 0 7935 0 0 8239 0 0 8228 0 0 8095 0 0 8221 0 0 8036 0 0 4002 0 0 0 0 0 0 0 0 0 0 0 0 0 0 0 0 0 0 0 0 0 0 0 0 0 0 0 0 0 
0 0 0 0 0 0 0 0 0 0 0 0 0 0 0 0 0 0 0 0 0 0 0 0 0 0 0 0 0 0 3962 0 0 8122 0 0 7968 0 0 8151 0 0 7951 0 0 7962 0 0 7861 0 0 7884 0 0 8009 0 0 8043 0 0 8012 0 0 8015 0 0 8116 0 0 7822 0 0 7890 0 0 7992 0 0 8002 0 0 7899 0 0 7918 0 0 7997 0 0 7944 0 0 7968 0 0 8015 0 0 8045 0 0 7883 0 0 8059 0 0 7944 0 0 8077 0 0 8221 0 0 7936 0 0 8089 0 0 8104 0 0 8107 0 0 8094 0 0 7914 0 0 7972 0 0 7877 0 0 7972 0 0 8086 0 0 7905 0 0 3963 0 0 0 0 0 0 0 0 0 0 0 0 0 0 0 0 0 0 0 0 0 0 0 0 0 0 0 0 0 
0 0 0 0 0 0 0 0 0 0 0 0 0 0 0 0 0 0 0 0 0 0 0 0 0 0 0 0 0 0 4076 0 0 8022 0 0 8088 0 0 8054 0 0 8075 0 0 7935 0 0 8021 0 0 7854 0 0 8019 0 0 8046 0 0 7889 0 0 7969 0 0 7793 0 0 8059 0 0 8062 0 0 8139 0 0 8094 0 0 7976 0 0 8045 0 0 8196 0 0 8047 0 0 7810 0 0 8020 0 0 7986 0 0 8060 0 0 8068 0 0 7958 0 0 7966 0 0 7946 0 0 8024 0 0 8014 0 0 8072 0 0 8123 0 0 8037 0 0 7839 0 0 7938 0 0 8161 0 0 8076 0 0 8069 0 0 7935 0 0 3983 0 0 0 0 0 0 0 0 0 0 0 0 0 0 0 0 0 0 0 0 0 0 0 0 0 0 0 0 0 
0 0 0 0 0 0 0 0 0 0 0 0 0 0 0 0 0 0 0 0 0 0 0 0 0 0 0 0 0 0 3960 0 0 8001 0 0 7883 0 0 8187 0 0 8050 0 0 8044 0 0 8062 0 0 8164 0 0 8048 0 0 8009 0 0 7913 0 0 7981 0 0 8074 0 0 7879 0 0 7858 0 0 8061 0 0 8223 0 0 8176 0 0 7976 0 0 7913 0 0 8023 0 0 7824 0 0 7988 0 0 8059 0 0 8081 0 0 8017 0 0 7836 0 0 8106 0 0 8061 0 0 8167 0 0 8095 0 0 7981 0 0 7925 0 0 7875 0 0 7939 0 0 7984 0 0 7930 0 0 7854 0 0 8050 0 0 8080 0 0 3974 0 0 0 0 0 0 0 0 0 0 0 0 0 0 0 0 0 0 0 0 0 0 0 0 0 0 0 0 0 
0 0 0 0 0 0 0 0 0 0 0 0 0 0 0 0 0 0 0 0 0 0 0 0 0 0 0 0 0 0 4007 0 0 7989 0 0 8137 0 0 8003 0 0 8006 0 0 8040 0 0 7904 0 0 8235 0 0 8039 0 0 8044 0 0 8002 0 0 7936 0 0 8136 0 0 7963 0 0 8104 0 0 8039 0 0 8104 0 0 8102 0 0 7942 0 0 7980 0 0 7821 0 0 8093 0 0 7992 0 0 8099 0 0 7910 0 0 8022 0 0 8152 0 0 7975 0 0 8020 0 0 8088 0 0 8252 0 0 7971 0 0 7908 0 0 8152 0 0 8193 0 0 7972 0 0 8006 0 0 7930 0 0 7953 0 0 7874 0 0 4041 0 0 0 0 0 0 0 0 0 0 0 0 0 0 0 0 0 0 0 0 0 0 0 0 0 0 0 0 0 
0 0 0 0 0 0 0 0 0 0 0 0 0 0 0 0 0 0 0 0 0 0 0 0 0 0 0 0 0 0 3945 0 0 8100 0 0 8040 0 0 8097 0 0 8009 0 0 8037 0 0 8181 0 0 8109 0 0 8024 0 0 7922 0 0 8038 0 0 8121 0 0 8071 0 0 7852 0 0 7824 0 0 8002 0 0 8075 0 0 8102 0 0 8169 0 0 8125 0 0 7964 0 0 8134 0 0 7877 0 0 8062 0 0 7896 0 0 7985 0 0 8005 0 0 8003 0 0 8113 0 0 7994 0 0 8119 0 0 8022 0 0 7943 0 0 8060 0 0 8019 0 0 8040 0 0 8063 0 0 8049 0 0 8014 0 0 8100 0 0 3931 0 0 0 0 0 0 0 0 0 0 0 0 0 0 0 0 0 0 0 0 0 0 0 0 0 0 0 0 0 
0 0 0 0 0 0 0 0 0 0 0 0 0 0 0 0 0 0 0 0 0 0 0 0 0 0 0 0 0 0 3971 0 0 8033 0 0 7933 0 0 8024 0 0 8121 0 0 8136 0 0 7983 0 0 8046 0 0 8079 0 0 8052 0 0 7996 0 0 8067 0 0 7919 0 0 7905 0 0 8042 0 0 7977 0 0 8078 0 0 7980 0 0 8090 0 0 8126 0 0 8064 0 0 8033 0 0 7984 0 0 8094 0 0 8198 0 0 7981 0 0 8050 0 0 7874 0 0 8099 0 0 8062 0 0 7921 0 0 8045 0 0 8157 0 0 8140 0 0 8127 0 0 8220 0 0 8012 0 0 8003 0 0 7960 0 0 8006 0 0 3918 0 0 0 0 0 0 0 0 0 0 0 0 0 0 0 0 0 0 0 0 0 0 0 0 0 0 0 0 0 
0 0 0 0 0 0 0 0 0 0 0 0 0 0 0 0 0 0 0 0 0 0 0 0 0 0 0 0 0 0 3902 0 0 7940 0 0 7962 0 0 8061 0 0 8057 0 0 8078 0 0 8005 0 0 8056 0 0 8104 0 0 7868 0 0 7974 0 0 7929 0 0 8197 0 0 8038 0 0 7970 0 0 8069 0 0 8121 0 0 8064 0 0 8028 0 0 7964 0 0 7972 0 0 8146 0 0 8000 0 0 8160 0 0 8029 0 0 7863 0 0 8086 0 0 7867 0 0 8096 0 0 7978 0 0 8167 0 0 7903 0 0 8085 0 0 8142 0 0 8045 0 0 8194 0 0 8065 0 0 8041 0 0 7974 0 0 8124 0 0 4031 0 0 0 0 0 0 0 0 0 0 0 0 0 0 0 0 0 0 0 0 0 0 0 0 0 0 0 0 0 
0 0 0 0 0 0 0 0 0 0 0 0 0 0 0 0 0 0 0 0 0 0 0 0 0 0 0 0 0 0 3953 0 0 8211 0 0 8162 0 0 8034 0 0 7982 0 0 8079 0 0 7940 0 0 7965 0 0 7859 0 0 7993 0 0 7929 0 0 7858 0 0 8033 0 0 7850 0 0 8030 0 0 8054 0 0 8046 0 0 8055 0 0 8013 0 0 8113 0 0 7976 0 0 7925 0 0 7925 0 0 8051 0 0 8114 0 0 7930 0 0 8028 0 0 8034 0 0 7901 0 0 7963 0 0 7916 0 0 8033 0 0 7971 0 0 8162 0 0 8055 0 0 8015 0 0 7964 0 0 8069 0 0 8090 0 0 8124 0 0 3993 0 0 0 0 0 0 0 0 0 0 0 0 0 0 0 0 0 0 0 0 0 0 0 0 0 0 0 0 0 
0 0 0 0 0 0 0 0 0 0 0 0 0 0 0 0 0 0 0 0 0 0 0 0 0 0 0 0 0 0 4007 0 0 8085 0 0 7960 0 0 8002 0 0 7991 0 0 7984 0 0 7948 0 0 8064 0 0 7914 0 0 8130 0 0 8011 0 0 8202 0 0 7979 0 0 7949 0 0 8124 0 0 8164 0 0 8202 0 0 7879 0 0 7839 0 0 8038 0 0 7991 0 0 7919 0 0 7817 0 0 8088 0 0 8006 0 0 8068 0 0 7964 0 0 8109 0 0 8034 0 0 7989 0 0 7973 0 0 7959 0 0 8239 0 0 7805 0 0 8023 0 0 7940 0 0 7856 0 0 8108 0 0 8060 0 0 8023 0 0 3954 0 0 0 0 0 0 0 0 0 0 0 0 0 0 0 0 0 0 0 0 0 0 0 0 0 0 0 0 0 
0 0 0 0 0 0 0 0 0 0 0 0 0 0 0 0 0 0 0 0 0 0 0 0 0 0 0 0 0 0 4096 0 0 8123 0 0 8132 0 0 7724 0 0 8006 0 0 7975 0 0 8102 0 0 8163 0 0 7956 0 0 8089 0 0 7983 0 0 7844 0 0 8048 0 0 8073 0 0 8067 0 0 7960 0 0 8176 0 0 7972 0 0 7934 0 0 8176 0 0 8134 0 0 7940 0 0 7923 0 0 8022 0 0 7817 0 0 8050 0 0 8001 0 0 8106 0 0 8068 0 0 8168 0 0 8079 0 0 7931 0 0 8080 0 0 8226 0 0 7915 0 0 7957 0 0 7914 0 0 8061 0 0 7997 0 0 8039 0 0 3946 0 0 0 0 0 0 0 0 0 0 0 0 0 0 0 0 0 0 0 0 0 0 0 0 0 0 0 0 0 
0 0 0 0 0 0 0 0 0 0 0 0 0 0 0 0 0 0 0 0 0 0 0 0 0 0 0 0 0 0 4035 0 0 7920 0 0 8217 0 0 8039 0 0 8058 0 0 8022 0 0 8063 0 0 8120 0 0 8145 0 0 7997 0 0 7981 0 0 8012 0 0 7887 0 0 8073 0 0 8024 0 0 8020 0 0 8096 0 0 7860 0 0 8212 0 0 8038 0 0 7968 0 0 8017 0 0 8029 0 0 7892 0 0 8065 0 0 8119 0 0 8057 0 0 8283 0 0 8078 0 0 7913 0 0 7862 0 0 7800 0 0 8037 0 0 7916 0 0 8058 0 0 7986 0 0 8121 0 0 7928 0 0 7938 0 0 8047 0 0 3936 0 0 0 0 0 0 0 0 0 0 0 0 0 0 0 0 0 0 0 0 0 0 0 0 0 0 0 0 0 
0 0 0 0 0 0 0 0 0 0 0 0 0 0 0 0 0 0 0 0 0 0 0 0 0 0 0 0 0 0 3847 0 0 8046 0 0 7984 0 0 7933 0 0 8107 0 0 7888 0 0 7989 0 0 8068 0 0 8022 0 0 7905 0 0 8050 0 0 8031 0 0 8123 0 0 7986 0 0 7942 0 0 7996 0 0 8121 0 0 8066 0 0 8163 0 0 7961 0 0 8032 0 0 8084 0 0 7951 0 0 8087 0 0 7955 0 0 8077 0 0 8141 0 0 7999 0 0 8070 0 0 8003 0 0 8021 0 0 7777 0 0 8084 0 0 7901 0 0 7985 0 0 7964 0 0 7877 0 0 7935 0 0 8041 0 0 8004 0 0 4021 0 0 0 0 0 0 0 0 0 0 0 0 0 0 0 0 0 0 0 0 0 0 0 0 0 0 0 0 0 
0 0 0 0 0 0 0 0 0 0 0 0 0 0 0 0 0 0 0 0 0 0 0 0 0 0 0 0 0 0 4045 0 0 7970 0 0 7976 0 0 8082 0 0 8064 0 0 7915 0 0 8023 0 0 8114 0 0 7999 0 0 8037 0 0 8023 0 0 7948 0 0 8022 0 0 8017 0 0 8174 0 0 8060 0 0 8186 0 0 7988 0 0 8093 0 0 7895 0 0 8106 0 0 8099 0 0 7901 0 0 8059 0 0 8159 0 0 8116 0 0 8064 0 0 8033 0 0 8110 0 0 8034 0 0 8042 0 0 8116 0 0 7835 0 0 7991 0 0 8082 0 0 8054 0 0 8087 0 0 7914 0 0 8032 0 0 8123 0 0 3921 0 0 0 0 0 0 0 0 0 0 0 0 0 0 0 0 0 0 0 0 0 0 0 0 0 0 0 0 0 
0 0 0 0 0 0 0 0 0 0 0 0 0 0 0 0 0 0 0 0 0 0 0 0 0 0 0 0 0 0 4044 0 0 7985 0 0 7841 0 0 8044 0 0 8093 0 0 8064 0 0 7913 0 0 8096 0 0 8152 0 0 7942 0 0 8004 0 0 8143 0 0 7920 0 0 8111 0 0 7860 0 0 8036 0 0 8078 0 0 8006 0 0 7931 0 0 8071 0 0 8178 0 0 8004 0 0 8007 0 0 7973 0 0 8087 0 0 8013 0 0 7891 0 0 8003 0 0 8020 0 0 8095 0 0 8150 0 0 8030 0 0 7970 0 0 7892 0 0 7945 0 0 7877 0 0 8123 0 0 7903 0 0 7864 0 0 7977 0 0 4014 0 0 0 0 0 0 0 0 0 0 0 0 0 0 0 0 0 0 0 0 0 0 0 0 0 0 0 0 0 
0 0 0 0 0 0 0 0 0 0 0 0 0 0 0 0 0 0 0 0 0 0 0 0 0 0 0 0 0 0 3903 0 0 7918 0 0 7928 0 0 8162 0 0 7906 0 0 7923 0 0 8279 0 0 8024 0 0 7921 0 0 7975 0 0 7971 0 0 7823 0 0 7904 0 0 8068 0 0 7952 0 0 7972 0 0 8003 0 0 7873 0 0 7921 0 0 8055 0 0 7922 0 0 8135 0 0 8006 0 0 7985 0 0 8027 0 0 8084 0 0 8195 0 0 7985 0 0 8045 0 0 8048 0 0 8089 0 0 7931 0 0 8112 0 0 8082 0 0 8137 0 0 8132 0 0 8058 0 0 7945 0 0 8020 0 0 8158 0 0 4035 0 0 0 0 0 0 0 0 0 0 0 0 0 0 0 0 0 0 0 0 0 0 0 0 0 0 0 0 0 
0 0 0 0 0 0 0 0 0 0 0 0 0 0 0 0 0 0 0 0 0 0 0 0 0 0 0 0 0 0 4010 0 0 8053 0 0 8015 0 0 7913 0 0 7905 0 0 7953 0 0 8153 0 0 7912 0 0 7973 0 0 7958 0 0 8019 0 0 7918 0 0 8184 0 0 7984 0 0 8090 0 0 8101 0 0 8073 0 0 7998 0 0 8041 0 0 7828 0 0 7842 0 0 7968 0 0 7920 0 0 7974 0 0 7959 0 0 8017 0 0 8185 0 0 7867 0 0 7854 0 0 7911 0 0 8049 0 0 8004 0 0 7959 0 0 8039 0 0 8033 0 0 8161 0 0 8145 0 0 8052 0 0 7925 0 0 8035 0 0 3956 0 0 0 0 0 0 0 0 0 0 0 0 0 0 0 0 0 0 0 0 0 0 0 0 0 0 0 0 0 
0 0 0 0 0 0 0 0 0 0 0 0 0 0 0 0 0 0 0 0 0 0 0 0 0 0 0 0 0 0 4085 0 0 7982 0 0 8009 0 0 8321 0 0 7987 0 0 8069 0 0 7962 0 0 7999 0 0 7949 0 0 7900 0 0 7870 0 0 8125 0 0 7977 0 0 8160 0 0 8187 0 0 8112 0 0 8103 0 0 8010 0 0 8010 0 0 7879 0 0 7988 0 0 8014 0 0 8024 0 0 8092 0 0 8015 0 0 7991 0 0 8108 0 0 7983 0 0 7884 0 0 8035 0 0 8050 0 0 8197 0 0 8091 0 0 8052 0 0 7905 0 0 7955 0 0 7999 0 0 7990 0 0 7924 0 0 8023 0 0 4094 0 0 0 0 0 0 0 0 0 0 0 0 0 0 0 0 0 0 0 0 0 0 0 0 0 0 0 0 0 
0 0 0 0 0 0 0 0 0 0 0 0 0 0 0 0 0 0 0 0 0 0 0 0 0 0 0 0 0 0 3990 0 0 7918 0 0 7921 0 0 8061 0 0 7962 0 0 8133 0 0 8077 0 0 7984 0 0 8183 0 0 8069 0 0 7935 0 0 7962 0 0 7983 0 0 8192 0 0 8002 0 0 8012 0 0 7886 0 0 8025 0 0 7822 0 0 7990 0 0 8157 0 0 8047 0 0 8116 0 0 8027 0 0 7993 0 0 7997 0 0 8113 0 0 7976 0 0 7981 0 0 8131 0 0 8069 0 0 8035 0 0 7975 0 0 7902 0 0 7918 0 0 7981 0 0 7968 0 0 8217 0 0 8203 0 0 8073 0 0 3995 0 0 0 0 0 0 0 0 0 0 0 0 0 0 0 0 0 0 0 0 0 0 0 0 0 0 0 0 0 
0 0 0 0 0 0 0 0 0 0 0 0 0 0 0 0 0 0 0 0 0 0 0 0 0 0 0 0 0 0 4095 0 0 8017 0 0 8077 0 0 8065 0 0 7892 0 0 7907 0 0 8077 0 0 8043 0 0 8046 0 0 7884 0 0 7907 0 0 8078 0 0 8101 0 0 7886 0 0 8036 0 0 7835 0 0 7937 0 0 7975 0 0 7993 0 0 8044 0 0 8093 0 0 8065 0 0 7999 0 0 7924 0 0 8020 0 0 7999 0 0 7948 0 0 8006 0 0 7941 0 0 8068 0 0 8084 0 0 7999 0 0 8032 0 0 8045 0 0 8004 0 0 8090 0 0 7926 0 0 8060 0 0 7934 0 0 8216 0 0 4150 0 0 0 0 0 0 0 0 0 0 0 0 0 0 0 0 0 0 0 0 0 0 0 0 0 0 0 0 0 
0 0 0 0 0 0 0 0 0 0 0 0 0 0 0 0 0 0 0 0 0 0 0 0 0 0 0 0 0 0 4037 0 0 8010 0 0 7829 0 0 8079 0 0 8010 0 0 7939 0 0 8035 0 0 7854 0 0 7897 0 0 8003 0 0 8051 0 0 8036 0 0 8247 0 0 7965 0 0 8051 0 0 7957 0 0 7981 0 0 7975 0 0 8003 0 0 7952 0 0 8007 0 0 7958 0 0 8107 0 0 8036 0 0 8279 0 0 8117 0 0 7965 0 0 8014 0 0 7927 0 0 7978 0 0 7912 0 0 7970 0 0 7884 0 0 7974 0 0 8039 0 0 7796 0 0 8063 0 0 7972 0 0 8075 0 0 8026 0 0 4064 0 0 0 0 0 0 0 0 0 0 0 0 0 0 0 0 0 0 0 0 0 0 0 0 0 0 0 0 0 
0 0 0 0 0 0 0 0 0 0 0 0 0 0 0 0 0 0 0 0 0 0 0 0 0 0 0 0 0 0 4030 0 0 7964 0 0 8104 0 0 8080 0 0 8189 0 0 8101 0 0 8209 0 0 7916 0 0 8065 0 0 8013 0 0 8027 0 0 8162 0 0 8050 0 0 8217 0 0 8082 0 0 8083 0 0 8055 0 0 7963 0 0 8027 0 0 7998 0 0 7969 0 0 8110 0 0 7909 0 0 8105 0 0 8001 0 0 8017 0 0 8039 0 0 8100 0 0 8043 0 0 8061 0 0 7990 0 0 8112 0 0 8041 0 0 7959 0 0 7907 0 0 8097 0 0 8112 0 0 8149 0 0 7900 0 0 8011 0 0 3989 0 0 0 0 0 0 0 0 0 0 0 0 0 0 0 0 0 0 0 0 0 0 0 0 0 0 0 0 0 
0 0 0 0 0 0 0 0 0 0 0 0 0 0 0 0 0 0 0 0 0 0 0 0 0 0 0 0 0 0 4003 0 0 8129 0 0 7897 0 0 8012 0 0 8076 0 0 8091 0 0 8091 0 0 7986 0 0 7770 0 0 8054 0 0 8129 0 0 8056 0 0 7961 0 0 8060 0 0 8034 0 0 8030 0 0 8008 0 0 7916 0 0 8148 0 0 7950 0 0 8102 0 0 8077 0 0 7882 0 0 8121 0 0 7982 0 0 7985 0 0 8003 0 0 7981 0 0 8001 0 0 7895 0 0 7966 0 0 7958 0 0 7885 0 0 8028 0 0 7981 0 0 8126 0 0 8013 0 0 8172 0 0 7951 0 0 7887 0 0 4048 0 0 0 0 0 0 0 0 0 0 0 0 0 0 0 0 0 0 0 0 0 0 0 0 0 0 0 0 0 
0 0 0 0 0 0 0 0 0 0 0 0 0 0 0 0 0 0 0 0 0 0 0 0 0 0 0 0 0 0 3937 0 0 8257 0 0 8045 0 0 8030 0 0 8009 0 0 8132 0 0 8035 0 0 8037 0 0 8020 0 0 7970 0 0 8147 0 0 7985 0 0 7926 0 0 8061 0 0 7912 0 0 8070 0 0 7995 0 0 8153 0 0 7958 0 0 7965 0 0 7990 0 0 8094 0 0 8080 0 0 8039 0 0 7949 0 0 8076 0 0 8124 0 0 8089 0 0 7931 0 0 8060 0 0 8084 0 0 7931 0 0 7903 0 0 8061 0 0 8090 0 0 8026 0 0 7936 0 0 8091 0 0 8094 0 0 7951 0 0 3977 0 0 0 0 0 0 0 0 0 0 0 0 0 0 0 0 0 0 0 0 0 0 0 0 0 0 0 0 0 
0 0 0 0 0 0 0 0 0 0 0 0 0 0 0 0 0 0 0 0 0 0 0 0 0 0 0 0 0 0 4096 0 0 7994 0 0 8078 0 0 8071 0 0 7993 0 0 8068 0 0 7882 0 0 8166 0 0 8014 0 0 8182 0 0 7972 0 0 7867 0 0 7951 0 0 8075 0 0 7909 0 0 8048 0 0 8160 0 0 8091 0 0 8070 0 0 7843 0 0 8038 0 0 7905 0 0 8160 0 0 8150 0 0 7846 0 0 7915 0 0 8240 0 0 7995 0 0 8146 0 0 8106 0 0 7916 0 0 7885 0 0 7943 0 0 8128 0 0 7965 0 0 7995 0 0 7954 0 0 8082 0 0 7992 0 0 8011 0 0 4038 0 0 0 0 0 0 0 0 0 0 0 0 0 0 0 0 0 0 0 0 0 0 0 0 0 0 0 0 0 
0 0 0 0 0 0 0 0 0 0 0 0 0 0 0 0 0 0 0 0 0 0 0 0 0 0 0 0 0 0 3964 0 0 7922 0 0 8085 0 0 7850 0 0 7966 0 0 7988 0 0 7882 0 0 8051 0 0 8005 0 0 7966 0 0 8070 0 0 7920 0 0 8080 0 0 7945 0 0 8112 0 0 8154 0 0 8032 0 0 7981 0 0 8063 0 0 8082 0 0 8177 0 0 7911 0 0 8148 0 0 8062 0 0 8121 0 0 8114 0 0 8069 0 0 8003 0 0 8010 0 0 8039 0 0 7921 0 0 8019 0 0 7885 0 0 7973 0 0 7923 0 0 8002 0 0 7930 0 0 8061 0 0 7984 0 0 8004 0 0 3998 0 0 0 0 0 0 0 0 0 0 0 0 0 0 0 0 0 0 0 0 0 0 0 0 0 0 0 0 0 
0 0 0 0 0 0 0 0 0 0 0 0 0 0 0 0 0 0 0 0 0 0 0 0 0 0 0 0 0 0 3947 0 0 8028 0 0 8006 0 0 7886 0 0 7987 0 0 8094 0 0 7919 0 0 7834 0 0 8003 0 0 8046 0 0 8059 0 0 8220 0 0 7916 0 0 8020 0 0 7928 0 0 8183 0 0 8077 0 0 7875 0 0 8032 0 0 8095 0 0 7974 0 0 7924 0 0 7999 0 0 7901 0 0 8081 0 0 8059 0 0 8014 0 0 7927 0 0 8125 0 0 7938 0 0 8057 0 0 8023 0 0 8000 0 0 8012 0 0 8114 0 0 7974 0 0 7951 0 0 8090 0 0 7984 0 0 7963 0 0 4150 0 0 0 0 0 0 0 0 0 0 0 0 0 0 0 0 0 0 0 0 0 0 0 0 0 0 0 0 0 
0 0 0 0 0 0 0 0 0 0 0 0 0 0 0 0 0 0 0 0 0 0 0 0 0 0 0 0 0 0 4070 0 0 8004 0 0 7950 0 0 8004 0 0 8077 0 0 7999 0 0 7933 0 0 8074 0 0 7939 0 0 8025 0 0 8011 0 0 7894 0 0 8074 0 0 8157 0 0 8153 0 0 7940 0 0 7965 0 0 8105 0 0 8067 0 0 7905 0 0 8000 0 0 8039 0 0 7951 0 0 8142 0 0 7882 0 0 7906 0 0 7856 0 0 8118 0 0 8155 0 0 8019 0 0 8011 0 0 8013 0 0 7946 0 0 8114 0 0 7887 0 0 7975 0 0 7898 0 0 8057 0 0 7867 0 0 8015 0 0 4014 0 0 0 0 0 0 0 0 0 0 0 0 0 0 0 0 0 0 0 0 0 0 0 0 0 0 0 0 0 
0 0 0 0 0 0 0 0 0 0 0 0 0 0 0 0 0 0 0 0 0 0 0 0 0 0 0 0 0 0 3986 0 0 7918 0 0 8101 0 0 7943 0 0 8103 0 0 7944 0 0 7951 0 0 7996 0 0 8014 0 0 7973 0 0 7994 0 0 8054 0 0 7954 0 0 8075 0 0 8103 0 0 7935 0 0 8030 0 0 7997 0 0 8150 0 0 8097 0 0 8061 0 0 8163 0 0 7974 0 0 8063 0 0 8058 0 0 8009 0 0 8116 0 0 8018 0 0 8097 0 0 7797 0 0 8013 0 0 7972 0 0 7819 0 0 8146 0 0 8075 0 0 7985 0 0 7922 0 0 7909 0 0 7988 0 0 8079 0 0 4053 0 0 0 0 0 0 0 0 0 0 0 0 0 0 0 0 0 0 0 0 0 0 0 0 0 0 0 0 0 
0 0 0 0 0 0 0 0 0 0 0 0 0 0 0 0 0 0 0 0 0 0 0 0 0 0 0 0 0 0 3956 0 0 7882 0 0 8041 0 0 8093 0 0 7835 0 0 8017 0 0 8213 0 0 7952 0 0 8001 0 0 8062 0 0 8130 0 0 8054 0 0 7986 0 0 7965 0 0 8047 0 0 7992 0 0 7788 0 0 7971 0 0 7856 0 0 7994 0 0 8128 0 0 8281 0 0 8131 0 0 8073 0 0 8033 0 0 7917 0 0 8191 0 0 8041 0 0 7974 0 0 8053 0 0 7986 0 0 7939 0 0 7954 0 0 7933 0 0 8042 0 0 7965 0 0 8303 0 0 7934 0 0 7842 0 0 8310 0 0 3929 0 0 0 0 0 0 0 0 0 0 0 0 0 0 0 0 0 0 0 0 0 0 0 0 0 0 0 0 0 
0 0 0 0 0 0 0 0 0 0 0 0 0 0 0 0 0 0 0 0 0 0 0 0 0 0 0 0 0 0 3995 0 0 7957 0 0 7956 0 0 8021 0 0 8019 0 0 8090 0 0 8091 0 0 7960 0 0 8092 0 0 8149 0 0 8073 0 0 8019 0 0 8046 0 0 8119 0 0 8074 0 0 7909 0 0 8051 0 0 7943 0 0 8109 0 0 7977 0 0 8191 0 0 7970 0 0 8223 0 0 7876 0 0 8203 0 0 8064 0 0 8019 0 0 8109 0 0 7966 0 0 8007 0 0 8055 0 0 7996 0 0 7935 0 0 7993 0 0 7889 0 0 7974 0 0 8121 0 0 8073 0 0 8074 0 0 7861 0 0 3990 0 0 0 0 0 0 0 0 0 0 0 0 0 0 0 0 0 0 0 0 0 0 0 0 0 0 0 0 0 
0 0 0 0 0 0 0 0 0 0 0 0 0 0 0 0 0 0 0 0 0 0 0 0 0 0 0 0 0 0 1916 0 0 3957 0 0 3921 0 0 4005 0 0 4067 0 0 3948 0 0 4143 0 0 4124 0 0 4061 0 0 3992 0 0 4077 0 0 4023 0 0 3936 0 0 4001 0 0 4061 0 0 4064 0 0 3951 0 0 4046 0 0 3952 0 0 4029 0 0 4009 0 0 4031 0 0 4095 0 0 4027 0 0 4159 0 0 4015 0 0 3983 0 0 3972 0 0 3937 0 0 3973 0 0 3842 0 0 4025 0 0 3941 0 0 4042 0 0 4006 0 0 3980 0 0 3987 0 0 3980 0 0 3969 0 0 4097 0 0 2025 0 0 0 0 0 0 0 0 0 0 0 0 0 0 0 0 0 0 0 0 0 0 0 0 0 0 0 0 0 
0 0 0 0 0 0 0 0 0 0 0 0 0 0 0 0 0 0 0 0 0 0 0 0 0 0 0 0 0 0 0 0 0 0 0 0 0 0 0 0 0 0 0 0 0 0 0 0 0 0 0 0 0 0 0 0 0 0 0 0 0 0 0 0 0 0 0 0 0 0 0 0 0 0 0 0 0 0 0 0 0 0 0 0 0 0 0 0 0 0 0 0 0 0 0 0 0 0 0 0 0 0 0 0 0 0 0 0 0 0 0 0 0 0 0 0 0 0 0 0 0 0 0 0 0 0 0 0 0 0 0 0 0 0 0 0 0 0 0 0 0 0 0 0 0 0 0 0 0 0 0 0 0 0 0 0 0 0 0 0 0 0 0 0 0 0 0 0 0 0 0 0 0 0 0 0 0 0 0 0 
0 0 0 0 0 0 0 0 0 0 0 0 0 0 0 0 0 0 0 0 0 0 0 0 0 0 0 0 0 0 0 0 0 0 0 0 0 0 0 0 0 0 0 0 0 0 0 0 0 0 0 0 0 0 0 0 0 0 0 0 0 0 0 0 0 0 0 0 0 0 0 0 0 0 0 0 0 0 0 0 0 0 0 0 0 0 0 0 0 0 0 0 0 0 0 0 0 0 0 0 0 0 0 0 0 0 0 0 0 0 0 0 0 0 0 0 0 0 0 0 0 0 0 0 0 0 0 0 0 0 0 0 0 0 0 0 0 0 0 0 0 0 0 0 0 0 0 0 0 0 0 0 0 0 0 0 0 0 0 0 0 0 0 0 0 0 0 0 0 0 0 0 0 0 0 0 0 0 0 0 
0 0 0 0 0 0 0 0 0 0 0 0 0 0 0 0 0 0 0 0 0 0 0 0 0 0 0 0 0 0 0 0 0 0 0 0 0 0 0 0 0 0 0 0 0 0 0 0 0 0 0 0 0 0 0 0 0 0 0 0 0 0 0 0 0 0 0 0 0 0 0 0 0 0 0 0 0 0 0 0 0 0 0 0 0 0 0 0 0 0 0 0 0 0 0 0 0 0 0 0 0 0 0 0 0 0 0 0 0 0 0 0 0 0 0 0 0 0 0 0 0 0 0 0 0 0 0 0 0 0 0 0 0 0 0 0 0 0 0 0 0 0 0 0 0 0 0 0 0 0 0 0 0 0 0 0 0 0 0 0 0 0 0 0 0 0 0 0 0 0 0 0 0 0 0 0 0 0 0 0 
0 0 0 0 0 0 0 0 0 0 0 0 0 0 0 0 0 0 0 0 0 0 0 0 0 0 0 0 0 0 0 0 0 0 0 0 0 0 0 0 0 0 0 0 0 0 0 0 0 0 0 0 0 0 0 0 0 0 0 0 0 0 0 0 0 0 0 0 0 0 0 0 0 0 0 0 0 0 0 0 0 0 0 0 0 0 0 0 0 0 0 0 0 0 0 0 0 0 0 0 0 0 0 0 0 0 0 0 0 0 0 0 0 0 0 0 0 0 0 0 0 0 0 0 0 0 0 0 0 0 0 0 0 0 0 0 0 0 0 0 0 0 0 0 0 0 0 0 0 0 0 0 0 0 0 0 0 0 0 0 0 0 0 0 0 0 0 0 0 0 0 0 0 0 0 0 0 0 0 0 
0 0 0 0 0 0 0 0 0 0 0 0 0 0 0 0 0 0 0 0 0 0 0 0 0 0 0 0 0 0 0 0 0 0 0 0 0 0 0 0 0 0 0 0 0 0 0 0 0 0 0 0 0 0 0 0 0 0 0 0 0 0 0 0 0 0 0 0 0 0 0 0 0 0 0 0 0 0 0 0 0 0 0 0 0 0 0 0 0 0 0 0 0 0 0 0 0 0 0 0 0 0 0 0 0 0 0 0 0 0 0 0 0 0 0 0 0 0 0 0 0 0 0 0 0 0 0 0 0 0 0 0 0 0 0 0 0 0 0 0 0 0 0 0 0 0 0 0 0 0 0 0 0 0 0 0 0 0 0 0 0 0 0 0 0 0 0 0 0 0 0 0 0 0 0 0 0 0 0 0 
0 0 0 0 0 0 0 0 0 0 0 0 0 0 0 0 0 0 0 0 0 0 0 0 0 0 0 0 0 0 0 0 0 0 0 0 0 0 0 0 0 0 0 0 0 0 0 0 0 0 0 0 0 0 0 0 0 0 0 0 0 0 0 0 0 0 0 0 0 0 0 0 0 0 0 0 0 0 0 0 0 0 0 0 0 0 0 0 0 0 0 0 0 0 0 0 0 0 0 0 0 0 0 0 0 0 0 0 0 0 0 0 0 0 0 0 0 0 0 0 0 0 0 0 0 0 0 0 0 0 0 0 0 0 0 0 0 0 0 0 0 0 0 0 0 0 0 0 0 0 0 0 0 0 0 0 0 0 0 0 0 0 0 0 0 0 0 0 0 0 0 0 0 0 0 0 0 0 0 0 
0 0 0 0 0 0 0 0 0 0 0 0 0 0 0 0 0 0 0 0 0 0 0 0 0 0 0 0 0 0 0 0 0 0 0 0 0 0 0 0 0 0 0 0 0 0 0 0 0 0 0 0 0 0 0 0 0 0 0 0 0 0 0 0 0 0 0 0 0 0 0 0 0 0 0 0 0 0 0 0 0 0 0 0 0 0 0 0 0 0 0 0 0 0 0 0 0 0 0 0 0 0 0 0 0 0 0 0 0 0 0 0 0 0 0 0 0 0 0 0 0 0 0 0 0 0 0 0 0 0 0 0 0 0 0 0 0 0 0 0 0 0 0 0 0 0 0 0 0 0 0 0 0 0 0 0 0 0 0 0 0 0 0 0 0 0 0 0 0 0 0 0 0 0 0 0 0 0 0 0 
0 0 0 0 0 0 0 0 0 0 0 0 0 0 0 0 0 0 0 0 0 0 0 0 0 0 0 0 0 0 0 0 0 0 0 0 0 0 0 0 0 0 0 0 0 0 0 0 0 0 0 0 0 0 0 0 0 0 0 0 0 0 0 0 0 0 0 0 0 0 0 0 0 0 0 0 0 0 0 0 0 0 0 0 0 0 0 0 0 0 0 0 0 0 0 0 0 0 0 0 0 0 0 0 0 0 0 0 0 0 0 0 0 0 0 0 0 0 0 0 0 0 0 0 0 0 0 0 0 0 0 0 0 0 0 0 0 0 0 0 0 0 0 0 0 0 0 0 0 0 0 0 0 0 0 0 0 0 0 0 0 0 0 0 0 0 0 0 0 0 0 0 0 0 0 0 0 0 0 0 
0 0 0 0 0 0 0 0 0 0 0 0 0 0 0 0 0 0 0 0 0 0 0 0 0 0 0 0 0 0 0 0 0 0 0 0 0 0 0 0 0 0 0 0 0 0 0 0 0 0 0 0 0 0 0 0 0 0 0 0 0 0 0 0 0 0 0 0 0 0 0 0 0 0 0 0 0 0 0 0 0 0 0 0 0 0 0 0 0 0 0 0 0 0 0 0 0 0 0 0 0 0 0 0 0 0 0 0 0 0 0 0 0 0 0 0 0 0 0 0 0 0 0 0 0 0 0 0 0 0 0 0 0 0 0 0 0 0 0 0 0 0 0 0 0 0 0 0 0 0 0 0 0 0 0 0 0 0 0 0 0 0 0 0 0 0 0 0 0 0 0 0 0 0 0 0 0 0 0 0 
