P3
# This is a dose file slice at depth 12 of 100
60 60
# now we give the maximum value of the RGB coordinates.
32965
2 0 0 0 0 0 2 0 0 2 0 0 4 0 0 0 0 0 3 0 0 2 0 0 3 0 0 4 0 0 4 0 0 5 0 0 3 0 0 2 0 0 2 0 0 3 0 0 10 0 0 3 0 0 1 0 0 7 0 0 6 0 0 7 0 0 5 0 0 6 0 0 8 0 0 8 0 0 5 0 0 3 0 0 4 0 0 5 0 0 9 0 0 7 0 0 5 0 0 5 0 0 5 0 0 8 0 0 6 0 0 5 0 0 9 0 0 6 0 0 7 0 0 5 0 0 3 0 0 3 0 0 8 0 0 7 0 0 3 0 0 2 0 0 7 0 0 5 0 0 3 0 0 1 0 0 4 0 0 4 0 0 4 0 0 6 0 0 2 0 0 2 0 0 2 0 0 3 0 0 
3 0 0 9 0 0 6 0 0 5 0 0 6 0 0 9 0 0 8 0 0 5 0 0 5 0 0 11 0 0 8 0 0 12 0 0 8 0 0 10 0 0 10 0 0 15 0 0 14 0 0 12 0 0 6 0 0 12 0 0 10 0 0 18 0 0 16 0 0 12 0 0 15 0 0 15 0 0 10 0 0 10 0 0 12 0 0 8 0 0 19 0 0 11 0 0 16 0 0 9 0 0 11 0 0 17 0 0 15 0 0 13 0 0 15 0 0 14 0 0 12 0 0 14 0 0 10 0 0 16 0 0 12 0 0 16 0 0 13 0 0 4 0 0 17 0 0 10 0 0 5 0 0 8 0 0 8 0 0 8 0 0 9 0 0 7 0 0 9 0 0 6 0 0 3 0 0 9 0 0 
1 0 0 3 0 0 4 0 0 7 0 0 8 0 0 9 0 0 9 0 0 7 0 0 9 0 0 10 0 0 10 0 0 13 0 0 10 0 0 13 0 0 12 0 0 19 0 0 15 0 0 16 0 0 12 0 0 13 0 0 11 0 0 17 0 0 20 0 0 16 0 0 16 0 0 15 0 0 9 0 0 11 0 0 15 0 0 17 0 0 16 0 0 14 0 0 12 0 0 9 0 0 11 0 0 20 0 0 23 0 0 17 0 0 19 0 0 11 0 0 12 0 0 18 0 0 9 0 0 16 0 0 12 0 0 17 0 0 12 0 0 10 0 0 13 0 0 17 0 0 9 0 0 9 0 0 8 0 0 10 0 0 8 0 0 9 0 0 10 0 0 5 0 0 10 0 0 12 0 0 
0 0 0 0 0 0 2 0 0 4 0 0 6 0 0 14 0 0 11 0 0 8 0 0 8 0 0 12 0 0 16 0 0 17 0 0 14 0 0 18 0 0 15 0 0 22 0 0 18 0 0 20 0 0 12 0 0 11 0 0 15 0 0 17 0 0 17 0 0 16 0 0 21 0 0 18 0 0 16 0 0 17 0 0 24 0 0 20 0 0 11 0 0 19 0 0 13 0 0 12 0 0 20 0 0 22 0 0 15 0 0 14 0 0 18 0 0 21 0 0 12 0 0 17 0 0 10 0 0 18 0 0 19 0 0 16 0 0 14 0 0 12 0 0 16 0 0 14 0 0 8 0 0 13 0 0 8 0 0 12 0 0 12 0 0 12 0 0 7 0 0 12 0 0 6 0 0 5 0 0 
1 0 0 2 0 0 4 0 0 3 0 0 6 0 0 8 0 0 12 0 0 13 0 0 9 0 0 15 0 0 18 0 0 17 0 0 18 0 0 11 0 0 24 0 0 19 0 0 20 0 0 18 0 0 19 0 0 13 0 0 14 0 0 19 0 0 16 0 0 21 0 0 18 0 0 20 0 0 18 0 0 18 0 0 28 0 0 24 0 0 21 0 0 20 0 0 23 0 0 15 0 0 23 0 0 22 0 0 15 0 0 12 0 0 25 0 0 18 0 0 15 0 0 14 0 0 14 0 0 16 0 0 20 0 0 18 0 0 13 0 0 14 0 0 10 0 0 14 0 0 12 0 0 10 0 0 12 0 0 19 0 0 10 0 0 7 0 0 11 0 0 10 0 0 5 0 0 9 0 0 
5 0 0 6 0 0 3 0 0 7 0 0 9 0 0 9 0 0 9 0 0 10 0 0 19 0 0 18 0 0 22 0 0 18 0 0 12 0 0 15 0 0 20 0 0 25 0 0 19 0 0 22 0 0 21 0 0 25 0 0 18 0 0 19 0 0 21 0 0 30 0 0 25 0 0 26 0 0 25 0 0 26 0 0 25 0 0 28 0 0 27 0 0 29 0 0 24 0 0 15 0 0 21 0 0 21 0 0 20 0 0 19 0 0 28 0 0 26 0 0 17 0 0 21 0 0 26 0 0 25 0 0 21 0 0 19 0 0 16 0 0 13 0 0 18 0 0 17 0 0 11 0 0 10 0 0 13 0 0 12 0 0 12 0 0 12 0 0 9 0 0 12 0 0 11 0 0 7 0 0 
3 0 0 8 0 0 5 0 0 5 0 0 9 0 0 10 0 0 12 0 0 12 0 0 7 0 0 16 0 0 20 0 0 25 0 0 15 0 0 16 0 0 24 0 0 25 0 0 19 0 0 20 0 0 27 0 0 25 0 0 23 0 0 20 0 0 26 0 0 34 0 0 26 0 0 30 0 0 34 0 0 28 0 0 27 0 0 29 0 0 36 0 0 32 0 0 23 0 0 27 0 0 25 0 0 26 0 0 20 0 0 33 0 0 41 0 0 26 0 0 19 0 0 25 0 0 26 0 0 26 0 0 25 0 0 20 0 0 24 0 0 19 0 0 26 0 0 14 0 0 17 0 0 8 0 0 13 0 0 10 0 0 15 0 0 15 0 0 10 0 0 5 0 0 9 0 0 16 0 0 
6 0 0 10 0 0 8 0 0 5 0 0 11 0 0 11 0 0 11 0 0 12 0 0 15 0 0 21 0 0 22 0 0 37 0 0 26 0 0 35 0 0 30 0 0 29 0 0 24 0 0 33 0 0 36 0 0 34 0 0 29 0 0 32 0 0 44 0 0 38 0 0 35 0 0 46 0 0 41 0 0 38 0 0 36 0 0 31 0 0 38 0 0 38 0 0 36 0 0 33 0 0 32 0 0 34 0 0 46 0 0 35 0 0 35 0 0 33 0 0 33 0 0 33 0 0 39 0 0 30 0 0 30 0 0 28 0 0 35 0 0 25 0 0 27 0 0 18 0 0 20 0 0 12 0 0 12 0 0 13 0 0 18 0 0 10 0 0 10 0 0 11 0 0 15 0 0 11 0 0 
4 0 0 9 0 0 14 0 0 10 0 0 11 0 0 12 0 0 16 0 0 18 0 0 14 0 0 23 0 0 28 0 0 26 0 0 38 0 0 43 0 0 54 0 0 33 0 0 34 0 0 41 0 0 40 0 0 36 0 0 47 0 0 38 0 0 32 0 0 56 0 0 48 0 0 47 0 0 57 0 0 55 0 0 53 0 0 55 0 0 47 0 0 50 0 0 45 0 0 36 0 0 47 0 0 44 0 0 46 0 0 55 0 0 43 0 0 41 0 0 51 0 0 41 0 0 45 0 0 35 0 0 34 0 0 38 0 0 31 0 0 35 0 0 37 0 0 24 0 0 26 0 0 13 0 0 12 0 0 17 0 0 16 0 0 16 0 0 14 0 0 15 0 0 9 0 0 12 0 0 
2 0 0 7 0 0 6 0 0 12 0 0 14 0 0 11 0 0 15 0 0 21 0 0 27 0 0 25 0 0 90 0 0 156 0 0 165 0 0 173 0 0 172 0 0 182 0 0 164 0 0 177 0 0 171 0 0 140 0 0 157 0 0 166 0 0 180 0 0 156 0 0 183 0 0 178 0 0 173 0 0 192 0 0 188 0 0 188 0 0 171 0 0 179 0 0 181 0 0 184 0 0 177 0 0 182 0 0 172 0 0 171 0 0 165 0 0 179 0 0 169 0 0 179 0 0 160 0 0 179 0 0 162 0 0 170 0 0 167 0 0 161 0 0 134 0 0 163 0 0 72 0 0 17 0 0 20 0 0 16 0 0 16 0 0 16 0 0 13 0 0 13 0 0 13 0 0 11 0 0 
5 0 0 9 0 0 9 0 0 9 0 0 13 0 0 18 0 0 16 0 0 24 0 0 28 0 0 75 0 0 6271 0 0 12652 0 0 12878 0 0 12875 0 0 12864 0 0 12687 0 0 12882 0 0 12631 0 0 12782 0 0 12753 0 0 12609 0 0 12707 0 0 12696 0 0 12789 0 0 12645 0 0 12613 0 0 12743 0 0 12814 0 0 12767 0 0 12773 0 0 12608 0 0 13044 0 0 12828 0 0 12682 0 0 12660 0 0 12763 0 0 12615 0 0 12654 0 0 12826 0 0 12681 0 0 12770 0 0 12823 0 0 12831 0 0 12787 0 0 12714 0 0 12613 0 0 12651 0 0 12708 0 0 12759 0 0 12656 0 0 6412 0 0 97 0 0 33 0 0 17 0 0 21 0 0 12 0 0 15 0 0 15 0 0 12 0 0 8 0 0 
6 0 0 8 0 0 11 0 0 11 0 0 12 0 0 12 0 0 22 0 0 18 0 0 36 0 0 155 0 0 12660 0 0 25047 0 0 25137 0 0 25390 0 0 25214 0 0 25400 0 0 25419 0 0 25388 0 0 25267 0 0 25016 0 0 25267 0 0 25324 0 0 25246 0 0 25186 0 0 25255 0 0 25080 0 0 25218 0 0 25381 0 0 25067 0 0 25380 0 0 25267 0 0 25160 0 0 25337 0 0 25193 0 0 25493 0 0 25332 0 0 25252 0 0 25493 0 0 25221 0 0 25157 0 0 25421 0 0 25152 0 0 25320 0 0 25529 0 0 25284 0 0 25531 0 0 25250 0 0 25219 0 0 25264 0 0 25193 0 0 12622 0 0 168 0 0 34 0 0 23 0 0 16 0 0 17 0 0 24 0 0 14 0 0 14 0 0 12 0 0 
3 0 0 17 0 0 13 0 0 17 0 0 12 0 0 23 0 0 29 0 0 21 0 0 31 0 0 139 0 0 12653 0 0 25090 0 0 25178 0 0 25451 0 0 25599 0 0 25358 0 0 25253 0 0 25388 0 0 25536 0 0 25385 0 0 25401 0 0 25280 0 0 25763 0 0 25322 0 0 25602 0 0 25419 0 0 25447 0 0 25587 0 0 25538 0 0 25340 0 0 25296 0 0 25461 0 0 25486 0 0 25485 0 0 25527 0 0 25457 0 0 25603 0 0 25317 0 0 25372 0 0 25684 0 0 25507 0 0 25364 0 0 25501 0 0 25320 0 0 25584 0 0 25383 0 0 25159 0 0 25303 0 0 25322 0 0 25118 0 0 12765 0 0 163 0 0 35 0 0 23 0 0 24 0 0 16 0 0 17 0 0 11 0 0 12 0 0 13 0 0 
3 0 0 9 0 0 11 0 0 12 0 0 14 0 0 15 0 0 19 0 0 31 0 0 35 0 0 167 0 0 12849 0 0 25330 0 0 25262 0 0 25407 0 0 25505 0 0 25412 0 0 25503 0 0 25517 0 0 25452 0 0 25192 0 0 25463 0 0 25551 0 0 25423 0 0 25303 0 0 25536 0 0 25319 0 0 25351 0 0 25516 0 0 25474 0 0 25437 0 0 25384 0 0 25174 0 0 25568 0 0 25374 0 0 25081 0 0 25543 0 0 25428 0 0 25657 0 0 25403 0 0 25185 0 0 25591 0 0 25406 0 0 25447 0 0 25576 0 0 25351 0 0 25302 0 0 25435 0 0 25227 0 0 25472 0 0 25213 0 0 12636 0 0 150 0 0 27 0 0 26 0 0 21 0 0 20 0 0 9 0 0 12 0 0 13 0 0 7 0 0 
5 0 0 8 0 0 9 0 0 13 0 0 16 0 0 18 0 0 23 0 0 33 0 0 37 0 0 190 0 0 12738 0 0 25408 0 0 25337 0 0 25411 0 0 25448 0 0 25363 0 0 25157 0 0 25257 0 0 25506 0 0 25536 0 0 25303 0 0 25569 0 0 25275 0 0 25466 0 0 25404 0 0 25313 0 0 25340 0 0 25383 0 0 25423 0 0 25530 0 0 25453 0 0 25204 0 0 25313 0 0 25411 0 0 25104 0 0 25628 0 0 25529 0 0 25497 0 0 25573 0 0 25260 0 0 25690 0 0 25632 0 0 25571 0 0 25404 0 0 25419 0 0 25587 0 0 25396 0 0 25830 0 0 25429 0 0 25358 0 0 12897 0 0 155 0 0 29 0 0 29 0 0 23 0 0 18 0 0 13 0 0 16 0 0 12 0 0 12 0 0 
4 0 0 8 0 0 8 0 0 12 0 0 23 0 0 28 0 0 27 0 0 32 0 0 32 0 0 168 0 0 12884 0 0 25196 0 0 25341 0 0 25682 0 0 25416 0 0 25382 0 0 25518 0 0 25418 0 0 25258 0 0 25385 0 0 25270 0 0 25351 0 0 25344 0 0 25393 0 0 25424 0 0 25486 0 0 25608 0 0 25352 0 0 25409 0 0 25508 0 0 25540 0 0 25447 0 0 25173 0 0 25297 0 0 25221 0 0 25487 0 0 25458 0 0 25453 0 0 25270 0 0 25277 0 0 25557 0 0 25306 0 0 25221 0 0 25281 0 0 25658 0 0 25638 0 0 25449 0 0 25424 0 0 25353 0 0 25289 0 0 12674 0 0 166 0 0 31 0 0 31 0 0 25 0 0 15 0 0 24 0 0 17 0 0 12 0 0 9 0 0 
3 0 0 7 0 0 12 0 0 11 0 0 9 0 0 19 0 0 30 0 0 38 0 0 46 0 0 172 0 0 12818 0 0 25369 0 0 25548 0 0 25138 0 0 25442 0 0 25599 0 0 25571 0 0 25686 0 0 25682 0 0 25485 0 0 25240 0 0 25482 0 0 25486 0 0 25406 0 0 25442 0 0 25488 0 0 25431 0 0 25660 0 0 25571 0 0 25174 0 0 25449 0 0 25360 0 0 25667 0 0 25468 0 0 25353 0 0 25324 0 0 25433 0 0 25275 0 0 25526 0 0 25475 0 0 25439 0 0 25313 0 0 25255 0 0 25799 0 0 25203 0 0 25538 0 0 25594 0 0 25648 0 0 25332 0 0 25294 0 0 12671 0 0 163 0 0 35 0 0 33 0 0 22 0 0 24 0 0 17 0 0 15 0 0 11 0 0 9 0 0 
4 0 0 10 0 0 11 0 0 14 0 0 21 0 0 15 0 0 21 0 0 21 0 0 43 0 0 174 0 0 12752 0 0 25427 0 0 25287 0 0 25369 0 0 25412 0 0 25491 0 0 25504 0 0 25640 0 0 25491 0 0 25452 0 0 25234 0 0 25139 0 0 25361 0 0 25339 0 0 25605 0 0 25580 0 0 25411 0 0 25449 0 0 25683 0 0 25434 0 0 25281 0 0 25387 0 0 25511 0 0 25219 0 0 25418 0 0 25518 0 0 25534 0 0 25547 0 0 25431 0 0 25448 0 0 25544 0 0 25296 0 0 25642 0 0 25560 0 0 25222 0 0 25764 0 0 25444 0 0 25459 0 0 25501 0 0 25403 0 0 12665 0 0 161 0 0 47 0 0 35 0 0 28 0 0 18 0 0 13 0 0 11 0 0 14 0 0 10 0 0 
2 0 0 7 0 0 16 0 0 12 0 0 15 0 0 25 0 0 19 0 0 32 0 0 44 0 0 169 0 0 12777 0 0 25132 0 0 25489 0 0 25445 0 0 25467 0 0 25334 0 0 25268 0 0 25471 0 0 25314 0 0 25556 0 0 25355 0 0 25636 0 0 25445 0 0 25254 0 0 25452 0 0 25460 0 0 25273 0 0 25665 0 0 25360 0 0 25366 0 0 25518 0 0 25460 0 0 25367 0 0 25297 0 0 25195 0 0 25384 0 0 25604 0 0 25573 0 0 25576 0 0 25175 0 0 25484 0 0 25522 0 0 25214 0 0 25375 0 0 25499 0 0 25324 0 0 25587 0 0 25648 0 0 25358 0 0 25348 0 0 12662 0 0 173 0 0 43 0 0 38 0 0 26 0 0 18 0 0 16 0 0 12 0 0 13 0 0 9 0 0 
5 0 0 5 0 0 12 0 0 17 0 0 15 0 0 27 0 0 21 0 0 33 0 0 35 0 0 165 0 0 12626 0 0 25312 0 0 25227 0 0 25132 0 0 25344 0 0 25473 0 0 25433 0 0 25504 0 0 25414 0 0 25580 0 0 25413 0 0 25627 0 0 25237 0 0 25430 0 0 25329 0 0 25379 0 0 25540 0 0 25430 0 0 25477 0 0 25481 0 0 25251 0 0 25520 0 0 25532 0 0 25349 0 0 25296 0 0 25506 0 0 25391 0 0 25259 0 0 25363 0 0 25509 0 0 25562 0 0 25613 0 0 25413 0 0 25623 0 0 25470 0 0 25631 0 0 25399 0 0 25454 0 0 25248 0 0 25427 0 0 12699 0 0 187 0 0 45 0 0 29 0 0 33 0 0 17 0 0 14 0 0 13 0 0 17 0 0 11 0 0 
5 0 0 15 0 0 12 0 0 17 0 0 22 0 0 23 0 0 24 0 0 24 0 0 46 0 0 178 0 0 12722 0 0 25119 0 0 25358 0 0 25390 0 0 25383 0 0 25565 0 0 25679 0 0 25345 0 0 25524 0 0 25123 0 0 25141 0 0 25229 0 0 25275 0 0 25551 0 0 25530 0 0 25653 0 0 25425 0 0 25435 0 0 25573 0 0 25731 0 0 25367 0 0 25554 0 0 25657 0 0 25505 0 0 25624 0 0 25433 0 0 25422 0 0 25467 0 0 25502 0 0 25418 0 0 25560 0 0 25471 0 0 25493 0 0 25580 0 0 25295 0 0 25446 0 0 25480 0 0 25463 0 0 25243 0 0 25377 0 0 12603 0 0 179 0 0 52 0 0 31 0 0 24 0 0 23 0 0 14 0 0 16 0 0 14 0 0 11 0 0 
3 0 0 7 0 0 16 0 0 18 0 0 22 0 0 23 0 0 29 0 0 31 0 0 42 0 0 191 0 0 12685 0 0 25418 0 0 25199 0 0 25107 0 0 25349 0 0 25612 0 0 25561 0 0 25343 0 0 25691 0 0 25412 0 0 25552 0 0 25448 0 0 25546 0 0 25173 0 0 25268 0 0 25352 0 0 25311 0 0 25649 0 0 25747 0 0 25434 0 0 25261 0 0 25499 0 0 25532 0 0 25549 0 0 25411 0 0 25605 0 0 25549 0 0 25465 0 0 25648 0 0 25505 0 0 25372 0 0 25464 0 0 25615 0 0 25245 0 0 25503 0 0 25303 0 0 25793 0 0 25537 0 0 25468 0 0 25153 0 0 12646 0 0 151 0 0 35 0 0 44 0 0 37 0 0 24 0 0 20 0 0 26 0 0 12 0 0 14 0 0 
4 0 0 10 0 0 11 0 0 16 0 0 16 0 0 23 0 0 17 0 0 29 0 0 41 0 0 170 0 0 12588 0 0 25048 0 0 25322 0 0 25482 0 0 25459 0 0 25266 0 0 25321 0 0 25527 0 0 25789 0 0 25565 0 0 25508 0 0 25482 0 0 25571 0 0 25593 0 0 25400 0 0 25380 0 0 25406 0 0 25636 0 0 25366 0 0 25629 0 0 25755 0 0 25349 0 0 25725 0 0 25530 0 0 25470 0 0 25577 0 0 25479 0 0 25346 0 0 25254 0 0 25476 0 0 25450 0 0 25214 0 0 25492 0 0 25170 0 0 25833 0 0 25566 0 0 25498 0 0 25283 0 0 25524 0 0 25262 0 0 12839 0 0 157 0 0 45 0 0 32 0 0 33 0 0 28 0 0 29 0 0 25 0 0 17 0 0 14 0 0 
7 0 0 12 0 0 11 0 0 12 0 0 19 0 0 25 0 0 26 0 0 37 0 0 42 0 0 156 0 0 12750 0 0 25300 0 0 25223 0 0 25355 0 0 25114 0 0 25368 0 0 25118 0 0 25341 0 0 25645 0 0 25834 0 0 25420 0 0 25291 0 0 25359 0 0 25472 0 0 25490 0 0 25316 0 0 25537 0 0 25595 0 0 25562 0 0 25349 0 0 25749 0 0 25536 0 0 25297 0 0 25477 0 0 25419 0 0 25768 0 0 25336 0 0 25347 0 0 25321 0 0 25485 0 0 25280 0 0 25361 0 0 25279 0 0 25453 0 0 25390 0 0 25273 0 0 25234 0 0 25230 0 0 25435 0 0 25175 0 0 12620 0 0 165 0 0 45 0 0 40 0 0 32 0 0 27 0 0 27 0 0 20 0 0 15 0 0 15 0 0 
5 0 0 18 0 0 14 0 0 24 0 0 22 0 0 23 0 0 24 0 0 33 0 0 40 0 0 172 0 0 12775 0 0 25354 0 0 25289 0 0 25561 0 0 25461 0 0 25411 0 0 25435 0 0 25631 0 0 25312 0 0 25356 0 0 25499 0 0 25373 0 0 25334 0 0 25376 0 0 25418 0 0 25344 0 0 25420 0 0 25364 0 0 25371 0 0 25464 0 0 25575 0 0 25528 0 0 25529 0 0 25537 0 0 25409 0 0 25306 0 0 25484 0 0 25497 0 0 25379 0 0 25499 0 0 25636 0 0 25356 0 0 25329 0 0 25529 0 0 25494 0 0 25509 0 0 25550 0 0 25447 0 0 25516 0 0 25485 0 0 12684 0 0 173 0 0 44 0 0 36 0 0 29 0 0 22 0 0 24 0 0 16 0 0 10 0 0 11 0 0 
7 0 0 10 0 0 16 0 0 13 0 0 19 0 0 28 0 0 29 0 0 32 0 0 35 0 0 199 0 0 12675 0 0 25407 0 0 25616 0 0 25248 0 0 25429 0 0 25669 0 0 25691 0 0 25533 0 0 25359 0 0 25563 0 0 25598 0 0 25583 0 0 25510 0 0 25269 0 0 25321 0 0 25616 0 0 25482 0 0 25286 0 0 25527 0 0 25281 0 0 25418 0 0 25705 0 0 25501 0 0 25333 0 0 25525 0 0 25209 0 0 25578 0 0 25273 0 0 25152 0 0 25444 0 0 25267 0 0 25328 0 0 25261 0 0 25265 0 0 25381 0 0 25350 0 0 25518 0 0 25683 0 0 25453 0 0 25449 0 0 12725 0 0 180 0 0 38 0 0 32 0 0 23 0 0 20 0 0 18 0 0 13 0 0 13 0 0 12 0 0 
5 0 0 12 0 0 15 0 0 16 0 0 18 0 0 26 0 0 38 0 0 46 0 0 44 0 0 175 0 0 12771 0 0 25463 0 0 25424 0 0 25343 0 0 25496 0 0 25463 0 0 25321 0 0 25363 0 0 25649 0 0 25246 0 0 25394 0 0 25482 0 0 25581 0 0 25270 0 0 25266 0 0 25582 0 0 25300 0 0 25519 0 0 25603 0 0 25462 0 0 25737 0 0 25403 0 0 25609 0 0 25311 0 0 25395 0 0 25522 0 0 25497 0 0 25542 0 0 25513 0 0 25613 0 0 25616 0 0 25292 0 0 25201 0 0 25636 0 0 25606 0 0 25542 0 0 25312 0 0 25319 0 0 25687 0 0 25362 0 0 12771 0 0 149 0 0 32 0 0 33 0 0 24 0 0 18 0 0 15 0 0 13 0 0 11 0 0 16 0 0 
10 0 0 17 0 0 17 0 0 23 0 0 28 0 0 30 0 0 33 0 0 36 0 0 39 0 0 161 0 0 12668 0 0 25295 0 0 25156 0 0 25365 0 0 25118 0 0 25643 0 0 25559 0 0 25446 0 0 25294 0 0 25446 0 0 25311 0 0 25543 0 0 25539 0 0 25595 0 0 25382 0 0 25431 0 0 25611 0 0 25422 0 0 25648 0 0 25078 0 0 25513 0 0 25494 0 0 25579 0 0 25552 0 0 25270 0 0 25587 0 0 25649 0 0 25536 0 0 25416 0 0 25752 0 0 25452 0 0 25311 0 0 25576 0 0 25521 0 0 25517 0 0 25407 0 0 25306 0 0 25249 0 0 25320 0 0 25209 0 0 12767 0 0 170 0 0 47 0 0 30 0 0 26 0 0 20 0 0 17 0 0 18 0 0 17 0 0 18 0 0 
5 0 0 19 0 0 21 0 0 18 0 0 24 0 0 16 0 0 25 0 0 36 0 0 38 0 0 158 0 0 12762 0 0 25350 0 0 25398 0 0 25574 0 0 25343 0 0 25245 0 0 25498 0 0 25528 0 0 25860 0 0 25687 0 0 25264 0 0 25588 0 0 25458 0 0 25326 0 0 25394 0 0 25683 0 0 25596 0 0 25493 0 0 25186 0 0 25264 0 0 25528 0 0 25261 0 0 25343 0 0 25570 0 0 25572 0 0 25446 0 0 25683 0 0 25340 0 0 25606 0 0 25816 0 0 25473 0 0 25404 0 0 25577 0 0 25530 0 0 25422 0 0 25510 0 0 25522 0 0 25421 0 0 25484 0 0 25262 0 0 12667 0 0 158 0 0 36 0 0 25 0 0 21 0 0 20 0 0 19 0 0 15 0 0 8 0 0 10 0 0 
4 0 0 12 0 0 17 0 0 24 0 0 15 0 0 26 0 0 33 0 0 32 0 0 51 0 0 166 0 0 12623 0 0 25176 0 0 25778 0 0 25177 0 0 25491 0 0 25492 0 0 24949 0 0 25322 0 0 25480 0 0 25673 0 0 25451 0 0 25424 0 0 25762 0 0 25679 0 0 25706 0 0 25424 0 0 25390 0 0 25510 0 0 25528 0 0 25752 0 0 25649 0 0 25459 0 0 25662 0 0 25568 0 0 25634 0 0 25281 0 0 25459 0 0 25387 0 0 25407 0 0 25681 0 0 25499 0 0 25392 0 0 25418 0 0 25551 0 0 25525 0 0 25462 0 0 25409 0 0 25401 0 0 25508 0 0 25390 0 0 12881 0 0 146 0 0 48 0 0 34 0 0 28 0 0 32 0 0 24 0 0 16 0 0 19 0 0 13 0 0 
8 0 0 18 0 0 10 0 0 16 0 0 13 0 0 15 0 0 19 0 0 26 0 0 39 0 0 171 0 0 12554 0 0 25266 0 0 25444 0 0 25367 0 0 25452 0 0 25511 0 0 25405 0 0 25474 0 0 25460 0 0 25381 0 0 25528 0 0 25744 0 0 25738 0 0 25511 0 0 25450 0 0 25536 0 0 25337 0 0 25610 0 0 25656 0 0 25218 0 0 25604 0 0 25348 0 0 25330 0 0 25307 0 0 25646 0 0 25537 0 0 25714 0 0 25371 0 0 25574 0 0 25476 0 0 25314 0 0 25492 0 0 25075 0 0 25415 0 0 25617 0 0 25286 0 0 25400 0 0 25229 0 0 25407 0 0 25523 0 0 12648 0 0 167 0 0 65 0 0 38 0 0 24 0 0 26 0 0 25 0 0 10 0 0 6 0 0 16 0 0 
4 0 0 12 0 0 17 0 0 19 0 0 24 0 0 27 0 0 31 0 0 37 0 0 40 0 0 175 0 0 12814 0 0 25235 0 0 25408 0 0 25661 0 0 25411 0 0 25678 0 0 25341 0 0 25611 0 0 25569 0 0 25611 0 0 25507 0 0 25386 0 0 25647 0 0 25449 0 0 25350 0 0 25367 0 0 25531 0 0 25527 0 0 25329 0 0 25622 0 0 25370 0 0 25597 0 0 25645 0 0 25445 0 0 25648 0 0 25464 0 0 25336 0 0 25656 0 0 25415 0 0 25420 0 0 25447 0 0 25348 0 0 25386 0 0 25692 0 0 25663 0 0 25237 0 0 25499 0 0 25508 0 0 25460 0 0 25019 0 0 12878 0 0 179 0 0 41 0 0 35 0 0 35 0 0 19 0 0 23 0 0 20 0 0 10 0 0 9 0 0 
5 0 0 12 0 0 15 0 0 18 0 0 22 0 0 22 0 0 19 0 0 31 0 0 42 0 0 160 0 0 12850 0 0 24918 0 0 25362 0 0 25310 0 0 25307 0 0 25273 0 0 25628 0 0 25518 0 0 25730 0 0 25600 0 0 25339 0 0 25469 0 0 25692 0 0 25425 0 0 25403 0 0 25487 0 0 25493 0 0 25618 0 0 25399 0 0 25334 0 0 25677 0 0 25542 0 0 25548 0 0 25331 0 0 25368 0 0 25478 0 0 25306 0 0 25368 0 0 25379 0 0 25410 0 0 25684 0 0 25364 0 0 25415 0 0 25548 0 0 25359 0 0 25324 0 0 25475 0 0 25562 0 0 25395 0 0 25357 0 0 12874 0 0 187 0 0 43 0 0 37 0 0 34 0 0 31 0 0 31 0 0 23 0 0 21 0 0 20 0 0 
5 0 0 11 0 0 15 0 0 13 0 0 10 0 0 17 0 0 30 0 0 32 0 0 40 0 0 163 0 0 12557 0 0 25114 0 0 25598 0 0 25714 0 0 25106 0 0 25384 0 0 25266 0 0 25646 0 0 25677 0 0 25311 0 0 25576 0 0 25507 0 0 25223 0 0 25537 0 0 25273 0 0 25462 0 0 25446 0 0 25272 0 0 25312 0 0 25483 0 0 25609 0 0 25555 0 0 25461 0 0 25389 0 0 25406 0 0 25665 0 0 25376 0 0 25554 0 0 25214 0 0 25249 0 0 25349 0 0 25494 0 0 25364 0 0 25652 0 0 25433 0 0 25332 0 0 25493 0 0 25588 0 0 25435 0 0 25196 0 0 12725 0 0 165 0 0 38 0 0 30 0 0 28 0 0 26 0 0 20 0 0 19 0 0 13 0 0 10 0 0 
4 0 0 18 0 0 20 0 0 20 0 0 24 0 0 25 0 0 29 0 0 30 0 0 45 0 0 175 0 0 12682 0 0 25426 0 0 25696 0 0 25473 0 0 25601 0 0 25460 0 0 25404 0 0 25261 0 0 25564 0 0 25566 0 0 25274 0 0 25564 0 0 25277 0 0 25370 0 0 25206 0 0 25059 0 0 25387 0 0 25441 0 0 25141 0 0 25131 0 0 25555 0 0 25644 0 0 25334 0 0 25449 0 0 25266 0 0 25442 0 0 25551 0 0 25553 0 0 25397 0 0 25552 0 0 25443 0 0 25428 0 0 25339 0 0 25315 0 0 25502 0 0 25340 0 0 25628 0 0 25436 0 0 25326 0 0 25504 0 0 12555 0 0 170 0 0 49 0 0 35 0 0 29 0 0 20 0 0 18 0 0 15 0 0 11 0 0 10 0 0 
7 0 0 17 0 0 19 0 0 17 0 0 20 0 0 25 0 0 26 0 0 34 0 0 41 0 0 184 0 0 12755 0 0 25338 0 0 25423 0 0 25650 0 0 25551 0 0 25342 0 0 25295 0 0 25475 0 0 25438 0 0 25569 0 0 25406 0 0 25541 0 0 25333 0 0 25613 0 0 25556 0 0 25559 0 0 25749 0 0 25564 0 0 25480 0 0 25492 0 0 25660 0 0 25473 0 0 25411 0 0 25311 0 0 25334 0 0 25566 0 0 25582 0 0 25719 0 0 25488 0 0 25328 0 0 25495 0 0 25547 0 0 25228 0 0 25419 0 0 25564 0 0 25586 0 0 25382 0 0 25615 0 0 25387 0 0 25543 0 0 12954 0 0 192 0 0 47 0 0 33 0 0 31 0 0 17 0 0 13 0 0 9 0 0 12 0 0 18 0 0 
11 0 0 14 0 0 10 0 0 17 0 0 21 0 0 29 0 0 35 0 0 32 0 0 38 0 0 182 0 0 12753 0 0 25339 0 0 25253 0 0 25634 0 0 25599 0 0 25388 0 0 25611 0 0 25499 0 0 25358 0 0 25205 0 0 25505 0 0 25537 0 0 25501 0 0 25389 0 0 25385 0 0 25765 0 0 25470 0 0 25631 0 0 25162 0 0 25307 0 0 25260 0 0 25356 0 0 25360 0 0 25524 0 0 25651 0 0 25391 0 0 25481 0 0 25279 0 0 25302 0 0 25467 0 0 25523 0 0 25722 0 0 25703 0 0 25343 0 0 25444 0 0 25455 0 0 25340 0 0 25689 0 0 25400 0 0 25361 0 0 12861 0 0 180 0 0 36 0 0 34 0 0 27 0 0 27 0 0 20 0 0 12 0 0 18 0 0 8 0 0 
5 0 0 13 0 0 15 0 0 13 0 0 17 0 0 24 0 0 29 0 0 44 0 0 51 0 0 188 0 0 12929 0 0 25402 0 0 25313 0 0 25287 0 0 25557 0 0 25449 0 0 25384 0 0 25517 0 0 25484 0 0 25425 0 0 25509 0 0 25489 0 0 25496 0 0 25264 0 0 25678 0 0 25276 0 0 25392 0 0 25463 0 0 25428 0 0 25344 0 0 25316 0 0 25343 0 0 25499 0 0 25673 0 0 25636 0 0 25425 0 0 25535 0 0 25475 0 0 25399 0 0 25383 0 0 25516 0 0 25372 0 0 25422 0 0 25230 0 0 25545 0 0 25281 0 0 25289 0 0 25591 0 0 25523 0 0 25426 0 0 12775 0 0 177 0 0 39 0 0 23 0 0 26 0 0 22 0 0 29 0 0 18 0 0 12 0 0 13 0 0 
7 0 0 17 0 0 20 0 0 16 0 0 19 0 0 20 0 0 22 0 0 34 0 0 47 0 0 162 0 0 12668 0 0 25351 0 0 25426 0 0 25163 0 0 25479 0 0 25542 0 0 25376 0 0 25555 0 0 25374 0 0 25482 0 0 25485 0 0 25522 0 0 25370 0 0 25602 0 0 25259 0 0 25436 0 0 25500 0 0 25418 0 0 25253 0 0 25559 0 0 25384 0 0 25442 0 0 25519 0 0 25349 0 0 25540 0 0 25478 0 0 25621 0 0 25471 0 0 25445 0 0 25723 0 0 25289 0 0 25499 0 0 25260 0 0 25683 0 0 25408 0 0 25347 0 0 25583 0 0 25314 0 0 25261 0 0 25386 0 0 12622 0 0 179 0 0 48 0 0 33 0 0 17 0 0 20 0 0 19 0 0 18 0 0 15 0 0 15 0 0 
5 0 0 17 0 0 14 0 0 26 0 0 24 0 0 25 0 0 23 0 0 36 0 0 49 0 0 169 0 0 12778 0 0 25250 0 0 25351 0 0 25261 0 0 25471 0 0 25396 0 0 25339 0 0 25347 0 0 25544 0 0 25631 0 0 25385 0 0 25484 0 0 25346 0 0 25595 0 0 25295 0 0 25243 0 0 25330 0 0 25403 0 0 25603 0 0 25392 0 0 25463 0 0 25556 0 0 25209 0 0 25407 0 0 25233 0 0 25485 0 0 25729 0 0 25815 0 0 25461 0 0 25569 0 0 25176 0 0 25469 0 0 25687 0 0 25421 0 0 25506 0 0 25345 0 0 25579 0 0 25600 0 0 25446 0 0 25336 0 0 12580 0 0 155 0 0 50 0 0 36 0 0 23 0 0 23 0 0 21 0 0 19 0 0 17 0 0 18 0 0 
6 0 0 12 0 0 19 0 0 22 0 0 28 0 0 23 0 0 33 0 0 32 0 0 41 0 0 174 0 0 12833 0 0 25291 0 0 25293 0 0 25363 0 0 25547 0 0 25516 0 0 25276 0 0 25307 0 0 25445 0 0 25281 0 0 25423 0 0 25361 0 0 25624 0 0 25637 0 0 25672 0 0 25542 0 0 25495 0 0 25473 0 0 25356 0 0 25488 0 0 25314 0 0 25318 0 0 25428 0 0 25720 0 0 25439 0 0 25449 0 0 25341 0 0 25493 0 0 25492 0 0 25554 0 0 25578 0 0 25559 0 0 25280 0 0 25576 0 0 25485 0 0 25449 0 0 25287 0 0 25502 0 0 25474 0 0 25298 0 0 12843 0 0 170 0 0 49 0 0 44 0 0 29 0 0 26 0 0 21 0 0 16 0 0 14 0 0 11 0 0 
4 0 0 13 0 0 16 0 0 14 0 0 18 0 0 23 0 0 28 0 0 38 0 0 43 0 0 165 0 0 12884 0 0 25142 0 0 25483 0 0 25433 0 0 25557 0 0 25487 0 0 25346 0 0 25234 0 0 25466 0 0 25214 0 0 25356 0 0 25531 0 0 25407 0 0 25435 0 0 25580 0 0 25422 0 0 25538 0 0 25585 0 0 25601 0 0 25557 0 0 25597 0 0 25625 0 0 25145 0 0 25408 0 0 25282 0 0 25316 0 0 25496 0 0 25420 0 0 25365 0 0 25527 0 0 25352 0 0 25437 0 0 25524 0 0 25280 0 0 25292 0 0 25421 0 0 25589 0 0 25466 0 0 25525 0 0 25338 0 0 12724 0 0 169 0 0 44 0 0 40 0 0 29 0 0 21 0 0 11 0 0 5 0 0 13 0 0 12 0 0 
6 0 0 12 0 0 12 0 0 18 0 0 27 0 0 28 0 0 22 0 0 33 0 0 34 0 0 164 0 0 12530 0 0 25092 0 0 25501 0 0 25471 0 0 25332 0 0 25544 0 0 25610 0 0 25370 0 0 25190 0 0 25452 0 0 25491 0 0 25510 0 0 25604 0 0 25458 0 0 25372 0 0 25620 0 0 25549 0 0 25401 0 0 25290 0 0 25446 0 0 25773 0 0 25683 0 0 25584 0 0 25543 0 0 25573 0 0 25413 0 0 25650 0 0 25308 0 0 25263 0 0 25394 0 0 25400 0 0 25706 0 0 25342 0 0 25366 0 0 25309 0 0 25562 0 0 25434 0 0 25332 0 0 25254 0 0 25251 0 0 12812 0 0 159 0 0 40 0 0 30 0 0 26 0 0 22 0 0 22 0 0 17 0 0 12 0 0 15 0 0 
4 0 0 11 0 0 16 0 0 13 0 0 15 0 0 24 0 0 27 0 0 28 0 0 35 0 0 169 0 0 12630 0 0 25219 0 0 25376 0 0 25464 0 0 25598 0 0 25363 0 0 25648 0 0 25399 0 0 25557 0 0 25356 0 0 25581 0 0 25372 0 0 25301 0 0 25464 0 0 25477 0 0 25587 0 0 25476 0 0 25629 0 0 25524 0 0 25490 0 0 25499 0 0 25409 0 0 25388 0 0 25563 0 0 25391 0 0 25465 0 0 25486 0 0 25464 0 0 25610 0 0 25258 0 0 25387 0 0 25699 0 0 25349 0 0 25569 0 0 25381 0 0 24961 0 0 25427 0 0 25292 0 0 25406 0 0 25266 0 0 12633 0 0 156 0 0 37 0 0 34 0 0 23 0 0 24 0 0 19 0 0 19 0 0 13 0 0 8 0 0 
5 0 0 15 0 0 16 0 0 15 0 0 21 0 0 19 0 0 27 0 0 20 0 0 32 0 0 165 0 0 12871 0 0 25198 0 0 25361 0 0 25478 0 0 25314 0 0 25518 0 0 25496 0 0 25367 0 0 25632 0 0 25299 0 0 25349 0 0 25318 0 0 25438 0 0 25568 0 0 25568 0 0 25489 0 0 25484 0 0 25253 0 0 25434 0 0 25587 0 0 25538 0 0 25346 0 0 25486 0 0 25511 0 0 25592 0 0 25339 0 0 25743 0 0 25248 0 0 25582 0 0 25244 0 0 25402 0 0 25413 0 0 25421 0 0 25352 0 0 25411 0 0 25414 0 0 25461 0 0 25521 0 0 25508 0 0 25198 0 0 12514 0 0 178 0 0 49 0 0 35 0 0 32 0 0 23 0 0 23 0 0 14 0 0 13 0 0 12 0 0 
5 0 0 13 0 0 18 0 0 16 0 0 19 0 0 21 0 0 19 0 0 27 0 0 43 0 0 163 0 0 12799 0 0 25183 0 0 25711 0 0 25439 0 0 25488 0 0 25526 0 0 25280 0 0 25458 0 0 25373 0 0 25664 0 0 25527 0 0 25370 0 0 25253 0 0 25551 0 0 25756 0 0 25294 0 0 25500 0 0 25755 0 0 25352 0 0 25565 0 0 25595 0 0 25533 0 0 25316 0 0 25405 0 0 25427 0 0 25363 0 0 25174 0 0 25435 0 0 25649 0 0 25200 0 0 25372 0 0 25594 0 0 25245 0 0 25348 0 0 25490 0 0 25559 0 0 25404 0 0 25294 0 0 25398 0 0 25496 0 0 12646 0 0 162 0 0 39 0 0 26 0 0 25 0 0 26 0 0 25 0 0 25 0 0 12 0 0 9 0 0 
7 0 0 16 0 0 17 0 0 12 0 0 13 0 0 15 0 0 12 0 0 24 0 0 45 0 0 167 0 0 12883 0 0 25449 0 0 25318 0 0 25315 0 0 25492 0 0 25203 0 0 25668 0 0 25389 0 0 25438 0 0 25648 0 0 25285 0 0 25636 0 0 25365 0 0 25277 0 0 25360 0 0 25321 0 0 25502 0 0 25622 0 0 25419 0 0 25572 0 0 25772 0 0 25529 0 0 25323 0 0 25321 0 0 25494 0 0 25574 0 0 25423 0 0 25445 0 0 25603 0 0 25723 0 0 25420 0 0 25477 0 0 25616 0 0 25313 0 0 25489 0 0 25590 0 0 25678 0 0 25509 0 0 25378 0 0 25381 0 0 12818 0 0 149 0 0 34 0 0 27 0 0 24 0 0 17 0 0 18 0 0 25 0 0 18 0 0 12 0 0 
9 0 0 26 0 0 14 0 0 12 0 0 11 0 0 16 0 0 18 0 0 23 0 0 30 0 0 158 0 0 12621 0 0 25252 0 0 25362 0 0 25563 0 0 25589 0 0 25581 0 0 25397 0 0 25254 0 0 25407 0 0 25456 0 0 25390 0 0 25438 0 0 25218 0 0 25119 0 0 25648 0 0 25223 0 0 25289 0 0 25209 0 0 25766 0 0 25462 0 0 25595 0 0 25476 0 0 25175 0 0 25356 0 0 25457 0 0 25561 0 0 25398 0 0 25448 0 0 25452 0 0 25406 0 0 25689 0 0 25575 0 0 25509 0 0 25531 0 0 25674 0 0 25369 0 0 25253 0 0 25250 0 0 25367 0 0 25432 0 0 12694 0 0 153 0 0 33 0 0 22 0 0 17 0 0 17 0 0 17 0 0 17 0 0 18 0 0 13 0 0 
6 0 0 11 0 0 11 0 0 9 0 0 16 0 0 12 0 0 17 0 0 26 0 0 29 0 0 155 0 0 12946 0 0 25320 0 0 25252 0 0 25055 0 0 25395 0 0 25380 0 0 25307 0 0 25548 0 0 25597 0 0 25236 0 0 25561 0 0 25545 0 0 25434 0 0 25381 0 0 25490 0 0 25621 0 0 25360 0 0 25175 0 0 25762 0 0 25237 0 0 25430 0 0 25451 0 0 25253 0 0 25618 0 0 25483 0 0 25327 0 0 25241 0 0 25264 0 0 25304 0 0 25288 0 0 25443 0 0 25375 0 0 25444 0 0 25647 0 0 25201 0 0 25485 0 0 25382 0 0 25209 0 0 25537 0 0 25325 0 0 12642 0 0 179 0 0 25 0 0 17 0 0 19 0 0 17 0 0 20 0 0 12 0 0 13 0 0 13 0 0 
5 0 0 9 0 0 12 0 0 9 0 0 12 0 0 9 0 0 14 0 0 20 0 0 30 0 0 152 0 0 12667 0 0 25027 0 0 25318 0 0 25125 0 0 25363 0 0 25601 0 0 25199 0 0 25360 0 0 25464 0 0 25432 0 0 25308 0 0 25283 0 0 25433 0 0 25365 0 0 25177 0 0 25237 0 0 25413 0 0 25451 0 0 25342 0 0 25223 0 0 25101 0 0 25321 0 0 24970 0 0 25335 0 0 25355 0 0 25324 0 0 25281 0 0 25111 0 0 25351 0 0 25342 0 0 25336 0 0 25016 0 0 25164 0 0 25088 0 0 25258 0 0 25408 0 0 25153 0 0 25469 0 0 25400 0 0 25277 0 0 12685 0 0 146 0 0 22 0 0 27 0 0 16 0 0 13 0 0 13 0 0 16 0 0 16 0 0 14 0 0 
2 0 0 8 0 0 3 0 0 6 0 0 4 0 0 7 0 0 16 0 0 24 0 0 21 0 0 77 0 0 6293 0 0 12664 0 0 12710 0 0 12541 0 0 12717 0 0 12700 0 0 12836 0 0 12896 0 0 12750 0 0 12821 0 0 12917 0 0 12871 0 0 12641 0 0 12823 0 0 12714 0 0 12638 0 0 12771 0 0 12795 0 0 12431 0 0 12716 0 0 12805 0 0 12839 0 0 12808 0 0 12784 0 0 12699 0 0 12689 0 0 12582 0 0 12634 0 0 12695 0 0 12676 0 0 12763 0 0 12684 0 0 12764 0 0 12753 0 0 12772 0 0 12525 0 0 12587 0 0 12657 0 0 12869 0 0 12595 0 0 6452 0 0 92 0 0 24 0 0 24 0 0 18 0 0 8 0 0 10 0 0 15 0 0 17 0 0 11 0 0 
2 0 0 5 0 0 7 0 0 10 0 0 9 0 0 14 0 0 15 0 0 12 0 0 14 0 0 25 0 0 98 0 0 141 0 0 163 0 0 164 0 0 165 0 0 152 0 0 179 0 0 152 0 0 156 0 0 137 0 0 156 0 0 168 0 0 171 0 0 160 0 0 178 0 0 192 0 0 180 0 0 157 0 0 167 0 0 164 0 0 180 0 0 162 0 0 167 0 0 164 0 0 177 0 0 181 0 0 154 0 0 167 0 0 173 0 0 172 0 0 165 0 0 172 0 0 154 0 0 150 0 0 156 0 0 168 0 0 169 0 0 148 0 0 143 0 0 148 0 0 79 0 0 27 0 0 24 0 0 19 0 0 13 0 0 9 0 0 8 0 0 13 0 0 5 0 0 6 0 0 
0 0 0 4 0 0 9 0 0 5 0 0 5 0 0 13 0 0 11 0 0 11 0 0 15 0 0 21 0 0 20 0 0 26 0 0 31 0 0 36 0 0 35 0 0 47 0 0 41 0 0 29 0 0 35 0 0 40 0 0 30 0 0 45 0 0 31 0 0 41 0 0 41 0 0 45 0 0 48 0 0 48 0 0 41 0 0 45 0 0 37 0 0 32 0 0 42 0 0 46 0 0 46 0 0 34 0 0 42 0 0 40 0 0 35 0 0 38 0 0 35 0 0 49 0 0 33 0 0 35 0 0 31 0 0 37 0 0 35 0 0 38 0 0 28 0 0 31 0 0 24 0 0 30 0 0 24 0 0 19 0 0 12 0 0 6 0 0 9 0 0 8 0 0 10 0 0 6 0 0 
2 0 0 7 0 0 7 0 0 8 0 0 13 0 0 8 0 0 5 0 0 14 0 0 16 0 0 20 0 0 20 0 0 27 0 0 33 0 0 24 0 0 29 0 0 29 0 0 31 0 0 25 0 0 31 0 0 26 0 0 27 0 0 32 0 0 28 0 0 37 0 0 24 0 0 28 0 0 39 0 0 42 0 0 39 0 0 42 0 0 30 0 0 18 0 0 29 0 0 36 0 0 31 0 0 37 0 0 36 0 0 34 0 0 30 0 0 29 0 0 31 0 0 35 0 0 27 0 0 26 0 0 25 0 0 33 0 0 30 0 0 31 0 0 14 0 0 24 0 0 19 0 0 21 0 0 13 0 0 20 0 0 17 0 0 11 0 0 11 0 0 7 0 0 9 0 0 6 0 0 
1 0 0 2 0 0 4 0 0 12 0 0 6 0 0 9 0 0 9 0 0 7 0 0 14 0 0 19 0 0 15 0 0 20 0 0 25 0 0 18 0 0 11 0 0 25 0 0 24 0 0 24 0 0 22 0 0 26 0 0 27 0 0 36 0 0 23 0 0 40 0 0 25 0 0 33 0 0 28 0 0 30 0 0 35 0 0 35 0 0 24 0 0 26 0 0 31 0 0 26 0 0 27 0 0 32 0 0 35 0 0 25 0 0 27 0 0 15 0 0 25 0 0 24 0 0 26 0 0 26 0 0 24 0 0 19 0 0 25 0 0 25 0 0 13 0 0 21 0 0 19 0 0 15 0 0 9 0 0 15 0 0 14 0 0 11 0 0 14 0 0 7 0 0 5 0 0 8 0 0 
0 0 0 6 0 0 8 0 0 9 0 0 6 0 0 6 0 0 5 0 0 7 0 0 10 0 0 14 0 0 17 0 0 12 0 0 13 0 0 13 0 0 11 0 0 24 0 0 25 0 0 18 0 0 24 0 0 23 0 0 21 0 0 29 0 0 20 0 0 29 0 0 21 0 0 28 0 0 23 0 0 27 0 0 24 0 0 22 0 0 21 0 0 22 0 0 23 0 0 22 0 0 20 0 0 25 0 0 23 0 0 13 0 0 22 0 0 15 0 0 19 0 0 15 0 0 16 0 0 28 0 0 25 0 0 17 0 0 15 0 0 28 0 0 14 0 0 16 0 0 20 0 0 14 0 0 13 0 0 13 0 0 12 0 0 8 0 0 8 0 0 9 0 0 5 0 0 6 0 0 
3 0 0 8 0 0 7 0 0 4 0 0 8 0 0 4 0 0 6 0 0 7 0 0 7 0 0 13 0 0 9 0 0 9 0 0 12 0 0 10 0 0 11 0 0 14 0 0 24 0 0 20 0 0 20 0 0 17 0 0 23 0 0 29 0 0 25 0 0 23 0 0 22 0 0 32 0 0 11 0 0 26 0 0 18 0 0 19 0 0 21 0 0 24 0 0 22 0 0 24 0 0 13 0 0 16 0 0 25 0 0 19 0 0 18 0 0 17 0 0 16 0 0 15 0 0 10 0 0 11 0 0 13 0 0 15 0 0 15 0 0 17 0 0 15 0 0 13 0 0 15 0 0 15 0 0 12 0 0 11 0 0 12 0 0 10 0 0 8 0 0 8 0 0 5 0 0 9 0 0 
2 0 0 7 0 0 4 0 0 6 0 0 5 0 0 9 0 0 8 0 0 6 0 0 7 0 0 12 0 0 4 0 0 7 0 0 13 0 0 10 0 0 11 0 0 19 0 0 17 0 0 15 0 0 14 0 0 12 0 0 21 0 0 24 0 0 20 0 0 16 0 0 19 0 0 12 0 0 19 0 0 18 0 0 17 0 0 17 0 0 19 0 0 22 0 0 17 0 0 18 0 0 20 0 0 19 0 0 23 0 0 15 0 0 12 0 0 17 0 0 23 0 0 19 0 0 15 0 0 9 0 0 13 0 0 12 0 0 10 0 0 12 0 0 14 0 0 18 0 0 17 0 0 10 0 0 14 0 0 7 0 0 15 0 0 9 0 0 8 0 0 11 0 0 9 0 0 4 0 0 
1 0 0 4 0 0 7 0 0 3 0 0 6 0 0 11 0 0 6 0 0 6 0 0 12 0 0 12 0 0 9 0 0 10 0 0 9 0 0 11 0 0 13 0 0 11 0 0 16 0 0 12 0 0 11 0 0 14 0 0 14 0 0 19 0 0 15 0 0 28 0 0 16 0 0 16 0 0 11 0 0 19 0 0 19 0 0 16 0 0 14 0 0 14 0 0 12 0 0 18 0 0 19 0 0 25 0 0 19 0 0 14 0 0 13 0 0 14 0 0 14 0 0 22 0 0 16 0 0 13 0 0 12 0 0 12 0 0 9 0 0 6 0 0 10 0 0 11 0 0 14 0 0 7 0 0 12 0 0 8 0 0 6 0 0 11 0 0 8 0 0 8 0 0 8 0 0 1 0 0 
5 0 0 8 0 0 4 0 0 5 0 0 7 0 0 4 0 0 5 0 0 11 0 0 10 0 0 11 0 0 10 0 0 6 0 0 11 0 0 13 0 0 12 0 0 11 0 0 9 0 0 15 0 0 5 0 0 9 0 0 12 0 0 12 0 0 21 0 0 23 0 0 9 0 0 11 0 0 7 0 0 14 0 0 20 0 0 9 0 0 7 0 0 12 0 0 13 0 0 15 0 0 13 0 0 18 0 0 16 0 0 16 0 0 11 0 0 11 0 0 12 0 0 16 0 0 18 0 0 13 0 0 15 0 0 11 0 0 9 0 0 8 0 0 10 0 0 8 0 0 12 0 0 12 0 0 14 0 0 5 0 0 7 0 0 9 0 0 6 0 0 10 0 0 9 0 0 6 0 0 
