P3
# This is a dose file slice at depth 28 of 100
60 60
# now we give the maximum value of the RGB coordinates.
32965
0 0 0 2 0 0 1 0 0 3 0 0 0 0 0 0 0 0 4 0 0 4 0 0 8 0 0 5 0 0 2 0 0 2 0 0 5 0 0 4 0 0 3 0 0 6 0 0 4 0 0 1 0 0 4 0 0 7 0 0 2 0 0 3 0 0 5 0 0 4 0 0 6 0 0 3 0 0 6 0 0 4 0 0 5 0 0 3 0 0 2 0 0 4 0 0 7 0 0 5 0 0 6 0 0 7 0 0 4 0 0 5 0 0 4 0 0 5 0 0 5 0 0 4 0 0 7 0 0 2 0 0 5 0 0 3 0 0 4 0 0 4 0 0 5 0 0 2 0 0 5 0 0 4 0 0 5 0 0 3 0 0 2 0 0 2 0 0 1 0 0 3 0 0 4 0 0 2 0 0 
2 0 0 5 0 0 5 0 0 9 0 0 4 0 0 1 0 0 2 0 0 9 0 0 11 0 0 13 0 0 10 0 0 6 0 0 11 0 0 6 0 0 6 0 0 12 0 0 16 0 0 6 0 0 8 0 0 13 0 0 6 0 0 4 0 0 10 0 0 12 0 0 6 0 0 11 0 0 15 0 0 11 0 0 12 0 0 9 0 0 9 0 0 10 0 0 9 0 0 8 0 0 12 0 0 12 0 0 13 0 0 7 0 0 8 0 0 11 0 0 15 0 0 11 0 0 7 0 0 7 0 0 11 0 0 6 0 0 14 0 0 12 0 0 6 0 0 10 0 0 5 0 0 6 0 0 6 0 0 5 0 0 1 0 0 8 0 0 2 0 0 7 0 0 7 0 0 4 0 0 
3 0 0 1 0 0 6 0 0 5 0 0 5 0 0 2 0 0 4 0 0 9 0 0 7 0 0 4 0 0 10 0 0 9 0 0 5 0 0 13 0 0 10 0 0 3 0 0 11 0 0 12 0 0 14 0 0 11 0 0 12 0 0 8 0 0 9 0 0 13 0 0 12 0 0 15 0 0 14 0 0 13 0 0 8 0 0 12 0 0 12 0 0 11 0 0 13 0 0 12 0 0 12 0 0 8 0 0 13 0 0 9 0 0 10 0 0 9 0 0 14 0 0 9 0 0 14 0 0 12 0 0 10 0 0 9 0 0 9 0 0 10 0 0 6 0 0 9 0 0 12 0 0 6 0 0 4 0 0 9 0 0 4 0 0 8 0 0 6 0 0 9 0 0 7 0 0 2 0 0 
2 0 0 3 0 0 4 0 0 9 0 0 9 0 0 6 0 0 5 0 0 8 0 0 4 0 0 7 0 0 6 0 0 9 0 0 12 0 0 14 0 0 9 0 0 11 0 0 11 0 0 7 0 0 19 0 0 17 0 0 8 0 0 12 0 0 9 0 0 16 0 0 16 0 0 13 0 0 15 0 0 17 0 0 13 0 0 12 0 0 12 0 0 12 0 0 12 0 0 20 0 0 10 0 0 17 0 0 11 0 0 12 0 0 11 0 0 12 0 0 11 0 0 9 0 0 17 0 0 16 0 0 14 0 0 12 0 0 10 0 0 4 0 0 10 0 0 11 0 0 11 0 0 8 0 0 10 0 0 9 0 0 10 0 0 10 0 0 7 0 0 7 0 0 10 0 0 6 0 0 
3 0 0 8 0 0 6 0 0 9 0 0 8 0 0 7 0 0 8 0 0 12 0 0 11 0 0 8 0 0 9 0 0 11 0 0 9 0 0 9 0 0 16 0 0 14 0 0 12 0 0 12 0 0 13 0 0 10 0 0 11 0 0 9 0 0 9 0 0 9 0 0 20 0 0 19 0 0 21 0 0 15 0 0 13 0 0 18 0 0 11 0 0 11 0 0 12 0 0 21 0 0 9 0 0 15 0 0 16 0 0 14 0 0 16 0 0 13 0 0 14 0 0 15 0 0 12 0 0 15 0 0 14 0 0 15 0 0 7 0 0 11 0 0 9 0 0 12 0 0 7 0 0 9 0 0 7 0 0 10 0 0 13 0 0 5 0 0 11 0 0 7 0 0 8 0 0 4 0 0 
2 0 0 6 0 0 9 0 0 8 0 0 10 0 0 10 0 0 7 0 0 3 0 0 13 0 0 10 0 0 7 0 0 6 0 0 18 0 0 9 0 0 24 0 0 16 0 0 13 0 0 16 0 0 14 0 0 14 0 0 11 0 0 15 0 0 12 0 0 21 0 0 25 0 0 23 0 0 29 0 0 26 0 0 22 0 0 12 0 0 10 0 0 18 0 0 11 0 0 21 0 0 13 0 0 12 0 0 18 0 0 24 0 0 24 0 0 13 0 0 17 0 0 14 0 0 20 0 0 15 0 0 17 0 0 18 0 0 8 0 0 8 0 0 13 0 0 10 0 0 9 0 0 13 0 0 12 0 0 8 0 0 6 0 0 10 0 0 6 0 0 9 0 0 6 0 0 5 0 0 
2 0 0 4 0 0 7 0 0 6 0 0 12 0 0 9 0 0 7 0 0 10 0 0 18 0 0 9 0 0 10 0 0 12 0 0 9 0 0 13 0 0 18 0 0 20 0 0 20 0 0 18 0 0 19 0 0 20 0 0 17 0 0 16 0 0 13 0 0 22 0 0 27 0 0 27 0 0 35 0 0 19 0 0 21 0 0 25 0 0 18 0 0 22 0 0 11 0 0 28 0 0 21 0 0 28 0 0 19 0 0 27 0 0 15 0 0 24 0 0 9 0 0 17 0 0 29 0 0 16 0 0 15 0 0 24 0 0 13 0 0 17 0 0 17 0 0 15 0 0 19 0 0 11 0 0 6 0 0 8 0 0 6 0 0 9 0 0 9 0 0 6 0 0 4 0 0 7 0 0 
1 0 0 6 0 0 3 0 0 6 0 0 11 0 0 5 0 0 4 0 0 7 0 0 12 0 0 15 0 0 12 0 0 16 0 0 13 0 0 16 0 0 16 0 0 25 0 0 25 0 0 17 0 0 29 0 0 25 0 0 17 0 0 30 0 0 29 0 0 27 0 0 22 0 0 29 0 0 33 0 0 32 0 0 20 0 0 25 0 0 26 0 0 21 0 0 24 0 0 23 0 0 22 0 0 26 0 0 16 0 0 26 0 0 25 0 0 24 0 0 22 0 0 25 0 0 20 0 0 12 0 0 29 0 0 27 0 0 19 0 0 14 0 0 20 0 0 22 0 0 15 0 0 14 0 0 14 0 0 6 0 0 9 0 0 8 0 0 11 0 0 5 0 0 5 0 0 8 0 0 
2 0 0 5 0 0 8 0 0 10 0 0 12 0 0 15 0 0 12 0 0 9 0 0 13 0 0 22 0 0 17 0 0 24 0 0 22 0 0 24 0 0 27 0 0 31 0 0 23 0 0 36 0 0 39 0 0 27 0 0 22 0 0 31 0 0 32 0 0 39 0 0 28 0 0 38 0 0 35 0 0 38 0 0 31 0 0 32 0 0 31 0 0 25 0 0 33 0 0 35 0 0 24 0 0 29 0 0 25 0 0 32 0 0 39 0 0 38 0 0 32 0 0 34 0 0 34 0 0 33 0 0 29 0 0 24 0 0 23 0 0 25 0 0 17 0 0 20 0 0 21 0 0 9 0 0 14 0 0 13 0 0 12 0 0 9 0 0 11 0 0 9 0 0 8 0 0 9 0 0 
4 0 0 5 0 0 9 0 0 9 0 0 7 0 0 10 0 0 11 0 0 17 0 0 15 0 0 25 0 0 70 0 0 125 0 0 109 0 0 111 0 0 116 0 0 132 0 0 130 0 0 100 0 0 118 0 0 130 0 0 113 0 0 135 0 0 132 0 0 124 0 0 116 0 0 114 0 0 125 0 0 127 0 0 149 0 0 120 0 0 132 0 0 123 0 0 140 0 0 128 0 0 123 0 0 113 0 0 127 0 0 121 0 0 135 0 0 134 0 0 121 0 0 117 0 0 131 0 0 132 0 0 108 0 0 105 0 0 121 0 0 111 0 0 122 0 0 112 0 0 55 0 0 16 0 0 14 0 0 13 0 0 13 0 0 10 0 0 4 0 0 10 0 0 8 0 0 10 0 0 
1 0 0 5 0 0 11 0 0 14 0 0 13 0 0 7 0 0 14 0 0 14 0 0 20 0 0 59 0 0 4416 0 0 8651 0 0 8698 0 0 8765 0 0 8599 0 0 8848 0 0 8696 0 0 8726 0 0 8667 0 0 8690 0 0 8631 0 0 8863 0 0 8776 0 0 8807 0 0 8690 0 0 8904 0 0 8782 0 0 8703 0 0 8825 0 0 8808 0 0 8715 0 0 8860 0 0 8766 0 0 8750 0 0 8854 0 0 8722 0 0 8748 0 0 8732 0 0 8804 0 0 8854 0 0 8837 0 0 8623 0 0 8753 0 0 8682 0 0 8790 0 0 8579 0 0 8609 0 0 8640 0 0 8679 0 0 8739 0 0 4356 0 0 64 0 0 20 0 0 14 0 0 12 0 0 6 0 0 8 0 0 12 0 0 6 0 0 5 0 0 
2 0 0 12 0 0 6 0 0 11 0 0 18 0 0 10 0 0 10 0 0 17 0 0 14 0 0 101 0 0 8628 0 0 17148 0 0 17241 0 0 17326 0 0 17519 0 0 17638 0 0 17454 0 0 17489 0 0 17423 0 0 17169 0 0 17314 0 0 17358 0 0 17250 0 0 17374 0 0 17336 0 0 17367 0 0 17451 0 0 17434 0 0 17338 0 0 17363 0 0 17393 0 0 17321 0 0 17329 0 0 17168 0 0 17619 0 0 17294 0 0 17344 0 0 17617 0 0 17370 0 0 17232 0 0 17297 0 0 17247 0 0 17635 0 0 17389 0 0 17510 0 0 17352 0 0 17433 0 0 17194 0 0 17426 0 0 17288 0 0 8673 0 0 127 0 0 21 0 0 16 0 0 12 0 0 16 0 0 14 0 0 13 0 0 8 0 0 2 0 0 
2 0 0 6 0 0 7 0 0 6 0 0 7 0 0 17 0 0 15 0 0 18 0 0 23 0 0 123 0 0 8742 0 0 17128 0 0 17506 0 0 17450 0 0 17357 0 0 17606 0 0 17384 0 0 17463 0 0 17385 0 0 17591 0 0 17519 0 0 17440 0 0 17786 0 0 17400 0 0 17324 0 0 17594 0 0 17306 0 0 17679 0 0 17465 0 0 17543 0 0 17389 0 0 17356 0 0 17600 0 0 17380 0 0 17415 0 0 17199 0 0 17502 0 0 17380 0 0 17666 0 0 17611 0 0 17390 0 0 17321 0 0 17362 0 0 17510 0 0 17548 0 0 17498 0 0 17464 0 0 17414 0 0 17578 0 0 17322 0 0 8770 0 0 109 0 0 24 0 0 26 0 0 17 0 0 12 0 0 11 0 0 8 0 0 7 0 0 12 0 0 
5 0 0 13 0 0 11 0 0 7 0 0 10 0 0 8 0 0 15 0 0 24 0 0 24 0 0 118 0 0 8982 0 0 17216 0 0 17405 0 0 17292 0 0 17292 0 0 17508 0 0 17564 0 0 17554 0 0 17437 0 0 17574 0 0 17565 0 0 17464 0 0 17580 0 0 17448 0 0 17549 0 0 17427 0 0 17719 0 0 17536 0 0 17360 0 0 17620 0 0 17387 0 0 17519 0 0 17533 0 0 17591 0 0 17527 0 0 17452 0 0 17467 0 0 17415 0 0 17335 0 0 17662 0 0 17350 0 0 17591 0 0 17535 0 0 17471 0 0 17460 0 0 17380 0 0 17365 0 0 17264 0 0 17424 0 0 17333 0 0 8747 0 0 129 0 0 33 0 0 11 0 0 17 0 0 17 0 0 12 0 0 12 0 0 15 0 0 18 0 0 
5 0 0 10 0 0 9 0 0 12 0 0 6 0 0 6 0 0 10 0 0 17 0 0 36 0 0 125 0 0 8763 0 0 17432 0 0 17574 0 0 17471 0 0 17615 0 0 17249 0 0 17603 0 0 17585 0 0 17451 0 0 17510 0 0 17632 0 0 17339 0 0 17547 0 0 17419 0 0 17385 0 0 17591 0 0 17541 0 0 17525 0 0 17576 0 0 17529 0 0 17445 0 0 17412 0 0 17513 0 0 17382 0 0 17643 0 0 17651 0 0 17574 0 0 17705 0 0 17518 0 0 17576 0 0 17452 0 0 17265 0 0 17410 0 0 17419 0 0 17436 0 0 17389 0 0 17470 0 0 17489 0 0 17547 0 0 17396 0 0 8671 0 0 118 0 0 32 0 0 28 0 0 18 0 0 21 0 0 12 0 0 16 0 0 20 0 0 12 0 0 
3 0 0 13 0 0 14 0 0 15 0 0 17 0 0 12 0 0 12 0 0 25 0 0 21 0 0 137 0 0 8688 0 0 17449 0 0 17563 0 0 17345 0 0 17564 0 0 17559 0 0 17563 0 0 17535 0 0 17234 0 0 17407 0 0 17266 0 0 17402 0 0 17439 0 0 17547 0 0 17513 0 0 17618 0 0 17316 0 0 17253 0 0 17471 0 0 17463 0 0 17408 0 0 17556 0 0 17291 0 0 17430 0 0 17520 0 0 17548 0 0 17546 0 0 17687 0 0 17626 0 0 17512 0 0 17516 0 0 17740 0 0 17652 0 0 17559 0 0 17336 0 0 17509 0 0 17278 0 0 17636 0 0 17413 0 0 17295 0 0 8673 0 0 140 0 0 33 0 0 25 0 0 26 0 0 20 0 0 14 0 0 22 0 0 14 0 0 9 0 0 
6 0 0 6 0 0 10 0 0 12 0 0 14 0 0 17 0 0 15 0 0 23 0 0 35 0 0 122 0 0 8693 0 0 17271 0 0 17384 0 0 17400 0 0 17405 0 0 17483 0 0 17405 0 0 17303 0 0 17565 0 0 17538 0 0 17447 0 0 17722 0 0 17559 0 0 17668 0 0 17395 0 0 17556 0 0 17444 0 0 17270 0 0 17403 0 0 17298 0 0 17486 0 0 17503 0 0 17543 0 0 17524 0 0 17413 0 0 17489 0 0 17404 0 0 17574 0 0 17329 0 0 17478 0 0 17650 0 0 17645 0 0 17384 0 0 17834 0 0 17399 0 0 17481 0 0 17636 0 0 17359 0 0 17381 0 0 17323 0 0 8760 0 0 132 0 0 22 0 0 23 0 0 19 0 0 16 0 0 17 0 0 16 0 0 10 0 0 12 0 0 
3 0 0 12 0 0 7 0 0 8 0 0 14 0 0 22 0 0 14 0 0 27 0 0 32 0 0 132 0 0 8785 0 0 17206 0 0 17361 0 0 17439 0 0 17381 0 0 17488 0 0 17486 0 0 17404 0 0 17535 0 0 17526 0 0 17684 0 0 17353 0 0 17414 0 0 17570 0 0 17690 0 0 17364 0 0 17526 0 0 17472 0 0 17537 0 0 17432 0 0 17455 0 0 17591 0 0 17601 0 0 17601 0 0 17655 0 0 17469 0 0 17378 0 0 17361 0 0 17520 0 0 17503 0 0 17456 0 0 17663 0 0 17509 0 0 17641 0 0 17335 0 0 17459 0 0 17412 0 0 17500 0 0 17414 0 0 17421 0 0 8723 0 0 114 0 0 36 0 0 22 0 0 23 0 0 21 0 0 17 0 0 13 0 0 10 0 0 10 0 0 
5 0 0 13 0 0 13 0 0 13 0 0 20 0 0 24 0 0 21 0 0 23 0 0 34 0 0 108 0 0 8653 0 0 17039 0 0 17435 0 0 17359 0 0 17463 0 0 17376 0 0 17524 0 0 17390 0 0 17626 0 0 17559 0 0 17637 0 0 17592 0 0 17621 0 0 17635 0 0 17462 0 0 17347 0 0 17448 0 0 17413 0 0 17640 0 0 17507 0 0 17424 0 0 17516 0 0 17540 0 0 17582 0 0 17341 0 0 17369 0 0 17503 0 0 17586 0 0 17565 0 0 17575 0 0 17617 0 0 17406 0 0 17583 0 0 17393 0 0 17691 0 0 17287 0 0 17450 0 0 17462 0 0 17268 0 0 17163 0 0 8712 0 0 137 0 0 33 0 0 28 0 0 18 0 0 22 0 0 17 0 0 12 0 0 15 0 0 12 0 0 
3 0 0 10 0 0 9 0 0 8 0 0 9 0 0 14 0 0 19 0 0 17 0 0 21 0 0 113 0 0 8878 0 0 17257 0 0 17406 0 0 17217 0 0 17393 0 0 17398 0 0 17472 0 0 17677 0 0 17361 0 0 17412 0 0 17565 0 0 17331 0 0 17718 0 0 17529 0 0 17523 0 0 17344 0 0 17463 0 0 17317 0 0 17428 0 0 17444 0 0 17654 0 0 17445 0 0 17766 0 0 17435 0 0 17520 0 0 17364 0 0 17448 0 0 17358 0 0 17360 0 0 17683 0 0 17674 0 0 17222 0 0 17534 0 0 17568 0 0 17476 0 0 17364 0 0 17545 0 0 17457 0 0 17734 0 0 17332 0 0 8744 0 0 130 0 0 34 0 0 25 0 0 21 0 0 20 0 0 12 0 0 10 0 0 12 0 0 8 0 0 
6 0 0 5 0 0 19 0 0 17 0 0 13 0 0 14 0 0 23 0 0 27 0 0 33 0 0 126 0 0 8686 0 0 17330 0 0 17302 0 0 17411 0 0 17644 0 0 17468 0 0 17434 0 0 17487 0 0 17364 0 0 17573 0 0 17512 0 0 17606 0 0 17429 0 0 17493 0 0 17614 0 0 17480 0 0 17349 0 0 17323 0 0 17591 0 0 17503 0 0 17642 0 0 17476 0 0 17538 0 0 17486 0 0 17528 0 0 17451 0 0 17578 0 0 17344 0 0 17549 0 0 17604 0 0 17583 0 0 17863 0 0 17469 0 0 17582 0 0 17472 0 0 17700 0 0 17518 0 0 17467 0 0 17290 0 0 17466 0 0 8835 0 0 125 0 0 35 0 0 29 0 0 24 0 0 16 0 0 7 0 0 8 0 0 15 0 0 12 0 0 
6 0 0 14 0 0 12 0 0 23 0 0 18 0 0 17 0 0 23 0 0 29 0 0 24 0 0 131 0 0 8781 0 0 17348 0 0 17533 0 0 17668 0 0 17426 0 0 17429 0 0 17787 0 0 17578 0 0 17593 0 0 17301 0 0 17570 0 0 17621 0 0 17566 0 0 17458 0 0 17477 0 0 17320 0 0 17476 0 0 17503 0 0 17720 0 0 17443 0 0 17552 0 0 17597 0 0 17654 0 0 17631 0 0 17671 0 0 17416 0 0 17546 0 0 17481 0 0 17358 0 0 17519 0 0 17734 0 0 17728 0 0 17416 0 0 17601 0 0 17626 0 0 17500 0 0 17506 0 0 17593 0 0 17406 0 0 17444 0 0 8712 0 0 143 0 0 40 0 0 22 0 0 21 0 0 12 0 0 14 0 0 12 0 0 14 0 0 11 0 0 
5 0 0 11 0 0 11 0 0 15 0 0 19 0 0 17 0 0 20 0 0 25 0 0 21 0 0 114 0 0 8715 0 0 17387 0 0 17689 0 0 17573 0 0 17384 0 0 17683 0 0 17673 0 0 17637 0 0 17589 0 0 17345 0 0 17456 0 0 17328 0 0 17603 0 0 17625 0 0 17630 0 0 17507 0 0 17755 0 0 17470 0 0 17539 0 0 17561 0 0 17774 0 0 17561 0 0 17580 0 0 17381 0 0 17406 0 0 17618 0 0 17411 0 0 17568 0 0 17504 0 0 17517 0 0 17386 0 0 17460 0 0 17577 0 0 17417 0 0 17435 0 0 17315 0 0 17501 0 0 17464 0 0 17376 0 0 17608 0 0 8756 0 0 129 0 0 32 0 0 24 0 0 27 0 0 20 0 0 17 0 0 14 0 0 7 0 0 5 0 0 
4 0 0 13 0 0 14 0 0 13 0 0 11 0 0 12 0 0 19 0 0 24 0 0 30 0 0 123 0 0 8880 0 0 17592 0 0 17385 0 0 17667 0 0 17562 0 0 17464 0 0 17560 0 0 17464 0 0 17428 0 0 17423 0 0 17440 0 0 17394 0 0 17488 0 0 17437 0 0 17495 0 0 17631 0 0 17368 0 0 17588 0 0 17545 0 0 17548 0 0 17581 0 0 17548 0 0 17633 0 0 17457 0 0 17420 0 0 17706 0 0 17427 0 0 17330 0 0 17272 0 0 17681 0 0 17626 0 0 17277 0 0 17426 0 0 17545 0 0 17471 0 0 17590 0 0 17290 0 0 17482 0 0 17390 0 0 17576 0 0 8841 0 0 137 0 0 30 0 0 22 0 0 14 0 0 14 0 0 17 0 0 14 0 0 11 0 0 8 0 0 
1 0 0 9 0 0 12 0 0 12 0 0 13 0 0 15 0 0 19 0 0 22 0 0 36 0 0 149 0 0 8818 0 0 17413 0 0 17510 0 0 17477 0 0 17411 0 0 17571 0 0 17559 0 0 17506 0 0 17395 0 0 17265 0 0 17612 0 0 17583 0 0 17452 0 0 17471 0 0 17581 0 0 17676 0 0 17429 0 0 17616 0 0 17397 0 0 17563 0 0 17484 0 0 17595 0 0 17567 0 0 17577 0 0 17540 0 0 17551 0 0 17614 0 0 17357 0 0 17476 0 0 17408 0 0 17582 0 0 17594 0 0 17389 0 0 17312 0 0 17333 0 0 17620 0 0 17407 0 0 17227 0 0 17609 0 0 17539 0 0 8726 0 0 133 0 0 35 0 0 27 0 0 14 0 0 18 0 0 16 0 0 12 0 0 5 0 0 6 0 0 
10 0 0 13 0 0 12 0 0 12 0 0 10 0 0 13 0 0 24 0 0 30 0 0 28 0 0 133 0 0 8561 0 0 17395 0 0 17468 0 0 17637 0 0 17371 0 0 17506 0 0 17446 0 0 17544 0 0 17468 0 0 17343 0 0 17596 0 0 17606 0 0 17531 0 0 17606 0 0 17804 0 0 17546 0 0 17538 0 0 17645 0 0 17393 0 0 17425 0 0 17455 0 0 17614 0 0 17601 0 0 17569 0 0 17384 0 0 17602 0 0 17334 0 0 17560 0 0 17458 0 0 17403 0 0 17637 0 0 17396 0 0 17387 0 0 17581 0 0 17431 0 0 17368 0 0 17424 0 0 17549 0 0 17550 0 0 17470 0 0 8676 0 0 133 0 0 34 0 0 24 0 0 21 0 0 14 0 0 19 0 0 11 0 0 12 0 0 12 0 0 
6 0 0 13 0 0 10 0 0 24 0 0 24 0 0 19 0 0 16 0 0 29 0 0 41 0 0 137 0 0 8726 0 0 17507 0 0 17379 0 0 17469 0 0 17613 0 0 17612 0 0 17642 0 0 17411 0 0 17504 0 0 17279 0 0 17581 0 0 17426 0 0 17682 0 0 17381 0 0 17405 0 0 17573 0 0 17553 0 0 17477 0 0 17461 0 0 17441 0 0 17717 0 0 17655 0 0 17657 0 0 17442 0 0 17408 0 0 17586 0 0 17530 0 0 17298 0 0 17395 0 0 17402 0 0 17160 0 0 17431 0 0 17389 0 0 17574 0 0 17426 0 0 17497 0 0 17563 0 0 17376 0 0 17373 0 0 17363 0 0 8874 0 0 137 0 0 39 0 0 24 0 0 22 0 0 23 0 0 19 0 0 14 0 0 12 0 0 18 0 0 
5 0 0 14 0 0 16 0 0 19 0 0 13 0 0 19 0 0 23 0 0 28 0 0 36 0 0 143 0 0 8780 0 0 17118 0 0 17482 0 0 17380 0 0 17493 0 0 17502 0 0 17585 0 0 17337 0 0 17478 0 0 17533 0 0 17423 0 0 17514 0 0 17441 0 0 17267 0 0 17515 0 0 17331 0 0 17513 0 0 17698 0 0 17595 0 0 17607 0 0 17635 0 0 17474 0 0 17408 0 0 17630 0 0 17569 0 0 17450 0 0 17656 0 0 17408 0 0 17455 0 0 17648 0 0 17735 0 0 17518 0 0 17269 0 0 17538 0 0 17455 0 0 17609 0 0 17569 0 0 17646 0 0 17370 0 0 17383 0 0 8602 0 0 132 0 0 30 0 0 24 0 0 27 0 0 22 0 0 21 0 0 13 0 0 15 0 0 10 0 0 
6 0 0 11 0 0 8 0 0 7 0 0 18 0 0 17 0 0 16 0 0 18 0 0 24 0 0 136 0 0 8768 0 0 17396 0 0 17562 0 0 17491 0 0 17533 0 0 17546 0 0 17465 0 0 17324 0 0 17382 0 0 17494 0 0 17520 0 0 17494 0 0 17597 0 0 17548 0 0 17746 0 0 17408 0 0 17489 0 0 17364 0 0 17624 0 0 17512 0 0 17518 0 0 17495 0 0 17470 0 0 17606 0 0 17363 0 0 17413 0 0 17564 0 0 17545 0 0 17332 0 0 17520 0 0 17696 0 0 17477 0 0 17586 0 0 17515 0 0 17567 0 0 17504 0 0 17602 0 0 17294 0 0 17511 0 0 17309 0 0 8836 0 0 134 0 0 33 0 0 36 0 0 23 0 0 11 0 0 13 0 0 16 0 0 9 0 0 11 0 0 
5 0 0 9 0 0 7 0 0 8 0 0 11 0 0 12 0 0 12 0 0 20 0 0 32 0 0 124 0 0 8806 0 0 17422 0 0 17456 0 0 17471 0 0 17555 0 0 17439 0 0 17647 0 0 17341 0 0 17579 0 0 17625 0 0 17669 0 0 17574 0 0 17597 0 0 17499 0 0 17692 0 0 17605 0 0 17479 0 0 17824 0 0 17442 0 0 17343 0 0 17560 0 0 17437 0 0 17605 0 0 17531 0 0 17267 0 0 17675 0 0 17498 0 0 17490 0 0 17485 0 0 17472 0 0 17447 0 0 17436 0 0 17323 0 0 17482 0 0 17417 0 0 17568 0 0 17380 0 0 17670 0 0 17562 0 0 17374 0 0 8748 0 0 122 0 0 39 0 0 19 0 0 23 0 0 18 0 0 12 0 0 16 0 0 10 0 0 6 0 0 
5 0 0 8 0 0 12 0 0 9 0 0 12 0 0 22 0 0 27 0 0 28 0 0 36 0 0 130 0 0 8867 0 0 17335 0 0 17443 0 0 17416 0 0 17661 0 0 17293 0 0 17530 0 0 17459 0 0 17608 0 0 17352 0 0 17437 0 0 17500 0 0 17393 0 0 17395 0 0 17449 0 0 17503 0 0 17508 0 0 17822 0 0 17633 0 0 17531 0 0 17493 0 0 17766 0 0 17547 0 0 17597 0 0 17411 0 0 17279 0 0 17484 0 0 17496 0 0 17610 0 0 17568 0 0 17491 0 0 17451 0 0 17482 0 0 17508 0 0 17413 0 0 17483 0 0 17257 0 0 17591 0 0 17358 0 0 17475 0 0 8839 0 0 118 0 0 36 0 0 17 0 0 13 0 0 16 0 0 11 0 0 14 0 0 12 0 0 13 0 0 
4 0 0 7 0 0 9 0 0 13 0 0 14 0 0 20 0 0 21 0 0 31 0 0 34 0 0 151 0 0 8715 0 0 17543 0 0 17299 0 0 17241 0 0 17625 0 0 17388 0 0 17671 0 0 17422 0 0 17619 0 0 17522 0 0 17777 0 0 17499 0 0 17795 0 0 17393 0 0 17501 0 0 17872 0 0 17739 0 0 17765 0 0 17576 0 0 17647 0 0 17559 0 0 17411 0 0 17553 0 0 17449 0 0 17540 0 0 17545 0 0 17728 0 0 17460 0 0 17447 0 0 17485 0 0 17394 0 0 17531 0 0 17565 0 0 17334 0 0 17636 0 0 17507 0 0 17535 0 0 17590 0 0 17614 0 0 17505 0 0 8743 0 0 123 0 0 36 0 0 24 0 0 25 0 0 20 0 0 15 0 0 17 0 0 12 0 0 11 0 0 
5 0 0 8 0 0 9 0 0 18 0 0 22 0 0 21 0 0 20 0 0 30 0 0 43 0 0 136 0 0 8644 0 0 17278 0 0 17407 0 0 17420 0 0 17597 0 0 17588 0 0 17509 0 0 17559 0 0 17581 0 0 17725 0 0 17365 0 0 17610 0 0 17528 0 0 17254 0 0 17548 0 0 17403 0 0 17512 0 0 17655 0 0 17499 0 0 17501 0 0 17269 0 0 17618 0 0 17438 0 0 17599 0 0 17313 0 0 17629 0 0 17378 0 0 17622 0 0 17344 0 0 17580 0 0 17436 0 0 17678 0 0 17403 0 0 17591 0 0 17346 0 0 17267 0 0 17479 0 0 17621 0 0 17575 0 0 17130 0 0 8748 0 0 140 0 0 31 0 0 21 0 0 21 0 0 18 0 0 16 0 0 16 0 0 14 0 0 8 0 0 
4 0 0 12 0 0 12 0 0 18 0 0 15 0 0 16 0 0 24 0 0 31 0 0 33 0 0 141 0 0 8837 0 0 17508 0 0 17647 0 0 17570 0 0 17603 0 0 17355 0 0 17505 0 0 17656 0 0 17550 0 0 17485 0 0 17438 0 0 17664 0 0 17571 0 0 17588 0 0 17656 0 0 17675 0 0 17471 0 0 17493 0 0 17541 0 0 17624 0 0 17564 0 0 17457 0 0 17640 0 0 17404 0 0 17444 0 0 17620 0 0 17424 0 0 17590 0 0 17634 0 0 17519 0 0 17437 0 0 17718 0 0 17471 0 0 17567 0 0 17567 0 0 17497 0 0 17588 0 0 17490 0 0 17412 0 0 17532 0 0 8775 0 0 148 0 0 37 0 0 20 0 0 18 0 0 20 0 0 19 0 0 18 0 0 11 0 0 9 0 0 
6 0 0 10 0 0 15 0 0 16 0 0 14 0 0 15 0 0 27 0 0 29 0 0 37 0 0 142 0 0 8740 0 0 17459 0 0 17325 0 0 17501 0 0 17547 0 0 17772 0 0 17566 0 0 17312 0 0 17448 0 0 17553 0 0 17512 0 0 17600 0 0 17318 0 0 17690 0 0 17472 0 0 17628 0 0 17552 0 0 17356 0 0 17441 0 0 17428 0 0 17428 0 0 17438 0 0 17512 0 0 17583 0 0 17542 0 0 17274 0 0 17450 0 0 17474 0 0 17559 0 0 17412 0 0 17701 0 0 17571 0 0 17599 0 0 17618 0 0 17648 0 0 17228 0 0 17444 0 0 17658 0 0 17295 0 0 17476 0 0 8782 0 0 129 0 0 31 0 0 27 0 0 21 0 0 22 0 0 13 0 0 11 0 0 12 0 0 11 0 0 
4 0 0 12 0 0 15 0 0 13 0 0 16 0 0 15 0 0 21 0 0 27 0 0 30 0 0 124 0 0 8736 0 0 17313 0 0 17604 0 0 17457 0 0 17586 0 0 17367 0 0 17339 0 0 17389 0 0 17396 0 0 17381 0 0 17378 0 0 17391 0 0 17492 0 0 17515 0 0 17565 0 0 17325 0 0 17560 0 0 17594 0 0 17675 0 0 17517 0 0 17584 0 0 17438 0 0 17638 0 0 17665 0 0 17624 0 0 17457 0 0 17532 0 0 17453 0 0 17527 0 0 17251 0 0 17263 0 0 17062 0 0 17611 0 0 17525 0 0 17632 0 0 17725 0 0 17591 0 0 17445 0 0 17483 0 0 17416 0 0 8835 0 0 118 0 0 30 0 0 18 0 0 24 0 0 20 0 0 10 0 0 17 0 0 16 0 0 12 0 0 
6 0 0 11 0 0 19 0 0 17 0 0 12 0 0 16 0 0 19 0 0 23 0 0 35 0 0 129 0 0 8786 0 0 17497 0 0 17506 0 0 17405 0 0 17539 0 0 17525 0 0 17602 0 0 17397 0 0 17646 0 0 17368 0 0 17508 0 0 17293 0 0 17370 0 0 17490 0 0 17628 0 0 17659 0 0 17586 0 0 17314 0 0 17661 0 0 17389 0 0 17588 0 0 17447 0 0 17736 0 0 17416 0 0 17221 0 0 17509 0 0 17668 0 0 17498 0 0 17762 0 0 17664 0 0 17503 0 0 17387 0 0 17477 0 0 17429 0 0 17544 0 0 17416 0 0 17585 0 0 17493 0 0 17355 0 0 17378 0 0 8700 0 0 111 0 0 27 0 0 33 0 0 21 0 0 12 0 0 8 0 0 12 0 0 12 0 0 10 0 0 
3 0 0 6 0 0 15 0 0 16 0 0 13 0 0 15 0 0 12 0 0 17 0 0 35 0 0 125 0 0 8720 0 0 17468 0 0 17544 0 0 17420 0 0 17536 0 0 17577 0 0 17540 0 0 17285 0 0 17520 0 0 17332 0 0 17479 0 0 17703 0 0 17511 0 0 17449 0 0 17533 0 0 17548 0 0 17574 0 0 17402 0 0 17527 0 0 17536 0 0 17620 0 0 17620 0 0 17610 0 0 17536 0 0 17536 0 0 17372 0 0 17511 0 0 17597 0 0 17505 0 0 17411 0 0 17518 0 0 17390 0 0 17590 0 0 17431 0 0 17318 0 0 17377 0 0 17545 0 0 17383 0 0 17789 0 0 17325 0 0 8726 0 0 126 0 0 30 0 0 32 0 0 24 0 0 18 0 0 16 0 0 14 0 0 12 0 0 6 0 0 
2 0 0 9 0 0 6 0 0 7 0 0 13 0 0 19 0 0 14 0 0 23 0 0 39 0 0 128 0 0 8799 0 0 17173 0 0 17310 0 0 17261 0 0 17494 0 0 17630 0 0 17570 0 0 17480 0 0 17791 0 0 17511 0 0 17522 0 0 17667 0 0 17573 0 0 17365 0 0 17724 0 0 17665 0 0 17346 0 0 17453 0 0 17593 0 0 17482 0 0 17702 0 0 17389 0 0 17485 0 0 17544 0 0 17669 0 0 17588 0 0 17444 0 0 17608 0 0 17488 0 0 17374 0 0 17591 0 0 17411 0 0 17517 0 0 17556 0 0 17538 0 0 17397 0 0 17561 0 0 17538 0 0 17466 0 0 17501 0 0 8616 0 0 133 0 0 35 0 0 34 0 0 17 0 0 19 0 0 14 0 0 13 0 0 9 0 0 5 0 0 
5 0 0 11 0 0 11 0 0 12 0 0 16 0 0 12 0 0 25 0 0 26 0 0 35 0 0 117 0 0 8697 0 0 17402 0 0 17558 0 0 17433 0 0 17411 0 0 17545 0 0 17599 0 0 17614 0 0 17548 0 0 17385 0 0 17394 0 0 17538 0 0 17375 0 0 17239 0 0 17815 0 0 17564 0 0 17531 0 0 17531 0 0 17543 0 0 17285 0 0 17277 0 0 17574 0 0 17510 0 0 17476 0 0 17492 0 0 17463 0 0 17406 0 0 17491 0 0 17266 0 0 17446 0 0 17537 0 0 17460 0 0 17536 0 0 17544 0 0 17389 0 0 17799 0 0 17208 0 0 17470 0 0 17429 0 0 17486 0 0 8725 0 0 132 0 0 31 0 0 24 0 0 22 0 0 16 0 0 13 0 0 12 0 0 14 0 0 10 0 0 
3 0 0 12 0 0 11 0 0 11 0 0 11 0 0 10 0 0 16 0 0 22 0 0 24 0 0 123 0 0 8661 0 0 17275 0 0 17554 0 0 17574 0 0 17477 0 0 17422 0 0 17569 0 0 17321 0 0 17572 0 0 17504 0 0 17506 0 0 17470 0 0 17494 0 0 17332 0 0 17595 0 0 17720 0 0 17605 0 0 17169 0 0 17428 0 0 17506 0 0 17585 0 0 17554 0 0 17511 0 0 17442 0 0 17434 0 0 17460 0 0 17394 0 0 17399 0 0 17429 0 0 17417 0 0 17767 0 0 17571 0 0 17591 0 0 17517 0 0 17465 0 0 17569 0 0 17576 0 0 17582 0 0 17422 0 0 17384 0 0 8696 0 0 147 0 0 41 0 0 23 0 0 12 0 0 19 0 0 16 0 0 14 0 0 11 0 0 9 0 0 
4 0 0 7 0 0 6 0 0 9 0 0 12 0 0 13 0 0 21 0 0 17 0 0 20 0 0 133 0 0 8795 0 0 17277 0 0 17356 0 0 17667 0 0 17405 0 0 17440 0 0 17504 0 0 17512 0 0 17351 0 0 17474 0 0 17684 0 0 17594 0 0 17517 0 0 17458 0 0 17585 0 0 17498 0 0 17488 0 0 17378 0 0 17510 0 0 17396 0 0 17514 0 0 17695 0 0 17713 0 0 17538 0 0 17586 0 0 17574 0 0 17327 0 0 17579 0 0 17535 0 0 17463 0 0 17524 0 0 17417 0 0 17477 0 0 17498 0 0 17764 0 0 17395 0 0 17498 0 0 17565 0 0 17677 0 0 17352 0 0 8600 0 0 126 0 0 31 0 0 26 0 0 30 0 0 17 0 0 6 0 0 9 0 0 14 0 0 13 0 0 
3 0 0 5 0 0 4 0 0 7 0 0 8 0 0 12 0 0 20 0 0 21 0 0 29 0 0 119 0 0 8607 0 0 17383 0 0 17805 0 0 17552 0 0 17316 0 0 17564 0 0 17404 0 0 17180 0 0 17744 0 0 17301 0 0 17645 0 0 17435 0 0 17646 0 0 17458 0 0 17484 0 0 17555 0 0 17446 0 0 17585 0 0 17675 0 0 17771 0 0 17733 0 0 17482 0 0 17433 0 0 17592 0 0 17475 0 0 17394 0 0 17736 0 0 17614 0 0 17438 0 0 17441 0 0 17467 0 0 17479 0 0 17520 0 0 17520 0 0 17547 0 0 17633 0 0 17516 0 0 17381 0 0 17384 0 0 17555 0 0 8651 0 0 132 0 0 31 0 0 23 0 0 13 0 0 17 0 0 12 0 0 5 0 0 5 0 0 7 0 0 
2 0 0 6 0 0 7 0 0 7 0 0 10 0 0 11 0 0 17 0 0 29 0 0 33 0 0 138 0 0 8798 0 0 17449 0 0 17348 0 0 17420 0 0 17731 0 0 17511 0 0 17594 0 0 17441 0 0 17571 0 0 17522 0 0 17467 0 0 17496 0 0 17486 0 0 17352 0 0 17526 0 0 17447 0 0 17433 0 0 17412 0 0 17405 0 0 17406 0 0 17479 0 0 17458 0 0 17424 0 0 17695 0 0 17526 0 0 17362 0 0 17502 0 0 17446 0 0 17403 0 0 17718 0 0 17355 0 0 17521 0 0 17608 0 0 17604 0 0 17436 0 0 17422 0 0 17473 0 0 17560 0 0 17570 0 0 17391 0 0 8734 0 0 110 0 0 37 0 0 20 0 0 18 0 0 18 0 0 17 0 0 15 0 0 10 0 0 4 0 0 
0 0 0 5 0 0 5 0 0 8 0 0 12 0 0 19 0 0 20 0 0 14 0 0 26 0 0 132 0 0 8729 0 0 17429 0 0 17464 0 0 17416 0 0 17862 0 0 17595 0 0 17448 0 0 17406 0 0 17370 0 0 17608 0 0 17558 0 0 17290 0 0 17542 0 0 17299 0 0 17432 0 0 17538 0 0 17514 0 0 17503 0 0 17401 0 0 17357 0 0 17493 0 0 17559 0 0 17580 0 0 17541 0 0 17490 0 0 17586 0 0 17576 0 0 17362 0 0 17479 0 0 17722 0 0 17436 0 0 17333 0 0 17434 0 0 17581 0 0 17467 0 0 17520 0 0 17375 0 0 17678 0 0 17484 0 0 17435 0 0 8682 0 0 124 0 0 27 0 0 22 0 0 7 0 0 8 0 0 16 0 0 8 0 0 5 0 0 4 0 0 
1 0 0 4 0 0 2 0 0 9 0 0 9 0 0 13 0 0 23 0 0 24 0 0 25 0 0 111 0 0 8717 0 0 17363 0 0 17492 0 0 17424 0 0 17373 0 0 17656 0 0 17553 0 0 17530 0 0 17407 0 0 17416 0 0 17123 0 0 17301 0 0 17460 0 0 17577 0 0 17379 0 0 17458 0 0 17664 0 0 17437 0 0 17596 0 0 17638 0 0 17446 0 0 17426 0 0 17588 0 0 17494 0 0 17518 0 0 17233 0 0 17556 0 0 17476 0 0 17468 0 0 17570 0 0 17564 0 0 17483 0 0 17593 0 0 17453 0 0 17470 0 0 17446 0 0 17317 0 0 17371 0 0 17480 0 0 17318 0 0 8729 0 0 111 0 0 33 0 0 34 0 0 26 0 0 12 0 0 14 0 0 13 0 0 6 0 0 5 0 0 
1 0 0 2 0 0 13 0 0 18 0 0 10 0 0 11 0 0 17 0 0 18 0 0 24 0 0 119 0 0 8874 0 0 17235 0 0 17435 0 0 17489 0 0 17506 0 0 17599 0 0 17389 0 0 17497 0 0 17477 0 0 17657 0 0 17465 0 0 17664 0 0 17569 0 0 17547 0 0 17330 0 0 17384 0 0 17557 0 0 17413 0 0 17446 0 0 17512 0 0 17582 0 0 17433 0 0 17571 0 0 17468 0 0 17567 0 0 17566 0 0 17281 0 0 17509 0 0 17311 0 0 17522 0 0 17593 0 0 17493 0 0 17532 0 0 17536 0 0 17394 0 0 17528 0 0 17447 0 0 17554 0 0 17527 0 0 17247 0 0 8726 0 0 135 0 0 23 0 0 23 0 0 24 0 0 10 0 0 11 0 0 18 0 0 10 0 0 10 0 0 
5 0 0 11 0 0 12 0 0 6 0 0 9 0 0 11 0 0 12 0 0 22 0 0 25 0 0 110 0 0 8710 0 0 17292 0 0 17349 0 0 17466 0 0 17722 0 0 17290 0 0 17456 0 0 17397 0 0 17512 0 0 17614 0 0 17450 0 0 17578 0 0 17612 0 0 17490 0 0 17586 0 0 17631 0 0 17545 0 0 17497 0 0 17472 0 0 17494 0 0 17343 0 0 17478 0 0 17560 0 0 17358 0 0 17248 0 0 17509 0 0 17380 0 0 17513 0 0 17373 0 0 17728 0 0 17456 0 0 17642 0 0 17551 0 0 17397 0 0 17597 0 0 17377 0 0 17454 0 0 17555 0 0 17366 0 0 17458 0 0 8710 0 0 119 0 0 35 0 0 23 0 0 17 0 0 15 0 0 7 0 0 8 0 0 5 0 0 4 0 0 
4 0 0 18 0 0 13 0 0 12 0 0 12 0 0 16 0 0 24 0 0 30 0 0 21 0 0 117 0 0 8688 0 0 17194 0 0 17453 0 0 17524 0 0 17508 0 0 17469 0 0 17371 0 0 17286 0 0 17504 0 0 17575 0 0 17429 0 0 17291 0 0 17189 0 0 17579 0 0 17620 0 0 17529 0 0 17519 0 0 17481 0 0 17472 0 0 17451 0 0 17267 0 0 17456 0 0 17432 0 0 17341 0 0 17430 0 0 17443 0 0 17559 0 0 17672 0 0 17330 0 0 17444 0 0 17480 0 0 17579 0 0 17510 0 0 17493 0 0 17501 0 0 17465 0 0 17452 0 0 17493 0 0 17630 0 0 17522 0 0 8776 0 0 134 0 0 24 0 0 18 0 0 16 0 0 17 0 0 15 0 0 11 0 0 16 0 0 8 0 0 
2 0 0 7 0 0 12 0 0 12 0 0 15 0 0 18 0 0 23 0 0 27 0 0 17 0 0 107 0 0 8829 0 0 17227 0 0 17349 0 0 17433 0 0 17290 0 0 17219 0 0 17337 0 0 17546 0 0 17511 0 0 17558 0 0 17506 0 0 17345 0 0 17503 0 0 17407 0 0 17223 0 0 17466 0 0 17139 0 0 17405 0 0 17406 0 0 17432 0 0 17689 0 0 17347 0 0 17525 0 0 17498 0 0 17522 0 0 17376 0 0 17426 0 0 17412 0 0 17243 0 0 17169 0 0 17264 0 0 17519 0 0 17438 0 0 17429 0 0 17413 0 0 17154 0 0 17392 0 0 17272 0 0 17391 0 0 17346 0 0 8507 0 0 106 0 0 13 0 0 17 0 0 19 0 0 18 0 0 12 0 0 6 0 0 11 0 0 12 0 0 
7 0 0 10 0 0 13 0 0 12 0 0 14 0 0 19 0 0 21 0 0 12 0 0 19 0 0 74 0 0 4409 0 0 8605 0 0 8758 0 0 8874 0 0 8830 0 0 8819 0 0 8746 0 0 8664 0 0 8791 0 0 8789 0 0 8766 0 0 8695 0 0 8664 0 0 8782 0 0 8684 0 0 8906 0 0 8819 0 0 8748 0 0 8707 0 0 8877 0 0 8757 0 0 8831 0 0 8604 0 0 8681 0 0 8840 0 0 8709 0 0 8873 0 0 8659 0 0 8842 0 0 8619 0 0 8750 0 0 8585 0 0 8727 0 0 8825 0 0 8796 0 0 8769 0 0 8697 0 0 8791 0 0 8869 0 0 8571 0 0 4359 0 0 79 0 0 17 0 0 14 0 0 12 0 0 13 0 0 8 0 0 14 0 0 11 0 0 12 0 0 
4 0 0 10 0 0 15 0 0 8 0 0 13 0 0 12 0 0 13 0 0 18 0 0 10 0 0 25 0 0 72 0 0 124 0 0 112 0 0 140 0 0 121 0 0 109 0 0 130 0 0 134 0 0 119 0 0 122 0 0 127 0 0 120 0 0 129 0 0 130 0 0 124 0 0 129 0 0 110 0 0 124 0 0 138 0 0 119 0 0 126 0 0 136 0 0 138 0 0 136 0 0 129 0 0 136 0 0 98 0 0 118 0 0 117 0 0 134 0 0 141 0 0 122 0 0 123 0 0 117 0 0 130 0 0 131 0 0 128 0 0 119 0 0 115 0 0 123 0 0 60 0 0 37 0 0 13 0 0 15 0 0 12 0 0 11 0 0 6 0 0 5 0 0 9 0 0 8 0 0 
1 0 0 6 0 0 9 0 0 5 0 0 7 0 0 9 0 0 12 0 0 6 0 0 10 0 0 12 0 0 27 0 0 16 0 0 18 0 0 26 0 0 28 0 0 24 0 0 40 0 0 34 0 0 17 0 0 20 0 0 23 0 0 36 0 0 31 0 0 38 0 0 31 0 0 27 0 0 27 0 0 40 0 0 32 0 0 29 0 0 29 0 0 35 0 0 34 0 0 35 0 0 27 0 0 27 0 0 31 0 0 24 0 0 30 0 0 27 0 0 26 0 0 20 0 0 30 0 0 24 0 0 23 0 0 24 0 0 27 0 0 30 0 0 20 0 0 20 0 0 16 0 0 15 0 0 17 0 0 13 0 0 10 0 0 12 0 0 8 0 0 4 0 0 3 0 0 7 0 0 
5 0 0 7 0 0 6 0 0 10 0 0 5 0 0 4 0 0 3 0 0 6 0 0 8 0 0 18 0 0 13 0 0 6 0 0 14 0 0 21 0 0 15 0 0 18 0 0 23 0 0 26 0 0 15 0 0 24 0 0 26 0 0 24 0 0 28 0 0 30 0 0 24 0 0 26 0 0 18 0 0 27 0 0 25 0 0 21 0 0 22 0 0 29 0 0 18 0 0 25 0 0 23 0 0 23 0 0 33 0 0 19 0 0 19 0 0 19 0 0 30 0 0 16 0 0 19 0 0 25 0 0 14 0 0 17 0 0 21 0 0 21 0 0 24 0 0 19 0 0 20 0 0 17 0 0 17 0 0 12 0 0 12 0 0 13 0 0 6 0 0 6 0 0 3 0 0 2 0 0 
3 0 0 8 0 0 8 0 0 2 0 0 6 0 0 4 0 0 9 0 0 5 0 0 12 0 0 12 0 0 6 0 0 17 0 0 17 0 0 11 0 0 9 0 0 15 0 0 19 0 0 24 0 0 22 0 0 26 0 0 15 0 0 20 0 0 22 0 0 23 0 0 20 0 0 23 0 0 12 0 0 13 0 0 18 0 0 22 0 0 21 0 0 23 0 0 20 0 0 18 0 0 18 0 0 30 0 0 22 0 0 23 0 0 19 0 0 10 0 0 21 0 0 13 0 0 19 0 0 16 0 0 17 0 0 12 0 0 11 0 0 14 0 0 16 0 0 21 0 0 14 0 0 10 0 0 11 0 0 23 0 0 10 0 0 8 0 0 8 0 0 9 0 0 5 0 0 4 0 0 
3 0 0 8 0 0 8 0 0 7 0 0 5 0 0 6 0 0 7 0 0 2 0 0 6 0 0 14 0 0 12 0 0 16 0 0 12 0 0 11 0 0 18 0 0 15 0 0 14 0 0 14 0 0 18 0 0 21 0 0 13 0 0 18 0 0 17 0 0 19 0 0 15 0 0 13 0 0 8 0 0 17 0 0 12 0 0 22 0 0 17 0 0 23 0 0 20 0 0 14 0 0 16 0 0 14 0 0 14 0 0 24 0 0 16 0 0 19 0 0 17 0 0 13 0 0 16 0 0 20 0 0 11 0 0 14 0 0 11 0 0 14 0 0 16 0 0 15 0 0 16 0 0 8 0 0 11 0 0 13 0 0 15 0 0 10 0 0 4 0 0 9 0 0 9 0 0 7 0 0 
2 0 0 7 0 0 9 0 0 5 0 0 5 0 0 5 0 0 10 0 0 4 0 0 13 0 0 8 0 0 9 0 0 12 0 0 12 0 0 17 0 0 12 0 0 8 0 0 20 0 0 19 0 0 15 0 0 16 0 0 12 0 0 14 0 0 15 0 0 16 0 0 13 0 0 15 0 0 6 0 0 13 0 0 11 0 0 24 0 0 14 0 0 16 0 0 16 0 0 12 0 0 14 0 0 10 0 0 16 0 0 16 0 0 13 0 0 20 0 0 13 0 0 12 0 0 19 0 0 15 0 0 9 0 0 12 0 0 8 0 0 10 0 0 12 0 0 11 0 0 12 0 0 11 0 0 5 0 0 12 0 0 11 0 0 8 0 0 7 0 0 9 0 0 3 0 0 8 0 0 
2 0 0 5 0 0 6 0 0 12 0 0 6 0 0 6 0 0 8 0 0 12 0 0 6 0 0 12 0 0 12 0 0 6 0 0 13 0 0 12 0 0 10 0 0 10 0 0 17 0 0 11 0 0 15 0 0 12 0 0 16 0 0 14 0 0 11 0 0 14 0 0 10 0 0 7 0 0 17 0 0 10 0 0 9 0 0 15 0 0 12 0 0 17 0 0 15 0 0 19 0 0 6 0 0 9 0 0 14 0 0 8 0 0 10 0 0 17 0 0 15 0 0 12 0 0 18 0 0 12 0 0 3 0 0 9 0 0 8 0 0 10 0 0 9 0 0 12 0 0 12 0 0 7 0 0 6 0 0 8 0 0 7 0 0 9 0 0 5 0 0 5 0 0 6 0 0 5 0 0 
0 0 0 4 0 0 11 0 0 11 0 0 8 0 0 6 0 0 10 0 0 12 0 0 8 0 0 9 0 0 7 0 0 7 0 0 12 0 0 7 0 0 11 0 0 10 0 0 9 0 0 13 0 0 18 0 0 13 0 0 9 0 0 9 0 0 10 0 0 12 0 0 14 0 0 9 0 0 11 0 0 7 0 0 10 0 0 9 0 0 16 0 0 15 0 0 14 0 0 23 0 0 9 0 0 11 0 0 14 0 0 10 0 0 10 0 0 16 0 0 18 0 0 13 0 0 12 0 0 12 0 0 8 0 0 14 0 0 7 0 0 7 0 0 6 0 0 5 0 0 8 0 0 9 0 0 8 0 0 6 0 0 10 0 0 7 0 0 7 0 0 5 0 0 1 0 0 4 0 0 
3 0 0 7 0 0 9 0 0 7 0 0 3 0 0 9 0 0 9 0 0 4 0 0 5 0 0 11 0 0 7 0 0 8 0 0 6 0 0 10 0 0 5 0 0 12 0 0 9 0 0 10 0 0 12 0 0 12 0 0 10 0 0 12 0 0 14 0 0 13 0 0 13 0 0 9 0 0 11 0 0 11 0 0 9 0 0 10 0 0 20 0 0 13 0 0 14 0 0 13 0 0 13 0 0 9 0 0 15 0 0 9 0 0 10 0 0 10 0 0 15 0 0 15 0 0 10 0 0 15 0 0 8 0 0 9 0 0 10 0 0 5 0 0 4 0 0 6 0 0 7 0 0 8 0 0 7 0 0 8 0 0 6 0 0 5 0 0 9 0 0 6 0 0 4 0 0 3 0 0 
