P3
# This is a dose file slice at depth 27 of 100
60 60
# now we give the maximum value of the RGB coordinates.
34334
0 0 0 0 0 0 0 0 0 0 0 0 0 0 0 0 0 0 0 0 0 0 0 0 0 0 0 0 0 0 0 0 0 0 0 0 0 0 0 0 0 0 0 0 0 0 0 0 0 0 0 0 0 0 0 0 0 0 0 0 0 0 0 0 0 0 0 0 0 0 0 0 0 0 0 0 0 0 0 0 0 0 0 0 0 0 0 0 0 0 0 0 0 0 0 0 0 0 0 0 0 0 0 0 0 0 0 0 0 0 0 0 0 0 0 0 0 0 0 0 0 0 0 0 0 0 0 0 0 0 0 0 0 0 0 0 0 0 0 0 0 0 0 0 0 0 0 0 0 0 0 0 0 0 0 0 0 0 0 0 0 0 0 0 0 0 0 0 0 0 0 0 0 0 0 0 0 0 0 0 
0 0 0 0 0 0 0 0 0 0 0 0 0 0 0 0 0 0 0 0 0 0 0 0 0 0 0 0 0 0 0 0 0 0 0 0 0 0 0 0 0 0 0 0 0 0 0 0 0 0 0 0 0 0 0 0 0 0 0 0 0 0 0 0 0 0 0 0 0 0 0 0 0 0 0 0 0 0 0 0 0 0 0 0 0 0 0 0 0 0 0 0 0 0 0 0 0 0 0 0 0 0 0 0 0 0 0 0 0 0 0 0 0 0 0 0 0 0 0 0 0 0 0 0 0 0 0 0 0 0 0 0 0 0 0 0 0 0 0 0 0 0 0 0 0 0 0 0 0 0 0 0 0 0 0 0 0 0 0 0 0 0 0 0 0 0 0 0 0 0 0 0 0 0 0 0 0 0 0 0 
0 0 0 0 0 0 0 0 0 0 0 0 0 0 0 0 0 0 0 0 0 0 0 0 0 0 0 0 0 0 0 0 0 0 0 0 0 0 0 0 0 0 0 0 0 0 0 0 0 0 0 0 0 0 0 0 0 0 0 0 0 0 0 0 0 0 0 0 0 0 0 0 0 0 0 0 0 0 0 0 0 0 0 0 0 0 0 0 0 0 0 0 0 0 0 0 0 0 0 0 0 0 0 0 0 0 0 0 0 0 0 0 0 0 0 0 0 0 0 0 0 0 0 0 0 0 0 0 0 0 0 0 0 0 0 0 0 0 0 0 0 0 0 0 0 0 0 0 0 0 0 0 0 0 0 0 0 0 0 0 0 0 0 0 0 0 0 0 0 0 0 0 0 0 0 0 0 0 0 0 
0 0 0 0 0 0 0 0 0 0 0 0 0 0 0 0 0 0 0 0 0 0 0 0 0 0 0 0 0 0 0 0 0 0 0 0 0 0 0 0 0 0 0 0 0 0 0 0 0 0 0 0 0 0 0 0 0 0 0 0 0 0 0 0 0 0 0 0 0 0 0 0 0 0 0 0 0 0 0 0 0 0 0 0 0 0 0 0 0 0 0 0 0 0 0 0 0 0 0 0 0 0 0 0 0 0 0 0 0 0 0 0 0 0 0 0 0 0 0 0 0 0 0 0 0 0 0 0 0 0 0 0 0 0 0 0 0 0 0 0 0 0 0 0 0 0 0 0 0 0 0 0 0 0 0 0 0 0 0 0 0 0 0 0 0 0 0 0 0 0 0 0 0 0 0 0 0 0 0 0 
0 0 0 0 0 0 0 0 0 0 0 0 0 0 0 0 0 0 0 0 0 0 0 0 0 0 0 0 0 0 0 0 0 0 0 0 0 0 0 0 0 0 0 0 0 0 0 0 0 0 0 0 0 0 0 0 0 0 0 0 0 0 0 0 0 0 0 0 0 0 0 0 0 0 0 0 0 0 0 0 0 0 0 0 0 0 0 0 0 0 0 0 0 0 0 0 0 0 0 0 0 0 0 0 0 0 0 0 0 0 0 0 0 0 0 0 0 0 0 0 0 0 0 0 0 0 0 0 0 0 0 0 0 0 0 0 0 0 0 0 0 0 0 0 0 0 0 0 0 0 0 0 0 0 0 0 0 0 0 0 0 0 0 0 0 0 0 0 0 0 0 0 0 0 0 0 0 0 0 0 
0 0 0 0 0 0 0 0 0 0 0 0 0 0 0 0 0 0 0 0 0 0 0 0 0 0 0 0 0 0 0 0 0 0 0 0 0 0 0 0 0 0 0 0 0 0 0 0 0 0 0 0 0 0 0 0 0 0 0 0 0 0 0 0 0 0 0 0 0 0 0 0 0 0 0 0 0 0 0 0 0 0 0 0 0 0 0 0 0 0 0 0 0 0 0 0 0 0 0 0 0 0 0 0 0 0 0 0 0 0 0 0 0 0 0 0 0 0 0 0 0 0 0 0 0 0 0 0 0 0 0 0 0 0 0 0 0 0 0 0 0 0 0 0 0 0 0 0 0 0 0 0 0 0 0 0 0 0 0 0 0 0 0 0 0 0 0 0 0 0 0 0 0 0 0 0 0 0 0 0 
0 0 0 0 0 0 0 0 0 0 0 0 0 0 0 0 0 0 0 0 0 0 0 0 0 0 0 0 0 0 0 0 0 0 0 0 0 0 0 0 0 0 0 0 0 0 0 0 0 0 0 0 0 0 0 0 0 0 0 0 0 0 0 0 0 0 0 0 0 0 0 0 0 0 0 0 0 0 0 0 0 0 0 0 0 0 0 0 0 0 0 0 0 0 0 0 0 0 0 0 0 0 0 0 0 0 0 0 0 0 0 0 0 0 0 0 0 0 0 0 0 0 0 0 0 0 0 0 0 0 0 0 0 0 0 0 0 0 0 0 0 0 0 0 0 0 0 0 0 0 0 0 0 0 0 0 0 0 0 0 0 0 0 0 0 0 0 0 0 0 0 0 0 0 0 0 0 0 0 0 
0 0 0 0 0 0 0 0 0 0 0 0 0 0 0 0 0 0 0 0 0 0 0 0 0 0 0 0 0 0 0 0 0 0 0 0 0 0 0 0 0 0 0 0 0 0 0 0 0 0 0 0 0 0 0 0 0 0 0 0 0 0 0 0 0 0 0 0 0 0 0 0 0 0 0 0 0 0 0 0 0 0 0 0 0 0 0 0 0 0 0 0 0 0 0 0 0 0 0 0 0 0 0 0 0 0 0 0 0 0 0 0 0 0 0 0 0 0 0 0 0 0 0 0 0 0 0 0 0 0 0 0 0 0 0 0 0 0 0 0 0 0 0 0 0 0 0 0 0 0 0 0 0 0 0 0 0 0 0 0 0 0 0 0 0 0 0 0 0 0 0 0 0 0 0 0 0 0 0 0 
0 0 0 0 0 0 0 0 0 0 0 0 0 0 0 0 0 0 0 0 0 0 0 0 0 0 0 0 0 0 0 0 0 0 0 0 0 0 0 0 0 0 0 0 0 0 0 0 0 0 0 0 0 0 0 0 0 0 0 0 0 0 0 0 0 0 0 0 0 0 0 0 0 0 0 0 0 0 0 0 0 0 0 0 0 0 0 0 0 0 0 0 0 0 0 0 0 0 0 0 0 0 0 0 0 0 0 0 0 0 0 0 0 0 0 0 0 0 0 0 0 0 0 0 0 0 0 0 0 0 0 0 0 0 0 0 0 0 0 0 0 0 0 0 0 0 0 0 0 0 0 0 0 0 0 0 0 0 0 0 0 0 0 0 0 0 0 0 0 0 0 0 0 0 0 0 0 0 0 0 
0 0 0 0 0 0 0 0 0 0 0 0 0 0 0 0 0 0 0 0 0 0 0 0 0 0 0 0 0 0 0 0 0 0 0 0 0 0 0 0 0 0 0 0 0 0 0 0 0 0 0 0 0 0 0 0 0 0 0 0 0 0 0 0 0 0 0 0 0 0 0 0 0 0 0 0 0 0 0 0 0 0 0 0 0 0 0 0 0 0 0 0 0 0 0 0 0 0 0 0 0 0 0 0 0 0 0 0 0 0 0 0 0 0 0 0 0 0 0 0 0 0 0 0 0 0 0 0 0 0 0 0 0 0 0 0 0 0 0 0 0 0 0 0 0 0 0 0 0 0 0 0 0 0 0 0 0 0 0 0 0 0 0 0 0 0 0 0 0 0 0 0 0 0 0 0 0 0 0 0 
0 0 0 0 0 0 0 0 0 0 0 0 0 0 0 0 0 0 0 0 0 0 0 0 0 0 0 0 0 0 3648 0 0 7461 0 0 7412 0 0 7624 0 0 7504 0 0 7574 0 0 7545 0 0 7657 0 0 7478 0 0 7481 0 0 7450 0 0 7596 0 0 7467 0 0 7485 0 0 7472 0 0 7608 0 0 7435 0 0 7550 0 0 7547 0 0 7522 0 0 7506 0 0 7619 0 0 7627 0 0 7627 0 0 7526 0 0 7370 0 0 7456 0 0 7479 0 0 7535 0 0 7609 0 0 7460 0 0 7365 0 0 7413 0 0 7431 0 0 7428 0 0 7594 0 0 7378 0 0 7591 0 0 7610 0 0 7541 0 0 3748 0 0 0 0 0 0 0 0 0 0 0 0 0 0 0 0 0 0 0 0 0 0 0 0 0 0 0 0 0 
0 0 0 0 0 0 0 0 0 0 0 0 0 0 0 0 0 0 0 0 0 0 0 0 0 0 0 0 0 0 7477 0 0 15108 0 0 15101 0 0 14988 0 0 15053 0 0 14799 0 0 15204 0 0 14918 0 0 15074 0 0 15030 0 0 15224 0 0 15092 0 0 15023 0 0 15007 0 0 15117 0 0 15048 0 0 14995 0 0 14980 0 0 14989 0 0 14989 0 0 15162 0 0 14916 0 0 15117 0 0 15110 0 0 14868 0 0 14836 0 0 14960 0 0 15029 0 0 14933 0 0 14874 0 0 14867 0 0 14918 0 0 14919 0 0 14965 0 0 15035 0 0 15094 0 0 14731 0 0 14872 0 0 14984 0 0 14872 0 0 7560 0 0 0 0 0 0 0 0 0 0 0 0 0 0 0 0 0 0 0 0 0 0 0 0 0 0 0 0 0 
0 0 0 0 0 0 0 0 0 0 0 0 0 0 0 0 0 0 0 0 0 0 0 0 0 0 0 0 0 0 7391 0 0 14879 0 0 15021 0 0 15060 0 0 15098 0 0 14855 0 0 15040 0 0 15197 0 0 14983 0 0 14995 0 0 14957 0 0 15087 0 0 14871 0 0 14885 0 0 15038 0 0 15057 0 0 14904 0 0 15030 0 0 15124 0 0 15172 0 0 14968 0 0 14972 0 0 14973 0 0 15049 0 0 15002 0 0 14825 0 0 14960 0 0 15077 0 0 15161 0 0 15072 0 0 15051 0 0 14958 0 0 14973 0 0 14754 0 0 14924 0 0 14989 0 0 14823 0 0 15054 0 0 14989 0 0 15181 0 0 7520 0 0 0 0 0 0 0 0 0 0 0 0 0 0 0 0 0 0 0 0 0 0 0 0 0 0 0 0 0 
0 0 0 0 0 0 0 0 0 0 0 0 0 0 0 0 0 0 0 0 0 0 0 0 0 0 0 0 0 0 7549 0 0 15111 0 0 15035 0 0 15069 0 0 14930 0 0 15005 0 0 14943 0 0 15097 0 0 15316 0 0 14922 0 0 14781 0 0 14977 0 0 15068 0 0 14959 0 0 14762 0 0 14878 0 0 14825 0 0 14859 0 0 15035 0 0 14921 0 0 14763 0 0 15307 0 0 14992 0 0 15008 0 0 15009 0 0 14946 0 0 15023 0 0 14815 0 0 14793 0 0 14875 0 0 14676 0 0 15218 0 0 15270 0 0 14979 0 0 15236 0 0 15009 0 0 15000 0 0 14889 0 0 14781 0 0 15205 0 0 7475 0 0 0 0 0 0 0 0 0 0 0 0 0 0 0 0 0 0 0 0 0 0 0 0 0 0 0 0 0 
0 0 0 0 0 0 0 0 0 0 0 0 0 0 0 0 0 0 0 0 0 0 0 0 0 0 0 0 0 0 7401 0 0 14795 0 0 15223 0 0 15067 0 0 15054 0 0 15029 0 0 15068 0 0 14927 0 0 14940 0 0 14797 0 0 14956 0 0 15042 0 0 15164 0 0 14946 0 0 15172 0 0 14751 0 0 14931 0 0 15108 0 0 14728 0 0 14790 0 0 15029 0 0 14902 0 0 14848 0 0 14937 0 0 14970 0 0 14939 0 0 14839 0 0 14909 0 0 15011 0 0 14969 0 0 14962 0 0 14983 0 0 15282 0 0 15194 0 0 15072 0 0 15034 0 0 15122 0 0 15031 0 0 14886 0 0 14997 0 0 7467 0 0 0 0 0 0 0 0 0 0 0 0 0 0 0 0 0 0 0 0 0 0 0 0 0 0 0 0 0 
0 0 0 0 0 0 0 0 0 0 0 0 0 0 0 0 0 0 0 0 0 0 0 0 0 0 0 0 0 0 7544 0 0 15031 0 0 14826 0 0 14975 0 0 15003 0 0 14937 0 0 14953 0 0 15008 0 0 14971 0 0 14913 0 0 15059 0 0 14951 0 0 14814 0 0 14899 0 0 15025 0 0 14955 0 0 15109 0 0 14912 0 0 14993 0 0 15047 0 0 15068 0 0 14938 0 0 15098 0 0 14938 0 0 14900 0 0 15036 0 0 15107 0 0 14833 0 0 15000 0 0 15137 0 0 14934 0 0 14950 0 0 15280 0 0 14939 0 0 15018 0 0 15317 0 0 15131 0 0 15019 0 0 14796 0 0 15124 0 0 7457 0 0 0 0 0 0 0 0 0 0 0 0 0 0 0 0 0 0 0 0 0 0 0 0 0 0 0 0 0 
0 0 0 0 0 0 0 0 0 0 0 0 0 0 0 0 0 0 0 0 0 0 0 0 0 0 0 0 0 0 7544 0 0 15166 0 0 14916 0 0 15025 0 0 15141 0 0 14948 0 0 15027 0 0 14885 0 0 14845 0 0 15044 0 0 15016 0 0 14966 0 0 14810 0 0 15033 0 0 15040 0 0 14979 0 0 15033 0 0 14710 0 0 14727 0 0 15116 0 0 15007 0 0 15006 0 0 15188 0 0 15026 0 0 14996 0 0 15287 0 0 15107 0 0 14791 0 0 14990 0 0 15072 0 0 14936 0 0 14958 0 0 14985 0 0 14741 0 0 15151 0 0 14853 0 0 15030 0 0 14985 0 0 14975 0 0 14798 0 0 7535 0 0 0 0 0 0 0 0 0 0 0 0 0 0 0 0 0 0 0 0 0 0 0 0 0 0 0 0 0 
0 0 0 0 0 0 0 0 0 0 0 0 0 0 0 0 0 0 0 0 0 0 0 0 0 0 0 0 0 0 7422 0 0 15006 0 0 15308 0 0 14997 0 0 15005 0 0 14866 0 0 14894 0 0 14950 0 0 15069 0 0 14793 0 0 14833 0 0 15064 0 0 15002 0 0 15210 0 0 14853 0 0 14916 0 0 15065 0 0 15140 0 0 14930 0 0 14956 0 0 15020 0 0 15116 0 0 14749 0 0 14669 0 0 14892 0 0 15024 0 0 15053 0 0 15115 0 0 14931 0 0 15073 0 0 15067 0 0 15061 0 0 14951 0 0 14981 0 0 14935 0 0 15046 0 0 15116 0 0 15071 0 0 14883 0 0 15039 0 0 7370 0 0 0 0 0 0 0 0 0 0 0 0 0 0 0 0 0 0 0 0 0 0 0 0 0 0 0 0 0 
0 0 0 0 0 0 0 0 0 0 0 0 0 0 0 0 0 0 0 0 0 0 0 0 0 0 0 0 0 0 7609 0 0 14885 0 0 14960 0 0 14806 0 0 14982 0 0 15075 0 0 15061 0 0 15082 0 0 14865 0 0 14844 0 0 15001 0 0 15063 0 0 14881 0 0 15139 0 0 14915 0 0 14868 0 0 14879 0 0 14957 0 0 14820 0 0 15207 0 0 14967 0 0 14830 0 0 15018 0 0 14840 0 0 15159 0 0 15091 0 0 14858 0 0 15035 0 0 15019 0 0 15014 0 0 14864 0 0 15113 0 0 15103 0 0 15073 0 0 15101 0 0 15099 0 0 15095 0 0 15099 0 0 14907 0 0 14898 0 0 7545 0 0 0 0 0 0 0 0 0 0 0 0 0 0 0 0 0 0 0 0 0 0 0 0 0 0 0 0 0 
0 0 0 0 0 0 0 0 0 0 0 0 0 0 0 0 0 0 0 0 0 0 0 0 0 0 0 0 0 0 7392 0 0 15290 0 0 15134 0 0 15103 0 0 14998 0 0 14984 0 0 15086 0 0 14967 0 0 15105 0 0 15103 0 0 14949 0 0 14895 0 0 15139 0 0 15050 0 0 15199 0 0 14825 0 0 15222 0 0 14987 0 0 14915 0 0 14916 0 0 14893 0 0 15102 0 0 14934 0 0 14925 0 0 15290 0 0 14889 0 0 15147 0 0 14948 0 0 15175 0 0 15061 0 0 15051 0 0 15154 0 0 14868 0 0 14867 0 0 14746 0 0 14907 0 0 14682 0 0 14953 0 0 14872 0 0 15236 0 0 7438 0 0 0 0 0 0 0 0 0 0 0 0 0 0 0 0 0 0 0 0 0 0 0 0 0 0 0 0 0 
0 0 0 0 0 0 0 0 0 0 0 0 0 0 0 0 0 0 0 0 0 0 0 0 0 0 0 0 0 0 7667 0 0 15079 0 0 14779 0 0 15070 0 0 14917 0 0 15128 0 0 14968 0 0 14942 0 0 15106 0 0 15179 0 0 15064 0 0 15064 0 0 14976 0 0 14787 0 0 14872 0 0 14845 0 0 15101 0 0 15113 0 0 14878 0 0 15021 0 0 15137 0 0 14938 0 0 15116 0 0 15075 0 0 15283 0 0 15029 0 0 15104 0 0 15051 0 0 14874 0 0 15013 0 0 14929 0 0 15095 0 0 15010 0 0 14988 0 0 15047 0 0 14967 0 0 15210 0 0 15032 0 0 14934 0 0 15064 0 0 7349 0 0 0 0 0 0 0 0 0 0 0 0 0 0 0 0 0 0 0 0 0 0 0 0 0 0 0 0 0 
0 0 0 0 0 0 0 0 0 0 0 0 0 0 0 0 0 0 0 0 0 0 0 0 0 0 0 0 0 0 7535 0 0 14857 0 0 14924 0 0 14972 0 0 14840 0 0 14867 0 0 15165 0 0 14996 0 0 14906 0 0 14942 0 0 14819 0 0 14798 0 0 14782 0 0 14977 0 0 14880 0 0 14974 0 0 15104 0 0 15089 0 0 14969 0 0 15062 0 0 15157 0 0 14892 0 0 15029 0 0 15283 0 0 15116 0 0 14915 0 0 14935 0 0 14895 0 0 14885 0 0 15075 0 0 14878 0 0 15087 0 0 15061 0 0 14759 0 0 15122 0 0 15005 0 0 14984 0 0 14838 0 0 15022 0 0 14968 0 0 7458 0 0 0 0 0 0 0 0 0 0 0 0 0 0 0 0 0 0 0 0 0 0 0 0 0 0 0 0 0 
0 0 0 0 0 0 0 0 0 0 0 0 0 0 0 0 0 0 0 0 0 0 0 0 0 0 0 0 0 0 7470 0 0 14877 0 0 15040 0 0 15060 0 0 15052 0 0 15177 0 0 15176 0 0 14986 0 0 15099 0 0 14908 0 0 14882 0 0 14627 0 0 15010 0 0 15098 0 0 14793 0 0 15045 0 0 14817 0 0 15045 0 0 15301 0 0 14958 0 0 14812 0 0 14710 0 0 15032 0 0 14932 0 0 15005 0 0 14859 0 0 15188 0 0 14768 0 0 14935 0 0 14782 0 0 14882 0 0 14934 0 0 14928 0 0 14910 0 0 15169 0 0 14953 0 0 15041 0 0 15134 0 0 14833 0 0 14757 0 0 7422 0 0 0 0 0 0 0 0 0 0 0 0 0 0 0 0 0 0 0 0 0 0 0 0 0 0 0 0 0 
0 0 0 0 0 0 0 0 0 0 0 0 0 0 0 0 0 0 0 0 0 0 0 0 0 0 0 0 0 0 7406 0 0 15144 0 0 14912 0 0 15298 0 0 14974 0 0 15270 0 0 15153 0 0 15241 0 0 14988 0 0 14915 0 0 14945 0 0 14861 0 0 15027 0 0 15007 0 0 15087 0 0 15212 0 0 15051 0 0 14830 0 0 14954 0 0 15104 0 0 14983 0 0 14955 0 0 15029 0 0 14952 0 0 15007 0 0 14865 0 0 14991 0 0 14923 0 0 15015 0 0 15088 0 0 15010 0 0 14989 0 0 14995 0 0 14953 0 0 14930 0 0 15034 0 0 15176 0 0 14843 0 0 15015 0 0 14961 0 0 7648 0 0 0 0 0 0 0 0 0 0 0 0 0 0 0 0 0 0 0 0 0 0 0 0 0 0 0 0 0 
0 0 0 0 0 0 0 0 0 0 0 0 0 0 0 0 0 0 0 0 0 0 0 0 0 0 0 0 0 0 7488 0 0 15405 0 0 15026 0 0 15182 0 0 14914 0 0 15127 0 0 14780 0 0 14903 0 0 15120 0 0 14939 0 0 15214 0 0 15084 0 0 14809 0 0 14866 0 0 15111 0 0 15077 0 0 15063 0 0 14964 0 0 14995 0 0 14912 0 0 14921 0 0 15076 0 0 15015 0 0 15108 0 0 14793 0 0 15061 0 0 15084 0 0 15008 0 0 15013 0 0 15290 0 0 14969 0 0 15081 0 0 14888 0 0 15059 0 0 15063 0 0 14965 0 0 14916 0 0 15164 0 0 15084 0 0 15065 0 0 7455 0 0 0 0 0 0 0 0 0 0 0 0 0 0 0 0 0 0 0 0 0 0 0 0 0 0 0 0 0 
0 0 0 0 0 0 0 0 0 0 0 0 0 0 0 0 0 0 0 0 0 0 0 0 0 0 0 0 0 0 7523 0 0 14939 0 0 15021 0 0 14922 0 0 15173 0 0 14989 0 0 14766 0 0 14848 0 0 14987 0 0 15025 0 0 15039 0 0 15138 0 0 14775 0 0 14991 0 0 15079 0 0 14916 0 0 15114 0 0 15242 0 0 15095 0 0 14857 0 0 15069 0 0 14971 0 0 14990 0 0 14798 0 0 14961 0 0 14868 0 0 14850 0 0 15259 0 0 15077 0 0 14875 0 0 15047 0 0 15140 0 0 14893 0 0 15188 0 0 14970 0 0 15185 0 0 15158 0 0 15033 0 0 14767 0 0 14915 0 0 7575 0 0 0 0 0 0 0 0 0 0 0 0 0 0 0 0 0 0 0 0 0 0 0 0 0 0 0 0 0 
0 0 0 0 0 0 0 0 0 0 0 0 0 0 0 0 0 0 0 0 0 0 0 0 0 0 0 0 0 0 7607 0 0 14791 0 0 14830 0 0 14877 0 0 14904 0 0 14965 0 0 14925 0 0 14957 0 0 14936 0 0 14931 0 0 15043 0 0 14902 0 0 14720 0 0 14861 0 0 14984 0 0 15248 0 0 14862 0 0 15044 0 0 15198 0 0 14942 0 0 15131 0 0 15029 0 0 14823 0 0 14962 0 0 14980 0 0 14928 0 0 15037 0 0 15019 0 0 14915 0 0 14906 0 0 14947 0 0 15065 0 0 14756 0 0 14921 0 0 14844 0 0 15067 0 0 14967 0 0 15036 0 0 14922 0 0 15095 0 0 7512 0 0 0 0 0 0 0 0 0 0 0 0 0 0 0 0 0 0 0 0 0 0 0 0 0 0 0 0 0 
0 0 0 0 0 0 0 0 0 0 0 0 0 0 0 0 0 0 0 0 0 0 0 0 0 0 0 0 0 0 7518 0 0 15076 0 0 14884 0 0 15171 0 0 15057 0 0 15022 0 0 14914 0 0 14780 0 0 15001 0 0 15114 0 0 15013 0 0 14857 0 0 14913 0 0 14781 0 0 14936 0 0 15044 0 0 14973 0 0 15010 0 0 14759 0 0 15216 0 0 15058 0 0 15168 0 0 15284 0 0 14864 0 0 15201 0 0 14993 0 0 15069 0 0 15007 0 0 14868 0 0 14932 0 0 15000 0 0 14938 0 0 15152 0 0 14974 0 0 15143 0 0 14875 0 0 15095 0 0 15253 0 0 14961 0 0 14875 0 0 7399 0 0 0 0 0 0 0 0 0 0 0 0 0 0 0 0 0 0 0 0 0 0 0 0 0 0 0 0 0 
0 0 0 0 0 0 0 0 0 0 0 0 0 0 0 0 0 0 0 0 0 0 0 0 0 0 0 0 0 0 7684 0 0 14989 0 0 14860 0 0 15030 0 0 14932 0 0 14964 0 0 14994 0 0 15011 0 0 15040 0 0 15130 0 0 14958 0 0 14893 0 0 15101 0 0 14936 0 0 15084 0 0 15033 0 0 15072 0 0 14862 0 0 15032 0 0 15010 0 0 15038 0 0 14933 0 0 15036 0 0 14813 0 0 15010 0 0 15121 0 0 14887 0 0 14804 0 0 15082 0 0 14919 0 0 15037 0 0 15022 0 0 15128 0 0 14921 0 0 14918 0 0 15015 0 0 15106 0 0 14946 0 0 15063 0 0 14911 0 0 7555 0 0 0 0 0 0 0 0 0 0 0 0 0 0 0 0 0 0 0 0 0 0 0 0 0 0 0 0 0 
0 0 0 0 0 0 0 0 0 0 0 0 0 0 0 0 0 0 0 0 0 0 0 0 0 0 0 0 0 0 7645 0 0 15074 0 0 14896 0 0 15130 0 0 14917 0 0 14935 0 0 15265 0 0 14911 0 0 15070 0 0 15041 0 0 15052 0 0 14984 0 0 14814 0 0 14929 0 0 15117 0 0 15139 0 0 14893 0 0 14963 0 0 14824 0 0 15073 0 0 14961 0 0 14942 0 0 15019 0 0 14769 0 0 14993 0 0 15114 0 0 15000 0 0 15174 0 0 15059 0 0 15107 0 0 15086 0 0 15092 0 0 15069 0 0 14779 0 0 15195 0 0 14944 0 0 15014 0 0 14967 0 0 14924 0 0 14606 0 0 7494 0 0 0 0 0 0 0 0 0 0 0 0 0 0 0 0 0 0 0 0 0 0 0 0 0 0 0 0 0 
0 0 0 0 0 0 0 0 0 0 0 0 0 0 0 0 0 0 0 0 0 0 0 0 0 0 0 0 0 0 7450 0 0 14930 0 0 14785 0 0 14856 0 0 15074 0 0 15054 0 0 15047 0 0 14896 0 0 15001 0 0 15018 0 0 15155 0 0 14873 0 0 15067 0 0 15028 0 0 15037 0 0 15197 0 0 15056 0 0 15051 0 0 15089 0 0 14998 0 0 15102 0 0 15329 0 0 15313 0 0 14841 0 0 14924 0 0 14904 0 0 14965 0 0 14839 0 0 15181 0 0 14937 0 0 14788 0 0 14686 0 0 15197 0 0 15023 0 0 15194 0 0 14944 0 0 14993 0 0 15000 0 0 14981 0 0 15062 0 0 7428 0 0 0 0 0 0 0 0 0 0 0 0 0 0 0 0 0 0 0 0 0 0 0 0 0 0 0 0 0 
0 0 0 0 0 0 0 0 0 0 0 0 0 0 0 0 0 0 0 0 0 0 0 0 0 0 0 0 0 0 7679 0 0 15105 0 0 15059 0 0 14905 0 0 15069 0 0 14906 0 0 14995 0 0 15051 0 0 14848 0 0 15197 0 0 15019 0 0 15081 0 0 15103 0 0 14933 0 0 15288 0 0 14974 0 0 15150 0 0 15131 0 0 14922 0 0 15379 0 0 15160 0 0 15277 0 0 14968 0 0 14924 0 0 14885 0 0 15054 0 0 14930 0 0 15077 0 0 14998 0 0 14997 0 0 15029 0 0 15008 0 0 15088 0 0 15169 0 0 14991 0 0 15114 0 0 15052 0 0 15273 0 0 15148 0 0 15152 0 0 7356 0 0 0 0 0 0 0 0 0 0 0 0 0 0 0 0 0 0 0 0 0 0 0 0 0 0 0 0 0 
0 0 0 0 0 0 0 0 0 0 0 0 0 0 0 0 0 0 0 0 0 0 0 0 0 0 0 0 0 0 7567 0 0 14987 0 0 15123 0 0 14975 0 0 14977 0 0 15271 0 0 15162 0 0 14985 0 0 15219 0 0 15041 0 0 14909 0 0 15028 0 0 15137 0 0 15120 0 0 15000 0 0 14906 0 0 15220 0 0 15176 0 0 15318 0 0 14869 0 0 14946 0 0 15088 0 0 15022 0 0 14760 0 0 15073 0 0 14951 0 0 14886 0 0 14987 0 0 14897 0 0 15086 0 0 15177 0 0 14900 0 0 14954 0 0 15037 0 0 14725 0 0 15193 0 0 15134 0 0 14913 0 0 14996 0 0 15044 0 0 7285 0 0 0 0 0 0 0 0 0 0 0 0 0 0 0 0 0 0 0 0 0 0 0 0 0 0 0 0 0 
0 0 0 0 0 0 0 0 0 0 0 0 0 0 0 0 0 0 0 0 0 0 0 0 0 0 0 0 0 0 7471 0 0 14954 0 0 15051 0 0 14804 0 0 14996 0 0 15022 0 0 15151 0 0 14908 0 0 15203 0 0 14979 0 0 14880 0 0 14929 0 0 14931 0 0 15020 0 0 14919 0 0 15001 0 0 15115 0 0 15010 0 0 15101 0 0 14943 0 0 15110 0 0 15180 0 0 14842 0 0 14923 0 0 15039 0 0 14948 0 0 14990 0 0 14928 0 0 14950 0 0 14813 0 0 14909 0 0 15123 0 0 15024 0 0 15107 0 0 14912 0 0 15003 0 0 15125 0 0 14968 0 0 15094 0 0 15048 0 0 7441 0 0 0 0 0 0 0 0 0 0 0 0 0 0 0 0 0 0 0 0 0 0 0 0 0 0 0 0 0 
0 0 0 0 0 0 0 0 0 0 0 0 0 0 0 0 0 0 0 0 0 0 0 0 0 0 0 0 0 0 7603 0 0 14887 0 0 14927 0 0 15068 0 0 15037 0 0 14953 0 0 14967 0 0 14848 0 0 15169 0 0 14884 0 0 14995 0 0 15102 0 0 14953 0 0 15003 0 0 15014 0 0 14924 0 0 14973 0 0 14928 0 0 15105 0 0 14848 0 0 15020 0 0 14929 0 0 14954 0 0 14817 0 0 15110 0 0 15067 0 0 15178 0 0 15108 0 0 14804 0 0 15000 0 0 14950 0 0 14825 0 0 15183 0 0 14797 0 0 14949 0 0 14999 0 0 15078 0 0 14978 0 0 14971 0 0 15060 0 0 7531 0 0 0 0 0 0 0 0 0 0 0 0 0 0 0 0 0 0 0 0 0 0 0 0 0 0 0 0 0 
0 0 0 0 0 0 0 0 0 0 0 0 0 0 0 0 0 0 0 0 0 0 0 0 0 0 0 0 0 0 7522 0 0 14874 0 0 15091 0 0 14861 0 0 15101 0 0 14963 0 0 14935 0 0 14693 0 0 15146 0 0 15085 0 0 15104 0 0 14836 0 0 15332 0 0 14760 0 0 14980 0 0 15051 0 0 14949 0 0 15039 0 0 14848 0 0 14951 0 0 15123 0 0 15016 0 0 15194 0 0 15041 0 0 14955 0 0 15128 0 0 15240 0 0 14877 0 0 14875 0 0 14846 0 0 14974 0 0 15032 0 0 14889 0 0 15092 0 0 15194 0 0 14972 0 0 15044 0 0 14881 0 0 15169 0 0 14978 0 0 7485 0 0 0 0 0 0 0 0 0 0 0 0 0 0 0 0 0 0 0 0 0 0 0 0 0 0 0 0 0 
0 0 0 0 0 0 0 0 0 0 0 0 0 0 0 0 0 0 0 0 0 0 0 0 0 0 0 0 0 0 7511 0 0 15008 0 0 14888 0 0 15026 0 0 14987 0 0 15042 0 0 15113 0 0 14936 0 0 15114 0 0 14844 0 0 15062 0 0 14920 0 0 15048 0 0 14986 0 0 14798 0 0 15057 0 0 14804 0 0 15006 0 0 14746 0 0 14932 0 0 14826 0 0 14725 0 0 14866 0 0 15069 0 0 14919 0 0 15222 0 0 15172 0 0 14931 0 0 15003 0 0 14908 0 0 15012 0 0 14833 0 0 15001 0 0 15203 0 0 14990 0 0 15188 0 0 14883 0 0 15056 0 0 15223 0 0 14973 0 0 7604 0 0 0 0 0 0 0 0 0 0 0 0 0 0 0 0 0 0 0 0 0 0 0 0 0 0 0 0 0 
0 0 0 0 0 0 0 0 0 0 0 0 0 0 0 0 0 0 0 0 0 0 0 0 0 0 0 0 0 0 7608 0 0 15005 0 0 14753 0 0 15013 0 0 14931 0 0 14838 0 0 15186 0 0 14931 0 0 14811 0 0 14937 0 0 14837 0 0 15022 0 0 15044 0 0 14978 0 0 14993 0 0 15112 0 0 14939 0 0 15074 0 0 14976 0 0 14888 0 0 15022 0 0 14866 0 0 14955 0 0 15046 0 0 14960 0 0 14898 0 0 15065 0 0 14972 0 0 15057 0 0 15119 0 0 14937 0 0 14890 0 0 14957 0 0 14973 0 0 14946 0 0 14932 0 0 15043 0 0 15333 0 0 15083 0 0 14918 0 0 7495 0 0 0 0 0 0 0 0 0 0 0 0 0 0 0 0 0 0 0 0 0 0 0 0 0 0 0 0 0 
0 0 0 0 0 0 0 0 0 0 0 0 0 0 0 0 0 0 0 0 0 0 0 0 0 0 0 0 0 0 7406 0 0 14992 0 0 15073 0 0 14903 0 0 15103 0 0 14842 0 0 14764 0 0 15056 0 0 15160 0 0 14874 0 0 15143 0 0 15015 0 0 15075 0 0 15141 0 0 14985 0 0 14981 0 0 14925 0 0 14948 0 0 15138 0 0 14856 0 0 15014 0 0 14891 0 0 15094 0 0 15051 0 0 14942 0 0 14884 0 0 14923 0 0 14962 0 0 14992 0 0 15167 0 0 15104 0 0 15021 0 0 14889 0 0 15077 0 0 15089 0 0 14978 0 0 15083 0 0 15044 0 0 14985 0 0 14942 0 0 7744 0 0 0 0 0 0 0 0 0 0 0 0 0 0 0 0 0 0 0 0 0 0 0 0 0 0 0 0 0 
0 0 0 0 0 0 0 0 0 0 0 0 0 0 0 0 0 0 0 0 0 0 0 0 0 0 0 0 0 0 7460 0 0 15072 0 0 14879 0 0 15003 0 0 14806 0 0 14981 0 0 14978 0 0 15152 0 0 15004 0 0 14993 0 0 15024 0 0 14999 0 0 14959 0 0 15210 0 0 15062 0 0 15039 0 0 14969 0 0 14802 0 0 15030 0 0 14843 0 0 14894 0 0 15122 0 0 14894 0 0 14994 0 0 14880 0 0 15137 0 0 15088 0 0 14789 0 0 14672 0 0 15004 0 0 15296 0 0 14876 0 0 14867 0 0 14856 0 0 15201 0 0 14944 0 0 14968 0 0 15047 0 0 14796 0 0 15118 0 0 7572 0 0 0 0 0 0 0 0 0 0 0 0 0 0 0 0 0 0 0 0 0 0 0 0 0 0 0 0 0 
0 0 0 0 0 0 0 0 0 0 0 0 0 0 0 0 0 0 0 0 0 0 0 0 0 0 0 0 0 0 7573 0 0 15156 0 0 15024 0 0 15209 0 0 15068 0 0 15185 0 0 15166 0 0 15031 0 0 14824 0 0 15296 0 0 14951 0 0 14790 0 0 15195 0 0 14965 0 0 15130 0 0 15010 0 0 14887 0 0 15236 0 0 14972 0 0 14794 0 0 15057 0 0 14693 0 0 15110 0 0 15094 0 0 14775 0 0 15106 0 0 15056 0 0 14926 0 0 14945 0 0 14863 0 0 15136 0 0 15026 0 0 15018 0 0 14903 0 0 14985 0 0 15019 0 0 15262 0 0 14911 0 0 15048 0 0 14992 0 0 7514 0 0 0 0 0 0 0 0 0 0 0 0 0 0 0 0 0 0 0 0 0 0 0 0 0 0 0 0 0 
0 0 0 0 0 0 0 0 0 0 0 0 0 0 0 0 0 0 0 0 0 0 0 0 0 0 0 0 0 0 7469 0 0 14932 0 0 15056 0 0 15017 0 0 15038 0 0 14897 0 0 14833 0 0 14996 0 0 14852 0 0 14956 0 0 14668 0 0 15003 0 0 15107 0 0 15116 0 0 14903 0 0 14819 0 0 14944 0 0 14835 0 0 14995 0 0 14915 0 0 14857 0 0 15065 0 0 15161 0 0 15098 0 0 15209 0 0 14971 0 0 15287 0 0 15022 0 0 15115 0 0 14959 0 0 14964 0 0 15001 0 0 15182 0 0 14996 0 0 15015 0 0 15047 0 0 14796 0 0 14960 0 0 15022 0 0 14895 0 0 7487 0 0 0 0 0 0 0 0 0 0 0 0 0 0 0 0 0 0 0 0 0 0 0 0 0 0 0 0 0 
0 0 0 0 0 0 0 0 0 0 0 0 0 0 0 0 0 0 0 0 0 0 0 0 0 0 0 0 0 0 7408 0 0 14773 0 0 14966 0 0 15074 0 0 14869 0 0 15163 0 0 14990 0 0 15066 0 0 14886 0 0 15069 0 0 14993 0 0 15016 0 0 14877 0 0 15080 0 0 15139 0 0 14973 0 0 14957 0 0 15019 0 0 14988 0 0 15032 0 0 14842 0 0 14876 0 0 15105 0 0 14949 0 0 14948 0 0 14944 0 0 15050 0 0 15177 0 0 14984 0 0 14926 0 0 15146 0 0 15123 0 0 15077 0 0 15122 0 0 14894 0 0 14790 0 0 15028 0 0 14954 0 0 14933 0 0 15017 0 0 7613 0 0 0 0 0 0 0 0 0 0 0 0 0 0 0 0 0 0 0 0 0 0 0 0 0 0 0 0 0 
0 0 0 0 0 0 0 0 0 0 0 0 0 0 0 0 0 0 0 0 0 0 0 0 0 0 0 0 0 0 7494 0 0 14965 0 0 15137 0 0 15025 0 0 15003 0 0 15158 0 0 14932 0 0 14836 0 0 14860 0 0 15205 0 0 14990 0 0 14933 0 0 15047 0 0 15027 0 0 15107 0 0 15029 0 0 15045 0 0 14900 0 0 14953 0 0 14777 0 0 15020 0 0 14976 0 0 15065 0 0 15012 0 0 15053 0 0 15077 0 0 15093 0 0 15039 0 0 14898 0 0 15142 0 0 14949 0 0 14893 0 0 15188 0 0 15102 0 0 14968 0 0 15003 0 0 14961 0 0 14935 0 0 14909 0 0 14969 0 0 7434 0 0 0 0 0 0 0 0 0 0 0 0 0 0 0 0 0 0 0 0 0 0 0 0 0 0 0 0 0 
0 0 0 0 0 0 0 0 0 0 0 0 0 0 0 0 0 0 0 0 0 0 0 0 0 0 0 0 0 0 7368 0 0 14930 0 0 14867 0 0 15132 0 0 14893 0 0 15224 0 0 14803 0 0 15226 0 0 14937 0 0 15020 0 0 14950 0 0 14806 0 0 15133 0 0 15032 0 0 14999 0 0 15026 0 0 14962 0 0 15269 0 0 14955 0 0 15233 0 0 14914 0 0 15076 0 0 15253 0 0 15146 0 0 15023 0 0 14754 0 0 15047 0 0 14876 0 0 14848 0 0 15056 0 0 14857 0 0 14979 0 0 14785 0 0 15170 0 0 14894 0 0 15062 0 0 15252 0 0 14899 0 0 14998 0 0 14757 0 0 7567 0 0 0 0 0 0 0 0 0 0 0 0 0 0 0 0 0 0 0 0 0 0 0 0 0 0 0 0 0 
0 0 0 0 0 0 0 0 0 0 0 0 0 0 0 0 0 0 0 0 0 0 0 0 0 0 0 0 0 0 7536 0 0 14978 0 0 15015 0 0 14948 0 0 15137 0 0 14968 0 0 15024 0 0 15230 0 0 14980 0 0 14898 0 0 14860 0 0 14914 0 0 15043 0 0 15141 0 0 14956 0 0 15234 0 0 15114 0 0 14994 0 0 14987 0 0 14881 0 0 15077 0 0 14943 0 0 15102 0 0 14890 0 0 14900 0 0 14969 0 0 15130 0 0 15205 0 0 15213 0 0 15044 0 0 14974 0 0 15019 0 0 15136 0 0 15068 0 0 14933 0 0 15250 0 0 14831 0 0 14999 0 0 14970 0 0 14962 0 0 7415 0 0 0 0 0 0 0 0 0 0 0 0 0 0 0 0 0 0 0 0 0 0 0 0 0 0 0 0 0 
0 0 0 0 0 0 0 0 0 0 0 0 0 0 0 0 0 0 0 0 0 0 0 0 0 0 0 0 0 0 7403 0 0 14986 0 0 14977 0 0 14991 0 0 15083 0 0 15085 0 0 14955 0 0 15148 0 0 15050 0 0 15307 0 0 14958 0 0 15115 0 0 14762 0 0 14649 0 0 14978 0 0 14977 0 0 14950 0 0 15101 0 0 15036 0 0 15124 0 0 15091 0 0 14813 0 0 14948 0 0 15277 0 0 15247 0 0 14861 0 0 15068 0 0 14886 0 0 14938 0 0 14903 0 0 15190 0 0 14920 0 0 14944 0 0 14903 0 0 15283 0 0 15013 0 0 14950 0 0 14998 0 0 15001 0 0 15003 0 0 7578 0 0 0 0 0 0 0 0 0 0 0 0 0 0 0 0 0 0 0 0 0 0 0 0 0 0 0 0 0 
0 0 0 0 0 0 0 0 0 0 0 0 0 0 0 0 0 0 0 0 0 0 0 0 0 0 0 0 0 0 7633 0 0 15027 0 0 15034 0 0 15056 0 0 15064 0 0 14988 0 0 14996 0 0 15199 0 0 15052 0 0 14979 0 0 14777 0 0 14954 0 0 15042 0 0 15080 0 0 15059 0 0 15223 0 0 14991 0 0 15194 0 0 14908 0 0 15037 0 0 15037 0 0 15277 0 0 14913 0 0 15445 0 0 14951 0 0 15008 0 0 15124 0 0 14860 0 0 15085 0 0 15038 0 0 14963 0 0 15142 0 0 14945 0 0 14969 0 0 14862 0 0 15171 0 0 15262 0 0 15085 0 0 15066 0 0 15212 0 0 7448 0 0 0 0 0 0 0 0 0 0 0 0 0 0 0 0 0 0 0 0 0 0 0 0 0 0 0 0 0 
0 0 0 0 0 0 0 0 0 0 0 0 0 0 0 0 0 0 0 0 0 0 0 0 0 0 0 0 0 0 7441 0 0 15120 0 0 15038 0 0 14959 0 0 15017 0 0 14893 0 0 15013 0 0 15021 0 0 14912 0 0 15311 0 0 15061 0 0 15137 0 0 15167 0 0 15001 0 0 14977 0 0 15141 0 0 14931 0 0 15031 0 0 14982 0 0 14969 0 0 15141 0 0 14995 0 0 15004 0 0 14956 0 0 14853 0 0 15212 0 0 14729 0 0 14981 0 0 14821 0 0 15175 0 0 15043 0 0 14840 0 0 14941 0 0 14898 0 0 15120 0 0 15130 0 0 15168 0 0 15159 0 0 15093 0 0 14871 0 0 7461 0 0 0 0 0 0 0 0 0 0 0 0 0 0 0 0 0 0 0 0 0 0 0 0 0 0 0 0 0 
0 0 0 0 0 0 0 0 0 0 0 0 0 0 0 0 0 0 0 0 0 0 0 0 0 0 0 0 0 0 7590 0 0 14883 0 0 14921 0 0 15091 0 0 14961 0 0 15187 0 0 14944 0 0 15124 0 0 14948 0 0 15079 0 0 14868 0 0 15043 0 0 15193 0 0 15170 0 0 14836 0 0 15109 0 0 14975 0 0 15085 0 0 14920 0 0 15049 0 0 15031 0 0 14815 0 0 15022 0 0 14988 0 0 15014 0 0 14819 0 0 15129 0 0 15006 0 0 15024 0 0 14966 0 0 15021 0 0 14924 0 0 15129 0 0 14873 0 0 15147 0 0 15225 0 0 15023 0 0 14961 0 0 14928 0 0 14898 0 0 7428 0 0 0 0 0 0 0 0 0 0 0 0 0 0 0 0 0 0 0 0 0 0 0 0 0 0 0 0 0 
0 0 0 0 0 0 0 0 0 0 0 0 0 0 0 0 0 0 0 0 0 0 0 0 0 0 0 0 0 0 3817 0 0 7462 0 0 7495 0 0 7519 0 0 7516 0 0 7571 0 0 7487 0 0 7390 0 0 7297 0 0 7587 0 0 7414 0 0 7586 0 0 7608 0 0 7478 0 0 7538 0 0 7471 0 0 7377 0 0 7614 0 0 7501 0 0 7612 0 0 7580 0 0 7533 0 0 7456 0 0 7334 0 0 7591 0 0 7436 0 0 7407 0 0 7536 0 0 7449 0 0 7651 0 0 7528 0 0 7496 0 0 7521 0 0 7624 0 0 7561 0 0 7533 0 0 7508 0 0 7574 0 0 7578 0 0 7525 0 0 3741 0 0 0 0 0 0 0 0 0 0 0 0 0 0 0 0 0 0 0 0 0 0 0 0 0 0 0 0 0 
0 0 0 0 0 0 0 0 0 0 0 0 0 0 0 0 0 0 0 0 0 0 0 0 0 0 0 0 0 0 0 0 0 0 0 0 0 0 0 0 0 0 0 0 0 0 0 0 0 0 0 0 0 0 0 0 0 0 0 0 0 0 0 0 0 0 0 0 0 0 0 0 0 0 0 0 0 0 0 0 0 0 0 0 0 0 0 0 0 0 0 0 0 0 0 0 0 0 0 0 0 0 0 0 0 0 0 0 0 0 0 0 0 0 0 0 0 0 0 0 0 0 0 0 0 0 0 0 0 0 0 0 0 0 0 0 0 0 0 0 0 0 0 0 0 0 0 0 0 0 0 0 0 0 0 0 0 0 0 0 0 0 0 0 0 0 0 0 0 0 0 0 0 0 0 0 0 0 0 0 
0 0 0 0 0 0 0 0 0 0 0 0 0 0 0 0 0 0 0 0 0 0 0 0 0 0 0 0 0 0 0 0 0 0 0 0 0 0 0 0 0 0 0 0 0 0 0 0 0 0 0 0 0 0 0 0 0 0 0 0 0 0 0 0 0 0 0 0 0 0 0 0 0 0 0 0 0 0 0 0 0 0 0 0 0 0 0 0 0 0 0 0 0 0 0 0 0 0 0 0 0 0 0 0 0 0 0 0 0 0 0 0 0 0 0 0 0 0 0 0 0 0 0 0 0 0 0 0 0 0 0 0 0 0 0 0 0 0 0 0 0 0 0 0 0 0 0 0 0 0 0 0 0 0 0 0 0 0 0 0 0 0 0 0 0 0 0 0 0 0 0 0 0 0 0 0 0 0 0 0 
0 0 0 0 0 0 0 0 0 0 0 0 0 0 0 0 0 0 0 0 0 0 0 0 0 0 0 0 0 0 0 0 0 0 0 0 0 0 0 0 0 0 0 0 0 0 0 0 0 0 0 0 0 0 0 0 0 0 0 0 0 0 0 0 0 0 0 0 0 0 0 0 0 0 0 0 0 0 0 0 0 0 0 0 0 0 0 0 0 0 0 0 0 0 0 0 0 0 0 0 0 0 0 0 0 0 0 0 0 0 0 0 0 0 0 0 0 0 0 0 0 0 0 0 0 0 0 0 0 0 0 0 0 0 0 0 0 0 0 0 0 0 0 0 0 0 0 0 0 0 0 0 0 0 0 0 0 0 0 0 0 0 0 0 0 0 0 0 0 0 0 0 0 0 0 0 0 0 0 0 
0 0 0 0 0 0 0 0 0 0 0 0 0 0 0 0 0 0 0 0 0 0 0 0 0 0 0 0 0 0 0 0 0 0 0 0 0 0 0 0 0 0 0 0 0 0 0 0 0 0 0 0 0 0 0 0 0 0 0 0 0 0 0 0 0 0 0 0 0 0 0 0 0 0 0 0 0 0 0 0 0 0 0 0 0 0 0 0 0 0 0 0 0 0 0 0 0 0 0 0 0 0 0 0 0 0 0 0 0 0 0 0 0 0 0 0 0 0 0 0 0 0 0 0 0 0 0 0 0 0 0 0 0 0 0 0 0 0 0 0 0 0 0 0 0 0 0 0 0 0 0 0 0 0 0 0 0 0 0 0 0 0 0 0 0 0 0 0 0 0 0 0 0 0 0 0 0 0 0 0 
0 0 0 0 0 0 0 0 0 0 0 0 0 0 0 0 0 0 0 0 0 0 0 0 0 0 0 0 0 0 0 0 0 0 0 0 0 0 0 0 0 0 0 0 0 0 0 0 0 0 0 0 0 0 0 0 0 0 0 0 0 0 0 0 0 0 0 0 0 0 0 0 0 0 0 0 0 0 0 0 0 0 0 0 0 0 0 0 0 0 0 0 0 0 0 0 0 0 0 0 0 0 0 0 0 0 0 0 0 0 0 0 0 0 0 0 0 0 0 0 0 0 0 0 0 0 0 0 0 0 0 0 0 0 0 0 0 0 0 0 0 0 0 0 0 0 0 0 0 0 0 0 0 0 0 0 0 0 0 0 0 0 0 0 0 0 0 0 0 0 0 0 0 0 0 0 0 0 0 0 
0 0 0 0 0 0 0 0 0 0 0 0 0 0 0 0 0 0 0 0 0 0 0 0 0 0 0 0 0 0 0 0 0 0 0 0 0 0 0 0 0 0 0 0 0 0 0 0 0 0 0 0 0 0 0 0 0 0 0 0 0 0 0 0 0 0 0 0 0 0 0 0 0 0 0 0 0 0 0 0 0 0 0 0 0 0 0 0 0 0 0 0 0 0 0 0 0 0 0 0 0 0 0 0 0 0 0 0 0 0 0 0 0 0 0 0 0 0 0 0 0 0 0 0 0 0 0 0 0 0 0 0 0 0 0 0 0 0 0 0 0 0 0 0 0 0 0 0 0 0 0 0 0 0 0 0 0 0 0 0 0 0 0 0 0 0 0 0 0 0 0 0 0 0 0 0 0 0 0 0 
0 0 0 0 0 0 0 0 0 0 0 0 0 0 0 0 0 0 0 0 0 0 0 0 0 0 0 0 0 0 0 0 0 0 0 0 0 0 0 0 0 0 0 0 0 0 0 0 0 0 0 0 0 0 0 0 0 0 0 0 0 0 0 0 0 0 0 0 0 0 0 0 0 0 0 0 0 0 0 0 0 0 0 0 0 0 0 0 0 0 0 0 0 0 0 0 0 0 0 0 0 0 0 0 0 0 0 0 0 0 0 0 0 0 0 0 0 0 0 0 0 0 0 0 0 0 0 0 0 0 0 0 0 0 0 0 0 0 0 0 0 0 0 0 0 0 0 0 0 0 0 0 0 0 0 0 0 0 0 0 0 0 0 0 0 0 0 0 0 0 0 0 0 0 0 0 0 0 0 0 
0 0 0 0 0 0 0 0 0 0 0 0 0 0 0 0 0 0 0 0 0 0 0 0 0 0 0 0 0 0 0 0 0 0 0 0 0 0 0 0 0 0 0 0 0 0 0 0 0 0 0 0 0 0 0 0 0 0 0 0 0 0 0 0 0 0 0 0 0 0 0 0 0 0 0 0 0 0 0 0 0 0 0 0 0 0 0 0 0 0 0 0 0 0 0 0 0 0 0 0 0 0 0 0 0 0 0 0 0 0 0 0 0 0 0 0 0 0 0 0 0 0 0 0 0 0 0 0 0 0 0 0 0 0 0 0 0 0 0 0 0 0 0 0 0 0 0 0 0 0 0 0 0 0 0 0 0 0 0 0 0 0 0 0 0 0 0 0 0 0 0 0 0 0 0 0 0 0 0 0 
0 0 0 0 0 0 0 0 0 0 0 0 0 0 0 0 0 0 0 0 0 0 0 0 0 0 0 0 0 0 0 0 0 0 0 0 0 0 0 0 0 0 0 0 0 0 0 0 0 0 0 0 0 0 0 0 0 0 0 0 0 0 0 0 0 0 0 0 0 0 0 0 0 0 0 0 0 0 0 0 0 0 0 0 0 0 0 0 0 0 0 0 0 0 0 0 0 0 0 0 0 0 0 0 0 0 0 0 0 0 0 0 0 0 0 0 0 0 0 0 0 0 0 0 0 0 0 0 0 0 0 0 0 0 0 0 0 0 0 0 0 0 0 0 0 0 0 0 0 0 0 0 0 0 0 0 0 0 0 0 0 0 0 0 0 0 0 0 0 0 0 0 0 0 0 0 0 0 0 0 
