P3
# This is a dose file slice at depth 91 of 100
60 60
# now we give the maximum value of the RGB coordinates.
34334
0 0 0 0 0 0 0 0 0 0 0 0 0 0 0 0 0 0 0 0 0 0 0 0 0 0 0 0 0 0 0 0 0 0 0 0 0 0 0 0 0 0 0 0 0 0 0 0 0 0 0 0 0 0 0 0 0 0 0 0 0 0 0 0 0 0 0 0 0 0 0 0 0 0 0 0 0 0 0 0 0 0 0 0 0 0 0 0 0 0 0 0 0 0 0 0 0 0 0 0 0 0 0 0 0 0 0 0 0 0 0 0 0 0 0 0 0 0 0 0 0 0 0 0 0 0 0 0 0 0 0 0 0 0 0 0 0 0 0 0 0 0 0 0 0 0 0 0 0 0 0 0 0 0 0 0 0 0 0 0 0 0 0 0 0 0 0 0 0 0 0 0 0 0 0 0 0 0 0 0 
0 0 0 0 0 0 0 0 0 0 0 0 0 0 0 0 0 0 0 0 0 0 0 0 0 0 0 0 0 0 0 0 0 0 0 0 0 0 0 0 0 0 0 0 0 0 0 0 0 0 0 0 0 0 0 0 0 0 0 0 0 0 0 0 0 0 0 0 0 0 0 0 0 0 0 0 0 0 0 0 0 0 0 0 0 0 0 0 0 0 0 0 0 0 0 0 0 0 0 0 0 0 0 0 0 0 0 0 0 0 0 0 0 0 0 0 0 0 0 0 0 0 0 0 0 0 0 0 0 0 0 0 0 0 0 0 0 0 0 0 0 0 0 0 0 0 0 0 0 0 0 0 0 0 0 0 0 0 0 0 0 0 0 0 0 0 0 0 0 0 0 0 0 0 0 0 0 0 0 0 
0 0 0 0 0 0 0 0 0 0 0 0 0 0 0 0 0 0 0 0 0 0 0 0 0 0 0 0 0 0 0 0 0 0 0 0 0 0 0 0 0 0 0 0 0 0 0 0 0 0 0 0 0 0 0 0 0 0 0 0 0 0 0 0 0 0 0 0 0 0 0 0 0 0 0 0 0 0 0 0 0 0 0 0 0 0 0 0 0 0 0 0 0 0 0 0 0 0 0 0 0 0 0 0 0 0 0 0 0 0 0 0 0 0 0 0 0 0 0 0 0 0 0 0 0 0 0 0 0 0 0 0 0 0 0 0 0 0 0 0 0 0 0 0 0 0 0 0 0 0 0 0 0 0 0 0 0 0 0 0 0 0 0 0 0 0 0 0 0 0 0 0 0 0 0 0 0 0 0 0 
0 0 0 0 0 0 0 0 0 0 0 0 0 0 0 0 0 0 0 0 0 0 0 0 0 0 0 0 0 0 0 0 0 0 0 0 0 0 0 0 0 0 0 0 0 0 0 0 0 0 0 0 0 0 0 0 0 0 0 0 0 0 0 0 0 0 0 0 0 0 0 0 0 0 0 0 0 0 0 0 0 0 0 0 0 0 0 0 0 0 0 0 0 0 0 0 0 0 0 0 0 0 0 0 0 0 0 0 0 0 0 0 0 0 0 0 0 0 0 0 0 0 0 0 0 0 0 0 0 0 0 0 0 0 0 0 0 0 0 0 0 0 0 0 0 0 0 0 0 0 0 0 0 0 0 0 0 0 0 0 0 0 0 0 0 0 0 0 0 0 0 0 0 0 0 0 0 0 0 0 
0 0 0 0 0 0 0 0 0 0 0 0 0 0 0 0 0 0 0 0 0 0 0 0 0 0 0 0 0 0 0 0 0 0 0 0 0 0 0 0 0 0 0 0 0 0 0 0 0 0 0 0 0 0 0 0 0 0 0 0 0 0 0 0 0 0 0 0 0 0 0 0 0 0 0 0 0 0 0 0 0 0 0 0 0 0 0 0 0 0 0 0 0 0 0 0 0 0 0 0 0 0 0 0 0 0 0 0 0 0 0 0 0 0 0 0 0 0 0 0 0 0 0 0 0 0 0 0 0 0 0 0 0 0 0 0 0 0 0 0 0 0 0 0 0 0 0 0 0 0 0 0 0 0 0 0 0 0 0 0 0 0 0 0 0 0 0 0 0 0 0 0 0 0 0 0 0 0 0 0 
0 0 0 0 0 0 0 0 0 0 0 0 0 0 0 0 0 0 0 0 0 0 0 0 0 0 0 0 0 0 0 0 0 0 0 0 0 0 0 0 0 0 0 0 0 0 0 0 0 0 0 0 0 0 0 0 0 0 0 0 0 0 0 0 0 0 0 0 0 0 0 0 0 0 0 0 0 0 0 0 0 0 0 0 0 0 0 0 0 0 0 0 0 0 0 0 0 0 0 0 0 0 0 0 0 0 0 0 0 0 0 0 0 0 0 0 0 0 0 0 0 0 0 0 0 0 0 0 0 0 0 0 0 0 0 0 0 0 0 0 0 0 0 0 0 0 0 0 0 0 0 0 0 0 0 0 0 0 0 0 0 0 0 0 0 0 0 0 0 0 0 0 0 0 0 0 0 0 0 0 
0 0 0 0 0 0 0 0 0 0 0 0 0 0 0 0 0 0 0 0 0 0 0 0 0 0 0 0 0 0 0 0 0 0 0 0 0 0 0 0 0 0 0 0 0 0 0 0 0 0 0 0 0 0 0 0 0 0 0 0 0 0 0 0 0 0 0 0 0 0 0 0 0 0 0 0 0 0 0 0 0 0 0 0 0 0 0 0 0 0 0 0 0 0 0 0 0 0 0 0 0 0 0 0 0 0 0 0 0 0 0 0 0 0 0 0 0 0 0 0 0 0 0 0 0 0 0 0 0 0 0 0 0 0 0 0 0 0 0 0 0 0 0 0 0 0 0 0 0 0 0 0 0 0 0 0 0 0 0 0 0 0 0 0 0 0 0 0 0 0 0 0 0 0 0 0 0 0 0 0 
0 0 0 0 0 0 0 0 0 0 0 0 0 0 0 0 0 0 0 0 0 0 0 0 0 0 0 0 0 0 0 0 0 0 0 0 0 0 0 0 0 0 0 0 0 0 0 0 0 0 0 0 0 0 0 0 0 0 0 0 0 0 0 0 0 0 0 0 0 0 0 0 0 0 0 0 0 0 0 0 0 0 0 0 0 0 0 0 0 0 0 0 0 0 0 0 0 0 0 0 0 0 0 0 0 0 0 0 0 0 0 0 0 0 0 0 0 0 0 0 0 0 0 0 0 0 0 0 0 0 0 0 0 0 0 0 0 0 0 0 0 0 0 0 0 0 0 0 0 0 0 0 0 0 0 0 0 0 0 0 0 0 0 0 0 0 0 0 0 0 0 0 0 0 0 0 0 0 0 0 
0 0 0 0 0 0 0 0 0 0 0 0 0 0 0 0 0 0 0 0 0 0 0 0 0 0 0 0 0 0 0 0 0 0 0 0 0 0 0 0 0 0 0 0 0 0 0 0 0 0 0 0 0 0 0 0 0 0 0 0 0 0 0 0 0 0 0 0 0 0 0 0 0 0 0 0 0 0 0 0 0 0 0 0 0 0 0 0 0 0 0 0 0 0 0 0 0 0 0 0 0 0 0 0 0 0 0 0 0 0 0 0 0 0 0 0 0 0 0 0 0 0 0 0 0 0 0 0 0 0 0 0 0 0 0 0 0 0 0 0 0 0 0 0 0 0 0 0 0 0 0 0 0 0 0 0 0 0 0 0 0 0 0 0 0 0 0 0 0 0 0 0 0 0 0 0 0 0 0 0 
0 0 0 0 0 0 0 0 0 0 0 0 0 0 0 0 0 0 0 0 0 0 0 0 0 0 0 0 0 0 0 0 0 0 0 0 0 0 0 0 0 0 0 0 0 0 0 0 0 0 0 0 0 0 0 0 0 0 0 0 0 0 0 0 0 0 0 0 0 0 0 0 0 0 0 0 0 0 0 0 0 0 0 0 0 0 0 0 0 0 0 0 0 0 0 0 0 0 0 0 0 0 0 0 0 0 0 0 0 0 0 0 0 0 0 0 0 0 0 0 0 0 0 0 0 0 0 0 0 0 0 0 0 0 0 0 0 0 0 0 0 0 0 0 0 0 0 0 0 0 0 0 0 0 0 0 0 0 0 0 0 0 0 0 0 0 0 0 0 0 0 0 0 0 0 0 0 0 0 0 
0 0 0 0 0 0 0 0 0 0 0 0 0 0 0 0 0 0 0 0 0 0 0 0 0 0 0 0 0 0 646 0 0 1373 0 0 1373 0 0 1421 0 0 1308 0 0 1379 0 0 1411 0 0 1402 0 0 1452 0 0 1355 0 0 1296 0 0 1309 0 0 1292 0 0 1363 0 0 1392 0 0 1418 0 0 1376 0 0 1347 0 0 1332 0 0 1383 0 0 1313 0 0 1354 0 0 1390 0 0 1340 0 0 1361 0 0 1349 0 0 1377 0 0 1390 0 0 1335 0 0 1339 0 0 1371 0 0 1305 0 0 1426 0 0 1319 0 0 1333 0 0 1354 0 0 1354 0 0 1372 0 0 1362 0 0 1371 0 0 680 0 0 0 0 0 0 0 0 0 0 0 0 0 0 0 0 0 0 0 0 0 0 0 0 0 0 0 0 0 
0 0 0 0 0 0 0 0 0 0 0 0 0 0 0 0 0 0 0 0 0 0 0 0 0 0 0 0 0 0 1419 0 0 2663 0 0 2778 0 0 2704 0 0 2691 0 0 2790 0 0 2835 0 0 2677 0 0 2674 0 0 2603 0 0 2727 0 0 2741 0 0 2812 0 0 2658 0 0 2776 0 0 2743 0 0 2697 0 0 2786 0 0 2853 0 0 2745 0 0 2715 0 0 2844 0 0 2758 0 0 2646 0 0 2716 0 0 2687 0 0 2707 0 0 2620 0 0 2748 0 0 2701 0 0 2761 0 0 2795 0 0 2700 0 0 2780 0 0 2740 0 0 2782 0 0 2805 0 0 2764 0 0 2743 0 0 2735 0 0 1336 0 0 0 0 0 0 0 0 0 0 0 0 0 0 0 0 0 0 0 0 0 0 0 0 0 0 0 0 0 
0 0 0 0 0 0 0 0 0 0 0 0 0 0 0 0 0 0 0 0 0 0 0 0 0 0 0 0 0 0 1323 0 0 2689 0 0 2801 0 0 2744 0 0 2721 0 0 2714 0 0 2819 0 0 2618 0 0 2730 0 0 2806 0 0 2665 0 0 2744 0 0 2715 0 0 2689 0 0 2732 0 0 2792 0 0 2679 0 0 2773 0 0 2765 0 0 2858 0 0 2639 0 0 2813 0 0 2829 0 0 2707 0 0 2730 0 0 2643 0 0 2743 0 0 2705 0 0 2734 0 0 2715 0 0 2673 0 0 2739 0 0 2686 0 0 2786 0 0 2817 0 0 2735 0 0 2795 0 0 2733 0 0 2688 0 0 2727 0 0 1415 0 0 0 0 0 0 0 0 0 0 0 0 0 0 0 0 0 0 0 0 0 0 0 0 0 0 0 0 0 
0 0 0 0 0 0 0 0 0 0 0 0 0 0 0 0 0 0 0 0 0 0 0 0 0 0 0 0 0 0 1383 0 0 2782 0 0 2770 0 0 2631 0 0 2736 0 0 2767 0 0 2687 0 0 2732 0 0 2787 0 0 2710 0 0 2753 0 0 2654 0 0 2702 0 0 2650 0 0 2730 0 0 2773 0 0 2703 0 0 2785 0 0 2646 0 0 2888 0 0 2773 0 0 2725 0 0 2664 0 0 2832 0 0 2589 0 0 2677 0 0 2743 0 0 2709 0 0 2749 0 0 2738 0 0 2711 0 0 2810 0 0 2777 0 0 2776 0 0 2717 0 0 2782 0 0 2748 0 0 2703 0 0 2773 0 0 2789 0 0 1324 0 0 0 0 0 0 0 0 0 0 0 0 0 0 0 0 0 0 0 0 0 0 0 0 0 0 0 0 0 
0 0 0 0 0 0 0 0 0 0 0 0 0 0 0 0 0 0 0 0 0 0 0 0 0 0 0 0 0 0 1388 0 0 2687 0 0 2713 0 0 2754 0 0 2727 0 0 2745 0 0 2756 0 0 2742 0 0 2756 0 0 2756 0 0 2686 0 0 2709 0 0 2748 0 0 2655 0 0 2788 0 0 2679 0 0 2721 0 0 2667 0 0 2805 0 0 2680 0 0 2805 0 0 2818 0 0 2765 0 0 2820 0 0 2701 0 0 2786 0 0 2678 0 0 2665 0 0 2722 0 0 2649 0 0 2750 0 0 2698 0 0 2722 0 0 2678 0 0 2736 0 0 2667 0 0 2695 0 0 2758 0 0 2735 0 0 2682 0 0 1353 0 0 0 0 0 0 0 0 0 0 0 0 0 0 0 0 0 0 0 0 0 0 0 0 0 0 0 0 0 
0 0 0 0 0 0 0 0 0 0 0 0 0 0 0 0 0 0 0 0 0 0 0 0 0 0 0 0 0 0 1379 0 0 2724 0 0 2783 0 0 2742 0 0 2696 0 0 2707 0 0 2710 0 0 2859 0 0 2608 0 0 2647 0 0 2725 0 0 2655 0 0 2848 0 0 2708 0 0 2741 0 0 2708 0 0 2777 0 0 2670 0 0 2740 0 0 2788 0 0 2657 0 0 2737 0 0 2733 0 0 2748 0 0 2688 0 0 2577 0 0 2801 0 0 2864 0 0 2725 0 0 2689 0 0 2783 0 0 2804 0 0 2839 0 0 2678 0 0 2805 0 0 2784 0 0 2741 0 0 2760 0 0 2742 0 0 2668 0 0 1388 0 0 0 0 0 0 0 0 0 0 0 0 0 0 0 0 0 0 0 0 0 0 0 0 0 0 0 0 0 
0 0 0 0 0 0 0 0 0 0 0 0 0 0 0 0 0 0 0 0 0 0 0 0 0 0 0 0 0 0 1347 0 0 2630 0 0 2711 0 0 2771 0 0 2802 0 0 2651 0 0 2752 0 0 2741 0 0 2807 0 0 2708 0 0 2693 0 0 2792 0 0 2781 0 0 2747 0 0 2729 0 0 2783 0 0 2716 0 0 2763 0 0 2626 0 0 2755 0 0 2757 0 0 2621 0 0 2753 0 0 2670 0 0 2727 0 0 2681 0 0 2720 0 0 2701 0 0 2769 0 0 2694 0 0 2624 0 0 2821 0 0 2774 0 0 2774 0 0 2731 0 0 2792 0 0 2803 0 0 2773 0 0 2676 0 0 2688 0 0 1450 0 0 0 0 0 0 0 0 0 0 0 0 0 0 0 0 0 0 0 0 0 0 0 0 0 0 0 0 0 
0 0 0 0 0 0 0 0 0 0 0 0 0 0 0 0 0 0 0 0 0 0 0 0 0 0 0 0 0 0 1400 0 0 2729 0 0 2709 0 0 2788 0 0 2647 0 0 2685 0 0 2778 0 0 2721 0 0 2714 0 0 2673 0 0 2783 0 0 2665 0 0 2737 0 0 2744 0 0 2653 0 0 2723 0 0 2671 0 0 2685 0 0 2679 0 0 2649 0 0 2734 0 0 2740 0 0 2682 0 0 2707 0 0 2743 0 0 2806 0 0 2727 0 0 2687 0 0 2719 0 0 2868 0 0 2705 0 0 2672 0 0 2830 0 0 2778 0 0 2668 0 0 2713 0 0 2761 0 0 2644 0 0 2731 0 0 2769 0 0 1373 0 0 0 0 0 0 0 0 0 0 0 0 0 0 0 0 0 0 0 0 0 0 0 0 0 0 0 0 0 
0 0 0 0 0 0 0 0 0 0 0 0 0 0 0 0 0 0 0 0 0 0 0 0 0 0 0 0 0 0 1353 0 0 2780 0 0 2751 0 0 2783 0 0 2730 0 0 2710 0 0 2769 0 0 2698 0 0 2757 0 0 2717 0 0 2711 0 0 2775 0 0 2841 0 0 2717 0 0 2818 0 0 2646 0 0 2782 0 0 2732 0 0 2681 0 0 2710 0 0 2767 0 0 2754 0 0 2656 0 0 2766 0 0 2740 0 0 2736 0 0 2605 0 0 2733 0 0 2761 0 0 2793 0 0 2802 0 0 2707 0 0 2792 0 0 2747 0 0 2702 0 0 2640 0 0 2696 0 0 2656 0 0 2706 0 0 2716 0 0 1340 0 0 0 0 0 0 0 0 0 0 0 0 0 0 0 0 0 0 0 0 0 0 0 0 0 0 0 0 0 
0 0 0 0 0 0 0 0 0 0 0 0 0 0 0 0 0 0 0 0 0 0 0 0 0 0 0 0 0 0 1289 0 0 2736 0 0 2684 0 0 2797 0 0 2759 0 0 2613 0 0 2688 0 0 2580 0 0 2807 0 0 2761 0 0 2771 0 0 2675 0 0 2752 0 0 2795 0 0 2774 0 0 2786 0 0 2712 0 0 2757 0 0 2772 0 0 2804 0 0 2725 0 0 2743 0 0 2765 0 0 2719 0 0 2777 0 0 2712 0 0 2715 0 0 2695 0 0 2669 0 0 2664 0 0 2738 0 0 2671 0 0 2687 0 0 2701 0 0 2848 0 0 2833 0 0 2723 0 0 2742 0 0 2740 0 0 2622 0 0 1407 0 0 0 0 0 0 0 0 0 0 0 0 0 0 0 0 0 0 0 0 0 0 0 0 0 0 0 0 0 
0 0 0 0 0 0 0 0 0 0 0 0 0 0 0 0 0 0 0 0 0 0 0 0 0 0 0 0 0 0 1354 0 0 2670 0 0 2827 0 0 2729 0 0 2759 0 0 2741 0 0 2737 0 0 2808 0 0 2765 0 0 2723 0 0 2790 0 0 2673 0 0 2716 0 0 2643 0 0 2712 0 0 2755 0 0 2667 0 0 2781 0 0 2629 0 0 2591 0 0 2721 0 0 2841 0 0 2725 0 0 2742 0 0 2738 0 0 2611 0 0 2774 0 0 2712 0 0 2809 0 0 2726 0 0 2721 0 0 2717 0 0 2801 0 0 2711 0 0 2639 0 0 2678 0 0 2713 0 0 2647 0 0 2608 0 0 2776 0 0 1365 0 0 0 0 0 0 0 0 0 0 0 0 0 0 0 0 0 0 0 0 0 0 0 0 0 0 0 0 0 
0 0 0 0 0 0 0 0 0 0 0 0 0 0 0 0 0 0 0 0 0 0 0 0 0 0 0 0 0 0 1386 0 0 2720 0 0 2657 0 0 2768 0 0 2743 0 0 2678 0 0 2705 0 0 2740 0 0 2701 0 0 2683 0 0 2772 0 0 2747 0 0 2750 0 0 2797 0 0 2708 0 0 2787 0 0 2631 0 0 2717 0 0 2640 0 0 2775 0 0 2762 0 0 2706 0 0 2767 0 0 2617 0 0 2640 0 0 2671 0 0 2765 0 0 2809 0 0 2757 0 0 2692 0 0 2759 0 0 2709 0 0 2691 0 0 2680 0 0 2740 0 0 2631 0 0 2751 0 0 2713 0 0 2707 0 0 2700 0 0 1309 0 0 0 0 0 0 0 0 0 0 0 0 0 0 0 0 0 0 0 0 0 0 0 0 0 0 0 0 0 
0 0 0 0 0 0 0 0 0 0 0 0 0 0 0 0 0 0 0 0 0 0 0 0 0 0 0 0 0 0 1324 0 0 2727 0 0 2771 0 0 2778 0 0 2712 0 0 2671 0 0 2839 0 0 2760 0 0 2689 0 0 2667 0 0 2734 0 0 2744 0 0 2666 0 0 2756 0 0 2673 0 0 2736 0 0 2736 0 0 2740 0 0 2687 0 0 2712 0 0 2760 0 0 2723 0 0 2732 0 0 2637 0 0 2671 0 0 2739 0 0 2714 0 0 2682 0 0 2681 0 0 2713 0 0 2703 0 0 2601 0 0 2792 0 0 2819 0 0 2740 0 0 2694 0 0 2690 0 0 2748 0 0 2700 0 0 2646 0 0 1360 0 0 0 0 0 0 0 0 0 0 0 0 0 0 0 0 0 0 0 0 0 0 0 0 0 0 0 0 0 
0 0 0 0 0 0 0 0 0 0 0 0 0 0 0 0 0 0 0 0 0 0 0 0 0 0 0 0 0 0 1351 0 0 2720 0 0 2698 0 0 2651 0 0 2758 0 0 2682 0 0 2710 0 0 2726 0 0 2680 0 0 2767 0 0 2671 0 0 2720 0 0 2711 0 0 2679 0 0 2722 0 0 2780 0 0 2651 0 0 2737 0 0 2714 0 0 2741 0 0 2728 0 0 2783 0 0 2702 0 0 2720 0 0 2729 0 0 2667 0 0 2749 0 0 2758 0 0 2667 0 0 2627 0 0 2768 0 0 2773 0 0 2675 0 0 2755 0 0 2768 0 0 2685 0 0 2710 0 0 2827 0 0 2690 0 0 2674 0 0 1395 0 0 0 0 0 0 0 0 0 0 0 0 0 0 0 0 0 0 0 0 0 0 0 0 0 0 0 0 0 
0 0 0 0 0 0 0 0 0 0 0 0 0 0 0 0 0 0 0 0 0 0 0 0 0 0 0 0 0 0 1271 0 0 2749 0 0 2789 0 0 2725 0 0 2759 0 0 2669 0 0 2730 0 0 2645 0 0 2732 0 0 2740 0 0 2818 0 0 2771 0 0 2751 0 0 2672 0 0 2770 0 0 2725 0 0 2715 0 0 2771 0 0 2781 0 0 2757 0 0 2764 0 0 2761 0 0 2662 0 0 2762 0 0 2811 0 0 2719 0 0 2733 0 0 2674 0 0 2742 0 0 2728 0 0 2743 0 0 2717 0 0 2621 0 0 2761 0 0 2739 0 0 2679 0 0 2683 0 0 2746 0 0 2702 0 0 2664 0 0 1290 0 0 0 0 0 0 0 0 0 0 0 0 0 0 0 0 0 0 0 0 0 0 0 0 0 0 0 0 0 
0 0 0 0 0 0 0 0 0 0 0 0 0 0 0 0 0 0 0 0 0 0 0 0 0 0 0 0 0 0 1432 0 0 2676 0 0 2766 0 0 2838 0 0 2756 0 0 2738 0 0 2724 0 0 2800 0 0 2661 0 0 2738 0 0 2750 0 0 2705 0 0 2726 0 0 2678 0 0 2707 0 0 2584 0 0 2670 0 0 2737 0 0 2867 0 0 2654 0 0 2711 0 0 2692 0 0 2634 0 0 2712 0 0 2766 0 0 2748 0 0 2737 0 0 2622 0 0 2710 0 0 2682 0 0 2600 0 0 2737 0 0 2724 0 0 2818 0 0 2657 0 0 2767 0 0 2691 0 0 2764 0 0 2625 0 0 2656 0 0 1339 0 0 0 0 0 0 0 0 0 0 0 0 0 0 0 0 0 0 0 0 0 0 0 0 0 0 0 0 0 
0 0 0 0 0 0 0 0 0 0 0 0 0 0 0 0 0 0 0 0 0 0 0 0 0 0 0 0 0 0 1363 0 0 2774 0 0 2689 0 0 2645 0 0 2748 0 0 2776 0 0 2708 0 0 2847 0 0 2746 0 0 2717 0 0 2725 0 0 2857 0 0 2728 0 0 2775 0 0 2645 0 0 2727 0 0 2632 0 0 2671 0 0 2809 0 0 2713 0 0 2764 0 0 2749 0 0 2715 0 0 2735 0 0 2736 0 0 2624 0 0 2738 0 0 2694 0 0 2774 0 0 2702 0 0 2784 0 0 2776 0 0 2686 0 0 2808 0 0 2719 0 0 2754 0 0 2791 0 0 2771 0 0 2728 0 0 2752 0 0 1331 0 0 0 0 0 0 0 0 0 0 0 0 0 0 0 0 0 0 0 0 0 0 0 0 0 0 0 0 0 
0 0 0 0 0 0 0 0 0 0 0 0 0 0 0 0 0 0 0 0 0 0 0 0 0 0 0 0 0 0 1308 0 0 2748 0 0 2748 0 0 2649 0 0 2734 0 0 2694 0 0 2706 0 0 2564 0 0 2801 0 0 2799 0 0 2871 0 0 2800 0 0 2766 0 0 2771 0 0 2827 0 0 2747 0 0 2685 0 0 2628 0 0 2759 0 0 2753 0 0 2734 0 0 2618 0 0 2793 0 0 2767 0 0 2709 0 0 2731 0 0 2653 0 0 2740 0 0 2722 0 0 2746 0 0 2758 0 0 2690 0 0 2788 0 0 2710 0 0 2671 0 0 2794 0 0 2745 0 0 2696 0 0 2640 0 0 2733 0 0 1369 0 0 0 0 0 0 0 0 0 0 0 0 0 0 0 0 0 0 0 0 0 0 0 0 0 0 0 0 0 
0 0 0 0 0 0 0 0 0 0 0 0 0 0 0 0 0 0 0 0 0 0 0 0 0 0 0 0 0 0 1335 0 0 2725 0 0 2625 0 0 2732 0 0 2775 0 0 2761 0 0 2639 0 0 2714 0 0 2646 0 0 2676 0 0 2700 0 0 2734 0 0 2790 0 0 2688 0 0 2784 0 0 2694 0 0 2769 0 0 2738 0 0 2772 0 0 2686 0 0 2788 0 0 2801 0 0 2678 0 0 2717 0 0 2659 0 0 2768 0 0 2652 0 0 2759 0 0 2738 0 0 2819 0 0 2671 0 0 2716 0 0 2717 0 0 2755 0 0 2685 0 0 2707 0 0 2726 0 0 2695 0 0 2727 0 0 2741 0 0 1388 0 0 0 0 0 0 0 0 0 0 0 0 0 0 0 0 0 0 0 0 0 0 0 0 0 0 0 0 0 
0 0 0 0 0 0 0 0 0 0 0 0 0 0 0 0 0 0 0 0 0 0 0 0 0 0 0 0 0 0 1353 0 0 2866 0 0 2758 0 0 2727 0 0 2710 0 0 2671 0 0 2728 0 0 2726 0 0 2721 0 0 2752 0 0 2670 0 0 2801 0 0 2706 0 0 2677 0 0 2756 0 0 2723 0 0 2728 0 0 2788 0 0 2714 0 0 2661 0 0 2752 0 0 2792 0 0 2755 0 0 2608 0 0 2762 0 0 2733 0 0 2846 0 0 2710 0 0 2649 0 0 2831 0 0 2774 0 0 2773 0 0 2669 0 0 2702 0 0 2679 0 0 2774 0 0 2706 0 0 2774 0 0 2714 0 0 2725 0 0 1357 0 0 0 0 0 0 0 0 0 0 0 0 0 0 0 0 0 0 0 0 0 0 0 0 0 0 0 0 0 
0 0 0 0 0 0 0 0 0 0 0 0 0 0 0 0 0 0 0 0 0 0 0 0 0 0 0 0 0 0 1272 0 0 2817 0 0 2835 0 0 2692 0 0 2670 0 0 2585 0 0 2706 0 0 2725 0 0 2769 0 0 2718 0 0 2689 0 0 2672 0 0 2688 0 0 2673 0 0 2721 0 0 2667 0 0 2719 0 0 2761 0 0 2734 0 0 2780 0 0 2785 0 0 2695 0 0 2709 0 0 2695 0 0 2701 0 0 2769 0 0 2751 0 0 2792 0 0 2701 0 0 2757 0 0 2702 0 0 2794 0 0 2658 0 0 2805 0 0 2690 0 0 2772 0 0 2670 0 0 2789 0 0 2733 0 0 2708 0 0 1419 0 0 0 0 0 0 0 0 0 0 0 0 0 0 0 0 0 0 0 0 0 0 0 0 0 0 0 0 0 
0 0 0 0 0 0 0 0 0 0 0 0 0 0 0 0 0 0 0 0 0 0 0 0 0 0 0 0 0 0 1357 0 0 2683 0 0 2734 0 0 2695 0 0 2760 0 0 2779 0 0 2732 0 0 2688 0 0 2630 0 0 2748 0 0 2752 0 0 2668 0 0 2669 0 0 2802 0 0 2826 0 0 2774 0 0 2652 0 0 2753 0 0 2680 0 0 2712 0 0 2764 0 0 2611 0 0 2752 0 0 2600 0 0 2615 0 0 2671 0 0 2912 0 0 2819 0 0 2711 0 0 2663 0 0 2795 0 0 2733 0 0 2691 0 0 2777 0 0 2756 0 0 2700 0 0 2722 0 0 2632 0 0 2646 0 0 2722 0 0 1322 0 0 0 0 0 0 0 0 0 0 0 0 0 0 0 0 0 0 0 0 0 0 0 0 0 0 0 0 0 
0 0 0 0 0 0 0 0 0 0 0 0 0 0 0 0 0 0 0 0 0 0 0 0 0 0 0 0 0 0 1360 0 0 2723 0 0 2687 0 0 2684 0 0 2651 0 0 2844 0 0 2793 0 0 2753 0 0 2689 0 0 2756 0 0 2681 0 0 2730 0 0 2649 0 0 2709 0 0 2721 0 0 2705 0 0 2755 0 0 2751 0 0 2733 0 0 2722 0 0 2636 0 0 2751 0 0 2697 0 0 2765 0 0 2828 0 0 2735 0 0 2797 0 0 2718 0 0 2737 0 0 2738 0 0 2760 0 0 2713 0 0 2731 0 0 2796 0 0 2726 0 0 2741 0 0 2752 0 0 2761 0 0 2847 0 0 2732 0 0 1410 0 0 0 0 0 0 0 0 0 0 0 0 0 0 0 0 0 0 0 0 0 0 0 0 0 0 0 0 0 
0 0 0 0 0 0 0 0 0 0 0 0 0 0 0 0 0 0 0 0 0 0 0 0 0 0 0 0 0 0 1331 0 0 2775 0 0 2727 0 0 2760 0 0 2734 0 0 2742 0 0 2664 0 0 2737 0 0 2662 0 0 2671 0 0 2884 0 0 2774 0 0 2597 0 0 2763 0 0 2777 0 0 2657 0 0 2725 0 0 2720 0 0 2715 0 0 2686 0 0 2741 0 0 2772 0 0 2729 0 0 2760 0 0 2751 0 0 2719 0 0 2696 0 0 2722 0 0 2752 0 0 2746 0 0 2697 0 0 2744 0 0 2676 0 0 2816 0 0 2717 0 0 2773 0 0 2673 0 0 2785 0 0 2755 0 0 2677 0 0 1401 0 0 0 0 0 0 0 0 0 0 0 0 0 0 0 0 0 0 0 0 0 0 0 0 0 0 0 0 0 
0 0 0 0 0 0 0 0 0 0 0 0 0 0 0 0 0 0 0 0 0 0 0 0 0 0 0 0 0 0 1302 0 0 2614 0 0 2785 0 0 2752 0 0 2838 0 0 2648 0 0 2831 0 0 2776 0 0 2714 0 0 2782 0 0 2747 0 0 2756 0 0 2657 0 0 2667 0 0 2796 0 0 2796 0 0 2724 0 0 2765 0 0 2701 0 0 2679 0 0 2714 0 0 2655 0 0 2685 0 0 2752 0 0 2729 0 0 2740 0 0 2702 0 0 2676 0 0 2773 0 0 2724 0 0 2687 0 0 2656 0 0 2708 0 0 2784 0 0 2654 0 0 2801 0 0 2729 0 0 2741 0 0 2738 0 0 2747 0 0 1364 0 0 0 0 0 0 0 0 0 0 0 0 0 0 0 0 0 0 0 0 0 0 0 0 0 0 0 0 0 
0 0 0 0 0 0 0 0 0 0 0 0 0 0 0 0 0 0 0 0 0 0 0 0 0 0 0 0 0 0 1432 0 0 2755 0 0 2748 0 0 2719 0 0 2752 0 0 2693 0 0 2710 0 0 2639 0 0 2754 0 0 2756 0 0 2685 0 0 2649 0 0 2764 0 0 2822 0 0 2731 0 0 2774 0 0 2705 0 0 2755 0 0 2792 0 0 2747 0 0 2732 0 0 2713 0 0 2781 0 0 2841 0 0 2731 0 0 2770 0 0 2740 0 0 2636 0 0 2662 0 0 2779 0 0 2710 0 0 2752 0 0 2754 0 0 2672 0 0 2779 0 0 2670 0 0 2779 0 0 2693 0 0 2696 0 0 2737 0 0 1381 0 0 0 0 0 0 0 0 0 0 0 0 0 0 0 0 0 0 0 0 0 0 0 0 0 0 0 0 0 
0 0 0 0 0 0 0 0 0 0 0 0 0 0 0 0 0 0 0 0 0 0 0 0 0 0 0 0 0 0 1370 0 0 2765 0 0 2747 0 0 2720 0 0 2721 0 0 2761 0 0 2698 0 0 2667 0 0 2719 0 0 2706 0 0 2655 0 0 2627 0 0 2687 0 0 2669 0 0 2776 0 0 2858 0 0 2733 0 0 2700 0 0 2728 0 0 2738 0 0 2645 0 0 2658 0 0 2726 0 0 2777 0 0 2671 0 0 2669 0 0 2726 0 0 2785 0 0 2758 0 0 2696 0 0 2694 0 0 2754 0 0 2769 0 0 2765 0 0 2691 0 0 2711 0 0 2763 0 0 2654 0 0 2728 0 0 2786 0 0 1296 0 0 0 0 0 0 0 0 0 0 0 0 0 0 0 0 0 0 0 0 0 0 0 0 0 0 0 0 0 
0 0 0 0 0 0 0 0 0 0 0 0 0 0 0 0 0 0 0 0 0 0 0 0 0 0 0 0 0 0 1365 0 0 2764 0 0 2750 0 0 2674 0 0 2704 0 0 2723 0 0 2704 0 0 2801 0 0 2654 0 0 2710 0 0 2791 0 0 2770 0 0 2671 0 0 2786 0 0 2779 0 0 2769 0 0 2755 0 0 2709 0 0 2747 0 0 2563 0 0 2640 0 0 2639 0 0 2638 0 0 2795 0 0 2762 0 0 2734 0 0 2742 0 0 2701 0 0 2750 0 0 2740 0 0 2705 0 0 2769 0 0 2707 0 0 2765 0 0 2708 0 0 2669 0 0 2733 0 0 2734 0 0 2836 0 0 2679 0 0 1386 0 0 0 0 0 0 0 0 0 0 0 0 0 0 0 0 0 0 0 0 0 0 0 0 0 0 0 0 0 
0 0 0 0 0 0 0 0 0 0 0 0 0 0 0 0 0 0 0 0 0 0 0 0 0 0 0 0 0 0 1368 0 0 2768 0 0 2681 0 0 2732 0 0 2755 0 0 2655 0 0 2753 0 0 2680 0 0 2768 0 0 2767 0 0 2775 0 0 2573 0 0 2701 0 0 2699 0 0 2722 0 0 2729 0 0 2708 0 0 2805 0 0 2700 0 0 2672 0 0 2815 0 0 2669 0 0 2709 0 0 2680 0 0 2688 0 0 2709 0 0 2709 0 0 2795 0 0 2668 0 0 2672 0 0 2750 0 0 2767 0 0 2816 0 0 2690 0 0 2776 0 0 2696 0 0 2676 0 0 2728 0 0 2703 0 0 2787 0 0 1397 0 0 0 0 0 0 0 0 0 0 0 0 0 0 0 0 0 0 0 0 0 0 0 0 0 0 0 0 0 
0 0 0 0 0 0 0 0 0 0 0 0 0 0 0 0 0 0 0 0 0 0 0 0 0 0 0 0 0 0 1329 0 0 2645 0 0 2615 0 0 2682 0 0 2650 0 0 2746 0 0 2725 0 0 2661 0 0 2778 0 0 2741 0 0 2676 0 0 2623 0 0 2807 0 0 2762 0 0 2791 0 0 2669 0 0 2706 0 0 2682 0 0 2746 0 0 2676 0 0 2709 0 0 2614 0 0 2766 0 0 2882 0 0 2701 0 0 2726 0 0 2805 0 0 2721 0 0 2695 0 0 2801 0 0 2632 0 0 2731 0 0 2658 0 0 2736 0 0 2564 0 0 2578 0 0 2612 0 0 2884 0 0 2769 0 0 2723 0 0 1387 0 0 0 0 0 0 0 0 0 0 0 0 0 0 0 0 0 0 0 0 0 0 0 0 0 0 0 0 0 
0 0 0 0 0 0 0 0 0 0 0 0 0 0 0 0 0 0 0 0 0 0 0 0 0 0 0 0 0 0 1399 0 0 2771 0 0 2740 0 0 2739 0 0 2586 0 0 2605 0 0 2805 0 0 2635 0 0 2767 0 0 2754 0 0 2601 0 0 2714 0 0 2694 0 0 2708 0 0 2788 0 0 2808 0 0 2691 0 0 2746 0 0 2682 0 0 2810 0 0 2742 0 0 2816 0 0 2771 0 0 2790 0 0 2759 0 0 2690 0 0 2738 0 0 2631 0 0 2704 0 0 2700 0 0 2706 0 0 2708 0 0 2667 0 0 2717 0 0 2681 0 0 2776 0 0 2733 0 0 2691 0 0 2548 0 0 2693 0 0 1334 0 0 0 0 0 0 0 0 0 0 0 0 0 0 0 0 0 0 0 0 0 0 0 0 0 0 0 0 0 
0 0 0 0 0 0 0 0 0 0 0 0 0 0 0 0 0 0 0 0 0 0 0 0 0 0 0 0 0 0 1352 0 0 2684 0 0 2754 0 0 2687 0 0 2694 0 0 2692 0 0 2762 0 0 2751 0 0 2660 0 0 2739 0 0 2703 0 0 2744 0 0 2740 0 0 2799 0 0 2843 0 0 2752 0 0 2745 0 0 2772 0 0 2803 0 0 2643 0 0 2728 0 0 2735 0 0 2637 0 0 2726 0 0 2785 0 0 2729 0 0 2737 0 0 2666 0 0 2804 0 0 2748 0 0 2617 0 0 2668 0 0 2821 0 0 2780 0 0 2700 0 0 2763 0 0 2776 0 0 2698 0 0 2749 0 0 2706 0 0 1337 0 0 0 0 0 0 0 0 0 0 0 0 0 0 0 0 0 0 0 0 0 0 0 0 0 0 0 0 0 
0 0 0 0 0 0 0 0 0 0 0 0 0 0 0 0 0 0 0 0 0 0 0 0 0 0 0 0 0 0 1396 0 0 2774 0 0 2756 0 0 2850 0 0 2788 0 0 2640 0 0 2713 0 0 2737 0 0 2649 0 0 2715 0 0 2820 0 0 2772 0 0 2638 0 0 2661 0 0 2612 0 0 2774 0 0 2665 0 0 2722 0 0 2656 0 0 2815 0 0 2775 0 0 2711 0 0 2738 0 0 2637 0 0 2645 0 0 2718 0 0 2716 0 0 2584 0 0 2696 0 0 2731 0 0 2766 0 0 2688 0 0 2723 0 0 2702 0 0 2746 0 0 2688 0 0 2720 0 0 2684 0 0 2816 0 0 2759 0 0 1410 0 0 0 0 0 0 0 0 0 0 0 0 0 0 0 0 0 0 0 0 0 0 0 0 0 0 0 0 0 
0 0 0 0 0 0 0 0 0 0 0 0 0 0 0 0 0 0 0 0 0 0 0 0 0 0 0 0 0 0 1347 0 0 2741 0 0 2797 0 0 2747 0 0 2676 0 0 2752 0 0 2776 0 0 2705 0 0 2673 0 0 2719 0 0 2749 0 0 2687 0 0 2685 0 0 2656 0 0 2818 0 0 2694 0 0 2785 0 0 2805 0 0 2756 0 0 2715 0 0 2736 0 0 2615 0 0 2762 0 0 2710 0 0 2814 0 0 2710 0 0 2799 0 0 2680 0 0 2772 0 0 2764 0 0 2681 0 0 2754 0 0 2687 0 0 2702 0 0 2672 0 0 2749 0 0 2786 0 0 2717 0 0 2756 0 0 2707 0 0 1389 0 0 0 0 0 0 0 0 0 0 0 0 0 0 0 0 0 0 0 0 0 0 0 0 0 0 0 0 0 
0 0 0 0 0 0 0 0 0 0 0 0 0 0 0 0 0 0 0 0 0 0 0 0 0 0 0 0 0 0 1385 0 0 2831 0 0 2647 0 0 2739 0 0 2778 0 0 2759 0 0 2751 0 0 2806 0 0 2801 0 0 2761 0 0 2591 0 0 2726 0 0 2801 0 0 2811 0 0 2687 0 0 2733 0 0 2745 0 0 2694 0 0 2655 0 0 2756 0 0 2842 0 0 2811 0 0 2710 0 0 2741 0 0 2738 0 0 2736 0 0 2767 0 0 2752 0 0 2729 0 0 2701 0 0 2682 0 0 2752 0 0 2744 0 0 2684 0 0 2715 0 0 2680 0 0 2778 0 0 2684 0 0 2736 0 0 2646 0 0 1371 0 0 0 0 0 0 0 0 0 0 0 0 0 0 0 0 0 0 0 0 0 0 0 0 0 0 0 0 0 
0 0 0 0 0 0 0 0 0 0 0 0 0 0 0 0 0 0 0 0 0 0 0 0 0 0 0 0 0 0 1333 0 0 2681 0 0 2608 0 0 2679 0 0 2737 0 0 2717 0 0 2744 0 0 2719 0 0 2787 0 0 2770 0 0 2678 0 0 2750 0 0 2799 0 0 2773 0 0 2778 0 0 2570 0 0 2692 0 0 2787 0 0 2727 0 0 2686 0 0 2789 0 0 2785 0 0 2647 0 0 2734 0 0 2687 0 0 2881 0 0 2688 0 0 2783 0 0 2831 0 0 2662 0 0 2640 0 0 2707 0 0 2733 0 0 2681 0 0 2632 0 0 2767 0 0 2731 0 0 2769 0 0 2761 0 0 2736 0 0 1336 0 0 0 0 0 0 0 0 0 0 0 0 0 0 0 0 0 0 0 0 0 0 0 0 0 0 0 0 0 
0 0 0 0 0 0 0 0 0 0 0 0 0 0 0 0 0 0 0 0 0 0 0 0 0 0 0 0 0 0 1376 0 0 2725 0 0 2681 0 0 2694 0 0 2780 0 0 2773 0 0 2621 0 0 2772 0 0 2736 0 0 2639 0 0 2742 0 0 2843 0 0 2773 0 0 2732 0 0 2726 0 0 2738 0 0 2760 0 0 2646 0 0 2680 0 0 2723 0 0 2821 0 0 2681 0 0 2729 0 0 2748 0 0 2734 0 0 2767 0 0 2734 0 0 2735 0 0 2711 0 0 2669 0 0 2774 0 0 2766 0 0 2686 0 0 2726 0 0 2662 0 0 2729 0 0 2755 0 0 2699 0 0 2740 0 0 2746 0 0 1344 0 0 0 0 0 0 0 0 0 0 0 0 0 0 0 0 0 0 0 0 0 0 0 0 0 0 0 0 0 
0 0 0 0 0 0 0 0 0 0 0 0 0 0 0 0 0 0 0 0 0 0 0 0 0 0 0 0 0 0 1360 0 0 2666 0 0 2716 0 0 2704 0 0 2657 0 0 2752 0 0 2742 0 0 2646 0 0 2621 0 0 2683 0 0 2664 0 0 2742 0 0 2706 0 0 2663 0 0 2835 0 0 2710 0 0 2701 0 0 2659 0 0 2706 0 0 2726 0 0 2771 0 0 2755 0 0 2800 0 0 2840 0 0 2700 0 0 2665 0 0 2710 0 0 2770 0 0 2673 0 0 2687 0 0 2653 0 0 2806 0 0 2691 0 0 2712 0 0 2678 0 0 2672 0 0 2691 0 0 2659 0 0 2845 0 0 2798 0 0 1338 0 0 0 0 0 0 0 0 0 0 0 0 0 0 0 0 0 0 0 0 0 0 0 0 0 0 0 0 0 
0 0 0 0 0 0 0 0 0 0 0 0 0 0 0 0 0 0 0 0 0 0 0 0 0 0 0 0 0 0 1314 0 0 2743 0 0 2592 0 0 2779 0 0 2676 0 0 2730 0 0 2805 0 0 2774 0 0 2812 0 0 2740 0 0 2805 0 0 2622 0 0 2644 0 0 2663 0 0 2660 0 0 2759 0 0 2641 0 0 2739 0 0 2672 0 0 2758 0 0 2721 0 0 2683 0 0 2692 0 0 2785 0 0 2651 0 0 2781 0 0 2680 0 0 2712 0 0 2714 0 0 2714 0 0 2669 0 0 2770 0 0 2633 0 0 2647 0 0 2663 0 0 2688 0 0 2686 0 0 2671 0 0 2778 0 0 2801 0 0 1324 0 0 0 0 0 0 0 0 0 0 0 0 0 0 0 0 0 0 0 0 0 0 0 0 0 0 0 0 0 
0 0 0 0 0 0 0 0 0 0 0 0 0 0 0 0 0 0 0 0 0 0 0 0 0 0 0 0 0 0 1465 0 0 2703 0 0 2708 0 0 2722 0 0 2752 0 0 2670 0 0 2762 0 0 2690 0 0 2772 0 0 2689 0 0 2742 0 0 2765 0 0 2677 0 0 2734 0 0 2770 0 0 2719 0 0 2801 0 0 2723 0 0 2687 0 0 2722 0 0 2789 0 0 2670 0 0 2771 0 0 2779 0 0 2687 0 0 2710 0 0 2689 0 0 2696 0 0 2724 0 0 2759 0 0 2663 0 0 2657 0 0 2757 0 0 2666 0 0 2709 0 0 2738 0 0 2754 0 0 2690 0 0 2690 0 0 2746 0 0 1411 0 0 0 0 0 0 0 0 0 0 0 0 0 0 0 0 0 0 0 0 0 0 0 0 0 0 0 0 0 
0 0 0 0 0 0 0 0 0 0 0 0 0 0 0 0 0 0 0 0 0 0 0 0 0 0 0 0 0 0 704 0 0 1315 0 0 1322 0 0 1429 0 0 1361 0 0 1334 0 0 1355 0 0 1307 0 0 1391 0 0 1351 0 0 1335 0 0 1378 0 0 1351 0 0 1420 0 0 1344 0 0 1353 0 0 1374 0 0 1348 0 0 1386 0 0 1366 0 0 1350 0 0 1324 0 0 1342 0 0 1391 0 0 1399 0 0 1370 0 0 1392 0 0 1448 0 0 1331 0 0 1326 0 0 1373 0 0 1389 0 0 1357 0 0 1410 0 0 1391 0 0 1348 0 0 1368 0 0 1388 0 0 1381 0 0 1316 0 0 696 0 0 0 0 0 0 0 0 0 0 0 0 0 0 0 0 0 0 0 0 0 0 0 0 0 0 0 0 0 
0 0 0 0 0 0 0 0 0 0 0 0 0 0 0 0 0 0 0 0 0 0 0 0 0 0 0 0 0 0 0 0 0 0 0 0 0 0 0 0 0 0 0 0 0 0 0 0 0 0 0 0 0 0 0 0 0 0 0 0 0 0 0 0 0 0 0 0 0 0 0 0 0 0 0 0 0 0 0 0 0 0 0 0 0 0 0 0 0 0 0 0 0 0 0 0 0 0 0 0 0 0 0 0 0 0 0 0 0 0 0 0 0 0 0 0 0 0 0 0 0 0 0 0 0 0 0 0 0 0 0 0 0 0 0 0 0 0 0 0 0 0 0 0 0 0 0 0 0 0 0 0 0 0 0 0 0 0 0 0 0 0 0 0 0 0 0 0 0 0 0 0 0 0 0 0 0 0 0 0 
0 0 0 0 0 0 0 0 0 0 0 0 0 0 0 0 0 0 0 0 0 0 0 0 0 0 0 0 0 0 0 0 0 0 0 0 0 0 0 0 0 0 0 0 0 0 0 0 0 0 0 0 0 0 0 0 0 0 0 0 0 0 0 0 0 0 0 0 0 0 0 0 0 0 0 0 0 0 0 0 0 0 0 0 0 0 0 0 0 0 0 0 0 0 0 0 0 0 0 0 0 0 0 0 0 0 0 0 0 0 0 0 0 0 0 0 0 0 0 0 0 0 0 0 0 0 0 0 0 0 0 0 0 0 0 0 0 0 0 0 0 0 0 0 0 0 0 0 0 0 0 0 0 0 0 0 0 0 0 0 0 0 0 0 0 0 0 0 0 0 0 0 0 0 0 0 0 0 0 0 
0 0 0 0 0 0 0 0 0 0 0 0 0 0 0 0 0 0 0 0 0 0 0 0 0 0 0 0 0 0 0 0 0 0 0 0 0 0 0 0 0 0 0 0 0 0 0 0 0 0 0 0 0 0 0 0 0 0 0 0 0 0 0 0 0 0 0 0 0 0 0 0 0 0 0 0 0 0 0 0 0 0 0 0 0 0 0 0 0 0 0 0 0 0 0 0 0 0 0 0 0 0 0 0 0 0 0 0 0 0 0 0 0 0 0 0 0 0 0 0 0 0 0 0 0 0 0 0 0 0 0 0 0 0 0 0 0 0 0 0 0 0 0 0 0 0 0 0 0 0 0 0 0 0 0 0 0 0 0 0 0 0 0 0 0 0 0 0 0 0 0 0 0 0 0 0 0 0 0 0 
0 0 0 0 0 0 0 0 0 0 0 0 0 0 0 0 0 0 0 0 0 0 0 0 0 0 0 0 0 0 0 0 0 0 0 0 0 0 0 0 0 0 0 0 0 0 0 0 0 0 0 0 0 0 0 0 0 0 0 0 0 0 0 0 0 0 0 0 0 0 0 0 0 0 0 0 0 0 0 0 0 0 0 0 0 0 0 0 0 0 0 0 0 0 0 0 0 0 0 0 0 0 0 0 0 0 0 0 0 0 0 0 0 0 0 0 0 0 0 0 0 0 0 0 0 0 0 0 0 0 0 0 0 0 0 0 0 0 0 0 0 0 0 0 0 0 0 0 0 0 0 0 0 0 0 0 0 0 0 0 0 0 0 0 0 0 0 0 0 0 0 0 0 0 0 0 0 0 0 0 
0 0 0 0 0 0 0 0 0 0 0 0 0 0 0 0 0 0 0 0 0 0 0 0 0 0 0 0 0 0 0 0 0 0 0 0 0 0 0 0 0 0 0 0 0 0 0 0 0 0 0 0 0 0 0 0 0 0 0 0 0 0 0 0 0 0 0 0 0 0 0 0 0 0 0 0 0 0 0 0 0 0 0 0 0 0 0 0 0 0 0 0 0 0 0 0 0 0 0 0 0 0 0 0 0 0 0 0 0 0 0 0 0 0 0 0 0 0 0 0 0 0 0 0 0 0 0 0 0 0 0 0 0 0 0 0 0 0 0 0 0 0 0 0 0 0 0 0 0 0 0 0 0 0 0 0 0 0 0 0 0 0 0 0 0 0 0 0 0 0 0 0 0 0 0 0 0 0 0 0 
0 0 0 0 0 0 0 0 0 0 0 0 0 0 0 0 0 0 0 0 0 0 0 0 0 0 0 0 0 0 0 0 0 0 0 0 0 0 0 0 0 0 0 0 0 0 0 0 0 0 0 0 0 0 0 0 0 0 0 0 0 0 0 0 0 0 0 0 0 0 0 0 0 0 0 0 0 0 0 0 0 0 0 0 0 0 0 0 0 0 0 0 0 0 0 0 0 0 0 0 0 0 0 0 0 0 0 0 0 0 0 0 0 0 0 0 0 0 0 0 0 0 0 0 0 0 0 0 0 0 0 0 0 0 0 0 0 0 0 0 0 0 0 0 0 0 0 0 0 0 0 0 0 0 0 0 0 0 0 0 0 0 0 0 0 0 0 0 0 0 0 0 0 0 0 0 0 0 0 0 
0 0 0 0 0 0 0 0 0 0 0 0 0 0 0 0 0 0 0 0 0 0 0 0 0 0 0 0 0 0 0 0 0 0 0 0 0 0 0 0 0 0 0 0 0 0 0 0 0 0 0 0 0 0 0 0 0 0 0 0 0 0 0 0 0 0 0 0 0 0 0 0 0 0 0 0 0 0 0 0 0 0 0 0 0 0 0 0 0 0 0 0 0 0 0 0 0 0 0 0 0 0 0 0 0 0 0 0 0 0 0 0 0 0 0 0 0 0 0 0 0 0 0 0 0 0 0 0 0 0 0 0 0 0 0 0 0 0 0 0 0 0 0 0 0 0 0 0 0 0 0 0 0 0 0 0 0 0 0 0 0 0 0 0 0 0 0 0 0 0 0 0 0 0 0 0 0 0 0 0 
0 0 0 0 0 0 0 0 0 0 0 0 0 0 0 0 0 0 0 0 0 0 0 0 0 0 0 0 0 0 0 0 0 0 0 0 0 0 0 0 0 0 0 0 0 0 0 0 0 0 0 0 0 0 0 0 0 0 0 0 0 0 0 0 0 0 0 0 0 0 0 0 0 0 0 0 0 0 0 0 0 0 0 0 0 0 0 0 0 0 0 0 0 0 0 0 0 0 0 0 0 0 0 0 0 0 0 0 0 0 0 0 0 0 0 0 0 0 0 0 0 0 0 0 0 0 0 0 0 0 0 0 0 0 0 0 0 0 0 0 0 0 0 0 0 0 0 0 0 0 0 0 0 0 0 0 0 0 0 0 0 0 0 0 0 0 0 0 0 0 0 0 0 0 0 0 0 0 0 0 
0 0 0 0 0 0 0 0 0 0 0 0 0 0 0 0 0 0 0 0 0 0 0 0 0 0 0 0 0 0 0 0 0 0 0 0 0 0 0 0 0 0 0 0 0 0 0 0 0 0 0 0 0 0 0 0 0 0 0 0 0 0 0 0 0 0 0 0 0 0 0 0 0 0 0 0 0 0 0 0 0 0 0 0 0 0 0 0 0 0 0 0 0 0 0 0 0 0 0 0 0 0 0 0 0 0 0 0 0 0 0 0 0 0 0 0 0 0 0 0 0 0 0 0 0 0 0 0 0 0 0 0 0 0 0 0 0 0 0 0 0 0 0 0 0 0 0 0 0 0 0 0 0 0 0 0 0 0 0 0 0 0 0 0 0 0 0 0 0 0 0 0 0 0 0 0 0 0 0 0 
