P3
# This is a dose file slice at depth 22 of 100
60 60
# now we give the maximum value of the RGB coordinates.
32965
0 0 0 1 0 0 1 0 0 2 0 0 2 0 0 2 0 0 4 0 0 1 0 0 2 0 0 5 0 0 2 0 0 4 0 0 3 0 0 3 0 0 5 0 0 4 0 0 5 0 0 5 0 0 7 0 0 8 0 0 4 0 0 7 0 0 8 0 0 5 0 0 4 0 0 3 0 0 10 0 0 6 0 0 6 0 0 8 0 0 3 0 0 3 0 0 5 0 0 9 0 0 7 0 0 4 0 0 3 0 0 5 0 0 4 0 0 7 0 0 7 0 0 4 0 0 6 0 0 4 0 0 4 0 0 6 0 0 9 0 0 8 0 0 5 0 0 5 0 0 4 0 0 2 0 0 4 0 0 3 0 0 5 0 0 4 0 0 4 0 0 4 0 0 1 0 0 1 0 0 
3 0 0 4 0 0 4 0 0 5 0 0 4 0 0 3 0 0 10 0 0 7 0 0 7 0 0 9 0 0 5 0 0 10 0 0 11 0 0 9 0 0 11 0 0 11 0 0 9 0 0 12 0 0 11 0 0 12 0 0 9 0 0 11 0 0 13 0 0 11 0 0 9 0 0 7 0 0 18 0 0 16 0 0 14 0 0 15 0 0 11 0 0 12 0 0 13 0 0 15 0 0 16 0 0 11 0 0 14 0 0 8 0 0 9 0 0 16 0 0 10 0 0 9 0 0 14 0 0 9 0 0 15 0 0 20 0 0 12 0 0 10 0 0 10 0 0 8 0 0 10 0 0 5 0 0 5 0 0 11 0 0 9 0 0 11 0 0 9 0 0 5 0 0 6 0 0 2 0 0 
0 0 0 4 0 0 6 0 0 3 0 0 2 0 0 5 0 0 10 0 0 8 0 0 6 0 0 10 0 0 13 0 0 10 0 0 10 0 0 7 0 0 11 0 0 12 0 0 12 0 0 11 0 0 13 0 0 9 0 0 12 0 0 12 0 0 10 0 0 13 0 0 12 0 0 14 0 0 11 0 0 15 0 0 14 0 0 13 0 0 18 0 0 11 0 0 17 0 0 15 0 0 10 0 0 17 0 0 17 0 0 14 0 0 14 0 0 15 0 0 14 0 0 12 0 0 13 0 0 11 0 0 21 0 0 11 0 0 10 0 0 10 0 0 13 0 0 7 0 0 8 0 0 8 0 0 7 0 0 16 0 0 8 0 0 12 0 0 6 0 0 9 0 0 3 0 0 3 0 0 
0 0 0 4 0 0 3 0 0 8 0 0 7 0 0 8 0 0 2 0 0 3 0 0 7 0 0 8 0 0 9 0 0 13 0 0 12 0 0 11 0 0 12 0 0 11 0 0 11 0 0 11 0 0 12 0 0 12 0 0 5 0 0 14 0 0 7 0 0 9 0 0 14 0 0 19 0 0 12 0 0 21 0 0 15 0 0 11 0 0 24 0 0 13 0 0 19 0 0 11 0 0 12 0 0 14 0 0 15 0 0 17 0 0 13 0 0 17 0 0 19 0 0 15 0 0 14 0 0 22 0 0 17 0 0 19 0 0 13 0 0 20 0 0 15 0 0 7 0 0 12 0 0 11 0 0 10 0 0 17 0 0 9 0 0 12 0 0 9 0 0 5 0 0 6 0 0 4 0 0 
5 0 0 5 0 0 3 0 0 11 0 0 9 0 0 12 0 0 5 0 0 5 0 0 9 0 0 12 0 0 11 0 0 13 0 0 11 0 0 16 0 0 17 0 0 12 0 0 15 0 0 17 0 0 21 0 0 18 0 0 11 0 0 15 0 0 6 0 0 15 0 0 16 0 0 18 0 0 22 0 0 14 0 0 27 0 0 16 0 0 24 0 0 15 0 0 15 0 0 9 0 0 21 0 0 16 0 0 17 0 0 12 0 0 17 0 0 20 0 0 19 0 0 24 0 0 15 0 0 17 0 0 22 0 0 18 0 0 17 0 0 26 0 0 12 0 0 11 0 0 16 0 0 10 0 0 16 0 0 11 0 0 16 0 0 5 0 0 2 0 0 4 0 0 4 0 0 8 0 0 
3 0 0 9 0 0 4 0 0 5 0 0 9 0 0 15 0 0 9 0 0 4 0 0 6 0 0 15 0 0 16 0 0 12 0 0 15 0 0 14 0 0 13 0 0 18 0 0 20 0 0 17 0 0 17 0 0 20 0 0 15 0 0 9 0 0 11 0 0 18 0 0 18 0 0 21 0 0 26 0 0 17 0 0 22 0 0 20 0 0 26 0 0 18 0 0 20 0 0 19 0 0 23 0 0 15 0 0 18 0 0 17 0 0 15 0 0 20 0 0 25 0 0 23 0 0 19 0 0 22 0 0 26 0 0 17 0 0 24 0 0 17 0 0 13 0 0 16 0 0 9 0 0 13 0 0 12 0 0 8 0 0 8 0 0 3 0 0 7 0 0 11 0 0 8 0 0 5 0 0 
3 0 0 8 0 0 9 0 0 11 0 0 12 0 0 9 0 0 13 0 0 8 0 0 11 0 0 10 0 0 21 0 0 17 0 0 24 0 0 12 0 0 12 0 0 17 0 0 20 0 0 10 0 0 20 0 0 16 0 0 29 0 0 17 0 0 11 0 0 27 0 0 20 0 0 18 0 0 26 0 0 21 0 0 30 0 0 22 0 0 18 0 0 22 0 0 24 0 0 23 0 0 25 0 0 19 0 0 16 0 0 23 0 0 21 0 0 26 0 0 27 0 0 16 0 0 23 0 0 25 0 0 24 0 0 25 0 0 27 0 0 21 0 0 13 0 0 14 0 0 18 0 0 18 0 0 16 0 0 14 0 0 10 0 0 7 0 0 12 0 0 14 0 0 4 0 0 3 0 0 
6 0 0 5 0 0 9 0 0 7 0 0 9 0 0 13 0 0 9 0 0 10 0 0 13 0 0 18 0 0 19 0 0 21 0 0 20 0 0 26 0 0 21 0 0 20 0 0 29 0 0 19 0 0 23 0 0 24 0 0 24 0 0 28 0 0 21 0 0 30 0 0 27 0 0 24 0 0 34 0 0 25 0 0 29 0 0 34 0 0 24 0 0 26 0 0 20 0 0 42 0 0 35 0 0 31 0 0 22 0 0 28 0 0 26 0 0 33 0 0 24 0 0 17 0 0 34 0 0 31 0 0 34 0 0 25 0 0 22 0 0 22 0 0 23 0 0 26 0 0 14 0 0 14 0 0 13 0 0 11 0 0 8 0 0 16 0 0 10 0 0 8 0 0 8 0 0 8 0 0 
3 0 0 3 0 0 7 0 0 8 0 0 7 0 0 8 0 0 15 0 0 11 0 0 16 0 0 20 0 0 22 0 0 21 0 0 19 0 0 23 0 0 33 0 0 30 0 0 30 0 0 32 0 0 36 0 0 37 0 0 32 0 0 27 0 0 35 0 0 36 0 0 40 0 0 33 0 0 43 0 0 36 0 0 37 0 0 38 0 0 35 0 0 35 0 0 35 0 0 40 0 0 38 0 0 39 0 0 34 0 0 29 0 0 33 0 0 43 0 0 34 0 0 37 0 0 38 0 0 31 0 0 38 0 0 24 0 0 23 0 0 29 0 0 29 0 0 22 0 0 20 0 0 25 0 0 15 0 0 16 0 0 12 0 0 5 0 0 5 0 0 9 0 0 7 0 0 5 0 0 
4 0 0 13 0 0 8 0 0 10 0 0 9 0 0 9 0 0 14 0 0 21 0 0 16 0 0 28 0 0 75 0 0 116 0 0 119 0 0 138 0 0 151 0 0 130 0 0 156 0 0 119 0 0 139 0 0 158 0 0 126 0 0 139 0 0 158 0 0 146 0 0 146 0 0 143 0 0 143 0 0 133 0 0 168 0 0 147 0 0 150 0 0 148 0 0 161 0 0 152 0 0 151 0 0 157 0 0 144 0 0 158 0 0 140 0 0 144 0 0 139 0 0 134 0 0 133 0 0 118 0 0 132 0 0 130 0 0 142 0 0 137 0 0 133 0 0 128 0 0 69 0 0 30 0 0 20 0 0 17 0 0 10 0 0 9 0 0 6 0 0 6 0 0 5 0 0 11 0 0 
2 0 0 5 0 0 8 0 0 12 0 0 10 0 0 17 0 0 19 0 0 17 0 0 25 0 0 68 0 0 5078 0 0 10155 0 0 9887 0 0 10106 0 0 10082 0 0 9950 0 0 10028 0 0 9856 0 0 9902 0 0 10082 0 0 10125 0 0 10100 0 0 10138 0 0 9930 0 0 9944 0 0 10006 0 0 9877 0 0 10141 0 0 10162 0 0 10126 0 0 10091 0 0 10032 0 0 9973 0 0 9995 0 0 10077 0 0 9952 0 0 9948 0 0 10010 0 0 10111 0 0 10040 0 0 9972 0 0 9939 0 0 9969 0 0 10059 0 0 10096 0 0 10012 0 0 10063 0 0 10025 0 0 9902 0 0 9924 0 0 5044 0 0 83 0 0 14 0 0 15 0 0 17 0 0 9 0 0 13 0 0 12 0 0 13 0 0 13 0 0 
2 0 0 5 0 0 11 0 0 9 0 0 9 0 0 12 0 0 17 0 0 21 0 0 32 0 0 142 0 0 9904 0 0 19709 0 0 19833 0 0 20001 0 0 20036 0 0 20107 0 0 20033 0 0 20102 0 0 19903 0 0 19816 0 0 20133 0 0 19912 0 0 20167 0 0 19740 0 0 20083 0 0 20082 0 0 19956 0 0 19849 0 0 20011 0 0 19881 0 0 19881 0 0 19938 0 0 20135 0 0 19932 0 0 20000 0 0 19786 0 0 19812 0 0 20130 0 0 20180 0 0 19896 0 0 20081 0 0 20176 0 0 19924 0 0 20080 0 0 19918 0 0 20039 0 0 19741 0 0 19840 0 0 19984 0 0 19932 0 0 9983 0 0 134 0 0 27 0 0 14 0 0 14 0 0 13 0 0 12 0 0 13 0 0 13 0 0 6 0 0 
4 0 0 7 0 0 10 0 0 13 0 0 12 0 0 16 0 0 14 0 0 21 0 0 29 0 0 161 0 0 10068 0 0 20070 0 0 20099 0 0 20180 0 0 20032 0 0 20307 0 0 19917 0 0 20102 0 0 20087 0 0 20152 0 0 20059 0 0 20011 0 0 19902 0 0 20129 0 0 20074 0 0 20233 0 0 20290 0 0 20284 0 0 20259 0 0 19880 0 0 20152 0 0 20198 0 0 19968 0 0 20025 0 0 20332 0 0 19825 0 0 19807 0 0 19991 0 0 20023 0 0 20191 0 0 20066 0 0 19850 0 0 20124 0 0 20039 0 0 20196 0 0 19983 0 0 20080 0 0 19833 0 0 19912 0 0 19704 0 0 10074 0 0 123 0 0 21 0 0 26 0 0 18 0 0 12 0 0 19 0 0 15 0 0 9 0 0 5 0 0 
1 0 0 8 0 0 13 0 0 10 0 0 14 0 0 11 0 0 20 0 0 17 0 0 22 0 0 132 0 0 10105 0 0 20155 0 0 20145 0 0 20161 0 0 20151 0 0 20059 0 0 20201 0 0 19989 0 0 20128 0 0 19911 0 0 19859 0 0 20269 0 0 19812 0 0 20173 0 0 20099 0 0 20061 0 0 19970 0 0 19886 0 0 20169 0 0 20087 0 0 20007 0 0 20300 0 0 20107 0 0 20120 0 0 20049 0 0 19972 0 0 20099 0 0 20105 0 0 19889 0 0 20023 0 0 20172 0 0 20017 0 0 20155 0 0 19961 0 0 19916 0 0 20066 0 0 19884 0 0 20170 0 0 19919 0 0 20187 0 0 9960 0 0 124 0 0 31 0 0 19 0 0 18 0 0 23 0 0 14 0 0 10 0 0 8 0 0 6 0 0 
1 0 0 4 0 0 6 0 0 7 0 0 10 0 0 22 0 0 24 0 0 28 0 0 25 0 0 139 0 0 10105 0 0 19951 0 0 20147 0 0 20105 0 0 20169 0 0 20146 0 0 20037 0 0 20078 0 0 19883 0 0 19957 0 0 19987 0 0 20020 0 0 19910 0 0 20067 0 0 20033 0 0 20103 0 0 20219 0 0 20009 0 0 20221 0 0 20317 0 0 20006 0 0 20132 0 0 20049 0 0 20309 0 0 19950 0 0 20225 0 0 20203 0 0 20227 0 0 20043 0 0 19921 0 0 20059 0 0 20175 0 0 20044 0 0 19940 0 0 19945 0 0 20111 0 0 20025 0 0 20329 0 0 19940 0 0 20090 0 0 10100 0 0 141 0 0 37 0 0 34 0 0 23 0 0 14 0 0 12 0 0 12 0 0 9 0 0 3 0 0 
6 0 0 6 0 0 8 0 0 13 0 0 16 0 0 10 0 0 17 0 0 23 0 0 26 0 0 130 0 0 10128 0 0 19776 0 0 20076 0 0 20266 0 0 20116 0 0 20214 0 0 19936 0 0 20172 0 0 19987 0 0 20058 0 0 20071 0 0 20043 0 0 20009 0 0 20213 0 0 20033 0 0 20025 0 0 20246 0 0 20304 0 0 19954 0 0 20032 0 0 19954 0 0 20098 0 0 20329 0 0 19935 0 0 20061 0 0 20169 0 0 20035 0 0 19953 0 0 20205 0 0 19960 0 0 20137 0 0 20059 0 0 20096 0 0 20070 0 0 20217 0 0 20170 0 0 20195 0 0 19969 0 0 20074 0 0 20065 0 0 10254 0 0 138 0 0 29 0 0 22 0 0 29 0 0 21 0 0 21 0 0 14 0 0 11 0 0 13 0 0 
6 0 0 12 0 0 9 0 0 12 0 0 14 0 0 15 0 0 13 0 0 25 0 0 26 0 0 130 0 0 9947 0 0 19921 0 0 19784 0 0 20262 0 0 19946 0 0 19878 0 0 20174 0 0 20016 0 0 20219 0 0 20062 0 0 20221 0 0 20174 0 0 19955 0 0 20120 0 0 19955 0 0 20219 0 0 20029 0 0 20151 0 0 19949 0 0 19831 0 0 20161 0 0 19799 0 0 20185 0 0 19976 0 0 19905 0 0 19978 0 0 20243 0 0 20193 0 0 19950 0 0 20243 0 0 20206 0 0 20114 0 0 20039 0 0 19940 0 0 20046 0 0 20298 0 0 20274 0 0 20119 0 0 20156 0 0 19988 0 0 10026 0 0 147 0 0 25 0 0 27 0 0 20 0 0 17 0 0 12 0 0 13 0 0 13 0 0 11 0 0 
5 0 0 12 0 0 14 0 0 12 0 0 7 0 0 13 0 0 14 0 0 24 0 0 28 0 0 130 0 0 10046 0 0 19872 0 0 20072 0 0 20060 0 0 19886 0 0 19873 0 0 19804 0 0 20034 0 0 20140 0 0 20091 0 0 19949 0 0 20006 0 0 19941 0 0 19960 0 0 20201 0 0 20301 0 0 20140 0 0 19816 0 0 20108 0 0 20059 0 0 19924 0 0 20116 0 0 20050 0 0 20240 0 0 19841 0 0 20113 0 0 20169 0 0 20187 0 0 19981 0 0 20058 0 0 20114 0 0 20074 0 0 20142 0 0 20147 0 0 20242 0 0 20401 0 0 19853 0 0 19943 0 0 20123 0 0 19949 0 0 10102 0 0 130 0 0 32 0 0 23 0 0 15 0 0 18 0 0 18 0 0 12 0 0 7 0 0 10 0 0 
5 0 0 9 0 0 8 0 0 14 0 0 22 0 0 12 0 0 12 0 0 20 0 0 40 0 0 133 0 0 10134 0 0 19837 0 0 20099 0 0 20262 0 0 20298 0 0 20011 0 0 19977 0 0 20246 0 0 20414 0 0 20162 0 0 20178 0 0 19842 0 0 20309 0 0 20105 0 0 20250 0 0 19891 0 0 20200 0 0 20087 0 0 20141 0 0 20275 0 0 20262 0 0 20069 0 0 20149 0 0 20033 0 0 20107 0 0 19996 0 0 20028 0 0 20051 0 0 19979 0 0 20094 0 0 20080 0 0 20192 0 0 20040 0 0 20136 0 0 20018 0 0 20242 0 0 20326 0 0 20146 0 0 20083 0 0 19913 0 0 10169 0 0 141 0 0 28 0 0 17 0 0 25 0 0 25 0 0 24 0 0 20 0 0 11 0 0 11 0 0 
3 0 0 10 0 0 14 0 0 14 0 0 16 0 0 19 0 0 22 0 0 26 0 0 25 0 0 144 0 0 10088 0 0 19802 0 0 20014 0 0 19977 0 0 20185 0 0 20046 0 0 19938 0 0 20121 0 0 20072 0 0 20199 0 0 19972 0 0 20066 0 0 19971 0 0 20115 0 0 19969 0 0 20374 0 0 20289 0 0 20109 0 0 20127 0 0 20083 0 0 20036 0 0 20191 0 0 19846 0 0 19924 0 0 20001 0 0 20036 0 0 19940 0 0 20064 0 0 19947 0 0 20064 0 0 20036 0 0 19911 0 0 20197 0 0 20004 0 0 19867 0 0 20119 0 0 20071 0 0 20160 0 0 19852 0 0 19821 0 0 10018 0 0 151 0 0 27 0 0 26 0 0 24 0 0 22 0 0 22 0 0 19 0 0 11 0 0 11 0 0 
3 0 0 4 0 0 8 0 0 10 0 0 20 0 0 23 0 0 16 0 0 27 0 0 36 0 0 129 0 0 10088 0 0 19989 0 0 20225 0 0 20016 0 0 20437 0 0 19893 0 0 19906 0 0 19985 0 0 20014 0 0 20266 0 0 19973 0 0 20131 0 0 20262 0 0 20185 0 0 20114 0 0 19909 0 0 20005 0 0 20318 0 0 20035 0 0 20014 0 0 20061 0 0 20162 0 0 20146 0 0 20107 0 0 20145 0 0 20037 0 0 20174 0 0 20094 0 0 20056 0 0 20070 0 0 20029 0 0 19942 0 0 20076 0 0 20212 0 0 20046 0 0 19983 0 0 20135 0 0 19927 0 0 19922 0 0 20113 0 0 10178 0 0 154 0 0 45 0 0 38 0 0 22 0 0 16 0 0 17 0 0 14 0 0 13 0 0 11 0 0 
3 0 0 4 0 0 6 0 0 8 0 0 16 0 0 19 0 0 22 0 0 26 0 0 42 0 0 142 0 0 10012 0 0 19691 0 0 20080 0 0 20173 0 0 19914 0 0 20027 0 0 19922 0 0 19987 0 0 20252 0 0 20248 0 0 20097 0 0 20257 0 0 20113 0 0 20130 0 0 20000 0 0 20067 0 0 20137 0 0 20083 0 0 20074 0 0 20122 0 0 19930 0 0 20038 0 0 20036 0 0 20112 0 0 20132 0 0 20174 0 0 20070 0 0 20195 0 0 19984 0 0 19953 0 0 19987 0 0 20019 0 0 20194 0 0 20208 0 0 20063 0 0 20079 0 0 20258 0 0 20088 0 0 20039 0 0 19852 0 0 10061 0 0 147 0 0 30 0 0 24 0 0 27 0 0 19 0 0 20 0 0 15 0 0 15 0 0 10 0 0 
5 0 0 10 0 0 11 0 0 13 0 0 15 0 0 22 0 0 21 0 0 29 0 0 40 0 0 137 0 0 10091 0 0 19874 0 0 20103 0 0 20080 0 0 19994 0 0 20022 0 0 19939 0 0 20176 0 0 20091 0 0 20070 0 0 20287 0 0 20238 0 0 19920 0 0 19957 0 0 19978 0 0 20232 0 0 20213 0 0 20133 0 0 20056 0 0 20268 0 0 20191 0 0 20108 0 0 20050 0 0 20043 0 0 20189 0 0 20128 0 0 20190 0 0 20187 0 0 20184 0 0 20034 0 0 19785 0 0 20081 0 0 19960 0 0 20085 0 0 20147 0 0 20024 0 0 20165 0 0 20110 0 0 20124 0 0 20010 0 0 9952 0 0 133 0 0 27 0 0 27 0 0 21 0 0 16 0 0 16 0 0 8 0 0 8 0 0 9 0 0 
8 0 0 13 0 0 9 0 0 7 0 0 16 0 0 22 0 0 25 0 0 37 0 0 44 0 0 157 0 0 10162 0 0 20194 0 0 20088 0 0 20048 0 0 20021 0 0 19912 0 0 20214 0 0 20213 0 0 20116 0 0 20202 0 0 20184 0 0 20133 0 0 20044 0 0 20118 0 0 19736 0 0 19912 0 0 19919 0 0 20073 0 0 20136 0 0 19943 0 0 20099 0 0 20015 0 0 19841 0 0 20040 0 0 20081 0 0 20022 0 0 20128 0 0 20047 0 0 20193 0 0 20361 0 0 20105 0 0 20260 0 0 20234 0 0 20395 0 0 20197 0 0 20096 0 0 20183 0 0 20152 0 0 19935 0 0 19981 0 0 10066 0 0 145 0 0 23 0 0 17 0 0 28 0 0 26 0 0 18 0 0 20 0 0 16 0 0 14 0 0 
4 0 0 7 0 0 10 0 0 13 0 0 11 0 0 15 0 0 23 0 0 25 0 0 35 0 0 161 0 0 10113 0 0 20167 0 0 20055 0 0 19825 0 0 20209 0 0 20333 0 0 20157 0 0 20132 0 0 20095 0 0 19986 0 0 20115 0 0 20179 0 0 19970 0 0 20144 0 0 20068 0 0 20150 0 0 20071 0 0 20023 0 0 19995 0 0 20341 0 0 20137 0 0 20177 0 0 20383 0 0 19951 0 0 20070 0 0 20092 0 0 20342 0 0 20315 0 0 20143 0 0 20093 0 0 19874 0 0 20158 0 0 19957 0 0 20038 0 0 19974 0 0 20171 0 0 20209 0 0 19908 0 0 20204 0 0 19820 0 0 10093 0 0 127 0 0 37 0 0 26 0 0 17 0 0 16 0 0 18 0 0 19 0 0 17 0 0 14 0 0 
5 0 0 14 0 0 14 0 0 17 0 0 19 0 0 17 0 0 15 0 0 34 0 0 41 0 0 138 0 0 10021 0 0 19895 0 0 19931 0 0 19734 0 0 20242 0 0 20080 0 0 20225 0 0 20168 0 0 19955 0 0 20269 0 0 20460 0 0 20067 0 0 19991 0 0 19829 0 0 20200 0 0 20281 0 0 20192 0 0 20010 0 0 20120 0 0 20262 0 0 20011 0 0 19804 0 0 19951 0 0 19971 0 0 19978 0 0 20120 0 0 20226 0 0 20176 0 0 20069 0 0 20223 0 0 20144 0 0 20110 0 0 20110 0 0 19946 0 0 20031 0 0 20108 0 0 20096 0 0 20218 0 0 20314 0 0 19949 0 0 10078 0 0 147 0 0 44 0 0 32 0 0 23 0 0 25 0 0 17 0 0 13 0 0 9 0 0 10 0 0 
5 0 0 16 0 0 22 0 0 18 0 0 24 0 0 26 0 0 24 0 0 22 0 0 40 0 0 144 0 0 10014 0 0 20034 0 0 20102 0 0 20178 0 0 20073 0 0 20215 0 0 20011 0 0 20098 0 0 20124 0 0 20089 0 0 20284 0 0 20028 0 0 19889 0 0 20072 0 0 20238 0 0 20202 0 0 20091 0 0 20134 0 0 19925 0 0 20067 0 0 19929 0 0 20169 0 0 19903 0 0 20179 0 0 20133 0 0 20060 0 0 20087 0 0 20111 0 0 20092 0 0 20176 0 0 20107 0 0 20016 0 0 19838 0 0 20255 0 0 20082 0 0 20025 0 0 20280 0 0 20146 0 0 20066 0 0 20053 0 0 10145 0 0 159 0 0 41 0 0 29 0 0 19 0 0 16 0 0 20 0 0 18 0 0 11 0 0 9 0 0 
12 0 0 16 0 0 15 0 0 18 0 0 16 0 0 13 0 0 24 0 0 35 0 0 44 0 0 151 0 0 9947 0 0 20048 0 0 20408 0 0 20149 0 0 20062 0 0 19904 0 0 20030 0 0 20281 0 0 20317 0 0 20272 0 0 20038 0 0 20162 0 0 20180 0 0 20097 0 0 19972 0 0 20141 0 0 20071 0 0 20204 0 0 20264 0 0 20177 0 0 20305 0 0 20162 0 0 20090 0 0 20123 0 0 19963 0 0 19922 0 0 20084 0 0 20153 0 0 20129 0 0 20043 0 0 20195 0 0 20232 0 0 20001 0 0 20193 0 0 20308 0 0 20243 0 0 20077 0 0 20130 0 0 20126 0 0 20017 0 0 10114 0 0 135 0 0 34 0 0 33 0 0 19 0 0 22 0 0 12 0 0 9 0 0 9 0 0 9 0 0 
6 0 0 8 0 0 19 0 0 18 0 0 19 0 0 16 0 0 23 0 0 26 0 0 38 0 0 163 0 0 9942 0 0 20276 0 0 20118 0 0 20220 0 0 20238 0 0 20086 0 0 20234 0 0 19975 0 0 20202 0 0 19749 0 0 19931 0 0 20225 0 0 20109 0 0 20016 0 0 20116 0 0 20047 0 0 20267 0 0 20021 0 0 20018 0 0 20126 0 0 20264 0 0 19996 0 0 20027 0 0 20074 0 0 20327 0 0 20022 0 0 19938 0 0 20117 0 0 20139 0 0 20101 0 0 19894 0 0 20220 0 0 20019 0 0 20268 0 0 20065 0 0 20293 0 0 20169 0 0 20007 0 0 19982 0 0 20036 0 0 10013 0 0 137 0 0 31 0 0 27 0 0 27 0 0 19 0 0 18 0 0 22 0 0 11 0 0 12 0 0 
6 0 0 23 0 0 15 0 0 17 0 0 21 0 0 22 0 0 20 0 0 26 0 0 33 0 0 135 0 0 10044 0 0 20036 0 0 20264 0 0 20144 0 0 19927 0 0 20019 0 0 19959 0 0 20188 0 0 20133 0 0 19914 0 0 20082 0 0 20324 0 0 20161 0 0 20175 0 0 20080 0 0 20063 0 0 20154 0 0 20020 0 0 20011 0 0 20204 0 0 20281 0 0 20230 0 0 20188 0 0 19675 0 0 20046 0 0 20380 0 0 20230 0 0 20222 0 0 20065 0 0 20074 0 0 20093 0 0 20116 0 0 20089 0 0 20152 0 0 20078 0 0 20194 0 0 20320 0 0 19917 0 0 20012 0 0 20175 0 0 10123 0 0 155 0 0 30 0 0 33 0 0 28 0 0 19 0 0 17 0 0 17 0 0 22 0 0 14 0 0 
6 0 0 13 0 0 18 0 0 21 0 0 21 0 0 21 0 0 28 0 0 31 0 0 33 0 0 157 0 0 10205 0 0 19895 0 0 20016 0 0 20103 0 0 19948 0 0 20098 0 0 20139 0 0 19995 0 0 20272 0 0 20206 0 0 20236 0 0 20075 0 0 20142 0 0 20063 0 0 20127 0 0 20084 0 0 20237 0 0 20023 0 0 19919 0 0 20014 0 0 20030 0 0 20199 0 0 20019 0 0 20100 0 0 19992 0 0 20038 0 0 19969 0 0 20125 0 0 20279 0 0 20259 0 0 19799 0 0 20018 0 0 19971 0 0 20112 0 0 20158 0 0 20013 0 0 19944 0 0 20171 0 0 20033 0 0 20013 0 0 10030 0 0 154 0 0 32 0 0 37 0 0 25 0 0 16 0 0 13 0 0 20 0 0 18 0 0 12 0 0 
3 0 0 9 0 0 14 0 0 18 0 0 12 0 0 19 0 0 23 0 0 23 0 0 43 0 0 159 0 0 9826 0 0 20118 0 0 20186 0 0 19889 0 0 19972 0 0 20110 0 0 20217 0 0 20175 0 0 20069 0 0 19928 0 0 20170 0 0 19959 0 0 20002 0 0 20033 0 0 20268 0 0 20099 0 0 20290 0 0 20105 0 0 20029 0 0 20157 0 0 20072 0 0 20165 0 0 20125 0 0 20165 0 0 20239 0 0 20108 0 0 20163 0 0 20145 0 0 19955 0 0 20188 0 0 20142 0 0 20113 0 0 20004 0 0 20125 0 0 20113 0 0 19988 0 0 20216 0 0 20000 0 0 20031 0 0 19841 0 0 10023 0 0 138 0 0 34 0 0 29 0 0 23 0 0 25 0 0 19 0 0 11 0 0 10 0 0 9 0 0 
5 0 0 9 0 0 7 0 0 12 0 0 20 0 0 15 0 0 24 0 0 21 0 0 36 0 0 155 0 0 9957 0 0 19877 0 0 20103 0 0 19880 0 0 19996 0 0 19997 0 0 20180 0 0 19943 0 0 20482 0 0 19973 0 0 20167 0 0 20253 0 0 20241 0 0 19954 0 0 20093 0 0 19994 0 0 20260 0 0 20149 0 0 20104 0 0 19840 0 0 20208 0 0 20070 0 0 20060 0 0 20159 0 0 20030 0 0 19777 0 0 20490 0 0 20021 0 0 19805 0 0 20101 0 0 20065 0 0 20190 0 0 19917 0 0 20265 0 0 20097 0 0 20137 0 0 20235 0 0 20125 0 0 19911 0 0 20238 0 0 10054 0 0 152 0 0 40 0 0 26 0 0 19 0 0 26 0 0 17 0 0 12 0 0 14 0 0 12 0 0 
5 0 0 10 0 0 12 0 0 11 0 0 18 0 0 20 0 0 20 0 0 23 0 0 36 0 0 158 0 0 10128 0 0 20073 0 0 20117 0 0 20113 0 0 20332 0 0 20026 0 0 20036 0 0 20131 0 0 20186 0 0 19958 0 0 19815 0 0 20118 0 0 19974 0 0 19961 0 0 19959 0 0 20210 0 0 20039 0 0 20016 0 0 19827 0 0 20284 0 0 20197 0 0 20332 0 0 20155 0 0 20166 0 0 20317 0 0 20036 0 0 20155 0 0 20026 0 0 20165 0 0 20228 0 0 20203 0 0 20127 0 0 20001 0 0 20217 0 0 20038 0 0 19864 0 0 20153 0 0 19742 0 0 20059 0 0 20043 0 0 10092 0 0 162 0 0 29 0 0 22 0 0 18 0 0 20 0 0 16 0 0 16 0 0 17 0 0 13 0 0 
4 0 0 9 0 0 13 0 0 16 0 0 18 0 0 26 0 0 24 0 0 26 0 0 39 0 0 151 0 0 9881 0 0 20105 0 0 20086 0 0 20033 0 0 20259 0 0 20302 0 0 19968 0 0 20074 0 0 20081 0 0 19975 0 0 20249 0 0 20050 0 0 20203 0 0 19962 0 0 20216 0 0 20199 0 0 20179 0 0 20100 0 0 20131 0 0 20248 0 0 20331 0 0 19813 0 0 20113 0 0 20024 0 0 20419 0 0 20158 0 0 19913 0 0 20213 0 0 20107 0 0 20242 0 0 20113 0 0 19872 0 0 19981 0 0 20142 0 0 20177 0 0 20101 0 0 20114 0 0 20085 0 0 20020 0 0 19945 0 0 10101 0 0 129 0 0 40 0 0 33 0 0 28 0 0 20 0 0 12 0 0 15 0 0 11 0 0 11 0 0 
6 0 0 20 0 0 17 0 0 21 0 0 23 0 0 29 0 0 31 0 0 35 0 0 47 0 0 157 0 0 9875 0 0 20201 0 0 19904 0 0 20266 0 0 20111 0 0 20094 0 0 20022 0 0 20113 0 0 20326 0 0 20052 0 0 20110 0 0 20062 0 0 20049 0 0 19971 0 0 20234 0 0 20150 0 0 19835 0 0 20073 0 0 20064 0 0 20015 0 0 20132 0 0 19969 0 0 20064 0 0 20308 0 0 20117 0 0 20031 0 0 20042 0 0 20100 0 0 20242 0 0 20356 0 0 20133 0 0 20174 0 0 20170 0 0 20096 0 0 20456 0 0 20054 0 0 20238 0 0 20170 0 0 20008 0 0 19831 0 0 10042 0 0 146 0 0 37 0 0 26 0 0 25 0 0 24 0 0 12 0 0 15 0 0 15 0 0 12 0 0 
4 0 0 15 0 0 12 0 0 15 0 0 23 0 0 25 0 0 28 0 0 33 0 0 46 0 0 141 0 0 10008 0 0 19871 0 0 20115 0 0 19911 0 0 20237 0 0 20110 0 0 20004 0 0 20153 0 0 20250 0 0 19915 0 0 20241 0 0 20120 0 0 20253 0 0 20223 0 0 20371 0 0 19861 0 0 19839 0 0 20196 0 0 20140 0 0 20039 0 0 20378 0 0 20273 0 0 20194 0 0 20244 0 0 20306 0 0 20211 0 0 20052 0 0 20207 0 0 20190 0 0 20125 0 0 19972 0 0 20033 0 0 20148 0 0 20130 0 0 20197 0 0 20126 0 0 19980 0 0 19971 0 0 20157 0 0 20099 0 0 10086 0 0 155 0 0 43 0 0 30 0 0 19 0 0 20 0 0 21 0 0 14 0 0 19 0 0 15 0 0 
7 0 0 12 0 0 12 0 0 12 0 0 11 0 0 16 0 0 24 0 0 36 0 0 41 0 0 133 0 0 10017 0 0 19968 0 0 20125 0 0 20134 0 0 20152 0 0 20121 0 0 20192 0 0 20040 0 0 20286 0 0 19906 0 0 20065 0 0 19890 0 0 20148 0 0 19976 0 0 20192 0 0 19879 0 0 19872 0 0 20148 0 0 20051 0 0 20157 0 0 19806 0 0 20077 0 0 20182 0 0 20032 0 0 20085 0 0 20076 0 0 20034 0 0 20405 0 0 20144 0 0 19960 0 0 20119 0 0 20137 0 0 20148 0 0 20096 0 0 20082 0 0 19897 0 0 20176 0 0 20070 0 0 20097 0 0 20017 0 0 10152 0 0 153 0 0 35 0 0 23 0 0 21 0 0 22 0 0 20 0 0 12 0 0 10 0 0 8 0 0 
8 0 0 11 0 0 11 0 0 13 0 0 19 0 0 23 0 0 24 0 0 27 0 0 45 0 0 153 0 0 9959 0 0 20033 0 0 20242 0 0 20105 0 0 20087 0 0 19949 0 0 20029 0 0 20005 0 0 20010 0 0 20259 0 0 20080 0 0 20195 0 0 20337 0 0 19992 0 0 20316 0 0 20009 0 0 20089 0 0 20236 0 0 20079 0 0 19866 0 0 20311 0 0 20073 0 0 20205 0 0 20206 0 0 20283 0 0 20013 0 0 20039 0 0 20147 0 0 20187 0 0 20006 0 0 20213 0 0 19929 0 0 20209 0 0 20309 0 0 20203 0 0 19877 0 0 20025 0 0 20107 0 0 20086 0 0 19831 0 0 10144 0 0 145 0 0 38 0 0 20 0 0 31 0 0 23 0 0 23 0 0 15 0 0 14 0 0 16 0 0 
5 0 0 16 0 0 14 0 0 20 0 0 19 0 0 24 0 0 16 0 0 35 0 0 31 0 0 149 0 0 10181 0 0 19766 0 0 19940 0 0 20049 0 0 20400 0 0 20028 0 0 19964 0 0 20014 0 0 19944 0 0 20107 0 0 20096 0 0 20170 0 0 19940 0 0 20046 0 0 20125 0 0 20194 0 0 20249 0 0 20182 0 0 20135 0 0 19897 0 0 19852 0 0 19937 0 0 20213 0 0 20034 0 0 20204 0 0 20018 0 0 19988 0 0 20044 0 0 20240 0 0 20206 0 0 20043 0 0 19949 0 0 20171 0 0 20118 0 0 20101 0 0 20168 0 0 20151 0 0 19985 0 0 20021 0 0 19849 0 0 10097 0 0 142 0 0 44 0 0 26 0 0 21 0 0 24 0 0 13 0 0 23 0 0 12 0 0 19 0 0 
5 0 0 6 0 0 13 0 0 9 0 0 14 0 0 15 0 0 28 0 0 26 0 0 33 0 0 128 0 0 9894 0 0 20099 0 0 20118 0 0 20334 0 0 20111 0 0 20171 0 0 20102 0 0 20171 0 0 20055 0 0 20004 0 0 20036 0 0 20108 0 0 19876 0 0 20085 0 0 19992 0 0 19993 0 0 20105 0 0 20110 0 0 20205 0 0 19846 0 0 20014 0 0 19925 0 0 20284 0 0 19851 0 0 20016 0 0 20143 0 0 20068 0 0 20220 0 0 20263 0 0 20299 0 0 20240 0 0 20220 0 0 20188 0 0 20200 0 0 20007 0 0 20253 0 0 20049 0 0 20023 0 0 20108 0 0 19944 0 0 10004 0 0 137 0 0 35 0 0 33 0 0 35 0 0 24 0 0 19 0 0 12 0 0 19 0 0 17 0 0 
6 0 0 14 0 0 12 0 0 7 0 0 15 0 0 25 0 0 24 0 0 26 0 0 33 0 0 119 0 0 10066 0 0 19980 0 0 20137 0 0 20107 0 0 20257 0 0 20091 0 0 19935 0 0 20097 0 0 20069 0 0 20155 0 0 20160 0 0 20113 0 0 19918 0 0 20055 0 0 20042 0 0 20264 0 0 19689 0 0 20193 0 0 19968 0 0 19896 0 0 20345 0 0 20163 0 0 20136 0 0 20189 0 0 20168 0 0 20084 0 0 20217 0 0 20294 0 0 20026 0 0 20250 0 0 20064 0 0 19980 0 0 19999 0 0 19963 0 0 20051 0 0 20198 0 0 20029 0 0 20166 0 0 19893 0 0 19873 0 0 9998 0 0 154 0 0 41 0 0 31 0 0 24 0 0 17 0 0 11 0 0 7 0 0 10 0 0 10 0 0 
4 0 0 12 0 0 11 0 0 14 0 0 13 0 0 18 0 0 26 0 0 35 0 0 40 0 0 132 0 0 10170 0 0 19888 0 0 20175 0 0 20249 0 0 20052 0 0 20078 0 0 20210 0 0 19926 0 0 20115 0 0 20237 0 0 20014 0 0 20031 0 0 19975 0 0 20310 0 0 20159 0 0 20336 0 0 20098 0 0 20068 0 0 20265 0 0 20310 0 0 20067 0 0 20107 0 0 20259 0 0 20063 0 0 20019 0 0 20213 0 0 20113 0 0 20282 0 0 19889 0 0 20029 0 0 20174 0 0 20202 0 0 20023 0 0 19897 0 0 20152 0 0 20087 0 0 19977 0 0 20070 0 0 20138 0 0 19941 0 0 10069 0 0 157 0 0 39 0 0 35 0 0 27 0 0 26 0 0 12 0 0 13 0 0 7 0 0 6 0 0 
6 0 0 10 0 0 11 0 0 9 0 0 17 0 0 20 0 0 21 0 0 24 0 0 41 0 0 151 0 0 10008 0 0 20015 0 0 20212 0 0 19986 0 0 20046 0 0 20106 0 0 19916 0 0 19956 0 0 20223 0 0 20020 0 0 19863 0 0 20000 0 0 20014 0 0 20084 0 0 20183 0 0 20031 0 0 20311 0 0 20001 0 0 19948 0 0 19938 0 0 20138 0 0 20074 0 0 20128 0 0 19955 0 0 20077 0 0 20115 0 0 19986 0 0 19938 0 0 20126 0 0 20330 0 0 20323 0 0 20107 0 0 19929 0 0 20029 0 0 20221 0 0 19949 0 0 19949 0 0 20010 0 0 20144 0 0 20073 0 0 10041 0 0 133 0 0 40 0 0 30 0 0 27 0 0 22 0 0 20 0 0 10 0 0 12 0 0 12 0 0 
5 0 0 13 0 0 14 0 0 15 0 0 12 0 0 19 0 0 22 0 0 31 0 0 34 0 0 148 0 0 10114 0 0 19969 0 0 20018 0 0 20287 0 0 20280 0 0 20160 0 0 19919 0 0 20223 0 0 19938 0 0 20031 0 0 20055 0 0 20143 0 0 20050 0 0 20059 0 0 20096 0 0 20067 0 0 20192 0 0 20024 0 0 20244 0 0 20253 0 0 20032 0 0 20308 0 0 20017 0 0 20234 0 0 19863 0 0 20238 0 0 20370 0 0 20225 0 0 20182 0 0 19976 0 0 20022 0 0 20261 0 0 19883 0 0 20214 0 0 20011 0 0 20200 0 0 20223 0 0 20163 0 0 20319 0 0 19795 0 0 10053 0 0 142 0 0 36 0 0 27 0 0 25 0 0 14 0 0 17 0 0 8 0 0 11 0 0 11 0 0 
6 0 0 11 0 0 12 0 0 14 0 0 16 0 0 13 0 0 15 0 0 25 0 0 32 0 0 128 0 0 9964 0 0 19932 0 0 19724 0 0 19863 0 0 20106 0 0 20324 0 0 20020 0 0 20142 0 0 20151 0 0 20026 0 0 20039 0 0 20005 0 0 19954 0 0 20114 0 0 20011 0 0 20015 0 0 20145 0 0 20027 0 0 20009 0 0 20105 0 0 20402 0 0 19924 0 0 19874 0 0 19994 0 0 19997 0 0 20105 0 0 20090 0 0 20218 0 0 20217 0 0 19975 0 0 20226 0 0 19945 0 0 20118 0 0 19884 0 0 19952 0 0 20218 0 0 20147 0 0 20283 0 0 20170 0 0 19858 0 0 10028 0 0 144 0 0 44 0 0 27 0 0 28 0 0 20 0 0 15 0 0 13 0 0 12 0 0 8 0 0 
2 0 0 6 0 0 5 0 0 10 0 0 12 0 0 12 0 0 17 0 0 24 0 0 24 0 0 118 0 0 9906 0 0 19914 0 0 20174 0 0 20073 0 0 20205 0 0 19988 0 0 20133 0 0 20051 0 0 20175 0 0 20056 0 0 20053 0 0 20206 0 0 20059 0 0 19978 0 0 20013 0 0 20220 0 0 20038 0 0 20023 0 0 20256 0 0 20058 0 0 20024 0 0 20161 0 0 20161 0 0 20117 0 0 20095 0 0 20159 0 0 20466 0 0 20128 0 0 19921 0 0 19972 0 0 20210 0 0 20075 0 0 20021 0 0 19835 0 0 19990 0 0 20025 0 0 20064 0 0 20150 0 0 20071 0 0 19833 0 0 9998 0 0 126 0 0 18 0 0 22 0 0 21 0 0 13 0 0 12 0 0 18 0 0 18 0 0 10 0 0 
7 0 0 12 0 0 17 0 0 13 0 0 18 0 0 20 0 0 25 0 0 24 0 0 34 0 0 147 0 0 10014 0 0 20094 0 0 20016 0 0 19909 0 0 19995 0 0 20178 0 0 20328 0 0 20128 0 0 20103 0 0 20211 0 0 19953 0 0 20309 0 0 20069 0 0 19995 0 0 20166 0 0 20130 0 0 19991 0 0 20239 0 0 19944 0 0 19912 0 0 20006 0 0 20189 0 0 19741 0 0 19926 0 0 19956 0 0 20196 0 0 20098 0 0 20091 0 0 20048 0 0 19995 0 0 19961 0 0 20071 0 0 20037 0 0 20124 0 0 19864 0 0 20210 0 0 20188 0 0 20261 0 0 20107 0 0 20024 0 0 10058 0 0 147 0 0 35 0 0 12 0 0 10 0 0 18 0 0 16 0 0 14 0 0 13 0 0 8 0 0 
4 0 0 9 0 0 7 0 0 15 0 0 18 0 0 21 0 0 16 0 0 23 0 0 26 0 0 141 0 0 9977 0 0 20074 0 0 20279 0 0 19812 0 0 20014 0 0 20195 0 0 20077 0 0 20263 0 0 20028 0 0 20159 0 0 20032 0 0 19989 0 0 20121 0 0 19857 0 0 20161 0 0 20131 0 0 20014 0 0 20148 0 0 20193 0 0 20011 0 0 20124 0 0 20180 0 0 19901 0 0 19623 0 0 20109 0 0 20276 0 0 20281 0 0 20051 0 0 19981 0 0 20224 0 0 20244 0 0 20072 0 0 20155 0 0 20265 0 0 20259 0 0 20207 0 0 20261 0 0 19950 0 0 19974 0 0 19926 0 0 10226 0 0 141 0 0 29 0 0 18 0 0 11 0 0 12 0 0 18 0 0 18 0 0 13 0 0 10 0 0 
4 0 0 15 0 0 8 0 0 16 0 0 19 0 0 12 0 0 12 0 0 20 0 0 38 0 0 117 0 0 10010 0 0 19977 0 0 20067 0 0 19986 0 0 20050 0 0 19955 0 0 20033 0 0 20089 0 0 19984 0 0 20002 0 0 19974 0 0 19922 0 0 20035 0 0 19754 0 0 19855 0 0 20122 0 0 19890 0 0 20062 0 0 19974 0 0 19932 0 0 19804 0 0 20067 0 0 20093 0 0 19992 0 0 19939 0 0 20153 0 0 20033 0 0 19977 0 0 20025 0 0 19884 0 0 19912 0 0 20092 0 0 20075 0 0 19798 0 0 19813 0 0 19768 0 0 19864 0 0 19879 0 0 20134 0 0 19979 0 0 9854 0 0 118 0 0 26 0 0 14 0 0 6 0 0 9 0 0 9 0 0 10 0 0 10 0 0 7 0 0 
5 0 0 9 0 0 10 0 0 10 0 0 12 0 0 12 0 0 16 0 0 30 0 0 33 0 0 70 0 0 5064 0 0 10017 0 0 10088 0 0 10087 0 0 10189 0 0 9998 0 0 10156 0 0 9960 0 0 10117 0 0 10029 0 0 10068 0 0 10002 0 0 10040 0 0 10083 0 0 10047 0 0 10097 0 0 10073 0 0 10089 0 0 10174 0 0 9972 0 0 10090 0 0 10027 0 0 10217 0 0 10124 0 0 10226 0 0 10041 0 0 10041 0 0 10032 0 0 10161 0 0 10095 0 0 10083 0 0 10019 0 0 10090 0 0 9958 0 0 9872 0 0 10046 0 0 10108 0 0 10008 0 0 10124 0 0 9904 0 0 4970 0 0 64 0 0 22 0 0 15 0 0 13 0 0 13 0 0 7 0 0 6 0 0 11 0 0 3 0 0 
2 0 0 8 0 0 9 0 0 12 0 0 19 0 0 14 0 0 12 0 0 13 0 0 23 0 0 19 0 0 84 0 0 128 0 0 137 0 0 134 0 0 145 0 0 135 0 0 128 0 0 152 0 0 159 0 0 138 0 0 140 0 0 122 0 0 144 0 0 144 0 0 135 0 0 142 0 0 142 0 0 138 0 0 135 0 0 132 0 0 150 0 0 131 0 0 137 0 0 147 0 0 138 0 0 148 0 0 159 0 0 172 0 0 150 0 0 141 0 0 139 0 0 139 0 0 146 0 0 141 0 0 135 0 0 133 0 0 149 0 0 124 0 0 151 0 0 118 0 0 71 0 0 28 0 0 26 0 0 20 0 0 16 0 0 15 0 0 11 0 0 11 0 0 14 0 0 11 0 0 
3 0 0 8 0 0 10 0 0 12 0 0 11 0 0 6 0 0 15 0 0 16 0 0 12 0 0 11 0 0 20 0 0 28 0 0 28 0 0 29 0 0 32 0 0 26 0 0 28 0 0 30 0 0 35 0 0 29 0 0 26 0 0 23 0 0 34 0 0 42 0 0 38 0 0 38 0 0 41 0 0 39 0 0 35 0 0 33 0 0 35 0 0 36 0 0 33 0 0 36 0 0 47 0 0 33 0 0 34 0 0 42 0 0 32 0 0 40 0 0 37 0 0 35 0 0 25 0 0 34 0 0 37 0 0 30 0 0 40 0 0 35 0 0 25 0 0 28 0 0 22 0 0 20 0 0 19 0 0 15 0 0 12 0 0 12 0 0 11 0 0 8 0 0 11 0 0 9 0 0 
4 0 0 9 0 0 9 0 0 7 0 0 7 0 0 15 0 0 14 0 0 14 0 0 11 0 0 15 0 0 19 0 0 23 0 0 20 0 0 21 0 0 26 0 0 14 0 0 21 0 0 27 0 0 29 0 0 24 0 0 23 0 0 22 0 0 28 0 0 28 0 0 26 0 0 28 0 0 27 0 0 37 0 0 29 0 0 27 0 0 23 0 0 36 0 0 20 0 0 35 0 0 32 0 0 28 0 0 32 0 0 33 0 0 19 0 0 24 0 0 22 0 0 23 0 0 30 0 0 25 0 0 23 0 0 25 0 0 21 0 0 29 0 0 18 0 0 20 0 0 15 0 0 12 0 0 19 0 0 16 0 0 15 0 0 9 0 0 5 0 0 6 0 0 8 0 0 8 0 0 
6 0 0 11 0 0 5 0 0 7 0 0 14 0 0 13 0 0 10 0 0 14 0 0 15 0 0 22 0 0 23 0 0 10 0 0 19 0 0 21 0 0 16 0 0 23 0 0 21 0 0 26 0 0 26 0 0 14 0 0 30 0 0 29 0 0 24 0 0 19 0 0 23 0 0 23 0 0 20 0 0 21 0 0 24 0 0 26 0 0 25 0 0 20 0 0 25 0 0 20 0 0 28 0 0 26 0 0 28 0 0 26 0 0 33 0 0 20 0 0 20 0 0 15 0 0 24 0 0 26 0 0 20 0 0 16 0 0 29 0 0 21 0 0 13 0 0 17 0 0 14 0 0 11 0 0 14 0 0 13 0 0 12 0 0 11 0 0 7 0 0 6 0 0 4 0 0 8 0 0 
3 0 0 9 0 0 10 0 0 6 0 0 7 0 0 14 0 0 15 0 0 16 0 0 16 0 0 15 0 0 10 0 0 12 0 0 12 0 0 16 0 0 13 0 0 22 0 0 13 0 0 21 0 0 21 0 0 15 0 0 20 0 0 22 0 0 27 0 0 18 0 0 21 0 0 18 0 0 28 0 0 18 0 0 17 0 0 18 0 0 28 0 0 20 0 0 16 0 0 21 0 0 18 0 0 26 0 0 13 0 0 18 0 0 28 0 0 21 0 0 25 0 0 16 0 0 24 0 0 17 0 0 12 0 0 12 0 0 20 0 0 16 0 0 11 0 0 16 0 0 12 0 0 10 0 0 8 0 0 13 0 0 8 0 0 10 0 0 15 0 0 6 0 0 5 0 0 3 0 0 
3 0 0 6 0 0 7 0 0 8 0 0 14 0 0 10 0 0 12 0 0 9 0 0 10 0 0 9 0 0 10 0 0 12 0 0 8 0 0 13 0 0 16 0 0 13 0 0 16 0 0 16 0 0 21 0 0 14 0 0 16 0 0 24 0 0 23 0 0 16 0 0 14 0 0 18 0 0 19 0 0 13 0 0 17 0 0 18 0 0 30 0 0 17 0 0 10 0 0 18 0 0 17 0 0 25 0 0 8 0 0 22 0 0 20 0 0 20 0 0 19 0 0 16 0 0 19 0 0 10 0 0 10 0 0 7 0 0 16 0 0 7 0 0 13 0 0 14 0 0 9 0 0 10 0 0 6 0 0 7 0 0 12 0 0 9 0 0 8 0 0 6 0 0 6 0 0 3 0 0 
3 0 0 6 0 0 9 0 0 12 0 0 7 0 0 11 0 0 11 0 0 5 0 0 6 0 0 7 0 0 11 0 0 8 0 0 6 0 0 14 0 0 9 0 0 10 0 0 13 0 0 15 0 0 18 0 0 19 0 0 18 0 0 17 0 0 11 0 0 17 0 0 14 0 0 17 0 0 19 0 0 8 0 0 12 0 0 23 0 0 19 0 0 17 0 0 21 0 0 15 0 0 12 0 0 20 0 0 10 0 0 24 0 0 12 0 0 10 0 0 12 0 0 19 0 0 17 0 0 9 0 0 10 0 0 5 0 0 12 0 0 12 0 0 11 0 0 17 0 0 12 0 0 10 0 0 6 0 0 6 0 0 10 0 0 9 0 0 5 0 0 7 0 0 4 0 0 3 0 0 
0 0 0 9 0 0 8 0 0 8 0 0 11 0 0 8 0 0 5 0 0 8 0 0 8 0 0 8 0 0 13 0 0 8 0 0 11 0 0 11 0 0 9 0 0 9 0 0 12 0 0 15 0 0 11 0 0 18 0 0 15 0 0 9 0 0 22 0 0 12 0 0 17 0 0 21 0 0 10 0 0 11 0 0 15 0 0 16 0 0 12 0 0 21 0 0 23 0 0 13 0 0 18 0 0 19 0 0 14 0 0 17 0 0 12 0 0 12 0 0 11 0 0 13 0 0 16 0 0 7 0 0 11 0 0 10 0 0 14 0 0 11 0 0 9 0 0 12 0 0 15 0 0 6 0 0 11 0 0 5 0 0 6 0 0 8 0 0 6 0 0 1 0 0 5 0 0 6 0 0 
4 0 0 10 0 0 11 0 0 5 0 0 8 0 0 4 0 0 6 0 0 5 0 0 8 0 0 7 0 0 7 0 0 9 0 0 12 0 0 10 0 0 6 0 0 7 0 0 10 0 0 13 0 0 17 0 0 15 0 0 15 0 0 11 0 0 16 0 0 11 0 0 19 0 0 22 0 0 7 0 0 13 0 0 14 0 0 8 0 0 15 0 0 18 0 0 13 0 0 10 0 0 17 0 0 13 0 0 15 0 0 8 0 0 11 0 0 13 0 0 10 0 0 11 0 0 7 0 0 11 0 0 6 0 0 11 0 0 12 0 0 12 0 0 7 0 0 11 0 0 6 0 0 13 0 0 6 0 0 12 0 0 6 0 0 5 0 0 4 0 0 4 0 0 3 0 0 5 0 0 
