P3
# This is a dose file slice at depth 93 of 100
60 60
# now we give the maximum value of the RGB coordinates.
32965
0 0 0 0 0 0 0 0 0 0 0 0 0 0 0 0 0 0 0 0 0 0 0 0 0 0 0 0 0 0 0 0 0 0 0 0 0 0 0 0 0 0 0 0 0 0 0 0 0 0 0 0 0 0 0 0 0 0 0 0 0 0 0 0 0 0 0 0 0 2 0 0 0 0 0 0 0 0 0 0 0 0 0 0 0 0 0 0 0 0 0 0 0 1 0 0 0 0 0 1 0 0 0 0 0 1 0 0 0 0 0 0 0 0 0 0 0 1 0 0 0 0 0 0 0 0 0 0 0 0 0 0 0 0 0 0 0 0 0 0 0 0 0 0 1 0 0 1 0 0 1 0 0 0 0 0 0 0 0 0 0 0 0 0 0 0 0 0 0 0 0 1 0 0 0 0 0 0 0 0 
1 0 0 0 0 0 2 0 0 0 0 0 1 0 0 0 0 0 1 0 0 1 0 0 1 0 0 2 0 0 0 0 0 0 0 0 2 0 0 3 0 0 0 0 0 0 0 0 1 0 0 1 0 0 0 0 0 0 0 0 0 0 0 0 0 0 3 0 0 3 0 0 0 0 0 0 0 0 1 0 0 0 0 0 0 0 0 1 0 0 4 0 0 4 0 0 0 0 0 6 0 0 4 0 0 1 0 0 1 0 0 1 0 0 1 0 0 0 0 0 1 0 0 1 0 0 2 0 0 1 0 0 2 0 0 0 0 0 1 0 0 2 0 0 0 0 0 3 0 0 4 0 0 1 0 0 1 0 0 0 0 0 0 0 0 2 0 0 3 0 0 2 0 0 0 0 0 0 0 0 
0 0 0 2 0 0 2 0 0 0 0 0 0 0 0 1 0 0 0 0 0 0 0 0 0 0 0 0 0 0 1 0 0 3 0 0 2 0 0 3 0 0 2 0 0 1 0 0 1 0 0 0 0 0 3 0 0 4 0 0 0 0 0 0 0 0 3 0 0 2 0 0 4 0 0 0 0 0 0 0 0 0 0 0 4 0 0 2 0 0 3 0 0 0 0 0 1 0 0 3 0 0 1 0 0 3 0 0 5 0 0 2 0 0 1 0 0 0 0 0 1 0 0 0 0 0 2 0 0 3 0 0 2 0 0 0 0 0 3 0 0 1 0 0 0 0 0 2 0 0 2 0 0 5 0 0 1 0 0 0 0 0 0 0 0 0 0 0 2 0 0 0 0 0 0 0 0 4 0 0 
0 0 0 0 0 0 0 0 0 1 0 0 1 0 0 1 0 0 2 0 0 0 0 0 0 0 0 1 0 0 1 0 0 1 0 0 1 0 0 1 0 0 3 0 0 4 0 0 3 0 0 0 0 0 1 0 0 2 0 0 1 0 0 1 0 0 3 0 0 1 0 0 2 0 0 1 0 0 1 0 0 0 0 0 3 0 0 2 0 0 2 0 0 2 0 0 3 0 0 0 0 0 1 0 0 4 0 0 3 0 0 2 0 0 2 0 0 0 0 0 4 0 0 3 0 0 0 0 0 3 0 0 2 0 0 2 0 0 3 0 0 2 0 0 1 0 0 2 0 0 4 0 0 2 0 0 2 0 0 0 0 0 2 0 0 1 0 0 1 0 0 1 0 0 0 0 0 1 0 0 
0 0 0 0 0 0 1 0 0 2 0 0 0 0 0 2 0 0 0 0 0 1 0 0 1 0 0 0 0 0 0 0 0 3 0 0 0 0 0 1 0 0 3 0 0 3 0 0 3 0 0 3 0 0 2 0 0 0 0 0 3 0 0 0 0 0 2 0 0 7 0 0 1 0 0 1 0 0 2 0 0 3 0 0 1 0 0 1 0 0 6 0 0 2 0 0 6 0 0 4 0 0 2 0 0 5 0 0 2 0 0 4 0 0 2 0 0 4 0 0 4 0 0 4 0 0 4 0 0 2 0 0 3 0 0 5 0 0 1 0 0 8 0 0 1 0 0 3 0 0 2 0 0 6 0 0 3 0 0 4 0 0 3 0 0 0 0 0 0 0 0 0 0 0 1 0 0 2 0 0 
0 0 0 1 0 0 4 0 0 1 0 0 1 0 0 0 0 0 0 0 0 3 0 0 3 0 0 1 0 0 0 0 0 0 0 0 3 0 0 0 0 0 2 0 0 3 0 0 8 0 0 4 0 0 2 0 0 3 0 0 1 0 0 3 0 0 1 0 0 5 0 0 4 0 0 6 0 0 5 0 0 3 0 0 1 0 0 7 0 0 7 0 0 5 0 0 6 0 0 6 0 0 1 0 0 2 0 0 1 0 0 3 0 0 6 0 0 0 0 0 1 0 0 5 0 0 1 0 0 2 0 0 2 0 0 2 0 0 2 0 0 12 0 0 2 0 0 6 0 0 8 0 0 2 0 0 0 0 0 0 0 0 0 0 0 0 0 0 1 0 0 0 0 0 1 0 0 0 0 0 
0 0 0 1 0 0 1 0 0 0 0 0 2 0 0 2 0 0 1 0 0 2 0 0 2 0 0 4 0 0 6 0 0 3 0 0 3 0 0 2 0 0 4 0 0 1 0 0 4 0 0 1 0 0 5 0 0 5 0 0 4 0 0 4 0 0 3 0 0 9 0 0 2 0 0 7 0 0 9 0 0 5 0 0 3 0 0 4 0 0 5 0 0 9 0 0 13 0 0 6 0 0 4 0 0 7 0 0 4 0 0 7 0 0 6 0 0 1 0 0 4 0 0 6 0 0 4 0 0 9 0 0 2 0 0 5 0 0 8 0 0 9 0 0 3 0 0 9 0 0 2 0 0 2 0 0 1 0 0 0 0 0 0 0 0 1 0 0 0 0 0 2 0 0 0 0 0 0 0 0 
0 0 0 1 0 0 0 0 0 0 0 0 1 0 0 3 0 0 0 0 0 1 0 0 2 0 0 1 0 0 4 0 0 5 0 0 3 0 0 4 0 0 6 0 0 1 0 0 2 0 0 6 0 0 6 0 0 6 0 0 5 0 0 2 0 0 6 0 0 8 0 0 4 0 0 11 0 0 10 0 0 4 0 0 6 0 0 4 0 0 6 0 0 5 0 0 9 0 0 5 0 0 3 0 0 2 0 0 5 0 0 4 0 0 6 0 0 5 0 0 12 0 0 9 0 0 11 0 0 5 0 0 6 0 0 6 0 0 1 0 0 9 0 0 6 0 0 3 0 0 4 0 0 2 0 0 2 0 0 1 0 0 0 0 0 0 0 0 1 0 0 0 0 0 0 0 0 0 0 0 
0 0 0 3 0 0 1 0 0 0 0 0 3 0 0 1 0 0 0 0 0 0 0 0 3 0 0 3 0 0 1 0 0 9 0 0 6 0 0 2 0 0 4 0 0 3 0 0 3 0 0 4 0 0 8 0 0 7 0 0 7 0 0 5 0 0 7 0 0 10 0 0 9 0 0 7 0 0 6 0 0 8 0 0 8 0 0 3 0 0 7 0 0 6 0 0 9 0 0 10 0 0 10 0 0 8 0 0 10 0 0 8 0 0 6 0 0 9 0 0 9 0 0 10 0 0 5 0 0 5 0 0 10 0 0 11 0 0 9 0 0 10 0 0 10 0 0 3 0 0 2 0 0 2 0 0 2 0 0 1 0 0 3 0 0 1 0 0 1 0 0 0 0 0 1 0 0 1 0 0 
0 0 0 2 0 0 2 0 0 2 0 0 2 0 0 5 0 0 1 0 0 3 0 0 3 0 0 6 0 0 20 0 0 34 0 0 25 0 0 34 0 0 26 0 0 33 0 0 32 0 0 34 0 0 34 0 0 42 0 0 55 0 0 34 0 0 35 0 0 38 0 0 38 0 0 41 0 0 39 0 0 49 0 0 35 0 0 37 0 0 45 0 0 31 0 0 34 0 0 39 0 0 37 0 0 44 0 0 43 0 0 42 0 0 37 0 0 41 0 0 42 0 0 36 0 0 51 0 0 36 0 0 47 0 0 35 0 0 35 0 0 38 0 0 31 0 0 35 0 0 17 0 0 5 0 0 3 0 0 4 0 0 4 0 0 1 0 0 0 0 0 1 0 0 2 0 0 0 0 0 
0 0 0 0 0 0 0 0 0 1 0 0 1 0 0 3 0 0 0 0 0 4 0 0 4 0 0 18 0 0 1104 0 0 2165 0 0 2081 0 0 2209 0 0 2146 0 0 2222 0 0 2124 0 0 2184 0 0 2182 0 0 2154 0 0 2223 0 0 2121 0 0 2211 0 0 2235 0 0 2123 0 0 2230 0 0 2153 0 0 2175 0 0 2174 0 0 2155 0 0 2124 0 0 2133 0 0 2176 0 0 2166 0 0 2218 0 0 2171 0 0 2238 0 0 2129 0 0 2178 0 0 2166 0 0 2297 0 0 2178 0 0 2187 0 0 2095 0 0 2251 0 0 2219 0 0 2182 0 0 2181 0 0 2197 0 0 2204 0 0 1111 0 0 21 0 0 4 0 0 2 0 0 1 0 0 2 0 0 2 0 0 3 0 0 1 0 0 0 0 0 
0 0 0 2 0 0 1 0 0 1 0 0 1 0 0 1 0 0 2 0 0 3 0 0 6 0 0 25 0 0 2226 0 0 4266 0 0 4345 0 0 4299 0 0 4406 0 0 4345 0 0 4339 0 0 4333 0 0 4387 0 0 4394 0 0 4384 0 0 4378 0 0 4353 0 0 4349 0 0 4319 0 0 4426 0 0 4287 0 0 4364 0 0 4398 0 0 4261 0 0 4349 0 0 4357 0 0 4456 0 0 4258 0 0 4349 0 0 4283 0 0 4435 0 0 4352 0 0 4343 0 0 4448 0 0 4324 0 0 4416 0 0 4361 0 0 4226 0 0 4185 0 0 4400 0 0 4260 0 0 4390 0 0 4319 0 0 4223 0 0 2109 0 0 32 0 0 5 0 0 4 0 0 2 0 0 0 0 0 2 0 0 2 0 0 0 0 0 1 0 0 
0 0 0 3 0 0 2 0 0 1 0 0 1 0 0 4 0 0 1 0 0 6 0 0 4 0 0 43 0 0 2145 0 0 4359 0 0 4372 0 0 4342 0 0 4391 0 0 4448 0 0 4416 0 0 4350 0 0 4336 0 0 4495 0 0 4404 0 0 4486 0 0 4380 0 0 4432 0 0 4468 0 0 4304 0 0 4400 0 0 4397 0 0 4243 0 0 4290 0 0 4376 0 0 4468 0 0 4267 0 0 4314 0 0 4215 0 0 4483 0 0 4312 0 0 4312 0 0 4407 0 0 4297 0 0 4263 0 0 4407 0 0 4345 0 0 4452 0 0 4386 0 0 4319 0 0 4316 0 0 4435 0 0 4311 0 0 4319 0 0 2183 0 0 44 0 0 2 0 0 5 0 0 6 0 0 2 0 0 2 0 0 4 0 0 4 0 0 3 0 0 
2 0 0 5 0 0 3 0 0 3 0 0 2 0 0 7 0 0 4 0 0 2 0 0 1 0 0 33 0 0 2316 0 0 4312 0 0 4285 0 0 4256 0 0 4424 0 0 4452 0 0 4359 0 0 4430 0 0 4232 0 0 4425 0 0 4376 0 0 4444 0 0 4314 0 0 4435 0 0 4299 0 0 4392 0 0 4508 0 0 4448 0 0 4290 0 0 4411 0 0 4331 0 0 4257 0 0 4293 0 0 4411 0 0 4325 0 0 4467 0 0 4320 0 0 4332 0 0 4287 0 0 4423 0 0 4514 0 0 4404 0 0 4409 0 0 4331 0 0 4219 0 0 4325 0 0 4267 0 0 4346 0 0 4319 0 0 4367 0 0 2170 0 0 35 0 0 4 0 0 2 0 0 5 0 0 4 0 0 3 0 0 1 0 0 0 0 0 2 0 0 
0 0 0 0 0 0 0 0 0 4 0 0 4 0 0 4 0 0 2 0 0 2 0 0 8 0 0 50 0 0 2235 0 0 4353 0 0 4380 0 0 4355 0 0 4497 0 0 4266 0 0 4276 0 0 4324 0 0 4338 0 0 4403 0 0 4314 0 0 4292 0 0 4407 0 0 4316 0 0 4398 0 0 4323 0 0 4351 0 0 4336 0 0 4305 0 0 4444 0 0 4371 0 0 4302 0 0 4398 0 0 4336 0 0 4298 0 0 4402 0 0 4290 0 0 4511 0 0 4342 0 0 4357 0 0 4385 0 0 4398 0 0 4377 0 0 4355 0 0 4304 0 0 4449 0 0 4288 0 0 4278 0 0 4400 0 0 4320 0 0 2206 0 0 28 0 0 7 0 0 1 0 0 1 0 0 0 0 0 0 0 0 0 0 0 1 0 0 4 0 0 
0 0 0 0 0 0 1 0 0 1 0 0 2 0 0 3 0 0 5 0 0 8 0 0 11 0 0 45 0 0 2157 0 0 4323 0 0 4464 0 0 4233 0 0 4446 0 0 4344 0 0 4363 0 0 4405 0 0 4405 0 0 4319 0 0 4492 0 0 4397 0 0 4391 0 0 4359 0 0 4386 0 0 4374 0 0 4390 0 0 4397 0 0 4417 0 0 4479 0 0 4489 0 0 4314 0 0 4297 0 0 4429 0 0 4398 0 0 4207 0 0 4368 0 0 4331 0 0 4438 0 0 4382 0 0 4333 0 0 4435 0 0 4450 0 0 4276 0 0 4415 0 0 4411 0 0 4416 0 0 4450 0 0 4408 0 0 4466 0 0 2192 0 0 34 0 0 7 0 0 5 0 0 4 0 0 1 0 0 2 0 0 3 0 0 3 0 0 3 0 0 
0 0 0 0 0 0 2 0 0 4 0 0 3 0 0 5 0 0 5 0 0 5 0 0 2 0 0 32 0 0 2210 0 0 4269 0 0 4352 0 0 4303 0 0 4415 0 0 4372 0 0 4380 0 0 4403 0 0 4380 0 0 4294 0 0 4500 0 0 4329 0 0 4372 0 0 4386 0 0 4379 0 0 4463 0 0 4398 0 0 4364 0 0 4313 0 0 4451 0 0 4317 0 0 4353 0 0 4513 0 0 4327 0 0 4290 0 0 4345 0 0 4322 0 0 4387 0 0 4379 0 0 4455 0 0 4399 0 0 4441 0 0 4319 0 0 4406 0 0 4403 0 0 4372 0 0 4426 0 0 4283 0 0 4442 0 0 4384 0 0 2170 0 0 32 0 0 7 0 0 4 0 0 3 0 0 2 0 0 1 0 0 0 0 0 2 0 0 1 0 0 
0 0 0 1 0 0 0 0 0 1 0 0 2 0 0 2 0 0 7 0 0 11 0 0 4 0 0 50 0 0 2114 0 0 4377 0 0 4342 0 0 4488 0 0 4286 0 0 4395 0 0 4376 0 0 4529 0 0 4371 0 0 4408 0 0 4378 0 0 4380 0 0 4394 0 0 4275 0 0 4390 0 0 4336 0 0 4272 0 0 4404 0 0 4363 0 0 4286 0 0 4424 0 0 4283 0 0 4400 0 0 4355 0 0 4411 0 0 4408 0 0 4413 0 0 4327 0 0 4515 0 0 4490 0 0 4410 0 0 4359 0 0 4315 0 0 4284 0 0 4245 0 0 4366 0 0 4446 0 0 4359 0 0 4271 0 0 4308 0 0 2237 0 0 35 0 0 2 0 0 5 0 0 3 0 0 0 0 0 5 0 0 4 0 0 3 0 0 3 0 0 
0 0 0 2 0 0 3 0 0 2 0 0 4 0 0 3 0 0 6 0 0 7 0 0 7 0 0 41 0 0 2182 0 0 4331 0 0 4370 0 0 4331 0 0 4383 0 0 4362 0 0 4478 0 0 4419 0 0 4300 0 0 4317 0 0 4365 0 0 4465 0 0 4411 0 0 4463 0 0 4419 0 0 4373 0 0 4481 0 0 4319 0 0 4342 0 0 4388 0 0 4308 0 0 4421 0 0 4335 0 0 4329 0 0 4360 0 0 4497 0 0 4314 0 0 4442 0 0 4336 0 0 4261 0 0 4267 0 0 4402 0 0 4310 0 0 4392 0 0 4461 0 0 4325 0 0 4501 0 0 4457 0 0 4232 0 0 4289 0 0 2114 0 0 33 0 0 7 0 0 6 0 0 4 0 0 4 0 0 4 0 0 1 0 0 0 0 0 0 0 0 
1 0 0 2 0 0 4 0 0 4 0 0 4 0 0 6 0 0 4 0 0 2 0 0 6 0 0 32 0 0 2204 0 0 4344 0 0 4300 0 0 4394 0 0 4239 0 0 4373 0 0 4239 0 0 4316 0 0 4362 0 0 4388 0 0 4323 0 0 4485 0 0 4361 0 0 4466 0 0 4385 0 0 4387 0 0 4405 0 0 4381 0 0 4308 0 0 4479 0 0 4342 0 0 4311 0 0 4250 0 0 4445 0 0 4438 0 0 4416 0 0 4328 0 0 4357 0 0 4498 0 0 4261 0 0 4266 0 0 4498 0 0 4401 0 0 4334 0 0 4431 0 0 4395 0 0 4356 0 0 4355 0 0 4299 0 0 4342 0 0 2178 0 0 44 0 0 10 0 0 5 0 0 4 0 0 5 0 0 2 0 0 1 0 0 1 0 0 1 0 0 
1 0 0 1 0 0 1 0 0 3 0 0 5 0 0 2 0 0 7 0 0 5 0 0 6 0 0 32 0 0 2215 0 0 4358 0 0 4383 0 0 4398 0 0 4335 0 0 4437 0 0 4378 0 0 4397 0 0 4376 0 0 4286 0 0 4408 0 0 4425 0 0 4425 0 0 4377 0 0 4415 0 0 4369 0 0 4301 0 0 4407 0 0 4284 0 0 4454 0 0 4366 0 0 4435 0 0 4356 0 0 4438 0 0 4400 0 0 4285 0 0 4340 0 0 4333 0 0 4411 0 0 4504 0 0 4384 0 0 4369 0 0 4403 0 0 4374 0 0 4289 0 0 4503 0 0 4305 0 0 4413 0 0 4389 0 0 4399 0 0 2162 0 0 29 0 0 9 0 0 3 0 0 3 0 0 1 0 0 5 0 0 3 0 0 1 0 0 0 0 0 
0 0 0 1 0 0 2 0 0 1 0 0 3 0 0 2 0 0 5 0 0 5 0 0 3 0 0 48 0 0 2247 0 0 4247 0 0 4363 0 0 4442 0 0 4355 0 0 4306 0 0 4338 0 0 4402 0 0 4313 0 0 4333 0 0 4260 0 0 4299 0 0 4418 0 0 4339 0 0 4435 0 0 4413 0 0 4285 0 0 4357 0 0 4415 0 0 4328 0 0 4298 0 0 4358 0 0 4432 0 0 4411 0 0 4381 0 0 4483 0 0 4351 0 0 4440 0 0 4306 0 0 4351 0 0 4399 0 0 4348 0 0 4393 0 0 4363 0 0 4411 0 0 4338 0 0 4398 0 0 4322 0 0 4462 0 0 4328 0 0 2240 0 0 41 0 0 4 0 0 4 0 0 4 0 0 5 0 0 3 0 0 3 0 0 3 0 0 1 0 0 
1 0 0 4 0 0 0 0 0 2 0 0 3 0 0 3 0 0 4 0 0 1 0 0 5 0 0 39 0 0 2202 0 0 4347 0 0 4433 0 0 4414 0 0 4402 0 0 4361 0 0 4330 0 0 4312 0 0 4370 0 0 4419 0 0 4349 0 0 4339 0 0 4236 0 0 4388 0 0 4314 0 0 4479 0 0 4392 0 0 4442 0 0 4266 0 0 4349 0 0 4342 0 0 4462 0 0 4421 0 0 4374 0 0 4422 0 0 4398 0 0 4348 0 0 4402 0 0 4485 0 0 4352 0 0 4409 0 0 4394 0 0 4244 0 0 4418 0 0 4429 0 0 4361 0 0 4364 0 0 4359 0 0 4412 0 0 4333 0 0 2081 0 0 34 0 0 7 0 0 4 0 0 5 0 0 5 0 0 1 0 0 0 0 0 0 0 0 1 0 0 
0 0 0 3 0 0 4 0 0 3 0 0 0 0 0 3 0 0 0 0 0 3 0 0 7 0 0 44 0 0 2192 0 0 4344 0 0 4386 0 0 4397 0 0 4423 0 0 4398 0 0 4378 0 0 4366 0 0 4447 0 0 4398 0 0 4436 0 0 4349 0 0 4346 0 0 4434 0 0 4336 0 0 4418 0 0 4424 0 0 4307 0 0 4295 0 0 4341 0 0 4309 0 0 4332 0 0 4468 0 0 4485 0 0 4413 0 0 4451 0 0 4383 0 0 4446 0 0 4442 0 0 4373 0 0 4486 0 0 4372 0 0 4420 0 0 4422 0 0 4275 0 0 4332 0 0 4440 0 0 4436 0 0 4457 0 0 4375 0 0 2217 0 0 36 0 0 10 0 0 7 0 0 2 0 0 2 0 0 0 0 0 0 0 0 0 0 0 0 0 0 
0 0 0 2 0 0 3 0 0 1 0 0 1 0 0 3 0 0 5 0 0 4 0 0 9 0 0 41 0 0 2153 0 0 4312 0 0 4314 0 0 4304 0 0 4460 0 0 4387 0 0 4370 0 0 4385 0 0 4436 0 0 4356 0 0 4383 0 0 4280 0 0 4390 0 0 4384 0 0 4513 0 0 4381 0 0 4361 0 0 4392 0 0 4335 0 0 4452 0 0 4388 0 0 4337 0 0 4421 0 0 4392 0 0 4386 0 0 4311 0 0 4354 0 0 4230 0 0 4417 0 0 4494 0 0 4450 0 0 4397 0 0 4466 0 0 4429 0 0 4423 0 0 4413 0 0 4359 0 0 4446 0 0 4315 0 0 4401 0 0 2171 0 0 42 0 0 6 0 0 4 0 0 5 0 0 4 0 0 3 0 0 3 0 0 3 0 0 2 0 0 
2 0 0 2 0 0 4 0 0 4 0 0 8 0 0 4 0 0 3 0 0 3 0 0 7 0 0 31 0 0 2183 0 0 4371 0 0 4389 0 0 4251 0 0 4454 0 0 4342 0 0 4341 0 0 4326 0 0 4400 0 0 4351 0 0 4344 0 0 4355 0 0 4267 0 0 4375 0 0 4354 0 0 4401 0 0 4429 0 0 4335 0 0 4387 0 0 4391 0 0 4380 0 0 4406 0 0 4422 0 0 4305 0 0 4435 0 0 4359 0 0 4276 0 0 4302 0 0 4406 0 0 4350 0 0 4317 0 0 4478 0 0 4302 0 0 4454 0 0 4396 0 0 4381 0 0 4346 0 0 4414 0 0 4398 0 0 4396 0 0 2152 0 0 42 0 0 6 0 0 7 0 0 6 0 0 2 0 0 2 0 0 1 0 0 1 0 0 1 0 0 
2 0 0 0 0 0 2 0 0 4 0 0 3 0 0 3 0 0 6 0 0 4 0 0 7 0 0 37 0 0 2212 0 0 4288 0 0 4429 0 0 4375 0 0 4378 0 0 4203 0 0 4348 0 0 4441 0 0 4341 0 0 4366 0 0 4290 0 0 4430 0 0 4417 0 0 4400 0 0 4414 0 0 4364 0 0 4344 0 0 4369 0 0 4397 0 0 4400 0 0 4340 0 0 4391 0 0 4381 0 0 4412 0 0 4387 0 0 4381 0 0 4328 0 0 4285 0 0 4248 0 0 4394 0 0 4401 0 0 4363 0 0 4337 0 0 4297 0 0 4472 0 0 4380 0 0 4340 0 0 4324 0 0 4334 0 0 4392 0 0 2176 0 0 48 0 0 11 0 0 7 0 0 5 0 0 3 0 0 3 0 0 5 0 0 7 0 0 1 0 0 
2 0 0 3 0 0 0 0 0 2 0 0 5 0 0 0 0 0 4 0 0 8 0 0 12 0 0 39 0 0 2232 0 0 4347 0 0 4372 0 0 4192 0 0 4361 0 0 4369 0 0 4332 0 0 4356 0 0 4439 0 0 4302 0 0 4375 0 0 4402 0 0 4288 0 0 4349 0 0 4399 0 0 4388 0 0 4417 0 0 4382 0 0 4416 0 0 4334 0 0 4491 0 0 4265 0 0 4410 0 0 4308 0 0 4359 0 0 4325 0 0 4335 0 0 4442 0 0 4347 0 0 4458 0 0 4284 0 0 4308 0 0 4337 0 0 4330 0 0 4288 0 0 4302 0 0 4347 0 0 4356 0 0 4462 0 0 4283 0 0 2208 0 0 29 0 0 8 0 0 5 0 0 2 0 0 5 0 0 6 0 0 5 0 0 1 0 0 2 0 0 
0 0 0 2 0 0 5 0 0 1 0 0 1 0 0 5 0 0 4 0 0 3 0 0 5 0 0 27 0 0 2157 0 0 4266 0 0 4250 0 0 4359 0 0 4391 0 0 4342 0 0 4335 0 0 4377 0 0 4416 0 0 4440 0 0 4388 0 0 4381 0 0 4321 0 0 4335 0 0 4349 0 0 4310 0 0 4433 0 0 4372 0 0 4502 0 0 4300 0 0 4383 0 0 4364 0 0 4407 0 0 4411 0 0 4411 0 0 4300 0 0 4441 0 0 4460 0 0 4364 0 0 4433 0 0 4338 0 0 4418 0 0 4346 0 0 4326 0 0 4309 0 0 4369 0 0 4320 0 0 4405 0 0 4483 0 0 4325 0 0 2205 0 0 44 0 0 5 0 0 4 0 0 5 0 0 7 0 0 5 0 0 3 0 0 6 0 0 4 0 0 
1 0 0 3 0 0 3 0 0 3 0 0 1 0 0 3 0 0 5 0 0 13 0 0 12 0 0 43 0 0 2207 0 0 4396 0 0 4266 0 0 4392 0 0 4357 0 0 4366 0 0 4366 0 0 4237 0 0 4404 0 0 4444 0 0 4425 0 0 4434 0 0 4420 0 0 4505 0 0 4416 0 0 4366 0 0 4454 0 0 4337 0 0 4370 0 0 4419 0 0 4375 0 0 4340 0 0 4338 0 0 4393 0 0 4424 0 0 4448 0 0 4326 0 0 4336 0 0 4312 0 0 4372 0 0 4342 0 0 4386 0 0 4345 0 0 4278 0 0 4419 0 0 4365 0 0 4281 0 0 4286 0 0 4335 0 0 4282 0 0 2198 0 0 37 0 0 13 0 0 11 0 0 7 0 0 5 0 0 6 0 0 5 0 0 2 0 0 3 0 0 
0 0 0 4 0 0 3 0 0 4 0 0 3 0 0 4 0 0 8 0 0 6 0 0 6 0 0 40 0 0 2142 0 0 4313 0 0 4487 0 0 4323 0 0 4310 0 0 4479 0 0 4450 0 0 4266 0 0 4482 0 0 4274 0 0 4470 0 0 4328 0 0 4287 0 0 4408 0 0 4389 0 0 4349 0 0 4383 0 0 4454 0 0 4473 0 0 4392 0 0 4408 0 0 4321 0 0 4372 0 0 4377 0 0 4382 0 0 4300 0 0 4446 0 0 4386 0 0 4347 0 0 4476 0 0 4473 0 0 4363 0 0 4355 0 0 4386 0 0 4401 0 0 4335 0 0 4432 0 0 4349 0 0 4385 0 0 4274 0 0 2121 0 0 41 0 0 13 0 0 8 0 0 6 0 0 6 0 0 3 0 0 2 0 0 2 0 0 3 0 0 
1 0 0 3 0 0 5 0 0 3 0 0 2 0 0 6 0 0 2 0 0 5 0 0 1 0 0 34 0 0 2237 0 0 4350 0 0 4262 0 0 4484 0 0 4363 0 0 4347 0 0 4313 0 0 4325 0 0 4351 0 0 4397 0 0 4304 0 0 4467 0 0 4350 0 0 4433 0 0 4443 0 0 4391 0 0 4441 0 0 4372 0 0 4392 0 0 4480 0 0 4360 0 0 4428 0 0 4410 0 0 4393 0 0 4340 0 0 4501 0 0 4325 0 0 4319 0 0 4286 0 0 4389 0 0 4434 0 0 4424 0 0 4270 0 0 4410 0 0 4357 0 0 4356 0 0 4442 0 0 4444 0 0 4386 0 0 4445 0 0 2262 0 0 45 0 0 12 0 0 4 0 0 5 0 0 4 0 0 5 0 0 1 0 0 4 0 0 3 0 0 
1 0 0 2 0 0 2 0 0 3 0 0 4 0 0 2 0 0 2 0 0 6 0 0 7 0 0 42 0 0 2273 0 0 4381 0 0 4358 0 0 4297 0 0 4423 0 0 4344 0 0 4396 0 0 4297 0 0 4475 0 0 4398 0 0 4337 0 0 4319 0 0 4396 0 0 4378 0 0 4325 0 0 4344 0 0 4321 0 0 4347 0 0 4431 0 0 4439 0 0 4395 0 0 4362 0 0 4449 0 0 4302 0 0 4324 0 0 4456 0 0 4373 0 0 4384 0 0 4461 0 0 4446 0 0 4320 0 0 4420 0 0 4342 0 0 4403 0 0 4309 0 0 4320 0 0 4385 0 0 4386 0 0 4223 0 0 4277 0 0 2141 0 0 39 0 0 6 0 0 1 0 0 4 0 0 4 0 0 3 0 0 2 0 0 4 0 0 5 0 0 
0 0 0 1 0 0 2 0 0 2 0 0 1 0 0 2 0 0 7 0 0 7 0 0 5 0 0 33 0 0 2212 0 0 4341 0 0 4473 0 0 4426 0 0 4340 0 0 4379 0 0 4336 0 0 4417 0 0 4446 0 0 4389 0 0 4424 0 0 4414 0 0 4505 0 0 4374 0 0 4364 0 0 4568 0 0 4376 0 0 4372 0 0 4350 0 0 4380 0 0 4388 0 0 4351 0 0 4490 0 0 4362 0 0 4447 0 0 4386 0 0 4333 0 0 4264 0 0 4377 0 0 4340 0 0 4440 0 0 4399 0 0 4318 0 0 4278 0 0 4439 0 0 4307 0 0 4397 0 0 4410 0 0 4413 0 0 4413 0 0 2257 0 0 41 0 0 3 0 0 7 0 0 4 0 0 0 0 0 0 0 0 4 0 0 4 0 0 2 0 0 
0 0 0 1 0 0 0 0 0 1 0 0 4 0 0 6 0 0 1 0 0 3 0 0 5 0 0 42 0 0 2168 0 0 4336 0 0 4304 0 0 4322 0 0 4314 0 0 4331 0 0 4397 0 0 4350 0 0 4361 0 0 4391 0 0 4424 0 0 4310 0 0 4364 0 0 4313 0 0 4258 0 0 4357 0 0 4233 0 0 4399 0 0 4461 0 0 4283 0 0 4326 0 0 4414 0 0 4447 0 0 4322 0 0 4434 0 0 4366 0 0 4296 0 0 4435 0 0 4317 0 0 4332 0 0 4428 0 0 4425 0 0 4293 0 0 4288 0 0 4310 0 0 4385 0 0 4386 0 0 4432 0 0 4552 0 0 4392 0 0 2178 0 0 39 0 0 6 0 0 8 0 0 3 0 0 4 0 0 3 0 0 2 0 0 2 0 0 2 0 0 
0 0 0 2 0 0 1 0 0 4 0 0 2 0 0 2 0 0 4 0 0 5 0 0 11 0 0 47 0 0 2275 0 0 4336 0 0 4300 0 0 4300 0 0 4488 0 0 4396 0 0 4423 0 0 4373 0 0 4449 0 0 4510 0 0 4324 0 0 4379 0 0 4306 0 0 4338 0 0 4413 0 0 4334 0 0 4296 0 0 4323 0 0 4368 0 0 4393 0 0 4372 0 0 4414 0 0 4407 0 0 4373 0 0 4298 0 0 4349 0 0 4326 0 0 4402 0 0 4436 0 0 4467 0 0 4340 0 0 4347 0 0 4416 0 0 4311 0 0 4492 0 0 4497 0 0 4497 0 0 4321 0 0 4406 0 0 4347 0 0 2114 0 0 43 0 0 9 0 0 5 0 0 2 0 0 1 0 0 1 0 0 0 0 0 3 0 0 4 0 0 
0 0 0 3 0 0 5 0 0 5 0 0 2 0 0 5 0 0 6 0 0 7 0 0 9 0 0 39 0 0 2226 0 0 4308 0 0 4300 0 0 4381 0 0 4367 0 0 4419 0 0 4312 0 0 4353 0 0 4226 0 0 4398 0 0 4419 0 0 4326 0 0 4423 0 0 4495 0 0 4423 0 0 4251 0 0 4401 0 0 4442 0 0 4374 0 0 4345 0 0 4312 0 0 4394 0 0 4425 0 0 4306 0 0 4430 0 0 4375 0 0 4438 0 0 4371 0 0 4434 0 0 4355 0 0 4414 0 0 4410 0 0 4373 0 0 4299 0 0 4342 0 0 4470 0 0 4386 0 0 4495 0 0 4387 0 0 4390 0 0 2149 0 0 35 0 0 6 0 0 4 0 0 4 0 0 1 0 0 3 0 0 3 0 0 2 0 0 0 0 0 
0 0 0 3 0 0 2 0 0 0 0 0 2 0 0 2 0 0 7 0 0 5 0 0 10 0 0 50 0 0 2146 0 0 4320 0 0 4384 0 0 4487 0 0 4458 0 0 4348 0 0 4401 0 0 4353 0 0 4583 0 0 4433 0 0 4334 0 0 4358 0 0 4455 0 0 4345 0 0 4395 0 0 4245 0 0 4381 0 0 4391 0 0 4389 0 0 4304 0 0 4444 0 0 4450 0 0 4436 0 0 4349 0 0 4331 0 0 4272 0 0 4306 0 0 4282 0 0 4243 0 0 4239 0 0 4290 0 0 4424 0 0 4357 0 0 4357 0 0 4392 0 0 4362 0 0 4432 0 0 4284 0 0 4287 0 0 4385 0 0 2223 0 0 30 0 0 5 0 0 9 0 0 6 0 0 6 0 0 6 0 0 7 0 0 5 0 0 2 0 0 
1 0 0 3 0 0 3 0 0 1 0 0 4 0 0 1 0 0 2 0 0 8 0 0 4 0 0 36 0 0 2128 0 0 4388 0 0 4367 0 0 4378 0 0 4313 0 0 4369 0 0 4375 0 0 4279 0 0 4304 0 0 4353 0 0 4313 0 0 4343 0 0 4346 0 0 4413 0 0 4355 0 0 4378 0 0 4362 0 0 4385 0 0 4423 0 0 4390 0 0 4400 0 0 4232 0 0 4365 0 0 4475 0 0 4318 0 0 4445 0 0 4427 0 0 4401 0 0 4440 0 0 4349 0 0 4504 0 0 4328 0 0 4345 0 0 4451 0 0 4340 0 0 4386 0 0 4372 0 0 4410 0 0 4380 0 0 4300 0 0 2207 0 0 38 0 0 9 0 0 6 0 0 3 0 0 2 0 0 1 0 0 3 0 0 5 0 0 3 0 0 
2 0 0 4 0 0 4 0 0 0 0 0 0 0 0 2 0 0 3 0 0 2 0 0 4 0 0 32 0 0 2184 0 0 4306 0 0 4496 0 0 4349 0 0 4338 0 0 4421 0 0 4466 0 0 4363 0 0 4282 0 0 4300 0 0 4424 0 0 4313 0 0 4337 0 0 4312 0 0 4455 0 0 4487 0 0 4415 0 0 4455 0 0 4395 0 0 4530 0 0 4365 0 0 4228 0 0 4448 0 0 4327 0 0 4322 0 0 4316 0 0 4350 0 0 4406 0 0 4478 0 0 4443 0 0 4285 0 0 4359 0 0 4365 0 0 4339 0 0 4312 0 0 4265 0 0 4364 0 0 4384 0 0 4507 0 0 4313 0 0 2160 0 0 36 0 0 9 0 0 5 0 0 5 0 0 3 0 0 3 0 0 3 0 0 3 0 0 5 0 0 
1 0 0 2 0 0 0 0 0 2 0 0 3 0 0 4 0 0 3 0 0 6 0 0 11 0 0 46 0 0 2186 0 0 4353 0 0 4374 0 0 4325 0 0 4321 0 0 4285 0 0 4269 0 0 4387 0 0 4353 0 0 4378 0 0 4386 0 0 4421 0 0 4487 0 0 4259 0 0 4424 0 0 4281 0 0 4388 0 0 4443 0 0 4332 0 0 4259 0 0 4364 0 0 4388 0 0 4359 0 0 4358 0 0 4421 0 0 4327 0 0 4397 0 0 4269 0 0 4378 0 0 4414 0 0 4329 0 0 4375 0 0 4410 0 0 4360 0 0 4423 0 0 4430 0 0 4330 0 0 4280 0 0 4247 0 0 4405 0 0 2209 0 0 34 0 0 10 0 0 10 0 0 6 0 0 4 0 0 4 0 0 1 0 0 1 0 0 1 0 0 
0 0 0 1 0 0 4 0 0 4 0 0 5 0 0 3 0 0 7 0 0 2 0 0 7 0 0 28 0 0 2200 0 0 4357 0 0 4366 0 0 4321 0 0 4332 0 0 4379 0 0 4436 0 0 4386 0 0 4332 0 0 4348 0 0 4497 0 0 4439 0 0 4431 0 0 4413 0 0 4421 0 0 4390 0 0 4428 0 0 4490 0 0 4316 0 0 4283 0 0 4358 0 0 4351 0 0 4329 0 0 4385 0 0 4295 0 0 4457 0 0 4442 0 0 4436 0 0 4475 0 0 4420 0 0 4326 0 0 4444 0 0 4451 0 0 4426 0 0 4367 0 0 4351 0 0 4366 0 0 4360 0 0 4378 0 0 4416 0 0 2175 0 0 41 0 0 8 0 0 7 0 0 3 0 0 0 0 0 3 0 0 1 0 0 0 0 0 1 0 0 
2 0 0 5 0 0 3 0 0 6 0 0 2 0 0 4 0 0 7 0 0 3 0 0 9 0 0 41 0 0 2148 0 0 4378 0 0 4498 0 0 4395 0 0 4416 0 0 4426 0 0 4318 0 0 4450 0 0 4318 0 0 4340 0 0 4434 0 0 4289 0 0 4443 0 0 4463 0 0 4338 0 0 4417 0 0 4241 0 0 4496 0 0 4320 0 0 4391 0 0 4419 0 0 4261 0 0 4405 0 0 4298 0 0 4279 0 0 4439 0 0 4408 0 0 4373 0 0 4394 0 0 4324 0 0 4399 0 0 4368 0 0 4393 0 0 4431 0 0 4359 0 0 4454 0 0 4324 0 0 4418 0 0 4405 0 0 4313 0 0 2175 0 0 32 0 0 10 0 0 8 0 0 3 0 0 5 0 0 3 0 0 4 0 0 2 0 0 0 0 0 
0 0 0 1 0 0 3 0 0 2 0 0 2 0 0 0 0 0 3 0 0 3 0 0 5 0 0 42 0 0 2216 0 0 4397 0 0 4398 0 0 4371 0 0 4402 0 0 4354 0 0 4394 0 0 4346 0 0 4314 0 0 4306 0 0 4379 0 0 4362 0 0 4364 0 0 4399 0 0 4329 0 0 4324 0 0 4296 0 0 4427 0 0 4522 0 0 4335 0 0 4374 0 0 4451 0 0 4347 0 0 4303 0 0 4303 0 0 4366 0 0 4257 0 0 4433 0 0 4307 0 0 4415 0 0 4348 0 0 4452 0 0 4456 0 0 4407 0 0 4376 0 0 4356 0 0 4292 0 0 4335 0 0 4337 0 0 4306 0 0 2263 0 0 37 0 0 3 0 0 4 0 0 5 0 0 2 0 0 2 0 0 0 0 0 2 0 0 0 0 0 
2 0 0 3 0 0 1 0 0 0 0 0 0 0 0 1 0 0 7 0 0 6 0 0 5 0 0 40 0 0 2207 0 0 4350 0 0 4354 0 0 4379 0 0 4337 0 0 4477 0 0 4352 0 0 4317 0 0 4374 0 0 4387 0 0 4257 0 0 4282 0 0 4343 0 0 4388 0 0 4418 0 0 4482 0 0 4390 0 0 4289 0 0 4356 0 0 4445 0 0 4389 0 0 4327 0 0 4363 0 0 4357 0 0 4366 0 0 4370 0 0 4389 0 0 4372 0 0 4413 0 0 4390 0 0 4420 0 0 4389 0 0 4309 0 0 4385 0 0 4406 0 0 4470 0 0 4474 0 0 4285 0 0 4375 0 0 4423 0 0 2187 0 0 37 0 0 5 0 0 7 0 0 5 0 0 6 0 0 1 0 0 2 0 0 1 0 0 0 0 0 
0 0 0 0 0 0 0 0 0 1 0 0 1 0 0 6 0 0 7 0 0 2 0 0 5 0 0 31 0 0 2167 0 0 4333 0 0 4322 0 0 4397 0 0 4389 0 0 4217 0 0 4375 0 0 4462 0 0 4421 0 0 4426 0 0 4344 0 0 4297 0 0 4427 0 0 4355 0 0 4409 0 0 4320 0 0 4437 0 0 4385 0 0 4472 0 0 4366 0 0 4326 0 0 4446 0 0 4346 0 0 4313 0 0 4411 0 0 4431 0 0 4443 0 0 4376 0 0 4327 0 0 4357 0 0 4365 0 0 4496 0 0 4401 0 0 4489 0 0 4399 0 0 4320 0 0 4472 0 0 4382 0 0 4457 0 0 4391 0 0 2162 0 0 25 0 0 5 0 0 1 0 0 0 0 0 3 0 0 2 0 0 0 0 0 0 0 0 0 0 0 
0 0 0 2 0 0 2 0 0 1 0 0 0 0 0 1 0 0 1 0 0 6 0 0 4 0 0 37 0 0 2185 0 0 4358 0 0 4399 0 0 4407 0 0 4400 0 0 4330 0 0 4428 0 0 4348 0 0 4385 0 0 4316 0 0 4367 0 0 4307 0 0 4387 0 0 4298 0 0 4363 0 0 4426 0 0 4443 0 0 4398 0 0 4297 0 0 4427 0 0 4413 0 0 4325 0 0 4350 0 0 4305 0 0 4395 0 0 4368 0 0 4285 0 0 4343 0 0 4232 0 0 4328 0 0 4393 0 0 4348 0 0 4344 0 0 4346 0 0 4380 0 0 4310 0 0 4283 0 0 4361 0 0 4275 0 0 4289 0 0 2191 0 0 41 0 0 4 0 0 2 0 0 1 0 0 1 0 0 3 0 0 2 0 0 2 0 0 1 0 0 
0 0 0 1 0 0 4 0 0 1 0 0 0 0 0 0 0 0 0 0 0 4 0 0 5 0 0 34 0 0 2250 0 0 4274 0 0 4407 0 0 4328 0 0 4358 0 0 4436 0 0 4281 0 0 4326 0 0 4347 0 0 4287 0 0 4286 0 0 4454 0 0 4385 0 0 4386 0 0 4350 0 0 4322 0 0 4195 0 0 4433 0 0 4325 0 0 4406 0 0 4463 0 0 4371 0 0 4413 0 0 4338 0 0 4387 0 0 4478 0 0 4290 0 0 4337 0 0 4440 0 0 4323 0 0 4317 0 0 4395 0 0 4422 0 0 4307 0 0 4367 0 0 4380 0 0 4395 0 0 4359 0 0 4341 0 0 4411 0 0 2195 0 0 33 0 0 9 0 0 1 0 0 1 0 0 2 0 0 0 0 0 0 0 0 0 0 0 0 0 0 
0 0 0 0 0 0 0 0 0 0 0 0 1 0 0 1 0 0 4 0 0 4 0 0 3 0 0 35 0 0 2250 0 0 4313 0 0 4334 0 0 4314 0 0 4279 0 0 4429 0 0 4321 0 0 4468 0 0 4357 0 0 4474 0 0 4412 0 0 4241 0 0 4369 0 0 4257 0 0 4335 0 0 4334 0 0 4375 0 0 4278 0 0 4403 0 0 4374 0 0 4424 0 0 4314 0 0 4425 0 0 4412 0 0 4354 0 0 4320 0 0 4360 0 0 4327 0 0 4374 0 0 4403 0 0 4467 0 0 4434 0 0 4309 0 0 4328 0 0 4351 0 0 4447 0 0 4384 0 0 4387 0 0 4267 0 0 4445 0 0 2161 0 0 43 0 0 6 0 0 5 0 0 5 0 0 3 0 0 3 0 0 2 0 0 2 0 0 0 0 0 
0 0 0 0 0 0 2 0 0 2 0 0 0 0 0 1 0 0 2 0 0 3 0 0 3 0 0 33 0 0 2231 0 0 4311 0 0 4277 0 0 4299 0 0 4270 0 0 4319 0 0 4323 0 0 4330 0 0 4341 0 0 4308 0 0 4324 0 0 4244 0 0 4313 0 0 4323 0 0 4373 0 0 4323 0 0 4326 0 0 4309 0 0 4374 0 0 4199 0 0 4251 0 0 4389 0 0 4296 0 0 4384 0 0 4339 0 0 4348 0 0 4419 0 0 4440 0 0 4485 0 0 4385 0 0 4299 0 0 4350 0 0 4404 0 0 4307 0 0 4424 0 0 4266 0 0 4342 0 0 4441 0 0 4343 0 0 4265 0 0 2204 0 0 37 0 0 2 0 0 4 0 0 3 0 0 5 0 0 1 0 0 0 0 0 3 0 0 2 0 0 
0 0 0 2 0 0 0 0 0 1 0 0 0 0 0 0 0 0 2 0 0 5 0 0 5 0 0 21 0 0 1062 0 0 2124 0 0 2166 0 0 2207 0 0 2133 0 0 2220 0 0 2147 0 0 2260 0 0 2159 0 0 2187 0 0 2104 0 0 2201 0 0 2155 0 0 2209 0 0 2162 0 0 2194 0 0 2124 0 0 2147 0 0 2209 0 0 2234 0 0 2211 0 0 2200 0 0 2226 0 0 2191 0 0 2209 0 0 2178 0 0 2104 0 0 2175 0 0 2176 0 0 2178 0 0 2191 0 0 2201 0 0 2106 0 0 2178 0 0 2159 0 0 2129 0 0 2180 0 0 2226 0 0 2218 0 0 2164 0 0 1124 0 0 18 0 0 4 0 0 3 0 0 4 0 0 6 0 0 2 0 0 0 0 0 0 0 0 0 0 0 
0 0 0 0 0 0 0 0 0 0 0 0 2 0 0 3 0 0 8 0 0 5 0 0 2 0 0 3 0 0 18 0 0 33 0 0 31 0 0 31 0 0 36 0 0 39 0 0 38 0 0 27 0 0 37 0 0 38 0 0 49 0 0 40 0 0 41 0 0 29 0 0 36 0 0 32 0 0 36 0 0 37 0 0 36 0 0 37 0 0 37 0 0 34 0 0 39 0 0 42 0 0 41 0 0 38 0 0 43 0 0 39 0 0 39 0 0 32 0 0 38 0 0 41 0 0 33 0 0 28 0 0 34 0 0 32 0 0 44 0 0 31 0 0 24 0 0 45 0 0 23 0 0 6 0 0 7 0 0 2 0 0 4 0 0 2 0 0 1 0 0 0 0 0 0 0 0 1 0 0 
0 0 0 2 0 0 1 0 0 2 0 0 2 0 0 4 0 0 1 0 0 0 0 0 2 0 0 4 0 0 6 0 0 2 0 0 4 0 0 5 0 0 6 0 0 5 0 0 10 0 0 8 0 0 4 0 0 3 0 0 3 0 0 8 0 0 6 0 0 3 0 0 6 0 0 11 0 0 4 0 0 8 0 0 8 0 0 6 0 0 4 0 0 5 0 0 15 0 0 10 0 0 7 0 0 3 0 0 10 0 0 8 0 0 6 0 0 5 0 0 8 0 0 8 0 0 7 0 0 10 0 0 6 0 0 3 0 0 7 0 0 3 0 0 1 0 0 3 0 0 3 0 0 2 0 0 1 0 0 4 0 0 4 0 0 1 0 0 0 0 0 0 0 0 1 0 0 0 0 0 
0 0 0 0 0 0 0 0 0 1 0 0 0 0 0 1 0 0 2 0 0 0 0 0 1 0 0 4 0 0 0 0 0 3 0 0 4 0 0 7 0 0 1 0 0 2 0 0 1 0 0 3 0 0 6 0 0 4 0 0 4 0 0 5 0 0 7 0 0 4 0 0 4 0 0 5 0 0 9 0 0 6 0 0 7 0 0 8 0 0 1 0 0 6 0 0 8 0 0 4 0 0 9 0 0 6 0 0 5 0 0 5 0 0 6 0 0 0 0 0 7 0 0 5 0 0 6 0 0 6 0 0 2 0 0 3 0 0 5 0 0 5 0 0 2 0 0 3 0 0 4 0 0 4 0 0 1 0 0 2 0 0 0 0 0 3 0 0 0 0 0 1 0 0 0 0 0 0 0 0 
0 0 0 5 0 0 0 0 0 0 0 0 0 0 0 1 0 0 0 0 0 1 0 0 2 0 0 0 0 0 0 0 0 1 0 0 3 0 0 0 0 0 2 0 0 4 0 0 6 0 0 4 0 0 2 0 0 4 0 0 2 0 0 1 0 0 6 0 0 8 0 0 5 0 0 5 0 0 6 0 0 5 0 0 5 0 0 2 0 0 2 0 0 4 0 0 4 0 0 6 0 0 9 0 0 0 0 0 4 0 0 6 0 0 4 0 0 5 0 0 6 0 0 4 0 0 4 0 0 4 0 0 2 0 0 2 0 0 2 0 0 4 0 0 1 0 0 3 0 0 4 0 0 3 0 0 2 0 0 1 0 0 3 0 0 0 0 0 0 0 0 0 0 0 1 0 0 0 0 0 
0 0 0 0 0 0 0 0 0 1 0 0 0 0 0 2 0 0 0 0 0 0 0 0 1 0 0 0 0 0 0 0 0 2 0 0 3 0 0 1 0 0 1 0 0 3 0 0 1 0 0 4 0 0 3 0 0 2 0 0 2 0 0 3 0 0 4 0 0 4 0 0 7 0 0 0 0 0 4 0 0 5 0 0 1 0 0 3 0 0 1 0 0 5 0 0 4 0 0 7 0 0 2 0 0 4 0 0 1 0 0 1 0 0 2 0 0 2 0 0 2 0 0 3 0 0 0 0 0 1 0 0 3 0 0 0 0 0 3 0 0 6 0 0 2 0 0 0 0 0 3 0 0 2 0 0 1 0 0 3 0 0 3 0 0 1 0 0 0 0 0 0 0 0 1 0 0 0 0 0 
0 0 0 1 0 0 2 0 0 1 0 0 2 0 0 1 0 0 0 0 0 0 0 0 0 0 0 1 0 0 1 0 0 1 0 0 4 0 0 1 0 0 4 0 0 0 0 0 0 0 0 4 0 0 0 0 0 1 0 0 1 0 0 3 0 0 1 0 0 1 0 0 1 0 0 0 0 0 4 0 0 6 0 0 2 0 0 0 0 0 1 0 0 5 0 0 4 0 0 1 0 0 2 0 0 4 0 0 1 0 0 2 0 0 2 0 0 5 0 0 5 0 0 3 0 0 4 0 0 0 0 0 0 0 0 1 0 0 2 0 0 4 0 0 3 0 0 2 0 0 0 0 0 3 0 0 1 0 0 2 0 0 1 0 0 4 0 0 1 0 0 4 0 0 1 0 0 1 0 0 
1 0 0 3 0 0 0 0 0 3 0 0 1 0 0 1 0 0 1 0 0 2 0 0 1 0 0 3 0 0 3 0 0 4 0 0 8 0 0 2 0 0 0 0 0 0 0 0 1 0 0 3 0 0 2 0 0 1 0 0 3 0 0 2 0 0 0 0 0 1 0 0 1 0 0 2 0 0 1 0 0 1 0 0 5 0 0 1 0 0 1 0 0 3 0 0 7 0 0 3 0 0 0 0 0 1 0 0 3 0 0 1 0 0 1 0 0 6 0 0 0 0 0 2 0 0 5 0 0 1 0 0 0 0 0 3 0 0 4 0 0 3 0 0 3 0 0 3 0 0 0 0 0 2 0 0 0 0 0 0 0 0 2 0 0 2 0 0 1 0 0 0 0 0 1 0 0 1 0 0 
0 0 0 0 0 0 3 0 0 3 0 0 0 0 0 1 0 0 0 0 0 1 0 0 2 0 0 4 0 0 2 0 0 4 0 0 1 0 0 2 0 0 0 0 0 0 0 0 1 0 0 0 0 0 4 0 0 0 0 0 3 0 0 2 0 0 0 0 0 4 0 0 2 0 0 3 0 0 1 0 0 1 0 0 3 0 0 4 0 0 2 0 0 1 0 0 4 0 0 3 0 0 3 0 0 2 0 0 0 0 0 2 0 0 4 0 0 4 0 0 2 0 0 1 0 0 4 0 0 3 0 0 0 0 0 0 0 0 2 0 0 2 0 0 3 0 0 0 0 0 1 0 0 0 0 0 1 0 0 1 0 0 0 0 0 1 0 0 0 0 0 1 0 0 0 0 0 0 0 0 
0 0 0 1 0 0 2 0 0 1 0 0 1 0 0 1 0 0 0 0 0 1 0 0 2 0 0 2 0 0 1 0 0 0 0 0 0 0 0 0 0 0 2 0 0 3 0 0 2 0 0 2 0 0 2 0 0 1 0 0 4 0 0 1 0 0 2 0 0 1 0 0 0 0 0 1 0 0 2 0 0 3 0 0 0 0 0 2 0 0 1 0 0 3 0 0 2 0 0 2 0 0 1 0 0 2 0 0 0 0 0 1 0 0 2 0 0 5 0 0 1 0 0 5 0 0 2 0 0 0 0 0 1 0 0 0 0 0 1 0 0 0 0 0 1 0 0 0 0 0 4 0 0 1 0 0 2 0 0 1 0 0 0 0 0 1 0 0 1 0 0 0 0 0 0 0 0 0 0 0 
