P3
# This is a dose file slice at depth 63 of 100
60 60
# now we give the maximum value of the RGB coordinates.
34334
0 0 0 0 0 0 0 0 0 0 0 0 0 0 0 0 0 0 0 0 0 0 0 0 0 0 0 0 0 0 0 0 0 0 0 0 0 0 0 0 0 0 0 0 0 0 0 0 0 0 0 0 0 0 0 0 0 0 0 0 0 0 0 0 0 0 0 0 0 0 0 0 0 0 0 0 0 0 0 0 0 0 0 0 0 0 0 0 0 0 0 0 0 0 0 0 0 0 0 0 0 0 0 0 0 0 0 0 0 0 0 0 0 0 0 0 0 0 0 0 0 0 0 0 0 0 0 0 0 0 0 0 0 0 0 0 0 0 0 0 0 0 0 0 0 0 0 0 0 0 0 0 0 0 0 0 0 0 0 0 0 0 0 0 0 0 0 0 0 0 0 0 0 0 0 0 0 0 0 0 
0 0 0 0 0 0 0 0 0 0 0 0 0 0 0 0 0 0 0 0 0 0 0 0 0 0 0 0 0 0 0 0 0 0 0 0 0 0 0 0 0 0 0 0 0 0 0 0 0 0 0 0 0 0 0 0 0 0 0 0 0 0 0 0 0 0 0 0 0 0 0 0 0 0 0 0 0 0 0 0 0 0 0 0 0 0 0 0 0 0 0 0 0 0 0 0 0 0 0 0 0 0 0 0 0 0 0 0 0 0 0 0 0 0 0 0 0 0 0 0 0 0 0 0 0 0 0 0 0 0 0 0 0 0 0 0 0 0 0 0 0 0 0 0 0 0 0 0 0 0 0 0 0 0 0 0 0 0 0 0 0 0 0 0 0 0 0 0 0 0 0 0 0 0 0 0 0 0 0 0 
0 0 0 0 0 0 0 0 0 0 0 0 0 0 0 0 0 0 0 0 0 0 0 0 0 0 0 0 0 0 0 0 0 0 0 0 0 0 0 0 0 0 0 0 0 0 0 0 0 0 0 0 0 0 0 0 0 0 0 0 0 0 0 0 0 0 0 0 0 0 0 0 0 0 0 0 0 0 0 0 0 0 0 0 0 0 0 0 0 0 0 0 0 0 0 0 0 0 0 0 0 0 0 0 0 0 0 0 0 0 0 0 0 0 0 0 0 0 0 0 0 0 0 0 0 0 0 0 0 0 0 0 0 0 0 0 0 0 0 0 0 0 0 0 0 0 0 0 0 0 0 0 0 0 0 0 0 0 0 0 0 0 0 0 0 0 0 0 0 0 0 0 0 0 0 0 0 0 0 0 
0 0 0 0 0 0 0 0 0 0 0 0 0 0 0 0 0 0 0 0 0 0 0 0 0 0 0 0 0 0 0 0 0 0 0 0 0 0 0 0 0 0 0 0 0 0 0 0 0 0 0 0 0 0 0 0 0 0 0 0 0 0 0 0 0 0 0 0 0 0 0 0 0 0 0 0 0 0 0 0 0 0 0 0 0 0 0 0 0 0 0 0 0 0 0 0 0 0 0 0 0 0 0 0 0 0 0 0 0 0 0 0 0 0 0 0 0 0 0 0 0 0 0 0 0 0 0 0 0 0 0 0 0 0 0 0 0 0 0 0 0 0 0 0 0 0 0 0 0 0 0 0 0 0 0 0 0 0 0 0 0 0 0 0 0 0 0 0 0 0 0 0 0 0 0 0 0 0 0 0 
0 0 0 0 0 0 0 0 0 0 0 0 0 0 0 0 0 0 0 0 0 0 0 0 0 0 0 0 0 0 0 0 0 0 0 0 0 0 0 0 0 0 0 0 0 0 0 0 0 0 0 0 0 0 0 0 0 0 0 0 0 0 0 0 0 0 0 0 0 0 0 0 0 0 0 0 0 0 0 0 0 0 0 0 0 0 0 0 0 0 0 0 0 0 0 0 0 0 0 0 0 0 0 0 0 0 0 0 0 0 0 0 0 0 0 0 0 0 0 0 0 0 0 0 0 0 0 0 0 0 0 0 0 0 0 0 0 0 0 0 0 0 0 0 0 0 0 0 0 0 0 0 0 0 0 0 0 0 0 0 0 0 0 0 0 0 0 0 0 0 0 0 0 0 0 0 0 0 0 0 
0 0 0 0 0 0 0 0 0 0 0 0 0 0 0 0 0 0 0 0 0 0 0 0 0 0 0 0 0 0 0 0 0 0 0 0 0 0 0 0 0 0 0 0 0 0 0 0 0 0 0 0 0 0 0 0 0 0 0 0 0 0 0 0 0 0 0 0 0 0 0 0 0 0 0 0 0 0 0 0 0 0 0 0 0 0 0 0 0 0 0 0 0 0 0 0 0 0 0 0 0 0 0 0 0 0 0 0 0 0 0 0 0 0 0 0 0 0 0 0 0 0 0 0 0 0 0 0 0 0 0 0 0 0 0 0 0 0 0 0 0 0 0 0 0 0 0 0 0 0 0 0 0 0 0 0 0 0 0 0 0 0 0 0 0 0 0 0 0 0 0 0 0 0 0 0 0 0 0 0 
0 0 0 0 0 0 0 0 0 0 0 0 0 0 0 0 0 0 0 0 0 0 0 0 0 0 0 0 0 0 0 0 0 0 0 0 0 0 0 0 0 0 0 0 0 0 0 0 0 0 0 0 0 0 0 0 0 0 0 0 0 0 0 0 0 0 0 0 0 0 0 0 0 0 0 0 0 0 0 0 0 0 0 0 0 0 0 0 0 0 0 0 0 0 0 0 0 0 0 0 0 0 0 0 0 0 0 0 0 0 0 0 0 0 0 0 0 0 0 0 0 0 0 0 0 0 0 0 0 0 0 0 0 0 0 0 0 0 0 0 0 0 0 0 0 0 0 0 0 0 0 0 0 0 0 0 0 0 0 0 0 0 0 0 0 0 0 0 0 0 0 0 0 0 0 0 0 0 0 0 
0 0 0 0 0 0 0 0 0 0 0 0 0 0 0 0 0 0 0 0 0 0 0 0 0 0 0 0 0 0 0 0 0 0 0 0 0 0 0 0 0 0 0 0 0 0 0 0 0 0 0 0 0 0 0 0 0 0 0 0 0 0 0 0 0 0 0 0 0 0 0 0 0 0 0 0 0 0 0 0 0 0 0 0 0 0 0 0 0 0 0 0 0 0 0 0 0 0 0 0 0 0 0 0 0 0 0 0 0 0 0 0 0 0 0 0 0 0 0 0 0 0 0 0 0 0 0 0 0 0 0 0 0 0 0 0 0 0 0 0 0 0 0 0 0 0 0 0 0 0 0 0 0 0 0 0 0 0 0 0 0 0 0 0 0 0 0 0 0 0 0 0 0 0 0 0 0 0 0 0 
0 0 0 0 0 0 0 0 0 0 0 0 0 0 0 0 0 0 0 0 0 0 0 0 0 0 0 0 0 0 0 0 0 0 0 0 0 0 0 0 0 0 0 0 0 0 0 0 0 0 0 0 0 0 0 0 0 0 0 0 0 0 0 0 0 0 0 0 0 0 0 0 0 0 0 0 0 0 0 0 0 0 0 0 0 0 0 0 0 0 0 0 0 0 0 0 0 0 0 0 0 0 0 0 0 0 0 0 0 0 0 0 0 0 0 0 0 0 0 0 0 0 0 0 0 0 0 0 0 0 0 0 0 0 0 0 0 0 0 0 0 0 0 0 0 0 0 0 0 0 0 0 0 0 0 0 0 0 0 0 0 0 0 0 0 0 0 0 0 0 0 0 0 0 0 0 0 0 0 0 
0 0 0 0 0 0 0 0 0 0 0 0 0 0 0 0 0 0 0 0 0 0 0 0 0 0 0 0 0 0 0 0 0 0 0 0 0 0 0 0 0 0 0 0 0 0 0 0 0 0 0 0 0 0 0 0 0 0 0 0 0 0 0 0 0 0 0 0 0 0 0 0 0 0 0 0 0 0 0 0 0 0 0 0 0 0 0 0 0 0 0 0 0 0 0 0 0 0 0 0 0 0 0 0 0 0 0 0 0 0 0 0 0 0 0 0 0 0 0 0 0 0 0 0 0 0 0 0 0 0 0 0 0 0 0 0 0 0 0 0 0 0 0 0 0 0 0 0 0 0 0 0 0 0 0 0 0 0 0 0 0 0 0 0 0 0 0 0 0 0 0 0 0 0 0 0 0 0 0 0 
0 0 0 0 0 0 0 0 0 0 0 0 0 0 0 0 0 0 0 0 0 0 0 0 0 0 0 0 0 0 1366 0 0 2775 0 0 2763 0 0 2752 0 0 2737 0 0 2772 0 0 2693 0 0 2772 0 0 2685 0 0 2874 0 0 2816 0 0 2761 0 0 2733 0 0 2682 0 0 2763 0 0 2743 0 0 2627 0 0 2713 0 0 2803 0 0 2769 0 0 2721 0 0 2622 0 0 2730 0 0 2868 0 0 2794 0 0 2739 0 0 2716 0 0 2795 0 0 2718 0 0 2765 0 0 2764 0 0 2808 0 0 2723 0 0 2848 0 0 2741 0 0 2747 0 0 2834 0 0 2686 0 0 2826 0 0 2769 0 0 1345 0 0 0 0 0 0 0 0 0 0 0 0 0 0 0 0 0 0 0 0 0 0 0 0 0 0 0 0 0 
0 0 0 0 0 0 0 0 0 0 0 0 0 0 0 0 0 0 0 0 0 0 0 0 0 0 0 0 0 0 2754 0 0 5456 0 0 5567 0 0 5504 0 0 5337 0 0 5549 0 0 5582 0 0 5517 0 0 5438 0 0 5638 0 0 5509 0 0 5439 0 0 5409 0 0 5402 0 0 5613 0 0 5662 0 0 5548 0 0 5495 0 0 5563 0 0 5457 0 0 5643 0 0 5452 0 0 5376 0 0 5649 0 0 5561 0 0 5441 0 0 5464 0 0 5574 0 0 5593 0 0 5490 0 0 5503 0 0 5479 0 0 5783 0 0 5479 0 0 5522 0 0 5543 0 0 5577 0 0 5645 0 0 5510 0 0 5532 0 0 2725 0 0 0 0 0 0 0 0 0 0 0 0 0 0 0 0 0 0 0 0 0 0 0 0 0 0 0 0 0 
0 0 0 0 0 0 0 0 0 0 0 0 0 0 0 0 0 0 0 0 0 0 0 0 0 0 0 0 0 0 2754 0 0 5578 0 0 5604 0 0 5478 0 0 5495 0 0 5492 0 0 5603 0 0 5509 0 0 5505 0 0 5553 0 0 5484 0 0 5487 0 0 5540 0 0 5453 0 0 5651 0 0 5455 0 0 5516 0 0 5600 0 0 5591 0 0 5558 0 0 5463 0 0 5482 0 0 5470 0 0 5436 0 0 5491 0 0 5570 0 0 5370 0 0 5415 0 0 5629 0 0 5537 0 0 5558 0 0 5539 0 0 5650 0 0 5440 0 0 5529 0 0 5520 0 0 5497 0 0 5622 0 0 5529 0 0 5601 0 0 2803 0 0 0 0 0 0 0 0 0 0 0 0 0 0 0 0 0 0 0 0 0 0 0 0 0 0 0 0 0 
0 0 0 0 0 0 0 0 0 0 0 0 0 0 0 0 0 0 0 0 0 0 0 0 0 0 0 0 0 0 2804 0 0 5531 0 0 5567 0 0 5432 0 0 5526 0 0 5545 0 0 5580 0 0 5484 0 0 5483 0 0 5611 0 0 5406 0 0 5420 0 0 5432 0 0 5418 0 0 5462 0 0 5569 0 0 5467 0 0 5479 0 0 5470 0 0 5413 0 0 5555 0 0 5373 0 0 5435 0 0 5402 0 0 5617 0 0 5553 0 0 5353 0 0 5637 0 0 5436 0 0 5666 0 0 5541 0 0 5591 0 0 5438 0 0 5619 0 0 5464 0 0 5579 0 0 5436 0 0 5554 0 0 5402 0 0 5462 0 0 2735 0 0 0 0 0 0 0 0 0 0 0 0 0 0 0 0 0 0 0 0 0 0 0 0 0 0 0 0 0 
0 0 0 0 0 0 0 0 0 0 0 0 0 0 0 0 0 0 0 0 0 0 0 0 0 0 0 0 0 0 2623 0 0 5450 0 0 5617 0 0 5356 0 0 5578 0 0 5422 0 0 5512 0 0 5421 0 0 5424 0 0 5612 0 0 5361 0 0 5546 0 0 5433 0 0 5504 0 0 5611 0 0 5368 0 0 5449 0 0 5506 0 0 5603 0 0 5479 0 0 5487 0 0 5470 0 0 5433 0 0 5473 0 0 5501 0 0 5520 0 0 5424 0 0 5498 0 0 5470 0 0 5578 0 0 5535 0 0 5545 0 0 5520 0 0 5385 0 0 5521 0 0 5533 0 0 5593 0 0 5560 0 0 5479 0 0 5423 0 0 2701 0 0 0 0 0 0 0 0 0 0 0 0 0 0 0 0 0 0 0 0 0 0 0 0 0 0 0 0 0 
0 0 0 0 0 0 0 0 0 0 0 0 0 0 0 0 0 0 0 0 0 0 0 0 0 0 0 0 0 0 2745 0 0 5432 0 0 5445 0 0 5499 0 0 5522 0 0 5505 0 0 5425 0 0 5509 0 0 5405 0 0 5351 0 0 5484 0 0 5344 0 0 5556 0 0 5503 0 0 5509 0 0 5729 0 0 5504 0 0 5491 0 0 5431 0 0 5679 0 0 5449 0 0 5527 0 0 5539 0 0 5557 0 0 5493 0 0 5462 0 0 5529 0 0 5661 0 0 5438 0 0 5459 0 0 5513 0 0 5439 0 0 5619 0 0 5547 0 0 5587 0 0 5473 0 0 5573 0 0 5431 0 0 5574 0 0 5482 0 0 2892 0 0 0 0 0 0 0 0 0 0 0 0 0 0 0 0 0 0 0 0 0 0 0 0 0 0 0 0 0 
0 0 0 0 0 0 0 0 0 0 0 0 0 0 0 0 0 0 0 0 0 0 0 0 0 0 0 0 0 0 2804 0 0 5513 0 0 5586 0 0 5457 0 0 5658 0 0 5532 0 0 5560 0 0 5461 0 0 5533 0 0 5338 0 0 5451 0 0 5461 0 0 5669 0 0 5479 0 0 5444 0 0 5477 0 0 5520 0 0 5604 0 0 5564 0 0 5607 0 0 5551 0 0 5491 0 0 5513 0 0 5500 0 0 5451 0 0 5636 0 0 5524 0 0 5637 0 0 5479 0 0 5558 0 0 5558 0 0 5477 0 0 5541 0 0 5465 0 0 5604 0 0 5377 0 0 5649 0 0 5512 0 0 5566 0 0 5490 0 0 2761 0 0 0 0 0 0 0 0 0 0 0 0 0 0 0 0 0 0 0 0 0 0 0 0 0 0 0 0 0 
0 0 0 0 0 0 0 0 0 0 0 0 0 0 0 0 0 0 0 0 0 0 0 0 0 0 0 0 0 0 2837 0 0 5504 0 0 5412 0 0 5605 0 0 5606 0 0 5605 0 0 5596 0 0 5486 0 0 5592 0 0 5459 0 0 5487 0 0 5512 0 0 5558 0 0 5433 0 0 5397 0 0 5468 0 0 5627 0 0 5492 0 0 5499 0 0 5604 0 0 5462 0 0 5542 0 0 5610 0 0 5522 0 0 5593 0 0 5630 0 0 5398 0 0 5503 0 0 5640 0 0 5512 0 0 5457 0 0 5447 0 0 5417 0 0 5466 0 0 5627 0 0 5572 0 0 5394 0 0 5447 0 0 5490 0 0 5611 0 0 2816 0 0 0 0 0 0 0 0 0 0 0 0 0 0 0 0 0 0 0 0 0 0 0 0 0 0 0 0 0 
0 0 0 0 0 0 0 0 0 0 0 0 0 0 0 0 0 0 0 0 0 0 0 0 0 0 0 0 0 0 2792 0 0 5477 0 0 5453 0 0 5518 0 0 5427 0 0 5560 0 0 5498 0 0 5501 0 0 5521 0 0 5472 0 0 5599 0 0 5507 0 0 5581 0 0 5457 0 0 5554 0 0 5512 0 0 5546 0 0 5624 0 0 5373 0 0 5592 0 0 5524 0 0 5435 0 0 5570 0 0 5577 0 0 5429 0 0 5574 0 0 5584 0 0 5586 0 0 5545 0 0 5541 0 0 5439 0 0 5529 0 0 5429 0 0 5654 0 0 5479 0 0 5503 0 0 5577 0 0 5526 0 0 5540 0 0 5376 0 0 2636 0 0 0 0 0 0 0 0 0 0 0 0 0 0 0 0 0 0 0 0 0 0 0 0 0 0 0 0 0 
0 0 0 0 0 0 0 0 0 0 0 0 0 0 0 0 0 0 0 0 0 0 0 0 0 0 0 0 0 0 2720 0 0 5501 0 0 5483 0 0 5542 0 0 5514 0 0 5530 0 0 5589 0 0 5449 0 0 5368 0 0 5430 0 0 5419 0 0 5733 0 0 5505 0 0 5540 0 0 5543 0 0 5474 0 0 5618 0 0 5410 0 0 5624 0 0 5541 0 0 5601 0 0 5540 0 0 5345 0 0 5531 0 0 5505 0 0 5492 0 0 5599 0 0 5599 0 0 5725 0 0 5480 0 0 5500 0 0 5575 0 0 5606 0 0 5426 0 0 5474 0 0 5498 0 0 5649 0 0 5588 0 0 5618 0 0 5537 0 0 2755 0 0 0 0 0 0 0 0 0 0 0 0 0 0 0 0 0 0 0 0 0 0 0 0 0 0 0 0 0 
0 0 0 0 0 0 0 0 0 0 0 0 0 0 0 0 0 0 0 0 0 0 0 0 0 0 0 0 0 0 2770 0 0 5410 0 0 5494 0 0 5582 0 0 5513 0 0 5580 0 0 5561 0 0 5496 0 0 5508 0 0 5367 0 0 5574 0 0 5519 0 0 5422 0 0 5359 0 0 5589 0 0 5495 0 0 5593 0 0 5590 0 0 5550 0 0 5408 0 0 5557 0 0 5563 0 0 5437 0 0 5571 0 0 5518 0 0 5434 0 0 5560 0 0 5438 0 0 5464 0 0 5520 0 0 5487 0 0 5391 0 0 5433 0 0 5434 0 0 5639 0 0 5483 0 0 5333 0 0 5590 0 0 5534 0 0 5490 0 0 2749 0 0 0 0 0 0 0 0 0 0 0 0 0 0 0 0 0 0 0 0 0 0 0 0 0 0 0 0 0 
0 0 0 0 0 0 0 0 0 0 0 0 0 0 0 0 0 0 0 0 0 0 0 0 0 0 0 0 0 0 2794 0 0 5435 0 0 5432 0 0 5493 0 0 5541 0 0 5545 0 0 5634 0 0 5549 0 0 5502 0 0 5481 0 0 5418 0 0 5497 0 0 5572 0 0 5455 0 0 5501 0 0 5462 0 0 5398 0 0 5487 0 0 5471 0 0 5462 0 0 5479 0 0 5653 0 0 5511 0 0 5598 0 0 5424 0 0 5624 0 0 5528 0 0 5502 0 0 5499 0 0 5598 0 0 5385 0 0 5486 0 0 5407 0 0 5392 0 0 5487 0 0 5552 0 0 5509 0 0 5654 0 0 5483 0 0 5557 0 0 2676 0 0 0 0 0 0 0 0 0 0 0 0 0 0 0 0 0 0 0 0 0 0 0 0 0 0 0 0 0 
0 0 0 0 0 0 0 0 0 0 0 0 0 0 0 0 0 0 0 0 0 0 0 0 0 0 0 0 0 0 2742 0 0 5489 0 0 5398 0 0 5504 0 0 5461 0 0 5544 0 0 5483 0 0 5503 0 0 5500 0 0 5440 0 0 5613 0 0 5478 0 0 5535 0 0 5508 0 0 5485 0 0 5667 0 0 5582 0 0 5521 0 0 5566 0 0 5354 0 0 5381 0 0 5524 0 0 5527 0 0 5535 0 0 5385 0 0 5590 0 0 5656 0 0 5361 0 0 5570 0 0 5492 0 0 5518 0 0 5498 0 0 5530 0 0 5604 0 0 5545 0 0 5549 0 0 5565 0 0 5565 0 0 5390 0 0 5540 0 0 2766 0 0 0 0 0 0 0 0 0 0 0 0 0 0 0 0 0 0 0 0 0 0 0 0 0 0 0 0 0 
0 0 0 0 0 0 0 0 0 0 0 0 0 0 0 0 0 0 0 0 0 0 0 0 0 0 0 0 0 0 2770 0 0 5529 0 0 5461 0 0 5554 0 0 5438 0 0 5534 0 0 5486 0 0 5571 0 0 5332 0 0 5537 0 0 5528 0 0 5582 0 0 5521 0 0 5482 0 0 5501 0 0 5580 0 0 5553 0 0 5469 0 0 5451 0 0 5645 0 0 5391 0 0 5533 0 0 5490 0 0 5433 0 0 5474 0 0 5603 0 0 5506 0 0 5436 0 0 5529 0 0 5562 0 0 5532 0 0 5399 0 0 5519 0 0 5402 0 0 5609 0 0 5704 0 0 5608 0 0 5623 0 0 5528 0 0 5501 0 0 2728 0 0 0 0 0 0 0 0 0 0 0 0 0 0 0 0 0 0 0 0 0 0 0 0 0 0 0 0 0 
0 0 0 0 0 0 0 0 0 0 0 0 0 0 0 0 0 0 0 0 0 0 0 0 0 0 0 0 0 0 2681 0 0 5430 0 0 5450 0 0 5639 0 0 5518 0 0 5387 0 0 5376 0 0 5520 0 0 5646 0 0 5572 0 0 5591 0 0 5390 0 0 5495 0 0 5464 0 0 5591 0 0 5552 0 0 5615 0 0 5530 0 0 5558 0 0 5525 0 0 5513 0 0 5369 0 0 5655 0 0 5520 0 0 5585 0 0 5479 0 0 5674 0 0 5533 0 0 5528 0 0 5505 0 0 5617 0 0 5572 0 0 5492 0 0 5483 0 0 5385 0 0 5627 0 0 5440 0 0 5486 0 0 5427 0 0 5428 0 0 2747 0 0 0 0 0 0 0 0 0 0 0 0 0 0 0 0 0 0 0 0 0 0 0 0 0 0 0 0 0 
0 0 0 0 0 0 0 0 0 0 0 0 0 0 0 0 0 0 0 0 0 0 0 0 0 0 0 0 0 0 2744 0 0 5452 0 0 5458 0 0 5471 0 0 5510 0 0 5488 0 0 5527 0 0 5595 0 0 5498 0 0 5454 0 0 5398 0 0 5551 0 0 5471 0 0 5489 0 0 5652 0 0 5294 0 0 5347 0 0 5459 0 0 5478 0 0 5621 0 0 5447 0 0 5553 0 0 5375 0 0 5580 0 0 5425 0 0 5649 0 0 5539 0 0 5585 0 0 5585 0 0 5587 0 0 5553 0 0 5493 0 0 5437 0 0 5541 0 0 5517 0 0 5544 0 0 5548 0 0 5571 0 0 5615 0 0 5501 0 0 2793 0 0 0 0 0 0 0 0 0 0 0 0 0 0 0 0 0 0 0 0 0 0 0 0 0 0 0 0 0 
0 0 0 0 0 0 0 0 0 0 0 0 0 0 0 0 0 0 0 0 0 0 0 0 0 0 0 0 0 0 2864 0 0 5486 0 0 5514 0 0 5594 0 0 5412 0 0 5508 0 0 5468 0 0 5592 0 0 5513 0 0 5459 0 0 5553 0 0 5759 0 0 5455 0 0 5423 0 0 5620 0 0 5535 0 0 5457 0 0 5411 0 0 5476 0 0 5448 0 0 5418 0 0 5528 0 0 5611 0 0 5521 0 0 5571 0 0 5473 0 0 5561 0 0 5430 0 0 5575 0 0 5569 0 0 5530 0 0 5657 0 0 5456 0 0 5586 0 0 5513 0 0 5494 0 0 5467 0 0 5563 0 0 5446 0 0 5484 0 0 2776 0 0 0 0 0 0 0 0 0 0 0 0 0 0 0 0 0 0 0 0 0 0 0 0 0 0 0 0 0 
0 0 0 0 0 0 0 0 0 0 0 0 0 0 0 0 0 0 0 0 0 0 0 0 0 0 0 0 0 0 2703 0 0 5471 0 0 5358 0 0 5456 0 0 5429 0 0 5516 0 0 5603 0 0 5642 0 0 5582 0 0 5471 0 0 5484 0 0 5584 0 0 5536 0 0 5665 0 0 5555 0 0 5451 0 0 5557 0 0 5454 0 0 5385 0 0 5501 0 0 5528 0 0 5506 0 0 5589 0 0 5663 0 0 5615 0 0 5517 0 0 5450 0 0 5635 0 0 5535 0 0 5562 0 0 5592 0 0 5496 0 0 5469 0 0 5523 0 0 5714 0 0 5548 0 0 5461 0 0 5526 0 0 5507 0 0 5502 0 0 2739 0 0 0 0 0 0 0 0 0 0 0 0 0 0 0 0 0 0 0 0 0 0 0 0 0 0 0 0 0 
0 0 0 0 0 0 0 0 0 0 0 0 0 0 0 0 0 0 0 0 0 0 0 0 0 0 0 0 0 0 2788 0 0 5447 0 0 5466 0 0 5496 0 0 5517 0 0 5467 0 0 5572 0 0 5431 0 0 5585 0 0 5435 0 0 5535 0 0 5462 0 0 5504 0 0 5513 0 0 5539 0 0 5410 0 0 5574 0 0 5453 0 0 5539 0 0 5348 0 0 5395 0 0 5482 0 0 5532 0 0 5584 0 0 5556 0 0 5424 0 0 5382 0 0 5537 0 0 5511 0 0 5440 0 0 5454 0 0 5569 0 0 5449 0 0 5491 0 0 5472 0 0 5559 0 0 5422 0 0 5514 0 0 5493 0 0 5524 0 0 2837 0 0 0 0 0 0 0 0 0 0 0 0 0 0 0 0 0 0 0 0 0 0 0 0 0 0 0 0 0 
0 0 0 0 0 0 0 0 0 0 0 0 0 0 0 0 0 0 0 0 0 0 0 0 0 0 0 0 0 0 2837 0 0 5560 0 0 5589 0 0 5516 0 0 5437 0 0 5602 0 0 5475 0 0 5505 0 0 5479 0 0 5298 0 0 5518 0 0 5426 0 0 5508 0 0 5567 0 0 5489 0 0 5547 0 0 5571 0 0 5554 0 0 5514 0 0 5594 0 0 5392 0 0 5682 0 0 5492 0 0 5471 0 0 5438 0 0 5571 0 0 5625 0 0 5613 0 0 5433 0 0 5594 0 0 5479 0 0 5537 0 0 5493 0 0 5550 0 0 5608 0 0 5406 0 0 5454 0 0 5547 0 0 5495 0 0 5517 0 0 2752 0 0 0 0 0 0 0 0 0 0 0 0 0 0 0 0 0 0 0 0 0 0 0 0 0 0 0 0 0 
0 0 0 0 0 0 0 0 0 0 0 0 0 0 0 0 0 0 0 0 0 0 0 0 0 0 0 0 0 0 2815 0 0 5487 0 0 5386 0 0 5400 0 0 5504 0 0 5508 0 0 5580 0 0 5444 0 0 5513 0 0 5538 0 0 5410 0 0 5507 0 0 5455 0 0 5527 0 0 5434 0 0 5576 0 0 5590 0 0 5366 0 0 5554 0 0 5446 0 0 5473 0 0 5555 0 0 5561 0 0 5548 0 0 5583 0 0 5574 0 0 5519 0 0 5606 0 0 5410 0 0 5521 0 0 5544 0 0 5431 0 0 5498 0 0 5425 0 0 5695 0 0 5598 0 0 5470 0 0 5513 0 0 5466 0 0 5417 0 0 2809 0 0 0 0 0 0 0 0 0 0 0 0 0 0 0 0 0 0 0 0 0 0 0 0 0 0 0 0 0 
0 0 0 0 0 0 0 0 0 0 0 0 0 0 0 0 0 0 0 0 0 0 0 0 0 0 0 0 0 0 2821 0 0 5558 0 0 5472 0 0 5507 0 0 5424 0 0 5457 0 0 5451 0 0 5512 0 0 5556 0 0 5557 0 0 5394 0 0 5570 0 0 5530 0 0 5440 0 0 5596 0 0 5587 0 0 5505 0 0 5568 0 0 5461 0 0 5555 0 0 5595 0 0 5533 0 0 5527 0 0 5437 0 0 5505 0 0 5487 0 0 5484 0 0 5493 0 0 5501 0 0 5438 0 0 5402 0 0 5500 0 0 5480 0 0 5386 0 0 5407 0 0 5423 0 0 5579 0 0 5460 0 0 5487 0 0 5415 0 0 2785 0 0 0 0 0 0 0 0 0 0 0 0 0 0 0 0 0 0 0 0 0 0 0 0 0 0 0 0 0 
0 0 0 0 0 0 0 0 0 0 0 0 0 0 0 0 0 0 0 0 0 0 0 0 0 0 0 0 0 0 2735 0 0 5550 0 0 5530 0 0 5584 0 0 5608 0 0 5415 0 0 5431 0 0 5559 0 0 5403 0 0 5654 0 0 5429 0 0 5565 0 0 5534 0 0 5673 0 0 5418 0 0 5509 0 0 5445 0 0 5423 0 0 5753 0 0 5620 0 0 5536 0 0 5430 0 0 5422 0 0 5626 0 0 5384 0 0 5576 0 0 5380 0 0 5606 0 0 5452 0 0 5484 0 0 5443 0 0 5462 0 0 5492 0 0 5613 0 0 5449 0 0 5465 0 0 5572 0 0 5571 0 0 5428 0 0 5591 0 0 2784 0 0 0 0 0 0 0 0 0 0 0 0 0 0 0 0 0 0 0 0 0 0 0 0 0 0 0 0 0 
0 0 0 0 0 0 0 0 0 0 0 0 0 0 0 0 0 0 0 0 0 0 0 0 0 0 0 0 0 0 2705 0 0 5382 0 0 5659 0 0 5534 0 0 5552 0 0 5509 0 0 5649 0 0 5550 0 0 5540 0 0 5464 0 0 5626 0 0 5480 0 0 5520 0 0 5485 0 0 5504 0 0 5543 0 0 5455 0 0 5442 0 0 5365 0 0 5556 0 0 5552 0 0 5572 0 0 5406 0 0 5479 0 0 5512 0 0 5410 0 0 5501 0 0 5613 0 0 5492 0 0 5524 0 0 5543 0 0 5638 0 0 5399 0 0 5611 0 0 5477 0 0 5435 0 0 5329 0 0 5608 0 0 5577 0 0 5584 0 0 2678 0 0 0 0 0 0 0 0 0 0 0 0 0 0 0 0 0 0 0 0 0 0 0 0 0 0 0 0 0 
0 0 0 0 0 0 0 0 0 0 0 0 0 0 0 0 0 0 0 0 0 0 0 0 0 0 0 0 0 0 2717 0 0 5527 0 0 5501 0 0 5368 0 0 5465 0 0 5661 0 0 5403 0 0 5496 0 0 5493 0 0 5466 0 0 5625 0 0 5547 0 0 5543 0 0 5631 0 0 5567 0 0 5537 0 0 5438 0 0 5587 0 0 5563 0 0 5479 0 0 5729 0 0 5603 0 0 5522 0 0 5450 0 0 5604 0 0 5472 0 0 5561 0 0 5390 0 0 5563 0 0 5427 0 0 5558 0 0 5492 0 0 5553 0 0 5654 0 0 5451 0 0 5449 0 0 5534 0 0 5624 0 0 5580 0 0 5430 0 0 2682 0 0 0 0 0 0 0 0 0 0 0 0 0 0 0 0 0 0 0 0 0 0 0 0 0 0 0 0 0 
0 0 0 0 0 0 0 0 0 0 0 0 0 0 0 0 0 0 0 0 0 0 0 0 0 0 0 0 0 0 2739 0 0 5490 0 0 5447 0 0 5559 0 0 5568 0 0 5631 0 0 5711 0 0 5444 0 0 5508 0 0 5573 0 0 5563 0 0 5485 0 0 5593 0 0 5494 0 0 5421 0 0 5502 0 0 5459 0 0 5467 0 0 5509 0 0 5692 0 0 5450 0 0 5544 0 0 5633 0 0 5373 0 0 5546 0 0 5636 0 0 5425 0 0 5485 0 0 5487 0 0 5646 0 0 5496 0 0 5465 0 0 5554 0 0 5449 0 0 5436 0 0 5430 0 0 5475 0 0 5509 0 0 5505 0 0 5572 0 0 2768 0 0 0 0 0 0 0 0 0 0 0 0 0 0 0 0 0 0 0 0 0 0 0 0 0 0 0 0 0 
0 0 0 0 0 0 0 0 0 0 0 0 0 0 0 0 0 0 0 0 0 0 0 0 0 0 0 0 0 0 2741 0 0 5435 0 0 5563 0 0 5631 0 0 5506 0 0 5496 0 0 5597 0 0 5617 0 0 5475 0 0 5517 0 0 5621 0 0 5541 0 0 5511 0 0 5400 0 0 5557 0 0 5485 0 0 5552 0 0 5478 0 0 5496 0 0 5468 0 0 5502 0 0 5609 0 0 5467 0 0 5644 0 0 5364 0 0 5424 0 0 5600 0 0 5549 0 0 5589 0 0 5546 0 0 5496 0 0 5561 0 0 5558 0 0 5569 0 0 5565 0 0 5593 0 0 5522 0 0 5423 0 0 5565 0 0 5514 0 0 2673 0 0 0 0 0 0 0 0 0 0 0 0 0 0 0 0 0 0 0 0 0 0 0 0 0 0 0 0 0 
0 0 0 0 0 0 0 0 0 0 0 0 0 0 0 0 0 0 0 0 0 0 0 0 0 0 0 0 0 0 2865 0 0 5477 0 0 5505 0 0 5528 0 0 5504 0 0 5507 0 0 5515 0 0 5511 0 0 5453 0 0 5571 0 0 5644 0 0 5516 0 0 5543 0 0 5709 0 0 5495 0 0 5390 0 0 5584 0 0 5457 0 0 5489 0 0 5522 0 0 5568 0 0 5412 0 0 5538 0 0 5596 0 0 5470 0 0 5548 0 0 5579 0 0 5483 0 0 5497 0 0 5483 0 0 5503 0 0 5433 0 0 5484 0 0 5617 0 0 5481 0 0 5453 0 0 5498 0 0 5568 0 0 5518 0 0 5334 0 0 2744 0 0 0 0 0 0 0 0 0 0 0 0 0 0 0 0 0 0 0 0 0 0 0 0 0 0 0 0 0 
0 0 0 0 0 0 0 0 0 0 0 0 0 0 0 0 0 0 0 0 0 0 0 0 0 0 0 0 0 0 2798 0 0 5499 0 0 5530 0 0 5536 0 0 5560 0 0 5572 0 0 5413 0 0 5440 0 0 5545 0 0 5484 0 0 5571 0 0 5354 0 0 5501 0 0 5443 0 0 5520 0 0 5465 0 0 5505 0 0 5571 0 0 5399 0 0 5528 0 0 5366 0 0 5481 0 0 5567 0 0 5479 0 0 5413 0 0 5466 0 0 5493 0 0 5492 0 0 5538 0 0 5589 0 0 5607 0 0 5400 0 0 5534 0 0 5656 0 0 5498 0 0 5438 0 0 5495 0 0 5455 0 0 5554 0 0 5366 0 0 2818 0 0 0 0 0 0 0 0 0 0 0 0 0 0 0 0 0 0 0 0 0 0 0 0 0 0 0 0 0 
0 0 0 0 0 0 0 0 0 0 0 0 0 0 0 0 0 0 0 0 0 0 0 0 0 0 0 0 0 0 2788 0 0 5541 0 0 5496 0 0 5533 0 0 5628 0 0 5495 0 0 5594 0 0 5391 0 0 5476 0 0 5584 0 0 5406 0 0 5420 0 0 5395 0 0 5509 0 0 5578 0 0 5577 0 0 5596 0 0 5414 0 0 5417 0 0 5536 0 0 5532 0 0 5563 0 0 5532 0 0 5477 0 0 5616 0 0 5461 0 0 5670 0 0 5490 0 0 5474 0 0 5479 0 0 5464 0 0 5481 0 0 5427 0 0 5437 0 0 5546 0 0 5574 0 0 5551 0 0 5655 0 0 5486 0 0 5528 0 0 2844 0 0 0 0 0 0 0 0 0 0 0 0 0 0 0 0 0 0 0 0 0 0 0 0 0 0 0 0 0 
0 0 0 0 0 0 0 0 0 0 0 0 0 0 0 0 0 0 0 0 0 0 0 0 0 0 0 0 0 0 2756 0 0 5508 0 0 5508 0 0 5466 0 0 5533 0 0 5482 0 0 5466 0 0 5557 0 0 5506 0 0 5432 0 0 5557 0 0 5547 0 0 5505 0 0 5499 0 0 5650 0 0 5390 0 0 5527 0 0 5600 0 0 5416 0 0 5473 0 0 5479 0 0 5337 0 0 5494 0 0 5470 0 0 5478 0 0 5416 0 0 5608 0 0 5501 0 0 5514 0 0 5476 0 0 5412 0 0 5439 0 0 5464 0 0 5474 0 0 5528 0 0 5547 0 0 5488 0 0 5568 0 0 5441 0 0 5607 0 0 2768 0 0 0 0 0 0 0 0 0 0 0 0 0 0 0 0 0 0 0 0 0 0 0 0 0 0 0 0 0 
0 0 0 0 0 0 0 0 0 0 0 0 0 0 0 0 0 0 0 0 0 0 0 0 0 0 0 0 0 0 2666 0 0 5492 0 0 5394 0 0 5595 0 0 5514 0 0 5573 0 0 5585 0 0 5556 0 0 5549 0 0 5435 0 0 5465 0 0 5483 0 0 5347 0 0 5557 0 0 5616 0 0 5464 0 0 5494 0 0 5550 0 0 5430 0 0 5510 0 0 5515 0 0 5549 0 0 5403 0 0 5627 0 0 5653 0 0 5502 0 0 5440 0 0 5481 0 0 5492 0 0 5444 0 0 5472 0 0 5442 0 0 5378 0 0 5359 0 0 5635 0 0 5447 0 0 5608 0 0 5466 0 0 5402 0 0 5639 0 0 2775 0 0 0 0 0 0 0 0 0 0 0 0 0 0 0 0 0 0 0 0 0 0 0 0 0 0 0 0 0 
0 0 0 0 0 0 0 0 0 0 0 0 0 0 0 0 0 0 0 0 0 0 0 0 0 0 0 0 0 0 2738 0 0 5389 0 0 5558 0 0 5497 0 0 5495 0 0 5504 0 0 5490 0 0 5597 0 0 5471 0 0 5583 0 0 5384 0 0 5440 0 0 5386 0 0 5544 0 0 5532 0 0 5541 0 0 5476 0 0 5643 0 0 5469 0 0 5432 0 0 5473 0 0 5533 0 0 5524 0 0 5460 0 0 5400 0 0 5485 0 0 5545 0 0 5457 0 0 5404 0 0 5468 0 0 5515 0 0 5466 0 0 5511 0 0 5352 0 0 5522 0 0 5591 0 0 5627 0 0 5361 0 0 5493 0 0 5516 0 0 2777 0 0 0 0 0 0 0 0 0 0 0 0 0 0 0 0 0 0 0 0 0 0 0 0 0 0 0 0 0 
0 0 0 0 0 0 0 0 0 0 0 0 0 0 0 0 0 0 0 0 0 0 0 0 0 0 0 0 0 0 2758 0 0 5549 0 0 5497 0 0 5422 0 0 5574 0 0 5568 0 0 5539 0 0 5532 0 0 5552 0 0 5485 0 0 5482 0 0 5549 0 0 5682 0 0 5614 0 0 5493 0 0 5445 0 0 5455 0 0 5486 0 0 5329 0 0 5524 0 0 5506 0 0 5409 0 0 5560 0 0 5507 0 0 5512 0 0 5562 0 0 5515 0 0 5501 0 0 5487 0 0 5475 0 0 5496 0 0 5593 0 0 5664 0 0 5452 0 0 5614 0 0 5468 0 0 5555 0 0 5431 0 0 5530 0 0 5481 0 0 2865 0 0 0 0 0 0 0 0 0 0 0 0 0 0 0 0 0 0 0 0 0 0 0 0 0 0 0 0 0 
0 0 0 0 0 0 0 0 0 0 0 0 0 0 0 0 0 0 0 0 0 0 0 0 0 0 0 0 0 0 2803 0 0 5433 0 0 5498 0 0 5581 0 0 5488 0 0 5549 0 0 5472 0 0 5574 0 0 5564 0 0 5452 0 0 5421 0 0 5465 0 0 5526 0 0 5437 0 0 5465 0 0 5564 0 0 5572 0 0 5507 0 0 5507 0 0 5404 0 0 5455 0 0 5489 0 0 5610 0 0 5304 0 0 5670 0 0 5460 0 0 5550 0 0 5496 0 0 5507 0 0 5590 0 0 5452 0 0 5527 0 0 5567 0 0 5548 0 0 5363 0 0 5557 0 0 5516 0 0 5497 0 0 5603 0 0 5441 0 0 2688 0 0 0 0 0 0 0 0 0 0 0 0 0 0 0 0 0 0 0 0 0 0 0 0 0 0 0 0 0 
0 0 0 0 0 0 0 0 0 0 0 0 0 0 0 0 0 0 0 0 0 0 0 0 0 0 0 0 0 0 2855 0 0 5475 0 0 5476 0 0 5596 0 0 5493 0 0 5580 0 0 5492 0 0 5519 0 0 5502 0 0 5525 0 0 5487 0 0 5609 0 0 5519 0 0 5474 0 0 5424 0 0 5592 0 0 5435 0 0 5447 0 0 5604 0 0 5614 0 0 5617 0 0 5407 0 0 5509 0 0 5519 0 0 5654 0 0 5464 0 0 5460 0 0 5461 0 0 5375 0 0 5509 0 0 5633 0 0 5536 0 0 5568 0 0 5525 0 0 5541 0 0 5424 0 0 5456 0 0 5559 0 0 5531 0 0 5495 0 0 2752 0 0 0 0 0 0 0 0 0 0 0 0 0 0 0 0 0 0 0 0 0 0 0 0 0 0 0 0 0 
0 0 0 0 0 0 0 0 0 0 0 0 0 0 0 0 0 0 0 0 0 0 0 0 0 0 0 0 0 0 2770 0 0 5474 0 0 5542 0 0 5669 0 0 5425 0 0 5464 0 0 5439 0 0 5394 0 0 5656 0 0 5561 0 0 5445 0 0 5561 0 0 5567 0 0 5418 0 0 5557 0 0 5588 0 0 5458 0 0 5601 0 0 5527 0 0 5430 0 0 5452 0 0 5481 0 0 5510 0 0 5567 0 0 5572 0 0 5346 0 0 5510 0 0 5529 0 0 5535 0 0 5639 0 0 5592 0 0 5553 0 0 5530 0 0 5438 0 0 5584 0 0 5339 0 0 5547 0 0 5597 0 0 5429 0 0 5668 0 0 2709 0 0 0 0 0 0 0 0 0 0 0 0 0 0 0 0 0 0 0 0 0 0 0 0 0 0 0 0 0 
0 0 0 0 0 0 0 0 0 0 0 0 0 0 0 0 0 0 0 0 0 0 0 0 0 0 0 0 0 0 2820 0 0 5549 0 0 5506 0 0 5449 0 0 5595 0 0 5409 0 0 5591 0 0 5574 0 0 5554 0 0 5540 0 0 5603 0 0 5616 0 0 5543 0 0 5478 0 0 5534 0 0 5357 0 0 5363 0 0 5500 0 0 5501 0 0 5570 0 0 5549 0 0 5252 0 0 5574 0 0 5675 0 0 5508 0 0 5483 0 0 5661 0 0 5539 0 0 5576 0 0 5389 0 0 5530 0 0 5623 0 0 5454 0 0 5503 0 0 5475 0 0 5414 0 0 5453 0 0 5418 0 0 5538 0 0 5589 0 0 2780 0 0 0 0 0 0 0 0 0 0 0 0 0 0 0 0 0 0 0 0 0 0 0 0 0 0 0 0 0 
0 0 0 0 0 0 0 0 0 0 0 0 0 0 0 0 0 0 0 0 0 0 0 0 0 0 0 0 0 0 2771 0 0 5532 0 0 5450 0 0 5395 0 0 5438 0 0 5485 0 0 5510 0 0 5419 0 0 5509 0 0 5465 0 0 5552 0 0 5492 0 0 5564 0 0 5460 0 0 5513 0 0 5627 0 0 5537 0 0 5538 0 0 5388 0 0 5392 0 0 5418 0 0 5546 0 0 5461 0 0 5428 0 0 5574 0 0 5634 0 0 5552 0 0 5490 0 0 5489 0 0 5388 0 0 5512 0 0 5584 0 0 5300 0 0 5574 0 0 5500 0 0 5480 0 0 5344 0 0 5551 0 0 5494 0 0 5554 0 0 2719 0 0 0 0 0 0 0 0 0 0 0 0 0 0 0 0 0 0 0 0 0 0 0 0 0 0 0 0 0 
0 0 0 0 0 0 0 0 0 0 0 0 0 0 0 0 0 0 0 0 0 0 0 0 0 0 0 0 0 0 2779 0 0 5430 0 0 5498 0 0 5499 0 0 5490 0 0 5392 0 0 5486 0 0 5613 0 0 5451 0 0 5471 0 0 5465 0 0 5514 0 0 5572 0 0 5575 0 0 5412 0 0 5435 0 0 5616 0 0 5611 0 0 5431 0 0 5405 0 0 5613 0 0 5473 0 0 5610 0 0 5560 0 0 5405 0 0 5528 0 0 5595 0 0 5437 0 0 5494 0 0 5541 0 0 5623 0 0 5537 0 0 5550 0 0 5412 0 0 5502 0 0 5448 0 0 5619 0 0 5487 0 0 5583 0 0 5497 0 0 2769 0 0 0 0 0 0 0 0 0 0 0 0 0 0 0 0 0 0 0 0 0 0 0 0 0 0 0 0 0 
0 0 0 0 0 0 0 0 0 0 0 0 0 0 0 0 0 0 0 0 0 0 0 0 0 0 0 0 0 0 1403 0 0 2761 0 0 2815 0 0 2657 0 0 2722 0 0 2712 0 0 2746 0 0 2772 0 0 2750 0 0 2739 0 0 2851 0 0 2740 0 0 2698 0 0 2743 0 0 2710 0 0 2734 0 0 2691 0 0 2666 0 0 2791 0 0 2769 0 0 2742 0 0 2751 0 0 2806 0 0 2738 0 0 2718 0 0 2703 0 0 2754 0 0 2769 0 0 2765 0 0 2824 0 0 2718 0 0 2848 0 0 2764 0 0 2922 0 0 2798 0 0 2824 0 0 2686 0 0 2788 0 0 2668 0 0 2647 0 0 1375 0 0 0 0 0 0 0 0 0 0 0 0 0 0 0 0 0 0 0 0 0 0 0 0 0 0 0 0 0 
0 0 0 0 0 0 0 0 0 0 0 0 0 0 0 0 0 0 0 0 0 0 0 0 0 0 0 0 0 0 0 0 0 0 0 0 0 0 0 0 0 0 0 0 0 0 0 0 0 0 0 0 0 0 0 0 0 0 0 0 0 0 0 0 0 0 0 0 0 0 0 0 0 0 0 0 0 0 0 0 0 0 0 0 0 0 0 0 0 0 0 0 0 0 0 0 0 0 0 0 0 0 0 0 0 0 0 0 0 0 0 0 0 0 0 0 0 0 0 0 0 0 0 0 0 0 0 0 0 0 0 0 0 0 0 0 0 0 0 0 0 0 0 0 0 0 0 0 0 0 0 0 0 0 0 0 0 0 0 0 0 0 0 0 0 0 0 0 0 0 0 0 0 0 0 0 0 0 0 0 
0 0 0 0 0 0 0 0 0 0 0 0 0 0 0 0 0 0 0 0 0 0 0 0 0 0 0 0 0 0 0 0 0 0 0 0 0 0 0 0 0 0 0 0 0 0 0 0 0 0 0 0 0 0 0 0 0 0 0 0 0 0 0 0 0 0 0 0 0 0 0 0 0 0 0 0 0 0 0 0 0 0 0 0 0 0 0 0 0 0 0 0 0 0 0 0 0 0 0 0 0 0 0 0 0 0 0 0 0 0 0 0 0 0 0 0 0 0 0 0 0 0 0 0 0 0 0 0 0 0 0 0 0 0 0 0 0 0 0 0 0 0 0 0 0 0 0 0 0 0 0 0 0 0 0 0 0 0 0 0 0 0 0 0 0 0 0 0 0 0 0 0 0 0 0 0 0 0 0 0 
0 0 0 0 0 0 0 0 0 0 0 0 0 0 0 0 0 0 0 0 0 0 0 0 0 0 0 0 0 0 0 0 0 0 0 0 0 0 0 0 0 0 0 0 0 0 0 0 0 0 0 0 0 0 0 0 0 0 0 0 0 0 0 0 0 0 0 0 0 0 0 0 0 0 0 0 0 0 0 0 0 0 0 0 0 0 0 0 0 0 0 0 0 0 0 0 0 0 0 0 0 0 0 0 0 0 0 0 0 0 0 0 0 0 0 0 0 0 0 0 0 0 0 0 0 0 0 0 0 0 0 0 0 0 0 0 0 0 0 0 0 0 0 0 0 0 0 0 0 0 0 0 0 0 0 0 0 0 0 0 0 0 0 0 0 0 0 0 0 0 0 0 0 0 0 0 0 0 0 0 
0 0 0 0 0 0 0 0 0 0 0 0 0 0 0 0 0 0 0 0 0 0 0 0 0 0 0 0 0 0 0 0 0 0 0 0 0 0 0 0 0 0 0 0 0 0 0 0 0 0 0 0 0 0 0 0 0 0 0 0 0 0 0 0 0 0 0 0 0 0 0 0 0 0 0 0 0 0 0 0 0 0 0 0 0 0 0 0 0 0 0 0 0 0 0 0 0 0 0 0 0 0 0 0 0 0 0 0 0 0 0 0 0 0 0 0 0 0 0 0 0 0 0 0 0 0 0 0 0 0 0 0 0 0 0 0 0 0 0 0 0 0 0 0 0 0 0 0 0 0 0 0 0 0 0 0 0 0 0 0 0 0 0 0 0 0 0 0 0 0 0 0 0 0 0 0 0 0 0 0 
0 0 0 0 0 0 0 0 0 0 0 0 0 0 0 0 0 0 0 0 0 0 0 0 0 0 0 0 0 0 0 0 0 0 0 0 0 0 0 0 0 0 0 0 0 0 0 0 0 0 0 0 0 0 0 0 0 0 0 0 0 0 0 0 0 0 0 0 0 0 0 0 0 0 0 0 0 0 0 0 0 0 0 0 0 0 0 0 0 0 0 0 0 0 0 0 0 0 0 0 0 0 0 0 0 0 0 0 0 0 0 0 0 0 0 0 0 0 0 0 0 0 0 0 0 0 0 0 0 0 0 0 0 0 0 0 0 0 0 0 0 0 0 0 0 0 0 0 0 0 0 0 0 0 0 0 0 0 0 0 0 0 0 0 0 0 0 0 0 0 0 0 0 0 0 0 0 0 0 0 
0 0 0 0 0 0 0 0 0 0 0 0 0 0 0 0 0 0 0 0 0 0 0 0 0 0 0 0 0 0 0 0 0 0 0 0 0 0 0 0 0 0 0 0 0 0 0 0 0 0 0 0 0 0 0 0 0 0 0 0 0 0 0 0 0 0 0 0 0 0 0 0 0 0 0 0 0 0 0 0 0 0 0 0 0 0 0 0 0 0 0 0 0 0 0 0 0 0 0 0 0 0 0 0 0 0 0 0 0 0 0 0 0 0 0 0 0 0 0 0 0 0 0 0 0 0 0 0 0 0 0 0 0 0 0 0 0 0 0 0 0 0 0 0 0 0 0 0 0 0 0 0 0 0 0 0 0 0 0 0 0 0 0 0 0 0 0 0 0 0 0 0 0 0 0 0 0 0 0 0 
0 0 0 0 0 0 0 0 0 0 0 0 0 0 0 0 0 0 0 0 0 0 0 0 0 0 0 0 0 0 0 0 0 0 0 0 0 0 0 0 0 0 0 0 0 0 0 0 0 0 0 0 0 0 0 0 0 0 0 0 0 0 0 0 0 0 0 0 0 0 0 0 0 0 0 0 0 0 0 0 0 0 0 0 0 0 0 0 0 0 0 0 0 0 0 0 0 0 0 0 0 0 0 0 0 0 0 0 0 0 0 0 0 0 0 0 0 0 0 0 0 0 0 0 0 0 0 0 0 0 0 0 0 0 0 0 0 0 0 0 0 0 0 0 0 0 0 0 0 0 0 0 0 0 0 0 0 0 0 0 0 0 0 0 0 0 0 0 0 0 0 0 0 0 0 0 0 0 0 0 
0 0 0 0 0 0 0 0 0 0 0 0 0 0 0 0 0 0 0 0 0 0 0 0 0 0 0 0 0 0 0 0 0 0 0 0 0 0 0 0 0 0 0 0 0 0 0 0 0 0 0 0 0 0 0 0 0 0 0 0 0 0 0 0 0 0 0 0 0 0 0 0 0 0 0 0 0 0 0 0 0 0 0 0 0 0 0 0 0 0 0 0 0 0 0 0 0 0 0 0 0 0 0 0 0 0 0 0 0 0 0 0 0 0 0 0 0 0 0 0 0 0 0 0 0 0 0 0 0 0 0 0 0 0 0 0 0 0 0 0 0 0 0 0 0 0 0 0 0 0 0 0 0 0 0 0 0 0 0 0 0 0 0 0 0 0 0 0 0 0 0 0 0 0 0 0 0 0 0 0 
0 0 0 0 0 0 0 0 0 0 0 0 0 0 0 0 0 0 0 0 0 0 0 0 0 0 0 0 0 0 0 0 0 0 0 0 0 0 0 0 0 0 0 0 0 0 0 0 0 0 0 0 0 0 0 0 0 0 0 0 0 0 0 0 0 0 0 0 0 0 0 0 0 0 0 0 0 0 0 0 0 0 0 0 0 0 0 0 0 0 0 0 0 0 0 0 0 0 0 0 0 0 0 0 0 0 0 0 0 0 0 0 0 0 0 0 0 0 0 0 0 0 0 0 0 0 0 0 0 0 0 0 0 0 0 0 0 0 0 0 0 0 0 0 0 0 0 0 0 0 0 0 0 0 0 0 0 0 0 0 0 0 0 0 0 0 0 0 0 0 0 0 0 0 0 0 0 0 0 0 
