P3
# This is a dose file slice at depth 7 of 100
60 60
# now we give the maximum value of the RGB coordinates.
34334
0 0 0 0 0 0 0 0 0 0 0 0 0 0 0 0 0 0 0 0 0 0 0 0 0 0 0 0 0 0 0 0 0 0 0 0 0 0 0 0 0 0 0 0 0 0 0 0 0 0 0 0 0 0 0 0 0 0 0 0 0 0 0 0 0 0 0 0 0 0 0 0 0 0 0 0 0 0 0 0 0 0 0 0 0 0 0 0 0 0 0 0 0 0 0 0 0 0 0 0 0 0 0 0 0 0 0 0 0 0 0 0 0 0 0 0 0 0 0 0 0 0 0 0 0 0 0 0 0 0 0 0 0 0 0 0 0 0 0 0 0 0 0 0 0 0 0 0 0 0 0 0 0 0 0 0 0 0 0 0 0 0 0 0 0 0 0 0 0 0 0 0 0 0 0 0 0 0 0 0 
0 0 0 0 0 0 0 0 0 0 0 0 0 0 0 0 0 0 0 0 0 0 0 0 0 0 0 0 0 0 0 0 0 0 0 0 0 0 0 0 0 0 0 0 0 0 0 0 0 0 0 0 0 0 0 0 0 0 0 0 0 0 0 0 0 0 0 0 0 0 0 0 0 0 0 0 0 0 0 0 0 0 0 0 0 0 0 0 0 0 0 0 0 0 0 0 0 0 0 0 0 0 0 0 0 0 0 0 0 0 0 0 0 0 0 0 0 0 0 0 0 0 0 0 0 0 0 0 0 0 0 0 0 0 0 0 0 0 0 0 0 0 0 0 0 0 0 0 0 0 0 0 0 0 0 0 0 0 0 0 0 0 0 0 0 0 0 0 0 0 0 0 0 0 0 0 0 0 0 0 
0 0 0 0 0 0 0 0 0 0 0 0 0 0 0 0 0 0 0 0 0 0 0 0 0 0 0 0 0 0 0 0 0 0 0 0 0 0 0 0 0 0 0 0 0 0 0 0 0 0 0 0 0 0 0 0 0 0 0 0 0 0 0 0 0 0 0 0 0 0 0 0 0 0 0 0 0 0 0 0 0 0 0 0 0 0 0 0 0 0 0 0 0 0 0 0 0 0 0 0 0 0 0 0 0 0 0 0 0 0 0 0 0 0 0 0 0 0 0 0 0 0 0 0 0 0 0 0 0 0 0 0 0 0 0 0 0 0 0 0 0 0 0 0 0 0 0 0 0 0 0 0 0 0 0 0 0 0 0 0 0 0 0 0 0 0 0 0 0 0 0 0 0 0 0 0 0 0 0 0 
0 0 0 0 0 0 0 0 0 0 0 0 0 0 0 0 0 0 0 0 0 0 0 0 0 0 0 0 0 0 0 0 0 0 0 0 0 0 0 0 0 0 0 0 0 0 0 0 0 0 0 0 0 0 0 0 0 0 0 0 0 0 0 0 0 0 0 0 0 0 0 0 0 0 0 0 0 0 0 0 0 0 0 0 0 0 0 0 0 0 0 0 0 0 0 0 0 0 0 0 0 0 0 0 0 0 0 0 0 0 0 0 0 0 0 0 0 0 0 0 0 0 0 0 0 0 0 0 0 0 0 0 0 0 0 0 0 0 0 0 0 0 0 0 0 0 0 0 0 0 0 0 0 0 0 0 0 0 0 0 0 0 0 0 0 0 0 0 0 0 0 0 0 0 0 0 0 0 0 0 
0 0 0 0 0 0 0 0 0 0 0 0 0 0 0 0 0 0 0 0 0 0 0 0 0 0 0 0 0 0 0 0 0 0 0 0 0 0 0 0 0 0 0 0 0 0 0 0 0 0 0 0 0 0 0 0 0 0 0 0 0 0 0 0 0 0 0 0 0 0 0 0 0 0 0 0 0 0 0 0 0 0 0 0 0 0 0 0 0 0 0 0 0 0 0 0 0 0 0 0 0 0 0 0 0 0 0 0 0 0 0 0 0 0 0 0 0 0 0 0 0 0 0 0 0 0 0 0 0 0 0 0 0 0 0 0 0 0 0 0 0 0 0 0 0 0 0 0 0 0 0 0 0 0 0 0 0 0 0 0 0 0 0 0 0 0 0 0 0 0 0 0 0 0 0 0 0 0 0 0 
0 0 0 0 0 0 0 0 0 0 0 0 0 0 0 0 0 0 0 0 0 0 0 0 0 0 0 0 0 0 0 0 0 0 0 0 0 0 0 0 0 0 0 0 0 0 0 0 0 0 0 0 0 0 0 0 0 0 0 0 0 0 0 0 0 0 0 0 0 0 0 0 0 0 0 0 0 0 0 0 0 0 0 0 0 0 0 0 0 0 0 0 0 0 0 0 0 0 0 0 0 0 0 0 0 0 0 0 0 0 0 0 0 0 0 0 0 0 0 0 0 0 0 0 0 0 0 0 0 0 0 0 0 0 0 0 0 0 0 0 0 0 0 0 0 0 0 0 0 0 0 0 0 0 0 0 0 0 0 0 0 0 0 0 0 0 0 0 0 0 0 0 0 0 0 0 0 0 0 0 
0 0 0 0 0 0 0 0 0 0 0 0 0 0 0 0 0 0 0 0 0 0 0 0 0 0 0 0 0 0 0 0 0 0 0 0 0 0 0 0 0 0 0 0 0 0 0 0 0 0 0 0 0 0 0 0 0 0 0 0 0 0 0 0 0 0 0 0 0 0 0 0 0 0 0 0 0 0 0 0 0 0 0 0 0 0 0 0 0 0 0 0 0 0 0 0 0 0 0 0 0 0 0 0 0 0 0 0 0 0 0 0 0 0 0 0 0 0 0 0 0 0 0 0 0 0 0 0 0 0 0 0 0 0 0 0 0 0 0 0 0 0 0 0 0 0 0 0 0 0 0 0 0 0 0 0 0 0 0 0 0 0 0 0 0 0 0 0 0 0 0 0 0 0 0 0 0 0 0 0 
0 0 0 0 0 0 0 0 0 0 0 0 0 0 0 0 0 0 0 0 0 0 0 0 0 0 0 0 0 0 0 0 0 0 0 0 0 0 0 0 0 0 0 0 0 0 0 0 0 0 0 0 0 0 0 0 0 0 0 0 0 0 0 0 0 0 0 0 0 0 0 0 0 0 0 0 0 0 0 0 0 0 0 0 0 0 0 0 0 0 0 0 0 0 0 0 0 0 0 0 0 0 0 0 0 0 0 0 0 0 0 0 0 0 0 0 0 0 0 0 0 0 0 0 0 0 0 0 0 0 0 0 0 0 0 0 0 0 0 0 0 0 0 0 0 0 0 0 0 0 0 0 0 0 0 0 0 0 0 0 0 0 0 0 0 0 0 0 0 0 0 0 0 0 0 0 0 0 0 0 
0 0 0 0 0 0 0 0 0 0 0 0 0 0 0 0 0 0 0 0 0 0 0 0 0 0 0 0 0 0 0 0 0 0 0 0 0 0 0 0 0 0 0 0 0 0 0 0 0 0 0 0 0 0 0 0 0 0 0 0 0 0 0 0 0 0 0 0 0 0 0 0 0 0 0 0 0 0 0 0 0 0 0 0 0 0 0 0 0 0 0 0 0 0 0 0 0 0 0 0 0 0 0 0 0 0 0 0 0 0 0 0 0 0 0 0 0 0 0 0 0 0 0 0 0 0 0 0 0 0 0 0 0 0 0 0 0 0 0 0 0 0 0 0 0 0 0 0 0 0 0 0 0 0 0 0 0 0 0 0 0 0 0 0 0 0 0 0 0 0 0 0 0 0 0 0 0 0 0 0 
0 0 0 0 0 0 0 0 0 0 0 0 0 0 0 0 0 0 0 0 0 0 0 0 0 0 0 0 0 0 0 0 0 0 0 0 0 0 0 0 0 0 0 0 0 0 0 0 0 0 0 0 0 0 0 0 0 0 0 0 0 0 0 0 0 0 0 0 0 0 0 0 0 0 0 0 0 0 0 0 0 0 0 0 0 0 0 0 0 0 0 0 0 0 0 0 0 0 0 0 0 0 0 0 0 0 0 0 0 0 0 0 0 0 0 0 0 0 0 0 0 0 0 0 0 0 0 0 0 0 0 0 0 0 0 0 0 0 0 0 0 0 0 0 0 0 0 0 0 0 0 0 0 0 0 0 0 0 0 0 0 0 0 0 0 0 0 0 0 0 0 0 0 0 0 0 0 0 0 0 
0 0 0 0 0 0 0 0 0 0 0 0 0 0 0 0 0 0 0 0 0 0 0 0 0 0 0 0 0 0 6990 0 0 13811 0 0 14033 0 0 13722 0 0 13747 0 0 13791 0 0 13867 0 0 14044 0 0 13714 0 0 13818 0 0 13938 0 0 13802 0 0 13813 0 0 13698 0 0 14008 0 0 13970 0 0 13859 0 0 13822 0 0 13840 0 0 13922 0 0 13798 0 0 13966 0 0 14042 0 0 13824 0 0 13819 0 0 13460 0 0 13819 0 0 13858 0 0 13853 0 0 13879 0 0 13740 0 0 13902 0 0 13821 0 0 13888 0 0 13579 0 0 13712 0 0 13908 0 0 14027 0 0 13819 0 0 13961 0 0 7178 0 0 0 0 0 0 0 0 0 0 0 0 0 0 0 0 0 0 0 0 0 0 0 0 0 0 0 0 0 
0 0 0 0 0 0 0 0 0 0 0 0 0 0 0 0 0 0 0 0 0 0 0 0 0 0 0 0 0 0 13764 0 0 27536 0 0 27857 0 0 27602 0 0 27779 0 0 27740 0 0 27533 0 0 27781 0 0 27604 0 0 27495 0 0 27851 0 0 27534 0 0 27818 0 0 27770 0 0 27447 0 0 27608 0 0 27783 0 0 27909 0 0 27632 0 0 27692 0 0 27820 0 0 27742 0 0 27670 0 0 27573 0 0 27611 0 0 27708 0 0 27524 0 0 27811 0 0 27840 0 0 27790 0 0 27767 0 0 28057 0 0 27502 0 0 27796 0 0 27969 0 0 27949 0 0 27594 0 0 27570 0 0 27533 0 0 27803 0 0 13942 0 0 0 0 0 0 0 0 0 0 0 0 0 0 0 0 0 0 0 0 0 0 0 0 0 0 0 0 0 
0 0 0 0 0 0 0 0 0 0 0 0 0 0 0 0 0 0 0 0 0 0 0 0 0 0 0 0 0 0 13690 0 0 27746 0 0 27958 0 0 27791 0 0 27632 0 0 28062 0 0 28018 0 0 27769 0 0 27727 0 0 27797 0 0 27717 0 0 27660 0 0 27443 0 0 27878 0 0 27487 0 0 27733 0 0 27651 0 0 27753 0 0 27948 0 0 27614 0 0 27550 0 0 27569 0 0 27649 0 0 27533 0 0 27758 0 0 27535 0 0 27739 0 0 27744 0 0 27364 0 0 27492 0 0 27831 0 0 27947 0 0 27693 0 0 27855 0 0 27977 0 0 27545 0 0 27606 0 0 27423 0 0 27735 0 0 27739 0 0 13834 0 0 0 0 0 0 0 0 0 0 0 0 0 0 0 0 0 0 0 0 0 0 0 0 0 0 0 0 0 
0 0 0 0 0 0 0 0 0 0 0 0 0 0 0 0 0 0 0 0 0 0 0 0 0 0 0 0 0 0 13788 0 0 27673 0 0 27815 0 0 27511 0 0 27771 0 0 27760 0 0 27970 0 0 27993 0 0 27798 0 0 27526 0 0 27718 0 0 27828 0 0 27582 0 0 27800 0 0 27758 0 0 27668 0 0 27563 0 0 27510 0 0 28012 0 0 27829 0 0 27725 0 0 27485 0 0 27780 0 0 27702 0 0 27718 0 0 27904 0 0 27781 0 0 27462 0 0 27635 0 0 27695 0 0 27525 0 0 27630 0 0 27894 0 0 27538 0 0 27469 0 0 27734 0 0 28088 0 0 27695 0 0 27708 0 0 27713 0 0 13917 0 0 0 0 0 0 0 0 0 0 0 0 0 0 0 0 0 0 0 0 0 0 0 0 0 0 0 0 0 
0 0 0 0 0 0 0 0 0 0 0 0 0 0 0 0 0 0 0 0 0 0 0 0 0 0 0 0 0 0 13692 0 0 27828 0 0 27647 0 0 27535 0 0 27463 0 0 27896 0 0 27609 0 0 27690 0 0 27514 0 0 27651 0 0 27693 0 0 27774 0 0 27780 0 0 27980 0 0 27415 0 0 27908 0 0 27428 0 0 27800 0 0 27853 0 0 27777 0 0 27623 0 0 27518 0 0 27669 0 0 27626 0 0 27688 0 0 27583 0 0 27528 0 0 27568 0 0 27636 0 0 27856 0 0 27615 0 0 27875 0 0 27956 0 0 27931 0 0 27914 0 0 27614 0 0 27728 0 0 27842 0 0 27775 0 0 27749 0 0 13869 0 0 0 0 0 0 0 0 0 0 0 0 0 0 0 0 0 0 0 0 0 0 0 0 0 0 0 0 0 
0 0 0 0 0 0 0 0 0 0 0 0 0 0 0 0 0 0 0 0 0 0 0 0 0 0 0 0 0 0 13635 0 0 27817 0 0 27537 0 0 27647 0 0 27710 0 0 27682 0 0 28056 0 0 27629 0 0 27910 0 0 28005 0 0 27717 0 0 28048 0 0 27966 0 0 27818 0 0 27643 0 0 27793 0 0 27758 0 0 27481 0 0 27744 0 0 27788 0 0 27787 0 0 27936 0 0 27873 0 0 27418 0 0 27696 0 0 27384 0 0 27606 0 0 27763 0 0 27871 0 0 27417 0 0 27669 0 0 27718 0 0 27566 0 0 27722 0 0 27861 0 0 27762 0 0 27608 0 0 27949 0 0 27508 0 0 27532 0 0 13939 0 0 0 0 0 0 0 0 0 0 0 0 0 0 0 0 0 0 0 0 0 0 0 0 0 0 0 0 0 
0 0 0 0 0 0 0 0 0 0 0 0 0 0 0 0 0 0 0 0 0 0 0 0 0 0 0 0 0 0 13905 0 0 27478 0 0 27683 0 0 27568 0 0 27832 0 0 27609 0 0 27701 0 0 27729 0 0 28100 0 0 27561 0 0 27559 0 0 27804 0 0 27550 0 0 28035 0 0 27701 0 0 27364 0 0 27735 0 0 27363 0 0 27545 0 0 27382 0 0 27680 0 0 27744 0 0 27541 0 0 27592 0 0 27628 0 0 27593 0 0 27806 0 0 27866 0 0 27499 0 0 27621 0 0 27468 0 0 27899 0 0 27588 0 0 27618 0 0 27809 0 0 27863 0 0 27434 0 0 27704 0 0 27541 0 0 27489 0 0 13707 0 0 0 0 0 0 0 0 0 0 0 0 0 0 0 0 0 0 0 0 0 0 0 0 0 0 0 0 0 
0 0 0 0 0 0 0 0 0 0 0 0 0 0 0 0 0 0 0 0 0 0 0 0 0 0 0 0 0 0 13953 0 0 27950 0 0 27895 0 0 27755 0 0 27743 0 0 27465 0 0 27614 0 0 27717 0 0 27551 0 0 27635 0 0 27539 0 0 27923 0 0 27779 0 0 27429 0 0 27738 0 0 27692 0 0 27496 0 0 27625 0 0 27836 0 0 27545 0 0 27737 0 0 27517 0 0 27596 0 0 27566 0 0 27656 0 0 27558 0 0 27776 0 0 28061 0 0 27865 0 0 27757 0 0 27741 0 0 27705 0 0 27921 0 0 27888 0 0 27698 0 0 27682 0 0 27829 0 0 27714 0 0 27687 0 0 27578 0 0 13789 0 0 0 0 0 0 0 0 0 0 0 0 0 0 0 0 0 0 0 0 0 0 0 0 0 0 0 0 0 
0 0 0 0 0 0 0 0 0 0 0 0 0 0 0 0 0 0 0 0 0 0 0 0 0 0 0 0 0 0 13952 0 0 27619 0 0 27579 0 0 27558 0 0 27858 0 0 27762 0 0 27843 0 0 27711 0 0 27653 0 0 27837 0 0 27552 0 0 27579 0 0 27800 0 0 27450 0 0 27730 0 0 27762 0 0 27667 0 0 27614 0 0 27917 0 0 27750 0 0 27768 0 0 27836 0 0 27515 0 0 27710 0 0 27742 0 0 27715 0 0 27817 0 0 27791 0 0 27477 0 0 27902 0 0 27795 0 0 27672 0 0 27723 0 0 27778 0 0 27662 0 0 27789 0 0 27991 0 0 27647 0 0 27726 0 0 27707 0 0 13791 0 0 0 0 0 0 0 0 0 0 0 0 0 0 0 0 0 0 0 0 0 0 0 0 0 0 0 0 0 
0 0 0 0 0 0 0 0 0 0 0 0 0 0 0 0 0 0 0 0 0 0 0 0 0 0 0 0 0 0 13895 0 0 27654 0 0 27812 0 0 27716 0 0 27629 0 0 27876 0 0 27904 0 0 27526 0 0 27645 0 0 27877 0 0 27814 0 0 27821 0 0 27633 0 0 27780 0 0 27593 0 0 27790 0 0 27391 0 0 27549 0 0 27689 0 0 27762 0 0 27338 0 0 27707 0 0 27720 0 0 27395 0 0 27772 0 0 27494 0 0 27959 0 0 27829 0 0 27755 0 0 27671 0 0 27657 0 0 27613 0 0 27569 0 0 27897 0 0 27495 0 0 27555 0 0 27741 0 0 27794 0 0 27656 0 0 27535 0 0 13899 0 0 0 0 0 0 0 0 0 0 0 0 0 0 0 0 0 0 0 0 0 0 0 0 0 0 0 0 0 
0 0 0 0 0 0 0 0 0 0 0 0 0 0 0 0 0 0 0 0 0 0 0 0 0 0 0 0 0 0 13776 0 0 27629 0 0 27570 0 0 27478 0 0 27720 0 0 27715 0 0 27615 0 0 27556 0 0 27711 0 0 27765 0 0 27669 0 0 27574 0 0 27785 0 0 28023 0 0 27464 0 0 27804 0 0 27659 0 0 27907 0 0 27559 0 0 27612 0 0 27735 0 0 27758 0 0 27847 0 0 27479 0 0 27710 0 0 27781 0 0 27718 0 0 27733 0 0 27840 0 0 27719 0 0 27645 0 0 27812 0 0 27502 0 0 27494 0 0 27687 0 0 27646 0 0 27699 0 0 27437 0 0 27674 0 0 27760 0 0 13754 0 0 0 0 0 0 0 0 0 0 0 0 0 0 0 0 0 0 0 0 0 0 0 0 0 0 0 0 0 
0 0 0 0 0 0 0 0 0 0 0 0 0 0 0 0 0 0 0 0 0 0 0 0 0 0 0 0 0 0 13715 0 0 27696 0 0 27910 0 0 27849 0 0 27530 0 0 27506 0 0 27859 0 0 27503 0 0 27350 0 0 27539 0 0 27578 0 0 27702 0 0 27465 0 0 27559 0 0 27719 0 0 27833 0 0 27577 0 0 27866 0 0 27683 0 0 27746 0 0 27987 0 0 27934 0 0 27538 0 0 27757 0 0 27772 0 0 27634 0 0 27879 0 0 28079 0 0 27669 0 0 27561 0 0 27753 0 0 27771 0 0 27792 0 0 27538 0 0 27813 0 0 27795 0 0 27807 0 0 27540 0 0 27551 0 0 27496 0 0 13909 0 0 0 0 0 0 0 0 0 0 0 0 0 0 0 0 0 0 0 0 0 0 0 0 0 0 0 0 0 
0 0 0 0 0 0 0 0 0 0 0 0 0 0 0 0 0 0 0 0 0 0 0 0 0 0 0 0 0 0 13833 0 0 27742 0 0 27569 0 0 27763 0 0 27371 0 0 27453 0 0 27753 0 0 27745 0 0 27529 0 0 27966 0 0 27646 0 0 27646 0 0 27770 0 0 27738 0 0 27767 0 0 27726 0 0 27855 0 0 27537 0 0 27568 0 0 27628 0 0 27600 0 0 27899 0 0 28067 0 0 27804 0 0 27728 0 0 27594 0 0 27445 0 0 27671 0 0 27722 0 0 27831 0 0 27599 0 0 27710 0 0 27695 0 0 27784 0 0 27696 0 0 27916 0 0 27628 0 0 27724 0 0 27884 0 0 27994 0 0 13745 0 0 0 0 0 0 0 0 0 0 0 0 0 0 0 0 0 0 0 0 0 0 0 0 0 0 0 0 0 
0 0 0 0 0 0 0 0 0 0 0 0 0 0 0 0 0 0 0 0 0 0 0 0 0 0 0 0 0 0 13852 0 0 27864 0 0 27925 0 0 27693 0 0 27663 0 0 27644 0 0 27523 0 0 27684 0 0 27458 0 0 28029 0 0 27670 0 0 27625 0 0 27671 0 0 27902 0 0 27431 0 0 27613 0 0 27571 0 0 27488 0 0 27709 0 0 27756 0 0 27682 0 0 27636 0 0 27457 0 0 27630 0 0 27939 0 0 27760 0 0 27668 0 0 27870 0 0 27733 0 0 27421 0 0 27778 0 0 27663 0 0 27724 0 0 27871 0 0 27533 0 0 27630 0 0 27419 0 0 27505 0 0 27868 0 0 27807 0 0 13805 0 0 0 0 0 0 0 0 0 0 0 0 0 0 0 0 0 0 0 0 0 0 0 0 0 0 0 0 0 
0 0 0 0 0 0 0 0 0 0 0 0 0 0 0 0 0 0 0 0 0 0 0 0 0 0 0 0 0 0 13700 0 0 27519 0 0 27840 0 0 27744 0 0 27907 0 0 27634 0 0 27953 0 0 27556 0 0 27667 0 0 27712 0 0 27748 0 0 27651 0 0 27874 0 0 27443 0 0 27464 0 0 27839 0 0 27539 0 0 27784 0 0 27603 0 0 27901 0 0 27654 0 0 27109 0 0 27928 0 0 27542 0 0 27555 0 0 27934 0 0 27612 0 0 27537 0 0 27550 0 0 27572 0 0 27473 0 0 27896 0 0 27714 0 0 27616 0 0 27607 0 0 27789 0 0 27874 0 0 27558 0 0 27695 0 0 27687 0 0 13735 0 0 0 0 0 0 0 0 0 0 0 0 0 0 0 0 0 0 0 0 0 0 0 0 0 0 0 0 0 
0 0 0 0 0 0 0 0 0 0 0 0 0 0 0 0 0 0 0 0 0 0 0 0 0 0 0 0 0 0 13822 0 0 27825 0 0 27723 0 0 27452 0 0 27696 0 0 27518 0 0 27776 0 0 27549 0 0 27804 0 0 28165 0 0 27992 0 0 27669 0 0 27879 0 0 27691 0 0 27961 0 0 27503 0 0 27772 0 0 27723 0 0 27743 0 0 27661 0 0 27894 0 0 27551 0 0 27700 0 0 27349 0 0 27852 0 0 27846 0 0 27646 0 0 27576 0 0 27914 0 0 27620 0 0 28013 0 0 27560 0 0 27665 0 0 27722 0 0 27791 0 0 27884 0 0 27709 0 0 27926 0 0 27697 0 0 27557 0 0 13827 0 0 0 0 0 0 0 0 0 0 0 0 0 0 0 0 0 0 0 0 0 0 0 0 0 0 0 0 0 
0 0 0 0 0 0 0 0 0 0 0 0 0 0 0 0 0 0 0 0 0 0 0 0 0 0 0 0 0 0 13939 0 0 27438 0 0 27714 0 0 27642 0 0 27649 0 0 27876 0 0 27699 0 0 27821 0 0 27671 0 0 27683 0 0 27638 0 0 27453 0 0 27804 0 0 27347 0 0 27720 0 0 27940 0 0 27799 0 0 27681 0 0 27658 0 0 27736 0 0 27718 0 0 27663 0 0 27472 0 0 27573 0 0 27659 0 0 27486 0 0 27948 0 0 27611 0 0 27215 0 0 27758 0 0 27614 0 0 28123 0 0 27754 0 0 27549 0 0 27593 0 0 27777 0 0 27687 0 0 27933 0 0 27757 0 0 27840 0 0 13736 0 0 0 0 0 0 0 0 0 0 0 0 0 0 0 0 0 0 0 0 0 0 0 0 0 0 0 0 0 
0 0 0 0 0 0 0 0 0 0 0 0 0 0 0 0 0 0 0 0 0 0 0 0 0 0 0 0 0 0 13878 0 0 27624 0 0 27692 0 0 27553 0 0 27649 0 0 27385 0 0 27443 0 0 27742 0 0 27403 0 0 28037 0 0 27936 0 0 27702 0 0 27551 0 0 27469 0 0 27668 0 0 27765 0 0 28001 0 0 27599 0 0 27544 0 0 27416 0 0 27638 0 0 27782 0 0 27747 0 0 27921 0 0 27852 0 0 27776 0 0 27680 0 0 27470 0 0 27602 0 0 27800 0 0 27555 0 0 27788 0 0 27656 0 0 27622 0 0 27615 0 0 27630 0 0 27806 0 0 27471 0 0 27698 0 0 27398 0 0 13943 0 0 0 0 0 0 0 0 0 0 0 0 0 0 0 0 0 0 0 0 0 0 0 0 0 0 0 0 0 
0 0 0 0 0 0 0 0 0 0 0 0 0 0 0 0 0 0 0 0 0 0 0 0 0 0 0 0 0 0 13866 0 0 27797 0 0 27562 0 0 27692 0 0 27648 0 0 27641 0 0 27732 0 0 27608 0 0 27904 0 0 27697 0 0 27800 0 0 27670 0 0 27826 0 0 27575 0 0 27855 0 0 27798 0 0 27786 0 0 27888 0 0 27555 0 0 27694 0 0 27401 0 0 27692 0 0 27490 0 0 27802 0 0 27778 0 0 27647 0 0 27637 0 0 27739 0 0 27804 0 0 27573 0 0 27867 0 0 27861 0 0 27629 0 0 27690 0 0 27640 0 0 27478 0 0 27899 0 0 27747 0 0 27657 0 0 27856 0 0 13723 0 0 0 0 0 0 0 0 0 0 0 0 0 0 0 0 0 0 0 0 0 0 0 0 0 0 0 0 0 
0 0 0 0 0 0 0 0 0 0 0 0 0 0 0 0 0 0 0 0 0 0 0 0 0 0 0 0 0 0 13746 0 0 27617 0 0 27664 0 0 27531 0 0 27454 0 0 27801 0 0 27668 0 0 27151 0 0 27456 0 0 27680 0 0 27733 0 0 28171 0 0 27416 0 0 27729 0 0 27425 0 0 27588 0 0 27800 0 0 27886 0 0 27615 0 0 27561 0 0 27528 0 0 27395 0 0 27742 0 0 27738 0 0 27838 0 0 27560 0 0 27645 0 0 27306 0 0 27689 0 0 27655 0 0 27759 0 0 27522 0 0 27766 0 0 27837 0 0 27856 0 0 27555 0 0 27810 0 0 27661 0 0 27535 0 0 27560 0 0 13972 0 0 0 0 0 0 0 0 0 0 0 0 0 0 0 0 0 0 0 0 0 0 0 0 0 0 0 0 0 
0 0 0 0 0 0 0 0 0 0 0 0 0 0 0 0 0 0 0 0 0 0 0 0 0 0 0 0 0 0 13782 0 0 27661 0 0 27715 0 0 27546 0 0 27797 0 0 27644 0 0 27965 0 0 28146 0 0 27511 0 0 27408 0 0 27722 0 0 27606 0 0 28087 0 0 27461 0 0 27447 0 0 27780 0 0 27682 0 0 27687 0 0 27446 0 0 27717 0 0 27218 0 0 27864 0 0 27717 0 0 27757 0 0 27663 0 0 27897 0 0 27585 0 0 27819 0 0 28014 0 0 27627 0 0 27306 0 0 27397 0 0 27784 0 0 27668 0 0 27571 0 0 27764 0 0 27746 0 0 27917 0 0 27910 0 0 27755 0 0 13860 0 0 0 0 0 0 0 0 0 0 0 0 0 0 0 0 0 0 0 0 0 0 0 0 0 0 0 0 0 
0 0 0 0 0 0 0 0 0 0 0 0 0 0 0 0 0 0 0 0 0 0 0 0 0 0 0 0 0 0 13904 0 0 27632 0 0 27989 0 0 27782 0 0 27775 0 0 27746 0 0 27827 0 0 27672 0 0 27633 0 0 27489 0 0 27569 0 0 27909 0 0 27285 0 0 27578 0 0 27710 0 0 27720 0 0 27640 0 0 27737 0 0 27865 0 0 27671 0 0 27676 0 0 27564 0 0 27827 0 0 27728 0 0 27869 0 0 27334 0 0 27892 0 0 27661 0 0 27605 0 0 27848 0 0 27830 0 0 28186 0 0 27711 0 0 27777 0 0 27498 0 0 27777 0 0 27802 0 0 27683 0 0 27705 0 0 27887 0 0 14096 0 0 0 0 0 0 0 0 0 0 0 0 0 0 0 0 0 0 0 0 0 0 0 0 0 0 0 0 0 
0 0 0 0 0 0 0 0 0 0 0 0 0 0 0 0 0 0 0 0 0 0 0 0 0 0 0 0 0 0 13802 0 0 27818 0 0 27478 0 0 27625 0 0 27711 0 0 27912 0 0 27608 0 0 28079 0 0 27803 0 0 27761 0 0 27367 0 0 27464 0 0 27825 0 0 27944 0 0 27940 0 0 27532 0 0 27523 0 0 27626 0 0 27630 0 0 27919 0 0 28039 0 0 27946 0 0 27738 0 0 27794 0 0 27839 0 0 27629 0 0 27695 0 0 27664 0 0 27377 0 0 27872 0 0 27388 0 0 27569 0 0 27472 0 0 27558 0 0 27400 0 0 28018 0 0 27961 0 0 27760 0 0 27774 0 0 27642 0 0 14098 0 0 0 0 0 0 0 0 0 0 0 0 0 0 0 0 0 0 0 0 0 0 0 0 0 0 0 0 0 
0 0 0 0 0 0 0 0 0 0 0 0 0 0 0 0 0 0 0 0 0 0 0 0 0 0 0 0 0 0 13895 0 0 27987 0 0 27715 0 0 27766 0 0 27552 0 0 27493 0 0 27527 0 0 27774 0 0 27451 0 0 27968 0 0 27903 0 0 27721 0 0 27684 0 0 27656 0 0 27791 0 0 27601 0 0 27204 0 0 27635 0 0 27514 0 0 27778 0 0 27636 0 0 27941 0 0 27878 0 0 27551 0 0 27862 0 0 27514 0 0 27507 0 0 28005 0 0 27400 0 0 27610 0 0 27644 0 0 27642 0 0 27730 0 0 28001 0 0 27618 0 0 27900 0 0 27630 0 0 27946 0 0 27526 0 0 27681 0 0 13824 0 0 0 0 0 0 0 0 0 0 0 0 0 0 0 0 0 0 0 0 0 0 0 0 0 0 0 0 0 
0 0 0 0 0 0 0 0 0 0 0 0 0 0 0 0 0 0 0 0 0 0 0 0 0 0 0 0 0 0 13878 0 0 27385 0 0 27838 0 0 27738 0 0 27791 0 0 27907 0 0 27722 0 0 27913 0 0 27526 0 0 27852 0 0 27698 0 0 27800 0 0 27897 0 0 27886 0 0 27545 0 0 27544 0 0 27780 0 0 27747 0 0 27922 0 0 27845 0 0 27863 0 0 27587 0 0 27596 0 0 27865 0 0 27671 0 0 27569 0 0 27556 0 0 27493 0 0 27689 0 0 27741 0 0 27772 0 0 27770 0 0 27883 0 0 27558 0 0 27837 0 0 27670 0 0 27611 0 0 27677 0 0 27992 0 0 27376 0 0 13794 0 0 0 0 0 0 0 0 0 0 0 0 0 0 0 0 0 0 0 0 0 0 0 0 0 0 0 0 0 
0 0 0 0 0 0 0 0 0 0 0 0 0 0 0 0 0 0 0 0 0 0 0 0 0 0 0 0 0 0 13826 0 0 27628 0 0 27677 0 0 28068 0 0 27791 0 0 27997 0 0 27645 0 0 27495 0 0 27761 0 0 27959 0 0 28203 0 0 27686 0 0 27580 0 0 27628 0 0 27579 0 0 27681 0 0 27896 0 0 27828 0 0 27624 0 0 27919 0 0 27797 0 0 27815 0 0 27686 0 0 27668 0 0 27668 0 0 27805 0 0 27625 0 0 28166 0 0 27422 0 0 27516 0 0 27684 0 0 27756 0 0 27742 0 0 27876 0 0 27801 0 0 27675 0 0 27820 0 0 27946 0 0 27513 0 0 27960 0 0 13917 0 0 0 0 0 0 0 0 0 0 0 0 0 0 0 0 0 0 0 0 0 0 0 0 0 0 0 0 0 
0 0 0 0 0 0 0 0 0 0 0 0 0 0 0 0 0 0 0 0 0 0 0 0 0 0 0 0 0 0 14040 0 0 27598 0 0 27606 0 0 27480 0 0 27913 0 0 27714 0 0 27406 0 0 27511 0 0 27784 0 0 27847 0 0 27952 0 0 27843 0 0 27780 0 0 27742 0 0 27748 0 0 27934 0 0 27643 0 0 27847 0 0 27828 0 0 27680 0 0 27482 0 0 27763 0 0 27042 0 0 27473 0 0 27497 0 0 27899 0 0 27848 0 0 27671 0 0 27622 0 0 27776 0 0 27746 0 0 27606 0 0 27588 0 0 27831 0 0 28007 0 0 27833 0 0 27799 0 0 27689 0 0 27669 0 0 27880 0 0 13795 0 0 0 0 0 0 0 0 0 0 0 0 0 0 0 0 0 0 0 0 0 0 0 0 0 0 0 0 0 
0 0 0 0 0 0 0 0 0 0 0 0 0 0 0 0 0 0 0 0 0 0 0 0 0 0 0 0 0 0 13960 0 0 27592 0 0 27670 0 0 27783 0 0 27719 0 0 27562 0 0 27752 0 0 27761 0 0 27626 0 0 27668 0 0 27557 0 0 27518 0 0 27659 0 0 27914 0 0 27443 0 0 27816 0 0 27747 0 0 27917 0 0 27792 0 0 27566 0 0 27633 0 0 27907 0 0 27814 0 0 27643 0 0 27788 0 0 27633 0 0 28056 0 0 27699 0 0 27717 0 0 27848 0 0 27759 0 0 27618 0 0 27590 0 0 28012 0 0 27620 0 0 27737 0 0 27541 0 0 27731 0 0 27432 0 0 27330 0 0 13636 0 0 0 0 0 0 0 0 0 0 0 0 0 0 0 0 0 0 0 0 0 0 0 0 0 0 0 0 0 
0 0 0 0 0 0 0 0 0 0 0 0 0 0 0 0 0 0 0 0 0 0 0 0 0 0 0 0 0 0 13689 0 0 27635 0 0 27785 0 0 27937 0 0 27789 0 0 27737 0 0 27534 0 0 27849 0 0 27986 0 0 27322 0 0 27595 0 0 27629 0 0 27807 0 0 28080 0 0 27460 0 0 27826 0 0 27734 0 0 27980 0 0 27729 0 0 27618 0 0 27698 0 0 27767 0 0 28026 0 0 27811 0 0 27680 0 0 27835 0 0 27646 0 0 27845 0 0 27819 0 0 27774 0 0 27507 0 0 27491 0 0 27545 0 0 27600 0 0 27768 0 0 27655 0 0 27849 0 0 27616 0 0 27724 0 0 27661 0 0 13895 0 0 0 0 0 0 0 0 0 0 0 0 0 0 0 0 0 0 0 0 0 0 0 0 0 0 0 0 0 
0 0 0 0 0 0 0 0 0 0 0 0 0 0 0 0 0 0 0 0 0 0 0 0 0 0 0 0 0 0 13981 0 0 27608 0 0 27839 0 0 27562 0 0 27754 0 0 27815 0 0 27388 0 0 27794 0 0 27837 0 0 27900 0 0 27816 0 0 27677 0 0 27567 0 0 27949 0 0 27664 0 0 27537 0 0 27840 0 0 27960 0 0 27560 0 0 27538 0 0 27758 0 0 27810 0 0 27849 0 0 27479 0 0 27715 0 0 27977 0 0 27787 0 0 27678 0 0 27668 0 0 27959 0 0 27549 0 0 27836 0 0 27660 0 0 27528 0 0 27948 0 0 27831 0 0 27948 0 0 27765 0 0 27781 0 0 27736 0 0 13988 0 0 0 0 0 0 0 0 0 0 0 0 0 0 0 0 0 0 0 0 0 0 0 0 0 0 0 0 0 
0 0 0 0 0 0 0 0 0 0 0 0 0 0 0 0 0 0 0 0 0 0 0 0 0 0 0 0 0 0 13769 0 0 28014 0 0 27506 0 0 27539 0 0 27488 0 0 27485 0 0 27850 0 0 27516 0 0 27617 0 0 27420 0 0 27643 0 0 27667 0 0 27974 0 0 27687 0 0 27489 0 0 27598 0 0 27723 0 0 27457 0 0 27800 0 0 27782 0 0 27655 0 0 27614 0 0 27799 0 0 27671 0 0 27552 0 0 27406 0 0 27586 0 0 27775 0 0 27763 0 0 27521 0 0 27589 0 0 27614 0 0 27730 0 0 27301 0 0 27652 0 0 27855 0 0 27849 0 0 27549 0 0 27799 0 0 27488 0 0 13808 0 0 0 0 0 0 0 0 0 0 0 0 0 0 0 0 0 0 0 0 0 0 0 0 0 0 0 0 0 
0 0 0 0 0 0 0 0 0 0 0 0 0 0 0 0 0 0 0 0 0 0 0 0 0 0 0 0 0 0 13853 0 0 27742 0 0 27558 0 0 28026 0 0 27688 0 0 27803 0 0 27793 0 0 27562 0 0 27679 0 0 27809 0 0 27704 0 0 27571 0 0 27848 0 0 27533 0 0 27631 0 0 27530 0 0 28001 0 0 27528 0 0 27870 0 0 27574 0 0 27661 0 0 27711 0 0 27620 0 0 27640 0 0 27763 0 0 27795 0 0 27747 0 0 27836 0 0 27672 0 0 27448 0 0 27738 0 0 27641 0 0 27314 0 0 27761 0 0 27891 0 0 27705 0 0 27733 0 0 27875 0 0 27259 0 0 27535 0 0 13773 0 0 0 0 0 0 0 0 0 0 0 0 0 0 0 0 0 0 0 0 0 0 0 0 0 0 0 0 0 
0 0 0 0 0 0 0 0 0 0 0 0 0 0 0 0 0 0 0 0 0 0 0 0 0 0 0 0 0 0 13766 0 0 27852 0 0 27802 0 0 27853 0 0 27405 0 0 27779 0 0 27812 0 0 27837 0 0 27477 0 0 27575 0 0 27844 0 0 27509 0 0 27539 0 0 27921 0 0 27703 0 0 27679 0 0 27518 0 0 27983 0 0 27763 0 0 27090 0 0 27887 0 0 27591 0 0 27855 0 0 27265 0 0 27807 0 0 27606 0 0 27504 0 0 27709 0 0 27829 0 0 27461 0 0 27680 0 0 27742 0 0 27845 0 0 27508 0 0 27687 0 0 27665 0 0 27532 0 0 27945 0 0 27776 0 0 27626 0 0 13835 0 0 0 0 0 0 0 0 0 0 0 0 0 0 0 0 0 0 0 0 0 0 0 0 0 0 0 0 0 
0 0 0 0 0 0 0 0 0 0 0 0 0 0 0 0 0 0 0 0 0 0 0 0 0 0 0 0 0 0 13844 0 0 27782 0 0 27954 0 0 27641 0 0 27889 0 0 27745 0 0 27617 0 0 27697 0 0 27446 0 0 27829 0 0 27825 0 0 27714 0 0 27687 0 0 27829 0 0 27634 0 0 27732 0 0 27769 0 0 27656 0 0 27813 0 0 27916 0 0 27389 0 0 27776 0 0 27725 0 0 27817 0 0 27961 0 0 27655 0 0 27568 0 0 27743 0 0 27606 0 0 27625 0 0 27740 0 0 27568 0 0 27860 0 0 27729 0 0 27795 0 0 27800 0 0 27919 0 0 27884 0 0 27500 0 0 27435 0 0 14107 0 0 0 0 0 0 0 0 0 0 0 0 0 0 0 0 0 0 0 0 0 0 0 0 0 0 0 0 0 
0 0 0 0 0 0 0 0 0 0 0 0 0 0 0 0 0 0 0 0 0 0 0 0 0 0 0 0 0 0 14070 0 0 27684 0 0 27807 0 0 27574 0 0 28272 0 0 28104 0 0 27785 0 0 27567 0 0 27604 0 0 27855 0 0 27756 0 0 27790 0 0 27706 0 0 27442 0 0 27710 0 0 27787 0 0 27496 0 0 27927 0 0 27758 0 0 27510 0 0 27758 0 0 27580 0 0 27422 0 0 27780 0 0 27404 0 0 27387 0 0 27882 0 0 27371 0 0 27823 0 0 27544 0 0 27635 0 0 27532 0 0 27810 0 0 28130 0 0 27686 0 0 27789 0 0 27520 0 0 27712 0 0 27784 0 0 27821 0 0 13847 0 0 0 0 0 0 0 0 0 0 0 0 0 0 0 0 0 0 0 0 0 0 0 0 0 0 0 0 0 
0 0 0 0 0 0 0 0 0 0 0 0 0 0 0 0 0 0 0 0 0 0 0 0 0 0 0 0 0 0 13768 0 0 27947 0 0 27862 0 0 27787 0 0 27604 0 0 27875 0 0 27999 0 0 27803 0 0 27718 0 0 27739 0 0 27830 0 0 28077 0 0 27730 0 0 27281 0 0 27716 0 0 27546 0 0 27610 0 0 27919 0 0 27475 0 0 27695 0 0 27461 0 0 27844 0 0 27418 0 0 27725 0 0 27504 0 0 27512 0 0 27697 0 0 27522 0 0 27939 0 0 27724 0 0 27938 0 0 27721 0 0 27628 0 0 27840 0 0 27692 0 0 27467 0 0 27918 0 0 27671 0 0 27579 0 0 27924 0 0 13938 0 0 0 0 0 0 0 0 0 0 0 0 0 0 0 0 0 0 0 0 0 0 0 0 0 0 0 0 0 
0 0 0 0 0 0 0 0 0 0 0 0 0 0 0 0 0 0 0 0 0 0 0 0 0 0 0 0 0 0 13713 0 0 27638 0 0 27776 0 0 27839 0 0 27670 0 0 27882 0 0 27516 0 0 27710 0 0 27680 0 0 27462 0 0 27914 0 0 27688 0 0 28034 0 0 27608 0 0 28030 0 0 27854 0 0 27691 0 0 27802 0 0 27780 0 0 27829 0 0 27787 0 0 28009 0 0 27710 0 0 27754 0 0 27686 0 0 27793 0 0 27668 0 0 27633 0 0 27897 0 0 27687 0 0 27648 0 0 27616 0 0 27836 0 0 27959 0 0 27600 0 0 27711 0 0 27784 0 0 27560 0 0 27747 0 0 27942 0 0 13767 0 0 0 0 0 0 0 0 0 0 0 0 0 0 0 0 0 0 0 0 0 0 0 0 0 0 0 0 0 
0 0 0 0 0 0 0 0 0 0 0 0 0 0 0 0 0 0 0 0 0 0 0 0 0 0 0 0 0 0 13625 0 0 27619 0 0 27717 0 0 27609 0 0 27729 0 0 27520 0 0 27825 0 0 27772 0 0 27480 0 0 27612 0 0 27726 0 0 27651 0 0 28035 0 0 27918 0 0 27502 0 0 27716 0 0 27669 0 0 27824 0 0 27875 0 0 27531 0 0 27724 0 0 27836 0 0 27847 0 0 27642 0 0 27550 0 0 27647 0 0 27784 0 0 27786 0 0 28043 0 0 27775 0 0 27725 0 0 27627 0 0 28050 0 0 27694 0 0 27653 0 0 27856 0 0 27429 0 0 27987 0 0 27712 0 0 27786 0 0 13696 0 0 0 0 0 0 0 0 0 0 0 0 0 0 0 0 0 0 0 0 0 0 0 0 0 0 0 0 0 
0 0 0 0 0 0 0 0 0 0 0 0 0 0 0 0 0 0 0 0 0 0 0 0 0 0 0 0 0 0 13871 0 0 27484 0 0 27729 0 0 27520 0 0 27547 0 0 27809 0 0 27829 0 0 27740 0 0 27848 0 0 27769 0 0 27558 0 0 27746 0 0 27786 0 0 27902 0 0 27719 0 0 27416 0 0 27851 0 0 27694 0 0 27675 0 0 27523 0 0 27489 0 0 27313 0 0 27768 0 0 27986 0 0 27656 0 0 27560 0 0 27679 0 0 27903 0 0 27576 0 0 27768 0 0 27867 0 0 27751 0 0 27610 0 0 27717 0 0 27450 0 0 27815 0 0 27675 0 0 27841 0 0 27701 0 0 27552 0 0 13918 0 0 0 0 0 0 0 0 0 0 0 0 0 0 0 0 0 0 0 0 0 0 0 0 0 0 0 0 0 
0 0 0 0 0 0 0 0 0 0 0 0 0 0 0 0 0 0 0 0 0 0 0 0 0 0 0 0 0 0 13577 0 0 27863 0 0 27431 0 0 27978 0 0 28141 0 0 27606 0 0 27738 0 0 28003 0 0 27696 0 0 27925 0 0 27606 0 0 27482 0 0 27557 0 0 27892 0 0 27696 0 0 27893 0 0 27722 0 0 27562 0 0 27544 0 0 27695 0 0 27860 0 0 27707 0 0 27608 0 0 27905 0 0 27896 0 0 27672 0 0 27743 0 0 27975 0 0 27873 0 0 27587 0 0 27644 0 0 27702 0 0 27949 0 0 27781 0 0 27887 0 0 27771 0 0 27663 0 0 27531 0 0 27647 0 0 27771 0 0 13783 0 0 0 0 0 0 0 0 0 0 0 0 0 0 0 0 0 0 0 0 0 0 0 0 0 0 0 0 0 
0 0 0 0 0 0 0 0 0 0 0 0 0 0 0 0 0 0 0 0 0 0 0 0 0 0 0 0 0 0 6880 0 0 13770 0 0 13793 0 0 13796 0 0 13858 0 0 13940 0 0 13643 0 0 13839 0 0 13746 0 0 13946 0 0 13634 0 0 13875 0 0 13977 0 0 13904 0 0 13932 0 0 13897 0 0 13931 0 0 13874 0 0 13879 0 0 13839 0 0 14226 0 0 13889 0 0 13791 0 0 13725 0 0 13820 0 0 13972 0 0 13756 0 0 13861 0 0 13900 0 0 13810 0 0 13647 0 0 13737 0 0 13660 0 0 14048 0 0 13618 0 0 13787 0 0 13950 0 0 14048 0 0 14066 0 0 13750 0 0 6894 0 0 0 0 0 0 0 0 0 0 0 0 0 0 0 0 0 0 0 0 0 0 0 0 0 0 0 0 0 
0 0 0 0 0 0 0 0 0 0 0 0 0 0 0 0 0 0 0 0 0 0 0 0 0 0 0 0 0 0 0 0 0 0 0 0 0 0 0 0 0 0 0 0 0 0 0 0 0 0 0 0 0 0 0 0 0 0 0 0 0 0 0 0 0 0 0 0 0 0 0 0 0 0 0 0 0 0 0 0 0 0 0 0 0 0 0 0 0 0 0 0 0 0 0 0 0 0 0 0 0 0 0 0 0 0 0 0 0 0 0 0 0 0 0 0 0 0 0 0 0 0 0 0 0 0 0 0 0 0 0 0 0 0 0 0 0 0 0 0 0 0 0 0 0 0 0 0 0 0 0 0 0 0 0 0 0 0 0 0 0 0 0 0 0 0 0 0 0 0 0 0 0 0 0 0 0 0 0 0 
0 0 0 0 0 0 0 0 0 0 0 0 0 0 0 0 0 0 0 0 0 0 0 0 0 0 0 0 0 0 0 0 0 0 0 0 0 0 0 0 0 0 0 0 0 0 0 0 0 0 0 0 0 0 0 0 0 0 0 0 0 0 0 0 0 0 0 0 0 0 0 0 0 0 0 0 0 0 0 0 0 0 0 0 0 0 0 0 0 0 0 0 0 0 0 0 0 0 0 0 0 0 0 0 0 0 0 0 0 0 0 0 0 0 0 0 0 0 0 0 0 0 0 0 0 0 0 0 0 0 0 0 0 0 0 0 0 0 0 0 0 0 0 0 0 0 0 0 0 0 0 0 0 0 0 0 0 0 0 0 0 0 0 0 0 0 0 0 0 0 0 0 0 0 0 0 0 0 0 0 
0 0 0 0 0 0 0 0 0 0 0 0 0 0 0 0 0 0 0 0 0 0 0 0 0 0 0 0 0 0 0 0 0 0 0 0 0 0 0 0 0 0 0 0 0 0 0 0 0 0 0 0 0 0 0 0 0 0 0 0 0 0 0 0 0 0 0 0 0 0 0 0 0 0 0 0 0 0 0 0 0 0 0 0 0 0 0 0 0 0 0 0 0 0 0 0 0 0 0 0 0 0 0 0 0 0 0 0 0 0 0 0 0 0 0 0 0 0 0 0 0 0 0 0 0 0 0 0 0 0 0 0 0 0 0 0 0 0 0 0 0 0 0 0 0 0 0 0 0 0 0 0 0 0 0 0 0 0 0 0 0 0 0 0 0 0 0 0 0 0 0 0 0 0 0 0 0 0 0 0 
0 0 0 0 0 0 0 0 0 0 0 0 0 0 0 0 0 0 0 0 0 0 0 0 0 0 0 0 0 0 0 0 0 0 0 0 0 0 0 0 0 0 0 0 0 0 0 0 0 0 0 0 0 0 0 0 0 0 0 0 0 0 0 0 0 0 0 0 0 0 0 0 0 0 0 0 0 0 0 0 0 0 0 0 0 0 0 0 0 0 0 0 0 0 0 0 0 0 0 0 0 0 0 0 0 0 0 0 0 0 0 0 0 0 0 0 0 0 0 0 0 0 0 0 0 0 0 0 0 0 0 0 0 0 0 0 0 0 0 0 0 0 0 0 0 0 0 0 0 0 0 0 0 0 0 0 0 0 0 0 0 0 0 0 0 0 0 0 0 0 0 0 0 0 0 0 0 0 0 0 
0 0 0 0 0 0 0 0 0 0 0 0 0 0 0 0 0 0 0 0 0 0 0 0 0 0 0 0 0 0 0 0 0 0 0 0 0 0 0 0 0 0 0 0 0 0 0 0 0 0 0 0 0 0 0 0 0 0 0 0 0 0 0 0 0 0 0 0 0 0 0 0 0 0 0 0 0 0 0 0 0 0 0 0 0 0 0 0 0 0 0 0 0 0 0 0 0 0 0 0 0 0 0 0 0 0 0 0 0 0 0 0 0 0 0 0 0 0 0 0 0 0 0 0 0 0 0 0 0 0 0 0 0 0 0 0 0 0 0 0 0 0 0 0 0 0 0 0 0 0 0 0 0 0 0 0 0 0 0 0 0 0 0 0 0 0 0 0 0 0 0 0 0 0 0 0 0 0 0 0 
0 0 0 0 0 0 0 0 0 0 0 0 0 0 0 0 0 0 0 0 0 0 0 0 0 0 0 0 0 0 0 0 0 0 0 0 0 0 0 0 0 0 0 0 0 0 0 0 0 0 0 0 0 0 0 0 0 0 0 0 0 0 0 0 0 0 0 0 0 0 0 0 0 0 0 0 0 0 0 0 0 0 0 0 0 0 0 0 0 0 0 0 0 0 0 0 0 0 0 0 0 0 0 0 0 0 0 0 0 0 0 0 0 0 0 0 0 0 0 0 0 0 0 0 0 0 0 0 0 0 0 0 0 0 0 0 0 0 0 0 0 0 0 0 0 0 0 0 0 0 0 0 0 0 0 0 0 0 0 0 0 0 0 0 0 0 0 0 0 0 0 0 0 0 0 0 0 0 0 0 
0 0 0 0 0 0 0 0 0 0 0 0 0 0 0 0 0 0 0 0 0 0 0 0 0 0 0 0 0 0 0 0 0 0 0 0 0 0 0 0 0 0 0 0 0 0 0 0 0 0 0 0 0 0 0 0 0 0 0 0 0 0 0 0 0 0 0 0 0 0 0 0 0 0 0 0 0 0 0 0 0 0 0 0 0 0 0 0 0 0 0 0 0 0 0 0 0 0 0 0 0 0 0 0 0 0 0 0 0 0 0 0 0 0 0 0 0 0 0 0 0 0 0 0 0 0 0 0 0 0 0 0 0 0 0 0 0 0 0 0 0 0 0 0 0 0 0 0 0 0 0 0 0 0 0 0 0 0 0 0 0 0 0 0 0 0 0 0 0 0 0 0 0 0 0 0 0 0 0 0 
0 0 0 0 0 0 0 0 0 0 0 0 0 0 0 0 0 0 0 0 0 0 0 0 0 0 0 0 0 0 0 0 0 0 0 0 0 0 0 0 0 0 0 0 0 0 0 0 0 0 0 0 0 0 0 0 0 0 0 0 0 0 0 0 0 0 0 0 0 0 0 0 0 0 0 0 0 0 0 0 0 0 0 0 0 0 0 0 0 0 0 0 0 0 0 0 0 0 0 0 0 0 0 0 0 0 0 0 0 0 0 0 0 0 0 0 0 0 0 0 0 0 0 0 0 0 0 0 0 0 0 0 0 0 0 0 0 0 0 0 0 0 0 0 0 0 0 0 0 0 0 0 0 0 0 0 0 0 0 0 0 0 0 0 0 0 0 0 0 0 0 0 0 0 0 0 0 0 0 0 
0 0 0 0 0 0 0 0 0 0 0 0 0 0 0 0 0 0 0 0 0 0 0 0 0 0 0 0 0 0 0 0 0 0 0 0 0 0 0 0 0 0 0 0 0 0 0 0 0 0 0 0 0 0 0 0 0 0 0 0 0 0 0 0 0 0 0 0 0 0 0 0 0 0 0 0 0 0 0 0 0 0 0 0 0 0 0 0 0 0 0 0 0 0 0 0 0 0 0 0 0 0 0 0 0 0 0 0 0 0 0 0 0 0 0 0 0 0 0 0 0 0 0 0 0 0 0 0 0 0 0 0 0 0 0 0 0 0 0 0 0 0 0 0 0 0 0 0 0 0 0 0 0 0 0 0 0 0 0 0 0 0 0 0 0 0 0 0 0 0 0 0 0 0 0 0 0 0 0 0 
