P3
# This is a dose file slice at depth 47 of 100
60 60
# now we give the maximum value of the RGB coordinates.
32965
0 0 0 2 0 0 0 0 0 2 0 0 5 0 0 1 0 0 4 0 0 2 0 0 2 0 0 1 0 0 2 0 0 2 0 0 0 0 0 2 0 0 2 0 0 1 0 0 3 0 0 3 0 0 1 0 0 2 0 0 2 0 0 2 0 0 3 0 0 2 0 0 2 0 0 3 0 0 2 0 0 3 0 0 0 0 0 5 0 0 9 0 0 3 0 0 1 0 0 0 0 0 3 0 0 1 0 0 4 0 0 4 0 0 2 0 0 5 0 0 3 0 0 4 0 0 1 0 0 0 0 0 2 0 0 2 0 0 3 0 0 3 0 0 1 0 0 1 0 0 0 0 0 2 0 0 2 0 0 3 0 0 0 0 0 4 0 0 1 0 0 0 0 0 0 0 0 2 0 0 
1 0 0 2 0 0 2 0 0 1 0 0 4 0 0 5 0 0 4 0 0 4 0 0 2 0 0 5 0 0 3 0 0 7 0 0 5 0 0 7 0 0 6 0 0 6 0 0 9 0 0 7 0 0 5 0 0 7 0 0 5 0 0 4 0 0 4 0 0 5 0 0 3 0 0 9 0 0 8 0 0 11 0 0 5 0 0 8 0 0 10 0 0 10 0 0 7 0 0 11 0 0 9 0 0 5 0 0 10 0 0 12 0 0 9 0 0 11 0 0 6 0 0 8 0 0 2 0 0 0 0 0 3 0 0 7 0 0 6 0 0 11 0 0 3 0 0 4 0 0 2 0 0 3 0 0 4 0 0 3 0 0 3 0 0 6 0 0 1 0 0 1 0 0 2 0 0 4 0 0 
2 0 0 5 0 0 5 0 0 1 0 0 2 0 0 4 0 0 6 0 0 4 0 0 3 0 0 6 0 0 9 0 0 4 0 0 1 0 0 8 0 0 7 0 0 9 0 0 15 0 0 13 0 0 4 0 0 8 0 0 10 0 0 12 0 0 9 0 0 8 0 0 5 0 0 6 0 0 7 0 0 9 0 0 6 0 0 6 0 0 3 0 0 9 0 0 9 0 0 13 0 0 6 0 0 3 0 0 12 0 0 13 0 0 8 0 0 6 0 0 7 0 0 9 0 0 3 0 0 6 0 0 6 0 0 9 0 0 10 0 0 7 0 0 5 0 0 6 0 0 0 0 0 7 0 0 4 0 0 7 0 0 4 0 0 5 0 0 2 0 0 3 0 0 5 0 0 3 0 0 
0 0 0 0 0 0 1 0 0 2 0 0 3 0 0 1 0 0 6 0 0 6 0 0 5 0 0 6 0 0 5 0 0 3 0 0 1 0 0 4 0 0 3 0 0 12 0 0 3 0 0 12 0 0 9 0 0 9 0 0 13 0 0 7 0 0 8 0 0 6 0 0 7 0 0 9 0 0 9 0 0 10 0 0 7 0 0 5 0 0 6 0 0 10 0 0 9 0 0 13 0 0 7 0 0 5 0 0 6 0 0 10 0 0 12 0 0 10 0 0 8 0 0 5 0 0 2 0 0 9 0 0 9 0 0 10 0 0 9 0 0 6 0 0 7 0 0 3 0 0 4 0 0 3 0 0 5 0 0 5 0 0 5 0 0 4 0 0 2 0 0 3 0 0 5 0 0 4 0 0 
0 0 0 4 0 0 4 0 0 4 0 0 3 0 0 7 0 0 3 0 0 4 0 0 8 0 0 8 0 0 3 0 0 5 0 0 6 0 0 4 0 0 5 0 0 4 0 0 9 0 0 9 0 0 10 0 0 12 0 0 7 0 0 9 0 0 10 0 0 6 0 0 12 0 0 12 0 0 12 0 0 12 0 0 9 0 0 11 0 0 8 0 0 6 0 0 10 0 0 11 0 0 10 0 0 8 0 0 9 0 0 7 0 0 13 0 0 9 0 0 12 0 0 8 0 0 9 0 0 14 0 0 7 0 0 8 0 0 8 0 0 11 0 0 6 0 0 4 0 0 6 0 0 4 0 0 6 0 0 8 0 0 6 0 0 3 0 0 1 0 0 4 0 0 1 0 0 1 0 0 
2 0 0 5 0 0 2 0 0 8 0 0 8 0 0 2 0 0 4 0 0 2 0 0 8 0 0 8 0 0 4 0 0 4 0 0 9 0 0 5 0 0 6 0 0 7 0 0 10 0 0 11 0 0 11 0 0 9 0 0 8 0 0 11 0 0 12 0 0 6 0 0 11 0 0 14 0 0 18 0 0 20 0 0 14 0 0 11 0 0 9 0 0 7 0 0 12 0 0 8 0 0 8 0 0 16 0 0 12 0 0 9 0 0 15 0 0 16 0 0 12 0 0 9 0 0 9 0 0 8 0 0 14 0 0 11 0 0 10 0 0 12 0 0 5 0 0 8 0 0 12 0 0 5 0 0 5 0 0 9 0 0 3 0 0 4 0 0 6 0 0 6 0 0 3 0 0 5 0 0 
3 0 0 4 0 0 3 0 0 2 0 0 3 0 0 8 0 0 5 0 0 5 0 0 5 0 0 11 0 0 12 0 0 6 0 0 10 0 0 12 0 0 9 0 0 11 0 0 12 0 0 15 0 0 11 0 0 12 0 0 10 0 0 13 0 0 15 0 0 14 0 0 9 0 0 11 0 0 15 0 0 10 0 0 18 0 0 17 0 0 14 0 0 13 0 0 8 0 0 15 0 0 13 0 0 24 0 0 10 0 0 12 0 0 12 0 0 22 0 0 12 0 0 15 0 0 16 0 0 9 0 0 7 0 0 10 0 0 19 0 0 6 0 0 7 0 0 11 0 0 8 0 0 3 0 0 8 0 0 4 0 0 6 0 0 8 0 0 5 0 0 3 0 0 6 0 0 4 0 0 
1 0 0 2 0 0 5 0 0 2 0 0 2 0 0 5 0 0 9 0 0 5 0 0 8 0 0 7 0 0 10 0 0 10 0 0 14 0 0 14 0 0 17 0 0 16 0 0 15 0 0 16 0 0 14 0 0 21 0 0 24 0 0 12 0 0 18 0 0 16 0 0 12 0 0 13 0 0 21 0 0 14 0 0 21 0 0 14 0 0 15 0 0 16 0 0 9 0 0 11 0 0 16 0 0 23 0 0 14 0 0 13 0 0 11 0 0 20 0 0 23 0 0 20 0 0 14 0 0 7 0 0 23 0 0 18 0 0 10 0 0 9 0 0 11 0 0 11 0 0 20 0 0 9 0 0 7 0 0 9 0 0 4 0 0 8 0 0 3 0 0 5 0 0 4 0 0 2 0 0 
2 0 0 4 0 0 2 0 0 2 0 0 2 0 0 2 0 0 5 0 0 7 0 0 10 0 0 11 0 0 9 0 0 9 0 0 14 0 0 8 0 0 11 0 0 16 0 0 20 0 0 18 0 0 22 0 0 14 0 0 32 0 0 16 0 0 22 0 0 24 0 0 24 0 0 17 0 0 23 0 0 22 0 0 22 0 0 23 0 0 19 0 0 21 0 0 14 0 0 21 0 0 22 0 0 32 0 0 18 0 0 21 0 0 18 0 0 24 0 0 26 0 0 20 0 0 23 0 0 18 0 0 22 0 0 19 0 0 6 0 0 15 0 0 19 0 0 22 0 0 13 0 0 12 0 0 7 0 0 5 0 0 7 0 0 6 0 0 10 0 0 9 0 0 3 0 0 1 0 0 
1 0 0 4 0 0 4 0 0 2 0 0 2 0 0 4 0 0 5 0 0 11 0 0 6 0 0 17 0 0 40 0 0 62 0 0 76 0 0 73 0 0 91 0 0 93 0 0 83 0 0 74 0 0 82 0 0 99 0 0 100 0 0 94 0 0 83 0 0 89 0 0 93 0 0 95 0 0 88 0 0 112 0 0 97 0 0 89 0 0 80 0 0 94 0 0 71 0 0 100 0 0 87 0 0 106 0 0 96 0 0 98 0 0 91 0 0 87 0 0 92 0 0 91 0 0 99 0 0 91 0 0 101 0 0 82 0 0 76 0 0 89 0 0 84 0 0 96 0 0 41 0 0 20 0 0 10 0 0 11 0 0 12 0 0 10 0 0 3 0 0 4 0 0 3 0 0 4 0 0 
2 0 0 6 0 0 6 0 0 3 0 0 2 0 0 9 0 0 15 0 0 10 0 0 18 0 0 46 0 0 2855 0 0 5824 0 0 5643 0 0 5747 0 0 5742 0 0 5668 0 0 5815 0 0 5757 0 0 5661 0 0 5746 0 0 5780 0 0 5793 0 0 5656 0 0 5802 0 0 5831 0 0 5701 0 0 5640 0 0 5704 0 0 5729 0 0 5716 0 0 5771 0 0 5651 0 0 5650 0 0 5756 0 0 5719 0 0 5661 0 0 5781 0 0 5743 0 0 5623 0 0 5798 0 0 5675 0 0 5718 0 0 5800 0 0 5736 0 0 5876 0 0 5749 0 0 5690 0 0 5849 0 0 5773 0 0 5541 0 0 2840 0 0 45 0 0 15 0 0 20 0 0 11 0 0 5 0 0 6 0 0 2 0 0 4 0 0 5 0 0 
3 0 0 4 0 0 8 0 0 5 0 0 4 0 0 7 0 0 8 0 0 13 0 0 12 0 0 65 0 0 5742 0 0 11294 0 0 11438 0 0 11528 0 0 11320 0 0 11280 0 0 11164 0 0 11335 0 0 11467 0 0 11471 0 0 11429 0 0 11331 0 0 11320 0 0 11273 0 0 11466 0 0 11241 0 0 11364 0 0 11520 0 0 11239 0 0 11316 0 0 11407 0 0 11363 0 0 11296 0 0 11351 0 0 11409 0 0 11397 0 0 11354 0 0 11229 0 0 11534 0 0 11220 0 0 11438 0 0 11487 0 0 11497 0 0 11336 0 0 11319 0 0 11277 0 0 11462 0 0 11305 0 0 11386 0 0 11167 0 0 5734 0 0 79 0 0 16 0 0 14 0 0 6 0 0 6 0 0 11 0 0 6 0 0 5 0 0 7 0 0 
4 0 0 8 0 0 4 0 0 8 0 0 7 0 0 8 0 0 4 0 0 14 0 0 14 0 0 82 0 0 5760 0 0 11322 0 0 11616 0 0 11540 0 0 11544 0 0 11299 0 0 11402 0 0 11424 0 0 11321 0 0 11322 0 0 11163 0 0 11474 0 0 11501 0 0 11417 0 0 11343 0 0 11462 0 0 11447 0 0 11457 0 0 11528 0 0 11406 0 0 11369 0 0 11388 0 0 11369 0 0 11593 0 0 11431 0 0 11383 0 0 11483 0 0 11306 0 0 11350 0 0 11416 0 0 11425 0 0 11367 0 0 11562 0 0 11533 0 0 11279 0 0 11615 0 0 11243 0 0 11322 0 0 11477 0 0 11321 0 0 5687 0 0 102 0 0 15 0 0 14 0 0 13 0 0 9 0 0 6 0 0 9 0 0 8 0 0 9 0 0 
0 0 0 2 0 0 8 0 0 7 0 0 11 0 0 13 0 0 14 0 0 14 0 0 17 0 0 100 0 0 5744 0 0 11399 0 0 11454 0 0 11437 0 0 11253 0 0 11333 0 0 11430 0 0 11399 0 0 11563 0 0 11221 0 0 11538 0 0 11245 0 0 11398 0 0 11423 0 0 11259 0 0 11556 0 0 11291 0 0 11334 0 0 11408 0 0 11285 0 0 11472 0 0 11404 0 0 11401 0 0 11420 0 0 11371 0 0 11486 0 0 11407 0 0 11415 0 0 11573 0 0 11556 0 0 11397 0 0 11349 0 0 11337 0 0 11429 0 0 11382 0 0 11432 0 0 11408 0 0 11407 0 0 11370 0 0 11293 0 0 5784 0 0 87 0 0 13 0 0 13 0 0 4 0 0 11 0 0 7 0 0 8 0 0 10 0 0 7 0 0 
3 0 0 5 0 0 6 0 0 8 0 0 10 0 0 14 0 0 13 0 0 8 0 0 15 0 0 91 0 0 5760 0 0 11347 0 0 11497 0 0 11380 0 0 11414 0 0 11487 0 0 11305 0 0 11368 0 0 11463 0 0 11479 0 0 11324 0 0 11474 0 0 11393 0 0 11453 0 0 11515 0 0 11334 0 0 11185 0 0 11400 0 0 11351 0 0 11354 0 0 11488 0 0 11334 0 0 11535 0 0 11515 0 0 11395 0 0 11581 0 0 11385 0 0 11588 0 0 11372 0 0 11226 0 0 11414 0 0 11477 0 0 11378 0 0 11498 0 0 11418 0 0 11496 0 0 11550 0 0 11539 0 0 11226 0 0 11289 0 0 5722 0 0 91 0 0 19 0 0 10 0 0 12 0 0 11 0 0 10 0 0 12 0 0 6 0 0 9 0 0 
1 0 0 6 0 0 9 0 0 11 0 0 9 0 0 10 0 0 14 0 0 11 0 0 16 0 0 94 0 0 5561 0 0 11495 0 0 11402 0 0 11432 0 0 11333 0 0 11424 0 0 11491 0 0 11441 0 0 11645 0 0 11486 0 0 11473 0 0 11337 0 0 11584 0 0 11375 0 0 11317 0 0 11482 0 0 11626 0 0 11470 0 0 11484 0 0 11217 0 0 11453 0 0 11386 0 0 11326 0 0 11298 0 0 11448 0 0 11524 0 0 11337 0 0 11263 0 0 11581 0 0 11358 0 0 11480 0 0 11427 0 0 11327 0 0 11512 0 0 11413 0 0 11476 0 0 11453 0 0 11660 0 0 11404 0 0 11193 0 0 5665 0 0 99 0 0 22 0 0 18 0 0 8 0 0 12 0 0 10 0 0 7 0 0 8 0 0 9 0 0 
6 0 0 7 0 0 7 0 0 12 0 0 7 0 0 11 0 0 12 0 0 17 0 0 20 0 0 82 0 0 5731 0 0 11395 0 0 11326 0 0 11376 0 0 11427 0 0 11270 0 0 11617 0 0 11428 0 0 11607 0 0 11556 0 0 11325 0 0 11383 0 0 11494 0 0 11388 0 0 11414 0 0 11494 0 0 11617 0 0 11420 0 0 11446 0 0 11328 0 0 11306 0 0 11514 0 0 11478 0 0 11420 0 0 11583 0 0 11489 0 0 11470 0 0 11507 0 0 11381 0 0 11381 0 0 11400 0 0 11464 0 0 11508 0 0 11447 0 0 11491 0 0 11247 0 0 11564 0 0 11451 0 0 11631 0 0 11240 0 0 5618 0 0 94 0 0 18 0 0 21 0 0 16 0 0 15 0 0 12 0 0 9 0 0 10 0 0 8 0 0 
1 0 0 4 0 0 6 0 0 5 0 0 9 0 0 9 0 0 18 0 0 23 0 0 25 0 0 90 0 0 5784 0 0 11262 0 0 11441 0 0 11245 0 0 11664 0 0 11557 0 0 11387 0 0 11483 0 0 11425 0 0 11340 0 0 11481 0 0 11572 0 0 11445 0 0 11441 0 0 11448 0 0 11292 0 0 11549 0 0 11450 0 0 11399 0 0 11252 0 0 11542 0 0 11270 0 0 11536 0 0 11232 0 0 11680 0 0 11559 0 0 11399 0 0 11299 0 0 11458 0 0 11697 0 0 11386 0 0 11404 0 0 11503 0 0 11318 0 0 11340 0 0 11500 0 0 11252 0 0 11374 0 0 11427 0 0 11343 0 0 5745 0 0 91 0 0 18 0 0 7 0 0 14 0 0 10 0 0 5 0 0 6 0 0 8 0 0 9 0 0 
1 0 0 3 0 0 7 0 0 9 0 0 5 0 0 6 0 0 9 0 0 10 0 0 13 0 0 84 0 0 5710 0 0 11490 0 0 11414 0 0 11414 0 0 11279 0 0 11336 0 0 11499 0 0 11248 0 0 11272 0 0 11408 0 0 11576 0 0 11526 0 0 11345 0 0 11264 0 0 11501 0 0 11508 0 0 11396 0 0 11615 0 0 11441 0 0 11356 0 0 11572 0 0 11394 0 0 11590 0 0 11505 0 0 11436 0 0 11553 0 0 11414 0 0 11362 0 0 11423 0 0 11409 0 0 11389 0 0 11469 0 0 11500 0 0 11414 0 0 11663 0 0 11483 0 0 11495 0 0 11439 0 0 11336 0 0 11372 0 0 5801 0 0 80 0 0 16 0 0 15 0 0 12 0 0 14 0 0 6 0 0 5 0 0 9 0 0 5 0 0 
3 0 0 7 0 0 9 0 0 9 0 0 12 0 0 9 0 0 9 0 0 16 0 0 18 0 0 92 0 0 5694 0 0 11436 0 0 11447 0 0 11425 0 0 11528 0 0 11403 0 0 11495 0 0 11436 0 0 11539 0 0 11465 0 0 11424 0 0 11565 0 0 11446 0 0 11395 0 0 11339 0 0 11462 0 0 11578 0 0 11249 0 0 11497 0 0 11364 0 0 11481 0 0 11387 0 0 11367 0 0 11437 0 0 11426 0 0 11467 0 0 11445 0 0 11622 0 0 11382 0 0 11640 0 0 11444 0 0 11511 0 0 11363 0 0 11194 0 0 11514 0 0 11492 0 0 11399 0 0 11654 0 0 11553 0 0 11351 0 0 5767 0 0 82 0 0 18 0 0 10 0 0 9 0 0 4 0 0 4 0 0 6 0 0 8 0 0 5 0 0 
5 0 0 12 0 0 11 0 0 13 0 0 8 0 0 10 0 0 8 0 0 13 0 0 24 0 0 84 0 0 5613 0 0 11465 0 0 11450 0 0 11561 0 0 11364 0 0 11354 0 0 11430 0 0 11553 0 0 11478 0 0 11570 0 0 11316 0 0 11503 0 0 11463 0 0 11203 0 0 11354 0 0 11397 0 0 11417 0 0 11282 0 0 11487 0 0 11515 0 0 11412 0 0 11382 0 0 11266 0 0 11498 0 0 11442 0 0 11513 0 0 11503 0 0 11353 0 0 11377 0 0 11511 0 0 11404 0 0 11445 0 0 11569 0 0 11301 0 0 11375 0 0 11305 0 0 11354 0 0 11267 0 0 11487 0 0 11202 0 0 5667 0 0 79 0 0 24 0 0 14 0 0 9 0 0 11 0 0 5 0 0 5 0 0 9 0 0 10 0 0 
0 0 0 5 0 0 5 0 0 6 0 0 11 0 0 19 0 0 15 0 0 14 0 0 21 0 0 88 0 0 5831 0 0 11328 0 0 11445 0 0 11445 0 0 11177 0 0 11466 0 0 11455 0 0 11580 0 0 11543 0 0 11336 0 0 11477 0 0 11385 0 0 11429 0 0 11372 0 0 11365 0 0 11604 0 0 11339 0 0 11337 0 0 11401 0 0 11541 0 0 11324 0 0 11331 0 0 11470 0 0 11465 0 0 11399 0 0 11473 0 0 11511 0 0 11387 0 0 11321 0 0 11540 0 0 11492 0 0 11387 0 0 11474 0 0 11572 0 0 11657 0 0 11369 0 0 11322 0 0 11440 0 0 11435 0 0 11485 0 0 5645 0 0 87 0 0 20 0 0 16 0 0 15 0 0 14 0 0 12 0 0 9 0 0 9 0 0 10 0 0 
3 0 0 8 0 0 4 0 0 5 0 0 9 0 0 9 0 0 11 0 0 16 0 0 20 0 0 87 0 0 5696 0 0 11361 0 0 11552 0 0 11688 0 0 11383 0 0 11433 0 0 11193 0 0 11533 0 0 11314 0 0 11433 0 0 11560 0 0 11345 0 0 11351 0 0 11361 0 0 11471 0 0 11419 0 0 11227 0 0 11441 0 0 11485 0 0 11379 0 0 11373 0 0 11474 0 0 11412 0 0 11341 0 0 11549 0 0 11504 0 0 11433 0 0 11507 0 0 11535 0 0 11449 0 0 11400 0 0 11628 0 0 11271 0 0 11393 0 0 11361 0 0 11358 0 0 11387 0 0 11338 0 0 11435 0 0 11451 0 0 5743 0 0 91 0 0 26 0 0 12 0 0 13 0 0 9 0 0 8 0 0 12 0 0 11 0 0 6 0 0 
0 0 0 4 0 0 13 0 0 9 0 0 9 0 0 12 0 0 17 0 0 20 0 0 22 0 0 98 0 0 5801 0 0 11347 0 0 11386 0 0 11479 0 0 11362 0 0 11371 0 0 11332 0 0 11683 0 0 11436 0 0 11322 0 0 11459 0 0 11268 0 0 11487 0 0 11450 0 0 11402 0 0 11527 0 0 11443 0 0 11538 0 0 11390 0 0 11322 0 0 11328 0 0 11375 0 0 11358 0 0 11350 0 0 11270 0 0 11473 0 0 11459 0 0 11717 0 0 11488 0 0 11566 0 0 11375 0 0 11484 0 0 11375 0 0 11418 0 0 11478 0 0 11228 0 0 11588 0 0 11455 0 0 11468 0 0 11137 0 0 5805 0 0 81 0 0 16 0 0 13 0 0 11 0 0 14 0 0 10 0 0 7 0 0 5 0 0 5 0 0 
3 0 0 7 0 0 6 0 0 6 0 0 12 0 0 17 0 0 16 0 0 22 0 0 26 0 0 83 0 0 5676 0 0 11516 0 0 11425 0 0 11378 0 0 11362 0 0 11447 0 0 11496 0 0 11561 0 0 11212 0 0 11444 0 0 11493 0 0 11470 0 0 11448 0 0 11427 0 0 11335 0 0 11507 0 0 11211 0 0 11411 0 0 11307 0 0 11330 0 0 11388 0 0 11409 0 0 11313 0 0 11451 0 0 11308 0 0 11566 0 0 11494 0 0 11406 0 0 11366 0 0 11436 0 0 11579 0 0 11367 0 0 11296 0 0 11544 0 0 11406 0 0 11382 0 0 11422 0 0 11397 0 0 11374 0 0 11438 0 0 5724 0 0 84 0 0 19 0 0 18 0 0 15 0 0 6 0 0 12 0 0 10 0 0 10 0 0 11 0 0 
2 0 0 10 0 0 1 0 0 3 0 0 6 0 0 5 0 0 11 0 0 11 0 0 25 0 0 107 0 0 5753 0 0 11340 0 0 11512 0 0 11483 0 0 11487 0 0 11556 0 0 11536 0 0 11453 0 0 11405 0 0 11562 0 0 11415 0 0 11578 0 0 11378 0 0 11388 0 0 11645 0 0 11388 0 0 11513 0 0 11471 0 0 11453 0 0 11541 0 0 11499 0 0 11466 0 0 11286 0 0 11384 0 0 11543 0 0 11403 0 0 11463 0 0 11477 0 0 11475 0 0 11314 0 0 11488 0 0 11633 0 0 11542 0 0 11484 0 0 11494 0 0 11552 0 0 11419 0 0 11422 0 0 11475 0 0 11216 0 0 5693 0 0 103 0 0 16 0 0 16 0 0 14 0 0 14 0 0 10 0 0 8 0 0 10 0 0 6 0 0 
5 0 0 9 0 0 8 0 0 9 0 0 7 0 0 8 0 0 9 0 0 14 0 0 29 0 0 87 0 0 5599 0 0 11411 0 0 11474 0 0 11494 0 0 11451 0 0 11455 0 0 11314 0 0 11560 0 0 11472 0 0 11366 0 0 11672 0 0 11327 0 0 11407 0 0 11384 0 0 11330 0 0 11379 0 0 11443 0 0 11298 0 0 11410 0 0 11341 0 0 11435 0 0 11331 0 0 11540 0 0 11374 0 0 11455 0 0 11326 0 0 11254 0 0 11266 0 0 11398 0 0 11520 0 0 11430 0 0 11455 0 0 11582 0 0 11564 0 0 11631 0 0 11592 0 0 11529 0 0 11294 0 0 11428 0 0 11249 0 0 5656 0 0 87 0 0 20 0 0 17 0 0 13 0 0 11 0 0 12 0 0 8 0 0 8 0 0 7 0 0 
4 0 0 6 0 0 9 0 0 8 0 0 7 0 0 9 0 0 18 0 0 12 0 0 28 0 0 97 0 0 5676 0 0 11324 0 0 11461 0 0 11480 0 0 11403 0 0 11322 0 0 11389 0 0 11377 0 0 11317 0 0 11511 0 0 11337 0 0 11444 0 0 11393 0 0 11563 0 0 11238 0 0 11458 0 0 11565 0 0 11336 0 0 11526 0 0 11416 0 0 11448 0 0 11298 0 0 11453 0 0 11545 0 0 11604 0 0 11347 0 0 11548 0 0 11120 0 0 11384 0 0 11424 0 0 11460 0 0 11582 0 0 11509 0 0 11714 0 0 11458 0 0 11374 0 0 11295 0 0 11321 0 0 11464 0 0 11331 0 0 5736 0 0 97 0 0 21 0 0 23 0 0 8 0 0 12 0 0 9 0 0 5 0 0 6 0 0 3 0 0 
2 0 0 6 0 0 9 0 0 6 0 0 7 0 0 14 0 0 15 0 0 20 0 0 22 0 0 96 0 0 5716 0 0 11353 0 0 11409 0 0 11053 0 0 11489 0 0 11498 0 0 11244 0 0 11293 0 0 11378 0 0 11455 0 0 11460 0 0 11537 0 0 11457 0 0 11400 0 0 11622 0 0 11532 0 0 11501 0 0 11332 0 0 11546 0 0 11411 0 0 11436 0 0 11443 0 0 11543 0 0 11530 0 0 11460 0 0 11382 0 0 11529 0 0 11431 0 0 11454 0 0 11346 0 0 11403 0 0 11310 0 0 11511 0 0 11284 0 0 11470 0 0 11422 0 0 11471 0 0 11351 0 0 11477 0 0 11268 0 0 5702 0 0 84 0 0 17 0 0 14 0 0 11 0 0 7 0 0 8 0 0 8 0 0 4 0 0 5 0 0 
2 0 0 4 0 0 6 0 0 12 0 0 15 0 0 12 0 0 12 0 0 16 0 0 27 0 0 91 0 0 5757 0 0 11544 0 0 11418 0 0 11210 0 0 11397 0 0 11234 0 0 11536 0 0 11442 0 0 11543 0 0 11393 0 0 11320 0 0 11449 0 0 11406 0 0 11692 0 0 11355 0 0 11332 0 0 11574 0 0 11455 0 0 11425 0 0 11409 0 0 11621 0 0 11354 0 0 11505 0 0 11346 0 0 11530 0 0 11375 0 0 11436 0 0 11500 0 0 11504 0 0 11471 0 0 11599 0 0 11375 0 0 11516 0 0 11701 0 0 11661 0 0 11371 0 0 11399 0 0 11506 0 0 11476 0 0 11341 0 0 5757 0 0 85 0 0 17 0 0 15 0 0 13 0 0 10 0 0 3 0 0 7 0 0 4 0 0 5 0 0 
3 0 0 3 0 0 4 0 0 10 0 0 9 0 0 6 0 0 14 0 0 14 0 0 15 0 0 86 0 0 5780 0 0 11286 0 0 11289 0 0 11437 0 0 11495 0 0 11440 0 0 11661 0 0 11314 0 0 11430 0 0 11438 0 0 11535 0 0 11325 0 0 11416 0 0 11376 0 0 11460 0 0 11332 0 0 11681 0 0 11571 0 0 11441 0 0 11418 0 0 11317 0 0 11402 0 0 11451 0 0 11397 0 0 11369 0 0 11408 0 0 11313 0 0 11425 0 0 11441 0 0 11322 0 0 11365 0 0 11179 0 0 11385 0 0 11304 0 0 11323 0 0 11425 0 0 11226 0 0 11481 0 0 11430 0 0 11518 0 0 5770 0 0 86 0 0 24 0 0 21 0 0 12 0 0 13 0 0 9 0 0 3 0 0 5 0 0 2 0 0 
2 0 0 5 0 0 9 0 0 8 0 0 10 0 0 8 0 0 12 0 0 13 0 0 17 0 0 78 0 0 5661 0 0 11495 0 0 11351 0 0 11477 0 0 11428 0 0 11392 0 0 11436 0 0 11213 0 0 11369 0 0 11366 0 0 11300 0 0 11369 0 0 11439 0 0 11355 0 0 11363 0 0 11433 0 0 11523 0 0 11465 0 0 11447 0 0 11578 0 0 11614 0 0 11416 0 0 11434 0 0 11400 0 0 11700 0 0 11397 0 0 11428 0 0 11400 0 0 11348 0 0 11445 0 0 11522 0 0 11481 0 0 11477 0 0 11590 0 0 11404 0 0 11322 0 0 11378 0 0 11356 0 0 11461 0 0 11165 0 0 5761 0 0 94 0 0 20 0 0 17 0 0 12 0 0 12 0 0 11 0 0 10 0 0 7 0 0 5 0 0 
1 0 0 9 0 0 8 0 0 10 0 0 12 0 0 14 0 0 13 0 0 17 0 0 24 0 0 82 0 0 5642 0 0 11549 0 0 11365 0 0 11152 0 0 11356 0 0 11450 0 0 11502 0 0 11299 0 0 11399 0 0 11374 0 0 11360 0 0 11394 0 0 11543 0 0 11596 0 0 11600 0 0 11422 0 0 11540 0 0 11314 0 0 11333 0 0 11401 0 0 11418 0 0 11406 0 0 11289 0 0 11459 0 0 11436 0 0 11433 0 0 11267 0 0 11462 0 0 11335 0 0 11434 0 0 11445 0 0 11380 0 0 11293 0 0 11556 0 0 11443 0 0 11395 0 0 11444 0 0 11390 0 0 11454 0 0 11468 0 0 5658 0 0 98 0 0 19 0 0 14 0 0 11 0 0 4 0 0 8 0 0 8 0 0 8 0 0 7 0 0 
2 0 0 7 0 0 9 0 0 13 0 0 13 0 0 12 0 0 14 0 0 18 0 0 25 0 0 92 0 0 5694 0 0 11358 0 0 11230 0 0 11485 0 0 11421 0 0 11443 0 0 11366 0 0 11459 0 0 11261 0 0 11492 0 0 11376 0 0 11393 0 0 11488 0 0 11423 0 0 11300 0 0 11355 0 0 11449 0 0 11409 0 0 11260 0 0 11665 0 0 11650 0 0 11399 0 0 11469 0 0 11339 0 0 11439 0 0 11413 0 0 11333 0 0 11358 0 0 11548 0 0 11387 0 0 11403 0 0 11398 0 0 11320 0 0 11414 0 0 11385 0 0 11502 0 0 11500 0 0 11468 0 0 11488 0 0 11317 0 0 5730 0 0 96 0 0 18 0 0 19 0 0 12 0 0 10 0 0 5 0 0 4 0 0 6 0 0 9 0 0 
4 0 0 5 0 0 6 0 0 10 0 0 12 0 0 11 0 0 10 0 0 15 0 0 21 0 0 84 0 0 5594 0 0 11278 0 0 11524 0 0 11554 0 0 11307 0 0 11358 0 0 11418 0 0 11666 0 0 11366 0 0 11264 0 0 11269 0 0 11424 0 0 11280 0 0 11480 0 0 11391 0 0 11509 0 0 11400 0 0 11290 0 0 11497 0 0 11444 0 0 11473 0 0 11404 0 0 11216 0 0 11399 0 0 11598 0 0 11583 0 0 11619 0 0 11363 0 0 11430 0 0 11617 0 0 11364 0 0 11403 0 0 11474 0 0 11433 0 0 11472 0 0 11318 0 0 11531 0 0 11532 0 0 11325 0 0 11345 0 0 5708 0 0 91 0 0 18 0 0 14 0 0 13 0 0 12 0 0 15 0 0 8 0 0 6 0 0 6 0 0 
0 0 0 7 0 0 10 0 0 8 0 0 9 0 0 12 0 0 12 0 0 21 0 0 19 0 0 89 0 0 5719 0 0 11453 0 0 11369 0 0 11523 0 0 11341 0 0 11313 0 0 11428 0 0 11439 0 0 11402 0 0 11499 0 0 11499 0 0 11205 0 0 11369 0 0 11330 0 0 11462 0 0 11472 0 0 11513 0 0 11445 0 0 11343 0 0 11428 0 0 11392 0 0 11455 0 0 11509 0 0 11531 0 0 11397 0 0 11468 0 0 11565 0 0 11393 0 0 11496 0 0 11524 0 0 11412 0 0 11649 0 0 11371 0 0 11506 0 0 11613 0 0 11517 0 0 11477 0 0 11575 0 0 11350 0 0 11301 0 0 5711 0 0 83 0 0 13 0 0 22 0 0 10 0 0 15 0 0 10 0 0 7 0 0 10 0 0 5 0 0 
1 0 0 1 0 0 2 0 0 6 0 0 12 0 0 12 0 0 8 0 0 14 0 0 18 0 0 73 0 0 5723 0 0 11409 0 0 11565 0 0 11653 0 0 11619 0 0 11412 0 0 11317 0 0 11385 0 0 11261 0 0 11410 0 0 11515 0 0 11297 0 0 11456 0 0 11435 0 0 11470 0 0 11648 0 0 11386 0 0 11538 0 0 11263 0 0 11554 0 0 11432 0 0 11563 0 0 11476 0 0 11362 0 0 11478 0 0 11412 0 0 11370 0 0 11573 0 0 11320 0 0 11536 0 0 11538 0 0 11489 0 0 11388 0 0 11499 0 0 11437 0 0 11400 0 0 11401 0 0 11339 0 0 11465 0 0 11276 0 0 5784 0 0 82 0 0 20 0 0 16 0 0 15 0 0 12 0 0 8 0 0 10 0 0 6 0 0 4 0 0 
3 0 0 6 0 0 6 0 0 7 0 0 12 0 0 19 0 0 12 0 0 12 0 0 14 0 0 85 0 0 5652 0 0 11173 0 0 11326 0 0 11459 0 0 11499 0 0 11344 0 0 11418 0 0 11413 0 0 11554 0 0 11350 0 0 11499 0 0 11405 0 0 11618 0 0 11506 0 0 11510 0 0 11453 0 0 11357 0 0 11529 0 0 11342 0 0 11492 0 0 11536 0 0 11640 0 0 11501 0 0 11211 0 0 11496 0 0 11445 0 0 11555 0 0 11470 0 0 11456 0 0 11389 0 0 11438 0 0 11437 0 0 11217 0 0 11430 0 0 11488 0 0 11500 0 0 11449 0 0 11392 0 0 11506 0 0 11457 0 0 5741 0 0 86 0 0 19 0 0 13 0 0 12 0 0 11 0 0 11 0 0 12 0 0 11 0 0 11 0 0 
3 0 0 9 0 0 7 0 0 13 0 0 17 0 0 10 0 0 14 0 0 15 0 0 19 0 0 98 0 0 5801 0 0 11321 0 0 11411 0 0 11399 0 0 11408 0 0 11342 0 0 11387 0 0 11448 0 0 11425 0 0 11518 0 0 11424 0 0 11377 0 0 11302 0 0 11281 0 0 11441 0 0 11318 0 0 11511 0 0 11354 0 0 11358 0 0 11432 0 0 11414 0 0 11506 0 0 11522 0 0 11290 0 0 11450 0 0 11366 0 0 11304 0 0 11485 0 0 11355 0 0 11505 0 0 11432 0 0 11429 0 0 11462 0 0 11393 0 0 11275 0 0 11384 0 0 11380 0 0 11353 0 0 11398 0 0 11393 0 0 5836 0 0 80 0 0 24 0 0 17 0 0 11 0 0 9 0 0 7 0 0 8 0 0 6 0 0 7 0 0 
0 0 0 5 0 0 8 0 0 12 0 0 17 0 0 9 0 0 15 0 0 20 0 0 23 0 0 103 0 0 5752 0 0 11210 0 0 11370 0 0 11342 0 0 11403 0 0 11453 0 0 11447 0 0 11414 0 0 11375 0 0 11445 0 0 11449 0 0 11490 0 0 11556 0 0 11373 0 0 11458 0 0 11225 0 0 11475 0 0 11536 0 0 11475 0 0 11378 0 0 11524 0 0 11501 0 0 11562 0 0 11312 0 0 11370 0 0 11470 0 0 11443 0 0 11474 0 0 11459 0 0 11363 0 0 11475 0 0 11281 0 0 11559 0 0 11426 0 0 11335 0 0 11336 0 0 11509 0 0 11425 0 0 11392 0 0 11435 0 0 5772 0 0 87 0 0 20 0 0 14 0 0 9 0 0 11 0 0 10 0 0 4 0 0 1 0 0 10 0 0 
4 0 0 7 0 0 3 0 0 9 0 0 7 0 0 12 0 0 17 0 0 14 0 0 20 0 0 90 0 0 5806 0 0 11328 0 0 11337 0 0 11330 0 0 11577 0 0 11423 0 0 11427 0 0 11539 0 0 11594 0 0 11624 0 0 11587 0 0 11427 0 0 11476 0 0 11187 0 0 11460 0 0 11506 0 0 11447 0 0 11492 0 0 11394 0 0 11532 0 0 11437 0 0 11534 0 0 11515 0 0 11420 0 0 11274 0 0 11431 0 0 11514 0 0 11629 0 0 11378 0 0 11352 0 0 11648 0 0 11353 0 0 11422 0 0 11394 0 0 11443 0 0 11447 0 0 11516 0 0 11488 0 0 11321 0 0 11391 0 0 5756 0 0 94 0 0 23 0 0 18 0 0 12 0 0 11 0 0 11 0 0 12 0 0 13 0 0 6 0 0 
0 0 0 1 0 0 5 0 0 7 0 0 4 0 0 11 0 0 11 0 0 14 0 0 20 0 0 79 0 0 5748 0 0 11282 0 0 11443 0 0 11293 0 0 11322 0 0 11410 0 0 11487 0 0 11414 0 0 11249 0 0 11518 0 0 11401 0 0 11479 0 0 11277 0 0 11545 0 0 11304 0 0 11394 0 0 11335 0 0 11310 0 0 11345 0 0 11192 0 0 11445 0 0 11619 0 0 11365 0 0 11372 0 0 11316 0 0 11358 0 0 11405 0 0 11465 0 0 11387 0 0 11343 0 0 11428 0 0 11565 0 0 11501 0 0 11366 0 0 11390 0 0 11383 0 0 11328 0 0 11539 0 0 11372 0 0 11461 0 0 5839 0 0 77 0 0 16 0 0 15 0 0 8 0 0 10 0 0 9 0 0 12 0 0 10 0 0 9 0 0 
1 0 0 5 0 0 7 0 0 5 0 0 8 0 0 12 0 0 10 0 0 17 0 0 20 0 0 78 0 0 5712 0 0 11373 0 0 11465 0 0 11526 0 0 11369 0 0 11400 0 0 11554 0 0 11455 0 0 11345 0 0 11605 0 0 11453 0 0 11573 0 0 11401 0 0 11516 0 0 11342 0 0 11336 0 0 11417 0 0 11411 0 0 11382 0 0 11315 0 0 11576 0 0 11491 0 0 11272 0 0 11366 0 0 11399 0 0 11389 0 0 11401 0 0 11475 0 0 11491 0 0 11436 0 0 11317 0 0 11395 0 0 11521 0 0 11391 0 0 11472 0 0 11489 0 0 11427 0 0 11404 0 0 11502 0 0 11512 0 0 5820 0 0 88 0 0 21 0 0 16 0 0 9 0 0 6 0 0 4 0 0 3 0 0 5 0 0 8 0 0 
1 0 0 9 0 0 7 0 0 3 0 0 6 0 0 5 0 0 10 0 0 11 0 0 12 0 0 87 0 0 5820 0 0 11372 0 0 11333 0 0 11399 0 0 11529 0 0 11368 0 0 11339 0 0 11344 0 0 11434 0 0 11321 0 0 11554 0 0 11536 0 0 11454 0 0 11290 0 0 11414 0 0 11423 0 0 11603 0 0 11491 0 0 11301 0 0 11348 0 0 11423 0 0 11443 0 0 11437 0 0 11417 0 0 11484 0 0 11499 0 0 11573 0 0 11444 0 0 11504 0 0 11514 0 0 11371 0 0 11197 0 0 11418 0 0 11360 0 0 11610 0 0 11491 0 0 11470 0 0 11369 0 0 11195 0 0 11332 0 0 5759 0 0 86 0 0 25 0 0 12 0 0 9 0 0 11 0 0 8 0 0 6 0 0 4 0 0 4 0 0 
2 0 0 7 0 0 3 0 0 6 0 0 11 0 0 11 0 0 10 0 0 13 0 0 20 0 0 83 0 0 5807 0 0 11335 0 0 11612 0 0 11228 0 0 11248 0 0 11467 0 0 11388 0 0 11441 0 0 11453 0 0 11437 0 0 11373 0 0 11181 0 0 11384 0 0 11483 0 0 11580 0 0 11287 0 0 11359 0 0 11440 0 0 11510 0 0 11310 0 0 11243 0 0 11450 0 0 11234 0 0 11500 0 0 11668 0 0 11413 0 0 11493 0 0 11464 0 0 11517 0 0 11251 0 0 11411 0 0 11464 0 0 11428 0 0 11299 0 0 11417 0 0 11457 0 0 11601 0 0 11372 0 0 11354 0 0 11223 0 0 5700 0 0 83 0 0 20 0 0 22 0 0 7 0 0 7 0 0 8 0 0 7 0 0 5 0 0 8 0 0 
5 0 0 8 0 0 5 0 0 7 0 0 9 0 0 6 0 0 9 0 0 9 0 0 15 0 0 88 0 0 5572 0 0 11410 0 0 11347 0 0 11334 0 0 11491 0 0 11463 0 0 11361 0 0 11525 0 0 11555 0 0 11357 0 0 11462 0 0 11449 0 0 11449 0 0 11376 0 0 11456 0 0 11585 0 0 11439 0 0 11429 0 0 11508 0 0 11492 0 0 11352 0 0 11481 0 0 11369 0 0 11309 0 0 11446 0 0 11442 0 0 11222 0 0 11518 0 0 11483 0 0 11417 0 0 11210 0 0 11389 0 0 11333 0 0 11360 0 0 11532 0 0 11437 0 0 11329 0 0 11550 0 0 11424 0 0 11485 0 0 5667 0 0 78 0 0 12 0 0 19 0 0 14 0 0 12 0 0 9 0 0 2 0 0 4 0 0 9 0 0 
2 0 0 5 0 0 6 0 0 7 0 0 5 0 0 5 0 0 11 0 0 12 0 0 19 0 0 81 0 0 5737 0 0 11451 0 0 11341 0 0 11427 0 0 11422 0 0 11565 0 0 11380 0 0 11438 0 0 11334 0 0 11431 0 0 11394 0 0 11455 0 0 11427 0 0 11373 0 0 11448 0 0 11439 0 0 11324 0 0 11469 0 0 11476 0 0 11289 0 0 11337 0 0 11439 0 0 11381 0 0 11407 0 0 11515 0 0 11398 0 0 11389 0 0 11368 0 0 11496 0 0 11396 0 0 11242 0 0 11465 0 0 11389 0 0 11468 0 0 11416 0 0 11352 0 0 11623 0 0 11379 0 0 11393 0 0 11291 0 0 5696 0 0 83 0 0 26 0 0 11 0 0 14 0 0 10 0 0 10 0 0 11 0 0 6 0 0 2 0 0 
2 0 0 6 0 0 6 0 0 7 0 0 5 0 0 6 0 0 11 0 0 14 0 0 20 0 0 75 0 0 5670 0 0 11341 0 0 11138 0 0 11328 0 0 11538 0 0 11388 0 0 11425 0 0 11423 0 0 11488 0 0 11335 0 0 11484 0 0 11318 0 0 11429 0 0 11340 0 0 11307 0 0 11418 0 0 11502 0 0 11500 0 0 11348 0 0 11397 0 0 11511 0 0 11334 0 0 11397 0 0 11555 0 0 11364 0 0 11310 0 0 11508 0 0 11421 0 0 11540 0 0 11414 0 0 11349 0 0 11516 0 0 11458 0 0 11450 0 0 11401 0 0 11431 0 0 11572 0 0 11462 0 0 11225 0 0 11177 0 0 5809 0 0 77 0 0 15 0 0 14 0 0 12 0 0 6 0 0 5 0 0 8 0 0 5 0 0 4 0 0 
2 0 0 10 0 0 7 0 0 1 0 0 4 0 0 9 0 0 9 0 0 11 0 0 13 0 0 82 0 0 5712 0 0 11285 0 0 11606 0 0 11525 0 0 11367 0 0 11441 0 0 11426 0 0 11414 0 0 11401 0 0 11396 0 0 11426 0 0 11317 0 0 11395 0 0 11572 0 0 11428 0 0 11332 0 0 11526 0 0 11406 0 0 11536 0 0 11409 0 0 11537 0 0 11445 0 0 11361 0 0 11469 0 0 11278 0 0 11403 0 0 11539 0 0 11417 0 0 11459 0 0 11418 0 0 11409 0 0 11292 0 0 11410 0 0 11487 0 0 11239 0 0 11325 0 0 11498 0 0 11447 0 0 11388 0 0 11572 0 0 5605 0 0 78 0 0 14 0 0 12 0 0 8 0 0 7 0 0 5 0 0 9 0 0 9 0 0 5 0 0 
3 0 0 2 0 0 5 0 0 8 0 0 6 0 0 10 0 0 7 0 0 10 0 0 12 0 0 88 0 0 5696 0 0 11100 0 0 11290 0 0 11508 0 0 11468 0 0 11517 0 0 11285 0 0 11473 0 0 11503 0 0 11384 0 0 11345 0 0 11302 0 0 11288 0 0 11484 0 0 11450 0 0 11229 0 0 11266 0 0 11251 0 0 11233 0 0 11421 0 0 11424 0 0 11360 0 0 11386 0 0 11236 0 0 11393 0 0 11432 0 0 11275 0 0 11368 0 0 11275 0 0 11316 0 0 11365 0 0 11312 0 0 11115 0 0 11131 0 0 11302 0 0 11202 0 0 11383 0 0 11287 0 0 11417 0 0 11287 0 0 5715 0 0 79 0 0 15 0 0 8 0 0 6 0 0 5 0 0 4 0 0 6 0 0 4 0 0 2 0 0 
1 0 0 5 0 0 8 0 0 9 0 0 4 0 0 7 0 0 9 0 0 11 0 0 15 0 0 43 0 0 2874 0 0 5674 0 0 5665 0 0 5715 0 0 5814 0 0 5725 0 0 5757 0 0 5744 0 0 5722 0 0 5841 0 0 5610 0 0 5652 0 0 5719 0 0 5701 0 0 5633 0 0 5738 0 0 5745 0 0 5652 0 0 5745 0 0 5746 0 0 5692 0 0 5584 0 0 5767 0 0 5791 0 0 5775 0 0 5714 0 0 5684 0 0 5677 0 0 5679 0 0 5754 0 0 5632 0 0 5777 0 0 5718 0 0 5821 0 0 5683 0 0 5658 0 0 5672 0 0 5788 0 0 5723 0 0 5677 0 0 2813 0 0 35 0 0 8 0 0 6 0 0 8 0 0 8 0 0 10 0 0 6 0 0 4 0 0 4 0 0 
2 0 0 4 0 0 3 0 0 5 0 0 2 0 0 10 0 0 9 0 0 11 0 0 12 0 0 11 0 0 44 0 0 84 0 0 83 0 0 76 0 0 85 0 0 87 0 0 87 0 0 84 0 0 81 0 0 85 0 0 90 0 0 107 0 0 82 0 0 92 0 0 88 0 0 96 0 0 82 0 0 91 0 0 88 0 0 89 0 0 99 0 0 77 0 0 81 0 0 94 0 0 94 0 0 77 0 0 89 0 0 92 0 0 92 0 0 97 0 0 84 0 0 83 0 0 83 0 0 98 0 0 77 0 0 70 0 0 77 0 0 89 0 0 82 0 0 75 0 0 46 0 0 12 0 0 12 0 0 8 0 0 3 0 0 7 0 0 8 0 0 5 0 0 6 0 0 1 0 0 
1 0 0 1 0 0 0 0 0 2 0 0 6 0 0 9 0 0 12 0 0 10 0 0 5 0 0 7 0 0 12 0 0 18 0 0 14 0 0 8 0 0 15 0 0 13 0 0 23 0 0 22 0 0 15 0 0 19 0 0 21 0 0 26 0 0 21 0 0 20 0 0 22 0 0 26 0 0 24 0 0 26 0 0 12 0 0 19 0 0 24 0 0 17 0 0 20 0 0 15 0 0 21 0 0 23 0 0 18 0 0 25 0 0 16 0 0 23 0 0 15 0 0 19 0 0 27 0 0 19 0 0 24 0 0 19 0 0 16 0 0 19 0 0 17 0 0 8 0 0 14 0 0 12 0 0 5 0 0 7 0 0 5 0 0 3 0 0 5 0 0 6 0 0 7 0 0 2 0 0 
0 0 0 1 0 0 5 0 0 6 0 0 8 0 0 12 0 0 9 0 0 7 0 0 7 0 0 10 0 0 12 0 0 17 0 0 18 0 0 14 0 0 12 0 0 20 0 0 16 0 0 13 0 0 17 0 0 14 0 0 12 0 0 18 0 0 18 0 0 13 0 0 15 0 0 18 0 0 16 0 0 24 0 0 16 0 0 16 0 0 24 0 0 12 0 0 16 0 0 7 0 0 19 0 0 11 0 0 16 0 0 16 0 0 18 0 0 17 0 0 12 0 0 14 0 0 21 0 0 17 0 0 10 0 0 11 0 0 9 0 0 12 0 0 18 0 0 17 0 0 6 0 0 7 0 0 9 0 0 6 0 0 6 0 0 6 0 0 6 0 0 3 0 0 2 0 0 8 0 0 
2 0 0 1 0 0 10 0 0 5 0 0 4 0 0 5 0 0 7 0 0 6 0 0 7 0 0 11 0 0 11 0 0 17 0 0 14 0 0 6 0 0 6 0 0 13 0 0 12 0 0 11 0 0 12 0 0 16 0 0 12 0 0 11 0 0 18 0 0 10 0 0 20 0 0 14 0 0 15 0 0 24 0 0 12 0 0 13 0 0 13 0 0 12 0 0 7 0 0 7 0 0 12 0 0 16 0 0 9 0 0 13 0 0 12 0 0 10 0 0 11 0 0 9 0 0 10 0 0 15 0 0 10 0 0 9 0 0 3 0 0 12 0 0 10 0 0 14 0 0 7 0 0 12 0 0 4 0 0 1 0 0 3 0 0 6 0 0 4 0 0 8 0 0 1 0 0 0 0 0 
1 0 0 4 0 0 3 0 0 1 0 0 1 0 0 3 0 0 6 0 0 6 0 0 6 0 0 10 0 0 11 0 0 12 0 0 8 0 0 4 0 0 7 0 0 6 0 0 9 0 0 10 0 0 10 0 0 12 0 0 11 0 0 7 0 0 19 0 0 16 0 0 14 0 0 11 0 0 13 0 0 17 0 0 15 0 0 12 0 0 10 0 0 12 0 0 11 0 0 5 0 0 16 0 0 10 0 0 10 0 0 13 0 0 7 0 0 13 0 0 4 0 0 10 0 0 10 0 0 8 0 0 9 0 0 9 0 0 2 0 0 6 0 0 9 0 0 9 0 0 8 0 0 12 0 0 11 0 0 5 0 0 2 0 0 1 0 0 3 0 0 8 0 0 7 0 0 2 0 0 
1 0 0 3 0 0 2 0 0 8 0 0 6 0 0 3 0 0 8 0 0 8 0 0 7 0 0 5 0 0 9 0 0 5 0 0 5 0 0 4 0 0 11 0 0 7 0 0 10 0 0 10 0 0 13 0 0 9 0 0 8 0 0 9 0 0 15 0 0 19 0 0 9 0 0 6 0 0 8 0 0 9 0 0 10 0 0 12 0 0 13 0 0 9 0 0 12 0 0 7 0 0 10 0 0 15 0 0 8 0 0 9 0 0 6 0 0 13 0 0 5 0 0 11 0 0 7 0 0 11 0 0 9 0 0 10 0 0 7 0 0 6 0 0 5 0 0 5 0 0 7 0 0 6 0 0 7 0 0 11 0 0 3 0 0 4 0 0 0 0 0 5 0 0 6 0 0 4 0 0 
2 0 0 3 0 0 5 0 0 10 0 0 3 0 0 8 0 0 9 0 0 7 0 0 6 0 0 1 0 0 8 0 0 3 0 0 7 0 0 6 0 0 5 0 0 5 0 0 9 0 0 10 0 0 14 0 0 10 0 0 5 0 0 9 0 0 12 0 0 9 0 0 9 0 0 9 0 0 5 0 0 5 0 0 10 0 0 9 0 0 10 0 0 11 0 0 12 0 0 6 0 0 15 0 0 15 0 0 5 0 0 7 0 0 10 0 0 6 0 0 4 0 0 9 0 0 12 0 0 9 0 0 8 0 0 8 0 0 5 0 0 5 0 0 7 0 0 6 0 0 3 0 0 3 0 0 3 0 0 6 0 0 6 0 0 5 0 0 4 0 0 0 0 0 5 0 0 4 0 0 
2 0 0 2 0 0 3 0 0 4 0 0 8 0 0 12 0 0 6 0 0 5 0 0 1 0 0 2 0 0 6 0 0 2 0 0 8 0 0 6 0 0 2 0 0 8 0 0 17 0 0 7 0 0 12 0 0 14 0 0 3 0 0 11 0 0 11 0 0 5 0 0 7 0 0 9 0 0 8 0 0 6 0 0 5 0 0 8 0 0 8 0 0 8 0 0 9 0 0 5 0 0 15 0 0 12 0 0 8 0 0 7 0 0 9 0 0 4 0 0 4 0 0 14 0 0 6 0 0 5 0 0 6 0 0 8 0 0 2 0 0 7 0 0 5 0 0 6 0 0 3 0 0 2 0 0 6 0 0 2 0 0 6 0 0 2 0 0 5 0 0 3 0 0 3 0 0 3 0 0 
0 0 0 4 0 0 1 0 0 2 0 0 11 0 0 3 0 0 1 0 0 5 0 0 2 0 0 3 0 0 3 0 0 4 0 0 6 0 0 2 0 0 4 0 0 5 0 0 9 0 0 5 0 0 11 0 0 7 0 0 5 0 0 8 0 0 5 0 0 4 0 0 6 0 0 5 0 0 8 0 0 9 0 0 2 0 0 8 0 0 4 0 0 12 0 0 9 0 0 10 0 0 11 0 0 11 0 0 7 0 0 7 0 0 12 0 0 5 0 0 3 0 0 12 0 0 4 0 0 8 0 0 7 0 0 10 0 0 5 0 0 11 0 0 2 0 0 7 0 0 5 0 0 2 0 0 4 0 0 2 0 0 7 0 0 9 0 0 4 0 0 3 0 0 5 0 0 4 0 0 
