P3
# This is a dose file slice at depth 8 of 100
60 60
# now we give the maximum value of the RGB coordinates.
34334
0 0 0 0 0 0 0 0 0 0 0 0 0 0 0 0 0 0 0 0 0 0 0 0 0 0 0 0 0 0 0 0 0 0 0 0 0 0 0 0 0 0 0 0 0 0 0 0 0 0 0 0 0 0 0 0 0 0 0 0 0 0 0 0 0 0 0 0 0 0 0 0 0 0 0 0 0 0 0 0 0 0 0 0 0 0 0 0 0 0 0 0 0 0 0 0 0 0 0 0 0 0 0 0 0 0 0 0 0 0 0 0 0 0 0 0 0 0 0 0 0 0 0 0 0 0 0 0 0 0 0 0 0 0 0 0 0 0 0 0 0 0 0 0 0 0 0 0 0 0 0 0 0 0 0 0 0 0 0 0 0 0 0 0 0 0 0 0 0 0 0 0 0 0 0 0 0 0 0 0 
0 0 0 0 0 0 0 0 0 0 0 0 0 0 0 0 0 0 0 0 0 0 0 0 0 0 0 0 0 0 0 0 0 0 0 0 0 0 0 0 0 0 0 0 0 0 0 0 0 0 0 0 0 0 0 0 0 0 0 0 0 0 0 0 0 0 0 0 0 0 0 0 0 0 0 0 0 0 0 0 0 0 0 0 0 0 0 0 0 0 0 0 0 0 0 0 0 0 0 0 0 0 0 0 0 0 0 0 0 0 0 0 0 0 0 0 0 0 0 0 0 0 0 0 0 0 0 0 0 0 0 0 0 0 0 0 0 0 0 0 0 0 0 0 0 0 0 0 0 0 0 0 0 0 0 0 0 0 0 0 0 0 0 0 0 0 0 0 0 0 0 0 0 0 0 0 0 0 0 0 
0 0 0 0 0 0 0 0 0 0 0 0 0 0 0 0 0 0 0 0 0 0 0 0 0 0 0 0 0 0 0 0 0 0 0 0 0 0 0 0 0 0 0 0 0 0 0 0 0 0 0 0 0 0 0 0 0 0 0 0 0 0 0 0 0 0 0 0 0 0 0 0 0 0 0 0 0 0 0 0 0 0 0 0 0 0 0 0 0 0 0 0 0 0 0 0 0 0 0 0 0 0 0 0 0 0 0 0 0 0 0 0 0 0 0 0 0 0 0 0 0 0 0 0 0 0 0 0 0 0 0 0 0 0 0 0 0 0 0 0 0 0 0 0 0 0 0 0 0 0 0 0 0 0 0 0 0 0 0 0 0 0 0 0 0 0 0 0 0 0 0 0 0 0 0 0 0 0 0 0 
0 0 0 0 0 0 0 0 0 0 0 0 0 0 0 0 0 0 0 0 0 0 0 0 0 0 0 0 0 0 0 0 0 0 0 0 0 0 0 0 0 0 0 0 0 0 0 0 0 0 0 0 0 0 0 0 0 0 0 0 0 0 0 0 0 0 0 0 0 0 0 0 0 0 0 0 0 0 0 0 0 0 0 0 0 0 0 0 0 0 0 0 0 0 0 0 0 0 0 0 0 0 0 0 0 0 0 0 0 0 0 0 0 0 0 0 0 0 0 0 0 0 0 0 0 0 0 0 0 0 0 0 0 0 0 0 0 0 0 0 0 0 0 0 0 0 0 0 0 0 0 0 0 0 0 0 0 0 0 0 0 0 0 0 0 0 0 0 0 0 0 0 0 0 0 0 0 0 0 0 
0 0 0 0 0 0 0 0 0 0 0 0 0 0 0 0 0 0 0 0 0 0 0 0 0 0 0 0 0 0 0 0 0 0 0 0 0 0 0 0 0 0 0 0 0 0 0 0 0 0 0 0 0 0 0 0 0 0 0 0 0 0 0 0 0 0 0 0 0 0 0 0 0 0 0 0 0 0 0 0 0 0 0 0 0 0 0 0 0 0 0 0 0 0 0 0 0 0 0 0 0 0 0 0 0 0 0 0 0 0 0 0 0 0 0 0 0 0 0 0 0 0 0 0 0 0 0 0 0 0 0 0 0 0 0 0 0 0 0 0 0 0 0 0 0 0 0 0 0 0 0 0 0 0 0 0 0 0 0 0 0 0 0 0 0 0 0 0 0 0 0 0 0 0 0 0 0 0 0 0 
0 0 0 0 0 0 0 0 0 0 0 0 0 0 0 0 0 0 0 0 0 0 0 0 0 0 0 0 0 0 0 0 0 0 0 0 0 0 0 0 0 0 0 0 0 0 0 0 0 0 0 0 0 0 0 0 0 0 0 0 0 0 0 0 0 0 0 0 0 0 0 0 0 0 0 0 0 0 0 0 0 0 0 0 0 0 0 0 0 0 0 0 0 0 0 0 0 0 0 0 0 0 0 0 0 0 0 0 0 0 0 0 0 0 0 0 0 0 0 0 0 0 0 0 0 0 0 0 0 0 0 0 0 0 0 0 0 0 0 0 0 0 0 0 0 0 0 0 0 0 0 0 0 0 0 0 0 0 0 0 0 0 0 0 0 0 0 0 0 0 0 0 0 0 0 0 0 0 0 0 
0 0 0 0 0 0 0 0 0 0 0 0 0 0 0 0 0 0 0 0 0 0 0 0 0 0 0 0 0 0 0 0 0 0 0 0 0 0 0 0 0 0 0 0 0 0 0 0 0 0 0 0 0 0 0 0 0 0 0 0 0 0 0 0 0 0 0 0 0 0 0 0 0 0 0 0 0 0 0 0 0 0 0 0 0 0 0 0 0 0 0 0 0 0 0 0 0 0 0 0 0 0 0 0 0 0 0 0 0 0 0 0 0 0 0 0 0 0 0 0 0 0 0 0 0 0 0 0 0 0 0 0 0 0 0 0 0 0 0 0 0 0 0 0 0 0 0 0 0 0 0 0 0 0 0 0 0 0 0 0 0 0 0 0 0 0 0 0 0 0 0 0 0 0 0 0 0 0 0 0 
0 0 0 0 0 0 0 0 0 0 0 0 0 0 0 0 0 0 0 0 0 0 0 0 0 0 0 0 0 0 0 0 0 0 0 0 0 0 0 0 0 0 0 0 0 0 0 0 0 0 0 0 0 0 0 0 0 0 0 0 0 0 0 0 0 0 0 0 0 0 0 0 0 0 0 0 0 0 0 0 0 0 0 0 0 0 0 0 0 0 0 0 0 0 0 0 0 0 0 0 0 0 0 0 0 0 0 0 0 0 0 0 0 0 0 0 0 0 0 0 0 0 0 0 0 0 0 0 0 0 0 0 0 0 0 0 0 0 0 0 0 0 0 0 0 0 0 0 0 0 0 0 0 0 0 0 0 0 0 0 0 0 0 0 0 0 0 0 0 0 0 0 0 0 0 0 0 0 0 0 
0 0 0 0 0 0 0 0 0 0 0 0 0 0 0 0 0 0 0 0 0 0 0 0 0 0 0 0 0 0 0 0 0 0 0 0 0 0 0 0 0 0 0 0 0 0 0 0 0 0 0 0 0 0 0 0 0 0 0 0 0 0 0 0 0 0 0 0 0 0 0 0 0 0 0 0 0 0 0 0 0 0 0 0 0 0 0 0 0 0 0 0 0 0 0 0 0 0 0 0 0 0 0 0 0 0 0 0 0 0 0 0 0 0 0 0 0 0 0 0 0 0 0 0 0 0 0 0 0 0 0 0 0 0 0 0 0 0 0 0 0 0 0 0 0 0 0 0 0 0 0 0 0 0 0 0 0 0 0 0 0 0 0 0 0 0 0 0 0 0 0 0 0 0 0 0 0 0 0 0 
0 0 0 0 0 0 0 0 0 0 0 0 0 0 0 0 0 0 0 0 0 0 0 0 0 0 0 0 0 0 0 0 0 0 0 0 0 0 0 0 0 0 0 0 0 0 0 0 0 0 0 0 0 0 0 0 0 0 0 0 0 0 0 0 0 0 0 0 0 0 0 0 0 0 0 0 0 0 0 0 0 0 0 0 0 0 0 0 0 0 0 0 0 0 0 0 0 0 0 0 0 0 0 0 0 0 0 0 0 0 0 0 0 0 0 0 0 0 0 0 0 0 0 0 0 0 0 0 0 0 0 0 0 0 0 0 0 0 0 0 0 0 0 0 0 0 0 0 0 0 0 0 0 0 0 0 0 0 0 0 0 0 0 0 0 0 0 0 0 0 0 0 0 0 0 0 0 0 0 0 
0 0 0 0 0 0 0 0 0 0 0 0 0 0 0 0 0 0 0 0 0 0 0 0 0 0 0 0 0 0 6735 0 0 13333 0 0 13443 0 0 13370 0 0 13658 0 0 13298 0 0 13634 0 0 13525 0 0 13318 0 0 13501 0 0 13693 0 0 13500 0 0 13349 0 0 13594 0 0 13490 0 0 13311 0 0 13309 0 0 13518 0 0 13464 0 0 13284 0 0 13386 0 0 13467 0 0 13271 0 0 13396 0 0 13455 0 0 13311 0 0 13174 0 0 13641 0 0 13364 0 0 13467 0 0 13545 0 0 13390 0 0 13473 0 0 13280 0 0 13336 0 0 13357 0 0 13455 0 0 13326 0 0 13596 0 0 13329 0 0 6633 0 0 0 0 0 0 0 0 0 0 0 0 0 0 0 0 0 0 0 0 0 0 0 0 0 0 0 0 0 
0 0 0 0 0 0 0 0 0 0 0 0 0 0 0 0 0 0 0 0 0 0 0 0 0 0 0 0 0 0 13438 0 0 26926 0 0 26776 0 0 26753 0 0 26841 0 0 26678 0 0 26583 0 0 26574 0 0 26915 0 0 26674 0 0 26792 0 0 27076 0 0 26872 0 0 27071 0 0 26834 0 0 26734 0 0 26701 0 0 27140 0 0 26782 0 0 26877 0 0 26885 0 0 26686 0 0 26802 0 0 26534 0 0 26786 0 0 26919 0 0 26891 0 0 26733 0 0 27121 0 0 26764 0 0 26796 0 0 26842 0 0 26837 0 0 27071 0 0 27072 0 0 26977 0 0 27099 0 0 26451 0 0 26702 0 0 26794 0 0 13277 0 0 0 0 0 0 0 0 0 0 0 0 0 0 0 0 0 0 0 0 0 0 0 0 0 0 0 0 0 
0 0 0 0 0 0 0 0 0 0 0 0 0 0 0 0 0 0 0 0 0 0 0 0 0 0 0 0 0 0 13697 0 0 26833 0 0 26471 0 0 26853 0 0 26637 0 0 26706 0 0 26718 0 0 26951 0 0 26602 0 0 26788 0 0 26737 0 0 26965 0 0 26658 0 0 26956 0 0 26838 0 0 26633 0 0 26514 0 0 26860 0 0 27058 0 0 26972 0 0 27011 0 0 26869 0 0 26788 0 0 27031 0 0 27172 0 0 26680 0 0 27004 0 0 26969 0 0 26658 0 0 26741 0 0 26767 0 0 26866 0 0 26815 0 0 26995 0 0 26989 0 0 26832 0 0 26952 0 0 26672 0 0 26835 0 0 26850 0 0 13485 0 0 0 0 0 0 0 0 0 0 0 0 0 0 0 0 0 0 0 0 0 0 0 0 0 0 0 0 0 
0 0 0 0 0 0 0 0 0 0 0 0 0 0 0 0 0 0 0 0 0 0 0 0 0 0 0 0 0 0 13438 0 0 26729 0 0 26561 0 0 27021 0 0 26888 0 0 26503 0 0 26898 0 0 26654 0 0 26798 0 0 26943 0 0 26773 0 0 26765 0 0 26892 0 0 27037 0 0 26856 0 0 26613 0 0 27168 0 0 26785 0 0 26998 0 0 26870 0 0 26912 0 0 26891 0 0 26798 0 0 26824 0 0 26899 0 0 26896 0 0 26671 0 0 26925 0 0 26747 0 0 26921 0 0 26835 0 0 26851 0 0 26920 0 0 27269 0 0 26786 0 0 26903 0 0 26741 0 0 26963 0 0 26629 0 0 26829 0 0 13584 0 0 0 0 0 0 0 0 0 0 0 0 0 0 0 0 0 0 0 0 0 0 0 0 0 0 0 0 0 
0 0 0 0 0 0 0 0 0 0 0 0 0 0 0 0 0 0 0 0 0 0 0 0 0 0 0 0 0 0 13628 0 0 26616 0 0 26651 0 0 26617 0 0 27080 0 0 27029 0 0 26872 0 0 26970 0 0 26993 0 0 27013 0 0 26991 0 0 27084 0 0 26823 0 0 27086 0 0 27008 0 0 26690 0 0 26692 0 0 26989 0 0 26871 0 0 27034 0 0 26793 0 0 26636 0 0 26653 0 0 26829 0 0 26687 0 0 26911 0 0 26785 0 0 27003 0 0 26873 0 0 26735 0 0 27059 0 0 26554 0 0 26974 0 0 26623 0 0 26795 0 0 26717 0 0 26765 0 0 26793 0 0 26815 0 0 26960 0 0 13200 0 0 0 0 0 0 0 0 0 0 0 0 0 0 0 0 0 0 0 0 0 0 0 0 0 0 0 0 0 
0 0 0 0 0 0 0 0 0 0 0 0 0 0 0 0 0 0 0 0 0 0 0 0 0 0 0 0 0 0 13495 0 0 26938 0 0 26748 0 0 27036 0 0 26918 0 0 26700 0 0 26811 0 0 26769 0 0 26875 0 0 26963 0 0 26877 0 0 26706 0 0 26715 0 0 26613 0 0 26996 0 0 26597 0 0 26757 0 0 27270 0 0 26877 0 0 26590 0 0 26731 0 0 26925 0 0 26683 0 0 26641 0 0 26832 0 0 26882 0 0 26672 0 0 26919 0 0 26967 0 0 26913 0 0 26640 0 0 26788 0 0 26846 0 0 26732 0 0 26863 0 0 26988 0 0 26779 0 0 26953 0 0 26854 0 0 27142 0 0 13440 0 0 0 0 0 0 0 0 0 0 0 0 0 0 0 0 0 0 0 0 0 0 0 0 0 0 0 0 0 
0 0 0 0 0 0 0 0 0 0 0 0 0 0 0 0 0 0 0 0 0 0 0 0 0 0 0 0 0 0 13289 0 0 26955 0 0 26861 0 0 26539 0 0 27095 0 0 26723 0 0 26861 0 0 26956 0 0 27067 0 0 27070 0 0 26967 0 0 26989 0 0 26797 0 0 26823 0 0 26725 0 0 26874 0 0 26621 0 0 26708 0 0 27012 0 0 26654 0 0 26783 0 0 26859 0 0 26973 0 0 26862 0 0 27040 0 0 26779 0 0 26983 0 0 26713 0 0 26879 0 0 26908 0 0 26671 0 0 26833 0 0 27121 0 0 26979 0 0 26763 0 0 26770 0 0 26908 0 0 27016 0 0 26848 0 0 26693 0 0 13384 0 0 0 0 0 0 0 0 0 0 0 0 0 0 0 0 0 0 0 0 0 0 0 0 0 0 0 0 0 
0 0 0 0 0 0 0 0 0 0 0 0 0 0 0 0 0 0 0 0 0 0 0 0 0 0 0 0 0 0 13320 0 0 26892 0 0 26938 0 0 27041 0 0 26779 0 0 27145 0 0 26865 0 0 26829 0 0 26841 0 0 26616 0 0 26725 0 0 26745 0 0 26828 0 0 26787 0 0 26972 0 0 26934 0 0 26870 0 0 26825 0 0 26687 0 0 26842 0 0 26859 0 0 26909 0 0 26765 0 0 26751 0 0 26644 0 0 26824 0 0 26738 0 0 26766 0 0 26805 0 0 27068 0 0 26469 0 0 26961 0 0 26612 0 0 26734 0 0 26660 0 0 26729 0 0 26895 0 0 26918 0 0 26731 0 0 26810 0 0 13336 0 0 0 0 0 0 0 0 0 0 0 0 0 0 0 0 0 0 0 0 0 0 0 0 0 0 0 0 0 
0 0 0 0 0 0 0 0 0 0 0 0 0 0 0 0 0 0 0 0 0 0 0 0 0 0 0 0 0 0 13440 0 0 26904 0 0 26721 0 0 26783 0 0 26820 0 0 26731 0 0 26944 0 0 27031 0 0 26635 0 0 27105 0 0 27334 0 0 26902 0 0 26792 0 0 26584 0 0 26897 0 0 26803 0 0 26917 0 0 26995 0 0 26726 0 0 26907 0 0 26820 0 0 26967 0 0 26909 0 0 26928 0 0 26897 0 0 27155 0 0 26926 0 0 26833 0 0 26852 0 0 27077 0 0 26580 0 0 26716 0 0 26828 0 0 26689 0 0 27004 0 0 26717 0 0 26878 0 0 26772 0 0 26972 0 0 26674 0 0 13463 0 0 0 0 0 0 0 0 0 0 0 0 0 0 0 0 0 0 0 0 0 0 0 0 0 0 0 0 0 
0 0 0 0 0 0 0 0 0 0 0 0 0 0 0 0 0 0 0 0 0 0 0 0 0 0 0 0 0 0 13592 0 0 26954 0 0 26787 0 0 26791 0 0 26877 0 0 27028 0 0 26909 0 0 27005 0 0 26617 0 0 27065 0 0 26943 0 0 26653 0 0 26468 0 0 26732 0 0 26920 0 0 26726 0 0 27008 0 0 27169 0 0 26799 0 0 26959 0 0 26956 0 0 26829 0 0 26856 0 0 26779 0 0 26741 0 0 26562 0 0 26913 0 0 27023 0 0 26839 0 0 26907 0 0 26938 0 0 26851 0 0 26802 0 0 26483 0 0 26630 0 0 26595 0 0 26544 0 0 26755 0 0 26571 0 0 26993 0 0 13533 0 0 0 0 0 0 0 0 0 0 0 0 0 0 0 0 0 0 0 0 0 0 0 0 0 0 0 0 0 
0 0 0 0 0 0 0 0 0 0 0 0 0 0 0 0 0 0 0 0 0 0 0 0 0 0 0 0 0 0 13508 0 0 27018 0 0 26490 0 0 26989 0 0 26708 0 0 26932 0 0 26492 0 0 26896 0 0 26816 0 0 26863 0 0 26997 0 0 26772 0 0 26938 0 0 26793 0 0 26416 0 0 26943 0 0 26826 0 0 26823 0 0 26834 0 0 26609 0 0 26865 0 0 27018 0 0 27084 0 0 26751 0 0 26799 0 0 26954 0 0 26698 0 0 26624 0 0 27000 0 0 26616 0 0 26983 0 0 27059 0 0 26844 0 0 27017 0 0 26795 0 0 27102 0 0 26842 0 0 26956 0 0 26505 0 0 27132 0 0 13577 0 0 0 0 0 0 0 0 0 0 0 0 0 0 0 0 0 0 0 0 0 0 0 0 0 0 0 0 0 
0 0 0 0 0 0 0 0 0 0 0 0 0 0 0 0 0 0 0 0 0 0 0 0 0 0 0 0 0 0 13503 0 0 26691 0 0 26681 0 0 26808 0 0 26634 0 0 26772 0 0 26760 0 0 26650 0 0 26654 0 0 26583 0 0 26799 0 0 26562 0 0 27019 0 0 27157 0 0 26799 0 0 26850 0 0 26510 0 0 26765 0 0 26775 0 0 27035 0 0 27147 0 0 26722 0 0 27306 0 0 26802 0 0 26995 0 0 26768 0 0 26880 0 0 26644 0 0 27274 0 0 26932 0 0 26996 0 0 26698 0 0 26835 0 0 26690 0 0 26946 0 0 26712 0 0 27253 0 0 26977 0 0 26513 0 0 27101 0 0 13522 0 0 0 0 0 0 0 0 0 0 0 0 0 0 0 0 0 0 0 0 0 0 0 0 0 0 0 0 0 
0 0 0 0 0 0 0 0 0 0 0 0 0 0 0 0 0 0 0 0 0 0 0 0 0 0 0 0 0 0 13318 0 0 26917 0 0 26941 0 0 26934 0 0 26599 0 0 26875 0 0 26618 0 0 27069 0 0 26915 0 0 26711 0 0 26788 0 0 27052 0 0 26724 0 0 26746 0 0 27004 0 0 26818 0 0 26932 0 0 26637 0 0 26430 0 0 26867 0 0 26691 0 0 26676 0 0 26822 0 0 26853 0 0 26818 0 0 26840 0 0 26921 0 0 26759 0 0 26650 0 0 26814 0 0 26722 0 0 27000 0 0 26902 0 0 26648 0 0 26751 0 0 26757 0 0 26784 0 0 27008 0 0 26640 0 0 26698 0 0 13522 0 0 0 0 0 0 0 0 0 0 0 0 0 0 0 0 0 0 0 0 0 0 0 0 0 0 0 0 0 
0 0 0 0 0 0 0 0 0 0 0 0 0 0 0 0 0 0 0 0 0 0 0 0 0 0 0 0 0 0 13413 0 0 26641 0 0 26809 0 0 26781 0 0 26635 0 0 26853 0 0 26651 0 0 26656 0 0 27083 0 0 26743 0 0 26567 0 0 26875 0 0 26607 0 0 26642 0 0 27057 0 0 26969 0 0 27099 0 0 27082 0 0 26862 0 0 26675 0 0 26855 0 0 27053 0 0 26780 0 0 26642 0 0 27021 0 0 26597 0 0 26914 0 0 26763 0 0 26874 0 0 26806 0 0 26878 0 0 26920 0 0 26608 0 0 26527 0 0 26954 0 0 27130 0 0 26652 0 0 27122 0 0 26726 0 0 26978 0 0 13401 0 0 0 0 0 0 0 0 0 0 0 0 0 0 0 0 0 0 0 0 0 0 0 0 0 0 0 0 0 
0 0 0 0 0 0 0 0 0 0 0 0 0 0 0 0 0 0 0 0 0 0 0 0 0 0 0 0 0 0 13603 0 0 26675 0 0 26930 0 0 26716 0 0 26904 0 0 27059 0 0 26823 0 0 26887 0 0 27330 0 0 27258 0 0 26724 0 0 26817 0 0 26847 0 0 27020 0 0 26993 0 0 26617 0 0 27041 0 0 26744 0 0 27040 0 0 26704 0 0 26905 0 0 27098 0 0 26915 0 0 26724 0 0 26851 0 0 27003 0 0 27067 0 0 26798 0 0 26976 0 0 26851 0 0 27053 0 0 27048 0 0 26779 0 0 27042 0 0 26739 0 0 26965 0 0 26789 0 0 26733 0 0 26856 0 0 26792 0 0 13581 0 0 0 0 0 0 0 0 0 0 0 0 0 0 0 0 0 0 0 0 0 0 0 0 0 0 0 0 0 
0 0 0 0 0 0 0 0 0 0 0 0 0 0 0 0 0 0 0 0 0 0 0 0 0 0 0 0 0 0 13541 0 0 27055 0 0 26555 0 0 26825 0 0 26886 0 0 27080 0 0 26924 0 0 26838 0 0 26572 0 0 26683 0 0 26909 0 0 27170 0 0 27104 0 0 27063 0 0 26962 0 0 26765 0 0 26916 0 0 27160 0 0 26978 0 0 26934 0 0 26750 0 0 26828 0 0 26736 0 0 26690 0 0 26919 0 0 26954 0 0 26809 0 0 26723 0 0 26850 0 0 26790 0 0 26556 0 0 26732 0 0 26635 0 0 26501 0 0 26800 0 0 26889 0 0 26836 0 0 27080 0 0 26936 0 0 26775 0 0 13538 0 0 0 0 0 0 0 0 0 0 0 0 0 0 0 0 0 0 0 0 0 0 0 0 0 0 0 0 0 
0 0 0 0 0 0 0 0 0 0 0 0 0 0 0 0 0 0 0 0 0 0 0 0 0 0 0 0 0 0 13411 0 0 27009 0 0 26869 0 0 26600 0 0 26561 0 0 26499 0 0 26828 0 0 26668 0 0 26880 0 0 27047 0 0 27160 0 0 26809 0 0 26726 0 0 26956 0 0 26819 0 0 26816 0 0 26781 0 0 26862 0 0 26914 0 0 26687 0 0 26800 0 0 26738 0 0 26715 0 0 26938 0 0 26840 0 0 26851 0 0 26679 0 0 26790 0 0 26976 0 0 27097 0 0 26767 0 0 26947 0 0 27214 0 0 26741 0 0 27238 0 0 26826 0 0 27135 0 0 26648 0 0 26679 0 0 26690 0 0 13284 0 0 0 0 0 0 0 0 0 0 0 0 0 0 0 0 0 0 0 0 0 0 0 0 0 0 0 0 0 
0 0 0 0 0 0 0 0 0 0 0 0 0 0 0 0 0 0 0 0 0 0 0 0 0 0 0 0 0 0 13409 0 0 26853 0 0 26764 0 0 26762 0 0 26933 0 0 26898 0 0 26919 0 0 26650 0 0 27056 0 0 26555 0 0 26891 0 0 26608 0 0 27099 0 0 26667 0 0 26834 0 0 26993 0 0 27002 0 0 26637 0 0 26881 0 0 26678 0 0 26624 0 0 26636 0 0 26730 0 0 26777 0 0 26982 0 0 26878 0 0 26919 0 0 26712 0 0 26631 0 0 26858 0 0 26691 0 0 26878 0 0 26875 0 0 26678 0 0 26897 0 0 26881 0 0 26765 0 0 26725 0 0 26391 0 0 26935 0 0 13486 0 0 0 0 0 0 0 0 0 0 0 0 0 0 0 0 0 0 0 0 0 0 0 0 0 0 0 0 0 
0 0 0 0 0 0 0 0 0 0 0 0 0 0 0 0 0 0 0 0 0 0 0 0 0 0 0 0 0 0 13536 0 0 26964 0 0 27088 0 0 26635 0 0 27200 0 0 26614 0 0 26740 0 0 26860 0 0 26634 0 0 27028 0 0 26866 0 0 26681 0 0 26674 0 0 27033 0 0 27180 0 0 26748 0 0 27072 0 0 26693 0 0 26600 0 0 26775 0 0 27073 0 0 26703 0 0 26812 0 0 27062 0 0 26877 0 0 26582 0 0 26879 0 0 27032 0 0 27106 0 0 26685 0 0 26800 0 0 26922 0 0 26866 0 0 26749 0 0 27074 0 0 26726 0 0 26858 0 0 26990 0 0 26610 0 0 26863 0 0 13656 0 0 0 0 0 0 0 0 0 0 0 0 0 0 0 0 0 0 0 0 0 0 0 0 0 0 0 0 0 
0 0 0 0 0 0 0 0 0 0 0 0 0 0 0 0 0 0 0 0 0 0 0 0 0 0 0 0 0 0 13484 0 0 26787 0 0 26686 0 0 26750 0 0 26954 0 0 26740 0 0 26806 0 0 26834 0 0 26972 0 0 26850 0 0 26853 0 0 26827 0 0 26664 0 0 27065 0 0 26848 0 0 27133 0 0 26738 0 0 26757 0 0 26924 0 0 27147 0 0 26529 0 0 26916 0 0 26988 0 0 27063 0 0 26658 0 0 26905 0 0 26891 0 0 26803 0 0 26908 0 0 26903 0 0 26894 0 0 27156 0 0 26874 0 0 26879 0 0 26924 0 0 26896 0 0 27001 0 0 26760 0 0 26815 0 0 26581 0 0 13567 0 0 0 0 0 0 0 0 0 0 0 0 0 0 0 0 0 0 0 0 0 0 0 0 0 0 0 0 0 
0 0 0 0 0 0 0 0 0 0 0 0 0 0 0 0 0 0 0 0 0 0 0 0 0 0 0 0 0 0 13490 0 0 26731 0 0 26733 0 0 26851 0 0 26852 0 0 26862 0 0 26656 0 0 27108 0 0 27050 0 0 26822 0 0 26710 0 0 26898 0 0 26740 0 0 27025 0 0 26911 0 0 26822 0 0 26753 0 0 27038 0 0 26419 0 0 26738 0 0 26900 0 0 26866 0 0 26827 0 0 26917 0 0 26731 0 0 26792 0 0 26822 0 0 26581 0 0 26851 0 0 26869 0 0 27001 0 0 26699 0 0 26762 0 0 26928 0 0 26962 0 0 27112 0 0 26766 0 0 26999 0 0 26683 0 0 26978 0 0 13556 0 0 0 0 0 0 0 0 0 0 0 0 0 0 0 0 0 0 0 0 0 0 0 0 0 0 0 0 0 
0 0 0 0 0 0 0 0 0 0 0 0 0 0 0 0 0 0 0 0 0 0 0 0 0 0 0 0 0 0 13204 0 0 27021 0 0 27105 0 0 26962 0 0 26889 0 0 27026 0 0 26931 0 0 26558 0 0 26950 0 0 26983 0 0 26937 0 0 26957 0 0 26832 0 0 27102 0 0 26827 0 0 26947 0 0 26562 0 0 27267 0 0 26916 0 0 26880 0 0 26768 0 0 26888 0 0 26996 0 0 26718 0 0 26811 0 0 26780 0 0 26614 0 0 26896 0 0 27122 0 0 26909 0 0 26772 0 0 26617 0 0 26675 0 0 26820 0 0 26786 0 0 26944 0 0 26639 0 0 26797 0 0 26509 0 0 27131 0 0 13450 0 0 0 0 0 0 0 0 0 0 0 0 0 0 0 0 0 0 0 0 0 0 0 0 0 0 0 0 0 
0 0 0 0 0 0 0 0 0 0 0 0 0 0 0 0 0 0 0 0 0 0 0 0 0 0 0 0 0 0 13471 0 0 27076 0 0 26719 0 0 26713 0 0 26634 0 0 26730 0 0 26877 0 0 26683 0 0 26895 0 0 26901 0 0 26681 0 0 26782 0 0 26606 0 0 26625 0 0 26406 0 0 26932 0 0 26702 0 0 26870 0 0 26812 0 0 27016 0 0 26898 0 0 26689 0 0 26691 0 0 26803 0 0 26696 0 0 26961 0 0 27087 0 0 26938 0 0 26745 0 0 26819 0 0 26958 0 0 26837 0 0 26523 0 0 26917 0 0 26712 0 0 27003 0 0 26612 0 0 26724 0 0 26763 0 0 26960 0 0 13393 0 0 0 0 0 0 0 0 0 0 0 0 0 0 0 0 0 0 0 0 0 0 0 0 0 0 0 0 0 
0 0 0 0 0 0 0 0 0 0 0 0 0 0 0 0 0 0 0 0 0 0 0 0 0 0 0 0 0 0 13460 0 0 27033 0 0 26884 0 0 26959 0 0 26898 0 0 26528 0 0 27111 0 0 26631 0 0 26797 0 0 26784 0 0 26920 0 0 27172 0 0 27055 0 0 27074 0 0 26767 0 0 26985 0 0 26866 0 0 26998 0 0 27050 0 0 27088 0 0 26697 0 0 27040 0 0 27061 0 0 26771 0 0 26782 0 0 26777 0 0 27085 0 0 26353 0 0 26844 0 0 27087 0 0 27006 0 0 26426 0 0 26517 0 0 26752 0 0 26919 0 0 26682 0 0 26759 0 0 26637 0 0 27011 0 0 26879 0 0 13438 0 0 0 0 0 0 0 0 0 0 0 0 0 0 0 0 0 0 0 0 0 0 0 0 0 0 0 0 0 
0 0 0 0 0 0 0 0 0 0 0 0 0 0 0 0 0 0 0 0 0 0 0 0 0 0 0 0 0 0 13380 0 0 26557 0 0 26704 0 0 26811 0 0 26837 0 0 26607 0 0 26715 0 0 26957 0 0 26371 0 0 26961 0 0 26756 0 0 26764 0 0 27091 0 0 27005 0 0 27146 0 0 26787 0 0 26690 0 0 26844 0 0 26965 0 0 26866 0 0 26692 0 0 27120 0 0 26811 0 0 26982 0 0 26733 0 0 26931 0 0 26622 0 0 26979 0 0 26716 0 0 26947 0 0 26790 0 0 27105 0 0 26944 0 0 26923 0 0 26843 0 0 26778 0 0 27118 0 0 26788 0 0 27085 0 0 26899 0 0 13648 0 0 0 0 0 0 0 0 0 0 0 0 0 0 0 0 0 0 0 0 0 0 0 0 0 0 0 0 0 
0 0 0 0 0 0 0 0 0 0 0 0 0 0 0 0 0 0 0 0 0 0 0 0 0 0 0 0 0 0 13444 0 0 26969 0 0 26749 0 0 26885 0 0 27029 0 0 26787 0 0 26564 0 0 26915 0 0 26627 0 0 26497 0 0 26947 0 0 26892 0 0 26590 0 0 27068 0 0 26722 0 0 27040 0 0 26786 0 0 26897 0 0 26683 0 0 26733 0 0 27022 0 0 27087 0 0 26679 0 0 26977 0 0 26687 0 0 26916 0 0 26777 0 0 26656 0 0 26690 0 0 26892 0 0 26752 0 0 26648 0 0 26788 0 0 27065 0 0 26855 0 0 27064 0 0 26621 0 0 26882 0 0 26897 0 0 27133 0 0 13348 0 0 0 0 0 0 0 0 0 0 0 0 0 0 0 0 0 0 0 0 0 0 0 0 0 0 0 0 0 
0 0 0 0 0 0 0 0 0 0 0 0 0 0 0 0 0 0 0 0 0 0 0 0 0 0 0 0 0 0 13606 0 0 26712 0 0 26893 0 0 26836 0 0 26828 0 0 26967 0 0 26923 0 0 26695 0 0 26345 0 0 26813 0 0 26887 0 0 26975 0 0 27199 0 0 27176 0 0 26927 0 0 27066 0 0 26889 0 0 26801 0 0 26687 0 0 26935 0 0 26789 0 0 26939 0 0 26965 0 0 26824 0 0 27062 0 0 26693 0 0 26652 0 0 26875 0 0 27014 0 0 26741 0 0 26804 0 0 26781 0 0 26819 0 0 26987 0 0 27253 0 0 26927 0 0 26677 0 0 26879 0 0 26740 0 0 26817 0 0 13448 0 0 0 0 0 0 0 0 0 0 0 0 0 0 0 0 0 0 0 0 0 0 0 0 0 0 0 0 0 
0 0 0 0 0 0 0 0 0 0 0 0 0 0 0 0 0 0 0 0 0 0 0 0 0 0 0 0 0 0 13164 0 0 26450 0 0 26966 0 0 26679 0 0 26676 0 0 26805 0 0 26645 0 0 26792 0 0 26739 0 0 26706 0 0 26916 0 0 26870 0 0 26805 0 0 26942 0 0 26748 0 0 26693 0 0 26848 0 0 26837 0 0 27124 0 0 26829 0 0 26712 0 0 26788 0 0 26617 0 0 27052 0 0 26872 0 0 27111 0 0 26921 0 0 26909 0 0 26919 0 0 26935 0 0 27095 0 0 26946 0 0 26751 0 0 26949 0 0 26922 0 0 26975 0 0 26895 0 0 26750 0 0 26999 0 0 26770 0 0 13660 0 0 0 0 0 0 0 0 0 0 0 0 0 0 0 0 0 0 0 0 0 0 0 0 0 0 0 0 0 
0 0 0 0 0 0 0 0 0 0 0 0 0 0 0 0 0 0 0 0 0 0 0 0 0 0 0 0 0 0 13488 0 0 26619 0 0 26875 0 0 26889 0 0 27091 0 0 26766 0 0 26985 0 0 26808 0 0 26905 0 0 27199 0 0 27022 0 0 26665 0 0 26911 0 0 26962 0 0 26670 0 0 26981 0 0 26468 0 0 26759 0 0 27117 0 0 26776 0 0 26874 0 0 26796 0 0 26819 0 0 26856 0 0 26664 0 0 26651 0 0 27169 0 0 27001 0 0 26770 0 0 26891 0 0 26968 0 0 27019 0 0 27251 0 0 26620 0 0 26979 0 0 26812 0 0 27053 0 0 26893 0 0 26809 0 0 26771 0 0 13369 0 0 0 0 0 0 0 0 0 0 0 0 0 0 0 0 0 0 0 0 0 0 0 0 0 0 0 0 0 
0 0 0 0 0 0 0 0 0 0 0 0 0 0 0 0 0 0 0 0 0 0 0 0 0 0 0 0 0 0 13581 0 0 26867 0 0 26849 0 0 26852 0 0 27162 0 0 26848 0 0 26922 0 0 26920 0 0 27092 0 0 26996 0 0 26675 0 0 26752 0 0 26904 0 0 26468 0 0 26918 0 0 26869 0 0 26683 0 0 26852 0 0 26847 0 0 26817 0 0 26788 0 0 26908 0 0 26657 0 0 26914 0 0 26815 0 0 27044 0 0 26804 0 0 26966 0 0 27061 0 0 26956 0 0 26784 0 0 26806 0 0 26906 0 0 26828 0 0 26771 0 0 26841 0 0 26655 0 0 26926 0 0 27159 0 0 26960 0 0 13119 0 0 0 0 0 0 0 0 0 0 0 0 0 0 0 0 0 0 0 0 0 0 0 0 0 0 0 0 0 
0 0 0 0 0 0 0 0 0 0 0 0 0 0 0 0 0 0 0 0 0 0 0 0 0 0 0 0 0 0 13316 0 0 26932 0 0 26808 0 0 26655 0 0 26687 0 0 27066 0 0 27286 0 0 26938 0 0 26832 0 0 26740 0 0 26854 0 0 26778 0 0 26703 0 0 27021 0 0 26933 0 0 26920 0 0 26483 0 0 26485 0 0 26728 0 0 26721 0 0 26869 0 0 26976 0 0 26934 0 0 26408 0 0 26829 0 0 26723 0 0 26865 0 0 26726 0 0 26883 0 0 26942 0 0 26814 0 0 26965 0 0 26924 0 0 26815 0 0 26788 0 0 26907 0 0 26856 0 0 26823 0 0 26850 0 0 26647 0 0 13486 0 0 0 0 0 0 0 0 0 0 0 0 0 0 0 0 0 0 0 0 0 0 0 0 0 0 0 0 0 
0 0 0 0 0 0 0 0 0 0 0 0 0 0 0 0 0 0 0 0 0 0 0 0 0 0 0 0 0 0 13535 0 0 26809 0 0 26545 0 0 26762 0 0 26894 0 0 26862 0 0 26972 0 0 26772 0 0 26608 0 0 27081 0 0 26706 0 0 26943 0 0 26703 0 0 26647 0 0 27174 0 0 26776 0 0 26794 0 0 26824 0 0 27077 0 0 26922 0 0 26675 0 0 26770 0 0 26768 0 0 26902 0 0 26838 0 0 26672 0 0 26677 0 0 26935 0 0 26860 0 0 26842 0 0 26998 0 0 26728 0 0 27134 0 0 26786 0 0 26787 0 0 26636 0 0 26747 0 0 26990 0 0 26568 0 0 26862 0 0 13401 0 0 0 0 0 0 0 0 0 0 0 0 0 0 0 0 0 0 0 0 0 0 0 0 0 0 0 0 0 
0 0 0 0 0 0 0 0 0 0 0 0 0 0 0 0 0 0 0 0 0 0 0 0 0 0 0 0 0 0 13638 0 0 26819 0 0 26825 0 0 26867 0 0 26914 0 0 26872 0 0 26793 0 0 26687 0 0 26856 0 0 26976 0 0 26896 0 0 26858 0 0 26541 0 0 26782 0 0 27102 0 0 27064 0 0 26989 0 0 26766 0 0 26850 0 0 26869 0 0 26702 0 0 26996 0 0 26704 0 0 26770 0 0 26899 0 0 26870 0 0 26825 0 0 26846 0 0 27084 0 0 26698 0 0 26928 0 0 27072 0 0 26724 0 0 26716 0 0 27081 0 0 26844 0 0 26733 0 0 26760 0 0 26424 0 0 26993 0 0 13399 0 0 0 0 0 0 0 0 0 0 0 0 0 0 0 0 0 0 0 0 0 0 0 0 0 0 0 0 0 
0 0 0 0 0 0 0 0 0 0 0 0 0 0 0 0 0 0 0 0 0 0 0 0 0 0 0 0 0 0 13460 0 0 26838 0 0 26629 0 0 26871 0 0 26815 0 0 26660 0 0 26824 0 0 26966 0 0 26975 0 0 26592 0 0 26655 0 0 27038 0 0 27207 0 0 26991 0 0 26786 0 0 26638 0 0 27052 0 0 27080 0 0 26728 0 0 26810 0 0 26900 0 0 26866 0 0 26690 0 0 26575 0 0 27001 0 0 26865 0 0 26863 0 0 26745 0 0 26599 0 0 26618 0 0 26894 0 0 26635 0 0 27024 0 0 27068 0 0 26991 0 0 26732 0 0 27033 0 0 26917 0 0 26771 0 0 26986 0 0 13519 0 0 0 0 0 0 0 0 0 0 0 0 0 0 0 0 0 0 0 0 0 0 0 0 0 0 0 0 0 
0 0 0 0 0 0 0 0 0 0 0 0 0 0 0 0 0 0 0 0 0 0 0 0 0 0 0 0 0 0 13283 0 0 26551 0 0 27265 0 0 26980 0 0 26650 0 0 26882 0 0 26873 0 0 26697 0 0 26833 0 0 27091 0 0 26612 0 0 27090 0 0 26798 0 0 26979 0 0 26937 0 0 26977 0 0 26751 0 0 26642 0 0 26782 0 0 26714 0 0 27272 0 0 26960 0 0 26623 0 0 26644 0 0 26648 0 0 26777 0 0 26979 0 0 26701 0 0 26841 0 0 27038 0 0 26685 0 0 26797 0 0 26868 0 0 26809 0 0 27029 0 0 27212 0 0 27023 0 0 26899 0 0 27003 0 0 26911 0 0 13308 0 0 0 0 0 0 0 0 0 0 0 0 0 0 0 0 0 0 0 0 0 0 0 0 0 0 0 0 0 
0 0 0 0 0 0 0 0 0 0 0 0 0 0 0 0 0 0 0 0 0 0 0 0 0 0 0 0 0 0 13344 0 0 26742 0 0 27095 0 0 26717 0 0 27118 0 0 26429 0 0 26808 0 0 26933 0 0 26883 0 0 26956 0 0 26966 0 0 26837 0 0 26683 0 0 26977 0 0 26746 0 0 26968 0 0 26699 0 0 26498 0 0 26987 0 0 27070 0 0 26753 0 0 26745 0 0 26910 0 0 26665 0 0 26755 0 0 26796 0 0 26724 0 0 26797 0 0 26701 0 0 26881 0 0 26798 0 0 27034 0 0 27093 0 0 26855 0 0 26769 0 0 26846 0 0 26978 0 0 26770 0 0 26775 0 0 27067 0 0 13474 0 0 0 0 0 0 0 0 0 0 0 0 0 0 0 0 0 0 0 0 0 0 0 0 0 0 0 0 0 
0 0 0 0 0 0 0 0 0 0 0 0 0 0 0 0 0 0 0 0 0 0 0 0 0 0 0 0 0 0 13404 0 0 26831 0 0 26894 0 0 26798 0 0 27010 0 0 27037 0 0 26719 0 0 26896 0 0 26733 0 0 26592 0 0 26788 0 0 26632 0 0 26693 0 0 26743 0 0 27065 0 0 26691 0 0 27002 0 0 26997 0 0 27154 0 0 26827 0 0 26906 0 0 26975 0 0 26789 0 0 26786 0 0 27076 0 0 26685 0 0 26966 0 0 26962 0 0 26816 0 0 26780 0 0 26640 0 0 26650 0 0 26802 0 0 26845 0 0 26869 0 0 26902 0 0 26627 0 0 26827 0 0 26795 0 0 26899 0 0 13433 0 0 0 0 0 0 0 0 0 0 0 0 0 0 0 0 0 0 0 0 0 0 0 0 0 0 0 0 0 
0 0 0 0 0 0 0 0 0 0 0 0 0 0 0 0 0 0 0 0 0 0 0 0 0 0 0 0 0 0 13230 0 0 26696 0 0 26924 0 0 27150 0 0 26711 0 0 27116 0 0 26766 0 0 26716 0 0 27006 0 0 26891 0 0 26738 0 0 26997 0 0 27108 0 0 27036 0 0 27144 0 0 26892 0 0 26818 0 0 27107 0 0 27050 0 0 26600 0 0 26834 0 0 26519 0 0 26864 0 0 26973 0 0 27041 0 0 27024 0 0 26641 0 0 26923 0 0 26866 0 0 26635 0 0 27149 0 0 26763 0 0 26994 0 0 26612 0 0 27022 0 0 27177 0 0 26836 0 0 26946 0 0 26928 0 0 26954 0 0 13430 0 0 0 0 0 0 0 0 0 0 0 0 0 0 0 0 0 0 0 0 0 0 0 0 0 0 0 0 0 
0 0 0 0 0 0 0 0 0 0 0 0 0 0 0 0 0 0 0 0 0 0 0 0 0 0 0 0 0 0 13352 0 0 26858 0 0 26621 0 0 27097 0 0 27039 0 0 27134 0 0 26905 0 0 26648 0 0 26976 0 0 26907 0 0 26510 0 0 26748 0 0 26819 0 0 26794 0 0 26862 0 0 26892 0 0 26941 0 0 26741 0 0 27134 0 0 26847 0 0 26466 0 0 26672 0 0 26667 0 0 26773 0 0 26867 0 0 26860 0 0 26658 0 0 26722 0 0 26697 0 0 26847 0 0 26813 0 0 27065 0 0 27002 0 0 27073 0 0 26886 0 0 26969 0 0 27078 0 0 26700 0 0 26957 0 0 26486 0 0 13673 0 0 0 0 0 0 0 0 0 0 0 0 0 0 0 0 0 0 0 0 0 0 0 0 0 0 0 0 0 
0 0 0 0 0 0 0 0 0 0 0 0 0 0 0 0 0 0 0 0 0 0 0 0 0 0 0 0 0 0 13390 0 0 26926 0 0 26860 0 0 27217 0 0 26815 0 0 26887 0 0 26917 0 0 26848 0 0 27072 0 0 26536 0 0 26767 0 0 26986 0 0 27085 0 0 26865 0 0 26708 0 0 26638 0 0 26952 0 0 26634 0 0 26993 0 0 26635 0 0 26692 0 0 26957 0 0 26543 0 0 26969 0 0 26697 0 0 26677 0 0 26539 0 0 26560 0 0 26930 0 0 26800 0 0 26713 0 0 26786 0 0 26728 0 0 26713 0 0 26771 0 0 27124 0 0 26826 0 0 26867 0 0 26888 0 0 26856 0 0 13298 0 0 0 0 0 0 0 0 0 0 0 0 0 0 0 0 0 0 0 0 0 0 0 0 0 0 0 0 0 
0 0 0 0 0 0 0 0 0 0 0 0 0 0 0 0 0 0 0 0 0 0 0 0 0 0 0 0 0 0 6743 0 0 13422 0 0 13339 0 0 13458 0 0 13429 0 0 13547 0 0 13657 0 0 13294 0 0 13387 0 0 13543 0 0 13494 0 0 13387 0 0 13581 0 0 13382 0 0 13412 0 0 13685 0 0 13248 0 0 13304 0 0 13226 0 0 13589 0 0 13375 0 0 13427 0 0 13393 0 0 13600 0 0 13360 0 0 13279 0 0 13374 0 0 13515 0 0 13621 0 0 13374 0 0 13407 0 0 13476 0 0 13373 0 0 13479 0 0 13359 0 0 13266 0 0 13476 0 0 13363 0 0 13538 0 0 13455 0 0 6838 0 0 0 0 0 0 0 0 0 0 0 0 0 0 0 0 0 0 0 0 0 0 0 0 0 0 0 0 0 
0 0 0 0 0 0 0 0 0 0 0 0 0 0 0 0 0 0 0 0 0 0 0 0 0 0 0 0 0 0 0 0 0 0 0 0 0 0 0 0 0 0 0 0 0 0 0 0 0 0 0 0 0 0 0 0 0 0 0 0 0 0 0 0 0 0 0 0 0 0 0 0 0 0 0 0 0 0 0 0 0 0 0 0 0 0 0 0 0 0 0 0 0 0 0 0 0 0 0 0 0 0 0 0 0 0 0 0 0 0 0 0 0 0 0 0 0 0 0 0 0 0 0 0 0 0 0 0 0 0 0 0 0 0 0 0 0 0 0 0 0 0 0 0 0 0 0 0 0 0 0 0 0 0 0 0 0 0 0 0 0 0 0 0 0 0 0 0 0 0 0 0 0 0 0 0 0 0 0 0 
0 0 0 0 0 0 0 0 0 0 0 0 0 0 0 0 0 0 0 0 0 0 0 0 0 0 0 0 0 0 0 0 0 0 0 0 0 0 0 0 0 0 0 0 0 0 0 0 0 0 0 0 0 0 0 0 0 0 0 0 0 0 0 0 0 0 0 0 0 0 0 0 0 0 0 0 0 0 0 0 0 0 0 0 0 0 0 0 0 0 0 0 0 0 0 0 0 0 0 0 0 0 0 0 0 0 0 0 0 0 0 0 0 0 0 0 0 0 0 0 0 0 0 0 0 0 0 0 0 0 0 0 0 0 0 0 0 0 0 0 0 0 0 0 0 0 0 0 0 0 0 0 0 0 0 0 0 0 0 0 0 0 0 0 0 0 0 0 0 0 0 0 0 0 0 0 0 0 0 0 
0 0 0 0 0 0 0 0 0 0 0 0 0 0 0 0 0 0 0 0 0 0 0 0 0 0 0 0 0 0 0 0 0 0 0 0 0 0 0 0 0 0 0 0 0 0 0 0 0 0 0 0 0 0 0 0 0 0 0 0 0 0 0 0 0 0 0 0 0 0 0 0 0 0 0 0 0 0 0 0 0 0 0 0 0 0 0 0 0 0 0 0 0 0 0 0 0 0 0 0 0 0 0 0 0 0 0 0 0 0 0 0 0 0 0 0 0 0 0 0 0 0 0 0 0 0 0 0 0 0 0 0 0 0 0 0 0 0 0 0 0 0 0 0 0 0 0 0 0 0 0 0 0 0 0 0 0 0 0 0 0 0 0 0 0 0 0 0 0 0 0 0 0 0 0 0 0 0 0 0 
0 0 0 0 0 0 0 0 0 0 0 0 0 0 0 0 0 0 0 0 0 0 0 0 0 0 0 0 0 0 0 0 0 0 0 0 0 0 0 0 0 0 0 0 0 0 0 0 0 0 0 0 0 0 0 0 0 0 0 0 0 0 0 0 0 0 0 0 0 0 0 0 0 0 0 0 0 0 0 0 0 0 0 0 0 0 0 0 0 0 0 0 0 0 0 0 0 0 0 0 0 0 0 0 0 0 0 0 0 0 0 0 0 0 0 0 0 0 0 0 0 0 0 0 0 0 0 0 0 0 0 0 0 0 0 0 0 0 0 0 0 0 0 0 0 0 0 0 0 0 0 0 0 0 0 0 0 0 0 0 0 0 0 0 0 0 0 0 0 0 0 0 0 0 0 0 0 0 0 0 
0 0 0 0 0 0 0 0 0 0 0 0 0 0 0 0 0 0 0 0 0 0 0 0 0 0 0 0 0 0 0 0 0 0 0 0 0 0 0 0 0 0 0 0 0 0 0 0 0 0 0 0 0 0 0 0 0 0 0 0 0 0 0 0 0 0 0 0 0 0 0 0 0 0 0 0 0 0 0 0 0 0 0 0 0 0 0 0 0 0 0 0 0 0 0 0 0 0 0 0 0 0 0 0 0 0 0 0 0 0 0 0 0 0 0 0 0 0 0 0 0 0 0 0 0 0 0 0 0 0 0 0 0 0 0 0 0 0 0 0 0 0 0 0 0 0 0 0 0 0 0 0 0 0 0 0 0 0 0 0 0 0 0 0 0 0 0 0 0 0 0 0 0 0 0 0 0 0 0 0 
0 0 0 0 0 0 0 0 0 0 0 0 0 0 0 0 0 0 0 0 0 0 0 0 0 0 0 0 0 0 0 0 0 0 0 0 0 0 0 0 0 0 0 0 0 0 0 0 0 0 0 0 0 0 0 0 0 0 0 0 0 0 0 0 0 0 0 0 0 0 0 0 0 0 0 0 0 0 0 0 0 0 0 0 0 0 0 0 0 0 0 0 0 0 0 0 0 0 0 0 0 0 0 0 0 0 0 0 0 0 0 0 0 0 0 0 0 0 0 0 0 0 0 0 0 0 0 0 0 0 0 0 0 0 0 0 0 0 0 0 0 0 0 0 0 0 0 0 0 0 0 0 0 0 0 0 0 0 0 0 0 0 0 0 0 0 0 0 0 0 0 0 0 0 0 0 0 0 0 0 
0 0 0 0 0 0 0 0 0 0 0 0 0 0 0 0 0 0 0 0 0 0 0 0 0 0 0 0 0 0 0 0 0 0 0 0 0 0 0 0 0 0 0 0 0 0 0 0 0 0 0 0 0 0 0 0 0 0 0 0 0 0 0 0 0 0 0 0 0 0 0 0 0 0 0 0 0 0 0 0 0 0 0 0 0 0 0 0 0 0 0 0 0 0 0 0 0 0 0 0 0 0 0 0 0 0 0 0 0 0 0 0 0 0 0 0 0 0 0 0 0 0 0 0 0 0 0 0 0 0 0 0 0 0 0 0 0 0 0 0 0 0 0 0 0 0 0 0 0 0 0 0 0 0 0 0 0 0 0 0 0 0 0 0 0 0 0 0 0 0 0 0 0 0 0 0 0 0 0 0 
0 0 0 0 0 0 0 0 0 0 0 0 0 0 0 0 0 0 0 0 0 0 0 0 0 0 0 0 0 0 0 0 0 0 0 0 0 0 0 0 0 0 0 0 0 0 0 0 0 0 0 0 0 0 0 0 0 0 0 0 0 0 0 0 0 0 0 0 0 0 0 0 0 0 0 0 0 0 0 0 0 0 0 0 0 0 0 0 0 0 0 0 0 0 0 0 0 0 0 0 0 0 0 0 0 0 0 0 0 0 0 0 0 0 0 0 0 0 0 0 0 0 0 0 0 0 0 0 0 0 0 0 0 0 0 0 0 0 0 0 0 0 0 0 0 0 0 0 0 0 0 0 0 0 0 0 0 0 0 0 0 0 0 0 0 0 0 0 0 0 0 0 0 0 0 0 0 0 0 0 
0 0 0 0 0 0 0 0 0 0 0 0 0 0 0 0 0 0 0 0 0 0 0 0 0 0 0 0 0 0 0 0 0 0 0 0 0 0 0 0 0 0 0 0 0 0 0 0 0 0 0 0 0 0 0 0 0 0 0 0 0 0 0 0 0 0 0 0 0 0 0 0 0 0 0 0 0 0 0 0 0 0 0 0 0 0 0 0 0 0 0 0 0 0 0 0 0 0 0 0 0 0 0 0 0 0 0 0 0 0 0 0 0 0 0 0 0 0 0 0 0 0 0 0 0 0 0 0 0 0 0 0 0 0 0 0 0 0 0 0 0 0 0 0 0 0 0 0 0 0 0 0 0 0 0 0 0 0 0 0 0 0 0 0 0 0 0 0 0 0 0 0 0 0 0 0 0 0 0 0 
