P3
# This is a dose file slice at depth 23 of 100
60 60
# now we give the maximum value of the RGB coordinates.
34334
0 0 0 0 0 0 0 0 0 0 0 0 0 0 0 0 0 0 0 0 0 0 0 0 0 0 0 0 0 0 0 0 0 0 0 0 0 0 0 0 0 0 0 0 0 0 0 0 0 0 0 0 0 0 0 0 0 0 0 0 0 0 0 0 0 0 0 0 0 0 0 0 0 0 0 0 0 0 0 0 0 0 0 0 0 0 0 0 0 0 0 0 0 0 0 0 0 0 0 0 0 0 0 0 0 0 0 0 0 0 0 0 0 0 0 0 0 0 0 0 0 0 0 0 0 0 0 0 0 0 0 0 0 0 0 0 0 0 0 0 0 0 0 0 0 0 0 0 0 0 0 0 0 0 0 0 0 0 0 0 0 0 0 0 0 0 0 0 0 0 0 0 0 0 0 0 0 0 0 0 
0 0 0 0 0 0 0 0 0 0 0 0 0 0 0 0 0 0 0 0 0 0 0 0 0 0 0 0 0 0 0 0 0 0 0 0 0 0 0 0 0 0 0 0 0 0 0 0 0 0 0 0 0 0 0 0 0 0 0 0 0 0 0 0 0 0 0 0 0 0 0 0 0 0 0 0 0 0 0 0 0 0 0 0 0 0 0 0 0 0 0 0 0 0 0 0 0 0 0 0 0 0 0 0 0 0 0 0 0 0 0 0 0 0 0 0 0 0 0 0 0 0 0 0 0 0 0 0 0 0 0 0 0 0 0 0 0 0 0 0 0 0 0 0 0 0 0 0 0 0 0 0 0 0 0 0 0 0 0 0 0 0 0 0 0 0 0 0 0 0 0 0 0 0 0 0 0 0 0 0 
0 0 0 0 0 0 0 0 0 0 0 0 0 0 0 0 0 0 0 0 0 0 0 0 0 0 0 0 0 0 0 0 0 0 0 0 0 0 0 0 0 0 0 0 0 0 0 0 0 0 0 0 0 0 0 0 0 0 0 0 0 0 0 0 0 0 0 0 0 0 0 0 0 0 0 0 0 0 0 0 0 0 0 0 0 0 0 0 0 0 0 0 0 0 0 0 0 0 0 0 0 0 0 0 0 0 0 0 0 0 0 0 0 0 0 0 0 0 0 0 0 0 0 0 0 0 0 0 0 0 0 0 0 0 0 0 0 0 0 0 0 0 0 0 0 0 0 0 0 0 0 0 0 0 0 0 0 0 0 0 0 0 0 0 0 0 0 0 0 0 0 0 0 0 0 0 0 0 0 0 
0 0 0 0 0 0 0 0 0 0 0 0 0 0 0 0 0 0 0 0 0 0 0 0 0 0 0 0 0 0 0 0 0 0 0 0 0 0 0 0 0 0 0 0 0 0 0 0 0 0 0 0 0 0 0 0 0 0 0 0 0 0 0 0 0 0 0 0 0 0 0 0 0 0 0 0 0 0 0 0 0 0 0 0 0 0 0 0 0 0 0 0 0 0 0 0 0 0 0 0 0 0 0 0 0 0 0 0 0 0 0 0 0 0 0 0 0 0 0 0 0 0 0 0 0 0 0 0 0 0 0 0 0 0 0 0 0 0 0 0 0 0 0 0 0 0 0 0 0 0 0 0 0 0 0 0 0 0 0 0 0 0 0 0 0 0 0 0 0 0 0 0 0 0 0 0 0 0 0 0 
0 0 0 0 0 0 0 0 0 0 0 0 0 0 0 0 0 0 0 0 0 0 0 0 0 0 0 0 0 0 0 0 0 0 0 0 0 0 0 0 0 0 0 0 0 0 0 0 0 0 0 0 0 0 0 0 0 0 0 0 0 0 0 0 0 0 0 0 0 0 0 0 0 0 0 0 0 0 0 0 0 0 0 0 0 0 0 0 0 0 0 0 0 0 0 0 0 0 0 0 0 0 0 0 0 0 0 0 0 0 0 0 0 0 0 0 0 0 0 0 0 0 0 0 0 0 0 0 0 0 0 0 0 0 0 0 0 0 0 0 0 0 0 0 0 0 0 0 0 0 0 0 0 0 0 0 0 0 0 0 0 0 0 0 0 0 0 0 0 0 0 0 0 0 0 0 0 0 0 0 
0 0 0 0 0 0 0 0 0 0 0 0 0 0 0 0 0 0 0 0 0 0 0 0 0 0 0 0 0 0 0 0 0 0 0 0 0 0 0 0 0 0 0 0 0 0 0 0 0 0 0 0 0 0 0 0 0 0 0 0 0 0 0 0 0 0 0 0 0 0 0 0 0 0 0 0 0 0 0 0 0 0 0 0 0 0 0 0 0 0 0 0 0 0 0 0 0 0 0 0 0 0 0 0 0 0 0 0 0 0 0 0 0 0 0 0 0 0 0 0 0 0 0 0 0 0 0 0 0 0 0 0 0 0 0 0 0 0 0 0 0 0 0 0 0 0 0 0 0 0 0 0 0 0 0 0 0 0 0 0 0 0 0 0 0 0 0 0 0 0 0 0 0 0 0 0 0 0 0 0 
0 0 0 0 0 0 0 0 0 0 0 0 0 0 0 0 0 0 0 0 0 0 0 0 0 0 0 0 0 0 0 0 0 0 0 0 0 0 0 0 0 0 0 0 0 0 0 0 0 0 0 0 0 0 0 0 0 0 0 0 0 0 0 0 0 0 0 0 0 0 0 0 0 0 0 0 0 0 0 0 0 0 0 0 0 0 0 0 0 0 0 0 0 0 0 0 0 0 0 0 0 0 0 0 0 0 0 0 0 0 0 0 0 0 0 0 0 0 0 0 0 0 0 0 0 0 0 0 0 0 0 0 0 0 0 0 0 0 0 0 0 0 0 0 0 0 0 0 0 0 0 0 0 0 0 0 0 0 0 0 0 0 0 0 0 0 0 0 0 0 0 0 0 0 0 0 0 0 0 0 
0 0 0 0 0 0 0 0 0 0 0 0 0 0 0 0 0 0 0 0 0 0 0 0 0 0 0 0 0 0 0 0 0 0 0 0 0 0 0 0 0 0 0 0 0 0 0 0 0 0 0 0 0 0 0 0 0 0 0 0 0 0 0 0 0 0 0 0 0 0 0 0 0 0 0 0 0 0 0 0 0 0 0 0 0 0 0 0 0 0 0 0 0 0 0 0 0 0 0 0 0 0 0 0 0 0 0 0 0 0 0 0 0 0 0 0 0 0 0 0 0 0 0 0 0 0 0 0 0 0 0 0 0 0 0 0 0 0 0 0 0 0 0 0 0 0 0 0 0 0 0 0 0 0 0 0 0 0 0 0 0 0 0 0 0 0 0 0 0 0 0 0 0 0 0 0 0 0 0 0 
0 0 0 0 0 0 0 0 0 0 0 0 0 0 0 0 0 0 0 0 0 0 0 0 0 0 0 0 0 0 0 0 0 0 0 0 0 0 0 0 0 0 0 0 0 0 0 0 0 0 0 0 0 0 0 0 0 0 0 0 0 0 0 0 0 0 0 0 0 0 0 0 0 0 0 0 0 0 0 0 0 0 0 0 0 0 0 0 0 0 0 0 0 0 0 0 0 0 0 0 0 0 0 0 0 0 0 0 0 0 0 0 0 0 0 0 0 0 0 0 0 0 0 0 0 0 0 0 0 0 0 0 0 0 0 0 0 0 0 0 0 0 0 0 0 0 0 0 0 0 0 0 0 0 0 0 0 0 0 0 0 0 0 0 0 0 0 0 0 0 0 0 0 0 0 0 0 0 0 0 
0 0 0 0 0 0 0 0 0 0 0 0 0 0 0 0 0 0 0 0 0 0 0 0 0 0 0 0 0 0 0 0 0 0 0 0 0 0 0 0 0 0 0 0 0 0 0 0 0 0 0 0 0 0 0 0 0 0 0 0 0 0 0 0 0 0 0 0 0 0 0 0 0 0 0 0 0 0 0 0 0 0 0 0 0 0 0 0 0 0 0 0 0 0 0 0 0 0 0 0 0 0 0 0 0 0 0 0 0 0 0 0 0 0 0 0 0 0 0 0 0 0 0 0 0 0 0 0 0 0 0 0 0 0 0 0 0 0 0 0 0 0 0 0 0 0 0 0 0 0 0 0 0 0 0 0 0 0 0 0 0 0 0 0 0 0 0 0 0 0 0 0 0 0 0 0 0 0 0 0 
0 0 0 0 0 0 0 0 0 0 0 0 0 0 0 0 0 0 0 0 0 0 0 0 0 0 0 0 0 0 4238 0 0 8607 0 0 8542 0 0 8522 0 0 8304 0 0 8483 0 0 8613 0 0 8399 0 0 8410 0 0 8359 0 0 8605 0 0 8313 0 0 8671 0 0 8446 0 0 8408 0 0 8416 0 0 8396 0 0 8584 0 0 8533 0 0 8398 0 0 8457 0 0 8346 0 0 8394 0 0 8364 0 0 8508 0 0 8377 0 0 8532 0 0 8514 0 0 8543 0 0 8278 0 0 8334 0 0 8473 0 0 8394 0 0 8490 0 0 8483 0 0 8509 0 0 8462 0 0 8457 0 0 8341 0 0 8376 0 0 4185 0 0 0 0 0 0 0 0 0 0 0 0 0 0 0 0 0 0 0 0 0 0 0 0 0 0 0 0 0 
0 0 0 0 0 0 0 0 0 0 0 0 0 0 0 0 0 0 0 0 0 0 0 0 0 0 0 0 0 0 8504 0 0 17041 0 0 16799 0 0 16860 0 0 16788 0 0 16911 0 0 16705 0 0 16991 0 0 16734 0 0 16744 0 0 16997 0 0 16813 0 0 16972 0 0 16734 0 0 17111 0 0 16922 0 0 16765 0 0 17015 0 0 16908 0 0 16793 0 0 16784 0 0 16993 0 0 16786 0 0 16939 0 0 16883 0 0 16703 0 0 16721 0 0 16960 0 0 16874 0 0 16712 0 0 16927 0 0 17133 0 0 16860 0 0 17044 0 0 17092 0 0 16977 0 0 16828 0 0 16879 0 0 17030 0 0 16958 0 0 8472 0 0 0 0 0 0 0 0 0 0 0 0 0 0 0 0 0 0 0 0 0 0 0 0 0 0 0 0 0 
0 0 0 0 0 0 0 0 0 0 0 0 0 0 0 0 0 0 0 0 0 0 0 0 0 0 0 0 0 0 8356 0 0 16939 0 0 16788 0 0 17092 0 0 16819 0 0 17028 0 0 17026 0 0 16855 0 0 17354 0 0 16782 0 0 16853 0 0 16860 0 0 16790 0 0 16967 0 0 17016 0 0 16894 0 0 17161 0 0 17280 0 0 17055 0 0 17011 0 0 16766 0 0 16925 0 0 16908 0 0 16938 0 0 17149 0 0 16830 0 0 16845 0 0 16852 0 0 17018 0 0 17170 0 0 17052 0 0 16889 0 0 16861 0 0 16911 0 0 17002 0 0 16894 0 0 16746 0 0 16605 0 0 16910 0 0 16681 0 0 8527 0 0 0 0 0 0 0 0 0 0 0 0 0 0 0 0 0 0 0 0 0 0 0 0 0 0 0 0 0 
0 0 0 0 0 0 0 0 0 0 0 0 0 0 0 0 0 0 0 0 0 0 0 0 0 0 0 0 0 0 8407 0 0 17088 0 0 16896 0 0 16936 0 0 17142 0 0 16851 0 0 16877 0 0 16794 0 0 16985 0 0 16763 0 0 16770 0 0 16793 0 0 16859 0 0 16986 0 0 16994 0 0 16956 0 0 17019 0 0 16882 0 0 16841 0 0 16962 0 0 17073 0 0 16952 0 0 16656 0 0 16724 0 0 16862 0 0 16864 0 0 16887 0 0 16736 0 0 16825 0 0 16864 0 0 17029 0 0 16889 0 0 17028 0 0 16767 0 0 16734 0 0 16826 0 0 16699 0 0 16967 0 0 16833 0 0 17151 0 0 8510 0 0 0 0 0 0 0 0 0 0 0 0 0 0 0 0 0 0 0 0 0 0 0 0 0 0 0 0 0 
0 0 0 0 0 0 0 0 0 0 0 0 0 0 0 0 0 0 0 0 0 0 0 0 0 0 0 0 0 0 8397 0 0 16843 0 0 16955 0 0 16914 0 0 16887 0 0 17214 0 0 16953 0 0 16846 0 0 16826 0 0 16581 0 0 16960 0 0 16879 0 0 16862 0 0 17062 0 0 16951 0 0 17044 0 0 16917 0 0 16757 0 0 16948 0 0 17141 0 0 16870 0 0 17043 0 0 16799 0 0 16939 0 0 16919 0 0 16911 0 0 17065 0 0 16858 0 0 17009 0 0 16856 0 0 17032 0 0 16906 0 0 16994 0 0 17093 0 0 16900 0 0 17022 0 0 16800 0 0 17186 0 0 16938 0 0 16879 0 0 8357 0 0 0 0 0 0 0 0 0 0 0 0 0 0 0 0 0 0 0 0 0 0 0 0 0 0 0 0 0 
0 0 0 0 0 0 0 0 0 0 0 0 0 0 0 0 0 0 0 0 0 0 0 0 0 0 0 0 0 0 8446 0 0 16873 0 0 16871 0 0 16794 0 0 17091 0 0 16901 0 0 17108 0 0 16943 0 0 16827 0 0 16766 0 0 16836 0 0 16717 0 0 17010 0 0 16840 0 0 16989 0 0 17013 0 0 16966 0 0 16983 0 0 16829 0 0 16921 0 0 16898 0 0 16941 0 0 16920 0 0 16749 0 0 16914 0 0 17173 0 0 17060 0 0 16758 0 0 17095 0 0 16856 0 0 16878 0 0 16991 0 0 16913 0 0 16993 0 0 16727 0 0 16869 0 0 16927 0 0 17054 0 0 17075 0 0 16857 0 0 8560 0 0 0 0 0 0 0 0 0 0 0 0 0 0 0 0 0 0 0 0 0 0 0 0 0 0 0 0 0 
0 0 0 0 0 0 0 0 0 0 0 0 0 0 0 0 0 0 0 0 0 0 0 0 0 0 0 0 0 0 8298 0 0 17049 0 0 16816 0 0 16948 0 0 16951 0 0 17015 0 0 16926 0 0 16799 0 0 16807 0 0 16947 0 0 16847 0 0 17019 0 0 16764 0 0 16825 0 0 16842 0 0 16877 0 0 16922 0 0 17067 0 0 16964 0 0 16721 0 0 16912 0 0 16892 0 0 16966 0 0 16827 0 0 16791 0 0 16813 0 0 16905 0 0 16851 0 0 16687 0 0 16873 0 0 16695 0 0 17017 0 0 16612 0 0 16955 0 0 17108 0 0 16799 0 0 17011 0 0 17088 0 0 16902 0 0 16874 0 0 8527 0 0 0 0 0 0 0 0 0 0 0 0 0 0 0 0 0 0 0 0 0 0 0 0 0 0 0 0 0 
0 0 0 0 0 0 0 0 0 0 0 0 0 0 0 0 0 0 0 0 0 0 0 0 0 0 0 0 0 0 8416 0 0 16864 0 0 16952 0 0 16883 0 0 16820 0 0 16788 0 0 16700 0 0 16871 0 0 16950 0 0 16922 0 0 16861 0 0 16915 0 0 16784 0 0 16910 0 0 17076 0 0 16896 0 0 16678 0 0 16548 0 0 16825 0 0 16858 0 0 16955 0 0 17123 0 0 16887 0 0 17009 0 0 16923 0 0 16955 0 0 16746 0 0 16965 0 0 16955 0 0 16999 0 0 16945 0 0 17133 0 0 17018 0 0 16887 0 0 17069 0 0 17045 0 0 16910 0 0 17031 0 0 16900 0 0 16653 0 0 8455 0 0 0 0 0 0 0 0 0 0 0 0 0 0 0 0 0 0 0 0 0 0 0 0 0 0 0 0 0 
0 0 0 0 0 0 0 0 0 0 0 0 0 0 0 0 0 0 0 0 0 0 0 0 0 0 0 0 0 0 8483 0 0 16996 0 0 16968 0 0 17387 0 0 16876 0 0 16883 0 0 16731 0 0 16938 0 0 17057 0 0 16996 0 0 16983 0 0 16930 0 0 16908 0 0 16913 0 0 16887 0 0 16983 0 0 17091 0 0 17135 0 0 16847 0 0 17033 0 0 16900 0 0 16935 0 0 16858 0 0 17002 0 0 16733 0 0 17008 0 0 16760 0 0 16906 0 0 16856 0 0 17005 0 0 16785 0 0 16931 0 0 16827 0 0 17017 0 0 16910 0 0 16728 0 0 17000 0 0 16863 0 0 16911 0 0 16928 0 0 8639 0 0 0 0 0 0 0 0 0 0 0 0 0 0 0 0 0 0 0 0 0 0 0 0 0 0 0 0 0 
0 0 0 0 0 0 0 0 0 0 0 0 0 0 0 0 0 0 0 0 0 0 0 0 0 0 0 0 0 0 8423 0 0 16865 0 0 16948 0 0 16677 0 0 17027 0 0 16963 0 0 16920 0 0 17000 0 0 17198 0 0 16951 0 0 17045 0 0 16872 0 0 16867 0 0 16786 0 0 16909 0 0 17050 0 0 17108 0 0 16833 0 0 16838 0 0 16956 0 0 16831 0 0 16870 0 0 16793 0 0 17005 0 0 16889 0 0 17219 0 0 17003 0 0 16780 0 0 16874 0 0 16820 0 0 16922 0 0 16766 0 0 16913 0 0 16979 0 0 16928 0 0 16926 0 0 16859 0 0 16958 0 0 16777 0 0 16957 0 0 8398 0 0 0 0 0 0 0 0 0 0 0 0 0 0 0 0 0 0 0 0 0 0 0 0 0 0 0 0 0 
0 0 0 0 0 0 0 0 0 0 0 0 0 0 0 0 0 0 0 0 0 0 0 0 0 0 0 0 0 0 8534 0 0 16839 0 0 16952 0 0 17061 0 0 17159 0 0 17011 0 0 16853 0 0 16746 0 0 17119 0 0 16926 0 0 16943 0 0 16906 0 0 16792 0 0 17045 0 0 16897 0 0 16970 0 0 16858 0 0 17167 0 0 16823 0 0 16848 0 0 16749 0 0 16922 0 0 16848 0 0 16811 0 0 16879 0 0 16789 0 0 16890 0 0 16867 0 0 16795 0 0 16868 0 0 16968 0 0 16665 0 0 17126 0 0 16947 0 0 17025 0 0 16988 0 0 16957 0 0 16815 0 0 16866 0 0 16965 0 0 8368 0 0 0 0 0 0 0 0 0 0 0 0 0 0 0 0 0 0 0 0 0 0 0 0 0 0 0 0 0 
0 0 0 0 0 0 0 0 0 0 0 0 0 0 0 0 0 0 0 0 0 0 0 0 0 0 0 0 0 0 8440 0 0 16897 0 0 17016 0 0 16923 0 0 16729 0 0 16882 0 0 16789 0 0 16671 0 0 16829 0 0 17006 0 0 16873 0 0 16884 0 0 16775 0 0 16724 0 0 16933 0 0 16899 0 0 16483 0 0 17076 0 0 16898 0 0 16790 0 0 16620 0 0 16913 0 0 16943 0 0 16900 0 0 16901 0 0 16752 0 0 16881 0 0 16704 0 0 16881 0 0 16952 0 0 17149 0 0 16982 0 0 16767 0 0 17140 0 0 16731 0 0 16841 0 0 17041 0 0 16867 0 0 16874 0 0 16972 0 0 8412 0 0 0 0 0 0 0 0 0 0 0 0 0 0 0 0 0 0 0 0 0 0 0 0 0 0 0 0 0 
0 0 0 0 0 0 0 0 0 0 0 0 0 0 0 0 0 0 0 0 0 0 0 0 0 0 0 0 0 0 8506 0 0 16849 0 0 16761 0 0 16745 0 0 16867 0 0 17008 0 0 16839 0 0 16660 0 0 16921 0 0 16929 0 0 16830 0 0 16975 0 0 16721 0 0 16600 0 0 16767 0 0 16824 0 0 17036 0 0 17126 0 0 17007 0 0 16842 0 0 16927 0 0 16961 0 0 16938 0 0 17039 0 0 17064 0 0 16971 0 0 17214 0 0 16867 0 0 16824 0 0 16823 0 0 16909 0 0 16922 0 0 16902 0 0 16716 0 0 16831 0 0 16869 0 0 16979 0 0 17041 0 0 17073 0 0 16920 0 0 8466 0 0 0 0 0 0 0 0 0 0 0 0 0 0 0 0 0 0 0 0 0 0 0 0 0 0 0 0 0 
0 0 0 0 0 0 0 0 0 0 0 0 0 0 0 0 0 0 0 0 0 0 0 0 0 0 0 0 0 0 8407 0 0 16890 0 0 16945 0 0 16692 0 0 16854 0 0 16971 0 0 16898 0 0 16720 0 0 16685 0 0 17049 0 0 16846 0 0 16771 0 0 16888 0 0 17063 0 0 16729 0 0 16817 0 0 16977 0 0 16761 0 0 16727 0 0 16903 0 0 16774 0 0 16814 0 0 16899 0 0 17045 0 0 16775 0 0 16936 0 0 17061 0 0 16862 0 0 16981 0 0 17243 0 0 16886 0 0 17147 0 0 16980 0 0 17142 0 0 16845 0 0 17088 0 0 16905 0 0 16926 0 0 16898 0 0 16865 0 0 8478 0 0 0 0 0 0 0 0 0 0 0 0 0 0 0 0 0 0 0 0 0 0 0 0 0 0 0 0 0 
0 0 0 0 0 0 0 0 0 0 0 0 0 0 0 0 0 0 0 0 0 0 0 0 0 0 0 0 0 0 8467 0 0 17044 0 0 16665 0 0 16597 0 0 16927 0 0 17103 0 0 17110 0 0 16819 0 0 16935 0 0 16993 0 0 17168 0 0 16673 0 0 16780 0 0 16766 0 0 17040 0 0 16894 0 0 16797 0 0 16881 0 0 16936 0 0 16890 0 0 16735 0 0 16990 0 0 17012 0 0 16884 0 0 16958 0 0 16932 0 0 16812 0 0 16805 0 0 16842 0 0 16904 0 0 16739 0 0 16992 0 0 16684 0 0 16915 0 0 16977 0 0 17009 0 0 16980 0 0 16897 0 0 16829 0 0 16586 0 0 8516 0 0 0 0 0 0 0 0 0 0 0 0 0 0 0 0 0 0 0 0 0 0 0 0 0 0 0 0 0 
0 0 0 0 0 0 0 0 0 0 0 0 0 0 0 0 0 0 0 0 0 0 0 0 0 0 0 0 0 0 8501 0 0 16810 0 0 16840 0 0 16856 0 0 17027 0 0 16878 0 0 16778 0 0 17084 0 0 16853 0 0 17143 0 0 17017 0 0 16955 0 0 16824 0 0 16496 0 0 16992 0 0 16859 0 0 17154 0 0 16845 0 0 16996 0 0 16995 0 0 16616 0 0 16978 0 0 16833 0 0 16746 0 0 17145 0 0 16694 0 0 17018 0 0 16656 0 0 16875 0 0 16804 0 0 16992 0 0 16610 0 0 16674 0 0 17035 0 0 16751 0 0 16893 0 0 16900 0 0 17328 0 0 17042 0 0 16917 0 0 8529 0 0 0 0 0 0 0 0 0 0 0 0 0 0 0 0 0 0 0 0 0 0 0 0 0 0 0 0 0 
0 0 0 0 0 0 0 0 0 0 0 0 0 0 0 0 0 0 0 0 0 0 0 0 0 0 0 0 0 0 8314 0 0 17091 0 0 16962 0 0 16880 0 0 16899 0 0 16884 0 0 16890 0 0 16769 0 0 16824 0 0 16838 0 0 17014 0 0 17026 0 0 16819 0 0 16701 0 0 17046 0 0 16909 0 0 16786 0 0 16815 0 0 16928 0 0 17070 0 0 16743 0 0 16743 0 0 16842 0 0 17062 0 0 16948 0 0 16922 0 0 16908 0 0 17063 0 0 16935 0 0 17009 0 0 16773 0 0 16867 0 0 16780 0 0 17080 0 0 16911 0 0 16997 0 0 17063 0 0 16870 0 0 16754 0 0 17005 0 0 8444 0 0 0 0 0 0 0 0 0 0 0 0 0 0 0 0 0 0 0 0 0 0 0 0 0 0 0 0 0 
0 0 0 0 0 0 0 0 0 0 0 0 0 0 0 0 0 0 0 0 0 0 0 0 0 0 0 0 0 0 8488 0 0 16968 0 0 16897 0 0 16987 0 0 16714 0 0 16948 0 0 17018 0 0 16949 0 0 16787 0 0 17052 0 0 16913 0 0 16721 0 0 17133 0 0 16833 0 0 16800 0 0 16808 0 0 16783 0 0 16826 0 0 17213 0 0 16869 0 0 16852 0 0 16817 0 0 16806 0 0 17018 0 0 16792 0 0 16732 0 0 17041 0 0 17052 0 0 16894 0 0 16902 0 0 16802 0 0 16908 0 0 16761 0 0 16938 0 0 16831 0 0 16969 0 0 16984 0 0 16694 0 0 16794 0 0 16936 0 0 8600 0 0 0 0 0 0 0 0 0 0 0 0 0 0 0 0 0 0 0 0 0 0 0 0 0 0 0 0 0 
0 0 0 0 0 0 0 0 0 0 0 0 0 0 0 0 0 0 0 0 0 0 0 0 0 0 0 0 0 0 8524 0 0 17169 0 0 16846 0 0 16857 0 0 17011 0 0 16925 0 0 16827 0 0 16767 0 0 16863 0 0 16756 0 0 16934 0 0 16996 0 0 16978 0 0 16794 0 0 16868 0 0 16847 0 0 16847 0 0 17173 0 0 16840 0 0 16908 0 0 16989 0 0 16783 0 0 16914 0 0 17099 0 0 16958 0 0 16720 0 0 16797 0 0 16743 0 0 16884 0 0 16967 0 0 16928 0 0 16885 0 0 16782 0 0 16890 0 0 16955 0 0 17000 0 0 17240 0 0 16935 0 0 16994 0 0 16794 0 0 8288 0 0 0 0 0 0 0 0 0 0 0 0 0 0 0 0 0 0 0 0 0 0 0 0 0 0 0 0 0 
0 0 0 0 0 0 0 0 0 0 0 0 0 0 0 0 0 0 0 0 0 0 0 0 0 0 0 0 0 0 8571 0 0 16967 0 0 16954 0 0 16692 0 0 16931 0 0 16678 0 0 17102 0 0 16889 0 0 16867 0 0 16936 0 0 17179 0 0 17070 0 0 17049 0 0 17151 0 0 16904 0 0 16872 0 0 16965 0 0 16874 0 0 16998 0 0 17119 0 0 16958 0 0 16859 0 0 16873 0 0 16949 0 0 16739 0 0 17096 0 0 16737 0 0 16776 0 0 16875 0 0 16911 0 0 16706 0 0 17053 0 0 16784 0 0 17012 0 0 16978 0 0 17018 0 0 17020 0 0 16680 0 0 16952 0 0 16941 0 0 8515 0 0 0 0 0 0 0 0 0 0 0 0 0 0 0 0 0 0 0 0 0 0 0 0 0 0 0 0 0 
0 0 0 0 0 0 0 0 0 0 0 0 0 0 0 0 0 0 0 0 0 0 0 0 0 0 0 0 0 0 8590 0 0 17049 0 0 16932 0 0 17113 0 0 16780 0 0 16832 0 0 16838 0 0 16786 0 0 17004 0 0 17094 0 0 16902 0 0 16826 0 0 17071 0 0 16775 0 0 17118 0 0 16838 0 0 16925 0 0 16617 0 0 16716 0 0 16935 0 0 16790 0 0 16898 0 0 16951 0 0 16994 0 0 16790 0 0 16768 0 0 16791 0 0 16755 0 0 16928 0 0 17335 0 0 16759 0 0 16897 0 0 16731 0 0 16702 0 0 17012 0 0 17006 0 0 16800 0 0 16729 0 0 16795 0 0 16885 0 0 8562 0 0 0 0 0 0 0 0 0 0 0 0 0 0 0 0 0 0 0 0 0 0 0 0 0 0 0 0 0 
0 0 0 0 0 0 0 0 0 0 0 0 0 0 0 0 0 0 0 0 0 0 0 0 0 0 0 0 0 0 8390 0 0 16868 0 0 16895 0 0 16979 0 0 16900 0 0 16819 0 0 16913 0 0 17044 0 0 16850 0 0 16666 0 0 16918 0 0 16717 0 0 17157 0 0 16935 0 0 16951 0 0 16760 0 0 16812 0 0 16875 0 0 16932 0 0 16752 0 0 16862 0 0 16887 0 0 16835 0 0 16887 0 0 16941 0 0 16938 0 0 16978 0 0 17220 0 0 16690 0 0 16947 0 0 17001 0 0 16805 0 0 16613 0 0 16940 0 0 16950 0 0 16922 0 0 17009 0 0 16763 0 0 16845 0 0 16880 0 0 8538 0 0 0 0 0 0 0 0 0 0 0 0 0 0 0 0 0 0 0 0 0 0 0 0 0 0 0 0 0 
0 0 0 0 0 0 0 0 0 0 0 0 0 0 0 0 0 0 0 0 0 0 0 0 0 0 0 0 0 0 8414 0 0 16807 0 0 16872 0 0 16773 0 0 16843 0 0 16807 0 0 16875 0 0 16844 0 0 17099 0 0 16704 0 0 17211 0 0 16708 0 0 16877 0 0 16897 0 0 16949 0 0 16695 0 0 17024 0 0 16851 0 0 16912 0 0 16891 0 0 16879 0 0 16840 0 0 16929 0 0 17004 0 0 16899 0 0 16646 0 0 16856 0 0 16864 0 0 16749 0 0 16909 0 0 17051 0 0 16802 0 0 16978 0 0 16757 0 0 16856 0 0 17048 0 0 17223 0 0 16915 0 0 16821 0 0 17085 0 0 8240 0 0 0 0 0 0 0 0 0 0 0 0 0 0 0 0 0 0 0 0 0 0 0 0 0 0 0 0 0 
0 0 0 0 0 0 0 0 0 0 0 0 0 0 0 0 0 0 0 0 0 0 0 0 0 0 0 0 0 0 8416 0 0 16872 0 0 16872 0 0 16901 0 0 16952 0 0 16934 0 0 16780 0 0 16970 0 0 16856 0 0 16754 0 0 16766 0 0 16700 0 0 16814 0 0 16921 0 0 16774 0 0 17114 0 0 16903 0 0 16802 0 0 16690 0 0 16946 0 0 17048 0 0 16954 0 0 16859 0 0 16889 0 0 17086 0 0 17019 0 0 17116 0 0 17173 0 0 16815 0 0 16964 0 0 16827 0 0 16894 0 0 16767 0 0 16880 0 0 16904 0 0 16720 0 0 16830 0 0 16693 0 0 16749 0 0 17017 0 0 8616 0 0 0 0 0 0 0 0 0 0 0 0 0 0 0 0 0 0 0 0 0 0 0 0 0 0 0 0 0 
0 0 0 0 0 0 0 0 0 0 0 0 0 0 0 0 0 0 0 0 0 0 0 0 0 0 0 0 0 0 8266 0 0 16902 0 0 16824 0 0 16891 0 0 16942 0 0 17037 0 0 17043 0 0 16836 0 0 17089 0 0 17068 0 0 16968 0 0 16678 0 0 16831 0 0 16843 0 0 16906 0 0 17053 0 0 16913 0 0 16855 0 0 16958 0 0 17096 0 0 16897 0 0 16851 0 0 17030 0 0 16783 0 0 16886 0 0 17079 0 0 16790 0 0 16927 0 0 16840 0 0 17034 0 0 16867 0 0 16987 0 0 16961 0 0 16988 0 0 17162 0 0 16919 0 0 16870 0 0 16871 0 0 16975 0 0 16954 0 0 8536 0 0 0 0 0 0 0 0 0 0 0 0 0 0 0 0 0 0 0 0 0 0 0 0 0 0 0 0 0 
0 0 0 0 0 0 0 0 0 0 0 0 0 0 0 0 0 0 0 0 0 0 0 0 0 0 0 0 0 0 8405 0 0 16963 0 0 17035 0 0 16781 0 0 16945 0 0 16813 0 0 16861 0 0 16992 0 0 16914 0 0 16878 0 0 17120 0 0 16832 0 0 16739 0 0 16823 0 0 16781 0 0 17000 0 0 16877 0 0 16838 0 0 17039 0 0 16808 0 0 16860 0 0 16718 0 0 16933 0 0 16906 0 0 16742 0 0 16728 0 0 16662 0 0 17079 0 0 16945 0 0 16944 0 0 16939 0 0 17135 0 0 17071 0 0 16921 0 0 17121 0 0 17030 0 0 17102 0 0 16908 0 0 16902 0 0 16702 0 0 8463 0 0 0 0 0 0 0 0 0 0 0 0 0 0 0 0 0 0 0 0 0 0 0 0 0 0 0 0 0 
0 0 0 0 0 0 0 0 0 0 0 0 0 0 0 0 0 0 0 0 0 0 0 0 0 0 0 0 0 0 8321 0 0 17002 0 0 17093 0 0 16872 0 0 17043 0 0 16928 0 0 16920 0 0 16991 0 0 17055 0 0 16869 0 0 16881 0 0 16845 0 0 17080 0 0 17099 0 0 17142 0 0 16753 0 0 16854 0 0 16973 0 0 17009 0 0 16935 0 0 17279 0 0 17067 0 0 16860 0 0 17002 0 0 17079 0 0 17038 0 0 17068 0 0 17016 0 0 16772 0 0 17007 0 0 16682 0 0 17000 0 0 16968 0 0 16640 0 0 16890 0 0 16919 0 0 17151 0 0 16933 0 0 17258 0 0 17259 0 0 8535 0 0 0 0 0 0 0 0 0 0 0 0 0 0 0 0 0 0 0 0 0 0 0 0 0 0 0 0 0 
0 0 0 0 0 0 0 0 0 0 0 0 0 0 0 0 0 0 0 0 0 0 0 0 0 0 0 0 0 0 8386 0 0 16795 0 0 17013 0 0 17056 0 0 17002 0 0 16654 0 0 16899 0 0 16798 0 0 16901 0 0 16917 0 0 16970 0 0 16664 0 0 17088 0 0 16619 0 0 16924 0 0 16774 0 0 16848 0 0 16910 0 0 16765 0 0 16789 0 0 16802 0 0 16896 0 0 16987 0 0 16856 0 0 16893 0 0 16671 0 0 16702 0 0 16985 0 0 16970 0 0 17009 0 0 17287 0 0 17043 0 0 16883 0 0 17064 0 0 17042 0 0 16827 0 0 16897 0 0 16713 0 0 16892 0 0 16862 0 0 8385 0 0 0 0 0 0 0 0 0 0 0 0 0 0 0 0 0 0 0 0 0 0 0 0 0 0 0 0 0 
0 0 0 0 0 0 0 0 0 0 0 0 0 0 0 0 0 0 0 0 0 0 0 0 0 0 0 0 0 0 8403 0 0 17139 0 0 17042 0 0 16945 0 0 16965 0 0 16752 0 0 16869 0 0 16884 0 0 17213 0 0 16707 0 0 16744 0 0 16961 0 0 17142 0 0 16928 0 0 16849 0 0 16643 0 0 16903 0 0 17042 0 0 16687 0 0 17098 0 0 16651 0 0 16927 0 0 16849 0 0 16854 0 0 17088 0 0 17008 0 0 16855 0 0 17125 0 0 16704 0 0 16605 0 0 16891 0 0 16812 0 0 17124 0 0 17052 0 0 16873 0 0 16887 0 0 16960 0 0 16802 0 0 16862 0 0 17019 0 0 8449 0 0 0 0 0 0 0 0 0 0 0 0 0 0 0 0 0 0 0 0 0 0 0 0 0 0 0 0 0 
0 0 0 0 0 0 0 0 0 0 0 0 0 0 0 0 0 0 0 0 0 0 0 0 0 0 0 0 0 0 8421 0 0 16805 0 0 17020 0 0 17074 0 0 17043 0 0 16888 0 0 16714 0 0 16945 0 0 17002 0 0 17062 0 0 16925 0 0 16986 0 0 16726 0 0 16734 0 0 17049 0 0 17031 0 0 16929 0 0 16966 0 0 16900 0 0 16647 0 0 16868 0 0 16826 0 0 17050 0 0 16848 0 0 16903 0 0 16588 0 0 16698 0 0 17046 0 0 16980 0 0 17096 0 0 16944 0 0 16696 0 0 16760 0 0 17021 0 0 17090 0 0 17042 0 0 16992 0 0 16985 0 0 16940 0 0 16788 0 0 8351 0 0 0 0 0 0 0 0 0 0 0 0 0 0 0 0 0 0 0 0 0 0 0 0 0 0 0 0 0 
0 0 0 0 0 0 0 0 0 0 0 0 0 0 0 0 0 0 0 0 0 0 0 0 0 0 0 0 0 0 8434 0 0 17051 0 0 17023 0 0 16959 0 0 16972 0 0 16923 0 0 16962 0 0 16910 0 0 16859 0 0 16876 0 0 16787 0 0 16798 0 0 16877 0 0 16917 0 0 16996 0 0 16800 0 0 16931 0 0 16977 0 0 17006 0 0 16682 0 0 16886 0 0 16916 0 0 17103 0 0 16917 0 0 16759 0 0 17131 0 0 16602 0 0 16871 0 0 16968 0 0 17020 0 0 17107 0 0 17006 0 0 16821 0 0 16918 0 0 17023 0 0 17019 0 0 16823 0 0 16969 0 0 16810 0 0 16866 0 0 8477 0 0 0 0 0 0 0 0 0 0 0 0 0 0 0 0 0 0 0 0 0 0 0 0 0 0 0 0 0 
0 0 0 0 0 0 0 0 0 0 0 0 0 0 0 0 0 0 0 0 0 0 0 0 0 0 0 0 0 0 8544 0 0 16923 0 0 16989 0 0 16877 0 0 16791 0 0 16793 0 0 17079 0 0 16675 0 0 16937 0 0 16956 0 0 16914 0 0 16982 0 0 16828 0 0 16880 0 0 16827 0 0 17294 0 0 16703 0 0 16609 0 0 16815 0 0 16607 0 0 16673 0 0 17041 0 0 16611 0 0 17087 0 0 16820 0 0 17037 0 0 16987 0 0 16881 0 0 16954 0 0 17115 0 0 16823 0 0 16850 0 0 16856 0 0 16724 0 0 16981 0 0 16774 0 0 16896 0 0 17028 0 0 16745 0 0 16877 0 0 8539 0 0 0 0 0 0 0 0 0 0 0 0 0 0 0 0 0 0 0 0 0 0 0 0 0 0 0 0 0 
0 0 0 0 0 0 0 0 0 0 0 0 0 0 0 0 0 0 0 0 0 0 0 0 0 0 0 0 0 0 8390 0 0 16877 0 0 16712 0 0 16836 0 0 17131 0 0 17062 0 0 16714 0 0 16895 0 0 16901 0 0 16906 0 0 16929 0 0 16954 0 0 17054 0 0 17216 0 0 16977 0 0 17096 0 0 16772 0 0 16904 0 0 16909 0 0 16858 0 0 16959 0 0 16573 0 0 17049 0 0 16881 0 0 16858 0 0 16920 0 0 16856 0 0 16890 0 0 16858 0 0 16904 0 0 16910 0 0 17210 0 0 16919 0 0 16833 0 0 16836 0 0 16991 0 0 16830 0 0 16837 0 0 17100 0 0 16766 0 0 8549 0 0 0 0 0 0 0 0 0 0 0 0 0 0 0 0 0 0 0 0 0 0 0 0 0 0 0 0 0 
0 0 0 0 0 0 0 0 0 0 0 0 0 0 0 0 0 0 0 0 0 0 0 0 0 0 0 0 0 0 8362 0 0 16916 0 0 17003 0 0 16932 0 0 16802 0 0 16971 0 0 16967 0 0 17058 0 0 16959 0 0 16968 0 0 17008 0 0 16901 0 0 16985 0 0 16769 0 0 16911 0 0 16708 0 0 16875 0 0 16967 0 0 16943 0 0 16646 0 0 16829 0 0 16917 0 0 16974 0 0 16866 0 0 16755 0 0 16872 0 0 16956 0 0 16848 0 0 16994 0 0 16854 0 0 16921 0 0 16979 0 0 16839 0 0 16947 0 0 16757 0 0 16915 0 0 16704 0 0 16991 0 0 16852 0 0 17055 0 0 8509 0 0 0 0 0 0 0 0 0 0 0 0 0 0 0 0 0 0 0 0 0 0 0 0 0 0 0 0 0 
0 0 0 0 0 0 0 0 0 0 0 0 0 0 0 0 0 0 0 0 0 0 0 0 0 0 0 0 0 0 8414 0 0 17030 0 0 16950 0 0 16811 0 0 17072 0 0 16921 0 0 16994 0 0 16886 0 0 16782 0 0 16749 0 0 16750 0 0 16840 0 0 16832 0 0 16588 0 0 17018 0 0 16735 0 0 17075 0 0 16811 0 0 17039 0 0 16814 0 0 17247 0 0 16891 0 0 16820 0 0 16791 0 0 16907 0 0 17050 0 0 17114 0 0 16860 0 0 16859 0 0 16659 0 0 16994 0 0 17124 0 0 16807 0 0 16869 0 0 16847 0 0 17038 0 0 16906 0 0 16882 0 0 16963 0 0 16663 0 0 8431 0 0 0 0 0 0 0 0 0 0 0 0 0 0 0 0 0 0 0 0 0 0 0 0 0 0 0 0 0 
0 0 0 0 0 0 0 0 0 0 0 0 0 0 0 0 0 0 0 0 0 0 0 0 0 0 0 0 0 0 8482 0 0 16804 0 0 16594 0 0 16836 0 0 16885 0 0 16926 0 0 16774 0 0 16932 0 0 16795 0 0 16765 0 0 16958 0 0 16749 0 0 16753 0 0 16855 0 0 16983 0 0 17140 0 0 16739 0 0 16804 0 0 16613 0 0 16836 0 0 17092 0 0 16849 0 0 16832 0 0 17146 0 0 17103 0 0 16762 0 0 16946 0 0 17013 0 0 16785 0 0 16818 0 0 16776 0 0 16915 0 0 16736 0 0 16804 0 0 16669 0 0 16985 0 0 17066 0 0 17031 0 0 16874 0 0 16735 0 0 8475 0 0 0 0 0 0 0 0 0 0 0 0 0 0 0 0 0 0 0 0 0 0 0 0 0 0 0 0 0 
0 0 0 0 0 0 0 0 0 0 0 0 0 0 0 0 0 0 0 0 0 0 0 0 0 0 0 0 0 0 8281 0 0 16949 0 0 16767 0 0 16662 0 0 16948 0 0 16855 0 0 17015 0 0 16810 0 0 16702 0 0 16923 0 0 16915 0 0 16913 0 0 17140 0 0 16747 0 0 16773 0 0 17036 0 0 17097 0 0 17110 0 0 16820 0 0 16684 0 0 16825 0 0 17066 0 0 17034 0 0 16865 0 0 16966 0 0 16741 0 0 17105 0 0 16818 0 0 16962 0 0 16787 0 0 17025 0 0 16860 0 0 17018 0 0 16686 0 0 16989 0 0 16981 0 0 16711 0 0 17092 0 0 16910 0 0 16793 0 0 8421 0 0 0 0 0 0 0 0 0 0 0 0 0 0 0 0 0 0 0 0 0 0 0 0 0 0 0 0 0 
0 0 0 0 0 0 0 0 0 0 0 0 0 0 0 0 0 0 0 0 0 0 0 0 0 0 0 0 0 0 8351 0 0 16877 0 0 16858 0 0 16985 0 0 16978 0 0 16810 0 0 17167 0 0 17156 0 0 17082 0 0 16962 0 0 17014 0 0 17088 0 0 16991 0 0 16885 0 0 16778 0 0 17009 0 0 16874 0 0 16872 0 0 16778 0 0 16869 0 0 16924 0 0 16887 0 0 16979 0 0 16902 0 0 16875 0 0 16763 0 0 17016 0 0 16928 0 0 16662 0 0 16836 0 0 16983 0 0 16784 0 0 16779 0 0 17256 0 0 16739 0 0 16959 0 0 16728 0 0 16827 0 0 16947 0 0 16938 0 0 8470 0 0 0 0 0 0 0 0 0 0 0 0 0 0 0 0 0 0 0 0 0 0 0 0 0 0 0 0 0 
0 0 0 0 0 0 0 0 0 0 0 0 0 0 0 0 0 0 0 0 0 0 0 0 0 0 0 0 0 0 8500 0 0 17136 0 0 17095 0 0 16688 0 0 17000 0 0 17067 0 0 16813 0 0 16889 0 0 16894 0 0 17140 0 0 16927 0 0 16943 0 0 17031 0 0 16954 0 0 16641 0 0 17121 0 0 16934 0 0 16914 0 0 17130 0 0 16827 0 0 16920 0 0 16922 0 0 16818 0 0 16694 0 0 16779 0 0 17137 0 0 17090 0 0 16955 0 0 16834 0 0 16852 0 0 16887 0 0 16818 0 0 16855 0 0 16836 0 0 16781 0 0 16783 0 0 16903 0 0 16793 0 0 16863 0 0 16941 0 0 8465 0 0 0 0 0 0 0 0 0 0 0 0 0 0 0 0 0 0 0 0 0 0 0 0 0 0 0 0 0 
0 0 0 0 0 0 0 0 0 0 0 0 0 0 0 0 0 0 0 0 0 0 0 0 0 0 0 0 0 0 8599 0 0 16770 0 0 16777 0 0 16980 0 0 17121 0 0 16822 0 0 16954 0 0 16864 0 0 16852 0 0 16711 0 0 16837 0 0 16874 0 0 16957 0 0 16795 0 0 16770 0 0 16932 0 0 16763 0 0 16951 0 0 16926 0 0 16626 0 0 17048 0 0 17123 0 0 17055 0 0 16694 0 0 17020 0 0 16910 0 0 16971 0 0 16821 0 0 16798 0 0 16851 0 0 16782 0 0 16773 0 0 16994 0 0 16681 0 0 16904 0 0 16792 0 0 16933 0 0 16761 0 0 17030 0 0 17025 0 0 8422 0 0 0 0 0 0 0 0 0 0 0 0 0 0 0 0 0 0 0 0 0 0 0 0 0 0 0 0 0 
0 0 0 0 0 0 0 0 0 0 0 0 0 0 0 0 0 0 0 0 0 0 0 0 0 0 0 0 0 0 4318 0 0 8552 0 0 8388 0 0 8647 0 0 8595 0 0 8432 0 0 8544 0 0 8339 0 0 8563 0 0 8636 0 0 8493 0 0 8516 0 0 8544 0 0 8355 0 0 8417 0 0 8453 0 0 8499 0 0 8380 0 0 8499 0 0 8514 0 0 8592 0 0 8367 0 0 8563 0 0 8565 0 0 8505 0 0 8573 0 0 8459 0 0 8514 0 0 8575 0 0 8331 0 0 8608 0 0 8411 0 0 8539 0 0 8515 0 0 8273 0 0 8570 0 0 8353 0 0 8499 0 0 8374 0 0 8538 0 0 4298 0 0 0 0 0 0 0 0 0 0 0 0 0 0 0 0 0 0 0 0 0 0 0 0 0 0 0 0 0 
0 0 0 0 0 0 0 0 0 0 0 0 0 0 0 0 0 0 0 0 0 0 0 0 0 0 0 0 0 0 0 0 0 0 0 0 0 0 0 0 0 0 0 0 0 0 0 0 0 0 0 0 0 0 0 0 0 0 0 0 0 0 0 0 0 0 0 0 0 0 0 0 0 0 0 0 0 0 0 0 0 0 0 0 0 0 0 0 0 0 0 0 0 0 0 0 0 0 0 0 0 0 0 0 0 0 0 0 0 0 0 0 0 0 0 0 0 0 0 0 0 0 0 0 0 0 0 0 0 0 0 0 0 0 0 0 0 0 0 0 0 0 0 0 0 0 0 0 0 0 0 0 0 0 0 0 0 0 0 0 0 0 0 0 0 0 0 0 0 0 0 0 0 0 0 0 0 0 0 0 
0 0 0 0 0 0 0 0 0 0 0 0 0 0 0 0 0 0 0 0 0 0 0 0 0 0 0 0 0 0 0 0 0 0 0 0 0 0 0 0 0 0 0 0 0 0 0 0 0 0 0 0 0 0 0 0 0 0 0 0 0 0 0 0 0 0 0 0 0 0 0 0 0 0 0 0 0 0 0 0 0 0 0 0 0 0 0 0 0 0 0 0 0 0 0 0 0 0 0 0 0 0 0 0 0 0 0 0 0 0 0 0 0 0 0 0 0 0 0 0 0 0 0 0 0 0 0 0 0 0 0 0 0 0 0 0 0 0 0 0 0 0 0 0 0 0 0 0 0 0 0 0 0 0 0 0 0 0 0 0 0 0 0 0 0 0 0 0 0 0 0 0 0 0 0 0 0 0 0 0 
0 0 0 0 0 0 0 0 0 0 0 0 0 0 0 0 0 0 0 0 0 0 0 0 0 0 0 0 0 0 0 0 0 0 0 0 0 0 0 0 0 0 0 0 0 0 0 0 0 0 0 0 0 0 0 0 0 0 0 0 0 0 0 0 0 0 0 0 0 0 0 0 0 0 0 0 0 0 0 0 0 0 0 0 0 0 0 0 0 0 0 0 0 0 0 0 0 0 0 0 0 0 0 0 0 0 0 0 0 0 0 0 0 0 0 0 0 0 0 0 0 0 0 0 0 0 0 0 0 0 0 0 0 0 0 0 0 0 0 0 0 0 0 0 0 0 0 0 0 0 0 0 0 0 0 0 0 0 0 0 0 0 0 0 0 0 0 0 0 0 0 0 0 0 0 0 0 0 0 0 
0 0 0 0 0 0 0 0 0 0 0 0 0 0 0 0 0 0 0 0 0 0 0 0 0 0 0 0 0 0 0 0 0 0 0 0 0 0 0 0 0 0 0 0 0 0 0 0 0 0 0 0 0 0 0 0 0 0 0 0 0 0 0 0 0 0 0 0 0 0 0 0 0 0 0 0 0 0 0 0 0 0 0 0 0 0 0 0 0 0 0 0 0 0 0 0 0 0 0 0 0 0 0 0 0 0 0 0 0 0 0 0 0 0 0 0 0 0 0 0 0 0 0 0 0 0 0 0 0 0 0 0 0 0 0 0 0 0 0 0 0 0 0 0 0 0 0 0 0 0 0 0 0 0 0 0 0 0 0 0 0 0 0 0 0 0 0 0 0 0 0 0 0 0 0 0 0 0 0 0 
0 0 0 0 0 0 0 0 0 0 0 0 0 0 0 0 0 0 0 0 0 0 0 0 0 0 0 0 0 0 0 0 0 0 0 0 0 0 0 0 0 0 0 0 0 0 0 0 0 0 0 0 0 0 0 0 0 0 0 0 0 0 0 0 0 0 0 0 0 0 0 0 0 0 0 0 0 0 0 0 0 0 0 0 0 0 0 0 0 0 0 0 0 0 0 0 0 0 0 0 0 0 0 0 0 0 0 0 0 0 0 0 0 0 0 0 0 0 0 0 0 0 0 0 0 0 0 0 0 0 0 0 0 0 0 0 0 0 0 0 0 0 0 0 0 0 0 0 0 0 0 0 0 0 0 0 0 0 0 0 0 0 0 0 0 0 0 0 0 0 0 0 0 0 0 0 0 0 0 0 
0 0 0 0 0 0 0 0 0 0 0 0 0 0 0 0 0 0 0 0 0 0 0 0 0 0 0 0 0 0 0 0 0 0 0 0 0 0 0 0 0 0 0 0 0 0 0 0 0 0 0 0 0 0 0 0 0 0 0 0 0 0 0 0 0 0 0 0 0 0 0 0 0 0 0 0 0 0 0 0 0 0 0 0 0 0 0 0 0 0 0 0 0 0 0 0 0 0 0 0 0 0 0 0 0 0 0 0 0 0 0 0 0 0 0 0 0 0 0 0 0 0 0 0 0 0 0 0 0 0 0 0 0 0 0 0 0 0 0 0 0 0 0 0 0 0 0 0 0 0 0 0 0 0 0 0 0 0 0 0 0 0 0 0 0 0 0 0 0 0 0 0 0 0 0 0 0 0 0 0 
0 0 0 0 0 0 0 0 0 0 0 0 0 0 0 0 0 0 0 0 0 0 0 0 0 0 0 0 0 0 0 0 0 0 0 0 0 0 0 0 0 0 0 0 0 0 0 0 0 0 0 0 0 0 0 0 0 0 0 0 0 0 0 0 0 0 0 0 0 0 0 0 0 0 0 0 0 0 0 0 0 0 0 0 0 0 0 0 0 0 0 0 0 0 0 0 0 0 0 0 0 0 0 0 0 0 0 0 0 0 0 0 0 0 0 0 0 0 0 0 0 0 0 0 0 0 0 0 0 0 0 0 0 0 0 0 0 0 0 0 0 0 0 0 0 0 0 0 0 0 0 0 0 0 0 0 0 0 0 0 0 0 0 0 0 0 0 0 0 0 0 0 0 0 0 0 0 0 0 0 
0 0 0 0 0 0 0 0 0 0 0 0 0 0 0 0 0 0 0 0 0 0 0 0 0 0 0 0 0 0 0 0 0 0 0 0 0 0 0 0 0 0 0 0 0 0 0 0 0 0 0 0 0 0 0 0 0 0 0 0 0 0 0 0 0 0 0 0 0 0 0 0 0 0 0 0 0 0 0 0 0 0 0 0 0 0 0 0 0 0 0 0 0 0 0 0 0 0 0 0 0 0 0 0 0 0 0 0 0 0 0 0 0 0 0 0 0 0 0 0 0 0 0 0 0 0 0 0 0 0 0 0 0 0 0 0 0 0 0 0 0 0 0 0 0 0 0 0 0 0 0 0 0 0 0 0 0 0 0 0 0 0 0 0 0 0 0 0 0 0 0 0 0 0 0 0 0 0 0 0 
0 0 0 0 0 0 0 0 0 0 0 0 0 0 0 0 0 0 0 0 0 0 0 0 0 0 0 0 0 0 0 0 0 0 0 0 0 0 0 0 0 0 0 0 0 0 0 0 0 0 0 0 0 0 0 0 0 0 0 0 0 0 0 0 0 0 0 0 0 0 0 0 0 0 0 0 0 0 0 0 0 0 0 0 0 0 0 0 0 0 0 0 0 0 0 0 0 0 0 0 0 0 0 0 0 0 0 0 0 0 0 0 0 0 0 0 0 0 0 0 0 0 0 0 0 0 0 0 0 0 0 0 0 0 0 0 0 0 0 0 0 0 0 0 0 0 0 0 0 0 0 0 0 0 0 0 0 0 0 0 0 0 0 0 0 0 0 0 0 0 0 0 0 0 0 0 0 0 0 0 
