P3
# This is a dose file slice at depth 15 of 100
60 60
# now we give the maximum value of the RGB coordinates.
32965
0 0 0 0 0 0 1 0 0 1 0 0 1 0 0 2 0 0 6 0 0 5 0 0 3 0 0 2 0 0 2 0 0 4 0 0 5 0 0 3 0 0 9 0 0 4 0 0 4 0 0 4 0 0 5 0 0 8 0 0 5 0 0 7 0 0 7 0 0 6 0 0 4 0 0 4 0 0 6 0 0 9 0 0 3 0 0 10 0 0 7 0 0 6 0 0 4 0 0 4 0 0 11 0 0 7 0 0 7 0 0 3 0 0 3 0 0 2 0 0 4 0 0 7 0 0 4 0 0 2 0 0 9 0 0 5 0 0 8 0 0 4 0 0 3 0 0 2 0 0 3 0 0 2 0 0 4 0 0 6 0 0 2 0 0 4 0 0 1 0 0 2 0 0 3 0 0 1 0 0 
3 0 0 5 0 0 2 0 0 7 0 0 4 0 0 7 0 0 8 0 0 11 0 0 6 0 0 12 0 0 3 0 0 4 0 0 11 0 0 10 0 0 14 0 0 12 0 0 9 0 0 14 0 0 16 0 0 13 0 0 12 0 0 9 0 0 16 0 0 14 0 0 11 0 0 12 0 0 17 0 0 19 0 0 15 0 0 12 0 0 16 0 0 14 0 0 13 0 0 13 0 0 19 0 0 8 0 0 12 0 0 10 0 0 11 0 0 10 0 0 11 0 0 17 0 0 8 0 0 11 0 0 16 0 0 13 0 0 8 0 0 9 0 0 9 0 0 6 0 0 4 0 0 8 0 0 12 0 0 9 0 0 7 0 0 7 0 0 8 0 0 10 0 0 6 0 0 12 0 0 
1 0 0 4 0 0 9 0 0 6 0 0 9 0 0 4 0 0 12 0 0 5 0 0 9 0 0 7 0 0 6 0 0 7 0 0 11 0 0 10 0 0 10 0 0 15 0 0 16 0 0 20 0 0 15 0 0 14 0 0 12 0 0 13 0 0 19 0 0 17 0 0 18 0 0 16 0 0 12 0 0 17 0 0 18 0 0 12 0 0 18 0 0 16 0 0 22 0 0 13 0 0 12 0 0 7 0 0 13 0 0 9 0 0 14 0 0 15 0 0 11 0 0 18 0 0 15 0 0 12 0 0 14 0 0 9 0 0 12 0 0 10 0 0 12 0 0 10 0 0 10 0 0 13 0 0 9 0 0 12 0 0 12 0 0 13 0 0 11 0 0 7 0 0 6 0 0 8 0 0 
5 0 0 10 0 0 3 0 0 9 0 0 6 0 0 6 0 0 7 0 0 11 0 0 4 0 0 5 0 0 12 0 0 10 0 0 8 0 0 15 0 0 12 0 0 17 0 0 20 0 0 20 0 0 23 0 0 16 0 0 18 0 0 17 0 0 11 0 0 18 0 0 17 0 0 16 0 0 15 0 0 20 0 0 20 0 0 22 0 0 27 0 0 17 0 0 21 0 0 12 0 0 18 0 0 14 0 0 18 0 0 10 0 0 14 0 0 17 0 0 12 0 0 20 0 0 17 0 0 11 0 0 11 0 0 9 0 0 12 0 0 17 0 0 15 0 0 9 0 0 12 0 0 10 0 0 16 0 0 12 0 0 15 0 0 15 0 0 4 0 0 7 0 0 3 0 0 5 0 0 
2 0 0 5 0 0 11 0 0 6 0 0 7 0 0 8 0 0 5 0 0 10 0 0 9 0 0 5 0 0 7 0 0 11 0 0 8 0 0 12 0 0 14 0 0 11 0 0 25 0 0 13 0 0 29 0 0 25 0 0 24 0 0 22 0 0 13 0 0 22 0 0 19 0 0 18 0 0 20 0 0 16 0 0 23 0 0 28 0 0 24 0 0 22 0 0 19 0 0 12 0 0 17 0 0 23 0 0 18 0 0 12 0 0 21 0 0 17 0 0 20 0 0 19 0 0 13 0 0 16 0 0 17 0 0 16 0 0 18 0 0 22 0 0 9 0 0 10 0 0 12 0 0 14 0 0 15 0 0 12 0 0 11 0 0 8 0 0 10 0 0 6 0 0 6 0 0 5 0 0 
6 0 0 7 0 0 8 0 0 7 0 0 7 0 0 12 0 0 5 0 0 9 0 0 10 0 0 11 0 0 11 0 0 12 0 0 14 0 0 15 0 0 16 0 0 16 0 0 25 0 0 23 0 0 27 0 0 21 0 0 41 0 0 33 0 0 21 0 0 9 0 0 18 0 0 19 0 0 19 0 0 24 0 0 26 0 0 34 0 0 24 0 0 22 0 0 25 0 0 19 0 0 22 0 0 22 0 0 25 0 0 23 0 0 21 0 0 27 0 0 20 0 0 26 0 0 21 0 0 16 0 0 24 0 0 22 0 0 25 0 0 17 0 0 16 0 0 15 0 0 17 0 0 16 0 0 13 0 0 10 0 0 10 0 0 12 0 0 7 0 0 11 0 0 5 0 0 4 0 0 
4 0 0 13 0 0 12 0 0 11 0 0 7 0 0 11 0 0 14 0 0 14 0 0 13 0 0 15 0 0 16 0 0 10 0 0 18 0 0 24 0 0 12 0 0 13 0 0 22 0 0 26 0 0 26 0 0 31 0 0 35 0 0 34 0 0 19 0 0 15 0 0 21 0 0 24 0 0 18 0 0 23 0 0 27 0 0 32 0 0 24 0 0 34 0 0 26 0 0 24 0 0 22 0 0 30 0 0 22 0 0 25 0 0 27 0 0 26 0 0 24 0 0 26 0 0 33 0 0 37 0 0 19 0 0 25 0 0 31 0 0 17 0 0 24 0 0 21 0 0 11 0 0 20 0 0 13 0 0 12 0 0 13 0 0 9 0 0 8 0 0 10 0 0 6 0 0 6 0 0 
2 0 0 3 0 0 10 0 0 10 0 0 15 0 0 12 0 0 9 0 0 16 0 0 15 0 0 15 0 0 15 0 0 18 0 0 26 0 0 26 0 0 22 0 0 22 0 0 30 0 0 26 0 0 33 0 0 28 0 0 43 0 0 35 0 0 26 0 0 35 0 0 29 0 0 26 0 0 30 0 0 19 0 0 34 0 0 36 0 0 35 0 0 32 0 0 33 0 0 34 0 0 35 0 0 25 0 0 26 0 0 27 0 0 29 0 0 36 0 0 26 0 0 30 0 0 29 0 0 37 0 0 27 0 0 40 0 0 39 0 0 21 0 0 21 0 0 18 0 0 20 0 0 20 0 0 16 0 0 12 0 0 15 0 0 10 0 0 16 0 0 12 0 0 12 0 0 5 0 0 
3 0 0 7 0 0 6 0 0 7 0 0 12 0 0 16 0 0 16 0 0 18 0 0 20 0 0 21 0 0 22 0 0 26 0 0 33 0 0 41 0 0 41 0 0 22 0 0 33 0 0 27 0 0 41 0 0 46 0 0 47 0 0 31 0 0 35 0 0 47 0 0 43 0 0 41 0 0 33 0 0 26 0 0 37 0 0 47 0 0 47 0 0 47 0 0 44 0 0 51 0 0 35 0 0 29 0 0 43 0 0 37 0 0 45 0 0 46 0 0 27 0 0 37 0 0 56 0 0 39 0 0 51 0 0 50 0 0 44 0 0 34 0 0 34 0 0 34 0 0 30 0 0 18 0 0 20 0 0 15 0 0 23 0 0 19 0 0 15 0 0 10 0 0 2 0 0 5 0 0 
4 0 0 8 0 0 9 0 0 17 0 0 10 0 0 21 0 0 16 0 0 14 0 0 21 0 0 28 0 0 79 0 0 146 0 0 160 0 0 159 0 0 161 0 0 132 0 0 146 0 0 155 0 0 173 0 0 159 0 0 156 0 0 158 0 0 145 0 0 188 0 0 163 0 0 144 0 0 163 0 0 150 0 0 181 0 0 151 0 0 159 0 0 149 0 0 145 0 0 167 0 0 172 0 0 162 0 0 178 0 0 174 0 0 159 0 0 145 0 0 143 0 0 175 0 0 163 0 0 171 0 0 161 0 0 196 0 0 161 0 0 157 0 0 147 0 0 132 0 0 69 0 0 33 0 0 20 0 0 19 0 0 24 0 0 9 0 0 12 0 0 8 0 0 9 0 0 6 0 0 
2 0 0 8 0 0 10 0 0 11 0 0 11 0 0 15 0 0 21 0 0 21 0 0 28 0 0 86 0 0 5989 0 0 11843 0 0 11710 0 0 11932 0 0 11833 0 0 11875 0 0 11859 0 0 11915 0 0 11734 0 0 11889 0 0 11865 0 0 11749 0 0 11844 0 0 11892 0 0 11947 0 0 11668 0 0 11973 0 0 11886 0 0 11987 0 0 11716 0 0 11906 0 0 11883 0 0 11861 0 0 11909 0 0 11930 0 0 11839 0 0 11972 0 0 11777 0 0 11858 0 0 11788 0 0 11693 0 0 12054 0 0 11766 0 0 11851 0 0 12053 0 0 11793 0 0 11843 0 0 11861 0 0 11696 0 0 11895 0 0 5873 0 0 87 0 0 22 0 0 21 0 0 19 0 0 15 0 0 12 0 0 9 0 0 6 0 0 4 0 0 
8 0 0 15 0 0 17 0 0 14 0 0 15 0 0 11 0 0 15 0 0 21 0 0 24 0 0 157 0 0 11685 0 0 23282 0 0 23550 0 0 23698 0 0 23804 0 0 23486 0 0 23540 0 0 23638 0 0 23511 0 0 23653 0 0 23700 0 0 23550 0 0 23613 0 0 23648 0 0 23340 0 0 23340 0 0 23685 0 0 23716 0 0 23547 0 0 23590 0 0 23429 0 0 23408 0 0 23415 0 0 23453 0 0 23360 0 0 23390 0 0 23457 0 0 23498 0 0 23590 0 0 23530 0 0 23544 0 0 23489 0 0 23628 0 0 23682 0 0 23704 0 0 23530 0 0 23277 0 0 23589 0 0 23810 0 0 23476 0 0 11733 0 0 154 0 0 30 0 0 25 0 0 14 0 0 15 0 0 14 0 0 17 0 0 10 0 0 9 0 0 
3 0 0 13 0 0 16 0 0 18 0 0 12 0 0 8 0 0 12 0 0 17 0 0 24 0 0 143 0 0 11819 0 0 23545 0 0 23795 0 0 23541 0 0 23579 0 0 23698 0 0 23910 0 0 23613 0 0 23484 0 0 23742 0 0 23745 0 0 23718 0 0 23949 0 0 23765 0 0 23793 0 0 23554 0 0 23736 0 0 23837 0 0 23768 0 0 23799 0 0 24035 0 0 23842 0 0 23517 0 0 23745 0 0 23639 0 0 23620 0 0 23806 0 0 23782 0 0 23662 0 0 23478 0 0 23618 0 0 23495 0 0 23677 0 0 23493 0 0 23814 0 0 23596 0 0 23618 0 0 23611 0 0 23587 0 0 23538 0 0 11829 0 0 156 0 0 24 0 0 22 0 0 18 0 0 14 0 0 12 0 0 11 0 0 6 0 0 8 0 0 
4 0 0 10 0 0 16 0 0 11 0 0 23 0 0 15 0 0 17 0 0 21 0 0 28 0 0 148 0 0 11778 0 0 23548 0 0 23528 0 0 23605 0 0 23639 0 0 23693 0 0 23716 0 0 23861 0 0 23745 0 0 23878 0 0 23785 0 0 23671 0 0 23621 0 0 23642 0 0 23602 0 0 23549 0 0 23390 0 0 23989 0 0 23859 0 0 23934 0 0 23864 0 0 23472 0 0 23688 0 0 23612 0 0 23606 0 0 23514 0 0 23735 0 0 23626 0 0 23641 0 0 23525 0 0 23441 0 0 23710 0 0 23748 0 0 23791 0 0 23737 0 0 23784 0 0 23365 0 0 23654 0 0 23791 0 0 23351 0 0 11990 0 0 160 0 0 34 0 0 23 0 0 16 0 0 18 0 0 12 0 0 8 0 0 13 0 0 8 0 0 
7 0 0 18 0 0 17 0 0 19 0 0 14 0 0 22 0 0 20 0 0 17 0 0 30 0 0 152 0 0 11792 0 0 23704 0 0 23717 0 0 23588 0 0 23626 0 0 23786 0 0 23803 0 0 23602 0 0 23438 0 0 23725 0 0 23476 0 0 23598 0 0 23904 0 0 23565 0 0 23791 0 0 23662 0 0 23415 0 0 23707 0 0 23690 0 0 23755 0 0 23638 0 0 23618 0 0 23818 0 0 23622 0 0 23772 0 0 23701 0 0 23847 0 0 23681 0 0 23524 0 0 23830 0 0 23716 0 0 23868 0 0 23767 0 0 23719 0 0 23747 0 0 23513 0 0 23802 0 0 23793 0 0 23689 0 0 23628 0 0 11899 0 0 155 0 0 39 0 0 21 0 0 17 0 0 20 0 0 20 0 0 23 0 0 11 0 0 9 0 0 
3 0 0 7 0 0 11 0 0 18 0 0 22 0 0 22 0 0 26 0 0 34 0 0 36 0 0 162 0 0 11934 0 0 23606 0 0 23649 0 0 23673 0 0 23637 0 0 23922 0 0 23468 0 0 23476 0 0 23667 0 0 23571 0 0 23902 0 0 23699 0 0 23639 0 0 23536 0 0 23625 0 0 23744 0 0 23568 0 0 23389 0 0 23756 0 0 23626 0 0 24003 0 0 23733 0 0 23835 0 0 23554 0 0 23255 0 0 23841 0 0 23902 0 0 23527 0 0 23851 0 0 23466 0 0 23667 0 0 23918 0 0 23774 0 0 23709 0 0 23845 0 0 23951 0 0 23649 0 0 23747 0 0 23975 0 0 23527 0 0 11881 0 0 172 0 0 32 0 0 25 0 0 24 0 0 28 0 0 27 0 0 16 0 0 9 0 0 7 0 0 
5 0 0 7 0 0 11 0 0 12 0 0 18 0 0 22 0 0 20 0 0 20 0 0 30 0 0 151 0 0 11835 0 0 23463 0 0 23688 0 0 23718 0 0 23679 0 0 23709 0 0 23770 0 0 23842 0 0 23881 0 0 23594 0 0 23578 0 0 23670 0 0 23667 0 0 23668 0 0 23938 0 0 23717 0 0 23735 0 0 23611 0 0 23905 0 0 23970 0 0 23967 0 0 23735 0 0 23966 0 0 23683 0 0 23667 0 0 23761 0 0 23607 0 0 23558 0 0 23870 0 0 23701 0 0 23757 0 0 23708 0 0 23781 0 0 23590 0 0 23888 0 0 23492 0 0 23898 0 0 23742 0 0 23820 0 0 23600 0 0 11744 0 0 150 0 0 42 0 0 38 0 0 29 0 0 25 0 0 21 0 0 18 0 0 11 0 0 12 0 0 
9 0 0 20 0 0 19 0 0 18 0 0 16 0 0 11 0 0 18 0 0 30 0 0 35 0 0 168 0 0 11756 0 0 23602 0 0 23713 0 0 23737 0 0 23897 0 0 23877 0 0 23648 0 0 23709 0 0 23559 0 0 23657 0 0 23620 0 0 23659 0 0 23747 0 0 23841 0 0 23760 0 0 23882 0 0 24028 0 0 23716 0 0 23581 0 0 23687 0 0 23750 0 0 23848 0 0 23720 0 0 23738 0 0 23620 0 0 23693 0 0 23662 0 0 23704 0 0 23716 0 0 23447 0 0 23604 0 0 23842 0 0 23717 0 0 23677 0 0 23588 0 0 23515 0 0 23633 0 0 23691 0 0 23854 0 0 23580 0 0 11851 0 0 154 0 0 43 0 0 30 0 0 25 0 0 20 0 0 20 0 0 16 0 0 10 0 0 12 0 0 
9 0 0 20 0 0 18 0 0 20 0 0 22 0 0 20 0 0 24 0 0 31 0 0 47 0 0 158 0 0 11954 0 0 23678 0 0 23814 0 0 23822 0 0 23627 0 0 23667 0 0 23739 0 0 23833 0 0 23766 0 0 23712 0 0 23550 0 0 23846 0 0 23634 0 0 23646 0 0 23636 0 0 23583 0 0 23778 0 0 23721 0 0 23479 0 0 23731 0 0 23892 0 0 23699 0 0 23744 0 0 23559 0 0 23689 0 0 23714 0 0 23859 0 0 23747 0 0 23809 0 0 23575 0 0 23424 0 0 23499 0 0 23804 0 0 23489 0 0 23556 0 0 23853 0 0 23626 0 0 23927 0 0 23813 0 0 23436 0 0 11907 0 0 148 0 0 34 0 0 40 0 0 26 0 0 22 0 0 12 0 0 10 0 0 14 0 0 13 0 0 
6 0 0 12 0 0 12 0 0 14 0 0 20 0 0 28 0 0 30 0 0 29 0 0 40 0 0 164 0 0 11782 0 0 23421 0 0 23562 0 0 23783 0 0 23825 0 0 23596 0 0 23771 0 0 23677 0 0 23698 0 0 23848 0 0 23681 0 0 23885 0 0 23829 0 0 23900 0 0 23562 0 0 23708 0 0 24011 0 0 23898 0 0 23712 0 0 23912 0 0 23797 0 0 23647 0 0 23656 0 0 23747 0 0 23735 0 0 23540 0 0 23719 0 0 24005 0 0 23846 0 0 23556 0 0 23663 0 0 23734 0 0 23912 0 0 23909 0 0 23589 0 0 23676 0 0 23727 0 0 23496 0 0 23603 0 0 23631 0 0 11741 0 0 175 0 0 36 0 0 28 0 0 33 0 0 18 0 0 15 0 0 13 0 0 21 0 0 10 0 0 
5 0 0 10 0 0 20 0 0 20 0 0 18 0 0 20 0 0 25 0 0 34 0 0 47 0 0 153 0 0 11772 0 0 23655 0 0 23846 0 0 23605 0 0 23630 0 0 23401 0 0 23581 0 0 23806 0 0 23608 0 0 23897 0 0 23707 0 0 23786 0 0 23628 0 0 23672 0 0 23887 0 0 23714 0 0 23682 0 0 23841 0 0 23740 0 0 23718 0 0 23634 0 0 23631 0 0 23722 0 0 23725 0 0 23669 0 0 23587 0 0 23852 0 0 23671 0 0 23642 0 0 23883 0 0 23497 0 0 23766 0 0 23867 0 0 23773 0 0 23549 0 0 23768 0 0 23784 0 0 23559 0 0 23408 0 0 23689 0 0 11957 0 0 173 0 0 47 0 0 34 0 0 28 0 0 26 0 0 24 0 0 16 0 0 12 0 0 13 0 0 
5 0 0 14 0 0 16 0 0 18 0 0 18 0 0 24 0 0 29 0 0 32 0 0 38 0 0 155 0 0 11895 0 0 23729 0 0 23507 0 0 23546 0 0 23806 0 0 23773 0 0 23698 0 0 23538 0 0 23784 0 0 23705 0 0 23656 0 0 23589 0 0 23674 0 0 23736 0 0 23885 0 0 23691 0 0 23794 0 0 23835 0 0 23747 0 0 23709 0 0 23764 0 0 23547 0 0 23899 0 0 23538 0 0 23781 0 0 23718 0 0 23711 0 0 23707 0 0 23660 0 0 23737 0 0 23588 0 0 23625 0 0 23589 0 0 23832 0 0 23554 0 0 24073 0 0 23831 0 0 23788 0 0 23552 0 0 23439 0 0 11874 0 0 171 0 0 35 0 0 35 0 0 32 0 0 24 0 0 21 0 0 15 0 0 12 0 0 12 0 0 
7 0 0 14 0 0 15 0 0 21 0 0 20 0 0 25 0 0 24 0 0 24 0 0 30 0 0 154 0 0 11812 0 0 23525 0 0 23511 0 0 23603 0 0 23631 0 0 23671 0 0 23653 0 0 23748 0 0 23881 0 0 23689 0 0 23497 0 0 23697 0 0 23690 0 0 23779 0 0 23746 0 0 23697 0 0 23669 0 0 23828 0 0 23584 0 0 23795 0 0 23789 0 0 23660 0 0 23708 0 0 23773 0 0 23649 0 0 23698 0 0 23473 0 0 23692 0 0 23616 0 0 23664 0 0 23850 0 0 23627 0 0 23772 0 0 23521 0 0 23761 0 0 23798 0 0 23690 0 0 23812 0 0 23648 0 0 23417 0 0 11818 0 0 163 0 0 50 0 0 30 0 0 26 0 0 19 0 0 13 0 0 14 0 0 16 0 0 10 0 0 
10 0 0 15 0 0 14 0 0 14 0 0 23 0 0 12 0 0 17 0 0 27 0 0 40 0 0 161 0 0 11943 0 0 23553 0 0 23829 0 0 23527 0 0 23592 0 0 23693 0 0 23655 0 0 23804 0 0 23794 0 0 23622 0 0 23562 0 0 23735 0 0 23870 0 0 23524 0 0 23613 0 0 23655 0 0 23755 0 0 23584 0 0 23639 0 0 23754 0 0 23654 0 0 23541 0 0 23711 0 0 23594 0 0 23759 0 0 23716 0 0 23557 0 0 23684 0 0 23645 0 0 23688 0 0 23851 0 0 23618 0 0 23846 0 0 23613 0 0 23688 0 0 23604 0 0 23483 0 0 23776 0 0 23721 0 0 23353 0 0 11766 0 0 187 0 0 44 0 0 32 0 0 27 0 0 15 0 0 22 0 0 12 0 0 13 0 0 14 0 0 
7 0 0 15 0 0 14 0 0 15 0 0 17 0 0 19 0 0 26 0 0 29 0 0 38 0 0 175 0 0 11889 0 0 23437 0 0 23877 0 0 23615 0 0 23556 0 0 23581 0 0 23598 0 0 23928 0 0 23496 0 0 23806 0 0 23787 0 0 23874 0 0 23730 0 0 23505 0 0 23516 0 0 23792 0 0 23827 0 0 23873 0 0 23569 0 0 23791 0 0 23858 0 0 23748 0 0 23688 0 0 23720 0 0 23937 0 0 23661 0 0 23698 0 0 23702 0 0 24040 0 0 23635 0 0 23545 0 0 23480 0 0 23795 0 0 23785 0 0 23808 0 0 23592 0 0 23546 0 0 23627 0 0 23441 0 0 23538 0 0 11888 0 0 169 0 0 35 0 0 24 0 0 29 0 0 24 0 0 20 0 0 25 0 0 15 0 0 10 0 0 
3 0 0 6 0 0 12 0 0 23 0 0 20 0 0 22 0 0 25 0 0 27 0 0 33 0 0 180 0 0 11884 0 0 23250 0 0 23553 0 0 23752 0 0 23851 0 0 23654 0 0 23647 0 0 23807 0 0 23700 0 0 23850 0 0 23704 0 0 23601 0 0 23640 0 0 23932 0 0 23724 0 0 23683 0 0 23984 0 0 23745 0 0 23668 0 0 23829 0 0 23780 0 0 23685 0 0 23668 0 0 23714 0 0 23834 0 0 23633 0 0 23736 0 0 23664 0 0 23566 0 0 23808 0 0 23753 0 0 23682 0 0 23769 0 0 23962 0 0 23756 0 0 23827 0 0 23554 0 0 23601 0 0 23732 0 0 23637 0 0 11821 0 0 165 0 0 46 0 0 33 0 0 26 0 0 23 0 0 14 0 0 14 0 0 16 0 0 16 0 0 
9 0 0 22 0 0 20 0 0 19 0 0 20 0 0 20 0 0 30 0 0 32 0 0 48 0 0 167 0 0 11886 0 0 23685 0 0 23716 0 0 23410 0 0 23806 0 0 23631 0 0 23701 0 0 23859 0 0 23726 0 0 23808 0 0 23589 0 0 23692 0 0 23589 0 0 23659 0 0 23516 0 0 23682 0 0 23878 0 0 23722 0 0 23617 0 0 23620 0 0 23800 0 0 23748 0 0 23708 0 0 23598 0 0 23580 0 0 23956 0 0 23904 0 0 23454 0 0 23733 0 0 23738 0 0 23607 0 0 23712 0 0 23645 0 0 23796 0 0 23911 0 0 23862 0 0 23867 0 0 23493 0 0 24066 0 0 23501 0 0 11852 0 0 150 0 0 45 0 0 33 0 0 23 0 0 16 0 0 16 0 0 17 0 0 12 0 0 13 0 0 
6 0 0 12 0 0 14 0 0 13 0 0 23 0 0 28 0 0 37 0 0 35 0 0 46 0 0 147 0 0 11968 0 0 23580 0 0 23696 0 0 23516 0 0 23583 0 0 23620 0 0 23687 0 0 23456 0 0 23602 0 0 23899 0 0 23804 0 0 23828 0 0 23708 0 0 23769 0 0 23785 0 0 23749 0 0 23602 0 0 23589 0 0 23701 0 0 23767 0 0 23793 0 0 23720 0 0 23630 0 0 23711 0 0 23685 0 0 23680 0 0 23507 0 0 23627 0 0 23455 0 0 23685 0 0 23750 0 0 23654 0 0 23572 0 0 23398 0 0 23798 0 0 23839 0 0 23803 0 0 23649 0 0 23706 0 0 23447 0 0 11775 0 0 154 0 0 42 0 0 37 0 0 27 0 0 24 0 0 18 0 0 15 0 0 17 0 0 11 0 0 
2 0 0 11 0 0 15 0 0 21 0 0 21 0 0 16 0 0 22 0 0 35 0 0 44 0 0 173 0 0 11789 0 0 23468 0 0 23678 0 0 23935 0 0 23673 0 0 23409 0 0 23691 0 0 23764 0 0 23754 0 0 23524 0 0 23550 0 0 23589 0 0 23467 0 0 23581 0 0 23574 0 0 23767 0 0 23796 0 0 23701 0 0 23733 0 0 23599 0 0 23818 0 0 23773 0 0 23563 0 0 23912 0 0 23650 0 0 23389 0 0 23734 0 0 23913 0 0 23701 0 0 23488 0 0 23774 0 0 23715 0 0 23636 0 0 23695 0 0 23699 0 0 23653 0 0 23694 0 0 23668 0 0 23384 0 0 23410 0 0 11804 0 0 169 0 0 51 0 0 40 0 0 24 0 0 21 0 0 22 0 0 20 0 0 14 0 0 15 0 0 
4 0 0 11 0 0 22 0 0 18 0 0 12 0 0 25 0 0 20 0 0 28 0 0 41 0 0 160 0 0 11882 0 0 23593 0 0 23593 0 0 23934 0 0 23626 0 0 23414 0 0 23779 0 0 23590 0 0 23654 0 0 23717 0 0 23665 0 0 23850 0 0 23585 0 0 23611 0 0 23817 0 0 23613 0 0 23816 0 0 23599 0 0 23821 0 0 23846 0 0 23866 0 0 23737 0 0 24048 0 0 23624 0 0 23838 0 0 23548 0 0 23495 0 0 23689 0 0 23787 0 0 23647 0 0 23519 0 0 23526 0 0 23662 0 0 23707 0 0 23782 0 0 23814 0 0 23817 0 0 23691 0 0 23427 0 0 23644 0 0 11946 0 0 160 0 0 47 0 0 34 0 0 32 0 0 24 0 0 17 0 0 17 0 0 17 0 0 19 0 0 
6 0 0 12 0 0 13 0 0 20 0 0 16 0 0 29 0 0 38 0 0 35 0 0 35 0 0 164 0 0 12062 0 0 23503 0 0 23787 0 0 23749 0 0 23657 0 0 23551 0 0 23579 0 0 23445 0 0 23898 0 0 23493 0 0 23423 0 0 23996 0 0 23839 0 0 23592 0 0 23550 0 0 23640 0 0 23892 0 0 23651 0 0 23676 0 0 23582 0 0 23826 0 0 23680 0 0 23825 0 0 23910 0 0 23693 0 0 23528 0 0 23613 0 0 23411 0 0 23800 0 0 23762 0 0 23761 0 0 23887 0 0 23835 0 0 23539 0 0 23594 0 0 23579 0 0 23609 0 0 23623 0 0 23562 0 0 23796 0 0 11943 0 0 168 0 0 45 0 0 37 0 0 24 0 0 24 0 0 14 0 0 15 0 0 20 0 0 15 0 0 
5 0 0 8 0 0 8 0 0 20 0 0 33 0 0 28 0 0 25 0 0 24 0 0 40 0 0 170 0 0 11971 0 0 23567 0 0 23812 0 0 23501 0 0 23711 0 0 23684 0 0 23490 0 0 23813 0 0 23676 0 0 23822 0 0 23632 0 0 23735 0 0 23705 0 0 23598 0 0 23729 0 0 23635 0 0 23788 0 0 23689 0 0 23353 0 0 23771 0 0 23970 0 0 23681 0 0 23451 0 0 23781 0 0 23425 0 0 23814 0 0 23581 0 0 23720 0 0 23709 0 0 23702 0 0 23760 0 0 23806 0 0 23786 0 0 23801 0 0 23840 0 0 23469 0 0 23812 0 0 23525 0 0 23355 0 0 23422 0 0 11864 0 0 167 0 0 46 0 0 39 0 0 28 0 0 31 0 0 24 0 0 16 0 0 12 0 0 19 0 0 
5 0 0 15 0 0 16 0 0 20 0 0 25 0 0 33 0 0 33 0 0 35 0 0 53 0 0 173 0 0 11888 0 0 23448 0 0 23645 0 0 23508 0 0 23753 0 0 23384 0 0 23661 0 0 23758 0 0 23789 0 0 23709 0 0 23900 0 0 23657 0 0 23491 0 0 23840 0 0 23770 0 0 23629 0 0 23682 0 0 23933 0 0 23719 0 0 23720 0 0 23805 0 0 23668 0 0 23852 0 0 23502 0 0 23723 0 0 23881 0 0 23839 0 0 23899 0 0 23735 0 0 23701 0 0 23803 0 0 23751 0 0 23723 0 0 23749 0 0 23904 0 0 23880 0 0 23945 0 0 23886 0 0 23674 0 0 23638 0 0 11752 0 0 149 0 0 30 0 0 36 0 0 22 0 0 29 0 0 26 0 0 14 0 0 16 0 0 13 0 0 
5 0 0 14 0 0 18 0 0 28 0 0 22 0 0 28 0 0 30 0 0 37 0 0 46 0 0 160 0 0 11958 0 0 23798 0 0 23725 0 0 23645 0 0 23632 0 0 23587 0 0 23591 0 0 23787 0 0 23701 0 0 23527 0 0 23936 0 0 23725 0 0 23850 0 0 23794 0 0 23848 0 0 23837 0 0 23750 0 0 23509 0 0 23651 0 0 23743 0 0 23723 0 0 23656 0 0 23816 0 0 23724 0 0 23779 0 0 23876 0 0 23726 0 0 23860 0 0 23677 0 0 23643 0 0 23800 0 0 23743 0 0 23725 0 0 23643 0 0 23853 0 0 23733 0 0 23586 0 0 23698 0 0 23789 0 0 23426 0 0 12007 0 0 165 0 0 40 0 0 23 0 0 31 0 0 18 0 0 17 0 0 12 0 0 16 0 0 18 0 0 
6 0 0 12 0 0 20 0 0 19 0 0 20 0 0 27 0 0 27 0 0 38 0 0 44 0 0 169 0 0 11983 0 0 23542 0 0 23640 0 0 23647 0 0 23621 0 0 23893 0 0 24032 0 0 23601 0 0 23640 0 0 23771 0 0 23843 0 0 23664 0 0 23755 0 0 23880 0 0 23581 0 0 23616 0 0 23595 0 0 23905 0 0 23914 0 0 23659 0 0 23580 0 0 23667 0 0 23533 0 0 23475 0 0 23740 0 0 23718 0 0 23823 0 0 23581 0 0 23727 0 0 23764 0 0 23898 0 0 23394 0 0 23575 0 0 23664 0 0 23895 0 0 23785 0 0 23649 0 0 23839 0 0 23886 0 0 23609 0 0 11708 0 0 192 0 0 37 0 0 28 0 0 28 0 0 21 0 0 20 0 0 17 0 0 8 0 0 12 0 0 
5 0 0 21 0 0 13 0 0 15 0 0 25 0 0 36 0 0 37 0 0 44 0 0 49 0 0 184 0 0 11813 0 0 23772 0 0 23742 0 0 23742 0 0 23688 0 0 23411 0 0 23613 0 0 23692 0 0 23820 0 0 23582 0 0 23841 0 0 23574 0 0 23646 0 0 23590 0 0 23669 0 0 23629 0 0 23414 0 0 23567 0 0 23946 0 0 23908 0 0 23407 0 0 23748 0 0 23641 0 0 23809 0 0 23895 0 0 23812 0 0 23886 0 0 23683 0 0 23662 0 0 23703 0 0 23576 0 0 23840 0 0 23750 0 0 23653 0 0 23819 0 0 23674 0 0 23682 0 0 23814 0 0 23833 0 0 23490 0 0 11888 0 0 157 0 0 47 0 0 39 0 0 36 0 0 29 0 0 19 0 0 15 0 0 21 0 0 12 0 0 
8 0 0 11 0 0 14 0 0 14 0 0 24 0 0 13 0 0 22 0 0 29 0 0 36 0 0 162 0 0 11765 0 0 23774 0 0 23784 0 0 23663 0 0 23903 0 0 23651 0 0 23644 0 0 23695 0 0 23897 0 0 23773 0 0 23762 0 0 23620 0 0 23785 0 0 23598 0 0 23644 0 0 23853 0 0 23512 0 0 23680 0 0 23748 0 0 23719 0 0 23864 0 0 23708 0 0 23692 0 0 23662 0 0 23696 0 0 23634 0 0 23637 0 0 24037 0 0 23691 0 0 23855 0 0 23806 0 0 23447 0 0 23686 0 0 23737 0 0 23909 0 0 23553 0 0 23463 0 0 23792 0 0 23751 0 0 23840 0 0 11857 0 0 167 0 0 42 0 0 30 0 0 24 0 0 26 0 0 28 0 0 18 0 0 9 0 0 10 0 0 
3 0 0 10 0 0 14 0 0 22 0 0 17 0 0 24 0 0 26 0 0 25 0 0 34 0 0 160 0 0 11987 0 0 23640 0 0 23530 0 0 23578 0 0 23563 0 0 23769 0 0 23836 0 0 23870 0 0 23766 0 0 23531 0 0 23544 0 0 23768 0 0 23777 0 0 23630 0 0 23715 0 0 23796 0 0 23931 0 0 23689 0 0 23770 0 0 23677 0 0 23645 0 0 23637 0 0 23774 0 0 23855 0 0 23920 0 0 23603 0 0 23501 0 0 23641 0 0 23640 0 0 23595 0 0 23857 0 0 23677 0 0 23582 0 0 23638 0 0 23558 0 0 23717 0 0 23693 0 0 23605 0 0 23572 0 0 23487 0 0 11842 0 0 174 0 0 45 0 0 39 0 0 22 0 0 18 0 0 23 0 0 14 0 0 13 0 0 12 0 0 
7 0 0 15 0 0 20 0 0 17 0 0 26 0 0 22 0 0 24 0 0 29 0 0 41 0 0 155 0 0 11841 0 0 23710 0 0 23641 0 0 23566 0 0 23492 0 0 23874 0 0 23475 0 0 23628 0 0 23640 0 0 23546 0 0 23562 0 0 23562 0 0 23758 0 0 23561 0 0 23997 0 0 23759 0 0 23722 0 0 23609 0 0 23711 0 0 23690 0 0 23658 0 0 23519 0 0 23672 0 0 23743 0 0 23829 0 0 23941 0 0 23742 0 0 23718 0 0 23659 0 0 23687 0 0 23692 0 0 24141 0 0 23638 0 0 23714 0 0 23583 0 0 23705 0 0 23696 0 0 23819 0 0 23604 0 0 23607 0 0 11782 0 0 157 0 0 41 0 0 25 0 0 22 0 0 18 0 0 9 0 0 17 0 0 15 0 0 13 0 0 
6 0 0 15 0 0 8 0 0 12 0 0 18 0 0 25 0 0 30 0 0 39 0 0 40 0 0 146 0 0 11889 0 0 23586 0 0 23668 0 0 23713 0 0 23829 0 0 23542 0 0 23613 0 0 23877 0 0 23990 0 0 23969 0 0 23648 0 0 23586 0 0 23722 0 0 23424 0 0 23632 0 0 23694 0 0 23835 0 0 23642 0 0 23579 0 0 23740 0 0 23812 0 0 23577 0 0 23596 0 0 23631 0 0 23902 0 0 23799 0 0 23620 0 0 23614 0 0 23709 0 0 23591 0 0 23625 0 0 23845 0 0 23604 0 0 23973 0 0 23703 0 0 23580 0 0 23779 0 0 23725 0 0 23466 0 0 23839 0 0 11798 0 0 167 0 0 31 0 0 29 0 0 25 0 0 27 0 0 26 0 0 21 0 0 18 0 0 18 0 0 
6 0 0 11 0 0 8 0 0 15 0 0 14 0 0 25 0 0 30 0 0 28 0 0 44 0 0 167 0 0 11804 0 0 23598 0 0 23836 0 0 23514 0 0 23554 0 0 23719 0 0 23949 0 0 23556 0 0 23863 0 0 23794 0 0 23707 0 0 23671 0 0 23766 0 0 23655 0 0 23762 0 0 23831 0 0 23921 0 0 23723 0 0 23695 0 0 23704 0 0 23692 0 0 23683 0 0 23746 0 0 23598 0 0 23709 0 0 23550 0 0 23806 0 0 23577 0 0 23603 0 0 23742 0 0 23764 0 0 23745 0 0 23758 0 0 23742 0 0 23795 0 0 23932 0 0 23665 0 0 23557 0 0 23603 0 0 23641 0 0 11835 0 0 176 0 0 42 0 0 30 0 0 29 0 0 30 0 0 19 0 0 14 0 0 11 0 0 15 0 0 
6 0 0 16 0 0 11 0 0 17 0 0 15 0 0 12 0 0 23 0 0 30 0 0 44 0 0 153 0 0 11913 0 0 23772 0 0 23672 0 0 23626 0 0 23643 0 0 23826 0 0 23485 0 0 23714 0 0 23743 0 0 23839 0 0 23836 0 0 23680 0 0 23727 0 0 23671 0 0 23855 0 0 23949 0 0 23689 0 0 23769 0 0 23642 0 0 23614 0 0 23541 0 0 23456 0 0 23821 0 0 23682 0 0 23692 0 0 23688 0 0 23891 0 0 23519 0 0 23636 0 0 23508 0 0 23670 0 0 23564 0 0 23703 0 0 24050 0 0 23800 0 0 23770 0 0 23752 0 0 23627 0 0 23696 0 0 23652 0 0 11984 0 0 168 0 0 44 0 0 28 0 0 27 0 0 22 0 0 20 0 0 17 0 0 16 0 0 9 0 0 
4 0 0 11 0 0 11 0 0 13 0 0 13 0 0 14 0 0 22 0 0 30 0 0 47 0 0 159 0 0 11922 0 0 23541 0 0 23638 0 0 23727 0 0 23682 0 0 23834 0 0 23959 0 0 23879 0 0 23547 0 0 23561 0 0 23626 0 0 23606 0 0 23727 0 0 23582 0 0 23778 0 0 23758 0 0 23944 0 0 23819 0 0 23605 0 0 23693 0 0 23689 0 0 23738 0 0 23480 0 0 23597 0 0 23897 0 0 23537 0 0 23629 0 0 23693 0 0 23705 0 0 23610 0 0 23769 0 0 23810 0 0 23623 0 0 23591 0 0 23863 0 0 23761 0 0 23524 0 0 23663 0 0 23699 0 0 23658 0 0 11766 0 0 173 0 0 47 0 0 35 0 0 27 0 0 23 0 0 28 0 0 12 0 0 10 0 0 12 0 0 
9 0 0 15 0 0 12 0 0 12 0 0 15 0 0 18 0 0 18 0 0 26 0 0 23 0 0 154 0 0 11891 0 0 23706 0 0 23543 0 0 23672 0 0 23774 0 0 23816 0 0 23888 0 0 23481 0 0 23475 0 0 23705 0 0 23756 0 0 23443 0 0 23854 0 0 23628 0 0 23837 0 0 23834 0 0 23583 0 0 23715 0 0 23722 0 0 23749 0 0 23763 0 0 23950 0 0 23588 0 0 23702 0 0 23897 0 0 23549 0 0 23514 0 0 23644 0 0 23837 0 0 23918 0 0 23682 0 0 23903 0 0 23580 0 0 23594 0 0 23546 0 0 23677 0 0 23928 0 0 23510 0 0 23575 0 0 23776 0 0 11865 0 0 158 0 0 47 0 0 30 0 0 23 0 0 11 0 0 12 0 0 17 0 0 19 0 0 14 0 0 
7 0 0 14 0 0 22 0 0 14 0 0 12 0 0 15 0 0 23 0 0 27 0 0 43 0 0 150 0 0 11864 0 0 23486 0 0 23685 0 0 23583 0 0 23776 0 0 23633 0 0 23769 0 0 23872 0 0 23715 0 0 23783 0 0 23644 0 0 23554 0 0 23601 0 0 23654 0 0 23580 0 0 23645 0 0 23532 0 0 23915 0 0 23964 0 0 23654 0 0 23879 0 0 23721 0 0 23547 0 0 23665 0 0 23725 0 0 23645 0 0 23881 0 0 23735 0 0 23786 0 0 23770 0 0 23805 0 0 23523 0 0 23662 0 0 23582 0 0 23642 0 0 23560 0 0 23749 0 0 23716 0 0 23767 0 0 23529 0 0 11829 0 0 144 0 0 40 0 0 34 0 0 22 0 0 24 0 0 16 0 0 15 0 0 19 0 0 13 0 0 
6 0 0 10 0 0 14 0 0 19 0 0 13 0 0 18 0 0 18 0 0 28 0 0 28 0 0 142 0 0 11659 0 0 23471 0 0 23586 0 0 23722 0 0 23601 0 0 23575 0 0 23829 0 0 23602 0 0 23561 0 0 23633 0 0 23784 0 0 23701 0 0 23615 0 0 23707 0 0 23663 0 0 23733 0 0 23766 0 0 23580 0 0 23980 0 0 23512 0 0 23486 0 0 23723 0 0 23774 0 0 23495 0 0 23719 0 0 24048 0 0 23481 0 0 23825 0 0 23568 0 0 23601 0 0 23552 0 0 23638 0 0 23646 0 0 23739 0 0 23750 0 0 23451 0 0 23740 0 0 23664 0 0 23322 0 0 23328 0 0 11870 0 0 159 0 0 37 0 0 27 0 0 23 0 0 19 0 0 12 0 0 17 0 0 12 0 0 8 0 0 
3 0 0 12 0 0 18 0 0 23 0 0 20 0 0 18 0 0 20 0 0 33 0 0 45 0 0 156 0 0 11978 0 0 23514 0 0 23684 0 0 23764 0 0 23534 0 0 23587 0 0 23760 0 0 23698 0 0 23578 0 0 23656 0 0 23715 0 0 23501 0 0 23635 0 0 23641 0 0 23593 0 0 23806 0 0 23800 0 0 23721 0 0 23657 0 0 23814 0 0 23734 0 0 23796 0 0 23614 0 0 23745 0 0 23709 0 0 23827 0 0 23625 0 0 23535 0 0 23768 0 0 23579 0 0 23736 0 0 23701 0 0 23737 0 0 23710 0 0 23543 0 0 23625 0 0 23619 0 0 23611 0 0 23479 0 0 23678 0 0 12044 0 0 154 0 0 28 0 0 20 0 0 17 0 0 13 0 0 15 0 0 13 0 0 13 0 0 6 0 0 
5 0 0 11 0 0 16 0 0 14 0 0 13 0 0 9 0 0 19 0 0 30 0 0 35 0 0 149 0 0 11945 0 0 23318 0 0 23696 0 0 23631 0 0 23650 0 0 23741 0 0 23764 0 0 23728 0 0 23693 0 0 23707 0 0 23523 0 0 23619 0 0 23658 0 0 23584 0 0 23469 0 0 23737 0 0 23776 0 0 23917 0 0 23737 0 0 23654 0 0 23681 0 0 23741 0 0 23761 0 0 23737 0 0 23774 0 0 23816 0 0 23564 0 0 23753 0 0 23834 0 0 23799 0 0 23855 0 0 23449 0 0 23809 0 0 23593 0 0 23489 0 0 23505 0 0 23395 0 0 23824 0 0 23517 0 0 23672 0 0 11713 0 0 144 0 0 35 0 0 22 0 0 23 0 0 17 0 0 16 0 0 13 0 0 12 0 0 13 0 0 
7 0 0 11 0 0 15 0 0 11 0 0 13 0 0 17 0 0 25 0 0 24 0 0 28 0 0 147 0 0 11905 0 0 23589 0 0 23573 0 0 23740 0 0 23989 0 0 23696 0 0 23847 0 0 23820 0 0 23816 0 0 23564 0 0 23644 0 0 23702 0 0 23641 0 0 23422 0 0 23418 0 0 23658 0 0 23607 0 0 23529 0 0 23631 0 0 23835 0 0 23739 0 0 23504 0 0 23776 0 0 23476 0 0 23690 0 0 23485 0 0 23603 0 0 23734 0 0 23763 0 0 23858 0 0 23805 0 0 23584 0 0 23651 0 0 23729 0 0 23730 0 0 23631 0 0 23782 0 0 23808 0 0 23756 0 0 23457 0 0 12031 0 0 145 0 0 23 0 0 20 0 0 18 0 0 19 0 0 19 0 0 17 0 0 6 0 0 8 0 0 
2 0 0 8 0 0 11 0 0 10 0 0 9 0 0 14 0 0 23 0 0 20 0 0 40 0 0 162 0 0 11755 0 0 23182 0 0 23475 0 0 23407 0 0 23437 0 0 23389 0 0 23669 0 0 23505 0 0 23796 0 0 23666 0 0 23558 0 0 23714 0 0 23614 0 0 23613 0 0 23445 0 0 23379 0 0 23584 0 0 23514 0 0 23643 0 0 23579 0 0 23565 0 0 23351 0 0 23421 0 0 23507 0 0 23562 0 0 23670 0 0 23488 0 0 23342 0 0 23438 0 0 23697 0 0 23498 0 0 23504 0 0 23595 0 0 23517 0 0 23420 0 0 23754 0 0 23645 0 0 23443 0 0 23733 0 0 23089 0 0 11750 0 0 136 0 0 23 0 0 17 0 0 11 0 0 12 0 0 6 0 0 13 0 0 9 0 0 10 0 0 
1 0 0 8 0 0 9 0 0 6 0 0 10 0 0 16 0 0 17 0 0 20 0 0 20 0 0 87 0 0 5954 0 0 11713 0 0 11654 0 0 11851 0 0 11936 0 0 11843 0 0 11994 0 0 11936 0 0 11912 0 0 11842 0 0 11922 0 0 11830 0 0 11864 0 0 12030 0 0 11809 0 0 11779 0 0 11752 0 0 11883 0 0 11831 0 0 11912 0 0 11768 0 0 11748 0 0 11932 0 0 11988 0 0 11782 0 0 11916 0 0 11986 0 0 11868 0 0 11868 0 0 12018 0 0 11651 0 0 12074 0 0 11954 0 0 11942 0 0 12048 0 0 11865 0 0 11835 0 0 11792 0 0 11659 0 0 11673 0 0 5888 0 0 73 0 0 24 0 0 16 0 0 14 0 0 8 0 0 10 0 0 10 0 0 15 0 0 5 0 0 
4 0 0 11 0 0 11 0 0 16 0 0 12 0 0 16 0 0 13 0 0 15 0 0 21 0 0 17 0 0 80 0 0 122 0 0 156 0 0 142 0 0 145 0 0 160 0 0 145 0 0 165 0 0 166 0 0 160 0 0 139 0 0 169 0 0 166 0 0 181 0 0 170 0 0 175 0 0 167 0 0 157 0 0 164 0 0 152 0 0 166 0 0 160 0 0 157 0 0 182 0 0 151 0 0 155 0 0 164 0 0 157 0 0 151 0 0 169 0 0 163 0 0 168 0 0 152 0 0 171 0 0 166 0 0 152 0 0 149 0 0 145 0 0 145 0 0 139 0 0 85 0 0 20 0 0 15 0 0 13 0 0 13 0 0 12 0 0 12 0 0 5 0 0 7 0 0 10 0 0 
7 0 0 10 0 0 10 0 0 8 0 0 9 0 0 13 0 0 15 0 0 17 0 0 17 0 0 14 0 0 26 0 0 27 0 0 34 0 0 28 0 0 27 0 0 38 0 0 28 0 0 31 0 0 41 0 0 41 0 0 38 0 0 45 0 0 34 0 0 37 0 0 35 0 0 38 0 0 48 0 0 41 0 0 43 0 0 37 0 0 38 0 0 52 0 0 44 0 0 43 0 0 37 0 0 32 0 0 36 0 0 32 0 0 46 0 0 51 0 0 39 0 0 37 0 0 30 0 0 31 0 0 33 0 0 31 0 0 35 0 0 40 0 0 24 0 0 35 0 0 31 0 0 22 0 0 17 0 0 12 0 0 6 0 0 11 0 0 12 0 0 8 0 0 12 0 0 9 0 0 
2 0 0 1 0 0 3 0 0 6 0 0 9 0 0 13 0 0 17 0 0 12 0 0 13 0 0 23 0 0 21 0 0 21 0 0 25 0 0 25 0 0 25 0 0 31 0 0 25 0 0 33 0 0 29 0 0 29 0 0 35 0 0 29 0 0 36 0 0 27 0 0 32 0 0 29 0 0 33 0 0 37 0 0 34 0 0 24 0 0 24 0 0 34 0 0 32 0 0 39 0 0 30 0 0 26 0 0 28 0 0 33 0 0 30 0 0 41 0 0 31 0 0 24 0 0 35 0 0 21 0 0 24 0 0 20 0 0 24 0 0 27 0 0 22 0 0 23 0 0 14 0 0 18 0 0 17 0 0 15 0 0 13 0 0 10 0 0 4 0 0 6 0 0 6 0 0 8 0 0 
2 0 0 8 0 0 7 0 0 7 0 0 9 0 0 11 0 0 9 0 0 12 0 0 17 0 0 21 0 0 17 0 0 14 0 0 25 0 0 20 0 0 23 0 0 21 0 0 23 0 0 17 0 0 21 0 0 23 0 0 29 0 0 23 0 0 25 0 0 24 0 0 26 0 0 16 0 0 26 0 0 27 0 0 24 0 0 23 0 0 25 0 0 40 0 0 35 0 0 21 0 0 19 0 0 24 0 0 25 0 0 26 0 0 30 0 0 24 0 0 26 0 0 17 0 0 27 0 0 32 0 0 23 0 0 18 0 0 16 0 0 17 0 0 25 0 0 20 0 0 24 0 0 19 0 0 16 0 0 18 0 0 14 0 0 9 0 0 11 0 0 5 0 0 5 0 0 6 0 0 
1 0 0 6 0 0 5 0 0 9 0 0 15 0 0 5 0 0 13 0 0 15 0 0 8 0 0 12 0 0 16 0 0 13 0 0 17 0 0 7 0 0 17 0 0 12 0 0 12 0 0 21 0 0 18 0 0 23 0 0 18 0 0 12 0 0 23 0 0 17 0 0 19 0 0 14 0 0 22 0 0 20 0 0 26 0 0 21 0 0 21 0 0 32 0 0 30 0 0 18 0 0 17 0 0 21 0 0 17 0 0 24 0 0 23 0 0 16 0 0 14 0 0 24 0 0 26 0 0 24 0 0 13 0 0 22 0 0 22 0 0 18 0 0 20 0 0 20 0 0 20 0 0 17 0 0 14 0 0 13 0 0 14 0 0 10 0 0 9 0 0 7 0 0 4 0 0 9 0 0 
3 0 0 6 0 0 3 0 0 15 0 0 6 0 0 8 0 0 9 0 0 9 0 0 7 0 0 13 0 0 10 0 0 12 0 0 12 0 0 8 0 0 13 0 0 17 0 0 10 0 0 12 0 0 19 0 0 14 0 0 8 0 0 16 0 0 15 0 0 14 0 0 12 0 0 19 0 0 19 0 0 17 0 0 24 0 0 28 0 0 19 0 0 18 0 0 19 0 0 13 0 0 16 0 0 19 0 0 16 0 0 13 0 0 16 0 0 14 0 0 12 0 0 22 0 0 19 0 0 14 0 0 14 0 0 13 0 0 22 0 0 19 0 0 13 0 0 15 0 0 15 0 0 18 0 0 16 0 0 8 0 0 12 0 0 14 0 0 3 0 0 8 0 0 4 0 0 1 0 0 
3 0 0 7 0 0 11 0 0 9 0 0 6 0 0 8 0 0 8 0 0 11 0 0 8 0 0 9 0 0 4 0 0 11 0 0 9 0 0 10 0 0 10 0 0 13 0 0 8 0 0 13 0 0 8 0 0 9 0 0 11 0 0 14 0 0 19 0 0 16 0 0 14 0 0 14 0 0 16 0 0 19 0 0 17 0 0 14 0 0 24 0 0 24 0 0 12 0 0 25 0 0 12 0 0 14 0 0 16 0 0 14 0 0 10 0 0 15 0 0 20 0 0 20 0 0 15 0 0 21 0 0 12 0 0 18 0 0 9 0 0 13 0 0 12 0 0 12 0 0 14 0 0 12 0 0 15 0 0 10 0 0 11 0 0 7 0 0 12 0 0 5 0 0 12 0 0 5 0 0 
6 0 0 14 0 0 12 0 0 6 0 0 6 0 0 9 0 0 8 0 0 8 0 0 14 0 0 8 0 0 8 0 0 9 0 0 13 0 0 5 0 0 8 0 0 11 0 0 10 0 0 13 0 0 6 0 0 12 0 0 14 0 0 13 0 0 14 0 0 10 0 0 16 0 0 10 0 0 12 0 0 14 0 0 18 0 0 13 0 0 24 0 0 16 0 0 19 0 0 16 0 0 15 0 0 15 0 0 16 0 0 9 0 0 12 0 0 14 0 0 10 0 0 14 0 0 21 0 0 17 0 0 12 0 0 12 0 0 16 0 0 8 0 0 8 0 0 8 0 0 12 0 0 10 0 0 7 0 0 11 0 0 8 0 0 10 0 0 10 0 0 6 0 0 4 0 0 11 0 0 
5 0 0 8 0 0 5 0 0 6 0 0 6 0 0 9 0 0 5 0 0 10 0 0 14 0 0 5 0 0 5 0 0 13 0 0 11 0 0 5 0 0 7 0 0 8 0 0 14 0 0 8 0 0 12 0 0 10 0 0 12 0 0 10 0 0 15 0 0 13 0 0 9 0 0 12 0 0 15 0 0 11 0 0 13 0 0 18 0 0 19 0 0 14 0 0 13 0 0 16 0 0 20 0 0 12 0 0 11 0 0 8 0 0 10 0 0 9 0 0 5 0 0 13 0 0 14 0 0 16 0 0 14 0 0 14 0 0 9 0 0 10 0 0 9 0 0 4 0 0 12 0 0 9 0 0 4 0 0 5 0 0 6 0 0 8 0 0 8 0 0 12 0 0 5 0 0 6 0 0 
