P3
# This is a dose file slice at depth 85 of 100
60 60
# now we give the maximum value of the RGB coordinates.
32965
0 0 0 0 0 0 0 0 0 0 0 0 0 0 0 0 0 0 0 0 0 1 0 0 0 0 0 1 0 0 1 0 0 0 0 0 1 0 0 0 0 0 1 0 0 1 0 0 0 0 0 0 0 0 0 0 0 1 0 0 2 0 0 1 0 0 0 0 0 0 0 0 1 0 0 0 0 0 1 0 0 3 0 0 0 0 0 0 0 0 2 0 0 1 0 0 2 0 0 0 0 0 0 0 0 2 0 0 1 0 0 0 0 0 0 0 0 0 0 0 2 0 0 1 0 0 0 0 0 1 0 0 0 0 0 1 0 0 2 0 0 0 0 0 0 0 0 1 0 0 0 0 0 2 0 0 0 0 0 0 0 0 0 0 0 0 0 0 1 0 0 0 0 0 1 0 0 0 0 0 
0 0 0 1 0 0 0 0 0 0 0 0 0 0 0 2 0 0 0 0 0 1 0 0 2 0 0 3 0 0 3 0 0 5 0 0 1 0 0 0 0 0 4 0 0 4 0 0 0 0 0 2 0 0 0 0 0 3 0 0 4 0 0 0 0 0 2 0 0 2 0 0 2 0 0 2 0 0 1 0 0 6 0 0 3 0 0 3 0 0 5 0 0 3 0 0 3 0 0 4 0 0 0 0 0 2 0 0 5 0 0 0 0 0 2 0 0 2 0 0 7 0 0 3 0 0 3 0 0 2 0 0 1 0 0 1 0 0 1 0 0 1 0 0 4 0 0 3 0 0 1 0 0 0 0 0 0 0 0 0 0 0 0 0 0 0 0 0 2 0 0 2 0 0 1 0 0 2 0 0 
0 0 0 1 0 0 1 0 0 2 0 0 2 0 0 2 0 0 1 0 0 2 0 0 2 0 0 1 0 0 1 0 0 7 0 0 2 0 0 1 0 0 2 0 0 2 0 0 2 0 0 4 0 0 1 0 0 4 0 0 2 0 0 0 0 0 1 0 0 0 0 0 3 0 0 2 0 0 4 0 0 4 0 0 6 0 0 7 0 0 3 0 0 1 0 0 2 0 0 5 0 0 7 0 0 2 0 0 4 0 0 4 0 0 4 0 0 4 0 0 2 0 0 2 0 0 2 0 0 1 0 0 1 0 0 3 0 0 3 0 0 2 0 0 7 0 0 3 0 0 2 0 0 0 0 0 1 0 0 6 0 0 2 0 0 0 0 0 3 0 0 1 0 0 2 0 0 4 0 0 
0 0 0 4 0 0 3 0 0 1 0 0 3 0 0 1 0 0 0 0 0 2 0 0 4 0 0 0 0 0 0 0 0 3 0 0 4 0 0 1 0 0 3 0 0 1 0 0 5 0 0 3 0 0 0 0 0 6 0 0 3 0 0 3 0 0 1 0 0 2 0 0 3 0 0 2 0 0 4 0 0 1 0 0 3 0 0 12 0 0 4 0 0 2 0 0 5 0 0 4 0 0 2 0 0 2 0 0 5 0 0 1 0 0 4 0 0 1 0 0 1 0 0 2 0 0 2 0 0 1 0 0 2 0 0 1 0 0 3 0 0 1 0 0 4 0 0 3 0 0 1 0 0 2 0 0 4 0 0 1 0 0 2 0 0 2 0 0 1 0 0 0 0 0 2 0 0 0 0 0 
0 0 0 2 0 0 4 0 0 2 0 0 2 0 0 0 0 0 2 0 0 3 0 0 3 0 0 4 0 0 1 0 0 4 0 0 3 0 0 4 0 0 6 0 0 1 0 0 10 0 0 5 0 0 0 0 0 5 0 0 6 0 0 5 0 0 3 0 0 4 0 0 3 0 0 4 0 0 6 0 0 3 0 0 2 0 0 8 0 0 8 0 0 2 0 0 2 0 0 4 0 0 2 0 0 8 0 0 8 0 0 2 0 0 2 0 0 3 0 0 2 0 0 4 0 0 1 0 0 2 0 0 4 0 0 1 0 0 3 0 0 3 0 0 4 0 0 3 0 0 3 0 0 5 0 0 4 0 0 2 0 0 4 0 0 2 0 0 1 0 0 2 0 0 4 0 0 1 0 0 
0 0 0 1 0 0 0 0 0 1 0 0 2 0 0 3 0 0 2 0 0 3 0 0 2 0 0 1 0 0 2 0 0 2 0 0 3 0 0 1 0 0 2 0 0 6 0 0 7 0 0 2 0 0 6 0 0 5 0 0 6 0 0 3 0 0 6 0 0 2 0 0 5 0 0 3 0 0 5 0 0 3 0 0 3 0 0 7 0 0 8 0 0 4 0 0 3 0 0 7 0 0 5 0 0 4 0 0 6 0 0 4 0 0 2 0 0 4 0 0 4 0 0 3 0 0 5 0 0 5 0 0 4 0 0 5 0 0 4 0 0 3 0 0 3 0 0 4 0 0 7 0 0 4 0 0 3 0 0 3 0 0 5 0 0 3 0 0 2 0 0 0 0 0 0 0 0 1 0 0 
0 0 0 0 0 0 0 0 0 2 0 0 1 0 0 3 0 0 2 0 0 1 0 0 2 0 0 3 0 0 3 0 0 0 0 0 5 0 0 4 0 0 2 0 0 8 0 0 6 0 0 6 0 0 10 0 0 5 0 0 3 0 0 6 0 0 5 0 0 4 0 0 4 0 0 5 0 0 6 0 0 6 0 0 7 0 0 6 0 0 4 0 0 6 0 0 8 0 0 6 0 0 8 0 0 7 0 0 6 0 0 2 0 0 5 0 0 4 0 0 6 0 0 5 0 0 4 0 0 8 0 0 5 0 0 4 0 0 4 0 0 5 0 0 2 0 0 8 0 0 4 0 0 0 0 0 1 0 0 3 0 0 3 0 0 1 0 0 0 0 0 1 0 0 2 0 0 0 0 0 
0 0 0 4 0 0 2 0 0 3 0 0 0 0 0 3 0 0 4 0 0 1 0 0 5 0 0 4 0 0 4 0 0 4 0 0 4 0 0 5 0 0 4 0 0 8 0 0 6 0 0 3 0 0 8 0 0 14 0 0 5 0 0 12 0 0 7 0 0 10 0 0 3 0 0 6 0 0 10 0 0 8 0 0 12 0 0 4 0 0 8 0 0 6 0 0 8 0 0 6 0 0 5 0 0 8 0 0 5 0 0 5 0 0 4 0 0 7 0 0 6 0 0 6 0 0 5 0 0 4 0 0 6 0 0 6 0 0 6 0 0 6 0 0 1 0 0 7 0 0 3 0 0 6 0 0 6 0 0 1 0 0 1 0 0 0 0 0 2 0 0 1 0 0 3 0 0 1 0 0 
0 0 0 0 0 0 2 0 0 2 0 0 3 0 0 1 0 0 7 0 0 0 0 0 2 0 0 3 0 0 2 0 0 4 0 0 4 0 0 8 0 0 16 0 0 6 0 0 10 0 0 15 0 0 13 0 0 5 0 0 8 0 0 10 0 0 10 0 0 12 0 0 7 0 0 9 0 0 10 0 0 13 0 0 8 0 0 9 0 0 6 0 0 8 0 0 8 0 0 9 0 0 4 0 0 9 0 0 9 0 0 5 0 0 12 0 0 12 0 0 10 0 0 11 0 0 5 0 0 9 0 0 6 0 0 12 0 0 7 0 0 7 0 0 5 0 0 7 0 0 3 0 0 2 0 0 4 0 0 2 0 0 1 0 0 0 0 0 0 0 0 5 0 0 2 0 0 0 0 0 
1 0 0 5 0 0 4 0 0 0 0 0 4 0 0 2 0 0 5 0 0 3 0 0 1 0 0 6 0 0 16 0 0 55 0 0 33 0 0 48 0 0 44 0 0 50 0 0 46 0 0 39 0 0 42 0 0 42 0 0 49 0 0 49 0 0 28 0 0 44 0 0 42 0 0 43 0 0 46 0 0 43 0 0 47 0 0 43 0 0 51 0 0 33 0 0 45 0 0 53 0 0 40 0 0 50 0 0 52 0 0 46 0 0 38 0 0 43 0 0 42 0 0 52 0 0 44 0 0 44 0 0 44 0 0 40 0 0 37 0 0 33 0 0 43 0 0 37 0 0 16 0 0 5 0 0 1 0 0 1 0 0 1 0 0 1 0 0 3 0 0 3 0 0 1 0 0 5 0 0 
0 0 0 2 0 0 2 0 0 3 0 0 2 0 0 0 0 0 3 0 0 7 0 0 4 0 0 25 0 0 1269 0 0 2493 0 0 2625 0 0 2591 0 0 2565 0 0 2520 0 0 2573 0 0 2579 0 0 2618 0 0 2541 0 0 2582 0 0 2589 0 0 2619 0 0 2564 0 0 2549 0 0 2548 0 0 2585 0 0 2519 0 0 2570 0 0 2567 0 0 2620 0 0 2551 0 0 2579 0 0 2533 0 0 2539 0 0 2557 0 0 2521 0 0 2630 0 0 2602 0 0 2628 0 0 2543 0 0 2529 0 0 2603 0 0 2591 0 0 2435 0 0 2526 0 0 2570 0 0 2638 0 0 2575 0 0 2535 0 0 1287 0 0 17 0 0 0 0 0 6 0 0 2 0 0 3 0 0 0 0 0 1 0 0 1 0 0 3 0 0 
0 0 0 7 0 0 1 0 0 3 0 0 5 0 0 3 0 0 3 0 0 4 0 0 5 0 0 40 0 0 2530 0 0 5074 0 0 5119 0 0 5084 0 0 5106 0 0 5079 0 0 5152 0 0 5137 0 0 5089 0 0 5160 0 0 5046 0 0 5025 0 0 5160 0 0 5136 0 0 5094 0 0 5219 0 0 5159 0 0 5090 0 0 5120 0 0 5034 0 0 5190 0 0 5138 0 0 5000 0 0 5157 0 0 5031 0 0 5044 0 0 5100 0 0 5068 0 0 5184 0 0 5063 0 0 5051 0 0 5137 0 0 5148 0 0 5208 0 0 5137 0 0 5072 0 0 5210 0 0 5104 0 0 5037 0 0 5053 0 0 2555 0 0 35 0 0 8 0 0 1 0 0 5 0 0 1 0 0 0 0 0 3 0 0 1 0 0 2 0 0 
0 0 0 3 0 0 4 0 0 6 0 0 5 0 0 4 0 0 4 0 0 6 0 0 10 0 0 45 0 0 2578 0 0 5084 0 0 5079 0 0 5045 0 0 5148 0 0 5039 0 0 5104 0 0 5018 0 0 5296 0 0 5118 0 0 5221 0 0 5179 0 0 5184 0 0 5182 0 0 5110 0 0 5093 0 0 5141 0 0 5100 0 0 5194 0 0 5114 0 0 5343 0 0 5162 0 0 5169 0 0 5229 0 0 5170 0 0 5134 0 0 5081 0 0 5213 0 0 5096 0 0 5213 0 0 5240 0 0 5111 0 0 4940 0 0 5204 0 0 5144 0 0 5140 0 0 5128 0 0 5147 0 0 5184 0 0 5190 0 0 2540 0 0 28 0 0 6 0 0 10 0 0 5 0 0 0 0 0 3 0 0 4 0 0 4 0 0 1 0 0 
0 0 0 0 0 0 3 0 0 2 0 0 4 0 0 3 0 0 2 0 0 6 0 0 10 0 0 45 0 0 2582 0 0 5067 0 0 5053 0 0 5057 0 0 5212 0 0 5197 0 0 5191 0 0 5145 0 0 5089 0 0 5144 0 0 5033 0 0 5068 0 0 5024 0 0 5175 0 0 5116 0 0 5110 0 0 5139 0 0 5147 0 0 5079 0 0 5052 0 0 5197 0 0 5192 0 0 5237 0 0 5144 0 0 5191 0 0 5134 0 0 5106 0 0 5144 0 0 5129 0 0 5197 0 0 5133 0 0 5117 0 0 5094 0 0 5197 0 0 5046 0 0 5079 0 0 5086 0 0 5133 0 0 5175 0 0 5118 0 0 2513 0 0 45 0 0 7 0 0 7 0 0 2 0 0 7 0 0 7 0 0 4 0 0 3 0 0 1 0 0 
1 0 0 2 0 0 1 0 0 2 0 0 4 0 0 2 0 0 6 0 0 1 0 0 8 0 0 52 0 0 2602 0 0 5040 0 0 5101 0 0 5175 0 0 5145 0 0 5224 0 0 5122 0 0 5035 0 0 5136 0 0 5125 0 0 5218 0 0 5146 0 0 5220 0 0 5163 0 0 5100 0 0 5143 0 0 5105 0 0 5171 0 0 5084 0 0 5202 0 0 5115 0 0 5046 0 0 5054 0 0 5164 0 0 5127 0 0 5181 0 0 5295 0 0 5139 0 0 5072 0 0 5302 0 0 5094 0 0 5140 0 0 5109 0 0 5216 0 0 5170 0 0 5079 0 0 5081 0 0 5181 0 0 5104 0 0 5061 0 0 2536 0 0 53 0 0 4 0 0 2 0 0 4 0 0 8 0 0 0 0 0 1 0 0 0 0 0 1 0 0 
2 0 0 2 0 0 2 0 0 2 0 0 5 0 0 2 0 0 3 0 0 6 0 0 6 0 0 47 0 0 2608 0 0 5093 0 0 5127 0 0 5094 0 0 5120 0 0 5144 0 0 5075 0 0 5212 0 0 5146 0 0 5164 0 0 5031 0 0 5109 0 0 5005 0 0 5115 0 0 5244 0 0 5055 0 0 5064 0 0 5140 0 0 5089 0 0 5067 0 0 5030 0 0 5091 0 0 5126 0 0 5061 0 0 5176 0 0 5145 0 0 5237 0 0 5227 0 0 5122 0 0 5096 0 0 5179 0 0 5237 0 0 5222 0 0 5230 0 0 5147 0 0 5180 0 0 5161 0 0 5178 0 0 5069 0 0 5094 0 0 2621 0 0 41 0 0 6 0 0 6 0 0 7 0 0 2 0 0 0 0 0 0 0 0 1 0 0 0 0 0 
1 0 0 1 0 0 0 0 0 1 0 0 5 0 0 7 0 0 2 0 0 6 0 0 8 0 0 44 0 0 2549 0 0 5119 0 0 5119 0 0 5123 0 0 5136 0 0 5115 0 0 5187 0 0 5092 0 0 5275 0 0 5072 0 0 5129 0 0 5146 0 0 5193 0 0 5044 0 0 5215 0 0 5163 0 0 5077 0 0 5303 0 0 5063 0 0 5084 0 0 4990 0 0 5203 0 0 5120 0 0 5176 0 0 5207 0 0 5101 0 0 5147 0 0 5067 0 0 5176 0 0 5119 0 0 4999 0 0 5327 0 0 5171 0 0 5053 0 0 5246 0 0 5121 0 0 5115 0 0 5097 0 0 5103 0 0 5105 0 0 2556 0 0 39 0 0 9 0 0 4 0 0 6 0 0 5 0 0 0 0 0 3 0 0 1 0 0 3 0 0 
0 0 0 2 0 0 0 0 0 0 0 0 2 0 0 2 0 0 3 0 0 5 0 0 4 0 0 42 0 0 2536 0 0 5100 0 0 5095 0 0 5028 0 0 5099 0 0 5158 0 0 5047 0 0 5173 0 0 5007 0 0 5051 0 0 5094 0 0 5150 0 0 5089 0 0 5088 0 0 5160 0 0 5130 0 0 5148 0 0 5103 0 0 5222 0 0 5162 0 0 5114 0 0 5174 0 0 5206 0 0 5081 0 0 5172 0 0 5073 0 0 5151 0 0 5135 0 0 5162 0 0 5094 0 0 5105 0 0 5070 0 0 4982 0 0 5038 0 0 5112 0 0 4990 0 0 5160 0 0 5032 0 0 5114 0 0 5074 0 0 2579 0 0 51 0 0 6 0 0 3 0 0 3 0 0 2 0 0 3 0 0 2 0 0 1 0 0 1 0 0 
1 0 0 4 0 0 1 0 0 1 0 0 0 0 0 1 0 0 0 0 0 7 0 0 11 0 0 41 0 0 2631 0 0 4987 0 0 5200 0 0 5137 0 0 5051 0 0 5094 0 0 5120 0 0 5038 0 0 5065 0 0 5204 0 0 5227 0 0 5255 0 0 5126 0 0 5132 0 0 5177 0 0 5209 0 0 5146 0 0 5119 0 0 5159 0 0 5111 0 0 5117 0 0 5173 0 0 5115 0 0 5166 0 0 5223 0 0 5204 0 0 5040 0 0 5184 0 0 5092 0 0 5151 0 0 5135 0 0 5087 0 0 5092 0 0 5054 0 0 5089 0 0 5028 0 0 5099 0 0 5116 0 0 5220 0 0 5127 0 0 2610 0 0 55 0 0 12 0 0 4 0 0 2 0 0 2 0 0 3 0 0 4 0 0 4 0 0 2 0 0 
0 0 0 1 0 0 2 0 0 1 0 0 1 0 0 2 0 0 1 0 0 0 0 0 6 0 0 42 0 0 2520 0 0 5057 0 0 5116 0 0 5152 0 0 5225 0 0 5104 0 0 5099 0 0 5056 0 0 5152 0 0 5103 0 0 5136 0 0 5072 0 0 5034 0 0 5066 0 0 5117 0 0 5148 0 0 5000 0 0 4986 0 0 5169 0 0 5064 0 0 5099 0 0 5191 0 0 5220 0 0 5179 0 0 5071 0 0 5139 0 0 5033 0 0 5161 0 0 5227 0 0 5073 0 0 5182 0 0 5115 0 0 5113 0 0 5107 0 0 5173 0 0 5069 0 0 5087 0 0 5172 0 0 5009 0 0 5071 0 0 2532 0 0 42 0 0 10 0 0 8 0 0 3 0 0 2 0 0 3 0 0 0 0 0 0 0 0 0 0 0 
1 0 0 1 0 0 4 0 0 2 0 0 1 0 0 2 0 0 5 0 0 4 0 0 2 0 0 49 0 0 2597 0 0 5108 0 0 5188 0 0 5172 0 0 5124 0 0 5121 0 0 4994 0 0 5134 0 0 5188 0 0 5161 0 0 5215 0 0 5158 0 0 5229 0 0 5235 0 0 5188 0 0 5081 0 0 5139 0 0 5137 0 0 5240 0 0 5243 0 0 5219 0 0 5078 0 0 5217 0 0 5121 0 0 5198 0 0 5039 0 0 5134 0 0 5079 0 0 5203 0 0 5209 0 0 5095 0 0 5231 0 0 5154 0 0 5121 0 0 5104 0 0 5069 0 0 5044 0 0 5213 0 0 5195 0 0 5094 0 0 2495 0 0 43 0 0 13 0 0 4 0 0 6 0 0 4 0 0 2 0 0 0 0 0 0 0 0 0 0 0 
0 0 0 3 0 0 5 0 0 5 0 0 2 0 0 6 0 0 2 0 0 7 0 0 3 0 0 36 0 0 2632 0 0 5262 0 0 5041 0 0 5141 0 0 5172 0 0 5216 0 0 5267 0 0 5033 0 0 5183 0 0 5046 0 0 5058 0 0 5049 0 0 5238 0 0 5057 0 0 5147 0 0 5108 0 0 5260 0 0 5182 0 0 5221 0 0 5206 0 0 5175 0 0 5081 0 0 5148 0 0 5130 0 0 5153 0 0 5141 0 0 5137 0 0 5156 0 0 5126 0 0 5114 0 0 5105 0 0 5139 0 0 5163 0 0 5128 0 0 5122 0 0 5047 0 0 5076 0 0 5143 0 0 5092 0 0 5040 0 0 2614 0 0 51 0 0 4 0 0 3 0 0 6 0 0 4 0 0 2 0 0 3 0 0 0 0 0 0 0 0 
0 0 0 1 0 0 0 0 0 4 0 0 5 0 0 3 0 0 2 0 0 3 0 0 5 0 0 41 0 0 2587 0 0 5062 0 0 5187 0 0 5100 0 0 5089 0 0 4950 0 0 5155 0 0 5130 0 0 5171 0 0 5148 0 0 4974 0 0 5125 0 0 5146 0 0 5141 0 0 5164 0 0 5044 0 0 5223 0 0 5108 0 0 5250 0 0 5098 0 0 5231 0 0 5148 0 0 5209 0 0 5193 0 0 5086 0 0 5001 0 0 5094 0 0 5147 0 0 5075 0 0 5147 0 0 5243 0 0 5095 0 0 5101 0 0 4968 0 0 5137 0 0 5118 0 0 5090 0 0 5108 0 0 5077 0 0 5092 0 0 2647 0 0 40 0 0 11 0 0 5 0 0 7 0 0 0 0 0 2 0 0 4 0 0 2 0 0 2 0 0 
2 0 0 3 0 0 4 0 0 6 0 0 7 0 0 3 0 0 5 0 0 1 0 0 4 0 0 30 0 0 2570 0 0 5102 0 0 5097 0 0 5099 0 0 5144 0 0 5174 0 0 5205 0 0 5001 0 0 5139 0 0 5220 0 0 5226 0 0 5260 0 0 5148 0 0 5151 0 0 5134 0 0 5142 0 0 5133 0 0 5104 0 0 5152 0 0 5261 0 0 5180 0 0 5199 0 0 5178 0 0 5104 0 0 5071 0 0 5129 0 0 5119 0 0 5091 0 0 4947 0 0 5204 0 0 5093 0 0 5175 0 0 5177 0 0 5164 0 0 5056 0 0 5074 0 0 5091 0 0 5145 0 0 5144 0 0 5138 0 0 2567 0 0 36 0 0 5 0 0 9 0 0 5 0 0 1 0 0 2 0 0 5 0 0 2 0 0 5 0 0 
0 0 0 1 0 0 3 0 0 1 0 0 6 0 0 3 0 0 2 0 0 5 0 0 3 0 0 49 0 0 2521 0 0 5099 0 0 5080 0 0 5133 0 0 5070 0 0 5265 0 0 5167 0 0 5123 0 0 5024 0 0 5118 0 0 5024 0 0 5181 0 0 5163 0 0 5145 0 0 5079 0 0 5062 0 0 5044 0 0 5157 0 0 5178 0 0 5247 0 0 5172 0 0 5165 0 0 5192 0 0 5161 0 0 5194 0 0 5063 0 0 5116 0 0 5059 0 0 5053 0 0 5247 0 0 5125 0 0 5192 0 0 5086 0 0 5129 0 0 5014 0 0 5112 0 0 5204 0 0 5200 0 0 5246 0 0 5102 0 0 2622 0 0 53 0 0 10 0 0 5 0 0 7 0 0 3 0 0 2 0 0 1 0 0 2 0 0 2 0 0 
1 0 0 4 0 0 1 0 0 0 0 0 1 0 0 6 0 0 5 0 0 5 0 0 5 0 0 43 0 0 2616 0 0 5151 0 0 5236 0 0 5141 0 0 5231 0 0 5183 0 0 5124 0 0 5157 0 0 5070 0 0 5147 0 0 5102 0 0 5073 0 0 5178 0 0 5178 0 0 5124 0 0 5184 0 0 5108 0 0 5189 0 0 5170 0 0 5214 0 0 5102 0 0 5031 0 0 5090 0 0 5065 0 0 5165 0 0 5120 0 0 5178 0 0 5105 0 0 5148 0 0 5185 0 0 5070 0 0 5042 0 0 5061 0 0 5092 0 0 5151 0 0 5200 0 0 5296 0 0 5122 0 0 5116 0 0 5180 0 0 2575 0 0 45 0 0 7 0 0 4 0 0 5 0 0 4 0 0 7 0 0 8 0 0 4 0 0 3 0 0 
0 0 0 0 0 0 1 0 0 4 0 0 3 0 0 0 0 0 3 0 0 8 0 0 4 0 0 33 0 0 2531 0 0 5144 0 0 5087 0 0 5256 0 0 5125 0 0 5110 0 0 5089 0 0 5164 0 0 5054 0 0 5151 0 0 5063 0 0 5187 0 0 5134 0 0 5067 0 0 5145 0 0 5169 0 0 5084 0 0 5155 0 0 5149 0 0 5175 0 0 5167 0 0 5154 0 0 5173 0 0 5193 0 0 5027 0 0 5075 0 0 5075 0 0 5060 0 0 5176 0 0 5122 0 0 5195 0 0 5221 0 0 5023 0 0 5227 0 0 5127 0 0 5064 0 0 5055 0 0 5094 0 0 5133 0 0 5085 0 0 2594 0 0 52 0 0 7 0 0 3 0 0 3 0 0 6 0 0 2 0 0 2 0 0 5 0 0 0 0 0 
1 0 0 3 0 0 2 0 0 1 0 0 2 0 0 3 0 0 2 0 0 6 0 0 9 0 0 42 0 0 2512 0 0 5195 0 0 4981 0 0 5120 0 0 5050 0 0 5212 0 0 5131 0 0 5180 0 0 5113 0 0 5159 0 0 5203 0 0 5201 0 0 5121 0 0 5121 0 0 4930 0 0 5227 0 0 5136 0 0 5137 0 0 5128 0 0 5044 0 0 5075 0 0 5153 0 0 4979 0 0 5201 0 0 5210 0 0 5165 0 0 5142 0 0 5112 0 0 5170 0 0 5196 0 0 5156 0 0 5146 0 0 5126 0 0 5207 0 0 5109 0 0 5155 0 0 5206 0 0 5182 0 0 5028 0 0 5153 0 0 2520 0 0 50 0 0 12 0 0 7 0 0 8 0 0 3 0 0 2 0 0 4 0 0 2 0 0 1 0 0 
0 0 0 2 0 0 1 0 0 3 0 0 2 0 0 6 0 0 6 0 0 7 0 0 5 0 0 37 0 0 2539 0 0 5076 0 0 5218 0 0 5001 0 0 5178 0 0 5167 0 0 5160 0 0 5186 0 0 5107 0 0 5135 0 0 5168 0 0 5134 0 0 5289 0 0 5121 0 0 5097 0 0 5024 0 0 5103 0 0 5038 0 0 5236 0 0 5180 0 0 5064 0 0 5161 0 0 5144 0 0 5003 0 0 5098 0 0 5151 0 0 5092 0 0 5052 0 0 5113 0 0 5097 0 0 5321 0 0 5265 0 0 5055 0 0 5289 0 0 5117 0 0 5115 0 0 5175 0 0 5170 0 0 5094 0 0 5056 0 0 2620 0 0 47 0 0 6 0 0 6 0 0 4 0 0 1 0 0 3 0 0 1 0 0 2 0 0 1 0 0 
0 0 0 2 0 0 2 0 0 5 0 0 4 0 0 5 0 0 5 0 0 6 0 0 8 0 0 37 0 0 2586 0 0 5171 0 0 5084 0 0 5121 0 0 5139 0 0 5116 0 0 5212 0 0 4977 0 0 5076 0 0 5187 0 0 5147 0 0 5080 0 0 5119 0 0 5169 0 0 5052 0 0 5124 0 0 5233 0 0 5132 0 0 5113 0 0 5124 0 0 5210 0 0 5174 0 0 5250 0 0 5178 0 0 5071 0 0 5363 0 0 5166 0 0 5199 0 0 5247 0 0 5091 0 0 5198 0 0 5064 0 0 5181 0 0 5165 0 0 4992 0 0 5170 0 0 5002 0 0 5068 0 0 5040 0 0 5024 0 0 2582 0 0 42 0 0 10 0 0 10 0 0 5 0 0 5 0 0 6 0 0 1 0 0 5 0 0 3 0 0 
1 0 0 5 0 0 2 0 0 6 0 0 8 0 0 3 0 0 5 0 0 7 0 0 7 0 0 29 0 0 2592 0 0 5093 0 0 5131 0 0 5051 0 0 5064 0 0 5084 0 0 5047 0 0 5112 0 0 5208 0 0 5178 0 0 5111 0 0 5019 0 0 5116 0 0 5100 0 0 5120 0 0 5294 0 0 5159 0 0 5129 0 0 5025 0 0 5086 0 0 5102 0 0 5124 0 0 5127 0 0 5172 0 0 5148 0 0 5150 0 0 5207 0 0 5058 0 0 5103 0 0 5121 0 0 5048 0 0 5066 0 0 5161 0 0 5151 0 0 5184 0 0 5004 0 0 5085 0 0 5096 0 0 5159 0 0 5052 0 0 2577 0 0 34 0 0 13 0 0 7 0 0 7 0 0 10 0 0 3 0 0 4 0 0 4 0 0 2 0 0 
0 0 0 1 0 0 7 0 0 8 0 0 5 0 0 3 0 0 6 0 0 8 0 0 7 0 0 49 0 0 2556 0 0 5074 0 0 5149 0 0 5243 0 0 5233 0 0 5168 0 0 5042 0 0 5124 0 0 5082 0 0 5038 0 0 5161 0 0 5187 0 0 5221 0 0 5162 0 0 5184 0 0 5144 0 0 5185 0 0 5190 0 0 5174 0 0 5140 0 0 5114 0 0 5197 0 0 5166 0 0 5108 0 0 5254 0 0 5128 0 0 5198 0 0 5089 0 0 5267 0 0 5017 0 0 5092 0 0 5092 0 0 5092 0 0 5271 0 0 5192 0 0 5148 0 0 5207 0 0 5114 0 0 5075 0 0 5229 0 0 2609 0 0 45 0 0 6 0 0 8 0 0 4 0 0 5 0 0 6 0 0 4 0 0 7 0 0 4 0 0 
2 0 0 6 0 0 5 0 0 2 0 0 4 0 0 3 0 0 4 0 0 8 0 0 7 0 0 58 0 0 2543 0 0 5097 0 0 5174 0 0 5074 0 0 5122 0 0 5097 0 0 5105 0 0 5106 0 0 5076 0 0 5136 0 0 5097 0 0 5164 0 0 5131 0 0 5035 0 0 5193 0 0 5161 0 0 5153 0 0 5140 0 0 5103 0 0 5079 0 0 5144 0 0 5118 0 0 5144 0 0 5110 0 0 5167 0 0 5200 0 0 5193 0 0 5131 0 0 5103 0 0 5343 0 0 5068 0 0 4931 0 0 4992 0 0 5132 0 0 5120 0 0 5102 0 0 5208 0 0 5231 0 0 5079 0 0 5100 0 0 2576 0 0 44 0 0 6 0 0 9 0 0 11 0 0 4 0 0 4 0 0 0 0 0 3 0 0 0 0 0 
0 0 0 3 0 0 7 0 0 0 0 0 2 0 0 4 0 0 4 0 0 8 0 0 8 0 0 49 0 0 2481 0 0 5105 0 0 4971 0 0 5021 0 0 5158 0 0 5114 0 0 4947 0 0 5138 0 0 5267 0 0 5096 0 0 5114 0 0 5061 0 0 5138 0 0 5213 0 0 5136 0 0 5140 0 0 5234 0 0 5139 0 0 5082 0 0 5281 0 0 5029 0 0 5069 0 0 5092 0 0 5017 0 0 5191 0 0 5093 0 0 5343 0 0 5086 0 0 5027 0 0 5021 0 0 5145 0 0 5111 0 0 5200 0 0 5180 0 0 5110 0 0 5162 0 0 5232 0 0 5131 0 0 5134 0 0 5171 0 0 2592 0 0 37 0 0 9 0 0 9 0 0 8 0 0 4 0 0 3 0 0 2 0 0 1 0 0 2 0 0 
1 0 0 1 0 0 5 0 0 6 0 0 2 0 0 5 0 0 3 0 0 6 0 0 9 0 0 41 0 0 2532 0 0 5033 0 0 5221 0 0 5233 0 0 5168 0 0 5177 0 0 5202 0 0 5079 0 0 5136 0 0 5071 0 0 5162 0 0 5052 0 0 5151 0 0 5062 0 0 5228 0 0 5169 0 0 5149 0 0 5137 0 0 5208 0 0 5043 0 0 5173 0 0 5164 0 0 5003 0 0 5146 0 0 5142 0 0 5199 0 0 5164 0 0 5131 0 0 5084 0 0 5104 0 0 5286 0 0 5184 0 0 5128 0 0 5063 0 0 5198 0 0 5139 0 0 5252 0 0 5139 0 0 5084 0 0 5132 0 0 2588 0 0 51 0 0 12 0 0 7 0 0 2 0 0 3 0 0 5 0 0 2 0 0 2 0 0 1 0 0 
0 0 0 2 0 0 1 0 0 5 0 0 8 0 0 6 0 0 5 0 0 9 0 0 14 0 0 51 0 0 2519 0 0 5149 0 0 5146 0 0 5091 0 0 5109 0 0 5021 0 0 5025 0 0 5155 0 0 5113 0 0 5155 0 0 5131 0 0 5085 0 0 5141 0 0 5162 0 0 5097 0 0 5138 0 0 5068 0 0 5142 0 0 5263 0 0 5178 0 0 5130 0 0 5117 0 0 5164 0 0 5138 0 0 5213 0 0 5155 0 0 5224 0 0 5110 0 0 5092 0 0 5165 0 0 5127 0 0 5106 0 0 5051 0 0 5155 0 0 5094 0 0 5035 0 0 5318 0 0 5159 0 0 5061 0 0 5110 0 0 2607 0 0 39 0 0 6 0 0 3 0 0 2 0 0 2 0 0 5 0 0 4 0 0 0 0 0 0 0 0 
0 0 0 2 0 0 5 0 0 6 0 0 5 0 0 3 0 0 5 0 0 9 0 0 8 0 0 45 0 0 2547 0 0 5135 0 0 5174 0 0 5180 0 0 5071 0 0 5086 0 0 5125 0 0 5159 0 0 5082 0 0 5109 0 0 5125 0 0 5087 0 0 5080 0 0 5108 0 0 5274 0 0 5120 0 0 5192 0 0 5173 0 0 5270 0 0 5165 0 0 5070 0 0 5243 0 0 5154 0 0 5221 0 0 5192 0 0 5224 0 0 5162 0 0 5173 0 0 5167 0 0 5099 0 0 5128 0 0 5115 0 0 5051 0 0 5151 0 0 5169 0 0 5174 0 0 5215 0 0 5202 0 0 5042 0 0 5030 0 0 2673 0 0 36 0 0 13 0 0 6 0 0 4 0 0 6 0 0 4 0 0 7 0 0 1 0 0 1 0 0 
1 0 0 2 0 0 3 0 0 3 0 0 2 0 0 3 0 0 11 0 0 2 0 0 12 0 0 47 0 0 2538 0 0 5153 0 0 5025 0 0 5120 0 0 5084 0 0 5173 0 0 5177 0 0 5130 0 0 5261 0 0 5144 0 0 5103 0 0 5107 0 0 5004 0 0 5109 0 0 5012 0 0 5200 0 0 5144 0 0 5008 0 0 4992 0 0 5246 0 0 5062 0 0 5106 0 0 5172 0 0 5133 0 0 5113 0 0 5031 0 0 5199 0 0 5271 0 0 5138 0 0 5219 0 0 5081 0 0 5110 0 0 5143 0 0 5124 0 0 5130 0 0 5141 0 0 5161 0 0 5158 0 0 5143 0 0 5210 0 0 2519 0 0 37 0 0 13 0 0 6 0 0 2 0 0 3 0 0 3 0 0 5 0 0 2 0 0 2 0 0 
0 0 0 3 0 0 4 0 0 5 0 0 3 0 0 3 0 0 5 0 0 6 0 0 8 0 0 45 0 0 2550 0 0 5116 0 0 5052 0 0 5072 0 0 5026 0 0 5015 0 0 5180 0 0 5096 0 0 5045 0 0 5058 0 0 5094 0 0 5046 0 0 5173 0 0 5235 0 0 5277 0 0 5106 0 0 5156 0 0 5164 0 0 5116 0 0 5204 0 0 5167 0 0 5129 0 0 5193 0 0 5171 0 0 5309 0 0 5150 0 0 5091 0 0 5093 0 0 5081 0 0 5090 0 0 5151 0 0 5082 0 0 5138 0 0 5073 0 0 5235 0 0 5131 0 0 5034 0 0 5068 0 0 5121 0 0 5153 0 0 2550 0 0 47 0 0 10 0 0 8 0 0 2 0 0 2 0 0 4 0 0 0 0 0 3 0 0 1 0 0 
1 0 0 3 0 0 0 0 0 4 0 0 5 0 0 3 0 0 9 0 0 13 0 0 14 0 0 46 0 0 2606 0 0 5089 0 0 5149 0 0 5147 0 0 5153 0 0 5038 0 0 5019 0 0 5137 0 0 5240 0 0 5075 0 0 5111 0 0 5044 0 0 5019 0 0 5319 0 0 5180 0 0 5193 0 0 5088 0 0 5202 0 0 5089 0 0 5136 0 0 5252 0 0 5165 0 0 5109 0 0 5113 0 0 5125 0 0 5131 0 0 5168 0 0 5079 0 0 5071 0 0 5059 0 0 5063 0 0 5167 0 0 5115 0 0 5180 0 0 5224 0 0 5292 0 0 4982 0 0 5165 0 0 5205 0 0 4997 0 0 2610 0 0 43 0 0 6 0 0 9 0 0 9 0 0 5 0 0 4 0 0 2 0 0 5 0 0 4 0 0 
0 0 0 0 0 0 1 0 0 2 0 0 1 0 0 6 0 0 8 0 0 6 0 0 11 0 0 38 0 0 2650 0 0 5199 0 0 5262 0 0 5160 0 0 5107 0 0 5121 0 0 5099 0 0 5123 0 0 5121 0 0 5031 0 0 5123 0 0 5174 0 0 5129 0 0 5138 0 0 5094 0 0 5211 0 0 5191 0 0 5082 0 0 5205 0 0 5062 0 0 5184 0 0 5054 0 0 5152 0 0 5152 0 0 5058 0 0 5106 0 0 5145 0 0 5122 0 0 5030 0 0 5083 0 0 5131 0 0 5134 0 0 5141 0 0 5155 0 0 5139 0 0 5069 0 0 5059 0 0 5151 0 0 5284 0 0 5110 0 0 2627 0 0 43 0 0 9 0 0 3 0 0 8 0 0 5 0 0 2 0 0 2 0 0 5 0 0 2 0 0 
2 0 0 3 0 0 2 0 0 2 0 0 2 0 0 5 0 0 4 0 0 10 0 0 4 0 0 51 0 0 2648 0 0 5094 0 0 5280 0 0 5123 0 0 5190 0 0 5098 0 0 5101 0 0 5136 0 0 5079 0 0 5185 0 0 5150 0 0 5122 0 0 5159 0 0 5053 0 0 5256 0 0 5192 0 0 5216 0 0 5189 0 0 5178 0 0 5192 0 0 5189 0 0 5151 0 0 5190 0 0 5178 0 0 5215 0 0 5195 0 0 5071 0 0 5129 0 0 5009 0 0 5192 0 0 5167 0 0 5130 0 0 5130 0 0 5162 0 0 5178 0 0 5093 0 0 5020 0 0 5235 0 0 5229 0 0 5057 0 0 2570 0 0 37 0 0 8 0 0 7 0 0 5 0 0 10 0 0 6 0 0 5 0 0 3 0 0 2 0 0 
1 0 0 1 0 0 0 0 0 1 0 0 4 0 0 2 0 0 4 0 0 4 0 0 5 0 0 48 0 0 2526 0 0 4975 0 0 5196 0 0 5160 0 0 5081 0 0 5114 0 0 4940 0 0 5113 0 0 5212 0 0 5180 0 0 5136 0 0 5048 0 0 4997 0 0 5214 0 0 5047 0 0 5062 0 0 5224 0 0 5069 0 0 5305 0 0 5163 0 0 5164 0 0 4994 0 0 5136 0 0 5138 0 0 5123 0 0 5252 0 0 5103 0 0 5062 0 0 5083 0 0 5111 0 0 5189 0 0 5137 0 0 5023 0 0 5168 0 0 4997 0 0 5233 0 0 5148 0 0 5169 0 0 5068 0 0 5150 0 0 2589 0 0 41 0 0 6 0 0 4 0 0 5 0 0 8 0 0 6 0 0 5 0 0 3 0 0 2 0 0 
0 0 0 2 0 0 0 0 0 3 0 0 3 0 0 4 0 0 5 0 0 7 0 0 11 0 0 40 0 0 2582 0 0 5136 0 0 5245 0 0 4995 0 0 5114 0 0 5081 0 0 5244 0 0 5195 0 0 5209 0 0 5156 0 0 5289 0 0 5087 0 0 5091 0 0 5161 0 0 5106 0 0 5105 0 0 5207 0 0 5139 0 0 5115 0 0 5202 0 0 5083 0 0 5095 0 0 5149 0 0 5120 0 0 5138 0 0 5237 0 0 5263 0 0 5123 0 0 5218 0 0 5101 0 0 5073 0 0 5123 0 0 5196 0 0 5293 0 0 5181 0 0 5064 0 0 5183 0 0 5154 0 0 5217 0 0 5075 0 0 2563 0 0 38 0 0 10 0 0 4 0 0 9 0 0 7 0 0 7 0 0 6 0 0 6 0 0 2 0 0 
2 0 0 0 0 0 1 0 0 1 0 0 5 0 0 4 0 0 10 0 0 10 0 0 7 0 0 41 0 0 2558 0 0 5253 0 0 5140 0 0 5232 0 0 5210 0 0 5248 0 0 5139 0 0 5100 0 0 5132 0 0 5172 0 0 5143 0 0 5186 0 0 5154 0 0 5102 0 0 5151 0 0 5072 0 0 5200 0 0 5195 0 0 5153 0 0 5223 0 0 5091 0 0 5089 0 0 5022 0 0 5064 0 0 5153 0 0 5092 0 0 5072 0 0 5179 0 0 5060 0 0 5180 0 0 5271 0 0 5163 0 0 5092 0 0 5034 0 0 5113 0 0 5086 0 0 5143 0 0 5186 0 0 5050 0 0 5207 0 0 2501 0 0 29 0 0 9 0 0 5 0 0 1 0 0 4 0 0 4 0 0 2 0 0 1 0 0 1 0 0 
0 0 0 0 0 0 2 0 0 4 0 0 2 0 0 5 0 0 2 0 0 12 0 0 9 0 0 31 0 0 2481 0 0 5051 0 0 5136 0 0 5106 0 0 5224 0 0 5197 0 0 5097 0 0 5145 0 0 5222 0 0 5119 0 0 5144 0 0 4999 0 0 5126 0 0 5075 0 0 5130 0 0 5158 0 0 5166 0 0 5198 0 0 5129 0 0 5184 0 0 5091 0 0 5060 0 0 5184 0 0 5168 0 0 5137 0 0 5192 0 0 5085 0 0 5032 0 0 5129 0 0 5143 0 0 5221 0 0 5269 0 0 5104 0 0 5092 0 0 5090 0 0 5259 0 0 5097 0 0 5054 0 0 5153 0 0 5105 0 0 2510 0 0 51 0 0 4 0 0 8 0 0 6 0 0 1 0 0 4 0 0 3 0 0 2 0 0 0 0 0 
0 0 0 1 0 0 1 0 0 4 0 0 3 0 0 2 0 0 7 0 0 8 0 0 6 0 0 45 0 0 2569 0 0 5043 0 0 5114 0 0 5186 0 0 5195 0 0 5087 0 0 5070 0 0 5109 0 0 5126 0 0 5129 0 0 5175 0 0 5173 0 0 4994 0 0 5133 0 0 4986 0 0 5139 0 0 5076 0 0 5159 0 0 5076 0 0 5108 0 0 5088 0 0 5126 0 0 5077 0 0 5054 0 0 5088 0 0 5069 0 0 5057 0 0 5083 0 0 5108 0 0 5040 0 0 5107 0 0 5150 0 0 5220 0 0 5083 0 0 5081 0 0 5192 0 0 5088 0 0 5173 0 0 5132 0 0 5111 0 0 2648 0 0 44 0 0 11 0 0 9 0 0 8 0 0 4 0 0 2 0 0 2 0 0 0 0 0 0 0 0 
0 0 0 0 0 0 2 0 0 4 0 0 7 0 0 6 0 0 1 0 0 8 0 0 4 0 0 42 0 0 2603 0 0 5023 0 0 5097 0 0 5114 0 0 5185 0 0 5145 0 0 5061 0 0 5222 0 0 5094 0 0 5249 0 0 5135 0 0 5310 0 0 5116 0 0 5175 0 0 5156 0 0 5267 0 0 5172 0 0 5179 0 0 5210 0 0 5149 0 0 5002 0 0 5076 0 0 5082 0 0 5048 0 0 5141 0 0 5138 0 0 5138 0 0 5143 0 0 5230 0 0 5145 0 0 4960 0 0 5151 0 0 5219 0 0 5126 0 0 5261 0 0 5109 0 0 5137 0 0 5096 0 0 5303 0 0 5008 0 0 2531 0 0 42 0 0 9 0 0 3 0 0 5 0 0 2 0 0 3 0 0 1 0 0 0 0 0 0 0 0 
0 0 0 2 0 0 6 0 0 5 0 0 2 0 0 2 0 0 3 0 0 3 0 0 7 0 0 42 0 0 2603 0 0 5090 0 0 5154 0 0 5103 0 0 5223 0 0 5119 0 0 5089 0 0 5163 0 0 5124 0 0 5063 0 0 5098 0 0 5156 0 0 5079 0 0 5091 0 0 5091 0 0 5214 0 0 5229 0 0 5203 0 0 5288 0 0 5174 0 0 5093 0 0 5102 0 0 5094 0 0 5156 0 0 5231 0 0 5096 0 0 5226 0 0 5042 0 0 5085 0 0 5021 0 0 5131 0 0 5148 0 0 5068 0 0 5144 0 0 5232 0 0 5083 0 0 5127 0 0 5100 0 0 5102 0 0 5115 0 0 2562 0 0 39 0 0 8 0 0 3 0 0 6 0 0 4 0 0 2 0 0 4 0 0 6 0 0 9 0 0 
0 0 0 2 0 0 1 0 0 2 0 0 1 0 0 2 0 0 1 0 0 5 0 0 6 0 0 47 0 0 2558 0 0 5124 0 0 5051 0 0 5150 0 0 5158 0 0 5012 0 0 5137 0 0 5144 0 0 4993 0 0 5122 0 0 5155 0 0 4976 0 0 5097 0 0 5029 0 0 5046 0 0 5125 0 0 5096 0 0 4981 0 0 5014 0 0 5209 0 0 5218 0 0 5092 0 0 4992 0 0 5145 0 0 5138 0 0 5108 0 0 5086 0 0 5129 0 0 5002 0 0 5135 0 0 5192 0 0 5125 0 0 5068 0 0 5198 0 0 5050 0 0 5115 0 0 5068 0 0 5019 0 0 5038 0 0 4945 0 0 2535 0 0 44 0 0 8 0 0 6 0 0 4 0 0 6 0 0 2 0 0 2 0 0 2 0 0 4 0 0 
1 0 0 2 0 0 4 0 0 2 0 0 1 0 0 4 0 0 1 0 0 2 0 0 1 0 0 15 0 0 1346 0 0 2498 0 0 2567 0 0 2562 0 0 2573 0 0 2496 0 0 2634 0 0 2535 0 0 2578 0 0 2543 0 0 2454 0 0 2598 0 0 2616 0 0 2486 0 0 2569 0 0 2583 0 0 2514 0 0 2555 0 0 2568 0 0 2544 0 0 2597 0 0 2582 0 0 2491 0 0 2560 0 0 2522 0 0 2600 0 0 2526 0 0 2573 0 0 2591 0 0 2521 0 0 2688 0 0 2538 0 0 2519 0 0 2620 0 0 2629 0 0 2567 0 0 2516 0 0 2610 0 0 2502 0 0 2529 0 0 1314 0 0 34 0 0 12 0 0 5 0 0 6 0 0 2 0 0 2 0 0 2 0 0 2 0 0 1 0 0 
0 0 0 3 0 0 1 0 0 7 0 0 4 0 0 0 0 0 0 0 0 1 0 0 2 0 0 6 0 0 19 0 0 44 0 0 31 0 0 43 0 0 43 0 0 35 0 0 45 0 0 41 0 0 38 0 0 52 0 0 45 0 0 51 0 0 35 0 0 40 0 0 41 0 0 41 0 0 38 0 0 36 0 0 44 0 0 49 0 0 43 0 0 44 0 0 42 0 0 36 0 0 44 0 0 44 0 0 52 0 0 52 0 0 39 0 0 49 0 0 43 0 0 38 0 0 43 0 0 42 0 0 44 0 0 47 0 0 36 0 0 28 0 0 29 0 0 28 0 0 16 0 0 5 0 0 7 0 0 5 0 0 2 0 0 4 0 0 6 0 0 2 0 0 1 0 0 3 0 0 
0 0 0 2 0 0 4 0 0 2 0 0 0 0 0 2 0 0 1 0 0 4 0 0 3 0 0 2 0 0 2 0 0 5 0 0 5 0 0 3 0 0 3 0 0 4 0 0 6 0 0 12 0 0 12 0 0 7 0 0 10 0 0 12 0 0 8 0 0 13 0 0 5 0 0 6 0 0 4 0 0 2 0 0 7 0 0 8 0 0 6 0 0 11 0 0 7 0 0 8 0 0 8 0 0 10 0 0 9 0 0 8 0 0 4 0 0 7 0 0 4 0 0 11 0 0 9 0 0 9 0 0 14 0 0 15 0 0 5 0 0 4 0 0 7 0 0 6 0 0 5 0 0 7 0 0 2 0 0 4 0 0 0 0 0 3 0 0 2 0 0 1 0 0 2 0 0 2 0 0 
0 0 0 0 0 0 2 0 0 0 0 0 0 0 0 1 0 0 1 0 0 2 0 0 2 0 0 2 0 0 3 0 0 5 0 0 7 0 0 4 0 0 3 0 0 5 0 0 5 0 0 7 0 0 2 0 0 3 0 0 8 0 0 10 0 0 9 0 0 4 0 0 6 0 0 4 0 0 6 0 0 6 0 0 1 0 0 5 0 0 6 0 0 7 0 0 8 0 0 13 0 0 10 0 0 1 0 0 2 0 0 12 0 0 8 0 0 6 0 0 11 0 0 5 0 0 8 0 0 5 0 0 4 0 0 8 0 0 10 0 0 1 0 0 5 0 0 0 0 0 2 0 0 6 0 0 2 0 0 2 0 0 2 0 0 1 0 0 1 0 0 1 0 0 0 0 0 1 0 0 
0 0 0 1 0 0 0 0 0 0 0 0 2 0 0 1 0 0 0 0 0 2 0 0 2 0 0 1 0 0 4 0 0 5 0 0 2 0 0 2 0 0 6 0 0 2 0 0 6 0 0 3 0 0 3 0 0 7 0 0 3 0 0 5 0 0 4 0 0 4 0 0 5 0 0 5 0 0 8 0 0 6 0 0 7 0 0 3 0 0 3 0 0 7 0 0 8 0 0 7 0 0 7 0 0 3 0 0 5 0 0 13 0 0 1 0 0 5 0 0 8 0 0 3 0 0 4 0 0 4 0 0 8 0 0 5 0 0 6 0 0 1 0 0 2 0 0 2 0 0 2 0 0 1 0 0 3 0 0 2 0 0 2 0 0 0 0 0 0 0 0 1 0 0 0 0 0 1 0 0 
0 0 0 1 0 0 1 0 0 2 0 0 0 0 0 1 0 0 6 0 0 1 0 0 4 0 0 4 0 0 8 0 0 2 0 0 4 0 0 5 0 0 0 0 0 6 0 0 3 0 0 1 0 0 1 0 0 3 0 0 3 0 0 3 0 0 2 0 0 1 0 0 5 0 0 6 0 0 7 0 0 3 0 0 3 0 0 2 0 0 2 0 0 3 0 0 2 0 0 5 0 0 7 0 0 5 0 0 4 0 0 5 0 0 5 0 0 6 0 0 4 0 0 2 0 0 5 0 0 7 0 0 3 0 0 4 0 0 7 0 0 4 0 0 2 0 0 1 0 0 4 0 0 4 0 0 2 0 0 0 0 0 0 0 0 2 0 0 0 0 0 0 0 0 0 0 0 0 0 0 
0 0 0 0 0 0 0 0 0 0 0 0 3 0 0 4 0 0 3 0 0 0 0 0 3 0 0 2 0 0 2 0 0 2 0 0 7 0 0 2 0 0 5 0 0 3 0 0 3 0 0 3 0 0 0 0 0 7 0 0 5 0 0 3 0 0 0 0 0 4 0 0 6 0 0 2 0 0 3 0 0 5 0 0 4 0 0 10 0 0 5 0 0 1 0 0 3 0 0 4 0 0 9 0 0 3 0 0 4 0 0 5 0 0 1 0 0 7 0 0 2 0 0 2 0 0 2 0 0 6 0 0 1 0 0 0 0 0 8 0 0 1 0 0 4 0 0 2 0 0 2 0 0 2 0 0 4 0 0 3 0 0 1 0 0 1 0 0 1 0 0 0 0 0 0 0 0 1 0 0 
0 0 0 1 0 0 2 0 0 1 0 0 0 0 0 1 0 0 2 0 0 1 0 0 3 0 0 1 0 0 4 0 0 3 0 0 4 0 0 6 0 0 7 0 0 0 0 0 1 0 0 5 0 0 2 0 0 3 0 0 4 0 0 3 0 0 6 0 0 3 0 0 2 0 0 2 0 0 6 0 0 6 0 0 5 0 0 8 0 0 3 0 0 1 0 0 0 0 0 5 0 0 3 0 0 3 0 0 8 0 0 7 0 0 5 0 0 3 0 0 2 0 0 2 0 0 0 0 0 3 0 0 2 0 0 1 0 0 4 0 0 0 0 0 1 0 0 1 0 0 2 0 0 0 0 0 3 0 0 4 0 0 0 0 0 0 0 0 1 0 0 0 0 0 1 0 0 1 0 0 
0 0 0 2 0 0 0 0 0 1 0 0 0 0 0 2 0 0 0 0 0 0 0 0 2 0 0 2 0 0 1 0 0 1 0 0 7 0 0 6 0 0 3 0 0 1 0 0 1 0 0 1 0 0 2 0 0 5 0 0 3 0 0 5 0 0 6 0 0 1 0 0 2 0 0 2 0 0 4 0 0 3 0 0 3 0 0 3 0 0 4 0 0 0 0 0 0 0 0 0 0 0 3 0 0 5 0 0 4 0 0 5 0 0 7 0 0 3 0 0 0 0 0 0 0 0 1 0 0 1 0 0 5 0 0 1 0 0 2 0 0 0 0 0 2 0 0 3 0 0 1 0 0 2 0 0 0 0 0 0 0 0 1 0 0 0 0 0 1 0 0 2 0 0 0 0 0 0 0 0 
0 0 0 0 0 0 0 0 0 0 0 0 1 0 0 3 0 0 1 0 0 2 0 0 0 0 0 0 0 0 0 0 0 4 0 0 4 0 0 6 0 0 0 0 0 2 0 0 0 0 0 1 0 0 2 0 0 2 0 0 5 0 0 4 0 0 3 0 0 2 0 0 4 0 0 1 0 0 3 0 0 2 0 0 4 0 0 3 0 0 2 0 0 1 0 0 1 0 0 0 0 0 0 0 0 2 0 0 2 0 0 5 0 0 4 0 0 4 0 0 0 0 0 0 0 0 2 0 0 1 0 0 2 0 0 6 0 0 3 0 0 1 0 0 3 0 0 2 0 0 0 0 0 0 0 0 2 0 0 1 0 0 0 0 0 1 0 0 1 0 0 1 0 0 2 0 0 0 0 0 
