P3
# This is a dose file slice at depth 10 of 100
60 60
# now we give the maximum value of the RGB coordinates.
34334
0 0 0 0 0 0 0 0 0 0 0 0 0 0 0 0 0 0 0 0 0 0 0 0 0 0 0 0 0 0 0 0 0 0 0 0 0 0 0 0 0 0 0 0 0 0 0 0 0 0 0 0 0 0 0 0 0 0 0 0 0 0 0 0 0 0 0 0 0 0 0 0 0 0 0 0 0 0 0 0 0 0 0 0 0 0 0 0 0 0 0 0 0 0 0 0 0 0 0 0 0 0 0 0 0 0 0 0 0 0 0 0 0 0 0 0 0 0 0 0 0 0 0 0 0 0 0 0 0 0 0 0 0 0 0 0 0 0 0 0 0 0 0 0 0 0 0 0 0 0 0 0 0 0 0 0 0 0 0 0 0 0 0 0 0 0 0 0 0 0 0 0 0 0 0 0 0 0 0 0 
0 0 0 0 0 0 0 0 0 0 0 0 0 0 0 0 0 0 0 0 0 0 0 0 0 0 0 0 0 0 0 0 0 0 0 0 0 0 0 0 0 0 0 0 0 0 0 0 0 0 0 0 0 0 0 0 0 0 0 0 0 0 0 0 0 0 0 0 0 0 0 0 0 0 0 0 0 0 0 0 0 0 0 0 0 0 0 0 0 0 0 0 0 0 0 0 0 0 0 0 0 0 0 0 0 0 0 0 0 0 0 0 0 0 0 0 0 0 0 0 0 0 0 0 0 0 0 0 0 0 0 0 0 0 0 0 0 0 0 0 0 0 0 0 0 0 0 0 0 0 0 0 0 0 0 0 0 0 0 0 0 0 0 0 0 0 0 0 0 0 0 0 0 0 0 0 0 0 0 0 
0 0 0 0 0 0 0 0 0 0 0 0 0 0 0 0 0 0 0 0 0 0 0 0 0 0 0 0 0 0 0 0 0 0 0 0 0 0 0 0 0 0 0 0 0 0 0 0 0 0 0 0 0 0 0 0 0 0 0 0 0 0 0 0 0 0 0 0 0 0 0 0 0 0 0 0 0 0 0 0 0 0 0 0 0 0 0 0 0 0 0 0 0 0 0 0 0 0 0 0 0 0 0 0 0 0 0 0 0 0 0 0 0 0 0 0 0 0 0 0 0 0 0 0 0 0 0 0 0 0 0 0 0 0 0 0 0 0 0 0 0 0 0 0 0 0 0 0 0 0 0 0 0 0 0 0 0 0 0 0 0 0 0 0 0 0 0 0 0 0 0 0 0 0 0 0 0 0 0 0 
0 0 0 0 0 0 0 0 0 0 0 0 0 0 0 0 0 0 0 0 0 0 0 0 0 0 0 0 0 0 0 0 0 0 0 0 0 0 0 0 0 0 0 0 0 0 0 0 0 0 0 0 0 0 0 0 0 0 0 0 0 0 0 0 0 0 0 0 0 0 0 0 0 0 0 0 0 0 0 0 0 0 0 0 0 0 0 0 0 0 0 0 0 0 0 0 0 0 0 0 0 0 0 0 0 0 0 0 0 0 0 0 0 0 0 0 0 0 0 0 0 0 0 0 0 0 0 0 0 0 0 0 0 0 0 0 0 0 0 0 0 0 0 0 0 0 0 0 0 0 0 0 0 0 0 0 0 0 0 0 0 0 0 0 0 0 0 0 0 0 0 0 0 0 0 0 0 0 0 0 
0 0 0 0 0 0 0 0 0 0 0 0 0 0 0 0 0 0 0 0 0 0 0 0 0 0 0 0 0 0 0 0 0 0 0 0 0 0 0 0 0 0 0 0 0 0 0 0 0 0 0 0 0 0 0 0 0 0 0 0 0 0 0 0 0 0 0 0 0 0 0 0 0 0 0 0 0 0 0 0 0 0 0 0 0 0 0 0 0 0 0 0 0 0 0 0 0 0 0 0 0 0 0 0 0 0 0 0 0 0 0 0 0 0 0 0 0 0 0 0 0 0 0 0 0 0 0 0 0 0 0 0 0 0 0 0 0 0 0 0 0 0 0 0 0 0 0 0 0 0 0 0 0 0 0 0 0 0 0 0 0 0 0 0 0 0 0 0 0 0 0 0 0 0 0 0 0 0 0 0 
0 0 0 0 0 0 0 0 0 0 0 0 0 0 0 0 0 0 0 0 0 0 0 0 0 0 0 0 0 0 0 0 0 0 0 0 0 0 0 0 0 0 0 0 0 0 0 0 0 0 0 0 0 0 0 0 0 0 0 0 0 0 0 0 0 0 0 0 0 0 0 0 0 0 0 0 0 0 0 0 0 0 0 0 0 0 0 0 0 0 0 0 0 0 0 0 0 0 0 0 0 0 0 0 0 0 0 0 0 0 0 0 0 0 0 0 0 0 0 0 0 0 0 0 0 0 0 0 0 0 0 0 0 0 0 0 0 0 0 0 0 0 0 0 0 0 0 0 0 0 0 0 0 0 0 0 0 0 0 0 0 0 0 0 0 0 0 0 0 0 0 0 0 0 0 0 0 0 0 0 
0 0 0 0 0 0 0 0 0 0 0 0 0 0 0 0 0 0 0 0 0 0 0 0 0 0 0 0 0 0 0 0 0 0 0 0 0 0 0 0 0 0 0 0 0 0 0 0 0 0 0 0 0 0 0 0 0 0 0 0 0 0 0 0 0 0 0 0 0 0 0 0 0 0 0 0 0 0 0 0 0 0 0 0 0 0 0 0 0 0 0 0 0 0 0 0 0 0 0 0 0 0 0 0 0 0 0 0 0 0 0 0 0 0 0 0 0 0 0 0 0 0 0 0 0 0 0 0 0 0 0 0 0 0 0 0 0 0 0 0 0 0 0 0 0 0 0 0 0 0 0 0 0 0 0 0 0 0 0 0 0 0 0 0 0 0 0 0 0 0 0 0 0 0 0 0 0 0 0 0 
0 0 0 0 0 0 0 0 0 0 0 0 0 0 0 0 0 0 0 0 0 0 0 0 0 0 0 0 0 0 0 0 0 0 0 0 0 0 0 0 0 0 0 0 0 0 0 0 0 0 0 0 0 0 0 0 0 0 0 0 0 0 0 0 0 0 0 0 0 0 0 0 0 0 0 0 0 0 0 0 0 0 0 0 0 0 0 0 0 0 0 0 0 0 0 0 0 0 0 0 0 0 0 0 0 0 0 0 0 0 0 0 0 0 0 0 0 0 0 0 0 0 0 0 0 0 0 0 0 0 0 0 0 0 0 0 0 0 0 0 0 0 0 0 0 0 0 0 0 0 0 0 0 0 0 0 0 0 0 0 0 0 0 0 0 0 0 0 0 0 0 0 0 0 0 0 0 0 0 0 
0 0 0 0 0 0 0 0 0 0 0 0 0 0 0 0 0 0 0 0 0 0 0 0 0 0 0 0 0 0 0 0 0 0 0 0 0 0 0 0 0 0 0 0 0 0 0 0 0 0 0 0 0 0 0 0 0 0 0 0 0 0 0 0 0 0 0 0 0 0 0 0 0 0 0 0 0 0 0 0 0 0 0 0 0 0 0 0 0 0 0 0 0 0 0 0 0 0 0 0 0 0 0 0 0 0 0 0 0 0 0 0 0 0 0 0 0 0 0 0 0 0 0 0 0 0 0 0 0 0 0 0 0 0 0 0 0 0 0 0 0 0 0 0 0 0 0 0 0 0 0 0 0 0 0 0 0 0 0 0 0 0 0 0 0 0 0 0 0 0 0 0 0 0 0 0 0 0 0 0 
0 0 0 0 0 0 0 0 0 0 0 0 0 0 0 0 0 0 0 0 0 0 0 0 0 0 0 0 0 0 0 0 0 0 0 0 0 0 0 0 0 0 0 0 0 0 0 0 0 0 0 0 0 0 0 0 0 0 0 0 0 0 0 0 0 0 0 0 0 0 0 0 0 0 0 0 0 0 0 0 0 0 0 0 0 0 0 0 0 0 0 0 0 0 0 0 0 0 0 0 0 0 0 0 0 0 0 0 0 0 0 0 0 0 0 0 0 0 0 0 0 0 0 0 0 0 0 0 0 0 0 0 0 0 0 0 0 0 0 0 0 0 0 0 0 0 0 0 0 0 0 0 0 0 0 0 0 0 0 0 0 0 0 0 0 0 0 0 0 0 0 0 0 0 0 0 0 0 0 0 
0 0 0 0 0 0 0 0 0 0 0 0 0 0 0 0 0 0 0 0 0 0 0 0 0 0 0 0 0 0 6334 0 0 12642 0 0 12760 0 0 12580 0 0 12661 0 0 12834 0 0 12671 0 0 12347 0 0 12536 0 0 12664 0 0 12598 0 0 12756 0 0 12793 0 0 12349 0 0 12482 0 0 12640 0 0 12518 0 0 12469 0 0 12799 0 0 12721 0 0 12637 0 0 12728 0 0 12623 0 0 12519 0 0 12756 0 0 12519 0 0 12348 0 0 12671 0 0 12763 0 0 12508 0 0 12656 0 0 12551 0 0 12561 0 0 12608 0 0 12427 0 0 12560 0 0 12889 0 0 12826 0 0 12667 0 0 12537 0 0 6296 0 0 0 0 0 0 0 0 0 0 0 0 0 0 0 0 0 0 0 0 0 0 0 0 0 0 0 0 0 
0 0 0 0 0 0 0 0 0 0 0 0 0 0 0 0 0 0 0 0 0 0 0 0 0 0 0 0 0 0 12694 0 0 24864 0 0 25188 0 0 25466 0 0 25331 0 0 24963 0 0 25109 0 0 25157 0 0 25067 0 0 25361 0 0 25324 0 0 25335 0 0 25189 0 0 25206 0 0 25113 0 0 25368 0 0 25047 0 0 24951 0 0 25472 0 0 25280 0 0 25299 0 0 25009 0 0 25217 0 0 25007 0 0 25196 0 0 25217 0 0 25074 0 0 25271 0 0 25268 0 0 25303 0 0 25356 0 0 25244 0 0 25040 0 0 25164 0 0 25103 0 0 25097 0 0 25330 0 0 25062 0 0 25267 0 0 25098 0 0 12557 0 0 0 0 0 0 0 0 0 0 0 0 0 0 0 0 0 0 0 0 0 0 0 0 0 0 0 0 0 
0 0 0 0 0 0 0 0 0 0 0 0 0 0 0 0 0 0 0 0 0 0 0 0 0 0 0 0 0 0 12637 0 0 25406 0 0 25223 0 0 25331 0 0 25420 0 0 25107 0 0 24992 0 0 25264 0 0 25292 0 0 25189 0 0 25284 0 0 25183 0 0 25270 0 0 25439 0 0 25271 0 0 24841 0 0 25254 0 0 25149 0 0 25406 0 0 25240 0 0 25261 0 0 25213 0 0 25264 0 0 24939 0 0 25102 0 0 25034 0 0 25276 0 0 25091 0 0 24833 0 0 25216 0 0 25240 0 0 25172 0 0 25345 0 0 25159 0 0 25398 0 0 25575 0 0 25185 0 0 25058 0 0 25205 0 0 25314 0 0 12662 0 0 0 0 0 0 0 0 0 0 0 0 0 0 0 0 0 0 0 0 0 0 0 0 0 0 0 0 0 
0 0 0 0 0 0 0 0 0 0 0 0 0 0 0 0 0 0 0 0 0 0 0 0 0 0 0 0 0 0 12490 0 0 24974 0 0 25255 0 0 25297 0 0 25236 0 0 25273 0 0 25334 0 0 25045 0 0 25190 0 0 25211 0 0 25257 0 0 25199 0 0 24980 0 0 25262 0 0 25136 0 0 25307 0 0 25143 0 0 25219 0 0 25372 0 0 25199 0 0 25373 0 0 24950 0 0 24855 0 0 25427 0 0 25429 0 0 25079 0 0 25211 0 0 25055 0 0 25083 0 0 25293 0 0 25438 0 0 25034 0 0 25185 0 0 25276 0 0 25207 0 0 25329 0 0 25195 0 0 25178 0 0 25393 0 0 25156 0 0 12695 0 0 0 0 0 0 0 0 0 0 0 0 0 0 0 0 0 0 0 0 0 0 0 0 0 0 0 0 0 
0 0 0 0 0 0 0 0 0 0 0 0 0 0 0 0 0 0 0 0 0 0 0 0 0 0 0 0 0 0 12714 0 0 25378 0 0 25072 0 0 25507 0 0 25211 0 0 25156 0 0 24939 0 0 25230 0 0 25061 0 0 25036 0 0 25223 0 0 24822 0 0 24783 0 0 25026 0 0 25124 0 0 25158 0 0 25116 0 0 25316 0 0 25017 0 0 25216 0 0 25324 0 0 25129 0 0 25161 0 0 25063 0 0 24985 0 0 25036 0 0 25221 0 0 25098 0 0 24936 0 0 25178 0 0 24841 0 0 25340 0 0 25163 0 0 24960 0 0 25207 0 0 25159 0 0 25255 0 0 25245 0 0 25373 0 0 25148 0 0 12716 0 0 0 0 0 0 0 0 0 0 0 0 0 0 0 0 0 0 0 0 0 0 0 0 0 0 0 0 0 
0 0 0 0 0 0 0 0 0 0 0 0 0 0 0 0 0 0 0 0 0 0 0 0 0 0 0 0 0 0 12669 0 0 25332 0 0 24891 0 0 25448 0 0 25322 0 0 25477 0 0 24983 0 0 25129 0 0 25189 0 0 25161 0 0 25401 0 0 25215 0 0 25076 0 0 25024 0 0 25318 0 0 25056 0 0 25371 0 0 25323 0 0 25432 0 0 25249 0 0 25153 0 0 25279 0 0 25069 0 0 25129 0 0 25067 0 0 25371 0 0 25277 0 0 25461 0 0 25048 0 0 24939 0 0 25145 0 0 25229 0 0 25102 0 0 25008 0 0 25216 0 0 25125 0 0 25676 0 0 25309 0 0 25136 0 0 25158 0 0 12524 0 0 0 0 0 0 0 0 0 0 0 0 0 0 0 0 0 0 0 0 0 0 0 0 0 0 0 0 0 
0 0 0 0 0 0 0 0 0 0 0 0 0 0 0 0 0 0 0 0 0 0 0 0 0 0 0 0 0 0 12554 0 0 25049 0 0 25042 0 0 25122 0 0 25308 0 0 25156 0 0 25104 0 0 25334 0 0 25201 0 0 25185 0 0 25083 0 0 25329 0 0 25264 0 0 25432 0 0 25475 0 0 25129 0 0 25001 0 0 25317 0 0 25415 0 0 25402 0 0 25062 0 0 25085 0 0 25180 0 0 25235 0 0 25343 0 0 25317 0 0 25044 0 0 25495 0 0 25165 0 0 25191 0 0 24995 0 0 25367 0 0 24949 0 0 25083 0 0 25331 0 0 24781 0 0 25348 0 0 25176 0 0 25164 0 0 25405 0 0 12644 0 0 0 0 0 0 0 0 0 0 0 0 0 0 0 0 0 0 0 0 0 0 0 0 0 0 0 0 0 
0 0 0 0 0 0 0 0 0 0 0 0 0 0 0 0 0 0 0 0 0 0 0 0 0 0 0 0 0 0 12598 0 0 25381 0 0 25030 0 0 25311 0 0 25281 0 0 25065 0 0 25118 0 0 24838 0 0 25063 0 0 25144 0 0 25324 0 0 25208 0 0 25280 0 0 25148 0 0 25390 0 0 25464 0 0 25186 0 0 25062 0 0 25582 0 0 25437 0 0 25519 0 0 25065 0 0 25228 0 0 24768 0 0 25260 0 0 25094 0 0 25063 0 0 25051 0 0 25009 0 0 25347 0 0 25300 0 0 25501 0 0 25204 0 0 25258 0 0 24842 0 0 25135 0 0 25023 0 0 25372 0 0 25185 0 0 25014 0 0 12579 0 0 0 0 0 0 0 0 0 0 0 0 0 0 0 0 0 0 0 0 0 0 0 0 0 0 0 0 0 
0 0 0 0 0 0 0 0 0 0 0 0 0 0 0 0 0 0 0 0 0 0 0 0 0 0 0 0 0 0 12683 0 0 25107 0 0 25150 0 0 25291 0 0 25196 0 0 25379 0 0 24855 0 0 25204 0 0 25205 0 0 25250 0 0 24995 0 0 25250 0 0 25328 0 0 25098 0 0 24862 0 0 25227 0 0 25210 0 0 25083 0 0 25139 0 0 25183 0 0 24967 0 0 25160 0 0 25290 0 0 25116 0 0 25233 0 0 24973 0 0 25201 0 0 25403 0 0 25418 0 0 25213 0 0 25102 0 0 25112 0 0 25073 0 0 25357 0 0 25605 0 0 25456 0 0 25106 0 0 25292 0 0 25231 0 0 25046 0 0 12467 0 0 0 0 0 0 0 0 0 0 0 0 0 0 0 0 0 0 0 0 0 0 0 0 0 0 0 0 0 
0 0 0 0 0 0 0 0 0 0 0 0 0 0 0 0 0 0 0 0 0 0 0 0 0 0 0 0 0 0 12774 0 0 25353 0 0 25112 0 0 24731 0 0 25362 0 0 25105 0 0 25465 0 0 25354 0 0 25167 0 0 25172 0 0 25203 0 0 25191 0 0 24944 0 0 25182 0 0 25408 0 0 24877 0 0 25381 0 0 25196 0 0 25141 0 0 25499 0 0 25326 0 0 25447 0 0 25139 0 0 25313 0 0 25274 0 0 25226 0 0 25177 0 0 25565 0 0 25267 0 0 25313 0 0 24910 0 0 25171 0 0 25120 0 0 25250 0 0 25209 0 0 24951 0 0 25332 0 0 25131 0 0 25087 0 0 25322 0 0 12705 0 0 0 0 0 0 0 0 0 0 0 0 0 0 0 0 0 0 0 0 0 0 0 0 0 0 0 0 0 
0 0 0 0 0 0 0 0 0 0 0 0 0 0 0 0 0 0 0 0 0 0 0 0 0 0 0 0 0 0 12534 0 0 25381 0 0 25181 0 0 25340 0 0 25323 0 0 25461 0 0 25206 0 0 25230 0 0 24898 0 0 25266 0 0 25200 0 0 25090 0 0 25313 0 0 25247 0 0 25163 0 0 25032 0 0 24957 0 0 25314 0 0 24867 0 0 25183 0 0 24884 0 0 25101 0 0 24923 0 0 25137 0 0 25099 0 0 25159 0 0 25179 0 0 25373 0 0 25008 0 0 25377 0 0 24933 0 0 25313 0 0 25192 0 0 25429 0 0 25186 0 0 25188 0 0 25597 0 0 25026 0 0 25332 0 0 25398 0 0 12704 0 0 0 0 0 0 0 0 0 0 0 0 0 0 0 0 0 0 0 0 0 0 0 0 0 0 0 0 0 
0 0 0 0 0 0 0 0 0 0 0 0 0 0 0 0 0 0 0 0 0 0 0 0 0 0 0 0 0 0 12654 0 0 25180 0 0 24938 0 0 25159 0 0 25327 0 0 25026 0 0 25285 0 0 25251 0 0 25174 0 0 25140 0 0 25055 0 0 25162 0 0 25189 0 0 25184 0 0 25589 0 0 24869 0 0 25277 0 0 25068 0 0 25225 0 0 25013 0 0 25167 0 0 25197 0 0 25083 0 0 25424 0 0 25215 0 0 25246 0 0 25302 0 0 24996 0 0 25453 0 0 25551 0 0 25369 0 0 25357 0 0 25398 0 0 25384 0 0 25143 0 0 25168 0 0 25228 0 0 25399 0 0 25148 0 0 25327 0 0 12668 0 0 0 0 0 0 0 0 0 0 0 0 0 0 0 0 0 0 0 0 0 0 0 0 0 0 0 0 0 
0 0 0 0 0 0 0 0 0 0 0 0 0 0 0 0 0 0 0 0 0 0 0 0 0 0 0 0 0 0 12631 0 0 25278 0 0 25161 0 0 25290 0 0 25132 0 0 25302 0 0 25061 0 0 24798 0 0 25526 0 0 25385 0 0 25118 0 0 25181 0 0 25053 0 0 25418 0 0 25342 0 0 25109 0 0 25076 0 0 25192 0 0 25168 0 0 25309 0 0 24968 0 0 25110 0 0 25215 0 0 25112 0 0 25040 0 0 25266 0 0 25357 0 0 25302 0 0 25061 0 0 25151 0 0 25303 0 0 25291 0 0 25323 0 0 25440 0 0 25048 0 0 25210 0 0 25031 0 0 25062 0 0 24814 0 0 25173 0 0 12591 0 0 0 0 0 0 0 0 0 0 0 0 0 0 0 0 0 0 0 0 0 0 0 0 0 0 0 0 0 
0 0 0 0 0 0 0 0 0 0 0 0 0 0 0 0 0 0 0 0 0 0 0 0 0 0 0 0 0 0 12837 0 0 25202 0 0 25102 0 0 25346 0 0 25192 0 0 25468 0 0 24946 0 0 25110 0 0 25059 0 0 25335 0 0 25152 0 0 25391 0 0 25041 0 0 25177 0 0 25376 0 0 25358 0 0 25388 0 0 25136 0 0 25071 0 0 25398 0 0 25149 0 0 25258 0 0 24795 0 0 25222 0 0 25301 0 0 25208 0 0 25220 0 0 24965 0 0 25351 0 0 25384 0 0 25321 0 0 24966 0 0 25189 0 0 25126 0 0 25147 0 0 25315 0 0 25235 0 0 25466 0 0 25368 0 0 25206 0 0 12598 0 0 0 0 0 0 0 0 0 0 0 0 0 0 0 0 0 0 0 0 0 0 0 0 0 0 0 0 0 
0 0 0 0 0 0 0 0 0 0 0 0 0 0 0 0 0 0 0 0 0 0 0 0 0 0 0 0 0 0 12702 0 0 25213 0 0 25146 0 0 25319 0 0 25190 0 0 24895 0 0 25166 0 0 25444 0 0 25314 0 0 25490 0 0 25404 0 0 25034 0 0 25096 0 0 25310 0 0 25326 0 0 24923 0 0 25106 0 0 25378 0 0 25216 0 0 25025 0 0 25194 0 0 25607 0 0 25213 0 0 25237 0 0 25097 0 0 24951 0 0 25065 0 0 25269 0 0 25471 0 0 25123 0 0 25198 0 0 25327 0 0 25393 0 0 25102 0 0 24979 0 0 25306 0 0 25320 0 0 24964 0 0 25022 0 0 24953 0 0 12652 0 0 0 0 0 0 0 0 0 0 0 0 0 0 0 0 0 0 0 0 0 0 0 0 0 0 0 0 0 
0 0 0 0 0 0 0 0 0 0 0 0 0 0 0 0 0 0 0 0 0 0 0 0 0 0 0 0 0 0 12699 0 0 25572 0 0 25294 0 0 25178 0 0 25370 0 0 25114 0 0 25329 0 0 25385 0 0 25280 0 0 25250 0 0 25337 0 0 25182 0 0 25115 0 0 24997 0 0 25342 0 0 25296 0 0 25177 0 0 25252 0 0 25096 0 0 25084 0 0 25125 0 0 25554 0 0 24990 0 0 25328 0 0 25272 0 0 25246 0 0 25351 0 0 25056 0 0 24940 0 0 25084 0 0 25421 0 0 25383 0 0 25374 0 0 24994 0 0 25099 0 0 25076 0 0 25334 0 0 25123 0 0 24863 0 0 25529 0 0 12628 0 0 0 0 0 0 0 0 0 0 0 0 0 0 0 0 0 0 0 0 0 0 0 0 0 0 0 0 0 
0 0 0 0 0 0 0 0 0 0 0 0 0 0 0 0 0 0 0 0 0 0 0 0 0 0 0 0 0 0 12479 0 0 25162 0 0 25262 0 0 24833 0 0 25111 0 0 25175 0 0 25157 0 0 25039 0 0 25191 0 0 25282 0 0 25482 0 0 25216 0 0 24936 0 0 25125 0 0 24991 0 0 25172 0 0 24949 0 0 25067 0 0 25059 0 0 25068 0 0 24962 0 0 24958 0 0 25277 0 0 25522 0 0 25270 0 0 25288 0 0 25220 0 0 24906 0 0 25250 0 0 25320 0 0 25154 0 0 25414 0 0 25302 0 0 24892 0 0 25385 0 0 25541 0 0 25334 0 0 25161 0 0 25014 0 0 25281 0 0 12587 0 0 0 0 0 0 0 0 0 0 0 0 0 0 0 0 0 0 0 0 0 0 0 0 0 0 0 0 0 
0 0 0 0 0 0 0 0 0 0 0 0 0 0 0 0 0 0 0 0 0 0 0 0 0 0 0 0 0 0 12644 0 0 25234 0 0 25206 0 0 25216 0 0 25167 0 0 25147 0 0 25294 0 0 25347 0 0 25240 0 0 25232 0 0 25394 0 0 25059 0 0 25588 0 0 25134 0 0 25145 0 0 25144 0 0 25216 0 0 25256 0 0 25465 0 0 24924 0 0 25294 0 0 25217 0 0 25133 0 0 25109 0 0 25447 0 0 25052 0 0 25613 0 0 25261 0 0 25098 0 0 25290 0 0 25223 0 0 24892 0 0 25266 0 0 25445 0 0 25177 0 0 25591 0 0 25244 0 0 25243 0 0 25475 0 0 25007 0 0 12471 0 0 0 0 0 0 0 0 0 0 0 0 0 0 0 0 0 0 0 0 0 0 0 0 0 0 0 0 0 
0 0 0 0 0 0 0 0 0 0 0 0 0 0 0 0 0 0 0 0 0 0 0 0 0 0 0 0 0 0 12646 0 0 25376 0 0 25252 0 0 25165 0 0 25412 0 0 25002 0 0 25100 0 0 25420 0 0 24947 0 0 25146 0 0 25251 0 0 25147 0 0 25110 0 0 25242 0 0 25547 0 0 25030 0 0 24994 0 0 25268 0 0 25211 0 0 25381 0 0 25679 0 0 24950 0 0 25054 0 0 25180 0 0 25236 0 0 25182 0 0 25134 0 0 25190 0 0 25094 0 0 25058 0 0 25168 0 0 25309 0 0 25284 0 0 25291 0 0 25334 0 0 25235 0 0 24746 0 0 25110 0 0 25121 0 0 25235 0 0 12859 0 0 0 0 0 0 0 0 0 0 0 0 0 0 0 0 0 0 0 0 0 0 0 0 0 0 0 0 0 
0 0 0 0 0 0 0 0 0 0 0 0 0 0 0 0 0 0 0 0 0 0 0 0 0 0 0 0 0 0 12574 0 0 25001 0 0 25035 0 0 25246 0 0 25184 0 0 25397 0 0 25123 0 0 25233 0 0 25208 0 0 25074 0 0 25033 0 0 25263 0 0 24990 0 0 25288 0 0 25271 0 0 24965 0 0 25178 0 0 25308 0 0 25004 0 0 25088 0 0 25310 0 0 24994 0 0 25150 0 0 25437 0 0 25211 0 0 25238 0 0 25266 0 0 25121 0 0 25395 0 0 25262 0 0 25348 0 0 25327 0 0 25385 0 0 25114 0 0 25285 0 0 25345 0 0 25652 0 0 24962 0 0 25147 0 0 25116 0 0 12660 0 0 0 0 0 0 0 0 0 0 0 0 0 0 0 0 0 0 0 0 0 0 0 0 0 0 0 0 0 
0 0 0 0 0 0 0 0 0 0 0 0 0 0 0 0 0 0 0 0 0 0 0 0 0 0 0 0 0 0 12709 0 0 25076 0 0 25208 0 0 25163 0 0 25121 0 0 25213 0 0 25334 0 0 25087 0 0 25185 0 0 25411 0 0 25475 0 0 25682 0 0 25173 0 0 25165 0 0 25191 0 0 25066 0 0 25314 0 0 25464 0 0 24950 0 0 24838 0 0 25492 0 0 25271 0 0 25195 0 0 25036 0 0 25066 0 0 25397 0 0 25337 0 0 25445 0 0 24861 0 0 25171 0 0 24995 0 0 25340 0 0 25164 0 0 25226 0 0 25031 0 0 25258 0 0 25276 0 0 25137 0 0 25039 0 0 24896 0 0 12603 0 0 0 0 0 0 0 0 0 0 0 0 0 0 0 0 0 0 0 0 0 0 0 0 0 0 0 0 0 
0 0 0 0 0 0 0 0 0 0 0 0 0 0 0 0 0 0 0 0 0 0 0 0 0 0 0 0 0 0 12644 0 0 25227 0 0 25218 0 0 25221 0 0 25191 0 0 25431 0 0 25051 0 0 25532 0 0 25174 0 0 25330 0 0 25132 0 0 25257 0 0 25204 0 0 24904 0 0 25307 0 0 25030 0 0 25260 0 0 25419 0 0 25092 0 0 25196 0 0 25124 0 0 25118 0 0 25372 0 0 25293 0 0 25033 0 0 25351 0 0 25199 0 0 25152 0 0 25245 0 0 25355 0 0 24919 0 0 25243 0 0 25240 0 0 25165 0 0 24799 0 0 25412 0 0 25018 0 0 25161 0 0 25169 0 0 25087 0 0 12718 0 0 0 0 0 0 0 0 0 0 0 0 0 0 0 0 0 0 0 0 0 0 0 0 0 0 0 0 0 
0 0 0 0 0 0 0 0 0 0 0 0 0 0 0 0 0 0 0 0 0 0 0 0 0 0 0 0 0 0 12560 0 0 25328 0 0 25061 0 0 24959 0 0 25027 0 0 25099 0 0 25427 0 0 25064 0 0 25239 0 0 24947 0 0 24954 0 0 25301 0 0 25116 0 0 25232 0 0 25644 0 0 25075 0 0 25046 0 0 25079 0 0 25086 0 0 25466 0 0 25402 0 0 25365 0 0 25311 0 0 25316 0 0 25348 0 0 25132 0 0 25296 0 0 25180 0 0 25016 0 0 25155 0 0 25192 0 0 25298 0 0 25304 0 0 25119 0 0 25339 0 0 25129 0 0 25069 0 0 25476 0 0 25158 0 0 25178 0 0 12608 0 0 0 0 0 0 0 0 0 0 0 0 0 0 0 0 0 0 0 0 0 0 0 0 0 0 0 0 0 
0 0 0 0 0 0 0 0 0 0 0 0 0 0 0 0 0 0 0 0 0 0 0 0 0 0 0 0 0 0 12621 0 0 25268 0 0 24991 0 0 25286 0 0 25273 0 0 25350 0 0 25227 0 0 25037 0 0 25168 0 0 24928 0 0 24979 0 0 25140 0 0 25264 0 0 25054 0 0 25066 0 0 25410 0 0 25369 0 0 25030 0 0 25280 0 0 25263 0 0 25254 0 0 25148 0 0 24942 0 0 25071 0 0 25258 0 0 25205 0 0 25040 0 0 25298 0 0 25412 0 0 25283 0 0 25479 0 0 25179 0 0 25209 0 0 25018 0 0 25175 0 0 25102 0 0 25196 0 0 24933 0 0 24880 0 0 25045 0 0 12634 0 0 0 0 0 0 0 0 0 0 0 0 0 0 0 0 0 0 0 0 0 0 0 0 0 0 0 0 0 
0 0 0 0 0 0 0 0 0 0 0 0 0 0 0 0 0 0 0 0 0 0 0 0 0 0 0 0 0 0 12446 0 0 25020 0 0 24990 0 0 25192 0 0 25077 0 0 25078 0 0 25401 0 0 24984 0 0 25199 0 0 24992 0 0 25398 0 0 25356 0 0 25171 0 0 25183 0 0 25203 0 0 25160 0 0 25140 0 0 25355 0 0 25119 0 0 25124 0 0 25441 0 0 25017 0 0 25062 0 0 25255 0 0 25113 0 0 25460 0 0 25067 0 0 25304 0 0 24967 0 0 25147 0 0 25207 0 0 25082 0 0 25121 0 0 25212 0 0 25191 0 0 25314 0 0 25634 0 0 25349 0 0 25267 0 0 25152 0 0 12831 0 0 0 0 0 0 0 0 0 0 0 0 0 0 0 0 0 0 0 0 0 0 0 0 0 0 0 0 0 
0 0 0 0 0 0 0 0 0 0 0 0 0 0 0 0 0 0 0 0 0 0 0 0 0 0 0 0 0 0 12364 0 0 25409 0 0 25104 0 0 25164 0 0 25513 0 0 25140 0 0 25151 0 0 25494 0 0 25190 0 0 25032 0 0 25469 0 0 25453 0 0 25629 0 0 25139 0 0 25284 0 0 24970 0 0 25280 0 0 24978 0 0 25237 0 0 25433 0 0 25159 0 0 25156 0 0 25443 0 0 25324 0 0 25517 0 0 25325 0 0 25091 0 0 25225 0 0 25168 0 0 25637 0 0 25036 0 0 25349 0 0 25254 0 0 25217 0 0 25270 0 0 25339 0 0 24847 0 0 25198 0 0 25228 0 0 25317 0 0 12549 0 0 0 0 0 0 0 0 0 0 0 0 0 0 0 0 0 0 0 0 0 0 0 0 0 0 0 0 0 
0 0 0 0 0 0 0 0 0 0 0 0 0 0 0 0 0 0 0 0 0 0 0 0 0 0 0 0 0 0 12564 0 0 25077 0 0 25160 0 0 25310 0 0 25321 0 0 25368 0 0 25342 0 0 25525 0 0 25001 0 0 25302 0 0 25268 0 0 25278 0 0 24976 0 0 25188 0 0 25239 0 0 25387 0 0 25404 0 0 24950 0 0 25290 0 0 24872 0 0 25164 0 0 25185 0 0 25075 0 0 24891 0 0 25553 0 0 24998 0 0 25176 0 0 25357 0 0 25587 0 0 25429 0 0 25162 0 0 25192 0 0 25098 0 0 25184 0 0 25183 0 0 25278 0 0 24966 0 0 25128 0 0 25157 0 0 24986 0 0 12742 0 0 0 0 0 0 0 0 0 0 0 0 0 0 0 0 0 0 0 0 0 0 0 0 0 0 0 0 0 
0 0 0 0 0 0 0 0 0 0 0 0 0 0 0 0 0 0 0 0 0 0 0 0 0 0 0 0 0 0 12442 0 0 25213 0 0 24987 0 0 25162 0 0 25436 0 0 25589 0 0 25429 0 0 25446 0 0 25233 0 0 25022 0 0 25203 0 0 25195 0 0 25069 0 0 25038 0 0 25381 0 0 25434 0 0 25293 0 0 25537 0 0 25265 0 0 25071 0 0 24900 0 0 25169 0 0 25543 0 0 25166 0 0 24974 0 0 25354 0 0 25298 0 0 25357 0 0 25322 0 0 25127 0 0 25189 0 0 25108 0 0 25239 0 0 24849 0 0 25126 0 0 25325 0 0 25319 0 0 25151 0 0 25510 0 0 25216 0 0 12512 0 0 0 0 0 0 0 0 0 0 0 0 0 0 0 0 0 0 0 0 0 0 0 0 0 0 0 0 0 
0 0 0 0 0 0 0 0 0 0 0 0 0 0 0 0 0 0 0 0 0 0 0 0 0 0 0 0 0 0 12559 0 0 25119 0 0 25184 0 0 24880 0 0 25319 0 0 25660 0 0 25482 0 0 25149 0 0 25390 0 0 24889 0 0 25036 0 0 25289 0 0 25266 0 0 25484 0 0 25157 0 0 25173 0 0 25354 0 0 25450 0 0 25224 0 0 25133 0 0 25320 0 0 25240 0 0 24979 0 0 25277 0 0 25351 0 0 25158 0 0 25274 0 0 25235 0 0 24964 0 0 25204 0 0 25118 0 0 25394 0 0 25028 0 0 24942 0 0 25088 0 0 25136 0 0 25001 0 0 25190 0 0 24612 0 0 25001 0 0 12512 0 0 0 0 0 0 0 0 0 0 0 0 0 0 0 0 0 0 0 0 0 0 0 0 0 0 0 0 0 
0 0 0 0 0 0 0 0 0 0 0 0 0 0 0 0 0 0 0 0 0 0 0 0 0 0 0 0 0 0 12331 0 0 24921 0 0 25166 0 0 24805 0 0 25346 0 0 25171 0 0 24948 0 0 25311 0 0 25258 0 0 25319 0 0 24918 0 0 25316 0 0 25340 0 0 25026 0 0 25304 0 0 24935 0 0 24802 0 0 24989 0 0 25143 0 0 25049 0 0 25228 0 0 25295 0 0 25269 0 0 25258 0 0 25126 0 0 25085 0 0 25087 0 0 25065 0 0 25144 0 0 24984 0 0 24906 0 0 25230 0 0 24935 0 0 25326 0 0 24874 0 0 25196 0 0 25441 0 0 24984 0 0 25644 0 0 25032 0 0 12647 0 0 0 0 0 0 0 0 0 0 0 0 0 0 0 0 0 0 0 0 0 0 0 0 0 0 0 0 0 
0 0 0 0 0 0 0 0 0 0 0 0 0 0 0 0 0 0 0 0 0 0 0 0 0 0 0 0 0 0 12570 0 0 25411 0 0 25296 0 0 25512 0 0 25570 0 0 25063 0 0 25148 0 0 25214 0 0 25274 0 0 25006 0 0 25367 0 0 25379 0 0 25340 0 0 25427 0 0 25263 0 0 25123 0 0 25351 0 0 25280 0 0 25146 0 0 25313 0 0 25265 0 0 25219 0 0 24965 0 0 25340 0 0 25288 0 0 25196 0 0 25172 0 0 25494 0 0 25481 0 0 24979 0 0 25232 0 0 25032 0 0 25114 0 0 25320 0 0 25315 0 0 25090 0 0 24955 0 0 25009 0 0 25349 0 0 25292 0 0 12652 0 0 0 0 0 0 0 0 0 0 0 0 0 0 0 0 0 0 0 0 0 0 0 0 0 0 0 0 0 
0 0 0 0 0 0 0 0 0 0 0 0 0 0 0 0 0 0 0 0 0 0 0 0 0 0 0 0 0 0 12569 0 0 25062 0 0 25164 0 0 25376 0 0 25035 0 0 25190 0 0 25091 0 0 25074 0 0 25178 0 0 25016 0 0 25426 0 0 25161 0 0 25438 0 0 25031 0 0 25222 0 0 25422 0 0 25122 0 0 25410 0 0 25237 0 0 25459 0 0 25361 0 0 25106 0 0 25013 0 0 25265 0 0 25331 0 0 25082 0 0 25486 0 0 25395 0 0 25084 0 0 24956 0 0 25316 0 0 25273 0 0 25140 0 0 25047 0 0 25220 0 0 25301 0 0 25197 0 0 25141 0 0 25216 0 0 25252 0 0 12359 0 0 0 0 0 0 0 0 0 0 0 0 0 0 0 0 0 0 0 0 0 0 0 0 0 0 0 0 0 
0 0 0 0 0 0 0 0 0 0 0 0 0 0 0 0 0 0 0 0 0 0 0 0 0 0 0 0 0 0 12565 0 0 24872 0 0 25419 0 0 25237 0 0 25364 0 0 25372 0 0 25448 0 0 25348 0 0 25068 0 0 25192 0 0 25410 0 0 25087 0 0 25414 0 0 25188 0 0 25338 0 0 25016 0 0 25124 0 0 25142 0 0 24780 0 0 25116 0 0 25134 0 0 25543 0 0 25093 0 0 25191 0 0 25374 0 0 25133 0 0 25244 0 0 24938 0 0 25468 0 0 24929 0 0 25289 0 0 25153 0 0 25179 0 0 25101 0 0 25198 0 0 24798 0 0 25380 0 0 25151 0 0 24941 0 0 24852 0 0 12588 0 0 0 0 0 0 0 0 0 0 0 0 0 0 0 0 0 0 0 0 0 0 0 0 0 0 0 0 0 
0 0 0 0 0 0 0 0 0 0 0 0 0 0 0 0 0 0 0 0 0 0 0 0 0 0 0 0 0 0 12580 0 0 25105 0 0 24955 0 0 25279 0 0 25259 0 0 25200 0 0 25144 0 0 25387 0 0 25315 0 0 25185 0 0 25330 0 0 25063 0 0 25222 0 0 25210 0 0 25114 0 0 25163 0 0 25355 0 0 25029 0 0 25171 0 0 25273 0 0 25150 0 0 25008 0 0 25267 0 0 25188 0 0 25181 0 0 25058 0 0 25222 0 0 24940 0 0 25426 0 0 25288 0 0 25259 0 0 25217 0 0 25377 0 0 25329 0 0 25297 0 0 25287 0 0 25212 0 0 25139 0 0 25102 0 0 25051 0 0 12642 0 0 0 0 0 0 0 0 0 0 0 0 0 0 0 0 0 0 0 0 0 0 0 0 0 0 0 0 0 
0 0 0 0 0 0 0 0 0 0 0 0 0 0 0 0 0 0 0 0 0 0 0 0 0 0 0 0 0 0 12650 0 0 25336 0 0 25097 0 0 25461 0 0 25181 0 0 25333 0 0 25428 0 0 25143 0 0 25118 0 0 25110 0 0 25278 0 0 25366 0 0 25194 0 0 25169 0 0 25512 0 0 25298 0 0 25421 0 0 25263 0 0 24949 0 0 25209 0 0 25009 0 0 25308 0 0 25027 0 0 25147 0 0 25301 0 0 25280 0 0 25305 0 0 25156 0 0 25315 0 0 25141 0 0 25338 0 0 25386 0 0 25268 0 0 25007 0 0 25271 0 0 24963 0 0 25121 0 0 25281 0 0 24879 0 0 25538 0 0 12685 0 0 0 0 0 0 0 0 0 0 0 0 0 0 0 0 0 0 0 0 0 0 0 0 0 0 0 0 0 
0 0 0 0 0 0 0 0 0 0 0 0 0 0 0 0 0 0 0 0 0 0 0 0 0 0 0 0 0 0 12705 0 0 25263 0 0 25262 0 0 25223 0 0 25182 0 0 25485 0 0 25274 0 0 25044 0 0 25119 0 0 25207 0 0 25404 0 0 25089 0 0 25214 0 0 25326 0 0 25285 0 0 25388 0 0 25284 0 0 25272 0 0 25301 0 0 25157 0 0 25348 0 0 25169 0 0 25116 0 0 25011 0 0 25408 0 0 25328 0 0 24979 0 0 24895 0 0 24930 0 0 24738 0 0 25010 0 0 24949 0 0 25208 0 0 25138 0 0 25051 0 0 25035 0 0 25141 0 0 25273 0 0 25351 0 0 24983 0 0 12532 0 0 0 0 0 0 0 0 0 0 0 0 0 0 0 0 0 0 0 0 0 0 0 0 0 0 0 0 0 
0 0 0 0 0 0 0 0 0 0 0 0 0 0 0 0 0 0 0 0 0 0 0 0 0 0 0 0 0 0 12457 0 0 25148 0 0 25239 0 0 25318 0 0 25152 0 0 25283 0 0 25013 0 0 25270 0 0 25386 0 0 24983 0 0 25366 0 0 25178 0 0 25231 0 0 24997 0 0 25254 0 0 25142 0 0 25349 0 0 25607 0 0 25499 0 0 25308 0 0 25289 0 0 25426 0 0 25090 0 0 25161 0 0 24990 0 0 25364 0 0 25277 0 0 25278 0 0 24981 0 0 25416 0 0 25266 0 0 25277 0 0 25377 0 0 25139 0 0 25384 0 0 25039 0 0 25114 0 0 25334 0 0 25247 0 0 25407 0 0 12756 0 0 0 0 0 0 0 0 0 0 0 0 0 0 0 0 0 0 0 0 0 0 0 0 0 0 0 0 0 
0 0 0 0 0 0 0 0 0 0 0 0 0 0 0 0 0 0 0 0 0 0 0 0 0 0 0 0 0 0 12965 0 0 24978 0 0 25312 0 0 25213 0 0 25273 0 0 25206 0 0 25043 0 0 25045 0 0 24856 0 0 25393 0 0 25097 0 0 25299 0 0 25075 0 0 25303 0 0 25212 0 0 25161 0 0 25197 0 0 25501 0 0 25312 0 0 25125 0 0 25126 0 0 25280 0 0 25396 0 0 25337 0 0 25157 0 0 25170 0 0 25147 0 0 25065 0 0 24969 0 0 25252 0 0 25286 0 0 25200 0 0 25071 0 0 25240 0 0 25014 0 0 25154 0 0 25558 0 0 25064 0 0 25025 0 0 25101 0 0 12359 0 0 0 0 0 0 0 0 0 0 0 0 0 0 0 0 0 0 0 0 0 0 0 0 0 0 0 0 0 
0 0 0 0 0 0 0 0 0 0 0 0 0 0 0 0 0 0 0 0 0 0 0 0 0 0 0 0 0 0 12712 0 0 25351 0 0 25162 0 0 24813 0 0 25124 0 0 25201 0 0 25034 0 0 25079 0 0 25447 0 0 25067 0 0 25136 0 0 24963 0 0 25749 0 0 25210 0 0 25099 0 0 25158 0 0 24996 0 0 25026 0 0 25295 0 0 25254 0 0 25428 0 0 24925 0 0 25382 0 0 24988 0 0 25331 0 0 25021 0 0 24946 0 0 25152 0 0 25219 0 0 25081 0 0 25235 0 0 24962 0 0 25487 0 0 25249 0 0 25151 0 0 25087 0 0 25194 0 0 25250 0 0 25282 0 0 25123 0 0 12500 0 0 0 0 0 0 0 0 0 0 0 0 0 0 0 0 0 0 0 0 0 0 0 0 0 0 0 0 0 
0 0 0 0 0 0 0 0 0 0 0 0 0 0 0 0 0 0 0 0 0 0 0 0 0 0 0 0 0 0 12596 0 0 25151 0 0 25219 0 0 25035 0 0 25205 0 0 25126 0 0 25303 0 0 25353 0 0 25017 0 0 25391 0 0 25268 0 0 25422 0 0 25222 0 0 25436 0 0 25514 0 0 24921 0 0 25168 0 0 25154 0 0 25127 0 0 25331 0 0 25101 0 0 25382 0 0 25158 0 0 25170 0 0 25302 0 0 25286 0 0 25009 0 0 25317 0 0 24927 0 0 25351 0 0 25442 0 0 25227 0 0 25383 0 0 25083 0 0 25051 0 0 25138 0 0 25149 0 0 25066 0 0 25198 0 0 25127 0 0 12481 0 0 0 0 0 0 0 0 0 0 0 0 0 0 0 0 0 0 0 0 0 0 0 0 0 0 0 0 0 
0 0 0 0 0 0 0 0 0 0 0 0 0 0 0 0 0 0 0 0 0 0 0 0 0 0 0 0 0 0 6264 0 0 12561 0 0 12509 0 0 12608 0 0 12448 0 0 12540 0 0 12594 0 0 12680 0 0 12450 0 0 12806 0 0 12618 0 0 12643 0 0 12738 0 0 12559 0 0 12663 0 0 12780 0 0 12355 0 0 12548 0 0 12621 0 0 12500 0 0 12575 0 0 12509 0 0 12793 0 0 12598 0 0 12912 0 0 12615 0 0 12688 0 0 12420 0 0 12695 0 0 12525 0 0 12626 0 0 12533 0 0 12415 0 0 12751 0 0 12441 0 0 12620 0 0 12661 0 0 12450 0 0 12521 0 0 12727 0 0 6275 0 0 0 0 0 0 0 0 0 0 0 0 0 0 0 0 0 0 0 0 0 0 0 0 0 0 0 0 0 
0 0 0 0 0 0 0 0 0 0 0 0 0 0 0 0 0 0 0 0 0 0 0 0 0 0 0 0 0 0 0 0 0 0 0 0 0 0 0 0 0 0 0 0 0 0 0 0 0 0 0 0 0 0 0 0 0 0 0 0 0 0 0 0 0 0 0 0 0 0 0 0 0 0 0 0 0 0 0 0 0 0 0 0 0 0 0 0 0 0 0 0 0 0 0 0 0 0 0 0 0 0 0 0 0 0 0 0 0 0 0 0 0 0 0 0 0 0 0 0 0 0 0 0 0 0 0 0 0 0 0 0 0 0 0 0 0 0 0 0 0 0 0 0 0 0 0 0 0 0 0 0 0 0 0 0 0 0 0 0 0 0 0 0 0 0 0 0 0 0 0 0 0 0 0 0 0 0 0 0 
0 0 0 0 0 0 0 0 0 0 0 0 0 0 0 0 0 0 0 0 0 0 0 0 0 0 0 0 0 0 0 0 0 0 0 0 0 0 0 0 0 0 0 0 0 0 0 0 0 0 0 0 0 0 0 0 0 0 0 0 0 0 0 0 0 0 0 0 0 0 0 0 0 0 0 0 0 0 0 0 0 0 0 0 0 0 0 0 0 0 0 0 0 0 0 0 0 0 0 0 0 0 0 0 0 0 0 0 0 0 0 0 0 0 0 0 0 0 0 0 0 0 0 0 0 0 0 0 0 0 0 0 0 0 0 0 0 0 0 0 0 0 0 0 0 0 0 0 0 0 0 0 0 0 0 0 0 0 0 0 0 0 0 0 0 0 0 0 0 0 0 0 0 0 0 0 0 0 0 0 
0 0 0 0 0 0 0 0 0 0 0 0 0 0 0 0 0 0 0 0 0 0 0 0 0 0 0 0 0 0 0 0 0 0 0 0 0 0 0 0 0 0 0 0 0 0 0 0 0 0 0 0 0 0 0 0 0 0 0 0 0 0 0 0 0 0 0 0 0 0 0 0 0 0 0 0 0 0 0 0 0 0 0 0 0 0 0 0 0 0 0 0 0 0 0 0 0 0 0 0 0 0 0 0 0 0 0 0 0 0 0 0 0 0 0 0 0 0 0 0 0 0 0 0 0 0 0 0 0 0 0 0 0 0 0 0 0 0 0 0 0 0 0 0 0 0 0 0 0 0 0 0 0 0 0 0 0 0 0 0 0 0 0 0 0 0 0 0 0 0 0 0 0 0 0 0 0 0 0 0 
0 0 0 0 0 0 0 0 0 0 0 0 0 0 0 0 0 0 0 0 0 0 0 0 0 0 0 0 0 0 0 0 0 0 0 0 0 0 0 0 0 0 0 0 0 0 0 0 0 0 0 0 0 0 0 0 0 0 0 0 0 0 0 0 0 0 0 0 0 0 0 0 0 0 0 0 0 0 0 0 0 0 0 0 0 0 0 0 0 0 0 0 0 0 0 0 0 0 0 0 0 0 0 0 0 0 0 0 0 0 0 0 0 0 0 0 0 0 0 0 0 0 0 0 0 0 0 0 0 0 0 0 0 0 0 0 0 0 0 0 0 0 0 0 0 0 0 0 0 0 0 0 0 0 0 0 0 0 0 0 0 0 0 0 0 0 0 0 0 0 0 0 0 0 0 0 0 0 0 0 
0 0 0 0 0 0 0 0 0 0 0 0 0 0 0 0 0 0 0 0 0 0 0 0 0 0 0 0 0 0 0 0 0 0 0 0 0 0 0 0 0 0 0 0 0 0 0 0 0 0 0 0 0 0 0 0 0 0 0 0 0 0 0 0 0 0 0 0 0 0 0 0 0 0 0 0 0 0 0 0 0 0 0 0 0 0 0 0 0 0 0 0 0 0 0 0 0 0 0 0 0 0 0 0 0 0 0 0 0 0 0 0 0 0 0 0 0 0 0 0 0 0 0 0 0 0 0 0 0 0 0 0 0 0 0 0 0 0 0 0 0 0 0 0 0 0 0 0 0 0 0 0 0 0 0 0 0 0 0 0 0 0 0 0 0 0 0 0 0 0 0 0 0 0 0 0 0 0 0 0 
0 0 0 0 0 0 0 0 0 0 0 0 0 0 0 0 0 0 0 0 0 0 0 0 0 0 0 0 0 0 0 0 0 0 0 0 0 0 0 0 0 0 0 0 0 0 0 0 0 0 0 0 0 0 0 0 0 0 0 0 0 0 0 0 0 0 0 0 0 0 0 0 0 0 0 0 0 0 0 0 0 0 0 0 0 0 0 0 0 0 0 0 0 0 0 0 0 0 0 0 0 0 0 0 0 0 0 0 0 0 0 0 0 0 0 0 0 0 0 0 0 0 0 0 0 0 0 0 0 0 0 0 0 0 0 0 0 0 0 0 0 0 0 0 0 0 0 0 0 0 0 0 0 0 0 0 0 0 0 0 0 0 0 0 0 0 0 0 0 0 0 0 0 0 0 0 0 0 0 0 
0 0 0 0 0 0 0 0 0 0 0 0 0 0 0 0 0 0 0 0 0 0 0 0 0 0 0 0 0 0 0 0 0 0 0 0 0 0 0 0 0 0 0 0 0 0 0 0 0 0 0 0 0 0 0 0 0 0 0 0 0 0 0 0 0 0 0 0 0 0 0 0 0 0 0 0 0 0 0 0 0 0 0 0 0 0 0 0 0 0 0 0 0 0 0 0 0 0 0 0 0 0 0 0 0 0 0 0 0 0 0 0 0 0 0 0 0 0 0 0 0 0 0 0 0 0 0 0 0 0 0 0 0 0 0 0 0 0 0 0 0 0 0 0 0 0 0 0 0 0 0 0 0 0 0 0 0 0 0 0 0 0 0 0 0 0 0 0 0 0 0 0 0 0 0 0 0 0 0 0 
0 0 0 0 0 0 0 0 0 0 0 0 0 0 0 0 0 0 0 0 0 0 0 0 0 0 0 0 0 0 0 0 0 0 0 0 0 0 0 0 0 0 0 0 0 0 0 0 0 0 0 0 0 0 0 0 0 0 0 0 0 0 0 0 0 0 0 0 0 0 0 0 0 0 0 0 0 0 0 0 0 0 0 0 0 0 0 0 0 0 0 0 0 0 0 0 0 0 0 0 0 0 0 0 0 0 0 0 0 0 0 0 0 0 0 0 0 0 0 0 0 0 0 0 0 0 0 0 0 0 0 0 0 0 0 0 0 0 0 0 0 0 0 0 0 0 0 0 0 0 0 0 0 0 0 0 0 0 0 0 0 0 0 0 0 0 0 0 0 0 0 0 0 0 0 0 0 0 0 0 
0 0 0 0 0 0 0 0 0 0 0 0 0 0 0 0 0 0 0 0 0 0 0 0 0 0 0 0 0 0 0 0 0 0 0 0 0 0 0 0 0 0 0 0 0 0 0 0 0 0 0 0 0 0 0 0 0 0 0 0 0 0 0 0 0 0 0 0 0 0 0 0 0 0 0 0 0 0 0 0 0 0 0 0 0 0 0 0 0 0 0 0 0 0 0 0 0 0 0 0 0 0 0 0 0 0 0 0 0 0 0 0 0 0 0 0 0 0 0 0 0 0 0 0 0 0 0 0 0 0 0 0 0 0 0 0 0 0 0 0 0 0 0 0 0 0 0 0 0 0 0 0 0 0 0 0 0 0 0 0 0 0 0 0 0 0 0 0 0 0 0 0 0 0 0 0 0 0 0 0 
