P3
# This is a dose file slice at depth 29 of 100
60 60
# now we give the maximum value of the RGB coordinates.
21610
0 0 0 0 0 0 0 0 0 0 0 0 1 0 0 0 0 0 2 0 0 0 0 0 3 0 0 1 0 0 4 0 0 2 0 0 3 0 0 2 0 0 3 0 0 5 0 0 3 0 0 5 0 0 4 0 0 6 0 0 4 0 0 2 0 0 1 0 0 3 0 0 2 0 0 4 0 0 0 0 0 1 0 0 6 0 0 3 0 0 1 0 0 2 0 0 2 0 0 4 0 0 6 0 0 2 0 0 5 0 0 2 0 0 3 0 0 2 0 0 2 0 0 3 0 0 2 0 0 2 0 0 2 0 0 1 0 0 4 0 0 1 0 0 1 0 0 4 0 0 1 0 0 3 0 0 1 0 0 0 0 0 2 0 0 0 0 0 3 0 0 1 0 0 0 0 0 0 0 0 
1 0 0 1 0 0 1 0 0 4 0 0 3 0 0 2 0 0 0 0 0 1 0 0 4 0 0 4 0 0 8 0 0 8 0 0 5 0 0 5 0 0 11 0 0 6 0 0 3 0 0 5 0 0 7 0 0 7 0 0 13 0 0 4 0 0 5 0 0 5 0 0 10 0 0 6 0 0 3 0 0 7 0 0 6 0 0 7 0 0 4 0 0 4 0 0 6 0 0 7 0 0 9 0 0 4 0 0 12 0 0 10 0 0 4 0 0 4 0 0 5 0 0 5 0 0 7 0 0 5 0 0 3 0 0 4 0 0 8 0 0 2 0 0 5 0 0 8 0 0 3 0 0 4 0 0 2 0 0 4 0 0 2 0 0 5 0 0 2 0 0 5 0 0 1 0 0 0 0 0 
1 0 0 3 0 0 0 0 0 4 0 0 3 0 0 4 0 0 0 0 0 0 0 0 0 0 0 6 0 0 8 0 0 3 0 0 3 0 0 7 0 0 7 0 0 8 0 0 6 0 0 11 0 0 8 0 0 8 0 0 13 0 0 4 0 0 10 0 0 4 0 0 5 0 0 10 0 0 5 0 0 7 0 0 4 0 0 5 0 0 12 0 0 6 0 0 9 0 0 7 0 0 13 0 0 7 0 0 9 0 0 7 0 0 3 0 0 6 0 0 10 0 0 7 0 0 8 0 0 2 0 0 6 0 0 6 0 0 7 0 0 5 0 0 3 0 0 3 0 0 5 0 0 2 0 0 5 0 0 4 0 0 2 0 0 2 0 0 2 0 0 1 0 0 0 0 0 1 0 0 
0 0 0 2 0 0 0 0 0 3 0 0 2 0 0 4 0 0 6 0 0 0 0 0 2 0 0 3 0 0 9 0 0 7 0 0 4 0 0 5 0 0 8 0 0 9 0 0 7 0 0 14 0 0 12 0 0 12 0 0 13 0 0 7 0 0 11 0 0 5 0 0 8 0 0 8 0 0 7 0 0 5 0 0 6 0 0 10 0 0 7 0 0 9 0 0 5 0 0 4 0 0 13 0 0 6 0 0 8 0 0 8 0 0 9 0 0 6 0 0 11 0 0 12 0 0 8 0 0 4 0 0 6 0 0 9 0 0 8 0 0 8 0 0 2 0 0 4 0 0 7 0 0 5 0 0 6 0 0 3 0 0 3 0 0 0 0 0 3 0 0 2 0 0 0 0 0 1 0 0 
2 0 0 2 0 0 4 0 0 2 0 0 4 0 0 4 0 0 5 0 0 2 0 0 5 0 0 6 0 0 7 0 0 12 0 0 9 0 0 6 0 0 10 0 0 9 0 0 9 0 0 12 0 0 16 0 0 13 0 0 9 0 0 10 0 0 9 0 0 10 0 0 7 0 0 11 0 0 4 0 0 8 0 0 11 0 0 18 0 0 9 0 0 8 0 0 10 0 0 8 0 0 9 0 0 9 0 0 5 0 0 11 0 0 12 0 0 9 0 0 12 0 0 13 0 0 9 0 0 11 0 0 6 0 0 11 0 0 12 0 0 9 0 0 2 0 0 6 0 0 9 0 0 8 0 0 4 0 0 6 0 0 3 0 0 4 0 0 4 0 0 2 0 0 1 0 0 2 0 0 
0 0 0 1 0 0 1 0 0 4 0 0 5 0 0 11 0 0 7 0 0 8 0 0 2 0 0 3 0 0 7 0 0 12 0 0 8 0 0 8 0 0 9 0 0 13 0 0 11 0 0 12 0 0 16 0 0 12 0 0 12 0 0 12 0 0 11 0 0 9 0 0 12 0 0 10 0 0 5 0 0 10 0 0 17 0 0 13 0 0 12 0 0 10 0 0 11 0 0 13 0 0 10 0 0 14 0 0 12 0 0 10 0 0 17 0 0 12 0 0 6 0 0 12 0 0 10 0 0 6 0 0 7 0 0 11 0 0 8 0 0 5 0 0 4 0 0 9 0 0 5 0 0 5 0 0 6 0 0 6 0 0 2 0 0 10 0 0 5 0 0 3 0 0 0 0 0 4 0 0 
1 0 0 0 0 0 3 0 0 5 0 0 5 0 0 9 0 0 7 0 0 9 0 0 5 0 0 6 0 0 5 0 0 7 0 0 11 0 0 13 0 0 11 0 0 9 0 0 12 0 0 12 0 0 15 0 0 25 0 0 9 0 0 15 0 0 16 0 0 9 0 0 12 0 0 7 0 0 7 0 0 9 0 0 16 0 0 13 0 0 14 0 0 12 0 0 12 0 0 14 0 0 14 0 0 12 0 0 18 0 0 12 0 0 10 0 0 9 0 0 9 0 0 18 0 0 11 0 0 13 0 0 13 0 0 8 0 0 8 0 0 6 0 0 7 0 0 11 0 0 7 0 0 7 0 0 6 0 0 5 0 0 5 0 0 2 0 0 3 0 0 1 0 0 6 0 0 3 0 0 
0 0 0 3 0 0 1 0 0 4 0 0 6 0 0 6 0 0 7 0 0 8 0 0 7 0 0 17 0 0 7 0 0 9 0 0 8 0 0 8 0 0 17 0 0 21 0 0 11 0 0 14 0 0 14 0 0 21 0 0 18 0 0 14 0 0 18 0 0 14 0 0 17 0 0 10 0 0 10 0 0 15 0 0 14 0 0 20 0 0 13 0 0 13 0 0 17 0 0 16 0 0 19 0 0 19 0 0 24 0 0 12 0 0 16 0 0 10 0 0 12 0 0 16 0 0 10 0 0 12 0 0 15 0 0 13 0 0 11 0 0 12 0 0 9 0 0 7 0 0 7 0 0 7 0 0 7 0 0 6 0 0 2 0 0 3 0 0 1 0 0 1 0 0 2 0 0 2 0 0 
3 0 0 7 0 0 5 0 0 2 0 0 6 0 0 8 0 0 2 0 0 14 0 0 9 0 0 6 0 0 12 0 0 9 0 0 9 0 0 7 0 0 24 0 0 29 0 0 20 0 0 28 0 0 28 0 0 24 0 0 22 0 0 18 0 0 15 0 0 22 0 0 15 0 0 21 0 0 23 0 0 26 0 0 19 0 0 26 0 0 29 0 0 16 0 0 15 0 0 14 0 0 16 0 0 18 0 0 18 0 0 21 0 0 16 0 0 20 0 0 21 0 0 22 0 0 18 0 0 18 0 0 19 0 0 11 0 0 17 0 0 16 0 0 6 0 0 8 0 0 6 0 0 10 0 0 10 0 0 7 0 0 5 0 0 2 0 0 4 0 0 4 0 0 8 0 0 11 0 0 
3 0 0 4 0 0 7 0 0 7 0 0 8 0 0 9 0 0 5 0 0 6 0 0 13 0 0 12 0 0 47 0 0 65 0 0 86 0 0 75 0 0 75 0 0 78 0 0 88 0 0 84 0 0 92 0 0 78 0 0 76 0 0 66 0 0 82 0 0 75 0 0 84 0 0 79 0 0 83 0 0 87 0 0 94 0 0 74 0 0 88 0 0 84 0 0 81 0 0 71 0 0 75 0 0 87 0 0 79 0 0 64 0 0 85 0 0 79 0 0 101 0 0 82 0 0 73 0 0 89 0 0 85 0 0 77 0 0 79 0 0 76 0 0 78 0 0 76 0 0 37 0 0 11 0 0 17 0 0 6 0 0 8 0 0 5 0 0 4 0 0 4 0 0 7 0 0 10 0 0 
1 0 0 6 0 0 5 0 0 5 0 0 3 0 0 10 0 0 8 0 0 10 0 0 10 0 0 47 0 0 2844 0 0 5698 0 0 5590 0 0 5510 0 0 5495 0 0 5456 0 0 5554 0 0 5615 0 0 5658 0 0 5552 0 0 5561 0 0 5545 0 0 5525 0 0 5666 0 0 5518 0 0 5576 0 0 5633 0 0 5645 0 0 5651 0 0 5624 0 0 5619 0 0 5656 0 0 5573 0 0 5710 0 0 5656 0 0 5554 0 0 5462 0 0 5544 0 0 5533 0 0 5418 0 0 5516 0 0 5626 0 0 5491 0 0 5495 0 0 5629 0 0 5411 0 0 5695 0 0 5565 0 0 5543 0 0 5440 0 0 2830 0 0 37 0 0 9 0 0 4 0 0 7 0 0 5 0 0 3 0 0 2 0 0 4 0 0 5 0 0 
3 0 0 5 0 0 5 0 0 5 0 0 4 0 0 3 0 0 11 0 0 11 0 0 13 0 0 69 0 0 5528 0 0 11170 0 0 11208 0 0 11102 0 0 11198 0 0 10991 0 0 11212 0 0 11082 0 0 11013 0 0 11123 0 0 11072 0 0 11180 0 0 11119 0 0 11080 0 0 11048 0 0 11160 0 0 11130 0 0 11042 0 0 11026 0 0 11185 0 0 11161 0 0 11154 0 0 11233 0 0 11031 0 0 10996 0 0 11111 0 0 11055 0 0 10972 0 0 11193 0 0 11120 0 0 11047 0 0 11047 0 0 11008 0 0 11138 0 0 11189 0 0 11190 0 0 11257 0 0 11092 0 0 11062 0 0 10923 0 0 5502 0 0 73 0 0 12 0 0 9 0 0 9 0 0 8 0 0 5 0 0 6 0 0 4 0 0 4 0 0 
2 0 0 3 0 0 5 0 0 6 0 0 4 0 0 2 0 0 8 0 0 14 0 0 21 0 0 72 0 0 5621 0 0 11032 0 0 11216 0 0 11277 0 0 11074 0 0 11063 0 0 11022 0 0 11046 0 0 11044 0 0 10956 0 0 11117 0 0 11303 0 0 11242 0 0 11217 0 0 11101 0 0 11140 0 0 11136 0 0 11034 0 0 11171 0 0 11077 0 0 11181 0 0 11029 0 0 11107 0 0 10936 0 0 11151 0 0 11121 0 0 11077 0 0 11079 0 0 11171 0 0 11058 0 0 11136 0 0 11141 0 0 11058 0 0 11105 0 0 11063 0 0 11184 0 0 11390 0 0 11070 0 0 11085 0 0 11011 0 0 5624 0 0 73 0 0 13 0 0 11 0 0 7 0 0 5 0 0 6 0 0 5 0 0 1 0 0 5 0 0 
2 0 0 5 0 0 3 0 0 2 0 0 9 0 0 4 0 0 8 0 0 12 0 0 20 0 0 81 0 0 5562 0 0 11115 0 0 11135 0 0 11123 0 0 11112 0 0 11233 0 0 11116 0 0 11173 0 0 11106 0 0 11167 0 0 11274 0 0 11123 0 0 11257 0 0 11093 0 0 11040 0 0 11158 0 0 10953 0 0 11122 0 0 11188 0 0 11313 0 0 11372 0 0 11311 0 0 11259 0 0 11193 0 0 11217 0 0 11115 0 0 10996 0 0 11067 0 0 11114 0 0 11009 0 0 11205 0 0 11039 0 0 11270 0 0 10966 0 0 10953 0 0 11047 0 0 11347 0 0 10995 0 0 11319 0 0 11209 0 0 5517 0 0 60 0 0 9 0 0 10 0 0 14 0 0 8 0 0 2 0 0 0 0 0 1 0 0 2 0 0 
1 0 0 7 0 0 7 0 0 8 0 0 9 0 0 10 0 0 13 0 0 15 0 0 19 0 0 87 0 0 5506 0 0 11054 0 0 11131 0 0 11004 0 0 11207 0 0 11142 0 0 10960 0 0 11094 0 0 11179 0 0 11099 0 0 10997 0 0 11099 0 0 11187 0 0 11249 0 0 11196 0 0 11371 0 0 11254 0 0 11087 0 0 11165 0 0 11252 0 0 11049 0 0 11027 0 0 11303 0 0 11031 0 0 11161 0 0 11320 0 0 11399 0 0 11213 0 0 11136 0 0 11024 0 0 11302 0 0 11175 0 0 11174 0 0 11024 0 0 11123 0 0 11101 0 0 11081 0 0 11160 0 0 11109 0 0 11106 0 0 5531 0 0 67 0 0 10 0 0 12 0 0 5 0 0 5 0 0 4 0 0 6 0 0 5 0 0 7 0 0 
0 0 0 1 0 0 6 0 0 10 0 0 4 0 0 12 0 0 12 0 0 17 0 0 16 0 0 101 0 0 5675 0 0 11076 0 0 10979 0 0 11110 0 0 11109 0 0 11111 0 0 11103 0 0 11271 0 0 11100 0 0 11108 0 0 11099 0 0 11229 0 0 11221 0 0 10950 0 0 11364 0 0 11040 0 0 10991 0 0 11160 0 0 11132 0 0 11170 0 0 11224 0 0 11243 0 0 11233 0 0 11108 0 0 10996 0 0 11297 0 0 11183 0 0 11260 0 0 11090 0 0 11021 0 0 11143 0 0 11139 0 0 11273 0 0 11207 0 0 11123 0 0 11170 0 0 11113 0 0 11210 0 0 11162 0 0 11070 0 0 5465 0 0 79 0 0 14 0 0 10 0 0 8 0 0 6 0 0 6 0 0 8 0 0 4 0 0 5 0 0 
5 0 0 7 0 0 4 0 0 8 0 0 9 0 0 16 0 0 14 0 0 14 0 0 20 0 0 75 0 0 5546 0 0 11306 0 0 11134 0 0 11113 0 0 11084 0 0 11127 0 0 11196 0 0 11043 0 0 11076 0 0 11332 0 0 11271 0 0 11244 0 0 11177 0 0 11211 0 0 11195 0 0 11132 0 0 11277 0 0 11052 0 0 11304 0 0 11208 0 0 11102 0 0 11233 0 0 11181 0 0 11145 0 0 11290 0 0 11176 0 0 11127 0 0 11269 0 0 11186 0 0 11097 0 0 10903 0 0 11135 0 0 11337 0 0 10953 0 0 11108 0 0 11331 0 0 11082 0 0 11189 0 0 11173 0 0 10908 0 0 5538 0 0 80 0 0 13 0 0 8 0 0 11 0 0 10 0 0 5 0 0 7 0 0 5 0 0 5 0 0 
3 0 0 9 0 0 8 0 0 6 0 0 10 0 0 12 0 0 13 0 0 14 0 0 13 0 0 71 0 0 5524 0 0 11084 0 0 11227 0 0 11280 0 0 11092 0 0 11198 0 0 11235 0 0 11149 0 0 11272 0 0 10981 0 0 11284 0 0 11092 0 0 11202 0 0 11295 0 0 11163 0 0 11158 0 0 11111 0 0 11227 0 0 11094 0 0 11028 0 0 11024 0 0 11261 0 0 11135 0 0 11067 0 0 11100 0 0 11041 0 0 11184 0 0 11182 0 0 11189 0 0 11183 0 0 11167 0 0 10969 0 0 11027 0 0 11142 0 0 11188 0 0 11162 0 0 11133 0 0 11121 0 0 11227 0 0 10966 0 0 5594 0 0 81 0 0 12 0 0 12 0 0 12 0 0 8 0 0 4 0 0 4 0 0 6 0 0 7 0 0 
2 0 0 6 0 0 4 0 0 7 0 0 7 0 0 9 0 0 10 0 0 9 0 0 24 0 0 80 0 0 5606 0 0 10976 0 0 11185 0 0 11027 0 0 11238 0 0 11146 0 0 11269 0 0 10943 0 0 11141 0 0 11049 0 0 11220 0 0 11145 0 0 11154 0 0 11128 0 0 11235 0 0 11051 0 0 11075 0 0 11186 0 0 11124 0 0 11361 0 0 11124 0 0 11093 0 0 11228 0 0 11249 0 0 10989 0 0 11156 0 0 11205 0 0 11162 0 0 11100 0 0 11095 0 0 11147 0 0 11128 0 0 11180 0 0 11025 0 0 11091 0 0 11238 0 0 11162 0 0 11108 0 0 11151 0 0 10929 0 0 5617 0 0 75 0 0 21 0 0 10 0 0 14 0 0 8 0 0 5 0 0 5 0 0 7 0 0 7 0 0 
4 0 0 6 0 0 7 0 0 4 0 0 4 0 0 7 0 0 11 0 0 15 0 0 13 0 0 73 0 0 5438 0 0 11158 0 0 11118 0 0 11126 0 0 11106 0 0 11146 0 0 11043 0 0 11122 0 0 11286 0 0 11134 0 0 11216 0 0 11093 0 0 11131 0 0 11075 0 0 11236 0 0 11305 0 0 11223 0 0 11176 0 0 11108 0 0 11157 0 0 11271 0 0 11078 0 0 10974 0 0 11007 0 0 11161 0 0 11094 0 0 11159 0 0 11174 0 0 11038 0 0 10977 0 0 10947 0 0 11244 0 0 11230 0 0 11080 0 0 11217 0 0 10932 0 0 11239 0 0 11150 0 0 11106 0 0 11203 0 0 5591 0 0 78 0 0 15 0 0 17 0 0 13 0 0 6 0 0 10 0 0 6 0 0 10 0 0 12 0 0 
1 0 0 4 0 0 9 0 0 7 0 0 9 0 0 14 0 0 19 0 0 18 0 0 16 0 0 85 0 0 5554 0 0 11144 0 0 11342 0 0 11188 0 0 11160 0 0 11306 0 0 11144 0 0 11244 0 0 11112 0 0 11112 0 0 11072 0 0 11216 0 0 11071 0 0 11122 0 0 11014 0 0 11178 0 0 10987 0 0 11278 0 0 11292 0 0 11021 0 0 11080 0 0 11127 0 0 11291 0 0 11279 0 0 11333 0 0 11121 0 0 11062 0 0 11163 0 0 10994 0 0 11050 0 0 11071 0 0 11128 0 0 11144 0 0 11043 0 0 11199 0 0 11234 0 0 11087 0 0 11243 0 0 11158 0 0 10995 0 0 5475 0 0 96 0 0 17 0 0 19 0 0 12 0 0 12 0 0 5 0 0 10 0 0 9 0 0 4 0 0 
3 0 0 7 0 0 6 0 0 10 0 0 14 0 0 10 0 0 14 0 0 14 0 0 18 0 0 96 0 0 5560 0 0 10895 0 0 11152 0 0 11077 0 0 11165 0 0 11155 0 0 11053 0 0 11170 0 0 11234 0 0 10994 0 0 10943 0 0 11237 0 0 11093 0 0 11145 0 0 11083 0 0 11120 0 0 11096 0 0 11042 0 0 11266 0 0 11004 0 0 11076 0 0 11211 0 0 11387 0 0 11140 0 0 11174 0 0 11156 0 0 11466 0 0 11114 0 0 11105 0 0 11263 0 0 11009 0 0 11070 0 0 11187 0 0 11126 0 0 11208 0 0 11213 0 0 11106 0 0 11166 0 0 11151 0 0 10952 0 0 5584 0 0 74 0 0 21 0 0 22 0 0 16 0 0 11 0 0 12 0 0 10 0 0 7 0 0 2 0 0 
2 0 0 10 0 0 13 0 0 10 0 0 13 0 0 12 0 0 13 0 0 17 0 0 16 0 0 78 0 0 5546 0 0 11063 0 0 11249 0 0 11051 0 0 11099 0 0 11056 0 0 11192 0 0 11131 0 0 11256 0 0 11197 0 0 11056 0 0 10995 0 0 11096 0 0 11052 0 0 11173 0 0 11239 0 0 11182 0 0 11215 0 0 11197 0 0 11363 0 0 11467 0 0 11168 0 0 11096 0 0 11062 0 0 11120 0 0 11014 0 0 11212 0 0 11095 0 0 11025 0 0 10959 0 0 11098 0 0 11193 0 0 11084 0 0 11127 0 0 11104 0 0 11227 0 0 11201 0 0 11143 0 0 11251 0 0 10963 0 0 5489 0 0 79 0 0 14 0 0 15 0 0 11 0 0 11 0 0 18 0 0 13 0 0 6 0 0 5 0 0 
3 0 0 4 0 0 5 0 0 11 0 0 14 0 0 7 0 0 5 0 0 14 0 0 19 0 0 73 0 0 5535 0 0 11106 0 0 11008 0 0 11137 0 0 11131 0 0 11189 0 0 11089 0 0 11120 0 0 11218 0 0 11082 0 0 11067 0 0 11186 0 0 11313 0 0 11113 0 0 11276 0 0 11182 0 0 11132 0 0 11158 0 0 11221 0 0 11195 0 0 11130 0 0 11225 0 0 11345 0 0 11080 0 0 10938 0 0 11086 0 0 10989 0 0 11135 0 0 10941 0 0 11056 0 0 11191 0 0 11180 0 0 11209 0 0 11039 0 0 11185 0 0 11077 0 0 11075 0 0 11108 0 0 11132 0 0 11205 0 0 5552 0 0 86 0 0 23 0 0 15 0 0 10 0 0 10 0 0 11 0 0 5 0 0 2 0 0 3 0 0 
7 0 0 9 0 0 11 0 0 4 0 0 7 0 0 15 0 0 14 0 0 16 0 0 17 0 0 78 0 0 5600 0 0 10785 0 0 11009 0 0 11199 0 0 11026 0 0 11220 0 0 11023 0 0 11210 0 0 11162 0 0 11122 0 0 11149 0 0 11228 0 0 11015 0 0 11035 0 0 11239 0 0 11263 0 0 11104 0 0 11295 0 0 11131 0 0 11183 0 0 11298 0 0 11143 0 0 11124 0 0 11133 0 0 11102 0 0 11080 0 0 11342 0 0 11097 0 0 11124 0 0 11240 0 0 11179 0 0 11173 0 0 11296 0 0 11206 0 0 11140 0 0 11219 0 0 11039 0 0 11174 0 0 11125 0 0 10873 0 0 5640 0 0 80 0 0 21 0 0 13 0 0 9 0 0 9 0 0 6 0 0 6 0 0 6 0 0 7 0 0 
2 0 0 13 0 0 12 0 0 14 0 0 7 0 0 12 0 0 6 0 0 12 0 0 9 0 0 77 0 0 5528 0 0 10934 0 0 10962 0 0 11176 0 0 11215 0 0 11164 0 0 11046 0 0 11010 0 0 11156 0 0 11000 0 0 11005 0 0 11190 0 0 11204 0 0 11156 0 0 11159 0 0 11245 0 0 11125 0 0 11217 0 0 11158 0 0 10944 0 0 11228 0 0 11274 0 0 11117 0 0 11287 0 0 11157 0 0 11150 0 0 10992 0 0 11227 0 0 11119 0 0 11182 0 0 11301 0 0 11243 0 0 11209 0 0 11136 0 0 11339 0 0 11057 0 0 10922 0 0 10963 0 0 11205 0 0 10868 0 0 5583 0 0 90 0 0 25 0 0 10 0 0 6 0 0 14 0 0 12 0 0 5 0 0 9 0 0 8 0 0 
3 0 0 3 0 0 8 0 0 11 0 0 12 0 0 8 0 0 10 0 0 13 0 0 18 0 0 91 0 0 5589 0 0 11112 0 0 10964 0 0 11132 0 0 11048 0 0 11143 0 0 11270 0 0 11186 0 0 11210 0 0 11274 0 0 11332 0 0 11403 0 0 11138 0 0 11163 0 0 11142 0 0 11106 0 0 11034 0 0 11104 0 0 11008 0 0 11164 0 0 11230 0 0 11230 0 0 11193 0 0 11255 0 0 11102 0 0 11044 0 0 10960 0 0 11228 0 0 10913 0 0 11305 0 0 11095 0 0 11332 0 0 11137 0 0 11137 0 0 11291 0 0 11210 0 0 11163 0 0 11185 0 0 11192 0 0 11257 0 0 5624 0 0 82 0 0 22 0 0 20 0 0 19 0 0 15 0 0 11 0 0 9 0 0 12 0 0 12 0 0 
2 0 0 2 0 0 2 0 0 7 0 0 5 0 0 8 0 0 9 0 0 12 0 0 20 0 0 76 0 0 5528 0 0 11264 0 0 11253 0 0 11241 0 0 11109 0 0 11125 0 0 11139 0 0 11174 0 0 11228 0 0 11180 0 0 11242 0 0 11160 0 0 10988 0 0 11246 0 0 11261 0 0 11138 0 0 11284 0 0 11032 0 0 11243 0 0 11219 0 0 11030 0 0 11212 0 0 11139 0 0 11187 0 0 11282 0 0 11133 0 0 11005 0 0 11133 0 0 11127 0 0 11051 0 0 11109 0 0 11231 0 0 11152 0 0 11368 0 0 11093 0 0 11035 0 0 11120 0 0 11094 0 0 11176 0 0 10992 0 0 5642 0 0 83 0 0 23 0 0 15 0 0 18 0 0 12 0 0 12 0 0 12 0 0 10 0 0 9 0 0 
4 0 0 9 0 0 8 0 0 4 0 0 6 0 0 9 0 0 17 0 0 14 0 0 17 0 0 90 0 0 5670 0 0 11107 0 0 11167 0 0 11138 0 0 10974 0 0 11075 0 0 11082 0 0 11097 0 0 11197 0 0 11300 0 0 11021 0 0 11139 0 0 10972 0 0 11292 0 0 11226 0 0 11088 0 0 11180 0 0 11256 0 0 11148 0 0 11090 0 0 11385 0 0 11209 0 0 11209 0 0 11165 0 0 11067 0 0 11182 0 0 11188 0 0 11048 0 0 11097 0 0 11218 0 0 11070 0 0 11066 0 0 11339 0 0 11119 0 0 11250 0 0 11270 0 0 11142 0 0 11315 0 0 11245 0 0 11209 0 0 5600 0 0 94 0 0 22 0 0 18 0 0 11 0 0 21 0 0 14 0 0 11 0 0 10 0 0 5 0 0 
2 0 0 3 0 0 10 0 0 9 0 0 9 0 0 7 0 0 4 0 0 15 0 0 17 0 0 82 0 0 5613 0 0 11087 0 0 11399 0 0 11130 0 0 11169 0 0 11154 0 0 11201 0 0 11267 0 0 11221 0 0 11148 0 0 11134 0 0 11231 0 0 11247 0 0 11236 0 0 11263 0 0 11349 0 0 11298 0 0 11124 0 0 11140 0 0 11217 0 0 11030 0 0 11012 0 0 11244 0 0 11160 0 0 11127 0 0 11096 0 0 11119 0 0 11142 0 0 11251 0 0 11415 0 0 11110 0 0 11167 0 0 11040 0 0 11225 0 0 11289 0 0 11077 0 0 11280 0 0 11323 0 0 10978 0 0 11022 0 0 5517 0 0 83 0 0 19 0 0 12 0 0 14 0 0 12 0 0 6 0 0 4 0 0 4 0 0 2 0 0 
3 0 0 6 0 0 4 0 0 0 0 0 3 0 0 10 0 0 8 0 0 16 0 0 18 0 0 83 0 0 5589 0 0 11100 0 0 11125 0 0 11263 0 0 11156 0 0 10952 0 0 11159 0 0 10965 0 0 11156 0 0 11185 0 0 11086 0 0 11183 0 0 10958 0 0 11209 0 0 11272 0 0 11264 0 0 11177 0 0 11120 0 0 11345 0 0 11082 0 0 11122 0 0 11141 0 0 11076 0 0 11182 0 0 11327 0 0 11115 0 0 11240 0 0 11092 0 0 11121 0 0 11143 0 0 11142 0 0 11225 0 0 11076 0 0 11183 0 0 11132 0 0 11067 0 0 10983 0 0 11275 0 0 11197 0 0 11104 0 0 5544 0 0 82 0 0 19 0 0 12 0 0 12 0 0 8 0 0 5 0 0 4 0 0 8 0 0 6 0 0 
1 0 0 8 0 0 6 0 0 7 0 0 11 0 0 12 0 0 15 0 0 18 0 0 21 0 0 87 0 0 5561 0 0 11020 0 0 10988 0 0 11155 0 0 11183 0 0 11336 0 0 11193 0 0 11289 0 0 10961 0 0 11084 0 0 11229 0 0 11102 0 0 11279 0 0 11142 0 0 11170 0 0 11141 0 0 11077 0 0 11236 0 0 10918 0 0 11203 0 0 10962 0 0 11150 0 0 11182 0 0 11288 0 0 11165 0 0 11142 0 0 11139 0 0 11180 0 0 11181 0 0 11257 0 0 11259 0 0 10998 0 0 11212 0 0 11158 0 0 11020 0 0 11245 0 0 11092 0 0 11090 0 0 11025 0 0 11092 0 0 5534 0 0 86 0 0 18 0 0 22 0 0 16 0 0 5 0 0 4 0 0 7 0 0 7 0 0 5 0 0 
5 0 0 7 0 0 10 0 0 11 0 0 13 0 0 12 0 0 10 0 0 19 0 0 16 0 0 74 0 0 5685 0 0 11022 0 0 11073 0 0 11152 0 0 11196 0 0 11300 0 0 11079 0 0 11197 0 0 11166 0 0 11204 0 0 11080 0 0 11178 0 0 11099 0 0 11138 0 0 11220 0 0 11236 0 0 11071 0 0 11110 0 0 11215 0 0 11210 0 0 11159 0 0 11153 0 0 11220 0 0 11203 0 0 11155 0 0 11215 0 0 11143 0 0 11230 0 0 11135 0 0 11136 0 0 10971 0 0 11062 0 0 11083 0 0 11250 0 0 11161 0 0 11027 0 0 11148 0 0 11149 0 0 11321 0 0 11099 0 0 5525 0 0 82 0 0 21 0 0 20 0 0 13 0 0 11 0 0 6 0 0 2 0 0 8 0 0 4 0 0 
7 0 0 12 0 0 9 0 0 12 0 0 12 0 0 14 0 0 11 0 0 14 0 0 24 0 0 88 0 0 5585 0 0 11085 0 0 11140 0 0 11316 0 0 11144 0 0 11131 0 0 11097 0 0 11241 0 0 11208 0 0 11034 0 0 11131 0 0 11289 0 0 11128 0 0 11188 0 0 11099 0 0 11091 0 0 11173 0 0 11294 0 0 11147 0 0 11263 0 0 11161 0 0 11045 0 0 11221 0 0 11167 0 0 11138 0 0 11194 0 0 11065 0 0 11004 0 0 11223 0 0 11271 0 0 10970 0 0 11158 0 0 11112 0 0 11132 0 0 11214 0 0 11284 0 0 11176 0 0 11002 0 0 11260 0 0 11117 0 0 5621 0 0 82 0 0 24 0 0 21 0 0 13 0 0 7 0 0 11 0 0 14 0 0 12 0 0 7 0 0 
2 0 0 7 0 0 8 0 0 11 0 0 9 0 0 16 0 0 10 0 0 13 0 0 21 0 0 85 0 0 5641 0 0 11054 0 0 11321 0 0 11224 0 0 10896 0 0 11120 0 0 11116 0 0 11216 0 0 11289 0 0 11111 0 0 11179 0 0 11112 0 0 11090 0 0 11105 0 0 11272 0 0 11186 0 0 11136 0 0 10967 0 0 11137 0 0 11195 0 0 11100 0 0 11082 0 0 11100 0 0 11078 0 0 11186 0 0 11256 0 0 11233 0 0 11169 0 0 11080 0 0 11184 0 0 11180 0 0 11187 0 0 11263 0 0 11238 0 0 11150 0 0 11195 0 0 11171 0 0 11059 0 0 11232 0 0 11016 0 0 5555 0 0 91 0 0 13 0 0 9 0 0 9 0 0 13 0 0 11 0 0 7 0 0 8 0 0 4 0 0 
1 0 0 5 0 0 7 0 0 8 0 0 8 0 0 10 0 0 11 0 0 13 0 0 18 0 0 94 0 0 5476 0 0 10934 0 0 11016 0 0 11132 0 0 11007 0 0 11162 0 0 11075 0 0 11169 0 0 11224 0 0 11103 0 0 11215 0 0 11097 0 0 11157 0 0 11259 0 0 11121 0 0 10990 0 0 11074 0 0 11096 0 0 11198 0 0 10929 0 0 11115 0 0 11226 0 0 10964 0 0 11180 0 0 11234 0 0 11023 0 0 10971 0 0 11018 0 0 11083 0 0 11285 0 0 11237 0 0 11104 0 0 11197 0 0 11181 0 0 11066 0 0 11230 0 0 11267 0 0 11105 0 0 11115 0 0 11118 0 0 5578 0 0 94 0 0 14 0 0 16 0 0 10 0 0 9 0 0 8 0 0 8 0 0 7 0 0 7 0 0 
1 0 0 4 0 0 6 0 0 7 0 0 10 0 0 9 0 0 14 0 0 18 0 0 22 0 0 89 0 0 5500 0 0 11330 0 0 11234 0 0 11234 0 0 11192 0 0 10981 0 0 11181 0 0 11167 0 0 11266 0 0 11115 0 0 11215 0 0 11193 0 0 11031 0 0 11378 0 0 11036 0 0 11090 0 0 11255 0 0 11407 0 0 11085 0 0 11059 0 0 11158 0 0 11096 0 0 11164 0 0 11366 0 0 11151 0 0 11126 0 0 11209 0 0 11113 0 0 11160 0 0 11013 0 0 11045 0 0 11204 0 0 11171 0 0 11133 0 0 11105 0 0 11132 0 0 10807 0 0 11155 0 0 11331 0 0 11115 0 0 5523 0 0 71 0 0 16 0 0 18 0 0 16 0 0 10 0 0 10 0 0 6 0 0 6 0 0 6 0 0 
3 0 0 9 0 0 10 0 0 9 0 0 11 0 0 16 0 0 12 0 0 15 0 0 21 0 0 73 0 0 5655 0 0 11204 0 0 11240 0 0 11031 0 0 11250 0 0 11136 0 0 11154 0 0 11210 0 0 11139 0 0 11006 0 0 11039 0 0 11350 0 0 11335 0 0 11138 0 0 11341 0 0 11064 0 0 11054 0 0 11218 0 0 11064 0 0 11120 0 0 11204 0 0 11200 0 0 11296 0 0 11118 0 0 11288 0 0 11087 0 0 11039 0 0 11187 0 0 11139 0 0 11159 0 0 11122 0 0 11138 0 0 11148 0 0 11186 0 0 11068 0 0 11102 0 0 11199 0 0 11148 0 0 11129 0 0 11049 0 0 5482 0 0 73 0 0 19 0 0 17 0 0 11 0 0 12 0 0 11 0 0 10 0 0 13 0 0 7 0 0 
3 0 0 6 0 0 5 0 0 6 0 0 8 0 0 10 0 0 11 0 0 19 0 0 24 0 0 78 0 0 5552 0 0 11051 0 0 11081 0 0 11070 0 0 11218 0 0 11305 0 0 11189 0 0 11189 0 0 11143 0 0 11162 0 0 10912 0 0 11255 0 0 11244 0 0 11197 0 0 10943 0 0 11217 0 0 10971 0 0 11070 0 0 11187 0 0 11074 0 0 11198 0 0 11215 0 0 11285 0 0 11241 0 0 11283 0 0 11273 0 0 11094 0 0 11017 0 0 11106 0 0 11336 0 0 11052 0 0 11176 0 0 11251 0 0 11184 0 0 11293 0 0 11268 0 0 11162 0 0 11262 0 0 11151 0 0 10973 0 0 5575 0 0 79 0 0 28 0 0 17 0 0 13 0 0 11 0 0 14 0 0 12 0 0 8 0 0 5 0 0 
0 0 0 3 0 0 3 0 0 5 0 0 3 0 0 6 0 0 6 0 0 11 0 0 17 0 0 93 0 0 5473 0 0 11179 0 0 11255 0 0 11319 0 0 11114 0 0 11037 0 0 11283 0 0 11269 0 0 11114 0 0 10961 0 0 11046 0 0 11222 0 0 11268 0 0 11255 0 0 11210 0 0 11189 0 0 10874 0 0 11292 0 0 11208 0 0 11072 0 0 11091 0 0 11192 0 0 11269 0 0 11112 0 0 11047 0 0 11232 0 0 11138 0 0 11220 0 0 11175 0 0 11130 0 0 11144 0 0 11210 0 0 11187 0 0 11244 0 0 11246 0 0 11204 0 0 11135 0 0 11235 0 0 11298 0 0 11073 0 0 5631 0 0 85 0 0 19 0 0 15 0 0 13 0 0 14 0 0 11 0 0 4 0 0 5 0 0 2 0 0 
3 0 0 2 0 0 2 0 0 4 0 0 9 0 0 9 0 0 13 0 0 20 0 0 22 0 0 83 0 0 5540 0 0 10998 0 0 11104 0 0 11235 0 0 11102 0 0 11284 0 0 11141 0 0 11226 0 0 11106 0 0 11168 0 0 11153 0 0 11032 0 0 11281 0 0 11242 0 0 11145 0 0 11135 0 0 11157 0 0 11091 0 0 11240 0 0 11260 0 0 11141 0 0 11173 0 0 11173 0 0 11027 0 0 11133 0 0 11298 0 0 11125 0 0 11017 0 0 11227 0 0 11231 0 0 11035 0 0 11055 0 0 11160 0 0 11183 0 0 11081 0 0 11206 0 0 11156 0 0 11065 0 0 11293 0 0 11023 0 0 5652 0 0 75 0 0 11 0 0 12 0 0 17 0 0 10 0 0 7 0 0 7 0 0 2 0 0 0 0 0 
1 0 0 4 0 0 8 0 0 8 0 0 6 0 0 7 0 0 10 0 0 18 0 0 21 0 0 95 0 0 5564 0 0 11019 0 0 11097 0 0 11119 0 0 11183 0 0 11225 0 0 11260 0 0 11128 0 0 11124 0 0 11255 0 0 11125 0 0 11076 0 0 11153 0 0 11096 0 0 11196 0 0 11268 0 0 11183 0 0 11244 0 0 11194 0 0 11270 0 0 11196 0 0 11195 0 0 11173 0 0 11081 0 0 11145 0 0 11116 0 0 11165 0 0 11116 0 0 11215 0 0 11142 0 0 11282 0 0 11209 0 0 11167 0 0 11141 0 0 11118 0 0 11064 0 0 11215 0 0 11263 0 0 11190 0 0 10966 0 0 5549 0 0 83 0 0 20 0 0 14 0 0 12 0 0 11 0 0 6 0 0 5 0 0 5 0 0 1 0 0 
2 0 0 11 0 0 8 0 0 10 0 0 9 0 0 11 0 0 13 0 0 12 0 0 24 0 0 81 0 0 5477 0 0 11099 0 0 11122 0 0 11215 0 0 11169 0 0 11085 0 0 11099 0 0 11129 0 0 11198 0 0 11139 0 0 11098 0 0 11047 0 0 11193 0 0 11310 0 0 11092 0 0 11011 0 0 11201 0 0 11014 0 0 11089 0 0 10986 0 0 11205 0 0 11199 0 0 11110 0 0 11051 0 0 11142 0 0 11064 0 0 11143 0 0 11011 0 0 11072 0 0 11264 0 0 11268 0 0 11286 0 0 11186 0 0 11073 0 0 11290 0 0 11178 0 0 11161 0 0 11098 0 0 10984 0 0 11047 0 0 5536 0 0 82 0 0 17 0 0 18 0 0 13 0 0 15 0 0 10 0 0 8 0 0 6 0 0 6 0 0 
5 0 0 4 0 0 4 0 0 5 0 0 3 0 0 3 0 0 5 0 0 11 0 0 15 0 0 82 0 0 5529 0 0 11199 0 0 11043 0 0 11223 0 0 10929 0 0 11039 0 0 11123 0 0 11001 0 0 11162 0 0 11154 0 0 11166 0 0 11137 0 0 11099 0 0 11155 0 0 11173 0 0 11215 0 0 11144 0 0 10997 0 0 11026 0 0 11366 0 0 11104 0 0 11041 0 0 11055 0 0 11208 0 0 11356 0 0 11073 0 0 11240 0 0 11134 0 0 11267 0 0 11182 0 0 11334 0 0 11169 0 0 11199 0 0 11068 0 0 11208 0 0 11233 0 0 11185 0 0 11173 0 0 11289 0 0 10985 0 0 5620 0 0 88 0 0 14 0 0 19 0 0 17 0 0 9 0 0 5 0 0 6 0 0 3 0 0 8 0 0 
1 0 0 3 0 0 4 0 0 7 0 0 8 0 0 8 0 0 13 0 0 13 0 0 14 0 0 84 0 0 5641 0 0 11082 0 0 11031 0 0 11214 0 0 11076 0 0 11085 0 0 11208 0 0 11121 0 0 11297 0 0 11058 0 0 11108 0 0 11257 0 0 11033 0 0 11151 0 0 11089 0 0 11229 0 0 11231 0 0 11144 0 0 11245 0 0 11086 0 0 11023 0 0 11185 0 0 11196 0 0 11099 0 0 11276 0 0 11191 0 0 11019 0 0 11092 0 0 11111 0 0 11212 0 0 11045 0 0 11050 0 0 11095 0 0 11237 0 0 11227 0 0 11272 0 0 11120 0 0 11266 0 0 11051 0 0 11100 0 0 5507 0 0 86 0 0 19 0 0 15 0 0 12 0 0 14 0 0 10 0 0 8 0 0 8 0 0 3 0 0 
0 0 0 4 0 0 9 0 0 7 0 0 5 0 0 3 0 0 11 0 0 15 0 0 15 0 0 76 0 0 5528 0 0 11109 0 0 11110 0 0 11245 0 0 11139 0 0 10936 0 0 11076 0 0 11251 0 0 11058 0 0 11187 0 0 11256 0 0 11276 0 0 11192 0 0 11222 0 0 11246 0 0 11176 0 0 11368 0 0 11047 0 0 11127 0 0 11219 0 0 11203 0 0 11125 0 0 11125 0 0 11215 0 0 11242 0 0 11145 0 0 11207 0 0 11185 0 0 11108 0 0 11088 0 0 11088 0 0 11263 0 0 11074 0 0 10994 0 0 11129 0 0 11191 0 0 11132 0 0 11051 0 0 11166 0 0 11041 0 0 5477 0 0 78 0 0 10 0 0 13 0 0 14 0 0 10 0 0 13 0 0 8 0 0 6 0 0 8 0 0 
3 0 0 12 0 0 8 0 0 4 0 0 8 0 0 5 0 0 9 0 0 10 0 0 19 0 0 71 0 0 5528 0 0 11029 0 0 11211 0 0 11076 0 0 11171 0 0 11295 0 0 11053 0 0 11120 0 0 11147 0 0 11094 0 0 11333 0 0 11216 0 0 11173 0 0 11104 0 0 11198 0 0 11045 0 0 11164 0 0 11047 0 0 11202 0 0 11244 0 0 11103 0 0 11096 0 0 11154 0 0 11253 0 0 11176 0 0 11154 0 0 11149 0 0 11140 0 0 11305 0 0 11203 0 0 11160 0 0 11115 0 0 11094 0 0 11058 0 0 11099 0 0 11204 0 0 11213 0 0 11107 0 0 11055 0 0 11064 0 0 5524 0 0 85 0 0 16 0 0 10 0 0 12 0 0 10 0 0 8 0 0 11 0 0 6 0 0 4 0 0 
2 0 0 8 0 0 6 0 0 7 0 0 7 0 0 14 0 0 6 0 0 10 0 0 12 0 0 79 0 0 5493 0 0 11083 0 0 11079 0 0 11199 0 0 11073 0 0 11154 0 0 11180 0 0 11174 0 0 11120 0 0 10966 0 0 11067 0 0 11135 0 0 11113 0 0 11072 0 0 11305 0 0 11106 0 0 11207 0 0 11291 0 0 11006 0 0 11118 0 0 11122 0 0 11082 0 0 11115 0 0 11022 0 0 11156 0 0 11232 0 0 11266 0 0 10972 0 0 11081 0 0 11023 0 0 11169 0 0 11105 0 0 11141 0 0 11149 0 0 11202 0 0 11132 0 0 11116 0 0 10966 0 0 11184 0 0 11232 0 0 5535 0 0 76 0 0 19 0 0 12 0 0 12 0 0 11 0 0 8 0 0 7 0 0 7 0 0 6 0 0 
3 0 0 6 0 0 7 0 0 8 0 0 7 0 0 11 0 0 10 0 0 12 0 0 13 0 0 78 0 0 5583 0 0 11083 0 0 11169 0 0 10982 0 0 11111 0 0 11405 0 0 11287 0 0 11258 0 0 11299 0 0 11148 0 0 11128 0 0 11072 0 0 11102 0 0 11127 0 0 11099 0 0 10970 0 0 11157 0 0 11255 0 0 11171 0 0 11099 0 0 10965 0 0 10962 0 0 11101 0 0 10984 0 0 11117 0 0 11109 0 0 11136 0 0 11145 0 0 11150 0 0 11042 0 0 11174 0 0 10882 0 0 11052 0 0 11261 0 0 11256 0 0 11164 0 0 11219 0 0 11198 0 0 11173 0 0 11041 0 0 5580 0 0 73 0 0 14 0 0 14 0 0 9 0 0 8 0 0 9 0 0 6 0 0 4 0 0 4 0 0 
1 0 0 3 0 0 3 0 0 7 0 0 6 0 0 11 0 0 13 0 0 12 0 0 12 0 0 76 0 0 5553 0 0 11173 0 0 11027 0 0 11005 0 0 11086 0 0 10958 0 0 11120 0 0 11103 0 0 11174 0 0 11115 0 0 11157 0 0 11145 0 0 10985 0 0 10911 0 0 11077 0 0 11241 0 0 11050 0 0 11029 0 0 11158 0 0 11092 0 0 11164 0 0 10812 0 0 11302 0 0 11178 0 0 11144 0 0 11058 0 0 11035 0 0 11044 0 0 10915 0 0 10996 0 0 11164 0 0 10974 0 0 10990 0 0 11099 0 0 11090 0 0 11090 0 0 11141 0 0 11307 0 0 11145 0 0 10943 0 0 5426 0 0 71 0 0 14 0 0 8 0 0 6 0 0 10 0 0 4 0 0 3 0 0 3 0 0 4 0 0 
1 0 0 4 0 0 7 0 0 7 0 0 7 0 0 5 0 0 9 0 0 6 0 0 11 0 0 44 0 0 2818 0 0 5506 0 0 5588 0 0 5518 0 0 5455 0 0 5671 0 0 5558 0 0 5600 0 0 5624 0 0 5622 0 0 5596 0 0 5572 0 0 5517 0 0 5648 0 0 5696 0 0 5689 0 0 5446 0 0 5622 0 0 5625 0 0 5556 0 0 5464 0 0 5543 0 0 5668 0 0 5580 0 0 5588 0 0 5674 0 0 5643 0 0 5627 0 0 5530 0 0 5478 0 0 5492 0 0 5575 0 0 5630 0 0 5459 0 0 5579 0 0 5618 0 0 5561 0 0 5538 0 0 5695 0 0 5634 0 0 2737 0 0 43 0 0 15 0 0 12 0 0 8 0 0 3 0 0 5 0 0 12 0 0 11 0 0 8 0 0 
4 0 0 8 0 0 10 0 0 5 0 0 5 0 0 4 0 0 6 0 0 11 0 0 10 0 0 17 0 0 47 0 0 70 0 0 77 0 0 85 0 0 76 0 0 71 0 0 70 0 0 86 0 0 71 0 0 73 0 0 89 0 0 100 0 0 75 0 0 86 0 0 85 0 0 63 0 0 62 0 0 80 0 0 83 0 0 77 0 0 73 0 0 79 0 0 83 0 0 84 0 0 78 0 0 86 0 0 87 0 0 85 0 0 85 0 0 85 0 0 87 0 0 113 0 0 75 0 0 83 0 0 83 0 0 71 0 0 70 0 0 81 0 0 74 0 0 65 0 0 43 0 0 13 0 0 6 0 0 18 0 0 7 0 0 8 0 0 3 0 0 5 0 0 11 0 0 3 0 0 
3 0 0 2 0 0 3 0 0 8 0 0 3 0 0 4 0 0 8 0 0 4 0 0 8 0 0 16 0 0 15 0 0 9 0 0 18 0 0 16 0 0 14 0 0 17 0 0 21 0 0 10 0 0 18 0 0 16 0 0 22 0 0 22 0 0 19 0 0 23 0 0 18 0 0 16 0 0 12 0 0 14 0 0 16 0 0 21 0 0 21 0 0 22 0 0 14 0 0 19 0 0 13 0 0 21 0 0 17 0 0 27 0 0 23 0 0 18 0 0 27 0 0 26 0 0 21 0 0 18 0 0 23 0 0 13 0 0 18 0 0 11 0 0 12 0 0 12 0 0 10 0 0 12 0 0 4 0 0 10 0 0 12 0 0 5 0 0 5 0 0 3 0 0 8 0 0 6 0 0 
0 0 0 6 0 0 11 0 0 6 0 0 4 0 0 7 0 0 4 0 0 7 0 0 12 0 0 13 0 0 8 0 0 9 0 0 12 0 0 15 0 0 13 0 0 14 0 0 20 0 0 10 0 0 9 0 0 19 0 0 17 0 0 13 0 0 11 0 0 10 0 0 13 0 0 12 0 0 16 0 0 12 0 0 18 0 0 18 0 0 15 0 0 12 0 0 12 0 0 12 0 0 8 0 0 16 0 0 15 0 0 18 0 0 16 0 0 21 0 0 22 0 0 23 0 0 14 0 0 12 0 0 13 0 0 10 0 0 13 0 0 9 0 0 10 0 0 6 0 0 9 0 0 14 0 0 10 0 0 4 0 0 5 0 0 1 0 0 3 0 0 2 0 0 5 0 0 4 0 0 
2 0 0 10 0 0 5 0 0 2 0 0 4 0 0 6 0 0 9 0 0 9 0 0 10 0 0 6 0 0 6 0 0 7 0 0 8 0 0 11 0 0 11 0 0 12 0 0 13 0 0 5 0 0 6 0 0 15 0 0 10 0 0 7 0 0 10 0 0 19 0 0 9 0 0 13 0 0 17 0 0 14 0 0 16 0 0 17 0 0 12 0 0 10 0 0 7 0 0 14 0 0 11 0 0 16 0 0 6 0 0 9 0 0 8 0 0 15 0 0 12 0 0 17 0 0 14 0 0 13 0 0 9 0 0 12 0 0 10 0 0 11 0 0 8 0 0 10 0 0 6 0 0 4 0 0 9 0 0 10 0 0 5 0 0 4 0 0 1 0 0 3 0 0 4 0 0 7 0 0 
3 0 0 1 0 0 2 0 0 3 0 0 1 0 0 7 0 0 6 0 0 8 0 0 3 0 0 6 0 0 8 0 0 4 0 0 8 0 0 6 0 0 9 0 0 12 0 0 11 0 0 8 0 0 6 0 0 7 0 0 10 0 0 7 0 0 4 0 0 10 0 0 12 0 0 10 0 0 12 0 0 20 0 0 14 0 0 18 0 0 12 0 0 12 0 0 12 0 0 8 0 0 16 0 0 12 0 0 11 0 0 12 0 0 10 0 0 14 0 0 11 0 0 11 0 0 12 0 0 12 0 0 11 0 0 11 0 0 12 0 0 8 0 0 4 0 0 7 0 0 10 0 0 4 0 0 5 0 0 6 0 0 5 0 0 3 0 0 2 0 0 2 0 0 1 0 0 4 0 0 
2 0 0 1 0 0 2 0 0 4 0 0 9 0 0 3 0 0 2 0 0 4 0 0 2 0 0 7 0 0 4 0 0 8 0 0 4 0 0 7 0 0 9 0 0 12 0 0 7 0 0 8 0 0 4 0 0 5 0 0 9 0 0 4 0 0 4 0 0 9 0 0 9 0 0 12 0 0 13 0 0 12 0 0 11 0 0 16 0 0 12 0 0 8 0 0 10 0 0 10 0 0 11 0 0 9 0 0 8 0 0 12 0 0 9 0 0 12 0 0 9 0 0 12 0 0 10 0 0 6 0 0 12 0 0 10 0 0 8 0 0 10 0 0 2 0 0 5 0 0 8 0 0 2 0 0 2 0 0 4 0 0 6 0 0 5 0 0 3 0 0 4 0 0 4 0 0 2 0 0 
0 0 0 2 0 0 3 0 0 3 0 0 3 0 0 2 0 0 2 0 0 3 0 0 4 0 0 5 0 0 10 0 0 9 0 0 2 0 0 4 0 0 4 0 0 9 0 0 5 0 0 7 0 0 5 0 0 8 0 0 3 0 0 1 0 0 6 0 0 6 0 0 9 0 0 11 0 0 10 0 0 9 0 0 7 0 0 17 0 0 12 0 0 8 0 0 9 0 0 12 0 0 10 0 0 9 0 0 9 0 0 12 0 0 5 0 0 8 0 0 6 0 0 9 0 0 12 0 0 8 0 0 10 0 0 11 0 0 4 0 0 4 0 0 3 0 0 7 0 0 7 0 0 6 0 0 2 0 0 7 0 0 5 0 0 4 0 0 6 0 0 5 0 0 3 0 0 2 0 0 
1 0 0 4 0 0 4 0 0 2 0 0 0 0 0 5 0 0 4 0 0 1 0 0 8 0 0 8 0 0 7 0 0 6 0 0 4 0 0 6 0 0 6 0 0 8 0 0 7 0 0 7 0 0 8 0 0 7 0 0 3 0 0 8 0 0 5 0 0 8 0 0 10 0 0 9 0 0 9 0 0 7 0 0 11 0 0 12 0 0 9 0 0 8 0 0 6 0 0 8 0 0 10 0 0 9 0 0 10 0 0 9 0 0 8 0 0 3 0 0 7 0 0 5 0 0 11 0 0 4 0 0 6 0 0 7 0 0 9 0 0 4 0 0 5 0 0 3 0 0 7 0 0 4 0 0 2 0 0 4 0 0 5 0 0 3 0 0 6 0 0 6 0 0 5 0 0 4 0 0 
3 0 0 5 0 0 2 0 0 2 0 0 4 0 0 6 0 0 4 0 0 3 0 0 3 0 0 4 0 0 5 0 0 7 0 0 0 0 0 8 0 0 2 0 0 7 0 0 6 0 0 8 0 0 9 0 0 6 0 0 7 0 0 3 0 0 6 0 0 5 0 0 7 0 0 8 0 0 6 0 0 5 0 0 7 0 0 5 0 0 5 0 0 2 0 0 7 0 0 10 0 0 8 0 0 12 0 0 6 0 0 3 0 0 6 0 0 5 0 0 5 0 0 3 0 0 10 0 0 2 0 0 6 0 0 3 0 0 5 0 0 4 0 0 3 0 0 2 0 0 7 0 0 2 0 0 4 0 0 5 0 0 5 0 0 2 0 0 4 0 0 8 0 0 4 0 0 2 0 0 
