P3
# This is a dose file slice at depth 20 of 100
60 60
# now we give the maximum value of the RGB coordinates.
21610
0 0 0 2 0 0 2 0 0 0 0 0 0 0 0 2 0 0 2 0 0 1 0 0 2 0 0 0 0 0 2 0 0 0 0 0 3 0 0 5 0 0 2 0 0 1 0 0 2 0 0 2 0 0 5 0 0 4 0 0 5 0 0 5 0 0 6 0 0 4 0 0 4 0 0 1 0 0 3 0 0 1 0 0 4 0 0 4 0 0 0 0 0 3 0 0 1 0 0 3 0 0 4 0 0 3 0 0 3 0 0 2 0 0 3 0 0 4 0 0 3 0 0 2 0 0 4 0 0 3 0 0 1 0 0 5 0 0 4 0 0 1 0 0 1 0 0 5 0 0 2 0 0 1 0 0 3 0 0 1 0 0 1 0 0 0 0 0 4 0 0 2 0 0 1 0 0 1 0 0 
1 0 0 1 0 0 6 0 0 6 0 0 1 0 0 4 0 0 4 0 0 6 0 0 1 0 0 7 0 0 7 0 0 3 0 0 6 0 0 8 0 0 7 0 0 5 0 0 8 0 0 10 0 0 12 0 0 7 0 0 8 0 0 11 0 0 6 0 0 11 0 0 12 0 0 5 0 0 6 0 0 7 0 0 7 0 0 13 0 0 1 0 0 5 0 0 5 0 0 6 0 0 11 0 0 8 0 0 12 0 0 5 0 0 9 0 0 10 0 0 8 0 0 9 0 0 14 0 0 9 0 0 10 0 0 8 0 0 5 0 0 7 0 0 6 0 0 10 0 0 7 0 0 2 0 0 5 0 0 4 0 0 3 0 0 9 0 0 6 0 0 0 0 0 2 0 0 5 0 0 
0 0 0 3 0 0 3 0 0 4 0 0 5 0 0 1 0 0 6 0 0 7 0 0 3 0 0 8 0 0 5 0 0 2 0 0 5 0 0 11 0 0 5 0 0 12 0 0 5 0 0 9 0 0 6 0 0 11 0 0 6 0 0 9 0 0 11 0 0 6 0 0 8 0 0 8 0 0 5 0 0 10 0 0 11 0 0 12 0 0 4 0 0 6 0 0 10 0 0 9 0 0 16 0 0 8 0 0 9 0 0 11 0 0 7 0 0 6 0 0 12 0 0 8 0 0 11 0 0 10 0 0 5 0 0 10 0 0 7 0 0 3 0 0 8 0 0 8 0 0 4 0 0 4 0 0 6 0 0 2 0 0 8 0 0 9 0 0 3 0 0 1 0 0 7 0 0 4 0 0 
1 0 0 1 0 0 6 0 0 3 0 0 7 0 0 4 0 0 5 0 0 8 0 0 3 0 0 4 0 0 8 0 0 1 0 0 3 0 0 6 0 0 9 0 0 9 0 0 8 0 0 7 0 0 5 0 0 5 0 0 10 0 0 13 0 0 4 0 0 9 0 0 6 0 0 12 0 0 11 0 0 13 0 0 10 0 0 15 0 0 13 0 0 10 0 0 9 0 0 12 0 0 12 0 0 11 0 0 3 0 0 10 0 0 20 0 0 6 0 0 11 0 0 10 0 0 10 0 0 12 0 0 10 0 0 9 0 0 4 0 0 4 0 0 9 0 0 12 0 0 8 0 0 6 0 0 11 0 0 9 0 0 9 0 0 5 0 0 1 0 0 6 0 0 4 0 0 6 0 0 
0 0 0 2 0 0 4 0 0 5 0 0 7 0 0 8 0 0 6 0 0 7 0 0 5 0 0 4 0 0 4 0 0 7 0 0 2 0 0 6 0 0 7 0 0 9 0 0 10 0 0 11 0 0 8 0 0 8 0 0 10 0 0 14 0 0 9 0 0 8 0 0 14 0 0 5 0 0 8 0 0 12 0 0 18 0 0 15 0 0 18 0 0 10 0 0 12 0 0 11 0 0 13 0 0 9 0 0 10 0 0 10 0 0 11 0 0 12 0 0 12 0 0 15 0 0 5 0 0 17 0 0 11 0 0 7 0 0 5 0 0 6 0 0 7 0 0 17 0 0 9 0 0 8 0 0 9 0 0 2 0 0 3 0 0 4 0 0 9 0 0 6 0 0 7 0 0 1 0 0 
2 0 0 2 0 0 3 0 0 4 0 0 8 0 0 7 0 0 7 0 0 4 0 0 10 0 0 6 0 0 8 0 0 7 0 0 5 0 0 7 0 0 11 0 0 16 0 0 11 0 0 11 0 0 7 0 0 10 0 0 12 0 0 8 0 0 12 0 0 9 0 0 13 0 0 10 0 0 12 0 0 14 0 0 17 0 0 23 0 0 15 0 0 11 0 0 9 0 0 17 0 0 20 0 0 15 0 0 11 0 0 6 0 0 12 0 0 18 0 0 12 0 0 15 0 0 11 0 0 20 0 0 12 0 0 9 0 0 7 0 0 14 0 0 9 0 0 14 0 0 9 0 0 10 0 0 5 0 0 5 0 0 5 0 0 9 0 0 7 0 0 7 0 0 2 0 0 3 0 0 
1 0 0 6 0 0 5 0 0 7 0 0 7 0 0 11 0 0 10 0 0 6 0 0 8 0 0 5 0 0 8 0 0 8 0 0 8 0 0 7 0 0 9 0 0 11 0 0 13 0 0 15 0 0 11 0 0 15 0 0 14 0 0 11 0 0 13 0 0 16 0 0 15 0 0 16 0 0 20 0 0 13 0 0 18 0 0 21 0 0 15 0 0 14 0 0 14 0 0 20 0 0 19 0 0 15 0 0 11 0 0 18 0 0 12 0 0 11 0 0 19 0 0 13 0 0 16 0 0 19 0 0 13 0 0 12 0 0 12 0 0 13 0 0 14 0 0 15 0 0 11 0 0 8 0 0 10 0 0 7 0 0 7 0 0 6 0 0 7 0 0 3 0 0 3 0 0 5 0 0 
3 0 0 7 0 0 6 0 0 8 0 0 11 0 0 8 0 0 12 0 0 9 0 0 9 0 0 12 0 0 10 0 0 8 0 0 10 0 0 16 0 0 16 0 0 11 0 0 13 0 0 21 0 0 13 0 0 22 0 0 15 0 0 20 0 0 18 0 0 27 0 0 29 0 0 17 0 0 21 0 0 20 0 0 20 0 0 20 0 0 26 0 0 24 0 0 24 0 0 22 0 0 13 0 0 18 0 0 20 0 0 16 0 0 17 0 0 18 0 0 19 0 0 17 0 0 25 0 0 20 0 0 13 0 0 12 0 0 18 0 0 12 0 0 17 0 0 12 0 0 10 0 0 11 0 0 8 0 0 8 0 0 6 0 0 8 0 0 3 0 0 4 0 0 4 0 0 2 0 0 
1 0 0 5 0 0 8 0 0 4 0 0 7 0 0 7 0 0 14 0 0 15 0 0 18 0 0 17 0 0 12 0 0 20 0 0 11 0 0 19 0 0 20 0 0 24 0 0 29 0 0 26 0 0 21 0 0 28 0 0 28 0 0 28 0 0 16 0 0 25 0 0 35 0 0 20 0 0 21 0 0 24 0 0 27 0 0 26 0 0 17 0 0 15 0 0 26 0 0 31 0 0 24 0 0 24 0 0 28 0 0 28 0 0 19 0 0 25 0 0 17 0 0 31 0 0 23 0 0 25 0 0 17 0 0 23 0 0 21 0 0 16 0 0 14 0 0 26 0 0 17 0 0 11 0 0 10 0 0 10 0 0 8 0 0 5 0 0 4 0 0 1 0 0 2 0 0 6 0 0 
0 0 0 2 0 0 3 0 0 3 0 0 6 0 0 9 0 0 7 0 0 6 0 0 17 0 0 23 0 0 48 0 0 80 0 0 84 0 0 83 0 0 95 0 0 93 0 0 103 0 0 106 0 0 100 0 0 90 0 0 86 0 0 88 0 0 87 0 0 109 0 0 99 0 0 103 0 0 100 0 0 87 0 0 89 0 0 100 0 0 102 0 0 78 0 0 102 0 0 90 0 0 93 0 0 108 0 0 89 0 0 97 0 0 82 0 0 92 0 0 95 0 0 95 0 0 92 0 0 95 0 0 91 0 0 99 0 0 96 0 0 109 0 0 76 0 0 87 0 0 58 0 0 20 0 0 13 0 0 4 0 0 7 0 0 3 0 0 5 0 0 6 0 0 12 0 0 6 0 0 
3 0 0 5 0 0 6 0 0 8 0 0 3 0 0 11 0 0 9 0 0 9 0 0 13 0 0 52 0 0 3457 0 0 6780 0 0 6855 0 0 6850 0 0 6805 0 0 6960 0 0 6824 0 0 6806 0 0 6911 0 0 6800 0 0 6803 0 0 6846 0 0 6830 0 0 6973 0 0 6891 0 0 6881 0 0 6827 0 0 6796 0 0 6840 0 0 6877 0 0 6813 0 0 6969 0 0 6819 0 0 6910 0 0 6912 0 0 6883 0 0 6832 0 0 6904 0 0 6867 0 0 6931 0 0 6846 0 0 6785 0 0 6784 0 0 6797 0 0 6897 0 0 6920 0 0 6825 0 0 6848 0 0 6893 0 0 6723 0 0 3394 0 0 67 0 0 12 0 0 9 0 0 7 0 0 8 0 0 9 0 0 7 0 0 3 0 0 4 0 0 
1 0 0 2 0 0 2 0 0 7 0 0 9 0 0 11 0 0 14 0 0 13 0 0 14 0 0 90 0 0 6742 0 0 13618 0 0 13686 0 0 13585 0 0 13520 0 0 13581 0 0 13510 0 0 13735 0 0 13514 0 0 13804 0 0 13663 0 0 13787 0 0 13670 0 0 13764 0 0 13764 0 0 13648 0 0 13671 0 0 13546 0 0 13748 0 0 13599 0 0 13671 0 0 13589 0 0 13695 0 0 13763 0 0 13676 0 0 13750 0 0 13641 0 0 13520 0 0 13624 0 0 13653 0 0 13808 0 0 13717 0 0 13647 0 0 13776 0 0 13544 0 0 13606 0 0 13624 0 0 13673 0 0 13565 0 0 13366 0 0 6868 0 0 87 0 0 20 0 0 15 0 0 12 0 0 10 0 0 5 0 0 2 0 0 9 0 0 13 0 0 
3 0 0 8 0 0 7 0 0 5 0 0 14 0 0 15 0 0 12 0 0 20 0 0 24 0 0 87 0 0 6845 0 0 13790 0 0 13759 0 0 13856 0 0 13756 0 0 13906 0 0 13794 0 0 13912 0 0 13794 0 0 13642 0 0 13706 0 0 13908 0 0 13825 0 0 13727 0 0 13667 0 0 13792 0 0 13537 0 0 13749 0 0 13566 0 0 13648 0 0 13586 0 0 13901 0 0 13602 0 0 13792 0 0 13659 0 0 13633 0 0 13716 0 0 13798 0 0 13743 0 0 13533 0 0 13634 0 0 13591 0 0 13734 0 0 13647 0 0 13816 0 0 13741 0 0 13684 0 0 13665 0 0 13702 0 0 13538 0 0 6778 0 0 90 0 0 19 0 0 16 0 0 11 0 0 12 0 0 11 0 0 12 0 0 11 0 0 6 0 0 
2 0 0 6 0 0 6 0 0 10 0 0 6 0 0 10 0 0 10 0 0 12 0 0 26 0 0 88 0 0 6838 0 0 13538 0 0 13802 0 0 13569 0 0 13603 0 0 13584 0 0 13543 0 0 13588 0 0 13665 0 0 13782 0 0 13771 0 0 13808 0 0 13704 0 0 13608 0 0 13621 0 0 13740 0 0 13690 0 0 13659 0 0 13663 0 0 13745 0 0 13807 0 0 13946 0 0 13837 0 0 13841 0 0 14000 0 0 13664 0 0 13732 0 0 13958 0 0 13660 0 0 13613 0 0 13780 0 0 13716 0 0 13656 0 0 13789 0 0 13851 0 0 13635 0 0 13860 0 0 13716 0 0 13675 0 0 13543 0 0 6742 0 0 93 0 0 17 0 0 16 0 0 13 0 0 15 0 0 10 0 0 5 0 0 5 0 0 6 0 0 
4 0 0 3 0 0 7 0 0 6 0 0 8 0 0 8 0 0 14 0 0 9 0 0 24 0 0 106 0 0 6947 0 0 13735 0 0 13652 0 0 13593 0 0 13598 0 0 13631 0 0 13655 0 0 13886 0 0 13564 0 0 13658 0 0 13612 0 0 13739 0 0 13647 0 0 13694 0 0 13665 0 0 13641 0 0 13807 0 0 13780 0 0 13599 0 0 13751 0 0 13661 0 0 13861 0 0 13656 0 0 13787 0 0 13862 0 0 13769 0 0 13739 0 0 13714 0 0 13989 0 0 13651 0 0 13688 0 0 13530 0 0 13499 0 0 13702 0 0 13652 0 0 13731 0 0 13708 0 0 13694 0 0 13762 0 0 13596 0 0 6933 0 0 86 0 0 28 0 0 14 0 0 9 0 0 9 0 0 9 0 0 8 0 0 5 0 0 6 0 0 
3 0 0 6 0 0 6 0 0 7 0 0 2 0 0 10 0 0 9 0 0 12 0 0 22 0 0 97 0 0 6893 0 0 13632 0 0 13523 0 0 13670 0 0 13624 0 0 13673 0 0 13894 0 0 13663 0 0 13614 0 0 13703 0 0 13776 0 0 13420 0 0 13517 0 0 13803 0 0 13853 0 0 13874 0 0 13552 0 0 13760 0 0 13848 0 0 13710 0 0 13706 0 0 13707 0 0 13694 0 0 13628 0 0 13727 0 0 13576 0 0 13726 0 0 13676 0 0 13777 0 0 13585 0 0 13887 0 0 13687 0 0 13729 0 0 13778 0 0 13636 0 0 13537 0 0 13764 0 0 13555 0 0 13771 0 0 13569 0 0 6893 0 0 85 0 0 15 0 0 20 0 0 11 0 0 7 0 0 8 0 0 6 0 0 5 0 0 4 0 0 
2 0 0 5 0 0 7 0 0 8 0 0 13 0 0 20 0 0 14 0 0 16 0 0 15 0 0 92 0 0 6785 0 0 13666 0 0 13862 0 0 13773 0 0 13734 0 0 13681 0 0 13770 0 0 13694 0 0 13776 0 0 13621 0 0 13893 0 0 13859 0 0 13833 0 0 13696 0 0 13677 0 0 13626 0 0 13756 0 0 13675 0 0 13699 0 0 13642 0 0 13720 0 0 13790 0 0 13800 0 0 13804 0 0 13914 0 0 13709 0 0 13594 0 0 13640 0 0 13804 0 0 13636 0 0 13584 0 0 13776 0 0 13843 0 0 13749 0 0 13708 0 0 13698 0 0 13718 0 0 13773 0 0 13688 0 0 13826 0 0 6949 0 0 97 0 0 22 0 0 17 0 0 16 0 0 16 0 0 9 0 0 5 0 0 7 0 0 2 0 0 
4 0 0 5 0 0 6 0 0 14 0 0 8 0 0 13 0 0 14 0 0 19 0 0 16 0 0 87 0 0 6890 0 0 13812 0 0 13680 0 0 13567 0 0 13506 0 0 13671 0 0 13753 0 0 13587 0 0 13625 0 0 13894 0 0 13631 0 0 13787 0 0 13720 0 0 13697 0 0 13759 0 0 13587 0 0 13618 0 0 13873 0 0 13818 0 0 13874 0 0 13697 0 0 13808 0 0 13537 0 0 13681 0 0 13738 0 0 13755 0 0 13820 0 0 13759 0 0 13803 0 0 13876 0 0 13527 0 0 13763 0 0 13608 0 0 13481 0 0 13885 0 0 13644 0 0 13919 0 0 13598 0 0 13626 0 0 13555 0 0 6898 0 0 91 0 0 13 0 0 10 0 0 12 0 0 12 0 0 16 0 0 11 0 0 6 0 0 9 0 0 
2 0 0 9 0 0 7 0 0 9 0 0 12 0 0 17 0 0 16 0 0 17 0 0 29 0 0 91 0 0 6822 0 0 13613 0 0 13666 0 0 13548 0 0 13615 0 0 13802 0 0 13702 0 0 13796 0 0 13921 0 0 13609 0 0 13707 0 0 13729 0 0 13580 0 0 13515 0 0 13730 0 0 13661 0 0 13726 0 0 13577 0 0 13616 0 0 13969 0 0 13673 0 0 13821 0 0 13614 0 0 13746 0 0 13882 0 0 13781 0 0 13776 0 0 13558 0 0 13605 0 0 13713 0 0 13774 0 0 13807 0 0 13782 0 0 13645 0 0 13765 0 0 13834 0 0 13515 0 0 13796 0 0 13722 0 0 13510 0 0 6930 0 0 98 0 0 20 0 0 15 0 0 21 0 0 10 0 0 12 0 0 12 0 0 10 0 0 10 0 0 
5 0 0 13 0 0 10 0 0 6 0 0 12 0 0 8 0 0 17 0 0 24 0 0 25 0 0 100 0 0 6867 0 0 13656 0 0 13562 0 0 13557 0 0 13741 0 0 13679 0 0 13710 0 0 13782 0 0 13670 0 0 13744 0 0 13759 0 0 13845 0 0 13738 0 0 13863 0 0 13785 0 0 13745 0 0 13907 0 0 13724 0 0 13902 0 0 13683 0 0 13725 0 0 13762 0 0 13726 0 0 13694 0 0 13783 0 0 13449 0 0 13933 0 0 13761 0 0 13794 0 0 13807 0 0 13867 0 0 13780 0 0 13593 0 0 13765 0 0 13713 0 0 13800 0 0 13845 0 0 13759 0 0 13762 0 0 13583 0 0 6986 0 0 94 0 0 24 0 0 17 0 0 17 0 0 10 0 0 12 0 0 5 0 0 6 0 0 10 0 0 
4 0 0 6 0 0 10 0 0 10 0 0 9 0 0 8 0 0 14 0 0 16 0 0 24 0 0 102 0 0 6970 0 0 13540 0 0 13808 0 0 13881 0 0 13762 0 0 13641 0 0 13619 0 0 13690 0 0 13916 0 0 13614 0 0 13702 0 0 13659 0 0 13618 0 0 13832 0 0 13723 0 0 13639 0 0 13853 0 0 13911 0 0 13766 0 0 13678 0 0 13767 0 0 13588 0 0 13817 0 0 13539 0 0 13826 0 0 13713 0 0 13872 0 0 13660 0 0 13672 0 0 13712 0 0 13661 0 0 13549 0 0 13767 0 0 13843 0 0 13815 0 0 13918 0 0 13756 0 0 13799 0 0 13635 0 0 13788 0 0 7063 0 0 96 0 0 31 0 0 21 0 0 20 0 0 12 0 0 5 0 0 6 0 0 7 0 0 7 0 0 
3 0 0 5 0 0 7 0 0 10 0 0 9 0 0 11 0 0 8 0 0 14 0 0 28 0 0 95 0 0 6762 0 0 13564 0 0 13844 0 0 13710 0 0 13557 0 0 13800 0 0 13516 0 0 13675 0 0 13762 0 0 13782 0 0 13680 0 0 13765 0 0 13660 0 0 13762 0 0 13707 0 0 13675 0 0 13664 0 0 13608 0 0 13755 0 0 13650 0 0 13649 0 0 13499 0 0 13843 0 0 13757 0 0 13819 0 0 13668 0 0 13583 0 0 13770 0 0 13782 0 0 13630 0 0 13583 0 0 13792 0 0 13570 0 0 13881 0 0 13647 0 0 13801 0 0 13619 0 0 13832 0 0 13680 0 0 13366 0 0 6841 0 0 110 0 0 24 0 0 25 0 0 12 0 0 15 0 0 11 0 0 7 0 0 9 0 0 3 0 0 
3 0 0 9 0 0 5 0 0 10 0 0 11 0 0 8 0 0 18 0 0 29 0 0 25 0 0 85 0 0 6932 0 0 13560 0 0 13853 0 0 13614 0 0 13677 0 0 13692 0 0 13770 0 0 13725 0 0 13706 0 0 13710 0 0 13806 0 0 13792 0 0 13652 0 0 13788 0 0 13787 0 0 13708 0 0 13790 0 0 13860 0 0 13759 0 0 13655 0 0 13810 0 0 13705 0 0 13734 0 0 13665 0 0 13770 0 0 13809 0 0 13622 0 0 13738 0 0 13877 0 0 13828 0 0 13751 0 0 13629 0 0 13683 0 0 13671 0 0 13687 0 0 13566 0 0 13638 0 0 13708 0 0 13484 0 0 13763 0 0 6831 0 0 102 0 0 25 0 0 16 0 0 13 0 0 13 0 0 15 0 0 8 0 0 10 0 0 9 0 0 
4 0 0 10 0 0 11 0 0 7 0 0 10 0 0 14 0 0 17 0 0 20 0 0 24 0 0 93 0 0 6984 0 0 13604 0 0 13704 0 0 13828 0 0 13652 0 0 13687 0 0 13725 0 0 13682 0 0 13742 0 0 13697 0 0 13714 0 0 13773 0 0 13683 0 0 13568 0 0 13746 0 0 13769 0 0 13695 0 0 13721 0 0 13811 0 0 13656 0 0 13698 0 0 13774 0 0 13788 0 0 13583 0 0 13775 0 0 13793 0 0 13726 0 0 14015 0 0 13807 0 0 13824 0 0 13775 0 0 13886 0 0 13819 0 0 13733 0 0 13731 0 0 13773 0 0 13535 0 0 13720 0 0 13516 0 0 13646 0 0 6779 0 0 90 0 0 25 0 0 27 0 0 16 0 0 8 0 0 9 0 0 12 0 0 12 0 0 11 0 0 
1 0 0 13 0 0 13 0 0 16 0 0 12 0 0 13 0 0 14 0 0 19 0 0 28 0 0 102 0 0 6989 0 0 13774 0 0 13552 0 0 13600 0 0 13710 0 0 13830 0 0 13817 0 0 13714 0 0 13730 0 0 13748 0 0 13840 0 0 13769 0 0 13606 0 0 13683 0 0 13717 0 0 13897 0 0 13722 0 0 13633 0 0 13711 0 0 13634 0 0 13726 0 0 13633 0 0 13727 0 0 13748 0 0 13903 0 0 13651 0 0 13571 0 0 13724 0 0 13639 0 0 13776 0 0 13755 0 0 13702 0 0 13754 0 0 13757 0 0 13833 0 0 13741 0 0 13757 0 0 13697 0 0 13802 0 0 13580 0 0 6859 0 0 87 0 0 24 0 0 15 0 0 11 0 0 12 0 0 6 0 0 10 0 0 9 0 0 5 0 0 
3 0 0 7 0 0 10 0 0 8 0 0 17 0 0 14 0 0 18 0 0 17 0 0 23 0 0 95 0 0 6825 0 0 13542 0 0 13661 0 0 13714 0 0 13645 0 0 13666 0 0 13617 0 0 13903 0 0 13722 0 0 13664 0 0 13774 0 0 13739 0 0 13697 0 0 13756 0 0 13740 0 0 13878 0 0 13890 0 0 13820 0 0 13724 0 0 13791 0 0 13918 0 0 13761 0 0 13552 0 0 13881 0 0 13638 0 0 13658 0 0 13650 0 0 13636 0 0 13530 0 0 13702 0 0 13657 0 0 13715 0 0 13611 0 0 13806 0 0 13759 0 0 13790 0 0 13853 0 0 13900 0 0 13653 0 0 13861 0 0 6820 0 0 93 0 0 26 0 0 22 0 0 15 0 0 9 0 0 12 0 0 9 0 0 6 0 0 3 0 0 
2 0 0 11 0 0 11 0 0 6 0 0 11 0 0 11 0 0 14 0 0 19 0 0 24 0 0 102 0 0 6722 0 0 13476 0 0 13637 0 0 13747 0 0 13665 0 0 13713 0 0 13747 0 0 13878 0 0 13501 0 0 13770 0 0 13623 0 0 13731 0 0 13853 0 0 13659 0 0 13633 0 0 13903 0 0 13682 0 0 13802 0 0 13790 0 0 13793 0 0 13704 0 0 13764 0 0 13605 0 0 13780 0 0 13742 0 0 13650 0 0 13964 0 0 13856 0 0 13688 0 0 13469 0 0 13725 0 0 13726 0 0 13883 0 0 13846 0 0 13489 0 0 13852 0 0 13857 0 0 13880 0 0 13681 0 0 13721 0 0 6961 0 0 86 0 0 23 0 0 14 0 0 19 0 0 16 0 0 15 0 0 12 0 0 8 0 0 11 0 0 
1 0 0 4 0 0 4 0 0 7 0 0 5 0 0 13 0 0 13 0 0 15 0 0 14 0 0 91 0 0 6981 0 0 13592 0 0 13699 0 0 13671 0 0 13892 0 0 14015 0 0 13708 0 0 13717 0 0 13818 0 0 13695 0 0 13644 0 0 13523 0 0 13701 0 0 13734 0 0 13761 0 0 13875 0 0 13778 0 0 13706 0 0 13811 0 0 13789 0 0 13829 0 0 13733 0 0 13540 0 0 13816 0 0 13687 0 0 13932 0 0 13533 0 0 13699 0 0 13666 0 0 13919 0 0 13719 0 0 13709 0 0 13745 0 0 13812 0 0 13821 0 0 13578 0 0 13843 0 0 13760 0 0 13809 0 0 13699 0 0 6875 0 0 92 0 0 19 0 0 17 0 0 10 0 0 12 0 0 14 0 0 13 0 0 11 0 0 11 0 0 
4 0 0 11 0 0 11 0 0 6 0 0 10 0 0 12 0 0 20 0 0 14 0 0 14 0 0 98 0 0 6836 0 0 13514 0 0 13936 0 0 13692 0 0 13766 0 0 13699 0 0 13640 0 0 13793 0 0 13987 0 0 13632 0 0 13720 0 0 13809 0 0 13720 0 0 13774 0 0 13713 0 0 13675 0 0 13830 0 0 13781 0 0 13790 0 0 13523 0 0 13675 0 0 13753 0 0 13773 0 0 13626 0 0 13747 0 0 13598 0 0 13745 0 0 13537 0 0 13769 0 0 13648 0 0 13875 0 0 13775 0 0 13689 0 0 13680 0 0 13583 0 0 13672 0 0 13837 0 0 13669 0 0 13751 0 0 13497 0 0 6831 0 0 86 0 0 20 0 0 14 0 0 11 0 0 10 0 0 16 0 0 12 0 0 10 0 0 7 0 0 
2 0 0 7 0 0 15 0 0 17 0 0 17 0 0 13 0 0 12 0 0 14 0 0 24 0 0 104 0 0 6977 0 0 13554 0 0 13838 0 0 13588 0 0 13681 0 0 13571 0 0 13766 0 0 13589 0 0 13922 0 0 13704 0 0 13717 0 0 13836 0 0 13721 0 0 13708 0 0 13651 0 0 13701 0 0 13747 0 0 13808 0 0 13675 0 0 13701 0 0 13457 0 0 13620 0 0 14010 0 0 13873 0 0 13890 0 0 13865 0 0 13800 0 0 13818 0 0 13689 0 0 13672 0 0 13609 0 0 13828 0 0 13718 0 0 13772 0 0 13814 0 0 13654 0 0 13821 0 0 13654 0 0 13601 0 0 13658 0 0 6845 0 0 99 0 0 22 0 0 16 0 0 15 0 0 14 0 0 8 0 0 10 0 0 8 0 0 10 0 0 
4 0 0 9 0 0 11 0 0 9 0 0 12 0 0 14 0 0 16 0 0 19 0 0 23 0 0 91 0 0 6979 0 0 13574 0 0 13596 0 0 13666 0 0 13658 0 0 13766 0 0 13933 0 0 13574 0 0 13822 0 0 13762 0 0 13920 0 0 13832 0 0 13661 0 0 13800 0 0 13825 0 0 13854 0 0 13738 0 0 13857 0 0 13523 0 0 13785 0 0 13719 0 0 13755 0 0 14036 0 0 13864 0 0 13716 0 0 13921 0 0 13594 0 0 13843 0 0 13675 0 0 13804 0 0 13686 0 0 13731 0 0 13672 0 0 13804 0 0 13691 0 0 13653 0 0 14014 0 0 13861 0 0 13845 0 0 13624 0 0 6933 0 0 95 0 0 21 0 0 17 0 0 21 0 0 12 0 0 11 0 0 11 0 0 12 0 0 10 0 0 
5 0 0 11 0 0 9 0 0 11 0 0 10 0 0 11 0 0 14 0 0 21 0 0 27 0 0 99 0 0 6920 0 0 13583 0 0 13868 0 0 13865 0 0 13661 0 0 13879 0 0 13947 0 0 13750 0 0 13662 0 0 13843 0 0 13569 0 0 13650 0 0 13827 0 0 13694 0 0 13873 0 0 13673 0 0 13628 0 0 13678 0 0 13663 0 0 13720 0 0 13747 0 0 13780 0 0 13778 0 0 13812 0 0 13768 0 0 13843 0 0 13706 0 0 13824 0 0 13823 0 0 13946 0 0 13687 0 0 13766 0 0 13874 0 0 13636 0 0 13740 0 0 13765 0 0 13597 0 0 13760 0 0 13733 0 0 13727 0 0 6989 0 0 97 0 0 27 0 0 14 0 0 15 0 0 16 0 0 9 0 0 5 0 0 8 0 0 11 0 0 
3 0 0 9 0 0 7 0 0 8 0 0 11 0 0 17 0 0 20 0 0 29 0 0 27 0 0 100 0 0 7017 0 0 13605 0 0 13817 0 0 13749 0 0 13646 0 0 13706 0 0 13595 0 0 13764 0 0 13958 0 0 13773 0 0 13787 0 0 13774 0 0 13845 0 0 13909 0 0 13868 0 0 13446 0 0 13628 0 0 13693 0 0 13748 0 0 13573 0 0 13685 0 0 13783 0 0 13655 0 0 13827 0 0 13619 0 0 13664 0 0 13706 0 0 13684 0 0 13714 0 0 13792 0 0 13861 0 0 13788 0 0 13754 0 0 13839 0 0 13730 0 0 13749 0 0 13718 0 0 13635 0 0 13880 0 0 13732 0 0 6787 0 0 98 0 0 23 0 0 18 0 0 24 0 0 13 0 0 14 0 0 12 0 0 12 0 0 9 0 0 
2 0 0 9 0 0 8 0 0 11 0 0 10 0 0 14 0 0 15 0 0 23 0 0 28 0 0 112 0 0 6996 0 0 13591 0 0 13884 0 0 13936 0 0 13786 0 0 13617 0 0 13624 0 0 13674 0 0 13834 0 0 13606 0 0 13648 0 0 13781 0 0 13913 0 0 13661 0 0 13608 0 0 13721 0 0 13798 0 0 13824 0 0 13674 0 0 13657 0 0 13744 0 0 13798 0 0 13761 0 0 13647 0 0 13749 0 0 13806 0 0 13682 0 0 13800 0 0 13776 0 0 13731 0 0 13910 0 0 13911 0 0 13712 0 0 13750 0 0 13700 0 0 13740 0 0 13731 0 0 13573 0 0 13666 0 0 13575 0 0 6790 0 0 87 0 0 26 0 0 31 0 0 16 0 0 9 0 0 13 0 0 13 0 0 10 0 0 8 0 0 
4 0 0 6 0 0 10 0 0 13 0 0 14 0 0 14 0 0 16 0 0 19 0 0 25 0 0 106 0 0 6958 0 0 13680 0 0 13841 0 0 13698 0 0 13681 0 0 13766 0 0 13650 0 0 13752 0 0 13606 0 0 13773 0 0 13796 0 0 13724 0 0 13610 0 0 13911 0 0 13945 0 0 13781 0 0 13800 0 0 13848 0 0 13849 0 0 13662 0 0 13739 0 0 13657 0 0 13803 0 0 13582 0 0 13852 0 0 13855 0 0 13793 0 0 13634 0 0 13801 0 0 13710 0 0 13709 0 0 13613 0 0 13846 0 0 13700 0 0 13620 0 0 13625 0 0 13893 0 0 13857 0 0 13659 0 0 13632 0 0 6842 0 0 110 0 0 22 0 0 25 0 0 20 0 0 10 0 0 9 0 0 13 0 0 9 0 0 5 0 0 
2 0 0 6 0 0 8 0 0 13 0 0 14 0 0 12 0 0 12 0 0 17 0 0 20 0 0 117 0 0 6884 0 0 13569 0 0 13566 0 0 13648 0 0 13612 0 0 13751 0 0 13884 0 0 13619 0 0 13729 0 0 13793 0 0 13724 0 0 13570 0 0 13673 0 0 13749 0 0 13607 0 0 13818 0 0 13764 0 0 13598 0 0 13544 0 0 13819 0 0 13705 0 0 13641 0 0 13759 0 0 13794 0 0 13766 0 0 13418 0 0 13719 0 0 13776 0 0 13754 0 0 13782 0 0 13733 0 0 13705 0 0 13788 0 0 13811 0 0 13803 0 0 13721 0 0 13827 0 0 13766 0 0 13615 0 0 13675 0 0 6959 0 0 121 0 0 37 0 0 15 0 0 17 0 0 14 0 0 8 0 0 9 0 0 8 0 0 9 0 0 
1 0 0 5 0 0 10 0 0 13 0 0 13 0 0 12 0 0 14 0 0 24 0 0 34 0 0 108 0 0 6816 0 0 13587 0 0 13736 0 0 13648 0 0 13720 0 0 13630 0 0 13832 0 0 13657 0 0 13653 0 0 13785 0 0 13769 0 0 13866 0 0 13652 0 0 13641 0 0 13854 0 0 13938 0 0 13941 0 0 13918 0 0 13860 0 0 13640 0 0 13732 0 0 13569 0 0 13812 0 0 13697 0 0 13579 0 0 13842 0 0 13819 0 0 13832 0 0 13797 0 0 13862 0 0 13637 0 0 13606 0 0 13672 0 0 13616 0 0 13709 0 0 13680 0 0 13810 0 0 13742 0 0 13734 0 0 13572 0 0 6934 0 0 112 0 0 18 0 0 22 0 0 17 0 0 14 0 0 18 0 0 10 0 0 10 0 0 7 0 0 
4 0 0 6 0 0 6 0 0 12 0 0 9 0 0 14 0 0 21 0 0 19 0 0 25 0 0 98 0 0 6928 0 0 13705 0 0 13857 0 0 13533 0 0 13708 0 0 13674 0 0 13841 0 0 13643 0 0 13757 0 0 13543 0 0 13808 0 0 13791 0 0 13713 0 0 13821 0 0 13820 0 0 13777 0 0 13757 0 0 13723 0 0 13633 0 0 13755 0 0 13801 0 0 13834 0 0 13838 0 0 13745 0 0 13629 0 0 13761 0 0 13687 0 0 13617 0 0 13797 0 0 13651 0 0 13977 0 0 13769 0 0 13612 0 0 13568 0 0 13815 0 0 13454 0 0 13531 0 0 13876 0 0 13642 0 0 13751 0 0 6975 0 0 101 0 0 21 0 0 18 0 0 23 0 0 13 0 0 9 0 0 12 0 0 13 0 0 3 0 0 
2 0 0 6 0 0 9 0 0 6 0 0 6 0 0 13 0 0 17 0 0 22 0 0 26 0 0 93 0 0 6798 0 0 13669 0 0 13704 0 0 13666 0 0 13788 0 0 13767 0 0 13960 0 0 13815 0 0 13747 0 0 13802 0 0 13741 0 0 13670 0 0 13901 0 0 13804 0 0 13609 0 0 13664 0 0 13794 0 0 13897 0 0 13558 0 0 13609 0 0 13720 0 0 13699 0 0 13576 0 0 13930 0 0 13655 0 0 13899 0 0 13743 0 0 13756 0 0 13948 0 0 13753 0 0 13673 0 0 13546 0 0 13561 0 0 13844 0 0 13767 0 0 13647 0 0 13776 0 0 13698 0 0 13642 0 0 13572 0 0 6942 0 0 93 0 0 26 0 0 18 0 0 12 0 0 12 0 0 8 0 0 9 0 0 11 0 0 9 0 0 
4 0 0 8 0 0 10 0 0 9 0 0 12 0 0 13 0 0 15 0 0 16 0 0 23 0 0 81 0 0 6915 0 0 13714 0 0 13584 0 0 13627 0 0 13785 0 0 13666 0 0 13649 0 0 13805 0 0 13683 0 0 13622 0 0 13611 0 0 13878 0 0 13823 0 0 13686 0 0 13825 0 0 13759 0 0 13702 0 0 13751 0 0 13783 0 0 13624 0 0 13768 0 0 13784 0 0 13699 0 0 13741 0 0 13848 0 0 13820 0 0 13776 0 0 13805 0 0 13581 0 0 13782 0 0 13811 0 0 13654 0 0 13732 0 0 13682 0 0 13878 0 0 13738 0 0 13714 0 0 13711 0 0 13646 0 0 13652 0 0 6918 0 0 98 0 0 24 0 0 21 0 0 14 0 0 12 0 0 13 0 0 12 0 0 4 0 0 4 0 0 
4 0 0 8 0 0 12 0 0 12 0 0 12 0 0 13 0 0 12 0 0 22 0 0 22 0 0 93 0 0 6887 0 0 13754 0 0 13605 0 0 13837 0 0 13819 0 0 13944 0 0 13712 0 0 13486 0 0 13778 0 0 13794 0 0 13837 0 0 13944 0 0 13774 0 0 13883 0 0 13713 0 0 13588 0 0 13773 0 0 13754 0 0 13832 0 0 13447 0 0 13789 0 0 13851 0 0 13819 0 0 13936 0 0 13728 0 0 13584 0 0 13666 0 0 13643 0 0 13671 0 0 13686 0 0 13619 0 0 13563 0 0 13711 0 0 13695 0 0 13754 0 0 13580 0 0 13702 0 0 13771 0 0 13768 0 0 13689 0 0 6970 0 0 98 0 0 26 0 0 17 0 0 12 0 0 16 0 0 14 0 0 8 0 0 4 0 0 3 0 0 
3 0 0 6 0 0 9 0 0 13 0 0 9 0 0 9 0 0 18 0 0 21 0 0 30 0 0 106 0 0 6829 0 0 13622 0 0 13904 0 0 13536 0 0 13649 0 0 13573 0 0 13853 0 0 13906 0 0 13671 0 0 13758 0 0 13744 0 0 13876 0 0 13863 0 0 13710 0 0 13660 0 0 13544 0 0 13566 0 0 13821 0 0 13591 0 0 13855 0 0 13787 0 0 13611 0 0 13779 0 0 13777 0 0 13663 0 0 13737 0 0 13888 0 0 13752 0 0 13496 0 0 13924 0 0 13760 0 0 13842 0 0 13902 0 0 13784 0 0 13729 0 0 13636 0 0 13728 0 0 13692 0 0 13629 0 0 13502 0 0 6939 0 0 92 0 0 28 0 0 28 0 0 17 0 0 17 0 0 7 0 0 7 0 0 7 0 0 12 0 0 
3 0 0 5 0 0 10 0 0 11 0 0 12 0 0 16 0 0 13 0 0 21 0 0 24 0 0 106 0 0 6815 0 0 13451 0 0 13786 0 0 13885 0 0 13752 0 0 13884 0 0 13545 0 0 13762 0 0 13598 0 0 13783 0 0 13716 0 0 13716 0 0 13766 0 0 13589 0 0 13789 0 0 13556 0 0 13750 0 0 13820 0 0 13540 0 0 13796 0 0 13811 0 0 13766 0 0 13635 0 0 13705 0 0 13849 0 0 13805 0 0 13685 0 0 13664 0 0 13825 0 0 13899 0 0 13600 0 0 13798 0 0 13757 0 0 13821 0 0 13653 0 0 13679 0 0 13818 0 0 13674 0 0 13823 0 0 13792 0 0 6922 0 0 97 0 0 26 0 0 18 0 0 14 0 0 12 0 0 11 0 0 7 0 0 6 0 0 9 0 0 
2 0 0 6 0 0 9 0 0 10 0 0 13 0 0 16 0 0 12 0 0 16 0 0 24 0 0 93 0 0 6669 0 0 13507 0 0 13786 0 0 13857 0 0 13790 0 0 13712 0 0 13794 0 0 13643 0 0 13764 0 0 13612 0 0 13743 0 0 13735 0 0 13672 0 0 13621 0 0 13807 0 0 13675 0 0 13773 0 0 13783 0 0 13810 0 0 13723 0 0 13727 0 0 13513 0 0 13765 0 0 13597 0 0 13980 0 0 13581 0 0 13560 0 0 13608 0 0 13655 0 0 13660 0 0 13643 0 0 13743 0 0 13868 0 0 13729 0 0 13692 0 0 13641 0 0 13688 0 0 13869 0 0 13691 0 0 13676 0 0 6883 0 0 88 0 0 26 0 0 23 0 0 15 0 0 17 0 0 13 0 0 12 0 0 7 0 0 6 0 0 
3 0 0 14 0 0 7 0 0 11 0 0 14 0 0 16 0 0 16 0 0 25 0 0 27 0 0 109 0 0 6871 0 0 13522 0 0 13618 0 0 13738 0 0 14111 0 0 13785 0 0 13736 0 0 13675 0 0 13721 0 0 13750 0 0 13658 0 0 13749 0 0 13700 0 0 13757 0 0 13631 0 0 13614 0 0 13585 0 0 13690 0 0 13873 0 0 13615 0 0 13898 0 0 13810 0 0 13829 0 0 13830 0 0 13813 0 0 13676 0 0 13697 0 0 13687 0 0 13707 0 0 13840 0 0 13687 0 0 13657 0 0 13737 0 0 13747 0 0 13815 0 0 13855 0 0 13688 0 0 13558 0 0 13802 0 0 13585 0 0 6911 0 0 102 0 0 21 0 0 15 0 0 12 0 0 10 0 0 6 0 0 12 0 0 12 0 0 9 0 0 
4 0 0 6 0 0 5 0 0 6 0 0 11 0 0 12 0 0 14 0 0 14 0 0 27 0 0 87 0 0 6928 0 0 13769 0 0 13595 0 0 13689 0 0 13915 0 0 13763 0 0 13524 0 0 13873 0 0 13765 0 0 13752 0 0 13638 0 0 13925 0 0 13725 0 0 13607 0 0 13726 0 0 13754 0 0 13618 0 0 13747 0 0 13802 0 0 13711 0 0 13810 0 0 13576 0 0 13620 0 0 13727 0 0 13751 0 0 13607 0 0 13867 0 0 13650 0 0 13897 0 0 13609 0 0 13646 0 0 13719 0 0 13770 0 0 13735 0 0 13834 0 0 13705 0 0 13735 0 0 13566 0 0 13753 0 0 13666 0 0 6821 0 0 95 0 0 19 0 0 10 0 0 5 0 0 10 0 0 8 0 0 6 0 0 4 0 0 5 0 0 
2 0 0 5 0 0 9 0 0 11 0 0 6 0 0 6 0 0 14 0 0 13 0 0 25 0 0 93 0 0 6810 0 0 13668 0 0 13585 0 0 13682 0 0 13867 0 0 13642 0 0 13723 0 0 13789 0 0 13866 0 0 13759 0 0 13826 0 0 13609 0 0 13788 0 0 13704 0 0 13657 0 0 13875 0 0 13851 0 0 13672 0 0 13737 0 0 13933 0 0 13766 0 0 13723 0 0 13833 0 0 13690 0 0 13813 0 0 13781 0 0 13778 0 0 13708 0 0 13558 0 0 13528 0 0 13747 0 0 13741 0 0 13700 0 0 13759 0 0 13709 0 0 13806 0 0 13732 0 0 13849 0 0 13808 0 0 13757 0 0 6854 0 0 91 0 0 17 0 0 14 0 0 14 0 0 11 0 0 6 0 0 5 0 0 3 0 0 1 0 0 
3 0 0 12 0 0 5 0 0 6 0 0 5 0 0 11 0 0 13 0 0 24 0 0 25 0 0 94 0 0 6982 0 0 13553 0 0 13821 0 0 13522 0 0 13653 0 0 13910 0 0 13683 0 0 13622 0 0 13755 0 0 13706 0 0 13719 0 0 13534 0 0 13569 0 0 13853 0 0 13801 0 0 13701 0 0 13614 0 0 13637 0 0 13627 0 0 13832 0 0 13611 0 0 13711 0 0 13635 0 0 13623 0 0 13809 0 0 13838 0 0 13725 0 0 13673 0 0 13615 0 0 13797 0 0 13831 0 0 13715 0 0 13900 0 0 13750 0 0 13581 0 0 13553 0 0 13669 0 0 13618 0 0 13613 0 0 13676 0 0 6919 0 0 96 0 0 18 0 0 16 0 0 8 0 0 6 0 0 5 0 0 6 0 0 2 0 0 3 0 0 
0 0 0 3 0 0 6 0 0 5 0 0 12 0 0 12 0 0 12 0 0 15 0 0 20 0 0 97 0 0 6863 0 0 13385 0 0 13478 0 0 13632 0 0 13617 0 0 13775 0 0 13755 0 0 13762 0 0 13828 0 0 13646 0 0 13709 0 0 13611 0 0 13816 0 0 13687 0 0 13634 0 0 13574 0 0 13630 0 0 13760 0 0 13641 0 0 13680 0 0 13719 0 0 13714 0 0 13640 0 0 13534 0 0 13691 0 0 13672 0 0 13924 0 0 13493 0 0 13770 0 0 13631 0 0 13871 0 0 13785 0 0 13980 0 0 13645 0 0 13832 0 0 13671 0 0 13798 0 0 13898 0 0 13672 0 0 13720 0 0 6885 0 0 83 0 0 24 0 0 12 0 0 10 0 0 7 0 0 5 0 0 2 0 0 5 0 0 5 0 0 
3 0 0 5 0 0 10 0 0 11 0 0 7 0 0 7 0 0 7 0 0 15 0 0 19 0 0 81 0 0 6699 0 0 13550 0 0 13749 0 0 13596 0 0 13537 0 0 13629 0 0 13715 0 0 13581 0 0 13644 0 0 13457 0 0 13459 0 0 13574 0 0 13618 0 0 13539 0 0 13617 0 0 13808 0 0 13576 0 0 13568 0 0 13611 0 0 13895 0 0 13730 0 0 13859 0 0 13815 0 0 13744 0 0 13699 0 0 13624 0 0 13578 0 0 13768 0 0 13725 0 0 13606 0 0 13741 0 0 13399 0 0 13816 0 0 13785 0 0 13577 0 0 13796 0 0 13555 0 0 13606 0 0 13657 0 0 13516 0 0 6833 0 0 93 0 0 15 0 0 9 0 0 8 0 0 2 0 0 6 0 0 6 0 0 7 0 0 3 0 0 
2 0 0 6 0 0 7 0 0 9 0 0 8 0 0 12 0 0 9 0 0 12 0 0 14 0 0 34 0 0 3429 0 0 6888 0 0 6945 0 0 6890 0 0 6854 0 0 6843 0 0 6837 0 0 6873 0 0 6928 0 0 6741 0 0 6945 0 0 6865 0 0 6889 0 0 6926 0 0 6889 0 0 6990 0 0 6860 0 0 6853 0 0 6935 0 0 6827 0 0 6787 0 0 6927 0 0 6819 0 0 6846 0 0 6862 0 0 6856 0 0 6988 0 0 6870 0 0 6813 0 0 6893 0 0 6840 0 0 6912 0 0 6889 0 0 6889 0 0 6741 0 0 6965 0 0 6912 0 0 6725 0 0 6833 0 0 6853 0 0 3452 0 0 50 0 0 18 0 0 11 0 0 7 0 0 4 0 0 4 0 0 3 0 0 5 0 0 4 0 0 
2 0 0 4 0 0 5 0 0 3 0 0 6 0 0 5 0 0 6 0 0 12 0 0 6 0 0 13 0 0 50 0 0 76 0 0 74 0 0 91 0 0 105 0 0 95 0 0 98 0 0 98 0 0 102 0 0 97 0 0 103 0 0 87 0 0 85 0 0 95 0 0 113 0 0 88 0 0 106 0 0 103 0 0 104 0 0 103 0 0 108 0 0 94 0 0 95 0 0 91 0 0 97 0 0 88 0 0 94 0 0 102 0 0 110 0 0 82 0 0 81 0 0 94 0 0 91 0 0 77 0 0 87 0 0 106 0 0 107 0 0 97 0 0 87 0 0 79 0 0 51 0 0 18 0 0 12 0 0 12 0 0 5 0 0 1 0 0 2 0 0 8 0 0 7 0 0 8 0 0 
0 0 0 1 0 0 2 0 0 7 0 0 5 0 0 8 0 0 11 0 0 9 0 0 10 0 0 9 0 0 11 0 0 19 0 0 15 0 0 13 0 0 19 0 0 22 0 0 19 0 0 31 0 0 24 0 0 21 0 0 25 0 0 24 0 0 22 0 0 24 0 0 21 0 0 25 0 0 22 0 0 26 0 0 23 0 0 26 0 0 26 0 0 30 0 0 20 0 0 30 0 0 30 0 0 24 0 0 24 0 0 18 0 0 21 0 0 17 0 0 24 0 0 30 0 0 24 0 0 32 0 0 27 0 0 26 0 0 23 0 0 21 0 0 16 0 0 10 0 0 12 0 0 14 0 0 10 0 0 8 0 0 3 0 0 1 0 0 3 0 0 4 0 0 3 0 0 3 0 0 
0 0 0 3 0 0 6 0 0 3 0 0 9 0 0 9 0 0 11 0 0 7 0 0 6 0 0 7 0 0 9 0 0 12 0 0 18 0 0 16 0 0 12 0 0 19 0 0 15 0 0 22 0 0 18 0 0 18 0 0 22 0 0 12 0 0 17 0 0 16 0 0 18 0 0 20 0 0 21 0 0 21 0 0 24 0 0 22 0 0 17 0 0 25 0 0 29 0 0 17 0 0 24 0 0 20 0 0 22 0 0 19 0 0 15 0 0 22 0 0 20 0 0 20 0 0 17 0 0 19 0 0 19 0 0 14 0 0 17 0 0 12 0 0 12 0 0 11 0 0 11 0 0 3 0 0 6 0 0 12 0 0 10 0 0 1 0 0 4 0 0 3 0 0 2 0 0 5 0 0 
1 0 0 4 0 0 4 0 0 5 0 0 6 0 0 9 0 0 4 0 0 4 0 0 4 0 0 5 0 0 9 0 0 9 0 0 15 0 0 9 0 0 13 0 0 9 0 0 15 0 0 16 0 0 11 0 0 15 0 0 15 0 0 11 0 0 13 0 0 16 0 0 11 0 0 18 0 0 14 0 0 13 0 0 14 0 0 18 0 0 18 0 0 16 0 0 19 0 0 19 0 0 24 0 0 16 0 0 16 0 0 21 0 0 13 0 0 15 0 0 11 0 0 15 0 0 13 0 0 15 0 0 15 0 0 16 0 0 11 0 0 20 0 0 14 0 0 10 0 0 8 0 0 8 0 0 6 0 0 8 0 0 7 0 0 5 0 0 5 0 0 3 0 0 0 0 0 1 0 0 
2 0 0 1 0 0 3 0 0 3 0 0 10 0 0 5 0 0 3 0 0 5 0 0 7 0 0 5 0 0 9 0 0 8 0 0 9 0 0 9 0 0 14 0 0 12 0 0 8 0 0 12 0 0 13 0 0 10 0 0 10 0 0 9 0 0 20 0 0 17 0 0 13 0 0 14 0 0 12 0 0 10 0 0 20 0 0 19 0 0 8 0 0 11 0 0 16 0 0 19 0 0 24 0 0 12 0 0 12 0 0 12 0 0 16 0 0 17 0 0 11 0 0 11 0 0 12 0 0 10 0 0 13 0 0 10 0 0 16 0 0 9 0 0 14 0 0 7 0 0 4 0 0 9 0 0 3 0 0 9 0 0 7 0 0 7 0 0 3 0 0 4 0 0 2 0 0 3 0 0 
0 0 0 1 0 0 4 0 0 6 0 0 2 0 0 2 0 0 9 0 0 6 0 0 5 0 0 6 0 0 6 0 0 11 0 0 8 0 0 7 0 0 7 0 0 11 0 0 6 0 0 7 0 0 11 0 0 8 0 0 8 0 0 7 0 0 13 0 0 18 0 0 14 0 0 9 0 0 10 0 0 8 0 0 14 0 0 16 0 0 8 0 0 10 0 0 12 0 0 22 0 0 14 0 0 14 0 0 12 0 0 14 0 0 11 0 0 12 0 0 10 0 0 9 0 0 8 0 0 15 0 0 15 0 0 8 0 0 8 0 0 8 0 0 6 0 0 12 0 0 5 0 0 5 0 0 3 0 0 8 0 0 9 0 0 8 0 0 5 0 0 4 0 0 4 0 0 4 0 0 
1 0 0 2 0 0 2 0 0 2 0 0 0 0 0 7 0 0 4 0 0 7 0 0 6 0 0 5 0 0 9 0 0 9 0 0 4 0 0 5 0 0 7 0 0 8 0 0 7 0 0 6 0 0 13 0 0 9 0 0 8 0 0 5 0 0 7 0 0 15 0 0 11 0 0 11 0 0 10 0 0 9 0 0 10 0 0 12 0 0 12 0 0 12 0 0 12 0 0 19 0 0 13 0 0 9 0 0 14 0 0 7 0 0 4 0 0 12 0 0 13 0 0 6 0 0 12 0 0 11 0 0 12 0 0 9 0 0 12 0 0 8 0 0 5 0 0 7 0 0 3 0 0 5 0 0 5 0 0 4 0 0 8 0 0 10 0 0 12 0 0 5 0 0 2 0 0 4 0 0 
1 0 0 2 0 0 5 0 0 3 0 0 5 0 0 6 0 0 3 0 0 8 0 0 2 0 0 4 0 0 7 0 0 7 0 0 5 0 0 4 0 0 9 0 0 10 0 0 9 0 0 7 0 0 11 0 0 10 0 0 7 0 0 11 0 0 8 0 0 11 0 0 12 0 0 12 0 0 7 0 0 11 0 0 7 0 0 11 0 0 11 0 0 15 0 0 11 0 0 15 0 0 9 0 0 17 0 0 10 0 0 2 0 0 9 0 0 8 0 0 10 0 0 6 0 0 9 0 0 10 0 0 10 0 0 9 0 0 6 0 0 3 0 0 6 0 0 6 0 0 3 0 0 4 0 0 3 0 0 7 0 0 6 0 0 5 0 0 2 0 0 9 0 0 4 0 0 5 0 0 
1 0 0 8 0 0 4 0 0 5 0 0 5 0 0 1 0 0 3 0 0 7 0 0 2 0 0 2 0 0 4 0 0 8 0 0 4 0 0 2 0 0 7 0 0 9 0 0 9 0 0 7 0 0 12 0 0 8 0 0 6 0 0 6 0 0 4 0 0 10 0 0 8 0 0 8 0 0 9 0 0 12 0 0 8 0 0 6 0 0 12 0 0 14 0 0 11 0 0 13 0 0 5 0 0 13 0 0 12 0 0 7 0 0 4 0 0 4 0 0 9 0 0 7 0 0 6 0 0 11 0 0 7 0 0 8 0 0 2 0 0 5 0 0 4 0 0 7 0 0 3 0 0 3 0 0 5 0 0 6 0 0 3 0 0 3 0 0 4 0 0 2 0 0 4 0 0 3 0 0 
