P3
# This is a dose file slice at depth 50 of 100
60 60
# now we give the maximum value of the RGB coordinates.
21610
0 0 0 0 0 0 0 0 0 0 0 0 1 0 0 1 0 0 0 0 0 1 0 0 0 0 0 1 0 0 0 0 0 1 0 0 0 0 0 4 0 0 3 0 0 0 0 0 3 0 0 2 0 0 0 0 0 4 0 0 3 0 0 0 0 0 1 0 0 2 0 0 2 0 0 1 0 0 1 0 0 2 0 0 1 0 0 2 0 0 4 0 0 2 0 0 1 0 0 3 0 0 2 0 0 2 0 0 0 0 0 2 0 0 2 0 0 0 0 0 2 0 0 1 0 0 3 0 0 2 0 0 1 0 0 1 0 0 2 0 0 2 0 0 0 0 0 1 0 0 1 0 0 2 0 0 0 0 0 0 0 0 0 0 0 0 0 0 0 0 0 0 0 0 0 0 0 0 0 0 
1 0 0 0 0 0 0 0 0 0 0 0 4 0 0 1 0 0 2 0 0 3 0 0 1 0 0 1 0 0 5 0 0 2 0 0 4 0 0 0 0 0 4 0 0 3 0 0 1 0 0 5 0 0 1 0 0 5 0 0 4 0 0 6 0 0 3 0 0 5 0 0 1 0 0 3 0 0 3 0 0 2 0 0 5 0 0 9 0 0 5 0 0 2 0 0 2 0 0 6 0 0 4 0 0 3 0 0 2 0 0 0 0 0 5 0 0 4 0 0 2 0 0 4 0 0 3 0 0 5 0 0 5 0 0 2 0 0 2 0 0 4 0 0 1 0 0 5 0 0 2 0 0 3 0 0 1 0 0 1 0 0 2 0 0 2 0 0 2 0 0 0 0 0 3 0 0 3 0 0 
1 0 0 0 0 0 2 0 0 0 0 0 0 0 0 6 0 0 2 0 0 1 0 0 3 0 0 2 0 0 3 0 0 1 0 0 3 0 0 2 0 0 3 0 0 2 0 0 5 0 0 3 0 0 4 0 0 6 0 0 2 0 0 4 0 0 7 0 0 5 0 0 4 0 0 5 0 0 5 0 0 3 0 0 5 0 0 6 0 0 6 0 0 5 0 0 5 0 0 5 0 0 10 0 0 1 0 0 5 0 0 3 0 0 5 0 0 4 0 0 3 0 0 5 0 0 3 0 0 4 0 0 5 0 0 3 0 0 2 0 0 4 0 0 7 0 0 5 0 0 1 0 0 1 0 0 0 0 0 2 0 0 0 0 0 3 0 0 4 0 0 3 0 0 5 0 0 2 0 0 
0 0 0 2 0 0 0 0 0 1 0 0 1 0 0 3 0 0 4 0 0 5 0 0 3 0 0 5 0 0 3 0 0 3 0 0 5 0 0 0 0 0 4 0 0 3 0 0 1 0 0 7 0 0 2 0 0 5 0 0 8 0 0 1 0 0 7 0 0 8 0 0 5 0 0 7 0 0 4 0 0 5 0 0 6 0 0 2 0 0 8 0 0 3 0 0 7 0 0 5 0 0 6 0 0 6 0 0 6 0 0 4 0 0 6 0 0 3 0 0 3 0 0 4 0 0 5 0 0 6 0 0 7 0 0 5 0 0 3 0 0 9 0 0 2 0 0 1 0 0 0 0 0 1 0 0 2 0 0 2 0 0 2 0 0 4 0 0 7 0 0 5 0 0 4 0 0 2 0 0 
1 0 0 2 0 0 1 0 0 0 0 0 1 0 0 5 0 0 5 0 0 5 0 0 4 0 0 2 0 0 4 0 0 4 0 0 6 0 0 12 0 0 5 0 0 7 0 0 2 0 0 4 0 0 6 0 0 1 0 0 10 0 0 7 0 0 3 0 0 6 0 0 6 0 0 6 0 0 6 0 0 10 0 0 9 0 0 6 0 0 9 0 0 7 0 0 3 0 0 5 0 0 6 0 0 7 0 0 4 0 0 5 0 0 11 0 0 5 0 0 1 0 0 4 0 0 12 0 0 5 0 0 5 0 0 6 0 0 4 0 0 4 0 0 4 0 0 1 0 0 2 0 0 4 0 0 3 0 0 3 0 0 5 0 0 4 0 0 4 0 0 2 0 0 3 0 0 2 0 0 
0 0 0 2 0 0 2 0 0 2 0 0 2 0 0 1 0 0 3 0 0 5 0 0 5 0 0 1 0 0 6 0 0 4 0 0 6 0 0 6 0 0 10 0 0 5 0 0 3 0 0 5 0 0 7 0 0 8 0 0 7 0 0 12 0 0 5 0 0 8 0 0 6 0 0 8 0 0 2 0 0 7 0 0 9 0 0 7 0 0 9 0 0 6 0 0 2 0 0 6 0 0 4 0 0 3 0 0 5 0 0 12 0 0 8 0 0 12 0 0 4 0 0 11 0 0 6 0 0 9 0 0 6 0 0 10 0 0 5 0 0 4 0 0 3 0 0 3 0 0 5 0 0 3 0 0 5 0 0 5 0 0 7 0 0 5 0 0 2 0 0 1 0 0 3 0 0 3 0 0 
1 0 0 0 0 0 2 0 0 2 0 0 1 0 0 1 0 0 2 0 0 3 0 0 5 0 0 2 0 0 3 0 0 8 0 0 5 0 0 0 0 0 5 0 0 3 0 0 2 0 0 6 0 0 5 0 0 6 0 0 12 0 0 15 0 0 11 0 0 12 0 0 10 0 0 10 0 0 13 0 0 7 0 0 9 0 0 7 0 0 9 0 0 8 0 0 9 0 0 9 0 0 7 0 0 4 0 0 8 0 0 12 0 0 7 0 0 12 0 0 11 0 0 7 0 0 12 0 0 8 0 0 6 0 0 13 0 0 8 0 0 4 0 0 8 0 0 8 0 0 5 0 0 8 0 0 4 0 0 3 0 0 4 0 0 1 0 0 2 0 0 3 0 0 2 0 0 0 0 0 
1 0 0 3 0 0 1 0 0 0 0 0 2 0 0 2 0 0 4 0 0 1 0 0 4 0 0 8 0 0 8 0 0 7 0 0 5 0 0 4 0 0 2 0 0 10 0 0 2 0 0 8 0 0 9 0 0 6 0 0 11 0 0 12 0 0 9 0 0 10 0 0 3 0 0 16 0 0 10 0 0 8 0 0 10 0 0 12 0 0 7 0 0 18 0 0 8 0 0 10 0 0 9 0 0 6 0 0 14 0 0 10 0 0 11 0 0 15 0 0 12 0 0 12 0 0 16 0 0 9 0 0 11 0 0 9 0 0 7 0 0 9 0 0 9 0 0 5 0 0 6 0 0 6 0 0 3 0 0 6 0 0 6 0 0 5 0 0 4 0 0 3 0 0 3 0 0 0 0 0 
0 0 0 0 0 0 0 0 0 1 0 0 2 0 0 3 0 0 3 0 0 10 0 0 6 0 0 12 0 0 9 0 0 8 0 0 6 0 0 6 0 0 6 0 0 8 0 0 9 0 0 11 0 0 12 0 0 12 0 0 16 0 0 13 0 0 12 0 0 12 0 0 10 0 0 12 0 0 18 0 0 12 0 0 12 0 0 17 0 0 18 0 0 16 0 0 12 0 0 12 0 0 12 0 0 7 0 0 17 0 0 12 0 0 23 0 0 18 0 0 18 0 0 14 0 0 9 0 0 12 0 0 12 0 0 13 0 0 9 0 0 12 0 0 12 0 0 4 0 0 5 0 0 6 0 0 4 0 0 10 0 0 4 0 0 7 0 0 5 0 0 3 0 0 3 0 0 1 0 0 
1 0 0 2 0 0 2 0 0 1 0 0 4 0 0 4 0 0 0 0 0 7 0 0 12 0 0 7 0 0 30 0 0 51 0 0 56 0 0 52 0 0 49 0 0 47 0 0 47 0 0 63 0 0 51 0 0 57 0 0 51 0 0 57 0 0 59 0 0 61 0 0 53 0 0 55 0 0 55 0 0 48 0 0 59 0 0 52 0 0 58 0 0 53 0 0 51 0 0 67 0 0 58 0 0 39 0 0 55 0 0 46 0 0 58 0 0 70 0 0 61 0 0 52 0 0 50 0 0 47 0 0 47 0 0 49 0 0 47 0 0 54 0 0 40 0 0 43 0 0 31 0 0 8 0 0 7 0 0 3 0 0 3 0 0 3 0 0 1 0 0 2 0 0 2 0 0 2 0 0 
0 0 0 0 0 0 3 0 0 2 0 0 8 0 0 5 0 0 8 0 0 8 0 0 8 0 0 29 0 0 1754 0 0 3505 0 0 3480 0 0 3404 0 0 3562 0 0 3509 0 0 3420 0 0 3576 0 0 3474 0 0 3464 0 0 3505 0 0 3589 0 0 3551 0 0 3491 0 0 3416 0 0 3518 0 0 3519 0 0 3446 0 0 3548 0 0 3440 0 0 3433 0 0 3481 0 0 3408 0 0 3563 0 0 3528 0 0 3531 0 0 3585 0 0 3564 0 0 3463 0 0 3568 0 0 3556 0 0 3517 0 0 3485 0 0 3421 0 0 3439 0 0 3595 0 0 3511 0 0 3449 0 0 3492 0 0 3462 0 0 1736 0 0 35 0 0 14 0 0 3 0 0 4 0 0 1 0 0 2 0 0 2 0 0 4 0 0 2 0 0 
1 0 0 3 0 0 1 0 0 5 0 0 4 0 0 8 0 0 5 0 0 10 0 0 7 0 0 65 0 0 3367 0 0 6859 0 0 6803 0 0 6900 0 0 6971 0 0 6883 0 0 6849 0 0 7008 0 0 6930 0 0 6923 0 0 6869 0 0 6925 0 0 6974 0 0 7034 0 0 6962 0 0 6865 0 0 6786 0 0 6874 0 0 6939 0 0 6940 0 0 6920 0 0 6860 0 0 6966 0 0 6910 0 0 6895 0 0 6969 0 0 6943 0 0 6883 0 0 6925 0 0 6851 0 0 7018 0 0 6978 0 0 6891 0 0 6980 0 0 6975 0 0 6983 0 0 6849 0 0 6934 0 0 6893 0 0 6787 0 0 3427 0 0 44 0 0 11 0 0 7 0 0 4 0 0 5 0 0 2 0 0 3 0 0 2 0 0 2 0 0 
1 0 0 2 0 0 1 0 0 3 0 0 4 0 0 2 0 0 4 0 0 8 0 0 14 0 0 55 0 0 3480 0 0 6910 0 0 6965 0 0 7035 0 0 6860 0 0 6984 0 0 7006 0 0 6991 0 0 6974 0 0 7016 0 0 6900 0 0 7022 0 0 6886 0 0 7048 0 0 7143 0 0 6991 0 0 6885 0 0 6916 0 0 6925 0 0 6907 0 0 6912 0 0 6928 0 0 6987 0 0 6997 0 0 6963 0 0 6968 0 0 6790 0 0 6900 0 0 6775 0 0 6886 0 0 7060 0 0 6995 0 0 7084 0 0 6947 0 0 6878 0 0 6932 0 0 7010 0 0 7010 0 0 6853 0 0 6924 0 0 3489 0 0 51 0 0 11 0 0 6 0 0 5 0 0 4 0 0 2 0 0 3 0 0 2 0 0 0 0 0 
0 0 0 1 0 0 1 0 0 1 0 0 2 0 0 5 0 0 8 0 0 10 0 0 10 0 0 57 0 0 3499 0 0 7077 0 0 6976 0 0 7048 0 0 6958 0 0 6962 0 0 7043 0 0 6866 0 0 7006 0 0 7023 0 0 7005 0 0 6992 0 0 7025 0 0 6982 0 0 6992 0 0 6960 0 0 6912 0 0 6963 0 0 6958 0 0 7000 0 0 6991 0 0 7088 0 0 6864 0 0 7188 0 0 7026 0 0 6965 0 0 6997 0 0 7088 0 0 7085 0 0 7048 0 0 7025 0 0 7026 0 0 7058 0 0 7186 0 0 6853 0 0 7081 0 0 6947 0 0 6989 0 0 6997 0 0 6939 0 0 3494 0 0 63 0 0 5 0 0 4 0 0 3 0 0 2 0 0 1 0 0 6 0 0 2 0 0 3 0 0 
2 0 0 1 0 0 0 0 0 1 0 0 3 0 0 0 0 0 4 0 0 7 0 0 12 0 0 60 0 0 3392 0 0 6840 0 0 7054 0 0 6861 0 0 6956 0 0 6970 0 0 7007 0 0 7024 0 0 7039 0 0 6995 0 0 7039 0 0 6948 0 0 6966 0 0 7043 0 0 6816 0 0 6944 0 0 6959 0 0 7054 0 0 6906 0 0 6992 0 0 6950 0 0 7010 0 0 6941 0 0 7034 0 0 6920 0 0 7059 0 0 7098 0 0 6949 0 0 7024 0 0 7048 0 0 6986 0 0 7012 0 0 6874 0 0 6967 0 0 6813 0 0 7085 0 0 6944 0 0 7065 0 0 7000 0 0 6868 0 0 3532 0 0 54 0 0 7 0 0 6 0 0 8 0 0 1 0 0 2 0 0 4 0 0 2 0 0 2 0 0 
5 0 0 10 0 0 6 0 0 2 0 0 2 0 0 2 0 0 2 0 0 9 0 0 12 0 0 61 0 0 3562 0 0 6976 0 0 7011 0 0 6905 0 0 6986 0 0 6953 0 0 6943 0 0 7070 0 0 6928 0 0 6969 0 0 6990 0 0 7000 0 0 7036 0 0 6823 0 0 6902 0 0 6894 0 0 6989 0 0 7028 0 0 6956 0 0 6904 0 0 7098 0 0 7154 0 0 6980 0 0 6842 0 0 7024 0 0 6909 0 0 6934 0 0 7050 0 0 7123 0 0 6993 0 0 7003 0 0 7072 0 0 7008 0 0 7003 0 0 6927 0 0 6889 0 0 6949 0 0 7072 0 0 6881 0 0 7062 0 0 3395 0 0 55 0 0 7 0 0 9 0 0 8 0 0 4 0 0 3 0 0 7 0 0 3 0 0 2 0 0 
3 0 0 6 0 0 3 0 0 7 0 0 11 0 0 7 0 0 7 0 0 6 0 0 12 0 0 49 0 0 3580 0 0 6803 0 0 6960 0 0 6972 0 0 6901 0 0 6952 0 0 6933 0 0 6895 0 0 6969 0 0 6896 0 0 7025 0 0 7053 0 0 7013 0 0 6949 0 0 7004 0 0 6912 0 0 6968 0 0 6931 0 0 6946 0 0 6876 0 0 7019 0 0 6994 0 0 7008 0 0 6931 0 0 6983 0 0 6905 0 0 7104 0 0 7074 0 0 7009 0 0 7102 0 0 7077 0 0 7159 0 0 6951 0 0 6964 0 0 6866 0 0 6932 0 0 6949 0 0 7147 0 0 7006 0 0 6814 0 0 3460 0 0 53 0 0 10 0 0 12 0 0 9 0 0 3 0 0 6 0 0 3 0 0 3 0 0 2 0 0 
2 0 0 4 0 0 2 0 0 3 0 0 5 0 0 6 0 0 3 0 0 9 0 0 11 0 0 48 0 0 3459 0 0 6857 0 0 7007 0 0 6992 0 0 6969 0 0 6935 0 0 6853 0 0 7060 0 0 6912 0 0 6883 0 0 6937 0 0 6942 0 0 6944 0 0 7024 0 0 7013 0 0 6903 0 0 6965 0 0 7121 0 0 6882 0 0 6941 0 0 7093 0 0 6860 0 0 7032 0 0 6958 0 0 6943 0 0 7097 0 0 7018 0 0 7073 0 0 6978 0 0 6872 0 0 7022 0 0 7101 0 0 6975 0 0 7093 0 0 6890 0 0 6923 0 0 6922 0 0 6966 0 0 6988 0 0 6860 0 0 3484 0 0 50 0 0 12 0 0 9 0 0 7 0 0 10 0 0 3 0 0 1 0 0 1 0 0 0 0 0 
1 0 0 3 0 0 3 0 0 4 0 0 9 0 0 9 0 0 9 0 0 9 0 0 9 0 0 63 0 0 3479 0 0 6928 0 0 6906 0 0 6837 0 0 6921 0 0 7086 0 0 6951 0 0 6879 0 0 7120 0 0 7029 0 0 6931 0 0 6867 0 0 7007 0 0 6984 0 0 7035 0 0 6812 0 0 6838 0 0 6855 0 0 6895 0 0 6964 0 0 7018 0 0 6998 0 0 7019 0 0 7024 0 0 7063 0 0 7058 0 0 7090 0 0 7010 0 0 7026 0 0 7015 0 0 6980 0 0 6949 0 0 6941 0 0 6994 0 0 6946 0 0 6960 0 0 6941 0 0 6962 0 0 6968 0 0 6945 0 0 3409 0 0 43 0 0 11 0 0 11 0 0 10 0 0 8 0 0 4 0 0 3 0 0 2 0 0 5 0 0 
0 0 0 0 0 0 1 0 0 3 0 0 4 0 0 6 0 0 4 0 0 6 0 0 16 0 0 55 0 0 3517 0 0 6832 0 0 7005 0 0 6869 0 0 6952 0 0 6946 0 0 7108 0 0 7064 0 0 6910 0 0 6940 0 0 7000 0 0 7069 0 0 6927 0 0 6997 0 0 6998 0 0 6823 0 0 6995 0 0 7048 0 0 6922 0 0 6968 0 0 6993 0 0 6952 0 0 7034 0 0 6935 0 0 7006 0 0 7000 0 0 7000 0 0 6939 0 0 6882 0 0 6907 0 0 6943 0 0 7076 0 0 6983 0 0 7033 0 0 6961 0 0 7067 0 0 6916 0 0 6961 0 0 6951 0 0 7013 0 0 3565 0 0 57 0 0 20 0 0 18 0 0 7 0 0 6 0 0 7 0 0 3 0 0 4 0 0 2 0 0 
2 0 0 1 0 0 4 0 0 6 0 0 0 0 0 3 0 0 10 0 0 10 0 0 12 0 0 63 0 0 3507 0 0 6973 0 0 6992 0 0 6996 0 0 7028 0 0 6975 0 0 7012 0 0 6958 0 0 7084 0 0 7014 0 0 6945 0 0 7040 0 0 6999 0 0 6980 0 0 6993 0 0 7002 0 0 7009 0 0 7053 0 0 6952 0 0 7136 0 0 7016 0 0 6975 0 0 7039 0 0 6905 0 0 7008 0 0 6878 0 0 6844 0 0 6936 0 0 6983 0 0 7043 0 0 6989 0 0 6981 0 0 6887 0 0 6965 0 0 6907 0 0 7069 0 0 7019 0 0 6886 0 0 7091 0 0 6980 0 0 3499 0 0 57 0 0 9 0 0 4 0 0 1 0 0 6 0 0 9 0 0 4 0 0 4 0 0 3 0 0 
2 0 0 8 0 0 6 0 0 6 0 0 7 0 0 3 0 0 7 0 0 6 0 0 9 0 0 68 0 0 3511 0 0 6989 0 0 6945 0 0 7074 0 0 7097 0 0 6975 0 0 6912 0 0 6933 0 0 7011 0 0 7028 0 0 6891 0 0 6955 0 0 6965 0 0 7027 0 0 6980 0 0 7071 0 0 7072 0 0 6819 0 0 6993 0 0 6899 0 0 6949 0 0 6928 0 0 7024 0 0 6898 0 0 6977 0 0 6830 0 0 7098 0 0 7128 0 0 7071 0 0 6998 0 0 6877 0 0 6908 0 0 6886 0 0 6823 0 0 7002 0 0 7069 0 0 7035 0 0 6979 0 0 7019 0 0 6859 0 0 3462 0 0 49 0 0 9 0 0 4 0 0 6 0 0 7 0 0 4 0 0 3 0 0 6 0 0 6 0 0 
1 0 0 6 0 0 6 0 0 7 0 0 12 0 0 9 0 0 5 0 0 7 0 0 10 0 0 59 0 0 3398 0 0 7000 0 0 7017 0 0 6897 0 0 6966 0 0 6955 0 0 6825 0 0 6952 0 0 6881 0 0 6848 0 0 6882 0 0 6943 0 0 7119 0 0 6940 0 0 6923 0 0 7033 0 0 7060 0 0 6916 0 0 6961 0 0 6935 0 0 6986 0 0 6901 0 0 6970 0 0 7182 0 0 6989 0 0 6860 0 0 6974 0 0 6896 0 0 6952 0 0 6879 0 0 7015 0 0 6860 0 0 6812 0 0 6928 0 0 6926 0 0 6904 0 0 7025 0 0 7036 0 0 7000 0 0 7100 0 0 3510 0 0 56 0 0 11 0 0 7 0 0 8 0 0 6 0 0 3 0 0 3 0 0 2 0 0 2 0 0 
3 0 0 5 0 0 7 0 0 2 0 0 13 0 0 10 0 0 13 0 0 13 0 0 18 0 0 48 0 0 3593 0 0 6994 0 0 6898 0 0 6930 0 0 7116 0 0 7049 0 0 6968 0 0 6908 0 0 6972 0 0 6954 0 0 6974 0 0 6931 0 0 6935 0 0 6869 0 0 6734 0 0 6993 0 0 6988 0 0 6981 0 0 6947 0 0 7040 0 0 7086 0 0 6956 0 0 6944 0 0 7058 0 0 6911 0 0 6923 0 0 6966 0 0 7031 0 0 7120 0 0 6946 0 0 7030 0 0 7004 0 0 6920 0 0 6910 0 0 6952 0 0 7020 0 0 7071 0 0 6730 0 0 6877 0 0 6833 0 0 3537 0 0 60 0 0 10 0 0 10 0 0 9 0 0 5 0 0 5 0 0 4 0 0 3 0 0 3 0 0 
1 0 0 7 0 0 4 0 0 8 0 0 7 0 0 12 0 0 17 0 0 18 0 0 18 0 0 52 0 0 3582 0 0 7075 0 0 6974 0 0 6968 0 0 7082 0 0 7024 0 0 7038 0 0 7029 0 0 6881 0 0 7005 0 0 6975 0 0 7007 0 0 6933 0 0 7066 0 0 7077 0 0 7073 0 0 7017 0 0 6963 0 0 6898 0 0 6896 0 0 7057 0 0 6842 0 0 6855 0 0 7159 0 0 6980 0 0 6982 0 0 7025 0 0 6974 0 0 6971 0 0 7003 0 0 6997 0 0 6892 0 0 7043 0 0 7075 0 0 6970 0 0 6915 0 0 7033 0 0 6937 0 0 6936 0 0 6816 0 0 3449 0 0 49 0 0 18 0 0 12 0 0 12 0 0 4 0 0 4 0 0 3 0 0 3 0 0 7 0 0 
3 0 0 5 0 0 2 0 0 1 0 0 6 0 0 9 0 0 5 0 0 10 0 0 12 0 0 55 0 0 3494 0 0 6871 0 0 6887 0 0 7055 0 0 6986 0 0 7109 0 0 7085 0 0 6918 0 0 6964 0 0 7029 0 0 7004 0 0 7108 0 0 7112 0 0 7051 0 0 6923 0 0 7102 0 0 7078 0 0 6990 0 0 7052 0 0 7052 0 0 7034 0 0 6929 0 0 6931 0 0 6969 0 0 7010 0 0 6962 0 0 6972 0 0 6919 0 0 7008 0 0 7079 0 0 7070 0 0 7117 0 0 7035 0 0 6990 0 0 7205 0 0 7024 0 0 6909 0 0 6860 0 0 7012 0 0 7007 0 0 3502 0 0 66 0 0 6 0 0 8 0 0 7 0 0 9 0 0 2 0 0 5 0 0 3 0 0 3 0 0 
2 0 0 7 0 0 6 0 0 4 0 0 4 0 0 7 0 0 6 0 0 10 0 0 11 0 0 44 0 0 3501 0 0 6962 0 0 6914 0 0 7038 0 0 7072 0 0 7076 0 0 7089 0 0 7058 0 0 7089 0 0 7055 0 0 7149 0 0 7145 0 0 7006 0 0 6876 0 0 7057 0 0 6945 0 0 6989 0 0 7112 0 0 6937 0 0 6958 0 0 6890 0 0 7017 0 0 7019 0 0 7018 0 0 6828 0 0 6874 0 0 6906 0 0 6975 0 0 7008 0 0 7097 0 0 6964 0 0 7011 0 0 6844 0 0 6859 0 0 7040 0 0 7062 0 0 7017 0 0 6968 0 0 7044 0 0 6909 0 0 3465 0 0 66 0 0 14 0 0 11 0 0 9 0 0 4 0 0 5 0 0 3 0 0 4 0 0 4 0 0 
2 0 0 3 0 0 4 0 0 8 0 0 8 0 0 7 0 0 7 0 0 10 0 0 10 0 0 52 0 0 3428 0 0 6772 0 0 6846 0 0 6930 0 0 7069 0 0 6879 0 0 6983 0 0 6989 0 0 6838 0 0 6922 0 0 6970 0 0 6900 0 0 7048 0 0 7127 0 0 6994 0 0 6963 0 0 6909 0 0 6972 0 0 6869 0 0 6946 0 0 6917 0 0 6922 0 0 7075 0 0 6867 0 0 6895 0 0 6965 0 0 7109 0 0 6856 0 0 6889 0 0 6952 0 0 6992 0 0 7129 0 0 6921 0 0 7002 0 0 7037 0 0 7061 0 0 6986 0 0 6992 0 0 7010 0 0 6946 0 0 3422 0 0 48 0 0 12 0 0 8 0 0 3 0 0 4 0 0 8 0 0 8 0 0 5 0 0 3 0 0 
1 0 0 5 0 0 6 0 0 8 0 0 9 0 0 3 0 0 10 0 0 9 0 0 15 0 0 57 0 0 3493 0 0 6838 0 0 6920 0 0 7058 0 0 7075 0 0 7239 0 0 6984 0 0 7043 0 0 7021 0 0 6997 0 0 7003 0 0 7030 0 0 6806 0 0 7057 0 0 6995 0 0 6861 0 0 6887 0 0 7062 0 0 6968 0 0 6901 0 0 6954 0 0 6910 0 0 7008 0 0 6947 0 0 7010 0 0 6904 0 0 7001 0 0 6879 0 0 6980 0 0 6919 0 0 6999 0 0 6914 0 0 7099 0 0 6949 0 0 7046 0 0 6991 0 0 7044 0 0 7123 0 0 7043 0 0 6992 0 0 3540 0 0 53 0 0 16 0 0 8 0 0 5 0 0 7 0 0 5 0 0 7 0 0 5 0 0 4 0 0 
1 0 0 5 0 0 9 0 0 7 0 0 10 0 0 7 0 0 6 0 0 12 0 0 16 0 0 52 0 0 3504 0 0 6926 0 0 6965 0 0 6886 0 0 7032 0 0 7010 0 0 7004 0 0 6895 0 0 6966 0 0 6925 0 0 7146 0 0 7040 0 0 7099 0 0 6920 0 0 6960 0 0 6984 0 0 7022 0 0 7009 0 0 6952 0 0 6885 0 0 6963 0 0 6994 0 0 7013 0 0 6873 0 0 6993 0 0 6983 0 0 6891 0 0 6955 0 0 6942 0 0 6952 0 0 7031 0 0 7030 0 0 6894 0 0 6988 0 0 6989 0 0 6964 0 0 6913 0 0 6893 0 0 7115 0 0 7037 0 0 3525 0 0 61 0 0 16 0 0 10 0 0 9 0 0 8 0 0 3 0 0 3 0 0 3 0 0 2 0 0 
2 0 0 3 0 0 4 0 0 7 0 0 4 0 0 5 0 0 2 0 0 7 0 0 17 0 0 46 0 0 3582 0 0 6974 0 0 7068 0 0 7025 0 0 6951 0 0 6985 0 0 6944 0 0 6983 0 0 6973 0 0 6913 0 0 6912 0 0 6928 0 0 6994 0 0 7068 0 0 7144 0 0 7135 0 0 7018 0 0 7044 0 0 7040 0 0 6987 0 0 6980 0 0 6979 0 0 7029 0 0 7136 0 0 6927 0 0 6858 0 0 7103 0 0 6996 0 0 6981 0 0 6939 0 0 7080 0 0 6902 0 0 7070 0 0 7096 0 0 6858 0 0 6899 0 0 6903 0 0 7198 0 0 6868 0 0 7024 0 0 3465 0 0 58 0 0 14 0 0 19 0 0 6 0 0 7 0 0 8 0 0 5 0 0 5 0 0 5 0 0 
1 0 0 4 0 0 3 0 0 5 0 0 3 0 0 2 0 0 2 0 0 9 0 0 9 0 0 61 0 0 3524 0 0 7021 0 0 6938 0 0 6870 0 0 6914 0 0 7016 0 0 7141 0 0 6981 0 0 7027 0 0 6971 0 0 6959 0 0 6886 0 0 6951 0 0 6966 0 0 6989 0 0 6927 0 0 6944 0 0 6946 0 0 6913 0 0 6882 0 0 6952 0 0 6968 0 0 7128 0 0 7038 0 0 7028 0 0 7030 0 0 7044 0 0 7070 0 0 6996 0 0 6983 0 0 7032 0 0 6944 0 0 6980 0 0 6947 0 0 7135 0 0 6923 0 0 6967 0 0 6978 0 0 7036 0 0 6840 0 0 3488 0 0 56 0 0 17 0 0 11 0 0 6 0 0 12 0 0 12 0 0 7 0 0 5 0 0 4 0 0 
0 0 0 2 0 0 2 0 0 6 0 0 3 0 0 5 0 0 7 0 0 3 0 0 7 0 0 61 0 0 3457 0 0 6833 0 0 6931 0 0 6942 0 0 7128 0 0 6901 0 0 6978 0 0 6924 0 0 6928 0 0 7000 0 0 6886 0 0 7000 0 0 7044 0 0 6950 0 0 6956 0 0 7090 0 0 6940 0 0 7035 0 0 7064 0 0 6810 0 0 6996 0 0 7041 0 0 7003 0 0 6926 0 0 7133 0 0 6953 0 0 7101 0 0 7004 0 0 7101 0 0 7053 0 0 7063 0 0 6974 0 0 6905 0 0 7002 0 0 6915 0 0 6886 0 0 6895 0 0 7079 0 0 6968 0 0 6920 0 0 3469 0 0 49 0 0 14 0 0 6 0 0 9 0 0 8 0 0 5 0 0 6 0 0 7 0 0 7 0 0 
3 0 0 10 0 0 8 0 0 7 0 0 6 0 0 7 0 0 6 0 0 12 0 0 8 0 0 58 0 0 3451 0 0 6960 0 0 6949 0 0 6954 0 0 6974 0 0 7054 0 0 6984 0 0 6922 0 0 7002 0 0 7004 0 0 6873 0 0 6888 0 0 7038 0 0 6939 0 0 7010 0 0 6956 0 0 6990 0 0 6912 0 0 6836 0 0 7030 0 0 7009 0 0 7087 0 0 7010 0 0 6951 0 0 6909 0 0 6944 0 0 7013 0 0 6823 0 0 6998 0 0 7024 0 0 6947 0 0 7006 0 0 6955 0 0 7031 0 0 6872 0 0 6951 0 0 6820 0 0 6880 0 0 7026 0 0 6960 0 0 3487 0 0 50 0 0 11 0 0 14 0 0 10 0 0 8 0 0 10 0 0 9 0 0 5 0 0 3 0 0 
1 0 0 1 0 0 4 0 0 3 0 0 5 0 0 5 0 0 12 0 0 11 0 0 15 0 0 57 0 0 3564 0 0 6973 0 0 6882 0 0 6938 0 0 7008 0 0 6935 0 0 6946 0 0 7128 0 0 7058 0 0 6877 0 0 7043 0 0 6903 0 0 7056 0 0 6934 0 0 6935 0 0 7073 0 0 6890 0 0 6986 0 0 7010 0 0 6877 0 0 7019 0 0 7003 0 0 7049 0 0 7045 0 0 7132 0 0 6822 0 0 7052 0 0 7022 0 0 7095 0 0 6966 0 0 6861 0 0 6890 0 0 7045 0 0 6968 0 0 6918 0 0 7061 0 0 6998 0 0 6942 0 0 7074 0 0 6947 0 0 3494 0 0 62 0 0 20 0 0 11 0 0 5 0 0 5 0 0 6 0 0 4 0 0 9 0 0 1 0 0 
1 0 0 10 0 0 7 0 0 4 0 0 1 0 0 6 0 0 8 0 0 11 0 0 17 0 0 59 0 0 3575 0 0 6994 0 0 6962 0 0 6983 0 0 6969 0 0 6940 0 0 6866 0 0 6987 0 0 7175 0 0 7001 0 0 7056 0 0 6983 0 0 7118 0 0 6987 0 0 6991 0 0 7102 0 0 6822 0 0 7022 0 0 7087 0 0 7011 0 0 6954 0 0 7070 0 0 6942 0 0 6961 0 0 6922 0 0 6994 0 0 7068 0 0 6982 0 0 7161 0 0 6864 0 0 7001 0 0 7009 0 0 7089 0 0 7009 0 0 6941 0 0 7060 0 0 6933 0 0 6908 0 0 7060 0 0 6870 0 0 3436 0 0 65 0 0 17 0 0 10 0 0 6 0 0 5 0 0 4 0 0 3 0 0 2 0 0 2 0 0 
3 0 0 1 0 0 2 0 0 5 0 0 6 0 0 3 0 0 5 0 0 9 0 0 20 0 0 49 0 0 3564 0 0 6956 0 0 6948 0 0 7047 0 0 7126 0 0 6951 0 0 7026 0 0 7070 0 0 6829 0 0 6886 0 0 7011 0 0 6917 0 0 6968 0 0 6966 0 0 7000 0 0 7021 0 0 6993 0 0 7027 0 0 6952 0 0 7064 0 0 7066 0 0 7087 0 0 6955 0 0 7050 0 0 7075 0 0 6978 0 0 6912 0 0 6838 0 0 6910 0 0 7029 0 0 6923 0 0 6907 0 0 6931 0 0 6907 0 0 6875 0 0 6905 0 0 6944 0 0 7016 0 0 7010 0 0 6929 0 0 3453 0 0 57 0 0 17 0 0 8 0 0 7 0 0 3 0 0 5 0 0 4 0 0 4 0 0 1 0 0 
1 0 0 9 0 0 7 0 0 6 0 0 5 0 0 12 0 0 17 0 0 17 0 0 13 0 0 65 0 0 3487 0 0 6997 0 0 6891 0 0 7029 0 0 6959 0 0 6829 0 0 6945 0 0 6978 0 0 6945 0 0 6883 0 0 6930 0 0 6987 0 0 7062 0 0 7102 0 0 6941 0 0 6995 0 0 7002 0 0 7098 0 0 7097 0 0 7033 0 0 6967 0 0 7094 0 0 6876 0 0 6900 0 0 6902 0 0 7065 0 0 7006 0 0 7060 0 0 7072 0 0 7042 0 0 7012 0 0 6998 0 0 7052 0 0 7091 0 0 6750 0 0 7016 0 0 6955 0 0 6996 0 0 7059 0 0 6892 0 0 3575 0 0 54 0 0 15 0 0 9 0 0 7 0 0 5 0 0 6 0 0 5 0 0 5 0 0 2 0 0 
1 0 0 3 0 0 8 0 0 4 0 0 9 0 0 12 0 0 8 0 0 21 0 0 13 0 0 53 0 0 3534 0 0 6957 0 0 6894 0 0 6906 0 0 7019 0 0 6998 0 0 6990 0 0 7048 0 0 7086 0 0 7018 0 0 7038 0 0 6907 0 0 6956 0 0 7013 0 0 7048 0 0 6967 0 0 6990 0 0 6951 0 0 7032 0 0 6952 0 0 7005 0 0 6977 0 0 6950 0 0 7119 0 0 6915 0 0 7016 0 0 6980 0 0 6837 0 0 6866 0 0 6912 0 0 6837 0 0 6988 0 0 6947 0 0 6985 0 0 7052 0 0 7002 0 0 6962 0 0 7161 0 0 6991 0 0 6931 0 0 3488 0 0 57 0 0 15 0 0 11 0 0 13 0 0 8 0 0 9 0 0 8 0 0 5 0 0 4 0 0 
0 0 0 5 0 0 5 0 0 9 0 0 4 0 0 5 0 0 12 0 0 14 0 0 10 0 0 50 0 0 3497 0 0 6927 0 0 6866 0 0 6875 0 0 6935 0 0 6863 0 0 6994 0 0 6885 0 0 6986 0 0 6931 0 0 7001 0 0 6957 0 0 6998 0 0 7003 0 0 7035 0 0 6972 0 0 6921 0 0 6945 0 0 6956 0 0 6883 0 0 7022 0 0 6933 0 0 7079 0 0 7041 0 0 6799 0 0 6927 0 0 6913 0 0 7101 0 0 6974 0 0 7002 0 0 7023 0 0 6959 0 0 6946 0 0 6832 0 0 6975 0 0 7037 0 0 6890 0 0 6938 0 0 6994 0 0 6935 0 0 3541 0 0 66 0 0 17 0 0 14 0 0 10 0 0 8 0 0 9 0 0 10 0 0 7 0 0 7 0 0 
2 0 0 4 0 0 8 0 0 5 0 0 6 0 0 6 0 0 10 0 0 8 0 0 17 0 0 45 0 0 3573 0 0 6814 0 0 7012 0 0 7080 0 0 6858 0 0 6804 0 0 7072 0 0 6912 0 0 7034 0 0 6902 0 0 7046 0 0 6904 0 0 6991 0 0 7077 0 0 6812 0 0 6967 0 0 6939 0 0 6970 0 0 7090 0 0 6813 0 0 6904 0 0 6926 0 0 6949 0 0 6936 0 0 7017 0 0 7002 0 0 7019 0 0 6953 0 0 7076 0 0 7050 0 0 6834 0 0 6923 0 0 7054 0 0 6924 0 0 6944 0 0 6939 0 0 6915 0 0 7090 0 0 7054 0 0 6981 0 0 3463 0 0 62 0 0 6 0 0 8 0 0 6 0 0 9 0 0 7 0 0 4 0 0 5 0 0 8 0 0 
2 0 0 5 0 0 6 0 0 4 0 0 4 0 0 5 0 0 11 0 0 10 0 0 11 0 0 59 0 0 3443 0 0 6988 0 0 6956 0 0 7049 0 0 7137 0 0 7037 0 0 7098 0 0 7110 0 0 6989 0 0 6960 0 0 6968 0 0 6943 0 0 7121 0 0 7022 0 0 6964 0 0 7113 0 0 6919 0 0 6962 0 0 7027 0 0 6973 0 0 7059 0 0 7012 0 0 7096 0 0 6983 0 0 6963 0 0 7168 0 0 6969 0 0 6924 0 0 6957 0 0 7018 0 0 7052 0 0 6890 0 0 6885 0 0 7043 0 0 7045 0 0 6956 0 0 6905 0 0 7053 0 0 7116 0 0 6950 0 0 3500 0 0 45 0 0 11 0 0 4 0 0 16 0 0 11 0 0 8 0 0 4 0 0 2 0 0 4 0 0 
2 0 0 4 0 0 3 0 0 3 0 0 5 0 0 6 0 0 6 0 0 4 0 0 7 0 0 50 0 0 3459 0 0 6966 0 0 7033 0 0 6880 0 0 6980 0 0 6930 0 0 7071 0 0 6999 0 0 7045 0 0 6965 0 0 6855 0 0 6930 0 0 7044 0 0 6944 0 0 6981 0 0 7038 0 0 6902 0 0 7066 0 0 6975 0 0 6938 0 0 6971 0 0 7074 0 0 7022 0 0 7076 0 0 6857 0 0 7068 0 0 7003 0 0 6902 0 0 7078 0 0 7004 0 0 6990 0 0 6882 0 0 7029 0 0 6980 0 0 6963 0 0 7016 0 0 6917 0 0 7019 0 0 6983 0 0 6864 0 0 3557 0 0 43 0 0 5 0 0 8 0 0 6 0 0 7 0 0 4 0 0 5 0 0 2 0 0 0 0 0 
1 0 0 4 0 0 4 0 0 2 0 0 4 0 0 8 0 0 6 0 0 6 0 0 5 0 0 51 0 0 3468 0 0 6943 0 0 6947 0 0 6971 0 0 7033 0 0 6962 0 0 6850 0 0 6895 0 0 7062 0 0 7018 0 0 7058 0 0 7034 0 0 7037 0 0 6972 0 0 7030 0 0 6990 0 0 6963 0 0 6886 0 0 6973 0 0 6974 0 0 7137 0 0 6970 0 0 7033 0 0 6872 0 0 6949 0 0 7010 0 0 7058 0 0 7039 0 0 6988 0 0 6880 0 0 6962 0 0 7011 0 0 6961 0 0 6993 0 0 6975 0 0 6913 0 0 6925 0 0 6873 0 0 6778 0 0 6936 0 0 3423 0 0 58 0 0 11 0 0 5 0 0 4 0 0 4 0 0 4 0 0 3 0 0 4 0 0 5 0 0 
0 0 0 1 0 0 3 0 0 2 0 0 3 0 0 4 0 0 4 0 0 6 0 0 5 0 0 59 0 0 3497 0 0 6812 0 0 6938 0 0 6823 0 0 7092 0 0 6938 0 0 7088 0 0 7042 0 0 6947 0 0 6912 0 0 6937 0 0 6975 0 0 6987 0 0 6835 0 0 7048 0 0 7009 0 0 6917 0 0 7021 0 0 7003 0 0 7015 0 0 6976 0 0 6967 0 0 7030 0 0 6910 0 0 6936 0 0 6955 0 0 6907 0 0 6977 0 0 7064 0 0 7028 0 0 7025 0 0 6954 0 0 7146 0 0 6894 0 0 6914 0 0 6971 0 0 7001 0 0 6938 0 0 6990 0 0 6983 0 0 3481 0 0 46 0 0 10 0 0 8 0 0 3 0 0 2 0 0 1 0 0 1 0 0 2 0 0 1 0 0 
0 0 0 3 0 0 2 0 0 4 0 0 12 0 0 13 0 0 9 0 0 10 0 0 16 0 0 59 0 0 3546 0 0 7008 0 0 6861 0 0 6989 0 0 6923 0 0 7017 0 0 6903 0 0 6897 0 0 6989 0 0 6999 0 0 6935 0 0 7083 0 0 7064 0 0 6858 0 0 6921 0 0 6856 0 0 7008 0 0 7073 0 0 6982 0 0 6948 0 0 6909 0 0 6947 0 0 7054 0 0 7033 0 0 7078 0 0 7040 0 0 7038 0 0 6987 0 0 7022 0 0 7106 0 0 7103 0 0 7012 0 0 6954 0 0 6989 0 0 6880 0 0 7077 0 0 6972 0 0 7053 0 0 6972 0 0 6877 0 0 3437 0 0 55 0 0 6 0 0 8 0 0 9 0 0 8 0 0 5 0 0 6 0 0 1 0 0 0 0 0 
1 0 0 1 0 0 1 0 0 3 0 0 3 0 0 8 0 0 7 0 0 5 0 0 7 0 0 45 0 0 3440 0 0 6935 0 0 6937 0 0 7007 0 0 6990 0 0 7054 0 0 6847 0 0 7013 0 0 7101 0 0 6916 0 0 6998 0 0 6915 0 0 6923 0 0 7060 0 0 6884 0 0 7117 0 0 7039 0 0 6921 0 0 6964 0 0 6889 0 0 7036 0 0 6947 0 0 6806 0 0 7029 0 0 7037 0 0 6993 0 0 7096 0 0 7100 0 0 7000 0 0 6999 0 0 7009 0 0 7027 0 0 7111 0 0 6863 0 0 7006 0 0 7147 0 0 7007 0 0 6996 0 0 7083 0 0 7091 0 0 3484 0 0 50 0 0 12 0 0 4 0 0 5 0 0 7 0 0 8 0 0 8 0 0 6 0 0 0 0 0 
0 0 0 2 0 0 3 0 0 4 0 0 4 0 0 5 0 0 3 0 0 4 0 0 10 0 0 57 0 0 3514 0 0 6895 0 0 6998 0 0 7000 0 0 6999 0 0 6914 0 0 7052 0 0 7033 0 0 7104 0 0 7031 0 0 6895 0 0 6991 0 0 6917 0 0 6928 0 0 6888 0 0 7146 0 0 6997 0 0 7021 0 0 7002 0 0 6953 0 0 7057 0 0 6995 0 0 7000 0 0 7057 0 0 6927 0 0 7181 0 0 6913 0 0 7022 0 0 6910 0 0 7042 0 0 6894 0 0 6959 0 0 7104 0 0 6818 0 0 6924 0 0 6907 0 0 7034 0 0 6937 0 0 6922 0 0 6947 0 0 3475 0 0 54 0 0 13 0 0 7 0 0 5 0 0 9 0 0 9 0 0 7 0 0 3 0 0 2 0 0 
0 0 0 5 0 0 3 0 0 3 0 0 9 0 0 6 0 0 5 0 0 7 0 0 8 0 0 40 0 0 3491 0 0 6906 0 0 6860 0 0 6998 0 0 6940 0 0 7129 0 0 6940 0 0 7087 0 0 7033 0 0 6990 0 0 6998 0 0 7062 0 0 6936 0 0 6940 0 0 6954 0 0 7022 0 0 6957 0 0 7009 0 0 7039 0 0 6957 0 0 6915 0 0 6929 0 0 7013 0 0 7061 0 0 7022 0 0 6989 0 0 6928 0 0 6912 0 0 7087 0 0 7030 0 0 6938 0 0 7064 0 0 7019 0 0 6987 0 0 6906 0 0 6879 0 0 7039 0 0 6903 0 0 6905 0 0 6899 0 0 3512 0 0 52 0 0 11 0 0 9 0 0 7 0 0 4 0 0 3 0 0 4 0 0 3 0 0 3 0 0 
2 0 0 3 0 0 1 0 0 6 0 0 5 0 0 2 0 0 6 0 0 8 0 0 8 0 0 58 0 0 3468 0 0 6954 0 0 6953 0 0 7027 0 0 6894 0 0 7010 0 0 6984 0 0 6914 0 0 6912 0 0 6927 0 0 6913 0 0 6937 0 0 7088 0 0 6905 0 0 6945 0 0 6962 0 0 6938 0 0 7065 0 0 6957 0 0 6832 0 0 6940 0 0 6847 0 0 6878 0 0 6937 0 0 6910 0 0 6907 0 0 6952 0 0 6902 0 0 6887 0 0 6926 0 0 6873 0 0 6815 0 0 7046 0 0 7049 0 0 6904 0 0 7080 0 0 6951 0 0 6959 0 0 6849 0 0 6963 0 0 3444 0 0 55 0 0 7 0 0 8 0 0 2 0 0 2 0 0 2 0 0 2 0 0 3 0 0 4 0 0 
1 0 0 1 0 0 4 0 0 6 0 0 7 0 0 8 0 0 12 0 0 5 0 0 9 0 0 32 0 0 1784 0 0 3420 0 0 3474 0 0 3438 0 0 3435 0 0 3455 0 0 3480 0 0 3438 0 0 3549 0 0 3545 0 0 3481 0 0 3518 0 0 3448 0 0 3427 0 0 3479 0 0 3442 0 0 3454 0 0 3474 0 0 3529 0 0 3547 0 0 3557 0 0 3464 0 0 3431 0 0 3509 0 0 3565 0 0 3513 0 0 3532 0 0 3472 0 0 3456 0 0 3477 0 0 3480 0 0 3475 0 0 3488 0 0 3448 0 0 3515 0 0 3469 0 0 3484 0 0 3492 0 0 3474 0 0 3540 0 0 1696 0 0 34 0 0 6 0 0 5 0 0 6 0 0 2 0 0 0 0 0 1 0 0 2 0 0 5 0 0 
0 0 0 5 0 0 3 0 0 2 0 0 1 0 0 8 0 0 8 0 0 6 0 0 6 0 0 12 0 0 30 0 0 53 0 0 59 0 0 47 0 0 49 0 0 49 0 0 47 0 0 56 0 0 56 0 0 54 0 0 65 0 0 48 0 0 51 0 0 59 0 0 49 0 0 51 0 0 59 0 0 56 0 0 56 0 0 63 0 0 42 0 0 54 0 0 55 0 0 61 0 0 57 0 0 57 0 0 59 0 0 51 0 0 58 0 0 46 0 0 50 0 0 51 0 0 62 0 0 57 0 0 53 0 0 56 0 0 62 0 0 45 0 0 65 0 0 52 0 0 25 0 0 5 0 0 10 0 0 2 0 0 4 0 0 3 0 0 4 0 0 2 0 0 0 0 0 3 0 0 
0 0 0 2 0 0 0 0 0 5 0 0 5 0 0 5 0 0 1 0 0 5 0 0 6 0 0 4 0 0 3 0 0 15 0 0 13 0 0 4 0 0 12 0 0 15 0 0 5 0 0 10 0 0 20 0 0 8 0 0 6 0 0 11 0 0 17 0 0 19 0 0 18 0 0 13 0 0 23 0 0 12 0 0 14 0 0 12 0 0 15 0 0 18 0 0 13 0 0 17 0 0 15 0 0 10 0 0 8 0 0 18 0 0 8 0 0 8 0 0 19 0 0 11 0 0 11 0 0 13 0 0 13 0 0 7 0 0 12 0 0 12 0 0 7 0 0 8 0 0 10 0 0 5 0 0 2 0 0 9 0 0 5 0 0 9 0 0 3 0 0 1 0 0 1 0 0 0 0 0 
0 0 0 1 0 0 4 0 0 6 0 0 5 0 0 1 0 0 3 0 0 3 0 0 0 0 0 6 0 0 2 0 0 11 0 0 5 0 0 7 0 0 15 0 0 6 0 0 4 0 0 9 0 0 14 0 0 10 0 0 5 0 0 10 0 0 12 0 0 6 0 0 11 0 0 11 0 0 12 0 0 16 0 0 8 0 0 7 0 0 16 0 0 18 0 0 14 0 0 9 0 0 6 0 0 10 0 0 5 0 0 11 0 0 9 0 0 12 0 0 9 0 0 9 0 0 10 0 0 10 0 0 6 0 0 9 0 0 6 0 0 9 0 0 7 0 0 5 0 0 10 0 0 3 0 0 2 0 0 2 0 0 2 0 0 3 0 0 3 0 0 4 0 0 1 0 0 0 0 0 
1 0 0 0 0 0 1 0 0 1 0 0 1 0 0 2 0 0 2 0 0 0 0 0 5 0 0 4 0 0 7 0 0 8 0 0 4 0 0 4 0 0 9 0 0 8 0 0 7 0 0 8 0 0 8 0 0 7 0 0 10 0 0 9 0 0 7 0 0 5 0 0 6 0 0 9 0 0 12 0 0 16 0 0 3 0 0 3 0 0 7 0 0 12 0 0 13 0 0 5 0 0 4 0 0 8 0 0 6 0 0 7 0 0 13 0 0 15 0 0 7 0 0 6 0 0 4 0 0 7 0 0 12 0 0 7 0 0 6 0 0 8 0 0 1 0 0 6 0 0 3 0 0 8 0 0 0 0 0 0 0 0 3 0 0 2 0 0 1 0 0 0 0 0 1 0 0 0 0 0 
0 0 0 2 0 0 0 0 0 2 0 0 0 0 0 1 0 0 1 0 0 1 0 0 6 0 0 3 0 0 11 0 0 5 0 0 3 0 0 1 0 0 4 0 0 7 0 0 5 0 0 8 0 0 9 0 0 4 0 0 8 0 0 7 0 0 9 0 0 7 0 0 8 0 0 10 0 0 9 0 0 11 0 0 1 0 0 5 0 0 5 0 0 7 0 0 8 0 0 2 0 0 2 0 0 8 0 0 7 0 0 8 0 0 4 0 0 15 0 0 9 0 0 7 0 0 5 0 0 2 0 0 4 0 0 8 0 0 7 0 0 6 0 0 1 0 0 3 0 0 3 0 0 5 0 0 4 0 0 1 0 0 2 0 0 4 0 0 2 0 0 2 0 0 0 0 0 0 0 0 
1 0 0 0 0 0 0 0 0 2 0 0 0 0 0 3 0 0 2 0 0 4 0 0 3 0 0 2 0 0 4 0 0 1 0 0 2 0 0 1 0 0 3 0 0 4 0 0 12 0 0 5 0 0 4 0 0 8 0 0 6 0 0 4 0 0 4 0 0 6 0 0 3 0 0 4 0 0 5 0 0 9 0 0 10 0 0 6 0 0 2 0 0 7 0 0 9 0 0 3 0 0 5 0 0 8 0 0 4 0 0 3 0 0 7 0 0 9 0 0 8 0 0 2 0 0 4 0 0 7 0 0 2 0 0 4 0 0 6 0 0 5 0 0 3 0 0 3 0 0 6 0 0 6 0 0 2 0 0 0 0 0 0 0 0 5 0 0 1 0 0 2 0 0 3 0 0 4 0 0 
0 0 0 0 0 0 2 0 0 2 0 0 2 0 0 1 0 0 2 0 0 4 0 0 1 0 0 2 0 0 3 0 0 3 0 0 0 0 0 3 0 0 6 0 0 8 0 0 4 0 0 6 0 0 5 0 0 6 0 0 2 0 0 4 0 0 2 0 0 1 0 0 5 0 0 4 0 0 8 0 0 4 0 0 7 0 0 3 0 0 5 0 0 5 0 0 7 0 0 8 0 0 4 0 0 6 0 0 4 0 0 5 0 0 3 0 0 3 0 0 3 0 0 8 0 0 3 0 0 4 0 0 3 0 0 3 0 0 6 0 0 3 0 0 2 0 0 3 0 0 7 0 0 5 0 0 5 0 0 2 0 0 0 0 0 4 0 0 4 0 0 2 0 0 0 0 0 2 0 0 
0 0 0 0 0 0 1 0 0 0 0 0 1 0 0 0 0 0 1 0 0 1 0 0 3 0 0 5 0 0 5 0 0 4 0 0 3 0 0 6 0 0 2 0 0 1 0 0 4 0 0 5 0 0 4 0 0 2 0 0 2 0 0 3 0 0 5 0 0 1 0 0 0 0 0 6 0 0 5 0 0 3 0 0 7 0 0 3 0 0 3 0 0 2 0 0 5 0 0 7 0 0 3 0 0 6 0 0 2 0 0 1 0 0 4 0 0 4 0 0 3 0 0 5 0 0 5 0 0 2 0 0 0 0 0 4 0 0 3 0 0 5 0 0 2 0 0 7 0 0 5 0 0 4 0 0 4 0 0 5 0 0 1 0 0 2 0 0 2 0 0 2 0 0 0 0 0 1 0 0 
0 0 0 2 0 0 1 0 0 3 0 0 0 0 0 0 0 0 0 0 0 1 0 0 5 0 0 2 0 0 5 0 0 2 0 0 4 0 0 1 0 0 3 0 0 3 0 0 2 0 0 2 0 0 3 0 0 1 0 0 0 0 0 4 0 0 3 0 0 2 0 0 0 0 0 6 0 0 3 0 0 2 0 0 5 0 0 10 0 0 3 0 0 2 0 0 2 0 0 4 0 0 5 0 0 3 0 0 1 0 0 0 0 0 3 0 0 3 0 0 5 0 0 4 0 0 2 0 0 6 0 0 2 0 0 0 0 0 0 0 0 0 0 0 2 0 0 4 0 0 3 0 0 4 0 0 3 0 0 3 0 0 2 0 0 2 0 0 3 0 0 2 0 0 0 0 0 0 0 0 
