P3
# This is a dose file slice at depth 33 of 100
60 60
# now we give the maximum value of the RGB coordinates.
21610
0 0 0 2 0 0 2 0 0 0 0 0 1 0 0 2 0 0 3 0 0 1 0 0 0 0 0 1 0 0 3 0 0 0 0 0 3 0 0 2 0 0 2 0 0 3 0 0 6 0 0 1 0 0 3 0 0 2 0 0 2 0 0 5 0 0 0 0 0 2 0 0 1 0 0 6 0 0 4 0 0 2 0 0 3 0 0 2 0 0 4 0 0 3 0 0 1 0 0 3 0 0 2 0 0 3 0 0 4 0 0 3 0 0 3 0 0 2 0 0 0 0 0 1 0 0 3 0 0 3 0 0 2 0 0 0 0 0 3 0 0 1 0 0 3 0 0 0 0 0 0 0 0 4 0 0 0 0 0 1 0 0 0 0 0 1 0 0 0 0 0 1 0 0 1 0 0 0 0 0 
1 0 0 5 0 0 7 0 0 5 0 0 1 0 0 2 0 0 3 0 0 2 0 0 5 0 0 4 0 0 2 0 0 1 0 0 7 0 0 8 0 0 4 0 0 6 0 0 8 0 0 8 0 0 4 0 0 7 0 0 9 0 0 9 0 0 4 0 0 4 0 0 3 0 0 9 0 0 9 0 0 6 0 0 8 0 0 3 0 0 12 0 0 3 0 0 8 0 0 4 0 0 4 0 0 9 0 0 5 0 0 8 0 0 9 0 0 8 0 0 6 0 0 5 0 0 7 0 0 4 0 0 1 0 0 11 0 0 5 0 0 5 0 0 6 0 0 4 0 0 4 0 0 3 0 0 3 0 0 0 0 0 2 0 0 2 0 0 3 0 0 3 0 0 4 0 0 0 0 0 
0 0 0 1 0 0 1 0 0 2 0 0 4 0 0 1 0 0 1 0 0 4 0 0 3 0 0 5 0 0 5 0 0 1 0 0 4 0 0 5 0 0 3 0 0 4 0 0 5 0 0 7 0 0 6 0 0 5 0 0 5 0 0 5 0 0 5 0 0 6 0 0 8 0 0 4 0 0 12 0 0 8 0 0 10 0 0 4 0 0 11 0 0 4 0 0 7 0 0 2 0 0 12 0 0 9 0 0 6 0 0 5 0 0 12 0 0 6 0 0 9 0 0 4 0 0 15 0 0 2 0 0 6 0 0 9 0 0 7 0 0 12 0 0 6 0 0 7 0 0 5 0 0 7 0 0 0 0 0 2 0 0 4 0 0 5 0 0 2 0 0 2 0 0 2 0 0 3 0 0 
0 0 0 4 0 0 1 0 0 0 0 0 2 0 0 2 0 0 3 0 0 3 0 0 2 0 0 5 0 0 5 0 0 4 0 0 5 0 0 3 0 0 6 0 0 4 0 0 1 0 0 13 0 0 12 0 0 12 0 0 8 0 0 2 0 0 6 0 0 7 0 0 8 0 0 10 0 0 12 0 0 12 0 0 9 0 0 7 0 0 4 0 0 12 0 0 3 0 0 7 0 0 14 0 0 8 0 0 6 0 0 6 0 0 14 0 0 5 0 0 7 0 0 7 0 0 12 0 0 5 0 0 14 0 0 13 0 0 9 0 0 8 0 0 10 0 0 6 0 0 4 0 0 7 0 0 3 0 0 7 0 0 4 0 0 5 0 0 4 0 0 6 0 0 2 0 0 3 0 0 
0 0 0 1 0 0 4 0 0 5 0 0 1 0 0 6 0 0 6 0 0 6 0 0 6 0 0 7 0 0 4 0 0 4 0 0 4 0 0 4 0 0 8 0 0 7 0 0 6 0 0 14 0 0 16 0 0 7 0 0 9 0 0 9 0 0 8 0 0 9 0 0 9 0 0 7 0 0 11 0 0 17 0 0 18 0 0 5 0 0 10 0 0 6 0 0 9 0 0 8 0 0 14 0 0 9 0 0 7 0 0 6 0 0 9 0 0 5 0 0 15 0 0 5 0 0 7 0 0 7 0 0 8 0 0 8 0 0 8 0 0 8 0 0 12 0 0 5 0 0 5 0 0 5 0 0 4 0 0 8 0 0 8 0 0 7 0 0 3 0 0 3 0 0 3 0 0 2 0 0 
1 0 0 2 0 0 3 0 0 6 0 0 8 0 0 8 0 0 4 0 0 4 0 0 2 0 0 5 0 0 6 0 0 4 0 0 9 0 0 8 0 0 5 0 0 8 0 0 7 0 0 13 0 0 14 0 0 5 0 0 12 0 0 10 0 0 4 0 0 7 0 0 8 0 0 7 0 0 11 0 0 12 0 0 15 0 0 11 0 0 11 0 0 11 0 0 12 0 0 8 0 0 16 0 0 7 0 0 9 0 0 13 0 0 9 0 0 15 0 0 11 0 0 7 0 0 8 0 0 11 0 0 11 0 0 8 0 0 7 0 0 9 0 0 4 0 0 3 0 0 7 0 0 2 0 0 5 0 0 8 0 0 7 0 0 2 0 0 5 0 0 3 0 0 4 0 0 5 0 0 
2 0 0 4 0 0 5 0 0 4 0 0 6 0 0 9 0 0 10 0 0 7 0 0 7 0 0 2 0 0 5 0 0 7 0 0 7 0 0 11 0 0 10 0 0 10 0 0 7 0 0 12 0 0 11 0 0 4 0 0 15 0 0 15 0 0 13 0 0 11 0 0 10 0 0 8 0 0 11 0 0 12 0 0 12 0 0 11 0 0 10 0 0 15 0 0 13 0 0 8 0 0 12 0 0 10 0 0 12 0 0 12 0 0 14 0 0 17 0 0 8 0 0 8 0 0 11 0 0 11 0 0 10 0 0 12 0 0 12 0 0 5 0 0 8 0 0 8 0 0 4 0 0 3 0 0 10 0 0 5 0 0 5 0 0 10 0 0 8 0 0 6 0 0 9 0 0 2 0 0 
2 0 0 4 0 0 9 0 0 5 0 0 6 0 0 3 0 0 5 0 0 8 0 0 7 0 0 8 0 0 4 0 0 7 0 0 9 0 0 10 0 0 11 0 0 12 0 0 12 0 0 14 0 0 10 0 0 14 0 0 9 0 0 20 0 0 12 0 0 18 0 0 12 0 0 9 0 0 14 0 0 11 0 0 8 0 0 18 0 0 13 0 0 18 0 0 19 0 0 17 0 0 12 0 0 9 0 0 17 0 0 16 0 0 14 0 0 8 0 0 9 0 0 17 0 0 13 0 0 14 0 0 10 0 0 11 0 0 17 0 0 7 0 0 8 0 0 9 0 0 2 0 0 4 0 0 8 0 0 6 0 0 7 0 0 12 0 0 6 0 0 6 0 0 4 0 0 1 0 0 
4 0 0 6 0 0 6 0 0 5 0 0 6 0 0 7 0 0 4 0 0 3 0 0 12 0 0 11 0 0 10 0 0 9 0 0 18 0 0 10 0 0 19 0 0 11 0 0 16 0 0 24 0 0 12 0 0 24 0 0 23 0 0 31 0 0 12 0 0 14 0 0 14 0 0 19 0 0 16 0 0 11 0 0 14 0 0 25 0 0 18 0 0 17 0 0 19 0 0 16 0 0 17 0 0 13 0 0 24 0 0 17 0 0 18 0 0 9 0 0 16 0 0 17 0 0 12 0 0 13 0 0 14 0 0 13 0 0 21 0 0 18 0 0 11 0 0 10 0 0 8 0 0 11 0 0 11 0 0 11 0 0 11 0 0 5 0 0 5 0 0 8 0 0 2 0 0 7 0 0 
1 0 0 3 0 0 5 0 0 12 0 0 8 0 0 10 0 0 6 0 0 12 0 0 12 0 0 15 0 0 46 0 0 63 0 0 71 0 0 70 0 0 68 0 0 71 0 0 82 0 0 70 0 0 74 0 0 69 0 0 80 0 0 90 0 0 70 0 0 66 0 0 72 0 0 72 0 0 73 0 0 68 0 0 79 0 0 70 0 0 89 0 0 68 0 0 74 0 0 74 0 0 76 0 0 79 0 0 71 0 0 94 0 0 80 0 0 88 0 0 73 0 0 59 0 0 75 0 0 88 0 0 82 0 0 67 0 0 57 0 0 70 0 0 72 0 0 77 0 0 45 0 0 16 0 0 11 0 0 11 0 0 10 0 0 7 0 0 3 0 0 5 0 0 5 0 0 3 0 0 
3 0 0 8 0 0 5 0 0 6 0 0 5 0 0 7 0 0 9 0 0 7 0 0 14 0 0 44 0 0 2538 0 0 4975 0 0 5043 0 0 5053 0 0 4949 0 0 5177 0 0 5157 0 0 4989 0 0 5024 0 0 5207 0 0 5175 0 0 5095 0 0 5129 0 0 5063 0 0 5162 0 0 5129 0 0 5000 0 0 5039 0 0 5091 0 0 5107 0 0 5139 0 0 5041 0 0 5139 0 0 5100 0 0 5165 0 0 5021 0 0 5094 0 0 5171 0 0 5099 0 0 5012 0 0 5164 0 0 5015 0 0 5083 0 0 5142 0 0 5103 0 0 4997 0 0 5066 0 0 5026 0 0 5093 0 0 5110 0 0 2498 0 0 33 0 0 8 0 0 12 0 0 6 0 0 9 0 0 9 0 0 6 0 0 2 0 0 4 0 0 
1 0 0 5 0 0 11 0 0 7 0 0 6 0 0 6 0 0 7 0 0 11 0 0 11 0 0 65 0 0 5059 0 0 10027 0 0 9918 0 0 10229 0 0 10034 0 0 10105 0 0 10018 0 0 10172 0 0 10085 0 0 10029 0 0 10089 0 0 9973 0 0 10191 0 0 10222 0 0 10172 0 0 10014 0 0 10057 0 0 10070 0 0 10066 0 0 10201 0 0 10268 0 0 10130 0 0 10250 0 0 10225 0 0 10101 0 0 10142 0 0 10252 0 0 10179 0 0 10108 0 0 10089 0 0 9950 0 0 10063 0 0 10052 0 0 10100 0 0 10179 0 0 10084 0 0 10092 0 0 10154 0 0 10027 0 0 10058 0 0 5115 0 0 64 0 0 12 0 0 11 0 0 14 0 0 8 0 0 4 0 0 4 0 0 4 0 0 3 0 0 
1 0 0 2 0 0 6 0 0 6 0 0 3 0 0 5 0 0 9 0 0 11 0 0 18 0 0 73 0 0 5066 0 0 10188 0 0 10308 0 0 10166 0 0 10084 0 0 10132 0 0 10191 0 0 10127 0 0 10342 0 0 10212 0 0 10222 0 0 10231 0 0 10070 0 0 9996 0 0 10104 0 0 10068 0 0 10379 0 0 10226 0 0 10200 0 0 10246 0 0 10151 0 0 10180 0 0 10223 0 0 10086 0 0 10220 0 0 10033 0 0 10104 0 0 10082 0 0 10164 0 0 10161 0 0 10201 0 0 10104 0 0 10290 0 0 10168 0 0 10218 0 0 10292 0 0 10318 0 0 10244 0 0 10168 0 0 10013 0 0 5126 0 0 83 0 0 9 0 0 11 0 0 10 0 0 10 0 0 8 0 0 5 0 0 8 0 0 4 0 0 
0 0 0 0 0 0 5 0 0 8 0 0 6 0 0 4 0 0 5 0 0 14 0 0 15 0 0 70 0 0 5109 0 0 10059 0 0 10178 0 0 10117 0 0 10189 0 0 10298 0 0 10061 0 0 10195 0 0 10101 0 0 10275 0 0 10052 0 0 10177 0 0 10104 0 0 10153 0 0 10148 0 0 10443 0 0 10275 0 0 10233 0 0 10259 0 0 10057 0 0 10092 0 0 10307 0 0 10041 0 0 10261 0 0 10168 0 0 10268 0 0 10236 0 0 10096 0 0 10173 0 0 10089 0 0 10174 0 0 10078 0 0 10249 0 0 9976 0 0 10237 0 0 10189 0 0 10177 0 0 10146 0 0 10238 0 0 9968 0 0 5064 0 0 69 0 0 16 0 0 13 0 0 11 0 0 7 0 0 7 0 0 9 0 0 8 0 0 6 0 0 
2 0 0 6 0 0 6 0 0 3 0 0 10 0 0 10 0 0 11 0 0 14 0 0 20 0 0 60 0 0 5142 0 0 10098 0 0 10092 0 0 10202 0 0 10084 0 0 10218 0 0 10099 0 0 10147 0 0 10065 0 0 10118 0 0 10173 0 0 10160 0 0 10027 0 0 10133 0 0 10118 0 0 10317 0 0 10126 0 0 10145 0 0 10197 0 0 10203 0 0 10189 0 0 10177 0 0 10093 0 0 10120 0 0 10064 0 0 10224 0 0 10067 0 0 10069 0 0 10191 0 0 10004 0 0 10222 0 0 10145 0 0 10104 0 0 10161 0 0 10059 0 0 10257 0 0 10168 0 0 10081 0 0 10071 0 0 10128 0 0 5110 0 0 66 0 0 9 0 0 5 0 0 7 0 0 9 0 0 7 0 0 8 0 0 6 0 0 5 0 0 
1 0 0 3 0 0 9 0 0 8 0 0 7 0 0 4 0 0 12 0 0 11 0 0 17 0 0 65 0 0 5076 0 0 10267 0 0 10220 0 0 10184 0 0 10092 0 0 10381 0 0 10172 0 0 10176 0 0 10170 0 0 10110 0 0 10052 0 0 10262 0 0 10106 0 0 10157 0 0 10162 0 0 10084 0 0 10252 0 0 10143 0 0 10111 0 0 10182 0 0 10214 0 0 10312 0 0 10096 0 0 10022 0 0 10249 0 0 10271 0 0 10108 0 0 10177 0 0 10212 0 0 10078 0 0 10108 0 0 10222 0 0 10217 0 0 10186 0 0 10224 0 0 10081 0 0 10168 0 0 10118 0 0 10151 0 0 10063 0 0 4994 0 0 77 0 0 13 0 0 7 0 0 11 0 0 12 0 0 12 0 0 3 0 0 4 0 0 7 0 0 
2 0 0 7 0 0 4 0 0 3 0 0 4 0 0 5 0 0 9 0 0 14 0 0 19 0 0 83 0 0 5098 0 0 10145 0 0 10135 0 0 10081 0 0 10245 0 0 10330 0 0 10168 0 0 10076 0 0 10108 0 0 10024 0 0 10241 0 0 10204 0 0 10122 0 0 10239 0 0 10219 0 0 10209 0 0 10244 0 0 10124 0 0 10096 0 0 10205 0 0 10246 0 0 10146 0 0 10174 0 0 10245 0 0 10329 0 0 10183 0 0 10068 0 0 10057 0 0 10221 0 0 10172 0 0 10134 0 0 10287 0 0 10292 0 0 10303 0 0 10112 0 0 10237 0 0 10139 0 0 10183 0 0 10336 0 0 10107 0 0 5092 0 0 77 0 0 17 0 0 16 0 0 9 0 0 11 0 0 8 0 0 6 0 0 8 0 0 0 0 0 
1 0 0 2 0 0 6 0 0 7 0 0 9 0 0 7 0 0 10 0 0 16 0 0 19 0 0 63 0 0 5150 0 0 10204 0 0 10272 0 0 10102 0 0 10164 0 0 10143 0 0 10124 0 0 10193 0 0 10097 0 0 10037 0 0 10180 0 0 10156 0 0 10228 0 0 10165 0 0 10151 0 0 10186 0 0 10099 0 0 10194 0 0 10126 0 0 10097 0 0 10167 0 0 10322 0 0 10299 0 0 10158 0 0 10176 0 0 10208 0 0 10115 0 0 10122 0 0 10240 0 0 10278 0 0 10195 0 0 10031 0 0 10135 0 0 10205 0 0 10187 0 0 10115 0 0 10253 0 0 10183 0 0 10179 0 0 9945 0 0 5063 0 0 71 0 0 24 0 0 18 0 0 15 0 0 4 0 0 2 0 0 2 0 0 3 0 0 3 0 0 
5 0 0 9 0 0 6 0 0 9 0 0 11 0 0 7 0 0 8 0 0 14 0 0 12 0 0 75 0 0 5054 0 0 10251 0 0 10259 0 0 10149 0 0 10259 0 0 10407 0 0 10152 0 0 10169 0 0 10107 0 0 10382 0 0 10303 0 0 10052 0 0 10052 0 0 10088 0 0 10094 0 0 10152 0 0 10163 0 0 10298 0 0 10073 0 0 10237 0 0 10208 0 0 10134 0 0 10228 0 0 9999 0 0 10274 0 0 10021 0 0 10132 0 0 10287 0 0 10283 0 0 10074 0 0 10264 0 0 10249 0 0 10075 0 0 10092 0 0 10235 0 0 10200 0 0 10174 0 0 10350 0 0 10207 0 0 10315 0 0 5031 0 0 75 0 0 15 0 0 14 0 0 17 0 0 12 0 0 8 0 0 1 0 0 4 0 0 3 0 0 
2 0 0 11 0 0 6 0 0 6 0 0 10 0 0 10 0 0 8 0 0 12 0 0 19 0 0 79 0 0 5076 0 0 10094 0 0 10147 0 0 10222 0 0 10270 0 0 10029 0 0 10211 0 0 10195 0 0 10331 0 0 10161 0 0 10209 0 0 9986 0 0 10315 0 0 10006 0 0 10179 0 0 10215 0 0 10157 0 0 10180 0 0 10119 0 0 10229 0 0 10344 0 0 10263 0 0 10295 0 0 10209 0 0 10089 0 0 10120 0 0 10228 0 0 9956 0 0 10286 0 0 10072 0 0 10113 0 0 10125 0 0 10203 0 0 10137 0 0 10127 0 0 10155 0 0 10056 0 0 10152 0 0 10206 0 0 10057 0 0 5119 0 0 65 0 0 12 0 0 14 0 0 7 0 0 5 0 0 6 0 0 3 0 0 7 0 0 7 0 0 
4 0 0 7 0 0 7 0 0 5 0 0 11 0 0 16 0 0 21 0 0 14 0 0 18 0 0 64 0 0 5114 0 0 10258 0 0 10272 0 0 10164 0 0 10309 0 0 10129 0 0 10411 0 0 10099 0 0 10104 0 0 10056 0 0 10211 0 0 10168 0 0 10134 0 0 10280 0 0 10157 0 0 10207 0 0 10288 0 0 10297 0 0 10236 0 0 10169 0 0 9990 0 0 9967 0 0 10287 0 0 10064 0 0 10284 0 0 10155 0 0 10353 0 0 10239 0 0 10177 0 0 10094 0 0 10157 0 0 10103 0 0 10253 0 0 10062 0 0 10029 0 0 10236 0 0 10166 0 0 10239 0 0 10147 0 0 10124 0 0 5068 0 0 78 0 0 18 0 0 13 0 0 12 0 0 6 0 0 9 0 0 7 0 0 6 0 0 8 0 0 
2 0 0 9 0 0 16 0 0 17 0 0 10 0 0 8 0 0 10 0 0 13 0 0 17 0 0 80 0 0 5084 0 0 9985 0 0 10143 0 0 10179 0 0 10246 0 0 10172 0 0 10206 0 0 10187 0 0 10276 0 0 10179 0 0 10251 0 0 10074 0 0 10235 0 0 10214 0 0 10082 0 0 10315 0 0 10282 0 0 10146 0 0 10217 0 0 10315 0 0 10250 0 0 10143 0 0 10302 0 0 10205 0 0 10148 0 0 10278 0 0 10208 0 0 10180 0 0 10121 0 0 10252 0 0 10227 0 0 10291 0 0 10127 0 0 10188 0 0 10285 0 0 10072 0 0 10184 0 0 10045 0 0 10144 0 0 10083 0 0 5138 0 0 75 0 0 19 0 0 15 0 0 13 0 0 14 0 0 9 0 0 9 0 0 6 0 0 5 0 0 
6 0 0 10 0 0 5 0 0 10 0 0 12 0 0 12 0 0 10 0 0 8 0 0 22 0 0 77 0 0 5116 0 0 10188 0 0 10119 0 0 10076 0 0 10076 0 0 10207 0 0 10061 0 0 10152 0 0 10352 0 0 10228 0 0 10174 0 0 10218 0 0 10108 0 0 10344 0 0 10252 0 0 10262 0 0 10147 0 0 9996 0 0 10194 0 0 10050 0 0 10324 0 0 10097 0 0 10243 0 0 10224 0 0 10325 0 0 10165 0 0 10181 0 0 10276 0 0 10197 0 0 10373 0 0 9988 0 0 10227 0 0 10222 0 0 10223 0 0 9956 0 0 10174 0 0 10167 0 0 10188 0 0 10223 0 0 9904 0 0 5148 0 0 70 0 0 21 0 0 10 0 0 10 0 0 11 0 0 12 0 0 11 0 0 5 0 0 4 0 0 
5 0 0 7 0 0 7 0 0 11 0 0 17 0 0 15 0 0 14 0 0 10 0 0 16 0 0 80 0 0 5055 0 0 10032 0 0 10066 0 0 10252 0 0 10117 0 0 10255 0 0 10252 0 0 10245 0 0 10280 0 0 10077 0 0 10290 0 0 10139 0 0 10085 0 0 10169 0 0 9989 0 0 10170 0 0 10180 0 0 10093 0 0 10079 0 0 10253 0 0 10161 0 0 10157 0 0 10092 0 0 10188 0 0 10255 0 0 10071 0 0 10124 0 0 10188 0 0 10156 0 0 10186 0 0 10108 0 0 10229 0 0 9973 0 0 10167 0 0 10198 0 0 10357 0 0 10355 0 0 10130 0 0 10204 0 0 10070 0 0 5016 0 0 81 0 0 22 0 0 17 0 0 7 0 0 6 0 0 4 0 0 8 0 0 6 0 0 3 0 0 
1 0 0 4 0 0 4 0 0 9 0 0 9 0 0 9 0 0 9 0 0 17 0 0 21 0 0 77 0 0 5007 0 0 10233 0 0 10035 0 0 10237 0 0 10095 0 0 10200 0 0 10299 0 0 10241 0 0 10318 0 0 10137 0 0 10153 0 0 10264 0 0 10289 0 0 10320 0 0 10169 0 0 10159 0 0 10251 0 0 10222 0 0 10176 0 0 10231 0 0 10299 0 0 10176 0 0 10264 0 0 10203 0 0 10130 0 0 10117 0 0 10064 0 0 10390 0 0 10127 0 0 10115 0 0 10035 0 0 10240 0 0 10393 0 0 10188 0 0 10238 0 0 10243 0 0 10137 0 0 10325 0 0 10134 0 0 9982 0 0 5069 0 0 78 0 0 17 0 0 14 0 0 13 0 0 9 0 0 6 0 0 1 0 0 3 0 0 7 0 0 
1 0 0 3 0 0 6 0 0 9 0 0 7 0 0 11 0 0 10 0 0 9 0 0 20 0 0 81 0 0 5077 0 0 10053 0 0 10202 0 0 10165 0 0 10135 0 0 10164 0 0 10132 0 0 10314 0 0 10117 0 0 10288 0 0 10110 0 0 10218 0 0 10159 0 0 10225 0 0 10081 0 0 10109 0 0 10106 0 0 10266 0 0 10072 0 0 10160 0 0 10275 0 0 10280 0 0 10121 0 0 10248 0 0 10098 0 0 10202 0 0 10150 0 0 10086 0 0 10165 0 0 10316 0 0 10197 0 0 10052 0 0 10173 0 0 10036 0 0 10260 0 0 10065 0 0 10239 0 0 10049 0 0 9950 0 0 10180 0 0 5016 0 0 79 0 0 15 0 0 16 0 0 22 0 0 13 0 0 10 0 0 8 0 0 6 0 0 8 0 0 
2 0 0 5 0 0 6 0 0 7 0 0 6 0 0 3 0 0 6 0 0 12 0 0 20 0 0 67 0 0 5094 0 0 10146 0 0 10074 0 0 10144 0 0 10190 0 0 10268 0 0 10107 0 0 10130 0 0 10202 0 0 10188 0 0 10186 0 0 10187 0 0 10206 0 0 10229 0 0 10154 0 0 10148 0 0 10161 0 0 10275 0 0 10056 0 0 10212 0 0 10157 0 0 10280 0 0 10066 0 0 10133 0 0 10099 0 0 10147 0 0 10202 0 0 9985 0 0 10290 0 0 10352 0 0 10123 0 0 10177 0 0 10232 0 0 10176 0 0 10274 0 0 10297 0 0 10154 0 0 10228 0 0 10028 0 0 10187 0 0 5110 0 0 71 0 0 14 0 0 13 0 0 12 0 0 17 0 0 12 0 0 5 0 0 6 0 0 9 0 0 
4 0 0 8 0 0 9 0 0 4 0 0 7 0 0 6 0 0 6 0 0 14 0 0 14 0 0 75 0 0 5027 0 0 10143 0 0 10094 0 0 10269 0 0 10139 0 0 10070 0 0 10188 0 0 10061 0 0 10182 0 0 10183 0 0 10148 0 0 10248 0 0 10198 0 0 10200 0 0 10078 0 0 10377 0 0 10109 0 0 10051 0 0 10181 0 0 10157 0 0 10105 0 0 10122 0 0 10034 0 0 10212 0 0 10137 0 0 10181 0 0 10153 0 0 10204 0 0 10178 0 0 10372 0 0 10181 0 0 10208 0 0 10298 0 0 10036 0 0 10181 0 0 10136 0 0 10284 0 0 10227 0 0 10145 0 0 10140 0 0 5123 0 0 73 0 0 25 0 0 16 0 0 9 0 0 11 0 0 10 0 0 10 0 0 6 0 0 3 0 0 
4 0 0 10 0 0 5 0 0 4 0 0 6 0 0 14 0 0 19 0 0 26 0 0 24 0 0 80 0 0 5050 0 0 10225 0 0 10095 0 0 10089 0 0 10197 0 0 10456 0 0 10138 0 0 10238 0 0 10095 0 0 9986 0 0 10130 0 0 10173 0 0 10224 0 0 10114 0 0 10301 0 0 10185 0 0 10064 0 0 10313 0 0 10204 0 0 10174 0 0 10304 0 0 10089 0 0 10280 0 0 10076 0 0 10297 0 0 10231 0 0 10306 0 0 10053 0 0 10190 0 0 10362 0 0 10159 0 0 10310 0 0 10155 0 0 10141 0 0 10195 0 0 10231 0 0 10234 0 0 10346 0 0 10182 0 0 10169 0 0 5065 0 0 74 0 0 26 0 0 15 0 0 10 0 0 2 0 0 6 0 0 4 0 0 4 0 0 6 0 0 
4 0 0 4 0 0 7 0 0 5 0 0 12 0 0 18 0 0 17 0 0 17 0 0 23 0 0 69 0 0 5032 0 0 10052 0 0 10131 0 0 10237 0 0 10333 0 0 10136 0 0 10159 0 0 10211 0 0 10226 0 0 10059 0 0 10105 0 0 10020 0 0 10273 0 0 10209 0 0 10108 0 0 10255 0 0 10087 0 0 10140 0 0 10188 0 0 10131 0 0 10216 0 0 10304 0 0 10038 0 0 10090 0 0 10044 0 0 9991 0 0 10235 0 0 10263 0 0 10146 0 0 10219 0 0 10273 0 0 10238 0 0 10187 0 0 10421 0 0 10356 0 0 10338 0 0 10310 0 0 10205 0 0 10091 0 0 10048 0 0 5221 0 0 67 0 0 24 0 0 15 0 0 11 0 0 6 0 0 11 0 0 10 0 0 9 0 0 5 0 0 
3 0 0 8 0 0 7 0 0 9 0 0 4 0 0 13 0 0 10 0 0 12 0 0 17 0 0 77 0 0 5149 0 0 10061 0 0 10004 0 0 10327 0 0 10056 0 0 10208 0 0 10173 0 0 10234 0 0 10253 0 0 10146 0 0 10030 0 0 10325 0 0 10027 0 0 10155 0 0 10192 0 0 10239 0 0 10183 0 0 10160 0 0 10030 0 0 10180 0 0 10245 0 0 10276 0 0 10153 0 0 10229 0 0 10282 0 0 10185 0 0 10204 0 0 10246 0 0 10169 0 0 10288 0 0 9999 0 0 10177 0 0 10247 0 0 10324 0 0 10265 0 0 10221 0 0 10055 0 0 10266 0 0 10240 0 0 10115 0 0 5123 0 0 74 0 0 22 0 0 16 0 0 8 0 0 10 0 0 10 0 0 11 0 0 11 0 0 7 0 0 
1 0 0 4 0 0 10 0 0 7 0 0 9 0 0 11 0 0 14 0 0 16 0 0 27 0 0 84 0 0 5224 0 0 10021 0 0 10142 0 0 10064 0 0 10165 0 0 10204 0 0 10088 0 0 10082 0 0 10250 0 0 10170 0 0 10285 0 0 10177 0 0 10019 0 0 10245 0 0 10227 0 0 10106 0 0 10171 0 0 10144 0 0 10092 0 0 10220 0 0 10366 0 0 10340 0 0 10231 0 0 10159 0 0 10171 0 0 10247 0 0 10181 0 0 10211 0 0 10190 0 0 10238 0 0 10374 0 0 10189 0 0 10153 0 0 10180 0 0 10122 0 0 10101 0 0 10321 0 0 10185 0 0 10323 0 0 10326 0 0 5181 0 0 74 0 0 18 0 0 16 0 0 14 0 0 11 0 0 4 0 0 6 0 0 12 0 0 13 0 0 
1 0 0 2 0 0 3 0 0 8 0 0 12 0 0 16 0 0 14 0 0 14 0 0 20 0 0 69 0 0 5008 0 0 10098 0 0 10112 0 0 9972 0 0 10126 0 0 10363 0 0 10132 0 0 10079 0 0 10286 0 0 10198 0 0 10108 0 0 10251 0 0 10174 0 0 10234 0 0 10217 0 0 10154 0 0 10176 0 0 10155 0 0 10261 0 0 9953 0 0 10308 0 0 10435 0 0 10198 0 0 10171 0 0 10052 0 0 9984 0 0 10241 0 0 10210 0 0 10288 0 0 10133 0 0 10246 0 0 10183 0 0 10196 0 0 10213 0 0 10121 0 0 10297 0 0 10195 0 0 10255 0 0 10040 0 0 10229 0 0 5108 0 0 69 0 0 23 0 0 17 0 0 15 0 0 14 0 0 11 0 0 9 0 0 10 0 0 8 0 0 
3 0 0 9 0 0 8 0 0 12 0 0 12 0 0 11 0 0 11 0 0 6 0 0 15 0 0 66 0 0 5104 0 0 10099 0 0 10170 0 0 10046 0 0 10090 0 0 10251 0 0 10142 0 0 10176 0 0 10155 0 0 10165 0 0 10075 0 0 10034 0 0 10176 0 0 10218 0 0 10114 0 0 10043 0 0 10064 0 0 10187 0 0 10296 0 0 10134 0 0 10140 0 0 10406 0 0 10127 0 0 10280 0 0 10203 0 0 10311 0 0 10054 0 0 10116 0 0 10232 0 0 10331 0 0 10144 0 0 10248 0 0 10367 0 0 10330 0 0 10136 0 0 10191 0 0 10137 0 0 10094 0 0 10270 0 0 10213 0 0 5128 0 0 77 0 0 24 0 0 11 0 0 12 0 0 7 0 0 7 0 0 12 0 0 8 0 0 7 0 0 
2 0 0 7 0 0 9 0 0 5 0 0 9 0 0 10 0 0 10 0 0 13 0 0 21 0 0 75 0 0 5020 0 0 10069 0 0 10146 0 0 10119 0 0 10107 0 0 10138 0 0 10009 0 0 10309 0 0 10192 0 0 10198 0 0 10242 0 0 10195 0 0 10282 0 0 10175 0 0 10173 0 0 10240 0 0 10382 0 0 10118 0 0 10260 0 0 10152 0 0 10203 0 0 10099 0 0 10149 0 0 10044 0 0 10072 0 0 10159 0 0 10095 0 0 10254 0 0 10156 0 0 9981 0 0 10154 0 0 10337 0 0 10135 0 0 10355 0 0 10196 0 0 10156 0 0 9946 0 0 10254 0 0 10102 0 0 10269 0 0 5170 0 0 80 0 0 17 0 0 18 0 0 12 0 0 13 0 0 6 0 0 6 0 0 5 0 0 8 0 0 
3 0 0 7 0 0 8 0 0 13 0 0 6 0 0 9 0 0 10 0 0 13 0 0 21 0 0 70 0 0 5162 0 0 10104 0 0 10229 0 0 10136 0 0 10130 0 0 10274 0 0 10096 0 0 10182 0 0 10269 0 0 10176 0 0 10024 0 0 10199 0 0 10206 0 0 10154 0 0 10207 0 0 10300 0 0 10263 0 0 10206 0 0 10295 0 0 10282 0 0 10220 0 0 10225 0 0 10063 0 0 10216 0 0 10230 0 0 10450 0 0 10226 0 0 10079 0 0 10064 0 0 10310 0 0 10224 0 0 10127 0 0 10192 0 0 10252 0 0 10265 0 0 10133 0 0 10256 0 0 10240 0 0 10326 0 0 10091 0 0 5009 0 0 75 0 0 22 0 0 17 0 0 12 0 0 13 0 0 6 0 0 8 0 0 10 0 0 13 0 0 
1 0 0 5 0 0 8 0 0 10 0 0 12 0 0 10 0 0 13 0 0 12 0 0 12 0 0 70 0 0 5103 0 0 10032 0 0 10163 0 0 10221 0 0 10194 0 0 10128 0 0 10148 0 0 10041 0 0 10120 0 0 9912 0 0 10141 0 0 10171 0 0 10132 0 0 10347 0 0 10171 0 0 10240 0 0 10182 0 0 10196 0 0 10109 0 0 10193 0 0 10171 0 0 10326 0 0 10161 0 0 10153 0 0 10291 0 0 10209 0 0 10148 0 0 10111 0 0 10193 0 0 10053 0 0 10154 0 0 10049 0 0 10079 0 0 10147 0 0 10063 0 0 10032 0 0 10122 0 0 10116 0 0 10143 0 0 9946 0 0 5091 0 0 82 0 0 27 0 0 16 0 0 10 0 0 9 0 0 6 0 0 3 0 0 9 0 0 9 0 0 
0 0 0 3 0 0 7 0 0 11 0 0 9 0 0 9 0 0 11 0 0 11 0 0 15 0 0 86 0 0 5075 0 0 10190 0 0 10182 0 0 10199 0 0 10192 0 0 10135 0 0 10145 0 0 10209 0 0 10190 0 0 10126 0 0 10092 0 0 10283 0 0 10264 0 0 10223 0 0 10209 0 0 10123 0 0 10152 0 0 10180 0 0 10235 0 0 10249 0 0 10405 0 0 10166 0 0 10028 0 0 10126 0 0 10235 0 0 10139 0 0 10216 0 0 10091 0 0 10097 0 0 10142 0 0 10104 0 0 10306 0 0 10250 0 0 10202 0 0 10182 0 0 10174 0 0 10224 0 0 10183 0 0 10010 0 0 10049 0 0 5021 0 0 85 0 0 25 0 0 14 0 0 9 0 0 4 0 0 7 0 0 5 0 0 4 0 0 9 0 0 
3 0 0 8 0 0 12 0 0 9 0 0 7 0 0 11 0 0 9 0 0 14 0 0 18 0 0 77 0 0 5052 0 0 10196 0 0 10195 0 0 10168 0 0 9998 0 0 10139 0 0 10085 0 0 10171 0 0 10227 0 0 10247 0 0 10183 0 0 10319 0 0 10123 0 0 10160 0 0 10154 0 0 10272 0 0 10292 0 0 10325 0 0 10297 0 0 10140 0 0 10279 0 0 10207 0 0 10196 0 0 10058 0 0 10280 0 0 10251 0 0 10271 0 0 10223 0 0 10237 0 0 10041 0 0 10146 0 0 10227 0 0 10173 0 0 10238 0 0 10329 0 0 10192 0 0 10102 0 0 10267 0 0 10175 0 0 10062 0 0 5143 0 0 78 0 0 19 0 0 9 0 0 8 0 0 7 0 0 7 0 0 5 0 0 2 0 0 2 0 0 
2 0 0 10 0 0 9 0 0 7 0 0 4 0 0 6 0 0 7 0 0 13 0 0 18 0 0 75 0 0 5100 0 0 10174 0 0 10173 0 0 10042 0 0 10136 0 0 10031 0 0 10030 0 0 10130 0 0 10187 0 0 10229 0 0 10211 0 0 10154 0 0 10217 0 0 10088 0 0 10225 0 0 10084 0 0 10208 0 0 10168 0 0 10177 0 0 10190 0 0 10202 0 0 10157 0 0 10092 0 0 10121 0 0 10305 0 0 10240 0 0 10188 0 0 10202 0 0 10157 0 0 10266 0 0 10262 0 0 10152 0 0 10267 0 0 10156 0 0 10282 0 0 10141 0 0 10373 0 0 10125 0 0 10134 0 0 10123 0 0 5027 0 0 75 0 0 21 0 0 14 0 0 8 0 0 7 0 0 7 0 0 10 0 0 4 0 0 4 0 0 
4 0 0 5 0 0 7 0 0 8 0 0 9 0 0 14 0 0 14 0 0 18 0 0 15 0 0 80 0 0 5056 0 0 10218 0 0 10179 0 0 10199 0 0 10346 0 0 10138 0 0 10186 0 0 10162 0 0 10101 0 0 10175 0 0 10132 0 0 10200 0 0 10134 0 0 10102 0 0 10134 0 0 10323 0 0 10248 0 0 10258 0 0 10213 0 0 10207 0 0 10206 0 0 10275 0 0 10316 0 0 10202 0 0 10290 0 0 10172 0 0 10078 0 0 10099 0 0 10056 0 0 10188 0 0 10236 0 0 10057 0 0 10146 0 0 10204 0 0 10376 0 0 10076 0 0 10178 0 0 10168 0 0 10133 0 0 10192 0 0 5176 0 0 77 0 0 22 0 0 13 0 0 11 0 0 12 0 0 9 0 0 5 0 0 11 0 0 7 0 0 
3 0 0 5 0 0 7 0 0 9 0 0 8 0 0 7 0 0 17 0 0 12 0 0 26 0 0 73 0 0 5168 0 0 10068 0 0 10267 0 0 10264 0 0 10084 0 0 10124 0 0 10202 0 0 10162 0 0 10213 0 0 10200 0 0 10147 0 0 10091 0 0 10075 0 0 10221 0 0 10294 0 0 10097 0 0 10178 0 0 10204 0 0 10252 0 0 10223 0 0 10160 0 0 10378 0 0 10318 0 0 10226 0 0 10277 0 0 10186 0 0 10180 0 0 10121 0 0 10155 0 0 10094 0 0 9998 0 0 10326 0 0 10310 0 0 10226 0 0 10306 0 0 10107 0 0 10121 0 0 10251 0 0 10156 0 0 10148 0 0 5235 0 0 79 0 0 18 0 0 12 0 0 10 0 0 7 0 0 8 0 0 8 0 0 4 0 0 6 0 0 
0 0 0 2 0 0 3 0 0 5 0 0 5 0 0 5 0 0 13 0 0 11 0 0 15 0 0 82 0 0 5175 0 0 10099 0 0 10178 0 0 10137 0 0 10032 0 0 10144 0 0 10041 0 0 10053 0 0 10136 0 0 10149 0 0 10162 0 0 10230 0 0 10197 0 0 9997 0 0 10277 0 0 10234 0 0 10225 0 0 10251 0 0 10132 0 0 10224 0 0 10178 0 0 10199 0 0 10044 0 0 10033 0 0 10097 0 0 10266 0 0 10234 0 0 10124 0 0 10078 0 0 10230 0 0 10196 0 0 10176 0 0 10226 0 0 10144 0 0 10295 0 0 10151 0 0 10143 0 0 10246 0 0 10150 0 0 10078 0 0 5044 0 0 78 0 0 15 0 0 14 0 0 11 0 0 10 0 0 8 0 0 7 0 0 7 0 0 3 0 0 
0 0 0 0 0 0 4 0 0 4 0 0 1 0 0 7 0 0 9 0 0 12 0 0 17 0 0 84 0 0 5067 0 0 9963 0 0 10187 0 0 10164 0 0 10287 0 0 10286 0 0 10300 0 0 10269 0 0 10099 0 0 10214 0 0 10240 0 0 10352 0 0 10303 0 0 10234 0 0 10121 0 0 10188 0 0 10242 0 0 10373 0 0 10085 0 0 10186 0 0 10195 0 0 9987 0 0 10126 0 0 10300 0 0 10179 0 0 10229 0 0 10176 0 0 10247 0 0 10157 0 0 10088 0 0 10088 0 0 10303 0 0 10087 0 0 10003 0 0 10149 0 0 10245 0 0 10105 0 0 10076 0 0 9938 0 0 9968 0 0 5131 0 0 84 0 0 22 0 0 13 0 0 12 0 0 5 0 0 11 0 0 8 0 0 10 0 0 8 0 0 
2 0 0 4 0 0 3 0 0 2 0 0 1 0 0 6 0 0 5 0 0 17 0 0 18 0 0 69 0 0 5193 0 0 9984 0 0 10084 0 0 10109 0 0 10231 0 0 10306 0 0 10244 0 0 10274 0 0 10251 0 0 10152 0 0 10275 0 0 10193 0 0 10228 0 0 10236 0 0 10378 0 0 10270 0 0 10352 0 0 10233 0 0 10466 0 0 10077 0 0 10242 0 0 10184 0 0 10003 0 0 10118 0 0 10161 0 0 10348 0 0 10065 0 0 10166 0 0 10366 0 0 10215 0 0 10223 0 0 10310 0 0 10271 0 0 10291 0 0 10139 0 0 10213 0 0 10216 0 0 10378 0 0 10088 0 0 10240 0 0 5048 0 0 71 0 0 26 0 0 18 0 0 15 0 0 10 0 0 4 0 0 5 0 0 2 0 0 5 0 0 
1 0 0 2 0 0 2 0 0 6 0 0 6 0 0 5 0 0 12 0 0 10 0 0 13 0 0 79 0 0 5159 0 0 10125 0 0 10141 0 0 10255 0 0 10184 0 0 10023 0 0 10144 0 0 10201 0 0 10333 0 0 10080 0 0 10128 0 0 10042 0 0 10204 0 0 10228 0 0 9965 0 0 10240 0 0 10230 0 0 10247 0 0 10207 0 0 10217 0 0 10129 0 0 10147 0 0 10146 0 0 10269 0 0 10240 0 0 10354 0 0 10226 0 0 10174 0 0 10319 0 0 10294 0 0 10130 0 0 10225 0 0 10190 0 0 10108 0 0 10179 0 0 10136 0 0 10120 0 0 10360 0 0 10048 0 0 10159 0 0 5055 0 0 74 0 0 13 0 0 16 0 0 14 0 0 9 0 0 8 0 0 6 0 0 4 0 0 4 0 0 
1 0 0 3 0 0 9 0 0 6 0 0 6 0 0 7 0 0 5 0 0 5 0 0 7 0 0 68 0 0 5127 0 0 10085 0 0 10228 0 0 10292 0 0 10250 0 0 10308 0 0 10168 0 0 10264 0 0 10230 0 0 10257 0 0 10076 0 0 10196 0 0 10146 0 0 10268 0 0 10143 0 0 10147 0 0 10109 0 0 10072 0 0 10095 0 0 10128 0 0 10152 0 0 10304 0 0 10312 0 0 10301 0 0 10268 0 0 10274 0 0 10218 0 0 10197 0 0 10298 0 0 10236 0 0 10144 0 0 10273 0 0 10267 0 0 10121 0 0 10230 0 0 10168 0 0 10221 0 0 10097 0 0 10161 0 0 10186 0 0 5013 0 0 52 0 0 14 0 0 13 0 0 12 0 0 13 0 0 10 0 0 5 0 0 7 0 0 3 0 0 
1 0 0 6 0 0 6 0 0 6 0 0 11 0 0 7 0 0 7 0 0 13 0 0 14 0 0 69 0 0 5072 0 0 10101 0 0 10435 0 0 10055 0 0 10287 0 0 10357 0 0 10163 0 0 10137 0 0 10188 0 0 10208 0 0 10136 0 0 10193 0 0 10309 0 0 10242 0 0 10103 0 0 10264 0 0 10181 0 0 10061 0 0 10077 0 0 10263 0 0 10092 0 0 10290 0 0 10141 0 0 10170 0 0 10096 0 0 10112 0 0 10037 0 0 10108 0 0 10152 0 0 10119 0 0 10215 0 0 10117 0 0 10050 0 0 10082 0 0 10129 0 0 10171 0 0 10348 0 0 10192 0 0 10071 0 0 10030 0 0 4973 0 0 64 0 0 16 0 0 12 0 0 5 0 0 7 0 0 10 0 0 6 0 0 8 0 0 12 0 0 
3 0 0 5 0 0 4 0 0 2 0 0 6 0 0 7 0 0 8 0 0 10 0 0 13 0 0 70 0 0 5226 0 0 9999 0 0 10269 0 0 10149 0 0 10053 0 0 10176 0 0 10145 0 0 10165 0 0 10122 0 0 10060 0 0 10084 0 0 10264 0 0 10151 0 0 10144 0 0 10095 0 0 10233 0 0 10093 0 0 10219 0 0 10182 0 0 10035 0 0 10209 0 0 10201 0 0 10096 0 0 10109 0 0 10300 0 0 10204 0 0 10229 0 0 10302 0 0 10221 0 0 10136 0 0 10182 0 0 10228 0 0 10344 0 0 10138 0 0 10154 0 0 10115 0 0 10210 0 0 10143 0 0 10065 0 0 10112 0 0 5010 0 0 59 0 0 2 0 0 9 0 0 4 0 0 5 0 0 5 0 0 7 0 0 2 0 0 5 0 0 
4 0 0 7 0 0 6 0 0 8 0 0 8 0 0 5 0 0 8 0 0 5 0 0 12 0 0 71 0 0 4948 0 0 9981 0 0 10229 0 0 10047 0 0 9997 0 0 10196 0 0 10096 0 0 10085 0 0 10097 0 0 10146 0 0 10094 0 0 10170 0 0 9974 0 0 9987 0 0 10119 0 0 9998 0 0 10099 0 0 10044 0 0 10006 0 0 9943 0 0 10234 0 0 10066 0 0 9935 0 0 10110 0 0 10086 0 0 10147 0 0 10236 0 0 10074 0 0 9930 0 0 10047 0 0 10030 0 0 10058 0 0 10230 0 0 10137 0 0 10128 0 0 10069 0 0 10081 0 0 10179 0 0 10018 0 0 9942 0 0 5050 0 0 59 0 0 11 0 0 10 0 0 8 0 0 3 0 0 5 0 0 7 0 0 5 0 0 3 0 0 
2 0 0 1 0 0 5 0 0 9 0 0 4 0 0 11 0 0 10 0 0 12 0 0 13 0 0 39 0 0 2536 0 0 5183 0 0 5104 0 0 5081 0 0 5112 0 0 5060 0 0 5177 0 0 5013 0 0 5061 0 0 5151 0 0 4997 0 0 5069 0 0 5083 0 0 5098 0 0 5096 0 0 5207 0 0 5116 0 0 5050 0 0 5035 0 0 5102 0 0 5179 0 0 5181 0 0 5123 0 0 5106 0 0 5097 0 0 4992 0 0 5128 0 0 5072 0 0 5125 0 0 4998 0 0 5186 0 0 5219 0 0 5082 0 0 5096 0 0 5125 0 0 5167 0 0 5109 0 0 5161 0 0 5188 0 0 5142 0 0 2553 0 0 37 0 0 2 0 0 9 0 0 6 0 0 6 0 0 3 0 0 2 0 0 2 0 0 3 0 0 
2 0 0 4 0 0 5 0 0 4 0 0 9 0 0 9 0 0 8 0 0 7 0 0 11 0 0 13 0 0 38 0 0 70 0 0 70 0 0 78 0 0 75 0 0 72 0 0 82 0 0 79 0 0 74 0 0 83 0 0 81 0 0 64 0 0 61 0 0 72 0 0 66 0 0 73 0 0 75 0 0 72 0 0 78 0 0 84 0 0 85 0 0 60 0 0 64 0 0 81 0 0 78 0 0 77 0 0 85 0 0 64 0 0 64 0 0 70 0 0 82 0 0 81 0 0 64 0 0 68 0 0 83 0 0 72 0 0 61 0 0 62 0 0 76 0 0 73 0 0 40 0 0 14 0 0 9 0 0 12 0 0 4 0 0 3 0 0 3 0 0 3 0 0 0 0 0 3 0 0 
1 0 0 7 0 0 3 0 0 3 0 0 5 0 0 8 0 0 5 0 0 7 0 0 13 0 0 14 0 0 9 0 0 11 0 0 8 0 0 11 0 0 17 0 0 12 0 0 12 0 0 13 0 0 19 0 0 17 0 0 10 0 0 14 0 0 17 0 0 18 0 0 20 0 0 17 0 0 24 0 0 16 0 0 22 0 0 17 0 0 17 0 0 12 0 0 23 0 0 16 0 0 22 0 0 15 0 0 17 0 0 14 0 0 16 0 0 17 0 0 18 0 0 23 0 0 12 0 0 19 0 0 18 0 0 14 0 0 17 0 0 12 0 0 12 0 0 6 0 0 13 0 0 7 0 0 5 0 0 8 0 0 3 0 0 2 0 0 7 0 0 4 0 0 6 0 0 4 0 0 
2 0 0 5 0 0 0 0 0 4 0 0 6 0 0 8 0 0 2 0 0 11 0 0 12 0 0 12 0 0 9 0 0 12 0 0 11 0 0 15 0 0 16 0 0 8 0 0 8 0 0 7 0 0 9 0 0 13 0 0 8 0 0 12 0 0 11 0 0 12 0 0 12 0 0 14 0 0 14 0 0 17 0 0 14 0 0 21 0 0 14 0 0 18 0 0 14 0 0 12 0 0 18 0 0 11 0 0 12 0 0 19 0 0 16 0 0 9 0 0 13 0 0 12 0 0 14 0 0 5 0 0 16 0 0 12 0 0 11 0 0 6 0 0 11 0 0 6 0 0 13 0 0 9 0 0 5 0 0 4 0 0 1 0 0 2 0 0 1 0 0 4 0 0 6 0 0 6 0 0 
1 0 0 2 0 0 5 0 0 4 0 0 7 0 0 4 0 0 3 0 0 13 0 0 11 0 0 4 0 0 7 0 0 6 0 0 4 0 0 12 0 0 7 0 0 9 0 0 13 0 0 10 0 0 11 0 0 11 0 0 8 0 0 12 0 0 10 0 0 11 0 0 11 0 0 9 0 0 11 0 0 17 0 0 13 0 0 14 0 0 11 0 0 14 0 0 12 0 0 8 0 0 17 0 0 14 0 0 8 0 0 16 0 0 11 0 0 6 0 0 12 0 0 9 0 0 9 0 0 5 0 0 11 0 0 15 0 0 10 0 0 8 0 0 12 0 0 5 0 0 7 0 0 5 0 0 9 0 0 3 0 0 0 0 0 2 0 0 4 0 0 6 0 0 3 0 0 4 0 0 
4 0 0 3 0 0 4 0 0 3 0 0 3 0 0 1 0 0 7 0 0 7 0 0 8 0 0 2 0 0 6 0 0 4 0 0 5 0 0 12 0 0 6 0 0 6 0 0 7 0 0 8 0 0 5 0 0 13 0 0 11 0 0 10 0 0 13 0 0 7 0 0 10 0 0 6 0 0 10 0 0 13 0 0 14 0 0 6 0 0 8 0 0 16 0 0 14 0 0 12 0 0 10 0 0 9 0 0 8 0 0 10 0 0 10 0 0 5 0 0 7 0 0 9 0 0 10 0 0 8 0 0 5 0 0 4 0 0 9 0 0 14 0 0 6 0 0 3 0 0 3 0 0 2 0 0 5 0 0 6 0 0 7 0 0 2 0 0 1 0 0 7 0 0 2 0 0 2 0 0 
1 0 0 4 0 0 2 0 0 2 0 0 5 0 0 3 0 0 5 0 0 7 0 0 2 0 0 3 0 0 7 0 0 5 0 0 5 0 0 12 0 0 7 0 0 5 0 0 7 0 0 3 0 0 9 0 0 11 0 0 8 0 0 10 0 0 7 0 0 8 0 0 11 0 0 9 0 0 12 0 0 9 0 0 11 0 0 6 0 0 8 0 0 10 0 0 11 0 0 7 0 0 16 0 0 8 0 0 7 0 0 8 0 0 12 0 0 6 0 0 8 0 0 8 0 0 8 0 0 8 0 0 6 0 0 11 0 0 5 0 0 8 0 0 6 0 0 3 0 0 4 0 0 4 0 0 7 0 0 8 0 0 5 0 0 6 0 0 3 0 0 3 0 0 3 0 0 1 0 0 
1 0 0 1 0 0 0 0 0 1 0 0 5 0 0 9 0 0 3 0 0 3 0 0 3 0 0 12 0 0 4 0 0 4 0 0 6 0 0 7 0 0 6 0 0 3 0 0 8 0 0 6 0 0 6 0 0 6 0 0 10 0 0 7 0 0 10 0 0 7 0 0 11 0 0 9 0 0 9 0 0 10 0 0 5 0 0 4 0 0 7 0 0 8 0 0 5 0 0 9 0 0 13 0 0 8 0 0 6 0 0 10 0 0 6 0 0 7 0 0 9 0 0 10 0 0 7 0 0 6 0 0 4 0 0 4 0 0 3 0 0 9 0 0 6 0 0 2 0 0 4 0 0 2 0 0 2 0 0 2 0 0 9 0 0 4 0 0 3 0 0 1 0 0 1 0 0 0 0 0 
0 0 0 4 0 0 0 0 0 2 0 0 5 0 0 3 0 0 7 0 0 7 0 0 9 0 0 7 0 0 1 0 0 7 0 0 1 0 0 3 0 0 6 0 0 6 0 0 6 0 0 5 0 0 5 0 0 7 0 0 7 0 0 6 0 0 7 0 0 9 0 0 10 0 0 5 0 0 6 0 0 5 0 0 8 0 0 3 0 0 4 0 0 6 0 0 5 0 0 5 0 0 9 0 0 8 0 0 8 0 0 7 0 0 8 0 0 4 0 0 12 0 0 9 0 0 6 0 0 11 0 0 5 0 0 4 0 0 3 0 0 4 0 0 4 0 0 4 0 0 1 0 0 2 0 0 1 0 0 1 0 0 4 0 0 3 0 0 2 0 0 0 0 0 4 0 0 1 0 0 
0 0 0 2 0 0 5 0 0 3 0 0 2 0 0 4 0 0 5 0 0 8 0 0 4 0 0 2 0 0 7 0 0 6 0 0 4 0 0 4 0 0 8 0 0 6 0 0 4 0 0 3 0 0 5 0 0 5 0 0 7 0 0 3 0 0 5 0 0 11 0 0 5 0 0 6 0 0 6 0 0 7 0 0 7 0 0 2 0 0 7 0 0 6 0 0 8 0 0 9 0 0 5 0 0 3 0 0 7 0 0 6 0 0 6 0 0 3 0 0 12 0 0 7 0 0 4 0 0 5 0 0 5 0 0 4 0 0 5 0 0 6 0 0 4 0 0 4 0 0 2 0 0 4 0 0 2 0 0 3 0 0 2 0 0 4 0 0 4 0 0 2 0 0 5 0 0 3 0 0 
