P3
# This is a dose file slice at depth 89 of 100
60 60
# now we give the maximum value of the RGB coordinates.
22407
0 0 0 0 0 0 0 0 0 0 0 0 0 0 0 0 0 0 0 0 0 0 0 0 0 0 0 0 0 0 0 0 0 0 0 0 0 0 0 0 0 0 0 0 0 0 0 0 0 0 0 0 0 0 0 0 0 0 0 0 0 0 0 0 0 0 0 0 0 0 0 0 0 0 0 0 0 0 0 0 0 0 0 0 0 0 0 0 0 0 0 0 0 0 0 0 0 0 0 0 0 0 0 0 0 0 0 0 0 0 0 0 0 0 0 0 0 0 0 0 0 0 0 0 0 0 0 0 0 0 0 0 0 0 0 0 0 0 0 0 0 0 0 0 0 0 0 0 0 0 0 0 0 0 0 0 0 0 0 0 0 0 0 0 0 0 0 0 0 0 0 0 0 0 0 0 0 0 0 0 
0 0 0 0 0 0 0 0 0 0 0 0 0 0 0 0 0 0 0 0 0 0 0 0 0 0 0 0 0 0 0 0 0 0 0 0 0 0 0 0 0 0 0 0 0 0 0 0 0 0 0 0 0 0 0 0 0 0 0 0 0 0 0 0 0 0 0 0 0 0 0 0 0 0 0 0 0 0 0 0 0 0 0 0 0 0 0 0 0 0 0 0 0 0 0 0 0 0 0 0 0 0 0 0 0 0 0 0 0 0 0 0 0 0 0 0 0 0 0 0 0 0 0 0 0 0 0 0 0 0 0 0 0 0 0 0 0 0 0 0 0 0 0 0 0 0 0 0 0 0 0 0 0 0 0 0 0 0 0 0 0 0 0 0 0 0 0 0 0 0 0 0 0 0 0 0 0 0 0 0 
0 0 0 0 0 0 0 0 0 0 0 0 0 0 0 0 0 0 0 0 0 0 0 0 0 0 0 0 0 0 0 0 0 0 0 0 0 0 0 0 0 0 0 0 0 0 0 0 0 0 0 0 0 0 0 0 0 0 0 0 0 0 0 0 0 0 0 0 0 0 0 0 0 0 0 0 0 0 0 0 0 0 0 0 0 0 0 0 0 0 0 0 0 0 0 0 0 0 0 0 0 0 0 0 0 0 0 0 0 0 0 0 0 0 0 0 0 0 0 0 0 0 0 0 0 0 0 0 0 0 0 0 0 0 0 0 0 0 0 0 0 0 0 0 0 0 0 0 0 0 0 0 0 0 0 0 0 0 0 0 0 0 0 0 0 0 0 0 0 0 0 0 0 0 0 0 0 0 0 0 
0 0 0 0 0 0 0 0 0 0 0 0 0 0 0 0 0 0 0 0 0 0 0 0 0 0 0 0 0 0 0 0 0 0 0 0 0 0 0 0 0 0 0 0 0 0 0 0 0 0 0 0 0 0 0 0 0 0 0 0 0 0 0 0 0 0 0 0 0 0 0 0 0 0 0 0 0 0 0 0 0 0 0 0 0 0 0 0 0 0 0 0 0 0 0 0 0 0 0 0 0 0 0 0 0 0 0 0 0 0 0 0 0 0 0 0 0 0 0 0 0 0 0 0 0 0 0 0 0 0 0 0 0 0 0 0 0 0 0 0 0 0 0 0 0 0 0 0 0 0 0 0 0 0 0 0 0 0 0 0 0 0 0 0 0 0 0 0 0 0 0 0 0 0 0 0 0 0 0 0 
0 0 0 0 0 0 0 0 0 0 0 0 0 0 0 0 0 0 0 0 0 0 0 0 0 0 0 0 0 0 0 0 0 0 0 0 0 0 0 0 0 0 0 0 0 0 0 0 0 0 0 0 0 0 0 0 0 0 0 0 0 0 0 0 0 0 0 0 0 0 0 0 0 0 0 0 0 0 0 0 0 0 0 0 0 0 0 0 0 0 0 0 0 0 0 0 0 0 0 0 0 0 0 0 0 0 0 0 0 0 0 0 0 0 0 0 0 0 0 0 0 0 0 0 0 0 0 0 0 0 0 0 0 0 0 0 0 0 0 0 0 0 0 0 0 0 0 0 0 0 0 0 0 0 0 0 0 0 0 0 0 0 0 0 0 0 0 0 0 0 0 0 0 0 0 0 0 0 0 0 
0 0 0 0 0 0 0 0 0 0 0 0 0 0 0 0 0 0 0 0 0 0 0 0 0 0 0 0 0 0 0 0 0 0 0 0 0 0 0 0 0 0 0 0 0 0 0 0 0 0 0 0 0 0 0 0 0 0 0 0 0 0 0 0 0 0 0 0 0 0 0 0 0 0 0 0 0 0 0 0 0 0 0 0 0 0 0 0 0 0 0 0 0 0 0 0 0 0 0 0 0 0 0 0 0 0 0 0 0 0 0 0 0 0 0 0 0 0 0 0 0 0 0 0 0 0 0 0 0 0 0 0 0 0 0 0 0 0 0 0 0 0 0 0 0 0 0 0 0 0 0 0 0 0 0 0 0 0 0 0 0 0 0 0 0 0 0 0 0 0 0 0 0 0 0 0 0 0 0 0 
0 0 0 0 0 0 0 0 0 0 0 0 0 0 0 0 0 0 0 0 0 0 0 0 0 0 0 0 0 0 0 0 0 0 0 0 0 0 0 0 0 0 0 0 0 0 0 0 0 0 0 0 0 0 0 0 0 0 0 0 0 0 0 0 0 0 0 0 0 0 0 0 0 0 0 0 0 0 0 0 0 0 0 0 0 0 0 0 0 0 0 0 0 0 0 0 0 0 0 0 0 0 0 0 0 0 0 0 0 0 0 0 0 0 0 0 0 0 0 0 0 0 0 0 0 0 0 0 0 0 0 0 0 0 0 0 0 0 0 0 0 0 0 0 0 0 0 0 0 0 0 0 0 0 0 0 0 0 0 0 0 0 0 0 0 0 0 0 0 0 0 0 0 0 0 0 0 0 0 0 
0 0 0 0 0 0 0 0 0 0 0 0 0 0 0 0 0 0 0 0 0 0 0 0 0 0 0 0 0 0 0 0 0 0 0 0 0 0 0 0 0 0 0 0 0 0 0 0 0 0 0 0 0 0 0 0 0 0 0 0 0 0 0 0 0 0 0 0 0 0 0 0 0 0 0 0 0 0 0 0 0 0 0 0 0 0 0 0 0 0 0 0 0 0 0 0 0 0 0 0 0 0 0 0 0 0 0 0 0 0 0 0 0 0 0 0 0 0 0 0 0 0 0 0 0 0 0 0 0 0 0 0 0 0 0 0 0 0 0 0 0 0 0 0 0 0 0 0 0 0 0 0 0 0 0 0 0 0 0 0 0 0 0 0 0 0 0 0 0 0 0 0 0 0 0 0 0 0 0 0 
0 0 0 0 0 0 0 0 0 0 0 0 0 0 0 0 0 0 0 0 0 0 0 0 0 0 0 0 0 0 0 0 0 0 0 0 0 0 0 0 0 0 0 0 0 0 0 0 0 0 0 0 0 0 0 0 0 0 0 0 0 0 0 0 0 0 0 0 0 0 0 0 0 0 0 0 0 0 0 0 0 0 0 0 0 0 0 0 0 0 0 0 0 0 0 0 0 0 0 0 0 0 0 0 0 0 0 0 0 0 0 0 0 0 0 0 0 0 0 0 0 0 0 0 0 0 0 0 0 0 0 0 0 0 0 0 0 0 0 0 0 0 0 0 0 0 0 0 0 0 0 0 0 0 0 0 0 0 0 0 0 0 0 0 0 0 0 0 0 0 0 0 0 0 0 0 0 0 0 0 
0 0 0 0 0 0 0 0 0 0 0 0 0 0 0 0 0 0 0 0 0 0 0 0 0 0 0 0 0 0 0 0 0 0 0 0 0 0 0 0 0 0 0 0 0 0 0 0 0 0 0 0 0 0 0 0 0 0 0 0 0 0 0 0 0 0 0 0 0 0 0 0 0 0 0 0 0 0 0 0 0 0 0 0 0 0 0 0 0 0 0 0 0 0 0 0 0 0 0 0 0 0 0 0 0 0 0 0 0 0 0 0 0 0 0 0 0 0 0 0 0 0 0 0 0 0 0 0 0 0 0 0 0 0 0 0 0 0 0 0 0 0 0 0 0 0 0 0 0 0 0 0 0 0 0 0 0 0 0 0 0 0 0 0 0 0 0 0 0 0 0 0 0 0 0 0 0 0 0 0 
0 0 0 0 0 0 0 0 0 0 0 0 0 0 0 0 0 0 0 0 0 0 0 0 0 0 0 0 0 0 469 0 0 896 0 0 980 0 0 940 0 0 953 0 0 894 0 0 927 0 0 888 0 0 910 0 0 911 0 0 911 0 0 952 0 0 920 0 0 901 0 0 898 0 0 922 0 0 938 0 0 964 0 0 930 0 0 900 0 0 942 0 0 956 0 0 934 0 0 927 0 0 906 0 0 931 0 0 918 0 0 932 0 0 992 0 0 949 0 0 952 0 0 909 0 0 945 0 0 939 0 0 928 0 0 923 0 0 904 0 0 936 0 0 879 0 0 918 0 0 455 0 0 0 0 0 0 0 0 0 0 0 0 0 0 0 0 0 0 0 0 0 0 0 0 0 0 0 0 0 
0 0 0 0 0 0 0 0 0 0 0 0 0 0 0 0 0 0 0 0 0 0 0 0 0 0 0 0 0 0 871 0 0 1735 0 0 1893 0 0 1976 0 0 1835 0 0 1858 0 0 1859 0 0 1903 0 0 1851 0 0 1892 0 0 1868 0 0 1892 0 0 1803 0 0 2000 0 0 1785 0 0 1898 0 0 1906 0 0 1910 0 0 1927 0 0 1879 0 0 1784 0 0 1768 0 0 1829 0 0 1853 0 0 1901 0 0 1823 0 0 1843 0 0 1864 0 0 1793 0 0 1831 0 0 1850 0 0 1815 0 0 1928 0 0 1827 0 0 1845 0 0 1915 0 0 1856 0 0 1912 0 0 1816 0 0 1881 0 0 915 0 0 0 0 0 0 0 0 0 0 0 0 0 0 0 0 0 0 0 0 0 0 0 0 0 0 0 0 0 
0 0 0 0 0 0 0 0 0 0 0 0 0 0 0 0 0 0 0 0 0 0 0 0 0 0 0 0 0 0 874 0 0 1846 0 0 1834 0 0 1881 0 0 1839 0 0 1780 0 0 1838 0 0 1874 0 0 1838 0 0 1860 0 0 1904 0 0 1937 0 0 1848 0 0 1857 0 0 1948 0 0 1836 0 0 1890 0 0 1975 0 0 1883 0 0 1845 0 0 1865 0 0 1814 0 0 1938 0 0 1878 0 0 1818 0 0 1852 0 0 1820 0 0 1948 0 0 1825 0 0 1824 0 0 1851 0 0 1910 0 0 1886 0 0 1876 0 0 1808 0 0 1789 0 0 1825 0 0 1863 0 0 1928 0 0 1882 0 0 919 0 0 0 0 0 0 0 0 0 0 0 0 0 0 0 0 0 0 0 0 0 0 0 0 0 0 0 0 0 
0 0 0 0 0 0 0 0 0 0 0 0 0 0 0 0 0 0 0 0 0 0 0 0 0 0 0 0 0 0 969 0 0 1878 0 0 1821 0 0 1774 0 0 1903 0 0 1911 0 0 1850 0 0 1980 0 0 1860 0 0 1785 0 0 1890 0 0 1895 0 0 1920 0 0 1863 0 0 1840 0 0 1871 0 0 1890 0 0 1956 0 0 1885 0 0 1907 0 0 1849 0 0 1941 0 0 1885 0 0 1916 0 0 1929 0 0 1832 0 0 1848 0 0 1826 0 0 1886 0 0 1854 0 0 1832 0 0 1882 0 0 1842 0 0 1925 0 0 1854 0 0 1829 0 0 1905 0 0 1832 0 0 1882 0 0 1920 0 0 909 0 0 0 0 0 0 0 0 0 0 0 0 0 0 0 0 0 0 0 0 0 0 0 0 0 0 0 0 0 
0 0 0 0 0 0 0 0 0 0 0 0 0 0 0 0 0 0 0 0 0 0 0 0 0 0 0 0 0 0 895 0 0 1863 0 0 1870 0 0 1799 0 0 1846 0 0 1885 0 0 1808 0 0 1860 0 0 1935 0 0 1816 0 0 1888 0 0 1958 0 0 1835 0 0 1894 0 0 1889 0 0 1940 0 0 1883 0 0 1911 0 0 1911 0 0 1876 0 0 1856 0 0 1897 0 0 1959 0 0 1863 0 0 1936 0 0 1886 0 0 1983 0 0 1820 0 0 1937 0 0 1912 0 0 1849 0 0 1897 0 0 1851 0 0 1937 0 0 1835 0 0 1845 0 0 1845 0 0 1885 0 0 1924 0 0 1821 0 0 935 0 0 0 0 0 0 0 0 0 0 0 0 0 0 0 0 0 0 0 0 0 0 0 0 0 0 0 0 0 
0 0 0 0 0 0 0 0 0 0 0 0 0 0 0 0 0 0 0 0 0 0 0 0 0 0 0 0 0 0 904 0 0 1870 0 0 1939 0 0 1821 0 0 1916 0 0 1882 0 0 1911 0 0 1830 0 0 1894 0 0 1877 0 0 1942 0 0 1877 0 0 1933 0 0 1781 0 0 1894 0 0 1994 0 0 1850 0 0 1946 0 0 1801 0 0 1874 0 0 1876 0 0 1902 0 0 1809 0 0 1911 0 0 1888 0 0 1872 0 0 1843 0 0 1811 0 0 1935 0 0 1883 0 0 1901 0 0 1839 0 0 1881 0 0 1873 0 0 1915 0 0 1798 0 0 1786 0 0 1873 0 0 1866 0 0 1874 0 0 885 0 0 0 0 0 0 0 0 0 0 0 0 0 0 0 0 0 0 0 0 0 0 0 0 0 0 0 0 0 
0 0 0 0 0 0 0 0 0 0 0 0 0 0 0 0 0 0 0 0 0 0 0 0 0 0 0 0 0 0 987 0 0 1877 0 0 1811 0 0 1908 0 0 1914 0 0 1902 0 0 1891 0 0 1869 0 0 1916 0 0 1802 0 0 1793 0 0 1833 0 0 1867 0 0 1907 0 0 1816 0 0 1885 0 0 1840 0 0 1906 0 0 1837 0 0 1834 0 0 1895 0 0 1909 0 0 1929 0 0 1896 0 0 1846 0 0 1901 0 0 1802 0 0 1839 0 0 1894 0 0 1845 0 0 1924 0 0 1790 0 0 1824 0 0 1915 0 0 1868 0 0 1822 0 0 1866 0 0 1953 0 0 1871 0 0 1893 0 0 928 0 0 0 0 0 0 0 0 0 0 0 0 0 0 0 0 0 0 0 0 0 0 0 0 0 0 0 0 0 
0 0 0 0 0 0 0 0 0 0 0 0 0 0 0 0 0 0 0 0 0 0 0 0 0 0 0 0 0 0 935 0 0 1931 0 0 1795 0 0 1873 0 0 1833 0 0 1885 0 0 1846 0 0 1923 0 0 1947 0 0 1897 0 0 1890 0 0 1901 0 0 1868 0 0 1851 0 0 1868 0 0 1953 0 0 1872 0 0 1881 0 0 1808 0 0 1913 0 0 1889 0 0 1871 0 0 1787 0 0 1927 0 0 1846 0 0 1842 0 0 1891 0 0 1883 0 0 1827 0 0 1819 0 0 1987 0 0 1806 0 0 1941 0 0 1880 0 0 1866 0 0 1878 0 0 1851 0 0 1908 0 0 1839 0 0 1830 0 0 951 0 0 0 0 0 0 0 0 0 0 0 0 0 0 0 0 0 0 0 0 0 0 0 0 0 0 0 0 0 
0 0 0 0 0 0 0 0 0 0 0 0 0 0 0 0 0 0 0 0 0 0 0 0 0 0 0 0 0 0 890 0 0 1812 0 0 1891 0 0 1842 0 0 1869 0 0 1872 0 0 1849 0 0 1847 0 0 1806 0 0 1799 0 0 1813 0 0 1893 0 0 1844 0 0 1928 0 0 1840 0 0 1837 0 0 1868 0 0 1841 0 0 1874 0 0 1876 0 0 1864 0 0 1844 0 0 1883 0 0 1863 0 0 1892 0 0 1876 0 0 1874 0 0 1862 0 0 1833 0 0 1856 0 0 1931 0 0 1830 0 0 1938 0 0 1865 0 0 1905 0 0 1938 0 0 1861 0 0 1860 0 0 1859 0 0 1860 0 0 890 0 0 0 0 0 0 0 0 0 0 0 0 0 0 0 0 0 0 0 0 0 0 0 0 0 0 0 0 0 
0 0 0 0 0 0 0 0 0 0 0 0 0 0 0 0 0 0 0 0 0 0 0 0 0 0 0 0 0 0 905 0 0 1758 0 0 1851 0 0 1884 0 0 1873 0 0 1882 0 0 1872 0 0 1875 0 0 1800 0 0 1779 0 0 1893 0 0 1937 0 0 1874 0 0 1764 0 0 1833 0 0 1862 0 0 1881 0 0 1820 0 0 1791 0 0 1829 0 0 1902 0 0 1856 0 0 1902 0 0 1873 0 0 1861 0 0 1908 0 0 1903 0 0 1912 0 0 1825 0 0 1922 0 0 1866 0 0 1871 0 0 1847 0 0 1857 0 0 1821 0 0 1799 0 0 1856 0 0 1832 0 0 1807 0 0 1813 0 0 902 0 0 0 0 0 0 0 0 0 0 0 0 0 0 0 0 0 0 0 0 0 0 0 0 0 0 0 0 0 
0 0 0 0 0 0 0 0 0 0 0 0 0 0 0 0 0 0 0 0 0 0 0 0 0 0 0 0 0 0 914 0 0 1881 0 0 1768 0 0 1866 0 0 1872 0 0 1783 0 0 1991 0 0 1830 0 0 1886 0 0 1944 0 0 1937 0 0 1840 0 0 1770 0 0 1868 0 0 1816 0 0 1900 0 0 1887 0 0 1831 0 0 1849 0 0 1862 0 0 1838 0 0 1796 0 0 1888 0 0 1874 0 0 1842 0 0 1903 0 0 1893 0 0 1996 0 0 1881 0 0 1825 0 0 1904 0 0 1907 0 0 1898 0 0 1795 0 0 1858 0 0 1794 0 0 1801 0 0 1860 0 0 1789 0 0 1811 0 0 933 0 0 0 0 0 0 0 0 0 0 0 0 0 0 0 0 0 0 0 0 0 0 0 0 0 0 0 0 0 
0 0 0 0 0 0 0 0 0 0 0 0 0 0 0 0 0 0 0 0 0 0 0 0 0 0 0 0 0 0 912 0 0 1865 0 0 1786 0 0 1881 0 0 1941 0 0 1813 0 0 1820 0 0 1862 0 0 1914 0 0 1861 0 0 1777 0 0 1847 0 0 1859 0 0 1820 0 0 1811 0 0 1939 0 0 1873 0 0 1879 0 0 1864 0 0 1843 0 0 1840 0 0 1933 0 0 1911 0 0 1875 0 0 1871 0 0 1916 0 0 1845 0 0 1872 0 0 1854 0 0 1868 0 0 1865 0 0 1815 0 0 1880 0 0 1913 0 0 1903 0 0 1843 0 0 1877 0 0 1857 0 0 1908 0 0 1855 0 0 922 0 0 0 0 0 0 0 0 0 0 0 0 0 0 0 0 0 0 0 0 0 0 0 0 0 0 0 0 0 
0 0 0 0 0 0 0 0 0 0 0 0 0 0 0 0 0 0 0 0 0 0 0 0 0 0 0 0 0 0 936 0 0 1863 0 0 1811 0 0 1784 0 0 1830 0 0 1939 0 0 1844 0 0 1847 0 0 1900 0 0 1950 0 0 1874 0 0 1907 0 0 1822 0 0 1859 0 0 1872 0 0 1810 0 0 1815 0 0 1861 0 0 1839 0 0 1946 0 0 1864 0 0 1856 0 0 1874 0 0 1760 0 0 1917 0 0 1856 0 0 1894 0 0 1830 0 0 1946 0 0 1846 0 0 1763 0 0 1876 0 0 1895 0 0 1890 0 0 1906 0 0 1736 0 0 1884 0 0 1850 0 0 1882 0 0 1814 0 0 932 0 0 0 0 0 0 0 0 0 0 0 0 0 0 0 0 0 0 0 0 0 0 0 0 0 0 0 0 0 
0 0 0 0 0 0 0 0 0 0 0 0 0 0 0 0 0 0 0 0 0 0 0 0 0 0 0 0 0 0 906 0 0 1826 0 0 1796 0 0 1807 0 0 1842 0 0 1821 0 0 1929 0 0 1917 0 0 1897 0 0 1860 0 0 1911 0 0 1796 0 0 1843 0 0 1873 0 0 1862 0 0 1882 0 0 1895 0 0 1837 0 0 1847 0 0 1813 0 0 1927 0 0 1797 0 0 1846 0 0 1903 0 0 1862 0 0 1827 0 0 1814 0 0 1877 0 0 1885 0 0 1861 0 0 1906 0 0 1812 0 0 1964 0 0 1909 0 0 1843 0 0 1874 0 0 1929 0 0 1921 0 0 1864 0 0 1857 0 0 911 0 0 0 0 0 0 0 0 0 0 0 0 0 0 0 0 0 0 0 0 0 0 0 0 0 0 0 0 0 
0 0 0 0 0 0 0 0 0 0 0 0 0 0 0 0 0 0 0 0 0 0 0 0 0 0 0 0 0 0 927 0 0 1897 0 0 1866 0 0 1897 0 0 1953 0 0 1857 0 0 1864 0 0 1895 0 0 1860 0 0 1880 0 0 1900 0 0 1865 0 0 1862 0 0 1804 0 0 1951 0 0 1919 0 0 1819 0 0 1832 0 0 1890 0 0 1922 0 0 1819 0 0 1856 0 0 1844 0 0 1850 0 0 1863 0 0 1826 0 0 1895 0 0 1931 0 0 1840 0 0 1860 0 0 1872 0 0 1848 0 0 1886 0 0 1847 0 0 1801 0 0 1805 0 0 1803 0 0 1851 0 0 1919 0 0 1811 0 0 950 0 0 0 0 0 0 0 0 0 0 0 0 0 0 0 0 0 0 0 0 0 0 0 0 0 0 0 0 0 
0 0 0 0 0 0 0 0 0 0 0 0 0 0 0 0 0 0 0 0 0 0 0 0 0 0 0 0 0 0 854 0 0 1878 0 0 1920 0 0 1822 0 0 1848 0 0 1911 0 0 1796 0 0 1788 0 0 1810 0 0 1841 0 0 1891 0 0 1855 0 0 1939 0 0 1855 0 0 1824 0 0 1914 0 0 1865 0 0 1789 0 0 1849 0 0 1859 0 0 1807 0 0 1929 0 0 1845 0 0 1863 0 0 1891 0 0 1910 0 0 1803 0 0 1768 0 0 1870 0 0 1896 0 0 1915 0 0 1834 0 0 1900 0 0 1887 0 0 1867 0 0 1833 0 0 1776 0 0 1839 0 0 1911 0 0 1878 0 0 936 0 0 0 0 0 0 0 0 0 0 0 0 0 0 0 0 0 0 0 0 0 0 0 0 0 0 0 0 0 
0 0 0 0 0 0 0 0 0 0 0 0 0 0 0 0 0 0 0 0 0 0 0 0 0 0 0 0 0 0 909 0 0 1811 0 0 1967 0 0 1852 0 0 1923 0 0 1827 0 0 1879 0 0 1839 0 0 1832 0 0 1886 0 0 1808 0 0 1877 0 0 1814 0 0 1843 0 0 1817 0 0 1794 0 0 1949 0 0 1872 0 0 1851 0 0 1868 0 0 1936 0 0 1850 0 0 1887 0 0 1942 0 0 1775 0 0 1910 0 0 1820 0 0 1765 0 0 1774 0 0 1815 0 0 1899 0 0 1882 0 0 1778 0 0 1837 0 0 1952 0 0 1871 0 0 1901 0 0 1872 0 0 1933 0 0 1839 0 0 919 0 0 0 0 0 0 0 0 0 0 0 0 0 0 0 0 0 0 0 0 0 0 0 0 0 0 0 0 0 
0 0 0 0 0 0 0 0 0 0 0 0 0 0 0 0 0 0 0 0 0 0 0 0 0 0 0 0 0 0 936 0 0 1876 0 0 1854 0 0 1880 0 0 1825 0 0 1820 0 0 1855 0 0 1858 0 0 1887 0 0 1932 0 0 1931 0 0 1900 0 0 1884 0 0 1876 0 0 1898 0 0 1883 0 0 1860 0 0 1825 0 0 1917 0 0 1819 0 0 1902 0 0 1787 0 0 1907 0 0 1817 0 0 1932 0 0 1795 0 0 1807 0 0 1845 0 0 1883 0 0 1831 0 0 1955 0 0 1904 0 0 1899 0 0 1849 0 0 1860 0 0 1827 0 0 1786 0 0 1837 0 0 1866 0 0 1764 0 0 891 0 0 0 0 0 0 0 0 0 0 0 0 0 0 0 0 0 0 0 0 0 0 0 0 0 0 0 0 0 
0 0 0 0 0 0 0 0 0 0 0 0 0 0 0 0 0 0 0 0 0 0 0 0 0 0 0 0 0 0 874 0 0 1804 0 0 1851 0 0 1840 0 0 1899 0 0 1813 0 0 1834 0 0 1863 0 0 1921 0 0 1859 0 0 1930 0 0 1856 0 0 1895 0 0 1930 0 0 1896 0 0 1937 0 0 1930 0 0 1832 0 0 1809 0 0 1863 0 0 1805 0 0 1895 0 0 1787 0 0 1835 0 0 1857 0 0 1945 0 0 1903 0 0 1899 0 0 1853 0 0 1908 0 0 1920 0 0 1956 0 0 1840 0 0 1858 0 0 1924 0 0 1915 0 0 1836 0 0 1869 0 0 1808 0 0 1903 0 0 881 0 0 0 0 0 0 0 0 0 0 0 0 0 0 0 0 0 0 0 0 0 0 0 0 0 0 0 0 0 
0 0 0 0 0 0 0 0 0 0 0 0 0 0 0 0 0 0 0 0 0 0 0 0 0 0 0 0 0 0 916 0 0 1817 0 0 1857 0 0 1882 0 0 1872 0 0 1885 0 0 1784 0 0 1841 0 0 1872 0 0 1870 0 0 1867 0 0 1892 0 0 1825 0 0 1867 0 0 1882 0 0 1853 0 0 1817 0 0 1927 0 0 1852 0 0 1850 0 0 1806 0 0 1790 0 0 1826 0 0 1825 0 0 1898 0 0 1776 0 0 1897 0 0 1874 0 0 1864 0 0 1874 0 0 1862 0 0 1916 0 0 1872 0 0 1823 0 0 1833 0 0 1921 0 0 1814 0 0 1819 0 0 1863 0 0 1884 0 0 956 0 0 0 0 0 0 0 0 0 0 0 0 0 0 0 0 0 0 0 0 0 0 0 0 0 0 0 0 0 
0 0 0 0 0 0 0 0 0 0 0 0 0 0 0 0 0 0 0 0 0 0 0 0 0 0 0 0 0 0 936 0 0 1875 0 0 1873 0 0 1845 0 0 1937 0 0 1873 0 0 1843 0 0 1841 0 0 1799 0 0 1842 0 0 1843 0 0 1818 0 0 1840 0 0 1843 0 0 1773 0 0 1820 0 0 1939 0 0 1836 0 0 1786 0 0 1863 0 0 1786 0 0 1904 0 0 1864 0 0 1741 0 0 1778 0 0 1877 0 0 1874 0 0 1815 0 0 1912 0 0 1889 0 0 1892 0 0 1824 0 0 1851 0 0 1751 0 0 1840 0 0 1870 0 0 1866 0 0 1885 0 0 1754 0 0 1849 0 0 883 0 0 0 0 0 0 0 0 0 0 0 0 0 0 0 0 0 0 0 0 0 0 0 0 0 0 0 0 0 
0 0 0 0 0 0 0 0 0 0 0 0 0 0 0 0 0 0 0 0 0 0 0 0 0 0 0 0 0 0 917 0 0 1927 0 0 1846 0 0 1870 0 0 1901 0 0 1840 0 0 1885 0 0 1907 0 0 1904 0 0 1879 0 0 1859 0 0 1957 0 0 1803 0 0 1833 0 0 1905 0 0 1835 0 0 1891 0 0 1828 0 0 1820 0 0 1917 0 0 1841 0 0 1861 0 0 1809 0 0 1886 0 0 1848 0 0 1841 0 0 1888 0 0 1891 0 0 1898 0 0 1875 0 0 1884 0 0 1908 0 0 1833 0 0 1873 0 0 1845 0 0 1829 0 0 1919 0 0 1885 0 0 1838 0 0 1814 0 0 972 0 0 0 0 0 0 0 0 0 0 0 0 0 0 0 0 0 0 0 0 0 0 0 0 0 0 0 0 0 
0 0 0 0 0 0 0 0 0 0 0 0 0 0 0 0 0 0 0 0 0 0 0 0 0 0 0 0 0 0 957 0 0 1872 0 0 1897 0 0 1863 0 0 1967 0 0 1896 0 0 1845 0 0 1903 0 0 1877 0 0 1768 0 0 1933 0 0 1873 0 0 1884 0 0 1877 0 0 1840 0 0 1873 0 0 1896 0 0 1856 0 0 1953 0 0 1808 0 0 1843 0 0 1895 0 0 1912 0 0 1889 0 0 1842 0 0 1782 0 0 1899 0 0 1825 0 0 1815 0 0 1925 0 0 1816 0 0 1892 0 0 1881 0 0 1935 0 0 1831 0 0 1882 0 0 1861 0 0 1888 0 0 1793 0 0 1832 0 0 888 0 0 0 0 0 0 0 0 0 0 0 0 0 0 0 0 0 0 0 0 0 0 0 0 0 0 0 0 0 
0 0 0 0 0 0 0 0 0 0 0 0 0 0 0 0 0 0 0 0 0 0 0 0 0 0 0 0 0 0 931 0 0 1919 0 0 1906 0 0 1895 0 0 1786 0 0 1799 0 0 1865 0 0 1825 0 0 1905 0 0 1887 0 0 1934 0 0 1886 0 0 1822 0 0 1844 0 0 1866 0 0 1861 0 0 1823 0 0 1832 0 0 1896 0 0 1880 0 0 1871 0 0 1889 0 0 1941 0 0 1845 0 0 1867 0 0 1967 0 0 1842 0 0 1879 0 0 1829 0 0 1814 0 0 1830 0 0 1858 0 0 1894 0 0 1764 0 0 1873 0 0 1819 0 0 1788 0 0 1895 0 0 1888 0 0 1791 0 0 957 0 0 0 0 0 0 0 0 0 0 0 0 0 0 0 0 0 0 0 0 0 0 0 0 0 0 0 0 0 
0 0 0 0 0 0 0 0 0 0 0 0 0 0 0 0 0 0 0 0 0 0 0 0 0 0 0 0 0 0 938 0 0 1932 0 0 1829 0 0 1932 0 0 1925 0 0 1822 0 0 1834 0 0 1862 0 0 1903 0 0 1911 0 0 1980 0 0 1831 0 0 1775 0 0 1966 0 0 1829 0 0 1876 0 0 1895 0 0 1865 0 0 1880 0 0 1920 0 0 1830 0 0 1935 0 0 1833 0 0 1830 0 0 1928 0 0 1797 0 0 1793 0 0 1843 0 0 1841 0 0 1751 0 0 1859 0 0 1837 0 0 1918 0 0 1891 0 0 1825 0 0 1909 0 0 1867 0 0 1904 0 0 1895 0 0 1874 0 0 890 0 0 0 0 0 0 0 0 0 0 0 0 0 0 0 0 0 0 0 0 0 0 0 0 0 0 0 0 0 
0 0 0 0 0 0 0 0 0 0 0 0 0 0 0 0 0 0 0 0 0 0 0 0 0 0 0 0 0 0 933 0 0 1841 0 0 1887 0 0 1831 0 0 1901 0 0 1838 0 0 1912 0 0 1884 0 0 1853 0 0 1825 0 0 1901 0 0 1883 0 0 1928 0 0 1881 0 0 1912 0 0 1873 0 0 1798 0 0 1851 0 0 1784 0 0 1845 0 0 1894 0 0 1817 0 0 1846 0 0 1900 0 0 1795 0 0 1835 0 0 1744 0 0 1860 0 0 1834 0 0 1906 0 0 1860 0 0 1874 0 0 1925 0 0 1829 0 0 1872 0 0 1830 0 0 1876 0 0 1887 0 0 1866 0 0 1809 0 0 933 0 0 0 0 0 0 0 0 0 0 0 0 0 0 0 0 0 0 0 0 0 0 0 0 0 0 0 0 0 
0 0 0 0 0 0 0 0 0 0 0 0 0 0 0 0 0 0 0 0 0 0 0 0 0 0 0 0 0 0 980 0 0 1884 0 0 1856 0 0 1866 0 0 1905 0 0 1811 0 0 1796 0 0 1841 0 0 1969 0 0 1822 0 0 1941 0 0 1847 0 0 1780 0 0 1802 0 0 1861 0 0 1891 0 0 1821 0 0 1841 0 0 1832 0 0 1878 0 0 1894 0 0 1916 0 0 1861 0 0 1860 0 0 1862 0 0 1858 0 0 1831 0 0 1871 0 0 1829 0 0 1858 0 0 1832 0 0 1876 0 0 1907 0 0 1933 0 0 1875 0 0 1881 0 0 1869 0 0 1835 0 0 1931 0 0 1811 0 0 934 0 0 0 0 0 0 0 0 0 0 0 0 0 0 0 0 0 0 0 0 0 0 0 0 0 0 0 0 0 
0 0 0 0 0 0 0 0 0 0 0 0 0 0 0 0 0 0 0 0 0 0 0 0 0 0 0 0 0 0 974 0 0 1857 0 0 1931 0 0 1880 0 0 1906 0 0 1874 0 0 1798 0 0 1869 0 0 1839 0 0 1906 0 0 1797 0 0 1819 0 0 1814 0 0 1885 0 0 1794 0 0 1900 0 0 1820 0 0 1938 0 0 1852 0 0 1969 0 0 1935 0 0 1836 0 0 1861 0 0 1908 0 0 1787 0 0 1854 0 0 1827 0 0 1875 0 0 1876 0 0 1823 0 0 1873 0 0 1863 0 0 1892 0 0 1903 0 0 1864 0 0 1779 0 0 1822 0 0 1857 0 0 1841 0 0 1821 0 0 957 0 0 0 0 0 0 0 0 0 0 0 0 0 0 0 0 0 0 0 0 0 0 0 0 0 0 0 0 0 
0 0 0 0 0 0 0 0 0 0 0 0 0 0 0 0 0 0 0 0 0 0 0 0 0 0 0 0 0 0 934 0 0 1879 0 0 1853 0 0 1892 0 0 1900 0 0 1844 0 0 1880 0 0 1776 0 0 1856 0 0 1832 0 0 1813 0 0 1963 0 0 1919 0 0 1779 0 0 1885 0 0 1862 0 0 1833 0 0 1926 0 0 1809 0 0 1883 0 0 1895 0 0 1830 0 0 1853 0 0 1868 0 0 1844 0 0 1881 0 0 1771 0 0 1814 0 0 1934 0 0 1869 0 0 1933 0 0 1820 0 0 1906 0 0 1901 0 0 1929 0 0 1810 0 0 1986 0 0 1872 0 0 1898 0 0 1956 0 0 908 0 0 0 0 0 0 0 0 0 0 0 0 0 0 0 0 0 0 0 0 0 0 0 0 0 0 0 0 0 
0 0 0 0 0 0 0 0 0 0 0 0 0 0 0 0 0 0 0 0 0 0 0 0 0 0 0 0 0 0 916 0 0 1935 0 0 1791 0 0 1920 0 0 1844 0 0 1855 0 0 1925 0 0 1808 0 0 1814 0 0 1896 0 0 1837 0 0 1815 0 0 1805 0 0 1902 0 0 1815 0 0 1900 0 0 1794 0 0 1835 0 0 1897 0 0 1885 0 0 1841 0 0 1837 0 0 1861 0 0 1860 0 0 1821 0 0 1849 0 0 1926 0 0 1850 0 0 1878 0 0 1887 0 0 1877 0 0 1885 0 0 1813 0 0 1895 0 0 1902 0 0 1894 0 0 1833 0 0 1837 0 0 1840 0 0 1852 0 0 964 0 0 0 0 0 0 0 0 0 0 0 0 0 0 0 0 0 0 0 0 0 0 0 0 0 0 0 0 0 
0 0 0 0 0 0 0 0 0 0 0 0 0 0 0 0 0 0 0 0 0 0 0 0 0 0 0 0 0 0 974 0 0 1848 0 0 1811 0 0 1841 0 0 1854 0 0 1904 0 0 1847 0 0 1880 0 0 1866 0 0 1895 0 0 1849 0 0 1841 0 0 1827 0 0 1801 0 0 1913 0 0 1830 0 0 1815 0 0 1822 0 0 1873 0 0 1789 0 0 1889 0 0 1822 0 0 1869 0 0 1856 0 0 1889 0 0 1879 0 0 1867 0 0 1892 0 0 1843 0 0 1882 0 0 1800 0 0 1852 0 0 1861 0 0 1852 0 0 1907 0 0 1864 0 0 1814 0 0 1897 0 0 1794 0 0 1868 0 0 883 0 0 0 0 0 0 0 0 0 0 0 0 0 0 0 0 0 0 0 0 0 0 0 0 0 0 0 0 0 
0 0 0 0 0 0 0 0 0 0 0 0 0 0 0 0 0 0 0 0 0 0 0 0 0 0 0 0 0 0 913 0 0 1823 0 0 1824 0 0 1856 0 0 1859 0 0 1821 0 0 1831 0 0 1846 0 0 1867 0 0 1770 0 0 1850 0 0 1880 0 0 1858 0 0 1837 0 0 1826 0 0 1890 0 0 1839 0 0 1835 0 0 1814 0 0 1917 0 0 1821 0 0 1786 0 0 1760 0 0 1910 0 0 1840 0 0 1907 0 0 1869 0 0 1930 0 0 1895 0 0 1893 0 0 1855 0 0 1776 0 0 1840 0 0 1942 0 0 1798 0 0 1807 0 0 1861 0 0 1856 0 0 1846 0 0 1893 0 0 943 0 0 0 0 0 0 0 0 0 0 0 0 0 0 0 0 0 0 0 0 0 0 0 0 0 0 0 0 0 
0 0 0 0 0 0 0 0 0 0 0 0 0 0 0 0 0 0 0 0 0 0 0 0 0 0 0 0 0 0 933 0 0 1849 0 0 1870 0 0 1861 0 0 1866 0 0 1831 0 0 1880 0 0 1889 0 0 1836 0 0 1951 0 0 1805 0 0 1930 0 0 1895 0 0 1828 0 0 1881 0 0 1880 0 0 1914 0 0 1886 0 0 1892 0 0 1831 0 0 1838 0 0 1915 0 0 1881 0 0 1908 0 0 1843 0 0 1905 0 0 1880 0 0 1793 0 0 1867 0 0 1842 0 0 1890 0 0 1890 0 0 1914 0 0 1878 0 0 1836 0 0 1878 0 0 1863 0 0 1774 0 0 1915 0 0 1813 0 0 934 0 0 0 0 0 0 0 0 0 0 0 0 0 0 0 0 0 0 0 0 0 0 0 0 0 0 0 0 0 
0 0 0 0 0 0 0 0 0 0 0 0 0 0 0 0 0 0 0 0 0 0 0 0 0 0 0 0 0 0 920 0 0 1790 0 0 1882 0 0 1948 0 0 1884 0 0 1823 0 0 1871 0 0 1876 0 0 1834 0 0 1804 0 0 1838 0 0 1835 0 0 1902 0 0 1884 0 0 1848 0 0 1948 0 0 1808 0 0 1856 0 0 1812 0 0 1805 0 0 1948 0 0 1855 0 0 1907 0 0 1894 0 0 1896 0 0 1858 0 0 1823 0 0 1958 0 0 1859 0 0 1937 0 0 1787 0 0 1841 0 0 1857 0 0 1988 0 0 1922 0 0 1929 0 0 1814 0 0 1817 0 0 1869 0 0 1867 0 0 928 0 0 0 0 0 0 0 0 0 0 0 0 0 0 0 0 0 0 0 0 0 0 0 0 0 0 0 0 0 
0 0 0 0 0 0 0 0 0 0 0 0 0 0 0 0 0 0 0 0 0 0 0 0 0 0 0 0 0 0 911 0 0 1801 0 0 1891 0 0 1916 0 0 1888 0 0 1876 0 0 1922 0 0 1844 0 0 1872 0 0 1850 0 0 1811 0 0 1865 0 0 1922 0 0 1870 0 0 1841 0 0 1815 0 0 1824 0 0 1779 0 0 1830 0 0 1837 0 0 1901 0 0 1889 0 0 1877 0 0 1844 0 0 1823 0 0 1803 0 0 1827 0 0 1801 0 0 1904 0 0 1880 0 0 1836 0 0 1800 0 0 1872 0 0 1918 0 0 1864 0 0 1846 0 0 1846 0 0 1873 0 0 1840 0 0 1826 0 0 961 0 0 0 0 0 0 0 0 0 0 0 0 0 0 0 0 0 0 0 0 0 0 0 0 0 0 0 0 0 
0 0 0 0 0 0 0 0 0 0 0 0 0 0 0 0 0 0 0 0 0 0 0 0 0 0 0 0 0 0 905 0 0 1937 0 0 1928 0 0 1897 0 0 1857 0 0 1847 0 0 1891 0 0 1891 0 0 1845 0 0 1902 0 0 1838 0 0 1881 0 0 1839 0 0 1831 0 0 1824 0 0 1877 0 0 1907 0 0 1814 0 0 1899 0 0 1834 0 0 1861 0 0 1858 0 0 1910 0 0 1795 0 0 1850 0 0 1843 0 0 1790 0 0 1840 0 0 1820 0 0 1827 0 0 1870 0 0 1836 0 0 1873 0 0 1841 0 0 1822 0 0 1881 0 0 1768 0 0 1965 0 0 1872 0 0 1867 0 0 932 0 0 0 0 0 0 0 0 0 0 0 0 0 0 0 0 0 0 0 0 0 0 0 0 0 0 0 0 0 
0 0 0 0 0 0 0 0 0 0 0 0 0 0 0 0 0 0 0 0 0 0 0 0 0 0 0 0 0 0 978 0 0 1900 0 0 1934 0 0 1971 0 0 1808 0 0 1916 0 0 1789 0 0 1831 0 0 1805 0 0 1933 0 0 1899 0 0 1840 0 0 1949 0 0 1812 0 0 1888 0 0 1786 0 0 1863 0 0 1841 0 0 1840 0 0 1791 0 0 1904 0 0 1828 0 0 1844 0 0 1919 0 0 1878 0 0 1901 0 0 1902 0 0 1833 0 0 1843 0 0 1889 0 0 1859 0 0 1942 0 0 1854 0 0 1916 0 0 1873 0 0 1915 0 0 1973 0 0 1903 0 0 1974 0 0 1848 0 0 935 0 0 0 0 0 0 0 0 0 0 0 0 0 0 0 0 0 0 0 0 0 0 0 0 0 0 0 0 0 
0 0 0 0 0 0 0 0 0 0 0 0 0 0 0 0 0 0 0 0 0 0 0 0 0 0 0 0 0 0 920 0 0 1898 0 0 1960 0 0 1897 0 0 1919 0 0 1871 0 0 1906 0 0 1870 0 0 1927 0 0 1859 0 0 1900 0 0 1798 0 0 1847 0 0 1863 0 0 1787 0 0 1893 0 0 1862 0 0 1921 0 0 1911 0 0 1886 0 0 1826 0 0 1835 0 0 1881 0 0 1951 0 0 1871 0 0 1832 0 0 1793 0 0 1906 0 0 1905 0 0 1899 0 0 1909 0 0 1882 0 0 1836 0 0 1848 0 0 1804 0 0 1910 0 0 1814 0 0 1977 0 0 1890 0 0 1797 0 0 895 0 0 0 0 0 0 0 0 0 0 0 0 0 0 0 0 0 0 0 0 0 0 0 0 0 0 0 0 0 
0 0 0 0 0 0 0 0 0 0 0 0 0 0 0 0 0 0 0 0 0 0 0 0 0 0 0 0 0 0 911 0 0 1866 0 0 1892 0 0 1806 0 0 1933 0 0 1874 0 0 1942 0 0 1845 0 0 1883 0 0 1887 0 0 1878 0 0 1934 0 0 1848 0 0 1844 0 0 1839 0 0 1869 0 0 1825 0 0 1840 0 0 1823 0 0 1910 0 0 1834 0 0 1874 0 0 1829 0 0 1824 0 0 1916 0 0 1836 0 0 1809 0 0 1807 0 0 1923 0 0 1797 0 0 1886 0 0 1919 0 0 1843 0 0 1820 0 0 1863 0 0 1855 0 0 1878 0 0 1794 0 0 1884 0 0 1880 0 0 999 0 0 0 0 0 0 0 0 0 0 0 0 0 0 0 0 0 0 0 0 0 0 0 0 0 0 0 0 0 
0 0 0 0 0 0 0 0 0 0 0 0 0 0 0 0 0 0 0 0 0 0 0 0 0 0 0 0 0 0 949 0 0 1886 0 0 1944 0 0 1965 0 0 1892 0 0 1858 0 0 1834 0 0 1928 0 0 1886 0 0 1938 0 0 1809 0 0 1938 0 0 1835 0 0 1968 0 0 1755 0 0 1917 0 0 1833 0 0 1942 0 0 1869 0 0 1869 0 0 1926 0 0 1896 0 0 1941 0 0 1853 0 0 1907 0 0 1887 0 0 1892 0 0 1894 0 0 1774 0 0 1852 0 0 1831 0 0 1897 0 0 1882 0 0 1874 0 0 1781 0 0 1841 0 0 1880 0 0 1820 0 0 1877 0 0 1900 0 0 896 0 0 0 0 0 0 0 0 0 0 0 0 0 0 0 0 0 0 0 0 0 0 0 0 0 0 0 0 0 
0 0 0 0 0 0 0 0 0 0 0 0 0 0 0 0 0 0 0 0 0 0 0 0 0 0 0 0 0 0 438 0 0 902 0 0 939 0 0 898 0 0 945 0 0 959 0 0 921 0 0 921 0 0 942 0 0 938 0 0 953 0 0 1012 0 0 902 0 0 906 0 0 976 0 0 907 0 0 991 0 0 933 0 0 981 0 0 941 0 0 908 0 0 939 0 0 871 0 0 916 0 0 940 0 0 917 0 0 961 0 0 933 0 0 908 0 0 896 0 0 917 0 0 995 0 0 937 0 0 991 0 0 953 0 0 855 0 0 912 0 0 953 0 0 949 0 0 950 0 0 436 0 0 0 0 0 0 0 0 0 0 0 0 0 0 0 0 0 0 0 0 0 0 0 0 0 0 0 0 0 
0 0 0 0 0 0 0 0 0 0 0 0 0 0 0 0 0 0 0 0 0 0 0 0 0 0 0 0 0 0 0 0 0 0 0 0 0 0 0 0 0 0 0 0 0 0 0 0 0 0 0 0 0 0 0 0 0 0 0 0 0 0 0 0 0 0 0 0 0 0 0 0 0 0 0 0 0 0 0 0 0 0 0 0 0 0 0 0 0 0 0 0 0 0 0 0 0 0 0 0 0 0 0 0 0 0 0 0 0 0 0 0 0 0 0 0 0 0 0 0 0 0 0 0 0 0 0 0 0 0 0 0 0 0 0 0 0 0 0 0 0 0 0 0 0 0 0 0 0 0 0 0 0 0 0 0 0 0 0 0 0 0 0 0 0 0 0 0 0 0 0 0 0 0 0 0 0 0 0 0 
0 0 0 0 0 0 0 0 0 0 0 0 0 0 0 0 0 0 0 0 0 0 0 0 0 0 0 0 0 0 0 0 0 0 0 0 0 0 0 0 0 0 0 0 0 0 0 0 0 0 0 0 0 0 0 0 0 0 0 0 0 0 0 0 0 0 0 0 0 0 0 0 0 0 0 0 0 0 0 0 0 0 0 0 0 0 0 0 0 0 0 0 0 0 0 0 0 0 0 0 0 0 0 0 0 0 0 0 0 0 0 0 0 0 0 0 0 0 0 0 0 0 0 0 0 0 0 0 0 0 0 0 0 0 0 0 0 0 0 0 0 0 0 0 0 0 0 0 0 0 0 0 0 0 0 0 0 0 0 0 0 0 0 0 0 0 0 0 0 0 0 0 0 0 0 0 0 0 0 0 
0 0 0 0 0 0 0 0 0 0 0 0 0 0 0 0 0 0 0 0 0 0 0 0 0 0 0 0 0 0 0 0 0 0 0 0 0 0 0 0 0 0 0 0 0 0 0 0 0 0 0 0 0 0 0 0 0 0 0 0 0 0 0 0 0 0 0 0 0 0 0 0 0 0 0 0 0 0 0 0 0 0 0 0 0 0 0 0 0 0 0 0 0 0 0 0 0 0 0 0 0 0 0 0 0 0 0 0 0 0 0 0 0 0 0 0 0 0 0 0 0 0 0 0 0 0 0 0 0 0 0 0 0 0 0 0 0 0 0 0 0 0 0 0 0 0 0 0 0 0 0 0 0 0 0 0 0 0 0 0 0 0 0 0 0 0 0 0 0 0 0 0 0 0 0 0 0 0 0 0 
0 0 0 0 0 0 0 0 0 0 0 0 0 0 0 0 0 0 0 0 0 0 0 0 0 0 0 0 0 0 0 0 0 0 0 0 0 0 0 0 0 0 0 0 0 0 0 0 0 0 0 0 0 0 0 0 0 0 0 0 0 0 0 0 0 0 0 0 0 0 0 0 0 0 0 0 0 0 0 0 0 0 0 0 0 0 0 0 0 0 0 0 0 0 0 0 0 0 0 0 0 0 0 0 0 0 0 0 0 0 0 0 0 0 0 0 0 0 0 0 0 0 0 0 0 0 0 0 0 0 0 0 0 0 0 0 0 0 0 0 0 0 0 0 0 0 0 0 0 0 0 0 0 0 0 0 0 0 0 0 0 0 0 0 0 0 0 0 0 0 0 0 0 0 0 0 0 0 0 0 
0 0 0 0 0 0 0 0 0 0 0 0 0 0 0 0 0 0 0 0 0 0 0 0 0 0 0 0 0 0 0 0 0 0 0 0 0 0 0 0 0 0 0 0 0 0 0 0 0 0 0 0 0 0 0 0 0 0 0 0 0 0 0 0 0 0 0 0 0 0 0 0 0 0 0 0 0 0 0 0 0 0 0 0 0 0 0 0 0 0 0 0 0 0 0 0 0 0 0 0 0 0 0 0 0 0 0 0 0 0 0 0 0 0 0 0 0 0 0 0 0 0 0 0 0 0 0 0 0 0 0 0 0 0 0 0 0 0 0 0 0 0 0 0 0 0 0 0 0 0 0 0 0 0 0 0 0 0 0 0 0 0 0 0 0 0 0 0 0 0 0 0 0 0 0 0 0 0 0 0 
0 0 0 0 0 0 0 0 0 0 0 0 0 0 0 0 0 0 0 0 0 0 0 0 0 0 0 0 0 0 0 0 0 0 0 0 0 0 0 0 0 0 0 0 0 0 0 0 0 0 0 0 0 0 0 0 0 0 0 0 0 0 0 0 0 0 0 0 0 0 0 0 0 0 0 0 0 0 0 0 0 0 0 0 0 0 0 0 0 0 0 0 0 0 0 0 0 0 0 0 0 0 0 0 0 0 0 0 0 0 0 0 0 0 0 0 0 0 0 0 0 0 0 0 0 0 0 0 0 0 0 0 0 0 0 0 0 0 0 0 0 0 0 0 0 0 0 0 0 0 0 0 0 0 0 0 0 0 0 0 0 0 0 0 0 0 0 0 0 0 0 0 0 0 0 0 0 0 0 0 
0 0 0 0 0 0 0 0 0 0 0 0 0 0 0 0 0 0 0 0 0 0 0 0 0 0 0 0 0 0 0 0 0 0 0 0 0 0 0 0 0 0 0 0 0 0 0 0 0 0 0 0 0 0 0 0 0 0 0 0 0 0 0 0 0 0 0 0 0 0 0 0 0 0 0 0 0 0 0 0 0 0 0 0 0 0 0 0 0 0 0 0 0 0 0 0 0 0 0 0 0 0 0 0 0 0 0 0 0 0 0 0 0 0 0 0 0 0 0 0 0 0 0 0 0 0 0 0 0 0 0 0 0 0 0 0 0 0 0 0 0 0 0 0 0 0 0 0 0 0 0 0 0 0 0 0 0 0 0 0 0 0 0 0 0 0 0 0 0 0 0 0 0 0 0 0 0 0 0 0 
0 0 0 0 0 0 0 0 0 0 0 0 0 0 0 0 0 0 0 0 0 0 0 0 0 0 0 0 0 0 0 0 0 0 0 0 0 0 0 0 0 0 0 0 0 0 0 0 0 0 0 0 0 0 0 0 0 0 0 0 0 0 0 0 0 0 0 0 0 0 0 0 0 0 0 0 0 0 0 0 0 0 0 0 0 0 0 0 0 0 0 0 0 0 0 0 0 0 0 0 0 0 0 0 0 0 0 0 0 0 0 0 0 0 0 0 0 0 0 0 0 0 0 0 0 0 0 0 0 0 0 0 0 0 0 0 0 0 0 0 0 0 0 0 0 0 0 0 0 0 0 0 0 0 0 0 0 0 0 0 0 0 0 0 0 0 0 0 0 0 0 0 0 0 0 0 0 0 0 0 
0 0 0 0 0 0 0 0 0 0 0 0 0 0 0 0 0 0 0 0 0 0 0 0 0 0 0 0 0 0 0 0 0 0 0 0 0 0 0 0 0 0 0 0 0 0 0 0 0 0 0 0 0 0 0 0 0 0 0 0 0 0 0 0 0 0 0 0 0 0 0 0 0 0 0 0 0 0 0 0 0 0 0 0 0 0 0 0 0 0 0 0 0 0 0 0 0 0 0 0 0 0 0 0 0 0 0 0 0 0 0 0 0 0 0 0 0 0 0 0 0 0 0 0 0 0 0 0 0 0 0 0 0 0 0 0 0 0 0 0 0 0 0 0 0 0 0 0 0 0 0 0 0 0 0 0 0 0 0 0 0 0 0 0 0 0 0 0 0 0 0 0 0 0 0 0 0 0 0 0 
