P3
# This is a dose file slice at depth 36 of 100
60 60
# now we give the maximum value of the RGB coordinates.
21610
0 0 0 3 0 0 1 0 0 2 0 0 3 0 0 0 0 0 0 0 0 2 0 0 3 0 0 1 0 0 1 0 0 4 0 0 2 0 0 1 0 0 2 0 0 2 0 0 2 0 0 0 0 0 1 0 0 0 0 0 2 0 0 1 0 0 3 0 0 2 0 0 4 0 0 1 0 0 3 0 0 4 0 0 1 0 0 1 0 0 4 0 0 3 0 0 1 0 0 2 0 0 3 0 0 2 0 0 1 0 0 2 0 0 0 0 0 0 0 0 1 0 0 3 0 0 1 0 0 1 0 0 5 0 0 0 0 0 2 0 0 2 0 0 2 0 0 0 0 0 1 0 0 1 0 0 4 0 0 1 0 0 2 0 0 3 0 0 0 0 0 0 0 0 0 0 0 1 0 0 
4 0 0 0 0 0 2 0 0 2 0 0 2 0 0 3 0 0 1 0 0 3 0 0 3 0 0 5 0 0 6 0 0 3 0 0 10 0 0 2 0 0 5 0 0 9 0 0 6 0 0 1 0 0 4 0 0 1 0 0 4 0 0 6 0 0 6 0 0 5 0 0 6 0 0 4 0 0 9 0 0 4 0 0 7 0 0 5 0 0 8 0 0 6 0 0 5 0 0 6 0 0 4 0 0 1 0 0 8 0 0 6 0 0 1 0 0 0 0 0 6 0 0 5 0 0 6 0 0 7 0 0 5 0 0 4 0 0 5 0 0 4 0 0 2 0 0 1 0 0 2 0 0 2 0 0 4 0 0 3 0 0 6 0 0 2 0 0 1 0 0 0 0 0 0 0 0 1 0 0 
0 0 0 5 0 0 2 0 0 0 0 0 2 0 0 2 0 0 3 0 0 3 0 0 4 0 0 5 0 0 2 0 0 1 0 0 4 0 0 4 0 0 6 0 0 9 0 0 5 0 0 5 0 0 4 0 0 2 0 0 9 0 0 5 0 0 5 0 0 6 0 0 9 0 0 8 0 0 6 0 0 4 0 0 5 0 0 8 0 0 9 0 0 4 0 0 6 0 0 5 0 0 4 0 0 3 0 0 7 0 0 7 0 0 4 0 0 4 0 0 2 0 0 7 0 0 9 0 0 3 0 0 4 0 0 4 0 0 9 0 0 4 0 0 3 0 0 3 0 0 5 0 0 6 0 0 8 0 0 1 0 0 2 0 0 4 0 0 1 0 0 0 0 0 1 0 0 4 0 0 
0 0 0 1 0 0 1 0 0 4 0 0 3 0 0 2 0 0 3 0 0 3 0 0 2 0 0 5 0 0 2 0 0 0 0 0 7 0 0 1 0 0 12 0 0 9 0 0 2 0 0 7 0 0 5 0 0 2 0 0 6 0 0 6 0 0 2 0 0 9 0 0 9 0 0 4 0 0 12 0 0 8 0 0 6 0 0 5 0 0 13 0 0 8 0 0 4 0 0 7 0 0 5 0 0 6 0 0 6 0 0 4 0 0 7 0 0 3 0 0 7 0 0 7 0 0 4 0 0 3 0 0 4 0 0 5 0 0 4 0 0 7 0 0 4 0 0 5 0 0 11 0 0 5 0 0 4 0 0 0 0 0 7 0 0 4 0 0 1 0 0 3 0 0 3 0 0 4 0 0 
0 0 0 1 0 0 4 0 0 0 0 0 4 0 0 4 0 0 4 0 0 1 0 0 4 0 0 4 0 0 5 0 0 1 0 0 3 0 0 4 0 0 8 0 0 11 0 0 3 0 0 3 0 0 8 0 0 9 0 0 5 0 0 6 0 0 5 0 0 5 0 0 7 0 0 12 0 0 10 0 0 11 0 0 12 0 0 5 0 0 13 0 0 13 0 0 7 0 0 11 0 0 8 0 0 8 0 0 4 0 0 7 0 0 6 0 0 6 0 0 6 0 0 10 0 0 4 0 0 7 0 0 2 0 0 6 0 0 7 0 0 5 0 0 4 0 0 9 0 0 12 0 0 4 0 0 6 0 0 5 0 0 9 0 0 4 0 0 5 0 0 3 0 0 3 0 0 3 0 0 
0 0 0 2 0 0 4 0 0 5 0 0 3 0 0 4 0 0 5 0 0 5 0 0 4 0 0 5 0 0 6 0 0 1 0 0 5 0 0 6 0 0 5 0 0 8 0 0 6 0 0 6 0 0 10 0 0 12 0 0 11 0 0 6 0 0 9 0 0 10 0 0 11 0 0 12 0 0 13 0 0 12 0 0 7 0 0 12 0 0 14 0 0 7 0 0 11 0 0 8 0 0 12 0 0 14 0 0 8 0 0 13 0 0 11 0 0 9 0 0 8 0 0 12 0 0 6 0 0 9 0 0 6 0 0 4 0 0 10 0 0 8 0 0 6 0 0 13 0 0 7 0 0 8 0 0 4 0 0 10 0 0 8 0 0 3 0 0 6 0 0 1 0 0 2 0 0 1 0 0 
2 0 0 2 0 0 1 0 0 4 0 0 2 0 0 6 0 0 6 0 0 5 0 0 4 0 0 4 0 0 5 0 0 9 0 0 9 0 0 13 0 0 11 0 0 5 0 0 2 0 0 5 0 0 12 0 0 10 0 0 14 0 0 14 0 0 13 0 0 8 0 0 11 0 0 15 0 0 14 0 0 8 0 0 13 0 0 12 0 0 16 0 0 12 0 0 11 0 0 11 0 0 12 0 0 13 0 0 14 0 0 7 0 0 8 0 0 15 0 0 10 0 0 12 0 0 5 0 0 9 0 0 8 0 0 7 0 0 12 0 0 4 0 0 9 0 0 6 0 0 12 0 0 7 0 0 9 0 0 5 0 0 5 0 0 3 0 0 3 0 0 4 0 0 2 0 0 2 0 0 
1 0 0 1 0 0 1 0 0 1 0 0 4 0 0 7 0 0 9 0 0 6 0 0 7 0 0 3 0 0 6 0 0 8 0 0 4 0 0 8 0 0 11 0 0 6 0 0 9 0 0 9 0 0 11 0 0 13 0 0 13 0 0 12 0 0 12 0 0 11 0 0 13 0 0 19 0 0 12 0 0 14 0 0 15 0 0 13 0 0 17 0 0 23 0 0 14 0 0 13 0 0 13 0 0 20 0 0 19 0 0 8 0 0 16 0 0 9 0 0 11 0 0 12 0 0 10 0 0 6 0 0 16 0 0 12 0 0 6 0 0 11 0 0 10 0 0 12 0 0 14 0 0 9 0 0 11 0 0 6 0 0 7 0 0 8 0 0 2 0 0 3 0 0 3 0 0 5 0 0 
0 0 0 1 0 0 0 0 0 1 0 0 4 0 0 3 0 0 6 0 0 8 0 0 7 0 0 6 0 0 12 0 0 10 0 0 9 0 0 13 0 0 14 0 0 14 0 0 7 0 0 10 0 0 10 0 0 17 0 0 14 0 0 10 0 0 16 0 0 12 0 0 13 0 0 17 0 0 14 0 0 16 0 0 13 0 0 20 0 0 17 0 0 32 0 0 23 0 0 19 0 0 16 0 0 17 0 0 13 0 0 18 0 0 15 0 0 15 0 0 11 0 0 13 0 0 11 0 0 16 0 0 14 0 0 15 0 0 8 0 0 19 0 0 18 0 0 12 0 0 13 0 0 6 0 0 6 0 0 10 0 0 8 0 0 0 0 0 3 0 0 4 0 0 4 0 0 4 0 0 
3 0 0 3 0 0 2 0 0 1 0 0 1 0 0 2 0 0 6 0 0 8 0 0 11 0 0 14 0 0 34 0 0 67 0 0 66 0 0 68 0 0 67 0 0 80 0 0 68 0 0 65 0 0 68 0 0 81 0 0 75 0 0 77 0 0 64 0 0 67 0 0 78 0 0 66 0 0 82 0 0 74 0 0 76 0 0 68 0 0 67 0 0 73 0 0 54 0 0 69 0 0 84 0 0 65 0 0 63 0 0 73 0 0 59 0 0 71 0 0 59 0 0 76 0 0 70 0 0 68 0 0 67 0 0 65 0 0 70 0 0 64 0 0 64 0 0 59 0 0 29 0 0 9 0 0 9 0 0 12 0 0 3 0 0 4 0 0 5 0 0 7 0 0 8 0 0 3 0 0 
3 0 0 6 0 0 2 0 0 2 0 0 4 0 0 2 0 0 1 0 0 8 0 0 12 0 0 49 0 0 2316 0 0 4695 0 0 4722 0 0 4846 0 0 4733 0 0 4707 0 0 4774 0 0 4697 0 0 4751 0 0 4694 0 0 4683 0 0 4792 0 0 4866 0 0 4721 0 0 4748 0 0 4756 0 0 4633 0 0 4757 0 0 4774 0 0 4806 0 0 4763 0 0 4733 0 0 4675 0 0 4764 0 0 4820 0 0 4681 0 0 4726 0 0 4652 0 0 4877 0 0 4674 0 0 4702 0 0 4734 0 0 4609 0 0 4826 0 0 4769 0 0 4725 0 0 4805 0 0 4753 0 0 4568 0 0 4684 0 0 2322 0 0 35 0 0 12 0 0 7 0 0 2 0 0 4 0 0 5 0 0 6 0 0 2 0 0 1 0 0 
1 0 0 7 0 0 9 0 0 6 0 0 3 0 0 4 0 0 5 0 0 9 0 0 11 0 0 66 0 0 4622 0 0 9285 0 0 9475 0 0 9493 0 0 9459 0 0 9345 0 0 9555 0 0 9420 0 0 9309 0 0 9272 0 0 9299 0 0 9435 0 0 9551 0 0 9425 0 0 9412 0 0 9411 0 0 9275 0 0 9380 0 0 9324 0 0 9365 0 0 9480 0 0 9493 0 0 9471 0 0 9499 0 0 9477 0 0 9496 0 0 9555 0 0 9478 0 0 9438 0 0 9521 0 0 9373 0 0 9409 0 0 9328 0 0 9638 0 0 9300 0 0 9617 0 0 9444 0 0 9458 0 0 9459 0 0 9227 0 0 4718 0 0 64 0 0 13 0 0 12 0 0 10 0 0 5 0 0 10 0 0 4 0 0 7 0 0 4 0 0 
0 0 0 0 0 0 5 0 0 0 0 0 5 0 0 7 0 0 12 0 0 7 0 0 12 0 0 66 0 0 4740 0 0 9411 0 0 9467 0 0 9502 0 0 9552 0 0 9557 0 0 9379 0 0 9620 0 0 9409 0 0 9409 0 0 9535 0 0 9438 0 0 9525 0 0 9484 0 0 9317 0 0 9611 0 0 9584 0 0 9567 0 0 9502 0 0 9498 0 0 9454 0 0 9644 0 0 9564 0 0 9496 0 0 9475 0 0 9481 0 0 9412 0 0 9357 0 0 9514 0 0 9461 0 0 9531 0 0 9329 0 0 9581 0 0 9571 0 0 9651 0 0 9581 0 0 9463 0 0 9472 0 0 9439 0 0 9488 0 0 4771 0 0 61 0 0 11 0 0 6 0 0 5 0 0 8 0 0 3 0 0 4 0 0 3 0 0 2 0 0 
2 0 0 1 0 0 3 0 0 4 0 0 3 0 0 4 0 0 5 0 0 6 0 0 10 0 0 57 0 0 4806 0 0 9279 0 0 9618 0 0 9484 0 0 9694 0 0 9495 0 0 9414 0 0 9418 0 0 9531 0 0 9546 0 0 9599 0 0 9496 0 0 9384 0 0 9461 0 0 9452 0 0 9418 0 0 9627 0 0 9466 0 0 9575 0 0 9668 0 0 9597 0 0 9548 0 0 9484 0 0 9603 0 0 9577 0 0 9466 0 0 9520 0 0 9516 0 0 9462 0 0 9609 0 0 9546 0 0 9449 0 0 9436 0 0 9470 0 0 9541 0 0 9531 0 0 9466 0 0 9520 0 0 9445 0 0 9558 0 0 4685 0 0 72 0 0 13 0 0 4 0 0 8 0 0 3 0 0 2 0 0 1 0 0 2 0 0 3 0 0 
3 0 0 6 0 0 8 0 0 7 0 0 4 0 0 5 0 0 8 0 0 3 0 0 11 0 0 66 0 0 4616 0 0 9434 0 0 9505 0 0 9559 0 0 9571 0 0 9399 0 0 9469 0 0 9407 0 0 9634 0 0 9621 0 0 9493 0 0 9555 0 0 9680 0 0 9621 0 0 9380 0 0 9515 0 0 9468 0 0 9565 0 0 9418 0 0 9431 0 0 9554 0 0 9607 0 0 9519 0 0 9678 0 0 9617 0 0 9709 0 0 9589 0 0 9547 0 0 9445 0 0 9466 0 0 9387 0 0 9457 0 0 9607 0 0 9536 0 0 9296 0 0 9568 0 0 9549 0 0 9478 0 0 9626 0 0 9392 0 0 4693 0 0 62 0 0 15 0 0 9 0 0 4 0 0 4 0 0 3 0 0 3 0 0 8 0 0 6 0 0 
3 0 0 8 0 0 6 0 0 3 0 0 12 0 0 6 0 0 3 0 0 11 0 0 12 0 0 65 0 0 4749 0 0 9401 0 0 9509 0 0 9481 0 0 9523 0 0 9608 0 0 9380 0 0 9526 0 0 9576 0 0 9479 0 0 9508 0 0 9474 0 0 9486 0 0 9471 0 0 9602 0 0 9565 0 0 9566 0 0 9505 0 0 9537 0 0 9564 0 0 9448 0 0 9407 0 0 9436 0 0 9588 0 0 9696 0 0 9640 0 0 9480 0 0 9452 0 0 9543 0 0 9461 0 0 9487 0 0 9505 0 0 9451 0 0 9656 0 0 9503 0 0 9518 0 0 9341 0 0 9574 0 0 9662 0 0 9449 0 0 4728 0 0 66 0 0 16 0 0 12 0 0 7 0 0 5 0 0 7 0 0 8 0 0 6 0 0 2 0 0 
2 0 0 3 0 0 6 0 0 9 0 0 4 0 0 9 0 0 11 0 0 9 0 0 16 0 0 68 0 0 4796 0 0 9490 0 0 9618 0 0 9603 0 0 9490 0 0 9500 0 0 9489 0 0 9539 0 0 9510 0 0 9659 0 0 9479 0 0 9591 0 0 9444 0 0 9604 0 0 9516 0 0 9572 0 0 9449 0 0 9546 0 0 9589 0 0 9622 0 0 9446 0 0 9551 0 0 9596 0 0 9681 0 0 9541 0 0 9596 0 0 9633 0 0 9516 0 0 9499 0 0 9593 0 0 9487 0 0 9546 0 0 9556 0 0 9572 0 0 9531 0 0 9508 0 0 9526 0 0 9561 0 0 9673 0 0 9498 0 0 4742 0 0 64 0 0 11 0 0 7 0 0 11 0 0 12 0 0 5 0 0 4 0 0 5 0 0 9 0 0 
1 0 0 3 0 0 5 0 0 10 0 0 9 0 0 11 0 0 10 0 0 13 0 0 12 0 0 73 0 0 4748 0 0 9466 0 0 9526 0 0 9428 0 0 9559 0 0 9566 0 0 9466 0 0 9590 0 0 9552 0 0 9373 0 0 9456 0 0 9470 0 0 9639 0 0 9456 0 0 9632 0 0 9635 0 0 9587 0 0 9497 0 0 9501 0 0 9352 0 0 9541 0 0 9399 0 0 9413 0 0 9448 0 0 9496 0 0 9471 0 0 9491 0 0 9565 0 0 9520 0 0 9629 0 0 9443 0 0 9442 0 0 9371 0 0 9410 0 0 9656 0 0 9546 0 0 9550 0 0 9422 0 0 9482 0 0 9513 0 0 4771 0 0 70 0 0 13 0 0 10 0 0 12 0 0 6 0 0 8 0 0 7 0 0 8 0 0 4 0 0 
1 0 0 4 0 0 5 0 0 8 0 0 9 0 0 5 0 0 9 0 0 10 0 0 18 0 0 67 0 0 4810 0 0 9508 0 0 9434 0 0 9504 0 0 9581 0 0 9478 0 0 9701 0 0 9334 0 0 9552 0 0 9498 0 0 9564 0 0 9662 0 0 9608 0 0 9735 0 0 9594 0 0 9593 0 0 9642 0 0 9478 0 0 9673 0 0 9612 0 0 9694 0 0 9618 0 0 9481 0 0 9629 0 0 9455 0 0 9503 0 0 9628 0 0 9725 0 0 9597 0 0 9470 0 0 9425 0 0 9531 0 0 9437 0 0 9521 0 0 9347 0 0 9498 0 0 9531 0 0 9646 0 0 9574 0 0 9599 0 0 4704 0 0 80 0 0 13 0 0 8 0 0 8 0 0 9 0 0 9 0 0 8 0 0 2 0 0 2 0 0 
1 0 0 2 0 0 6 0 0 5 0 0 8 0 0 6 0 0 10 0 0 11 0 0 16 0 0 66 0 0 4698 0 0 9551 0 0 9575 0 0 9504 0 0 9467 0 0 9531 0 0 9529 0 0 9490 0 0 9449 0 0 9527 0 0 9460 0 0 9519 0 0 9676 0 0 9719 0 0 9508 0 0 9586 0 0 9577 0 0 9493 0 0 9498 0 0 9612 0 0 9621 0 0 9880 0 0 9730 0 0 9526 0 0 9577 0 0 9419 0 0 9387 0 0 9532 0 0 9571 0 0 9553 0 0 9534 0 0 9453 0 0 9637 0 0 9482 0 0 9490 0 0 9462 0 0 9455 0 0 9389 0 0 9504 0 0 9478 0 0 4754 0 0 77 0 0 21 0 0 19 0 0 9 0 0 12 0 0 11 0 0 7 0 0 6 0 0 7 0 0 
3 0 0 3 0 0 6 0 0 4 0 0 7 0 0 9 0 0 6 0 0 12 0 0 12 0 0 70 0 0 4790 0 0 9391 0 0 9335 0 0 9400 0 0 9579 0 0 9631 0 0 9539 0 0 9411 0 0 9343 0 0 9501 0 0 9438 0 0 9448 0 0 9660 0 0 9551 0 0 9546 0 0 9448 0 0 9535 0 0 9411 0 0 9568 0 0 9433 0 0 9505 0 0 9708 0 0 9483 0 0 9488 0 0 9487 0 0 9458 0 0 9631 0 0 9577 0 0 9499 0 0 9565 0 0 9576 0 0 9619 0 0 9372 0 0 9636 0 0 9518 0 0 9572 0 0 9434 0 0 9619 0 0 9481 0 0 9250 0 0 4833 0 0 73 0 0 16 0 0 14 0 0 15 0 0 11 0 0 8 0 0 7 0 0 7 0 0 3 0 0 
3 0 0 6 0 0 7 0 0 5 0 0 6 0 0 10 0 0 12 0 0 17 0 0 20 0 0 70 0 0 4732 0 0 9569 0 0 9461 0 0 9580 0 0 9408 0 0 9545 0 0 9431 0 0 9441 0 0 9639 0 0 9584 0 0 9757 0 0 9746 0 0 9568 0 0 9721 0 0 9490 0 0 9611 0 0 9513 0 0 9574 0 0 9553 0 0 9588 0 0 9508 0 0 9518 0 0 9726 0 0 9431 0 0 9600 0 0 9560 0 0 9451 0 0 9337 0 0 9615 0 0 9512 0 0 9471 0 0 9467 0 0 9549 0 0 9480 0 0 9523 0 0 9548 0 0 9586 0 0 9350 0 0 9383 0 0 9446 0 0 4883 0 0 81 0 0 18 0 0 15 0 0 8 0 0 16 0 0 17 0 0 12 0 0 6 0 0 4 0 0 
2 0 0 3 0 0 3 0 0 2 0 0 2 0 0 6 0 0 12 0 0 19 0 0 18 0 0 74 0 0 4701 0 0 9356 0 0 9592 0 0 9595 0 0 9621 0 0 9493 0 0 9557 0 0 9627 0 0 9522 0 0 9613 0 0 9646 0 0 9539 0 0 9441 0 0 9544 0 0 9495 0 0 9451 0 0 9694 0 0 9550 0 0 9439 0 0 9593 0 0 9618 0 0 9511 0 0 9668 0 0 9693 0 0 9449 0 0 9580 0 0 9665 0 0 9485 0 0 9560 0 0 9661 0 0 9370 0 0 9517 0 0 9504 0 0 9476 0 0 9544 0 0 9469 0 0 9537 0 0 9529 0 0 9524 0 0 9341 0 0 4775 0 0 62 0 0 21 0 0 13 0 0 9 0 0 11 0 0 4 0 0 9 0 0 8 0 0 5 0 0 
2 0 0 7 0 0 7 0 0 13 0 0 9 0 0 12 0 0 11 0 0 20 0 0 30 0 0 66 0 0 4774 0 0 9473 0 0 9598 0 0 9483 0 0 9592 0 0 9424 0 0 9503 0 0 9620 0 0 9635 0 0 9639 0 0 9612 0 0 9633 0 0 9458 0 0 9525 0 0 9484 0 0 9540 0 0 9498 0 0 9456 0 0 9458 0 0 9514 0 0 9551 0 0 9588 0 0 9650 0 0 9592 0 0 9531 0 0 9503 0 0 9469 0 0 9631 0 0 9624 0 0 9578 0 0 9490 0 0 9435 0 0 9286 0 0 9408 0 0 9470 0 0 9579 0 0 9403 0 0 9386 0 0 9447 0 0 9458 0 0 4740 0 0 65 0 0 14 0 0 10 0 0 11 0 0 7 0 0 6 0 0 3 0 0 9 0 0 3 0 0 
2 0 0 8 0 0 12 0 0 9 0 0 11 0 0 12 0 0 9 0 0 10 0 0 17 0 0 71 0 0 4835 0 0 9467 0 0 9555 0 0 9619 0 0 9440 0 0 9543 0 0 9506 0 0 9540 0 0 9581 0 0 9483 0 0 9575 0 0 9541 0 0 9407 0 0 9598 0 0 9490 0 0 9508 0 0 9649 0 0 9560 0 0 9560 0 0 9416 0 0 9517 0 0 9440 0 0 9464 0 0 9485 0 0 9476 0 0 9673 0 0 9355 0 0 9561 0 0 9669 0 0 9503 0 0 9513 0 0 9475 0 0 9472 0 0 9439 0 0 9417 0 0 9508 0 0 9459 0 0 9635 0 0 9478 0 0 9392 0 0 4729 0 0 63 0 0 17 0 0 9 0 0 12 0 0 5 0 0 7 0 0 8 0 0 5 0 0 6 0 0 
6 0 0 8 0 0 5 0 0 12 0 0 15 0 0 15 0 0 13 0 0 16 0 0 12 0 0 72 0 0 4739 0 0 9553 0 0 9486 0 0 9656 0 0 9434 0 0 9309 0 0 9696 0 0 9480 0 0 9454 0 0 9706 0 0 9400 0 0 9456 0 0 9601 0 0 9592 0 0 9624 0 0 9389 0 0 9438 0 0 9519 0 0 9377 0 0 9575 0 0 9421 0 0 9460 0 0 9599 0 0 9579 0 0 9616 0 0 9579 0 0 9574 0 0 9460 0 0 9735 0 0 9465 0 0 9420 0 0 9481 0 0 9514 0 0 9633 0 0 9478 0 0 9372 0 0 9414 0 0 9496 0 0 9465 0 0 9303 0 0 4724 0 0 77 0 0 16 0 0 11 0 0 6 0 0 8 0 0 7 0 0 6 0 0 8 0 0 6 0 0 
1 0 0 6 0 0 4 0 0 6 0 0 12 0 0 12 0 0 12 0 0 14 0 0 24 0 0 76 0 0 4716 0 0 9383 0 0 9389 0 0 9565 0 0 9374 0 0 9538 0 0 9595 0 0 9629 0 0 9610 0 0 9435 0 0 9396 0 0 9548 0 0 9650 0 0 9459 0 0 9540 0 0 9479 0 0 9540 0 0 9631 0 0 9393 0 0 9452 0 0 9541 0 0 9657 0 0 9600 0 0 9558 0 0 9429 0 0 9548 0 0 9438 0 0 9461 0 0 9561 0 0 9580 0 0 9586 0 0 9600 0 0 9546 0 0 9544 0 0 9487 0 0 9508 0 0 9413 0 0 9484 0 0 9632 0 0 9528 0 0 4753 0 0 61 0 0 15 0 0 11 0 0 10 0 0 10 0 0 9 0 0 12 0 0 6 0 0 2 0 0 
3 0 0 6 0 0 8 0 0 9 0 0 9 0 0 12 0 0 13 0 0 14 0 0 21 0 0 72 0 0 4842 0 0 9314 0 0 9514 0 0 9569 0 0 9507 0 0 9528 0 0 9576 0 0 9603 0 0 9485 0 0 9322 0 0 9508 0 0 9595 0 0 9687 0 0 9561 0 0 9499 0 0 9608 0 0 9508 0 0 9406 0 0 9464 0 0 9655 0 0 9396 0 0 9429 0 0 9504 0 0 9501 0 0 9605 0 0 9464 0 0 9376 0 0 9519 0 0 9460 0 0 9567 0 0 9670 0 0 9402 0 0 9420 0 0 9442 0 0 9423 0 0 9632 0 0 9516 0 0 9477 0 0 9336 0 0 9312 0 0 4802 0 0 69 0 0 16 0 0 12 0 0 9 0 0 12 0 0 12 0 0 10 0 0 15 0 0 11 0 0 
6 0 0 7 0 0 6 0 0 8 0 0 6 0 0 5 0 0 13 0 0 10 0 0 21 0 0 74 0 0 4723 0 0 9438 0 0 9432 0 0 9495 0 0 9391 0 0 9502 0 0 9593 0 0 9531 0 0 9529 0 0 9670 0 0 9449 0 0 9627 0 0 9472 0 0 9533 0 0 9631 0 0 9524 0 0 9524 0 0 9565 0 0 9534 0 0 9642 0 0 9471 0 0 9421 0 0 9483 0 0 9532 0 0 9547 0 0 9482 0 0 9542 0 0 9596 0 0 9427 0 0 9589 0 0 9388 0 0 9405 0 0 9488 0 0 9566 0 0 9417 0 0 9623 0 0 9506 0 0 9415 0 0 9629 0 0 9533 0 0 4719 0 0 85 0 0 22 0 0 16 0 0 10 0 0 5 0 0 6 0 0 10 0 0 6 0 0 8 0 0 
4 0 0 6 0 0 4 0 0 11 0 0 11 0 0 15 0 0 10 0 0 20 0 0 19 0 0 73 0 0 4830 0 0 9537 0 0 9570 0 0 9492 0 0 9618 0 0 9523 0 0 9581 0 0 9625 0 0 9460 0 0 9464 0 0 9517 0 0 9734 0 0 9555 0 0 9434 0 0 9499 0 0 9409 0 0 9502 0 0 9541 0 0 9558 0 0 9563 0 0 9607 0 0 9476 0 0 9533 0 0 9569 0 0 9526 0 0 9590 0 0 9507 0 0 9441 0 0 9623 0 0 9656 0 0 9493 0 0 9460 0 0 9462 0 0 9396 0 0 9423 0 0 9576 0 0 9393 0 0 9549 0 0 9449 0 0 9554 0 0 4782 0 0 65 0 0 11 0 0 11 0 0 11 0 0 8 0 0 5 0 0 9 0 0 4 0 0 5 0 0 
3 0 0 7 0 0 4 0 0 5 0 0 7 0 0 12 0 0 14 0 0 17 0 0 21 0 0 66 0 0 4774 0 0 9545 0 0 9489 0 0 9411 0 0 9462 0 0 9469 0 0 9524 0 0 9571 0 0 9606 0 0 9489 0 0 9479 0 0 9496 0 0 9562 0 0 9604 0 0 9583 0 0 9530 0 0 9572 0 0 9461 0 0 9616 0 0 9426 0 0 9436 0 0 9535 0 0 9602 0 0 9491 0 0 9346 0 0 9664 0 0 9444 0 0 9400 0 0 9555 0 0 9634 0 0 9652 0 0 9423 0 0 9588 0 0 9486 0 0 9476 0 0 9461 0 0 9534 0 0 9389 0 0 9513 0 0 9557 0 0 4688 0 0 70 0 0 17 0 0 7 0 0 14 0 0 13 0 0 9 0 0 8 0 0 8 0 0 3 0 0 
2 0 0 4 0 0 3 0 0 5 0 0 5 0 0 10 0 0 15 0 0 13 0 0 17 0 0 70 0 0 4883 0 0 9537 0 0 9450 0 0 9508 0 0 9647 0 0 9470 0 0 9512 0 0 9485 0 0 9563 0 0 9548 0 0 9434 0 0 9674 0 0 9462 0 0 9480 0 0 9551 0 0 9634 0 0 9513 0 0 9267 0 0 9530 0 0 9535 0 0 9503 0 0 9447 0 0 9423 0 0 9584 0 0 9616 0 0 9612 0 0 9661 0 0 9585 0 0 9407 0 0 9539 0 0 9433 0 0 9372 0 0 9380 0 0 9448 0 0 9610 0 0 9513 0 0 9351 0 0 9507 0 0 9458 0 0 9500 0 0 4847 0 0 67 0 0 21 0 0 20 0 0 13 0 0 11 0 0 11 0 0 10 0 0 11 0 0 11 0 0 
0 0 0 2 0 0 4 0 0 5 0 0 7 0 0 10 0 0 9 0 0 11 0 0 28 0 0 78 0 0 4703 0 0 9447 0 0 9548 0 0 9494 0 0 9357 0 0 9431 0 0 9597 0 0 9560 0 0 9522 0 0 9614 0 0 9483 0 0 9618 0 0 9622 0 0 9440 0 0 9472 0 0 9630 0 0 9549 0 0 9541 0 0 9466 0 0 9468 0 0 9570 0 0 9587 0 0 9553 0 0 9485 0 0 9466 0 0 9731 0 0 9467 0 0 9560 0 0 9528 0 0 9495 0 0 9410 0 0 9513 0 0 9534 0 0 9562 0 0 9455 0 0 9450 0 0 9471 0 0 9521 0 0 9475 0 0 9396 0 0 4819 0 0 61 0 0 25 0 0 20 0 0 21 0 0 16 0 0 14 0 0 11 0 0 7 0 0 12 0 0 
0 0 0 5 0 0 8 0 0 6 0 0 10 0 0 14 0 0 11 0 0 15 0 0 17 0 0 73 0 0 4774 0 0 9512 0 0 9400 0 0 9541 0 0 9559 0 0 9520 0 0 9572 0 0 9597 0 0 9491 0 0 9421 0 0 9464 0 0 9403 0 0 9561 0 0 9334 0 0 9411 0 0 9763 0 0 9589 0 0 9438 0 0 9549 0 0 9545 0 0 9391 0 0 9652 0 0 9644 0 0 9506 0 0 9457 0 0 9560 0 0 9584 0 0 9664 0 0 9548 0 0 9454 0 0 9600 0 0 9663 0 0 9523 0 0 9467 0 0 9513 0 0 9559 0 0 9511 0 0 9570 0 0 9509 0 0 9395 0 0 4758 0 0 65 0 0 22 0 0 19 0 0 15 0 0 11 0 0 17 0 0 10 0 0 4 0 0 3 0 0 
4 0 0 6 0 0 6 0 0 9 0 0 14 0 0 12 0 0 14 0 0 17 0 0 28 0 0 69 0 0 4826 0 0 9549 0 0 9494 0 0 9492 0 0 9603 0 0 9508 0 0 9469 0 0 9562 0 0 9573 0 0 9653 0 0 9422 0 0 9566 0 0 9495 0 0 9575 0 0 9623 0 0 9632 0 0 9610 0 0 9567 0 0 9429 0 0 9473 0 0 9548 0 0 9574 0 0 9361 0 0 9577 0 0 9466 0 0 9615 0 0 9417 0 0 9568 0 0 9544 0 0 9589 0 0 9519 0 0 9597 0 0 9384 0 0 9502 0 0 9422 0 0 9631 0 0 9487 0 0 9527 0 0 9351 0 0 9441 0 0 4810 0 0 94 0 0 24 0 0 20 0 0 12 0 0 11 0 0 9 0 0 11 0 0 10 0 0 8 0 0 
3 0 0 6 0 0 9 0 0 10 0 0 6 0 0 12 0 0 17 0 0 22 0 0 30 0 0 87 0 0 4724 0 0 9520 0 0 9489 0 0 9550 0 0 9418 0 0 9488 0 0 9485 0 0 9639 0 0 9623 0 0 9540 0 0 9567 0 0 9549 0 0 9454 0 0 9539 0 0 9525 0 0 9501 0 0 9546 0 0 9597 0 0 9679 0 0 9500 0 0 9488 0 0 9486 0 0 9585 0 0 9639 0 0 9598 0 0 9619 0 0 9514 0 0 9582 0 0 9614 0 0 9629 0 0 9473 0 0 9495 0 0 9372 0 0 9385 0 0 9496 0 0 9463 0 0 9675 0 0 9424 0 0 9453 0 0 9313 0 0 4734 0 0 82 0 0 18 0 0 13 0 0 10 0 0 7 0 0 15 0 0 10 0 0 13 0 0 9 0 0 
4 0 0 5 0 0 12 0 0 3 0 0 7 0 0 12 0 0 11 0 0 13 0 0 24 0 0 79 0 0 4853 0 0 9502 0 0 9653 0 0 9370 0 0 9567 0 0 9435 0 0 9552 0 0 9618 0 0 9495 0 0 9474 0 0 9623 0 0 9359 0 0 9469 0 0 9672 0 0 9411 0 0 9466 0 0 9560 0 0 9495 0 0 9533 0 0 9377 0 0 9669 0 0 9634 0 0 9514 0 0 9555 0 0 9615 0 0 9593 0 0 9334 0 0 9404 0 0 9472 0 0 9622 0 0 9518 0 0 9408 0 0 9278 0 0 9436 0 0 9446 0 0 9235 0 0 9484 0 0 9404 0 0 9466 0 0 9464 0 0 4753 0 0 78 0 0 18 0 0 13 0 0 10 0 0 14 0 0 11 0 0 9 0 0 8 0 0 5 0 0 
3 0 0 9 0 0 9 0 0 7 0 0 9 0 0 13 0 0 16 0 0 16 0 0 19 0 0 69 0 0 4818 0 0 9469 0 0 9516 0 0 9467 0 0 9596 0 0 9588 0 0 9510 0 0 9682 0 0 9461 0 0 9461 0 0 9592 0 0 9635 0 0 9612 0 0 9559 0 0 9502 0 0 9551 0 0 9400 0 0 9684 0 0 9495 0 0 9533 0 0 9547 0 0 9556 0 0 9523 0 0 9670 0 0 9611 0 0 9523 0 0 9414 0 0 9604 0 0 9575 0 0 9426 0 0 9499 0 0 9559 0 0 9521 0 0 9607 0 0 9664 0 0 9428 0 0 9579 0 0 9430 0 0 9336 0 0 9520 0 0 4717 0 0 79 0 0 17 0 0 9 0 0 10 0 0 10 0 0 12 0 0 8 0 0 2 0 0 5 0 0 
4 0 0 8 0 0 9 0 0 9 0 0 10 0 0 16 0 0 13 0 0 14 0 0 19 0 0 70 0 0 4731 0 0 9478 0 0 9393 0 0 9475 0 0 9641 0 0 9413 0 0 9473 0 0 9505 0 0 9415 0 0 9451 0 0 9621 0 0 9665 0 0 9647 0 0 9579 0 0 9464 0 0 9517 0 0 9595 0 0 9541 0 0 9505 0 0 9433 0 0 9444 0 0 9475 0 0 9582 0 0 9373 0 0 9534 0 0 9598 0 0 9649 0 0 9591 0 0 9598 0 0 9477 0 0 9448 0 0 9486 0 0 9638 0 0 9539 0 0 9453 0 0 9590 0 0 9473 0 0 9532 0 0 9506 0 0 9402 0 0 4818 0 0 83 0 0 17 0 0 13 0 0 13 0 0 6 0 0 10 0 0 7 0 0 7 0 0 7 0 0 
4 0 0 7 0 0 3 0 0 5 0 0 9 0 0 7 0 0 12 0 0 14 0 0 14 0 0 65 0 0 4861 0 0 9463 0 0 9354 0 0 9518 0 0 9538 0 0 9543 0 0 9429 0 0 9580 0 0 9608 0 0 9413 0 0 9610 0 0 9589 0 0 9362 0 0 9435 0 0 9601 0 0 9489 0 0 9451 0 0 9432 0 0 9614 0 0 9481 0 0 9463 0 0 9542 0 0 9413 0 0 9562 0 0 9465 0 0 9627 0 0 9486 0 0 9519 0 0 9472 0 0 9561 0 0 9530 0 0 9527 0 0 9523 0 0 9463 0 0 9584 0 0 9516 0 0 9526 0 0 9444 0 0 9435 0 0 9196 0 0 4757 0 0 82 0 0 16 0 0 13 0 0 10 0 0 13 0 0 8 0 0 8 0 0 7 0 0 6 0 0 
0 0 0 3 0 0 5 0 0 11 0 0 8 0 0 7 0 0 10 0 0 17 0 0 18 0 0 70 0 0 4748 0 0 9301 0 0 9686 0 0 9581 0 0 9529 0 0 9572 0 0 9593 0 0 9431 0 0 9532 0 0 9606 0 0 9439 0 0 9459 0 0 9633 0 0 9603 0 0 9505 0 0 9593 0 0 9705 0 0 9584 0 0 9600 0 0 9479 0 0 9494 0 0 9411 0 0 9439 0 0 9541 0 0 9664 0 0 9463 0 0 9511 0 0 9672 0 0 9503 0 0 9629 0 0 9584 0 0 9448 0 0 9594 0 0 9609 0 0 9548 0 0 9575 0 0 9429 0 0 9514 0 0 9462 0 0 9372 0 0 4772 0 0 62 0 0 10 0 0 13 0 0 15 0 0 11 0 0 8 0 0 5 0 0 8 0 0 5 0 0 
3 0 0 4 0 0 9 0 0 6 0 0 4 0 0 6 0 0 11 0 0 11 0 0 14 0 0 63 0 0 4804 0 0 9515 0 0 9550 0 0 9508 0 0 9474 0 0 9460 0 0 9451 0 0 9421 0 0 9474 0 0 9700 0 0 9577 0 0 9443 0 0 9555 0 0 9532 0 0 9693 0 0 9596 0 0 9544 0 0 9534 0 0 9559 0 0 9495 0 0 9525 0 0 9363 0 0 9465 0 0 9513 0 0 9537 0 0 9534 0 0 9548 0 0 9569 0 0 9473 0 0 9383 0 0 9382 0 0 9524 0 0 9453 0 0 9557 0 0 9497 0 0 9578 0 0 9435 0 0 9417 0 0 9392 0 0 9382 0 0 4775 0 0 75 0 0 18 0 0 16 0 0 21 0 0 15 0 0 6 0 0 6 0 0 5 0 0 5 0 0 
0 0 0 0 0 0 2 0 0 3 0 0 5 0 0 10 0 0 6 0 0 11 0 0 12 0 0 72 0 0 4721 0 0 9632 0 0 9548 0 0 9501 0 0 9576 0 0 9538 0 0 9536 0 0 9479 0 0 9475 0 0 9485 0 0 9500 0 0 9512 0 0 9490 0 0 9377 0 0 9339 0 0 9485 0 0 9575 0 0 9678 0 0 9523 0 0 9422 0 0 9586 0 0 9612 0 0 9651 0 0 9386 0 0 9498 0 0 9534 0 0 9547 0 0 9532 0 0 9304 0 0 9544 0 0 9565 0 0 9606 0 0 9563 0 0 9528 0 0 9492 0 0 9419 0 0 9568 0 0 9508 0 0 9273 0 0 9494 0 0 4789 0 0 68 0 0 15 0 0 8 0 0 9 0 0 20 0 0 13 0 0 9 0 0 6 0 0 7 0 0 
3 0 0 8 0 0 6 0 0 8 0 0 6 0 0 13 0 0 12 0 0 12 0 0 21 0 0 77 0 0 4845 0 0 9466 0 0 9553 0 0 9534 0 0 9388 0 0 9612 0 0 9576 0 0 9561 0 0 9489 0 0 9428 0 0 9631 0 0 9409 0 0 9491 0 0 9389 0 0 9645 0 0 9591 0 0 9523 0 0 9509 0 0 9394 0 0 9557 0 0 9544 0 0 9569 0 0 9554 0 0 9643 0 0 9560 0 0 9541 0 0 9640 0 0 9474 0 0 9559 0 0 9452 0 0 9440 0 0 9533 0 0 9384 0 0 9494 0 0 9544 0 0 9441 0 0 9617 0 0 9505 0 0 9330 0 0 9397 0 0 4636 0 0 59 0 0 15 0 0 8 0 0 8 0 0 10 0 0 12 0 0 9 0 0 8 0 0 9 0 0 
2 0 0 3 0 0 5 0 0 6 0 0 12 0 0 13 0 0 11 0 0 7 0 0 11 0 0 76 0 0 4788 0 0 9477 0 0 9489 0 0 9664 0 0 9565 0 0 9590 0 0 9561 0 0 9572 0 0 9528 0 0 9425 0 0 9355 0 0 9374 0 0 9441 0 0 9468 0 0 9360 0 0 9612 0 0 9556 0 0 9408 0 0 9530 0 0 9451 0 0 9506 0 0 9633 0 0 9448 0 0 9608 0 0 9491 0 0 9579 0 0 9621 0 0 9376 0 0 9548 0 0 9662 0 0 9507 0 0 9460 0 0 9629 0 0 9414 0 0 9466 0 0 9659 0 0 9464 0 0 9483 0 0 9456 0 0 9566 0 0 4737 0 0 87 0 0 17 0 0 12 0 0 9 0 0 12 0 0 14 0 0 9 0 0 13 0 0 9 0 0 
1 0 0 4 0 0 8 0 0 10 0 0 9 0 0 12 0 0 6 0 0 12 0 0 16 0 0 79 0 0 4824 0 0 9262 0 0 9654 0 0 9464 0 0 9434 0 0 9434 0 0 9483 0 0 9594 0 0 9484 0 0 9412 0 0 9598 0 0 9546 0 0 9353 0 0 9551 0 0 9657 0 0 9483 0 0 9501 0 0 9457 0 0 9707 0 0 9493 0 0 9676 0 0 9570 0 0 9458 0 0 9309 0 0 9674 0 0 9537 0 0 9682 0 0 9463 0 0 9466 0 0 9463 0 0 9248 0 0 9496 0 0 9493 0 0 9495 0 0 9564 0 0 9608 0 0 9554 0 0 9605 0 0 9449 0 0 9446 0 0 4768 0 0 62 0 0 19 0 0 11 0 0 9 0 0 2 0 0 8 0 0 5 0 0 7 0 0 9 0 0 
3 0 0 6 0 0 6 0 0 7 0 0 9 0 0 9 0 0 13 0 0 12 0 0 20 0 0 71 0 0 4764 0 0 9388 0 0 9468 0 0 9572 0 0 9362 0 0 9515 0 0 9613 0 0 9410 0 0 9567 0 0 9456 0 0 9631 0 0 9581 0 0 9465 0 0 9607 0 0 9540 0 0 9388 0 0 9465 0 0 9688 0 0 9627 0 0 9476 0 0 9577 0 0 9414 0 0 9494 0 0 9558 0 0 9399 0 0 9516 0 0 9609 0 0 9497 0 0 9649 0 0 9479 0 0 9608 0 0 9516 0 0 9447 0 0 9403 0 0 9484 0 0 9442 0 0 9333 0 0 9538 0 0 9636 0 0 9576 0 0 4853 0 0 69 0 0 17 0 0 11 0 0 10 0 0 10 0 0 4 0 0 2 0 0 4 0 0 10 0 0 
2 0 0 9 0 0 5 0 0 5 0 0 11 0 0 9 0 0 9 0 0 12 0 0 16 0 0 75 0 0 4781 0 0 9479 0 0 9529 0 0 9520 0 0 9569 0 0 9503 0 0 9299 0 0 9457 0 0 9512 0 0 9333 0 0 9595 0 0 9508 0 0 9617 0 0 9404 0 0 9642 0 0 9470 0 0 9543 0 0 9508 0 0 9541 0 0 9439 0 0 9416 0 0 9444 0 0 9525 0 0 9475 0 0 9515 0 0 9454 0 0 9615 0 0 9403 0 0 9541 0 0 9520 0 0 9500 0 0 9493 0 0 9515 0 0 9552 0 0 9527 0 0 9418 0 0 9577 0 0 9584 0 0 9523 0 0 9591 0 0 4815 0 0 63 0 0 20 0 0 14 0 0 10 0 0 1 0 0 6 0 0 8 0 0 10 0 0 12 0 0 
3 0 0 6 0 0 4 0 0 9 0 0 6 0 0 7 0 0 7 0 0 11 0 0 20 0 0 72 0 0 4797 0 0 9496 0 0 9534 0 0 9506 0 0 9568 0 0 9534 0 0 9342 0 0 9538 0 0 9387 0 0 9329 0 0 9537 0 0 9412 0 0 9504 0 0 9574 0 0 9342 0 0 9539 0 0 9460 0 0 9536 0 0 9441 0 0 9518 0 0 9597 0 0 9479 0 0 9348 0 0 9527 0 0 9513 0 0 9468 0 0 9581 0 0 9572 0 0 9441 0 0 9509 0 0 9500 0 0 9513 0 0 9592 0 0 9774 0 0 9641 0 0 9544 0 0 9470 0 0 9520 0 0 9452 0 0 9325 0 0 4752 0 0 68 0 0 14 0 0 15 0 0 16 0 0 11 0 0 9 0 0 2 0 0 4 0 0 3 0 0 
2 0 0 5 0 0 2 0 0 5 0 0 3 0 0 7 0 0 8 0 0 8 0 0 20 0 0 63 0 0 4695 0 0 9182 0 0 9471 0 0 9538 0 0 9522 0 0 9655 0 0 9404 0 0 9496 0 0 9406 0 0 9530 0 0 9346 0 0 9417 0 0 9509 0 0 9498 0 0 9514 0 0 9244 0 0 9534 0 0 9379 0 0 9464 0 0 9417 0 0 9399 0 0 9340 0 0 9410 0 0 9500 0 0 9516 0 0 9473 0 0 9412 0 0 9397 0 0 9430 0 0 9423 0 0 9388 0 0 9371 0 0 9377 0 0 9554 0 0 9286 0 0 9487 0 0 9452 0 0 9586 0 0 9524 0 0 9360 0 0 4645 0 0 57 0 0 11 0 0 11 0 0 8 0 0 11 0 0 7 0 0 5 0 0 0 0 0 1 0 0 
1 0 0 1 0 0 4 0 0 6 0 0 5 0 0 5 0 0 11 0 0 13 0 0 18 0 0 29 0 0 2491 0 0 4741 0 0 4787 0 0 4688 0 0 4640 0 0 4797 0 0 4753 0 0 4737 0 0 4751 0 0 4779 0 0 4774 0 0 4786 0 0 4683 0 0 4819 0 0 4728 0 0 4723 0 0 4682 0 0 4621 0 0 4802 0 0 4744 0 0 4712 0 0 4827 0 0 4689 0 0 4859 0 0 4771 0 0 4721 0 0 4833 0 0 4819 0 0 4655 0 0 4738 0 0 4820 0 0 4789 0 0 4751 0 0 4771 0 0 4777 0 0 4735 0 0 4785 0 0 4832 0 0 4778 0 0 4725 0 0 2378 0 0 38 0 0 8 0 0 11 0 0 7 0 0 11 0 0 11 0 0 5 0 0 2 0 0 0 0 0 
0 0 0 1 0 0 9 0 0 4 0 0 8 0 0 13 0 0 4 0 0 11 0 0 3 0 0 7 0 0 38 0 0 47 0 0 69 0 0 69 0 0 62 0 0 70 0 0 78 0 0 64 0 0 71 0 0 78 0 0 64 0 0 60 0 0 71 0 0 81 0 0 74 0 0 68 0 0 67 0 0 65 0 0 67 0 0 79 0 0 71 0 0 68 0 0 74 0 0 78 0 0 87 0 0 75 0 0 53 0 0 73 0 0 67 0 0 71 0 0 67 0 0 67 0 0 73 0 0 71 0 0 69 0 0 61 0 0 56 0 0 78 0 0 61 0 0 66 0 0 35 0 0 11 0 0 13 0 0 11 0 0 7 0 0 2 0 0 6 0 0 7 0 0 2 0 0 0 0 0 
0 0 0 4 0 0 4 0 0 8 0 0 7 0 0 8 0 0 5 0 0 7 0 0 5 0 0 9 0 0 5 0 0 12 0 0 12 0 0 16 0 0 14 0 0 13 0 0 17 0 0 19 0 0 11 0 0 23 0 0 23 0 0 12 0 0 18 0 0 14 0 0 10 0 0 12 0 0 16 0 0 19 0 0 11 0 0 20 0 0 20 0 0 15 0 0 22 0 0 28 0 0 19 0 0 16 0 0 15 0 0 17 0 0 19 0 0 8 0 0 12 0 0 23 0 0 14 0 0 14 0 0 13 0 0 6 0 0 17 0 0 18 0 0 20 0 0 8 0 0 5 0 0 6 0 0 8 0 0 15 0 0 7 0 0 6 0 0 3 0 0 2 0 0 4 0 0 3 0 0 
1 0 0 5 0 0 4 0 0 8 0 0 7 0 0 9 0 0 4 0 0 3 0 0 6 0 0 5 0 0 6 0 0 6 0 0 11 0 0 8 0 0 7 0 0 17 0 0 7 0 0 10 0 0 11 0 0 19 0 0 20 0 0 12 0 0 15 0 0 7 0 0 10 0 0 14 0 0 7 0 0 16 0 0 9 0 0 12 0 0 13 0 0 16 0 0 14 0 0 13 0 0 14 0 0 8 0 0 17 0 0 11 0 0 19 0 0 7 0 0 12 0 0 14 0 0 19 0 0 11 0 0 16 0 0 10 0 0 9 0 0 13 0 0 14 0 0 12 0 0 4 0 0 7 0 0 7 0 0 2 0 0 7 0 0 1 0 0 7 0 0 7 0 0 4 0 0 5 0 0 
1 0 0 1 0 0 2 0 0 6 0 0 7 0 0 5 0 0 4 0 0 6 0 0 6 0 0 7 0 0 2 0 0 4 0 0 12 0 0 9 0 0 9 0 0 11 0 0 7 0 0 12 0 0 12 0 0 16 0 0 18 0 0 12 0 0 9 0 0 2 0 0 11 0 0 7 0 0 11 0 0 8 0 0 8 0 0 15 0 0 12 0 0 12 0 0 7 0 0 12 0 0 12 0 0 13 0 0 15 0 0 14 0 0 12 0 0 9 0 0 7 0 0 13 0 0 10 0 0 7 0 0 10 0 0 7 0 0 4 0 0 4 0 0 10 0 0 5 0 0 7 0 0 4 0 0 6 0 0 2 0 0 1 0 0 3 0 0 0 0 0 2 0 0 4 0 0 4 0 0 
0 0 0 2 0 0 3 0 0 2 0 0 5 0 0 6 0 0 5 0 0 5 0 0 3 0 0 4 0 0 6 0 0 6 0 0 12 0 0 10 0 0 7 0 0 4 0 0 13 0 0 12 0 0 11 0 0 10 0 0 18 0 0 8 0 0 3 0 0 7 0 0 6 0 0 9 0 0 9 0 0 11 0 0 12 0 0 11 0 0 9 0 0 12 0 0 11 0 0 5 0 0 13 0 0 11 0 0 9 0 0 13 0 0 7 0 0 9 0 0 8 0 0 10 0 0 5 0 0 5 0 0 11 0 0 10 0 0 18 0 0 4 0 0 7 0 0 5 0 0 5 0 0 4 0 0 6 0 0 9 0 0 1 0 0 1 0 0 0 0 0 1 0 0 0 0 0 2 0 0 
0 0 0 1 0 0 1 0 0 2 0 0 5 0 0 3 0 0 6 0 0 4 0 0 5 0 0 3 0 0 4 0 0 2 0 0 11 0 0 8 0 0 6 0 0 2 0 0 13 0 0 9 0 0 12 0 0 11 0 0 15 0 0 7 0 0 5 0 0 7 0 0 6 0 0 10 0 0 12 0 0 14 0 0 6 0 0 9 0 0 9 0 0 12 0 0 11 0 0 6 0 0 7 0 0 6 0 0 10 0 0 10 0 0 8 0 0 11 0 0 5 0 0 9 0 0 5 0 0 4 0 0 8 0 0 9 0 0 16 0 0 2 0 0 7 0 0 4 0 0 4 0 0 1 0 0 4 0 0 3 0 0 1 0 0 1 0 0 0 0 0 0 0 0 1 0 0 0 0 0 
0 0 0 2 0 0 1 0 0 5 0 0 1 0 0 5 0 0 7 0 0 7 0 0 4 0 0 2 0 0 4 0 0 6 0 0 2 0 0 6 0 0 6 0 0 3 0 0 4 0 0 7 0 0 10 0 0 11 0 0 11 0 0 8 0 0 5 0 0 5 0 0 5 0 0 7 0 0 11 0 0 11 0 0 12 0 0 12 0 0 6 0 0 14 0 0 9 0 0 8 0 0 6 0 0 2 0 0 6 0 0 7 0 0 5 0 0 6 0 0 8 0 0 7 0 0 7 0 0 9 0 0 2 0 0 3 0 0 10 0 0 1 0 0 4 0 0 3 0 0 4 0 0 2 0 0 6 0 0 4 0 0 1 0 0 0 0 0 1 0 0 0 0 0 0 0 0 2 0 0 
0 0 0 0 0 0 3 0 0 3 0 0 2 0 0 6 0 0 3 0 0 8 0 0 0 0 0 5 0 0 6 0 0 8 0 0 1 0 0 3 0 0 5 0 0 3 0 0 1 0 0 7 0 0 7 0 0 8 0 0 11 0 0 2 0 0 3 0 0 3 0 0 6 0 0 10 0 0 10 0 0 8 0 0 10 0 0 8 0 0 7 0 0 7 0 0 9 0 0 4 0 0 7 0 0 3 0 0 6 0 0 4 0 0 2 0 0 6 0 0 8 0 0 6 0 0 6 0 0 6 0 0 9 0 0 4 0 0 5 0 0 1 0 0 4 0 0 3 0 0 3 0 0 4 0 0 5 0 0 2 0 0 3 0 0 1 0 0 0 0 0 1 0 0 0 0 0 2 0 0 
0 0 0 2 0 0 1 0 0 0 0 0 2 0 0 2 0 0 7 0 0 2 0 0 2 0 0 4 0 0 2 0 0 3 0 0 3 0 0 4 0 0 6 0 0 3 0 0 2 0 0 9 0 0 9 0 0 3 0 0 5 0 0 2 0 0 4 0 0 4 0 0 6 0 0 7 0 0 3 0 0 9 0 0 8 0 0 11 0 0 5 0 0 11 0 0 6 0 0 7 0 0 3 0 0 4 0 0 2 0 0 5 0 0 7 0 0 9 0 0 2 0 0 3 0 0 4 0 0 5 0 0 6 0 0 5 0 0 9 0 0 0 0 0 7 0 0 1 0 0 1 0 0 5 0 0 5 0 0 2 0 0 2 0 0 2 0 0 0 0 0 2 0 0 0 0 0 2 0 0 
