P3
# This is a dose file slice at depth 81 of 100
60 60
# now we give the maximum value of the RGB coordinates.
22407
0 0 0 0 0 0 0 0 0 0 0 0 0 0 0 0 0 0 0 0 0 0 0 0 0 0 0 0 0 0 0 0 0 0 0 0 0 0 0 0 0 0 0 0 0 0 0 0 0 0 0 0 0 0 0 0 0 0 0 0 0 0 0 0 0 0 0 0 0 0 0 0 0 0 0 0 0 0 0 0 0 0 0 0 0 0 0 0 0 0 0 0 0 0 0 0 0 0 0 0 0 0 0 0 0 0 0 0 0 0 0 0 0 0 0 0 0 0 0 0 0 0 0 0 0 0 0 0 0 0 0 0 0 0 0 0 0 0 0 0 0 0 0 0 0 0 0 0 0 0 0 0 0 0 0 0 0 0 0 0 0 0 0 0 0 0 0 0 0 0 0 0 0 0 0 0 0 0 0 0 
0 0 0 0 0 0 0 0 0 0 0 0 0 0 0 0 0 0 0 0 0 0 0 0 0 0 0 0 0 0 0 0 0 0 0 0 0 0 0 0 0 0 0 0 0 0 0 0 0 0 0 0 0 0 0 0 0 0 0 0 0 0 0 0 0 0 0 0 0 0 0 0 0 0 0 0 0 0 0 0 0 0 0 0 0 0 0 0 0 0 0 0 0 0 0 0 0 0 0 0 0 0 0 0 0 0 0 0 0 0 0 0 0 0 0 0 0 0 0 0 0 0 0 0 0 0 0 0 0 0 0 0 0 0 0 0 0 0 0 0 0 0 0 0 0 0 0 0 0 0 0 0 0 0 0 0 0 0 0 0 0 0 0 0 0 0 0 0 0 0 0 0 0 0 0 0 0 0 0 0 
0 0 0 0 0 0 0 0 0 0 0 0 0 0 0 0 0 0 0 0 0 0 0 0 0 0 0 0 0 0 0 0 0 0 0 0 0 0 0 0 0 0 0 0 0 0 0 0 0 0 0 0 0 0 0 0 0 0 0 0 0 0 0 0 0 0 0 0 0 0 0 0 0 0 0 0 0 0 0 0 0 0 0 0 0 0 0 0 0 0 0 0 0 0 0 0 0 0 0 0 0 0 0 0 0 0 0 0 0 0 0 0 0 0 0 0 0 0 0 0 0 0 0 0 0 0 0 0 0 0 0 0 0 0 0 0 0 0 0 0 0 0 0 0 0 0 0 0 0 0 0 0 0 0 0 0 0 0 0 0 0 0 0 0 0 0 0 0 0 0 0 0 0 0 0 0 0 0 0 0 
0 0 0 0 0 0 0 0 0 0 0 0 0 0 0 0 0 0 0 0 0 0 0 0 0 0 0 0 0 0 0 0 0 0 0 0 0 0 0 0 0 0 0 0 0 0 0 0 0 0 0 0 0 0 0 0 0 0 0 0 0 0 0 0 0 0 0 0 0 0 0 0 0 0 0 0 0 0 0 0 0 0 0 0 0 0 0 0 0 0 0 0 0 0 0 0 0 0 0 0 0 0 0 0 0 0 0 0 0 0 0 0 0 0 0 0 0 0 0 0 0 0 0 0 0 0 0 0 0 0 0 0 0 0 0 0 0 0 0 0 0 0 0 0 0 0 0 0 0 0 0 0 0 0 0 0 0 0 0 0 0 0 0 0 0 0 0 0 0 0 0 0 0 0 0 0 0 0 0 0 
0 0 0 0 0 0 0 0 0 0 0 0 0 0 0 0 0 0 0 0 0 0 0 0 0 0 0 0 0 0 0 0 0 0 0 0 0 0 0 0 0 0 0 0 0 0 0 0 0 0 0 0 0 0 0 0 0 0 0 0 0 0 0 0 0 0 0 0 0 0 0 0 0 0 0 0 0 0 0 0 0 0 0 0 0 0 0 0 0 0 0 0 0 0 0 0 0 0 0 0 0 0 0 0 0 0 0 0 0 0 0 0 0 0 0 0 0 0 0 0 0 0 0 0 0 0 0 0 0 0 0 0 0 0 0 0 0 0 0 0 0 0 0 0 0 0 0 0 0 0 0 0 0 0 0 0 0 0 0 0 0 0 0 0 0 0 0 0 0 0 0 0 0 0 0 0 0 0 0 0 
0 0 0 0 0 0 0 0 0 0 0 0 0 0 0 0 0 0 0 0 0 0 0 0 0 0 0 0 0 0 0 0 0 0 0 0 0 0 0 0 0 0 0 0 0 0 0 0 0 0 0 0 0 0 0 0 0 0 0 0 0 0 0 0 0 0 0 0 0 0 0 0 0 0 0 0 0 0 0 0 0 0 0 0 0 0 0 0 0 0 0 0 0 0 0 0 0 0 0 0 0 0 0 0 0 0 0 0 0 0 0 0 0 0 0 0 0 0 0 0 0 0 0 0 0 0 0 0 0 0 0 0 0 0 0 0 0 0 0 0 0 0 0 0 0 0 0 0 0 0 0 0 0 0 0 0 0 0 0 0 0 0 0 0 0 0 0 0 0 0 0 0 0 0 0 0 0 0 0 0 
0 0 0 0 0 0 0 0 0 0 0 0 0 0 0 0 0 0 0 0 0 0 0 0 0 0 0 0 0 0 0 0 0 0 0 0 0 0 0 0 0 0 0 0 0 0 0 0 0 0 0 0 0 0 0 0 0 0 0 0 0 0 0 0 0 0 0 0 0 0 0 0 0 0 0 0 0 0 0 0 0 0 0 0 0 0 0 0 0 0 0 0 0 0 0 0 0 0 0 0 0 0 0 0 0 0 0 0 0 0 0 0 0 0 0 0 0 0 0 0 0 0 0 0 0 0 0 0 0 0 0 0 0 0 0 0 0 0 0 0 0 0 0 0 0 0 0 0 0 0 0 0 0 0 0 0 0 0 0 0 0 0 0 0 0 0 0 0 0 0 0 0 0 0 0 0 0 0 0 0 
0 0 0 0 0 0 0 0 0 0 0 0 0 0 0 0 0 0 0 0 0 0 0 0 0 0 0 0 0 0 0 0 0 0 0 0 0 0 0 0 0 0 0 0 0 0 0 0 0 0 0 0 0 0 0 0 0 0 0 0 0 0 0 0 0 0 0 0 0 0 0 0 0 0 0 0 0 0 0 0 0 0 0 0 0 0 0 0 0 0 0 0 0 0 0 0 0 0 0 0 0 0 0 0 0 0 0 0 0 0 0 0 0 0 0 0 0 0 0 0 0 0 0 0 0 0 0 0 0 0 0 0 0 0 0 0 0 0 0 0 0 0 0 0 0 0 0 0 0 0 0 0 0 0 0 0 0 0 0 0 0 0 0 0 0 0 0 0 0 0 0 0 0 0 0 0 0 0 0 0 
0 0 0 0 0 0 0 0 0 0 0 0 0 0 0 0 0 0 0 0 0 0 0 0 0 0 0 0 0 0 0 0 0 0 0 0 0 0 0 0 0 0 0 0 0 0 0 0 0 0 0 0 0 0 0 0 0 0 0 0 0 0 0 0 0 0 0 0 0 0 0 0 0 0 0 0 0 0 0 0 0 0 0 0 0 0 0 0 0 0 0 0 0 0 0 0 0 0 0 0 0 0 0 0 0 0 0 0 0 0 0 0 0 0 0 0 0 0 0 0 0 0 0 0 0 0 0 0 0 0 0 0 0 0 0 0 0 0 0 0 0 0 0 0 0 0 0 0 0 0 0 0 0 0 0 0 0 0 0 0 0 0 0 0 0 0 0 0 0 0 0 0 0 0 0 0 0 0 0 0 
0 0 0 0 0 0 0 0 0 0 0 0 0 0 0 0 0 0 0 0 0 0 0 0 0 0 0 0 0 0 0 0 0 0 0 0 0 0 0 0 0 0 0 0 0 0 0 0 0 0 0 0 0 0 0 0 0 0 0 0 0 0 0 0 0 0 0 0 0 0 0 0 0 0 0 0 0 0 0 0 0 0 0 0 0 0 0 0 0 0 0 0 0 0 0 0 0 0 0 0 0 0 0 0 0 0 0 0 0 0 0 0 0 0 0 0 0 0 0 0 0 0 0 0 0 0 0 0 0 0 0 0 0 0 0 0 0 0 0 0 0 0 0 0 0 0 0 0 0 0 0 0 0 0 0 0 0 0 0 0 0 0 0 0 0 0 0 0 0 0 0 0 0 0 0 0 0 0 0 0 
0 0 0 0 0 0 0 0 0 0 0 0 0 0 0 0 0 0 0 0 0 0 0 0 0 0 0 0 0 0 590 0 0 1115 0 0 1176 0 0 1169 0 0 1189 0 0 1163 0 0 1115 0 0 1123 0 0 1194 0 0 1166 0 0 1200 0 0 1138 0 0 1118 0 0 1088 0 0 1142 0 0 1087 0 0 1145 0 0 1110 0 0 1158 0 0 1073 0 0 1175 0 0 1103 0 0 1133 0 0 1134 0 0 1161 0 0 1122 0 0 1163 0 0 1116 0 0 1122 0 0 1145 0 0 1176 0 0 1145 0 0 1152 0 0 1117 0 0 1133 0 0 1172 0 0 1139 0 0 1189 0 0 1133 0 0 1143 0 0 565 0 0 0 0 0 0 0 0 0 0 0 0 0 0 0 0 0 0 0 0 0 0 0 0 0 0 0 0 0 
0 0 0 0 0 0 0 0 0 0 0 0 0 0 0 0 0 0 0 0 0 0 0 0 0 0 0 0 0 0 1128 0 0 2289 0 0 2249 0 0 2249 0 0 2293 0 0 2248 0 0 2325 0 0 2251 0 0 2255 0 0 2245 0 0 2229 0 0 2236 0 0 2356 0 0 2332 0 0 2293 0 0 2338 0 0 2247 0 0 2315 0 0 2284 0 0 2207 0 0 2377 0 0 2196 0 0 2284 0 0 2360 0 0 2188 0 0 2324 0 0 2281 0 0 2376 0 0 2193 0 0 2303 0 0 2285 0 0 2184 0 0 2250 0 0 2239 0 0 2209 0 0 2239 0 0 2222 0 0 2273 0 0 2204 0 0 2221 0 0 1056 0 0 0 0 0 0 0 0 0 0 0 0 0 0 0 0 0 0 0 0 0 0 0 0 0 0 0 0 0 
0 0 0 0 0 0 0 0 0 0 0 0 0 0 0 0 0 0 0 0 0 0 0 0 0 0 0 0 0 0 1125 0 0 2255 0 0 2244 0 0 2301 0 0 2249 0 0 2272 0 0 2292 0 0 2292 0 0 2236 0 0 2229 0 0 2186 0 0 2237 0 0 2202 0 0 2240 0 0 2262 0 0 2304 0 0 2271 0 0 2272 0 0 2268 0 0 2352 0 0 2223 0 0 2258 0 0 2211 0 0 2222 0 0 2244 0 0 2284 0 0 2236 0 0 2276 0 0 2309 0 0 2290 0 0 2255 0 0 2272 0 0 2256 0 0 2272 0 0 2214 0 0 2250 0 0 2228 0 0 2314 0 0 2271 0 0 2220 0 0 1167 0 0 0 0 0 0 0 0 0 0 0 0 0 0 0 0 0 0 0 0 0 0 0 0 0 0 0 0 0 
0 0 0 0 0 0 0 0 0 0 0 0 0 0 0 0 0 0 0 0 0 0 0 0 0 0 0 0 0 0 1148 0 0 2262 0 0 2343 0 0 2379 0 0 2382 0 0 2202 0 0 2331 0 0 2284 0 0 2249 0 0 2178 0 0 2340 0 0 2338 0 0 2384 0 0 2250 0 0 2294 0 0 2285 0 0 2230 0 0 2350 0 0 2248 0 0 2208 0 0 2278 0 0 2236 0 0 2360 0 0 2322 0 0 2271 0 0 2195 0 0 2243 0 0 2229 0 0 2297 0 0 2182 0 0 2341 0 0 2213 0 0 2184 0 0 2262 0 0 2251 0 0 2252 0 0 2264 0 0 2361 0 0 2394 0 0 2351 0 0 1087 0 0 0 0 0 0 0 0 0 0 0 0 0 0 0 0 0 0 0 0 0 0 0 0 0 0 0 0 0 
0 0 0 0 0 0 0 0 0 0 0 0 0 0 0 0 0 0 0 0 0 0 0 0 0 0 0 0 0 0 1144 0 0 2233 0 0 2287 0 0 2269 0 0 2245 0 0 2136 0 0 2277 0 0 2186 0 0 2312 0 0 2277 0 0 2272 0 0 2246 0 0 2232 0 0 2323 0 0 2252 0 0 2131 0 0 2267 0 0 2351 0 0 2205 0 0 2195 0 0 2237 0 0 2295 0 0 2283 0 0 2205 0 0 2246 0 0 2314 0 0 2263 0 0 2320 0 0 2157 0 0 2264 0 0 2344 0 0 2276 0 0 2295 0 0 2272 0 0 2316 0 0 2233 0 0 2204 0 0 2276 0 0 2287 0 0 2300 0 0 1083 0 0 0 0 0 0 0 0 0 0 0 0 0 0 0 0 0 0 0 0 0 0 0 0 0 0 0 0 0 
0 0 0 0 0 0 0 0 0 0 0 0 0 0 0 0 0 0 0 0 0 0 0 0 0 0 0 0 0 0 1161 0 0 2251 0 0 2272 0 0 2252 0 0 2292 0 0 2308 0 0 2280 0 0 2323 0 0 2300 0 0 2248 0 0 2268 0 0 2382 0 0 2308 0 0 2309 0 0 2296 0 0 2300 0 0 2360 0 0 2306 0 0 2325 0 0 2370 0 0 2251 0 0 2286 0 0 2305 0 0 2295 0 0 2308 0 0 2266 0 0 2249 0 0 2307 0 0 2235 0 0 2288 0 0 2288 0 0 2335 0 0 2148 0 0 2188 0 0 2242 0 0 2295 0 0 2238 0 0 2286 0 0 2350 0 0 2226 0 0 1134 0 0 0 0 0 0 0 0 0 0 0 0 0 0 0 0 0 0 0 0 0 0 0 0 0 0 0 0 0 
0 0 0 0 0 0 0 0 0 0 0 0 0 0 0 0 0 0 0 0 0 0 0 0 0 0 0 0 0 0 1134 0 0 2156 0 0 2284 0 0 2280 0 0 2305 0 0 2301 0 0 2352 0 0 2301 0 0 2194 0 0 2293 0 0 2280 0 0 2341 0 0 2290 0 0 2262 0 0 2299 0 0 2286 0 0 2216 0 0 2206 0 0 2267 0 0 2317 0 0 2312 0 0 2262 0 0 2247 0 0 2192 0 0 2227 0 0 2259 0 0 2285 0 0 2266 0 0 2268 0 0 2224 0 0 2240 0 0 2305 0 0 2245 0 0 2274 0 0 2336 0 0 2347 0 0 2259 0 0 2242 0 0 2277 0 0 2336 0 0 1133 0 0 0 0 0 0 0 0 0 0 0 0 0 0 0 0 0 0 0 0 0 0 0 0 0 0 0 0 0 
0 0 0 0 0 0 0 0 0 0 0 0 0 0 0 0 0 0 0 0 0 0 0 0 0 0 0 0 0 0 1157 0 0 2197 0 0 2267 0 0 2304 0 0 2219 0 0 2224 0 0 2330 0 0 2288 0 0 2286 0 0 2262 0 0 2299 0 0 2233 0 0 2269 0 0 2202 0 0 2215 0 0 2342 0 0 2297 0 0 2285 0 0 2243 0 0 2224 0 0 2354 0 0 2248 0 0 2331 0 0 2279 0 0 2316 0 0 2162 0 0 2285 0 0 2259 0 0 2268 0 0 2179 0 0 2289 0 0 2302 0 0 2251 0 0 2225 0 0 2159 0 0 2364 0 0 2328 0 0 2321 0 0 2323 0 0 2246 0 0 1104 0 0 0 0 0 0 0 0 0 0 0 0 0 0 0 0 0 0 0 0 0 0 0 0 0 0 0 0 0 
0 0 0 0 0 0 0 0 0 0 0 0 0 0 0 0 0 0 0 0 0 0 0 0 0 0 0 0 0 0 1098 0 0 2326 0 0 2295 0 0 2270 0 0 2295 0 0 2305 0 0 2241 0 0 2392 0 0 2361 0 0 2246 0 0 2256 0 0 2244 0 0 2251 0 0 2298 0 0 2264 0 0 2360 0 0 2237 0 0 2260 0 0 2275 0 0 2305 0 0 2290 0 0 2295 0 0 2287 0 0 2170 0 0 2326 0 0 2243 0 0 2253 0 0 2230 0 0 2270 0 0 2225 0 0 2318 0 0 2205 0 0 2225 0 0 2293 0 0 2280 0 0 2201 0 0 2294 0 0 2166 0 0 2268 0 0 2203 0 0 1221 0 0 0 0 0 0 0 0 0 0 0 0 0 0 0 0 0 0 0 0 0 0 0 0 0 0 0 0 0 
0 0 0 0 0 0 0 0 0 0 0 0 0 0 0 0 0 0 0 0 0 0 0 0 0 0 0 0 0 0 1137 0 0 2288 0 0 2333 0 0 2329 0 0 2276 0 0 2239 0 0 2233 0 0 2176 0 0 2317 0 0 2236 0 0 2221 0 0 2294 0 0 2282 0 0 2191 0 0 2236 0 0 2297 0 0 2252 0 0 2223 0 0 2324 0 0 2188 0 0 2212 0 0 2267 0 0 2203 0 0 2255 0 0 2210 0 0 2313 0 0 2204 0 0 2219 0 0 2230 0 0 2353 0 0 2187 0 0 2313 0 0 2246 0 0 2232 0 0 2321 0 0 2273 0 0 2238 0 0 2328 0 0 2307 0 0 2294 0 0 1105 0 0 0 0 0 0 0 0 0 0 0 0 0 0 0 0 0 0 0 0 0 0 0 0 0 0 0 0 0 
0 0 0 0 0 0 0 0 0 0 0 0 0 0 0 0 0 0 0 0 0 0 0 0 0 0 0 0 0 0 1179 0 0 2369 0 0 2249 0 0 2262 0 0 2251 0 0 2284 0 0 2265 0 0 2302 0 0 2283 0 0 2364 0 0 2383 0 0 2189 0 0 2259 0 0 2230 0 0 2299 0 0 2282 0 0 2225 0 0 2235 0 0 2232 0 0 2221 0 0 2357 0 0 2285 0 0 2306 0 0 2228 0 0 2249 0 0 2252 0 0 2331 0 0 2244 0 0 2287 0 0 2224 0 0 2285 0 0 2265 0 0 2337 0 0 2216 0 0 2301 0 0 2223 0 0 2106 0 0 2171 0 0 2303 0 0 2188 0 0 1116 0 0 0 0 0 0 0 0 0 0 0 0 0 0 0 0 0 0 0 0 0 0 0 0 0 0 0 0 0 
0 0 0 0 0 0 0 0 0 0 0 0 0 0 0 0 0 0 0 0 0 0 0 0 0 0 0 0 0 0 1161 0 0 2275 0 0 2308 0 0 2233 0 0 2239 0 0 2337 0 0 2249 0 0 2261 0 0 2326 0 0 2245 0 0 2309 0 0 2151 0 0 2322 0 0 2320 0 0 2282 0 0 2216 0 0 2240 0 0 2329 0 0 2321 0 0 2290 0 0 2236 0 0 2306 0 0 2314 0 0 2254 0 0 2211 0 0 2345 0 0 2318 0 0 2269 0 0 2334 0 0 2226 0 0 2170 0 0 2285 0 0 2170 0 0 2295 0 0 2199 0 0 2309 0 0 2268 0 0 2251 0 0 2356 0 0 2335 0 0 1124 0 0 0 0 0 0 0 0 0 0 0 0 0 0 0 0 0 0 0 0 0 0 0 0 0 0 0 0 0 
0 0 0 0 0 0 0 0 0 0 0 0 0 0 0 0 0 0 0 0 0 0 0 0 0 0 0 0 0 0 1203 0 0 2250 0 0 2298 0 0 2367 0 0 2315 0 0 2230 0 0 2320 0 0 2151 0 0 2271 0 0 2191 0 0 2282 0 0 2210 0 0 2274 0 0 2268 0 0 2244 0 0 2317 0 0 2264 0 0 2238 0 0 2291 0 0 2277 0 0 2295 0 0 2190 0 0 2305 0 0 2248 0 0 2235 0 0 2290 0 0 2282 0 0 2334 0 0 2210 0 0 2331 0 0 2217 0 0 2216 0 0 2243 0 0 2280 0 0 2214 0 0 2295 0 0 2313 0 0 2222 0 0 2259 0 0 2235 0 0 1142 0 0 0 0 0 0 0 0 0 0 0 0 0 0 0 0 0 0 0 0 0 0 0 0 0 0 0 0 0 
0 0 0 0 0 0 0 0 0 0 0 0 0 0 0 0 0 0 0 0 0 0 0 0 0 0 0 0 0 0 1105 0 0 2289 0 0 2335 0 0 2308 0 0 2249 0 0 2259 0 0 2285 0 0 2260 0 0 2312 0 0 2199 0 0 2221 0 0 2312 0 0 2210 0 0 2246 0 0 2188 0 0 2361 0 0 2246 0 0 2291 0 0 2215 0 0 2238 0 0 2341 0 0 2263 0 0 2225 0 0 2288 0 0 2223 0 0 2301 0 0 2253 0 0 2191 0 0 2312 0 0 2197 0 0 2286 0 0 2225 0 0 2335 0 0 2329 0 0 2291 0 0 2362 0 0 2297 0 0 2239 0 0 2203 0 0 2339 0 0 1154 0 0 0 0 0 0 0 0 0 0 0 0 0 0 0 0 0 0 0 0 0 0 0 0 0 0 0 0 0 
0 0 0 0 0 0 0 0 0 0 0 0 0 0 0 0 0 0 0 0 0 0 0 0 0 0 0 0 0 0 1081 0 0 2272 0 0 2195 0 0 2292 0 0 2317 0 0 2265 0 0 2240 0 0 2280 0 0 2328 0 0 2341 0 0 2324 0 0 2320 0 0 2207 0 0 2276 0 0 2183 0 0 2275 0 0 2263 0 0 2242 0 0 2283 0 0 2295 0 0 2268 0 0 2324 0 0 2353 0 0 2212 0 0 2286 0 0 2360 0 0 2295 0 0 2289 0 0 2238 0 0 2281 0 0 2418 0 0 2247 0 0 2277 0 0 2321 0 0 2287 0 0 2298 0 0 2230 0 0 2266 0 0 2327 0 0 2331 0 0 1105 0 0 0 0 0 0 0 0 0 0 0 0 0 0 0 0 0 0 0 0 0 0 0 0 0 0 0 0 0 
0 0 0 0 0 0 0 0 0 0 0 0 0 0 0 0 0 0 0 0 0 0 0 0 0 0 0 0 0 0 1136 0 0 2230 0 0 2286 0 0 2184 0 0 2283 0 0 2317 0 0 2262 0 0 2316 0 0 2285 0 0 2228 0 0 2353 0 0 2229 0 0 2252 0 0 2283 0 0 2218 0 0 2357 0 0 2343 0 0 2236 0 0 2311 0 0 2333 0 0 2263 0 0 2306 0 0 2297 0 0 2346 0 0 2211 0 0 2358 0 0 2234 0 0 2264 0 0 2250 0 0 2170 0 0 2251 0 0 2230 0 0 2224 0 0 2249 0 0 2270 0 0 2198 0 0 2281 0 0 2245 0 0 2291 0 0 2314 0 0 1166 0 0 0 0 0 0 0 0 0 0 0 0 0 0 0 0 0 0 0 0 0 0 0 0 0 0 0 0 0 
0 0 0 0 0 0 0 0 0 0 0 0 0 0 0 0 0 0 0 0 0 0 0 0 0 0 0 0 0 0 1170 0 0 2259 0 0 2234 0 0 2331 0 0 2265 0 0 2330 0 0 2258 0 0 2295 0 0 2241 0 0 2216 0 0 2330 0 0 2259 0 0 2266 0 0 2297 0 0 2332 0 0 2279 0 0 2275 0 0 2383 0 0 2250 0 0 2257 0 0 2264 0 0 2310 0 0 2266 0 0 2326 0 0 2314 0 0 2204 0 0 2259 0 0 2218 0 0 2300 0 0 2319 0 0 2206 0 0 2186 0 0 2256 0 0 2238 0 0 2233 0 0 2280 0 0 2279 0 0 2242 0 0 2272 0 0 2258 0 0 1166 0 0 0 0 0 0 0 0 0 0 0 0 0 0 0 0 0 0 0 0 0 0 0 0 0 0 0 0 0 
0 0 0 0 0 0 0 0 0 0 0 0 0 0 0 0 0 0 0 0 0 0 0 0 0 0 0 0 0 0 1153 0 0 2361 0 0 2236 0 0 2301 0 0 2255 0 0 2191 0 0 2281 0 0 2297 0 0 2256 0 0 2275 0 0 2237 0 0 2184 0 0 2314 0 0 2270 0 0 2274 0 0 2254 0 0 2241 0 0 2189 0 0 2226 0 0 2232 0 0 2187 0 0 2259 0 0 2203 0 0 2252 0 0 2244 0 0 2340 0 0 2237 0 0 2258 0 0 2307 0 0 2282 0 0 2339 0 0 2361 0 0 2163 0 0 2300 0 0 2298 0 0 2296 0 0 2237 0 0 2189 0 0 2344 0 0 2313 0 0 1128 0 0 0 0 0 0 0 0 0 0 0 0 0 0 0 0 0 0 0 0 0 0 0 0 0 0 0 0 0 
0 0 0 0 0 0 0 0 0 0 0 0 0 0 0 0 0 0 0 0 0 0 0 0 0 0 0 0 0 0 1205 0 0 2351 0 0 2266 0 0 2276 0 0 2269 0 0 2232 0 0 2230 0 0 2226 0 0 2263 0 0 2295 0 0 2289 0 0 2281 0 0 2187 0 0 2291 0 0 2298 0 0 2230 0 0 2270 0 0 2356 0 0 2213 0 0 2332 0 0 2309 0 0 2369 0 0 2296 0 0 2276 0 0 2180 0 0 2346 0 0 2266 0 0 2301 0 0 2202 0 0 2337 0 0 2254 0 0 2292 0 0 2189 0 0 2284 0 0 2216 0 0 2286 0 0 2315 0 0 2215 0 0 2276 0 0 2229 0 0 1128 0 0 0 0 0 0 0 0 0 0 0 0 0 0 0 0 0 0 0 0 0 0 0 0 0 0 0 0 0 
0 0 0 0 0 0 0 0 0 0 0 0 0 0 0 0 0 0 0 0 0 0 0 0 0 0 0 0 0 0 1126 0 0 2285 0 0 2237 0 0 2275 0 0 2237 0 0 2231 0 0 2195 0 0 2322 0 0 2332 0 0 2254 0 0 2264 0 0 2207 0 0 2331 0 0 2246 0 0 2271 0 0 2373 0 0 2297 0 0 2345 0 0 2186 0 0 2317 0 0 2301 0 0 2205 0 0 2225 0 0 2195 0 0 2201 0 0 2311 0 0 2251 0 0 2204 0 0 2246 0 0 2320 0 0 2225 0 0 2391 0 0 2298 0 0 2320 0 0 2280 0 0 2322 0 0 2319 0 0 2294 0 0 2306 0 0 2282 0 0 1104 0 0 0 0 0 0 0 0 0 0 0 0 0 0 0 0 0 0 0 0 0 0 0 0 0 0 0 0 0 
0 0 0 0 0 0 0 0 0 0 0 0 0 0 0 0 0 0 0 0 0 0 0 0 0 0 0 0 0 0 1101 0 0 2238 0 0 2333 0 0 2287 0 0 2328 0 0 2316 0 0 2276 0 0 2211 0 0 2266 0 0 2293 0 0 2299 0 0 2236 0 0 2347 0 0 2315 0 0 2175 0 0 2317 0 0 2309 0 0 2253 0 0 2193 0 0 2224 0 0 2232 0 0 2286 0 0 2295 0 0 2265 0 0 2251 0 0 2392 0 0 2242 0 0 2274 0 0 2280 0 0 2201 0 0 2265 0 0 2192 0 0 2254 0 0 2250 0 0 2228 0 0 2211 0 0 2200 0 0 2189 0 0 2222 0 0 2246 0 0 1118 0 0 0 0 0 0 0 0 0 0 0 0 0 0 0 0 0 0 0 0 0 0 0 0 0 0 0 0 0 
0 0 0 0 0 0 0 0 0 0 0 0 0 0 0 0 0 0 0 0 0 0 0 0 0 0 0 0 0 0 1168 0 0 2292 0 0 2195 0 0 2268 0 0 2232 0 0 2284 0 0 2277 0 0 2218 0 0 2197 0 0 2275 0 0 2266 0 0 2286 0 0 2291 0 0 2301 0 0 2236 0 0 2265 0 0 2224 0 0 2304 0 0 2302 0 0 2282 0 0 2292 0 0 2273 0 0 2284 0 0 2251 0 0 2348 0 0 2213 0 0 2234 0 0 2340 0 0 2314 0 0 2367 0 0 2244 0 0 2229 0 0 2291 0 0 2287 0 0 2265 0 0 2332 0 0 2269 0 0 2428 0 0 2275 0 0 2283 0 0 1176 0 0 0 0 0 0 0 0 0 0 0 0 0 0 0 0 0 0 0 0 0 0 0 0 0 0 0 0 0 
0 0 0 0 0 0 0 0 0 0 0 0 0 0 0 0 0 0 0 0 0 0 0 0 0 0 0 0 0 0 1146 0 0 2194 0 0 2282 0 0 2273 0 0 2336 0 0 2292 0 0 2265 0 0 2276 0 0 2236 0 0 2341 0 0 2362 0 0 2263 0 0 2212 0 0 2316 0 0 2246 0 0 2238 0 0 2294 0 0 2175 0 0 2234 0 0 2294 0 0 2259 0 0 2264 0 0 2253 0 0 2226 0 0 2282 0 0 2220 0 0 2264 0 0 2271 0 0 2246 0 0 2333 0 0 2337 0 0 2278 0 0 2338 0 0 2211 0 0 2261 0 0 2271 0 0 2238 0 0 2253 0 0 2265 0 0 2277 0 0 1145 0 0 0 0 0 0 0 0 0 0 0 0 0 0 0 0 0 0 0 0 0 0 0 0 0 0 0 0 0 
0 0 0 0 0 0 0 0 0 0 0 0 0 0 0 0 0 0 0 0 0 0 0 0 0 0 0 0 0 0 1084 0 0 2324 0 0 2231 0 0 2244 0 0 2239 0 0 2213 0 0 2347 0 0 2218 0 0 2188 0 0 2302 0 0 2336 0 0 2282 0 0 2258 0 0 2276 0 0 2278 0 0 2299 0 0 2201 0 0 2352 0 0 2253 0 0 2253 0 0 2252 0 0 2224 0 0 2244 0 0 2228 0 0 2220 0 0 2267 0 0 2322 0 0 2239 0 0 2222 0 0 2241 0 0 2280 0 0 2181 0 0 2245 0 0 2282 0 0 2238 0 0 2210 0 0 2251 0 0 2259 0 0 2220 0 0 2342 0 0 1198 0 0 0 0 0 0 0 0 0 0 0 0 0 0 0 0 0 0 0 0 0 0 0 0 0 0 0 0 0 
0 0 0 0 0 0 0 0 0 0 0 0 0 0 0 0 0 0 0 0 0 0 0 0 0 0 0 0 0 0 1140 0 0 2362 0 0 2330 0 0 2171 0 0 2308 0 0 2303 0 0 2263 0 0 2271 0 0 2277 0 0 2269 0 0 2227 0 0 2332 0 0 2316 0 0 2302 0 0 2196 0 0 2344 0 0 2293 0 0 2388 0 0 2251 0 0 2232 0 0 2217 0 0 2292 0 0 2340 0 0 2294 0 0 2329 0 0 2255 0 0 2274 0 0 2293 0 0 2238 0 0 2385 0 0 2240 0 0 2337 0 0 2290 0 0 2258 0 0 2237 0 0 2288 0 0 2276 0 0 2302 0 0 2312 0 0 2205 0 0 1116 0 0 0 0 0 0 0 0 0 0 0 0 0 0 0 0 0 0 0 0 0 0 0 0 0 0 0 0 0 
0 0 0 0 0 0 0 0 0 0 0 0 0 0 0 0 0 0 0 0 0 0 0 0 0 0 0 0 0 0 1100 0 0 2275 0 0 2250 0 0 2250 0 0 2182 0 0 2169 0 0 2291 0 0 2232 0 0 2295 0 0 2312 0 0 2272 0 0 2245 0 0 2251 0 0 2184 0 0 2299 0 0 2282 0 0 2237 0 0 2303 0 0 2292 0 0 2333 0 0 2269 0 0 2281 0 0 2294 0 0 2298 0 0 2218 0 0 2291 0 0 2225 0 0 2259 0 0 2242 0 0 2293 0 0 2344 0 0 2340 0 0 2256 0 0 2188 0 0 2290 0 0 2264 0 0 2338 0 0 2235 0 0 2281 0 0 2252 0 0 1092 0 0 0 0 0 0 0 0 0 0 0 0 0 0 0 0 0 0 0 0 0 0 0 0 0 0 0 0 0 
0 0 0 0 0 0 0 0 0 0 0 0 0 0 0 0 0 0 0 0 0 0 0 0 0 0 0 0 0 0 1174 0 0 2286 0 0 2167 0 0 2229 0 0 2282 0 0 2313 0 0 2237 0 0 2219 0 0 2217 0 0 2338 0 0 2287 0 0 2220 0 0 2237 0 0 2289 0 0 2295 0 0 2229 0 0 2330 0 0 2321 0 0 2297 0 0 2260 0 0 2217 0 0 2257 0 0 2285 0 0 2298 0 0 2346 0 0 2316 0 0 2322 0 0 2293 0 0 2340 0 0 2239 0 0 2336 0 0 2223 0 0 2271 0 0 2234 0 0 2294 0 0 2241 0 0 2325 0 0 2222 0 0 2341 0 0 2258 0 0 1118 0 0 0 0 0 0 0 0 0 0 0 0 0 0 0 0 0 0 0 0 0 0 0 0 0 0 0 0 0 
0 0 0 0 0 0 0 0 0 0 0 0 0 0 0 0 0 0 0 0 0 0 0 0 0 0 0 0 0 0 1109 0 0 2330 0 0 2287 0 0 2277 0 0 2304 0 0 2201 0 0 2241 0 0 2113 0 0 2231 0 0 2246 0 0 2232 0 0 2316 0 0 2303 0 0 2343 0 0 2323 0 0 2175 0 0 2283 0 0 2210 0 0 2220 0 0 2227 0 0 2254 0 0 2278 0 0 2237 0 0 2227 0 0 2303 0 0 2167 0 0 2334 0 0 2299 0 0 2279 0 0 2219 0 0 2261 0 0 2272 0 0 2201 0 0 2269 0 0 2234 0 0 2196 0 0 2179 0 0 2361 0 0 2299 0 0 2252 0 0 1140 0 0 0 0 0 0 0 0 0 0 0 0 0 0 0 0 0 0 0 0 0 0 0 0 0 0 0 0 0 
0 0 0 0 0 0 0 0 0 0 0 0 0 0 0 0 0 0 0 0 0 0 0 0 0 0 0 0 0 0 1193 0 0 2276 0 0 2282 0 0 2277 0 0 2287 0 0 2287 0 0 2238 0 0 2267 0 0 2333 0 0 2275 0 0 2316 0 0 2260 0 0 2272 0 0 2297 0 0 2251 0 0 2296 0 0 2251 0 0 2208 0 0 2210 0 0 2221 0 0 2254 0 0 2252 0 0 2213 0 0 2282 0 0 2283 0 0 2240 0 0 2319 0 0 2250 0 0 2252 0 0 2280 0 0 2218 0 0 2256 0 0 2257 0 0 2319 0 0 2320 0 0 2223 0 0 2242 0 0 2293 0 0 2304 0 0 2315 0 0 1178 0 0 0 0 0 0 0 0 0 0 0 0 0 0 0 0 0 0 0 0 0 0 0 0 0 0 0 0 0 
0 0 0 0 0 0 0 0 0 0 0 0 0 0 0 0 0 0 0 0 0 0 0 0 0 0 0 0 0 0 1141 0 0 2267 0 0 2390 0 0 2308 0 0 2228 0 0 2226 0 0 2303 0 0 2201 0 0 2180 0 0 2219 0 0 2343 0 0 2324 0 0 2319 0 0 2246 0 0 2276 0 0 2275 0 0 2187 0 0 2217 0 0 2255 0 0 2326 0 0 2248 0 0 2218 0 0 2297 0 0 2329 0 0 2332 0 0 2343 0 0 2243 0 0 2357 0 0 2267 0 0 2279 0 0 2183 0 0 2283 0 0 2282 0 0 2198 0 0 2244 0 0 2272 0 0 2261 0 0 2307 0 0 2282 0 0 2305 0 0 1084 0 0 0 0 0 0 0 0 0 0 0 0 0 0 0 0 0 0 0 0 0 0 0 0 0 0 0 0 0 
0 0 0 0 0 0 0 0 0 0 0 0 0 0 0 0 0 0 0 0 0 0 0 0 0 0 0 0 0 0 1133 0 0 2248 0 0 2249 0 0 2224 0 0 2305 0 0 2263 0 0 2275 0 0 2244 0 0 2326 0 0 2303 0 0 2306 0 0 2304 0 0 2286 0 0 2277 0 0 2249 0 0 2250 0 0 2233 0 0 2176 0 0 2240 0 0 2261 0 0 2234 0 0 2246 0 0 2204 0 0 2244 0 0 2269 0 0 2341 0 0 2356 0 0 2267 0 0 2249 0 0 2414 0 0 2208 0 0 2239 0 0 2214 0 0 2272 0 0 2308 0 0 2222 0 0 2249 0 0 2324 0 0 2185 0 0 2224 0 0 1126 0 0 0 0 0 0 0 0 0 0 0 0 0 0 0 0 0 0 0 0 0 0 0 0 0 0 0 0 0 
0 0 0 0 0 0 0 0 0 0 0 0 0 0 0 0 0 0 0 0 0 0 0 0 0 0 0 0 0 0 1125 0 0 2295 0 0 2346 0 0 2260 0 0 2261 0 0 2387 0 0 2291 0 0 2298 0 0 2238 0 0 2170 0 0 2240 0 0 2171 0 0 2196 0 0 2387 0 0 2288 0 0 2309 0 0 2338 0 0 2299 0 0 2306 0 0 2232 0 0 2295 0 0 2253 0 0 2326 0 0 2298 0 0 2252 0 0 2277 0 0 2299 0 0 2235 0 0 2341 0 0 2305 0 0 2264 0 0 2274 0 0 2337 0 0 2289 0 0 2261 0 0 2262 0 0 2310 0 0 2287 0 0 2351 0 0 2180 0 0 1227 0 0 0 0 0 0 0 0 0 0 0 0 0 0 0 0 0 0 0 0 0 0 0 0 0 0 0 0 0 
0 0 0 0 0 0 0 0 0 0 0 0 0 0 0 0 0 0 0 0 0 0 0 0 0 0 0 0 0 0 1094 0 0 2328 0 0 2223 0 0 2329 0 0 2260 0 0 2276 0 0 2235 0 0 2284 0 0 2267 0 0 2340 0 0 2321 0 0 2352 0 0 2296 0 0 2224 0 0 2333 0 0 2377 0 0 2269 0 0 2233 0 0 2201 0 0 2327 0 0 2280 0 0 2217 0 0 2286 0 0 2345 0 0 2283 0 0 2264 0 0 2208 0 0 2262 0 0 2250 0 0 2292 0 0 2285 0 0 2327 0 0 2360 0 0 2210 0 0 2350 0 0 2267 0 0 2298 0 0 2284 0 0 2344 0 0 2235 0 0 1123 0 0 0 0 0 0 0 0 0 0 0 0 0 0 0 0 0 0 0 0 0 0 0 0 0 0 0 0 0 
0 0 0 0 0 0 0 0 0 0 0 0 0 0 0 0 0 0 0 0 0 0 0 0 0 0 0 0 0 0 1100 0 0 2220 0 0 2235 0 0 2292 0 0 2339 0 0 2228 0 0 2291 0 0 2353 0 0 2343 0 0 2331 0 0 2255 0 0 2407 0 0 2252 0 0 2301 0 0 2343 0 0 2329 0 0 2269 0 0 2258 0 0 2260 0 0 2241 0 0 2195 0 0 2295 0 0 2304 0 0 2166 0 0 2329 0 0 2284 0 0 2248 0 0 2225 0 0 2237 0 0 2307 0 0 2275 0 0 2288 0 0 2230 0 0 2236 0 0 2275 0 0 2360 0 0 2263 0 0 2271 0 0 2232 0 0 2220 0 0 1132 0 0 0 0 0 0 0 0 0 0 0 0 0 0 0 0 0 0 0 0 0 0 0 0 0 0 0 0 0 
0 0 0 0 0 0 0 0 0 0 0 0 0 0 0 0 0 0 0 0 0 0 0 0 0 0 0 0 0 0 1150 0 0 2279 0 0 2315 0 0 2236 0 0 2247 0 0 2315 0 0 2205 0 0 2263 0 0 2267 0 0 2264 0 0 2301 0 0 2273 0 0 2281 0 0 2208 0 0 2252 0 0 2212 0 0 2280 0 0 2352 0 0 2196 0 0 2321 0 0 2220 0 0 2244 0 0 2261 0 0 2205 0 0 2244 0 0 2313 0 0 2286 0 0 2332 0 0 2309 0 0 2234 0 0 2243 0 0 2266 0 0 2206 0 0 2341 0 0 2317 0 0 2274 0 0 2195 0 0 2230 0 0 2251 0 0 2244 0 0 1181 0 0 0 0 0 0 0 0 0 0 0 0 0 0 0 0 0 0 0 0 0 0 0 0 0 0 0 0 0 
0 0 0 0 0 0 0 0 0 0 0 0 0 0 0 0 0 0 0 0 0 0 0 0 0 0 0 0 0 0 1179 0 0 2238 0 0 2211 0 0 2267 0 0 2225 0 0 2237 0 0 2235 0 0 2286 0 0 2268 0 0 2210 0 0 2287 0 0 2275 0 0 2254 0 0 2320 0 0 2256 0 0 2273 0 0 2251 0 0 2410 0 0 2265 0 0 2317 0 0 2235 0 0 2261 0 0 2293 0 0 2260 0 0 2223 0 0 2297 0 0 2315 0 0 2339 0 0 2260 0 0 2300 0 0 2273 0 0 2225 0 0 2249 0 0 2210 0 0 2318 0 0 2320 0 0 2318 0 0 2160 0 0 2295 0 0 2281 0 0 1194 0 0 0 0 0 0 0 0 0 0 0 0 0 0 0 0 0 0 0 0 0 0 0 0 0 0 0 0 0 
0 0 0 0 0 0 0 0 0 0 0 0 0 0 0 0 0 0 0 0 0 0 0 0 0 0 0 0 0 0 1094 0 0 2305 0 0 2343 0 0 2308 0 0 2288 0 0 2281 0 0 2409 0 0 2260 0 0 2279 0 0 2246 0 0 2231 0 0 2333 0 0 2307 0 0 2234 0 0 2279 0 0 2263 0 0 2342 0 0 2231 0 0 2247 0 0 2217 0 0 2250 0 0 2168 0 0 2294 0 0 2237 0 0 2265 0 0 2281 0 0 2192 0 0 2259 0 0 2288 0 0 2322 0 0 2318 0 0 2306 0 0 2294 0 0 2301 0 0 2178 0 0 2325 0 0 2278 0 0 2236 0 0 2284 0 0 2295 0 0 1160 0 0 0 0 0 0 0 0 0 0 0 0 0 0 0 0 0 0 0 0 0 0 0 0 0 0 0 0 0 
0 0 0 0 0 0 0 0 0 0 0 0 0 0 0 0 0 0 0 0 0 0 0 0 0 0 0 0 0 0 1102 0 0 2268 0 0 2203 0 0 2278 0 0 2293 0 0 2279 0 0 2216 0 0 2319 0 0 2217 0 0 2143 0 0 2246 0 0 2270 0 0 2282 0 0 2298 0 0 2227 0 0 2225 0 0 2279 0 0 2282 0 0 2230 0 0 2194 0 0 2244 0 0 2294 0 0 2229 0 0 2275 0 0 2274 0 0 2209 0 0 2236 0 0 2319 0 0 2230 0 0 2261 0 0 2267 0 0 2252 0 0 2268 0 0 2309 0 0 2298 0 0 2315 0 0 2251 0 0 2249 0 0 2262 0 0 2191 0 0 1150 0 0 0 0 0 0 0 0 0 0 0 0 0 0 0 0 0 0 0 0 0 0 0 0 0 0 0 0 0 
0 0 0 0 0 0 0 0 0 0 0 0 0 0 0 0 0 0 0 0 0 0 0 0 0 0 0 0 0 0 1145 0 0 2254 0 0 2229 0 0 2250 0 0 2221 0 0 2329 0 0 2315 0 0 2259 0 0 2277 0 0 2230 0 0 2369 0 0 2282 0 0 2282 0 0 2258 0 0 2295 0 0 2300 0 0 2257 0 0 2259 0 0 2190 0 0 2308 0 0 2282 0 0 2303 0 0 2272 0 0 2269 0 0 2286 0 0 2253 0 0 2277 0 0 2319 0 0 2247 0 0 2293 0 0 2277 0 0 2276 0 0 2303 0 0 2203 0 0 2353 0 0 2207 0 0 2392 0 0 2147 0 0 2209 0 0 2237 0 0 1112 0 0 0 0 0 0 0 0 0 0 0 0 0 0 0 0 0 0 0 0 0 0 0 0 0 0 0 0 0 
0 0 0 0 0 0 0 0 0 0 0 0 0 0 0 0 0 0 0 0 0 0 0 0 0 0 0 0 0 0 1097 0 0 2321 0 0 2298 0 0 2270 0 0 2242 0 0 2259 0 0 2335 0 0 2390 0 0 2234 0 0 2291 0 0 2268 0 0 2208 0 0 2255 0 0 2257 0 0 2421 0 0 2263 0 0 2277 0 0 2253 0 0 2231 0 0 2187 0 0 2303 0 0 2253 0 0 2269 0 0 2303 0 0 2281 0 0 2314 0 0 2298 0 0 2336 0 0 2232 0 0 2186 0 0 2241 0 0 2298 0 0 2260 0 0 2248 0 0 2194 0 0 2337 0 0 2224 0 0 2239 0 0 2310 0 0 2267 0 0 1126 0 0 0 0 0 0 0 0 0 0 0 0 0 0 0 0 0 0 0 0 0 0 0 0 0 0 0 0 0 
0 0 0 0 0 0 0 0 0 0 0 0 0 0 0 0 0 0 0 0 0 0 0 0 0 0 0 0 0 0 577 0 0 1140 0 0 1170 0 0 1157 0 0 1164 0 0 1163 0 0 1149 0 0 1125 0 0 1100 0 0 1109 0 0 1166 0 0 1115 0 0 1178 0 0 1174 0 0 1145 0 0 1078 0 0 1176 0 0 1125 0 0 1120 0 0 1136 0 0 1120 0 0 1163 0 0 1172 0 0 1116 0 0 1177 0 0 1140 0 0 1141 0 0 1126 0 0 1116 0 0 1151 0 0 1126 0 0 1133 0 0 1182 0 0 1162 0 0 1179 0 0 1181 0 0 1173 0 0 1077 0 0 1090 0 0 1186 0 0 565 0 0 0 0 0 0 0 0 0 0 0 0 0 0 0 0 0 0 0 0 0 0 0 0 0 0 0 0 0 
0 0 0 0 0 0 0 0 0 0 0 0 0 0 0 0 0 0 0 0 0 0 0 0 0 0 0 0 0 0 0 0 0 0 0 0 0 0 0 0 0 0 0 0 0 0 0 0 0 0 0 0 0 0 0 0 0 0 0 0 0 0 0 0 0 0 0 0 0 0 0 0 0 0 0 0 0 0 0 0 0 0 0 0 0 0 0 0 0 0 0 0 0 0 0 0 0 0 0 0 0 0 0 0 0 0 0 0 0 0 0 0 0 0 0 0 0 0 0 0 0 0 0 0 0 0 0 0 0 0 0 0 0 0 0 0 0 0 0 0 0 0 0 0 0 0 0 0 0 0 0 0 0 0 0 0 0 0 0 0 0 0 0 0 0 0 0 0 0 0 0 0 0 0 0 0 0 0 0 0 
0 0 0 0 0 0 0 0 0 0 0 0 0 0 0 0 0 0 0 0 0 0 0 0 0 0 0 0 0 0 0 0 0 0 0 0 0 0 0 0 0 0 0 0 0 0 0 0 0 0 0 0 0 0 0 0 0 0 0 0 0 0 0 0 0 0 0 0 0 0 0 0 0 0 0 0 0 0 0 0 0 0 0 0 0 0 0 0 0 0 0 0 0 0 0 0 0 0 0 0 0 0 0 0 0 0 0 0 0 0 0 0 0 0 0 0 0 0 0 0 0 0 0 0 0 0 0 0 0 0 0 0 0 0 0 0 0 0 0 0 0 0 0 0 0 0 0 0 0 0 0 0 0 0 0 0 0 0 0 0 0 0 0 0 0 0 0 0 0 0 0 0 0 0 0 0 0 0 0 0 
0 0 0 0 0 0 0 0 0 0 0 0 0 0 0 0 0 0 0 0 0 0 0 0 0 0 0 0 0 0 0 0 0 0 0 0 0 0 0 0 0 0 0 0 0 0 0 0 0 0 0 0 0 0 0 0 0 0 0 0 0 0 0 0 0 0 0 0 0 0 0 0 0 0 0 0 0 0 0 0 0 0 0 0 0 0 0 0 0 0 0 0 0 0 0 0 0 0 0 0 0 0 0 0 0 0 0 0 0 0 0 0 0 0 0 0 0 0 0 0 0 0 0 0 0 0 0 0 0 0 0 0 0 0 0 0 0 0 0 0 0 0 0 0 0 0 0 0 0 0 0 0 0 0 0 0 0 0 0 0 0 0 0 0 0 0 0 0 0 0 0 0 0 0 0 0 0 0 0 0 
0 0 0 0 0 0 0 0 0 0 0 0 0 0 0 0 0 0 0 0 0 0 0 0 0 0 0 0 0 0 0 0 0 0 0 0 0 0 0 0 0 0 0 0 0 0 0 0 0 0 0 0 0 0 0 0 0 0 0 0 0 0 0 0 0 0 0 0 0 0 0 0 0 0 0 0 0 0 0 0 0 0 0 0 0 0 0 0 0 0 0 0 0 0 0 0 0 0 0 0 0 0 0 0 0 0 0 0 0 0 0 0 0 0 0 0 0 0 0 0 0 0 0 0 0 0 0 0 0 0 0 0 0 0 0 0 0 0 0 0 0 0 0 0 0 0 0 0 0 0 0 0 0 0 0 0 0 0 0 0 0 0 0 0 0 0 0 0 0 0 0 0 0 0 0 0 0 0 0 0 
0 0 0 0 0 0 0 0 0 0 0 0 0 0 0 0 0 0 0 0 0 0 0 0 0 0 0 0 0 0 0 0 0 0 0 0 0 0 0 0 0 0 0 0 0 0 0 0 0 0 0 0 0 0 0 0 0 0 0 0 0 0 0 0 0 0 0 0 0 0 0 0 0 0 0 0 0 0 0 0 0 0 0 0 0 0 0 0 0 0 0 0 0 0 0 0 0 0 0 0 0 0 0 0 0 0 0 0 0 0 0 0 0 0 0 0 0 0 0 0 0 0 0 0 0 0 0 0 0 0 0 0 0 0 0 0 0 0 0 0 0 0 0 0 0 0 0 0 0 0 0 0 0 0 0 0 0 0 0 0 0 0 0 0 0 0 0 0 0 0 0 0 0 0 0 0 0 0 0 0 
0 0 0 0 0 0 0 0 0 0 0 0 0 0 0 0 0 0 0 0 0 0 0 0 0 0 0 0 0 0 0 0 0 0 0 0 0 0 0 0 0 0 0 0 0 0 0 0 0 0 0 0 0 0 0 0 0 0 0 0 0 0 0 0 0 0 0 0 0 0 0 0 0 0 0 0 0 0 0 0 0 0 0 0 0 0 0 0 0 0 0 0 0 0 0 0 0 0 0 0 0 0 0 0 0 0 0 0 0 0 0 0 0 0 0 0 0 0 0 0 0 0 0 0 0 0 0 0 0 0 0 0 0 0 0 0 0 0 0 0 0 0 0 0 0 0 0 0 0 0 0 0 0 0 0 0 0 0 0 0 0 0 0 0 0 0 0 0 0 0 0 0 0 0 0 0 0 0 0 0 
0 0 0 0 0 0 0 0 0 0 0 0 0 0 0 0 0 0 0 0 0 0 0 0 0 0 0 0 0 0 0 0 0 0 0 0 0 0 0 0 0 0 0 0 0 0 0 0 0 0 0 0 0 0 0 0 0 0 0 0 0 0 0 0 0 0 0 0 0 0 0 0 0 0 0 0 0 0 0 0 0 0 0 0 0 0 0 0 0 0 0 0 0 0 0 0 0 0 0 0 0 0 0 0 0 0 0 0 0 0 0 0 0 0 0 0 0 0 0 0 0 0 0 0 0 0 0 0 0 0 0 0 0 0 0 0 0 0 0 0 0 0 0 0 0 0 0 0 0 0 0 0 0 0 0 0 0 0 0 0 0 0 0 0 0 0 0 0 0 0 0 0 0 0 0 0 0 0 0 0 
0 0 0 0 0 0 0 0 0 0 0 0 0 0 0 0 0 0 0 0 0 0 0 0 0 0 0 0 0 0 0 0 0 0 0 0 0 0 0 0 0 0 0 0 0 0 0 0 0 0 0 0 0 0 0 0 0 0 0 0 0 0 0 0 0 0 0 0 0 0 0 0 0 0 0 0 0 0 0 0 0 0 0 0 0 0 0 0 0 0 0 0 0 0 0 0 0 0 0 0 0 0 0 0 0 0 0 0 0 0 0 0 0 0 0 0 0 0 0 0 0 0 0 0 0 0 0 0 0 0 0 0 0 0 0 0 0 0 0 0 0 0 0 0 0 0 0 0 0 0 0 0 0 0 0 0 0 0 0 0 0 0 0 0 0 0 0 0 0 0 0 0 0 0 0 0 0 0 0 0 
0 0 0 0 0 0 0 0 0 0 0 0 0 0 0 0 0 0 0 0 0 0 0 0 0 0 0 0 0 0 0 0 0 0 0 0 0 0 0 0 0 0 0 0 0 0 0 0 0 0 0 0 0 0 0 0 0 0 0 0 0 0 0 0 0 0 0 0 0 0 0 0 0 0 0 0 0 0 0 0 0 0 0 0 0 0 0 0 0 0 0 0 0 0 0 0 0 0 0 0 0 0 0 0 0 0 0 0 0 0 0 0 0 0 0 0 0 0 0 0 0 0 0 0 0 0 0 0 0 0 0 0 0 0 0 0 0 0 0 0 0 0 0 0 0 0 0 0 0 0 0 0 0 0 0 0 0 0 0 0 0 0 0 0 0 0 0 0 0 0 0 0 0 0 0 0 0 0 0 0 
