P3
# This is a dose file slice at depth 74 of 100
60 60
# now we give the maximum value of the RGB coordinates.
21610
0 0 0 0 0 0 1 0 0 1 0 0 1 0 0 1 0 0 0 0 0 0 0 0 0 0 0 2 0 0 0 0 0 1 0 0 1 0 0 0 0 0 1 0 0 0 0 0 2 0 0 1 0 0 1 0 0 0 0 0 0 0 0 3 0 0 0 0 0 0 0 0 0 0 0 0 0 0 0 0 0 0 0 0 0 0 0 1 0 0 1 0 0 0 0 0 0 0 0 0 0 0 0 0 0 0 0 0 1 0 0 3 0 0 0 0 0 0 0 0 1 0 0 2 0 0 0 0 0 2 0 0 0 0 0 1 0 0 0 0 0 0 0 0 1 0 0 1 0 0 0 0 0 1 0 0 0 0 0 0 0 0 0 0 0 3 0 0 0 0 0 0 0 0 0 0 0 0 0 0 
0 0 0 0 0 0 1 0 0 3 0 0 3 0 0 2 0 0 2 0 0 1 0 0 1 0 0 3 0 0 2 0 0 1 0 0 5 0 0 0 0 0 2 0 0 2 0 0 5 0 0 2 0 0 2 0 0 0 0 0 0 0 0 0 0 0 3 0 0 2 0 0 1 0 0 1 0 0 0 0 0 2 0 0 0 0 0 3 0 0 1 0 0 3 0 0 2 0 0 0 0 0 5 0 0 0 0 0 2 0 0 1 0 0 0 0 0 3 0 0 4 0 0 4 0 0 3 0 0 7 0 0 1 0 0 0 0 0 0 0 0 1 0 0 7 0 0 3 0 0 0 0 0 2 0 0 1 0 0 2 0 0 2 0 0 2 0 0 0 0 0 0 0 0 0 0 0 1 0 0 
0 0 0 1 0 0 0 0 0 0 0 0 1 0 0 1 0 0 2 0 0 2 0 0 0 0 0 0 0 0 3 0 0 1 0 0 2 0 0 1 0 0 3 0 0 4 0 0 2 0 0 3 0 0 2 0 0 1 0 0 0 0 0 3 0 0 2 0 0 1 0 0 1 0 0 1 0 0 0 0 0 2 0 0 3 0 0 3 0 0 3 0 0 2 0 0 5 0 0 6 0 0 3 0 0 1 0 0 2 0 0 3 0 0 5 0 0 3 0 0 1 0 0 4 0 0 1 0 0 1 0 0 1 0 0 1 0 0 3 0 0 2 0 0 1 0 0 2 0 0 1 0 0 3 0 0 2 0 0 2 0 0 2 0 0 0 0 0 1 0 0 0 0 0 3 0 0 2 0 0 
0 0 0 0 0 0 1 0 0 0 0 0 2 0 0 4 0 0 1 0 0 1 0 0 2 0 0 1 0 0 1 0 0 3 0 0 1 0 0 0 0 0 1 0 0 3 0 0 3 0 0 3 0 0 4 0 0 4 0 0 0 0 0 5 0 0 4 0 0 1 0 0 0 0 0 2 0 0 3 0 0 0 0 0 6 0 0 1 0 0 1 0 0 1 0 0 4 0 0 1 0 0 1 0 0 1 0 0 0 0 0 5 0 0 6 0 0 1 0 0 4 0 0 3 0 0 0 0 0 3 0 0 1 0 0 4 0 0 4 0 0 3 0 0 2 0 0 1 0 0 2 0 0 3 0 0 1 0 0 3 0 0 1 0 0 2 0 0 4 0 0 0 0 0 1 0 0 0 0 0 
0 0 0 0 0 0 3 0 0 0 0 0 0 0 0 3 0 0 1 0 0 1 0 0 2 0 0 1 0 0 1 0 0 4 0 0 4 0 0 2 0 0 2 0 0 3 0 0 4 0 0 2 0 0 7 0 0 4 0 0 4 0 0 6 0 0 1 0 0 4 0 0 0 0 0 3 0 0 4 0 0 4 0 0 5 0 0 3 0 0 4 0 0 0 0 0 1 0 0 6 0 0 4 0 0 0 0 0 1 0 0 1 0 0 8 0 0 3 0 0 3 0 0 4 0 0 5 0 0 6 0 0 2 0 0 2 0 0 1 0 0 1 0 0 2 0 0 2 0 0 2 0 0 3 0 0 1 0 0 1 0 0 3 0 0 5 0 0 1 0 0 1 0 0 1 0 0 0 0 0 
1 0 0 0 0 0 0 0 0 0 0 0 0 0 0 1 0 0 3 0 0 1 0 0 1 0 0 5 0 0 1 0 0 3 0 0 3 0 0 0 0 0 1 0 0 3 0 0 3 0 0 5 0 0 8 0 0 3 0 0 5 0 0 5 0 0 2 0 0 5 0 0 4 0 0 6 0 0 2 0 0 3 0 0 3 0 0 4 0 0 1 0 0 0 0 0 3 0 0 6 0 0 4 0 0 3 0 0 3 0 0 2 0 0 9 0 0 5 0 0 4 0 0 4 0 0 3 0 0 3 0 0 3 0 0 4 0 0 4 0 0 1 0 0 2 0 0 1 0 0 2 0 0 1 0 0 0 0 0 2 0 0 1 0 0 1 0 0 0 0 0 4 0 0 2 0 0 1 0 0 
0 0 0 2 0 0 1 0 0 1 0 0 1 0 0 0 0 0 1 0 0 2 0 0 1 0 0 5 0 0 2 0 0 1 0 0 3 0 0 1 0 0 5 0 0 2 0 0 3 0 0 5 0 0 7 0 0 9 0 0 9 0 0 3 0 0 4 0 0 9 0 0 2 0 0 3 0 0 3 0 0 4 0 0 6 0 0 3 0 0 1 0 0 3 0 0 5 0 0 1 0 0 2 0 0 4 0 0 4 0 0 2 0 0 5 0 0 5 0 0 8 0 0 5 0 0 5 0 0 5 0 0 5 0 0 4 0 0 6 0 0 7 0 0 2 0 0 0 0 0 4 0 0 4 0 0 2 0 0 1 0 0 0 0 0 0 0 0 0 0 0 2 0 0 1 0 0 5 0 0 
0 0 0 2 0 0 2 0 0 2 0 0 1 0 0 2 0 0 0 0 0 0 0 0 2 0 0 5 0 0 4 0 0 4 0 0 7 0 0 0 0 0 6 0 0 5 0 0 4 0 0 5 0 0 9 0 0 5 0 0 8 0 0 6 0 0 9 0 0 7 0 0 7 0 0 9 0 0 7 0 0 5 0 0 5 0 0 2 0 0 3 0 0 5 0 0 5 0 0 7 0 0 5 0 0 5 0 0 3 0 0 3 0 0 5 0 0 8 0 0 9 0 0 5 0 0 8 0 0 3 0 0 4 0 0 6 0 0 6 0 0 9 0 0 4 0 0 2 0 0 7 0 0 6 0 0 3 0 0 0 0 0 1 0 0 0 0 0 0 0 0 4 0 0 3 0 0 1 0 0 
0 0 0 0 0 0 0 0 0 2 0 0 1 0 0 1 0 0 1 0 0 4 0 0 4 0 0 6 0 0 6 0 0 3 0 0 4 0 0 2 0 0 5 0 0 6 0 0 1 0 0 4 0 0 6 0 0 5 0 0 9 0 0 11 0 0 10 0 0 5 0 0 7 0 0 3 0 0 7 0 0 6 0 0 8 0 0 5 0 0 2 0 0 2 0 0 7 0 0 6 0 0 10 0 0 5 0 0 8 0 0 3 0 0 11 0 0 10 0 0 8 0 0 8 0 0 12 0 0 9 0 0 8 0 0 9 0 0 9 0 0 11 0 0 6 0 0 5 0 0 4 0 0 1 0 0 2 0 0 2 0 0 0 0 0 0 0 0 1 0 0 0 0 0 1 0 0 3 0 0 
0 0 0 1 0 0 2 0 0 1 0 0 3 0 0 2 0 0 6 0 0 4 0 0 3 0 0 3 0 0 24 0 0 33 0 0 33 0 0 34 0 0 35 0 0 29 0 0 31 0 0 28 0 0 35 0 0 25 0 0 36 0 0 43 0 0 43 0 0 26 0 0 40 0 0 34 0 0 32 0 0 34 0 0 34 0 0 34 0 0 33 0 0 40 0 0 27 0 0 37 0 0 28 0 0 36 0 0 28 0 0 35 0 0 35 0 0 33 0 0 36 0 0 41 0 0 33 0 0 37 0 0 33 0 0 24 0 0 45 0 0 40 0 0 33 0 0 43 0 0 13 0 0 3 0 0 4 0 0 1 0 0 2 0 0 4 0 0 2 0 0 0 0 0 0 0 0 1 0 0 
0 0 0 0 0 0 1 0 0 2 0 0 4 0 0 3 0 0 1 0 0 2 0 0 7 0 0 17 0 0 1065 0 0 2145 0 0 2099 0 0 2128 0 0 2098 0 0 2098 0 0 2038 0 0 2066 0 0 2177 0 0 2133 0 0 2120 0 0 2104 0 0 2075 0 0 2045 0 0 2137 0 0 2194 0 0 2073 0 0 2136 0 0 2053 0 0 2091 0 0 2132 0 0 2015 0 0 2055 0 0 2061 0 0 2061 0 0 2111 0 0 2129 0 0 2062 0 0 2085 0 0 2116 0 0 2174 0 0 2111 0 0 2150 0 0 2128 0 0 2159 0 0 2052 0 0 2100 0 0 2066 0 0 2196 0 0 2102 0 0 1014 0 0 19 0 0 6 0 0 5 0 0 4 0 0 5 0 0 1 0 0 1 0 0 2 0 0 0 0 0 
0 0 0 0 0 0 0 0 0 0 0 0 1 0 0 5 0 0 2 0 0 1 0 0 2 0 0 31 0 0 2118 0 0 4117 0 0 4159 0 0 4145 0 0 4192 0 0 4207 0 0 4082 0 0 4165 0 0 4168 0 0 4292 0 0 4187 0 0 4166 0 0 4321 0 0 4248 0 0 4064 0 0 4158 0 0 4171 0 0 4082 0 0 4167 0 0 4125 0 0 4159 0 0 4023 0 0 4182 0 0 4125 0 0 4102 0 0 4069 0 0 4192 0 0 4140 0 0 4173 0 0 4150 0 0 4248 0 0 4174 0 0 4291 0 0 4164 0 0 4217 0 0 4136 0 0 4195 0 0 4127 0 0 4158 0 0 4072 0 0 2063 0 0 27 0 0 9 0 0 1 0 0 3 0 0 0 0 0 0 0 0 1 0 0 2 0 0 2 0 0 
0 0 0 1 0 0 2 0 0 2 0 0 0 0 0 4 0 0 3 0 0 1 0 0 3 0 0 25 0 0 2095 0 0 4128 0 0 4246 0 0 4174 0 0 4181 0 0 4253 0 0 4168 0 0 4188 0 0 4269 0 0 4182 0 0 4177 0 0 4176 0 0 4242 0 0 4091 0 0 4180 0 0 4294 0 0 4187 0 0 4280 0 0 4234 0 0 4092 0 0 4239 0 0 4191 0 0 4182 0 0 4220 0 0 4161 0 0 4177 0 0 4226 0 0 4217 0 0 4200 0 0 4210 0 0 4226 0 0 4102 0 0 4098 0 0 4038 0 0 4229 0 0 4196 0 0 4244 0 0 4249 0 0 4265 0 0 4215 0 0 2069 0 0 29 0 0 5 0 0 6 0 0 0 0 0 3 0 0 2 0 0 2 0 0 3 0 0 3 0 0 
0 0 0 0 0 0 0 0 0 1 0 0 1 0 0 1 0 0 1 0 0 1 0 0 4 0 0 39 0 0 2073 0 0 4120 0 0 4189 0 0 4185 0 0 4169 0 0 4288 0 0 4145 0 0 4077 0 0 4230 0 0 4108 0 0 4195 0 0 4135 0 0 4182 0 0 4175 0 0 4139 0 0 4194 0 0 4081 0 0 4279 0 0 4189 0 0 4182 0 0 4222 0 0 4261 0 0 4159 0 0 4341 0 0 4279 0 0 4168 0 0 4172 0 0 4301 0 0 4141 0 0 4169 0 0 4299 0 0 4106 0 0 4231 0 0 4195 0 0 4156 0 0 4235 0 0 4276 0 0 4064 0 0 4248 0 0 4223 0 0 2102 0 0 34 0 0 6 0 0 4 0 0 9 0 0 6 0 0 4 0 0 5 0 0 7 0 0 4 0 0 
1 0 0 2 0 0 0 0 0 0 0 0 2 0 0 4 0 0 9 0 0 5 0 0 3 0 0 35 0 0 2064 0 0 4146 0 0 4211 0 0 4149 0 0 4311 0 0 4231 0 0 4142 0 0 4195 0 0 4219 0 0 4255 0 0 4199 0 0 4158 0 0 4189 0 0 4297 0 0 4155 0 0 4248 0 0 4164 0 0 4237 0 0 4130 0 0 4217 0 0 4280 0 0 4262 0 0 4099 0 0 4136 0 0 4207 0 0 4298 0 0 4055 0 0 4219 0 0 4163 0 0 4182 0 0 4171 0 0 4271 0 0 4282 0 0 4155 0 0 4169 0 0 4280 0 0 4086 0 0 4267 0 0 4115 0 0 4150 0 0 2071 0 0 27 0 0 8 0 0 6 0 0 8 0 0 4 0 0 4 0 0 2 0 0 3 0 0 0 0 0 
0 0 0 2 0 0 0 0 0 0 0 0 3 0 0 0 0 0 2 0 0 5 0 0 9 0 0 38 0 0 2147 0 0 4118 0 0 4161 0 0 4191 0 0 4114 0 0 4159 0 0 4272 0 0 4174 0 0 4117 0 0 4236 0 0 4211 0 0 4195 0 0 4195 0 0 4324 0 0 4152 0 0 4193 0 0 4160 0 0 4260 0 0 4131 0 0 4133 0 0 4110 0 0 4200 0 0 4219 0 0 4187 0 0 4249 0 0 4081 0 0 4198 0 0 4254 0 0 4164 0 0 4200 0 0 4133 0 0 4222 0 0 4127 0 0 4237 0 0 4078 0 0 4241 0 0 4175 0 0 4231 0 0 4267 0 0 4146 0 0 2174 0 0 48 0 0 6 0 0 8 0 0 5 0 0 3 0 0 4 0 0 2 0 0 3 0 0 2 0 0 
0 0 0 2 0 0 1 0 0 1 0 0 2 0 0 4 0 0 3 0 0 6 0 0 15 0 0 30 0 0 2023 0 0 4159 0 0 4176 0 0 4210 0 0 4201 0 0 4270 0 0 4139 0 0 4130 0 0 4155 0 0 4217 0 0 4240 0 0 4145 0 0 4222 0 0 4189 0 0 4178 0 0 4248 0 0 4138 0 0 4162 0 0 4194 0 0 4128 0 0 4103 0 0 4130 0 0 4168 0 0 4242 0 0 4301 0 0 4312 0 0 4118 0 0 4207 0 0 4065 0 0 4204 0 0 4170 0 0 4167 0 0 4131 0 0 4127 0 0 4170 0 0 4219 0 0 4162 0 0 4212 0 0 4220 0 0 4068 0 0 2109 0 0 29 0 0 10 0 0 8 0 0 5 0 0 8 0 0 4 0 0 0 0 0 2 0 0 4 0 0 
0 0 0 3 0 0 4 0 0 3 0 0 4 0 0 1 0 0 0 0 0 3 0 0 6 0 0 31 0 0 2171 0 0 4030 0 0 4207 0 0 4285 0 0 4204 0 0 4196 0 0 4292 0 0 4222 0 0 4245 0 0 4115 0 0 4309 0 0 4168 0 0 4309 0 0 4254 0 0 4222 0 0 4186 0 0 4144 0 0 4239 0 0 4267 0 0 4242 0 0 4127 0 0 4121 0 0 4135 0 0 4268 0 0 4250 0 0 4239 0 0 4170 0 0 4289 0 0 4216 0 0 4176 0 0 4185 0 0 4216 0 0 4160 0 0 4165 0 0 4217 0 0 4191 0 0 4158 0 0 4214 0 0 4141 0 0 4130 0 0 2018 0 0 29 0 0 3 0 0 9 0 0 5 0 0 3 0 0 2 0 0 4 0 0 1 0 0 1 0 0 
2 0 0 6 0 0 5 0 0 3 0 0 2 0 0 3 0 0 1 0 0 2 0 0 3 0 0 36 0 0 2087 0 0 4198 0 0 4327 0 0 4234 0 0 4182 0 0 4159 0 0 4184 0 0 4146 0 0 4181 0 0 4258 0 0 4197 0 0 4202 0 0 4231 0 0 4260 0 0 4165 0 0 4180 0 0 4156 0 0 4260 0 0 4243 0 0 4153 0 0 4207 0 0 4340 0 0 4197 0 0 4180 0 0 4200 0 0 4270 0 0 4188 0 0 4194 0 0 4216 0 0 4142 0 0 4322 0 0 4153 0 0 4063 0 0 4169 0 0 4284 0 0 4220 0 0 4247 0 0 4270 0 0 4198 0 0 4212 0 0 2038 0 0 46 0 0 8 0 0 2 0 0 2 0 0 2 0 0 1 0 0 3 0 0 2 0 0 0 0 0 
0 0 0 2 0 0 1 0 0 5 0 0 5 0 0 6 0 0 5 0 0 6 0 0 5 0 0 34 0 0 2117 0 0 4153 0 0 4128 0 0 4252 0 0 4239 0 0 4260 0 0 4311 0 0 4266 0 0 4133 0 0 4155 0 0 4241 0 0 4244 0 0 4202 0 0 4283 0 0 4277 0 0 4261 0 0 4251 0 0 4137 0 0 4234 0 0 4173 0 0 4338 0 0 4313 0 0 4161 0 0 4291 0 0 4168 0 0 4082 0 0 4163 0 0 4168 0 0 4218 0 0 4236 0 0 4227 0 0 4187 0 0 4190 0 0 4156 0 0 4299 0 0 4285 0 0 4170 0 0 4117 0 0 4199 0 0 4108 0 0 2060 0 0 26 0 0 7 0 0 2 0 0 2 0 0 0 0 0 0 0 0 1 0 0 0 0 0 2 0 0 
1 0 0 1 0 0 1 0 0 2 0 0 2 0 0 6 0 0 2 0 0 1 0 0 5 0 0 33 0 0 2071 0 0 4160 0 0 4311 0 0 4225 0 0 4171 0 0 4250 0 0 4207 0 0 4209 0 0 4178 0 0 4312 0 0 4209 0 0 4163 0 0 4164 0 0 4194 0 0 4122 0 0 4212 0 0 4248 0 0 4296 0 0 4279 0 0 4083 0 0 4105 0 0 4250 0 0 4141 0 0 4217 0 0 4250 0 0 4173 0 0 4236 0 0 4300 0 0 4263 0 0 4222 0 0 4113 0 0 4250 0 0 4142 0 0 4248 0 0 4271 0 0 4130 0 0 4262 0 0 4132 0 0 4242 0 0 4153 0 0 2045 0 0 34 0 0 8 0 0 6 0 0 5 0 0 3 0 0 5 0 0 3 0 0 4 0 0 6 0 0 
0 0 0 3 0 0 3 0 0 2 0 0 1 0 0 5 0 0 6 0 0 3 0 0 3 0 0 28 0 0 2135 0 0 4179 0 0 4123 0 0 4214 0 0 4154 0 0 4313 0 0 4150 0 0 4164 0 0 4155 0 0 4203 0 0 4186 0 0 4154 0 0 4153 0 0 4201 0 0 4205 0 0 4175 0 0 4149 0 0 4260 0 0 4192 0 0 4198 0 0 4202 0 0 4342 0 0 4213 0 0 4171 0 0 4166 0 0 4359 0 0 4229 0 0 4254 0 0 4150 0 0 4174 0 0 4146 0 0 4114 0 0 4147 0 0 4232 0 0 4269 0 0 4135 0 0 4218 0 0 4172 0 0 4174 0 0 4169 0 0 2126 0 0 38 0 0 5 0 0 7 0 0 3 0 0 1 0 0 2 0 0 3 0 0 1 0 0 1 0 0 
1 0 0 1 0 0 0 0 0 3 0 0 6 0 0 5 0 0 5 0 0 3 0 0 4 0 0 30 0 0 2086 0 0 4097 0 0 4196 0 0 4156 0 0 4282 0 0 4160 0 0 4267 0 0 4274 0 0 4171 0 0 4254 0 0 4268 0 0 4220 0 0 4124 0 0 4219 0 0 4320 0 0 4193 0 0 4063 0 0 4253 0 0 4186 0 0 4306 0 0 4285 0 0 4315 0 0 4224 0 0 4118 0 0 4195 0 0 4197 0 0 4184 0 0 4261 0 0 4267 0 0 4104 0 0 4166 0 0 4286 0 0 4172 0 0 4302 0 0 4098 0 0 4231 0 0 4231 0 0 4236 0 0 4224 0 0 4087 0 0 2100 0 0 34 0 0 9 0 0 6 0 0 3 0 0 3 0 0 2 0 0 4 0 0 4 0 0 3 0 0 
2 0 0 3 0 0 3 0 0 2 0 0 0 0 0 1 0 0 6 0 0 10 0 0 11 0 0 36 0 0 2077 0 0 4099 0 0 4267 0 0 4090 0 0 4166 0 0 4106 0 0 4183 0 0 4114 0 0 4157 0 0 4268 0 0 4272 0 0 4185 0 0 4249 0 0 4172 0 0 4238 0 0 4220 0 0 4302 0 0 4201 0 0 4229 0 0 4290 0 0 4201 0 0 4189 0 0 4189 0 0 4212 0 0 4244 0 0 4369 0 0 4282 0 0 4242 0 0 4156 0 0 4119 0 0 4296 0 0 4222 0 0 4207 0 0 4236 0 0 4187 0 0 4147 0 0 4218 0 0 4279 0 0 4281 0 0 4146 0 0 2169 0 0 36 0 0 16 0 0 9 0 0 7 0 0 4 0 0 2 0 0 4 0 0 3 0 0 1 0 0 
2 0 0 6 0 0 1 0 0 3 0 0 1 0 0 5 0 0 2 0 0 3 0 0 7 0 0 38 0 0 2139 0 0 4136 0 0 4202 0 0 4201 0 0 4197 0 0 4189 0 0 4093 0 0 4234 0 0 4209 0 0 4235 0 0 4162 0 0 4165 0 0 4243 0 0 4238 0 0 4154 0 0 4173 0 0 4186 0 0 4040 0 0 4262 0 0 4208 0 0 4285 0 0 4223 0 0 4199 0 0 4115 0 0 4201 0 0 4248 0 0 4117 0 0 4214 0 0 4193 0 0 4230 0 0 4242 0 0 4169 0 0 4161 0 0 4216 0 0 4151 0 0 4082 0 0 4190 0 0 4225 0 0 4296 0 0 4175 0 0 2187 0 0 41 0 0 5 0 0 6 0 0 1 0 0 4 0 0 4 0 0 5 0 0 0 0 0 1 0 0 
1 0 0 6 0 0 6 0 0 1 0 0 4 0 0 5 0 0 2 0 0 4 0 0 7 0 0 36 0 0 2089 0 0 4190 0 0 4127 0 0 4122 0 0 4118 0 0 4248 0 0 4142 0 0 4162 0 0 4216 0 0 4299 0 0 4220 0 0 4196 0 0 4183 0 0 4272 0 0 4192 0 0 4161 0 0 4222 0 0 4133 0 0 4110 0 0 4097 0 0 4175 0 0 4228 0 0 4111 0 0 4296 0 0 4165 0 0 4270 0 0 4204 0 0 4265 0 0 4112 0 0 4229 0 0 4286 0 0 4094 0 0 4211 0 0 4184 0 0 4223 0 0 4212 0 0 4214 0 0 4211 0 0 4222 0 0 4144 0 0 2154 0 0 26 0 0 12 0 0 11 0 0 6 0 0 5 0 0 4 0 0 3 0 0 2 0 0 1 0 0 
1 0 0 1 0 0 3 0 0 2 0 0 4 0 0 1 0 0 0 0 0 1 0 0 5 0 0 25 0 0 2075 0 0 4205 0 0 4289 0 0 4193 0 0 4142 0 0 4133 0 0 4131 0 0 4255 0 0 4180 0 0 4335 0 0 4250 0 0 4190 0 0 4190 0 0 4099 0 0 4100 0 0 4133 0 0 4280 0 0 4218 0 0 4247 0 0 4218 0 0 4303 0 0 4293 0 0 4236 0 0 4215 0 0 4207 0 0 4157 0 0 4273 0 0 4284 0 0 4269 0 0 4322 0 0 4255 0 0 4334 0 0 4125 0 0 4149 0 0 4218 0 0 4187 0 0 4278 0 0 4116 0 0 4156 0 0 4227 0 0 2139 0 0 38 0 0 10 0 0 4 0 0 7 0 0 5 0 0 3 0 0 3 0 0 4 0 0 2 0 0 
1 0 0 0 0 0 0 0 0 4 0 0 2 0 0 5 0 0 4 0 0 4 0 0 7 0 0 40 0 0 2119 0 0 4204 0 0 4214 0 0 4308 0 0 4112 0 0 4233 0 0 4232 0 0 4173 0 0 4106 0 0 4230 0 0 4235 0 0 4146 0 0 4188 0 0 4233 0 0 4292 0 0 4240 0 0 4234 0 0 4134 0 0 4195 0 0 4115 0 0 4224 0 0 4234 0 0 4257 0 0 4246 0 0 4281 0 0 4175 0 0 4163 0 0 4178 0 0 4266 0 0 4202 0 0 4230 0 0 4262 0 0 4151 0 0 4256 0 0 4364 0 0 4116 0 0 4332 0 0 4147 0 0 4218 0 0 4164 0 0 2121 0 0 45 0 0 9 0 0 8 0 0 6 0 0 6 0 0 3 0 0 3 0 0 4 0 0 2 0 0 
0 0 0 0 0 0 2 0 0 6 0 0 1 0 0 4 0 0 5 0 0 8 0 0 9 0 0 39 0 0 2078 0 0 4116 0 0 4209 0 0 4129 0 0 4097 0 0 4195 0 0 4172 0 0 4199 0 0 4217 0 0 4073 0 0 4212 0 0 4213 0 0 4145 0 0 4233 0 0 4150 0 0 4233 0 0 4274 0 0 4291 0 0 4198 0 0 4276 0 0 4143 0 0 4159 0 0 4266 0 0 4167 0 0 4326 0 0 4234 0 0 4335 0 0 4203 0 0 4239 0 0 4237 0 0 4187 0 0 4062 0 0 4234 0 0 4162 0 0 4222 0 0 4193 0 0 4115 0 0 4148 0 0 4210 0 0 4087 0 0 2045 0 0 31 0 0 14 0 0 5 0 0 2 0 0 2 0 0 3 0 0 4 0 0 3 0 0 2 0 0 
1 0 0 1 0 0 2 0 0 3 0 0 7 0 0 7 0 0 8 0 0 7 0 0 9 0 0 24 0 0 2127 0 0 4109 0 0 4149 0 0 4169 0 0 4269 0 0 4216 0 0 4264 0 0 4175 0 0 4273 0 0 4176 0 0 4250 0 0 4123 0 0 4240 0 0 4149 0 0 4124 0 0 4190 0 0 4246 0 0 4330 0 0 4225 0 0 4146 0 0 4195 0 0 4152 0 0 4111 0 0 4053 0 0 4215 0 0 4343 0 0 4138 0 0 4205 0 0 4238 0 0 4279 0 0 4201 0 0 4228 0 0 4089 0 0 4212 0 0 4271 0 0 4253 0 0 4225 0 0 4221 0 0 4228 0 0 4097 0 0 2093 0 0 38 0 0 10 0 0 3 0 0 3 0 0 2 0 0 0 0 0 4 0 0 3 0 0 1 0 0 
1 0 0 0 0 0 1 0 0 3 0 0 3 0 0 6 0 0 6 0 0 7 0 0 4 0 0 32 0 0 2074 0 0 4260 0 0 4044 0 0 4196 0 0 4172 0 0 4173 0 0 4133 0 0 4176 0 0 4107 0 0 4211 0 0 4189 0 0 4268 0 0 4201 0 0 4138 0 0 4159 0 0 4128 0 0 4289 0 0 4189 0 0 4207 0 0 4181 0 0 4206 0 0 4155 0 0 4343 0 0 4239 0 0 4150 0 0 4214 0 0 4177 0 0 4209 0 0 4290 0 0 4332 0 0 4197 0 0 4214 0 0 4259 0 0 4160 0 0 4262 0 0 4165 0 0 4306 0 0 4135 0 0 4181 0 0 4163 0 0 2082 0 0 35 0 0 7 0 0 2 0 0 8 0 0 8 0 0 7 0 0 4 0 0 6 0 0 3 0 0 
0 0 0 0 0 0 2 0 0 5 0 0 3 0 0 6 0 0 7 0 0 2 0 0 4 0 0 34 0 0 2085 0 0 4267 0 0 4247 0 0 4273 0 0 4187 0 0 4177 0 0 4078 0 0 4145 0 0 4301 0 0 4166 0 0 4187 0 0 4191 0 0 4223 0 0 4093 0 0 4083 0 0 4186 0 0 4142 0 0 4141 0 0 4231 0 0 4214 0 0 4261 0 0 4170 0 0 4137 0 0 4296 0 0 4250 0 0 4038 0 0 4173 0 0 4208 0 0 4168 0 0 4163 0 0 4213 0 0 4115 0 0 4149 0 0 4153 0 0 4233 0 0 4188 0 0 4254 0 0 4236 0 0 4194 0 0 4137 0 0 2055 0 0 32 0 0 3 0 0 8 0 0 5 0 0 3 0 0 3 0 0 4 0 0 2 0 0 1 0 0 
0 0 0 1 0 0 2 0 0 2 0 0 6 0 0 6 0 0 7 0 0 3 0 0 8 0 0 40 0 0 2085 0 0 4155 0 0 4093 0 0 4209 0 0 4203 0 0 4127 0 0 4158 0 0 4186 0 0 4141 0 0 4257 0 0 4114 0 0 4205 0 0 4088 0 0 4247 0 0 4223 0 0 4104 0 0 4204 0 0 4282 0 0 4237 0 0 4156 0 0 4118 0 0 4232 0 0 4202 0 0 4338 0 0 4188 0 0 4241 0 0 4204 0 0 4233 0 0 4202 0 0 4065 0 0 4176 0 0 4138 0 0 4187 0 0 4179 0 0 4183 0 0 4162 0 0 4253 0 0 4200 0 0 4212 0 0 4155 0 0 2082 0 0 40 0 0 14 0 0 4 0 0 5 0 0 5 0 0 4 0 0 2 0 0 2 0 0 1 0 0 
1 0 0 2 0 0 4 0 0 3 0 0 6 0 0 1 0 0 2 0 0 11 0 0 13 0 0 25 0 0 2015 0 0 4168 0 0 4184 0 0 4292 0 0 4072 0 0 4275 0 0 4140 0 0 4290 0 0 4210 0 0 4272 0 0 4061 0 0 4178 0 0 4183 0 0 4179 0 0 4131 0 0 4214 0 0 4210 0 0 4190 0 0 4264 0 0 4176 0 0 4258 0 0 4209 0 0 4288 0 0 4103 0 0 4239 0 0 4104 0 0 4308 0 0 4274 0 0 4242 0 0 4205 0 0 4212 0 0 4216 0 0 4064 0 0 4141 0 0 4290 0 0 4223 0 0 4242 0 0 4199 0 0 4196 0 0 4172 0 0 2118 0 0 39 0 0 12 0 0 8 0 0 2 0 0 5 0 0 6 0 0 1 0 0 1 0 0 4 0 0 
1 0 0 1 0 0 3 0 0 1 0 0 5 0 0 3 0 0 7 0 0 12 0 0 14 0 0 33 0 0 2010 0 0 4079 0 0 4136 0 0 4213 0 0 4191 0 0 4267 0 0 4215 0 0 4177 0 0 4222 0 0 4219 0 0 4146 0 0 4287 0 0 4171 0 0 4097 0 0 4248 0 0 4302 0 0 4177 0 0 4227 0 0 4206 0 0 4182 0 0 4285 0 0 4208 0 0 4195 0 0 4232 0 0 4143 0 0 4182 0 0 4143 0 0 4219 0 0 4249 0 0 4061 0 0 4234 0 0 4167 0 0 4199 0 0 4179 0 0 4126 0 0 4191 0 0 4315 0 0 4187 0 0 4212 0 0 4167 0 0 2118 0 0 38 0 0 3 0 0 8 0 0 4 0 0 4 0 0 2 0 0 2 0 0 0 0 0 0 0 0 
0 0 0 7 0 0 4 0 0 3 0 0 1 0 0 4 0 0 10 0 0 5 0 0 9 0 0 32 0 0 2112 0 0 4108 0 0 4236 0 0 4228 0 0 4107 0 0 4184 0 0 4223 0 0 4138 0 0 4271 0 0 4235 0 0 4095 0 0 4234 0 0 4125 0 0 4121 0 0 4118 0 0 4175 0 0 4251 0 0 4209 0 0 4275 0 0 4221 0 0 4144 0 0 4244 0 0 4119 0 0 4248 0 0 4289 0 0 4087 0 0 4230 0 0 4196 0 0 4304 0 0 4123 0 0 4214 0 0 4158 0 0 4082 0 0 4235 0 0 4235 0 0 4230 0 0 4134 0 0 4214 0 0 4134 0 0 4137 0 0 2077 0 0 32 0 0 7 0 0 6 0 0 1 0 0 1 0 0 2 0 0 5 0 0 2 0 0 3 0 0 
1 0 0 1 0 0 0 0 0 0 0 0 3 0 0 6 0 0 6 0 0 7 0 0 7 0 0 36 0 0 2116 0 0 4163 0 0 4111 0 0 4239 0 0 4213 0 0 4240 0 0 4240 0 0 4188 0 0 4164 0 0 4188 0 0 4182 0 0 4165 0 0 4246 0 0 4171 0 0 4097 0 0 4172 0 0 4129 0 0 4270 0 0 4202 0 0 4303 0 0 4234 0 0 4224 0 0 4124 0 0 4068 0 0 4163 0 0 4214 0 0 4152 0 0 4250 0 0 4081 0 0 4226 0 0 4192 0 0 4204 0 0 4175 0 0 4173 0 0 4096 0 0 4155 0 0 4199 0 0 4230 0 0 4088 0 0 4136 0 0 2065 0 0 27 0 0 4 0 0 4 0 0 5 0 0 4 0 0 1 0 0 3 0 0 5 0 0 1 0 0 
1 0 0 2 0 0 4 0 0 8 0 0 3 0 0 1 0 0 7 0 0 2 0 0 5 0 0 32 0 0 2016 0 0 4207 0 0 4062 0 0 4215 0 0 4166 0 0 4099 0 0 4219 0 0 4182 0 0 4160 0 0 4245 0 0 4128 0 0 4125 0 0 4294 0 0 4235 0 0 4253 0 0 4035 0 0 4054 0 0 4179 0 0 4109 0 0 4182 0 0 4277 0 0 4232 0 0 4230 0 0 4169 0 0 4235 0 0 4226 0 0 4180 0 0 4224 0 0 4365 0 0 4067 0 0 4243 0 0 4132 0 0 4289 0 0 4058 0 0 4134 0 0 4138 0 0 4246 0 0 4229 0 0 4248 0 0 4198 0 0 2133 0 0 31 0 0 6 0 0 7 0 0 5 0 0 6 0 0 5 0 0 4 0 0 4 0 0 4 0 0 
0 0 0 3 0 0 7 0 0 6 0 0 5 0 0 3 0 0 2 0 0 5 0 0 9 0 0 30 0 0 2114 0 0 4022 0 0 4343 0 0 4221 0 0 4180 0 0 4310 0 0 4230 0 0 4269 0 0 4279 0 0 4254 0 0 4177 0 0 4058 0 0 4245 0 0 4203 0 0 4245 0 0 4229 0 0 4193 0 0 4148 0 0 4163 0 0 4263 0 0 4227 0 0 4261 0 0 4224 0 0 4144 0 0 4301 0 0 4229 0 0 4177 0 0 4200 0 0 4125 0 0 4111 0 0 4187 0 0 4212 0 0 4139 0 0 4244 0 0 4034 0 0 4238 0 0 4279 0 0 4143 0 0 4289 0 0 4149 0 0 2110 0 0 30 0 0 5 0 0 11 0 0 7 0 0 7 0 0 4 0 0 3 0 0 3 0 0 1 0 0 
2 0 0 5 0 0 5 0 0 1 0 0 3 0 0 2 0 0 1 0 0 3 0 0 4 0 0 38 0 0 2138 0 0 4227 0 0 4171 0 0 4254 0 0 4116 0 0 4054 0 0 4186 0 0 4205 0 0 4223 0 0 4215 0 0 4286 0 0 4255 0 0 4179 0 0 4201 0 0 4217 0 0 4276 0 0 4255 0 0 4237 0 0 4154 0 0 4091 0 0 4181 0 0 4261 0 0 4208 0 0 4249 0 0 4322 0 0 4237 0 0 4156 0 0 4192 0 0 4097 0 0 4282 0 0 4143 0 0 4240 0 0 4093 0 0 4270 0 0 4126 0 0 4263 0 0 4267 0 0 4157 0 0 4168 0 0 4173 0 0 2076 0 0 27 0 0 12 0 0 3 0 0 4 0 0 1 0 0 3 0 0 4 0 0 1 0 0 1 0 0 
2 0 0 3 0 0 4 0 0 2 0 0 4 0 0 1 0 0 3 0 0 3 0 0 10 0 0 34 0 0 2035 0 0 4182 0 0 4136 0 0 4190 0 0 4165 0 0 4243 0 0 4149 0 0 4220 0 0 4264 0 0 4211 0 0 4219 0 0 4312 0 0 4107 0 0 4181 0 0 4263 0 0 4201 0 0 4085 0 0 4125 0 0 4131 0 0 4190 0 0 4138 0 0 4144 0 0 4215 0 0 4398 0 0 4271 0 0 4187 0 0 4165 0 0 4299 0 0 4219 0 0 4083 0 0 4172 0 0 4306 0 0 4154 0 0 4149 0 0 4157 0 0 4169 0 0 4181 0 0 4218 0 0 4231 0 0 4146 0 0 2115 0 0 38 0 0 11 0 0 5 0 0 5 0 0 4 0 0 1 0 0 1 0 0 4 0 0 2 0 0 
0 0 0 0 0 0 1 0 0 3 0 0 2 0 0 3 0 0 0 0 0 3 0 0 8 0 0 34 0 0 2103 0 0 4192 0 0 4138 0 0 4133 0 0 4334 0 0 4247 0 0 4159 0 0 4254 0 0 4292 0 0 4278 0 0 4196 0 0 4150 0 0 4273 0 0 4252 0 0 4136 0 0 4193 0 0 4233 0 0 4305 0 0 4027 0 0 4197 0 0 4243 0 0 4204 0 0 4132 0 0 4193 0 0 4162 0 0 4159 0 0 4187 0 0 4264 0 0 4150 0 0 4155 0 0 4255 0 0 4158 0 0 4206 0 0 4240 0 0 4270 0 0 4270 0 0 4292 0 0 4089 0 0 4227 0 0 4163 0 0 2109 0 0 21 0 0 8 0 0 6 0 0 6 0 0 1 0 0 2 0 0 1 0 0 0 0 0 1 0 0 
0 0 0 1 0 0 0 0 0 2 0 0 5 0 0 2 0 0 5 0 0 8 0 0 8 0 0 37 0 0 2124 0 0 4058 0 0 4165 0 0 4196 0 0 4122 0 0 4261 0 0 4118 0 0 4237 0 0 4248 0 0 4167 0 0 4218 0 0 4171 0 0 4305 0 0 4271 0 0 4175 0 0 4250 0 0 4197 0 0 4231 0 0 4184 0 0 4204 0 0 4201 0 0 4222 0 0 4173 0 0 4177 0 0 4201 0 0 4181 0 0 4180 0 0 4161 0 0 4249 0 0 4207 0 0 4201 0 0 4194 0 0 4273 0 0 4217 0 0 4363 0 0 4158 0 0 4253 0 0 4210 0 0 4209 0 0 4140 0 0 2085 0 0 35 0 0 6 0 0 4 0 0 4 0 0 6 0 0 2 0 0 0 0 0 0 0 0 1 0 0 
0 0 0 0 0 0 4 0 0 0 0 0 1 0 0 2 0 0 4 0 0 9 0 0 9 0 0 32 0 0 2056 0 0 4094 0 0 4168 0 0 4139 0 0 4108 0 0 4074 0 0 4219 0 0 4294 0 0 4309 0 0 4218 0 0 4301 0 0 4207 0 0 4234 0 0 4150 0 0 4167 0 0 4320 0 0 4251 0 0 4298 0 0 4179 0 0 4147 0 0 4134 0 0 4227 0 0 4181 0 0 4169 0 0 4310 0 0 4153 0 0 4275 0 0 4130 0 0 4138 0 0 4204 0 0 4180 0 0 4201 0 0 4185 0 0 4169 0 0 4188 0 0 4095 0 0 4180 0 0 4119 0 0 4104 0 0 4074 0 0 2102 0 0 36 0 0 10 0 0 5 0 0 4 0 0 5 0 0 8 0 0 7 0 0 6 0 0 6 0 0 
0 0 0 1 0 0 0 0 0 2 0 0 1 0 0 2 0 0 7 0 0 10 0 0 7 0 0 37 0 0 2124 0 0 4164 0 0 4237 0 0 4218 0 0 4251 0 0 4120 0 0 4158 0 0 4132 0 0 4260 0 0 4187 0 0 4117 0 0 4207 0 0 4196 0 0 4281 0 0 4177 0 0 4133 0 0 4196 0 0 4187 0 0 4237 0 0 4233 0 0 4145 0 0 4219 0 0 4084 0 0 4257 0 0 4227 0 0 4216 0 0 4206 0 0 4293 0 0 4190 0 0 4166 0 0 4209 0 0 4289 0 0 4227 0 0 4263 0 0 4234 0 0 4144 0 0 4180 0 0 4187 0 0 4189 0 0 4216 0 0 2071 0 0 33 0 0 5 0 0 2 0 0 4 0 0 1 0 0 2 0 0 4 0 0 5 0 0 4 0 0 
1 0 0 2 0 0 1 0 0 0 0 0 0 0 0 1 0 0 6 0 0 10 0 0 8 0 0 42 0 0 2026 0 0 4151 0 0 4186 0 0 4252 0 0 4250 0 0 4121 0 0 4191 0 0 4088 0 0 4272 0 0 4258 0 0 4155 0 0 4258 0 0 4179 0 0 4166 0 0 4230 0 0 4265 0 0 4190 0 0 4189 0 0 4169 0 0 4169 0 0 4170 0 0 4211 0 0 4097 0 0 4303 0 0 4172 0 0 4194 0 0 4199 0 0 4219 0 0 4243 0 0 4188 0 0 4177 0 0 4206 0 0 4253 0 0 4160 0 0 4184 0 0 4149 0 0 4292 0 0 4213 0 0 4142 0 0 4094 0 0 2167 0 0 32 0 0 6 0 0 5 0 0 3 0 0 3 0 0 3 0 0 4 0 0 5 0 0 3 0 0 
0 0 0 0 0 0 4 0 0 6 0 0 7 0 0 6 0 0 5 0 0 3 0 0 2 0 0 29 0 0 2100 0 0 4139 0 0 4134 0 0 4149 0 0 4081 0 0 4288 0 0 4251 0 0 4187 0 0 4147 0 0 4154 0 0 4174 0 0 4201 0 0 4119 0 0 4242 0 0 4232 0 0 4223 0 0 4230 0 0 4210 0 0 4211 0 0 4124 0 0 4115 0 0 4014 0 0 4215 0 0 4215 0 0 4105 0 0 4179 0 0 4088 0 0 4159 0 0 4123 0 0 4228 0 0 4170 0 0 4145 0 0 4132 0 0 4113 0 0 4238 0 0 4264 0 0 4219 0 0 4087 0 0 4171 0 0 4125 0 0 2077 0 0 28 0 0 4 0 0 4 0 0 6 0 0 2 0 0 0 0 0 0 0 0 0 0 0 2 0 0 
0 0 0 2 0 0 4 0 0 3 0 0 6 0 0 6 0 0 3 0 0 5 0 0 5 0 0 33 0 0 2042 0 0 4040 0 0 4262 0 0 4166 0 0 4217 0 0 4301 0 0 4151 0 0 4104 0 0 4210 0 0 4080 0 0 4162 0 0 4194 0 0 4088 0 0 4134 0 0 4057 0 0 4130 0 0 4221 0 0 4135 0 0 4107 0 0 4253 0 0 4195 0 0 4227 0 0 4208 0 0 4273 0 0 4142 0 0 4185 0 0 4256 0 0 4202 0 0 4270 0 0 4130 0 0 4141 0 0 4227 0 0 4122 0 0 4170 0 0 4214 0 0 4220 0 0 4097 0 0 4191 0 0 4146 0 0 4247 0 0 2115 0 0 37 0 0 7 0 0 4 0 0 2 0 0 8 0 0 5 0 0 2 0 0 1 0 0 1 0 0 
1 0 0 5 0 0 4 0 0 3 0 0 3 0 0 4 0 0 1 0 0 7 0 0 6 0 0 33 0 0 2026 0 0 4124 0 0 4106 0 0 4208 0 0 4233 0 0 4221 0 0 4100 0 0 4217 0 0 4162 0 0 4155 0 0 4256 0 0 4304 0 0 4166 0 0 4253 0 0 4164 0 0 4145 0 0 4213 0 0 4202 0 0 4153 0 0 4171 0 0 4135 0 0 4196 0 0 4203 0 0 4191 0 0 4264 0 0 4127 0 0 4128 0 0 4121 0 0 4165 0 0 4206 0 0 4256 0 0 4224 0 0 4201 0 0 4152 0 0 4161 0 0 4234 0 0 4287 0 0 4107 0 0 4208 0 0 4113 0 0 2061 0 0 27 0 0 9 0 0 2 0 0 1 0 0 0 0 0 3 0 0 1 0 0 1 0 0 1 0 0 
2 0 0 5 0 0 3 0 0 1 0 0 1 0 0 2 0 0 1 0 0 1 0 0 8 0 0 31 0 0 2023 0 0 4103 0 0 4082 0 0 4262 0 0 4145 0 0 4172 0 0 4207 0 0 4160 0 0 4167 0 0 4111 0 0 4258 0 0 4139 0 0 4204 0 0 4208 0 0 4081 0 0 4156 0 0 4109 0 0 4116 0 0 4045 0 0 4030 0 0 4165 0 0 4191 0 0 4046 0 0 4219 0 0 4244 0 0 4133 0 0 4149 0 0 4091 0 0 4220 0 0 4097 0 0 4267 0 0 4114 0 0 4181 0 0 4170 0 0 4156 0 0 4095 0 0 4138 0 0 4171 0 0 4124 0 0 4108 0 0 2055 0 0 35 0 0 2 0 0 4 0 0 6 0 0 0 0 0 0 0 0 3 0 0 0 0 0 0 0 0 
1 0 0 4 0 0 4 0 0 4 0 0 1 0 0 1 0 0 2 0 0 3 0 0 2 0 0 18 0 0 1043 0 0 2082 0 0 2141 0 0 2039 0 0 2129 0 0 2105 0 0 2064 0 0 2120 0 0 2081 0 0 2094 0 0 2048 0 0 2105 0 0 2178 0 0 2163 0 0 2086 0 0 2113 0 0 2115 0 0 2189 0 0 2136 0 0 2091 0 0 2186 0 0 2133 0 0 2095 0 0 2093 0 0 2059 0 0 2088 0 0 2100 0 0 2076 0 0 2139 0 0 2115 0 0 2063 0 0 2009 0 0 2152 0 0 2152 0 0 2123 0 0 2077 0 0 2063 0 0 2102 0 0 2127 0 0 2125 0 0 1069 0 0 23 0 0 7 0 0 4 0 0 1 0 0 2 0 0 3 0 0 0 0 0 0 0 0 0 0 0 
1 0 0 3 0 0 5 0 0 1 0 0 3 0 0 3 0 0 0 0 0 2 0 0 0 0 0 7 0 0 25 0 0 34 0 0 28 0 0 28 0 0 33 0 0 30 0 0 33 0 0 28 0 0 33 0 0 27 0 0 30 0 0 35 0 0 31 0 0 29 0 0 33 0 0 33 0 0 30 0 0 36 0 0 45 0 0 31 0 0 24 0 0 34 0 0 31 0 0 34 0 0 33 0 0 36 0 0 36 0 0 32 0 0 38 0 0 29 0 0 26 0 0 31 0 0 35 0 0 35 0 0 33 0 0 32 0 0 35 0 0 29 0 0 33 0 0 37 0 0 18 0 0 4 0 0 3 0 0 5 0 0 4 0 0 2 0 0 2 0 0 1 0 0 0 0 0 0 0 0 
1 0 0 3 0 0 3 0 0 0 0 0 2 0 0 0 0 0 1 0 0 0 0 0 1 0 0 3 0 0 7 0 0 3 0 0 2 0 0 7 0 0 6 0 0 10 0 0 8 0 0 2 0 0 3 0 0 2 0 0 4 0 0 6 0 0 6 0 0 8 0 0 4 0 0 5 0 0 10 0 0 7 0 0 10 0 0 5 0 0 9 0 0 4 0 0 5 0 0 6 0 0 10 0 0 7 0 0 9 0 0 7 0 0 8 0 0 5 0 0 7 0 0 6 0 0 5 0 0 5 0 0 0 0 0 4 0 0 7 0 0 4 0 0 3 0 0 5 0 0 3 0 0 1 0 0 0 0 0 1 0 0 4 0 0 4 0 0 3 0 0 2 0 0 1 0 0 0 0 0 
0 0 0 1 0 0 5 0 0 4 0 0 3 0 0 1 0 0 1 0 0 1 0 0 3 0 0 4 0 0 2 0 0 4 0 0 2 0 0 8 0 0 5 0 0 7 0 0 4 0 0 2 0 0 2 0 0 3 0 0 6 0 0 2 0 0 4 0 0 6 0 0 4 0 0 6 0 0 8 0 0 9 0 0 6 0 0 4 0 0 5 0 0 5 0 0 6 0 0 8 0 0 3 0 0 5 0 0 3 0 0 11 0 0 8 0 0 5 0 0 7 0 0 6 0 0 6 0 0 4 0 0 2 0 0 1 0 0 6 0 0 0 0 0 1 0 0 2 0 0 1 0 0 1 0 0 2 0 0 2 0 0 1 0 0 3 0 0 6 0 0 3 0 0 2 0 0 3 0 0 
1 0 0 2 0 0 1 0 0 3 0 0 3 0 0 1 0 0 3 0 0 0 0 0 4 0 0 1 0 0 2 0 0 0 0 0 5 0 0 4 0 0 2 0 0 2 0 0 1 0 0 2 0 0 2 0 0 1 0 0 1 0 0 4 0 0 6 0 0 3 0 0 2 0 0 7 0 0 3 0 0 10 0 0 3 0 0 3 0 0 6 0 0 2 0 0 2 0 0 5 0 0 2 0 0 6 0 0 9 0 0 4 0 0 5 0 0 3 0 0 1 0 0 2 0 0 11 0 0 4 0 0 6 0 0 2 0 0 3 0 0 1 0 0 1 0 0 4 0 0 2 0 0 0 0 0 2 0 0 4 0 0 1 0 0 0 0 0 2 0 0 1 0 0 0 0 0 0 0 0 
0 0 0 0 0 0 0 0 0 1 0 0 2 0 0 2 0 0 2 0 0 1 0 0 2 0 0 4 0 0 1 0 0 5 0 0 2 0 0 2 0 0 1 0 0 0 0 0 2 0 0 5 0 0 3 0 0 2 0 0 0 0 0 6 0 0 4 0 0 1 0 0 1 0 0 4 0 0 3 0 0 6 0 0 5 0 0 3 0 0 1 0 0 3 0 0 1 0 0 7 0 0 4 0 0 3 0 0 4 0 0 3 0 0 3 0 0 5 0 0 9 0 0 5 0 0 4 0 0 1 0 0 4 0 0 4 0 0 1 0 0 0 0 0 4 0 0 1 0 0 3 0 0 1 0 0 2 0 0 2 0 0 0 0 0 3 0 0 1 0 0 2 0 0 0 0 0 0 0 0 
0 0 0 2 0 0 2 0 0 3 0 0 0 0 0 0 0 0 0 0 0 0 0 0 2 0 0 0 0 0 1 0 0 2 0 0 0 0 0 2 0 0 3 0 0 4 0 0 3 0 0 0 0 0 3 0 0 0 0 0 0 0 0 5 0 0 2 0 0 1 0 0 3 0 0 1 0 0 1 0 0 4 0 0 3 0 0 2 0 0 6 0 0 2 0 0 1 0 0 2 0 0 3 0 0 3 0 0 1 0 0 2 0 0 3 0 0 3 0 0 6 0 0 3 0 0 2 0 0 0 0 0 1 0 0 1 0 0 2 0 0 3 0 0 2 0 0 2 0 0 2 0 0 0 0 0 0 0 0 0 0 0 0 0 0 0 0 0 0 0 0 2 0 0 2 0 0 0 0 0 
0 0 0 1 0 0 1 0 0 0 0 0 0 0 0 0 0 0 0 0 0 1 0 0 0 0 0 1 0 0 2 0 0 1 0 0 2 0 0 3 0 0 0 0 0 3 0 0 2 0 0 0 0 0 1 0 0 0 0 0 0 0 0 3 0 0 1 0 0 4 0 0 0 0 0 0 0 0 1 0 0 5 0 0 5 0 0 3 0 0 2 0 0 0 0 0 1 0 0 1 0 0 4 0 0 4 0 0 2 0 0 4 0 0 1 0 0 0 0 0 3 0 0 2 0 0 1 0 0 0 0 0 0 0 0 3 0 0 0 0 0 3 0 0 2 0 0 3 0 0 1 0 0 1 0 0 0 0 0 2 0 0 1 0 0 0 0 0 0 0 0 0 0 0 2 0 0 2 0 0 
0 0 0 0 0 0 0 0 0 0 0 0 1 0 0 2 0 0 0 0 0 0 0 0 1 0 0 3 0 0 2 0 0 2 0 0 1 0 0 1 0 0 1 0 0 1 0 0 2 0 0 2 0 0 2 0 0 2 0 0 1 0 0 2 0 0 0 0 0 4 0 0 2 0 0 0 0 0 2 0 0 3 0 0 3 0 0 3 0 0 1 0 0 1 0 0 3 0 0 1 0 0 4 0 0 0 0 0 2 0 0 6 0 0 2 0 0 0 0 0 5 0 0 4 0 0 1 0 0 0 0 0 0 0 0 3 0 0 1 0 0 4 0 0 2 0 0 2 0 0 1 0 0 0 0 0 2 0 0 3 0 0 0 0 0 0 0 0 0 0 0 0 0 0 1 0 0 2 0 0 
0 0 0 0 0 0 1 0 0 0 0 0 1 0 0 0 0 0 1 0 0 2 0 0 2 0 0 0 0 0 4 0 0 2 0 0 0 0 0 1 0 0 1 0 0 0 0 0 1 0 0 2 0 0 0 0 0 0 0 0 4 0 0 3 0 0 1 0 0 2 0 0 2 0 0 0 0 0 0 0 0 3 0 0 1 0 0 4 0 0 1 0 0 2 0 0 0 0 0 2 0 0 0 0 0 1 0 0 1 0 0 1 0 0 2 0 0 1 0 0 3 0 0 4 0 0 1 0 0 2 0 0 0 0 0 2 0 0 0 0 0 2 0 0 3 0 0 2 0 0 2 0 0 0 0 0 3 0 0 3 0 0 0 0 0 0 0 0 0 0 0 0 0 0 0 0 0 0 0 0 
