P3
# This is a dose file slice at depth 92 of 100
60 60
# now we give the maximum value of the RGB coordinates.
22407
0 0 0 0 0 0 0 0 0 0 0 0 0 0 0 0 0 0 0 0 0 0 0 0 0 0 0 0 0 0 0 0 0 0 0 0 0 0 0 0 0 0 0 0 0 0 0 0 0 0 0 0 0 0 0 0 0 0 0 0 0 0 0 0 0 0 0 0 0 0 0 0 0 0 0 0 0 0 0 0 0 0 0 0 0 0 0 0 0 0 0 0 0 0 0 0 0 0 0 0 0 0 0 0 0 0 0 0 0 0 0 0 0 0 0 0 0 0 0 0 0 0 0 0 0 0 0 0 0 0 0 0 0 0 0 0 0 0 0 0 0 0 0 0 0 0 0 0 0 0 0 0 0 0 0 0 0 0 0 0 0 0 0 0 0 0 0 0 0 0 0 0 0 0 0 0 0 0 0 0 
0 0 0 0 0 0 0 0 0 0 0 0 0 0 0 0 0 0 0 0 0 0 0 0 0 0 0 0 0 0 0 0 0 0 0 0 0 0 0 0 0 0 0 0 0 0 0 0 0 0 0 0 0 0 0 0 0 0 0 0 0 0 0 0 0 0 0 0 0 0 0 0 0 0 0 0 0 0 0 0 0 0 0 0 0 0 0 0 0 0 0 0 0 0 0 0 0 0 0 0 0 0 0 0 0 0 0 0 0 0 0 0 0 0 0 0 0 0 0 0 0 0 0 0 0 0 0 0 0 0 0 0 0 0 0 0 0 0 0 0 0 0 0 0 0 0 0 0 0 0 0 0 0 0 0 0 0 0 0 0 0 0 0 0 0 0 0 0 0 0 0 0 0 0 0 0 0 0 0 0 
0 0 0 0 0 0 0 0 0 0 0 0 0 0 0 0 0 0 0 0 0 0 0 0 0 0 0 0 0 0 0 0 0 0 0 0 0 0 0 0 0 0 0 0 0 0 0 0 0 0 0 0 0 0 0 0 0 0 0 0 0 0 0 0 0 0 0 0 0 0 0 0 0 0 0 0 0 0 0 0 0 0 0 0 0 0 0 0 0 0 0 0 0 0 0 0 0 0 0 0 0 0 0 0 0 0 0 0 0 0 0 0 0 0 0 0 0 0 0 0 0 0 0 0 0 0 0 0 0 0 0 0 0 0 0 0 0 0 0 0 0 0 0 0 0 0 0 0 0 0 0 0 0 0 0 0 0 0 0 0 0 0 0 0 0 0 0 0 0 0 0 0 0 0 0 0 0 0 0 0 
0 0 0 0 0 0 0 0 0 0 0 0 0 0 0 0 0 0 0 0 0 0 0 0 0 0 0 0 0 0 0 0 0 0 0 0 0 0 0 0 0 0 0 0 0 0 0 0 0 0 0 0 0 0 0 0 0 0 0 0 0 0 0 0 0 0 0 0 0 0 0 0 0 0 0 0 0 0 0 0 0 0 0 0 0 0 0 0 0 0 0 0 0 0 0 0 0 0 0 0 0 0 0 0 0 0 0 0 0 0 0 0 0 0 0 0 0 0 0 0 0 0 0 0 0 0 0 0 0 0 0 0 0 0 0 0 0 0 0 0 0 0 0 0 0 0 0 0 0 0 0 0 0 0 0 0 0 0 0 0 0 0 0 0 0 0 0 0 0 0 0 0 0 0 0 0 0 0 0 0 
0 0 0 0 0 0 0 0 0 0 0 0 0 0 0 0 0 0 0 0 0 0 0 0 0 0 0 0 0 0 0 0 0 0 0 0 0 0 0 0 0 0 0 0 0 0 0 0 0 0 0 0 0 0 0 0 0 0 0 0 0 0 0 0 0 0 0 0 0 0 0 0 0 0 0 0 0 0 0 0 0 0 0 0 0 0 0 0 0 0 0 0 0 0 0 0 0 0 0 0 0 0 0 0 0 0 0 0 0 0 0 0 0 0 0 0 0 0 0 0 0 0 0 0 0 0 0 0 0 0 0 0 0 0 0 0 0 0 0 0 0 0 0 0 0 0 0 0 0 0 0 0 0 0 0 0 0 0 0 0 0 0 0 0 0 0 0 0 0 0 0 0 0 0 0 0 0 0 0 0 
0 0 0 0 0 0 0 0 0 0 0 0 0 0 0 0 0 0 0 0 0 0 0 0 0 0 0 0 0 0 0 0 0 0 0 0 0 0 0 0 0 0 0 0 0 0 0 0 0 0 0 0 0 0 0 0 0 0 0 0 0 0 0 0 0 0 0 0 0 0 0 0 0 0 0 0 0 0 0 0 0 0 0 0 0 0 0 0 0 0 0 0 0 0 0 0 0 0 0 0 0 0 0 0 0 0 0 0 0 0 0 0 0 0 0 0 0 0 0 0 0 0 0 0 0 0 0 0 0 0 0 0 0 0 0 0 0 0 0 0 0 0 0 0 0 0 0 0 0 0 0 0 0 0 0 0 0 0 0 0 0 0 0 0 0 0 0 0 0 0 0 0 0 0 0 0 0 0 0 0 
0 0 0 0 0 0 0 0 0 0 0 0 0 0 0 0 0 0 0 0 0 0 0 0 0 0 0 0 0 0 0 0 0 0 0 0 0 0 0 0 0 0 0 0 0 0 0 0 0 0 0 0 0 0 0 0 0 0 0 0 0 0 0 0 0 0 0 0 0 0 0 0 0 0 0 0 0 0 0 0 0 0 0 0 0 0 0 0 0 0 0 0 0 0 0 0 0 0 0 0 0 0 0 0 0 0 0 0 0 0 0 0 0 0 0 0 0 0 0 0 0 0 0 0 0 0 0 0 0 0 0 0 0 0 0 0 0 0 0 0 0 0 0 0 0 0 0 0 0 0 0 0 0 0 0 0 0 0 0 0 0 0 0 0 0 0 0 0 0 0 0 0 0 0 0 0 0 0 0 0 
0 0 0 0 0 0 0 0 0 0 0 0 0 0 0 0 0 0 0 0 0 0 0 0 0 0 0 0 0 0 0 0 0 0 0 0 0 0 0 0 0 0 0 0 0 0 0 0 0 0 0 0 0 0 0 0 0 0 0 0 0 0 0 0 0 0 0 0 0 0 0 0 0 0 0 0 0 0 0 0 0 0 0 0 0 0 0 0 0 0 0 0 0 0 0 0 0 0 0 0 0 0 0 0 0 0 0 0 0 0 0 0 0 0 0 0 0 0 0 0 0 0 0 0 0 0 0 0 0 0 0 0 0 0 0 0 0 0 0 0 0 0 0 0 0 0 0 0 0 0 0 0 0 0 0 0 0 0 0 0 0 0 0 0 0 0 0 0 0 0 0 0 0 0 0 0 0 0 0 0 
0 0 0 0 0 0 0 0 0 0 0 0 0 0 0 0 0 0 0 0 0 0 0 0 0 0 0 0 0 0 0 0 0 0 0 0 0 0 0 0 0 0 0 0 0 0 0 0 0 0 0 0 0 0 0 0 0 0 0 0 0 0 0 0 0 0 0 0 0 0 0 0 0 0 0 0 0 0 0 0 0 0 0 0 0 0 0 0 0 0 0 0 0 0 0 0 0 0 0 0 0 0 0 0 0 0 0 0 0 0 0 0 0 0 0 0 0 0 0 0 0 0 0 0 0 0 0 0 0 0 0 0 0 0 0 0 0 0 0 0 0 0 0 0 0 0 0 0 0 0 0 0 0 0 0 0 0 0 0 0 0 0 0 0 0 0 0 0 0 0 0 0 0 0 0 0 0 0 0 0 
0 0 0 0 0 0 0 0 0 0 0 0 0 0 0 0 0 0 0 0 0 0 0 0 0 0 0 0 0 0 0 0 0 0 0 0 0 0 0 0 0 0 0 0 0 0 0 0 0 0 0 0 0 0 0 0 0 0 0 0 0 0 0 0 0 0 0 0 0 0 0 0 0 0 0 0 0 0 0 0 0 0 0 0 0 0 0 0 0 0 0 0 0 0 0 0 0 0 0 0 0 0 0 0 0 0 0 0 0 0 0 0 0 0 0 0 0 0 0 0 0 0 0 0 0 0 0 0 0 0 0 0 0 0 0 0 0 0 0 0 0 0 0 0 0 0 0 0 0 0 0 0 0 0 0 0 0 0 0 0 0 0 0 0 0 0 0 0 0 0 0 0 0 0 0 0 0 0 0 0 
0 0 0 0 0 0 0 0 0 0 0 0 0 0 0 0 0 0 0 0 0 0 0 0 0 0 0 0 0 0 464 0 0 858 0 0 853 0 0 885 0 0 880 0 0 814 0 0 858 0 0 859 0 0 847 0 0 886 0 0 925 0 0 859 0 0 902 0 0 849 0 0 922 0 0 878 0 0 852 0 0 853 0 0 862 0 0 893 0 0 876 0 0 865 0 0 895 0 0 901 0 0 863 0 0 790 0 0 893 0 0 831 0 0 904 0 0 857 0 0 855 0 0 869 0 0 932 0 0 856 0 0 845 0 0 891 0 0 871 0 0 861 0 0 843 0 0 868 0 0 476 0 0 0 0 0 0 0 0 0 0 0 0 0 0 0 0 0 0 0 0 0 0 0 0 0 0 0 0 0 
0 0 0 0 0 0 0 0 0 0 0 0 0 0 0 0 0 0 0 0 0 0 0 0 0 0 0 0 0 0 899 0 0 1733 0 0 1703 0 0 1741 0 0 1725 0 0 1743 0 0 1734 0 0 1836 0 0 1721 0 0 1733 0 0 1762 0 0 1709 0 0 1807 0 0 1778 0 0 1738 0 0 1749 0 0 1775 0 0 1717 0 0 1740 0 0 1840 0 0 1757 0 0 1712 0 0 1712 0 0 1710 0 0 1703 0 0 1726 0 0 1634 0 0 1645 0 0 1709 0 0 1799 0 0 1726 0 0 1762 0 0 1750 0 0 1810 0 0 1705 0 0 1769 0 0 1754 0 0 1674 0 0 1698 0 0 1737 0 0 829 0 0 0 0 0 0 0 0 0 0 0 0 0 0 0 0 0 0 0 0 0 0 0 0 0 0 0 0 0 
0 0 0 0 0 0 0 0 0 0 0 0 0 0 0 0 0 0 0 0 0 0 0 0 0 0 0 0 0 0 851 0 0 1706 0 0 1754 0 0 1769 0 0 1724 0 0 1756 0 0 1741 0 0 1724 0 0 1724 0 0 1726 0 0 1836 0 0 1746 0 0 1728 0 0 1779 0 0 1714 0 0 1724 0 0 1725 0 0 1746 0 0 1748 0 0 1689 0 0 1811 0 0 1728 0 0 1755 0 0 1731 0 0 1706 0 0 1719 0 0 1669 0 0 1753 0 0 1680 0 0 1713 0 0 1665 0 0 1808 0 0 1744 0 0 1776 0 0 1701 0 0 1648 0 0 1687 0 0 1727 0 0 1819 0 0 1691 0 0 846 0 0 0 0 0 0 0 0 0 0 0 0 0 0 0 0 0 0 0 0 0 0 0 0 0 0 0 0 0 
0 0 0 0 0 0 0 0 0 0 0 0 0 0 0 0 0 0 0 0 0 0 0 0 0 0 0 0 0 0 890 0 0 1739 0 0 1736 0 0 1730 0 0 1795 0 0 1822 0 0 1693 0 0 1815 0 0 1776 0 0 1704 0 0 1752 0 0 1787 0 0 1702 0 0 1667 0 0 1717 0 0 1713 0 0 1753 0 0 1687 0 0 1670 0 0 1733 0 0 1711 0 0 1754 0 0 1785 0 0 1788 0 0 1787 0 0 1758 0 0 1786 0 0 1791 0 0 1671 0 0 1706 0 0 1663 0 0 1822 0 0 1716 0 0 1724 0 0 1719 0 0 1700 0 0 1695 0 0 1754 0 0 1731 0 0 1694 0 0 912 0 0 0 0 0 0 0 0 0 0 0 0 0 0 0 0 0 0 0 0 0 0 0 0 0 0 0 0 0 
0 0 0 0 0 0 0 0 0 0 0 0 0 0 0 0 0 0 0 0 0 0 0 0 0 0 0 0 0 0 846 0 0 1673 0 0 1699 0 0 1634 0 0 1703 0 0 1701 0 0 1766 0 0 1700 0 0 1775 0 0 1687 0 0 1692 0 0 1703 0 0 1759 0 0 1723 0 0 1724 0 0 1738 0 0 1796 0 0 1791 0 0 1803 0 0 1715 0 0 1813 0 0 1806 0 0 1774 0 0 1678 0 0 1686 0 0 1752 0 0 1719 0 0 1827 0 0 1784 0 0 1652 0 0 1729 0 0 1766 0 0 1734 0 0 1719 0 0 1707 0 0 1805 0 0 1806 0 0 1747 0 0 1724 0 0 1642 0 0 871 0 0 0 0 0 0 0 0 0 0 0 0 0 0 0 0 0 0 0 0 0 0 0 0 0 0 0 0 0 
0 0 0 0 0 0 0 0 0 0 0 0 0 0 0 0 0 0 0 0 0 0 0 0 0 0 0 0 0 0 871 0 0 1737 0 0 1757 0 0 1719 0 0 1728 0 0 1719 0 0 1774 0 0 1769 0 0 1785 0 0 1700 0 0 1768 0 0 1719 0 0 1752 0 0 1732 0 0 1805 0 0 1756 0 0 1716 0 0 1750 0 0 1703 0 0 1783 0 0 1736 0 0 1756 0 0 1772 0 0 1720 0 0 1814 0 0 1716 0 0 1676 0 0 1679 0 0 1718 0 0 1661 0 0 1704 0 0 1665 0 0 1720 0 0 1791 0 0 1667 0 0 1739 0 0 1719 0 0 1696 0 0 1734 0 0 1813 0 0 870 0 0 0 0 0 0 0 0 0 0 0 0 0 0 0 0 0 0 0 0 0 0 0 0 0 0 0 0 0 
0 0 0 0 0 0 0 0 0 0 0 0 0 0 0 0 0 0 0 0 0 0 0 0 0 0 0 0 0 0 829 0 0 1752 0 0 1668 0 0 1725 0 0 1739 0 0 1655 0 0 1825 0 0 1704 0 0 1739 0 0 1688 0 0 1813 0 0 1748 0 0 1761 0 0 1680 0 0 1762 0 0 1738 0 0 1685 0 0 1781 0 0 1748 0 0 1769 0 0 1704 0 0 1701 0 0 1758 0 0 1738 0 0 1789 0 0 1800 0 0 1773 0 0 1756 0 0 1656 0 0 1702 0 0 1743 0 0 1722 0 0 1702 0 0 1746 0 0 1754 0 0 1750 0 0 1716 0 0 1724 0 0 1762 0 0 1753 0 0 893 0 0 0 0 0 0 0 0 0 0 0 0 0 0 0 0 0 0 0 0 0 0 0 0 0 0 0 0 0 
0 0 0 0 0 0 0 0 0 0 0 0 0 0 0 0 0 0 0 0 0 0 0 0 0 0 0 0 0 0 840 0 0 1805 0 0 1731 0 0 1765 0 0 1642 0 0 1744 0 0 1672 0 0 1850 0 0 1702 0 0 1751 0 0 1796 0 0 1807 0 0 1740 0 0 1723 0 0 1738 0 0 1648 0 0 1743 0 0 1705 0 0 1720 0 0 1744 0 0 1728 0 0 1688 0 0 1750 0 0 1753 0 0 1632 0 0 1762 0 0 1733 0 0 1716 0 0 1743 0 0 1712 0 0 1737 0 0 1620 0 0 1740 0 0 1746 0 0 1735 0 0 1685 0 0 1734 0 0 1738 0 0 1748 0 0 1679 0 0 863 0 0 0 0 0 0 0 0 0 0 0 0 0 0 0 0 0 0 0 0 0 0 0 0 0 0 0 0 0 
0 0 0 0 0 0 0 0 0 0 0 0 0 0 0 0 0 0 0 0 0 0 0 0 0 0 0 0 0 0 806 0 0 1709 0 0 1695 0 0 1771 0 0 1738 0 0 1721 0 0 1734 0 0 1794 0 0 1759 0 0 1619 0 0 1771 0 0 1666 0 0 1769 0 0 1759 0 0 1684 0 0 1751 0 0 1770 0 0 1711 0 0 1723 0 0 1800 0 0 1724 0 0 1746 0 0 1718 0 0 1745 0 0 1672 0 0 1633 0 0 1800 0 0 1737 0 0 1736 0 0 1720 0 0 1738 0 0 1741 0 0 1664 0 0 1755 0 0 1699 0 0 1662 0 0 1669 0 0 1746 0 0 1713 0 0 1721 0 0 879 0 0 0 0 0 0 0 0 0 0 0 0 0 0 0 0 0 0 0 0 0 0 0 0 0 0 0 0 0 
0 0 0 0 0 0 0 0 0 0 0 0 0 0 0 0 0 0 0 0 0 0 0 0 0 0 0 0 0 0 894 0 0 1771 0 0 1737 0 0 1802 0 0 1708 0 0 1724 0 0 1735 0 0 1733 0 0 1761 0 0 1715 0 0 1738 0 0 1760 0 0 1729 0 0 1818 0 0 1725 0 0 1736 0 0 1669 0 0 1747 0 0 1735 0 0 1774 0 0 1733 0 0 1746 0 0 1715 0 0 1675 0 0 1722 0 0 1770 0 0 1739 0 0 1752 0 0 1784 0 0 1715 0 0 1721 0 0 1666 0 0 1680 0 0 1768 0 0 1754 0 0 1706 0 0 1676 0 0 1787 0 0 1780 0 0 1736 0 0 869 0 0 0 0 0 0 0 0 0 0 0 0 0 0 0 0 0 0 0 0 0 0 0 0 0 0 0 0 0 
0 0 0 0 0 0 0 0 0 0 0 0 0 0 0 0 0 0 0 0 0 0 0 0 0 0 0 0 0 0 840 0 0 1823 0 0 1753 0 0 1729 0 0 1764 0 0 1833 0 0 1732 0 0 1695 0 0 1691 0 0 1723 0 0 1693 0 0 1735 0 0 1760 0 0 1744 0 0 1697 0 0 1721 0 0 1682 0 0 1732 0 0 1835 0 0 1689 0 0 1778 0 0 1718 0 0 1671 0 0 1742 0 0 1689 0 0 1631 0 0 1756 0 0 1697 0 0 1773 0 0 1718 0 0 1730 0 0 1662 0 0 1684 0 0 1639 0 0 1790 0 0 1791 0 0 1769 0 0 1750 0 0 1794 0 0 1759 0 0 887 0 0 0 0 0 0 0 0 0 0 0 0 0 0 0 0 0 0 0 0 0 0 0 0 0 0 0 0 0 
0 0 0 0 0 0 0 0 0 0 0 0 0 0 0 0 0 0 0 0 0 0 0 0 0 0 0 0 0 0 870 0 0 1668 0 0 1750 0 0 1766 0 0 1672 0 0 1807 0 0 1708 0 0 1772 0 0 1752 0 0 1721 0 0 1731 0 0 1728 0 0 1707 0 0 1618 0 0 1756 0 0 1755 0 0 1766 0 0 1769 0 0 1704 0 0 1748 0 0 1780 0 0 1721 0 0 1727 0 0 1730 0 0 1730 0 0 1753 0 0 1696 0 0 1674 0 0 1721 0 0 1799 0 0 1754 0 0 1803 0 0 1751 0 0 1758 0 0 1749 0 0 1618 0 0 1696 0 0 1732 0 0 1736 0 0 1735 0 0 849 0 0 0 0 0 0 0 0 0 0 0 0 0 0 0 0 0 0 0 0 0 0 0 0 0 0 0 0 0 
0 0 0 0 0 0 0 0 0 0 0 0 0 0 0 0 0 0 0 0 0 0 0 0 0 0 0 0 0 0 837 0 0 1735 0 0 1764 0 0 1762 0 0 1748 0 0 1717 0 0 1718 0 0 1762 0 0 1722 0 0 1740 0 0 1736 0 0 1828 0 0 1706 0 0 1732 0 0 1734 0 0 1764 0 0 1703 0 0 1694 0 0 1675 0 0 1783 0 0 1762 0 0 1642 0 0 1722 0 0 1769 0 0 1713 0 0 1710 0 0 1722 0 0 1689 0 0 1773 0 0 1722 0 0 1724 0 0 1756 0 0 1713 0 0 1814 0 0 1721 0 0 1770 0 0 1702 0 0 1728 0 0 1714 0 0 1758 0 0 860 0 0 0 0 0 0 0 0 0 0 0 0 0 0 0 0 0 0 0 0 0 0 0 0 0 0 0 0 0 
0 0 0 0 0 0 0 0 0 0 0 0 0 0 0 0 0 0 0 0 0 0 0 0 0 0 0 0 0 0 862 0 0 1677 0 0 1661 0 0 1730 0 0 1719 0 0 1702 0 0 1719 0 0 1752 0 0 1771 0 0 1715 0 0 1706 0 0 1705 0 0 1711 0 0 1795 0 0 1777 0 0 1688 0 0 1753 0 0 1663 0 0 1701 0 0 1738 0 0 1769 0 0 1692 0 0 1670 0 0 1716 0 0 1723 0 0 1715 0 0 1734 0 0 1698 0 0 1636 0 0 1679 0 0 1707 0 0 1763 0 0 1732 0 0 1689 0 0 1741 0 0 1776 0 0 1764 0 0 1720 0 0 1749 0 0 1760 0 0 916 0 0 0 0 0 0 0 0 0 0 0 0 0 0 0 0 0 0 0 0 0 0 0 0 0 0 0 0 0 
0 0 0 0 0 0 0 0 0 0 0 0 0 0 0 0 0 0 0 0 0 0 0 0 0 0 0 0 0 0 845 0 0 1744 0 0 1653 0 0 1788 0 0 1764 0 0 1667 0 0 1716 0 0 1685 0 0 1743 0 0 1671 0 0 1695 0 0 1782 0 0 1697 0 0 1796 0 0 1711 0 0 1752 0 0 1823 0 0 1749 0 0 1783 0 0 1696 0 0 1732 0 0 1681 0 0 1688 0 0 1757 0 0 1713 0 0 1822 0 0 1725 0 0 1820 0 0 1743 0 0 1726 0 0 1662 0 0 1801 0 0 1707 0 0 1685 0 0 1819 0 0 1687 0 0 1787 0 0 1770 0 0 1661 0 0 1703 0 0 883 0 0 0 0 0 0 0 0 0 0 0 0 0 0 0 0 0 0 0 0 0 0 0 0 0 0 0 0 0 
0 0 0 0 0 0 0 0 0 0 0 0 0 0 0 0 0 0 0 0 0 0 0 0 0 0 0 0 0 0 891 0 0 1766 0 0 1723 0 0 1764 0 0 1745 0 0 1764 0 0 1730 0 0 1708 0 0 1750 0 0 1777 0 0 1653 0 0 1703 0 0 1727 0 0 1705 0 0 1729 0 0 1845 0 0 1697 0 0 1699 0 0 1722 0 0 1673 0 0 1692 0 0 1696 0 0 1714 0 0 1783 0 0 1779 0 0 1763 0 0 1794 0 0 1746 0 0 1713 0 0 1692 0 0 1688 0 0 1754 0 0 1698 0 0 1820 0 0 1758 0 0 1724 0 0 1808 0 0 1769 0 0 1686 0 0 1786 0 0 891 0 0 0 0 0 0 0 0 0 0 0 0 0 0 0 0 0 0 0 0 0 0 0 0 0 0 0 0 0 
0 0 0 0 0 0 0 0 0 0 0 0 0 0 0 0 0 0 0 0 0 0 0 0 0 0 0 0 0 0 872 0 0 1685 0 0 1731 0 0 1738 0 0 1758 0 0 1758 0 0 1790 0 0 1723 0 0 1772 0 0 1728 0 0 1679 0 0 1760 0 0 1797 0 0 1723 0 0 1670 0 0 1782 0 0 1744 0 0 1700 0 0 1787 0 0 1709 0 0 1747 0 0 1760 0 0 1660 0 0 1731 0 0 1673 0 0 1707 0 0 1795 0 0 1709 0 0 1718 0 0 1724 0 0 1752 0 0 1797 0 0 1760 0 0 1744 0 0 1725 0 0 1735 0 0 1705 0 0 1707 0 0 1729 0 0 1785 0 0 845 0 0 0 0 0 0 0 0 0 0 0 0 0 0 0 0 0 0 0 0 0 0 0 0 0 0 0 0 0 
0 0 0 0 0 0 0 0 0 0 0 0 0 0 0 0 0 0 0 0 0 0 0 0 0 0 0 0 0 0 840 0 0 1691 0 0 1735 0 0 1725 0 0 1819 0 0 1808 0 0 1811 0 0 1708 0 0 1670 0 0 1787 0 0 1729 0 0 1710 0 0 1688 0 0 1770 0 0 1703 0 0 1694 0 0 1672 0 0 1703 0 0 1755 0 0 1676 0 0 1764 0 0 1733 0 0 1753 0 0 1803 0 0 1719 0 0 1723 0 0 1753 0 0 1734 0 0 1828 0 0 1784 0 0 1818 0 0 1745 0 0 1746 0 0 1802 0 0 1729 0 0 1799 0 0 1749 0 0 1727 0 0 1713 0 0 1737 0 0 815 0 0 0 0 0 0 0 0 0 0 0 0 0 0 0 0 0 0 0 0 0 0 0 0 0 0 0 0 0 
0 0 0 0 0 0 0 0 0 0 0 0 0 0 0 0 0 0 0 0 0 0 0 0 0 0 0 0 0 0 856 0 0 1693 0 0 1755 0 0 1768 0 0 1793 0 0 1827 0 0 1736 0 0 1739 0 0 1746 0 0 1704 0 0 1681 0 0 1694 0 0 1719 0 0 1707 0 0 1728 0 0 1713 0 0 1722 0 0 1704 0 0 1755 0 0 1811 0 0 1673 0 0 1664 0 0 1769 0 0 1680 0 0 1680 0 0 1767 0 0 1729 0 0 1756 0 0 1738 0 0 1688 0 0 1746 0 0 1658 0 0 1708 0 0 1713 0 0 1729 0 0 1756 0 0 1688 0 0 1773 0 0 1678 0 0 1684 0 0 897 0 0 0 0 0 0 0 0 0 0 0 0 0 0 0 0 0 0 0 0 0 0 0 0 0 0 0 0 0 
0 0 0 0 0 0 0 0 0 0 0 0 0 0 0 0 0 0 0 0 0 0 0 0 0 0 0 0 0 0 837 0 0 1646 0 0 1742 0 0 1799 0 0 1665 0 0 1735 0 0 1711 0 0 1669 0 0 1720 0 0 1758 0 0 1797 0 0 1768 0 0 1761 0 0 1695 0 0 1718 0 0 1745 0 0 1751 0 0 1765 0 0 1748 0 0 1709 0 0 1781 0 0 1792 0 0 1842 0 0 1712 0 0 1785 0 0 1720 0 0 1770 0 0 1838 0 0 1759 0 0 1762 0 0 1775 0 0 1754 0 0 1774 0 0 1684 0 0 1839 0 0 1751 0 0 1762 0 0 1791 0 0 1753 0 0 1705 0 0 841 0 0 0 0 0 0 0 0 0 0 0 0 0 0 0 0 0 0 0 0 0 0 0 0 0 0 0 0 0 
0 0 0 0 0 0 0 0 0 0 0 0 0 0 0 0 0 0 0 0 0 0 0 0 0 0 0 0 0 0 825 0 0 1758 0 0 1758 0 0 1728 0 0 1734 0 0 1689 0 0 1681 0 0 1649 0 0 1807 0 0 1760 0 0 1706 0 0 1762 0 0 1756 0 0 1737 0 0 1770 0 0 1727 0 0 1800 0 0 1767 0 0 1670 0 0 1688 0 0 1675 0 0 1751 0 0 1781 0 0 1773 0 0 1715 0 0 1779 0 0 1710 0 0 1744 0 0 1648 0 0 1669 0 0 1660 0 0 1752 0 0 1777 0 0 1698 0 0 1746 0 0 1696 0 0 1769 0 0 1773 0 0 1768 0 0 1605 0 0 891 0 0 0 0 0 0 0 0 0 0 0 0 0 0 0 0 0 0 0 0 0 0 0 0 0 0 0 0 0 
0 0 0 0 0 0 0 0 0 0 0 0 0 0 0 0 0 0 0 0 0 0 0 0 0 0 0 0 0 0 981 0 0 1719 0 0 1832 0 0 1723 0 0 1711 0 0 1814 0 0 1741 0 0 1754 0 0 1616 0 0 1688 0 0 1649 0 0 1701 0 0 1732 0 0 1729 0 0 1699 0 0 1765 0 0 1690 0 0 1771 0 0 1797 0 0 1736 0 0 1765 0 0 1798 0 0 1760 0 0 1688 0 0 1702 0 0 1759 0 0 1739 0 0 1694 0 0 1737 0 0 1658 0 0 1763 0 0 1652 0 0 1729 0 0 1721 0 0 1740 0 0 1731 0 0 1694 0 0 1745 0 0 1782 0 0 1747 0 0 904 0 0 0 0 0 0 0 0 0 0 0 0 0 0 0 0 0 0 0 0 0 0 0 0 0 0 0 0 0 
0 0 0 0 0 0 0 0 0 0 0 0 0 0 0 0 0 0 0 0 0 0 0 0 0 0 0 0 0 0 883 0 0 1689 0 0 1702 0 0 1712 0 0 1814 0 0 1762 0 0 1745 0 0 1704 0 0 1829 0 0 1729 0 0 1739 0 0 1748 0 0 1723 0 0 1745 0 0 1689 0 0 1764 0 0 1732 0 0 1755 0 0 1692 0 0 1711 0 0 1726 0 0 1821 0 0 1715 0 0 1739 0 0 1729 0 0 1746 0 0 1756 0 0 1758 0 0 1682 0 0 1730 0 0 1710 0 0 1744 0 0 1732 0 0 1715 0 0 1721 0 0 1713 0 0 1715 0 0 1761 0 0 1733 0 0 1746 0 0 847 0 0 0 0 0 0 0 0 0 0 0 0 0 0 0 0 0 0 0 0 0 0 0 0 0 0 0 0 0 
0 0 0 0 0 0 0 0 0 0 0 0 0 0 0 0 0 0 0 0 0 0 0 0 0 0 0 0 0 0 865 0 0 1737 0 0 1770 0 0 1770 0 0 1754 0 0 1810 0 0 1724 0 0 1688 0 0 1704 0 0 1710 0 0 1716 0 0 1741 0 0 1701 0 0 1776 0 0 1669 0 0 1757 0 0 1700 0 0 1744 0 0 1734 0 0 1664 0 0 1772 0 0 1739 0 0 1722 0 0 1670 0 0 1670 0 0 1705 0 0 1686 0 0 1819 0 0 1710 0 0 1729 0 0 1706 0 0 1706 0 0 1693 0 0 1663 0 0 1754 0 0 1705 0 0 1748 0 0 1744 0 0 1669 0 0 1770 0 0 877 0 0 0 0 0 0 0 0 0 0 0 0 0 0 0 0 0 0 0 0 0 0 0 0 0 0 0 0 0 
0 0 0 0 0 0 0 0 0 0 0 0 0 0 0 0 0 0 0 0 0 0 0 0 0 0 0 0 0 0 939 0 0 1713 0 0 1779 0 0 1758 0 0 1775 0 0 1716 0 0 1745 0 0 1709 0 0 1693 0 0 1785 0 0 1774 0 0 1814 0 0 1792 0 0 1742 0 0 1671 0 0 1732 0 0 1679 0 0 1667 0 0 1716 0 0 1745 0 0 1670 0 0 1672 0 0 1746 0 0 1696 0 0 1660 0 0 1727 0 0 1746 0 0 1785 0 0 1738 0 0 1659 0 0 1641 0 0 1826 0 0 1693 0 0 1777 0 0 1700 0 0 1753 0 0 1697 0 0 1745 0 0 1734 0 0 1801 0 0 881 0 0 0 0 0 0 0 0 0 0 0 0 0 0 0 0 0 0 0 0 0 0 0 0 0 0 0 0 0 
0 0 0 0 0 0 0 0 0 0 0 0 0 0 0 0 0 0 0 0 0 0 0 0 0 0 0 0 0 0 901 0 0 1759 0 0 1717 0 0 1697 0 0 1741 0 0 1735 0 0 1740 0 0 1742 0 0 1746 0 0 1760 0 0 1736 0 0 1720 0 0 1712 0 0 1726 0 0 1762 0 0 1693 0 0 1767 0 0 1681 0 0 1751 0 0 1686 0 0 1727 0 0 1700 0 0 1722 0 0 1771 0 0 1816 0 0 1795 0 0 1699 0 0 1741 0 0 1740 0 0 1743 0 0 1685 0 0 1708 0 0 1772 0 0 1769 0 0 1705 0 0 1744 0 0 1784 0 0 1760 0 0 1707 0 0 1856 0 0 897 0 0 0 0 0 0 0 0 0 0 0 0 0 0 0 0 0 0 0 0 0 0 0 0 0 0 0 0 0 
0 0 0 0 0 0 0 0 0 0 0 0 0 0 0 0 0 0 0 0 0 0 0 0 0 0 0 0 0 0 845 0 0 1694 0 0 1727 0 0 1752 0 0 1766 0 0 1717 0 0 1789 0 0 1715 0 0 1655 0 0 1730 0 0 1673 0 0 1707 0 0 1619 0 0 1741 0 0 1760 0 0 1702 0 0 1689 0 0 1760 0 0 1782 0 0 1791 0 0 1753 0 0 1799 0 0 1803 0 0 1831 0 0 1662 0 0 1665 0 0 1791 0 0 1692 0 0 1739 0 0 1766 0 0 1731 0 0 1696 0 0 1768 0 0 1665 0 0 1741 0 0 1781 0 0 1684 0 0 1654 0 0 1837 0 0 1816 0 0 831 0 0 0 0 0 0 0 0 0 0 0 0 0 0 0 0 0 0 0 0 0 0 0 0 0 0 0 0 0 
0 0 0 0 0 0 0 0 0 0 0 0 0 0 0 0 0 0 0 0 0 0 0 0 0 0 0 0 0 0 870 0 0 1753 0 0 1737 0 0 1739 0 0 1702 0 0 1716 0 0 1748 0 0 1775 0 0 1815 0 0 1726 0 0 1756 0 0 1722 0 0 1753 0 0 1706 0 0 1714 0 0 1670 0 0 1730 0 0 1754 0 0 1776 0 0 1752 0 0 1746 0 0 1757 0 0 1749 0 0 1837 0 0 1761 0 0 1741 0 0 1691 0 0 1735 0 0 1727 0 0 1795 0 0 1695 0 0 1665 0 0 1794 0 0 1735 0 0 1846 0 0 1759 0 0 1628 0 0 1764 0 0 1707 0 0 1808 0 0 870 0 0 0 0 0 0 0 0 0 0 0 0 0 0 0 0 0 0 0 0 0 0 0 0 0 0 0 0 0 
0 0 0 0 0 0 0 0 0 0 0 0 0 0 0 0 0 0 0 0 0 0 0 0 0 0 0 0 0 0 855 0 0 1726 0 0 1725 0 0 1671 0 0 1747 0 0 1707 0 0 1703 0 0 1726 0 0 1717 0 0 1720 0 0 1715 0 0 1753 0 0 1737 0 0 1776 0 0 1699 0 0 1732 0 0 1738 0 0 1678 0 0 1765 0 0 1659 0 0 1753 0 0 1729 0 0 1800 0 0 1668 0 0 1725 0 0 1717 0 0 1800 0 0 1755 0 0 1685 0 0 1718 0 0 1677 0 0 1709 0 0 1701 0 0 1729 0 0 1708 0 0 1734 0 0 1724 0 0 1780 0 0 1718 0 0 1693 0 0 849 0 0 0 0 0 0 0 0 0 0 0 0 0 0 0 0 0 0 0 0 0 0 0 0 0 0 0 0 0 
0 0 0 0 0 0 0 0 0 0 0 0 0 0 0 0 0 0 0 0 0 0 0 0 0 0 0 0 0 0 863 0 0 1808 0 0 1739 0 0 1716 0 0 1748 0 0 1708 0 0 1755 0 0 1805 0 0 1728 0 0 1733 0 0 1743 0 0 1760 0 0 1763 0 0 1745 0 0 1723 0 0 1672 0 0 1678 0 0 1688 0 0 1722 0 0 1717 0 0 1684 0 0 1691 0 0 1809 0 0 1724 0 0 1709 0 0 1700 0 0 1750 0 0 1747 0 0 1730 0 0 1714 0 0 1690 0 0 1740 0 0 1718 0 0 1699 0 0 1736 0 0 1728 0 0 1749 0 0 1751 0 0 1703 0 0 1792 0 0 928 0 0 0 0 0 0 0 0 0 0 0 0 0 0 0 0 0 0 0 0 0 0 0 0 0 0 0 0 0 
0 0 0 0 0 0 0 0 0 0 0 0 0 0 0 0 0 0 0 0 0 0 0 0 0 0 0 0 0 0 866 0 0 1710 0 0 1733 0 0 1750 0 0 1740 0 0 1686 0 0 1728 0 0 1729 0 0 1712 0 0 1746 0 0 1702 0 0 1702 0 0 1722 0 0 1706 0 0 1745 0 0 1684 0 0 1750 0 0 1809 0 0 1770 0 0 1753 0 0 1749 0 0 1780 0 0 1825 0 0 1725 0 0 1768 0 0 1738 0 0 1749 0 0 1645 0 0 1754 0 0 1655 0 0 1748 0 0 1697 0 0 1671 0 0 1711 0 0 1650 0 0 1712 0 0 1755 0 0 1764 0 0 1629 0 0 1710 0 0 928 0 0 0 0 0 0 0 0 0 0 0 0 0 0 0 0 0 0 0 0 0 0 0 0 0 0 0 0 0 
0 0 0 0 0 0 0 0 0 0 0 0 0 0 0 0 0 0 0 0 0 0 0 0 0 0 0 0 0 0 850 0 0 1761 0 0 1750 0 0 1742 0 0 1824 0 0 1731 0 0 1689 0 0 1789 0 0 1744 0 0 1765 0 0 1676 0 0 1700 0 0 1728 0 0 1755 0 0 1792 0 0 1751 0 0 1751 0 0 1799 0 0 1684 0 0 1733 0 0 1756 0 0 1734 0 0 1722 0 0 1765 0 0 1789 0 0 1751 0 0 1822 0 0 1730 0 0 1694 0 0 1725 0 0 1709 0 0 1745 0 0 1731 0 0 1729 0 0 1809 0 0 1709 0 0 1715 0 0 1696 0 0 1670 0 0 1784 0 0 868 0 0 0 0 0 0 0 0 0 0 0 0 0 0 0 0 0 0 0 0 0 0 0 0 0 0 0 0 0 
0 0 0 0 0 0 0 0 0 0 0 0 0 0 0 0 0 0 0 0 0 0 0 0 0 0 0 0 0 0 905 0 0 1718 0 0 1721 0 0 1796 0 0 1804 0 0 1762 0 0 1819 0 0 1673 0 0 1718 0 0 1785 0 0 1717 0 0 1767 0 0 1729 0 0 1715 0 0 1734 0 0 1727 0 0 1710 0 0 1721 0 0 1715 0 0 1786 0 0 1708 0 0 1654 0 0 1697 0 0 1716 0 0 1689 0 0 1729 0 0 1778 0 0 1760 0 0 1719 0 0 1744 0 0 1628 0 0 1769 0 0 1752 0 0 1793 0 0 1800 0 0 1748 0 0 1718 0 0 1677 0 0 1639 0 0 1735 0 0 812 0 0 0 0 0 0 0 0 0 0 0 0 0 0 0 0 0 0 0 0 0 0 0 0 0 0 0 0 0 
0 0 0 0 0 0 0 0 0 0 0 0 0 0 0 0 0 0 0 0 0 0 0 0 0 0 0 0 0 0 905 0 0 1724 0 0 1655 0 0 1675 0 0 1650 0 0 1787 0 0 1792 0 0 1764 0 0 1712 0 0 1705 0 0 1809 0 0 1744 0 0 1720 0 0 1754 0 0 1775 0 0 1784 0 0 1783 0 0 1767 0 0 1772 0 0 1674 0 0 1706 0 0 1754 0 0 1759 0 0 1673 0 0 1766 0 0 1744 0 0 1667 0 0 1773 0 0 1697 0 0 1729 0 0 1750 0 0 1726 0 0 1726 0 0 1720 0 0 1702 0 0 1834 0 0 1779 0 0 1808 0 0 1724 0 0 1707 0 0 831 0 0 0 0 0 0 0 0 0 0 0 0 0 0 0 0 0 0 0 0 0 0 0 0 0 0 0 0 0 
0 0 0 0 0 0 0 0 0 0 0 0 0 0 0 0 0 0 0 0 0 0 0 0 0 0 0 0 0 0 854 0 0 1739 0 0 1745 0 0 1724 0 0 1734 0 0 1725 0 0 1802 0 0 1758 0 0 1783 0 0 1765 0 0 1723 0 0 1756 0 0 1799 0 0 1750 0 0 1662 0 0 1772 0 0 1646 0 0 1666 0 0 1771 0 0 1718 0 0 1698 0 0 1725 0 0 1669 0 0 1677 0 0 1749 0 0 1693 0 0 1696 0 0 1696 0 0 1729 0 0 1775 0 0 1662 0 0 1825 0 0 1712 0 0 1741 0 0 1754 0 0 1765 0 0 1688 0 0 1735 0 0 1698 0 0 1738 0 0 905 0 0 0 0 0 0 0 0 0 0 0 0 0 0 0 0 0 0 0 0 0 0 0 0 0 0 0 0 0 
0 0 0 0 0 0 0 0 0 0 0 0 0 0 0 0 0 0 0 0 0 0 0 0 0 0 0 0 0 0 901 0 0 1664 0 0 1760 0 0 1741 0 0 1740 0 0 1736 0 0 1746 0 0 1774 0 0 1730 0 0 1655 0 0 1744 0 0 1777 0 0 1716 0 0 1754 0 0 1669 0 0 1789 0 0 1756 0 0 1683 0 0 1796 0 0 1705 0 0 1713 0 0 1737 0 0 1704 0 0 1795 0 0 1722 0 0 1766 0 0 1726 0 0 1745 0 0 1712 0 0 1714 0 0 1718 0 0 1767 0 0 1699 0 0 1765 0 0 1721 0 0 1713 0 0 1779 0 0 1743 0 0 1741 0 0 1706 0 0 873 0 0 0 0 0 0 0 0 0 0 0 0 0 0 0 0 0 0 0 0 0 0 0 0 0 0 0 0 0 
0 0 0 0 0 0 0 0 0 0 0 0 0 0 0 0 0 0 0 0 0 0 0 0 0 0 0 0 0 0 861 0 0 1717 0 0 1733 0 0 1720 0 0 1662 0 0 1728 0 0 1738 0 0 1724 0 0 1714 0 0 1799 0 0 1675 0 0 1795 0 0 1727 0 0 1674 0 0 1660 0 0 1683 0 0 1780 0 0 1731 0 0 1764 0 0 1654 0 0 1733 0 0 1647 0 0 1783 0 0 1745 0 0 1762 0 0 1834 0 0 1726 0 0 1781 0 0 1753 0 0 1757 0 0 1729 0 0 1789 0 0 1761 0 0 1757 0 0 1782 0 0 1779 0 0 1776 0 0 1688 0 0 1801 0 0 1728 0 0 833 0 0 0 0 0 0 0 0 0 0 0 0 0 0 0 0 0 0 0 0 0 0 0 0 0 0 0 0 0 
0 0 0 0 0 0 0 0 0 0 0 0 0 0 0 0 0 0 0 0 0 0 0 0 0 0 0 0 0 0 895 0 0 1685 0 0 1761 0 0 1712 0 0 1621 0 0 1765 0 0 1779 0 0 1787 0 0 1727 0 0 1767 0 0 1751 0 0 1725 0 0 1808 0 0 1736 0 0 1618 0 0 1708 0 0 1730 0 0 1759 0 0 1725 0 0 1758 0 0 1635 0 0 1717 0 0 1695 0 0 1761 0 0 1716 0 0 1731 0 0 1838 0 0 1735 0 0 1732 0 0 1649 0 0 1691 0 0 1699 0 0 1789 0 0 1700 0 0 1686 0 0 1734 0 0 1752 0 0 1749 0 0 1793 0 0 1628 0 0 885 0 0 0 0 0 0 0 0 0 0 0 0 0 0 0 0 0 0 0 0 0 0 0 0 0 0 0 0 0 
0 0 0 0 0 0 0 0 0 0 0 0 0 0 0 0 0 0 0 0 0 0 0 0 0 0 0 0 0 0 878 0 0 1713 0 0 1746 0 0 1755 0 0 1759 0 0 1758 0 0 1792 0 0 1686 0 0 1665 0 0 1704 0 0 1720 0 0 1811 0 0 1646 0 0 1731 0 0 1739 0 0 1774 0 0 1804 0 0 1690 0 0 1757 0 0 1711 0 0 1673 0 0 1712 0 0 1838 0 0 1849 0 0 1634 0 0 1678 0 0 1775 0 0 1755 0 0 1724 0 0 1787 0 0 1747 0 0 1726 0 0 1739 0 0 1683 0 0 1711 0 0 1741 0 0 1757 0 0 1767 0 0 1639 0 0 1718 0 0 841 0 0 0 0 0 0 0 0 0 0 0 0 0 0 0 0 0 0 0 0 0 0 0 0 0 0 0 0 0 
0 0 0 0 0 0 0 0 0 0 0 0 0 0 0 0 0 0 0 0 0 0 0 0 0 0 0 0 0 0 854 0 0 1686 0 0 1763 0 0 1712 0 0 1795 0 0 1740 0 0 1737 0 0 1725 0 0 1723 0 0 1732 0 0 1699 0 0 1727 0 0 1735 0 0 1841 0 0 1717 0 0 1679 0 0 1804 0 0 1764 0 0 1767 0 0 1761 0 0 1744 0 0 1827 0 0 1734 0 0 1677 0 0 1753 0 0 1749 0 0 1714 0 0 1683 0 0 1773 0 0 1702 0 0 1677 0 0 1732 0 0 1754 0 0 1702 0 0 1779 0 0 1771 0 0 1794 0 0 1725 0 0 1710 0 0 1751 0 0 873 0 0 0 0 0 0 0 0 0 0 0 0 0 0 0 0 0 0 0 0 0 0 0 0 0 0 0 0 0 
0 0 0 0 0 0 0 0 0 0 0 0 0 0 0 0 0 0 0 0 0 0 0 0 0 0 0 0 0 0 407 0 0 830 0 0 833 0 0 894 0 0 820 0 0 926 0 0 887 0 0 841 0 0 798 0 0 823 0 0 784 0 0 870 0 0 890 0 0 791 0 0 845 0 0 869 0 0 865 0 0 842 0 0 844 0 0 873 0 0 873 0 0 832 0 0 953 0 0 900 0 0 838 0 0 882 0 0 853 0 0 885 0 0 859 0 0 846 0 0 897 0 0 851 0 0 857 0 0 831 0 0 871 0 0 867 0 0 818 0 0 896 0 0 896 0 0 875 0 0 384 0 0 0 0 0 0 0 0 0 0 0 0 0 0 0 0 0 0 0 0 0 0 0 0 0 0 0 0 0 
0 0 0 0 0 0 0 0 0 0 0 0 0 0 0 0 0 0 0 0 0 0 0 0 0 0 0 0 0 0 0 0 0 0 0 0 0 0 0 0 0 0 0 0 0 0 0 0 0 0 0 0 0 0 0 0 0 0 0 0 0 0 0 0 0 0 0 0 0 0 0 0 0 0 0 0 0 0 0 0 0 0 0 0 0 0 0 0 0 0 0 0 0 0 0 0 0 0 0 0 0 0 0 0 0 0 0 0 0 0 0 0 0 0 0 0 0 0 0 0 0 0 0 0 0 0 0 0 0 0 0 0 0 0 0 0 0 0 0 0 0 0 0 0 0 0 0 0 0 0 0 0 0 0 0 0 0 0 0 0 0 0 0 0 0 0 0 0 0 0 0 0 0 0 0 0 0 0 0 0 
0 0 0 0 0 0 0 0 0 0 0 0 0 0 0 0 0 0 0 0 0 0 0 0 0 0 0 0 0 0 0 0 0 0 0 0 0 0 0 0 0 0 0 0 0 0 0 0 0 0 0 0 0 0 0 0 0 0 0 0 0 0 0 0 0 0 0 0 0 0 0 0 0 0 0 0 0 0 0 0 0 0 0 0 0 0 0 0 0 0 0 0 0 0 0 0 0 0 0 0 0 0 0 0 0 0 0 0 0 0 0 0 0 0 0 0 0 0 0 0 0 0 0 0 0 0 0 0 0 0 0 0 0 0 0 0 0 0 0 0 0 0 0 0 0 0 0 0 0 0 0 0 0 0 0 0 0 0 0 0 0 0 0 0 0 0 0 0 0 0 0 0 0 0 0 0 0 0 0 0 
0 0 0 0 0 0 0 0 0 0 0 0 0 0 0 0 0 0 0 0 0 0 0 0 0 0 0 0 0 0 0 0 0 0 0 0 0 0 0 0 0 0 0 0 0 0 0 0 0 0 0 0 0 0 0 0 0 0 0 0 0 0 0 0 0 0 0 0 0 0 0 0 0 0 0 0 0 0 0 0 0 0 0 0 0 0 0 0 0 0 0 0 0 0 0 0 0 0 0 0 0 0 0 0 0 0 0 0 0 0 0 0 0 0 0 0 0 0 0 0 0 0 0 0 0 0 0 0 0 0 0 0 0 0 0 0 0 0 0 0 0 0 0 0 0 0 0 0 0 0 0 0 0 0 0 0 0 0 0 0 0 0 0 0 0 0 0 0 0 0 0 0 0 0 0 0 0 0 0 0 
0 0 0 0 0 0 0 0 0 0 0 0 0 0 0 0 0 0 0 0 0 0 0 0 0 0 0 0 0 0 0 0 0 0 0 0 0 0 0 0 0 0 0 0 0 0 0 0 0 0 0 0 0 0 0 0 0 0 0 0 0 0 0 0 0 0 0 0 0 0 0 0 0 0 0 0 0 0 0 0 0 0 0 0 0 0 0 0 0 0 0 0 0 0 0 0 0 0 0 0 0 0 0 0 0 0 0 0 0 0 0 0 0 0 0 0 0 0 0 0 0 0 0 0 0 0 0 0 0 0 0 0 0 0 0 0 0 0 0 0 0 0 0 0 0 0 0 0 0 0 0 0 0 0 0 0 0 0 0 0 0 0 0 0 0 0 0 0 0 0 0 0 0 0 0 0 0 0 0 0 
0 0 0 0 0 0 0 0 0 0 0 0 0 0 0 0 0 0 0 0 0 0 0 0 0 0 0 0 0 0 0 0 0 0 0 0 0 0 0 0 0 0 0 0 0 0 0 0 0 0 0 0 0 0 0 0 0 0 0 0 0 0 0 0 0 0 0 0 0 0 0 0 0 0 0 0 0 0 0 0 0 0 0 0 0 0 0 0 0 0 0 0 0 0 0 0 0 0 0 0 0 0 0 0 0 0 0 0 0 0 0 0 0 0 0 0 0 0 0 0 0 0 0 0 0 0 0 0 0 0 0 0 0 0 0 0 0 0 0 0 0 0 0 0 0 0 0 0 0 0 0 0 0 0 0 0 0 0 0 0 0 0 0 0 0 0 0 0 0 0 0 0 0 0 0 0 0 0 0 0 
0 0 0 0 0 0 0 0 0 0 0 0 0 0 0 0 0 0 0 0 0 0 0 0 0 0 0 0 0 0 0 0 0 0 0 0 0 0 0 0 0 0 0 0 0 0 0 0 0 0 0 0 0 0 0 0 0 0 0 0 0 0 0 0 0 0 0 0 0 0 0 0 0 0 0 0 0 0 0 0 0 0 0 0 0 0 0 0 0 0 0 0 0 0 0 0 0 0 0 0 0 0 0 0 0 0 0 0 0 0 0 0 0 0 0 0 0 0 0 0 0 0 0 0 0 0 0 0 0 0 0 0 0 0 0 0 0 0 0 0 0 0 0 0 0 0 0 0 0 0 0 0 0 0 0 0 0 0 0 0 0 0 0 0 0 0 0 0 0 0 0 0 0 0 0 0 0 0 0 0 
0 0 0 0 0 0 0 0 0 0 0 0 0 0 0 0 0 0 0 0 0 0 0 0 0 0 0 0 0 0 0 0 0 0 0 0 0 0 0 0 0 0 0 0 0 0 0 0 0 0 0 0 0 0 0 0 0 0 0 0 0 0 0 0 0 0 0 0 0 0 0 0 0 0 0 0 0 0 0 0 0 0 0 0 0 0 0 0 0 0 0 0 0 0 0 0 0 0 0 0 0 0 0 0 0 0 0 0 0 0 0 0 0 0 0 0 0 0 0 0 0 0 0 0 0 0 0 0 0 0 0 0 0 0 0 0 0 0 0 0 0 0 0 0 0 0 0 0 0 0 0 0 0 0 0 0 0 0 0 0 0 0 0 0 0 0 0 0 0 0 0 0 0 0 0 0 0 0 0 0 
0 0 0 0 0 0 0 0 0 0 0 0 0 0 0 0 0 0 0 0 0 0 0 0 0 0 0 0 0 0 0 0 0 0 0 0 0 0 0 0 0 0 0 0 0 0 0 0 0 0 0 0 0 0 0 0 0 0 0 0 0 0 0 0 0 0 0 0 0 0 0 0 0 0 0 0 0 0 0 0 0 0 0 0 0 0 0 0 0 0 0 0 0 0 0 0 0 0 0 0 0 0 0 0 0 0 0 0 0 0 0 0 0 0 0 0 0 0 0 0 0 0 0 0 0 0 0 0 0 0 0 0 0 0 0 0 0 0 0 0 0 0 0 0 0 0 0 0 0 0 0 0 0 0 0 0 0 0 0 0 0 0 0 0 0 0 0 0 0 0 0 0 0 0 0 0 0 0 0 0 
0 0 0 0 0 0 0 0 0 0 0 0 0 0 0 0 0 0 0 0 0 0 0 0 0 0 0 0 0 0 0 0 0 0 0 0 0 0 0 0 0 0 0 0 0 0 0 0 0 0 0 0 0 0 0 0 0 0 0 0 0 0 0 0 0 0 0 0 0 0 0 0 0 0 0 0 0 0 0 0 0 0 0 0 0 0 0 0 0 0 0 0 0 0 0 0 0 0 0 0 0 0 0 0 0 0 0 0 0 0 0 0 0 0 0 0 0 0 0 0 0 0 0 0 0 0 0 0 0 0 0 0 0 0 0 0 0 0 0 0 0 0 0 0 0 0 0 0 0 0 0 0 0 0 0 0 0 0 0 0 0 0 0 0 0 0 0 0 0 0 0 0 0 0 0 0 0 0 0 0 
