P3
# This is a dose file slice at depth 18 of 100
60 60
# now we give the maximum value of the RGB coordinates.
22407
0 0 0 0 0 0 0 0 0 0 0 0 0 0 0 0 0 0 0 0 0 0 0 0 0 0 0 0 0 0 0 0 0 0 0 0 0 0 0 0 0 0 0 0 0 0 0 0 0 0 0 0 0 0 0 0 0 0 0 0 0 0 0 0 0 0 0 0 0 0 0 0 0 0 0 0 0 0 0 0 0 0 0 0 0 0 0 0 0 0 0 0 0 0 0 0 0 0 0 0 0 0 0 0 0 0 0 0 0 0 0 0 0 0 0 0 0 0 0 0 0 0 0 0 0 0 0 0 0 0 0 0 0 0 0 0 0 0 0 0 0 0 0 0 0 0 0 0 0 0 0 0 0 0 0 0 0 0 0 0 0 0 0 0 0 0 0 0 0 0 0 0 0 0 0 0 0 0 0 0 
0 0 0 0 0 0 0 0 0 0 0 0 0 0 0 0 0 0 0 0 0 0 0 0 0 0 0 0 0 0 0 0 0 0 0 0 0 0 0 0 0 0 0 0 0 0 0 0 0 0 0 0 0 0 0 0 0 0 0 0 0 0 0 0 0 0 0 0 0 0 0 0 0 0 0 0 0 0 0 0 0 0 0 0 0 0 0 0 0 0 0 0 0 0 0 0 0 0 0 0 0 0 0 0 0 0 0 0 0 0 0 0 0 0 0 0 0 0 0 0 0 0 0 0 0 0 0 0 0 0 0 0 0 0 0 0 0 0 0 0 0 0 0 0 0 0 0 0 0 0 0 0 0 0 0 0 0 0 0 0 0 0 0 0 0 0 0 0 0 0 0 0 0 0 0 0 0 0 0 0 
0 0 0 0 0 0 0 0 0 0 0 0 0 0 0 0 0 0 0 0 0 0 0 0 0 0 0 0 0 0 0 0 0 0 0 0 0 0 0 0 0 0 0 0 0 0 0 0 0 0 0 0 0 0 0 0 0 0 0 0 0 0 0 0 0 0 0 0 0 0 0 0 0 0 0 0 0 0 0 0 0 0 0 0 0 0 0 0 0 0 0 0 0 0 0 0 0 0 0 0 0 0 0 0 0 0 0 0 0 0 0 0 0 0 0 0 0 0 0 0 0 0 0 0 0 0 0 0 0 0 0 0 0 0 0 0 0 0 0 0 0 0 0 0 0 0 0 0 0 0 0 0 0 0 0 0 0 0 0 0 0 0 0 0 0 0 0 0 0 0 0 0 0 0 0 0 0 0 0 0 
0 0 0 0 0 0 0 0 0 0 0 0 0 0 0 0 0 0 0 0 0 0 0 0 0 0 0 0 0 0 0 0 0 0 0 0 0 0 0 0 0 0 0 0 0 0 0 0 0 0 0 0 0 0 0 0 0 0 0 0 0 0 0 0 0 0 0 0 0 0 0 0 0 0 0 0 0 0 0 0 0 0 0 0 0 0 0 0 0 0 0 0 0 0 0 0 0 0 0 0 0 0 0 0 0 0 0 0 0 0 0 0 0 0 0 0 0 0 0 0 0 0 0 0 0 0 0 0 0 0 0 0 0 0 0 0 0 0 0 0 0 0 0 0 0 0 0 0 0 0 0 0 0 0 0 0 0 0 0 0 0 0 0 0 0 0 0 0 0 0 0 0 0 0 0 0 0 0 0 0 
0 0 0 0 0 0 0 0 0 0 0 0 0 0 0 0 0 0 0 0 0 0 0 0 0 0 0 0 0 0 0 0 0 0 0 0 0 0 0 0 0 0 0 0 0 0 0 0 0 0 0 0 0 0 0 0 0 0 0 0 0 0 0 0 0 0 0 0 0 0 0 0 0 0 0 0 0 0 0 0 0 0 0 0 0 0 0 0 0 0 0 0 0 0 0 0 0 0 0 0 0 0 0 0 0 0 0 0 0 0 0 0 0 0 0 0 0 0 0 0 0 0 0 0 0 0 0 0 0 0 0 0 0 0 0 0 0 0 0 0 0 0 0 0 0 0 0 0 0 0 0 0 0 0 0 0 0 0 0 0 0 0 0 0 0 0 0 0 0 0 0 0 0 0 0 0 0 0 0 0 
0 0 0 0 0 0 0 0 0 0 0 0 0 0 0 0 0 0 0 0 0 0 0 0 0 0 0 0 0 0 0 0 0 0 0 0 0 0 0 0 0 0 0 0 0 0 0 0 0 0 0 0 0 0 0 0 0 0 0 0 0 0 0 0 0 0 0 0 0 0 0 0 0 0 0 0 0 0 0 0 0 0 0 0 0 0 0 0 0 0 0 0 0 0 0 0 0 0 0 0 0 0 0 0 0 0 0 0 0 0 0 0 0 0 0 0 0 0 0 0 0 0 0 0 0 0 0 0 0 0 0 0 0 0 0 0 0 0 0 0 0 0 0 0 0 0 0 0 0 0 0 0 0 0 0 0 0 0 0 0 0 0 0 0 0 0 0 0 0 0 0 0 0 0 0 0 0 0 0 0 
0 0 0 0 0 0 0 0 0 0 0 0 0 0 0 0 0 0 0 0 0 0 0 0 0 0 0 0 0 0 0 0 0 0 0 0 0 0 0 0 0 0 0 0 0 0 0 0 0 0 0 0 0 0 0 0 0 0 0 0 0 0 0 0 0 0 0 0 0 0 0 0 0 0 0 0 0 0 0 0 0 0 0 0 0 0 0 0 0 0 0 0 0 0 0 0 0 0 0 0 0 0 0 0 0 0 0 0 0 0 0 0 0 0 0 0 0 0 0 0 0 0 0 0 0 0 0 0 0 0 0 0 0 0 0 0 0 0 0 0 0 0 0 0 0 0 0 0 0 0 0 0 0 0 0 0 0 0 0 0 0 0 0 0 0 0 0 0 0 0 0 0 0 0 0 0 0 0 0 0 
0 0 0 0 0 0 0 0 0 0 0 0 0 0 0 0 0 0 0 0 0 0 0 0 0 0 0 0 0 0 0 0 0 0 0 0 0 0 0 0 0 0 0 0 0 0 0 0 0 0 0 0 0 0 0 0 0 0 0 0 0 0 0 0 0 0 0 0 0 0 0 0 0 0 0 0 0 0 0 0 0 0 0 0 0 0 0 0 0 0 0 0 0 0 0 0 0 0 0 0 0 0 0 0 0 0 0 0 0 0 0 0 0 0 0 0 0 0 0 0 0 0 0 0 0 0 0 0 0 0 0 0 0 0 0 0 0 0 0 0 0 0 0 0 0 0 0 0 0 0 0 0 0 0 0 0 0 0 0 0 0 0 0 0 0 0 0 0 0 0 0 0 0 0 0 0 0 0 0 0 
0 0 0 0 0 0 0 0 0 0 0 0 0 0 0 0 0 0 0 0 0 0 0 0 0 0 0 0 0 0 0 0 0 0 0 0 0 0 0 0 0 0 0 0 0 0 0 0 0 0 0 0 0 0 0 0 0 0 0 0 0 0 0 0 0 0 0 0 0 0 0 0 0 0 0 0 0 0 0 0 0 0 0 0 0 0 0 0 0 0 0 0 0 0 0 0 0 0 0 0 0 0 0 0 0 0 0 0 0 0 0 0 0 0 0 0 0 0 0 0 0 0 0 0 0 0 0 0 0 0 0 0 0 0 0 0 0 0 0 0 0 0 0 0 0 0 0 0 0 0 0 0 0 0 0 0 0 0 0 0 0 0 0 0 0 0 0 0 0 0 0 0 0 0 0 0 0 0 0 0 
0 0 0 0 0 0 0 0 0 0 0 0 0 0 0 0 0 0 0 0 0 0 0 0 0 0 0 0 0 0 0 0 0 0 0 0 0 0 0 0 0 0 0 0 0 0 0 0 0 0 0 0 0 0 0 0 0 0 0 0 0 0 0 0 0 0 0 0 0 0 0 0 0 0 0 0 0 0 0 0 0 0 0 0 0 0 0 0 0 0 0 0 0 0 0 0 0 0 0 0 0 0 0 0 0 0 0 0 0 0 0 0 0 0 0 0 0 0 0 0 0 0 0 0 0 0 0 0 0 0 0 0 0 0 0 0 0 0 0 0 0 0 0 0 0 0 0 0 0 0 0 0 0 0 0 0 0 0 0 0 0 0 0 0 0 0 0 0 0 0 0 0 0 0 0 0 0 0 0 0 
0 0 0 0 0 0 0 0 0 0 0 0 0 0 0 0 0 0 0 0 0 0 0 0 0 0 0 0 0 0 3221 0 0 6455 0 0 6418 0 0 6396 0 0 6468 0 0 6158 0 0 6365 0 0 6452 0 0 6344 0 0 6440 0 0 6383 0 0 6525 0 0 6336 0 0 6428 0 0 6468 0 0 6311 0 0 6498 0 0 6443 0 0 6461 0 0 6322 0 0 6537 0 0 6419 0 0 6362 0 0 6436 0 0 6414 0 0 6305 0 0 6313 0 0 6483 0 0 6378 0 0 6349 0 0 6452 0 0 6351 0 0 6445 0 0 6371 0 0 6528 0 0 6441 0 0 6400 0 0 6443 0 0 6548 0 0 6589 0 0 3308 0 0 0 0 0 0 0 0 0 0 0 0 0 0 0 0 0 0 0 0 0 0 0 0 0 0 0 0 0 
0 0 0 0 0 0 0 0 0 0 0 0 0 0 0 0 0 0 0 0 0 0 0 0 0 0 0 0 0 0 6510 0 0 13021 0 0 12749 0 0 12865 0 0 12958 0 0 12957 0 0 12630 0 0 12878 0 0 12892 0 0 12805 0 0 12693 0 0 13057 0 0 12996 0 0 12892 0 0 12790 0 0 12898 0 0 12901 0 0 12945 0 0 12752 0 0 12732 0 0 12807 0 0 12821 0 0 12757 0 0 12828 0 0 12874 0 0 12711 0 0 13011 0 0 12642 0 0 12781 0 0 12780 0 0 12735 0 0 12831 0 0 13031 0 0 12788 0 0 12759 0 0 12912 0 0 12696 0 0 12784 0 0 12843 0 0 12857 0 0 6342 0 0 0 0 0 0 0 0 0 0 0 0 0 0 0 0 0 0 0 0 0 0 0 0 0 0 0 0 0 
0 0 0 0 0 0 0 0 0 0 0 0 0 0 0 0 0 0 0 0 0 0 0 0 0 0 0 0 0 0 6430 0 0 12925 0 0 12933 0 0 12793 0 0 12875 0 0 12829 0 0 12852 0 0 12928 0 0 12740 0 0 12875 0 0 12765 0 0 12839 0 0 12666 0 0 12732 0 0 12800 0 0 12720 0 0 12794 0 0 13063 0 0 12608 0 0 13093 0 0 12727 0 0 12898 0 0 12827 0 0 12808 0 0 12707 0 0 12789 0 0 12839 0 0 12749 0 0 12772 0 0 12850 0 0 12751 0 0 12684 0 0 12843 0 0 12798 0 0 12741 0 0 12813 0 0 12790 0 0 12636 0 0 12921 0 0 12865 0 0 6386 0 0 0 0 0 0 0 0 0 0 0 0 0 0 0 0 0 0 0 0 0 0 0 0 0 0 0 0 0 
0 0 0 0 0 0 0 0 0 0 0 0 0 0 0 0 0 0 0 0 0 0 0 0 0 0 0 0 0 0 6419 0 0 12789 0 0 12720 0 0 12796 0 0 12893 0 0 12806 0 0 12572 0 0 12644 0 0 12933 0 0 12818 0 0 12685 0 0 12713 0 0 12760 0 0 12833 0 0 12764 0 0 12645 0 0 12909 0 0 12936 0 0 12675 0 0 12725 0 0 12927 0 0 12655 0 0 12852 0 0 13012 0 0 12856 0 0 12918 0 0 12675 0 0 12907 0 0 12805 0 0 12852 0 0 12569 0 0 12772 0 0 12961 0 0 12597 0 0 12857 0 0 12737 0 0 12894 0 0 12910 0 0 12744 0 0 12924 0 0 6666 0 0 0 0 0 0 0 0 0 0 0 0 0 0 0 0 0 0 0 0 0 0 0 0 0 0 0 0 0 
0 0 0 0 0 0 0 0 0 0 0 0 0 0 0 0 0 0 0 0 0 0 0 0 0 0 0 0 0 0 6383 0 0 12726 0 0 12875 0 0 12889 0 0 12842 0 0 12766 0 0 12741 0 0 12752 0 0 12933 0 0 12892 0 0 12739 0 0 12770 0 0 12750 0 0 13056 0 0 12786 0 0 12849 0 0 12793 0 0 12908 0 0 12898 0 0 12920 0 0 12868 0 0 12858 0 0 12797 0 0 12775 0 0 12686 0 0 12809 0 0 12845 0 0 12861 0 0 12740 0 0 12938 0 0 12800 0 0 12706 0 0 12774 0 0 12771 0 0 12736 0 0 12915 0 0 12523 0 0 12930 0 0 12744 0 0 12646 0 0 6470 0 0 0 0 0 0 0 0 0 0 0 0 0 0 0 0 0 0 0 0 0 0 0 0 0 0 0 0 0 
0 0 0 0 0 0 0 0 0 0 0 0 0 0 0 0 0 0 0 0 0 0 0 0 0 0 0 0 0 0 6423 0 0 12736 0 0 12726 0 0 12722 0 0 12868 0 0 12770 0 0 12824 0 0 12780 0 0 12743 0 0 12880 0 0 12942 0 0 12929 0 0 12867 0 0 12744 0 0 12817 0 0 13101 0 0 13040 0 0 12715 0 0 12983 0 0 12887 0 0 12981 0 0 12551 0 0 12877 0 0 12704 0 0 12833 0 0 12737 0 0 12836 0 0 12874 0 0 12867 0 0 12856 0 0 12745 0 0 12849 0 0 12802 0 0 12806 0 0 12773 0 0 12872 0 0 12939 0 0 12729 0 0 12925 0 0 12797 0 0 6263 0 0 0 0 0 0 0 0 0 0 0 0 0 0 0 0 0 0 0 0 0 0 0 0 0 0 0 0 0 
0 0 0 0 0 0 0 0 0 0 0 0 0 0 0 0 0 0 0 0 0 0 0 0 0 0 0 0 0 0 6481 0 0 12910 0 0 12857 0 0 12986 0 0 12683 0 0 12595 0 0 12848 0 0 13076 0 0 12775 0 0 13053 0 0 12543 0 0 12720 0 0 12665 0 0 12662 0 0 12956 0 0 12820 0 0 12793 0 0 12644 0 0 12731 0 0 12752 0 0 12789 0 0 12933 0 0 12739 0 0 12790 0 0 12714 0 0 12838 0 0 12655 0 0 12815 0 0 12823 0 0 12721 0 0 12788 0 0 12796 0 0 12816 0 0 12689 0 0 12791 0 0 12727 0 0 12827 0 0 12869 0 0 13242 0 0 12847 0 0 6417 0 0 0 0 0 0 0 0 0 0 0 0 0 0 0 0 0 0 0 0 0 0 0 0 0 0 0 0 0 
0 0 0 0 0 0 0 0 0 0 0 0 0 0 0 0 0 0 0 0 0 0 0 0 0 0 0 0 0 0 6248 0 0 12875 0 0 12894 0 0 12837 0 0 12918 0 0 12813 0 0 12860 0 0 12866 0 0 12933 0 0 12898 0 0 12898 0 0 12851 0 0 12797 0 0 12719 0 0 12984 0 0 12806 0 0 12741 0 0 12880 0 0 12806 0 0 12927 0 0 12786 0 0 12945 0 0 12906 0 0 12704 0 0 13070 0 0 12863 0 0 12752 0 0 12851 0 0 12703 0 0 12767 0 0 12759 0 0 12822 0 0 12918 0 0 12913 0 0 12911 0 0 12963 0 0 12831 0 0 12776 0 0 13043 0 0 12643 0 0 6435 0 0 0 0 0 0 0 0 0 0 0 0 0 0 0 0 0 0 0 0 0 0 0 0 0 0 0 0 0 
0 0 0 0 0 0 0 0 0 0 0 0 0 0 0 0 0 0 0 0 0 0 0 0 0 0 0 0 0 0 6464 0 0 12715 0 0 12923 0 0 12802 0 0 12768 0 0 12943 0 0 12507 0 0 12638 0 0 12621 0 0 12889 0 0 12740 0 0 12663 0 0 12916 0 0 12783 0 0 12840 0 0 12822 0 0 12816 0 0 13067 0 0 12866 0 0 12789 0 0 12704 0 0 12715 0 0 12757 0 0 12707 0 0 12699 0 0 12846 0 0 12784 0 0 12954 0 0 12995 0 0 12954 0 0 12768 0 0 12782 0 0 12702 0 0 12975 0 0 13065 0 0 12758 0 0 12843 0 0 12776 0 0 12760 0 0 12800 0 0 6407 0 0 0 0 0 0 0 0 0 0 0 0 0 0 0 0 0 0 0 0 0 0 0 0 0 0 0 0 0 
0 0 0 0 0 0 0 0 0 0 0 0 0 0 0 0 0 0 0 0 0 0 0 0 0 0 0 0 0 0 6272 0 0 12906 0 0 12617 0 0 12595 0 0 12849 0 0 12687 0 0 12748 0 0 12769 0 0 12874 0 0 12535 0 0 12756 0 0 12749 0 0 12697 0 0 12705 0 0 12803 0 0 12897 0 0 12871 0 0 12769 0 0 12683 0 0 13034 0 0 12853 0 0 12838 0 0 12791 0 0 12824 0 0 12810 0 0 12945 0 0 13080 0 0 12910 0 0 12929 0 0 12739 0 0 12916 0 0 12815 0 0 12698 0 0 12701 0 0 12653 0 0 12885 0 0 12801 0 0 12718 0 0 12791 0 0 12735 0 0 6470 0 0 0 0 0 0 0 0 0 0 0 0 0 0 0 0 0 0 0 0 0 0 0 0 0 0 0 0 0 
0 0 0 0 0 0 0 0 0 0 0 0 0 0 0 0 0 0 0 0 0 0 0 0 0 0 0 0 0 0 6241 0 0 13037 0 0 12706 0 0 12783 0 0 13020 0 0 12864 0 0 12606 0 0 13015 0 0 12765 0 0 12735 0 0 12820 0 0 12730 0 0 12800 0 0 12781 0 0 12997 0 0 12821 0 0 12954 0 0 12828 0 0 12709 0 0 12912 0 0 12736 0 0 12964 0 0 12798 0 0 12964 0 0 12829 0 0 12899 0 0 12612 0 0 12952 0 0 12661 0 0 12884 0 0 12653 0 0 12869 0 0 12727 0 0 12721 0 0 12678 0 0 12687 0 0 12847 0 0 12833 0 0 12836 0 0 12981 0 0 6499 0 0 0 0 0 0 0 0 0 0 0 0 0 0 0 0 0 0 0 0 0 0 0 0 0 0 0 0 0 
0 0 0 0 0 0 0 0 0 0 0 0 0 0 0 0 0 0 0 0 0 0 0 0 0 0 0 0 0 0 6412 0 0 12773 0 0 13037 0 0 12650 0 0 12768 0 0 12994 0 0 12992 0 0 12890 0 0 12958 0 0 12863 0 0 12563 0 0 12816 0 0 13075 0 0 12803 0 0 12815 0 0 12999 0 0 12986 0 0 12693 0 0 12785 0 0 12946 0 0 12656 0 0 12777 0 0 12841 0 0 12794 0 0 12682 0 0 12638 0 0 12736 0 0 12912 0 0 12744 0 0 12813 0 0 12981 0 0 12845 0 0 12792 0 0 12703 0 0 13055 0 0 12892 0 0 12763 0 0 12992 0 0 12734 0 0 12823 0 0 6354 0 0 0 0 0 0 0 0 0 0 0 0 0 0 0 0 0 0 0 0 0 0 0 0 0 0 0 0 0 
0 0 0 0 0 0 0 0 0 0 0 0 0 0 0 0 0 0 0 0 0 0 0 0 0 0 0 0 0 0 6383 0 0 12831 0 0 12806 0 0 12631 0 0 13075 0 0 12708 0 0 12782 0 0 12746 0 0 12894 0 0 12771 0 0 12881 0 0 12810 0 0 12835 0 0 12599 0 0 12917 0 0 12800 0 0 12984 0 0 12961 0 0 12937 0 0 12950 0 0 12908 0 0 12982 0 0 12807 0 0 12769 0 0 12981 0 0 12674 0 0 12972 0 0 12901 0 0 12809 0 0 12882 0 0 12772 0 0 12753 0 0 12652 0 0 13028 0 0 12770 0 0 13104 0 0 12947 0 0 12739 0 0 12900 0 0 12496 0 0 6398 0 0 0 0 0 0 0 0 0 0 0 0 0 0 0 0 0 0 0 0 0 0 0 0 0 0 0 0 0 
0 0 0 0 0 0 0 0 0 0 0 0 0 0 0 0 0 0 0 0 0 0 0 0 0 0 0 0 0 0 6369 0 0 12913 0 0 12803 0 0 12960 0 0 12632 0 0 12836 0 0 12647 0 0 12939 0 0 12807 0 0 12986 0 0 12809 0 0 13048 0 0 12826 0 0 12764 0 0 12861 0 0 12837 0 0 12830 0 0 12653 0 0 12784 0 0 12796 0 0 12705 0 0 12723 0 0 12918 0 0 12855 0 0 12711 0 0 12790 0 0 12936 0 0 12881 0 0 12611 0 0 12907 0 0 12854 0 0 12744 0 0 12761 0 0 12852 0 0 12869 0 0 12924 0 0 12782 0 0 12700 0 0 12852 0 0 12853 0 0 6338 0 0 0 0 0 0 0 0 0 0 0 0 0 0 0 0 0 0 0 0 0 0 0 0 0 0 0 0 0 
0 0 0 0 0 0 0 0 0 0 0 0 0 0 0 0 0 0 0 0 0 0 0 0 0 0 0 0 0 0 6531 0 0 13036 0 0 12863 0 0 12560 0 0 12678 0 0 12861 0 0 13036 0 0 13010 0 0 12887 0 0 12907 0 0 12939 0 0 12956 0 0 12699 0 0 12703 0 0 12658 0 0 12640 0 0 12705 0 0 12839 0 0 13010 0 0 12603 0 0 12793 0 0 12827 0 0 12627 0 0 12682 0 0 12788 0 0 12800 0 0 12802 0 0 12873 0 0 12792 0 0 12713 0 0 12758 0 0 12983 0 0 12843 0 0 12662 0 0 12687 0 0 12874 0 0 12704 0 0 12704 0 0 12701 0 0 13066 0 0 6414 0 0 0 0 0 0 0 0 0 0 0 0 0 0 0 0 0 0 0 0 0 0 0 0 0 0 0 0 0 
0 0 0 0 0 0 0 0 0 0 0 0 0 0 0 0 0 0 0 0 0 0 0 0 0 0 0 0 0 0 6449 0 0 12844 0 0 12789 0 0 12672 0 0 12710 0 0 12863 0 0 12969 0 0 12617 0 0 12785 0 0 12816 0 0 13046 0 0 12875 0 0 12748 0 0 12887 0 0 12880 0 0 12600 0 0 12911 0 0 12772 0 0 12831 0 0 12901 0 0 12644 0 0 12835 0 0 12804 0 0 12774 0 0 12800 0 0 12959 0 0 12816 0 0 12695 0 0 12878 0 0 12737 0 0 12652 0 0 12770 0 0 12802 0 0 12733 0 0 12761 0 0 12679 0 0 12821 0 0 12696 0 0 12798 0 0 12771 0 0 6503 0 0 0 0 0 0 0 0 0 0 0 0 0 0 0 0 0 0 0 0 0 0 0 0 0 0 0 0 0 
0 0 0 0 0 0 0 0 0 0 0 0 0 0 0 0 0 0 0 0 0 0 0 0 0 0 0 0 0 0 6533 0 0 12799 0 0 12779 0 0 12801 0 0 12657 0 0 12864 0 0 12661 0 0 12963 0 0 12920 0 0 12614 0 0 12875 0 0 12737 0 0 12776 0 0 12673 0 0 12574 0 0 12768 0 0 12784 0 0 12782 0 0 12772 0 0 12590 0 0 12722 0 0 12887 0 0 12808 0 0 12991 0 0 12849 0 0 12977 0 0 12768 0 0 12819 0 0 12768 0 0 12798 0 0 13012 0 0 12921 0 0 12696 0 0 12813 0 0 12883 0 0 13039 0 0 12721 0 0 12916 0 0 12861 0 0 12906 0 0 6393 0 0 0 0 0 0 0 0 0 0 0 0 0 0 0 0 0 0 0 0 0 0 0 0 0 0 0 0 0 
0 0 0 0 0 0 0 0 0 0 0 0 0 0 0 0 0 0 0 0 0 0 0 0 0 0 0 0 0 0 6349 0 0 12975 0 0 12793 0 0 12799 0 0 12863 0 0 12765 0 0 12951 0 0 12802 0 0 12766 0 0 12646 0 0 12768 0 0 12932 0 0 12921 0 0 12867 0 0 12759 0 0 12856 0 0 12812 0 0 12788 0 0 12915 0 0 12847 0 0 13044 0 0 12819 0 0 12900 0 0 12628 0 0 12732 0 0 12941 0 0 12909 0 0 12783 0 0 12587 0 0 13057 0 0 12824 0 0 12830 0 0 12864 0 0 12875 0 0 12759 0 0 12751 0 0 12789 0 0 12819 0 0 12770 0 0 12816 0 0 6522 0 0 0 0 0 0 0 0 0 0 0 0 0 0 0 0 0 0 0 0 0 0 0 0 0 0 0 0 0 
0 0 0 0 0 0 0 0 0 0 0 0 0 0 0 0 0 0 0 0 0 0 0 0 0 0 0 0 0 0 6401 0 0 12691 0 0 12815 0 0 12942 0 0 12809 0 0 12822 0 0 12779 0 0 12762 0 0 12799 0 0 12761 0 0 12843 0 0 12843 0 0 12665 0 0 12692 0 0 12646 0 0 12900 0 0 12843 0 0 12944 0 0 12887 0 0 12571 0 0 12876 0 0 12754 0 0 12800 0 0 12953 0 0 12645 0 0 12728 0 0 13074 0 0 12555 0 0 12677 0 0 12870 0 0 12863 0 0 12778 0 0 12997 0 0 12844 0 0 12798 0 0 12738 0 0 12977 0 0 12798 0 0 12957 0 0 12879 0 0 6333 0 0 0 0 0 0 0 0 0 0 0 0 0 0 0 0 0 0 0 0 0 0 0 0 0 0 0 0 0 
0 0 0 0 0 0 0 0 0 0 0 0 0 0 0 0 0 0 0 0 0 0 0 0 0 0 0 0 0 0 6469 0 0 12982 0 0 12798 0 0 12741 0 0 12793 0 0 13047 0 0 12927 0 0 12898 0 0 12890 0 0 13060 0 0 12759 0 0 12707 0 0 12827 0 0 12781 0 0 12950 0 0 12956 0 0 12803 0 0 12630 0 0 12757 0 0 12980 0 0 12688 0 0 12729 0 0 12740 0 0 12799 0 0 13104 0 0 12648 0 0 12829 0 0 12687 0 0 12777 0 0 12705 0 0 12944 0 0 12956 0 0 12685 0 0 12812 0 0 13062 0 0 12772 0 0 12707 0 0 12916 0 0 12709 0 0 12923 0 0 6270 0 0 0 0 0 0 0 0 0 0 0 0 0 0 0 0 0 0 0 0 0 0 0 0 0 0 0 0 0 
0 0 0 0 0 0 0 0 0 0 0 0 0 0 0 0 0 0 0 0 0 0 0 0 0 0 0 0 0 0 6353 0 0 12699 0 0 12969 0 0 12925 0 0 12844 0 0 12949 0 0 12903 0 0 12791 0 0 12762 0 0 12846 0 0 12832 0 0 12834 0 0 12705 0 0 12715 0 0 12919 0 0 12875 0 0 12966 0 0 12738 0 0 12795 0 0 12794 0 0 12915 0 0 12814 0 0 12925 0 0 13012 0 0 12899 0 0 12785 0 0 12828 0 0 12799 0 0 12830 0 0 12878 0 0 12961 0 0 12865 0 0 13070 0 0 12939 0 0 12960 0 0 12966 0 0 12762 0 0 12637 0 0 12720 0 0 12832 0 0 6641 0 0 0 0 0 0 0 0 0 0 0 0 0 0 0 0 0 0 0 0 0 0 0 0 0 0 0 0 0 
0 0 0 0 0 0 0 0 0 0 0 0 0 0 0 0 0 0 0 0 0 0 0 0 0 0 0 0 0 0 6373 0 0 12909 0 0 12991 0 0 12776 0 0 12821 0 0 12955 0 0 12874 0 0 12755 0 0 12810 0 0 12551 0 0 12650 0 0 12965 0 0 12608 0 0 12856 0 0 12905 0 0 12725 0 0 12596 0 0 12627 0 0 12772 0 0 12954 0 0 12877 0 0 12801 0 0 12813 0 0 13055 0 0 12847 0 0 12770 0 0 12854 0 0 12668 0 0 12819 0 0 12864 0 0 12753 0 0 12831 0 0 12756 0 0 12731 0 0 12751 0 0 12776 0 0 12863 0 0 12690 0 0 12707 0 0 12790 0 0 6343 0 0 0 0 0 0 0 0 0 0 0 0 0 0 0 0 0 0 0 0 0 0 0 0 0 0 0 0 0 
0 0 0 0 0 0 0 0 0 0 0 0 0 0 0 0 0 0 0 0 0 0 0 0 0 0 0 0 0 0 6521 0 0 12997 0 0 12821 0 0 12895 0 0 12760 0 0 12636 0 0 12757 0 0 12832 0 0 12861 0 0 12554 0 0 12853 0 0 12916 0 0 12670 0 0 12660 0 0 12919 0 0 12690 0 0 12741 0 0 12810 0 0 12763 0 0 12859 0 0 12816 0 0 12912 0 0 12769 0 0 13192 0 0 12781 0 0 12832 0 0 12732 0 0 12758 0 0 12781 0 0 12829 0 0 12926 0 0 12730 0 0 12698 0 0 12954 0 0 12920 0 0 12892 0 0 13033 0 0 12778 0 0 12888 0 0 12745 0 0 6503 0 0 0 0 0 0 0 0 0 0 0 0 0 0 0 0 0 0 0 0 0 0 0 0 0 0 0 0 0 
0 0 0 0 0 0 0 0 0 0 0 0 0 0 0 0 0 0 0 0 0 0 0 0 0 0 0 0 0 0 6364 0 0 12776 0 0 12935 0 0 12873 0 0 12903 0 0 12693 0 0 12854 0 0 12647 0 0 12889 0 0 12806 0 0 12591 0 0 12691 0 0 12728 0 0 12809 0 0 12633 0 0 12801 0 0 12565 0 0 12817 0 0 12828 0 0 12712 0 0 12818 0 0 12889 0 0 12648 0 0 12604 0 0 12829 0 0 12852 0 0 12779 0 0 12849 0 0 12709 0 0 12712 0 0 12856 0 0 12968 0 0 13086 0 0 12949 0 0 13080 0 0 12760 0 0 12819 0 0 12895 0 0 12687 0 0 12730 0 0 6403 0 0 0 0 0 0 0 0 0 0 0 0 0 0 0 0 0 0 0 0 0 0 0 0 0 0 0 0 0 
0 0 0 0 0 0 0 0 0 0 0 0 0 0 0 0 0 0 0 0 0 0 0 0 0 0 0 0 0 0 6191 0 0 12732 0 0 12760 0 0 12721 0 0 12765 0 0 12526 0 0 12821 0 0 12584 0 0 12675 0 0 12840 0 0 13038 0 0 12827 0 0 12788 0 0 12701 0 0 12908 0 0 12660 0 0 12789 0 0 12906 0 0 12915 0 0 12828 0 0 12836 0 0 12741 0 0 12841 0 0 12659 0 0 12728 0 0 12842 0 0 12849 0 0 12851 0 0 12659 0 0 12900 0 0 12812 0 0 12867 0 0 12924 0 0 12892 0 0 12916 0 0 12862 0 0 12821 0 0 12806 0 0 12958 0 0 12878 0 0 6370 0 0 0 0 0 0 0 0 0 0 0 0 0 0 0 0 0 0 0 0 0 0 0 0 0 0 0 0 0 
0 0 0 0 0 0 0 0 0 0 0 0 0 0 0 0 0 0 0 0 0 0 0 0 0 0 0 0 0 0 6351 0 0 12883 0 0 12854 0 0 12635 0 0 12866 0 0 12795 0 0 12704 0 0 12728 0 0 12845 0 0 12766 0 0 12936 0 0 12792 0 0 12930 0 0 12912 0 0 12876 0 0 12840 0 0 12545 0 0 12883 0 0 12682 0 0 12662 0 0 12837 0 0 12847 0 0 12648 0 0 12948 0 0 12656 0 0 12919 0 0 12867 0 0 12680 0 0 12864 0 0 12884 0 0 12745 0 0 12816 0 0 12734 0 0 12825 0 0 12799 0 0 12886 0 0 12613 0 0 12901 0 0 12986 0 0 12971 0 0 6446 0 0 0 0 0 0 0 0 0 0 0 0 0 0 0 0 0 0 0 0 0 0 0 0 0 0 0 0 0 
0 0 0 0 0 0 0 0 0 0 0 0 0 0 0 0 0 0 0 0 0 0 0 0 0 0 0 0 0 0 6321 0 0 12628 0 0 12746 0 0 12765 0 0 12873 0 0 12659 0 0 12879 0 0 12693 0 0 12734 0 0 12811 0 0 12801 0 0 12781 0 0 12748 0 0 12882 0 0 12659 0 0 12829 0 0 12966 0 0 12704 0 0 12626 0 0 12736 0 0 12594 0 0 12858 0 0 12832 0 0 12864 0 0 12773 0 0 12724 0 0 12652 0 0 12887 0 0 12840 0 0 12948 0 0 12722 0 0 12637 0 0 12727 0 0 12764 0 0 12769 0 0 12828 0 0 12807 0 0 12765 0 0 12888 0 0 12979 0 0 6480 0 0 0 0 0 0 0 0 0 0 0 0 0 0 0 0 0 0 0 0 0 0 0 0 0 0 0 0 0 
0 0 0 0 0 0 0 0 0 0 0 0 0 0 0 0 0 0 0 0 0 0 0 0 0 0 0 0 0 0 6426 0 0 12952 0 0 12807 0 0 12797 0 0 12861 0 0 12859 0 0 13011 0 0 12799 0 0 12872 0 0 12802 0 0 12745 0 0 12782 0 0 12881 0 0 12830 0 0 12753 0 0 12818 0 0 12767 0 0 12816 0 0 12752 0 0 12940 0 0 12637 0 0 12836 0 0 12770 0 0 12764 0 0 12752 0 0 12906 0 0 12932 0 0 12940 0 0 12778 0 0 12918 0 0 12783 0 0 12907 0 0 12785 0 0 12867 0 0 12958 0 0 12983 0 0 12698 0 0 12881 0 0 12804 0 0 13017 0 0 6350 0 0 0 0 0 0 0 0 0 0 0 0 0 0 0 0 0 0 0 0 0 0 0 0 0 0 0 0 0 
0 0 0 0 0 0 0 0 0 0 0 0 0 0 0 0 0 0 0 0 0 0 0 0 0 0 0 0 0 0 6533 0 0 12778 0 0 12895 0 0 12812 0 0 12667 0 0 12927 0 0 12862 0 0 12848 0 0 12760 0 0 12835 0 0 12729 0 0 12746 0 0 12957 0 0 12816 0 0 12867 0 0 12787 0 0 12920 0 0 13047 0 0 12928 0 0 12692 0 0 12839 0 0 12817 0 0 12833 0 0 12569 0 0 12654 0 0 12819 0 0 12745 0 0 12963 0 0 13022 0 0 12566 0 0 12694 0 0 12721 0 0 12784 0 0 12923 0 0 12801 0 0 12954 0 0 12844 0 0 12873 0 0 12868 0 0 12640 0 0 6459 0 0 0 0 0 0 0 0 0 0 0 0 0 0 0 0 0 0 0 0 0 0 0 0 0 0 0 0 0 
0 0 0 0 0 0 0 0 0 0 0 0 0 0 0 0 0 0 0 0 0 0 0 0 0 0 0 0 0 0 6390 0 0 12757 0 0 12796 0 0 12730 0 0 12669 0 0 13006 0 0 12825 0 0 12957 0 0 12836 0 0 12780 0 0 12837 0 0 12781 0 0 12998 0 0 12989 0 0 12879 0 0 12861 0 0 12753 0 0 12831 0 0 12964 0 0 12662 0 0 12994 0 0 13123 0 0 12785 0 0 13107 0 0 12735 0 0 13089 0 0 12805 0 0 12748 0 0 12553 0 0 12903 0 0 12678 0 0 12733 0 0 12767 0 0 12580 0 0 12835 0 0 12894 0 0 12809 0 0 12957 0 0 12940 0 0 12970 0 0 6304 0 0 0 0 0 0 0 0 0 0 0 0 0 0 0 0 0 0 0 0 0 0 0 0 0 0 0 0 0 
0 0 0 0 0 0 0 0 0 0 0 0 0 0 0 0 0 0 0 0 0 0 0 0 0 0 0 0 0 0 6521 0 0 12785 0 0 12787 0 0 12678 0 0 12818 0 0 12513 0 0 12713 0 0 12768 0 0 12683 0 0 12855 0 0 12718 0 0 12872 0 0 12965 0 0 12849 0 0 12679 0 0 12775 0 0 12782 0 0 12816 0 0 12554 0 0 13013 0 0 12724 0 0 12837 0 0 12780 0 0 12731 0 0 12880 0 0 12947 0 0 12737 0 0 12903 0 0 12769 0 0 12608 0 0 12932 0 0 12942 0 0 12783 0 0 12849 0 0 13158 0 0 12808 0 0 12730 0 0 12935 0 0 12983 0 0 12758 0 0 6418 0 0 0 0 0 0 0 0 0 0 0 0 0 0 0 0 0 0 0 0 0 0 0 0 0 0 0 0 0 
0 0 0 0 0 0 0 0 0 0 0 0 0 0 0 0 0 0 0 0 0 0 0 0 0 0 0 0 0 0 6478 0 0 12903 0 0 12612 0 0 12953 0 0 12673 0 0 12679 0 0 12870 0 0 12930 0 0 12804 0 0 12912 0 0 12634 0 0 12703 0 0 12699 0 0 12798 0 0 12819 0 0 12831 0 0 12645 0 0 12773 0 0 12926 0 0 12914 0 0 12762 0 0 12740 0 0 12781 0 0 13008 0 0 12824 0 0 13002 0 0 12714 0 0 12737 0 0 12919 0 0 12587 0 0 12791 0 0 12810 0 0 12868 0 0 12940 0 0 12941 0 0 12689 0 0 12702 0 0 12748 0 0 12681 0 0 12845 0 0 6360 0 0 0 0 0 0 0 0 0 0 0 0 0 0 0 0 0 0 0 0 0 0 0 0 0 0 0 0 0 
0 0 0 0 0 0 0 0 0 0 0 0 0 0 0 0 0 0 0 0 0 0 0 0 0 0 0 0 0 0 6474 0 0 12733 0 0 12812 0 0 12857 0 0 12848 0 0 12889 0 0 12989 0 0 12974 0 0 12627 0 0 12779 0 0 12845 0 0 12822 0 0 12973 0 0 12921 0 0 12816 0 0 12951 0 0 12963 0 0 12994 0 0 12953 0 0 12847 0 0 12706 0 0 12680 0 0 12839 0 0 12921 0 0 12897 0 0 12906 0 0 12828 0 0 12665 0 0 12938 0 0 12784 0 0 12793 0 0 12723 0 0 12846 0 0 12723 0 0 12708 0 0 12730 0 0 12935 0 0 12781 0 0 12902 0 0 13026 0 0 6352 0 0 0 0 0 0 0 0 0 0 0 0 0 0 0 0 0 0 0 0 0 0 0 0 0 0 0 0 0 
0 0 0 0 0 0 0 0 0 0 0 0 0 0 0 0 0 0 0 0 0 0 0 0 0 0 0 0 0 0 6334 0 0 12812 0 0 12855 0 0 12869 0 0 12792 0 0 12750 0 0 12915 0 0 12751 0 0 12664 0 0 12681 0 0 12911 0 0 12756 0 0 12781 0 0 12724 0 0 12912 0 0 12819 0 0 12623 0 0 12686 0 0 13065 0 0 12842 0 0 13036 0 0 12708 0 0 12784 0 0 12727 0 0 12646 0 0 12763 0 0 12952 0 0 12694 0 0 12754 0 0 12778 0 0 12762 0 0 12875 0 0 12774 0 0 12733 0 0 12746 0 0 12771 0 0 12924 0 0 12969 0 0 12823 0 0 12963 0 0 6432 0 0 0 0 0 0 0 0 0 0 0 0 0 0 0 0 0 0 0 0 0 0 0 0 0 0 0 0 0 
0 0 0 0 0 0 0 0 0 0 0 0 0 0 0 0 0 0 0 0 0 0 0 0 0 0 0 0 0 0 6264 0 0 12605 0 0 12711 0 0 12784 0 0 12780 0 0 12871 0 0 12846 0 0 12768 0 0 12892 0 0 13065 0 0 12873 0 0 12968 0 0 12977 0 0 12617 0 0 12728 0 0 12597 0 0 13064 0 0 12925 0 0 12931 0 0 13017 0 0 12763 0 0 12917 0 0 12787 0 0 12749 0 0 12902 0 0 12820 0 0 12824 0 0 12751 0 0 12611 0 0 12767 0 0 12853 0 0 12864 0 0 12748 0 0 12639 0 0 12774 0 0 12981 0 0 12948 0 0 12886 0 0 13066 0 0 12887 0 0 6360 0 0 0 0 0 0 0 0 0 0 0 0 0 0 0 0 0 0 0 0 0 0 0 0 0 0 0 0 0 
0 0 0 0 0 0 0 0 0 0 0 0 0 0 0 0 0 0 0 0 0 0 0 0 0 0 0 0 0 0 6468 0 0 12921 0 0 12883 0 0 12757 0 0 12828 0 0 12888 0 0 12840 0 0 12842 0 0 12748 0 0 13086 0 0 12763 0 0 12606 0 0 12832 0 0 12677 0 0 12894 0 0 12636 0 0 12896 0 0 12743 0 0 12535 0 0 12786 0 0 12830 0 0 12975 0 0 12750 0 0 12835 0 0 12769 0 0 12962 0 0 12670 0 0 12709 0 0 12794 0 0 12767 0 0 12705 0 0 12689 0 0 12953 0 0 12724 0 0 12854 0 0 12791 0 0 12735 0 0 12886 0 0 12807 0 0 12745 0 0 6268 0 0 0 0 0 0 0 0 0 0 0 0 0 0 0 0 0 0 0 0 0 0 0 0 0 0 0 0 0 
0 0 0 0 0 0 0 0 0 0 0 0 0 0 0 0 0 0 0 0 0 0 0 0 0 0 0 0 0 0 6486 0 0 12654 0 0 12900 0 0 12689 0 0 12876 0 0 12859 0 0 12954 0 0 12813 0 0 12871 0 0 12824 0 0 12921 0 0 12948 0 0 12917 0 0 12743 0 0 12837 0 0 12883 0 0 12795 0 0 12865 0 0 12949 0 0 12852 0 0 12678 0 0 12684 0 0 12860 0 0 12904 0 0 13011 0 0 12599 0 0 12917 0 0 12915 0 0 12557 0 0 12928 0 0 13058 0 0 12899 0 0 12695 0 0 12929 0 0 12746 0 0 12853 0 0 12758 0 0 12924 0 0 12838 0 0 12888 0 0 6509 0 0 0 0 0 0 0 0 0 0 0 0 0 0 0 0 0 0 0 0 0 0 0 0 0 0 0 0 0 
0 0 0 0 0 0 0 0 0 0 0 0 0 0 0 0 0 0 0 0 0 0 0 0 0 0 0 0 0 0 6431 0 0 12898 0 0 12864 0 0 12739 0 0 12825 0 0 12959 0 0 12800 0 0 12876 0 0 12923 0 0 12599 0 0 12765 0 0 12778 0 0 12877 0 0 12791 0 0 12782 0 0 12728 0 0 12768 0 0 12953 0 0 12900 0 0 12673 0 0 12775 0 0 12836 0 0 12931 0 0 12900 0 0 12880 0 0 12744 0 0 12811 0 0 12851 0 0 12987 0 0 12713 0 0 12667 0 0 13000 0 0 12570 0 0 12909 0 0 12789 0 0 12733 0 0 12892 0 0 12897 0 0 12787 0 0 12827 0 0 6477 0 0 0 0 0 0 0 0 0 0 0 0 0 0 0 0 0 0 0 0 0 0 0 0 0 0 0 0 0 
0 0 0 0 0 0 0 0 0 0 0 0 0 0 0 0 0 0 0 0 0 0 0 0 0 0 0 0 0 0 6410 0 0 12810 0 0 12657 0 0 12741 0 0 12754 0 0 12625 0 0 12885 0 0 12812 0 0 12876 0 0 12492 0 0 12971 0 0 12874 0 0 12818 0 0 13040 0 0 12856 0 0 12695 0 0 12954 0 0 12588 0 0 12636 0 0 12688 0 0 12935 0 0 12772 0 0 12840 0 0 12766 0 0 12661 0 0 12852 0 0 12745 0 0 13008 0 0 12709 0 0 12787 0 0 12867 0 0 12801 0 0 12683 0 0 12837 0 0 12783 0 0 12895 0 0 12943 0 0 12719 0 0 12730 0 0 12811 0 0 6418 0 0 0 0 0 0 0 0 0 0 0 0 0 0 0 0 0 0 0 0 0 0 0 0 0 0 0 0 0 
0 0 0 0 0 0 0 0 0 0 0 0 0 0 0 0 0 0 0 0 0 0 0 0 0 0 0 0 0 0 6358 0 0 12802 0 0 12944 0 0 12739 0 0 12945 0 0 12729 0 0 12837 0 0 12763 0 0 12667 0 0 12891 0 0 12664 0 0 12601 0 0 12774 0 0 12539 0 0 12979 0 0 12820 0 0 12804 0 0 12811 0 0 12946 0 0 12783 0 0 12849 0 0 12769 0 0 12697 0 0 12920 0 0 12947 0 0 12785 0 0 12618 0 0 12932 0 0 12865 0 0 12673 0 0 12620 0 0 12659 0 0 12792 0 0 12784 0 0 12859 0 0 12660 0 0 12983 0 0 12898 0 0 12930 0 0 12834 0 0 6455 0 0 0 0 0 0 0 0 0 0 0 0 0 0 0 0 0 0 0 0 0 0 0 0 0 0 0 0 0 
0 0 0 0 0 0 0 0 0 0 0 0 0 0 0 0 0 0 0 0 0 0 0 0 0 0 0 0 0 0 3327 0 0 6429 0 0 6412 0 0 6461 0 0 6452 0 0 6359 0 0 6333 0 0 6357 0 0 6328 0 0 6531 0 0 6477 0 0 6308 0 0 6347 0 0 6316 0 0 6335 0 0 6463 0 0 6539 0 0 6311 0 0 6386 0 0 6390 0 0 6451 0 0 6490 0 0 6362 0 0 6275 0 0 6400 0 0 6489 0 0 6326 0 0 6457 0 0 6390 0 0 6334 0 0 6472 0 0 6415 0 0 6369 0 0 6461 0 0 6398 0 0 6489 0 0 6295 0 0 6370 0 0 6435 0 0 6507 0 0 3173 0 0 0 0 0 0 0 0 0 0 0 0 0 0 0 0 0 0 0 0 0 0 0 0 0 0 0 0 0 
0 0 0 0 0 0 0 0 0 0 0 0 0 0 0 0 0 0 0 0 0 0 0 0 0 0 0 0 0 0 0 0 0 0 0 0 0 0 0 0 0 0 0 0 0 0 0 0 0 0 0 0 0 0 0 0 0 0 0 0 0 0 0 0 0 0 0 0 0 0 0 0 0 0 0 0 0 0 0 0 0 0 0 0 0 0 0 0 0 0 0 0 0 0 0 0 0 0 0 0 0 0 0 0 0 0 0 0 0 0 0 0 0 0 0 0 0 0 0 0 0 0 0 0 0 0 0 0 0 0 0 0 0 0 0 0 0 0 0 0 0 0 0 0 0 0 0 0 0 0 0 0 0 0 0 0 0 0 0 0 0 0 0 0 0 0 0 0 0 0 0 0 0 0 0 0 0 0 0 0 
0 0 0 0 0 0 0 0 0 0 0 0 0 0 0 0 0 0 0 0 0 0 0 0 0 0 0 0 0 0 0 0 0 0 0 0 0 0 0 0 0 0 0 0 0 0 0 0 0 0 0 0 0 0 0 0 0 0 0 0 0 0 0 0 0 0 0 0 0 0 0 0 0 0 0 0 0 0 0 0 0 0 0 0 0 0 0 0 0 0 0 0 0 0 0 0 0 0 0 0 0 0 0 0 0 0 0 0 0 0 0 0 0 0 0 0 0 0 0 0 0 0 0 0 0 0 0 0 0 0 0 0 0 0 0 0 0 0 0 0 0 0 0 0 0 0 0 0 0 0 0 0 0 0 0 0 0 0 0 0 0 0 0 0 0 0 0 0 0 0 0 0 0 0 0 0 0 0 0 0 
0 0 0 0 0 0 0 0 0 0 0 0 0 0 0 0 0 0 0 0 0 0 0 0 0 0 0 0 0 0 0 0 0 0 0 0 0 0 0 0 0 0 0 0 0 0 0 0 0 0 0 0 0 0 0 0 0 0 0 0 0 0 0 0 0 0 0 0 0 0 0 0 0 0 0 0 0 0 0 0 0 0 0 0 0 0 0 0 0 0 0 0 0 0 0 0 0 0 0 0 0 0 0 0 0 0 0 0 0 0 0 0 0 0 0 0 0 0 0 0 0 0 0 0 0 0 0 0 0 0 0 0 0 0 0 0 0 0 0 0 0 0 0 0 0 0 0 0 0 0 0 0 0 0 0 0 0 0 0 0 0 0 0 0 0 0 0 0 0 0 0 0 0 0 0 0 0 0 0 0 
0 0 0 0 0 0 0 0 0 0 0 0 0 0 0 0 0 0 0 0 0 0 0 0 0 0 0 0 0 0 0 0 0 0 0 0 0 0 0 0 0 0 0 0 0 0 0 0 0 0 0 0 0 0 0 0 0 0 0 0 0 0 0 0 0 0 0 0 0 0 0 0 0 0 0 0 0 0 0 0 0 0 0 0 0 0 0 0 0 0 0 0 0 0 0 0 0 0 0 0 0 0 0 0 0 0 0 0 0 0 0 0 0 0 0 0 0 0 0 0 0 0 0 0 0 0 0 0 0 0 0 0 0 0 0 0 0 0 0 0 0 0 0 0 0 0 0 0 0 0 0 0 0 0 0 0 0 0 0 0 0 0 0 0 0 0 0 0 0 0 0 0 0 0 0 0 0 0 0 0 
0 0 0 0 0 0 0 0 0 0 0 0 0 0 0 0 0 0 0 0 0 0 0 0 0 0 0 0 0 0 0 0 0 0 0 0 0 0 0 0 0 0 0 0 0 0 0 0 0 0 0 0 0 0 0 0 0 0 0 0 0 0 0 0 0 0 0 0 0 0 0 0 0 0 0 0 0 0 0 0 0 0 0 0 0 0 0 0 0 0 0 0 0 0 0 0 0 0 0 0 0 0 0 0 0 0 0 0 0 0 0 0 0 0 0 0 0 0 0 0 0 0 0 0 0 0 0 0 0 0 0 0 0 0 0 0 0 0 0 0 0 0 0 0 0 0 0 0 0 0 0 0 0 0 0 0 0 0 0 0 0 0 0 0 0 0 0 0 0 0 0 0 0 0 0 0 0 0 0 0 
0 0 0 0 0 0 0 0 0 0 0 0 0 0 0 0 0 0 0 0 0 0 0 0 0 0 0 0 0 0 0 0 0 0 0 0 0 0 0 0 0 0 0 0 0 0 0 0 0 0 0 0 0 0 0 0 0 0 0 0 0 0 0 0 0 0 0 0 0 0 0 0 0 0 0 0 0 0 0 0 0 0 0 0 0 0 0 0 0 0 0 0 0 0 0 0 0 0 0 0 0 0 0 0 0 0 0 0 0 0 0 0 0 0 0 0 0 0 0 0 0 0 0 0 0 0 0 0 0 0 0 0 0 0 0 0 0 0 0 0 0 0 0 0 0 0 0 0 0 0 0 0 0 0 0 0 0 0 0 0 0 0 0 0 0 0 0 0 0 0 0 0 0 0 0 0 0 0 0 0 
0 0 0 0 0 0 0 0 0 0 0 0 0 0 0 0 0 0 0 0 0 0 0 0 0 0 0 0 0 0 0 0 0 0 0 0 0 0 0 0 0 0 0 0 0 0 0 0 0 0 0 0 0 0 0 0 0 0 0 0 0 0 0 0 0 0 0 0 0 0 0 0 0 0 0 0 0 0 0 0 0 0 0 0 0 0 0 0 0 0 0 0 0 0 0 0 0 0 0 0 0 0 0 0 0 0 0 0 0 0 0 0 0 0 0 0 0 0 0 0 0 0 0 0 0 0 0 0 0 0 0 0 0 0 0 0 0 0 0 0 0 0 0 0 0 0 0 0 0 0 0 0 0 0 0 0 0 0 0 0 0 0 0 0 0 0 0 0 0 0 0 0 0 0 0 0 0 0 0 0 
0 0 0 0 0 0 0 0 0 0 0 0 0 0 0 0 0 0 0 0 0 0 0 0 0 0 0 0 0 0 0 0 0 0 0 0 0 0 0 0 0 0 0 0 0 0 0 0 0 0 0 0 0 0 0 0 0 0 0 0 0 0 0 0 0 0 0 0 0 0 0 0 0 0 0 0 0 0 0 0 0 0 0 0 0 0 0 0 0 0 0 0 0 0 0 0 0 0 0 0 0 0 0 0 0 0 0 0 0 0 0 0 0 0 0 0 0 0 0 0 0 0 0 0 0 0 0 0 0 0 0 0 0 0 0 0 0 0 0 0 0 0 0 0 0 0 0 0 0 0 0 0 0 0 0 0 0 0 0 0 0 0 0 0 0 0 0 0 0 0 0 0 0 0 0 0 0 0 0 0 
0 0 0 0 0 0 0 0 0 0 0 0 0 0 0 0 0 0 0 0 0 0 0 0 0 0 0 0 0 0 0 0 0 0 0 0 0 0 0 0 0 0 0 0 0 0 0 0 0 0 0 0 0 0 0 0 0 0 0 0 0 0 0 0 0 0 0 0 0 0 0 0 0 0 0 0 0 0 0 0 0 0 0 0 0 0 0 0 0 0 0 0 0 0 0 0 0 0 0 0 0 0 0 0 0 0 0 0 0 0 0 0 0 0 0 0 0 0 0 0 0 0 0 0 0 0 0 0 0 0 0 0 0 0 0 0 0 0 0 0 0 0 0 0 0 0 0 0 0 0 0 0 0 0 0 0 0 0 0 0 0 0 0 0 0 0 0 0 0 0 0 0 0 0 0 0 0 0 0 0 
