P3
# This is a dose file slice at depth 63 of 100
60 60
# now we give the maximum value of the RGB coordinates.
21610
0 0 0 0 0 0 0 0 0 0 0 0 0 0 0 1 0 0 0 0 0 0 0 0 2 0 0 0 0 0 1 0 0 4 0 0 0 0 0 0 0 0 0 0 0 0 0 0 1 0 0 0 0 0 1 0 0 0 0 0 2 0 0 1 0 0 1 0 0 0 0 0 0 0 0 1 0 0 1 0 0 1 0 0 0 0 0 1 0 0 1 0 0 1 0 0 0 0 0 0 0 0 0 0 0 0 0 0 3 0 0 0 0 0 1 0 0 2 0 0 1 0 0 3 0 0 1 0 0 0 0 0 0 0 0 0 0 0 0 0 0 1 0 0 0 0 0 0 0 0 0 0 0 0 0 0 0 0 0 0 0 0 0 0 0 1 0 0 0 0 0 0 0 0 0 0 0 2 0 0 
2 0 0 0 0 0 0 0 0 0 0 0 1 0 0 1 0 0 2 0 0 2 0 0 1 0 0 2 0 0 3 0 0 2 0 0 8 0 0 0 0 0 0 0 0 0 0 0 1 0 0 2 0 0 1 0 0 6 0 0 4 0 0 4 0 0 2 0 0 2 0 0 4 0 0 3 0 0 2 0 0 3 0 0 3 0 0 2 0 0 2 0 0 4 0 0 1 0 0 3 0 0 1 0 0 0 0 0 4 0 0 3 0 0 2 0 0 3 0 0 4 0 0 5 0 0 1 0 0 4 0 0 1 0 0 0 0 0 2 0 0 3 0 0 1 0 0 0 0 0 0 0 0 3 0 0 0 0 0 2 0 0 2 0 0 0 0 0 2 0 0 2 0 0 4 0 0 2 0 0 
1 0 0 2 0 0 0 0 0 0 0 0 2 0 0 1 0 0 1 0 0 4 0 0 1 0 0 2 0 0 2 0 0 1 0 0 2 0 0 4 0 0 3 0 0 1 0 0 1 0 0 2 0 0 1 0 0 4 0 0 5 0 0 5 0 0 4 0 0 3 0 0 6 0 0 3 0 0 5 0 0 6 0 0 2 0 0 2 0 0 7 0 0 4 0 0 3 0 0 4 0 0 1 0 0 1 0 0 4 0 0 3 0 0 1 0 0 2 0 0 4 0 0 4 0 0 6 0 0 1 0 0 1 0 0 1 0 0 3 0 0 7 0 0 1 0 0 3 0 0 1 0 0 6 0 0 4 0 0 0 0 0 4 0 0 0 0 0 3 0 0 3 0 0 2 0 0 0 0 0 
0 0 0 0 0 0 3 0 0 1 0 0 2 0 0 1 0 0 1 0 0 3 0 0 0 0 0 2 0 0 4 0 0 1 0 0 2 0 0 4 0 0 1 0 0 4 0 0 2 0 0 4 0 0 1 0 0 2 0 0 2 0 0 6 0 0 5 0 0 9 0 0 8 0 0 3 0 0 6 0 0 7 0 0 5 0 0 5 0 0 5 0 0 1 0 0 2 0 0 0 0 0 2 0 0 0 0 0 6 0 0 5 0 0 1 0 0 2 0 0 2 0 0 6 0 0 8 0 0 0 0 0 2 0 0 1 0 0 9 0 0 3 0 0 4 0 0 3 0 0 4 0 0 3 0 0 3 0 0 2 0 0 1 0 0 4 0 0 5 0 0 1 0 0 2 0 0 0 0 0 
0 0 0 0 0 0 1 0 0 1 0 0 3 0 0 2 0 0 1 0 0 1 0 0 0 0 0 0 0 0 4 0 0 1 0 0 1 0 0 2 0 0 3 0 0 5 0 0 5 0 0 4 0 0 3 0 0 4 0 0 11 0 0 1 0 0 4 0 0 6 0 0 6 0 0 0 0 0 5 0 0 6 0 0 8 0 0 8 0 0 2 0 0 0 0 0 0 0 0 4 0 0 1 0 0 3 0 0 6 0 0 6 0 0 2 0 0 3 0 0 1 0 0 10 0 0 3 0 0 3 0 0 3 0 0 2 0 0 7 0 0 4 0 0 4 0 0 3 0 0 5 0 0 3 0 0 6 0 0 4 0 0 6 0 0 2 0 0 1 0 0 2 0 0 1 0 0 3 0 0 
0 0 0 1 0 0 1 0 0 6 0 0 3 0 0 3 0 0 2 0 0 1 0 0 1 0 0 3 0 0 5 0 0 1 0 0 2 0 0 3 0 0 8 0 0 2 0 0 4 0 0 3 0 0 1 0 0 5 0 0 4 0 0 4 0 0 7 0 0 4 0 0 11 0 0 1 0 0 5 0 0 11 0 0 9 0 0 6 0 0 3 0 0 4 0 0 1 0 0 3 0 0 4 0 0 3 0 0 1 0 0 5 0 0 4 0 0 0 0 0 3 0 0 3 0 0 5 0 0 4 0 0 1 0 0 3 0 0 7 0 0 8 0 0 2 0 0 3 0 0 2 0 0 6 0 0 4 0 0 1 0 0 3 0 0 4 0 0 3 0 0 0 0 0 2 0 0 0 0 0 
0 0 0 1 0 0 0 0 0 4 0 0 1 0 0 3 0 0 2 0 0 1 0 0 3 0 0 1 0 0 2 0 0 5 0 0 5 0 0 9 0 0 8 0 0 6 0 0 3 0 0 4 0 0 5 0 0 3 0 0 2 0 0 1 0 0 6 0 0 6 0 0 6 0 0 5 0 0 11 0 0 10 0 0 5 0 0 9 0 0 5 0 0 2 0 0 5 0 0 3 0 0 8 0 0 5 0 0 4 0 0 7 0 0 6 0 0 1 0 0 5 0 0 4 0 0 5 0 0 7 0 0 3 0 0 1 0 0 10 0 0 2 0 0 4 0 0 2 0 0 3 0 0 5 0 0 2 0 0 4 0 0 6 0 0 4 0 0 2 0 0 1 0 0 1 0 0 0 0 0 
2 0 0 4 0 0 3 0 0 3 0 0 5 0 0 3 0 0 6 0 0 4 0 0 2 0 0 5 0 0 8 0 0 4 0 0 6 0 0 4 0 0 5 0 0 10 0 0 7 0 0 11 0 0 7 0 0 7 0 0 5 0 0 7 0 0 14 0 0 3 0 0 7 0 0 10 0 0 8 0 0 4 0 0 7 0 0 7 0 0 3 0 0 3 0 0 6 0 0 8 0 0 6 0 0 8 0 0 7 0 0 12 0 0 4 0 0 6 0 0 10 0 0 6 0 0 8 0 0 5 0 0 2 0 0 4 0 0 10 0 0 3 0 0 8 0 0 8 0 0 7 0 0 5 0 0 6 0 0 5 0 0 3 0 0 2 0 0 0 0 0 3 0 0 3 0 0 5 0 0 
1 0 0 2 0 0 1 0 0 0 0 0 2 0 0 3 0 0 3 0 0 2 0 0 4 0 0 4 0 0 6 0 0 9 0 0 4 0 0 7 0 0 12 0 0 10 0 0 5 0 0 12 0 0 10 0 0 10 0 0 12 0 0 12 0 0 17 0 0 8 0 0 11 0 0 12 0 0 10 0 0 8 0 0 10 0 0 10 0 0 13 0 0 10 0 0 8 0 0 7 0 0 7 0 0 13 0 0 10 0 0 9 0 0 14 0 0 8 0 0 13 0 0 11 0 0 10 0 0 10 0 0 10 0 0 9 0 0 11 0 0 4 0 0 9 0 0 8 0 0 9 0 0 7 0 0 8 0 0 4 0 0 3 0 0 2 0 0 2 0 0 2 0 0 0 0 0 1 0 0 
1 0 0 2 0 0 2 0 0 3 0 0 1 0 0 1 0 0 2 0 0 4 0 0 6 0 0 6 0 0 31 0 0 43 0 0 43 0 0 40 0 0 39 0 0 42 0 0 41 0 0 50 0 0 54 0 0 47 0 0 42 0 0 35 0 0 38 0 0 41 0 0 47 0 0 47 0 0 43 0 0 40 0 0 42 0 0 42 0 0 48 0 0 45 0 0 33 0 0 39 0 0 38 0 0 43 0 0 55 0 0 42 0 0 42 0 0 55 0 0 39 0 0 37 0 0 43 0 0 38 0 0 47 0 0 49 0 0 49 0 0 31 0 0 36 0 0 43 0 0 20 0 0 5 0 0 4 0 0 2 0 0 1 0 0 2 0 0 4 0 0 4 0 0 2 0 0 0 0 0 
0 0 0 1 0 0 1 0 0 3 0 0 5 0 0 1 0 0 1 0 0 3 0 0 4 0 0 23 0 0 1300 0 0 2640 0 0 2565 0 0 2608 0 0 2588 0 0 2682 0 0 2717 0 0 2715 0 0 2616 0 0 2657 0 0 2632 0 0 2589 0 0 2633 0 0 2638 0 0 2591 0 0 2690 0 0 2633 0 0 2601 0 0 2709 0 0 2691 0 0 2690 0 0 2651 0 0 2672 0 0 2553 0 0 2613 0 0 2622 0 0 2592 0 0 2647 0 0 2651 0 0 2647 0 0 2678 0 0 2707 0 0 2637 0 0 2577 0 0 2619 0 0 2613 0 0 2584 0 0 2706 0 0 2659 0 0 2618 0 0 1363 0 0 23 0 0 6 0 0 4 0 0 1 0 0 3 0 0 4 0 0 3 0 0 1 0 0 0 0 0 
0 0 0 2 0 0 1 0 0 0 0 0 3 0 0 5 0 0 4 0 0 5 0 0 4 0 0 38 0 0 2635 0 0 5167 0 0 5279 0 0 5280 0 0 5206 0 0 5198 0 0 5254 0 0 5155 0 0 5206 0 0 5283 0 0 5139 0 0 5241 0 0 5163 0 0 5232 0 0 5318 0 0 5283 0 0 5425 0 0 5394 0 0 5310 0 0 5335 0 0 5088 0 0 5140 0 0 5297 0 0 5150 0 0 5210 0 0 5169 0 0 5290 0 0 5303 0 0 5236 0 0 5339 0 0 5291 0 0 5335 0 0 5202 0 0 5156 0 0 5268 0 0 5201 0 0 5307 0 0 5249 0 0 5162 0 0 5225 0 0 2605 0 0 35 0 0 7 0 0 5 0 0 5 0 0 0 0 0 3 0 0 1 0 0 1 0 0 3 0 0 
0 0 0 0 0 0 1 0 0 2 0 0 0 0 0 2 0 0 3 0 0 10 0 0 13 0 0 45 0 0 2587 0 0 5207 0 0 5356 0 0 5288 0 0 5316 0 0 5275 0 0 5181 0 0 5341 0 0 5225 0 0 5213 0 0 5237 0 0 5264 0 0 5150 0 0 5345 0 0 5252 0 0 5223 0 0 5210 0 0 5352 0 0 5327 0 0 5413 0 0 5238 0 0 5249 0 0 5318 0 0 5335 0 0 5296 0 0 5217 0 0 5272 0 0 5242 0 0 5260 0 0 5304 0 0 5325 0 0 5329 0 0 5224 0 0 5350 0 0 5229 0 0 5234 0 0 5308 0 0 5339 0 0 5329 0 0 5267 0 0 2687 0 0 36 0 0 5 0 0 8 0 0 4 0 0 2 0 0 4 0 0 2 0 0 3 0 0 1 0 0 
0 0 0 2 0 0 4 0 0 4 0 0 2 0 0 2 0 0 6 0 0 6 0 0 8 0 0 33 0 0 2671 0 0 5285 0 0 5296 0 0 5320 0 0 5373 0 0 5288 0 0 5191 0 0 5349 0 0 5378 0 0 5226 0 0 5241 0 0 5220 0 0 5208 0 0 5334 0 0 5240 0 0 5355 0 0 5295 0 0 5224 0 0 5270 0 0 5368 0 0 5322 0 0 5453 0 0 5211 0 0 5339 0 0 5186 0 0 5241 0 0 5242 0 0 5262 0 0 5425 0 0 5309 0 0 5263 0 0 5149 0 0 5257 0 0 5295 0 0 5305 0 0 5328 0 0 5259 0 0 5127 0 0 5162 0 0 5307 0 0 2668 0 0 43 0 0 7 0 0 5 0 0 3 0 0 4 0 0 0 0 0 3 0 0 2 0 0 3 0 0 
1 0 0 1 0 0 1 0 0 5 0 0 5 0 0 6 0 0 4 0 0 9 0 0 12 0 0 40 0 0 2705 0 0 5358 0 0 5344 0 0 5237 0 0 5309 0 0 5322 0 0 5330 0 0 5296 0 0 5421 0 0 5193 0 0 5156 0 0 5341 0 0 5302 0 0 5273 0 0 5290 0 0 5285 0 0 5269 0 0 5230 0 0 5288 0 0 5246 0 0 5300 0 0 5173 0 0 5246 0 0 5169 0 0 5228 0 0 5279 0 0 5286 0 0 5287 0 0 5490 0 0 5407 0 0 5201 0 0 5262 0 0 5262 0 0 5334 0 0 5273 0 0 5312 0 0 5238 0 0 5266 0 0 5313 0 0 5332 0 0 2534 0 0 40 0 0 8 0 0 7 0 0 6 0 0 6 0 0 2 0 0 3 0 0 4 0 0 1 0 0 
1 0 0 2 0 0 2 0 0 5 0 0 4 0 0 5 0 0 5 0 0 7 0 0 10 0 0 42 0 0 2747 0 0 5134 0 0 5334 0 0 5320 0 0 5371 0 0 5222 0 0 5405 0 0 5249 0 0 5434 0 0 5224 0 0 5213 0 0 5378 0 0 5258 0 0 5301 0 0 5337 0 0 5335 0 0 5340 0 0 5386 0 0 5331 0 0 5368 0 0 5296 0 0 5264 0 0 5286 0 0 5201 0 0 5363 0 0 5282 0 0 5396 0 0 5175 0 0 5338 0 0 5232 0 0 5271 0 0 5266 0 0 5406 0 0 5336 0 0 5296 0 0 5314 0 0 5228 0 0 5219 0 0 5378 0 0 5321 0 0 2684 0 0 39 0 0 7 0 0 3 0 0 2 0 0 2 0 0 6 0 0 3 0 0 4 0 0 3 0 0 
1 0 0 3 0 0 2 0 0 1 0 0 3 0 0 6 0 0 5 0 0 7 0 0 14 0 0 47 0 0 2561 0 0 5394 0 0 5369 0 0 5396 0 0 5191 0 0 5287 0 0 5225 0 0 5226 0 0 5279 0 0 5235 0 0 5422 0 0 5283 0 0 5239 0 0 5227 0 0 5293 0 0 5215 0 0 5360 0 0 5300 0 0 5331 0 0 5346 0 0 5339 0 0 5356 0 0 5296 0 0 5231 0 0 5247 0 0 5204 0 0 5262 0 0 5169 0 0 5379 0 0 5197 0 0 5221 0 0 5266 0 0 5233 0 0 5253 0 0 5200 0 0 5221 0 0 5337 0 0 5256 0 0 5197 0 0 5108 0 0 2641 0 0 41 0 0 6 0 0 7 0 0 6 0 0 4 0 0 3 0 0 7 0 0 6 0 0 2 0 0 
0 0 0 1 0 0 0 0 0 1 0 0 5 0 0 9 0 0 7 0 0 6 0 0 11 0 0 39 0 0 2614 0 0 5306 0 0 5225 0 0 5232 0 0 5269 0 0 5222 0 0 5325 0 0 5188 0 0 5270 0 0 5452 0 0 5226 0 0 5254 0 0 5311 0 0 5197 0 0 5391 0 0 5332 0 0 5279 0 0 5290 0 0 5343 0 0 5242 0 0 5257 0 0 5014 0 0 5350 0 0 5325 0 0 5301 0 0 5430 0 0 5227 0 0 5253 0 0 5275 0 0 5234 0 0 5337 0 0 5212 0 0 5183 0 0 5341 0 0 5242 0 0 5245 0 0 5349 0 0 5317 0 0 5297 0 0 5333 0 0 2607 0 0 40 0 0 12 0 0 13 0 0 4 0 0 5 0 0 3 0 0 5 0 0 3 0 0 1 0 0 
0 0 0 0 0 0 1 0 0 1 0 0 2 0 0 3 0 0 2 0 0 5 0 0 11 0 0 41 0 0 2590 0 0 5267 0 0 5359 0 0 5322 0 0 5281 0 0 5262 0 0 5242 0 0 5284 0 0 5282 0 0 5313 0 0 5246 0 0 5237 0 0 5184 0 0 5216 0 0 5338 0 0 5208 0 0 5207 0 0 5357 0 0 5302 0 0 5243 0 0 5301 0 0 5244 0 0 5354 0 0 5409 0 0 5214 0 0 5269 0 0 5282 0 0 5340 0 0 5309 0 0 5224 0 0 5245 0 0 5199 0 0 5179 0 0 5249 0 0 5348 0 0 5294 0 0 5328 0 0 5358 0 0 5294 0 0 5328 0 0 2637 0 0 33 0 0 3 0 0 2 0 0 4 0 0 5 0 0 6 0 0 1 0 0 0 0 0 0 0 0 
2 0 0 5 0 0 2 0 0 3 0 0 5 0 0 7 0 0 8 0 0 10 0 0 12 0 0 46 0 0 2580 0 0 5165 0 0 5228 0 0 5260 0 0 5309 0 0 5380 0 0 5334 0 0 5230 0 0 5313 0 0 5243 0 0 5378 0 0 5125 0 0 5241 0 0 5306 0 0 5296 0 0 5320 0 0 5241 0 0 5244 0 0 5442 0 0 5286 0 0 5317 0 0 5367 0 0 5302 0 0 5296 0 0 5351 0 0 5235 0 0 5538 0 0 5417 0 0 5335 0 0 5268 0 0 5354 0 0 5193 0 0 5228 0 0 5252 0 0 5339 0 0 5222 0 0 5258 0 0 5357 0 0 5276 0 0 5256 0 0 2656 0 0 39 0 0 7 0 0 6 0 0 6 0 0 4 0 0 3 0 0 5 0 0 0 0 0 3 0 0 
2 0 0 1 0 0 6 0 0 6 0 0 3 0 0 5 0 0 6 0 0 6 0 0 11 0 0 46 0 0 2630 0 0 5224 0 0 5294 0 0 5258 0 0 5304 0 0 5447 0 0 5260 0 0 5291 0 0 5352 0 0 5358 0 0 5280 0 0 5247 0 0 5309 0 0 5272 0 0 5324 0 0 5317 0 0 5346 0 0 5221 0 0 5215 0 0 5181 0 0 5444 0 0 5283 0 0 5192 0 0 5305 0 0 5258 0 0 5379 0 0 5370 0 0 5361 0 0 5213 0 0 5221 0 0 5196 0 0 5341 0 0 5288 0 0 5289 0 0 5356 0 0 5187 0 0 5214 0 0 5298 0 0 5288 0 0 5239 0 0 2710 0 0 51 0 0 14 0 0 11 0 0 12 0 0 9 0 0 3 0 0 4 0 0 2 0 0 0 0 0 
1 0 0 3 0 0 3 0 0 2 0 0 2 0 0 0 0 0 4 0 0 5 0 0 4 0 0 41 0 0 2662 0 0 5208 0 0 5342 0 0 5384 0 0 5319 0 0 5446 0 0 5355 0 0 5238 0 0 5375 0 0 5211 0 0 5273 0 0 5220 0 0 5270 0 0 5169 0 0 5267 0 0 5342 0 0 5301 0 0 5246 0 0 5269 0 0 5240 0 0 5304 0 0 5267 0 0 5313 0 0 5298 0 0 5242 0 0 5174 0 0 5255 0 0 5331 0 0 5158 0 0 5252 0 0 5337 0 0 5307 0 0 5417 0 0 5215 0 0 5254 0 0 5293 0 0 5161 0 0 5280 0 0 5294 0 0 5241 0 0 2588 0 0 41 0 0 10 0 0 13 0 0 9 0 0 3 0 0 3 0 0 1 0 0 1 0 0 2 0 0 
2 0 0 4 0 0 3 0 0 5 0 0 1 0 0 6 0 0 10 0 0 9 0 0 9 0 0 49 0 0 2676 0 0 5228 0 0 5232 0 0 5395 0 0 5209 0 0 5267 0 0 5185 0 0 5210 0 0 5206 0 0 5231 0 0 5264 0 0 5246 0 0 5260 0 0 5280 0 0 5310 0 0 5322 0 0 5297 0 0 5305 0 0 5213 0 0 5306 0 0 5237 0 0 5228 0 0 5285 0 0 5306 0 0 5321 0 0 5258 0 0 5299 0 0 5387 0 0 5316 0 0 5393 0 0 5345 0 0 5395 0 0 5354 0 0 5293 0 0 5279 0 0 5242 0 0 5251 0 0 5322 0 0 5238 0 0 5139 0 0 2645 0 0 35 0 0 11 0 0 11 0 0 8 0 0 3 0 0 2 0 0 1 0 0 4 0 0 3 0 0 
1 0 0 3 0 0 2 0 0 2 0 0 6 0 0 6 0 0 8 0 0 4 0 0 11 0 0 43 0 0 2589 0 0 5291 0 0 5316 0 0 5373 0 0 5348 0 0 5324 0 0 5416 0 0 5378 0 0 5253 0 0 5247 0 0 5313 0 0 5390 0 0 5341 0 0 5345 0 0 5228 0 0 5285 0 0 5370 0 0 5350 0 0 5355 0 0 5271 0 0 5298 0 0 5434 0 0 5244 0 0 5374 0 0 5202 0 0 5236 0 0 5239 0 0 5133 0 0 5320 0 0 5233 0 0 5469 0 0 5369 0 0 5155 0 0 5207 0 0 5267 0 0 5330 0 0 5204 0 0 5158 0 0 5337 0 0 5306 0 0 2634 0 0 46 0 0 12 0 0 5 0 0 5 0 0 4 0 0 4 0 0 6 0 0 3 0 0 6 0 0 
2 0 0 9 0 0 5 0 0 5 0 0 2 0 0 3 0 0 5 0 0 6 0 0 9 0 0 35 0 0 2578 0 0 5243 0 0 5318 0 0 5342 0 0 5399 0 0 5220 0 0 5322 0 0 5305 0 0 5252 0 0 5375 0 0 5277 0 0 5261 0 0 5296 0 0 5208 0 0 5218 0 0 5306 0 0 5368 0 0 5290 0 0 5348 0 0 5231 0 0 5274 0 0 5252 0 0 5362 0 0 5313 0 0 5294 0 0 5348 0 0 5277 0 0 5180 0 0 5255 0 0 5309 0 0 5345 0 0 5377 0 0 5363 0 0 5319 0 0 5373 0 0 5189 0 0 5353 0 0 5222 0 0 5389 0 0 5255 0 0 2572 0 0 42 0 0 17 0 0 9 0 0 4 0 0 3 0 0 4 0 0 1 0 0 3 0 0 8 0 0 
1 0 0 3 0 0 5 0 0 4 0 0 5 0 0 6 0 0 10 0 0 10 0 0 11 0 0 45 0 0 2679 0 0 5231 0 0 5217 0 0 5228 0 0 5269 0 0 5276 0 0 5288 0 0 5254 0 0 5314 0 0 5220 0 0 5181 0 0 5235 0 0 5172 0 0 5340 0 0 5279 0 0 5322 0 0 5293 0 0 5405 0 0 5299 0 0 5277 0 0 5233 0 0 5333 0 0 5317 0 0 5407 0 0 5319 0 0 5325 0 0 5464 0 0 5410 0 0 5272 0 0 5345 0 0 5257 0 0 5341 0 0 5324 0 0 5332 0 0 5205 0 0 5255 0 0 5258 0 0 5326 0 0 5355 0 0 5167 0 0 2616 0 0 57 0 0 9 0 0 9 0 0 1 0 0 4 0 0 4 0 0 3 0 0 6 0 0 2 0 0 
0 0 0 1 0 0 2 0 0 4 0 0 3 0 0 9 0 0 11 0 0 7 0 0 5 0 0 43 0 0 2747 0 0 5356 0 0 5259 0 0 5241 0 0 5359 0 0 5247 0 0 5305 0 0 5282 0 0 5338 0 0 5364 0 0 5229 0 0 5244 0 0 5344 0 0 5233 0 0 5363 0 0 5220 0 0 5417 0 0 5233 0 0 5300 0 0 5274 0 0 5346 0 0 5342 0 0 5322 0 0 5265 0 0 5200 0 0 5202 0 0 5197 0 0 5228 0 0 5365 0 0 5310 0 0 5243 0 0 5252 0 0 5290 0 0 5296 0 0 5309 0 0 5239 0 0 5363 0 0 5354 0 0 5333 0 0 5313 0 0 2661 0 0 51 0 0 8 0 0 12 0 0 12 0 0 8 0 0 3 0 0 6 0 0 2 0 0 2 0 0 
0 0 0 0 0 0 3 0 0 4 0 0 5 0 0 6 0 0 4 0 0 8 0 0 11 0 0 38 0 0 2598 0 0 5285 0 0 5282 0 0 5254 0 0 5251 0 0 5326 0 0 5300 0 0 5221 0 0 5399 0 0 5261 0 0 5190 0 0 5286 0 0 5261 0 0 5284 0 0 5263 0 0 5292 0 0 5273 0 0 5397 0 0 5334 0 0 5251 0 0 5244 0 0 5329 0 0 5337 0 0 5221 0 0 5357 0 0 5303 0 0 5239 0 0 5287 0 0 5292 0 0 5379 0 0 5395 0 0 5286 0 0 5248 0 0 5272 0 0 5271 0 0 5318 0 0 5274 0 0 5237 0 0 5174 0 0 5264 0 0 2571 0 0 50 0 0 17 0 0 12 0 0 14 0 0 10 0 0 6 0 0 2 0 0 0 0 0 4 0 0 
1 0 0 8 0 0 5 0 0 4 0 0 4 0 0 5 0 0 4 0 0 7 0 0 10 0 0 47 0 0 2684 0 0 5423 0 0 5283 0 0 5309 0 0 5242 0 0 5259 0 0 5336 0 0 5230 0 0 5235 0 0 5278 0 0 5350 0 0 5268 0 0 5238 0 0 5129 0 0 5267 0 0 5199 0 0 5321 0 0 5256 0 0 5266 0 0 5264 0 0 5262 0 0 5173 0 0 5233 0 0 5245 0 0 5262 0 0 5319 0 0 5231 0 0 5378 0 0 5279 0 0 5328 0 0 5273 0 0 5263 0 0 5304 0 0 5225 0 0 5314 0 0 5253 0 0 5328 0 0 5210 0 0 5222 0 0 5279 0 0 2695 0 0 45 0 0 12 0 0 12 0 0 6 0 0 7 0 0 8 0 0 3 0 0 2 0 0 1 0 0 
2 0 0 3 0 0 5 0 0 6 0 0 8 0 0 5 0 0 6 0 0 9 0 0 10 0 0 43 0 0 2709 0 0 5220 0 0 5339 0 0 5420 0 0 5203 0 0 5247 0 0 5195 0 0 5377 0 0 5269 0 0 5342 0 0 5283 0 0 5283 0 0 5283 0 0 5359 0 0 5369 0 0 5339 0 0 5372 0 0 5229 0 0 5338 0 0 5367 0 0 5320 0 0 5287 0 0 5285 0 0 5176 0 0 5235 0 0 5422 0 0 5162 0 0 5340 0 0 5171 0 0 5158 0 0 5345 0 0 5264 0 0 5261 0 0 5261 0 0 5330 0 0 5207 0 0 5198 0 0 5240 0 0 5356 0 0 5348 0 0 2706 0 0 44 0 0 10 0 0 3 0 0 4 0 0 8 0 0 2 0 0 4 0 0 8 0 0 4 0 0 
0 0 0 1 0 0 1 0 0 1 0 0 3 0 0 6 0 0 7 0 0 4 0 0 3 0 0 42 0 0 2678 0 0 5350 0 0 5292 0 0 5324 0 0 5287 0 0 5246 0 0 5262 0 0 5353 0 0 5359 0 0 5328 0 0 5294 0 0 5090 0 0 5308 0 0 5416 0 0 5217 0 0 5268 0 0 5219 0 0 5316 0 0 5272 0 0 5261 0 0 5350 0 0 5327 0 0 5403 0 0 5336 0 0 5263 0 0 5294 0 0 5255 0 0 5300 0 0 5368 0 0 5256 0 0 5304 0 0 5311 0 0 5258 0 0 5329 0 0 5335 0 0 5185 0 0 5344 0 0 5234 0 0 5253 0 0 5264 0 0 2658 0 0 51 0 0 11 0 0 7 0 0 4 0 0 4 0 0 9 0 0 5 0 0 8 0 0 4 0 0 
1 0 0 3 0 0 3 0 0 4 0 0 5 0 0 5 0 0 6 0 0 10 0 0 10 0 0 47 0 0 2704 0 0 5217 0 0 5271 0 0 5364 0 0 5311 0 0 5247 0 0 5325 0 0 5370 0 0 5284 0 0 5343 0 0 5211 0 0 5291 0 0 5234 0 0 5250 0 0 5213 0 0 5176 0 0 5283 0 0 5170 0 0 5329 0 0 5222 0 0 5238 0 0 5215 0 0 5348 0 0 5324 0 0 5228 0 0 5272 0 0 5253 0 0 5311 0 0 5262 0 0 5304 0 0 5278 0 0 5365 0 0 5273 0 0 5472 0 0 5269 0 0 5204 0 0 5242 0 0 5133 0 0 5140 0 0 5315 0 0 2574 0 0 49 0 0 13 0 0 5 0 0 6 0 0 4 0 0 4 0 0 5 0 0 5 0 0 9 0 0 
0 0 0 1 0 0 1 0 0 2 0 0 6 0 0 2 0 0 5 0 0 8 0 0 12 0 0 44 0 0 2709 0 0 5283 0 0 5315 0 0 5281 0 0 5364 0 0 5324 0 0 5284 0 0 5175 0 0 5226 0 0 5254 0 0 5237 0 0 5349 0 0 5292 0 0 5325 0 0 5168 0 0 5376 0 0 5208 0 0 5336 0 0 5350 0 0 5289 0 0 5394 0 0 5374 0 0 5195 0 0 5320 0 0 5299 0 0 5329 0 0 5294 0 0 5377 0 0 5232 0 0 5376 0 0 5183 0 0 5246 0 0 5269 0 0 5256 0 0 5212 0 0 5235 0 0 5147 0 0 5263 0 0 5260 0 0 5154 0 0 2594 0 0 46 0 0 9 0 0 8 0 0 4 0 0 6 0 0 4 0 0 5 0 0 4 0 0 1 0 0 
1 0 0 1 0 0 3 0 0 5 0 0 5 0 0 4 0 0 5 0 0 8 0 0 7 0 0 47 0 0 2659 0 0 5311 0 0 5259 0 0 5336 0 0 5141 0 0 5226 0 0 5253 0 0 5323 0 0 5253 0 0 5348 0 0 5189 0 0 5268 0 0 5280 0 0 5447 0 0 5324 0 0 5380 0 0 5336 0 0 5275 0 0 5343 0 0 5265 0 0 5219 0 0 5273 0 0 5120 0 0 5200 0 0 5148 0 0 5308 0 0 5283 0 0 5350 0 0 5272 0 0 5312 0 0 5233 0 0 5277 0 0 5224 0 0 5273 0 0 5245 0 0 5183 0 0 5316 0 0 5304 0 0 5277 0 0 5263 0 0 2658 0 0 43 0 0 11 0 0 5 0 0 5 0 0 6 0 0 7 0 0 4 0 0 2 0 0 5 0 0 
0 0 0 1 0 0 3 0 0 1 0 0 2 0 0 3 0 0 8 0 0 10 0 0 10 0 0 43 0 0 2672 0 0 5312 0 0 5299 0 0 5219 0 0 5347 0 0 5147 0 0 5286 0 0 5338 0 0 5242 0 0 5355 0 0 5379 0 0 5212 0 0 5211 0 0 5376 0 0 5249 0 0 5319 0 0 5238 0 0 5180 0 0 5295 0 0 5138 0 0 5238 0 0 5236 0 0 5429 0 0 5187 0 0 5257 0 0 5282 0 0 5224 0 0 5285 0 0 5205 0 0 5353 0 0 5241 0 0 5247 0 0 5207 0 0 5200 0 0 5245 0 0 5348 0 0 5381 0 0 5252 0 0 5273 0 0 5340 0 0 2740 0 0 38 0 0 8 0 0 9 0 0 4 0 0 4 0 0 2 0 0 2 0 0 3 0 0 2 0 0 
0 0 0 4 0 0 2 0 0 5 0 0 4 0 0 5 0 0 12 0 0 10 0 0 12 0 0 47 0 0 2680 0 0 5256 0 0 5227 0 0 5200 0 0 5245 0 0 5205 0 0 5450 0 0 5251 0 0 5322 0 0 5182 0 0 5282 0 0 5063 0 0 5334 0 0 5299 0 0 5234 0 0 5200 0 0 5345 0 0 5209 0 0 5301 0 0 5413 0 0 5393 0 0 5280 0 0 5254 0 0 5331 0 0 5332 0 0 5343 0 0 5402 0 0 5271 0 0 5283 0 0 5289 0 0 5307 0 0 5379 0 0 5337 0 0 5224 0 0 5259 0 0 5365 0 0 5326 0 0 5215 0 0 5242 0 0 5142 0 0 2671 0 0 47 0 0 14 0 0 4 0 0 6 0 0 3 0 0 3 0 0 3 0 0 1 0 0 2 0 0 
1 0 0 5 0 0 4 0 0 4 0 0 2 0 0 4 0 0 5 0 0 6 0 0 15 0 0 45 0 0 2708 0 0 5342 0 0 5251 0 0 5300 0 0 5220 0 0 5369 0 0 5270 0 0 5343 0 0 5373 0 0 5369 0 0 5321 0 0 5325 0 0 5287 0 0 5317 0 0 5230 0 0 5389 0 0 5282 0 0 5207 0 0 5357 0 0 5304 0 0 5280 0 0 5239 0 0 5342 0 0 5218 0 0 5277 0 0 5279 0 0 5245 0 0 5428 0 0 5232 0 0 5201 0 0 5314 0 0 5399 0 0 5269 0 0 5219 0 0 5132 0 0 5368 0 0 5343 0 0 5349 0 0 5271 0 0 5299 0 0 2680 0 0 46 0 0 9 0 0 6 0 0 3 0 0 3 0 0 7 0 0 4 0 0 5 0 0 3 0 0 
0 0 0 5 0 0 2 0 0 3 0 0 8 0 0 5 0 0 5 0 0 10 0 0 12 0 0 47 0 0 2713 0 0 5393 0 0 5231 0 0 5263 0 0 5276 0 0 5279 0 0 5380 0 0 5250 0 0 5339 0 0 5277 0 0 5310 0 0 5335 0 0 5217 0 0 5292 0 0 5307 0 0 5303 0 0 5282 0 0 5264 0 0 5199 0 0 5282 0 0 5297 0 0 5231 0 0 5266 0 0 5309 0 0 5421 0 0 5291 0 0 5258 0 0 5435 0 0 5224 0 0 5336 0 0 5161 0 0 5303 0 0 5364 0 0 5329 0 0 5230 0 0 5185 0 0 5277 0 0 5208 0 0 5293 0 0 5302 0 0 2665 0 0 34 0 0 4 0 0 7 0 0 2 0 0 4 0 0 3 0 0 4 0 0 2 0 0 3 0 0 
1 0 0 2 0 0 2 0 0 2 0 0 4 0 0 7 0 0 6 0 0 6 0 0 8 0 0 37 0 0 2644 0 0 5200 0 0 5336 0 0 5344 0 0 5291 0 0 5308 0 0 5273 0 0 5091 0 0 5242 0 0 5220 0 0 5331 0 0 5194 0 0 5300 0 0 5247 0 0 5309 0 0 5358 0 0 5145 0 0 5219 0 0 5361 0 0 5438 0 0 5309 0 0 5387 0 0 5227 0 0 5375 0 0 5077 0 0 5234 0 0 5273 0 0 5301 0 0 5240 0 0 5191 0 0 5278 0 0 5393 0 0 5303 0 0 5155 0 0 5330 0 0 5307 0 0 5287 0 0 5273 0 0 5305 0 0 5259 0 0 2652 0 0 50 0 0 6 0 0 7 0 0 6 0 0 3 0 0 1 0 0 2 0 0 3 0 0 1 0 0 
0 0 0 3 0 0 5 0 0 1 0 0 1 0 0 5 0 0 12 0 0 8 0 0 9 0 0 43 0 0 2647 0 0 5234 0 0 5254 0 0 5293 0 0 5356 0 0 5332 0 0 5205 0 0 5256 0 0 5409 0 0 5364 0 0 5241 0 0 5364 0 0 5367 0 0 5197 0 0 5189 0 0 5328 0 0 5139 0 0 5232 0 0 5309 0 0 5240 0 0 5314 0 0 5401 0 0 5349 0 0 5334 0 0 5268 0 0 5200 0 0 5335 0 0 5325 0 0 5178 0 0 5301 0 0 5265 0 0 5295 0 0 5318 0 0 5377 0 0 5280 0 0 5323 0 0 5235 0 0 5171 0 0 5279 0 0 5324 0 0 2686 0 0 45 0 0 13 0 0 9 0 0 8 0 0 9 0 0 7 0 0 5 0 0 6 0 0 4 0 0 
1 0 0 3 0 0 3 0 0 1 0 0 7 0 0 7 0 0 5 0 0 2 0 0 6 0 0 39 0 0 2590 0 0 5263 0 0 5273 0 0 5254 0 0 5168 0 0 5210 0 0 5283 0 0 5376 0 0 5293 0 0 5404 0 0 5231 0 0 5267 0 0 5461 0 0 5244 0 0 5300 0 0 5331 0 0 5193 0 0 5292 0 0 5215 0 0 5312 0 0 5177 0 0 5338 0 0 5276 0 0 5228 0 0 5203 0 0 5268 0 0 5120 0 0 5293 0 0 5284 0 0 5243 0 0 5273 0 0 5308 0 0 5350 0 0 5221 0 0 5294 0 0 5215 0 0 5278 0 0 5359 0 0 5279 0 0 5184 0 0 2577 0 0 49 0 0 6 0 0 7 0 0 6 0 0 5 0 0 3 0 0 1 0 0 1 0 0 4 0 0 
2 0 0 2 0 0 1 0 0 3 0 0 6 0 0 3 0 0 5 0 0 7 0 0 9 0 0 40 0 0 2560 0 0 5157 0 0 5228 0 0 5189 0 0 5075 0 0 5245 0 0 5245 0 0 5401 0 0 5326 0 0 5159 0 0 5395 0 0 5287 0 0 5238 0 0 5386 0 0 5329 0 0 5251 0 0 5286 0 0 5327 0 0 5277 0 0 5335 0 0 5323 0 0 5266 0 0 5389 0 0 5262 0 0 5391 0 0 5327 0 0 5310 0 0 5252 0 0 5440 0 0 5243 0 0 5306 0 0 5276 0 0 5306 0 0 5191 0 0 5215 0 0 5366 0 0 5346 0 0 5345 0 0 5359 0 0 5274 0 0 2609 0 0 39 0 0 3 0 0 5 0 0 6 0 0 4 0 0 4 0 0 4 0 0 2 0 0 2 0 0 
2 0 0 2 0 0 3 0 0 4 0 0 3 0 0 5 0 0 3 0 0 5 0 0 4 0 0 35 0 0 2644 0 0 5304 0 0 5314 0 0 5153 0 0 5341 0 0 5309 0 0 5283 0 0 5375 0 0 5394 0 0 5291 0 0 5305 0 0 5154 0 0 5226 0 0 5321 0 0 5238 0 0 5251 0 0 5252 0 0 5360 0 0 5254 0 0 5402 0 0 5185 0 0 5288 0 0 5287 0 0 5346 0 0 5275 0 0 5284 0 0 5358 0 0 5322 0 0 5264 0 0 5290 0 0 5218 0 0 5287 0 0 5096 0 0 5298 0 0 5295 0 0 5177 0 0 5249 0 0 5353 0 0 5244 0 0 5287 0 0 2623 0 0 39 0 0 7 0 0 7 0 0 4 0 0 6 0 0 5 0 0 3 0 0 1 0 0 2 0 0 
1 0 0 5 0 0 6 0 0 7 0 0 7 0 0 5 0 0 7 0 0 11 0 0 8 0 0 43 0 0 2638 0 0 5241 0 0 5299 0 0 5356 0 0 5207 0 0 5260 0 0 5275 0 0 5350 0 0 5294 0 0 5353 0 0 5317 0 0 5352 0 0 5387 0 0 5215 0 0 5266 0 0 5310 0 0 5335 0 0 5347 0 0 5273 0 0 5220 0 0 5160 0 0 5286 0 0 5400 0 0 5328 0 0 5304 0 0 5342 0 0 5331 0 0 5259 0 0 5270 0 0 5349 0 0 5178 0 0 5280 0 0 5299 0 0 5301 0 0 5303 0 0 5284 0 0 5264 0 0 5160 0 0 5313 0 0 5258 0 0 2582 0 0 39 0 0 10 0 0 8 0 0 7 0 0 4 0 0 7 0 0 4 0 0 5 0 0 2 0 0 
2 0 0 2 0 0 4 0 0 5 0 0 4 0 0 8 0 0 9 0 0 11 0 0 6 0 0 35 0 0 2701 0 0 5118 0 0 5299 0 0 5330 0 0 5299 0 0 5416 0 0 5387 0 0 5333 0 0 5314 0 0 5234 0 0 5376 0 0 5257 0 0 5213 0 0 5345 0 0 5255 0 0 5332 0 0 5320 0 0 5272 0 0 5279 0 0 5262 0 0 5432 0 0 5332 0 0 5293 0 0 5310 0 0 5274 0 0 5223 0 0 5368 0 0 5309 0 0 5300 0 0 5313 0 0 5313 0 0 5243 0 0 5211 0 0 5281 0 0 5263 0 0 5299 0 0 5315 0 0 5276 0 0 5344 0 0 5155 0 0 2658 0 0 38 0 0 5 0 0 1 0 0 3 0 0 2 0 0 1 0 0 3 0 0 3 0 0 3 0 0 
0 0 0 1 0 0 1 0 0 4 0 0 9 0 0 4 0 0 8 0 0 8 0 0 7 0 0 37 0 0 2616 0 0 5259 0 0 5341 0 0 5266 0 0 5288 0 0 5281 0 0 5256 0 0 5279 0 0 5238 0 0 5281 0 0 5293 0 0 5413 0 0 5334 0 0 5425 0 0 5275 0 0 5278 0 0 5211 0 0 5370 0 0 5189 0 0 5237 0 0 5325 0 0 5164 0 0 5505 0 0 5366 0 0 5208 0 0 5194 0 0 5235 0 0 5303 0 0 5190 0 0 5450 0 0 5154 0 0 5335 0 0 5187 0 0 5315 0 0 5287 0 0 5271 0 0 5173 0 0 5239 0 0 5308 0 0 5155 0 0 2638 0 0 44 0 0 7 0 0 3 0 0 3 0 0 4 0 0 2 0 0 2 0 0 2 0 0 0 0 0 
1 0 0 5 0 0 5 0 0 4 0 0 1 0 0 3 0 0 7 0 0 4 0 0 8 0 0 47 0 0 2656 0 0 5217 0 0 5293 0 0 5326 0 0 5269 0 0 5158 0 0 5216 0 0 5322 0 0 5366 0 0 5358 0 0 5238 0 0 5312 0 0 5325 0 0 5328 0 0 5310 0 0 5292 0 0 5324 0 0 5266 0 0 5401 0 0 5322 0 0 5359 0 0 5415 0 0 5304 0 0 5247 0 0 5329 0 0 5471 0 0 5248 0 0 5370 0 0 5271 0 0 5297 0 0 5238 0 0 5344 0 0 5306 0 0 5372 0 0 5230 0 0 5350 0 0 5149 0 0 5128 0 0 5321 0 0 5377 0 0 2660 0 0 47 0 0 7 0 0 4 0 0 5 0 0 3 0 0 3 0 0 0 0 0 1 0 0 2 0 0 
0 0 0 5 0 0 2 0 0 2 0 0 4 0 0 2 0 0 7 0 0 8 0 0 9 0 0 52 0 0 2619 0 0 5220 0 0 5443 0 0 5304 0 0 5327 0 0 5240 0 0 5233 0 0 5174 0 0 5242 0 0 5273 0 0 5246 0 0 5311 0 0 5284 0 0 5256 0 0 5328 0 0 5353 0 0 5381 0 0 5366 0 0 5293 0 0 5275 0 0 5246 0 0 5297 0 0 5350 0 0 5231 0 0 5257 0 0 5347 0 0 5262 0 0 5268 0 0 5425 0 0 5336 0 0 5343 0 0 5295 0 0 5206 0 0 5242 0 0 5265 0 0 5353 0 0 5359 0 0 5106 0 0 5335 0 0 5211 0 0 2609 0 0 44 0 0 4 0 0 5 0 0 2 0 0 4 0 0 3 0 0 2 0 0 2 0 0 3 0 0 
2 0 0 1 0 0 1 0 0 2 0 0 1 0 0 6 0 0 3 0 0 3 0 0 5 0 0 43 0 0 2636 0 0 5204 0 0 5250 0 0 5319 0 0 5307 0 0 5403 0 0 5454 0 0 5424 0 0 5178 0 0 5292 0 0 5282 0 0 5431 0 0 5302 0 0 5231 0 0 5363 0 0 5229 0 0 5218 0 0 5178 0 0 5207 0 0 5340 0 0 5382 0 0 5219 0 0 5232 0 0 5231 0 0 5245 0 0 5372 0 0 5223 0 0 5265 0 0 5246 0 0 5275 0 0 5355 0 0 5352 0 0 5223 0 0 5421 0 0 5341 0 0 5269 0 0 5376 0 0 5309 0 0 5227 0 0 5262 0 0 2707 0 0 51 0 0 2 0 0 7 0 0 3 0 0 2 0 0 5 0 0 0 0 0 3 0 0 1 0 0 
0 0 0 1 0 0 0 0 0 0 0 0 2 0 0 4 0 0 5 0 0 2 0 0 11 0 0 40 0 0 2658 0 0 5155 0 0 5270 0 0 5329 0 0 5320 0 0 5181 0 0 5217 0 0 5174 0 0 5299 0 0 5318 0 0 5183 0 0 5223 0 0 5113 0 0 5181 0 0 5400 0 0 5216 0 0 5166 0 0 5174 0 0 5279 0 0 5151 0 0 5290 0 0 5188 0 0 5184 0 0 5355 0 0 5198 0 0 5180 0 0 5140 0 0 5359 0 0 5239 0 0 5261 0 0 5254 0 0 5344 0 0 5184 0 0 5166 0 0 5304 0 0 5111 0 0 5294 0 0 5313 0 0 5308 0 0 5291 0 0 2632 0 0 46 0 0 9 0 0 6 0 0 4 0 0 2 0 0 2 0 0 1 0 0 1 0 0 3 0 0 
0 0 0 0 0 0 4 0 0 4 0 0 4 0 0 6 0 0 5 0 0 2 0 0 3 0 0 27 0 0 1304 0 0 2615 0 0 2620 0 0 2654 0 0 2669 0 0 2602 0 0 2614 0 0 2700 0 0 2622 0 0 2610 0 0 2594 0 0 2615 0 0 2677 0 0 2642 0 0 2619 0 0 2605 0 0 2562 0 0 2713 0 0 2647 0 0 2587 0 0 2692 0 0 2689 0 0 2565 0 0 2692 0 0 2565 0 0 2538 0 0 2632 0 0 2621 0 0 2624 0 0 2665 0 0 2652 0 0 2648 0 0 2677 0 0 2654 0 0 2661 0 0 2680 0 0 2637 0 0 2622 0 0 2623 0 0 2622 0 0 1326 0 0 19 0 0 7 0 0 5 0 0 4 0 0 3 0 0 3 0 0 3 0 0 0 0 0 0 0 0 
0 0 0 1 0 0 3 0 0 2 0 0 4 0 0 6 0 0 5 0 0 2 0 0 1 0 0 8 0 0 20 0 0 31 0 0 36 0 0 32 0 0 51 0 0 47 0 0 44 0 0 34 0 0 39 0 0 39 0 0 39 0 0 40 0 0 42 0 0 41 0 0 49 0 0 40 0 0 48 0 0 39 0 0 53 0 0 47 0 0 38 0 0 50 0 0 37 0 0 43 0 0 46 0 0 42 0 0 50 0 0 46 0 0 37 0 0 43 0 0 51 0 0 48 0 0 51 0 0 41 0 0 51 0 0 41 0 0 41 0 0 42 0 0 47 0 0 33 0 0 21 0 0 8 0 0 3 0 0 4 0 0 3 0 0 3 0 0 4 0 0 4 0 0 2 0 0 0 0 0 
0 0 0 0 0 0 0 0 0 4 0 0 3 0 0 2 0 0 3 0 0 1 0 0 5 0 0 7 0 0 3 0 0 3 0 0 8 0 0 3 0 0 14 0 0 10 0 0 8 0 0 5 0 0 13 0 0 12 0 0 12 0 0 13 0 0 12 0 0 13 0 0 13 0 0 6 0 0 10 0 0 7 0 0 12 0 0 15 0 0 10 0 0 11 0 0 7 0 0 8 0 0 9 0 0 10 0 0 11 0 0 4 0 0 10 0 0 9 0 0 12 0 0 10 0 0 10 0 0 5 0 0 11 0 0 2 0 0 3 0 0 11 0 0 3 0 0 10 0 0 3 0 0 6 0 0 3 0 0 0 0 0 4 0 0 3 0 0 1 0 0 5 0 0 0 0 0 0 0 0 
0 0 0 0 0 0 4 0 0 0 0 0 1 0 0 3 0 0 3 0 0 1 0 0 4 0 0 1 0 0 3 0 0 11 0 0 5 0 0 5 0 0 8 0 0 7 0 0 8 0 0 5 0 0 3 0 0 8 0 0 8 0 0 7 0 0 8 0 0 9 0 0 12 0 0 5 0 0 10 0 0 5 0 0 5 0 0 9 0 0 6 0 0 7 0 0 4 0 0 5 0 0 8 0 0 5 0 0 5 0 0 4 0 0 6 0 0 5 0 0 13 0 0 13 0 0 3 0 0 8 0 0 6 0 0 2 0 0 3 0 0 5 0 0 5 0 0 3 0 0 3 0 0 6 0 0 4 0 0 2 0 0 3 0 0 1 0 0 1 0 0 0 0 0 2 0 0 2 0 0 
0 0 0 2 0 0 1 0 0 2 0 0 2 0 0 0 0 0 2 0 0 2 0 0 3 0 0 4 0 0 6 0 0 4 0 0 9 0 0 3 0 0 4 0 0 4 0 0 3 0 0 3 0 0 3 0 0 8 0 0 11 0 0 2 0 0 2 0 0 7 0 0 8 0 0 1 0 0 5 0 0 5 0 0 5 0 0 6 0 0 11 0 0 4 0 0 6 0 0 4 0 0 0 0 0 0 0 0 2 0 0 5 0 0 4 0 0 4 0 0 11 0 0 5 0 0 7 0 0 4 0 0 5 0 0 3 0 0 3 0 0 4 0 0 0 0 0 6 0 0 1 0 0 3 0 0 4 0 0 4 0 0 0 0 0 0 0 0 2 0 0 0 0 0 0 0 0 0 0 0 
1 0 0 2 0 0 2 0 0 0 0 0 2 0 0 3 0 0 1 0 0 1 0 0 2 0 0 2 0 0 4 0 0 9 0 0 7 0 0 3 0 0 3 0 0 1 0 0 2 0 0 2 0 0 3 0 0 7 0 0 7 0 0 2 0 0 5 0 0 3 0 0 7 0 0 3 0 0 8 0 0 7 0 0 3 0 0 3 0 0 6 0 0 5 0 0 9 0 0 5 0 0 1 0 0 0 0 0 3 0 0 4 0 0 0 0 0 6 0 0 9 0 0 2 0 0 1 0 0 2 0 0 2 0 0 3 0 0 4 0 0 2 0 0 2 0 0 4 0 0 5 0 0 1 0 0 3 0 0 2 0 0 2 0 0 2 0 0 0 0 0 1 0 0 2 0 0 0 0 0 
0 0 0 2 0 0 0 0 0 0 0 0 4 0 0 1 0 0 0 0 0 2 0 0 5 0 0 5 0 0 3 0 0 7 0 0 4 0 0 2 0 0 4 0 0 1 0 0 1 0 0 6 0 0 5 0 0 7 0 0 3 0 0 3 0 0 3 0 0 1 0 0 8 0 0 4 0 0 3 0 0 3 0 0 5 0 0 4 0 0 5 0 0 3 0 0 7 0 0 4 0 0 2 0 0 0 0 0 2 0 0 3 0 0 2 0 0 5 0 0 2 0 0 1 0 0 1 0 0 2 0 0 2 0 0 3 0 0 3 0 0 2 0 0 1 0 0 7 0 0 4 0 0 5 0 0 1 0 0 5 0 0 3 0 0 0 0 0 3 0 0 1 0 0 0 0 0 3 0 0 
2 0 0 2 0 0 1 0 0 0 0 0 2 0 0 0 0 0 3 0 0 4 0 0 4 0 0 3 0 0 4 0 0 5 0 0 3 0 0 2 0 0 4 0 0 3 0 0 1 0 0 5 0 0 7 0 0 3 0 0 1 0 0 3 0 0 4 0 0 2 0 0 5 0 0 2 0 0 0 0 0 4 0 0 5 0 0 4 0 0 3 0 0 7 0 0 6 0 0 4 0 0 2 0 0 0 0 0 0 0 0 2 0 0 3 0 0 3 0 0 2 0 0 1 0 0 3 0 0 3 0 0 1 0 0 4 0 0 1 0 0 3 0 0 1 0 0 0 0 0 2 0 0 1 0 0 1 0 0 2 0 0 0 0 0 0 0 0 1 0 0 1 0 0 1 0 0 2 0 0 
0 0 0 1 0 0 3 0 0 2 0 0 0 0 0 2 0 0 3 0 0 3 0 0 3 0 0 3 0 0 3 0 0 5 0 0 2 0 0 1 0 0 3 0 0 4 0 0 4 0 0 2 0 0 5 0 0 3 0 0 1 0 0 2 0 0 3 0 0 3 0 0 2 0 0 2 0 0 2 0 0 0 0 0 5 0 0 0 0 0 2 0 0 6 0 0 6 0 0 4 0 0 4 0 0 1 0 0 1 0 0 4 0 0 3 0 0 1 0 0 1 0 0 1 0 0 0 0 0 2 0 0 1 0 0 1 0 0 1 0 0 5 0 0 2 0 0 1 0 0 2 0 0 2 0 0 1 0 0 3 0 0 4 0 0 2 0 0 0 0 0 3 0 0 1 0 0 2 0 0 
0 0 0 1 0 0 1 0 0 1 0 0 0 0 0 3 0 0 3 0 0 1 0 0 3 0 0 3 0 0 1 0 0 3 0 0 1 0 0 1 0 0 1 0 0 0 0 0 3 0 0 5 0 0 3 0 0 2 0 0 2 0 0 0 0 0 1 0 0 4 0 0 1 0 0 9 0 0 4 0 0 0 0 0 3 0 0 2 0 0 1 0 0 2 0 0 3 0 0 3 0 0 2 0 0 1 0 0 2 0 0 5 0 0 3 0 0 4 0 0 3 0 0 0 0 0 1 0 0 3 0 0 0 0 0 0 0 0 2 0 0 4 0 0 3 0 0 0 0 0 2 0 0 0 0 0 2 0 0 5 0 0 4 0 0 4 0 0 4 0 0 1 0 0 2 0 0 0 0 0 
