P3
# This is a dose file slice at depth 76 of 100
60 60
# now we give the maximum value of the RGB coordinates.
21610
0 0 0 0 0 0 0 0 0 0 0 0 0 0 0 0 0 0 0 0 0 0 0 0 0 0 0 1 0 0 2 0 0 1 0 0 0 0 0 0 0 0 0 0 0 0 0 0 0 0 0 0 0 0 0 0 0 0 0 0 1 0 0 0 0 0 1 0 0 0 0 0 1 0 0 0 0 0 0 0 0 1 0 0 0 0 0 0 0 0 0 0 0 0 0 0 0 0 0 1 0 0 0 0 0 0 0 0 0 0 0 0 0 0 0 0 0 1 0 0 0 0 0 0 0 0 1 0 0 0 0 0 0 0 0 0 0 0 0 0 0 0 0 0 0 0 0 0 0 0 2 0 0 0 0 0 0 0 0 0 0 0 0 0 0 0 0 0 0 0 0 0 0 0 0 0 0 0 0 0 
0 0 0 0 0 0 0 0 0 1 0 0 2 0 0 2 0 0 0 0 0 0 0 0 0 0 0 1 0 0 1 0 0 3 0 0 0 0 0 1 0 0 2 0 0 0 0 0 0 0 0 0 0 0 2 0 0 1 0 0 4 0 0 0 0 0 2 0 0 1 0 0 0 0 0 0 0 0 1 0 0 3 0 0 3 0 0 0 0 0 2 0 0 2 0 0 3 0 0 2 0 0 2 0 0 2 0 0 1 0 0 4 0 0 3 0 0 2 0 0 1 0 0 1 0 0 4 0 0 1 0 0 2 0 0 2 0 0 0 0 0 0 0 0 1 0 0 2 0 0 4 0 0 1 0 0 0 0 0 0 0 0 0 0 0 0 0 0 2 0 0 0 0 0 3 0 0 1 0 0 
0 0 0 3 0 0 0 0 0 0 0 0 1 0 0 4 0 0 0 0 0 1 0 0 2 0 0 0 0 0 0 0 0 4 0 0 1 0 0 2 0 0 4 0 0 0 0 0 1 0 0 0 0 0 3 0 0 1 0 0 4 0 0 0 0 0 5 0 0 4 0 0 2 0 0 0 0 0 3 0 0 3 0 0 1 0 0 0 0 0 3 0 0 2 0 0 0 0 0 0 0 0 4 0 0 3 0 0 0 0 0 4 0 0 3 0 0 1 0 0 1 0 0 4 0 0 3 0 0 2 0 0 0 0 0 4 0 0 1 0 0 0 0 0 0 0 0 3 0 0 0 0 0 3 0 0 1 0 0 1 0 0 0 0 0 0 0 0 1 0 0 0 0 0 1 0 0 1 0 0 
0 0 0 1 0 0 0 0 0 0 0 0 2 0 0 0 0 0 1 0 0 0 0 0 2 0 0 1 0 0 2 0 0 2 0 0 0 0 0 3 0 0 6 0 0 1 0 0 1 0 0 4 0 0 3 0 0 2 0 0 4 0 0 3 0 0 4 0 0 5 0 0 2 0 0 2 0 0 7 0 0 4 0 0 3 0 0 2 0 0 4 0 0 2 0 0 0 0 0 1 0 0 2 0 0 3 0 0 0 0 0 4 0 0 2 0 0 1 0 0 3 0 0 2 0 0 3 0 0 2 0 0 2 0 0 1 0 0 2 0 0 2 0 0 2 0 0 4 0 0 2 0 0 2 0 0 0 0 0 2 0 0 1 0 0 1 0 0 0 0 0 1 0 0 1 0 0 0 0 0 
1 0 0 1 0 0 1 0 0 0 0 0 0 0 0 1 0 0 0 0 0 1 0 0 2 0 0 0 0 0 1 0 0 1 0 0 5 0 0 3 0 0 5 0 0 5 0 0 2 0 0 3 0 0 2 0 0 2 0 0 2 0 0 3 0 0 4 0 0 5 0 0 3 0 0 1 0 0 5 0 0 4 0 0 2 0 0 3 0 0 3 0 0 3 0 0 0 0 0 4 0 0 5 0 0 5 0 0 4 0 0 4 0 0 3 0 0 3 0 0 3 0 0 0 0 0 4 0 0 1 0 0 1 0 0 2 0 0 3 0 0 1 0 0 4 0 0 2 0 0 0 0 0 2 0 0 2 0 0 0 0 0 2 0 0 6 0 0 4 0 0 0 0 0 0 0 0 1 0 0 
1 0 0 0 0 0 2 0 0 0 0 0 0 0 0 0 0 0 1 0 0 0 0 0 1 0 0 1 0 0 0 0 0 2 0 0 5 0 0 2 0 0 3 0 0 2 0 0 3 0 0 2 0 0 1 0 0 3 0 0 2 0 0 2 0 0 7 0 0 8 0 0 5 0 0 3 0 0 3 0 0 2 0 0 1 0 0 6 0 0 2 0 0 3 0 0 3 0 0 10 0 0 7 0 0 1 0 0 2 0 0 3 0 0 2 0 0 3 0 0 2 0 0 2 0 0 4 0 0 0 0 0 1 0 0 4 0 0 4 0 0 1 0 0 1 0 0 1 0 0 2 0 0 1 0 0 3 0 0 1 0 0 1 0 0 3 0 0 1 0 0 1 0 0 1 0 0 1 0 0 
0 0 0 1 0 0 1 0 0 4 0 0 2 0 0 1 0 0 1 0 0 4 0 0 1 0 0 5 0 0 3 0 0 0 0 0 5 0 0 3 0 0 3 0 0 1 0 0 4 0 0 2 0 0 3 0 0 3 0 0 7 0 0 4 0 0 9 0 0 7 0 0 5 0 0 5 0 0 5 0 0 8 0 0 5 0 0 5 0 0 2 0 0 6 0 0 5 0 0 4 0 0 5 0 0 6 0 0 6 0 0 1 0 0 1 0 0 1 0 0 4 0 0 6 0 0 8 0 0 2 0 0 0 0 0 3 0 0 6 0 0 3 0 0 1 0 0 2 0 0 3 0 0 0 0 0 0 0 0 1 0 0 3 0 0 3 0 0 2 0 0 0 0 0 3 0 0 3 0 0 
0 0 0 1 0 0 1 0 0 5 0 0 0 0 0 1 0 0 0 0 0 2 0 0 0 0 0 5 0 0 1 0 0 6 0 0 8 0 0 4 0 0 8 0 0 5 0 0 3 0 0 6 0 0 6 0 0 3 0 0 9 0 0 9 0 0 4 0 0 3 0 0 9 0 0 7 0 0 4 0 0 8 0 0 9 0 0 5 0 0 2 0 0 4 0 0 6 0 0 3 0 0 6 0 0 8 0 0 6 0 0 4 0 0 4 0 0 3 0 0 7 0 0 6 0 0 8 0 0 6 0 0 4 0 0 7 0 0 5 0 0 4 0 0 3 0 0 6 0 0 3 0 0 2 0 0 1 0 0 0 0 0 5 0 0 2 0 0 0 0 0 2 0 0 2 0 0 1 0 0 
1 0 0 4 0 0 0 0 0 2 0 0 2 0 0 1 0 0 3 0 0 6 0 0 1 0 0 1 0 0 4 0 0 5 0 0 9 0 0 6 0 0 6 0 0 14 0 0 7 0 0 7 0 0 4 0 0 7 0 0 13 0 0 8 0 0 5 0 0 7 0 0 6 0 0 12 0 0 4 0 0 5 0 0 11 0 0 7 0 0 7 0 0 7 0 0 10 0 0 7 0 0 15 0 0 5 0 0 7 0 0 6 0 0 6 0 0 6 0 0 6 0 0 9 0 0 10 0 0 4 0 0 6 0 0 5 0 0 5 0 0 7 0 0 4 0 0 5 0 0 2 0 0 2 0 0 0 0 0 2 0 0 2 0 0 0 0 0 2 0 0 1 0 0 2 0 0 0 0 0 
2 0 0 3 0 0 3 0 0 2 0 0 3 0 0 0 0 0 3 0 0 2 0 0 4 0 0 2 0 0 12 0 0 27 0 0 34 0 0 32 0 0 44 0 0 27 0 0 35 0 0 28 0 0 25 0 0 37 0 0 35 0 0 39 0 0 28 0 0 36 0 0 39 0 0 36 0 0 35 0 0 31 0 0 29 0 0 31 0 0 29 0 0 34 0 0 30 0 0 37 0 0 31 0 0 30 0 0 34 0 0 30 0 0 26 0 0 35 0 0 31 0 0 47 0 0 38 0 0 32 0 0 31 0 0 35 0 0 36 0 0 32 0 0 28 0 0 22 0 0 16 0 0 1 0 0 2 0 0 3 0 0 3 0 0 0 0 0 0 0 0 1 0 0 0 0 0 1 0 0 
0 0 0 1 0 0 2 0 0 2 0 0 5 0 0 4 0 0 3 0 0 1 0 0 4 0 0 17 0 0 1040 0 0 2056 0 0 2061 0 0 1972 0 0 2040 0 0 1990 0 0 2001 0 0 1997 0 0 2052 0 0 1936 0 0 1988 0 0 2062 0 0 2007 0 0 1938 0 0 1969 0 0 2032 0 0 1992 0 0 2071 0 0 1946 0 0 1991 0 0 2009 0 0 2026 0 0 2026 0 0 2054 0 0 1990 0 0 1982 0 0 1969 0 0 1960 0 0 1931 0 0 2123 0 0 1974 0 0 2066 0 0 2056 0 0 1986 0 0 1989 0 0 2031 0 0 2071 0 0 2032 0 0 2039 0 0 1988 0 0 982 0 0 15 0 0 6 0 0 2 0 0 2 0 0 2 0 0 3 0 0 1 0 0 0 0 0 2 0 0 
0 0 0 1 0 0 0 0 0 2 0 0 6 0 0 9 0 0 2 0 0 0 0 0 1 0 0 26 0 0 2034 0 0 3884 0 0 4026 0 0 3983 0 0 4099 0 0 4088 0 0 3977 0 0 4014 0 0 4032 0 0 3989 0 0 3991 0 0 3971 0 0 3970 0 0 3979 0 0 3899 0 0 4060 0 0 4005 0 0 3990 0 0 4062 0 0 3945 0 0 3916 0 0 4085 0 0 3913 0 0 4005 0 0 3983 0 0 4054 0 0 3902 0 0 3925 0 0 4019 0 0 4030 0 0 4017 0 0 4052 0 0 4037 0 0 4069 0 0 3965 0 0 3965 0 0 3970 0 0 3972 0 0 3881 0 0 3880 0 0 1988 0 0 35 0 0 3 0 0 2 0 0 2 0 0 3 0 0 1 0 0 2 0 0 4 0 0 4 0 0 
0 0 0 2 0 0 3 0 0 1 0 0 2 0 0 4 0 0 6 0 0 3 0 0 5 0 0 28 0 0 1962 0 0 4022 0 0 3959 0 0 4000 0 0 4052 0 0 4003 0 0 3929 0 0 4080 0 0 4031 0 0 4004 0 0 4064 0 0 4072 0 0 4034 0 0 3956 0 0 4019 0 0 4013 0 0 4030 0 0 4073 0 0 4080 0 0 3989 0 0 3973 0 0 3930 0 0 4012 0 0 4059 0 0 3941 0 0 3969 0 0 4143 0 0 3970 0 0 3975 0 0 4195 0 0 4127 0 0 3982 0 0 3935 0 0 4047 0 0 4063 0 0 4038 0 0 4100 0 0 4001 0 0 3994 0 0 4032 0 0 1988 0 0 34 0 0 8 0 0 3 0 0 3 0 0 3 0 0 5 0 0 5 0 0 2 0 0 0 0 0 
0 0 0 1 0 0 2 0 0 2 0 0 2 0 0 0 0 0 3 0 0 3 0 0 5 0 0 25 0 0 2033 0 0 4040 0 0 4111 0 0 3971 0 0 3994 0 0 4113 0 0 4015 0 0 4013 0 0 4056 0 0 4027 0 0 4111 0 0 3974 0 0 4008 0 0 3965 0 0 4036 0 0 4130 0 0 3989 0 0 4112 0 0 3941 0 0 4102 0 0 4075 0 0 4168 0 0 4049 0 0 4083 0 0 3978 0 0 3985 0 0 4018 0 0 4071 0 0 4019 0 0 4053 0 0 4043 0 0 4006 0 0 4059 0 0 4086 0 0 3993 0 0 4047 0 0 4129 0 0 4044 0 0 3985 0 0 4020 0 0 2037 0 0 33 0 0 6 0 0 4 0 0 6 0 0 6 0 0 6 0 0 3 0 0 0 0 0 0 0 0 
0 0 0 1 0 0 1 0 0 0 0 0 0 0 0 5 0 0 2 0 0 4 0 0 5 0 0 32 0 0 2045 0 0 4001 0 0 4053 0 0 3953 0 0 4007 0 0 3922 0 0 4016 0 0 3900 0 0 3959 0 0 4071 0 0 3973 0 0 3945 0 0 4061 0 0 4001 0 0 4048 0 0 4047 0 0 3977 0 0 4098 0 0 4120 0 0 4056 0 0 4091 0 0 4020 0 0 3997 0 0 4089 0 0 4026 0 0 4094 0 0 3975 0 0 4008 0 0 4029 0 0 3994 0 0 4075 0 0 4101 0 0 3944 0 0 4045 0 0 4022 0 0 4064 0 0 4014 0 0 3932 0 0 3925 0 0 3919 0 0 2015 0 0 29 0 0 7 0 0 4 0 0 5 0 0 4 0 0 4 0 0 0 0 0 0 0 0 0 0 0 
0 0 0 0 0 0 0 0 0 2 0 0 1 0 0 3 0 0 3 0 0 3 0 0 9 0 0 41 0 0 2045 0 0 3981 0 0 3968 0 0 4015 0 0 4084 0 0 3988 0 0 3946 0 0 4024 0 0 4024 0 0 4079 0 0 4058 0 0 4052 0 0 4051 0 0 4087 0 0 4016 0 0 4105 0 0 4043 0 0 3961 0 0 4045 0 0 4051 0 0 3965 0 0 3975 0 0 3996 0 0 3979 0 0 3913 0 0 3960 0 0 4028 0 0 4074 0 0 4036 0 0 4003 0 0 3984 0 0 4042 0 0 4011 0 0 4004 0 0 4028 0 0 4052 0 0 4049 0 0 4023 0 0 4009 0 0 4014 0 0 2003 0 0 34 0 0 10 0 0 6 0 0 3 0 0 9 0 0 3 0 0 2 0 0 1 0 0 0 0 0 
2 0 0 3 0 0 2 0 0 1 0 0 0 0 0 1 0 0 3 0 0 3 0 0 10 0 0 38 0 0 1951 0 0 3954 0 0 4060 0 0 3963 0 0 4060 0 0 4063 0 0 4020 0 0 4111 0 0 3991 0 0 4059 0 0 4017 0 0 3990 0 0 4064 0 0 4001 0 0 3960 0 0 4066 0 0 4022 0 0 3977 0 0 4080 0 0 3991 0 0 3947 0 0 4081 0 0 4037 0 0 4019 0 0 4111 0 0 3969 0 0 4015 0 0 3918 0 0 3954 0 0 3965 0 0 3918 0 0 3930 0 0 4120 0 0 4041 0 0 4046 0 0 4040 0 0 4029 0 0 4080 0 0 4073 0 0 3923 0 0 2026 0 0 29 0 0 8 0 0 8 0 0 7 0 0 4 0 0 1 0 0 6 0 0 3 0 0 4 0 0 
0 0 0 0 0 0 3 0 0 2 0 0 6 0 0 4 0 0 8 0 0 7 0 0 11 0 0 40 0 0 2023 0 0 3980 0 0 4053 0 0 4124 0 0 4021 0 0 4100 0 0 4142 0 0 3971 0 0 3972 0 0 3836 0 0 4081 0 0 4029 0 0 4121 0 0 4025 0 0 4029 0 0 4015 0 0 3994 0 0 4122 0 0 3944 0 0 3930 0 0 3995 0 0 3863 0 0 4048 0 0 3987 0 0 3979 0 0 4107 0 0 3981 0 0 4074 0 0 3986 0 0 3949 0 0 4075 0 0 4070 0 0 4007 0 0 3979 0 0 4025 0 0 4039 0 0 4059 0 0 4094 0 0 4072 0 0 3988 0 0 1973 0 0 34 0 0 8 0 0 7 0 0 7 0 0 5 0 0 1 0 0 6 0 0 7 0 0 3 0 0 
0 0 0 0 0 0 1 0 0 0 0 0 1 0 0 2 0 0 2 0 0 5 0 0 8 0 0 33 0 0 2030 0 0 4051 0 0 3978 0 0 4077 0 0 3904 0 0 4018 0 0 4041 0 0 4044 0 0 4053 0 0 3965 0 0 4032 0 0 4050 0 0 3994 0 0 4045 0 0 4137 0 0 3989 0 0 4038 0 0 3951 0 0 4010 0 0 4037 0 0 4017 0 0 3971 0 0 3893 0 0 4092 0 0 3988 0 0 3939 0 0 3980 0 0 4125 0 0 4152 0 0 3859 0 0 3986 0 0 3996 0 0 3870 0 0 3974 0 0 4079 0 0 3972 0 0 3974 0 0 4069 0 0 4052 0 0 3967 0 0 1970 0 0 32 0 0 7 0 0 3 0 0 4 0 0 5 0 0 5 0 0 4 0 0 2 0 0 3 0 0 
0 0 0 0 0 0 1 0 0 0 0 0 2 0 0 3 0 0 5 0 0 6 0 0 4 0 0 34 0 0 1959 0 0 3996 0 0 4055 0 0 4038 0 0 4125 0 0 4049 0 0 4069 0 0 4034 0 0 4104 0 0 3968 0 0 4110 0 0 4070 0 0 3973 0 0 4030 0 0 3921 0 0 3940 0 0 3978 0 0 3996 0 0 4093 0 0 3981 0 0 4082 0 0 4082 0 0 3859 0 0 3986 0 0 4101 0 0 4010 0 0 3997 0 0 3992 0 0 4072 0 0 4072 0 0 4065 0 0 4024 0 0 4085 0 0 4027 0 0 4186 0 0 4030 0 0 4021 0 0 4060 0 0 4060 0 0 3971 0 0 2015 0 0 41 0 0 6 0 0 4 0 0 3 0 0 4 0 0 1 0 0 4 0 0 3 0 0 4 0 0 
0 0 0 2 0 0 2 0 0 0 0 0 4 0 0 0 0 0 4 0 0 7 0 0 8 0 0 30 0 0 2004 0 0 3940 0 0 3973 0 0 3971 0 0 4036 0 0 3969 0 0 4020 0 0 4005 0 0 4041 0 0 3982 0 0 3872 0 0 4054 0 0 3927 0 0 4044 0 0 4064 0 0 4008 0 0 4036 0 0 4032 0 0 4042 0 0 4117 0 0 4020 0 0 4023 0 0 4056 0 0 4017 0 0 4043 0 0 4067 0 0 4009 0 0 4112 0 0 3916 0 0 4042 0 0 3979 0 0 4027 0 0 3911 0 0 4118 0 0 4021 0 0 4000 0 0 4004 0 0 4061 0 0 3957 0 0 4016 0 0 1973 0 0 34 0 0 9 0 0 5 0 0 3 0 0 2 0 0 4 0 0 6 0 0 3 0 0 3 0 0 
1 0 0 1 0 0 0 0 0 1 0 0 1 0 0 4 0 0 7 0 0 6 0 0 6 0 0 32 0 0 1979 0 0 4044 0 0 4007 0 0 3971 0 0 3990 0 0 4040 0 0 4032 0 0 4036 0 0 3999 0 0 4123 0 0 3924 0 0 4074 0 0 3909 0 0 4054 0 0 4036 0 0 3934 0 0 4027 0 0 4082 0 0 4032 0 0 3982 0 0 3961 0 0 4045 0 0 4079 0 0 4014 0 0 3983 0 0 4110 0 0 3985 0 0 4128 0 0 4023 0 0 4106 0 0 4069 0 0 4014 0 0 4154 0 0 4177 0 0 4044 0 0 3987 0 0 4059 0 0 4024 0 0 4067 0 0 4068 0 0 2001 0 0 28 0 0 8 0 0 7 0 0 6 0 0 10 0 0 6 0 0 3 0 0 3 0 0 4 0 0 
0 0 0 0 0 0 1 0 0 5 0 0 5 0 0 8 0 0 6 0 0 6 0 0 5 0 0 30 0 0 2031 0 0 4038 0 0 4062 0 0 3963 0 0 4097 0 0 4059 0 0 4077 0 0 3998 0 0 4024 0 0 4062 0 0 4060 0 0 3936 0 0 4069 0 0 4014 0 0 4001 0 0 4034 0 0 3978 0 0 4011 0 0 4041 0 0 4091 0 0 4052 0 0 4112 0 0 4080 0 0 4041 0 0 4091 0 0 4087 0 0 4072 0 0 3891 0 0 4019 0 0 3981 0 0 3894 0 0 4070 0 0 4038 0 0 4033 0 0 4081 0 0 4088 0 0 4010 0 0 4077 0 0 4031 0 0 3984 0 0 2046 0 0 23 0 0 4 0 0 7 0 0 6 0 0 4 0 0 3 0 0 2 0 0 1 0 0 3 0 0 
2 0 0 5 0 0 2 0 0 1 0 0 5 0 0 4 0 0 6 0 0 11 0 0 8 0 0 37 0 0 1953 0 0 4055 0 0 4024 0 0 4069 0 0 4058 0 0 4042 0 0 3976 0 0 3954 0 0 3978 0 0 3958 0 0 4088 0 0 4164 0 0 3990 0 0 3975 0 0 4045 0 0 4033 0 0 4105 0 0 3945 0 0 4057 0 0 4031 0 0 4086 0 0 4054 0 0 4054 0 0 4118 0 0 3983 0 0 4079 0 0 4055 0 0 4080 0 0 3993 0 0 4097 0 0 4088 0 0 3917 0 0 4065 0 0 3826 0 0 3921 0 0 4011 0 0 4083 0 0 4026 0 0 3948 0 0 4010 0 0 1896 0 0 36 0 0 8 0 0 3 0 0 7 0 0 7 0 0 4 0 0 2 0 0 5 0 0 4 0 0 
2 0 0 0 0 0 2 0 0 1 0 0 9 0 0 3 0 0 2 0 0 3 0 0 10 0 0 43 0 0 2059 0 0 3984 0 0 4036 0 0 4034 0 0 4027 0 0 4046 0 0 4008 0 0 4036 0 0 4012 0 0 3931 0 0 3996 0 0 4013 0 0 4145 0 0 4014 0 0 3913 0 0 4007 0 0 3989 0 0 4030 0 0 4017 0 0 4034 0 0 4063 0 0 3980 0 0 4015 0 0 4188 0 0 4007 0 0 3950 0 0 3953 0 0 3930 0 0 3986 0 0 4127 0 0 4007 0 0 3872 0 0 4073 0 0 3992 0 0 4035 0 0 3975 0 0 3943 0 0 4024 0 0 4010 0 0 4044 0 0 2042 0 0 25 0 0 10 0 0 5 0 0 4 0 0 5 0 0 9 0 0 3 0 0 4 0 0 0 0 0 
2 0 0 1 0 0 3 0 0 4 0 0 3 0 0 4 0 0 2 0 0 4 0 0 10 0 0 36 0 0 2047 0 0 4002 0 0 3894 0 0 3995 0 0 3977 0 0 3976 0 0 4032 0 0 3990 0 0 4088 0 0 4138 0 0 4079 0 0 4069 0 0 4041 0 0 4033 0 0 4111 0 0 4007 0 0 4038 0 0 4000 0 0 3976 0 0 3932 0 0 4041 0 0 4086 0 0 3989 0 0 4143 0 0 4055 0 0 3991 0 0 4066 0 0 4038 0 0 4010 0 0 3999 0 0 4026 0 0 3970 0 0 4069 0 0 4070 0 0 4055 0 0 4084 0 0 4015 0 0 4038 0 0 3973 0 0 3977 0 0 2104 0 0 33 0 0 6 0 0 6 0 0 10 0 0 7 0 0 2 0 0 2 0 0 3 0 0 4 0 0 
1 0 0 0 0 0 1 0 0 2 0 0 3 0 0 3 0 0 5 0 0 3 0 0 4 0 0 38 0 0 2065 0 0 4026 0 0 3973 0 0 4037 0 0 4051 0 0 4039 0 0 4028 0 0 4046 0 0 3869 0 0 3995 0 0 4015 0 0 4065 0 0 4112 0 0 3850 0 0 4009 0 0 4030 0 0 4091 0 0 4057 0 0 4022 0 0 4015 0 0 4093 0 0 3990 0 0 3997 0 0 4135 0 0 4029 0 0 4033 0 0 4019 0 0 4072 0 0 4005 0 0 4067 0 0 4130 0 0 4083 0 0 4072 0 0 4042 0 0 3959 0 0 4031 0 0 4096 0 0 4000 0 0 3966 0 0 4063 0 0 2010 0 0 37 0 0 7 0 0 3 0 0 6 0 0 3 0 0 3 0 0 2 0 0 5 0 0 2 0 0 
0 0 0 1 0 0 2 0 0 2 0 0 3 0 0 4 0 0 4 0 0 7 0 0 9 0 0 36 0 0 1990 0 0 3911 0 0 3996 0 0 4044 0 0 4112 0 0 3994 0 0 4098 0 0 4000 0 0 3992 0 0 3994 0 0 4032 0 0 4030 0 0 4064 0 0 4105 0 0 4001 0 0 4080 0 0 4019 0 0 3942 0 0 4032 0 0 3956 0 0 4055 0 0 4065 0 0 4013 0 0 4062 0 0 4017 0 0 4074 0 0 4044 0 0 4056 0 0 3958 0 0 4003 0 0 4085 0 0 4113 0 0 3997 0 0 4046 0 0 4107 0 0 3950 0 0 3992 0 0 4017 0 0 3979 0 0 3986 0 0 2075 0 0 32 0 0 6 0 0 4 0 0 5 0 0 5 0 0 8 0 0 2 0 0 1 0 0 2 0 0 
0 0 0 1 0 0 2 0 0 2 0 0 2 0 0 8 0 0 6 0 0 4 0 0 9 0 0 32 0 0 1998 0 0 4025 0 0 4059 0 0 4000 0 0 3968 0 0 3992 0 0 4026 0 0 4052 0 0 4029 0 0 3960 0 0 4084 0 0 3935 0 0 3981 0 0 4062 0 0 4115 0 0 3985 0 0 4168 0 0 4050 0 0 4042 0 0 4093 0 0 4043 0 0 4020 0 0 4029 0 0 4068 0 0 3940 0 0 3916 0 0 4102 0 0 4107 0 0 4163 0 0 4125 0 0 4017 0 0 3966 0 0 4042 0 0 4022 0 0 4089 0 0 4016 0 0 4053 0 0 4037 0 0 4032 0 0 4035 0 0 1981 0 0 34 0 0 9 0 0 8 0 0 5 0 0 3 0 0 3 0 0 5 0 0 2 0 0 1 0 0 
0 0 0 2 0 0 5 0 0 1 0 0 4 0 0 6 0 0 9 0 0 6 0 0 6 0 0 36 0 0 2032 0 0 4008 0 0 3972 0 0 4010 0 0 4139 0 0 4031 0 0 3995 0 0 3996 0 0 4074 0 0 4015 0 0 3924 0 0 3996 0 0 4028 0 0 3956 0 0 3993 0 0 4042 0 0 4041 0 0 4039 0 0 4009 0 0 4059 0 0 3997 0 0 4042 0 0 4045 0 0 3940 0 0 4066 0 0 4158 0 0 4130 0 0 4056 0 0 4073 0 0 4116 0 0 4012 0 0 3962 0 0 4036 0 0 4031 0 0 4098 0 0 3890 0 0 4105 0 0 3992 0 0 4010 0 0 3902 0 0 1987 0 0 35 0 0 9 0 0 8 0 0 5 0 0 3 0 0 0 0 0 3 0 0 3 0 0 1 0 0 
0 0 0 0 0 0 1 0 0 2 0 0 3 0 0 0 0 0 4 0 0 3 0 0 5 0 0 36 0 0 2021 0 0 4075 0 0 4016 0 0 3987 0 0 4036 0 0 4059 0 0 3948 0 0 3973 0 0 4074 0 0 3978 0 0 4004 0 0 4039 0 0 4036 0 0 4010 0 0 3908 0 0 3956 0 0 4001 0 0 4033 0 0 4050 0 0 3998 0 0 4008 0 0 3998 0 0 4061 0 0 4039 0 0 3994 0 0 4005 0 0 3928 0 0 4032 0 0 4106 0 0 4076 0 0 4067 0 0 4007 0 0 4001 0 0 4052 0 0 3881 0 0 3987 0 0 4017 0 0 4077 0 0 4032 0 0 4089 0 0 2073 0 0 41 0 0 9 0 0 5 0 0 4 0 0 3 0 0 5 0 0 3 0 0 2 0 0 3 0 0 
1 0 0 2 0 0 9 0 0 0 0 0 1 0 0 5 0 0 2 0 0 2 0 0 5 0 0 36 0 0 2004 0 0 4023 0 0 3985 0 0 4005 0 0 4025 0 0 3962 0 0 3989 0 0 3951 0 0 4060 0 0 4010 0 0 4009 0 0 4024 0 0 4091 0 0 3987 0 0 3998 0 0 3977 0 0 4035 0 0 4065 0 0 3991 0 0 4019 0 0 4061 0 0 4093 0 0 4076 0 0 4106 0 0 4034 0 0 3963 0 0 3934 0 0 4114 0 0 4041 0 0 3991 0 0 3970 0 0 3987 0 0 3926 0 0 4194 0 0 3997 0 0 4043 0 0 4052 0 0 4102 0 0 4044 0 0 4079 0 0 2018 0 0 25 0 0 10 0 0 8 0 0 5 0 0 3 0 0 5 0 0 3 0 0 3 0 0 3 0 0 
1 0 0 3 0 0 2 0 0 1 0 0 1 0 0 3 0 0 1 0 0 4 0 0 4 0 0 33 0 0 2037 0 0 3990 0 0 4007 0 0 4120 0 0 4057 0 0 4027 0 0 3977 0 0 4055 0 0 4015 0 0 4101 0 0 4007 0 0 4147 0 0 4060 0 0 4035 0 0 4088 0 0 4155 0 0 4021 0 0 4021 0 0 4043 0 0 4006 0 0 3977 0 0 4035 0 0 3942 0 0 4032 0 0 4011 0 0 4033 0 0 4063 0 0 4106 0 0 4004 0 0 4055 0 0 4064 0 0 4041 0 0 4022 0 0 4067 0 0 3974 0 0 4146 0 0 4032 0 0 3914 0 0 3958 0 0 4068 0 0 2087 0 0 40 0 0 10 0 0 8 0 0 6 0 0 7 0 0 7 0 0 4 0 0 4 0 0 3 0 0 
0 0 0 2 0 0 2 0 0 1 0 0 2 0 0 2 0 0 2 0 0 2 0 0 5 0 0 37 0 0 1923 0 0 3936 0 0 3992 0 0 4009 0 0 4028 0 0 4030 0 0 3998 0 0 4104 0 0 3981 0 0 4084 0 0 4062 0 0 4061 0 0 4059 0 0 4031 0 0 4001 0 0 4015 0 0 4039 0 0 4138 0 0 3964 0 0 4133 0 0 4071 0 0 4008 0 0 3947 0 0 4029 0 0 4058 0 0 3869 0 0 4002 0 0 4109 0 0 3959 0 0 4002 0 0 3885 0 0 4034 0 0 3996 0 0 4014 0 0 4036 0 0 3935 0 0 4058 0 0 3986 0 0 4187 0 0 4065 0 0 1950 0 0 38 0 0 13 0 0 11 0 0 5 0 0 1 0 0 3 0 0 3 0 0 1 0 0 1 0 0 
0 0 0 0 0 0 1 0 0 3 0 0 6 0 0 3 0 0 0 0 0 1 0 0 7 0 0 29 0 0 1888 0 0 3949 0 0 4022 0 0 4111 0 0 4016 0 0 4034 0 0 3965 0 0 4022 0 0 4072 0 0 4084 0 0 3929 0 0 3985 0 0 4006 0 0 3930 0 0 4011 0 0 4156 0 0 3999 0 0 4076 0 0 4114 0 0 3945 0 0 3973 0 0 3998 0 0 4099 0 0 4066 0 0 4081 0 0 3925 0 0 4031 0 0 4011 0 0 4077 0 0 4045 0 0 3905 0 0 4005 0 0 3994 0 0 4095 0 0 3997 0 0 4064 0 0 4004 0 0 4020 0 0 4037 0 0 4105 0 0 2015 0 0 46 0 0 10 0 0 7 0 0 6 0 0 3 0 0 2 0 0 1 0 0 2 0 0 0 0 0 
0 0 0 1 0 0 0 0 0 2 0 0 5 0 0 7 0 0 5 0 0 4 0 0 5 0 0 39 0 0 2002 0 0 4048 0 0 4040 0 0 3894 0 0 3893 0 0 3996 0 0 4064 0 0 4036 0 0 4117 0 0 3933 0 0 4119 0 0 4066 0 0 3879 0 0 4069 0 0 4068 0 0 4002 0 0 4097 0 0 4024 0 0 4000 0 0 4046 0 0 4025 0 0 4066 0 0 3952 0 0 4009 0 0 4142 0 0 4172 0 0 4010 0 0 4075 0 0 4014 0 0 4117 0 0 4087 0 0 4055 0 0 3935 0 0 4131 0 0 3961 0 0 3946 0 0 3927 0 0 3971 0 0 4125 0 0 3951 0 0 2024 0 0 37 0 0 5 0 0 7 0 0 4 0 0 3 0 0 1 0 0 1 0 0 4 0 0 4 0 0 
0 0 0 4 0 0 0 0 0 1 0 0 2 0 0 4 0 0 3 0 0 4 0 0 6 0 0 38 0 0 2003 0 0 3984 0 0 3969 0 0 4170 0 0 3950 0 0 4022 0 0 3949 0 0 3963 0 0 4061 0 0 4031 0 0 3943 0 0 3979 0 0 3933 0 0 4028 0 0 4058 0 0 4080 0 0 4102 0 0 4099 0 0 3934 0 0 4014 0 0 4142 0 0 4040 0 0 3995 0 0 4045 0 0 4081 0 0 4028 0 0 4047 0 0 4071 0 0 3982 0 0 3965 0 0 4048 0 0 4066 0 0 4007 0 0 3997 0 0 3911 0 0 3979 0 0 3937 0 0 4072 0 0 3860 0 0 3976 0 0 1932 0 0 37 0 0 3 0 0 9 0 0 5 0 0 1 0 0 0 0 0 1 0 0 2 0 0 3 0 0 
0 0 0 0 0 0 0 0 0 4 0 0 5 0 0 4 0 0 7 0 0 3 0 0 3 0 0 28 0 0 1946 0 0 3949 0 0 3923 0 0 3996 0 0 4105 0 0 4025 0 0 3972 0 0 3876 0 0 4018 0 0 3901 0 0 4076 0 0 4088 0 0 4044 0 0 4046 0 0 4026 0 0 3951 0 0 4012 0 0 3935 0 0 4000 0 0 4007 0 0 3994 0 0 4026 0 0 4056 0 0 4037 0 0 3994 0 0 3967 0 0 4141 0 0 4055 0 0 3981 0 0 4021 0 0 4000 0 0 4036 0 0 4010 0 0 3930 0 0 4031 0 0 3997 0 0 4037 0 0 4103 0 0 4076 0 0 3967 0 0 1948 0 0 28 0 0 5 0 0 8 0 0 5 0 0 5 0 0 2 0 0 2 0 0 0 0 0 5 0 0 
0 0 0 3 0 0 2 0 0 2 0 0 2 0 0 3 0 0 5 0 0 4 0 0 7 0 0 34 0 0 2089 0 0 4119 0 0 4015 0 0 4006 0 0 3956 0 0 4077 0 0 4001 0 0 4037 0 0 4076 0 0 4023 0 0 3977 0 0 4072 0 0 4066 0 0 4052 0 0 4001 0 0 4002 0 0 4029 0 0 3990 0 0 4043 0 0 3867 0 0 3982 0 0 3976 0 0 4040 0 0 4068 0 0 4077 0 0 4072 0 0 4024 0 0 4057 0 0 4016 0 0 4015 0 0 4120 0 0 4012 0 0 4123 0 0 4087 0 0 3938 0 0 3992 0 0 4038 0 0 4058 0 0 4090 0 0 3976 0 0 2043 0 0 33 0 0 9 0 0 4 0 0 2 0 0 1 0 0 2 0 0 3 0 0 1 0 0 2 0 0 
2 0 0 4 0 0 4 0 0 1 0 0 2 0 0 3 0 0 1 0 0 3 0 0 9 0 0 38 0 0 2028 0 0 3884 0 0 3970 0 0 4093 0 0 4026 0 0 3975 0 0 4093 0 0 3971 0 0 4046 0 0 3904 0 0 3981 0 0 3991 0 0 4014 0 0 4031 0 0 3933 0 0 3976 0 0 4166 0 0 4064 0 0 3981 0 0 4020 0 0 4097 0 0 4130 0 0 4115 0 0 3966 0 0 4024 0 0 4051 0 0 4011 0 0 4047 0 0 4044 0 0 4030 0 0 3933 0 0 3979 0 0 4053 0 0 4068 0 0 3939 0 0 3891 0 0 3992 0 0 3973 0 0 4034 0 0 4086 0 0 2031 0 0 35 0 0 10 0 0 3 0 0 1 0 0 1 0 0 1 0 0 3 0 0 3 0 0 3 0 0 
2 0 0 0 0 0 1 0 0 0 0 0 3 0 0 3 0 0 3 0 0 4 0 0 7 0 0 36 0 0 1987 0 0 4016 0 0 4032 0 0 3976 0 0 4117 0 0 3972 0 0 4020 0 0 3962 0 0 4034 0 0 4098 0 0 4057 0 0 4108 0 0 3991 0 0 3991 0 0 4018 0 0 4079 0 0 4030 0 0 3972 0 0 4046 0 0 3950 0 0 4004 0 0 4142 0 0 4015 0 0 4162 0 0 3954 0 0 4074 0 0 4155 0 0 4139 0 0 4008 0 0 3978 0 0 4008 0 0 4015 0 0 3938 0 0 3974 0 0 3924 0 0 3983 0 0 3971 0 0 4036 0 0 3951 0 0 4001 0 0 2092 0 0 39 0 0 6 0 0 9 0 0 2 0 0 5 0 0 2 0 0 1 0 0 1 0 0 3 0 0 
0 0 0 0 0 0 1 0 0 3 0 0 7 0 0 1 0 0 0 0 0 5 0 0 7 0 0 28 0 0 1986 0 0 4062 0 0 4016 0 0 4132 0 0 4099 0 0 3994 0 0 4027 0 0 4082 0 0 4142 0 0 3937 0 0 3948 0 0 4104 0 0 4048 0 0 4077 0 0 3927 0 0 4014 0 0 3987 0 0 4046 0 0 4005 0 0 4051 0 0 3948 0 0 4155 0 0 4068 0 0 4049 0 0 4036 0 0 4007 0 0 4197 0 0 4052 0 0 4022 0 0 4048 0 0 3988 0 0 4054 0 0 4093 0 0 4012 0 0 4114 0 0 4066 0 0 4056 0 0 3984 0 0 4083 0 0 3941 0 0 1927 0 0 29 0 0 7 0 0 6 0 0 1 0 0 2 0 0 2 0 0 6 0 0 1 0 0 2 0 0 
0 0 0 0 0 0 1 0 0 3 0 0 3 0 0 0 0 0 3 0 0 2 0 0 6 0 0 29 0 0 1988 0 0 4108 0 0 3919 0 0 4006 0 0 3956 0 0 4198 0 0 4001 0 0 4115 0 0 4003 0 0 4038 0 0 4081 0 0 4120 0 0 3993 0 0 4057 0 0 4077 0 0 4076 0 0 4033 0 0 3870 0 0 4100 0 0 4053 0 0 4050 0 0 4119 0 0 4153 0 0 4053 0 0 3986 0 0 4101 0 0 3972 0 0 4056 0 0 4039 0 0 4056 0 0 4059 0 0 3943 0 0 4066 0 0 3973 0 0 4051 0 0 3954 0 0 4125 0 0 3934 0 0 3987 0 0 3920 0 0 2061 0 0 33 0 0 7 0 0 3 0 0 3 0 0 6 0 0 0 0 0 2 0 0 2 0 0 2 0 0 
0 0 0 0 0 0 3 0 0 2 0 0 0 0 0 5 0 0 8 0 0 5 0 0 8 0 0 30 0 0 1981 0 0 4048 0 0 4060 0 0 3943 0 0 4014 0 0 3994 0 0 4089 0 0 4050 0 0 4058 0 0 4074 0 0 3975 0 0 3969 0 0 4114 0 0 4005 0 0 4088 0 0 4030 0 0 4042 0 0 3929 0 0 4029 0 0 3929 0 0 4072 0 0 4074 0 0 3946 0 0 3947 0 0 4010 0 0 4003 0 0 4045 0 0 4027 0 0 4054 0 0 4058 0 0 4006 0 0 4082 0 0 3920 0 0 4027 0 0 4061 0 0 4003 0 0 4018 0 0 3996 0 0 4072 0 0 3927 0 0 2039 0 0 30 0 0 5 0 0 2 0 0 0 0 0 4 0 0 6 0 0 4 0 0 3 0 0 0 0 0 
0 0 0 0 0 0 0 0 0 2 0 0 1 0 0 5 0 0 3 0 0 1 0 0 3 0 0 33 0 0 2102 0 0 4007 0 0 4074 0 0 3990 0 0 4068 0 0 4030 0 0 4115 0 0 4068 0 0 4061 0 0 4034 0 0 4041 0 0 3951 0 0 3912 0 0 4144 0 0 4095 0 0 4045 0 0 4095 0 0 4181 0 0 4073 0 0 3959 0 0 4051 0 0 4061 0 0 4032 0 0 4086 0 0 4037 0 0 4000 0 0 4070 0 0 4021 0 0 4017 0 0 3950 0 0 4041 0 0 4074 0 0 4032 0 0 3981 0 0 4033 0 0 3981 0 0 4049 0 0 4035 0 0 4155 0 0 3985 0 0 2078 0 0 27 0 0 3 0 0 6 0 0 3 0 0 4 0 0 5 0 0 4 0 0 4 0 0 3 0 0 
1 0 0 2 0 0 3 0 0 1 0 0 1 0 0 4 0 0 2 0 0 0 0 0 3 0 0 25 0 0 2101 0 0 4048 0 0 4098 0 0 4003 0 0 4116 0 0 3938 0 0 4063 0 0 3955 0 0 4032 0 0 4057 0 0 4055 0 0 4096 0 0 3981 0 0 4065 0 0 3986 0 0 4054 0 0 4032 0 0 3988 0 0 4095 0 0 3963 0 0 4050 0 0 4097 0 0 3960 0 0 3988 0 0 4062 0 0 3918 0 0 4048 0 0 3971 0 0 3996 0 0 3970 0 0 4094 0 0 4040 0 0 4029 0 0 4021 0 0 3982 0 0 4137 0 0 3983 0 0 4027 0 0 3941 0 0 3996 0 0 2012 0 0 39 0 0 6 0 0 1 0 0 2 0 0 0 0 0 2 0 0 0 0 0 3 0 0 2 0 0 
1 0 0 4 0 0 6 0 0 5 0 0 2 0 0 2 0 0 1 0 0 1 0 0 4 0 0 44 0 0 2084 0 0 3939 0 0 4010 0 0 3995 0 0 3926 0 0 4109 0 0 4168 0 0 3951 0 0 4054 0 0 4049 0 0 4072 0 0 3917 0 0 3955 0 0 4090 0 0 4035 0 0 4013 0 0 4050 0 0 3976 0 0 3894 0 0 3960 0 0 3958 0 0 3947 0 0 4048 0 0 4015 0 0 4099 0 0 3996 0 0 3986 0 0 3919 0 0 3957 0 0 3976 0 0 4040 0 0 3959 0 0 4087 0 0 4000 0 0 4063 0 0 4087 0 0 4004 0 0 3969 0 0 3966 0 0 3901 0 0 2016 0 0 32 0 0 5 0 0 4 0 0 2 0 0 1 0 0 0 0 0 0 0 0 1 0 0 2 0 0 
1 0 0 1 0 0 1 0 0 0 0 0 2 0 0 1 0 0 2 0 0 5 0 0 6 0 0 34 0 0 2108 0 0 3915 0 0 4090 0 0 3951 0 0 4002 0 0 4001 0 0 3971 0 0 3931 0 0 3981 0 0 3961 0 0 4080 0 0 4071 0 0 3925 0 0 3930 0 0 3992 0 0 4093 0 0 4011 0 0 3989 0 0 3968 0 0 4044 0 0 3993 0 0 4037 0 0 4029 0 0 4019 0 0 4016 0 0 4054 0 0 4002 0 0 4029 0 0 4036 0 0 3985 0 0 3929 0 0 3980 0 0 4006 0 0 4060 0 0 4075 0 0 4037 0 0 4037 0 0 3974 0 0 4046 0 0 4078 0 0 2031 0 0 26 0 0 5 0 0 3 0 0 3 0 0 3 0 0 4 0 0 2 0 0 1 0 0 0 0 0 
1 0 0 4 0 0 3 0 0 4 0 0 2 0 0 3 0 0 1 0 0 2 0 0 3 0 0 31 0 0 2047 0 0 3947 0 0 4031 0 0 4053 0 0 4075 0 0 4112 0 0 3982 0 0 3916 0 0 4050 0 0 3888 0 0 4038 0 0 4112 0 0 3962 0 0 3923 0 0 3947 0 0 4121 0 0 4032 0 0 3978 0 0 3974 0 0 3988 0 0 4033 0 0 4040 0 0 3972 0 0 3987 0 0 4043 0 0 4028 0 0 3933 0 0 3955 0 0 3915 0 0 4026 0 0 4041 0 0 3988 0 0 4002 0 0 4068 0 0 4069 0 0 3931 0 0 4007 0 0 4068 0 0 3996 0 0 3967 0 0 1977 0 0 34 0 0 5 0 0 3 0 0 1 0 0 2 0 0 0 0 0 0 0 0 2 0 0 1 0 0 
0 0 0 2 0 0 3 0 0 5 0 0 3 0 0 2 0 0 2 0 0 3 0 0 2 0 0 35 0 0 1954 0 0 3992 0 0 3915 0 0 3933 0 0 3944 0 0 3976 0 0 3957 0 0 3973 0 0 3941 0 0 3921 0 0 4056 0 0 4061 0 0 3980 0 0 4012 0 0 3902 0 0 3966 0 0 3976 0 0 4031 0 0 3960 0 0 3883 0 0 4032 0 0 3990 0 0 3934 0 0 3979 0 0 4050 0 0 4045 0 0 4003 0 0 3946 0 0 4028 0 0 3898 0 0 4059 0 0 3932 0 0 3990 0 0 3897 0 0 4062 0 0 4059 0 0 4031 0 0 4091 0 0 3853 0 0 3948 0 0 2037 0 0 35 0 0 6 0 0 1 0 0 3 0 0 3 0 0 0 0 0 0 0 0 0 0 0 1 0 0 
0 0 0 1 0 0 2 0 0 1 0 0 4 0 0 2 0 0 2 0 0 0 0 0 3 0 0 21 0 0 1035 0 0 1928 0 0 2003 0 0 1995 0 0 2026 0 0 2036 0 0 1981 0 0 2018 0 0 2011 0 0 2054 0 0 2025 0 0 2037 0 0 2084 0 0 2040 0 0 1967 0 0 1959 0 0 2042 0 0 2059 0 0 2045 0 0 1976 0 0 2031 0 0 2086 0 0 2075 0 0 2066 0 0 2026 0 0 2064 0 0 2021 0 0 2046 0 0 2008 0 0 2024 0 0 2058 0 0 2015 0 0 2068 0 0 2024 0 0 1990 0 0 2030 0 0 2017 0 0 1975 0 0 1997 0 0 2002 0 0 997 0 0 19 0 0 6 0 0 1 0 0 0 0 0 1 0 0 1 0 0 0 0 0 0 0 0 0 0 0 
0 0 0 0 0 0 0 0 0 0 0 0 0 0 0 2 0 0 2 0 0 3 0 0 3 0 0 4 0 0 17 0 0 30 0 0 33 0 0 33 0 0 36 0 0 38 0 0 34 0 0 38 0 0 36 0 0 35 0 0 31 0 0 36 0 0 29 0 0 25 0 0 30 0 0 48 0 0 39 0 0 31 0 0 35 0 0 29 0 0 36 0 0 36 0 0 37 0 0 32 0 0 32 0 0 47 0 0 47 0 0 35 0 0 42 0 0 32 0 0 29 0 0 32 0 0 31 0 0 27 0 0 28 0 0 33 0 0 31 0 0 30 0 0 29 0 0 31 0 0 21 0 0 8 0 0 5 0 0 2 0 0 3 0 0 1 0 0 0 0 0 3 0 0 2 0 0 1 0 0 
0 0 0 0 0 0 0 0 0 0 0 0 1 0 0 2 0 0 1 0 0 6 0 0 0 0 0 0 0 0 4 0 0 3 0 0 3 0 0 4 0 0 8 0 0 12 0 0 2 0 0 3 0 0 9 0 0 7 0 0 7 0 0 8 0 0 3 0 0 6 0 0 7 0 0 6 0 0 10 0 0 7 0 0 8 0 0 6 0 0 10 0 0 13 0 0 8 0 0 4 0 0 10 0 0 2 0 0 6 0 0 5 0 0 6 0 0 9 0 0 15 0 0 6 0 0 4 0 0 7 0 0 8 0 0 11 0 0 5 0 0 6 0 0 0 0 0 5 0 0 4 0 0 2 0 0 3 0 0 2 0 0 0 0 0 0 0 0 0 0 0 0 0 0 1 0 0 2 0 0 
0 0 0 1 0 0 2 0 0 2 0 0 0 0 0 0 0 0 3 0 0 1 0 0 1 0 0 2 0 0 4 0 0 1 0 0 3 0 0 4 0 0 4 0 0 5 0 0 4 0 0 2 0 0 6 0 0 9 0 0 4 0 0 4 0 0 4 0 0 3 0 0 8 0 0 8 0 0 8 0 0 5 0 0 3 0 0 7 0 0 3 0 0 9 0 0 4 0 0 5 0 0 4 0 0 5 0 0 1 0 0 9 0 0 9 0 0 6 0 0 7 0 0 5 0 0 4 0 0 3 0 0 7 0 0 9 0 0 2 0 0 4 0 0 3 0 0 2 0 0 1 0 0 1 0 0 0 0 0 1 0 0 0 0 0 1 0 0 2 0 0 2 0 0 0 0 0 1 0 0 
0 0 0 2 0 0 2 0 0 1 0 0 0 0 0 1 0 0 1 0 0 1 0 0 2 0 0 3 0 0 0 0 0 0 0 0 4 0 0 4 0 0 0 0 0 3 0 0 1 0 0 7 0 0 7 0 0 4 0 0 3 0 0 5 0 0 6 0 0 2 0 0 3 0 0 2 0 0 5 0 0 5 0 0 3 0 0 3 0 0 4 0 0 5 0 0 7 0 0 6 0 0 2 0 0 2 0 0 1 0 0 2 0 0 8 0 0 6 0 0 4 0 0 2 0 0 3 0 0 3 0 0 3 0 0 7 0 0 4 0 0 1 0 0 5 0 0 2 0 0 4 0 0 3 0 0 0 0 0 3 0 0 2 0 0 0 0 0 3 0 0 1 0 0 4 0 0 0 0 0 
2 0 0 1 0 0 0 0 0 0 0 0 1 0 0 0 0 0 2 0 0 0 0 0 1 0 0 4 0 0 0 0 0 0 0 0 6 0 0 0 0 0 0 0 0 3 0 0 4 0 0 2 0 0 4 0 0 2 0 0 0 0 0 4 0 0 3 0 0 2 0 0 1 0 0 0 0 0 8 0 0 5 0 0 2 0 0 2 0 0 4 0 0 5 0 0 6 0 0 2 0 0 2 0 0 0 0 0 1 0 0 3 0 0 3 0 0 5 0 0 3 0 0 2 0 0 5 0 0 4 0 0 3 0 0 7 0 0 8 0 0 0 0 0 3 0 0 3 0 0 5 0 0 3 0 0 1 0 0 2 0 0 2 0 0 0 0 0 0 0 0 0 0 0 0 0 0 3 0 0 
0 0 0 0 0 0 2 0 0 1 0 0 1 0 0 1 0 0 0 0 0 0 0 0 2 0 0 0 0 0 2 0 0 3 0 0 6 0 0 2 0 0 2 0 0 5 0 0 1 0 0 1 0 0 4 0 0 2 0 0 3 0 0 3 0 0 2 0 0 2 0 0 2 0 0 2 0 0 3 0 0 5 0 0 1 0 0 8 0 0 4 0 0 5 0 0 2 0 0 6 0 0 2 0 0 1 0 0 1 0 0 3 0 0 4 0 0 0 0 0 5 0 0 5 0 0 6 0 0 5 0 0 5 0 0 2 0 0 5 0 0 0 0 0 2 0 0 1 0 0 3 0 0 3 0 0 0 0 0 0 0 0 0 0 0 0 0 0 1 0 0 0 0 0 0 0 0 0 0 0 
0 0 0 0 0 0 0 0 0 0 0 0 1 0 0 0 0 0 0 0 0 1 0 0 0 0 0 0 0 0 2 0 0 3 0 0 6 0 0 1 0 0 4 0 0 5 0 0 2 0 0 2 0 0 2 0 0 4 0 0 1 0 0 2 0 0 1 0 0 4 0 0 1 0 0 0 0 0 4 0 0 3 0 0 1 0 0 5 0 0 7 0 0 2 0 0 1 0 0 3 0 0 5 0 0 0 0 0 0 0 0 2 0 0 2 0 0 0 0 0 2 0 0 4 0 0 3 0 0 4 0 0 10 0 0 1 0 0 2 0 0 3 0 0 0 0 0 0 0 0 1 0 0 3 0 0 2 0 0 1 0 0 0 0 0 0 0 0 0 0 0 0 0 0 0 0 0 0 0 0 
0 0 0 0 0 0 0 0 0 0 0 0 1 0 0 0 0 0 1 0 0 0 0 0 0 0 0 0 0 0 4 0 0 2 0 0 3 0 0 2 0 0 0 0 0 3 0 0 5 0 0 2 0 0 0 0 0 3 0 0 2 0 0 1 0 0 3 0 0 2 0 0 1 0 0 0 0 0 2 0 0 3 0 0 1 0 0 4 0 0 4 0 0 3 0 0 0 0 0 3 0 0 1 0 0 2 0 0 0 0 0 2 0 0 3 0 0 1 0 0 1 0 0 0 0 0 4 0 0 1 0 0 7 0 0 2 0 0 1 0 0 1 0 0 0 0 0 0 0 0 0 0 0 3 0 0 1 0 0 3 0 0 0 0 0 0 0 0 0 0 0 0 0 0 1 0 0 0 0 0 
0 0 0 0 0 0 0 0 0 0 0 0 0 0 0 0 0 0 1 0 0 0 0 0 0 0 0 1 0 0 4 0 0 1 0 0 0 0 0 0 0 0 2 0 0 6 0 0 3 0 0 0 0 0 0 0 0 1 0 0 3 0 0 3 0 0 0 0 0 2 0 0 1 0 0 0 0 0 0 0 0 2 0 0 2 0 0 3 0 0 0 0 0 1 0 0 2 0 0 1 0 0 2 0 0 1 0 0 1 0 0 3 0 0 3 0 0 2 0 0 2 0 0 4 0 0 2 0 0 3 0 0 4 0 0 0 0 0 1 0 0 2 0 0 0 0 0 2 0 0 2 0 0 1 0 0 0 0 0 2 0 0 5 0 0 0 0 0 0 0 0 0 0 0 0 0 0 0 0 0 
