P3
# This is a dose file slice at depth 0 of 100
60 60
# now we give the maximum value of the RGB coordinates.
22407
0 0 0 0 0 0 0 0 0 0 0 0 0 0 0 0 0 0 0 0 0 0 0 0 0 0 0 0 0 0 0 0 0 0 0 0 0 0 0 0 0 0 0 0 0 0 0 0 0 0 0 0 0 0 0 0 0 0 0 0 0 0 0 0 0 0 0 0 0 0 0 0 0 0 0 0 0 0 0 0 0 0 0 0 0 0 0 0 0 0 0 0 0 0 0 0 0 0 0 0 0 0 0 0 0 0 0 0 0 0 0 0 0 0 0 0 0 0 0 0 0 0 0 0 0 0 0 0 0 0 0 0 0 0 0 0 0 0 0 0 0 0 0 0 0 0 0 0 0 0 0 0 0 0 0 0 0 0 0 0 0 0 0 0 0 0 0 0 0 0 0 0 0 0 0 0 0 0 0 0 
0 0 0 0 0 0 0 0 0 0 0 0 0 0 0 0 0 0 0 0 0 0 0 0 0 0 0 0 0 0 0 0 0 0 0 0 0 0 0 0 0 0 0 0 0 0 0 0 0 0 0 0 0 0 0 0 0 0 0 0 0 0 0 0 0 0 0 0 0 0 0 0 0 0 0 0 0 0 0 0 0 0 0 0 0 0 0 0 0 0 0 0 0 0 0 0 0 0 0 0 0 0 0 0 0 0 0 0 0 0 0 0 0 0 0 0 0 0 0 0 0 0 0 0 0 0 0 0 0 0 0 0 0 0 0 0 0 0 0 0 0 0 0 0 0 0 0 0 0 0 0 0 0 0 0 0 0 0 0 0 0 0 0 0 0 0 0 0 0 0 0 0 0 0 0 0 0 0 0 0 
0 0 0 0 0 0 0 0 0 0 0 0 0 0 0 0 0 0 0 0 0 0 0 0 0 0 0 0 0 0 0 0 0 0 0 0 0 0 0 0 0 0 0 0 0 0 0 0 0 0 0 0 0 0 0 0 0 0 0 0 0 0 0 0 0 0 0 0 0 0 0 0 0 0 0 0 0 0 0 0 0 0 0 0 0 0 0 0 0 0 0 0 0 0 0 0 0 0 0 0 0 0 0 0 0 0 0 0 0 0 0 0 0 0 0 0 0 0 0 0 0 0 0 0 0 0 0 0 0 0 0 0 0 0 0 0 0 0 0 0 0 0 0 0 0 0 0 0 0 0 0 0 0 0 0 0 0 0 0 0 0 0 0 0 0 0 0 0 0 0 0 0 0 0 0 0 0 0 0 0 
0 0 0 0 0 0 0 0 0 0 0 0 0 0 0 0 0 0 0 0 0 0 0 0 0 0 0 0 0 0 0 0 0 0 0 0 0 0 0 0 0 0 0 0 0 0 0 0 0 0 0 0 0 0 0 0 0 0 0 0 0 0 0 0 0 0 0 0 0 0 0 0 0 0 0 0 0 0 0 0 0 0 0 0 0 0 0 0 0 0 0 0 0 0 0 0 0 0 0 0 0 0 0 0 0 0 0 0 0 0 0 0 0 0 0 0 0 0 0 0 0 0 0 0 0 0 0 0 0 0 0 0 0 0 0 0 0 0 0 0 0 0 0 0 0 0 0 0 0 0 0 0 0 0 0 0 0 0 0 0 0 0 0 0 0 0 0 0 0 0 0 0 0 0 0 0 0 0 0 0 
0 0 0 0 0 0 0 0 0 0 0 0 0 0 0 0 0 0 0 0 0 0 0 0 0 0 0 0 0 0 0 0 0 0 0 0 0 0 0 0 0 0 0 0 0 0 0 0 0 0 0 0 0 0 0 0 0 0 0 0 0 0 0 0 0 0 0 0 0 0 0 0 0 0 0 0 0 0 0 0 0 0 0 0 0 0 0 0 0 0 0 0 0 0 0 0 0 0 0 0 0 0 0 0 0 0 0 0 0 0 0 0 0 0 0 0 0 0 0 0 0 0 0 0 0 0 0 0 0 0 0 0 0 0 0 0 0 0 0 0 0 0 0 0 0 0 0 0 0 0 0 0 0 0 0 0 0 0 0 0 0 0 0 0 0 0 0 0 0 0 0 0 0 0 0 0 0 0 0 0 
0 0 0 0 0 0 0 0 0 0 0 0 0 0 0 0 0 0 0 0 0 0 0 0 0 0 0 0 0 0 0 0 0 0 0 0 0 0 0 0 0 0 0 0 0 0 0 0 0 0 0 0 0 0 0 0 0 0 0 0 0 0 0 0 0 0 0 0 0 0 0 0 0 0 0 0 0 0 0 0 0 0 0 0 0 0 0 0 0 0 0 0 0 0 0 0 0 0 0 0 0 0 0 0 0 0 0 0 0 0 0 0 0 0 0 0 0 0 0 0 0 0 0 0 0 0 0 0 0 0 0 0 0 0 0 0 0 0 0 0 0 0 0 0 0 0 0 0 0 0 0 0 0 0 0 0 0 0 0 0 0 0 0 0 0 0 0 0 0 0 0 0 0 0 0 0 0 0 0 0 
0 0 0 0 0 0 0 0 0 0 0 0 0 0 0 0 0 0 0 0 0 0 0 0 0 0 0 0 0 0 0 0 0 0 0 0 0 0 0 0 0 0 0 0 0 0 0 0 0 0 0 0 0 0 0 0 0 0 0 0 0 0 0 0 0 0 0 0 0 0 0 0 0 0 0 0 0 0 0 0 0 0 0 0 0 0 0 0 0 0 0 0 0 0 0 0 0 0 0 0 0 0 0 0 0 0 0 0 0 0 0 0 0 0 0 0 0 0 0 0 0 0 0 0 0 0 0 0 0 0 0 0 0 0 0 0 0 0 0 0 0 0 0 0 0 0 0 0 0 0 0 0 0 0 0 0 0 0 0 0 0 0 0 0 0 0 0 0 0 0 0 0 0 0 0 0 0 0 0 0 
0 0 0 0 0 0 0 0 0 0 0 0 0 0 0 0 0 0 0 0 0 0 0 0 0 0 0 0 0 0 0 0 0 0 0 0 0 0 0 0 0 0 0 0 0 0 0 0 0 0 0 0 0 0 0 0 0 0 0 0 0 0 0 0 0 0 0 0 0 0 0 0 0 0 0 0 0 0 0 0 0 0 0 0 0 0 0 0 0 0 0 0 0 0 0 0 0 0 0 0 0 0 0 0 0 0 0 0 0 0 0 0 0 0 0 0 0 0 0 0 0 0 0 0 0 0 0 0 0 0 0 0 0 0 0 0 0 0 0 0 0 0 0 0 0 0 0 0 0 0 0 0 0 0 0 0 0 0 0 0 0 0 0 0 0 0 0 0 0 0 0 0 0 0 0 0 0 0 0 0 
0 0 0 0 0 0 0 0 0 0 0 0 0 0 0 0 0 0 0 0 0 0 0 0 0 0 0 0 0 0 0 0 0 0 0 0 0 0 0 0 0 0 0 0 0 0 0 0 0 0 0 0 0 0 0 0 0 0 0 0 0 0 0 0 0 0 0 0 0 0 0 0 0 0 0 0 0 0 0 0 0 0 0 0 0 0 0 0 0 0 0 0 0 0 0 0 0 0 0 0 0 0 0 0 0 0 0 0 0 0 0 0 0 0 0 0 0 0 0 0 0 0 0 0 0 0 0 0 0 0 0 0 0 0 0 0 0 0 0 0 0 0 0 0 0 0 0 0 0 0 0 0 0 0 0 0 0 0 0 0 0 0 0 0 0 0 0 0 0 0 0 0 0 0 0 0 0 0 0 0 
0 0 0 0 0 0 0 0 0 0 0 0 0 0 0 0 0 0 0 0 0 0 0 0 0 0 0 0 0 0 0 0 0 0 0 0 0 0 0 0 0 0 0 0 0 0 0 0 0 0 0 0 0 0 0 0 0 0 0 0 0 0 0 0 0 0 0 0 0 0 0 0 0 0 0 0 0 0 0 0 0 0 0 0 0 0 0 0 0 0 0 0 0 0 0 0 0 0 0 0 0 0 0 0 0 0 0 0 0 0 0 0 0 0 0 0 0 0 0 0 0 0 0 0 0 0 0 0 0 0 0 0 0 0 0 0 0 0 0 0 0 0 0 0 0 0 0 0 0 0 0 0 0 0 0 0 0 0 0 0 0 0 0 0 0 0 0 0 0 0 0 0 0 0 0 0 0 0 0 0 
0 0 0 0 0 0 0 0 0 0 0 0 0 0 0 0 0 0 0 0 0 0 0 0 0 0 0 0 0 0 2829 0 0 5538 0 0 5682 0 0 5649 0 0 5638 0 0 5660 0 0 5536 0 0 5519 0 0 5593 0 0 5676 0 0 5754 0 0 5560 0 0 5628 0 0 5507 0 0 5586 0 0 5580 0 0 5616 0 0 5612 0 0 5720 0 0 5491 0 0 5594 0 0 5695 0 0 5514 0 0 5537 0 0 5531 0 0 5700 0 0 5518 0 0 5664 0 0 5534 0 0 5581 0 0 5626 0 0 5546 0 0 5624 0 0 5789 0 0 5501 0 0 5569 0 0 5603 0 0 5543 0 0 5580 0 0 5583 0 0 2769 0 0 0 0 0 0 0 0 0 0 0 0 0 0 0 0 0 0 0 0 0 0 0 0 0 0 0 0 0 
0 0 0 0 0 0 0 0 0 0 0 0 0 0 0 0 0 0 0 0 0 0 0 0 0 0 0 0 0 0 5556 0 0 11242 0 0 11169 0 0 11205 0 0 11227 0 0 11283 0 0 11317 0 0 11334 0 0 11308 0 0 11108 0 0 11184 0 0 11354 0 0 11165 0 0 11235 0 0 11332 0 0 11071 0 0 11184 0 0 11255 0 0 11141 0 0 11290 0 0 11090 0 0 11351 0 0 11139 0 0 11046 0 0 11076 0 0 11327 0 0 11150 0 0 11327 0 0 11334 0 0 11139 0 0 11355 0 0 11091 0 0 11245 0 0 11334 0 0 11257 0 0 11066 0 0 11148 0 0 11083 0 0 11381 0 0 11529 0 0 5711 0 0 0 0 0 0 0 0 0 0 0 0 0 0 0 0 0 0 0 0 0 0 0 0 0 0 0 0 0 
0 0 0 0 0 0 0 0 0 0 0 0 0 0 0 0 0 0 0 0 0 0 0 0 0 0 0 0 0 0 5703 0 0 11186 0 0 11213 0 0 11142 0 0 11193 0 0 11107 0 0 11284 0 0 11222 0 0 11163 0 0 11138 0 0 11213 0 0 11235 0 0 11169 0 0 11255 0 0 11352 0 0 11277 0 0 11289 0 0 11023 0 0 11458 0 0 11341 0 0 11295 0 0 11099 0 0 11183 0 0 11156 0 0 11249 0 0 11077 0 0 11544 0 0 11363 0 0 11024 0 0 11503 0 0 11259 0 0 11247 0 0 11173 0 0 11070 0 0 11168 0 0 11266 0 0 11137 0 0 11344 0 0 11163 0 0 11347 0 0 5646 0 0 0 0 0 0 0 0 0 0 0 0 0 0 0 0 0 0 0 0 0 0 0 0 0 0 0 0 0 
0 0 0 0 0 0 0 0 0 0 0 0 0 0 0 0 0 0 0 0 0 0 0 0 0 0 0 0 0 0 5690 0 0 11427 0 0 11122 0 0 11247 0 0 11008 0 0 11231 0 0 11112 0 0 11133 0 0 11224 0 0 11238 0 0 11236 0 0 11198 0 0 11138 0 0 11152 0 0 11183 0 0 11090 0 0 11257 0 0 11169 0 0 11155 0 0 11112 0 0 11185 0 0 11201 0 0 11166 0 0 11355 0 0 11172 0 0 11273 0 0 11330 0 0 11127 0 0 11132 0 0 11142 0 0 11321 0 0 11184 0 0 11264 0 0 11291 0 0 11177 0 0 11325 0 0 11292 0 0 11180 0 0 11360 0 0 11207 0 0 5526 0 0 0 0 0 0 0 0 0 0 0 0 0 0 0 0 0 0 0 0 0 0 0 0 0 0 0 0 0 
0 0 0 0 0 0 0 0 0 0 0 0 0 0 0 0 0 0 0 0 0 0 0 0 0 0 0 0 0 0 5416 0 0 11011 0 0 11300 0 0 11189 0 0 11344 0 0 11314 0 0 11233 0 0 11040 0 0 11117 0 0 11062 0 0 11237 0 0 11185 0 0 11269 0 0 11390 0 0 11144 0 0 11123 0 0 11158 0 0 11263 0 0 11201 0 0 11364 0 0 11230 0 0 11225 0 0 11397 0 0 11311 0 0 11286 0 0 11200 0 0 11045 0 0 11192 0 0 11071 0 0 11164 0 0 11373 0 0 11257 0 0 11153 0 0 11143 0 0 11292 0 0 11321 0 0 11261 0 0 11287 0 0 11135 0 0 11148 0 0 5641 0 0 0 0 0 0 0 0 0 0 0 0 0 0 0 0 0 0 0 0 0 0 0 0 0 0 0 0 0 
0 0 0 0 0 0 0 0 0 0 0 0 0 0 0 0 0 0 0 0 0 0 0 0 0 0 0 0 0 0 5671 0 0 11256 0 0 11111 0 0 11217 0 0 11302 0 0 11194 0 0 11327 0 0 11391 0 0 11191 0 0 11232 0 0 11214 0 0 11221 0 0 11194 0 0 11245 0 0 11198 0 0 11067 0 0 11058 0 0 11284 0 0 10982 0 0 11235 0 0 11340 0 0 11415 0 0 11281 0 0 11299 0 0 11243 0 0 11185 0 0 11483 0 0 11193 0 0 11071 0 0 11200 0 0 11205 0 0 11122 0 0 11401 0 0 11287 0 0 11410 0 0 11358 0 0 11375 0 0 11397 0 0 11282 0 0 11297 0 0 5578 0 0 0 0 0 0 0 0 0 0 0 0 0 0 0 0 0 0 0 0 0 0 0 0 0 0 0 0 0 
0 0 0 0 0 0 0 0 0 0 0 0 0 0 0 0 0 0 0 0 0 0 0 0 0 0 0 0 0 0 5735 0 0 11121 0 0 11269 0 0 11369 0 0 11221 0 0 11017 0 0 11116 0 0 11254 0 0 11208 0 0 11172 0 0 11037 0 0 11151 0 0 11264 0 0 11325 0 0 11213 0 0 11328 0 0 11276 0 0 11077 0 0 11091 0 0 11278 0 0 11114 0 0 11179 0 0 11277 0 0 11260 0 0 11397 0 0 11330 0 0 11509 0 0 11009 0 0 11338 0 0 11119 0 0 11046 0 0 11133 0 0 11157 0 0 11481 0 0 11502 0 0 11420 0 0 11049 0 0 11177 0 0 11134 0 0 11280 0 0 5593 0 0 0 0 0 0 0 0 0 0 0 0 0 0 0 0 0 0 0 0 0 0 0 0 0 0 0 0 0 
0 0 0 0 0 0 0 0 0 0 0 0 0 0 0 0 0 0 0 0 0 0 0 0 0 0 0 0 0 0 5578 0 0 11227 0 0 11247 0 0 11290 0 0 11224 0 0 11260 0 0 11294 0 0 11304 0 0 11236 0 0 11072 0 0 11110 0 0 11043 0 0 11242 0 0 11301 0 0 11256 0 0 11294 0 0 11267 0 0 11297 0 0 11409 0 0 11301 0 0 11252 0 0 11270 0 0 11060 0 0 11243 0 0 11239 0 0 11151 0 0 11457 0 0 11150 0 0 11186 0 0 11170 0 0 11274 0 0 11060 0 0 11231 0 0 11230 0 0 11160 0 0 10994 0 0 11382 0 0 11346 0 0 11062 0 0 11258 0 0 5496 0 0 0 0 0 0 0 0 0 0 0 0 0 0 0 0 0 0 0 0 0 0 0 0 0 0 0 0 0 
0 0 0 0 0 0 0 0 0 0 0 0 0 0 0 0 0 0 0 0 0 0 0 0 0 0 0 0 0 0 5593 0 0 11223 0 0 11125 0 0 11138 0 0 11190 0 0 11268 0 0 11099 0 0 11292 0 0 11255 0 0 11114 0 0 11394 0 0 11229 0 0 11228 0 0 11111 0 0 11253 0 0 11310 0 0 11189 0 0 11210 0 0 11039 0 0 11348 0 0 11073 0 0 11228 0 0 11165 0 0 11114 0 0 11262 0 0 11173 0 0 11034 0 0 11294 0 0 11314 0 0 11278 0 0 11214 0 0 11520 0 0 11186 0 0 11118 0 0 11330 0 0 11318 0 0 11207 0 0 11304 0 0 11439 0 0 11160 0 0 5707 0 0 0 0 0 0 0 0 0 0 0 0 0 0 0 0 0 0 0 0 0 0 0 0 0 0 0 0 0 
0 0 0 0 0 0 0 0 0 0 0 0 0 0 0 0 0 0 0 0 0 0 0 0 0 0 0 0 0 0 5643 0 0 11008 0 0 11338 0 0 11396 0 0 11241 0 0 11215 0 0 11065 0 0 11354 0 0 11393 0 0 11301 0 0 11242 0 0 11097 0 0 11172 0 0 11251 0 0 11020 0 0 11112 0 0 11084 0 0 11118 0 0 11042 0 0 11430 0 0 11160 0 0 11224 0 0 11014 0 0 11231 0 0 11309 0 0 11105 0 0 11230 0 0 11112 0 0 11254 0 0 11530 0 0 11064 0 0 11167 0 0 11140 0 0 11271 0 0 11105 0 0 11174 0 0 11190 0 0 11394 0 0 11169 0 0 11261 0 0 5661 0 0 0 0 0 0 0 0 0 0 0 0 0 0 0 0 0 0 0 0 0 0 0 0 0 0 0 0 0 
0 0 0 0 0 0 0 0 0 0 0 0 0 0 0 0 0 0 0 0 0 0 0 0 0 0 0 0 0 0 5674 0 0 11409 0 0 11317 0 0 11179 0 0 11330 0 0 11157 0 0 11189 0 0 11414 0 0 11226 0 0 11307 0 0 11372 0 0 11182 0 0 11285 0 0 11199 0 0 11352 0 0 11281 0 0 11263 0 0 11307 0 0 11259 0 0 11157 0 0 11200 0 0 11201 0 0 11453 0 0 11368 0 0 11026 0 0 11419 0 0 11301 0 0 11228 0 0 11210 0 0 11124 0 0 11410 0 0 11295 0 0 11303 0 0 11268 0 0 11127 0 0 11226 0 0 11438 0 0 11138 0 0 11293 0 0 11313 0 0 5583 0 0 0 0 0 0 0 0 0 0 0 0 0 0 0 0 0 0 0 0 0 0 0 0 0 0 0 0 0 
0 0 0 0 0 0 0 0 0 0 0 0 0 0 0 0 0 0 0 0 0 0 0 0 0 0 0 0 0 0 5661 0 0 11012 0 0 11170 0 0 11341 0 0 11244 0 0 11417 0 0 11130 0 0 11119 0 0 11332 0 0 11307 0 0 11238 0 0 11304 0 0 11202 0 0 11058 0 0 11094 0 0 11191 0 0 11390 0 0 11282 0 0 11092 0 0 11290 0 0 11189 0 0 11214 0 0 11459 0 0 11244 0 0 11375 0 0 11200 0 0 11292 0 0 11282 0 0 11034 0 0 11142 0 0 11158 0 0 11251 0 0 11215 0 0 11161 0 0 11295 0 0 11163 0 0 11275 0 0 11179 0 0 11132 0 0 11122 0 0 5593 0 0 0 0 0 0 0 0 0 0 0 0 0 0 0 0 0 0 0 0 0 0 0 0 0 0 0 0 0 
0 0 0 0 0 0 0 0 0 0 0 0 0 0 0 0 0 0 0 0 0 0 0 0 0 0 0 0 0 0 5770 0 0 11105 0 0 11094 0 0 11157 0 0 11229 0 0 11423 0 0 11347 0 0 11265 0 0 11067 0 0 11074 0 0 11372 0 0 11299 0 0 11264 0 0 11173 0 0 11001 0 0 11183 0 0 11220 0 0 11152 0 0 11207 0 0 11345 0 0 11090 0 0 10925 0 0 11238 0 0 11164 0 0 11299 0 0 11274 0 0 11090 0 0 11009 0 0 11255 0 0 11282 0 0 11242 0 0 11105 0 0 11256 0 0 11406 0 0 11206 0 0 11241 0 0 11195 0 0 11152 0 0 11253 0 0 11227 0 0 5664 0 0 0 0 0 0 0 0 0 0 0 0 0 0 0 0 0 0 0 0 0 0 0 0 0 0 0 0 0 
0 0 0 0 0 0 0 0 0 0 0 0 0 0 0 0 0 0 0 0 0 0 0 0 0 0 0 0 0 0 5712 0 0 11202 0 0 11200 0 0 11329 0 0 11063 0 0 11014 0 0 11052 0 0 11247 0 0 11498 0 0 11138 0 0 11248 0 0 11089 0 0 11267 0 0 11277 0 0 11162 0 0 11288 0 0 11220 0 0 11276 0 0 11236 0 0 11097 0 0 11250 0 0 11292 0 0 10985 0 0 11268 0 0 11357 0 0 11240 0 0 11106 0 0 11249 0 0 10980 0 0 11229 0 0 11343 0 0 11146 0 0 11268 0 0 11225 0 0 11287 0 0 11156 0 0 11385 0 0 11243 0 0 11090 0 0 11343 0 0 5517 0 0 0 0 0 0 0 0 0 0 0 0 0 0 0 0 0 0 0 0 0 0 0 0 0 0 0 0 0 
0 0 0 0 0 0 0 0 0 0 0 0 0 0 0 0 0 0 0 0 0 0 0 0 0 0 0 0 0 0 5615 0 0 11375 0 0 11077 0 0 11261 0 0 11076 0 0 11051 0 0 11061 0 0 11110 0 0 11297 0 0 11305 0 0 11056 0 0 11201 0 0 11165 0 0 11332 0 0 11299 0 0 11154 0 0 11366 0 0 10999 0 0 11016 0 0 11117 0 0 11068 0 0 11257 0 0 11209 0 0 11192 0 0 11120 0 0 11274 0 0 11473 0 0 11283 0 0 11120 0 0 11237 0 0 11371 0 0 11505 0 0 11322 0 0 11223 0 0 11352 0 0 11086 0 0 11131 0 0 11184 0 0 11069 0 0 11091 0 0 5587 0 0 0 0 0 0 0 0 0 0 0 0 0 0 0 0 0 0 0 0 0 0 0 0 0 0 0 0 0 
0 0 0 0 0 0 0 0 0 0 0 0 0 0 0 0 0 0 0 0 0 0 0 0 0 0 0 0 0 0 5665 0 0 11320 0 0 11279 0 0 11409 0 0 10993 0 0 11058 0 0 11279 0 0 11285 0 0 11263 0 0 11190 0 0 11248 0 0 11212 0 0 11257 0 0 10951 0 0 11258 0 0 11211 0 0 11006 0 0 11231 0 0 11118 0 0 11279 0 0 11220 0 0 11161 0 0 11094 0 0 11243 0 0 11030 0 0 11291 0 0 11110 0 0 11215 0 0 11199 0 0 11229 0 0 11150 0 0 11358 0 0 11327 0 0 11188 0 0 11221 0 0 11190 0 0 11348 0 0 11307 0 0 11128 0 0 11380 0 0 5518 0 0 0 0 0 0 0 0 0 0 0 0 0 0 0 0 0 0 0 0 0 0 0 0 0 0 0 0 0 
0 0 0 0 0 0 0 0 0 0 0 0 0 0 0 0 0 0 0 0 0 0 0 0 0 0 0 0 0 0 5548 0 0 11145 0 0 11178 0 0 11431 0 0 11171 0 0 11112 0 0 11265 0 0 11247 0 0 11382 0 0 11257 0 0 11160 0 0 11262 0 0 11398 0 0 11272 0 0 11245 0 0 11090 0 0 11236 0 0 11413 0 0 11274 0 0 11213 0 0 11161 0 0 11166 0 0 11338 0 0 11272 0 0 11274 0 0 11143 0 0 11305 0 0 11041 0 0 11150 0 0 11212 0 0 11213 0 0 11210 0 0 11346 0 0 11164 0 0 11260 0 0 11241 0 0 11250 0 0 11193 0 0 11272 0 0 11062 0 0 5507 0 0 0 0 0 0 0 0 0 0 0 0 0 0 0 0 0 0 0 0 0 0 0 0 0 0 0 0 0 
0 0 0 0 0 0 0 0 0 0 0 0 0 0 0 0 0 0 0 0 0 0 0 0 0 0 0 0 0 0 5587 0 0 11149 0 0 11264 0 0 11111 0 0 11406 0 0 11309 0 0 11161 0 0 11341 0 0 11308 0 0 11039 0 0 11148 0 0 11284 0 0 11249 0 0 11342 0 0 11246 0 0 11246 0 0 11229 0 0 11321 0 0 11306 0 0 11228 0 0 11236 0 0 11220 0 0 11473 0 0 11287 0 0 11265 0 0 11171 0 0 11151 0 0 11269 0 0 11223 0 0 11278 0 0 11216 0 0 11331 0 0 11119 0 0 11387 0 0 11232 0 0 11280 0 0 11053 0 0 11454 0 0 11171 0 0 11395 0 0 5734 0 0 0 0 0 0 0 0 0 0 0 0 0 0 0 0 0 0 0 0 0 0 0 0 0 0 0 0 0 
0 0 0 0 0 0 0 0 0 0 0 0 0 0 0 0 0 0 0 0 0 0 0 0 0 0 0 0 0 0 5518 0 0 11169 0 0 11134 0 0 11330 0 0 11409 0 0 11104 0 0 11357 0 0 11232 0 0 11228 0 0 11173 0 0 11381 0 0 11187 0 0 11120 0 0 11185 0 0 11144 0 0 11298 0 0 11154 0 0 11314 0 0 11176 0 0 11386 0 0 11166 0 0 11073 0 0 11175 0 0 11334 0 0 11171 0 0 11212 0 0 11123 0 0 11207 0 0 11182 0 0 11133 0 0 11179 0 0 11123 0 0 11277 0 0 11227 0 0 11168 0 0 11262 0 0 11214 0 0 11236 0 0 11306 0 0 11409 0 0 5656 0 0 0 0 0 0 0 0 0 0 0 0 0 0 0 0 0 0 0 0 0 0 0 0 0 0 0 0 0 
0 0 0 0 0 0 0 0 0 0 0 0 0 0 0 0 0 0 0 0 0 0 0 0 0 0 0 0 0 0 5751 0 0 11301 0 0 11161 0 0 11187 0 0 11135 0 0 11307 0 0 11256 0 0 11121 0 0 11214 0 0 11207 0 0 11247 0 0 11284 0 0 11264 0 0 11411 0 0 11277 0 0 11235 0 0 11428 0 0 11274 0 0 11212 0 0 11360 0 0 11206 0 0 11307 0 0 11092 0 0 11315 0 0 11200 0 0 11259 0 0 11257 0 0 11171 0 0 11164 0 0 11212 0 0 11172 0 0 11125 0 0 11321 0 0 11092 0 0 11133 0 0 11068 0 0 11098 0 0 11273 0 0 11136 0 0 11247 0 0 5562 0 0 0 0 0 0 0 0 0 0 0 0 0 0 0 0 0 0 0 0 0 0 0 0 0 0 0 0 0 
0 0 0 0 0 0 0 0 0 0 0 0 0 0 0 0 0 0 0 0 0 0 0 0 0 0 0 0 0 0 5649 0 0 11135 0 0 11162 0 0 11159 0 0 11185 0 0 11243 0 0 11051 0 0 11299 0 0 11258 0 0 11292 0 0 11257 0 0 11119 0 0 11215 0 0 11150 0 0 11203 0 0 11345 0 0 11319 0 0 11055 0 0 11227 0 0 11215 0 0 11227 0 0 11135 0 0 11077 0 0 11012 0 0 11235 0 0 11322 0 0 11263 0 0 11059 0 0 11328 0 0 11291 0 0 11192 0 0 11270 0 0 11124 0 0 11153 0 0 11234 0 0 11190 0 0 11244 0 0 11247 0 0 11310 0 0 10958 0 0 5638 0 0 0 0 0 0 0 0 0 0 0 0 0 0 0 0 0 0 0 0 0 0 0 0 0 0 0 0 0 
0 0 0 0 0 0 0 0 0 0 0 0 0 0 0 0 0 0 0 0 0 0 0 0 0 0 0 0 0 0 5579 0 0 11273 0 0 11140 0 0 11318 0 0 11365 0 0 11139 0 0 11241 0 0 11115 0 0 11169 0 0 11074 0 0 11391 0 0 11212 0 0 11423 0 0 11138 0 0 11486 0 0 11245 0 0 11251 0 0 11325 0 0 11251 0 0 11230 0 0 11231 0 0 11217 0 0 11168 0 0 11155 0 0 11297 0 0 11272 0 0 10978 0 0 11435 0 0 11160 0 0 11335 0 0 11240 0 0 11162 0 0 11186 0 0 11369 0 0 11377 0 0 11301 0 0 11319 0 0 11158 0 0 11168 0 0 11241 0 0 5557 0 0 0 0 0 0 0 0 0 0 0 0 0 0 0 0 0 0 0 0 0 0 0 0 0 0 0 0 0 
0 0 0 0 0 0 0 0 0 0 0 0 0 0 0 0 0 0 0 0 0 0 0 0 0 0 0 0 0 0 5600 0 0 11143 0 0 11287 0 0 11336 0 0 11310 0 0 11352 0 0 11317 0 0 11005 0 0 11324 0 0 11110 0 0 11118 0 0 11233 0 0 11325 0 0 11330 0 0 11471 0 0 11221 0 0 11470 0 0 11300 0 0 11133 0 0 11330 0 0 11017 0 0 11163 0 0 11320 0 0 11207 0 0 11219 0 0 11023 0 0 11086 0 0 11107 0 0 11142 0 0 11085 0 0 11018 0 0 11130 0 0 11358 0 0 11271 0 0 11216 0 0 11166 0 0 11216 0 0 11072 0 0 11226 0 0 11084 0 0 5598 0 0 0 0 0 0 0 0 0 0 0 0 0 0 0 0 0 0 0 0 0 0 0 0 0 0 0 0 0 
0 0 0 0 0 0 0 0 0 0 0 0 0 0 0 0 0 0 0 0 0 0 0 0 0 0 0 0 0 0 5588 0 0 11152 0 0 11212 0 0 11121 0 0 11251 0 0 11118 0 0 11254 0 0 11126 0 0 11257 0 0 11268 0 0 11051 0 0 11174 0 0 11335 0 0 11322 0 0 11435 0 0 11430 0 0 11271 0 0 11262 0 0 11235 0 0 11390 0 0 11260 0 0 11127 0 0 11174 0 0 11133 0 0 11442 0 0 10938 0 0 11258 0 0 11454 0 0 11345 0 0 11135 0 0 11169 0 0 11207 0 0 11393 0 0 11108 0 0 11193 0 0 11347 0 0 11196 0 0 11302 0 0 11266 0 0 11176 0 0 5714 0 0 0 0 0 0 0 0 0 0 0 0 0 0 0 0 0 0 0 0 0 0 0 0 0 0 0 0 0 
0 0 0 0 0 0 0 0 0 0 0 0 0 0 0 0 0 0 0 0 0 0 0 0 0 0 0 0 0 0 5530 0 0 11254 0 0 11268 0 0 11322 0 0 11379 0 0 11232 0 0 11097 0 0 11185 0 0 11207 0 0 11248 0 0 11186 0 0 11388 0 0 11262 0 0 11220 0 0 11265 0 0 11415 0 0 11387 0 0 11118 0 0 10988 0 0 11270 0 0 11355 0 0 11310 0 0 11331 0 0 11093 0 0 11186 0 0 11228 0 0 11352 0 0 11507 0 0 11289 0 0 11181 0 0 11070 0 0 11295 0 0 11059 0 0 11199 0 0 11184 0 0 11307 0 0 11268 0 0 11202 0 0 11094 0 0 11260 0 0 5616 0 0 0 0 0 0 0 0 0 0 0 0 0 0 0 0 0 0 0 0 0 0 0 0 0 0 0 0 0 
0 0 0 0 0 0 0 0 0 0 0 0 0 0 0 0 0 0 0 0 0 0 0 0 0 0 0 0 0 0 5721 0 0 11508 0 0 11190 0 0 11263 0 0 11406 0 0 11387 0 0 11289 0 0 11110 0 0 11212 0 0 11289 0 0 11430 0 0 11251 0 0 10997 0 0 11310 0 0 11147 0 0 11268 0 0 11218 0 0 11398 0 0 11226 0 0 11120 0 0 11119 0 0 11208 0 0 11173 0 0 11338 0 0 11101 0 0 11161 0 0 11260 0 0 11358 0 0 11276 0 0 11466 0 0 11301 0 0 11203 0 0 11298 0 0 11052 0 0 11279 0 0 11093 0 0 11104 0 0 11080 0 0 11094 0 0 11103 0 0 5698 0 0 0 0 0 0 0 0 0 0 0 0 0 0 0 0 0 0 0 0 0 0 0 0 0 0 0 0 0 
0 0 0 0 0 0 0 0 0 0 0 0 0 0 0 0 0 0 0 0 0 0 0 0 0 0 0 0 0 0 5461 0 0 11142 0 0 11182 0 0 11061 0 0 11174 0 0 11149 0 0 11118 0 0 11269 0 0 11095 0 0 11135 0 0 11238 0 0 11098 0 0 11282 0 0 11004 0 0 11201 0 0 11226 0 0 11214 0 0 11094 0 0 11196 0 0 11276 0 0 11225 0 0 11222 0 0 11159 0 0 11469 0 0 11213 0 0 11164 0 0 11319 0 0 11160 0 0 11263 0 0 11166 0 0 11018 0 0 11282 0 0 11124 0 0 11071 0 0 11054 0 0 11316 0 0 11259 0 0 11289 0 0 11304 0 0 11125 0 0 5646 0 0 0 0 0 0 0 0 0 0 0 0 0 0 0 0 0 0 0 0 0 0 0 0 0 0 0 0 0 
0 0 0 0 0 0 0 0 0 0 0 0 0 0 0 0 0 0 0 0 0 0 0 0 0 0 0 0 0 0 5652 0 0 11182 0 0 11259 0 0 11408 0 0 11284 0 0 11140 0 0 11241 0 0 11289 0 0 11157 0 0 11194 0 0 11350 0 0 11213 0 0 11218 0 0 11287 0 0 11328 0 0 11189 0 0 11456 0 0 11343 0 0 11256 0 0 11230 0 0 11343 0 0 11157 0 0 11246 0 0 11017 0 0 11325 0 0 11292 0 0 11260 0 0 11404 0 0 11314 0 0 11138 0 0 11160 0 0 11148 0 0 11377 0 0 11318 0 0 11130 0 0 11090 0 0 11345 0 0 11175 0 0 11296 0 0 11288 0 0 5667 0 0 0 0 0 0 0 0 0 0 0 0 0 0 0 0 0 0 0 0 0 0 0 0 0 0 0 0 0 
0 0 0 0 0 0 0 0 0 0 0 0 0 0 0 0 0 0 0 0 0 0 0 0 0 0 0 0 0 0 5472 0 0 11051 0 0 11339 0 0 11065 0 0 11186 0 0 11192 0 0 11280 0 0 11192 0 0 11249 0 0 11372 0 0 11087 0 0 11218 0 0 11164 0 0 11171 0 0 11194 0 0 11250 0 0 11145 0 0 11367 0 0 11226 0 0 11181 0 0 11403 0 0 11145 0 0 11163 0 0 11130 0 0 11269 0 0 11270 0 0 11314 0 0 11239 0 0 11287 0 0 11238 0 0 11256 0 0 11129 0 0 11143 0 0 11089 0 0 11461 0 0 11279 0 0 11325 0 0 11237 0 0 11324 0 0 11214 0 0 5576 0 0 0 0 0 0 0 0 0 0 0 0 0 0 0 0 0 0 0 0 0 0 0 0 0 0 0 0 0 
0 0 0 0 0 0 0 0 0 0 0 0 0 0 0 0 0 0 0 0 0 0 0 0 0 0 0 0 0 0 5631 0 0 11268 0 0 11159 0 0 11157 0 0 11188 0 0 11127 0 0 11233 0 0 11337 0 0 11186 0 0 11283 0 0 11465 0 0 11193 0 0 11310 0 0 11198 0 0 11320 0 0 11205 0 0 11226 0 0 11207 0 0 11162 0 0 11249 0 0 11155 0 0 11048 0 0 11199 0 0 11138 0 0 11223 0 0 11319 0 0 11270 0 0 11171 0 0 11212 0 0 11265 0 0 11373 0 0 11141 0 0 11214 0 0 11450 0 0 11255 0 0 11136 0 0 11322 0 0 11095 0 0 11244 0 0 11393 0 0 5781 0 0 0 0 0 0 0 0 0 0 0 0 0 0 0 0 0 0 0 0 0 0 0 0 0 0 0 0 0 
0 0 0 0 0 0 0 0 0 0 0 0 0 0 0 0 0 0 0 0 0 0 0 0 0 0 0 0 0 0 5629 0 0 11277 0 0 11274 0 0 11297 0 0 11138 0 0 11111 0 0 11242 0 0 11254 0 0 11294 0 0 11260 0 0 11178 0 0 11130 0 0 11161 0 0 11119 0 0 11212 0 0 11231 0 0 11111 0 0 11225 0 0 11270 0 0 11154 0 0 11204 0 0 11061 0 0 11306 0 0 11250 0 0 11150 0 0 11257 0 0 11271 0 0 11310 0 0 11290 0 0 11150 0 0 11283 0 0 11257 0 0 11184 0 0 11221 0 0 11033 0 0 11140 0 0 11274 0 0 11301 0 0 11277 0 0 11239 0 0 5500 0 0 0 0 0 0 0 0 0 0 0 0 0 0 0 0 0 0 0 0 0 0 0 0 0 0 0 0 0 
0 0 0 0 0 0 0 0 0 0 0 0 0 0 0 0 0 0 0 0 0 0 0 0 0 0 0 0 0 0 5578 0 0 11283 0 0 11146 0 0 11193 0 0 11144 0 0 11055 0 0 11012 0 0 11200 0 0 11062 0 0 11218 0 0 11072 0 0 11165 0 0 11231 0 0 11315 0 0 11352 0 0 11356 0 0 11074 0 0 11372 0 0 11342 0 0 11387 0 0 11308 0 0 11326 0 0 11211 0 0 11165 0 0 10996 0 0 11267 0 0 11011 0 0 11235 0 0 11338 0 0 11130 0 0 11179 0 0 11309 0 0 11366 0 0 11197 0 0 11181 0 0 11196 0 0 11207 0 0 11016 0 0 11212 0 0 11040 0 0 5449 0 0 0 0 0 0 0 0 0 0 0 0 0 0 0 0 0 0 0 0 0 0 0 0 0 0 0 0 0 
0 0 0 0 0 0 0 0 0 0 0 0 0 0 0 0 0 0 0 0 0 0 0 0 0 0 0 0 0 0 5531 0 0 11088 0 0 11063 0 0 11104 0 0 11347 0 0 11395 0 0 11182 0 0 11242 0 0 11217 0 0 11124 0 0 11262 0 0 11198 0 0 11215 0 0 11302 0 0 11192 0 0 11308 0 0 11288 0 0 11465 0 0 11137 0 0 11361 0 0 11081 0 0 11373 0 0 11183 0 0 11164 0 0 11419 0 0 11438 0 0 11358 0 0 11107 0 0 11204 0 0 11242 0 0 11250 0 0 11462 0 0 10954 0 0 11280 0 0 11262 0 0 11061 0 0 11306 0 0 11146 0 0 11094 0 0 11342 0 0 5676 0 0 0 0 0 0 0 0 0 0 0 0 0 0 0 0 0 0 0 0 0 0 0 0 0 0 0 0 0 
0 0 0 0 0 0 0 0 0 0 0 0 0 0 0 0 0 0 0 0 0 0 0 0 0 0 0 0 0 0 5715 0 0 11236 0 0 11213 0 0 11144 0 0 11186 0 0 11202 0 0 11110 0 0 11344 0 0 10958 0 0 11204 0 0 11158 0 0 11312 0 0 11167 0 0 11190 0 0 11002 0 0 11114 0 0 11104 0 0 11239 0 0 11221 0 0 11086 0 0 11173 0 0 11365 0 0 11109 0 0 11363 0 0 11035 0 0 11322 0 0 11248 0 0 11215 0 0 11084 0 0 11261 0 0 11291 0 0 11237 0 0 11159 0 0 11494 0 0 11172 0 0 10976 0 0 11223 0 0 11133 0 0 11245 0 0 11169 0 0 5611 0 0 0 0 0 0 0 0 0 0 0 0 0 0 0 0 0 0 0 0 0 0 0 0 0 0 0 0 0 
0 0 0 0 0 0 0 0 0 0 0 0 0 0 0 0 0 0 0 0 0 0 0 0 0 0 0 0 0 0 5496 0 0 11411 0 0 11115 0 0 11007 0 0 11146 0 0 11097 0 0 11134 0 0 11192 0 0 11519 0 0 11478 0 0 11112 0 0 11376 0 0 11124 0 0 11458 0 0 11086 0 0 11242 0 0 11322 0 0 11219 0 0 11346 0 0 11302 0 0 11298 0 0 11236 0 0 11269 0 0 11217 0 0 11219 0 0 11259 0 0 11238 0 0 11227 0 0 11108 0 0 11131 0 0 11238 0 0 11251 0 0 11349 0 0 11125 0 0 11035 0 0 11019 0 0 11170 0 0 11157 0 0 11265 0 0 11145 0 0 5622 0 0 0 0 0 0 0 0 0 0 0 0 0 0 0 0 0 0 0 0 0 0 0 0 0 0 0 0 0 
0 0 0 0 0 0 0 0 0 0 0 0 0 0 0 0 0 0 0 0 0 0 0 0 0 0 0 0 0 0 5618 0 0 11212 0 0 11266 0 0 11234 0 0 11463 0 0 11206 0 0 11325 0 0 11099 0 0 11330 0 0 11191 0 0 11248 0 0 11355 0 0 11143 0 0 11146 0 0 11216 0 0 11243 0 0 11261 0 0 11168 0 0 11093 0 0 11178 0 0 11205 0 0 11227 0 0 11268 0 0 11329 0 0 11281 0 0 11183 0 0 11369 0 0 11001 0 0 11141 0 0 11156 0 0 11039 0 0 11208 0 0 11199 0 0 11229 0 0 11266 0 0 10980 0 0 11247 0 0 11388 0 0 11180 0 0 11332 0 0 5564 0 0 0 0 0 0 0 0 0 0 0 0 0 0 0 0 0 0 0 0 0 0 0 0 0 0 0 0 0 
0 0 0 0 0 0 0 0 0 0 0 0 0 0 0 0 0 0 0 0 0 0 0 0 0 0 0 0 0 0 5493 0 0 11279 0 0 11240 0 0 11289 0 0 11252 0 0 11007 0 0 11298 0 0 10966 0 0 11225 0 0 11148 0 0 11162 0 0 11288 0 0 10917 0 0 11257 0 0 11160 0 0 11365 0 0 11119 0 0 11162 0 0 11185 0 0 11015 0 0 11242 0 0 11159 0 0 11051 0 0 11141 0 0 11278 0 0 11226 0 0 11265 0 0 11346 0 0 11221 0 0 11147 0 0 11506 0 0 11175 0 0 11256 0 0 11216 0 0 11288 0 0 11235 0 0 11191 0 0 11288 0 0 11133 0 0 11464 0 0 5430 0 0 0 0 0 0 0 0 0 0 0 0 0 0 0 0 0 0 0 0 0 0 0 0 0 0 0 0 0 
0 0 0 0 0 0 0 0 0 0 0 0 0 0 0 0 0 0 0 0 0 0 0 0 0 0 0 0 0 0 5508 0 0 11310 0 0 11369 0 0 11251 0 0 11033 0 0 11250 0 0 11298 0 0 11225 0 0 11226 0 0 11205 0 0 11268 0 0 11290 0 0 11144 0 0 11369 0 0 11254 0 0 11160 0 0 11088 0 0 11225 0 0 11277 0 0 11146 0 0 11311 0 0 11232 0 0 11441 0 0 11160 0 0 11068 0 0 11291 0 0 11260 0 0 11076 0 0 11121 0 0 11280 0 0 11225 0 0 11151 0 0 11139 0 0 11167 0 0 11266 0 0 11180 0 0 11273 0 0 11328 0 0 11401 0 0 11222 0 0 5605 0 0 0 0 0 0 0 0 0 0 0 0 0 0 0 0 0 0 0 0 0 0 0 0 0 0 0 0 0 
0 0 0 0 0 0 0 0 0 0 0 0 0 0 0 0 0 0 0 0 0 0 0 0 0 0 0 0 0 0 5596 0 0 11406 0 0 11388 0 0 11320 0 0 11343 0 0 11202 0 0 11220 0 0 11110 0 0 11067 0 0 10967 0 0 11140 0 0 11221 0 0 11107 0 0 11275 0 0 11125 0 0 11224 0 0 11100 0 0 11123 0 0 11213 0 0 11239 0 0 11003 0 0 11091 0 0 11019 0 0 11152 0 0 11219 0 0 11284 0 0 11289 0 0 11208 0 0 11183 0 0 11145 0 0 11109 0 0 11052 0 0 11327 0 0 11077 0 0 11306 0 0 11237 0 0 11237 0 0 11325 0 0 11092 0 0 11140 0 0 5538 0 0 0 0 0 0 0 0 0 0 0 0 0 0 0 0 0 0 0 0 0 0 0 0 0 0 0 0 0 
0 0 0 0 0 0 0 0 0 0 0 0 0 0 0 0 0 0 0 0 0 0 0 0 0 0 0 0 0 0 5567 0 0 11162 0 0 11128 0 0 11364 0 0 11167 0 0 11413 0 0 11174 0 0 11373 0 0 11283 0 0 11299 0 0 11251 0 0 11003 0 0 11297 0 0 11232 0 0 11303 0 0 11235 0 0 11234 0 0 11327 0 0 11198 0 0 11265 0 0 11139 0 0 11262 0 0 11162 0 0 11111 0 0 11008 0 0 11051 0 0 11298 0 0 11219 0 0 11170 0 0 11143 0 0 11298 0 0 11209 0 0 11188 0 0 11247 0 0 11340 0 0 11247 0 0 11342 0 0 11103 0 0 11194 0 0 11263 0 0 5643 0 0 0 0 0 0 0 0 0 0 0 0 0 0 0 0 0 0 0 0 0 0 0 0 0 0 0 0 0 
0 0 0 0 0 0 0 0 0 0 0 0 0 0 0 0 0 0 0 0 0 0 0 0 0 0 0 0 0 0 2781 0 0 5595 0 0 5622 0 0 5605 0 0 5697 0 0 5484 0 0 5794 0 0 5499 0 0 5598 0 0 5554 0 0 5743 0 0 5634 0 0 5596 0 0 5549 0 0 5516 0 0 5533 0 0 5602 0 0 5621 0 0 5586 0 0 5576 0 0 5637 0 0 5694 0 0 5732 0 0 5509 0 0 5561 0 0 5599 0 0 5548 0 0 5594 0 0 5531 0 0 5728 0 0 5579 0 0 5675 0 0 5603 0 0 5614 0 0 5540 0 0 5656 0 0 5681 0 0 5707 0 0 5691 0 0 5809 0 0 2808 0 0 0 0 0 0 0 0 0 0 0 0 0 0 0 0 0 0 0 0 0 0 0 0 0 0 0 0 0 
0 0 0 0 0 0 0 0 0 0 0 0 0 0 0 0 0 0 0 0 0 0 0 0 0 0 0 0 0 0 0 0 0 0 0 0 0 0 0 0 0 0 0 0 0 0 0 0 0 0 0 0 0 0 0 0 0 0 0 0 0 0 0 0 0 0 0 0 0 0 0 0 0 0 0 0 0 0 0 0 0 0 0 0 0 0 0 0 0 0 0 0 0 0 0 0 0 0 0 0 0 0 0 0 0 0 0 0 0 0 0 0 0 0 0 0 0 0 0 0 0 0 0 0 0 0 0 0 0 0 0 0 0 0 0 0 0 0 0 0 0 0 0 0 0 0 0 0 0 0 0 0 0 0 0 0 0 0 0 0 0 0 0 0 0 0 0 0 0 0 0 0 0 0 0 0 0 0 0 0 
0 0 0 0 0 0 0 0 0 0 0 0 0 0 0 0 0 0 0 0 0 0 0 0 0 0 0 0 0 0 0 0 0 0 0 0 0 0 0 0 0 0 0 0 0 0 0 0 0 0 0 0 0 0 0 0 0 0 0 0 0 0 0 0 0 0 0 0 0 0 0 0 0 0 0 0 0 0 0 0 0 0 0 0 0 0 0 0 0 0 0 0 0 0 0 0 0 0 0 0 0 0 0 0 0 0 0 0 0 0 0 0 0 0 0 0 0 0 0 0 0 0 0 0 0 0 0 0 0 0 0 0 0 0 0 0 0 0 0 0 0 0 0 0 0 0 0 0 0 0 0 0 0 0 0 0 0 0 0 0 0 0 0 0 0 0 0 0 0 0 0 0 0 0 0 0 0 0 0 0 
0 0 0 0 0 0 0 0 0 0 0 0 0 0 0 0 0 0 0 0 0 0 0 0 0 0 0 0 0 0 0 0 0 0 0 0 0 0 0 0 0 0 0 0 0 0 0 0 0 0 0 0 0 0 0 0 0 0 0 0 0 0 0 0 0 0 0 0 0 0 0 0 0 0 0 0 0 0 0 0 0 0 0 0 0 0 0 0 0 0 0 0 0 0 0 0 0 0 0 0 0 0 0 0 0 0 0 0 0 0 0 0 0 0 0 0 0 0 0 0 0 0 0 0 0 0 0 0 0 0 0 0 0 0 0 0 0 0 0 0 0 0 0 0 0 0 0 0 0 0 0 0 0 0 0 0 0 0 0 0 0 0 0 0 0 0 0 0 0 0 0 0 0 0 0 0 0 0 0 0 
0 0 0 0 0 0 0 0 0 0 0 0 0 0 0 0 0 0 0 0 0 0 0 0 0 0 0 0 0 0 0 0 0 0 0 0 0 0 0 0 0 0 0 0 0 0 0 0 0 0 0 0 0 0 0 0 0 0 0 0 0 0 0 0 0 0 0 0 0 0 0 0 0 0 0 0 0 0 0 0 0 0 0 0 0 0 0 0 0 0 0 0 0 0 0 0 0 0 0 0 0 0 0 0 0 0 0 0 0 0 0 0 0 0 0 0 0 0 0 0 0 0 0 0 0 0 0 0 0 0 0 0 0 0 0 0 0 0 0 0 0 0 0 0 0 0 0 0 0 0 0 0 0 0 0 0 0 0 0 0 0 0 0 0 0 0 0 0 0 0 0 0 0 0 0 0 0 0 0 0 
0 0 0 0 0 0 0 0 0 0 0 0 0 0 0 0 0 0 0 0 0 0 0 0 0 0 0 0 0 0 0 0 0 0 0 0 0 0 0 0 0 0 0 0 0 0 0 0 0 0 0 0 0 0 0 0 0 0 0 0 0 0 0 0 0 0 0 0 0 0 0 0 0 0 0 0 0 0 0 0 0 0 0 0 0 0 0 0 0 0 0 0 0 0 0 0 0 0 0 0 0 0 0 0 0 0 0 0 0 0 0 0 0 0 0 0 0 0 0 0 0 0 0 0 0 0 0 0 0 0 0 0 0 0 0 0 0 0 0 0 0 0 0 0 0 0 0 0 0 0 0 0 0 0 0 0 0 0 0 0 0 0 0 0 0 0 0 0 0 0 0 0 0 0 0 0 0 0 0 0 
0 0 0 0 0 0 0 0 0 0 0 0 0 0 0 0 0 0 0 0 0 0 0 0 0 0 0 0 0 0 0 0 0 0 0 0 0 0 0 0 0 0 0 0 0 0 0 0 0 0 0 0 0 0 0 0 0 0 0 0 0 0 0 0 0 0 0 0 0 0 0 0 0 0 0 0 0 0 0 0 0 0 0 0 0 0 0 0 0 0 0 0 0 0 0 0 0 0 0 0 0 0 0 0 0 0 0 0 0 0 0 0 0 0 0 0 0 0 0 0 0 0 0 0 0 0 0 0 0 0 0 0 0 0 0 0 0 0 0 0 0 0 0 0 0 0 0 0 0 0 0 0 0 0 0 0 0 0 0 0 0 0 0 0 0 0 0 0 0 0 0 0 0 0 0 0 0 0 0 0 
0 0 0 0 0 0 0 0 0 0 0 0 0 0 0 0 0 0 0 0 0 0 0 0 0 0 0 0 0 0 0 0 0 0 0 0 0 0 0 0 0 0 0 0 0 0 0 0 0 0 0 0 0 0 0 0 0 0 0 0 0 0 0 0 0 0 0 0 0 0 0 0 0 0 0 0 0 0 0 0 0 0 0 0 0 0 0 0 0 0 0 0 0 0 0 0 0 0 0 0 0 0 0 0 0 0 0 0 0 0 0 0 0 0 0 0 0 0 0 0 0 0 0 0 0 0 0 0 0 0 0 0 0 0 0 0 0 0 0 0 0 0 0 0 0 0 0 0 0 0 0 0 0 0 0 0 0 0 0 0 0 0 0 0 0 0 0 0 0 0 0 0 0 0 0 0 0 0 0 0 
0 0 0 0 0 0 0 0 0 0 0 0 0 0 0 0 0 0 0 0 0 0 0 0 0 0 0 0 0 0 0 0 0 0 0 0 0 0 0 0 0 0 0 0 0 0 0 0 0 0 0 0 0 0 0 0 0 0 0 0 0 0 0 0 0 0 0 0 0 0 0 0 0 0 0 0 0 0 0 0 0 0 0 0 0 0 0 0 0 0 0 0 0 0 0 0 0 0 0 0 0 0 0 0 0 0 0 0 0 0 0 0 0 0 0 0 0 0 0 0 0 0 0 0 0 0 0 0 0 0 0 0 0 0 0 0 0 0 0 0 0 0 0 0 0 0 0 0 0 0 0 0 0 0 0 0 0 0 0 0 0 0 0 0 0 0 0 0 0 0 0 0 0 0 0 0 0 0 0 0 
0 0 0 0 0 0 0 0 0 0 0 0 0 0 0 0 0 0 0 0 0 0 0 0 0 0 0 0 0 0 0 0 0 0 0 0 0 0 0 0 0 0 0 0 0 0 0 0 0 0 0 0 0 0 0 0 0 0 0 0 0 0 0 0 0 0 0 0 0 0 0 0 0 0 0 0 0 0 0 0 0 0 0 0 0 0 0 0 0 0 0 0 0 0 0 0 0 0 0 0 0 0 0 0 0 0 0 0 0 0 0 0 0 0 0 0 0 0 0 0 0 0 0 0 0 0 0 0 0 0 0 0 0 0 0 0 0 0 0 0 0 0 0 0 0 0 0 0 0 0 0 0 0 0 0 0 0 0 0 0 0 0 0 0 0 0 0 0 0 0 0 0 0 0 0 0 0 0 0 0 
