P3
# This is a dose file slice at depth 55 of 100
60 60
# now we give the maximum value of the RGB coordinates.
22407
0 0 0 0 0 0 0 0 0 0 0 0 0 0 0 0 0 0 0 0 0 0 0 0 0 0 0 0 0 0 0 0 0 0 0 0 0 0 0 0 0 0 0 0 0 0 0 0 0 0 0 0 0 0 0 0 0 0 0 0 0 0 0 0 0 0 0 0 0 0 0 0 0 0 0 0 0 0 0 0 0 0 0 0 0 0 0 0 0 0 0 0 0 0 0 0 0 0 0 0 0 0 0 0 0 0 0 0 0 0 0 0 0 0 0 0 0 0 0 0 0 0 0 0 0 0 0 0 0 0 0 0 0 0 0 0 0 0 0 0 0 0 0 0 0 0 0 0 0 0 0 0 0 0 0 0 0 0 0 0 0 0 0 0 0 0 0 0 0 0 0 0 0 0 0 0 0 0 0 0 
0 0 0 0 0 0 0 0 0 0 0 0 0 0 0 0 0 0 0 0 0 0 0 0 0 0 0 0 0 0 0 0 0 0 0 0 0 0 0 0 0 0 0 0 0 0 0 0 0 0 0 0 0 0 0 0 0 0 0 0 0 0 0 0 0 0 0 0 0 0 0 0 0 0 0 0 0 0 0 0 0 0 0 0 0 0 0 0 0 0 0 0 0 0 0 0 0 0 0 0 0 0 0 0 0 0 0 0 0 0 0 0 0 0 0 0 0 0 0 0 0 0 0 0 0 0 0 0 0 0 0 0 0 0 0 0 0 0 0 0 0 0 0 0 0 0 0 0 0 0 0 0 0 0 0 0 0 0 0 0 0 0 0 0 0 0 0 0 0 0 0 0 0 0 0 0 0 0 0 0 
0 0 0 0 0 0 0 0 0 0 0 0 0 0 0 0 0 0 0 0 0 0 0 0 0 0 0 0 0 0 0 0 0 0 0 0 0 0 0 0 0 0 0 0 0 0 0 0 0 0 0 0 0 0 0 0 0 0 0 0 0 0 0 0 0 0 0 0 0 0 0 0 0 0 0 0 0 0 0 0 0 0 0 0 0 0 0 0 0 0 0 0 0 0 0 0 0 0 0 0 0 0 0 0 0 0 0 0 0 0 0 0 0 0 0 0 0 0 0 0 0 0 0 0 0 0 0 0 0 0 0 0 0 0 0 0 0 0 0 0 0 0 0 0 0 0 0 0 0 0 0 0 0 0 0 0 0 0 0 0 0 0 0 0 0 0 0 0 0 0 0 0 0 0 0 0 0 0 0 0 
0 0 0 0 0 0 0 0 0 0 0 0 0 0 0 0 0 0 0 0 0 0 0 0 0 0 0 0 0 0 0 0 0 0 0 0 0 0 0 0 0 0 0 0 0 0 0 0 0 0 0 0 0 0 0 0 0 0 0 0 0 0 0 0 0 0 0 0 0 0 0 0 0 0 0 0 0 0 0 0 0 0 0 0 0 0 0 0 0 0 0 0 0 0 0 0 0 0 0 0 0 0 0 0 0 0 0 0 0 0 0 0 0 0 0 0 0 0 0 0 0 0 0 0 0 0 0 0 0 0 0 0 0 0 0 0 0 0 0 0 0 0 0 0 0 0 0 0 0 0 0 0 0 0 0 0 0 0 0 0 0 0 0 0 0 0 0 0 0 0 0 0 0 0 0 0 0 0 0 0 
0 0 0 0 0 0 0 0 0 0 0 0 0 0 0 0 0 0 0 0 0 0 0 0 0 0 0 0 0 0 0 0 0 0 0 0 0 0 0 0 0 0 0 0 0 0 0 0 0 0 0 0 0 0 0 0 0 0 0 0 0 0 0 0 0 0 0 0 0 0 0 0 0 0 0 0 0 0 0 0 0 0 0 0 0 0 0 0 0 0 0 0 0 0 0 0 0 0 0 0 0 0 0 0 0 0 0 0 0 0 0 0 0 0 0 0 0 0 0 0 0 0 0 0 0 0 0 0 0 0 0 0 0 0 0 0 0 0 0 0 0 0 0 0 0 0 0 0 0 0 0 0 0 0 0 0 0 0 0 0 0 0 0 0 0 0 0 0 0 0 0 0 0 0 0 0 0 0 0 0 
0 0 0 0 0 0 0 0 0 0 0 0 0 0 0 0 0 0 0 0 0 0 0 0 0 0 0 0 0 0 0 0 0 0 0 0 0 0 0 0 0 0 0 0 0 0 0 0 0 0 0 0 0 0 0 0 0 0 0 0 0 0 0 0 0 0 0 0 0 0 0 0 0 0 0 0 0 0 0 0 0 0 0 0 0 0 0 0 0 0 0 0 0 0 0 0 0 0 0 0 0 0 0 0 0 0 0 0 0 0 0 0 0 0 0 0 0 0 0 0 0 0 0 0 0 0 0 0 0 0 0 0 0 0 0 0 0 0 0 0 0 0 0 0 0 0 0 0 0 0 0 0 0 0 0 0 0 0 0 0 0 0 0 0 0 0 0 0 0 0 0 0 0 0 0 0 0 0 0 0 
0 0 0 0 0 0 0 0 0 0 0 0 0 0 0 0 0 0 0 0 0 0 0 0 0 0 0 0 0 0 0 0 0 0 0 0 0 0 0 0 0 0 0 0 0 0 0 0 0 0 0 0 0 0 0 0 0 0 0 0 0 0 0 0 0 0 0 0 0 0 0 0 0 0 0 0 0 0 0 0 0 0 0 0 0 0 0 0 0 0 0 0 0 0 0 0 0 0 0 0 0 0 0 0 0 0 0 0 0 0 0 0 0 0 0 0 0 0 0 0 0 0 0 0 0 0 0 0 0 0 0 0 0 0 0 0 0 0 0 0 0 0 0 0 0 0 0 0 0 0 0 0 0 0 0 0 0 0 0 0 0 0 0 0 0 0 0 0 0 0 0 0 0 0 0 0 0 0 0 0 
0 0 0 0 0 0 0 0 0 0 0 0 0 0 0 0 0 0 0 0 0 0 0 0 0 0 0 0 0 0 0 0 0 0 0 0 0 0 0 0 0 0 0 0 0 0 0 0 0 0 0 0 0 0 0 0 0 0 0 0 0 0 0 0 0 0 0 0 0 0 0 0 0 0 0 0 0 0 0 0 0 0 0 0 0 0 0 0 0 0 0 0 0 0 0 0 0 0 0 0 0 0 0 0 0 0 0 0 0 0 0 0 0 0 0 0 0 0 0 0 0 0 0 0 0 0 0 0 0 0 0 0 0 0 0 0 0 0 0 0 0 0 0 0 0 0 0 0 0 0 0 0 0 0 0 0 0 0 0 0 0 0 0 0 0 0 0 0 0 0 0 0 0 0 0 0 0 0 0 0 
0 0 0 0 0 0 0 0 0 0 0 0 0 0 0 0 0 0 0 0 0 0 0 0 0 0 0 0 0 0 0 0 0 0 0 0 0 0 0 0 0 0 0 0 0 0 0 0 0 0 0 0 0 0 0 0 0 0 0 0 0 0 0 0 0 0 0 0 0 0 0 0 0 0 0 0 0 0 0 0 0 0 0 0 0 0 0 0 0 0 0 0 0 0 0 0 0 0 0 0 0 0 0 0 0 0 0 0 0 0 0 0 0 0 0 0 0 0 0 0 0 0 0 0 0 0 0 0 0 0 0 0 0 0 0 0 0 0 0 0 0 0 0 0 0 0 0 0 0 0 0 0 0 0 0 0 0 0 0 0 0 0 0 0 0 0 0 0 0 0 0 0 0 0 0 0 0 0 0 0 
0 0 0 0 0 0 0 0 0 0 0 0 0 0 0 0 0 0 0 0 0 0 0 0 0 0 0 0 0 0 0 0 0 0 0 0 0 0 0 0 0 0 0 0 0 0 0 0 0 0 0 0 0 0 0 0 0 0 0 0 0 0 0 0 0 0 0 0 0 0 0 0 0 0 0 0 0 0 0 0 0 0 0 0 0 0 0 0 0 0 0 0 0 0 0 0 0 0 0 0 0 0 0 0 0 0 0 0 0 0 0 0 0 0 0 0 0 0 0 0 0 0 0 0 0 0 0 0 0 0 0 0 0 0 0 0 0 0 0 0 0 0 0 0 0 0 0 0 0 0 0 0 0 0 0 0 0 0 0 0 0 0 0 0 0 0 0 0 0 0 0 0 0 0 0 0 0 0 0 0 
0 0 0 0 0 0 0 0 0 0 0 0 0 0 0 0 0 0 0 0 0 0 0 0 0 0 0 0 0 0 1092 0 0 2224 0 0 2191 0 0 2216 0 0 2208 0 0 2216 0 0 2199 0 0 2200 0 0 2226 0 0 2294 0 0 2172 0 0 2280 0 0 2336 0 0 2198 0 0 2253 0 0 2176 0 0 2264 0 0 2292 0 0 2174 0 0 2273 0 0 2222 0 0 2175 0 0 2174 0 0 2190 0 0 2186 0 0 2222 0 0 2247 0 0 2238 0 0 2263 0 0 2222 0 0 2180 0 0 2186 0 0 2202 0 0 2302 0 0 2145 0 0 2185 0 0 2162 0 0 2224 0 0 2184 0 0 2174 0 0 1106 0 0 0 0 0 0 0 0 0 0 0 0 0 0 0 0 0 0 0 0 0 0 0 0 0 0 0 0 0 
0 0 0 0 0 0 0 0 0 0 0 0 0 0 0 0 0 0 0 0 0 0 0 0 0 0 0 0 0 0 2211 0 0 4454 0 0 4492 0 0 4367 0 0 4444 0 0 4394 0 0 4353 0 0 4409 0 0 4467 0 0 4381 0 0 4414 0 0 4451 0 0 4445 0 0 4322 0 0 4562 0 0 4579 0 0 4445 0 0 4368 0 0 4522 0 0 4334 0 0 4481 0 0 4435 0 0 4553 0 0 4473 0 0 4461 0 0 4408 0 0 4437 0 0 4530 0 0 4505 0 0 4349 0 0 4396 0 0 4440 0 0 4420 0 0 4445 0 0 4473 0 0 4530 0 0 4508 0 0 4569 0 0 4416 0 0 4504 0 0 2242 0 0 0 0 0 0 0 0 0 0 0 0 0 0 0 0 0 0 0 0 0 0 0 0 0 0 0 0 0 
0 0 0 0 0 0 0 0 0 0 0 0 0 0 0 0 0 0 0 0 0 0 0 0 0 0 0 0 0 0 2235 0 0 4408 0 0 4444 0 0 4430 0 0 4502 0 0 4394 0 0 4531 0 0 4483 0 0 4373 0 0 4453 0 0 4467 0 0 4491 0 0 4449 0 0 4493 0 0 4407 0 0 4337 0 0 4437 0 0 4489 0 0 4306 0 0 4390 0 0 4423 0 0 4341 0 0 4436 0 0 4503 0 0 4361 0 0 4389 0 0 4351 0 0 4476 0 0 4450 0 0 4433 0 0 4422 0 0 4477 0 0 4409 0 0 4378 0 0 4436 0 0 4503 0 0 4462 0 0 4414 0 0 4457 0 0 4271 0 0 2234 0 0 0 0 0 0 0 0 0 0 0 0 0 0 0 0 0 0 0 0 0 0 0 0 0 0 0 0 0 
0 0 0 0 0 0 0 0 0 0 0 0 0 0 0 0 0 0 0 0 0 0 0 0 0 0 0 0 0 0 2217 0 0 4450 0 0 4507 0 0 4369 0 0 4398 0 0 4469 0 0 4477 0 0 4489 0 0 4490 0 0 4455 0 0 4469 0 0 4361 0 0 4350 0 0 4427 0 0 4495 0 0 4395 0 0 4448 0 0 4359 0 0 4466 0 0 4372 0 0 4459 0 0 4417 0 0 4351 0 0 4475 0 0 4504 0 0 4492 0 0 4419 0 0 4564 0 0 4323 0 0 4463 0 0 4369 0 0 4369 0 0 4515 0 0 4446 0 0 4481 0 0 4525 0 0 4370 0 0 4517 0 0 4625 0 0 4466 0 0 2256 0 0 0 0 0 0 0 0 0 0 0 0 0 0 0 0 0 0 0 0 0 0 0 0 0 0 0 0 0 
0 0 0 0 0 0 0 0 0 0 0 0 0 0 0 0 0 0 0 0 0 0 0 0 0 0 0 0 0 0 2163 0 0 4362 0 0 4229 0 0 4420 0 0 4523 0 0 4399 0 0 4514 0 0 4456 0 0 4426 0 0 4328 0 0 4425 0 0 4517 0 0 4548 0 0 4393 0 0 4314 0 0 4380 0 0 4425 0 0 4445 0 0 4447 0 0 4532 0 0 4411 0 0 4529 0 0 4464 0 0 4479 0 0 4549 0 0 4416 0 0 4534 0 0 4613 0 0 4539 0 0 4431 0 0 4552 0 0 4441 0 0 4413 0 0 4365 0 0 4448 0 0 4318 0 0 4528 0 0 4409 0 0 4470 0 0 4445 0 0 2266 0 0 0 0 0 0 0 0 0 0 0 0 0 0 0 0 0 0 0 0 0 0 0 0 0 0 0 0 0 
0 0 0 0 0 0 0 0 0 0 0 0 0 0 0 0 0 0 0 0 0 0 0 0 0 0 0 0 0 0 2213 0 0 4344 0 0 4400 0 0 4425 0 0 4373 0 0 4312 0 0 4534 0 0 4393 0 0 4428 0 0 4533 0 0 4552 0 0 4517 0 0 4462 0 0 4358 0 0 4495 0 0 4445 0 0 4460 0 0 4447 0 0 4390 0 0 4517 0 0 4444 0 0 4486 0 0 4509 0 0 4415 0 0 4473 0 0 4498 0 0 4453 0 0 4609 0 0 4460 0 0 4526 0 0 4506 0 0 4564 0 0 4330 0 0 4316 0 0 4462 0 0 4461 0 0 4509 0 0 4252 0 0 4469 0 0 4441 0 0 2134 0 0 0 0 0 0 0 0 0 0 0 0 0 0 0 0 0 0 0 0 0 0 0 0 0 0 0 0 0 
0 0 0 0 0 0 0 0 0 0 0 0 0 0 0 0 0 0 0 0 0 0 0 0 0 0 0 0 0 0 2227 0 0 4429 0 0 4356 0 0 4435 0 0 4553 0 0 4390 0 0 4415 0 0 4421 0 0 4395 0 0 4439 0 0 4433 0 0 4407 0 0 4397 0 0 4460 0 0 4426 0 0 4583 0 0 4436 0 0 4506 0 0 4491 0 0 4402 0 0 4437 0 0 4511 0 0 4451 0 0 4506 0 0 4403 0 0 4362 0 0 4309 0 0 4452 0 0 4517 0 0 4443 0 0 4504 0 0 4518 0 0 4506 0 0 4532 0 0 4641 0 0 4421 0 0 4420 0 0 4592 0 0 4459 0 0 4387 0 0 2121 0 0 0 0 0 0 0 0 0 0 0 0 0 0 0 0 0 0 0 0 0 0 0 0 0 0 0 0 0 
0 0 0 0 0 0 0 0 0 0 0 0 0 0 0 0 0 0 0 0 0 0 0 0 0 0 0 0 0 0 2131 0 0 4458 0 0 4437 0 0 4472 0 0 4440 0 0 4439 0 0 4362 0 0 4501 0 0 4376 0 0 4467 0 0 4411 0 0 4327 0 0 4378 0 0 4458 0 0 4473 0 0 4384 0 0 4408 0 0 4440 0 0 4504 0 0 4517 0 0 4452 0 0 4417 0 0 4414 0 0 4299 0 0 4527 0 0 4339 0 0 4450 0 0 4362 0 0 4449 0 0 4524 0 0 4511 0 0 4517 0 0 4459 0 0 4455 0 0 4419 0 0 4526 0 0 4413 0 0 4504 0 0 4417 0 0 4432 0 0 2157 0 0 0 0 0 0 0 0 0 0 0 0 0 0 0 0 0 0 0 0 0 0 0 0 0 0 0 0 0 
0 0 0 0 0 0 0 0 0 0 0 0 0 0 0 0 0 0 0 0 0 0 0 0 0 0 0 0 0 0 2178 0 0 4432 0 0 4409 0 0 4362 0 0 4636 0 0 4456 0 0 4457 0 0 4388 0 0 4478 0 0 4361 0 0 4439 0 0 4421 0 0 4307 0 0 4445 0 0 4539 0 0 4368 0 0 4431 0 0 4447 0 0 4507 0 0 4335 0 0 4431 0 0 4424 0 0 4524 0 0 4456 0 0 4496 0 0 4422 0 0 4495 0 0 4415 0 0 4497 0 0 4431 0 0 4468 0 0 4395 0 0 4334 0 0 4457 0 0 4450 0 0 4449 0 0 4606 0 0 4499 0 0 4520 0 0 4378 0 0 2203 0 0 0 0 0 0 0 0 0 0 0 0 0 0 0 0 0 0 0 0 0 0 0 0 0 0 0 0 0 
0 0 0 0 0 0 0 0 0 0 0 0 0 0 0 0 0 0 0 0 0 0 0 0 0 0 0 0 0 0 2337 0 0 4441 0 0 4508 0 0 4494 0 0 4466 0 0 4405 0 0 4480 0 0 4427 0 0 4344 0 0 4426 0 0 4351 0 0 4410 0 0 4498 0 0 4413 0 0 4483 0 0 4423 0 0 4622 0 0 4472 0 0 4451 0 0 4433 0 0 4498 0 0 4419 0 0 4319 0 0 4393 0 0 4444 0 0 4487 0 0 4419 0 0 4339 0 0 4490 0 0 4458 0 0 4408 0 0 4495 0 0 4420 0 0 4457 0 0 4490 0 0 4379 0 0 4421 0 0 4436 0 0 4432 0 0 4478 0 0 2219 0 0 0 0 0 0 0 0 0 0 0 0 0 0 0 0 0 0 0 0 0 0 0 0 0 0 0 0 0 
0 0 0 0 0 0 0 0 0 0 0 0 0 0 0 0 0 0 0 0 0 0 0 0 0 0 0 0 0 0 2132 0 0 4460 0 0 4430 0 0 4436 0 0 4501 0 0 4459 0 0 4484 0 0 4533 0 0 4309 0 0 4321 0 0 4428 0 0 4487 0 0 4523 0 0 4557 0 0 4537 0 0 4439 0 0 4399 0 0 4400 0 0 4449 0 0 4604 0 0 4428 0 0 4368 0 0 4521 0 0 4541 0 0 4447 0 0 4362 0 0 4329 0 0 4415 0 0 4401 0 0 4481 0 0 4486 0 0 4617 0 0 4482 0 0 4438 0 0 4570 0 0 4522 0 0 4541 0 0 4473 0 0 4462 0 0 4370 0 0 2157 0 0 0 0 0 0 0 0 0 0 0 0 0 0 0 0 0 0 0 0 0 0 0 0 0 0 0 0 0 
0 0 0 0 0 0 0 0 0 0 0 0 0 0 0 0 0 0 0 0 0 0 0 0 0 0 0 0 0 0 2234 0 0 4461 0 0 4455 0 0 4424 0 0 4478 0 0 4545 0 0 4449 0 0 4467 0 0 4406 0 0 4386 0 0 4435 0 0 4440 0 0 4530 0 0 4445 0 0 4553 0 0 4369 0 0 4398 0 0 4418 0 0 4571 0 0 4415 0 0 4398 0 0 4307 0 0 4312 0 0 4580 0 0 4352 0 0 4361 0 0 4448 0 0 4364 0 0 4405 0 0 4437 0 0 4325 0 0 4561 0 0 4534 0 0 4481 0 0 4375 0 0 4420 0 0 4430 0 0 4419 0 0 4547 0 0 4540 0 0 2176 0 0 0 0 0 0 0 0 0 0 0 0 0 0 0 0 0 0 0 0 0 0 0 0 0 0 0 0 0 
0 0 0 0 0 0 0 0 0 0 0 0 0 0 0 0 0 0 0 0 0 0 0 0 0 0 0 0 0 0 2211 0 0 4563 0 0 4539 0 0 4392 0 0 4465 0 0 4471 0 0 4520 0 0 4418 0 0 4393 0 0 4389 0 0 4481 0 0 4449 0 0 4455 0 0 4417 0 0 4494 0 0 4569 0 0 4440 0 0 4418 0 0 4484 0 0 4370 0 0 4423 0 0 4471 0 0 4340 0 0 4400 0 0 4393 0 0 4387 0 0 4394 0 0 4609 0 0 4485 0 0 4476 0 0 4469 0 0 4398 0 0 4511 0 0 4441 0 0 4505 0 0 4436 0 0 4494 0 0 4471 0 0 4566 0 0 4406 0 0 2213 0 0 0 0 0 0 0 0 0 0 0 0 0 0 0 0 0 0 0 0 0 0 0 0 0 0 0 0 0 
0 0 0 0 0 0 0 0 0 0 0 0 0 0 0 0 0 0 0 0 0 0 0 0 0 0 0 0 0 0 2289 0 0 4349 0 0 4446 0 0 4500 0 0 4382 0 0 4430 0 0 4346 0 0 4427 0 0 4369 0 0 4342 0 0 4515 0 0 4479 0 0 4313 0 0 4536 0 0 4430 0 0 4515 0 0 4521 0 0 4293 0 0 4434 0 0 4349 0 0 4366 0 0 4590 0 0 4478 0 0 4500 0 0 4410 0 0 4349 0 0 4409 0 0 4372 0 0 4340 0 0 4485 0 0 4552 0 0 4448 0 0 4434 0 0 4454 0 0 4441 0 0 4412 0 0 4487 0 0 4409 0 0 4595 0 0 4286 0 0 2199 0 0 0 0 0 0 0 0 0 0 0 0 0 0 0 0 0 0 0 0 0 0 0 0 0 0 0 0 0 
0 0 0 0 0 0 0 0 0 0 0 0 0 0 0 0 0 0 0 0 0 0 0 0 0 0 0 0 0 0 2211 0 0 4350 0 0 4476 0 0 4442 0 0 4600 0 0 4367 0 0 4363 0 0 4480 0 0 4392 0 0 4410 0 0 4461 0 0 4467 0 0 4640 0 0 4270 0 0 4386 0 0 4466 0 0 4448 0 0 4462 0 0 4471 0 0 4568 0 0 4544 0 0 4439 0 0 4418 0 0 4486 0 0 4485 0 0 4348 0 0 4432 0 0 4387 0 0 4447 0 0 4372 0 0 4579 0 0 4264 0 0 4456 0 0 4398 0 0 4508 0 0 4558 0 0 4383 0 0 4422 0 0 4393 0 0 4468 0 0 2226 0 0 0 0 0 0 0 0 0 0 0 0 0 0 0 0 0 0 0 0 0 0 0 0 0 0 0 0 0 
0 0 0 0 0 0 0 0 0 0 0 0 0 0 0 0 0 0 0 0 0 0 0 0 0 0 0 0 0 0 2178 0 0 4460 0 0 4370 0 0 4416 0 0 4532 0 0 4399 0 0 4456 0 0 4452 0 0 4460 0 0 4492 0 0 4378 0 0 4431 0 0 4393 0 0 4454 0 0 4432 0 0 4322 0 0 4538 0 0 4387 0 0 4397 0 0 4478 0 0 4474 0 0 4475 0 0 4428 0 0 4416 0 0 4351 0 0 4487 0 0 4556 0 0 4456 0 0 4480 0 0 4457 0 0 4511 0 0 4304 0 0 4407 0 0 4335 0 0 4431 0 0 4511 0 0 4429 0 0 4449 0 0 4426 0 0 4519 0 0 2245 0 0 0 0 0 0 0 0 0 0 0 0 0 0 0 0 0 0 0 0 0 0 0 0 0 0 0 0 0 
0 0 0 0 0 0 0 0 0 0 0 0 0 0 0 0 0 0 0 0 0 0 0 0 0 0 0 0 0 0 2307 0 0 4392 0 0 4437 0 0 4403 0 0 4491 0 0 4489 0 0 4524 0 0 4443 0 0 4507 0 0 4367 0 0 4463 0 0 4469 0 0 4411 0 0 4466 0 0 4341 0 0 4296 0 0 4544 0 0 4468 0 0 4469 0 0 4493 0 0 4428 0 0 4460 0 0 4433 0 0 4443 0 0 4420 0 0 4436 0 0 4270 0 0 4359 0 0 4370 0 0 4434 0 0 4478 0 0 4371 0 0 4376 0 0 4470 0 0 4500 0 0 4383 0 0 4388 0 0 4378 0 0 4397 0 0 4345 0 0 2221 0 0 0 0 0 0 0 0 0 0 0 0 0 0 0 0 0 0 0 0 0 0 0 0 0 0 0 0 0 
0 0 0 0 0 0 0 0 0 0 0 0 0 0 0 0 0 0 0 0 0 0 0 0 0 0 0 0 0 0 2200 0 0 4526 0 0 4501 0 0 4490 0 0 4492 0 0 4491 0 0 4550 0 0 4351 0 0 4413 0 0 4477 0 0 4474 0 0 4355 0 0 4393 0 0 4369 0 0 4442 0 0 4483 0 0 4379 0 0 4458 0 0 4463 0 0 4519 0 0 4410 0 0 4426 0 0 4429 0 0 4289 0 0 4484 0 0 4513 0 0 4415 0 0 4393 0 0 4425 0 0 4364 0 0 4392 0 0 4396 0 0 4497 0 0 4407 0 0 4462 0 0 4450 0 0 4479 0 0 4394 0 0 4394 0 0 4395 0 0 2293 0 0 0 0 0 0 0 0 0 0 0 0 0 0 0 0 0 0 0 0 0 0 0 0 0 0 0 0 0 
0 0 0 0 0 0 0 0 0 0 0 0 0 0 0 0 0 0 0 0 0 0 0 0 0 0 0 0 0 0 2200 0 0 4366 0 0 4381 0 0 4446 0 0 4505 0 0 4412 0 0 4446 0 0 4443 0 0 4414 0 0 4496 0 0 4449 0 0 4509 0 0 4384 0 0 4412 0 0 4360 0 0 4545 0 0 4511 0 0 4522 0 0 4486 0 0 4528 0 0 4357 0 0 4442 0 0 4437 0 0 4499 0 0 4337 0 0 4464 0 0 4502 0 0 4524 0 0 4403 0 0 4427 0 0 4450 0 0 4493 0 0 4498 0 0 4389 0 0 4305 0 0 4525 0 0 4330 0 0 4411 0 0 4474 0 0 4431 0 0 2244 0 0 0 0 0 0 0 0 0 0 0 0 0 0 0 0 0 0 0 0 0 0 0 0 0 0 0 0 0 
0 0 0 0 0 0 0 0 0 0 0 0 0 0 0 0 0 0 0 0 0 0 0 0 0 0 0 0 0 0 2177 0 0 4408 0 0 4364 0 0 4363 0 0 4370 0 0 4473 0 0 4423 0 0 4477 0 0 4468 0 0 4493 0 0 4398 0 0 4438 0 0 4493 0 0 4392 0 0 4435 0 0 4417 0 0 4442 0 0 4496 0 0 4560 0 0 4425 0 0 4503 0 0 4470 0 0 4349 0 0 4547 0 0 4499 0 0 4445 0 0 4420 0 0 4515 0 0 4391 0 0 4476 0 0 4452 0 0 4483 0 0 4483 0 0 4455 0 0 4431 0 0 4494 0 0 4478 0 0 4359 0 0 4387 0 0 4379 0 0 2234 0 0 0 0 0 0 0 0 0 0 0 0 0 0 0 0 0 0 0 0 0 0 0 0 0 0 0 0 0 
0 0 0 0 0 0 0 0 0 0 0 0 0 0 0 0 0 0 0 0 0 0 0 0 0 0 0 0 0 0 2226 0 0 4368 0 0 4540 0 0 4525 0 0 4389 0 0 4372 0 0 4509 0 0 4415 0 0 4531 0 0 4464 0 0 4418 0 0 4496 0 0 4471 0 0 4431 0 0 4392 0 0 4437 0 0 4420 0 0 4501 0 0 4420 0 0 4434 0 0 4506 0 0 4447 0 0 4423 0 0 4445 0 0 4381 0 0 4394 0 0 4403 0 0 4277 0 0 4337 0 0 4474 0 0 4312 0 0 4430 0 0 4421 0 0 4548 0 0 4400 0 0 4433 0 0 4438 0 0 4370 0 0 4531 0 0 4387 0 0 2234 0 0 0 0 0 0 0 0 0 0 0 0 0 0 0 0 0 0 0 0 0 0 0 0 0 0 0 0 0 
0 0 0 0 0 0 0 0 0 0 0 0 0 0 0 0 0 0 0 0 0 0 0 0 0 0 0 0 0 0 2205 0 0 4477 0 0 4260 0 0 4430 0 0 4325 0 0 4371 0 0 4458 0 0 4444 0 0 4456 0 0 4435 0 0 4373 0 0 4454 0 0 4500 0 0 4504 0 0 4477 0 0 4416 0 0 4439 0 0 4606 0 0 4466 0 0 4385 0 0 4396 0 0 4497 0 0 4521 0 0 4442 0 0 4330 0 0 4496 0 0 4387 0 0 4426 0 0 4387 0 0 4389 0 0 4495 0 0 4506 0 0 4473 0 0 4344 0 0 4448 0 0 4360 0 0 4411 0 0 4436 0 0 4436 0 0 4535 0 0 2321 0 0 0 0 0 0 0 0 0 0 0 0 0 0 0 0 0 0 0 0 0 0 0 0 0 0 0 0 0 
0 0 0 0 0 0 0 0 0 0 0 0 0 0 0 0 0 0 0 0 0 0 0 0 0 0 0 0 0 0 2186 0 0 4446 0 0 4474 0 0 4470 0 0 4374 0 0 4471 0 0 4359 0 0 4467 0 0 4397 0 0 4427 0 0 4411 0 0 4451 0 0 4432 0 0 4408 0 0 4344 0 0 4295 0 0 4578 0 0 4456 0 0 4364 0 0 4495 0 0 4409 0 0 4410 0 0 4521 0 0 4461 0 0 4445 0 0 4499 0 0 4439 0 0 4523 0 0 4500 0 0 4296 0 0 4476 0 0 4431 0 0 4313 0 0 4402 0 0 4413 0 0 4338 0 0 4466 0 0 4384 0 0 4482 0 0 4508 0 0 2320 0 0 0 0 0 0 0 0 0 0 0 0 0 0 0 0 0 0 0 0 0 0 0 0 0 0 0 0 0 
0 0 0 0 0 0 0 0 0 0 0 0 0 0 0 0 0 0 0 0 0 0 0 0 0 0 0 0 0 0 2207 0 0 4451 0 0 4398 0 0 4361 0 0 4429 0 0 4476 0 0 4438 0 0 4493 0 0 4324 0 0 4466 0 0 4453 0 0 4554 0 0 4399 0 0 4506 0 0 4446 0 0 4509 0 0 4395 0 0 4438 0 0 4312 0 0 4538 0 0 4447 0 0 4411 0 0 4475 0 0 4357 0 0 4356 0 0 4526 0 0 4438 0 0 4421 0 0 4377 0 0 4429 0 0 4449 0 0 4401 0 0 4494 0 0 4458 0 0 4619 0 0 4527 0 0 4412 0 0 4455 0 0 4476 0 0 4476 0 0 2234 0 0 0 0 0 0 0 0 0 0 0 0 0 0 0 0 0 0 0 0 0 0 0 0 0 0 0 0 0 
0 0 0 0 0 0 0 0 0 0 0 0 0 0 0 0 0 0 0 0 0 0 0 0 0 0 0 0 0 0 2294 0 0 4527 0 0 4446 0 0 4431 0 0 4452 0 0 4506 0 0 4471 0 0 4442 0 0 4414 0 0 4387 0 0 4448 0 0 4441 0 0 4434 0 0 4329 0 0 4458 0 0 4366 0 0 4448 0 0 4529 0 0 4477 0 0 4356 0 0 4366 0 0 4428 0 0 4547 0 0 4388 0 0 4543 0 0 4519 0 0 4384 0 0 4470 0 0 4357 0 0 4416 0 0 4440 0 0 4414 0 0 4461 0 0 4439 0 0 4433 0 0 4422 0 0 4454 0 0 4511 0 0 4534 0 0 4467 0 0 2203 0 0 0 0 0 0 0 0 0 0 0 0 0 0 0 0 0 0 0 0 0 0 0 0 0 0 0 0 0 
0 0 0 0 0 0 0 0 0 0 0 0 0 0 0 0 0 0 0 0 0 0 0 0 0 0 0 0 0 0 2280 0 0 4468 0 0 4624 0 0 4515 0 0 4387 0 0 4334 0 0 4478 0 0 4465 0 0 4509 0 0 4430 0 0 4448 0 0 4475 0 0 4325 0 0 4470 0 0 4390 0 0 4582 0 0 4380 0 0 4475 0 0 4437 0 0 4332 0 0 4401 0 0 4522 0 0 4339 0 0 4482 0 0 4325 0 0 4545 0 0 4579 0 0 4475 0 0 4468 0 0 4455 0 0 4487 0 0 4583 0 0 4334 0 0 4405 0 0 4382 0 0 4454 0 0 4403 0 0 4393 0 0 4453 0 0 4391 0 0 2253 0 0 0 0 0 0 0 0 0 0 0 0 0 0 0 0 0 0 0 0 0 0 0 0 0 0 0 0 0 
0 0 0 0 0 0 0 0 0 0 0 0 0 0 0 0 0 0 0 0 0 0 0 0 0 0 0 0 0 0 2188 0 0 4464 0 0 4460 0 0 4414 0 0 4388 0 0 4360 0 0 4497 0 0 4471 0 0 4455 0 0 4379 0 0 4512 0 0 4462 0 0 4480 0 0 4554 0 0 4470 0 0 4413 0 0 4429 0 0 4416 0 0 4344 0 0 4577 0 0 4428 0 0 4482 0 0 4437 0 0 4461 0 0 4408 0 0 4474 0 0 4422 0 0 4347 0 0 4361 0 0 4465 0 0 4284 0 0 4426 0 0 4436 0 0 4468 0 0 4461 0 0 4355 0 0 4406 0 0 4496 0 0 4446 0 0 4389 0 0 2238 0 0 0 0 0 0 0 0 0 0 0 0 0 0 0 0 0 0 0 0 0 0 0 0 0 0 0 0 0 
0 0 0 0 0 0 0 0 0 0 0 0 0 0 0 0 0 0 0 0 0 0 0 0 0 0 0 0 0 0 2223 0 0 4462 0 0 4472 0 0 4492 0 0 4393 0 0 4530 0 0 4447 0 0 4484 0 0 4358 0 0 4513 0 0 4437 0 0 4539 0 0 4449 0 0 4455 0 0 4432 0 0 4321 0 0 4433 0 0 4445 0 0 4395 0 0 4325 0 0 4407 0 0 4426 0 0 4300 0 0 4539 0 0 4477 0 0 4411 0 0 4353 0 0 4514 0 0 4321 0 0 4461 0 0 4410 0 0 4497 0 0 4371 0 0 4578 0 0 4480 0 0 4360 0 0 4442 0 0 4368 0 0 4530 0 0 4450 0 0 2284 0 0 0 0 0 0 0 0 0 0 0 0 0 0 0 0 0 0 0 0 0 0 0 0 0 0 0 0 0 
0 0 0 0 0 0 0 0 0 0 0 0 0 0 0 0 0 0 0 0 0 0 0 0 0 0 0 0 0 0 2220 0 0 4555 0 0 4430 0 0 4364 0 0 4364 0 0 4224 0 0 4346 0 0 4463 0 0 4570 0 0 4410 0 0 4336 0 0 4442 0 0 4451 0 0 4474 0 0 4364 0 0 4341 0 0 4415 0 0 4432 0 0 4320 0 0 4466 0 0 4423 0 0 4319 0 0 4417 0 0 4480 0 0 4355 0 0 4522 0 0 4413 0 0 4497 0 0 4420 0 0 4400 0 0 4319 0 0 4441 0 0 4454 0 0 4390 0 0 4477 0 0 4407 0 0 4501 0 0 4495 0 0 4447 0 0 4454 0 0 2213 0 0 0 0 0 0 0 0 0 0 0 0 0 0 0 0 0 0 0 0 0 0 0 0 0 0 0 0 0 
0 0 0 0 0 0 0 0 0 0 0 0 0 0 0 0 0 0 0 0 0 0 0 0 0 0 0 0 0 0 2203 0 0 4444 0 0 4439 0 0 4400 0 0 4566 0 0 4441 0 0 4393 0 0 4459 0 0 4501 0 0 4485 0 0 4263 0 0 4348 0 0 4536 0 0 4436 0 0 4407 0 0 4489 0 0 4308 0 0 4556 0 0 4410 0 0 4376 0 0 4428 0 0 4517 0 0 4372 0 0 4554 0 0 4465 0 0 4450 0 0 4367 0 0 4342 0 0 4506 0 0 4475 0 0 4501 0 0 4473 0 0 4364 0 0 4532 0 0 4504 0 0 4550 0 0 4432 0 0 4485 0 0 4425 0 0 4507 0 0 2163 0 0 0 0 0 0 0 0 0 0 0 0 0 0 0 0 0 0 0 0 0 0 0 0 0 0 0 0 0 
0 0 0 0 0 0 0 0 0 0 0 0 0 0 0 0 0 0 0 0 0 0 0 0 0 0 0 0 0 0 2318 0 0 4502 0 0 4562 0 0 4492 0 0 4467 0 0 4551 0 0 4410 0 0 4425 0 0 4454 0 0 4484 0 0 4520 0 0 4506 0 0 4562 0 0 4451 0 0 4427 0 0 4372 0 0 4434 0 0 4506 0 0 4341 0 0 4492 0 0 4507 0 0 4562 0 0 4477 0 0 4569 0 0 4416 0 0 4432 0 0 4535 0 0 4341 0 0 4452 0 0 4409 0 0 4505 0 0 4434 0 0 4544 0 0 4537 0 0 4522 0 0 4433 0 0 4517 0 0 4470 0 0 4431 0 0 4392 0 0 2293 0 0 0 0 0 0 0 0 0 0 0 0 0 0 0 0 0 0 0 0 0 0 0 0 0 0 0 0 0 
0 0 0 0 0 0 0 0 0 0 0 0 0 0 0 0 0 0 0 0 0 0 0 0 0 0 0 0 0 0 2273 0 0 4459 0 0 4482 0 0 4569 0 0 4387 0 0 4461 0 0 4498 0 0 4537 0 0 4528 0 0 4434 0 0 4375 0 0 4459 0 0 4383 0 0 4388 0 0 4329 0 0 4606 0 0 4531 0 0 4432 0 0 4480 0 0 4420 0 0 4407 0 0 4511 0 0 4461 0 0 4374 0 0 4455 0 0 4495 0 0 4497 0 0 4425 0 0 4420 0 0 4485 0 0 4326 0 0 4511 0 0 4528 0 0 4475 0 0 4508 0 0 4459 0 0 4481 0 0 4493 0 0 4398 0 0 4494 0 0 2264 0 0 0 0 0 0 0 0 0 0 0 0 0 0 0 0 0 0 0 0 0 0 0 0 0 0 0 0 0 
0 0 0 0 0 0 0 0 0 0 0 0 0 0 0 0 0 0 0 0 0 0 0 0 0 0 0 0 0 0 2200 0 0 4420 0 0 4403 0 0 4390 0 0 4443 0 0 4359 0 0 4451 0 0 4393 0 0 4426 0 0 4468 0 0 4432 0 0 4451 0 0 4433 0 0 4503 0 0 4223 0 0 4409 0 0 4389 0 0 4405 0 0 4285 0 0 4423 0 0 4497 0 0 4364 0 0 4379 0 0 4449 0 0 4441 0 0 4458 0 0 4569 0 0 4307 0 0 4459 0 0 4461 0 0 4432 0 0 4416 0 0 4355 0 0 4473 0 0 4364 0 0 4377 0 0 4376 0 0 4530 0 0 4348 0 0 4369 0 0 2254 0 0 0 0 0 0 0 0 0 0 0 0 0 0 0 0 0 0 0 0 0 0 0 0 0 0 0 0 0 
0 0 0 0 0 0 0 0 0 0 0 0 0 0 0 0 0 0 0 0 0 0 0 0 0 0 0 0 0 0 2311 0 0 4528 0 0 4489 0 0 4367 0 0 4482 0 0 4433 0 0 4524 0 0 4500 0 0 4408 0 0 4419 0 0 4435 0 0 4456 0 0 4470 0 0 4423 0 0 4348 0 0 4556 0 0 4392 0 0 4497 0 0 4332 0 0 4481 0 0 4406 0 0 4363 0 0 4496 0 0 4400 0 0 4383 0 0 4377 0 0 4445 0 0 4346 0 0 4477 0 0 4452 0 0 4394 0 0 4383 0 0 4469 0 0 4488 0 0 4377 0 0 4317 0 0 4567 0 0 4489 0 0 4395 0 0 4560 0 0 2146 0 0 0 0 0 0 0 0 0 0 0 0 0 0 0 0 0 0 0 0 0 0 0 0 0 0 0 0 0 
0 0 0 0 0 0 0 0 0 0 0 0 0 0 0 0 0 0 0 0 0 0 0 0 0 0 0 0 0 0 2251 0 0 4357 0 0 4402 0 0 4533 0 0 4557 0 0 4456 0 0 4426 0 0 4460 0 0 4562 0 0 4528 0 0 4327 0 0 4479 0 0 4501 0 0 4507 0 0 4504 0 0 4398 0 0 4454 0 0 4570 0 0 4445 0 0 4376 0 0 4403 0 0 4354 0 0 4488 0 0 4448 0 0 4457 0 0 4410 0 0 4344 0 0 4404 0 0 4440 0 0 4410 0 0 4460 0 0 4480 0 0 4282 0 0 4435 0 0 4406 0 0 4473 0 0 4332 0 0 4364 0 0 4484 0 0 4456 0 0 2254 0 0 0 0 0 0 0 0 0 0 0 0 0 0 0 0 0 0 0 0 0 0 0 0 0 0 0 0 0 
0 0 0 0 0 0 0 0 0 0 0 0 0 0 0 0 0 0 0 0 0 0 0 0 0 0 0 0 0 0 2282 0 0 4507 0 0 4294 0 0 4491 0 0 4490 0 0 4454 0 0 4474 0 0 4478 0 0 4478 0 0 4378 0 0 4556 0 0 4245 0 0 4340 0 0 4415 0 0 4376 0 0 4547 0 0 4474 0 0 4457 0 0 4435 0 0 4266 0 0 4470 0 0 4554 0 0 4420 0 0 4383 0 0 4513 0 0 4343 0 0 4465 0 0 4380 0 0 4404 0 0 4429 0 0 4477 0 0 4379 0 0 4389 0 0 4410 0 0 4511 0 0 4500 0 0 4353 0 0 4494 0 0 4400 0 0 4375 0 0 2259 0 0 0 0 0 0 0 0 0 0 0 0 0 0 0 0 0 0 0 0 0 0 0 0 0 0 0 0 0 
0 0 0 0 0 0 0 0 0 0 0 0 0 0 0 0 0 0 0 0 0 0 0 0 0 0 0 0 0 0 2264 0 0 4506 0 0 4417 0 0 4501 0 0 4455 0 0 4509 0 0 4494 0 0 4508 0 0 4402 0 0 4401 0 0 4461 0 0 4480 0 0 4470 0 0 4422 0 0 4402 0 0 4546 0 0 4465 0 0 4467 0 0 4487 0 0 4499 0 0 4419 0 0 4422 0 0 4455 0 0 4440 0 0 4513 0 0 4597 0 0 4405 0 0 4577 0 0 4410 0 0 4431 0 0 4412 0 0 4538 0 0 4292 0 0 4381 0 0 4482 0 0 4495 0 0 4412 0 0 4440 0 0 4393 0 0 4528 0 0 2219 0 0 0 0 0 0 0 0 0 0 0 0 0 0 0 0 0 0 0 0 0 0 0 0 0 0 0 0 0 
0 0 0 0 0 0 0 0 0 0 0 0 0 0 0 0 0 0 0 0 0 0 0 0 0 0 0 0 0 0 2139 0 0 4532 0 0 4301 0 0 4476 0 0 4568 0 0 4570 0 0 4396 0 0 4566 0 0 4493 0 0 4373 0 0 4434 0 0 4495 0 0 4406 0 0 4482 0 0 4381 0 0 4497 0 0 4469 0 0 4573 0 0 4506 0 0 4520 0 0 4460 0 0 4598 0 0 4470 0 0 4521 0 0 4522 0 0 4313 0 0 4359 0 0 4489 0 0 4432 0 0 4428 0 0 4506 0 0 4394 0 0 4439 0 0 4412 0 0 4438 0 0 4388 0 0 4372 0 0 4353 0 0 4492 0 0 4458 0 0 2220 0 0 0 0 0 0 0 0 0 0 0 0 0 0 0 0 0 0 0 0 0 0 0 0 0 0 0 0 0 
0 0 0 0 0 0 0 0 0 0 0 0 0 0 0 0 0 0 0 0 0 0 0 0 0 0 0 0 0 0 2156 0 0 4443 0 0 4454 0 0 4494 0 0 4431 0 0 4447 0 0 4466 0 0 4411 0 0 4448 0 0 4401 0 0 4488 0 0 4550 0 0 4446 0 0 4527 0 0 4407 0 0 4515 0 0 4428 0 0 4542 0 0 4560 0 0 4469 0 0 4379 0 0 4375 0 0 4510 0 0 4473 0 0 4412 0 0 4463 0 0 4482 0 0 4446 0 0 4558 0 0 4567 0 0 4514 0 0 4511 0 0 4395 0 0 4400 0 0 4356 0 0 4379 0 0 4582 0 0 4397 0 0 4401 0 0 4494 0 0 2237 0 0 0 0 0 0 0 0 0 0 0 0 0 0 0 0 0 0 0 0 0 0 0 0 0 0 0 0 0 
0 0 0 0 0 0 0 0 0 0 0 0 0 0 0 0 0 0 0 0 0 0 0 0 0 0 0 0 0 0 2151 0 0 4464 0 0 4441 0 0 4456 0 0 4455 0 0 4498 0 0 4444 0 0 4542 0 0 4386 0 0 4400 0 0 4435 0 0 4322 0 0 4369 0 0 4278 0 0 4448 0 0 4528 0 0 4435 0 0 4593 0 0 4483 0 0 4382 0 0 4506 0 0 4519 0 0 4355 0 0 4548 0 0 4543 0 0 4528 0 0 4315 0 0 4422 0 0 4409 0 0 4452 0 0 4413 0 0 4466 0 0 4470 0 0 4437 0 0 4373 0 0 4470 0 0 4491 0 0 4449 0 0 4458 0 0 4510 0 0 2121 0 0 0 0 0 0 0 0 0 0 0 0 0 0 0 0 0 0 0 0 0 0 0 0 0 0 0 0 0 
0 0 0 0 0 0 0 0 0 0 0 0 0 0 0 0 0 0 0 0 0 0 0 0 0 0 0 0 0 0 1135 0 0 2173 0 0 2227 0 0 2179 0 0 2227 0 0 2195 0 0 2255 0 0 2239 0 0 2212 0 0 2249 0 0 2191 0 0 2187 0 0 2195 0 0 2190 0 0 2198 0 0 2259 0 0 2261 0 0 2219 0 0 2199 0 0 2289 0 0 2249 0 0 2265 0 0 2200 0 0 2165 0 0 2277 0 0 2321 0 0 2226 0 0 2174 0 0 2255 0 0 2160 0 0 2188 0 0 2174 0 0 2151 0 0 2191 0 0 2148 0 0 2181 0 0 2245 0 0 2151 0 0 2239 0 0 2238 0 0 1125 0 0 0 0 0 0 0 0 0 0 0 0 0 0 0 0 0 0 0 0 0 0 0 0 0 0 0 0 0 
0 0 0 0 0 0 0 0 0 0 0 0 0 0 0 0 0 0 0 0 0 0 0 0 0 0 0 0 0 0 0 0 0 0 0 0 0 0 0 0 0 0 0 0 0 0 0 0 0 0 0 0 0 0 0 0 0 0 0 0 0 0 0 0 0 0 0 0 0 0 0 0 0 0 0 0 0 0 0 0 0 0 0 0 0 0 0 0 0 0 0 0 0 0 0 0 0 0 0 0 0 0 0 0 0 0 0 0 0 0 0 0 0 0 0 0 0 0 0 0 0 0 0 0 0 0 0 0 0 0 0 0 0 0 0 0 0 0 0 0 0 0 0 0 0 0 0 0 0 0 0 0 0 0 0 0 0 0 0 0 0 0 0 0 0 0 0 0 0 0 0 0 0 0 0 0 0 0 0 0 
0 0 0 0 0 0 0 0 0 0 0 0 0 0 0 0 0 0 0 0 0 0 0 0 0 0 0 0 0 0 0 0 0 0 0 0 0 0 0 0 0 0 0 0 0 0 0 0 0 0 0 0 0 0 0 0 0 0 0 0 0 0 0 0 0 0 0 0 0 0 0 0 0 0 0 0 0 0 0 0 0 0 0 0 0 0 0 0 0 0 0 0 0 0 0 0 0 0 0 0 0 0 0 0 0 0 0 0 0 0 0 0 0 0 0 0 0 0 0 0 0 0 0 0 0 0 0 0 0 0 0 0 0 0 0 0 0 0 0 0 0 0 0 0 0 0 0 0 0 0 0 0 0 0 0 0 0 0 0 0 0 0 0 0 0 0 0 0 0 0 0 0 0 0 0 0 0 0 0 0 
0 0 0 0 0 0 0 0 0 0 0 0 0 0 0 0 0 0 0 0 0 0 0 0 0 0 0 0 0 0 0 0 0 0 0 0 0 0 0 0 0 0 0 0 0 0 0 0 0 0 0 0 0 0 0 0 0 0 0 0 0 0 0 0 0 0 0 0 0 0 0 0 0 0 0 0 0 0 0 0 0 0 0 0 0 0 0 0 0 0 0 0 0 0 0 0 0 0 0 0 0 0 0 0 0 0 0 0 0 0 0 0 0 0 0 0 0 0 0 0 0 0 0 0 0 0 0 0 0 0 0 0 0 0 0 0 0 0 0 0 0 0 0 0 0 0 0 0 0 0 0 0 0 0 0 0 0 0 0 0 0 0 0 0 0 0 0 0 0 0 0 0 0 0 0 0 0 0 0 0 
0 0 0 0 0 0 0 0 0 0 0 0 0 0 0 0 0 0 0 0 0 0 0 0 0 0 0 0 0 0 0 0 0 0 0 0 0 0 0 0 0 0 0 0 0 0 0 0 0 0 0 0 0 0 0 0 0 0 0 0 0 0 0 0 0 0 0 0 0 0 0 0 0 0 0 0 0 0 0 0 0 0 0 0 0 0 0 0 0 0 0 0 0 0 0 0 0 0 0 0 0 0 0 0 0 0 0 0 0 0 0 0 0 0 0 0 0 0 0 0 0 0 0 0 0 0 0 0 0 0 0 0 0 0 0 0 0 0 0 0 0 0 0 0 0 0 0 0 0 0 0 0 0 0 0 0 0 0 0 0 0 0 0 0 0 0 0 0 0 0 0 0 0 0 0 0 0 0 0 0 
0 0 0 0 0 0 0 0 0 0 0 0 0 0 0 0 0 0 0 0 0 0 0 0 0 0 0 0 0 0 0 0 0 0 0 0 0 0 0 0 0 0 0 0 0 0 0 0 0 0 0 0 0 0 0 0 0 0 0 0 0 0 0 0 0 0 0 0 0 0 0 0 0 0 0 0 0 0 0 0 0 0 0 0 0 0 0 0 0 0 0 0 0 0 0 0 0 0 0 0 0 0 0 0 0 0 0 0 0 0 0 0 0 0 0 0 0 0 0 0 0 0 0 0 0 0 0 0 0 0 0 0 0 0 0 0 0 0 0 0 0 0 0 0 0 0 0 0 0 0 0 0 0 0 0 0 0 0 0 0 0 0 0 0 0 0 0 0 0 0 0 0 0 0 0 0 0 0 0 0 
0 0 0 0 0 0 0 0 0 0 0 0 0 0 0 0 0 0 0 0 0 0 0 0 0 0 0 0 0 0 0 0 0 0 0 0 0 0 0 0 0 0 0 0 0 0 0 0 0 0 0 0 0 0 0 0 0 0 0 0 0 0 0 0 0 0 0 0 0 0 0 0 0 0 0 0 0 0 0 0 0 0 0 0 0 0 0 0 0 0 0 0 0 0 0 0 0 0 0 0 0 0 0 0 0 0 0 0 0 0 0 0 0 0 0 0 0 0 0 0 0 0 0 0 0 0 0 0 0 0 0 0 0 0 0 0 0 0 0 0 0 0 0 0 0 0 0 0 0 0 0 0 0 0 0 0 0 0 0 0 0 0 0 0 0 0 0 0 0 0 0 0 0 0 0 0 0 0 0 0 
0 0 0 0 0 0 0 0 0 0 0 0 0 0 0 0 0 0 0 0 0 0 0 0 0 0 0 0 0 0 0 0 0 0 0 0 0 0 0 0 0 0 0 0 0 0 0 0 0 0 0 0 0 0 0 0 0 0 0 0 0 0 0 0 0 0 0 0 0 0 0 0 0 0 0 0 0 0 0 0 0 0 0 0 0 0 0 0 0 0 0 0 0 0 0 0 0 0 0 0 0 0 0 0 0 0 0 0 0 0 0 0 0 0 0 0 0 0 0 0 0 0 0 0 0 0 0 0 0 0 0 0 0 0 0 0 0 0 0 0 0 0 0 0 0 0 0 0 0 0 0 0 0 0 0 0 0 0 0 0 0 0 0 0 0 0 0 0 0 0 0 0 0 0 0 0 0 0 0 0 
0 0 0 0 0 0 0 0 0 0 0 0 0 0 0 0 0 0 0 0 0 0 0 0 0 0 0 0 0 0 0 0 0 0 0 0 0 0 0 0 0 0 0 0 0 0 0 0 0 0 0 0 0 0 0 0 0 0 0 0 0 0 0 0 0 0 0 0 0 0 0 0 0 0 0 0 0 0 0 0 0 0 0 0 0 0 0 0 0 0 0 0 0 0 0 0 0 0 0 0 0 0 0 0 0 0 0 0 0 0 0 0 0 0 0 0 0 0 0 0 0 0 0 0 0 0 0 0 0 0 0 0 0 0 0 0 0 0 0 0 0 0 0 0 0 0 0 0 0 0 0 0 0 0 0 0 0 0 0 0 0 0 0 0 0 0 0 0 0 0 0 0 0 0 0 0 0 0 0 0 
0 0 0 0 0 0 0 0 0 0 0 0 0 0 0 0 0 0 0 0 0 0 0 0 0 0 0 0 0 0 0 0 0 0 0 0 0 0 0 0 0 0 0 0 0 0 0 0 0 0 0 0 0 0 0 0 0 0 0 0 0 0 0 0 0 0 0 0 0 0 0 0 0 0 0 0 0 0 0 0 0 0 0 0 0 0 0 0 0 0 0 0 0 0 0 0 0 0 0 0 0 0 0 0 0 0 0 0 0 0 0 0 0 0 0 0 0 0 0 0 0 0 0 0 0 0 0 0 0 0 0 0 0 0 0 0 0 0 0 0 0 0 0 0 0 0 0 0 0 0 0 0 0 0 0 0 0 0 0 0 0 0 0 0 0 0 0 0 0 0 0 0 0 0 0 0 0 0 0 0 
