P3
# This is a dose file slice at depth 17 of 100
60 60
# now we give the maximum value of the RGB coordinates.
22407
0 0 0 0 0 0 0 0 0 0 0 0 0 0 0 0 0 0 0 0 0 0 0 0 0 0 0 0 0 0 0 0 0 0 0 0 0 0 0 0 0 0 0 0 0 0 0 0 0 0 0 0 0 0 0 0 0 0 0 0 0 0 0 0 0 0 0 0 0 0 0 0 0 0 0 0 0 0 0 0 0 0 0 0 0 0 0 0 0 0 0 0 0 0 0 0 0 0 0 0 0 0 0 0 0 0 0 0 0 0 0 0 0 0 0 0 0 0 0 0 0 0 0 0 0 0 0 0 0 0 0 0 0 0 0 0 0 0 0 0 0 0 0 0 0 0 0 0 0 0 0 0 0 0 0 0 0 0 0 0 0 0 0 0 0 0 0 0 0 0 0 0 0 0 0 0 0 0 0 0 
0 0 0 0 0 0 0 0 0 0 0 0 0 0 0 0 0 0 0 0 0 0 0 0 0 0 0 0 0 0 0 0 0 0 0 0 0 0 0 0 0 0 0 0 0 0 0 0 0 0 0 0 0 0 0 0 0 0 0 0 0 0 0 0 0 0 0 0 0 0 0 0 0 0 0 0 0 0 0 0 0 0 0 0 0 0 0 0 0 0 0 0 0 0 0 0 0 0 0 0 0 0 0 0 0 0 0 0 0 0 0 0 0 0 0 0 0 0 0 0 0 0 0 0 0 0 0 0 0 0 0 0 0 0 0 0 0 0 0 0 0 0 0 0 0 0 0 0 0 0 0 0 0 0 0 0 0 0 0 0 0 0 0 0 0 0 0 0 0 0 0 0 0 0 0 0 0 0 0 0 
0 0 0 0 0 0 0 0 0 0 0 0 0 0 0 0 0 0 0 0 0 0 0 0 0 0 0 0 0 0 0 0 0 0 0 0 0 0 0 0 0 0 0 0 0 0 0 0 0 0 0 0 0 0 0 0 0 0 0 0 0 0 0 0 0 0 0 0 0 0 0 0 0 0 0 0 0 0 0 0 0 0 0 0 0 0 0 0 0 0 0 0 0 0 0 0 0 0 0 0 0 0 0 0 0 0 0 0 0 0 0 0 0 0 0 0 0 0 0 0 0 0 0 0 0 0 0 0 0 0 0 0 0 0 0 0 0 0 0 0 0 0 0 0 0 0 0 0 0 0 0 0 0 0 0 0 0 0 0 0 0 0 0 0 0 0 0 0 0 0 0 0 0 0 0 0 0 0 0 0 
0 0 0 0 0 0 0 0 0 0 0 0 0 0 0 0 0 0 0 0 0 0 0 0 0 0 0 0 0 0 0 0 0 0 0 0 0 0 0 0 0 0 0 0 0 0 0 0 0 0 0 0 0 0 0 0 0 0 0 0 0 0 0 0 0 0 0 0 0 0 0 0 0 0 0 0 0 0 0 0 0 0 0 0 0 0 0 0 0 0 0 0 0 0 0 0 0 0 0 0 0 0 0 0 0 0 0 0 0 0 0 0 0 0 0 0 0 0 0 0 0 0 0 0 0 0 0 0 0 0 0 0 0 0 0 0 0 0 0 0 0 0 0 0 0 0 0 0 0 0 0 0 0 0 0 0 0 0 0 0 0 0 0 0 0 0 0 0 0 0 0 0 0 0 0 0 0 0 0 0 
0 0 0 0 0 0 0 0 0 0 0 0 0 0 0 0 0 0 0 0 0 0 0 0 0 0 0 0 0 0 0 0 0 0 0 0 0 0 0 0 0 0 0 0 0 0 0 0 0 0 0 0 0 0 0 0 0 0 0 0 0 0 0 0 0 0 0 0 0 0 0 0 0 0 0 0 0 0 0 0 0 0 0 0 0 0 0 0 0 0 0 0 0 0 0 0 0 0 0 0 0 0 0 0 0 0 0 0 0 0 0 0 0 0 0 0 0 0 0 0 0 0 0 0 0 0 0 0 0 0 0 0 0 0 0 0 0 0 0 0 0 0 0 0 0 0 0 0 0 0 0 0 0 0 0 0 0 0 0 0 0 0 0 0 0 0 0 0 0 0 0 0 0 0 0 0 0 0 0 0 
0 0 0 0 0 0 0 0 0 0 0 0 0 0 0 0 0 0 0 0 0 0 0 0 0 0 0 0 0 0 0 0 0 0 0 0 0 0 0 0 0 0 0 0 0 0 0 0 0 0 0 0 0 0 0 0 0 0 0 0 0 0 0 0 0 0 0 0 0 0 0 0 0 0 0 0 0 0 0 0 0 0 0 0 0 0 0 0 0 0 0 0 0 0 0 0 0 0 0 0 0 0 0 0 0 0 0 0 0 0 0 0 0 0 0 0 0 0 0 0 0 0 0 0 0 0 0 0 0 0 0 0 0 0 0 0 0 0 0 0 0 0 0 0 0 0 0 0 0 0 0 0 0 0 0 0 0 0 0 0 0 0 0 0 0 0 0 0 0 0 0 0 0 0 0 0 0 0 0 0 
0 0 0 0 0 0 0 0 0 0 0 0 0 0 0 0 0 0 0 0 0 0 0 0 0 0 0 0 0 0 0 0 0 0 0 0 0 0 0 0 0 0 0 0 0 0 0 0 0 0 0 0 0 0 0 0 0 0 0 0 0 0 0 0 0 0 0 0 0 0 0 0 0 0 0 0 0 0 0 0 0 0 0 0 0 0 0 0 0 0 0 0 0 0 0 0 0 0 0 0 0 0 0 0 0 0 0 0 0 0 0 0 0 0 0 0 0 0 0 0 0 0 0 0 0 0 0 0 0 0 0 0 0 0 0 0 0 0 0 0 0 0 0 0 0 0 0 0 0 0 0 0 0 0 0 0 0 0 0 0 0 0 0 0 0 0 0 0 0 0 0 0 0 0 0 0 0 0 0 0 
0 0 0 0 0 0 0 0 0 0 0 0 0 0 0 0 0 0 0 0 0 0 0 0 0 0 0 0 0 0 0 0 0 0 0 0 0 0 0 0 0 0 0 0 0 0 0 0 0 0 0 0 0 0 0 0 0 0 0 0 0 0 0 0 0 0 0 0 0 0 0 0 0 0 0 0 0 0 0 0 0 0 0 0 0 0 0 0 0 0 0 0 0 0 0 0 0 0 0 0 0 0 0 0 0 0 0 0 0 0 0 0 0 0 0 0 0 0 0 0 0 0 0 0 0 0 0 0 0 0 0 0 0 0 0 0 0 0 0 0 0 0 0 0 0 0 0 0 0 0 0 0 0 0 0 0 0 0 0 0 0 0 0 0 0 0 0 0 0 0 0 0 0 0 0 0 0 0 0 0 
0 0 0 0 0 0 0 0 0 0 0 0 0 0 0 0 0 0 0 0 0 0 0 0 0 0 0 0 0 0 0 0 0 0 0 0 0 0 0 0 0 0 0 0 0 0 0 0 0 0 0 0 0 0 0 0 0 0 0 0 0 0 0 0 0 0 0 0 0 0 0 0 0 0 0 0 0 0 0 0 0 0 0 0 0 0 0 0 0 0 0 0 0 0 0 0 0 0 0 0 0 0 0 0 0 0 0 0 0 0 0 0 0 0 0 0 0 0 0 0 0 0 0 0 0 0 0 0 0 0 0 0 0 0 0 0 0 0 0 0 0 0 0 0 0 0 0 0 0 0 0 0 0 0 0 0 0 0 0 0 0 0 0 0 0 0 0 0 0 0 0 0 0 0 0 0 0 0 0 0 
0 0 0 0 0 0 0 0 0 0 0 0 0 0 0 0 0 0 0 0 0 0 0 0 0 0 0 0 0 0 0 0 0 0 0 0 0 0 0 0 0 0 0 0 0 0 0 0 0 0 0 0 0 0 0 0 0 0 0 0 0 0 0 0 0 0 0 0 0 0 0 0 0 0 0 0 0 0 0 0 0 0 0 0 0 0 0 0 0 0 0 0 0 0 0 0 0 0 0 0 0 0 0 0 0 0 0 0 0 0 0 0 0 0 0 0 0 0 0 0 0 0 0 0 0 0 0 0 0 0 0 0 0 0 0 0 0 0 0 0 0 0 0 0 0 0 0 0 0 0 0 0 0 0 0 0 0 0 0 0 0 0 0 0 0 0 0 0 0 0 0 0 0 0 0 0 0 0 0 0 
0 0 0 0 0 0 0 0 0 0 0 0 0 0 0 0 0 0 0 0 0 0 0 0 0 0 0 0 0 0 3313 0 0 6658 0 0 6735 0 0 6592 0 0 6698 0 0 6652 0 0 6494 0 0 6699 0 0 6563 0 0 6568 0 0 6648 0 0 6742 0 0 6488 0 0 6598 0 0 6627 0 0 6527 0 0 6583 0 0 6512 0 0 6615 0 0 6489 0 0 6556 0 0 6704 0 0 6598 0 0 6490 0 0 6618 0 0 6582 0 0 6438 0 0 6504 0 0 6512 0 0 6679 0 0 6658 0 0 6481 0 0 6608 0 0 6509 0 0 6569 0 0 6703 0 0 6607 0 0 6646 0 0 6534 0 0 6448 0 0 3325 0 0 0 0 0 0 0 0 0 0 0 0 0 0 0 0 0 0 0 0 0 0 0 0 0 0 0 0 0 
0 0 0 0 0 0 0 0 0 0 0 0 0 0 0 0 0 0 0 0 0 0 0 0 0 0 0 0 0 0 6541 0 0 13182 0 0 13094 0 0 13379 0 0 13113 0 0 13174 0 0 13394 0 0 13277 0 0 13283 0 0 13347 0 0 13308 0 0 13060 0 0 13333 0 0 13060 0 0 13376 0 0 13450 0 0 13237 0 0 13252 0 0 13140 0 0 13195 0 0 13203 0 0 13350 0 0 13244 0 0 13064 0 0 13359 0 0 13234 0 0 13079 0 0 13353 0 0 13273 0 0 13120 0 0 13124 0 0 13132 0 0 13343 0 0 13296 0 0 13272 0 0 13181 0 0 13019 0 0 13193 0 0 13140 0 0 13252 0 0 6795 0 0 0 0 0 0 0 0 0 0 0 0 0 0 0 0 0 0 0 0 0 0 0 0 0 0 0 0 0 
0 0 0 0 0 0 0 0 0 0 0 0 0 0 0 0 0 0 0 0 0 0 0 0 0 0 0 0 0 0 6646 0 0 13140 0 0 13253 0 0 13429 0 0 13017 0 0 13399 0 0 13174 0 0 13281 0 0 13252 0 0 13306 0 0 13185 0 0 12995 0 0 13348 0 0 13273 0 0 13345 0 0 13038 0 0 13000 0 0 13146 0 0 13497 0 0 13117 0 0 13179 0 0 13319 0 0 13430 0 0 13233 0 0 13192 0 0 13189 0 0 13292 0 0 13237 0 0 13246 0 0 13221 0 0 13061 0 0 13232 0 0 13310 0 0 13321 0 0 13184 0 0 13318 0 0 13152 0 0 13255 0 0 13110 0 0 13027 0 0 6731 0 0 0 0 0 0 0 0 0 0 0 0 0 0 0 0 0 0 0 0 0 0 0 0 0 0 0 0 0 
0 0 0 0 0 0 0 0 0 0 0 0 0 0 0 0 0 0 0 0 0 0 0 0 0 0 0 0 0 0 6635 0 0 13286 0 0 13131 0 0 13400 0 0 13353 0 0 13038 0 0 12974 0 0 13260 0 0 13156 0 0 13257 0 0 13291 0 0 12994 0 0 13124 0 0 13400 0 0 13156 0 0 13089 0 0 13188 0 0 13083 0 0 13043 0 0 13249 0 0 13334 0 0 13092 0 0 13159 0 0 13001 0 0 13235 0 0 13137 0 0 13335 0 0 13413 0 0 13286 0 0 13178 0 0 13426 0 0 13385 0 0 12970 0 0 13266 0 0 13256 0 0 13057 0 0 13340 0 0 13343 0 0 13257 0 0 13237 0 0 6542 0 0 0 0 0 0 0 0 0 0 0 0 0 0 0 0 0 0 0 0 0 0 0 0 0 0 0 0 0 
0 0 0 0 0 0 0 0 0 0 0 0 0 0 0 0 0 0 0 0 0 0 0 0 0 0 0 0 0 0 6516 0 0 13484 0 0 13288 0 0 13232 0 0 13254 0 0 13307 0 0 13379 0 0 13479 0 0 13124 0 0 13272 0 0 13371 0 0 12973 0 0 13178 0 0 13272 0 0 13292 0 0 12926 0 0 13107 0 0 13380 0 0 13381 0 0 13144 0 0 13087 0 0 13236 0 0 13189 0 0 13261 0 0 13184 0 0 13415 0 0 13257 0 0 13272 0 0 13162 0 0 13075 0 0 13293 0 0 13137 0 0 13362 0 0 13158 0 0 13322 0 0 12990 0 0 13319 0 0 13319 0 0 13118 0 0 13358 0 0 6642 0 0 0 0 0 0 0 0 0 0 0 0 0 0 0 0 0 0 0 0 0 0 0 0 0 0 0 0 0 
0 0 0 0 0 0 0 0 0 0 0 0 0 0 0 0 0 0 0 0 0 0 0 0 0 0 0 0 0 0 6682 0 0 13178 0 0 13181 0 0 13303 0 0 12960 0 0 13379 0 0 13309 0 0 13009 0 0 13174 0 0 13347 0 0 13015 0 0 13076 0 0 13235 0 0 13316 0 0 13170 0 0 13400 0 0 13430 0 0 13316 0 0 13011 0 0 13210 0 0 13121 0 0 13255 0 0 13396 0 0 13263 0 0 13393 0 0 13270 0 0 13205 0 0 13188 0 0 13173 0 0 13249 0 0 13147 0 0 13209 0 0 13207 0 0 13114 0 0 13118 0 0 13278 0 0 13430 0 0 13284 0 0 13109 0 0 13451 0 0 6642 0 0 0 0 0 0 0 0 0 0 0 0 0 0 0 0 0 0 0 0 0 0 0 0 0 0 0 0 0 
0 0 0 0 0 0 0 0 0 0 0 0 0 0 0 0 0 0 0 0 0 0 0 0 0 0 0 0 0 0 6656 0 0 13246 0 0 13264 0 0 13504 0 0 13089 0 0 13157 0 0 13130 0 0 13148 0 0 13224 0 0 13458 0 0 13265 0 0 13218 0 0 13232 0 0 13137 0 0 13321 0 0 13125 0 0 13107 0 0 13134 0 0 13254 0 0 13258 0 0 13007 0 0 13178 0 0 12953 0 0 13269 0 0 13380 0 0 13314 0 0 13476 0 0 13166 0 0 13561 0 0 13161 0 0 13264 0 0 13208 0 0 13242 0 0 13278 0 0 13265 0 0 13080 0 0 13157 0 0 13114 0 0 13334 0 0 13283 0 0 6653 0 0 0 0 0 0 0 0 0 0 0 0 0 0 0 0 0 0 0 0 0 0 0 0 0 0 0 0 0 
0 0 0 0 0 0 0 0 0 0 0 0 0 0 0 0 0 0 0 0 0 0 0 0 0 0 0 0 0 0 6667 0 0 13361 0 0 13261 0 0 13191 0 0 13116 0 0 13197 0 0 13197 0 0 13233 0 0 13198 0 0 13416 0 0 13116 0 0 13173 0 0 13025 0 0 13195 0 0 13232 0 0 13139 0 0 13392 0 0 13361 0 0 13214 0 0 13124 0 0 13379 0 0 13340 0 0 13323 0 0 12842 0 0 13332 0 0 13225 0 0 13348 0 0 13260 0 0 13411 0 0 13312 0 0 13114 0 0 13397 0 0 13127 0 0 13122 0 0 13251 0 0 13274 0 0 13315 0 0 13343 0 0 13271 0 0 13322 0 0 6509 0 0 0 0 0 0 0 0 0 0 0 0 0 0 0 0 0 0 0 0 0 0 0 0 0 0 0 0 0 
0 0 0 0 0 0 0 0 0 0 0 0 0 0 0 0 0 0 0 0 0 0 0 0 0 0 0 0 0 0 6639 0 0 13271 0 0 13173 0 0 13242 0 0 13388 0 0 13312 0 0 12969 0 0 13362 0 0 13182 0 0 13420 0 0 13122 0 0 13272 0 0 13210 0 0 13087 0 0 13075 0 0 13382 0 0 13198 0 0 13160 0 0 13200 0 0 13048 0 0 12904 0 0 13159 0 0 13412 0 0 13331 0 0 13067 0 0 13218 0 0 13283 0 0 13243 0 0 13291 0 0 13191 0 0 13107 0 0 13193 0 0 13260 0 0 13430 0 0 13226 0 0 13178 0 0 13202 0 0 13175 0 0 13010 0 0 13355 0 0 6581 0 0 0 0 0 0 0 0 0 0 0 0 0 0 0 0 0 0 0 0 0 0 0 0 0 0 0 0 0 
0 0 0 0 0 0 0 0 0 0 0 0 0 0 0 0 0 0 0 0 0 0 0 0 0 0 0 0 0 0 6542 0 0 13242 0 0 13285 0 0 13090 0 0 13333 0 0 13326 0 0 13324 0 0 13102 0 0 12904 0 0 13150 0 0 13195 0 0 13382 0 0 13478 0 0 12952 0 0 13193 0 0 13135 0 0 13289 0 0 13127 0 0 13177 0 0 13281 0 0 13145 0 0 13270 0 0 13286 0 0 13159 0 0 13308 0 0 13160 0 0 13454 0 0 13138 0 0 13108 0 0 13265 0 0 13249 0 0 13203 0 0 12905 0 0 13178 0 0 13231 0 0 13491 0 0 13261 0 0 13310 0 0 13026 0 0 13365 0 0 6560 0 0 0 0 0 0 0 0 0 0 0 0 0 0 0 0 0 0 0 0 0 0 0 0 0 0 0 0 0 
0 0 0 0 0 0 0 0 0 0 0 0 0 0 0 0 0 0 0 0 0 0 0 0 0 0 0 0 0 0 6765 0 0 13314 0 0 12892 0 0 13418 0 0 13114 0 0 13237 0 0 13105 0 0 13167 0 0 13065 0 0 13248 0 0 13088 0 0 13306 0 0 13327 0 0 13163 0 0 13231 0 0 13394 0 0 13058 0 0 13314 0 0 13375 0 0 13347 0 0 13326 0 0 13201 0 0 13384 0 0 13197 0 0 13142 0 0 13192 0 0 13339 0 0 13350 0 0 13093 0 0 13266 0 0 13169 0 0 13166 0 0 13167 0 0 13216 0 0 13390 0 0 13037 0 0 13162 0 0 13338 0 0 13328 0 0 13306 0 0 6713 0 0 0 0 0 0 0 0 0 0 0 0 0 0 0 0 0 0 0 0 0 0 0 0 0 0 0 0 0 
0 0 0 0 0 0 0 0 0 0 0 0 0 0 0 0 0 0 0 0 0 0 0 0 0 0 0 0 0 0 6560 0 0 13356 0 0 13154 0 0 13408 0 0 12910 0 0 13235 0 0 13278 0 0 13274 0 0 13117 0 0 13128 0 0 13235 0 0 13232 0 0 13355 0 0 13255 0 0 13444 0 0 13194 0 0 13202 0 0 13336 0 0 13340 0 0 13051 0 0 13129 0 0 13117 0 0 13232 0 0 13213 0 0 13281 0 0 13034 0 0 13194 0 0 13062 0 0 13263 0 0 12969 0 0 13230 0 0 12989 0 0 13023 0 0 13073 0 0 13074 0 0 13242 0 0 13310 0 0 13175 0 0 13306 0 0 13144 0 0 6487 0 0 0 0 0 0 0 0 0 0 0 0 0 0 0 0 0 0 0 0 0 0 0 0 0 0 0 0 0 
0 0 0 0 0 0 0 0 0 0 0 0 0 0 0 0 0 0 0 0 0 0 0 0 0 0 0 0 0 0 6607 0 0 13263 0 0 13258 0 0 13061 0 0 13088 0 0 13237 0 0 13497 0 0 13188 0 0 13187 0 0 13411 0 0 13224 0 0 13230 0 0 13441 0 0 13266 0 0 13183 0 0 13184 0 0 13080 0 0 13170 0 0 13518 0 0 13058 0 0 13013 0 0 13228 0 0 13163 0 0 13071 0 0 13289 0 0 13408 0 0 13390 0 0 13382 0 0 13273 0 0 13159 0 0 13309 0 0 13367 0 0 13286 0 0 13341 0 0 13229 0 0 13157 0 0 13183 0 0 13231 0 0 13369 0 0 13292 0 0 6736 0 0 0 0 0 0 0 0 0 0 0 0 0 0 0 0 0 0 0 0 0 0 0 0 0 0 0 0 0 
0 0 0 0 0 0 0 0 0 0 0 0 0 0 0 0 0 0 0 0 0 0 0 0 0 0 0 0 0 0 6750 0 0 13148 0 0 13263 0 0 13366 0 0 13302 0 0 13259 0 0 13117 0 0 13472 0 0 13297 0 0 13195 0 0 13158 0 0 12972 0 0 13319 0 0 13204 0 0 13261 0 0 13134 0 0 13215 0 0 13454 0 0 13141 0 0 13341 0 0 13171 0 0 13173 0 0 13183 0 0 12940 0 0 13248 0 0 13326 0 0 13024 0 0 13357 0 0 13160 0 0 13325 0 0 13202 0 0 13258 0 0 13154 0 0 13296 0 0 13367 0 0 13404 0 0 13258 0 0 13295 0 0 13062 0 0 13290 0 0 6540 0 0 0 0 0 0 0 0 0 0 0 0 0 0 0 0 0 0 0 0 0 0 0 0 0 0 0 0 0 
0 0 0 0 0 0 0 0 0 0 0 0 0 0 0 0 0 0 0 0 0 0 0 0 0 0 0 0 0 0 6727 0 0 13283 0 0 13224 0 0 13054 0 0 12999 0 0 13115 0 0 13334 0 0 13041 0 0 13022 0 0 13155 0 0 13132 0 0 13082 0 0 13408 0 0 13308 0 0 13098 0 0 13020 0 0 13362 0 0 13132 0 0 13165 0 0 13233 0 0 13223 0 0 13142 0 0 13368 0 0 13322 0 0 13296 0 0 13273 0 0 13238 0 0 13346 0 0 13273 0 0 13263 0 0 13087 0 0 13114 0 0 13239 0 0 13077 0 0 13358 0 0 13083 0 0 13066 0 0 13278 0 0 13302 0 0 13273 0 0 6618 0 0 0 0 0 0 0 0 0 0 0 0 0 0 0 0 0 0 0 0 0 0 0 0 0 0 0 0 0 
0 0 0 0 0 0 0 0 0 0 0 0 0 0 0 0 0 0 0 0 0 0 0 0 0 0 0 0 0 0 6523 0 0 13269 0 0 13347 0 0 13238 0 0 13379 0 0 13156 0 0 13131 0 0 13186 0 0 13167 0 0 13298 0 0 13039 0 0 13165 0 0 13166 0 0 13169 0 0 13376 0 0 13092 0 0 13207 0 0 13263 0 0 13357 0 0 13374 0 0 13430 0 0 13390 0 0 13129 0 0 13318 0 0 13302 0 0 13095 0 0 13185 0 0 13156 0 0 13228 0 0 13307 0 0 13230 0 0 13123 0 0 13262 0 0 13065 0 0 13262 0 0 13161 0 0 13116 0 0 13181 0 0 13228 0 0 13253 0 0 6693 0 0 0 0 0 0 0 0 0 0 0 0 0 0 0 0 0 0 0 0 0 0 0 0 0 0 0 0 0 
0 0 0 0 0 0 0 0 0 0 0 0 0 0 0 0 0 0 0 0 0 0 0 0 0 0 0 0 0 0 6465 0 0 13258 0 0 13289 0 0 13152 0 0 13163 0 0 13010 0 0 13256 0 0 13204 0 0 13028 0 0 12998 0 0 13450 0 0 13233 0 0 12909 0 0 13093 0 0 13175 0 0 13221 0 0 13026 0 0 13387 0 0 13243 0 0 13118 0 0 13238 0 0 13330 0 0 13271 0 0 13266 0 0 13236 0 0 13114 0 0 13123 0 0 13204 0 0 13235 0 0 13355 0 0 13034 0 0 13314 0 0 13245 0 0 13132 0 0 13113 0 0 13169 0 0 13004 0 0 13252 0 0 13271 0 0 13443 0 0 6690 0 0 0 0 0 0 0 0 0 0 0 0 0 0 0 0 0 0 0 0 0 0 0 0 0 0 0 0 0 
0 0 0 0 0 0 0 0 0 0 0 0 0 0 0 0 0 0 0 0 0 0 0 0 0 0 0 0 0 0 6617 0 0 13244 0 0 13422 0 0 13111 0 0 13187 0 0 13227 0 0 13181 0 0 13058 0 0 13181 0 0 13407 0 0 13202 0 0 13153 0 0 13195 0 0 13285 0 0 13230 0 0 13336 0 0 13180 0 0 13010 0 0 13255 0 0 13252 0 0 13280 0 0 13355 0 0 13285 0 0 13321 0 0 13215 0 0 13243 0 0 13170 0 0 13168 0 0 13160 0 0 13121 0 0 13149 0 0 13254 0 0 13333 0 0 13256 0 0 13252 0 0 13286 0 0 13188 0 0 13139 0 0 13173 0 0 13369 0 0 6685 0 0 0 0 0 0 0 0 0 0 0 0 0 0 0 0 0 0 0 0 0 0 0 0 0 0 0 0 0 
0 0 0 0 0 0 0 0 0 0 0 0 0 0 0 0 0 0 0 0 0 0 0 0 0 0 0 0 0 0 6646 0 0 13094 0 0 13352 0 0 13064 0 0 13167 0 0 13044 0 0 13306 0 0 13365 0 0 13228 0 0 13238 0 0 13376 0 0 13427 0 0 13262 0 0 13402 0 0 13276 0 0 13245 0 0 13325 0 0 13222 0 0 13098 0 0 13134 0 0 13104 0 0 13383 0 0 13339 0 0 13259 0 0 12964 0 0 13046 0 0 13481 0 0 13029 0 0 13327 0 0 13191 0 0 13118 0 0 13221 0 0 13394 0 0 13361 0 0 13171 0 0 13243 0 0 13122 0 0 13236 0 0 13222 0 0 13234 0 0 6653 0 0 0 0 0 0 0 0 0 0 0 0 0 0 0 0 0 0 0 0 0 0 0 0 0 0 0 0 0 
0 0 0 0 0 0 0 0 0 0 0 0 0 0 0 0 0 0 0 0 0 0 0 0 0 0 0 0 0 0 6699 0 0 13358 0 0 13124 0 0 13341 0 0 13309 0 0 12972 0 0 13324 0 0 13177 0 0 13146 0 0 13306 0 0 13035 0 0 13054 0 0 13174 0 0 13079 0 0 13022 0 0 13255 0 0 13590 0 0 13277 0 0 13187 0 0 13442 0 0 13195 0 0 13064 0 0 13199 0 0 13129 0 0 13454 0 0 13153 0 0 13218 0 0 13241 0 0 13261 0 0 13256 0 0 13367 0 0 13035 0 0 13289 0 0 13160 0 0 13037 0 0 13261 0 0 13106 0 0 13377 0 0 13163 0 0 13252 0 0 6668 0 0 0 0 0 0 0 0 0 0 0 0 0 0 0 0 0 0 0 0 0 0 0 0 0 0 0 0 0 
0 0 0 0 0 0 0 0 0 0 0 0 0 0 0 0 0 0 0 0 0 0 0 0 0 0 0 0 0 0 6641 0 0 13344 0 0 13081 0 0 13084 0 0 13280 0 0 13343 0 0 13189 0 0 13280 0 0 13102 0 0 13128 0 0 13250 0 0 13248 0 0 13174 0 0 13263 0 0 12980 0 0 13037 0 0 13297 0 0 13201 0 0 13327 0 0 13283 0 0 13427 0 0 13226 0 0 13198 0 0 13303 0 0 13047 0 0 13152 0 0 13385 0 0 13120 0 0 13109 0 0 13113 0 0 13236 0 0 12973 0 0 13109 0 0 13307 0 0 13343 0 0 13114 0 0 13066 0 0 13025 0 0 13320 0 0 13243 0 0 6621 0 0 0 0 0 0 0 0 0 0 0 0 0 0 0 0 0 0 0 0 0 0 0 0 0 0 0 0 0 
0 0 0 0 0 0 0 0 0 0 0 0 0 0 0 0 0 0 0 0 0 0 0 0 0 0 0 0 0 0 6597 0 0 13490 0 0 13302 0 0 13156 0 0 13217 0 0 13223 0 0 13215 0 0 13174 0 0 13272 0 0 13152 0 0 13144 0 0 13235 0 0 13287 0 0 13233 0 0 13386 0 0 13159 0 0 13218 0 0 13286 0 0 13186 0 0 13142 0 0 13210 0 0 13150 0 0 13310 0 0 13201 0 0 13093 0 0 13179 0 0 13275 0 0 13120 0 0 13266 0 0 13193 0 0 13209 0 0 13323 0 0 13405 0 0 13304 0 0 13150 0 0 13143 0 0 13347 0 0 13221 0 0 13082 0 0 13259 0 0 6567 0 0 0 0 0 0 0 0 0 0 0 0 0 0 0 0 0 0 0 0 0 0 0 0 0 0 0 0 0 
0 0 0 0 0 0 0 0 0 0 0 0 0 0 0 0 0 0 0 0 0 0 0 0 0 0 0 0 0 0 6653 0 0 13257 0 0 13253 0 0 13069 0 0 13181 0 0 13219 0 0 13124 0 0 13276 0 0 13078 0 0 13209 0 0 13173 0 0 13078 0 0 13103 0 0 13281 0 0 13172 0 0 13097 0 0 13138 0 0 13190 0 0 13133 0 0 13229 0 0 13169 0 0 13265 0 0 13162 0 0 13147 0 0 13129 0 0 13093 0 0 13232 0 0 13201 0 0 13231 0 0 13101 0 0 13081 0 0 13131 0 0 13277 0 0 13357 0 0 13091 0 0 13223 0 0 13031 0 0 13331 0 0 13134 0 0 13181 0 0 6492 0 0 0 0 0 0 0 0 0 0 0 0 0 0 0 0 0 0 0 0 0 0 0 0 0 0 0 0 0 
0 0 0 0 0 0 0 0 0 0 0 0 0 0 0 0 0 0 0 0 0 0 0 0 0 0 0 0 0 0 6581 0 0 13291 0 0 13307 0 0 13270 0 0 13299 0 0 13296 0 0 13219 0 0 13214 0 0 13300 0 0 13080 0 0 13190 0 0 13269 0 0 13195 0 0 13199 0 0 13133 0 0 13054 0 0 13206 0 0 13182 0 0 13289 0 0 13151 0 0 13104 0 0 13144 0 0 13074 0 0 13239 0 0 13313 0 0 13080 0 0 13223 0 0 13276 0 0 13432 0 0 13016 0 0 13136 0 0 13232 0 0 13414 0 0 13153 0 0 13443 0 0 13113 0 0 13297 0 0 13238 0 0 13213 0 0 13376 0 0 6674 0 0 0 0 0 0 0 0 0 0 0 0 0 0 0 0 0 0 0 0 0 0 0 0 0 0 0 0 0 
0 0 0 0 0 0 0 0 0 0 0 0 0 0 0 0 0 0 0 0 0 0 0 0 0 0 0 0 0 0 6701 0 0 13443 0 0 13227 0 0 13349 0 0 13251 0 0 12955 0 0 13280 0 0 13294 0 0 13463 0 0 13141 0 0 13187 0 0 13330 0 0 13216 0 0 13209 0 0 13238 0 0 13239 0 0 13200 0 0 13168 0 0 13316 0 0 13010 0 0 13351 0 0 13169 0 0 13148 0 0 13206 0 0 13252 0 0 13291 0 0 13248 0 0 13163 0 0 13277 0 0 13118 0 0 13259 0 0 13092 0 0 13276 0 0 13275 0 0 13268 0 0 13443 0 0 13280 0 0 13035 0 0 13020 0 0 13194 0 0 6615 0 0 0 0 0 0 0 0 0 0 0 0 0 0 0 0 0 0 0 0 0 0 0 0 0 0 0 0 0 
0 0 0 0 0 0 0 0 0 0 0 0 0 0 0 0 0 0 0 0 0 0 0 0 0 0 0 0 0 0 6594 0 0 13319 0 0 13376 0 0 13165 0 0 13272 0 0 13306 0 0 13143 0 0 13010 0 0 13155 0 0 13293 0 0 13259 0 0 13405 0 0 13110 0 0 13334 0 0 13195 0 0 13233 0 0 13388 0 0 13291 0 0 13268 0 0 13127 0 0 13277 0 0 13186 0 0 13316 0 0 13217 0 0 13296 0 0 13125 0 0 13145 0 0 13411 0 0 13216 0 0 13137 0 0 12967 0 0 13149 0 0 13227 0 0 13259 0 0 13200 0 0 13325 0 0 13077 0 0 13298 0 0 13329 0 0 13122 0 0 6573 0 0 0 0 0 0 0 0 0 0 0 0 0 0 0 0 0 0 0 0 0 0 0 0 0 0 0 0 0 
0 0 0 0 0 0 0 0 0 0 0 0 0 0 0 0 0 0 0 0 0 0 0 0 0 0 0 0 0 0 6659 0 0 13249 0 0 13176 0 0 13059 0 0 13126 0 0 13336 0 0 13354 0 0 13273 0 0 13003 0 0 13049 0 0 13065 0 0 13235 0 0 13154 0 0 13493 0 0 13267 0 0 13218 0 0 13096 0 0 13222 0 0 13179 0 0 13289 0 0 13125 0 0 13288 0 0 13224 0 0 13231 0 0 13122 0 0 13195 0 0 13066 0 0 13257 0 0 13276 0 0 13046 0 0 13230 0 0 13374 0 0 13377 0 0 12993 0 0 13267 0 0 13215 0 0 13324 0 0 13002 0 0 13048 0 0 13121 0 0 6637 0 0 0 0 0 0 0 0 0 0 0 0 0 0 0 0 0 0 0 0 0 0 0 0 0 0 0 0 0 
0 0 0 0 0 0 0 0 0 0 0 0 0 0 0 0 0 0 0 0 0 0 0 0 0 0 0 0 0 0 6692 0 0 13135 0 0 13185 0 0 13096 0 0 13082 0 0 13344 0 0 13118 0 0 13287 0 0 13310 0 0 13107 0 0 13293 0 0 13186 0 0 13227 0 0 13273 0 0 13106 0 0 13092 0 0 13248 0 0 13318 0 0 13225 0 0 13273 0 0 13322 0 0 13078 0 0 13334 0 0 13213 0 0 13113 0 0 13262 0 0 13134 0 0 13153 0 0 13261 0 0 13173 0 0 13277 0 0 13120 0 0 13377 0 0 13190 0 0 13294 0 0 13316 0 0 13312 0 0 13257 0 0 13344 0 0 13204 0 0 6601 0 0 0 0 0 0 0 0 0 0 0 0 0 0 0 0 0 0 0 0 0 0 0 0 0 0 0 0 0 
0 0 0 0 0 0 0 0 0 0 0 0 0 0 0 0 0 0 0 0 0 0 0 0 0 0 0 0 0 0 6491 0 0 13366 0 0 13133 0 0 13231 0 0 12923 0 0 13314 0 0 13056 0 0 13203 0 0 13124 0 0 13032 0 0 13159 0 0 13149 0 0 13191 0 0 13179 0 0 13093 0 0 13139 0 0 13178 0 0 13263 0 0 13158 0 0 13039 0 0 13078 0 0 13028 0 0 13041 0 0 13268 0 0 13198 0 0 13212 0 0 13176 0 0 13179 0 0 13223 0 0 13253 0 0 13121 0 0 13012 0 0 13141 0 0 13408 0 0 13208 0 0 13284 0 0 13363 0 0 13194 0 0 13198 0 0 13281 0 0 6826 0 0 0 0 0 0 0 0 0 0 0 0 0 0 0 0 0 0 0 0 0 0 0 0 0 0 0 0 0 
0 0 0 0 0 0 0 0 0 0 0 0 0 0 0 0 0 0 0 0 0 0 0 0 0 0 0 0 0 0 6513 0 0 13278 0 0 13354 0 0 13290 0 0 13119 0 0 13274 0 0 13115 0 0 13094 0 0 13314 0 0 13221 0 0 13262 0 0 13241 0 0 13224 0 0 13284 0 0 13204 0 0 13085 0 0 13047 0 0 13191 0 0 13229 0 0 13278 0 0 12961 0 0 13376 0 0 13220 0 0 13285 0 0 13340 0 0 13253 0 0 13062 0 0 13212 0 0 13174 0 0 13258 0 0 13254 0 0 13121 0 0 13415 0 0 13128 0 0 13379 0 0 13324 0 0 13024 0 0 13238 0 0 13317 0 0 13338 0 0 6515 0 0 0 0 0 0 0 0 0 0 0 0 0 0 0 0 0 0 0 0 0 0 0 0 0 0 0 0 0 
0 0 0 0 0 0 0 0 0 0 0 0 0 0 0 0 0 0 0 0 0 0 0 0 0 0 0 0 0 0 6651 0 0 13280 0 0 13300 0 0 13367 0 0 13283 0 0 13015 0 0 13264 0 0 13193 0 0 13239 0 0 13112 0 0 13298 0 0 13091 0 0 13178 0 0 13416 0 0 13205 0 0 13481 0 0 13199 0 0 13148 0 0 13180 0 0 13201 0 0 13319 0 0 13112 0 0 13297 0 0 13333 0 0 13130 0 0 13282 0 0 13291 0 0 13241 0 0 13033 0 0 13343 0 0 13254 0 0 13406 0 0 13149 0 0 13237 0 0 13187 0 0 13136 0 0 13409 0 0 13192 0 0 13288 0 0 13367 0 0 6680 0 0 0 0 0 0 0 0 0 0 0 0 0 0 0 0 0 0 0 0 0 0 0 0 0 0 0 0 0 
0 0 0 0 0 0 0 0 0 0 0 0 0 0 0 0 0 0 0 0 0 0 0 0 0 0 0 0 0 0 6544 0 0 12996 0 0 13397 0 0 13063 0 0 13236 0 0 13134 0 0 13129 0 0 13370 0 0 13127 0 0 13432 0 0 13097 0 0 13201 0 0 13035 0 0 13191 0 0 13224 0 0 13177 0 0 13156 0 0 13192 0 0 13237 0 0 13120 0 0 13172 0 0 13381 0 0 13354 0 0 13255 0 0 13372 0 0 13319 0 0 13138 0 0 13117 0 0 13354 0 0 13233 0 0 13300 0 0 13212 0 0 13417 0 0 13393 0 0 13005 0 0 13201 0 0 13364 0 0 13282 0 0 13103 0 0 13150 0 0 6572 0 0 0 0 0 0 0 0 0 0 0 0 0 0 0 0 0 0 0 0 0 0 0 0 0 0 0 0 0 
0 0 0 0 0 0 0 0 0 0 0 0 0 0 0 0 0 0 0 0 0 0 0 0 0 0 0 0 0 0 6661 0 0 13230 0 0 13426 0 0 13234 0 0 13177 0 0 13208 0 0 13051 0 0 13053 0 0 13099 0 0 13269 0 0 13159 0 0 13229 0 0 13378 0 0 13300 0 0 13205 0 0 13248 0 0 13150 0 0 13057 0 0 13000 0 0 13184 0 0 13316 0 0 13352 0 0 12942 0 0 13147 0 0 13170 0 0 13001 0 0 13269 0 0 13218 0 0 13183 0 0 13287 0 0 13227 0 0 13215 0 0 13127 0 0 13320 0 0 13257 0 0 13226 0 0 13095 0 0 13247 0 0 12986 0 0 13368 0 0 6552 0 0 0 0 0 0 0 0 0 0 0 0 0 0 0 0 0 0 0 0 0 0 0 0 0 0 0 0 0 
0 0 0 0 0 0 0 0 0 0 0 0 0 0 0 0 0 0 0 0 0 0 0 0 0 0 0 0 0 0 6615 0 0 13194 0 0 13371 0 0 13213 0 0 13368 0 0 13157 0 0 13047 0 0 12992 0 0 13286 0 0 13101 0 0 13201 0 0 13281 0 0 13200 0 0 13273 0 0 13426 0 0 13266 0 0 12998 0 0 13160 0 0 13095 0 0 13138 0 0 13198 0 0 13111 0 0 12994 0 0 13297 0 0 13337 0 0 13065 0 0 13352 0 0 13389 0 0 13066 0 0 13238 0 0 13399 0 0 13511 0 0 13158 0 0 13252 0 0 13134 0 0 13185 0 0 13106 0 0 13068 0 0 13411 0 0 13106 0 0 6517 0 0 0 0 0 0 0 0 0 0 0 0 0 0 0 0 0 0 0 0 0 0 0 0 0 0 0 0 0 
0 0 0 0 0 0 0 0 0 0 0 0 0 0 0 0 0 0 0 0 0 0 0 0 0 0 0 0 0 0 6667 0 0 13255 0 0 13299 0 0 13232 0 0 13295 0 0 13166 0 0 13270 0 0 13186 0 0 13352 0 0 13308 0 0 13255 0 0 13051 0 0 13174 0 0 13049 0 0 13273 0 0 13417 0 0 13346 0 0 13286 0 0 13126 0 0 13408 0 0 13330 0 0 13139 0 0 13157 0 0 13061 0 0 13375 0 0 12860 0 0 13171 0 0 13242 0 0 13292 0 0 13205 0 0 13319 0 0 13053 0 0 13238 0 0 13201 0 0 13225 0 0 13208 0 0 13422 0 0 13123 0 0 13233 0 0 13353 0 0 6523 0 0 0 0 0 0 0 0 0 0 0 0 0 0 0 0 0 0 0 0 0 0 0 0 0 0 0 0 0 
0 0 0 0 0 0 0 0 0 0 0 0 0 0 0 0 0 0 0 0 0 0 0 0 0 0 0 0 0 0 6601 0 0 13088 0 0 13289 0 0 13264 0 0 13162 0 0 13229 0 0 13232 0 0 13147 0 0 13381 0 0 13266 0 0 13405 0 0 13221 0 0 13448 0 0 13288 0 0 13065 0 0 12973 0 0 12994 0 0 13277 0 0 13381 0 0 13151 0 0 13051 0 0 13071 0 0 13183 0 0 13375 0 0 13135 0 0 13165 0 0 13147 0 0 13267 0 0 13164 0 0 13218 0 0 13006 0 0 13073 0 0 13262 0 0 13105 0 0 13316 0 0 13021 0 0 13286 0 0 13181 0 0 13179 0 0 13193 0 0 6467 0 0 0 0 0 0 0 0 0 0 0 0 0 0 0 0 0 0 0 0 0 0 0 0 0 0 0 0 0 
0 0 0 0 0 0 0 0 0 0 0 0 0 0 0 0 0 0 0 0 0 0 0 0 0 0 0 0 0 0 6603 0 0 13202 0 0 13191 0 0 13003 0 0 13172 0 0 13033 0 0 13154 0 0 13289 0 0 13280 0 0 13178 0 0 13276 0 0 13267 0 0 13201 0 0 13151 0 0 13120 0 0 13175 0 0 13308 0 0 13179 0 0 13072 0 0 13201 0 0 13307 0 0 13207 0 0 13228 0 0 13367 0 0 13303 0 0 13357 0 0 13179 0 0 13347 0 0 13205 0 0 13220 0 0 13269 0 0 13343 0 0 13058 0 0 13426 0 0 12967 0 0 13192 0 0 13459 0 0 13427 0 0 13301 0 0 13323 0 0 6509 0 0 0 0 0 0 0 0 0 0 0 0 0 0 0 0 0 0 0 0 0 0 0 0 0 0 0 0 0 
0 0 0 0 0 0 0 0 0 0 0 0 0 0 0 0 0 0 0 0 0 0 0 0 0 0 0 0 0 0 6668 0 0 13048 0 0 13119 0 0 13275 0 0 13278 0 0 13070 0 0 13197 0 0 13224 0 0 13249 0 0 13233 0 0 13260 0 0 13321 0 0 13275 0 0 13172 0 0 13133 0 0 13036 0 0 13275 0 0 13314 0 0 13190 0 0 13210 0 0 13200 0 0 13366 0 0 13180 0 0 13229 0 0 13066 0 0 13323 0 0 13170 0 0 13104 0 0 13199 0 0 13197 0 0 13218 0 0 13238 0 0 12884 0 0 13468 0 0 13123 0 0 13176 0 0 13033 0 0 13062 0 0 13082 0 0 13213 0 0 6473 0 0 0 0 0 0 0 0 0 0 0 0 0 0 0 0 0 0 0 0 0 0 0 0 0 0 0 0 0 
0 0 0 0 0 0 0 0 0 0 0 0 0 0 0 0 0 0 0 0 0 0 0 0 0 0 0 0 0 0 6592 0 0 13139 0 0 13339 0 0 13411 0 0 13044 0 0 13199 0 0 13379 0 0 13230 0 0 13321 0 0 13298 0 0 13163 0 0 12954 0 0 13429 0 0 13305 0 0 13189 0 0 13224 0 0 13252 0 0 13202 0 0 13190 0 0 12983 0 0 13192 0 0 13295 0 0 13337 0 0 13310 0 0 13228 0 0 13193 0 0 13363 0 0 13068 0 0 13219 0 0 13181 0 0 13266 0 0 13226 0 0 13135 0 0 13570 0 0 13327 0 0 13309 0 0 13089 0 0 13560 0 0 13284 0 0 13313 0 0 6668 0 0 0 0 0 0 0 0 0 0 0 0 0 0 0 0 0 0 0 0 0 0 0 0 0 0 0 0 0 
0 0 0 0 0 0 0 0 0 0 0 0 0 0 0 0 0 0 0 0 0 0 0 0 0 0 0 0 0 0 6709 0 0 13361 0 0 13352 0 0 13169 0 0 13044 0 0 13135 0 0 13241 0 0 12993 0 0 13235 0 0 13397 0 0 13324 0 0 13206 0 0 13032 0 0 13096 0 0 13262 0 0 13334 0 0 13104 0 0 12996 0 0 13065 0 0 13327 0 0 13364 0 0 13181 0 0 13222 0 0 13367 0 0 13172 0 0 13422 0 0 13207 0 0 13361 0 0 13384 0 0 13123 0 0 13459 0 0 13243 0 0 13390 0 0 13050 0 0 13070 0 0 13247 0 0 13269 0 0 13280 0 0 13168 0 0 13205 0 0 6702 0 0 0 0 0 0 0 0 0 0 0 0 0 0 0 0 0 0 0 0 0 0 0 0 0 0 0 0 0 
0 0 0 0 0 0 0 0 0 0 0 0 0 0 0 0 0 0 0 0 0 0 0 0 0 0 0 0 0 0 3297 0 0 6614 0 0 6740 0 0 6729 0 0 6476 0 0 6568 0 0 6640 0 0 6554 0 0 6599 0 0 6672 0 0 6708 0 0 6602 0 0 6537 0 0 6578 0 0 6735 0 0 6599 0 0 6590 0 0 6650 0 0 6628 0 0 6671 0 0 6479 0 0 6584 0 0 6594 0 0 6730 0 0 6570 0 0 6601 0 0 6678 0 0 6523 0 0 6763 0 0 6532 0 0 6603 0 0 6649 0 0 6580 0 0 6578 0 0 6590 0 0 6665 0 0 6607 0 0 6433 0 0 6401 0 0 6598 0 0 3261 0 0 0 0 0 0 0 0 0 0 0 0 0 0 0 0 0 0 0 0 0 0 0 0 0 0 0 0 0 
0 0 0 0 0 0 0 0 0 0 0 0 0 0 0 0 0 0 0 0 0 0 0 0 0 0 0 0 0 0 0 0 0 0 0 0 0 0 0 0 0 0 0 0 0 0 0 0 0 0 0 0 0 0 0 0 0 0 0 0 0 0 0 0 0 0 0 0 0 0 0 0 0 0 0 0 0 0 0 0 0 0 0 0 0 0 0 0 0 0 0 0 0 0 0 0 0 0 0 0 0 0 0 0 0 0 0 0 0 0 0 0 0 0 0 0 0 0 0 0 0 0 0 0 0 0 0 0 0 0 0 0 0 0 0 0 0 0 0 0 0 0 0 0 0 0 0 0 0 0 0 0 0 0 0 0 0 0 0 0 0 0 0 0 0 0 0 0 0 0 0 0 0 0 0 0 0 0 0 0 
0 0 0 0 0 0 0 0 0 0 0 0 0 0 0 0 0 0 0 0 0 0 0 0 0 0 0 0 0 0 0 0 0 0 0 0 0 0 0 0 0 0 0 0 0 0 0 0 0 0 0 0 0 0 0 0 0 0 0 0 0 0 0 0 0 0 0 0 0 0 0 0 0 0 0 0 0 0 0 0 0 0 0 0 0 0 0 0 0 0 0 0 0 0 0 0 0 0 0 0 0 0 0 0 0 0 0 0 0 0 0 0 0 0 0 0 0 0 0 0 0 0 0 0 0 0 0 0 0 0 0 0 0 0 0 0 0 0 0 0 0 0 0 0 0 0 0 0 0 0 0 0 0 0 0 0 0 0 0 0 0 0 0 0 0 0 0 0 0 0 0 0 0 0 0 0 0 0 0 0 
0 0 0 0 0 0 0 0 0 0 0 0 0 0 0 0 0 0 0 0 0 0 0 0 0 0 0 0 0 0 0 0 0 0 0 0 0 0 0 0 0 0 0 0 0 0 0 0 0 0 0 0 0 0 0 0 0 0 0 0 0 0 0 0 0 0 0 0 0 0 0 0 0 0 0 0 0 0 0 0 0 0 0 0 0 0 0 0 0 0 0 0 0 0 0 0 0 0 0 0 0 0 0 0 0 0 0 0 0 0 0 0 0 0 0 0 0 0 0 0 0 0 0 0 0 0 0 0 0 0 0 0 0 0 0 0 0 0 0 0 0 0 0 0 0 0 0 0 0 0 0 0 0 0 0 0 0 0 0 0 0 0 0 0 0 0 0 0 0 0 0 0 0 0 0 0 0 0 0 0 
0 0 0 0 0 0 0 0 0 0 0 0 0 0 0 0 0 0 0 0 0 0 0 0 0 0 0 0 0 0 0 0 0 0 0 0 0 0 0 0 0 0 0 0 0 0 0 0 0 0 0 0 0 0 0 0 0 0 0 0 0 0 0 0 0 0 0 0 0 0 0 0 0 0 0 0 0 0 0 0 0 0 0 0 0 0 0 0 0 0 0 0 0 0 0 0 0 0 0 0 0 0 0 0 0 0 0 0 0 0 0 0 0 0 0 0 0 0 0 0 0 0 0 0 0 0 0 0 0 0 0 0 0 0 0 0 0 0 0 0 0 0 0 0 0 0 0 0 0 0 0 0 0 0 0 0 0 0 0 0 0 0 0 0 0 0 0 0 0 0 0 0 0 0 0 0 0 0 0 0 
0 0 0 0 0 0 0 0 0 0 0 0 0 0 0 0 0 0 0 0 0 0 0 0 0 0 0 0 0 0 0 0 0 0 0 0 0 0 0 0 0 0 0 0 0 0 0 0 0 0 0 0 0 0 0 0 0 0 0 0 0 0 0 0 0 0 0 0 0 0 0 0 0 0 0 0 0 0 0 0 0 0 0 0 0 0 0 0 0 0 0 0 0 0 0 0 0 0 0 0 0 0 0 0 0 0 0 0 0 0 0 0 0 0 0 0 0 0 0 0 0 0 0 0 0 0 0 0 0 0 0 0 0 0 0 0 0 0 0 0 0 0 0 0 0 0 0 0 0 0 0 0 0 0 0 0 0 0 0 0 0 0 0 0 0 0 0 0 0 0 0 0 0 0 0 0 0 0 0 0 
0 0 0 0 0 0 0 0 0 0 0 0 0 0 0 0 0 0 0 0 0 0 0 0 0 0 0 0 0 0 0 0 0 0 0 0 0 0 0 0 0 0 0 0 0 0 0 0 0 0 0 0 0 0 0 0 0 0 0 0 0 0 0 0 0 0 0 0 0 0 0 0 0 0 0 0 0 0 0 0 0 0 0 0 0 0 0 0 0 0 0 0 0 0 0 0 0 0 0 0 0 0 0 0 0 0 0 0 0 0 0 0 0 0 0 0 0 0 0 0 0 0 0 0 0 0 0 0 0 0 0 0 0 0 0 0 0 0 0 0 0 0 0 0 0 0 0 0 0 0 0 0 0 0 0 0 0 0 0 0 0 0 0 0 0 0 0 0 0 0 0 0 0 0 0 0 0 0 0 0 
0 0 0 0 0 0 0 0 0 0 0 0 0 0 0 0 0 0 0 0 0 0 0 0 0 0 0 0 0 0 0 0 0 0 0 0 0 0 0 0 0 0 0 0 0 0 0 0 0 0 0 0 0 0 0 0 0 0 0 0 0 0 0 0 0 0 0 0 0 0 0 0 0 0 0 0 0 0 0 0 0 0 0 0 0 0 0 0 0 0 0 0 0 0 0 0 0 0 0 0 0 0 0 0 0 0 0 0 0 0 0 0 0 0 0 0 0 0 0 0 0 0 0 0 0 0 0 0 0 0 0 0 0 0 0 0 0 0 0 0 0 0 0 0 0 0 0 0 0 0 0 0 0 0 0 0 0 0 0 0 0 0 0 0 0 0 0 0 0 0 0 0 0 0 0 0 0 0 0 0 
0 0 0 0 0 0 0 0 0 0 0 0 0 0 0 0 0 0 0 0 0 0 0 0 0 0 0 0 0 0 0 0 0 0 0 0 0 0 0 0 0 0 0 0 0 0 0 0 0 0 0 0 0 0 0 0 0 0 0 0 0 0 0 0 0 0 0 0 0 0 0 0 0 0 0 0 0 0 0 0 0 0 0 0 0 0 0 0 0 0 0 0 0 0 0 0 0 0 0 0 0 0 0 0 0 0 0 0 0 0 0 0 0 0 0 0 0 0 0 0 0 0 0 0 0 0 0 0 0 0 0 0 0 0 0 0 0 0 0 0 0 0 0 0 0 0 0 0 0 0 0 0 0 0 0 0 0 0 0 0 0 0 0 0 0 0 0 0 0 0 0 0 0 0 0 0 0 0 0 0 
0 0 0 0 0 0 0 0 0 0 0 0 0 0 0 0 0 0 0 0 0 0 0 0 0 0 0 0 0 0 0 0 0 0 0 0 0 0 0 0 0 0 0 0 0 0 0 0 0 0 0 0 0 0 0 0 0 0 0 0 0 0 0 0 0 0 0 0 0 0 0 0 0 0 0 0 0 0 0 0 0 0 0 0 0 0 0 0 0 0 0 0 0 0 0 0 0 0 0 0 0 0 0 0 0 0 0 0 0 0 0 0 0 0 0 0 0 0 0 0 0 0 0 0 0 0 0 0 0 0 0 0 0 0 0 0 0 0 0 0 0 0 0 0 0 0 0 0 0 0 0 0 0 0 0 0 0 0 0 0 0 0 0 0 0 0 0 0 0 0 0 0 0 0 0 0 0 0 0 0 
