P3
# This is a dose file slice at depth 37 of 100
60 60
# now we give the maximum value of the RGB coordinates.
22407
0 0 0 0 0 0 0 0 0 0 0 0 0 0 0 0 0 0 0 0 0 0 0 0 0 0 0 0 0 0 0 0 0 0 0 0 0 0 0 0 0 0 0 0 0 0 0 0 0 0 0 0 0 0 0 0 0 0 0 0 0 0 0 0 0 0 0 0 0 0 0 0 0 0 0 0 0 0 0 0 0 0 0 0 0 0 0 0 0 0 0 0 0 0 0 0 0 0 0 0 0 0 0 0 0 0 0 0 0 0 0 0 0 0 0 0 0 0 0 0 0 0 0 0 0 0 0 0 0 0 0 0 0 0 0 0 0 0 0 0 0 0 0 0 0 0 0 0 0 0 0 0 0 0 0 0 0 0 0 0 0 0 0 0 0 0 0 0 0 0 0 0 0 0 0 0 0 0 0 0 
0 0 0 0 0 0 0 0 0 0 0 0 0 0 0 0 0 0 0 0 0 0 0 0 0 0 0 0 0 0 0 0 0 0 0 0 0 0 0 0 0 0 0 0 0 0 0 0 0 0 0 0 0 0 0 0 0 0 0 0 0 0 0 0 0 0 0 0 0 0 0 0 0 0 0 0 0 0 0 0 0 0 0 0 0 0 0 0 0 0 0 0 0 0 0 0 0 0 0 0 0 0 0 0 0 0 0 0 0 0 0 0 0 0 0 0 0 0 0 0 0 0 0 0 0 0 0 0 0 0 0 0 0 0 0 0 0 0 0 0 0 0 0 0 0 0 0 0 0 0 0 0 0 0 0 0 0 0 0 0 0 0 0 0 0 0 0 0 0 0 0 0 0 0 0 0 0 0 0 0 
0 0 0 0 0 0 0 0 0 0 0 0 0 0 0 0 0 0 0 0 0 0 0 0 0 0 0 0 0 0 0 0 0 0 0 0 0 0 0 0 0 0 0 0 0 0 0 0 0 0 0 0 0 0 0 0 0 0 0 0 0 0 0 0 0 0 0 0 0 0 0 0 0 0 0 0 0 0 0 0 0 0 0 0 0 0 0 0 0 0 0 0 0 0 0 0 0 0 0 0 0 0 0 0 0 0 0 0 0 0 0 0 0 0 0 0 0 0 0 0 0 0 0 0 0 0 0 0 0 0 0 0 0 0 0 0 0 0 0 0 0 0 0 0 0 0 0 0 0 0 0 0 0 0 0 0 0 0 0 0 0 0 0 0 0 0 0 0 0 0 0 0 0 0 0 0 0 0 0 0 
0 0 0 0 0 0 0 0 0 0 0 0 0 0 0 0 0 0 0 0 0 0 0 0 0 0 0 0 0 0 0 0 0 0 0 0 0 0 0 0 0 0 0 0 0 0 0 0 0 0 0 0 0 0 0 0 0 0 0 0 0 0 0 0 0 0 0 0 0 0 0 0 0 0 0 0 0 0 0 0 0 0 0 0 0 0 0 0 0 0 0 0 0 0 0 0 0 0 0 0 0 0 0 0 0 0 0 0 0 0 0 0 0 0 0 0 0 0 0 0 0 0 0 0 0 0 0 0 0 0 0 0 0 0 0 0 0 0 0 0 0 0 0 0 0 0 0 0 0 0 0 0 0 0 0 0 0 0 0 0 0 0 0 0 0 0 0 0 0 0 0 0 0 0 0 0 0 0 0 0 
0 0 0 0 0 0 0 0 0 0 0 0 0 0 0 0 0 0 0 0 0 0 0 0 0 0 0 0 0 0 0 0 0 0 0 0 0 0 0 0 0 0 0 0 0 0 0 0 0 0 0 0 0 0 0 0 0 0 0 0 0 0 0 0 0 0 0 0 0 0 0 0 0 0 0 0 0 0 0 0 0 0 0 0 0 0 0 0 0 0 0 0 0 0 0 0 0 0 0 0 0 0 0 0 0 0 0 0 0 0 0 0 0 0 0 0 0 0 0 0 0 0 0 0 0 0 0 0 0 0 0 0 0 0 0 0 0 0 0 0 0 0 0 0 0 0 0 0 0 0 0 0 0 0 0 0 0 0 0 0 0 0 0 0 0 0 0 0 0 0 0 0 0 0 0 0 0 0 0 0 
0 0 0 0 0 0 0 0 0 0 0 0 0 0 0 0 0 0 0 0 0 0 0 0 0 0 0 0 0 0 0 0 0 0 0 0 0 0 0 0 0 0 0 0 0 0 0 0 0 0 0 0 0 0 0 0 0 0 0 0 0 0 0 0 0 0 0 0 0 0 0 0 0 0 0 0 0 0 0 0 0 0 0 0 0 0 0 0 0 0 0 0 0 0 0 0 0 0 0 0 0 0 0 0 0 0 0 0 0 0 0 0 0 0 0 0 0 0 0 0 0 0 0 0 0 0 0 0 0 0 0 0 0 0 0 0 0 0 0 0 0 0 0 0 0 0 0 0 0 0 0 0 0 0 0 0 0 0 0 0 0 0 0 0 0 0 0 0 0 0 0 0 0 0 0 0 0 0 0 0 
0 0 0 0 0 0 0 0 0 0 0 0 0 0 0 0 0 0 0 0 0 0 0 0 0 0 0 0 0 0 0 0 0 0 0 0 0 0 0 0 0 0 0 0 0 0 0 0 0 0 0 0 0 0 0 0 0 0 0 0 0 0 0 0 0 0 0 0 0 0 0 0 0 0 0 0 0 0 0 0 0 0 0 0 0 0 0 0 0 0 0 0 0 0 0 0 0 0 0 0 0 0 0 0 0 0 0 0 0 0 0 0 0 0 0 0 0 0 0 0 0 0 0 0 0 0 0 0 0 0 0 0 0 0 0 0 0 0 0 0 0 0 0 0 0 0 0 0 0 0 0 0 0 0 0 0 0 0 0 0 0 0 0 0 0 0 0 0 0 0 0 0 0 0 0 0 0 0 0 0 
0 0 0 0 0 0 0 0 0 0 0 0 0 0 0 0 0 0 0 0 0 0 0 0 0 0 0 0 0 0 0 0 0 0 0 0 0 0 0 0 0 0 0 0 0 0 0 0 0 0 0 0 0 0 0 0 0 0 0 0 0 0 0 0 0 0 0 0 0 0 0 0 0 0 0 0 0 0 0 0 0 0 0 0 0 0 0 0 0 0 0 0 0 0 0 0 0 0 0 0 0 0 0 0 0 0 0 0 0 0 0 0 0 0 0 0 0 0 0 0 0 0 0 0 0 0 0 0 0 0 0 0 0 0 0 0 0 0 0 0 0 0 0 0 0 0 0 0 0 0 0 0 0 0 0 0 0 0 0 0 0 0 0 0 0 0 0 0 0 0 0 0 0 0 0 0 0 0 0 0 
0 0 0 0 0 0 0 0 0 0 0 0 0 0 0 0 0 0 0 0 0 0 0 0 0 0 0 0 0 0 0 0 0 0 0 0 0 0 0 0 0 0 0 0 0 0 0 0 0 0 0 0 0 0 0 0 0 0 0 0 0 0 0 0 0 0 0 0 0 0 0 0 0 0 0 0 0 0 0 0 0 0 0 0 0 0 0 0 0 0 0 0 0 0 0 0 0 0 0 0 0 0 0 0 0 0 0 0 0 0 0 0 0 0 0 0 0 0 0 0 0 0 0 0 0 0 0 0 0 0 0 0 0 0 0 0 0 0 0 0 0 0 0 0 0 0 0 0 0 0 0 0 0 0 0 0 0 0 0 0 0 0 0 0 0 0 0 0 0 0 0 0 0 0 0 0 0 0 0 0 
0 0 0 0 0 0 0 0 0 0 0 0 0 0 0 0 0 0 0 0 0 0 0 0 0 0 0 0 0 0 0 0 0 0 0 0 0 0 0 0 0 0 0 0 0 0 0 0 0 0 0 0 0 0 0 0 0 0 0 0 0 0 0 0 0 0 0 0 0 0 0 0 0 0 0 0 0 0 0 0 0 0 0 0 0 0 0 0 0 0 0 0 0 0 0 0 0 0 0 0 0 0 0 0 0 0 0 0 0 0 0 0 0 0 0 0 0 0 0 0 0 0 0 0 0 0 0 0 0 0 0 0 0 0 0 0 0 0 0 0 0 0 0 0 0 0 0 0 0 0 0 0 0 0 0 0 0 0 0 0 0 0 0 0 0 0 0 0 0 0 0 0 0 0 0 0 0 0 0 0 
0 0 0 0 0 0 0 0 0 0 0 0 0 0 0 0 0 0 0 0 0 0 0 0 0 0 0 0 0 0 1770 0 0 3626 0 0 3731 0 0 3745 0 0 3607 0 0 3603 0 0 3768 0 0 3597 0 0 3723 0 0 3582 0 0 3649 0 0 3673 0 0 3730 0 0 3588 0 0 3734 0 0 3648 0 0 3599 0 0 3485 0 0 3561 0 0 3652 0 0 3617 0 0 3590 0 0 3544 0 0 3610 0 0 3762 0 0 3562 0 0 3532 0 0 3632 0 0 3740 0 0 3622 0 0 3561 0 0 3546 0 0 3620 0 0 3705 0 0 3634 0 0 3678 0 0 3608 0 0 3635 0 0 3577 0 0 3590 0 0 1817 0 0 0 0 0 0 0 0 0 0 0 0 0 0 0 0 0 0 0 0 0 0 0 0 0 0 0 0 0 
0 0 0 0 0 0 0 0 0 0 0 0 0 0 0 0 0 0 0 0 0 0 0 0 0 0 0 0 0 0 3620 0 0 7237 0 0 7262 0 0 7291 0 0 7496 0 0 7241 0 0 7263 0 0 7415 0 0 7123 0 0 7316 0 0 7172 0 0 7302 0 0 7427 0 0 7429 0 0 7275 0 0 7271 0 0 7207 0 0 7500 0 0 7309 0 0 7159 0 0 7332 0 0 7464 0 0 7252 0 0 7323 0 0 7331 0 0 7310 0 0 7509 0 0 7406 0 0 7407 0 0 7381 0 0 7225 0 0 7275 0 0 7281 0 0 7486 0 0 7170 0 0 7473 0 0 7219 0 0 7356 0 0 7335 0 0 7338 0 0 3794 0 0 0 0 0 0 0 0 0 0 0 0 0 0 0 0 0 0 0 0 0 0 0 0 0 0 0 0 0 
0 0 0 0 0 0 0 0 0 0 0 0 0 0 0 0 0 0 0 0 0 0 0 0 0 0 0 0 0 0 3726 0 0 7428 0 0 7145 0 0 7433 0 0 7279 0 0 7401 0 0 7257 0 0 7285 0 0 7308 0 0 7157 0 0 7421 0 0 7229 0 0 7361 0 0 7268 0 0 7137 0 0 7352 0 0 7234 0 0 7293 0 0 7304 0 0 7193 0 0 7342 0 0 7374 0 0 7429 0 0 7279 0 0 7393 0 0 7164 0 0 7318 0 0 7435 0 0 7371 0 0 7301 0 0 7520 0 0 7277 0 0 7289 0 0 7244 0 0 7500 0 0 7334 0 0 7296 0 0 7223 0 0 7149 0 0 7432 0 0 3574 0 0 0 0 0 0 0 0 0 0 0 0 0 0 0 0 0 0 0 0 0 0 0 0 0 0 0 0 0 
0 0 0 0 0 0 0 0 0 0 0 0 0 0 0 0 0 0 0 0 0 0 0 0 0 0 0 0 0 0 3685 0 0 7350 0 0 7437 0 0 7271 0 0 7406 0 0 7279 0 0 7287 0 0 7124 0 0 7324 0 0 7582 0 0 7229 0 0 7304 0 0 7350 0 0 7273 0 0 7255 0 0 7395 0 0 7477 0 0 7379 0 0 7268 0 0 7421 0 0 7410 0 0 7415 0 0 7344 0 0 7326 0 0 7355 0 0 7287 0 0 7297 0 0 7340 0 0 7261 0 0 7329 0 0 7248 0 0 7080 0 0 7203 0 0 7280 0 0 7354 0 0 7347 0 0 7322 0 0 7222 0 0 7283 0 0 7227 0 0 3621 0 0 0 0 0 0 0 0 0 0 0 0 0 0 0 0 0 0 0 0 0 0 0 0 0 0 0 0 0 
0 0 0 0 0 0 0 0 0 0 0 0 0 0 0 0 0 0 0 0 0 0 0 0 0 0 0 0 0 0 3633 0 0 7330 0 0 7413 0 0 7274 0 0 7451 0 0 7285 0 0 7346 0 0 7214 0 0 7344 0 0 7277 0 0 7352 0 0 7299 0 0 7269 0 0 7416 0 0 7183 0 0 7208 0 0 7260 0 0 7419 0 0 7290 0 0 7234 0 0 7309 0 0 7289 0 0 7333 0 0 7329 0 0 7329 0 0 7444 0 0 7386 0 0 7322 0 0 7210 0 0 7322 0 0 7300 0 0 7218 0 0 7294 0 0 7322 0 0 7228 0 0 7352 0 0 7337 0 0 7321 0 0 7423 0 0 7227 0 0 3629 0 0 0 0 0 0 0 0 0 0 0 0 0 0 0 0 0 0 0 0 0 0 0 0 0 0 0 0 0 
0 0 0 0 0 0 0 0 0 0 0 0 0 0 0 0 0 0 0 0 0 0 0 0 0 0 0 0 0 0 3642 0 0 7353 0 0 7254 0 0 7428 0 0 7284 0 0 7499 0 0 7369 0 0 7300 0 0 7241 0 0 7227 0 0 7293 0 0 7372 0 0 7227 0 0 7268 0 0 7344 0 0 7451 0 0 7523 0 0 7261 0 0 7339 0 0 7250 0 0 7238 0 0 7258 0 0 7266 0 0 7263 0 0 7285 0 0 7355 0 0 7405 0 0 7351 0 0 7255 0 0 7334 0 0 7227 0 0 7438 0 0 7160 0 0 7295 0 0 7272 0 0 7407 0 0 7343 0 0 7146 0 0 7547 0 0 7340 0 0 3634 0 0 0 0 0 0 0 0 0 0 0 0 0 0 0 0 0 0 0 0 0 0 0 0 0 0 0 0 0 
0 0 0 0 0 0 0 0 0 0 0 0 0 0 0 0 0 0 0 0 0 0 0 0 0 0 0 0 0 0 3568 0 0 7196 0 0 7325 0 0 7519 0 0 7440 0 0 7232 0 0 7213 0 0 7394 0 0 7339 0 0 7393 0 0 7254 0 0 7511 0 0 7161 0 0 7244 0 0 7301 0 0 7308 0 0 7294 0 0 7430 0 0 7325 0 0 7306 0 0 7280 0 0 7375 0 0 7509 0 0 7383 0 0 7447 0 0 7418 0 0 7378 0 0 7218 0 0 7272 0 0 7424 0 0 7345 0 0 7281 0 0 7370 0 0 7295 0 0 7480 0 0 7432 0 0 7212 0 0 7320 0 0 7517 0 0 7310 0 0 3677 0 0 0 0 0 0 0 0 0 0 0 0 0 0 0 0 0 0 0 0 0 0 0 0 0 0 0 0 0 
0 0 0 0 0 0 0 0 0 0 0 0 0 0 0 0 0 0 0 0 0 0 0 0 0 0 0 0 0 0 3667 0 0 7276 0 0 7474 0 0 7319 0 0 7362 0 0 7246 0 0 7400 0 0 7432 0 0 7394 0 0 7231 0 0 7322 0 0 7442 0 0 7473 0 0 7157 0 0 7328 0 0 7377 0 0 7500 0 0 7302 0 0 7407 0 0 7233 0 0 7443 0 0 7171 0 0 7343 0 0 7230 0 0 7235 0 0 7148 0 0 7308 0 0 7475 0 0 7329 0 0 7334 0 0 7271 0 0 7309 0 0 7213 0 0 7365 0 0 7406 0 0 7456 0 0 7456 0 0 7237 0 0 7287 0 0 7251 0 0 3609 0 0 0 0 0 0 0 0 0 0 0 0 0 0 0 0 0 0 0 0 0 0 0 0 0 0 0 0 0 
0 0 0 0 0 0 0 0 0 0 0 0 0 0 0 0 0 0 0 0 0 0 0 0 0 0 0 0 0 0 3623 0 0 7226 0 0 7261 0 0 7398 0 0 7276 0 0 7335 0 0 7364 0 0 7349 0 0 7227 0 0 7451 0 0 7328 0 0 7391 0 0 7313 0 0 7417 0 0 7276 0 0 7289 0 0 7448 0 0 7288 0 0 7401 0 0 7386 0 0 7377 0 0 7334 0 0 7272 0 0 7374 0 0 7206 0 0 7343 0 0 7329 0 0 7278 0 0 7278 0 0 7367 0 0 7263 0 0 7291 0 0 7404 0 0 7296 0 0 7270 0 0 7308 0 0 7363 0 0 7337 0 0 7171 0 0 7387 0 0 3735 0 0 0 0 0 0 0 0 0 0 0 0 0 0 0 0 0 0 0 0 0 0 0 0 0 0 0 0 0 
0 0 0 0 0 0 0 0 0 0 0 0 0 0 0 0 0 0 0 0 0 0 0 0 0 0 0 0 0 0 3746 0 0 7429 0 0 7417 0 0 7232 0 0 7294 0 0 7353 0 0 7286 0 0 7390 0 0 7391 0 0 7297 0 0 7370 0 0 7294 0 0 7286 0 0 7432 0 0 7247 0 0 7307 0 0 7280 0 0 7291 0 0 7205 0 0 7393 0 0 7390 0 0 7378 0 0 7354 0 0 7346 0 0 7339 0 0 7336 0 0 7402 0 0 7287 0 0 7276 0 0 7388 0 0 7326 0 0 7190 0 0 7348 0 0 7363 0 0 7301 0 0 7420 0 0 7211 0 0 7295 0 0 7556 0 0 7232 0 0 3634 0 0 0 0 0 0 0 0 0 0 0 0 0 0 0 0 0 0 0 0 0 0 0 0 0 0 0 0 0 
0 0 0 0 0 0 0 0 0 0 0 0 0 0 0 0 0 0 0 0 0 0 0 0 0 0 0 0 0 0 3600 0 0 7099 0 0 7306 0 0 7222 0 0 7321 0 0 7305 0 0 7319 0 0 7216 0 0 7348 0 0 7245 0 0 7281 0 0 7275 0 0 7475 0 0 7243 0 0 7366 0 0 7243 0 0 7203 0 0 7236 0 0 7362 0 0 7438 0 0 7405 0 0 7454 0 0 7334 0 0 7352 0 0 7240 0 0 7218 0 0 7348 0 0 7376 0 0 7392 0 0 7340 0 0 7367 0 0 7392 0 0 7322 0 0 7568 0 0 7287 0 0 7303 0 0 7178 0 0 7190 0 0 7380 0 0 7261 0 0 3712 0 0 0 0 0 0 0 0 0 0 0 0 0 0 0 0 0 0 0 0 0 0 0 0 0 0 0 0 0 
0 0 0 0 0 0 0 0 0 0 0 0 0 0 0 0 0 0 0 0 0 0 0 0 0 0 0 0 0 0 3705 0 0 7461 0 0 7084 0 0 7325 0 0 7172 0 0 7246 0 0 7262 0 0 7311 0 0 7376 0 0 7504 0 0 7479 0 0 7530 0 0 7204 0 0 7414 0 0 7396 0 0 7335 0 0 7397 0 0 7272 0 0 7313 0 0 7192 0 0 7324 0 0 7405 0 0 7510 0 0 7222 0 0 7287 0 0 7322 0 0 7300 0 0 7210 0 0 7360 0 0 7329 0 0 7240 0 0 7206 0 0 7302 0 0 7252 0 0 7294 0 0 7185 0 0 7380 0 0 7306 0 0 7264 0 0 7300 0 0 3691 0 0 0 0 0 0 0 0 0 0 0 0 0 0 0 0 0 0 0 0 0 0 0 0 0 0 0 0 0 
0 0 0 0 0 0 0 0 0 0 0 0 0 0 0 0 0 0 0 0 0 0 0 0 0 0 0 0 0 0 3598 0 0 7212 0 0 7258 0 0 7381 0 0 7332 0 0 7369 0 0 7315 0 0 7349 0 0 7311 0 0 7289 0 0 7496 0 0 7360 0 0 7287 0 0 7276 0 0 7276 0 0 7354 0 0 7346 0 0 7261 0 0 7282 0 0 7531 0 0 7299 0 0 7387 0 0 7431 0 0 7465 0 0 7206 0 0 7381 0 0 7242 0 0 7399 0 0 7341 0 0 7400 0 0 7349 0 0 7247 0 0 7275 0 0 7152 0 0 7289 0 0 7359 0 0 7246 0 0 7527 0 0 7355 0 0 7182 0 0 3770 0 0 0 0 0 0 0 0 0 0 0 0 0 0 0 0 0 0 0 0 0 0 0 0 0 0 0 0 0 
0 0 0 0 0 0 0 0 0 0 0 0 0 0 0 0 0 0 0 0 0 0 0 0 0 0 0 0 0 0 3561 0 0 7325 0 0 7381 0 0 7408 0 0 7311 0 0 7251 0 0 7302 0 0 7401 0 0 7436 0 0 7477 0 0 7277 0 0 7397 0 0 7325 0 0 7248 0 0 7441 0 0 7226 0 0 7489 0 0 7190 0 0 7247 0 0 7351 0 0 7186 0 0 7302 0 0 7417 0 0 7387 0 0 7295 0 0 7296 0 0 7283 0 0 7258 0 0 7407 0 0 7274 0 0 7358 0 0 7157 0 0 7138 0 0 7188 0 0 7236 0 0 7342 0 0 7172 0 0 7139 0 0 7253 0 0 7322 0 0 3622 0 0 0 0 0 0 0 0 0 0 0 0 0 0 0 0 0 0 0 0 0 0 0 0 0 0 0 0 0 
0 0 0 0 0 0 0 0 0 0 0 0 0 0 0 0 0 0 0 0 0 0 0 0 0 0 0 0 0 0 3619 0 0 7484 0 0 7446 0 0 7338 0 0 7258 0 0 7371 0 0 7416 0 0 7393 0 0 7271 0 0 7277 0 0 7292 0 0 7327 0 0 7379 0 0 7307 0 0 7262 0 0 7293 0 0 7325 0 0 7339 0 0 7214 0 0 7184 0 0 7288 0 0 7177 0 0 7309 0 0 7398 0 0 7249 0 0 7302 0 0 7320 0 0 7349 0 0 7245 0 0 7331 0 0 7332 0 0 7290 0 0 7226 0 0 7337 0 0 7312 0 0 7306 0 0 7279 0 0 7300 0 0 7319 0 0 7229 0 0 3639 0 0 0 0 0 0 0 0 0 0 0 0 0 0 0 0 0 0 0 0 0 0 0 0 0 0 0 0 0 
0 0 0 0 0 0 0 0 0 0 0 0 0 0 0 0 0 0 0 0 0 0 0 0 0 0 0 0 0 0 3698 0 0 7293 0 0 7245 0 0 7500 0 0 7308 0 0 7207 0 0 7497 0 0 7423 0 0 7215 0 0 7414 0 0 7335 0 0 7321 0 0 7157 0 0 7463 0 0 7416 0 0 7200 0 0 7299 0 0 7296 0 0 7299 0 0 7354 0 0 7321 0 0 7248 0 0 7465 0 0 7339 0 0 7327 0 0 7345 0 0 7372 0 0 7305 0 0 7532 0 0 7321 0 0 7254 0 0 7379 0 0 7250 0 0 7442 0 0 7466 0 0 7293 0 0 7479 0 0 7240 0 0 7328 0 0 7183 0 0 3622 0 0 0 0 0 0 0 0 0 0 0 0 0 0 0 0 0 0 0 0 0 0 0 0 0 0 0 0 0 
0 0 0 0 0 0 0 0 0 0 0 0 0 0 0 0 0 0 0 0 0 0 0 0 0 0 0 0 0 0 3591 0 0 7311 0 0 7361 0 0 7477 0 0 7320 0 0 7286 0 0 7427 0 0 7405 0 0 7348 0 0 7122 0 0 7335 0 0 7308 0 0 7467 0 0 7349 0 0 7284 0 0 7149 0 0 7404 0 0 7307 0 0 7244 0 0 7314 0 0 7295 0 0 7285 0 0 7512 0 0 7337 0 0 7419 0 0 7259 0 0 7276 0 0 7336 0 0 7265 0 0 7323 0 0 7216 0 0 7371 0 0 7454 0 0 7310 0 0 7239 0 0 7211 0 0 7190 0 0 7237 0 0 7278 0 0 7460 0 0 3587 0 0 0 0 0 0 0 0 0 0 0 0 0 0 0 0 0 0 0 0 0 0 0 0 0 0 0 0 0 
0 0 0 0 0 0 0 0 0 0 0 0 0 0 0 0 0 0 0 0 0 0 0 0 0 0 0 0 0 0 3672 0 0 7168 0 0 7136 0 0 7329 0 0 7405 0 0 7283 0 0 7328 0 0 7372 0 0 7412 0 0 7272 0 0 7228 0 0 7270 0 0 7424 0 0 7359 0 0 7308 0 0 7290 0 0 7327 0 0 7335 0 0 7324 0 0 7411 0 0 7379 0 0 7114 0 0 7365 0 0 7241 0 0 7439 0 0 7320 0 0 7190 0 0 7301 0 0 7294 0 0 7196 0 0 7297 0 0 7325 0 0 7320 0 0 7319 0 0 7180 0 0 7345 0 0 7218 0 0 7180 0 0 7138 0 0 7188 0 0 3729 0 0 0 0 0 0 0 0 0 0 0 0 0 0 0 0 0 0 0 0 0 0 0 0 0 0 0 0 0 
0 0 0 0 0 0 0 0 0 0 0 0 0 0 0 0 0 0 0 0 0 0 0 0 0 0 0 0 0 0 3709 0 0 7295 0 0 7323 0 0 7206 0 0 7297 0 0 7145 0 0 7471 0 0 7361 0 0 7281 0 0 7397 0 0 7270 0 0 7400 0 0 7270 0 0 7327 0 0 7257 0 0 7305 0 0 7327 0 0 7278 0 0 7318 0 0 7212 0 0 7285 0 0 7264 0 0 7384 0 0 7220 0 0 7296 0 0 7249 0 0 7309 0 0 7418 0 0 7245 0 0 7388 0 0 7267 0 0 7217 0 0 7334 0 0 7502 0 0 7296 0 0 7340 0 0 7255 0 0 7229 0 0 7214 0 0 7323 0 0 3618 0 0 0 0 0 0 0 0 0 0 0 0 0 0 0 0 0 0 0 0 0 0 0 0 0 0 0 0 0 
0 0 0 0 0 0 0 0 0 0 0 0 0 0 0 0 0 0 0 0 0 0 0 0 0 0 0 0 0 0 3746 0 0 7284 0 0 7276 0 0 7310 0 0 7372 0 0 7478 0 0 7229 0 0 7357 0 0 7268 0 0 7269 0 0 7448 0 0 7392 0 0 7272 0 0 7473 0 0 7333 0 0 7100 0 0 7316 0 0 7242 0 0 7309 0 0 7441 0 0 7414 0 0 7300 0 0 7328 0 0 7541 0 0 7279 0 0 7389 0 0 7287 0 0 7172 0 0 7277 0 0 7356 0 0 7321 0 0 7226 0 0 7535 0 0 7275 0 0 7185 0 0 7249 0 0 7268 0 0 7267 0 0 7126 0 0 7417 0 0 3667 0 0 0 0 0 0 0 0 0 0 0 0 0 0 0 0 0 0 0 0 0 0 0 0 0 0 0 0 0 
0 0 0 0 0 0 0 0 0 0 0 0 0 0 0 0 0 0 0 0 0 0 0 0 0 0 0 0 0 0 3696 0 0 7297 0 0 7228 0 0 7222 0 0 7352 0 0 7258 0 0 7385 0 0 7433 0 0 7146 0 0 7288 0 0 7267 0 0 7179 0 0 7298 0 0 7466 0 0 7311 0 0 7226 0 0 7410 0 0 7159 0 0 7449 0 0 7259 0 0 7346 0 0 7327 0 0 7536 0 0 7244 0 0 7127 0 0 7453 0 0 7190 0 0 7200 0 0 7421 0 0 7458 0 0 7432 0 0 7214 0 0 7296 0 0 7397 0 0 7113 0 0 7244 0 0 7292 0 0 7239 0 0 7280 0 0 7321 0 0 3730 0 0 0 0 0 0 0 0 0 0 0 0 0 0 0 0 0 0 0 0 0 0 0 0 0 0 0 0 0 
0 0 0 0 0 0 0 0 0 0 0 0 0 0 0 0 0 0 0 0 0 0 0 0 0 0 0 0 0 0 3735 0 0 7325 0 0 7239 0 0 7337 0 0 7415 0 0 7300 0 0 7303 0 0 7306 0 0 7359 0 0 7368 0 0 7416 0 0 7453 0 0 7239 0 0 7237 0 0 7364 0 0 7344 0 0 7282 0 0 7273 0 0 7367 0 0 7255 0 0 7345 0 0 7320 0 0 7259 0 0 7238 0 0 7437 0 0 7360 0 0 7284 0 0 7393 0 0 7201 0 0 7206 0 0 7109 0 0 7237 0 0 7342 0 0 7360 0 0 7383 0 0 7203 0 0 7277 0 0 7209 0 0 7205 0 0 7308 0 0 3758 0 0 0 0 0 0 0 0 0 0 0 0 0 0 0 0 0 0 0 0 0 0 0 0 0 0 0 0 0 
0 0 0 0 0 0 0 0 0 0 0 0 0 0 0 0 0 0 0 0 0 0 0 0 0 0 0 0 0 0 3665 0 0 7308 0 0 7313 0 0 7330 0 0 7159 0 0 7119 0 0 7414 0 0 7494 0 0 7316 0 0 7327 0 0 7295 0 0 7434 0 0 7390 0 0 7340 0 0 7119 0 0 7387 0 0 7338 0 0 7316 0 0 7267 0 0 7405 0 0 7244 0 0 7251 0 0 7303 0 0 7323 0 0 7380 0 0 7429 0 0 7239 0 0 7458 0 0 7211 0 0 7284 0 0 7326 0 0 7216 0 0 7290 0 0 7337 0 0 7276 0 0 7294 0 0 7219 0 0 7249 0 0 7329 0 0 7303 0 0 3741 0 0 0 0 0 0 0 0 0 0 0 0 0 0 0 0 0 0 0 0 0 0 0 0 0 0 0 0 0 
0 0 0 0 0 0 0 0 0 0 0 0 0 0 0 0 0 0 0 0 0 0 0 0 0 0 0 0 0 0 3655 0 0 7282 0 0 7222 0 0 7363 0 0 7265 0 0 7136 0 0 7329 0 0 7439 0 0 7309 0 0 7294 0 0 7311 0 0 7299 0 0 7192 0 0 7021 0 0 7424 0 0 7387 0 0 7279 0 0 7333 0 0 7270 0 0 7133 0 0 7326 0 0 7441 0 0 7341 0 0 7530 0 0 7266 0 0 7281 0 0 7397 0 0 7250 0 0 7225 0 0 7303 0 0 7411 0 0 7300 0 0 7155 0 0 7298 0 0 7229 0 0 7419 0 0 7234 0 0 7192 0 0 7179 0 0 7271 0 0 3709 0 0 0 0 0 0 0 0 0 0 0 0 0 0 0 0 0 0 0 0 0 0 0 0 0 0 0 0 0 
0 0 0 0 0 0 0 0 0 0 0 0 0 0 0 0 0 0 0 0 0 0 0 0 0 0 0 0 0 0 3696 0 0 7281 0 0 7273 0 0 7178 0 0 7335 0 0 7272 0 0 7347 0 0 7336 0 0 7224 0 0 7423 0 0 7090 0 0 7327 0 0 7309 0 0 7270 0 0 7412 0 0 7376 0 0 7311 0 0 7366 0 0 7275 0 0 7255 0 0 7295 0 0 7382 0 0 7271 0 0 7440 0 0 7370 0 0 7302 0 0 7387 0 0 7477 0 0 7325 0 0 7352 0 0 7226 0 0 7293 0 0 7254 0 0 7274 0 0 7158 0 0 7351 0 0 7309 0 0 7313 0 0 7375 0 0 7273 0 0 3709 0 0 0 0 0 0 0 0 0 0 0 0 0 0 0 0 0 0 0 0 0 0 0 0 0 0 0 0 0 
0 0 0 0 0 0 0 0 0 0 0 0 0 0 0 0 0 0 0 0 0 0 0 0 0 0 0 0 0 0 3654 0 0 7424 0 0 7293 0 0 7337 0 0 7242 0 0 7190 0 0 7248 0 0 7221 0 0 7559 0 0 7397 0 0 7502 0 0 7376 0 0 7183 0 0 7363 0 0 7325 0 0 7362 0 0 7265 0 0 7373 0 0 7330 0 0 7424 0 0 7381 0 0 7420 0 0 7313 0 0 7401 0 0 7305 0 0 7339 0 0 7348 0 0 7417 0 0 7220 0 0 7138 0 0 7209 0 0 7284 0 0 7325 0 0 7193 0 0 7236 0 0 7359 0 0 7270 0 0 7254 0 0 7155 0 0 7211 0 0 3606 0 0 0 0 0 0 0 0 0 0 0 0 0 0 0 0 0 0 0 0 0 0 0 0 0 0 0 0 0 
0 0 0 0 0 0 0 0 0 0 0 0 0 0 0 0 0 0 0 0 0 0 0 0 0 0 0 0 0 0 3581 0 0 7508 0 0 7272 0 0 7307 0 0 7372 0 0 7291 0 0 7489 0 0 7221 0 0 7349 0 0 7281 0 0 7341 0 0 7226 0 0 7313 0 0 7269 0 0 7257 0 0 7229 0 0 7274 0 0 7325 0 0 7215 0 0 7464 0 0 7372 0 0 7274 0 0 7346 0 0 7335 0 0 7550 0 0 7141 0 0 7312 0 0 7355 0 0 7340 0 0 7529 0 0 7339 0 0 7305 0 0 7353 0 0 7265 0 0 7192 0 0 7089 0 0 7322 0 0 7268 0 0 7395 0 0 7113 0 0 3707 0 0 0 0 0 0 0 0 0 0 0 0 0 0 0 0 0 0 0 0 0 0 0 0 0 0 0 0 0 
0 0 0 0 0 0 0 0 0 0 0 0 0 0 0 0 0 0 0 0 0 0 0 0 0 0 0 0 0 0 3653 0 0 7221 0 0 7351 0 0 7286 0 0 7229 0 0 7324 0 0 7336 0 0 7280 0 0 7229 0 0 7310 0 0 7273 0 0 7387 0 0 7374 0 0 7220 0 0 7325 0 0 7288 0 0 7256 0 0 7268 0 0 7392 0 0 7289 0 0 7211 0 0 7263 0 0 7279 0 0 7334 0 0 7286 0 0 7455 0 0 7215 0 0 7450 0 0 7316 0 0 7259 0 0 7320 0 0 7281 0 0 7309 0 0 7359 0 0 7376 0 0 7263 0 0 7291 0 0 7338 0 0 7260 0 0 7385 0 0 3585 0 0 0 0 0 0 0 0 0 0 0 0 0 0 0 0 0 0 0 0 0 0 0 0 0 0 0 0 0 
0 0 0 0 0 0 0 0 0 0 0 0 0 0 0 0 0 0 0 0 0 0 0 0 0 0 0 0 0 0 3643 0 0 7310 0 0 7428 0 0 7309 0 0 7341 0 0 7279 0 0 7416 0 0 7378 0 0 7227 0 0 7247 0 0 7326 0 0 7372 0 0 7272 0 0 7382 0 0 7229 0 0 7323 0 0 7326 0 0 7361 0 0 7211 0 0 7275 0 0 7345 0 0 7200 0 0 7292 0 0 7032 0 0 7309 0 0 7289 0 0 7381 0 0 7393 0 0 7410 0 0 7164 0 0 7314 0 0 7167 0 0 7306 0 0 7322 0 0 7342 0 0 7308 0 0 7387 0 0 7259 0 0 7321 0 0 7283 0 0 3703 0 0 0 0 0 0 0 0 0 0 0 0 0 0 0 0 0 0 0 0 0 0 0 0 0 0 0 0 0 
0 0 0 0 0 0 0 0 0 0 0 0 0 0 0 0 0 0 0 0 0 0 0 0 0 0 0 0 0 0 3639 0 0 7338 0 0 7274 0 0 7145 0 0 7311 0 0 7653 0 0 7329 0 0 7362 0 0 7289 0 0 7135 0 0 7407 0 0 7340 0 0 7308 0 0 7372 0 0 7348 0 0 7201 0 0 7297 0 0 7266 0 0 7372 0 0 7148 0 0 7311 0 0 7238 0 0 7258 0 0 7220 0 0 7237 0 0 7314 0 0 7376 0 0 7276 0 0 7319 0 0 7121 0 0 7405 0 0 7169 0 0 7323 0 0 7267 0 0 7291 0 0 7092 0 0 7281 0 0 7201 0 0 7259 0 0 7199 0 0 3702 0 0 0 0 0 0 0 0 0 0 0 0 0 0 0 0 0 0 0 0 0 0 0 0 0 0 0 0 0 
0 0 0 0 0 0 0 0 0 0 0 0 0 0 0 0 0 0 0 0 0 0 0 0 0 0 0 0 0 0 3622 0 0 7124 0 0 7364 0 0 7415 0 0 7269 0 0 7227 0 0 7464 0 0 7178 0 0 7357 0 0 7227 0 0 7308 0 0 7244 0 0 7289 0 0 7322 0 0 7212 0 0 7393 0 0 7478 0 0 7289 0 0 7317 0 0 7280 0 0 7237 0 0 7498 0 0 7274 0 0 7319 0 0 7444 0 0 7305 0 0 7145 0 0 7208 0 0 7359 0 0 7263 0 0 7454 0 0 7389 0 0 7409 0 0 7421 0 0 7346 0 0 7226 0 0 7322 0 0 7416 0 0 7279 0 0 7379 0 0 3685 0 0 0 0 0 0 0 0 0 0 0 0 0 0 0 0 0 0 0 0 0 0 0 0 0 0 0 0 0 
0 0 0 0 0 0 0 0 0 0 0 0 0 0 0 0 0 0 0 0 0 0 0 0 0 0 0 0 0 0 3568 0 0 7302 0 0 7285 0 0 7207 0 0 7483 0 0 7388 0 0 7221 0 0 7195 0 0 7302 0 0 7310 0 0 7487 0 0 7306 0 0 7427 0 0 7306 0 0 7279 0 0 7435 0 0 7422 0 0 7162 0 0 7410 0 0 7307 0 0 7224 0 0 7222 0 0 7258 0 0 7520 0 0 7218 0 0 7236 0 0 7540 0 0 7140 0 0 7167 0 0 7263 0 0 7368 0 0 7268 0 0 7317 0 0 7336 0 0 7257 0 0 7216 0 0 7166 0 0 7353 0 0 7273 0 0 7296 0 0 3768 0 0 0 0 0 0 0 0 0 0 0 0 0 0 0 0 0 0 0 0 0 0 0 0 0 0 0 0 0 
0 0 0 0 0 0 0 0 0 0 0 0 0 0 0 0 0 0 0 0 0 0 0 0 0 0 0 0 0 0 3683 0 0 7462 0 0 7338 0 0 7242 0 0 7420 0 0 7390 0 0 7394 0 0 7310 0 0 7182 0 0 7311 0 0 7327 0 0 7256 0 0 7461 0 0 7215 0 0 7259 0 0 7369 0 0 7282 0 0 7378 0 0 7401 0 0 7189 0 0 7313 0 0 7282 0 0 7369 0 0 7189 0 0 7179 0 0 7393 0 0 7126 0 0 7359 0 0 7265 0 0 7410 0 0 7372 0 0 7345 0 0 7368 0 0 7338 0 0 7276 0 0 7297 0 0 7192 0 0 7195 0 0 7240 0 0 7378 0 0 3604 0 0 0 0 0 0 0 0 0 0 0 0 0 0 0 0 0 0 0 0 0 0 0 0 0 0 0 0 0 
0 0 0 0 0 0 0 0 0 0 0 0 0 0 0 0 0 0 0 0 0 0 0 0 0 0 0 0 0 0 3763 0 0 7316 0 0 7296 0 0 7382 0 0 7421 0 0 7406 0 0 7260 0 0 7397 0 0 7302 0 0 7356 0 0 7520 0 0 7456 0 0 7208 0 0 7387 0 0 7445 0 0 7349 0 0 7434 0 0 7422 0 0 7341 0 0 7261 0 0 7210 0 0 7328 0 0 7182 0 0 7381 0 0 7349 0 0 7256 0 0 7291 0 0 7302 0 0 7270 0 0 7386 0 0 7370 0 0 7323 0 0 7190 0 0 7294 0 0 7286 0 0 7214 0 0 7455 0 0 7444 0 0 7149 0 0 7234 0 0 3534 0 0 0 0 0 0 0 0 0 0 0 0 0 0 0 0 0 0 0 0 0 0 0 0 0 0 0 0 0 
0 0 0 0 0 0 0 0 0 0 0 0 0 0 0 0 0 0 0 0 0 0 0 0 0 0 0 0 0 0 3511 0 0 7476 0 0 7281 0 0 7366 0 0 7259 0 0 7359 0 0 7323 0 0 7396 0 0 7241 0 0 7277 0 0 7105 0 0 7270 0 0 7262 0 0 7293 0 0 7335 0 0 7455 0 0 7147 0 0 7192 0 0 7303 0 0 7212 0 0 7367 0 0 7231 0 0 7182 0 0 7285 0 0 7351 0 0 7443 0 0 7240 0 0 7116 0 0 7369 0 0 7327 0 0 7353 0 0 7272 0 0 7356 0 0 7497 0 0 7348 0 0 7284 0 0 7213 0 0 7212 0 0 7273 0 0 7366 0 0 3613 0 0 0 0 0 0 0 0 0 0 0 0 0 0 0 0 0 0 0 0 0 0 0 0 0 0 0 0 0 
0 0 0 0 0 0 0 0 0 0 0 0 0 0 0 0 0 0 0 0 0 0 0 0 0 0 0 0 0 0 3755 0 0 7260 0 0 7434 0 0 7117 0 0 7346 0 0 7333 0 0 7485 0 0 7273 0 0 7245 0 0 7215 0 0 7311 0 0 7287 0 0 7177 0 0 7334 0 0 7411 0 0 7371 0 0 7124 0 0 7330 0 0 7332 0 0 7340 0 0 7266 0 0 7438 0 0 7196 0 0 7240 0 0 7372 0 0 7314 0 0 7589 0 0 7170 0 0 7298 0 0 7282 0 0 7130 0 0 7183 0 0 7281 0 0 7314 0 0 7343 0 0 7208 0 0 7272 0 0 7355 0 0 7304 0 0 7364 0 0 3665 0 0 0 0 0 0 0 0 0 0 0 0 0 0 0 0 0 0 0 0 0 0 0 0 0 0 0 0 0 
0 0 0 0 0 0 0 0 0 0 0 0 0 0 0 0 0 0 0 0 0 0 0 0 0 0 0 0 0 0 3714 0 0 7276 0 0 7271 0 0 7481 0 0 7301 0 0 7280 0 0 7352 0 0 7203 0 0 7416 0 0 7335 0 0 7309 0 0 7404 0 0 7330 0 0 7256 0 0 7336 0 0 7309 0 0 7346 0 0 7377 0 0 7395 0 0 7417 0 0 7428 0 0 7280 0 0 7350 0 0 7121 0 0 7310 0 0 7342 0 0 7389 0 0 7386 0 0 7607 0 0 7344 0 0 7401 0 0 7308 0 0 7366 0 0 7264 0 0 7459 0 0 7315 0 0 7252 0 0 7343 0 0 7319 0 0 7266 0 0 3653 0 0 0 0 0 0 0 0 0 0 0 0 0 0 0 0 0 0 0 0 0 0 0 0 0 0 0 0 0 
0 0 0 0 0 0 0 0 0 0 0 0 0 0 0 0 0 0 0 0 0 0 0 0 0 0 0 0 0 0 3747 0 0 7332 0 0 7329 0 0 7422 0 0 7342 0 0 7288 0 0 7173 0 0 7302 0 0 7228 0 0 7295 0 0 7336 0 0 7439 0 0 7252 0 0 7150 0 0 7267 0 0 7321 0 0 7399 0 0 7325 0 0 7308 0 0 7377 0 0 7336 0 0 7240 0 0 7319 0 0 7278 0 0 7257 0 0 7189 0 0 7208 0 0 7331 0 0 7242 0 0 7346 0 0 7351 0 0 7315 0 0 7190 0 0 7335 0 0 7310 0 0 7220 0 0 7396 0 0 7243 0 0 7283 0 0 7392 0 0 3780 0 0 0 0 0 0 0 0 0 0 0 0 0 0 0 0 0 0 0 0 0 0 0 0 0 0 0 0 0 
0 0 0 0 0 0 0 0 0 0 0 0 0 0 0 0 0 0 0 0 0 0 0 0 0 0 0 0 0 0 3630 0 0 7154 0 0 7262 0 0 7371 0 0 7310 0 0 7456 0 0 7283 0 0 7328 0 0 7177 0 0 7170 0 0 7316 0 0 7188 0 0 7204 0 0 7273 0 0 7337 0 0 7361 0 0 7375 0 0 7272 0 0 7259 0 0 7336 0 0 7469 0 0 7269 0 0 7165 0 0 7300 0 0 7413 0 0 7171 0 0 7324 0 0 7375 0 0 7377 0 0 7122 0 0 7382 0 0 7439 0 0 7357 0 0 7553 0 0 7309 0 0 7286 0 0 7295 0 0 7392 0 0 7384 0 0 7328 0 0 3678 0 0 0 0 0 0 0 0 0 0 0 0 0 0 0 0 0 0 0 0 0 0 0 0 0 0 0 0 0 
0 0 0 0 0 0 0 0 0 0 0 0 0 0 0 0 0 0 0 0 0 0 0 0 0 0 0 0 0 0 3667 0 0 7406 0 0 7313 0 0 7274 0 0 7276 0 0 7308 0 0 7384 0 0 7433 0 0 7329 0 0 7248 0 0 7236 0 0 7305 0 0 7240 0 0 7310 0 0 7283 0 0 7336 0 0 7417 0 0 7337 0 0 7296 0 0 7277 0 0 7273 0 0 7199 0 0 7343 0 0 7438 0 0 7435 0 0 7302 0 0 7192 0 0 7302 0 0 7284 0 0 7222 0 0 7365 0 0 7265 0 0 7251 0 0 7395 0 0 7209 0 0 7276 0 0 7437 0 0 7451 0 0 7229 0 0 7332 0 0 3594 0 0 0 0 0 0 0 0 0 0 0 0 0 0 0 0 0 0 0 0 0 0 0 0 0 0 0 0 0 
0 0 0 0 0 0 0 0 0 0 0 0 0 0 0 0 0 0 0 0 0 0 0 0 0 0 0 0 0 0 1873 0 0 3646 0 0 3600 0 0 3657 0 0 3596 0 0 3660 0 0 3764 0 0 3668 0 0 3750 0 0 3721 0 0 3599 0 0 3690 0 0 3691 0 0 3670 0 0 3731 0 0 3640 0 0 3707 0 0 3560 0 0 3766 0 0 3613 0 0 3659 0 0 3767 0 0 3599 0 0 3718 0 0 3683 0 0 3706 0 0 3651 0 0 3585 0 0 3690 0 0 3677 0 0 3724 0 0 3627 0 0 3713 0 0 3672 0 0 3575 0 0 3602 0 0 3760 0 0 3764 0 0 3800 0 0 3663 0 0 1811 0 0 0 0 0 0 0 0 0 0 0 0 0 0 0 0 0 0 0 0 0 0 0 0 0 0 0 0 0 
0 0 0 0 0 0 0 0 0 0 0 0 0 0 0 0 0 0 0 0 0 0 0 0 0 0 0 0 0 0 0 0 0 0 0 0 0 0 0 0 0 0 0 0 0 0 0 0 0 0 0 0 0 0 0 0 0 0 0 0 0 0 0 0 0 0 0 0 0 0 0 0 0 0 0 0 0 0 0 0 0 0 0 0 0 0 0 0 0 0 0 0 0 0 0 0 0 0 0 0 0 0 0 0 0 0 0 0 0 0 0 0 0 0 0 0 0 0 0 0 0 0 0 0 0 0 0 0 0 0 0 0 0 0 0 0 0 0 0 0 0 0 0 0 0 0 0 0 0 0 0 0 0 0 0 0 0 0 0 0 0 0 0 0 0 0 0 0 0 0 0 0 0 0 0 0 0 0 0 0 
0 0 0 0 0 0 0 0 0 0 0 0 0 0 0 0 0 0 0 0 0 0 0 0 0 0 0 0 0 0 0 0 0 0 0 0 0 0 0 0 0 0 0 0 0 0 0 0 0 0 0 0 0 0 0 0 0 0 0 0 0 0 0 0 0 0 0 0 0 0 0 0 0 0 0 0 0 0 0 0 0 0 0 0 0 0 0 0 0 0 0 0 0 0 0 0 0 0 0 0 0 0 0 0 0 0 0 0 0 0 0 0 0 0 0 0 0 0 0 0 0 0 0 0 0 0 0 0 0 0 0 0 0 0 0 0 0 0 0 0 0 0 0 0 0 0 0 0 0 0 0 0 0 0 0 0 0 0 0 0 0 0 0 0 0 0 0 0 0 0 0 0 0 0 0 0 0 0 0 0 
0 0 0 0 0 0 0 0 0 0 0 0 0 0 0 0 0 0 0 0 0 0 0 0 0 0 0 0 0 0 0 0 0 0 0 0 0 0 0 0 0 0 0 0 0 0 0 0 0 0 0 0 0 0 0 0 0 0 0 0 0 0 0 0 0 0 0 0 0 0 0 0 0 0 0 0 0 0 0 0 0 0 0 0 0 0 0 0 0 0 0 0 0 0 0 0 0 0 0 0 0 0 0 0 0 0 0 0 0 0 0 0 0 0 0 0 0 0 0 0 0 0 0 0 0 0 0 0 0 0 0 0 0 0 0 0 0 0 0 0 0 0 0 0 0 0 0 0 0 0 0 0 0 0 0 0 0 0 0 0 0 0 0 0 0 0 0 0 0 0 0 0 0 0 0 0 0 0 0 0 
0 0 0 0 0 0 0 0 0 0 0 0 0 0 0 0 0 0 0 0 0 0 0 0 0 0 0 0 0 0 0 0 0 0 0 0 0 0 0 0 0 0 0 0 0 0 0 0 0 0 0 0 0 0 0 0 0 0 0 0 0 0 0 0 0 0 0 0 0 0 0 0 0 0 0 0 0 0 0 0 0 0 0 0 0 0 0 0 0 0 0 0 0 0 0 0 0 0 0 0 0 0 0 0 0 0 0 0 0 0 0 0 0 0 0 0 0 0 0 0 0 0 0 0 0 0 0 0 0 0 0 0 0 0 0 0 0 0 0 0 0 0 0 0 0 0 0 0 0 0 0 0 0 0 0 0 0 0 0 0 0 0 0 0 0 0 0 0 0 0 0 0 0 0 0 0 0 0 0 0 
0 0 0 0 0 0 0 0 0 0 0 0 0 0 0 0 0 0 0 0 0 0 0 0 0 0 0 0 0 0 0 0 0 0 0 0 0 0 0 0 0 0 0 0 0 0 0 0 0 0 0 0 0 0 0 0 0 0 0 0 0 0 0 0 0 0 0 0 0 0 0 0 0 0 0 0 0 0 0 0 0 0 0 0 0 0 0 0 0 0 0 0 0 0 0 0 0 0 0 0 0 0 0 0 0 0 0 0 0 0 0 0 0 0 0 0 0 0 0 0 0 0 0 0 0 0 0 0 0 0 0 0 0 0 0 0 0 0 0 0 0 0 0 0 0 0 0 0 0 0 0 0 0 0 0 0 0 0 0 0 0 0 0 0 0 0 0 0 0 0 0 0 0 0 0 0 0 0 0 0 
0 0 0 0 0 0 0 0 0 0 0 0 0 0 0 0 0 0 0 0 0 0 0 0 0 0 0 0 0 0 0 0 0 0 0 0 0 0 0 0 0 0 0 0 0 0 0 0 0 0 0 0 0 0 0 0 0 0 0 0 0 0 0 0 0 0 0 0 0 0 0 0 0 0 0 0 0 0 0 0 0 0 0 0 0 0 0 0 0 0 0 0 0 0 0 0 0 0 0 0 0 0 0 0 0 0 0 0 0 0 0 0 0 0 0 0 0 0 0 0 0 0 0 0 0 0 0 0 0 0 0 0 0 0 0 0 0 0 0 0 0 0 0 0 0 0 0 0 0 0 0 0 0 0 0 0 0 0 0 0 0 0 0 0 0 0 0 0 0 0 0 0 0 0 0 0 0 0 0 0 
0 0 0 0 0 0 0 0 0 0 0 0 0 0 0 0 0 0 0 0 0 0 0 0 0 0 0 0 0 0 0 0 0 0 0 0 0 0 0 0 0 0 0 0 0 0 0 0 0 0 0 0 0 0 0 0 0 0 0 0 0 0 0 0 0 0 0 0 0 0 0 0 0 0 0 0 0 0 0 0 0 0 0 0 0 0 0 0 0 0 0 0 0 0 0 0 0 0 0 0 0 0 0 0 0 0 0 0 0 0 0 0 0 0 0 0 0 0 0 0 0 0 0 0 0 0 0 0 0 0 0 0 0 0 0 0 0 0 0 0 0 0 0 0 0 0 0 0 0 0 0 0 0 0 0 0 0 0 0 0 0 0 0 0 0 0 0 0 0 0 0 0 0 0 0 0 0 0 0 0 
0 0 0 0 0 0 0 0 0 0 0 0 0 0 0 0 0 0 0 0 0 0 0 0 0 0 0 0 0 0 0 0 0 0 0 0 0 0 0 0 0 0 0 0 0 0 0 0 0 0 0 0 0 0 0 0 0 0 0 0 0 0 0 0 0 0 0 0 0 0 0 0 0 0 0 0 0 0 0 0 0 0 0 0 0 0 0 0 0 0 0 0 0 0 0 0 0 0 0 0 0 0 0 0 0 0 0 0 0 0 0 0 0 0 0 0 0 0 0 0 0 0 0 0 0 0 0 0 0 0 0 0 0 0 0 0 0 0 0 0 0 0 0 0 0 0 0 0 0 0 0 0 0 0 0 0 0 0 0 0 0 0 0 0 0 0 0 0 0 0 0 0 0 0 0 0 0 0 0 0 
0 0 0 0 0 0 0 0 0 0 0 0 0 0 0 0 0 0 0 0 0 0 0 0 0 0 0 0 0 0 0 0 0 0 0 0 0 0 0 0 0 0 0 0 0 0 0 0 0 0 0 0 0 0 0 0 0 0 0 0 0 0 0 0 0 0 0 0 0 0 0 0 0 0 0 0 0 0 0 0 0 0 0 0 0 0 0 0 0 0 0 0 0 0 0 0 0 0 0 0 0 0 0 0 0 0 0 0 0 0 0 0 0 0 0 0 0 0 0 0 0 0 0 0 0 0 0 0 0 0 0 0 0 0 0 0 0 0 0 0 0 0 0 0 0 0 0 0 0 0 0 0 0 0 0 0 0 0 0 0 0 0 0 0 0 0 0 0 0 0 0 0 0 0 0 0 0 0 0 0 
