P3
# This is a dose file slice at depth 92 of 100
60 60
# now we give the maximum value of the RGB coordinates.
21610
0 0 0 0 0 0 0 0 0 0 0 0 0 0 0 0 0 0 0 0 0 0 0 0 0 0 0 0 0 0 1 0 0 1 0 0 0 0 0 0 0 0 0 0 0 1 0 0 1 0 0 0 0 0 1 0 0 0 0 0 0 0 0 0 0 0 2 0 0 0 0 0 0 0 0 0 0 0 3 0 0 0 0 0 0 0 0 1 0 0 0 0 0 0 0 0 0 0 0 0 0 0 1 0 0 0 0 0 0 0 0 0 0 0 2 0 0 0 0 0 0 0 0 0 0 0 0 0 0 0 0 0 0 0 0 0 0 0 0 0 0 0 0 0 1 0 0 0 0 0 0 0 0 0 0 0 0 0 0 0 0 0 0 0 0 0 0 0 1 0 0 1 0 0 0 0 0 0 0 0 
0 0 0 2 0 0 0 0 0 2 0 0 0 0 0 0 0 0 0 0 0 0 0 0 0 0 0 0 0 0 0 0 0 1 0 0 1 0 0 0 0 0 0 0 0 2 0 0 1 0 0 2 0 0 4 0 0 3 0 0 3 0 0 1 0 0 0 0 0 1 0 0 2 0 0 1 0 0 3 0 0 2 0 0 1 0 0 2 0 0 0 0 0 0 0 0 0 0 0 2 0 0 2 0 0 0 0 0 0 0 0 1 0 0 1 0 0 2 0 0 2 0 0 1 0 0 1 0 0 0 0 0 0 0 0 1 0 0 0 0 0 0 0 0 1 0 0 2 0 0 2 0 0 1 0 0 0 0 0 0 0 0 1 0 0 3 0 0 1 0 0 0 0 0 0 0 0 3 0 0 
0 0 0 0 0 0 0 0 0 0 0 0 2 0 0 0 0 0 1 0 0 1 0 0 0 0 0 0 0 0 1 0 0 0 0 0 1 0 0 0 0 0 0 0 0 4 0 0 1 0 0 0 0 0 0 0 0 1 0 0 3 0 0 2 0 0 0 0 0 0 0 0 1 0 0 0 0 0 3 0 0 1 0 0 1 0 0 2 0 0 1 0 0 0 0 0 0 0 0 0 0 0 0 0 0 1 0 0 0 0 0 2 0 0 1 0 0 0 0 0 0 0 0 0 0 0 2 0 0 1 0 0 0 0 0 2 0 0 0 0 0 0 0 0 2 0 0 2 0 0 2 0 0 1 0 0 0 0 0 2 0 0 1 0 0 2 0 0 0 0 0 0 0 0 0 0 0 2 0 0 
0 0 0 1 0 0 0 0 0 0 0 0 0 0 0 1 0 0 0 0 0 0 0 0 0 0 0 0 0 0 0 0 0 1 0 0 1 0 0 0 0 0 0 0 0 3 0 0 3 0 0 0 0 0 0 0 0 1 0 0 5 0 0 1 0 0 2 0 0 2 0 0 2 0 0 0 0 0 2 0 0 2 0 0 3 0 0 2 0 0 2 0 0 0 0 0 0 0 0 2 0 0 2 0 0 0 0 0 1 0 0 3 0 0 3 0 0 1 0 0 0 0 0 3 0 0 5 0 0 3 0 0 2 0 0 0 0 0 1 0 0 2 0 0 0 0 0 1 0 0 0 0 0 3 0 0 0 0 0 1 0 0 4 0 0 0 0 0 1 0 0 0 0 0 0 0 0 2 0 0 
0 0 0 0 0 0 0 0 0 0 0 0 0 0 0 0 0 0 2 0 0 1 0 0 4 0 0 0 0 0 0 0 0 1 0 0 3 0 0 2 0 0 0 0 0 0 0 0 4 0 0 0 0 0 1 0 0 0 0 0 4 0 0 3 0 0 5 0 0 3 0 0 4 0 0 3 0 0 3 0 0 2 0 0 1 0 0 2 0 0 2 0 0 0 0 0 1 0 0 3 0 0 1 0 0 4 0 0 0 0 0 3 0 0 1 0 0 3 0 0 1 0 0 1 0 0 1 0 0 3 0 0 4 0 0 1 0 0 1 0 0 2 0 0 3 0 0 2 0 0 1 0 0 4 0 0 0 0 0 1 0 0 2 0 0 1 0 0 1 0 0 0 0 0 0 0 0 0 0 0 
0 0 0 1 0 0 0 0 0 0 0 0 0 0 0 0 0 0 1 0 0 2 0 0 3 0 0 1 0 0 4 0 0 0 0 0 1 0 0 2 0 0 0 0 0 0 0 0 6 0 0 1 0 0 0 0 0 0 0 0 5 0 0 2 0 0 2 0 0 0 0 0 3 0 0 1 0 0 4 0 0 0 0 0 3 0 0 3 0 0 5 0 0 0 0 0 1 0 0 0 0 0 1 0 0 4 0 0 5 0 0 2 0 0 2 0 0 1 0 0 0 0 0 3 0 0 1 0 0 3 0 0 0 0 0 1 0 0 2 0 0 0 0 0 0 0 0 2 0 0 0 0 0 0 0 0 0 0 0 3 0 0 0 0 0 1 0 0 1 0 0 1 0 0 0 0 0 1 0 0 
1 0 0 2 0 0 0 0 0 1 0 0 0 0 0 0 0 0 0 0 0 2 0 0 3 0 0 2 0 0 0 0 0 0 0 0 2 0 0 2 0 0 3 0 0 2 0 0 1 0 0 2 0 0 3 0 0 6 0 0 3 0 0 5 0 0 3 0 0 4 0 0 1 0 0 8 0 0 3 0 0 3 0 0 4 0 0 1 0 0 3 0 0 4 0 0 2 0 0 2 0 0 2 0 0 6 0 0 4 0 0 2 0 0 4 0 0 3 0 0 0 0 0 3 0 0 2 0 0 0 0 0 1 0 0 2 0 0 3 0 0 3 0 0 2 0 0 4 0 0 3 0 0 1 0 0 2 0 0 3 0 0 2 0 0 4 0 0 0 0 0 0 0 0 0 0 0 0 0 0 
0 0 0 0 0 0 1 0 0 0 0 0 0 0 0 2 0 0 0 0 0 0 0 0 0 0 0 5 0 0 0 0 0 2 0 0 1 0 0 4 0 0 3 0 0 2 0 0 4 0 0 5 0 0 1 0 0 3 0 0 1 0 0 5 0 0 1 0 0 3 0 0 1 0 0 3 0 0 5 0 0 1 0 0 6 0 0 4 0 0 2 0 0 4 0 0 2 0 0 4 0 0 5 0 0 4 0 0 5 0 0 6 0 0 2 0 0 6 0 0 5 0 0 5 0 0 3 0 0 0 0 0 1 0 0 0 0 0 3 0 0 4 0 0 3 0 0 4 0 0 2 0 0 1 0 0 2 0 0 2 0 0 0 0 0 0 0 0 0 0 0 1 0 0 0 0 0 0 0 0 
0 0 0 0 0 0 0 0 0 2 0 0 0 0 0 1 0 0 1 0 0 0 0 0 0 0 0 4 0 0 1 0 0 5 0 0 3 0 0 6 0 0 2 0 0 4 0 0 4 0 0 7 0 0 2 0 0 2 0 0 6 0 0 3 0 0 1 0 0 4 0 0 4 0 0 5 0 0 2 0 0 9 0 0 5 0 0 2 0 0 10 0 0 4 0 0 4 0 0 9 0 0 4 0 0 5 0 0 6 0 0 8 0 0 3 0 0 5 0 0 4 0 0 4 0 0 1 0 0 1 0 0 1 0 0 2 0 0 5 0 0 6 0 0 3 0 0 5 0 0 2 0 0 1 0 0 1 0 0 1 0 0 1 0 0 0 0 0 0 0 0 0 0 0 0 0 0 0 0 0 
0 0 0 1 0 0 0 0 0 0 0 0 1 0 0 0 0 0 0 0 0 1 0 0 0 0 0 3 0 0 19 0 0 26 0 0 21 0 0 24 0 0 21 0 0 22 0 0 25 0 0 31 0 0 24 0 0 23 0 0 21 0 0 20 0 0 20 0 0 28 0 0 29 0 0 25 0 0 29 0 0 19 0 0 29 0 0 24 0 0 22 0 0 21 0 0 23 0 0 27 0 0 31 0 0 27 0 0 30 0 0 28 0 0 24 0 0 20 0 0 21 0 0 18 0 0 20 0 0 24 0 0 27 0 0 24 0 0 28 0 0 25 0 0 16 0 0 24 0 0 17 0 0 3 0 0 1 0 0 1 0 0 1 0 0 0 0 0 0 0 0 0 0 0 0 0 0 2 0 0 
0 0 0 2 0 0 1 0 0 1 0 0 3 0 0 1 0 0 0 0 0 0 0 0 0 0 0 15 0 0 759 0 0 1387 0 0 1418 0 0 1405 0 0 1442 0 0 1396 0 0 1410 0 0 1552 0 0 1440 0 0 1527 0 0 1532 0 0 1410 0 0 1460 0 0 1445 0 0 1457 0 0 1498 0 0 1424 0 0 1437 0 0 1485 0 0 1457 0 0 1499 0 0 1440 0 0 1487 0 0 1473 0 0 1438 0 0 1416 0 0 1446 0 0 1379 0 0 1450 0 0 1462 0 0 1474 0 0 1482 0 0 1543 0 0 1400 0 0 1447 0 0 1371 0 0 1420 0 0 1395 0 0 1460 0 0 1474 0 0 730 0 0 14 0 0 4 0 0 2 0 0 0 0 0 0 0 0 0 0 0 1 0 0 1 0 0 1 0 0 
0 0 0 2 0 0 1 0 0 4 0 0 3 0 0 4 0 0 5 0 0 1 0 0 1 0 0 26 0 0 1501 0 0 2810 0 0 2801 0 0 2888 0 0 2896 0 0 2853 0 0 2921 0 0 2981 0 0 2831 0 0 2889 0 0 2922 0 0 2839 0 0 2881 0 0 2834 0 0 2932 0 0 2895 0 0 3027 0 0 2891 0 0 2890 0 0 2865 0 0 2924 0 0 2835 0 0 2877 0 0 2818 0 0 2973 0 0 2937 0 0 2926 0 0 2873 0 0 2898 0 0 2949 0 0 2917 0 0 2891 0 0 2919 0 0 2945 0 0 2894 0 0 2862 0 0 2951 0 0 2866 0 0 2856 0 0 2848 0 0 1422 0 0 22 0 0 2 0 0 3 0 0 2 0 0 0 0 0 0 0 0 0 0 0 0 0 0 0 0 0 
0 0 0 0 0 0 1 0 0 0 0 0 1 0 0 2 0 0 4 0 0 5 0 0 1 0 0 25 0 0 1466 0 0 2833 0 0 2892 0 0 2866 0 0 2915 0 0 2901 0 0 2851 0 0 2976 0 0 2930 0 0 2788 0 0 2984 0 0 2991 0 0 2946 0 0 2915 0 0 2982 0 0 2914 0 0 2983 0 0 2891 0 0 2911 0 0 2834 0 0 2912 0 0 2903 0 0 2944 0 0 2936 0 0 2930 0 0 2894 0 0 2914 0 0 2863 0 0 2870 0 0 2992 0 0 2879 0 0 2835 0 0 2903 0 0 2909 0 0 2904 0 0 2995 0 0 2932 0 0 2898 0 0 2903 0 0 2863 0 0 1520 0 0 27 0 0 2 0 0 1 0 0 1 0 0 0 0 0 0 0 0 0 0 0 0 0 0 0 0 0 
0 0 0 0 0 0 0 0 0 1 0 0 1 0 0 1 0 0 0 0 0 1 0 0 1 0 0 27 0 0 1440 0 0 2873 0 0 2898 0 0 2890 0 0 2957 0 0 2927 0 0 2949 0 0 2912 0 0 3002 0 0 2918 0 0 2926 0 0 2932 0 0 2908 0 0 2936 0 0 2886 0 0 2889 0 0 2924 0 0 2875 0 0 2844 0 0 2949 0 0 2799 0 0 2858 0 0 2991 0 0 2837 0 0 2933 0 0 2938 0 0 2901 0 0 2957 0 0 2909 0 0 2943 0 0 2895 0 0 2950 0 0 2907 0 0 2946 0 0 2841 0 0 2912 0 0 2925 0 0 2966 0 0 2775 0 0 2943 0 0 1483 0 0 23 0 0 1 0 0 0 0 0 0 0 0 2 0 0 0 0 0 0 0 0 2 0 0 0 0 0 
0 0 0 1 0 0 1 0 0 1 0 0 2 0 0 4 0 0 2 0 0 3 0 0 2 0 0 16 0 0 1465 0 0 2871 0 0 2953 0 0 2874 0 0 2928 0 0 2889 0 0 2866 0 0 2887 0 0 2902 0 0 2888 0 0 2888 0 0 2871 0 0 2900 0 0 2840 0 0 2888 0 0 2863 0 0 2898 0 0 2907 0 0 2936 0 0 2953 0 0 2830 0 0 2968 0 0 2875 0 0 2909 0 0 2968 0 0 2861 0 0 2963 0 0 2870 0 0 2874 0 0 2906 0 0 2869 0 0 2886 0 0 2899 0 0 2870 0 0 2863 0 0 2943 0 0 2893 0 0 2851 0 0 2904 0 0 2900 0 0 1473 0 0 27 0 0 3 0 0 2 0 0 2 0 0 2 0 0 2 0 0 1 0 0 1 0 0 1 0 0 
0 0 0 0 0 0 0 0 0 0 0 0 2 0 0 3 0 0 1 0 0 1 0 0 2 0 0 19 0 0 1421 0 0 2871 0 0 2850 0 0 2866 0 0 2891 0 0 2944 0 0 2890 0 0 2980 0 0 2992 0 0 2862 0 0 2899 0 0 2905 0 0 2918 0 0 2897 0 0 2938 0 0 2854 0 0 2954 0 0 2904 0 0 2847 0 0 3045 0 0 2879 0 0 2794 0 0 2953 0 0 2878 0 0 2913 0 0 2938 0 0 2727 0 0 2912 0 0 2899 0 0 2904 0 0 2931 0 0 3061 0 0 2869 0 0 2952 0 0 2866 0 0 2864 0 0 2833 0 0 2892 0 0 2919 0 0 2932 0 0 1423 0 0 27 0 0 8 0 0 3 0 0 1 0 0 2 0 0 2 0 0 0 0 0 0 0 0 2 0 0 
1 0 0 2 0 0 0 0 0 2 0 0 1 0 0 2 0 0 2 0 0 5 0 0 1 0 0 28 0 0 1426 0 0 2822 0 0 2924 0 0 2898 0 0 2966 0 0 2889 0 0 2961 0 0 2854 0 0 2896 0 0 2896 0 0 2935 0 0 2907 0 0 2880 0 0 2870 0 0 2919 0 0 2905 0 0 2880 0 0 2932 0 0 2966 0 0 2953 0 0 2939 0 0 2862 0 0 2909 0 0 2887 0 0 2938 0 0 2881 0 0 2978 0 0 2953 0 0 2909 0 0 2865 0 0 2859 0 0 2927 0 0 2943 0 0 2870 0 0 2984 0 0 2916 0 0 2953 0 0 2859 0 0 2883 0 0 2837 0 0 1470 0 0 30 0 0 5 0 0 6 0 0 3 0 0 2 0 0 1 0 0 1 0 0 1 0 0 1 0 0 
0 0 0 2 0 0 1 0 0 2 0 0 3 0 0 2 0 0 4 0 0 4 0 0 6 0 0 23 0 0 1434 0 0 2909 0 0 2870 0 0 2881 0 0 2880 0 0 2912 0 0 2970 0 0 2950 0 0 2935 0 0 2885 0 0 2955 0 0 2955 0 0 2921 0 0 2906 0 0 2885 0 0 2912 0 0 2948 0 0 2855 0 0 2849 0 0 2916 0 0 2934 0 0 2922 0 0 2962 0 0 2904 0 0 2891 0 0 2827 0 0 2846 0 0 2854 0 0 2859 0 0 3006 0 0 2953 0 0 2844 0 0 2962 0 0 2921 0 0 2888 0 0 2857 0 0 2889 0 0 2926 0 0 2956 0 0 2855 0 0 1461 0 0 30 0 0 6 0 0 3 0 0 1 0 0 2 0 0 1 0 0 3 0 0 4 0 0 2 0 0 
0 0 0 1 0 0 5 0 0 5 0 0 2 0 0 4 0 0 2 0 0 0 0 0 3 0 0 24 0 0 1478 0 0 2871 0 0 2914 0 0 2957 0 0 2891 0 0 2896 0 0 2905 0 0 2806 0 0 2858 0 0 2826 0 0 2878 0 0 2865 0 0 2867 0 0 2881 0 0 2914 0 0 2918 0 0 2889 0 0 2950 0 0 2907 0 0 2961 0 0 2831 0 0 2923 0 0 2818 0 0 2864 0 0 2861 0 0 2891 0 0 2924 0 0 2888 0 0 2935 0 0 2904 0 0 2940 0 0 2868 0 0 2866 0 0 3004 0 0 2941 0 0 2826 0 0 2837 0 0 2898 0 0 2918 0 0 2860 0 0 1488 0 0 25 0 0 3 0 0 5 0 0 4 0 0 2 0 0 1 0 0 4 0 0 0 0 0 2 0 0 
0 0 0 2 0 0 0 0 0 0 0 0 3 0 0 0 0 0 4 0 0 2 0 0 7 0 0 24 0 0 1451 0 0 2853 0 0 2843 0 0 2875 0 0 2898 0 0 2891 0 0 2842 0 0 2971 0 0 2869 0 0 2808 0 0 2963 0 0 2915 0 0 2962 0 0 2917 0 0 2894 0 0 2786 0 0 2889 0 0 2925 0 0 2898 0 0 2887 0 0 2827 0 0 2936 0 0 2838 0 0 2865 0 0 2947 0 0 2827 0 0 2964 0 0 2899 0 0 2859 0 0 2874 0 0 2921 0 0 2830 0 0 2900 0 0 2915 0 0 2889 0 0 2879 0 0 2741 0 0 2877 0 0 2957 0 0 2821 0 0 1516 0 0 32 0 0 7 0 0 6 0 0 3 0 0 0 0 0 1 0 0 1 0 0 1 0 0 0 0 0 
0 0 0 0 0 0 0 0 0 3 0 0 1 0 0 1 0 0 4 0 0 2 0 0 3 0 0 25 0 0 1454 0 0 2853 0 0 2957 0 0 2979 0 0 2967 0 0 2847 0 0 2895 0 0 2963 0 0 2888 0 0 2870 0 0 2944 0 0 2868 0 0 2809 0 0 2933 0 0 2917 0 0 2921 0 0 2816 0 0 2945 0 0 2850 0 0 2836 0 0 2938 0 0 2903 0 0 2816 0 0 2936 0 0 2931 0 0 2827 0 0 2902 0 0 2903 0 0 2867 0 0 2865 0 0 2891 0 0 2918 0 0 2925 0 0 2968 0 0 2972 0 0 2912 0 0 2978 0 0 2888 0 0 2888 0 0 2951 0 0 1465 0 0 25 0 0 6 0 0 3 0 0 1 0 0 5 0 0 0 0 0 1 0 0 1 0 0 3 0 0 
1 0 0 3 0 0 4 0 0 2 0 0 0 0 0 0 0 0 2 0 0 3 0 0 5 0 0 26 0 0 1467 0 0 2812 0 0 2932 0 0 2960 0 0 2788 0 0 2884 0 0 2857 0 0 2948 0 0 2905 0 0 2933 0 0 2870 0 0 2866 0 0 2840 0 0 2905 0 0 2921 0 0 2918 0 0 2943 0 0 2997 0 0 2874 0 0 2924 0 0 2932 0 0 2851 0 0 2916 0 0 2891 0 0 2885 0 0 3047 0 0 2908 0 0 2940 0 0 2801 0 0 2941 0 0 2887 0 0 2906 0 0 2904 0 0 2944 0 0 2868 0 0 2881 0 0 2791 0 0 2870 0 0 2874 0 0 2859 0 0 1422 0 0 22 0 0 5 0 0 2 0 0 3 0 0 2 0 0 6 0 0 4 0 0 3 0 0 1 0 0 
1 0 0 2 0 0 1 0 0 0 0 0 0 0 0 0 0 0 0 0 0 2 0 0 6 0 0 23 0 0 1437 0 0 2881 0 0 2965 0 0 2871 0 0 2909 0 0 2884 0 0 2982 0 0 2885 0 0 2857 0 0 2987 0 0 2883 0 0 2944 0 0 2864 0 0 2938 0 0 2984 0 0 2860 0 0 2824 0 0 2911 0 0 2802 0 0 2943 0 0 2937 0 0 2913 0 0 2894 0 0 2911 0 0 2908 0 0 2966 0 0 2957 0 0 2926 0 0 2923 0 0 2894 0 0 2871 0 0 2959 0 0 2848 0 0 2887 0 0 2931 0 0 2966 0 0 2896 0 0 2885 0 0 2934 0 0 2893 0 0 1441 0 0 26 0 0 1 0 0 5 0 0 3 0 0 4 0 0 2 0 0 2 0 0 0 0 0 1 0 0 
1 0 0 2 0 0 4 0 0 3 0 0 1 0 0 1 0 0 0 0 0 4 0 0 5 0 0 30 0 0 1508 0 0 2833 0 0 2971 0 0 2888 0 0 2849 0 0 2935 0 0 2874 0 0 2764 0 0 2947 0 0 2949 0 0 2917 0 0 2917 0 0 2904 0 0 2883 0 0 2905 0 0 2938 0 0 2912 0 0 2987 0 0 2913 0 0 2872 0 0 2948 0 0 2906 0 0 2924 0 0 2885 0 0 2866 0 0 2949 0 0 2887 0 0 2873 0 0 2908 0 0 2838 0 0 2962 0 0 2839 0 0 2879 0 0 2913 0 0 2959 0 0 3020 0 0 2868 0 0 2954 0 0 2999 0 0 2837 0 0 1482 0 0 28 0 0 6 0 0 3 0 0 4 0 0 1 0 0 2 0 0 0 0 0 1 0 0 5 0 0 
2 0 0 0 0 0 3 0 0 3 0 0 5 0 0 6 0 0 2 0 0 4 0 0 8 0 0 29 0 0 1431 0 0 2883 0 0 2924 0 0 2906 0 0 2949 0 0 2940 0 0 2914 0 0 2860 0 0 2980 0 0 2812 0 0 2948 0 0 2950 0 0 2937 0 0 2907 0 0 2955 0 0 3041 0 0 2916 0 0 2955 0 0 2931 0 0 2852 0 0 2987 0 0 2836 0 0 2832 0 0 2888 0 0 2916 0 0 2887 0 0 2972 0 0 2892 0 0 2943 0 0 2918 0 0 2957 0 0 2948 0 0 2855 0 0 2931 0 0 2925 0 0 2873 0 0 2910 0 0 2870 0 0 2814 0 0 2864 0 0 1393 0 0 22 0 0 9 0 0 3 0 0 3 0 0 5 0 0 3 0 0 3 0 0 3 0 0 1 0 0 
0 0 0 0 0 0 3 0 0 2 0 0 1 0 0 3 0 0 7 0 0 4 0 0 2 0 0 25 0 0 1386 0 0 2825 0 0 2895 0 0 2895 0 0 2927 0 0 2945 0 0 2866 0 0 2877 0 0 2991 0 0 2983 0 0 2931 0 0 2973 0 0 2853 0 0 2981 0 0 2901 0 0 2926 0 0 2963 0 0 2893 0 0 2943 0 0 2806 0 0 2858 0 0 2930 0 0 2932 0 0 2916 0 0 2957 0 0 2993 0 0 2861 0 0 2942 0 0 2916 0 0 2851 0 0 2890 0 0 2949 0 0 2917 0 0 2875 0 0 2886 0 0 2831 0 0 2952 0 0 2920 0 0 2942 0 0 2984 0 0 1469 0 0 26 0 0 3 0 0 3 0 0 3 0 0 2 0 0 2 0 0 3 0 0 1 0 0 1 0 0 
0 0 0 0 0 0 0 0 0 1 0 0 0 0 0 0 0 0 0 0 0 5 0 0 1 0 0 30 0 0 1502 0 0 2823 0 0 2856 0 0 2862 0 0 2827 0 0 2802 0 0 2909 0 0 2893 0 0 2905 0 0 2792 0 0 2877 0 0 2923 0 0 2886 0 0 2841 0 0 2826 0 0 2971 0 0 2928 0 0 2807 0 0 2901 0 0 2967 0 0 2915 0 0 2858 0 0 2857 0 0 2815 0 0 2916 0 0 2819 0 0 2927 0 0 2780 0 0 2874 0 0 2867 0 0 3017 0 0 2956 0 0 2976 0 0 2937 0 0 2908 0 0 2911 0 0 2817 0 0 2929 0 0 2895 0 0 2832 0 0 1378 0 0 24 0 0 4 0 0 2 0 0 3 0 0 1 0 0 1 0 0 2 0 0 3 0 0 0 0 0 
0 0 0 0 0 0 0 0 0 2 0 0 2 0 0 5 0 0 4 0 0 3 0 0 7 0 0 31 0 0 1461 0 0 2859 0 0 2901 0 0 2871 0 0 2923 0 0 2937 0 0 2965 0 0 2858 0 0 2920 0 0 2836 0 0 2908 0 0 2925 0 0 2870 0 0 2943 0 0 2847 0 0 2924 0 0 2861 0 0 2898 0 0 2988 0 0 2877 0 0 2887 0 0 2982 0 0 2943 0 0 2944 0 0 3002 0 0 2899 0 0 2901 0 0 2936 0 0 2921 0 0 2896 0 0 2929 0 0 2909 0 0 2922 0 0 2961 0 0 2921 0 0 2854 0 0 2888 0 0 2843 0 0 2862 0 0 2880 0 0 1498 0 0 16 0 0 4 0 0 3 0 0 4 0 0 2 0 0 2 0 0 2 0 0 2 0 0 2 0 0 
0 0 0 2 0 0 2 0 0 1 0 0 3 0 0 1 0 0 1 0 0 1 0 0 2 0 0 18 0 0 1424 0 0 2893 0 0 2882 0 0 2843 0 0 2878 0 0 2942 0 0 2948 0 0 2871 0 0 2878 0 0 2850 0 0 2870 0 0 2914 0 0 2860 0 0 2861 0 0 2891 0 0 2895 0 0 2866 0 0 2852 0 0 2930 0 0 2948 0 0 2861 0 0 2837 0 0 2891 0 0 2892 0 0 2838 0 0 2858 0 0 2922 0 0 2885 0 0 2917 0 0 2870 0 0 2931 0 0 2830 0 0 2890 0 0 2774 0 0 2952 0 0 2929 0 0 2825 0 0 3031 0 0 2927 0 0 2842 0 0 1466 0 0 27 0 0 8 0 0 6 0 0 5 0 0 4 0 0 1 0 0 4 0 0 2 0 0 0 0 0 
0 0 0 0 0 0 4 0 0 2 0 0 1 0 0 3 0 0 6 0 0 2 0 0 4 0 0 21 0 0 1434 0 0 2824 0 0 2962 0 0 2949 0 0 2804 0 0 2900 0 0 2978 0 0 2853 0 0 2888 0 0 2936 0 0 2964 0 0 2991 0 0 2911 0 0 2993 0 0 2907 0 0 2957 0 0 2945 0 0 2999 0 0 2968 0 0 2972 0 0 2849 0 0 2908 0 0 3001 0 0 2878 0 0 2957 0 0 2906 0 0 2903 0 0 2991 0 0 2821 0 0 2939 0 0 2907 0 0 2902 0 0 2903 0 0 2864 0 0 2894 0 0 2862 0 0 2823 0 0 2975 0 0 2926 0 0 2833 0 0 1522 0 0 29 0 0 4 0 0 4 0 0 7 0 0 3 0 0 2 0 0 2 0 0 1 0 0 1 0 0 
0 0 0 0 0 0 2 0 0 3 0 0 3 0 0 5 0 0 2 0 0 2 0 0 4 0 0 32 0 0 1451 0 0 2833 0 0 2875 0 0 2851 0 0 2914 0 0 2943 0 0 2919 0 0 2987 0 0 2853 0 0 2874 0 0 2931 0 0 2916 0 0 2881 0 0 2962 0 0 2918 0 0 2894 0 0 2908 0 0 2870 0 0 2874 0 0 2941 0 0 2921 0 0 2914 0 0 2946 0 0 2988 0 0 2911 0 0 2831 0 0 2817 0 0 2862 0 0 2905 0 0 2857 0 0 2885 0 0 2879 0 0 2875 0 0 2914 0 0 2834 0 0 2837 0 0 2840 0 0 2874 0 0 2920 0 0 2830 0 0 1421 0 0 30 0 0 7 0 0 7 0 0 1 0 0 2 0 0 3 0 0 0 0 0 0 0 0 1 0 0 
0 0 0 1 0 0 3 0 0 0 0 0 0 0 0 0 0 0 2 0 0 4 0 0 9 0 0 23 0 0 1512 0 0 2920 0 0 2906 0 0 2861 0 0 2979 0 0 2904 0 0 2931 0 0 2932 0 0 2865 0 0 2891 0 0 2886 0 0 2855 0 0 2891 0 0 2860 0 0 2936 0 0 2921 0 0 2858 0 0 2862 0 0 2902 0 0 2869 0 0 2823 0 0 3013 0 0 2943 0 0 2920 0 0 2931 0 0 2945 0 0 2916 0 0 2964 0 0 2900 0 0 2851 0 0 2956 0 0 2904 0 0 2867 0 0 2995 0 0 2954 0 0 2881 0 0 2877 0 0 2991 0 0 2913 0 0 2969 0 0 1484 0 0 28 0 0 6 0 0 8 0 0 3 0 0 1 0 0 3 0 0 0 0 0 0 0 0 0 0 0 
0 0 0 6 0 0 3 0 0 2 0 0 2 0 0 2 0 0 1 0 0 1 0 0 3 0 0 26 0 0 1428 0 0 2812 0 0 2880 0 0 2844 0 0 2974 0 0 2947 0 0 2884 0 0 2932 0 0 2880 0 0 2969 0 0 2825 0 0 2873 0 0 2930 0 0 2926 0 0 2964 0 0 2859 0 0 2832 0 0 2871 0 0 2962 0 0 2841 0 0 2890 0 0 2935 0 0 2861 0 0 2898 0 0 2807 0 0 2899 0 0 2847 0 0 2932 0 0 2916 0 0 2943 0 0 2905 0 0 2909 0 0 2844 0 0 2893 0 0 2951 0 0 2885 0 0 2882 0 0 2887 0 0 3005 0 0 2912 0 0 1465 0 0 30 0 0 5 0 0 5 0 0 7 0 0 4 0 0 1 0 0 0 0 0 0 0 0 1 0 0 
0 0 0 1 0 0 0 0 0 0 0 0 0 0 0 2 0 0 1 0 0 3 0 0 3 0 0 17 0 0 1438 0 0 2896 0 0 2980 0 0 2842 0 0 2877 0 0 2941 0 0 2892 0 0 2911 0 0 2967 0 0 2863 0 0 2902 0 0 2918 0 0 2999 0 0 2920 0 0 2915 0 0 2918 0 0 2948 0 0 2908 0 0 2866 0 0 2914 0 0 2894 0 0 2887 0 0 2929 0 0 2942 0 0 2839 0 0 2947 0 0 2973 0 0 2868 0 0 2859 0 0 2970 0 0 2872 0 0 2875 0 0 2935 0 0 2930 0 0 2931 0 0 2904 0 0 2943 0 0 2898 0 0 2952 0 0 2898 0 0 1449 0 0 21 0 0 3 0 0 0 0 0 3 0 0 2 0 0 1 0 0 0 0 0 3 0 0 0 0 0 
0 0 0 1 0 0 2 0 0 0 0 0 1 0 0 4 0 0 3 0 0 3 0 0 6 0 0 29 0 0 1495 0 0 2856 0 0 2840 0 0 2941 0 0 2915 0 0 2850 0 0 2940 0 0 2854 0 0 2863 0 0 2852 0 0 2933 0 0 2966 0 0 2908 0 0 3041 0 0 2842 0 0 2931 0 0 2869 0 0 2919 0 0 2837 0 0 2935 0 0 2800 0 0 2858 0 0 2900 0 0 2949 0 0 2924 0 0 2884 0 0 2845 0 0 2886 0 0 2839 0 0 2905 0 0 2847 0 0 2981 0 0 2949 0 0 2898 0 0 2888 0 0 2981 0 0 2925 0 0 2825 0 0 2931 0 0 2938 0 0 1512 0 0 17 0 0 1 0 0 1 0 0 3 0 0 0 0 0 0 0 0 0 0 0 2 0 0 3 0 0 
0 0 0 1 0 0 1 0 0 2 0 0 2 0 0 1 0 0 3 0 0 3 0 0 5 0 0 16 0 0 1436 0 0 2887 0 0 2862 0 0 2902 0 0 2962 0 0 2863 0 0 2858 0 0 2918 0 0 2963 0 0 2933 0 0 2878 0 0 2888 0 0 2945 0 0 2935 0 0 2828 0 0 2853 0 0 2827 0 0 2909 0 0 2874 0 0 2910 0 0 2918 0 0 2907 0 0 2897 0 0 2969 0 0 2903 0 0 2898 0 0 2914 0 0 2972 0 0 2802 0 0 2923 0 0 2882 0 0 2851 0 0 2942 0 0 2977 0 0 2905 0 0 2829 0 0 2973 0 0 2869 0 0 2808 0 0 2921 0 0 1453 0 0 24 0 0 12 0 0 6 0 0 2 0 0 4 0 0 2 0 0 3 0 0 3 0 0 0 0 0 
1 0 0 2 0 0 0 0 0 2 0 0 3 0 0 3 0 0 1 0 0 4 0 0 6 0 0 26 0 0 1454 0 0 2882 0 0 2849 0 0 2841 0 0 2861 0 0 2913 0 0 2929 0 0 2975 0 0 2913 0 0 2938 0 0 2944 0 0 2827 0 0 2870 0 0 2898 0 0 2856 0 0 2935 0 0 2828 0 0 2857 0 0 2875 0 0 2983 0 0 3024 0 0 3080 0 0 2963 0 0 2902 0 0 2973 0 0 2810 0 0 2873 0 0 2962 0 0 2855 0 0 2921 0 0 2901 0 0 2858 0 0 2977 0 0 2905 0 0 2994 0 0 2898 0 0 2886 0 0 2997 0 0 2917 0 0 2872 0 0 1415 0 0 33 0 0 6 0 0 7 0 0 1 0 0 0 0 0 1 0 0 4 0 0 3 0 0 3 0 0 
0 0 0 1 0 0 1 0 0 1 0 0 3 0 0 3 0 0 4 0 0 5 0 0 4 0 0 32 0 0 1462 0 0 2912 0 0 2918 0 0 2842 0 0 2854 0 0 2982 0 0 2929 0 0 2906 0 0 2991 0 0 2837 0 0 2902 0 0 2856 0 0 2851 0 0 2936 0 0 2891 0 0 2845 0 0 2904 0 0 2959 0 0 2885 0 0 2898 0 0 2945 0 0 2868 0 0 2898 0 0 2890 0 0 2929 0 0 2929 0 0 2963 0 0 2955 0 0 2887 0 0 2943 0 0 2858 0 0 2845 0 0 2913 0 0 2998 0 0 2866 0 0 2953 0 0 2835 0 0 2933 0 0 2930 0 0 2949 0 0 1486 0 0 33 0 0 5 0 0 8 0 0 6 0 0 2 0 0 1 0 0 0 0 0 3 0 0 2 0 0 
0 0 0 1 0 0 3 0 0 3 0 0 1 0 0 5 0 0 3 0 0 4 0 0 6 0 0 29 0 0 1510 0 0 2761 0 0 2854 0 0 2932 0 0 2911 0 0 2885 0 0 2901 0 0 2900 0 0 2970 0 0 2934 0 0 2915 0 0 2898 0 0 2905 0 0 2917 0 0 2926 0 0 2862 0 0 2845 0 0 2877 0 0 2935 0 0 2861 0 0 2856 0 0 2896 0 0 2882 0 0 2956 0 0 2843 0 0 2904 0 0 2835 0 0 2920 0 0 2857 0 0 3003 0 0 2916 0 0 2906 0 0 2890 0 0 2897 0 0 2974 0 0 2901 0 0 2933 0 0 2899 0 0 2864 0 0 2882 0 0 1469 0 0 42 0 0 10 0 0 9 0 0 4 0 0 6 0 0 3 0 0 3 0 0 3 0 0 1 0 0 
0 0 0 0 0 0 0 0 0 0 0 0 3 0 0 1 0 0 1 0 0 4 0 0 7 0 0 26 0 0 1453 0 0 2842 0 0 2940 0 0 2981 0 0 2910 0 0 2962 0 0 2940 0 0 2992 0 0 2892 0 0 2927 0 0 2909 0 0 2964 0 0 3027 0 0 2905 0 0 2802 0 0 2894 0 0 2796 0 0 3007 0 0 2861 0 0 2886 0 0 2841 0 0 2865 0 0 2923 0 0 2889 0 0 2925 0 0 2917 0 0 2963 0 0 2894 0 0 2824 0 0 2930 0 0 2943 0 0 2910 0 0 2926 0 0 2891 0 0 2839 0 0 2850 0 0 2810 0 0 2841 0 0 2883 0 0 2890 0 0 1440 0 0 24 0 0 11 0 0 7 0 0 1 0 0 1 0 0 4 0 0 2 0 0 1 0 0 2 0 0 
0 0 0 0 0 0 0 0 0 1 0 0 2 0 0 0 0 0 6 0 0 4 0 0 10 0 0 36 0 0 1465 0 0 2904 0 0 2840 0 0 2895 0 0 2923 0 0 2923 0 0 2891 0 0 2948 0 0 2844 0 0 2922 0 0 2867 0 0 2929 0 0 2870 0 0 2922 0 0 2819 0 0 2904 0 0 2937 0 0 2923 0 0 2920 0 0 2886 0 0 2940 0 0 2984 0 0 2988 0 0 2931 0 0 2984 0 0 2927 0 0 2911 0 0 2968 0 0 2988 0 0 2956 0 0 3032 0 0 2884 0 0 2925 0 0 2958 0 0 2943 0 0 2892 0 0 2997 0 0 2890 0 0 2860 0 0 2923 0 0 1466 0 0 28 0 0 4 0 0 5 0 0 9 0 0 4 0 0 1 0 0 3 0 0 2 0 0 1 0 0 
1 0 0 2 0 0 0 0 0 2 0 0 1 0 0 3 0 0 1 0 0 2 0 0 2 0 0 33 0 0 1452 0 0 2942 0 0 2897 0 0 2932 0 0 2935 0 0 2963 0 0 2916 0 0 2870 0 0 2931 0 0 2971 0 0 2949 0 0 2973 0 0 2977 0 0 2888 0 0 2983 0 0 2888 0 0 2922 0 0 2847 0 0 2901 0 0 2905 0 0 2958 0 0 3008 0 0 2927 0 0 2918 0 0 2946 0 0 2953 0 0 2905 0 0 2859 0 0 2867 0 0 2940 0 0 2861 0 0 2827 0 0 2959 0 0 2856 0 0 2919 0 0 2866 0 0 2888 0 0 2829 0 0 2850 0 0 2883 0 0 1423 0 0 30 0 0 6 0 0 3 0 0 5 0 0 5 0 0 4 0 0 4 0 0 6 0 0 3 0 0 
0 0 0 1 0 0 0 0 0 4 0 0 2 0 0 1 0 0 1 0 0 1 0 0 4 0 0 24 0 0 1508 0 0 2840 0 0 2902 0 0 2930 0 0 2909 0 0 2879 0 0 2929 0 0 2872 0 0 2959 0 0 2808 0 0 2872 0 0 2906 0 0 2920 0 0 2876 0 0 2974 0 0 2952 0 0 2904 0 0 2980 0 0 2933 0 0 2963 0 0 2902 0 0 2836 0 0 2911 0 0 2923 0 0 2875 0 0 2881 0 0 2916 0 0 2990 0 0 2903 0 0 2992 0 0 2808 0 0 3007 0 0 2944 0 0 2923 0 0 2982 0 0 2862 0 0 2915 0 0 2925 0 0 2867 0 0 2751 0 0 1402 0 0 23 0 0 2 0 0 8 0 0 3 0 0 5 0 0 4 0 0 1 0 0 4 0 0 3 0 0 
0 0 0 0 0 0 4 0 0 2 0 0 1 0 0 1 0 0 2 0 0 3 0 0 1 0 0 18 0 0 1478 0 0 2920 0 0 2904 0 0 2872 0 0 2922 0 0 2881 0 0 2972 0 0 2913 0 0 2981 0 0 2931 0 0 2970 0 0 2904 0 0 2877 0 0 2898 0 0 2919 0 0 2866 0 0 2957 0 0 2959 0 0 2913 0 0 2858 0 0 2893 0 0 2911 0 0 2860 0 0 2801 0 0 2973 0 0 2881 0 0 2935 0 0 2991 0 0 2872 0 0 2862 0 0 2977 0 0 2880 0 0 2864 0 0 2824 0 0 2916 0 0 2997 0 0 2722 0 0 2860 0 0 2945 0 0 2983 0 0 1500 0 0 26 0 0 6 0 0 3 0 0 2 0 0 3 0 0 4 0 0 2 0 0 2 0 0 0 0 0 
0 0 0 1 0 0 3 0 0 6 0 0 1 0 0 0 0 0 1 0 0 2 0 0 3 0 0 24 0 0 1481 0 0 2946 0 0 2825 0 0 2894 0 0 2844 0 0 2872 0 0 2943 0 0 2903 0 0 2893 0 0 2875 0 0 2866 0 0 2963 0 0 2920 0 0 2880 0 0 2858 0 0 2953 0 0 2826 0 0 2882 0 0 2891 0 0 2859 0 0 2830 0 0 2919 0 0 2882 0 0 2878 0 0 2878 0 0 2882 0 0 2895 0 0 2895 0 0 2916 0 0 2930 0 0 2917 0 0 2909 0 0 2909 0 0 2944 0 0 2905 0 0 2899 0 0 2878 0 0 3010 0 0 2827 0 0 2924 0 0 1477 0 0 16 0 0 3 0 0 1 0 0 2 0 0 4 0 0 3 0 0 3 0 0 4 0 0 2 0 0 
1 0 0 0 0 0 1 0 0 0 0 0 2 0 0 3 0 0 3 0 0 2 0 0 2 0 0 21 0 0 1467 0 0 2831 0 0 2923 0 0 2958 0 0 2852 0 0 2897 0 0 2890 0 0 2902 0 0 2892 0 0 2834 0 0 2939 0 0 2803 0 0 2942 0 0 2899 0 0 2721 0 0 2827 0 0 2908 0 0 2871 0 0 2875 0 0 2980 0 0 2986 0 0 2914 0 0 2898 0 0 2858 0 0 2845 0 0 2893 0 0 2892 0 0 2911 0 0 2827 0 0 2957 0 0 3014 0 0 2902 0 0 2894 0 0 2891 0 0 2944 0 0 2903 0 0 2955 0 0 2946 0 0 2895 0 0 2810 0 0 1472 0 0 27 0 0 3 0 0 4 0 0 3 0 0 2 0 0 2 0 0 3 0 0 1 0 0 0 0 0 
1 0 0 2 0 0 0 0 0 1 0 0 4 0 0 3 0 0 2 0 0 1 0 0 3 0 0 24 0 0 1470 0 0 2961 0 0 2925 0 0 2848 0 0 2925 0 0 2899 0 0 2839 0 0 2867 0 0 2880 0 0 2885 0 0 2854 0 0 2850 0 0 2964 0 0 2871 0 0 2850 0 0 2938 0 0 2951 0 0 2939 0 0 2918 0 0 2849 0 0 2882 0 0 2943 0 0 2964 0 0 2905 0 0 2956 0 0 2936 0 0 2915 0 0 2980 0 0 2913 0 0 2966 0 0 2854 0 0 2981 0 0 2814 0 0 2880 0 0 2949 0 0 2910 0 0 2955 0 0 2874 0 0 2853 0 0 2831 0 0 1458 0 0 24 0 0 8 0 0 1 0 0 1 0 0 0 0 0 3 0 0 2 0 0 5 0 0 2 0 0 
0 0 0 0 0 0 2 0 0 2 0 0 0 0 0 2 0 0 0 0 0 5 0 0 6 0 0 25 0 0 1505 0 0 2858 0 0 2871 0 0 2868 0 0 2954 0 0 2799 0 0 2929 0 0 2864 0 0 2972 0 0 2887 0 0 2860 0 0 2954 0 0 2923 0 0 2920 0 0 2877 0 0 2844 0 0 2910 0 0 2882 0 0 2910 0 0 2887 0 0 2949 0 0 2886 0 0 2961 0 0 2832 0 0 2907 0 0 2913 0 0 3023 0 0 2931 0 0 2966 0 0 2764 0 0 2906 0 0 2870 0 0 2879 0 0 2928 0 0 2897 0 0 2910 0 0 2897 0 0 2876 0 0 2920 0 0 2900 0 0 1460 0 0 25 0 0 1 0 0 2 0 0 3 0 0 2 0 0 0 0 0 0 0 0 3 0 0 0 0 0 
1 0 0 2 0 0 1 0 0 0 0 0 1 0 0 2 0 0 1 0 0 2 0 0 2 0 0 15 0 0 1500 0 0 2841 0 0 2926 0 0 2743 0 0 2799 0 0 2908 0 0 2965 0 0 2895 0 0 2911 0 0 2918 0 0 2857 0 0 2992 0 0 2816 0 0 2928 0 0 2980 0 0 2891 0 0 2943 0 0 2949 0 0 2907 0 0 2858 0 0 2885 0 0 2863 0 0 2935 0 0 2987 0 0 2903 0 0 2822 0 0 3032 0 0 2938 0 0 2922 0 0 2931 0 0 2888 0 0 2890 0 0 2937 0 0 2958 0 0 2871 0 0 2948 0 0 2864 0 0 2898 0 0 2845 0 0 2871 0 0 1422 0 0 21 0 0 1 0 0 1 0 0 2 0 0 0 0 0 0 0 0 0 0 0 0 0 0 2 0 0 
1 0 0 2 0 0 2 0 0 1 0 0 1 0 0 0 0 0 1 0 0 0 0 0 4 0 0 21 0 0 1387 0 0 2863 0 0 2909 0 0 2859 0 0 2847 0 0 2945 0 0 2849 0 0 2930 0 0 2870 0 0 2907 0 0 2817 0 0 2864 0 0 2875 0 0 2918 0 0 2878 0 0 2861 0 0 2968 0 0 2928 0 0 2797 0 0 2880 0 0 2919 0 0 2885 0 0 2946 0 0 2866 0 0 2944 0 0 2905 0 0 2861 0 0 2869 0 0 2859 0 0 2860 0 0 2908 0 0 2906 0 0 2832 0 0 3000 0 0 2786 0 0 2884 0 0 2833 0 0 2897 0 0 2919 0 0 2869 0 0 1422 0 0 23 0 0 4 0 0 3 0 0 0 0 0 0 0 0 0 0 0 0 0 0 1 0 0 1 0 0 
0 0 0 2 0 0 0 0 0 2 0 0 0 0 0 0 0 0 1 0 0 3 0 0 2 0 0 12 0 0 730 0 0 1392 0 0 1465 0 0 1497 0 0 1464 0 0 1461 0 0 1399 0 0 1507 0 0 1418 0 0 1406 0 0 1347 0 0 1431 0 0 1452 0 0 1412 0 0 1460 0 0 1497 0 0 1518 0 0 1481 0 0 1439 0 0 1488 0 0 1475 0 0 1445 0 0 1462 0 0 1467 0 0 1374 0 0 1488 0 0 1439 0 0 1455 0 0 1470 0 0 1428 0 0 1439 0 0 1465 0 0 1435 0 0 1468 0 0 1417 0 0 1518 0 0 1512 0 0 1460 0 0 1484 0 0 1428 0 0 693 0 0 15 0 0 2 0 0 0 0 0 0 0 0 0 0 0 0 0 0 0 0 0 0 0 0 1 0 0 
0 0 0 2 0 0 0 0 0 2 0 0 0 0 0 2 0 0 4 0 0 5 0 0 6 0 0 8 0 0 16 0 0 21 0 0 18 0 0 21 0 0 17 0 0 20 0 0 18 0 0 24 0 0 27 0 0 22 0 0 24 0 0 26 0 0 23 0 0 24 0 0 25 0 0 33 0 0 29 0 0 24 0 0 23 0 0 33 0 0 23 0 0 25 0 0 26 0 0 15 0 0 25 0 0 22 0 0 35 0 0 29 0 0 18 0 0 28 0 0 25 0 0 24 0 0 28 0 0 18 0 0 27 0 0 22 0 0 31 0 0 20 0 0 28 0 0 22 0 0 13 0 0 2 0 0 3 0 0 3 0 0 1 0 0 1 0 0 1 0 0 0 0 0 0 0 0 0 0 0 
0 0 0 0 0 0 2 0 0 3 0 0 0 0 0 1 0 0 0 0 0 2 0 0 4 0 0 3 0 0 4 0 0 1 0 0 4 0 0 2 0 0 1 0 0 6 0 0 3 0 0 2 0 0 0 0 0 8 0 0 5 0 0 7 0 0 8 0 0 4 0 0 4 0 0 9 0 0 1 0 0 4 0 0 3 0 0 5 0 0 6 0 0 4 0 0 4 0 0 2 0 0 2 0 0 6 0 0 3 0 0 4 0 0 5 0 0 5 0 0 2 0 0 0 0 0 6 0 0 6 0 0 3 0 0 2 0 0 4 0 0 0 0 0 4 0 0 3 0 0 3 0 0 4 0 0 1 0 0 2 0 0 4 0 0 1 0 0 0 0 0 1 0 0 0 0 0 0 0 0 
0 0 0 1 0 0 0 0 0 0 0 0 1 0 0 4 0 0 2 0 0 0 0 0 3 0 0 0 0 0 2 0 0 0 0 0 0 0 0 2 0 0 1 0 0 2 0 0 3 0 0 5 0 0 3 0 0 2 0 0 1 0 0 5 0 0 2 0 0 4 0 0 6 0 0 4 0 0 1 0 0 1 0 0 2 0 0 4 0 0 3 0 0 2 0 0 0 0 0 2 0 0 5 0 0 2 0 0 3 0 0 2 0 0 5 0 0 2 0 0 2 0 0 0 0 0 2 0 0 3 0 0 5 0 0 2 0 0 4 0 0 4 0 0 2 0 0 0 0 0 2 0 0 4 0 0 2 0 0 1 0 0 1 0 0 2 0 0 0 0 0 0 0 0 2 0 0 1 0 0 
0 0 0 0 0 0 1 0 0 2 0 0 0 0 0 0 0 0 0 0 0 4 0 0 1 0 0 2 0 0 2 0 0 0 0 0 0 0 0 2 0 0 0 0 0 1 0 0 2 0 0 3 0 0 4 0 0 1 0 0 1 0 0 4 0 0 4 0 0 2 0 0 3 0 0 2 0 0 5 0 0 6 0 0 2 0 0 2 0 0 5 0 0 4 0 0 0 0 0 3 0 0 2 0 0 5 0 0 6 0 0 4 0 0 7 0 0 2 0 0 0 0 0 2 0 0 2 0 0 3 0 0 5 0 0 1 0 0 0 0 0 2 0 0 2 0 0 0 0 0 0 0 0 1 0 0 1 0 0 2 0 0 0 0 0 2 0 0 2 0 0 1 0 0 2 0 0 1 0 0 
0 0 0 0 0 0 2 0 0 0 0 0 0 0 0 0 0 0 0 0 0 0 0 0 1 0 0 2 0 0 0 0 0 0 0 0 0 0 0 2 0 0 3 0 0 3 0 0 1 0 0 0 0 0 2 0 0 1 0 0 2 0 0 3 0 0 1 0 0 2 0 0 5 0 0 1 0 0 1 0 0 1 0 0 4 0 0 4 0 0 2 0 0 3 0 0 0 0 0 0 0 0 2 0 0 1 0 0 5 0 0 2 0 0 2 0 0 1 0 0 0 0 0 3 0 0 1 0 0 1 0 0 1 0 0 1 0 0 0 0 0 0 0 0 0 0 0 2 0 0 0 0 0 1 0 0 1 0 0 2 0 0 0 0 0 1 0 0 3 0 0 1 0 0 0 0 0 0 0 0 
0 0 0 0 0 0 0 0 0 0 0 0 0 0 0 0 0 0 1 0 0 2 0 0 0 0 0 0 0 0 0 0 0 0 0 0 1 0 0 1 0 0 1 0 0 1 0 0 1 0 0 0 0 0 2 0 0 0 0 0 0 0 0 0 0 0 2 0 0 0 0 0 3 0 0 0 0 0 2 0 0 0 0 0 3 0 0 3 0 0 0 0 0 0 0 0 0 0 0 2 0 0 4 0 0 0 0 0 1 0 0 2 0 0 3 0 0 2 0 0 2 0 0 0 0 0 1 0 0 1 0 0 2 0 0 3 0 0 0 0 0 0 0 0 2 0 0 2 0 0 0 0 0 0 0 0 0 0 0 0 0 0 0 0 0 1 0 0 1 0 0 0 0 0 0 0 0 0 0 0 
0 0 0 0 0 0 0 0 0 0 0 0 0 0 0 0 0 0 3 0 0 0 0 0 1 0 0 0 0 0 0 0 0 0 0 0 0 0 0 0 0 0 2 0 0 3 0 0 1 0 0 1 0 0 1 0 0 0 0 0 0 0 0 2 0 0 1 0 0 2 0 0 1 0 0 3 0 0 3 0 0 0 0 0 3 0 0 2 0 0 3 0 0 0 0 0 0 0 0 0 0 0 3 0 0 1 0 0 2 0 0 2 0 0 2 0 0 1 0 0 1 0 0 2 0 0 1 0 0 0 0 0 0 0 0 2 0 0 3 0 0 1 0 0 0 0 0 2 0 0 1 0 0 0 0 0 1 0 0 0 0 0 1 0 0 0 0 0 0 0 0 0 0 0 0 0 0 0 0 0 
0 0 0 0 0 0 0 0 0 0 0 0 0 0 0 3 0 0 2 0 0 0 0 0 0 0 0 0 0 0 2 0 0 1 0 0 1 0 0 0 0 0 2 0 0 3 0 0 0 0 0 0 0 0 1 0 0 0 0 0 0 0 0 0 0 0 2 0 0 1 0 0 0 0 0 3 0 0 0 0 0 3 0 0 3 0 0 0 0 0 2 0 0 1 0 0 0 0 0 2 0 0 2 0 0 2 0 0 1 0 0 2 0 0 2 0 0 0 0 0 0 0 0 1 0 0 2 0 0 0 0 0 0 0 0 2 0 0 2 0 0 4 0 0 0 0 0 2 0 0 0 0 0 0 0 0 0 0 0 1 0 0 1 0 0 0 0 0 0 0 0 0 0 0 0 0 0 0 0 0 
0 0 0 0 0 0 0 0 0 0 0 0 1 0 0 0 0 0 0 0 0 0 0 0 2 0 0 0 0 0 0 0 0 0 0 0 0 0 0 1 0 0 3 0 0 2 0 0 0 0 0 2 0 0 0 0 0 1 0 0 2 0 0 0 0 0 3 0 0 3 0 0 0 0 0 1 0 0 1 0 0 0 0 0 3 0 0 0 0 0 2 0 0 0 0 0 0 0 0 4 0 0 4 0 0 0 0 0 1 0 0 0 0 0 2 0 0 1 0 0 0 0 0 2 0 0 1 0 0 0 0 0 0 0 0 1 0 0 1 0 0 2 0 0 0 0 0 0 0 0 0 0 0 0 0 0 0 0 0 0 0 0 0 0 0 0 0 0 0 0 0 0 0 0 0 0 0 0 0 0 
