P3
# This is a dose file slice at depth 38 of 100
60 60
# now we give the maximum value of the RGB coordinates.
21610
1 0 0 1 0 0 2 0 0 0 0 0 1 0 0 0 0 0 1 0 0 1 0 0 3 0 0 0 0 0 2 0 0 0 0 0 3 0 0 2 0 0 1 0 0 4 0 0 4 0 0 1 0 0 2 0 0 2 0 0 2 0 0 1 0 0 1 0 0 4 0 0 1 0 0 1 0 0 6 0 0 4 0 0 3 0 0 2 0 0 3 0 0 1 0 0 1 0 0 2 0 0 1 0 0 2 0 0 2 0 0 0 0 0 1 0 0 2 0 0 3 0 0 1 0 0 4 0 0 2 0 0 1 0 0 2 0 0 0 0 0 2 0 0 2 0 0 1 0 0 1 0 0 2 0 0 1 0 0 1 0 0 3 0 0 0 0 0 0 0 0 1 0 0 1 0 0 1 0 0 
0 0 0 2 0 0 4 0 0 3 0 0 2 0 0 3 0 0 1 0 0 3 0 0 5 0 0 0 0 0 4 0 0 1 0 0 3 0 0 3 0 0 1 0 0 6 0 0 6 0 0 2 0 0 6 0 0 3 0 0 8 0 0 4 0 0 3 0 0 6 0 0 3 0 0 6 0 0 12 0 0 7 0 0 5 0 0 7 0 0 5 0 0 4 0 0 2 0 0 3 0 0 4 0 0 5 0 0 6 0 0 4 0 0 5 0 0 5 0 0 6 0 0 7 0 0 8 0 0 3 0 0 2 0 0 5 0 0 4 0 0 5 0 0 1 0 0 5 0 0 3 0 0 8 0 0 2 0 0 5 0 0 3 0 0 5 0 0 3 0 0 3 0 0 5 0 0 3 0 0 
0 0 0 1 0 0 2 0 0 1 0 0 1 0 0 8 0 0 3 0 0 0 0 0 3 0 0 6 0 0 4 0 0 2 0 0 1 0 0 1 0 0 7 0 0 3 0 0 5 0 0 3 0 0 6 0 0 7 0 0 8 0 0 6 0 0 5 0 0 6 0 0 4 0 0 3 0 0 11 0 0 10 0 0 7 0 0 6 0 0 5 0 0 5 0 0 6 0 0 8 0 0 6 0 0 2 0 0 3 0 0 10 0 0 3 0 0 3 0 0 9 0 0 7 0 0 6 0 0 4 0 0 4 0 0 5 0 0 5 0 0 2 0 0 2 0 0 2 0 0 4 0 0 6 0 0 3 0 0 3 0 0 4 0 0 6 0 0 4 0 0 2 0 0 4 0 0 1 0 0 
1 0 0 2 0 0 1 0 0 1 0 0 2 0 0 6 0 0 6 0 0 1 0 0 2 0 0 7 0 0 7 0 0 4 0 0 4 0 0 2 0 0 6 0 0 6 0 0 4 0 0 4 0 0 10 0 0 2 0 0 10 0 0 11 0 0 11 0 0 4 0 0 4 0 0 1 0 0 6 0 0 9 0 0 9 0 0 10 0 0 9 0 0 12 0 0 8 0 0 11 0 0 4 0 0 4 0 0 5 0 0 6 0 0 9 0 0 6 0 0 8 0 0 9 0 0 11 0 0 6 0 0 5 0 0 8 0 0 5 0 0 6 0 0 3 0 0 6 0 0 3 0 0 7 0 0 1 0 0 3 0 0 4 0 0 8 0 0 6 0 0 2 0 0 0 0 0 5 0 0 
1 0 0 3 0 0 5 0 0 5 0 0 4 0 0 2 0 0 5 0 0 4 0 0 3 0 0 6 0 0 8 0 0 6 0 0 5 0 0 5 0 0 4 0 0 5 0 0 7 0 0 7 0 0 10 0 0 4 0 0 12 0 0 11 0 0 11 0 0 6 0 0 6 0 0 6 0 0 3 0 0 7 0 0 5 0 0 12 0 0 11 0 0 12 0 0 8 0 0 8 0 0 5 0 0 7 0 0 9 0 0 5 0 0 8 0 0 6 0 0 8 0 0 11 0 0 8 0 0 10 0 0 9 0 0 11 0 0 4 0 0 7 0 0 6 0 0 4 0 0 5 0 0 7 0 0 4 0 0 4 0 0 5 0 0 6 0 0 2 0 0 0 0 0 4 0 0 3 0 0 
0 0 0 1 0 0 2 0 0 4 0 0 8 0 0 6 0 0 2 0 0 5 0 0 4 0 0 4 0 0 11 0 0 10 0 0 6 0 0 9 0 0 5 0 0 3 0 0 9 0 0 6 0 0 13 0 0 11 0 0 12 0 0 12 0 0 8 0 0 10 0 0 9 0 0 8 0 0 4 0 0 4 0 0 7 0 0 6 0 0 10 0 0 9 0 0 10 0 0 11 0 0 13 0 0 7 0 0 11 0 0 9 0 0 10 0 0 10 0 0 11 0 0 11 0 0 4 0 0 13 0 0 8 0 0 10 0 0 4 0 0 9 0 0 4 0 0 4 0 0 6 0 0 10 0 0 3 0 0 6 0 0 4 0 0 4 0 0 0 0 0 5 0 0 8 0 0 6 0 0 
2 0 0 1 0 0 3 0 0 4 0 0 1 0 0 5 0 0 3 0 0 5 0 0 3 0 0 6 0 0 5 0 0 12 0 0 11 0 0 14 0 0 5 0 0 6 0 0 8 0 0 8 0 0 14 0 0 10 0 0 14 0 0 10 0 0 12 0 0 11 0 0 12 0 0 13 0 0 8 0 0 9 0 0 5 0 0 12 0 0 5 0 0 11 0 0 9 0 0 5 0 0 12 0 0 15 0 0 11 0 0 8 0 0 12 0 0 14 0 0 7 0 0 10 0 0 6 0 0 9 0 0 5 0 0 14 0 0 11 0 0 9 0 0 4 0 0 3 0 0 11 0 0 5 0 0 6 0 0 4 0 0 2 0 0 2 0 0 4 0 0 6 0 0 7 0 0 4 0 0 
1 0 0 3 0 0 0 0 0 3 0 0 2 0 0 4 0 0 4 0 0 3 0 0 5 0 0 6 0 0 8 0 0 16 0 0 11 0 0 14 0 0 15 0 0 9 0 0 9 0 0 14 0 0 13 0 0 14 0 0 16 0 0 12 0 0 17 0 0 9 0 0 9 0 0 16 0 0 13 0 0 8 0 0 14 0 0 14 0 0 18 0 0 14 0 0 12 0 0 9 0 0 11 0 0 10 0 0 15 0 0 7 0 0 12 0 0 9 0 0 9 0 0 22 0 0 17 0 0 11 0 0 16 0 0 13 0 0 11 0 0 14 0 0 11 0 0 16 0 0 12 0 0 7 0 0 9 0 0 6 0 0 3 0 0 5 0 0 8 0 0 4 0 0 3 0 0 4 0 0 
2 0 0 1 0 0 1 0 0 2 0 0 3 0 0 1 0 0 6 0 0 3 0 0 1 0 0 4 0 0 11 0 0 14 0 0 19 0 0 15 0 0 20 0 0 12 0 0 8 0 0 20 0 0 24 0 0 14 0 0 21 0 0 24 0 0 21 0 0 21 0 0 18 0 0 23 0 0 25 0 0 11 0 0 19 0 0 12 0 0 19 0 0 15 0 0 17 0 0 19 0 0 11 0 0 17 0 0 18 0 0 12 0 0 10 0 0 10 0 0 25 0 0 19 0 0 24 0 0 20 0 0 15 0 0 15 0 0 14 0 0 16 0 0 15 0 0 16 0 0 12 0 0 13 0 0 3 0 0 3 0 0 1 0 0 8 0 0 5 0 0 3 0 0 1 0 0 3 0 0 
0 0 0 4 0 0 3 0 0 4 0 0 7 0 0 2 0 0 3 0 0 7 0 0 5 0 0 11 0 0 36 0 0 57 0 0 64 0 0 74 0 0 88 0 0 55 0 0 55 0 0 71 0 0 62 0 0 75 0 0 61 0 0 78 0 0 79 0 0 71 0 0 70 0 0 71 0 0 65 0 0 89 0 0 72 0 0 62 0 0 72 0 0 65 0 0 68 0 0 68 0 0 76 0 0 73 0 0 70 0 0 79 0 0 70 0 0 70 0 0 68 0 0 66 0 0 67 0 0 71 0 0 72 0 0 77 0 0 70 0 0 75 0 0 71 0 0 61 0 0 37 0 0 7 0 0 5 0 0 5 0 0 6 0 0 10 0 0 4 0 0 3 0 0 6 0 0 3 0 0 
0 0 0 1 0 0 3 0 0 3 0 0 5 0 0 4 0 0 1 0 0 1 0 0 3 0 0 35 0 0 2269 0 0 4487 0 0 4485 0 0 4521 0 0 4593 0 0 4471 0 0 4623 0 0 4551 0 0 4540 0 0 4584 0 0 4570 0 0 4472 0 0 4520 0 0 4573 0 0 4545 0 0 4608 0 0 4564 0 0 4619 0 0 4612 0 0 4520 0 0 4481 0 0 4689 0 0 4507 0 0 4490 0 0 4599 0 0 4517 0 0 4595 0 0 4628 0 0 4634 0 0 4516 0 0 4527 0 0 4505 0 0 4585 0 0 4575 0 0 4529 0 0 4573 0 0 4518 0 0 4610 0 0 4580 0 0 4452 0 0 2319 0 0 47 0 0 9 0 0 12 0 0 9 0 0 5 0 0 3 0 0 1 0 0 3 0 0 2 0 0 
0 0 0 1 0 0 2 0 0 4 0 0 5 0 0 6 0 0 8 0 0 4 0 0 3 0 0 60 0 0 4558 0 0 8978 0 0 8949 0 0 9105 0 0 9084 0 0 8986 0 0 8937 0 0 9065 0 0 9007 0 0 8983 0 0 8826 0 0 8967 0 0 9140 0 0 9036 0 0 8952 0 0 9008 0 0 9003 0 0 8885 0 0 9023 0 0 8924 0 0 9030 0 0 9099 0 0 8963 0 0 8960 0 0 8890 0 0 9132 0 0 9048 0 0 8965 0 0 9103 0 0 9057 0 0 8970 0 0 9020 0 0 9057 0 0 9094 0 0 8945 0 0 8973 0 0 8975 0 0 9167 0 0 8992 0 0 9054 0 0 4509 0 0 71 0 0 12 0 0 8 0 0 7 0 0 3 0 0 3 0 0 0 0 0 3 0 0 1 0 0 
0 0 0 3 0 0 1 0 0 0 0 0 1 0 0 6 0 0 12 0 0 9 0 0 6 0 0 65 0 0 4548 0 0 8986 0 0 8987 0 0 9041 0 0 9138 0 0 8894 0 0 9035 0 0 9050 0 0 8999 0 0 8964 0 0 9006 0 0 9095 0 0 9099 0 0 8992 0 0 9189 0 0 9096 0 0 9146 0 0 9262 0 0 8996 0 0 9103 0 0 9091 0 0 9226 0 0 9062 0 0 9197 0 0 9109 0 0 8924 0 0 9243 0 0 8958 0 0 9242 0 0 9078 0 0 8947 0 0 8935 0 0 9137 0 0 8995 0 0 9034 0 0 9024 0 0 9003 0 0 9058 0 0 9142 0 0 9167 0 0 4612 0 0 64 0 0 13 0 0 7 0 0 7 0 0 6 0 0 2 0 0 3 0 0 4 0 0 3 0 0 
2 0 0 7 0 0 7 0 0 10 0 0 6 0 0 10 0 0 8 0 0 9 0 0 7 0 0 55 0 0 4531 0 0 9089 0 0 9104 0 0 9018 0 0 9049 0 0 9038 0 0 9064 0 0 9117 0 0 9060 0 0 9108 0 0 9243 0 0 9180 0 0 9105 0 0 9144 0 0 9202 0 0 9082 0 0 9138 0 0 9317 0 0 9173 0 0 9171 0 0 9067 0 0 9060 0 0 9100 0 0 9023 0 0 8951 0 0 9116 0 0 9066 0 0 9136 0 0 9092 0 0 9167 0 0 9069 0 0 9092 0 0 8974 0 0 9073 0 0 9078 0 0 9040 0 0 8988 0 0 9013 0 0 9068 0 0 9051 0 0 4525 0 0 72 0 0 14 0 0 8 0 0 9 0 0 1 0 0 5 0 0 4 0 0 4 0 0 5 0 0 
1 0 0 4 0 0 10 0 0 5 0 0 5 0 0 5 0 0 10 0 0 10 0 0 11 0 0 61 0 0 4508 0 0 9164 0 0 9229 0 0 9157 0 0 9040 0 0 9099 0 0 9079 0 0 9157 0 0 9182 0 0 9066 0 0 8955 0 0 8980 0 0 9132 0 0 9074 0 0 8971 0 0 9137 0 0 9032 0 0 9151 0 0 9108 0 0 9134 0 0 9235 0 0 9188 0 0 9124 0 0 9140 0 0 9090 0 0 9190 0 0 9081 0 0 9042 0 0 9074 0 0 9139 0 0 9014 0 0 9105 0 0 9118 0 0 9059 0 0 9018 0 0 8988 0 0 8987 0 0 9000 0 0 9055 0 0 9012 0 0 4548 0 0 60 0 0 19 0 0 11 0 0 8 0 0 9 0 0 6 0 0 6 0 0 4 0 0 7 0 0 
4 0 0 4 0 0 2 0 0 4 0 0 7 0 0 8 0 0 8 0 0 10 0 0 12 0 0 60 0 0 4537 0 0 8929 0 0 9145 0 0 8935 0 0 9131 0 0 9151 0 0 8967 0 0 9050 0 0 9038 0 0 9052 0 0 9230 0 0 9056 0 0 9099 0 0 9250 0 0 9102 0 0 9175 0 0 9052 0 0 8967 0 0 9097 0 0 8997 0 0 9175 0 0 9065 0 0 8985 0 0 8962 0 0 9071 0 0 9096 0 0 8964 0 0 9125 0 0 9142 0 0 9087 0 0 9129 0 0 9047 0 0 9004 0 0 9159 0 0 9018 0 0 9191 0 0 9018 0 0 9113 0 0 9243 0 0 9162 0 0 4556 0 0 71 0 0 18 0 0 7 0 0 6 0 0 7 0 0 7 0 0 3 0 0 4 0 0 1 0 0 
3 0 0 3 0 0 2 0 0 2 0 0 3 0 0 9 0 0 9 0 0 8 0 0 14 0 0 56 0 0 4624 0 0 9220 0 0 9014 0 0 9110 0 0 9079 0 0 9167 0 0 9052 0 0 9150 0 0 9131 0 0 9111 0 0 9112 0 0 9119 0 0 9191 0 0 9026 0 0 9022 0 0 9079 0 0 9065 0 0 9113 0 0 9180 0 0 9052 0 0 9104 0 0 9068 0 0 9206 0 0 9110 0 0 9221 0 0 9106 0 0 9028 0 0 9099 0 0 9116 0 0 9005 0 0 8988 0 0 9130 0 0 9060 0 0 9014 0 0 9071 0 0 9092 0 0 9170 0 0 9010 0 0 9076 0 0 8973 0 0 4534 0 0 69 0 0 12 0 0 7 0 0 6 0 0 8 0 0 4 0 0 11 0 0 7 0 0 6 0 0 
2 0 0 5 0 0 1 0 0 9 0 0 8 0 0 7 0 0 5 0 0 13 0 0 19 0 0 61 0 0 4424 0 0 9037 0 0 8921 0 0 9123 0 0 9065 0 0 9145 0 0 8993 0 0 9138 0 0 9133 0 0 9076 0 0 9002 0 0 9037 0 0 9061 0 0 8994 0 0 9154 0 0 9294 0 0 9032 0 0 9284 0 0 9090 0 0 9044 0 0 9045 0 0 8995 0 0 9017 0 0 9129 0 0 9129 0 0 9116 0 0 9056 0 0 9237 0 0 9063 0 0 9075 0 0 9019 0 0 9030 0 0 8937 0 0 9157 0 0 9060 0 0 9142 0 0 9103 0 0 9107 0 0 9217 0 0 9112 0 0 4625 0 0 78 0 0 19 0 0 12 0 0 11 0 0 7 0 0 9 0 0 7 0 0 6 0 0 7 0 0 
2 0 0 6 0 0 6 0 0 6 0 0 9 0 0 11 0 0 7 0 0 12 0 0 15 0 0 69 0 0 4617 0 0 9001 0 0 8904 0 0 9127 0 0 9267 0 0 9099 0 0 9027 0 0 9013 0 0 9084 0 0 8990 0 0 9158 0 0 9120 0 0 9062 0 0 9049 0 0 9187 0 0 9211 0 0 9136 0 0 9074 0 0 9119 0 0 8979 0 0 9150 0 0 9168 0 0 9063 0 0 9121 0 0 9159 0 0 9142 0 0 8991 0 0 9185 0 0 9222 0 0 9038 0 0 9135 0 0 9058 0 0 9098 0 0 9179 0 0 8960 0 0 9029 0 0 9090 0 0 9026 0 0 9094 0 0 8977 0 0 4541 0 0 64 0 0 15 0 0 10 0 0 9 0 0 9 0 0 7 0 0 4 0 0 4 0 0 5 0 0 
4 0 0 8 0 0 8 0 0 8 0 0 4 0 0 10 0 0 14 0 0 11 0 0 20 0 0 68 0 0 4521 0 0 8972 0 0 9056 0 0 8994 0 0 9042 0 0 9179 0 0 9026 0 0 9227 0 0 9122 0 0 9073 0 0 9237 0 0 9099 0 0 9178 0 0 9002 0 0 9258 0 0 9129 0 0 9169 0 0 9124 0 0 9126 0 0 9250 0 0 9155 0 0 9286 0 0 9257 0 0 9125 0 0 9012 0 0 9138 0 0 9085 0 0 9121 0 0 9091 0 0 9086 0 0 9170 0 0 9072 0 0 9064 0 0 8923 0 0 9021 0 0 9127 0 0 9020 0 0 8998 0 0 9128 0 0 8861 0 0 4534 0 0 59 0 0 19 0 0 16 0 0 13 0 0 10 0 0 8 0 0 1 0 0 3 0 0 5 0 0 
0 0 0 5 0 0 11 0 0 6 0 0 3 0 0 6 0 0 5 0 0 7 0 0 12 0 0 66 0 0 4559 0 0 9041 0 0 9118 0 0 9151 0 0 9044 0 0 9085 0 0 9156 0 0 9104 0 0 9195 0 0 9136 0 0 9053 0 0 9059 0 0 9138 0 0 9121 0 0 9149 0 0 9112 0 0 9227 0 0 9061 0 0 9026 0 0 8941 0 0 9083 0 0 9116 0 0 9152 0 0 9096 0 0 9166 0 0 9156 0 0 9155 0 0 9094 0 0 9046 0 0 9137 0 0 8966 0 0 9195 0 0 9163 0 0 9157 0 0 9119 0 0 8964 0 0 9179 0 0 9157 0 0 9053 0 0 8994 0 0 4604 0 0 79 0 0 14 0 0 16 0 0 11 0 0 8 0 0 6 0 0 7 0 0 8 0 0 4 0 0 
3 0 0 7 0 0 6 0 0 9 0 0 12 0 0 11 0 0 9 0 0 13 0 0 16 0 0 87 0 0 4512 0 0 8999 0 0 9015 0 0 9193 0 0 9185 0 0 9038 0 0 9183 0 0 9032 0 0 9063 0 0 9285 0 0 9248 0 0 9268 0 0 9003 0 0 9040 0 0 9131 0 0 9114 0 0 9041 0 0 9087 0 0 9155 0 0 9104 0 0 9132 0 0 9114 0 0 9287 0 0 9072 0 0 9159 0 0 9100 0 0 9043 0 0 9068 0 0 9127 0 0 9124 0 0 9075 0 0 8933 0 0 9286 0 0 9067 0 0 9161 0 0 9041 0 0 9075 0 0 8920 0 0 8904 0 0 9021 0 0 4632 0 0 76 0 0 19 0 0 10 0 0 10 0 0 12 0 0 8 0 0 9 0 0 6 0 0 6 0 0 
2 0 0 5 0 0 9 0 0 10 0 0 6 0 0 5 0 0 6 0 0 21 0 0 16 0 0 70 0 0 4570 0 0 9088 0 0 9183 0 0 9102 0 0 9059 0 0 8881 0 0 9023 0 0 9121 0 0 9068 0 0 9087 0 0 9021 0 0 9132 0 0 9054 0 0 9170 0 0 9049 0 0 8991 0 0 9149 0 0 9206 0 0 9194 0 0 9099 0 0 9064 0 0 9164 0 0 9117 0 0 8926 0 0 8957 0 0 9178 0 0 9159 0 0 9067 0 0 9089 0 0 9131 0 0 9007 0 0 8983 0 0 9112 0 0 9016 0 0 9202 0 0 8913 0 0 9151 0 0 9154 0 0 9036 0 0 9081 0 0 4462 0 0 79 0 0 25 0 0 19 0 0 11 0 0 12 0 0 7 0 0 10 0 0 7 0 0 7 0 0 
1 0 0 8 0 0 6 0 0 10 0 0 12 0 0 6 0 0 6 0 0 12 0 0 18 0 0 78 0 0 4534 0 0 9045 0 0 9073 0 0 9110 0 0 9198 0 0 9033 0 0 9186 0 0 9252 0 0 9132 0 0 9228 0 0 9076 0 0 9097 0 0 9191 0 0 9096 0 0 9013 0 0 8890 0 0 9048 0 0 8985 0 0 8993 0 0 9007 0 0 9111 0 0 9103 0 0 9085 0 0 9110 0 0 9094 0 0 9101 0 0 9231 0 0 9402 0 0 9131 0 0 9206 0 0 9171 0 0 9022 0 0 8977 0 0 9127 0 0 9034 0 0 9080 0 0 8972 0 0 8881 0 0 8867 0 0 8981 0 0 4468 0 0 68 0 0 19 0 0 13 0 0 12 0 0 7 0 0 5 0 0 4 0 0 2 0 0 3 0 0 
3 0 0 7 0 0 6 0 0 11 0 0 9 0 0 8 0 0 14 0 0 19 0 0 16 0 0 74 0 0 4526 0 0 9034 0 0 9141 0 0 9077 0 0 9244 0 0 9211 0 0 9080 0 0 9021 0 0 9102 0 0 9267 0 0 9243 0 0 9071 0 0 9071 0 0 9026 0 0 9044 0 0 9126 0 0 9123 0 0 9014 0 0 9052 0 0 8909 0 0 9094 0 0 9003 0 0 8995 0 0 9251 0 0 9035 0 0 9156 0 0 8995 0 0 9162 0 0 9272 0 0 9105 0 0 9122 0 0 9043 0 0 8937 0 0 9138 0 0 9064 0 0 9208 0 0 9035 0 0 9114 0 0 9018 0 0 8906 0 0 4472 0 0 60 0 0 12 0 0 9 0 0 7 0 0 9 0 0 5 0 0 8 0 0 8 0 0 4 0 0 
4 0 0 8 0 0 4 0 0 2 0 0 5 0 0 5 0 0 10 0 0 6 0 0 18 0 0 62 0 0 4517 0 0 9113 0 0 9081 0 0 9262 0 0 9020 0 0 9098 0 0 9250 0 0 8918 0 0 9077 0 0 9002 0 0 9118 0 0 9154 0 0 9100 0 0 9084 0 0 9125 0 0 8900 0 0 9143 0 0 9083 0 0 9068 0 0 9087 0 0 9046 0 0 9175 0 0 9004 0 0 9176 0 0 9018 0 0 9010 0 0 9082 0 0 9036 0 0 8997 0 0 9224 0 0 9036 0 0 9095 0 0 9016 0 0 9087 0 0 9097 0 0 8842 0 0 9097 0 0 9075 0 0 9177 0 0 8960 0 0 4558 0 0 72 0 0 13 0 0 12 0 0 8 0 0 7 0 0 10 0 0 9 0 0 9 0 0 5 0 0 
3 0 0 5 0 0 1 0 0 1 0 0 3 0 0 10 0 0 5 0 0 8 0 0 7 0 0 66 0 0 4473 0 0 9055 0 0 8910 0 0 9103 0 0 9049 0 0 9080 0 0 8891 0 0 9193 0 0 9015 0 0 8965 0 0 9115 0 0 9239 0 0 9080 0 0 9142 0 0 9049 0 0 9190 0 0 9267 0 0 9190 0 0 9107 0 0 8993 0 0 9074 0 0 9221 0 0 9243 0 0 9104 0 0 9044 0 0 9076 0 0 9031 0 0 8912 0 0 8931 0 0 9029 0 0 9135 0 0 9025 0 0 9098 0 0 9255 0 0 9237 0 0 9063 0 0 8973 0 0 9184 0 0 8949 0 0 8935 0 0 4595 0 0 68 0 0 16 0 0 13 0 0 12 0 0 6 0 0 7 0 0 9 0 0 9 0 0 3 0 0 
2 0 0 4 0 0 5 0 0 8 0 0 8 0 0 7 0 0 11 0 0 10 0 0 11 0 0 69 0 0 4533 0 0 8921 0 0 9160 0 0 8998 0 0 9073 0 0 9035 0 0 9085 0 0 9252 0 0 8955 0 0 9164 0 0 9112 0 0 9194 0 0 9109 0 0 9026 0 0 9123 0 0 8948 0 0 9118 0 0 9003 0 0 9147 0 0 9195 0 0 8929 0 0 8991 0 0 9342 0 0 9185 0 0 9132 0 0 9035 0 0 9094 0 0 8979 0 0 9070 0 0 9156 0 0 9167 0 0 8908 0 0 9021 0 0 9184 0 0 9081 0 0 9344 0 0 9084 0 0 9081 0 0 9047 0 0 9165 0 0 4519 0 0 59 0 0 13 0 0 14 0 0 11 0 0 6 0 0 4 0 0 4 0 0 4 0 0 6 0 0 
1 0 0 7 0 0 11 0 0 8 0 0 8 0 0 9 0 0 7 0 0 13 0 0 18 0 0 64 0 0 4463 0 0 9044 0 0 9062 0 0 8958 0 0 9097 0 0 9014 0 0 9104 0 0 9018 0 0 9147 0 0 9138 0 0 9046 0 0 9100 0 0 9196 0 0 9104 0 0 9152 0 0 9009 0 0 9028 0 0 9013 0 0 9087 0 0 9063 0 0 9103 0 0 8908 0 0 9076 0 0 8964 0 0 9105 0 0 9094 0 0 9061 0 0 9088 0 0 8898 0 0 9117 0 0 9066 0 0 8950 0 0 8972 0 0 9033 0 0 8984 0 0 9129 0 0 9182 0 0 9144 0 0 9239 0 0 9163 0 0 4479 0 0 60 0 0 16 0 0 8 0 0 8 0 0 6 0 0 6 0 0 7 0 0 5 0 0 3 0 0 
2 0 0 5 0 0 6 0 0 9 0 0 12 0 0 6 0 0 12 0 0 10 0 0 17 0 0 69 0 0 4568 0 0 9185 0 0 9140 0 0 9164 0 0 9220 0 0 9160 0 0 9292 0 0 9337 0 0 9120 0 0 9092 0 0 9248 0 0 9459 0 0 9160 0 0 9208 0 0 9156 0 0 8976 0 0 9133 0 0 9050 0 0 9247 0 0 9177 0 0 9091 0 0 9100 0 0 9034 0 0 9168 0 0 9020 0 0 9004 0 0 8998 0 0 8997 0 0 9098 0 0 9155 0 0 9105 0 0 9024 0 0 9051 0 0 9083 0 0 8998 0 0 9163 0 0 9059 0 0 9138 0 0 9037 0 0 8999 0 0 4626 0 0 70 0 0 18 0 0 11 0 0 9 0 0 5 0 0 10 0 0 8 0 0 12 0 0 11 0 0 
4 0 0 6 0 0 9 0 0 11 0 0 19 0 0 10 0 0 8 0 0 9 0 0 13 0 0 67 0 0 4643 0 0 9156 0 0 9042 0 0 9045 0 0 9108 0 0 9232 0 0 9070 0 0 9263 0 0 9183 0 0 9017 0 0 9124 0 0 8973 0 0 9088 0 0 9213 0 0 9150 0 0 9058 0 0 9180 0 0 9236 0 0 9221 0 0 9101 0 0 9026 0 0 9205 0 0 9118 0 0 9150 0 0 8996 0 0 9124 0 0 9051 0 0 8980 0 0 9048 0 0 9107 0 0 9102 0 0 9237 0 0 9153 0 0 9015 0 0 9112 0 0 9105 0 0 8999 0 0 9055 0 0 9111 0 0 9249 0 0 4533 0 0 64 0 0 11 0 0 15 0 0 12 0 0 14 0 0 7 0 0 6 0 0 5 0 0 6 0 0 
1 0 0 7 0 0 7 0 0 8 0 0 10 0 0 11 0 0 6 0 0 18 0 0 13 0 0 70 0 0 4587 0 0 9105 0 0 9080 0 0 8982 0 0 9077 0 0 9178 0 0 8993 0 0 9169 0 0 9150 0 0 9001 0 0 9040 0 0 9297 0 0 9128 0 0 9111 0 0 9160 0 0 9240 0 0 9000 0 0 9166 0 0 9011 0 0 8958 0 0 9190 0 0 9069 0 0 9117 0 0 9165 0 0 9108 0 0 8969 0 0 9103 0 0 9042 0 0 9127 0 0 9095 0 0 9176 0 0 9126 0 0 9140 0 0 9138 0 0 9177 0 0 9194 0 0 8959 0 0 8995 0 0 9075 0 0 9062 0 0 4563 0 0 60 0 0 26 0 0 14 0 0 14 0 0 6 0 0 10 0 0 4 0 0 8 0 0 5 0 0 
2 0 0 6 0 0 6 0 0 7 0 0 3 0 0 5 0 0 11 0 0 10 0 0 15 0 0 59 0 0 4548 0 0 9135 0 0 8992 0 0 8864 0 0 9162 0 0 9097 0 0 9049 0 0 9160 0 0 8933 0 0 9042 0 0 9190 0 0 9102 0 0 9041 0 0 8952 0 0 9004 0 0 9030 0 0 9355 0 0 9043 0 0 9108 0 0 9038 0 0 9104 0 0 9059 0 0 9201 0 0 9014 0 0 9116 0 0 9276 0 0 9150 0 0 9030 0 0 9144 0 0 9104 0 0 8977 0 0 9132 0 0 9021 0 0 9184 0 0 9199 0 0 9122 0 0 9114 0 0 9128 0 0 9120 0 0 9259 0 0 4484 0 0 67 0 0 15 0 0 9 0 0 12 0 0 8 0 0 4 0 0 7 0 0 6 0 0 3 0 0 
1 0 0 4 0 0 8 0 0 12 0 0 8 0 0 6 0 0 12 0 0 8 0 0 12 0 0 84 0 0 4445 0 0 9133 0 0 8949 0 0 9061 0 0 9059 0 0 9032 0 0 9222 0 0 9074 0 0 9203 0 0 9181 0 0 8963 0 0 9065 0 0 9178 0 0 9060 0 0 9119 0 0 9189 0 0 9008 0 0 9114 0 0 8969 0 0 9104 0 0 9059 0 0 8965 0 0 8938 0 0 9078 0 0 8969 0 0 9127 0 0 9182 0 0 9315 0 0 9183 0 0 9159 0 0 9127 0 0 9184 0 0 9104 0 0 9089 0 0 9117 0 0 9085 0 0 9046 0 0 9074 0 0 9050 0 0 9102 0 0 4567 0 0 72 0 0 14 0 0 10 0 0 11 0 0 7 0 0 4 0 0 3 0 0 7 0 0 8 0 0 
0 0 0 3 0 0 5 0 0 13 0 0 8 0 0 8 0 0 5 0 0 13 0 0 18 0 0 73 0 0 4540 0 0 9145 0 0 9082 0 0 9223 0 0 9160 0 0 9055 0 0 9130 0 0 8984 0 0 9141 0 0 8927 0 0 9114 0 0 9025 0 0 9102 0 0 8907 0 0 9207 0 0 9286 0 0 9047 0 0 9137 0 0 9130 0 0 9103 0 0 9010 0 0 9079 0 0 9009 0 0 8965 0 0 8993 0 0 9113 0 0 9126 0 0 8950 0 0 9212 0 0 9185 0 0 9197 0 0 8888 0 0 9075 0 0 9131 0 0 9037 0 0 9088 0 0 9119 0 0 9062 0 0 8944 0 0 9011 0 0 4508 0 0 67 0 0 20 0 0 14 0 0 6 0 0 10 0 0 6 0 0 5 0 0 7 0 0 7 0 0 
2 0 0 4 0 0 9 0 0 5 0 0 7 0 0 11 0 0 11 0 0 8 0 0 19 0 0 75 0 0 4594 0 0 8860 0 0 9040 0 0 8981 0 0 9114 0 0 9141 0 0 9203 0 0 9034 0 0 9090 0 0 9198 0 0 8953 0 0 9083 0 0 9074 0 0 9180 0 0 9165 0 0 9081 0 0 8962 0 0 9308 0 0 9087 0 0 9065 0 0 9096 0 0 8941 0 0 9058 0 0 8961 0 0 9098 0 0 9104 0 0 9177 0 0 9001 0 0 9151 0 0 9280 0 0 9173 0 0 9062 0 0 9052 0 0 9108 0 0 8955 0 0 9196 0 0 9035 0 0 9016 0 0 8987 0 0 9049 0 0 4522 0 0 80 0 0 24 0 0 12 0 0 6 0 0 10 0 0 9 0 0 7 0 0 5 0 0 0 0 0 
1 0 0 8 0 0 9 0 0 9 0 0 10 0 0 7 0 0 9 0 0 14 0 0 22 0 0 64 0 0 4660 0 0 9069 0 0 9132 0 0 9072 0 0 9038 0 0 9166 0 0 9136 0 0 9005 0 0 9111 0 0 9157 0 0 9144 0 0 9214 0 0 9039 0 0 8970 0 0 9230 0 0 9125 0 0 9161 0 0 9014 0 0 9125 0 0 8990 0 0 9229 0 0 9132 0 0 9089 0 0 9017 0 0 9102 0 0 9206 0 0 9160 0 0 9047 0 0 9101 0 0 9079 0 0 9005 0 0 9112 0 0 9027 0 0 9062 0 0 9161 0 0 9125 0 0 8908 0 0 8987 0 0 9034 0 0 8963 0 0 4535 0 0 71 0 0 12 0 0 12 0 0 14 0 0 9 0 0 10 0 0 7 0 0 10 0 0 9 0 0 
5 0 0 9 0 0 7 0 0 10 0 0 11 0 0 12 0 0 7 0 0 12 0 0 19 0 0 74 0 0 4552 0 0 8960 0 0 9096 0 0 9042 0 0 9045 0 0 9186 0 0 9190 0 0 9051 0 0 9275 0 0 9148 0 0 9169 0 0 9104 0 0 9114 0 0 9140 0 0 9015 0 0 9042 0 0 9193 0 0 9092 0 0 9128 0 0 9268 0 0 9000 0 0 9216 0 0 9004 0 0 9106 0 0 9044 0 0 9007 0 0 9111 0 0 9236 0 0 8883 0 0 9156 0 0 9172 0 0 9051 0 0 9271 0 0 9112 0 0 9296 0 0 9092 0 0 8992 0 0 9373 0 0 8942 0 0 9037 0 0 4556 0 0 73 0 0 20 0 0 9 0 0 5 0 0 10 0 0 6 0 0 8 0 0 6 0 0 9 0 0 
4 0 0 10 0 0 10 0 0 8 0 0 5 0 0 5 0 0 9 0 0 16 0 0 25 0 0 66 0 0 4603 0 0 9054 0 0 9244 0 0 9127 0 0 9090 0 0 9088 0 0 9290 0 0 9182 0 0 8900 0 0 9166 0 0 9093 0 0 9210 0 0 9100 0 0 9036 0 0 8923 0 0 8982 0 0 9156 0 0 9217 0 0 9075 0 0 9113 0 0 9084 0 0 9082 0 0 9165 0 0 9080 0 0 9017 0 0 9093 0 0 9014 0 0 9180 0 0 9097 0 0 9108 0 0 9007 0 0 9198 0 0 9142 0 0 9007 0 0 9082 0 0 9052 0 0 9160 0 0 9034 0 0 9125 0 0 9022 0 0 4630 0 0 74 0 0 14 0 0 16 0 0 6 0 0 10 0 0 7 0 0 5 0 0 6 0 0 6 0 0 
3 0 0 10 0 0 3 0 0 4 0 0 10 0 0 5 0 0 6 0 0 8 0 0 18 0 0 65 0 0 4498 0 0 8972 0 0 9173 0 0 9188 0 0 9085 0 0 9050 0 0 9224 0 0 9146 0 0 9175 0 0 9032 0 0 9165 0 0 9269 0 0 9023 0 0 9152 0 0 9192 0 0 8979 0 0 9101 0 0 9211 0 0 9041 0 0 9002 0 0 9107 0 0 9064 0 0 9057 0 0 9051 0 0 9128 0 0 9168 0 0 9029 0 0 9031 0 0 8929 0 0 9105 0 0 9083 0 0 8978 0 0 9054 0 0 9220 0 0 9027 0 0 9135 0 0 9067 0 0 9070 0 0 9006 0 0 8983 0 0 4521 0 0 71 0 0 19 0 0 7 0 0 11 0 0 7 0 0 7 0 0 8 0 0 7 0 0 4 0 0 
3 0 0 3 0 0 4 0 0 3 0 0 4 0 0 11 0 0 12 0 0 9 0 0 16 0 0 73 0 0 4551 0 0 8912 0 0 9069 0 0 9247 0 0 9030 0 0 9236 0 0 9079 0 0 9035 0 0 9199 0 0 8995 0 0 9218 0 0 8929 0 0 9014 0 0 9188 0 0 9060 0 0 9133 0 0 9038 0 0 9192 0 0 9105 0 0 9375 0 0 9300 0 0 9079 0 0 9119 0 0 9233 0 0 8906 0 0 9178 0 0 9147 0 0 9094 0 0 9104 0 0 9206 0 0 9043 0 0 9095 0 0 9076 0 0 9031 0 0 9035 0 0 9097 0 0 8904 0 0 9129 0 0 8850 0 0 8904 0 0 4515 0 0 53 0 0 15 0 0 8 0 0 10 0 0 11 0 0 10 0 0 7 0 0 9 0 0 5 0 0 
2 0 0 1 0 0 5 0 0 4 0 0 7 0 0 12 0 0 16 0 0 14 0 0 12 0 0 62 0 0 4602 0 0 8902 0 0 9077 0 0 8926 0 0 8929 0 0 9035 0 0 9000 0 0 9088 0 0 9078 0 0 9184 0 0 9100 0 0 9100 0 0 9192 0 0 8980 0 0 9109 0 0 9236 0 0 9091 0 0 9184 0 0 9142 0 0 9151 0 0 9191 0 0 9269 0 0 9170 0 0 9107 0 0 8968 0 0 9151 0 0 9155 0 0 9114 0 0 8984 0 0 9062 0 0 9142 0 0 8952 0 0 9169 0 0 9158 0 0 9106 0 0 9124 0 0 9216 0 0 9082 0 0 9048 0 0 9208 0 0 4629 0 0 59 0 0 13 0 0 8 0 0 12 0 0 10 0 0 6 0 0 4 0 0 4 0 0 6 0 0 
1 0 0 7 0 0 5 0 0 3 0 0 3 0 0 7 0 0 6 0 0 13 0 0 21 0 0 78 0 0 4561 0 0 9103 0 0 9062 0 0 8918 0 0 9151 0 0 9087 0 0 9107 0 0 8943 0 0 9028 0 0 9052 0 0 9104 0 0 9143 0 0 9191 0 0 9139 0 0 9071 0 0 9160 0 0 9244 0 0 9205 0 0 9167 0 0 9234 0 0 9252 0 0 9152 0 0 9300 0 0 9078 0 0 9055 0 0 9164 0 0 9212 0 0 9021 0 0 8997 0 0 9132 0 0 9146 0 0 9141 0 0 9047 0 0 8878 0 0 9041 0 0 9026 0 0 9090 0 0 9062 0 0 8893 0 0 8874 0 0 4567 0 0 60 0 0 24 0 0 20 0 0 12 0 0 12 0 0 12 0 0 9 0 0 9 0 0 10 0 0 
3 0 0 6 0 0 5 0 0 6 0 0 9 0 0 9 0 0 12 0 0 13 0 0 15 0 0 74 0 0 4577 0 0 9013 0 0 9064 0 0 8976 0 0 9005 0 0 9195 0 0 8987 0 0 9238 0 0 8964 0 0 9068 0 0 9165 0 0 9036 0 0 9244 0 0 9092 0 0 8989 0 0 9015 0 0 9093 0 0 8996 0 0 8946 0 0 8976 0 0 9136 0 0 9063 0 0 9226 0 0 9115 0 0 9039 0 0 9188 0 0 9097 0 0 8967 0 0 9008 0 0 9049 0 0 9075 0 0 9198 0 0 9077 0 0 9131 0 0 9150 0 0 9195 0 0 9177 0 0 9079 0 0 9135 0 0 8866 0 0 4428 0 0 66 0 0 16 0 0 15 0 0 11 0 0 8 0 0 10 0 0 5 0 0 3 0 0 4 0 0 
3 0 0 5 0 0 3 0 0 8 0 0 11 0 0 7 0 0 8 0 0 16 0 0 20 0 0 84 0 0 4597 0 0 8907 0 0 8982 0 0 8933 0 0 9000 0 0 9087 0 0 8961 0 0 9112 0 0 9048 0 0 9134 0 0 9158 0 0 9078 0 0 9081 0 0 9216 0 0 9163 0 0 9141 0 0 9076 0 0 9036 0 0 8945 0 0 8876 0 0 9063 0 0 9021 0 0 9090 0 0 9037 0 0 9171 0 0 9049 0 0 9056 0 0 9012 0 0 9195 0 0 8985 0 0 8985 0 0 9115 0 0 9149 0 0 9117 0 0 9083 0 0 9141 0 0 9163 0 0 9028 0 0 8929 0 0 9201 0 0 4542 0 0 54 0 0 11 0 0 12 0 0 10 0 0 11 0 0 5 0 0 6 0 0 7 0 0 6 0 0 
1 0 0 4 0 0 6 0 0 9 0 0 6 0 0 10 0 0 7 0 0 10 0 0 14 0 0 75 0 0 4521 0 0 8998 0 0 9163 0 0 9243 0 0 9068 0 0 9124 0 0 9054 0 0 9139 0 0 8977 0 0 9057 0 0 9013 0 0 9140 0 0 9004 0 0 9159 0 0 9024 0 0 9005 0 0 9174 0 0 9228 0 0 9129 0 0 9071 0 0 9228 0 0 9020 0 0 9035 0 0 9097 0 0 8987 0 0 8938 0 0 8984 0 0 9209 0 0 9242 0 0 9154 0 0 9101 0 0 9090 0 0 9128 0 0 9171 0 0 9039 0 0 9093 0 0 9132 0 0 9180 0 0 9062 0 0 9166 0 0 4572 0 0 68 0 0 23 0 0 9 0 0 3 0 0 4 0 0 8 0 0 12 0 0 10 0 0 13 0 0 
4 0 0 6 0 0 4 0 0 8 0 0 8 0 0 4 0 0 11 0 0 12 0 0 16 0 0 84 0 0 4584 0 0 9149 0 0 9167 0 0 9299 0 0 9020 0 0 9237 0 0 9059 0 0 9103 0 0 8963 0 0 9142 0 0 9162 0 0 9138 0 0 8948 0 0 9078 0 0 9178 0 0 9135 0 0 8981 0 0 9222 0 0 9098 0 0 9059 0 0 9084 0 0 9034 0 0 9029 0 0 9050 0 0 9017 0 0 8833 0 0 9041 0 0 9008 0 0 9135 0 0 9016 0 0 9247 0 0 9083 0 0 8937 0 0 8913 0 0 9130 0 0 8937 0 0 8969 0 0 8973 0 0 9066 0 0 9147 0 0 4634 0 0 62 0 0 16 0 0 11 0 0 10 0 0 8 0 0 6 0 0 5 0 0 5 0 0 5 0 0 
2 0 0 3 0 0 6 0 0 4 0 0 5 0 0 12 0 0 12 0 0 7 0 0 21 0 0 57 0 0 4467 0 0 8959 0 0 9005 0 0 9192 0 0 9125 0 0 9138 0 0 9151 0 0 9098 0 0 9094 0 0 8982 0 0 9055 0 0 9060 0 0 9096 0 0 9020 0 0 9096 0 0 9044 0 0 9211 0 0 9014 0 0 9095 0 0 9005 0 0 9112 0 0 9157 0 0 9148 0 0 9102 0 0 9017 0 0 9244 0 0 9176 0 0 9018 0 0 9122 0 0 9012 0 0 8992 0 0 9082 0 0 9153 0 0 9304 0 0 9219 0 0 9140 0 0 9153 0 0 9091 0 0 8941 0 0 9096 0 0 4575 0 0 59 0 0 8 0 0 11 0 0 10 0 0 8 0 0 5 0 0 2 0 0 2 0 0 4 0 0 
2 0 0 7 0 0 8 0 0 2 0 0 2 0 0 7 0 0 10 0 0 6 0 0 12 0 0 69 0 0 4535 0 0 9135 0 0 9139 0 0 9066 0 0 9068 0 0 8954 0 0 8975 0 0 9010 0 0 8860 0 0 9175 0 0 9021 0 0 8966 0 0 9017 0 0 9119 0 0 9026 0 0 9201 0 0 9123 0 0 9055 0 0 9071 0 0 9095 0 0 9135 0 0 9134 0 0 9092 0 0 9025 0 0 9082 0 0 9014 0 0 9131 0 0 9133 0 0 9031 0 0 8961 0 0 9095 0 0 8966 0 0 9053 0 0 9109 0 0 9037 0 0 9035 0 0 9176 0 0 9067 0 0 9230 0 0 9067 0 0 4653 0 0 62 0 0 11 0 0 3 0 0 8 0 0 7 0 0 3 0 0 2 0 0 5 0 0 3 0 0 
0 0 0 3 0 0 3 0 0 4 0 0 2 0 0 5 0 0 3 0 0 8 0 0 15 0 0 58 0 0 4588 0 0 9039 0 0 9138 0 0 9160 0 0 9121 0 0 9105 0 0 8999 0 0 9246 0 0 9010 0 0 9132 0 0 8975 0 0 9021 0 0 9036 0 0 8871 0 0 9159 0 0 8980 0 0 9000 0 0 8989 0 0 8900 0 0 9040 0 0 9248 0 0 9117 0 0 9009 0 0 8996 0 0 9052 0 0 9045 0 0 9130 0 0 9064 0 0 9097 0 0 8954 0 0 9051 0 0 9005 0 0 9103 0 0 8991 0 0 8980 0 0 8948 0 0 9073 0 0 8979 0 0 9068 0 0 9078 0 0 4515 0 0 53 0 0 11 0 0 6 0 0 2 0 0 7 0 0 6 0 0 1 0 0 1 0 0 5 0 0 
0 0 0 0 0 0 2 0 0 0 0 0 6 0 0 4 0 0 5 0 0 4 0 0 12 0 0 29 0 0 2357 0 0 4515 0 0 4578 0 0 4434 0 0 4447 0 0 4481 0 0 4614 0 0 4550 0 0 4551 0 0 4530 0 0 4473 0 0 4568 0 0 4547 0 0 4523 0 0 4550 0 0 4517 0 0 4577 0 0 4495 0 0 4536 0 0 4427 0 0 4495 0 0 4451 0 0 4489 0 0 4497 0 0 4494 0 0 4521 0 0 4561 0 0 4551 0 0 4441 0 0 4605 0 0 4550 0 0 4568 0 0 4728 0 0 4539 0 0 4554 0 0 4557 0 0 4629 0 0 4557 0 0 4576 0 0 4514 0 0 2274 0 0 35 0 0 9 0 0 6 0 0 8 0 0 8 0 0 8 0 0 7 0 0 0 0 0 3 0 0 
0 0 0 1 0 0 1 0 0 4 0 0 6 0 0 1 0 0 5 0 0 6 0 0 7 0 0 8 0 0 37 0 0 74 0 0 59 0 0 71 0 0 66 0 0 55 0 0 59 0 0 67 0 0 60 0 0 65 0 0 64 0 0 71 0 0 80 0 0 74 0 0 77 0 0 75 0 0 59 0 0 71 0 0 78 0 0 71 0 0 72 0 0 76 0 0 66 0 0 87 0 0 72 0 0 53 0 0 59 0 0 71 0 0 72 0 0 78 0 0 75 0 0 59 0 0 68 0 0 66 0 0 66 0 0 67 0 0 62 0 0 73 0 0 71 0 0 56 0 0 41 0 0 8 0 0 7 0 0 6 0 0 3 0 0 1 0 0 3 0 0 5 0 0 8 0 0 3 0 0 
0 0 0 5 0 0 4 0 0 3 0 0 2 0 0 6 0 0 6 0 0 8 0 0 4 0 0 5 0 0 14 0 0 9 0 0 11 0 0 11 0 0 18 0 0 16 0 0 14 0 0 14 0 0 15 0 0 14 0 0 16 0 0 22 0 0 20 0 0 22 0 0 14 0 0 16 0 0 15 0 0 19 0 0 16 0 0 13 0 0 23 0 0 17 0 0 21 0 0 20 0 0 17 0 0 17 0 0 16 0 0 16 0 0 19 0 0 24 0 0 19 0 0 15 0 0 16 0 0 9 0 0 18 0 0 14 0 0 12 0 0 16 0 0 13 0 0 10 0 0 7 0 0 6 0 0 5 0 0 5 0 0 7 0 0 3 0 0 5 0 0 3 0 0 6 0 0 6 0 0 
1 0 0 4 0 0 2 0 0 0 0 0 0 0 0 2 0 0 3 0 0 7 0 0 4 0 0 5 0 0 3 0 0 4 0 0 8 0 0 6 0 0 9 0 0 12 0 0 12 0 0 11 0 0 13 0 0 12 0 0 13 0 0 13 0 0 12 0 0 16 0 0 16 0 0 14 0 0 12 0 0 13 0 0 12 0 0 8 0 0 18 0 0 15 0 0 8 0 0 19 0 0 18 0 0 17 0 0 15 0 0 16 0 0 13 0 0 22 0 0 13 0 0 17 0 0 12 0 0 9 0 0 15 0 0 15 0 0 10 0 0 11 0 0 7 0 0 8 0 0 6 0 0 4 0 0 1 0 0 2 0 0 5 0 0 6 0 0 8 0 0 4 0 0 5 0 0 2 0 0 
2 0 0 5 0 0 3 0 0 2 0 0 0 0 0 2 0 0 5 0 0 5 0 0 3 0 0 6 0 0 6 0 0 7 0 0 8 0 0 6 0 0 10 0 0 10 0 0 10 0 0 7 0 0 5 0 0 7 0 0 7 0 0 11 0 0 11 0 0 8 0 0 13 0 0 12 0 0 12 0 0 15 0 0 14 0 0 14 0 0 6 0 0 17 0 0 12 0 0 10 0 0 14 0 0 12 0 0 12 0 0 13 0 0 17 0 0 8 0 0 8 0 0 12 0 0 7 0 0 6 0 0 9 0 0 12 0 0 13 0 0 10 0 0 7 0 0 7 0 0 5 0 0 6 0 0 2 0 0 6 0 0 7 0 0 6 0 0 7 0 0 5 0 0 7 0 0 2 0 0 
0 0 0 3 0 0 1 0 0 1 0 0 2 0 0 3 0 0 2 0 0 5 0 0 7 0 0 3 0 0 8 0 0 7 0 0 6 0 0 7 0 0 9 0 0 5 0 0 0 0 0 5 0 0 2 0 0 8 0 0 8 0 0 5 0 0 13 0 0 10 0 0 8 0 0 6 0 0 12 0 0 15 0 0 13 0 0 10 0 0 12 0 0 10 0 0 9 0 0 13 0 0 12 0 0 15 0 0 11 0 0 14 0 0 8 0 0 9 0 0 9 0 0 13 0 0 7 0 0 6 0 0 7 0 0 10 0 0 11 0 0 5 0 0 12 0 0 5 0 0 4 0 0 4 0 0 8 0 0 2 0 0 6 0 0 4 0 0 8 0 0 7 0 0 3 0 0 3 0 0 
1 0 0 1 0 0 5 0 0 2 0 0 0 0 0 3 0 0 4 0 0 5 0 0 7 0 0 3 0 0 5 0 0 2 0 0 8 0 0 8 0 0 4 0 0 3 0 0 5 0 0 6 0 0 3 0 0 5 0 0 8 0 0 9 0 0 9 0 0 5 0 0 5 0 0 2 0 0 6 0 0 11 0 0 10 0 0 11 0 0 11 0 0 7 0 0 3 0 0 9 0 0 12 0 0 9 0 0 5 0 0 10 0 0 9 0 0 4 0 0 9 0 0 9 0 0 4 0 0 11 0 0 10 0 0 7 0 0 2 0 0 4 0 0 8 0 0 11 0 0 4 0 0 10 0 0 3 0 0 2 0 0 7 0 0 5 0 0 2 0 0 3 0 0 1 0 0 3 0 0 
3 0 0 1 0 0 5 0 0 0 0 0 3 0 0 9 0 0 2 0 0 6 0 0 5 0 0 0 0 0 4 0 0 6 0 0 5 0 0 5 0 0 2 0 0 3 0 0 8 0 0 6 0 0 4 0 0 3 0 0 11 0 0 10 0 0 6 0 0 1 0 0 4 0 0 4 0 0 6 0 0 8 0 0 9 0 0 7 0 0 6 0 0 4 0 0 4 0 0 8 0 0 10 0 0 4 0 0 9 0 0 7 0 0 10 0 0 8 0 0 10 0 0 9 0 0 5 0 0 8 0 0 9 0 0 3 0 0 3 0 0 0 0 0 2 0 0 9 0 0 4 0 0 4 0 0 4 0 0 1 0 0 6 0 0 7 0 0 3 0 0 0 0 0 1 0 0 2 0 0 
0 0 0 3 0 0 2 0 0 1 0 0 5 0 0 3 0 0 4 0 0 5 0 0 5 0 0 2 0 0 1 0 0 5 0 0 3 0 0 3 0 0 2 0 0 2 0 0 5 0 0 5 0 0 8 0 0 4 0 0 8 0 0 6 0 0 4 0 0 8 0 0 2 0 0 3 0 0 2 0 0 6 0 0 4 0 0 4 0 0 9 0 0 6 0 0 4 0 0 8 0 0 9 0 0 4 0 0 9 0 0 2 0 0 4 0 0 9 0 0 10 0 0 5 0 0 8 0 0 8 0 0 5 0 0 5 0 0 5 0 0 4 0 0 2 0 0 7 0 0 5 0 0 4 0 0 2 0 0 2 0 0 1 0 0 2 0 0 8 0 0 3 0 0 0 0 0 0 0 0 
1 0 0 4 0 0 0 0 0 4 0 0 6 0 0 1 0 0 1 0 0 1 0 0 1 0 0 0 0 0 0 0 0 7 0 0 4 0 0 4 0 0 4 0 0 4 0 0 7 0 0 5 0 0 11 0 0 5 0 0 5 0 0 5 0 0 5 0 0 5 0 0 1 0 0 4 0 0 7 0 0 4 0 0 5 0 0 7 0 0 6 0 0 8 0 0 4 0 0 9 0 0 7 0 0 4 0 0 5 0 0 4 0 0 2 0 0 9 0 0 5 0 0 10 0 0 11 0 0 9 0 0 4 0 0 7 0 0 3 0 0 3 0 0 2 0 0 4 0 0 2 0 0 3 0 0 0 0 0 1 0 0 0 0 0 0 0 0 4 0 0 4 0 0 2 0 0 1 0 0 
