P3
# This is a dose file slice at depth 42 of 100
60 60
# now we give the maximum value of the RGB coordinates.
21610
0 0 0 0 0 0 0 0 0 0 0 0 0 0 0 0 0 0 0 0 0 0 0 0 1 0 0 1 0 0 0 0 0 1 0 0 1 0 0 0 0 0 1 0 0 1 0 0 2 0 0 4 0 0 1 0 0 3 0 0 0 0 0 4 0 0 0 0 0 3 0 0 0 0 0 3 0 0 1 0 0 1 0 0 1 0 0 1 0 0 3 0 0 2 0 0 2 0 0 2 0 0 6 0 0 0 0 0 1 0 0 2 0 0 2 0 0 1 0 0 1 0 0 2 0 0 2 0 0 2 0 0 2 0 0 3 0 0 2 0 0 1 0 0 1 0 0 3 0 0 0 0 0 3 0 0 1 0 0 0 0 0 0 0 0 0 0 0 0 0 0 0 0 0 0 0 0 0 0 0 
4 0 0 3 0 0 1 0 0 0 0 0 1 0 0 2 0 0 3 0 0 2 0 0 4 0 0 2 0 0 0 0 0 1 0 0 4 0 0 1 0 0 1 0 0 0 0 0 7 0 0 5 0 0 2 0 0 7 0 0 2 0 0 4 0 0 2 0 0 5 0 0 3 0 0 8 0 0 7 0 0 3 0 0 2 0 0 1 0 0 6 0 0 7 0 0 5 0 0 8 0 0 7 0 0 3 0 0 2 0 0 7 0 0 4 0 0 4 0 0 4 0 0 7 0 0 4 0 0 7 0 0 7 0 0 5 0 0 6 0 0 3 0 0 2 0 0 2 0 0 4 0 0 6 0 0 1 0 0 0 0 0 2 0 0 2 0 0 1 0 0 1 0 0 3 0 0 6 0 0 
1 0 0 7 0 0 4 0 0 1 0 0 1 0 0 3 0 0 3 0 0 5 0 0 4 0 0 7 0 0 4 0 0 4 0 0 1 0 0 5 0 0 3 0 0 0 0 0 4 0 0 6 0 0 5 0 0 3 0 0 3 0 0 3 0 0 2 0 0 3 0 0 4 0 0 6 0 0 3 0 0 4 0 0 2 0 0 1 0 0 4 0 0 7 0 0 8 0 0 9 0 0 9 0 0 4 0 0 8 0 0 8 0 0 7 0 0 3 0 0 4 0 0 4 0 0 1 0 0 12 0 0 2 0 0 8 0 0 6 0 0 4 0 0 1 0 0 1 0 0 8 0 0 2 0 0 3 0 0 1 0 0 1 0 0 2 0 0 0 0 0 3 0 0 4 0 0 3 0 0 
2 0 0 4 0 0 5 0 0 3 0 0 5 0 0 7 0 0 2 0 0 4 0 0 3 0 0 4 0 0 9 0 0 7 0 0 3 0 0 8 0 0 5 0 0 2 0 0 5 0 0 11 0 0 10 0 0 6 0 0 3 0 0 8 0 0 3 0 0 3 0 0 5 0 0 3 0 0 4 0 0 3 0 0 5 0 0 3 0 0 5 0 0 2 0 0 8 0 0 7 0 0 11 0 0 4 0 0 7 0 0 6 0 0 6 0 0 5 0 0 4 0 0 3 0 0 9 0 0 12 0 0 6 0 0 5 0 0 8 0 0 1 0 0 1 0 0 6 0 0 9 0 0 2 0 0 3 0 0 3 0 0 2 0 0 1 0 0 5 0 0 2 0 0 3 0 0 0 0 0 
0 0 0 4 0 0 2 0 0 4 0 0 3 0 0 7 0 0 4 0 0 3 0 0 1 0 0 4 0 0 5 0 0 7 0 0 3 0 0 8 0 0 8 0 0 5 0 0 9 0 0 4 0 0 12 0 0 9 0 0 8 0 0 8 0 0 2 0 0 5 0 0 4 0 0 2 0 0 3 0 0 2 0 0 4 0 0 3 0 0 5 0 0 9 0 0 3 0 0 6 0 0 4 0 0 9 0 0 11 0 0 10 0 0 3 0 0 9 0 0 6 0 0 10 0 0 7 0 0 8 0 0 8 0 0 9 0 0 6 0 0 3 0 0 8 0 0 10 0 0 6 0 0 5 0 0 3 0 0 4 0 0 6 0 0 2 0 0 3 0 0 1 0 0 5 0 0 5 0 0 
2 0 0 2 0 0 3 0 0 1 0 0 3 0 0 4 0 0 6 0 0 5 0 0 4 0 0 6 0 0 6 0 0 11 0 0 0 0 0 5 0 0 11 0 0 7 0 0 7 0 0 7 0 0 7 0 0 11 0 0 7 0 0 11 0 0 8 0 0 10 0 0 4 0 0 7 0 0 6 0 0 12 0 0 6 0 0 5 0 0 7 0 0 8 0 0 9 0 0 6 0 0 9 0 0 7 0 0 11 0 0 6 0 0 5 0 0 9 0 0 10 0 0 10 0 0 9 0 0 7 0 0 12 0 0 11 0 0 6 0 0 4 0 0 12 0 0 11 0 0 3 0 0 5 0 0 6 0 0 1 0 0 4 0 0 7 0 0 3 0 0 8 0 0 5 0 0 5 0 0 
1 0 0 3 0 0 3 0 0 3 0 0 1 0 0 4 0 0 5 0 0 9 0 0 6 0 0 10 0 0 5 0 0 10 0 0 6 0 0 3 0 0 6 0 0 10 0 0 6 0 0 8 0 0 6 0 0 13 0 0 8 0 0 8 0 0 16 0 0 6 0 0 9 0 0 11 0 0 7 0 0 6 0 0 8 0 0 6 0 0 11 0 0 13 0 0 15 0 0 4 0 0 8 0 0 7 0 0 12 0 0 6 0 0 6 0 0 10 0 0 10 0 0 6 0 0 12 0 0 4 0 0 10 0 0 10 0 0 10 0 0 12 0 0 11 0 0 7 0 0 4 0 0 5 0 0 3 0 0 2 0 0 9 0 0 3 0 0 4 0 0 4 0 0 6 0 0 3 0 0 
2 0 0 6 0 0 4 0 0 4 0 0 5 0 0 1 0 0 2 0 0 4 0 0 10 0 0 11 0 0 9 0 0 7 0 0 12 0 0 7 0 0 9 0 0 7 0 0 5 0 0 13 0 0 5 0 0 8 0 0 13 0 0 12 0 0 10 0 0 16 0 0 11 0 0 13 0 0 12 0 0 9 0 0 20 0 0 12 0 0 7 0 0 21 0 0 13 0 0 9 0 0 8 0 0 9 0 0 10 0 0 14 0 0 11 0 0 10 0 0 9 0 0 13 0 0 13 0 0 6 0 0 10 0 0 11 0 0 13 0 0 11 0 0 11 0 0 6 0 0 6 0 0 6 0 0 1 0 0 6 0 0 6 0 0 4 0 0 7 0 0 6 0 0 4 0 0 4 0 0 
2 0 0 5 0 0 6 0 0 6 0 0 2 0 0 3 0 0 4 0 0 2 0 0 11 0 0 10 0 0 9 0 0 9 0 0 11 0 0 13 0 0 10 0 0 14 0 0 11 0 0 14 0 0 9 0 0 9 0 0 10 0 0 14 0 0 13 0 0 16 0 0 23 0 0 22 0 0 18 0 0 16 0 0 15 0 0 12 0 0 16 0 0 15 0 0 20 0 0 15 0 0 11 0 0 22 0 0 15 0 0 13 0 0 17 0 0 12 0 0 10 0 0 21 0 0 15 0 0 12 0 0 17 0 0 22 0 0 18 0 0 19 0 0 12 0 0 10 0 0 10 0 0 6 0 0 13 0 0 9 0 0 6 0 0 3 0 0 7 0 0 3 0 0 1 0 0 5 0 0 
1 0 0 2 0 0 2 0 0 6 0 0 5 0 0 2 0 0 5 0 0 6 0 0 12 0 0 15 0 0 38 0 0 55 0 0 60 0 0 61 0 0 66 0 0 68 0 0 55 0 0 59 0 0 72 0 0 53 0 0 71 0 0 77 0 0 59 0 0 55 0 0 51 0 0 61 0 0 71 0 0 56 0 0 71 0 0 65 0 0 62 0 0 56 0 0 65 0 0 64 0 0 70 0 0 65 0 0 56 0 0 71 0 0 69 0 0 61 0 0 56 0 0 59 0 0 69 0 0 75 0 0 84 0 0 71 0 0 62 0 0 69 0 0 58 0 0 61 0 0 37 0 0 12 0 0 7 0 0 6 0 0 2 0 0 6 0 0 3 0 0 4 0 0 4 0 0 5 0 0 
2 0 0 7 0 0 2 0 0 4 0 0 3 0 0 1 0 0 3 0 0 4 0 0 9 0 0 41 0 0 2103 0 0 4178 0 0 4291 0 0 4218 0 0 4241 0 0 4236 0 0 4027 0 0 4078 0 0 4167 0 0 4156 0 0 4175 0 0 4227 0 0 4099 0 0 4207 0 0 4155 0 0 4108 0 0 4207 0 0 4248 0 0 4176 0 0 4092 0 0 4227 0 0 4206 0 0 4123 0 0 4149 0 0 4205 0 0 4162 0 0 4161 0 0 4188 0 0 4228 0 0 4164 0 0 4154 0 0 4101 0 0 4236 0 0 4145 0 0 4078 0 0 4140 0 0 4096 0 0 4187 0 0 4160 0 0 4169 0 0 2050 0 0 34 0 0 11 0 0 10 0 0 8 0 0 3 0 0 9 0 0 4 0 0 5 0 0 6 0 0 
2 0 0 4 0 0 2 0 0 2 0 0 5 0 0 6 0 0 5 0 0 9 0 0 13 0 0 55 0 0 4142 0 0 8282 0 0 8262 0 0 8125 0 0 8249 0 0 8228 0 0 8285 0 0 8274 0 0 8269 0 0 8174 0 0 8219 0 0 8259 0 0 8344 0 0 8317 0 0 8232 0 0 8261 0 0 8161 0 0 8282 0 0 8156 0 0 8127 0 0 8183 0 0 8187 0 0 8308 0 0 8335 0 0 8310 0 0 8169 0 0 8214 0 0 8186 0 0 8202 0 0 8382 0 0 8265 0 0 8180 0 0 8379 0 0 8284 0 0 8393 0 0 8390 0 0 8306 0 0 8286 0 0 8180 0 0 8164 0 0 4153 0 0 59 0 0 12 0 0 13 0 0 5 0 0 7 0 0 11 0 0 8 0 0 9 0 0 5 0 0 
0 0 0 5 0 0 4 0 0 4 0 0 5 0 0 6 0 0 6 0 0 6 0 0 11 0 0 51 0 0 4145 0 0 8310 0 0 8408 0 0 8360 0 0 8362 0 0 8312 0 0 8312 0 0 8202 0 0 8297 0 0 8291 0 0 8253 0 0 8322 0 0 8242 0 0 8431 0 0 8173 0 0 8321 0 0 8265 0 0 8313 0 0 8273 0 0 8427 0 0 8282 0 0 8346 0 0 8385 0 0 8384 0 0 8391 0 0 8410 0 0 8303 0 0 8307 0 0 8359 0 0 8352 0 0 8358 0 0 8446 0 0 8211 0 0 8392 0 0 8361 0 0 8341 0 0 8323 0 0 8292 0 0 8135 0 0 8243 0 0 4155 0 0 61 0 0 15 0 0 9 0 0 5 0 0 8 0 0 6 0 0 3 0 0 2 0 0 2 0 0 
2 0 0 1 0 0 4 0 0 1 0 0 5 0 0 9 0 0 13 0 0 7 0 0 10 0 0 65 0 0 4173 0 0 8288 0 0 8379 0 0 8374 0 0 8337 0 0 8344 0 0 8201 0 0 8388 0 0 8251 0 0 8339 0 0 8336 0 0 8382 0 0 8370 0 0 8336 0 0 8308 0 0 8334 0 0 8242 0 0 8216 0 0 8381 0 0 8286 0 0 8396 0 0 8316 0 0 8393 0 0 8271 0 0 8306 0 0 8247 0 0 8239 0 0 8346 0 0 8438 0 0 8233 0 0 8160 0 0 8363 0 0 8206 0 0 8065 0 0 8250 0 0 8246 0 0 8450 0 0 8449 0 0 8279 0 0 8163 0 0 4165 0 0 65 0 0 18 0 0 13 0 0 5 0 0 12 0 0 3 0 0 3 0 0 2 0 0 0 0 0 
3 0 0 3 0 0 6 0 0 7 0 0 4 0 0 5 0 0 9 0 0 12 0 0 16 0 0 67 0 0 4157 0 0 8258 0 0 8253 0 0 8326 0 0 8364 0 0 8329 0 0 8264 0 0 8379 0 0 8264 0 0 8371 0 0 8342 0 0 8266 0 0 8261 0 0 8284 0 0 8266 0 0 8443 0 0 8375 0 0 8367 0 0 8301 0 0 8285 0 0 8285 0 0 8361 0 0 8364 0 0 8336 0 0 8313 0 0 8301 0 0 8335 0 0 8503 0 0 8439 0 0 8388 0 0 8285 0 0 8271 0 0 8133 0 0 8364 0 0 8261 0 0 8137 0 0 8137 0 0 8375 0 0 8240 0 0 8214 0 0 4109 0 0 62 0 0 12 0 0 13 0 0 10 0 0 3 0 0 5 0 0 8 0 0 4 0 0 2 0 0 
2 0 0 7 0 0 5 0 0 3 0 0 10 0 0 8 0 0 9 0 0 14 0 0 14 0 0 68 0 0 4199 0 0 8342 0 0 8357 0 0 8330 0 0 8235 0 0 8370 0 0 8339 0 0 8238 0 0 8340 0 0 8365 0 0 8321 0 0 8557 0 0 8225 0 0 8345 0 0 8212 0 0 8182 0 0 8358 0 0 8316 0 0 8403 0 0 8191 0 0 8218 0 0 8236 0 0 8246 0 0 8257 0 0 8277 0 0 8401 0 0 8319 0 0 8360 0 0 8409 0 0 8160 0 0 8389 0 0 8257 0 0 8192 0 0 8245 0 0 8410 0 0 8246 0 0 8344 0 0 8345 0 0 8291 0 0 8338 0 0 4220 0 0 56 0 0 10 0 0 9 0 0 5 0 0 4 0 0 6 0 0 4 0 0 7 0 0 5 0 0 
0 0 0 1 0 0 5 0 0 5 0 0 7 0 0 10 0 0 9 0 0 7 0 0 14 0 0 62 0 0 4176 0 0 8341 0 0 8459 0 0 8273 0 0 8320 0 0 8253 0 0 8356 0 0 8227 0 0 8318 0 0 8288 0 0 8344 0 0 8221 0 0 8238 0 0 8363 0 0 8331 0 0 8530 0 0 8361 0 0 8308 0 0 8253 0 0 8290 0 0 8308 0 0 8350 0 0 8228 0 0 8340 0 0 8385 0 0 8136 0 0 8441 0 0 8298 0 0 8285 0 0 8404 0 0 8271 0 0 8286 0 0 8266 0 0 8365 0 0 8263 0 0 8312 0 0 8183 0 0 8263 0 0 8522 0 0 8285 0 0 4159 0 0 60 0 0 16 0 0 14 0 0 8 0 0 7 0 0 7 0 0 11 0 0 7 0 0 5 0 0 
1 0 0 2 0 0 1 0 0 6 0 0 3 0 0 6 0 0 10 0 0 13 0 0 14 0 0 48 0 0 4100 0 0 8201 0 0 8401 0 0 8164 0 0 8390 0 0 8361 0 0 8201 0 0 8330 0 0 8182 0 0 8239 0 0 8233 0 0 8292 0 0 8353 0 0 8349 0 0 8301 0 0 8351 0 0 8194 0 0 8429 0 0 8231 0 0 8247 0 0 8565 0 0 8388 0 0 8242 0 0 8355 0 0 8440 0 0 8221 0 0 8327 0 0 8359 0 0 8385 0 0 8366 0 0 8521 0 0 8379 0 0 8373 0 0 8374 0 0 8420 0 0 8264 0 0 8228 0 0 8337 0 0 8176 0 0 8248 0 0 4145 0 0 57 0 0 17 0 0 9 0 0 9 0 0 8 0 0 7 0 0 7 0 0 6 0 0 3 0 0 
2 0 0 8 0 0 8 0 0 9 0 0 3 0 0 7 0 0 11 0 0 13 0 0 6 0 0 57 0 0 4145 0 0 8255 0 0 8240 0 0 8378 0 0 8264 0 0 8293 0 0 8203 0 0 8224 0 0 8320 0 0 8355 0 0 8325 0 0 8352 0 0 8223 0 0 8144 0 0 8229 0 0 8288 0 0 8212 0 0 8407 0 0 8287 0 0 8275 0 0 8415 0 0 8340 0 0 8272 0 0 8332 0 0 8358 0 0 8521 0 0 8382 0 0 8283 0 0 8320 0 0 8238 0 0 8437 0 0 8287 0 0 8306 0 0 8429 0 0 8395 0 0 8344 0 0 8443 0 0 8343 0 0 8447 0 0 8293 0 0 4092 0 0 68 0 0 15 0 0 17 0 0 12 0 0 4 0 0 2 0 0 2 0 0 1 0 0 3 0 0 
2 0 0 3 0 0 2 0 0 4 0 0 7 0 0 8 0 0 9 0 0 12 0 0 26 0 0 70 0 0 4096 0 0 8161 0 0 8318 0 0 8310 0 0 8418 0 0 8248 0 0 8257 0 0 8529 0 0 8290 0 0 8345 0 0 8343 0 0 8306 0 0 8427 0 0 8387 0 0 8280 0 0 8372 0 0 8411 0 0 8254 0 0 8369 0 0 8267 0 0 8330 0 0 8391 0 0 8232 0 0 8293 0 0 8293 0 0 8416 0 0 8309 0 0 8473 0 0 8397 0 0 8405 0 0 8226 0 0 8228 0 0 8313 0 0 8315 0 0 8375 0 0 8344 0 0 8261 0 0 8266 0 0 8360 0 0 8275 0 0 4091 0 0 57 0 0 8 0 0 7 0 0 7 0 0 7 0 0 8 0 0 3 0 0 4 0 0 3 0 0 
1 0 0 5 0 0 4 0 0 9 0 0 10 0 0 13 0 0 14 0 0 16 0 0 16 0 0 58 0 0 4205 0 0 8326 0 0 8479 0 0 8340 0 0 8371 0 0 8284 0 0 8336 0 0 8338 0 0 8417 0 0 8302 0 0 8345 0 0 8339 0 0 8218 0 0 8314 0 0 8460 0 0 8352 0 0 8320 0 0 8354 0 0 8261 0 0 8326 0 0 8264 0 0 8271 0 0 8278 0 0 8256 0 0 8204 0 0 8271 0 0 8125 0 0 8296 0 0 8319 0 0 8250 0 0 8193 0 0 8371 0 0 8484 0 0 8347 0 0 8476 0 0 8372 0 0 8200 0 0 8286 0 0 8215 0 0 8209 0 0 4094 0 0 64 0 0 18 0 0 7 0 0 7 0 0 4 0 0 6 0 0 6 0 0 6 0 0 3 0 0 
1 0 0 3 0 0 5 0 0 7 0 0 8 0 0 7 0 0 4 0 0 7 0 0 12 0 0 74 0 0 4243 0 0 8295 0 0 8333 0 0 8303 0 0 8308 0 0 8349 0 0 8377 0 0 8421 0 0 8245 0 0 8403 0 0 8379 0 0 8212 0 0 8228 0 0 8277 0 0 8347 0 0 8311 0 0 8431 0 0 8224 0 0 8437 0 0 8388 0 0 8127 0 0 8297 0 0 8252 0 0 8168 0 0 8240 0 0 8312 0 0 8268 0 0 8430 0 0 8375 0 0 8281 0 0 8290 0 0 8303 0 0 8321 0 0 8408 0 0 8279 0 0 8232 0 0 8311 0 0 8097 0 0 8388 0 0 8215 0 0 4125 0 0 72 0 0 9 0 0 13 0 0 7 0 0 8 0 0 6 0 0 3 0 0 2 0 0 8 0 0 
2 0 0 3 0 0 4 0 0 8 0 0 8 0 0 7 0 0 7 0 0 11 0 0 13 0 0 67 0 0 4274 0 0 8161 0 0 8203 0 0 8164 0 0 8295 0 0 8237 0 0 8470 0 0 8324 0 0 8477 0 0 8299 0 0 8317 0 0 8338 0 0 8339 0 0 8319 0 0 8418 0 0 8248 0 0 8289 0 0 8357 0 0 8332 0 0 8238 0 0 8258 0 0 8420 0 0 8354 0 0 8338 0 0 8294 0 0 8285 0 0 8309 0 0 8265 0 0 8256 0 0 8379 0 0 8360 0 0 8216 0 0 8416 0 0 8231 0 0 8322 0 0 8460 0 0 8255 0 0 8299 0 0 8358 0 0 8206 0 0 4140 0 0 60 0 0 18 0 0 16 0 0 11 0 0 8 0 0 10 0 0 7 0 0 9 0 0 4 0 0 
5 0 0 5 0 0 9 0 0 12 0 0 8 0 0 12 0 0 7 0 0 14 0 0 14 0 0 67 0 0 4152 0 0 8492 0 0 8288 0 0 8471 0 0 8261 0 0 8299 0 0 8323 0 0 8333 0 0 8464 0 0 8452 0 0 8365 0 0 8300 0 0 8355 0 0 8289 0 0 8430 0 0 8351 0 0 8507 0 0 8200 0 0 8395 0 0 8343 0 0 8264 0 0 8365 0 0 8169 0 0 8232 0 0 8321 0 0 8271 0 0 8362 0 0 8362 0 0 8256 0 0 8278 0 0 8307 0 0 8282 0 0 8273 0 0 8383 0 0 8298 0 0 8247 0 0 8321 0 0 8414 0 0 8341 0 0 8128 0 0 4238 0 0 74 0 0 12 0 0 12 0 0 9 0 0 5 0 0 1 0 0 3 0 0 6 0 0 6 0 0 
2 0 0 4 0 0 7 0 0 8 0 0 8 0 0 12 0 0 10 0 0 12 0 0 19 0 0 73 0 0 4205 0 0 8190 0 0 8295 0 0 8359 0 0 8448 0 0 8531 0 0 8349 0 0 8263 0 0 8252 0 0 8507 0 0 8236 0 0 8296 0 0 8387 0 0 8189 0 0 8308 0 0 8406 0 0 8273 0 0 8393 0 0 8337 0 0 8327 0 0 8287 0 0 8409 0 0 8279 0 0 8392 0 0 8382 0 0 8194 0 0 8329 0 0 8444 0 0 8271 0 0 8281 0 0 8311 0 0 8333 0 0 8266 0 0 8341 0 0 8269 0 0 8289 0 0 8318 0 0 8133 0 0 8307 0 0 8238 0 0 4214 0 0 54 0 0 12 0 0 8 0 0 8 0 0 5 0 0 8 0 0 6 0 0 10 0 0 8 0 0 
0 0 0 1 0 0 3 0 0 7 0 0 13 0 0 12 0 0 7 0 0 8 0 0 15 0 0 51 0 0 4156 0 0 8268 0 0 8220 0 0 8356 0 0 8374 0 0 8074 0 0 8344 0 0 8283 0 0 8359 0 0 8333 0 0 8460 0 0 8255 0 0 8123 0 0 8308 0 0 8440 0 0 8281 0 0 8443 0 0 8355 0 0 8267 0 0 8310 0 0 8375 0 0 8288 0 0 8239 0 0 8280 0 0 8252 0 0 8243 0 0 8345 0 0 8315 0 0 8284 0 0 8284 0 0 8331 0 0 8307 0 0 8305 0 0 8439 0 0 8219 0 0 8219 0 0 8422 0 0 8377 0 0 8307 0 0 8259 0 0 4120 0 0 62 0 0 13 0 0 12 0 0 4 0 0 10 0 0 8 0 0 3 0 0 3 0 0 4 0 0 
1 0 0 5 0 0 5 0 0 5 0 0 10 0 0 11 0 0 12 0 0 8 0 0 13 0 0 65 0 0 4142 0 0 8324 0 0 8289 0 0 8315 0 0 8281 0 0 8279 0 0 8307 0 0 8310 0 0 8325 0 0 8363 0 0 8403 0 0 8341 0 0 8173 0 0 8241 0 0 8223 0 0 8298 0 0 8299 0 0 8346 0 0 8328 0 0 8346 0 0 8445 0 0 8317 0 0 8243 0 0 8339 0 0 8460 0 0 8318 0 0 8489 0 0 8250 0 0 8320 0 0 8356 0 0 8368 0 0 8219 0 0 8374 0 0 8304 0 0 8310 0 0 8254 0 0 8332 0 0 8325 0 0 8300 0 0 8228 0 0 4148 0 0 66 0 0 14 0 0 6 0 0 12 0 0 8 0 0 8 0 0 8 0 0 4 0 0 4 0 0 
1 0 0 3 0 0 2 0 0 4 0 0 2 0 0 7 0 0 10 0 0 21 0 0 20 0 0 73 0 0 4226 0 0 8200 0 0 8311 0 0 8327 0 0 8321 0 0 8299 0 0 8367 0 0 8363 0 0 8314 0 0 8315 0 0 8312 0 0 8421 0 0 8302 0 0 8442 0 0 8277 0 0 8337 0 0 8399 0 0 8180 0 0 8367 0 0 8298 0 0 8372 0 0 8377 0 0 8426 0 0 8406 0 0 8385 0 0 8303 0 0 8174 0 0 8378 0 0 8243 0 0 8262 0 0 8391 0 0 8172 0 0 8376 0 0 8392 0 0 8309 0 0 8296 0 0 8347 0 0 8329 0 0 8303 0 0 8360 0 0 4066 0 0 56 0 0 12 0 0 9 0 0 10 0 0 7 0 0 7 0 0 5 0 0 5 0 0 2 0 0 
1 0 0 1 0 0 6 0 0 4 0 0 1 0 0 10 0 0 14 0 0 13 0 0 16 0 0 66 0 0 4288 0 0 8390 0 0 8358 0 0 8309 0 0 8367 0 0 8250 0 0 8173 0 0 8229 0 0 8330 0 0 8332 0 0 8373 0 0 8368 0 0 8313 0 0 8300 0 0 8323 0 0 8277 0 0 8408 0 0 8204 0 0 8394 0 0 8352 0 0 8361 0 0 8322 0 0 8406 0 0 8353 0 0 8292 0 0 8424 0 0 8372 0 0 8226 0 0 8378 0 0 8418 0 0 8319 0 0 8244 0 0 8314 0 0 8422 0 0 8312 0 0 8375 0 0 8410 0 0 8170 0 0 8378 0 0 8317 0 0 4143 0 0 67 0 0 11 0 0 13 0 0 7 0 0 8 0 0 7 0 0 5 0 0 7 0 0 2 0 0 
2 0 0 7 0 0 5 0 0 4 0 0 7 0 0 6 0 0 13 0 0 11 0 0 15 0 0 67 0 0 4118 0 0 8335 0 0 8342 0 0 8276 0 0 8372 0 0 8271 0 0 8364 0 0 8284 0 0 8345 0 0 8174 0 0 8388 0 0 8248 0 0 8195 0 0 8172 0 0 8195 0 0 8224 0 0 8335 0 0 8251 0 0 8255 0 0 8382 0 0 8226 0 0 8225 0 0 8402 0 0 8403 0 0 8403 0 0 8331 0 0 8376 0 0 8250 0 0 8261 0 0 8456 0 0 8293 0 0 8229 0 0 8379 0 0 8277 0 0 8324 0 0 8332 0 0 8361 0 0 8231 0 0 8386 0 0 8286 0 0 4173 0 0 77 0 0 12 0 0 12 0 0 12 0 0 10 0 0 10 0 0 4 0 0 2 0 0 2 0 0 
1 0 0 2 0 0 10 0 0 10 0 0 12 0 0 5 0 0 11 0 0 16 0 0 17 0 0 61 0 0 4247 0 0 8191 0 0 8381 0 0 8348 0 0 8318 0 0 8360 0 0 8203 0 0 8300 0 0 8538 0 0 8320 0 0 8234 0 0 8350 0 0 8293 0 0 8377 0 0 8437 0 0 8295 0 0 8322 0 0 8424 0 0 8103 0 0 8349 0 0 8279 0 0 8351 0 0 8489 0 0 8321 0 0 8325 0 0 8469 0 0 8251 0 0 8213 0 0 8494 0 0 8386 0 0 8361 0 0 8335 0 0 8230 0 0 8394 0 0 8432 0 0 8354 0 0 8328 0 0 8275 0 0 8290 0 0 8235 0 0 4022 0 0 79 0 0 13 0 0 9 0 0 10 0 0 11 0 0 7 0 0 8 0 0 5 0 0 6 0 0 
3 0 0 7 0 0 6 0 0 8 0 0 11 0 0 11 0 0 13 0 0 16 0 0 17 0 0 67 0 0 4081 0 0 8151 0 0 8230 0 0 8333 0 0 8276 0 0 8267 0 0 8290 0 0 8155 0 0 8352 0 0 8236 0 0 8143 0 0 8254 0 0 8404 0 0 8248 0 0 8309 0 0 8477 0 0 8237 0 0 8299 0 0 8381 0 0 8297 0 0 8442 0 0 8266 0 0 8256 0 0 8354 0 0 8297 0 0 8300 0 0 8150 0 0 8275 0 0 8436 0 0 8438 0 0 8228 0 0 8237 0 0 8367 0 0 8435 0 0 8359 0 0 8369 0 0 8329 0 0 8431 0 0 8337 0 0 8235 0 0 4213 0 0 68 0 0 17 0 0 15 0 0 10 0 0 9 0 0 7 0 0 4 0 0 4 0 0 5 0 0 
3 0 0 5 0 0 6 0 0 4 0 0 7 0 0 11 0 0 17 0 0 17 0 0 14 0 0 66 0 0 4226 0 0 8361 0 0 8160 0 0 8292 0 0 8245 0 0 8220 0 0 8242 0 0 8339 0 0 8355 0 0 8403 0 0 8355 0 0 8447 0 0 8395 0 0 8333 0 0 8314 0 0 8259 0 0 8254 0 0 8491 0 0 8333 0 0 8359 0 0 8094 0 0 8441 0 0 8256 0 0 8305 0 0 8414 0 0 8327 0 0 8331 0 0 8308 0 0 8277 0 0 8278 0 0 8366 0 0 8369 0 0 8302 0 0 8399 0 0 8415 0 0 8372 0 0 8351 0 0 8197 0 0 8330 0 0 8140 0 0 4082 0 0 64 0 0 17 0 0 18 0 0 14 0 0 8 0 0 12 0 0 8 0 0 6 0 0 5 0 0 
1 0 0 8 0 0 5 0 0 2 0 0 10 0 0 13 0 0 12 0 0 11 0 0 11 0 0 68 0 0 4176 0 0 8239 0 0 8297 0 0 8193 0 0 8163 0 0 8382 0 0 8312 0 0 8601 0 0 8338 0 0 8344 0 0 8186 0 0 8130 0 0 8363 0 0 8296 0 0 8368 0 0 8444 0 0 8277 0 0 8457 0 0 8327 0 0 8346 0 0 8282 0 0 8252 0 0 8362 0 0 8275 0 0 8235 0 0 8305 0 0 8364 0 0 8376 0 0 8368 0 0 8274 0 0 8436 0 0 8307 0 0 8342 0 0 8234 0 0 8311 0 0 8260 0 0 8322 0 0 8330 0 0 8386 0 0 8319 0 0 4185 0 0 58 0 0 25 0 0 15 0 0 13 0 0 15 0 0 10 0 0 7 0 0 6 0 0 5 0 0 
2 0 0 7 0 0 6 0 0 8 0 0 7 0 0 8 0 0 4 0 0 12 0 0 22 0 0 65 0 0 4118 0 0 8339 0 0 8305 0 0 8164 0 0 8355 0 0 8245 0 0 8300 0 0 8409 0 0 8198 0 0 8251 0 0 8296 0 0 8262 0 0 8308 0 0 8310 0 0 8278 0 0 8294 0 0 8307 0 0 8360 0 0 8289 0 0 8296 0 0 8289 0 0 8350 0 0 8288 0 0 8320 0 0 8302 0 0 8388 0 0 8318 0 0 8190 0 0 8382 0 0 8401 0 0 8471 0 0 8335 0 0 8424 0 0 8362 0 0 8352 0 0 8337 0 0 8507 0 0 8296 0 0 8316 0 0 8172 0 0 4172 0 0 68 0 0 9 0 0 11 0 0 8 0 0 2 0 0 3 0 0 8 0 0 5 0 0 3 0 0 
1 0 0 4 0 0 8 0 0 4 0 0 4 0 0 10 0 0 14 0 0 14 0 0 15 0 0 54 0 0 4157 0 0 8198 0 0 8344 0 0 8301 0 0 8196 0 0 8370 0 0 8222 0 0 8311 0 0 8319 0 0 8442 0 0 8238 0 0 8281 0 0 8437 0 0 8336 0 0 8483 0 0 8238 0 0 8342 0 0 8420 0 0 8230 0 0 8390 0 0 8314 0 0 8439 0 0 8418 0 0 8168 0 0 8288 0 0 8157 0 0 8281 0 0 8366 0 0 8239 0 0 8382 0 0 8312 0 0 8400 0 0 8274 0 0 8261 0 0 8324 0 0 8246 0 0 8347 0 0 8374 0 0 8468 0 0 8249 0 0 4167 0 0 62 0 0 17 0 0 11 0 0 8 0 0 8 0 0 9 0 0 3 0 0 4 0 0 4 0 0 
4 0 0 6 0 0 6 0 0 5 0 0 10 0 0 13 0 0 15 0 0 17 0 0 18 0 0 71 0 0 4181 0 0 8216 0 0 8264 0 0 8409 0 0 8233 0 0 8336 0 0 8240 0 0 8320 0 0 8394 0 0 8360 0 0 8307 0 0 8276 0 0 8326 0 0 8266 0 0 8368 0 0 8353 0 0 8461 0 0 8440 0 0 8243 0 0 8219 0 0 8457 0 0 8351 0 0 8253 0 0 8379 0 0 8310 0 0 8420 0 0 8282 0 0 8303 0 0 8218 0 0 8188 0 0 8365 0 0 8299 0 0 8394 0 0 8243 0 0 8426 0 0 8320 0 0 8392 0 0 8226 0 0 8385 0 0 8299 0 0 4313 0 0 63 0 0 25 0 0 9 0 0 3 0 0 4 0 0 5 0 0 6 0 0 8 0 0 5 0 0 
3 0 0 5 0 0 10 0 0 14 0 0 17 0 0 12 0 0 12 0 0 8 0 0 9 0 0 69 0 0 4159 0 0 8249 0 0 8274 0 0 8286 0 0 8295 0 0 8514 0 0 8262 0 0 8291 0 0 8507 0 0 8349 0 0 8343 0 0 8350 0 0 8416 0 0 8416 0 0 8253 0 0 8168 0 0 8279 0 0 8375 0 0 8338 0 0 8416 0 0 8333 0 0 8461 0 0 8212 0 0 8252 0 0 8267 0 0 8333 0 0 8370 0 0 8342 0 0 8365 0 0 8403 0 0 8322 0 0 8420 0 0 8327 0 0 8340 0 0 8322 0 0 8295 0 0 8197 0 0 8347 0 0 8519 0 0 8301 0 0 4155 0 0 62 0 0 13 0 0 11 0 0 11 0 0 4 0 0 2 0 0 4 0 0 8 0 0 5 0 0 
0 0 0 9 0 0 11 0 0 14 0 0 11 0 0 8 0 0 8 0 0 15 0 0 19 0 0 83 0 0 4196 0 0 8348 0 0 8312 0 0 8362 0 0 8441 0 0 8211 0 0 8345 0 0 8196 0 0 8317 0 0 8299 0 0 8377 0 0 8470 0 0 8171 0 0 8295 0 0 8344 0 0 8289 0 0 8430 0 0 8208 0 0 8391 0 0 8540 0 0 8276 0 0 8349 0 0 8306 0 0 8413 0 0 8294 0 0 8229 0 0 8283 0 0 8306 0 0 8204 0 0 8413 0 0 8256 0 0 8303 0 0 8222 0 0 8449 0 0 8299 0 0 8455 0 0 8341 0 0 8324 0 0 8337 0 0 8293 0 0 4209 0 0 66 0 0 15 0 0 10 0 0 9 0 0 10 0 0 6 0 0 6 0 0 5 0 0 3 0 0 
5 0 0 12 0 0 7 0 0 5 0 0 4 0 0 9 0 0 12 0 0 15 0 0 17 0 0 47 0 0 4147 0 0 8270 0 0 8298 0 0 8326 0 0 8393 0 0 8292 0 0 8272 0 0 8336 0 0 8469 0 0 8240 0 0 8332 0 0 8413 0 0 8232 0 0 8187 0 0 8360 0 0 8318 0 0 8505 0 0 8369 0 0 8463 0 0 8342 0 0 8448 0 0 8390 0 0 8265 0 0 8403 0 0 8343 0 0 8393 0 0 8302 0 0 8337 0 0 8312 0 0 8280 0 0 8465 0 0 8419 0 0 8302 0 0 8311 0 0 8284 0 0 8283 0 0 8353 0 0 8289 0 0 8118 0 0 8187 0 0 4177 0 0 62 0 0 18 0 0 11 0 0 12 0 0 12 0 0 11 0 0 7 0 0 4 0 0 3 0 0 
1 0 0 7 0 0 8 0 0 5 0 0 7 0 0 7 0 0 10 0 0 8 0 0 9 0 0 56 0 0 4200 0 0 8154 0 0 8352 0 0 8386 0 0 8326 0 0 8258 0 0 8399 0 0 8337 0 0 8427 0 0 8248 0 0 8292 0 0 8243 0 0 8285 0 0 8194 0 0 8286 0 0 8294 0 0 8459 0 0 8479 0 0 8383 0 0 8354 0 0 8392 0 0 8307 0 0 8458 0 0 8321 0 0 8140 0 0 8211 0 0 8392 0 0 8399 0 0 8401 0 0 8448 0 0 8255 0 0 8276 0 0 8253 0 0 8574 0 0 8344 0 0 8279 0 0 8298 0 0 8188 0 0 8144 0 0 8142 0 0 4232 0 0 56 0 0 9 0 0 6 0 0 5 0 0 6 0 0 5 0 0 8 0 0 7 0 0 6 0 0 
2 0 0 4 0 0 3 0 0 2 0 0 3 0 0 7 0 0 7 0 0 5 0 0 9 0 0 59 0 0 4204 0 0 8329 0 0 8255 0 0 8338 0 0 8290 0 0 8382 0 0 8362 0 0 8334 0 0 8231 0 0 8090 0 0 8537 0 0 8235 0 0 8432 0 0 8509 0 0 8253 0 0 8208 0 0 8183 0 0 8432 0 0 8108 0 0 8429 0 0 8216 0 0 8363 0 0 8429 0 0 8262 0 0 8363 0 0 8232 0 0 8283 0 0 8313 0 0 8367 0 0 8204 0 0 8235 0 0 8319 0 0 8525 0 0 8346 0 0 8345 0 0 8388 0 0 8350 0 0 8352 0 0 8398 0 0 8241 0 0 4153 0 0 64 0 0 13 0 0 11 0 0 3 0 0 8 0 0 7 0 0 7 0 0 4 0 0 7 0 0 
2 0 0 1 0 0 5 0 0 3 0 0 7 0 0 8 0 0 6 0 0 10 0 0 13 0 0 66 0 0 4041 0 0 8316 0 0 8335 0 0 8435 0 0 8327 0 0 8321 0 0 8428 0 0 8307 0 0 8178 0 0 8310 0 0 8398 0 0 8380 0 0 8417 0 0 8324 0 0 8335 0 0 8323 0 0 8187 0 0 8348 0 0 8364 0 0 8394 0 0 8389 0 0 8263 0 0 8256 0 0 8283 0 0 8372 0 0 8282 0 0 8391 0 0 8244 0 0 8337 0 0 8441 0 0 8333 0 0 8381 0 0 8372 0 0 8265 0 0 8250 0 0 8369 0 0 8239 0 0 8458 0 0 8317 0 0 8260 0 0 4052 0 0 62 0 0 19 0 0 8 0 0 5 0 0 6 0 0 9 0 0 5 0 0 3 0 0 2 0 0 
1 0 0 2 0 0 3 0 0 2 0 0 7 0 0 10 0 0 5 0 0 11 0 0 15 0 0 57 0 0 4145 0 0 8256 0 0 8275 0 0 8262 0 0 8306 0 0 8236 0 0 8374 0 0 8273 0 0 8306 0 0 8222 0 0 8333 0 0 8339 0 0 8267 0 0 8270 0 0 8360 0 0 8171 0 0 8297 0 0 8461 0 0 8183 0 0 8396 0 0 8402 0 0 8423 0 0 8225 0 0 8411 0 0 8143 0 0 8148 0 0 8379 0 0 8360 0 0 8383 0 0 8403 0 0 8358 0 0 8171 0 0 8201 0 0 8244 0 0 8329 0 0 8349 0 0 8334 0 0 8274 0 0 8450 0 0 8275 0 0 4199 0 0 66 0 0 14 0 0 11 0 0 6 0 0 5 0 0 5 0 0 7 0 0 6 0 0 3 0 0 
2 0 0 4 0 0 5 0 0 8 0 0 5 0 0 4 0 0 8 0 0 10 0 0 8 0 0 76 0 0 4200 0 0 8194 0 0 8320 0 0 8375 0 0 8289 0 0 8089 0 0 8397 0 0 8434 0 0 8170 0 0 8218 0 0 8132 0 0 8302 0 0 8285 0 0 8407 0 0 8395 0 0 8206 0 0 8346 0 0 8186 0 0 8317 0 0 8179 0 0 8256 0 0 8333 0 0 8473 0 0 8325 0 0 8390 0 0 8309 0 0 8247 0 0 8300 0 0 8366 0 0 8286 0 0 8422 0 0 8171 0 0 8398 0 0 8341 0 0 8266 0 0 8315 0 0 8341 0 0 8376 0 0 8367 0 0 8224 0 0 4168 0 0 48 0 0 13 0 0 14 0 0 14 0 0 3 0 0 7 0 0 6 0 0 7 0 0 2 0 0 
0 0 0 2 0 0 3 0 0 5 0 0 6 0 0 7 0 0 9 0 0 13 0 0 16 0 0 61 0 0 4111 0 0 8164 0 0 8459 0 0 8366 0 0 8311 0 0 8302 0 0 8237 0 0 8335 0 0 8305 0 0 8156 0 0 8433 0 0 8351 0 0 8421 0 0 8315 0 0 8314 0 0 8440 0 0 8431 0 0 8246 0 0 8547 0 0 8430 0 0 8429 0 0 8279 0 0 8321 0 0 8380 0 0 8392 0 0 8374 0 0 8462 0 0 8298 0 0 8445 0 0 8179 0 0 8302 0 0 8265 0 0 8226 0 0 8258 0 0 8215 0 0 8292 0 0 8318 0 0 8298 0 0 8235 0 0 8220 0 0 4169 0 0 56 0 0 9 0 0 9 0 0 11 0 0 8 0 0 6 0 0 7 0 0 8 0 0 5 0 0 
0 0 0 3 0 0 5 0 0 5 0 0 7 0 0 9 0 0 7 0 0 6 0 0 12 0 0 56 0 0 4147 0 0 8241 0 0 8279 0 0 8325 0 0 8226 0 0 8244 0 0 8260 0 0 8288 0 0 8225 0 0 8356 0 0 8421 0 0 8358 0 0 8399 0 0 8226 0 0 8222 0 0 8236 0 0 8247 0 0 8289 0 0 8312 0 0 8286 0 0 8322 0 0 8411 0 0 8320 0 0 8249 0 0 8395 0 0 8378 0 0 8299 0 0 8315 0 0 8295 0 0 8337 0 0 8339 0 0 8261 0 0 8390 0 0 8284 0 0 8286 0 0 8272 0 0 8372 0 0 8367 0 0 8187 0 0 8217 0 0 4146 0 0 65 0 0 12 0 0 8 0 0 3 0 0 7 0 0 11 0 0 7 0 0 4 0 0 4 0 0 
4 0 0 4 0 0 2 0 0 3 0 0 5 0 0 8 0 0 8 0 0 9 0 0 8 0 0 60 0 0 4160 0 0 8431 0 0 8344 0 0 8310 0 0 8328 0 0 8284 0 0 8234 0 0 8218 0 0 8136 0 0 8329 0 0 8308 0 0 8170 0 0 8363 0 0 8446 0 0 8379 0 0 8252 0 0 8129 0 0 8327 0 0 8340 0 0 8405 0 0 8314 0 0 8402 0 0 8279 0 0 8296 0 0 8237 0 0 8287 0 0 8612 0 0 8484 0 0 8384 0 0 8324 0 0 8336 0 0 8280 0 0 8265 0 0 8194 0 0 8266 0 0 8220 0 0 8202 0 0 8205 0 0 8381 0 0 8364 0 0 4142 0 0 62 0 0 10 0 0 7 0 0 8 0 0 4 0 0 3 0 0 4 0 0 7 0 0 6 0 0 
1 0 0 4 0 0 2 0 0 5 0 0 2 0 0 4 0 0 3 0 0 7 0 0 7 0 0 43 0 0 4105 0 0 8267 0 0 8359 0 0 8273 0 0 8276 0 0 8212 0 0 8308 0 0 8414 0 0 8228 0 0 8337 0 0 8348 0 0 8331 0 0 8238 0 0 8250 0 0 8462 0 0 8406 0 0 8220 0 0 8332 0 0 8365 0 0 8383 0 0 8217 0 0 8215 0 0 8375 0 0 8411 0 0 8470 0 0 8196 0 0 8550 0 0 8378 0 0 8324 0 0 8291 0 0 8141 0 0 8246 0 0 8359 0 0 8325 0 0 8289 0 0 8352 0 0 8388 0 0 8225 0 0 8493 0 0 8393 0 0 4247 0 0 54 0 0 11 0 0 6 0 0 8 0 0 4 0 0 5 0 0 2 0 0 6 0 0 5 0 0 
1 0 0 4 0 0 4 0 0 0 0 0 3 0 0 5 0 0 3 0 0 4 0 0 4 0 0 53 0 0 4140 0 0 8198 0 0 8248 0 0 8228 0 0 8232 0 0 8174 0 0 8290 0 0 8318 0 0 8224 0 0 8193 0 0 8333 0 0 8391 0 0 8331 0 0 8207 0 0 8467 0 0 8173 0 0 8126 0 0 8276 0 0 8348 0 0 8170 0 0 8344 0 0 8264 0 0 8162 0 0 8344 0 0 8265 0 0 8260 0 0 8267 0 0 8158 0 0 8276 0 0 8272 0 0 8271 0 0 8217 0 0 8254 0 0 8351 0 0 8231 0 0 8219 0 0 8159 0 0 8290 0 0 8168 0 0 8174 0 0 4168 0 0 52 0 0 10 0 0 7 0 0 6 0 0 3 0 0 5 0 0 5 0 0 5 0 0 6 0 0 
4 0 0 5 0 0 3 0 0 5 0 0 7 0 0 7 0 0 4 0 0 4 0 0 9 0 0 31 0 0 2160 0 0 4145 0 0 4056 0 0 4170 0 0 4071 0 0 4084 0 0 4146 0 0 4107 0 0 4171 0 0 4201 0 0 4168 0 0 4088 0 0 4221 0 0 4191 0 0 4222 0 0 4166 0 0 4183 0 0 4146 0 0 4163 0 0 4166 0 0 4084 0 0 4181 0 0 4157 0 0 4203 0 0 4160 0 0 4186 0 0 4212 0 0 4145 0 0 4072 0 0 4168 0 0 4178 0 0 4193 0 0 4139 0 0 4163 0 0 4106 0 0 4128 0 0 4173 0 0 4212 0 0 4244 0 0 4138 0 0 2117 0 0 24 0 0 8 0 0 10 0 0 3 0 0 3 0 0 1 0 0 4 0 0 9 0 0 6 0 0 
1 0 0 2 0 0 3 0 0 4 0 0 7 0 0 4 0 0 1 0 0 3 0 0 3 0 0 13 0 0 35 0 0 64 0 0 56 0 0 60 0 0 56 0 0 67 0 0 76 0 0 64 0 0 64 0 0 65 0 0 70 0 0 66 0 0 61 0 0 59 0 0 57 0 0 70 0 0 58 0 0 63 0 0 73 0 0 63 0 0 48 0 0 68 0 0 71 0 0 71 0 0 77 0 0 66 0 0 58 0 0 70 0 0 64 0 0 69 0 0 68 0 0 62 0 0 61 0 0 69 0 0 69 0 0 63 0 0 67 0 0 57 0 0 68 0 0 52 0 0 36 0 0 11 0 0 8 0 0 9 0 0 2 0 0 3 0 0 4 0 0 2 0 0 1 0 0 1 0 0 
1 0 0 4 0 0 3 0 0 3 0 0 7 0 0 2 0 0 4 0 0 4 0 0 5 0 0 7 0 0 8 0 0 8 0 0 13 0 0 14 0 0 17 0 0 14 0 0 12 0 0 11 0 0 13 0 0 18 0 0 10 0 0 19 0 0 14 0 0 10 0 0 15 0 0 15 0 0 15 0 0 16 0 0 12 0 0 14 0 0 8 0 0 11 0 0 20 0 0 24 0 0 21 0 0 13 0 0 10 0 0 18 0 0 13 0 0 16 0 0 15 0 0 11 0 0 7 0 0 15 0 0 20 0 0 17 0 0 9 0 0 5 0 0 7 0 0 9 0 0 6 0 0 10 0 0 2 0 0 8 0 0 6 0 0 0 0 0 0 0 0 1 0 0 0 0 0 0 0 0 
1 0 0 3 0 0 3 0 0 3 0 0 4 0 0 4 0 0 1 0 0 5 0 0 10 0 0 5 0 0 5 0 0 5 0 0 13 0 0 12 0 0 13 0 0 5 0 0 7 0 0 9 0 0 13 0 0 10 0 0 9 0 0 12 0 0 7 0 0 20 0 0 11 0 0 11 0 0 10 0 0 6 0 0 6 0 0 7 0 0 6 0 0 15 0 0 12 0 0 12 0 0 12 0 0 8 0 0 11 0 0 11 0 0 9 0 0 10 0 0 17 0 0 12 0 0 12 0 0 12 0 0 12 0 0 11 0 0 8 0 0 11 0 0 6 0 0 9 0 0 7 0 0 4 0 0 12 0 0 3 0 0 4 0 0 6 0 0 1 0 0 3 0 0 2 0 0 1 0 0 
1 0 0 2 0 0 1 0 0 2 0 0 5 0 0 2 0 0 2 0 0 11 0 0 7 0 0 3 0 0 4 0 0 7 0 0 8 0 0 7 0 0 8 0 0 8 0 0 6 0 0 6 0 0 7 0 0 6 0 0 8 0 0 8 0 0 4 0 0 7 0 0 12 0 0 6 0 0 8 0 0 7 0 0 4 0 0 5 0 0 9 0 0 15 0 0 12 0 0 7 0 0 10 0 0 12 0 0 9 0 0 10 0 0 4 0 0 4 0 0 11 0 0 11 0 0 10 0 0 16 0 0 9 0 0 10 0 0 8 0 0 12 0 0 3 0 0 9 0 0 6 0 0 7 0 0 3 0 0 8 0 0 3 0 0 2 0 0 4 0 0 1 0 0 2 0 0 1 0 0 
0 0 0 0 0 0 6 0 0 3 0 0 3 0 0 3 0 0 7 0 0 11 0 0 5 0 0 3 0 0 1 0 0 7 0 0 5 0 0 7 0 0 10 0 0 9 0 0 5 0 0 2 0 0 7 0 0 4 0 0 6 0 0 7 0 0 11 0 0 4 0 0 15 0 0 8 0 0 7 0 0 4 0 0 8 0 0 6 0 0 6 0 0 11 0 0 14 0 0 13 0 0 7 0 0 11 0 0 4 0 0 8 0 0 6 0 0 4 0 0 10 0 0 7 0 0 13 0 0 14 0 0 10 0 0 11 0 0 2 0 0 7 0 0 8 0 0 8 0 0 7 0 0 4 0 0 1 0 0 3 0 0 6 0 0 4 0 0 1 0 0 1 0 0 0 0 0 2 0 0 
1 0 0 6 0 0 4 0 0 1 0 0 2 0 0 3 0 0 5 0 0 3 0 0 3 0 0 2 0 0 1 0 0 10 0 0 5 0 0 8 0 0 6 0 0 6 0 0 6 0 0 4 0 0 7 0 0 3 0 0 6 0 0 7 0 0 2 0 0 3 0 0 9 0 0 7 0 0 2 0 0 1 0 0 7 0 0 5 0 0 7 0 0 13 0 0 10 0 0 12 0 0 9 0 0 9 0 0 7 0 0 9 0 0 6 0 0 3 0 0 8 0 0 7 0 0 9 0 0 8 0 0 10 0 0 10 0 0 6 0 0 6 0 0 8 0 0 6 0 0 7 0 0 1 0 0 1 0 0 1 0 0 4 0 0 7 0 0 1 0 0 1 0 0 0 0 0 0 0 0 
1 0 0 2 0 0 2 0 0 3 0 0 5 0 0 2 0 0 2 0 0 3 0 0 4 0 0 1 0 0 3 0 0 4 0 0 2 0 0 5 0 0 4 0 0 0 0 0 9 0 0 2 0 0 6 0 0 6 0 0 5 0 0 8 0 0 0 0 0 11 0 0 8 0 0 6 0 0 4 0 0 2 0 0 9 0 0 2 0 0 6 0 0 10 0 0 6 0 0 10 0 0 8 0 0 11 0 0 7 0 0 5 0 0 5 0 0 5 0 0 7 0 0 3 0 0 4 0 0 8 0 0 5 0 0 7 0 0 9 0 0 7 0 0 6 0 0 3 0 0 3 0 0 3 0 0 1 0 0 1 0 0 3 0 0 1 0 0 4 0 0 2 0 0 0 0 0 1 0 0 
0 0 0 1 0 0 3 0 0 6 0 0 3 0 0 3 0 0 4 0 0 3 0 0 5 0 0 3 0 0 4 0 0 3 0 0 2 0 0 6 0 0 0 0 0 1 0 0 5 0 0 2 0 0 5 0 0 8 0 0 5 0 0 2 0 0 5 0 0 4 0 0 7 0 0 5 0 0 5 0 0 4 0 0 7 0 0 4 0 0 4 0 0 6 0 0 9 0 0 8 0 0 4 0 0 6 0 0 4 0 0 5 0 0 4 0 0 5 0 0 10 0 0 5 0 0 5 0 0 6 0 0 6 0 0 5 0 0 3 0 0 7 0 0 1 0 0 3 0 0 2 0 0 2 0 0 1 0 0 0 0 0 3 0 0 2 0 0 3 0 0 4 0 0 2 0 0 2 0 0 
0 0 0 0 0 0 2 0 0 5 0 0 1 0 0 4 0 0 0 0 0 1 0 0 2 0 0 4 0 0 3 0 0 2 0 0 1 0 0 6 0 0 1 0 0 1 0 0 2 0 0 2 0 0 3 0 0 10 0 0 7 0 0 3 0 0 5 0 0 1 0 0 6 0 0 4 0 0 4 0 0 6 0 0 7 0 0 6 0 0 4 0 0 8 0 0 8 0 0 8 0 0 5 0 0 3 0 0 3 0 0 9 0 0 4 0 0 4 0 0 4 0 0 5 0 0 11 0 0 7 0 0 4 0 0 4 0 0 5 0 0 4 0 0 2 0 0 2 0 0 2 0 0 0 0 0 7 0 0 1 0 0 2 0 0 2 0 0 5 0 0 2 0 0 4 0 0 1 0 0 
