P3
# This is a dose file slice at depth 98 of 100
60 60
# now we give the maximum value of the RGB coordinates.
21610
0 0 0 0 0 0 0 0 0 0 0 0 0 0 0 0 0 0 0 0 0 0 0 0 0 0 0 0 0 0 0 0 0 0 0 0 1 0 0 0 0 0 0 0 0 1 0 0 0 0 0 2 0 0 1 0 0 0 0 0 0 0 0 0 0 0 0 0 0 1 0 0 0 0 0 0 0 0 1 0 0 0 0 0 0 0 0 1 0 0 0 0 0 0 0 0 1 0 0 0 0 0 0 0 0 0 0 0 0 0 0 0 0 0 0 0 0 0 0 0 1 0 0 1 0 0 1 0 0 0 0 0 1 0 0 0 0 0 0 0 0 0 0 0 0 0 0 0 0 0 0 0 0 0 0 0 0 0 0 0 0 0 0 0 0 0 0 0 0 0 0 0 0 0 1 0 0 0 0 0 
0 0 0 0 0 0 1 0 0 0 0 0 0 0 0 0 0 0 0 0 0 0 0 0 0 0 0 0 0 0 0 0 0 0 0 0 1 0 0 1 0 0 0 0 0 0 0 0 3 0 0 0 0 0 2 0 0 3 0 0 2 0 0 0 0 0 1 0 0 1 0 0 0 0 0 0 0 0 1 0 0 0 0 0 0 0 0 6 0 0 0 0 0 0 0 0 1 0 0 0 0 0 0 0 0 1 0 0 2 0 0 0 0 0 1 0 0 0 0 0 4 0 0 0 0 0 1 0 0 1 0 0 1 0 0 0 0 0 0 0 0 1 0 0 0 0 0 0 0 0 0 0 0 0 0 0 0 0 0 0 0 0 0 0 0 0 0 0 0 0 0 2 0 0 0 0 0 0 0 0 
0 0 0 0 0 0 1 0 0 0 0 0 1 0 0 0 0 0 0 0 0 2 0 0 0 0 0 0 0 0 1 0 0 0 0 0 2 0 0 0 0 0 1 0 0 0 0 0 0 0 0 1 0 0 0 0 0 1 0 0 3 0 0 0 0 0 2 0 0 1 0 0 0 0 0 1 0 0 1 0 0 0 0 0 1 0 0 3 0 0 1 0 0 0 0 0 3 0 0 1 0 0 2 0 0 0 0 0 1 0 0 0 0 0 3 0 0 2 0 0 1 0 0 0 0 0 0 0 0 2 0 0 1 0 0 0 0 0 0 0 0 1 0 0 1 0 0 1 0 0 2 0 0 0 0 0 0 0 0 0 0 0 0 0 0 0 0 0 1 0 0 0 0 0 2 0 0 0 0 0 
0 0 0 0 0 0 0 0 0 0 0 0 2 0 0 0 0 0 0 0 0 0 0 0 0 0 0 1 0 0 0 0 0 0 0 0 0 0 0 0 0 0 0 0 0 0 0 0 0 0 0 0 0 0 0 0 0 2 0 0 0 0 0 2 0 0 0 0 0 0 0 0 0 0 0 2 0 0 1 0 0 2 0 0 2 0 0 3 0 0 0 0 0 0 0 0 2 0 0 3 0 0 1 0 0 0 0 0 1 0 0 2 0 0 2 0 0 2 0 0 2 0 0 1 0 0 0 0 0 0 0 0 1 0 0 2 0 0 0 0 0 1 0 0 1 0 0 1 0 0 1 0 0 0 0 0 0 0 0 0 0 0 0 0 0 1 0 0 0 0 0 1 0 0 0 0 0 0 0 0 
0 0 0 1 0 0 0 0 0 0 0 0 1 0 0 2 0 0 0 0 0 0 0 0 0 0 0 1 0 0 0 0 0 0 0 0 2 0 0 0 0 0 0 0 0 0 0 0 0 0 0 0 0 0 2 0 0 3 0 0 3 0 0 1 0 0 2 0 0 1 0 0 0 0 0 0 0 0 2 0 0 2 0 0 1 0 0 2 0 0 0 0 0 0 0 0 1 0 0 2 0 0 2 0 0 1 0 0 2 0 0 0 0 0 3 0 0 1 0 0 1 0 0 0 0 0 0 0 0 0 0 0 0 0 0 0 0 0 0 0 0 1 0 0 1 0 0 0 0 0 0 0 0 0 0 0 0 0 0 0 0 0 0 0 0 1 0 0 1 0 0 0 0 0 0 0 0 1 0 0 
0 0 0 0 0 0 1 0 0 0 0 0 0 0 0 0 0 0 0 0 0 0 0 0 0 0 0 1 0 0 2 0 0 1 0 0 3 0 0 1 0 0 0 0 0 1 0 0 1 0 0 1 0 0 1 0 0 3 0 0 2 0 0 0 0 0 0 0 0 2 0 0 1 0 0 1 0 0 1 0 0 2 0 0 1 0 0 0 0 0 0 0 0 2 0 0 0 0 0 2 0 0 1 0 0 3 0 0 1 0 0 3 0 0 3 0 0 1 0 0 1 0 0 3 0 0 0 0 0 0 0 0 1 0 0 2 0 0 0 0 0 2 0 0 1 0 0 0 0 0 0 0 0 0 0 0 0 0 0 0 0 0 2 0 0 0 0 0 0 0 0 0 0 0 0 0 0 0 0 0 
0 0 0 0 0 0 3 0 0 3 0 0 4 0 0 2 0 0 0 0 0 1 0 0 0 0 0 0 0 0 0 0 0 1 0 0 0 0 0 0 0 0 1 0 0 4 0 0 3 0 0 1 0 0 3 0 0 5 0 0 2 0 0 0 0 0 1 0 0 0 0 0 1 0 0 1 0 0 2 0 0 1 0 0 2 0 0 1 0 0 0 0 0 1 0 0 3 0 0 4 0 0 5 0 0 0 0 0 5 0 0 4 0 0 3 0 0 2 0 0 4 0 0 2 0 0 1 0 0 1 0 0 1 0 0 1 0 0 2 0 0 0 0 0 1 0 0 2 0 0 1 0 0 0 0 0 0 0 0 1 0 0 2 0 0 1 0 0 0 0 0 0 0 0 1 0 0 1 0 0 
0 0 0 0 0 0 0 0 0 0 0 0 3 0 0 0 0 0 3 0 0 1 0 0 2 0 0 0 0 0 2 0 0 1 0 0 1 0 0 0 0 0 2 0 0 4 0 0 2 0 0 2 0 0 5 0 0 2 0 0 1 0 0 4 0 0 1 0 0 0 0 0 0 0 0 6 0 0 1 0 0 2 0 0 3 0 0 1 0 0 0 0 0 0 0 0 5 0 0 1 0 0 7 0 0 5 0 0 4 0 0 5 0 0 1 0 0 2 0 0 2 0 0 0 0 0 0 0 0 2 0 0 1 0 0 3 0 0 1 0 0 1 0 0 0 0 0 0 0 0 0 0 0 0 0 0 1 0 0 3 0 0 0 0 0 0 0 0 0 0 0 1 0 0 0 0 0 0 0 0 
0 0 0 0 0 0 0 0 0 0 0 0 0 0 0 0 0 0 0 0 0 2 0 0 2 0 0 1 0 0 5 0 0 2 0 0 5 0 0 4 0 0 0 0 0 1 0 0 3 0 0 2 0 0 6 0 0 5 0 0 1 0 0 4 0 0 3 0 0 3 0 0 2 0 0 2 0 0 4 0 0 4 0 0 3 0 0 7 0 0 2 0 0 0 0 0 4 0 0 7 0 0 5 0 0 3 0 0 12 0 0 4 0 0 4 0 0 6 0 0 3 0 0 2 0 0 2 0 0 6 0 0 2 0 0 1 0 0 2 0 0 1 0 0 1 0 0 2 0 0 2 0 0 3 0 0 2 0 0 0 0 0 0 0 0 1 0 0 2 0 0 0 0 0 0 0 0 0 0 0 
0 0 0 0 0 0 0 0 0 1 0 0 0 0 0 0 0 0 0 0 0 0 0 0 2 0 0 4 0 0 7 0 0 12 0 0 13 0 0 16 0 0 6 0 0 12 0 0 8 0 0 15 0 0 12 0 0 10 0 0 11 0 0 16 0 0 13 0 0 13 0 0 14 0 0 17 0 0 13 0 0 15 0 0 15 0 0 17 0 0 16 0 0 13 0 0 12 0 0 16 0 0 12 0 0 13 0 0 14 0 0 14 0 0 11 0 0 11 0 0 13 0 0 12 0 0 16 0 0 20 0 0 12 0 0 14 0 0 14 0 0 11 0 0 19 0 0 9 0 0 4 0 0 0 0 0 2 0 0 3 0 0 1 0 0 2 0 0 1 0 0 0 0 0 0 0 0 1 0 0 
0 0 0 0 0 0 0 0 0 0 0 0 0 0 0 3 0 0 0 0 0 0 0 0 2 0 0 6 0 0 458 0 0 942 0 0 915 0 0 976 0 0 940 0 0 922 0 0 904 0 0 912 0 0 930 0 0 990 0 0 948 0 0 953 0 0 977 0 0 974 0 0 940 0 0 945 0 0 951 0 0 956 0 0 926 0 0 958 0 0 923 0 0 932 0 0 1009 0 0 938 0 0 985 0 0 933 0 0 941 0 0 989 0 0 960 0 0 946 0 0 962 0 0 955 0 0 953 0 0 932 0 0 1019 0 0 960 0 0 950 0 0 946 0 0 925 0 0 972 0 0 473 0 0 10 0 0 0 0 0 1 0 0 1 0 0 3 0 0 0 0 0 0 0 0 0 0 0 0 0 0 
0 0 0 1 0 0 1 0 0 2 0 0 1 0 0 0 0 0 1 0 0 1 0 0 0 0 0 5 0 0 903 0 0 1831 0 0 1822 0 0 1890 0 0 1836 0 0 1875 0 0 1852 0 0 1870 0 0 1858 0 0 1873 0 0 1922 0 0 1900 0 0 1848 0 0 1799 0 0 1862 0 0 1949 0 0 1829 0 0 1939 0 0 1916 0 0 1881 0 0 1922 0 0 1833 0 0 1877 0 0 1953 0 0 1905 0 0 1853 0 0 1891 0 0 1843 0 0 1858 0 0 1867 0 0 1928 0 0 1894 0 0 1808 0 0 1870 0 0 1830 0 0 1874 0 0 1866 0 0 1916 0 0 1853 0 0 1856 0 0 908 0 0 11 0 0 1 0 0 3 0 0 5 0 0 0 0 0 0 0 0 0 0 0 2 0 0 0 0 0 
0 0 0 1 0 0 2 0 0 2 0 0 0 0 0 0 0 0 0 0 0 0 0 0 3 0 0 15 0 0 937 0 0 1899 0 0 1844 0 0 1790 0 0 1915 0 0 1854 0 0 1861 0 0 1871 0 0 1945 0 0 1859 0 0 1917 0 0 1932 0 0 1878 0 0 1884 0 0 1904 0 0 1838 0 0 1924 0 0 1922 0 0 1916 0 0 1874 0 0 1861 0 0 1849 0 0 1868 0 0 1860 0 0 1903 0 0 1860 0 0 1884 0 0 1914 0 0 1879 0 0 1889 0 0 1901 0 0 1854 0 0 1859 0 0 1835 0 0 1850 0 0 1880 0 0 1876 0 0 1863 0 0 1917 0 0 1832 0 0 904 0 0 13 0 0 4 0 0 0 0 0 1 0 0 1 0 0 0 0 0 0 0 0 0 0 0 0 0 0 
0 0 0 0 0 0 0 0 0 1 0 0 2 0 0 1 0 0 0 0 0 0 0 0 5 0 0 10 0 0 933 0 0 1931 0 0 1919 0 0 1854 0 0 1908 0 0 1902 0 0 1855 0 0 1854 0 0 1879 0 0 1894 0 0 1915 0 0 1892 0 0 1836 0 0 1832 0 0 1861 0 0 1949 0 0 1857 0 0 1931 0 0 1837 0 0 1913 0 0 1899 0 0 1937 0 0 1949 0 0 1920 0 0 1926 0 0 1886 0 0 1880 0 0 1919 0 0 1804 0 0 1893 0 0 1866 0 0 1881 0 0 2006 0 0 1826 0 0 1925 0 0 1807 0 0 1859 0 0 1800 0 0 1818 0 0 1844 0 0 908 0 0 12 0 0 2 0 0 0 0 0 0 0 0 0 0 0 1 0 0 1 0 0 0 0 0 1 0 0 
0 0 0 0 0 0 0 0 0 0 0 0 0 0 0 3 0 0 3 0 0 1 0 0 3 0 0 10 0 0 931 0 0 1908 0 0 1947 0 0 1826 0 0 1874 0 0 1936 0 0 1924 0 0 1948 0 0 1919 0 0 1967 0 0 1955 0 0 1976 0 0 1959 0 0 1872 0 0 1874 0 0 1797 0 0 1918 0 0 1873 0 0 1902 0 0 1882 0 0 1863 0 0 1938 0 0 1944 0 0 1864 0 0 1876 0 0 1958 0 0 1862 0 0 1823 0 0 1857 0 0 1872 0 0 1860 0 0 1909 0 0 1935 0 0 1871 0 0 1850 0 0 1920 0 0 1945 0 0 1900 0 0 1806 0 0 1960 0 0 977 0 0 8 0 0 3 0 0 2 0 0 0 0 0 3 0 0 1 0 0 1 0 0 2 0 0 2 0 0 
0 0 0 0 0 0 1 0 0 1 0 0 0 0 0 0 0 0 5 0 0 4 0 0 2 0 0 20 0 0 1003 0 0 1868 0 0 1895 0 0 1840 0 0 1973 0 0 1878 0 0 1941 0 0 1860 0 0 1866 0 0 1905 0 0 1857 0 0 1856 0 0 1834 0 0 1893 0 0 1938 0 0 1906 0 0 1870 0 0 1823 0 0 1874 0 0 1870 0 0 1875 0 0 1881 0 0 1872 0 0 1939 0 0 1858 0 0 1905 0 0 2019 0 0 1874 0 0 1878 0 0 1883 0 0 1892 0 0 1926 0 0 1862 0 0 1830 0 0 1879 0 0 1931 0 0 1909 0 0 1936 0 0 1933 0 0 1914 0 0 931 0 0 12 0 0 4 0 0 2 0 0 3 0 0 3 0 0 3 0 0 2 0 0 1 0 0 1 0 0 
1 0 0 1 0 0 0 0 0 1 0 0 1 0 0 1 0 0 3 0 0 3 0 0 5 0 0 16 0 0 949 0 0 1895 0 0 1895 0 0 1870 0 0 1919 0 0 1896 0 0 1915 0 0 1900 0 0 1879 0 0 1911 0 0 1923 0 0 1875 0 0 1904 0 0 1857 0 0 1909 0 0 1834 0 0 1933 0 0 1917 0 0 1936 0 0 1812 0 0 1869 0 0 1901 0 0 1954 0 0 1874 0 0 1836 0 0 1918 0 0 1904 0 0 1854 0 0 1907 0 0 1974 0 0 1988 0 0 1920 0 0 1829 0 0 1938 0 0 1927 0 0 1866 0 0 1886 0 0 1868 0 0 1882 0 0 1904 0 0 945 0 0 19 0 0 2 0 0 5 0 0 6 0 0 1 0 0 2 0 0 3 0 0 0 0 0 0 0 0 
0 0 0 3 0 0 0 0 0 0 0 0 2 0 0 0 0 0 1 0 0 3 0 0 6 0 0 12 0 0 926 0 0 1943 0 0 1910 0 0 1858 0 0 1934 0 0 1886 0 0 1892 0 0 1844 0 0 1896 0 0 1893 0 0 1894 0 0 1854 0 0 1882 0 0 1887 0 0 1884 0 0 1903 0 0 1890 0 0 1840 0 0 1898 0 0 1886 0 0 1894 0 0 1862 0 0 1976 0 0 1936 0 0 1928 0 0 1888 0 0 1931 0 0 1948 0 0 1903 0 0 1872 0 0 1927 0 0 1902 0 0 1889 0 0 1930 0 0 1837 0 0 1868 0 0 1879 0 0 1889 0 0 1774 0 0 1911 0 0 884 0 0 13 0 0 6 0 0 3 0 0 2 0 0 3 0 0 0 0 0 1 0 0 0 0 0 0 0 0 
1 0 0 0 0 0 0 0 0 3 0 0 2 0 0 3 0 0 0 0 0 2 0 0 5 0 0 15 0 0 979 0 0 1897 0 0 1868 0 0 1902 0 0 1873 0 0 1864 0 0 1897 0 0 1848 0 0 1874 0 0 1935 0 0 1908 0 0 1882 0 0 1834 0 0 1963 0 0 1906 0 0 1855 0 0 1924 0 0 1840 0 0 1920 0 0 1887 0 0 1856 0 0 1878 0 0 1834 0 0 1905 0 0 1940 0 0 1931 0 0 1869 0 0 1829 0 0 1882 0 0 1897 0 0 1930 0 0 1893 0 0 1887 0 0 1889 0 0 1874 0 0 1862 0 0 1845 0 0 1917 0 0 1871 0 0 1875 0 0 963 0 0 11 0 0 6 0 0 2 0 0 1 0 0 2 0 0 0 0 0 1 0 0 1 0 0 0 0 0 
0 0 0 0 0 0 0 0 0 0 0 0 0 0 0 1 0 0 3 0 0 1 0 0 3 0 0 14 0 0 923 0 0 1783 0 0 1878 0 0 1889 0 0 1842 0 0 1902 0 0 1797 0 0 1857 0 0 1899 0 0 1886 0 0 1911 0 0 1888 0 0 1844 0 0 1876 0 0 1868 0 0 1942 0 0 1904 0 0 1861 0 0 1868 0 0 1856 0 0 1891 0 0 1913 0 0 1914 0 0 1950 0 0 1871 0 0 1928 0 0 1899 0 0 1798 0 0 1892 0 0 1951 0 0 1878 0 0 1904 0 0 1901 0 0 1846 0 0 1875 0 0 1916 0 0 1926 0 0 1884 0 0 1949 0 0 1869 0 0 931 0 0 11 0 0 4 0 0 2 0 0 1 0 0 1 0 0 0 0 0 0 0 0 2 0 0 1 0 0 
0 0 0 0 0 0 0 0 0 0 0 0 0 0 0 0 0 0 1 0 0 3 0 0 3 0 0 11 0 0 965 0 0 1822 0 0 1859 0 0 1894 0 0 1896 0 0 1874 0 0 1943 0 0 1959 0 0 1922 0 0 1921 0 0 1971 0 0 1875 0 0 1891 0 0 1904 0 0 1801 0 0 1937 0 0 1856 0 0 1846 0 0 1857 0 0 1887 0 0 1866 0 0 1888 0 0 1837 0 0 1793 0 0 1921 0 0 1941 0 0 1913 0 0 1885 0 0 1874 0 0 1902 0 0 1845 0 0 1923 0 0 1900 0 0 1924 0 0 1931 0 0 1906 0 0 1935 0 0 1894 0 0 1920 0 0 1961 0 0 930 0 0 13 0 0 1 0 0 0 0 0 2 0 0 1 0 0 0 0 0 0 0 0 0 0 0 1 0 0 
1 0 0 2 0 0 0 0 0 1 0 0 0 0 0 2 0 0 1 0 0 4 0 0 3 0 0 19 0 0 967 0 0 1942 0 0 1792 0 0 1855 0 0 1895 0 0 1858 0 0 1941 0 0 1899 0 0 1900 0 0 1939 0 0 1904 0 0 1862 0 0 1923 0 0 1875 0 0 1877 0 0 1941 0 0 1926 0 0 1789 0 0 1973 0 0 1905 0 0 1890 0 0 1869 0 0 1912 0 0 1909 0 0 1929 0 0 1886 0 0 1893 0 0 1890 0 0 1925 0 0 1844 0 0 1947 0 0 1925 0 0 1816 0 0 1890 0 0 1928 0 0 1981 0 0 1842 0 0 1921 0 0 1895 0 0 1850 0 0 958 0 0 9 0 0 1 0 0 4 0 0 0 0 0 1 0 0 2 0 0 1 0 0 0 0 0 0 0 0 
0 0 0 0 0 0 0 0 0 1 0 0 2 0 0 1 0 0 2 0 0 0 0 0 2 0 0 8 0 0 927 0 0 1965 0 0 1856 0 0 1861 0 0 1939 0 0 1901 0 0 1885 0 0 1896 0 0 1872 0 0 1904 0 0 1863 0 0 1804 0 0 1861 0 0 1856 0 0 1875 0 0 1950 0 0 1922 0 0 1918 0 0 1858 0 0 1869 0 0 1874 0 0 1917 0 0 1887 0 0 1918 0 0 1922 0 0 1839 0 0 1870 0 0 1877 0 0 1873 0 0 1803 0 0 1873 0 0 1930 0 0 1829 0 0 1826 0 0 1931 0 0 1942 0 0 1847 0 0 1864 0 0 1906 0 0 1839 0 0 954 0 0 14 0 0 0 0 0 0 0 0 0 0 0 0 0 0 1 0 0 1 0 0 3 0 0 0 0 0 
1 0 0 1 0 0 2 0 0 0 0 0 0 0 0 0 0 0 2 0 0 0 0 0 2 0 0 7 0 0 938 0 0 1868 0 0 1869 0 0 1888 0 0 1870 0 0 1932 0 0 1889 0 0 1911 0 0 1887 0 0 1937 0 0 1892 0 0 1885 0 0 1931 0 0 1874 0 0 1897 0 0 1939 0 0 1879 0 0 1857 0 0 1934 0 0 1875 0 0 1911 0 0 1798 0 0 1886 0 0 1886 0 0 1897 0 0 1850 0 0 1853 0 0 1836 0 0 1896 0 0 1872 0 0 1892 0 0 1848 0 0 1971 0 0 1911 0 0 1917 0 0 1942 0 0 1883 0 0 1884 0 0 1876 0 0 1911 0 0 956 0 0 13 0 0 4 0 0 1 0 0 1 0 0 2 0 0 3 0 0 2 0 0 1 0 0 0 0 0 
1 0 0 3 0 0 3 0 0 3 0 0 2 0 0 1 0 0 1 0 0 2 0 0 5 0 0 14 0 0 914 0 0 1923 0 0 1891 0 0 1818 0 0 1922 0 0 1868 0 0 1869 0 0 1832 0 0 1932 0 0 1890 0 0 1908 0 0 1977 0 0 1953 0 0 1898 0 0 1947 0 0 1924 0 0 1882 0 0 1904 0 0 1920 0 0 1858 0 0 1845 0 0 1863 0 0 1954 0 0 1887 0 0 1856 0 0 1874 0 0 1895 0 0 1924 0 0 1893 0 0 1939 0 0 1877 0 0 1891 0 0 1904 0 0 1933 0 0 1940 0 0 1844 0 0 1941 0 0 1921 0 0 1893 0 0 1887 0 0 926 0 0 18 0 0 4 0 0 0 0 0 1 0 0 2 0 0 3 0 0 2 0 0 3 0 0 3 0 0 
0 0 0 1 0 0 3 0 0 1 0 0 1 0 0 0 0 0 2 0 0 1 0 0 2 0 0 13 0 0 911 0 0 1889 0 0 1903 0 0 1829 0 0 1858 0 0 1816 0 0 1862 0 0 1978 0 0 1878 0 0 1880 0 0 1814 0 0 2005 0 0 1908 0 0 1938 0 0 1947 0 0 1856 0 0 1906 0 0 1893 0 0 1883 0 0 1947 0 0 1832 0 0 1940 0 0 1898 0 0 1921 0 0 1908 0 0 1930 0 0 1892 0 0 1814 0 0 1954 0 0 1973 0 0 1951 0 0 1906 0 0 1852 0 0 1839 0 0 1889 0 0 1885 0 0 1863 0 0 1884 0 0 1927 0 0 1908 0 0 943 0 0 18 0 0 6 0 0 5 0 0 2 0 0 1 0 0 0 0 0 1 0 0 3 0 0 2 0 0 
0 0 0 2 0 0 1 0 0 0 0 0 2 0 0 0 0 0 2 0 0 1 0 0 5 0 0 13 0 0 962 0 0 1911 0 0 1880 0 0 1872 0 0 1919 0 0 1857 0 0 1882 0 0 1937 0 0 1851 0 0 1952 0 0 1816 0 0 1908 0 0 1901 0 0 1878 0 0 1841 0 0 1881 0 0 1937 0 0 1913 0 0 1906 0 0 1935 0 0 1917 0 0 1925 0 0 1887 0 0 1956 0 0 1942 0 0 1928 0 0 1908 0 0 1823 0 0 1879 0 0 1882 0 0 1851 0 0 1918 0 0 1894 0 0 1938 0 0 1937 0 0 1910 0 0 1837 0 0 1845 0 0 1839 0 0 1857 0 0 961 0 0 16 0 0 2 0 0 0 0 0 1 0 0 2 0 0 1 0 0 0 0 0 3 0 0 3 0 0 
0 0 0 0 0 0 0 0 0 0 0 0 1 0 0 1 0 0 1 0 0 1 0 0 3 0 0 12 0 0 993 0 0 1870 0 0 1869 0 0 1958 0 0 1927 0 0 1898 0 0 1900 0 0 1785 0 0 1915 0 0 1919 0 0 1862 0 0 1904 0 0 1846 0 0 1913 0 0 1924 0 0 1909 0 0 1910 0 0 1955 0 0 1863 0 0 1874 0 0 1882 0 0 1858 0 0 1865 0 0 1890 0 0 1869 0 0 1859 0 0 1917 0 0 1894 0 0 1894 0 0 1949 0 0 1911 0 0 1874 0 0 1845 0 0 1892 0 0 1867 0 0 1867 0 0 1852 0 0 1908 0 0 1827 0 0 1900 0 0 965 0 0 14 0 0 3 0 0 1 0 0 1 0 0 3 0 0 0 0 0 0 0 0 0 0 0 0 0 0 
0 0 0 1 0 0 0 0 0 0 0 0 2 0 0 4 0 0 5 0 0 3 0 0 3 0 0 11 0 0 968 0 0 1868 0 0 1886 0 0 1854 0 0 1872 0 0 1895 0 0 1769 0 0 1932 0 0 1886 0 0 1875 0 0 1924 0 0 1855 0 0 1860 0 0 1988 0 0 1845 0 0 1890 0 0 1888 0 0 1904 0 0 1859 0 0 1880 0 0 1885 0 0 1966 0 0 1888 0 0 1922 0 0 1831 0 0 1858 0 0 1865 0 0 1863 0 0 1862 0 0 1894 0 0 1851 0 0 1869 0 0 1890 0 0 1907 0 0 1898 0 0 1855 0 0 1894 0 0 1917 0 0 1887 0 0 1933 0 0 946 0 0 11 0 0 5 0 0 4 0 0 3 0 0 0 0 0 1 0 0 0 0 0 1 0 0 1 0 0 
0 0 0 1 0 0 0 0 0 0 0 0 4 0 0 3 0 0 2 0 0 6 0 0 2 0 0 16 0 0 911 0 0 1868 0 0 1895 0 0 1926 0 0 1852 0 0 1858 0 0 1938 0 0 1933 0 0 1893 0 0 1884 0 0 1913 0 0 1843 0 0 1910 0 0 1922 0 0 1878 0 0 1894 0 0 1885 0 0 1885 0 0 1858 0 0 1861 0 0 1961 0 0 1855 0 0 1876 0 0 1891 0 0 1909 0 0 1895 0 0 1926 0 0 1879 0 0 1864 0 0 1813 0 0 1931 0 0 1890 0 0 1937 0 0 1982 0 0 1864 0 0 1899 0 0 1909 0 0 1951 0 0 1890 0 0 1899 0 0 907 0 0 15 0 0 4 0 0 3 0 0 1 0 0 3 0 0 0 0 0 0 0 0 0 0 0 0 0 0 
1 0 0 3 0 0 0 0 0 0 0 0 2 0 0 0 0 0 1 0 0 3 0 0 2 0 0 12 0 0 948 0 0 1870 0 0 1891 0 0 1850 0 0 1860 0 0 1853 0 0 1854 0 0 1873 0 0 1799 0 0 1830 0 0 1793 0 0 1928 0 0 1926 0 0 1877 0 0 1961 0 0 1894 0 0 1852 0 0 1854 0 0 1863 0 0 1894 0 0 1907 0 0 1891 0 0 1864 0 0 1826 0 0 1896 0 0 1910 0 0 1883 0 0 1914 0 0 1906 0 0 1917 0 0 1935 0 0 1868 0 0 1844 0 0 1854 0 0 1849 0 0 1860 0 0 1907 0 0 1972 0 0 1908 0 0 1901 0 0 974 0 0 17 0 0 7 0 0 3 0 0 5 0 0 1 0 0 1 0 0 0 0 0 0 0 0 0 0 0 
0 0 0 1 0 0 1 0 0 0 0 0 0 0 0 1 0 0 2 0 0 3 0 0 5 0 0 15 0 0 940 0 0 1862 0 0 1927 0 0 1848 0 0 1846 0 0 1913 0 0 1888 0 0 1914 0 0 1877 0 0 1880 0 0 1917 0 0 1818 0 0 1894 0 0 1791 0 0 1944 0 0 1944 0 0 1899 0 0 1853 0 0 1845 0 0 1890 0 0 1861 0 0 1921 0 0 1861 0 0 1879 0 0 1900 0 0 1870 0 0 1910 0 0 1907 0 0 1842 0 0 1903 0 0 1888 0 0 1916 0 0 1870 0 0 1895 0 0 1859 0 0 1832 0 0 1884 0 0 1876 0 0 1897 0 0 1829 0 0 1016 0 0 13 0 0 4 0 0 3 0 0 6 0 0 2 0 0 0 0 0 0 0 0 3 0 0 0 0 0 
0 0 0 0 0 0 0 0 0 2 0 0 4 0 0 4 0 0 3 0 0 7 0 0 4 0 0 20 0 0 894 0 0 1909 0 0 1865 0 0 1859 0 0 1867 0 0 1916 0 0 1907 0 0 1923 0 0 1916 0 0 1963 0 0 1954 0 0 1896 0 0 1966 0 0 1926 0 0 1932 0 0 1858 0 0 1852 0 0 1891 0 0 1906 0 0 1823 0 0 1915 0 0 1930 0 0 1851 0 0 1887 0 0 1892 0 0 1900 0 0 1806 0 0 1878 0 0 1929 0 0 1864 0 0 1830 0 0 1944 0 0 1923 0 0 1920 0 0 1878 0 0 1802 0 0 1879 0 0 1883 0 0 1816 0 0 1893 0 0 949 0 0 13 0 0 2 0 0 1 0 0 4 0 0 2 0 0 2 0 0 0 0 0 0 0 0 1 0 0 
1 0 0 2 0 0 2 0 0 3 0 0 2 0 0 3 0 0 3 0 0 8 0 0 3 0 0 10 0 0 946 0 0 1953 0 0 1902 0 0 1867 0 0 1911 0 0 1899 0 0 1917 0 0 1998 0 0 1891 0 0 1930 0 0 1784 0 0 1854 0 0 1904 0 0 1904 0 0 1889 0 0 1829 0 0 1877 0 0 1893 0 0 1894 0 0 1863 0 0 1885 0 0 1909 0 0 1913 0 0 1947 0 0 1895 0 0 1896 0 0 1950 0 0 1909 0 0 1939 0 0 1864 0 0 1905 0 0 1867 0 0 1902 0 0 1893 0 0 1918 0 0 1864 0 0 1928 0 0 1969 0 0 1967 0 0 1875 0 0 966 0 0 13 0 0 4 0 0 2 0 0 3 0 0 6 0 0 5 0 0 2 0 0 1 0 0 0 0 0 
0 0 0 0 0 0 1 0 0 0 0 0 1 0 0 2 0 0 2 0 0 1 0 0 3 0 0 11 0 0 966 0 0 1796 0 0 1926 0 0 1848 0 0 1960 0 0 1859 0 0 1911 0 0 1848 0 0 1916 0 0 1910 0 0 1919 0 0 1881 0 0 1878 0 0 1923 0 0 1915 0 0 1940 0 0 1859 0 0 1914 0 0 1885 0 0 1878 0 0 1874 0 0 1856 0 0 1939 0 0 1889 0 0 1892 0 0 1921 0 0 1904 0 0 1847 0 0 1960 0 0 1876 0 0 1864 0 0 1866 0 0 1908 0 0 1861 0 0 1907 0 0 1936 0 0 1889 0 0 1863 0 0 1866 0 0 1922 0 0 949 0 0 15 0 0 7 0 0 1 0 0 0 0 0 3 0 0 0 0 0 0 0 0 0 0 0 2 0 0 
0 0 0 2 0 0 1 0 0 2 0 0 1 0 0 3 0 0 3 0 0 1 0 0 4 0 0 12 0 0 923 0 0 1882 0 0 1817 0 0 1903 0 0 1877 0 0 1975 0 0 1824 0 0 1922 0 0 1809 0 0 1894 0 0 1842 0 0 1896 0 0 1879 0 0 1869 0 0 1887 0 0 1911 0 0 1842 0 0 1895 0 0 1852 0 0 1890 0 0 1998 0 0 1915 0 0 1916 0 0 1863 0 0 1869 0 0 1909 0 0 1889 0 0 1807 0 0 1884 0 0 1873 0 0 1964 0 0 1878 0 0 1902 0 0 1867 0 0 1875 0 0 1859 0 0 1948 0 0 1859 0 0 1912 0 0 1874 0 0 959 0 0 11 0 0 7 0 0 5 0 0 3 0 0 0 0 0 0 0 0 0 0 0 0 0 0 0 0 0 
0 0 0 2 0 0 0 0 0 1 0 0 3 0 0 4 0 0 5 0 0 8 0 0 4 0 0 12 0 0 970 0 0 1887 0 0 1892 0 0 1868 0 0 1848 0 0 1865 0 0 1913 0 0 1907 0 0 1901 0 0 1878 0 0 1895 0 0 1898 0 0 1837 0 0 1837 0 0 1883 0 0 1807 0 0 1884 0 0 1854 0 0 1842 0 0 1926 0 0 1906 0 0 1864 0 0 1945 0 0 1892 0 0 1885 0 0 1866 0 0 1843 0 0 1857 0 0 1896 0 0 1851 0 0 1857 0 0 1895 0 0 1879 0 0 1908 0 0 1837 0 0 1836 0 0 1916 0 0 1858 0 0 1895 0 0 1885 0 0 954 0 0 15 0 0 4 0 0 1 0 0 1 0 0 3 0 0 1 0 0 2 0 0 0 0 0 0 0 0 
0 0 0 0 0 0 3 0 0 1 0 0 1 0 0 0 0 0 2 0 0 5 0 0 6 0 0 20 0 0 947 0 0 1864 0 0 1876 0 0 1914 0 0 1865 0 0 1891 0 0 1818 0 0 1911 0 0 1850 0 0 1972 0 0 1884 0 0 1944 0 0 1911 0 0 1924 0 0 1871 0 0 1879 0 0 1964 0 0 1836 0 0 1946 0 0 1927 0 0 1860 0 0 1940 0 0 1843 0 0 1790 0 0 1820 0 0 1862 0 0 1816 0 0 1851 0 0 1889 0 0 1941 0 0 1845 0 0 1878 0 0 1928 0 0 1873 0 0 1847 0 0 1891 0 0 1769 0 0 1870 0 0 1908 0 0 1829 0 0 913 0 0 11 0 0 1 0 0 0 0 0 3 0 0 1 0 0 2 0 0 0 0 0 1 0 0 1 0 0 
0 0 0 0 0 0 0 0 0 1 0 0 0 0 0 0 0 0 1 0 0 2 0 0 5 0 0 12 0 0 960 0 0 1870 0 0 1886 0 0 1917 0 0 1978 0 0 1867 0 0 1822 0 0 1887 0 0 1827 0 0 1920 0 0 1888 0 0 1897 0 0 1845 0 0 1911 0 0 1862 0 0 1914 0 0 1992 0 0 1896 0 0 1889 0 0 1867 0 0 1774 0 0 1872 0 0 1833 0 0 1845 0 0 1935 0 0 1946 0 0 1893 0 0 1893 0 0 1876 0 0 1868 0 0 1860 0 0 1893 0 0 1838 0 0 1890 0 0 1950 0 0 1964 0 0 1873 0 0 1896 0 0 1775 0 0 1921 0 0 949 0 0 9 0 0 1 0 0 4 0 0 4 0 0 1 0 0 0 0 0 0 0 0 0 0 0 3 0 0 
0 0 0 0 0 0 1 0 0 1 0 0 1 0 0 1 0 0 0 0 0 6 0 0 3 0 0 16 0 0 963 0 0 1895 0 0 1934 0 0 1925 0 0 1897 0 0 1904 0 0 1894 0 0 1881 0 0 1859 0 0 1897 0 0 1870 0 0 1881 0 0 1849 0 0 1910 0 0 1910 0 0 1922 0 0 1921 0 0 1918 0 0 1940 0 0 1792 0 0 1934 0 0 1874 0 0 1899 0 0 1797 0 0 1879 0 0 1932 0 0 1920 0 0 1865 0 0 1939 0 0 1910 0 0 1850 0 0 1825 0 0 1971 0 0 1866 0 0 1865 0 0 1838 0 0 1911 0 0 1850 0 0 1859 0 0 1858 0 0 915 0 0 19 0 0 3 0 0 7 0 0 5 0 0 3 0 0 0 0 0 1 0 0 0 0 0 1 0 0 
1 0 0 0 0 0 0 0 0 1 0 0 2 0 0 0 0 0 4 0 0 2 0 0 8 0 0 16 0 0 938 0 0 1922 0 0 1901 0 0 1845 0 0 1851 0 0 1873 0 0 1942 0 0 1802 0 0 1886 0 0 1923 0 0 1953 0 0 1918 0 0 1922 0 0 1843 0 0 1834 0 0 1866 0 0 1972 0 0 1936 0 0 1863 0 0 1927 0 0 1879 0 0 1881 0 0 1906 0 0 1951 0 0 1793 0 0 1894 0 0 1815 0 0 1831 0 0 1855 0 0 1921 0 0 1942 0 0 1929 0 0 1900 0 0 1847 0 0 1944 0 0 1936 0 0 1937 0 0 1887 0 0 1889 0 0 1830 0 0 953 0 0 12 0 0 2 0 0 4 0 0 2 0 0 1 0 0 2 0 0 1 0 0 0 0 0 1 0 0 
0 0 0 0 0 0 0 0 0 0 0 0 0 0 0 2 0 0 0 0 0 5 0 0 8 0 0 20 0 0 927 0 0 1844 0 0 1814 0 0 1892 0 0 1883 0 0 1887 0 0 1858 0 0 1932 0 0 1915 0 0 1826 0 0 1898 0 0 1906 0 0 1900 0 0 1871 0 0 1902 0 0 1831 0 0 1931 0 0 1831 0 0 1920 0 0 1869 0 0 1867 0 0 1876 0 0 1948 0 0 1884 0 0 1865 0 0 1947 0 0 1885 0 0 1900 0 0 1906 0 0 1941 0 0 1872 0 0 1819 0 0 1933 0 0 1890 0 0 1862 0 0 1893 0 0 1940 0 0 1862 0 0 1804 0 0 1898 0 0 959 0 0 8 0 0 1 0 0 0 0 0 1 0 0 0 0 0 0 0 0 0 0 0 2 0 0 2 0 0 
0 0 0 0 0 0 0 0 0 0 0 0 1 0 0 1 0 0 3 0 0 6 0 0 4 0 0 11 0 0 969 0 0 1925 0 0 1866 0 0 1907 0 0 1912 0 0 1872 0 0 1960 0 0 1941 0 0 1861 0 0 1881 0 0 1853 0 0 1909 0 0 1947 0 0 1938 0 0 1872 0 0 1860 0 0 1975 0 0 1927 0 0 1878 0 0 1905 0 0 1903 0 0 1883 0 0 1876 0 0 1922 0 0 1835 0 0 1947 0 0 1878 0 0 1912 0 0 1905 0 0 1867 0 0 1885 0 0 1894 0 0 1874 0 0 1807 0 0 1917 0 0 1879 0 0 1851 0 0 1857 0 0 1866 0 0 1884 0 0 947 0 0 13 0 0 4 0 0 3 0 0 2 0 0 0 0 0 0 0 0 0 0 0 0 0 0 4 0 0 
1 0 0 0 0 0 0 0 0 2 0 0 3 0 0 3 0 0 0 0 0 3 0 0 3 0 0 12 0 0 980 0 0 1913 0 0 1827 0 0 1848 0 0 1964 0 0 1923 0 0 1901 0 0 1798 0 0 1914 0 0 1882 0 0 1850 0 0 1941 0 0 1889 0 0 1847 0 0 1926 0 0 1793 0 0 1922 0 0 1874 0 0 1900 0 0 1945 0 0 1880 0 0 1896 0 0 1892 0 0 1894 0 0 1885 0 0 1927 0 0 1854 0 0 1870 0 0 1892 0 0 1867 0 0 1831 0 0 1852 0 0 1870 0 0 1797 0 0 1931 0 0 1876 0 0 1851 0 0 1959 0 0 1827 0 0 1921 0 0 922 0 0 11 0 0 7 0 0 2 0 0 2 0 0 1 0 0 0 0 0 0 0 0 0 0 0 2 0 0 
0 0 0 0 0 0 2 0 0 2 0 0 3 0 0 0 0 0 1 0 0 1 0 0 2 0 0 8 0 0 934 0 0 1883 0 0 1838 0 0 1918 0 0 1908 0 0 1956 0 0 1852 0 0 1906 0 0 1828 0 0 1938 0 0 1942 0 0 1893 0 0 1898 0 0 1872 0 0 1894 0 0 1940 0 0 1934 0 0 1863 0 0 1857 0 0 1914 0 0 1902 0 0 1880 0 0 1843 0 0 1920 0 0 1858 0 0 1915 0 0 1911 0 0 1882 0 0 1910 0 0 1927 0 0 1922 0 0 1881 0 0 1880 0 0 1848 0 0 1900 0 0 1855 0 0 1893 0 0 1891 0 0 1851 0 0 1879 0 0 912 0 0 8 0 0 1 0 0 0 0 0 2 0 0 0 0 0 0 0 0 0 0 0 0 0 0 0 0 0 
1 0 0 0 0 0 0 0 0 0 0 0 0 0 0 1 0 0 2 0 0 1 0 0 6 0 0 14 0 0 915 0 0 1903 0 0 1896 0 0 1818 0 0 1896 0 0 1822 0 0 1910 0 0 1890 0 0 1877 0 0 1915 0 0 1878 0 0 1966 0 0 1939 0 0 1831 0 0 1890 0 0 1834 0 0 1913 0 0 1860 0 0 1946 0 0 1888 0 0 1888 0 0 1841 0 0 1887 0 0 1909 0 0 1860 0 0 1879 0 0 1855 0 0 1887 0 0 1921 0 0 1905 0 0 1874 0 0 1892 0 0 1835 0 0 1914 0 0 1842 0 0 1882 0 0 1895 0 0 1980 0 0 1915 0 0 1834 0 0 953 0 0 14 0 0 2 0 0 4 0 0 0 0 0 2 0 0 2 0 0 0 0 0 0 0 0 0 0 0 
0 0 0 0 0 0 1 0 0 2 0 0 0 0 0 2 0 0 1 0 0 2 0 0 5 0 0 16 0 0 953 0 0 1867 0 0 1843 0 0 1889 0 0 1862 0 0 1960 0 0 1883 0 0 1859 0 0 1894 0 0 1864 0 0 1887 0 0 1866 0 0 1933 0 0 1952 0 0 1793 0 0 1955 0 0 1922 0 0 1883 0 0 1971 0 0 1908 0 0 1871 0 0 1867 0 0 1838 0 0 1863 0 0 1889 0 0 1928 0 0 1934 0 0 1918 0 0 1880 0 0 1834 0 0 1926 0 0 1988 0 0 1947 0 0 1857 0 0 1864 0 0 1890 0 0 1884 0 0 1897 0 0 1951 0 0 1910 0 0 971 0 0 13 0 0 1 0 0 2 0 0 4 0 0 5 0 0 4 0 0 1 0 0 0 0 0 0 0 0 
0 0 0 0 0 0 0 0 0 0 0 0 2 0 0 0 0 0 1 0 0 1 0 0 1 0 0 9 0 0 908 0 0 1875 0 0 1937 0 0 1883 0 0 1873 0 0 1857 0 0 1887 0 0 1961 0 0 1934 0 0 1940 0 0 1866 0 0 1846 0 0 1917 0 0 1847 0 0 1903 0 0 1867 0 0 1931 0 0 1760 0 0 1859 0 0 1883 0 0 1918 0 0 1894 0 0 1964 0 0 1870 0 0 1932 0 0 1932 0 0 1930 0 0 1926 0 0 1890 0 0 1869 0 0 1955 0 0 1788 0 0 1952 0 0 1901 0 0 1840 0 0 1925 0 0 1854 0 0 1898 0 0 1846 0 0 1901 0 0 971 0 0 15 0 0 1 0 0 1 0 0 0 0 0 0 0 0 2 0 0 2 0 0 1 0 0 0 0 0 
0 0 0 1 0 0 0 0 0 0 0 0 3 0 0 1 0 0 0 0 0 0 0 0 2 0 0 11 0 0 971 0 0 1906 0 0 1857 0 0 1895 0 0 1921 0 0 1846 0 0 1896 0 0 1928 0 0 1945 0 0 1923 0 0 1906 0 0 1893 0 0 1880 0 0 1877 0 0 1894 0 0 1806 0 0 1924 0 0 1841 0 0 1912 0 0 1909 0 0 1973 0 0 1859 0 0 1929 0 0 1930 0 0 1857 0 0 1894 0 0 1949 0 0 1915 0 0 1967 0 0 1865 0 0 1846 0 0 1911 0 0 1915 0 0 1888 0 0 1960 0 0 1958 0 0 1887 0 0 1907 0 0 1877 0 0 1832 0 0 954 0 0 13 0 0 1 0 0 1 0 0 0 0 0 0 0 0 0 0 0 2 0 0 1 0 0 2 0 0 
0 0 0 0 0 0 0 0 0 2 0 0 2 0 0 0 0 0 0 0 0 0 0 0 2 0 0 9 0 0 974 0 0 1816 0 0 1900 0 0 1902 0 0 1775 0 0 1947 0 0 1915 0 0 1873 0 0 1870 0 0 1797 0 0 1827 0 0 1930 0 0 1858 0 0 1808 0 0 1890 0 0 1865 0 0 1831 0 0 1854 0 0 1882 0 0 1882 0 0 1908 0 0 1835 0 0 1806 0 0 1842 0 0 1896 0 0 1846 0 0 1945 0 0 1922 0 0 1928 0 0 1891 0 0 1869 0 0 1936 0 0 1904 0 0 1826 0 0 1893 0 0 1905 0 0 1902 0 0 1846 0 0 1863 0 0 1822 0 0 953 0 0 16 0 0 3 0 0 3 0 0 3 0 0 0 0 0 2 0 0 0 0 0 1 0 0 0 0 0 
0 0 0 0 0 0 1 0 0 0 0 0 0 0 0 0 0 0 0 0 0 1 0 0 2 0 0 7 0 0 485 0 0 987 0 0 965 0 0 936 0 0 1009 0 0 888 0 0 950 0 0 916 0 0 957 0 0 924 0 0 960 0 0 965 0 0 872 0 0 969 0 0 914 0 0 939 0 0 921 0 0 938 0 0 937 0 0 940 0 0 960 0 0 977 0 0 954 0 0 986 0 0 959 0 0 968 0 0 993 0 0 966 0 0 987 0 0 927 0 0 956 0 0 974 0 0 1001 0 0 946 0 0 993 0 0 991 0 0 948 0 0 952 0 0 908 0 0 855 0 0 500 0 0 7 0 0 2 0 0 0 0 0 0 0 0 0 0 0 0 0 0 0 0 0 0 0 0 0 0 0 
1 0 0 0 0 0 1 0 0 0 0 0 1 0 0 0 0 0 2 0 0 0 0 0 0 0 0 1 0 0 6 0 0 11 0 0 18 0 0 7 0 0 18 0 0 15 0 0 9 0 0 15 0 0 17 0 0 17 0 0 15 0 0 11 0 0 9 0 0 14 0 0 10 0 0 12 0 0 22 0 0 17 0 0 13 0 0 11 0 0 12 0 0 15 0 0 11 0 0 12 0 0 14 0 0 12 0 0 14 0 0 9 0 0 7 0 0 12 0 0 14 0 0 9 0 0 8 0 0 10 0 0 16 0 0 10 0 0 11 0 0 7 0 0 16 0 0 14 0 0 5 0 0 3 0 0 1 0 0 0 0 0 3 0 0 1 0 0 0 0 0 0 0 0 0 0 0 0 0 0 
0 0 0 0 0 0 0 0 0 0 0 0 0 0 0 1 0 0 0 0 0 0 0 0 2 0 0 2 0 0 4 0 0 1 0 0 3 0 0 2 0 0 2 0 0 1 0 0 2 0 0 3 0 0 2 0 0 4 0 0 3 0 0 6 0 0 6 0 0 6 0 0 3 0 0 2 0 0 2 0 0 3 0 0 1 0 0 5 0 0 3 0 0 1 0 0 2 0 0 1 0 0 6 0 0 6 0 0 2 0 0 5 0 0 3 0 0 1 0 0 1 0 0 2 0 0 3 0 0 4 0 0 2 0 0 2 0 0 1 0 0 1 0 0 1 0 0 4 0 0 1 0 0 2 0 0 0 0 0 4 0 0 1 0 0 0 0 0 0 0 0 0 0 0 0 0 0 0 0 0 
0 0 0 0 0 0 2 0 0 0 0 0 2 0 0 0 0 0 0 0 0 0 0 0 0 0 0 0 0 0 2 0 0 3 0 0 2 0 0 0 0 0 2 0 0 4 0 0 1 0 0 4 0 0 3 0 0 2 0 0 2 0 0 1 0 0 3 0 0 1 0 0 4 0 0 2 0 0 0 0 0 0 0 0 0 0 0 2 0 0 4 0 0 1 0 0 2 0 0 1 0 0 6 0 0 3 0 0 4 0 0 1 0 0 6 0 0 1 0 0 0 0 0 2 0 0 0 0 0 1 0 0 1 0 0 1 0 0 2 0 0 0 0 0 1 0 0 2 0 0 5 0 0 2 0 0 0 0 0 0 0 0 0 0 0 0 0 0 0 0 0 0 0 0 0 0 0 0 0 0 
0 0 0 1 0 0 2 0 0 1 0 0 3 0 0 0 0 0 0 0 0 0 0 0 1 0 0 0 0 0 1 0 0 2 0 0 0 0 0 0 0 0 2 0 0 3 0 0 1 0 0 4 0 0 5 0 0 3 0 0 0 0 0 0 0 0 0 0 0 0 0 0 0 0 0 0 0 0 1 0 0 0 0 0 4 0 0 3 0 0 4 0 0 1 0 0 1 0 0 0 0 0 5 0 0 3 0 0 3 0 0 4 0 0 4 0 0 0 0 0 3 0 0 0 0 0 0 0 0 0 0 0 0 0 0 0 0 0 5 0 0 0 0 0 2 0 0 1 0 0 1 0 0 2 0 0 0 0 0 0 0 0 1 0 0 1 0 0 0 0 0 1 0 0 0 0 0 0 0 0 
0 0 0 0 0 0 2 0 0 0 0 0 0 0 0 0 0 0 1 0 0 0 0 0 1 0 0 0 0 0 2 0 0 3 0 0 2 0 0 1 0 0 2 0 0 0 0 0 1 0 0 0 0 0 3 0 0 1 0 0 0 0 0 1 0 0 2 0 0 4 0 0 1 0 0 1 0 0 1 0 0 2 0 0 3 0 0 2 0 0 3 0 0 3 0 0 0 0 0 1 0 0 2 0 0 1 0 0 3 0 0 0 0 0 3 0 0 2 0 0 0 0 0 0 0 0 0 0 0 0 0 0 1 0 0 0 0 0 0 0 0 0 0 0 0 0 0 0 0 0 1 0 0 0 0 0 0 0 0 0 0 0 1 0 0 0 0 0 1 0 0 2 0 0 1 0 0 0 0 0 
0 0 0 1 0 0 2 0 0 2 0 0 0 0 0 0 0 0 0 0 0 0 0 0 2 0 0 1 0 0 0 0 0 1 0 0 0 0 0 2 0 0 0 0 0 0 0 0 2 0 0 1 0 0 1 0 0 1 0 0 1 0 0 3 0 0 1 0 0 1 0 0 2 0 0 2 0 0 0 0 0 0 0 0 1 0 0 0 0 0 1 0 0 0 0 0 0 0 0 3 0 0 0 0 0 0 0 0 2 0 0 3 0 0 0 0 0 0 0 0 1 0 0 0 0 0 0 0 0 1 0 0 1 0 0 0 0 0 0 0 0 1 0 0 2 0 0 0 0 0 0 0 0 0 0 0 0 0 0 0 0 0 0 0 0 0 0 0 2 0 0 0 0 0 3 0 0 2 0 0 
0 0 0 0 0 0 0 0 0 0 0 0 0 0 0 0 0 0 0 0 0 0 0 0 0 0 0 0 0 0 0 0 0 0 0 0 0 0 0 1 0 0 0 0 0 1 0 0 2 0 0 0 0 0 1 0 0 0 0 0 3 0 0 2 0 0 0 0 0 2 0 0 1 0 0 0 0 0 1 0 0 2 0 0 0 0 0 0 0 0 0 0 0 0 0 0 0 0 0 6 0 0 0 0 0 0 0 0 3 0 0 5 0 0 1 0 0 0 0 0 2 0 0 0 0 0 0 0 0 2 0 0 0 0 0 0 0 0 1 0 0 2 0 0 1 0 0 0 0 0 1 0 0 1 0 0 0 0 0 0 0 0 0 0 0 2 0 0 0 0 0 1 0 0 0 0 0 0 0 0 
0 0 0 0 0 0 0 0 0 0 0 0 0 0 0 0 0 0 0 0 0 2 0 0 0 0 0 1 0 0 1 0 0 0 0 0 1 0 0 0 0 0 0 0 0 2 0 0 1 0 0 0 0 0 0 0 0 1 0 0 0 0 0 2 0 0 1 0 0 2 0 0 1 0 0 0 0 0 0 0 0 2 0 0 0 0 0 1 0 0 0 0 0 0 0 0 0 0 0 1 0 0 0 0 0 0 0 0 1 0 0 4 0 0 1 0 0 1 0 0 0 0 0 0 0 0 0 0 0 0 0 0 0 0 0 0 0 0 0 0 0 2 0 0 0 0 0 0 0 0 0 0 0 1 0 0 2 0 0 0 0 0 0 0 0 0 0 0 2 0 0 0 0 0 0 0 0 0 0 0 
0 0 0 0 0 0 0 0 0 0 0 0 1 0 0 0 0 0 0 0 0 0 0 0 0 0 0 0 0 0 0 0 0 0 0 0 0 0 0 1 0 0 2 0 0 0 0 0 0 0 0 0 0 0 0 0 0 0 0 0 0 0 0 2 0 0 0 0 0 0 0 0 0 0 0 0 0 0 0 0 0 3 0 0 1 0 0 0 0 0 2 0 0 0 0 0 2 0 0 0 0 0 2 0 0 1 0 0 2 0 0 5 0 0 5 0 0 0 0 0 1 0 0 0 0 0 0 0 0 0 0 0 0 0 0 0 0 0 0 0 0 0 0 0 0 0 0 0 0 0 0 0 0 0 0 0 1 0 0 0 0 0 0 0 0 0 0 0 0 0 0 0 0 0 3 0 0 0 0 0 
