P3
# This is a dose file slice at depth 54 of 100
60 60
# now we give the maximum value of the RGB coordinates.
22407
0 0 0 0 0 0 0 0 0 0 0 0 0 0 0 0 0 0 0 0 0 0 0 0 0 0 0 0 0 0 0 0 0 0 0 0 0 0 0 0 0 0 0 0 0 0 0 0 0 0 0 0 0 0 0 0 0 0 0 0 0 0 0 0 0 0 0 0 0 0 0 0 0 0 0 0 0 0 0 0 0 0 0 0 0 0 0 0 0 0 0 0 0 0 0 0 0 0 0 0 0 0 0 0 0 0 0 0 0 0 0 0 0 0 0 0 0 0 0 0 0 0 0 0 0 0 0 0 0 0 0 0 0 0 0 0 0 0 0 0 0 0 0 0 0 0 0 0 0 0 0 0 0 0 0 0 0 0 0 0 0 0 0 0 0 0 0 0 0 0 0 0 0 0 0 0 0 0 0 0 
0 0 0 0 0 0 0 0 0 0 0 0 0 0 0 0 0 0 0 0 0 0 0 0 0 0 0 0 0 0 0 0 0 0 0 0 0 0 0 0 0 0 0 0 0 0 0 0 0 0 0 0 0 0 0 0 0 0 0 0 0 0 0 0 0 0 0 0 0 0 0 0 0 0 0 0 0 0 0 0 0 0 0 0 0 0 0 0 0 0 0 0 0 0 0 0 0 0 0 0 0 0 0 0 0 0 0 0 0 0 0 0 0 0 0 0 0 0 0 0 0 0 0 0 0 0 0 0 0 0 0 0 0 0 0 0 0 0 0 0 0 0 0 0 0 0 0 0 0 0 0 0 0 0 0 0 0 0 0 0 0 0 0 0 0 0 0 0 0 0 0 0 0 0 0 0 0 0 0 0 
0 0 0 0 0 0 0 0 0 0 0 0 0 0 0 0 0 0 0 0 0 0 0 0 0 0 0 0 0 0 0 0 0 0 0 0 0 0 0 0 0 0 0 0 0 0 0 0 0 0 0 0 0 0 0 0 0 0 0 0 0 0 0 0 0 0 0 0 0 0 0 0 0 0 0 0 0 0 0 0 0 0 0 0 0 0 0 0 0 0 0 0 0 0 0 0 0 0 0 0 0 0 0 0 0 0 0 0 0 0 0 0 0 0 0 0 0 0 0 0 0 0 0 0 0 0 0 0 0 0 0 0 0 0 0 0 0 0 0 0 0 0 0 0 0 0 0 0 0 0 0 0 0 0 0 0 0 0 0 0 0 0 0 0 0 0 0 0 0 0 0 0 0 0 0 0 0 0 0 0 
0 0 0 0 0 0 0 0 0 0 0 0 0 0 0 0 0 0 0 0 0 0 0 0 0 0 0 0 0 0 0 0 0 0 0 0 0 0 0 0 0 0 0 0 0 0 0 0 0 0 0 0 0 0 0 0 0 0 0 0 0 0 0 0 0 0 0 0 0 0 0 0 0 0 0 0 0 0 0 0 0 0 0 0 0 0 0 0 0 0 0 0 0 0 0 0 0 0 0 0 0 0 0 0 0 0 0 0 0 0 0 0 0 0 0 0 0 0 0 0 0 0 0 0 0 0 0 0 0 0 0 0 0 0 0 0 0 0 0 0 0 0 0 0 0 0 0 0 0 0 0 0 0 0 0 0 0 0 0 0 0 0 0 0 0 0 0 0 0 0 0 0 0 0 0 0 0 0 0 0 
0 0 0 0 0 0 0 0 0 0 0 0 0 0 0 0 0 0 0 0 0 0 0 0 0 0 0 0 0 0 0 0 0 0 0 0 0 0 0 0 0 0 0 0 0 0 0 0 0 0 0 0 0 0 0 0 0 0 0 0 0 0 0 0 0 0 0 0 0 0 0 0 0 0 0 0 0 0 0 0 0 0 0 0 0 0 0 0 0 0 0 0 0 0 0 0 0 0 0 0 0 0 0 0 0 0 0 0 0 0 0 0 0 0 0 0 0 0 0 0 0 0 0 0 0 0 0 0 0 0 0 0 0 0 0 0 0 0 0 0 0 0 0 0 0 0 0 0 0 0 0 0 0 0 0 0 0 0 0 0 0 0 0 0 0 0 0 0 0 0 0 0 0 0 0 0 0 0 0 0 
0 0 0 0 0 0 0 0 0 0 0 0 0 0 0 0 0 0 0 0 0 0 0 0 0 0 0 0 0 0 0 0 0 0 0 0 0 0 0 0 0 0 0 0 0 0 0 0 0 0 0 0 0 0 0 0 0 0 0 0 0 0 0 0 0 0 0 0 0 0 0 0 0 0 0 0 0 0 0 0 0 0 0 0 0 0 0 0 0 0 0 0 0 0 0 0 0 0 0 0 0 0 0 0 0 0 0 0 0 0 0 0 0 0 0 0 0 0 0 0 0 0 0 0 0 0 0 0 0 0 0 0 0 0 0 0 0 0 0 0 0 0 0 0 0 0 0 0 0 0 0 0 0 0 0 0 0 0 0 0 0 0 0 0 0 0 0 0 0 0 0 0 0 0 0 0 0 0 0 0 
0 0 0 0 0 0 0 0 0 0 0 0 0 0 0 0 0 0 0 0 0 0 0 0 0 0 0 0 0 0 0 0 0 0 0 0 0 0 0 0 0 0 0 0 0 0 0 0 0 0 0 0 0 0 0 0 0 0 0 0 0 0 0 0 0 0 0 0 0 0 0 0 0 0 0 0 0 0 0 0 0 0 0 0 0 0 0 0 0 0 0 0 0 0 0 0 0 0 0 0 0 0 0 0 0 0 0 0 0 0 0 0 0 0 0 0 0 0 0 0 0 0 0 0 0 0 0 0 0 0 0 0 0 0 0 0 0 0 0 0 0 0 0 0 0 0 0 0 0 0 0 0 0 0 0 0 0 0 0 0 0 0 0 0 0 0 0 0 0 0 0 0 0 0 0 0 0 0 0 0 
0 0 0 0 0 0 0 0 0 0 0 0 0 0 0 0 0 0 0 0 0 0 0 0 0 0 0 0 0 0 0 0 0 0 0 0 0 0 0 0 0 0 0 0 0 0 0 0 0 0 0 0 0 0 0 0 0 0 0 0 0 0 0 0 0 0 0 0 0 0 0 0 0 0 0 0 0 0 0 0 0 0 0 0 0 0 0 0 0 0 0 0 0 0 0 0 0 0 0 0 0 0 0 0 0 0 0 0 0 0 0 0 0 0 0 0 0 0 0 0 0 0 0 0 0 0 0 0 0 0 0 0 0 0 0 0 0 0 0 0 0 0 0 0 0 0 0 0 0 0 0 0 0 0 0 0 0 0 0 0 0 0 0 0 0 0 0 0 0 0 0 0 0 0 0 0 0 0 0 0 
0 0 0 0 0 0 0 0 0 0 0 0 0 0 0 0 0 0 0 0 0 0 0 0 0 0 0 0 0 0 0 0 0 0 0 0 0 0 0 0 0 0 0 0 0 0 0 0 0 0 0 0 0 0 0 0 0 0 0 0 0 0 0 0 0 0 0 0 0 0 0 0 0 0 0 0 0 0 0 0 0 0 0 0 0 0 0 0 0 0 0 0 0 0 0 0 0 0 0 0 0 0 0 0 0 0 0 0 0 0 0 0 0 0 0 0 0 0 0 0 0 0 0 0 0 0 0 0 0 0 0 0 0 0 0 0 0 0 0 0 0 0 0 0 0 0 0 0 0 0 0 0 0 0 0 0 0 0 0 0 0 0 0 0 0 0 0 0 0 0 0 0 0 0 0 0 0 0 0 0 
0 0 0 0 0 0 0 0 0 0 0 0 0 0 0 0 0 0 0 0 0 0 0 0 0 0 0 0 0 0 0 0 0 0 0 0 0 0 0 0 0 0 0 0 0 0 0 0 0 0 0 0 0 0 0 0 0 0 0 0 0 0 0 0 0 0 0 0 0 0 0 0 0 0 0 0 0 0 0 0 0 0 0 0 0 0 0 0 0 0 0 0 0 0 0 0 0 0 0 0 0 0 0 0 0 0 0 0 0 0 0 0 0 0 0 0 0 0 0 0 0 0 0 0 0 0 0 0 0 0 0 0 0 0 0 0 0 0 0 0 0 0 0 0 0 0 0 0 0 0 0 0 0 0 0 0 0 0 0 0 0 0 0 0 0 0 0 0 0 0 0 0 0 0 0 0 0 0 0 0 
0 0 0 0 0 0 0 0 0 0 0 0 0 0 0 0 0 0 0 0 0 0 0 0 0 0 0 0 0 0 1123 0 0 2294 0 0 2220 0 0 2246 0 0 2211 0 0 2272 0 0 2296 0 0 2269 0 0 2297 0 0 2238 0 0 2345 0 0 2323 0 0 2241 0 0 2270 0 0 2293 0 0 2236 0 0 2290 0 0 2318 0 0 2225 0 0 2268 0 0 2284 0 0 2290 0 0 2304 0 0 2360 0 0 2273 0 0 2295 0 0 2251 0 0 2288 0 0 2286 0 0 2333 0 0 2353 0 0 2285 0 0 2376 0 0 2256 0 0 2272 0 0 2232 0 0 2211 0 0 2273 0 0 2243 0 0 2306 0 0 1152 0 0 0 0 0 0 0 0 0 0 0 0 0 0 0 0 0 0 0 0 0 0 0 0 0 0 0 0 0 
0 0 0 0 0 0 0 0 0 0 0 0 0 0 0 0 0 0 0 0 0 0 0 0 0 0 0 0 0 0 2244 0 0 4566 0 0 4467 0 0 4537 0 0 4457 0 0 4622 0 0 4562 0 0 4513 0 0 4685 0 0 4663 0 0 4624 0 0 4603 0 0 4535 0 0 4549 0 0 4672 0 0 4663 0 0 4420 0 0 4508 0 0 4555 0 0 4560 0 0 4569 0 0 4635 0 0 4620 0 0 4508 0 0 4630 0 0 4518 0 0 4471 0 0 4601 0 0 4646 0 0 4622 0 0 4767 0 0 4559 0 0 4561 0 0 4585 0 0 4657 0 0 4492 0 0 4494 0 0 4529 0 0 4581 0 0 4530 0 0 2213 0 0 0 0 0 0 0 0 0 0 0 0 0 0 0 0 0 0 0 0 0 0 0 0 0 0 0 0 0 
0 0 0 0 0 0 0 0 0 0 0 0 0 0 0 0 0 0 0 0 0 0 0 0 0 0 0 0 0 0 2331 0 0 4762 0 0 4463 0 0 4737 0 0 4495 0 0 4613 0 0 4652 0 0 4499 0 0 4457 0 0 4563 0 0 4558 0 0 4476 0 0 4634 0 0 4614 0 0 4575 0 0 4444 0 0 4558 0 0 4583 0 0 4655 0 0 4527 0 0 4529 0 0 4521 0 0 4595 0 0 4635 0 0 4560 0 0 4554 0 0 4605 0 0 4353 0 0 4511 0 0 4558 0 0 4459 0 0 4701 0 0 4491 0 0 4535 0 0 4431 0 0 4525 0 0 4583 0 0 4643 0 0 4599 0 0 4573 0 0 2273 0 0 0 0 0 0 0 0 0 0 0 0 0 0 0 0 0 0 0 0 0 0 0 0 0 0 0 0 0 
0 0 0 0 0 0 0 0 0 0 0 0 0 0 0 0 0 0 0 0 0 0 0 0 0 0 0 0 0 0 2314 0 0 4653 0 0 4750 0 0 4581 0 0 4687 0 0 4547 0 0 4402 0 0 4567 0 0 4485 0 0 4610 0 0 4700 0 0 4577 0 0 4556 0 0 4532 0 0 4659 0 0 4563 0 0 4509 0 0 4567 0 0 4568 0 0 4510 0 0 4589 0 0 4683 0 0 4589 0 0 4581 0 0 4574 0 0 4589 0 0 4586 0 0 4553 0 0 4434 0 0 4531 0 0 4624 0 0 4484 0 0 4476 0 0 4525 0 0 4715 0 0 4534 0 0 4517 0 0 4603 0 0 4593 0 0 4572 0 0 2341 0 0 0 0 0 0 0 0 0 0 0 0 0 0 0 0 0 0 0 0 0 0 0 0 0 0 0 0 0 
0 0 0 0 0 0 0 0 0 0 0 0 0 0 0 0 0 0 0 0 0 0 0 0 0 0 0 0 0 0 2340 0 0 4494 0 0 4531 0 0 4438 0 0 4634 0 0 4520 0 0 4476 0 0 4562 0 0 4537 0 0 4643 0 0 4568 0 0 4576 0 0 4508 0 0 4602 0 0 4493 0 0 4583 0 0 4586 0 0 4656 0 0 4659 0 0 4575 0 0 4497 0 0 4539 0 0 4600 0 0 4641 0 0 4645 0 0 4598 0 0 4595 0 0 4515 0 0 4633 0 0 4586 0 0 4607 0 0 4562 0 0 4581 0 0 4681 0 0 4547 0 0 4549 0 0 4602 0 0 4507 0 0 4649 0 0 4540 0 0 2296 0 0 0 0 0 0 0 0 0 0 0 0 0 0 0 0 0 0 0 0 0 0 0 0 0 0 0 0 0 
0 0 0 0 0 0 0 0 0 0 0 0 0 0 0 0 0 0 0 0 0 0 0 0 0 0 0 0 0 0 2322 0 0 4645 0 0 4513 0 0 4571 0 0 4585 0 0 4553 0 0 4588 0 0 4537 0 0 4527 0 0 4535 0 0 4620 0 0 4484 0 0 4586 0 0 4510 0 0 4480 0 0 4685 0 0 4594 0 0 4622 0 0 4498 0 0 4690 0 0 4407 0 0 4508 0 0 4537 0 0 4617 0 0 4464 0 0 4462 0 0 4455 0 0 4594 0 0 4405 0 0 4636 0 0 4587 0 0 4519 0 0 4360 0 0 4476 0 0 4588 0 0 4504 0 0 4510 0 0 4594 0 0 4623 0 0 4605 0 0 2256 0 0 0 0 0 0 0 0 0 0 0 0 0 0 0 0 0 0 0 0 0 0 0 0 0 0 0 0 0 
0 0 0 0 0 0 0 0 0 0 0 0 0 0 0 0 0 0 0 0 0 0 0 0 0 0 0 0 0 0 2287 0 0 4534 0 0 4555 0 0 4541 0 0 4580 0 0 4424 0 0 4516 0 0 4652 0 0 4582 0 0 4652 0 0 4558 0 0 4643 0 0 4549 0 0 4521 0 0 4511 0 0 4519 0 0 4491 0 0 4612 0 0 4663 0 0 4516 0 0 4507 0 0 4509 0 0 4571 0 0 4533 0 0 4494 0 0 4594 0 0 4651 0 0 4483 0 0 4624 0 0 4519 0 0 4571 0 0 4560 0 0 4523 0 0 4572 0 0 4644 0 0 4456 0 0 4511 0 0 4506 0 0 4569 0 0 4583 0 0 2236 0 0 0 0 0 0 0 0 0 0 0 0 0 0 0 0 0 0 0 0 0 0 0 0 0 0 0 0 0 
0 0 0 0 0 0 0 0 0 0 0 0 0 0 0 0 0 0 0 0 0 0 0 0 0 0 0 0 0 0 2278 0 0 4595 0 0 4515 0 0 4609 0 0 4643 0 0 4569 0 0 4627 0 0 4434 0 0 4391 0 0 4521 0 0 4562 0 0 4592 0 0 4587 0 0 4578 0 0 4517 0 0 4445 0 0 4568 0 0 4579 0 0 4622 0 0 4507 0 0 4385 0 0 4589 0 0 4598 0 0 4485 0 0 4594 0 0 4696 0 0 4631 0 0 4586 0 0 4549 0 0 4610 0 0 4653 0 0 4518 0 0 4605 0 0 4637 0 0 4541 0 0 4647 0 0 4400 0 0 4564 0 0 4705 0 0 4574 0 0 2313 0 0 0 0 0 0 0 0 0 0 0 0 0 0 0 0 0 0 0 0 0 0 0 0 0 0 0 0 0 
0 0 0 0 0 0 0 0 0 0 0 0 0 0 0 0 0 0 0 0 0 0 0 0 0 0 0 0 0 0 2263 0 0 4569 0 0 4630 0 0 4381 0 0 4673 0 0 4590 0 0 4489 0 0 4615 0 0 4642 0 0 4664 0 0 4547 0 0 4546 0 0 4474 0 0 4744 0 0 4680 0 0 4449 0 0 4580 0 0 4516 0 0 4631 0 0 4613 0 0 4491 0 0 4622 0 0 4484 0 0 4579 0 0 4400 0 0 4611 0 0 4559 0 0 4579 0 0 4565 0 0 4466 0 0 4554 0 0 4544 0 0 4493 0 0 4629 0 0 4583 0 0 4498 0 0 4446 0 0 4622 0 0 4590 0 0 4530 0 0 2340 0 0 0 0 0 0 0 0 0 0 0 0 0 0 0 0 0 0 0 0 0 0 0 0 0 0 0 0 0 
0 0 0 0 0 0 0 0 0 0 0 0 0 0 0 0 0 0 0 0 0 0 0 0 0 0 0 0 0 0 2251 0 0 4586 0 0 4611 0 0 4433 0 0 4514 0 0 4551 0 0 4472 0 0 4407 0 0 4457 0 0 4591 0 0 4542 0 0 4477 0 0 4559 0 0 4471 0 0 4519 0 0 4615 0 0 4622 0 0 4527 0 0 4628 0 0 4544 0 0 4558 0 0 4656 0 0 4493 0 0 4573 0 0 4497 0 0 4452 0 0 4577 0 0 4566 0 0 4565 0 0 4610 0 0 4546 0 0 4596 0 0 4544 0 0 4677 0 0 4539 0 0 4661 0 0 4576 0 0 4558 0 0 4572 0 0 4450 0 0 2245 0 0 0 0 0 0 0 0 0 0 0 0 0 0 0 0 0 0 0 0 0 0 0 0 0 0 0 0 0 
0 0 0 0 0 0 0 0 0 0 0 0 0 0 0 0 0 0 0 0 0 0 0 0 0 0 0 0 0 0 2281 0 0 4552 0 0 4530 0 0 4616 0 0 4607 0 0 4526 0 0 4473 0 0 4553 0 0 4503 0 0 4545 0 0 4641 0 0 4510 0 0 4534 0 0 4653 0 0 4657 0 0 4515 0 0 4552 0 0 4720 0 0 4626 0 0 4668 0 0 4615 0 0 4597 0 0 4565 0 0 4514 0 0 4572 0 0 4529 0 0 4609 0 0 4503 0 0 4594 0 0 4485 0 0 4725 0 0 4576 0 0 4597 0 0 4722 0 0 4651 0 0 4454 0 0 4543 0 0 4434 0 0 4493 0 0 4628 0 0 2231 0 0 0 0 0 0 0 0 0 0 0 0 0 0 0 0 0 0 0 0 0 0 0 0 0 0 0 0 0 
0 0 0 0 0 0 0 0 0 0 0 0 0 0 0 0 0 0 0 0 0 0 0 0 0 0 0 0 0 0 2349 0 0 4498 0 0 4562 0 0 4620 0 0 4596 0 0 4534 0 0 4622 0 0 4629 0 0 4546 0 0 4498 0 0 4580 0 0 4456 0 0 4520 0 0 4545 0 0 4706 0 0 4602 0 0 4634 0 0 4482 0 0 4585 0 0 4482 0 0 4599 0 0 4561 0 0 4571 0 0 4583 0 0 4405 0 0 4446 0 0 4726 0 0 4527 0 0 4623 0 0 4554 0 0 4676 0 0 4583 0 0 4635 0 0 4562 0 0 4463 0 0 4632 0 0 4510 0 0 4546 0 0 4588 0 0 4582 0 0 2278 0 0 0 0 0 0 0 0 0 0 0 0 0 0 0 0 0 0 0 0 0 0 0 0 0 0 0 0 0 
0 0 0 0 0 0 0 0 0 0 0 0 0 0 0 0 0 0 0 0 0 0 0 0 0 0 0 0 0 0 2330 0 0 4517 0 0 4542 0 0 4555 0 0 4547 0 0 4571 0 0 4500 0 0 4416 0 0 4622 0 0 4612 0 0 4601 0 0 4527 0 0 4573 0 0 4625 0 0 4537 0 0 4597 0 0 4448 0 0 4656 0 0 4537 0 0 4538 0 0 4660 0 0 4623 0 0 4612 0 0 4586 0 0 4587 0 0 4522 0 0 4565 0 0 4633 0 0 4573 0 0 4556 0 0 4683 0 0 4564 0 0 4501 0 0 4486 0 0 4560 0 0 4603 0 0 4590 0 0 4547 0 0 4501 0 0 4561 0 0 2195 0 0 0 0 0 0 0 0 0 0 0 0 0 0 0 0 0 0 0 0 0 0 0 0 0 0 0 0 0 
0 0 0 0 0 0 0 0 0 0 0 0 0 0 0 0 0 0 0 0 0 0 0 0 0 0 0 0 0 0 2262 0 0 4691 0 0 4666 0 0 4578 0 0 4630 0 0 4509 0 0 4507 0 0 4463 0 0 4323 0 0 4534 0 0 4611 0 0 4499 0 0 4601 0 0 4525 0 0 4555 0 0 4526 0 0 4546 0 0 4629 0 0 4582 0 0 4623 0 0 4565 0 0 4644 0 0 4571 0 0 4578 0 0 4562 0 0 4540 0 0 4600 0 0 4520 0 0 4605 0 0 4564 0 0 4715 0 0 4508 0 0 4614 0 0 4573 0 0 4441 0 0 4490 0 0 4564 0 0 4526 0 0 4563 0 0 4662 0 0 2286 0 0 0 0 0 0 0 0 0 0 0 0 0 0 0 0 0 0 0 0 0 0 0 0 0 0 0 0 0 
0 0 0 0 0 0 0 0 0 0 0 0 0 0 0 0 0 0 0 0 0 0 0 0 0 0 0 0 0 0 2233 0 0 4540 0 0 4441 0 0 4575 0 0 4583 0 0 4529 0 0 4494 0 0 4455 0 0 4512 0 0 4622 0 0 4514 0 0 4495 0 0 4613 0 0 4677 0 0 4490 0 0 4526 0 0 4569 0 0 4500 0 0 4676 0 0 4574 0 0 4610 0 0 4519 0 0 4630 0 0 4664 0 0 4667 0 0 4588 0 0 4573 0 0 4545 0 0 4484 0 0 4530 0 0 4630 0 0 4491 0 0 4680 0 0 4683 0 0 4636 0 0 4477 0 0 4505 0 0 4527 0 0 4473 0 0 4495 0 0 2342 0 0 0 0 0 0 0 0 0 0 0 0 0 0 0 0 0 0 0 0 0 0 0 0 0 0 0 0 0 
0 0 0 0 0 0 0 0 0 0 0 0 0 0 0 0 0 0 0 0 0 0 0 0 0 0 0 0 0 0 2241 0 0 4641 0 0 4686 0 0 4450 0 0 4479 0 0 4621 0 0 4710 0 0 4525 0 0 4488 0 0 4502 0 0 4720 0 0 4699 0 0 4540 0 0 4595 0 0 4600 0 0 4515 0 0 4524 0 0 4400 0 0 4575 0 0 4508 0 0 4420 0 0 4637 0 0 4572 0 0 4687 0 0 4509 0 0 4665 0 0 4505 0 0 4540 0 0 4498 0 0 4529 0 0 4590 0 0 4586 0 0 4586 0 0 4554 0 0 4505 0 0 4527 0 0 4580 0 0 4526 0 0 4527 0 0 4621 0 0 2384 0 0 0 0 0 0 0 0 0 0 0 0 0 0 0 0 0 0 0 0 0 0 0 0 0 0 0 0 0 
0 0 0 0 0 0 0 0 0 0 0 0 0 0 0 0 0 0 0 0 0 0 0 0 0 0 0 0 0 0 2273 0 0 4527 0 0 4580 0 0 4580 0 0 4586 0 0 4608 0 0 4653 0 0 4564 0 0 4514 0 0 4546 0 0 4517 0 0 4525 0 0 4573 0 0 4670 0 0 4493 0 0 4606 0 0 4637 0 0 4582 0 0 4627 0 0 4580 0 0 4652 0 0 4683 0 0 4668 0 0 4498 0 0 4612 0 0 4488 0 0 4548 0 0 4557 0 0 4612 0 0 4618 0 0 4507 0 0 4563 0 0 4476 0 0 4590 0 0 4666 0 0 4537 0 0 4563 0 0 4669 0 0 4562 0 0 4585 0 0 2320 0 0 0 0 0 0 0 0 0 0 0 0 0 0 0 0 0 0 0 0 0 0 0 0 0 0 0 0 0 
0 0 0 0 0 0 0 0 0 0 0 0 0 0 0 0 0 0 0 0 0 0 0 0 0 0 0 0 0 0 2155 0 0 4567 0 0 4470 0 0 4486 0 0 4565 0 0 4605 0 0 4663 0 0 4551 0 0 4488 0 0 4587 0 0 4562 0 0 4491 0 0 4560 0 0 4489 0 0 4654 0 0 4552 0 0 4591 0 0 4615 0 0 4393 0 0 4583 0 0 4453 0 0 4602 0 0 4592 0 0 4577 0 0 4623 0 0 4613 0 0 4563 0 0 4511 0 0 4669 0 0 4652 0 0 4594 0 0 4614 0 0 4543 0 0 4516 0 0 4479 0 0 4646 0 0 4466 0 0 4463 0 0 4634 0 0 4536 0 0 2282 0 0 0 0 0 0 0 0 0 0 0 0 0 0 0 0 0 0 0 0 0 0 0 0 0 0 0 0 0 
0 0 0 0 0 0 0 0 0 0 0 0 0 0 0 0 0 0 0 0 0 0 0 0 0 0 0 0 0 0 2292 0 0 4619 0 0 4484 0 0 4615 0 0 4454 0 0 4489 0 0 4711 0 0 4541 0 0 4551 0 0 4564 0 0 4573 0 0 4512 0 0 4553 0 0 4592 0 0 4663 0 0 4492 0 0 4613 0 0 4762 0 0 4550 0 0 4600 0 0 4663 0 0 4525 0 0 4573 0 0 4622 0 0 4595 0 0 4548 0 0 4608 0 0 4481 0 0 4563 0 0 4565 0 0 4464 0 0 4585 0 0 4566 0 0 4572 0 0 4627 0 0 4629 0 0 4587 0 0 4619 0 0 4597 0 0 4619 0 0 2309 0 0 0 0 0 0 0 0 0 0 0 0 0 0 0 0 0 0 0 0 0 0 0 0 0 0 0 0 0 
0 0 0 0 0 0 0 0 0 0 0 0 0 0 0 0 0 0 0 0 0 0 0 0 0 0 0 0 0 0 2284 0 0 4498 0 0 4646 0 0 4510 0 0 4598 0 0 4632 0 0 4581 0 0 4577 0 0 4413 0 0 4591 0 0 4562 0 0 4650 0 0 4495 0 0 4568 0 0 4618 0 0 4559 0 0 4666 0 0 4470 0 0 4521 0 0 4573 0 0 4521 0 0 4676 0 0 4625 0 0 4442 0 0 4535 0 0 4508 0 0 4687 0 0 4449 0 0 4659 0 0 4669 0 0 4549 0 0 4553 0 0 4639 0 0 4670 0 0 4525 0 0 4522 0 0 4643 0 0 4516 0 0 4608 0 0 4653 0 0 2295 0 0 0 0 0 0 0 0 0 0 0 0 0 0 0 0 0 0 0 0 0 0 0 0 0 0 0 0 0 
0 0 0 0 0 0 0 0 0 0 0 0 0 0 0 0 0 0 0 0 0 0 0 0 0 0 0 0 0 0 2363 0 0 4580 0 0 4587 0 0 4565 0 0 4613 0 0 4494 0 0 4557 0 0 4615 0 0 4570 0 0 4575 0 0 4523 0 0 4495 0 0 4501 0 0 4571 0 0 4581 0 0 4560 0 0 4587 0 0 4598 0 0 4547 0 0 4487 0 0 4586 0 0 4582 0 0 4613 0 0 4620 0 0 4533 0 0 4491 0 0 4579 0 0 4618 0 0 4570 0 0 4689 0 0 4511 0 0 4514 0 0 4502 0 0 4597 0 0 4546 0 0 4643 0 0 4580 0 0 4675 0 0 4652 0 0 4620 0 0 2270 0 0 0 0 0 0 0 0 0 0 0 0 0 0 0 0 0 0 0 0 0 0 0 0 0 0 0 0 0 
0 0 0 0 0 0 0 0 0 0 0 0 0 0 0 0 0 0 0 0 0 0 0 0 0 0 0 0 0 0 2312 0 0 4551 0 0 4488 0 0 4604 0 0 4471 0 0 4576 0 0 4622 0 0 4386 0 0 4429 0 0 4563 0 0 4613 0 0 4547 0 0 4464 0 0 4497 0 0 4481 0 0 4525 0 0 4497 0 0 4587 0 0 4454 0 0 4691 0 0 4467 0 0 4578 0 0 4636 0 0 4671 0 0 4650 0 0 4567 0 0 4559 0 0 4694 0 0 4640 0 0 4549 0 0 4642 0 0 4700 0 0 4451 0 0 4600 0 0 4539 0 0 4553 0 0 4617 0 0 4463 0 0 4482 0 0 4688 0 0 2222 0 0 0 0 0 0 0 0 0 0 0 0 0 0 0 0 0 0 0 0 0 0 0 0 0 0 0 0 0 
0 0 0 0 0 0 0 0 0 0 0 0 0 0 0 0 0 0 0 0 0 0 0 0 0 0 0 0 0 0 2269 0 0 4470 0 0 4631 0 0 4541 0 0 4649 0 0 4548 0 0 4557 0 0 4568 0 0 4472 0 0 4529 0 0 4536 0 0 4605 0 0 4583 0 0 4509 0 0 4576 0 0 4537 0 0 4668 0 0 4368 0 0 4536 0 0 4570 0 0 4528 0 0 4551 0 0 4534 0 0 4473 0 0 4715 0 0 4584 0 0 4617 0 0 4550 0 0 4515 0 0 4613 0 0 4604 0 0 4499 0 0 4546 0 0 4675 0 0 4532 0 0 4659 0 0 4607 0 0 4686 0 0 4524 0 0 4665 0 0 2318 0 0 0 0 0 0 0 0 0 0 0 0 0 0 0 0 0 0 0 0 0 0 0 0 0 0 0 0 0 
0 0 0 0 0 0 0 0 0 0 0 0 0 0 0 0 0 0 0 0 0 0 0 0 0 0 0 0 0 0 2223 0 0 4614 0 0 4437 0 0 4630 0 0 4638 0 0 4699 0 0 4577 0 0 4629 0 0 4499 0 0 4471 0 0 4496 0 0 4522 0 0 4622 0 0 4581 0 0 4675 0 0 4598 0 0 4400 0 0 4667 0 0 4694 0 0 4512 0 0 4511 0 0 4528 0 0 4667 0 0 4553 0 0 4577 0 0 4537 0 0 4535 0 0 4533 0 0 4611 0 0 4552 0 0 4496 0 0 4543 0 0 4532 0 0 4616 0 0 4610 0 0 4472 0 0 4540 0 0 4586 0 0 4614 0 0 4648 0 0 2281 0 0 0 0 0 0 0 0 0 0 0 0 0 0 0 0 0 0 0 0 0 0 0 0 0 0 0 0 0 
0 0 0 0 0 0 0 0 0 0 0 0 0 0 0 0 0 0 0 0 0 0 0 0 0 0 0 0 0 0 2343 0 0 4521 0 0 4447 0 0 4579 0 0 4533 0 0 4532 0 0 4576 0 0 4514 0 0 4683 0 0 4642 0 0 4489 0 0 4575 0 0 4461 0 0 4660 0 0 4642 0 0 4532 0 0 4579 0 0 4561 0 0 4538 0 0 4685 0 0 4541 0 0 4526 0 0 4591 0 0 4583 0 0 4520 0 0 4638 0 0 4549 0 0 4591 0 0 4549 0 0 4533 0 0 4588 0 0 4592 0 0 4515 0 0 4563 0 0 4620 0 0 4550 0 0 4550 0 0 4468 0 0 4583 0 0 4567 0 0 2197 0 0 0 0 0 0 0 0 0 0 0 0 0 0 0 0 0 0 0 0 0 0 0 0 0 0 0 0 0 
0 0 0 0 0 0 0 0 0 0 0 0 0 0 0 0 0 0 0 0 0 0 0 0 0 0 0 0 0 0 2344 0 0 4594 0 0 4614 0 0 4532 0 0 4576 0 0 4546 0 0 4528 0 0 4603 0 0 4505 0 0 4657 0 0 4532 0 0 4621 0 0 4689 0 0 4479 0 0 4580 0 0 4513 0 0 4483 0 0 4633 0 0 4646 0 0 4636 0 0 4622 0 0 4681 0 0 4512 0 0 4506 0 0 4556 0 0 4459 0 0 4400 0 0 4628 0 0 4597 0 0 4595 0 0 4541 0 0 4634 0 0 4686 0 0 4463 0 0 4542 0 0 4455 0 0 4544 0 0 4610 0 0 4535 0 0 4465 0 0 2279 0 0 0 0 0 0 0 0 0 0 0 0 0 0 0 0 0 0 0 0 0 0 0 0 0 0 0 0 0 
0 0 0 0 0 0 0 0 0 0 0 0 0 0 0 0 0 0 0 0 0 0 0 0 0 0 0 0 0 0 2240 0 0 4525 0 0 4630 0 0 4652 0 0 4540 0 0 4477 0 0 4498 0 0 4606 0 0 4579 0 0 4511 0 0 4633 0 0 4583 0 0 4671 0 0 4628 0 0 4611 0 0 4622 0 0 4500 0 0 4575 0 0 4556 0 0 4517 0 0 4612 0 0 4564 0 0 4562 0 0 4554 0 0 4491 0 0 4598 0 0 4507 0 0 4607 0 0 4544 0 0 4659 0 0 4366 0 0 4536 0 0 4497 0 0 4554 0 0 4600 0 0 4436 0 0 4607 0 0 4536 0 0 4601 0 0 4713 0 0 2337 0 0 0 0 0 0 0 0 0 0 0 0 0 0 0 0 0 0 0 0 0 0 0 0 0 0 0 0 0 
0 0 0 0 0 0 0 0 0 0 0 0 0 0 0 0 0 0 0 0 0 0 0 0 0 0 0 0 0 0 2256 0 0 4612 0 0 4521 0 0 4642 0 0 4572 0 0 4627 0 0 4637 0 0 4663 0 0 4614 0 0 4595 0 0 4561 0 0 4464 0 0 4678 0 0 4575 0 0 4467 0 0 4564 0 0 4572 0 0 4504 0 0 4733 0 0 4676 0 0 4476 0 0 4600 0 0 4615 0 0 4565 0 0 4517 0 0 4535 0 0 4619 0 0 4602 0 0 4600 0 0 4520 0 0 4506 0 0 4717 0 0 4602 0 0 4503 0 0 4575 0 0 4599 0 0 4559 0 0 4523 0 0 4563 0 0 4616 0 0 2318 0 0 0 0 0 0 0 0 0 0 0 0 0 0 0 0 0 0 0 0 0 0 0 0 0 0 0 0 0 
0 0 0 0 0 0 0 0 0 0 0 0 0 0 0 0 0 0 0 0 0 0 0 0 0 0 0 0 0 0 2197 0 0 4705 0 0 4450 0 0 4583 0 0 4575 0 0 4512 0 0 4556 0 0 4463 0 0 4509 0 0 4595 0 0 4646 0 0 4556 0 0 4534 0 0 4603 0 0 4644 0 0 4611 0 0 4648 0 0 4554 0 0 4534 0 0 4433 0 0 4558 0 0 4542 0 0 4637 0 0 4605 0 0 4773 0 0 4603 0 0 4614 0 0 4481 0 0 4527 0 0 4596 0 0 4515 0 0 4522 0 0 4488 0 0 4621 0 0 4515 0 0 4523 0 0 4544 0 0 4452 0 0 4631 0 0 4619 0 0 2190 0 0 0 0 0 0 0 0 0 0 0 0 0 0 0 0 0 0 0 0 0 0 0 0 0 0 0 0 0 
0 0 0 0 0 0 0 0 0 0 0 0 0 0 0 0 0 0 0 0 0 0 0 0 0 0 0 0 0 0 2267 0 0 4589 0 0 4655 0 0 4417 0 0 4708 0 0 4598 0 0 4646 0 0 4622 0 0 4568 0 0 4626 0 0 4491 0 0 4514 0 0 4418 0 0 4553 0 0 4589 0 0 4536 0 0 4559 0 0 4628 0 0 4526 0 0 4687 0 0 4489 0 0 4673 0 0 4698 0 0 4599 0 0 4537 0 0 4561 0 0 4553 0 0 4467 0 0 4575 0 0 4595 0 0 4638 0 0 4626 0 0 4560 0 0 4557 0 0 4575 0 0 4529 0 0 4450 0 0 4563 0 0 4632 0 0 4559 0 0 2316 0 0 0 0 0 0 0 0 0 0 0 0 0 0 0 0 0 0 0 0 0 0 0 0 0 0 0 0 0 
0 0 0 0 0 0 0 0 0 0 0 0 0 0 0 0 0 0 0 0 0 0 0 0 0 0 0 0 0 0 2274 0 0 4540 0 0 4618 0 0 4651 0 0 4580 0 0 4520 0 0 4654 0 0 4553 0 0 4640 0 0 4688 0 0 4587 0 0 4501 0 0 4572 0 0 4614 0 0 4454 0 0 4636 0 0 4723 0 0 4524 0 0 4563 0 0 4506 0 0 4489 0 0 4525 0 0 4552 0 0 4517 0 0 4511 0 0 4698 0 0 4496 0 0 4607 0 0 4496 0 0 4489 0 0 4581 0 0 4443 0 0 4660 0 0 4529 0 0 4585 0 0 4599 0 0 4516 0 0 4726 0 0 4649 0 0 4554 0 0 2298 0 0 0 0 0 0 0 0 0 0 0 0 0 0 0 0 0 0 0 0 0 0 0 0 0 0 0 0 0 
0 0 0 0 0 0 0 0 0 0 0 0 0 0 0 0 0 0 0 0 0 0 0 0 0 0 0 0 0 0 2329 0 0 4585 0 0 4506 0 0 4589 0 0 4553 0 0 4638 0 0 4480 0 0 4530 0 0 4521 0 0 4553 0 0 4594 0 0 4652 0 0 4620 0 0 4584 0 0 4562 0 0 4589 0 0 4521 0 0 4539 0 0 4517 0 0 4673 0 0 4610 0 0 4559 0 0 4594 0 0 4450 0 0 4504 0 0 4638 0 0 4645 0 0 4656 0 0 4562 0 0 4511 0 0 4552 0 0 4533 0 0 4649 0 0 4523 0 0 4693 0 0 4477 0 0 4527 0 0 4669 0 0 4529 0 0 4569 0 0 2385 0 0 0 0 0 0 0 0 0 0 0 0 0 0 0 0 0 0 0 0 0 0 0 0 0 0 0 0 0 
0 0 0 0 0 0 0 0 0 0 0 0 0 0 0 0 0 0 0 0 0 0 0 0 0 0 0 0 0 0 2328 0 0 4596 0 0 4542 0 0 4623 0 0 4604 0 0 4597 0 0 4576 0 0 4588 0 0 4682 0 0 4505 0 0 4532 0 0 4421 0 0 4434 0 0 4631 0 0 4593 0 0 4556 0 0 4494 0 0 4513 0 0 4594 0 0 4520 0 0 4616 0 0 4558 0 0 4578 0 0 4388 0 0 4412 0 0 4631 0 0 4545 0 0 4439 0 0 4607 0 0 4583 0 0 4574 0 0 4700 0 0 4560 0 0 4390 0 0 4608 0 0 4491 0 0 4499 0 0 4677 0 0 4618 0 0 4561 0 0 2285 0 0 0 0 0 0 0 0 0 0 0 0 0 0 0 0 0 0 0 0 0 0 0 0 0 0 0 0 0 
0 0 0 0 0 0 0 0 0 0 0 0 0 0 0 0 0 0 0 0 0 0 0 0 0 0 0 0 0 0 2345 0 0 4679 0 0 4537 0 0 4655 0 0 4565 0 0 4567 0 0 4450 0 0 4583 0 0 4498 0 0 4600 0 0 4670 0 0 4508 0 0 4657 0 0 4567 0 0 4479 0 0 4571 0 0 4550 0 0 4444 0 0 4631 0 0 4573 0 0 4482 0 0 4555 0 0 4648 0 0 4636 0 0 4622 0 0 4596 0 0 4618 0 0 4614 0 0 4530 0 0 4672 0 0 4471 0 0 4586 0 0 4586 0 0 4561 0 0 4506 0 0 4462 0 0 4607 0 0 4618 0 0 4631 0 0 4588 0 0 2304 0 0 0 0 0 0 0 0 0 0 0 0 0 0 0 0 0 0 0 0 0 0 0 0 0 0 0 0 0 
0 0 0 0 0 0 0 0 0 0 0 0 0 0 0 0 0 0 0 0 0 0 0 0 0 0 0 0 0 0 2203 0 0 4666 0 0 4502 0 0 4644 0 0 4627 0 0 4607 0 0 4618 0 0 4612 0 0 4581 0 0 4629 0 0 4527 0 0 4604 0 0 4538 0 0 4345 0 0 4656 0 0 4648 0 0 4494 0 0 4667 0 0 4628 0 0 4570 0 0 4650 0 0 4655 0 0 4568 0 0 4517 0 0 4575 0 0 4575 0 0 4584 0 0 4639 0 0 4637 0 0 4667 0 0 4567 0 0 4589 0 0 4614 0 0 4532 0 0 4562 0 0 4467 0 0 4553 0 0 4625 0 0 4488 0 0 4524 0 0 2320 0 0 0 0 0 0 0 0 0 0 0 0 0 0 0 0 0 0 0 0 0 0 0 0 0 0 0 0 0 
0 0 0 0 0 0 0 0 0 0 0 0 0 0 0 0 0 0 0 0 0 0 0 0 0 0 0 0 0 0 2445 0 0 4587 0 0 4582 0 0 4725 0 0 4676 0 0 4710 0 0 4477 0 0 4600 0 0 4548 0 0 4604 0 0 4654 0 0 4679 0 0 4454 0 0 4590 0 0 4607 0 0 4657 0 0 4638 0 0 4533 0 0 4625 0 0 4509 0 0 4630 0 0 4397 0 0 4528 0 0 4615 0 0 4666 0 0 4503 0 0 4566 0 0 4680 0 0 4509 0 0 4650 0 0 4518 0 0 4497 0 0 4589 0 0 4496 0 0 4474 0 0 4652 0 0 4500 0 0 4487 0 0 4494 0 0 4635 0 0 2214 0 0 0 0 0 0 0 0 0 0 0 0 0 0 0 0 0 0 0 0 0 0 0 0 0 0 0 0 0 
0 0 0 0 0 0 0 0 0 0 0 0 0 0 0 0 0 0 0 0 0 0 0 0 0 0 0 0 0 0 2231 0 0 4393 0 0 4636 0 0 4587 0 0 4595 0 0 4583 0 0 4421 0 0 4645 0 0 4560 0 0 4556 0 0 4600 0 0 4428 0 0 4547 0 0 4494 0 0 4544 0 0 4516 0 0 4461 0 0 4593 0 0 4578 0 0 4567 0 0 4387 0 0 4448 0 0 4630 0 0 4672 0 0 4555 0 0 4469 0 0 4504 0 0 4453 0 0 4540 0 0 4450 0 0 4566 0 0 4428 0 0 4689 0 0 4535 0 0 4638 0 0 4559 0 0 4600 0 0 4673 0 0 4666 0 0 4593 0 0 2382 0 0 0 0 0 0 0 0 0 0 0 0 0 0 0 0 0 0 0 0 0 0 0 0 0 0 0 0 0 
0 0 0 0 0 0 0 0 0 0 0 0 0 0 0 0 0 0 0 0 0 0 0 0 0 0 0 0 0 0 2265 0 0 4456 0 0 4478 0 0 4695 0 0 4577 0 0 4478 0 0 4557 0 0 4635 0 0 4489 0 0 4409 0 0 4567 0 0 4446 0 0 4505 0 0 4465 0 0 4610 0 0 4639 0 0 4507 0 0 4506 0 0 4564 0 0 4515 0 0 4526 0 0 4669 0 0 4671 0 0 4553 0 0 4571 0 0 4510 0 0 4551 0 0 4607 0 0 4459 0 0 4470 0 0 4534 0 0 4503 0 0 4537 0 0 4549 0 0 4565 0 0 4594 0 0 4611 0 0 4612 0 0 4532 0 0 4590 0 0 2293 0 0 0 0 0 0 0 0 0 0 0 0 0 0 0 0 0 0 0 0 0 0 0 0 0 0 0 0 0 
0 0 0 0 0 0 0 0 0 0 0 0 0 0 0 0 0 0 0 0 0 0 0 0 0 0 0 0 0 0 2342 0 0 4600 0 0 4568 0 0 4611 0 0 4580 0 0 4627 0 0 4591 0 0 4650 0 0 4495 0 0 4543 0 0 4617 0 0 4567 0 0 4598 0 0 4381 0 0 4534 0 0 4519 0 0 4475 0 0 4688 0 0 4540 0 0 4592 0 0 4642 0 0 4412 0 0 4550 0 0 4547 0 0 4574 0 0 4501 0 0 4706 0 0 4582 0 0 4640 0 0 4631 0 0 4611 0 0 4607 0 0 4650 0 0 4652 0 0 4594 0 0 4573 0 0 4690 0 0 4610 0 0 4597 0 0 4528 0 0 2265 0 0 0 0 0 0 0 0 0 0 0 0 0 0 0 0 0 0 0 0 0 0 0 0 0 0 0 0 0 
0 0 0 0 0 0 0 0 0 0 0 0 0 0 0 0 0 0 0 0 0 0 0 0 0 0 0 0 0 0 2368 0 0 4574 0 0 4621 0 0 4583 0 0 4524 0 0 4612 0 0 4618 0 0 4499 0 0 4635 0 0 4596 0 0 4533 0 0 4620 0 0 4483 0 0 4616 0 0 4503 0 0 4574 0 0 4518 0 0 4619 0 0 4501 0 0 4533 0 0 4518 0 0 4518 0 0 4599 0 0 4534 0 0 4476 0 0 4637 0 0 4659 0 0 4570 0 0 4499 0 0 4399 0 0 4549 0 0 4604 0 0 4608 0 0 4584 0 0 4562 0 0 4502 0 0 4623 0 0 4403 0 0 4515 0 0 4550 0 0 2299 0 0 0 0 0 0 0 0 0 0 0 0 0 0 0 0 0 0 0 0 0 0 0 0 0 0 0 0 0 
0 0 0 0 0 0 0 0 0 0 0 0 0 0 0 0 0 0 0 0 0 0 0 0 0 0 0 0 0 0 1160 0 0 2349 0 0 2218 0 0 2261 0 0 2219 0 0 2370 0 0 2396 0 0 2292 0 0 2231 0 0 2330 0 0 2230 0 0 2257 0 0 2268 0 0 2341 0 0 2196 0 0 2269 0 0 2302 0 0 2324 0 0 2229 0 0 2275 0 0 2301 0 0 2336 0 0 2314 0 0 2206 0 0 2342 0 0 2299 0 0 2259 0 0 2228 0 0 2257 0 0 2233 0 0 2289 0 0 2337 0 0 2312 0 0 2272 0 0 2281 0 0 2306 0 0 2294 0 0 2314 0 0 2261 0 0 2224 0 0 1121 0 0 0 0 0 0 0 0 0 0 0 0 0 0 0 0 0 0 0 0 0 0 0 0 0 0 0 0 0 
0 0 0 0 0 0 0 0 0 0 0 0 0 0 0 0 0 0 0 0 0 0 0 0 0 0 0 0 0 0 0 0 0 0 0 0 0 0 0 0 0 0 0 0 0 0 0 0 0 0 0 0 0 0 0 0 0 0 0 0 0 0 0 0 0 0 0 0 0 0 0 0 0 0 0 0 0 0 0 0 0 0 0 0 0 0 0 0 0 0 0 0 0 0 0 0 0 0 0 0 0 0 0 0 0 0 0 0 0 0 0 0 0 0 0 0 0 0 0 0 0 0 0 0 0 0 0 0 0 0 0 0 0 0 0 0 0 0 0 0 0 0 0 0 0 0 0 0 0 0 0 0 0 0 0 0 0 0 0 0 0 0 0 0 0 0 0 0 0 0 0 0 0 0 0 0 0 0 0 0 
0 0 0 0 0 0 0 0 0 0 0 0 0 0 0 0 0 0 0 0 0 0 0 0 0 0 0 0 0 0 0 0 0 0 0 0 0 0 0 0 0 0 0 0 0 0 0 0 0 0 0 0 0 0 0 0 0 0 0 0 0 0 0 0 0 0 0 0 0 0 0 0 0 0 0 0 0 0 0 0 0 0 0 0 0 0 0 0 0 0 0 0 0 0 0 0 0 0 0 0 0 0 0 0 0 0 0 0 0 0 0 0 0 0 0 0 0 0 0 0 0 0 0 0 0 0 0 0 0 0 0 0 0 0 0 0 0 0 0 0 0 0 0 0 0 0 0 0 0 0 0 0 0 0 0 0 0 0 0 0 0 0 0 0 0 0 0 0 0 0 0 0 0 0 0 0 0 0 0 0 
0 0 0 0 0 0 0 0 0 0 0 0 0 0 0 0 0 0 0 0 0 0 0 0 0 0 0 0 0 0 0 0 0 0 0 0 0 0 0 0 0 0 0 0 0 0 0 0 0 0 0 0 0 0 0 0 0 0 0 0 0 0 0 0 0 0 0 0 0 0 0 0 0 0 0 0 0 0 0 0 0 0 0 0 0 0 0 0 0 0 0 0 0 0 0 0 0 0 0 0 0 0 0 0 0 0 0 0 0 0 0 0 0 0 0 0 0 0 0 0 0 0 0 0 0 0 0 0 0 0 0 0 0 0 0 0 0 0 0 0 0 0 0 0 0 0 0 0 0 0 0 0 0 0 0 0 0 0 0 0 0 0 0 0 0 0 0 0 0 0 0 0 0 0 0 0 0 0 0 0 
0 0 0 0 0 0 0 0 0 0 0 0 0 0 0 0 0 0 0 0 0 0 0 0 0 0 0 0 0 0 0 0 0 0 0 0 0 0 0 0 0 0 0 0 0 0 0 0 0 0 0 0 0 0 0 0 0 0 0 0 0 0 0 0 0 0 0 0 0 0 0 0 0 0 0 0 0 0 0 0 0 0 0 0 0 0 0 0 0 0 0 0 0 0 0 0 0 0 0 0 0 0 0 0 0 0 0 0 0 0 0 0 0 0 0 0 0 0 0 0 0 0 0 0 0 0 0 0 0 0 0 0 0 0 0 0 0 0 0 0 0 0 0 0 0 0 0 0 0 0 0 0 0 0 0 0 0 0 0 0 0 0 0 0 0 0 0 0 0 0 0 0 0 0 0 0 0 0 0 0 
0 0 0 0 0 0 0 0 0 0 0 0 0 0 0 0 0 0 0 0 0 0 0 0 0 0 0 0 0 0 0 0 0 0 0 0 0 0 0 0 0 0 0 0 0 0 0 0 0 0 0 0 0 0 0 0 0 0 0 0 0 0 0 0 0 0 0 0 0 0 0 0 0 0 0 0 0 0 0 0 0 0 0 0 0 0 0 0 0 0 0 0 0 0 0 0 0 0 0 0 0 0 0 0 0 0 0 0 0 0 0 0 0 0 0 0 0 0 0 0 0 0 0 0 0 0 0 0 0 0 0 0 0 0 0 0 0 0 0 0 0 0 0 0 0 0 0 0 0 0 0 0 0 0 0 0 0 0 0 0 0 0 0 0 0 0 0 0 0 0 0 0 0 0 0 0 0 0 0 0 
0 0 0 0 0 0 0 0 0 0 0 0 0 0 0 0 0 0 0 0 0 0 0 0 0 0 0 0 0 0 0 0 0 0 0 0 0 0 0 0 0 0 0 0 0 0 0 0 0 0 0 0 0 0 0 0 0 0 0 0 0 0 0 0 0 0 0 0 0 0 0 0 0 0 0 0 0 0 0 0 0 0 0 0 0 0 0 0 0 0 0 0 0 0 0 0 0 0 0 0 0 0 0 0 0 0 0 0 0 0 0 0 0 0 0 0 0 0 0 0 0 0 0 0 0 0 0 0 0 0 0 0 0 0 0 0 0 0 0 0 0 0 0 0 0 0 0 0 0 0 0 0 0 0 0 0 0 0 0 0 0 0 0 0 0 0 0 0 0 0 0 0 0 0 0 0 0 0 0 0 
0 0 0 0 0 0 0 0 0 0 0 0 0 0 0 0 0 0 0 0 0 0 0 0 0 0 0 0 0 0 0 0 0 0 0 0 0 0 0 0 0 0 0 0 0 0 0 0 0 0 0 0 0 0 0 0 0 0 0 0 0 0 0 0 0 0 0 0 0 0 0 0 0 0 0 0 0 0 0 0 0 0 0 0 0 0 0 0 0 0 0 0 0 0 0 0 0 0 0 0 0 0 0 0 0 0 0 0 0 0 0 0 0 0 0 0 0 0 0 0 0 0 0 0 0 0 0 0 0 0 0 0 0 0 0 0 0 0 0 0 0 0 0 0 0 0 0 0 0 0 0 0 0 0 0 0 0 0 0 0 0 0 0 0 0 0 0 0 0 0 0 0 0 0 0 0 0 0 0 0 
0 0 0 0 0 0 0 0 0 0 0 0 0 0 0 0 0 0 0 0 0 0 0 0 0 0 0 0 0 0 0 0 0 0 0 0 0 0 0 0 0 0 0 0 0 0 0 0 0 0 0 0 0 0 0 0 0 0 0 0 0 0 0 0 0 0 0 0 0 0 0 0 0 0 0 0 0 0 0 0 0 0 0 0 0 0 0 0 0 0 0 0 0 0 0 0 0 0 0 0 0 0 0 0 0 0 0 0 0 0 0 0 0 0 0 0 0 0 0 0 0 0 0 0 0 0 0 0 0 0 0 0 0 0 0 0 0 0 0 0 0 0 0 0 0 0 0 0 0 0 0 0 0 0 0 0 0 0 0 0 0 0 0 0 0 0 0 0 0 0 0 0 0 0 0 0 0 0 0 0 
0 0 0 0 0 0 0 0 0 0 0 0 0 0 0 0 0 0 0 0 0 0 0 0 0 0 0 0 0 0 0 0 0 0 0 0 0 0 0 0 0 0 0 0 0 0 0 0 0 0 0 0 0 0 0 0 0 0 0 0 0 0 0 0 0 0 0 0 0 0 0 0 0 0 0 0 0 0 0 0 0 0 0 0 0 0 0 0 0 0 0 0 0 0 0 0 0 0 0 0 0 0 0 0 0 0 0 0 0 0 0 0 0 0 0 0 0 0 0 0 0 0 0 0 0 0 0 0 0 0 0 0 0 0 0 0 0 0 0 0 0 0 0 0 0 0 0 0 0 0 0 0 0 0 0 0 0 0 0 0 0 0 0 0 0 0 0 0 0 0 0 0 0 0 0 0 0 0 0 0 
