P3
# This is a dose file slice at depth 88 of 100
60 60
# now we give the maximum value of the RGB coordinates.
21610
0 0 0 0 0 0 1 0 0 0 0 0 0 0 0 0 0 0 0 0 0 0 0 0 0 0 0 0 0 0 0 0 0 0 0 0 0 0 0 0 0 0 0 0 0 0 0 0 0 0 0 0 0 0 2 0 0 1 0 0 0 0 0 0 0 0 1 0 0 0 0 0 1 0 0 0 0 0 1 0 0 0 0 0 0 0 0 1 0 0 0 0 0 0 0 0 0 0 0 1 0 0 0 0 0 0 0 0 0 0 0 1 0 0 0 0 0 1 0 0 0 0 0 0 0 0 1 0 0 0 0 0 0 0 0 0 0 0 0 0 0 0 0 0 2 0 0 0 0 0 0 0 0 0 0 0 2 0 0 0 0 0 0 0 0 0 0 0 0 0 0 0 0 0 0 0 0 1 0 0 
1 0 0 1 0 0 0 0 0 0 0 0 1 0 0 0 0 0 0 0 0 1 0 0 0 0 0 0 0 0 2 0 0 1 0 0 0 0 0 1 0 0 1 0 0 0 0 0 0 0 0 1 0 0 2 0 0 3 0 0 3 0 0 1 0 0 5 0 0 0 0 0 0 0 0 1 0 0 2 0 0 0 0 0 0 0 0 1 0 0 3 0 0 2 0 0 2 0 0 2 0 0 3 0 0 0 0 0 0 0 0 1 0 0 1 0 0 1 0 0 0 0 0 0 0 0 2 0 0 1 0 0 0 0 0 0 0 0 1 0 0 2 0 0 1 0 0 0 0 0 3 0 0 3 0 0 2 0 0 0 0 0 0 0 0 0 0 0 0 0 0 0 0 0 0 0 0 1 0 0 
0 0 0 0 0 0 0 0 0 0 0 0 1 0 0 1 0 0 0 0 0 1 0 0 1 0 0 0 0 0 0 0 0 0 0 0 0 0 0 1 0 0 0 0 0 4 0 0 0 0 0 1 0 0 2 0 0 1 0 0 2 0 0 0 0 0 2 0 0 2 0 0 1 0 0 1 0 0 0 0 0 2 0 0 1 0 0 3 0 0 0 0 0 0 0 0 1 0 0 2 0 0 3 0 0 2 0 0 0 0 0 4 0 0 1 0 0 3 0 0 2 0 0 3 0 0 2 0 0 1 0 0 0 0 0 0 0 0 0 0 0 1 0 0 1 0 0 1 0 0 4 0 0 0 0 0 0 0 0 0 0 0 0 0 0 0 0 0 0 0 0 0 0 0 4 0 0 3 0 0 
2 0 0 1 0 0 0 0 0 0 0 0 0 0 0 1 0 0 0 0 0 0 0 0 2 0 0 2 0 0 1 0 0 0 0 0 0 0 0 1 0 0 1 0 0 2 0 0 3 0 0 1 0 0 1 0 0 1 0 0 1 0 0 4 0 0 0 0 0 0 0 0 5 0 0 1 0 0 0 0 0 0 0 0 4 0 0 3 0 0 0 0 0 3 0 0 0 0 0 0 0 0 4 0 0 4 0 0 0 0 0 2 0 0 3 0 0 1 0 0 2 0 0 3 0 0 2 0 0 3 0 0 0 0 0 2 0 0 2 0 0 2 0 0 0 0 0 4 0 0 0 0 0 1 0 0 1 0 0 2 0 0 1 0 0 0 0 0 1 0 0 2 0 0 0 0 0 0 0 0 
0 0 0 2 0 0 2 0 0 2 0 0 0 0 0 0 0 0 0 0 0 2 0 0 2 0 0 1 0 0 3 0 0 0 0 0 0 0 0 0 0 0 2 0 0 1 0 0 1 0 0 0 0 0 0 0 0 2 0 0 1 0 0 2 0 0 4 0 0 2 0 0 3 0 0 5 0 0 1 0 0 1 0 0 5 0 0 2 0 0 1 0 0 3 0 0 1 0 0 1 0 0 3 0 0 1 0 0 3 0 0 0 0 0 2 0 0 2 0 0 2 0 0 2 0 0 3 0 0 5 0 0 1 0 0 3 0 0 4 0 0 4 0 0 4 0 0 2 0 0 1 0 0 2 0 0 3 0 0 2 0 0 1 0 0 0 0 0 1 0 0 0 0 0 0 0 0 1 0 0 
1 0 0 1 0 0 2 0 0 3 0 0 2 0 0 2 0 0 0 0 0 0 0 0 4 0 0 3 0 0 2 0 0 0 0 0 1 0 0 1 0 0 0 0 0 1 0 0 1 0 0 1 0 0 2 0 0 1 0 0 2 0 0 5 0 0 4 0 0 1 0 0 2 0 0 3 0 0 4 0 0 2 0 0 1 0 0 0 0 0 2 0 0 2 0 0 2 0 0 6 0 0 1 0 0 0 0 0 2 0 0 0 0 0 3 0 0 0 0 0 4 0 0 2 0 0 7 0 0 5 0 0 1 0 0 2 0 0 4 0 0 2 0 0 0 0 0 3 0 0 0 0 0 0 0 0 3 0 0 4 0 0 0 0 0 1 0 0 1 0 0 0 0 0 2 0 0 1 0 0 
1 0 0 3 0 0 1 0 0 1 0 0 1 0 0 4 0 0 2 0 0 0 0 0 0 0 0 3 0 0 3 0 0 1 0 0 6 0 0 0 0 0 1 0 0 2 0 0 1 0 0 3 0 0 2 0 0 0 0 0 3 0 0 3 0 0 2 0 0 1 0 0 3 0 0 2 0 0 3 0 0 7 0 0 3 0 0 5 0 0 3 0 0 6 0 0 5 0 0 0 0 0 1 0 0 1 0 0 1 0 0 3 0 0 4 0 0 3 0 0 4 0 0 2 0 0 6 0 0 4 0 0 1 0 0 7 0 0 0 0 0 3 0 0 1 0 0 2 0 0 3 0 0 2 0 0 4 0 0 1 0 0 0 0 0 1 0 0 1 0 0 1 0 0 2 0 0 1 0 0 
0 0 0 1 0 0 1 0 0 1 0 0 1 0 0 4 0 0 3 0 0 2 0 0 2 0 0 0 0 0 4 0 0 3 0 0 1 0 0 2 0 0 1 0 0 1 0 0 4 0 0 3 0 0 3 0 0 3 0 0 4 0 0 5 0 0 2 0 0 1 0 0 6 0 0 3 0 0 3 0 0 5 0 0 4 0 0 3 0 0 5 0 0 5 0 0 5 0 0 3 0 0 0 0 0 3 0 0 2 0 0 3 0 0 6 0 0 4 0 0 4 0 0 6 0 0 4 0 0 3 0 0 6 0 0 0 0 0 3 0 0 3 0 0 2 0 0 6 0 0 3 0 0 2 0 0 4 0 0 0 0 0 0 0 0 0 0 0 2 0 0 2 0 0 1 0 0 1 0 0 
0 0 0 0 0 0 2 0 0 1 0 0 3 0 0 1 0 0 1 0 0 2 0 0 1 0 0 5 0 0 3 0 0 7 0 0 2 0 0 6 0 0 10 0 0 5 0 0 3 0 0 2 0 0 3 0 0 5 0 0 4 0 0 4 0 0 2 0 0 2 0 0 2 0 0 4 0 0 8 0 0 5 0 0 6 0 0 3 0 0 1 0 0 7 0 0 3 0 0 5 0 0 1 0 0 6 0 0 4 0 0 4 0 0 9 0 0 9 0 0 4 0 0 5 0 0 5 0 0 3 0 0 3 0 0 1 0 0 6 0 0 7 0 0 6 0 0 2 0 0 1 0 0 4 0 0 1 0 0 2 0 0 0 0 0 1 0 0 3 0 0 2 0 0 0 0 0 1 0 0 
1 0 0 3 0 0 1 0 0 1 0 0 2 0 0 2 0 0 0 0 0 4 0 0 2 0 0 0 0 0 14 0 0 35 0 0 28 0 0 24 0 0 22 0 0 22 0 0 25 0 0 28 0 0 27 0 0 24 0 0 21 0 0 22 0 0 31 0 0 25 0 0 22 0 0 28 0 0 20 0 0 26 0 0 31 0 0 24 0 0 29 0 0 30 0 0 28 0 0 29 0 0 28 0 0 25 0 0 30 0 0 27 0 0 22 0 0 26 0 0 23 0 0 28 0 0 26 0 0 22 0 0 19 0 0 24 0 0 27 0 0 24 0 0 31 0 0 23 0 0 12 0 0 1 0 0 0 0 0 0 0 0 2 0 0 3 0 0 2 0 0 0 0 0 1 0 0 3 0 0 
0 0 0 1 0 0 1 0 0 1 0 0 3 0 0 3 0 0 4 0 0 1 0 0 3 0 0 20 0 0 812 0 0 1553 0 0 1592 0 0 1630 0 0 1603 0 0 1564 0 0 1514 0 0 1512 0 0 1598 0 0 1654 0 0 1619 0 0 1550 0 0 1557 0 0 1560 0 0 1557 0 0 1589 0 0 1554 0 0 1542 0 0 1614 0 0 1489 0 0 1556 0 0 1575 0 0 1598 0 0 1599 0 0 1588 0 0 1580 0 0 1616 0 0 1520 0 0 1592 0 0 1633 0 0 1586 0 0 1584 0 0 1605 0 0 1581 0 0 1556 0 0 1576 0 0 1514 0 0 1582 0 0 1513 0 0 1601 0 0 791 0 0 9 0 0 4 0 0 2 0 0 4 0 0 4 0 0 0 0 0 1 0 0 1 0 0 0 0 0 
2 0 0 2 0 0 1 0 0 2 0 0 4 0 0 1 0 0 2 0 0 3 0 0 1 0 0 30 0 0 1561 0 0 3032 0 0 3123 0 0 3186 0 0 3097 0 0 3177 0 0 3020 0 0 3110 0 0 3085 0 0 3143 0 0 3104 0 0 3157 0 0 3137 0 0 3210 0 0 3154 0 0 3099 0 0 3074 0 0 3151 0 0 3176 0 0 3197 0 0 3154 0 0 3065 0 0 3105 0 0 3205 0 0 3159 0 0 3113 0 0 3005 0 0 3145 0 0 3126 0 0 3154 0 0 3203 0 0 3140 0 0 3197 0 0 3063 0 0 3127 0 0 3192 0 0 3150 0 0 3131 0 0 3107 0 0 3095 0 0 1578 0 0 25 0 0 3 0 0 3 0 0 2 0 0 1 0 0 1 0 0 2 0 0 2 0 0 0 0 0 
0 0 0 2 0 0 0 0 0 1 0 0 3 0 0 2 0 0 1 0 0 6 0 0 1 0 0 28 0 0 1627 0 0 3123 0 0 3095 0 0 3146 0 0 3176 0 0 3169 0 0 3154 0 0 3178 0 0 3147 0 0 3166 0 0 3146 0 0 3189 0 0 3157 0 0 3151 0 0 3188 0 0 3143 0 0 3122 0 0 3212 0 0 3149 0 0 3153 0 0 3180 0 0 3176 0 0 3058 0 0 3134 0 0 3148 0 0 3092 0 0 3240 0 0 3184 0 0 3121 0 0 3143 0 0 3085 0 0 3303 0 0 3192 0 0 3204 0 0 3096 0 0 3118 0 0 3033 0 0 3217 0 0 3207 0 0 3125 0 0 1517 0 0 24 0 0 4 0 0 3 0 0 4 0 0 3 0 0 3 0 0 4 0 0 0 0 0 0 0 0 
0 0 0 1 0 0 1 0 0 2 0 0 2 0 0 2 0 0 2 0 0 7 0 0 8 0 0 21 0 0 1564 0 0 3124 0 0 3135 0 0 3035 0 0 3162 0 0 3250 0 0 3176 0 0 3234 0 0 3132 0 0 3089 0 0 3078 0 0 3142 0 0 3228 0 0 3186 0 0 3149 0 0 3214 0 0 3067 0 0 3199 0 0 3203 0 0 3231 0 0 3182 0 0 3184 0 0 3146 0 0 3206 0 0 3232 0 0 3138 0 0 3086 0 0 3150 0 0 3173 0 0 3153 0 0 3028 0 0 3161 0 0 3036 0 0 3303 0 0 3140 0 0 3086 0 0 3140 0 0 3067 0 0 3168 0 0 3105 0 0 1590 0 0 24 0 0 6 0 0 1 0 0 2 0 0 4 0 0 0 0 0 0 0 0 1 0 0 0 0 0 
0 0 0 0 0 0 0 0 0 2 0 0 4 0 0 5 0 0 2 0 0 4 0 0 3 0 0 23 0 0 1615 0 0 3116 0 0 3119 0 0 3160 0 0 3197 0 0 3128 0 0 3125 0 0 3131 0 0 3260 0 0 3092 0 0 3134 0 0 3118 0 0 3118 0 0 3196 0 0 3137 0 0 3209 0 0 3203 0 0 3165 0 0 3258 0 0 3131 0 0 3094 0 0 3201 0 0 3194 0 0 3092 0 0 3145 0 0 3142 0 0 3090 0 0 3136 0 0 3218 0 0 3125 0 0 3257 0 0 3189 0 0 3113 0 0 3158 0 0 3105 0 0 3202 0 0 3110 0 0 3141 0 0 3187 0 0 3129 0 0 1537 0 0 26 0 0 5 0 0 2 0 0 2 0 0 0 0 0 1 0 0 1 0 0 0 0 0 0 0 0 
0 0 0 0 0 0 1 0 0 2 0 0 0 0 0 1 0 0 5 0 0 0 0 0 3 0 0 23 0 0 1576 0 0 3249 0 0 3247 0 0 3051 0 0 3145 0 0 3192 0 0 3172 0 0 3200 0 0 3101 0 0 3181 0 0 3237 0 0 3100 0 0 3222 0 0 3184 0 0 3092 0 0 3232 0 0 3117 0 0 3124 0 0 3128 0 0 3157 0 0 3067 0 0 3139 0 0 3166 0 0 3270 0 0 3146 0 0 3087 0 0 3119 0 0 3101 0 0 3221 0 0 3158 0 0 3137 0 0 3211 0 0 3122 0 0 3178 0 0 3179 0 0 3123 0 0 3070 0 0 3229 0 0 3142 0 0 3082 0 0 1551 0 0 29 0 0 3 0 0 2 0 0 0 0 0 0 0 0 0 0 0 2 0 0 0 0 0 0 0 0 
0 0 0 0 0 0 0 0 0 2 0 0 0 0 0 2 0 0 3 0 0 4 0 0 7 0 0 26 0 0 1600 0 0 3202 0 0 3173 0 0 3166 0 0 3206 0 0 3209 0 0 3104 0 0 3102 0 0 3155 0 0 3088 0 0 3108 0 0 3104 0 0 3075 0 0 3141 0 0 3126 0 0 3167 0 0 3127 0 0 3062 0 0 3119 0 0 3170 0 0 3147 0 0 3181 0 0 3092 0 0 3133 0 0 3167 0 0 3188 0 0 3181 0 0 3137 0 0 3158 0 0 3227 0 0 3141 0 0 3149 0 0 3220 0 0 3188 0 0 3287 0 0 3205 0 0 3179 0 0 3159 0 0 3222 0 0 3175 0 0 1567 0 0 31 0 0 3 0 0 3 0 0 1 0 0 0 0 0 0 0 0 0 0 0 0 0 0 0 0 0 
0 0 0 0 0 0 0 0 0 1 0 0 3 0 0 1 0 0 3 0 0 5 0 0 8 0 0 30 0 0 1575 0 0 3185 0 0 3180 0 0 3097 0 0 3146 0 0 3099 0 0 3097 0 0 3182 0 0 3202 0 0 3067 0 0 3120 0 0 3220 0 0 3193 0 0 3182 0 0 3171 0 0 3238 0 0 3258 0 0 3124 0 0 3055 0 0 3222 0 0 3212 0 0 3175 0 0 3119 0 0 3200 0 0 3154 0 0 3151 0 0 3081 0 0 3167 0 0 3215 0 0 3123 0 0 3178 0 0 3136 0 0 3236 0 0 3139 0 0 3236 0 0 3069 0 0 3108 0 0 3182 0 0 3104 0 0 3101 0 0 1538 0 0 26 0 0 8 0 0 2 0 0 1 0 0 0 0 0 0 0 0 0 0 0 0 0 0 1 0 0 
0 0 0 2 0 0 0 0 0 2 0 0 3 0 0 0 0 0 3 0 0 2 0 0 2 0 0 19 0 0 1516 0 0 3097 0 0 3124 0 0 3097 0 0 3215 0 0 3115 0 0 3182 0 0 3180 0 0 3073 0 0 3033 0 0 3168 0 0 3107 0 0 3134 0 0 3190 0 0 3113 0 0 3149 0 0 3073 0 0 3055 0 0 3182 0 0 3138 0 0 3179 0 0 3108 0 0 3171 0 0 3238 0 0 3195 0 0 3178 0 0 3121 0 0 3184 0 0 3054 0 0 3156 0 0 3232 0 0 3131 0 0 3220 0 0 3145 0 0 3146 0 0 3103 0 0 3160 0 0 3121 0 0 3141 0 0 3116 0 0 1579 0 0 32 0 0 7 0 0 4 0 0 3 0 0 1 0 0 1 0 0 0 0 0 0 0 0 3 0 0 
1 0 0 1 0 0 2 0 0 3 0 0 3 0 0 4 0 0 2 0 0 2 0 0 2 0 0 31 0 0 1593 0 0 3106 0 0 3215 0 0 3242 0 0 3075 0 0 3179 0 0 3082 0 0 3128 0 0 3160 0 0 3001 0 0 3200 0 0 3115 0 0 3186 0 0 3199 0 0 3155 0 0 3111 0 0 3092 0 0 3153 0 0 3145 0 0 3186 0 0 3025 0 0 3118 0 0 3145 0 0 3145 0 0 3119 0 0 3152 0 0 3166 0 0 3146 0 0 3179 0 0 3132 0 0 3149 0 0 3207 0 0 3034 0 0 3163 0 0 3059 0 0 3054 0 0 3148 0 0 3240 0 0 3192 0 0 3133 0 0 1552 0 0 24 0 0 5 0 0 2 0 0 3 0 0 3 0 0 3 0 0 3 0 0 3 0 0 0 0 0 
1 0 0 1 0 0 0 0 0 2 0 0 1 0 0 4 0 0 2 0 0 2 0 0 3 0 0 26 0 0 1549 0 0 3131 0 0 3136 0 0 3196 0 0 3191 0 0 3131 0 0 3226 0 0 3231 0 0 3212 0 0 3083 0 0 3238 0 0 3190 0 0 3051 0 0 3121 0 0 3122 0 0 3166 0 0 3161 0 0 3151 0 0 3212 0 0 3160 0 0 3164 0 0 3101 0 0 3191 0 0 3104 0 0 3179 0 0 3173 0 0 3104 0 0 3209 0 0 3141 0 0 3156 0 0 3080 0 0 3258 0 0 3105 0 0 3163 0 0 3195 0 0 3071 0 0 3173 0 0 3103 0 0 3218 0 0 3205 0 0 1587 0 0 31 0 0 6 0 0 4 0 0 3 0 0 2 0 0 2 0 0 0 0 0 0 0 0 0 0 0 
0 0 0 2 0 0 0 0 0 4 0 0 1 0 0 0 0 0 1 0 0 3 0 0 6 0 0 22 0 0 1559 0 0 3154 0 0 3124 0 0 3141 0 0 3215 0 0 3128 0 0 3088 0 0 3156 0 0 3199 0 0 3142 0 0 3071 0 0 3156 0 0 3099 0 0 3085 0 0 3212 0 0 3163 0 0 3153 0 0 3250 0 0 3163 0 0 3086 0 0 3144 0 0 3214 0 0 3137 0 0 3121 0 0 3097 0 0 3200 0 0 3202 0 0 3076 0 0 3146 0 0 3184 0 0 3140 0 0 3152 0 0 3073 0 0 3168 0 0 3126 0 0 3091 0 0 3105 0 0 3156 0 0 3201 0 0 3159 0 0 1504 0 0 32 0 0 2 0 0 2 0 0 3 0 0 4 0 0 2 0 0 0 0 0 0 0 0 1 0 0 
0 0 0 0 0 0 3 0 0 3 0 0 1 0 0 2 0 0 3 0 0 6 0 0 3 0 0 24 0 0 1562 0 0 3122 0 0 3146 0 0 3136 0 0 3058 0 0 3285 0 0 3161 0 0 3154 0 0 3085 0 0 3120 0 0 3122 0 0 3221 0 0 3086 0 0 3093 0 0 3129 0 0 3130 0 0 3166 0 0 3149 0 0 3233 0 0 3142 0 0 3229 0 0 3150 0 0 3179 0 0 3095 0 0 3132 0 0 3160 0 0 3229 0 0 3096 0 0 3167 0 0 3107 0 0 3122 0 0 3157 0 0 3148 0 0 3258 0 0 3202 0 0 3107 0 0 3115 0 0 3227 0 0 3118 0 0 3134 0 0 1635 0 0 32 0 0 4 0 0 1 0 0 1 0 0 1 0 0 4 0 0 0 0 0 4 0 0 2 0 0 
0 0 0 1 0 0 2 0 0 3 0 0 4 0 0 3 0 0 5 0 0 1 0 0 5 0 0 28 0 0 1528 0 0 3150 0 0 3025 0 0 3162 0 0 3071 0 0 3188 0 0 3098 0 0 3146 0 0 3216 0 0 3125 0 0 3274 0 0 3130 0 0 3219 0 0 3136 0 0 3127 0 0 3203 0 0 3156 0 0 3060 0 0 3164 0 0 3118 0 0 3167 0 0 3056 0 0 3084 0 0 3097 0 0 3225 0 0 3143 0 0 3112 0 0 3175 0 0 3175 0 0 3163 0 0 3143 0 0 3134 0 0 3239 0 0 3158 0 0 3152 0 0 3034 0 0 3119 0 0 3188 0 0 3132 0 0 3091 0 0 1600 0 0 30 0 0 6 0 0 5 0 0 5 0 0 1 0 0 3 0 0 2 0 0 0 0 0 0 0 0 
0 0 0 1 0 0 3 0 0 2 0 0 3 0 0 6 0 0 3 0 0 4 0 0 3 0 0 23 0 0 1480 0 0 3173 0 0 3139 0 0 3209 0 0 3206 0 0 3150 0 0 3228 0 0 3149 0 0 3045 0 0 3211 0 0 3146 0 0 3163 0 0 3109 0 0 3140 0 0 3212 0 0 3144 0 0 3246 0 0 3119 0 0 3161 0 0 3098 0 0 3151 0 0 3166 0 0 3158 0 0 3219 0 0 3115 0 0 3117 0 0 3164 0 0 3173 0 0 3142 0 0 3114 0 0 3176 0 0 3140 0 0 3126 0 0 3130 0 0 3077 0 0 3109 0 0 3190 0 0 3037 0 0 3127 0 0 3133 0 0 1563 0 0 26 0 0 1 0 0 1 0 0 1 0 0 0 0 0 5 0 0 4 0 0 0 0 0 1 0 0 
0 0 0 4 0 0 0 0 0 2 0 0 0 0 0 2 0 0 4 0 0 2 0 0 7 0 0 22 0 0 1555 0 0 3189 0 0 3156 0 0 3161 0 0 3123 0 0 3091 0 0 3078 0 0 3169 0 0 3116 0 0 3087 0 0 3207 0 0 3131 0 0 3161 0 0 3188 0 0 3075 0 0 3154 0 0 3146 0 0 3017 0 0 3161 0 0 3080 0 0 3134 0 0 3234 0 0 3167 0 0 3178 0 0 3146 0 0 3201 0 0 3065 0 0 3143 0 0 3145 0 0 3120 0 0 3218 0 0 3151 0 0 3094 0 0 3075 0 0 3161 0 0 3068 0 0 3058 0 0 3094 0 0 3140 0 0 3134 0 0 1605 0 0 24 0 0 2 0 0 1 0 0 0 0 0 0 0 0 2 0 0 2 0 0 4 0 0 3 0 0 
2 0 0 2 0 0 2 0 0 1 0 0 1 0 0 0 0 0 4 0 0 4 0 0 4 0 0 31 0 0 1655 0 0 3040 0 0 3246 0 0 3100 0 0 3147 0 0 3158 0 0 3221 0 0 3167 0 0 3069 0 0 3240 0 0 3124 0 0 3132 0 0 3096 0 0 3113 0 0 3095 0 0 3122 0 0 3116 0 0 3159 0 0 3198 0 0 3081 0 0 3146 0 0 3090 0 0 3249 0 0 3168 0 0 3135 0 0 3063 0 0 3130 0 0 3032 0 0 3156 0 0 3058 0 0 3136 0 0 3166 0 0 3039 0 0 3147 0 0 3188 0 0 3143 0 0 3128 0 0 3140 0 0 3165 0 0 3118 0 0 1622 0 0 29 0 0 6 0 0 6 0 0 3 0 0 0 0 0 2 0 0 4 0 0 2 0 0 0 0 0 
2 0 0 3 0 0 2 0 0 4 0 0 4 0 0 2 0 0 3 0 0 8 0 0 1 0 0 27 0 0 1564 0 0 3024 0 0 3188 0 0 3268 0 0 3137 0 0 3108 0 0 3218 0 0 3180 0 0 3155 0 0 3306 0 0 3160 0 0 3158 0 0 3148 0 0 3146 0 0 3090 0 0 3191 0 0 3187 0 0 3171 0 0 3234 0 0 3139 0 0 3213 0 0 3118 0 0 3219 0 0 3167 0 0 3169 0 0 3156 0 0 3153 0 0 3153 0 0 3111 0 0 3123 0 0 3243 0 0 3165 0 0 3037 0 0 3119 0 0 3107 0 0 3220 0 0 3137 0 0 3200 0 0 3164 0 0 3079 0 0 1599 0 0 28 0 0 9 0 0 8 0 0 8 0 0 3 0 0 3 0 0 3 0 0 1 0 0 2 0 0 
1 0 0 1 0 0 1 0 0 2 0 0 3 0 0 5 0 0 2 0 0 4 0 0 0 0 0 22 0 0 1578 0 0 3068 0 0 3085 0 0 3083 0 0 3195 0 0 3167 0 0 3103 0 0 3134 0 0 3163 0 0 3076 0 0 3133 0 0 3037 0 0 3180 0 0 3231 0 0 3256 0 0 3141 0 0 3230 0 0 3167 0 0 3099 0 0 3129 0 0 3076 0 0 3142 0 0 3086 0 0 3133 0 0 3164 0 0 3155 0 0 3052 0 0 3217 0 0 3091 0 0 3222 0 0 3181 0 0 3243 0 0 3141 0 0 3189 0 0 3171 0 0 3078 0 0 3194 0 0 3143 0 0 3141 0 0 3126 0 0 1539 0 0 21 0 0 7 0 0 7 0 0 8 0 0 2 0 0 1 0 0 1 0 0 1 0 0 1 0 0 
0 0 0 0 0 0 2 0 0 3 0 0 3 0 0 2 0 0 4 0 0 5 0 0 5 0 0 34 0 0 1564 0 0 3119 0 0 3062 0 0 3184 0 0 3225 0 0 3083 0 0 3066 0 0 3086 0 0 3137 0 0 3141 0 0 3165 0 0 3231 0 0 3057 0 0 3133 0 0 3159 0 0 3208 0 0 3082 0 0 3151 0 0 3121 0 0 3218 0 0 3055 0 0 3100 0 0 3085 0 0 3094 0 0 3150 0 0 3164 0 0 3152 0 0 3247 0 0 3126 0 0 3223 0 0 3055 0 0 3081 0 0 3133 0 0 3081 0 0 3159 0 0 3206 0 0 3081 0 0 3109 0 0 3188 0 0 3108 0 0 1568 0 0 29 0 0 13 0 0 8 0 0 3 0 0 1 0 0 1 0 0 0 0 0 0 0 0 0 0 0 
0 0 0 0 0 0 0 0 0 2 0 0 2 0 0 6 0 0 2 0 0 0 0 0 3 0 0 29 0 0 1589 0 0 3190 0 0 3161 0 0 3186 0 0 3204 0 0 3112 0 0 3149 0 0 3108 0 0 3147 0 0 3113 0 0 3138 0 0 3121 0 0 3174 0 0 3111 0 0 3137 0 0 3093 0 0 3176 0 0 3197 0 0 3146 0 0 3209 0 0 3113 0 0 3179 0 0 3130 0 0 3054 0 0 3124 0 0 3106 0 0 3076 0 0 3089 0 0 3221 0 0 3169 0 0 3194 0 0 3182 0 0 3114 0 0 3163 0 0 3131 0 0 3147 0 0 3169 0 0 3120 0 0 3195 0 0 3188 0 0 1543 0 0 33 0 0 12 0 0 10 0 0 2 0 0 2 0 0 0 0 0 2 0 0 2 0 0 0 0 0 
0 0 0 0 0 0 4 0 0 6 0 0 2 0 0 2 0 0 3 0 0 3 0 0 8 0 0 27 0 0 1586 0 0 3076 0 0 3120 0 0 3183 0 0 3247 0 0 3117 0 0 3155 0 0 3165 0 0 3167 0 0 3106 0 0 3127 0 0 3139 0 0 3115 0 0 3075 0 0 3187 0 0 3117 0 0 3208 0 0 3205 0 0 3139 0 0 3115 0 0 3116 0 0 3139 0 0 3158 0 0 3193 0 0 3177 0 0 3105 0 0 3195 0 0 3136 0 0 3190 0 0 3125 0 0 3192 0 0 3169 0 0 3215 0 0 3095 0 0 3022 0 0 3153 0 0 3122 0 0 3234 0 0 3128 0 0 3226 0 0 1632 0 0 31 0 0 6 0 0 9 0 0 4 0 0 1 0 0 0 0 0 3 0 0 1 0 0 2 0 0 
2 0 0 2 0 0 2 0 0 2 0 0 1 0 0 2 0 0 4 0 0 2 0 0 6 0 0 22 0 0 1601 0 0 3159 0 0 3132 0 0 3071 0 0 3180 0 0 3226 0 0 3127 0 0 3198 0 0 3142 0 0 3148 0 0 3248 0 0 3169 0 0 3085 0 0 3080 0 0 3145 0 0 3118 0 0 3118 0 0 3095 0 0 3164 0 0 3186 0 0 3065 0 0 3177 0 0 3092 0 0 3115 0 0 3114 0 0 3135 0 0 3197 0 0 3096 0 0 3129 0 0 3180 0 0 3141 0 0 3187 0 0 3132 0 0 3194 0 0 3188 0 0 3186 0 0 3148 0 0 3233 0 0 3032 0 0 3076 0 0 1479 0 0 24 0 0 6 0 0 3 0 0 4 0 0 5 0 0 7 0 0 1 0 0 0 0 0 1 0 0 
2 0 0 1 0 0 3 0 0 2 0 0 0 0 0 1 0 0 3 0 0 0 0 0 5 0 0 29 0 0 1610 0 0 3206 0 0 3220 0 0 3173 0 0 3145 0 0 3168 0 0 3143 0 0 3134 0 0 3112 0 0 3223 0 0 3208 0 0 3158 0 0 3009 0 0 3086 0 0 3107 0 0 3110 0 0 3231 0 0 3151 0 0 3214 0 0 3181 0 0 3131 0 0 3136 0 0 3206 0 0 3126 0 0 3153 0 0 3242 0 0 3132 0 0 3124 0 0 3034 0 0 3150 0 0 3166 0 0 3181 0 0 3192 0 0 3135 0 0 3143 0 0 3180 0 0 3094 0 0 3234 0 0 3067 0 0 3200 0 0 1529 0 0 31 0 0 4 0 0 3 0 0 3 0 0 2 0 0 3 0 0 3 0 0 0 0 0 2 0 0 
0 0 0 1 0 0 1 0 0 1 0 0 3 0 0 4 0 0 4 0 0 5 0 0 8 0 0 24 0 0 1553 0 0 3056 0 0 3209 0 0 3212 0 0 3222 0 0 3107 0 0 3107 0 0 3130 0 0 3080 0 0 3115 0 0 3236 0 0 3209 0 0 3157 0 0 3225 0 0 3133 0 0 3121 0 0 3093 0 0 3126 0 0 3100 0 0 3209 0 0 3055 0 0 3125 0 0 3204 0 0 3246 0 0 3202 0 0 3150 0 0 3095 0 0 3109 0 0 3113 0 0 3031 0 0 3060 0 0 3054 0 0 3143 0 0 3088 0 0 3139 0 0 3168 0 0 3202 0 0 3209 0 0 3096 0 0 3192 0 0 1527 0 0 24 0 0 4 0 0 4 0 0 10 0 0 7 0 0 2 0 0 6 0 0 2 0 0 0 0 0 
0 0 0 1 0 0 2 0 0 1 0 0 0 0 0 2 0 0 2 0 0 8 0 0 6 0 0 37 0 0 1589 0 0 3160 0 0 3137 0 0 3169 0 0 3163 0 0 3074 0 0 3117 0 0 3161 0 0 3175 0 0 3174 0 0 3242 0 0 3147 0 0 3197 0 0 3243 0 0 3207 0 0 3107 0 0 3216 0 0 3138 0 0 3181 0 0 3126 0 0 3189 0 0 3154 0 0 3109 0 0 3209 0 0 3042 0 0 3134 0 0 3174 0 0 3092 0 0 3121 0 0 3131 0 0 3169 0 0 3194 0 0 3203 0 0 3180 0 0 3189 0 0 3181 0 0 3072 0 0 3175 0 0 3105 0 0 3188 0 0 1580 0 0 30 0 0 1 0 0 7 0 0 4 0 0 2 0 0 4 0 0 1 0 0 1 0 0 2 0 0 
1 0 0 1 0 0 2 0 0 1 0 0 3 0 0 1 0 0 3 0 0 6 0 0 9 0 0 37 0 0 1625 0 0 3156 0 0 3130 0 0 3141 0 0 3172 0 0 3139 0 0 3203 0 0 3107 0 0 3176 0 0 3154 0 0 3209 0 0 3141 0 0 3089 0 0 3196 0 0 3140 0 0 3206 0 0 3238 0 0 3186 0 0 3023 0 0 3163 0 0 3145 0 0 3242 0 0 3160 0 0 3085 0 0 3130 0 0 3062 0 0 3151 0 0 3153 0 0 3136 0 0 3141 0 0 3098 0 0 3165 0 0 3114 0 0 3168 0 0 3130 0 0 3108 0 0 3223 0 0 3093 0 0 3148 0 0 3157 0 0 1609 0 0 24 0 0 4 0 0 4 0 0 3 0 0 2 0 0 1 0 0 1 0 0 1 0 0 1 0 0 
0 0 0 1 0 0 1 0 0 1 0 0 2 0 0 1 0 0 1 0 0 3 0 0 7 0 0 27 0 0 1640 0 0 3127 0 0 3207 0 0 3208 0 0 3209 0 0 3131 0 0 3047 0 0 3158 0 0 3110 0 0 3172 0 0 3053 0 0 3094 0 0 3103 0 0 3178 0 0 3084 0 0 3171 0 0 3111 0 0 3171 0 0 3163 0 0 3240 0 0 3257 0 0 3117 0 0 3177 0 0 3235 0 0 3089 0 0 3198 0 0 3092 0 0 3161 0 0 3184 0 0 3148 0 0 3185 0 0 3108 0 0 3208 0 0 3306 0 0 3121 0 0 3162 0 0 3102 0 0 3115 0 0 3050 0 0 3124 0 0 1546 0 0 24 0 0 8 0 0 3 0 0 0 0 0 0 0 0 1 0 0 3 0 0 2 0 0 1 0 0 
0 0 0 4 0 0 2 0 0 2 0 0 1 0 0 0 0 0 5 0 0 3 0 0 8 0 0 23 0 0 1632 0 0 3203 0 0 3148 0 0 3169 0 0 3219 0 0 3125 0 0 3149 0 0 3085 0 0 3245 0 0 3084 0 0 3198 0 0 3162 0 0 3078 0 0 3081 0 0 3191 0 0 3136 0 0 3161 0 0 3153 0 0 3144 0 0 3181 0 0 3192 0 0 3127 0 0 3242 0 0 3092 0 0 3108 0 0 3151 0 0 3115 0 0 3096 0 0 3131 0 0 3153 0 0 3113 0 0 3277 0 0 3185 0 0 3157 0 0 3166 0 0 3175 0 0 3268 0 0 3221 0 0 3164 0 0 3130 0 0 1590 0 0 30 0 0 5 0 0 5 0 0 2 0 0 0 0 0 2 0 0 0 0 0 1 0 0 2 0 0 
0 0 0 3 0 0 0 0 0 0 0 0 1 0 0 2 0 0 7 0 0 3 0 0 2 0 0 30 0 0 1631 0 0 3150 0 0 3073 0 0 3246 0 0 3128 0 0 3117 0 0 3183 0 0 3137 0 0 3126 0 0 3082 0 0 3155 0 0 3150 0 0 3202 0 0 3128 0 0 3052 0 0 3139 0 0 3150 0 0 3219 0 0 3171 0 0 3225 0 0 3154 0 0 3149 0 0 3241 0 0 3172 0 0 3087 0 0 3254 0 0 3122 0 0 3203 0 0 3086 0 0 3160 0 0 3076 0 0 3158 0 0 3150 0 0 3087 0 0 3250 0 0 3149 0 0 3117 0 0 3122 0 0 3078 0 0 3127 0 0 1585 0 0 18 0 0 6 0 0 4 0 0 5 0 0 2 0 0 3 0 0 3 0 0 3 0 0 1 0 0 
1 0 0 1 0 0 1 0 0 1 0 0 2 0 0 3 0 0 3 0 0 4 0 0 5 0 0 30 0 0 1553 0 0 3143 0 0 3159 0 0 3096 0 0 3079 0 0 3141 0 0 3235 0 0 3070 0 0 3130 0 0 3222 0 0 3192 0 0 3115 0 0 3209 0 0 3174 0 0 3253 0 0 3176 0 0 3164 0 0 3121 0 0 3140 0 0 3105 0 0 3161 0 0 3078 0 0 3195 0 0 3108 0 0 3151 0 0 3103 0 0 3179 0 0 3164 0 0 3120 0 0 3142 0 0 3213 0 0 3086 0 0 3207 0 0 3171 0 0 3128 0 0 3190 0 0 3085 0 0 3232 0 0 3054 0 0 3068 0 0 1566 0 0 18 0 0 4 0 0 3 0 0 1 0 0 4 0 0 3 0 0 0 0 0 2 0 0 1 0 0 
0 0 0 0 0 0 0 0 0 1 0 0 0 0 0 0 0 0 0 0 0 0 0 0 5 0 0 35 0 0 1502 0 0 3093 0 0 3111 0 0 3195 0 0 3206 0 0 3098 0 0 3151 0 0 3133 0 0 3204 0 0 3142 0 0 3138 0 0 3210 0 0 3220 0 0 3114 0 0 3159 0 0 3161 0 0 3097 0 0 3192 0 0 3116 0 0 3184 0 0 3199 0 0 3112 0 0 3113 0 0 3214 0 0 3046 0 0 3222 0 0 3108 0 0 3166 0 0 3190 0 0 3225 0 0 3131 0 0 3109 0 0 3090 0 0 3134 0 0 3159 0 0 3043 0 0 3133 0 0 3120 0 0 3171 0 0 3191 0 0 1575 0 0 26 0 0 5 0 0 4 0 0 4 0 0 2 0 0 1 0 0 2 0 0 2 0 0 3 0 0 
0 0 0 1 0 0 1 0 0 2 0 0 1 0 0 5 0 0 2 0 0 2 0 0 1 0 0 28 0 0 1569 0 0 3090 0 0 3117 0 0 3144 0 0 3177 0 0 3131 0 0 3222 0 0 3110 0 0 3187 0 0 3236 0 0 3049 0 0 3233 0 0 3326 0 0 3184 0 0 3105 0 0 3182 0 0 3171 0 0 3110 0 0 3158 0 0 3199 0 0 3141 0 0 3111 0 0 3198 0 0 3271 0 0 3212 0 0 3210 0 0 3169 0 0 3093 0 0 3033 0 0 3139 0 0 3177 0 0 3147 0 0 3224 0 0 3095 0 0 3144 0 0 3184 0 0 3190 0 0 3132 0 0 3194 0 0 3140 0 0 1539 0 0 28 0 0 7 0 0 2 0 0 1 0 0 1 0 0 2 0 0 3 0 0 1 0 0 1 0 0 
0 0 0 1 0 0 0 0 0 1 0 0 4 0 0 1 0 0 1 0 0 1 0 0 2 0 0 24 0 0 1549 0 0 3055 0 0 3112 0 0 3198 0 0 3203 0 0 3194 0 0 3112 0 0 3171 0 0 3094 0 0 3089 0 0 3075 0 0 3197 0 0 3111 0 0 3165 0 0 3100 0 0 3199 0 0 3181 0 0 3063 0 0 3110 0 0 3102 0 0 3169 0 0 3179 0 0 3224 0 0 3209 0 0 3143 0 0 3080 0 0 3147 0 0 3132 0 0 3150 0 0 3165 0 0 3001 0 0 3070 0 0 2976 0 0 3184 0 0 3179 0 0 3141 0 0 3127 0 0 3152 0 0 3143 0 0 3203 0 0 1570 0 0 30 0 0 6 0 0 4 0 0 4 0 0 2 0 0 0 0 0 2 0 0 0 0 0 0 0 0 
0 0 0 3 0 0 3 0 0 2 0 0 1 0 0 0 0 0 0 0 0 1 0 0 4 0 0 29 0 0 1545 0 0 3084 0 0 3161 0 0 3130 0 0 3056 0 0 3186 0 0 3292 0 0 3119 0 0 3153 0 0 3109 0 0 3019 0 0 3239 0 0 3247 0 0 3156 0 0 3130 0 0 2998 0 0 3093 0 0 3139 0 0 3181 0 0 3189 0 0 3147 0 0 3054 0 0 3165 0 0 3117 0 0 3135 0 0 3161 0 0 3207 0 0 3135 0 0 3168 0 0 3265 0 0 3073 0 0 3116 0 0 3074 0 0 3170 0 0 3206 0 0 3162 0 0 3149 0 0 3172 0 0 3184 0 0 3154 0 0 1565 0 0 32 0 0 4 0 0 2 0 0 6 0 0 3 0 0 1 0 0 3 0 0 4 0 0 2 0 0 
0 0 0 1 0 0 1 0 0 1 0 0 0 0 0 3 0 0 4 0 0 1 0 0 0 0 0 27 0 0 1524 0 0 3168 0 0 3073 0 0 3153 0 0 3032 0 0 3111 0 0 3208 0 0 3174 0 0 3134 0 0 3218 0 0 3120 0 0 3131 0 0 3140 0 0 3171 0 0 3124 0 0 3140 0 0 3176 0 0 3120 0 0 3158 0 0 3049 0 0 3270 0 0 3148 0 0 3189 0 0 3124 0 0 3128 0 0 3134 0 0 3113 0 0 3201 0 0 3207 0 0 3159 0 0 3191 0 0 3139 0 0 3113 0 0 3157 0 0 3096 0 0 3119 0 0 3141 0 0 3223 0 0 3122 0 0 3068 0 0 1503 0 0 20 0 0 5 0 0 1 0 0 1 0 0 4 0 0 1 0 0 1 0 0 4 0 0 3 0 0 
0 0 0 0 0 0 0 0 0 0 0 0 0 0 0 0 0 0 0 0 0 4 0 0 2 0 0 24 0 0 1578 0 0 3137 0 0 3235 0 0 3184 0 0 3133 0 0 3150 0 0 3068 0 0 3170 0 0 3153 0 0 3176 0 0 3140 0 0 3119 0 0 3172 0 0 3151 0 0 3182 0 0 3157 0 0 3111 0 0 3125 0 0 3197 0 0 3131 0 0 3227 0 0 3133 0 0 3143 0 0 3216 0 0 3135 0 0 3122 0 0 3197 0 0 3198 0 0 3118 0 0 3178 0 0 3133 0 0 3163 0 0 3105 0 0 3119 0 0 3198 0 0 3277 0 0 3241 0 0 3166 0 0 3139 0 0 3144 0 0 1654 0 0 24 0 0 6 0 0 1 0 0 0 0 0 0 0 0 5 0 0 6 0 0 6 0 0 3 0 0 
0 0 0 0 0 0 0 0 0 0 0 0 1 0 0 1 0 0 1 0 0 2 0 0 3 0 0 29 0 0 1648 0 0 3073 0 0 3129 0 0 3114 0 0 3139 0 0 3134 0 0 3151 0 0 3099 0 0 3275 0 0 3200 0 0 3133 0 0 3126 0 0 3133 0 0 3119 0 0 3007 0 0 3093 0 0 3221 0 0 3149 0 0 3116 0 0 3080 0 0 3097 0 0 3153 0 0 3176 0 0 3139 0 0 3192 0 0 3170 0 0 3048 0 0 3136 0 0 3171 0 0 3168 0 0 3186 0 0 3151 0 0 3130 0 0 3166 0 0 3148 0 0 3212 0 0 3137 0 0 3236 0 0 3163 0 0 3058 0 0 1621 0 0 25 0 0 1 0 0 4 0 0 1 0 0 1 0 0 1 0 0 1 0 0 0 0 0 0 0 0 
0 0 0 1 0 0 1 0 0 2 0 0 0 0 0 0 0 0 2 0 0 2 0 0 3 0 0 26 0 0 1599 0 0 3147 0 0 3135 0 0 3229 0 0 3149 0 0 3182 0 0 3192 0 0 3110 0 0 3151 0 0 3165 0 0 3181 0 0 3128 0 0 3149 0 0 3158 0 0 3154 0 0 3121 0 0 3150 0 0 3087 0 0 3163 0 0 3175 0 0 3168 0 0 3064 0 0 3112 0 0 3190 0 0 3164 0 0 3180 0 0 3157 0 0 3077 0 0 3165 0 0 3135 0 0 3143 0 0 3164 0 0 3116 0 0 3145 0 0 3139 0 0 3116 0 0 3148 0 0 3133 0 0 3159 0 0 3189 0 0 1596 0 0 28 0 0 1 0 0 4 0 0 4 0 0 3 0 0 1 0 0 1 0 0 1 0 0 0 0 0 
0 0 0 0 0 0 0 0 0 0 0 0 0 0 0 0 0 0 6 0 0 0 0 0 4 0 0 23 0 0 1555 0 0 3190 0 0 3159 0 0 3142 0 0 3184 0 0 3138 0 0 3173 0 0 3219 0 0 3134 0 0 3157 0 0 3076 0 0 3265 0 0 3015 0 0 3099 0 0 3052 0 0 3205 0 0 3142 0 0 3100 0 0 3179 0 0 3061 0 0 3178 0 0 3184 0 0 3169 0 0 3120 0 0 3165 0 0 3126 0 0 3204 0 0 3136 0 0 3066 0 0 3111 0 0 3074 0 0 3227 0 0 3089 0 0 3148 0 0 3090 0 0 3141 0 0 3144 0 0 3081 0 0 3093 0 0 3036 0 0 1605 0 0 23 0 0 5 0 0 0 0 0 1 0 0 4 0 0 2 0 0 2 0 0 0 0 0 0 0 0 
0 0 0 1 0 0 0 0 0 0 0 0 2 0 0 1 0 0 4 0 0 0 0 0 3 0 0 13 0 0 805 0 0 1568 0 0 1563 0 0 1565 0 0 1558 0 0 1549 0 0 1561 0 0 1563 0 0 1582 0 0 1635 0 0 1581 0 0 1590 0 0 1561 0 0 1571 0 0 1644 0 0 1583 0 0 1660 0 0 1653 0 0 1585 0 0 1637 0 0 1536 0 0 1564 0 0 1550 0 0 1546 0 0 1553 0 0 1598 0 0 1636 0 0 1566 0 0 1542 0 0 1559 0 0 1580 0 0 1610 0 0 1595 0 0 1584 0 0 1611 0 0 1535 0 0 1552 0 0 1535 0 0 1568 0 0 1582 0 0 769 0 0 9 0 0 2 0 0 2 0 0 0 0 0 1 0 0 0 0 0 0 0 0 0 0 0 0 0 0 
0 0 0 1 0 0 0 0 0 0 0 0 3 0 0 2 0 0 2 0 0 0 0 0 2 0 0 9 0 0 12 0 0 26 0 0 26 0 0 24 0 0 28 0 0 22 0 0 31 0 0 20 0 0 27 0 0 23 0 0 21 0 0 34 0 0 32 0 0 21 0 0 28 0 0 27 0 0 24 0 0 21 0 0 26 0 0 29 0 0 18 0 0 23 0 0 25 0 0 19 0 0 28 0 0 32 0 0 27 0 0 33 0 0 31 0 0 21 0 0 24 0 0 16 0 0 23 0 0 28 0 0 23 0 0 21 0 0 31 0 0 19 0 0 28 0 0 23 0 0 17 0 0 4 0 0 2 0 0 2 0 0 1 0 0 1 0 0 0 0 0 1 0 0 0 0 0 0 0 0 
0 0 0 0 0 0 0 0 0 2 0 0 1 0 0 0 0 0 5 0 0 2 0 0 0 0 0 2 0 0 3 0 0 1 0 0 5 0 0 2 0 0 0 0 0 1 0 0 4 0 0 4 0 0 3 0 0 0 0 0 4 0 0 6 0 0 6 0 0 9 0 0 4 0 0 5 0 0 4 0 0 2 0 0 7 0 0 5 0 0 7 0 0 0 0 0 3 0 0 1 0 0 5 0 0 9 0 0 3 0 0 7 0 0 5 0 0 8 0 0 5 0 0 0 0 0 4 0 0 3 0 0 2 0 0 3 0 0 2 0 0 6 0 0 2 0 0 2 0 0 4 0 0 1 0 0 4 0 0 1 0 0 0 0 0 3 0 0 2 0 0 1 0 0 0 0 0 0 0 0 
0 0 0 1 0 0 0 0 0 3 0 0 2 0 0 5 0 0 4 0 0 0 0 0 3 0 0 3 0 0 2 0 0 3 0 0 3 0 0 2 0 0 0 0 0 0 0 0 3 0 0 7 0 0 0 0 0 2 0 0 3 0 0 3 0 0 4 0 0 3 0 0 7 0 0 6 0 0 4 0 0 3 0 0 3 0 0 4 0 0 5 0 0 4 0 0 3 0 0 3 0 0 2 0 0 3 0 0 3 0 0 6 0 0 3 0 0 4 0 0 3 0 0 2 0 0 1 0 0 1 0 0 4 0 0 2 0 0 6 0 0 4 0 0 1 0 0 0 0 0 5 0 0 1 0 0 1 0 0 0 0 0 3 0 0 2 0 0 0 0 0 0 0 0 0 0 0 0 0 0 
0 0 0 1 0 0 0 0 0 2 0 0 4 0 0 2 0 0 0 0 0 2 0 0 0 0 0 2 0 0 3 0 0 1 0 0 0 0 0 0 0 0 2 0 0 2 0 0 2 0 0 6 0 0 0 0 0 4 0 0 5 0 0 3 0 0 3 0 0 5 0 0 5 0 0 0 0 0 7 0 0 4 0 0 7 0 0 2 0 0 3 0 0 4 0 0 6 0 0 1 0 0 7 0 0 3 0 0 5 0 0 3 0 0 6 0 0 2 0 0 1 0 0 3 0 0 0 0 0 0 0 0 4 0 0 3 0 0 1 0 0 1 0 0 2 0 0 1 0 0 1 0 0 0 0 0 0 0 0 0 0 0 0 0 0 2 0 0 0 0 0 0 0 0 0 0 0 0 0 0 
0 0 0 2 0 0 1 0 0 1 0 0 1 0 0 3 0 0 2 0 0 0 0 0 0 0 0 0 0 0 1 0 0 3 0 0 1 0 0 1 0 0 2 0 0 3 0 0 0 0 0 3 0 0 1 0 0 1 0 0 1 0 0 2 0 0 2 0 0 3 0 0 2 0 0 5 0 0 5 0 0 3 0 0 5 0 0 0 0 0 1 0 0 1 0 0 1 0 0 2 0 0 3 0 0 0 0 0 4 0 0 3 0 0 4 0 0 1 0 0 2 0 0 3 0 0 2 0 0 0 0 0 5 0 0 1 0 0 1 0 0 3 0 0 0 0 0 0 0 0 1 0 0 2 0 0 0 0 0 0 0 0 0 0 0 0 0 0 1 0 0 1 0 0 1 0 0 0 0 0 
0 0 0 2 0 0 1 0 0 0 0 0 0 0 0 2 0 0 0 0 0 0 0 0 0 0 0 1 0 0 2 0 0 2 0 0 2 0 0 3 0 0 2 0 0 0 0 0 1 0 0 2 0 0 2 0 0 1 0 0 0 0 0 2 0 0 0 0 0 4 0 0 3 0 0 2 0 0 5 0 0 0 0 0 3 0 0 3 0 0 1 0 0 2 0 0 1 0 0 3 0 0 2 0 0 0 0 0 1 0 0 6 0 0 2 0 0 2 0 0 2 0 0 2 0 0 2 0 0 0 0 0 4 0 0 2 0 0 2 0 0 2 0 0 1 0 0 0 0 0 0 0 0 3 0 0 4 0 0 0 0 0 2 0 0 0 0 0 0 0 0 0 0 0 0 0 0 1 0 0 
0 0 0 0 0 0 1 0 0 0 0 0 0 0 0 0 0 0 0 0 0 0 0 0 1 0 0 4 0 0 1 0 0 3 0 0 0 0 0 1 0 0 1 0 0 4 0 0 4 0 0 2 0 0 0 0 0 3 0 0 0 0 0 3 0 0 3 0 0 1 0 0 2 0 0 6 0 0 0 0 0 0 0 0 3 0 0 1 0 0 0 0 0 0 0 0 0 0 0 1 0 0 3 0 0 5 0 0 2 0 0 3 0 0 0 0 0 1 0 0 1 0 0 2 0 0 3 0 0 1 0 0 3 0 0 2 0 0 2 0 0 0 0 0 3 0 0 0 0 0 1 0 0 0 0 0 1 0 0 1 0 0 0 0 0 2 0 0 0 0 0 0 0 0 0 0 0 0 0 0 
0 0 0 0 0 0 1 0 0 0 0 0 0 0 0 0 0 0 0 0 0 0 0 0 1 0 0 2 0 0 0 0 0 1 0 0 0 0 0 3 0 0 1 0 0 1 0 0 2 0 0 0 0 0 1 0 0 2 0 0 2 0 0 2 0 0 2 0 0 2 0 0 1 0 0 5 0 0 0 0 0 3 0 0 1 0 0 3 0 0 1 0 0 1 0 0 4 0 0 0 0 0 5 0 0 4 0 0 2 0 0 1 0 0 2 0 0 0 0 0 2 0 0 4 0 0 1 0 0 1 0 0 3 0 0 2 0 0 0 0 0 0 0 0 0 0 0 2 0 0 0 0 0 0 0 0 0 0 0 2 0 0 0 0 0 0 0 0 0 0 0 0 0 0 1 0 0 0 0 0 
0 0 0 2 0 0 0 0 0 0 0 0 0 0 0 0 0 0 0 0 0 1 0 0 0 0 0 0 0 0 0 0 0 1 0 0 2 0 0 1 0 0 1 0 0 1 0 0 1 0 0 2 0 0 1 0 0 8 0 0 1 0 0 0 0 0 1 0 0 3 0 0 4 0 0 0 0 0 0 0 0 2 0 0 2 0 0 2 0 0 2 0 0 0 0 0 5 0 0 0 0 0 2 0 0 4 0 0 2 0 0 4 0 0 3 0 0 2 0 0 0 0 0 0 0 0 1 0 0 1 0 0 3 0 0 0 0 0 0 0 0 1 0 0 1 0 0 0 0 0 0 0 0 0 0 0 0 0 0 1 0 0 0 0 0 0 0 0 0 0 0 0 0 0 0 0 0 0 0 0 
