P3
# This is a dose file slice at depth 99 of 100
60 60
# now we give the maximum value of the RGB coordinates.
22407
0 0 0 0 0 0 0 0 0 0 0 0 0 0 0 0 0 0 0 0 0 0 0 0 0 0 0 0 0 0 0 0 0 0 0 0 0 0 0 0 0 0 0 0 0 0 0 0 0 0 0 0 0 0 0 0 0 0 0 0 0 0 0 0 0 0 0 0 0 0 0 0 0 0 0 0 0 0 0 0 0 0 0 0 0 0 0 0 0 0 0 0 0 0 0 0 0 0 0 0 0 0 0 0 0 0 0 0 0 0 0 0 0 0 0 0 0 0 0 0 0 0 0 0 0 0 0 0 0 0 0 0 0 0 0 0 0 0 0 0 0 0 0 0 0 0 0 0 0 0 0 0 0 0 0 0 0 0 0 0 0 0 0 0 0 0 0 0 0 0 0 0 0 0 0 0 0 0 0 0 
0 0 0 0 0 0 0 0 0 0 0 0 0 0 0 0 0 0 0 0 0 0 0 0 0 0 0 0 0 0 0 0 0 0 0 0 0 0 0 0 0 0 0 0 0 0 0 0 0 0 0 0 0 0 0 0 0 0 0 0 0 0 0 0 0 0 0 0 0 0 0 0 0 0 0 0 0 0 0 0 0 0 0 0 0 0 0 0 0 0 0 0 0 0 0 0 0 0 0 0 0 0 0 0 0 0 0 0 0 0 0 0 0 0 0 0 0 0 0 0 0 0 0 0 0 0 0 0 0 0 0 0 0 0 0 0 0 0 0 0 0 0 0 0 0 0 0 0 0 0 0 0 0 0 0 0 0 0 0 0 0 0 0 0 0 0 0 0 0 0 0 0 0 0 0 0 0 0 0 0 
0 0 0 0 0 0 0 0 0 0 0 0 0 0 0 0 0 0 0 0 0 0 0 0 0 0 0 0 0 0 0 0 0 0 0 0 0 0 0 0 0 0 0 0 0 0 0 0 0 0 0 0 0 0 0 0 0 0 0 0 0 0 0 0 0 0 0 0 0 0 0 0 0 0 0 0 0 0 0 0 0 0 0 0 0 0 0 0 0 0 0 0 0 0 0 0 0 0 0 0 0 0 0 0 0 0 0 0 0 0 0 0 0 0 0 0 0 0 0 0 0 0 0 0 0 0 0 0 0 0 0 0 0 0 0 0 0 0 0 0 0 0 0 0 0 0 0 0 0 0 0 0 0 0 0 0 0 0 0 0 0 0 0 0 0 0 0 0 0 0 0 0 0 0 0 0 0 0 0 0 
0 0 0 0 0 0 0 0 0 0 0 0 0 0 0 0 0 0 0 0 0 0 0 0 0 0 0 0 0 0 0 0 0 0 0 0 0 0 0 0 0 0 0 0 0 0 0 0 0 0 0 0 0 0 0 0 0 0 0 0 0 0 0 0 0 0 0 0 0 0 0 0 0 0 0 0 0 0 0 0 0 0 0 0 0 0 0 0 0 0 0 0 0 0 0 0 0 0 0 0 0 0 0 0 0 0 0 0 0 0 0 0 0 0 0 0 0 0 0 0 0 0 0 0 0 0 0 0 0 0 0 0 0 0 0 0 0 0 0 0 0 0 0 0 0 0 0 0 0 0 0 0 0 0 0 0 0 0 0 0 0 0 0 0 0 0 0 0 0 0 0 0 0 0 0 0 0 0 0 0 
0 0 0 0 0 0 0 0 0 0 0 0 0 0 0 0 0 0 0 0 0 0 0 0 0 0 0 0 0 0 0 0 0 0 0 0 0 0 0 0 0 0 0 0 0 0 0 0 0 0 0 0 0 0 0 0 0 0 0 0 0 0 0 0 0 0 0 0 0 0 0 0 0 0 0 0 0 0 0 0 0 0 0 0 0 0 0 0 0 0 0 0 0 0 0 0 0 0 0 0 0 0 0 0 0 0 0 0 0 0 0 0 0 0 0 0 0 0 0 0 0 0 0 0 0 0 0 0 0 0 0 0 0 0 0 0 0 0 0 0 0 0 0 0 0 0 0 0 0 0 0 0 0 0 0 0 0 0 0 0 0 0 0 0 0 0 0 0 0 0 0 0 0 0 0 0 0 0 0 0 
0 0 0 0 0 0 0 0 0 0 0 0 0 0 0 0 0 0 0 0 0 0 0 0 0 0 0 0 0 0 0 0 0 0 0 0 0 0 0 0 0 0 0 0 0 0 0 0 0 0 0 0 0 0 0 0 0 0 0 0 0 0 0 0 0 0 0 0 0 0 0 0 0 0 0 0 0 0 0 0 0 0 0 0 0 0 0 0 0 0 0 0 0 0 0 0 0 0 0 0 0 0 0 0 0 0 0 0 0 0 0 0 0 0 0 0 0 0 0 0 0 0 0 0 0 0 0 0 0 0 0 0 0 0 0 0 0 0 0 0 0 0 0 0 0 0 0 0 0 0 0 0 0 0 0 0 0 0 0 0 0 0 0 0 0 0 0 0 0 0 0 0 0 0 0 0 0 0 0 0 
0 0 0 0 0 0 0 0 0 0 0 0 0 0 0 0 0 0 0 0 0 0 0 0 0 0 0 0 0 0 0 0 0 0 0 0 0 0 0 0 0 0 0 0 0 0 0 0 0 0 0 0 0 0 0 0 0 0 0 0 0 0 0 0 0 0 0 0 0 0 0 0 0 0 0 0 0 0 0 0 0 0 0 0 0 0 0 0 0 0 0 0 0 0 0 0 0 0 0 0 0 0 0 0 0 0 0 0 0 0 0 0 0 0 0 0 0 0 0 0 0 0 0 0 0 0 0 0 0 0 0 0 0 0 0 0 0 0 0 0 0 0 0 0 0 0 0 0 0 0 0 0 0 0 0 0 0 0 0 0 0 0 0 0 0 0 0 0 0 0 0 0 0 0 0 0 0 0 0 0 
0 0 0 0 0 0 0 0 0 0 0 0 0 0 0 0 0 0 0 0 0 0 0 0 0 0 0 0 0 0 0 0 0 0 0 0 0 0 0 0 0 0 0 0 0 0 0 0 0 0 0 0 0 0 0 0 0 0 0 0 0 0 0 0 0 0 0 0 0 0 0 0 0 0 0 0 0 0 0 0 0 0 0 0 0 0 0 0 0 0 0 0 0 0 0 0 0 0 0 0 0 0 0 0 0 0 0 0 0 0 0 0 0 0 0 0 0 0 0 0 0 0 0 0 0 0 0 0 0 0 0 0 0 0 0 0 0 0 0 0 0 0 0 0 0 0 0 0 0 0 0 0 0 0 0 0 0 0 0 0 0 0 0 0 0 0 0 0 0 0 0 0 0 0 0 0 0 0 0 0 
0 0 0 0 0 0 0 0 0 0 0 0 0 0 0 0 0 0 0 0 0 0 0 0 0 0 0 0 0 0 0 0 0 0 0 0 0 0 0 0 0 0 0 0 0 0 0 0 0 0 0 0 0 0 0 0 0 0 0 0 0 0 0 0 0 0 0 0 0 0 0 0 0 0 0 0 0 0 0 0 0 0 0 0 0 0 0 0 0 0 0 0 0 0 0 0 0 0 0 0 0 0 0 0 0 0 0 0 0 0 0 0 0 0 0 0 0 0 0 0 0 0 0 0 0 0 0 0 0 0 0 0 0 0 0 0 0 0 0 0 0 0 0 0 0 0 0 0 0 0 0 0 0 0 0 0 0 0 0 0 0 0 0 0 0 0 0 0 0 0 0 0 0 0 0 0 0 0 0 0 
0 0 0 0 0 0 0 0 0 0 0 0 0 0 0 0 0 0 0 0 0 0 0 0 0 0 0 0 0 0 0 0 0 0 0 0 0 0 0 0 0 0 0 0 0 0 0 0 0 0 0 0 0 0 0 0 0 0 0 0 0 0 0 0 0 0 0 0 0 0 0 0 0 0 0 0 0 0 0 0 0 0 0 0 0 0 0 0 0 0 0 0 0 0 0 0 0 0 0 0 0 0 0 0 0 0 0 0 0 0 0 0 0 0 0 0 0 0 0 0 0 0 0 0 0 0 0 0 0 0 0 0 0 0 0 0 0 0 0 0 0 0 0 0 0 0 0 0 0 0 0 0 0 0 0 0 0 0 0 0 0 0 0 0 0 0 0 0 0 0 0 0 0 0 0 0 0 0 0 0 
0 0 0 0 0 0 0 0 0 0 0 0 0 0 0 0 0 0 0 0 0 0 0 0 0 0 0 0 0 0 359 0 0 708 0 0 727 0 0 691 0 0 715 0 0 744 0 0 718 0 0 717 0 0 709 0 0 722 0 0 757 0 0 734 0 0 720 0 0 704 0 0 724 0 0 693 0 0 766 0 0 712 0 0 702 0 0 760 0 0 705 0 0 730 0 0 834 0 0 707 0 0 787 0 0 737 0 0 709 0 0 789 0 0 762 0 0 750 0 0 743 0 0 731 0 0 715 0 0 728 0 0 773 0 0 758 0 0 723 0 0 711 0 0 721 0 0 728 0 0 356 0 0 0 0 0 0 0 0 0 0 0 0 0 0 0 0 0 0 0 0 0 0 0 0 0 0 0 0 0 
0 0 0 0 0 0 0 0 0 0 0 0 0 0 0 0 0 0 0 0 0 0 0 0 0 0 0 0 0 0 695 0 0 1470 0 0 1428 0 0 1448 0 0 1470 0 0 1439 0 0 1456 0 0 1449 0 0 1544 0 0 1469 0 0 1479 0 0 1436 0 0 1405 0 0 1403 0 0 1448 0 0 1436 0 0 1463 0 0 1453 0 0 1422 0 0 1510 0 0 1466 0 0 1446 0 0 1478 0 0 1493 0 0 1496 0 0 1414 0 0 1543 0 0 1507 0 0 1492 0 0 1451 0 0 1475 0 0 1401 0 0 1392 0 0 1478 0 0 1468 0 0 1505 0 0 1428 0 0 1507 0 0 1475 0 0 1515 0 0 774 0 0 0 0 0 0 0 0 0 0 0 0 0 0 0 0 0 0 0 0 0 0 0 0 0 0 0 0 0 
0 0 0 0 0 0 0 0 0 0 0 0 0 0 0 0 0 0 0 0 0 0 0 0 0 0 0 0 0 0 749 0 0 1452 0 0 1459 0 0 1447 0 0 1497 0 0 1477 0 0 1451 0 0 1422 0 0 1557 0 0 1451 0 0 1508 0 0 1433 0 0 1493 0 0 1463 0 0 1457 0 0 1435 0 0 1482 0 0 1526 0 0 1466 0 0 1374 0 0 1429 0 0 1461 0 0 1461 0 0 1436 0 0 1399 0 0 1482 0 0 1431 0 0 1462 0 0 1461 0 0 1509 0 0 1402 0 0 1426 0 0 1495 0 0 1462 0 0 1445 0 0 1475 0 0 1429 0 0 1474 0 0 1501 0 0 1337 0 0 748 0 0 0 0 0 0 0 0 0 0 0 0 0 0 0 0 0 0 0 0 0 0 0 0 0 0 0 0 0 
0 0 0 0 0 0 0 0 0 0 0 0 0 0 0 0 0 0 0 0 0 0 0 0 0 0 0 0 0 0 735 0 0 1541 0 0 1481 0 0 1444 0 0 1480 0 0 1499 0 0 1453 0 0 1387 0 0 1403 0 0 1473 0 0 1388 0 0 1486 0 0 1387 0 0 1405 0 0 1455 0 0 1487 0 0 1499 0 0 1397 0 0 1473 0 0 1537 0 0 1491 0 0 1508 0 0 1509 0 0 1477 0 0 1514 0 0 1472 0 0 1448 0 0 1514 0 0 1472 0 0 1483 0 0 1465 0 0 1483 0 0 1500 0 0 1466 0 0 1546 0 0 1444 0 0 1413 0 0 1466 0 0 1454 0 0 1442 0 0 757 0 0 0 0 0 0 0 0 0 0 0 0 0 0 0 0 0 0 0 0 0 0 0 0 0 0 0 0 0 
0 0 0 0 0 0 0 0 0 0 0 0 0 0 0 0 0 0 0 0 0 0 0 0 0 0 0 0 0 0 701 0 0 1454 0 0 1482 0 0 1408 0 0 1473 0 0 1523 0 0 1522 0 0 1422 0 0 1496 0 0 1554 0 0 1542 0 0 1468 0 0 1518 0 0 1442 0 0 1399 0 0 1418 0 0 1433 0 0 1466 0 0 1424 0 0 1515 0 0 1472 0 0 1494 0 0 1518 0 0 1485 0 0 1529 0 0 1436 0 0 1470 0 0 1487 0 0 1401 0 0 1457 0 0 1484 0 0 1514 0 0 1530 0 0 1499 0 0 1430 0 0 1514 0 0 1465 0 0 1454 0 0 1472 0 0 1493 0 0 759 0 0 0 0 0 0 0 0 0 0 0 0 0 0 0 0 0 0 0 0 0 0 0 0 0 0 0 0 0 
0 0 0 0 0 0 0 0 0 0 0 0 0 0 0 0 0 0 0 0 0 0 0 0 0 0 0 0 0 0 719 0 0 1466 0 0 1479 0 0 1449 0 0 1477 0 0 1474 0 0 1569 0 0 1474 0 0 1475 0 0 1486 0 0 1425 0 0 1434 0 0 1437 0 0 1527 0 0 1502 0 0 1484 0 0 1480 0 0 1448 0 0 1438 0 0 1412 0 0 1487 0 0 1474 0 0 1434 0 0 1491 0 0 1485 0 0 1449 0 0 1506 0 0 1502 0 0 1511 0 0 1481 0 0 1501 0 0 1511 0 0 1486 0 0 1443 0 0 1389 0 0 1504 0 0 1487 0 0 1549 0 0 1523 0 0 1456 0 0 635 0 0 0 0 0 0 0 0 0 0 0 0 0 0 0 0 0 0 0 0 0 0 0 0 0 0 0 0 0 
0 0 0 0 0 0 0 0 0 0 0 0 0 0 0 0 0 0 0 0 0 0 0 0 0 0 0 0 0 0 739 0 0 1444 0 0 1421 0 0 1483 0 0 1454 0 0 1462 0 0 1448 0 0 1434 0 0 1470 0 0 1483 0 0 1478 0 0 1418 0 0 1521 0 0 1486 0 0 1453 0 0 1461 0 0 1479 0 0 1472 0 0 1485 0 0 1398 0 0 1457 0 0 1458 0 0 1482 0 0 1434 0 0 1439 0 0 1458 0 0 1447 0 0 1401 0 0 1506 0 0 1507 0 0 1500 0 0 1503 0 0 1416 0 0 1491 0 0 1475 0 0 1463 0 0 1403 0 0 1420 0 0 1472 0 0 1460 0 0 744 0 0 0 0 0 0 0 0 0 0 0 0 0 0 0 0 0 0 0 0 0 0 0 0 0 0 0 0 0 
0 0 0 0 0 0 0 0 0 0 0 0 0 0 0 0 0 0 0 0 0 0 0 0 0 0 0 0 0 0 744 0 0 1528 0 0 1432 0 0 1419 0 0 1463 0 0 1488 0 0 1507 0 0 1462 0 0 1440 0 0 1435 0 0 1503 0 0 1523 0 0 1449 0 0 1413 0 0 1541 0 0 1467 0 0 1454 0 0 1462 0 0 1476 0 0 1573 0 0 1470 0 0 1464 0 0 1490 0 0 1548 0 0 1575 0 0 1438 0 0 1452 0 0 1579 0 0 1429 0 0 1487 0 0 1437 0 0 1515 0 0 1491 0 0 1537 0 0 1444 0 0 1354 0 0 1416 0 0 1440 0 0 1418 0 0 1503 0 0 653 0 0 0 0 0 0 0 0 0 0 0 0 0 0 0 0 0 0 0 0 0 0 0 0 0 0 0 0 0 
0 0 0 0 0 0 0 0 0 0 0 0 0 0 0 0 0 0 0 0 0 0 0 0 0 0 0 0 0 0 778 0 0 1413 0 0 1495 0 0 1432 0 0 1416 0 0 1471 0 0 1432 0 0 1424 0 0 1450 0 0 1493 0 0 1467 0 0 1502 0 0 1440 0 0 1562 0 0 1503 0 0 1462 0 0 1508 0 0 1493 0 0 1535 0 0 1448 0 0 1522 0 0 1464 0 0 1419 0 0 1406 0 0 1516 0 0 1477 0 0 1491 0 0 1401 0 0 1470 0 0 1441 0 0 1441 0 0 1457 0 0 1448 0 0 1448 0 0 1453 0 0 1422 0 0 1464 0 0 1448 0 0 1383 0 0 1456 0 0 755 0 0 0 0 0 0 0 0 0 0 0 0 0 0 0 0 0 0 0 0 0 0 0 0 0 0 0 0 0 
0 0 0 0 0 0 0 0 0 0 0 0 0 0 0 0 0 0 0 0 0 0 0 0 0 0 0 0 0 0 719 0 0 1440 0 0 1437 0 0 1480 0 0 1417 0 0 1487 0 0 1408 0 0 1455 0 0 1505 0 0 1484 0 0 1529 0 0 1478 0 0 1371 0 0 1436 0 0 1420 0 0 1458 0 0 1523 0 0 1444 0 0 1497 0 0 1491 0 0 1458 0 0 1438 0 0 1576 0 0 1469 0 0 1394 0 0 1473 0 0 1436 0 0 1449 0 0 1513 0 0 1557 0 0 1455 0 0 1463 0 0 1490 0 0 1423 0 0 1423 0 0 1543 0 0 1446 0 0 1445 0 0 1540 0 0 1471 0 0 714 0 0 0 0 0 0 0 0 0 0 0 0 0 0 0 0 0 0 0 0 0 0 0 0 0 0 0 0 0 
0 0 0 0 0 0 0 0 0 0 0 0 0 0 0 0 0 0 0 0 0 0 0 0 0 0 0 0 0 0 751 0 0 1415 0 0 1462 0 0 1448 0 0 1502 0 0 1536 0 0 1469 0 0 1498 0 0 1469 0 0 1501 0 0 1517 0 0 1542 0 0 1470 0 0 1480 0 0 1477 0 0 1455 0 0 1472 0 0 1463 0 0 1438 0 0 1512 0 0 1387 0 0 1497 0 0 1397 0 0 1390 0 0 1483 0 0 1513 0 0 1488 0 0 1459 0 0 1496 0 0 1484 0 0 1404 0 0 1479 0 0 1485 0 0 1467 0 0 1491 0 0 1502 0 0 1517 0 0 1454 0 0 1502 0 0 1555 0 0 723 0 0 0 0 0 0 0 0 0 0 0 0 0 0 0 0 0 0 0 0 0 0 0 0 0 0 0 0 0 
0 0 0 0 0 0 0 0 0 0 0 0 0 0 0 0 0 0 0 0 0 0 0 0 0 0 0 0 0 0 697 0 0 1585 0 0 1396 0 0 1428 0 0 1484 0 0 1432 0 0 1500 0 0 1434 0 0 1469 0 0 1482 0 0 1478 0 0 1415 0 0 1447 0 0 1427 0 0 1398 0 0 1424 0 0 1522 0 0 1499 0 0 1502 0 0 1449 0 0 1519 0 0 1471 0 0 1542 0 0 1451 0 0 1467 0 0 1474 0 0 1455 0 0 1508 0 0 1443 0 0 1454 0 0 1520 0 0 1532 0 0 1482 0 0 1492 0 0 1455 0 0 1496 0 0 1412 0 0 1401 0 0 1451 0 0 1424 0 0 759 0 0 0 0 0 0 0 0 0 0 0 0 0 0 0 0 0 0 0 0 0 0 0 0 0 0 0 0 0 
0 0 0 0 0 0 0 0 0 0 0 0 0 0 0 0 0 0 0 0 0 0 0 0 0 0 0 0 0 0 736 0 0 1538 0 0 1422 0 0 1441 0 0 1523 0 0 1403 0 0 1401 0 0 1447 0 0 1499 0 0 1470 0 0 1362 0 0 1403 0 0 1471 0 0 1442 0 0 1434 0 0 1463 0 0 1513 0 0 1473 0 0 1441 0 0 1417 0 0 1489 0 0 1473 0 0 1444 0 0 1447 0 0 1451 0 0 1479 0 0 1520 0 0 1447 0 0 1457 0 0 1477 0 0 1417 0 0 1473 0 0 1408 0 0 1513 0 0 1499 0 0 1549 0 0 1509 0 0 1463 0 0 1493 0 0 1397 0 0 791 0 0 0 0 0 0 0 0 0 0 0 0 0 0 0 0 0 0 0 0 0 0 0 0 0 0 0 0 0 
0 0 0 0 0 0 0 0 0 0 0 0 0 0 0 0 0 0 0 0 0 0 0 0 0 0 0 0 0 0 727 0 0 1420 0 0 1479 0 0 1432 0 0 1422 0 0 1487 0 0 1510 0 0 1454 0 0 1428 0 0 1539 0 0 1508 0 0 1533 0 0 1533 0 0 1466 0 0 1504 0 0 1457 0 0 1507 0 0 1383 0 0 1474 0 0 1432 0 0 1418 0 0 1425 0 0 1448 0 0 1454 0 0 1458 0 0 1426 0 0 1514 0 0 1439 0 0 1490 0 0 1454 0 0 1428 0 0 1443 0 0 1525 0 0 1469 0 0 1477 0 0 1490 0 0 1444 0 0 1420 0 0 1446 0 0 1359 0 0 690 0 0 0 0 0 0 0 0 0 0 0 0 0 0 0 0 0 0 0 0 0 0 0 0 0 0 0 0 0 
0 0 0 0 0 0 0 0 0 0 0 0 0 0 0 0 0 0 0 0 0 0 0 0 0 0 0 0 0 0 763 0 0 1498 0 0 1446 0 0 1496 0 0 1506 0 0 1491 0 0 1430 0 0 1408 0 0 1463 0 0 1449 0 0 1535 0 0 1508 0 0 1428 0 0 1481 0 0 1557 0 0 1503 0 0 1439 0 0 1455 0 0 1509 0 0 1446 0 0 1517 0 0 1475 0 0 1436 0 0 1386 0 0 1476 0 0 1446 0 0 1429 0 0 1511 0 0 1444 0 0 1533 0 0 1432 0 0 1412 0 0 1454 0 0 1474 0 0 1439 0 0 1413 0 0 1476 0 0 1487 0 0 1433 0 0 1465 0 0 748 0 0 0 0 0 0 0 0 0 0 0 0 0 0 0 0 0 0 0 0 0 0 0 0 0 0 0 0 0 
0 0 0 0 0 0 0 0 0 0 0 0 0 0 0 0 0 0 0 0 0 0 0 0 0 0 0 0 0 0 720 0 0 1423 0 0 1448 0 0 1433 0 0 1428 0 0 1409 0 0 1399 0 0 1478 0 0 1445 0 0 1468 0 0 1432 0 0 1435 0 0 1502 0 0 1473 0 0 1521 0 0 1382 0 0 1471 0 0 1490 0 0 1447 0 0 1596 0 0 1492 0 0 1501 0 0 1434 0 0 1504 0 0 1524 0 0 1418 0 0 1448 0 0 1453 0 0 1477 0 0 1486 0 0 1506 0 0 1503 0 0 1379 0 0 1410 0 0 1441 0 0 1453 0 0 1449 0 0 1473 0 0 1543 0 0 1511 0 0 765 0 0 0 0 0 0 0 0 0 0 0 0 0 0 0 0 0 0 0 0 0 0 0 0 0 0 0 0 0 
0 0 0 0 0 0 0 0 0 0 0 0 0 0 0 0 0 0 0 0 0 0 0 0 0 0 0 0 0 0 782 0 0 1504 0 0 1463 0 0 1485 0 0 1478 0 0 1487 0 0 1432 0 0 1467 0 0 1511 0 0 1444 0 0 1417 0 0 1513 0 0 1501 0 0 1467 0 0 1428 0 0 1474 0 0 1459 0 0 1485 0 0 1555 0 0 1505 0 0 1380 0 0 1503 0 0 1473 0 0 1451 0 0 1434 0 0 1525 0 0 1527 0 0 1485 0 0 1508 0 0 1434 0 0 1501 0 0 1455 0 0 1443 0 0 1525 0 0 1487 0 0 1497 0 0 1494 0 0 1466 0 0 1448 0 0 1405 0 0 709 0 0 0 0 0 0 0 0 0 0 0 0 0 0 0 0 0 0 0 0 0 0 0 0 0 0 0 0 0 
0 0 0 0 0 0 0 0 0 0 0 0 0 0 0 0 0 0 0 0 0 0 0 0 0 0 0 0 0 0 709 0 0 1512 0 0 1465 0 0 1508 0 0 1507 0 0 1499 0 0 1403 0 0 1410 0 0 1469 0 0 1561 0 0 1355 0 0 1461 0 0 1410 0 0 1530 0 0 1482 0 0 1555 0 0 1469 0 0 1475 0 0 1536 0 0 1436 0 0 1488 0 0 1482 0 0 1501 0 0 1449 0 0 1448 0 0 1481 0 0 1464 0 0 1456 0 0 1417 0 0 1558 0 0 1419 0 0 1437 0 0 1417 0 0 1491 0 0 1479 0 0 1457 0 0 1479 0 0 1475 0 0 1501 0 0 1449 0 0 760 0 0 0 0 0 0 0 0 0 0 0 0 0 0 0 0 0 0 0 0 0 0 0 0 0 0 0 0 0 
0 0 0 0 0 0 0 0 0 0 0 0 0 0 0 0 0 0 0 0 0 0 0 0 0 0 0 0 0 0 806 0 0 1508 0 0 1386 0 0 1448 0 0 1487 0 0 1487 0 0 1451 0 0 1511 0 0 1478 0 0 1530 0 0 1529 0 0 1483 0 0 1413 0 0 1451 0 0 1434 0 0 1435 0 0 1494 0 0 1432 0 0 1474 0 0 1485 0 0 1489 0 0 1484 0 0 1442 0 0 1453 0 0 1411 0 0 1466 0 0 1450 0 0 1424 0 0 1505 0 0 1456 0 0 1467 0 0 1382 0 0 1519 0 0 1451 0 0 1510 0 0 1445 0 0 1516 0 0 1478 0 0 1525 0 0 1498 0 0 747 0 0 0 0 0 0 0 0 0 0 0 0 0 0 0 0 0 0 0 0 0 0 0 0 0 0 0 0 0 
0 0 0 0 0 0 0 0 0 0 0 0 0 0 0 0 0 0 0 0 0 0 0 0 0 0 0 0 0 0 740 0 0 1475 0 0 1447 0 0 1474 0 0 1433 0 0 1470 0 0 1485 0 0 1486 0 0 1443 0 0 1465 0 0 1522 0 0 1421 0 0 1591 0 0 1477 0 0 1518 0 0 1437 0 0 1420 0 0 1491 0 0 1500 0 0 1437 0 0 1508 0 0 1447 0 0 1424 0 0 1443 0 0 1504 0 0 1521 0 0 1392 0 0 1525 0 0 1432 0 0 1452 0 0 1514 0 0 1491 0 0 1505 0 0 1566 0 0 1533 0 0 1426 0 0 1476 0 0 1521 0 0 1501 0 0 1514 0 0 709 0 0 0 0 0 0 0 0 0 0 0 0 0 0 0 0 0 0 0 0 0 0 0 0 0 0 0 0 0 
0 0 0 0 0 0 0 0 0 0 0 0 0 0 0 0 0 0 0 0 0 0 0 0 0 0 0 0 0 0 753 0 0 1412 0 0 1525 0 0 1420 0 0 1450 0 0 1458 0 0 1479 0 0 1393 0 0 1406 0 0 1438 0 0 1463 0 0 1450 0 0 1437 0 0 1453 0 0 1461 0 0 1445 0 0 1475 0 0 1393 0 0 1483 0 0 1469 0 0 1451 0 0 1431 0 0 1449 0 0 1446 0 0 1468 0 0 1437 0 0 1463 0 0 1503 0 0 1478 0 0 1451 0 0 1542 0 0 1479 0 0 1455 0 0 1434 0 0 1442 0 0 1440 0 0 1522 0 0 1555 0 0 1483 0 0 1518 0 0 732 0 0 0 0 0 0 0 0 0 0 0 0 0 0 0 0 0 0 0 0 0 0 0 0 0 0 0 0 0 
0 0 0 0 0 0 0 0 0 0 0 0 0 0 0 0 0 0 0 0 0 0 0 0 0 0 0 0 0 0 738 0 0 1507 0 0 1503 0 0 1431 0 0 1447 0 0 1441 0 0 1418 0 0 1521 0 0 1498 0 0 1434 0 0 1486 0 0 1486 0 0 1475 0 0 1389 0 0 1490 0 0 1481 0 0 1481 0 0 1505 0 0 1458 0 0 1460 0 0 1439 0 0 1481 0 0 1444 0 0 1364 0 0 1515 0 0 1428 0 0 1493 0 0 1456 0 0 1481 0 0 1470 0 0 1483 0 0 1471 0 0 1459 0 0 1463 0 0 1462 0 0 1411 0 0 1495 0 0 1441 0 0 1441 0 0 1487 0 0 775 0 0 0 0 0 0 0 0 0 0 0 0 0 0 0 0 0 0 0 0 0 0 0 0 0 0 0 0 0 
0 0 0 0 0 0 0 0 0 0 0 0 0 0 0 0 0 0 0 0 0 0 0 0 0 0 0 0 0 0 804 0 0 1462 0 0 1398 0 0 1434 0 0 1524 0 0 1459 0 0 1500 0 0 1494 0 0 1452 0 0 1535 0 0 1432 0 0 1538 0 0 1454 0 0 1491 0 0 1486 0 0 1404 0 0 1445 0 0 1503 0 0 1501 0 0 1374 0 0 1510 0 0 1500 0 0 1458 0 0 1486 0 0 1399 0 0 1479 0 0 1466 0 0 1466 0 0 1456 0 0 1500 0 0 1495 0 0 1410 0 0 1437 0 0 1428 0 0 1402 0 0 1447 0 0 1451 0 0 1422 0 0 1500 0 0 1414 0 0 737 0 0 0 0 0 0 0 0 0 0 0 0 0 0 0 0 0 0 0 0 0 0 0 0 0 0 0 0 0 
0 0 0 0 0 0 0 0 0 0 0 0 0 0 0 0 0 0 0 0 0 0 0 0 0 0 0 0 0 0 733 0 0 1480 0 0 1405 0 0 1514 0 0 1514 0 0 1400 0 0 1513 0 0 1464 0 0 1523 0 0 1509 0 0 1471 0 0 1473 0 0 1516 0 0 1496 0 0 1462 0 0 1483 0 0 1429 0 0 1402 0 0 1469 0 0 1404 0 0 1430 0 0 1519 0 0 1450 0 0 1533 0 0 1491 0 0 1479 0 0 1521 0 0 1482 0 0 1477 0 0 1471 0 0 1495 0 0 1426 0 0 1444 0 0 1471 0 0 1500 0 0 1391 0 0 1485 0 0 1470 0 0 1547 0 0 1457 0 0 752 0 0 0 0 0 0 0 0 0 0 0 0 0 0 0 0 0 0 0 0 0 0 0 0 0 0 0 0 0 
0 0 0 0 0 0 0 0 0 0 0 0 0 0 0 0 0 0 0 0 0 0 0 0 0 0 0 0 0 0 713 0 0 1420 0 0 1476 0 0 1495 0 0 1527 0 0 1476 0 0 1439 0 0 1442 0 0 1410 0 0 1458 0 0 1540 0 0 1460 0 0 1531 0 0 1492 0 0 1510 0 0 1477 0 0 1462 0 0 1443 0 0 1459 0 0 1468 0 0 1473 0 0 1436 0 0 1469 0 0 1483 0 0 1437 0 0 1468 0 0 1458 0 0 1419 0 0 1560 0 0 1457 0 0 1464 0 0 1440 0 0 1439 0 0 1442 0 0 1495 0 0 1453 0 0 1491 0 0 1459 0 0 1446 0 0 1487 0 0 728 0 0 0 0 0 0 0 0 0 0 0 0 0 0 0 0 0 0 0 0 0 0 0 0 0 0 0 0 0 
0 0 0 0 0 0 0 0 0 0 0 0 0 0 0 0 0 0 0 0 0 0 0 0 0 0 0 0 0 0 712 0 0 1431 0 0 1444 0 0 1477 0 0 1450 0 0 1538 0 0 1417 0 0 1533 0 0 1399 0 0 1486 0 0 1478 0 0 1466 0 0 1470 0 0 1414 0 0 1512 0 0 1448 0 0 1459 0 0 1474 0 0 1489 0 0 1449 0 0 1524 0 0 1471 0 0 1468 0 0 1469 0 0 1462 0 0 1409 0 0 1468 0 0 1397 0 0 1463 0 0 1483 0 0 1447 0 0 1426 0 0 1500 0 0 1464 0 0 1473 0 0 1459 0 0 1498 0 0 1500 0 0 1462 0 0 1419 0 0 739 0 0 0 0 0 0 0 0 0 0 0 0 0 0 0 0 0 0 0 0 0 0 0 0 0 0 0 0 0 
0 0 0 0 0 0 0 0 0 0 0 0 0 0 0 0 0 0 0 0 0 0 0 0 0 0 0 0 0 0 730 0 0 1470 0 0 1462 0 0 1474 0 0 1457 0 0 1436 0 0 1413 0 0 1496 0 0 1455 0 0 1482 0 0 1454 0 0 1514 0 0 1491 0 0 1425 0 0 1448 0 0 1506 0 0 1438 0 0 1433 0 0 1437 0 0 1466 0 0 1446 0 0 1451 0 0 1496 0 0 1470 0 0 1510 0 0 1400 0 0 1455 0 0 1455 0 0 1449 0 0 1427 0 0 1430 0 0 1464 0 0 1400 0 0 1451 0 0 1417 0 0 1440 0 0 1423 0 0 1509 0 0 1506 0 0 1453 0 0 735 0 0 0 0 0 0 0 0 0 0 0 0 0 0 0 0 0 0 0 0 0 0 0 0 0 0 0 0 0 
0 0 0 0 0 0 0 0 0 0 0 0 0 0 0 0 0 0 0 0 0 0 0 0 0 0 0 0 0 0 730 0 0 1439 0 0 1409 0 0 1507 0 0 1423 0 0 1503 0 0 1379 0 0 1453 0 0 1478 0 0 1526 0 0 1498 0 0 1509 0 0 1477 0 0 1506 0 0 1472 0 0 1430 0 0 1497 0 0 1405 0 0 1517 0 0 1499 0 0 1449 0 0 1432 0 0 1465 0 0 1472 0 0 1441 0 0 1472 0 0 1470 0 0 1435 0 0 1420 0 0 1505 0 0 1489 0 0 1455 0 0 1485 0 0 1413 0 0 1502 0 0 1456 0 0 1375 0 0 1434 0 0 1399 0 0 1488 0 0 758 0 0 0 0 0 0 0 0 0 0 0 0 0 0 0 0 0 0 0 0 0 0 0 0 0 0 0 0 0 
0 0 0 0 0 0 0 0 0 0 0 0 0 0 0 0 0 0 0 0 0 0 0 0 0 0 0 0 0 0 801 0 0 1506 0 0 1451 0 0 1567 0 0 1481 0 0 1437 0 0 1423 0 0 1490 0 0 1461 0 0 1459 0 0 1483 0 0 1530 0 0 1415 0 0 1481 0 0 1412 0 0 1447 0 0 1466 0 0 1444 0 0 1429 0 0 1446 0 0 1438 0 0 1430 0 0 1427 0 0 1447 0 0 1490 0 0 1492 0 0 1500 0 0 1487 0 0 1477 0 0 1462 0 0 1442 0 0 1461 0 0 1425 0 0 1443 0 0 1446 0 0 1474 0 0 1419 0 0 1499 0 0 1419 0 0 1467 0 0 717 0 0 0 0 0 0 0 0 0 0 0 0 0 0 0 0 0 0 0 0 0 0 0 0 0 0 0 0 0 
0 0 0 0 0 0 0 0 0 0 0 0 0 0 0 0 0 0 0 0 0 0 0 0 0 0 0 0 0 0 738 0 0 1485 0 0 1453 0 0 1518 0 0 1415 0 0 1498 0 0 1496 0 0 1539 0 0 1446 0 0 1451 0 0 1474 0 0 1484 0 0 1414 0 0 1420 0 0 1467 0 0 1443 0 0 1430 0 0 1513 0 0 1519 0 0 1409 0 0 1413 0 0 1434 0 0 1487 0 0 1452 0 0 1477 0 0 1476 0 0 1469 0 0 1458 0 0 1465 0 0 1497 0 0 1479 0 0 1432 0 0 1497 0 0 1408 0 0 1434 0 0 1502 0 0 1476 0 0 1411 0 0 1354 0 0 1438 0 0 745 0 0 0 0 0 0 0 0 0 0 0 0 0 0 0 0 0 0 0 0 0 0 0 0 0 0 0 0 0 
0 0 0 0 0 0 0 0 0 0 0 0 0 0 0 0 0 0 0 0 0 0 0 0 0 0 0 0 0 0 692 0 0 1486 0 0 1453 0 0 1396 0 0 1492 0 0 1482 0 0 1458 0 0 1395 0 0 1437 0 0 1509 0 0 1477 0 0 1511 0 0 1441 0 0 1371 0 0 1451 0 0 1483 0 0 1485 0 0 1470 0 0 1471 0 0 1403 0 0 1476 0 0 1422 0 0 1456 0 0 1419 0 0 1477 0 0 1506 0 0 1429 0 0 1499 0 0 1416 0 0 1459 0 0 1485 0 0 1562 0 0 1520 0 0 1452 0 0 1436 0 0 1494 0 0 1503 0 0 1463 0 0 1487 0 0 1431 0 0 727 0 0 0 0 0 0 0 0 0 0 0 0 0 0 0 0 0 0 0 0 0 0 0 0 0 0 0 0 0 
0 0 0 0 0 0 0 0 0 0 0 0 0 0 0 0 0 0 0 0 0 0 0 0 0 0 0 0 0 0 743 0 0 1462 0 0 1477 0 0 1467 0 0 1482 0 0 1468 0 0 1471 0 0 1396 0 0 1453 0 0 1476 0 0 1430 0 0 1510 0 0 1418 0 0 1505 0 0 1447 0 0 1440 0 0 1512 0 0 1556 0 0 1409 0 0 1459 0 0 1498 0 0 1438 0 0 1559 0 0 1433 0 0 1409 0 0 1470 0 0 1481 0 0 1466 0 0 1445 0 0 1505 0 0 1485 0 0 1398 0 0 1430 0 0 1427 0 0 1454 0 0 1476 0 0 1496 0 0 1443 0 0 1397 0 0 1461 0 0 742 0 0 0 0 0 0 0 0 0 0 0 0 0 0 0 0 0 0 0 0 0 0 0 0 0 0 0 0 0 
0 0 0 0 0 0 0 0 0 0 0 0 0 0 0 0 0 0 0 0 0 0 0 0 0 0 0 0 0 0 708 0 0 1561 0 0 1456 0 0 1456 0 0 1513 0 0 1464 0 0 1535 0 0 1517 0 0 1410 0 0 1451 0 0 1472 0 0 1489 0 0 1527 0 0 1415 0 0 1436 0 0 1455 0 0 1466 0 0 1471 0 0 1528 0 0 1404 0 0 1426 0 0 1458 0 0 1491 0 0 1494 0 0 1415 0 0 1474 0 0 1541 0 0 1440 0 0 1534 0 0 1457 0 0 1484 0 0 1438 0 0 1453 0 0 1453 0 0 1502 0 0 1477 0 0 1474 0 0 1456 0 0 1440 0 0 1518 0 0 702 0 0 0 0 0 0 0 0 0 0 0 0 0 0 0 0 0 0 0 0 0 0 0 0 0 0 0 0 0 
0 0 0 0 0 0 0 0 0 0 0 0 0 0 0 0 0 0 0 0 0 0 0 0 0 0 0 0 0 0 815 0 0 1474 0 0 1496 0 0 1432 0 0 1478 0 0 1431 0 0 1507 0 0 1425 0 0 1462 0 0 1387 0 0 1405 0 0 1465 0 0 1424 0 0 1506 0 0 1439 0 0 1432 0 0 1518 0 0 1457 0 0 1496 0 0 1482 0 0 1520 0 0 1469 0 0 1412 0 0 1428 0 0 1515 0 0 1462 0 0 1461 0 0 1478 0 0 1458 0 0 1450 0 0 1462 0 0 1449 0 0 1431 0 0 1415 0 0 1492 0 0 1464 0 0 1427 0 0 1488 0 0 1448 0 0 1497 0 0 733 0 0 0 0 0 0 0 0 0 0 0 0 0 0 0 0 0 0 0 0 0 0 0 0 0 0 0 0 0 
0 0 0 0 0 0 0 0 0 0 0 0 0 0 0 0 0 0 0 0 0 0 0 0 0 0 0 0 0 0 728 0 0 1396 0 0 1390 0 0 1448 0 0 1499 0 0 1462 0 0 1423 0 0 1495 0 0 1455 0 0 1450 0 0 1488 0 0 1522 0 0 1462 0 0 1497 0 0 1465 0 0 1496 0 0 1505 0 0 1432 0 0 1444 0 0 1475 0 0 1465 0 0 1506 0 0 1471 0 0 1485 0 0 1393 0 0 1458 0 0 1447 0 0 1452 0 0 1529 0 0 1477 0 0 1437 0 0 1375 0 0 1454 0 0 1464 0 0 1491 0 0 1425 0 0 1496 0 0 1518 0 0 1490 0 0 1437 0 0 756 0 0 0 0 0 0 0 0 0 0 0 0 0 0 0 0 0 0 0 0 0 0 0 0 0 0 0 0 0 
0 0 0 0 0 0 0 0 0 0 0 0 0 0 0 0 0 0 0 0 0 0 0 0 0 0 0 0 0 0 753 0 0 1445 0 0 1420 0 0 1406 0 0 1506 0 0 1500 0 0 1514 0 0 1469 0 0 1447 0 0 1490 0 0 1499 0 0 1515 0 0 1518 0 0 1488 0 0 1504 0 0 1474 0 0 1442 0 0 1516 0 0 1530 0 0 1450 0 0 1530 0 0 1476 0 0 1410 0 0 1436 0 0 1421 0 0 1495 0 0 1449 0 0 1501 0 0 1604 0 0 1427 0 0 1485 0 0 1532 0 0 1450 0 0 1448 0 0 1403 0 0 1459 0 0 1466 0 0 1515 0 0 1538 0 0 1427 0 0 755 0 0 0 0 0 0 0 0 0 0 0 0 0 0 0 0 0 0 0 0 0 0 0 0 0 0 0 0 0 
0 0 0 0 0 0 0 0 0 0 0 0 0 0 0 0 0 0 0 0 0 0 0 0 0 0 0 0 0 0 717 0 0 1447 0 0 1442 0 0 1486 0 0 1494 0 0 1467 0 0 1482 0 0 1542 0 0 1537 0 0 1396 0 0 1439 0 0 1431 0 0 1448 0 0 1493 0 0 1365 0 0 1477 0 0 1502 0 0 1475 0 0 1500 0 0 1480 0 0 1446 0 0 1491 0 0 1497 0 0 1527 0 0 1495 0 0 1470 0 0 1511 0 0 1437 0 0 1496 0 0 1467 0 0 1489 0 0 1549 0 0 1520 0 0 1454 0 0 1438 0 0 1460 0 0 1501 0 0 1404 0 0 1547 0 0 1436 0 0 716 0 0 0 0 0 0 0 0 0 0 0 0 0 0 0 0 0 0 0 0 0 0 0 0 0 0 0 0 0 
0 0 0 0 0 0 0 0 0 0 0 0 0 0 0 0 0 0 0 0 0 0 0 0 0 0 0 0 0 0 702 0 0 1479 0 0 1478 0 0 1440 0 0 1434 0 0 1458 0 0 1506 0 0 1467 0 0 1488 0 0 1503 0 0 1478 0 0 1492 0 0 1520 0 0 1432 0 0 1460 0 0 1482 0 0 1409 0 0 1426 0 0 1434 0 0 1480 0 0 1493 0 0 1449 0 0 1508 0 0 1408 0 0 1488 0 0 1548 0 0 1488 0 0 1561 0 0 1530 0 0 1441 0 0 1532 0 0 1462 0 0 1468 0 0 1422 0 0 1462 0 0 1468 0 0 1441 0 0 1473 0 0 1453 0 0 1450 0 0 767 0 0 0 0 0 0 0 0 0 0 0 0 0 0 0 0 0 0 0 0 0 0 0 0 0 0 0 0 0 
0 0 0 0 0 0 0 0 0 0 0 0 0 0 0 0 0 0 0 0 0 0 0 0 0 0 0 0 0 0 762 0 0 1451 0 0 1461 0 0 1510 0 0 1483 0 0 1427 0 0 1496 0 0 1552 0 0 1457 0 0 1517 0 0 1480 0 0 1463 0 0 1440 0 0 1455 0 0 1471 0 0 1387 0 0 1557 0 0 1507 0 0 1470 0 0 1527 0 0 1543 0 0 1416 0 0 1529 0 0 1446 0 0 1516 0 0 1467 0 0 1496 0 0 1439 0 0 1529 0 0 1476 0 0 1442 0 0 1458 0 0 1498 0 0 1429 0 0 1435 0 0 1520 0 0 1494 0 0 1494 0 0 1479 0 0 1468 0 0 743 0 0 0 0 0 0 0 0 0 0 0 0 0 0 0 0 0 0 0 0 0 0 0 0 0 0 0 0 0 
0 0 0 0 0 0 0 0 0 0 0 0 0 0 0 0 0 0 0 0 0 0 0 0 0 0 0 0 0 0 753 0 0 1469 0 0 1433 0 0 1487 0 0 1476 0 0 1439 0 0 1480 0 0 1402 0 0 1454 0 0 1411 0 0 1395 0 0 1545 0 0 1410 0 0 1449 0 0 1502 0 0 1491 0 0 1452 0 0 1403 0 0 1419 0 0 1455 0 0 1513 0 0 1413 0 0 1470 0 0 1495 0 0 1481 0 0 1493 0 0 1487 0 0 1500 0 0 1443 0 0 1461 0 0 1459 0 0 1503 0 0 1475 0 0 1438 0 0 1489 0 0 1485 0 0 1473 0 0 1442 0 0 1511 0 0 1404 0 0 720 0 0 0 0 0 0 0 0 0 0 0 0 0 0 0 0 0 0 0 0 0 0 0 0 0 0 0 0 0 
0 0 0 0 0 0 0 0 0 0 0 0 0 0 0 0 0 0 0 0 0 0 0 0 0 0 0 0 0 0 343 0 0 737 0 0 772 0 0 754 0 0 696 0 0 729 0 0 748 0 0 725 0 0 707 0 0 725 0 0 689 0 0 733 0 0 694 0 0 742 0 0 703 0 0 702 0 0 737 0 0 718 0 0 718 0 0 703 0 0 757 0 0 739 0 0 718 0 0 760 0 0 774 0 0 689 0 0 732 0 0 713 0 0 743 0 0 717 0 0 737 0 0 757 0 0 786 0 0 744 0 0 767 0 0 745 0 0 739 0 0 751 0 0 701 0 0 705 0 0 365 0 0 0 0 0 0 0 0 0 0 0 0 0 0 0 0 0 0 0 0 0 0 0 0 0 0 0 0 0 
0 0 0 0 0 0 0 0 0 0 0 0 0 0 0 0 0 0 0 0 0 0 0 0 0 0 0 0 0 0 0 0 0 0 0 0 0 0 0 0 0 0 0 0 0 0 0 0 0 0 0 0 0 0 0 0 0 0 0 0 0 0 0 0 0 0 0 0 0 0 0 0 0 0 0 0 0 0 0 0 0 0 0 0 0 0 0 0 0 0 0 0 0 0 0 0 0 0 0 0 0 0 0 0 0 0 0 0 0 0 0 0 0 0 0 0 0 0 0 0 0 0 0 0 0 0 0 0 0 0 0 0 0 0 0 0 0 0 0 0 0 0 0 0 0 0 0 0 0 0 0 0 0 0 0 0 0 0 0 0 0 0 0 0 0 0 0 0 0 0 0 0 0 0 0 0 0 0 0 0 
0 0 0 0 0 0 0 0 0 0 0 0 0 0 0 0 0 0 0 0 0 0 0 0 0 0 0 0 0 0 0 0 0 0 0 0 0 0 0 0 0 0 0 0 0 0 0 0 0 0 0 0 0 0 0 0 0 0 0 0 0 0 0 0 0 0 0 0 0 0 0 0 0 0 0 0 0 0 0 0 0 0 0 0 0 0 0 0 0 0 0 0 0 0 0 0 0 0 0 0 0 0 0 0 0 0 0 0 0 0 0 0 0 0 0 0 0 0 0 0 0 0 0 0 0 0 0 0 0 0 0 0 0 0 0 0 0 0 0 0 0 0 0 0 0 0 0 0 0 0 0 0 0 0 0 0 0 0 0 0 0 0 0 0 0 0 0 0 0 0 0 0 0 0 0 0 0 0 0 0 
0 0 0 0 0 0 0 0 0 0 0 0 0 0 0 0 0 0 0 0 0 0 0 0 0 0 0 0 0 0 0 0 0 0 0 0 0 0 0 0 0 0 0 0 0 0 0 0 0 0 0 0 0 0 0 0 0 0 0 0 0 0 0 0 0 0 0 0 0 0 0 0 0 0 0 0 0 0 0 0 0 0 0 0 0 0 0 0 0 0 0 0 0 0 0 0 0 0 0 0 0 0 0 0 0 0 0 0 0 0 0 0 0 0 0 0 0 0 0 0 0 0 0 0 0 0 0 0 0 0 0 0 0 0 0 0 0 0 0 0 0 0 0 0 0 0 0 0 0 0 0 0 0 0 0 0 0 0 0 0 0 0 0 0 0 0 0 0 0 0 0 0 0 0 0 0 0 0 0 0 
0 0 0 0 0 0 0 0 0 0 0 0 0 0 0 0 0 0 0 0 0 0 0 0 0 0 0 0 0 0 0 0 0 0 0 0 0 0 0 0 0 0 0 0 0 0 0 0 0 0 0 0 0 0 0 0 0 0 0 0 0 0 0 0 0 0 0 0 0 0 0 0 0 0 0 0 0 0 0 0 0 0 0 0 0 0 0 0 0 0 0 0 0 0 0 0 0 0 0 0 0 0 0 0 0 0 0 0 0 0 0 0 0 0 0 0 0 0 0 0 0 0 0 0 0 0 0 0 0 0 0 0 0 0 0 0 0 0 0 0 0 0 0 0 0 0 0 0 0 0 0 0 0 0 0 0 0 0 0 0 0 0 0 0 0 0 0 0 0 0 0 0 0 0 0 0 0 0 0 0 
0 0 0 0 0 0 0 0 0 0 0 0 0 0 0 0 0 0 0 0 0 0 0 0 0 0 0 0 0 0 0 0 0 0 0 0 0 0 0 0 0 0 0 0 0 0 0 0 0 0 0 0 0 0 0 0 0 0 0 0 0 0 0 0 0 0 0 0 0 0 0 0 0 0 0 0 0 0 0 0 0 0 0 0 0 0 0 0 0 0 0 0 0 0 0 0 0 0 0 0 0 0 0 0 0 0 0 0 0 0 0 0 0 0 0 0 0 0 0 0 0 0 0 0 0 0 0 0 0 0 0 0 0 0 0 0 0 0 0 0 0 0 0 0 0 0 0 0 0 0 0 0 0 0 0 0 0 0 0 0 0 0 0 0 0 0 0 0 0 0 0 0 0 0 0 0 0 0 0 0 
0 0 0 0 0 0 0 0 0 0 0 0 0 0 0 0 0 0 0 0 0 0 0 0 0 0 0 0 0 0 0 0 0 0 0 0 0 0 0 0 0 0 0 0 0 0 0 0 0 0 0 0 0 0 0 0 0 0 0 0 0 0 0 0 0 0 0 0 0 0 0 0 0 0 0 0 0 0 0 0 0 0 0 0 0 0 0 0 0 0 0 0 0 0 0 0 0 0 0 0 0 0 0 0 0 0 0 0 0 0 0 0 0 0 0 0 0 0 0 0 0 0 0 0 0 0 0 0 0 0 0 0 0 0 0 0 0 0 0 0 0 0 0 0 0 0 0 0 0 0 0 0 0 0 0 0 0 0 0 0 0 0 0 0 0 0 0 0 0 0 0 0 0 0 0 0 0 0 0 0 
0 0 0 0 0 0 0 0 0 0 0 0 0 0 0 0 0 0 0 0 0 0 0 0 0 0 0 0 0 0 0 0 0 0 0 0 0 0 0 0 0 0 0 0 0 0 0 0 0 0 0 0 0 0 0 0 0 0 0 0 0 0 0 0 0 0 0 0 0 0 0 0 0 0 0 0 0 0 0 0 0 0 0 0 0 0 0 0 0 0 0 0 0 0 0 0 0 0 0 0 0 0 0 0 0 0 0 0 0 0 0 0 0 0 0 0 0 0 0 0 0 0 0 0 0 0 0 0 0 0 0 0 0 0 0 0 0 0 0 0 0 0 0 0 0 0 0 0 0 0 0 0 0 0 0 0 0 0 0 0 0 0 0 0 0 0 0 0 0 0 0 0 0 0 0 0 0 0 0 0 
0 0 0 0 0 0 0 0 0 0 0 0 0 0 0 0 0 0 0 0 0 0 0 0 0 0 0 0 0 0 0 0 0 0 0 0 0 0 0 0 0 0 0 0 0 0 0 0 0 0 0 0 0 0 0 0 0 0 0 0 0 0 0 0 0 0 0 0 0 0 0 0 0 0 0 0 0 0 0 0 0 0 0 0 0 0 0 0 0 0 0 0 0 0 0 0 0 0 0 0 0 0 0 0 0 0 0 0 0 0 0 0 0 0 0 0 0 0 0 0 0 0 0 0 0 0 0 0 0 0 0 0 0 0 0 0 0 0 0 0 0 0 0 0 0 0 0 0 0 0 0 0 0 0 0 0 0 0 0 0 0 0 0 0 0 0 0 0 0 0 0 0 0 0 0 0 0 0 0 0 
0 0 0 0 0 0 0 0 0 0 0 0 0 0 0 0 0 0 0 0 0 0 0 0 0 0 0 0 0 0 0 0 0 0 0 0 0 0 0 0 0 0 0 0 0 0 0 0 0 0 0 0 0 0 0 0 0 0 0 0 0 0 0 0 0 0 0 0 0 0 0 0 0 0 0 0 0 0 0 0 0 0 0 0 0 0 0 0 0 0 0 0 0 0 0 0 0 0 0 0 0 0 0 0 0 0 0 0 0 0 0 0 0 0 0 0 0 0 0 0 0 0 0 0 0 0 0 0 0 0 0 0 0 0 0 0 0 0 0 0 0 0 0 0 0 0 0 0 0 0 0 0 0 0 0 0 0 0 0 0 0 0 0 0 0 0 0 0 0 0 0 0 0 0 0 0 0 0 0 0 
