P3
# This is a dose file slice at depth 42 of 100
60 60
# now we give the maximum value of the RGB coordinates.
22407
0 0 0 0 0 0 0 0 0 0 0 0 0 0 0 0 0 0 0 0 0 0 0 0 0 0 0 0 0 0 0 0 0 0 0 0 0 0 0 0 0 0 0 0 0 0 0 0 0 0 0 0 0 0 0 0 0 0 0 0 0 0 0 0 0 0 0 0 0 0 0 0 0 0 0 0 0 0 0 0 0 0 0 0 0 0 0 0 0 0 0 0 0 0 0 0 0 0 0 0 0 0 0 0 0 0 0 0 0 0 0 0 0 0 0 0 0 0 0 0 0 0 0 0 0 0 0 0 0 0 0 0 0 0 0 0 0 0 0 0 0 0 0 0 0 0 0 0 0 0 0 0 0 0 0 0 0 0 0 0 0 0 0 0 0 0 0 0 0 0 0 0 0 0 0 0 0 0 0 0 
0 0 0 0 0 0 0 0 0 0 0 0 0 0 0 0 0 0 0 0 0 0 0 0 0 0 0 0 0 0 0 0 0 0 0 0 0 0 0 0 0 0 0 0 0 0 0 0 0 0 0 0 0 0 0 0 0 0 0 0 0 0 0 0 0 0 0 0 0 0 0 0 0 0 0 0 0 0 0 0 0 0 0 0 0 0 0 0 0 0 0 0 0 0 0 0 0 0 0 0 0 0 0 0 0 0 0 0 0 0 0 0 0 0 0 0 0 0 0 0 0 0 0 0 0 0 0 0 0 0 0 0 0 0 0 0 0 0 0 0 0 0 0 0 0 0 0 0 0 0 0 0 0 0 0 0 0 0 0 0 0 0 0 0 0 0 0 0 0 0 0 0 0 0 0 0 0 0 0 0 
0 0 0 0 0 0 0 0 0 0 0 0 0 0 0 0 0 0 0 0 0 0 0 0 0 0 0 0 0 0 0 0 0 0 0 0 0 0 0 0 0 0 0 0 0 0 0 0 0 0 0 0 0 0 0 0 0 0 0 0 0 0 0 0 0 0 0 0 0 0 0 0 0 0 0 0 0 0 0 0 0 0 0 0 0 0 0 0 0 0 0 0 0 0 0 0 0 0 0 0 0 0 0 0 0 0 0 0 0 0 0 0 0 0 0 0 0 0 0 0 0 0 0 0 0 0 0 0 0 0 0 0 0 0 0 0 0 0 0 0 0 0 0 0 0 0 0 0 0 0 0 0 0 0 0 0 0 0 0 0 0 0 0 0 0 0 0 0 0 0 0 0 0 0 0 0 0 0 0 0 
0 0 0 0 0 0 0 0 0 0 0 0 0 0 0 0 0 0 0 0 0 0 0 0 0 0 0 0 0 0 0 0 0 0 0 0 0 0 0 0 0 0 0 0 0 0 0 0 0 0 0 0 0 0 0 0 0 0 0 0 0 0 0 0 0 0 0 0 0 0 0 0 0 0 0 0 0 0 0 0 0 0 0 0 0 0 0 0 0 0 0 0 0 0 0 0 0 0 0 0 0 0 0 0 0 0 0 0 0 0 0 0 0 0 0 0 0 0 0 0 0 0 0 0 0 0 0 0 0 0 0 0 0 0 0 0 0 0 0 0 0 0 0 0 0 0 0 0 0 0 0 0 0 0 0 0 0 0 0 0 0 0 0 0 0 0 0 0 0 0 0 0 0 0 0 0 0 0 0 0 
0 0 0 0 0 0 0 0 0 0 0 0 0 0 0 0 0 0 0 0 0 0 0 0 0 0 0 0 0 0 0 0 0 0 0 0 0 0 0 0 0 0 0 0 0 0 0 0 0 0 0 0 0 0 0 0 0 0 0 0 0 0 0 0 0 0 0 0 0 0 0 0 0 0 0 0 0 0 0 0 0 0 0 0 0 0 0 0 0 0 0 0 0 0 0 0 0 0 0 0 0 0 0 0 0 0 0 0 0 0 0 0 0 0 0 0 0 0 0 0 0 0 0 0 0 0 0 0 0 0 0 0 0 0 0 0 0 0 0 0 0 0 0 0 0 0 0 0 0 0 0 0 0 0 0 0 0 0 0 0 0 0 0 0 0 0 0 0 0 0 0 0 0 0 0 0 0 0 0 0 
0 0 0 0 0 0 0 0 0 0 0 0 0 0 0 0 0 0 0 0 0 0 0 0 0 0 0 0 0 0 0 0 0 0 0 0 0 0 0 0 0 0 0 0 0 0 0 0 0 0 0 0 0 0 0 0 0 0 0 0 0 0 0 0 0 0 0 0 0 0 0 0 0 0 0 0 0 0 0 0 0 0 0 0 0 0 0 0 0 0 0 0 0 0 0 0 0 0 0 0 0 0 0 0 0 0 0 0 0 0 0 0 0 0 0 0 0 0 0 0 0 0 0 0 0 0 0 0 0 0 0 0 0 0 0 0 0 0 0 0 0 0 0 0 0 0 0 0 0 0 0 0 0 0 0 0 0 0 0 0 0 0 0 0 0 0 0 0 0 0 0 0 0 0 0 0 0 0 0 0 
0 0 0 0 0 0 0 0 0 0 0 0 0 0 0 0 0 0 0 0 0 0 0 0 0 0 0 0 0 0 0 0 0 0 0 0 0 0 0 0 0 0 0 0 0 0 0 0 0 0 0 0 0 0 0 0 0 0 0 0 0 0 0 0 0 0 0 0 0 0 0 0 0 0 0 0 0 0 0 0 0 0 0 0 0 0 0 0 0 0 0 0 0 0 0 0 0 0 0 0 0 0 0 0 0 0 0 0 0 0 0 0 0 0 0 0 0 0 0 0 0 0 0 0 0 0 0 0 0 0 0 0 0 0 0 0 0 0 0 0 0 0 0 0 0 0 0 0 0 0 0 0 0 0 0 0 0 0 0 0 0 0 0 0 0 0 0 0 0 0 0 0 0 0 0 0 0 0 0 0 
0 0 0 0 0 0 0 0 0 0 0 0 0 0 0 0 0 0 0 0 0 0 0 0 0 0 0 0 0 0 0 0 0 0 0 0 0 0 0 0 0 0 0 0 0 0 0 0 0 0 0 0 0 0 0 0 0 0 0 0 0 0 0 0 0 0 0 0 0 0 0 0 0 0 0 0 0 0 0 0 0 0 0 0 0 0 0 0 0 0 0 0 0 0 0 0 0 0 0 0 0 0 0 0 0 0 0 0 0 0 0 0 0 0 0 0 0 0 0 0 0 0 0 0 0 0 0 0 0 0 0 0 0 0 0 0 0 0 0 0 0 0 0 0 0 0 0 0 0 0 0 0 0 0 0 0 0 0 0 0 0 0 0 0 0 0 0 0 0 0 0 0 0 0 0 0 0 0 0 0 
0 0 0 0 0 0 0 0 0 0 0 0 0 0 0 0 0 0 0 0 0 0 0 0 0 0 0 0 0 0 0 0 0 0 0 0 0 0 0 0 0 0 0 0 0 0 0 0 0 0 0 0 0 0 0 0 0 0 0 0 0 0 0 0 0 0 0 0 0 0 0 0 0 0 0 0 0 0 0 0 0 0 0 0 0 0 0 0 0 0 0 0 0 0 0 0 0 0 0 0 0 0 0 0 0 0 0 0 0 0 0 0 0 0 0 0 0 0 0 0 0 0 0 0 0 0 0 0 0 0 0 0 0 0 0 0 0 0 0 0 0 0 0 0 0 0 0 0 0 0 0 0 0 0 0 0 0 0 0 0 0 0 0 0 0 0 0 0 0 0 0 0 0 0 0 0 0 0 0 0 
0 0 0 0 0 0 0 0 0 0 0 0 0 0 0 0 0 0 0 0 0 0 0 0 0 0 0 0 0 0 0 0 0 0 0 0 0 0 0 0 0 0 0 0 0 0 0 0 0 0 0 0 0 0 0 0 0 0 0 0 0 0 0 0 0 0 0 0 0 0 0 0 0 0 0 0 0 0 0 0 0 0 0 0 0 0 0 0 0 0 0 0 0 0 0 0 0 0 0 0 0 0 0 0 0 0 0 0 0 0 0 0 0 0 0 0 0 0 0 0 0 0 0 0 0 0 0 0 0 0 0 0 0 0 0 0 0 0 0 0 0 0 0 0 0 0 0 0 0 0 0 0 0 0 0 0 0 0 0 0 0 0 0 0 0 0 0 0 0 0 0 0 0 0 0 0 0 0 0 0 
0 0 0 0 0 0 0 0 0 0 0 0 0 0 0 0 0 0 0 0 0 0 0 0 0 0 0 0 0 0 1652 0 0 3144 0 0 3189 0 0 3261 0 0 3158 0 0 3173 0 0 3140 0 0 3205 0 0 3094 0 0 3198 0 0 3214 0 0 3230 0 0 3202 0 0 3144 0 0 3079 0 0 3062 0 0 3151 0 0 3166 0 0 3148 0 0 3088 0 0 3139 0 0 3100 0 0 3101 0 0 3210 0 0 3127 0 0 3285 0 0 3130 0 0 3131 0 0 3180 0 0 3214 0 0 3129 0 0 3131 0 0 3155 0 0 3157 0 0 3152 0 0 3146 0 0 3119 0 0 3125 0 0 3101 0 0 3192 0 0 1620 0 0 0 0 0 0 0 0 0 0 0 0 0 0 0 0 0 0 0 0 0 0 0 0 0 0 0 0 0 
0 0 0 0 0 0 0 0 0 0 0 0 0 0 0 0 0 0 0 0 0 0 0 0 0 0 0 0 0 0 3238 0 0 6366 0 0 6305 0 0 6391 0 0 6378 0 0 6308 0 0 6328 0 0 6187 0 0 6520 0 0 6294 0 0 6377 0 0 6288 0 0 6248 0 0 6426 0 0 6312 0 0 6270 0 0 6291 0 0 6298 0 0 6319 0 0 6269 0 0 6349 0 0 6182 0 0 6260 0 0 6505 0 0 6320 0 0 6334 0 0 6288 0 0 6260 0 0 6322 0 0 6423 0 0 6334 0 0 6255 0 0 6369 0 0 6215 0 0 6349 0 0 6250 0 0 6452 0 0 6345 0 0 6330 0 0 6291 0 0 3140 0 0 0 0 0 0 0 0 0 0 0 0 0 0 0 0 0 0 0 0 0 0 0 0 0 0 0 0 0 
0 0 0 0 0 0 0 0 0 0 0 0 0 0 0 0 0 0 0 0 0 0 0 0 0 0 0 0 0 0 3198 0 0 6459 0 0 6340 0 0 6410 0 0 6373 0 0 6337 0 0 6429 0 0 6439 0 0 6284 0 0 6319 0 0 6475 0 0 6164 0 0 6275 0 0 6484 0 0 6335 0 0 6400 0 0 6484 0 0 6373 0 0 6312 0 0 6269 0 0 6483 0 0 6375 0 0 6338 0 0 6385 0 0 6306 0 0 6353 0 0 6402 0 0 6370 0 0 6455 0 0 6288 0 0 6501 0 0 6321 0 0 6310 0 0 6420 0 0 6434 0 0 6183 0 0 6292 0 0 6441 0 0 6298 0 0 6317 0 0 3200 0 0 0 0 0 0 0 0 0 0 0 0 0 0 0 0 0 0 0 0 0 0 0 0 0 0 0 0 0 
0 0 0 0 0 0 0 0 0 0 0 0 0 0 0 0 0 0 0 0 0 0 0 0 0 0 0 0 0 0 3187 0 0 6261 0 0 6383 0 0 6290 0 0 6285 0 0 6498 0 0 6343 0 0 6313 0 0 6297 0 0 6399 0 0 6216 0 0 6477 0 0 6367 0 0 6425 0 0 6427 0 0 6349 0 0 6399 0 0 6486 0 0 6293 0 0 6342 0 0 6360 0 0 6373 0 0 6372 0 0 6368 0 0 6275 0 0 6293 0 0 6192 0 0 6350 0 0 6350 0 0 6217 0 0 6217 0 0 6498 0 0 6300 0 0 6366 0 0 6257 0 0 6270 0 0 6367 0 0 6369 0 0 6292 0 0 6296 0 0 3157 0 0 0 0 0 0 0 0 0 0 0 0 0 0 0 0 0 0 0 0 0 0 0 0 0 0 0 0 0 
0 0 0 0 0 0 0 0 0 0 0 0 0 0 0 0 0 0 0 0 0 0 0 0 0 0 0 0 0 0 3238 0 0 6405 0 0 6409 0 0 6418 0 0 6109 0 0 6387 0 0 6395 0 0 6260 0 0 6415 0 0 6283 0 0 6302 0 0 6285 0 0 6402 0 0 6161 0 0 6246 0 0 6366 0 0 6363 0 0 6445 0 0 6237 0 0 6425 0 0 6403 0 0 6272 0 0 6487 0 0 6159 0 0 6255 0 0 6404 0 0 6480 0 0 6455 0 0 6431 0 0 6263 0 0 6346 0 0 6390 0 0 6156 0 0 6449 0 0 6362 0 0 6395 0 0 6392 0 0 6335 0 0 6215 0 0 6390 0 0 3085 0 0 0 0 0 0 0 0 0 0 0 0 0 0 0 0 0 0 0 0 0 0 0 0 0 0 0 0 0 
0 0 0 0 0 0 0 0 0 0 0 0 0 0 0 0 0 0 0 0 0 0 0 0 0 0 0 0 0 0 3151 0 0 6290 0 0 6321 0 0 6352 0 0 6339 0 0 6351 0 0 6498 0 0 6372 0 0 6310 0 0 6439 0 0 6433 0 0 6394 0 0 6424 0 0 6399 0 0 6359 0 0 6395 0 0 6421 0 0 6357 0 0 6268 0 0 6368 0 0 6318 0 0 6357 0 0 6323 0 0 6268 0 0 6272 0 0 6261 0 0 6209 0 0 6301 0 0 6264 0 0 6330 0 0 6425 0 0 6323 0 0 6357 0 0 6338 0 0 6362 0 0 6315 0 0 6344 0 0 6231 0 0 6412 0 0 6311 0 0 3194 0 0 0 0 0 0 0 0 0 0 0 0 0 0 0 0 0 0 0 0 0 0 0 0 0 0 0 0 0 
0 0 0 0 0 0 0 0 0 0 0 0 0 0 0 0 0 0 0 0 0 0 0 0 0 0 0 0 0 0 3209 0 0 6443 0 0 6388 0 0 6247 0 0 6325 0 0 6364 0 0 6304 0 0 6352 0 0 6281 0 0 6310 0 0 6354 0 0 6378 0 0 6353 0 0 6359 0 0 6308 0 0 6463 0 0 6439 0 0 6270 0 0 6387 0 0 6233 0 0 6301 0 0 6460 0 0 6217 0 0 6311 0 0 6505 0 0 6300 0 0 6412 0 0 6256 0 0 6336 0 0 6416 0 0 6232 0 0 6440 0 0 6371 0 0 6385 0 0 6312 0 0 6304 0 0 6270 0 0 6327 0 0 6384 0 0 6401 0 0 3090 0 0 0 0 0 0 0 0 0 0 0 0 0 0 0 0 0 0 0 0 0 0 0 0 0 0 0 0 0 
0 0 0 0 0 0 0 0 0 0 0 0 0 0 0 0 0 0 0 0 0 0 0 0 0 0 0 0 0 0 3175 0 0 6392 0 0 6239 0 0 6258 0 0 6277 0 0 6402 0 0 6457 0 0 6343 0 0 6092 0 0 6345 0 0 6317 0 0 6254 0 0 6426 0 0 6415 0 0 6336 0 0 6287 0 0 6184 0 0 6317 0 0 6373 0 0 6382 0 0 6321 0 0 6531 0 0 6388 0 0 6504 0 0 6406 0 0 6287 0 0 6323 0 0 6373 0 0 6282 0 0 6371 0 0 6271 0 0 6456 0 0 6488 0 0 6463 0 0 6235 0 0 6330 0 0 6232 0 0 6415 0 0 6394 0 0 6203 0 0 3122 0 0 0 0 0 0 0 0 0 0 0 0 0 0 0 0 0 0 0 0 0 0 0 0 0 0 0 0 0 
0 0 0 0 0 0 0 0 0 0 0 0 0 0 0 0 0 0 0 0 0 0 0 0 0 0 0 0 0 0 3215 0 0 6268 0 0 6333 0 0 6413 0 0 6480 0 0 6420 0 0 6408 0 0 6291 0 0 6408 0 0 6394 0 0 6385 0 0 6242 0 0 6278 0 0 6395 0 0 6302 0 0 6404 0 0 6483 0 0 6453 0 0 6083 0 0 6312 0 0 6494 0 0 6372 0 0 6245 0 0 6323 0 0 6368 0 0 6596 0 0 6255 0 0 6379 0 0 6273 0 0 6342 0 0 6477 0 0 6532 0 0 6471 0 0 6405 0 0 6324 0 0 6467 0 0 6565 0 0 6467 0 0 6427 0 0 6262 0 0 3071 0 0 0 0 0 0 0 0 0 0 0 0 0 0 0 0 0 0 0 0 0 0 0 0 0 0 0 0 0 
0 0 0 0 0 0 0 0 0 0 0 0 0 0 0 0 0 0 0 0 0 0 0 0 0 0 0 0 0 0 3198 0 0 6337 0 0 6414 0 0 6353 0 0 6255 0 0 6383 0 0 6427 0 0 6508 0 0 6458 0 0 6378 0 0 6222 0 0 6318 0 0 6304 0 0 6383 0 0 6250 0 0 6333 0 0 6489 0 0 6474 0 0 6357 0 0 6371 0 0 6366 0 0 6419 0 0 6398 0 0 6422 0 0 6396 0 0 6381 0 0 6284 0 0 6429 0 0 6327 0 0 6394 0 0 6221 0 0 6302 0 0 6252 0 0 6273 0 0 6168 0 0 6472 0 0 6290 0 0 6314 0 0 6405 0 0 6184 0 0 3193 0 0 0 0 0 0 0 0 0 0 0 0 0 0 0 0 0 0 0 0 0 0 0 0 0 0 0 0 0 
0 0 0 0 0 0 0 0 0 0 0 0 0 0 0 0 0 0 0 0 0 0 0 0 0 0 0 0 0 0 3153 0 0 6446 0 0 6473 0 0 6340 0 0 6265 0 0 6209 0 0 6228 0 0 6324 0 0 6406 0 0 6442 0 0 6333 0 0 6418 0 0 6338 0 0 6153 0 0 6436 0 0 6307 0 0 6326 0 0 6391 0 0 6450 0 0 6236 0 0 6315 0 0 6430 0 0 6311 0 0 6439 0 0 6311 0 0 6401 0 0 6422 0 0 6272 0 0 6301 0 0 6365 0 0 6321 0 0 6431 0 0 6270 0 0 6300 0 0 6472 0 0 6460 0 0 6313 0 0 6428 0 0 6292 0 0 6348 0 0 3172 0 0 0 0 0 0 0 0 0 0 0 0 0 0 0 0 0 0 0 0 0 0 0 0 0 0 0 0 0 
0 0 0 0 0 0 0 0 0 0 0 0 0 0 0 0 0 0 0 0 0 0 0 0 0 0 0 0 0 0 3195 0 0 6425 0 0 6320 0 0 6481 0 0 6338 0 0 6234 0 0 6419 0 0 6462 0 0 6318 0 0 6336 0 0 6425 0 0 6354 0 0 6264 0 0 6248 0 0 6374 0 0 6388 0 0 6246 0 0 6256 0 0 6273 0 0 6361 0 0 6267 0 0 6401 0 0 6339 0 0 6511 0 0 6274 0 0 6350 0 0 6371 0 0 6412 0 0 6354 0 0 6351 0 0 6287 0 0 6202 0 0 6298 0 0 6344 0 0 6517 0 0 6230 0 0 6229 0 0 6309 0 0 6394 0 0 6399 0 0 3160 0 0 0 0 0 0 0 0 0 0 0 0 0 0 0 0 0 0 0 0 0 0 0 0 0 0 0 0 0 
0 0 0 0 0 0 0 0 0 0 0 0 0 0 0 0 0 0 0 0 0 0 0 0 0 0 0 0 0 0 3165 0 0 6343 0 0 6241 0 0 6364 0 0 6286 0 0 6220 0 0 6469 0 0 6369 0 0 6376 0 0 6403 0 0 6477 0 0 6252 0 0 6394 0 0 6467 0 0 6183 0 0 6247 0 0 6246 0 0 6326 0 0 6322 0 0 6343 0 0 6345 0 0 6307 0 0 6463 0 0 6413 0 0 6369 0 0 6334 0 0 6306 0 0 6298 0 0 6273 0 0 6286 0 0 6187 0 0 6405 0 0 6364 0 0 6228 0 0 6383 0 0 6358 0 0 6252 0 0 6338 0 0 6243 0 0 6215 0 0 3130 0 0 0 0 0 0 0 0 0 0 0 0 0 0 0 0 0 0 0 0 0 0 0 0 0 0 0 0 0 
0 0 0 0 0 0 0 0 0 0 0 0 0 0 0 0 0 0 0 0 0 0 0 0 0 0 0 0 0 0 3295 0 0 6399 0 0 6262 0 0 6395 0 0 6194 0 0 6323 0 0 6246 0 0 6623 0 0 6404 0 0 6442 0 0 6417 0 0 6300 0 0 6457 0 0 6252 0 0 6241 0 0 6451 0 0 6293 0 0 6358 0 0 6427 0 0 6216 0 0 6226 0 0 6475 0 0 6382 0 0 6302 0 0 6382 0 0 6220 0 0 6414 0 0 6432 0 0 6365 0 0 6393 0 0 6311 0 0 6272 0 0 6289 0 0 6322 0 0 6306 0 0 6321 0 0 6220 0 0 6359 0 0 6381 0 0 6346 0 0 3111 0 0 0 0 0 0 0 0 0 0 0 0 0 0 0 0 0 0 0 0 0 0 0 0 0 0 0 0 0 
0 0 0 0 0 0 0 0 0 0 0 0 0 0 0 0 0 0 0 0 0 0 0 0 0 0 0 0 0 0 3141 0 0 6276 0 0 6355 0 0 6330 0 0 6351 0 0 6468 0 0 6451 0 0 6133 0 0 6235 0 0 6437 0 0 6344 0 0 6188 0 0 6390 0 0 6463 0 0 6473 0 0 6448 0 0 6305 0 0 6330 0 0 6341 0 0 6363 0 0 6492 0 0 6342 0 0 6353 0 0 6203 0 0 6382 0 0 6324 0 0 6418 0 0 6329 0 0 6278 0 0 6312 0 0 6412 0 0 6271 0 0 6350 0 0 6271 0 0 6314 0 0 6406 0 0 6166 0 0 6182 0 0 6378 0 0 6308 0 0 3219 0 0 0 0 0 0 0 0 0 0 0 0 0 0 0 0 0 0 0 0 0 0 0 0 0 0 0 0 0 
0 0 0 0 0 0 0 0 0 0 0 0 0 0 0 0 0 0 0 0 0 0 0 0 0 0 0 0 0 0 3156 0 0 6482 0 0 6304 0 0 6329 0 0 6236 0 0 6178 0 0 6402 0 0 6229 0 0 6414 0 0 6448 0 0 6293 0 0 6496 0 0 6343 0 0 6325 0 0 6389 0 0 6202 0 0 6475 0 0 6319 0 0 6271 0 0 6427 0 0 6208 0 0 6418 0 0 6282 0 0 6274 0 0 6355 0 0 6384 0 0 6196 0 0 6491 0 0 6486 0 0 6182 0 0 6451 0 0 6341 0 0 6361 0 0 6320 0 0 6305 0 0 6297 0 0 6615 0 0 6332 0 0 6362 0 0 6327 0 0 3232 0 0 0 0 0 0 0 0 0 0 0 0 0 0 0 0 0 0 0 0 0 0 0 0 0 0 0 0 0 
0 0 0 0 0 0 0 0 0 0 0 0 0 0 0 0 0 0 0 0 0 0 0 0 0 0 0 0 0 0 3222 0 0 6419 0 0 6287 0 0 6347 0 0 6425 0 0 6302 0 0 6313 0 0 6365 0 0 6240 0 0 6385 0 0 6421 0 0 6249 0 0 6337 0 0 6415 0 0 6284 0 0 6261 0 0 6236 0 0 6331 0 0 6335 0 0 6477 0 0 6435 0 0 6330 0 0 6323 0 0 6470 0 0 6512 0 0 6449 0 0 6561 0 0 6385 0 0 6357 0 0 6243 0 0 6214 0 0 6248 0 0 6321 0 0 6304 0 0 6370 0 0 6295 0 0 6339 0 0 6304 0 0 6407 0 0 6269 0 0 3252 0 0 0 0 0 0 0 0 0 0 0 0 0 0 0 0 0 0 0 0 0 0 0 0 0 0 0 0 0 
0 0 0 0 0 0 0 0 0 0 0 0 0 0 0 0 0 0 0 0 0 0 0 0 0 0 0 0 0 0 3109 0 0 6347 0 0 6423 0 0 6318 0 0 6379 0 0 6469 0 0 6348 0 0 6572 0 0 6258 0 0 6281 0 0 6410 0 0 6313 0 0 6450 0 0 6359 0 0 6422 0 0 6391 0 0 6371 0 0 6435 0 0 6357 0 0 6337 0 0 6390 0 0 6472 0 0 6511 0 0 6360 0 0 6567 0 0 6371 0 0 6397 0 0 6345 0 0 6255 0 0 6351 0 0 6334 0 0 6261 0 0 6378 0 0 6137 0 0 6308 0 0 6473 0 0 6355 0 0 6223 0 0 6380 0 0 6318 0 0 3196 0 0 0 0 0 0 0 0 0 0 0 0 0 0 0 0 0 0 0 0 0 0 0 0 0 0 0 0 0 
0 0 0 0 0 0 0 0 0 0 0 0 0 0 0 0 0 0 0 0 0 0 0 0 0 0 0 0 0 0 3172 0 0 6358 0 0 6352 0 0 6347 0 0 6271 0 0 6423 0 0 6428 0 0 6352 0 0 6408 0 0 6398 0 0 6299 0 0 6427 0 0 6355 0 0 6365 0 0 6457 0 0 6326 0 0 6368 0 0 6343 0 0 6476 0 0 6165 0 0 6307 0 0 6455 0 0 6315 0 0 6428 0 0 6467 0 0 6321 0 0 6269 0 0 6386 0 0 6327 0 0 6401 0 0 6302 0 0 6345 0 0 6363 0 0 6343 0 0 6313 0 0 6399 0 0 6500 0 0 6280 0 0 6287 0 0 6338 0 0 3128 0 0 0 0 0 0 0 0 0 0 0 0 0 0 0 0 0 0 0 0 0 0 0 0 0 0 0 0 0 
0 0 0 0 0 0 0 0 0 0 0 0 0 0 0 0 0 0 0 0 0 0 0 0 0 0 0 0 0 0 3221 0 0 6282 0 0 6329 0 0 6415 0 0 6370 0 0 6450 0 0 6422 0 0 6394 0 0 6335 0 0 6245 0 0 6416 0 0 6331 0 0 6266 0 0 6244 0 0 6305 0 0 6181 0 0 6439 0 0 6401 0 0 6197 0 0 6359 0 0 6354 0 0 6177 0 0 6387 0 0 6310 0 0 6350 0 0 6439 0 0 6296 0 0 6326 0 0 6363 0 0 6299 0 0 6376 0 0 6302 0 0 6437 0 0 6187 0 0 6423 0 0 6372 0 0 6404 0 0 6305 0 0 6412 0 0 6287 0 0 3132 0 0 0 0 0 0 0 0 0 0 0 0 0 0 0 0 0 0 0 0 0 0 0 0 0 0 0 0 0 
0 0 0 0 0 0 0 0 0 0 0 0 0 0 0 0 0 0 0 0 0 0 0 0 0 0 0 0 0 0 3252 0 0 6134 0 0 6264 0 0 6379 0 0 6344 0 0 6266 0 0 6325 0 0 6402 0 0 6512 0 0 6321 0 0 6315 0 0 6273 0 0 6361 0 0 6291 0 0 6351 0 0 6492 0 0 6345 0 0 6381 0 0 6285 0 0 6411 0 0 6266 0 0 6434 0 0 6314 0 0 6414 0 0 6245 0 0 6317 0 0 6385 0 0 6352 0 0 6380 0 0 6303 0 0 6342 0 0 6251 0 0 6496 0 0 6433 0 0 6412 0 0 6214 0 0 6256 0 0 6422 0 0 6414 0 0 6340 0 0 3091 0 0 0 0 0 0 0 0 0 0 0 0 0 0 0 0 0 0 0 0 0 0 0 0 0 0 0 0 0 
0 0 0 0 0 0 0 0 0 0 0 0 0 0 0 0 0 0 0 0 0 0 0 0 0 0 0 0 0 0 3158 0 0 6222 0 0 6426 0 0 6413 0 0 6313 0 0 6322 0 0 6219 0 0 6291 0 0 6413 0 0 6437 0 0 6335 0 0 6369 0 0 6282 0 0 6367 0 0 6263 0 0 6324 0 0 6225 0 0 6379 0 0 6448 0 0 6336 0 0 6334 0 0 6371 0 0 6363 0 0 6444 0 0 6276 0 0 6409 0 0 6347 0 0 6432 0 0 6230 0 0 6370 0 0 6239 0 0 6342 0 0 6359 0 0 6346 0 0 6285 0 0 6437 0 0 6363 0 0 6408 0 0 6294 0 0 6384 0 0 3188 0 0 0 0 0 0 0 0 0 0 0 0 0 0 0 0 0 0 0 0 0 0 0 0 0 0 0 0 0 
0 0 0 0 0 0 0 0 0 0 0 0 0 0 0 0 0 0 0 0 0 0 0 0 0 0 0 0 0 0 3264 0 0 6519 0 0 6371 0 0 6362 0 0 6277 0 0 6303 0 0 6621 0 0 6253 0 0 6373 0 0 6391 0 0 6453 0 0 6399 0 0 6311 0 0 6375 0 0 6344 0 0 6216 0 0 6319 0 0 6420 0 0 6441 0 0 6235 0 0 6249 0 0 6253 0 0 6309 0 0 6459 0 0 6262 0 0 6337 0 0 6435 0 0 6373 0 0 6252 0 0 6366 0 0 6254 0 0 6365 0 0 6361 0 0 6453 0 0 6302 0 0 6336 0 0 6319 0 0 6255 0 0 6432 0 0 6331 0 0 3117 0 0 0 0 0 0 0 0 0 0 0 0 0 0 0 0 0 0 0 0 0 0 0 0 0 0 0 0 0 
0 0 0 0 0 0 0 0 0 0 0 0 0 0 0 0 0 0 0 0 0 0 0 0 0 0 0 0 0 0 3109 0 0 6431 0 0 6443 0 0 6319 0 0 6301 0 0 6415 0 0 6327 0 0 6494 0 0 6308 0 0 6254 0 0 6270 0 0 6133 0 0 6382 0 0 6289 0 0 6163 0 0 6333 0 0 6347 0 0 6438 0 0 6409 0 0 6441 0 0 6358 0 0 6367 0 0 6249 0 0 6247 0 0 6236 0 0 6379 0 0 6557 0 0 6336 0 0 6329 0 0 6479 0 0 6218 0 0 6281 0 0 6255 0 0 6409 0 0 6304 0 0 6486 0 0 6414 0 0 6442 0 0 6340 0 0 6526 0 0 3174 0 0 0 0 0 0 0 0 0 0 0 0 0 0 0 0 0 0 0 0 0 0 0 0 0 0 0 0 0 
0 0 0 0 0 0 0 0 0 0 0 0 0 0 0 0 0 0 0 0 0 0 0 0 0 0 0 0 0 0 3231 0 0 6457 0 0 6335 0 0 6366 0 0 6370 0 0 6222 0 0 6301 0 0 6332 0 0 6338 0 0 6216 0 0 6354 0 0 6325 0 0 6298 0 0 6360 0 0 6317 0 0 6236 0 0 6363 0 0 6344 0 0 6278 0 0 6345 0 0 6192 0 0 6451 0 0 6322 0 0 6357 0 0 6309 0 0 6267 0 0 6415 0 0 6283 0 0 6320 0 0 6401 0 0 6382 0 0 6291 0 0 6312 0 0 6389 0 0 6334 0 0 6310 0 0 6353 0 0 6306 0 0 6306 0 0 6396 0 0 3166 0 0 0 0 0 0 0 0 0 0 0 0 0 0 0 0 0 0 0 0 0 0 0 0 0 0 0 0 0 
0 0 0 0 0 0 0 0 0 0 0 0 0 0 0 0 0 0 0 0 0 0 0 0 0 0 0 0 0 0 3179 0 0 6485 0 0 6544 0 0 6247 0 0 6398 0 0 6286 0 0 6328 0 0 6444 0 0 6464 0 0 6464 0 0 6320 0 0 6331 0 0 6438 0 0 6342 0 0 6300 0 0 6359 0 0 6352 0 0 6399 0 0 6359 0 0 6460 0 0 6292 0 0 6260 0 0 6435 0 0 6339 0 0 6464 0 0 6325 0 0 6286 0 0 6380 0 0 6271 0 0 6390 0 0 6305 0 0 6215 0 0 6330 0 0 6217 0 0 6426 0 0 6362 0 0 6326 0 0 6382 0 0 6390 0 0 6404 0 0 3207 0 0 0 0 0 0 0 0 0 0 0 0 0 0 0 0 0 0 0 0 0 0 0 0 0 0 0 0 0 
0 0 0 0 0 0 0 0 0 0 0 0 0 0 0 0 0 0 0 0 0 0 0 0 0 0 0 0 0 0 3281 0 0 6361 0 0 6218 0 0 6504 0 0 6154 0 0 6447 0 0 6385 0 0 6311 0 0 6366 0 0 6289 0 0 6412 0 0 6270 0 0 6458 0 0 6391 0 0 6372 0 0 6322 0 0 6352 0 0 6414 0 0 6367 0 0 6226 0 0 6322 0 0 6311 0 0 6379 0 0 6430 0 0 6378 0 0 6295 0 0 6208 0 0 6300 0 0 6461 0 0 6310 0 0 6373 0 0 6421 0 0 6386 0 0 6373 0 0 6342 0 0 6317 0 0 6437 0 0 6202 0 0 6389 0 0 6310 0 0 3111 0 0 0 0 0 0 0 0 0 0 0 0 0 0 0 0 0 0 0 0 0 0 0 0 0 0 0 0 0 
0 0 0 0 0 0 0 0 0 0 0 0 0 0 0 0 0 0 0 0 0 0 0 0 0 0 0 0 0 0 3190 0 0 6314 0 0 6286 0 0 6429 0 0 6404 0 0 6452 0 0 6268 0 0 6372 0 0 6496 0 0 6433 0 0 6364 0 0 6418 0 0 6524 0 0 6294 0 0 6250 0 0 6458 0 0 6368 0 0 6368 0 0 6387 0 0 6526 0 0 6340 0 0 6378 0 0 6297 0 0 6359 0 0 6260 0 0 6348 0 0 6317 0 0 6227 0 0 6302 0 0 6362 0 0 6286 0 0 6365 0 0 6325 0 0 6351 0 0 6513 0 0 6321 0 0 6215 0 0 6407 0 0 6456 0 0 6291 0 0 3191 0 0 0 0 0 0 0 0 0 0 0 0 0 0 0 0 0 0 0 0 0 0 0 0 0 0 0 0 0 
0 0 0 0 0 0 0 0 0 0 0 0 0 0 0 0 0 0 0 0 0 0 0 0 0 0 0 0 0 0 3225 0 0 6283 0 0 6416 0 0 6504 0 0 6409 0 0 6267 0 0 6442 0 0 6117 0 0 6277 0 0 6384 0 0 6309 0 0 6418 0 0 6319 0 0 6180 0 0 6268 0 0 6327 0 0 6299 0 0 6374 0 0 6338 0 0 6444 0 0 6250 0 0 6303 0 0 6398 0 0 6269 0 0 6348 0 0 6437 0 0 6313 0 0 6337 0 0 6219 0 0 6339 0 0 6436 0 0 6288 0 0 6274 0 0 6358 0 0 6431 0 0 6207 0 0 6463 0 0 6334 0 0 6393 0 0 6466 0 0 3220 0 0 0 0 0 0 0 0 0 0 0 0 0 0 0 0 0 0 0 0 0 0 0 0 0 0 0 0 0 
0 0 0 0 0 0 0 0 0 0 0 0 0 0 0 0 0 0 0 0 0 0 0 0 0 0 0 0 0 0 3094 0 0 6410 0 0 6339 0 0 6352 0 0 6244 0 0 6279 0 0 6263 0 0 6231 0 0 6357 0 0 6390 0 0 6305 0 0 6386 0 0 6283 0 0 6554 0 0 6332 0 0 6385 0 0 6362 0 0 6360 0 0 6471 0 0 6433 0 0 6369 0 0 6411 0 0 6337 0 0 6420 0 0 6396 0 0 6265 0 0 6387 0 0 6334 0 0 6360 0 0 6335 0 0 6492 0 0 6330 0 0 6456 0 0 6310 0 0 6504 0 0 6345 0 0 6570 0 0 6383 0 0 6278 0 0 6324 0 0 3302 0 0 0 0 0 0 0 0 0 0 0 0 0 0 0 0 0 0 0 0 0 0 0 0 0 0 0 0 0 
0 0 0 0 0 0 0 0 0 0 0 0 0 0 0 0 0 0 0 0 0 0 0 0 0 0 0 0 0 0 3220 0 0 6364 0 0 6387 0 0 6413 0 0 6361 0 0 6353 0 0 6436 0 0 6320 0 0 6448 0 0 6341 0 0 6351 0 0 6344 0 0 6460 0 0 6270 0 0 6314 0 0 6294 0 0 6439 0 0 6439 0 0 6392 0 0 6401 0 0 6444 0 0 6320 0 0 6297 0 0 6394 0 0 6310 0 0 6335 0 0 6363 0 0 6355 0 0 6396 0 0 6466 0 0 6293 0 0 6383 0 0 6296 0 0 6557 0 0 6198 0 0 6153 0 0 6406 0 0 6178 0 0 6351 0 0 6357 0 0 3183 0 0 0 0 0 0 0 0 0 0 0 0 0 0 0 0 0 0 0 0 0 0 0 0 0 0 0 0 0 
0 0 0 0 0 0 0 0 0 0 0 0 0 0 0 0 0 0 0 0 0 0 0 0 0 0 0 0 0 0 3077 0 0 6408 0 0 6334 0 0 6358 0 0 6352 0 0 6326 0 0 6408 0 0 6335 0 0 6383 0 0 6365 0 0 6318 0 0 6482 0 0 6329 0 0 6468 0 0 6330 0 0 6210 0 0 6388 0 0 6327 0 0 6306 0 0 6405 0 0 6192 0 0 6382 0 0 6412 0 0 6444 0 0 6211 0 0 6493 0 0 6304 0 0 6273 0 0 6310 0 0 6200 0 0 6338 0 0 6321 0 0 6415 0 0 6430 0 0 6230 0 0 6336 0 0 6306 0 0 6361 0 0 6462 0 0 6346 0 0 3143 0 0 0 0 0 0 0 0 0 0 0 0 0 0 0 0 0 0 0 0 0 0 0 0 0 0 0 0 0 
0 0 0 0 0 0 0 0 0 0 0 0 0 0 0 0 0 0 0 0 0 0 0 0 0 0 0 0 0 0 3170 0 0 6332 0 0 6331 0 0 6384 0 0 6306 0 0 6169 0 0 6250 0 0 6380 0 0 6382 0 0 6307 0 0 6279 0 0 6458 0 0 6539 0 0 6483 0 0 6180 0 0 6283 0 0 6299 0 0 6298 0 0 6445 0 0 6473 0 0 6378 0 0 6306 0 0 6364 0 0 6182 0 0 6435 0 0 6292 0 0 6340 0 0 6384 0 0 6429 0 0 6385 0 0 6234 0 0 6469 0 0 6398 0 0 6212 0 0 6332 0 0 6500 0 0 6274 0 0 6358 0 0 6254 0 0 6270 0 0 3139 0 0 0 0 0 0 0 0 0 0 0 0 0 0 0 0 0 0 0 0 0 0 0 0 0 0 0 0 0 
0 0 0 0 0 0 0 0 0 0 0 0 0 0 0 0 0 0 0 0 0 0 0 0 0 0 0 0 0 0 3263 0 0 6353 0 0 6339 0 0 6326 0 0 6282 0 0 6335 0 0 6351 0 0 6393 0 0 6345 0 0 6323 0 0 6458 0 0 6436 0 0 6288 0 0 6264 0 0 6273 0 0 6334 0 0 6397 0 0 6407 0 0 6319 0 0 6378 0 0 6359 0 0 6427 0 0 6318 0 0 6313 0 0 6313 0 0 6211 0 0 6376 0 0 6448 0 0 6317 0 0 6326 0 0 6364 0 0 6168 0 0 6330 0 0 6298 0 0 6455 0 0 6265 0 0 6331 0 0 6415 0 0 6352 0 0 6413 0 0 3201 0 0 0 0 0 0 0 0 0 0 0 0 0 0 0 0 0 0 0 0 0 0 0 0 0 0 0 0 0 
0 0 0 0 0 0 0 0 0 0 0 0 0 0 0 0 0 0 0 0 0 0 0 0 0 0 0 0 0 0 3102 0 0 6260 0 0 6282 0 0 6229 0 0 6287 0 0 6442 0 0 6427 0 0 6352 0 0 6267 0 0 6371 0 0 6378 0 0 6331 0 0 6504 0 0 6474 0 0 6323 0 0 6431 0 0 6360 0 0 6471 0 0 6308 0 0 6415 0 0 6261 0 0 6404 0 0 6301 0 0 6391 0 0 6307 0 0 6276 0 0 6342 0 0 6234 0 0 6454 0 0 6357 0 0 6542 0 0 6259 0 0 6434 0 0 6208 0 0 6284 0 0 6278 0 0 6329 0 0 6232 0 0 6246 0 0 6473 0 0 3168 0 0 0 0 0 0 0 0 0 0 0 0 0 0 0 0 0 0 0 0 0 0 0 0 0 0 0 0 0 
0 0 0 0 0 0 0 0 0 0 0 0 0 0 0 0 0 0 0 0 0 0 0 0 0 0 0 0 0 0 3101 0 0 6280 0 0 6419 0 0 6247 0 0 6316 0 0 6231 0 0 6374 0 0 6419 0 0 6317 0 0 6231 0 0 6602 0 0 6503 0 0 6351 0 0 6425 0 0 6298 0 0 6360 0 0 6435 0 0 6292 0 0 6360 0 0 6476 0 0 6396 0 0 6448 0 0 6339 0 0 6365 0 0 6438 0 0 6367 0 0 6360 0 0 6271 0 0 6302 0 0 6299 0 0 6327 0 0 6328 0 0 6289 0 0 6279 0 0 6361 0 0 6464 0 0 6250 0 0 6299 0 0 6263 0 0 6302 0 0 3211 0 0 0 0 0 0 0 0 0 0 0 0 0 0 0 0 0 0 0 0 0 0 0 0 0 0 0 0 0 
0 0 0 0 0 0 0 0 0 0 0 0 0 0 0 0 0 0 0 0 0 0 0 0 0 0 0 0 0 0 3105 0 0 6307 0 0 6302 0 0 6263 0 0 6182 0 0 6370 0 0 6327 0 0 6434 0 0 6430 0 0 6356 0 0 6373 0 0 6353 0 0 6346 0 0 6268 0 0 6356 0 0 6407 0 0 6326 0 0 6231 0 0 6359 0 0 6412 0 0 6261 0 0 6500 0 0 6274 0 0 6290 0 0 6318 0 0 6381 0 0 6414 0 0 6414 0 0 6434 0 0 6283 0 0 6402 0 0 6302 0 0 6303 0 0 6371 0 0 6308 0 0 6428 0 0 6386 0 0 6517 0 0 6378 0 0 6396 0 0 3172 0 0 0 0 0 0 0 0 0 0 0 0 0 0 0 0 0 0 0 0 0 0 0 0 0 0 0 0 0 
0 0 0 0 0 0 0 0 0 0 0 0 0 0 0 0 0 0 0 0 0 0 0 0 0 0 0 0 0 0 3234 0 0 6288 0 0 6433 0 0 6414 0 0 6368 0 0 6352 0 0 6301 0 0 6295 0 0 6321 0 0 6417 0 0 6425 0 0 6255 0 0 6325 0 0 6404 0 0 6414 0 0 6330 0 0 6248 0 0 6289 0 0 6313 0 0 6362 0 0 6355 0 0 6351 0 0 6308 0 0 6361 0 0 6234 0 0 6271 0 0 6381 0 0 6341 0 0 6241 0 0 6442 0 0 6413 0 0 6216 0 0 6360 0 0 6489 0 0 6334 0 0 6426 0 0 6309 0 0 6411 0 0 6296 0 0 6349 0 0 3203 0 0 0 0 0 0 0 0 0 0 0 0 0 0 0 0 0 0 0 0 0 0 0 0 0 0 0 0 0 
0 0 0 0 0 0 0 0 0 0 0 0 0 0 0 0 0 0 0 0 0 0 0 0 0 0 0 0 0 0 3232 0 0 6389 0 0 6345 0 0 6377 0 0 6462 0 0 6227 0 0 6314 0 0 6315 0 0 6299 0 0 6318 0 0 6387 0 0 6436 0 0 6373 0 0 6144 0 0 6381 0 0 6539 0 0 6268 0 0 6276 0 0 6306 0 0 6419 0 0 6479 0 0 6358 0 0 6327 0 0 6459 0 0 6426 0 0 6338 0 0 6369 0 0 6327 0 0 6479 0 0 6236 0 0 6296 0 0 6250 0 0 6290 0 0 6416 0 0 6154 0 0 6237 0 0 6306 0 0 6529 0 0 6538 0 0 6285 0 0 3161 0 0 0 0 0 0 0 0 0 0 0 0 0 0 0 0 0 0 0 0 0 0 0 0 0 0 0 0 0 
0 0 0 0 0 0 0 0 0 0 0 0 0 0 0 0 0 0 0 0 0 0 0 0 0 0 0 0 0 0 3153 0 0 6345 0 0 6272 0 0 6356 0 0 6304 0 0 6311 0 0 6282 0 0 6411 0 0 6334 0 0 6306 0 0 6514 0 0 6448 0 0 6326 0 0 6370 0 0 6374 0 0 6374 0 0 6394 0 0 6345 0 0 6368 0 0 6401 0 0 6320 0 0 6336 0 0 6236 0 0 6411 0 0 6381 0 0 6332 0 0 6221 0 0 6337 0 0 6301 0 0 6349 0 0 6407 0 0 6464 0 0 6344 0 0 6369 0 0 6397 0 0 6309 0 0 6176 0 0 6328 0 0 6365 0 0 6374 0 0 3267 0 0 0 0 0 0 0 0 0 0 0 0 0 0 0 0 0 0 0 0 0 0 0 0 0 0 0 0 0 
0 0 0 0 0 0 0 0 0 0 0 0 0 0 0 0 0 0 0 0 0 0 0 0 0 0 0 0 0 0 1565 0 0 3133 0 0 3122 0 0 3166 0 0 3098 0 0 3194 0 0 3185 0 0 3193 0 0 3268 0 0 3265 0 0 3087 0 0 3129 0 0 3193 0 0 3238 0 0 3124 0 0 3184 0 0 3199 0 0 3103 0 0 3166 0 0 3138 0 0 3226 0 0 3243 0 0 3190 0 0 3190 0 0 3108 0 0 3137 0 0 3227 0 0 3076 0 0 3089 0 0 3086 0 0 3197 0 0 3268 0 0 3209 0 0 3218 0 0 3170 0 0 3164 0 0 3156 0 0 3243 0 0 3181 0 0 3164 0 0 1578 0 0 0 0 0 0 0 0 0 0 0 0 0 0 0 0 0 0 0 0 0 0 0 0 0 0 0 0 0 
0 0 0 0 0 0 0 0 0 0 0 0 0 0 0 0 0 0 0 0 0 0 0 0 0 0 0 0 0 0 0 0 0 0 0 0 0 0 0 0 0 0 0 0 0 0 0 0 0 0 0 0 0 0 0 0 0 0 0 0 0 0 0 0 0 0 0 0 0 0 0 0 0 0 0 0 0 0 0 0 0 0 0 0 0 0 0 0 0 0 0 0 0 0 0 0 0 0 0 0 0 0 0 0 0 0 0 0 0 0 0 0 0 0 0 0 0 0 0 0 0 0 0 0 0 0 0 0 0 0 0 0 0 0 0 0 0 0 0 0 0 0 0 0 0 0 0 0 0 0 0 0 0 0 0 0 0 0 0 0 0 0 0 0 0 0 0 0 0 0 0 0 0 0 0 0 0 0 0 0 
0 0 0 0 0 0 0 0 0 0 0 0 0 0 0 0 0 0 0 0 0 0 0 0 0 0 0 0 0 0 0 0 0 0 0 0 0 0 0 0 0 0 0 0 0 0 0 0 0 0 0 0 0 0 0 0 0 0 0 0 0 0 0 0 0 0 0 0 0 0 0 0 0 0 0 0 0 0 0 0 0 0 0 0 0 0 0 0 0 0 0 0 0 0 0 0 0 0 0 0 0 0 0 0 0 0 0 0 0 0 0 0 0 0 0 0 0 0 0 0 0 0 0 0 0 0 0 0 0 0 0 0 0 0 0 0 0 0 0 0 0 0 0 0 0 0 0 0 0 0 0 0 0 0 0 0 0 0 0 0 0 0 0 0 0 0 0 0 0 0 0 0 0 0 0 0 0 0 0 0 
0 0 0 0 0 0 0 0 0 0 0 0 0 0 0 0 0 0 0 0 0 0 0 0 0 0 0 0 0 0 0 0 0 0 0 0 0 0 0 0 0 0 0 0 0 0 0 0 0 0 0 0 0 0 0 0 0 0 0 0 0 0 0 0 0 0 0 0 0 0 0 0 0 0 0 0 0 0 0 0 0 0 0 0 0 0 0 0 0 0 0 0 0 0 0 0 0 0 0 0 0 0 0 0 0 0 0 0 0 0 0 0 0 0 0 0 0 0 0 0 0 0 0 0 0 0 0 0 0 0 0 0 0 0 0 0 0 0 0 0 0 0 0 0 0 0 0 0 0 0 0 0 0 0 0 0 0 0 0 0 0 0 0 0 0 0 0 0 0 0 0 0 0 0 0 0 0 0 0 0 
0 0 0 0 0 0 0 0 0 0 0 0 0 0 0 0 0 0 0 0 0 0 0 0 0 0 0 0 0 0 0 0 0 0 0 0 0 0 0 0 0 0 0 0 0 0 0 0 0 0 0 0 0 0 0 0 0 0 0 0 0 0 0 0 0 0 0 0 0 0 0 0 0 0 0 0 0 0 0 0 0 0 0 0 0 0 0 0 0 0 0 0 0 0 0 0 0 0 0 0 0 0 0 0 0 0 0 0 0 0 0 0 0 0 0 0 0 0 0 0 0 0 0 0 0 0 0 0 0 0 0 0 0 0 0 0 0 0 0 0 0 0 0 0 0 0 0 0 0 0 0 0 0 0 0 0 0 0 0 0 0 0 0 0 0 0 0 0 0 0 0 0 0 0 0 0 0 0 0 0 
0 0 0 0 0 0 0 0 0 0 0 0 0 0 0 0 0 0 0 0 0 0 0 0 0 0 0 0 0 0 0 0 0 0 0 0 0 0 0 0 0 0 0 0 0 0 0 0 0 0 0 0 0 0 0 0 0 0 0 0 0 0 0 0 0 0 0 0 0 0 0 0 0 0 0 0 0 0 0 0 0 0 0 0 0 0 0 0 0 0 0 0 0 0 0 0 0 0 0 0 0 0 0 0 0 0 0 0 0 0 0 0 0 0 0 0 0 0 0 0 0 0 0 0 0 0 0 0 0 0 0 0 0 0 0 0 0 0 0 0 0 0 0 0 0 0 0 0 0 0 0 0 0 0 0 0 0 0 0 0 0 0 0 0 0 0 0 0 0 0 0 0 0 0 0 0 0 0 0 0 
0 0 0 0 0 0 0 0 0 0 0 0 0 0 0 0 0 0 0 0 0 0 0 0 0 0 0 0 0 0 0 0 0 0 0 0 0 0 0 0 0 0 0 0 0 0 0 0 0 0 0 0 0 0 0 0 0 0 0 0 0 0 0 0 0 0 0 0 0 0 0 0 0 0 0 0 0 0 0 0 0 0 0 0 0 0 0 0 0 0 0 0 0 0 0 0 0 0 0 0 0 0 0 0 0 0 0 0 0 0 0 0 0 0 0 0 0 0 0 0 0 0 0 0 0 0 0 0 0 0 0 0 0 0 0 0 0 0 0 0 0 0 0 0 0 0 0 0 0 0 0 0 0 0 0 0 0 0 0 0 0 0 0 0 0 0 0 0 0 0 0 0 0 0 0 0 0 0 0 0 
0 0 0 0 0 0 0 0 0 0 0 0 0 0 0 0 0 0 0 0 0 0 0 0 0 0 0 0 0 0 0 0 0 0 0 0 0 0 0 0 0 0 0 0 0 0 0 0 0 0 0 0 0 0 0 0 0 0 0 0 0 0 0 0 0 0 0 0 0 0 0 0 0 0 0 0 0 0 0 0 0 0 0 0 0 0 0 0 0 0 0 0 0 0 0 0 0 0 0 0 0 0 0 0 0 0 0 0 0 0 0 0 0 0 0 0 0 0 0 0 0 0 0 0 0 0 0 0 0 0 0 0 0 0 0 0 0 0 0 0 0 0 0 0 0 0 0 0 0 0 0 0 0 0 0 0 0 0 0 0 0 0 0 0 0 0 0 0 0 0 0 0 0 0 0 0 0 0 0 0 
0 0 0 0 0 0 0 0 0 0 0 0 0 0 0 0 0 0 0 0 0 0 0 0 0 0 0 0 0 0 0 0 0 0 0 0 0 0 0 0 0 0 0 0 0 0 0 0 0 0 0 0 0 0 0 0 0 0 0 0 0 0 0 0 0 0 0 0 0 0 0 0 0 0 0 0 0 0 0 0 0 0 0 0 0 0 0 0 0 0 0 0 0 0 0 0 0 0 0 0 0 0 0 0 0 0 0 0 0 0 0 0 0 0 0 0 0 0 0 0 0 0 0 0 0 0 0 0 0 0 0 0 0 0 0 0 0 0 0 0 0 0 0 0 0 0 0 0 0 0 0 0 0 0 0 0 0 0 0 0 0 0 0 0 0 0 0 0 0 0 0 0 0 0 0 0 0 0 0 0 
0 0 0 0 0 0 0 0 0 0 0 0 0 0 0 0 0 0 0 0 0 0 0 0 0 0 0 0 0 0 0 0 0 0 0 0 0 0 0 0 0 0 0 0 0 0 0 0 0 0 0 0 0 0 0 0 0 0 0 0 0 0 0 0 0 0 0 0 0 0 0 0 0 0 0 0 0 0 0 0 0 0 0 0 0 0 0 0 0 0 0 0 0 0 0 0 0 0 0 0 0 0 0 0 0 0 0 0 0 0 0 0 0 0 0 0 0 0 0 0 0 0 0 0 0 0 0 0 0 0 0 0 0 0 0 0 0 0 0 0 0 0 0 0 0 0 0 0 0 0 0 0 0 0 0 0 0 0 0 0 0 0 0 0 0 0 0 0 0 0 0 0 0 0 0 0 0 0 0 0 
