P3
# This is a dose file slice at depth 49 of 100
60 60
# now we give the maximum value of the RGB coordinates.
22407
0 0 0 0 0 0 0 0 0 0 0 0 0 0 0 0 0 0 0 0 0 0 0 0 0 0 0 0 0 0 0 0 0 0 0 0 0 0 0 0 0 0 0 0 0 0 0 0 0 0 0 0 0 0 0 0 0 0 0 0 0 0 0 0 0 0 0 0 0 0 0 0 0 0 0 0 0 0 0 0 0 0 0 0 0 0 0 0 0 0 0 0 0 0 0 0 0 0 0 0 0 0 0 0 0 0 0 0 0 0 0 0 0 0 0 0 0 0 0 0 0 0 0 0 0 0 0 0 0 0 0 0 0 0 0 0 0 0 0 0 0 0 0 0 0 0 0 0 0 0 0 0 0 0 0 0 0 0 0 0 0 0 0 0 0 0 0 0 0 0 0 0 0 0 0 0 0 0 0 0 
0 0 0 0 0 0 0 0 0 0 0 0 0 0 0 0 0 0 0 0 0 0 0 0 0 0 0 0 0 0 0 0 0 0 0 0 0 0 0 0 0 0 0 0 0 0 0 0 0 0 0 0 0 0 0 0 0 0 0 0 0 0 0 0 0 0 0 0 0 0 0 0 0 0 0 0 0 0 0 0 0 0 0 0 0 0 0 0 0 0 0 0 0 0 0 0 0 0 0 0 0 0 0 0 0 0 0 0 0 0 0 0 0 0 0 0 0 0 0 0 0 0 0 0 0 0 0 0 0 0 0 0 0 0 0 0 0 0 0 0 0 0 0 0 0 0 0 0 0 0 0 0 0 0 0 0 0 0 0 0 0 0 0 0 0 0 0 0 0 0 0 0 0 0 0 0 0 0 0 0 
0 0 0 0 0 0 0 0 0 0 0 0 0 0 0 0 0 0 0 0 0 0 0 0 0 0 0 0 0 0 0 0 0 0 0 0 0 0 0 0 0 0 0 0 0 0 0 0 0 0 0 0 0 0 0 0 0 0 0 0 0 0 0 0 0 0 0 0 0 0 0 0 0 0 0 0 0 0 0 0 0 0 0 0 0 0 0 0 0 0 0 0 0 0 0 0 0 0 0 0 0 0 0 0 0 0 0 0 0 0 0 0 0 0 0 0 0 0 0 0 0 0 0 0 0 0 0 0 0 0 0 0 0 0 0 0 0 0 0 0 0 0 0 0 0 0 0 0 0 0 0 0 0 0 0 0 0 0 0 0 0 0 0 0 0 0 0 0 0 0 0 0 0 0 0 0 0 0 0 0 
0 0 0 0 0 0 0 0 0 0 0 0 0 0 0 0 0 0 0 0 0 0 0 0 0 0 0 0 0 0 0 0 0 0 0 0 0 0 0 0 0 0 0 0 0 0 0 0 0 0 0 0 0 0 0 0 0 0 0 0 0 0 0 0 0 0 0 0 0 0 0 0 0 0 0 0 0 0 0 0 0 0 0 0 0 0 0 0 0 0 0 0 0 0 0 0 0 0 0 0 0 0 0 0 0 0 0 0 0 0 0 0 0 0 0 0 0 0 0 0 0 0 0 0 0 0 0 0 0 0 0 0 0 0 0 0 0 0 0 0 0 0 0 0 0 0 0 0 0 0 0 0 0 0 0 0 0 0 0 0 0 0 0 0 0 0 0 0 0 0 0 0 0 0 0 0 0 0 0 0 
0 0 0 0 0 0 0 0 0 0 0 0 0 0 0 0 0 0 0 0 0 0 0 0 0 0 0 0 0 0 0 0 0 0 0 0 0 0 0 0 0 0 0 0 0 0 0 0 0 0 0 0 0 0 0 0 0 0 0 0 0 0 0 0 0 0 0 0 0 0 0 0 0 0 0 0 0 0 0 0 0 0 0 0 0 0 0 0 0 0 0 0 0 0 0 0 0 0 0 0 0 0 0 0 0 0 0 0 0 0 0 0 0 0 0 0 0 0 0 0 0 0 0 0 0 0 0 0 0 0 0 0 0 0 0 0 0 0 0 0 0 0 0 0 0 0 0 0 0 0 0 0 0 0 0 0 0 0 0 0 0 0 0 0 0 0 0 0 0 0 0 0 0 0 0 0 0 0 0 0 
0 0 0 0 0 0 0 0 0 0 0 0 0 0 0 0 0 0 0 0 0 0 0 0 0 0 0 0 0 0 0 0 0 0 0 0 0 0 0 0 0 0 0 0 0 0 0 0 0 0 0 0 0 0 0 0 0 0 0 0 0 0 0 0 0 0 0 0 0 0 0 0 0 0 0 0 0 0 0 0 0 0 0 0 0 0 0 0 0 0 0 0 0 0 0 0 0 0 0 0 0 0 0 0 0 0 0 0 0 0 0 0 0 0 0 0 0 0 0 0 0 0 0 0 0 0 0 0 0 0 0 0 0 0 0 0 0 0 0 0 0 0 0 0 0 0 0 0 0 0 0 0 0 0 0 0 0 0 0 0 0 0 0 0 0 0 0 0 0 0 0 0 0 0 0 0 0 0 0 0 
0 0 0 0 0 0 0 0 0 0 0 0 0 0 0 0 0 0 0 0 0 0 0 0 0 0 0 0 0 0 0 0 0 0 0 0 0 0 0 0 0 0 0 0 0 0 0 0 0 0 0 0 0 0 0 0 0 0 0 0 0 0 0 0 0 0 0 0 0 0 0 0 0 0 0 0 0 0 0 0 0 0 0 0 0 0 0 0 0 0 0 0 0 0 0 0 0 0 0 0 0 0 0 0 0 0 0 0 0 0 0 0 0 0 0 0 0 0 0 0 0 0 0 0 0 0 0 0 0 0 0 0 0 0 0 0 0 0 0 0 0 0 0 0 0 0 0 0 0 0 0 0 0 0 0 0 0 0 0 0 0 0 0 0 0 0 0 0 0 0 0 0 0 0 0 0 0 0 0 0 
0 0 0 0 0 0 0 0 0 0 0 0 0 0 0 0 0 0 0 0 0 0 0 0 0 0 0 0 0 0 0 0 0 0 0 0 0 0 0 0 0 0 0 0 0 0 0 0 0 0 0 0 0 0 0 0 0 0 0 0 0 0 0 0 0 0 0 0 0 0 0 0 0 0 0 0 0 0 0 0 0 0 0 0 0 0 0 0 0 0 0 0 0 0 0 0 0 0 0 0 0 0 0 0 0 0 0 0 0 0 0 0 0 0 0 0 0 0 0 0 0 0 0 0 0 0 0 0 0 0 0 0 0 0 0 0 0 0 0 0 0 0 0 0 0 0 0 0 0 0 0 0 0 0 0 0 0 0 0 0 0 0 0 0 0 0 0 0 0 0 0 0 0 0 0 0 0 0 0 0 
0 0 0 0 0 0 0 0 0 0 0 0 0 0 0 0 0 0 0 0 0 0 0 0 0 0 0 0 0 0 0 0 0 0 0 0 0 0 0 0 0 0 0 0 0 0 0 0 0 0 0 0 0 0 0 0 0 0 0 0 0 0 0 0 0 0 0 0 0 0 0 0 0 0 0 0 0 0 0 0 0 0 0 0 0 0 0 0 0 0 0 0 0 0 0 0 0 0 0 0 0 0 0 0 0 0 0 0 0 0 0 0 0 0 0 0 0 0 0 0 0 0 0 0 0 0 0 0 0 0 0 0 0 0 0 0 0 0 0 0 0 0 0 0 0 0 0 0 0 0 0 0 0 0 0 0 0 0 0 0 0 0 0 0 0 0 0 0 0 0 0 0 0 0 0 0 0 0 0 0 
0 0 0 0 0 0 0 0 0 0 0 0 0 0 0 0 0 0 0 0 0 0 0 0 0 0 0 0 0 0 0 0 0 0 0 0 0 0 0 0 0 0 0 0 0 0 0 0 0 0 0 0 0 0 0 0 0 0 0 0 0 0 0 0 0 0 0 0 0 0 0 0 0 0 0 0 0 0 0 0 0 0 0 0 0 0 0 0 0 0 0 0 0 0 0 0 0 0 0 0 0 0 0 0 0 0 0 0 0 0 0 0 0 0 0 0 0 0 0 0 0 0 0 0 0 0 0 0 0 0 0 0 0 0 0 0 0 0 0 0 0 0 0 0 0 0 0 0 0 0 0 0 0 0 0 0 0 0 0 0 0 0 0 0 0 0 0 0 0 0 0 0 0 0 0 0 0 0 0 0 
0 0 0 0 0 0 0 0 0 0 0 0 0 0 0 0 0 0 0 0 0 0 0 0 0 0 0 0 0 0 1275 0 0 2539 0 0 2658 0 0 2650 0 0 2630 0 0 2668 0 0 2622 0 0 2635 0 0 2533 0 0 2730 0 0 2679 0 0 2597 0 0 2634 0 0 2550 0 0 2621 0 0 2608 0 0 2559 0 0 2616 0 0 2564 0 0 2741 0 0 2584 0 0 2617 0 0 2742 0 0 2538 0 0 2610 0 0 2539 0 0 2495 0 0 2720 0 0 2576 0 0 2500 0 0 2627 0 0 2600 0 0 2569 0 0 2657 0 0 2606 0 0 2611 0 0 2576 0 0 2606 0 0 2628 0 0 2675 0 0 1299 0 0 0 0 0 0 0 0 0 0 0 0 0 0 0 0 0 0 0 0 0 0 0 0 0 0 0 0 0 
0 0 0 0 0 0 0 0 0 0 0 0 0 0 0 0 0 0 0 0 0 0 0 0 0 0 0 0 0 0 2531 0 0 5013 0 0 5175 0 0 5189 0 0 5293 0 0 5215 0 0 5189 0 0 5159 0 0 5228 0 0 5106 0 0 5160 0 0 5216 0 0 5285 0 0 5264 0 0 5101 0 0 5155 0 0 5237 0 0 5071 0 0 5197 0 0 5109 0 0 5286 0 0 5192 0 0 5158 0 0 5249 0 0 5257 0 0 5099 0 0 5129 0 0 5350 0 0 5250 0 0 5259 0 0 5181 0 0 5324 0 0 5154 0 0 5333 0 0 5205 0 0 5313 0 0 5314 0 0 5254 0 0 5144 0 0 5288 0 0 2659 0 0 0 0 0 0 0 0 0 0 0 0 0 0 0 0 0 0 0 0 0 0 0 0 0 0 0 0 0 
0 0 0 0 0 0 0 0 0 0 0 0 0 0 0 0 0 0 0 0 0 0 0 0 0 0 0 0 0 0 2559 0 0 5141 0 0 5293 0 0 5127 0 0 5125 0 0 5135 0 0 5296 0 0 5347 0 0 5190 0 0 5243 0 0 5241 0 0 5296 0 0 5315 0 0 5257 0 0 5193 0 0 5302 0 0 5247 0 0 5225 0 0 5349 0 0 5164 0 0 5293 0 0 5234 0 0 5297 0 0 5242 0 0 5239 0 0 5261 0 0 5211 0 0 5187 0 0 5247 0 0 5303 0 0 5219 0 0 5233 0 0 5219 0 0 5337 0 0 5171 0 0 5274 0 0 5171 0 0 5217 0 0 5207 0 0 5302 0 0 2521 0 0 0 0 0 0 0 0 0 0 0 0 0 0 0 0 0 0 0 0 0 0 0 0 0 0 0 0 0 
0 0 0 0 0 0 0 0 0 0 0 0 0 0 0 0 0 0 0 0 0 0 0 0 0 0 0 0 0 0 2631 0 0 5181 0 0 5232 0 0 5174 0 0 5340 0 0 5268 0 0 5193 0 0 5175 0 0 5148 0 0 5167 0 0 5305 0 0 5268 0 0 5353 0 0 5366 0 0 5225 0 0 5173 0 0 5158 0 0 5216 0 0 5296 0 0 5254 0 0 5178 0 0 5238 0 0 5238 0 0 5164 0 0 5130 0 0 5258 0 0 5233 0 0 5305 0 0 5221 0 0 5126 0 0 5364 0 0 5356 0 0 5119 0 0 5137 0 0 5311 0 0 5112 0 0 5140 0 0 5213 0 0 5414 0 0 5230 0 0 2556 0 0 0 0 0 0 0 0 0 0 0 0 0 0 0 0 0 0 0 0 0 0 0 0 0 0 0 0 0 
0 0 0 0 0 0 0 0 0 0 0 0 0 0 0 0 0 0 0 0 0 0 0 0 0 0 0 0 0 0 2559 0 0 5115 0 0 5118 0 0 5196 0 0 5242 0 0 5206 0 0 5211 0 0 5350 0 0 5321 0 0 5255 0 0 5234 0 0 5286 0 0 5219 0 0 5288 0 0 5105 0 0 5330 0 0 5207 0 0 5258 0 0 5218 0 0 5222 0 0 5185 0 0 5318 0 0 5281 0 0 5095 0 0 5172 0 0 5229 0 0 5111 0 0 5292 0 0 5284 0 0 5169 0 0 5154 0 0 5315 0 0 5184 0 0 5265 0 0 5221 0 0 5233 0 0 5297 0 0 5242 0 0 5163 0 0 5212 0 0 2614 0 0 0 0 0 0 0 0 0 0 0 0 0 0 0 0 0 0 0 0 0 0 0 0 0 0 0 0 0 
0 0 0 0 0 0 0 0 0 0 0 0 0 0 0 0 0 0 0 0 0 0 0 0 0 0 0 0 0 0 2623 0 0 5244 0 0 5167 0 0 5193 0 0 5236 0 0 5219 0 0 5208 0 0 5248 0 0 5085 0 0 5310 0 0 5139 0 0 5193 0 0 5288 0 0 5229 0 0 5171 0 0 5300 0 0 5338 0 0 5171 0 0 5324 0 0 5188 0 0 5171 0 0 5281 0 0 5277 0 0 5265 0 0 5213 0 0 5294 0 0 5325 0 0 5288 0 0 5147 0 0 5195 0 0 5203 0 0 5137 0 0 5267 0 0 5333 0 0 5261 0 0 5296 0 0 5202 0 0 5127 0 0 5187 0 0 5114 0 0 2630 0 0 0 0 0 0 0 0 0 0 0 0 0 0 0 0 0 0 0 0 0 0 0 0 0 0 0 0 0 
0 0 0 0 0 0 0 0 0 0 0 0 0 0 0 0 0 0 0 0 0 0 0 0 0 0 0 0 0 0 2715 0 0 5191 0 0 5292 0 0 5220 0 0 5205 0 0 5190 0 0 5236 0 0 5196 0 0 5188 0 0 5038 0 0 5142 0 0 5204 0 0 5189 0 0 5131 0 0 5338 0 0 5171 0 0 5326 0 0 5156 0 0 5390 0 0 5334 0 0 5220 0 0 5319 0 0 5210 0 0 5268 0 0 5239 0 0 5289 0 0 5291 0 0 5192 0 0 5195 0 0 5215 0 0 5263 0 0 5257 0 0 5357 0 0 5129 0 0 5203 0 0 5168 0 0 5204 0 0 5345 0 0 5080 0 0 5379 0 0 2612 0 0 0 0 0 0 0 0 0 0 0 0 0 0 0 0 0 0 0 0 0 0 0 0 0 0 0 0 0 
0 0 0 0 0 0 0 0 0 0 0 0 0 0 0 0 0 0 0 0 0 0 0 0 0 0 0 0 0 0 2652 0 0 5194 0 0 5280 0 0 5175 0 0 5270 0 0 5375 0 0 5276 0 0 5329 0 0 5257 0 0 5301 0 0 5308 0 0 5305 0 0 5142 0 0 5255 0 0 5324 0 0 5201 0 0 5278 0 0 5148 0 0 5163 0 0 5111 0 0 5286 0 0 5163 0 0 5211 0 0 5254 0 0 5243 0 0 5189 0 0 5294 0 0 5193 0 0 5280 0 0 5163 0 0 5271 0 0 5154 0 0 5206 0 0 5322 0 0 5306 0 0 5163 0 0 5213 0 0 5199 0 0 5252 0 0 5245 0 0 2549 0 0 0 0 0 0 0 0 0 0 0 0 0 0 0 0 0 0 0 0 0 0 0 0 0 0 0 0 0 
0 0 0 0 0 0 0 0 0 0 0 0 0 0 0 0 0 0 0 0 0 0 0 0 0 0 0 0 0 0 2622 0 0 5127 0 0 5182 0 0 5183 0 0 5281 0 0 5235 0 0 5431 0 0 5312 0 0 5248 0 0 5228 0 0 5251 0 0 5307 0 0 5150 0 0 5299 0 0 5244 0 0 5288 0 0 5272 0 0 5169 0 0 5267 0 0 5229 0 0 5132 0 0 5221 0 0 5364 0 0 5198 0 0 5387 0 0 5203 0 0 5222 0 0 5122 0 0 5112 0 0 5181 0 0 5277 0 0 5209 0 0 5302 0 0 5275 0 0 5137 0 0 5205 0 0 5307 0 0 5213 0 0 5183 0 0 5405 0 0 2773 0 0 0 0 0 0 0 0 0 0 0 0 0 0 0 0 0 0 0 0 0 0 0 0 0 0 0 0 0 
0 0 0 0 0 0 0 0 0 0 0 0 0 0 0 0 0 0 0 0 0 0 0 0 0 0 0 0 0 0 2587 0 0 5212 0 0 5243 0 0 5148 0 0 5286 0 0 5284 0 0 5255 0 0 5198 0 0 5212 0 0 5172 0 0 5355 0 0 5209 0 0 5229 0 0 5199 0 0 5172 0 0 5292 0 0 5229 0 0 5321 0 0 5222 0 0 5269 0 0 5298 0 0 5290 0 0 5184 0 0 5343 0 0 5215 0 0 5252 0 0 5218 0 0 5237 0 0 5218 0 0 5277 0 0 5101 0 0 5211 0 0 5162 0 0 5242 0 0 5366 0 0 5286 0 0 5289 0 0 5223 0 0 5237 0 0 5163 0 0 2618 0 0 0 0 0 0 0 0 0 0 0 0 0 0 0 0 0 0 0 0 0 0 0 0 0 0 0 0 0 
0 0 0 0 0 0 0 0 0 0 0 0 0 0 0 0 0 0 0 0 0 0 0 0 0 0 0 0 0 0 2569 0 0 5137 0 0 5279 0 0 5214 0 0 5236 0 0 5154 0 0 5108 0 0 5311 0 0 5238 0 0 5216 0 0 5204 0 0 5187 0 0 5224 0 0 5214 0 0 5185 0 0 5225 0 0 5120 0 0 5181 0 0 5271 0 0 5074 0 0 5151 0 0 5163 0 0 5282 0 0 5303 0 0 5257 0 0 5309 0 0 5084 0 0 5303 0 0 5125 0 0 5214 0 0 5325 0 0 5192 0 0 5256 0 0 5190 0 0 5192 0 0 5273 0 0 5403 0 0 5184 0 0 5148 0 0 5228 0 0 2716 0 0 0 0 0 0 0 0 0 0 0 0 0 0 0 0 0 0 0 0 0 0 0 0 0 0 0 0 0 
0 0 0 0 0 0 0 0 0 0 0 0 0 0 0 0 0 0 0 0 0 0 0 0 0 0 0 0 0 0 2668 0 0 5268 0 0 5280 0 0 5230 0 0 5241 0 0 5190 0 0 5150 0 0 5329 0 0 5388 0 0 5346 0 0 5165 0 0 5247 0 0 5274 0 0 5303 0 0 5250 0 0 5212 0 0 5268 0 0 5267 0 0 5204 0 0 5246 0 0 5164 0 0 5268 0 0 5240 0 0 5304 0 0 5099 0 0 5171 0 0 5190 0 0 5223 0 0 5039 0 0 5230 0 0 5253 0 0 5248 0 0 5286 0 0 5270 0 0 5269 0 0 5157 0 0 5353 0 0 5313 0 0 5232 0 0 5326 0 0 2637 0 0 0 0 0 0 0 0 0 0 0 0 0 0 0 0 0 0 0 0 0 0 0 0 0 0 0 0 0 
0 0 0 0 0 0 0 0 0 0 0 0 0 0 0 0 0 0 0 0 0 0 0 0 0 0 0 0 0 0 2567 0 0 5287 0 0 5260 0 0 5321 0 0 5365 0 0 5060 0 0 5225 0 0 5189 0 0 5186 0 0 5283 0 0 5199 0 0 5200 0 0 5207 0 0 5244 0 0 5177 0 0 5234 0 0 5203 0 0 5242 0 0 5229 0 0 5173 0 0 5425 0 0 5150 0 0 5234 0 0 5356 0 0 5217 0 0 5324 0 0 5226 0 0 5275 0 0 5226 0 0 5200 0 0 5231 0 0 5212 0 0 5152 0 0 5338 0 0 5261 0 0 5129 0 0 5162 0 0 5101 0 0 5155 0 0 5215 0 0 2597 0 0 0 0 0 0 0 0 0 0 0 0 0 0 0 0 0 0 0 0 0 0 0 0 0 0 0 0 0 
0 0 0 0 0 0 0 0 0 0 0 0 0 0 0 0 0 0 0 0 0 0 0 0 0 0 0 0 0 0 2602 0 0 5283 0 0 5201 0 0 5260 0 0 5287 0 0 5165 0 0 5283 0 0 5363 0 0 5264 0 0 5148 0 0 5346 0 0 5344 0 0 5230 0 0 5279 0 0 5179 0 0 5214 0 0 5311 0 0 5159 0 0 5181 0 0 5206 0 0 5210 0 0 5184 0 0 5205 0 0 5197 0 0 5018 0 0 5191 0 0 5173 0 0 5321 0 0 5288 0 0 5269 0 0 5341 0 0 5242 0 0 5165 0 0 5230 0 0 5246 0 0 5207 0 0 5209 0 0 5375 0 0 5262 0 0 5293 0 0 2530 0 0 0 0 0 0 0 0 0 0 0 0 0 0 0 0 0 0 0 0 0 0 0 0 0 0 0 0 0 
0 0 0 0 0 0 0 0 0 0 0 0 0 0 0 0 0 0 0 0 0 0 0 0 0 0 0 0 0 0 2628 0 0 5254 0 0 5277 0 0 5234 0 0 5322 0 0 5246 0 0 5359 0 0 5273 0 0 5240 0 0 5131 0 0 5189 0 0 5249 0 0 5271 0 0 5175 0 0 5277 0 0 5233 0 0 5255 0 0 5230 0 0 5178 0 0 5348 0 0 5195 0 0 5129 0 0 5161 0 0 5079 0 0 5172 0 0 5113 0 0 5109 0 0 5345 0 0 5138 0 0 5154 0 0 5200 0 0 5231 0 0 5310 0 0 5353 0 0 5242 0 0 5189 0 0 5294 0 0 5320 0 0 5235 0 0 5211 0 0 2629 0 0 0 0 0 0 0 0 0 0 0 0 0 0 0 0 0 0 0 0 0 0 0 0 0 0 0 0 0 
0 0 0 0 0 0 0 0 0 0 0 0 0 0 0 0 0 0 0 0 0 0 0 0 0 0 0 0 0 0 2663 0 0 5288 0 0 5177 0 0 5154 0 0 5256 0 0 5156 0 0 5234 0 0 5201 0 0 5103 0 0 5211 0 0 5125 0 0 5263 0 0 5087 0 0 5071 0 0 5220 0 0 5283 0 0 5289 0 0 5154 0 0 5150 0 0 5261 0 0 5198 0 0 5247 0 0 5302 0 0 5239 0 0 5182 0 0 5281 0 0 5204 0 0 5113 0 0 5211 0 0 5148 0 0 5257 0 0 5229 0 0 5315 0 0 5201 0 0 5286 0 0 5321 0 0 5269 0 0 5112 0 0 5079 0 0 5191 0 0 2575 0 0 0 0 0 0 0 0 0 0 0 0 0 0 0 0 0 0 0 0 0 0 0 0 0 0 0 0 0 
0 0 0 0 0 0 0 0 0 0 0 0 0 0 0 0 0 0 0 0 0 0 0 0 0 0 0 0 0 0 2609 0 0 5351 0 0 5228 0 0 5141 0 0 5245 0 0 5371 0 0 5132 0 0 5292 0 0 5268 0 0 5338 0 0 5143 0 0 5284 0 0 5189 0 0 5195 0 0 5300 0 0 5361 0 0 5240 0 0 5184 0 0 5186 0 0 5269 0 0 5276 0 0 5321 0 0 5246 0 0 5292 0 0 5202 0 0 5136 0 0 5108 0 0 4992 0 0 5326 0 0 5289 0 0 5211 0 0 5092 0 0 5266 0 0 5247 0 0 5268 0 0 5274 0 0 5158 0 0 5188 0 0 5148 0 0 5202 0 0 2567 0 0 0 0 0 0 0 0 0 0 0 0 0 0 0 0 0 0 0 0 0 0 0 0 0 0 0 0 0 
0 0 0 0 0 0 0 0 0 0 0 0 0 0 0 0 0 0 0 0 0 0 0 0 0 0 0 0 0 0 2694 0 0 5184 0 0 5288 0 0 5255 0 0 5173 0 0 5221 0 0 5205 0 0 5216 0 0 5219 0 0 5243 0 0 5223 0 0 5198 0 0 5250 0 0 5079 0 0 5189 0 0 5180 0 0 5385 0 0 5225 0 0 5159 0 0 5266 0 0 5200 0 0 5229 0 0 5303 0 0 5223 0 0 5331 0 0 5107 0 0 5095 0 0 5345 0 0 5202 0 0 5399 0 0 5230 0 0 5319 0 0 5148 0 0 5161 0 0 5225 0 0 5318 0 0 5225 0 0 5340 0 0 5256 0 0 5344 0 0 2613 0 0 0 0 0 0 0 0 0 0 0 0 0 0 0 0 0 0 0 0 0 0 0 0 0 0 0 0 0 
0 0 0 0 0 0 0 0 0 0 0 0 0 0 0 0 0 0 0 0 0 0 0 0 0 0 0 0 0 0 2585 0 0 5366 0 0 5224 0 0 5263 0 0 5230 0 0 5188 0 0 5305 0 0 5231 0 0 5291 0 0 5210 0 0 5245 0 0 5286 0 0 5128 0 0 5198 0 0 5161 0 0 5241 0 0 5274 0 0 5197 0 0 5338 0 0 5318 0 0 5233 0 0 5110 0 0 5220 0 0 5251 0 0 5246 0 0 5411 0 0 5311 0 0 5162 0 0 5260 0 0 5112 0 0 5251 0 0 5343 0 0 5167 0 0 5358 0 0 5252 0 0 5312 0 0 5203 0 0 5243 0 0 5299 0 0 5221 0 0 2647 0 0 0 0 0 0 0 0 0 0 0 0 0 0 0 0 0 0 0 0 0 0 0 0 0 0 0 0 0 
0 0 0 0 0 0 0 0 0 0 0 0 0 0 0 0 0 0 0 0 0 0 0 0 0 0 0 0 0 0 2555 0 0 5141 0 0 5253 0 0 5263 0 0 5097 0 0 5086 0 0 5216 0 0 5334 0 0 5273 0 0 5263 0 0 5303 0 0 5341 0 0 5195 0 0 5177 0 0 5332 0 0 5275 0 0 5171 0 0 5242 0 0 5268 0 0 5219 0 0 5342 0 0 5144 0 0 5143 0 0 5170 0 0 5237 0 0 5131 0 0 5209 0 0 5089 0 0 5180 0 0 5301 0 0 5339 0 0 5295 0 0 5303 0 0 5234 0 0 5131 0 0 5180 0 0 5248 0 0 5096 0 0 5215 0 0 5229 0 0 2591 0 0 0 0 0 0 0 0 0 0 0 0 0 0 0 0 0 0 0 0 0 0 0 0 0 0 0 0 0 
0 0 0 0 0 0 0 0 0 0 0 0 0 0 0 0 0 0 0 0 0 0 0 0 0 0 0 0 0 0 2623 0 0 5280 0 0 5278 0 0 5212 0 0 5287 0 0 5231 0 0 5213 0 0 5267 0 0 5140 0 0 5135 0 0 5254 0 0 5287 0 0 5297 0 0 5240 0 0 5102 0 0 5253 0 0 5194 0 0 5342 0 0 5294 0 0 5370 0 0 5285 0 0 5236 0 0 5254 0 0 5339 0 0 5207 0 0 5271 0 0 5103 0 0 5150 0 0 5112 0 0 5148 0 0 5322 0 0 5199 0 0 5228 0 0 5238 0 0 5263 0 0 5234 0 0 5290 0 0 5272 0 0 5140 0 0 5212 0 0 2650 0 0 0 0 0 0 0 0 0 0 0 0 0 0 0 0 0 0 0 0 0 0 0 0 0 0 0 0 0 
0 0 0 0 0 0 0 0 0 0 0 0 0 0 0 0 0 0 0 0 0 0 0 0 0 0 0 0 0 0 2594 0 0 5190 0 0 5157 0 0 5198 0 0 5381 0 0 5140 0 0 5262 0 0 5252 0 0 5245 0 0 5271 0 0 5262 0 0 5222 0 0 5244 0 0 5236 0 0 5180 0 0 5254 0 0 5234 0 0 5213 0 0 5320 0 0 5303 0 0 5193 0 0 5236 0 0 5197 0 0 5249 0 0 5255 0 0 5316 0 0 5376 0 0 5284 0 0 5406 0 0 5198 0 0 5174 0 0 5210 0 0 5263 0 0 5190 0 0 5269 0 0 5218 0 0 5311 0 0 5377 0 0 5165 0 0 5171 0 0 2611 0 0 0 0 0 0 0 0 0 0 0 0 0 0 0 0 0 0 0 0 0 0 0 0 0 0 0 0 0 
0 0 0 0 0 0 0 0 0 0 0 0 0 0 0 0 0 0 0 0 0 0 0 0 0 0 0 0 0 0 2596 0 0 5312 0 0 5430 0 0 5180 0 0 5222 0 0 5313 0 0 5332 0 0 5237 0 0 5247 0 0 5162 0 0 5198 0 0 5278 0 0 5419 0 0 5248 0 0 5224 0 0 5209 0 0 5354 0 0 5193 0 0 5239 0 0 5130 0 0 5155 0 0 5433 0 0 5210 0 0 5082 0 0 5281 0 0 5254 0 0 5177 0 0 5222 0 0 5191 0 0 5339 0 0 5244 0 0 5241 0 0 5064 0 0 5233 0 0 5229 0 0 5157 0 0 5248 0 0 5005 0 0 5226 0 0 5210 0 0 2560 0 0 0 0 0 0 0 0 0 0 0 0 0 0 0 0 0 0 0 0 0 0 0 0 0 0 0 0 0 
0 0 0 0 0 0 0 0 0 0 0 0 0 0 0 0 0 0 0 0 0 0 0 0 0 0 0 0 0 0 2536 0 0 5142 0 0 5254 0 0 5428 0 0 5253 0 0 5273 0 0 5217 0 0 5266 0 0 5235 0 0 5330 0 0 5131 0 0 5228 0 0 5276 0 0 5251 0 0 5226 0 0 5300 0 0 5295 0 0 5240 0 0 5213 0 0 4955 0 0 5150 0 0 5182 0 0 5198 0 0 5157 0 0 5245 0 0 5194 0 0 5276 0 0 5131 0 0 5150 0 0 5219 0 0 5276 0 0 5231 0 0 5338 0 0 5233 0 0 5258 0 0 5270 0 0 5291 0 0 5196 0 0 5329 0 0 5173 0 0 2634 0 0 0 0 0 0 0 0 0 0 0 0 0 0 0 0 0 0 0 0 0 0 0 0 0 0 0 0 0 
0 0 0 0 0 0 0 0 0 0 0 0 0 0 0 0 0 0 0 0 0 0 0 0 0 0 0 0 0 0 2647 0 0 4977 0 0 5242 0 0 5243 0 0 5182 0 0 5176 0 0 5286 0 0 5051 0 0 5356 0 0 5206 0 0 5155 0 0 5279 0 0 5371 0 0 5148 0 0 5132 0 0 5164 0 0 5303 0 0 5255 0 0 5207 0 0 5188 0 0 5235 0 0 5211 0 0 5261 0 0 5303 0 0 5257 0 0 5113 0 0 5224 0 0 5091 0 0 5161 0 0 5276 0 0 5380 0 0 5181 0 0 5276 0 0 5306 0 0 5171 0 0 5108 0 0 5378 0 0 5338 0 0 5213 0 0 5160 0 0 2576 0 0 0 0 0 0 0 0 0 0 0 0 0 0 0 0 0 0 0 0 0 0 0 0 0 0 0 0 0 
0 0 0 0 0 0 0 0 0 0 0 0 0 0 0 0 0 0 0 0 0 0 0 0 0 0 0 0 0 0 2594 0 0 5203 0 0 5371 0 0 5179 0 0 5365 0 0 5239 0 0 5186 0 0 5180 0 0 5162 0 0 5182 0 0 5223 0 0 5259 0 0 5173 0 0 5321 0 0 5143 0 0 5299 0 0 5094 0 0 5273 0 0 5355 0 0 5029 0 0 5154 0 0 5166 0 0 5255 0 0 5246 0 0 5230 0 0 5259 0 0 5375 0 0 5280 0 0 5302 0 0 5288 0 0 5157 0 0 5157 0 0 5219 0 0 5184 0 0 5171 0 0 5210 0 0 5250 0 0 5275 0 0 5168 0 0 5227 0 0 2653 0 0 0 0 0 0 0 0 0 0 0 0 0 0 0 0 0 0 0 0 0 0 0 0 0 0 0 0 0 
0 0 0 0 0 0 0 0 0 0 0 0 0 0 0 0 0 0 0 0 0 0 0 0 0 0 0 0 0 0 2653 0 0 5157 0 0 5331 0 0 5312 0 0 5325 0 0 5109 0 0 5244 0 0 5152 0 0 5289 0 0 5063 0 0 5228 0 0 5260 0 0 5179 0 0 5452 0 0 5272 0 0 5101 0 0 5240 0 0 5214 0 0 5277 0 0 5134 0 0 5100 0 0 5266 0 0 5163 0 0 5223 0 0 5229 0 0 5249 0 0 5264 0 0 5178 0 0 5234 0 0 5325 0 0 5147 0 0 5191 0 0 5314 0 0 5293 0 0 5298 0 0 5206 0 0 5301 0 0 5208 0 0 5166 0 0 5361 0 0 2531 0 0 0 0 0 0 0 0 0 0 0 0 0 0 0 0 0 0 0 0 0 0 0 0 0 0 0 0 0 
0 0 0 0 0 0 0 0 0 0 0 0 0 0 0 0 0 0 0 0 0 0 0 0 0 0 0 0 0 0 2576 0 0 5270 0 0 5345 0 0 5267 0 0 5287 0 0 5262 0 0 5192 0 0 5226 0 0 5306 0 0 5290 0 0 5225 0 0 5227 0 0 5167 0 0 5232 0 0 5320 0 0 5116 0 0 5121 0 0 5299 0 0 5210 0 0 5147 0 0 5214 0 0 5255 0 0 5349 0 0 5268 0 0 5327 0 0 5332 0 0 5109 0 0 5195 0 0 5272 0 0 5276 0 0 5259 0 0 5163 0 0 5229 0 0 5279 0 0 5184 0 0 5274 0 0 5203 0 0 5262 0 0 5234 0 0 5142 0 0 2639 0 0 0 0 0 0 0 0 0 0 0 0 0 0 0 0 0 0 0 0 0 0 0 0 0 0 0 0 0 
0 0 0 0 0 0 0 0 0 0 0 0 0 0 0 0 0 0 0 0 0 0 0 0 0 0 0 0 0 0 2598 0 0 5325 0 0 5114 0 0 5065 0 0 5223 0 0 5324 0 0 5212 0 0 5135 0 0 5171 0 0 5292 0 0 5231 0 0 5300 0 0 5219 0 0 5127 0 0 5182 0 0 5162 0 0 5332 0 0 5269 0 0 5205 0 0 5279 0 0 5081 0 0 5234 0 0 5193 0 0 5171 0 0 5272 0 0 5281 0 0 5201 0 0 5191 0 0 5232 0 0 5331 0 0 5250 0 0 5233 0 0 5184 0 0 5252 0 0 5125 0 0 5310 0 0 5245 0 0 5249 0 0 5366 0 0 5203 0 0 2592 0 0 0 0 0 0 0 0 0 0 0 0 0 0 0 0 0 0 0 0 0 0 0 0 0 0 0 0 0 
0 0 0 0 0 0 0 0 0 0 0 0 0 0 0 0 0 0 0 0 0 0 0 0 0 0 0 0 0 0 2566 0 0 5104 0 0 5283 0 0 5211 0 0 5355 0 0 5295 0 0 5246 0 0 5247 0 0 5333 0 0 5164 0 0 5313 0 0 5167 0 0 5238 0 0 5168 0 0 5257 0 0 5217 0 0 5204 0 0 5286 0 0 5401 0 0 5261 0 0 5181 0 0 5127 0 0 5314 0 0 5200 0 0 5178 0 0 5025 0 0 5165 0 0 5225 0 0 5211 0 0 5162 0 0 5310 0 0 5364 0 0 5301 0 0 5281 0 0 5204 0 0 5330 0 0 5226 0 0 5192 0 0 5328 0 0 5311 0 0 2584 0 0 0 0 0 0 0 0 0 0 0 0 0 0 0 0 0 0 0 0 0 0 0 0 0 0 0 0 0 
0 0 0 0 0 0 0 0 0 0 0 0 0 0 0 0 0 0 0 0 0 0 0 0 0 0 0 0 0 0 2625 0 0 5176 0 0 5224 0 0 5220 0 0 5191 0 0 5182 0 0 5151 0 0 5142 0 0 5237 0 0 5174 0 0 5290 0 0 5289 0 0 5236 0 0 5175 0 0 5217 0 0 5340 0 0 5240 0 0 5146 0 0 5281 0 0 5223 0 0 5189 0 0 5373 0 0 5288 0 0 5140 0 0 5251 0 0 5272 0 0 5227 0 0 5271 0 0 5300 0 0 5273 0 0 5181 0 0 5248 0 0 5117 0 0 5195 0 0 5196 0 0 5227 0 0 5262 0 0 5294 0 0 5319 0 0 5217 0 0 2689 0 0 0 0 0 0 0 0 0 0 0 0 0 0 0 0 0 0 0 0 0 0 0 0 0 0 0 0 0 
0 0 0 0 0 0 0 0 0 0 0 0 0 0 0 0 0 0 0 0 0 0 0 0 0 0 0 0 0 0 2615 0 0 5157 0 0 5188 0 0 5285 0 0 5049 0 0 5211 0 0 5221 0 0 5260 0 0 5345 0 0 5256 0 0 5253 0 0 5340 0 0 5153 0 0 5250 0 0 5203 0 0 5289 0 0 5226 0 0 5266 0 0 5132 0 0 5215 0 0 5200 0 0 5307 0 0 5191 0 0 5048 0 0 5253 0 0 5214 0 0 5210 0 0 5242 0 0 5191 0 0 5130 0 0 5225 0 0 5178 0 0 5250 0 0 5306 0 0 5314 0 0 5351 0 0 5144 0 0 5256 0 0 5304 0 0 5237 0 0 2635 0 0 0 0 0 0 0 0 0 0 0 0 0 0 0 0 0 0 0 0 0 0 0 0 0 0 0 0 0 
0 0 0 0 0 0 0 0 0 0 0 0 0 0 0 0 0 0 0 0 0 0 0 0 0 0 0 0 0 0 2626 0 0 5215 0 0 5174 0 0 5262 0 0 5119 0 0 5272 0 0 5235 0 0 5415 0 0 5185 0 0 5077 0 0 5244 0 0 5292 0 0 5222 0 0 5157 0 0 5198 0 0 5228 0 0 5307 0 0 5308 0 0 5290 0 0 5281 0 0 5257 0 0 5246 0 0 5101 0 0 5274 0 0 5091 0 0 5208 0 0 5218 0 0 5363 0 0 5311 0 0 5263 0 0 5203 0 0 5246 0 0 5188 0 0 5265 0 0 5272 0 0 5324 0 0 5325 0 0 5243 0 0 5352 0 0 5167 0 0 2682 0 0 0 0 0 0 0 0 0 0 0 0 0 0 0 0 0 0 0 0 0 0 0 0 0 0 0 0 0 
0 0 0 0 0 0 0 0 0 0 0 0 0 0 0 0 0 0 0 0 0 0 0 0 0 0 0 0 0 0 2635 0 0 5300 0 0 5209 0 0 5153 0 0 5237 0 0 5134 0 0 5214 0 0 5191 0 0 5410 0 0 5366 0 0 5149 0 0 5164 0 0 5193 0 0 5324 0 0 5267 0 0 5292 0 0 5337 0 0 5256 0 0 5383 0 0 5058 0 0 5201 0 0 5312 0 0 5318 0 0 5117 0 0 5289 0 0 5300 0 0 5221 0 0 5400 0 0 5227 0 0 5184 0 0 5172 0 0 5220 0 0 5199 0 0 5150 0 0 5205 0 0 5271 0 0 5133 0 0 5305 0 0 5276 0 0 5277 0 0 2498 0 0 0 0 0 0 0 0 0 0 0 0 0 0 0 0 0 0 0 0 0 0 0 0 0 0 0 0 0 
0 0 0 0 0 0 0 0 0 0 0 0 0 0 0 0 0 0 0 0 0 0 0 0 0 0 0 0 0 0 2709 0 0 5225 0 0 5163 0 0 5206 0 0 5138 0 0 5329 0 0 5163 0 0 5176 0 0 5321 0 0 5297 0 0 5201 0 0 5272 0 0 5066 0 0 5285 0 0 5229 0 0 5210 0 0 5237 0 0 5215 0 0 5284 0 0 5243 0 0 5281 0 0 5200 0 0 5227 0 0 5233 0 0 5290 0 0 5113 0 0 5223 0 0 5177 0 0 5318 0 0 5238 0 0 5133 0 0 5203 0 0 5295 0 0 5237 0 0 5140 0 0 5163 0 0 5110 0 0 5215 0 0 5278 0 0 5247 0 0 2639 0 0 0 0 0 0 0 0 0 0 0 0 0 0 0 0 0 0 0 0 0 0 0 0 0 0 0 0 0 
0 0 0 0 0 0 0 0 0 0 0 0 0 0 0 0 0 0 0 0 0 0 0 0 0 0 0 0 0 0 2608 0 0 5340 0 0 5317 0 0 5170 0 0 5167 0 0 5192 0 0 5164 0 0 5188 0 0 5371 0 0 5364 0 0 5373 0 0 5275 0 0 5215 0 0 5176 0 0 5178 0 0 5233 0 0 5036 0 0 5273 0 0 5237 0 0 5269 0 0 5315 0 0 5230 0 0 5238 0 0 5221 0 0 5248 0 0 5213 0 0 5302 0 0 5236 0 0 5182 0 0 5169 0 0 5217 0 0 5348 0 0 5120 0 0 5187 0 0 5139 0 0 5229 0 0 5172 0 0 5164 0 0 5127 0 0 5297 0 0 2583 0 0 0 0 0 0 0 0 0 0 0 0 0 0 0 0 0 0 0 0 0 0 0 0 0 0 0 0 0 
0 0 0 0 0 0 0 0 0 0 0 0 0 0 0 0 0 0 0 0 0 0 0 0 0 0 0 0 0 0 2558 0 0 5095 0 0 5147 0 0 5220 0 0 5313 0 0 5157 0 0 5190 0 0 5201 0 0 5210 0 0 5184 0 0 5273 0 0 5171 0 0 5315 0 0 5331 0 0 5216 0 0 5210 0 0 5237 0 0 5333 0 0 5161 0 0 5220 0 0 5318 0 0 5337 0 0 5243 0 0 5213 0 0 5138 0 0 5120 0 0 5296 0 0 5181 0 0 5155 0 0 5342 0 0 5266 0 0 5242 0 0 5340 0 0 5275 0 0 5265 0 0 5236 0 0 5163 0 0 5382 0 0 5137 0 0 5185 0 0 2577 0 0 0 0 0 0 0 0 0 0 0 0 0 0 0 0 0 0 0 0 0 0 0 0 0 0 0 0 0 
0 0 0 0 0 0 0 0 0 0 0 0 0 0 0 0 0 0 0 0 0 0 0 0 0 0 0 0 0 0 2654 0 0 5393 0 0 5241 0 0 5150 0 0 5286 0 0 5255 0 0 5135 0 0 5162 0 0 5300 0 0 5259 0 0 5156 0 0 5139 0 0 5083 0 0 5241 0 0 5364 0 0 5286 0 0 5229 0 0 5176 0 0 5235 0 0 5233 0 0 5176 0 0 5342 0 0 5145 0 0 5201 0 0 5210 0 0 5205 0 0 5236 0 0 5318 0 0 5327 0 0 5276 0 0 5236 0 0 5283 0 0 5117 0 0 5316 0 0 5263 0 0 5235 0 0 5269 0 0 5197 0 0 5079 0 0 5222 0 0 2574 0 0 0 0 0 0 0 0 0 0 0 0 0 0 0 0 0 0 0 0 0 0 0 0 0 0 0 0 0 
0 0 0 0 0 0 0 0 0 0 0 0 0 0 0 0 0 0 0 0 0 0 0 0 0 0 0 0 0 0 2640 0 0 5182 0 0 5126 0 0 5213 0 0 5006 0 0 5271 0 0 5191 0 0 5046 0 0 5223 0 0 5228 0 0 5215 0 0 5203 0 0 5284 0 0 5263 0 0 5263 0 0 5145 0 0 5146 0 0 5145 0 0 5180 0 0 5151 0 0 5197 0 0 5298 0 0 5156 0 0 5285 0 0 5211 0 0 5248 0 0 5176 0 0 5194 0 0 5215 0 0 5194 0 0 5220 0 0 5402 0 0 5142 0 0 5207 0 0 5235 0 0 5243 0 0 5292 0 0 5367 0 0 5357 0 0 5281 0 0 2632 0 0 0 0 0 0 0 0 0 0 0 0 0 0 0 0 0 0 0 0 0 0 0 0 0 0 0 0 0 
0 0 0 0 0 0 0 0 0 0 0 0 0 0 0 0 0 0 0 0 0 0 0 0 0 0 0 0 0 0 2637 0 0 5323 0 0 5196 0 0 5207 0 0 5100 0 0 5304 0 0 5358 0 0 5208 0 0 5349 0 0 5293 0 0 5231 0 0 5340 0 0 5218 0 0 5191 0 0 5256 0 0 5131 0 0 5236 0 0 5255 0 0 5221 0 0 5179 0 0 5267 0 0 5223 0 0 5333 0 0 5152 0 0 5124 0 0 5179 0 0 5178 0 0 5108 0 0 5301 0 0 5176 0 0 5084 0 0 5204 0 0 5158 0 0 5076 0 0 5248 0 0 5259 0 0 5308 0 0 5246 0 0 5308 0 0 5201 0 0 2674 0 0 0 0 0 0 0 0 0 0 0 0 0 0 0 0 0 0 0 0 0 0 0 0 0 0 0 0 0 
0 0 0 0 0 0 0 0 0 0 0 0 0 0 0 0 0 0 0 0 0 0 0 0 0 0 0 0 0 0 1345 0 0 2567 0 0 2671 0 0 2591 0 0 2572 0 0 2580 0 0 2496 0 0 2586 0 0 2499 0 0 2619 0 0 2601 0 0 2620 0 0 2558 0 0 2649 0 0 2711 0 0 2570 0 0 2574 0 0 2676 0 0 2549 0 0 2628 0 0 2623 0 0 2503 0 0 2574 0 0 2577 0 0 2644 0 0 2608 0 0 2613 0 0 2569 0 0 2607 0 0 2577 0 0 2637 0 0 2581 0 0 2550 0 0 2629 0 0 2633 0 0 2663 0 0 2560 0 0 2608 0 0 2569 0 0 2614 0 0 1372 0 0 0 0 0 0 0 0 0 0 0 0 0 0 0 0 0 0 0 0 0 0 0 0 0 0 0 0 0 
0 0 0 0 0 0 0 0 0 0 0 0 0 0 0 0 0 0 0 0 0 0 0 0 0 0 0 0 0 0 0 0 0 0 0 0 0 0 0 0 0 0 0 0 0 0 0 0 0 0 0 0 0 0 0 0 0 0 0 0 0 0 0 0 0 0 0 0 0 0 0 0 0 0 0 0 0 0 0 0 0 0 0 0 0 0 0 0 0 0 0 0 0 0 0 0 0 0 0 0 0 0 0 0 0 0 0 0 0 0 0 0 0 0 0 0 0 0 0 0 0 0 0 0 0 0 0 0 0 0 0 0 0 0 0 0 0 0 0 0 0 0 0 0 0 0 0 0 0 0 0 0 0 0 0 0 0 0 0 0 0 0 0 0 0 0 0 0 0 0 0 0 0 0 0 0 0 0 0 0 
0 0 0 0 0 0 0 0 0 0 0 0 0 0 0 0 0 0 0 0 0 0 0 0 0 0 0 0 0 0 0 0 0 0 0 0 0 0 0 0 0 0 0 0 0 0 0 0 0 0 0 0 0 0 0 0 0 0 0 0 0 0 0 0 0 0 0 0 0 0 0 0 0 0 0 0 0 0 0 0 0 0 0 0 0 0 0 0 0 0 0 0 0 0 0 0 0 0 0 0 0 0 0 0 0 0 0 0 0 0 0 0 0 0 0 0 0 0 0 0 0 0 0 0 0 0 0 0 0 0 0 0 0 0 0 0 0 0 0 0 0 0 0 0 0 0 0 0 0 0 0 0 0 0 0 0 0 0 0 0 0 0 0 0 0 0 0 0 0 0 0 0 0 0 0 0 0 0 0 0 
0 0 0 0 0 0 0 0 0 0 0 0 0 0 0 0 0 0 0 0 0 0 0 0 0 0 0 0 0 0 0 0 0 0 0 0 0 0 0 0 0 0 0 0 0 0 0 0 0 0 0 0 0 0 0 0 0 0 0 0 0 0 0 0 0 0 0 0 0 0 0 0 0 0 0 0 0 0 0 0 0 0 0 0 0 0 0 0 0 0 0 0 0 0 0 0 0 0 0 0 0 0 0 0 0 0 0 0 0 0 0 0 0 0 0 0 0 0 0 0 0 0 0 0 0 0 0 0 0 0 0 0 0 0 0 0 0 0 0 0 0 0 0 0 0 0 0 0 0 0 0 0 0 0 0 0 0 0 0 0 0 0 0 0 0 0 0 0 0 0 0 0 0 0 0 0 0 0 0 0 
0 0 0 0 0 0 0 0 0 0 0 0 0 0 0 0 0 0 0 0 0 0 0 0 0 0 0 0 0 0 0 0 0 0 0 0 0 0 0 0 0 0 0 0 0 0 0 0 0 0 0 0 0 0 0 0 0 0 0 0 0 0 0 0 0 0 0 0 0 0 0 0 0 0 0 0 0 0 0 0 0 0 0 0 0 0 0 0 0 0 0 0 0 0 0 0 0 0 0 0 0 0 0 0 0 0 0 0 0 0 0 0 0 0 0 0 0 0 0 0 0 0 0 0 0 0 0 0 0 0 0 0 0 0 0 0 0 0 0 0 0 0 0 0 0 0 0 0 0 0 0 0 0 0 0 0 0 0 0 0 0 0 0 0 0 0 0 0 0 0 0 0 0 0 0 0 0 0 0 0 
0 0 0 0 0 0 0 0 0 0 0 0 0 0 0 0 0 0 0 0 0 0 0 0 0 0 0 0 0 0 0 0 0 0 0 0 0 0 0 0 0 0 0 0 0 0 0 0 0 0 0 0 0 0 0 0 0 0 0 0 0 0 0 0 0 0 0 0 0 0 0 0 0 0 0 0 0 0 0 0 0 0 0 0 0 0 0 0 0 0 0 0 0 0 0 0 0 0 0 0 0 0 0 0 0 0 0 0 0 0 0 0 0 0 0 0 0 0 0 0 0 0 0 0 0 0 0 0 0 0 0 0 0 0 0 0 0 0 0 0 0 0 0 0 0 0 0 0 0 0 0 0 0 0 0 0 0 0 0 0 0 0 0 0 0 0 0 0 0 0 0 0 0 0 0 0 0 0 0 0 
0 0 0 0 0 0 0 0 0 0 0 0 0 0 0 0 0 0 0 0 0 0 0 0 0 0 0 0 0 0 0 0 0 0 0 0 0 0 0 0 0 0 0 0 0 0 0 0 0 0 0 0 0 0 0 0 0 0 0 0 0 0 0 0 0 0 0 0 0 0 0 0 0 0 0 0 0 0 0 0 0 0 0 0 0 0 0 0 0 0 0 0 0 0 0 0 0 0 0 0 0 0 0 0 0 0 0 0 0 0 0 0 0 0 0 0 0 0 0 0 0 0 0 0 0 0 0 0 0 0 0 0 0 0 0 0 0 0 0 0 0 0 0 0 0 0 0 0 0 0 0 0 0 0 0 0 0 0 0 0 0 0 0 0 0 0 0 0 0 0 0 0 0 0 0 0 0 0 0 0 
0 0 0 0 0 0 0 0 0 0 0 0 0 0 0 0 0 0 0 0 0 0 0 0 0 0 0 0 0 0 0 0 0 0 0 0 0 0 0 0 0 0 0 0 0 0 0 0 0 0 0 0 0 0 0 0 0 0 0 0 0 0 0 0 0 0 0 0 0 0 0 0 0 0 0 0 0 0 0 0 0 0 0 0 0 0 0 0 0 0 0 0 0 0 0 0 0 0 0 0 0 0 0 0 0 0 0 0 0 0 0 0 0 0 0 0 0 0 0 0 0 0 0 0 0 0 0 0 0 0 0 0 0 0 0 0 0 0 0 0 0 0 0 0 0 0 0 0 0 0 0 0 0 0 0 0 0 0 0 0 0 0 0 0 0 0 0 0 0 0 0 0 0 0 0 0 0 0 0 0 
0 0 0 0 0 0 0 0 0 0 0 0 0 0 0 0 0 0 0 0 0 0 0 0 0 0 0 0 0 0 0 0 0 0 0 0 0 0 0 0 0 0 0 0 0 0 0 0 0 0 0 0 0 0 0 0 0 0 0 0 0 0 0 0 0 0 0 0 0 0 0 0 0 0 0 0 0 0 0 0 0 0 0 0 0 0 0 0 0 0 0 0 0 0 0 0 0 0 0 0 0 0 0 0 0 0 0 0 0 0 0 0 0 0 0 0 0 0 0 0 0 0 0 0 0 0 0 0 0 0 0 0 0 0 0 0 0 0 0 0 0 0 0 0 0 0 0 0 0 0 0 0 0 0 0 0 0 0 0 0 0 0 0 0 0 0 0 0 0 0 0 0 0 0 0 0 0 0 0 0 
0 0 0 0 0 0 0 0 0 0 0 0 0 0 0 0 0 0 0 0 0 0 0 0 0 0 0 0 0 0 0 0 0 0 0 0 0 0 0 0 0 0 0 0 0 0 0 0 0 0 0 0 0 0 0 0 0 0 0 0 0 0 0 0 0 0 0 0 0 0 0 0 0 0 0 0 0 0 0 0 0 0 0 0 0 0 0 0 0 0 0 0 0 0 0 0 0 0 0 0 0 0 0 0 0 0 0 0 0 0 0 0 0 0 0 0 0 0 0 0 0 0 0 0 0 0 0 0 0 0 0 0 0 0 0 0 0 0 0 0 0 0 0 0 0 0 0 0 0 0 0 0 0 0 0 0 0 0 0 0 0 0 0 0 0 0 0 0 0 0 0 0 0 0 0 0 0 0 0 0 
