P3
# This is a dose file slice at depth 57 of 100
60 60
# now we give the maximum value of the RGB coordinates.
21610
0 0 0 0 0 0 0 0 0 0 0 0 1 0 0 0 0 0 0 0 0 1 0 0 2 0 0 2 0 0 1 0 0 0 0 0 1 0 0 0 0 0 1 0 0 0 0 0 1 0 0 0 0 0 1 0 0 2 0 0 1 0 0 2 0 0 0 0 0 0 0 0 1 0 0 1 0 0 1 0 0 1 0 0 1 0 0 0 0 0 1 0 0 2 0 0 0 0 0 0 0 0 1 0 0 1 0 0 1 0 0 1 0 0 2 0 0 0 0 0 0 0 0 1 0 0 0 0 0 1 0 0 0 0 0 2 0 0 1 0 0 1 0 0 1 0 0 0 0 0 0 0 0 1 0 0 0 0 0 0 0 0 0 0 0 0 0 0 0 0 0 0 0 0 1 0 0 0 0 0 
2 0 0 2 0 0 3 0 0 0 0 0 0 0 0 0 0 0 1 0 0 2 0 0 2 0 0 0 0 0 5 0 0 0 0 0 4 0 0 0 0 0 2 0 0 1 0 0 3 0 0 7 0 0 3 0 0 7 0 0 6 0 0 5 0 0 3 0 0 0 0 0 5 0 0 2 0 0 4 0 0 1 0 0 6 0 0 4 0 0 3 0 0 6 0 0 1 0 0 3 0 0 2 0 0 1 0 0 4 0 0 3 0 0 9 0 0 2 0 0 3 0 0 2 0 0 0 0 0 1 0 0 4 0 0 4 0 0 7 0 0 7 0 0 0 0 0 0 0 0 4 0 0 4 0 0 3 0 0 6 0 0 3 0 0 0 0 0 0 0 0 0 0 0 1 0 0 0 0 0 
1 0 0 1 0 0 1 0 0 1 0 0 0 0 0 0 0 0 1 0 0 3 0 0 3 0 0 1 0 0 0 0 0 6 0 0 5 0 0 1 0 0 3 0 0 1 0 0 4 0 0 4 0 0 6 0 0 11 0 0 4 0 0 7 0 0 7 0 0 5 0 0 5 0 0 1 0 0 3 0 0 6 0 0 2 0 0 8 0 0 6 0 0 5 0 0 2 0 0 4 0 0 5 0 0 3 0 0 3 0 0 8 0 0 4 0 0 3 0 0 3 0 0 3 0 0 1 0 0 4 0 0 3 0 0 7 0 0 8 0 0 5 0 0 0 0 0 3 0 0 2 0 0 4 0 0 5 0 0 3 0 0 0 0 0 1 0 0 2 0 0 1 0 0 1 0 0 4 0 0 
0 0 0 3 0 0 1 0 0 2 0 0 0 0 0 0 0 0 0 0 0 3 0 0 4 0 0 5 0 0 2 0 0 6 0 0 4 0 0 0 0 0 3 0 0 4 0 0 3 0 0 5 0 0 4 0 0 7 0 0 4 0 0 8 0 0 5 0 0 2 0 0 6 0 0 3 0 0 2 0 0 5 0 0 4 0 0 6 0 0 8 0 0 3 0 0 5 0 0 4 0 0 2 0 0 2 0 0 4 0 0 6 0 0 5 0 0 3 0 0 2 0 0 3 0 0 4 0 0 3 0 0 4 0 0 7 0 0 3 0 0 4 0 0 1 0 0 3 0 0 5 0 0 0 0 0 5 0 0 2 0 0 1 0 0 2 0 0 3 0 0 5 0 0 1 0 0 3 0 0 
0 0 0 1 0 0 2 0 0 1 0 0 2 0 0 2 0 0 0 0 0 0 0 0 1 0 0 2 0 0 3 0 0 6 0 0 9 0 0 4 0 0 3 0 0 4 0 0 4 0 0 6 0 0 3 0 0 6 0 0 3 0 0 7 0 0 4 0 0 2 0 0 4 0 0 7 0 0 2 0 0 5 0 0 2 0 0 3 0 0 2 0 0 2 0 0 4 0 0 4 0 0 8 0 0 2 0 0 4 0 0 4 0 0 8 0 0 8 0 0 5 0 0 6 0 0 3 0 0 6 0 0 3 0 0 8 0 0 4 0 0 4 0 0 0 0 0 0 0 0 1 0 0 0 0 0 3 0 0 1 0 0 3 0 0 3 0 0 3 0 0 2 0 0 2 0 0 0 0 0 
0 0 0 1 0 0 2 0 0 4 0 0 1 0 0 4 0 0 2 0 0 0 0 0 3 0 0 2 0 0 3 0 0 3 0 0 3 0 0 6 0 0 3 0 0 8 0 0 1 0 0 5 0 0 5 0 0 6 0 0 8 0 0 1 0 0 11 0 0 8 0 0 9 0 0 7 0 0 2 0 0 8 0 0 1 0 0 3 0 0 3 0 0 3 0 0 7 0 0 7 0 0 10 0 0 4 0 0 8 0 0 6 0 0 6 0 0 6 0 0 10 0 0 5 0 0 6 0 0 5 0 0 7 0 0 8 0 0 7 0 0 2 0 0 1 0 0 5 0 0 4 0 0 4 0 0 4 0 0 1 0 0 1 0 0 2 0 0 3 0 0 3 0 0 0 0 0 2 0 0 
0 0 0 3 0 0 3 0 0 6 0 0 4 0 0 2 0 0 6 0 0 5 0 0 4 0 0 3 0 0 3 0 0 2 0 0 4 0 0 5 0 0 3 0 0 8 0 0 2 0 0 5 0 0 4 0 0 6 0 0 13 0 0 3 0 0 7 0 0 10 0 0 10 0 0 9 0 0 4 0 0 5 0 0 4 0 0 3 0 0 5 0 0 7 0 0 9 0 0 9 0 0 7 0 0 6 0 0 6 0 0 6 0 0 6 0 0 4 0 0 7 0 0 3 0 0 9 0 0 9 0 0 3 0 0 7 0 0 7 0 0 1 0 0 0 0 0 6 0 0 6 0 0 3 0 0 3 0 0 1 0 0 3 0 0 3 0 0 2 0 0 1 0 0 2 0 0 2 0 0 
2 0 0 2 0 0 1 0 0 4 0 0 6 0 0 6 0 0 2 0 0 5 0 0 6 0 0 4 0 0 3 0 0 6 0 0 4 0 0 10 0 0 9 0 0 8 0 0 7 0 0 5 0 0 3 0 0 10 0 0 7 0 0 7 0 0 7 0 0 12 0 0 9 0 0 11 0 0 10 0 0 10 0 0 4 0 0 9 0 0 6 0 0 6 0 0 7 0 0 7 0 0 6 0 0 12 0 0 11 0 0 7 0 0 14 0 0 5 0 0 8 0 0 8 0 0 14 0 0 11 0 0 5 0 0 8 0 0 6 0 0 3 0 0 6 0 0 5 0 0 4 0 0 6 0 0 6 0 0 1 0 0 0 0 0 2 0 0 5 0 0 1 0 0 2 0 0 0 0 0 
1 0 0 1 0 0 1 0 0 7 0 0 4 0 0 2 0 0 5 0 0 5 0 0 9 0 0 4 0 0 5 0 0 9 0 0 9 0 0 12 0 0 10 0 0 11 0 0 12 0 0 15 0 0 12 0 0 7 0 0 16 0 0 9 0 0 12 0 0 15 0 0 8 0 0 10 0 0 11 0 0 12 0 0 10 0 0 12 0 0 14 0 0 9 0 0 12 0 0 11 0 0 12 0 0 13 0 0 17 0 0 15 0 0 12 0 0 13 0 0 15 0 0 12 0 0 12 0 0 10 0 0 5 0 0 7 0 0 11 0 0 6 0 0 2 0 0 8 0 0 8 0 0 6 0 0 4 0 0 1 0 0 3 0 0 2 0 0 3 0 0 1 0 0 5 0 0 2 0 0 
0 0 0 1 0 0 0 0 0 3 0 0 5 0 0 2 0 0 2 0 0 5 0 0 7 0 0 6 0 0 26 0 0 48 0 0 43 0 0 48 0 0 47 0 0 50 0 0 46 0 0 44 0 0 47 0 0 47 0 0 46 0 0 43 0 0 57 0 0 47 0 0 49 0 0 48 0 0 53 0 0 42 0 0 47 0 0 46 0 0 44 0 0 56 0 0 50 0 0 45 0 0 44 0 0 49 0 0 47 0 0 53 0 0 60 0 0 55 0 0 47 0 0 52 0 0 45 0 0 64 0 0 51 0 0 52 0 0 43 0 0 47 0 0 39 0 0 41 0 0 19 0 0 2 0 0 2 0 0 4 0 0 2 0 0 4 0 0 2 0 0 1 0 0 0 0 0 3 0 0 
0 0 0 1 0 0 6 0 0 2 0 0 5 0 0 3 0 0 2 0 0 4 0 0 7 0 0 20 0 0 1497 0 0 2993 0 0 2988 0 0 3030 0 0 2978 0 0 2998 0 0 2991 0 0 3030 0 0 2993 0 0 3032 0 0 2957 0 0 3013 0 0 2943 0 0 2989 0 0 3059 0 0 3066 0 0 3087 0 0 3068 0 0 3019 0 0 3025 0 0 2986 0 0 2978 0 0 3027 0 0 3004 0 0 2927 0 0 2898 0 0 3011 0 0 2980 0 0 3026 0 0 3080 0 0 3035 0 0 2938 0 0 3051 0 0 3035 0 0 3063 0 0 3002 0 0 2976 0 0 3010 0 0 3051 0 0 3040 0 0 1494 0 0 27 0 0 7 0 0 4 0 0 2 0 0 1 0 0 0 0 0 0 0 0 3 0 0 4 0 0 
0 0 0 0 0 0 0 0 0 6 0 0 3 0 0 5 0 0 7 0 0 6 0 0 11 0 0 44 0 0 2913 0 0 5948 0 0 5963 0 0 5883 0 0 5887 0 0 5860 0 0 5976 0 0 5965 0 0 5945 0 0 5855 0 0 5920 0 0 5907 0 0 5982 0 0 5945 0 0 5963 0 0 6024 0 0 5992 0 0 5985 0 0 5908 0 0 5892 0 0 5946 0 0 5832 0 0 6056 0 0 6057 0 0 5907 0 0 5922 0 0 5894 0 0 6088 0 0 5987 0 0 6023 0 0 5969 0 0 5941 0 0 6129 0 0 5966 0 0 5928 0 0 5936 0 0 6092 0 0 5926 0 0 5885 0 0 5928 0 0 3119 0 0 44 0 0 3 0 0 1 0 0 2 0 0 2 0 0 1 0 0 0 0 0 5 0 0 6 0 0 
0 0 0 1 0 0 1 0 0 4 0 0 1 0 0 5 0 0 4 0 0 9 0 0 13 0 0 43 0 0 3035 0 0 5932 0 0 6007 0 0 5986 0 0 5964 0 0 5975 0 0 6014 0 0 5952 0 0 6028 0 0 5984 0 0 5990 0 0 6028 0 0 5959 0 0 5953 0 0 5887 0 0 6139 0 0 5931 0 0 5968 0 0 6054 0 0 6029 0 0 6098 0 0 5958 0 0 6105 0 0 6045 0 0 6070 0 0 6009 0 0 5925 0 0 6052 0 0 6054 0 0 6042 0 0 5968 0 0 5918 0 0 5930 0 0 6155 0 0 6097 0 0 6065 0 0 5838 0 0 5922 0 0 5920 0 0 5946 0 0 3050 0 0 31 0 0 1 0 0 0 0 0 7 0 0 3 0 0 5 0 0 2 0 0 5 0 0 3 0 0 
0 0 0 2 0 0 1 0 0 1 0 0 4 0 0 1 0 0 6 0 0 3 0 0 8 0 0 50 0 0 3094 0 0 6034 0 0 5900 0 0 6031 0 0 5989 0 0 5919 0 0 5962 0 0 5983 0 0 5913 0 0 6028 0 0 6061 0 0 6048 0 0 6007 0 0 5904 0 0 5959 0 0 6057 0 0 5935 0 0 5964 0 0 5943 0 0 5972 0 0 6015 0 0 6025 0 0 5961 0 0 6023 0 0 6103 0 0 5975 0 0 6011 0 0 5997 0 0 5899 0 0 6046 0 0 5960 0 0 5857 0 0 5976 0 0 5852 0 0 6055 0 0 5944 0 0 5966 0 0 5947 0 0 6052 0 0 5921 0 0 3019 0 0 37 0 0 8 0 0 8 0 0 2 0 0 3 0 0 7 0 0 4 0 0 2 0 0 3 0 0 
0 0 0 2 0 0 5 0 0 1 0 0 3 0 0 3 0 0 5 0 0 8 0 0 7 0 0 50 0 0 2978 0 0 5933 0 0 6013 0 0 5999 0 0 6031 0 0 5993 0 0 5939 0 0 5992 0 0 6043 0 0 6035 0 0 5996 0 0 6033 0 0 5975 0 0 5924 0 0 5969 0 0 6059 0 0 5967 0 0 5943 0 0 5863 0 0 6057 0 0 6004 0 0 6044 0 0 6051 0 0 6039 0 0 6015 0 0 5954 0 0 6048 0 0 5942 0 0 5903 0 0 5956 0 0 5992 0 0 5997 0 0 6008 0 0 5932 0 0 5932 0 0 6009 0 0 5974 0 0 5949 0 0 6024 0 0 5921 0 0 3016 0 0 57 0 0 12 0 0 9 0 0 7 0 0 6 0 0 7 0 0 6 0 0 2 0 0 1 0 0 
0 0 0 3 0 0 3 0 0 1 0 0 2 0 0 2 0 0 10 0 0 7 0 0 11 0 0 52 0 0 3025 0 0 5886 0 0 5902 0 0 5941 0 0 6008 0 0 6051 0 0 5979 0 0 6097 0 0 5970 0 0 5921 0 0 5975 0 0 5901 0 0 5995 0 0 6037 0 0 5910 0 0 6020 0 0 5913 0 0 5990 0 0 6022 0 0 6092 0 0 5986 0 0 5945 0 0 5967 0 0 6002 0 0 6130 0 0 5948 0 0 5910 0 0 6086 0 0 5868 0 0 6023 0 0 6054 0 0 6080 0 0 5956 0 0 5982 0 0 6009 0 0 6050 0 0 5974 0 0 5893 0 0 6003 0 0 5880 0 0 3091 0 0 49 0 0 7 0 0 3 0 0 4 0 0 7 0 0 8 0 0 4 0 0 8 0 0 4 0 0 
1 0 0 3 0 0 5 0 0 2 0 0 4 0 0 6 0 0 10 0 0 12 0 0 11 0 0 57 0 0 3074 0 0 5968 0 0 5976 0 0 6023 0 0 5898 0 0 5987 0 0 6016 0 0 6109 0 0 5992 0 0 6030 0 0 6064 0 0 5989 0 0 6021 0 0 5980 0 0 5959 0 0 6033 0 0 5891 0 0 5962 0 0 6061 0 0 6085 0 0 5959 0 0 6047 0 0 5977 0 0 5820 0 0 5925 0 0 5996 0 0 5975 0 0 6069 0 0 5888 0 0 6083 0 0 6123 0 0 5920 0 0 5975 0 0 5953 0 0 6086 0 0 6111 0 0 5772 0 0 5961 0 0 6028 0 0 5851 0 0 2935 0 0 47 0 0 10 0 0 7 0 0 7 0 0 4 0 0 5 0 0 4 0 0 7 0 0 3 0 0 
2 0 0 3 0 0 6 0 0 4 0 0 2 0 0 1 0 0 3 0 0 7 0 0 8 0 0 50 0 0 3024 0 0 5983 0 0 6030 0 0 6055 0 0 5820 0 0 6075 0 0 6047 0 0 5988 0 0 5936 0 0 6115 0 0 6108 0 0 5974 0 0 5957 0 0 6020 0 0 5931 0 0 5962 0 0 6012 0 0 5948 0 0 5944 0 0 5933 0 0 5963 0 0 6062 0 0 6023 0 0 6007 0 0 6047 0 0 5920 0 0 6026 0 0 5976 0 0 5962 0 0 5951 0 0 5870 0 0 5994 0 0 5856 0 0 6027 0 0 5971 0 0 6069 0 0 6009 0 0 6011 0 0 6026 0 0 5924 0 0 2967 0 0 43 0 0 11 0 0 7 0 0 8 0 0 5 0 0 8 0 0 6 0 0 2 0 0 0 0 0 
3 0 0 5 0 0 5 0 0 2 0 0 3 0 0 1 0 0 6 0 0 11 0 0 11 0 0 51 0 0 2969 0 0 6020 0 0 5929 0 0 5981 0 0 6027 0 0 5996 0 0 5991 0 0 5995 0 0 6054 0 0 6043 0 0 6019 0 0 5923 0 0 5967 0 0 5969 0 0 6016 0 0 6233 0 0 5937 0 0 6065 0 0 6125 0 0 6039 0 0 5919 0 0 5912 0 0 6036 0 0 6011 0 0 6009 0 0 5967 0 0 6061 0 0 5934 0 0 6130 0 0 5927 0 0 5906 0 0 6061 0 0 5974 0 0 6059 0 0 5999 0 0 6118 0 0 5986 0 0 5955 0 0 6090 0 0 5956 0 0 2943 0 0 51 0 0 11 0 0 7 0 0 6 0 0 0 0 0 0 0 0 3 0 0 6 0 0 2 0 0 
2 0 0 4 0 0 3 0 0 6 0 0 2 0 0 2 0 0 3 0 0 4 0 0 9 0 0 52 0 0 2905 0 0 5953 0 0 6041 0 0 5949 0 0 5903 0 0 5859 0 0 6031 0 0 5961 0 0 6037 0 0 5863 0 0 6031 0 0 6074 0 0 6024 0 0 6107 0 0 6018 0 0 6004 0 0 5849 0 0 6046 0 0 5938 0 0 6012 0 0 5999 0 0 6078 0 0 6091 0 0 5989 0 0 6144 0 0 5848 0 0 5913 0 0 5938 0 0 5999 0 0 6109 0 0 5941 0 0 5854 0 0 5899 0 0 6013 0 0 6007 0 0 6016 0 0 5904 0 0 6113 0 0 5882 0 0 6005 0 0 3056 0 0 52 0 0 12 0 0 12 0 0 8 0 0 8 0 0 3 0 0 5 0 0 3 0 0 0 0 0 
0 0 0 2 0 0 0 0 0 2 0 0 4 0 0 7 0 0 5 0 0 9 0 0 12 0 0 50 0 0 3037 0 0 6089 0 0 5994 0 0 6074 0 0 6027 0 0 5937 0 0 5951 0 0 6022 0 0 5944 0 0 6049 0 0 6066 0 0 5944 0 0 6122 0 0 6054 0 0 5981 0 0 6033 0 0 6025 0 0 6072 0 0 5969 0 0 6096 0 0 6087 0 0 6018 0 0 6023 0 0 6125 0 0 5976 0 0 6073 0 0 6012 0 0 5984 0 0 5931 0 0 5940 0 0 6010 0 0 5947 0 0 5820 0 0 6129 0 0 6020 0 0 5998 0 0 5899 0 0 5931 0 0 5974 0 0 5948 0 0 2995 0 0 53 0 0 14 0 0 12 0 0 6 0 0 9 0 0 8 0 0 5 0 0 6 0 0 5 0 0 
0 0 0 1 0 0 4 0 0 4 0 0 2 0 0 3 0 0 2 0 0 8 0 0 9 0 0 49 0 0 2922 0 0 5809 0 0 5943 0 0 6043 0 0 6022 0 0 6048 0 0 5909 0 0 6112 0 0 5994 0 0 5982 0 0 6004 0 0 6028 0 0 5896 0 0 6045 0 0 6098 0 0 6026 0 0 5915 0 0 6066 0 0 5970 0 0 5977 0 0 5918 0 0 5964 0 0 6031 0 0 6009 0 0 5952 0 0 6041 0 0 6017 0 0 6070 0 0 6039 0 0 6029 0 0 5982 0 0 6001 0 0 5997 0 0 5981 0 0 5984 0 0 6027 0 0 6116 0 0 6083 0 0 6160 0 0 6037 0 0 2998 0 0 50 0 0 10 0 0 7 0 0 5 0 0 4 0 0 6 0 0 5 0 0 4 0 0 2 0 0 
0 0 0 4 0 0 5 0 0 4 0 0 5 0 0 6 0 0 6 0 0 6 0 0 7 0 0 49 0 0 2926 0 0 5958 0 0 6064 0 0 6080 0 0 6025 0 0 5941 0 0 6004 0 0 6036 0 0 6006 0 0 5934 0 0 5883 0 0 6065 0 0 6149 0 0 6035 0 0 6045 0 0 6102 0 0 6098 0 0 6114 0 0 6112 0 0 6043 0 0 6032 0 0 5928 0 0 5960 0 0 6038 0 0 6003 0 0 6017 0 0 5986 0 0 6000 0 0 6087 0 0 5936 0 0 5924 0 0 5900 0 0 6051 0 0 5936 0 0 5920 0 0 5968 0 0 5975 0 0 6032 0 0 6040 0 0 6058 0 0 2998 0 0 55 0 0 12 0 0 5 0 0 8 0 0 7 0 0 5 0 0 4 0 0 3 0 0 4 0 0 
1 0 0 7 0 0 4 0 0 2 0 0 2 0 0 5 0 0 5 0 0 6 0 0 10 0 0 55 0 0 2951 0 0 5856 0 0 5984 0 0 5987 0 0 6087 0 0 5877 0 0 5896 0 0 6060 0 0 5993 0 0 6062 0 0 5958 0 0 5999 0 0 5994 0 0 6020 0 0 6030 0 0 6062 0 0 6007 0 0 6012 0 0 5987 0 0 6008 0 0 5954 0 0 5969 0 0 5970 0 0 5952 0 0 6028 0 0 6088 0 0 6005 0 0 6125 0 0 6000 0 0 5992 0 0 6060 0 0 5950 0 0 5981 0 0 5998 0 0 6017 0 0 5967 0 0 6024 0 0 5935 0 0 6049 0 0 5987 0 0 3091 0 0 51 0 0 11 0 0 16 0 0 6 0 0 7 0 0 1 0 0 1 0 0 5 0 0 4 0 0 
1 0 0 3 0 0 5 0 0 4 0 0 3 0 0 7 0 0 8 0 0 8 0 0 14 0 0 50 0 0 2960 0 0 6076 0 0 6074 0 0 5944 0 0 5932 0 0 5906 0 0 6012 0 0 5966 0 0 5960 0 0 6081 0 0 6008 0 0 6097 0 0 6050 0 0 6085 0 0 6113 0 0 5928 0 0 6018 0 0 6029 0 0 5922 0 0 6139 0 0 5967 0 0 5867 0 0 6035 0 0 5974 0 0 6171 0 0 5914 0 0 6019 0 0 6013 0 0 5943 0 0 6101 0 0 5993 0 0 5919 0 0 6040 0 0 6042 0 0 5964 0 0 6027 0 0 6016 0 0 5967 0 0 6013 0 0 6028 0 0 2953 0 0 50 0 0 12 0 0 8 0 0 3 0 0 9 0 0 4 0 0 1 0 0 1 0 0 1 0 0 
0 0 0 1 0 0 5 0 0 6 0 0 2 0 0 3 0 0 7 0 0 6 0 0 6 0 0 54 0 0 2923 0 0 5934 0 0 5988 0 0 6012 0 0 5986 0 0 6011 0 0 6044 0 0 6097 0 0 6095 0 0 5865 0 0 6006 0 0 5939 0 0 6005 0 0 5927 0 0 5927 0 0 6143 0 0 6022 0 0 6042 0 0 5947 0 0 6058 0 0 6045 0 0 5837 0 0 6057 0 0 5926 0 0 5958 0 0 5908 0 0 5937 0 0 6121 0 0 6037 0 0 5988 0 0 6149 0 0 6131 0 0 5883 0 0 5993 0 0 6075 0 0 5899 0 0 5937 0 0 5967 0 0 6069 0 0 5921 0 0 3009 0 0 54 0 0 15 0 0 14 0 0 7 0 0 8 0 0 8 0 0 4 0 0 3 0 0 2 0 0 
1 0 0 1 0 0 4 0 0 3 0 0 7 0 0 8 0 0 6 0 0 9 0 0 11 0 0 44 0 0 2910 0 0 6060 0 0 5933 0 0 5975 0 0 6082 0 0 6109 0 0 6029 0 0 6020 0 0 5991 0 0 5971 0 0 5885 0 0 6008 0 0 6103 0 0 6061 0 0 6003 0 0 5989 0 0 6070 0 0 6048 0 0 5986 0 0 6073 0 0 6159 0 0 5982 0 0 6064 0 0 5896 0 0 5977 0 0 5952 0 0 5981 0 0 6033 0 0 5985 0 0 6051 0 0 5983 0 0 6051 0 0 6021 0 0 6063 0 0 6041 0 0 5919 0 0 6006 0 0 5924 0 0 5976 0 0 5881 0 0 3069 0 0 50 0 0 13 0 0 10 0 0 7 0 0 6 0 0 5 0 0 6 0 0 6 0 0 4 0 0 
1 0 0 4 0 0 5 0 0 4 0 0 6 0 0 7 0 0 12 0 0 7 0 0 12 0 0 56 0 0 2943 0 0 5896 0 0 6016 0 0 5958 0 0 6081 0 0 6003 0 0 5876 0 0 6011 0 0 6028 0 0 5884 0 0 5971 0 0 6133 0 0 6000 0 0 6097 0 0 5875 0 0 5939 0 0 5969 0 0 6051 0 0 5931 0 0 6007 0 0 5990 0 0 5979 0 0 6032 0 0 5879 0 0 6048 0 0 5949 0 0 6057 0 0 6107 0 0 6061 0 0 6050 0 0 6007 0 0 5921 0 0 6022 0 0 6016 0 0 6055 0 0 5860 0 0 6142 0 0 6066 0 0 6031 0 0 5887 0 0 3020 0 0 59 0 0 11 0 0 7 0 0 7 0 0 4 0 0 5 0 0 3 0 0 4 0 0 6 0 0 
0 0 0 0 0 0 3 0 0 2 0 0 2 0 0 7 0 0 8 0 0 12 0 0 14 0 0 58 0 0 2973 0 0 5792 0 0 6045 0 0 6120 0 0 6039 0 0 6141 0 0 5921 0 0 6050 0 0 6019 0 0 5969 0 0 6070 0 0 6003 0 0 6046 0 0 5875 0 0 5902 0 0 5924 0 0 5874 0 0 5967 0 0 6096 0 0 5899 0 0 5924 0 0 5996 0 0 5928 0 0 5771 0 0 5977 0 0 5833 0 0 6054 0 0 6150 0 0 5996 0 0 5986 0 0 5959 0 0 6014 0 0 6042 0 0 6017 0 0 5865 0 0 6045 0 0 6023 0 0 5965 0 0 6048 0 0 5983 0 0 2903 0 0 53 0 0 17 0 0 8 0 0 6 0 0 5 0 0 2 0 0 3 0 0 4 0 0 2 0 0 
0 0 0 2 0 0 2 0 0 4 0 0 6 0 0 0 0 0 5 0 0 8 0 0 10 0 0 42 0 0 3059 0 0 5906 0 0 6046 0 0 6051 0 0 5987 0 0 5945 0 0 5996 0 0 6006 0 0 5916 0 0 5948 0 0 5914 0 0 5972 0 0 5996 0 0 5922 0 0 5944 0 0 6014 0 0 5947 0 0 5945 0 0 5968 0 0 6103 0 0 5911 0 0 6088 0 0 6020 0 0 6049 0 0 5983 0 0 6017 0 0 5929 0 0 5951 0 0 6001 0 0 5934 0 0 5880 0 0 6087 0 0 6107 0 0 5920 0 0 6111 0 0 5982 0 0 5925 0 0 5922 0 0 5957 0 0 5809 0 0 2930 0 0 46 0 0 9 0 0 11 0 0 7 0 0 4 0 0 3 0 0 4 0 0 5 0 0 2 0 0 
2 0 0 2 0 0 3 0 0 3 0 0 7 0 0 8 0 0 11 0 0 11 0 0 12 0 0 55 0 0 3018 0 0 5872 0 0 6017 0 0 5978 0 0 5975 0 0 5940 0 0 6038 0 0 5990 0 0 5954 0 0 6040 0 0 5954 0 0 5956 0 0 6004 0 0 6019 0 0 6023 0 0 5955 0 0 5985 0 0 6009 0 0 6022 0 0 6038 0 0 6007 0 0 5966 0 0 5997 0 0 5983 0 0 5947 0 0 5975 0 0 6019 0 0 5922 0 0 5912 0 0 5880 0 0 5962 0 0 5996 0 0 6029 0 0 6031 0 0 6046 0 0 6075 0 0 6014 0 0 6051 0 0 6062 0 0 5883 0 0 2984 0 0 49 0 0 14 0 0 12 0 0 10 0 0 4 0 0 6 0 0 8 0 0 4 0 0 3 0 0 
1 0 0 3 0 0 5 0 0 4 0 0 6 0 0 7 0 0 5 0 0 8 0 0 11 0 0 47 0 0 2922 0 0 5898 0 0 5895 0 0 6115 0 0 6066 0 0 5857 0 0 6043 0 0 6074 0 0 6116 0 0 6063 0 0 5886 0 0 6034 0 0 5944 0 0 5921 0 0 6033 0 0 5990 0 0 5992 0 0 6081 0 0 5938 0 0 6041 0 0 6044 0 0 5919 0 0 6009 0 0 5995 0 0 5905 0 0 6122 0 0 5922 0 0 5996 0 0 6015 0 0 6005 0 0 5963 0 0 5990 0 0 6078 0 0 5955 0 0 5997 0 0 6020 0 0 6070 0 0 5939 0 0 5944 0 0 6031 0 0 2883 0 0 52 0 0 13 0 0 14 0 0 10 0 0 12 0 0 8 0 0 9 0 0 2 0 0 3 0 0 
2 0 0 3 0 0 6 0 0 8 0 0 13 0 0 9 0 0 9 0 0 6 0 0 15 0 0 59 0 0 3138 0 0 6063 0 0 6087 0 0 6067 0 0 5940 0 0 5966 0 0 5967 0 0 5986 0 0 5950 0 0 6104 0 0 5940 0 0 6156 0 0 6058 0 0 5894 0 0 5854 0 0 5986 0 0 5960 0 0 5949 0 0 6059 0 0 6036 0 0 5956 0 0 5961 0 0 6073 0 0 6039 0 0 5932 0 0 5981 0 0 6043 0 0 5965 0 0 6104 0 0 5941 0 0 5953 0 0 6033 0 0 5970 0 0 6010 0 0 5980 0 0 6091 0 0 6009 0 0 6019 0 0 6061 0 0 5885 0 0 2985 0 0 60 0 0 12 0 0 9 0 0 6 0 0 8 0 0 6 0 0 6 0 0 10 0 0 5 0 0 
3 0 0 7 0 0 3 0 0 6 0 0 10 0 0 11 0 0 8 0 0 7 0 0 16 0 0 54 0 0 2979 0 0 6034 0 0 5981 0 0 6068 0 0 6019 0 0 5936 0 0 6027 0 0 6173 0 0 6136 0 0 6074 0 0 6052 0 0 6006 0 0 6060 0 0 5974 0 0 5984 0 0 5942 0 0 6091 0 0 5968 0 0 5989 0 0 6071 0 0 5987 0 0 5968 0 0 6035 0 0 6006 0 0 5957 0 0 5896 0 0 5946 0 0 6056 0 0 5971 0 0 5932 0 0 5947 0 0 6026 0 0 6069 0 0 6179 0 0 5974 0 0 5956 0 0 5909 0 0 6058 0 0 6048 0 0 6039 0 0 3133 0 0 49 0 0 5 0 0 13 0 0 10 0 0 11 0 0 3 0 0 5 0 0 6 0 0 4 0 0 
0 0 0 1 0 0 3 0 0 6 0 0 5 0 0 6 0 0 7 0 0 5 0 0 17 0 0 42 0 0 3037 0 0 5976 0 0 6021 0 0 6027 0 0 5993 0 0 6032 0 0 6010 0 0 5970 0 0 6066 0 0 6101 0 0 5959 0 0 6050 0 0 6042 0 0 5954 0 0 6077 0 0 5841 0 0 5996 0 0 6025 0 0 6055 0 0 6080 0 0 6004 0 0 6020 0 0 6112 0 0 6082 0 0 5968 0 0 5970 0 0 5993 0 0 6095 0 0 6115 0 0 6020 0 0 5981 0 0 5978 0 0 6029 0 0 6017 0 0 6003 0 0 6038 0 0 6138 0 0 5936 0 0 5970 0 0 5961 0 0 2938 0 0 47 0 0 8 0 0 9 0 0 7 0 0 6 0 0 5 0 0 2 0 0 4 0 0 2 0 0 
1 0 0 1 0 0 1 0 0 5 0 0 6 0 0 2 0 0 7 0 0 6 0 0 11 0 0 41 0 0 2932 0 0 5912 0 0 6141 0 0 5938 0 0 6128 0 0 6080 0 0 6103 0 0 6071 0 0 6010 0 0 5932 0 0 6065 0 0 6130 0 0 6082 0 0 6079 0 0 6053 0 0 5958 0 0 6035 0 0 5971 0 0 5951 0 0 5972 0 0 6051 0 0 5990 0 0 5922 0 0 6020 0 0 6015 0 0 6139 0 0 6037 0 0 6033 0 0 5959 0 0 5975 0 0 6023 0 0 5968 0 0 5989 0 0 5940 0 0 5890 0 0 6011 0 0 5946 0 0 6011 0 0 5950 0 0 6045 0 0 2984 0 0 49 0 0 8 0 0 8 0 0 6 0 0 6 0 0 3 0 0 2 0 0 4 0 0 4 0 0 
1 0 0 3 0 0 3 0 0 3 0 0 0 0 0 3 0 0 4 0 0 12 0 0 11 0 0 47 0 0 2978 0 0 5961 0 0 5946 0 0 6100 0 0 5990 0 0 5896 0 0 5999 0 0 5999 0 0 5995 0 0 5932 0 0 6016 0 0 5965 0 0 5936 0 0 6153 0 0 5910 0 0 6056 0 0 6033 0 0 5980 0 0 5916 0 0 5971 0 0 5920 0 0 6026 0 0 6064 0 0 6040 0 0 6015 0 0 6003 0 0 5906 0 0 6066 0 0 6037 0 0 5940 0 0 6011 0 0 6110 0 0 6043 0 0 5982 0 0 6034 0 0 5871 0 0 5914 0 0 5990 0 0 5916 0 0 5912 0 0 2966 0 0 50 0 0 6 0 0 9 0 0 6 0 0 4 0 0 3 0 0 4 0 0 4 0 0 3 0 0 
1 0 0 3 0 0 3 0 0 5 0 0 5 0 0 6 0 0 5 0 0 12 0 0 21 0 0 48 0 0 2945 0 0 6000 0 0 5926 0 0 5995 0 0 5958 0 0 6174 0 0 6016 0 0 5871 0 0 6057 0 0 6068 0 0 5733 0 0 6083 0 0 5939 0 0 6152 0 0 6028 0 0 5971 0 0 5930 0 0 6070 0 0 6013 0 0 5999 0 0 5981 0 0 5937 0 0 6122 0 0 6059 0 0 5974 0 0 5956 0 0 5934 0 0 6031 0 0 5857 0 0 5869 0 0 6001 0 0 6059 0 0 5893 0 0 6070 0 0 6107 0 0 6086 0 0 6038 0 0 5910 0 0 6009 0 0 6005 0 0 2959 0 0 45 0 0 8 0 0 8 0 0 8 0 0 5 0 0 4 0 0 7 0 0 3 0 0 1 0 0 
1 0 0 2 0 0 4 0 0 3 0 0 3 0 0 0 0 0 5 0 0 11 0 0 11 0 0 51 0 0 2926 0 0 6019 0 0 5851 0 0 5874 0 0 6065 0 0 6180 0 0 5884 0 0 6011 0 0 6078 0 0 6105 0 0 5952 0 0 6151 0 0 5984 0 0 6065 0 0 5917 0 0 5952 0 0 5945 0 0 5985 0 0 5950 0 0 6163 0 0 6097 0 0 6182 0 0 6020 0 0 6048 0 0 6025 0 0 5979 0 0 6069 0 0 6014 0 0 6078 0 0 6048 0 0 5985 0 0 5968 0 0 5961 0 0 6104 0 0 6018 0 0 6018 0 0 5966 0 0 6007 0 0 5986 0 0 5913 0 0 3014 0 0 57 0 0 13 0 0 9 0 0 6 0 0 2 0 0 3 0 0 6 0 0 3 0 0 2 0 0 
0 0 0 1 0 0 1 0 0 4 0 0 7 0 0 5 0 0 6 0 0 9 0 0 8 0 0 42 0 0 2934 0 0 5907 0 0 6062 0 0 6098 0 0 5973 0 0 5903 0 0 6053 0 0 5904 0 0 5916 0 0 5875 0 0 6046 0 0 5951 0 0 6008 0 0 6052 0 0 6103 0 0 5910 0 0 5996 0 0 6106 0 0 5983 0 0 6040 0 0 5946 0 0 5964 0 0 6035 0 0 5970 0 0 5939 0 0 5959 0 0 5897 0 0 6139 0 0 6028 0 0 6075 0 0 6090 0 0 5936 0 0 6066 0 0 5961 0 0 5925 0 0 6040 0 0 5945 0 0 5938 0 0 6091 0 0 5986 0 0 2997 0 0 47 0 0 9 0 0 4 0 0 5 0 0 3 0 0 5 0 0 8 0 0 6 0 0 4 0 0 
0 0 0 1 0 0 3 0 0 8 0 0 5 0 0 7 0 0 4 0 0 6 0 0 7 0 0 47 0 0 2990 0 0 5940 0 0 6070 0 0 6076 0 0 6045 0 0 6133 0 0 6034 0 0 6014 0 0 6062 0 0 6050 0 0 6002 0 0 6103 0 0 5852 0 0 5971 0 0 5912 0 0 6153 0 0 5953 0 0 5962 0 0 5967 0 0 5951 0 0 6023 0 0 6009 0 0 6021 0 0 5949 0 0 6030 0 0 6089 0 0 6068 0 0 5925 0 0 6046 0 0 6016 0 0 5996 0 0 6002 0 0 6103 0 0 6006 0 0 6019 0 0 6008 0 0 6093 0 0 5963 0 0 6014 0 0 6038 0 0 2981 0 0 43 0 0 12 0 0 11 0 0 11 0 0 7 0 0 3 0 0 1 0 0 2 0 0 4 0 0 
1 0 0 1 0 0 8 0 0 4 0 0 2 0 0 5 0 0 3 0 0 8 0 0 7 0 0 44 0 0 3019 0 0 5885 0 0 6059 0 0 6022 0 0 6056 0 0 5919 0 0 6054 0 0 5940 0 0 5998 0 0 6117 0 0 6031 0 0 6018 0 0 6048 0 0 6065 0 0 5945 0 0 5916 0 0 5856 0 0 6052 0 0 5965 0 0 6067 0 0 5995 0 0 6052 0 0 5987 0 0 5986 0 0 6006 0 0 5987 0 0 5902 0 0 6063 0 0 5986 0 0 6054 0 0 5910 0 0 6005 0 0 6149 0 0 5920 0 0 6076 0 0 5920 0 0 6053 0 0 6053 0 0 5977 0 0 6018 0 0 2981 0 0 48 0 0 15 0 0 9 0 0 5 0 0 5 0 0 8 0 0 4 0 0 2 0 0 5 0 0 
0 0 0 2 0 0 1 0 0 7 0 0 9 0 0 6 0 0 6 0 0 7 0 0 15 0 0 51 0 0 3004 0 0 6008 0 0 6029 0 0 6140 0 0 5919 0 0 6021 0 0 6121 0 0 5925 0 0 5993 0 0 6013 0 0 5905 0 0 5934 0 0 5891 0 0 6039 0 0 5857 0 0 6013 0 0 6003 0 0 6011 0 0 5892 0 0 5993 0 0 6036 0 0 5941 0 0 5949 0 0 6056 0 0 5991 0 0 5827 0 0 6024 0 0 6142 0 0 5865 0 0 5942 0 0 5971 0 0 6032 0 0 6060 0 0 6047 0 0 6073 0 0 5976 0 0 6024 0 0 5906 0 0 5973 0 0 5942 0 0 2977 0 0 47 0 0 12 0 0 9 0 0 7 0 0 6 0 0 3 0 0 3 0 0 2 0 0 2 0 0 
0 0 0 1 0 0 5 0 0 4 0 0 3 0 0 5 0 0 3 0 0 5 0 0 13 0 0 47 0 0 3008 0 0 5921 0 0 6141 0 0 5999 0 0 5841 0 0 6007 0 0 5956 0 0 6027 0 0 6100 0 0 5990 0 0 6051 0 0 6028 0 0 6075 0 0 6036 0 0 6119 0 0 5916 0 0 6041 0 0 6039 0 0 6028 0 0 6026 0 0 5966 0 0 6084 0 0 5925 0 0 5960 0 0 5884 0 0 6027 0 0 5994 0 0 5914 0 0 5961 0 0 6078 0 0 6037 0 0 6008 0 0 5904 0 0 5969 0 0 6099 0 0 6031 0 0 6079 0 0 6056 0 0 6016 0 0 5906 0 0 2993 0 0 47 0 0 9 0 0 8 0 0 10 0 0 6 0 0 5 0 0 1 0 0 1 0 0 0 0 0 
0 0 0 3 0 0 2 0 0 2 0 0 2 0 0 2 0 0 3 0 0 10 0 0 10 0 0 41 0 0 3037 0 0 5993 0 0 6038 0 0 5898 0 0 5941 0 0 6014 0 0 6089 0 0 6027 0 0 5975 0 0 6124 0 0 5951 0 0 6028 0 0 5956 0 0 6045 0 0 6098 0 0 6130 0 0 5989 0 0 6109 0 0 5951 0 0 6078 0 0 6075 0 0 6069 0 0 6038 0 0 5938 0 0 5951 0 0 5963 0 0 6044 0 0 6038 0 0 6146 0 0 5931 0 0 6009 0 0 5975 0 0 6037 0 0 5978 0 0 6050 0 0 5911 0 0 5956 0 0 6071 0 0 6036 0 0 5961 0 0 2997 0 0 46 0 0 8 0 0 7 0 0 7 0 0 6 0 0 2 0 0 5 0 0 2 0 0 2 0 0 
0 0 0 0 0 0 4 0 0 1 0 0 0 0 0 2 0 0 5 0 0 11 0 0 12 0 0 53 0 0 3091 0 0 5949 0 0 5940 0 0 6042 0 0 6093 0 0 5958 0 0 5993 0 0 6001 0 0 6062 0 0 6056 0 0 5958 0 0 5897 0 0 5956 0 0 6152 0 0 5945 0 0 6021 0 0 5947 0 0 6019 0 0 6067 0 0 5949 0 0 5940 0 0 5999 0 0 6003 0 0 6136 0 0 6042 0 0 6061 0 0 6044 0 0 5973 0 0 5992 0 0 5842 0 0 5970 0 0 5994 0 0 5966 0 0 6111 0 0 5948 0 0 5993 0 0 5942 0 0 5889 0 0 5999 0 0 5899 0 0 2966 0 0 47 0 0 4 0 0 2 0 0 2 0 0 4 0 0 5 0 0 3 0 0 7 0 0 4 0 0 
0 0 0 0 0 0 1 0 0 0 0 0 0 0 0 0 0 0 5 0 0 13 0 0 7 0 0 48 0 0 3010 0 0 5930 0 0 6159 0 0 6070 0 0 6026 0 0 5892 0 0 6018 0 0 6063 0 0 6027 0 0 5875 0 0 6057 0 0 6018 0 0 6056 0 0 6037 0 0 5931 0 0 6040 0 0 6041 0 0 6087 0 0 6032 0 0 5974 0 0 6020 0 0 6053 0 0 5936 0 0 5921 0 0 6071 0 0 5974 0 0 6027 0 0 6067 0 0 5949 0 0 5967 0 0 6167 0 0 6124 0 0 6049 0 0 5849 0 0 6070 0 0 6125 0 0 5876 0 0 5980 0 0 6100 0 0 6040 0 0 3025 0 0 43 0 0 6 0 0 4 0 0 1 0 0 4 0 0 4 0 0 6 0 0 0 0 0 7 0 0 
0 0 0 2 0 0 0 0 0 0 0 0 2 0 0 5 0 0 3 0 0 10 0 0 11 0 0 41 0 0 3061 0 0 5916 0 0 5975 0 0 5882 0 0 6029 0 0 6166 0 0 6055 0 0 6006 0 0 5901 0 0 6053 0 0 6079 0 0 6036 0 0 5904 0 0 5899 0 0 6059 0 0 6010 0 0 6048 0 0 5993 0 0 6044 0 0 5937 0 0 5858 0 0 5968 0 0 6025 0 0 5926 0 0 6061 0 0 6072 0 0 6035 0 0 5945 0 0 6067 0 0 5992 0 0 6104 0 0 5981 0 0 5980 0 0 6043 0 0 5917 0 0 6101 0 0 5905 0 0 5954 0 0 6028 0 0 5974 0 0 3049 0 0 38 0 0 3 0 0 4 0 0 5 0 0 7 0 0 1 0 0 0 0 0 3 0 0 2 0 0 
0 0 0 1 0 0 3 0 0 3 0 0 8 0 0 5 0 0 6 0 0 6 0 0 7 0 0 50 0 0 2958 0 0 6045 0 0 6071 0 0 6023 0 0 5887 0 0 5992 0 0 5965 0 0 5948 0 0 5982 0 0 5959 0 0 5983 0 0 6052 0 0 5907 0 0 6090 0 0 6158 0 0 6019 0 0 6155 0 0 6039 0 0 6041 0 0 6034 0 0 5937 0 0 6150 0 0 6051 0 0 6077 0 0 5904 0 0 5853 0 0 6075 0 0 6034 0 0 6067 0 0 6012 0 0 5929 0 0 5995 0 0 5954 0 0 5982 0 0 5929 0 0 5902 0 0 5959 0 0 5922 0 0 5917 0 0 5981 0 0 3022 0 0 44 0 0 5 0 0 7 0 0 1 0 0 0 0 0 5 0 0 1 0 0 2 0 0 3 0 0 
0 0 0 1 0 0 0 0 0 3 0 0 3 0 0 1 0 0 5 0 0 7 0 0 9 0 0 38 0 0 2893 0 0 6000 0 0 6033 0 0 5949 0 0 6001 0 0 6015 0 0 5894 0 0 5923 0 0 6025 0 0 5883 0 0 6035 0 0 5950 0 0 5911 0 0 5933 0 0 5934 0 0 5911 0 0 6035 0 0 5958 0 0 5926 0 0 6015 0 0 6060 0 0 6082 0 0 5946 0 0 5988 0 0 5957 0 0 6048 0 0 6001 0 0 6117 0 0 5983 0 0 5983 0 0 5998 0 0 5803 0 0 5981 0 0 5956 0 0 5778 0 0 5914 0 0 6011 0 0 5896 0 0 5932 0 0 5830 0 0 2996 0 0 58 0 0 10 0 0 7 0 0 11 0 0 7 0 0 2 0 0 4 0 0 0 0 0 1 0 0 
0 0 0 1 0 0 2 0 0 6 0 0 3 0 0 1 0 0 8 0 0 4 0 0 5 0 0 22 0 0 1525 0 0 3011 0 0 2985 0 0 2989 0 0 3004 0 0 3052 0 0 2917 0 0 2989 0 0 3015 0 0 2951 0 0 3013 0 0 2936 0 0 2964 0 0 2946 0 0 2954 0 0 3032 0 0 3052 0 0 3021 0 0 2999 0 0 3014 0 0 3033 0 0 2945 0 0 3035 0 0 2941 0 0 3012 0 0 3082 0 0 3067 0 0 3016 0 0 3054 0 0 3080 0 0 3050 0 0 3010 0 0 2941 0 0 3073 0 0 2989 0 0 3066 0 0 3015 0 0 3118 0 0 3047 0 0 2961 0 0 1519 0 0 24 0 0 4 0 0 2 0 0 6 0 0 5 0 0 4 0 0 4 0 0 0 0 0 4 0 0 
0 0 0 1 0 0 1 0 0 2 0 0 1 0 0 6 0 0 5 0 0 4 0 0 4 0 0 4 0 0 26 0 0 41 0 0 50 0 0 52 0 0 41 0 0 51 0 0 32 0 0 47 0 0 53 0 0 51 0 0 47 0 0 45 0 0 45 0 0 59 0 0 47 0 0 45 0 0 56 0 0 45 0 0 37 0 0 53 0 0 50 0 0 53 0 0 45 0 0 49 0 0 47 0 0 50 0 0 41 0 0 54 0 0 50 0 0 51 0 0 47 0 0 55 0 0 47 0 0 50 0 0 50 0 0 42 0 0 47 0 0 53 0 0 44 0 0 41 0 0 27 0 0 9 0 0 3 0 0 5 0 0 0 0 0 3 0 0 4 0 0 4 0 0 3 0 0 2 0 0 
0 0 0 2 0 0 4 0 0 0 0 0 1 0 0 2 0 0 4 0 0 3 0 0 5 0 0 6 0 0 10 0 0 3 0 0 6 0 0 8 0 0 10 0 0 10 0 0 11 0 0 13 0 0 8 0 0 12 0 0 8 0 0 6 0 0 16 0 0 12 0 0 17 0 0 11 0 0 12 0 0 6 0 0 9 0 0 11 0 0 14 0 0 8 0 0 13 0 0 6 0 0 10 0 0 6 0 0 12 0 0 10 0 0 9 0 0 15 0 0 12 0 0 11 0 0 8 0 0 9 0 0 7 0 0 8 0 0 5 0 0 12 0 0 7 0 0 3 0 0 6 0 0 8 0 0 4 0 0 1 0 0 4 0 0 1 0 0 2 0 0 3 0 0 4 0 0 1 0 0 
2 0 0 4 0 0 0 0 0 3 0 0 2 0 0 2 0 0 2 0 0 6 0 0 3 0 0 5 0 0 6 0 0 3 0 0 9 0 0 6 0 0 7 0 0 10 0 0 7 0 0 10 0 0 8 0 0 8 0 0 6 0 0 9 0 0 5 0 0 12 0 0 5 0 0 7 0 0 5 0 0 5 0 0 4 0 0 7 0 0 7 0 0 6 0 0 9 0 0 4 0 0 9 0 0 5 0 0 8 0 0 9 0 0 13 0 0 15 0 0 12 0 0 6 0 0 5 0 0 3 0 0 8 0 0 2 0 0 7 0 0 10 0 0 7 0 0 7 0 0 3 0 0 9 0 0 6 0 0 0 0 0 0 0 0 2 0 0 3 0 0 5 0 0 4 0 0 3 0 0 
1 0 0 3 0 0 5 0 0 1 0 0 0 0 0 2 0 0 2 0 0 4 0 0 5 0 0 5 0 0 6 0 0 3 0 0 3 0 0 4 0 0 1 0 0 6 0 0 5 0 0 4 0 0 2 0 0 4 0 0 9 0 0 5 0 0 4 0 0 4 0 0 8 0 0 3 0 0 3 0 0 1 0 0 10 0 0 5 0 0 7 0 0 12 0 0 7 0 0 5 0 0 5 0 0 7 0 0 5 0 0 9 0 0 6 0 0 11 0 0 13 0 0 3 0 0 2 0 0 2 0 0 4 0 0 1 0 0 2 0 0 6 0 0 2 0 0 3 0 0 1 0 0 9 0 0 7 0 0 1 0 0 0 0 0 0 0 0 0 0 0 0 0 0 1 0 0 0 0 0 
1 0 0 2 0 0 2 0 0 2 0 0 1 0 0 3 0 0 3 0 0 1 0 0 1 0 0 3 0 0 0 0 0 2 0 0 5 0 0 1 0 0 1 0 0 5 0 0 2 0 0 3 0 0 5 0 0 11 0 0 3 0 0 6 0 0 5 0 0 9 0 0 2 0 0 2 0 0 7 0 0 2 0 0 6 0 0 9 0 0 8 0 0 9 0 0 4 0 0 2 0 0 10 0 0 6 0 0 5 0 0 5 0 0 3 0 0 5 0 0 6 0 0 4 0 0 3 0 0 5 0 0 4 0 0 2 0 0 1 0 0 5 0 0 0 0 0 2 0 0 4 0 0 3 0 0 4 0 0 4 0 0 0 0 0 1 0 0 1 0 0 2 0 0 3 0 0 0 0 0 
0 0 0 0 0 0 0 0 0 1 0 0 3 0 0 3 0 0 1 0 0 4 0 0 4 0 0 1 0 0 1 0 0 3 0 0 5 0 0 1 0 0 4 0 0 7 0 0 1 0 0 3 0 0 3 0 0 3 0 0 7 0 0 2 0 0 4 0 0 8 0 0 5 0 0 5 0 0 4 0 0 8 0 0 9 0 0 7 0 0 4 0 0 7 0 0 2 0 0 1 0 0 10 0 0 10 0 0 4 0 0 6 0 0 6 0 0 3 0 0 2 0 0 6 0 0 3 0 0 2 0 0 5 0 0 5 0 0 3 0 0 4 0 0 2 0 0 1 0 0 4 0 0 4 0 0 2 0 0 3 0 0 3 0 0 1 0 0 1 0 0 0 0 0 0 0 0 1 0 0 
0 0 0 0 0 0 0 0 0 3 0 0 6 0 0 2 0 0 2 0 0 5 0 0 2 0 0 2 0 0 1 0 0 3 0 0 3 0 0 0 0 0 2 0 0 3 0 0 1 0 0 2 0 0 3 0 0 4 0 0 3 0 0 2 0 0 7 0 0 2 0 0 2 0 0 1 0 0 2 0 0 5 0 0 3 0 0 5 0 0 4 0 0 4 0 0 2 0 0 4 0 0 4 0 0 7 0 0 6 0 0 4 0 0 3 0 0 0 0 0 3 0 0 4 0 0 3 0 0 4 0 0 2 0 0 4 0 0 3 0 0 4 0 0 0 0 0 0 0 0 2 0 0 1 0 0 1 0 0 3 0 0 4 0 0 3 0 0 2 0 0 3 0 0 1 0 0 2 0 0 
1 0 0 0 0 0 5 0 0 3 0 0 4 0 0 1 0 0 2 0 0 2 0 0 0 0 0 0 0 0 3 0 0 2 0 0 0 0 0 1 0 0 3 0 0 5 0 0 1 0 0 2 0 0 1 0 0 5 0 0 0 0 0 4 0 0 2 0 0 2 0 0 2 0 0 6 0 0 5 0 0 6 0 0 2 0 0 7 0 0 3 0 0 1 0 0 3 0 0 2 0 0 3 0 0 6 0 0 4 0 0 5 0 0 5 0 0 0 0 0 2 0 0 5 0 0 4 0 0 0 0 0 4 0 0 3 0 0 1 0 0 4 0 0 0 0 0 4 0 0 0 0 0 4 0 0 2 0 0 1 0 0 4 0 0 2 0 0 0 0 0 0 0 0 0 0 0 0 0 0 
0 0 0 2 0 0 1 0 0 1 0 0 0 0 0 2 0 0 0 0 0 0 0 0 0 0 0 1 0 0 1 0 0 3 0 0 0 0 0 3 0 0 5 0 0 4 0 0 2 0 0 5 0 0 2 0 0 3 0 0 2 0 0 4 0 0 1 0 0 8 0 0 3 0 0 4 0 0 2 0 0 2 0 0 4 0 0 5 0 0 5 0 0 4 0 0 4 0 0 2 0 0 6 0 0 0 0 0 1 0 0 5 0 0 4 0 0 0 0 0 4 0 0 3 0 0 6 0 0 1 0 0 3 0 0 5 0 0 2 0 0 3 0 0 1 0 0 5 0 0 0 0 0 2 0 0 1 0 0 2 0 0 2 0 0 4 0 0 1 0 0 1 0 0 1 0 0 0 0 0 
