P3
# This is a dose file slice at depth 21 of 100
60 60
# now we give the maximum value of the RGB coordinates.
21610
0 0 0 1 0 0 2 0 0 2 0 0 0 0 0 0 0 0 0 0 0 1 0 0 0 0 0 3 0 0 3 0 0 1 0 0 2 0 0 5 0 0 3 0 0 4 0 0 6 0 0 4 0 0 3 0 0 6 0 0 1 0 0 3 0 0 2 0 0 4 0 0 2 0 0 6 0 0 4 0 0 3 0 0 5 0 0 2 0 0 2 0 0 2 0 0 2 0 0 7 0 0 5 0 0 4 0 0 3 0 0 2 0 0 1 0 0 3 0 0 1 0 0 2 0 0 5 0 0 3 0 0 1 0 0 5 0 0 1 0 0 2 0 0 5 0 0 1 0 0 2 0 0 5 0 0 3 0 0 4 0 0 2 0 0 1 0 0 3 0 0 2 0 0 0 0 0 2 0 0 
2 0 0 4 0 0 5 0 0 9 0 0 3 0 0 2 0 0 4 0 0 2 0 0 1 0 0 3 0 0 9 0 0 4 0 0 7 0 0 1 0 0 9 0 0 11 0 0 7 0 0 8 0 0 13 0 0 10 0 0 3 0 0 4 0 0 7 0 0 11 0 0 6 0 0 9 0 0 7 0 0 8 0 0 7 0 0 7 0 0 4 0 0 5 0 0 6 0 0 9 0 0 18 0 0 7 0 0 7 0 0 6 0 0 0 0 0 8 0 0 4 0 0 7 0 0 9 0 0 4 0 0 5 0 0 7 0 0 5 0 0 7 0 0 6 0 0 7 0 0 10 0 0 5 0 0 5 0 0 7 0 0 7 0 0 4 0 0 2 0 0 7 0 0 7 0 0 6 0 0 
0 0 0 4 0 0 3 0 0 6 0 0 5 0 0 3 0 0 3 0 0 5 0 0 8 0 0 4 0 0 5 0 0 11 0 0 5 0 0 2 0 0 6 0 0 6 0 0 9 0 0 6 0 0 6 0 0 13 0 0 7 0 0 8 0 0 12 0 0 10 0 0 9 0 0 10 0 0 7 0 0 4 0 0 7 0 0 7 0 0 4 0 0 11 0 0 6 0 0 4 0 0 11 0 0 9 0 0 6 0 0 8 0 0 12 0 0 9 0 0 6 0 0 9 0 0 7 0 0 6 0 0 12 0 0 11 0 0 3 0 0 7 0 0 8 0 0 8 0 0 11 0 0 5 0 0 13 0 0 8 0 0 3 0 0 2 0 0 9 0 0 9 0 0 3 0 0 2 0 0 
2 0 0 3 0 0 11 0 0 5 0 0 3 0 0 3 0 0 2 0 0 0 0 0 7 0 0 11 0 0 8 0 0 10 0 0 9 0 0 9 0 0 11 0 0 5 0 0 12 0 0 12 0 0 8 0 0 8 0 0 7 0 0 10 0 0 11 0 0 11 0 0 10 0 0 5 0 0 11 0 0 5 0 0 6 0 0 12 0 0 10 0 0 11 0 0 7 0 0 10 0 0 9 0 0 11 0 0 12 0 0 12 0 0 11 0 0 8 0 0 9 0 0 9 0 0 11 0 0 7 0 0 8 0 0 9 0 0 10 0 0 11 0 0 11 0 0 7 0 0 12 0 0 7 0 0 7 0 0 4 0 0 0 0 0 2 0 0 8 0 0 5 0 0 0 0 0 3 0 0 
1 0 0 3 0 0 2 0 0 8 0 0 4 0 0 4 0 0 4 0 0 4 0 0 6 0 0 4 0 0 6 0 0 11 0 0 10 0 0 10 0 0 12 0 0 13 0 0 5 0 0 10 0 0 14 0 0 9 0 0 10 0 0 6 0 0 13 0 0 11 0 0 14 0 0 7 0 0 11 0 0 10 0 0 4 0 0 16 0 0 7 0 0 12 0 0 5 0 0 11 0 0 14 0 0 12 0 0 9 0 0 13 0 0 15 0 0 13 0 0 14 0 0 11 0 0 7 0 0 12 0 0 10 0 0 17 0 0 10 0 0 7 0 0 11 0 0 12 0 0 15 0 0 4 0 0 7 0 0 6 0 0 1 0 0 1 0 0 4 0 0 2 0 0 5 0 0 4 0 0 
2 0 0 4 0 0 5 0 0 3 0 0 5 0 0 2 0 0 2 0 0 5 0 0 7 0 0 5 0 0 10 0 0 7 0 0 7 0 0 11 0 0 11 0 0 21 0 0 5 0 0 10 0 0 14 0 0 15 0 0 17 0 0 6 0 0 5 0 0 18 0 0 12 0 0 13 0 0 16 0 0 11 0 0 17 0 0 13 0 0 17 0 0 12 0 0 5 0 0 15 0 0 14 0 0 8 0 0 14 0 0 14 0 0 14 0 0 18 0 0 12 0 0 14 0 0 10 0 0 13 0 0 10 0 0 15 0 0 11 0 0 9 0 0 16 0 0 19 0 0 7 0 0 11 0 0 7 0 0 2 0 0 2 0 0 4 0 0 3 0 0 4 0 0 3 0 0 5 0 0 
4 0 0 8 0 0 5 0 0 7 0 0 8 0 0 9 0 0 8 0 0 6 0 0 7 0 0 3 0 0 9 0 0 10 0 0 9 0 0 11 0 0 8 0 0 15 0 0 11 0 0 18 0 0 12 0 0 14 0 0 17 0 0 8 0 0 4 0 0 12 0 0 12 0 0 10 0 0 19 0 0 20 0 0 18 0 0 26 0 0 20 0 0 14 0 0 10 0 0 14 0 0 17 0 0 18 0 0 14 0 0 13 0 0 15 0 0 20 0 0 23 0 0 16 0 0 12 0 0 21 0 0 8 0 0 15 0 0 18 0 0 12 0 0 14 0 0 17 0 0 12 0 0 9 0 0 9 0 0 2 0 0 7 0 0 6 0 0 1 0 0 3 0 0 2 0 0 1 0 0 
4 0 0 9 0 0 7 0 0 2 0 0 6 0 0 9 0 0 11 0 0 10 0 0 14 0 0 15 0 0 16 0 0 14 0 0 14 0 0 14 0 0 16 0 0 23 0 0 11 0 0 21 0 0 15 0 0 20 0 0 20 0 0 16 0 0 11 0 0 13 0 0 24 0 0 21 0 0 18 0 0 24 0 0 18 0 0 20 0 0 16 0 0 16 0 0 15 0 0 22 0 0 16 0 0 12 0 0 21 0 0 18 0 0 21 0 0 22 0 0 21 0 0 17 0 0 12 0 0 25 0 0 8 0 0 12 0 0 15 0 0 20 0 0 13 0 0 15 0 0 15 0 0 12 0 0 7 0 0 9 0 0 5 0 0 3 0 0 2 0 0 3 0 0 5 0 0 6 0 0 
1 0 0 7 0 0 12 0 0 12 0 0 8 0 0 10 0 0 9 0 0 17 0 0 13 0 0 10 0 0 12 0 0 18 0 0 26 0 0 15 0 0 26 0 0 23 0 0 22 0 0 24 0 0 21 0 0 24 0 0 23 0 0 20 0 0 14 0 0 16 0 0 31 0 0 28 0 0 27 0 0 26 0 0 25 0 0 26 0 0 27 0 0 21 0 0 33 0 0 25 0 0 22 0 0 22 0 0 24 0 0 22 0 0 28 0 0 27 0 0 24 0 0 18 0 0 29 0 0 20 0 0 13 0 0 21 0 0 29 0 0 21 0 0 23 0 0 19 0 0 17 0 0 19 0 0 12 0 0 12 0 0 8 0 0 6 0 0 9 0 0 4 0 0 2 0 0 2 0 0 
0 0 0 1 0 0 5 0 0 8 0 0 7 0 0 8 0 0 8 0 0 12 0 0 20 0 0 18 0 0 49 0 0 83 0 0 103 0 0 92 0 0 108 0 0 92 0 0 91 0 0 82 0 0 90 0 0 91 0 0 106 0 0 88 0 0 96 0 0 86 0 0 94 0 0 94 0 0 96 0 0 92 0 0 99 0 0 103 0 0 94 0 0 99 0 0 91 0 0 95 0 0 74 0 0 92 0 0 90 0 0 94 0 0 83 0 0 85 0 0 90 0 0 96 0 0 87 0 0 94 0 0 86 0 0 91 0 0 100 0 0 106 0 0 101 0 0 82 0 0 58 0 0 14 0 0 13 0 0 7 0 0 12 0 0 17 0 0 10 0 0 1 0 0 4 0 0 4 0 0 
3 0 0 5 0 0 2 0 0 4 0 0 5 0 0 7 0 0 7 0 0 7 0 0 17 0 0 55 0 0 3327 0 0 6627 0 0 6775 0 0 6718 0 0 6690 0 0 6691 0 0 6620 0 0 6693 0 0 6849 0 0 6734 0 0 6667 0 0 6612 0 0 6643 0 0 6814 0 0 6783 0 0 6735 0 0 6775 0 0 6592 0 0 6757 0 0 6793 0 0 6693 0 0 6774 0 0 6702 0 0 6778 0 0 6899 0 0 6692 0 0 6633 0 0 6730 0 0 6778 0 0 6753 0 0 6613 0 0 6638 0 0 6715 0 0 6739 0 0 6621 0 0 6771 0 0 6674 0 0 6676 0 0 6600 0 0 6584 0 0 3321 0 0 48 0 0 16 0 0 19 0 0 14 0 0 6 0 0 3 0 0 4 0 0 5 0 0 4 0 0 
4 0 0 6 0 0 5 0 0 5 0 0 7 0 0 9 0 0 12 0 0 9 0 0 15 0 0 91 0 0 6709 0 0 13187 0 0 13351 0 0 13391 0 0 13166 0 0 13297 0 0 13291 0 0 13296 0 0 13272 0 0 13517 0 0 13297 0 0 13399 0 0 13237 0 0 13449 0 0 13367 0 0 13406 0 0 13249 0 0 13456 0 0 13429 0 0 13223 0 0 13310 0 0 13400 0 0 13430 0 0 13297 0 0 13311 0 0 13399 0 0 13249 0 0 13314 0 0 13432 0 0 13453 0 0 13398 0 0 13258 0 0 13388 0 0 13480 0 0 13252 0 0 13279 0 0 13297 0 0 13317 0 0 13338 0 0 13168 0 0 6637 0 0 77 0 0 20 0 0 8 0 0 10 0 0 8 0 0 5 0 0 3 0 0 6 0 0 5 0 0 
1 0 0 12 0 0 10 0 0 10 0 0 10 0 0 7 0 0 13 0 0 15 0 0 12 0 0 79 0 0 6657 0 0 13381 0 0 13277 0 0 13503 0 0 13611 0 0 13362 0 0 13550 0 0 13348 0 0 13551 0 0 13406 0 0 13466 0 0 13431 0 0 13492 0 0 13461 0 0 13363 0 0 13302 0 0 13330 0 0 13506 0 0 13528 0 0 13292 0 0 13463 0 0 13499 0 0 13253 0 0 13328 0 0 13314 0 0 13241 0 0 13391 0 0 13457 0 0 13272 0 0 13323 0 0 13378 0 0 13366 0 0 13347 0 0 13435 0 0 13427 0 0 13382 0 0 13263 0 0 13265 0 0 13477 0 0 13109 0 0 6762 0 0 90 0 0 17 0 0 18 0 0 11 0 0 12 0 0 10 0 0 9 0 0 8 0 0 6 0 0 
3 0 0 5 0 0 6 0 0 10 0 0 7 0 0 8 0 0 7 0 0 12 0 0 19 0 0 85 0 0 6783 0 0 13267 0 0 13392 0 0 13325 0 0 13319 0 0 13489 0 0 13331 0 0 13210 0 0 13495 0 0 13489 0 0 13530 0 0 13423 0 0 13409 0 0 13646 0 0 13526 0 0 13350 0 0 13391 0 0 13469 0 0 13151 0 0 13537 0 0 13452 0 0 13464 0 0 13448 0 0 13267 0 0 13455 0 0 13358 0 0 13342 0 0 13502 0 0 13342 0 0 13357 0 0 13471 0 0 13452 0 0 13348 0 0 13382 0 0 13467 0 0 13476 0 0 13377 0 0 13439 0 0 13465 0 0 13338 0 0 6564 0 0 88 0 0 19 0 0 12 0 0 8 0 0 8 0 0 11 0 0 10 0 0 8 0 0 9 0 0 
2 0 0 8 0 0 12 0 0 13 0 0 12 0 0 14 0 0 15 0 0 16 0 0 24 0 0 86 0 0 6814 0 0 13351 0 0 13498 0 0 13148 0 0 13269 0 0 13394 0 0 13354 0 0 13504 0 0 13317 0 0 13440 0 0 13239 0 0 13526 0 0 13573 0 0 13222 0 0 13364 0 0 13359 0 0 13348 0 0 13591 0 0 13407 0 0 13440 0 0 13302 0 0 13524 0 0 13414 0 0 13470 0 0 13598 0 0 13366 0 0 13241 0 0 13659 0 0 13534 0 0 13260 0 0 13436 0 0 13128 0 0 13259 0 0 13321 0 0 13339 0 0 13352 0 0 13477 0 0 13446 0 0 13346 0 0 13203 0 0 6782 0 0 94 0 0 14 0 0 12 0 0 12 0 0 15 0 0 7 0 0 4 0 0 6 0 0 5 0 0 
2 0 0 5 0 0 10 0 0 6 0 0 14 0 0 16 0 0 16 0 0 20 0 0 21 0 0 87 0 0 6767 0 0 13338 0 0 13270 0 0 13193 0 0 13316 0 0 13578 0 0 13553 0 0 13253 0 0 13481 0 0 13435 0 0 13432 0 0 13317 0 0 13228 0 0 13232 0 0 13461 0 0 13409 0 0 13292 0 0 13469 0 0 13662 0 0 13325 0 0 13391 0 0 13439 0 0 13312 0 0 13397 0 0 13312 0 0 13335 0 0 13359 0 0 13300 0 0 13392 0 0 13446 0 0 13491 0 0 13438 0 0 13502 0 0 13456 0 0 13308 0 0 13328 0 0 13387 0 0 13410 0 0 13318 0 0 13358 0 0 6678 0 0 93 0 0 18 0 0 14 0 0 15 0 0 10 0 0 11 0 0 9 0 0 8 0 0 10 0 0 
2 0 0 7 0 0 12 0 0 11 0 0 9 0 0 9 0 0 14 0 0 22 0 0 17 0 0 88 0 0 6697 0 0 13230 0 0 13543 0 0 13384 0 0 13257 0 0 13381 0 0 13343 0 0 13356 0 0 13426 0 0 13504 0 0 13425 0 0 13472 0 0 13542 0 0 13368 0 0 13369 0 0 13358 0 0 13350 0 0 13412 0 0 13282 0 0 13444 0 0 13462 0 0 13262 0 0 13267 0 0 13347 0 0 13496 0 0 13208 0 0 13345 0 0 13393 0 0 13370 0 0 13377 0 0 13414 0 0 13512 0 0 13348 0 0 13387 0 0 13548 0 0 13317 0 0 13474 0 0 13407 0 0 13266 0 0 13467 0 0 6740 0 0 89 0 0 21 0 0 19 0 0 19 0 0 13 0 0 13 0 0 9 0 0 11 0 0 10 0 0 
1 0 0 4 0 0 7 0 0 7 0 0 10 0 0 7 0 0 10 0 0 19 0 0 20 0 0 98 0 0 6733 0 0 13425 0 0 13457 0 0 13347 0 0 13327 0 0 13395 0 0 13445 0 0 13213 0 0 13253 0 0 13600 0 0 13504 0 0 13354 0 0 13496 0 0 13268 0 0 13435 0 0 13253 0 0 13180 0 0 13435 0 0 13544 0 0 13607 0 0 13488 0 0 13589 0 0 13290 0 0 13420 0 0 13525 0 0 13541 0 0 13491 0 0 13386 0 0 13466 0 0 13559 0 0 13283 0 0 13501 0 0 13197 0 0 13282 0 0 13691 0 0 13252 0 0 13509 0 0 13341 0 0 13411 0 0 13343 0 0 6741 0 0 96 0 0 24 0 0 14 0 0 10 0 0 13 0 0 11 0 0 11 0 0 10 0 0 6 0 0 
8 0 0 12 0 0 7 0 0 12 0 0 8 0 0 18 0 0 14 0 0 18 0 0 21 0 0 101 0 0 6668 0 0 13383 0 0 13521 0 0 13222 0 0 13322 0 0 13589 0 0 13370 0 0 13401 0 0 13435 0 0 13452 0 0 13382 0 0 13487 0 0 13278 0 0 13231 0 0 13497 0 0 13536 0 0 13296 0 0 13300 0 0 13407 0 0 13378 0 0 13485 0 0 13461 0 0 13548 0 0 13448 0 0 13436 0 0 13439 0 0 13523 0 0 13437 0 0 13403 0 0 13417 0 0 13395 0 0 13375 0 0 13414 0 0 13268 0 0 13469 0 0 13384 0 0 13129 0 0 13565 0 0 13452 0 0 13332 0 0 6711 0 0 86 0 0 22 0 0 17 0 0 13 0 0 12 0 0 10 0 0 7 0 0 7 0 0 11 0 0 
5 0 0 5 0 0 8 0 0 8 0 0 11 0 0 13 0 0 12 0 0 17 0 0 17 0 0 87 0 0 6857 0 0 13310 0 0 13348 0 0 13294 0 0 13410 0 0 13500 0 0 13441 0 0 13359 0 0 13397 0 0 13453 0 0 13472 0 0 13552 0 0 13358 0 0 13412 0 0 13442 0 0 13494 0 0 13559 0 0 13322 0 0 13487 0 0 13343 0 0 13395 0 0 13309 0 0 13572 0 0 13521 0 0 13531 0 0 13372 0 0 13567 0 0 13554 0 0 13457 0 0 13453 0 0 13379 0 0 13371 0 0 13247 0 0 13330 0 0 13565 0 0 13489 0 0 13543 0 0 13505 0 0 13509 0 0 13365 0 0 6714 0 0 100 0 0 21 0 0 20 0 0 15 0 0 24 0 0 13 0 0 6 0 0 7 0 0 7 0 0 
6 0 0 10 0 0 7 0 0 5 0 0 11 0 0 11 0 0 12 0 0 14 0 0 19 0 0 103 0 0 6818 0 0 13199 0 0 13268 0 0 13594 0 0 13316 0 0 13403 0 0 13376 0 0 13413 0 0 13289 0 0 13291 0 0 13458 0 0 13375 0 0 13293 0 0 13510 0 0 13593 0 0 13346 0 0 13607 0 0 13519 0 0 13466 0 0 13345 0 0 13244 0 0 13312 0 0 13600 0 0 13227 0 0 13540 0 0 13198 0 0 13520 0 0 13383 0 0 13311 0 0 13387 0 0 13467 0 0 13222 0 0 13523 0 0 13395 0 0 13557 0 0 13408 0 0 13435 0 0 13502 0 0 13354 0 0 13485 0 0 6816 0 0 105 0 0 25 0 0 23 0 0 18 0 0 13 0 0 6 0 0 12 0 0 8 0 0 10 0 0 
2 0 0 5 0 0 9 0 0 8 0 0 10 0 0 12 0 0 16 0 0 17 0 0 25 0 0 101 0 0 6747 0 0 13154 0 0 13472 0 0 13471 0 0 13417 0 0 13276 0 0 13364 0 0 13277 0 0 13447 0 0 13525 0 0 13321 0 0 13412 0 0 13345 0 0 13472 0 0 13557 0 0 13403 0 0 13254 0 0 13254 0 0 13423 0 0 13447 0 0 13472 0 0 13377 0 0 13558 0 0 13497 0 0 13456 0 0 13393 0 0 13442 0 0 13326 0 0 13422 0 0 13373 0 0 13353 0 0 13537 0 0 13254 0 0 13521 0 0 13252 0 0 13430 0 0 13330 0 0 13419 0 0 13387 0 0 13320 0 0 6686 0 0 103 0 0 23 0 0 15 0 0 12 0 0 13 0 0 11 0 0 11 0 0 4 0 0 4 0 0 
3 0 0 5 0 0 8 0 0 8 0 0 10 0 0 11 0 0 14 0 0 21 0 0 19 0 0 84 0 0 6888 0 0 13265 0 0 13559 0 0 13478 0 0 13482 0 0 13542 0 0 13441 0 0 13489 0 0 13332 0 0 13335 0 0 13397 0 0 13324 0 0 13369 0 0 13295 0 0 13506 0 0 13447 0 0 13479 0 0 13433 0 0 13398 0 0 13244 0 0 13551 0 0 13468 0 0 13346 0 0 13351 0 0 13388 0 0 13352 0 0 13359 0 0 13522 0 0 13497 0 0 13411 0 0 13559 0 0 13322 0 0 13406 0 0 13433 0 0 13326 0 0 13389 0 0 13310 0 0 13596 0 0 13354 0 0 13447 0 0 6750 0 0 93 0 0 19 0 0 19 0 0 18 0 0 10 0 0 4 0 0 9 0 0 12 0 0 11 0 0 
1 0 0 5 0 0 13 0 0 9 0 0 10 0 0 11 0 0 12 0 0 18 0 0 24 0 0 93 0 0 6731 0 0 13308 0 0 13425 0 0 13449 0 0 13312 0 0 13443 0 0 13416 0 0 13551 0 0 13393 0 0 13404 0 0 13523 0 0 13299 0 0 13566 0 0 13388 0 0 13366 0 0 13423 0 0 13388 0 0 13335 0 0 13465 0 0 13428 0 0 13463 0 0 13324 0 0 13444 0 0 13216 0 0 13302 0 0 13363 0 0 13250 0 0 13455 0 0 13493 0 0 13556 0 0 13441 0 0 13429 0 0 13665 0 0 13386 0 0 13416 0 0 13518 0 0 13299 0 0 13372 0 0 13243 0 0 13222 0 0 6759 0 0 95 0 0 16 0 0 16 0 0 13 0 0 15 0 0 13 0 0 5 0 0 7 0 0 6 0 0 
4 0 0 6 0 0 10 0 0 11 0 0 12 0 0 9 0 0 12 0 0 10 0 0 23 0 0 94 0 0 6685 0 0 13202 0 0 13451 0 0 13426 0 0 13391 0 0 13428 0 0 13411 0 0 13539 0 0 13176 0 0 13426 0 0 13522 0 0 13467 0 0 13575 0 0 13455 0 0 13484 0 0 13493 0 0 13418 0 0 13337 0 0 13262 0 0 13411 0 0 13520 0 0 13298 0 0 13461 0 0 13523 0 0 13575 0 0 13388 0 0 13410 0 0 13315 0 0 13341 0 0 13381 0 0 13546 0 0 13410 0 0 13308 0 0 13527 0 0 13452 0 0 13457 0 0 13350 0 0 13426 0 0 13572 0 0 13459 0 0 6593 0 0 74 0 0 21 0 0 14 0 0 16 0 0 14 0 0 14 0 0 12 0 0 5 0 0 3 0 0 
10 0 0 12 0 0 10 0 0 13 0 0 10 0 0 12 0 0 13 0 0 16 0 0 17 0 0 99 0 0 6696 0 0 13310 0 0 13330 0 0 13490 0 0 13276 0 0 13368 0 0 13435 0 0 13462 0 0 13431 0 0 13297 0 0 13607 0 0 13593 0 0 13466 0 0 13364 0 0 13479 0 0 13640 0 0 13552 0 0 13461 0 0 13322 0 0 13374 0 0 13572 0 0 13285 0 0 13334 0 0 13479 0 0 13341 0 0 13513 0 0 13340 0 0 13431 0 0 13417 0 0 13302 0 0 13284 0 0 13397 0 0 13556 0 0 13392 0 0 13280 0 0 13419 0 0 13544 0 0 13524 0 0 13283 0 0 13419 0 0 6751 0 0 83 0 0 17 0 0 12 0 0 16 0 0 10 0 0 8 0 0 11 0 0 9 0 0 7 0 0 
2 0 0 11 0 0 11 0 0 8 0 0 10 0 0 13 0 0 16 0 0 13 0 0 22 0 0 105 0 0 6691 0 0 13100 0 0 13477 0 0 13497 0 0 13295 0 0 13492 0 0 13259 0 0 13504 0 0 13348 0 0 13393 0 0 13266 0 0 13353 0 0 13372 0 0 13322 0 0 13119 0 0 13553 0 0 13374 0 0 13472 0 0 13540 0 0 13507 0 0 13533 0 0 13416 0 0 13242 0 0 13591 0 0 13510 0 0 13363 0 0 13456 0 0 13546 0 0 13344 0 0 13278 0 0 13459 0 0 13132 0 0 13322 0 0 13425 0 0 13411 0 0 13388 0 0 13405 0 0 13459 0 0 13296 0 0 13350 0 0 6613 0 0 93 0 0 20 0 0 16 0 0 13 0 0 17 0 0 11 0 0 7 0 0 9 0 0 7 0 0 
5 0 0 6 0 0 5 0 0 11 0 0 16 0 0 25 0 0 18 0 0 32 0 0 33 0 0 92 0 0 6649 0 0 13253 0 0 13365 0 0 13360 0 0 13565 0 0 13556 0 0 13355 0 0 13377 0 0 13509 0 0 13346 0 0 13244 0 0 13331 0 0 13270 0 0 13402 0 0 13505 0 0 13579 0 0 13341 0 0 13404 0 0 13580 0 0 13469 0 0 13559 0 0 13424 0 0 13308 0 0 13431 0 0 13551 0 0 13482 0 0 13220 0 0 13365 0 0 13414 0 0 13429 0 0 13215 0 0 13414 0 0 13509 0 0 13500 0 0 13408 0 0 13341 0 0 13463 0 0 13348 0 0 13356 0 0 13271 0 0 6812 0 0 108 0 0 28 0 0 17 0 0 16 0 0 16 0 0 12 0 0 12 0 0 9 0 0 7 0 0 
2 0 0 9 0 0 9 0 0 7 0 0 10 0 0 16 0 0 25 0 0 24 0 0 28 0 0 86 0 0 6740 0 0 13227 0 0 13562 0 0 13166 0 0 13340 0 0 13299 0 0 13453 0 0 13477 0 0 13533 0 0 13190 0 0 13561 0 0 13383 0 0 13338 0 0 13474 0 0 13296 0 0 13413 0 0 13608 0 0 13400 0 0 13506 0 0 13320 0 0 13274 0 0 13464 0 0 13460 0 0 13390 0 0 13566 0 0 13342 0 0 13480 0 0 13356 0 0 13515 0 0 13378 0 0 13495 0 0 13349 0 0 13233 0 0 13325 0 0 13350 0 0 13347 0 0 13287 0 0 13492 0 0 13586 0 0 13280 0 0 6625 0 0 102 0 0 21 0 0 11 0 0 16 0 0 9 0 0 10 0 0 13 0 0 7 0 0 6 0 0 
3 0 0 7 0 0 9 0 0 12 0 0 7 0 0 12 0 0 15 0 0 21 0 0 28 0 0 92 0 0 6722 0 0 13418 0 0 13267 0 0 13305 0 0 13355 0 0 13312 0 0 13526 0 0 13378 0 0 13466 0 0 13435 0 0 13299 0 0 13488 0 0 13328 0 0 13354 0 0 13369 0 0 13515 0 0 13274 0 0 13547 0 0 13313 0 0 13373 0 0 13296 0 0 13206 0 0 13688 0 0 13407 0 0 13519 0 0 13536 0 0 13497 0 0 13438 0 0 13525 0 0 13225 0 0 13333 0 0 13376 0 0 13426 0 0 13335 0 0 13322 0 0 13329 0 0 13452 0 0 13292 0 0 13235 0 0 13316 0 0 6720 0 0 105 0 0 24 0 0 20 0 0 12 0 0 5 0 0 10 0 0 14 0 0 18 0 0 12 0 0 
6 0 0 7 0 0 9 0 0 9 0 0 15 0 0 17 0 0 13 0 0 22 0 0 32 0 0 102 0 0 6822 0 0 13336 0 0 13244 0 0 13305 0 0 13310 0 0 13516 0 0 13492 0 0 13371 0 0 13328 0 0 13579 0 0 13473 0 0 13404 0 0 13398 0 0 13380 0 0 13558 0 0 13721 0 0 13451 0 0 13622 0 0 13353 0 0 13398 0 0 13314 0 0 13466 0 0 13572 0 0 13466 0 0 13374 0 0 13682 0 0 13348 0 0 13560 0 0 13399 0 0 13383 0 0 13260 0 0 13446 0 0 13309 0 0 13490 0 0 13348 0 0 13382 0 0 13384 0 0 13413 0 0 13431 0 0 13358 0 0 6756 0 0 104 0 0 33 0 0 24 0 0 14 0 0 8 0 0 6 0 0 6 0 0 9 0 0 10 0 0 
3 0 0 6 0 0 9 0 0 8 0 0 13 0 0 13 0 0 15 0 0 17 0 0 24 0 0 101 0 0 6668 0 0 13329 0 0 13316 0 0 13653 0 0 13255 0 0 13543 0 0 13640 0 0 13477 0 0 13393 0 0 13518 0 0 13204 0 0 13424 0 0 13433 0 0 13116 0 0 13425 0 0 13484 0 0 13365 0 0 13468 0 0 13238 0 0 13546 0 0 13556 0 0 13361 0 0 13467 0 0 13387 0 0 13437 0 0 13400 0 0 13468 0 0 13312 0 0 13371 0 0 13480 0 0 13406 0 0 13461 0 0 13329 0 0 13461 0 0 13332 0 0 13328 0 0 13363 0 0 13484 0 0 13505 0 0 13349 0 0 6770 0 0 102 0 0 26 0 0 18 0 0 15 0 0 22 0 0 18 0 0 21 0 0 13 0 0 13 0 0 
2 0 0 7 0 0 11 0 0 8 0 0 8 0 0 17 0 0 29 0 0 14 0 0 26 0 0 106 0 0 6849 0 0 13276 0 0 13315 0 0 13531 0 0 13278 0 0 13474 0 0 13464 0 0 13465 0 0 13634 0 0 13450 0 0 13305 0 0 13561 0 0 13459 0 0 13512 0 0 13562 0 0 13294 0 0 13433 0 0 13383 0 0 13465 0 0 13190 0 0 13510 0 0 13377 0 0 13319 0 0 13478 0 0 13385 0 0 13360 0 0 13429 0 0 13323 0 0 13475 0 0 13511 0 0 13665 0 0 13517 0 0 13390 0 0 13473 0 0 13257 0 0 13408 0 0 13391 0 0 13420 0 0 13519 0 0 13338 0 0 6685 0 0 89 0 0 24 0 0 16 0 0 12 0 0 10 0 0 15 0 0 15 0 0 15 0 0 12 0 0 
2 0 0 5 0 0 7 0 0 9 0 0 13 0 0 15 0 0 16 0 0 15 0 0 17 0 0 94 0 0 6741 0 0 13322 0 0 13520 0 0 13324 0 0 13521 0 0 13550 0 0 13349 0 0 13285 0 0 13399 0 0 13324 0 0 13388 0 0 13479 0 0 13434 0 0 13424 0 0 13394 0 0 13332 0 0 13548 0 0 13386 0 0 13336 0 0 13235 0 0 13310 0 0 13456 0 0 13407 0 0 13300 0 0 13396 0 0 13374 0 0 13471 0 0 13560 0 0 13340 0 0 13335 0 0 13569 0 0 13363 0 0 13470 0 0 13446 0 0 13496 0 0 13396 0 0 13468 0 0 13460 0 0 13298 0 0 13232 0 0 6687 0 0 90 0 0 25 0 0 19 0 0 24 0 0 16 0 0 19 0 0 13 0 0 17 0 0 19 0 0 
4 0 0 9 0 0 8 0 0 10 0 0 12 0 0 15 0 0 20 0 0 21 0 0 24 0 0 93 0 0 6654 0 0 13466 0 0 13536 0 0 13443 0 0 13347 0 0 13411 0 0 13425 0 0 13447 0 0 13363 0 0 13483 0 0 13262 0 0 13292 0 0 13220 0 0 13710 0 0 13464 0 0 13348 0 0 13411 0 0 13487 0 0 13344 0 0 13407 0 0 13482 0 0 13268 0 0 13408 0 0 13357 0 0 13512 0 0 13517 0 0 13644 0 0 13283 0 0 13327 0 0 13319 0 0 13532 0 0 13352 0 0 13436 0 0 13303 0 0 13340 0 0 13351 0 0 13391 0 0 13610 0 0 13381 0 0 13302 0 0 6837 0 0 97 0 0 25 0 0 19 0 0 12 0 0 13 0 0 9 0 0 11 0 0 12 0 0 12 0 0 
4 0 0 8 0 0 9 0 0 4 0 0 5 0 0 11 0 0 14 0 0 11 0 0 19 0 0 99 0 0 6790 0 0 13295 0 0 13488 0 0 13320 0 0 13425 0 0 13344 0 0 13400 0 0 13507 0 0 13333 0 0 13447 0 0 13579 0 0 13278 0 0 13356 0 0 13397 0 0 13321 0 0 13506 0 0 13687 0 0 13324 0 0 13421 0 0 13400 0 0 13388 0 0 13338 0 0 13445 0 0 13569 0 0 13465 0 0 13403 0 0 13382 0 0 13470 0 0 13508 0 0 13292 0 0 13410 0 0 13131 0 0 13272 0 0 13510 0 0 13436 0 0 13459 0 0 13348 0 0 13354 0 0 13414 0 0 13371 0 0 6712 0 0 84 0 0 19 0 0 18 0 0 24 0 0 20 0 0 14 0 0 9 0 0 6 0 0 11 0 0 
3 0 0 12 0 0 13 0 0 12 0 0 17 0 0 18 0 0 13 0 0 13 0 0 21 0 0 90 0 0 6761 0 0 13237 0 0 13419 0 0 13335 0 0 13417 0 0 13328 0 0 13402 0 0 13453 0 0 13311 0 0 13417 0 0 13389 0 0 13437 0 0 13334 0 0 13343 0 0 13614 0 0 13496 0 0 13397 0 0 13490 0 0 13278 0 0 13488 0 0 13351 0 0 13394 0 0 13482 0 0 13416 0 0 13521 0 0 13540 0 0 13539 0 0 13595 0 0 13433 0 0 13376 0 0 13337 0 0 13315 0 0 13306 0 0 13236 0 0 13482 0 0 13429 0 0 13529 0 0 13531 0 0 13451 0 0 13252 0 0 6776 0 0 99 0 0 25 0 0 23 0 0 20 0 0 12 0 0 14 0 0 17 0 0 14 0 0 7 0 0 
3 0 0 5 0 0 12 0 0 9 0 0 6 0 0 10 0 0 18 0 0 22 0 0 18 0 0 88 0 0 6827 0 0 13365 0 0 13407 0 0 13351 0 0 13397 0 0 13404 0 0 13552 0 0 13297 0 0 13428 0 0 13207 0 0 13669 0 0 13478 0 0 13446 0 0 13593 0 0 13214 0 0 13419 0 0 13428 0 0 13435 0 0 13165 0 0 13594 0 0 13390 0 0 13554 0 0 13469 0 0 13520 0 0 13633 0 0 13382 0 0 13386 0 0 13337 0 0 13351 0 0 13478 0 0 13474 0 0 13330 0 0 13484 0 0 13317 0 0 13325 0 0 13328 0 0 13214 0 0 13517 0 0 13518 0 0 13351 0 0 6708 0 0 92 0 0 21 0 0 22 0 0 15 0 0 22 0 0 14 0 0 11 0 0 9 0 0 8 0 0 
3 0 0 11 0 0 16 0 0 13 0 0 15 0 0 13 0 0 12 0 0 11 0 0 24 0 0 91 0 0 6645 0 0 13304 0 0 13371 0 0 13335 0 0 13424 0 0 13408 0 0 13503 0 0 13563 0 0 13459 0 0 13361 0 0 13480 0 0 13397 0 0 13292 0 0 13364 0 0 13287 0 0 13198 0 0 13379 0 0 13412 0 0 13143 0 0 13294 0 0 13438 0 0 13372 0 0 13273 0 0 13608 0 0 13452 0 0 13411 0 0 13244 0 0 13496 0 0 13429 0 0 13351 0 0 13479 0 0 13392 0 0 13380 0 0 13367 0 0 13388 0 0 13471 0 0 13343 0 0 13250 0 0 13340 0 0 13323 0 0 6738 0 0 99 0 0 18 0 0 22 0 0 20 0 0 18 0 0 15 0 0 14 0 0 11 0 0 7 0 0 
5 0 0 11 0 0 7 0 0 8 0 0 12 0 0 13 0 0 17 0 0 26 0 0 26 0 0 91 0 0 6736 0 0 13322 0 0 13375 0 0 13263 0 0 13411 0 0 13427 0 0 13325 0 0 13490 0 0 13433 0 0 13212 0 0 13386 0 0 13661 0 0 13530 0 0 13456 0 0 13279 0 0 13463 0 0 13398 0 0 13404 0 0 13523 0 0 13401 0 0 13488 0 0 13384 0 0 13440 0 0 13223 0 0 13534 0 0 13458 0 0 13262 0 0 13431 0 0 13418 0 0 13461 0 0 13386 0 0 13504 0 0 13347 0 0 13325 0 0 13555 0 0 13595 0 0 13383 0 0 13312 0 0 13317 0 0 13202 0 0 6752 0 0 93 0 0 20 0 0 15 0 0 12 0 0 12 0 0 12 0 0 7 0 0 8 0 0 9 0 0 
4 0 0 6 0 0 2 0 0 8 0 0 12 0 0 12 0 0 14 0 0 23 0 0 24 0 0 96 0 0 6838 0 0 13293 0 0 13371 0 0 13377 0 0 13369 0 0 13443 0 0 13544 0 0 13132 0 0 13342 0 0 13477 0 0 13308 0 0 13626 0 0 13416 0 0 13565 0 0 13441 0 0 13338 0 0 13478 0 0 13429 0 0 13387 0 0 13273 0 0 13346 0 0 13390 0 0 13451 0 0 13533 0 0 13445 0 0 13313 0 0 13375 0 0 13528 0 0 13508 0 0 13583 0 0 13383 0 0 13326 0 0 13391 0 0 13469 0 0 13330 0 0 13351 0 0 13437 0 0 13412 0 0 13536 0 0 13456 0 0 6884 0 0 90 0 0 16 0 0 18 0 0 20 0 0 14 0 0 11 0 0 12 0 0 10 0 0 5 0 0 
3 0 0 5 0 0 5 0 0 6 0 0 10 0 0 14 0 0 21 0 0 26 0 0 24 0 0 97 0 0 6628 0 0 13335 0 0 13616 0 0 13349 0 0 13363 0 0 13439 0 0 13543 0 0 13382 0 0 13308 0 0 13350 0 0 13363 0 0 13551 0 0 13405 0 0 13349 0 0 13513 0 0 13273 0 0 13416 0 0 13433 0 0 13358 0 0 13381 0 0 13486 0 0 13175 0 0 13441 0 0 13408 0 0 13501 0 0 13306 0 0 13533 0 0 13443 0 0 13411 0 0 13416 0 0 13375 0 0 13455 0 0 13530 0 0 13589 0 0 13473 0 0 13389 0 0 13447 0 0 13615 0 0 13402 0 0 13298 0 0 6814 0 0 96 0 0 24 0 0 22 0 0 14 0 0 12 0 0 7 0 0 9 0 0 12 0 0 8 0 0 
0 0 0 4 0 0 5 0 0 9 0 0 8 0 0 10 0 0 13 0 0 13 0 0 21 0 0 103 0 0 6646 0 0 13239 0 0 13383 0 0 13446 0 0 13489 0 0 13392 0 0 13203 0 0 13515 0 0 13390 0 0 13273 0 0 13384 0 0 13432 0 0 13539 0 0 13330 0 0 13502 0 0 13434 0 0 13320 0 0 13350 0 0 13420 0 0 13401 0 0 13391 0 0 13340 0 0 13407 0 0 13495 0 0 13404 0 0 13662 0 0 13366 0 0 13209 0 0 13480 0 0 13375 0 0 13389 0 0 13425 0 0 13584 0 0 13348 0 0 13292 0 0 13499 0 0 13567 0 0 13353 0 0 13475 0 0 13466 0 0 6738 0 0 111 0 0 29 0 0 19 0 0 21 0 0 15 0 0 15 0 0 14 0 0 12 0 0 7 0 0 
2 0 0 2 0 0 9 0 0 11 0 0 9 0 0 10 0 0 19 0 0 18 0 0 27 0 0 110 0 0 6766 0 0 13246 0 0 13292 0 0 13524 0 0 13349 0 0 13465 0 0 13404 0 0 13415 0 0 13487 0 0 13312 0 0 13455 0 0 13402 0 0 13360 0 0 13474 0 0 13493 0 0 13290 0 0 13492 0 0 13311 0 0 13455 0 0 13417 0 0 13364 0 0 13365 0 0 13335 0 0 13276 0 0 13513 0 0 13293 0 0 13268 0 0 13277 0 0 13316 0 0 13266 0 0 13375 0 0 13454 0 0 13518 0 0 13378 0 0 13395 0 0 13405 0 0 13442 0 0 13395 0 0 13364 0 0 13365 0 0 6656 0 0 102 0 0 25 0 0 14 0 0 10 0 0 12 0 0 9 0 0 4 0 0 9 0 0 7 0 0 
2 0 0 8 0 0 6 0 0 8 0 0 7 0 0 10 0 0 12 0 0 18 0 0 33 0 0 104 0 0 6734 0 0 13128 0 0 13375 0 0 13429 0 0 13483 0 0 13478 0 0 13403 0 0 13433 0 0 13545 0 0 13182 0 0 13355 0 0 13352 0 0 13482 0 0 13283 0 0 13362 0 0 13501 0 0 13365 0 0 13285 0 0 13560 0 0 13367 0 0 13288 0 0 13489 0 0 13535 0 0 13654 0 0 13561 0 0 13379 0 0 13458 0 0 13397 0 0 13440 0 0 13377 0 0 13379 0 0 13356 0 0 13351 0 0 13426 0 0 13382 0 0 13535 0 0 13255 0 0 13292 0 0 13371 0 0 13086 0 0 6679 0 0 97 0 0 18 0 0 15 0 0 12 0 0 12 0 0 11 0 0 12 0 0 8 0 0 5 0 0 
1 0 0 5 0 0 7 0 0 7 0 0 14 0 0 18 0 0 13 0 0 23 0 0 18 0 0 98 0 0 6646 0 0 13282 0 0 13335 0 0 13439 0 0 13516 0 0 13560 0 0 13392 0 0 13368 0 0 13416 0 0 13476 0 0 13365 0 0 13353 0 0 13375 0 0 13447 0 0 13296 0 0 13384 0 0 13411 0 0 13468 0 0 13499 0 0 13364 0 0 13348 0 0 13457 0 0 13342 0 0 13315 0 0 13389 0 0 13307 0 0 13566 0 0 13373 0 0 13366 0 0 13327 0 0 13258 0 0 13311 0 0 13339 0 0 13467 0 0 13458 0 0 13526 0 0 13383 0 0 13396 0 0 13425 0 0 13251 0 0 6677 0 0 106 0 0 28 0 0 15 0 0 14 0 0 10 0 0 11 0 0 10 0 0 7 0 0 7 0 0 
3 0 0 8 0 0 8 0 0 11 0 0 13 0 0 20 0 0 19 0 0 21 0 0 20 0 0 97 0 0 6673 0 0 13412 0 0 13222 0 0 13417 0 0 13344 0 0 13352 0 0 13391 0 0 13447 0 0 13417 0 0 13449 0 0 13481 0 0 13309 0 0 13382 0 0 13371 0 0 13432 0 0 13593 0 0 13538 0 0 13431 0 0 13569 0 0 13541 0 0 13431 0 0 13518 0 0 13423 0 0 13317 0 0 13401 0 0 13400 0 0 13255 0 0 13329 0 0 13284 0 0 13032 0 0 13368 0 0 13364 0 0 13560 0 0 13465 0 0 13544 0 0 13487 0 0 13283 0 0 13416 0 0 13477 0 0 13328 0 0 6732 0 0 99 0 0 30 0 0 19 0 0 14 0 0 9 0 0 9 0 0 11 0 0 8 0 0 8 0 0 
3 0 0 5 0 0 9 0 0 8 0 0 8 0 0 15 0 0 15 0 0 21 0 0 24 0 0 104 0 0 6684 0 0 13209 0 0 13296 0 0 13408 0 0 13421 0 0 13375 0 0 13398 0 0 13366 0 0 13362 0 0 13483 0 0 13490 0 0 13353 0 0 13482 0 0 13387 0 0 13383 0 0 13356 0 0 13264 0 0 13303 0 0 13535 0 0 13404 0 0 13306 0 0 13397 0 0 13413 0 0 13380 0 0 13534 0 0 13491 0 0 13440 0 0 13284 0 0 13349 0 0 13383 0 0 13416 0 0 13600 0 0 13390 0 0 13490 0 0 13389 0 0 13283 0 0 13284 0 0 13356 0 0 13335 0 0 13331 0 0 6729 0 0 88 0 0 24 0 0 14 0 0 12 0 0 12 0 0 11 0 0 11 0 0 9 0 0 12 0 0 
0 0 0 5 0 0 8 0 0 8 0 0 12 0 0 13 0 0 12 0 0 11 0 0 19 0 0 86 0 0 6555 0 0 13344 0 0 13268 0 0 13433 0 0 13337 0 0 13411 0 0 13374 0 0 13244 0 0 13356 0 0 13509 0 0 13395 0 0 13451 0 0 13596 0 0 13413 0 0 13404 0 0 13308 0 0 13513 0 0 13681 0 0 13386 0 0 13309 0 0 13261 0 0 13188 0 0 13275 0 0 13350 0 0 13360 0 0 13472 0 0 13464 0 0 13358 0 0 13562 0 0 13355 0 0 13378 0 0 13270 0 0 13524 0 0 13225 0 0 13649 0 0 13337 0 0 13375 0 0 13674 0 0 13328 0 0 13364 0 0 6757 0 0 81 0 0 14 0 0 17 0 0 11 0 0 13 0 0 10 0 0 6 0 0 6 0 0 6 0 0 
1 0 0 3 0 0 5 0 0 10 0 0 16 0 0 10 0 0 9 0 0 11 0 0 14 0 0 85 0 0 6674 0 0 13196 0 0 13426 0 0 13292 0 0 13341 0 0 13336 0 0 13294 0 0 13259 0 0 13460 0 0 13243 0 0 13263 0 0 13200 0 0 13363 0 0 13252 0 0 13169 0 0 13376 0 0 13272 0 0 13185 0 0 13302 0 0 13469 0 0 13391 0 0 13517 0 0 13442 0 0 13460 0 0 13345 0 0 13298 0 0 13206 0 0 13464 0 0 13467 0 0 13295 0 0 13365 0 0 13401 0 0 13363 0 0 13392 0 0 13378 0 0 13312 0 0 13162 0 0 13239 0 0 13290 0 0 13216 0 0 6566 0 0 74 0 0 15 0 0 14 0 0 11 0 0 13 0 0 12 0 0 7 0 0 5 0 0 3 0 0 
0 0 0 5 0 0 6 0 0 8 0 0 5 0 0 8 0 0 10 0 0 12 0 0 14 0 0 48 0 0 3327 0 0 6731 0 0 6576 0 0 6767 0 0 6729 0 0 6834 0 0 6799 0 0 6651 0 0 6784 0 0 6805 0 0 6779 0 0 6638 0 0 6706 0 0 6692 0 0 6666 0 0 6718 0 0 6676 0 0 6839 0 0 6765 0 0 6742 0 0 6648 0 0 6742 0 0 6667 0 0 6692 0 0 6706 0 0 6694 0 0 6779 0 0 6807 0 0 6719 0 0 6770 0 0 6684 0 0 6743 0 0 6805 0 0 6708 0 0 6737 0 0 6811 0 0 6768 0 0 6641 0 0 6642 0 0 6644 0 0 3386 0 0 43 0 0 12 0 0 12 0 0 12 0 0 9 0 0 10 0 0 9 0 0 8 0 0 7 0 0 
0 0 0 2 0 0 8 0 0 9 0 0 7 0 0 10 0 0 14 0 0 15 0 0 11 0 0 14 0 0 47 0 0 86 0 0 80 0 0 85 0 0 99 0 0 97 0 0 83 0 0 106 0 0 110 0 0 91 0 0 95 0 0 96 0 0 102 0 0 94 0 0 104 0 0 99 0 0 99 0 0 99 0 0 97 0 0 101 0 0 91 0 0 88 0 0 97 0 0 82 0 0 92 0 0 92 0 0 100 0 0 94 0 0 96 0 0 107 0 0 104 0 0 92 0 0 101 0 0 77 0 0 87 0 0 110 0 0 93 0 0 86 0 0 71 0 0 76 0 0 44 0 0 19 0 0 14 0 0 9 0 0 8 0 0 11 0 0 10 0 0 8 0 0 9 0 0 4 0 0 
2 0 0 10 0 0 10 0 0 5 0 0 8 0 0 12 0 0 4 0 0 7 0 0 6 0 0 13 0 0 12 0 0 12 0 0 11 0 0 8 0 0 20 0 0 18 0 0 20 0 0 19 0 0 21 0 0 19 0 0 21 0 0 31 0 0 31 0 0 33 0 0 24 0 0 22 0 0 22 0 0 28 0 0 24 0 0 21 0 0 21 0 0 22 0 0 32 0 0 29 0 0 22 0 0 26 0 0 24 0 0 24 0 0 23 0 0 23 0 0 35 0 0 22 0 0 15 0 0 20 0 0 24 0 0 26 0 0 21 0 0 16 0 0 13 0 0 10 0 0 5 0 0 10 0 0 15 0 0 12 0 0 5 0 0 4 0 0 8 0 0 6 0 0 6 0 0 7 0 0 
2 0 0 6 0 0 6 0 0 4 0 0 5 0 0 3 0 0 2 0 0 9 0 0 8 0 0 18 0 0 15 0 0 12 0 0 6 0 0 11 0 0 13 0 0 14 0 0 11 0 0 24 0 0 20 0 0 19 0 0 22 0 0 15 0 0 18 0 0 22 0 0 23 0 0 18 0 0 20 0 0 19 0 0 15 0 0 11 0 0 21 0 0 16 0 0 20 0 0 23 0 0 16 0 0 23 0 0 9 0 0 18 0 0 18 0 0 22 0 0 16 0 0 8 0 0 20 0 0 16 0 0 20 0 0 20 0 0 19 0 0 13 0 0 11 0 0 8 0 0 6 0 0 10 0 0 10 0 0 9 0 0 4 0 0 3 0 0 6 0 0 3 0 0 5 0 0 3 0 0 
3 0 0 3 0 0 3 0 0 6 0 0 4 0 0 2 0 0 7 0 0 5 0 0 10 0 0 12 0 0 11 0 0 9 0 0 11 0 0 14 0 0 9 0 0 14 0 0 12 0 0 19 0 0 19 0 0 13 0 0 15 0 0 10 0 0 21 0 0 19 0 0 16 0 0 12 0 0 17 0 0 15 0 0 11 0 0 15 0 0 22 0 0 17 0 0 13 0 0 15 0 0 20 0 0 15 0 0 12 0 0 13 0 0 16 0 0 15 0 0 11 0 0 14 0 0 11 0 0 8 0 0 9 0 0 15 0 0 18 0 0 18 0 0 7 0 0 7 0 0 9 0 0 9 0 0 12 0 0 8 0 0 6 0 0 5 0 0 4 0 0 4 0 0 3 0 0 3 0 0 
0 0 0 3 0 0 2 0 0 3 0 0 2 0 0 1 0 0 4 0 0 10 0 0 10 0 0 11 0 0 9 0 0 9 0 0 7 0 0 6 0 0 8 0 0 16 0 0 10 0 0 8 0 0 16 0 0 16 0 0 13 0 0 11 0 0 16 0 0 14 0 0 15 0 0 12 0 0 11 0 0 14 0 0 12 0 0 11 0 0 15 0 0 18 0 0 14 0 0 7 0 0 16 0 0 10 0 0 11 0 0 10 0 0 17 0 0 13 0 0 6 0 0 11 0 0 12 0 0 13 0 0 9 0 0 11 0 0 14 0 0 15 0 0 16 0 0 10 0 0 5 0 0 13 0 0 8 0 0 12 0 0 5 0 0 4 0 0 3 0 0 3 0 0 4 0 0 4 0 0 
2 0 0 4 0 0 4 0 0 2 0 0 1 0 0 5 0 0 10 0 0 11 0 0 11 0 0 11 0 0 11 0 0 7 0 0 7 0 0 11 0 0 9 0 0 11 0 0 10 0 0 11 0 0 17 0 0 11 0 0 10 0 0 16 0 0 14 0 0 10 0 0 6 0 0 11 0 0 12 0 0 9 0 0 12 0 0 10 0 0 12 0 0 16 0 0 12 0 0 7 0 0 7 0 0 8 0 0 12 0 0 9 0 0 12 0 0 13 0 0 7 0 0 5 0 0 10 0 0 7 0 0 7 0 0 7 0 0 11 0 0 9 0 0 14 0 0 6 0 0 6 0 0 7 0 0 11 0 0 9 0 0 7 0 0 6 0 0 5 0 0 4 0 0 3 0 0 6 0 0 
2 0 0 2 0 0 3 0 0 4 0 0 2 0 0 9 0 0 6 0 0 6 0 0 6 0 0 11 0 0 7 0 0 4 0 0 5 0 0 6 0 0 5 0 0 11 0 0 8 0 0 6 0 0 9 0 0 7 0 0 16 0 0 10 0 0 13 0 0 10 0 0 9 0 0 8 0 0 11 0 0 9 0 0 10 0 0 8 0 0 8 0 0 13 0 0 11 0 0 12 0 0 5 0 0 12 0 0 7 0 0 10 0 0 8 0 0 9 0 0 7 0 0 6 0 0 5 0 0 7 0 0 8 0 0 10 0 0 8 0 0 14 0 0 6 0 0 3 0 0 5 0 0 4 0 0 6 0 0 4 0 0 9 0 0 5 0 0 6 0 0 9 0 0 6 0 0 3 0 0 
0 0 0 1 0 0 3 0 0 3 0 0 4 0 0 3 0 0 7 0 0 4 0 0 6 0 0 5 0 0 7 0 0 3 0 0 8 0 0 3 0 0 6 0 0 6 0 0 4 0 0 7 0 0 5 0 0 3 0 0 8 0 0 13 0 0 6 0 0 12 0 0 7 0 0 11 0 0 6 0 0 8 0 0 8 0 0 3 0 0 7 0 0 9 0 0 12 0 0 13 0 0 6 0 0 8 0 0 9 0 0 10 0 0 7 0 0 6 0 0 8 0 0 7 0 0 4 0 0 8 0 0 9 0 0 6 0 0 10 0 0 10 0 0 9 0 0 4 0 0 1 0 0 2 0 0 5 0 0 2 0 0 3 0 0 3 0 0 3 0 0 6 0 0 10 0 0 5 0 0 
0 0 0 2 0 0 5 0 0 4 0 0 2 0 0 5 0 0 2 0 0 1 0 0 3 0 0 6 0 0 5 0 0 2 0 0 7 0 0 8 0 0 1 0 0 7 0 0 7 0 0 6 0 0 3 0 0 4 0 0 8 0 0 12 0 0 4 0 0 13 0 0 10 0 0 3 0 0 8 0 0 4 0 0 4 0 0 5 0 0 5 0 0 8 0 0 8 0 0 8 0 0 7 0 0 10 0 0 9 0 0 6 0 0 6 0 0 8 0 0 5 0 0 3 0 0 8 0 0 10 0 0 6 0 0 7 0 0 7 0 0 8 0 0 11 0 0 7 0 0 6 0 0 0 0 0 5 0 0 2 0 0 1 0 0 6 0 0 3 0 0 1 0 0 5 0 0 4 0 0 
