P3
# This is a dose file slice at depth 8 of 100
60 60
# now we give the maximum value of the RGB coordinates.
21610
0 0 0 1 0 0 0 0 0 2 0 0 0 0 0 0 0 0 3 0 0 1 0 0 1 0 0 1 0 0 3 0 0 5 0 0 2 0 0 3 0 0 4 0 0 2 0 0 2 0 0 1 0 0 5 0 0 1 0 0 1 0 0 3 0 0 3 0 0 4 0 0 3 0 0 2 0 0 4 0 0 4 0 0 3 0 0 4 0 0 3 0 0 5 0 0 5 0 0 5 0 0 7 0 0 2 0 0 3 0 0 5 0 0 3 0 0 7 0 0 3 0 0 3 0 0 4 0 0 1 0 0 2 0 0 2 0 0 4 0 0 2 0 0 2 0 0 1 0 0 2 0 0 1 0 0 4 0 0 4 0 0 1 0 0 4 0 0 1 0 0 2 0 0 0 0 0 3 0 0 
1 0 0 3 0 0 3 0 0 3 0 0 4 0 0 1 0 0 3 0 0 8 0 0 3 0 0 4 0 0 5 0 0 5 0 0 7 0 0 9 0 0 6 0 0 7 0 0 5 0 0 8 0 0 9 0 0 3 0 0 7 0 0 5 0 0 10 0 0 7 0 0 14 0 0 5 0 0 9 0 0 14 0 0 8 0 0 12 0 0 10 0 0 10 0 0 13 0 0 9 0 0 14 0 0 5 0 0 10 0 0 8 0 0 12 0 0 7 0 0 8 0 0 8 0 0 8 0 0 3 0 0 3 0 0 5 0 0 8 0 0 5 0 0 4 0 0 3 0 0 4 0 0 3 0 0 6 0 0 7 0 0 5 0 0 6 0 0 4 0 0 3 0 0 5 0 0 5 0 0 
0 0 0 3 0 0 3 0 0 5 0 0 4 0 0 5 0 0 4 0 0 5 0 0 5 0 0 4 0 0 9 0 0 13 0 0 5 0 0 9 0 0 12 0 0 10 0 0 10 0 0 10 0 0 8 0 0 6 0 0 7 0 0 8 0 0 15 0 0 9 0 0 8 0 0 12 0 0 8 0 0 21 0 0 8 0 0 11 0 0 12 0 0 13 0 0 13 0 0 11 0 0 9 0 0 6 0 0 12 0 0 9 0 0 10 0 0 7 0 0 12 0 0 6 0 0 7 0 0 9 0 0 6 0 0 4 0 0 14 0 0 4 0 0 8 0 0 0 0 0 6 0 0 3 0 0 6 0 0 7 0 0 8 0 0 5 0 0 8 0 0 3 0 0 7 0 0 7 0 0 
0 0 0 1 0 0 2 0 0 7 0 0 10 0 0 7 0 0 4 0 0 6 0 0 8 0 0 9 0 0 10 0 0 12 0 0 10 0 0 12 0 0 11 0 0 7 0 0 11 0 0 12 0 0 8 0 0 12 0 0 6 0 0 7 0 0 15 0 0 12 0 0 8 0 0 16 0 0 17 0 0 12 0 0 16 0 0 8 0 0 6 0 0 15 0 0 13 0 0 15 0 0 15 0 0 13 0 0 12 0 0 13 0 0 10 0 0 9 0 0 9 0 0 10 0 0 12 0 0 11 0 0 7 0 0 8 0 0 13 0 0 2 0 0 8 0 0 5 0 0 8 0 0 7 0 0 5 0 0 12 0 0 5 0 0 6 0 0 5 0 0 2 0 0 9 0 0 6 0 0 
2 0 0 3 0 0 1 0 0 2 0 0 8 0 0 11 0 0 6 0 0 8 0 0 9 0 0 12 0 0 12 0 0 12 0 0 11 0 0 9 0 0 16 0 0 9 0 0 11 0 0 12 0 0 9 0 0 8 0 0 10 0 0 12 0 0 11 0 0 18 0 0 13 0 0 23 0 0 19 0 0 13 0 0 13 0 0 7 0 0 10 0 0 12 0 0 20 0 0 17 0 0 14 0 0 14 0 0 10 0 0 12 0 0 7 0 0 12 0 0 11 0 0 14 0 0 14 0 0 13 0 0 7 0 0 13 0 0 14 0 0 7 0 0 8 0 0 7 0 0 4 0 0 3 0 0 9 0 0 7 0 0 6 0 0 9 0 0 6 0 0 4 0 0 4 0 0 2 0 0 
0 0 0 3 0 0 2 0 0 4 0 0 5 0 0 8 0 0 12 0 0 8 0 0 11 0 0 14 0 0 13 0 0 13 0 0 12 0 0 8 0 0 12 0 0 8 0 0 8 0 0 12 0 0 15 0 0 12 0 0 11 0 0 13 0 0 11 0 0 19 0 0 15 0 0 23 0 0 25 0 0 22 0 0 15 0 0 15 0 0 19 0 0 19 0 0 19 0 0 23 0 0 14 0 0 13 0 0 11 0 0 14 0 0 19 0 0 12 0 0 13 0 0 16 0 0 13 0 0 12 0 0 12 0 0 15 0 0 19 0 0 8 0 0 9 0 0 9 0 0 9 0 0 7 0 0 9 0 0 10 0 0 16 0 0 8 0 0 4 0 0 4 0 0 7 0 0 9 0 0 
2 0 0 1 0 0 4 0 0 3 0 0 6 0 0 6 0 0 10 0 0 11 0 0 11 0 0 10 0 0 14 0 0 11 0 0 19 0 0 17 0 0 11 0 0 13 0 0 17 0 0 14 0 0 13 0 0 18 0 0 16 0 0 21 0 0 20 0 0 16 0 0 14 0 0 18 0 0 22 0 0 24 0 0 15 0 0 19 0 0 22 0 0 18 0 0 15 0 0 19 0 0 16 0 0 14 0 0 18 0 0 8 0 0 18 0 0 19 0 0 19 0 0 19 0 0 20 0 0 13 0 0 11 0 0 19 0 0 12 0 0 9 0 0 15 0 0 7 0 0 9 0 0 7 0 0 8 0 0 10 0 0 6 0 0 4 0 0 5 0 0 4 0 0 5 0 0 6 0 0 
3 0 0 7 0 0 1 0 0 4 0 0 10 0 0 14 0 0 8 0 0 13 0 0 11 0 0 9 0 0 15 0 0 16 0 0 18 0 0 17 0 0 12 0 0 23 0 0 27 0 0 23 0 0 15 0 0 20 0 0 18 0 0 30 0 0 19 0 0 22 0 0 22 0 0 16 0 0 25 0 0 31 0 0 28 0 0 27 0 0 20 0 0 20 0 0 18 0 0 19 0 0 16 0 0 17 0 0 22 0 0 17 0 0 22 0 0 18 0 0 20 0 0 18 0 0 16 0 0 17 0 0 18 0 0 21 0 0 14 0 0 15 0 0 15 0 0 9 0 0 11 0 0 11 0 0 10 0 0 12 0 0 7 0 0 3 0 0 3 0 0 2 0 0 10 0 0 9 0 0 
5 0 0 8 0 0 7 0 0 6 0 0 3 0 0 6 0 0 8 0 0 11 0 0 11 0 0 16 0 0 5 0 0 14 0 0 17 0 0 21 0 0 21 0 0 31 0 0 26 0 0 24 0 0 33 0 0 23 0 0 27 0 0 31 0 0 26 0 0 34 0 0 27 0 0 29 0 0 32 0 0 28 0 0 38 0 0 35 0 0 35 0 0 18 0 0 20 0 0 26 0 0 30 0 0 29 0 0 37 0 0 30 0 0 30 0 0 35 0 0 22 0 0 24 0 0 22 0 0 30 0 0 26 0 0 28 0 0 24 0 0 23 0 0 22 0 0 12 0 0 16 0 0 11 0 0 13 0 0 5 0 0 7 0 0 8 0 0 5 0 0 10 0 0 9 0 0 4 0 0 
2 0 0 6 0 0 9 0 0 5 0 0 8 0 0 9 0 0 8 0 0 6 0 0 12 0 0 17 0 0 52 0 0 99 0 0 113 0 0 109 0 0 100 0 0 107 0 0 112 0 0 114 0 0 118 0 0 99 0 0 128 0 0 107 0 0 126 0 0 124 0 0 111 0 0 119 0 0 120 0 0 126 0 0 116 0 0 134 0 0 114 0 0 122 0 0 107 0 0 123 0 0 106 0 0 117 0 0 120 0 0 106 0 0 116 0 0 125 0 0 123 0 0 132 0 0 112 0 0 105 0 0 127 0 0 123 0 0 90 0 0 110 0 0 107 0 0 105 0 0 72 0 0 23 0 0 12 0 0 12 0 0 12 0 0 12 0 0 14 0 0 11 0 0 8 0 0 6 0 0 
4 0 0 10 0 0 7 0 0 7 0 0 9 0 0 6 0 0 9 0 0 10 0 0 21 0 0 56 0 0 4556 0 0 9106 0 0 9192 0 0 9276 0 0 9243 0 0 9340 0 0 9167 0 0 9062 0 0 9080 0 0 9241 0 0 9173 0 0 8992 0 0 9100 0 0 9182 0 0 9121 0 0 9185 0 0 9269 0 0 9074 0 0 9268 0 0 9190 0 0 9161 0 0 9085 0 0 9167 0 0 9199 0 0 9149 0 0 9080 0 0 9182 0 0 9021 0 0 9190 0 0 9103 0 0 9111 0 0 9189 0 0 9109 0 0 9288 0 0 9016 0 0 9074 0 0 9079 0 0 9124 0 0 9112 0 0 8993 0 0 4586 0 0 58 0 0 15 0 0 12 0 0 14 0 0 9 0 0 8 0 0 7 0 0 5 0 0 4 0 0 
4 0 0 9 0 0 8 0 0 8 0 0 4 0 0 7 0 0 9 0 0 9 0 0 13 0 0 93 0 0 9053 0 0 18095 0 0 18363 0 0 18213 0 0 18018 0 0 18163 0 0 18211 0 0 18274 0 0 18220 0 0 18187 0 0 18159 0 0 18153 0 0 18191 0 0 18270 0 0 18172 0 0 18197 0 0 18199 0 0 17985 0 0 18219 0 0 18229 0 0 18248 0 0 18115 0 0 18092 0 0 18011 0 0 18066 0 0 18077 0 0 18033 0 0 18119 0 0 18061 0 0 18108 0 0 17946 0 0 18161 0 0 18134 0 0 18178 0 0 18135 0 0 18188 0 0 18117 0 0 18210 0 0 18115 0 0 18027 0 0 9128 0 0 99 0 0 20 0 0 21 0 0 13 0 0 13 0 0 15 0 0 12 0 0 6 0 0 4 0 0 
3 0 0 8 0 0 14 0 0 11 0 0 9 0 0 9 0 0 9 0 0 12 0 0 21 0 0 114 0 0 9055 0 0 18287 0 0 18284 0 0 18327 0 0 18347 0 0 18246 0 0 18207 0 0 18074 0 0 18307 0 0 18351 0 0 18340 0 0 18125 0 0 18340 0 0 18367 0 0 18151 0 0 18219 0 0 18360 0 0 18233 0 0 17981 0 0 18307 0 0 18306 0 0 18196 0 0 18151 0 0 17983 0 0 18291 0 0 18459 0 0 18257 0 0 18189 0 0 18387 0 0 18008 0 0 18245 0 0 18465 0 0 18208 0 0 18229 0 0 18143 0 0 18060 0 0 18359 0 0 18265 0 0 18385 0 0 18082 0 0 9170 0 0 108 0 0 30 0 0 24 0 0 14 0 0 11 0 0 7 0 0 4 0 0 3 0 0 0 0 0 
5 0 0 11 0 0 13 0 0 12 0 0 15 0 0 12 0 0 12 0 0 12 0 0 19 0 0 102 0 0 9156 0 0 18281 0 0 18349 0 0 18333 0 0 18308 0 0 18159 0 0 18425 0 0 18266 0 0 18317 0 0 18238 0 0 18366 0 0 18257 0 0 18225 0 0 18383 0 0 18404 0 0 18225 0 0 18566 0 0 18463 0 0 18406 0 0 18343 0 0 18063 0 0 18446 0 0 18261 0 0 18388 0 0 18199 0 0 18244 0 0 18381 0 0 18307 0 0 18322 0 0 18258 0 0 18363 0 0 18366 0 0 18135 0 0 18346 0 0 18013 0 0 18380 0 0 18388 0 0 18308 0 0 18327 0 0 18315 0 0 9111 0 0 122 0 0 26 0 0 18 0 0 14 0 0 8 0 0 4 0 0 2 0 0 5 0 0 3 0 0 
4 0 0 5 0 0 11 0 0 13 0 0 9 0 0 11 0 0 15 0 0 19 0 0 24 0 0 128 0 0 9192 0 0 18012 0 0 18141 0 0 18348 0 0 18198 0 0 18337 0 0 18084 0 0 18104 0 0 18296 0 0 18277 0 0 18305 0 0 18136 0 0 18210 0 0 18251 0 0 18268 0 0 18490 0 0 18196 0 0 18368 0 0 18150 0 0 18087 0 0 18233 0 0 18169 0 0 18193 0 0 18176 0 0 18228 0 0 18243 0 0 18128 0 0 18358 0 0 18452 0 0 18253 0 0 18159 0 0 18292 0 0 18370 0 0 18104 0 0 18197 0 0 18242 0 0 18323 0 0 18026 0 0 18199 0 0 18159 0 0 9230 0 0 120 0 0 29 0 0 13 0 0 11 0 0 10 0 0 5 0 0 6 0 0 6 0 0 6 0 0 
4 0 0 7 0 0 10 0 0 22 0 0 19 0 0 17 0 0 19 0 0 15 0 0 22 0 0 104 0 0 9184 0 0 18131 0 0 18308 0 0 18396 0 0 18343 0 0 18157 0 0 18196 0 0 18563 0 0 18197 0 0 18436 0 0 18433 0 0 18322 0 0 18249 0 0 18305 0 0 18369 0 0 18050 0 0 18369 0 0 18406 0 0 18177 0 0 18358 0 0 18277 0 0 18506 0 0 18329 0 0 18253 0 0 18059 0 0 18224 0 0 18315 0 0 18372 0 0 18320 0 0 18336 0 0 18363 0 0 18240 0 0 18208 0 0 18268 0 0 18406 0 0 18282 0 0 18308 0 0 18326 0 0 18365 0 0 18176 0 0 9178 0 0 127 0 0 24 0 0 19 0 0 14 0 0 10 0 0 7 0 0 8 0 0 11 0 0 12 0 0 
4 0 0 9 0 0 9 0 0 11 0 0 17 0 0 12 0 0 16 0 0 24 0 0 34 0 0 131 0 0 9084 0 0 18243 0 0 18358 0 0 18283 0 0 18190 0 0 18409 0 0 18123 0 0 18056 0 0 18054 0 0 18046 0 0 18270 0 0 18334 0 0 18106 0 0 18237 0 0 18397 0 0 18374 0 0 18380 0 0 18327 0 0 18349 0 0 18241 0 0 18365 0 0 18378 0 0 18558 0 0 18150 0 0 18512 0 0 18191 0 0 18381 0 0 18219 0 0 18161 0 0 18228 0 0 18035 0 0 18323 0 0 18339 0 0 18239 0 0 18529 0 0 18305 0 0 18263 0 0 18346 0 0 18387 0 0 18318 0 0 9170 0 0 110 0 0 22 0 0 26 0 0 17 0 0 12 0 0 12 0 0 12 0 0 12 0 0 12 0 0 
1 0 0 10 0 0 7 0 0 10 0 0 13 0 0 18 0 0 19 0 0 24 0 0 26 0 0 106 0 0 9170 0 0 18125 0 0 18163 0 0 18304 0 0 18224 0 0 18546 0 0 18106 0 0 18185 0 0 18152 0 0 18251 0 0 18508 0 0 18333 0 0 18396 0 0 18331 0 0 18312 0 0 18148 0 0 18141 0 0 18108 0 0 18447 0 0 18250 0 0 18279 0 0 18401 0 0 18331 0 0 18290 0 0 18055 0 0 18372 0 0 18224 0 0 18199 0 0 18450 0 0 18327 0 0 18012 0 0 18167 0 0 18337 0 0 18326 0 0 18182 0 0 18498 0 0 18295 0 0 18255 0 0 18260 0 0 18051 0 0 9040 0 0 117 0 0 18 0 0 17 0 0 16 0 0 15 0 0 12 0 0 8 0 0 10 0 0 8 0 0 
6 0 0 7 0 0 7 0 0 2 0 0 10 0 0 14 0 0 20 0 0 28 0 0 32 0 0 130 0 0 9153 0 0 18217 0 0 18141 0 0 18272 0 0 18328 0 0 18361 0 0 18313 0 0 18182 0 0 18402 0 0 18384 0 0 18256 0 0 18376 0 0 18323 0 0 18239 0 0 18395 0 0 18135 0 0 18206 0 0 18207 0 0 18366 0 0 18248 0 0 18509 0 0 18451 0 0 18303 0 0 18289 0 0 18223 0 0 18388 0 0 18302 0 0 18329 0 0 18421 0 0 18349 0 0 18093 0 0 18237 0 0 18475 0 0 18355 0 0 18344 0 0 18033 0 0 18347 0 0 18306 0 0 18351 0 0 18175 0 0 9206 0 0 120 0 0 26 0 0 23 0 0 13 0 0 10 0 0 7 0 0 12 0 0 9 0 0 7 0 0 
1 0 0 6 0 0 12 0 0 12 0 0 12 0 0 9 0 0 16 0 0 19 0 0 24 0 0 105 0 0 9254 0 0 18077 0 0 18179 0 0 18321 0 0 18421 0 0 18111 0 0 18182 0 0 18249 0 0 18253 0 0 18267 0 0 18380 0 0 18385 0 0 18379 0 0 18228 0 0 18206 0 0 18018 0 0 18288 0 0 18316 0 0 18168 0 0 18169 0 0 18388 0 0 18242 0 0 18195 0 0 18227 0 0 18364 0 0 18213 0 0 18349 0 0 18433 0 0 18257 0 0 18323 0 0 18186 0 0 18322 0 0 18245 0 0 18302 0 0 18418 0 0 18094 0 0 18486 0 0 18330 0 0 18266 0 0 18217 0 0 9099 0 0 126 0 0 24 0 0 15 0 0 13 0 0 10 0 0 12 0 0 9 0 0 5 0 0 5 0 0 
3 0 0 12 0 0 9 0 0 7 0 0 9 0 0 15 0 0 23 0 0 22 0 0 29 0 0 128 0 0 9128 0 0 18247 0 0 18184 0 0 18109 0 0 18159 0 0 18300 0 0 18200 0 0 18318 0 0 18004 0 0 18196 0 0 18261 0 0 18153 0 0 18362 0 0 18512 0 0 18159 0 0 18170 0 0 18335 0 0 18326 0 0 18314 0 0 18179 0 0 18211 0 0 18281 0 0 18344 0 0 18226 0 0 18194 0 0 18140 0 0 18219 0 0 18177 0 0 18415 0 0 18372 0 0 18381 0 0 18430 0 0 18235 0 0 18283 0 0 18366 0 0 18192 0 0 18092 0 0 18601 0 0 18387 0 0 18192 0 0 9307 0 0 126 0 0 22 0 0 20 0 0 13 0 0 6 0 0 9 0 0 9 0 0 7 0 0 8 0 0 
4 0 0 9 0 0 10 0 0 9 0 0 11 0 0 22 0 0 24 0 0 27 0 0 26 0 0 110 0 0 9196 0 0 18076 0 0 18103 0 0 18285 0 0 18289 0 0 18106 0 0 18196 0 0 18185 0 0 18348 0 0 18166 0 0 18366 0 0 18362 0 0 18296 0 0 18360 0 0 18258 0 0 18337 0 0 18217 0 0 18208 0 0 18106 0 0 18229 0 0 18202 0 0 18356 0 0 18380 0 0 18213 0 0 18458 0 0 18222 0 0 18214 0 0 18342 0 0 18329 0 0 18213 0 0 18373 0 0 18252 0 0 18502 0 0 18315 0 0 18294 0 0 18304 0 0 18159 0 0 18160 0 0 18050 0 0 18296 0 0 9016 0 0 113 0 0 23 0 0 16 0 0 17 0 0 13 0 0 11 0 0 10 0 0 7 0 0 6 0 0 
0 0 0 6 0 0 9 0 0 9 0 0 15 0 0 12 0 0 21 0 0 20 0 0 28 0 0 119 0 0 9175 0 0 18086 0 0 18291 0 0 18358 0 0 18276 0 0 18265 0 0 18160 0 0 17996 0 0 18081 0 0 18227 0 0 18371 0 0 18237 0 0 18368 0 0 18137 0 0 18428 0 0 18157 0 0 18205 0 0 18333 0 0 18355 0 0 18271 0 0 18332 0 0 18361 0 0 18422 0 0 18243 0 0 18353 0 0 18360 0 0 18305 0 0 18170 0 0 18363 0 0 18541 0 0 18201 0 0 18306 0 0 18373 0 0 18317 0 0 18385 0 0 18322 0 0 18300 0 0 18156 0 0 18109 0 0 18192 0 0 9246 0 0 132 0 0 34 0 0 24 0 0 20 0 0 21 0 0 10 0 0 7 0 0 11 0 0 12 0 0 
5 0 0 8 0 0 10 0 0 5 0 0 14 0 0 19 0 0 19 0 0 24 0 0 34 0 0 120 0 0 9122 0 0 18166 0 0 18207 0 0 18171 0 0 18304 0 0 18364 0 0 18129 0 0 18208 0 0 18382 0 0 18157 0 0 18409 0 0 18470 0 0 18241 0 0 18422 0 0 18342 0 0 18178 0 0 18352 0 0 18247 0 0 18333 0 0 18314 0 0 18298 0 0 18397 0 0 18121 0 0 18055 0 0 18214 0 0 18383 0 0 18190 0 0 18353 0 0 18222 0 0 18196 0 0 18387 0 0 18609 0 0 18276 0 0 18193 0 0 18166 0 0 18137 0 0 18074 0 0 18192 0 0 18184 0 0 18252 0 0 9112 0 0 127 0 0 31 0 0 25 0 0 26 0 0 13 0 0 12 0 0 18 0 0 15 0 0 12 0 0 
3 0 0 5 0 0 7 0 0 14 0 0 11 0 0 13 0 0 21 0 0 30 0 0 31 0 0 109 0 0 9250 0 0 18202 0 0 18240 0 0 18290 0 0 18255 0 0 18243 0 0 18337 0 0 18220 0 0 18437 0 0 17979 0 0 18211 0 0 18273 0 0 18296 0 0 18287 0 0 18246 0 0 18265 0 0 18350 0 0 18380 0 0 18074 0 0 18222 0 0 18433 0 0 18375 0 0 18279 0 0 18150 0 0 18310 0 0 18204 0 0 18352 0 0 18270 0 0 18241 0 0 18406 0 0 18320 0 0 18196 0 0 18312 0 0 18383 0 0 18509 0 0 18131 0 0 18106 0 0 18138 0 0 18240 0 0 18248 0 0 9092 0 0 101 0 0 22 0 0 22 0 0 13 0 0 16 0 0 7 0 0 7 0 0 11 0 0 8 0 0 
6 0 0 12 0 0 6 0 0 7 0 0 6 0 0 9 0 0 14 0 0 22 0 0 26 0 0 124 0 0 9030 0 0 18227 0 0 18446 0 0 18222 0 0 18185 0 0 18175 0 0 18354 0 0 18322 0 0 18229 0 0 18200 0 0 18248 0 0 18393 0 0 18413 0 0 18094 0 0 18300 0 0 18285 0 0 18217 0 0 18457 0 0 18269 0 0 18227 0 0 18272 0 0 18169 0 0 18247 0 0 18117 0 0 18240 0 0 18277 0 0 18294 0 0 18259 0 0 18406 0 0 18350 0 0 18420 0 0 18479 0 0 18440 0 0 18093 0 0 18268 0 0 18296 0 0 18342 0 0 18218 0 0 18024 0 0 18272 0 0 9066 0 0 122 0 0 28 0 0 20 0 0 21 0 0 16 0 0 15 0 0 12 0 0 14 0 0 12 0 0 
4 0 0 7 0 0 12 0 0 9 0 0 12 0 0 8 0 0 13 0 0 23 0 0 26 0 0 122 0 0 9185 0 0 18313 0 0 18279 0 0 18344 0 0 18162 0 0 18125 0 0 18353 0 0 18335 0 0 18345 0 0 18243 0 0 18269 0 0 18188 0 0 18516 0 0 18160 0 0 18237 0 0 18250 0 0 18322 0 0 18255 0 0 18070 0 0 18041 0 0 18158 0 0 18488 0 0 18370 0 0 18331 0 0 18224 0 0 18441 0 0 18499 0 0 18298 0 0 18417 0 0 18260 0 0 18289 0 0 18151 0 0 18345 0 0 18481 0 0 18187 0 0 18309 0 0 18301 0 0 18254 0 0 18269 0 0 18046 0 0 9142 0 0 120 0 0 29 0 0 19 0 0 17 0 0 20 0 0 12 0 0 9 0 0 11 0 0 7 0 0 
3 0 0 7 0 0 6 0 0 14 0 0 11 0 0 16 0 0 16 0 0 19 0 0 32 0 0 132 0 0 8971 0 0 18240 0 0 18303 0 0 18308 0 0 18361 0 0 18235 0 0 18135 0 0 18516 0 0 18218 0 0 18236 0 0 18209 0 0 18125 0 0 18113 0 0 18221 0 0 18362 0 0 18163 0 0 18370 0 0 18158 0 0 18240 0 0 18412 0 0 18203 0 0 18253 0 0 18156 0 0 18343 0 0 18185 0 0 18285 0 0 18212 0 0 18351 0 0 18294 0 0 18138 0 0 18263 0 0 18337 0 0 18212 0 0 18319 0 0 18231 0 0 18296 0 0 18278 0 0 18038 0 0 18377 0 0 18073 0 0 9164 0 0 125 0 0 34 0 0 24 0 0 20 0 0 16 0 0 12 0 0 13 0 0 7 0 0 7 0 0 
1 0 0 11 0 0 14 0 0 13 0 0 10 0 0 14 0 0 15 0 0 26 0 0 28 0 0 118 0 0 9102 0 0 18132 0 0 18292 0 0 18068 0 0 18107 0 0 18387 0 0 18320 0 0 18252 0 0 18528 0 0 18309 0 0 18417 0 0 18217 0 0 18373 0 0 18150 0 0 18321 0 0 18554 0 0 18474 0 0 18299 0 0 18194 0 0 18462 0 0 18218 0 0 18405 0 0 18290 0 0 18099 0 0 18127 0 0 18285 0 0 18247 0 0 18108 0 0 18193 0 0 18035 0 0 18239 0 0 18252 0 0 18241 0 0 18339 0 0 18470 0 0 18372 0 0 18340 0 0 18323 0 0 18286 0 0 17991 0 0 9114 0 0 126 0 0 23 0 0 22 0 0 14 0 0 18 0 0 11 0 0 10 0 0 11 0 0 8 0 0 
2 0 0 5 0 0 13 0 0 9 0 0 14 0 0 13 0 0 16 0 0 19 0 0 36 0 0 121 0 0 9175 0 0 18101 0 0 18148 0 0 18374 0 0 18191 0 0 18211 0 0 18371 0 0 18107 0 0 18215 0 0 18255 0 0 18333 0 0 18187 0 0 18221 0 0 18334 0 0 18509 0 0 18325 0 0 18355 0 0 18213 0 0 18311 0 0 18218 0 0 18358 0 0 18240 0 0 18437 0 0 18191 0 0 18569 0 0 18393 0 0 18396 0 0 18119 0 0 18246 0 0 18403 0 0 18233 0 0 18177 0 0 18440 0 0 18477 0 0 18333 0 0 18324 0 0 18208 0 0 18257 0 0 18403 0 0 18146 0 0 9092 0 0 114 0 0 42 0 0 22 0 0 24 0 0 18 0 0 11 0 0 10 0 0 7 0 0 7 0 0 
7 0 0 9 0 0 6 0 0 14 0 0 15 0 0 21 0 0 19 0 0 27 0 0 28 0 0 113 0 0 9281 0 0 18374 0 0 18243 0 0 18170 0 0 18039 0 0 18190 0 0 18295 0 0 18427 0 0 18434 0 0 18354 0 0 18224 0 0 18219 0 0 18321 0 0 18257 0 0 18207 0 0 18215 0 0 18136 0 0 18522 0 0 18121 0 0 18257 0 0 18233 0 0 18223 0 0 18375 0 0 18500 0 0 18172 0 0 18323 0 0 18278 0 0 18454 0 0 18256 0 0 18160 0 0 18285 0 0 18342 0 0 18186 0 0 18309 0 0 18298 0 0 18285 0 0 18438 0 0 18288 0 0 18297 0 0 18236 0 0 9120 0 0 129 0 0 45 0 0 22 0 0 21 0 0 22 0 0 15 0 0 14 0 0 8 0 0 5 0 0 
7 0 0 12 0 0 18 0 0 13 0 0 8 0 0 12 0 0 18 0 0 21 0 0 33 0 0 131 0 0 9109 0 0 18177 0 0 18248 0 0 18026 0 0 18215 0 0 18328 0 0 18167 0 0 18421 0 0 18219 0 0 18361 0 0 18244 0 0 18229 0 0 18495 0 0 18364 0 0 18238 0 0 18285 0 0 18132 0 0 18241 0 0 18370 0 0 18448 0 0 18383 0 0 18452 0 0 18114 0 0 18288 0 0 18067 0 0 18372 0 0 18429 0 0 18064 0 0 18330 0 0 18227 0 0 18240 0 0 18400 0 0 18171 0 0 18389 0 0 18118 0 0 18177 0 0 18274 0 0 18228 0 0 18102 0 0 18164 0 0 9122 0 0 123 0 0 30 0 0 30 0 0 24 0 0 19 0 0 24 0 0 15 0 0 9 0 0 12 0 0 
4 0 0 10 0 0 10 0 0 19 0 0 20 0 0 18 0 0 24 0 0 31 0 0 37 0 0 110 0 0 9236 0 0 18099 0 0 18313 0 0 18272 0 0 18198 0 0 18259 0 0 18283 0 0 18172 0 0 18302 0 0 18150 0 0 18254 0 0 18204 0 0 18231 0 0 18311 0 0 18161 0 0 18257 0 0 18239 0 0 18216 0 0 18474 0 0 18390 0 0 18249 0 0 18274 0 0 18228 0 0 18314 0 0 18388 0 0 18212 0 0 18349 0 0 18053 0 0 18271 0 0 18425 0 0 18271 0 0 18241 0 0 18487 0 0 18291 0 0 18291 0 0 18225 0 0 18294 0 0 18251 0 0 18152 0 0 18233 0 0 9024 0 0 101 0 0 30 0 0 24 0 0 19 0 0 18 0 0 16 0 0 16 0 0 12 0 0 12 0 0 
3 0 0 6 0 0 12 0 0 11 0 0 14 0 0 21 0 0 23 0 0 24 0 0 35 0 0 119 0 0 9233 0 0 18173 0 0 18241 0 0 18281 0 0 18337 0 0 18182 0 0 18225 0 0 18224 0 0 18170 0 0 18019 0 0 18356 0 0 18366 0 0 18261 0 0 18215 0 0 18400 0 0 18322 0 0 18182 0 0 18360 0 0 18326 0 0 18642 0 0 18265 0 0 18395 0 0 18189 0 0 18145 0 0 18103 0 0 18299 0 0 18341 0 0 18045 0 0 18361 0 0 18111 0 0 18117 0 0 18373 0 0 18263 0 0 18202 0 0 18043 0 0 18207 0 0 17908 0 0 18372 0 0 18229 0 0 18172 0 0 9190 0 0 111 0 0 33 0 0 24 0 0 19 0 0 9 0 0 8 0 0 5 0 0 4 0 0 7 0 0 
2 0 0 7 0 0 8 0 0 12 0 0 14 0 0 14 0 0 19 0 0 16 0 0 30 0 0 125 0 0 9121 0 0 17976 0 0 18389 0 0 18230 0 0 18164 0 0 18408 0 0 18313 0 0 17984 0 0 18182 0 0 18221 0 0 18295 0 0 18223 0 0 18406 0 0 18121 0 0 18234 0 0 18354 0 0 18531 0 0 18442 0 0 18230 0 0 18304 0 0 18296 0 0 18336 0 0 18250 0 0 18444 0 0 18239 0 0 18276 0 0 18326 0 0 18465 0 0 18241 0 0 18419 0 0 18201 0 0 18255 0 0 18322 0 0 18362 0 0 18585 0 0 18311 0 0 18126 0 0 18194 0 0 18131 0 0 18146 0 0 9183 0 0 109 0 0 30 0 0 18 0 0 15 0 0 12 0 0 4 0 0 5 0 0 6 0 0 7 0 0 
2 0 0 7 0 0 9 0 0 11 0 0 18 0 0 19 0 0 21 0 0 28 0 0 29 0 0 130 0 0 9152 0 0 18225 0 0 18197 0 0 18334 0 0 18459 0 0 18079 0 0 18251 0 0 18275 0 0 18204 0 0 18419 0 0 18167 0 0 18230 0 0 18250 0 0 18265 0 0 18360 0 0 18521 0 0 18274 0 0 18343 0 0 18230 0 0 18549 0 0 18318 0 0 18403 0 0 18502 0 0 18456 0 0 18283 0 0 18206 0 0 18191 0 0 18365 0 0 18507 0 0 18260 0 0 18372 0 0 18336 0 0 18186 0 0 18203 0 0 18269 0 0 18236 0 0 18113 0 0 18239 0 0 18100 0 0 17951 0 0 9122 0 0 113 0 0 31 0 0 22 0 0 18 0 0 11 0 0 9 0 0 12 0 0 8 0 0 8 0 0 
2 0 0 7 0 0 13 0 0 13 0 0 15 0 0 19 0 0 17 0 0 21 0 0 26 0 0 131 0 0 9100 0 0 18133 0 0 18283 0 0 18345 0 0 18443 0 0 18331 0 0 18479 0 0 18288 0 0 18147 0 0 18378 0 0 18363 0 0 18513 0 0 18275 0 0 18247 0 0 18420 0 0 18369 0 0 18168 0 0 18230 0 0 18243 0 0 18292 0 0 18563 0 0 18123 0 0 18416 0 0 18261 0 0 18044 0 0 18259 0 0 18291 0 0 18306 0 0 18398 0 0 18398 0 0 18322 0 0 18275 0 0 18334 0 0 18384 0 0 18148 0 0 18433 0 0 18429 0 0 18335 0 0 18229 0 0 18138 0 0 9085 0 0 115 0 0 21 0 0 15 0 0 22 0 0 15 0 0 11 0 0 11 0 0 12 0 0 8 0 0 
4 0 0 14 0 0 11 0 0 13 0 0 11 0 0 10 0 0 13 0 0 14 0 0 27 0 0 121 0 0 9135 0 0 18166 0 0 18362 0 0 18141 0 0 18325 0 0 18430 0 0 18154 0 0 18412 0 0 18352 0 0 18250 0 0 18169 0 0 18176 0 0 18233 0 0 18327 0 0 18270 0 0 18199 0 0 18287 0 0 18480 0 0 18189 0 0 18441 0 0 18314 0 0 18387 0 0 18355 0 0 18223 0 0 18177 0 0 18209 0 0 18198 0 0 18139 0 0 18326 0 0 18172 0 0 18234 0 0 18318 0 0 18075 0 0 18512 0 0 18117 0 0 18219 0 0 18400 0 0 18172 0 0 18262 0 0 18126 0 0 9088 0 0 121 0 0 19 0 0 22 0 0 17 0 0 16 0 0 21 0 0 12 0 0 11 0 0 7 0 0 
5 0 0 7 0 0 9 0 0 3 0 0 10 0 0 17 0 0 15 0 0 26 0 0 27 0 0 121 0 0 9070 0 0 18103 0 0 18252 0 0 18173 0 0 18062 0 0 18453 0 0 18240 0 0 18400 0 0 18158 0 0 18360 0 0 18210 0 0 18248 0 0 18207 0 0 18448 0 0 18265 0 0 18247 0 0 18186 0 0 18224 0 0 18284 0 0 18319 0 0 18342 0 0 18343 0 0 18144 0 0 18247 0 0 18268 0 0 18214 0 0 18291 0 0 18209 0 0 18077 0 0 18351 0 0 18368 0 0 18168 0 0 18160 0 0 18429 0 0 18356 0 0 18237 0 0 18321 0 0 18180 0 0 18184 0 0 18211 0 0 9136 0 0 115 0 0 25 0 0 24 0 0 12 0 0 11 0 0 9 0 0 6 0 0 8 0 0 9 0 0 
3 0 0 6 0 0 6 0 0 12 0 0 10 0 0 13 0 0 22 0 0 22 0 0 29 0 0 123 0 0 9208 0 0 18201 0 0 18484 0 0 18272 0 0 18217 0 0 18459 0 0 18216 0 0 18134 0 0 18368 0 0 18415 0 0 18384 0 0 18121 0 0 18223 0 0 18392 0 0 18222 0 0 18261 0 0 18315 0 0 18414 0 0 18285 0 0 18182 0 0 18414 0 0 18186 0 0 18412 0 0 18262 0 0 18164 0 0 18417 0 0 18283 0 0 18049 0 0 18263 0 0 18175 0 0 18198 0 0 18442 0 0 18462 0 0 18339 0 0 18280 0 0 18297 0 0 17965 0 0 18047 0 0 18100 0 0 18051 0 0 9080 0 0 116 0 0 28 0 0 17 0 0 9 0 0 10 0 0 7 0 0 9 0 0 5 0 0 3 0 0 
1 0 0 2 0 0 6 0 0 7 0 0 11 0 0 13 0 0 21 0 0 27 0 0 25 0 0 120 0 0 9026 0 0 18320 0 0 18232 0 0 18098 0 0 18261 0 0 18210 0 0 18071 0 0 18252 0 0 18141 0 0 18287 0 0 18118 0 0 18311 0 0 18317 0 0 18287 0 0 18348 0 0 18103 0 0 18425 0 0 18398 0 0 18248 0 0 18397 0 0 18444 0 0 18443 0 0 18216 0 0 18446 0 0 18562 0 0 18279 0 0 18503 0 0 18476 0 0 18215 0 0 18236 0 0 18294 0 0 18263 0 0 18266 0 0 18423 0 0 18395 0 0 18063 0 0 18315 0 0 18158 0 0 18118 0 0 18188 0 0 9321 0 0 112 0 0 27 0 0 22 0 0 13 0 0 13 0 0 9 0 0 7 0 0 6 0 0 9 0 0 
3 0 0 8 0 0 10 0 0 11 0 0 11 0 0 15 0 0 24 0 0 24 0 0 32 0 0 113 0 0 9026 0 0 17904 0 0 18199 0 0 18237 0 0 18324 0 0 18284 0 0 18433 0 0 18272 0 0 18382 0 0 18162 0 0 18396 0 0 18264 0 0 18416 0 0 18347 0 0 18272 0 0 18543 0 0 18289 0 0 18124 0 0 18488 0 0 18128 0 0 18410 0 0 18279 0 0 18390 0 0 18097 0 0 18373 0 0 18312 0 0 18291 0 0 18068 0 0 18139 0 0 18387 0 0 17983 0 0 18194 0 0 18272 0 0 18234 0 0 18164 0 0 18251 0 0 18316 0 0 18372 0 0 18359 0 0 18044 0 0 9058 0 0 126 0 0 25 0 0 13 0 0 14 0 0 11 0 0 12 0 0 6 0 0 8 0 0 7 0 0 
2 0 0 6 0 0 7 0 0 7 0 0 14 0 0 24 0 0 16 0 0 21 0 0 25 0 0 122 0 0 9078 0 0 17979 0 0 18313 0 0 18267 0 0 18200 0 0 18279 0 0 18208 0 0 18278 0 0 18359 0 0 18143 0 0 18241 0 0 18272 0 0 18238 0 0 18284 0 0 18218 0 0 18068 0 0 18190 0 0 18464 0 0 18094 0 0 18471 0 0 18208 0 0 18519 0 0 18222 0 0 18256 0 0 18327 0 0 18058 0 0 18247 0 0 18253 0 0 18131 0 0 18470 0 0 18270 0 0 18295 0 0 18076 0 0 18116 0 0 18354 0 0 18261 0 0 18272 0 0 18362 0 0 18137 0 0 18165 0 0 9124 0 0 124 0 0 22 0 0 14 0 0 14 0 0 18 0 0 14 0 0 7 0 0 5 0 0 3 0 0 
3 0 0 7 0 0 10 0 0 9 0 0 11 0 0 13 0 0 13 0 0 21 0 0 24 0 0 119 0 0 9119 0 0 18346 0 0 18140 0 0 18456 0 0 18215 0 0 18224 0 0 18256 0 0 18096 0 0 18100 0 0 18177 0 0 18231 0 0 18394 0 0 18417 0 0 18287 0 0 18253 0 0 18350 0 0 18359 0 0 18079 0 0 18333 0 0 18268 0 0 18260 0 0 18580 0 0 18054 0 0 18379 0 0 18549 0 0 17985 0 0 18014 0 0 18305 0 0 18186 0 0 18345 0 0 18292 0 0 18136 0 0 18375 0 0 18488 0 0 18122 0 0 18144 0 0 18248 0 0 18386 0 0 18388 0 0 18207 0 0 9144 0 0 106 0 0 22 0 0 20 0 0 19 0 0 10 0 0 11 0 0 13 0 0 9 0 0 7 0 0 
4 0 0 9 0 0 7 0 0 11 0 0 12 0 0 13 0 0 19 0 0 24 0 0 25 0 0 130 0 0 9034 0 0 18046 0 0 18238 0 0 18320 0 0 18265 0 0 18457 0 0 18354 0 0 18416 0 0 18268 0 0 18156 0 0 18517 0 0 18291 0 0 18161 0 0 18278 0 0 18358 0 0 18280 0 0 18227 0 0 18236 0 0 18265 0 0 18492 0 0 18321 0 0 18228 0 0 18070 0 0 18296 0 0 18153 0 0 18333 0 0 18063 0 0 18175 0 0 18364 0 0 18167 0 0 18177 0 0 18227 0 0 18458 0 0 18183 0 0 18392 0 0 18250 0 0 18251 0 0 18150 0 0 18362 0 0 18093 0 0 9147 0 0 108 0 0 28 0 0 21 0 0 22 0 0 14 0 0 12 0 0 10 0 0 10 0 0 6 0 0 
1 0 0 5 0 0 10 0 0 9 0 0 12 0 0 15 0 0 18 0 0 13 0 0 22 0 0 117 0 0 9105 0 0 18051 0 0 18350 0 0 18457 0 0 18296 0 0 18226 0 0 18251 0 0 18359 0 0 18346 0 0 18035 0 0 18372 0 0 18300 0 0 18112 0 0 18461 0 0 18186 0 0 18316 0 0 18131 0 0 18311 0 0 18263 0 0 18474 0 0 18166 0 0 18134 0 0 18367 0 0 18076 0 0 18308 0 0 17932 0 0 18107 0 0 18218 0 0 18404 0 0 18178 0 0 18312 0 0 18229 0 0 18157 0 0 18179 0 0 18225 0 0 18414 0 0 18080 0 0 18224 0 0 18183 0 0 18187 0 0 9091 0 0 120 0 0 28 0 0 16 0 0 13 0 0 9 0 0 13 0 0 7 0 0 5 0 0 8 0 0 
2 0 0 6 0 0 7 0 0 13 0 0 12 0 0 15 0 0 22 0 0 22 0 0 18 0 0 108 0 0 9196 0 0 18201 0 0 18168 0 0 18241 0 0 18202 0 0 18391 0 0 18298 0 0 18329 0 0 18164 0 0 18134 0 0 18303 0 0 18333 0 0 18282 0 0 18245 0 0 18152 0 0 18427 0 0 18488 0 0 18255 0 0 18388 0 0 18173 0 0 18113 0 0 18316 0 0 18269 0 0 18326 0 0 18220 0 0 18252 0 0 18211 0 0 18171 0 0 18498 0 0 18352 0 0 18542 0 0 18355 0 0 18296 0 0 18217 0 0 18260 0 0 18288 0 0 18177 0 0 18278 0 0 18463 0 0 18278 0 0 9145 0 0 115 0 0 18 0 0 10 0 0 11 0 0 14 0 0 9 0 0 9 0 0 6 0 0 9 0 0 
5 0 0 8 0 0 7 0 0 5 0 0 10 0 0 13 0 0 19 0 0 17 0 0 27 0 0 121 0 0 9132 0 0 18037 0 0 18170 0 0 18499 0 0 18131 0 0 18259 0 0 17979 0 0 18293 0 0 18139 0 0 18515 0 0 18063 0 0 18104 0 0 18223 0 0 18169 0 0 18093 0 0 18198 0 0 18245 0 0 18467 0 0 18304 0 0 18272 0 0 18052 0 0 18373 0 0 18363 0 0 18220 0 0 18561 0 0 18194 0 0 18298 0 0 18170 0 0 18134 0 0 18260 0 0 18085 0 0 18375 0 0 18258 0 0 18335 0 0 18393 0 0 18073 0 0 18215 0 0 18070 0 0 18109 0 0 18003 0 0 8975 0 0 112 0 0 22 0 0 17 0 0 11 0 0 10 0 0 4 0 0 10 0 0 6 0 0 4 0 0 
5 0 0 8 0 0 8 0 0 10 0 0 8 0 0 10 0 0 14 0 0 27 0 0 21 0 0 99 0 0 9060 0 0 18153 0 0 18365 0 0 18354 0 0 18231 0 0 18211 0 0 18245 0 0 18095 0 0 18270 0 0 18111 0 0 18025 0 0 18180 0 0 18036 0 0 18262 0 0 18338 0 0 18280 0 0 18365 0 0 18293 0 0 18076 0 0 18085 0 0 18232 0 0 18429 0 0 18296 0 0 18323 0 0 18379 0 0 18225 0 0 18248 0 0 18170 0 0 18318 0 0 18114 0 0 18144 0 0 18254 0 0 18407 0 0 18262 0 0 18113 0 0 18259 0 0 18093 0 0 18364 0 0 18240 0 0 18206 0 0 8954 0 0 114 0 0 19 0 0 13 0 0 17 0 0 10 0 0 10 0 0 8 0 0 7 0 0 6 0 0 
3 0 0 8 0 0 7 0 0 11 0 0 11 0 0 12 0 0 15 0 0 18 0 0 24 0 0 101 0 0 9134 0 0 17928 0 0 18069 0 0 18115 0 0 18117 0 0 18091 0 0 18128 0 0 17830 0 0 18148 0 0 17991 0 0 18074 0 0 18250 0 0 18176 0 0 18144 0 0 18074 0 0 18204 0 0 18051 0 0 18107 0 0 18159 0 0 18087 0 0 17941 0 0 18155 0 0 18248 0 0 18289 0 0 18136 0 0 18180 0 0 18216 0 0 18276 0 0 18311 0 0 18119 0 0 18049 0 0 18247 0 0 18109 0 0 17872 0 0 18133 0 0 18156 0 0 18005 0 0 18029 0 0 18099 0 0 18004 0 0 9183 0 0 114 0 0 18 0 0 16 0 0 10 0 0 9 0 0 9 0 0 6 0 0 5 0 0 4 0 0 
3 0 0 8 0 0 7 0 0 6 0 0 4 0 0 7 0 0 16 0 0 14 0 0 12 0 0 52 0 0 4566 0 0 9083 0 0 9120 0 0 9016 0 0 9147 0 0 9155 0 0 9082 0 0 9182 0 0 9151 0 0 9089 0 0 9072 0 0 9094 0 0 9172 0 0 9224 0 0 9223 0 0 9247 0 0 9102 0 0 9246 0 0 9278 0 0 9030 0 0 9138 0 0 9054 0 0 9103 0 0 9214 0 0 9182 0 0 9092 0 0 9253 0 0 9112 0 0 9204 0 0 9101 0 0 9126 0 0 9023 0 0 9223 0 0 9166 0 0 9009 0 0 9025 0 0 9133 0 0 9189 0 0 9068 0 0 9052 0 0 4572 0 0 67 0 0 20 0 0 12 0 0 14 0 0 10 0 0 5 0 0 4 0 0 5 0 0 4 0 0 
3 0 0 5 0 0 5 0 0 3 0 0 3 0 0 8 0 0 10 0 0 13 0 0 7 0 0 14 0 0 57 0 0 93 0 0 97 0 0 90 0 0 111 0 0 123 0 0 119 0 0 115 0 0 107 0 0 118 0 0 135 0 0 131 0 0 114 0 0 118 0 0 146 0 0 115 0 0 128 0 0 136 0 0 116 0 0 122 0 0 111 0 0 117 0 0 126 0 0 108 0 0 97 0 0 131 0 0 120 0 0 118 0 0 135 0 0 103 0 0 123 0 0 131 0 0 128 0 0 136 0 0 118 0 0 97 0 0 116 0 0 111 0 0 127 0 0 103 0 0 67 0 0 24 0 0 16 0 0 9 0 0 4 0 0 8 0 0 7 0 0 4 0 0 5 0 0 4 0 0 
2 0 0 3 0 0 3 0 0 4 0 0 4 0 0 15 0 0 12 0 0 9 0 0 9 0 0 11 0 0 12 0 0 15 0 0 12 0 0 19 0 0 21 0 0 26 0 0 34 0 0 24 0 0 30 0 0 32 0 0 35 0 0 36 0 0 28 0 0 37 0 0 37 0 0 26 0 0 35 0 0 28 0 0 33 0 0 27 0 0 31 0 0 32 0 0 29 0 0 24 0 0 36 0 0 38 0 0 30 0 0 24 0 0 30 0 0 29 0 0 33 0 0 37 0 0 27 0 0 26 0 0 23 0 0 24 0 0 25 0 0 25 0 0 19 0 0 18 0 0 24 0 0 20 0 0 17 0 0 8 0 0 10 0 0 9 0 0 8 0 0 6 0 0 6 0 0 3 0 0 
3 0 0 3 0 0 4 0 0 2 0 0 8 0 0 12 0 0 4 0 0 7 0 0 9 0 0 8 0 0 11 0 0 12 0 0 19 0 0 20 0 0 12 0 0 24 0 0 24 0 0 16 0 0 24 0 0 20 0 0 21 0 0 27 0 0 26 0 0 30 0 0 29 0 0 22 0 0 23 0 0 24 0 0 21 0 0 26 0 0 25 0 0 26 0 0 19 0 0 29 0 0 19 0 0 24 0 0 24 0 0 21 0 0 19 0 0 33 0 0 22 0 0 22 0 0 13 0 0 16 0 0 16 0 0 19 0 0 21 0 0 21 0 0 17 0 0 10 0 0 9 0 0 17 0 0 14 0 0 9 0 0 10 0 0 2 0 0 8 0 0 6 0 0 2 0 0 9 0 0 
0 0 0 0 0 0 3 0 0 8 0 0 7 0 0 11 0 0 7 0 0 7 0 0 12 0 0 9 0 0 8 0 0 14 0 0 8 0 0 13 0 0 13 0 0 17 0 0 17 0 0 13 0 0 18 0 0 19 0 0 19 0 0 24 0 0 22 0 0 30 0 0 28 0 0 12 0 0 14 0 0 24 0 0 24 0 0 16 0 0 19 0 0 18 0 0 13 0 0 17 0 0 19 0 0 17 0 0 16 0 0 20 0 0 17 0 0 15 0 0 16 0 0 21 0 0 13 0 0 13 0 0 14 0 0 16 0 0 14 0 0 20 0 0 9 0 0 6 0 0 9 0 0 8 0 0 15 0 0 10 0 0 4 0 0 6 0 0 3 0 0 8 0 0 4 0 0 5 0 0 
2 0 0 4 0 0 2 0 0 7 0 0 7 0 0 7 0 0 4 0 0 3 0 0 5 0 0 7 0 0 8 0 0 11 0 0 15 0 0 14 0 0 10 0 0 15 0 0 16 0 0 8 0 0 14 0 0 22 0 0 12 0 0 18 0 0 18 0 0 24 0 0 13 0 0 16 0 0 19 0 0 19 0 0 13 0 0 16 0 0 20 0 0 23 0 0 17 0 0 13 0 0 15 0 0 15 0 0 15 0 0 18 0 0 13 0 0 17 0 0 19 0 0 12 0 0 18 0 0 10 0 0 10 0 0 14 0 0 11 0 0 13 0 0 7 0 0 8 0 0 6 0 0 11 0 0 8 0 0 10 0 0 5 0 0 6 0 0 4 0 0 5 0 0 6 0 0 8 0 0 
2 0 0 2 0 0 5 0 0 6 0 0 5 0 0 5 0 0 5 0 0 2 0 0 6 0 0 10 0 0 12 0 0 12 0 0 7 0 0 11 0 0 8 0 0 13 0 0 7 0 0 12 0 0 13 0 0 9 0 0 9 0 0 12 0 0 10 0 0 23 0 0 18 0 0 10 0 0 19 0 0 16 0 0 10 0 0 20 0 0 11 0 0 20 0 0 18 0 0 12 0 0 13 0 0 17 0 0 13 0 0 11 0 0 14 0 0 13 0 0 13 0 0 19 0 0 12 0 0 10 0 0 11 0 0 14 0 0 8 0 0 16 0 0 6 0 0 9 0 0 7 0 0 2 0 0 6 0 0 2 0 0 4 0 0 3 0 0 3 0 0 5 0 0 5 0 0 3 0 0 
2 0 0 2 0 0 3 0 0 8 0 0 5 0 0 6 0 0 5 0 0 2 0 0 7 0 0 10 0 0 8 0 0 5 0 0 3 0 0 5 0 0 14 0 0 11 0 0 7 0 0 12 0 0 14 0 0 10 0 0 7 0 0 11 0 0 18 0 0 20 0 0 12 0 0 9 0 0 16 0 0 6 0 0 12 0 0 16 0 0 19 0 0 15 0 0 14 0 0 15 0 0 11 0 0 11 0 0 11 0 0 4 0 0 13 0 0 12 0 0 16 0 0 12 0 0 12 0 0 7 0 0 10 0 0 9 0 0 12 0 0 9 0 0 12 0 0 6 0 0 8 0 0 4 0 0 2 0 0 6 0 0 2 0 0 3 0 0 1 0 0 4 0 0 3 0 0 4 0 0 
5 0 0 2 0 0 5 0 0 5 0 0 2 0 0 6 0 0 3 0 0 2 0 0 4 0 0 5 0 0 2 0 0 3 0 0 5 0 0 8 0 0 10 0 0 8 0 0 3 0 0 8 0 0 14 0 0 9 0 0 11 0 0 15 0 0 12 0 0 13 0 0 13 0 0 5 0 0 11 0 0 9 0 0 15 0 0 16 0 0 11 0 0 16 0 0 9 0 0 15 0 0 12 0 0 8 0 0 10 0 0 5 0 0 7 0 0 17 0 0 14 0 0 12 0 0 8 0 0 6 0 0 9 0 0 16 0 0 8 0 0 7 0 0 4 0 0 6 0 0 5 0 0 8 0 0 6 0 0 3 0 0 3 0 0 4 0 0 4 0 0 4 0 0 6 0 0 2 0 0 
1 0 0 4 0 0 3 0 0 7 0 0 7 0 0 6 0 0 3 0 0 4 0 0 9 0 0 3 0 0 5 0 0 2 0 0 2 0 0 2 0 0 11 0 0 5 0 0 8 0 0 9 0 0 13 0 0 6 0 0 9 0 0 11 0 0 11 0 0 12 0 0 15 0 0 7 0 0 8 0 0 8 0 0 11 0 0 14 0 0 7 0 0 14 0 0 11 0 0 12 0 0 12 0 0 6 0 0 10 0 0 7 0 0 4 0 0 10 0 0 10 0 0 4 0 0 8 0 0 7 0 0 12 0 0 7 0 0 9 0 0 5 0 0 6 0 0 4 0 0 4 0 0 5 0 0 4 0 0 6 0 0 2 0 0 3 0 0 3 0 0 4 0 0 1 0 0 3 0 0 
