P3
# This is a dose file slice at depth 49 of 100
60 60
# now we give the maximum value of the RGB coordinates.
21610
0 0 0 2 0 0 0 0 0 3 0 0 0 0 0 0 0 0 1 0 0 2 0 0 2 0 0 1 0 0 0 0 0 1 0 0 1 0 0 0 0 0 3 0 0 1 0 0 0 0 0 1 0 0 0 0 0 1 0 0 1 0 0 1 0 0 3 0 0 1 0 0 1 0 0 1 0 0 1 0 0 3 0 0 1 0 0 2 0 0 1 0 0 3 0 0 2 0 0 1 0 0 2 0 0 1 0 0 0 0 0 1 0 0 4 0 0 0 0 0 3 0 0 2 0 0 0 0 0 2 0 0 7 0 0 5 0 0 1 0 0 1 0 0 0 0 0 0 0 0 0 0 0 0 0 0 0 0 0 1 0 0 0 0 0 2 0 0 0 0 0 0 0 0 1 0 0 0 0 0 
0 0 0 1 0 0 2 0 0 4 0 0 4 0 0 0 0 0 4 0 0 0 0 0 4 0 0 3 0 0 3 0 0 4 0 0 5 0 0 3 0 0 4 0 0 7 0 0 4 0 0 2 0 0 1 0 0 3 0 0 3 0 0 3 0 0 6 0 0 4 0 0 1 0 0 2 0 0 3 0 0 6 0 0 4 0 0 7 0 0 5 0 0 8 0 0 3 0 0 2 0 0 3 0 0 4 0 0 3 0 0 3 0 0 7 0 0 1 0 0 4 0 0 9 0 0 5 0 0 5 0 0 11 0 0 8 0 0 2 0 0 3 0 0 0 0 0 3 0 0 2 0 0 0 0 0 0 0 0 3 0 0 2 0 0 1 0 0 1 0 0 2 0 0 0 0 0 0 0 0 
0 0 0 0 0 0 1 0 0 4 0 0 7 0 0 1 0 0 6 0 0 1 0 0 1 0 0 4 0 0 1 0 0 4 0 0 9 0 0 3 0 0 5 0 0 4 0 0 7 0 0 5 0 0 2 0 0 7 0 0 3 0 0 5 0 0 4 0 0 2 0 0 5 0 0 1 0 0 3 0 0 4 0 0 2 0 0 9 0 0 3 0 0 8 0 0 4 0 0 6 0 0 7 0 0 3 0 0 3 0 0 3 0 0 9 0 0 1 0 0 6 0 0 7 0 0 3 0 0 6 0 0 7 0 0 6 0 0 3 0 0 1 0 0 2 0 0 1 0 0 1 0 0 4 0 0 0 0 0 5 0 0 1 0 0 1 0 0 3 0 0 1 0 0 3 0 0 2 0 0 
0 0 0 4 0 0 1 0 0 2 0 0 3 0 0 4 0 0 3 0 0 3 0 0 2 0 0 1 0 0 3 0 0 0 0 0 3 0 0 4 0 0 5 0 0 5 0 0 2 0 0 4 0 0 3 0 0 6 0 0 1 0 0 6 0 0 7 0 0 2 0 0 5 0 0 3 0 0 2 0 0 5 0 0 4 0 0 4 0 0 5 0 0 10 0 0 9 0 0 5 0 0 6 0 0 4 0 0 4 0 0 5 0 0 4 0 0 2 0 0 6 0 0 7 0 0 5 0 0 6 0 0 4 0 0 8 0 0 2 0 0 6 0 0 7 0 0 2 0 0 1 0 0 3 0 0 2 0 0 4 0 0 3 0 0 3 0 0 2 0 0 5 0 0 1 0 0 0 0 0 
0 0 0 0 0 0 4 0 0 4 0 0 2 0 0 4 0 0 2 0 0 4 0 0 1 0 0 4 0 0 5 0 0 4 0 0 3 0 0 6 0 0 4 0 0 4 0 0 1 0 0 5 0 0 1 0 0 8 0 0 2 0 0 3 0 0 7 0 0 5 0 0 4 0 0 9 0 0 6 0 0 11 0 0 4 0 0 3 0 0 2 0 0 7 0 0 5 0 0 6 0 0 4 0 0 3 0 0 6 0 0 3 0 0 0 0 0 3 0 0 6 0 0 10 0 0 9 0 0 4 0 0 6 0 0 8 0 0 8 0 0 4 0 0 4 0 0 0 0 0 0 0 0 0 0 0 2 0 0 3 0 0 3 0 0 3 0 0 3 0 0 4 0 0 1 0 0 2 0 0 
2 0 0 1 0 0 1 0 0 4 0 0 3 0 0 2 0 0 6 0 0 5 0 0 5 0 0 3 0 0 5 0 0 9 0 0 6 0 0 2 0 0 8 0 0 4 0 0 4 0 0 5 0 0 8 0 0 3 0 0 5 0 0 5 0 0 11 0 0 12 0 0 9 0 0 8 0 0 3 0 0 8 0 0 5 0 0 9 0 0 10 0 0 6 0 0 6 0 0 5 0 0 6 0 0 8 0 0 6 0 0 6 0 0 4 0 0 4 0 0 12 0 0 10 0 0 8 0 0 3 0 0 6 0 0 7 0 0 6 0 0 6 0 0 4 0 0 1 0 0 1 0 0 1 0 0 2 0 0 2 0 0 3 0 0 3 0 0 6 0 0 6 0 0 2 0 0 4 0 0 
1 0 0 2 0 0 1 0 0 0 0 0 6 0 0 6 0 0 3 0 0 6 0 0 7 0 0 3 0 0 4 0 0 3 0 0 9 0 0 6 0 0 4 0 0 6 0 0 4 0 0 9 0 0 8 0 0 7 0 0 10 0 0 6 0 0 5 0 0 2 0 0 5 0 0 8 0 0 6 0 0 10 0 0 7 0 0 12 0 0 6 0 0 3 0 0 7 0 0 5 0 0 5 0 0 8 0 0 9 0 0 11 0 0 5 0 0 8 0 0 5 0 0 9 0 0 12 0 0 8 0 0 7 0 0 4 0 0 7 0 0 7 0 0 5 0 0 6 0 0 1 0 0 6 0 0 6 0 0 8 0 0 6 0 0 8 0 0 3 0 0 7 0 0 6 0 0 0 0 0 
2 0 0 2 0 0 1 0 0 3 0 0 1 0 0 3 0 0 4 0 0 4 0 0 4 0 0 7 0 0 7 0 0 7 0 0 5 0 0 8 0 0 7 0 0 9 0 0 4 0 0 7 0 0 9 0 0 5 0 0 12 0 0 6 0 0 14 0 0 11 0 0 11 0 0 17 0 0 14 0 0 11 0 0 9 0 0 9 0 0 4 0 0 12 0 0 8 0 0 7 0 0 11 0 0 3 0 0 12 0 0 13 0 0 3 0 0 6 0 0 9 0 0 9 0 0 11 0 0 12 0 0 6 0 0 7 0 0 10 0 0 12 0 0 7 0 0 7 0 0 6 0 0 7 0 0 7 0 0 2 0 0 2 0 0 5 0 0 8 0 0 4 0 0 2 0 0 4 0 0 
0 0 0 1 0 0 4 0 0 6 0 0 4 0 0 4 0 0 4 0 0 4 0 0 4 0 0 5 0 0 7 0 0 11 0 0 7 0 0 13 0 0 11 0 0 4 0 0 12 0 0 10 0 0 8 0 0 17 0 0 19 0 0 11 0 0 9 0 0 14 0 0 12 0 0 19 0 0 14 0 0 16 0 0 11 0 0 14 0 0 14 0 0 9 0 0 12 0 0 18 0 0 12 0 0 13 0 0 15 0 0 12 0 0 10 0 0 15 0 0 12 0 0 16 0 0 17 0 0 15 0 0 8 0 0 12 0 0 11 0 0 16 0 0 14 0 0 7 0 0 7 0 0 8 0 0 5 0 0 6 0 0 9 0 0 7 0 0 6 0 0 3 0 0 3 0 0 5 0 0 
2 0 0 2 0 0 3 0 0 2 0 0 1 0 0 5 0 0 9 0 0 7 0 0 8 0 0 10 0 0 34 0 0 57 0 0 54 0 0 57 0 0 51 0 0 46 0 0 47 0 0 47 0 0 54 0 0 62 0 0 54 0 0 52 0 0 43 0 0 55 0 0 62 0 0 49 0 0 56 0 0 60 0 0 63 0 0 58 0 0 55 0 0 53 0 0 51 0 0 55 0 0 56 0 0 55 0 0 48 0 0 50 0 0 37 0 0 64 0 0 54 0 0 54 0 0 65 0 0 41 0 0 52 0 0 55 0 0 58 0 0 68 0 0 49 0 0 42 0 0 26 0 0 12 0 0 7 0 0 9 0 0 7 0 0 5 0 0 6 0 0 5 0 0 6 0 0 7 0 0 
2 0 0 6 0 0 1 0 0 1 0 0 5 0 0 4 0 0 5 0 0 0 0 0 5 0 0 21 0 0 1744 0 0 3602 0 0 3526 0 0 3535 0 0 3601 0 0 3575 0 0 3534 0 0 3676 0 0 3519 0 0 3509 0 0 3503 0 0 3622 0 0 3626 0 0 3559 0 0 3564 0 0 3542 0 0 3622 0 0 3518 0 0 3500 0 0 3540 0 0 3543 0 0 3532 0 0 3564 0 0 3583 0 0 3651 0 0 3624 0 0 3607 0 0 3621 0 0 3598 0 0 3592 0 0 3568 0 0 3572 0 0 3606 0 0 3546 0 0 3560 0 0 3628 0 0 3522 0 0 3539 0 0 3593 0 0 3524 0 0 1684 0 0 32 0 0 9 0 0 8 0 0 6 0 0 6 0 0 2 0 0 2 0 0 1 0 0 5 0 0 
0 0 0 4 0 0 4 0 0 2 0 0 2 0 0 8 0 0 2 0 0 6 0 0 7 0 0 56 0 0 3434 0 0 6995 0 0 6910 0 0 7081 0 0 7022 0 0 7004 0 0 7073 0 0 7147 0 0 7127 0 0 7004 0 0 7093 0 0 7016 0 0 7212 0 0 7100 0 0 7090 0 0 6910 0 0 6997 0 0 6911 0 0 7072 0 0 7053 0 0 6995 0 0 7097 0 0 6998 0 0 7031 0 0 7109 0 0 7100 0 0 6985 0 0 7066 0 0 7053 0 0 7007 0 0 7159 0 0 7140 0 0 7110 0 0 7126 0 0 7081 0 0 7118 0 0 6985 0 0 7143 0 0 6990 0 0 7078 0 0 3535 0 0 47 0 0 6 0 0 4 0 0 5 0 0 3 0 0 0 0 0 3 0 0 2 0 0 1 0 0 
1 0 0 2 0 0 3 0 0 2 0 0 6 0 0 4 0 0 5 0 0 4 0 0 11 0 0 38 0 0 3498 0 0 7160 0 0 7120 0 0 7203 0 0 7098 0 0 7102 0 0 7066 0 0 7130 0 0 7113 0 0 7076 0 0 7156 0 0 7180 0 0 7116 0 0 7218 0 0 7217 0 0 7116 0 0 7015 0 0 7145 0 0 7279 0 0 7031 0 0 7122 0 0 7162 0 0 7184 0 0 7246 0 0 7164 0 0 7161 0 0 7016 0 0 7068 0 0 7109 0 0 7089 0 0 7161 0 0 7111 0 0 7245 0 0 7170 0 0 7131 0 0 7092 0 0 7092 0 0 7033 0 0 7049 0 0 7118 0 0 3569 0 0 54 0 0 9 0 0 4 0 0 6 0 0 1 0 0 3 0 0 3 0 0 3 0 0 1 0 0 
1 0 0 3 0 0 2 0 0 3 0 0 5 0 0 6 0 0 12 0 0 11 0 0 9 0 0 60 0 0 3573 0 0 7175 0 0 7183 0 0 7067 0 0 7210 0 0 7189 0 0 7130 0 0 7198 0 0 7121 0 0 7217 0 0 7228 0 0 7146 0 0 7160 0 0 7102 0 0 7110 0 0 7114 0 0 7063 0 0 7064 0 0 7130 0 0 7108 0 0 7067 0 0 7114 0 0 7079 0 0 7147 0 0 7098 0 0 7122 0 0 7158 0 0 7280 0 0 7193 0 0 7159 0 0 7220 0 0 7235 0 0 7233 0 0 7171 0 0 6955 0 0 7017 0 0 7112 0 0 7194 0 0 7231 0 0 7059 0 0 3590 0 0 41 0 0 9 0 0 7 0 0 6 0 0 4 0 0 8 0 0 7 0 0 7 0 0 4 0 0 
2 0 0 4 0 0 3 0 0 3 0 0 2 0 0 6 0 0 6 0 0 4 0 0 10 0 0 66 0 0 3492 0 0 6928 0 0 7136 0 0 7082 0 0 7164 0 0 7206 0 0 7111 0 0 7344 0 0 7082 0 0 7212 0 0 7323 0 0 7318 0 0 7036 0 0 7119 0 0 6839 0 0 7179 0 0 7015 0 0 7272 0 0 7053 0 0 7157 0 0 7052 0 0 7121 0 0 7023 0 0 7140 0 0 7143 0 0 7091 0 0 7084 0 0 7087 0 0 7173 0 0 7191 0 0 7166 0 0 7155 0 0 7186 0 0 7133 0 0 7080 0 0 7084 0 0 7166 0 0 7170 0 0 7101 0 0 7106 0 0 3564 0 0 57 0 0 11 0 0 6 0 0 6 0 0 8 0 0 7 0 0 4 0 0 1 0 0 1 0 0 
0 0 0 5 0 0 7 0 0 4 0 0 5 0 0 8 0 0 7 0 0 12 0 0 12 0 0 62 0 0 3643 0 0 7089 0 0 7067 0 0 7099 0 0 7108 0 0 7093 0 0 7110 0 0 7148 0 0 7119 0 0 7065 0 0 7140 0 0 7087 0 0 7213 0 0 7090 0 0 7152 0 0 6911 0 0 7161 0 0 7150 0 0 7065 0 0 7095 0 0 7161 0 0 7179 0 0 7038 0 0 7226 0 0 7178 0 0 6998 0 0 7063 0 0 7112 0 0 7212 0 0 7197 0 0 7071 0 0 7249 0 0 7187 0 0 7186 0 0 7152 0 0 7129 0 0 7045 0 0 7120 0 0 7108 0 0 7016 0 0 3517 0 0 49 0 0 9 0 0 10 0 0 10 0 0 9 0 0 6 0 0 9 0 0 4 0 0 6 0 0 
2 0 0 5 0 0 3 0 0 2 0 0 6 0 0 9 0 0 11 0 0 12 0 0 12 0 0 61 0 0 3643 0 0 6866 0 0 7149 0 0 7138 0 0 7034 0 0 7204 0 0 7124 0 0 7013 0 0 7119 0 0 7001 0 0 7185 0 0 7183 0 0 7100 0 0 7072 0 0 7194 0 0 7082 0 0 7131 0 0 6980 0 0 7065 0 0 7130 0 0 7103 0 0 7129 0 0 7059 0 0 7128 0 0 7133 0 0 7125 0 0 7205 0 0 7164 0 0 7130 0 0 7074 0 0 7215 0 0 7367 0 0 7124 0 0 7119 0 0 6992 0 0 7030 0 0 7020 0 0 7329 0 0 7169 0 0 7115 0 0 3546 0 0 68 0 0 19 0 0 8 0 0 10 0 0 7 0 0 6 0 0 3 0 0 3 0 0 6 0 0 
2 0 0 5 0 0 3 0 0 3 0 0 4 0 0 9 0 0 5 0 0 12 0 0 17 0 0 51 0 0 3517 0 0 6884 0 0 7131 0 0 7084 0 0 7110 0 0 7212 0 0 7077 0 0 7279 0 0 7111 0 0 7109 0 0 7035 0 0 7074 0 0 7097 0 0 7100 0 0 7158 0 0 7155 0 0 7145 0 0 7115 0 0 7111 0 0 7064 0 0 7241 0 0 7048 0 0 7136 0 0 7080 0 0 7174 0 0 7148 0 0 7189 0 0 7222 0 0 7099 0 0 7050 0 0 7250 0 0 7192 0 0 7139 0 0 7152 0 0 7046 0 0 7140 0 0 7085 0 0 7202 0 0 7053 0 0 7113 0 0 3509 0 0 59 0 0 12 0 0 13 0 0 8 0 0 3 0 0 7 0 0 6 0 0 4 0 0 3 0 0 
3 0 0 6 0 0 10 0 0 3 0 0 6 0 0 9 0 0 5 0 0 7 0 0 14 0 0 49 0 0 3574 0 0 7108 0 0 7052 0 0 6992 0 0 7210 0 0 7189 0 0 7159 0 0 7069 0 0 7229 0 0 7265 0 0 7152 0 0 7064 0 0 7022 0 0 7272 0 0 7215 0 0 7025 0 0 6943 0 0 6969 0 0 7022 0 0 7098 0 0 7107 0 0 7036 0 0 7215 0 0 7038 0 0 7329 0 0 7297 0 0 7196 0 0 7128 0 0 7065 0 0 7043 0 0 7188 0 0 7135 0 0 7148 0 0 7224 0 0 7041 0 0 7043 0 0 7247 0 0 7161 0 0 7003 0 0 7203 0 0 3554 0 0 53 0 0 23 0 0 15 0 0 5 0 0 9 0 0 7 0 0 4 0 0 1 0 0 1 0 0 
2 0 0 3 0 0 5 0 0 7 0 0 5 0 0 12 0 0 8 0 0 4 0 0 8 0 0 49 0 0 3547 0 0 7095 0 0 7154 0 0 7132 0 0 7123 0 0 7156 0 0 7059 0 0 7262 0 0 7063 0 0 7108 0 0 7226 0 0 7131 0 0 7155 0 0 7055 0 0 7159 0 0 7082 0 0 7122 0 0 7138 0 0 7161 0 0 7121 0 0 7137 0 0 7209 0 0 7169 0 0 7134 0 0 7201 0 0 7212 0 0 7208 0 0 7125 0 0 7020 0 0 7106 0 0 6999 0 0 7122 0 0 7199 0 0 7155 0 0 7083 0 0 7232 0 0 7027 0 0 7121 0 0 7005 0 0 7103 0 0 3557 0 0 60 0 0 12 0 0 16 0 0 9 0 0 6 0 0 9 0 0 5 0 0 3 0 0 1 0 0 
1 0 0 4 0 0 6 0 0 5 0 0 10 0 0 7 0 0 10 0 0 12 0 0 10 0 0 54 0 0 3577 0 0 6996 0 0 7200 0 0 7082 0 0 7261 0 0 7096 0 0 7212 0 0 7183 0 0 7148 0 0 7202 0 0 7107 0 0 7112 0 0 7079 0 0 7168 0 0 7112 0 0 7108 0 0 7143 0 0 7174 0 0 7161 0 0 7143 0 0 7096 0 0 7130 0 0 7247 0 0 7177 0 0 7099 0 0 7037 0 0 7008 0 0 7139 0 0 6995 0 0 7160 0 0 7152 0 0 7033 0 0 7189 0 0 7199 0 0 7138 0 0 7094 0 0 7289 0 0 7098 0 0 7173 0 0 7087 0 0 3533 0 0 54 0 0 16 0 0 12 0 0 13 0 0 11 0 0 5 0 0 4 0 0 7 0 0 7 0 0 
0 0 0 4 0 0 8 0 0 5 0 0 5 0 0 5 0 0 8 0 0 12 0 0 8 0 0 65 0 0 3615 0 0 7114 0 0 7131 0 0 7156 0 0 7279 0 0 7235 0 0 7119 0 0 7195 0 0 7257 0 0 7150 0 0 7000 0 0 7072 0 0 7161 0 0 7174 0 0 7114 0 0 7207 0 0 7138 0 0 7009 0 0 7155 0 0 7156 0 0 7129 0 0 7075 0 0 7047 0 0 7204 0 0 7166 0 0 7177 0 0 7151 0 0 7231 0 0 7036 0 0 7132 0 0 7036 0 0 7130 0 0 7219 0 0 6968 0 0 7174 0 0 7232 0 0 7124 0 0 7190 0 0 7147 0 0 7178 0 0 3458 0 0 53 0 0 16 0 0 4 0 0 8 0 0 7 0 0 8 0 0 7 0 0 8 0 0 5 0 0 
2 0 0 7 0 0 6 0 0 4 0 0 6 0 0 11 0 0 10 0 0 9 0 0 16 0 0 57 0 0 3528 0 0 7118 0 0 7269 0 0 7044 0 0 7121 0 0 7135 0 0 7068 0 0 7108 0 0 7144 0 0 7202 0 0 7103 0 0 7183 0 0 7172 0 0 7154 0 0 7069 0 0 7172 0 0 7258 0 0 7072 0 0 7098 0 0 7073 0 0 7144 0 0 7075 0 0 7131 0 0 7370 0 0 7105 0 0 7065 0 0 7105 0 0 7111 0 0 7189 0 0 7104 0 0 7107 0 0 7013 0 0 6870 0 0 7179 0 0 7052 0 0 7060 0 0 7036 0 0 7036 0 0 7098 0 0 7092 0 0 3552 0 0 51 0 0 14 0 0 6 0 0 7 0 0 6 0 0 9 0 0 10 0 0 9 0 0 4 0 0 
1 0 0 2 0 0 9 0 0 6 0 0 6 0 0 6 0 0 12 0 0 9 0 0 15 0 0 62 0 0 3546 0 0 7134 0 0 7077 0 0 7074 0 0 7272 0 0 7108 0 0 7138 0 0 7186 0 0 7095 0 0 7174 0 0 7324 0 0 7119 0 0 7062 0 0 6987 0 0 7009 0 0 7180 0 0 7031 0 0 7122 0 0 7079 0 0 7144 0 0 7159 0 0 7063 0 0 7092 0 0 7129 0 0 7067 0 0 7110 0 0 7061 0 0 7101 0 0 7234 0 0 7126 0 0 7200 0 0 7119 0 0 7057 0 0 7076 0 0 7150 0 0 7200 0 0 7218 0 0 6992 0 0 6979 0 0 7247 0 0 3618 0 0 59 0 0 14 0 0 10 0 0 12 0 0 9 0 0 8 0 0 8 0 0 3 0 0 6 0 0 
2 0 0 6 0 0 7 0 0 5 0 0 8 0 0 7 0 0 11 0 0 17 0 0 11 0 0 58 0 0 3634 0 0 7075 0 0 7225 0 0 7233 0 0 7210 0 0 7181 0 0 7217 0 0 7206 0 0 7060 0 0 7291 0 0 7192 0 0 7040 0 0 7075 0 0 7203 0 0 7181 0 0 7190 0 0 7230 0 0 7057 0 0 7026 0 0 7116 0 0 7217 0 0 7178 0 0 7068 0 0 7063 0 0 7113 0 0 7156 0 0 7170 0 0 7319 0 0 7030 0 0 7043 0 0 7206 0 0 7289 0 0 7207 0 0 7265 0 0 7061 0 0 7089 0 0 7087 0 0 7106 0 0 7128 0 0 6959 0 0 3482 0 0 56 0 0 12 0 0 8 0 0 9 0 0 7 0 0 3 0 0 4 0 0 6 0 0 2 0 0 
1 0 0 12 0 0 11 0 0 13 0 0 8 0 0 7 0 0 12 0 0 16 0 0 11 0 0 62 0 0 3593 0 0 7014 0 0 7031 0 0 7158 0 0 7120 0 0 7193 0 0 7178 0 0 7135 0 0 7044 0 0 7140 0 0 7054 0 0 7196 0 0 6989 0 0 7172 0 0 7133 0 0 7262 0 0 7163 0 0 7121 0 0 7204 0 0 7037 0 0 7194 0 0 7181 0 0 7106 0 0 7090 0 0 7177 0 0 7182 0 0 7155 0 0 7018 0 0 7152 0 0 7045 0 0 7165 0 0 7117 0 0 7189 0 0 7109 0 0 7347 0 0 7242 0 0 7087 0 0 6983 0 0 7197 0 0 7179 0 0 3507 0 0 66 0 0 20 0 0 9 0 0 5 0 0 6 0 0 5 0 0 6 0 0 5 0 0 4 0 0 
3 0 0 4 0 0 10 0 0 2 0 0 5 0 0 3 0 0 5 0 0 12 0 0 17 0 0 46 0 0 3551 0 0 7103 0 0 7041 0 0 7159 0 0 7060 0 0 7077 0 0 7135 0 0 7181 0 0 7227 0 0 7145 0 0 7146 0 0 7284 0 0 7151 0 0 7047 0 0 7074 0 0 7105 0 0 7213 0 0 7164 0 0 7142 0 0 7201 0 0 7038 0 0 7195 0 0 7227 0 0 7098 0 0 7081 0 0 7028 0 0 7048 0 0 7070 0 0 7251 0 0 7218 0 0 7148 0 0 7124 0 0 7087 0 0 7062 0 0 7071 0 0 7083 0 0 7211 0 0 6959 0 0 7069 0 0 7132 0 0 3560 0 0 53 0 0 12 0 0 13 0 0 9 0 0 8 0 0 9 0 0 4 0 0 4 0 0 6 0 0 
3 0 0 7 0 0 5 0 0 7 0 0 11 0 0 6 0 0 7 0 0 10 0 0 17 0 0 61 0 0 3532 0 0 7004 0 0 6921 0 0 7079 0 0 7050 0 0 7169 0 0 7105 0 0 7160 0 0 7014 0 0 6988 0 0 7171 0 0 7152 0 0 7130 0 0 7197 0 0 7059 0 0 7179 0 0 7066 0 0 7177 0 0 7094 0 0 7085 0 0 7094 0 0 7132 0 0 7247 0 0 7121 0 0 6990 0 0 7110 0 0 7118 0 0 7140 0 0 7067 0 0 7189 0 0 7262 0 0 7355 0 0 7118 0 0 7150 0 0 7174 0 0 7125 0 0 7201 0 0 7154 0 0 7166 0 0 7074 0 0 3535 0 0 51 0 0 10 0 0 9 0 0 9 0 0 7 0 0 6 0 0 5 0 0 6 0 0 4 0 0 
0 0 0 1 0 0 3 0 0 4 0 0 4 0 0 7 0 0 7 0 0 15 0 0 19 0 0 62 0 0 3552 0 0 7132 0 0 7104 0 0 7225 0 0 7188 0 0 7214 0 0 7233 0 0 7054 0 0 7187 0 0 7127 0 0 7255 0 0 7167 0 0 7038 0 0 7143 0 0 7132 0 0 7065 0 0 7040 0 0 7194 0 0 7188 0 0 7097 0 0 7112 0 0 7037 0 0 7013 0 0 7159 0 0 7132 0 0 7103 0 0 7113 0 0 7055 0 0 7054 0 0 7083 0 0 7058 0 0 7143 0 0 7253 0 0 7190 0 0 7232 0 0 7158 0 0 7119 0 0 7207 0 0 7188 0 0 7115 0 0 3561 0 0 55 0 0 11 0 0 14 0 0 7 0 0 6 0 0 6 0 0 5 0 0 2 0 0 3 0 0 
0 0 0 3 0 0 6 0 0 3 0 0 4 0 0 5 0 0 8 0 0 13 0 0 19 0 0 55 0 0 3647 0 0 7014 0 0 7228 0 0 7063 0 0 7139 0 0 7121 0 0 7152 0 0 7122 0 0 7096 0 0 7084 0 0 7300 0 0 7088 0 0 7226 0 0 7084 0 0 7075 0 0 7042 0 0 7140 0 0 7060 0 0 7152 0 0 7140 0 0 7083 0 0 7129 0 0 7050 0 0 7138 0 0 7205 0 0 7188 0 0 7011 0 0 7060 0 0 7194 0 0 7221 0 0 7275 0 0 7255 0 0 7192 0 0 7151 0 0 7102 0 0 7094 0 0 7123 0 0 7074 0 0 7241 0 0 7119 0 0 3630 0 0 51 0 0 14 0 0 15 0 0 13 0 0 12 0 0 7 0 0 0 0 0 3 0 0 4 0 0 
0 0 0 2 0 0 3 0 0 5 0 0 1 0 0 4 0 0 5 0 0 12 0 0 15 0 0 58 0 0 3621 0 0 7265 0 0 7160 0 0 7100 0 0 7235 0 0 7096 0 0 7126 0 0 7077 0 0 7110 0 0 7159 0 0 7117 0 0 7046 0 0 7224 0 0 7265 0 0 7063 0 0 7294 0 0 7153 0 0 7137 0 0 7167 0 0 7266 0 0 7051 0 0 7166 0 0 7214 0 0 7254 0 0 7061 0 0 7069 0 0 7269 0 0 7057 0 0 7152 0 0 7086 0 0 7131 0 0 7018 0 0 7203 0 0 7235 0 0 6984 0 0 7094 0 0 7240 0 0 7237 0 0 7036 0 0 7061 0 0 3502 0 0 68 0 0 13 0 0 9 0 0 11 0 0 11 0 0 4 0 0 4 0 0 2 0 0 4 0 0 
2 0 0 3 0 0 3 0 0 0 0 0 5 0 0 6 0 0 7 0 0 6 0 0 15 0 0 60 0 0 3585 0 0 7059 0 0 7188 0 0 7116 0 0 7122 0 0 7181 0 0 7302 0 0 7083 0 0 7162 0 0 7275 0 0 7176 0 0 7125 0 0 7102 0 0 7172 0 0 7177 0 0 7105 0 0 7170 0 0 7021 0 0 7166 0 0 7107 0 0 7084 0 0 7105 0 0 7170 0 0 7135 0 0 7172 0 0 7309 0 0 7156 0 0 7245 0 0 7139 0 0 7063 0 0 7139 0 0 7106 0 0 7246 0 0 7168 0 0 7225 0 0 7019 0 0 7178 0 0 7143 0 0 7071 0 0 6991 0 0 3528 0 0 56 0 0 11 0 0 12 0 0 10 0 0 7 0 0 10 0 0 3 0 0 3 0 0 4 0 0 
1 0 0 5 0 0 7 0 0 9 0 0 13 0 0 7 0 0 7 0 0 11 0 0 12 0 0 46 0 0 3550 0 0 7100 0 0 7167 0 0 7008 0 0 7172 0 0 7092 0 0 7265 0 0 7080 0 0 7136 0 0 7110 0 0 7166 0 0 7112 0 0 7256 0 0 7119 0 0 7043 0 0 7238 0 0 7154 0 0 7121 0 0 7132 0 0 6927 0 0 7218 0 0 7182 0 0 7191 0 0 7037 0 0 7229 0 0 7184 0 0 7215 0 0 7102 0 0 7279 0 0 7142 0 0 7137 0 0 7191 0 0 7091 0 0 7259 0 0 7105 0 0 7100 0 0 7100 0 0 7181 0 0 7135 0 0 7131 0 0 3543 0 0 59 0 0 12 0 0 6 0 0 8 0 0 11 0 0 11 0 0 11 0 0 9 0 0 10 0 0 
1 0 0 6 0 0 6 0 0 6 0 0 3 0 0 12 0 0 10 0 0 7 0 0 12 0 0 67 0 0 3469 0 0 7035 0 0 7075 0 0 7316 0 0 7250 0 0 7209 0 0 7070 0 0 7209 0 0 7125 0 0 7122 0 0 7099 0 0 7185 0 0 7179 0 0 7013 0 0 7060 0 0 7128 0 0 7114 0 0 7012 0 0 7025 0 0 7167 0 0 7131 0 0 7220 0 0 7268 0 0 7034 0 0 7252 0 0 7167 0 0 7147 0 0 6980 0 0 7146 0 0 7216 0 0 7192 0 0 7226 0 0 7203 0 0 7216 0 0 7147 0 0 7181 0 0 7050 0 0 7102 0 0 7147 0 0 7154 0 0 3582 0 0 59 0 0 14 0 0 15 0 0 10 0 0 10 0 0 6 0 0 9 0 0 5 0 0 9 0 0 
1 0 0 6 0 0 3 0 0 4 0 0 3 0 0 4 0 0 5 0 0 12 0 0 6 0 0 58 0 0 3605 0 0 6985 0 0 6990 0 0 7145 0 0 7060 0 0 7262 0 0 7081 0 0 7005 0 0 7178 0 0 7078 0 0 7134 0 0 7146 0 0 7212 0 0 7048 0 0 7176 0 0 7125 0 0 7080 0 0 7286 0 0 7174 0 0 6995 0 0 7240 0 0 7150 0 0 7034 0 0 7116 0 0 7245 0 0 6995 0 0 7154 0 0 7125 0 0 7204 0 0 7181 0 0 7088 0 0 7085 0 0 7212 0 0 7231 0 0 7139 0 0 7099 0 0 7199 0 0 7063 0 0 7167 0 0 7056 0 0 3503 0 0 58 0 0 8 0 0 10 0 0 5 0 0 6 0 0 6 0 0 10 0 0 18 0 0 8 0 0 
3 0 0 3 0 0 8 0 0 3 0 0 5 0 0 6 0 0 8 0 0 12 0 0 17 0 0 57 0 0 3538 0 0 7047 0 0 7093 0 0 7122 0 0 7224 0 0 7055 0 0 7104 0 0 7119 0 0 7167 0 0 7121 0 0 7248 0 0 7132 0 0 7177 0 0 7267 0 0 7118 0 0 7266 0 0 6980 0 0 7156 0 0 7270 0 0 7107 0 0 7070 0 0 6909 0 0 7106 0 0 7210 0 0 7142 0 0 7240 0 0 7142 0 0 7278 0 0 7236 0 0 7084 0 0 7179 0 0 7134 0 0 7226 0 0 7018 0 0 7203 0 0 7283 0 0 7189 0 0 7066 0 0 7134 0 0 7000 0 0 3522 0 0 64 0 0 16 0 0 6 0 0 4 0 0 4 0 0 6 0 0 3 0 0 2 0 0 6 0 0 
0 0 0 1 0 0 3 0 0 4 0 0 3 0 0 5 0 0 8 0 0 10 0 0 16 0 0 56 0 0 3564 0 0 7049 0 0 7139 0 0 7062 0 0 7168 0 0 7072 0 0 7151 0 0 7213 0 0 7140 0 0 7188 0 0 7075 0 0 7087 0 0 7109 0 0 7226 0 0 7132 0 0 7149 0 0 7183 0 0 7284 0 0 7113 0 0 7023 0 0 7092 0 0 7071 0 0 7119 0 0 7001 0 0 7160 0 0 7178 0 0 7091 0 0 6969 0 0 7139 0 0 7190 0 0 7091 0 0 7210 0 0 7223 0 0 7032 0 0 7022 0 0 7104 0 0 7116 0 0 7237 0 0 7235 0 0 7050 0 0 3520 0 0 53 0 0 13 0 0 6 0 0 8 0 0 5 0 0 6 0 0 5 0 0 2 0 0 1 0 0 
3 0 0 7 0 0 4 0 0 2 0 0 2 0 0 11 0 0 10 0 0 14 0 0 13 0 0 58 0 0 3528 0 0 7123 0 0 7246 0 0 7105 0 0 7197 0 0 7167 0 0 6940 0 0 7059 0 0 7094 0 0 7121 0 0 7137 0 0 7165 0 0 7331 0 0 7145 0 0 7062 0 0 7093 0 0 7089 0 0 7235 0 0 7133 0 0 7206 0 0 7205 0 0 7272 0 0 7181 0 0 7071 0 0 7118 0 0 7163 0 0 7115 0 0 7205 0 0 7163 0 0 7105 0 0 7189 0 0 7182 0 0 7082 0 0 7207 0 0 7060 0 0 7025 0 0 7155 0 0 7100 0 0 7191 0 0 6886 0 0 3528 0 0 49 0 0 21 0 0 13 0 0 4 0 0 8 0 0 5 0 0 2 0 0 5 0 0 5 0 0 
3 0 0 3 0 0 5 0 0 6 0 0 7 0 0 10 0 0 5 0 0 12 0 0 19 0 0 64 0 0 3600 0 0 7223 0 0 6969 0 0 6986 0 0 7183 0 0 7135 0 0 7056 0 0 7168 0 0 7242 0 0 6999 0 0 7217 0 0 7064 0 0 7111 0 0 7031 0 0 7029 0 0 7085 0 0 7269 0 0 7126 0 0 7195 0 0 7014 0 0 7175 0 0 7186 0 0 7123 0 0 7077 0 0 7093 0 0 7244 0 0 7113 0 0 7054 0 0 6979 0 0 7200 0 0 7081 0 0 7128 0 0 7123 0 0 7038 0 0 7156 0 0 7072 0 0 7149 0 0 7267 0 0 7106 0 0 6953 0 0 3568 0 0 64 0 0 12 0 0 9 0 0 9 0 0 7 0 0 8 0 0 3 0 0 6 0 0 5 0 0 
3 0 0 9 0 0 8 0 0 6 0 0 4 0 0 4 0 0 8 0 0 9 0 0 12 0 0 62 0 0 3642 0 0 6930 0 0 7014 0 0 7013 0 0 7070 0 0 7043 0 0 7133 0 0 7198 0 0 7186 0 0 7140 0 0 7137 0 0 7152 0 0 7230 0 0 7123 0 0 7158 0 0 7135 0 0 6970 0 0 7145 0 0 7213 0 0 7068 0 0 7107 0 0 7109 0 0 7238 0 0 7068 0 0 6923 0 0 7159 0 0 7056 0 0 7139 0 0 7131 0 0 7145 0 0 7195 0 0 7122 0 0 7111 0 0 7132 0 0 7143 0 0 7105 0 0 7094 0 0 7056 0 0 7168 0 0 7134 0 0 3572 0 0 68 0 0 21 0 0 13 0 0 12 0 0 11 0 0 4 0 0 2 0 0 3 0 0 3 0 0 
1 0 0 7 0 0 8 0 0 11 0 0 7 0 0 6 0 0 4 0 0 10 0 0 10 0 0 44 0 0 3584 0 0 6976 0 0 7136 0 0 7168 0 0 7093 0 0 7062 0 0 7173 0 0 7108 0 0 7120 0 0 7103 0 0 7357 0 0 7150 0 0 7146 0 0 7238 0 0 7108 0 0 7132 0 0 7049 0 0 7070 0 0 7114 0 0 7073 0 0 7024 0 0 7150 0 0 7212 0 0 7105 0 0 7263 0 0 7073 0 0 7130 0 0 7233 0 0 7126 0 0 7159 0 0 7100 0 0 7198 0 0 7259 0 0 7012 0 0 7095 0 0 7100 0 0 7063 0 0 7308 0 0 7134 0 0 7180 0 0 3674 0 0 61 0 0 12 0 0 9 0 0 12 0 0 10 0 0 9 0 0 5 0 0 6 0 0 9 0 0 
1 0 0 2 0 0 1 0 0 0 0 0 6 0 0 10 0 0 9 0 0 10 0 0 10 0 0 73 0 0 3473 0 0 7033 0 0 7094 0 0 7187 0 0 7086 0 0 7137 0 0 7099 0 0 7213 0 0 7154 0 0 7208 0 0 6922 0 0 7123 0 0 7234 0 0 7014 0 0 7111 0 0 7200 0 0 7095 0 0 7235 0 0 7147 0 0 7177 0 0 7176 0 0 7220 0 0 7214 0 0 7102 0 0 7190 0 0 7308 0 0 7104 0 0 7239 0 0 7192 0 0 7038 0 0 7098 0 0 7042 0 0 7118 0 0 6984 0 0 7169 0 0 7198 0 0 7067 0 0 7275 0 0 7224 0 0 7107 0 0 3560 0 0 36 0 0 18 0 0 13 0 0 10 0 0 6 0 0 10 0 0 8 0 0 4 0 0 2 0 0 
5 0 0 6 0 0 4 0 0 3 0 0 8 0 0 8 0 0 9 0 0 15 0 0 10 0 0 55 0 0 3511 0 0 7175 0 0 7140 0 0 7032 0 0 7148 0 0 7159 0 0 7188 0 0 7165 0 0 7216 0 0 7149 0 0 7074 0 0 7067 0 0 7216 0 0 7049 0 0 7148 0 0 7193 0 0 7065 0 0 7268 0 0 7045 0 0 7187 0 0 7132 0 0 7220 0 0 7119 0 0 7283 0 0 7010 0 0 7014 0 0 7088 0 0 7060 0 0 7172 0 0 7297 0 0 7048 0 0 7103 0 0 7136 0 0 7092 0 0 7031 0 0 7122 0 0 7117 0 0 7221 0 0 7058 0 0 7093 0 0 3561 0 0 57 0 0 9 0 0 9 0 0 9 0 0 9 0 0 8 0 0 9 0 0 6 0 0 3 0 0 
1 0 0 3 0 0 5 0 0 4 0 0 2 0 0 4 0 0 7 0 0 7 0 0 12 0 0 56 0 0 3596 0 0 7156 0 0 7061 0 0 7105 0 0 7130 0 0 6964 0 0 7138 0 0 7067 0 0 7307 0 0 7206 0 0 7030 0 0 7068 0 0 7195 0 0 7172 0 0 7290 0 0 7261 0 0 7131 0 0 7115 0 0 7275 0 0 7107 0 0 7223 0 0 7181 0 0 7156 0 0 7027 0 0 7057 0 0 7032 0 0 7128 0 0 7236 0 0 7056 0 0 7139 0 0 7151 0 0 7117 0 0 7102 0 0 7183 0 0 7128 0 0 7116 0 0 7120 0 0 7112 0 0 6992 0 0 7194 0 0 3471 0 0 56 0 0 7 0 0 5 0 0 1 0 0 4 0 0 4 0 0 4 0 0 2 0 0 4 0 0 
1 0 0 1 0 0 4 0 0 5 0 0 4 0 0 6 0 0 5 0 0 7 0 0 10 0 0 61 0 0 3603 0 0 7203 0 0 7020 0 0 7055 0 0 7152 0 0 7110 0 0 7280 0 0 7216 0 0 7110 0 0 7177 0 0 7196 0 0 7144 0 0 7062 0 0 7190 0 0 7130 0 0 7143 0 0 7128 0 0 7061 0 0 7064 0 0 7125 0 0 7103 0 0 7143 0 0 7237 0 0 7033 0 0 7116 0 0 7194 0 0 7140 0 0 7160 0 0 7088 0 0 7108 0 0 7162 0 0 7044 0 0 7262 0 0 7193 0 0 7067 0 0 7043 0 0 7082 0 0 7164 0 0 6992 0 0 7008 0 0 3537 0 0 54 0 0 14 0 0 8 0 0 4 0 0 2 0 0 2 0 0 2 0 0 0 0 0 2 0 0 
2 0 0 5 0 0 4 0 0 6 0 0 5 0 0 7 0 0 6 0 0 11 0 0 10 0 0 61 0 0 3515 0 0 7198 0 0 7051 0 0 7013 0 0 7053 0 0 7051 0 0 7056 0 0 7015 0 0 7143 0 0 7179 0 0 7147 0 0 7191 0 0 7275 0 0 6919 0 0 6975 0 0 7064 0 0 7241 0 0 7101 0 0 7216 0 0 7098 0 0 7090 0 0 7090 0 0 7251 0 0 7133 0 0 7202 0 0 7093 0 0 7217 0 0 7063 0 0 7182 0 0 7155 0 0 7203 0 0 7081 0 0 7132 0 0 7208 0 0 7142 0 0 7149 0 0 7151 0 0 7138 0 0 7051 0 0 7034 0 0 3550 0 0 67 0 0 9 0 0 14 0 0 10 0 0 8 0 0 7 0 0 4 0 0 3 0 0 3 0 0 
0 0 0 2 0 0 4 0 0 8 0 0 5 0 0 6 0 0 8 0 0 6 0 0 10 0 0 47 0 0 3503 0 0 7116 0 0 7094 0 0 7103 0 0 7142 0 0 7152 0 0 6968 0 0 7057 0 0 7163 0 0 7081 0 0 7182 0 0 7039 0 0 7143 0 0 7269 0 0 7151 0 0 7181 0 0 7181 0 0 7269 0 0 6953 0 0 7016 0 0 7218 0 0 7223 0 0 6977 0 0 7119 0 0 7019 0 0 7122 0 0 7230 0 0 7147 0 0 7111 0 0 7319 0 0 7135 0 0 7294 0 0 7141 0 0 7106 0 0 7187 0 0 7171 0 0 7207 0 0 7110 0 0 7151 0 0 7015 0 0 3510 0 0 64 0 0 15 0 0 6 0 0 7 0 0 5 0 0 7 0 0 6 0 0 6 0 0 5 0 0 
2 0 0 2 0 0 5 0 0 7 0 0 7 0 0 10 0 0 9 0 0 12 0 0 13 0 0 55 0 0 3604 0 0 7224 0 0 7132 0 0 7307 0 0 7161 0 0 7161 0 0 7151 0 0 7167 0 0 7155 0 0 7214 0 0 7154 0 0 7122 0 0 7073 0 0 7121 0 0 7115 0 0 7221 0 0 7186 0 0 7113 0 0 7202 0 0 7064 0 0 7122 0 0 7108 0 0 7127 0 0 7187 0 0 7113 0 0 7132 0 0 7147 0 0 7095 0 0 7185 0 0 7141 0 0 7127 0 0 7117 0 0 7072 0 0 7009 0 0 7099 0 0 7058 0 0 7174 0 0 7028 0 0 7118 0 0 7088 0 0 3607 0 0 56 0 0 10 0 0 10 0 0 7 0 0 10 0 0 7 0 0 6 0 0 4 0 0 5 0 0 
2 0 0 8 0 0 4 0 0 2 0 0 6 0 0 8 0 0 4 0 0 9 0 0 9 0 0 49 0 0 3581 0 0 6969 0 0 7113 0 0 7240 0 0 7050 0 0 7169 0 0 7117 0 0 7158 0 0 7083 0 0 7108 0 0 7129 0 0 7089 0 0 7162 0 0 7140 0 0 7134 0 0 7096 0 0 6997 0 0 7120 0 0 7205 0 0 7158 0 0 7138 0 0 7036 0 0 7007 0 0 7178 0 0 7279 0 0 6988 0 0 6951 0 0 7132 0 0 7225 0 0 7208 0 0 7037 0 0 7351 0 0 7121 0 0 7092 0 0 7083 0 0 7018 0 0 7221 0 0 7116 0 0 7178 0 0 7034 0 0 3583 0 0 58 0 0 11 0 0 2 0 0 5 0 0 4 0 0 6 0 0 5 0 0 9 0 0 2 0 0 
1 0 0 7 0 0 4 0 0 5 0 0 6 0 0 4 0 0 5 0 0 5 0 0 11 0 0 47 0 0 3554 0 0 7040 0 0 7120 0 0 7051 0 0 7039 0 0 7265 0 0 7115 0 0 7155 0 0 7268 0 0 7036 0 0 7101 0 0 7237 0 0 7176 0 0 7033 0 0 7061 0 0 7136 0 0 7090 0 0 7188 0 0 7225 0 0 6996 0 0 7137 0 0 7100 0 0 7073 0 0 7133 0 0 7129 0 0 7014 0 0 7091 0 0 7211 0 0 7151 0 0 7112 0 0 6983 0 0 7009 0 0 7120 0 0 7054 0 0 7097 0 0 7193 0 0 7043 0 0 7155 0 0 7133 0 0 7039 0 0 3529 0 0 58 0 0 12 0 0 7 0 0 2 0 0 2 0 0 3 0 0 8 0 0 7 0 0 4 0 0 
3 0 0 6 0 0 5 0 0 5 0 0 5 0 0 2 0 0 8 0 0 9 0 0 11 0 0 30 0 0 1825 0 0 3532 0 0 3702 0 0 3539 0 0 3595 0 0 3588 0 0 3528 0 0 3484 0 0 3660 0 0 3553 0 0 3609 0 0 3570 0 0 3542 0 0 3556 0 0 3603 0 0 3493 0 0 3522 0 0 3602 0 0 3598 0 0 3584 0 0 3563 0 0 3598 0 0 3480 0 0 3554 0 0 3591 0 0 3590 0 0 3598 0 0 3491 0 0 3446 0 0 3514 0 0 3579 0 0 3637 0 0 3556 0 0 3492 0 0 3612 0 0 3510 0 0 3498 0 0 3546 0 0 3581 0 0 3604 0 0 1776 0 0 24 0 0 7 0 0 6 0 0 2 0 0 1 0 0 3 0 0 5 0 0 7 0 0 4 0 0 
2 0 0 3 0 0 7 0 0 6 0 0 1 0 0 3 0 0 5 0 0 5 0 0 6 0 0 3 0 0 28 0 0 48 0 0 63 0 0 55 0 0 64 0 0 45 0 0 57 0 0 59 0 0 50 0 0 50 0 0 59 0 0 61 0 0 48 0 0 49 0 0 47 0 0 73 0 0 56 0 0 65 0 0 63 0 0 60 0 0 65 0 0 62 0 0 60 0 0 71 0 0 60 0 0 52 0 0 59 0 0 59 0 0 56 0 0 50 0 0 43 0 0 52 0 0 53 0 0 55 0 0 55 0 0 47 0 0 53 0 0 56 0 0 59 0 0 41 0 0 22 0 0 2 0 0 6 0 0 3 0 0 3 0 0 1 0 0 0 0 0 3 0 0 5 0 0 4 0 0 
1 0 0 3 0 0 2 0 0 2 0 0 6 0 0 2 0 0 2 0 0 4 0 0 7 0 0 6 0 0 7 0 0 10 0 0 19 0 0 15 0 0 11 0 0 13 0 0 16 0 0 17 0 0 13 0 0 10 0 0 9 0 0 11 0 0 13 0 0 14 0 0 10 0 0 14 0 0 16 0 0 23 0 0 15 0 0 14 0 0 14 0 0 24 0 0 16 0 0 17 0 0 18 0 0 11 0 0 14 0 0 18 0 0 12 0 0 13 0 0 12 0 0 10 0 0 10 0 0 11 0 0 8 0 0 10 0 0 9 0 0 5 0 0 5 0 0 7 0 0 4 0 0 4 0 0 2 0 0 2 0 0 2 0 0 2 0 0 0 0 0 2 0 0 3 0 0 5 0 0 
1 0 0 3 0 0 2 0 0 4 0 0 2 0 0 1 0 0 8 0 0 5 0 0 5 0 0 4 0 0 7 0 0 11 0 0 9 0 0 8 0 0 8 0 0 9 0 0 12 0 0 11 0 0 10 0 0 9 0 0 6 0 0 14 0 0 9 0 0 11 0 0 8 0 0 10 0 0 19 0 0 15 0 0 8 0 0 5 0 0 6 0 0 15 0 0 16 0 0 17 0 0 17 0 0 10 0 0 14 0 0 12 0 0 10 0 0 16 0 0 12 0 0 9 0 0 9 0 0 4 0 0 3 0 0 11 0 0 6 0 0 2 0 0 3 0 0 4 0 0 4 0 0 2 0 0 5 0 0 1 0 0 1 0 0 0 0 0 2 0 0 3 0 0 2 0 0 3 0 0 
2 0 0 2 0 0 5 0 0 6 0 0 1 0 0 4 0 0 4 0 0 4 0 0 2 0 0 5 0 0 10 0 0 7 0 0 5 0 0 7 0 0 11 0 0 9 0 0 8 0 0 7 0 0 8 0 0 8 0 0 11 0 0 7 0 0 8 0 0 6 0 0 7 0 0 12 0 0 12 0 0 12 0 0 3 0 0 2 0 0 6 0 0 11 0 0 18 0 0 11 0 0 12 0 0 10 0 0 7 0 0 7 0 0 9 0 0 15 0 0 8 0 0 6 0 0 5 0 0 7 0 0 2 0 0 7 0 0 9 0 0 7 0 0 3 0 0 3 0 0 5 0 0 0 0 0 0 0 0 3 0 0 2 0 0 0 0 0 0 0 0 0 0 0 0 0 0 2 0 0 
0 0 0 3 0 0 5 0 0 1 0 0 1 0 0 5 0 0 3 0 0 3 0 0 4 0 0 4 0 0 8 0 0 3 0 0 2 0 0 3 0 0 5 0 0 5 0 0 6 0 0 7 0 0 9 0 0 7 0 0 5 0 0 7 0 0 4 0 0 9 0 0 12 0 0 9 0 0 11 0 0 7 0 0 10 0 0 5 0 0 6 0 0 10 0 0 8 0 0 8 0 0 12 0 0 7 0 0 5 0 0 9 0 0 9 0 0 9 0 0 11 0 0 7 0 0 5 0 0 6 0 0 2 0 0 2 0 0 5 0 0 9 0 0 7 0 0 5 0 0 5 0 0 5 0 0 0 0 0 1 0 0 5 0 0 4 0 0 3 0 0 1 0 0 1 0 0 0 0 0 
1 0 0 6 0 0 1 0 0 1 0 0 3 0 0 5 0 0 2 0 0 6 0 0 7 0 0 4 0 0 5 0 0 6 0 0 4 0 0 3 0 0 2 0 0 6 0 0 7 0 0 2 0 0 3 0 0 4 0 0 3 0 0 6 0 0 5 0 0 7 0 0 9 0 0 12 0 0 8 0 0 12 0 0 5 0 0 7 0 0 10 0 0 6 0 0 5 0 0 7 0 0 9 0 0 8 0 0 2 0 0 7 0 0 6 0 0 5 0 0 7 0 0 7 0 0 8 0 0 3 0 0 1 0 0 3 0 0 5 0 0 2 0 0 10 0 0 5 0 0 5 0 0 6 0 0 2 0 0 4 0 0 2 0 0 4 0 0 4 0 0 0 0 0 2 0 0 2 0 0 
1 0 0 5 0 0 0 0 0 2 0 0 2 0 0 1 0 0 5 0 0 4 0 0 2 0 0 1 0 0 6 0 0 8 0 0 5 0 0 4 0 0 0 0 0 3 0 0 4 0 0 1 0 0 0 0 0 8 0 0 5 0 0 3 0 0 11 0 0 4 0 0 6 0 0 9 0 0 8 0 0 11 0 0 5 0 0 6 0 0 5 0 0 5 0 0 3 0 0 2 0 0 10 0 0 4 0 0 1 0 0 4 0 0 3 0 0 6 0 0 3 0 0 10 0 0 2 0 0 3 0 0 1 0 0 2 0 0 4 0 0 2 0 0 8 0 0 3 0 0 5 0 0 4 0 0 5 0 0 2 0 0 1 0 0 1 0 0 3 0 0 1 0 0 0 0 0 2 0 0 
1 0 0 2 0 0 1 0 0 1 0 0 4 0 0 5 0 0 2 0 0 1 0 0 1 0 0 1 0 0 3 0 0 3 0 0 6 0 0 1 0 0 4 0 0 0 0 0 6 0 0 1 0 0 2 0 0 6 0 0 2 0 0 6 0 0 7 0 0 3 0 0 4 0 0 7 0 0 3 0 0 8 0 0 6 0 0 2 0 0 6 0 0 6 0 0 2 0 0 4 0 0 7 0 0 8 0 0 0 0 0 3 0 0 6 0 0 4 0 0 1 0 0 6 0 0 5 0 0 5 0 0 2 0 0 3 0 0 2 0 0 4 0 0 3 0 0 6 0 0 2 0 0 5 0 0 3 0 0 1 0 0 0 0 0 0 0 0 1 0 0 0 0 0 0 0 0 0 0 0 
1 0 0 1 0 0 4 0 0 2 0 0 3 0 0 1 0 0 2 0 0 4 0 0 0 0 0 1 0 0 3 0 0 6 0 0 4 0 0 0 0 0 1 0 0 3 0 0 1 0 0 3 0 0 2 0 0 3 0 0 4 0 0 4 0 0 3 0 0 2 0 0 7 0 0 4 0 0 4 0 0 4 0 0 6 0 0 4 0 0 4 0 0 4 0 0 7 0 0 1 0 0 6 0 0 10 0 0 1 0 0 4 0 0 5 0 0 11 0 0 2 0 0 3 0 0 3 0 0 8 0 0 1 0 0 2 0 0 5 0 0 2 0 0 2 0 0 4 0 0 4 0 0 5 0 0 1 0 0 0 0 0 1 0 0 0 0 0 0 0 0 1 0 0 0 0 0 2 0 0 
