P3
# This is a dose file slice at depth 64 of 100
60 60
# now we give the maximum value of the RGB coordinates.
22407
0 0 0 0 0 0 0 0 0 0 0 0 0 0 0 0 0 0 0 0 0 0 0 0 0 0 0 0 0 0 0 0 0 0 0 0 0 0 0 0 0 0 0 0 0 0 0 0 0 0 0 0 0 0 0 0 0 0 0 0 0 0 0 0 0 0 0 0 0 0 0 0 0 0 0 0 0 0 0 0 0 0 0 0 0 0 0 0 0 0 0 0 0 0 0 0 0 0 0 0 0 0 0 0 0 0 0 0 0 0 0 0 0 0 0 0 0 0 0 0 0 0 0 0 0 0 0 0 0 0 0 0 0 0 0 0 0 0 0 0 0 0 0 0 0 0 0 0 0 0 0 0 0 0 0 0 0 0 0 0 0 0 0 0 0 0 0 0 0 0 0 0 0 0 0 0 0 0 0 0 
0 0 0 0 0 0 0 0 0 0 0 0 0 0 0 0 0 0 0 0 0 0 0 0 0 0 0 0 0 0 0 0 0 0 0 0 0 0 0 0 0 0 0 0 0 0 0 0 0 0 0 0 0 0 0 0 0 0 0 0 0 0 0 0 0 0 0 0 0 0 0 0 0 0 0 0 0 0 0 0 0 0 0 0 0 0 0 0 0 0 0 0 0 0 0 0 0 0 0 0 0 0 0 0 0 0 0 0 0 0 0 0 0 0 0 0 0 0 0 0 0 0 0 0 0 0 0 0 0 0 0 0 0 0 0 0 0 0 0 0 0 0 0 0 0 0 0 0 0 0 0 0 0 0 0 0 0 0 0 0 0 0 0 0 0 0 0 0 0 0 0 0 0 0 0 0 0 0 0 0 
0 0 0 0 0 0 0 0 0 0 0 0 0 0 0 0 0 0 0 0 0 0 0 0 0 0 0 0 0 0 0 0 0 0 0 0 0 0 0 0 0 0 0 0 0 0 0 0 0 0 0 0 0 0 0 0 0 0 0 0 0 0 0 0 0 0 0 0 0 0 0 0 0 0 0 0 0 0 0 0 0 0 0 0 0 0 0 0 0 0 0 0 0 0 0 0 0 0 0 0 0 0 0 0 0 0 0 0 0 0 0 0 0 0 0 0 0 0 0 0 0 0 0 0 0 0 0 0 0 0 0 0 0 0 0 0 0 0 0 0 0 0 0 0 0 0 0 0 0 0 0 0 0 0 0 0 0 0 0 0 0 0 0 0 0 0 0 0 0 0 0 0 0 0 0 0 0 0 0 0 
0 0 0 0 0 0 0 0 0 0 0 0 0 0 0 0 0 0 0 0 0 0 0 0 0 0 0 0 0 0 0 0 0 0 0 0 0 0 0 0 0 0 0 0 0 0 0 0 0 0 0 0 0 0 0 0 0 0 0 0 0 0 0 0 0 0 0 0 0 0 0 0 0 0 0 0 0 0 0 0 0 0 0 0 0 0 0 0 0 0 0 0 0 0 0 0 0 0 0 0 0 0 0 0 0 0 0 0 0 0 0 0 0 0 0 0 0 0 0 0 0 0 0 0 0 0 0 0 0 0 0 0 0 0 0 0 0 0 0 0 0 0 0 0 0 0 0 0 0 0 0 0 0 0 0 0 0 0 0 0 0 0 0 0 0 0 0 0 0 0 0 0 0 0 0 0 0 0 0 0 
0 0 0 0 0 0 0 0 0 0 0 0 0 0 0 0 0 0 0 0 0 0 0 0 0 0 0 0 0 0 0 0 0 0 0 0 0 0 0 0 0 0 0 0 0 0 0 0 0 0 0 0 0 0 0 0 0 0 0 0 0 0 0 0 0 0 0 0 0 0 0 0 0 0 0 0 0 0 0 0 0 0 0 0 0 0 0 0 0 0 0 0 0 0 0 0 0 0 0 0 0 0 0 0 0 0 0 0 0 0 0 0 0 0 0 0 0 0 0 0 0 0 0 0 0 0 0 0 0 0 0 0 0 0 0 0 0 0 0 0 0 0 0 0 0 0 0 0 0 0 0 0 0 0 0 0 0 0 0 0 0 0 0 0 0 0 0 0 0 0 0 0 0 0 0 0 0 0 0 0 
0 0 0 0 0 0 0 0 0 0 0 0 0 0 0 0 0 0 0 0 0 0 0 0 0 0 0 0 0 0 0 0 0 0 0 0 0 0 0 0 0 0 0 0 0 0 0 0 0 0 0 0 0 0 0 0 0 0 0 0 0 0 0 0 0 0 0 0 0 0 0 0 0 0 0 0 0 0 0 0 0 0 0 0 0 0 0 0 0 0 0 0 0 0 0 0 0 0 0 0 0 0 0 0 0 0 0 0 0 0 0 0 0 0 0 0 0 0 0 0 0 0 0 0 0 0 0 0 0 0 0 0 0 0 0 0 0 0 0 0 0 0 0 0 0 0 0 0 0 0 0 0 0 0 0 0 0 0 0 0 0 0 0 0 0 0 0 0 0 0 0 0 0 0 0 0 0 0 0 0 
0 0 0 0 0 0 0 0 0 0 0 0 0 0 0 0 0 0 0 0 0 0 0 0 0 0 0 0 0 0 0 0 0 0 0 0 0 0 0 0 0 0 0 0 0 0 0 0 0 0 0 0 0 0 0 0 0 0 0 0 0 0 0 0 0 0 0 0 0 0 0 0 0 0 0 0 0 0 0 0 0 0 0 0 0 0 0 0 0 0 0 0 0 0 0 0 0 0 0 0 0 0 0 0 0 0 0 0 0 0 0 0 0 0 0 0 0 0 0 0 0 0 0 0 0 0 0 0 0 0 0 0 0 0 0 0 0 0 0 0 0 0 0 0 0 0 0 0 0 0 0 0 0 0 0 0 0 0 0 0 0 0 0 0 0 0 0 0 0 0 0 0 0 0 0 0 0 0 0 0 
0 0 0 0 0 0 0 0 0 0 0 0 0 0 0 0 0 0 0 0 0 0 0 0 0 0 0 0 0 0 0 0 0 0 0 0 0 0 0 0 0 0 0 0 0 0 0 0 0 0 0 0 0 0 0 0 0 0 0 0 0 0 0 0 0 0 0 0 0 0 0 0 0 0 0 0 0 0 0 0 0 0 0 0 0 0 0 0 0 0 0 0 0 0 0 0 0 0 0 0 0 0 0 0 0 0 0 0 0 0 0 0 0 0 0 0 0 0 0 0 0 0 0 0 0 0 0 0 0 0 0 0 0 0 0 0 0 0 0 0 0 0 0 0 0 0 0 0 0 0 0 0 0 0 0 0 0 0 0 0 0 0 0 0 0 0 0 0 0 0 0 0 0 0 0 0 0 0 0 0 
0 0 0 0 0 0 0 0 0 0 0 0 0 0 0 0 0 0 0 0 0 0 0 0 0 0 0 0 0 0 0 0 0 0 0 0 0 0 0 0 0 0 0 0 0 0 0 0 0 0 0 0 0 0 0 0 0 0 0 0 0 0 0 0 0 0 0 0 0 0 0 0 0 0 0 0 0 0 0 0 0 0 0 0 0 0 0 0 0 0 0 0 0 0 0 0 0 0 0 0 0 0 0 0 0 0 0 0 0 0 0 0 0 0 0 0 0 0 0 0 0 0 0 0 0 0 0 0 0 0 0 0 0 0 0 0 0 0 0 0 0 0 0 0 0 0 0 0 0 0 0 0 0 0 0 0 0 0 0 0 0 0 0 0 0 0 0 0 0 0 0 0 0 0 0 0 0 0 0 0 
0 0 0 0 0 0 0 0 0 0 0 0 0 0 0 0 0 0 0 0 0 0 0 0 0 0 0 0 0 0 0 0 0 0 0 0 0 0 0 0 0 0 0 0 0 0 0 0 0 0 0 0 0 0 0 0 0 0 0 0 0 0 0 0 0 0 0 0 0 0 0 0 0 0 0 0 0 0 0 0 0 0 0 0 0 0 0 0 0 0 0 0 0 0 0 0 0 0 0 0 0 0 0 0 0 0 0 0 0 0 0 0 0 0 0 0 0 0 0 0 0 0 0 0 0 0 0 0 0 0 0 0 0 0 0 0 0 0 0 0 0 0 0 0 0 0 0 0 0 0 0 0 0 0 0 0 0 0 0 0 0 0 0 0 0 0 0 0 0 0 0 0 0 0 0 0 0 0 0 0 
0 0 0 0 0 0 0 0 0 0 0 0 0 0 0 0 0 0 0 0 0 0 0 0 0 0 0 0 0 0 897 0 0 1743 0 0 1682 0 0 1713 0 0 1745 0 0 1769 0 0 1803 0 0 1744 0 0 1723 0 0 1807 0 0 1703 0 0 1830 0 0 1738 0 0 1740 0 0 1835 0 0 1697 0 0 1731 0 0 1735 0 0 1675 0 0 1802 0 0 1812 0 0 1748 0 0 1770 0 0 1688 0 0 1800 0 0 1789 0 0 1704 0 0 1788 0 0 1853 0 0 1718 0 0 1745 0 0 1802 0 0 1794 0 0 1744 0 0 1730 0 0 1779 0 0 1795 0 0 1791 0 0 1790 0 0 1723 0 0 908 0 0 0 0 0 0 0 0 0 0 0 0 0 0 0 0 0 0 0 0 0 0 0 0 0 0 0 0 0 
0 0 0 0 0 0 0 0 0 0 0 0 0 0 0 0 0 0 0 0 0 0 0 0 0 0 0 0 0 0 1740 0 0 3528 0 0 3556 0 0 3535 0 0 3530 0 0 3552 0 0 3523 0 0 3510 0 0 3495 0 0 3536 0 0 3380 0 0 3422 0 0 3426 0 0 3418 0 0 3480 0 0 3522 0 0 3578 0 0 3485 0 0 3609 0 0 3573 0 0 3469 0 0 3427 0 0 3522 0 0 3508 0 0 3509 0 0 3529 0 0 3467 0 0 3476 0 0 3506 0 0 3585 0 0 3549 0 0 3456 0 0 3580 0 0 3454 0 0 3573 0 0 3431 0 0 3553 0 0 3493 0 0 3554 0 0 3439 0 0 1782 0 0 0 0 0 0 0 0 0 0 0 0 0 0 0 0 0 0 0 0 0 0 0 0 0 0 0 0 0 
0 0 0 0 0 0 0 0 0 0 0 0 0 0 0 0 0 0 0 0 0 0 0 0 0 0 0 0 0 0 1717 0 0 3453 0 0 3487 0 0 3542 0 0 3586 0 0 3526 0 0 3392 0 0 3455 0 0 3511 0 0 3456 0 0 3454 0 0 3524 0 0 3395 0 0 3507 0 0 3555 0 0 3531 0 0 3402 0 0 3514 0 0 3506 0 0 3518 0 0 3514 0 0 3434 0 0 3568 0 0 3497 0 0 3564 0 0 3462 0 0 3571 0 0 3521 0 0 3512 0 0 3457 0 0 3461 0 0 3502 0 0 3439 0 0 3484 0 0 3498 0 0 3582 0 0 3449 0 0 3515 0 0 3621 0 0 3540 0 0 1702 0 0 0 0 0 0 0 0 0 0 0 0 0 0 0 0 0 0 0 0 0 0 0 0 0 0 0 0 0 
0 0 0 0 0 0 0 0 0 0 0 0 0 0 0 0 0 0 0 0 0 0 0 0 0 0 0 0 0 0 1743 0 0 3456 0 0 3541 0 0 3583 0 0 3550 0 0 3525 0 0 3429 0 0 3627 0 0 3390 0 0 3511 0 0 3376 0 0 3483 0 0 3457 0 0 3483 0 0 3475 0 0 3467 0 0 3491 0 0 3360 0 0 3457 0 0 3401 0 0 3605 0 0 3567 0 0 3322 0 0 3322 0 0 3592 0 0 3479 0 0 3519 0 0 3532 0 0 3553 0 0 3515 0 0 3428 0 0 3502 0 0 3546 0 0 3460 0 0 3509 0 0 3493 0 0 3390 0 0 3456 0 0 3544 0 0 3485 0 0 1738 0 0 0 0 0 0 0 0 0 0 0 0 0 0 0 0 0 0 0 0 0 0 0 0 0 0 0 0 0 
0 0 0 0 0 0 0 0 0 0 0 0 0 0 0 0 0 0 0 0 0 0 0 0 0 0 0 0 0 0 1811 0 0 3543 0 0 3524 0 0 3527 0 0 3520 0 0 3418 0 0 3552 0 0 3499 0 0 3511 0 0 3507 0 0 3429 0 0 3420 0 0 3571 0 0 3478 0 0 3505 0 0 3506 0 0 3488 0 0 3504 0 0 3487 0 0 3536 0 0 3458 0 0 3387 0 0 3561 0 0 3542 0 0 3516 0 0 3520 0 0 3564 0 0 3531 0 0 3485 0 0 3504 0 0 3472 0 0 3461 0 0 3553 0 0 3476 0 0 3513 0 0 3526 0 0 3402 0 0 3483 0 0 3486 0 0 3569 0 0 1730 0 0 0 0 0 0 0 0 0 0 0 0 0 0 0 0 0 0 0 0 0 0 0 0 0 0 0 0 0 
0 0 0 0 0 0 0 0 0 0 0 0 0 0 0 0 0 0 0 0 0 0 0 0 0 0 0 0 0 0 1880 0 0 3471 0 0 3508 0 0 3475 0 0 3495 0 0 3499 0 0 3619 0 0 3568 0 0 3524 0 0 3518 0 0 3461 0 0 3540 0 0 3504 0 0 3500 0 0 3594 0 0 3372 0 0 3498 0 0 3494 0 0 3519 0 0 3608 0 0 3522 0 0 3449 0 0 3538 0 0 3467 0 0 3463 0 0 3432 0 0 3558 0 0 3524 0 0 3493 0 0 3481 0 0 3426 0 0 3412 0 0 3536 0 0 3526 0 0 3452 0 0 3424 0 0 3555 0 0 3468 0 0 3541 0 0 3548 0 0 1793 0 0 0 0 0 0 0 0 0 0 0 0 0 0 0 0 0 0 0 0 0 0 0 0 0 0 0 0 0 
0 0 0 0 0 0 0 0 0 0 0 0 0 0 0 0 0 0 0 0 0 0 0 0 0 0 0 0 0 0 1722 0 0 3624 0 0 3584 0 0 3503 0 0 3438 0 0 3549 0 0 3508 0 0 3388 0 0 3597 0 0 3489 0 0 3439 0 0 3467 0 0 3441 0 0 3498 0 0 3575 0 0 3531 0 0 3465 0 0 3531 0 0 3467 0 0 3498 0 0 3500 0 0 3552 0 0 3615 0 0 3513 0 0 3456 0 0 3485 0 0 3486 0 0 3349 0 0 3498 0 0 3533 0 0 3472 0 0 3495 0 0 3508 0 0 3472 0 0 3476 0 0 3438 0 0 3426 0 0 3412 0 0 3384 0 0 3394 0 0 1728 0 0 0 0 0 0 0 0 0 0 0 0 0 0 0 0 0 0 0 0 0 0 0 0 0 0 0 0 0 
0 0 0 0 0 0 0 0 0 0 0 0 0 0 0 0 0 0 0 0 0 0 0 0 0 0 0 0 0 0 1716 0 0 3528 0 0 3509 0 0 3438 0 0 3483 0 0 3544 0 0 3536 0 0 3487 0 0 3545 0 0 3597 0 0 3477 0 0 3534 0 0 3645 0 0 3450 0 0 3537 0 0 3506 0 0 3488 0 0 3506 0 0 3472 0 0 3460 0 0 3469 0 0 3457 0 0 3438 0 0 3503 0 0 3449 0 0 3516 0 0 3527 0 0 3498 0 0 3438 0 0 3431 0 0 3426 0 0 3547 0 0 3465 0 0 3519 0 0 3550 0 0 3472 0 0 3565 0 0 3537 0 0 3532 0 0 3475 0 0 1807 0 0 0 0 0 0 0 0 0 0 0 0 0 0 0 0 0 0 0 0 0 0 0 0 0 0 0 0 0 
0 0 0 0 0 0 0 0 0 0 0 0 0 0 0 0 0 0 0 0 0 0 0 0 0 0 0 0 0 0 1670 0 0 3399 0 0 3561 0 0 3597 0 0 3516 0 0 3533 0 0 3532 0 0 3419 0 0 3544 0 0 3373 0 0 3423 0 0 3371 0 0 3468 0 0 3514 0 0 3450 0 0 3611 0 0 3488 0 0 3571 0 0 3478 0 0 3585 0 0 3453 0 0 3605 0 0 3462 0 0 3626 0 0 3493 0 0 3499 0 0 3463 0 0 3512 0 0 3461 0 0 3465 0 0 3567 0 0 3430 0 0 3451 0 0 3476 0 0 3518 0 0 3629 0 0 3401 0 0 3481 0 0 3542 0 0 3564 0 0 1787 0 0 0 0 0 0 0 0 0 0 0 0 0 0 0 0 0 0 0 0 0 0 0 0 0 0 0 0 0 
0 0 0 0 0 0 0 0 0 0 0 0 0 0 0 0 0 0 0 0 0 0 0 0 0 0 0 0 0 0 1766 0 0 3494 0 0 3513 0 0 3542 0 0 3440 0 0 3516 0 0 3482 0 0 3557 0 0 3493 0 0 3451 0 0 3531 0 0 3446 0 0 3464 0 0 3555 0 0 3454 0 0 3501 0 0 3607 0 0 3521 0 0 3640 0 0 3427 0 0 3614 0 0 3441 0 0 3485 0 0 3486 0 0 3484 0 0 3557 0 0 3678 0 0 3626 0 0 3499 0 0 3457 0 0 3483 0 0 3636 0 0 3461 0 0 3477 0 0 3501 0 0 3506 0 0 3444 0 0 3499 0 0 3498 0 0 3512 0 0 1722 0 0 0 0 0 0 0 0 0 0 0 0 0 0 0 0 0 0 0 0 0 0 0 0 0 0 0 0 0 
0 0 0 0 0 0 0 0 0 0 0 0 0 0 0 0 0 0 0 0 0 0 0 0 0 0 0 0 0 0 1721 0 0 3477 0 0 3464 0 0 3509 0 0 3476 0 0 3515 0 0 3557 0 0 3422 0 0 3569 0 0 3444 0 0 3540 0 0 3420 0 0 3492 0 0 3558 0 0 3514 0 0 3491 0 0 3618 0 0 3540 0 0 3619 0 0 3455 0 0 3533 0 0 3484 0 0 3427 0 0 3520 0 0 3542 0 0 3495 0 0 3499 0 0 3557 0 0 3472 0 0 3420 0 0 3530 0 0 3540 0 0 3493 0 0 3506 0 0 3562 0 0 3382 0 0 3461 0 0 3535 0 0 3501 0 0 3389 0 0 1839 0 0 0 0 0 0 0 0 0 0 0 0 0 0 0 0 0 0 0 0 0 0 0 0 0 0 0 0 0 
0 0 0 0 0 0 0 0 0 0 0 0 0 0 0 0 0 0 0 0 0 0 0 0 0 0 0 0 0 0 1763 0 0 3447 0 0 3575 0 0 3461 0 0 3590 0 0 3663 0 0 3472 0 0 3540 0 0 3581 0 0 3479 0 0 3508 0 0 3444 0 0 3523 0 0 3540 0 0 3544 0 0 3522 0 0 3467 0 0 3509 0 0 3463 0 0 3496 0 0 3460 0 0 3430 0 0 3458 0 0 3476 0 0 3402 0 0 3459 0 0 3562 0 0 3476 0 0 3338 0 0 3522 0 0 3504 0 0 3437 0 0 3543 0 0 3480 0 0 3438 0 0 3525 0 0 3469 0 0 3467 0 0 3461 0 0 3543 0 0 1723 0 0 0 0 0 0 0 0 0 0 0 0 0 0 0 0 0 0 0 0 0 0 0 0 0 0 0 0 0 
0 0 0 0 0 0 0 0 0 0 0 0 0 0 0 0 0 0 0 0 0 0 0 0 0 0 0 0 0 0 1704 0 0 3526 0 0 3552 0 0 3476 0 0 3511 0 0 3445 0 0 3498 0 0 3467 0 0 3526 0 0 3454 0 0 3556 0 0 3426 0 0 3482 0 0 3511 0 0 3499 0 0 3484 0 0 3510 0 0 3482 0 0 3546 0 0 3515 0 0 3471 0 0 3563 0 0 3506 0 0 3406 0 0 3458 0 0 3565 0 0 3456 0 0 3496 0 0 3461 0 0 3488 0 0 3515 0 0 3576 0 0 3581 0 0 3443 0 0 3484 0 0 3503 0 0 3465 0 0 3511 0 0 3497 0 0 3416 0 0 1756 0 0 0 0 0 0 0 0 0 0 0 0 0 0 0 0 0 0 0 0 0 0 0 0 0 0 0 0 0 
0 0 0 0 0 0 0 0 0 0 0 0 0 0 0 0 0 0 0 0 0 0 0 0 0 0 0 0 0 0 1781 0 0 3506 0 0 3659 0 0 3642 0 0 3553 0 0 3499 0 0 3502 0 0 3498 0 0 3434 0 0 3556 0 0 3635 0 0 3552 0 0 3551 0 0 3533 0 0 3474 0 0 3474 0 0 3609 0 0 3442 0 0 3469 0 0 3614 0 0 3484 0 0 3643 0 0 3541 0 0 3578 0 0 3491 0 0 3436 0 0 3500 0 0 3535 0 0 3523 0 0 3450 0 0 3529 0 0 3532 0 0 3557 0 0 3456 0 0 3427 0 0 3544 0 0 3402 0 0 3393 0 0 3463 0 0 3510 0 0 1739 0 0 0 0 0 0 0 0 0 0 0 0 0 0 0 0 0 0 0 0 0 0 0 0 0 0 0 0 0 
0 0 0 0 0 0 0 0 0 0 0 0 0 0 0 0 0 0 0 0 0 0 0 0 0 0 0 0 0 0 1692 0 0 3471 0 0 3575 0 0 3604 0 0 3512 0 0 3480 0 0 3441 0 0 3539 0 0 3378 0 0 3580 0 0 3382 0 0 3546 0 0 3590 0 0 3494 0 0 3303 0 0 3470 0 0 3585 0 0 3589 0 0 3591 0 0 3502 0 0 3468 0 0 3526 0 0 3578 0 0 3476 0 0 3483 0 0 3481 0 0 3514 0 0 3509 0 0 3500 0 0 3575 0 0 3470 0 0 3507 0 0 3372 0 0 3581 0 0 3474 0 0 3439 0 0 3480 0 0 3472 0 0 3462 0 0 3517 0 0 1683 0 0 0 0 0 0 0 0 0 0 0 0 0 0 0 0 0 0 0 0 0 0 0 0 0 0 0 0 0 
0 0 0 0 0 0 0 0 0 0 0 0 0 0 0 0 0 0 0 0 0 0 0 0 0 0 0 0 0 0 1785 0 0 3607 0 0 3462 0 0 3503 0 0 3440 0 0 3416 0 0 3561 0 0 3574 0 0 3486 0 0 3514 0 0 3498 0 0 3454 0 0 3476 0 0 3428 0 0 3508 0 0 3594 0 0 3490 0 0 3484 0 0 3456 0 0 3428 0 0 3533 0 0 3516 0 0 3458 0 0 3529 0 0 3556 0 0 3588 0 0 3446 0 0 3615 0 0 3587 0 0 3534 0 0 3474 0 0 3554 0 0 3440 0 0 3591 0 0 3353 0 0 3502 0 0 3623 0 0 3454 0 0 3577 0 0 3523 0 0 1675 0 0 0 0 0 0 0 0 0 0 0 0 0 0 0 0 0 0 0 0 0 0 0 0 0 0 0 0 0 
0 0 0 0 0 0 0 0 0 0 0 0 0 0 0 0 0 0 0 0 0 0 0 0 0 0 0 0 0 0 1804 0 0 3476 0 0 3600 0 0 3411 0 0 3376 0 0 3626 0 0 3488 0 0 3550 0 0 3632 0 0 3536 0 0 3421 0 0 3515 0 0 3424 0 0 3535 0 0 3558 0 0 3498 0 0 3631 0 0 3477 0 0 3543 0 0 3456 0 0 3465 0 0 3518 0 0 3569 0 0 3427 0 0 3519 0 0 3503 0 0 3461 0 0 3525 0 0 3551 0 0 3517 0 0 3426 0 0 3553 0 0 3439 0 0 3447 0 0 3568 0 0 3492 0 0 3498 0 0 3457 0 0 3531 0 0 3615 0 0 1704 0 0 0 0 0 0 0 0 0 0 0 0 0 0 0 0 0 0 0 0 0 0 0 0 0 0 0 0 0 
0 0 0 0 0 0 0 0 0 0 0 0 0 0 0 0 0 0 0 0 0 0 0 0 0 0 0 0 0 0 1788 0 0 3472 0 0 3508 0 0 3513 0 0 3523 0 0 3518 0 0 3538 0 0 3439 0 0 3576 0 0 3467 0 0 3521 0 0 3518 0 0 3527 0 0 3562 0 0 3553 0 0 3480 0 0 3479 0 0 3509 0 0 3552 0 0 3371 0 0 3476 0 0 3489 0 0 3440 0 0 3512 0 0 3455 0 0 3451 0 0 3420 0 0 3531 0 0 3554 0 0 3441 0 0 3586 0 0 3525 0 0 3486 0 0 3491 0 0 3517 0 0 3558 0 0 3473 0 0 3538 0 0 3347 0 0 3534 0 0 1723 0 0 0 0 0 0 0 0 0 0 0 0 0 0 0 0 0 0 0 0 0 0 0 0 0 0 0 0 0 
0 0 0 0 0 0 0 0 0 0 0 0 0 0 0 0 0 0 0 0 0 0 0 0 0 0 0 0 0 0 1841 0 0 3586 0 0 3541 0 0 3625 0 0 3367 0 0 3536 0 0 3600 0 0 3446 0 0 3447 0 0 3383 0 0 3498 0 0 3397 0 0 3496 0 0 3495 0 0 3536 0 0 3555 0 0 3391 0 0 3460 0 0 3551 0 0 3475 0 0 3541 0 0 3452 0 0 3490 0 0 3433 0 0 3501 0 0 3521 0 0 3421 0 0 3456 0 0 3454 0 0 3567 0 0 3537 0 0 3541 0 0 3458 0 0 3444 0 0 3440 0 0 3486 0 0 3511 0 0 3334 0 0 3424 0 0 3535 0 0 1751 0 0 0 0 0 0 0 0 0 0 0 0 0 0 0 0 0 0 0 0 0 0 0 0 0 0 0 0 0 
0 0 0 0 0 0 0 0 0 0 0 0 0 0 0 0 0 0 0 0 0 0 0 0 0 0 0 0 0 0 1797 0 0 3575 0 0 3547 0 0 3502 0 0 3475 0 0 3524 0 0 3507 0 0 3523 0 0 3363 0 0 3502 0 0 3486 0 0 3471 0 0 3528 0 0 3613 0 0 3542 0 0 3531 0 0 3581 0 0 3463 0 0 3512 0 0 3504 0 0 3518 0 0 3445 0 0 3350 0 0 3416 0 0 3508 0 0 3589 0 0 3516 0 0 3537 0 0 3419 0 0 3478 0 0 3430 0 0 3549 0 0 3456 0 0 3565 0 0 3461 0 0 3513 0 0 3554 0 0 3465 0 0 3612 0 0 3562 0 0 1814 0 0 0 0 0 0 0 0 0 0 0 0 0 0 0 0 0 0 0 0 0 0 0 0 0 0 0 0 0 
0 0 0 0 0 0 0 0 0 0 0 0 0 0 0 0 0 0 0 0 0 0 0 0 0 0 0 0 0 0 1779 0 0 3572 0 0 3404 0 0 3504 0 0 3647 0 0 3387 0 0 3529 0 0 3529 0 0 3618 0 0 3513 0 0 3464 0 0 3388 0 0 3489 0 0 3449 0 0 3474 0 0 3411 0 0 3488 0 0 3570 0 0 3549 0 0 3503 0 0 3548 0 0 3506 0 0 3526 0 0 3471 0 0 3470 0 0 3481 0 0 3526 0 0 3512 0 0 3569 0 0 3458 0 0 3459 0 0 3568 0 0 3450 0 0 3416 0 0 3564 0 0 3290 0 0 3509 0 0 3519 0 0 3515 0 0 3470 0 0 1752 0 0 0 0 0 0 0 0 0 0 0 0 0 0 0 0 0 0 0 0 0 0 0 0 0 0 0 0 0 
0 0 0 0 0 0 0 0 0 0 0 0 0 0 0 0 0 0 0 0 0 0 0 0 0 0 0 0 0 0 1701 0 0 3557 0 0 3488 0 0 3545 0 0 3464 0 0 3397 0 0 3613 0 0 3519 0 0 3475 0 0 3580 0 0 3519 0 0 3531 0 0 3671 0 0 3580 0 0 3444 0 0 3467 0 0 3538 0 0 3471 0 0 3520 0 0 3478 0 0 3469 0 0 3432 0 0 3614 0 0 3628 0 0 3495 0 0 3541 0 0 3508 0 0 3485 0 0 3544 0 0 3421 0 0 3491 0 0 3595 0 0 3535 0 0 3613 0 0 3519 0 0 3371 0 0 3527 0 0 3587 0 0 3477 0 0 3507 0 0 1704 0 0 0 0 0 0 0 0 0 0 0 0 0 0 0 0 0 0 0 0 0 0 0 0 0 0 0 0 0 
0 0 0 0 0 0 0 0 0 0 0 0 0 0 0 0 0 0 0 0 0 0 0 0 0 0 0 0 0 0 1755 0 0 3490 0 0 3564 0 0 3536 0 0 3454 0 0 3511 0 0 3479 0 0 3479 0 0 3445 0 0 3590 0 0 3472 0 0 3605 0 0 3470 0 0 3620 0 0 3385 0 0 3601 0 0 3364 0 0 3632 0 0 3519 0 0 3545 0 0 3536 0 0 3536 0 0 3470 0 0 3526 0 0 3511 0 0 3511 0 0 3479 0 0 3571 0 0 3493 0 0 3528 0 0 3512 0 0 3465 0 0 3548 0 0 3514 0 0 3461 0 0 3633 0 0 3411 0 0 3490 0 0 3480 0 0 3475 0 0 1697 0 0 0 0 0 0 0 0 0 0 0 0 0 0 0 0 0 0 0 0 0 0 0 0 0 0 0 0 0 
0 0 0 0 0 0 0 0 0 0 0 0 0 0 0 0 0 0 0 0 0 0 0 0 0 0 0 0 0 0 1802 0 0 3529 0 0 3513 0 0 3549 0 0 3425 0 0 3447 0 0 3477 0 0 3497 0 0 3426 0 0 3436 0 0 3419 0 0 3533 0 0 3471 0 0 3677 0 0 3433 0 0 3567 0 0 3556 0 0 3493 0 0 3594 0 0 3480 0 0 3462 0 0 3567 0 0 3380 0 0 3510 0 0 3529 0 0 3549 0 0 3587 0 0 3351 0 0 3462 0 0 3451 0 0 3447 0 0 3418 0 0 3454 0 0 3495 0 0 3409 0 0 3491 0 0 3462 0 0 3464 0 0 3487 0 0 3580 0 0 1751 0 0 0 0 0 0 0 0 0 0 0 0 0 0 0 0 0 0 0 0 0 0 0 0 0 0 0 0 0 
0 0 0 0 0 0 0 0 0 0 0 0 0 0 0 0 0 0 0 0 0 0 0 0 0 0 0 0 0 0 1735 0 0 3520 0 0 3487 0 0 3386 0 0 3502 0 0 3535 0 0 3469 0 0 3543 0 0 3612 0 0 3548 0 0 3504 0 0 3479 0 0 3429 0 0 3451 0 0 3525 0 0 3485 0 0 3496 0 0 3486 0 0 3533 0 0 3484 0 0 3523 0 0 3434 0 0 3528 0 0 3474 0 0 3520 0 0 3502 0 0 3428 0 0 3422 0 0 3492 0 0 3530 0 0 3437 0 0 3490 0 0 3462 0 0 3511 0 0 3509 0 0 3601 0 0 3498 0 0 3474 0 0 3475 0 0 3545 0 0 1776 0 0 0 0 0 0 0 0 0 0 0 0 0 0 0 0 0 0 0 0 0 0 0 0 0 0 0 0 0 
0 0 0 0 0 0 0 0 0 0 0 0 0 0 0 0 0 0 0 0 0 0 0 0 0 0 0 0 0 0 1745 0 0 3529 0 0 3482 0 0 3472 0 0 3435 0 0 3468 0 0 3559 0 0 3507 0 0 3477 0 0 3464 0 0 3490 0 0 3465 0 0 3486 0 0 3527 0 0 3349 0 0 3470 0 0 3507 0 0 3389 0 0 3604 0 0 3575 0 0 3544 0 0 3596 0 0 3601 0 0 3494 0 0 3655 0 0 3540 0 0 3611 0 0 3545 0 0 3466 0 0 3527 0 0 3517 0 0 3591 0 0 3462 0 0 3377 0 0 3505 0 0 3486 0 0 3542 0 0 3599 0 0 3558 0 0 3556 0 0 1739 0 0 0 0 0 0 0 0 0 0 0 0 0 0 0 0 0 0 0 0 0 0 0 0 0 0 0 0 0 
0 0 0 0 0 0 0 0 0 0 0 0 0 0 0 0 0 0 0 0 0 0 0 0 0 0 0 0 0 0 1738 0 0 3631 0 0 3480 0 0 3528 0 0 3520 0 0 3501 0 0 3499 0 0 3430 0 0 3596 0 0 3523 0 0 3558 0 0 3594 0 0 3491 0 0 3576 0 0 3580 0 0 3587 0 0 3478 0 0 3464 0 0 3581 0 0 3448 0 0 3492 0 0 3526 0 0 3475 0 0 3474 0 0 3482 0 0 3477 0 0 3471 0 0 3515 0 0 3552 0 0 3595 0 0 3455 0 0 3563 0 0 3416 0 0 3504 0 0 3352 0 0 3581 0 0 3600 0 0 3475 0 0 3488 0 0 3450 0 0 1809 0 0 0 0 0 0 0 0 0 0 0 0 0 0 0 0 0 0 0 0 0 0 0 0 0 0 0 0 0 
0 0 0 0 0 0 0 0 0 0 0 0 0 0 0 0 0 0 0 0 0 0 0 0 0 0 0 0 0 0 1725 0 0 3526 0 0 3493 0 0 3449 0 0 3600 0 0 3582 0 0 3515 0 0 3365 0 0 3628 0 0 3488 0 0 3443 0 0 3557 0 0 3507 0 0 3492 0 0 3517 0 0 3382 0 0 3506 0 0 3539 0 0 3523 0 0 3445 0 0 3574 0 0 3443 0 0 3403 0 0 3550 0 0 3581 0 0 3516 0 0 3470 0 0 3519 0 0 3524 0 0 3528 0 0 3566 0 0 3479 0 0 3541 0 0 3527 0 0 3512 0 0 3373 0 0 3479 0 0 3433 0 0 3445 0 0 3546 0 0 1758 0 0 0 0 0 0 0 0 0 0 0 0 0 0 0 0 0 0 0 0 0 0 0 0 0 0 0 0 0 
0 0 0 0 0 0 0 0 0 0 0 0 0 0 0 0 0 0 0 0 0 0 0 0 0 0 0 0 0 0 1727 0 0 3540 0 0 3488 0 0 3570 0 0 3480 0 0 3571 0 0 3507 0 0 3480 0 0 3425 0 0 3450 0 0 3567 0 0 3509 0 0 3462 0 0 3512 0 0 3516 0 0 3556 0 0 3440 0 0 3562 0 0 3495 0 0 3490 0 0 3488 0 0 3596 0 0 3519 0 0 3528 0 0 3440 0 0 3508 0 0 3367 0 0 3522 0 0 3463 0 0 3389 0 0 3459 0 0 3557 0 0 3493 0 0 3395 0 0 3550 0 0 3444 0 0 3556 0 0 3546 0 0 3520 0 0 3544 0 0 1722 0 0 0 0 0 0 0 0 0 0 0 0 0 0 0 0 0 0 0 0 0 0 0 0 0 0 0 0 0 
0 0 0 0 0 0 0 0 0 0 0 0 0 0 0 0 0 0 0 0 0 0 0 0 0 0 0 0 0 0 1727 0 0 3473 0 0 3502 0 0 3541 0 0 3541 0 0 3522 0 0 3393 0 0 3557 0 0 3481 0 0 3624 0 0 3512 0 0 3637 0 0 3505 0 0 3489 0 0 3388 0 0 3528 0 0 3367 0 0 3500 0 0 3559 0 0 3444 0 0 3521 0 0 3594 0 0 3534 0 0 3365 0 0 3521 0 0 3460 0 0 3510 0 0 3497 0 0 3513 0 0 3533 0 0 3511 0 0 3510 0 0 3521 0 0 3558 0 0 3481 0 0 3410 0 0 3530 0 0 3454 0 0 3498 0 0 3520 0 0 1787 0 0 0 0 0 0 0 0 0 0 0 0 0 0 0 0 0 0 0 0 0 0 0 0 0 0 0 0 0 
0 0 0 0 0 0 0 0 0 0 0 0 0 0 0 0 0 0 0 0 0 0 0 0 0 0 0 0 0 0 1653 0 0 3520 0 0 3542 0 0 3567 0 0 3483 0 0 3552 0 0 3490 0 0 3499 0 0 3548 0 0 3550 0 0 3443 0 0 3459 0 0 3566 0 0 3502 0 0 3450 0 0 3519 0 0 3410 0 0 3563 0 0 3492 0 0 3449 0 0 3481 0 0 3588 0 0 3463 0 0 3468 0 0 3513 0 0 3530 0 0 3469 0 0 3535 0 0 3465 0 0 3469 0 0 3478 0 0 3457 0 0 3491 0 0 3495 0 0 3401 0 0 3539 0 0 3417 0 0 3480 0 0 3490 0 0 3503 0 0 1746 0 0 0 0 0 0 0 0 0 0 0 0 0 0 0 0 0 0 0 0 0 0 0 0 0 0 0 0 0 
0 0 0 0 0 0 0 0 0 0 0 0 0 0 0 0 0 0 0 0 0 0 0 0 0 0 0 0 0 0 1708 0 0 3436 0 0 3451 0 0 3513 0 0 3387 0 0 3454 0 0 3492 0 0 3606 0 0 3444 0 0 3475 0 0 3523 0 0 3573 0 0 3492 0 0 3509 0 0 3590 0 0 3570 0 0 3415 0 0 3486 0 0 3428 0 0 3491 0 0 3546 0 0 3450 0 0 3617 0 0 3494 0 0 3581 0 0 3546 0 0 3510 0 0 3587 0 0 3612 0 0 3438 0 0 3624 0 0 3447 0 0 3559 0 0 3459 0 0 3503 0 0 3456 0 0 3622 0 0 3553 0 0 3620 0 0 3503 0 0 1683 0 0 0 0 0 0 0 0 0 0 0 0 0 0 0 0 0 0 0 0 0 0 0 0 0 0 0 0 0 
0 0 0 0 0 0 0 0 0 0 0 0 0 0 0 0 0 0 0 0 0 0 0 0 0 0 0 0 0 0 1719 0 0 3470 0 0 3482 0 0 3462 0 0 3488 0 0 3493 0 0 3563 0 0 3593 0 0 3543 0 0 3454 0 0 3516 0 0 3458 0 0 3397 0 0 3485 0 0 3513 0 0 3457 0 0 3497 0 0 3496 0 0 3487 0 0 3562 0 0 3467 0 0 3601 0 0 3515 0 0 3654 0 0 3550 0 0 3505 0 0 3459 0 0 3574 0 0 3523 0 0 3478 0 0 3474 0 0 3510 0 0 3433 0 0 3546 0 0 3561 0 0 3489 0 0 3489 0 0 3579 0 0 3561 0 0 3568 0 0 1727 0 0 0 0 0 0 0 0 0 0 0 0 0 0 0 0 0 0 0 0 0 0 0 0 0 0 0 0 0 
0 0 0 0 0 0 0 0 0 0 0 0 0 0 0 0 0 0 0 0 0 0 0 0 0 0 0 0 0 0 1790 0 0 3437 0 0 3600 0 0 3538 0 0 3457 0 0 3403 0 0 3502 0 0 3514 0 0 3495 0 0 3507 0 0 3568 0 0 3497 0 0 3572 0 0 3463 0 0 3422 0 0 3439 0 0 3481 0 0 3574 0 0 3481 0 0 3522 0 0 3456 0 0 3444 0 0 3526 0 0 3555 0 0 3504 0 0 3559 0 0 3453 0 0 3522 0 0 3472 0 0 3503 0 0 3398 0 0 3608 0 0 3615 0 0 3536 0 0 3462 0 0 3502 0 0 3464 0 0 3439 0 0 3520 0 0 3446 0 0 1781 0 0 0 0 0 0 0 0 0 0 0 0 0 0 0 0 0 0 0 0 0 0 0 0 0 0 0 0 0 
0 0 0 0 0 0 0 0 0 0 0 0 0 0 0 0 0 0 0 0 0 0 0 0 0 0 0 0 0 0 1771 0 0 3425 0 0 3546 0 0 3500 0 0 3460 0 0 3650 0 0 3538 0 0 3478 0 0 3527 0 0 3521 0 0 3443 0 0 3516 0 0 3426 0 0 3493 0 0 3403 0 0 3538 0 0 3470 0 0 3517 0 0 3462 0 0 3475 0 0 3553 0 0 3505 0 0 3549 0 0 3393 0 0 3537 0 0 3457 0 0 3537 0 0 3532 0 0 3538 0 0 3504 0 0 3533 0 0 3518 0 0 3411 0 0 3488 0 0 3483 0 0 3478 0 0 3463 0 0 3500 0 0 3588 0 0 3408 0 0 1761 0 0 0 0 0 0 0 0 0 0 0 0 0 0 0 0 0 0 0 0 0 0 0 0 0 0 0 0 0 
0 0 0 0 0 0 0 0 0 0 0 0 0 0 0 0 0 0 0 0 0 0 0 0 0 0 0 0 0 0 1792 0 0 3486 0 0 3583 0 0 3455 0 0 3515 0 0 3472 0 0 3372 0 0 3443 0 0 3512 0 0 3512 0 0 3531 0 0 3572 0 0 3444 0 0 3558 0 0 3504 0 0 3576 0 0 3434 0 0 3626 0 0 3407 0 0 3490 0 0 3496 0 0 3504 0 0 3534 0 0 3531 0 0 3441 0 0 3407 0 0 3476 0 0 3442 0 0 3507 0 0 3516 0 0 3422 0 0 3529 0 0 3415 0 0 3564 0 0 3467 0 0 3480 0 0 3468 0 0 3541 0 0 3518 0 0 3432 0 0 1745 0 0 0 0 0 0 0 0 0 0 0 0 0 0 0 0 0 0 0 0 0 0 0 0 0 0 0 0 0 
0 0 0 0 0 0 0 0 0 0 0 0 0 0 0 0 0 0 0 0 0 0 0 0 0 0 0 0 0 0 1751 0 0 3495 0 0 3579 0 0 3520 0 0 3368 0 0 3371 0 0 3574 0 0 3483 0 0 3589 0 0 3548 0 0 3456 0 0 3451 0 0 3481 0 0 3481 0 0 3479 0 0 3556 0 0 3484 0 0 3499 0 0 3560 0 0 3501 0 0 3450 0 0 3499 0 0 3503 0 0 3506 0 0 3473 0 0 3561 0 0 3537 0 0 3582 0 0 3552 0 0 3436 0 0 3526 0 0 3513 0 0 3468 0 0 3522 0 0 3643 0 0 3492 0 0 3528 0 0 3433 0 0 3437 0 0 3523 0 0 1765 0 0 0 0 0 0 0 0 0 0 0 0 0 0 0 0 0 0 0 0 0 0 0 0 0 0 0 0 0 
0 0 0 0 0 0 0 0 0 0 0 0 0 0 0 0 0 0 0 0 0 0 0 0 0 0 0 0 0 0 1744 0 0 3556 0 0 3526 0 0 3598 0 0 3421 0 0 3490 0 0 3602 0 0 3459 0 0 3576 0 0 3552 0 0 3583 0 0 3501 0 0 3556 0 0 3558 0 0 3433 0 0 3577 0 0 3497 0 0 3601 0 0 3458 0 0 3444 0 0 3434 0 0 3509 0 0 3508 0 0 3480 0 0 3549 0 0 3380 0 0 3394 0 0 3444 0 0 3508 0 0 3530 0 0 3597 0 0 3368 0 0 3532 0 0 3551 0 0 3544 0 0 3531 0 0 3490 0 0 3471 0 0 3528 0 0 3555 0 0 1764 0 0 0 0 0 0 0 0 0 0 0 0 0 0 0 0 0 0 0 0 0 0 0 0 0 0 0 0 0 
0 0 0 0 0 0 0 0 0 0 0 0 0 0 0 0 0 0 0 0 0 0 0 0 0 0 0 0 0 0 1688 0 0 3473 0 0 3493 0 0 3444 0 0 3504 0 0 3589 0 0 3571 0 0 3530 0 0 3605 0 0 3511 0 0 3430 0 0 3638 0 0 3523 0 0 3511 0 0 3597 0 0 3377 0 0 3534 0 0 3500 0 0 3376 0 0 3529 0 0 3587 0 0 3519 0 0 3519 0 0 3564 0 0 3488 0 0 3578 0 0 3433 0 0 3498 0 0 3477 0 0 3507 0 0 3528 0 0 3475 0 0 3454 0 0 3532 0 0 3505 0 0 3492 0 0 3496 0 0 3468 0 0 3414 0 0 3494 0 0 1730 0 0 0 0 0 0 0 0 0 0 0 0 0 0 0 0 0 0 0 0 0 0 0 0 0 0 0 0 0 
0 0 0 0 0 0 0 0 0 0 0 0 0 0 0 0 0 0 0 0 0 0 0 0 0 0 0 0 0 0 1711 0 0 3564 0 0 3557 0 0 3553 0 0 3530 0 0 3475 0 0 3503 0 0 3468 0 0 3558 0 0 3534 0 0 3533 0 0 3567 0 0 3484 0 0 3431 0 0 3503 0 0 3474 0 0 3567 0 0 3322 0 0 3408 0 0 3424 0 0 3517 0 0 3435 0 0 3444 0 0 3417 0 0 3597 0 0 3451 0 0 3401 0 0 3446 0 0 3406 0 0 3541 0 0 3520 0 0 3618 0 0 3461 0 0 3480 0 0 3595 0 0 3389 0 0 3517 0 0 3642 0 0 3548 0 0 3652 0 0 1788 0 0 0 0 0 0 0 0 0 0 0 0 0 0 0 0 0 0 0 0 0 0 0 0 0 0 0 0 0 
0 0 0 0 0 0 0 0 0 0 0 0 0 0 0 0 0 0 0 0 0 0 0 0 0 0 0 0 0 0 885 0 0 1796 0 0 1719 0 0 1754 0 0 1705 0 0 1686 0 0 1752 0 0 1727 0 0 1687 0 0 1743 0 0 1807 0 0 1760 0 0 1807 0 0 1716 0 0 1766 0 0 1725 0 0 1680 0 0 1772 0 0 1749 0 0 1703 0 0 1774 0 0 1697 0 0 1726 0 0 1799 0 0 1806 0 0 1750 0 0 1778 0 0 1721 0 0 1694 0 0 1779 0 0 1743 0 0 1693 0 0 1737 0 0 1803 0 0 1784 0 0 1810 0 0 1747 0 0 1779 0 0 1680 0 0 1752 0 0 856 0 0 0 0 0 0 0 0 0 0 0 0 0 0 0 0 0 0 0 0 0 0 0 0 0 0 0 0 0 
0 0 0 0 0 0 0 0 0 0 0 0 0 0 0 0 0 0 0 0 0 0 0 0 0 0 0 0 0 0 0 0 0 0 0 0 0 0 0 0 0 0 0 0 0 0 0 0 0 0 0 0 0 0 0 0 0 0 0 0 0 0 0 0 0 0 0 0 0 0 0 0 0 0 0 0 0 0 0 0 0 0 0 0 0 0 0 0 0 0 0 0 0 0 0 0 0 0 0 0 0 0 0 0 0 0 0 0 0 0 0 0 0 0 0 0 0 0 0 0 0 0 0 0 0 0 0 0 0 0 0 0 0 0 0 0 0 0 0 0 0 0 0 0 0 0 0 0 0 0 0 0 0 0 0 0 0 0 0 0 0 0 0 0 0 0 0 0 0 0 0 0 0 0 0 0 0 0 0 0 
0 0 0 0 0 0 0 0 0 0 0 0 0 0 0 0 0 0 0 0 0 0 0 0 0 0 0 0 0 0 0 0 0 0 0 0 0 0 0 0 0 0 0 0 0 0 0 0 0 0 0 0 0 0 0 0 0 0 0 0 0 0 0 0 0 0 0 0 0 0 0 0 0 0 0 0 0 0 0 0 0 0 0 0 0 0 0 0 0 0 0 0 0 0 0 0 0 0 0 0 0 0 0 0 0 0 0 0 0 0 0 0 0 0 0 0 0 0 0 0 0 0 0 0 0 0 0 0 0 0 0 0 0 0 0 0 0 0 0 0 0 0 0 0 0 0 0 0 0 0 0 0 0 0 0 0 0 0 0 0 0 0 0 0 0 0 0 0 0 0 0 0 0 0 0 0 0 0 0 0 
0 0 0 0 0 0 0 0 0 0 0 0 0 0 0 0 0 0 0 0 0 0 0 0 0 0 0 0 0 0 0 0 0 0 0 0 0 0 0 0 0 0 0 0 0 0 0 0 0 0 0 0 0 0 0 0 0 0 0 0 0 0 0 0 0 0 0 0 0 0 0 0 0 0 0 0 0 0 0 0 0 0 0 0 0 0 0 0 0 0 0 0 0 0 0 0 0 0 0 0 0 0 0 0 0 0 0 0 0 0 0 0 0 0 0 0 0 0 0 0 0 0 0 0 0 0 0 0 0 0 0 0 0 0 0 0 0 0 0 0 0 0 0 0 0 0 0 0 0 0 0 0 0 0 0 0 0 0 0 0 0 0 0 0 0 0 0 0 0 0 0 0 0 0 0 0 0 0 0 0 
0 0 0 0 0 0 0 0 0 0 0 0 0 0 0 0 0 0 0 0 0 0 0 0 0 0 0 0 0 0 0 0 0 0 0 0 0 0 0 0 0 0 0 0 0 0 0 0 0 0 0 0 0 0 0 0 0 0 0 0 0 0 0 0 0 0 0 0 0 0 0 0 0 0 0 0 0 0 0 0 0 0 0 0 0 0 0 0 0 0 0 0 0 0 0 0 0 0 0 0 0 0 0 0 0 0 0 0 0 0 0 0 0 0 0 0 0 0 0 0 0 0 0 0 0 0 0 0 0 0 0 0 0 0 0 0 0 0 0 0 0 0 0 0 0 0 0 0 0 0 0 0 0 0 0 0 0 0 0 0 0 0 0 0 0 0 0 0 0 0 0 0 0 0 0 0 0 0 0 0 
0 0 0 0 0 0 0 0 0 0 0 0 0 0 0 0 0 0 0 0 0 0 0 0 0 0 0 0 0 0 0 0 0 0 0 0 0 0 0 0 0 0 0 0 0 0 0 0 0 0 0 0 0 0 0 0 0 0 0 0 0 0 0 0 0 0 0 0 0 0 0 0 0 0 0 0 0 0 0 0 0 0 0 0 0 0 0 0 0 0 0 0 0 0 0 0 0 0 0 0 0 0 0 0 0 0 0 0 0 0 0 0 0 0 0 0 0 0 0 0 0 0 0 0 0 0 0 0 0 0 0 0 0 0 0 0 0 0 0 0 0 0 0 0 0 0 0 0 0 0 0 0 0 0 0 0 0 0 0 0 0 0 0 0 0 0 0 0 0 0 0 0 0 0 0 0 0 0 0 0 
0 0 0 0 0 0 0 0 0 0 0 0 0 0 0 0 0 0 0 0 0 0 0 0 0 0 0 0 0 0 0 0 0 0 0 0 0 0 0 0 0 0 0 0 0 0 0 0 0 0 0 0 0 0 0 0 0 0 0 0 0 0 0 0 0 0 0 0 0 0 0 0 0 0 0 0 0 0 0 0 0 0 0 0 0 0 0 0 0 0 0 0 0 0 0 0 0 0 0 0 0 0 0 0 0 0 0 0 0 0 0 0 0 0 0 0 0 0 0 0 0 0 0 0 0 0 0 0 0 0 0 0 0 0 0 0 0 0 0 0 0 0 0 0 0 0 0 0 0 0 0 0 0 0 0 0 0 0 0 0 0 0 0 0 0 0 0 0 0 0 0 0 0 0 0 0 0 0 0 0 
0 0 0 0 0 0 0 0 0 0 0 0 0 0 0 0 0 0 0 0 0 0 0 0 0 0 0 0 0 0 0 0 0 0 0 0 0 0 0 0 0 0 0 0 0 0 0 0 0 0 0 0 0 0 0 0 0 0 0 0 0 0 0 0 0 0 0 0 0 0 0 0 0 0 0 0 0 0 0 0 0 0 0 0 0 0 0 0 0 0 0 0 0 0 0 0 0 0 0 0 0 0 0 0 0 0 0 0 0 0 0 0 0 0 0 0 0 0 0 0 0 0 0 0 0 0 0 0 0 0 0 0 0 0 0 0 0 0 0 0 0 0 0 0 0 0 0 0 0 0 0 0 0 0 0 0 0 0 0 0 0 0 0 0 0 0 0 0 0 0 0 0 0 0 0 0 0 0 0 0 
0 0 0 0 0 0 0 0 0 0 0 0 0 0 0 0 0 0 0 0 0 0 0 0 0 0 0 0 0 0 0 0 0 0 0 0 0 0 0 0 0 0 0 0 0 0 0 0 0 0 0 0 0 0 0 0 0 0 0 0 0 0 0 0 0 0 0 0 0 0 0 0 0 0 0 0 0 0 0 0 0 0 0 0 0 0 0 0 0 0 0 0 0 0 0 0 0 0 0 0 0 0 0 0 0 0 0 0 0 0 0 0 0 0 0 0 0 0 0 0 0 0 0 0 0 0 0 0 0 0 0 0 0 0 0 0 0 0 0 0 0 0 0 0 0 0 0 0 0 0 0 0 0 0 0 0 0 0 0 0 0 0 0 0 0 0 0 0 0 0 0 0 0 0 0 0 0 0 0 0 
0 0 0 0 0 0 0 0 0 0 0 0 0 0 0 0 0 0 0 0 0 0 0 0 0 0 0 0 0 0 0 0 0 0 0 0 0 0 0 0 0 0 0 0 0 0 0 0 0 0 0 0 0 0 0 0 0 0 0 0 0 0 0 0 0 0 0 0 0 0 0 0 0 0 0 0 0 0 0 0 0 0 0 0 0 0 0 0 0 0 0 0 0 0 0 0 0 0 0 0 0 0 0 0 0 0 0 0 0 0 0 0 0 0 0 0 0 0 0 0 0 0 0 0 0 0 0 0 0 0 0 0 0 0 0 0 0 0 0 0 0 0 0 0 0 0 0 0 0 0 0 0 0 0 0 0 0 0 0 0 0 0 0 0 0 0 0 0 0 0 0 0 0 0 0 0 0 0 0 0 
