P3
# This is a dose file slice at depth 66 of 100
60 60
# now we give the maximum value of the RGB coordinates.
21610
0 0 0 1 0 0 0 0 0 0 0 0 0 0 0 1 0 0 0 0 0 0 0 0 0 0 0 1 0 0 2 0 0 0 0 0 0 0 0 0 0 0 0 0 0 0 0 0 1 0 0 0 0 0 0 0 0 1 0 0 0 0 0 1 0 0 0 0 0 1 0 0 0 0 0 1 0 0 3 0 0 0 0 0 1 0 0 2 0 0 2 0 0 2 0 0 0 0 0 1 0 0 0 0 0 0 0 0 1 0 0 1 0 0 1 0 0 0 0 0 0 0 0 1 0 0 1 0 0 1 0 0 0 0 0 0 0 0 0 0 0 0 0 0 2 0 0 0 0 0 0 0 0 2 0 0 0 0 0 0 0 0 1 0 0 1 0 0 0 0 0 0 0 0 0 0 0 0 0 0 
1 0 0 0 0 0 3 0 0 2 0 0 4 0 0 2 0 0 2 0 0 2 0 0 0 0 0 3 0 0 3 0 0 2 0 0 1 0 0 3 0 0 2 0 0 1 0 0 2 0 0 2 0 0 0 0 0 2 0 0 4 0 0 3 0 0 5 0 0 2 0 0 2 0 0 2 0 0 5 0 0 1 0 0 3 0 0 2 0 0 2 0 0 6 0 0 4 0 0 3 0 0 4 0 0 1 0 0 5 0 0 4 0 0 3 0 0 2 0 0 3 0 0 4 0 0 3 0 0 0 0 0 1 0 0 1 0 0 1 0 0 2 0 0 2 0 0 2 0 0 3 0 0 0 0 0 2 0 0 1 0 0 3 0 0 1 0 0 0 0 0 0 0 0 0 0 0 0 0 0 
1 0 0 2 0 0 2 0 0 1 0 0 4 0 0 3 0 0 3 0 0 1 0 0 4 0 0 1 0 0 1 0 0 3 0 0 2 0 0 4 0 0 1 0 0 1 0 0 3 0 0 2 0 0 0 0 0 3 0 0 2 0 0 4 0 0 6 0 0 4 0 0 0 0 0 0 0 0 4 0 0 2 0 0 3 0 0 2 0 0 5 0 0 3 0 0 3 0 0 1 0 0 6 0 0 0 0 0 4 0 0 5 0 0 3 0 0 9 0 0 4 0 0 2 0 0 3 0 0 0 0 0 1 0 0 2 0 0 3 0 0 1 0 0 1 0 0 4 0 0 1 0 0 3 0 0 3 0 0 1 0 0 0 0 0 0 0 0 2 0 0 1 0 0 3 0 0 3 0 0 
0 0 0 0 0 0 0 0 0 3 0 0 1 0 0 5 0 0 5 0 0 2 0 0 3 0 0 7 0 0 4 0 0 3 0 0 1 0 0 7 0 0 4 0 0 4 0 0 5 0 0 4 0 0 0 0 0 2 0 0 3 0 0 2 0 0 4 0 0 7 0 0 5 0 0 2 0 0 3 0 0 3 0 0 1 0 0 2 0 0 5 0 0 2 0 0 5 0 0 3 0 0 6 0 0 3 0 0 4 0 0 3 0 0 4 0 0 6 0 0 2 0 0 2 0 0 2 0 0 0 0 0 1 0 0 6 0 0 4 0 0 2 0 0 3 0 0 2 0 0 1 0 0 4 0 0 2 0 0 1 0 0 1 0 0 0 0 0 1 0 0 3 0 0 5 0 0 2 0 0 
0 0 0 1 0 0 2 0 0 0 0 0 4 0 0 1 0 0 6 0 0 8 0 0 4 0 0 2 0 0 2 0 0 8 0 0 2 0 0 6 0 0 5 0 0 4 0 0 4 0 0 7 0 0 5 0 0 4 0 0 3 0 0 3 0 0 6 0 0 6 0 0 3 0 0 3 0 0 4 0 0 5 0 0 4 0 0 2 0 0 7 0 0 5 0 0 2 0 0 3 0 0 4 0 0 2 0 0 4 0 0 3 0 0 4 0 0 3 0 0 4 0 0 0 0 0 4 0 0 3 0 0 2 0 0 2 0 0 4 0 0 2 0 0 6 0 0 2 0 0 4 0 0 4 0 0 2 0 0 5 0 0 1 0 0 4 0 0 0 0 0 3 0 0 1 0 0 1 0 0 
1 0 0 1 0 0 0 0 0 2 0 0 1 0 0 0 0 0 0 0 0 3 0 0 6 0 0 6 0 0 5 0 0 7 0 0 2 0 0 4 0 0 2 0 0 5 0 0 6 0 0 7 0 0 2 0 0 5 0 0 9 0 0 4 0 0 5 0 0 5 0 0 7 0 0 2 0 0 7 0 0 4 0 0 5 0 0 8 0 0 5 0 0 5 0 0 5 0 0 4 0 0 4 0 0 4 0 0 4 0 0 7 0 0 3 0 0 3 0 0 4 0 0 2 0 0 3 0 0 4 0 0 6 0 0 8 0 0 7 0 0 5 0 0 3 0 0 2 0 0 3 0 0 4 0 0 2 0 0 2 0 0 0 0 0 1 0 0 1 0 0 0 0 0 1 0 0 1 0 0 
1 0 0 3 0 0 1 0 0 2 0 0 2 0 0 1 0 0 1 0 0 3 0 0 3 0 0 2 0 0 7 0 0 5 0 0 3 0 0 2 0 0 6 0 0 3 0 0 6 0 0 9 0 0 3 0 0 6 0 0 7 0 0 2 0 0 11 0 0 8 0 0 6 0 0 2 0 0 6 0 0 7 0 0 3 0 0 3 0 0 6 0 0 4 0 0 9 0 0 5 0 0 3 0 0 5 0 0 9 0 0 7 0 0 10 0 0 6 0 0 4 0 0 5 0 0 4 0 0 7 0 0 5 0 0 4 0 0 3 0 0 4 0 0 0 0 0 6 0 0 5 0 0 4 0 0 3 0 0 3 0 0 2 0 0 3 0 0 0 0 0 2 0 0 1 0 0 0 0 0 
0 0 0 0 0 0 1 0 0 3 0 0 1 0 0 3 0 0 3 0 0 2 0 0 6 0 0 2 0 0 2 0 0 4 0 0 7 0 0 3 0 0 5 0 0 6 0 0 5 0 0 5 0 0 7 0 0 3 0 0 13 0 0 7 0 0 12 0 0 8 0 0 7 0 0 5 0 0 8 0 0 6 0 0 4 0 0 2 0 0 6 0 0 13 0 0 10 0 0 6 0 0 5 0 0 7 0 0 9 0 0 10 0 0 10 0 0 8 0 0 7 0 0 10 0 0 6 0 0 7 0 0 5 0 0 7 0 0 10 0 0 6 0 0 4 0 0 10 0 0 3 0 0 3 0 0 4 0 0 6 0 0 2 0 0 2 0 0 1 0 0 0 0 0 2 0 0 0 0 0 
0 0 0 0 0 0 0 0 0 2 0 0 4 0 0 3 0 0 0 0 0 4 0 0 6 0 0 4 0 0 4 0 0 5 0 0 5 0 0 8 0 0 10 0 0 6 0 0 8 0 0 11 0 0 9 0 0 4 0 0 5 0 0 7 0 0 9 0 0 13 0 0 4 0 0 7 0 0 12 0 0 8 0 0 5 0 0 16 0 0 8 0 0 10 0 0 9 0 0 8 0 0 6 0 0 12 0 0 8 0 0 16 0 0 12 0 0 11 0 0 8 0 0 9 0 0 9 0 0 2 0 0 9 0 0 12 0 0 7 0 0 8 0 0 9 0 0 9 0 0 6 0 0 4 0 0 3 0 0 2 0 0 3 0 0 3 0 0 1 0 0 1 0 0 4 0 0 3 0 0 
0 0 0 1 0 0 2 0 0 3 0 0 4 0 0 5 0 0 2 0 0 2 0 0 6 0 0 4 0 0 22 0 0 34 0 0 37 0 0 30 0 0 41 0 0 39 0 0 47 0 0 44 0 0 44 0 0 46 0 0 37 0 0 37 0 0 40 0 0 46 0 0 33 0 0 39 0 0 42 0 0 39 0 0 59 0 0 39 0 0 47 0 0 38 0 0 37 0 0 39 0 0 44 0 0 47 0 0 38 0 0 46 0 0 41 0 0 40 0 0 50 0 0 35 0 0 44 0 0 37 0 0 52 0 0 41 0 0 38 0 0 40 0 0 33 0 0 32 0 0 23 0 0 7 0 0 6 0 0 3 0 0 6 0 0 1 0 0 1 0 0 1 0 0 2 0 0 3 0 0 
2 0 0 2 0 0 2 0 0 2 0 0 5 0 0 1 0 0 4 0 0 5 0 0 7 0 0 25 0 0 1223 0 0 2480 0 0 2460 0 0 2413 0 0 2355 0 0 2425 0 0 2547 0 0 2533 0 0 2488 0 0 2452 0 0 2512 0 0 2527 0 0 2457 0 0 2466 0 0 2528 0 0 2422 0 0 2493 0 0 2516 0 0 2479 0 0 2469 0 0 2433 0 0 2494 0 0 2518 0 0 2497 0 0 2529 0 0 2453 0 0 2499 0 0 2448 0 0 2450 0 0 2521 0 0 2470 0 0 2486 0 0 2510 0 0 2448 0 0 2363 0 0 2432 0 0 2573 0 0 2519 0 0 2437 0 0 2463 0 0 1249 0 0 21 0 0 5 0 0 3 0 0 7 0 0 1 0 0 2 0 0 2 0 0 1 0 0 2 0 0 
0 0 0 1 0 0 1 0 0 4 0 0 5 0 0 3 0 0 3 0 0 6 0 0 9 0 0 36 0 0 2544 0 0 4904 0 0 4971 0 0 4880 0 0 4809 0 0 4872 0 0 4878 0 0 4938 0 0 4895 0 0 4919 0 0 4794 0 0 4849 0 0 4929 0 0 4882 0 0 4913 0 0 4993 0 0 4906 0 0 4916 0 0 4945 0 0 4966 0 0 4918 0 0 4943 0 0 5017 0 0 4962 0 0 4883 0 0 4899 0 0 4919 0 0 4935 0 0 4872 0 0 4893 0 0 5036 0 0 4905 0 0 4895 0 0 4941 0 0 4782 0 0 4893 0 0 4834 0 0 4895 0 0 4839 0 0 4856 0 0 2474 0 0 30 0 0 4 0 0 7 0 0 2 0 0 3 0 0 2 0 0 3 0 0 0 0 0 0 0 0 
0 0 0 1 0 0 0 0 0 1 0 0 2 0 0 6 0 0 4 0 0 7 0 0 6 0 0 37 0 0 2453 0 0 4882 0 0 4999 0 0 4987 0 0 4975 0 0 4987 0 0 4968 0 0 5028 0 0 4950 0 0 4910 0 0 4852 0 0 4927 0 0 4917 0 0 4930 0 0 4953 0 0 4919 0 0 4905 0 0 5027 0 0 4890 0 0 4832 0 0 5010 0 0 5046 0 0 4926 0 0 4914 0 0 5024 0 0 4872 0 0 4833 0 0 5067 0 0 4976 0 0 4917 0 0 4946 0 0 5107 0 0 4967 0 0 4998 0 0 4872 0 0 4933 0 0 5087 0 0 4963 0 0 4960 0 0 5020 0 0 2441 0 0 39 0 0 3 0 0 5 0 0 3 0 0 3 0 0 3 0 0 3 0 0 1 0 0 0 0 0 
0 0 0 0 0 0 2 0 0 3 0 0 2 0 0 5 0 0 3 0 0 3 0 0 8 0 0 38 0 0 2465 0 0 4900 0 0 4951 0 0 4917 0 0 4934 0 0 4855 0 0 4793 0 0 4926 0 0 4933 0 0 4898 0 0 4918 0 0 4957 0 0 4945 0 0 4814 0 0 4953 0 0 4997 0 0 4823 0 0 4947 0 0 4998 0 0 4998 0 0 4995 0 0 4912 0 0 4939 0 0 5056 0 0 4965 0 0 4906 0 0 5014 0 0 5038 0 0 4931 0 0 5077 0 0 4929 0 0 4971 0 0 4965 0 0 4940 0 0 4992 0 0 4920 0 0 5031 0 0 4882 0 0 4915 0 0 5066 0 0 2565 0 0 44 0 0 8 0 0 7 0 0 3 0 0 2 0 0 4 0 0 0 0 0 0 0 0 1 0 0 
0 0 0 0 0 0 0 0 0 1 0 0 2 0 0 1 0 0 3 0 0 6 0 0 6 0 0 43 0 0 2469 0 0 4793 0 0 4881 0 0 4883 0 0 4967 0 0 5010 0 0 4945 0 0 4932 0 0 4874 0 0 4978 0 0 5061 0 0 5015 0 0 5033 0 0 4914 0 0 4905 0 0 4976 0 0 4869 0 0 4933 0 0 4978 0 0 5005 0 0 4990 0 0 4882 0 0 4985 0 0 4965 0 0 4960 0 0 5063 0 0 4986 0 0 4879 0 0 4890 0 0 4985 0 0 4997 0 0 4902 0 0 4995 0 0 4973 0 0 4985 0 0 4918 0 0 4944 0 0 5060 0 0 5022 0 0 5008 0 0 2469 0 0 34 0 0 4 0 0 8 0 0 3 0 0 5 0 0 0 0 0 0 0 0 0 0 0 1 0 0 
0 0 0 0 0 0 0 0 0 0 0 0 0 0 0 0 0 0 2 0 0 1 0 0 8 0 0 38 0 0 2488 0 0 4914 0 0 4918 0 0 4901 0 0 5105 0 0 4956 0 0 4826 0 0 5052 0 0 4959 0 0 4958 0 0 4973 0 0 4978 0 0 4976 0 0 4964 0 0 4988 0 0 4905 0 0 4910 0 0 5013 0 0 4980 0 0 4955 0 0 4882 0 0 4934 0 0 5156 0 0 4939 0 0 4958 0 0 4874 0 0 5002 0 0 5005 0 0 4915 0 0 4924 0 0 4866 0 0 5043 0 0 4985 0 0 4869 0 0 4993 0 0 4972 0 0 4818 0 0 4968 0 0 4886 0 0 4992 0 0 2479 0 0 33 0 0 8 0 0 5 0 0 6 0 0 2 0 0 3 0 0 3 0 0 1 0 0 0 0 0 
1 0 0 3 0 0 6 0 0 2 0 0 4 0 0 2 0 0 2 0 0 8 0 0 16 0 0 37 0 0 2512 0 0 4913 0 0 4970 0 0 4987 0 0 4953 0 0 4893 0 0 4927 0 0 4886 0 0 4872 0 0 4938 0 0 5017 0 0 4917 0 0 4976 0 0 4966 0 0 4913 0 0 4921 0 0 4981 0 0 4959 0 0 4984 0 0 5061 0 0 5008 0 0 4976 0 0 5074 0 0 4968 0 0 4866 0 0 4969 0 0 5022 0 0 5017 0 0 5034 0 0 4942 0 0 4973 0 0 4860 0 0 4892 0 0 4817 0 0 4905 0 0 4882 0 0 4827 0 0 4886 0 0 4977 0 0 5003 0 0 2512 0 0 39 0 0 9 0 0 8 0 0 5 0 0 4 0 0 5 0 0 4 0 0 1 0 0 2 0 0 
1 0 0 2 0 0 3 0 0 0 0 0 1 0 0 4 0 0 5 0 0 8 0 0 5 0 0 44 0 0 2493 0 0 4985 0 0 4926 0 0 4924 0 0 4873 0 0 5069 0 0 5023 0 0 4930 0 0 4893 0 0 5004 0 0 4965 0 0 4928 0 0 4848 0 0 4969 0 0 4950 0 0 5011 0 0 4912 0 0 4943 0 0 4976 0 0 4905 0 0 4981 0 0 4961 0 0 4979 0 0 4936 0 0 4970 0 0 4878 0 0 4941 0 0 5034 0 0 4971 0 0 5025 0 0 5011 0 0 4955 0 0 4898 0 0 4945 0 0 4999 0 0 4872 0 0 4915 0 0 5037 0 0 4875 0 0 4847 0 0 2450 0 0 48 0 0 7 0 0 5 0 0 6 0 0 2 0 0 3 0 0 2 0 0 1 0 0 1 0 0 
2 0 0 4 0 0 3 0 0 4 0 0 3 0 0 9 0 0 7 0 0 4 0 0 9 0 0 37 0 0 2487 0 0 4841 0 0 5005 0 0 4918 0 0 4897 0 0 4936 0 0 4899 0 0 5094 0 0 4934 0 0 4899 0 0 5007 0 0 4912 0 0 4917 0 0 4902 0 0 4953 0 0 4940 0 0 4897 0 0 4962 0 0 4960 0 0 4940 0 0 4808 0 0 4928 0 0 4959 0 0 4961 0 0 5035 0 0 4953 0 0 4892 0 0 4989 0 0 4890 0 0 4985 0 0 4958 0 0 4973 0 0 4918 0 0 5028 0 0 4967 0 0 4872 0 0 4832 0 0 4913 0 0 4989 0 0 5012 0 0 2455 0 0 43 0 0 5 0 0 4 0 0 8 0 0 3 0 0 2 0 0 1 0 0 1 0 0 3 0 0 
1 0 0 5 0 0 4 0 0 1 0 0 3 0 0 5 0 0 7 0 0 12 0 0 14 0 0 43 0 0 2519 0 0 4932 0 0 4921 0 0 4935 0 0 4950 0 0 5009 0 0 4981 0 0 4796 0 0 4962 0 0 4861 0 0 5060 0 0 4929 0 0 5025 0 0 4971 0 0 5026 0 0 5030 0 0 5045 0 0 4970 0 0 4973 0 0 4939 0 0 4958 0 0 4987 0 0 5036 0 0 4890 0 0 5094 0 0 4873 0 0 5056 0 0 5020 0 0 4879 0 0 4960 0 0 5039 0 0 4889 0 0 5052 0 0 4910 0 0 4867 0 0 4924 0 0 4938 0 0 5079 0 0 4957 0 0 4922 0 0 2492 0 0 30 0 0 5 0 0 5 0 0 5 0 0 6 0 0 5 0 0 2 0 0 4 0 0 3 0 0 
1 0 0 4 0 0 2 0 0 0 0 0 0 0 0 2 0 0 9 0 0 11 0 0 12 0 0 41 0 0 2473 0 0 4808 0 0 4898 0 0 4926 0 0 5011 0 0 4954 0 0 4981 0 0 4985 0 0 5003 0 0 4883 0 0 5053 0 0 4980 0 0 5055 0 0 4933 0 0 5035 0 0 5060 0 0 4925 0 0 4943 0 0 4983 0 0 4892 0 0 4942 0 0 4984 0 0 4962 0 0 4995 0 0 5040 0 0 4949 0 0 5000 0 0 4954 0 0 5034 0 0 4950 0 0 5093 0 0 4927 0 0 4951 0 0 4992 0 0 4989 0 0 4891 0 0 4984 0 0 4917 0 0 5001 0 0 4854 0 0 2441 0 0 45 0 0 13 0 0 10 0 0 4 0 0 2 0 0 1 0 0 2 0 0 3 0 0 2 0 0 
0 0 0 1 0 0 4 0 0 1 0 0 5 0 0 7 0 0 4 0 0 9 0 0 6 0 0 39 0 0 2393 0 0 4872 0 0 5006 0 0 4954 0 0 4935 0 0 4936 0 0 5139 0 0 4925 0 0 4884 0 0 4842 0 0 5066 0 0 4957 0 0 5063 0 0 4976 0 0 4984 0 0 4938 0 0 4961 0 0 5001 0 0 4999 0 0 4888 0 0 5021 0 0 4922 0 0 4914 0 0 4835 0 0 4940 0 0 4961 0 0 4879 0 0 4893 0 0 4939 0 0 5049 0 0 4925 0 0 4883 0 0 4954 0 0 4833 0 0 4925 0 0 4914 0 0 4954 0 0 5015 0 0 5009 0 0 4912 0 0 2501 0 0 57 0 0 8 0 0 4 0 0 4 0 0 5 0 0 3 0 0 2 0 0 1 0 0 8 0 0 
2 0 0 2 0 0 1 0 0 0 0 0 2 0 0 3 0 0 2 0 0 6 0 0 3 0 0 42 0 0 2480 0 0 4832 0 0 4862 0 0 4872 0 0 4987 0 0 4963 0 0 5004 0 0 4915 0 0 4947 0 0 4978 0 0 4910 0 0 5015 0 0 4939 0 0 4923 0 0 5014 0 0 5030 0 0 5007 0 0 4896 0 0 4910 0 0 4856 0 0 4916 0 0 5074 0 0 4856 0 0 4962 0 0 4955 0 0 4972 0 0 5085 0 0 4939 0 0 5013 0 0 4967 0 0 4954 0 0 5115 0 0 4880 0 0 4988 0 0 5010 0 0 4951 0 0 4995 0 0 5049 0 0 5074 0 0 5037 0 0 2497 0 0 40 0 0 11 0 0 6 0 0 7 0 0 5 0 0 4 0 0 5 0 0 2 0 0 6 0 0 
1 0 0 4 0 0 6 0 0 5 0 0 7 0 0 12 0 0 4 0 0 10 0 0 5 0 0 31 0 0 2414 0 0 4971 0 0 4962 0 0 4927 0 0 5049 0 0 4910 0 0 5094 0 0 4871 0 0 5018 0 0 5008 0 0 4986 0 0 4956 0 0 4959 0 0 4987 0 0 4954 0 0 4946 0 0 5023 0 0 4996 0 0 5192 0 0 4930 0 0 5052 0 0 4990 0 0 5043 0 0 4907 0 0 4878 0 0 4940 0 0 5040 0 0 4931 0 0 4954 0 0 5022 0 0 4968 0 0 5016 0 0 4998 0 0 4947 0 0 4934 0 0 4986 0 0 4909 0 0 4897 0 0 4927 0 0 5038 0 0 2408 0 0 37 0 0 11 0 0 6 0 0 3 0 0 3 0 0 7 0 0 6 0 0 9 0 0 5 0 0 
0 0 0 1 0 0 4 0 0 6 0 0 5 0 0 6 0 0 2 0 0 1 0 0 9 0 0 25 0 0 2501 0 0 4878 0 0 4935 0 0 4939 0 0 4928 0 0 4989 0 0 4969 0 0 4985 0 0 4968 0 0 4897 0 0 4952 0 0 5073 0 0 4931 0 0 4945 0 0 4931 0 0 5059 0 0 4997 0 0 4969 0 0 4938 0 0 4928 0 0 5025 0 0 4926 0 0 4929 0 0 4931 0 0 4908 0 0 5008 0 0 4976 0 0 4985 0 0 4880 0 0 4956 0 0 4970 0 0 4925 0 0 5008 0 0 4982 0 0 5035 0 0 4874 0 0 4944 0 0 4945 0 0 4930 0 0 5019 0 0 2503 0 0 33 0 0 3 0 0 4 0 0 6 0 0 4 0 0 7 0 0 1 0 0 2 0 0 1 0 0 
1 0 0 1 0 0 1 0 0 0 0 0 3 0 0 10 0 0 7 0 0 7 0 0 6 0 0 40 0 0 2464 0 0 4932 0 0 4909 0 0 4907 0 0 4948 0 0 4883 0 0 4980 0 0 5010 0 0 4912 0 0 4888 0 0 4899 0 0 4999 0 0 4887 0 0 4873 0 0 4962 0 0 5038 0 0 5044 0 0 4953 0 0 4988 0 0 4941 0 0 4957 0 0 4976 0 0 4889 0 0 4949 0 0 4934 0 0 4919 0 0 4919 0 0 5002 0 0 4985 0 0 4939 0 0 4880 0 0 4949 0 0 4894 0 0 4830 0 0 4953 0 0 4983 0 0 4925 0 0 5041 0 0 4988 0 0 4919 0 0 2563 0 0 33 0 0 6 0 0 7 0 0 2 0 0 2 0 0 2 0 0 4 0 0 1 0 0 4 0 0 
2 0 0 1 0 0 0 0 0 3 0 0 5 0 0 5 0 0 8 0 0 9 0 0 3 0 0 35 0 0 2489 0 0 4981 0 0 4905 0 0 4968 0 0 4969 0 0 4982 0 0 4908 0 0 4932 0 0 5018 0 0 5078 0 0 4980 0 0 4937 0 0 4998 0 0 4961 0 0 4955 0 0 4894 0 0 5054 0 0 5056 0 0 4970 0 0 4884 0 0 5007 0 0 5023 0 0 4982 0 0 4945 0 0 5066 0 0 5090 0 0 4894 0 0 4951 0 0 4997 0 0 4869 0 0 5026 0 0 4957 0 0 4922 0 0 5044 0 0 4973 0 0 4960 0 0 4943 0 0 4869 0 0 4993 0 0 5017 0 0 2499 0 0 43 0 0 9 0 0 5 0 0 7 0 0 3 0 0 2 0 0 6 0 0 0 0 0 0 0 0 
1 0 0 3 0 0 4 0 0 6 0 0 7 0 0 4 0 0 7 0 0 4 0 0 7 0 0 41 0 0 2523 0 0 4922 0 0 4922 0 0 4971 0 0 4904 0 0 4930 0 0 4825 0 0 4939 0 0 4910 0 0 4966 0 0 4950 0 0 4860 0 0 4957 0 0 5149 0 0 4987 0 0 4929 0 0 5027 0 0 4880 0 0 5019 0 0 4948 0 0 5005 0 0 5013 0 0 5002 0 0 4907 0 0 5015 0 0 5030 0 0 4983 0 0 4873 0 0 4927 0 0 5071 0 0 4958 0 0 5073 0 0 4880 0 0 4994 0 0 4993 0 0 4899 0 0 4957 0 0 4908 0 0 4906 0 0 4893 0 0 2468 0 0 37 0 0 12 0 0 5 0 0 6 0 0 6 0 0 4 0 0 1 0 0 2 0 0 2 0 0 
3 0 0 5 0 0 3 0 0 5 0 0 5 0 0 5 0 0 4 0 0 10 0 0 19 0 0 47 0 0 2489 0 0 4885 0 0 4936 0 0 4972 0 0 4936 0 0 5007 0 0 4945 0 0 4900 0 0 4903 0 0 4921 0 0 4982 0 0 4934 0 0 4991 0 0 4916 0 0 4865 0 0 4935 0 0 4931 0 0 4987 0 0 5040 0 0 4941 0 0 4905 0 0 5013 0 0 4886 0 0 4987 0 0 4874 0 0 4997 0 0 4857 0 0 4876 0 0 4928 0 0 4995 0 0 4890 0 0 4961 0 0 4876 0 0 4896 0 0 4915 0 0 4998 0 0 4989 0 0 4994 0 0 4958 0 0 4865 0 0 2482 0 0 41 0 0 6 0 0 2 0 0 2 0 0 6 0 0 7 0 0 4 0 0 1 0 0 1 0 0 
0 0 0 0 0 0 0 0 0 0 0 0 3 0 0 3 0 0 9 0 0 6 0 0 11 0 0 46 0 0 2532 0 0 4751 0 0 4864 0 0 4981 0 0 4851 0 0 4878 0 0 4872 0 0 4941 0 0 4961 0 0 4994 0 0 4985 0 0 5015 0 0 5033 0 0 4890 0 0 5004 0 0 4893 0 0 4982 0 0 4989 0 0 4991 0 0 4898 0 0 4851 0 0 4931 0 0 4976 0 0 5037 0 0 4952 0 0 4892 0 0 5048 0 0 4898 0 0 4990 0 0 5004 0 0 5031 0 0 5006 0 0 4928 0 0 4882 0 0 5042 0 0 5058 0 0 4962 0 0 4998 0 0 4888 0 0 4917 0 0 2483 0 0 50 0 0 5 0 0 6 0 0 4 0 0 3 0 0 4 0 0 5 0 0 3 0 0 1 0 0 
1 0 0 5 0 0 4 0 0 4 0 0 8 0 0 6 0 0 4 0 0 8 0 0 8 0 0 47 0 0 2448 0 0 4868 0 0 4915 0 0 4953 0 0 4973 0 0 5006 0 0 5102 0 0 4859 0 0 4944 0 0 5019 0 0 4947 0 0 4915 0 0 4913 0 0 4953 0 0 4973 0 0 4923 0 0 4949 0 0 4992 0 0 5032 0 0 4952 0 0 4978 0 0 4928 0 0 4975 0 0 4983 0 0 5029 0 0 4909 0 0 4967 0 0 4912 0 0 4939 0 0 4922 0 0 4877 0 0 5023 0 0 5026 0 0 4920 0 0 4870 0 0 5005 0 0 4961 0 0 5001 0 0 4946 0 0 4933 0 0 2453 0 0 47 0 0 11 0 0 6 0 0 6 0 0 1 0 0 3 0 0 2 0 0 5 0 0 4 0 0 
2 0 0 7 0 0 6 0 0 6 0 0 1 0 0 2 0 0 2 0 0 8 0 0 5 0 0 41 0 0 2459 0 0 4939 0 0 4985 0 0 4923 0 0 5012 0 0 5031 0 0 4828 0 0 4903 0 0 4990 0 0 4898 0 0 4962 0 0 4954 0 0 4979 0 0 5030 0 0 5026 0 0 4954 0 0 5019 0 0 5006 0 0 5063 0 0 4911 0 0 4885 0 0 4997 0 0 4987 0 0 4952 0 0 4961 0 0 4903 0 0 5031 0 0 4980 0 0 4938 0 0 4938 0 0 4975 0 0 4945 0 0 4866 0 0 5054 0 0 5047 0 0 4913 0 0 4978 0 0 4902 0 0 4946 0 0 5071 0 0 2522 0 0 40 0 0 13 0 0 5 0 0 8 0 0 7 0 0 9 0 0 6 0 0 5 0 0 6 0 0 
1 0 0 3 0 0 6 0 0 3 0 0 4 0 0 5 0 0 3 0 0 9 0 0 5 0 0 34 0 0 2510 0 0 4871 0 0 4966 0 0 5056 0 0 4992 0 0 5033 0 0 5022 0 0 4928 0 0 5047 0 0 4958 0 0 4913 0 0 5048 0 0 4978 0 0 4972 0 0 4969 0 0 4993 0 0 5005 0 0 4790 0 0 5018 0 0 4971 0 0 4946 0 0 4900 0 0 4931 0 0 4885 0 0 4934 0 0 5003 0 0 4992 0 0 4928 0 0 4918 0 0 4958 0 0 5019 0 0 4958 0 0 5032 0 0 4821 0 0 4971 0 0 5089 0 0 4790 0 0 4992 0 0 5006 0 0 4884 0 0 2436 0 0 33 0 0 11 0 0 14 0 0 7 0 0 6 0 0 5 0 0 7 0 0 5 0 0 1 0 0 
0 0 0 1 0 0 1 0 0 6 0 0 4 0 0 4 0 0 8 0 0 7 0 0 9 0 0 43 0 0 2437 0 0 5041 0 0 4975 0 0 4936 0 0 4832 0 0 5015 0 0 4979 0 0 5011 0 0 4952 0 0 5047 0 0 4981 0 0 4937 0 0 5023 0 0 5056 0 0 5015 0 0 5075 0 0 5077 0 0 4863 0 0 4871 0 0 4931 0 0 4940 0 0 5001 0 0 4894 0 0 4998 0 0 4998 0 0 4936 0 0 4989 0 0 4975 0 0 4973 0 0 4988 0 0 4949 0 0 4910 0 0 4955 0 0 4876 0 0 4952 0 0 4935 0 0 4924 0 0 4872 0 0 4965 0 0 4982 0 0 2569 0 0 47 0 0 13 0 0 6 0 0 5 0 0 3 0 0 2 0 0 6 0 0 2 0 0 1 0 0 
1 0 0 6 0 0 5 0 0 4 0 0 4 0 0 3 0 0 2 0 0 9 0 0 9 0 0 52 0 0 2471 0 0 4916 0 0 4801 0 0 4836 0 0 4988 0 0 5031 0 0 5014 0 0 4899 0 0 4959 0 0 4955 0 0 4919 0 0 4973 0 0 4962 0 0 5050 0 0 5088 0 0 5012 0 0 4894 0 0 4946 0 0 4959 0 0 4944 0 0 5062 0 0 4900 0 0 4882 0 0 5054 0 0 4874 0 0 5075 0 0 4959 0 0 4869 0 0 4909 0 0 4950 0 0 5010 0 0 4951 0 0 4939 0 0 4913 0 0 4935 0 0 5018 0 0 4960 0 0 5013 0 0 4899 0 0 4931 0 0 2401 0 0 38 0 0 7 0 0 6 0 0 6 0 0 7 0 0 6 0 0 0 0 0 3 0 0 6 0 0 
1 0 0 3 0 0 3 0 0 4 0 0 3 0 0 5 0 0 3 0 0 3 0 0 2 0 0 42 0 0 2437 0 0 4973 0 0 4925 0 0 4894 0 0 4961 0 0 4922 0 0 5118 0 0 5049 0 0 5025 0 0 5043 0 0 4954 0 0 4974 0 0 5037 0 0 5002 0 0 5015 0 0 5022 0 0 4961 0 0 4879 0 0 5015 0 0 5055 0 0 5064 0 0 4952 0 0 4993 0 0 4942 0 0 4950 0 0 4917 0 0 4935 0 0 4881 0 0 4979 0 0 4959 0 0 4955 0 0 4886 0 0 4962 0 0 5049 0 0 5024 0 0 5023 0 0 4954 0 0 5006 0 0 5099 0 0 4943 0 0 2427 0 0 46 0 0 16 0 0 5 0 0 3 0 0 5 0 0 4 0 0 8 0 0 6 0 0 1 0 0 
1 0 0 2 0 0 3 0 0 1 0 0 5 0 0 5 0 0 4 0 0 6 0 0 10 0 0 49 0 0 2491 0 0 4987 0 0 4958 0 0 4966 0 0 5012 0 0 5048 0 0 4890 0 0 4984 0 0 4902 0 0 5005 0 0 4816 0 0 5044 0 0 5061 0 0 4875 0 0 4901 0 0 4961 0 0 4895 0 0 4972 0 0 4929 0 0 5061 0 0 4994 0 0 4814 0 0 5023 0 0 5011 0 0 4999 0 0 4980 0 0 4857 0 0 4887 0 0 4880 0 0 4989 0 0 4998 0 0 4938 0 0 4890 0 0 4954 0 0 4906 0 0 5016 0 0 4966 0 0 4975 0 0 4922 0 0 4959 0 0 2532 0 0 41 0 0 8 0 0 11 0 0 10 0 0 9 0 0 4 0 0 3 0 0 5 0 0 2 0 0 
2 0 0 3 0 0 2 0 0 5 0 0 6 0 0 3 0 0 6 0 0 9 0 0 9 0 0 38 0 0 2555 0 0 5028 0 0 4887 0 0 4935 0 0 4994 0 0 4975 0 0 5063 0 0 5004 0 0 4999 0 0 4987 0 0 4911 0 0 4939 0 0 4929 0 0 4943 0 0 4932 0 0 4986 0 0 4905 0 0 5060 0 0 4994 0 0 4976 0 0 4834 0 0 5027 0 0 4945 0 0 4965 0 0 4948 0 0 5073 0 0 4909 0 0 4955 0 0 4928 0 0 4924 0 0 4881 0 0 4892 0 0 4990 0 0 4894 0 0 4949 0 0 4946 0 0 4969 0 0 4843 0 0 4989 0 0 4863 0 0 2416 0 0 43 0 0 6 0 0 6 0 0 8 0 0 3 0 0 3 0 0 5 0 0 5 0 0 4 0 0 
0 0 0 2 0 0 3 0 0 6 0 0 4 0 0 7 0 0 6 0 0 9 0 0 12 0 0 36 0 0 2462 0 0 4965 0 0 4905 0 0 4896 0 0 4951 0 0 4924 0 0 4931 0 0 5024 0 0 4917 0 0 4869 0 0 5032 0 0 5016 0 0 4919 0 0 4875 0 0 4876 0 0 4943 0 0 4973 0 0 4933 0 0 5018 0 0 4958 0 0 5024 0 0 4950 0 0 4904 0 0 4889 0 0 4961 0 0 4992 0 0 4963 0 0 4950 0 0 4806 0 0 4915 0 0 5010 0 0 4966 0 0 4973 0 0 4890 0 0 4900 0 0 4971 0 0 4955 0 0 4963 0 0 4941 0 0 4955 0 0 2486 0 0 47 0 0 8 0 0 5 0 0 5 0 0 2 0 0 3 0 0 4 0 0 4 0 0 1 0 0 
0 0 0 0 0 0 3 0 0 7 0 0 4 0 0 2 0 0 8 0 0 10 0 0 10 0 0 39 0 0 2449 0 0 4905 0 0 5039 0 0 4957 0 0 4911 0 0 4928 0 0 5117 0 0 4901 0 0 4971 0 0 4920 0 0 5122 0 0 5087 0 0 4944 0 0 5025 0 0 4959 0 0 4982 0 0 4926 0 0 4989 0 0 5041 0 0 4939 0 0 5012 0 0 4976 0 0 4869 0 0 4933 0 0 4954 0 0 4985 0 0 5027 0 0 4903 0 0 4998 0 0 4940 0 0 4897 0 0 4967 0 0 5047 0 0 4962 0 0 4852 0 0 5042 0 0 5007 0 0 5042 0 0 4958 0 0 4877 0 0 2468 0 0 37 0 0 10 0 0 4 0 0 1 0 0 6 0 0 2 0 0 5 0 0 3 0 0 3 0 0 
0 0 0 2 0 0 2 0 0 0 0 0 1 0 0 4 0 0 6 0 0 8 0 0 10 0 0 36 0 0 2471 0 0 4943 0 0 5022 0 0 4989 0 0 4979 0 0 4985 0 0 4957 0 0 4910 0 0 4965 0 0 4960 0 0 4949 0 0 4910 0 0 4979 0 0 5078 0 0 4919 0 0 4960 0 0 5000 0 0 4933 0 0 5049 0 0 4912 0 0 5034 0 0 4986 0 0 4956 0 0 4876 0 0 4962 0 0 4909 0 0 5071 0 0 4968 0 0 4916 0 0 4905 0 0 4968 0 0 4877 0 0 5004 0 0 5112 0 0 5081 0 0 5020 0 0 5047 0 0 4965 0 0 4979 0 0 4943 0 0 2470 0 0 34 0 0 9 0 0 3 0 0 3 0 0 6 0 0 3 0 0 2 0 0 3 0 0 4 0 0 
0 0 0 0 0 0 0 0 0 3 0 0 2 0 0 2 0 0 4 0 0 3 0 0 4 0 0 32 0 0 2569 0 0 4996 0 0 4889 0 0 4965 0 0 4894 0 0 4942 0 0 4896 0 0 4986 0 0 4825 0 0 4844 0 0 4909 0 0 4950 0 0 4876 0 0 5066 0 0 5059 0 0 5050 0 0 4994 0 0 4902 0 0 4843 0 0 5005 0 0 4950 0 0 4926 0 0 5023 0 0 5056 0 0 4981 0 0 4966 0 0 4938 0 0 4978 0 0 5010 0 0 4890 0 0 4905 0 0 5012 0 0 4927 0 0 4933 0 0 5048 0 0 4936 0 0 4837 0 0 4902 0 0 4977 0 0 4997 0 0 2464 0 0 33 0 0 12 0 0 9 0 0 8 0 0 8 0 0 4 0 0 4 0 0 4 0 0 3 0 0 
1 0 0 2 0 0 0 0 0 2 0 0 1 0 0 4 0 0 4 0 0 4 0 0 7 0 0 44 0 0 2429 0 0 5014 0 0 5033 0 0 4917 0 0 4920 0 0 4934 0 0 4966 0 0 4966 0 0 4973 0 0 4912 0 0 4894 0 0 5009 0 0 4995 0 0 5073 0 0 4911 0 0 5011 0 0 5012 0 0 4885 0 0 4869 0 0 4946 0 0 5001 0 0 4829 0 0 5034 0 0 5028 0 0 4791 0 0 4943 0 0 4910 0 0 4960 0 0 4762 0 0 4930 0 0 4921 0 0 5061 0 0 4946 0 0 5007 0 0 4941 0 0 4843 0 0 5108 0 0 4945 0 0 4825 0 0 4917 0 0 2428 0 0 44 0 0 10 0 0 6 0 0 4 0 0 3 0 0 1 0 0 3 0 0 3 0 0 6 0 0 
1 0 0 1 0 0 1 0 0 2 0 0 7 0 0 4 0 0 4 0 0 5 0 0 12 0 0 43 0 0 2492 0 0 4962 0 0 4867 0 0 4964 0 0 5000 0 0 5114 0 0 4998 0 0 5005 0 0 4963 0 0 5061 0 0 5006 0 0 4972 0 0 5047 0 0 5010 0 0 5005 0 0 4959 0 0 5004 0 0 5046 0 0 4913 0 0 4977 0 0 5102 0 0 5007 0 0 4926 0 0 4940 0 0 5011 0 0 4907 0 0 4995 0 0 4997 0 0 4989 0 0 4995 0 0 4932 0 0 5003 0 0 5041 0 0 4909 0 0 5014 0 0 4903 0 0 5039 0 0 4932 0 0 4874 0 0 4973 0 0 2455 0 0 32 0 0 7 0 0 5 0 0 7 0 0 8 0 0 5 0 0 5 0 0 3 0 0 4 0 0 
0 0 0 2 0 0 2 0 0 3 0 0 2 0 0 4 0 0 8 0 0 5 0 0 10 0 0 36 0 0 2504 0 0 4986 0 0 4881 0 0 4983 0 0 4960 0 0 4894 0 0 5122 0 0 5034 0 0 5008 0 0 4901 0 0 4921 0 0 5037 0 0 5009 0 0 4977 0 0 4946 0 0 5015 0 0 4962 0 0 4953 0 0 5088 0 0 4904 0 0 5064 0 0 4956 0 0 4992 0 0 5022 0 0 4972 0 0 5003 0 0 5037 0 0 4915 0 0 5019 0 0 4876 0 0 4942 0 0 4961 0 0 4966 0 0 4979 0 0 5042 0 0 5016 0 0 4932 0 0 5001 0 0 4836 0 0 4930 0 0 2450 0 0 39 0 0 10 0 0 9 0 0 5 0 0 3 0 0 2 0 0 1 0 0 2 0 0 1 0 0 
0 0 0 2 0 0 5 0 0 2 0 0 2 0 0 2 0 0 2 0 0 5 0 0 12 0 0 42 0 0 2412 0 0 4880 0 0 5011 0 0 4888 0 0 5061 0 0 4815 0 0 4920 0 0 5002 0 0 4967 0 0 4862 0 0 5113 0 0 4985 0 0 4896 0 0 4917 0 0 4780 0 0 4995 0 0 4921 0 0 4863 0 0 4953 0 0 5021 0 0 5030 0 0 4876 0 0 4929 0 0 4913 0 0 4834 0 0 5007 0 0 4923 0 0 4943 0 0 4966 0 0 4923 0 0 4807 0 0 4886 0 0 4996 0 0 4925 0 0 4909 0 0 5018 0 0 4989 0 0 4889 0 0 4933 0 0 4927 0 0 2459 0 0 31 0 0 5 0 0 6 0 0 3 0 0 2 0 0 0 0 0 1 0 0 1 0 0 0 0 0 
1 0 0 1 0 0 0 0 0 2 0 0 1 0 0 0 0 0 2 0 0 3 0 0 8 0 0 44 0 0 2526 0 0 4908 0 0 5012 0 0 4985 0 0 4886 0 0 4979 0 0 4925 0 0 4912 0 0 5041 0 0 5007 0 0 4917 0 0 5048 0 0 5024 0 0 4950 0 0 5021 0 0 4859 0 0 4916 0 0 4872 0 0 4984 0 0 4920 0 0 5035 0 0 4960 0 0 5005 0 0 5021 0 0 4992 0 0 5140 0 0 4887 0 0 4934 0 0 4986 0 0 5085 0 0 4907 0 0 5015 0 0 4969 0 0 4987 0 0 4954 0 0 4910 0 0 5042 0 0 5036 0 0 4959 0 0 4963 0 0 2521 0 0 36 0 0 4 0 0 6 0 0 7 0 0 5 0 0 2 0 0 2 0 0 2 0 0 0 0 0 
0 0 0 0 0 0 1 0 0 3 0 0 0 0 0 3 0 0 4 0 0 3 0 0 5 0 0 39 0 0 2419 0 0 5010 0 0 4952 0 0 4904 0 0 5087 0 0 5025 0 0 4968 0 0 5074 0 0 4996 0 0 4973 0 0 4840 0 0 4951 0 0 4990 0 0 4934 0 0 4998 0 0 4964 0 0 5006 0 0 5067 0 0 4895 0 0 4966 0 0 4898 0 0 4877 0 0 4934 0 0 4922 0 0 5026 0 0 4874 0 0 5003 0 0 4885 0 0 4953 0 0 4869 0 0 4944 0 0 5139 0 0 5001 0 0 4944 0 0 4991 0 0 4932 0 0 4841 0 0 4910 0 0 4983 0 0 4982 0 0 2447 0 0 48 0 0 9 0 0 10 0 0 10 0 0 3 0 0 3 0 0 2 0 0 2 0 0 2 0 0 
0 0 0 1 0 0 1 0 0 4 0 0 8 0 0 5 0 0 5 0 0 5 0 0 9 0 0 35 0 0 2446 0 0 4978 0 0 4915 0 0 4846 0 0 4954 0 0 4923 0 0 4870 0 0 4954 0 0 4918 0 0 5048 0 0 4963 0 0 4960 0 0 5108 0 0 4962 0 0 4980 0 0 5015 0 0 4900 0 0 5019 0 0 4898 0 0 4998 0 0 4872 0 0 5044 0 0 4937 0 0 4933 0 0 4991 0 0 4900 0 0 5023 0 0 5045 0 0 4966 0 0 4895 0 0 4986 0 0 4990 0 0 4909 0 0 4961 0 0 4926 0 0 4981 0 0 4964 0 0 5056 0 0 4944 0 0 4976 0 0 2517 0 0 37 0 0 3 0 0 1 0 0 6 0 0 2 0 0 2 0 0 2 0 0 2 0 0 2 0 0 
0 0 0 3 0 0 4 0 0 2 0 0 6 0 0 4 0 0 4 0 0 3 0 0 5 0 0 38 0 0 2463 0 0 4787 0 0 4891 0 0 4977 0 0 4848 0 0 5075 0 0 4914 0 0 4845 0 0 4958 0 0 4904 0 0 4888 0 0 4895 0 0 4885 0 0 4919 0 0 4945 0 0 4865 0 0 4868 0 0 4787 0 0 4903 0 0 4895 0 0 4995 0 0 4864 0 0 4972 0 0 4901 0 0 4966 0 0 4950 0 0 4941 0 0 4934 0 0 4817 0 0 4897 0 0 4860 0 0 4892 0 0 4922 0 0 4955 0 0 5092 0 0 4920 0 0 4943 0 0 4974 0 0 4961 0 0 4827 0 0 2482 0 0 34 0 0 6 0 0 7 0 0 4 0 0 3 0 0 1 0 0 2 0 0 2 0 0 2 0 0 
0 0 0 2 0 0 3 0 0 4 0 0 0 0 0 2 0 0 3 0 0 3 0 0 5 0 0 23 0 0 1292 0 0 2482 0 0 2583 0 0 2510 0 0 2513 0 0 2525 0 0 2444 0 0 2540 0 0 2517 0 0 2495 0 0 2555 0 0 2568 0 0 2483 0 0 2569 0 0 2474 0 0 2431 0 0 2458 0 0 2453 0 0 2471 0 0 2506 0 0 2350 0 0 2521 0 0 2542 0 0 2429 0 0 2445 0 0 2435 0 0 2508 0 0 2476 0 0 2498 0 0 2476 0 0 2506 0 0 2512 0 0 2447 0 0 2468 0 0 2497 0 0 2533 0 0 2536 0 0 2492 0 0 2465 0 0 2459 0 0 1281 0 0 20 0 0 3 0 0 1 0 0 5 0 0 4 0 0 1 0 0 2 0 0 2 0 0 1 0 0 
0 0 0 0 0 0 1 0 0 0 0 0 0 0 0 1 0 0 1 0 0 1 0 0 2 0 0 9 0 0 19 0 0 32 0 0 40 0 0 43 0 0 38 0 0 34 0 0 26 0 0 32 0 0 41 0 0 32 0 0 43 0 0 40 0 0 35 0 0 42 0 0 43 0 0 43 0 0 42 0 0 47 0 0 44 0 0 49 0 0 41 0 0 42 0 0 38 0 0 43 0 0 44 0 0 38 0 0 42 0 0 40 0 0 38 0 0 43 0 0 50 0 0 45 0 0 49 0 0 44 0 0 50 0 0 38 0 0 37 0 0 36 0 0 27 0 0 41 0 0 19 0 0 4 0 0 5 0 0 5 0 0 1 0 0 4 0 0 2 0 0 2 0 0 2 0 0 3 0 0 
0 0 0 1 0 0 1 0 0 0 0 0 4 0 0 2 0 0 1 0 0 1 0 0 2 0 0 3 0 0 5 0 0 3 0 0 5 0 0 7 0 0 12 0 0 8 0 0 5 0 0 3 0 0 5 0 0 8 0 0 6 0 0 9 0 0 7 0 0 8 0 0 12 0 0 7 0 0 10 0 0 10 0 0 11 0 0 12 0 0 10 0 0 16 0 0 7 0 0 12 0 0 10 0 0 8 0 0 11 0 0 10 0 0 9 0 0 8 0 0 9 0 0 9 0 0 6 0 0 11 0 0 10 0 0 11 0 0 4 0 0 6 0 0 3 0 0 6 0 0 4 0 0 2 0 0 6 0 0 0 0 0 2 0 0 2 0 0 2 0 0 0 0 0 0 0 0 0 0 0 
1 0 0 3 0 0 5 0 0 1 0 0 0 0 0 1 0 0 0 0 0 3 0 0 3 0 0 0 0 0 2 0 0 2 0 0 5 0 0 3 0 0 5 0 0 4 0 0 3 0 0 6 0 0 2 0 0 4 0 0 5 0 0 7 0 0 11 0 0 13 0 0 8 0 0 9 0 0 12 0 0 8 0 0 8 0 0 9 0 0 6 0 0 5 0 0 14 0 0 7 0 0 8 0 0 8 0 0 4 0 0 9 0 0 6 0 0 8 0 0 8 0 0 3 0 0 5 0 0 8 0 0 5 0 0 6 0 0 5 0 0 0 0 0 2 0 0 2 0 0 1 0 0 3 0 0 7 0 0 3 0 0 0 0 0 1 0 0 1 0 0 1 0 0 0 0 0 0 0 0 
1 0 0 3 0 0 1 0 0 1 0 0 3 0 0 2 0 0 1 0 0 0 0 0 0 0 0 1 0 0 5 0 0 2 0 0 3 0 0 2 0 0 2 0 0 3 0 0 3 0 0 2 0 0 1 0 0 2 0 0 5 0 0 8 0 0 6 0 0 6 0 0 6 0 0 6 0 0 3 0 0 7 0 0 6 0 0 6 0 0 10 0 0 5 0 0 7 0 0 12 0 0 4 0 0 4 0 0 2 0 0 5 0 0 5 0 0 5 0 0 3 0 0 5 0 0 6 0 0 6 0 0 5 0 0 3 0 0 2 0 0 1 0 0 6 0 0 1 0 0 1 0 0 3 0 0 6 0 0 1 0 0 1 0 0 1 0 0 0 0 0 0 0 0 1 0 0 0 0 0 
1 0 0 0 0 0 0 0 0 2 0 0 3 0 0 1 0 0 0 0 0 0 0 0 2 0 0 0 0 0 1 0 0 2 0 0 3 0 0 2 0 0 0 0 0 6 0 0 1 0 0 7 0 0 3 0 0 6 0 0 4 0 0 5 0 0 4 0 0 6 0 0 7 0 0 5 0 0 2 0 0 3 0 0 8 0 0 5 0 0 4 0 0 3 0 0 10 0 0 8 0 0 5 0 0 6 0 0 2 0 0 5 0 0 7 0 0 3 0 0 2 0 0 3 0 0 4 0 0 5 0 0 6 0 0 2 0 0 3 0 0 3 0 0 6 0 0 1 0 0 3 0 0 3 0 0 3 0 0 3 0 0 0 0 0 1 0 0 1 0 0 0 0 0 0 0 0 1 0 0 
0 0 0 1 0 0 1 0 0 1 0 0 0 0 0 0 0 0 0 0 0 0 0 0 2 0 0 1 0 0 1 0 0 0 0 0 4 0 0 0 0 0 0 0 0 5 0 0 4 0 0 8 0 0 2 0 0 6 0 0 2 0 0 5 0 0 6 0 0 2 0 0 6 0 0 1 0 0 0 0 0 5 0 0 6 0 0 5 0 0 6 0 0 6 0 0 9 0 0 11 0 0 3 0 0 4 0 0 3 0 0 6 0 0 6 0 0 1 0 0 2 0 0 0 0 0 3 0 0 2 0 0 3 0 0 2 0 0 5 0 0 4 0 0 4 0 0 2 0 0 1 0 0 1 0 0 4 0 0 1 0 0 2 0 0 4 0 0 5 0 0 2 0 0 0 0 0 0 0 0 
0 0 0 2 0 0 0 0 0 0 0 0 0 0 0 0 0 0 3 0 0 1 0 0 0 0 0 2 0 0 1 0 0 2 0 0 4 0 0 0 0 0 2 0 0 4 0 0 1 0 0 5 0 0 2 0 0 0 0 0 4 0 0 5 0 0 3 0 0 2 0 0 4 0 0 3 0 0 1 0 0 5 0 0 2 0 0 4 0 0 10 0 0 1 0 0 6 0 0 11 0 0 2 0 0 2 0 0 1 0 0 2 0 0 1 0 0 0 0 0 3 0 0 0 0 0 1 0 0 4 0 0 2 0 0 3 0 0 7 0 0 4 0 0 5 0 0 3 0 0 1 0 0 0 0 0 2 0 0 5 0 0 1 0 0 0 0 0 1 0 0 2 0 0 1 0 0 4 0 0 
0 0 0 0 0 0 0 0 0 1 0 0 1 0 0 2 0 0 2 0 0 0 0 0 1 0 0 1 0 0 2 0 0 1 0 0 2 0 0 1 0 0 1 0 0 4 0 0 1 0 0 0 0 0 0 0 0 0 0 0 5 0 0 4 0 0 3 0 0 2 0 0 1 0 0 0 0 0 0 0 0 1 0 0 7 0 0 3 0 0 7 0 0 3 0 0 6 0 0 6 0 0 10 0 0 2 0 0 2 0 0 2 0 0 1 0 0 2 0 0 0 0 0 1 0 0 0 0 0 2 0 0 2 0 0 2 0 0 8 0 0 4 0 0 5 0 0 2 0 0 4 0 0 2 0 0 1 0 0 4 0 0 1 0 0 0 0 0 1 0 0 2 0 0 0 0 0 0 0 0 
0 0 0 2 0 0 1 0 0 0 0 0 5 0 0 2 0 0 1 0 0 0 0 0 1 0 0 3 0 0 2 0 0 0 0 0 2 0 0 1 0 0 3 0 0 0 0 0 0 0 0 2 0 0 1 0 0 2 0 0 0 0 0 5 0 0 4 0 0 1 0 0 0 0 0 0 0 0 1 0 0 3 0 0 5 0 0 3 0 0 5 0 0 1 0 0 5 0 0 1 0 0 8 0 0 2 0 0 2 0 0 3 0 0 3 0 0 1 0 0 2 0 0 0 0 0 1 0 0 2 0 0 1 0 0 4 0 0 4 0 0 6 0 0 0 0 0 3 0 0 1 0 0 3 0 0 1 0 0 3 0 0 1 0 0 1 0 0 0 0 0 1 0 0 0 0 0 0 0 0 
