P3
# This is a dose file slice at depth 83 of 100
60 60
# now we give the maximum value of the RGB coordinates.
22407
0 0 0 0 0 0 0 0 0 0 0 0 0 0 0 0 0 0 0 0 0 0 0 0 0 0 0 0 0 0 0 0 0 0 0 0 0 0 0 0 0 0 0 0 0 0 0 0 0 0 0 0 0 0 0 0 0 0 0 0 0 0 0 0 0 0 0 0 0 0 0 0 0 0 0 0 0 0 0 0 0 0 0 0 0 0 0 0 0 0 0 0 0 0 0 0 0 0 0 0 0 0 0 0 0 0 0 0 0 0 0 0 0 0 0 0 0 0 0 0 0 0 0 0 0 0 0 0 0 0 0 0 0 0 0 0 0 0 0 0 0 0 0 0 0 0 0 0 0 0 0 0 0 0 0 0 0 0 0 0 0 0 0 0 0 0 0 0 0 0 0 0 0 0 0 0 0 0 0 0 
0 0 0 0 0 0 0 0 0 0 0 0 0 0 0 0 0 0 0 0 0 0 0 0 0 0 0 0 0 0 0 0 0 0 0 0 0 0 0 0 0 0 0 0 0 0 0 0 0 0 0 0 0 0 0 0 0 0 0 0 0 0 0 0 0 0 0 0 0 0 0 0 0 0 0 0 0 0 0 0 0 0 0 0 0 0 0 0 0 0 0 0 0 0 0 0 0 0 0 0 0 0 0 0 0 0 0 0 0 0 0 0 0 0 0 0 0 0 0 0 0 0 0 0 0 0 0 0 0 0 0 0 0 0 0 0 0 0 0 0 0 0 0 0 0 0 0 0 0 0 0 0 0 0 0 0 0 0 0 0 0 0 0 0 0 0 0 0 0 0 0 0 0 0 0 0 0 0 0 0 
0 0 0 0 0 0 0 0 0 0 0 0 0 0 0 0 0 0 0 0 0 0 0 0 0 0 0 0 0 0 0 0 0 0 0 0 0 0 0 0 0 0 0 0 0 0 0 0 0 0 0 0 0 0 0 0 0 0 0 0 0 0 0 0 0 0 0 0 0 0 0 0 0 0 0 0 0 0 0 0 0 0 0 0 0 0 0 0 0 0 0 0 0 0 0 0 0 0 0 0 0 0 0 0 0 0 0 0 0 0 0 0 0 0 0 0 0 0 0 0 0 0 0 0 0 0 0 0 0 0 0 0 0 0 0 0 0 0 0 0 0 0 0 0 0 0 0 0 0 0 0 0 0 0 0 0 0 0 0 0 0 0 0 0 0 0 0 0 0 0 0 0 0 0 0 0 0 0 0 0 
0 0 0 0 0 0 0 0 0 0 0 0 0 0 0 0 0 0 0 0 0 0 0 0 0 0 0 0 0 0 0 0 0 0 0 0 0 0 0 0 0 0 0 0 0 0 0 0 0 0 0 0 0 0 0 0 0 0 0 0 0 0 0 0 0 0 0 0 0 0 0 0 0 0 0 0 0 0 0 0 0 0 0 0 0 0 0 0 0 0 0 0 0 0 0 0 0 0 0 0 0 0 0 0 0 0 0 0 0 0 0 0 0 0 0 0 0 0 0 0 0 0 0 0 0 0 0 0 0 0 0 0 0 0 0 0 0 0 0 0 0 0 0 0 0 0 0 0 0 0 0 0 0 0 0 0 0 0 0 0 0 0 0 0 0 0 0 0 0 0 0 0 0 0 0 0 0 0 0 0 
0 0 0 0 0 0 0 0 0 0 0 0 0 0 0 0 0 0 0 0 0 0 0 0 0 0 0 0 0 0 0 0 0 0 0 0 0 0 0 0 0 0 0 0 0 0 0 0 0 0 0 0 0 0 0 0 0 0 0 0 0 0 0 0 0 0 0 0 0 0 0 0 0 0 0 0 0 0 0 0 0 0 0 0 0 0 0 0 0 0 0 0 0 0 0 0 0 0 0 0 0 0 0 0 0 0 0 0 0 0 0 0 0 0 0 0 0 0 0 0 0 0 0 0 0 0 0 0 0 0 0 0 0 0 0 0 0 0 0 0 0 0 0 0 0 0 0 0 0 0 0 0 0 0 0 0 0 0 0 0 0 0 0 0 0 0 0 0 0 0 0 0 0 0 0 0 0 0 0 0 
0 0 0 0 0 0 0 0 0 0 0 0 0 0 0 0 0 0 0 0 0 0 0 0 0 0 0 0 0 0 0 0 0 0 0 0 0 0 0 0 0 0 0 0 0 0 0 0 0 0 0 0 0 0 0 0 0 0 0 0 0 0 0 0 0 0 0 0 0 0 0 0 0 0 0 0 0 0 0 0 0 0 0 0 0 0 0 0 0 0 0 0 0 0 0 0 0 0 0 0 0 0 0 0 0 0 0 0 0 0 0 0 0 0 0 0 0 0 0 0 0 0 0 0 0 0 0 0 0 0 0 0 0 0 0 0 0 0 0 0 0 0 0 0 0 0 0 0 0 0 0 0 0 0 0 0 0 0 0 0 0 0 0 0 0 0 0 0 0 0 0 0 0 0 0 0 0 0 0 0 
0 0 0 0 0 0 0 0 0 0 0 0 0 0 0 0 0 0 0 0 0 0 0 0 0 0 0 0 0 0 0 0 0 0 0 0 0 0 0 0 0 0 0 0 0 0 0 0 0 0 0 0 0 0 0 0 0 0 0 0 0 0 0 0 0 0 0 0 0 0 0 0 0 0 0 0 0 0 0 0 0 0 0 0 0 0 0 0 0 0 0 0 0 0 0 0 0 0 0 0 0 0 0 0 0 0 0 0 0 0 0 0 0 0 0 0 0 0 0 0 0 0 0 0 0 0 0 0 0 0 0 0 0 0 0 0 0 0 0 0 0 0 0 0 0 0 0 0 0 0 0 0 0 0 0 0 0 0 0 0 0 0 0 0 0 0 0 0 0 0 0 0 0 0 0 0 0 0 0 0 
0 0 0 0 0 0 0 0 0 0 0 0 0 0 0 0 0 0 0 0 0 0 0 0 0 0 0 0 0 0 0 0 0 0 0 0 0 0 0 0 0 0 0 0 0 0 0 0 0 0 0 0 0 0 0 0 0 0 0 0 0 0 0 0 0 0 0 0 0 0 0 0 0 0 0 0 0 0 0 0 0 0 0 0 0 0 0 0 0 0 0 0 0 0 0 0 0 0 0 0 0 0 0 0 0 0 0 0 0 0 0 0 0 0 0 0 0 0 0 0 0 0 0 0 0 0 0 0 0 0 0 0 0 0 0 0 0 0 0 0 0 0 0 0 0 0 0 0 0 0 0 0 0 0 0 0 0 0 0 0 0 0 0 0 0 0 0 0 0 0 0 0 0 0 0 0 0 0 0 0 
0 0 0 0 0 0 0 0 0 0 0 0 0 0 0 0 0 0 0 0 0 0 0 0 0 0 0 0 0 0 0 0 0 0 0 0 0 0 0 0 0 0 0 0 0 0 0 0 0 0 0 0 0 0 0 0 0 0 0 0 0 0 0 0 0 0 0 0 0 0 0 0 0 0 0 0 0 0 0 0 0 0 0 0 0 0 0 0 0 0 0 0 0 0 0 0 0 0 0 0 0 0 0 0 0 0 0 0 0 0 0 0 0 0 0 0 0 0 0 0 0 0 0 0 0 0 0 0 0 0 0 0 0 0 0 0 0 0 0 0 0 0 0 0 0 0 0 0 0 0 0 0 0 0 0 0 0 0 0 0 0 0 0 0 0 0 0 0 0 0 0 0 0 0 0 0 0 0 0 0 
0 0 0 0 0 0 0 0 0 0 0 0 0 0 0 0 0 0 0 0 0 0 0 0 0 0 0 0 0 0 0 0 0 0 0 0 0 0 0 0 0 0 0 0 0 0 0 0 0 0 0 0 0 0 0 0 0 0 0 0 0 0 0 0 0 0 0 0 0 0 0 0 0 0 0 0 0 0 0 0 0 0 0 0 0 0 0 0 0 0 0 0 0 0 0 0 0 0 0 0 0 0 0 0 0 0 0 0 0 0 0 0 0 0 0 0 0 0 0 0 0 0 0 0 0 0 0 0 0 0 0 0 0 0 0 0 0 0 0 0 0 0 0 0 0 0 0 0 0 0 0 0 0 0 0 0 0 0 0 0 0 0 0 0 0 0 0 0 0 0 0 0 0 0 0 0 0 0 0 0 
0 0 0 0 0 0 0 0 0 0 0 0 0 0 0 0 0 0 0 0 0 0 0 0 0 0 0 0 0 0 539 0 0 1041 0 0 1130 0 0 1103 0 0 1053 0 0 1062 0 0 1069 0 0 1093 0 0 1081 0 0 1135 0 0 1063 0 0 1083 0 0 1084 0 0 1048 0 0 1063 0 0 990 0 0 1078 0 0 1074 0 0 1108 0 0 1034 0 0 1058 0 0 1091 0 0 1072 0 0 1059 0 0 1077 0 0 1108 0 0 1192 0 0 1085 0 0 1062 0 0 1094 0 0 1022 0 0 1093 0 0 1107 0 0 1104 0 0 1047 0 0 1106 0 0 1097 0 0 1020 0 0 1032 0 0 1044 0 0 523 0 0 0 0 0 0 0 0 0 0 0 0 0 0 0 0 0 0 0 0 0 0 0 0 0 0 0 0 0 
0 0 0 0 0 0 0 0 0 0 0 0 0 0 0 0 0 0 0 0 0 0 0 0 0 0 0 0 0 0 1035 0 0 2149 0 0 2180 0 0 2151 0 0 2205 0 0 2125 0 0 2179 0 0 2143 0 0 2148 0 0 2140 0 0 2150 0 0 2130 0 0 2160 0 0 2175 0 0 2170 0 0 2199 0 0 2199 0 0 2125 0 0 2208 0 0 2167 0 0 2196 0 0 2100 0 0 2132 0 0 2072 0 0 2088 0 0 2029 0 0 2189 0 0 2159 0 0 2125 0 0 2083 0 0 2171 0 0 2130 0 0 2276 0 0 2170 0 0 2140 0 0 2166 0 0 2177 0 0 2081 0 0 2144 0 0 2153 0 0 1069 0 0 0 0 0 0 0 0 0 0 0 0 0 0 0 0 0 0 0 0 0 0 0 0 0 0 0 0 0 
0 0 0 0 0 0 0 0 0 0 0 0 0 0 0 0 0 0 0 0 0 0 0 0 0 0 0 0 0 0 1057 0 0 2166 0 0 2161 0 0 2157 0 0 2139 0 0 2136 0 0 2108 0 0 2110 0 0 2088 0 0 2257 0 0 2214 0 0 2205 0 0 2117 0 0 2147 0 0 2109 0 0 2256 0 0 2024 0 0 2150 0 0 2148 0 0 2235 0 0 2122 0 0 2097 0 0 2126 0 0 2083 0 0 2112 0 0 2173 0 0 2257 0 0 2098 0 0 2202 0 0 2151 0 0 2166 0 0 2146 0 0 2170 0 0 2202 0 0 2233 0 0 2133 0 0 2206 0 0 2104 0 0 2120 0 0 2160 0 0 1064 0 0 0 0 0 0 0 0 0 0 0 0 0 0 0 0 0 0 0 0 0 0 0 0 0 0 0 0 0 
0 0 0 0 0 0 0 0 0 0 0 0 0 0 0 0 0 0 0 0 0 0 0 0 0 0 0 0 0 0 985 0 0 2114 0 0 2204 0 0 2187 0 0 2203 0 0 2193 0 0 2128 0 0 2179 0 0 2137 0 0 2114 0 0 2154 0 0 2122 0 0 2134 0 0 2098 0 0 2176 0 0 2150 0 0 2156 0 0 2215 0 0 2106 0 0 2260 0 0 2159 0 0 2191 0 0 2204 0 0 2149 0 0 2024 0 0 2168 0 0 2230 0 0 2050 0 0 2152 0 0 2162 0 0 2107 0 0 2141 0 0 2132 0 0 2168 0 0 2123 0 0 2140 0 0 2201 0 0 2155 0 0 2159 0 0 2168 0 0 1094 0 0 0 0 0 0 0 0 0 0 0 0 0 0 0 0 0 0 0 0 0 0 0 0 0 0 0 0 0 
0 0 0 0 0 0 0 0 0 0 0 0 0 0 0 0 0 0 0 0 0 0 0 0 0 0 0 0 0 0 1095 0 0 2209 0 0 2146 0 0 2144 0 0 2166 0 0 2227 0 0 2182 0 0 2122 0 0 2164 0 0 2124 0 0 2192 0 0 2175 0 0 2132 0 0 2191 0 0 2111 0 0 2165 0 0 2214 0 0 2084 0 0 2151 0 0 2171 0 0 2151 0 0 2144 0 0 2188 0 0 2220 0 0 2244 0 0 2196 0 0 2171 0 0 2183 0 0 2118 0 0 2188 0 0 2156 0 0 2209 0 0 2120 0 0 2168 0 0 2217 0 0 2172 0 0 2062 0 0 2179 0 0 2144 0 0 2151 0 0 1044 0 0 0 0 0 0 0 0 0 0 0 0 0 0 0 0 0 0 0 0 0 0 0 0 0 0 0 0 0 
0 0 0 0 0 0 0 0 0 0 0 0 0 0 0 0 0 0 0 0 0 0 0 0 0 0 0 0 0 0 1061 0 0 2108 0 0 2078 0 0 2157 0 0 2190 0 0 2213 0 0 2053 0 0 2158 0 0 2148 0 0 2192 0 0 2109 0 0 2113 0 0 2133 0 0 2235 0 0 2248 0 0 2145 0 0 2195 0 0 2109 0 0 2160 0 0 2119 0 0 2222 0 0 2165 0 0 2179 0 0 2077 0 0 2143 0 0 2138 0 0 2235 0 0 2108 0 0 2102 0 0 2202 0 0 2169 0 0 2139 0 0 2069 0 0 2140 0 0 2195 0 0 2205 0 0 2164 0 0 2070 0 0 2174 0 0 2121 0 0 1045 0 0 0 0 0 0 0 0 0 0 0 0 0 0 0 0 0 0 0 0 0 0 0 0 0 0 0 0 0 
0 0 0 0 0 0 0 0 0 0 0 0 0 0 0 0 0 0 0 0 0 0 0 0 0 0 0 0 0 0 1103 0 0 2158 0 0 2165 0 0 2150 0 0 2129 0 0 2196 0 0 2141 0 0 2180 0 0 2126 0 0 2147 0 0 2107 0 0 2270 0 0 2226 0 0 2160 0 0 2172 0 0 2210 0 0 2129 0 0 2115 0 0 2235 0 0 2135 0 0 2150 0 0 2186 0 0 2149 0 0 2162 0 0 2216 0 0 2179 0 0 2167 0 0 2170 0 0 2180 0 0 2041 0 0 2262 0 0 2228 0 0 2131 0 0 2144 0 0 2181 0 0 2178 0 0 2138 0 0 2116 0 0 2236 0 0 2177 0 0 1078 0 0 0 0 0 0 0 0 0 0 0 0 0 0 0 0 0 0 0 0 0 0 0 0 0 0 0 0 0 
0 0 0 0 0 0 0 0 0 0 0 0 0 0 0 0 0 0 0 0 0 0 0 0 0 0 0 0 0 0 1137 0 0 2142 0 0 2080 0 0 2178 0 0 2170 0 0 2157 0 0 2176 0 0 2161 0 0 2110 0 0 2183 0 0 2125 0 0 2140 0 0 2194 0 0 2168 0 0 2211 0 0 2171 0 0 2127 0 0 2161 0 0 2102 0 0 2117 0 0 2127 0 0 2245 0 0 2114 0 0 2200 0 0 2085 0 0 2239 0 0 2236 0 0 2129 0 0 2216 0 0 2237 0 0 2119 0 0 2165 0 0 2216 0 0 2219 0 0 2137 0 0 2156 0 0 2212 0 0 2081 0 0 2129 0 0 2170 0 0 1097 0 0 0 0 0 0 0 0 0 0 0 0 0 0 0 0 0 0 0 0 0 0 0 0 0 0 0 0 0 
0 0 0 0 0 0 0 0 0 0 0 0 0 0 0 0 0 0 0 0 0 0 0 0 0 0 0 0 0 0 1057 0 0 2098 0 0 2127 0 0 2152 0 0 2117 0 0 2083 0 0 2120 0 0 2223 0 0 2141 0 0 2196 0 0 2251 0 0 2145 0 0 2150 0 0 2118 0 0 2101 0 0 2243 0 0 2217 0 0 2197 0 0 2190 0 0 2084 0 0 2226 0 0 2166 0 0 2200 0 0 2135 0 0 2079 0 0 2088 0 0 2219 0 0 2053 0 0 2156 0 0 2184 0 0 2186 0 0 2255 0 0 2189 0 0 2175 0 0 2155 0 0 2212 0 0 2098 0 0 2132 0 0 2087 0 0 2117 0 0 1018 0 0 0 0 0 0 0 0 0 0 0 0 0 0 0 0 0 0 0 0 0 0 0 0 0 0 0 0 0 
0 0 0 0 0 0 0 0 0 0 0 0 0 0 0 0 0 0 0 0 0 0 0 0 0 0 0 0 0 0 1051 0 0 2130 0 0 2231 0 0 2161 0 0 2205 0 0 2207 0 0 2103 0 0 2150 0 0 2172 0 0 2145 0 0 2107 0 0 2211 0 0 2224 0 0 2127 0 0 2119 0 0 2186 0 0 2145 0 0 2182 0 0 2128 0 0 2138 0 0 2176 0 0 2118 0 0 2085 0 0 2183 0 0 2173 0 0 2092 0 0 2157 0 0 2127 0 0 2201 0 0 2165 0 0 2109 0 0 2130 0 0 2168 0 0 2083 0 0 2231 0 0 2200 0 0 2113 0 0 2024 0 0 2186 0 0 2183 0 0 1122 0 0 0 0 0 0 0 0 0 0 0 0 0 0 0 0 0 0 0 0 0 0 0 0 0 0 0 0 0 
0 0 0 0 0 0 0 0 0 0 0 0 0 0 0 0 0 0 0 0 0 0 0 0 0 0 0 0 0 0 1068 0 0 2162 0 0 2160 0 0 2127 0 0 2185 0 0 2192 0 0 2195 0 0 2224 0 0 2156 0 0 2195 0 0 2158 0 0 2092 0 0 2129 0 0 2167 0 0 2232 0 0 2170 0 0 2161 0 0 2121 0 0 2169 0 0 2161 0 0 2081 0 0 2153 0 0 2081 0 0 2182 0 0 2278 0 0 2200 0 0 2196 0 0 2144 0 0 2234 0 0 2105 0 0 2206 0 0 2133 0 0 2160 0 0 2142 0 0 2213 0 0 2144 0 0 2188 0 0 2169 0 0 2105 0 0 2139 0 0 1058 0 0 0 0 0 0 0 0 0 0 0 0 0 0 0 0 0 0 0 0 0 0 0 0 0 0 0 0 0 
0 0 0 0 0 0 0 0 0 0 0 0 0 0 0 0 0 0 0 0 0 0 0 0 0 0 0 0 0 0 1003 0 0 2144 0 0 2161 0 0 2137 0 0 2157 0 0 2170 0 0 2210 0 0 2199 0 0 2157 0 0 2136 0 0 2145 0 0 2120 0 0 2203 0 0 2119 0 0 2124 0 0 2192 0 0 2109 0 0 2155 0 0 2171 0 0 2167 0 0 2192 0 0 2161 0 0 2138 0 0 2132 0 0 2161 0 0 2140 0 0 2171 0 0 2161 0 0 2181 0 0 2148 0 0 2192 0 0 2216 0 0 2197 0 0 2181 0 0 2093 0 0 2113 0 0 2149 0 0 2132 0 0 2238 0 0 2209 0 0 1093 0 0 0 0 0 0 0 0 0 0 0 0 0 0 0 0 0 0 0 0 0 0 0 0 0 0 0 0 0 
0 0 0 0 0 0 0 0 0 0 0 0 0 0 0 0 0 0 0 0 0 0 0 0 0 0 0 0 0 0 949 0 0 2168 0 0 2095 0 0 2150 0 0 2125 0 0 2118 0 0 2144 0 0 2163 0 0 2179 0 0 2116 0 0 2169 0 0 2169 0 0 2115 0 0 2148 0 0 2117 0 0 2196 0 0 2142 0 0 2120 0 0 2174 0 0 2122 0 0 2176 0 0 2147 0 0 2126 0 0 2154 0 0 2161 0 0 2190 0 0 2146 0 0 2162 0 0 2101 0 0 2167 0 0 2237 0 0 2142 0 0 2231 0 0 2231 0 0 2150 0 0 2092 0 0 2103 0 0 2174 0 0 2194 0 0 2222 0 0 1149 0 0 0 0 0 0 0 0 0 0 0 0 0 0 0 0 0 0 0 0 0 0 0 0 0 0 0 0 0 
0 0 0 0 0 0 0 0 0 0 0 0 0 0 0 0 0 0 0 0 0 0 0 0 0 0 0 0 0 0 1094 0 0 2231 0 0 2178 0 0 2211 0 0 2051 0 0 2112 0 0 2204 0 0 2109 0 0 2161 0 0 2063 0 0 2183 0 0 2161 0 0 2111 0 0 2149 0 0 2188 0 0 2161 0 0 2151 0 0 2164 0 0 2182 0 0 2232 0 0 2174 0 0 2163 0 0 2110 0 0 2159 0 0 2097 0 0 2192 0 0 2151 0 0 2181 0 0 2117 0 0 2176 0 0 2202 0 0 2143 0 0 2249 0 0 2182 0 0 2261 0 0 2190 0 0 2203 0 0 2144 0 0 2083 0 0 2157 0 0 1075 0 0 0 0 0 0 0 0 0 0 0 0 0 0 0 0 0 0 0 0 0 0 0 0 0 0 0 0 0 
0 0 0 0 0 0 0 0 0 0 0 0 0 0 0 0 0 0 0 0 0 0 0 0 0 0 0 0 0 0 1071 0 0 2203 0 0 2119 0 0 2135 0 0 2180 0 0 2155 0 0 2177 0 0 2200 0 0 2115 0 0 2129 0 0 2199 0 0 2154 0 0 2205 0 0 2256 0 0 2255 0 0 2127 0 0 2213 0 0 2112 0 0 2173 0 0 2115 0 0 2192 0 0 2107 0 0 2179 0 0 2208 0 0 2153 0 0 2072 0 0 2227 0 0 2163 0 0 2096 0 0 2191 0 0 2102 0 0 2103 0 0 2113 0 0 2259 0 0 2117 0 0 2159 0 0 2162 0 0 2144 0 0 2222 0 0 2179 0 0 1079 0 0 0 0 0 0 0 0 0 0 0 0 0 0 0 0 0 0 0 0 0 0 0 0 0 0 0 0 0 
0 0 0 0 0 0 0 0 0 0 0 0 0 0 0 0 0 0 0 0 0 0 0 0 0 0 0 0 0 0 1038 0 0 2099 0 0 2083 0 0 2137 0 0 2163 0 0 2199 0 0 2182 0 0 2216 0 0 2172 0 0 2121 0 0 2131 0 0 2124 0 0 2092 0 0 2197 0 0 2154 0 0 2097 0 0 2156 0 0 2261 0 0 2226 0 0 2133 0 0 2189 0 0 2139 0 0 2132 0 0 2221 0 0 2079 0 0 2217 0 0 2179 0 0 2177 0 0 2174 0 0 2097 0 0 2212 0 0 2058 0 0 2197 0 0 2116 0 0 2163 0 0 2193 0 0 2156 0 0 2130 0 0 2130 0 0 2180 0 0 1093 0 0 0 0 0 0 0 0 0 0 0 0 0 0 0 0 0 0 0 0 0 0 0 0 0 0 0 0 0 
0 0 0 0 0 0 0 0 0 0 0 0 0 0 0 0 0 0 0 0 0 0 0 0 0 0 0 0 0 0 1095 0 0 2164 0 0 2172 0 0 2198 0 0 2113 0 0 2115 0 0 2183 0 0 2139 0 0 2182 0 0 2212 0 0 2148 0 0 2102 0 0 2223 0 0 2141 0 0 2250 0 0 2125 0 0 2253 0 0 2035 0 0 2213 0 0 2161 0 0 2170 0 0 2211 0 0 2157 0 0 2172 0 0 2181 0 0 2136 0 0 2190 0 0 2089 0 0 2112 0 0 2194 0 0 2110 0 0 2183 0 0 2153 0 0 2101 0 0 2111 0 0 2138 0 0 2207 0 0 2109 0 0 2180 0 0 2188 0 0 1059 0 0 0 0 0 0 0 0 0 0 0 0 0 0 0 0 0 0 0 0 0 0 0 0 0 0 0 0 0 
0 0 0 0 0 0 0 0 0 0 0 0 0 0 0 0 0 0 0 0 0 0 0 0 0 0 0 0 0 0 1087 0 0 2137 0 0 2183 0 0 2165 0 0 2149 0 0 2137 0 0 2210 0 0 2099 0 0 2131 0 0 2229 0 0 2168 0 0 2206 0 0 2063 0 0 2226 0 0 2253 0 0 2200 0 0 2170 0 0 2103 0 0 2153 0 0 2067 0 0 2173 0 0 2188 0 0 2218 0 0 2137 0 0 2241 0 0 2148 0 0 2266 0 0 2160 0 0 2219 0 0 2182 0 0 2172 0 0 2143 0 0 2155 0 0 2172 0 0 2083 0 0 2134 0 0 2186 0 0 2194 0 0 2156 0 0 2178 0 0 1062 0 0 0 0 0 0 0 0 0 0 0 0 0 0 0 0 0 0 0 0 0 0 0 0 0 0 0 0 0 
0 0 0 0 0 0 0 0 0 0 0 0 0 0 0 0 0 0 0 0 0 0 0 0 0 0 0 0 0 0 1068 0 0 2201 0 0 2139 0 0 2188 0 0 2162 0 0 2192 0 0 2129 0 0 2137 0 0 2222 0 0 2177 0 0 2190 0 0 2212 0 0 2113 0 0 2137 0 0 2137 0 0 2135 0 0 2173 0 0 2154 0 0 2170 0 0 2141 0 0 2248 0 0 2147 0 0 2156 0 0 2220 0 0 2123 0 0 2189 0 0 2170 0 0 2220 0 0 2171 0 0 2168 0 0 2138 0 0 2169 0 0 2092 0 0 2192 0 0 2159 0 0 2176 0 0 2143 0 0 2134 0 0 2113 0 0 2204 0 0 1070 0 0 0 0 0 0 0 0 0 0 0 0 0 0 0 0 0 0 0 0 0 0 0 0 0 0 0 0 0 
0 0 0 0 0 0 0 0 0 0 0 0 0 0 0 0 0 0 0 0 0 0 0 0 0 0 0 0 0 0 1093 0 0 2182 0 0 2071 0 0 2136 0 0 2140 0 0 2110 0 0 2144 0 0 2114 0 0 2177 0 0 2144 0 0 2166 0 0 2094 0 0 2092 0 0 2076 0 0 2146 0 0 2146 0 0 2123 0 0 2212 0 0 2178 0 0 2139 0 0 2079 0 0 2153 0 0 2170 0 0 2201 0 0 2112 0 0 2147 0 0 2152 0 0 2164 0 0 2223 0 0 2097 0 0 2227 0 0 2229 0 0 2173 0 0 2197 0 0 2161 0 0 2193 0 0 2154 0 0 2152 0 0 2179 0 0 2224 0 0 1068 0 0 0 0 0 0 0 0 0 0 0 0 0 0 0 0 0 0 0 0 0 0 0 0 0 0 0 0 0 
0 0 0 0 0 0 0 0 0 0 0 0 0 0 0 0 0 0 0 0 0 0 0 0 0 0 0 0 0 0 1077 0 0 2140 0 0 2099 0 0 2164 0 0 2114 0 0 2179 0 0 2191 0 0 2100 0 0 2082 0 0 2079 0 0 2198 0 0 2174 0 0 2213 0 0 2166 0 0 2154 0 0 2170 0 0 2113 0 0 2220 0 0 2090 0 0 2182 0 0 2152 0 0 2175 0 0 2200 0 0 2245 0 0 2230 0 0 2114 0 0 2098 0 0 2105 0 0 2154 0 0 2068 0 0 2176 0 0 2167 0 0 2177 0 0 2127 0 0 2131 0 0 2242 0 0 2222 0 0 2176 0 0 2196 0 0 2167 0 0 1093 0 0 0 0 0 0 0 0 0 0 0 0 0 0 0 0 0 0 0 0 0 0 0 0 0 0 0 0 0 
0 0 0 0 0 0 0 0 0 0 0 0 0 0 0 0 0 0 0 0 0 0 0 0 0 0 0 0 0 0 1052 0 0 2204 0 0 2098 0 0 2050 0 0 2175 0 0 2119 0 0 2206 0 0 2022 0 0 2144 0 0 2190 0 0 2273 0 0 2133 0 0 2196 0 0 2059 0 0 2173 0 0 2124 0 0 2169 0 0 2201 0 0 2158 0 0 2165 0 0 2142 0 0 2166 0 0 2269 0 0 2125 0 0 2136 0 0 2122 0 0 2195 0 0 2174 0 0 2234 0 0 2112 0 0 2073 0 0 2103 0 0 2129 0 0 2146 0 0 2182 0 0 2152 0 0 2176 0 0 2193 0 0 2200 0 0 2186 0 0 1096 0 0 0 0 0 0 0 0 0 0 0 0 0 0 0 0 0 0 0 0 0 0 0 0 0 0 0 0 0 
0 0 0 0 0 0 0 0 0 0 0 0 0 0 0 0 0 0 0 0 0 0 0 0 0 0 0 0 0 0 1095 0 0 2057 0 0 2174 0 0 2196 0 0 2196 0 0 2120 0 0 2158 0 0 2090 0 0 2184 0 0 2213 0 0 2155 0 0 2140 0 0 2245 0 0 2180 0 0 2106 0 0 2152 0 0 2234 0 0 2129 0 0 2155 0 0 2173 0 0 2175 0 0 2133 0 0 2129 0 0 2158 0 0 2030 0 0 2094 0 0 2176 0 0 2171 0 0 2103 0 0 2142 0 0 2126 0 0 2180 0 0 2146 0 0 2214 0 0 2107 0 0 2138 0 0 2120 0 0 2146 0 0 2195 0 0 2265 0 0 1063 0 0 0 0 0 0 0 0 0 0 0 0 0 0 0 0 0 0 0 0 0 0 0 0 0 0 0 0 0 
0 0 0 0 0 0 0 0 0 0 0 0 0 0 0 0 0 0 0 0 0 0 0 0 0 0 0 0 0 0 1110 0 0 2211 0 0 2164 0 0 2125 0 0 2112 0 0 2225 0 0 2141 0 0 2153 0 0 2136 0 0 2167 0 0 2144 0 0 2136 0 0 2203 0 0 2112 0 0 2159 0 0 2143 0 0 2171 0 0 2169 0 0 2133 0 0 2094 0 0 2188 0 0 2067 0 0 2113 0 0 2195 0 0 2148 0 0 2139 0 0 2094 0 0 2154 0 0 2021 0 0 2181 0 0 2116 0 0 2150 0 0 2188 0 0 2171 0 0 2162 0 0 2195 0 0 2166 0 0 2117 0 0 2260 0 0 2113 0 0 1117 0 0 0 0 0 0 0 0 0 0 0 0 0 0 0 0 0 0 0 0 0 0 0 0 0 0 0 0 0 
0 0 0 0 0 0 0 0 0 0 0 0 0 0 0 0 0 0 0 0 0 0 0 0 0 0 0 0 0 0 1058 0 0 2138 0 0 2135 0 0 2083 0 0 2098 0 0 2186 0 0 2173 0 0 2138 0 0 2207 0 0 2129 0 0 2122 0 0 2094 0 0 2287 0 0 2158 0 0 2175 0 0 2184 0 0 2307 0 0 2166 0 0 2154 0 0 2173 0 0 2203 0 0 2217 0 0 2163 0 0 2162 0 0 2014 0 0 2142 0 0 2134 0 0 2154 0 0 2165 0 0 2168 0 0 2100 0 0 2186 0 0 2164 0 0 2178 0 0 2140 0 0 2156 0 0 2119 0 0 2165 0 0 2190 0 0 2171 0 0 1114 0 0 0 0 0 0 0 0 0 0 0 0 0 0 0 0 0 0 0 0 0 0 0 0 0 0 0 0 0 
0 0 0 0 0 0 0 0 0 0 0 0 0 0 0 0 0 0 0 0 0 0 0 0 0 0 0 0 0 0 994 0 0 2155 0 0 2152 0 0 2209 0 0 2227 0 0 2130 0 0 2175 0 0 2197 0 0 2207 0 0 2148 0 0 2155 0 0 2118 0 0 2182 0 0 2117 0 0 2153 0 0 2140 0 0 2125 0 0 2149 0 0 2230 0 0 2149 0 0 2097 0 0 2151 0 0 2241 0 0 2163 0 0 2148 0 0 2188 0 0 2160 0 0 2166 0 0 2088 0 0 2190 0 0 2221 0 0 2158 0 0 2157 0 0 2177 0 0 2223 0 0 2088 0 0 2213 0 0 2238 0 0 2222 0 0 2186 0 0 1011 0 0 0 0 0 0 0 0 0 0 0 0 0 0 0 0 0 0 0 0 0 0 0 0 0 0 0 0 0 
0 0 0 0 0 0 0 0 0 0 0 0 0 0 0 0 0 0 0 0 0 0 0 0 0 0 0 0 0 0 1165 0 0 2140 0 0 2143 0 0 2227 0 0 2090 0 0 2142 0 0 2223 0 0 2237 0 0 2112 0 0 2101 0 0 2184 0 0 2133 0 0 2149 0 0 2096 0 0 2216 0 0 2120 0 0 2241 0 0 2132 0 0 2151 0 0 2183 0 0 2082 0 0 2178 0 0 2170 0 0 2082 0 0 2108 0 0 2174 0 0 2160 0 0 2177 0 0 2191 0 0 2204 0 0 2110 0 0 2125 0 0 2092 0 0 2191 0 0 2044 0 0 2325 0 0 2133 0 0 2142 0 0 2167 0 0 2128 0 0 1074 0 0 0 0 0 0 0 0 0 0 0 0 0 0 0 0 0 0 0 0 0 0 0 0 0 0 0 0 0 
0 0 0 0 0 0 0 0 0 0 0 0 0 0 0 0 0 0 0 0 0 0 0 0 0 0 0 0 0 0 1097 0 0 2220 0 0 2194 0 0 2184 0 0 2124 0 0 2175 0 0 2085 0 0 2065 0 0 2203 0 0 2188 0 0 2225 0 0 2162 0 0 2176 0 0 2148 0 0 2155 0 0 2188 0 0 2232 0 0 2166 0 0 2109 0 0 2131 0 0 2179 0 0 2197 0 0 2197 0 0 2093 0 0 2196 0 0 2116 0 0 2139 0 0 2118 0 0 2104 0 0 2200 0 0 2110 0 0 2137 0 0 2171 0 0 2067 0 0 2202 0 0 2166 0 0 2162 0 0 2101 0 0 2145 0 0 2114 0 0 1103 0 0 0 0 0 0 0 0 0 0 0 0 0 0 0 0 0 0 0 0 0 0 0 0 0 0 0 0 0 
0 0 0 0 0 0 0 0 0 0 0 0 0 0 0 0 0 0 0 0 0 0 0 0 0 0 0 0 0 0 1064 0 0 2160 0 0 2122 0 0 2225 0 0 2196 0 0 2318 0 0 2144 0 0 2184 0 0 2055 0 0 2159 0 0 2121 0 0 2191 0 0 2084 0 0 2157 0 0 2170 0 0 2147 0 0 2152 0 0 2084 0 0 2136 0 0 2159 0 0 2146 0 0 2132 0 0 2126 0 0 2136 0 0 2182 0 0 2160 0 0 2171 0 0 2162 0 0 2198 0 0 2162 0 0 2163 0 0 2170 0 0 2090 0 0 2205 0 0 2206 0 0 2147 0 0 2154 0 0 2203 0 0 2143 0 0 2147 0 0 1116 0 0 0 0 0 0 0 0 0 0 0 0 0 0 0 0 0 0 0 0 0 0 0 0 0 0 0 0 0 
0 0 0 0 0 0 0 0 0 0 0 0 0 0 0 0 0 0 0 0 0 0 0 0 0 0 0 0 0 0 1081 0 0 2093 0 0 2169 0 0 2117 0 0 2143 0 0 2075 0 0 2121 0 0 2225 0 0 2138 0 0 2103 0 0 2183 0 0 2161 0 0 2231 0 0 2198 0 0 2173 0 0 2154 0 0 2137 0 0 2209 0 0 2068 0 0 2146 0 0 2191 0 0 2129 0 0 2201 0 0 2084 0 0 2190 0 0 2158 0 0 2168 0 0 2155 0 0 2214 0 0 2129 0 0 2183 0 0 2175 0 0 2219 0 0 2208 0 0 2062 0 0 2150 0 0 2173 0 0 2171 0 0 2119 0 0 2093 0 0 1097 0 0 0 0 0 0 0 0 0 0 0 0 0 0 0 0 0 0 0 0 0 0 0 0 0 0 0 0 0 
0 0 0 0 0 0 0 0 0 0 0 0 0 0 0 0 0 0 0 0 0 0 0 0 0 0 0 0 0 0 1076 0 0 2138 0 0 2105 0 0 2139 0 0 2199 0 0 2136 0 0 2313 0 0 2161 0 0 2194 0 0 2104 0 0 2146 0 0 2148 0 0 2133 0 0 2173 0 0 2182 0 0 2178 0 0 2202 0 0 2204 0 0 2159 0 0 2215 0 0 2208 0 0 2182 0 0 2238 0 0 2179 0 0 2128 0 0 2160 0 0 2075 0 0 2180 0 0 2251 0 0 2156 0 0 2202 0 0 2145 0 0 2113 0 0 2136 0 0 2186 0 0 2179 0 0 2099 0 0 2143 0 0 2230 0 0 2147 0 0 1134 0 0 0 0 0 0 0 0 0 0 0 0 0 0 0 0 0 0 0 0 0 0 0 0 0 0 0 0 0 
0 0 0 0 0 0 0 0 0 0 0 0 0 0 0 0 0 0 0 0 0 0 0 0 0 0 0 0 0 0 1084 0 0 2200 0 0 2105 0 0 2145 0 0 2195 0 0 2190 0 0 2181 0 0 2222 0 0 2262 0 0 2138 0 0 2088 0 0 2144 0 0 2125 0 0 2188 0 0 2223 0 0 2195 0 0 2136 0 0 2131 0 0 2194 0 0 2182 0 0 2069 0 0 2239 0 0 2177 0 0 2124 0 0 2134 0 0 2088 0 0 2140 0 0 2134 0 0 2100 0 0 2057 0 0 2167 0 0 2255 0 0 2256 0 0 2106 0 0 2198 0 0 2086 0 0 2239 0 0 2132 0 0 2161 0 0 2073 0 0 1104 0 0 0 0 0 0 0 0 0 0 0 0 0 0 0 0 0 0 0 0 0 0 0 0 0 0 0 0 0 
0 0 0 0 0 0 0 0 0 0 0 0 0 0 0 0 0 0 0 0 0 0 0 0 0 0 0 0 0 0 1065 0 0 2111 0 0 2285 0 0 2152 0 0 2237 0 0 2235 0 0 2132 0 0 2190 0 0 2155 0 0 2145 0 0 2157 0 0 2158 0 0 2151 0 0 2189 0 0 2180 0 0 2195 0 0 2254 0 0 2090 0 0 2206 0 0 2107 0 0 2114 0 0 2117 0 0 2134 0 0 2125 0 0 2196 0 0 2222 0 0 2136 0 0 2102 0 0 2097 0 0 2148 0 0 2173 0 0 2224 0 0 2211 0 0 2217 0 0 2182 0 0 2223 0 0 2123 0 0 2201 0 0 2156 0 0 2163 0 0 1083 0 0 0 0 0 0 0 0 0 0 0 0 0 0 0 0 0 0 0 0 0 0 0 0 0 0 0 0 0 
0 0 0 0 0 0 0 0 0 0 0 0 0 0 0 0 0 0 0 0 0 0 0 0 0 0 0 0 0 0 1174 0 0 2216 0 0 2194 0 0 2143 0 0 2102 0 0 2134 0 0 2165 0 0 2160 0 0 2161 0 0 2196 0 0 2129 0 0 2115 0 0 2234 0 0 2112 0 0 2219 0 0 2122 0 0 2080 0 0 2102 0 0 2091 0 0 2124 0 0 2183 0 0 2179 0 0 2178 0 0 2175 0 0 2095 0 0 2184 0 0 2104 0 0 2101 0 0 2069 0 0 2136 0 0 2169 0 0 2214 0 0 2207 0 0 2131 0 0 2108 0 0 2089 0 0 2162 0 0 2135 0 0 2203 0 0 2228 0 0 1084 0 0 0 0 0 0 0 0 0 0 0 0 0 0 0 0 0 0 0 0 0 0 0 0 0 0 0 0 0 
0 0 0 0 0 0 0 0 0 0 0 0 0 0 0 0 0 0 0 0 0 0 0 0 0 0 0 0 0 0 1096 0 0 2263 0 0 2221 0 0 2102 0 0 2134 0 0 2100 0 0 2149 0 0 2136 0 0 2125 0 0 2101 0 0 2190 0 0 2183 0 0 2142 0 0 2098 0 0 2141 0 0 2206 0 0 2069 0 0 2165 0 0 2149 0 0 2147 0 0 2223 0 0 2073 0 0 2057 0 0 2210 0 0 2153 0 0 2098 0 0 2213 0 0 2196 0 0 2127 0 0 2096 0 0 2142 0 0 2083 0 0 2180 0 0 2055 0 0 2257 0 0 2222 0 0 2129 0 0 2123 0 0 2161 0 0 2181 0 0 1082 0 0 0 0 0 0 0 0 0 0 0 0 0 0 0 0 0 0 0 0 0 0 0 0 0 0 0 0 0 
0 0 0 0 0 0 0 0 0 0 0 0 0 0 0 0 0 0 0 0 0 0 0 0 0 0 0 0 0 0 1096 0 0 2120 0 0 2144 0 0 2178 0 0 2151 0 0 2186 0 0 2205 0 0 2175 0 0 2146 0 0 2129 0 0 2086 0 0 2170 0 0 2238 0 0 2096 0 0 2123 0 0 2233 0 0 2184 0 0 2143 0 0 2162 0 0 2118 0 0 2119 0 0 2134 0 0 2144 0 0 2181 0 0 2206 0 0 2212 0 0 2171 0 0 2136 0 0 2149 0 0 2124 0 0 2178 0 0 2072 0 0 2162 0 0 2234 0 0 2135 0 0 2107 0 0 2163 0 0 2155 0 0 2168 0 0 2076 0 0 1068 0 0 0 0 0 0 0 0 0 0 0 0 0 0 0 0 0 0 0 0 0 0 0 0 0 0 0 0 0 
0 0 0 0 0 0 0 0 0 0 0 0 0 0 0 0 0 0 0 0 0 0 0 0 0 0 0 0 0 0 1133 0 0 2117 0 0 2163 0 0 2137 0 0 2201 0 0 2240 0 0 2224 0 0 2204 0 0 2192 0 0 2108 0 0 2175 0 0 2027 0 0 2146 0 0 2120 0 0 2088 0 0 2198 0 0 2162 0 0 2162 0 0 2157 0 0 2193 0 0 2037 0 0 2237 0 0 2171 0 0 2107 0 0 2149 0 0 2108 0 0 2162 0 0 2158 0 0 2177 0 0 2117 0 0 2155 0 0 2197 0 0 2211 0 0 2144 0 0 2161 0 0 2064 0 0 2111 0 0 2177 0 0 2115 0 0 2129 0 0 1099 0 0 0 0 0 0 0 0 0 0 0 0 0 0 0 0 0 0 0 0 0 0 0 0 0 0 0 0 0 
0 0 0 0 0 0 0 0 0 0 0 0 0 0 0 0 0 0 0 0 0 0 0 0 0 0 0 0 0 0 1152 0 0 2114 0 0 2094 0 0 2212 0 0 2146 0 0 2206 0 0 2125 0 0 2105 0 0 2216 0 0 2134 0 0 2060 0 0 2245 0 0 2213 0 0 2064 0 0 2152 0 0 2107 0 0 2193 0 0 2210 0 0 2289 0 0 2187 0 0 2155 0 0 2172 0 0 2275 0 0 2245 0 0 2131 0 0 2139 0 0 2144 0 0 2169 0 0 2169 0 0 2182 0 0 2190 0 0 2134 0 0 2184 0 0 2167 0 0 2207 0 0 2129 0 0 2202 0 0 2070 0 0 2229 0 0 2201 0 0 1096 0 0 0 0 0 0 0 0 0 0 0 0 0 0 0 0 0 0 0 0 0 0 0 0 0 0 0 0 0 
0 0 0 0 0 0 0 0 0 0 0 0 0 0 0 0 0 0 0 0 0 0 0 0 0 0 0 0 0 0 1082 0 0 2259 0 0 2183 0 0 2037 0 0 2120 0 0 2182 0 0 2151 0 0 2217 0 0 2130 0 0 2237 0 0 2247 0 0 2117 0 0 2182 0 0 2210 0 0 2094 0 0 2125 0 0 2215 0 0 2191 0 0 2176 0 0 2139 0 0 2235 0 0 2184 0 0 2073 0 0 2224 0 0 2107 0 0 2164 0 0 2241 0 0 2182 0 0 2200 0 0 2179 0 0 2242 0 0 2155 0 0 2212 0 0 2189 0 0 2123 0 0 2181 0 0 2141 0 0 2215 0 0 2114 0 0 2183 0 0 1095 0 0 0 0 0 0 0 0 0 0 0 0 0 0 0 0 0 0 0 0 0 0 0 0 0 0 0 0 0 
0 0 0 0 0 0 0 0 0 0 0 0 0 0 0 0 0 0 0 0 0 0 0 0 0 0 0 0 0 0 1093 0 0 2153 0 0 2099 0 0 2102 0 0 2196 0 0 2209 0 0 2207 0 0 2086 0 0 2135 0 0 2183 0 0 2223 0 0 2066 0 0 2201 0 0 2232 0 0 2128 0 0 2151 0 0 2123 0 0 2179 0 0 2115 0 0 2210 0 0 2111 0 0 2158 0 0 2148 0 0 2142 0 0 2183 0 0 2095 0 0 2157 0 0 2208 0 0 2175 0 0 2214 0 0 2100 0 0 2140 0 0 2178 0 0 2136 0 0 2169 0 0 2158 0 0 2220 0 0 2063 0 0 2178 0 0 2152 0 0 1098 0 0 0 0 0 0 0 0 0 0 0 0 0 0 0 0 0 0 0 0 0 0 0 0 0 0 0 0 0 
0 0 0 0 0 0 0 0 0 0 0 0 0 0 0 0 0 0 0 0 0 0 0 0 0 0 0 0 0 0 512 0 0 1065 0 0 1119 0 0 1013 0 0 1045 0 0 1118 0 0 1085 0 0 1078 0 0 1067 0 0 995 0 0 1177 0 0 1035 0 0 1028 0 0 1098 0 0 1082 0 0 1100 0 0 1077 0 0 1125 0 0 1055 0 0 1093 0 0 1044 0 0 1092 0 0 1097 0 0 1050 0 0 1082 0 0 1031 0 0 1055 0 0 1105 0 0 1071 0 0 1093 0 0 1051 0 0 1093 0 0 1093 0 0 1097 0 0 1065 0 0 1070 0 0 1114 0 0 1068 0 0 1062 0 0 1064 0 0 538 0 0 0 0 0 0 0 0 0 0 0 0 0 0 0 0 0 0 0 0 0 0 0 0 0 0 0 0 0 
0 0 0 0 0 0 0 0 0 0 0 0 0 0 0 0 0 0 0 0 0 0 0 0 0 0 0 0 0 0 0 0 0 0 0 0 0 0 0 0 0 0 0 0 0 0 0 0 0 0 0 0 0 0 0 0 0 0 0 0 0 0 0 0 0 0 0 0 0 0 0 0 0 0 0 0 0 0 0 0 0 0 0 0 0 0 0 0 0 0 0 0 0 0 0 0 0 0 0 0 0 0 0 0 0 0 0 0 0 0 0 0 0 0 0 0 0 0 0 0 0 0 0 0 0 0 0 0 0 0 0 0 0 0 0 0 0 0 0 0 0 0 0 0 0 0 0 0 0 0 0 0 0 0 0 0 0 0 0 0 0 0 0 0 0 0 0 0 0 0 0 0 0 0 0 0 0 0 0 0 
0 0 0 0 0 0 0 0 0 0 0 0 0 0 0 0 0 0 0 0 0 0 0 0 0 0 0 0 0 0 0 0 0 0 0 0 0 0 0 0 0 0 0 0 0 0 0 0 0 0 0 0 0 0 0 0 0 0 0 0 0 0 0 0 0 0 0 0 0 0 0 0 0 0 0 0 0 0 0 0 0 0 0 0 0 0 0 0 0 0 0 0 0 0 0 0 0 0 0 0 0 0 0 0 0 0 0 0 0 0 0 0 0 0 0 0 0 0 0 0 0 0 0 0 0 0 0 0 0 0 0 0 0 0 0 0 0 0 0 0 0 0 0 0 0 0 0 0 0 0 0 0 0 0 0 0 0 0 0 0 0 0 0 0 0 0 0 0 0 0 0 0 0 0 0 0 0 0 0 0 
0 0 0 0 0 0 0 0 0 0 0 0 0 0 0 0 0 0 0 0 0 0 0 0 0 0 0 0 0 0 0 0 0 0 0 0 0 0 0 0 0 0 0 0 0 0 0 0 0 0 0 0 0 0 0 0 0 0 0 0 0 0 0 0 0 0 0 0 0 0 0 0 0 0 0 0 0 0 0 0 0 0 0 0 0 0 0 0 0 0 0 0 0 0 0 0 0 0 0 0 0 0 0 0 0 0 0 0 0 0 0 0 0 0 0 0 0 0 0 0 0 0 0 0 0 0 0 0 0 0 0 0 0 0 0 0 0 0 0 0 0 0 0 0 0 0 0 0 0 0 0 0 0 0 0 0 0 0 0 0 0 0 0 0 0 0 0 0 0 0 0 0 0 0 0 0 0 0 0 0 
0 0 0 0 0 0 0 0 0 0 0 0 0 0 0 0 0 0 0 0 0 0 0 0 0 0 0 0 0 0 0 0 0 0 0 0 0 0 0 0 0 0 0 0 0 0 0 0 0 0 0 0 0 0 0 0 0 0 0 0 0 0 0 0 0 0 0 0 0 0 0 0 0 0 0 0 0 0 0 0 0 0 0 0 0 0 0 0 0 0 0 0 0 0 0 0 0 0 0 0 0 0 0 0 0 0 0 0 0 0 0 0 0 0 0 0 0 0 0 0 0 0 0 0 0 0 0 0 0 0 0 0 0 0 0 0 0 0 0 0 0 0 0 0 0 0 0 0 0 0 0 0 0 0 0 0 0 0 0 0 0 0 0 0 0 0 0 0 0 0 0 0 0 0 0 0 0 0 0 0 
0 0 0 0 0 0 0 0 0 0 0 0 0 0 0 0 0 0 0 0 0 0 0 0 0 0 0 0 0 0 0 0 0 0 0 0 0 0 0 0 0 0 0 0 0 0 0 0 0 0 0 0 0 0 0 0 0 0 0 0 0 0 0 0 0 0 0 0 0 0 0 0 0 0 0 0 0 0 0 0 0 0 0 0 0 0 0 0 0 0 0 0 0 0 0 0 0 0 0 0 0 0 0 0 0 0 0 0 0 0 0 0 0 0 0 0 0 0 0 0 0 0 0 0 0 0 0 0 0 0 0 0 0 0 0 0 0 0 0 0 0 0 0 0 0 0 0 0 0 0 0 0 0 0 0 0 0 0 0 0 0 0 0 0 0 0 0 0 0 0 0 0 0 0 0 0 0 0 0 0 
0 0 0 0 0 0 0 0 0 0 0 0 0 0 0 0 0 0 0 0 0 0 0 0 0 0 0 0 0 0 0 0 0 0 0 0 0 0 0 0 0 0 0 0 0 0 0 0 0 0 0 0 0 0 0 0 0 0 0 0 0 0 0 0 0 0 0 0 0 0 0 0 0 0 0 0 0 0 0 0 0 0 0 0 0 0 0 0 0 0 0 0 0 0 0 0 0 0 0 0 0 0 0 0 0 0 0 0 0 0 0 0 0 0 0 0 0 0 0 0 0 0 0 0 0 0 0 0 0 0 0 0 0 0 0 0 0 0 0 0 0 0 0 0 0 0 0 0 0 0 0 0 0 0 0 0 0 0 0 0 0 0 0 0 0 0 0 0 0 0 0 0 0 0 0 0 0 0 0 0 
0 0 0 0 0 0 0 0 0 0 0 0 0 0 0 0 0 0 0 0 0 0 0 0 0 0 0 0 0 0 0 0 0 0 0 0 0 0 0 0 0 0 0 0 0 0 0 0 0 0 0 0 0 0 0 0 0 0 0 0 0 0 0 0 0 0 0 0 0 0 0 0 0 0 0 0 0 0 0 0 0 0 0 0 0 0 0 0 0 0 0 0 0 0 0 0 0 0 0 0 0 0 0 0 0 0 0 0 0 0 0 0 0 0 0 0 0 0 0 0 0 0 0 0 0 0 0 0 0 0 0 0 0 0 0 0 0 0 0 0 0 0 0 0 0 0 0 0 0 0 0 0 0 0 0 0 0 0 0 0 0 0 0 0 0 0 0 0 0 0 0 0 0 0 0 0 0 0 0 0 
0 0 0 0 0 0 0 0 0 0 0 0 0 0 0 0 0 0 0 0 0 0 0 0 0 0 0 0 0 0 0 0 0 0 0 0 0 0 0 0 0 0 0 0 0 0 0 0 0 0 0 0 0 0 0 0 0 0 0 0 0 0 0 0 0 0 0 0 0 0 0 0 0 0 0 0 0 0 0 0 0 0 0 0 0 0 0 0 0 0 0 0 0 0 0 0 0 0 0 0 0 0 0 0 0 0 0 0 0 0 0 0 0 0 0 0 0 0 0 0 0 0 0 0 0 0 0 0 0 0 0 0 0 0 0 0 0 0 0 0 0 0 0 0 0 0 0 0 0 0 0 0 0 0 0 0 0 0 0 0 0 0 0 0 0 0 0 0 0 0 0 0 0 0 0 0 0 0 0 0 
0 0 0 0 0 0 0 0 0 0 0 0 0 0 0 0 0 0 0 0 0 0 0 0 0 0 0 0 0 0 0 0 0 0 0 0 0 0 0 0 0 0 0 0 0 0 0 0 0 0 0 0 0 0 0 0 0 0 0 0 0 0 0 0 0 0 0 0 0 0 0 0 0 0 0 0 0 0 0 0 0 0 0 0 0 0 0 0 0 0 0 0 0 0 0 0 0 0 0 0 0 0 0 0 0 0 0 0 0 0 0 0 0 0 0 0 0 0 0 0 0 0 0 0 0 0 0 0 0 0 0 0 0 0 0 0 0 0 0 0 0 0 0 0 0 0 0 0 0 0 0 0 0 0 0 0 0 0 0 0 0 0 0 0 0 0 0 0 0 0 0 0 0 0 0 0 0 0 0 0 
