P3
# This is a dose file slice at depth 48 of 100
60 60
# now we give the maximum value of the RGB coordinates.
21610
0 0 0 1 0 0 2 0 0 0 0 0 3 0 0 1 0 0 1 0 0 0 0 0 1 0 0 4 0 0 0 0 0 2 0 0 1 0 0 1 0 0 2 0 0 3 0 0 0 0 0 0 0 0 1 0 0 0 0 0 0 0 0 0 0 0 0 0 0 2 0 0 0 0 0 3 0 0 4 0 0 3 0 0 2 0 0 1 0 0 1 0 0 2 0 0 1 0 0 2 0 0 2 0 0 0 0 0 0 0 0 2 0 0 2 0 0 1 0 0 2 0 0 1 0 0 1 0 0 2 0 0 2 0 0 2 0 0 1 0 0 0 0 0 1 0 0 2 0 0 2 0 0 2 0 0 0 0 0 0 0 0 0 0 0 0 0 0 1 0 0 0 0 0 1 0 0 0 0 0 
1 0 0 5 0 0 4 0 0 2 0 0 3 0 0 5 0 0 1 0 0 3 0 0 6 0 0 4 0 0 2 0 0 5 0 0 4 0 0 5 0 0 3 0 0 4 0 0 2 0 0 3 0 0 1 0 0 3 0 0 3 0 0 2 0 0 0 0 0 1 0 0 0 0 0 5 0 0 9 0 0 6 0 0 5 0 0 4 0 0 6 0 0 5 0 0 2 0 0 7 0 0 5 0 0 4 0 0 3 0 0 7 0 0 8 0 0 2 0 0 6 0 0 4 0 0 3 0 0 6 0 0 5 0 0 8 0 0 4 0 0 1 0 0 7 0 0 7 0 0 2 0 0 1 0 0 1 0 0 3 0 0 1 0 0 1 0 0 1 0 0 1 0 0 0 0 0 2 0 0 
0 0 0 5 0 0 3 0 0 1 0 0 3 0 0 3 0 0 1 0 0 2 0 0 1 0 0 5 0 0 5 0 0 4 0 0 4 0 0 5 0 0 5 0 0 8 0 0 2 0 0 2 0 0 3 0 0 3 0 0 3 0 0 3 0 0 2 0 0 1 0 0 3 0 0 4 0 0 6 0 0 3 0 0 6 0 0 4 0 0 5 0 0 5 0 0 2 0 0 3 0 0 3 0 0 6 0 0 4 0 0 4 0 0 3 0 0 4 0 0 6 0 0 4 0 0 6 0 0 5 0 0 4 0 0 5 0 0 3 0 0 3 0 0 10 0 0 3 0 0 3 0 0 3 0 0 4 0 0 2 0 0 2 0 0 1 0 0 0 0 0 0 0 0 1 0 0 2 0 0 
0 0 0 3 0 0 1 0 0 3 0 0 2 0 0 4 0 0 3 0 0 0 0 0 5 0 0 2 0 0 3 0 0 1 0 0 4 0 0 4 0 0 4 0 0 3 0 0 5 0 0 6 0 0 2 0 0 7 0 0 6 0 0 5 0 0 3 0 0 3 0 0 6 0 0 0 0 0 0 0 0 5 0 0 8 0 0 4 0 0 2 0 0 6 0 0 6 0 0 3 0 0 4 0 0 4 0 0 4 0 0 4 0 0 4 0 0 4 0 0 5 0 0 3 0 0 8 0 0 6 0 0 7 0 0 3 0 0 5 0 0 7 0 0 5 0 0 4 0 0 3 0 0 4 0 0 3 0 0 1 0 0 0 0 0 2 0 0 1 0 0 2 0 0 3 0 0 3 0 0 
1 0 0 3 0 0 1 0 0 1 0 0 3 0 0 1 0 0 3 0 0 5 0 0 3 0 0 3 0 0 2 0 0 2 0 0 2 0 0 4 0 0 4 0 0 5 0 0 6 0 0 5 0 0 2 0 0 5 0 0 7 0 0 6 0 0 7 0 0 5 0 0 4 0 0 5 0 0 3 0 0 5 0 0 7 0 0 3 0 0 5 0 0 8 0 0 9 0 0 6 0 0 2 0 0 8 0 0 7 0 0 5 0 0 3 0 0 4 0 0 3 0 0 9 0 0 12 0 0 8 0 0 9 0 0 6 0 0 3 0 0 5 0 0 10 0 0 3 0 0 3 0 0 5 0 0 4 0 0 5 0 0 0 0 0 0 0 0 1 0 0 1 0 0 4 0 0 3 0 0 
0 0 0 6 0 0 3 0 0 0 0 0 5 0 0 4 0 0 1 0 0 2 0 0 2 0 0 2 0 0 5 0 0 3 0 0 5 0 0 6 0 0 4 0 0 3 0 0 5 0 0 6 0 0 3 0 0 6 0 0 5 0 0 11 0 0 5 0 0 5 0 0 6 0 0 9 0 0 7 0 0 6 0 0 4 0 0 5 0 0 6 0 0 7 0 0 6 0 0 10 0 0 5 0 0 8 0 0 8 0 0 6 0 0 1 0 0 8 0 0 4 0 0 3 0 0 5 0 0 6 0 0 11 0 0 5 0 0 6 0 0 7 0 0 6 0 0 0 0 0 1 0 0 6 0 0 5 0 0 1 0 0 2 0 0 2 0 0 6 0 0 4 0 0 5 0 0 5 0 0 
0 0 0 3 0 0 6 0 0 1 0 0 4 0 0 7 0 0 7 0 0 7 0 0 5 0 0 3 0 0 8 0 0 4 0 0 8 0 0 8 0 0 5 0 0 3 0 0 8 0 0 8 0 0 4 0 0 8 0 0 7 0 0 9 0 0 6 0 0 12 0 0 1 0 0 12 0 0 11 0 0 7 0 0 7 0 0 7 0 0 9 0 0 10 0 0 10 0 0 11 0 0 8 0 0 9 0 0 6 0 0 9 0 0 6 0 0 8 0 0 5 0 0 5 0 0 8 0 0 4 0 0 7 0 0 8 0 0 7 0 0 8 0 0 4 0 0 6 0 0 4 0 0 6 0 0 6 0 0 6 0 0 4 0 0 4 0 0 5 0 0 1 0 0 1 0 0 3 0 0 
1 0 0 2 0 0 2 0 0 5 0 0 1 0 0 1 0 0 3 0 0 3 0 0 5 0 0 4 0 0 8 0 0 6 0 0 11 0 0 6 0 0 10 0 0 6 0 0 7 0 0 9 0 0 10 0 0 5 0 0 12 0 0 11 0 0 5 0 0 15 0 0 11 0 0 9 0 0 7 0 0 11 0 0 9 0 0 11 0 0 11 0 0 15 0 0 13 0 0 12 0 0 13 0 0 8 0 0 10 0 0 10 0 0 6 0 0 13 0 0 8 0 0 12 0 0 11 0 0 10 0 0 10 0 0 11 0 0 9 0 0 14 0 0 9 0 0 8 0 0 3 0 0 5 0 0 6 0 0 7 0 0 3 0 0 7 0 0 5 0 0 2 0 0 2 0 0 3 0 0 
1 0 0 2 0 0 2 0 0 2 0 0 4 0 0 3 0 0 4 0 0 4 0 0 5 0 0 4 0 0 4 0 0 8 0 0 12 0 0 16 0 0 9 0 0 9 0 0 12 0 0 10 0 0 9 0 0 8 0 0 12 0 0 17 0 0 15 0 0 19 0 0 13 0 0 16 0 0 20 0 0 18 0 0 11 0 0 12 0 0 13 0 0 9 0 0 13 0 0 12 0 0 13 0 0 12 0 0 12 0 0 11 0 0 15 0 0 12 0 0 13 0 0 12 0 0 12 0 0 12 0 0 9 0 0 18 0 0 9 0 0 13 0 0 10 0 0 9 0 0 10 0 0 7 0 0 5 0 0 5 0 0 8 0 0 4 0 0 0 0 0 1 0 0 1 0 0 1 0 0 
2 0 0 5 0 0 6 0 0 3 0 0 3 0 0 3 0 0 1 0 0 7 0 0 10 0 0 6 0 0 23 0 0 56 0 0 56 0 0 71 0 0 47 0 0 46 0 0 59 0 0 62 0 0 54 0 0 67 0 0 63 0 0 49 0 0 62 0 0 55 0 0 61 0 0 42 0 0 64 0 0 60 0 0 60 0 0 52 0 0 54 0 0 38 0 0 53 0 0 59 0 0 72 0 0 68 0 0 64 0 0 50 0 0 55 0 0 66 0 0 56 0 0 61 0 0 56 0 0 44 0 0 42 0 0 56 0 0 50 0 0 62 0 0 54 0 0 47 0 0 31 0 0 5 0 0 5 0 0 5 0 0 5 0 0 5 0 0 5 0 0 3 0 0 4 0 0 3 0 0 
1 0 0 0 0 0 5 0 0 6 0 0 4 0 0 7 0 0 3 0 0 1 0 0 10 0 0 32 0 0 1798 0 0 3690 0 0 3608 0 0 3657 0 0 3674 0 0 3659 0 0 3637 0 0 3671 0 0 3619 0 0 3594 0 0 3574 0 0 3618 0 0 3645 0 0 3558 0 0 3603 0 0 3550 0 0 3660 0 0 3602 0 0 3585 0 0 3651 0 0 3645 0 0 3643 0 0 3694 0 0 3704 0 0 3697 0 0 3696 0 0 3556 0 0 3686 0 0 3679 0 0 3576 0 0 3600 0 0 3641 0 0 3566 0 0 3690 0 0 3597 0 0 3672 0 0 3550 0 0 3693 0 0 3605 0 0 3686 0 0 1765 0 0 29 0 0 10 0 0 4 0 0 7 0 0 6 0 0 3 0 0 6 0 0 6 0 0 1 0 0 
0 0 0 0 0 0 1 0 0 4 0 0 8 0 0 9 0 0 9 0 0 6 0 0 5 0 0 55 0 0 3574 0 0 7101 0 0 7198 0 0 7160 0 0 7327 0 0 7278 0 0 7174 0 0 7404 0 0 7189 0 0 7271 0 0 7249 0 0 7173 0 0 7300 0 0 7312 0 0 7266 0 0 7205 0 0 7251 0 0 6970 0 0 7178 0 0 7278 0 0 7212 0 0 7223 0 0 7240 0 0 7298 0 0 7221 0 0 7232 0 0 7153 0 0 7320 0 0 7162 0 0 7224 0 0 7340 0 0 7204 0 0 7197 0 0 7448 0 0 7273 0 0 7284 0 0 7252 0 0 7289 0 0 7160 0 0 7259 0 0 3650 0 0 46 0 0 8 0 0 4 0 0 4 0 0 1 0 0 1 0 0 2 0 0 3 0 0 1 0 0 
0 0 0 2 0 0 0 0 0 3 0 0 7 0 0 4 0 0 5 0 0 9 0 0 7 0 0 52 0 0 3508 0 0 7300 0 0 7446 0 0 7330 0 0 7200 0 0 7249 0 0 7290 0 0 7386 0 0 7325 0 0 7237 0 0 7342 0 0 7301 0 0 7407 0 0 7443 0 0 7240 0 0 7298 0 0 7264 0 0 7214 0 0 7394 0 0 7218 0 0 7281 0 0 7321 0 0 7245 0 0 7200 0 0 7312 0 0 7261 0 0 7216 0 0 7304 0 0 7201 0 0 7337 0 0 7482 0 0 7313 0 0 7314 0 0 7400 0 0 7269 0 0 7346 0 0 7221 0 0 7302 0 0 7279 0 0 7353 0 0 3599 0 0 63 0 0 10 0 0 8 0 0 3 0 0 3 0 0 7 0 0 5 0 0 3 0 0 0 0 0 
1 0 0 1 0 0 2 0 0 3 0 0 5 0 0 4 0 0 8 0 0 9 0 0 15 0 0 66 0 0 3716 0 0 7361 0 0 7296 0 0 7260 0 0 7380 0 0 7414 0 0 7256 0 0 7235 0 0 7199 0 0 7288 0 0 7422 0 0 7290 0 0 7430 0 0 7289 0 0 7389 0 0 7271 0 0 7095 0 0 7312 0 0 7313 0 0 7302 0 0 7161 0 0 7379 0 0 7186 0 0 7258 0 0 7202 0 0 7303 0 0 7408 0 0 7430 0 0 7278 0 0 7328 0 0 7234 0 0 7330 0 0 7335 0 0 7202 0 0 7215 0 0 7165 0 0 7270 0 0 7343 0 0 7409 0 0 7218 0 0 3693 0 0 62 0 0 10 0 0 12 0 0 7 0 0 8 0 0 8 0 0 5 0 0 2 0 0 3 0 0 
0 0 0 1 0 0 4 0 0 3 0 0 4 0 0 2 0 0 2 0 0 8 0 0 13 0 0 50 0 0 3622 0 0 7141 0 0 7195 0 0 7241 0 0 7327 0 0 7345 0 0 7383 0 0 7482 0 0 7244 0 0 7296 0 0 7389 0 0 7352 0 0 7297 0 0 7236 0 0 7169 0 0 7296 0 0 7225 0 0 7310 0 0 7149 0 0 7246 0 0 7256 0 0 7331 0 0 7236 0 0 7241 0 0 7289 0 0 7275 0 0 7204 0 0 7400 0 0 7357 0 0 7392 0 0 7286 0 0 7331 0 0 7277 0 0 7230 0 0 7310 0 0 7194 0 0 7365 0 0 7300 0 0 7292 0 0 7348 0 0 3658 0 0 62 0 0 12 0 0 7 0 0 8 0 0 7 0 0 5 0 0 4 0 0 4 0 0 2 0 0 
0 0 0 1 0 0 3 0 0 3 0 0 3 0 0 8 0 0 5 0 0 14 0 0 12 0 0 71 0 0 3669 0 0 7306 0 0 7186 0 0 7364 0 0 7279 0 0 7167 0 0 7366 0 0 7232 0 0 7095 0 0 7319 0 0 7340 0 0 7357 0 0 7259 0 0 7277 0 0 7221 0 0 7221 0 0 7306 0 0 7293 0 0 7267 0 0 7362 0 0 7233 0 0 7335 0 0 7272 0 0 7278 0 0 7336 0 0 7215 0 0 7333 0 0 7182 0 0 7248 0 0 7372 0 0 7125 0 0 7254 0 0 7323 0 0 7269 0 0 7215 0 0 7242 0 0 7250 0 0 7310 0 0 7260 0 0 7117 0 0 3755 0 0 60 0 0 13 0 0 12 0 0 13 0 0 6 0 0 6 0 0 3 0 0 3 0 0 1 0 0 
1 0 0 3 0 0 4 0 0 7 0 0 7 0 0 7 0 0 10 0 0 8 0 0 12 0 0 71 0 0 3721 0 0 7124 0 0 7129 0 0 7277 0 0 7188 0 0 7358 0 0 7286 0 0 7199 0 0 7132 0 0 7105 0 0 7266 0 0 7302 0 0 7276 0 0 7307 0 0 7292 0 0 7180 0 0 7408 0 0 7185 0 0 7308 0 0 7284 0 0 7193 0 0 7374 0 0 7334 0 0 7375 0 0 7363 0 0 7240 0 0 7377 0 0 7227 0 0 7225 0 0 7163 0 0 7269 0 0 7439 0 0 7285 0 0 7357 0 0 7297 0 0 7174 0 0 7211 0 0 7401 0 0 7259 0 0 7331 0 0 3591 0 0 46 0 0 11 0 0 13 0 0 9 0 0 9 0 0 9 0 0 5 0 0 1 0 0 0 0 0 
1 0 0 6 0 0 7 0 0 7 0 0 4 0 0 3 0 0 9 0 0 12 0 0 17 0 0 51 0 0 3743 0 0 7209 0 0 7335 0 0 7310 0 0 7276 0 0 7402 0 0 7295 0 0 7470 0 0 7287 0 0 7446 0 0 7285 0 0 7309 0 0 7310 0 0 7331 0 0 7296 0 0 7402 0 0 7373 0 0 7276 0 0 7301 0 0 7085 0 0 7413 0 0 7238 0 0 7228 0 0 7268 0 0 7304 0 0 7300 0 0 7476 0 0 7277 0 0 7285 0 0 7214 0 0 7395 0 0 7335 0 0 7206 0 0 7190 0 0 7310 0 0 7326 0 0 7287 0 0 7343 0 0 7250 0 0 7186 0 0 3556 0 0 62 0 0 15 0 0 12 0 0 12 0 0 6 0 0 4 0 0 2 0 0 3 0 0 5 0 0 
2 0 0 7 0 0 7 0 0 7 0 0 5 0 0 8 0 0 13 0 0 8 0 0 15 0 0 54 0 0 3664 0 0 7196 0 0 7280 0 0 7297 0 0 7370 0 0 7296 0 0 7317 0 0 7329 0 0 7433 0 0 7327 0 0 7404 0 0 7282 0 0 7276 0 0 7343 0 0 7308 0 0 7173 0 0 7263 0 0 7224 0 0 7259 0 0 7309 0 0 7185 0 0 7448 0 0 7348 0 0 7346 0 0 7375 0 0 7358 0 0 7212 0 0 7152 0 0 7195 0 0 7227 0 0 7222 0 0 7316 0 0 7400 0 0 7467 0 0 7036 0 0 7164 0 0 7373 0 0 7261 0 0 7199 0 0 7330 0 0 3723 0 0 54 0 0 10 0 0 9 0 0 7 0 0 10 0 0 6 0 0 3 0 0 8 0 0 6 0 0 
1 0 0 6 0 0 7 0 0 9 0 0 4 0 0 5 0 0 11 0 0 10 0 0 11 0 0 51 0 0 3681 0 0 7254 0 0 7395 0 0 7367 0 0 7287 0 0 7357 0 0 7223 0 0 7378 0 0 7192 0 0 7232 0 0 7381 0 0 7267 0 0 7267 0 0 7226 0 0 7310 0 0 7261 0 0 7275 0 0 7281 0 0 7291 0 0 7313 0 0 7277 0 0 7426 0 0 7379 0 0 7285 0 0 7278 0 0 7337 0 0 7361 0 0 7324 0 0 7311 0 0 7321 0 0 7114 0 0 7322 0 0 7345 0 0 7391 0 0 7180 0 0 7450 0 0 7199 0 0 7348 0 0 7261 0 0 7198 0 0 3597 0 0 67 0 0 14 0 0 5 0 0 5 0 0 12 0 0 11 0 0 11 0 0 4 0 0 3 0 0 
1 0 0 2 0 0 2 0 0 11 0 0 5 0 0 11 0 0 12 0 0 14 0 0 9 0 0 58 0 0 3604 0 0 7216 0 0 7187 0 0 7237 0 0 7411 0 0 7363 0 0 7298 0 0 7302 0 0 7311 0 0 7421 0 0 7309 0 0 7280 0 0 7310 0 0 7216 0 0 7270 0 0 7325 0 0 7311 0 0 7229 0 0 7245 0 0 7194 0 0 7221 0 0 7235 0 0 7369 0 0 7325 0 0 7337 0 0 7298 0 0 7357 0 0 7346 0 0 7247 0 0 7336 0 0 7296 0 0 7319 0 0 7248 0 0 7392 0 0 7297 0 0 7353 0 0 7412 0 0 7248 0 0 7177 0 0 7309 0 0 3642 0 0 50 0 0 11 0 0 6 0 0 7 0 0 9 0 0 9 0 0 5 0 0 5 0 0 4 0 0 
2 0 0 6 0 0 5 0 0 7 0 0 5 0 0 8 0 0 13 0 0 14 0 0 17 0 0 55 0 0 3639 0 0 7319 0 0 7272 0 0 7322 0 0 7407 0 0 7370 0 0 7194 0 0 7369 0 0 7373 0 0 7396 0 0 7266 0 0 7245 0 0 7348 0 0 7388 0 0 7312 0 0 7272 0 0 7363 0 0 7161 0 0 7282 0 0 7358 0 0 7364 0 0 7353 0 0 7232 0 0 7430 0 0 7466 0 0 7248 0 0 7147 0 0 7333 0 0 7179 0 0 7392 0 0 7189 0 0 7388 0 0 7346 0 0 7236 0 0 7220 0 0 7359 0 0 7323 0 0 7265 0 0 7396 0 0 7323 0 0 3611 0 0 53 0 0 13 0 0 9 0 0 6 0 0 5 0 0 8 0 0 9 0 0 3 0 0 10 0 0 
1 0 0 2 0 0 2 0 0 3 0 0 5 0 0 7 0 0 10 0 0 17 0 0 16 0 0 68 0 0 3609 0 0 7260 0 0 7488 0 0 7183 0 0 7194 0 0 7269 0 0 7276 0 0 7379 0 0 7217 0 0 7303 0 0 7249 0 0 7417 0 0 7232 0 0 7346 0 0 7223 0 0 7313 0 0 7392 0 0 7267 0 0 7354 0 0 7346 0 0 7261 0 0 7256 0 0 7338 0 0 7439 0 0 7195 0 0 7325 0 0 7390 0 0 7327 0 0 7348 0 0 7192 0 0 7339 0 0 7325 0 0 7173 0 0 7357 0 0 7247 0 0 7211 0 0 7186 0 0 7078 0 0 7176 0 0 7142 0 0 3618 0 0 62 0 0 14 0 0 9 0 0 13 0 0 6 0 0 8 0 0 7 0 0 8 0 0 3 0 0 
3 0 0 5 0 0 7 0 0 8 0 0 9 0 0 11 0 0 8 0 0 8 0 0 14 0 0 63 0 0 3652 0 0 7378 0 0 7205 0 0 7352 0 0 7482 0 0 7246 0 0 7364 0 0 7313 0 0 7238 0 0 7145 0 0 7495 0 0 7341 0 0 7221 0 0 7197 0 0 7270 0 0 7310 0 0 7251 0 0 7312 0 0 7300 0 0 7489 0 0 7284 0 0 7182 0 0 7332 0 0 7326 0 0 7168 0 0 7310 0 0 7238 0 0 7330 0 0 7311 0 0 7323 0 0 7291 0 0 7429 0 0 7097 0 0 7177 0 0 7340 0 0 7339 0 0 7381 0 0 7301 0 0 7028 0 0 7268 0 0 3658 0 0 66 0 0 19 0 0 13 0 0 11 0 0 9 0 0 8 0 0 6 0 0 2 0 0 4 0 0 
1 0 0 5 0 0 9 0 0 5 0 0 12 0 0 8 0 0 14 0 0 13 0 0 12 0 0 59 0 0 3713 0 0 7277 0 0 7344 0 0 7199 0 0 7297 0 0 7418 0 0 7246 0 0 7400 0 0 7335 0 0 7346 0 0 7339 0 0 7250 0 0 7236 0 0 7253 0 0 7251 0 0 7228 0 0 7285 0 0 7254 0 0 7250 0 0 7282 0 0 7366 0 0 7340 0 0 7240 0 0 7252 0 0 7233 0 0 7482 0 0 7234 0 0 7472 0 0 7276 0 0 7268 0 0 7239 0 0 7416 0 0 7339 0 0 7346 0 0 7355 0 0 7275 0 0 7269 0 0 7304 0 0 7269 0 0 7272 0 0 3618 0 0 53 0 0 12 0 0 6 0 0 5 0 0 4 0 0 3 0 0 2 0 0 4 0 0 3 0 0 
2 0 0 1 0 0 5 0 0 9 0 0 1 0 0 4 0 0 12 0 0 14 0 0 16 0 0 61 0 0 3605 0 0 7231 0 0 7165 0 0 7397 0 0 7259 0 0 7456 0 0 7438 0 0 7258 0 0 7249 0 0 7373 0 0 7221 0 0 7367 0 0 7243 0 0 7264 0 0 7249 0 0 7410 0 0 7314 0 0 7291 0 0 7280 0 0 7224 0 0 7263 0 0 7323 0 0 7352 0 0 7237 0 0 7266 0 0 7327 0 0 7239 0 0 7275 0 0 7244 0 0 7229 0 0 7306 0 0 7249 0 0 7341 0 0 7397 0 0 7276 0 0 7361 0 0 7267 0 0 7133 0 0 7199 0 0 7292 0 0 3591 0 0 58 0 0 10 0 0 5 0 0 7 0 0 6 0 0 4 0 0 4 0 0 3 0 0 2 0 0 
2 0 0 6 0 0 10 0 0 5 0 0 6 0 0 5 0 0 4 0 0 9 0 0 16 0 0 47 0 0 3719 0 0 7279 0 0 7226 0 0 7235 0 0 7294 0 0 7500 0 0 7382 0 0 7455 0 0 7350 0 0 7248 0 0 7206 0 0 7332 0 0 7225 0 0 7297 0 0 7315 0 0 7229 0 0 7290 0 0 7270 0 0 7467 0 0 7284 0 0 7276 0 0 7359 0 0 7427 0 0 7358 0 0 7172 0 0 7209 0 0 7304 0 0 7193 0 0 7311 0 0 7298 0 0 7373 0 0 7199 0 0 7319 0 0 7213 0 0 7350 0 0 7202 0 0 7349 0 0 7107 0 0 7274 0 0 7278 0 0 3670 0 0 49 0 0 10 0 0 7 0 0 8 0 0 3 0 0 7 0 0 3 0 0 5 0 0 5 0 0 
2 0 0 5 0 0 9 0 0 10 0 0 7 0 0 7 0 0 12 0 0 11 0 0 11 0 0 66 0 0 3720 0 0 7207 0 0 7258 0 0 7275 0 0 7156 0 0 7342 0 0 7160 0 0 7308 0 0 7206 0 0 7242 0 0 7262 0 0 7251 0 0 7229 0 0 7230 0 0 7250 0 0 7213 0 0 7244 0 0 7339 0 0 7308 0 0 7330 0 0 7271 0 0 7406 0 0 7276 0 0 7225 0 0 7324 0 0 7271 0 0 7234 0 0 7357 0 0 7190 0 0 7431 0 0 7265 0 0 7338 0 0 7151 0 0 7358 0 0 7324 0 0 7280 0 0 7261 0 0 7268 0 0 7176 0 0 7349 0 0 3672 0 0 51 0 0 9 0 0 8 0 0 8 0 0 4 0 0 5 0 0 12 0 0 9 0 0 7 0 0 
4 0 0 9 0 0 7 0 0 4 0 0 9 0 0 8 0 0 10 0 0 12 0 0 16 0 0 52 0 0 3585 0 0 7225 0 0 7307 0 0 7281 0 0 7289 0 0 7351 0 0 7465 0 0 7276 0 0 7346 0 0 7440 0 0 7357 0 0 7346 0 0 7212 0 0 7317 0 0 7320 0 0 7211 0 0 7313 0 0 7165 0 0 7299 0 0 7263 0 0 7277 0 0 7316 0 0 7252 0 0 7308 0 0 7285 0 0 7336 0 0 7324 0 0 7267 0 0 7302 0 0 7238 0 0 7236 0 0 7306 0 0 7369 0 0 7444 0 0 7329 0 0 7223 0 0 7257 0 0 7415 0 0 7438 0 0 7291 0 0 3685 0 0 65 0 0 17 0 0 9 0 0 9 0 0 12 0 0 9 0 0 4 0 0 10 0 0 3 0 0 
3 0 0 7 0 0 3 0 0 5 0 0 3 0 0 10 0 0 16 0 0 12 0 0 14 0 0 50 0 0 3690 0 0 7190 0 0 7376 0 0 7426 0 0 7253 0 0 7243 0 0 7240 0 0 7381 0 0 7310 0 0 7150 0 0 7436 0 0 7406 0 0 7372 0 0 7260 0 0 7426 0 0 7267 0 0 7187 0 0 7344 0 0 7338 0 0 7238 0 0 7346 0 0 7361 0 0 7189 0 0 7422 0 0 7198 0 0 7264 0 0 7201 0 0 7210 0 0 7334 0 0 7319 0 0 7378 0 0 7280 0 0 7353 0 0 7255 0 0 7365 0 0 7080 0 0 7341 0 0 7287 0 0 7291 0 0 7368 0 0 3712 0 0 61 0 0 11 0 0 13 0 0 11 0 0 7 0 0 4 0 0 5 0 0 9 0 0 6 0 0 
2 0 0 3 0 0 2 0 0 5 0 0 9 0 0 6 0 0 2 0 0 12 0 0 19 0 0 62 0 0 3686 0 0 7454 0 0 7298 0 0 7218 0 0 7475 0 0 7304 0 0 7263 0 0 7340 0 0 7155 0 0 7212 0 0 7325 0 0 7347 0 0 7372 0 0 7379 0 0 7151 0 0 7386 0 0 7343 0 0 7279 0 0 7366 0 0 7259 0 0 7247 0 0 7226 0 0 7411 0 0 7319 0 0 7336 0 0 7179 0 0 7359 0 0 7265 0 0 7248 0 0 7233 0 0 7283 0 0 7287 0 0 7289 0 0 7361 0 0 7335 0 0 7290 0 0 7380 0 0 7302 0 0 7178 0 0 7158 0 0 3544 0 0 58 0 0 9 0 0 15 0 0 12 0 0 8 0 0 8 0 0 7 0 0 4 0 0 1 0 0 
0 0 0 1 0 0 1 0 0 2 0 0 2 0 0 5 0 0 7 0 0 12 0 0 12 0 0 59 0 0 3653 0 0 7272 0 0 7302 0 0 7262 0 0 7311 0 0 7351 0 0 7287 0 0 7275 0 0 7246 0 0 7401 0 0 7271 0 0 7421 0 0 7360 0 0 7309 0 0 7404 0 0 7267 0 0 7303 0 0 7240 0 0 7297 0 0 7366 0 0 7277 0 0 7235 0 0 7231 0 0 7354 0 0 7248 0 0 7425 0 0 7319 0 0 7407 0 0 7350 0 0 7325 0 0 7272 0 0 7331 0 0 7327 0 0 7374 0 0 7339 0 0 7187 0 0 7399 0 0 7237 0 0 7254 0 0 7207 0 0 3667 0 0 52 0 0 10 0 0 12 0 0 12 0 0 11 0 0 13 0 0 7 0 0 7 0 0 3 0 0 
2 0 0 4 0 0 4 0 0 6 0 0 6 0 0 13 0 0 12 0 0 8 0 0 13 0 0 54 0 0 3593 0 0 7329 0 0 7337 0 0 7139 0 0 7350 0 0 7320 0 0 7357 0 0 7334 0 0 7263 0 0 7336 0 0 7247 0 0 7231 0 0 7319 0 0 7188 0 0 7348 0 0 7346 0 0 7342 0 0 7321 0 0 7296 0 0 7211 0 0 7320 0 0 7357 0 0 7281 0 0 7124 0 0 7214 0 0 7374 0 0 7437 0 0 7183 0 0 7330 0 0 7256 0 0 7377 0 0 7322 0 0 7223 0 0 7381 0 0 7369 0 0 7255 0 0 7212 0 0 7250 0 0 7397 0 0 7195 0 0 3584 0 0 52 0 0 16 0 0 10 0 0 16 0 0 17 0 0 5 0 0 2 0 0 8 0 0 7 0 0 
2 0 0 5 0 0 6 0 0 6 0 0 5 0 0 4 0 0 12 0 0 13 0 0 12 0 0 62 0 0 3594 0 0 7209 0 0 7292 0 0 7337 0 0 7324 0 0 7372 0 0 7319 0 0 7390 0 0 7195 0 0 7200 0 0 7313 0 0 7406 0 0 7287 0 0 7299 0 0 7346 0 0 7381 0 0 7318 0 0 7286 0 0 7297 0 0 7149 0 0 7371 0 0 7292 0 0 7360 0 0 7232 0 0 7330 0 0 7265 0 0 7291 0 0 7207 0 0 7309 0 0 7265 0 0 7512 0 0 7208 0 0 7357 0 0 7344 0 0 7374 0 0 7239 0 0 7263 0 0 7328 0 0 7403 0 0 7121 0 0 3659 0 0 57 0 0 18 0 0 16 0 0 12 0 0 12 0 0 11 0 0 7 0 0 2 0 0 3 0 0 
2 0 0 5 0 0 7 0 0 11 0 0 5 0 0 10 0 0 8 0 0 15 0 0 15 0 0 62 0 0 3670 0 0 7092 0 0 7293 0 0 7292 0 0 7254 0 0 7425 0 0 7374 0 0 7258 0 0 7366 0 0 7218 0 0 7272 0 0 7296 0 0 7230 0 0 7110 0 0 7274 0 0 7217 0 0 7230 0 0 7405 0 0 7297 0 0 7291 0 0 7435 0 0 7340 0 0 7313 0 0 7354 0 0 7332 0 0 7272 0 0 7273 0 0 7166 0 0 7370 0 0 7328 0 0 7278 0 0 7272 0 0 7300 0 0 7554 0 0 7370 0 0 7300 0 0 7436 0 0 7260 0 0 7280 0 0 7192 0 0 3688 0 0 60 0 0 18 0 0 19 0 0 10 0 0 10 0 0 8 0 0 5 0 0 11 0 0 7 0 0 
1 0 0 5 0 0 6 0 0 16 0 0 13 0 0 4 0 0 5 0 0 9 0 0 13 0 0 44 0 0 3562 0 0 7143 0 0 7283 0 0 7217 0 0 7284 0 0 7385 0 0 7197 0 0 7221 0 0 7218 0 0 7370 0 0 7396 0 0 7335 0 0 7223 0 0 7391 0 0 7257 0 0 7415 0 0 7248 0 0 7334 0 0 7474 0 0 7165 0 0 7168 0 0 7298 0 0 7177 0 0 7392 0 0 7295 0 0 7392 0 0 7287 0 0 7318 0 0 7331 0 0 7357 0 0 7221 0 0 7281 0 0 7298 0 0 7244 0 0 7307 0 0 7367 0 0 7206 0 0 7369 0 0 7198 0 0 7259 0 0 3686 0 0 62 0 0 15 0 0 13 0 0 15 0 0 10 0 0 10 0 0 5 0 0 4 0 0 5 0 0 
1 0 0 5 0 0 7 0 0 8 0 0 9 0 0 10 0 0 8 0 0 8 0 0 10 0 0 61 0 0 3651 0 0 7280 0 0 7428 0 0 7291 0 0 7240 0 0 7143 0 0 7364 0 0 7324 0 0 7248 0 0 7423 0 0 7355 0 0 7300 0 0 7192 0 0 7349 0 0 7429 0 0 7255 0 0 7379 0 0 7525 0 0 7314 0 0 7278 0 0 7212 0 0 7188 0 0 7242 0 0 7244 0 0 7342 0 0 7292 0 0 7347 0 0 7181 0 0 7289 0 0 7388 0 0 7135 0 0 7328 0 0 7407 0 0 7127 0 0 7223 0 0 7343 0 0 7369 0 0 7374 0 0 7272 0 0 7264 0 0 3628 0 0 55 0 0 13 0 0 6 0 0 9 0 0 9 0 0 11 0 0 4 0 0 0 0 0 1 0 0 
2 0 0 3 0 0 3 0 0 3 0 0 6 0 0 9 0 0 17 0 0 11 0 0 20 0 0 67 0 0 3551 0 0 7311 0 0 7295 0 0 7349 0 0 7387 0 0 7248 0 0 7273 0 0 7222 0 0 7296 0 0 7276 0 0 7272 0 0 7258 0 0 7324 0 0 7304 0 0 7247 0 0 7198 0 0 7191 0 0 7399 0 0 7336 0 0 7231 0 0 7291 0 0 7298 0 0 7519 0 0 7276 0 0 7490 0 0 7373 0 0 7264 0 0 7298 0 0 7338 0 0 7258 0 0 7273 0 0 7262 0 0 7312 0 0 7304 0 0 7276 0 0 7353 0 0 7285 0 0 7340 0 0 7383 0 0 7128 0 0 3661 0 0 43 0 0 12 0 0 8 0 0 9 0 0 11 0 0 10 0 0 6 0 0 6 0 0 6 0 0 
0 0 0 1 0 0 3 0 0 2 0 0 4 0 0 7 0 0 10 0 0 10 0 0 21 0 0 65 0 0 3739 0 0 7336 0 0 7204 0 0 7306 0 0 7349 0 0 7218 0 0 7253 0 0 7233 0 0 7377 0 0 7308 0 0 7314 0 0 7264 0 0 7309 0 0 7207 0 0 7205 0 0 7258 0 0 7347 0 0 7393 0 0 7347 0 0 7222 0 0 7311 0 0 7411 0 0 7249 0 0 7273 0 0 7338 0 0 7363 0 0 7207 0 0 7202 0 0 7244 0 0 7373 0 0 7337 0 0 7224 0 0 7301 0 0 7237 0 0 7260 0 0 7193 0 0 7267 0 0 7350 0 0 7277 0 0 7271 0 0 3592 0 0 64 0 0 10 0 0 12 0 0 10 0 0 11 0 0 8 0 0 8 0 0 4 0 0 3 0 0 
2 0 0 10 0 0 7 0 0 3 0 0 7 0 0 9 0 0 13 0 0 13 0 0 12 0 0 69 0 0 3652 0 0 7149 0 0 7174 0 0 7166 0 0 7246 0 0 7283 0 0 7246 0 0 7433 0 0 7294 0 0 7201 0 0 7305 0 0 7386 0 0 7331 0 0 7228 0 0 7269 0 0 7426 0 0 7194 0 0 7372 0 0 7385 0 0 7275 0 0 7234 0 0 7360 0 0 7378 0 0 7282 0 0 7188 0 0 7281 0 0 7323 0 0 7241 0 0 7413 0 0 7259 0 0 7410 0 0 7202 0 0 7254 0 0 7200 0 0 7346 0 0 7297 0 0 7344 0 0 7182 0 0 7259 0 0 7450 0 0 3679 0 0 64 0 0 12 0 0 10 0 0 10 0 0 8 0 0 5 0 0 5 0 0 3 0 0 2 0 0 
5 0 0 7 0 0 3 0 0 4 0 0 8 0 0 8 0 0 8 0 0 6 0 0 14 0 0 54 0 0 3597 0 0 7148 0 0 7462 0 0 7250 0 0 7227 0 0 7359 0 0 7407 0 0 7253 0 0 7193 0 0 7395 0 0 7306 0 0 7337 0 0 7323 0 0 7358 0 0 7302 0 0 7267 0 0 7196 0 0 7238 0 0 7291 0 0 7292 0 0 7260 0 0 7328 0 0 7293 0 0 7256 0 0 7337 0 0 7303 0 0 7262 0 0 7290 0 0 7247 0 0 7426 0 0 7371 0 0 7328 0 0 7386 0 0 7157 0 0 7301 0 0 7303 0 0 7218 0 0 7317 0 0 7311 0 0 7366 0 0 3716 0 0 62 0 0 13 0 0 8 0 0 7 0 0 9 0 0 3 0 0 7 0 0 7 0 0 6 0 0 
2 0 0 5 0 0 4 0 0 4 0 0 8 0 0 7 0 0 9 0 0 10 0 0 16 0 0 65 0 0 3558 0 0 7331 0 0 7246 0 0 7353 0 0 7269 0 0 7204 0 0 7258 0 0 7358 0 0 7327 0 0 7271 0 0 7121 0 0 7317 0 0 7295 0 0 7241 0 0 7172 0 0 7344 0 0 7217 0 0 7277 0 0 7302 0 0 7270 0 0 7179 0 0 7269 0 0 7343 0 0 7280 0 0 7354 0 0 7349 0 0 7200 0 0 7329 0 0 7279 0 0 7271 0 0 7116 0 0 7246 0 0 7315 0 0 7237 0 0 7256 0 0 7243 0 0 7298 0 0 7443 0 0 7403 0 0 7186 0 0 3751 0 0 49 0 0 10 0 0 12 0 0 5 0 0 3 0 0 6 0 0 9 0 0 6 0 0 2 0 0 
3 0 0 7 0 0 1 0 0 5 0 0 7 0 0 8 0 0 12 0 0 11 0 0 15 0 0 68 0 0 3662 0 0 7301 0 0 7294 0 0 7165 0 0 7336 0 0 7251 0 0 7349 0 0 7419 0 0 7325 0 0 7373 0 0 7377 0 0 7279 0 0 7278 0 0 7158 0 0 7417 0 0 7229 0 0 7312 0 0 7324 0 0 7214 0 0 7373 0 0 7267 0 0 7349 0 0 7219 0 0 7353 0 0 7208 0 0 7378 0 0 7345 0 0 7268 0 0 7362 0 0 7381 0 0 7209 0 0 7185 0 0 7319 0 0 7302 0 0 7230 0 0 7264 0 0 7295 0 0 7404 0 0 7218 0 0 7305 0 0 3585 0 0 64 0 0 20 0 0 9 0 0 7 0 0 8 0 0 7 0 0 2 0 0 7 0 0 10 0 0 
1 0 0 2 0 0 3 0 0 8 0 0 4 0 0 8 0 0 13 0 0 11 0 0 15 0 0 73 0 0 3626 0 0 7243 0 0 7228 0 0 7248 0 0 7207 0 0 7253 0 0 7263 0 0 7322 0 0 7270 0 0 7214 0 0 7181 0 0 7269 0 0 7263 0 0 7390 0 0 7447 0 0 7312 0 0 7399 0 0 7358 0 0 7426 0 0 7315 0 0 7300 0 0 7201 0 0 7322 0 0 7242 0 0 7340 0 0 7299 0 0 7220 0 0 7430 0 0 7160 0 0 7373 0 0 7219 0 0 7335 0 0 7248 0 0 7374 0 0 7162 0 0 7225 0 0 7346 0 0 7158 0 0 7267 0 0 7324 0 0 3622 0 0 52 0 0 15 0 0 9 0 0 7 0 0 6 0 0 4 0 0 2 0 0 0 0 0 2 0 0 
0 0 0 2 0 0 5 0 0 8 0 0 7 0 0 8 0 0 9 0 0 14 0 0 9 0 0 50 0 0 3691 0 0 7329 0 0 7227 0 0 7282 0 0 7267 0 0 7318 0 0 7352 0 0 7251 0 0 7271 0 0 7276 0 0 7382 0 0 7380 0 0 7289 0 0 7420 0 0 7359 0 0 7340 0 0 7354 0 0 7227 0 0 7297 0 0 7299 0 0 7221 0 0 7331 0 0 7311 0 0 7282 0 0 7181 0 0 7237 0 0 7221 0 0 7328 0 0 7329 0 0 7163 0 0 7297 0 0 7208 0 0 7282 0 0 7281 0 0 7319 0 0 7210 0 0 7208 0 0 7198 0 0 7298 0 0 7213 0 0 3635 0 0 50 0 0 11 0 0 13 0 0 9 0 0 7 0 0 6 0 0 5 0 0 2 0 0 2 0 0 
1 0 0 7 0 0 5 0 0 5 0 0 4 0 0 12 0 0 6 0 0 7 0 0 10 0 0 55 0 0 3651 0 0 7313 0 0 7313 0 0 7119 0 0 7270 0 0 7395 0 0 7336 0 0 7247 0 0 7358 0 0 7375 0 0 7277 0 0 7412 0 0 7443 0 0 7240 0 0 7226 0 0 7230 0 0 7317 0 0 7334 0 0 7296 0 0 7199 0 0 7309 0 0 7199 0 0 7315 0 0 7267 0 0 7390 0 0 7257 0 0 7298 0 0 7231 0 0 7385 0 0 7406 0 0 7252 0 0 7312 0 0 7348 0 0 7381 0 0 7312 0 0 7254 0 0 7211 0 0 7258 0 0 7273 0 0 7219 0 0 3679 0 0 64 0 0 9 0 0 8 0 0 10 0 0 6 0 0 3 0 0 2 0 0 7 0 0 1 0 0 
1 0 0 2 0 0 6 0 0 5 0 0 3 0 0 6 0 0 7 0 0 6 0 0 11 0 0 56 0 0 3575 0 0 7202 0 0 7270 0 0 7305 0 0 7266 0 0 7253 0 0 7173 0 0 7283 0 0 7166 0 0 7200 0 0 7325 0 0 7116 0 0 7322 0 0 7359 0 0 7262 0 0 7257 0 0 7425 0 0 7383 0 0 7061 0 0 7173 0 0 7294 0 0 7334 0 0 7213 0 0 7186 0 0 7175 0 0 7237 0 0 7364 0 0 7386 0 0 7264 0 0 7290 0 0 7361 0 0 7398 0 0 7255 0 0 7271 0 0 7365 0 0 7306 0 0 7350 0 0 7342 0 0 7228 0 0 7244 0 0 3624 0 0 56 0 0 14 0 0 6 0 0 8 0 0 5 0 0 7 0 0 5 0 0 6 0 0 5 0 0 
1 0 0 3 0 0 5 0 0 7 0 0 8 0 0 9 0 0 7 0 0 7 0 0 14 0 0 42 0 0 3654 0 0 7326 0 0 7314 0 0 7404 0 0 7334 0 0 7343 0 0 7304 0 0 7314 0 0 7265 0 0 7343 0 0 7287 0 0 7322 0 0 7157 0 0 7383 0 0 7306 0 0 7288 0 0 7198 0 0 7342 0 0 7274 0 0 7286 0 0 7262 0 0 7190 0 0 7297 0 0 7274 0 0 7377 0 0 7205 0 0 7192 0 0 7268 0 0 7430 0 0 7301 0 0 7184 0 0 7302 0 0 7236 0 0 7339 0 0 7294 0 0 7359 0 0 7313 0 0 7305 0 0 7309 0 0 7062 0 0 3582 0 0 61 0 0 9 0 0 5 0 0 3 0 0 4 0 0 5 0 0 9 0 0 6 0 0 4 0 0 
0 0 0 5 0 0 6 0 0 4 0 0 4 0 0 3 0 0 6 0 0 11 0 0 10 0 0 44 0 0 3665 0 0 7209 0 0 7193 0 0 7326 0 0 7187 0 0 7307 0 0 7359 0 0 7313 0 0 7218 0 0 7200 0 0 7343 0 0 7170 0 0 7413 0 0 7225 0 0 7266 0 0 7241 0 0 7213 0 0 7217 0 0 7301 0 0 7325 0 0 7350 0 0 7151 0 0 7278 0 0 7350 0 0 7305 0 0 7330 0 0 7320 0 0 7310 0 0 7411 0 0 7298 0 0 7199 0 0 7434 0 0 7263 0 0 7217 0 0 7237 0 0 7317 0 0 7501 0 0 7328 0 0 7334 0 0 7160 0 0 3634 0 0 52 0 0 10 0 0 5 0 0 7 0 0 4 0 0 5 0 0 3 0 0 6 0 0 5 0 0 
2 0 0 2 0 0 1 0 0 4 0 0 7 0 0 4 0 0 5 0 0 1 0 0 11 0 0 41 0 0 3618 0 0 7214 0 0 7207 0 0 7169 0 0 7108 0 0 7278 0 0 7310 0 0 7234 0 0 7297 0 0 7224 0 0 7198 0 0 7447 0 0 7251 0 0 7213 0 0 7284 0 0 7183 0 0 7243 0 0 7307 0 0 7201 0 0 7158 0 0 7267 0 0 7273 0 0 7188 0 0 7331 0 0 7063 0 0 7204 0 0 7286 0 0 7311 0 0 7233 0 0 7197 0 0 7141 0 0 7267 0 0 7189 0 0 7265 0 0 7152 0 0 7304 0 0 7224 0 0 7393 0 0 7186 0 0 7188 0 0 3684 0 0 47 0 0 5 0 0 8 0 0 3 0 0 5 0 0 5 0 0 3 0 0 3 0 0 3 0 0 
4 0 0 4 0 0 5 0 0 2 0 0 7 0 0 3 0 0 4 0 0 7 0 0 7 0 0 24 0 0 1867 0 0 3656 0 0 3696 0 0 3544 0 0 3692 0 0 3672 0 0 3597 0 0 3619 0 0 3608 0 0 3729 0 0 3697 0 0 3701 0 0 3588 0 0 3603 0 0 3678 0 0 3546 0 0 3660 0 0 3659 0 0 3739 0 0 3681 0 0 3619 0 0 3618 0 0 3637 0 0 3650 0 0 3688 0 0 3611 0 0 3663 0 0 3575 0 0 3493 0 0 3584 0 0 3708 0 0 3634 0 0 3572 0 0 3562 0 0 3713 0 0 3533 0 0 3631 0 0 3633 0 0 3674 0 0 3676 0 0 1860 0 0 32 0 0 7 0 0 9 0 0 6 0 0 1 0 0 4 0 0 3 0 0 4 0 0 3 0 0 
1 0 0 5 0 0 8 0 0 8 0 0 7 0 0 5 0 0 7 0 0 8 0 0 4 0 0 9 0 0 31 0 0 57 0 0 55 0 0 62 0 0 73 0 0 50 0 0 67 0 0 66 0 0 46 0 0 58 0 0 51 0 0 61 0 0 50 0 0 64 0 0 59 0 0 59 0 0 51 0 0 64 0 0 62 0 0 57 0 0 49 0 0 66 0 0 59 0 0 59 0 0 62 0 0 55 0 0 48 0 0 67 0 0 52 0 0 67 0 0 52 0 0 67 0 0 56 0 0 53 0 0 57 0 0 57 0 0 54 0 0 44 0 0 51 0 0 59 0 0 26 0 0 6 0 0 6 0 0 8 0 0 11 0 0 4 0 0 2 0 0 2 0 0 3 0 0 4 0 0 
1 0 0 3 0 0 8 0 0 5 0 0 3 0 0 4 0 0 4 0 0 6 0 0 7 0 0 9 0 0 9 0 0 8 0 0 11 0 0 16 0 0 10 0 0 12 0 0 13 0 0 10 0 0 21 0 0 11 0 0 9 0 0 14 0 0 11 0 0 4 0 0 12 0 0 10 0 0 13 0 0 17 0 0 19 0 0 12 0 0 12 0 0 15 0 0 11 0 0 15 0 0 15 0 0 11 0 0 13 0 0 14 0 0 17 0 0 13 0 0 14 0 0 16 0 0 12 0 0 11 0 0 8 0 0 13 0 0 8 0 0 10 0 0 8 0 0 11 0 0 7 0 0 8 0 0 4 0 0 2 0 0 3 0 0 5 0 0 4 0 0 5 0 0 0 0 0 3 0 0 
1 0 0 7 0 0 2 0 0 3 0 0 4 0 0 3 0 0 5 0 0 7 0 0 9 0 0 3 0 0 5 0 0 7 0 0 11 0 0 6 0 0 12 0 0 12 0 0 5 0 0 9 0 0 8 0 0 6 0 0 4 0 0 10 0 0 5 0 0 2 0 0 12 0 0 11 0 0 15 0 0 9 0 0 7 0 0 11 0 0 8 0 0 16 0 0 16 0 0 9 0 0 11 0 0 11 0 0 9 0 0 10 0 0 10 0 0 13 0 0 12 0 0 7 0 0 12 0 0 6 0 0 9 0 0 14 0 0 12 0 0 7 0 0 7 0 0 8 0 0 6 0 0 5 0 0 8 0 0 2 0 0 1 0 0 2 0 0 0 0 0 2 0 0 3 0 0 3 0 0 
1 0 0 7 0 0 3 0 0 3 0 0 3 0 0 3 0 0 3 0 0 6 0 0 3 0 0 1 0 0 2 0 0 5 0 0 4 0 0 8 0 0 11 0 0 14 0 0 6 0 0 7 0 0 11 0 0 12 0 0 8 0 0 4 0 0 9 0 0 10 0 0 12 0 0 7 0 0 10 0 0 8 0 0 5 0 0 5 0 0 11 0 0 7 0 0 6 0 0 10 0 0 5 0 0 10 0 0 12 0 0 5 0 0 10 0 0 7 0 0 10 0 0 10 0 0 9 0 0 8 0 0 6 0 0 12 0 0 7 0 0 8 0 0 8 0 0 6 0 0 7 0 0 4 0 0 13 0 0 5 0 0 3 0 0 3 0 0 2 0 0 2 0 0 5 0 0 5 0 0 
2 0 0 4 0 0 3 0 0 3 0 0 1 0 0 2 0 0 3 0 0 5 0 0 3 0 0 3 0 0 5 0 0 3 0 0 6 0 0 17 0 0 10 0 0 10 0 0 12 0 0 2 0 0 5 0 0 3 0 0 6 0 0 3 0 0 5 0 0 7 0 0 13 0 0 10 0 0 5 0 0 12 0 0 4 0 0 6 0 0 6 0 0 8 0 0 2 0 0 7 0 0 7 0 0 10 0 0 12 0 0 6 0 0 5 0 0 10 0 0 3 0 0 9 0 0 7 0 0 2 0 0 7 0 0 7 0 0 10 0 0 6 0 0 6 0 0 8 0 0 4 0 0 3 0 0 6 0 0 2 0 0 4 0 0 2 0 0 5 0 0 5 0 0 2 0 0 1 0 0 
1 0 0 1 0 0 0 0 0 1 0 0 4 0 0 1 0 0 0 0 0 3 0 0 0 0 0 3 0 0 3 0 0 8 0 0 8 0 0 12 0 0 5 0 0 7 0 0 5 0 0 5 0 0 2 0 0 4 0 0 1 0 0 6 0 0 4 0 0 9 0 0 4 0 0 5 0 0 4 0 0 5 0 0 7 0 0 7 0 0 4 0 0 7 0 0 1 0 0 8 0 0 9 0 0 10 0 0 8 0 0 9 0 0 4 0 0 8 0 0 3 0 0 6 0 0 6 0 0 2 0 0 4 0 0 4 0 0 10 0 0 1 0 0 4 0 0 4 0 0 4 0 0 6 0 0 5 0 0 4 0 0 1 0 0 0 0 0 2 0 0 4 0 0 3 0 0 1 0 0 
0 0 0 1 0 0 1 0 0 3 0 0 1 0 0 1 0 0 0 0 0 3 0 0 3 0 0 5 0 0 3 0 0 3 0 0 4 0 0 5 0 0 7 0 0 5 0 0 3 0 0 4 0 0 4 0 0 2 0 0 1 0 0 7 0 0 9 0 0 1 0 0 5 0 0 3 0 0 3 0 0 4 0 0 6 0 0 5 0 0 6 0 0 6 0 0 4 0 0 6 0 0 4 0 0 8 0 0 7 0 0 9 0 0 5 0 0 8 0 0 3 0 0 5 0 0 2 0 0 2 0 0 5 0 0 4 0 0 2 0 0 3 0 0 3 0 0 5 0 0 2 0 0 3 0 0 2 0 0 4 0 0 2 0 0 1 0 0 1 0 0 4 0 0 2 0 0 3 0 0 
0 0 0 1 0 0 2 0 0 3 0 0 0 0 0 1 0 0 3 0 0 3 0 0 4 0 0 3 0 0 1 0 0 4 0 0 5 0 0 2 0 0 4 0 0 6 0 0 1 0 0 4 0 0 1 0 0 0 0 0 2 0 0 7 0 0 3 0 0 3 0 0 4 0 0 2 0 0 5 0 0 4 0 0 8 0 0 4 0 0 2 0 0 6 0 0 2 0 0 4 0 0 6 0 0 9 0 0 3 0 0 5 0 0 4 0 0 9 0 0 5 0 0 2 0 0 3 0 0 1 0 0 4 0 0 8 0 0 2 0 0 5 0 0 1 0 0 7 0 0 2 0 0 0 0 0 4 0 0 3 0 0 3 0 0 0 0 0 0 0 0 1 0 0 2 0 0 0 0 0 
0 0 0 0 0 0 1 0 0 1 0 0 3 0 0 1 0 0 5 0 0 3 0 0 3 0 0 1 0 0 1 0 0 3 0 0 4 0 0 4 0 0 0 0 0 4 0 0 2 0 0 5 0 0 2 0 0 0 0 0 3 0 0 5 0 0 3 0 0 4 0 0 8 0 0 3 0 0 4 0 0 4 0 0 4 0 0 4 0 0 0 0 0 5 0 0 1 0 0 1 0 0 1 0 0 4 0 0 1 0 0 2 0 0 6 0 0 1 0 0 6 0 0 4 0 0 4 0 0 3 0 0 2 0 0 8 0 0 5 0 0 5 0 0 2 0 0 1 0 0 3 0 0 1 0 0 4 0 0 0 0 0 6 0 0 2 0 0 0 0 0 2 0 0 2 0 0 1 0 0 
