P3
# This is a dose file slice at depth 37 of 100
60 60
# now we give the maximum value of the RGB coordinates.
21610
0 0 0 1 0 0 0 0 0 0 0 0 0 0 0 0 0 0 1 0 0 0 0 0 3 0 0 1 0 0 0 0 0 0 0 0 1 0 0 2 0 0 2 0 0 4 0 0 0 0 0 1 0 0 0 0 0 1 0 0 2 0 0 4 0 0 3 0 0 2 0 0 4 0 0 3 0 0 4 0 0 2 0 0 1 0 0 1 0 0 3 0 0 1 0 0 5 0 0 5 0 0 2 0 0 2 0 0 3 0 0 1 0 0 0 0 0 1 0 0 4 0 0 1 0 0 2 0 0 4 0 0 0 0 0 1 0 0 6 0 0 2 0 0 1 0 0 0 0 0 0 0 0 0 0 0 0 0 0 1 0 0 1 0 0 0 0 0 0 0 0 1 0 0 0 0 0 1 0 0 
2 0 0 3 0 0 2 0 0 0 0 0 2 0 0 1 0 0 0 0 0 3 0 0 5 0 0 3 0 0 0 0 0 0 0 0 2 0 0 7 0 0 3 0 0 5 0 0 2 0 0 5 0 0 4 0 0 7 0 0 0 0 0 9 0 0 7 0 0 2 0 0 9 0 0 7 0 0 8 0 0 9 0 0 8 0 0 3 0 0 1 0 0 9 0 0 12 0 0 6 0 0 4 0 0 3 0 0 2 0 0 3 0 0 5 0 0 7 0 0 9 0 0 3 0 0 5 0 0 6 0 0 3 0 0 5 0 0 9 0 0 5 0 0 1 0 0 2 0 0 7 0 0 2 0 0 3 0 0 4 0 0 3 0 0 0 0 0 2 0 0 3 0 0 2 0 0 8 0 0 
2 0 0 4 0 0 3 0 0 3 0 0 0 0 0 2 0 0 1 0 0 0 0 0 3 0 0 3 0 0 1 0 0 0 0 0 3 0 0 4 0 0 6 0 0 4 0 0 2 0 0 4 0 0 6 0 0 4 0 0 2 0 0 5 0 0 4 0 0 1 0 0 8 0 0 11 0 0 5 0 0 9 0 0 5 0 0 4 0 0 6 0 0 12 0 0 9 0 0 9 0 0 7 0 0 4 0 0 7 0 0 5 0 0 4 0 0 8 0 0 7 0 0 5 0 0 4 0 0 5 0 0 4 0 0 7 0 0 4 0 0 3 0 0 3 0 0 0 0 0 8 0 0 6 0 0 3 0 0 5 0 0 3 0 0 5 0 0 3 0 0 2 0 0 5 0 0 5 0 0 
1 0 0 2 0 0 3 0 0 5 0 0 1 0 0 0 0 0 4 0 0 4 0 0 6 0 0 2 0 0 1 0 0 0 0 0 2 0 0 3 0 0 5 0 0 4 0 0 5 0 0 8 0 0 5 0 0 7 0 0 2 0 0 3 0 0 2 0 0 1 0 0 10 0 0 12 0 0 7 0 0 7 0 0 4 0 0 5 0 0 8 0 0 5 0 0 8 0 0 13 0 0 8 0 0 6 0 0 10 0 0 5 0 0 4 0 0 4 0 0 11 0 0 13 0 0 6 0 0 6 0 0 3 0 0 4 0 0 5 0 0 4 0 0 0 0 0 3 0 0 8 0 0 6 0 0 5 0 0 10 0 0 8 0 0 3 0 0 1 0 0 4 0 0 4 0 0 1 0 0 
0 0 0 2 0 0 2 0 0 3 0 0 3 0 0 4 0 0 5 0 0 3 0 0 4 0 0 6 0 0 5 0 0 1 0 0 1 0 0 2 0 0 11 0 0 6 0 0 8 0 0 6 0 0 8 0 0 7 0 0 5 0 0 4 0 0 5 0 0 5 0 0 8 0 0 8 0 0 11 0 0 6 0 0 5 0 0 8 0 0 8 0 0 9 0 0 8 0 0 8 0 0 8 0 0 9 0 0 8 0 0 8 0 0 10 0 0 6 0 0 15 0 0 12 0 0 5 0 0 7 0 0 5 0 0 7 0 0 8 0 0 7 0 0 4 0 0 4 0 0 9 0 0 7 0 0 7 0 0 4 0 0 2 0 0 4 0 0 1 0 0 4 0 0 4 0 0 0 0 0 
1 0 0 3 0 0 2 0 0 1 0 0 4 0 0 6 0 0 3 0 0 3 0 0 3 0 0 3 0 0 3 0 0 1 0 0 1 0 0 3 0 0 9 0 0 6 0 0 13 0 0 3 0 0 9 0 0 5 0 0 9 0 0 8 0 0 5 0 0 8 0 0 10 0 0 10 0 0 6 0 0 8 0 0 7 0 0 5 0 0 18 0 0 8 0 0 6 0 0 6 0 0 10 0 0 12 0 0 9 0 0 4 0 0 9 0 0 12 0 0 15 0 0 18 0 0 8 0 0 4 0 0 8 0 0 11 0 0 9 0 0 7 0 0 6 0 0 5 0 0 8 0 0 4 0 0 5 0 0 2 0 0 5 0 0 0 0 0 0 0 0 1 0 0 3 0 0 0 0 0 
0 0 0 1 0 0 4 0 0 3 0 0 2 0 0 6 0 0 1 0 0 4 0 0 3 0 0 9 0 0 5 0 0 3 0 0 5 0 0 6 0 0 7 0 0 5 0 0 12 0 0 10 0 0 10 0 0 8 0 0 17 0 0 12 0 0 8 0 0 8 0 0 18 0 0 10 0 0 13 0 0 13 0 0 12 0 0 7 0 0 11 0 0 12 0 0 10 0 0 11 0 0 13 0 0 12 0 0 8 0 0 12 0 0 9 0 0 14 0 0 13 0 0 13 0 0 4 0 0 10 0 0 16 0 0 9 0 0 11 0 0 9 0 0 5 0 0 6 0 0 8 0 0 9 0 0 3 0 0 2 0 0 3 0 0 2 0 0 3 0 0 6 0 0 0 0 0 0 0 0 
0 0 0 0 0 0 3 0 0 3 0 0 5 0 0 3 0 0 4 0 0 3 0 0 0 0 0 7 0 0 7 0 0 7 0 0 5 0 0 13 0 0 10 0 0 9 0 0 6 0 0 11 0 0 9 0 0 8 0 0 11 0 0 12 0 0 11 0 0 15 0 0 12 0 0 14 0 0 17 0 0 14 0 0 16 0 0 14 0 0 12 0 0 12 0 0 11 0 0 12 0 0 14 0 0 13 0 0 14 0 0 18 0 0 8 0 0 12 0 0 13 0 0 12 0 0 9 0 0 5 0 0 15 0 0 10 0 0 8 0 0 9 0 0 9 0 0 5 0 0 13 0 0 8 0 0 4 0 0 2 0 0 7 0 0 8 0 0 3 0 0 3 0 0 1 0 0 4 0 0 
0 0 0 2 0 0 0 0 0 5 0 0 4 0 0 2 0 0 4 0 0 7 0 0 6 0 0 5 0 0 5 0 0 8 0 0 12 0 0 14 0 0 21 0 0 12 0 0 8 0 0 17 0 0 11 0 0 17 0 0 12 0 0 16 0 0 14 0 0 22 0 0 16 0 0 24 0 0 22 0 0 17 0 0 17 0 0 23 0 0 16 0 0 12 0 0 15 0 0 12 0 0 15 0 0 17 0 0 19 0 0 14 0 0 16 0 0 16 0 0 21 0 0 14 0 0 12 0 0 14 0 0 12 0 0 10 0 0 17 0 0 18 0 0 18 0 0 8 0 0 10 0 0 6 0 0 1 0 0 2 0 0 5 0 0 4 0 0 3 0 0 3 0 0 3 0 0 3 0 0 
0 0 0 3 0 0 4 0 0 1 0 0 1 0 0 4 0 0 3 0 0 7 0 0 12 0 0 15 0 0 36 0 0 68 0 0 57 0 0 59 0 0 77 0 0 61 0 0 64 0 0 51 0 0 67 0 0 83 0 0 74 0 0 58 0 0 72 0 0 71 0 0 79 0 0 81 0 0 74 0 0 90 0 0 62 0 0 76 0 0 76 0 0 64 0 0 66 0 0 71 0 0 71 0 0 79 0 0 67 0 0 70 0 0 69 0 0 73 0 0 69 0 0 75 0 0 77 0 0 70 0 0 59 0 0 77 0 0 66 0 0 68 0 0 61 0 0 60 0 0 32 0 0 6 0 0 3 0 0 8 0 0 7 0 0 6 0 0 7 0 0 2 0 0 4 0 0 6 0 0 
0 0 0 1 0 0 3 0 0 5 0 0 3 0 0 3 0 0 5 0 0 5 0 0 10 0 0 35 0 0 2269 0 0 4569 0 0 4624 0 0 4634 0 0 4704 0 0 4636 0 0 4723 0 0 4585 0 0 4627 0 0 4593 0 0 4633 0 0 4575 0 0 4724 0 0 4596 0 0 4574 0 0 4709 0 0 4569 0 0 4602 0 0 4661 0 0 4614 0 0 4610 0 0 4742 0 0 4545 0 0 4670 0 0 4747 0 0 4587 0 0 4576 0 0 4604 0 0 4714 0 0 4551 0 0 4487 0 0 4672 0 0 4618 0 0 4711 0 0 4631 0 0 4622 0 0 4707 0 0 4663 0 0 4604 0 0 4623 0 0 2248 0 0 35 0 0 12 0 0 8 0 0 8 0 0 4 0 0 5 0 0 7 0 0 6 0 0 2 0 0 
1 0 0 0 0 0 0 0 0 3 0 0 8 0 0 7 0 0 7 0 0 7 0 0 6 0 0 63 0 0 4611 0 0 9115 0 0 9149 0 0 9265 0 0 9288 0 0 9293 0 0 9195 0 0 9192 0 0 9345 0 0 9115 0 0 9116 0 0 9286 0 0 9346 0 0 9246 0 0 9154 0 0 9248 0 0 9099 0 0 9058 0 0 9199 0 0 9166 0 0 9178 0 0 9307 0 0 9176 0 0 9285 0 0 9053 0 0 9361 0 0 9156 0 0 9171 0 0 9305 0 0 9217 0 0 9196 0 0 9155 0 0 9206 0 0 9262 0 0 9167 0 0 9258 0 0 9140 0 0 9383 0 0 9235 0 0 9209 0 0 4674 0 0 60 0 0 15 0 0 7 0 0 10 0 0 6 0 0 2 0 0 4 0 0 1 0 0 1 0 0 
2 0 0 2 0 0 3 0 0 2 0 0 5 0 0 6 0 0 9 0 0 15 0 0 10 0 0 63 0 0 4744 0 0 9306 0 0 9239 0 0 9278 0 0 9261 0 0 9356 0 0 9139 0 0 9372 0 0 9288 0 0 9325 0 0 9281 0 0 9235 0 0 9370 0 0 9269 0 0 9323 0 0 9373 0 0 9318 0 0 9230 0 0 9189 0 0 9241 0 0 9361 0 0 9267 0 0 9308 0 0 9267 0 0 9352 0 0 9354 0 0 9284 0 0 9185 0 0 9240 0 0 9260 0 0 9192 0 0 9079 0 0 9171 0 0 9235 0 0 9383 0 0 9171 0 0 9111 0 0 9285 0 0 9264 0 0 9286 0 0 4682 0 0 81 0 0 12 0 0 12 0 0 3 0 0 2 0 0 4 0 0 4 0 0 0 0 0 1 0 0 
1 0 0 6 0 0 5 0 0 4 0 0 4 0 0 9 0 0 9 0 0 12 0 0 10 0 0 57 0 0 4579 0 0 9222 0 0 9448 0 0 9205 0 0 9320 0 0 9252 0 0 9277 0 0 9198 0 0 9257 0 0 9398 0 0 9436 0 0 9366 0 0 9296 0 0 9260 0 0 9230 0 0 9266 0 0 9314 0 0 9438 0 0 9337 0 0 9476 0 0 9262 0 0 9207 0 0 9260 0 0 9276 0 0 9258 0 0 9217 0 0 9301 0 0 9362 0 0 9282 0 0 9285 0 0 9346 0 0 9256 0 0 9317 0 0 9323 0 0 9357 0 0 9373 0 0 9193 0 0 9313 0 0 9291 0 0 9242 0 0 4593 0 0 60 0 0 18 0 0 6 0 0 5 0 0 6 0 0 11 0 0 3 0 0 3 0 0 5 0 0 
1 0 0 3 0 0 6 0 0 7 0 0 2 0 0 2 0 0 7 0 0 9 0 0 14 0 0 65 0 0 4522 0 0 9334 0 0 9406 0 0 9291 0 0 9308 0 0 9271 0 0 9279 0 0 9306 0 0 9338 0 0 9236 0 0 9209 0 0 9199 0 0 9393 0 0 9407 0 0 9174 0 0 9371 0 0 9216 0 0 9374 0 0 9281 0 0 9260 0 0 9406 0 0 9476 0 0 9309 0 0 9311 0 0 9393 0 0 9390 0 0 9427 0 0 9301 0 0 9274 0 0 9339 0 0 9215 0 0 9235 0 0 9362 0 0 9212 0 0 9207 0 0 9345 0 0 9125 0 0 9271 0 0 9362 0 0 9205 0 0 4638 0 0 71 0 0 15 0 0 7 0 0 10 0 0 8 0 0 7 0 0 7 0 0 12 0 0 4 0 0 
1 0 0 4 0 0 5 0 0 5 0 0 5 0 0 3 0 0 3 0 0 11 0 0 15 0 0 72 0 0 4701 0 0 9318 0 0 9238 0 0 9173 0 0 9218 0 0 9311 0 0 9185 0 0 9355 0 0 9288 0 0 9267 0 0 9306 0 0 9430 0 0 9212 0 0 9411 0 0 9329 0 0 9380 0 0 9266 0 0 9325 0 0 9332 0 0 9185 0 0 9363 0 0 9208 0 0 9205 0 0 9306 0 0 9356 0 0 9433 0 0 9257 0 0 9446 0 0 9361 0 0 9275 0 0 9377 0 0 9253 0 0 9152 0 0 9508 0 0 9282 0 0 9367 0 0 9232 0 0 9351 0 0 9523 0 0 9217 0 0 4678 0 0 62 0 0 11 0 0 10 0 0 7 0 0 7 0 0 4 0 0 4 0 0 4 0 0 5 0 0 
2 0 0 5 0 0 6 0 0 5 0 0 10 0 0 9 0 0 11 0 0 9 0 0 15 0 0 69 0 0 4631 0 0 9365 0 0 9420 0 0 9263 0 0 9176 0 0 9420 0 0 9296 0 0 9298 0 0 9349 0 0 9342 0 0 9316 0 0 9355 0 0 9387 0 0 9271 0 0 9268 0 0 9271 0 0 9316 0 0 9396 0 0 9343 0 0 9280 0 0 9187 0 0 9369 0 0 9412 0 0 9256 0 0 9454 0 0 9272 0 0 9408 0 0 9347 0 0 9352 0 0 9273 0 0 9233 0 0 9381 0 0 9163 0 0 9283 0 0 9386 0 0 9208 0 0 9416 0 0 9245 0 0 9311 0 0 9238 0 0 4586 0 0 68 0 0 22 0 0 10 0 0 12 0 0 8 0 0 6 0 0 3 0 0 5 0 0 5 0 0 
1 0 0 8 0 0 11 0 0 14 0 0 15 0 0 8 0 0 16 0 0 13 0 0 15 0 0 65 0 0 4610 0 0 9247 0 0 9270 0 0 9325 0 0 9247 0 0 9327 0 0 9343 0 0 9319 0 0 9341 0 0 9266 0 0 9307 0 0 9222 0 0 9322 0 0 9160 0 0 9429 0 0 9356 0 0 9281 0 0 9298 0 0 9310 0 0 9203 0 0 9383 0 0 9074 0 0 9364 0 0 9367 0 0 9331 0 0 9263 0 0 9065 0 0 9386 0 0 9297 0 0 9325 0 0 9216 0 0 9220 0 0 9366 0 0 9278 0 0 9340 0 0 9362 0 0 9369 0 0 9330 0 0 9278 0 0 9222 0 0 4736 0 0 72 0 0 15 0 0 7 0 0 10 0 0 7 0 0 4 0 0 4 0 0 5 0 0 3 0 0 
0 0 0 4 0 0 7 0 0 9 0 0 14 0 0 12 0 0 14 0 0 12 0 0 16 0 0 69 0 0 4683 0 0 9322 0 0 9100 0 0 9253 0 0 9410 0 0 9209 0 0 9406 0 0 9251 0 0 9439 0 0 9278 0 0 9325 0 0 9398 0 0 9358 0 0 9259 0 0 9335 0 0 9413 0 0 9425 0 0 9248 0 0 9354 0 0 9285 0 0 9355 0 0 9443 0 0 9412 0 0 9318 0 0 9396 0 0 9345 0 0 9293 0 0 9455 0 0 9495 0 0 9246 0 0 9266 0 0 9283 0 0 9253 0 0 9371 0 0 9171 0 0 9204 0 0 9232 0 0 9373 0 0 9242 0 0 9257 0 0 4647 0 0 76 0 0 18 0 0 15 0 0 10 0 0 11 0 0 11 0 0 7 0 0 3 0 0 3 0 0 
2 0 0 9 0 0 7 0 0 2 0 0 3 0 0 6 0 0 8 0 0 12 0 0 15 0 0 76 0 0 4590 0 0 9189 0 0 9430 0 0 9319 0 0 9233 0 0 9427 0 0 9296 0 0 9335 0 0 9399 0 0 9416 0 0 9364 0 0 9225 0 0 9328 0 0 9341 0 0 9349 0 0 9512 0 0 9383 0 0 9348 0 0 9224 0 0 9442 0 0 9255 0 0 9522 0 0 9473 0 0 9384 0 0 9368 0 0 9210 0 0 9183 0 0 9230 0 0 9285 0 0 9198 0 0 9350 0 0 9402 0 0 9380 0 0 9263 0 0 9160 0 0 9211 0 0 9092 0 0 9278 0 0 9327 0 0 9185 0 0 4643 0 0 71 0 0 20 0 0 15 0 0 11 0 0 6 0 0 6 0 0 13 0 0 10 0 0 13 0 0 
3 0 0 5 0 0 5 0 0 6 0 0 8 0 0 8 0 0 9 0 0 10 0 0 11 0 0 74 0 0 4605 0 0 9114 0 0 9267 0 0 9360 0 0 9403 0 0 9325 0 0 9265 0 0 9213 0 0 9363 0 0 9358 0 0 9275 0 0 9212 0 0 9328 0 0 9286 0 0 9286 0 0 9224 0 0 9394 0 0 9130 0 0 9207 0 0 9198 0 0 9346 0 0 9356 0 0 9302 0 0 9233 0 0 9277 0 0 9279 0 0 9467 0 0 9331 0 0 9220 0 0 9287 0 0 9299 0 0 9340 0 0 9327 0 0 9334 0 0 9357 0 0 9288 0 0 9329 0 0 9244 0 0 9315 0 0 9048 0 0 4611 0 0 68 0 0 13 0 0 19 0 0 13 0 0 7 0 0 8 0 0 6 0 0 7 0 0 5 0 0 
2 0 0 8 0 0 12 0 0 11 0 0 11 0 0 10 0 0 5 0 0 10 0 0 15 0 0 71 0 0 4647 0 0 9375 0 0 9213 0 0 9289 0 0 9206 0 0 9331 0 0 9237 0 0 9148 0 0 9373 0 0 9421 0 0 9496 0 0 9264 0 0 9267 0 0 9484 0 0 9340 0 0 9318 0 0 9296 0 0 9280 0 0 9323 0 0 9236 0 0 9229 0 0 9370 0 0 9451 0 0 9241 0 0 9293 0 0 9330 0 0 9351 0 0 9216 0 0 9330 0 0 9261 0 0 9255 0 0 9368 0 0 9400 0 0 9273 0 0 9444 0 0 9306 0 0 9259 0 0 9063 0 0 9215 0 0 9290 0 0 4706 0 0 75 0 0 15 0 0 7 0 0 7 0 0 12 0 0 7 0 0 6 0 0 3 0 0 5 0 0 
4 0 0 5 0 0 6 0 0 7 0 0 6 0 0 12 0 0 16 0 0 17 0 0 12 0 0 67 0 0 4653 0 0 9205 0 0 9392 0 0 9289 0 0 9236 0 0 9212 0 0 9359 0 0 9272 0 0 9204 0 0 9414 0 0 9349 0 0 9286 0 0 9269 0 0 9347 0 0 9378 0 0 9372 0 0 9334 0 0 9385 0 0 9292 0 0 9389 0 0 9322 0 0 9283 0 0 9282 0 0 9244 0 0 9213 0 0 9383 0 0 9356 0 0 9244 0 0 9329 0 0 9374 0 0 9232 0 0 9240 0 0 9292 0 0 9263 0 0 9307 0 0 9301 0 0 9277 0 0 9313 0 0 9200 0 0 9253 0 0 4591 0 0 69 0 0 11 0 0 13 0 0 7 0 0 3 0 0 4 0 0 5 0 0 3 0 0 4 0 0 
1 0 0 6 0 0 6 0 0 5 0 0 8 0 0 6 0 0 7 0 0 3 0 0 15 0 0 67 0 0 4606 0 0 9332 0 0 9366 0 0 9247 0 0 9481 0 0 9289 0 0 9450 0 0 9358 0 0 9455 0 0 9423 0 0 9365 0 0 9454 0 0 9355 0 0 9437 0 0 9235 0 0 9320 0 0 9219 0 0 9124 0 0 9204 0 0 9270 0 0 9278 0 0 9225 0 0 9321 0 0 9341 0 0 9325 0 0 9298 0 0 9369 0 0 9357 0 0 9277 0 0 9472 0 0 9282 0 0 9282 0 0 9243 0 0 9326 0 0 9266 0 0 9438 0 0 9180 0 0 9143 0 0 9157 0 0 9207 0 0 4511 0 0 67 0 0 14 0 0 18 0 0 16 0 0 6 0 0 4 0 0 9 0 0 8 0 0 4 0 0 
3 0 0 6 0 0 9 0 0 7 0 0 7 0 0 9 0 0 9 0 0 12 0 0 18 0 0 67 0 0 4680 0 0 9267 0 0 9404 0 0 9272 0 0 9258 0 0 9347 0 0 9270 0 0 9238 0 0 9265 0 0 9307 0 0 9318 0 0 9331 0 0 9272 0 0 9333 0 0 9248 0 0 9289 0 0 9345 0 0 9287 0 0 9362 0 0 9230 0 0 9250 0 0 9263 0 0 9178 0 0 9424 0 0 9153 0 0 9332 0 0 9235 0 0 9242 0 0 9421 0 0 9393 0 0 9351 0 0 9282 0 0 9212 0 0 9289 0 0 9263 0 0 9350 0 0 9262 0 0 9304 0 0 9225 0 0 9152 0 0 4558 0 0 67 0 0 17 0 0 13 0 0 12 0 0 14 0 0 10 0 0 6 0 0 4 0 0 3 0 0 
0 0 0 2 0 0 6 0 0 6 0 0 11 0 0 8 0 0 14 0 0 12 0 0 11 0 0 61 0 0 4620 0 0 9222 0 0 9371 0 0 9319 0 0 9306 0 0 9122 0 0 9436 0 0 9227 0 0 9230 0 0 9477 0 0 9324 0 0 9285 0 0 9355 0 0 9351 0 0 9280 0 0 9142 0 0 9340 0 0 9294 0 0 9113 0 0 9368 0 0 9338 0 0 9288 0 0 9348 0 0 9448 0 0 9467 0 0 9266 0 0 9316 0 0 9255 0 0 9381 0 0 9257 0 0 9255 0 0 9207 0 0 9309 0 0 9294 0 0 9323 0 0 9209 0 0 9257 0 0 9192 0 0 9363 0 0 9135 0 0 4735 0 0 58 0 0 15 0 0 16 0 0 12 0 0 15 0 0 9 0 0 11 0 0 10 0 0 7 0 0 
1 0 0 1 0 0 2 0 0 4 0 0 2 0 0 6 0 0 11 0 0 14 0 0 18 0 0 59 0 0 4580 0 0 9301 0 0 9235 0 0 9345 0 0 9155 0 0 9366 0 0 9225 0 0 9309 0 0 9363 0 0 9093 0 0 9289 0 0 9384 0 0 9355 0 0 9412 0 0 9276 0 0 9164 0 0 9285 0 0 9474 0 0 9317 0 0 9117 0 0 9371 0 0 9444 0 0 9319 0 0 9391 0 0 9372 0 0 9200 0 0 9241 0 0 9064 0 0 9377 0 0 9147 0 0 9340 0 0 9360 0 0 9231 0 0 9327 0 0 9167 0 0 9354 0 0 9098 0 0 9341 0 0 9265 0 0 9216 0 0 4681 0 0 69 0 0 14 0 0 13 0 0 10 0 0 11 0 0 8 0 0 8 0 0 7 0 0 7 0 0 
3 0 0 6 0 0 6 0 0 1 0 0 3 0 0 5 0 0 12 0 0 16 0 0 22 0 0 82 0 0 4755 0 0 9201 0 0 9255 0 0 9280 0 0 9406 0 0 9385 0 0 9364 0 0 9359 0 0 9266 0 0 9343 0 0 9258 0 0 9322 0 0 9404 0 0 9392 0 0 9443 0 0 9324 0 0 9251 0 0 9169 0 0 9303 0 0 9391 0 0 9275 0 0 9278 0 0 9328 0 0 9173 0 0 9331 0 0 9284 0 0 9222 0 0 9276 0 0 9163 0 0 9294 0 0 9315 0 0 9150 0 0 9398 0 0 9293 0 0 9297 0 0 9461 0 0 9235 0 0 9345 0 0 9121 0 0 9201 0 0 4648 0 0 71 0 0 23 0 0 16 0 0 8 0 0 8 0 0 6 0 0 7 0 0 2 0 0 4 0 0 
0 0 0 7 0 0 8 0 0 7 0 0 5 0 0 8 0 0 6 0 0 16 0 0 18 0 0 69 0 0 4650 0 0 9161 0 0 9264 0 0 9163 0 0 9233 0 0 9228 0 0 9375 0 0 9166 0 0 9400 0 0 9336 0 0 9097 0 0 9519 0 0 9283 0 0 9180 0 0 9251 0 0 9305 0 0 9310 0 0 9179 0 0 9268 0 0 9328 0 0 9291 0 0 9198 0 0 9309 0 0 9343 0 0 9387 0 0 9231 0 0 9328 0 0 9394 0 0 9332 0 0 9345 0 0 9159 0 0 9206 0 0 9218 0 0 9216 0 0 9198 0 0 9355 0 0 9326 0 0 9247 0 0 9448 0 0 9392 0 0 4601 0 0 82 0 0 16 0 0 12 0 0 11 0 0 4 0 0 11 0 0 12 0 0 11 0 0 10 0 0 
3 0 0 6 0 0 7 0 0 7 0 0 8 0 0 9 0 0 13 0 0 3 0 0 8 0 0 77 0 0 4685 0 0 9433 0 0 9312 0 0 9330 0 0 9326 0 0 9454 0 0 9409 0 0 9447 0 0 9312 0 0 9208 0 0 9336 0 0 9475 0 0 9388 0 0 9324 0 0 9427 0 0 9223 0 0 9312 0 0 9348 0 0 9296 0 0 9447 0 0 9260 0 0 9296 0 0 9272 0 0 9400 0 0 9348 0 0 9324 0 0 9279 0 0 9235 0 0 9350 0 0 9291 0 0 9325 0 0 9277 0 0 9299 0 0 9185 0 0 9298 0 0 9275 0 0 9172 0 0 9296 0 0 9366 0 0 9361 0 0 4710 0 0 62 0 0 12 0 0 11 0 0 10 0 0 7 0 0 9 0 0 13 0 0 8 0 0 6 0 0 
2 0 0 8 0 0 9 0 0 10 0 0 11 0 0 13 0 0 12 0 0 12 0 0 18 0 0 70 0 0 4660 0 0 9367 0 0 9245 0 0 9178 0 0 9382 0 0 9410 0 0 9363 0 0 9342 0 0 9347 0 0 9153 0 0 9170 0 0 9223 0 0 9373 0 0 9370 0 0 9368 0 0 9291 0 0 9460 0 0 9436 0 0 9373 0 0 9190 0 0 9156 0 0 9335 0 0 9337 0 0 9238 0 0 8967 0 0 9496 0 0 9220 0 0 9135 0 0 9445 0 0 9421 0 0 9370 0 0 9370 0 0 9316 0 0 9303 0 0 9231 0 0 9244 0 0 9293 0 0 9281 0 0 9215 0 0 9272 0 0 4627 0 0 65 0 0 22 0 0 15 0 0 12 0 0 13 0 0 7 0 0 2 0 0 5 0 0 7 0 0 
2 0 0 7 0 0 7 0 0 5 0 0 3 0 0 11 0 0 16 0 0 9 0 0 8 0 0 89 0 0 4694 0 0 9290 0 0 9331 0 0 9276 0 0 9461 0 0 9344 0 0 9226 0 0 9237 0 0 9260 0 0 9326 0 0 9255 0 0 9486 0 0 9320 0 0 9248 0 0 9356 0 0 9428 0 0 9159 0 0 9272 0 0 9276 0 0 9321 0 0 9344 0 0 9183 0 0 9251 0 0 9320 0 0 9303 0 0 9298 0 0 9463 0 0 9299 0 0 9154 0 0 9228 0 0 9290 0 0 9307 0 0 9220 0 0 9270 0 0 9298 0 0 9309 0 0 9184 0 0 9155 0 0 9147 0 0 9317 0 0 4693 0 0 71 0 0 20 0 0 11 0 0 21 0 0 14 0 0 7 0 0 4 0 0 7 0 0 7 0 0 
3 0 0 7 0 0 5 0 0 5 0 0 8 0 0 12 0 0 17 0 0 17 0 0 14 0 0 78 0 0 4647 0 0 9206 0 0 9130 0 0 9251 0 0 9271 0 0 9255 0 0 9383 0 0 9346 0 0 9204 0 0 9409 0 0 9315 0 0 9494 0 0 9299 0 0 9220 0 0 9181 0 0 9276 0 0 9407 0 0 9200 0 0 9276 0 0 9266 0 0 9256 0 0 9367 0 0 9409 0 0 9280 0 0 9263 0 0 9386 0 0 9275 0 0 9425 0 0 9306 0 0 9246 0 0 9223 0 0 9359 0 0 9321 0 0 9354 0 0 9407 0 0 9340 0 0 9319 0 0 9339 0 0 9408 0 0 9264 0 0 4597 0 0 64 0 0 20 0 0 20 0 0 6 0 0 7 0 0 11 0 0 10 0 0 4 0 0 6 0 0 
3 0 0 8 0 0 3 0 0 6 0 0 9 0 0 6 0 0 5 0 0 14 0 0 14 0 0 58 0 0 4694 0 0 9438 0 0 9195 0 0 9339 0 0 9195 0 0 9286 0 0 9184 0 0 9459 0 0 9240 0 0 9286 0 0 9291 0 0 9207 0 0 9452 0 0 9105 0 0 9280 0 0 9513 0 0 9339 0 0 9309 0 0 9167 0 0 9397 0 0 9324 0 0 9347 0 0 9199 0 0 9400 0 0 9276 0 0 9282 0 0 9355 0 0 9451 0 0 9414 0 0 9289 0 0 9445 0 0 9518 0 0 9252 0 0 9300 0 0 9365 0 0 9387 0 0 9334 0 0 9299 0 0 9356 0 0 9306 0 0 4709 0 0 70 0 0 13 0 0 11 0 0 17 0 0 12 0 0 14 0 0 14 0 0 8 0 0 7 0 0 
1 0 0 3 0 0 3 0 0 8 0 0 7 0 0 6 0 0 8 0 0 14 0 0 15 0 0 75 0 0 4615 0 0 9160 0 0 9263 0 0 9300 0 0 9438 0 0 9279 0 0 9351 0 0 9279 0 0 9315 0 0 9366 0 0 9152 0 0 9198 0 0 9340 0 0 9342 0 0 9421 0 0 9330 0 0 9371 0 0 9298 0 0 9347 0 0 9414 0 0 9185 0 0 9372 0 0 9328 0 0 9142 0 0 9157 0 0 9430 0 0 9248 0 0 9309 0 0 9252 0 0 9452 0 0 9420 0 0 9280 0 0 9276 0 0 9229 0 0 9131 0 0 9222 0 0 9259 0 0 9263 0 0 9139 0 0 9228 0 0 4632 0 0 82 0 0 19 0 0 14 0 0 14 0 0 11 0 0 9 0 0 12 0 0 11 0 0 9 0 0 
0 0 0 4 0 0 4 0 0 8 0 0 7 0 0 11 0 0 11 0 0 11 0 0 26 0 0 75 0 0 4612 0 0 9300 0 0 9186 0 0 9329 0 0 9245 0 0 9352 0 0 9297 0 0 9356 0 0 9302 0 0 9385 0 0 9435 0 0 9333 0 0 9264 0 0 9318 0 0 9435 0 0 9239 0 0 9305 0 0 9319 0 0 9395 0 0 9343 0 0 9319 0 0 9280 0 0 9307 0 0 9366 0 0 9217 0 0 9365 0 0 9325 0 0 9240 0 0 9423 0 0 9288 0 0 9158 0 0 9144 0 0 9289 0 0 9313 0 0 9182 0 0 9268 0 0 9323 0 0 9051 0 0 9190 0 0 9204 0 0 4678 0 0 72 0 0 15 0 0 9 0 0 10 0 0 6 0 0 4 0 0 9 0 0 5 0 0 2 0 0 
3 0 0 6 0 0 8 0 0 7 0 0 9 0 0 10 0 0 14 0 0 16 0 0 23 0 0 74 0 0 4745 0 0 9278 0 0 9335 0 0 9152 0 0 9355 0 0 9285 0 0 9305 0 0 9176 0 0 9352 0 0 9226 0 0 9373 0 0 9325 0 0 9250 0 0 9296 0 0 9340 0 0 9244 0 0 9283 0 0 9173 0 0 9264 0 0 9160 0 0 9404 0 0 9410 0 0 9342 0 0 9216 0 0 9414 0 0 9297 0 0 9332 0 0 9310 0 0 9423 0 0 9231 0 0 9328 0 0 9232 0 0 9283 0 0 9185 0 0 9233 0 0 9332 0 0 9213 0 0 9211 0 0 9293 0 0 9106 0 0 4658 0 0 69 0 0 19 0 0 18 0 0 13 0 0 8 0 0 7 0 0 8 0 0 4 0 0 4 0 0 
3 0 0 9 0 0 9 0 0 8 0 0 13 0 0 15 0 0 12 0 0 19 0 0 28 0 0 83 0 0 4606 0 0 9300 0 0 9360 0 0 9268 0 0 9247 0 0 9291 0 0 9364 0 0 9231 0 0 9255 0 0 9284 0 0 9350 0 0 9335 0 0 9386 0 0 9240 0 0 9270 0 0 9170 0 0 9286 0 0 9399 0 0 9326 0 0 9404 0 0 9358 0 0 9416 0 0 9251 0 0 9407 0 0 9251 0 0 9219 0 0 9213 0 0 9385 0 0 9247 0 0 9247 0 0 9252 0 0 9309 0 0 9359 0 0 9395 0 0 9305 0 0 9201 0 0 9469 0 0 9332 0 0 9201 0 0 9290 0 0 4594 0 0 78 0 0 25 0 0 13 0 0 11 0 0 10 0 0 10 0 0 8 0 0 11 0 0 4 0 0 
3 0 0 7 0 0 6 0 0 4 0 0 6 0 0 6 0 0 12 0 0 18 0 0 25 0 0 84 0 0 4612 0 0 9271 0 0 9367 0 0 9255 0 0 9447 0 0 9296 0 0 9481 0 0 9371 0 0 9133 0 0 9304 0 0 9200 0 0 9407 0 0 9323 0 0 9448 0 0 9137 0 0 9216 0 0 9293 0 0 9322 0 0 9249 0 0 9236 0 0 9328 0 0 9205 0 0 9364 0 0 9236 0 0 9312 0 0 9283 0 0 9257 0 0 9377 0 0 9344 0 0 9215 0 0 9193 0 0 9311 0 0 9325 0 0 9192 0 0 9281 0 0 9369 0 0 9243 0 0 9290 0 0 9194 0 0 9330 0 0 4728 0 0 76 0 0 15 0 0 12 0 0 8 0 0 6 0 0 5 0 0 5 0 0 5 0 0 6 0 0 
3 0 0 8 0 0 2 0 0 2 0 0 5 0 0 14 0 0 20 0 0 11 0 0 15 0 0 81 0 0 4697 0 0 9156 0 0 9294 0 0 9189 0 0 9363 0 0 9242 0 0 9390 0 0 9284 0 0 9509 0 0 9175 0 0 9433 0 0 9333 0 0 9242 0 0 9280 0 0 9357 0 0 9272 0 0 9339 0 0 9311 0 0 9385 0 0 9204 0 0 9361 0 0 9368 0 0 9206 0 0 9236 0 0 9255 0 0 9365 0 0 9246 0 0 9317 0 0 9155 0 0 9183 0 0 9314 0 0 9206 0 0 9270 0 0 9437 0 0 9341 0 0 9393 0 0 9345 0 0 9246 0 0 9217 0 0 9015 0 0 4616 0 0 80 0 0 20 0 0 16 0 0 11 0 0 12 0 0 9 0 0 7 0 0 8 0 0 3 0 0 
2 0 0 5 0 0 7 0 0 2 0 0 4 0 0 7 0 0 11 0 0 14 0 0 13 0 0 71 0 0 4650 0 0 9037 0 0 9441 0 0 9384 0 0 9230 0 0 9407 0 0 9446 0 0 9176 0 0 9293 0 0 9355 0 0 9309 0 0 9207 0 0 9298 0 0 9258 0 0 9211 0 0 9334 0 0 9398 0 0 9362 0 0 9390 0 0 9363 0 0 9315 0 0 9305 0 0 9419 0 0 9403 0 0 9265 0 0 9276 0 0 9344 0 0 9209 0 0 9350 0 0 9446 0 0 9298 0 0 9270 0 0 9316 0 0 9395 0 0 9278 0 0 9307 0 0 9251 0 0 9400 0 0 9133 0 0 9214 0 0 4639 0 0 70 0 0 18 0 0 12 0 0 16 0 0 12 0 0 10 0 0 7 0 0 6 0 0 7 0 0 
1 0 0 5 0 0 4 0 0 7 0 0 8 0 0 7 0 0 9 0 0 13 0 0 24 0 0 66 0 0 4661 0 0 9216 0 0 9323 0 0 9214 0 0 9376 0 0 9416 0 0 9229 0 0 9316 0 0 9167 0 0 9531 0 0 9251 0 0 9378 0 0 9433 0 0 9239 0 0 9351 0 0 9338 0 0 9201 0 0 9382 0 0 9502 0 0 9465 0 0 9383 0 0 9307 0 0 9267 0 0 9218 0 0 9310 0 0 9346 0 0 9432 0 0 9413 0 0 9088 0 0 9153 0 0 9326 0 0 9193 0 0 9269 0 0 9242 0 0 9295 0 0 9465 0 0 9338 0 0 9280 0 0 9159 0 0 9217 0 0 4624 0 0 79 0 0 18 0 0 16 0 0 12 0 0 18 0 0 13 0 0 7 0 0 10 0 0 7 0 0 
1 0 0 4 0 0 2 0 0 3 0 0 4 0 0 6 0 0 7 0 0 10 0 0 13 0 0 74 0 0 4666 0 0 9276 0 0 9383 0 0 9226 0 0 9360 0 0 9374 0 0 9406 0 0 9202 0 0 9248 0 0 9245 0 0 9223 0 0 9247 0 0 9402 0 0 9140 0 0 9225 0 0 9311 0 0 9489 0 0 9348 0 0 9411 0 0 9321 0 0 9341 0 0 9224 0 0 9378 0 0 9144 0 0 9277 0 0 9290 0 0 9236 0 0 9229 0 0 9128 0 0 9417 0 0 9289 0 0 9274 0 0 9208 0 0 9102 0 0 9269 0 0 9156 0 0 9320 0 0 9207 0 0 9173 0 0 9183 0 0 4751 0 0 58 0 0 16 0 0 12 0 0 8 0 0 12 0 0 9 0 0 20 0 0 9 0 0 4 0 0 
0 0 0 4 0 0 3 0 0 5 0 0 8 0 0 6 0 0 12 0 0 15 0 0 25 0 0 82 0 0 4605 0 0 9327 0 0 9343 0 0 9290 0 0 9278 0 0 9332 0 0 9319 0 0 9547 0 0 9256 0 0 9305 0 0 9477 0 0 9250 0 0 9295 0 0 9222 0 0 9391 0 0 9338 0 0 9423 0 0 9231 0 0 9132 0 0 9353 0 0 9352 0 0 9189 0 0 9388 0 0 9346 0 0 9238 0 0 9396 0 0 9414 0 0 9126 0 0 9151 0 0 9259 0 0 9121 0 0 9343 0 0 9132 0 0 9333 0 0 9366 0 0 9307 0 0 9399 0 0 9431 0 0 9185 0 0 9196 0 0 4632 0 0 85 0 0 23 0 0 17 0 0 13 0 0 5 0 0 3 0 0 8 0 0 8 0 0 4 0 0 
3 0 0 5 0 0 6 0 0 8 0 0 8 0 0 9 0 0 7 0 0 18 0 0 19 0 0 81 0 0 4713 0 0 9084 0 0 9218 0 0 9357 0 0 9375 0 0 9335 0 0 9278 0 0 9401 0 0 9367 0 0 9136 0 0 9172 0 0 9307 0 0 9165 0 0 9315 0 0 9154 0 0 9469 0 0 9187 0 0 9313 0 0 9179 0 0 9109 0 0 9148 0 0 9173 0 0 9398 0 0 9366 0 0 9297 0 0 9333 0 0 9341 0 0 9242 0 0 9343 0 0 9231 0 0 9276 0 0 9274 0 0 9406 0 0 9307 0 0 9186 0 0 9364 0 0 9307 0 0 9198 0 0 9245 0 0 9352 0 0 4600 0 0 72 0 0 16 0 0 17 0 0 9 0 0 8 0 0 4 0 0 7 0 0 8 0 0 7 0 0 
1 0 0 2 0 0 6 0 0 6 0 0 5 0 0 5 0 0 10 0 0 12 0 0 17 0 0 72 0 0 4724 0 0 9034 0 0 9361 0 0 9229 0 0 9173 0 0 9292 0 0 9336 0 0 9280 0 0 9138 0 0 9145 0 0 9284 0 0 9381 0 0 9196 0 0 9424 0 0 9407 0 0 9315 0 0 9274 0 0 9238 0 0 9475 0 0 9329 0 0 9342 0 0 9247 0 0 9277 0 0 9283 0 0 9263 0 0 9314 0 0 9310 0 0 9269 0 0 9412 0 0 9393 0 0 9262 0 0 9183 0 0 9403 0 0 9297 0 0 9388 0 0 9284 0 0 9364 0 0 9403 0 0 9226 0 0 9187 0 0 4579 0 0 74 0 0 16 0 0 14 0 0 6 0 0 10 0 0 7 0 0 4 0 0 11 0 0 8 0 0 
3 0 0 6 0 0 8 0 0 7 0 0 9 0 0 9 0 0 6 0 0 12 0 0 11 0 0 78 0 0 4695 0 0 9307 0 0 9344 0 0 9574 0 0 9106 0 0 9411 0 0 9284 0 0 9269 0 0 9272 0 0 9348 0 0 9380 0 0 9296 0 0 9174 0 0 9427 0 0 9427 0 0 9271 0 0 9276 0 0 9483 0 0 9424 0 0 9186 0 0 9331 0 0 9316 0 0 9285 0 0 9130 0 0 9223 0 0 9210 0 0 9247 0 0 9336 0 0 9366 0 0 9287 0 0 9390 0 0 9332 0 0 9189 0 0 9225 0 0 9322 0 0 9285 0 0 9209 0 0 9341 0 0 9333 0 0 9373 0 0 4741 0 0 66 0 0 18 0 0 10 0 0 10 0 0 7 0 0 3 0 0 2 0 0 3 0 0 2 0 0 
1 0 0 2 0 0 5 0 0 11 0 0 5 0 0 6 0 0 9 0 0 8 0 0 16 0 0 70 0 0 4666 0 0 9190 0 0 9289 0 0 9357 0 0 9379 0 0 9303 0 0 9220 0 0 9235 0 0 9283 0 0 9200 0 0 9229 0 0 9276 0 0 9318 0 0 9250 0 0 9305 0 0 9234 0 0 9450 0 0 9276 0 0 9339 0 0 9214 0 0 9286 0 0 9367 0 0 9295 0 0 9277 0 0 9298 0 0 9216 0 0 9379 0 0 9262 0 0 9309 0 0 9279 0 0 9272 0 0 9338 0 0 9328 0 0 9380 0 0 9473 0 0 9219 0 0 9379 0 0 9276 0 0 9330 0 0 9245 0 0 4713 0 0 67 0 0 12 0 0 7 0 0 6 0 0 7 0 0 6 0 0 3 0 0 4 0 0 5 0 0 
0 0 0 2 0 0 4 0 0 6 0 0 5 0 0 6 0 0 9 0 0 16 0 0 12 0 0 62 0 0 4651 0 0 9198 0 0 9296 0 0 9343 0 0 9233 0 0 9307 0 0 9229 0 0 9354 0 0 9238 0 0 9202 0 0 9174 0 0 9146 0 0 9179 0 0 9336 0 0 9300 0 0 9317 0 0 9259 0 0 9213 0 0 9209 0 0 9353 0 0 9367 0 0 9277 0 0 9125 0 0 9329 0 0 9232 0 0 9300 0 0 9326 0 0 9364 0 0 9404 0 0 9283 0 0 9244 0 0 9324 0 0 9374 0 0 9358 0 0 9401 0 0 9313 0 0 9333 0 0 9332 0 0 9411 0 0 9190 0 0 4751 0 0 71 0 0 10 0 0 9 0 0 2 0 0 8 0 0 5 0 0 6 0 0 4 0 0 2 0 0 
1 0 0 3 0 0 2 0 0 7 0 0 5 0 0 7 0 0 9 0 0 7 0 0 13 0 0 59 0 0 4610 0 0 9134 0 0 9337 0 0 9400 0 0 9236 0 0 9382 0 0 9234 0 0 9280 0 0 9177 0 0 9289 0 0 9113 0 0 9184 0 0 9249 0 0 9169 0 0 9491 0 0 9104 0 0 9299 0 0 9213 0 0 9168 0 0 9294 0 0 9335 0 0 9114 0 0 9190 0 0 9319 0 0 9234 0 0 9198 0 0 9341 0 0 9191 0 0 9246 0 0 9138 0 0 9107 0 0 9229 0 0 9265 0 0 9269 0 0 9114 0 0 9139 0 0 9278 0 0 9277 0 0 9320 0 0 9266 0 0 4564 0 0 50 0 0 6 0 0 7 0 0 5 0 0 4 0 0 4 0 0 3 0 0 5 0 0 4 0 0 
0 0 0 1 0 0 5 0 0 2 0 0 2 0 0 7 0 0 12 0 0 11 0 0 6 0 0 39 0 0 2401 0 0 4603 0 0 4676 0 0 4513 0 0 4622 0 0 4614 0 0 4643 0 0 4668 0 0 4576 0 0 4677 0 0 4576 0 0 4637 0 0 4686 0 0 4695 0 0 4536 0 0 4562 0 0 4626 0 0 4607 0 0 4713 0 0 4635 0 0 4589 0 0 4669 0 0 4633 0 0 4693 0 0 4542 0 0 4650 0 0 4643 0 0 4664 0 0 4643 0 0 4663 0 0 4688 0 0 4661 0 0 4703 0 0 4693 0 0 4691 0 0 4649 0 0 4713 0 0 4605 0 0 4679 0 0 4549 0 0 2391 0 0 29 0 0 5 0 0 6 0 0 8 0 0 6 0 0 7 0 0 8 0 0 5 0 0 3 0 0 
1 0 0 2 0 0 3 0 0 3 0 0 4 0 0 7 0 0 9 0 0 12 0 0 12 0 0 4 0 0 30 0 0 56 0 0 58 0 0 71 0 0 68 0 0 68 0 0 75 0 0 76 0 0 72 0 0 50 0 0 70 0 0 62 0 0 70 0 0 74 0 0 75 0 0 82 0 0 79 0 0 58 0 0 86 0 0 86 0 0 63 0 0 60 0 0 59 0 0 89 0 0 75 0 0 74 0 0 61 0 0 84 0 0 76 0 0 74 0 0 74 0 0 56 0 0 78 0 0 74 0 0 71 0 0 83 0 0 65 0 0 72 0 0 58 0 0 72 0 0 42 0 0 9 0 0 6 0 0 5 0 0 8 0 0 6 0 0 5 0 0 5 0 0 3 0 0 2 0 0 
1 0 0 5 0 0 6 0 0 5 0 0 7 0 0 4 0 0 5 0 0 7 0 0 10 0 0 6 0 0 6 0 0 5 0 0 4 0 0 16 0 0 13 0 0 14 0 0 14 0 0 20 0 0 17 0 0 12 0 0 14 0 0 17 0 0 12 0 0 20 0 0 10 0 0 19 0 0 23 0 0 12 0 0 13 0 0 13 0 0 18 0 0 16 0 0 12 0 0 17 0 0 16 0 0 19 0 0 16 0 0 20 0 0 21 0 0 23 0 0 14 0 0 14 0 0 22 0 0 12 0 0 18 0 0 23 0 0 14 0 0 24 0 0 11 0 0 11 0 0 10 0 0 7 0 0 4 0 0 10 0 0 8 0 0 8 0 0 5 0 0 7 0 0 4 0 0 2 0 0 
2 0 0 3 0 0 8 0 0 4 0 0 7 0 0 7 0 0 7 0 0 5 0 0 1 0 0 4 0 0 1 0 0 10 0 0 4 0 0 7 0 0 5 0 0 17 0 0 12 0 0 3 0 0 13 0 0 12 0 0 11 0 0 10 0 0 10 0 0 13 0 0 11 0 0 8 0 0 15 0 0 17 0 0 12 0 0 8 0 0 12 0 0 18 0 0 11 0 0 13 0 0 7 0 0 10 0 0 13 0 0 16 0 0 14 0 0 14 0 0 13 0 0 15 0 0 9 0 0 12 0 0 8 0 0 17 0 0 13 0 0 16 0 0 13 0 0 11 0 0 10 0 0 6 0 0 2 0 0 5 0 0 11 0 0 7 0 0 5 0 0 5 0 0 5 0 0 2 0 0 
3 0 0 5 0 0 3 0 0 6 0 0 6 0 0 5 0 0 6 0 0 4 0 0 4 0 0 3 0 0 1 0 0 7 0 0 6 0 0 9 0 0 8 0 0 11 0 0 7 0 0 9 0 0 8 0 0 12 0 0 14 0 0 8 0 0 8 0 0 8 0 0 14 0 0 10 0 0 5 0 0 10 0 0 18 0 0 10 0 0 10 0 0 12 0 0 9 0 0 10 0 0 7 0 0 11 0 0 12 0 0 15 0 0 12 0 0 11 0 0 9 0 0 16 0 0 6 0 0 10 0 0 11 0 0 8 0 0 14 0 0 5 0 0 9 0 0 12 0 0 9 0 0 10 0 0 8 0 0 7 0 0 2 0 0 9 0 0 1 0 0 2 0 0 3 0 0 6 0 0 
2 0 0 4 0 0 3 0 0 2 0 0 6 0 0 2 0 0 5 0 0 6 0 0 3 0 0 6 0 0 2 0 0 7 0 0 7 0 0 10 0 0 4 0 0 10 0 0 8 0 0 11 0 0 12 0 0 6 0 0 9 0 0 7 0 0 6 0 0 7 0 0 11 0 0 9 0 0 9 0 0 13 0 0 10 0 0 12 0 0 9 0 0 11 0 0 9 0 0 6 0 0 5 0 0 12 0 0 15 0 0 9 0 0 9 0 0 11 0 0 10 0 0 12 0 0 7 0 0 13 0 0 12 0 0 4 0 0 8 0 0 12 0 0 3 0 0 8 0 0 9 0 0 4 0 0 5 0 0 3 0 0 6 0 0 1 0 0 8 0 0 3 0 0 6 0 0 2 0 0 
0 0 0 4 0 0 2 0 0 4 0 0 2 0 0 3 0 0 3 0 0 1 0 0 3 0 0 4 0 0 0 0 0 6 0 0 12 0 0 7 0 0 5 0 0 7 0 0 11 0 0 15 0 0 10 0 0 6 0 0 7 0 0 5 0 0 8 0 0 4 0 0 8 0 0 7 0 0 12 0 0 8 0 0 9 0 0 10 0 0 5 0 0 7 0 0 9 0 0 4 0 0 11 0 0 8 0 0 6 0 0 6 0 0 10 0 0 11 0 0 7 0 0 6 0 0 7 0 0 12 0 0 8 0 0 5 0 0 12 0 0 8 0 0 5 0 0 3 0 0 7 0 0 6 0 0 0 0 0 6 0 0 3 0 0 2 0 0 3 0 0 2 0 0 5 0 0 6 0 0 
1 0 0 2 0 0 3 0 0 0 0 0 2 0 0 1 0 0 3 0 0 2 0 0 4 0 0 0 0 0 1 0 0 6 0 0 8 0 0 3 0 0 8 0 0 3 0 0 6 0 0 6 0 0 14 0 0 6 0 0 5 0 0 4 0 0 5 0 0 7 0 0 9 0 0 5 0 0 14 0 0 9 0 0 3 0 0 7 0 0 9 0 0 11 0 0 9 0 0 7 0 0 11 0 0 6 0 0 7 0 0 6 0 0 10 0 0 5 0 0 10 0 0 6 0 0 6 0 0 11 0 0 9 0 0 7 0 0 11 0 0 5 0 0 7 0 0 5 0 0 5 0 0 3 0 0 2 0 0 0 0 0 6 0 0 2 0 0 0 0 0 3 0 0 3 0 0 3 0 0 
2 0 0 1 0 0 2 0 0 2 0 0 4 0 0 4 0 0 1 0 0 6 0 0 1 0 0 0 0 0 2 0 0 6 0 0 4 0 0 6 0 0 6 0 0 7 0 0 2 0 0 9 0 0 12 0 0 7 0 0 6 0 0 5 0 0 1 0 0 8 0 0 8 0 0 5 0 0 11 0 0 7 0 0 5 0 0 5 0 0 11 0 0 12 0 0 8 0 0 10 0 0 7 0 0 5 0 0 4 0 0 4 0 0 9 0 0 7 0 0 4 0 0 4 0 0 5 0 0 7 0 0 3 0 0 11 0 0 7 0 0 5 0 0 8 0 0 3 0 0 6 0 0 5 0 0 2 0 0 2 0 0 2 0 0 5 0 0 0 0 0 0 0 0 1 0 0 0 0 0 
0 0 0 3 0 0 4 0 0 3 0 0 5 0 0 3 0 0 2 0 0 2 0 0 2 0 0 3 0 0 4 0 0 2 0 0 1 0 0 3 0 0 4 0 0 6 0 0 8 0 0 7 0 0 6 0 0 4 0 0 9 0 0 6 0 0 2 0 0 10 0 0 7 0 0 9 0 0 3 0 0 6 0 0 4 0 0 5 0 0 10 0 0 10 0 0 5 0 0 7 0 0 9 0 0 9 0 0 3 0 0 7 0 0 4 0 0 6 0 0 5 0 0 6 0 0 7 0 0 2 0 0 5 0 0 5 0 0 6 0 0 4 0 0 6 0 0 6 0 0 4 0 0 2 0 0 1 0 0 7 0 0 1 0 0 6 0 0 1 0 0 0 0 0 0 0 0 0 0 0 
