P3
# This is a dose file slice at depth 56 of 100
60 60
# now we give the maximum value of the RGB coordinates.
21610
0 0 0 0 0 0 2 0 0 1 0 0 0 0 0 0 0 0 0 0 0 1 0 0 1 0 0 0 0 0 0 0 0 0 0 0 0 0 0 0 0 0 3 0 0 1 0 0 2 0 0 1 0 0 0 0 0 2 0 0 2 0 0 2 0 0 1 0 0 0 0 0 1 0 0 4 0 0 2 0 0 2 0 0 1 0 0 0 0 0 2 0 0 0 0 0 3 0 0 1 0 0 1 0 0 2 0 0 1 0 0 2 0 0 0 0 0 2 0 0 0 0 0 1 0 0 0 0 0 0 0 0 1 0 0 1 0 0 0 0 0 1 0 0 0 0 0 1 0 0 0 0 0 0 0 0 0 0 0 1 0 0 0 0 0 0 0 0 0 0 0 0 0 0 0 0 0 0 0 0 
0 0 0 2 0 0 1 0 0 2 0 0 2 0 0 2 0 0 0 0 0 2 0 0 0 0 0 4 0 0 3 0 0 1 0 0 1 0 0 0 0 0 1 0 0 7 0 0 4 0 0 3 0 0 0 0 0 3 0 0 4 0 0 3 0 0 2 0 0 3 0 0 4 0 0 2 0 0 2 0 0 3 0 0 4 0 0 3 0 0 3 0 0 1 0 0 4 0 0 1 0 0 6 0 0 5 0 0 4 0 0 3 0 0 3 0 0 4 0 0 2 0 0 2 0 0 2 0 0 3 0 0 1 0 0 4 0 0 2 0 0 3 0 0 3 0 0 2 0 0 0 0 0 2 0 0 6 0 0 1 0 0 0 0 0 0 0 0 0 0 0 1 0 0 0 0 0 0 0 0 
0 0 0 2 0 0 2 0 0 1 0 0 1 0 0 2 0 0 0 0 0 3 0 0 0 0 0 1 0 0 3 0 0 1 0 0 5 0 0 2 0 0 0 0 0 6 0 0 7 0 0 3 0 0 2 0 0 0 0 0 5 0 0 3 0 0 0 0 0 1 0 0 6 0 0 2 0 0 5 0 0 3 0 0 2 0 0 3 0 0 5 0 0 3 0 0 1 0 0 2 0 0 7 0 0 5 0 0 4 0 0 6 0 0 5 0 0 6 0 0 6 0 0 1 0 0 4 0 0 1 0 0 7 0 0 2 0 0 7 0 0 5 0 0 1 0 0 3 0 0 4 0 0 3 0 0 5 0 0 2 0 0 0 0 0 3 0 0 2 0 0 0 0 0 0 0 0 1 0 0 
0 0 0 1 0 0 3 0 0 0 0 0 2 0 0 1 0 0 0 0 0 1 0 0 2 0 0 1 0 0 3 0 0 1 0 0 4 0 0 6 0 0 1 0 0 5 0 0 5 0 0 5 0 0 3 0 0 1 0 0 4 0 0 2 0 0 6 0 0 1 0 0 9 0 0 3 0 0 6 0 0 2 0 0 5 0 0 6 0 0 9 0 0 7 0 0 5 0 0 4 0 0 6 0 0 10 0 0 1 0 0 8 0 0 8 0 0 3 0 0 3 0 0 1 0 0 4 0 0 2 0 0 3 0 0 4 0 0 10 0 0 3 0 0 3 0 0 4 0 0 4 0 0 6 0 0 1 0 0 2 0 0 2 0 0 3 0 0 1 0 0 1 0 0 1 0 0 2 0 0 
1 0 0 5 0 0 5 0 0 3 0 0 2 0 0 1 0 0 1 0 0 1 0 0 3 0 0 2 0 0 3 0 0 5 0 0 6 0 0 7 0 0 7 0 0 0 0 0 7 0 0 3 0 0 6 0 0 4 0 0 5 0 0 1 0 0 3 0 0 7 0 0 7 0 0 6 0 0 8 0 0 4 0 0 5 0 0 3 0 0 7 0 0 7 0 0 6 0 0 4 0 0 11 0 0 8 0 0 5 0 0 8 0 0 1 0 0 2 0 0 1 0 0 3 0 0 2 0 0 5 0 0 7 0 0 9 0 0 9 0 0 4 0 0 2 0 0 1 0 0 4 0 0 8 0 0 3 0 0 4 0 0 3 0 0 3 0 0 0 0 0 2 0 0 3 0 0 1 0 0 
0 0 0 0 0 0 4 0 0 1 0 0 2 0 0 3 0 0 1 0 0 4 0 0 3 0 0 3 0 0 2 0 0 2 0 0 11 0 0 8 0 0 6 0 0 4 0 0 6 0 0 5 0 0 7 0 0 3 0 0 9 0 0 2 0 0 6 0 0 2 0 0 8 0 0 6 0 0 4 0 0 4 0 0 6 0 0 4 0 0 5 0 0 5 0 0 3 0 0 4 0 0 9 0 0 6 0 0 8 0 0 5 0 0 3 0 0 5 0 0 4 0 0 5 0 0 7 0 0 8 0 0 6 0 0 11 0 0 3 0 0 2 0 0 3 0 0 1 0 0 6 0 0 4 0 0 3 0 0 5 0 0 1 0 0 1 0 0 1 0 0 1 0 0 2 0 0 2 0 0 
0 0 0 0 0 0 0 0 0 0 0 0 0 0 0 1 0 0 2 0 0 2 0 0 1 0 0 4 0 0 4 0 0 5 0 0 10 0 0 5 0 0 7 0 0 4 0 0 7 0 0 8 0 0 7 0 0 5 0 0 6 0 0 5 0 0 6 0 0 8 0 0 8 0 0 7 0 0 8 0 0 7 0 0 2 0 0 4 0 0 10 0 0 8 0 0 6 0 0 5 0 0 9 0 0 9 0 0 10 0 0 5 0 0 6 0 0 7 0 0 5 0 0 3 0 0 6 0 0 10 0 0 4 0 0 6 0 0 5 0 0 2 0 0 4 0 0 6 0 0 6 0 0 3 0 0 2 0 0 1 0 0 1 0 0 2 0 0 4 0 0 2 0 0 0 0 0 2 0 0 
0 0 0 2 0 0 0 0 0 1 0 0 2 0 0 4 0 0 3 0 0 6 0 0 6 0 0 6 0 0 4 0 0 4 0 0 11 0 0 5 0 0 7 0 0 6 0 0 10 0 0 8 0 0 5 0 0 5 0 0 6 0 0 12 0 0 3 0 0 11 0 0 7 0 0 11 0 0 10 0 0 8 0 0 6 0 0 10 0 0 12 0 0 15 0 0 11 0 0 9 0 0 8 0 0 7 0 0 6 0 0 9 0 0 8 0 0 8 0 0 3 0 0 6 0 0 10 0 0 10 0 0 5 0 0 3 0 0 7 0 0 7 0 0 7 0 0 6 0 0 7 0 0 2 0 0 0 0 0 2 0 0 2 0 0 0 0 0 3 0 0 4 0 0 3 0 0 2 0 0 
1 0 0 3 0 0 3 0 0 2 0 0 6 0 0 4 0 0 9 0 0 6 0 0 5 0 0 4 0 0 7 0 0 8 0 0 10 0 0 12 0 0 4 0 0 11 0 0 11 0 0 15 0 0 8 0 0 8 0 0 7 0 0 9 0 0 9 0 0 16 0 0 14 0 0 10 0 0 11 0 0 4 0 0 5 0 0 9 0 0 12 0 0 17 0 0 20 0 0 12 0 0 12 0 0 8 0 0 12 0 0 12 0 0 13 0 0 17 0 0 14 0 0 10 0 0 19 0 0 10 0 0 6 0 0 9 0 0 13 0 0 10 0 0 7 0 0 5 0 0 10 0 0 6 0 0 1 0 0 2 0 0 4 0 0 4 0 0 5 0 0 6 0 0 3 0 0 2 0 0 
1 0 0 3 0 0 1 0 0 4 0 0 1 0 0 3 0 0 2 0 0 6 0 0 9 0 0 7 0 0 32 0 0 47 0 0 41 0 0 53 0 0 45 0 0 58 0 0 47 0 0 54 0 0 50 0 0 47 0 0 47 0 0 60 0 0 46 0 0 43 0 0 56 0 0 44 0 0 52 0 0 39 0 0 42 0 0 56 0 0 56 0 0 49 0 0 50 0 0 45 0 0 57 0 0 60 0 0 44 0 0 51 0 0 51 0 0 49 0 0 54 0 0 49 0 0 50 0 0 56 0 0 59 0 0 50 0 0 49 0 0 45 0 0 51 0 0 47 0 0 30 0 0 7 0 0 2 0 0 6 0 0 4 0 0 3 0 0 3 0 0 4 0 0 1 0 0 0 0 0 
1 0 0 3 0 0 2 0 0 1 0 0 1 0 0 0 0 0 6 0 0 6 0 0 7 0 0 20 0 0 1535 0 0 2980 0 0 3046 0 0 3052 0 0 3042 0 0 3076 0 0 3008 0 0 3124 0 0 3060 0 0 3136 0 0 3110 0 0 3024 0 0 3103 0 0 3069 0 0 3109 0 0 3173 0 0 3129 0 0 3064 0 0 3068 0 0 3074 0 0 3079 0 0 3056 0 0 3045 0 0 3006 0 0 2982 0 0 3044 0 0 3128 0 0 3030 0 0 3072 0 0 3052 0 0 3074 0 0 3057 0 0 3183 0 0 3097 0 0 3163 0 0 3093 0 0 3050 0 0 3074 0 0 3126 0 0 3120 0 0 1577 0 0 23 0 0 5 0 0 7 0 0 1 0 0 2 0 0 0 0 0 1 0 0 4 0 0 2 0 0 
1 0 0 1 0 0 1 0 0 3 0 0 6 0 0 3 0 0 5 0 0 7 0 0 6 0 0 44 0 0 3037 0 0 5975 0 0 6135 0 0 6106 0 0 5937 0 0 6010 0 0 6030 0 0 6031 0 0 6057 0 0 5974 0 0 6016 0 0 6166 0 0 6112 0 0 6138 0 0 6097 0 0 6139 0 0 6058 0 0 6101 0 0 6103 0 0 6153 0 0 6080 0 0 6054 0 0 6233 0 0 6154 0 0 6098 0 0 6037 0 0 6002 0 0 6062 0 0 6132 0 0 6119 0 0 6099 0 0 6137 0 0 6159 0 0 6093 0 0 6174 0 0 5940 0 0 6104 0 0 6150 0 0 5970 0 0 6148 0 0 3067 0 0 42 0 0 7 0 0 4 0 0 4 0 0 3 0 0 3 0 0 6 0 0 11 0 0 5 0 0 
2 0 0 7 0 0 1 0 0 4 0 0 2 0 0 3 0 0 3 0 0 9 0 0 10 0 0 45 0 0 3141 0 0 6111 0 0 6085 0 0 6054 0 0 6093 0 0 6155 0 0 6112 0 0 6081 0 0 6136 0 0 6095 0 0 6153 0 0 6181 0 0 6089 0 0 6120 0 0 6032 0 0 6165 0 0 6040 0 0 6148 0 0 6159 0 0 6218 0 0 6303 0 0 6058 0 0 6107 0 0 6155 0 0 6139 0 0 6139 0 0 6067 0 0 6135 0 0 6227 0 0 6165 0 0 6056 0 0 6148 0 0 6083 0 0 6217 0 0 6139 0 0 6140 0 0 6052 0 0 6054 0 0 6101 0 0 6093 0 0 3093 0 0 36 0 0 5 0 0 3 0 0 7 0 0 2 0 0 1 0 0 1 0 0 4 0 0 1 0 0 
0 0 0 2 0 0 1 0 0 1 0 0 0 0 0 2 0 0 2 0 0 6 0 0 10 0 0 48 0 0 3092 0 0 5999 0 0 6008 0 0 6143 0 0 6105 0 0 6101 0 0 6122 0 0 6226 0 0 6082 0 0 6038 0 0 6210 0 0 6203 0 0 6133 0 0 6098 0 0 6014 0 0 6192 0 0 6165 0 0 6140 0 0 5972 0 0 6170 0 0 6181 0 0 6228 0 0 6128 0 0 6128 0 0 6317 0 0 6130 0 0 6176 0 0 6039 0 0 6074 0 0 6226 0 0 6080 0 0 6079 0 0 6172 0 0 6156 0 0 6126 0 0 6043 0 0 6037 0 0 6140 0 0 6176 0 0 6074 0 0 3012 0 0 36 0 0 6 0 0 10 0 0 1 0 0 2 0 0 3 0 0 4 0 0 1 0 0 1 0 0 
1 0 0 4 0 0 6 0 0 3 0 0 1 0 0 4 0 0 6 0 0 4 0 0 5 0 0 41 0 0 3002 0 0 5993 0 0 6068 0 0 6105 0 0 6048 0 0 6103 0 0 6099 0 0 6187 0 0 6171 0 0 6233 0 0 6179 0 0 6198 0 0 6126 0 0 6106 0 0 6217 0 0 6161 0 0 6198 0 0 6135 0 0 6105 0 0 6140 0 0 6163 0 0 6135 0 0 6246 0 0 6279 0 0 6042 0 0 6073 0 0 6119 0 0 6079 0 0 6032 0 0 6093 0 0 6064 0 0 6146 0 0 6094 0 0 6179 0 0 6199 0 0 6129 0 0 6182 0 0 6109 0 0 6100 0 0 6073 0 0 3110 0 0 49 0 0 10 0 0 9 0 0 7 0 0 8 0 0 4 0 0 4 0 0 0 0 0 1 0 0 
1 0 0 3 0 0 5 0 0 3 0 0 5 0 0 2 0 0 4 0 0 6 0 0 6 0 0 40 0 0 3060 0 0 5925 0 0 6144 0 0 6043 0 0 6160 0 0 6194 0 0 6076 0 0 6186 0 0 6136 0 0 6046 0 0 6191 0 0 6107 0 0 6220 0 0 6172 0 0 6117 0 0 6197 0 0 6075 0 0 6089 0 0 6112 0 0 6124 0 0 6031 0 0 6111 0 0 6086 0 0 6086 0 0 6188 0 0 6095 0 0 6164 0 0 6159 0 0 6131 0 0 6172 0 0 6134 0 0 6263 0 0 6040 0 0 6109 0 0 6116 0 0 6112 0 0 6128 0 0 5994 0 0 6327 0 0 5995 0 0 3169 0 0 46 0 0 14 0 0 3 0 0 11 0 0 7 0 0 7 0 0 3 0 0 2 0 0 4 0 0 
3 0 0 6 0 0 4 0 0 1 0 0 3 0 0 6 0 0 2 0 0 6 0 0 7 0 0 52 0 0 3195 0 0 6119 0 0 5977 0 0 6055 0 0 6018 0 0 6040 0 0 6177 0 0 6160 0 0 6127 0 0 6111 0 0 6187 0 0 6203 0 0 6145 0 0 6096 0 0 6084 0 0 6240 0 0 5936 0 0 6086 0 0 6124 0 0 6059 0 0 6132 0 0 6167 0 0 6119 0 0 6153 0 0 6054 0 0 6091 0 0 6245 0 0 6211 0 0 6097 0 0 6159 0 0 6175 0 0 6181 0 0 6118 0 0 6107 0 0 6186 0 0 6184 0 0 6011 0 0 6035 0 0 6130 0 0 6051 0 0 3018 0 0 50 0 0 13 0 0 8 0 0 3 0 0 4 0 0 3 0 0 4 0 0 3 0 0 3 0 0 
2 0 0 6 0 0 6 0 0 5 0 0 0 0 0 0 0 0 4 0 0 6 0 0 10 0 0 43 0 0 3097 0 0 5923 0 0 6129 0 0 6124 0 0 6032 0 0 6088 0 0 6079 0 0 6171 0 0 6019 0 0 6185 0 0 6142 0 0 6101 0 0 6125 0 0 6156 0 0 6070 0 0 6202 0 0 6148 0 0 6145 0 0 6040 0 0 6029 0 0 6139 0 0 6182 0 0 6157 0 0 6167 0 0 6176 0 0 6053 0 0 6144 0 0 6031 0 0 6141 0 0 6117 0 0 6039 0 0 6192 0 0 6099 0 0 6241 0 0 6035 0 0 6091 0 0 6030 0 0 6091 0 0 6194 0 0 6051 0 0 3051 0 0 53 0 0 7 0 0 3 0 0 5 0 0 11 0 0 4 0 0 6 0 0 1 0 0 3 0 0 
1 0 0 2 0 0 5 0 0 8 0 0 5 0 0 5 0 0 8 0 0 7 0 0 7 0 0 41 0 0 3096 0 0 6167 0 0 6085 0 0 6072 0 0 6108 0 0 6217 0 0 6207 0 0 6166 0 0 6139 0 0 6128 0 0 6251 0 0 6057 0 0 6018 0 0 6182 0 0 6149 0 0 6229 0 0 6129 0 0 6033 0 0 6193 0 0 6087 0 0 6084 0 0 6082 0 0 6131 0 0 6048 0 0 6113 0 0 6105 0 0 6137 0 0 6015 0 0 6196 0 0 6166 0 0 5918 0 0 6185 0 0 6144 0 0 6189 0 0 6174 0 0 6235 0 0 6229 0 0 6010 0 0 6161 0 0 6032 0 0 3025 0 0 44 0 0 9 0 0 6 0 0 7 0 0 5 0 0 4 0 0 3 0 0 5 0 0 5 0 0 
3 0 0 9 0 0 4 0 0 5 0 0 3 0 0 4 0 0 6 0 0 7 0 0 12 0 0 43 0 0 3076 0 0 6158 0 0 6035 0 0 6114 0 0 6104 0 0 6031 0 0 6102 0 0 6125 0 0 6198 0 0 5994 0 0 6121 0 0 6199 0 0 6183 0 0 6240 0 0 6107 0 0 6080 0 0 6129 0 0 6167 0 0 6111 0 0 6157 0 0 6081 0 0 6149 0 0 6155 0 0 6207 0 0 6134 0 0 6094 0 0 6007 0 0 6113 0 0 6116 0 0 6249 0 0 6091 0 0 6004 0 0 6021 0 0 6048 0 0 6200 0 0 6198 0 0 6171 0 0 6219 0 0 6060 0 0 6192 0 0 3126 0 0 43 0 0 15 0 0 10 0 0 8 0 0 5 0 0 5 0 0 5 0 0 3 0 0 4 0 0 
1 0 0 3 0 0 4 0 0 6 0 0 5 0 0 5 0 0 2 0 0 6 0 0 16 0 0 48 0 0 3057 0 0 6105 0 0 6116 0 0 6283 0 0 6174 0 0 6043 0 0 6179 0 0 6043 0 0 6112 0 0 6145 0 0 6137 0 0 6131 0 0 6186 0 0 6177 0 0 6103 0 0 6180 0 0 6156 0 0 6210 0 0 6125 0 0 6195 0 0 6151 0 0 6142 0 0 6167 0 0 6193 0 0 6133 0 0 6175 0 0 6050 0 0 6082 0 0 6096 0 0 6227 0 0 6098 0 0 6124 0 0 6121 0 0 6153 0 0 6208 0 0 6114 0 0 6043 0 0 6141 0 0 6155 0 0 6040 0 0 3029 0 0 50 0 0 8 0 0 11 0 0 8 0 0 8 0 0 9 0 0 5 0 0 5 0 0 3 0 0 
1 0 0 2 0 0 6 0 0 5 0 0 6 0 0 5 0 0 7 0 0 5 0 0 14 0 0 47 0 0 2986 0 0 5929 0 0 6048 0 0 6016 0 0 6124 0 0 6084 0 0 6067 0 0 6272 0 0 6184 0 0 5978 0 0 6173 0 0 6135 0 0 6077 0 0 6158 0 0 6172 0 0 6176 0 0 6139 0 0 6080 0 0 6268 0 0 6094 0 0 6105 0 0 6079 0 0 6122 0 0 6127 0 0 6118 0 0 6235 0 0 6130 0 0 6218 0 0 6104 0 0 6100 0 0 6063 0 0 6152 0 0 6320 0 0 6142 0 0 6032 0 0 6099 0 0 6082 0 0 6147 0 0 6251 0 0 6068 0 0 3043 0 0 47 0 0 12 0 0 12 0 0 5 0 0 5 0 0 6 0 0 6 0 0 5 0 0 6 0 0 
3 0 0 7 0 0 8 0 0 4 0 0 7 0 0 6 0 0 6 0 0 4 0 0 7 0 0 54 0 0 3047 0 0 6083 0 0 6011 0 0 6147 0 0 6174 0 0 6045 0 0 6145 0 0 6188 0 0 6092 0 0 6203 0 0 6093 0 0 6069 0 0 6369 0 0 6098 0 0 6148 0 0 6180 0 0 6246 0 0 6163 0 0 6103 0 0 6109 0 0 6156 0 0 6085 0 0 6194 0 0 6153 0 0 6128 0 0 6067 0 0 6109 0 0 6086 0 0 6140 0 0 6118 0 0 6076 0 0 6024 0 0 6200 0 0 6146 0 0 6091 0 0 6028 0 0 6135 0 0 6251 0 0 6135 0 0 6075 0 0 3034 0 0 43 0 0 19 0 0 8 0 0 8 0 0 8 0 0 4 0 0 3 0 0 2 0 0 0 0 0 
3 0 0 1 0 0 4 0 0 6 0 0 6 0 0 10 0 0 5 0 0 8 0 0 9 0 0 49 0 0 3042 0 0 6029 0 0 6156 0 0 6099 0 0 6251 0 0 6060 0 0 6009 0 0 6204 0 0 6112 0 0 6209 0 0 6137 0 0 6035 0 0 6148 0 0 6226 0 0 6166 0 0 6077 0 0 6103 0 0 6083 0 0 5978 0 0 6206 0 0 6067 0 0 6164 0 0 6115 0 0 6050 0 0 6181 0 0 6053 0 0 6095 0 0 6217 0 0 6045 0 0 6148 0 0 6086 0 0 6114 0 0 6087 0 0 6138 0 0 6137 0 0 6184 0 0 6163 0 0 6052 0 0 6240 0 0 6160 0 0 3092 0 0 50 0 0 10 0 0 10 0 0 7 0 0 12 0 0 6 0 0 5 0 0 4 0 0 6 0 0 
0 0 0 4 0 0 4 0 0 9 0 0 7 0 0 11 0 0 9 0 0 10 0 0 8 0 0 46 0 0 3005 0 0 6137 0 0 6235 0 0 6100 0 0 6080 0 0 6094 0 0 6199 0 0 6162 0 0 6065 0 0 6214 0 0 6251 0 0 6232 0 0 6173 0 0 6121 0 0 6080 0 0 6053 0 0 6159 0 0 6187 0 0 6156 0 0 6196 0 0 6162 0 0 6131 0 0 6102 0 0 6119 0 0 6202 0 0 6250 0 0 6100 0 0 6117 0 0 6117 0 0 6248 0 0 6113 0 0 6102 0 0 6157 0 0 6086 0 0 6221 0 0 6118 0 0 6170 0 0 6077 0 0 6129 0 0 6096 0 0 3032 0 0 53 0 0 20 0 0 12 0 0 7 0 0 7 0 0 10 0 0 6 0 0 4 0 0 5 0 0 
2 0 0 3 0 0 3 0 0 5 0 0 8 0 0 4 0 0 7 0 0 6 0 0 9 0 0 55 0 0 3069 0 0 6033 0 0 6030 0 0 6139 0 0 6118 0 0 6282 0 0 6182 0 0 6111 0 0 6122 0 0 6056 0 0 6116 0 0 6181 0 0 6155 0 0 6012 0 0 6066 0 0 6097 0 0 6108 0 0 6101 0 0 6081 0 0 6054 0 0 6187 0 0 6133 0 0 6144 0 0 6210 0 0 6063 0 0 6090 0 0 6172 0 0 6197 0 0 6121 0 0 6068 0 0 6184 0 0 6250 0 0 6052 0 0 6142 0 0 6063 0 0 6205 0 0 6195 0 0 6179 0 0 6085 0 0 6084 0 0 3000 0 0 60 0 0 7 0 0 14 0 0 9 0 0 7 0 0 5 0 0 5 0 0 5 0 0 3 0 0 
0 0 0 2 0 0 5 0 0 5 0 0 7 0 0 7 0 0 2 0 0 11 0 0 14 0 0 49 0 0 3028 0 0 6093 0 0 6135 0 0 6123 0 0 6090 0 0 6185 0 0 6261 0 0 6078 0 0 6133 0 0 6155 0 0 5958 0 0 6022 0 0 6124 0 0 6112 0 0 6216 0 0 6227 0 0 6212 0 0 6133 0 0 6095 0 0 6198 0 0 6258 0 0 6144 0 0 6099 0 0 6152 0 0 6040 0 0 6045 0 0 6093 0 0 6224 0 0 6188 0 0 6187 0 0 6107 0 0 6175 0 0 6107 0 0 6088 0 0 6287 0 0 5996 0 0 6148 0 0 6004 0 0 6180 0 0 6040 0 0 3116 0 0 57 0 0 13 0 0 14 0 0 9 0 0 4 0 0 5 0 0 2 0 0 3 0 0 6 0 0 
3 0 0 6 0 0 4 0 0 4 0 0 4 0 0 9 0 0 8 0 0 7 0 0 14 0 0 65 0 0 3043 0 0 6138 0 0 6133 0 0 6066 0 0 6175 0 0 6039 0 0 6141 0 0 6151 0 0 6113 0 0 6173 0 0 6110 0 0 6112 0 0 6217 0 0 6240 0 0 6134 0 0 6127 0 0 6143 0 0 6134 0 0 6050 0 0 6072 0 0 6125 0 0 6117 0 0 6144 0 0 6018 0 0 6255 0 0 6106 0 0 6171 0 0 6101 0 0 6170 0 0 6111 0 0 6163 0 0 6100 0 0 6273 0 0 6088 0 0 6162 0 0 6037 0 0 6175 0 0 6214 0 0 6182 0 0 5949 0 0 3066 0 0 62 0 0 13 0 0 11 0 0 5 0 0 0 0 0 4 0 0 7 0 0 7 0 0 9 0 0 
1 0 0 5 0 0 5 0 0 7 0 0 8 0 0 10 0 0 10 0 0 9 0 0 6 0 0 51 0 0 3035 0 0 5954 0 0 6179 0 0 6274 0 0 6200 0 0 6246 0 0 5997 0 0 6076 0 0 6159 0 0 6080 0 0 6133 0 0 6168 0 0 6084 0 0 6007 0 0 6143 0 0 6124 0 0 6118 0 0 6096 0 0 6097 0 0 6016 0 0 6079 0 0 6026 0 0 6004 0 0 6022 0 0 6001 0 0 6058 0 0 6217 0 0 6162 0 0 6156 0 0 6142 0 0 6030 0 0 6130 0 0 6226 0 0 6190 0 0 6076 0 0 6229 0 0 6176 0 0 6071 0 0 6107 0 0 6181 0 0 3034 0 0 50 0 0 7 0 0 5 0 0 3 0 0 5 0 0 8 0 0 7 0 0 3 0 0 3 0 0 
2 0 0 5 0 0 6 0 0 3 0 0 4 0 0 11 0 0 10 0 0 6 0 0 9 0 0 52 0 0 3089 0 0 6025 0 0 6153 0 0 6089 0 0 6131 0 0 5919 0 0 6099 0 0 6123 0 0 6052 0 0 6212 0 0 5961 0 0 6226 0 0 6102 0 0 6078 0 0 6095 0 0 6095 0 0 6038 0 0 6128 0 0 6078 0 0 6315 0 0 6130 0 0 6186 0 0 6269 0 0 6137 0 0 6210 0 0 6094 0 0 6078 0 0 6005 0 0 6178 0 0 6114 0 0 6062 0 0 6111 0 0 6175 0 0 5977 0 0 6231 0 0 6198 0 0 6078 0 0 6017 0 0 6095 0 0 5960 0 0 3057 0 0 54 0 0 12 0 0 10 0 0 7 0 0 8 0 0 8 0 0 8 0 0 3 0 0 5 0 0 
3 0 0 7 0 0 7 0 0 8 0 0 5 0 0 9 0 0 12 0 0 7 0 0 10 0 0 50 0 0 3099 0 0 6032 0 0 6160 0 0 6025 0 0 6173 0 0 6036 0 0 6123 0 0 6075 0 0 6153 0 0 6102 0 0 6066 0 0 6129 0 0 6162 0 0 6096 0 0 6058 0 0 6049 0 0 6000 0 0 6168 0 0 6154 0 0 6173 0 0 6168 0 0 6088 0 0 6174 0 0 6176 0 0 6063 0 0 6255 0 0 6119 0 0 6106 0 0 6023 0 0 6106 0 0 6170 0 0 6181 0 0 6149 0 0 6204 0 0 6200 0 0 6259 0 0 6226 0 0 6272 0 0 6146 0 0 6188 0 0 3007 0 0 41 0 0 11 0 0 12 0 0 11 0 0 5 0 0 4 0 0 7 0 0 5 0 0 5 0 0 
4 0 0 8 0 0 5 0 0 5 0 0 8 0 0 7 0 0 7 0 0 11 0 0 12 0 0 57 0 0 3053 0 0 6047 0 0 6102 0 0 6205 0 0 6035 0 0 6064 0 0 6071 0 0 6175 0 0 6155 0 0 6177 0 0 6106 0 0 6163 0 0 6002 0 0 6176 0 0 6161 0 0 6007 0 0 6098 0 0 6284 0 0 6156 0 0 6123 0 0 6258 0 0 6044 0 0 6086 0 0 6121 0 0 6025 0 0 6210 0 0 5929 0 0 6134 0 0 6131 0 0 6245 0 0 6126 0 0 6153 0 0 6107 0 0 6108 0 0 6184 0 0 6157 0 0 6150 0 0 6052 0 0 6054 0 0 6087 0 0 2961 0 0 46 0 0 10 0 0 7 0 0 10 0 0 4 0 0 6 0 0 6 0 0 6 0 0 3 0 0 
3 0 0 4 0 0 1 0 0 4 0 0 4 0 0 7 0 0 4 0 0 5 0 0 10 0 0 49 0 0 3274 0 0 6123 0 0 6266 0 0 6237 0 0 6090 0 0 6124 0 0 6168 0 0 6147 0 0 6129 0 0 6109 0 0 6147 0 0 6247 0 0 6125 0 0 6102 0 0 6057 0 0 6151 0 0 6082 0 0 6210 0 0 6196 0 0 6174 0 0 6075 0 0 6138 0 0 6165 0 0 6196 0 0 6013 0 0 5998 0 0 6177 0 0 6210 0 0 6209 0 0 6035 0 0 6056 0 0 6205 0 0 6040 0 0 6184 0 0 6041 0 0 6161 0 0 6282 0 0 6026 0 0 6132 0 0 6047 0 0 3142 0 0 50 0 0 14 0 0 13 0 0 7 0 0 8 0 0 4 0 0 5 0 0 3 0 0 1 0 0 
1 0 0 3 0 0 5 0 0 3 0 0 8 0 0 7 0 0 10 0 0 12 0 0 13 0 0 47 0 0 3090 0 0 6116 0 0 6231 0 0 6114 0 0 6127 0 0 6130 0 0 6077 0 0 6191 0 0 6187 0 0 6269 0 0 6057 0 0 6143 0 0 6253 0 0 6131 0 0 6140 0 0 6078 0 0 6134 0 0 6135 0 0 6084 0 0 6176 0 0 6112 0 0 6012 0 0 6055 0 0 6137 0 0 5895 0 0 6075 0 0 6080 0 0 6082 0 0 6112 0 0 6026 0 0 6093 0 0 5982 0 0 6268 0 0 6295 0 0 6151 0 0 6150 0 0 6102 0 0 6165 0 0 6125 0 0 6086 0 0 3206 0 0 44 0 0 12 0 0 12 0 0 5 0 0 6 0 0 4 0 0 4 0 0 6 0 0 1 0 0 
1 0 0 3 0 0 5 0 0 0 0 0 4 0 0 4 0 0 10 0 0 8 0 0 14 0 0 47 0 0 3081 0 0 6076 0 0 6160 0 0 6155 0 0 6142 0 0 6119 0 0 6096 0 0 6225 0 0 6233 0 0 6094 0 0 5989 0 0 6132 0 0 6216 0 0 6223 0 0 6115 0 0 6002 0 0 6091 0 0 6041 0 0 6193 0 0 6227 0 0 6218 0 0 6119 0 0 6160 0 0 6154 0 0 6185 0 0 6117 0 0 5994 0 0 6133 0 0 6190 0 0 6124 0 0 5971 0 0 6077 0 0 6219 0 0 6141 0 0 6069 0 0 6174 0 0 6169 0 0 6034 0 0 6122 0 0 6035 0 0 3013 0 0 48 0 0 13 0 0 8 0 0 9 0 0 8 0 0 4 0 0 3 0 0 2 0 0 4 0 0 
0 0 0 1 0 0 2 0 0 4 0 0 5 0 0 7 0 0 8 0 0 8 0 0 14 0 0 43 0 0 3057 0 0 6018 0 0 6219 0 0 6190 0 0 6276 0 0 6272 0 0 6242 0 0 6212 0 0 6153 0 0 6102 0 0 6225 0 0 6341 0 0 6106 0 0 6150 0 0 6198 0 0 6058 0 0 6077 0 0 6110 0 0 6137 0 0 6068 0 0 6086 0 0 6237 0 0 6018 0 0 6142 0 0 6061 0 0 6301 0 0 6109 0 0 6286 0 0 6103 0 0 6176 0 0 6214 0 0 6084 0 0 6125 0 0 6152 0 0 6149 0 0 6151 0 0 6025 0 0 6153 0 0 6033 0 0 6137 0 0 3017 0 0 46 0 0 17 0 0 12 0 0 8 0 0 6 0 0 6 0 0 2 0 0 6 0 0 7 0 0 
2 0 0 3 0 0 3 0 0 3 0 0 4 0 0 6 0 0 4 0 0 11 0 0 12 0 0 50 0 0 3010 0 0 6105 0 0 6097 0 0 6201 0 0 6143 0 0 6157 0 0 6174 0 0 6104 0 0 6191 0 0 6041 0 0 6032 0 0 6093 0 0 6033 0 0 6211 0 0 6087 0 0 6088 0 0 6145 0 0 6052 0 0 6072 0 0 6082 0 0 6155 0 0 6129 0 0 6246 0 0 6086 0 0 6085 0 0 6215 0 0 6150 0 0 6133 0 0 6168 0 0 6124 0 0 6153 0 0 6237 0 0 6117 0 0 6115 0 0 6118 0 0 6077 0 0 5951 0 0 6150 0 0 6128 0 0 6026 0 0 3030 0 0 49 0 0 11 0 0 8 0 0 6 0 0 12 0 0 1 0 0 4 0 0 3 0 0 5 0 0 
0 0 0 4 0 0 2 0 0 1 0 0 6 0 0 7 0 0 5 0 0 15 0 0 12 0 0 51 0 0 2963 0 0 6047 0 0 6070 0 0 6211 0 0 6119 0 0 6167 0 0 6152 0 0 6033 0 0 6041 0 0 6116 0 0 6040 0 0 6132 0 0 6128 0 0 6138 0 0 6211 0 0 6129 0 0 6204 0 0 6052 0 0 6097 0 0 6105 0 0 6061 0 0 6112 0 0 6212 0 0 6234 0 0 6238 0 0 6217 0 0 6067 0 0 6158 0 0 5987 0 0 6166 0 0 6089 0 0 6147 0 0 6016 0 0 6304 0 0 6225 0 0 6065 0 0 6164 0 0 6087 0 0 6104 0 0 6074 0 0 3061 0 0 50 0 0 12 0 0 12 0 0 9 0 0 5 0 0 11 0 0 3 0 0 1 0 0 5 0 0 
0 0 0 3 0 0 3 0 0 3 0 0 6 0 0 8 0 0 10 0 0 11 0 0 12 0 0 57 0 0 2993 0 0 6221 0 0 6041 0 0 6032 0 0 6200 0 0 6264 0 0 6178 0 0 6134 0 0 6178 0 0 6065 0 0 6096 0 0 6233 0 0 6083 0 0 6111 0 0 6058 0 0 6062 0 0 6119 0 0 6104 0 0 6057 0 0 6166 0 0 6221 0 0 6156 0 0 6206 0 0 6167 0 0 6128 0 0 6017 0 0 6112 0 0 6075 0 0 6129 0 0 6174 0 0 6213 0 0 6060 0 0 6044 0 0 6107 0 0 6133 0 0 6104 0 0 6082 0 0 6148 0 0 6161 0 0 6116 0 0 3049 0 0 58 0 0 14 0 0 9 0 0 10 0 0 4 0 0 3 0 0 3 0 0 3 0 0 2 0 0 
2 0 0 5 0 0 2 0 0 3 0 0 2 0 0 7 0 0 8 0 0 8 0 0 7 0 0 46 0 0 3001 0 0 6086 0 0 6099 0 0 6239 0 0 6154 0 0 6068 0 0 6203 0 0 6135 0 0 6084 0 0 6027 0 0 6144 0 0 6088 0 0 6126 0 0 6043 0 0 6146 0 0 6214 0 0 6106 0 0 6283 0 0 6160 0 0 6040 0 0 6104 0 0 6145 0 0 6037 0 0 6219 0 0 6172 0 0 6083 0 0 6000 0 0 6204 0 0 6106 0 0 6204 0 0 6264 0 0 6138 0 0 6208 0 0 6116 0 0 6129 0 0 6115 0 0 6124 0 0 6083 0 0 6184 0 0 6063 0 0 3050 0 0 57 0 0 12 0 0 8 0 0 4 0 0 8 0 0 4 0 0 4 0 0 3 0 0 6 0 0 
1 0 0 4 0 0 2 0 0 9 0 0 4 0 0 10 0 0 10 0 0 12 0 0 8 0 0 49 0 0 3105 0 0 6100 0 0 6246 0 0 6133 0 0 6211 0 0 6144 0 0 6129 0 0 6224 0 0 6185 0 0 6184 0 0 6148 0 0 6174 0 0 6029 0 0 6135 0 0 6029 0 0 6168 0 0 6063 0 0 6159 0 0 6151 0 0 6071 0 0 6124 0 0 6277 0 0 6215 0 0 6086 0 0 6243 0 0 6113 0 0 6172 0 0 6196 0 0 6132 0 0 6013 0 0 6220 0 0 6001 0 0 6119 0 0 6168 0 0 6166 0 0 6233 0 0 6161 0 0 5955 0 0 6175 0 0 6121 0 0 3034 0 0 57 0 0 10 0 0 8 0 0 5 0 0 4 0 0 4 0 0 5 0 0 3 0 0 4 0 0 
1 0 0 2 0 0 3 0 0 6 0 0 8 0 0 4 0 0 2 0 0 5 0 0 8 0 0 43 0 0 3054 0 0 6029 0 0 6098 0 0 6085 0 0 6137 0 0 6163 0 0 6196 0 0 6110 0 0 6254 0 0 6252 0 0 6117 0 0 6178 0 0 6096 0 0 6185 0 0 6126 0 0 6104 0 0 6043 0 0 6202 0 0 6109 0 0 6138 0 0 6214 0 0 6139 0 0 6075 0 0 6024 0 0 6068 0 0 6196 0 0 6169 0 0 6138 0 0 6033 0 0 6257 0 0 6226 0 0 6209 0 0 6182 0 0 6048 0 0 6351 0 0 6110 0 0 6179 0 0 6121 0 0 6130 0 0 6203 0 0 2978 0 0 50 0 0 16 0 0 11 0 0 5 0 0 1 0 0 7 0 0 2 0 0 3 0 0 6 0 0 
1 0 0 1 0 0 3 0 0 5 0 0 6 0 0 10 0 0 7 0 0 3 0 0 9 0 0 46 0 0 3109 0 0 6112 0 0 6145 0 0 6177 0 0 6042 0 0 6062 0 0 6234 0 0 6131 0 0 6031 0 0 6081 0 0 6123 0 0 6135 0 0 6037 0 0 6092 0 0 6087 0 0 6180 0 0 6141 0 0 6175 0 0 6152 0 0 6139 0 0 6179 0 0 6047 0 0 6199 0 0 6154 0 0 6171 0 0 6012 0 0 6144 0 0 6242 0 0 6172 0 0 6146 0 0 6126 0 0 6148 0 0 6061 0 0 6146 0 0 6074 0 0 6057 0 0 6149 0 0 6086 0 0 6153 0 0 6011 0 0 2995 0 0 48 0 0 19 0 0 13 0 0 11 0 0 8 0 0 7 0 0 6 0 0 6 0 0 5 0 0 
0 0 0 2 0 0 2 0 0 3 0 0 4 0 0 6 0 0 5 0 0 5 0 0 12 0 0 53 0 0 3063 0 0 6164 0 0 6266 0 0 6131 0 0 6014 0 0 6122 0 0 6113 0 0 6162 0 0 6232 0 0 6074 0 0 6165 0 0 6141 0 0 6152 0 0 6205 0 0 6212 0 0 6074 0 0 6180 0 0 6197 0 0 6218 0 0 6051 0 0 6033 0 0 6193 0 0 6181 0 0 6137 0 0 5998 0 0 6177 0 0 6076 0 0 6022 0 0 6133 0 0 6185 0 0 6160 0 0 6076 0 0 6068 0 0 6052 0 0 6164 0 0 6077 0 0 6236 0 0 6172 0 0 6196 0 0 6140 0 0 3006 0 0 47 0 0 9 0 0 8 0 0 5 0 0 8 0 0 8 0 0 7 0 0 6 0 0 4 0 0 
1 0 0 2 0 0 1 0 0 0 0 0 6 0 0 1 0 0 12 0 0 7 0 0 10 0 0 56 0 0 3181 0 0 6198 0 0 6172 0 0 6084 0 0 6104 0 0 6183 0 0 6201 0 0 6207 0 0 6013 0 0 6256 0 0 6169 0 0 6169 0 0 6096 0 0 6052 0 0 6309 0 0 6155 0 0 6079 0 0 6225 0 0 6071 0 0 6169 0 0 6153 0 0 6110 0 0 6149 0 0 6146 0 0 6142 0 0 6133 0 0 6123 0 0 6149 0 0 6222 0 0 6080 0 0 6252 0 0 6157 0 0 6061 0 0 6060 0 0 6131 0 0 6057 0 0 6172 0 0 6079 0 0 6023 0 0 6163 0 0 3127 0 0 40 0 0 10 0 0 11 0 0 10 0 0 6 0 0 6 0 0 9 0 0 4 0 0 0 0 0 
2 0 0 2 0 0 1 0 0 9 0 0 5 0 0 5 0 0 2 0 0 4 0 0 12 0 0 50 0 0 3084 0 0 6119 0 0 6182 0 0 6078 0 0 6246 0 0 6097 0 0 6110 0 0 6167 0 0 6215 0 0 6071 0 0 6119 0 0 6125 0 0 6040 0 0 6373 0 0 6117 0 0 6230 0 0 6172 0 0 6094 0 0 6171 0 0 6049 0 0 6059 0 0 6176 0 0 6245 0 0 6169 0 0 6156 0 0 6144 0 0 6090 0 0 5993 0 0 6072 0 0 5963 0 0 6173 0 0 6075 0 0 6064 0 0 6111 0 0 6168 0 0 6200 0 0 6188 0 0 5988 0 0 6230 0 0 6193 0 0 2992 0 0 47 0 0 7 0 0 4 0 0 5 0 0 1 0 0 6 0 0 5 0 0 7 0 0 2 0 0 
0 0 0 0 0 0 0 0 0 2 0 0 6 0 0 6 0 0 5 0 0 9 0 0 13 0 0 44 0 0 3189 0 0 6112 0 0 6244 0 0 6193 0 0 6233 0 0 6082 0 0 6148 0 0 6179 0 0 6252 0 0 6052 0 0 6164 0 0 6169 0 0 6201 0 0 6058 0 0 6151 0 0 6047 0 0 6179 0 0 6176 0 0 6043 0 0 6149 0 0 6120 0 0 6157 0 0 6245 0 0 6152 0 0 6234 0 0 6241 0 0 6140 0 0 6279 0 0 6163 0 0 6105 0 0 6224 0 0 6170 0 0 6161 0 0 6106 0 0 6164 0 0 6149 0 0 6038 0 0 6117 0 0 6154 0 0 6184 0 0 3110 0 0 47 0 0 6 0 0 7 0 0 4 0 0 2 0 0 1 0 0 1 0 0 3 0 0 4 0 0 
0 0 0 2 0 0 2 0 0 2 0 0 0 0 0 2 0 0 1 0 0 10 0 0 18 0 0 55 0 0 3175 0 0 6043 0 0 6058 0 0 6078 0 0 6156 0 0 6270 0 0 6182 0 0 6099 0 0 6147 0 0 6046 0 0 6234 0 0 6140 0 0 6142 0 0 6180 0 0 6191 0 0 6121 0 0 6169 0 0 6176 0 0 6123 0 0 6103 0 0 6082 0 0 6147 0 0 6107 0 0 6019 0 0 6137 0 0 6209 0 0 6149 0 0 6138 0 0 6202 0 0 6237 0 0 6194 0 0 6012 0 0 6117 0 0 6239 0 0 6026 0 0 6110 0 0 6040 0 0 6057 0 0 6102 0 0 6114 0 0 3048 0 0 36 0 0 6 0 0 3 0 0 7 0 0 8 0 0 3 0 0 4 0 0 6 0 0 4 0 0 
1 0 0 2 0 0 4 0 0 1 0 0 3 0 0 5 0 0 7 0 0 13 0 0 12 0 0 59 0 0 2971 0 0 6009 0 0 6193 0 0 6188 0 0 6027 0 0 6160 0 0 6107 0 0 6033 0 0 6120 0 0 6012 0 0 6174 0 0 6090 0 0 6056 0 0 6061 0 0 6130 0 0 6123 0 0 6180 0 0 6143 0 0 6144 0 0 6001 0 0 6006 0 0 6186 0 0 6198 0 0 6158 0 0 6135 0 0 6178 0 0 6145 0 0 6180 0 0 6094 0 0 6179 0 0 6057 0 0 6204 0 0 6153 0 0 6204 0 0 6158 0 0 6024 0 0 6121 0 0 6074 0 0 6108 0 0 6078 0 0 3012 0 0 52 0 0 9 0 0 8 0 0 6 0 0 4 0 0 2 0 0 3 0 0 2 0 0 0 0 0 
0 0 0 3 0 0 0 0 0 3 0 0 2 0 0 1 0 0 6 0 0 4 0 0 6 0 0 49 0 0 2992 0 0 6100 0 0 6122 0 0 6036 0 0 6170 0 0 6033 0 0 6087 0 0 6090 0 0 6116 0 0 6005 0 0 6111 0 0 6098 0 0 6052 0 0 6055 0 0 6165 0 0 6039 0 0 6188 0 0 6075 0 0 6133 0 0 5952 0 0 6123 0 0 6191 0 0 5960 0 0 6204 0 0 6060 0 0 6239 0 0 5981 0 0 6278 0 0 6185 0 0 6135 0 0 6064 0 0 5997 0 0 6171 0 0 6003 0 0 5961 0 0 6075 0 0 6142 0 0 6020 0 0 6103 0 0 6012 0 0 3030 0 0 50 0 0 12 0 0 6 0 0 8 0 0 8 0 0 2 0 0 3 0 0 4 0 0 3 0 0 
1 0 0 2 0 0 2 0 0 2 0 0 1 0 0 2 0 0 7 0 0 4 0 0 3 0 0 24 0 0 1493 0 0 3038 0 0 3041 0 0 3030 0 0 3056 0 0 3015 0 0 3023 0 0 3047 0 0 3114 0 0 3085 0 0 3054 0 0 3022 0 0 3105 0 0 3087 0 0 3125 0 0 3084 0 0 3044 0 0 3102 0 0 3001 0 0 3069 0 0 3170 0 0 3065 0 0 3049 0 0 3038 0 0 3098 0 0 3037 0 0 3184 0 0 3047 0 0 3056 0 0 3165 0 0 3115 0 0 3040 0 0 3045 0 0 3135 0 0 3034 0 0 3010 0 0 3102 0 0 3173 0 0 3068 0 0 2988 0 0 1573 0 0 26 0 0 4 0 0 3 0 0 8 0 0 6 0 0 5 0 0 1 0 0 3 0 0 3 0 0 
0 0 0 1 0 0 2 0 0 1 0 0 1 0 0 5 0 0 4 0 0 3 0 0 7 0 0 7 0 0 30 0 0 43 0 0 44 0 0 46 0 0 43 0 0 50 0 0 51 0 0 46 0 0 42 0 0 52 0 0 42 0 0 45 0 0 55 0 0 60 0 0 56 0 0 43 0 0 59 0 0 42 0 0 49 0 0 43 0 0 48 0 0 50 0 0 38 0 0 49 0 0 48 0 0 54 0 0 43 0 0 52 0 0 51 0 0 42 0 0 62 0 0 56 0 0 55 0 0 42 0 0 54 0 0 48 0 0 43 0 0 46 0 0 46 0 0 44 0 0 26 0 0 8 0 0 5 0 0 2 0 0 1 0 0 6 0 0 5 0 0 0 0 0 0 0 0 1 0 0 
0 0 0 0 0 0 2 0 0 0 0 0 2 0 0 4 0 0 3 0 0 0 0 0 7 0 0 7 0 0 9 0 0 5 0 0 8 0 0 10 0 0 12 0 0 9 0 0 6 0 0 12 0 0 12 0 0 13 0 0 11 0 0 12 0 0 10 0 0 18 0 0 10 0 0 14 0 0 14 0 0 7 0 0 13 0 0 11 0 0 11 0 0 16 0 0 10 0 0 11 0 0 11 0 0 10 0 0 15 0 0 11 0 0 15 0 0 13 0 0 14 0 0 13 0 0 9 0 0 9 0 0 13 0 0 11 0 0 5 0 0 5 0 0 8 0 0 5 0 0 9 0 0 3 0 0 4 0 0 5 0 0 2 0 0 3 0 0 2 0 0 3 0 0 0 0 0 0 0 0 
1 0 0 2 0 0 2 0 0 2 0 0 3 0 0 2 0 0 2 0 0 4 0 0 6 0 0 3 0 0 4 0 0 9 0 0 8 0 0 5 0 0 11 0 0 7 0 0 6 0 0 8 0 0 9 0 0 7 0 0 8 0 0 5 0 0 9 0 0 13 0 0 7 0 0 8 0 0 9 0 0 8 0 0 15 0 0 8 0 0 10 0 0 8 0 0 6 0 0 11 0 0 9 0 0 6 0 0 13 0 0 15 0 0 10 0 0 15 0 0 13 0 0 8 0 0 5 0 0 5 0 0 9 0 0 4 0 0 9 0 0 4 0 0 2 0 0 6 0 0 6 0 0 4 0 0 5 0 0 5 0 0 3 0 0 1 0 0 1 0 0 1 0 0 2 0 0 0 0 0 
0 0 0 1 0 0 1 0 0 4 0 0 4 0 0 2 0 0 3 0 0 3 0 0 5 0 0 3 0 0 2 0 0 4 0 0 4 0 0 6 0 0 8 0 0 5 0 0 6 0 0 6 0 0 6 0 0 5 0 0 7 0 0 10 0 0 6 0 0 9 0 0 11 0 0 5 0 0 4 0 0 11 0 0 9 0 0 5 0 0 8 0 0 7 0 0 6 0 0 8 0 0 9 0 0 10 0 0 10 0 0 12 0 0 13 0 0 8 0 0 11 0 0 3 0 0 6 0 0 4 0 0 3 0 0 3 0 0 5 0 0 5 0 0 4 0 0 5 0 0 6 0 0 8 0 0 3 0 0 0 0 0 3 0 0 4 0 0 5 0 0 2 0 0 2 0 0 0 0 0 
1 0 0 1 0 0 1 0 0 2 0 0 2 0 0 5 0 0 3 0 0 4 0 0 3 0 0 0 0 0 3 0 0 3 0 0 5 0 0 5 0 0 4 0 0 6 0 0 3 0 0 5 0 0 3 0 0 8 0 0 7 0 0 5 0 0 3 0 0 8 0 0 4 0 0 2 0 0 4 0 0 9 0 0 6 0 0 5 0 0 4 0 0 6 0 0 5 0 0 5 0 0 14 0 0 8 0 0 7 0 0 7 0 0 12 0 0 6 0 0 7 0 0 4 0 0 0 0 0 8 0 0 2 0 0 1 0 0 1 0 0 5 0 0 5 0 0 7 0 0 4 0 0 3 0 0 6 0 0 3 0 0 5 0 0 1 0 0 1 0 0 4 0 0 4 0 0 1 0 0 
0 0 0 1 0 0 1 0 0 2 0 0 0 0 0 4 0 0 4 0 0 4 0 0 2 0 0 1 0 0 1 0 0 0 0 0 0 0 0 0 0 0 2 0 0 6 0 0 3 0 0 4 0 0 3 0 0 4 0 0 5 0 0 2 0 0 2 0 0 7 0 0 1 0 0 2 0 0 4 0 0 5 0 0 4 0 0 3 0 0 1 0 0 7 0 0 8 0 0 5 0 0 6 0 0 7 0 0 3 0 0 7 0 0 8 0 0 3 0 0 7 0 0 6 0 0 1 0 0 4 0 0 4 0 0 2 0 0 4 0 0 3 0 0 4 0 0 2 0 0 3 0 0 2 0 0 1 0 0 5 0 0 4 0 0 3 0 0 3 0 0 3 0 0 6 0 0 3 0 0 
1 0 0 2 0 0 2 0 0 2 0 0 1 0 0 0 0 0 2 0 0 2 0 0 0 0 0 0 0 0 2 0 0 1 0 0 1 0 0 0 0 0 0 0 0 5 0 0 5 0 0 1 0 0 3 0 0 5 0 0 2 0 0 2 0 0 5 0 0 8 0 0 2 0 0 3 0 0 1 0 0 4 0 0 6 0 0 1 0 0 4 0 0 3 0 0 3 0 0 3 0 0 6 0 0 5 0 0 7 0 0 6 0 0 5 0 0 4 0 0 3 0 0 6 0 0 4 0 0 5 0 0 6 0 0 0 0 0 2 0 0 2 0 0 3 0 0 5 0 0 3 0 0 4 0 0 1 0 0 2 0 0 7 0 0 1 0 0 0 0 0 0 0 0 1 0 0 4 0 0 
0 0 0 1 0 0 4 0 0 0 0 0 1 0 0 0 0 0 1 0 0 1 0 0 0 0 0 1 0 0 1 0 0 2 0 0 0 0 0 0 0 0 1 0 0 1 0 0 3 0 0 4 0 0 4 0 0 3 0 0 3 0 0 4 0 0 9 0 0 5 0 0 2 0 0 4 0 0 4 0 0 2 0 0 4 0 0 2 0 0 9 0 0 2 0 0 5 0 0 5 0 0 2 0 0 7 0 0 2 0 0 3 0 0 8 0 0 0 0 0 4 0 0 5 0 0 1 0 0 3 0 0 3 0 0 3 0 0 2 0 0 1 0 0 2 0 0 3 0 0 0 0 0 4 0 0 3 0 0 0 0 0 5 0 0 4 0 0 0 0 0 1 0 0 0 0 0 1 0 0 
1 0 0 0 0 0 1 0 0 0 0 0 3 0 0 2 0 0 0 0 0 1 0 0 1 0 0 3 0 0 1 0 0 2 0 0 1 0 0 2 0 0 0 0 0 2 0 0 2 0 0 6 0 0 8 0 0 3 0 0 2 0 0 5 0 0 6 0 0 8 0 0 2 0 0 1 0 0 7 0 0 6 0 0 2 0 0 0 0 0 3 0 0 5 0 0 4 0 0 3 0 0 3 0 0 3 0 0 1 0 0 3 0 0 5 0 0 1 0 0 3 0 0 4 0 0 0 0 0 5 0 0 2 0 0 3 0 0 2 0 0 1 0 0 3 0 0 2 0 0 2 0 0 1 0 0 1 0 0 2 0 0 1 0 0 4 0 0 0 0 0 3 0 0 1 0 0 1 0 0 
