P3
# This is a dose file slice at depth 43 of 100
60 60
# now we give the maximum value of the RGB coordinates.
22407
0 0 0 0 0 0 0 0 0 0 0 0 0 0 0 0 0 0 0 0 0 0 0 0 0 0 0 0 0 0 0 0 0 0 0 0 0 0 0 0 0 0 0 0 0 0 0 0 0 0 0 0 0 0 0 0 0 0 0 0 0 0 0 0 0 0 0 0 0 0 0 0 0 0 0 0 0 0 0 0 0 0 0 0 0 0 0 0 0 0 0 0 0 0 0 0 0 0 0 0 0 0 0 0 0 0 0 0 0 0 0 0 0 0 0 0 0 0 0 0 0 0 0 0 0 0 0 0 0 0 0 0 0 0 0 0 0 0 0 0 0 0 0 0 0 0 0 0 0 0 0 0 0 0 0 0 0 0 0 0 0 0 0 0 0 0 0 0 0 0 0 0 0 0 0 0 0 0 0 0 
0 0 0 0 0 0 0 0 0 0 0 0 0 0 0 0 0 0 0 0 0 0 0 0 0 0 0 0 0 0 0 0 0 0 0 0 0 0 0 0 0 0 0 0 0 0 0 0 0 0 0 0 0 0 0 0 0 0 0 0 0 0 0 0 0 0 0 0 0 0 0 0 0 0 0 0 0 0 0 0 0 0 0 0 0 0 0 0 0 0 0 0 0 0 0 0 0 0 0 0 0 0 0 0 0 0 0 0 0 0 0 0 0 0 0 0 0 0 0 0 0 0 0 0 0 0 0 0 0 0 0 0 0 0 0 0 0 0 0 0 0 0 0 0 0 0 0 0 0 0 0 0 0 0 0 0 0 0 0 0 0 0 0 0 0 0 0 0 0 0 0 0 0 0 0 0 0 0 0 0 
0 0 0 0 0 0 0 0 0 0 0 0 0 0 0 0 0 0 0 0 0 0 0 0 0 0 0 0 0 0 0 0 0 0 0 0 0 0 0 0 0 0 0 0 0 0 0 0 0 0 0 0 0 0 0 0 0 0 0 0 0 0 0 0 0 0 0 0 0 0 0 0 0 0 0 0 0 0 0 0 0 0 0 0 0 0 0 0 0 0 0 0 0 0 0 0 0 0 0 0 0 0 0 0 0 0 0 0 0 0 0 0 0 0 0 0 0 0 0 0 0 0 0 0 0 0 0 0 0 0 0 0 0 0 0 0 0 0 0 0 0 0 0 0 0 0 0 0 0 0 0 0 0 0 0 0 0 0 0 0 0 0 0 0 0 0 0 0 0 0 0 0 0 0 0 0 0 0 0 0 
0 0 0 0 0 0 0 0 0 0 0 0 0 0 0 0 0 0 0 0 0 0 0 0 0 0 0 0 0 0 0 0 0 0 0 0 0 0 0 0 0 0 0 0 0 0 0 0 0 0 0 0 0 0 0 0 0 0 0 0 0 0 0 0 0 0 0 0 0 0 0 0 0 0 0 0 0 0 0 0 0 0 0 0 0 0 0 0 0 0 0 0 0 0 0 0 0 0 0 0 0 0 0 0 0 0 0 0 0 0 0 0 0 0 0 0 0 0 0 0 0 0 0 0 0 0 0 0 0 0 0 0 0 0 0 0 0 0 0 0 0 0 0 0 0 0 0 0 0 0 0 0 0 0 0 0 0 0 0 0 0 0 0 0 0 0 0 0 0 0 0 0 0 0 0 0 0 0 0 0 
0 0 0 0 0 0 0 0 0 0 0 0 0 0 0 0 0 0 0 0 0 0 0 0 0 0 0 0 0 0 0 0 0 0 0 0 0 0 0 0 0 0 0 0 0 0 0 0 0 0 0 0 0 0 0 0 0 0 0 0 0 0 0 0 0 0 0 0 0 0 0 0 0 0 0 0 0 0 0 0 0 0 0 0 0 0 0 0 0 0 0 0 0 0 0 0 0 0 0 0 0 0 0 0 0 0 0 0 0 0 0 0 0 0 0 0 0 0 0 0 0 0 0 0 0 0 0 0 0 0 0 0 0 0 0 0 0 0 0 0 0 0 0 0 0 0 0 0 0 0 0 0 0 0 0 0 0 0 0 0 0 0 0 0 0 0 0 0 0 0 0 0 0 0 0 0 0 0 0 0 
0 0 0 0 0 0 0 0 0 0 0 0 0 0 0 0 0 0 0 0 0 0 0 0 0 0 0 0 0 0 0 0 0 0 0 0 0 0 0 0 0 0 0 0 0 0 0 0 0 0 0 0 0 0 0 0 0 0 0 0 0 0 0 0 0 0 0 0 0 0 0 0 0 0 0 0 0 0 0 0 0 0 0 0 0 0 0 0 0 0 0 0 0 0 0 0 0 0 0 0 0 0 0 0 0 0 0 0 0 0 0 0 0 0 0 0 0 0 0 0 0 0 0 0 0 0 0 0 0 0 0 0 0 0 0 0 0 0 0 0 0 0 0 0 0 0 0 0 0 0 0 0 0 0 0 0 0 0 0 0 0 0 0 0 0 0 0 0 0 0 0 0 0 0 0 0 0 0 0 0 
0 0 0 0 0 0 0 0 0 0 0 0 0 0 0 0 0 0 0 0 0 0 0 0 0 0 0 0 0 0 0 0 0 0 0 0 0 0 0 0 0 0 0 0 0 0 0 0 0 0 0 0 0 0 0 0 0 0 0 0 0 0 0 0 0 0 0 0 0 0 0 0 0 0 0 0 0 0 0 0 0 0 0 0 0 0 0 0 0 0 0 0 0 0 0 0 0 0 0 0 0 0 0 0 0 0 0 0 0 0 0 0 0 0 0 0 0 0 0 0 0 0 0 0 0 0 0 0 0 0 0 0 0 0 0 0 0 0 0 0 0 0 0 0 0 0 0 0 0 0 0 0 0 0 0 0 0 0 0 0 0 0 0 0 0 0 0 0 0 0 0 0 0 0 0 0 0 0 0 0 
0 0 0 0 0 0 0 0 0 0 0 0 0 0 0 0 0 0 0 0 0 0 0 0 0 0 0 0 0 0 0 0 0 0 0 0 0 0 0 0 0 0 0 0 0 0 0 0 0 0 0 0 0 0 0 0 0 0 0 0 0 0 0 0 0 0 0 0 0 0 0 0 0 0 0 0 0 0 0 0 0 0 0 0 0 0 0 0 0 0 0 0 0 0 0 0 0 0 0 0 0 0 0 0 0 0 0 0 0 0 0 0 0 0 0 0 0 0 0 0 0 0 0 0 0 0 0 0 0 0 0 0 0 0 0 0 0 0 0 0 0 0 0 0 0 0 0 0 0 0 0 0 0 0 0 0 0 0 0 0 0 0 0 0 0 0 0 0 0 0 0 0 0 0 0 0 0 0 0 0 
0 0 0 0 0 0 0 0 0 0 0 0 0 0 0 0 0 0 0 0 0 0 0 0 0 0 0 0 0 0 0 0 0 0 0 0 0 0 0 0 0 0 0 0 0 0 0 0 0 0 0 0 0 0 0 0 0 0 0 0 0 0 0 0 0 0 0 0 0 0 0 0 0 0 0 0 0 0 0 0 0 0 0 0 0 0 0 0 0 0 0 0 0 0 0 0 0 0 0 0 0 0 0 0 0 0 0 0 0 0 0 0 0 0 0 0 0 0 0 0 0 0 0 0 0 0 0 0 0 0 0 0 0 0 0 0 0 0 0 0 0 0 0 0 0 0 0 0 0 0 0 0 0 0 0 0 0 0 0 0 0 0 0 0 0 0 0 0 0 0 0 0 0 0 0 0 0 0 0 0 
0 0 0 0 0 0 0 0 0 0 0 0 0 0 0 0 0 0 0 0 0 0 0 0 0 0 0 0 0 0 0 0 0 0 0 0 0 0 0 0 0 0 0 0 0 0 0 0 0 0 0 0 0 0 0 0 0 0 0 0 0 0 0 0 0 0 0 0 0 0 0 0 0 0 0 0 0 0 0 0 0 0 0 0 0 0 0 0 0 0 0 0 0 0 0 0 0 0 0 0 0 0 0 0 0 0 0 0 0 0 0 0 0 0 0 0 0 0 0 0 0 0 0 0 0 0 0 0 0 0 0 0 0 0 0 0 0 0 0 0 0 0 0 0 0 0 0 0 0 0 0 0 0 0 0 0 0 0 0 0 0 0 0 0 0 0 0 0 0 0 0 0 0 0 0 0 0 0 0 0 
0 0 0 0 0 0 0 0 0 0 0 0 0 0 0 0 0 0 0 0 0 0 0 0 0 0 0 0 0 0 1601 0 0 3036 0 0 3148 0 0 3114 0 0 3099 0 0 3159 0 0 3054 0 0 3069 0 0 3091 0 0 3112 0 0 3095 0 0 3072 0 0 2977 0 0 3072 0 0 3151 0 0 3113 0 0 3135 0 0 2982 0 0 2975 0 0 3129 0 0 3106 0 0 3110 0 0 3114 0 0 2998 0 0 3156 0 0 2946 0 0 3034 0 0 3019 0 0 3051 0 0 2990 0 0 3051 0 0 3010 0 0 3073 0 0 3089 0 0 3053 0 0 3043 0 0 2981 0 0 3019 0 0 3127 0 0 3094 0 0 1592 0 0 0 0 0 0 0 0 0 0 0 0 0 0 0 0 0 0 0 0 0 0 0 0 0 0 0 0 0 
0 0 0 0 0 0 0 0 0 0 0 0 0 0 0 0 0 0 0 0 0 0 0 0 0 0 0 0 0 0 3157 0 0 6282 0 0 6173 0 0 5949 0 0 6077 0 0 6200 0 0 6179 0 0 6218 0 0 6205 0 0 6071 0 0 6150 0 0 6242 0 0 6134 0 0 6199 0 0 6113 0 0 6192 0 0 6065 0 0 6202 0 0 6071 0 0 6079 0 0 6197 0 0 6217 0 0 6191 0 0 6288 0 0 6154 0 0 6152 0 0 6085 0 0 6128 0 0 6128 0 0 6127 0 0 6290 0 0 6191 0 0 6229 0 0 6170 0 0 6179 0 0 6341 0 0 6237 0 0 6191 0 0 6204 0 0 6017 0 0 3150 0 0 0 0 0 0 0 0 0 0 0 0 0 0 0 0 0 0 0 0 0 0 0 0 0 0 0 0 0 
0 0 0 0 0 0 0 0 0 0 0 0 0 0 0 0 0 0 0 0 0 0 0 0 0 0 0 0 0 0 3176 0 0 6286 0 0 6365 0 0 6206 0 0 6281 0 0 6212 0 0 6298 0 0 6106 0 0 6118 0 0 6218 0 0 6224 0 0 6243 0 0 6235 0 0 6306 0 0 6220 0 0 6208 0 0 6118 0 0 6239 0 0 6209 0 0 6188 0 0 6239 0 0 6168 0 0 6077 0 0 6137 0 0 6212 0 0 6221 0 0 6226 0 0 6141 0 0 6188 0 0 6205 0 0 6214 0 0 6181 0 0 6189 0 0 6118 0 0 6309 0 0 6225 0 0 6272 0 0 6220 0 0 6143 0 0 6074 0 0 3005 0 0 0 0 0 0 0 0 0 0 0 0 0 0 0 0 0 0 0 0 0 0 0 0 0 0 0 0 0 
0 0 0 0 0 0 0 0 0 0 0 0 0 0 0 0 0 0 0 0 0 0 0 0 0 0 0 0 0 0 3203 0 0 6155 0 0 6202 0 0 6353 0 0 6200 0 0 6150 0 0 6170 0 0 6185 0 0 6192 0 0 6202 0 0 6128 0 0 6163 0 0 6160 0 0 6079 0 0 6059 0 0 6137 0 0 6230 0 0 6235 0 0 6301 0 0 6212 0 0 6138 0 0 6238 0 0 6288 0 0 6100 0 0 6183 0 0 6255 0 0 6194 0 0 6278 0 0 6141 0 0 6267 0 0 6111 0 0 6173 0 0 6176 0 0 5998 0 0 6189 0 0 6149 0 0 6210 0 0 6267 0 0 6068 0 0 6197 0 0 3053 0 0 0 0 0 0 0 0 0 0 0 0 0 0 0 0 0 0 0 0 0 0 0 0 0 0 0 0 0 
0 0 0 0 0 0 0 0 0 0 0 0 0 0 0 0 0 0 0 0 0 0 0 0 0 0 0 0 0 0 3120 0 0 6238 0 0 6212 0 0 6284 0 0 6241 0 0 6225 0 0 6215 0 0 6133 0 0 6184 0 0 6166 0 0 6307 0 0 6203 0 0 6106 0 0 6195 0 0 6238 0 0 6213 0 0 6124 0 0 6138 0 0 6110 0 0 6174 0 0 6258 0 0 6261 0 0 6121 0 0 6178 0 0 6162 0 0 6171 0 0 5991 0 0 6312 0 0 6288 0 0 6278 0 0 6258 0 0 6267 0 0 6189 0 0 6308 0 0 6022 0 0 6069 0 0 6158 0 0 6227 0 0 6162 0 0 6261 0 0 3103 0 0 0 0 0 0 0 0 0 0 0 0 0 0 0 0 0 0 0 0 0 0 0 0 0 0 0 0 0 
0 0 0 0 0 0 0 0 0 0 0 0 0 0 0 0 0 0 0 0 0 0 0 0 0 0 0 0 0 0 3113 0 0 6239 0 0 6311 0 0 6313 0 0 5961 0 0 6308 0 0 6066 0 0 6243 0 0 6139 0 0 6136 0 0 6138 0 0 6319 0 0 6049 0 0 6165 0 0 6197 0 0 6039 0 0 6200 0 0 6101 0 0 6341 0 0 6143 0 0 6042 0 0 6069 0 0 6150 0 0 5973 0 0 6286 0 0 6120 0 0 6219 0 0 6133 0 0 6219 0 0 6134 0 0 6279 0 0 6148 0 0 6057 0 0 6072 0 0 6172 0 0 6136 0 0 6208 0 0 6223 0 0 6198 0 0 6260 0 0 3098 0 0 0 0 0 0 0 0 0 0 0 0 0 0 0 0 0 0 0 0 0 0 0 0 0 0 0 0 0 
0 0 0 0 0 0 0 0 0 0 0 0 0 0 0 0 0 0 0 0 0 0 0 0 0 0 0 0 0 0 3139 0 0 6220 0 0 6203 0 0 6131 0 0 6140 0 0 6115 0 0 6165 0 0 6166 0 0 6188 0 0 6289 0 0 6265 0 0 6086 0 0 6272 0 0 6083 0 0 6196 0 0 6175 0 0 6300 0 0 6315 0 0 6141 0 0 6248 0 0 6225 0 0 6108 0 0 6180 0 0 6087 0 0 6080 0 0 6279 0 0 6127 0 0 6271 0 0 6186 0 0 6178 0 0 6116 0 0 6237 0 0 5996 0 0 6187 0 0 6197 0 0 6318 0 0 6187 0 0 6208 0 0 6255 0 0 6159 0 0 3124 0 0 0 0 0 0 0 0 0 0 0 0 0 0 0 0 0 0 0 0 0 0 0 0 0 0 0 0 0 
0 0 0 0 0 0 0 0 0 0 0 0 0 0 0 0 0 0 0 0 0 0 0 0 0 0 0 0 0 0 3040 0 0 6191 0 0 6287 0 0 6122 0 0 6249 0 0 6133 0 0 6123 0 0 6269 0 0 6201 0 0 6229 0 0 6088 0 0 6263 0 0 6120 0 0 6095 0 0 6217 0 0 6223 0 0 6115 0 0 6325 0 0 6294 0 0 6188 0 0 6362 0 0 6259 0 0 6130 0 0 6356 0 0 6295 0 0 6126 0 0 6283 0 0 6176 0 0 6234 0 0 6063 0 0 6138 0 0 6201 0 0 6242 0 0 6084 0 0 6144 0 0 6201 0 0 6046 0 0 6216 0 0 6258 0 0 6209 0 0 3062 0 0 0 0 0 0 0 0 0 0 0 0 0 0 0 0 0 0 0 0 0 0 0 0 0 0 0 0 0 
0 0 0 0 0 0 0 0 0 0 0 0 0 0 0 0 0 0 0 0 0 0 0 0 0 0 0 0 0 0 3094 0 0 6045 0 0 6160 0 0 6046 0 0 6137 0 0 6238 0 0 6059 0 0 6101 0 0 6200 0 0 6201 0 0 6104 0 0 6201 0 0 6055 0 0 6131 0 0 6181 0 0 6076 0 0 6109 0 0 6268 0 0 6083 0 0 6111 0 0 6299 0 0 6115 0 0 6178 0 0 6257 0 0 6179 0 0 6171 0 0 6356 0 0 6119 0 0 6212 0 0 6175 0 0 6277 0 0 6185 0 0 6110 0 0 6346 0 0 6174 0 0 6144 0 0 6184 0 0 6175 0 0 6370 0 0 6096 0 0 3037 0 0 0 0 0 0 0 0 0 0 0 0 0 0 0 0 0 0 0 0 0 0 0 0 0 0 0 0 0 
0 0 0 0 0 0 0 0 0 0 0 0 0 0 0 0 0 0 0 0 0 0 0 0 0 0 0 0 0 0 3091 0 0 6061 0 0 6231 0 0 6252 0 0 6170 0 0 6258 0 0 6326 0 0 6259 0 0 6117 0 0 6275 0 0 6288 0 0 6258 0 0 6220 0 0 6210 0 0 6226 0 0 6081 0 0 6142 0 0 6155 0 0 6132 0 0 6072 0 0 6161 0 0 6152 0 0 6208 0 0 6044 0 0 6187 0 0 6298 0 0 6211 0 0 6255 0 0 6299 0 0 6181 0 0 6193 0 0 6113 0 0 6306 0 0 6121 0 0 6137 0 0 6214 0 0 6231 0 0 6072 0 0 6112 0 0 6042 0 0 3041 0 0 0 0 0 0 0 0 0 0 0 0 0 0 0 0 0 0 0 0 0 0 0 0 0 0 0 0 0 
0 0 0 0 0 0 0 0 0 0 0 0 0 0 0 0 0 0 0 0 0 0 0 0 0 0 0 0 0 0 3121 0 0 6184 0 0 6228 0 0 6051 0 0 6051 0 0 6081 0 0 6132 0 0 6223 0 0 6272 0 0 6134 0 0 6187 0 0 6174 0 0 6166 0 0 6198 0 0 6155 0 0 6388 0 0 6144 0 0 6178 0 0 6214 0 0 6165 0 0 6182 0 0 6176 0 0 6156 0 0 6148 0 0 6044 0 0 6180 0 0 6054 0 0 6134 0 0 6097 0 0 6195 0 0 6115 0 0 6119 0 0 6262 0 0 6256 0 0 6361 0 0 6201 0 0 6193 0 0 6185 0 0 6250 0 0 6155 0 0 3056 0 0 0 0 0 0 0 0 0 0 0 0 0 0 0 0 0 0 0 0 0 0 0 0 0 0 0 0 0 
0 0 0 0 0 0 0 0 0 0 0 0 0 0 0 0 0 0 0 0 0 0 0 0 0 0 0 0 0 0 3214 0 0 6195 0 0 6142 0 0 6236 0 0 6111 0 0 6123 0 0 6119 0 0 6155 0 0 6132 0 0 6180 0 0 6289 0 0 6108 0 0 6128 0 0 6153 0 0 6146 0 0 6183 0 0 6199 0 0 6233 0 0 6208 0 0 5994 0 0 6134 0 0 6131 0 0 6104 0 0 6029 0 0 6252 0 0 6069 0 0 6192 0 0 6251 0 0 6000 0 0 6097 0 0 6254 0 0 6123 0 0 6169 0 0 6275 0 0 6095 0 0 6218 0 0 6309 0 0 6064 0 0 6045 0 0 6254 0 0 3135 0 0 0 0 0 0 0 0 0 0 0 0 0 0 0 0 0 0 0 0 0 0 0 0 0 0 0 0 0 
0 0 0 0 0 0 0 0 0 0 0 0 0 0 0 0 0 0 0 0 0 0 0 0 0 0 0 0 0 0 3074 0 0 6167 0 0 6063 0 0 6184 0 0 6152 0 0 6124 0 0 6161 0 0 6032 0 0 6239 0 0 6138 0 0 6020 0 0 6111 0 0 6306 0 0 6080 0 0 6226 0 0 6280 0 0 6121 0 0 6144 0 0 6322 0 0 6024 0 0 6095 0 0 6245 0 0 6118 0 0 6182 0 0 6091 0 0 6078 0 0 6156 0 0 6116 0 0 6236 0 0 6161 0 0 6149 0 0 6178 0 0 6138 0 0 6088 0 0 6131 0 0 6133 0 0 6095 0 0 6258 0 0 6130 0 0 6011 0 0 3106 0 0 0 0 0 0 0 0 0 0 0 0 0 0 0 0 0 0 0 0 0 0 0 0 0 0 0 0 0 
0 0 0 0 0 0 0 0 0 0 0 0 0 0 0 0 0 0 0 0 0 0 0 0 0 0 0 0 0 0 3148 0 0 6271 0 0 6162 0 0 6290 0 0 6106 0 0 6279 0 0 6171 0 0 6238 0 0 6140 0 0 6250 0 0 6112 0 0 6238 0 0 6300 0 0 6142 0 0 6306 0 0 6084 0 0 6285 0 0 6089 0 0 6296 0 0 6144 0 0 6052 0 0 6081 0 0 6026 0 0 6098 0 0 6140 0 0 6040 0 0 6170 0 0 6194 0 0 6080 0 0 6193 0 0 6136 0 0 6273 0 0 6148 0 0 6108 0 0 6113 0 0 6184 0 0 6257 0 0 6157 0 0 6125 0 0 6173 0 0 3100 0 0 0 0 0 0 0 0 0 0 0 0 0 0 0 0 0 0 0 0 0 0 0 0 0 0 0 0 0 
0 0 0 0 0 0 0 0 0 0 0 0 0 0 0 0 0 0 0 0 0 0 0 0 0 0 0 0 0 0 3121 0 0 6173 0 0 6151 0 0 6130 0 0 6180 0 0 6225 0 0 6186 0 0 6134 0 0 6042 0 0 6271 0 0 6273 0 0 6285 0 0 6118 0 0 6150 0 0 6080 0 0 6235 0 0 5982 0 0 6287 0 0 6156 0 0 6196 0 0 6129 0 0 6195 0 0 6189 0 0 6237 0 0 6161 0 0 6308 0 0 6149 0 0 6274 0 0 6157 0 0 6105 0 0 6217 0 0 6108 0 0 6164 0 0 6241 0 0 6221 0 0 6222 0 0 6223 0 0 6064 0 0 6264 0 0 6189 0 0 3043 0 0 0 0 0 0 0 0 0 0 0 0 0 0 0 0 0 0 0 0 0 0 0 0 0 0 0 0 0 
0 0 0 0 0 0 0 0 0 0 0 0 0 0 0 0 0 0 0 0 0 0 0 0 0 0 0 0 0 0 3013 0 0 6134 0 0 6176 0 0 6189 0 0 6391 0 0 6045 0 0 6217 0 0 6155 0 0 6049 0 0 6142 0 0 6226 0 0 6086 0 0 6112 0 0 6282 0 0 6203 0 0 6266 0 0 6262 0 0 6109 0 0 6145 0 0 6286 0 0 6191 0 0 6209 0 0 6114 0 0 6106 0 0 6187 0 0 6130 0 0 6149 0 0 6162 0 0 6037 0 0 6271 0 0 6225 0 0 6092 0 0 6170 0 0 6141 0 0 6175 0 0 6169 0 0 6148 0 0 6258 0 0 6282 0 0 6218 0 0 2954 0 0 0 0 0 0 0 0 0 0 0 0 0 0 0 0 0 0 0 0 0 0 0 0 0 0 0 0 0 
0 0 0 0 0 0 0 0 0 0 0 0 0 0 0 0 0 0 0 0 0 0 0 0 0 0 0 0 0 0 3058 0 0 6308 0 0 6026 0 0 6179 0 0 6125 0 0 6226 0 0 6245 0 0 6154 0 0 6221 0 0 6266 0 0 6162 0 0 6259 0 0 6061 0 0 6206 0 0 6099 0 0 6305 0 0 6175 0 0 6153 0 0 6212 0 0 6089 0 0 6284 0 0 6113 0 0 6101 0 0 6020 0 0 6248 0 0 6204 0 0 6201 0 0 6170 0 0 6176 0 0 6157 0 0 6157 0 0 6198 0 0 6224 0 0 6156 0 0 6244 0 0 6102 0 0 6211 0 0 6295 0 0 6241 0 0 6158 0 0 3135 0 0 0 0 0 0 0 0 0 0 0 0 0 0 0 0 0 0 0 0 0 0 0 0 0 0 0 0 0 
0 0 0 0 0 0 0 0 0 0 0 0 0 0 0 0 0 0 0 0 0 0 0 0 0 0 0 0 0 0 3212 0 0 6293 0 0 6111 0 0 6236 0 0 6131 0 0 6293 0 0 6130 0 0 6127 0 0 6173 0 0 6091 0 0 6154 0 0 6217 0 0 6170 0 0 6207 0 0 6190 0 0 6195 0 0 6107 0 0 6029 0 0 6156 0 0 6145 0 0 6311 0 0 6133 0 0 6308 0 0 6176 0 0 6361 0 0 6117 0 0 6159 0 0 6105 0 0 6333 0 0 6095 0 0 6241 0 0 6093 0 0 6209 0 0 6069 0 0 6135 0 0 6233 0 0 6302 0 0 6216 0 0 6179 0 0 6208 0 0 3014 0 0 0 0 0 0 0 0 0 0 0 0 0 0 0 0 0 0 0 0 0 0 0 0 0 0 0 0 0 
0 0 0 0 0 0 0 0 0 0 0 0 0 0 0 0 0 0 0 0 0 0 0 0 0 0 0 0 0 0 3121 0 0 6392 0 0 6317 0 0 6091 0 0 6079 0 0 6186 0 0 5985 0 0 6326 0 0 6216 0 0 6096 0 0 6286 0 0 6162 0 0 6268 0 0 6221 0 0 6205 0 0 6265 0 0 6122 0 0 6140 0 0 6227 0 0 6153 0 0 6132 0 0 6162 0 0 6214 0 0 6213 0 0 6059 0 0 6242 0 0 6156 0 0 6142 0 0 6070 0 0 6217 0 0 6251 0 0 6123 0 0 6166 0 0 6272 0 0 6122 0 0 6316 0 0 6334 0 0 6014 0 0 6231 0 0 6175 0 0 2993 0 0 0 0 0 0 0 0 0 0 0 0 0 0 0 0 0 0 0 0 0 0 0 0 0 0 0 0 0 
0 0 0 0 0 0 0 0 0 0 0 0 0 0 0 0 0 0 0 0 0 0 0 0 0 0 0 0 0 0 2993 0 0 6069 0 0 6225 0 0 6182 0 0 6212 0 0 6184 0 0 6202 0 0 6081 0 0 6201 0 0 6144 0 0 6207 0 0 6173 0 0 6081 0 0 6082 0 0 6240 0 0 6104 0 0 6081 0 0 6283 0 0 6097 0 0 6075 0 0 6213 0 0 6103 0 0 6126 0 0 6366 0 0 6280 0 0 6206 0 0 6095 0 0 6316 0 0 6149 0 0 6248 0 0 6197 0 0 6127 0 0 6251 0 0 6151 0 0 6306 0 0 6301 0 0 6207 0 0 6151 0 0 6185 0 0 6014 0 0 3089 0 0 0 0 0 0 0 0 0 0 0 0 0 0 0 0 0 0 0 0 0 0 0 0 0 0 0 0 0 
0 0 0 0 0 0 0 0 0 0 0 0 0 0 0 0 0 0 0 0 0 0 0 0 0 0 0 0 0 0 3221 0 0 6110 0 0 6270 0 0 6252 0 0 5963 0 0 6299 0 0 6127 0 0 6128 0 0 6105 0 0 6068 0 0 6159 0 0 6229 0 0 6163 0 0 6162 0 0 6197 0 0 6075 0 0 6075 0 0 6263 0 0 6168 0 0 6100 0 0 6238 0 0 6138 0 0 6257 0 0 6119 0 0 6298 0 0 6180 0 0 6218 0 0 6142 0 0 6269 0 0 6147 0 0 6250 0 0 6221 0 0 6068 0 0 6123 0 0 6266 0 0 6108 0 0 6110 0 0 6155 0 0 6217 0 0 6190 0 0 3097 0 0 0 0 0 0 0 0 0 0 0 0 0 0 0 0 0 0 0 0 0 0 0 0 0 0 0 0 0 
0 0 0 0 0 0 0 0 0 0 0 0 0 0 0 0 0 0 0 0 0 0 0 0 0 0 0 0 0 0 3092 0 0 6203 0 0 6054 0 0 6222 0 0 6201 0 0 6274 0 0 6299 0 0 6161 0 0 6207 0 0 6075 0 0 5961 0 0 6208 0 0 6199 0 0 6203 0 0 6168 0 0 6198 0 0 6207 0 0 6198 0 0 6143 0 0 6191 0 0 6102 0 0 6145 0 0 6315 0 0 6087 0 0 6159 0 0 6123 0 0 6172 0 0 6090 0 0 6181 0 0 6277 0 0 6015 0 0 6176 0 0 6179 0 0 6248 0 0 6191 0 0 6226 0 0 6274 0 0 6344 0 0 6130 0 0 6274 0 0 3162 0 0 0 0 0 0 0 0 0 0 0 0 0 0 0 0 0 0 0 0 0 0 0 0 0 0 0 0 0 
0 0 0 0 0 0 0 0 0 0 0 0 0 0 0 0 0 0 0 0 0 0 0 0 0 0 0 0 0 0 3101 0 0 6154 0 0 6056 0 0 6141 0 0 6273 0 0 5996 0 0 6091 0 0 6248 0 0 6278 0 0 6169 0 0 6188 0 0 6185 0 0 6228 0 0 6294 0 0 6260 0 0 6082 0 0 6196 0 0 6230 0 0 6131 0 0 6183 0 0 6026 0 0 6142 0 0 6134 0 0 6162 0 0 6217 0 0 6216 0 0 6156 0 0 6100 0 0 6115 0 0 6212 0 0 6232 0 0 6240 0 0 6133 0 0 6170 0 0 6185 0 0 6191 0 0 6256 0 0 6100 0 0 6120 0 0 6166 0 0 3051 0 0 0 0 0 0 0 0 0 0 0 0 0 0 0 0 0 0 0 0 0 0 0 0 0 0 0 0 0 
0 0 0 0 0 0 0 0 0 0 0 0 0 0 0 0 0 0 0 0 0 0 0 0 0 0 0 0 0 0 3087 0 0 6206 0 0 6155 0 0 6076 0 0 6192 0 0 6260 0 0 6074 0 0 6239 0 0 6168 0 0 6144 0 0 6082 0 0 6154 0 0 6138 0 0 6083 0 0 6252 0 0 6337 0 0 6254 0 0 6341 0 0 6211 0 0 6283 0 0 6138 0 0 6157 0 0 6346 0 0 6140 0 0 6284 0 0 6146 0 0 6155 0 0 6185 0 0 6163 0 0 6219 0 0 6346 0 0 6219 0 0 6108 0 0 6132 0 0 6152 0 0 6127 0 0 6274 0 0 6029 0 0 6124 0 0 6167 0 0 2998 0 0 0 0 0 0 0 0 0 0 0 0 0 0 0 0 0 0 0 0 0 0 0 0 0 0 0 0 0 
0 0 0 0 0 0 0 0 0 0 0 0 0 0 0 0 0 0 0 0 0 0 0 0 0 0 0 0 0 0 3154 0 0 6147 0 0 6180 0 0 6140 0 0 6235 0 0 6245 0 0 6100 0 0 6150 0 0 5969 0 0 6176 0 0 6141 0 0 6111 0 0 6043 0 0 6193 0 0 6041 0 0 6085 0 0 6179 0 0 6261 0 0 6120 0 0 6161 0 0 6279 0 0 6196 0 0 6292 0 0 6081 0 0 6206 0 0 6217 0 0 6195 0 0 6105 0 0 6388 0 0 6116 0 0 6371 0 0 6238 0 0 6301 0 0 6179 0 0 6282 0 0 6068 0 0 6082 0 0 6199 0 0 6177 0 0 6153 0 0 3005 0 0 0 0 0 0 0 0 0 0 0 0 0 0 0 0 0 0 0 0 0 0 0 0 0 0 0 0 0 
0 0 0 0 0 0 0 0 0 0 0 0 0 0 0 0 0 0 0 0 0 0 0 0 0 0 0 0 0 0 3101 0 0 6104 0 0 6145 0 0 5980 0 0 6183 0 0 6183 0 0 6258 0 0 6245 0 0 6093 0 0 6170 0 0 6122 0 0 6143 0 0 6217 0 0 6208 0 0 6290 0 0 6183 0 0 6170 0 0 6288 0 0 6079 0 0 6250 0 0 6343 0 0 6296 0 0 6172 0 0 6018 0 0 6065 0 0 6170 0 0 6097 0 0 6349 0 0 6092 0 0 6248 0 0 6294 0 0 6288 0 0 6148 0 0 6246 0 0 6301 0 0 6199 0 0 6148 0 0 6005 0 0 6431 0 0 6015 0 0 3167 0 0 0 0 0 0 0 0 0 0 0 0 0 0 0 0 0 0 0 0 0 0 0 0 0 0 0 0 0 
0 0 0 0 0 0 0 0 0 0 0 0 0 0 0 0 0 0 0 0 0 0 0 0 0 0 0 0 0 0 2995 0 0 6092 0 0 6150 0 0 6177 0 0 6188 0 0 6158 0 0 6059 0 0 6097 0 0 6093 0 0 6122 0 0 6191 0 0 6142 0 0 6073 0 0 6206 0 0 6218 0 0 6156 0 0 6133 0 0 6341 0 0 6043 0 0 6136 0 0 6289 0 0 6256 0 0 6160 0 0 6156 0 0 6104 0 0 6164 0 0 6170 0 0 6219 0 0 6183 0 0 6137 0 0 6158 0 0 6276 0 0 6170 0 0 6203 0 0 6244 0 0 6145 0 0 6176 0 0 6310 0 0 6118 0 0 6239 0 0 3179 0 0 0 0 0 0 0 0 0 0 0 0 0 0 0 0 0 0 0 0 0 0 0 0 0 0 0 0 0 
0 0 0 0 0 0 0 0 0 0 0 0 0 0 0 0 0 0 0 0 0 0 0 0 0 0 0 0 0 0 3028 0 0 6221 0 0 6141 0 0 6283 0 0 6245 0 0 6284 0 0 6180 0 0 6104 0 0 6266 0 0 6210 0 0 6160 0 0 6143 0 0 6149 0 0 6158 0 0 6278 0 0 6047 0 0 6151 0 0 6280 0 0 6313 0 0 6187 0 0 6165 0 0 6163 0 0 6271 0 0 6024 0 0 6081 0 0 6165 0 0 6181 0 0 6199 0 0 6118 0 0 6263 0 0 6118 0 0 6148 0 0 6228 0 0 6222 0 0 6043 0 0 6191 0 0 6111 0 0 6203 0 0 6266 0 0 6119 0 0 3076 0 0 0 0 0 0 0 0 0 0 0 0 0 0 0 0 0 0 0 0 0 0 0 0 0 0 0 0 0 
0 0 0 0 0 0 0 0 0 0 0 0 0 0 0 0 0 0 0 0 0 0 0 0 0 0 0 0 0 0 3032 0 0 6276 0 0 6184 0 0 6203 0 0 6022 0 0 6260 0 0 6020 0 0 6144 0 0 6178 0 0 6270 0 0 6183 0 0 6230 0 0 6056 0 0 6195 0 0 6210 0 0 6171 0 0 6187 0 0 6200 0 0 6226 0 0 6431 0 0 6178 0 0 6192 0 0 6090 0 0 6136 0 0 6266 0 0 6191 0 0 6049 0 0 6037 0 0 6152 0 0 6328 0 0 6051 0 0 6229 0 0 6082 0 0 6142 0 0 6185 0 0 6332 0 0 6030 0 0 6184 0 0 6172 0 0 6297 0 0 3030 0 0 0 0 0 0 0 0 0 0 0 0 0 0 0 0 0 0 0 0 0 0 0 0 0 0 0 0 0 
0 0 0 0 0 0 0 0 0 0 0 0 0 0 0 0 0 0 0 0 0 0 0 0 0 0 0 0 0 0 3082 0 0 6169 0 0 5982 0 0 6045 0 0 6171 0 0 6108 0 0 6182 0 0 6231 0 0 6198 0 0 6103 0 0 6154 0 0 6165 0 0 6154 0 0 6096 0 0 6174 0 0 6068 0 0 6198 0 0 6215 0 0 6209 0 0 6166 0 0 6228 0 0 6332 0 0 6065 0 0 6225 0 0 6113 0 0 6228 0 0 6194 0 0 6269 0 0 6374 0 0 6325 0 0 6082 0 0 6194 0 0 5993 0 0 6334 0 0 6161 0 0 6182 0 0 6079 0 0 6223 0 0 6229 0 0 6103 0 0 3117 0 0 0 0 0 0 0 0 0 0 0 0 0 0 0 0 0 0 0 0 0 0 0 0 0 0 0 0 0 
0 0 0 0 0 0 0 0 0 0 0 0 0 0 0 0 0 0 0 0 0 0 0 0 0 0 0 0 0 0 3132 0 0 6057 0 0 6208 0 0 6142 0 0 6225 0 0 6145 0 0 6234 0 0 6184 0 0 6108 0 0 6168 0 0 6184 0 0 5998 0 0 6165 0 0 6142 0 0 6102 0 0 6194 0 0 6079 0 0 6179 0 0 6131 0 0 6213 0 0 6284 0 0 6092 0 0 6259 0 0 6200 0 0 6090 0 0 5983 0 0 6172 0 0 6164 0 0 6284 0 0 6240 0 0 6211 0 0 6139 0 0 6096 0 0 6191 0 0 6205 0 0 6170 0 0 6243 0 0 6098 0 0 5991 0 0 6123 0 0 3104 0 0 0 0 0 0 0 0 0 0 0 0 0 0 0 0 0 0 0 0 0 0 0 0 0 0 0 0 0 
0 0 0 0 0 0 0 0 0 0 0 0 0 0 0 0 0 0 0 0 0 0 0 0 0 0 0 0 0 0 3079 0 0 6272 0 0 6085 0 0 6256 0 0 6201 0 0 6176 0 0 6300 0 0 6049 0 0 6143 0 0 6004 0 0 6300 0 0 6128 0 0 6163 0 0 6151 0 0 6239 0 0 6171 0 0 6263 0 0 6229 0 0 6145 0 0 6217 0 0 6144 0 0 6164 0 0 6055 0 0 6091 0 0 6265 0 0 6079 0 0 6201 0 0 6211 0 0 6260 0 0 6215 0 0 6215 0 0 6184 0 0 6108 0 0 6069 0 0 6201 0 0 6295 0 0 6162 0 0 6203 0 0 6190 0 0 6307 0 0 3006 0 0 0 0 0 0 0 0 0 0 0 0 0 0 0 0 0 0 0 0 0 0 0 0 0 0 0 0 0 
0 0 0 0 0 0 0 0 0 0 0 0 0 0 0 0 0 0 0 0 0 0 0 0 0 0 0 0 0 0 2986 0 0 6154 0 0 6181 0 0 6192 0 0 6111 0 0 6279 0 0 6345 0 0 6153 0 0 6103 0 0 6217 0 0 6364 0 0 6168 0 0 6120 0 0 6190 0 0 6106 0 0 6170 0 0 6096 0 0 6200 0 0 6210 0 0 6208 0 0 6250 0 0 6192 0 0 6172 0 0 6177 0 0 5979 0 0 6198 0 0 6206 0 0 6155 0 0 6200 0 0 6188 0 0 6338 0 0 6139 0 0 6285 0 0 6222 0 0 6057 0 0 6144 0 0 6121 0 0 6203 0 0 6155 0 0 6056 0 0 3019 0 0 0 0 0 0 0 0 0 0 0 0 0 0 0 0 0 0 0 0 0 0 0 0 0 0 0 0 0 
0 0 0 0 0 0 0 0 0 0 0 0 0 0 0 0 0 0 0 0 0 0 0 0 0 0 0 0 0 0 3128 0 0 6178 0 0 6296 0 0 6218 0 0 6077 0 0 6298 0 0 6151 0 0 6252 0 0 6232 0 0 6042 0 0 6122 0 0 6164 0 0 6074 0 0 6035 0 0 6260 0 0 6034 0 0 6137 0 0 6136 0 0 6090 0 0 6169 0 0 6155 0 0 6289 0 0 6117 0 0 6272 0 0 6011 0 0 6029 0 0 6181 0 0 6032 0 0 6183 0 0 6174 0 0 6188 0 0 6124 0 0 6199 0 0 6231 0 0 6189 0 0 6175 0 0 6153 0 0 5948 0 0 6216 0 0 6072 0 0 3123 0 0 0 0 0 0 0 0 0 0 0 0 0 0 0 0 0 0 0 0 0 0 0 0 0 0 0 0 0 
0 0 0 0 0 0 0 0 0 0 0 0 0 0 0 0 0 0 0 0 0 0 0 0 0 0 0 0 0 0 3193 0 0 6098 0 0 6073 0 0 6118 0 0 6145 0 0 6092 0 0 6178 0 0 6260 0 0 6141 0 0 6218 0 0 6040 0 0 6143 0 0 6114 0 0 6194 0 0 6222 0 0 6150 0 0 6274 0 0 5940 0 0 6048 0 0 6118 0 0 6153 0 0 6314 0 0 6216 0 0 6167 0 0 6183 0 0 6262 0 0 6169 0 0 6152 0 0 6149 0 0 6162 0 0 6271 0 0 6054 0 0 6040 0 0 6100 0 0 6240 0 0 6169 0 0 6273 0 0 5975 0 0 6233 0 0 6049 0 0 3083 0 0 0 0 0 0 0 0 0 0 0 0 0 0 0 0 0 0 0 0 0 0 0 0 0 0 0 0 0 
0 0 0 0 0 0 0 0 0 0 0 0 0 0 0 0 0 0 0 0 0 0 0 0 0 0 0 0 0 0 3095 0 0 6034 0 0 6253 0 0 6206 0 0 6190 0 0 6234 0 0 6162 0 0 6132 0 0 6099 0 0 6105 0 0 6203 0 0 6223 0 0 6186 0 0 6183 0 0 6141 0 0 6311 0 0 6236 0 0 6236 0 0 6103 0 0 6239 0 0 6113 0 0 6107 0 0 6178 0 0 6195 0 0 6188 0 0 6167 0 0 6206 0 0 6246 0 0 6104 0 0 6111 0 0 6012 0 0 6142 0 0 6023 0 0 6078 0 0 6215 0 0 6162 0 0 6294 0 0 6210 0 0 6176 0 0 6136 0 0 3112 0 0 0 0 0 0 0 0 0 0 0 0 0 0 0 0 0 0 0 0 0 0 0 0 0 0 0 0 0 
0 0 0 0 0 0 0 0 0 0 0 0 0 0 0 0 0 0 0 0 0 0 0 0 0 0 0 0 0 0 3103 0 0 6073 0 0 6137 0 0 6219 0 0 6104 0 0 6085 0 0 6026 0 0 6120 0 0 6096 0 0 6253 0 0 6214 0 0 6118 0 0 6232 0 0 6026 0 0 6130 0 0 6125 0 0 6081 0 0 6223 0 0 6196 0 0 6055 0 0 6214 0 0 6247 0 0 6131 0 0 6204 0 0 6184 0 0 6140 0 0 6041 0 0 6219 0 0 6119 0 0 6130 0 0 6149 0 0 6115 0 0 6284 0 0 6232 0 0 6171 0 0 6055 0 0 6264 0 0 6235 0 0 6071 0 0 6091 0 0 3086 0 0 0 0 0 0 0 0 0 0 0 0 0 0 0 0 0 0 0 0 0 0 0 0 0 0 0 0 0 
0 0 0 0 0 0 0 0 0 0 0 0 0 0 0 0 0 0 0 0 0 0 0 0 0 0 0 0 0 0 3027 0 0 6276 0 0 6209 0 0 6122 0 0 6030 0 0 6193 0 0 6170 0 0 5967 0 0 6084 0 0 6227 0 0 6115 0 0 6163 0 0 6260 0 0 6185 0 0 6127 0 0 6193 0 0 6146 0 0 6125 0 0 6156 0 0 6314 0 0 6091 0 0 6084 0 0 6190 0 0 6174 0 0 6079 0 0 6234 0 0 6353 0 0 6163 0 0 6203 0 0 6119 0 0 6078 0 0 6166 0 0 6155 0 0 6144 0 0 5997 0 0 6127 0 0 6179 0 0 6128 0 0 6323 0 0 6169 0 0 3032 0 0 0 0 0 0 0 0 0 0 0 0 0 0 0 0 0 0 0 0 0 0 0 0 0 0 0 0 0 
0 0 0 0 0 0 0 0 0 0 0 0 0 0 0 0 0 0 0 0 0 0 0 0 0 0 0 0 0 0 3065 0 0 6197 0 0 6173 0 0 6261 0 0 6217 0 0 6011 0 0 6285 0 0 6235 0 0 6094 0 0 6256 0 0 6147 0 0 6173 0 0 6207 0 0 6313 0 0 6293 0 0 6209 0 0 6132 0 0 6118 0 0 6194 0 0 6165 0 0 6098 0 0 6141 0 0 6223 0 0 6162 0 0 6288 0 0 6222 0 0 6239 0 0 6228 0 0 6047 0 0 6315 0 0 6099 0 0 6251 0 0 6124 0 0 6229 0 0 6285 0 0 6246 0 0 6145 0 0 6120 0 0 6151 0 0 6153 0 0 3178 0 0 0 0 0 0 0 0 0 0 0 0 0 0 0 0 0 0 0 0 0 0 0 0 0 0 0 0 0 
0 0 0 0 0 0 0 0 0 0 0 0 0 0 0 0 0 0 0 0 0 0 0 0 0 0 0 0 0 0 3180 0 0 6115 0 0 6176 0 0 6001 0 0 6180 0 0 6107 0 0 6204 0 0 6215 0 0 6129 0 0 6091 0 0 6279 0 0 6286 0 0 6122 0 0 6254 0 0 6203 0 0 6178 0 0 6170 0 0 6059 0 0 6165 0 0 6001 0 0 6175 0 0 6071 0 0 6270 0 0 6248 0 0 6183 0 0 6115 0 0 6268 0 0 6127 0 0 6302 0 0 6166 0 0 6144 0 0 6141 0 0 6148 0 0 6201 0 0 6091 0 0 6166 0 0 6151 0 0 6154 0 0 6159 0 0 6007 0 0 2965 0 0 0 0 0 0 0 0 0 0 0 0 0 0 0 0 0 0 0 0 0 0 0 0 0 0 0 0 0 
0 0 0 0 0 0 0 0 0 0 0 0 0 0 0 0 0 0 0 0 0 0 0 0 0 0 0 0 0 0 1549 0 0 3130 0 0 3062 0 0 3112 0 0 3044 0 0 3000 0 0 3127 0 0 3040 0 0 3151 0 0 3084 0 0 3077 0 0 2992 0 0 3146 0 0 3072 0 0 3129 0 0 3100 0 0 3099 0 0 3027 0 0 3178 0 0 3133 0 0 3024 0 0 3014 0 0 3138 0 0 3164 0 0 3149 0 0 3088 0 0 3139 0 0 3111 0 0 3127 0 0 3115 0 0 3075 0 0 2958 0 0 3097 0 0 3109 0 0 2994 0 0 3045 0 0 3072 0 0 3142 0 0 3093 0 0 3085 0 0 1565 0 0 0 0 0 0 0 0 0 0 0 0 0 0 0 0 0 0 0 0 0 0 0 0 0 0 0 0 0 
0 0 0 0 0 0 0 0 0 0 0 0 0 0 0 0 0 0 0 0 0 0 0 0 0 0 0 0 0 0 0 0 0 0 0 0 0 0 0 0 0 0 0 0 0 0 0 0 0 0 0 0 0 0 0 0 0 0 0 0 0 0 0 0 0 0 0 0 0 0 0 0 0 0 0 0 0 0 0 0 0 0 0 0 0 0 0 0 0 0 0 0 0 0 0 0 0 0 0 0 0 0 0 0 0 0 0 0 0 0 0 0 0 0 0 0 0 0 0 0 0 0 0 0 0 0 0 0 0 0 0 0 0 0 0 0 0 0 0 0 0 0 0 0 0 0 0 0 0 0 0 0 0 0 0 0 0 0 0 0 0 0 0 0 0 0 0 0 0 0 0 0 0 0 0 0 0 0 0 0 
0 0 0 0 0 0 0 0 0 0 0 0 0 0 0 0 0 0 0 0 0 0 0 0 0 0 0 0 0 0 0 0 0 0 0 0 0 0 0 0 0 0 0 0 0 0 0 0 0 0 0 0 0 0 0 0 0 0 0 0 0 0 0 0 0 0 0 0 0 0 0 0 0 0 0 0 0 0 0 0 0 0 0 0 0 0 0 0 0 0 0 0 0 0 0 0 0 0 0 0 0 0 0 0 0 0 0 0 0 0 0 0 0 0 0 0 0 0 0 0 0 0 0 0 0 0 0 0 0 0 0 0 0 0 0 0 0 0 0 0 0 0 0 0 0 0 0 0 0 0 0 0 0 0 0 0 0 0 0 0 0 0 0 0 0 0 0 0 0 0 0 0 0 0 0 0 0 0 0 0 
0 0 0 0 0 0 0 0 0 0 0 0 0 0 0 0 0 0 0 0 0 0 0 0 0 0 0 0 0 0 0 0 0 0 0 0 0 0 0 0 0 0 0 0 0 0 0 0 0 0 0 0 0 0 0 0 0 0 0 0 0 0 0 0 0 0 0 0 0 0 0 0 0 0 0 0 0 0 0 0 0 0 0 0 0 0 0 0 0 0 0 0 0 0 0 0 0 0 0 0 0 0 0 0 0 0 0 0 0 0 0 0 0 0 0 0 0 0 0 0 0 0 0 0 0 0 0 0 0 0 0 0 0 0 0 0 0 0 0 0 0 0 0 0 0 0 0 0 0 0 0 0 0 0 0 0 0 0 0 0 0 0 0 0 0 0 0 0 0 0 0 0 0 0 0 0 0 0 0 0 
0 0 0 0 0 0 0 0 0 0 0 0 0 0 0 0 0 0 0 0 0 0 0 0 0 0 0 0 0 0 0 0 0 0 0 0 0 0 0 0 0 0 0 0 0 0 0 0 0 0 0 0 0 0 0 0 0 0 0 0 0 0 0 0 0 0 0 0 0 0 0 0 0 0 0 0 0 0 0 0 0 0 0 0 0 0 0 0 0 0 0 0 0 0 0 0 0 0 0 0 0 0 0 0 0 0 0 0 0 0 0 0 0 0 0 0 0 0 0 0 0 0 0 0 0 0 0 0 0 0 0 0 0 0 0 0 0 0 0 0 0 0 0 0 0 0 0 0 0 0 0 0 0 0 0 0 0 0 0 0 0 0 0 0 0 0 0 0 0 0 0 0 0 0 0 0 0 0 0 0 
0 0 0 0 0 0 0 0 0 0 0 0 0 0 0 0 0 0 0 0 0 0 0 0 0 0 0 0 0 0 0 0 0 0 0 0 0 0 0 0 0 0 0 0 0 0 0 0 0 0 0 0 0 0 0 0 0 0 0 0 0 0 0 0 0 0 0 0 0 0 0 0 0 0 0 0 0 0 0 0 0 0 0 0 0 0 0 0 0 0 0 0 0 0 0 0 0 0 0 0 0 0 0 0 0 0 0 0 0 0 0 0 0 0 0 0 0 0 0 0 0 0 0 0 0 0 0 0 0 0 0 0 0 0 0 0 0 0 0 0 0 0 0 0 0 0 0 0 0 0 0 0 0 0 0 0 0 0 0 0 0 0 0 0 0 0 0 0 0 0 0 0 0 0 0 0 0 0 0 0 
0 0 0 0 0 0 0 0 0 0 0 0 0 0 0 0 0 0 0 0 0 0 0 0 0 0 0 0 0 0 0 0 0 0 0 0 0 0 0 0 0 0 0 0 0 0 0 0 0 0 0 0 0 0 0 0 0 0 0 0 0 0 0 0 0 0 0 0 0 0 0 0 0 0 0 0 0 0 0 0 0 0 0 0 0 0 0 0 0 0 0 0 0 0 0 0 0 0 0 0 0 0 0 0 0 0 0 0 0 0 0 0 0 0 0 0 0 0 0 0 0 0 0 0 0 0 0 0 0 0 0 0 0 0 0 0 0 0 0 0 0 0 0 0 0 0 0 0 0 0 0 0 0 0 0 0 0 0 0 0 0 0 0 0 0 0 0 0 0 0 0 0 0 0 0 0 0 0 0 0 
0 0 0 0 0 0 0 0 0 0 0 0 0 0 0 0 0 0 0 0 0 0 0 0 0 0 0 0 0 0 0 0 0 0 0 0 0 0 0 0 0 0 0 0 0 0 0 0 0 0 0 0 0 0 0 0 0 0 0 0 0 0 0 0 0 0 0 0 0 0 0 0 0 0 0 0 0 0 0 0 0 0 0 0 0 0 0 0 0 0 0 0 0 0 0 0 0 0 0 0 0 0 0 0 0 0 0 0 0 0 0 0 0 0 0 0 0 0 0 0 0 0 0 0 0 0 0 0 0 0 0 0 0 0 0 0 0 0 0 0 0 0 0 0 0 0 0 0 0 0 0 0 0 0 0 0 0 0 0 0 0 0 0 0 0 0 0 0 0 0 0 0 0 0 0 0 0 0 0 0 
0 0 0 0 0 0 0 0 0 0 0 0 0 0 0 0 0 0 0 0 0 0 0 0 0 0 0 0 0 0 0 0 0 0 0 0 0 0 0 0 0 0 0 0 0 0 0 0 0 0 0 0 0 0 0 0 0 0 0 0 0 0 0 0 0 0 0 0 0 0 0 0 0 0 0 0 0 0 0 0 0 0 0 0 0 0 0 0 0 0 0 0 0 0 0 0 0 0 0 0 0 0 0 0 0 0 0 0 0 0 0 0 0 0 0 0 0 0 0 0 0 0 0 0 0 0 0 0 0 0 0 0 0 0 0 0 0 0 0 0 0 0 0 0 0 0 0 0 0 0 0 0 0 0 0 0 0 0 0 0 0 0 0 0 0 0 0 0 0 0 0 0 0 0 0 0 0 0 0 0 
0 0 0 0 0 0 0 0 0 0 0 0 0 0 0 0 0 0 0 0 0 0 0 0 0 0 0 0 0 0 0 0 0 0 0 0 0 0 0 0 0 0 0 0 0 0 0 0 0 0 0 0 0 0 0 0 0 0 0 0 0 0 0 0 0 0 0 0 0 0 0 0 0 0 0 0 0 0 0 0 0 0 0 0 0 0 0 0 0 0 0 0 0 0 0 0 0 0 0 0 0 0 0 0 0 0 0 0 0 0 0 0 0 0 0 0 0 0 0 0 0 0 0 0 0 0 0 0 0 0 0 0 0 0 0 0 0 0 0 0 0 0 0 0 0 0 0 0 0 0 0 0 0 0 0 0 0 0 0 0 0 0 0 0 0 0 0 0 0 0 0 0 0 0 0 0 0 0 0 0 
