P3
# This is a dose file slice at depth 45 of 100
60 60
# now we give the maximum value of the RGB coordinates.
21610
1 0 0 2 0 0 2 0 0 0 0 0 4 0 0 0 0 0 2 0 0 1 0 0 1 0 0 3 0 0 3 0 0 0 0 0 2 0 0 0 0 0 2 0 0 2 0 0 2 0 0 2 0 0 0 0 0 3 0 0 3 0 0 0 0 0 3 0 0 3 0 0 1 0 0 2 0 0 1 0 0 3 0 0 2 0 0 2 0 0 3 0 0 1 0 0 1 0 0 0 0 0 0 0 0 0 0 0 1 0 0 2 0 0 2 0 0 2 0 0 1 0 0 2 0 0 0 0 0 0 0 0 3 0 0 1 0 0 1 0 0 0 0 0 0 0 0 0 0 0 2 0 0 0 0 0 1 0 0 3 0 0 4 0 0 1 0 0 1 0 0 0 0 0 0 0 0 0 0 0 
0 0 0 2 0 0 2 0 0 5 0 0 0 0 0 6 0 0 4 0 0 2 0 0 4 0 0 2 0 0 4 0 0 2 0 0 3 0 0 1 0 0 6 0 0 3 0 0 6 0 0 6 0 0 4 0 0 2 0 0 4 0 0 4 0 0 6 0 0 8 0 0 4 0 0 6 0 0 3 0 0 5 0 0 2 0 0 4 0 0 3 0 0 4 0 0 1 0 0 4 0 0 3 0 0 5 0 0 1 0 0 4 0 0 7 0 0 2 0 0 5 0 0 4 0 0 1 0 0 4 0 0 8 0 0 4 0 0 4 0 0 2 0 0 5 0 0 7 0 0 4 0 0 1 0 0 3 0 0 6 0 0 4 0 0 6 0 0 2 0 0 1 0 0 0 0 0 0 0 0 
1 0 0 1 0 0 2 0 0 1 0 0 1 0 0 4 0 0 7 0 0 3 0 0 2 0 0 3 0 0 4 0 0 4 0 0 2 0 0 1 0 0 2 0 0 5 0 0 6 0 0 4 0 0 8 0 0 5 0 0 2 0 0 7 0 0 8 0 0 10 0 0 3 0 0 4 0 0 6 0 0 3 0 0 4 0 0 3 0 0 5 0 0 4 0 0 3 0 0 7 0 0 1 0 0 4 0 0 3 0 0 4 0 0 4 0 0 5 0 0 1 0 0 7 0 0 7 0 0 5 0 0 5 0 0 3 0 0 1 0 0 7 0 0 4 0 0 7 0 0 1 0 0 2 0 0 2 0 0 2 0 0 5 0 0 2 0 0 1 0 0 0 0 0 0 0 0 2 0 0 
2 0 0 4 0 0 4 0 0 3 0 0 4 0 0 5 0 0 5 0 0 6 0 0 3 0 0 3 0 0 4 0 0 6 0 0 1 0 0 4 0 0 3 0 0 4 0 0 7 0 0 5 0 0 4 0 0 5 0 0 3 0 0 7 0 0 3 0 0 9 0 0 9 0 0 5 0 0 8 0 0 6 0 0 2 0 0 1 0 0 5 0 0 4 0 0 4 0 0 9 0 0 4 0 0 3 0 0 6 0 0 6 0 0 5 0 0 3 0 0 4 0 0 5 0 0 6 0 0 1 0 0 8 0 0 7 0 0 2 0 0 3 0 0 6 0 0 10 0 0 0 0 0 3 0 0 3 0 0 1 0 0 3 0 0 0 0 0 0 0 0 0 0 0 4 0 0 1 0 0 
1 0 0 3 0 0 2 0 0 3 0 0 4 0 0 5 0 0 3 0 0 5 0 0 5 0 0 4 0 0 4 0 0 6 0 0 2 0 0 4 0 0 6 0 0 6 0 0 8 0 0 7 0 0 4 0 0 7 0 0 8 0 0 8 0 0 9 0 0 4 0 0 9 0 0 6 0 0 9 0 0 8 0 0 3 0 0 4 0 0 7 0 0 4 0 0 6 0 0 9 0 0 11 0 0 6 0 0 6 0 0 11 0 0 7 0 0 3 0 0 7 0 0 9 0 0 5 0 0 5 0 0 10 0 0 3 0 0 4 0 0 4 0 0 11 0 0 6 0 0 4 0 0 4 0 0 4 0 0 2 0 0 2 0 0 0 0 0 3 0 0 6 0 0 1 0 0 1 0 0 
1 0 0 4 0 0 3 0 0 0 0 0 2 0 0 4 0 0 6 0 0 1 0 0 7 0 0 5 0 0 4 0 0 8 0 0 3 0 0 4 0 0 6 0 0 4 0 0 7 0 0 5 0 0 9 0 0 3 0 0 12 0 0 8 0 0 6 0 0 5 0 0 7 0 0 7 0 0 10 0 0 9 0 0 5 0 0 5 0 0 4 0 0 8 0 0 11 0 0 11 0 0 5 0 0 7 0 0 11 0 0 12 0 0 8 0 0 7 0 0 7 0 0 11 0 0 9 0 0 5 0 0 8 0 0 9 0 0 6 0 0 9 0 0 11 0 0 6 0 0 4 0 0 3 0 0 2 0 0 6 0 0 1 0 0 4 0 0 2 0 0 2 0 0 0 0 0 0 0 0 
1 0 0 1 0 0 6 0 0 5 0 0 0 0 0 3 0 0 4 0 0 1 0 0 2 0 0 6 0 0 5 0 0 8 0 0 9 0 0 3 0 0 5 0 0 6 0 0 4 0 0 9 0 0 7 0 0 13 0 0 12 0 0 13 0 0 13 0 0 11 0 0 9 0 0 8 0 0 10 0 0 8 0 0 10 0 0 9 0 0 10 0 0 7 0 0 14 0 0 14 0 0 6 0 0 20 0 0 12 0 0 9 0 0 8 0 0 4 0 0 6 0 0 12 0 0 10 0 0 7 0 0 5 0 0 5 0 0 7 0 0 6 0 0 8 0 0 4 0 0 4 0 0 4 0 0 5 0 0 6 0 0 5 0 0 5 0 0 3 0 0 1 0 0 2 0 0 0 0 0 
0 0 0 1 0 0 1 0 0 2 0 0 1 0 0 3 0 0 8 0 0 3 0 0 1 0 0 9 0 0 7 0 0 6 0 0 12 0 0 6 0 0 7 0 0 12 0 0 4 0 0 8 0 0 8 0 0 11 0 0 14 0 0 8 0 0 13 0 0 17 0 0 7 0 0 12 0 0 11 0 0 9 0 0 14 0 0 10 0 0 7 0 0 11 0 0 12 0 0 15 0 0 12 0 0 12 0 0 10 0 0 11 0 0 14 0 0 10 0 0 12 0 0 15 0 0 11 0 0 4 0 0 4 0 0 5 0 0 5 0 0 7 0 0 8 0 0 5 0 0 10 0 0 8 0 0 5 0 0 12 0 0 5 0 0 4 0 0 1 0 0 4 0 0 0 0 0 3 0 0 
2 0 0 2 0 0 3 0 0 3 0 0 5 0 0 3 0 0 2 0 0 5 0 0 7 0 0 7 0 0 12 0 0 12 0 0 12 0 0 11 0 0 9 0 0 15 0 0 9 0 0 12 0 0 11 0 0 13 0 0 15 0 0 10 0 0 9 0 0 16 0 0 14 0 0 16 0 0 20 0 0 11 0 0 12 0 0 9 0 0 25 0 0 12 0 0 15 0 0 14 0 0 15 0 0 19 0 0 18 0 0 17 0 0 17 0 0 18 0 0 16 0 0 18 0 0 20 0 0 14 0 0 10 0 0 12 0 0 6 0 0 8 0 0 9 0 0 6 0 0 15 0 0 7 0 0 12 0 0 3 0 0 4 0 0 5 0 0 3 0 0 1 0 0 3 0 0 5 0 0 
2 0 0 3 0 0 2 0 0 6 0 0 6 0 0 5 0 0 7 0 0 7 0 0 7 0 0 7 0 0 30 0 0 47 0 0 61 0 0 54 0 0 56 0 0 50 0 0 55 0 0 64 0 0 54 0 0 71 0 0 58 0 0 57 0 0 48 0 0 56 0 0 60 0 0 47 0 0 65 0 0 61 0 0 67 0 0 60 0 0 71 0 0 59 0 0 48 0 0 58 0 0 57 0 0 66 0 0 60 0 0 66 0 0 48 0 0 66 0 0 60 0 0 58 0 0 71 0 0 55 0 0 60 0 0 54 0 0 59 0 0 46 0 0 59 0 0 51 0 0 33 0 0 9 0 0 10 0 0 7 0 0 5 0 0 4 0 0 7 0 0 3 0 0 4 0 0 1 0 0 
2 0 0 6 0 0 6 0 0 7 0 0 4 0 0 3 0 0 7 0 0 9 0 0 6 0 0 29 0 0 1933 0 0 3829 0 0 3857 0 0 3874 0 0 3861 0 0 3991 0 0 3876 0 0 3877 0 0 3863 0 0 3880 0 0 3881 0 0 3829 0 0 3950 0 0 3947 0 0 3914 0 0 3806 0 0 3828 0 0 3811 0 0 3942 0 0 3906 0 0 3840 0 0 3924 0 0 3823 0 0 3919 0 0 3891 0 0 3865 0 0 3899 0 0 3871 0 0 3869 0 0 3901 0 0 3840 0 0 3846 0 0 3874 0 0 3812 0 0 3892 0 0 3966 0 0 3858 0 0 3872 0 0 3898 0 0 3962 0 0 1959 0 0 37 0 0 12 0 0 8 0 0 7 0 0 5 0 0 7 0 0 6 0 0 5 0 0 4 0 0 
2 0 0 5 0 0 3 0 0 6 0 0 4 0 0 7 0 0 9 0 0 11 0 0 12 0 0 56 0 0 3849 0 0 7623 0 0 7539 0 0 7676 0 0 7773 0 0 7711 0 0 7814 0 0 7772 0 0 7742 0 0 7755 0 0 7770 0 0 7717 0 0 7816 0 0 7788 0 0 7685 0 0 7809 0 0 7799 0 0 7645 0 0 7872 0 0 7785 0 0 7668 0 0 7676 0 0 7718 0 0 7857 0 0 7741 0 0 7761 0 0 7692 0 0 7757 0 0 7769 0 0 7942 0 0 7771 0 0 7712 0 0 7674 0 0 7757 0 0 7626 0 0 7831 0 0 7798 0 0 7846 0 0 7623 0 0 7653 0 0 3874 0 0 60 0 0 12 0 0 6 0 0 7 0 0 7 0 0 7 0 0 6 0 0 3 0 0 5 0 0 
3 0 0 3 0 0 2 0 0 4 0 0 5 0 0 2 0 0 5 0 0 12 0 0 8 0 0 55 0 0 3816 0 0 7752 0 0 7696 0 0 7762 0 0 7836 0 0 7758 0 0 7843 0 0 7856 0 0 7798 0 0 7634 0 0 7843 0 0 7717 0 0 7862 0 0 7795 0 0 7807 0 0 7918 0 0 7781 0 0 7778 0 0 7937 0 0 7781 0 0 7867 0 0 7776 0 0 7920 0 0 7770 0 0 7728 0 0 7667 0 0 7707 0 0 7829 0 0 7903 0 0 7764 0 0 7854 0 0 7893 0 0 7832 0 0 7817 0 0 7731 0 0 7739 0 0 7789 0 0 7838 0 0 7944 0 0 7739 0 0 3844 0 0 54 0 0 8 0 0 8 0 0 9 0 0 6 0 0 3 0 0 3 0 0 6 0 0 5 0 0 
3 0 0 4 0 0 2 0 0 0 0 0 4 0 0 4 0 0 3 0 0 8 0 0 11 0 0 56 0 0 3850 0 0 7719 0 0 7842 0 0 7662 0 0 7806 0 0 7893 0 0 7767 0 0 7767 0 0 7910 0 0 7773 0 0 7731 0 0 7822 0 0 7917 0 0 7801 0 0 7658 0 0 7596 0 0 7675 0 0 7803 0 0 7823 0 0 7809 0 0 7818 0 0 7719 0 0 7800 0 0 7815 0 0 7803 0 0 7882 0 0 7872 0 0 7840 0 0 7795 0 0 7768 0 0 7815 0 0 7737 0 0 7628 0 0 7785 0 0 7763 0 0 7867 0 0 7887 0 0 7785 0 0 7815 0 0 7725 0 0 4049 0 0 62 0 0 9 0 0 8 0 0 8 0 0 9 0 0 3 0 0 4 0 0 2 0 0 3 0 0 
0 0 0 4 0 0 6 0 0 7 0 0 5 0 0 5 0 0 2 0 0 8 0 0 10 0 0 55 0 0 3800 0 0 7561 0 0 7692 0 0 7739 0 0 7784 0 0 7732 0 0 7903 0 0 7703 0 0 7745 0 0 7671 0 0 7670 0 0 7814 0 0 7781 0 0 7817 0 0 7695 0 0 7828 0 0 7737 0 0 7782 0 0 7705 0 0 7811 0 0 7769 0 0 7697 0 0 7705 0 0 7712 0 0 7791 0 0 7716 0 0 7794 0 0 7768 0 0 7769 0 0 7742 0 0 7861 0 0 7716 0 0 7820 0 0 7811 0 0 7878 0 0 7852 0 0 7725 0 0 7936 0 0 7780 0 0 7837 0 0 3933 0 0 48 0 0 15 0 0 7 0 0 8 0 0 8 0 0 3 0 0 2 0 0 4 0 0 2 0 0 
1 0 0 1 0 0 4 0 0 5 0 0 4 0 0 5 0 0 10 0 0 9 0 0 18 0 0 66 0 0 3978 0 0 7680 0 0 7729 0 0 7790 0 0 7922 0 0 7740 0 0 7896 0 0 7603 0 0 7859 0 0 7809 0 0 7885 0 0 7749 0 0 7734 0 0 7713 0 0 7686 0 0 7692 0 0 7735 0 0 7748 0 0 7845 0 0 7907 0 0 7845 0 0 7753 0 0 7682 0 0 7774 0 0 7811 0 0 7664 0 0 7673 0 0 7780 0 0 7737 0 0 7689 0 0 7770 0 0 7659 0 0 7742 0 0 7924 0 0 7772 0 0 7882 0 0 7851 0 0 7869 0 0 7822 0 0 7820 0 0 3879 0 0 50 0 0 12 0 0 10 0 0 10 0 0 2 0 0 7 0 0 4 0 0 6 0 0 6 0 0 
2 0 0 6 0 0 3 0 0 3 0 0 6 0 0 6 0 0 9 0 0 9 0 0 12 0 0 58 0 0 3856 0 0 7700 0 0 7668 0 0 7837 0 0 7888 0 0 7883 0 0 7814 0 0 7748 0 0 7902 0 0 7817 0 0 7782 0 0 7766 0 0 7943 0 0 7808 0 0 7736 0 0 7779 0 0 7878 0 0 7912 0 0 7749 0 0 7668 0 0 7845 0 0 7860 0 0 7749 0 0 7920 0 0 7857 0 0 7749 0 0 7807 0 0 7887 0 0 7744 0 0 7735 0 0 7814 0 0 7670 0 0 7699 0 0 7689 0 0 7755 0 0 7960 0 0 7826 0 0 7658 0 0 7784 0 0 7803 0 0 3856 0 0 59 0 0 13 0 0 14 0 0 8 0 0 8 0 0 4 0 0 4 0 0 7 0 0 5 0 0 
2 0 0 3 0 0 6 0 0 5 0 0 6 0 0 6 0 0 6 0 0 12 0 0 12 0 0 55 0 0 3969 0 0 7838 0 0 7756 0 0 7806 0 0 7763 0 0 7860 0 0 7672 0 0 7802 0 0 7812 0 0 7828 0 0 7775 0 0 7852 0 0 7764 0 0 7658 0 0 7681 0 0 7786 0 0 7801 0 0 7706 0 0 7752 0 0 7763 0 0 7808 0 0 7756 0 0 7723 0 0 7851 0 0 7772 0 0 7784 0 0 7890 0 0 7912 0 0 7814 0 0 7904 0 0 7788 0 0 7841 0 0 7825 0 0 7723 0 0 7742 0 0 7837 0 0 7754 0 0 7811 0 0 7716 0 0 7779 0 0 3805 0 0 56 0 0 11 0 0 8 0 0 8 0 0 6 0 0 8 0 0 5 0 0 7 0 0 9 0 0 
1 0 0 3 0 0 3 0 0 5 0 0 7 0 0 5 0 0 5 0 0 11 0 0 16 0 0 60 0 0 3894 0 0 7569 0 0 7634 0 0 7759 0 0 7809 0 0 7850 0 0 7731 0 0 7723 0 0 7840 0 0 7883 0 0 7846 0 0 7931 0 0 7672 0 0 7688 0 0 7758 0 0 7878 0 0 7788 0 0 7807 0 0 7756 0 0 7649 0 0 7785 0 0 7765 0 0 7808 0 0 7732 0 0 7851 0 0 7812 0 0 7760 0 0 7832 0 0 7832 0 0 7734 0 0 7756 0 0 7827 0 0 7756 0 0 7748 0 0 7765 0 0 7676 0 0 7770 0 0 7827 0 0 7903 0 0 7942 0 0 3954 0 0 54 0 0 10 0 0 8 0 0 7 0 0 11 0 0 8 0 0 0 0 0 2 0 0 3 0 0 
0 0 0 1 0 0 0 0 0 2 0 0 5 0 0 9 0 0 11 0 0 15 0 0 13 0 0 55 0 0 3846 0 0 7683 0 0 7751 0 0 7832 0 0 7865 0 0 7781 0 0 7621 0 0 7810 0 0 7873 0 0 7743 0 0 7842 0 0 7643 0 0 7768 0 0 7778 0 0 7727 0 0 7763 0 0 7727 0 0 7731 0 0 7824 0 0 7818 0 0 7783 0 0 7812 0 0 7796 0 0 7873 0 0 7827 0 0 7766 0 0 7800 0 0 7858 0 0 7814 0 0 7820 0 0 7663 0 0 7788 0 0 7890 0 0 7885 0 0 7734 0 0 7814 0 0 7749 0 0 7768 0 0 7750 0 0 7722 0 0 3782 0 0 65 0 0 16 0 0 12 0 0 8 0 0 7 0 0 4 0 0 5 0 0 2 0 0 2 0 0 
2 0 0 5 0 0 6 0 0 5 0 0 5 0 0 3 0 0 8 0 0 10 0 0 10 0 0 73 0 0 3891 0 0 7716 0 0 7720 0 0 7776 0 0 7640 0 0 7720 0 0 7825 0 0 7903 0 0 7908 0 0 7844 0 0 7891 0 0 7743 0 0 7808 0 0 7793 0 0 7777 0 0 7856 0 0 7642 0 0 7856 0 0 7745 0 0 7767 0 0 7783 0 0 7666 0 0 7697 0 0 7821 0 0 7905 0 0 8007 0 0 7953 0 0 7898 0 0 7815 0 0 7698 0 0 7751 0 0 7805 0 0 7851 0 0 7732 0 0 7812 0 0 7765 0 0 7739 0 0 7787 0 0 7616 0 0 7770 0 0 3887 0 0 67 0 0 15 0 0 17 0 0 9 0 0 4 0 0 7 0 0 6 0 0 9 0 0 5 0 0 
3 0 0 6 0 0 7 0 0 8 0 0 7 0 0 2 0 0 5 0 0 6 0 0 13 0 0 58 0 0 3833 0 0 7789 0 0 7654 0 0 7835 0 0 7832 0 0 7774 0 0 7658 0 0 7820 0 0 7781 0 0 7810 0 0 7871 0 0 7811 0 0 7817 0 0 7780 0 0 7816 0 0 7766 0 0 7767 0 0 7925 0 0 7750 0 0 7760 0 0 7773 0 0 7796 0 0 7681 0 0 7760 0 0 7694 0 0 7764 0 0 7774 0 0 7873 0 0 7856 0 0 7798 0 0 7693 0 0 7752 0 0 7857 0 0 7690 0 0 7690 0 0 7753 0 0 7887 0 0 7799 0 0 7774 0 0 7716 0 0 3898 0 0 47 0 0 9 0 0 6 0 0 10 0 0 8 0 0 5 0 0 3 0 0 4 0 0 4 0 0 
1 0 0 5 0 0 8 0 0 4 0 0 3 0 0 6 0 0 2 0 0 11 0 0 15 0 0 67 0 0 3883 0 0 7806 0 0 7601 0 0 7749 0 0 7938 0 0 7732 0 0 7916 0 0 7806 0 0 7716 0 0 7864 0 0 7704 0 0 7712 0 0 7771 0 0 7567 0 0 7914 0 0 7826 0 0 7532 0 0 7842 0 0 7851 0 0 7848 0 0 7747 0 0 7789 0 0 7838 0 0 7800 0 0 7638 0 0 7794 0 0 7661 0 0 7817 0 0 7753 0 0 7816 0 0 7799 0 0 7715 0 0 7685 0 0 7853 0 0 7953 0 0 7745 0 0 7733 0 0 7710 0 0 7751 0 0 7603 0 0 3906 0 0 55 0 0 11 0 0 12 0 0 7 0 0 5 0 0 5 0 0 5 0 0 4 0 0 3 0 0 
3 0 0 12 0 0 6 0 0 8 0 0 6 0 0 9 0 0 10 0 0 12 0 0 22 0 0 66 0 0 3974 0 0 7551 0 0 7669 0 0 7918 0 0 7764 0 0 7895 0 0 7810 0 0 7745 0 0 7807 0 0 7769 0 0 7837 0 0 7961 0 0 7818 0 0 7648 0 0 7842 0 0 7684 0 0 7763 0 0 7742 0 0 7747 0 0 7913 0 0 7599 0 0 7753 0 0 7633 0 0 7793 0 0 7726 0 0 7692 0 0 7735 0 0 7941 0 0 7897 0 0 7867 0 0 7955 0 0 7754 0 0 7825 0 0 7747 0 0 7795 0 0 7769 0 0 7708 0 0 7783 0 0 7745 0 0 7677 0 0 3896 0 0 74 0 0 9 0 0 2 0 0 2 0 0 4 0 0 7 0 0 2 0 0 3 0 0 7 0 0 
3 0 0 7 0 0 10 0 0 9 0 0 9 0 0 8 0 0 6 0 0 11 0 0 16 0 0 55 0 0 3879 0 0 7665 0 0 7928 0 0 7932 0 0 7707 0 0 7654 0 0 7640 0 0 7935 0 0 7736 0 0 7823 0 0 7702 0 0 7646 0 0 7774 0 0 7805 0 0 7785 0 0 7755 0 0 7769 0 0 7710 0 0 7785 0 0 7796 0 0 7801 0 0 7859 0 0 7815 0 0 7670 0 0 7858 0 0 7698 0 0 7825 0 0 7887 0 0 7838 0 0 7857 0 0 7754 0 0 7894 0 0 7821 0 0 7875 0 0 7761 0 0 7751 0 0 7716 0 0 7806 0 0 7877 0 0 7798 0 0 3923 0 0 59 0 0 14 0 0 3 0 0 8 0 0 13 0 0 8 0 0 2 0 0 3 0 0 5 0 0 
2 0 0 2 0 0 6 0 0 12 0 0 8 0 0 7 0 0 10 0 0 13 0 0 16 0 0 56 0 0 3856 0 0 7689 0 0 7827 0 0 7769 0 0 7810 0 0 7762 0 0 7734 0 0 7780 0 0 7760 0 0 7898 0 0 7852 0 0 7730 0 0 7804 0 0 7769 0 0 7807 0 0 7914 0 0 7749 0 0 7859 0 0 7708 0 0 7715 0 0 7714 0 0 7780 0 0 7828 0 0 7630 0 0 7845 0 0 7799 0 0 7933 0 0 7795 0 0 7762 0 0 7786 0 0 7872 0 0 7752 0 0 7862 0 0 7658 0 0 7793 0 0 7813 0 0 7826 0 0 7827 0 0 7855 0 0 7743 0 0 3859 0 0 59 0 0 17 0 0 11 0 0 8 0 0 9 0 0 8 0 0 6 0 0 3 0 0 2 0 0 
2 0 0 3 0 0 12 0 0 9 0 0 12 0 0 8 0 0 8 0 0 11 0 0 14 0 0 62 0 0 3765 0 0 7761 0 0 7799 0 0 7704 0 0 7630 0 0 7755 0 0 7877 0 0 7770 0 0 7769 0 0 7837 0 0 7974 0 0 7813 0 0 7775 0 0 7807 0 0 7799 0 0 7787 0 0 7936 0 0 7787 0 0 7746 0 0 7744 0 0 7724 0 0 7894 0 0 7892 0 0 7833 0 0 7840 0 0 7842 0 0 7923 0 0 7680 0 0 7618 0 0 7869 0 0 7719 0 0 7752 0 0 7638 0 0 7922 0 0 7806 0 0 7833 0 0 7771 0 0 7859 0 0 7822 0 0 7737 0 0 3930 0 0 61 0 0 11 0 0 12 0 0 7 0 0 4 0 0 5 0 0 6 0 0 6 0 0 6 0 0 
3 0 0 5 0 0 2 0 0 5 0 0 9 0 0 7 0 0 4 0 0 8 0 0 13 0 0 64 0 0 3983 0 0 7678 0 0 7883 0 0 8024 0 0 7722 0 0 7822 0 0 7799 0 0 7918 0 0 7781 0 0 7795 0 0 7773 0 0 7830 0 0 7767 0 0 7679 0 0 7920 0 0 7882 0 0 7950 0 0 7851 0 0 7773 0 0 7729 0 0 7778 0 0 7789 0 0 7790 0 0 7885 0 0 7746 0 0 7724 0 0 7754 0 0 7870 0 0 7749 0 0 7764 0 0 7762 0 0 7796 0 0 7637 0 0 7721 0 0 7759 0 0 7924 0 0 7828 0 0 7985 0 0 7771 0 0 7749 0 0 3800 0 0 60 0 0 12 0 0 10 0 0 8 0 0 3 0 0 6 0 0 8 0 0 8 0 0 5 0 0 
0 0 0 5 0 0 5 0 0 4 0 0 5 0 0 5 0 0 7 0 0 12 0 0 16 0 0 73 0 0 3870 0 0 7692 0 0 7805 0 0 7778 0 0 7907 0 0 7706 0 0 7831 0 0 7782 0 0 7654 0 0 7789 0 0 7907 0 0 7806 0 0 7822 0 0 7773 0 0 7919 0 0 7617 0 0 7802 0 0 7717 0 0 7835 0 0 7730 0 0 7793 0 0 7794 0 0 7833 0 0 7939 0 0 7709 0 0 7853 0 0 7802 0 0 7816 0 0 7787 0 0 7829 0 0 7770 0 0 7775 0 0 7732 0 0 7722 0 0 7854 0 0 7765 0 0 7788 0 0 7820 0 0 7815 0 0 7731 0 0 3947 0 0 64 0 0 22 0 0 14 0 0 15 0 0 9 0 0 6 0 0 3 0 0 2 0 0 6 0 0 
0 0 0 1 0 0 2 0 0 5 0 0 9 0 0 6 0 0 13 0 0 14 0 0 17 0 0 73 0 0 3816 0 0 7733 0 0 7756 0 0 7819 0 0 7841 0 0 7773 0 0 7717 0 0 7673 0 0 7839 0 0 7816 0 0 7828 0 0 7736 0 0 7805 0 0 7749 0 0 7895 0 0 7637 0 0 7836 0 0 8014 0 0 7749 0 0 7718 0 0 7720 0 0 7698 0 0 7812 0 0 7957 0 0 7788 0 0 7678 0 0 7701 0 0 7844 0 0 7734 0 0 7591 0 0 7792 0 0 7666 0 0 7763 0 0 7743 0 0 7811 0 0 7754 0 0 7731 0 0 7783 0 0 7873 0 0 7860 0 0 3746 0 0 77 0 0 20 0 0 9 0 0 9 0 0 12 0 0 7 0 0 3 0 0 2 0 0 4 0 0 
3 0 0 6 0 0 3 0 0 2 0 0 6 0 0 8 0 0 10 0 0 11 0 0 6 0 0 67 0 0 3859 0 0 7684 0 0 7804 0 0 7736 0 0 7891 0 0 7780 0 0 7728 0 0 7657 0 0 7713 0 0 7786 0 0 7733 0 0 7738 0 0 7761 0 0 7944 0 0 7948 0 0 7696 0 0 7945 0 0 7890 0 0 7862 0 0 7703 0 0 7899 0 0 7846 0 0 7793 0 0 7798 0 0 7782 0 0 7827 0 0 7780 0 0 7753 0 0 7788 0 0 7699 0 0 7792 0 0 7839 0 0 7828 0 0 7770 0 0 7881 0 0 7748 0 0 7729 0 0 7694 0 0 7597 0 0 7631 0 0 3911 0 0 56 0 0 12 0 0 19 0 0 11 0 0 12 0 0 9 0 0 5 0 0 4 0 0 5 0 0 
1 0 0 6 0 0 8 0 0 7 0 0 9 0 0 9 0 0 11 0 0 16 0 0 15 0 0 59 0 0 3916 0 0 7715 0 0 7707 0 0 7879 0 0 7745 0 0 7718 0 0 7536 0 0 7832 0 0 7740 0 0 7832 0 0 7745 0 0 7677 0 0 7866 0 0 7813 0 0 7730 0 0 7748 0 0 7791 0 0 7739 0 0 7819 0 0 7742 0 0 7688 0 0 7926 0 0 7777 0 0 7671 0 0 7760 0 0 7851 0 0 7666 0 0 7966 0 0 7838 0 0 7773 0 0 7859 0 0 7702 0 0 7789 0 0 7733 0 0 7775 0 0 7632 0 0 7715 0 0 7874 0 0 7755 0 0 7691 0 0 3937 0 0 51 0 0 23 0 0 20 0 0 11 0 0 8 0 0 12 0 0 6 0 0 4 0 0 4 0 0 
1 0 0 2 0 0 2 0 0 7 0 0 8 0 0 12 0 0 11 0 0 10 0 0 13 0 0 52 0 0 3916 0 0 7658 0 0 7949 0 0 7735 0 0 7975 0 0 7774 0 0 7788 0 0 7745 0 0 7805 0 0 7772 0 0 7813 0 0 7859 0 0 7805 0 0 7729 0 0 7935 0 0 7716 0 0 7703 0 0 7824 0 0 7765 0 0 7852 0 0 7748 0 0 7909 0 0 7721 0 0 7876 0 0 7760 0 0 7825 0 0 7723 0 0 7740 0 0 7865 0 0 7717 0 0 7863 0 0 7825 0 0 7808 0 0 7712 0 0 7724 0 0 7847 0 0 7839 0 0 7826 0 0 7695 0 0 7568 0 0 3901 0 0 71 0 0 10 0 0 17 0 0 10 0 0 8 0 0 7 0 0 7 0 0 9 0 0 6 0 0 
6 0 0 9 0 0 5 0 0 10 0 0 9 0 0 10 0 0 11 0 0 4 0 0 16 0 0 56 0 0 3917 0 0 7700 0 0 7679 0 0 7849 0 0 7752 0 0 7799 0 0 7888 0 0 7826 0 0 7753 0 0 7826 0 0 7826 0 0 7645 0 0 7874 0 0 7753 0 0 7754 0 0 7754 0 0 7873 0 0 7905 0 0 7834 0 0 7796 0 0 7826 0 0 7823 0 0 7864 0 0 7915 0 0 7760 0 0 7786 0 0 7828 0 0 7752 0 0 7779 0 0 7777 0 0 7836 0 0 7868 0 0 7893 0 0 7728 0 0 7911 0 0 7792 0 0 7788 0 0 7861 0 0 7940 0 0 7594 0 0 3917 0 0 65 0 0 13 0 0 11 0 0 8 0 0 8 0 0 7 0 0 4 0 0 5 0 0 7 0 0 
5 0 0 7 0 0 8 0 0 10 0 0 6 0 0 9 0 0 13 0 0 15 0 0 8 0 0 63 0 0 3883 0 0 7680 0 0 7813 0 0 7755 0 0 7654 0 0 7796 0 0 7752 0 0 7821 0 0 7785 0 0 7864 0 0 7872 0 0 7790 0 0 7712 0 0 7740 0 0 7863 0 0 7725 0 0 7934 0 0 7717 0 0 7632 0 0 7843 0 0 7740 0 0 7787 0 0 7887 0 0 7734 0 0 7785 0 0 7680 0 0 7825 0 0 7732 0 0 7817 0 0 7804 0 0 7702 0 0 7756 0 0 7840 0 0 7803 0 0 7916 0 0 7754 0 0 7930 0 0 7692 0 0 7795 0 0 7629 0 0 3861 0 0 65 0 0 10 0 0 9 0 0 7 0 0 11 0 0 6 0 0 7 0 0 10 0 0 6 0 0 
3 0 0 5 0 0 6 0 0 6 0 0 11 0 0 5 0 0 7 0 0 12 0 0 15 0 0 56 0 0 3865 0 0 7782 0 0 7652 0 0 7710 0 0 7861 0 0 7732 0 0 7927 0 0 7611 0 0 7774 0 0 7599 0 0 7761 0 0 7786 0 0 7870 0 0 7897 0 0 7824 0 0 7932 0 0 7727 0 0 7727 0 0 7861 0 0 7694 0 0 7762 0 0 7931 0 0 7602 0 0 7793 0 0 7814 0 0 7750 0 0 7761 0 0 7727 0 0 7759 0 0 7955 0 0 7760 0 0 7728 0 0 7885 0 0 7891 0 0 7755 0 0 7818 0 0 7680 0 0 7811 0 0 7726 0 0 7702 0 0 3853 0 0 68 0 0 12 0 0 10 0 0 9 0 0 15 0 0 9 0 0 9 0 0 11 0 0 5 0 0 
3 0 0 5 0 0 7 0 0 4 0 0 6 0 0 12 0 0 5 0 0 5 0 0 20 0 0 62 0 0 3912 0 0 7782 0 0 7806 0 0 7816 0 0 7786 0 0 7715 0 0 7845 0 0 7762 0 0 7681 0 0 7686 0 0 7833 0 0 7656 0 0 7771 0 0 7913 0 0 7990 0 0 7739 0 0 7858 0 0 7689 0 0 7814 0 0 7828 0 0 7822 0 0 7907 0 0 7741 0 0 7735 0 0 7830 0 0 7691 0 0 7790 0 0 7861 0 0 7901 0 0 7890 0 0 7755 0 0 7775 0 0 7935 0 0 7904 0 0 7872 0 0 7792 0 0 7876 0 0 7687 0 0 7779 0 0 7612 0 0 3820 0 0 73 0 0 16 0 0 10 0 0 9 0 0 8 0 0 5 0 0 3 0 0 7 0 0 5 0 0 
0 0 0 0 0 0 4 0 0 11 0 0 10 0 0 3 0 0 6 0 0 6 0 0 12 0 0 57 0 0 3914 0 0 7625 0 0 7671 0 0 7757 0 0 7693 0 0 7929 0 0 7864 0 0 7949 0 0 7623 0 0 7693 0 0 7840 0 0 7690 0 0 7758 0 0 7788 0 0 7826 0 0 7827 0 0 7941 0 0 7719 0 0 7904 0 0 7843 0 0 7746 0 0 7855 0 0 7843 0 0 7861 0 0 7874 0 0 7909 0 0 7702 0 0 7546 0 0 7903 0 0 7870 0 0 7780 0 0 7782 0 0 7805 0 0 7738 0 0 7747 0 0 7536 0 0 7745 0 0 7831 0 0 7880 0 0 7703 0 0 3957 0 0 49 0 0 17 0 0 8 0 0 8 0 0 9 0 0 5 0 0 6 0 0 6 0 0 8 0 0 
1 0 0 2 0 0 3 0 0 5 0 0 8 0 0 7 0 0 9 0 0 7 0 0 13 0 0 62 0 0 3931 0 0 7856 0 0 7774 0 0 7746 0 0 7776 0 0 7698 0 0 7852 0 0 7700 0 0 7808 0 0 7865 0 0 7770 0 0 7801 0 0 7785 0 0 7910 0 0 7766 0 0 7758 0 0 7808 0 0 7806 0 0 7708 0 0 7621 0 0 7784 0 0 7837 0 0 7929 0 0 7907 0 0 7734 0 0 7869 0 0 7781 0 0 7771 0 0 7698 0 0 7784 0 0 7970 0 0 7784 0 0 7781 0 0 7680 0 0 7783 0 0 7801 0 0 7787 0 0 7798 0 0 7806 0 0 7810 0 0 3919 0 0 69 0 0 10 0 0 12 0 0 13 0 0 3 0 0 1 0 0 4 0 0 8 0 0 5 0 0 
1 0 0 9 0 0 7 0 0 4 0 0 9 0 0 8 0 0 9 0 0 6 0 0 8 0 0 57 0 0 3844 0 0 7731 0 0 7773 0 0 7753 0 0 7894 0 0 7935 0 0 7841 0 0 7961 0 0 7623 0 0 7692 0 0 7842 0 0 7814 0 0 7795 0 0 7833 0 0 7800 0 0 7702 0 0 7926 0 0 7735 0 0 7748 0 0 7753 0 0 7793 0 0 7819 0 0 7856 0 0 7760 0 0 7772 0 0 7873 0 0 7813 0 0 7817 0 0 7837 0 0 7876 0 0 7744 0 0 7729 0 0 7720 0 0 7830 0 0 7867 0 0 7978 0 0 7872 0 0 7867 0 0 7716 0 0 7781 0 0 3916 0 0 74 0 0 22 0 0 13 0 0 7 0 0 10 0 0 9 0 0 12 0 0 10 0 0 6 0 0 
1 0 0 7 0 0 6 0 0 7 0 0 7 0 0 7 0 0 10 0 0 9 0 0 16 0 0 51 0 0 3967 0 0 7760 0 0 7802 0 0 7665 0 0 7868 0 0 7754 0 0 7800 0 0 7829 0 0 7847 0 0 7839 0 0 7957 0 0 7640 0 0 7766 0 0 7644 0 0 7893 0 0 7745 0 0 7848 0 0 7830 0 0 7824 0 0 7930 0 0 7776 0 0 7795 0 0 7800 0 0 7925 0 0 7823 0 0 7851 0 0 7771 0 0 7737 0 0 7769 0 0 7949 0 0 7938 0 0 7690 0 0 7950 0 0 7942 0 0 7713 0 0 7697 0 0 7679 0 0 7747 0 0 7828 0 0 7752 0 0 3957 0 0 65 0 0 9 0 0 10 0 0 2 0 0 2 0 0 5 0 0 4 0 0 8 0 0 9 0 0 
3 0 0 6 0 0 4 0 0 6 0 0 7 0 0 8 0 0 3 0 0 9 0 0 16 0 0 60 0 0 3968 0 0 7720 0 0 7745 0 0 7867 0 0 7763 0 0 7958 0 0 7880 0 0 7854 0 0 7786 0 0 7766 0 0 7738 0 0 7736 0 0 7684 0 0 7670 0 0 7761 0 0 7778 0 0 7676 0 0 7869 0 0 7724 0 0 7750 0 0 7848 0 0 7830 0 0 7863 0 0 7870 0 0 7815 0 0 7897 0 0 7776 0 0 7725 0 0 7648 0 0 7874 0 0 7787 0 0 7632 0 0 7761 0 0 7787 0 0 7738 0 0 7863 0 0 7630 0 0 7803 0 0 7695 0 0 7665 0 0 3952 0 0 55 0 0 13 0 0 11 0 0 9 0 0 6 0 0 5 0 0 4 0 0 2 0 0 2 0 0 
3 0 0 7 0 0 4 0 0 7 0 0 6 0 0 5 0 0 5 0 0 12 0 0 24 0 0 66 0 0 3799 0 0 7809 0 0 7907 0 0 7825 0 0 7723 0 0 7828 0 0 7858 0 0 7697 0 0 7918 0 0 7971 0 0 7859 0 0 7806 0 0 7692 0 0 7943 0 0 7825 0 0 7814 0 0 7707 0 0 7757 0 0 7826 0 0 7860 0 0 7757 0 0 7930 0 0 7671 0 0 7923 0 0 7691 0 0 7750 0 0 7796 0 0 7783 0 0 7743 0 0 7904 0 0 7789 0 0 7725 0 0 7834 0 0 7768 0 0 7627 0 0 7738 0 0 7750 0 0 7811 0 0 7907 0 0 7745 0 0 3859 0 0 57 0 0 15 0 0 8 0 0 4 0 0 8 0 0 8 0 0 9 0 0 5 0 0 4 0 0 
3 0 0 3 0 0 6 0 0 5 0 0 7 0 0 3 0 0 3 0 0 11 0 0 22 0 0 64 0 0 3892 0 0 7794 0 0 7836 0 0 7772 0 0 7787 0 0 7830 0 0 7994 0 0 7873 0 0 7752 0 0 7657 0 0 7790 0 0 7824 0 0 7800 0 0 7774 0 0 7760 0 0 7780 0 0 7705 0 0 7882 0 0 7790 0 0 7920 0 0 7922 0 0 7723 0 0 7768 0 0 7870 0 0 7739 0 0 7873 0 0 7748 0 0 7807 0 0 7716 0 0 7825 0 0 7741 0 0 7827 0 0 7828 0 0 7916 0 0 7656 0 0 7722 0 0 7778 0 0 7782 0 0 7710 0 0 7684 0 0 3910 0 0 67 0 0 10 0 0 3 0 0 9 0 0 8 0 0 2 0 0 4 0 0 1 0 0 1 0 0 
1 0 0 5 0 0 6 0 0 3 0 0 3 0 0 9 0 0 17 0 0 19 0 0 14 0 0 64 0 0 3874 0 0 7745 0 0 7816 0 0 7746 0 0 7768 0 0 7796 0 0 7711 0 0 7682 0 0 7930 0 0 7579 0 0 7808 0 0 7854 0 0 7794 0 0 7767 0 0 7812 0 0 7729 0 0 7728 0 0 7748 0 0 7655 0 0 7854 0 0 7928 0 0 7648 0 0 7762 0 0 7762 0 0 7762 0 0 7667 0 0 7687 0 0 7827 0 0 7850 0 0 7725 0 0 7876 0 0 7713 0 0 7637 0 0 7908 0 0 7689 0 0 7774 0 0 7820 0 0 7746 0 0 7813 0 0 7742 0 0 3884 0 0 70 0 0 14 0 0 9 0 0 6 0 0 4 0 0 5 0 0 3 0 0 7 0 0 6 0 0 
3 0 0 7 0 0 2 0 0 6 0 0 4 0 0 7 0 0 8 0 0 11 0 0 16 0 0 61 0 0 3950 0 0 7838 0 0 7939 0 0 7676 0 0 7846 0 0 7870 0 0 7815 0 0 7912 0 0 7854 0 0 7837 0 0 7629 0 0 7655 0 0 7930 0 0 7758 0 0 7838 0 0 7803 0 0 7867 0 0 7930 0 0 7849 0 0 7787 0 0 7807 0 0 7861 0 0 7900 0 0 7716 0 0 7871 0 0 7780 0 0 7723 0 0 7784 0 0 7751 0 0 7761 0 0 7789 0 0 7785 0 0 7796 0 0 7713 0 0 7763 0 0 7726 0 0 7835 0 0 7737 0 0 7835 0 0 7759 0 0 3912 0 0 58 0 0 11 0 0 8 0 0 6 0 0 6 0 0 2 0 0 3 0 0 4 0 0 4 0 0 
0 0 0 4 0 0 5 0 0 3 0 0 5 0 0 10 0 0 10 0 0 6 0 0 19 0 0 71 0 0 3859 0 0 7749 0 0 7836 0 0 7743 0 0 7802 0 0 7844 0 0 7656 0 0 7733 0 0 7704 0 0 7762 0 0 7663 0 0 7728 0 0 7664 0 0 7802 0 0 7754 0 0 7861 0 0 7946 0 0 7831 0 0 7692 0 0 7701 0 0 7800 0 0 7724 0 0 7723 0 0 7729 0 0 7843 0 0 7896 0 0 7710 0 0 7807 0 0 7811 0 0 7791 0 0 7716 0 0 7715 0 0 7791 0 0 7721 0 0 7821 0 0 7874 0 0 7944 0 0 7791 0 0 7809 0 0 7638 0 0 3926 0 0 49 0 0 15 0 0 9 0 0 9 0 0 8 0 0 3 0 0 4 0 0 2 0 0 4 0 0 
0 0 0 5 0 0 2 0 0 2 0 0 9 0 0 5 0 0 8 0 0 19 0 0 18 0 0 65 0 0 3920 0 0 7747 0 0 7888 0 0 7768 0 0 7815 0 0 7742 0 0 7646 0 0 7823 0 0 7924 0 0 7882 0 0 7842 0 0 7856 0 0 7738 0 0 7786 0 0 7781 0 0 7803 0 0 7717 0 0 7720 0 0 7968 0 0 7632 0 0 7515 0 0 7728 0 0 7841 0 0 7840 0 0 7915 0 0 7776 0 0 7794 0 0 7718 0 0 7780 0 0 7818 0 0 7669 0 0 7754 0 0 7802 0 0 7743 0 0 7813 0 0 7718 0 0 7795 0 0 7821 0 0 7873 0 0 7717 0 0 4010 0 0 64 0 0 11 0 0 10 0 0 6 0 0 8 0 0 4 0 0 2 0 0 5 0 0 5 0 0 
2 0 0 3 0 0 7 0 0 4 0 0 3 0 0 3 0 0 7 0 0 13 0 0 15 0 0 50 0 0 3943 0 0 7736 0 0 7801 0 0 7786 0 0 7811 0 0 7756 0 0 7820 0 0 7707 0 0 7730 0 0 7648 0 0 7826 0 0 7727 0 0 7865 0 0 7750 0 0 7845 0 0 7745 0 0 7788 0 0 7775 0 0 7800 0 0 7794 0 0 7705 0 0 7767 0 0 7713 0 0 7779 0 0 7726 0 0 7776 0 0 7825 0 0 7704 0 0 7871 0 0 7802 0 0 7829 0 0 7887 0 0 7709 0 0 7795 0 0 7728 0 0 7760 0 0 7791 0 0 7842 0 0 7832 0 0 7791 0 0 3951 0 0 63 0 0 12 0 0 12 0 0 9 0 0 8 0 0 4 0 0 4 0 0 7 0 0 8 0 0 
4 0 0 5 0 0 7 0 0 5 0 0 3 0 0 6 0 0 5 0 0 8 0 0 6 0 0 59 0 0 3885 0 0 7595 0 0 7660 0 0 7859 0 0 7708 0 0 7789 0 0 7757 0 0 7786 0 0 7832 0 0 7748 0 0 7872 0 0 7875 0 0 7864 0 0 7608 0 0 7646 0 0 7786 0 0 7803 0 0 7766 0 0 7897 0 0 7634 0 0 7667 0 0 7735 0 0 7750 0 0 7691 0 0 7742 0 0 7777 0 0 7747 0 0 7860 0 0 7721 0 0 7720 0 0 7631 0 0 7717 0 0 7683 0 0 7604 0 0 7788 0 0 7618 0 0 7754 0 0 7660 0 0 7938 0 0 7871 0 0 3820 0 0 60 0 0 13 0 0 14 0 0 6 0 0 5 0 0 0 0 0 3 0 0 2 0 0 4 0 0 
2 0 0 8 0 0 3 0 0 6 0 0 7 0 0 9 0 0 8 0 0 9 0 0 14 0 0 31 0 0 1968 0 0 3903 0 0 3969 0 0 3869 0 0 3896 0 0 3899 0 0 3801 0 0 3902 0 0 3906 0 0 4000 0 0 3939 0 0 3906 0 0 3829 0 0 3909 0 0 3801 0 0 3903 0 0 3822 0 0 3922 0 0 3802 0 0 3867 0 0 3881 0 0 3953 0 0 3946 0 0 3950 0 0 3833 0 0 3810 0 0 3948 0 0 3896 0 0 3957 0 0 3887 0 0 3833 0 0 3932 0 0 3873 0 0 3842 0 0 3895 0 0 3975 0 0 3863 0 0 3891 0 0 3910 0 0 3855 0 0 1957 0 0 28 0 0 11 0 0 11 0 0 5 0 0 5 0 0 2 0 0 0 0 0 1 0 0 4 0 0 
3 0 0 2 0 0 0 0 0 2 0 0 5 0 0 4 0 0 4 0 0 6 0 0 7 0 0 3 0 0 28 0 0 49 0 0 55 0 0 59 0 0 60 0 0 64 0 0 62 0 0 82 0 0 66 0 0 66 0 0 61 0 0 79 0 0 59 0 0 61 0 0 53 0 0 63 0 0 50 0 0 57 0 0 72 0 0 57 0 0 62 0 0 62 0 0 60 0 0 64 0 0 65 0 0 59 0 0 69 0 0 67 0 0 70 0 0 52 0 0 57 0 0 71 0 0 56 0 0 68 0 0 70 0 0 59 0 0 52 0 0 62 0 0 59 0 0 45 0 0 29 0 0 5 0 0 7 0 0 8 0 0 3 0 0 1 0 0 4 0 0 0 0 0 1 0 0 1 0 0 
1 0 0 2 0 0 2 0 0 2 0 0 2 0 0 3 0 0 1 0 0 8 0 0 5 0 0 1 0 0 7 0 0 7 0 0 12 0 0 17 0 0 14 0 0 12 0 0 13 0 0 14 0 0 12 0 0 14 0 0 12 0 0 21 0 0 20 0 0 17 0 0 13 0 0 13 0 0 9 0 0 14 0 0 18 0 0 6 0 0 20 0 0 16 0 0 15 0 0 13 0 0 19 0 0 10 0 0 19 0 0 17 0 0 17 0 0 12 0 0 17 0 0 18 0 0 16 0 0 16 0 0 19 0 0 9 0 0 5 0 0 9 0 0 4 0 0 11 0 0 15 0 0 5 0 0 6 0 0 4 0 0 8 0 0 2 0 0 2 0 0 2 0 0 2 0 0 2 0 0 
4 0 0 4 0 0 1 0 0 2 0 0 1 0 0 0 0 0 4 0 0 7 0 0 4 0 0 3 0 0 7 0 0 12 0 0 8 0 0 16 0 0 10 0 0 13 0 0 14 0 0 9 0 0 8 0 0 16 0 0 8 0 0 15 0 0 11 0 0 6 0 0 8 0 0 13 0 0 10 0 0 12 0 0 14 0 0 5 0 0 12 0 0 10 0 0 10 0 0 15 0 0 12 0 0 10 0 0 10 0 0 11 0 0 15 0 0 10 0 0 5 0 0 9 0 0 7 0 0 9 0 0 13 0 0 10 0 0 4 0 0 10 0 0 1 0 0 3 0 0 9 0 0 10 0 0 2 0 0 3 0 0 2 0 0 5 0 0 4 0 0 1 0 0 2 0 0 2 0 0 
1 0 0 1 0 0 0 0 0 2 0 0 3 0 0 1 0 0 3 0 0 5 0 0 3 0 0 3 0 0 4 0 0 6 0 0 4 0 0 8 0 0 4 0 0 9 0 0 5 0 0 4 0 0 10 0 0 6 0 0 11 0 0 5 0 0 8 0 0 11 0 0 8 0 0 15 0 0 7 0 0 10 0 0 11 0 0 6 0 0 14 0 0 7 0 0 12 0 0 15 0 0 15 0 0 7 0 0 9 0 0 7 0 0 4 0 0 11 0 0 7 0 0 11 0 0 6 0 0 8 0 0 7 0 0 7 0 0 7 0 0 3 0 0 6 0 0 5 0 0 5 0 0 10 0 0 7 0 0 2 0 0 2 0 0 3 0 0 3 0 0 3 0 0 5 0 0 1 0 0 
0 0 0 4 0 0 1 0 0 3 0 0 2 0 0 2 0 0 2 0 0 3 0 0 0 0 0 1 0 0 3 0 0 4 0 0 2 0 0 11 0 0 5 0 0 4 0 0 3 0 0 7 0 0 4 0 0 6 0 0 6 0 0 5 0 0 8 0 0 5 0 0 9 0 0 8 0 0 6 0 0 9 0 0 10 0 0 9 0 0 6 0 0 11 0 0 10 0 0 5 0 0 11 0 0 9 0 0 4 0 0 4 0 0 6 0 0 3 0 0 6 0 0 5 0 0 6 0 0 4 0 0 6 0 0 7 0 0 6 0 0 1 0 0 3 0 0 4 0 0 3 0 0 4 0 0 8 0 0 2 0 0 2 0 0 4 0 0 1 0 0 4 0 0 6 0 0 5 0 0 
0 0 0 1 0 0 2 0 0 1 0 0 0 0 0 0 0 0 1 0 0 4 0 0 0 0 0 3 0 0 6 0 0 4 0 0 3 0 0 5 0 0 6 0 0 2 0 0 2 0 0 2 0 0 2 0 0 4 0 0 8 0 0 9 0 0 5 0 0 6 0 0 5 0 0 7 0 0 6 0 0 7 0 0 9 0 0 4 0 0 4 0 0 12 0 0 5 0 0 6 0 0 10 0 0 7 0 0 5 0 0 3 0 0 8 0 0 5 0 0 2 0 0 3 0 0 1 0 0 2 0 0 4 0 0 5 0 0 4 0 0 2 0 0 1 0 0 5 0 0 5 0 0 2 0 0 3 0 0 4 0 0 2 0 0 4 0 0 1 0 0 3 0 0 1 0 0 5 0 0 
0 0 0 3 0 0 5 0 0 4 0 0 0 0 0 0 0 0 4 0 0 3 0 0 2 0 0 5 0 0 4 0 0 2 0 0 3 0 0 7 0 0 4 0 0 3 0 0 4 0 0 1 0 0 5 0 0 10 0 0 7 0 0 5 0 0 4 0 0 4 0 0 6 0 0 7 0 0 7 0 0 7 0 0 7 0 0 5 0 0 5 0 0 5 0 0 6 0 0 6 0 0 6 0 0 3 0 0 2 0 0 3 0 0 5 0 0 5 0 0 4 0 0 7 0 0 6 0 0 2 0 0 1 0 0 4 0 0 4 0 0 5 0 0 5 0 0 3 0 0 7 0 0 5 0 0 3 0 0 3 0 0 1 0 0 1 0 0 3 0 0 3 0 0 6 0 0 1 0 0 
1 0 0 3 0 0 3 0 0 3 0 0 3 0 0 1 0 0 3 0 0 2 0 0 4 0 0 4 0 0 2 0 0 2 0 0 4 0 0 1 0 0 4 0 0 2 0 0 2 0 0 1 0 0 6 0 0 5 0 0 7 0 0 9 0 0 5 0 0 3 0 0 4 0 0 1 0 0 3 0 0 4 0 0 6 0 0 5 0 0 1 0 0 3 0 0 5 0 0 7 0 0 4 0 0 7 0 0 2 0 0 4 0 0 4 0 0 2 0 0 6 0 0 6 0 0 8 0 0 4 0 0 0 0 0 3 0 0 0 0 0 3 0 0 5 0 0 3 0 0 4 0 0 4 0 0 1 0 0 4 0 0 2 0 0 1 0 0 2 0 0 1 0 0 4 0 0 5 0 0 
1 0 0 1 0 0 2 0 0 1 0 0 0 0 0 2 0 0 2 0 0 8 0 0 1 0 0 3 0 0 4 0 0 0 0 0 1 0 0 2 0 0 3 0 0 4 0 0 1 0 0 3 0 0 5 0 0 1 0 0 3 0 0 4 0 0 5 0 0 1 0 0 5 0 0 2 0 0 2 0 0 6 0 0 2 0 0 3 0 0 3 0 0 4 0 0 4 0 0 3 0 0 2 0 0 5 0 0 3 0 0 4 0 0 4 0 0 0 0 0 4 0 0 4 0 0 6 0 0 0 0 0 4 0 0 5 0 0 2 0 0 2 0 0 3 0 0 3 0 0 3 0 0 3 0 0 5 0 0 2 0 0 1 0 0 2 0 0 1 0 0 2 0 0 1 0 0 5 0 0 
