P3
# This is a dose file slice at depth 26 of 100
60 60
# now we give the maximum value of the RGB coordinates.
894
1 0 0 1 0 0 1 0 0 3 0 0 3 0 0 4 0 0 2 0 0 1 0 0 4 0 0 2 0 0 7 0 0 5 0 0 5 0 0 8 0 0 6 0 0 4 0 0 6 0 0 7 0 0 8 0 0 5 0 0 8 0 0 6 0 0 6 0 0 5 0 0 9 0 0 5 0 0 6 0 0 5 0 0 6 0 0 8 0 0 6 0 0 6 0 0 8 0 0 8 0 0 8 0 0 7 0 0 5 0 0 5 0 0 7 0 0 8 0 0 4 0 0 7 0 0 4 0 0 7 0 0 7 0 0 3 0 0 6 0 0 5 0 0 4 0 0 4 0 0 3 0 0 6 0 0 5 0 0 2 0 0 3 0 0 3 0 0 4 0 0 2 0 0 2 0 0 2 0 0 
2 0 0 6 0 0 6 0 0 7 0 0 9 0 0 9 0 0 8 0 0 9 0 0 11 0 0 14 0 0 16 0 0 17 0 0 15 0 0 15 0 0 17 0 0 14 0 0 16 0 0 22 0 0 17 0 0 21 0 0 18 0 0 19 0 0 17 0 0 20 0 0 22 0 0 22 0 0 18 0 0 17 0 0 18 0 0 20 0 0 22 0 0 20 0 0 21 0 0 17 0 0 17 0 0 19 0 0 15 0 0 19 0 0 19 0 0 19 0 0 20 0 0 16 0 0 18 0 0 18 0 0 18 0 0 15 0 0 15 0 0 13 0 0 12 0 0 15 0 0 12 0 0 13 0 0 9 0 0 13 0 0 8 0 0 10 0 0 8 0 0 9 0 0 6 0 0 6 0 0 
2 0 0 5 0 0 8 0 0 8 0 0 9 0 0 9 0 0 11 0 0 11 0 0 11 0 0 12 0 0 14 0 0 14 0 0 17 0 0 15 0 0 17 0 0 22 0 0 21 0 0 21 0 0 24 0 0 21 0 0 21 0 0 22 0 0 21 0 0 21 0 0 27 0 0 25 0 0 25 0 0 21 0 0 22 0 0 23 0 0 25 0 0 17 0 0 25 0 0 22 0 0 21 0 0 19 0 0 21 0 0 23 0 0 20 0 0 28 0 0 20 0 0 25 0 0 20 0 0 16 0 0 17 0 0 22 0 0 20 0 0 18 0 0 17 0 0 16 0 0 15 0 0 14 0 0 12 0 0 10 0 0 7 0 0 11 0 0 10 0 0 9 0 0 5 0 0 5 0 0 
2 0 0 7 0 0 8 0 0 11 0 0 8 0 0 13 0 0 15 0 0 15 0 0 15 0 0 19 0 0 20 0 0 20 0 0 23 0 0 21 0 0 22 0 0 21 0 0 25 0 0 24 0 0 27 0 0 24 0 0 26 0 0 26 0 0 29 0 0 25 0 0 28 0 0 26 0 0 24 0 0 28 0 0 31 0 0 30 0 0 34 0 0 25 0 0 25 0 0 27 0 0 29 0 0 27 0 0 25 0 0 26 0 0 25 0 0 25 0 0 33 0 0 25 0 0 24 0 0 22 0 0 20 0 0 22 0 0 18 0 0 19 0 0 23 0 0 16 0 0 19 0 0 20 0 0 15 0 0 12 0 0 14 0 0 8 0 0 12 0 0 8 0 0 7 0 0 7 0 0 
4 0 0 8 0 0 10 0 0 11 0 0 11 0 0 8 0 0 13 0 0 13 0 0 17 0 0 17 0 0 18 0 0 21 0 0 24 0 0 22 0 0 20 0 0 26 0 0 26 0 0 26 0 0 25 0 0 28 0 0 28 0 0 31 0 0 31 0 0 27 0 0 28 0 0 29 0 0 25 0 0 27 0 0 34 0 0 30 0 0 32 0 0 31 0 0 31 0 0 32 0 0 32 0 0 30 0 0 28 0 0 26 0 0 28 0 0 34 0 0 27 0 0 25 0 0 27 0 0 25 0 0 27 0 0 18 0 0 24 0 0 20 0 0 22 0 0 18 0 0 15 0 0 19 0 0 11 0 0 10 0 0 13 0 0 14 0 0 11 0 0 10 0 0 9 0 0 7 0 0 
2 0 0 8 0 0 8 0 0 12 0 0 12 0 0 12 0 0 12 0 0 16 0 0 19 0 0 21 0 0 21 0 0 23 0 0 27 0 0 24 0 0 24 0 0 29 0 0 31 0 0 30 0 0 36 0 0 35 0 0 30 0 0 36 0 0 35 0 0 34 0 0 33 0 0 35 0 0 37 0 0 39 0 0 34 0 0 36 0 0 39 0 0 31 0 0 34 0 0 37 0 0 35 0 0 36 0 0 33 0 0 32 0 0 35 0 0 38 0 0 35 0 0 29 0 0 33 0 0 28 0 0 31 0 0 27 0 0 27 0 0 26 0 0 24 0 0 24 0 0 23 0 0 19 0 0 20 0 0 16 0 0 18 0 0 13 0 0 11 0 0 11 0 0 11 0 0 9 0 0 
2 0 0 11 0 0 10 0 0 14 0 0 15 0 0 13 0 0 11 0 0 16 0 0 18 0 0 19 0 0 27 0 0 24 0 0 29 0 0 37 0 0 30 0 0 31 0 0 35 0 0 36 0 0 38 0 0 34 0 0 32 0 0 36 0 0 36 0 0 37 0 0 42 0 0 45 0 0 51 0 0 40 0 0 50 0 0 40 0 0 44 0 0 45 0 0 37 0 0 42 0 0 51 0 0 41 0 0 38 0 0 41 0 0 37 0 0 47 0 0 36 0 0 29 0 0 30 0 0 37 0 0 30 0 0 33 0 0 28 0 0 31 0 0 28 0 0 26 0 0 24 0 0 26 0 0 23 0 0 19 0 0 16 0 0 12 0 0 12 0 0 10 0 0 8 0 0 10 0 0 
2 0 0 10 0 0 11 0 0 13 0 0 15 0 0 13 0 0 18 0 0 20 0 0 22 0 0 31 0 0 29 0 0 34 0 0 30 0 0 26 0 0 38 0 0 37 0 0 41 0 0 35 0 0 41 0 0 45 0 0 41 0 0 46 0 0 45 0 0 45 0 0 48 0 0 48 0 0 48 0 0 47 0 0 50 0 0 50 0 0 50 0 0 43 0 0 45 0 0 47 0 0 44 0 0 40 0 0 46 0 0 44 0 0 49 0 0 48 0 0 46 0 0 44 0 0 43 0 0 41 0 0 40 0 0 43 0 0 33 0 0 30 0 0 31 0 0 28 0 0 27 0 0 26 0 0 22 0 0 21 0 0 18 0 0 15 0 0 14 0 0 13 0 0 13 0 0 12 0 0 
2 0 0 11 0 0 13 0 0 19 0 0 17 0 0 16 0 0 19 0 0 22 0 0 25 0 0 34 0 0 28 0 0 34 0 0 38 0 0 42 0 0 47 0 0 48 0 0 40 0 0 48 0 0 51 0 0 59 0 0 51 0 0 51 0 0 49 0 0 54 0 0 59 0 0 58 0 0 56 0 0 64 0 0 42 0 0 56 0 0 55 0 0 56 0 0 53 0 0 63 0 0 57 0 0 57 0 0 63 0 0 52 0 0 54 0 0 47 0 0 55 0 0 52 0 0 60 0 0 49 0 0 53 0 0 46 0 0 41 0 0 40 0 0 37 0 0 31 0 0 34 0 0 31 0 0 26 0 0 22 0 0 20 0 0 16 0 0 15 0 0 16 0 0 10 0 0 11 0 0 
6 0 0 12 0 0 14 0 0 17 0 0 16 0 0 20 0 0 20 0 0 22 0 0 29 0 0 32 0 0 29 0 0 39 0 0 57 0 0 54 0 0 60 0 0 56 0 0 57 0 0 63 0 0 54 0 0 60 0 0 60 0 0 69 0 0 79 0 0 65 0 0 68 0 0 70 0 0 72 0 0 64 0 0 72 0 0 78 0 0 68 0 0 70 0 0 66 0 0 72 0 0 78 0 0 67 0 0 64 0 0 74 0 0 60 0 0 63 0 0 59 0 0 62 0 0 63 0 0 64 0 0 62 0 0 48 0 0 62 0 0 59 0 0 47 0 0 48 0 0 42 0 0 39 0 0 34 0 0 25 0 0 25 0 0 21 0 0 17 0 0 15 0 0 13 0 0 13 0 0 
5 0 0 15 0 0 15 0 0 12 0 0 18 0 0 22 0 0 23 0 0 24 0 0 38 0 0 45 0 0 153 0 0 251 0 0 284 0 0 283 0 0 267 0 0 297 0 0 313 0 0 301 0 0 282 0 0 313 0 0 292 0 0 305 0 0 298 0 0 305 0 0 301 0 0 297 0 0 302 0 0 275 0 0 272 0 0 300 0 0 301 0 0 333 0 0 309 0 0 320 0 0 307 0 0 305 0 0 281 0 0 286 0 0 306 0 0 329 0 0 300 0 0 308 0 0 297 0 0 302 0 0 292 0 0 258 0 0 252 0 0 273 0 0 257 0 0 266 0 0 155 0 0 48 0 0 30 0 0 26 0 0 24 0 0 18 0 0 24 0 0 15 0 0 14 0 0 15 0 0 
6 0 0 14 0 0 16 0 0 15 0 0 22 0 0 26 0 0 28 0 0 32 0 0 37 0 0 38 0 0 280 0 0 478 0 0 518 0 0 525 0 0 509 0 0 503 0 0 495 0 0 542 0 0 527 0 0 527 0 0 528 0 0 548 0 0 507 0 0 504 0 0 519 0 0 490 0 0 538 0 0 556 0 0 520 0 0 535 0 0 526 0 0 508 0 0 546 0 0 521 0 0 536 0 0 578 0 0 539 0 0 533 0 0 501 0 0 543 0 0 524 0 0 549 0 0 503 0 0 536 0 0 524 0 0 520 0 0 478 0 0 510 0 0 508 0 0 484 0 0 256 0 0 48 0 0 31 0 0 31 0 0 29 0 0 20 0 0 20 0 0 15 0 0 16 0 0 14 0 0 
3 0 0 17 0 0 17 0 0 18 0 0 20 0 0 22 0 0 30 0 0 28 0 0 39 0 0 45 0 0 268 0 0 475 0 0 521 0 0 520 0 0 495 0 0 556 0 0 505 0 0 550 0 0 554 0 0 521 0 0 536 0 0 577 0 0 554 0 0 548 0 0 542 0 0 574 0 0 556 0 0 517 0 0 568 0 0 554 0 0 554 0 0 540 0 0 549 0 0 533 0 0 560 0 0 541 0 0 565 0 0 544 0 0 505 0 0 560 0 0 498 0 0 561 0 0 527 0 0 531 0 0 559 0 0 526 0 0 533 0 0 478 0 0 521 0 0 508 0 0 290 0 0 55 0 0 37 0 0 38 0 0 28 0 0 28 0 0 22 0 0 17 0 0 16 0 0 12 0 0 
4 0 0 16 0 0 16 0 0 16 0 0 20 0 0 25 0 0 31 0 0 35 0 0 45 0 0 55 0 0 294 0 0 525 0 0 531 0 0 520 0 0 523 0 0 557 0 0 513 0 0 551 0 0 565 0 0 541 0 0 540 0 0 573 0 0 557 0 0 568 0 0 531 0 0 589 0 0 559 0 0 595 0 0 541 0 0 567 0 0 527 0 0 560 0 0 558 0 0 553 0 0 578 0 0 538 0 0 543 0 0 555 0 0 521 0 0 527 0 0 554 0 0 572 0 0 525 0 0 535 0 0 528 0 0 519 0 0 510 0 0 530 0 0 562 0 0 508 0 0 293 0 0 52 0 0 42 0 0 32 0 0 33 0 0 28 0 0 25 0 0 18 0 0 19 0 0 16 0 0 
5 0 0 19 0 0 20 0 0 25 0 0 24 0 0 25 0 0 38 0 0 35 0 0 41 0 0 60 0 0 291 0 0 510 0 0 558 0 0 543 0 0 552 0 0 533 0 0 552 0 0 541 0 0 519 0 0 544 0 0 531 0 0 538 0 0 553 0 0 562 0 0 527 0 0 546 0 0 515 0 0 555 0 0 577 0 0 523 0 0 514 0 0 573 0 0 560 0 0 558 0 0 568 0 0 556 0 0 556 0 0 557 0 0 566 0 0 540 0 0 531 0 0 527 0 0 530 0 0 525 0 0 532 0 0 551 0 0 539 0 0 537 0 0 505 0 0 501 0 0 290 0 0 57 0 0 45 0 0 34 0 0 34 0 0 23 0 0 26 0 0 18 0 0 19 0 0 19 0 0 
4 0 0 19 0 0 19 0 0 23 0 0 26 0 0 30 0 0 31 0 0 40 0 0 46 0 0 61 0 0 260 0 0 510 0 0 508 0 0 580 0 0 513 0 0 509 0 0 544 0 0 528 0 0 544 0 0 589 0 0 572 0 0 604 0 0 538 0 0 568 0 0 564 0 0 570 0 0 512 0 0 580 0 0 515 0 0 587 0 0 563 0 0 562 0 0 593 0 0 526 0 0 550 0 0 564 0 0 535 0 0 559 0 0 544 0 0 571 0 0 553 0 0 600 0 0 577 0 0 572 0 0 555 0 0 562 0 0 533 0 0 539 0 0 534 0 0 516 0 0 297 0 0 61 0 0 45 0 0 34 0 0 33 0 0 34 0 0 23 0 0 19 0 0 15 0 0 17 0 0 
5 0 0 16 0 0 16 0 0 19 0 0 25 0 0 31 0 0 39 0 0 40 0 0 49 0 0 71 0 0 291 0 0 517 0 0 547 0 0 515 0 0 509 0 0 534 0 0 541 0 0 595 0 0 535 0 0 569 0 0 571 0 0 578 0 0 532 0 0 554 0 0 568 0 0 553 0 0 577 0 0 588 0 0 576 0 0 578 0 0 560 0 0 553 0 0 543 0 0 548 0 0 581 0 0 542 0 0 576 0 0 557 0 0 550 0 0 565 0 0 554 0 0 612 0 0 529 0 0 543 0 0 563 0 0 534 0 0 551 0 0 550 0 0 526 0 0 518 0 0 294 0 0 63 0 0 52 0 0 42 0 0 34 0 0 33 0 0 25 0 0 23 0 0 16 0 0 16 0 0 
6 0 0 17 0 0 18 0 0 25 0 0 29 0 0 27 0 0 31 0 0 38 0 0 48 0 0 60 0 0 263 0 0 536 0 0 530 0 0 534 0 0 548 0 0 540 0 0 583 0 0 541 0 0 573 0 0 572 0 0 566 0 0 595 0 0 563 0 0 563 0 0 588 0 0 604 0 0 601 0 0 550 0 0 621 0 0 573 0 0 583 0 0 586 0 0 574 0 0 571 0 0 538 0 0 585 0 0 576 0 0 573 0 0 566 0 0 578 0 0 547 0 0 520 0 0 527 0 0 599 0 0 532 0 0 540 0 0 517 0 0 542 0 0 549 0 0 508 0 0 288 0 0 60 0 0 47 0 0 44 0 0 32 0 0 32 0 0 25 0 0 21 0 0 21 0 0 18 0 0 
6 0 0 17 0 0 22 0 0 24 0 0 26 0 0 33 0 0 38 0 0 40 0 0 46 0 0 65 0 0 302 0 0 540 0 0 524 0 0 519 0 0 506 0 0 544 0 0 570 0 0 581 0 0 578 0 0 557 0 0 581 0 0 587 0 0 575 0 0 567 0 0 608 0 0 584 0 0 578 0 0 545 0 0 600 0 0 549 0 0 567 0 0 561 0 0 563 0 0 541 0 0 547 0 0 565 0 0 588 0 0 594 0 0 613 0 0 583 0 0 557 0 0 585 0 0 559 0 0 564 0 0 547 0 0 578 0 0 546 0 0 537 0 0 536 0 0 495 0 0 286 0 0 72 0 0 51 0 0 40 0 0 41 0 0 34 0 0 25 0 0 27 0 0 23 0 0 17 0 0 
7 0 0 15 0 0 17 0 0 27 0 0 31 0 0 29 0 0 32 0 0 40 0 0 45 0 0 60 0 0 279 0 0 532 0 0 526 0 0 539 0 0 583 0 0 558 0 0 596 0 0 569 0 0 622 0 0 556 0 0 565 0 0 537 0 0 595 0 0 568 0 0 585 0 0 587 0 0 579 0 0 585 0 0 534 0 0 601 0 0 595 0 0 586 0 0 568 0 0 620 0 0 599 0 0 604 0 0 600 0 0 603 0 0 595 0 0 571 0 0 563 0 0 566 0 0 585 0 0 558 0 0 558 0 0 547 0 0 540 0 0 552 0 0 556 0 0 536 0 0 302 0 0 73 0 0 58 0 0 41 0 0 38 0 0 24 0 0 26 0 0 28 0 0 24 0 0 18 0 0 
6 0 0 20 0 0 19 0 0 26 0 0 25 0 0 26 0 0 39 0 0 47 0 0 50 0 0 71 0 0 301 0 0 514 0 0 535 0 0 540 0 0 572 0 0 533 0 0 506 0 0 554 0 0 594 0 0 575 0 0 564 0 0 562 0 0 565 0 0 566 0 0 595 0 0 591 0 0 617 0 0 584 0 0 575 0 0 586 0 0 568 0 0 573 0 0 613 0 0 568 0 0 586 0 0 584 0 0 578 0 0 619 0 0 590 0 0 589 0 0 567 0 0 559 0 0 585 0 0 564 0 0 559 0 0 547 0 0 523 0 0 536 0 0 541 0 0 487 0 0 306 0 0 69 0 0 63 0 0 42 0 0 40 0 0 33 0 0 28 0 0 26 0 0 17 0 0 18 0 0 
5 0 0 20 0 0 22 0 0 29 0 0 28 0 0 34 0 0 37 0 0 50 0 0 57 0 0 71 0 0 288 0 0 513 0 0 537 0 0 558 0 0 549 0 0 549 0 0 596 0 0 559 0 0 558 0 0 593 0 0 580 0 0 576 0 0 577 0 0 613 0 0 572 0 0 606 0 0 609 0 0 615 0 0 589 0 0 549 0 0 598 0 0 564 0 0 582 0 0 572 0 0 587 0 0 554 0 0 549 0 0 614 0 0 563 0 0 579 0 0 585 0 0 593 0 0 561 0 0 566 0 0 555 0 0 573 0 0 523 0 0 532 0 0 535 0 0 530 0 0 300 0 0 69 0 0 59 0 0 44 0 0 37 0 0 31 0 0 27 0 0 27 0 0 20 0 0 19 0 0 
5 0 0 16 0 0 25 0 0 26 0 0 29 0 0 33 0 0 44 0 0 45 0 0 57 0 0 72 0 0 288 0 0 537 0 0 555 0 0 567 0 0 567 0 0 558 0 0 566 0 0 585 0 0 558 0 0 585 0 0 573 0 0 568 0 0 540 0 0 582 0 0 561 0 0 577 0 0 551 0 0 627 0 0 603 0 0 568 0 0 599 0 0 594 0 0 577 0 0 558 0 0 592 0 0 624 0 0 550 0 0 593 0 0 566 0 0 566 0 0 576 0 0 573 0 0 539 0 0 554 0 0 590 0 0 557 0 0 545 0 0 540 0 0 523 0 0 515 0 0 293 0 0 67 0 0 51 0 0 50 0 0 40 0 0 30 0 0 38 0 0 27 0 0 24 0 0 20 0 0 
7 0 0 19 0 0 20 0 0 28 0 0 26 0 0 31 0 0 39 0 0 44 0 0 56 0 0 67 0 0 327 0 0 516 0 0 547 0 0 540 0 0 567 0 0 553 0 0 552 0 0 577 0 0 586 0 0 591 0 0 589 0 0 563 0 0 602 0 0 578 0 0 560 0 0 599 0 0 569 0 0 630 0 0 584 0 0 562 0 0 591 0 0 588 0 0 591 0 0 561 0 0 570 0 0 602 0 0 581 0 0 559 0 0 585 0 0 605 0 0 581 0 0 557 0 0 566 0 0 543 0 0 609 0 0 585 0 0 544 0 0 559 0 0 508 0 0 515 0 0 291 0 0 71 0 0 59 0 0 48 0 0 38 0 0 32 0 0 30 0 0 22 0 0 22 0 0 21 0 0 
8 0 0 23 0 0 24 0 0 29 0 0 30 0 0 30 0 0 40 0 0 52 0 0 57 0 0 73 0 0 323 0 0 528 0 0 545 0 0 566 0 0 573 0 0 570 0 0 540 0 0 555 0 0 535 0 0 544 0 0 575 0 0 559 0 0 568 0 0 565 0 0 588 0 0 591 0 0 569 0 0 592 0 0 605 0 0 592 0 0 585 0 0 604 0 0 597 0 0 577 0 0 580 0 0 578 0 0 567 0 0 620 0 0 602 0 0 570 0 0 555 0 0 577 0 0 566 0 0 574 0 0 559 0 0 548 0 0 537 0 0 534 0 0 538 0 0 533 0 0 280 0 0 67 0 0 49 0 0 55 0 0 43 0 0 41 0 0 27 0 0 25 0 0 19 0 0 20 0 0 
8 0 0 24 0 0 21 0 0 21 0 0 35 0 0 35 0 0 42 0 0 49 0 0 56 0 0 71 0 0 323 0 0 549 0 0 537 0 0 554 0 0 537 0 0 575 0 0 520 0 0 570 0 0 535 0 0 562 0 0 560 0 0 595 0 0 627 0 0 568 0 0 607 0 0 585 0 0 592 0 0 604 0 0 588 0 0 610 0 0 575 0 0 620 0 0 598 0 0 568 0 0 584 0 0 573 0 0 587 0 0 580 0 0 563 0 0 569 0 0 590 0 0 577 0 0 597 0 0 607 0 0 560 0 0 534 0 0 581 0 0 521 0 0 549 0 0 516 0 0 281 0 0 68 0 0 57 0 0 46 0 0 36 0 0 32 0 0 28 0 0 23 0 0 17 0 0 19 0 0 
7 0 0 23 0 0 23 0 0 21 0 0 30 0 0 33 0 0 35 0 0 52 0 0 56 0 0 71 0 0 296 0 0 530 0 0 550 0 0 536 0 0 548 0 0 554 0 0 554 0 0 583 0 0 560 0 0 549 0 0 585 0 0 618 0 0 562 0 0 581 0 0 621 0 0 579 0 0 595 0 0 627 0 0 588 0 0 600 0 0 611 0 0 577 0 0 589 0 0 545 0 0 552 0 0 557 0 0 568 0 0 606 0 0 591 0 0 573 0 0 600 0 0 570 0 0 573 0 0 605 0 0 554 0 0 563 0 0 603 0 0 537 0 0 550 0 0 528 0 0 301 0 0 67 0 0 64 0 0 44 0 0 39 0 0 30 0 0 37 0 0 28 0 0 25 0 0 21 0 0 
8 0 0 23 0 0 26 0 0 23 0 0 28 0 0 36 0 0 41 0 0 46 0 0 59 0 0 73 0 0 282 0 0 508 0 0 567 0 0 575 0 0 581 0 0 562 0 0 586 0 0 582 0 0 589 0 0 578 0 0 604 0 0 587 0 0 583 0 0 580 0 0 585 0 0 554 0 0 616 0 0 579 0 0 579 0 0 587 0 0 598 0 0 611 0 0 578 0 0 607 0 0 613 0 0 592 0 0 589 0 0 590 0 0 573 0 0 592 0 0 537 0 0 610 0 0 547 0 0 572 0 0 549 0 0 549 0 0 548 0 0 579 0 0 538 0 0 514 0 0 331 0 0 65 0 0 59 0 0 47 0 0 46 0 0 30 0 0 32 0 0 29 0 0 21 0 0 18 0 0 
6 0 0 28 0 0 23 0 0 30 0 0 27 0 0 34 0 0 41 0 0 54 0 0 62 0 0 65 0 0 295 0 0 509 0 0 555 0 0 557 0 0 581 0 0 567 0 0 585 0 0 576 0 0 591 0 0 580 0 0 574 0 0 578 0 0 588 0 0 589 0 0 587 0 0 577 0 0 575 0 0 591 0 0 621 0 0 565 0 0 556 0 0 616 0 0 549 0 0 595 0 0 576 0 0 598 0 0 616 0 0 606 0 0 598 0 0 551 0 0 520 0 0 575 0 0 544 0 0 584 0 0 603 0 0 580 0 0 556 0 0 547 0 0 546 0 0 534 0 0 299 0 0 73 0 0 51 0 0 51 0 0 43 0 0 34 0 0 30 0 0 27 0 0 22 0 0 18 0 0 
8 0 0 19 0 0 24 0 0 29 0 0 31 0 0 38 0 0 43 0 0 42 0 0 53 0 0 77 0 0 296 0 0 542 0 0 560 0 0 572 0 0 555 0 0 560 0 0 572 0 0 583 0 0 600 0 0 584 0 0 541 0 0 589 0 0 580 0 0 590 0 0 582 0 0 585 0 0 567 0 0 526 0 0 570 0 0 575 0 0 538 0 0 593 0 0 591 0 0 563 0 0 609 0 0 544 0 0 573 0 0 576 0 0 587 0 0 558 0 0 582 0 0 550 0 0 574 0 0 570 0 0 593 0 0 545 0 0 578 0 0 554 0 0 586 0 0 496 0 0 310 0 0 63 0 0 56 0 0 45 0 0 37 0 0 31 0 0 27 0 0 28 0 0 20 0 0 22 0 0 
6 0 0 23 0 0 29 0 0 26 0 0 28 0 0 35 0 0 42 0 0 43 0 0 57 0 0 69 0 0 312 0 0 544 0 0 543 0 0 536 0 0 581 0 0 565 0 0 568 0 0 586 0 0 574 0 0 603 0 0 568 0 0 597 0 0 566 0 0 587 0 0 587 0 0 588 0 0 626 0 0 587 0 0 550 0 0 609 0 0 603 0 0 599 0 0 583 0 0 617 0 0 599 0 0 581 0 0 594 0 0 570 0 0 599 0 0 586 0 0 563 0 0 614 0 0 567 0 0 591 0 0 565 0 0 574 0 0 520 0 0 541 0 0 525 0 0 537 0 0 293 0 0 71 0 0 49 0 0 46 0 0 47 0 0 37 0 0 27 0 0 29 0 0 26 0 0 22 0 0 
7 0 0 23 0 0 34 0 0 28 0 0 32 0 0 39 0 0 39 0 0 48 0 0 53 0 0 79 0 0 310 0 0 510 0 0 540 0 0 537 0 0 573 0 0 566 0 0 560 0 0 570 0 0 531 0 0 554 0 0 589 0 0 585 0 0 566 0 0 581 0 0 621 0 0 581 0 0 590 0 0 584 0 0 641 0 0 603 0 0 596 0 0 595 0 0 564 0 0 598 0 0 608 0 0 568 0 0 592 0 0 577 0 0 612 0 0 602 0 0 598 0 0 612 0 0 567 0 0 577 0 0 540 0 0 554 0 0 571 0 0 600 0 0 525 0 0 569 0 0 301 0 0 68 0 0 61 0 0 52 0 0 38 0 0 27 0 0 35 0 0 31 0 0 24 0 0 22 0 0 
8 0 0 21 0 0 23 0 0 25 0 0 26 0 0 31 0 0 38 0 0 52 0 0 66 0 0 61 0 0 284 0 0 529 0 0 539 0 0 510 0 0 580 0 0 572 0 0 564 0 0 552 0 0 593 0 0 575 0 0 565 0 0 571 0 0 590 0 0 583 0 0 608 0 0 604 0 0 576 0 0 601 0 0 602 0 0 598 0 0 573 0 0 601 0 0 564 0 0 604 0 0 544 0 0 589 0 0 581 0 0 555 0 0 590 0 0 588 0 0 593 0 0 583 0 0 574 0 0 550 0 0 583 0 0 542 0 0 515 0 0 558 0 0 535 0 0 535 0 0 303 0 0 79 0 0 46 0 0 52 0 0 41 0 0 36 0 0 31 0 0 28 0 0 26 0 0 21 0 0 
6 0 0 19 0 0 21 0 0 30 0 0 31 0 0 31 0 0 42 0 0 46 0 0 63 0 0 60 0 0 282 0 0 526 0 0 521 0 0 553 0 0 600 0 0 557 0 0 586 0 0 542 0 0 561 0 0 583 0 0 600 0 0 565 0 0 602 0 0 532 0 0 576 0 0 595 0 0 610 0 0 621 0 0 583 0 0 566 0 0 562 0 0 572 0 0 577 0 0 586 0 0 554 0 0 555 0 0 576 0 0 560 0 0 579 0 0 590 0 0 609 0 0 558 0 0 586 0 0 576 0 0 580 0 0 581 0 0 584 0 0 587 0 0 556 0 0 522 0 0 300 0 0 78 0 0 58 0 0 46 0 0 35 0 0 38 0 0 29 0 0 29 0 0 22 0 0 20 0 0 
8 0 0 23 0 0 25 0 0 26 0 0 31 0 0 40 0 0 37 0 0 41 0 0 58 0 0 68 0 0 309 0 0 530 0 0 557 0 0 553 0 0 556 0 0 569 0 0 591 0 0 559 0 0 580 0 0 571 0 0 573 0 0 573 0 0 597 0 0 564 0 0 553 0 0 604 0 0 615 0 0 601 0 0 541 0 0 607 0 0 581 0 0 605 0 0 540 0 0 592 0 0 615 0 0 585 0 0 595 0 0 600 0 0 597 0 0 594 0 0 582 0 0 567 0 0 528 0 0 589 0 0 586 0 0 555 0 0 549 0 0 582 0 0 536 0 0 513 0 0 298 0 0 73 0 0 58 0 0 46 0 0 35 0 0 41 0 0 34 0 0 27 0 0 26 0 0 25 0 0 
7 0 0 19 0 0 27 0 0 26 0 0 28 0 0 32 0 0 37 0 0 47 0 0 57 0 0 67 0 0 295 0 0 516 0 0 549 0 0 541 0 0 579 0 0 552 0 0 570 0 0 609 0 0 558 0 0 556 0 0 560 0 0 580 0 0 610 0 0 572 0 0 580 0 0 608 0 0 589 0 0 543 0 0 620 0 0 571 0 0 572 0 0 559 0 0 594 0 0 571 0 0 613 0 0 627 0 0 593 0 0 595 0 0 575 0 0 585 0 0 565 0 0 572 0 0 590 0 0 546 0 0 598 0 0 563 0 0 556 0 0 537 0 0 501 0 0 545 0 0 295 0 0 73 0 0 58 0 0 42 0 0 39 0 0 36 0 0 26 0 0 28 0 0 23 0 0 22 0 0 
7 0 0 20 0 0 27 0 0 26 0 0 31 0 0 33 0 0 35 0 0 42 0 0 57 0 0 65 0 0 289 0 0 546 0 0 533 0 0 558 0 0 573 0 0 622 0 0 575 0 0 566 0 0 607 0 0 592 0 0 532 0 0 594 0 0 530 0 0 570 0 0 578 0 0 583 0 0 587 0 0 569 0 0 573 0 0 606 0 0 563 0 0 532 0 0 622 0 0 610 0 0 594 0 0 576 0 0 605 0 0 586 0 0 579 0 0 569 0 0 577 0 0 589 0 0 588 0 0 571 0 0 526 0 0 535 0 0 596 0 0 524 0 0 533 0 0 505 0 0 272 0 0 63 0 0 54 0 0 40 0 0 49 0 0 32 0 0 31 0 0 26 0 0 21 0 0 23 0 0 
7 0 0 17 0 0 25 0 0 26 0 0 31 0 0 40 0 0 44 0 0 39 0 0 48 0 0 65 0 0 292 0 0 554 0 0 552 0 0 541 0 0 591 0 0 574 0 0 547 0 0 564 0 0 576 0 0 543 0 0 569 0 0 585 0 0 585 0 0 597 0 0 584 0 0 613 0 0 579 0 0 557 0 0 614 0 0 594 0 0 573 0 0 582 0 0 593 0 0 617 0 0 574 0 0 597 0 0 599 0 0 608 0 0 552 0 0 569 0 0 592 0 0 572 0 0 588 0 0 572 0 0 548 0 0 541 0 0 605 0 0 568 0 0 531 0 0 476 0 0 293 0 0 66 0 0 49 0 0 51 0 0 46 0 0 30 0 0 34 0 0 23 0 0 24 0 0 17 0 0 
7 0 0 20 0 0 27 0 0 25 0 0 28 0 0 36 0 0 45 0 0 48 0 0 55 0 0 63 0 0 298 0 0 594 0 0 566 0 0 547 0 0 553 0 0 555 0 0 528 0 0 558 0 0 601 0 0 573 0 0 613 0 0 594 0 0 594 0 0 565 0 0 590 0 0 605 0 0 550 0 0 561 0 0 581 0 0 596 0 0 574 0 0 549 0 0 579 0 0 612 0 0 591 0 0 557 0 0 575 0 0 594 0 0 580 0 0 552 0 0 622 0 0 563 0 0 589 0 0 596 0 0 530 0 0 545 0 0 548 0 0 541 0 0 555 0 0 535 0 0 293 0 0 75 0 0 60 0 0 41 0 0 45 0 0 35 0 0 33 0 0 23 0 0 19 0 0 19 0 0 
7 0 0 22 0 0 25 0 0 27 0 0 30 0 0 33 0 0 40 0 0 44 0 0 48 0 0 67 0 0 276 0 0 563 0 0 537 0 0 558 0 0 585 0 0 560 0 0 540 0 0 568 0 0 572 0 0 554 0 0 583 0 0 558 0 0 533 0 0 564 0 0 572 0 0 585 0 0 532 0 0 593 0 0 603 0 0 542 0 0 576 0 0 552 0 0 587 0 0 600 0 0 566 0 0 595 0 0 583 0 0 601 0 0 537 0 0 576 0 0 592 0 0 592 0 0 551 0 0 550 0 0 557 0 0 559 0 0 515 0 0 546 0 0 545 0 0 534 0 0 306 0 0 70 0 0 54 0 0 48 0 0 40 0 0 34 0 0 29 0 0 22 0 0 24 0 0 21 0 0 
5 0 0 19 0 0 25 0 0 23 0 0 29 0 0 30 0 0 45 0 0 53 0 0 53 0 0 74 0 0 316 0 0 512 0 0 551 0 0 560 0 0 545 0 0 541 0 0 573 0 0 557 0 0 577 0 0 547 0 0 599 0 0 592 0 0 612 0 0 583 0 0 538 0 0 565 0 0 560 0 0 621 0 0 578 0 0 585 0 0 590 0 0 580 0 0 575 0 0 597 0 0 616 0 0 602 0 0 600 0 0 589 0 0 595 0 0 585 0 0 557 0 0 576 0 0 597 0 0 548 0 0 518 0 0 539 0 0 553 0 0 572 0 0 539 0 0 547 0 0 306 0 0 66 0 0 52 0 0 53 0 0 43 0 0 32 0 0 29 0 0 26 0 0 22 0 0 21 0 0 
5 0 0 19 0 0 18 0 0 25 0 0 27 0 0 26 0 0 41 0 0 55 0 0 54 0 0 57 0 0 303 0 0 504 0 0 548 0 0 538 0 0 518 0 0 542 0 0 552 0 0 556 0 0 586 0 0 608 0 0 588 0 0 601 0 0 560 0 0 584 0 0 612 0 0 568 0 0 597 0 0 613 0 0 570 0 0 595 0 0 603 0 0 556 0 0 618 0 0 559 0 0 583 0 0 604 0 0 581 0 0 563 0 0 553 0 0 571 0 0 571 0 0 566 0 0 551 0 0 560 0 0 535 0 0 578 0 0 562 0 0 558 0 0 582 0 0 535 0 0 338 0 0 65 0 0 55 0 0 48 0 0 40 0 0 36 0 0 25 0 0 19 0 0 20 0 0 17 0 0 
6 0 0 18 0 0 23 0 0 22 0 0 25 0 0 33 0 0 38 0 0 34 0 0 52 0 0 78 0 0 320 0 0 527 0 0 571 0 0 533 0 0 524 0 0 546 0 0 554 0 0 531 0 0 606 0 0 561 0 0 606 0 0 583 0 0 580 0 0 609 0 0 565 0 0 568 0 0 585 0 0 602 0 0 587 0 0 558 0 0 571 0 0 575 0 0 588 0 0 586 0 0 549 0 0 584 0 0 569 0 0 599 0 0 574 0 0 554 0 0 546 0 0 545 0 0 567 0 0 571 0 0 520 0 0 535 0 0 536 0 0 527 0 0 539 0 0 529 0 0 296 0 0 66 0 0 48 0 0 43 0 0 40 0 0 29 0 0 28 0 0 25 0 0 20 0 0 18 0 0 
6 0 0 18 0 0 19 0 0 21 0 0 27 0 0 30 0 0 31 0 0 39 0 0 44 0 0 62 0 0 307 0 0 524 0 0 536 0 0 552 0 0 562 0 0 569 0 0 553 0 0 536 0 0 583 0 0 562 0 0 553 0 0 592 0 0 563 0 0 609 0 0 582 0 0 518 0 0 571 0 0 544 0 0 591 0 0 625 0 0 584 0 0 562 0 0 577 0 0 579 0 0 569 0 0 583 0 0 605 0 0 583 0 0 561 0 0 592 0 0 573 0 0 591 0 0 541 0 0 536 0 0 542 0 0 560 0 0 545 0 0 560 0 0 501 0 0 515 0 0 290 0 0 68 0 0 48 0 0 41 0 0 33 0 0 34 0 0 23 0 0 20 0 0 19 0 0 19 0 0 
6 0 0 14 0 0 18 0 0 21 0 0 26 0 0 32 0 0 35 0 0 43 0 0 48 0 0 64 0 0 289 0 0 518 0 0 517 0 0 524 0 0 544 0 0 530 0 0 566 0 0 580 0 0 519 0 0 545 0 0 563 0 0 563 0 0 533 0 0 584 0 0 572 0 0 574 0 0 538 0 0 548 0 0 530 0 0 543 0 0 555 0 0 559 0 0 587 0 0 538 0 0 571 0 0 546 0 0 592 0 0 554 0 0 544 0 0 522 0 0 545 0 0 572 0 0 557 0 0 557 0 0 552 0 0 508 0 0 524 0 0 544 0 0 575 0 0 525 0 0 285 0 0 60 0 0 47 0 0 40 0 0 33 0 0 25 0 0 24 0 0 20 0 0 18 0 0 15 0 0 
5 0 0 13 0 0 16 0 0 22 0 0 28 0 0 25 0 0 36 0 0 37 0 0 40 0 0 58 0 0 284 0 0 520 0 0 523 0 0 584 0 0 539 0 0 546 0 0 523 0 0 594 0 0 543 0 0 536 0 0 570 0 0 589 0 0 537 0 0 556 0 0 558 0 0 538 0 0 568 0 0 546 0 0 574 0 0 549 0 0 551 0 0 562 0 0 586 0 0 564 0 0 564 0 0 560 0 0 542 0 0 601 0 0 562 0 0 512 0 0 556 0 0 546 0 0 541 0 0 549 0 0 523 0 0 550 0 0 514 0 0 536 0 0 542 0 0 534 0 0 297 0 0 54 0 0 46 0 0 34 0 0 27 0 0 31 0 0 29 0 0 19 0 0 16 0 0 14 0 0 
5 0 0 16 0 0 17 0 0 19 0 0 18 0 0 30 0 0 28 0 0 39 0 0 47 0 0 52 0 0 275 0 0 490 0 0 511 0 0 530 0 0 513 0 0 573 0 0 531 0 0 578 0 0 583 0 0 575 0 0 547 0 0 546 0 0 575 0 0 576 0 0 598 0 0 566 0 0 560 0 0 587 0 0 535 0 0 513 0 0 554 0 0 562 0 0 564 0 0 570 0 0 537 0 0 576 0 0 549 0 0 538 0 0 526 0 0 539 0 0 560 0 0 567 0 0 561 0 0 560 0 0 536 0 0 513 0 0 535 0 0 549 0 0 513 0 0 499 0 0 279 0 0 58 0 0 39 0 0 41 0 0 32 0 0 30 0 0 28 0 0 21 0 0 21 0 0 12 0 0 
4 0 0 14 0 0 18 0 0 21 0 0 24 0 0 27 0 0 27 0 0 36 0 0 46 0 0 47 0 0 277 0 0 493 0 0 551 0 0 528 0 0 551 0 0 506 0 0 538 0 0 558 0 0 541 0 0 533 0 0 579 0 0 530 0 0 525 0 0 565 0 0 534 0 0 533 0 0 557 0 0 555 0 0 536 0 0 532 0 0 552 0 0 532 0 0 553 0 0 538 0 0 582 0 0 576 0 0 539 0 0 537 0 0 536 0 0 576 0 0 537 0 0 567 0 0 549 0 0 546 0 0 510 0 0 506 0 0 536 0 0 522 0 0 538 0 0 500 0 0 261 0 0 52 0 0 41 0 0 38 0 0 26 0 0 24 0 0 26 0 0 19 0 0 18 0 0 16 0 0 
5 0 0 14 0 0 14 0 0 19 0 0 16 0 0 23 0 0 22 0 0 40 0 0 44 0 0 49 0 0 284 0 0 522 0 0 506 0 0 508 0 0 536 0 0 516 0 0 473 0 0 500 0 0 525 0 0 546 0 0 542 0 0 538 0 0 513 0 0 559 0 0 570 0 0 559 0 0 518 0 0 539 0 0 579 0 0 535 0 0 502 0 0 523 0 0 558 0 0 563 0 0 519 0 0 529 0 0 556 0 0 552 0 0 533 0 0 559 0 0 542 0 0 552 0 0 527 0 0 552 0 0 552 0 0 534 0 0 527 0 0 515 0 0 506 0 0 494 0 0 299 0 0 51 0 0 39 0 0 30 0 0 29 0 0 25 0 0 20 0 0 17 0 0 15 0 0 13 0 0 
6 0 0 16 0 0 17 0 0 17 0 0 22 0 0 21 0 0 28 0 0 35 0 0 38 0 0 38 0 0 277 0 0 465 0 0 503 0 0 508 0 0 527 0 0 490 0 0 520 0 0 528 0 0 515 0 0 523 0 0 506 0 0 542 0 0 526 0 0 524 0 0 542 0 0 560 0 0 534 0 0 523 0 0 529 0 0 513 0 0 550 0 0 520 0 0 533 0 0 534 0 0 530 0 0 551 0 0 529 0 0 528 0 0 513 0 0 496 0 0 522 0 0 531 0 0 537 0 0 489 0 0 526 0 0 495 0 0 504 0 0 482 0 0 558 0 0 477 0 0 268 0 0 39 0 0 36 0 0 35 0 0 29 0 0 21 0 0 19 0 0 20 0 0 18 0 0 12 0 0 
5 0 0 13 0 0 12 0 0 19 0 0 21 0 0 22 0 0 26 0 0 21 0 0 35 0 0 48 0 0 151 0 0 263 0 0 268 0 0 295 0 0 261 0 0 272 0 0 283 0 0 259 0 0 304 0 0 303 0 0 325 0 0 304 0 0 294 0 0 311 0 0 304 0 0 300 0 0 336 0 0 305 0 0 271 0 0 299 0 0 289 0 0 288 0 0 297 0 0 313 0 0 291 0 0 296 0 0 325 0 0 295 0 0 308 0 0 323 0 0 299 0 0 300 0 0 285 0 0 288 0 0 291 0 0 310 0 0 263 0 0 279 0 0 289 0 0 266 0 0 150 0 0 40 0 0 30 0 0 27 0 0 25 0 0 24 0 0 18 0 0 15 0 0 16 0 0 13 0 0 
4 0 0 12 0 0 15 0 0 15 0 0 18 0 0 21 0 0 15 0 0 30 0 0 26 0 0 30 0 0 41 0 0 47 0 0 55 0 0 56 0 0 62 0 0 70 0 0 65 0 0 67 0 0 68 0 0 60 0 0 71 0 0 66 0 0 75 0 0 77 0 0 70 0 0 66 0 0 77 0 0 72 0 0 73 0 0 71 0 0 66 0 0 72 0 0 81 0 0 77 0 0 79 0 0 72 0 0 67 0 0 78 0 0 66 0 0 64 0 0 66 0 0 61 0 0 64 0 0 60 0 0 60 0 0 50 0 0 60 0 0 60 0 0 51 0 0 45 0 0 34 0 0 34 0 0 26 0 0 26 0 0 23 0 0 19 0 0 15 0 0 14 0 0 16 0 0 11 0 0 
3 0 0 10 0 0 14 0 0 15 0 0 19 0 0 17 0 0 19 0 0 25 0 0 25 0 0 27 0 0 33 0 0 41 0 0 37 0 0 42 0 0 45 0 0 52 0 0 48 0 0 52 0 0 53 0 0 45 0 0 51 0 0 58 0 0 52 0 0 61 0 0 58 0 0 55 0 0 61 0 0 52 0 0 58 0 0 60 0 0 57 0 0 55 0 0 60 0 0 60 0 0 54 0 0 56 0 0 54 0 0 59 0 0 56 0 0 49 0 0 62 0 0 56 0 0 56 0 0 50 0 0 47 0 0 47 0 0 42 0 0 42 0 0 36 0 0 28 0 0 28 0 0 33 0 0 24 0 0 23 0 0 20 0 0 20 0 0 15 0 0 14 0 0 11 0 0 10 0 0 
5 0 0 12 0 0 12 0 0 12 0 0 16 0 0 15 0 0 21 0 0 19 0 0 19 0 0 25 0 0 27 0 0 30 0 0 38 0 0 40 0 0 37 0 0 38 0 0 39 0 0 40 0 0 45 0 0 43 0 0 49 0 0 46 0 0 46 0 0 49 0 0 47 0 0 44 0 0 51 0 0 44 0 0 46 0 0 49 0 0 48 0 0 44 0 0 42 0 0 48 0 0 40 0 0 51 0 0 44 0 0 47 0 0 47 0 0 48 0 0 42 0 0 49 0 0 44 0 0 52 0 0 38 0 0 42 0 0 38 0 0 36 0 0 28 0 0 23 0 0 29 0 0 28 0 0 25 0 0 17 0 0 19 0 0 12 0 0 14 0 0 12 0 0 12 0 0 9 0 0 
4 0 0 11 0 0 9 0 0 10 0 0 12 0 0 15 0 0 18 0 0 14 0 0 22 0 0 27 0 0 24 0 0 31 0 0 31 0 0 29 0 0 34 0 0 28 0 0 32 0 0 36 0 0 33 0 0 41 0 0 40 0 0 38 0 0 37 0 0 45 0 0 32 0 0 39 0 0 45 0 0 43 0 0 46 0 0 47 0 0 44 0 0 44 0 0 39 0 0 34 0 0 38 0 0 36 0 0 44 0 0 37 0 0 46 0 0 33 0 0 38 0 0 42 0 0 37 0 0 32 0 0 37 0 0 33 0 0 37 0 0 27 0 0 31 0 0 26 0 0 26 0 0 25 0 0 19 0 0 22 0 0 16 0 0 15 0 0 11 0 0 8 0 0 8 0 0 10 0 0 
5 0 0 10 0 0 9 0 0 12 0 0 12 0 0 13 0 0 14 0 0 14 0 0 17 0 0 20 0 0 19 0 0 23 0 0 23 0 0 27 0 0 28 0 0 29 0 0 37 0 0 33 0 0 33 0 0 34 0 0 33 0 0 33 0 0 30 0 0 34 0 0 32 0 0 35 0 0 37 0 0 30 0 0 37 0 0 33 0 0 35 0 0 33 0 0 35 0 0 36 0 0 32 0 0 32 0 0 37 0 0 34 0 0 29 0 0 33 0 0 37 0 0 27 0 0 36 0 0 26 0 0 27 0 0 23 0 0 32 0 0 22 0 0 25 0 0 28 0 0 21 0 0 21 0 0 19 0 0 13 0 0 14 0 0 14 0 0 10 0 0 13 0 0 8 0 0 10 0 0 
3 0 0 7 0 0 11 0 0 15 0 0 12 0 0 14 0 0 12 0 0 13 0 0 14 0 0 19 0 0 19 0 0 20 0 0 20 0 0 21 0 0 25 0 0 23 0 0 28 0 0 23 0 0 24 0 0 30 0 0 26 0 0 30 0 0 29 0 0 28 0 0 29 0 0 32 0 0 30 0 0 37 0 0 29 0 0 29 0 0 36 0 0 28 0 0 32 0 0 34 0 0 30 0 0 28 0 0 27 0 0 31 0 0 29 0 0 29 0 0 34 0 0 29 0 0 31 0 0 26 0 0 26 0 0 23 0 0 25 0 0 22 0 0 22 0 0 19 0 0 16 0 0 20 0 0 14 0 0 14 0 0 12 0 0 14 0 0 13 0 0 9 0 0 11 0 0 8 0 0 
2 0 0 9 0 0 8 0 0 10 0 0 11 0 0 13 0 0 9 0 0 12 0 0 11 0 0 15 0 0 15 0 0 19 0 0 23 0 0 22 0 0 21 0 0 21 0 0 22 0 0 19 0 0 22 0 0 24 0 0 23 0 0 26 0 0 24 0 0 30 0 0 28 0 0 27 0 0 30 0 0 30 0 0 29 0 0 30 0 0 29 0 0 26 0 0 26 0 0 23 0 0 26 0 0 22 0 0 23 0 0 34 0 0 29 0 0 24 0 0 20 0 0 25 0 0 24 0 0 21 0 0 22 0 0 25 0 0 21 0 0 18 0 0 17 0 0 18 0 0 19 0 0 14 0 0 15 0 0 15 0 0 12 0 0 8 0 0 10 0 0 8 0 0 9 0 0 7 0 0 
1 0 0 6 0 0 7 0 0 7 0 0 10 0 0 9 0 0 11 0 0 15 0 0 15 0 0 13 0 0 13 0 0 15 0 0 16 0 0 16 0 0 18 0 0 21 0 0 17 0 0 21 0 0 20 0 0 20 0 0 24 0 0 22 0 0 24 0 0 20 0 0 27 0 0 24 0 0 24 0 0 25 0 0 24 0 0 25 0 0 21 0 0 25 0 0 20 0 0 22 0 0 27 0 0 23 0 0 20 0 0 27 0 0 22 0 0 23 0 0 25 0 0 15 0 0 24 0 0 18 0 0 18 0 0 19 0 0 18 0 0 15 0 0 16 0 0 15 0 0 12 0 0 13 0 0 14 0 0 17 0 0 10 0 0 8 0 0 13 0 0 9 0 0 9 0 0 8 0 0 
2 0 0 6 0 0 5 0 0 9 0 0 11 0 0 5 0 0 7 0 0 10 0 0 11 0 0 10 0 0 15 0 0 12 0 0 13 0 0 11 0 0 15 0 0 19 0 0 15 0 0 16 0 0 16 0 0 16 0 0 20 0 0 20 0 0 21 0 0 16 0 0 21 0 0 22 0 0 17 0 0 21 0 0 20 0 0 18 0 0 20 0 0 20 0 0 20 0 0 14 0 0 21 0 0 23 0 0 21 0 0 21 0 0 20 0 0 21 0 0 21 0 0 18 0 0 18 0 0 17 0 0 15 0 0 14 0 0 12 0 0 13 0 0 14 0 0 12 0 0 12 0 0 12 0 0 10 0 0 11 0 0 11 0 0 9 0 0 8 0 0 10 0 0 9 0 0 7 0 0 
