P3
# This is a dose file slice at depth 31 of 100
60 60
# now we give the maximum value of the RGB coordinates.
894
1 0 0 2 0 0 2 0 0 4 0 0 3 0 0 4 0 0 4 0 0 3 0 0 4 0 0 4 0 0 6 0 0 5 0 0 4 0 0 4 0 0 6 0 0 7 0 0 7 0 0 8 0 0 6 0 0 5 0 0 5 0 0 5 0 0 7 0 0 6 0 0 9 0 0 8 0 0 6 0 0 8 0 0 8 0 0 8 0 0 9 0 0 7 0 0 8 0 0 6 0 0 8 0 0 6 0 0 7 0 0 10 0 0 7 0 0 5 0 0 6 0 0 4 0 0 6 0 0 5 0 0 4 0 0 8 0 0 6 0 0 7 0 0 5 0 0 5 0 0 6 0 0 6 0 0 3 0 0 4 0 0 4 0 0 4 0 0 2 0 0 2 0 0 2 0 0 3 0 0 
2 0 0 7 0 0 7 0 0 8 0 0 9 0 0 8 0 0 6 0 0 12 0 0 9 0 0 10 0 0 11 0 0 15 0 0 18 0 0 15 0 0 16 0 0 18 0 0 16 0 0 19 0 0 18 0 0 17 0 0 20 0 0 22 0 0 28 0 0 25 0 0 21 0 0 18 0 0 22 0 0 21 0 0 24 0 0 24 0 0 24 0 0 22 0 0 21 0 0 18 0 0 22 0 0 24 0 0 26 0 0 23 0 0 21 0 0 23 0 0 19 0 0 13 0 0 18 0 0 18 0 0 19 0 0 20 0 0 17 0 0 16 0 0 14 0 0 14 0 0 16 0 0 12 0 0 14 0 0 10 0 0 14 0 0 12 0 0 8 0 0 7 0 0 7 0 0 9 0 0 
4 0 0 8 0 0 8 0 0 8 0 0 10 0 0 9 0 0 12 0 0 10 0 0 14 0 0 12 0 0 16 0 0 21 0 0 20 0 0 18 0 0 20 0 0 20 0 0 19 0 0 19 0 0 21 0 0 22 0 0 23 0 0 22 0 0 26 0 0 24 0 0 24 0 0 24 0 0 24 0 0 30 0 0 25 0 0 30 0 0 23 0 0 23 0 0 23 0 0 25 0 0 22 0 0 27 0 0 26 0 0 25 0 0 26 0 0 24 0 0 20 0 0 29 0 0 26 0 0 22 0 0 20 0 0 21 0 0 20 0 0 18 0 0 18 0 0 16 0 0 14 0 0 15 0 0 14 0 0 14 0 0 10 0 0 12 0 0 6 0 0 9 0 0 9 0 0 6 0 0 
4 0 0 8 0 0 7 0 0 11 0 0 10 0 0 12 0 0 13 0 0 12 0 0 14 0 0 17 0 0 17 0 0 20 0 0 24 0 0 21 0 0 20 0 0 22 0 0 26 0 0 25 0 0 27 0 0 24 0 0 24 0 0 24 0 0 24 0 0 27 0 0 31 0 0 32 0 0 27 0 0 26 0 0 30 0 0 30 0 0 34 0 0 27 0 0 30 0 0 29 0 0 30 0 0 30 0 0 28 0 0 23 0 0 26 0 0 28 0 0 28 0 0 30 0 0 28 0 0 22 0 0 25 0 0 23 0 0 22 0 0 19 0 0 22 0 0 17 0 0 18 0 0 19 0 0 18 0 0 18 0 0 13 0 0 11 0 0 10 0 0 9 0 0 10 0 0 11 0 0 
3 0 0 10 0 0 10 0 0 12 0 0 12 0 0 13 0 0 13 0 0 16 0 0 16 0 0 17 0 0 21 0 0 23 0 0 21 0 0 26 0 0 30 0 0 26 0 0 27 0 0 25 0 0 25 0 0 29 0 0 30 0 0 31 0 0 35 0 0 26 0 0 30 0 0 33 0 0 42 0 0 35 0 0 30 0 0 27 0 0 32 0 0 32 0 0 34 0 0 36 0 0 33 0 0 34 0 0 36 0 0 33 0 0 33 0 0 31 0 0 32 0 0 30 0 0 25 0 0 30 0 0 28 0 0 24 0 0 24 0 0 22 0 0 24 0 0 17 0 0 19 0 0 18 0 0 18 0 0 19 0 0 14 0 0 12 0 0 9 0 0 10 0 0 9 0 0 8 0 0 
1 0 0 13 0 0 11 0 0 12 0 0 16 0 0 13 0 0 15 0 0 16 0 0 20 0 0 23 0 0 23 0 0 22 0 0 27 0 0 26 0 0 25 0 0 31 0 0 31 0 0 34 0 0 32 0 0 33 0 0 35 0 0 40 0 0 40 0 0 37 0 0 37 0 0 41 0 0 37 0 0 39 0 0 37 0 0 35 0 0 39 0 0 33 0 0 43 0 0 42 0 0 41 0 0 39 0 0 37 0 0 41 0 0 33 0 0 37 0 0 39 0 0 35 0 0 32 0 0 29 0 0 30 0 0 29 0 0 24 0 0 28 0 0 26 0 0 25 0 0 23 0 0 22 0 0 18 0 0 21 0 0 18 0 0 13 0 0 13 0 0 17 0 0 14 0 0 11 0 0 
4 0 0 10 0 0 12 0 0 10 0 0 17 0 0 19 0 0 16 0 0 21 0 0 22 0 0 22 0 0 25 0 0 26 0 0 26 0 0 38 0 0 28 0 0 35 0 0 34 0 0 40 0 0 32 0 0 38 0 0 41 0 0 43 0 0 48 0 0 43 0 0 41 0 0 42 0 0 45 0 0 44 0 0 44 0 0 45 0 0 41 0 0 39 0 0 42 0 0 43 0 0 44 0 0 45 0 0 40 0 0 42 0 0 47 0 0 48 0 0 38 0 0 44 0 0 30 0 0 39 0 0 37 0 0 34 0 0 30 0 0 39 0 0 25 0 0 22 0 0 22 0 0 17 0 0 25 0 0 22 0 0 17 0 0 17 0 0 17 0 0 11 0 0 13 0 0 9 0 0 
2 0 0 8 0 0 13 0 0 11 0 0 16 0 0 17 0 0 19 0 0 19 0 0 23 0 0 28 0 0 29 0 0 33 0 0 37 0 0 46 0 0 41 0 0 39 0 0 44 0 0 49 0 0 46 0 0 40 0 0 40 0 0 48 0 0 49 0 0 47 0 0 53 0 0 51 0 0 57 0 0 52 0 0 50 0 0 46 0 0 48 0 0 52 0 0 60 0 0 47 0 0 55 0 0 41 0 0 49 0 0 58 0 0 47 0 0 51 0 0 49 0 0 45 0 0 42 0 0 50 0 0 40 0 0 42 0 0 43 0 0 40 0 0 37 0 0 26 0 0 24 0 0 29 0 0 28 0 0 22 0 0 19 0 0 19 0 0 16 0 0 15 0 0 14 0 0 8 0 0 
3 0 0 8 0 0 14 0 0 13 0 0 17 0 0 24 0 0 22 0 0 25 0 0 31 0 0 32 0 0 27 0 0 38 0 0 38 0 0 38 0 0 42 0 0 46 0 0 48 0 0 53 0 0 52 0 0 54 0 0 55 0 0 53 0 0 60 0 0 60 0 0 61 0 0 58 0 0 62 0 0 53 0 0 52 0 0 63 0 0 61 0 0 61 0 0 55 0 0 65 0 0 56 0 0 61 0 0 58 0 0 57 0 0 63 0 0 55 0 0 54 0 0 61 0 0 53 0 0 51 0 0 48 0 0 52 0 0 46 0 0 41 0 0 38 0 0 35 0 0 34 0 0 27 0 0 24 0 0 22 0 0 22 0 0 17 0 0 14 0 0 14 0 0 12 0 0 12 0 0 
5 0 0 13 0 0 11 0 0 16 0 0 23 0 0 20 0 0 23 0 0 27 0 0 30 0 0 38 0 0 38 0 0 47 0 0 49 0 0 54 0 0 51 0 0 57 0 0 57 0 0 61 0 0 68 0 0 61 0 0 64 0 0 66 0 0 66 0 0 63 0 0 80 0 0 71 0 0 67 0 0 70 0 0 72 0 0 77 0 0 78 0 0 69 0 0 73 0 0 67 0 0 79 0 0 73 0 0 75 0 0 66 0 0 59 0 0 76 0 0 68 0 0 65 0 0 64 0 0 54 0 0 58 0 0 58 0 0 62 0 0 54 0 0 50 0 0 46 0 0 40 0 0 42 0 0 30 0 0 26 0 0 19 0 0 20 0 0 19 0 0 15 0 0 18 0 0 16 0 0 
3 0 0 13 0 0 15 0 0 17 0 0 20 0 0 23 0 0 29 0 0 32 0 0 35 0 0 44 0 0 151 0 0 254 0 0 250 0 0 258 0 0 266 0 0 244 0 0 257 0 0 271 0 0 262 0 0 256 0 0 260 0 0 276 0 0 284 0 0 279 0 0 280 0 0 262 0 0 262 0 0 280 0 0 282 0 0 269 0 0 266 0 0 263 0 0 249 0 0 290 0 0 291 0 0 275 0 0 262 0 0 290 0 0 266 0 0 283 0 0 266 0 0 262 0 0 252 0 0 256 0 0 266 0 0 253 0 0 251 0 0 272 0 0 275 0 0 243 0 0 148 0 0 39 0 0 29 0 0 30 0 0 21 0 0 22 0 0 23 0 0 17 0 0 15 0 0 12 0 0 
5 0 0 14 0 0 13 0 0 19 0 0 25 0 0 24 0 0 26 0 0 26 0 0 29 0 0 36 0 0 265 0 0 440 0 0 451 0 0 481 0 0 459 0 0 446 0 0 478 0 0 479 0 0 498 0 0 461 0 0 475 0 0 461 0 0 497 0 0 484 0 0 510 0 0 465 0 0 494 0 0 473 0 0 494 0 0 479 0 0 472 0 0 479 0 0 498 0 0 465 0 0 484 0 0 456 0 0 498 0 0 514 0 0 463 0 0 492 0 0 486 0 0 503 0 0 471 0 0 442 0 0 484 0 0 456 0 0 459 0 0 463 0 0 439 0 0 474 0 0 250 0 0 51 0 0 40 0 0 38 0 0 25 0 0 28 0 0 22 0 0 19 0 0 15 0 0 15 0 0 
6 0 0 17 0 0 22 0 0 22 0 0 25 0 0 25 0 0 25 0 0 31 0 0 41 0 0 46 0 0 261 0 0 471 0 0 459 0 0 477 0 0 439 0 0 459 0 0 469 0 0 470 0 0 495 0 0 479 0 0 481 0 0 479 0 0 512 0 0 482 0 0 487 0 0 492 0 0 497 0 0 493 0 0 487 0 0 473 0 0 478 0 0 497 0 0 492 0 0 497 0 0 489 0 0 480 0 0 493 0 0 503 0 0 524 0 0 514 0 0 468 0 0 485 0 0 475 0 0 480 0 0 518 0 0 484 0 0 498 0 0 479 0 0 489 0 0 439 0 0 240 0 0 49 0 0 39 0 0 32 0 0 30 0 0 26 0 0 19 0 0 21 0 0 17 0 0 13 0 0 
5 0 0 14 0 0 20 0 0 22 0 0 25 0 0 28 0 0 29 0 0 36 0 0 36 0 0 59 0 0 246 0 0 471 0 0 472 0 0 485 0 0 463 0 0 474 0 0 518 0 0 490 0 0 459 0 0 511 0 0 484 0 0 502 0 0 480 0 0 515 0 0 481 0 0 527 0 0 496 0 0 512 0 0 514 0 0 479 0 0 482 0 0 519 0 0 519 0 0 488 0 0 500 0 0 529 0 0 493 0 0 499 0 0 521 0 0 520 0 0 501 0 0 480 0 0 480 0 0 480 0 0 491 0 0 501 0 0 497 0 0 439 0 0 487 0 0 479 0 0 259 0 0 54 0 0 39 0 0 35 0 0 29 0 0 28 0 0 23 0 0 17 0 0 18 0 0 18 0 0 
6 0 0 18 0 0 19 0 0 18 0 0 28 0 0 29 0 0 37 0 0 39 0 0 48 0 0 54 0 0 277 0 0 449 0 0 497 0 0 491 0 0 458 0 0 498 0 0 486 0 0 506 0 0 497 0 0 487 0 0 533 0 0 496 0 0 468 0 0 522 0 0 505 0 0 499 0 0 504 0 0 519 0 0 532 0 0 512 0 0 531 0 0 495 0 0 513 0 0 521 0 0 496 0 0 479 0 0 495 0 0 510 0 0 518 0 0 505 0 0 484 0 0 517 0 0 492 0 0 514 0 0 451 0 0 497 0 0 494 0 0 482 0 0 494 0 0 488 0 0 263 0 0 50 0 0 46 0 0 40 0 0 32 0 0 30 0 0 27 0 0 21 0 0 20 0 0 15 0 0 
4 0 0 17 0 0 18 0 0 22 0 0 22 0 0 33 0 0 38 0 0 40 0 0 49 0 0 54 0 0 257 0 0 468 0 0 468 0 0 479 0 0 490 0 0 519 0 0 513 0 0 516 0 0 486 0 0 476 0 0 482 0 0 519 0 0 510 0 0 515 0 0 508 0 0 505 0 0 551 0 0 501 0 0 488 0 0 506 0 0 481 0 0 519 0 0 540 0 0 509 0 0 474 0 0 514 0 0 473 0 0 503 0 0 517 0 0 511 0 0 516 0 0 483 0 0 512 0 0 464 0 0 490 0 0 485 0 0 515 0 0 482 0 0 494 0 0 463 0 0 248 0 0 58 0 0 54 0 0 44 0 0 33 0 0 28 0 0 25 0 0 26 0 0 19 0 0 19 0 0 
7 0 0 18 0 0 18 0 0 19 0 0 24 0 0 31 0 0 34 0 0 42 0 0 51 0 0 64 0 0 274 0 0 484 0 0 464 0 0 517 0 0 511 0 0 502 0 0 486 0 0 549 0 0 525 0 0 476 0 0 503 0 0 509 0 0 517 0 0 527 0 0 519 0 0 509 0 0 509 0 0 517 0 0 520 0 0 534 0 0 527 0 0 548 0 0 471 0 0 498 0 0 450 0 0 523 0 0 513 0 0 475 0 0 497 0 0 504 0 0 518 0 0 526 0 0 512 0 0 487 0 0 501 0 0 483 0 0 482 0 0 495 0 0 465 0 0 459 0 0 289 0 0 65 0 0 51 0 0 46 0 0 31 0 0 28 0 0 25 0 0 22 0 0 18 0 0 19 0 0 
7 0 0 19 0 0 26 0 0 26 0 0 30 0 0 33 0 0 38 0 0 56 0 0 57 0 0 57 0 0 251 0 0 488 0 0 494 0 0 495 0 0 501 0 0 497 0 0 523 0 0 482 0 0 548 0 0 506 0 0 541 0 0 504 0 0 493 0 0 520 0 0 527 0 0 515 0 0 518 0 0 502 0 0 488 0 0 523 0 0 533 0 0 528 0 0 522 0 0 542 0 0 528 0 0 552 0 0 564 0 0 549 0 0 501 0 0 526 0 0 519 0 0 515 0 0 520 0 0 507 0 0 500 0 0 546 0 0 507 0 0 516 0 0 499 0 0 484 0 0 261 0 0 53 0 0 49 0 0 46 0 0 38 0 0 36 0 0 24 0 0 24 0 0 19 0 0 22 0 0 
5 0 0 18 0 0 18 0 0 26 0 0 29 0 0 37 0 0 34 0 0 52 0 0 51 0 0 56 0 0 276 0 0 458 0 0 523 0 0 499 0 0 512 0 0 521 0 0 504 0 0 494 0 0 509 0 0 532 0 0 505 0 0 521 0 0 506 0 0 554 0 0 535 0 0 505 0 0 547 0 0 538 0 0 547 0 0 528 0 0 534 0 0 535 0 0 499 0 0 530 0 0 537 0 0 486 0 0 530 0 0 494 0 0 518 0 0 506 0 0 542 0 0 553 0 0 505 0 0 514 0 0 515 0 0 474 0 0 498 0 0 495 0 0 491 0 0 463 0 0 255 0 0 68 0 0 50 0 0 33 0 0 44 0 0 35 0 0 31 0 0 28 0 0 24 0 0 19 0 0 
10 0 0 19 0 0 24 0 0 29 0 0 22 0 0 35 0 0 48 0 0 48 0 0 58 0 0 68 0 0 270 0 0 511 0 0 476 0 0 489 0 0 475 0 0 528 0 0 504 0 0 528 0 0 497 0 0 526 0 0 521 0 0 518 0 0 512 0 0 506 0 0 533 0 0 516 0 0 541 0 0 524 0 0 533 0 0 520 0 0 525 0 0 540 0 0 508 0 0 576 0 0 526 0 0 509 0 0 528 0 0 526 0 0 497 0 0 547 0 0 515 0 0 510 0 0 508 0 0 507 0 0 502 0 0 523 0 0 495 0 0 520 0 0 469 0 0 480 0 0 268 0 0 60 0 0 51 0 0 39 0 0 36 0 0 35 0 0 34 0 0 26 0 0 25 0 0 21 0 0 
6 0 0 18 0 0 18 0 0 24 0 0 32 0 0 31 0 0 41 0 0 55 0 0 57 0 0 67 0 0 302 0 0 461 0 0 458 0 0 485 0 0 494 0 0 502 0 0 522 0 0 498 0 0 504 0 0 512 0 0 510 0 0 514 0 0 520 0 0 518 0 0 537 0 0 539 0 0 512 0 0 522 0 0 544 0 0 519 0 0 534 0 0 528 0 0 499 0 0 542 0 0 505 0 0 516 0 0 515 0 0 528 0 0 500 0 0 522 0 0 520 0 0 530 0 0 521 0 0 540 0 0 521 0 0 526 0 0 498 0 0 473 0 0 500 0 0 485 0 0 282 0 0 72 0 0 52 0 0 49 0 0 37 0 0 36 0 0 32 0 0 27 0 0 23 0 0 17 0 0 
7 0 0 22 0 0 26 0 0 26 0 0 34 0 0 33 0 0 40 0 0 51 0 0 65 0 0 70 0 0 279 0 0 485 0 0 505 0 0 485 0 0 486 0 0 529 0 0 530 0 0 508 0 0 523 0 0 544 0 0 488 0 0 503 0 0 536 0 0 562 0 0 533 0 0 546 0 0 550 0 0 540 0 0 524 0 0 520 0 0 555 0 0 518 0 0 539 0 0 563 0 0 542 0 0 529 0 0 563 0 0 520 0 0 520 0 0 528 0 0 560 0 0 520 0 0 518 0 0 499 0 0 519 0 0 500 0 0 537 0 0 498 0 0 487 0 0 510 0 0 274 0 0 59 0 0 49 0 0 53 0 0 37 0 0 34 0 0 29 0 0 30 0 0 25 0 0 25 0 0 
9 0 0 19 0 0 26 0 0 31 0 0 35 0 0 35 0 0 39 0 0 49 0 0 44 0 0 74 0 0 279 0 0 456 0 0 495 0 0 514 0 0 490 0 0 509 0 0 526 0 0 543 0 0 527 0 0 533 0 0 519 0 0 544 0 0 537 0 0 531 0 0 543 0 0 538 0 0 540 0 0 536 0 0 551 0 0 542 0 0 526 0 0 555 0 0 567 0 0 564 0 0 529 0 0 541 0 0 550 0 0 541 0 0 486 0 0 536 0 0 520 0 0 533 0 0 503 0 0 515 0 0 501 0 0 513 0 0 522 0 0 488 0 0 502 0 0 474 0 0 296 0 0 63 0 0 53 0 0 48 0 0 37 0 0 36 0 0 33 0 0 22 0 0 24 0 0 24 0 0 
6 0 0 22 0 0 25 0 0 24 0 0 27 0 0 37 0 0 40 0 0 51 0 0 52 0 0 63 0 0 302 0 0 451 0 0 476 0 0 509 0 0 545 0 0 529 0 0 554 0 0 536 0 0 519 0 0 538 0 0 546 0 0 533 0 0 512 0 0 520 0 0 536 0 0 553 0 0 536 0 0 540 0 0 551 0 0 541 0 0 538 0 0 527 0 0 508 0 0 538 0 0 557 0 0 519 0 0 555 0 0 522 0 0 527 0 0 541 0 0 537 0 0 496 0 0 500 0 0 521 0 0 522 0 0 551 0 0 487 0 0 528 0 0 487 0 0 485 0 0 291 0 0 69 0 0 51 0 0 57 0 0 37 0 0 38 0 0 34 0 0 33 0 0 21 0 0 19 0 0 
8 0 0 25 0 0 26 0 0 35 0 0 35 0 0 37 0 0 43 0 0 51 0 0 52 0 0 81 0 0 288 0 0 497 0 0 473 0 0 500 0 0 509 0 0 536 0 0 544 0 0 530 0 0 536 0 0 486 0 0 550 0 0 539 0 0 547 0 0 526 0 0 545 0 0 551 0 0 542 0 0 528 0 0 550 0 0 526 0 0 512 0 0 540 0 0 548 0 0 556 0 0 540 0 0 528 0 0 501 0 0 563 0 0 542 0 0 538 0 0 537 0 0 549 0 0 452 0 0 521 0 0 487 0 0 473 0 0 516 0 0 528 0 0 479 0 0 474 0 0 257 0 0 69 0 0 63 0 0 50 0 0 39 0 0 43 0 0 30 0 0 22 0 0 30 0 0 22 0 0 
6 0 0 20 0 0 27 0 0 30 0 0 30 0 0 32 0 0 45 0 0 55 0 0 68 0 0 72 0 0 285 0 0 476 0 0 507 0 0 486 0 0 536 0 0 533 0 0 521 0 0 538 0 0 517 0 0 500 0 0 548 0 0 523 0 0 544 0 0 545 0 0 510 0 0 548 0 0 547 0 0 556 0 0 556 0 0 553 0 0 536 0 0 536 0 0 544 0 0 542 0 0 486 0 0 551 0 0 526 0 0 571 0 0 509 0 0 552 0 0 554 0 0 524 0 0 504 0 0 498 0 0 538 0 0 519 0 0 541 0 0 505 0 0 482 0 0 491 0 0 278 0 0 72 0 0 48 0 0 51 0 0 44 0 0 32 0 0 32 0 0 31 0 0 22 0 0 20 0 0 
6 0 0 18 0 0 27 0 0 32 0 0 36 0 0 42 0 0 39 0 0 53 0 0 61 0 0 68 0 0 277 0 0 470 0 0 501 0 0 494 0 0 486 0 0 502 0 0 506 0 0 521 0 0 556 0 0 540 0 0 540 0 0 555 0 0 530 0 0 504 0 0 506 0 0 555 0 0 546 0 0 526 0 0 544 0 0 537 0 0 545 0 0 547 0 0 549 0 0 563 0 0 548 0 0 530 0 0 545 0 0 536 0 0 523 0 0 550 0 0 552 0 0 526 0 0 533 0 0 526 0 0 545 0 0 519 0 0 505 0 0 484 0 0 512 0 0 463 0 0 281 0 0 79 0 0 62 0 0 53 0 0 42 0 0 41 0 0 34 0 0 32 0 0 23 0 0 21 0 0 
8 0 0 21 0 0 30 0 0 29 0 0 30 0 0 36 0 0 44 0 0 66 0 0 59 0 0 71 0 0 280 0 0 524 0 0 471 0 0 479 0 0 511 0 0 550 0 0 511 0 0 525 0 0 522 0 0 505 0 0 549 0 0 518 0 0 513 0 0 533 0 0 512 0 0 514 0 0 520 0 0 563 0 0 536 0 0 549 0 0 538 0 0 528 0 0 559 0 0 593 0 0 550 0 0 523 0 0 528 0 0 539 0 0 518 0 0 536 0 0 549 0 0 564 0 0 513 0 0 538 0 0 541 0 0 518 0 0 514 0 0 526 0 0 486 0 0 478 0 0 295 0 0 68 0 0 55 0 0 48 0 0 48 0 0 47 0 0 32 0 0 30 0 0 25 0 0 17 0 0 
8 0 0 19 0 0 26 0 0 24 0 0 31 0 0 35 0 0 49 0 0 56 0 0 57 0 0 75 0 0 283 0 0 483 0 0 454 0 0 465 0 0 517 0 0 493 0 0 501 0 0 539 0 0 528 0 0 541 0 0 568 0 0 543 0 0 571 0 0 532 0 0 505 0 0 540 0 0 496 0 0 559 0 0 522 0 0 551 0 0 571 0 0 529 0 0 557 0 0 558 0 0 544 0 0 523 0 0 506 0 0 533 0 0 527 0 0 529 0 0 530 0 0 536 0 0 533 0 0 495 0 0 545 0 0 544 0 0 532 0 0 478 0 0 473 0 0 483 0 0 254 0 0 69 0 0 62 0 0 46 0 0 45 0 0 48 0 0 40 0 0 32 0 0 25 0 0 24 0 0 
8 0 0 25 0 0 25 0 0 32 0 0 32 0 0 39 0 0 45 0 0 44 0 0 60 0 0 74 0 0 290 0 0 509 0 0 496 0 0 476 0 0 536 0 0 543 0 0 560 0 0 550 0 0 563 0 0 569 0 0 505 0 0 509 0 0 553 0 0 518 0 0 529 0 0 515 0 0 526 0 0 533 0 0 532 0 0 540 0 0 538 0 0 556 0 0 566 0 0 539 0 0 511 0 0 565 0 0 539 0 0 517 0 0 557 0 0 557 0 0 545 0 0 523 0 0 506 0 0 516 0 0 521 0 0 533 0 0 501 0 0 528 0 0 477 0 0 485 0 0 280 0 0 70 0 0 55 0 0 51 0 0 41 0 0 36 0 0 36 0 0 32 0 0 26 0 0 26 0 0 
8 0 0 23 0 0 27 0 0 29 0 0 31 0 0 40 0 0 46 0 0 50 0 0 64 0 0 67 0 0 292 0 0 546 0 0 524 0 0 518 0 0 493 0 0 495 0 0 524 0 0 524 0 0 509 0 0 504 0 0 525 0 0 537 0 0 522 0 0 554 0 0 552 0 0 497 0 0 524 0 0 534 0 0 545 0 0 522 0 0 580 0 0 526 0 0 526 0 0 544 0 0 532 0 0 511 0 0 550 0 0 554 0 0 512 0 0 525 0 0 531 0 0 535 0 0 520 0 0 547 0 0 549 0 0 531 0 0 482 0 0 514 0 0 513 0 0 527 0 0 301 0 0 72 0 0 61 0 0 46 0 0 44 0 0 38 0 0 34 0 0 27 0 0 25 0 0 20 0 0 
9 0 0 22 0 0 29 0 0 30 0 0 30 0 0 37 0 0 50 0 0 59 0 0 62 0 0 74 0 0 279 0 0 467 0 0 478 0 0 490 0 0 521 0 0 499 0 0 524 0 0 517 0 0 521 0 0 532 0 0 505 0 0 529 0 0 551 0 0 522 0 0 541 0 0 534 0 0 526 0 0 517 0 0 543 0 0 539 0 0 553 0 0 510 0 0 549 0 0 541 0 0 532 0 0 548 0 0 532 0 0 541 0 0 548 0 0 547 0 0 539 0 0 539 0 0 545 0 0 550 0 0 509 0 0 501 0 0 506 0 0 486 0 0 492 0 0 478 0 0 281 0 0 74 0 0 57 0 0 57 0 0 42 0 0 38 0 0 32 0 0 34 0 0 22 0 0 23 0 0 
7 0 0 21 0 0 27 0 0 25 0 0 37 0 0 42 0 0 44 0 0 49 0 0 59 0 0 76 0 0 281 0 0 506 0 0 472 0 0 495 0 0 544 0 0 536 0 0 526 0 0 529 0 0 522 0 0 548 0 0 519 0 0 527 0 0 544 0 0 528 0 0 525 0 0 516 0 0 551 0 0 545 0 0 569 0 0 554 0 0 555 0 0 554 0 0 530 0 0 521 0 0 524 0 0 548 0 0 569 0 0 532 0 0 545 0 0 523 0 0 563 0 0 528 0 0 510 0 0 548 0 0 499 0 0 540 0 0 475 0 0 482 0 0 493 0 0 499 0 0 261 0 0 72 0 0 52 0 0 61 0 0 42 0 0 39 0 0 32 0 0 25 0 0 25 0 0 20 0 0 
5 0 0 22 0 0 23 0 0 31 0 0 29 0 0 34 0 0 46 0 0 52 0 0 61 0 0 66 0 0 272 0 0 458 0 0 500 0 0 515 0 0 489 0 0 530 0 0 491 0 0 530 0 0 516 0 0 535 0 0 514 0 0 537 0 0 506 0 0 536 0 0 512 0 0 527 0 0 520 0 0 514 0 0 518 0 0 544 0 0 510 0 0 541 0 0 548 0 0 575 0 0 519 0 0 504 0 0 586 0 0 557 0 0 503 0 0 516 0 0 529 0 0 502 0 0 566 0 0 514 0 0 499 0 0 477 0 0 494 0 0 516 0 0 497 0 0 466 0 0 263 0 0 77 0 0 63 0 0 47 0 0 48 0 0 46 0 0 41 0 0 28 0 0 28 0 0 20 0 0 
9 0 0 27 0 0 22 0 0 31 0 0 38 0 0 44 0 0 50 0 0 48 0 0 59 0 0 72 0 0 277 0 0 451 0 0 476 0 0 516 0 0 543 0 0 529 0 0 501 0 0 497 0 0 567 0 0 521 0 0 548 0 0 531 0 0 529 0 0 561 0 0 573 0 0 526 0 0 517 0 0 544 0 0 563 0 0 543 0 0 562 0 0 549 0 0 555 0 0 506 0 0 539 0 0 532 0 0 522 0 0 531 0 0 535 0 0 523 0 0 538 0 0 520 0 0 559 0 0 535 0 0 513 0 0 501 0 0 513 0 0 503 0 0 492 0 0 489 0 0 269 0 0 68 0 0 60 0 0 49 0 0 47 0 0 40 0 0 33 0 0 29 0 0 28 0 0 22 0 0 
6 0 0 21 0 0 22 0 0 29 0 0 32 0 0 34 0 0 44 0 0 42 0 0 63 0 0 69 0 0 277 0 0 456 0 0 478 0 0 500 0 0 484 0 0 515 0 0 538 0 0 532 0 0 482 0 0 520 0 0 543 0 0 507 0 0 550 0 0 530 0 0 522 0 0 522 0 0 530 0 0 490 0 0 551 0 0 552 0 0 539 0 0 536 0 0 507 0 0 550 0 0 574 0 0 531 0 0 521 0 0 543 0 0 577 0 0 550 0 0 501 0 0 496 0 0 542 0 0 546 0 0 566 0 0 546 0 0 511 0 0 478 0 0 501 0 0 468 0 0 276 0 0 60 0 0 54 0 0 46 0 0 44 0 0 38 0 0 35 0 0 31 0 0 29 0 0 22 0 0 
7 0 0 21 0 0 29 0 0 29 0 0 34 0 0 36 0 0 49 0 0 52 0 0 60 0 0 76 0 0 255 0 0 474 0 0 499 0 0 468 0 0 500 0 0 548 0 0 512 0 0 507 0 0 496 0 0 510 0 0 537 0 0 544 0 0 544 0 0 552 0 0 534 0 0 528 0 0 507 0 0 565 0 0 529 0 0 525 0 0 538 0 0 552 0 0 575 0 0 514 0 0 521 0 0 516 0 0 501 0 0 563 0 0 538 0 0 526 0 0 524 0 0 548 0 0 537 0 0 519 0 0 514 0 0 512 0 0 498 0 0 496 0 0 511 0 0 483 0 0 274 0 0 69 0 0 59 0 0 55 0 0 43 0 0 36 0 0 29 0 0 32 0 0 28 0 0 22 0 0 
9 0 0 24 0 0 31 0 0 27 0 0 32 0 0 44 0 0 40 0 0 44 0 0 58 0 0 77 0 0 298 0 0 485 0 0 484 0 0 503 0 0 488 0 0 544 0 0 520 0 0 525 0 0 520 0 0 485 0 0 519 0 0 550 0 0 513 0 0 519 0 0 586 0 0 531 0 0 563 0 0 564 0 0 533 0 0 506 0 0 541 0 0 515 0 0 515 0 0 531 0 0 536 0 0 531 0 0 544 0 0 547 0 0 570 0 0 538 0 0 546 0 0 542 0 0 521 0 0 544 0 0 500 0 0 541 0 0 516 0 0 484 0 0 470 0 0 462 0 0 285 0 0 63 0 0 57 0 0 44 0 0 39 0 0 39 0 0 34 0 0 27 0 0 26 0 0 21 0 0 
7 0 0 21 0 0 29 0 0 28 0 0 32 0 0 35 0 0 43 0 0 47 0 0 67 0 0 69 0 0 265 0 0 468 0 0 500 0 0 531 0 0 505 0 0 514 0 0 490 0 0 512 0 0 510 0 0 502 0 0 515 0 0 518 0 0 539 0 0 571 0 0 555 0 0 541 0 0 545 0 0 562 0 0 536 0 0 503 0 0 558 0 0 533 0 0 552 0 0 537 0 0 532 0 0 544 0 0 513 0 0 552 0 0 526 0 0 513 0 0 552 0 0 533 0 0 507 0 0 532 0 0 515 0 0 546 0 0 504 0 0 512 0 0 539 0 0 436 0 0 283 0 0 67 0 0 59 0 0 52 0 0 39 0 0 36 0 0 33 0 0 30 0 0 24 0 0 21 0 0 
7 0 0 19 0 0 25 0 0 27 0 0 33 0 0 35 0 0 41 0 0 43 0 0 62 0 0 66 0 0 279 0 0 458 0 0 518 0 0 474 0 0 545 0 0 527 0 0 511 0 0 514 0 0 505 0 0 542 0 0 490 0 0 523 0 0 535 0 0 532 0 0 553 0 0 525 0 0 536 0 0 519 0 0 528 0 0 546 0 0 517 0 0 505 0 0 518 0 0 540 0 0 532 0 0 571 0 0 514 0 0 503 0 0 504 0 0 546 0 0 540 0 0 496 0 0 523 0 0 542 0 0 497 0 0 500 0 0 514 0 0 499 0 0 485 0 0 467 0 0 266 0 0 75 0 0 56 0 0 44 0 0 48 0 0 40 0 0 31 0 0 25 0 0 22 0 0 21 0 0 
7 0 0 20 0 0 24 0 0 29 0 0 27 0 0 39 0 0 41 0 0 50 0 0 64 0 0 50 0 0 270 0 0 480 0 0 518 0 0 483 0 0 493 0 0 482 0 0 527 0 0 501 0 0 513 0 0 525 0 0 530 0 0 550 0 0 517 0 0 532 0 0 502 0 0 545 0 0 548 0 0 567 0 0 534 0 0 539 0 0 535 0 0 550 0 0 501 0 0 538 0 0 557 0 0 546 0 0 510 0 0 556 0 0 529 0 0 536 0 0 519 0 0 529 0 0 484 0 0 512 0 0 527 0 0 475 0 0 545 0 0 481 0 0 490 0 0 453 0 0 273 0 0 67 0 0 54 0 0 51 0 0 47 0 0 35 0 0 30 0 0 22 0 0 19 0 0 20 0 0 
7 0 0 25 0 0 20 0 0 30 0 0 30 0 0 31 0 0 37 0 0 40 0 0 54 0 0 60 0 0 261 0 0 451 0 0 474 0 0 471 0 0 513 0 0 525 0 0 544 0 0 520 0 0 555 0 0 487 0 0 551 0 0 534 0 0 511 0 0 553 0 0 516 0 0 530 0 0 548 0 0 489 0 0 523 0 0 530 0 0 510 0 0 519 0 0 532 0 0 521 0 0 536 0 0 524 0 0 521 0 0 519 0 0 528 0 0 508 0 0 497 0 0 528 0 0 534 0 0 507 0 0 502 0 0 510 0 0 552 0 0 466 0 0 532 0 0 468 0 0 267 0 0 57 0 0 49 0 0 46 0 0 34 0 0 39 0 0 33 0 0 25 0 0 22 0 0 23 0 0 
8 0 0 20 0 0 21 0 0 26 0 0 32 0 0 34 0 0 32 0 0 44 0 0 59 0 0 67 0 0 290 0 0 491 0 0 497 0 0 510 0 0 484 0 0 497 0 0 494 0 0 519 0 0 530 0 0 533 0 0 495 0 0 510 0 0 533 0 0 550 0 0 504 0 0 534 0 0 548 0 0 529 0 0 550 0 0 495 0 0 513 0 0 539 0 0 517 0 0 537 0 0 523 0 0 526 0 0 548 0 0 516 0 0 513 0 0 513 0 0 517 0 0 515 0 0 532 0 0 503 0 0 494 0 0 536 0 0 499 0 0 498 0 0 462 0 0 443 0 0 279 0 0 73 0 0 57 0 0 47 0 0 40 0 0 27 0 0 32 0 0 27 0 0 21 0 0 21 0 0 
6 0 0 17 0 0 24 0 0 21 0 0 29 0 0 29 0 0 35 0 0 38 0 0 50 0 0 64 0 0 253 0 0 469 0 0 476 0 0 492 0 0 508 0 0 502 0 0 509 0 0 494 0 0 516 0 0 529 0 0 505 0 0 509 0 0 537 0 0 560 0 0 514 0 0 519 0 0 523 0 0 560 0 0 511 0 0 526 0 0 522 0 0 519 0 0 506 0 0 535 0 0 553 0 0 536 0 0 511 0 0 505 0 0 520 0 0 527 0 0 516 0 0 542 0 0 493 0 0 456 0 0 557 0 0 472 0 0 508 0 0 490 0 0 474 0 0 481 0 0 269 0 0 57 0 0 43 0 0 47 0 0 34 0 0 35 0 0 31 0 0 28 0 0 22 0 0 16 0 0 
7 0 0 18 0 0 17 0 0 23 0 0 25 0 0 32 0 0 38 0 0 39 0 0 43 0 0 58 0 0 247 0 0 462 0 0 497 0 0 519 0 0 525 0 0 503 0 0 476 0 0 468 0 0 511 0 0 498 0 0 533 0 0 548 0 0 550 0 0 488 0 0 527 0 0 516 0 0 495 0 0 484 0 0 530 0 0 503 0 0 521 0 0 535 0 0 530 0 0 510 0 0 528 0 0 515 0 0 552 0 0 507 0 0 530 0 0 515 0 0 491 0 0 523 0 0 484 0 0 513 0 0 494 0 0 495 0 0 521 0 0 456 0 0 458 0 0 463 0 0 249 0 0 63 0 0 50 0 0 43 0 0 31 0 0 28 0 0 23 0 0 22 0 0 19 0 0 20 0 0 
5 0 0 19 0 0 16 0 0 28 0 0 25 0 0 25 0 0 41 0 0 38 0 0 40 0 0 53 0 0 242 0 0 449 0 0 434 0 0 456 0 0 467 0 0 500 0 0 499 0 0 473 0 0 457 0 0 507 0 0 543 0 0 536 0 0 491 0 0 540 0 0 542 0 0 528 0 0 501 0 0 497 0 0 557 0 0 486 0 0 509 0 0 507 0 0 509 0 0 534 0 0 501 0 0 499 0 0 517 0 0 517 0 0 511 0 0 508 0 0 521 0 0 498 0 0 516 0 0 537 0 0 483 0 0 505 0 0 488 0 0 476 0 0 436 0 0 454 0 0 256 0 0 62 0 0 46 0 0 43 0 0 37 0 0 31 0 0 29 0 0 23 0 0 19 0 0 16 0 0 
7 0 0 18 0 0 17 0 0 20 0 0 28 0 0 28 0 0 29 0 0 35 0 0 48 0 0 53 0 0 251 0 0 447 0 0 483 0 0 483 0 0 496 0 0 498 0 0 490 0 0 488 0 0 504 0 0 525 0 0 536 0 0 516 0 0 512 0 0 470 0 0 548 0 0 535 0 0 520 0 0 484 0 0 524 0 0 512 0 0 506 0 0 525 0 0 464 0 0 528 0 0 512 0 0 522 0 0 480 0 0 498 0 0 502 0 0 516 0 0 496 0 0 510 0 0 478 0 0 475 0 0 478 0 0 478 0 0 465 0 0 493 0 0 480 0 0 419 0 0 242 0 0 56 0 0 50 0 0 40 0 0 36 0 0 30 0 0 21 0 0 26 0 0 17 0 0 15 0 0 
7 0 0 19 0 0 19 0 0 24 0 0 23 0 0 26 0 0 29 0 0 33 0 0 37 0 0 61 0 0 274 0 0 501 0 0 443 0 0 498 0 0 471 0 0 496 0 0 472 0 0 473 0 0 470 0 0 511 0 0 484 0 0 455 0 0 492 0 0 488 0 0 488 0 0 482 0 0 470 0 0 521 0 0 491 0 0 513 0 0 515 0 0 509 0 0 494 0 0 515 0 0 516 0 0 484 0 0 504 0 0 479 0 0 512 0 0 504 0 0 472 0 0 464 0 0 468 0 0 524 0 0 473 0 0 491 0 0 484 0 0 458 0 0 467 0 0 410 0 0 218 0 0 54 0 0 48 0 0 40 0 0 32 0 0 27 0 0 23 0 0 17 0 0 17 0 0 14 0 0 
5 0 0 15 0 0 18 0 0 19 0 0 23 0 0 27 0 0 27 0 0 35 0 0 38 0 0 52 0 0 257 0 0 459 0 0 440 0 0 450 0 0 480 0 0 445 0 0 488 0 0 493 0 0 497 0 0 472 0 0 530 0 0 521 0 0 494 0 0 490 0 0 462 0 0 457 0 0 546 0 0 500 0 0 526 0 0 512 0 0 476 0 0 511 0 0 495 0 0 499 0 0 488 0 0 484 0 0 503 0 0 460 0 0 521 0 0 507 0 0 511 0 0 462 0 0 480 0 0 471 0 0 486 0 0 494 0 0 458 0 0 500 0 0 475 0 0 493 0 0 254 0 0 57 0 0 52 0 0 33 0 0 29 0 0 22 0 0 20 0 0 21 0 0 18 0 0 12 0 0 
3 0 0 16 0 0 18 0 0 18 0 0 20 0 0 20 0 0 31 0 0 35 0 0 44 0 0 44 0 0 240 0 0 427 0 0 478 0 0 461 0 0 451 0 0 462 0 0 456 0 0 475 0 0 489 0 0 478 0 0 489 0 0 450 0 0 491 0 0 468 0 0 460 0 0 500 0 0 476 0 0 475 0 0 511 0 0 495 0 0 516 0 0 450 0 0 451 0 0 483 0 0 454 0 0 476 0 0 494 0 0 458 0 0 479 0 0 481 0 0 485 0 0 454 0 0 506 0 0 480 0 0 443 0 0 487 0 0 479 0 0 456 0 0 413 0 0 426 0 0 234 0 0 50 0 0 39 0 0 35 0 0 31 0 0 23 0 0 22 0 0 24 0 0 17 0 0 14 0 0 
5 0 0 17 0 0 15 0 0 18 0 0 16 0 0 21 0 0 26 0 0 30 0 0 33 0 0 42 0 0 139 0 0 246 0 0 302 0 0 255 0 0 255 0 0 261 0 0 273 0 0 268 0 0 275 0 0 257 0 0 289 0 0 259 0 0 265 0 0 303 0 0 272 0 0 288 0 0 269 0 0 290 0 0 290 0 0 272 0 0 285 0 0 273 0 0 287 0 0 267 0 0 286 0 0 275 0 0 278 0 0 275 0 0 293 0 0 266 0 0 282 0 0 267 0 0 240 0 0 282 0 0 247 0 0 262 0 0 250 0 0 258 0 0 246 0 0 236 0 0 128 0 0 40 0 0 35 0 0 30 0 0 32 0 0 25 0 0 20 0 0 17 0 0 13 0 0 11 0 0 
4 0 0 13 0 0 19 0 0 18 0 0 17 0 0 22 0 0 29 0 0 25 0 0 28 0 0 39 0 0 49 0 0 41 0 0 46 0 0 46 0 0 62 0 0 59 0 0 53 0 0 62 0 0 67 0 0 76 0 0 63 0 0 76 0 0 78 0 0 76 0 0 59 0 0 64 0 0 72 0 0 73 0 0 68 0 0 84 0 0 74 0 0 76 0 0 71 0 0 73 0 0 68 0 0 73 0 0 75 0 0 67 0 0 68 0 0 69 0 0 61 0 0 66 0 0 65 0 0 66 0 0 57 0 0 61 0 0 56 0 0 62 0 0 47 0 0 44 0 0 42 0 0 37 0 0 35 0 0 26 0 0 23 0 0 16 0 0 18 0 0 18 0 0 12 0 0 13 0 0 
5 0 0 11 0 0 13 0 0 17 0 0 16 0 0 20 0 0 22 0 0 21 0 0 28 0 0 26 0 0 31 0 0 30 0 0 38 0 0 41 0 0 41 0 0 43 0 0 45 0 0 44 0 0 55 0 0 52 0 0 60 0 0 56 0 0 56 0 0 59 0 0 54 0 0 65 0 0 61 0 0 60 0 0 54 0 0 64 0 0 55 0 0 53 0 0 59 0 0 70 0 0 62 0 0 67 0 0 56 0 0 50 0 0 70 0 0 51 0 0 59 0 0 49 0 0 62 0 0 54 0 0 58 0 0 50 0 0 46 0 0 49 0 0 36 0 0 33 0 0 46 0 0 28 0 0 32 0 0 27 0 0 19 0 0 20 0 0 18 0 0 17 0 0 17 0 0 12 0 0 
5 0 0 13 0 0 10 0 0 12 0 0 17 0 0 14 0 0 18 0 0 15 0 0 23 0 0 32 0 0 30 0 0 29 0 0 30 0 0 44 0 0 36 0 0 39 0 0 39 0 0 47 0 0 37 0 0 52 0 0 44 0 0 50 0 0 51 0 0 46 0 0 49 0 0 51 0 0 48 0 0 51 0 0 51 0 0 54 0 0 48 0 0 52 0 0 47 0 0 47 0 0 42 0 0 53 0 0 59 0 0 48 0 0 49 0 0 43 0 0 49 0 0 47 0 0 47 0 0 42 0 0 39 0 0 43 0 0 40 0 0 36 0 0 28 0 0 33 0 0 30 0 0 23 0 0 30 0 0 22 0 0 21 0 0 23 0 0 20 0 0 14 0 0 14 0 0 11 0 0 
3 0 0 9 0 0 14 0 0 12 0 0 19 0 0 14 0 0 18 0 0 19 0 0 19 0 0 20 0 0 24 0 0 22 0 0 28 0 0 40 0 0 31 0 0 33 0 0 38 0 0 39 0 0 43 0 0 39 0 0 42 0 0 40 0 0 43 0 0 38 0 0 43 0 0 43 0 0 42 0 0 45 0 0 41 0 0 46 0 0 46 0 0 50 0 0 45 0 0 44 0 0 46 0 0 42 0 0 51 0 0 40 0 0 40 0 0 38 0 0 45 0 0 37 0 0 37 0 0 36 0 0 38 0 0 32 0 0 33 0 0 29 0 0 31 0 0 20 0 0 24 0 0 21 0 0 21 0 0 18 0 0 18 0 0 15 0 0 14 0 0 12 0 0 9 0 0 12 0 0 
3 0 0 8 0 0 10 0 0 10 0 0 13 0 0 19 0 0 16 0 0 15 0 0 18 0 0 21 0 0 26 0 0 25 0 0 27 0 0 28 0 0 31 0 0 35 0 0 30 0 0 30 0 0 32 0 0 30 0 0 32 0 0 28 0 0 33 0 0 37 0 0 36 0 0 39 0 0 35 0 0 40 0 0 39 0 0 37 0 0 47 0 0 33 0 0 33 0 0 48 0 0 35 0 0 39 0 0 41 0 0 38 0 0 37 0 0 39 0 0 37 0 0 31 0 0 31 0 0 34 0 0 32 0 0 33 0 0 31 0 0 24 0 0 27 0 0 32 0 0 24 0 0 18 0 0 19 0 0 18 0 0 14 0 0 19 0 0 15 0 0 8 0 0 11 0 0 10 0 0 
3 0 0 10 0 0 10 0 0 10 0 0 12 0 0 12 0 0 16 0 0 15 0 0 17 0 0 22 0 0 21 0 0 16 0 0 22 0 0 24 0 0 22 0 0 26 0 0 25 0 0 35 0 0 27 0 0 27 0 0 30 0 0 30 0 0 27 0 0 24 0 0 31 0 0 33 0 0 28 0 0 33 0 0 25 0 0 31 0 0 34 0 0 34 0 0 30 0 0 31 0 0 31 0 0 29 0 0 34 0 0 29 0 0 34 0 0 28 0 0 28 0 0 30 0 0 28 0 0 30 0 0 31 0 0 21 0 0 30 0 0 23 0 0 18 0 0 18 0 0 17 0 0 18 0 0 20 0 0 14 0 0 13 0 0 14 0 0 11 0 0 10 0 0 9 0 0 9 0 0 
4 0 0 9 0 0 8 0 0 9 0 0 10 0 0 11 0 0 14 0 0 15 0 0 15 0 0 16 0 0 15 0 0 17 0 0 22 0 0 16 0 0 24 0 0 21 0 0 26 0 0 26 0 0 26 0 0 20 0 0 26 0 0 27 0 0 23 0 0 26 0 0 28 0 0 30 0 0 23 0 0 23 0 0 28 0 0 27 0 0 33 0 0 36 0 0 30 0 0 28 0 0 27 0 0 24 0 0 29 0 0 25 0 0 31 0 0 28 0 0 26 0 0 23 0 0 27 0 0 28 0 0 22 0 0 22 0 0 21 0 0 22 0 0 20 0 0 20 0 0 16 0 0 13 0 0 18 0 0 12 0 0 13 0 0 9 0 0 11 0 0 8 0 0 7 0 0 11 0 0 
2 0 0 6 0 0 6 0 0 7 0 0 13 0 0 11 0 0 10 0 0 11 0 0 12 0 0 16 0 0 15 0 0 22 0 0 19 0 0 18 0 0 23 0 0 23 0 0 24 0 0 22 0 0 22 0 0 22 0 0 27 0 0 23 0 0 20 0 0 28 0 0 29 0 0 26 0 0 25 0 0 26 0 0 26 0 0 26 0 0 26 0 0 22 0 0 26 0 0 28 0 0 25 0 0 26 0 0 27 0 0 27 0 0 25 0 0 26 0 0 27 0 0 25 0 0 26 0 0 27 0 0 23 0 0 21 0 0 18 0 0 17 0 0 20 0 0 14 0 0 17 0 0 14 0 0 14 0 0 12 0 0 11 0 0 9 0 0 11 0 0 9 0 0 7 0 0 10 0 0 
3 0 0 6 0 0 7 0 0 6 0 0 10 0 0 10 0 0 10 0 0 8 0 0 16 0 0 10 0 0 13 0 0 14 0 0 17 0 0 14 0 0 15 0 0 17 0 0 15 0 0 19 0 0 20 0 0 17 0 0 20 0 0 20 0 0 20 0 0 23 0 0 23 0 0 18 0 0 22 0 0 14 0 0 21 0 0 22 0 0 19 0 0 21 0 0 27 0 0 24 0 0 20 0 0 20 0 0 21 0 0 19 0 0 21 0 0 20 0 0 21 0 0 25 0 0 21 0 0 19 0 0 15 0 0 16 0 0 15 0 0 18 0 0 21 0 0 14 0 0 14 0 0 13 0 0 9 0 0 10 0 0 9 0 0 10 0 0 7 0 0 7 0 0 9 0 0 7 0 0 
