P3
# This is a dose file slice at depth 7 of 100
60 60
# now we give the maximum value of the RGB coordinates.
6518
15 0 0 30 0 0 34 0 0 47 0 0 41 0 0 38 0 0 39 0 0 35 0 0 50 0 0 50 0 0 59 0 0 61 0 0 54 0 0 72 0 0 54 0 0 67 0 0 66 0 0 48 0 0 73 0 0 61 0 0 61 0 0 77 0 0 76 0 0 94 0 0 75 0 0 65 0 0 79 0 0 82 0 0 75 0 0 85 0 0 65 0 0 88 0 0 85 0 0 78 0 0 78 0 0 63 0 0 94 0 0 73 0 0 67 0 0 80 0 0 75 0 0 73 0 0 65 0 0 77 0 0 62 0 0 66 0 0 70 0 0 52 0 0 63 0 0 69 0 0 54 0 0 54 0 0 41 0 0 50 0 0 45 0 0 40 0 0 34 0 0 55 0 0 44 0 0 29 0 0 
27 0 0 66 0 0 84 0 0 71 0 0 81 0 0 67 0 0 106 0 0 94 0 0 108 0 0 118 0 0 119 0 0 91 0 0 136 0 0 138 0 0 151 0 0 132 0 0 143 0 0 160 0 0 149 0 0 154 0 0 166 0 0 167 0 0 166 0 0 195 0 0 171 0 0 176 0 0 148 0 0 174 0 0 155 0 0 170 0 0 177 0 0 174 0 0 159 0 0 170 0 0 161 0 0 192 0 0 168 0 0 165 0 0 166 0 0 167 0 0 177 0 0 153 0 0 127 0 0 163 0 0 135 0 0 135 0 0 137 0 0 113 0 0 151 0 0 114 0 0 130 0 0 117 0 0 103 0 0 93 0 0 68 0 0 67 0 0 57 0 0 75 0 0 65 0 0 61 0 0 
26 0 0 69 0 0 74 0 0 81 0 0 73 0 0 105 0 0 95 0 0 111 0 0 117 0 0 118 0 0 145 0 0 142 0 0 131 0 0 171 0 0 139 0 0 151 0 0 167 0 0 178 0 0 168 0 0 179 0 0 187 0 0 179 0 0 186 0 0 175 0 0 204 0 0 187 0 0 168 0 0 193 0 0 233 0 0 225 0 0 195 0 0 205 0 0 193 0 0 208 0 0 199 0 0 202 0 0 181 0 0 186 0 0 193 0 0 159 0 0 184 0 0 190 0 0 167 0 0 185 0 0 149 0 0 168 0 0 168 0 0 159 0 0 136 0 0 147 0 0 112 0 0 133 0 0 118 0 0 114 0 0 96 0 0 94 0 0 88 0 0 90 0 0 74 0 0 79 0 0 
22 0 0 68 0 0 64 0 0 69 0 0 108 0 0 100 0 0 95 0 0 122 0 0 120 0 0 125 0 0 127 0 0 155 0 0 147 0 0 146 0 0 152 0 0 196 0 0 186 0 0 197 0 0 206 0 0 199 0 0 216 0 0 204 0 0 198 0 0 215 0 0 234 0 0 236 0 0 223 0 0 231 0 0 237 0 0 216 0 0 214 0 0 232 0 0 246 0 0 233 0 0 219 0 0 230 0 0 213 0 0 249 0 0 206 0 0 211 0 0 185 0 0 179 0 0 176 0 0 197 0 0 181 0 0 203 0 0 171 0 0 167 0 0 146 0 0 143 0 0 136 0 0 126 0 0 100 0 0 108 0 0 91 0 0 93 0 0 91 0 0 85 0 0 77 0 0 70 0 0 
38 0 0 86 0 0 75 0 0 91 0 0 99 0 0 101 0 0 103 0 0 117 0 0 157 0 0 145 0 0 129 0 0 164 0 0 202 0 0 191 0 0 182 0 0 193 0 0 224 0 0 227 0 0 220 0 0 226 0 0 238 0 0 239 0 0 236 0 0 263 0 0 243 0 0 250 0 0 261 0 0 230 0 0 263 0 0 246 0 0 241 0 0 224 0 0 249 0 0 245 0 0 282 0 0 246 0 0 244 0 0 242 0 0 259 0 0 234 0 0 227 0 0 235 0 0 217 0 0 217 0 0 209 0 0 202 0 0 194 0 0 160 0 0 168 0 0 158 0 0 152 0 0 167 0 0 131 0 0 142 0 0 109 0 0 102 0 0 97 0 0 88 0 0 79 0 0 77 0 0 
39 0 0 83 0 0 108 0 0 108 0 0 104 0 0 138 0 0 160 0 0 137 0 0 142 0 0 162 0 0 191 0 0 209 0 0 226 0 0 227 0 0 249 0 0 244 0 0 258 0 0 242 0 0 271 0 0 280 0 0 253 0 0 266 0 0 302 0 0 250 0 0 264 0 0 296 0 0 317 0 0 280 0 0 286 0 0 286 0 0 309 0 0 285 0 0 291 0 0 315 0 0 285 0 0 288 0 0 280 0 0 258 0 0 298 0 0 287 0 0 259 0 0 274 0 0 265 0 0 247 0 0 239 0 0 273 0 0 231 0 0 236 0 0 221 0 0 175 0 0 189 0 0 167 0 0 146 0 0 134 0 0 148 0 0 122 0 0 121 0 0 112 0 0 93 0 0 90 0 0 
57 0 0 77 0 0 110 0 0 116 0 0 105 0 0 125 0 0 139 0 0 156 0 0 183 0 0 189 0 0 193 0 0 227 0 0 240 0 0 279 0 0 241 0 0 272 0 0 280 0 0 287 0 0 306 0 0 300 0 0 331 0 0 324 0 0 335 0 0 341 0 0 335 0 0 343 0 0 342 0 0 354 0 0 344 0 0 294 0 0 327 0 0 382 0 0 360 0 0 334 0 0 347 0 0 311 0 0 328 0 0 320 0 0 354 0 0 341 0 0 294 0 0 316 0 0 319 0 0 320 0 0 280 0 0 283 0 0 281 0 0 242 0 0 220 0 0 213 0 0 204 0 0 201 0 0 167 0 0 149 0 0 131 0 0 127 0 0 116 0 0 114 0 0 109 0 0 103 0 0 
43 0 0 76 0 0 81 0 0 107 0 0 118 0 0 129 0 0 149 0 0 181 0 0 220 0 0 217 0 0 247 0 0 266 0 0 273 0 0 294 0 0 325 0 0 318 0 0 344 0 0 335 0 0 367 0 0 398 0 0 354 0 0 387 0 0 422 0 0 369 0 0 390 0 0 417 0 0 418 0 0 405 0 0 423 0 0 421 0 0 419 0 0 421 0 0 416 0 0 391 0 0 389 0 0 390 0 0 400 0 0 381 0 0 404 0 0 392 0 0 385 0 0 370 0 0 364 0 0 350 0 0 349 0 0 326 0 0 337 0 0 291 0 0 247 0 0 252 0 0 232 0 0 240 0 0 203 0 0 173 0 0 163 0 0 157 0 0 130 0 0 111 0 0 93 0 0 106 0 0 
50 0 0 112 0 0 101 0 0 138 0 0 122 0 0 143 0 0 177 0 0 186 0 0 237 0 0 239 0 0 291 0 0 293 0 0 348 0 0 339 0 0 411 0 0 407 0 0 427 0 0 434 0 0 439 0 0 452 0 0 457 0 0 453 0 0 475 0 0 481 0 0 502 0 0 480 0 0 489 0 0 481 0 0 496 0 0 483 0 0 510 0 0 473 0 0 535 0 0 514 0 0 510 0 0 490 0 0 483 0 0 484 0 0 486 0 0 476 0 0 474 0 0 448 0 0 439 0 0 432 0 0 414 0 0 409 0 0 388 0 0 374 0 0 371 0 0 287 0 0 292 0 0 220 0 0 233 0 0 198 0 0 164 0 0 157 0 0 180 0 0 116 0 0 110 0 0 125 0 0 
57 0 0 117 0 0 111 0 0 130 0 0 170 0 0 152 0 0 188 0 0 237 0 0 228 0 0 316 0 0 367 0 0 421 0 0 410 0 0 489 0 0 502 0 0 523 0 0 560 0 0 528 0 0 556 0 0 593 0 0 556 0 0 602 0 0 613 0 0 649 0 0 643 0 0 635 0 0 658 0 0 641 0 0 648 0 0 621 0 0 637 0 0 639 0 0 605 0 0 593 0 0 644 0 0 625 0 0 628 0 0 641 0 0 642 0 0 559 0 0 613 0 0 596 0 0 565 0 0 596 0 0 548 0 0 486 0 0 466 0 0 486 0 0 433 0 0 419 0 0 370 0 0 308 0 0 250 0 0 185 0 0 196 0 0 180 0 0 145 0 0 125 0 0 104 0 0 97 0 0 
58 0 0 102 0 0 131 0 0 145 0 0 151 0 0 177 0 0 188 0 0 223 0 0 271 0 0 329 0 0 1549 0 0 2853 0 0 2921 0 0 2977 0 0 2992 0 0 3077 0 0 3043 0 0 2959 0 0 3148 0 0 3010 0 0 3181 0 0 3098 0 0 3157 0 0 3143 0 0 3077 0 0 3151 0 0 3060 0 0 3124 0 0 3155 0 0 3196 0 0 3205 0 0 3053 0 0 3197 0 0 3130 0 0 3077 0 0 3163 0 0 3206 0 0 3163 0 0 3153 0 0 3077 0 0 3148 0 0 3096 0 0 3112 0 0 3082 0 0 2997 0 0 3055 0 0 3034 0 0 3059 0 0 2894 0 0 2812 0 0 1558 0 0 357 0 0 287 0 0 216 0 0 201 0 0 192 0 0 154 0 0 150 0 0 122 0 0 120 0 0 
51 0 0 130 0 0 149 0 0 134 0 0 181 0 0 194 0 0 207 0 0 285 0 0 321 0 0 419 0 0 2932 0 0 5452 0 0 5367 0 0 5427 0 0 5563 0 0 5487 0 0 5613 0 0 5727 0 0 5622 0 0 5629 0 0 5599 0 0 5561 0 0 5600 0 0 5647 0 0 5627 0 0 5710 0 0 5686 0 0 5753 0 0 5553 0 0 5606 0 0 5589 0 0 5563 0 0 5769 0 0 5594 0 0 5574 0 0 5594 0 0 5536 0 0 5614 0 0 5721 0 0 5535 0 0 5666 0 0 5506 0 0 5591 0 0 5581 0 0 5520 0 0 5521 0 0 5459 0 0 5446 0 0 5504 0 0 5430 0 0 2832 0 0 391 0 0 304 0 0 268 0 0 231 0 0 169 0 0 168 0 0 116 0 0 125 0 0 135 0 0 
53 0 0 129 0 0 142 0 0 160 0 0 174 0 0 208 0 0 228 0 0 269 0 0 329 0 0 463 0 0 2995 0 0 5469 0 0 5505 0 0 5635 0 0 5657 0 0 5482 0 0 5746 0 0 5679 0 0 5660 0 0 5665 0 0 5622 0 0 5758 0 0 5719 0 0 5719 0 0 5727 0 0 5788 0 0 5678 0 0 5614 0 0 5652 0 0 5836 0 0 5778 0 0 5886 0 0 5748 0 0 5910 0 0 5735 0 0 5649 0 0 5846 0 0 5765 0 0 5601 0 0 5633 0 0 5661 0 0 5803 0 0 5749 0 0 5535 0 0 5662 0 0 5579 0 0 5560 0 0 5550 0 0 5465 0 0 5440 0 0 2981 0 0 462 0 0 345 0 0 284 0 0 217 0 0 233 0 0 170 0 0 163 0 0 150 0 0 129 0 0 
53 0 0 139 0 0 127 0 0 170 0 0 188 0 0 189 0 0 277 0 0 284 0 0 343 0 0 551 0 0 3044 0 0 5493 0 0 5677 0 0 5636 0 0 5685 0 0 5707 0 0 5687 0 0 5788 0 0 5754 0 0 5813 0 0 5836 0 0 5825 0 0 5793 0 0 5730 0 0 5849 0 0 5700 0 0 5836 0 0 5798 0 0 5842 0 0 5732 0 0 5807 0 0 5876 0 0 5843 0 0 5736 0 0 5754 0 0 5897 0 0 5802 0 0 5919 0 0 5899 0 0 6013 0 0 5841 0 0 5851 0 0 5772 0 0 5802 0 0 5752 0 0 5735 0 0 5700 0 0 5647 0 0 5561 0 0 5620 0 0 3033 0 0 451 0 0 356 0 0 264 0 0 236 0 0 207 0 0 182 0 0 158 0 0 136 0 0 115 0 0 
67 0 0 134 0 0 156 0 0 153 0 0 182 0 0 249 0 0 250 0 0 327 0 0 401 0 0 506 0 0 2968 0 0 5320 0 0 5661 0 0 5606 0 0 5656 0 0 5901 0 0 5803 0 0 5854 0 0 5828 0 0 5916 0 0 5954 0 0 6053 0 0 5870 0 0 5954 0 0 6004 0 0 5880 0 0 5938 0 0 5963 0 0 5908 0 0 5960 0 0 5863 0 0 6011 0 0 5894 0 0 5984 0 0 5825 0 0 5750 0 0 5951 0 0 5763 0 0 5942 0 0 5797 0 0 5956 0 0 5905 0 0 5853 0 0 5851 0 0 5742 0 0 5807 0 0 5812 0 0 5795 0 0 5514 0 0 5578 0 0 2943 0 0 493 0 0 381 0 0 309 0 0 304 0 0 219 0 0 199 0 0 189 0 0 157 0 0 116 0 0 
64 0 0 158 0 0 184 0 0 159 0 0 202 0 0 244 0 0 239 0 0 349 0 0 431 0 0 565 0 0 3037 0 0 5548 0 0 5695 0 0 5725 0 0 5712 0 0 5711 0 0 6036 0 0 5863 0 0 5944 0 0 5848 0 0 5726 0 0 5975 0 0 6003 0 0 5910 0 0 6018 0 0 5968 0 0 5938 0 0 5946 0 0 5836 0 0 5911 0 0 6073 0 0 6014 0 0 6033 0 0 5935 0 0 5891 0 0 5952 0 0 6024 0 0 5860 0 0 5956 0 0 5997 0 0 6019 0 0 5795 0 0 5900 0 0 5724 0 0 5936 0 0 5765 0 0 5657 0 0 5588 0 0 5512 0 0 5606 0 0 3016 0 0 540 0 0 413 0 0 357 0 0 272 0 0 243 0 0 229 0 0 167 0 0 155 0 0 148 0 0 
79 0 0 138 0 0 166 0 0 204 0 0 191 0 0 253 0 0 324 0 0 312 0 0 398 0 0 542 0 0 3118 0 0 5477 0 0 5707 0 0 5702 0 0 5732 0 0 5852 0 0 5860 0 0 5865 0 0 5988 0 0 6012 0 0 5934 0 0 5836 0 0 5809 0 0 5925 0 0 5944 0 0 6019 0 0 6098 0 0 5963 0 0 5994 0 0 6030 0 0 5985 0 0 5870 0 0 6025 0 0 6024 0 0 5941 0 0 5901 0 0 6112 0 0 5976 0 0 6067 0 0 5955 0 0 5919 0 0 5953 0 0 5930 0 0 5827 0 0 5926 0 0 6000 0 0 5830 0 0 5627 0 0 5671 0 0 5475 0 0 2929 0 0 503 0 0 405 0 0 297 0 0 276 0 0 273 0 0 233 0 0 193 0 0 148 0 0 162 0 0 
69 0 0 149 0 0 180 0 0 166 0 0 204 0 0 240 0 0 354 0 0 358 0 0 463 0 0 543 0 0 3039 0 0 5627 0 0 5593 0 0 5663 0 0 5882 0 0 5908 0 0 6030 0 0 6034 0 0 5866 0 0 5917 0 0 6086 0 0 6036 0 0 5962 0 0 6101 0 0 6127 0 0 5911 0 0 5874 0 0 5988 0 0 6148 0 0 5987 0 0 5988 0 0 6028 0 0 6040 0 0 6056 0 0 6027 0 0 6107 0 0 5958 0 0 6141 0 0 6113 0 0 5965 0 0 5954 0 0 5910 0 0 5930 0 0 5858 0 0 5971 0 0 5855 0 0 5845 0 0 5787 0 0 5774 0 0 5613 0 0 3029 0 0 578 0 0 439 0 0 334 0 0 283 0 0 261 0 0 178 0 0 208 0 0 168 0 0 148 0 0 
69 0 0 163 0 0 150 0 0 188 0 0 223 0 0 277 0 0 317 0 0 387 0 0 431 0 0 546 0 0 3069 0 0 5616 0 0 5821 0 0 5809 0 0 5856 0 0 5876 0 0 5913 0 0 5892 0 0 5940 0 0 6023 0 0 5916 0 0 5951 0 0 6011 0 0 6010 0 0 6097 0 0 6150 0 0 6073 0 0 6172 0 0 5994 0 0 6201 0 0 6037 0 0 5975 0 0 6030 0 0 6110 0 0 6104 0 0 6058 0 0 6017 0 0 5892 0 0 6109 0 0 5976 0 0 6029 0 0 5910 0 0 6023 0 0 6037 0 0 5955 0 0 5893 0 0 5862 0 0 5801 0 0 5772 0 0 5610 0 0 3063 0 0 595 0 0 429 0 0 333 0 0 307 0 0 246 0 0 224 0 0 204 0 0 165 0 0 146 0 0 
81 0 0 135 0 0 183 0 0 211 0 0 252 0 0 228 0 0 308 0 0 377 0 0 441 0 0 557 0 0 3146 0 0 5494 0 0 5786 0 0 5788 0 0 5938 0 0 5929 0 0 6022 0 0 5910 0 0 6017 0 0 5904 0 0 6089 0 0 6064 0 0 6034 0 0 5992 0 0 5976 0 0 6139 0 0 6021 0 0 6160 0 0 6248 0 0 6196 0 0 5846 0 0 6002 0 0 6001 0 0 6019 0 0 6047 0 0 6188 0 0 6051 0 0 6014 0 0 6002 0 0 6022 0 0 6009 0 0 6016 0 0 5872 0 0 6063 0 0 5921 0 0 6051 0 0 5901 0 0 5843 0 0 5741 0 0 5652 0 0 3085 0 0 614 0 0 459 0 0 342 0 0 332 0 0 282 0 0 237 0 0 228 0 0 182 0 0 146 0 0 
73 0 0 176 0 0 212 0 0 215 0 0 285 0 0 282 0 0 326 0 0 393 0 0 464 0 0 602 0 0 3115 0 0 5557 0 0 5629 0 0 5760 0 0 5793 0 0 5847 0 0 6005 0 0 5912 0 0 6011 0 0 5946 0 0 6044 0 0 6015 0 0 6166 0 0 6065 0 0 6132 0 0 6217 0 0 6002 0 0 6035 0 0 6041 0 0 6122 0 0 6083 0 0 6117 0 0 6129 0 0 6221 0 0 6003 0 0 6030 0 0 6069 0 0 6228 0 0 6091 0 0 6071 0 0 6194 0 0 5848 0 0 6058 0 0 5972 0 0 6010 0 0 5825 0 0 5726 0 0 5800 0 0 5792 0 0 5730 0 0 3103 0 0 573 0 0 487 0 0 360 0 0 330 0 0 284 0 0 222 0 0 200 0 0 170 0 0 137 0 0 
71 0 0 171 0 0 170 0 0 189 0 0 238 0 0 264 0 0 315 0 0 382 0 0 489 0 0 583 0 0 3066 0 0 5561 0 0 5681 0 0 5761 0 0 5754 0 0 5908 0 0 5975 0 0 6012 0 0 5848 0 0 5863 0 0 5903 0 0 6046 0 0 6111 0 0 6173 0 0 6089 0 0 6150 0 0 5977 0 0 6042 0 0 6162 0 0 6001 0 0 6215 0 0 6145 0 0 6137 0 0 6105 0 0 6021 0 0 6086 0 0 6242 0 0 5994 0 0 6195 0 0 6218 0 0 6065 0 0 6118 0 0 5966 0 0 6074 0 0 5906 0 0 5910 0 0 5983 0 0 5856 0 0 5637 0 0 5656 0 0 3167 0 0 564 0 0 473 0 0 391 0 0 295 0 0 295 0 0 253 0 0 215 0 0 191 0 0 170 0 0 
83 0 0 177 0 0 196 0 0 196 0 0 249 0 0 281 0 0 304 0 0 379 0 0 531 0 0 548 0 0 3103 0 0 5618 0 0 5720 0 0 5884 0 0 5866 0 0 6000 0 0 5958 0 0 6116 0 0 5974 0 0 5938 0 0 6055 0 0 6134 0 0 6166 0 0 6126 0 0 6046 0 0 6092 0 0 6150 0 0 6096 0 0 6141 0 0 6025 0 0 6154 0 0 6188 0 0 6131 0 0 6171 0 0 6223 0 0 6241 0 0 6138 0 0 6034 0 0 6228 0 0 6209 0 0 5968 0 0 6096 0 0 6018 0 0 6049 0 0 5950 0 0 5895 0 0 5900 0 0 5821 0 0 5709 0 0 5626 0 0 3104 0 0 611 0 0 464 0 0 377 0 0 337 0 0 293 0 0 246 0 0 216 0 0 188 0 0 174 0 0 
77 0 0 172 0 0 191 0 0 190 0 0 235 0 0 310 0 0 331 0 0 384 0 0 476 0 0 596 0 0 3185 0 0 5576 0 0 5680 0 0 5801 0 0 5886 0 0 5888 0 0 5938 0 0 6053 0 0 5958 0 0 6099 0 0 5993 0 0 6202 0 0 6189 0 0 6057 0 0 6112 0 0 6041 0 0 6009 0 0 6220 0 0 6336 0 0 6144 0 0 6052 0 0 6047 0 0 6106 0 0 6039 0 0 6146 0 0 6021 0 0 6046 0 0 6140 0 0 6089 0 0 5959 0 0 5912 0 0 6140 0 0 6072 0 0 6132 0 0 5830 0 0 5890 0 0 5861 0 0 5820 0 0 5720 0 0 5588 0 0 3048 0 0 593 0 0 465 0 0 419 0 0 327 0 0 313 0 0 248 0 0 203 0 0 195 0 0 152 0 0 
83 0 0 177 0 0 198 0 0 211 0 0 267 0 0 272 0 0 349 0 0 409 0 0 458 0 0 624 0 0 3076 0 0 5758 0 0 5790 0 0 5820 0 0 5934 0 0 5881 0 0 6069 0 0 6002 0 0 5986 0 0 6181 0 0 6131 0 0 6084 0 0 6085 0 0 6191 0 0 6097 0 0 6066 0 0 6086 0 0 6092 0 0 6168 0 0 6067 0 0 6202 0 0 6007 0 0 6202 0 0 6029 0 0 6147 0 0 6156 0 0 5996 0 0 6186 0 0 6112 0 0 6197 0 0 5971 0 0 6030 0 0 6030 0 0 6103 0 0 6075 0 0 5993 0 0 5869 0 0 5822 0 0 5836 0 0 5573 0 0 3071 0 0 588 0 0 500 0 0 382 0 0 355 0 0 285 0 0 237 0 0 226 0 0 172 0 0 176 0 0 
95 0 0 171 0 0 195 0 0 179 0 0 264 0 0 290 0 0 310 0 0 387 0 0 480 0 0 622 0 0 3112 0 0 5603 0 0 5742 0 0 5792 0 0 5898 0 0 5869 0 0 6054 0 0 6057 0 0 6132 0 0 5988 0 0 6088 0 0 6117 0 0 6094 0 0 6205 0 0 6109 0 0 6048 0 0 6206 0 0 6150 0 0 6042 0 0 6203 0 0 6431 0 0 6122 0 0 6050 0 0 6106 0 0 5938 0 0 6081 0 0 6053 0 0 6168 0 0 6131 0 0 6135 0 0 6191 0 0 6245 0 0 6054 0 0 6056 0 0 6121 0 0 5878 0 0 5924 0 0 5927 0 0 5755 0 0 5766 0 0 3089 0 0 596 0 0 496 0 0 406 0 0 353 0 0 316 0 0 236 0 0 225 0 0 192 0 0 172 0 0 
73 0 0 199 0 0 184 0 0 212 0 0 239 0 0 307 0 0 309 0 0 417 0 0 474 0 0 627 0 0 3172 0 0 5564 0 0 5638 0 0 5975 0 0 6004 0 0 6012 0 0 5939 0 0 6060 0 0 5949 0 0 5992 0 0 6158 0 0 6143 0 0 6175 0 0 6142 0 0 6098 0 0 6146 0 0 6166 0 0 6156 0 0 6145 0 0 6140 0 0 6261 0 0 6331 0 0 6110 0 0 6047 0 0 6036 0 0 6070 0 0 6203 0 0 6072 0 0 6095 0 0 5981 0 0 6163 0 0 6052 0 0 6178 0 0 6121 0 0 6110 0 0 5849 0 0 5859 0 0 5830 0 0 5764 0 0 5623 0 0 3082 0 0 655 0 0 483 0 0 358 0 0 342 0 0 290 0 0 225 0 0 219 0 0 200 0 0 183 0 0 
80 0 0 181 0 0 207 0 0 247 0 0 278 0 0 280 0 0 367 0 0 381 0 0 490 0 0 621 0 0 3223 0 0 5509 0 0 5712 0 0 5831 0 0 5858 0 0 5924 0 0 6044 0 0 5931 0 0 6000 0 0 6036 0 0 6064 0 0 6141 0 0 6137 0 0 6075 0 0 6124 0 0 6189 0 0 6171 0 0 6151 0 0 6072 0 0 6151 0 0 6163 0 0 6216 0 0 6118 0 0 6119 0 0 6253 0 0 6119 0 0 6025 0 0 6108 0 0 5994 0 0 6164 0 0 6160 0 0 6005 0 0 6060 0 0 6203 0 0 5924 0 0 6028 0 0 5919 0 0 5907 0 0 5750 0 0 5615 0 0 3105 0 0 628 0 0 493 0 0 398 0 0 339 0 0 286 0 0 228 0 0 245 0 0 197 0 0 186 0 0 
83 0 0 169 0 0 208 0 0 240 0 0 278 0 0 294 0 0 311 0 0 439 0 0 480 0 0 601 0 0 3132 0 0 5682 0 0 5827 0 0 5833 0 0 5783 0 0 5895 0 0 6074 0 0 6077 0 0 6070 0 0 6187 0 0 6100 0 0 5973 0 0 5984 0 0 6130 0 0 6235 0 0 6040 0 0 6068 0 0 6119 0 0 6268 0 0 6171 0 0 6138 0 0 6357 0 0 6301 0 0 6185 0 0 6179 0 0 5999 0 0 6079 0 0 6186 0 0 6156 0 0 6014 0 0 6072 0 0 6053 0 0 5952 0 0 5962 0 0 6043 0 0 5982 0 0 5913 0 0 5909 0 0 5863 0 0 5596 0 0 3162 0 0 668 0 0 481 0 0 405 0 0 364 0 0 282 0 0 247 0 0 212 0 0 213 0 0 186 0 0 
95 0 0 168 0 0 190 0 0 237 0 0 266 0 0 277 0 0 338 0 0 359 0 0 507 0 0 642 0 0 3161 0 0 5619 0 0 5810 0 0 5947 0 0 5935 0 0 6066 0 0 5933 0 0 6128 0 0 5985 0 0 6107 0 0 6144 0 0 6104 0 0 6110 0 0 6072 0 0 6203 0 0 6080 0 0 6146 0 0 6185 0 0 6105 0 0 6096 0 0 6057 0 0 6113 0 0 6255 0 0 6134 0 0 6038 0 0 6205 0 0 6195 0 0 6076 0 0 6164 0 0 6140 0 0 5919 0 0 6176 0 0 6144 0 0 6096 0 0 5956 0 0 5911 0 0 5906 0 0 5949 0 0 5779 0 0 5626 0 0 3173 0 0 594 0 0 526 0 0 402 0 0 340 0 0 303 0 0 245 0 0 235 0 0 214 0 0 170 0 0 
86 0 0 188 0 0 190 0 0 257 0 0 248 0 0 304 0 0 354 0 0 434 0 0 510 0 0 609 0 0 3156 0 0 5680 0 0 5696 0 0 5851 0 0 6019 0 0 5964 0 0 6084 0 0 6155 0 0 6035 0 0 6083 0 0 6015 0 0 6159 0 0 6098 0 0 6119 0 0 6173 0 0 6176 0 0 6201 0 0 6130 0 0 6267 0 0 6196 0 0 6283 0 0 6113 0 0 6224 0 0 6313 0 0 6064 0 0 6099 0 0 6209 0 0 6234 0 0 6074 0 0 6008 0 0 6192 0 0 5991 0 0 6060 0 0 5991 0 0 6103 0 0 6168 0 0 5947 0 0 5804 0 0 5864 0 0 5576 0 0 3128 0 0 629 0 0 491 0 0 391 0 0 360 0 0 302 0 0 268 0 0 227 0 0 189 0 0 173 0 0 
68 0 0 171 0 0 205 0 0 229 0 0 277 0 0 289 0 0 356 0 0 418 0 0 516 0 0 627 0 0 3117 0 0 5751 0 0 5823 0 0 5808 0 0 5918 0 0 5957 0 0 6114 0 0 6159 0 0 6019 0 0 6142 0 0 6248 0 0 6093 0 0 6271 0 0 6075 0 0 6177 0 0 6148 0 0 6174 0 0 6045 0 0 6243 0 0 6278 0 0 6097 0 0 6217 0 0 6082 0 0 6150 0 0 6116 0 0 6051 0 0 6130 0 0 6109 0 0 6218 0 0 6081 0 0 6229 0 0 5885 0 0 5974 0 0 5969 0 0 6051 0 0 6063 0 0 5997 0 0 5789 0 0 5788 0 0 5578 0 0 3130 0 0 621 0 0 493 0 0 402 0 0 311 0 0 305 0 0 263 0 0 215 0 0 180 0 0 169 0 0 
77 0 0 185 0 0 207 0 0 209 0 0 260 0 0 281 0 0 350 0 0 362 0 0 516 0 0 607 0 0 3186 0 0 5548 0 0 5740 0 0 5855 0 0 5920 0 0 6072 0 0 5998 0 0 6027 0 0 6025 0 0 6085 0 0 6033 0 0 6043 0 0 6019 0 0 6282 0 0 6095 0 0 6224 0 0 6313 0 0 6180 0 0 6158 0 0 6220 0 0 6257 0 0 6171 0 0 6057 0 0 6176 0 0 6153 0 0 6264 0 0 6059 0 0 6127 0 0 6184 0 0 6081 0 0 6183 0 0 6153 0 0 6041 0 0 6012 0 0 5960 0 0 5981 0 0 5928 0 0 5810 0 0 5760 0 0 5627 0 0 3057 0 0 597 0 0 497 0 0 389 0 0 316 0 0 297 0 0 250 0 0 226 0 0 194 0 0 169 0 0 
90 0 0 170 0 0 204 0 0 197 0 0 254 0 0 311 0 0 319 0 0 394 0 0 538 0 0 624 0 0 3149 0 0 5620 0 0 5751 0 0 5842 0 0 5910 0 0 5988 0 0 6005 0 0 5930 0 0 5966 0 0 6058 0 0 6078 0 0 6063 0 0 6112 0 0 6117 0 0 6155 0 0 6138 0 0 6023 0 0 6221 0 0 6129 0 0 6336 0 0 5996 0 0 6038 0 0 6341 0 0 6158 0 0 6140 0 0 6277 0 0 5984 0 0 6153 0 0 6161 0 0 6215 0 0 6070 0 0 6052 0 0 6112 0 0 5941 0 0 6036 0 0 6045 0 0 5976 0 0 5985 0 0 5744 0 0 5692 0 0 3191 0 0 624 0 0 526 0 0 392 0 0 344 0 0 272 0 0 255 0 0 189 0 0 175 0 0 185 0 0 
93 0 0 174 0 0 171 0 0 230 0 0 237 0 0 296 0 0 318 0 0 398 0 0 447 0 0 624 0 0 3124 0 0 5682 0 0 5648 0 0 5868 0 0 5887 0 0 5921 0 0 6146 0 0 6095 0 0 6164 0 0 5959 0 0 6004 0 0 6066 0 0 6056 0 0 6002 0 0 6106 0 0 6026 0 0 6191 0 0 6172 0 0 6079 0 0 6086 0 0 6140 0 0 6232 0 0 6152 0 0 6075 0 0 6212 0 0 6108 0 0 6261 0 0 6246 0 0 6074 0 0 6167 0 0 6162 0 0 6134 0 0 6069 0 0 5977 0 0 5885 0 0 5971 0 0 6016 0 0 5888 0 0 5697 0 0 5564 0 0 3077 0 0 591 0 0 505 0 0 381 0 0 341 0 0 316 0 0 263 0 0 215 0 0 209 0 0 177 0 0 
82 0 0 189 0 0 226 0 0 210 0 0 248 0 0 290 0 0 328 0 0 403 0 0 504 0 0 581 0 0 3040 0 0 5680 0 0 5799 0 0 5877 0 0 6017 0 0 5963 0 0 6014 0 0 5957 0 0 5955 0 0 6190 0 0 6121 0 0 6137 0 0 6303 0 0 6029 0 0 6050 0 0 6094 0 0 6192 0 0 6194 0 0 6258 0 0 6029 0 0 6142 0 0 6088 0 0 6219 0 0 6226 0 0 6150 0 0 6185 0 0 6157 0 0 6062 0 0 6057 0 0 6060 0 0 6173 0 0 6242 0 0 6104 0 0 6096 0 0 5963 0 0 6009 0 0 6003 0 0 5968 0 0 5713 0 0 5530 0 0 3154 0 0 627 0 0 477 0 0 401 0 0 349 0 0 303 0 0 268 0 0 248 0 0 180 0 0 186 0 0 
88 0 0 179 0 0 199 0 0 225 0 0 253 0 0 253 0 0 324 0 0 405 0 0 473 0 0 666 0 0 3065 0 0 5705 0 0 5862 0 0 5690 0 0 5903 0 0 6028 0 0 5961 0 0 6068 0 0 6191 0 0 6138 0 0 5993 0 0 6206 0 0 6098 0 0 6140 0 0 6091 0 0 6240 0 0 6187 0 0 6214 0 0 5992 0 0 6153 0 0 6156 0 0 6131 0 0 6096 0 0 6028 0 0 6052 0 0 6115 0 0 6134 0 0 6027 0 0 6125 0 0 6141 0 0 6128 0 0 6065 0 0 5914 0 0 6011 0 0 5901 0 0 6033 0 0 5911 0 0 5985 0 0 5693 0 0 5816 0 0 3182 0 0 622 0 0 466 0 0 424 0 0 342 0 0 292 0 0 259 0 0 206 0 0 203 0 0 195 0 0 
93 0 0 173 0 0 185 0 0 209 0 0 226 0 0 289 0 0 325 0 0 413 0 0 470 0 0 658 0 0 3103 0 0 5700 0 0 5680 0 0 5855 0 0 5873 0 0 6027 0 0 5984 0 0 5999 0 0 6004 0 0 6066 0 0 5942 0 0 6136 0 0 6055 0 0 6136 0 0 6220 0 0 6206 0 0 6152 0 0 6038 0 0 6000 0 0 6067 0 0 6078 0 0 6006 0 0 6110 0 0 6045 0 0 6050 0 0 6131 0 0 6029 0 0 6082 0 0 6019 0 0 5915 0 0 6078 0 0 6057 0 0 6202 0 0 5992 0 0 6095 0 0 5902 0 0 5872 0 0 5819 0 0 5748 0 0 5778 0 0 3119 0 0 609 0 0 492 0 0 385 0 0 302 0 0 292 0 0 258 0 0 225 0 0 204 0 0 170 0 0 
66 0 0 178 0 0 175 0 0 218 0 0 218 0 0 268 0 0 301 0 0 388 0 0 483 0 0 598 0 0 2965 0 0 5588 0 0 5597 0 0 5772 0 0 5943 0 0 6060 0 0 6036 0 0 6058 0 0 6153 0 0 6020 0 0 6110 0 0 6089 0 0 6144 0 0 5955 0 0 6087 0 0 6208 0 0 6260 0 0 6120 0 0 6237 0 0 6041 0 0 6269 0 0 6049 0 0 6130 0 0 6099 0 0 6028 0 0 6080 0 0 6061 0 0 6003 0 0 6047 0 0 6063 0 0 6029 0 0 6062 0 0 6028 0 0 6054 0 0 6062 0 0 5978 0 0 5918 0 0 5885 0 0 5747 0 0 5828 0 0 3132 0 0 617 0 0 447 0 0 385 0 0 322 0 0 293 0 0 227 0 0 206 0 0 208 0 0 168 0 0 
77 0 0 178 0 0 174 0 0 228 0 0 256 0 0 265 0 0 324 0 0 388 0 0 507 0 0 616 0 0 3132 0 0 5638 0 0 5591 0 0 5736 0 0 5914 0 0 5948 0 0 5935 0 0 6034 0 0 6114 0 0 5988 0 0 5989 0 0 6079 0 0 6045 0 0 6107 0 0 6143 0 0 6046 0 0 6244 0 0 6122 0 0 6034 0 0 6016 0 0 5929 0 0 6131 0 0 6055 0 0 6060 0 0 5986 0 0 6196 0 0 5941 0 0 6166 0 0 5954 0 0 6103 0 0 6120 0 0 6026 0 0 5942 0 0 5923 0 0 5958 0 0 5865 0 0 5930 0 0 5919 0 0 5774 0 0 5534 0 0 3100 0 0 629 0 0 459 0 0 394 0 0 326 0 0 302 0 0 232 0 0 215 0 0 181 0 0 174 0 0 
61 0 0 151 0 0 184 0 0 222 0 0 237 0 0 254 0 0 295 0 0 377 0 0 425 0 0 586 0 0 3031 0 0 5690 0 0 5794 0 0 5848 0 0 5950 0 0 5751 0 0 5997 0 0 6030 0 0 6023 0 0 6053 0 0 6092 0 0 6110 0 0 6039 0 0 6063 0 0 6081 0 0 5990 0 0 6133 0 0 6115 0 0 6234 0 0 6142 0 0 6137 0 0 6132 0 0 6090 0 0 6062 0 0 6046 0 0 6094 0 0 6071 0 0 6076 0 0 6115 0 0 6132 0 0 6061 0 0 6074 0 0 6006 0 0 5954 0 0 5908 0 0 5948 0 0 5864 0 0 5965 0 0 5882 0 0 5742 0 0 3071 0 0 630 0 0 486 0 0 386 0 0 291 0 0 280 0 0 243 0 0 176 0 0 190 0 0 157 0 0 
77 0 0 150 0 0 174 0 0 208 0 0 238 0 0 238 0 0 326 0 0 421 0 0 468 0 0 595 0 0 3084 0 0 5591 0 0 5659 0 0 5709 0 0 5650 0 0 5762 0 0 5968 0 0 5917 0 0 5861 0 0 6056 0 0 5990 0 0 6135 0 0 5927 0 0 6163 0 0 6028 0 0 6168 0 0 6115 0 0 6145 0 0 6123 0 0 6212 0 0 6179 0 0 6134 0 0 6206 0 0 5897 0 0 6113 0 0 6144 0 0 5966 0 0 6076 0 0 6009 0 0 5899 0 0 6141 0 0 5946 0 0 6038 0 0 6043 0 0 5936 0 0 5816 0 0 5869 0 0 5922 0 0 5791 0 0 5710 0 0 3130 0 0 574 0 0 472 0 0 379 0 0 296 0 0 281 0 0 225 0 0 204 0 0 183 0 0 159 0 0 
65 0 0 135 0 0 175 0 0 173 0 0 251 0 0 257 0 0 302 0 0 406 0 0 458 0 0 579 0 0 3054 0 0 5372 0 0 5593 0 0 5849 0 0 5825 0 0 5864 0 0 5909 0 0 5924 0 0 5906 0 0 5960 0 0 5920 0 0 6078 0 0 6090 0 0 6046 0 0 6092 0 0 5939 0 0 6080 0 0 6126 0 0 6060 0 0 6086 0 0 6130 0 0 6043 0 0 5923 0 0 6064 0 0 6000 0 0 6096 0 0 6101 0 0 6099 0 0 6131 0 0 6038 0 0 5843 0 0 6045 0 0 5832 0 0 5956 0 0 5903 0 0 5933 0 0 5962 0 0 5785 0 0 5733 0 0 5565 0 0 3114 0 0 564 0 0 439 0 0 376 0 0 311 0 0 255 0 0 225 0 0 191 0 0 175 0 0 170 0 0 
76 0 0 154 0 0 156 0 0 194 0 0 222 0 0 253 0 0 330 0 0 386 0 0 409 0 0 605 0 0 2996 0 0 5630 0 0 5666 0 0 5739 0 0 5904 0 0 5693 0 0 5829 0 0 5841 0 0 6046 0 0 6069 0 0 6003 0 0 6048 0 0 6025 0 0 6124 0 0 5945 0 0 6013 0 0 5987 0 0 6098 0 0 6040 0 0 6071 0 0 6088 0 0 6045 0 0 6029 0 0 6173 0 0 6034 0 0 5958 0 0 5927 0 0 5818 0 0 5997 0 0 6005 0 0 5940 0 0 5868 0 0 5926 0 0 5924 0 0 5882 0 0 5872 0 0 5857 0 0 5860 0 0 5650 0 0 5535 0 0 3125 0 0 540 0 0 439 0 0 383 0 0 312 0 0 236 0 0 186 0 0 187 0 0 165 0 0 173 0 0 
66 0 0 149 0 0 165 0 0 184 0 0 217 0 0 255 0 0 281 0 0 344 0 0 428 0 0 544 0 0 3099 0 0 5533 0 0 5632 0 0 5812 0 0 5750 0 0 5909 0 0 5681 0 0 5916 0 0 6034 0 0 5802 0 0 6003 0 0 6165 0 0 5926 0 0 5956 0 0 6001 0 0 6083 0 0 5826 0 0 5943 0 0 6136 0 0 6006 0 0 6030 0 0 6066 0 0 6059 0 0 5992 0 0 6074 0 0 5977 0 0 5925 0 0 5814 0 0 6013 0 0 6026 0 0 5780 0 0 6147 0 0 5931 0 0 5883 0 0 6057 0 0 5775 0 0 5911 0 0 5832 0 0 5664 0 0 5507 0 0 2956 0 0 536 0 0 392 0 0 338 0 0 270 0 0 253 0 0 210 0 0 183 0 0 171 0 0 146 0 0 
61 0 0 147 0 0 148 0 0 173 0 0 204 0 0 234 0 0 275 0 0 334 0 0 428 0 0 542 0 0 3061 0 0 5523 0 0 5615 0 0 5637 0 0 5789 0 0 5809 0 0 5828 0 0 5916 0 0 5879 0 0 5944 0 0 5970 0 0 5877 0 0 5917 0 0 5938 0 0 5866 0 0 6001 0 0 5979 0 0 6006 0 0 5937 0 0 5817 0 0 5889 0 0 6001 0 0 5954 0 0 5848 0 0 5947 0 0 5763 0 0 5850 0 0 5869 0 0 6047 0 0 5881 0 0 6060 0 0 5925 0 0 5877 0 0 5918 0 0 5763 0 0 5845 0 0 5787 0 0 5724 0 0 5805 0 0 5585 0 0 3029 0 0 545 0 0 410 0 0 316 0 0 292 0 0 258 0 0 181 0 0 178 0 0 146 0 0 130 0 0 
61 0 0 144 0 0 150 0 0 169 0 0 188 0 0 215 0 0 265 0 0 330 0 0 403 0 0 563 0 0 2961 0 0 5640 0 0 5623 0 0 5743 0 0 5743 0 0 5926 0 0 5907 0 0 5764 0 0 5676 0 0 5877 0 0 5908 0 0 5773 0 0 5844 0 0 6003 0 0 5957 0 0 5949 0 0 5920 0 0 5883 0 0 5897 0 0 5944 0 0 5850 0 0 5925 0 0 5943 0 0 5856 0 0 6014 0 0 5909 0 0 6135 0 0 5928 0 0 5813 0 0 5879 0 0 5822 0 0 5768 0 0 5865 0 0 5679 0 0 5929 0 0 5774 0 0 5735 0 0 5687 0 0 5725 0 0 5430 0 0 3002 0 0 495 0 0 393 0 0 324 0 0 254 0 0 210 0 0 191 0 0 178 0 0 146 0 0 118 0 0 
69 0 0 116 0 0 147 0 0 148 0 0 190 0 0 205 0 0 259 0 0 274 0 0 356 0 0 469 0 0 2956 0 0 5509 0 0 5654 0 0 5683 0 0 5643 0 0 5804 0 0 5695 0 0 5775 0 0 5811 0 0 5883 0 0 5903 0 0 5976 0 0 5822 0 0 5956 0 0 5813 0 0 5808 0 0 5814 0 0 5781 0 0 5924 0 0 5935 0 0 5888 0 0 5803 0 0 5803 0 0 5762 0 0 5780 0 0 5933 0 0 5805 0 0 5818 0 0 5811 0 0 5897 0 0 5879 0 0 5704 0 0 5851 0 0 5868 0 0 5719 0 0 5751 0 0 5775 0 0 5607 0 0 5466 0 0 5444 0 0 2875 0 0 500 0 0 386 0 0 300 0 0 241 0 0 217 0 0 179 0 0 191 0 0 152 0 0 129 0 0 
55 0 0 128 0 0 149 0 0 171 0 0 181 0 0 182 0 0 249 0 0 281 0 0 341 0 0 455 0 0 2952 0 0 5445 0 0 5410 0 0 5588 0 0 5535 0 0 5604 0 0 5772 0 0 5701 0 0 5771 0 0 5675 0 0 5769 0 0 5727 0 0 5799 0 0 5801 0 0 5825 0 0 5761 0 0 5651 0 0 5824 0 0 5787 0 0 5628 0 0 5727 0 0 5780 0 0 5612 0 0 5848 0 0 5831 0 0 5846 0 0 5726 0 0 5587 0 0 5751 0 0 5800 0 0 5701 0 0 5805 0 0 5624 0 0 5605 0 0 5651 0 0 5827 0 0 5683 0 0 5568 0 0 5496 0 0 5378 0 0 2778 0 0 446 0 0 389 0 0 277 0 0 258 0 0 202 0 0 185 0 0 148 0 0 127 0 0 126 0 0 
64 0 0 145 0 0 156 0 0 159 0 0 169 0 0 179 0 0 226 0 0 251 0 0 301 0 0 417 0 0 2880 0 0 5328 0 0 5310 0 0 5342 0 0 5436 0 0 5522 0 0 5503 0 0 5459 0 0 5688 0 0 5582 0 0 5522 0 0 5551 0 0 5779 0 0 5599 0 0 5713 0 0 5613 0 0 5646 0 0 5485 0 0 5641 0 0 5682 0 0 5730 0 0 5676 0 0 5592 0 0 5586 0 0 5555 0 0 5651 0 0 5673 0 0 5670 0 0 5626 0 0 5654 0 0 5661 0 0 5623 0 0 5583 0 0 5652 0 0 5587 0 0 5398 0 0 5563 0 0 5487 0 0 5383 0 0 5426 0 0 2841 0 0 412 0 0 313 0 0 276 0 0 223 0 0 179 0 0 164 0 0 137 0 0 148 0 0 140 0 0 
58 0 0 123 0 0 141 0 0 140 0 0 161 0 0 178 0 0 206 0 0 254 0 0 286 0 0 367 0 0 1535 0 0 2762 0 0 2924 0 0 2971 0 0 2917 0 0 3016 0 0 3074 0 0 3115 0 0 3099 0 0 3098 0 0 3143 0 0 3167 0 0 3115 0 0 3061 0 0 3155 0 0 3137 0 0 2999 0 0 3152 0 0 3162 0 0 3159 0 0 3178 0 0 3178 0 0 3171 0 0 3191 0 0 3139 0 0 3174 0 0 3172 0 0 3156 0 0 3063 0 0 3202 0 0 3094 0 0 3134 0 0 3040 0 0 3056 0 0 3007 0 0 2928 0 0 2920 0 0 2898 0 0 2901 0 0 2873 0 0 1655 0 0 364 0 0 262 0 0 250 0 0 197 0 0 174 0 0 139 0 0 128 0 0 137 0 0 100 0 0 
60 0 0 112 0 0 107 0 0 136 0 0 145 0 0 159 0 0 196 0 0 209 0 0 272 0 0 282 0 0 341 0 0 401 0 0 480 0 0 444 0 0 513 0 0 541 0 0 543 0 0 552 0 0 563 0 0 558 0 0 599 0 0 560 0 0 603 0 0 650 0 0 649 0 0 590 0 0 630 0 0 642 0 0 625 0 0 634 0 0 609 0 0 637 0 0 633 0 0 632 0 0 634 0 0 637 0 0 631 0 0 646 0 0 592 0 0 654 0 0 591 0 0 597 0 0 586 0 0 524 0 0 551 0 0 532 0 0 508 0 0 483 0 0 434 0 0 368 0 0 374 0 0 266 0 0 236 0 0 215 0 0 177 0 0 178 0 0 141 0 0 125 0 0 131 0 0 98 0 0 
57 0 0 110 0 0 105 0 0 107 0 0 126 0 0 136 0 0 170 0 0 187 0 0 205 0 0 245 0 0 265 0 0 287 0 0 337 0 0 366 0 0 378 0 0 405 0 0 435 0 0 408 0 0 432 0 0 463 0 0 458 0 0 472 0 0 453 0 0 453 0 0 441 0 0 507 0 0 494 0 0 475 0 0 489 0 0 477 0 0 540 0 0 461 0 0 480 0 0 532 0 0 484 0 0 479 0 0 463 0 0 469 0 0 473 0 0 502 0 0 495 0 0 472 0 0 458 0 0 454 0 0 416 0 0 391 0 0 371 0 0 370 0 0 339 0 0 310 0 0 282 0 0 239 0 0 217 0 0 215 0 0 180 0 0 146 0 0 154 0 0 128 0 0 116 0 0 96 0 0 
50 0 0 86 0 0 112 0 0 116 0 0 133 0 0 125 0 0 146 0 0 167 0 0 192 0 0 209 0 0 240 0 0 262 0 0 275 0 0 291 0 0 310 0 0 315 0 0 320 0 0 331 0 0 347 0 0 361 0 0 394 0 0 391 0 0 380 0 0 391 0 0 414 0 0 418 0 0 405 0 0 386 0 0 373 0 0 432 0 0 407 0 0 393 0 0 424 0 0 410 0 0 392 0 0 372 0 0 386 0 0 387 0 0 419 0 0 376 0 0 351 0 0 398 0 0 346 0 0 342 0 0 316 0 0 342 0 0 326 0 0 319 0 0 279 0 0 257 0 0 252 0 0 228 0 0 199 0 0 191 0 0 157 0 0 143 0 0 113 0 0 126 0 0 109 0 0 93 0 0 
38 0 0 102 0 0 109 0 0 112 0 0 104 0 0 126 0 0 166 0 0 157 0 0 174 0 0 167 0 0 212 0 0 207 0 0 236 0 0 235 0 0 272 0 0 261 0 0 318 0 0 289 0 0 271 0 0 334 0 0 326 0 0 305 0 0 352 0 0 371 0 0 322 0 0 357 0 0 358 0 0 335 0 0 363 0 0 345 0 0 341 0 0 331 0 0 357 0 0 357 0 0 349 0 0 326 0 0 324 0 0 331 0 0 351 0 0 335 0 0 300 0 0 321 0 0 317 0 0 279 0 0 258 0 0 289 0 0 256 0 0 252 0 0 215 0 0 209 0 0 204 0 0 194 0 0 181 0 0 166 0 0 178 0 0 134 0 0 121 0 0 105 0 0 88 0 0 120 0 0 
39 0 0 69 0 0 89 0 0 90 0 0 108 0 0 120 0 0 130 0 0 127 0 0 157 0 0 144 0 0 168 0 0 182 0 0 195 0 0 230 0 0 238 0 0 246 0 0 223 0 0 262 0 0 234 0 0 265 0 0 281 0 0 291 0 0 285 0 0 330 0 0 314 0 0 306 0 0 311 0 0 280 0 0 322 0 0 283 0 0 305 0 0 281 0 0 286 0 0 328 0 0 270 0 0 277 0 0 285 0 0 286 0 0 261 0 0 245 0 0 265 0 0 261 0 0 253 0 0 233 0 0 233 0 0 221 0 0 214 0 0 197 0 0 186 0 0 178 0 0 174 0 0 168 0 0 183 0 0 137 0 0 121 0 0 109 0 0 118 0 0 102 0 0 63 0 0 91 0 0 
37 0 0 63 0 0 83 0 0 96 0 0 109 0 0 104 0 0 122 0 0 119 0 0 151 0 0 159 0 0 152 0 0 175 0 0 176 0 0 171 0 0 190 0 0 193 0 0 209 0 0 228 0 0 251 0 0 213 0 0 268 0 0 238 0 0 235 0 0 243 0 0 246 0 0 258 0 0 212 0 0 241 0 0 274 0 0 237 0 0 261 0 0 249 0 0 252 0 0 267 0 0 261 0 0 252 0 0 264 0 0 259 0 0 262 0 0 228 0 0 219 0 0 228 0 0 233 0 0 197 0 0 225 0 0 218 0 0 191 0 0 176 0 0 184 0 0 171 0 0 157 0 0 144 0 0 138 0 0 135 0 0 108 0 0 106 0 0 103 0 0 109 0 0 67 0 0 73 0 0 
35 0 0 85 0 0 74 0 0 83 0 0 100 0 0 83 0 0 113 0 0 110 0 0 104 0 0 118 0 0 138 0 0 161 0 0 159 0 0 160 0 0 147 0 0 188 0 0 182 0 0 211 0 0 222 0 0 184 0 0 183 0 0 212 0 0 208 0 0 247 0 0 230 0 0 208 0 0 236 0 0 228 0 0 231 0 0 211 0 0 229 0 0 219 0 0 197 0 0 204 0 0 205 0 0 222 0 0 217 0 0 228 0 0 238 0 0 192 0 0 193 0 0 192 0 0 198 0 0 193 0 0 183 0 0 178 0 0 151 0 0 166 0 0 170 0 0 157 0 0 119 0 0 134 0 0 133 0 0 112 0 0 115 0 0 111 0 0 72 0 0 72 0 0 96 0 0 70 0 0 
29 0 0 65 0 0 81 0 0 79 0 0 88 0 0 98 0 0 108 0 0 111 0 0 109 0 0 114 0 0 122 0 0 143 0 0 142 0 0 156 0 0 158 0 0 152 0 0 155 0 0 174 0 0 156 0 0 174 0 0 174 0 0 165 0 0 185 0 0 191 0 0 203 0 0 185 0 0 242 0 0 188 0 0 191 0 0 202 0 0 180 0 0 187 0 0 199 0 0 202 0 0 214 0 0 193 0 0 207 0 0 205 0 0 194 0 0 169 0 0 188 0 0 188 0 0 175 0 0 194 0 0 161 0 0 170 0 0 155 0 0 145 0 0 121 0 0 119 0 0 104 0 0 123 0 0 118 0 0 98 0 0 108 0 0 86 0 0 73 0 0 80 0 0 68 0 0 63 0 0 
37 0 0 59 0 0 78 0 0 71 0 0 70 0 0 101 0 0 98 0 0 105 0 0 90 0 0 76 0 0 133 0 0 114 0 0 97 0 0 139 0 0 123 0 0 137 0 0 142 0 0 147 0 0 153 0 0 162 0 0 175 0 0 168 0 0 171 0 0 199 0 0 168 0 0 150 0 0 182 0 0 170 0 0 186 0 0 197 0 0 159 0 0 163 0 0 184 0 0 154 0 0 198 0 0 172 0 0 177 0 0 142 0 0 165 0 0 148 0 0 179 0 0 162 0 0 175 0 0 155 0 0 162 0 0 155 0 0 150 0 0 132 0 0 116 0 0 122 0 0 97 0 0 99 0 0 109 0 0 89 0 0 84 0 0 87 0 0 96 0 0 80 0 0 66 0 0 64 0 0 
