P3
# This is a dose file slice at depth 19 of 100
60 60
# now we give the maximum value of the RGB coordinates.
5876
6 0 0 18 0 0 16 0 0 17 0 0 20 0 0 21 0 0 23 0 0 21 0 0 26 0 0 30 0 0 33 0 0 33 0 0 31 0 0 33 0 0 33 0 0 35 0 0 34 0 0 37 0 0 42 0 0 38 0 0 41 0 0 43 0 0 47 0 0 43 0 0 40 0 0 38 0 0 46 0 0 49 0 0 43 0 0 49 0 0 44 0 0 44 0 0 45 0 0 44 0 0 44 0 0 43 0 0 43 0 0 39 0 0 43 0 0 39 0 0 40 0 0 41 0 0 36 0 0 36 0 0 34 0 0 38 0 0 36 0 0 31 0 0 27 0 0 31 0 0 31 0 0 27 0 0 27 0 0 23 0 0 22 0 0 20 0 0 18 0 0 18 0 0 17 0 0 16 0 0 
14 0 0 42 0 0 38 0 0 49 0 0 52 0 0 55 0 0 56 0 0 57 0 0 71 0 0 72 0 0 78 0 0 74 0 0 85 0 0 86 0 0 93 0 0 96 0 0 103 0 0 102 0 0 109 0 0 111 0 0 111 0 0 108 0 0 123 0 0 111 0 0 123 0 0 112 0 0 115 0 0 118 0 0 122 0 0 124 0 0 129 0 0 122 0 0 120 0 0 125 0 0 122 0 0 115 0 0 113 0 0 111 0 0 111 0 0 118 0 0 110 0 0 110 0 0 114 0 0 108 0 0 108 0 0 87 0 0 89 0 0 83 0 0 95 0 0 84 0 0 73 0 0 70 0 0 64 0 0 66 0 0 58 0 0 55 0 0 46 0 0 49 0 0 44 0 0 39 0 0 
19 0 0 44 0 0 47 0 0 53 0 0 55 0 0 61 0 0 57 0 0 69 0 0 85 0 0 80 0 0 79 0 0 100 0 0 100 0 0 97 0 0 99 0 0 105 0 0 117 0 0 115 0 0 127 0 0 123 0 0 129 0 0 146 0 0 131 0 0 133 0 0 146 0 0 137 0 0 135 0 0 142 0 0 137 0 0 143 0 0 151 0 0 144 0 0 147 0 0 146 0 0 139 0 0 138 0 0 130 0 0 135 0 0 131 0 0 134 0 0 126 0 0 121 0 0 118 0 0 119 0 0 112 0 0 108 0 0 103 0 0 97 0 0 100 0 0 94 0 0 85 0 0 77 0 0 75 0 0 70 0 0 68 0 0 59 0 0 56 0 0 49 0 0 40 0 0 39 0 0 
16 0 0 43 0 0 50 0 0 57 0 0 58 0 0 70 0 0 74 0 0 82 0 0 88 0 0 85 0 0 101 0 0 98 0 0 115 0 0 108 0 0 119 0 0 127 0 0 136 0 0 140 0 0 134 0 0 145 0 0 139 0 0 139 0 0 154 0 0 166 0 0 162 0 0 162 0 0 152 0 0 159 0 0 150 0 0 157 0 0 158 0 0 161 0 0 157 0 0 178 0 0 166 0 0 158 0 0 153 0 0 157 0 0 154 0 0 144 0 0 144 0 0 146 0 0 139 0 0 140 0 0 126 0 0 127 0 0 113 0 0 110 0 0 111 0 0 102 0 0 103 0 0 93 0 0 82 0 0 74 0 0 68 0 0 74 0 0 63 0 0 58 0 0 48 0 0 51 0 0 
19 0 0 49 0 0 49 0 0 63 0 0 71 0 0 71 0 0 80 0 0 88 0 0 92 0 0 98 0 0 124 0 0 109 0 0 124 0 0 129 0 0 142 0 0 146 0 0 149 0 0 162 0 0 168 0 0 172 0 0 176 0 0 150 0 0 191 0 0 180 0 0 194 0 0 190 0 0 189 0 0 172 0 0 187 0 0 183 0 0 175 0 0 192 0 0 189 0 0 182 0 0 173 0 0 189 0 0 188 0 0 172 0 0 172 0 0 181 0 0 171 0 0 161 0 0 155 0 0 159 0 0 162 0 0 150 0 0 143 0 0 122 0 0 130 0 0 118 0 0 112 0 0 105 0 0 98 0 0 84 0 0 83 0 0 69 0 0 68 0 0 62 0 0 61 0 0 48 0 0 
22 0 0 50 0 0 54 0 0 64 0 0 76 0 0 82 0 0 89 0 0 96 0 0 108 0 0 117 0 0 129 0 0 137 0 0 138 0 0 146 0 0 167 0 0 173 0 0 187 0 0 184 0 0 196 0 0 184 0 0 201 0 0 191 0 0 209 0 0 212 0 0 217 0 0 212 0 0 211 0 0 212 0 0 218 0 0 224 0 0 218 0 0 214 0 0 208 0 0 207 0 0 213 0 0 208 0 0 219 0 0 194 0 0 199 0 0 222 0 0 201 0 0 191 0 0 185 0 0 189 0 0 175 0 0 169 0 0 170 0 0 169 0 0 150 0 0 147 0 0 123 0 0 117 0 0 116 0 0 100 0 0 88 0 0 80 0 0 72 0 0 62 0 0 66 0 0 51 0 0 
23 0 0 58 0 0 80 0 0 74 0 0 81 0 0 90 0 0 95 0 0 109 0 0 124 0 0 130 0 0 148 0 0 163 0 0 166 0 0 173 0 0 181 0 0 198 0 0 215 0 0 192 0 0 219 0 0 222 0 0 223 0 0 225 0 0 229 0 0 231 0 0 238 0 0 238 0 0 247 0 0 233 0 0 265 0 0 248 0 0 252 0 0 251 0 0 242 0 0 258 0 0 248 0 0 243 0 0 265 0 0 239 0 0 240 0 0 243 0 0 241 0 0 247 0 0 217 0 0 209 0 0 211 0 0 208 0 0 196 0 0 185 0 0 173 0 0 165 0 0 151 0 0 132 0 0 119 0 0 116 0 0 97 0 0 89 0 0 83 0 0 78 0 0 66 0 0 54 0 0 
25 0 0 59 0 0 72 0 0 78 0 0 92 0 0 101 0 0 115 0 0 121 0 0 139 0 0 154 0 0 168 0 0 185 0 0 218 0 0 218 0 0 239 0 0 246 0 0 271 0 0 261 0 0 275 0 0 269 0 0 282 0 0 282 0 0 288 0 0 287 0 0 284 0 0 277 0 0 299 0 0 290 0 0 308 0 0 287 0 0 278 0 0 317 0 0 295 0 0 286 0 0 289 0 0 289 0 0 284 0 0 293 0 0 300 0 0 289 0 0 279 0 0 275 0 0 265 0 0 263 0 0 252 0 0 240 0 0 227 0 0 232 0 0 211 0 0 178 0 0 168 0 0 154 0 0 146 0 0 133 0 0 113 0 0 92 0 0 84 0 0 81 0 0 62 0 0 62 0 0 
23 0 0 65 0 0 84 0 0 87 0 0 95 0 0 111 0 0 120 0 0 130 0 0 159 0 0 185 0 0 215 0 0 232 0 0 237 0 0 264 0 0 276 0 0 294 0 0 312 0 0 297 0 0 319 0 0 336 0 0 329 0 0 370 0 0 349 0 0 339 0 0 353 0 0 372 0 0 355 0 0 380 0 0 338 0 0 372 0 0 333 0 0 368 0 0 366 0 0 376 0 0 358 0 0 345 0 0 358 0 0 357 0 0 355 0 0 338 0 0 350 0 0 340 0 0 330 0 0 318 0 0 287 0 0 280 0 0 275 0 0 266 0 0 252 0 0 214 0 0 201 0 0 175 0 0 150 0 0 128 0 0 120 0 0 106 0 0 95 0 0 89 0 0 74 0 0 70 0 0 
26 0 0 70 0 0 84 0 0 87 0 0 108 0 0 116 0 0 143 0 0 159 0 0 175 0 0 206 0 0 263 0 0 302 0 0 340 0 0 362 0 0 366 0 0 390 0 0 397 0 0 423 0 0 438 0 0 414 0 0 418 0 0 434 0 0 450 0 0 427 0 0 456 0 0 447 0 0 472 0 0 473 0 0 437 0 0 461 0 0 454 0 0 462 0 0 463 0 0 427 0 0 460 0 0 474 0 0 449 0 0 455 0 0 461 0 0 445 0 0 433 0 0 411 0 0 442 0 0 410 0 0 402 0 0 393 0 0 367 0 0 335 0 0 328 0 0 284 0 0 257 0 0 219 0 0 163 0 0 146 0 0 147 0 0 129 0 0 107 0 0 88 0 0 79 0 0 70 0 0 
26 0 0 71 0 0 80 0 0 96 0 0 112 0 0 120 0 0 148 0 0 167 0 0 199 0 0 245 0 0 1226 0 0 2163 0 0 2212 0 0 2172 0 0 2266 0 0 2196 0 0 2284 0 0 2333 0 0 2323 0 0 2259 0 0 2223 0 0 2355 0 0 2295 0 0 2374 0 0 2336 0 0 2272 0 0 2407 0 0 2364 0 0 2336 0 0 2344 0 0 2338 0 0 2339 0 0 2302 0 0 2273 0 0 2310 0 0 2357 0 0 2276 0 0 2310 0 0 2351 0 0 2333 0 0 2267 0 0 2293 0 0 2317 0 0 2269 0 0 2325 0 0 2262 0 0 2212 0 0 2231 0 0 2203 0 0 2180 0 0 1214 0 0 258 0 0 209 0 0 163 0 0 154 0 0 130 0 0 107 0 0 103 0 0 86 0 0 69 0 0 
33 0 0 79 0 0 89 0 0 108 0 0 116 0 0 143 0 0 146 0 0 180 0 0 234 0 0 281 0 0 2169 0 0 3945 0 0 4087 0 0 4066 0 0 4093 0 0 4086 0 0 4145 0 0 4153 0 0 4176 0 0 4265 0 0 4229 0 0 4257 0 0 4151 0 0 4168 0 0 4111 0 0 4310 0 0 4140 0 0 4277 0 0 4241 0 0 4223 0 0 4151 0 0 4194 0 0 4075 0 0 4260 0 0 4198 0 0 4109 0 0 4167 0 0 4113 0 0 4181 0 0 4157 0 0 4147 0 0 4213 0 0 4245 0 0 4212 0 0 4176 0 0 4123 0 0 4041 0 0 4102 0 0 4014 0 0 3927 0 0 2072 0 0 292 0 0 232 0 0 185 0 0 163 0 0 131 0 0 118 0 0 107 0 0 95 0 0 78 0 0 
32 0 0 82 0 0 96 0 0 112 0 0 132 0 0 140 0 0 162 0 0 210 0 0 249 0 0 333 0 0 2156 0 0 4031 0 0 4080 0 0 4113 0 0 4187 0 0 4175 0 0 4315 0 0 4265 0 0 4218 0 0 4286 0 0 4318 0 0 4360 0 0 4327 0 0 4392 0 0 4325 0 0 4352 0 0 4322 0 0 4384 0 0 4249 0 0 4310 0 0 4263 0 0 4182 0 0 4300 0 0 4314 0 0 4362 0 0 4328 0 0 4321 0 0 4291 0 0 4176 0 0 4340 0 0 4338 0 0 4334 0 0 4307 0 0 4302 0 0 4271 0 0 4245 0 0 4120 0 0 4172 0 0 3995 0 0 3948 0 0 2135 0 0 332 0 0 246 0 0 196 0 0 180 0 0 153 0 0 125 0 0 125 0 0 96 0 0 78 0 0 
34 0 0 84 0 0 105 0 0 117 0 0 145 0 0 163 0 0 190 0 0 225 0 0 275 0 0 340 0 0 2224 0 0 4177 0 0 4143 0 0 4097 0 0 4311 0 0 4158 0 0 4214 0 0 4268 0 0 4314 0 0 4282 0 0 4328 0 0 4355 0 0 4314 0 0 4428 0 0 4379 0 0 4461 0 0 4408 0 0 4355 0 0 4419 0 0 4327 0 0 4340 0 0 4368 0 0 4385 0 0 4375 0 0 4410 0 0 4329 0 0 4374 0 0 4487 0 0 4356 0 0 4327 0 0 4381 0 0 4343 0 0 4417 0 0 4249 0 0 4313 0 0 4274 0 0 4200 0 0 4173 0 0 4182 0 0 4063 0 0 2254 0 0 360 0 0 278 0 0 226 0 0 177 0 0 152 0 0 140 0 0 110 0 0 95 0 0 83 0 0 
34 0 0 93 0 0 107 0 0 115 0 0 137 0 0 173 0 0 201 0 0 223 0 0 288 0 0 367 0 0 2223 0 0 4034 0 0 4276 0 0 4233 0 0 4129 0 0 4359 0 0 4313 0 0 4307 0 0 4262 0 0 4389 0 0 4407 0 0 4364 0 0 4363 0 0 4389 0 0 4437 0 0 4414 0 0 4316 0 0 4398 0 0 4438 0 0 4408 0 0 4412 0 0 4385 0 0 4492 0 0 4423 0 0 4449 0 0 4381 0 0 4441 0 0 4369 0 0 4333 0 0 4447 0 0 4402 0 0 4378 0 0 4307 0 0 4396 0 0 4271 0 0 4349 0 0 4347 0 0 4172 0 0 4177 0 0 4093 0 0 2267 0 0 366 0 0 296 0 0 215 0 0 191 0 0 176 0 0 138 0 0 124 0 0 103 0 0 88 0 0 
34 0 0 90 0 0 111 0 0 122 0 0 142 0 0 163 0 0 199 0 0 231 0 0 292 0 0 388 0 0 2266 0 0 4132 0 0 4203 0 0 4105 0 0 4294 0 0 4367 0 0 4401 0 0 4401 0 0 4377 0 0 4428 0 0 4290 0 0 4484 0 0 4435 0 0 4439 0 0 4417 0 0 4470 0 0 4460 0 0 4383 0 0 4483 0 0 4461 0 0 4403 0 0 4491 0 0 4437 0 0 4510 0 0 4559 0 0 4485 0 0 4520 0 0 4490 0 0 4414 0 0 4437 0 0 4359 0 0 4495 0 0 4548 0 0 4493 0 0 4408 0 0 4385 0 0 4187 0 0 4270 0 0 4244 0 0 4150 0 0 2208 0 0 394 0 0 300 0 0 250 0 0 210 0 0 169 0 0 145 0 0 127 0 0 110 0 0 94 0 0 
36 0 0 100 0 0 110 0 0 121 0 0 148 0 0 184 0 0 222 0 0 237 0 0 299 0 0 399 0 0 2226 0 0 4194 0 0 4227 0 0 4246 0 0 4291 0 0 4328 0 0 4470 0 0 4432 0 0 4453 0 0 4427 0 0 4468 0 0 4477 0 0 4517 0 0 4364 0 0 4344 0 0 4484 0 0 4459 0 0 4486 0 0 4357 0 0 4587 0 0 4482 0 0 4448 0 0 4483 0 0 4477 0 0 4607 0 0 4470 0 0 4531 0 0 4470 0 0 4307 0 0 4415 0 0 4385 0 0 4556 0 0 4455 0 0 4372 0 0 4411 0 0 4489 0 0 4264 0 0 4159 0 0 4172 0 0 4101 0 0 2303 0 0 409 0 0 296 0 0 243 0 0 205 0 0 184 0 0 143 0 0 125 0 0 103 0 0 111 0 0 
35 0 0 95 0 0 124 0 0 141 0 0 150 0 0 194 0 0 214 0 0 249 0 0 318 0 0 399 0 0 2331 0 0 4200 0 0 4254 0 0 4337 0 0 4240 0 0 4312 0 0 4330 0 0 4427 0 0 4333 0 0 4384 0 0 4402 0 0 4523 0 0 4431 0 0 4471 0 0 4475 0 0 4527 0 0 4554 0 0 4433 0 0 4554 0 0 4525 0 0 4498 0 0 4493 0 0 4446 0 0 4422 0 0 4423 0 0 4532 0 0 4570 0 0 4504 0 0 4435 0 0 4588 0 0 4427 0 0 4410 0 0 4439 0 0 4452 0 0 4423 0 0 4392 0 0 4381 0 0 4281 0 0 4282 0 0 4171 0 0 2238 0 0 388 0 0 307 0 0 256 0 0 214 0 0 189 0 0 147 0 0 131 0 0 121 0 0 94 0 0 
38 0 0 106 0 0 129 0 0 134 0 0 157 0 0 184 0 0 226 0 0 260 0 0 328 0 0 430 0 0 2337 0 0 4096 0 0 4372 0 0 4251 0 0 4443 0 0 4426 0 0 4317 0 0 4425 0 0 4523 0 0 4335 0 0 4425 0 0 4424 0 0 4466 0 0 4518 0 0 4452 0 0 4516 0 0 4591 0 0 4592 0 0 4593 0 0 4447 0 0 4545 0 0 4594 0 0 4585 0 0 4557 0 0 4578 0 0 4482 0 0 4556 0 0 4484 0 0 4399 0 0 4535 0 0 4431 0 0 4385 0 0 4457 0 0 4398 0 0 4416 0 0 4334 0 0 4425 0 0 4395 0 0 4283 0 0 4078 0 0 2307 0 0 411 0 0 321 0 0 271 0 0 229 0 0 176 0 0 168 0 0 143 0 0 117 0 0 100 0 0 
38 0 0 105 0 0 128 0 0 140 0 0 162 0 0 192 0 0 227 0 0 275 0 0 318 0 0 423 0 0 2344 0 0 4190 0 0 4184 0 0 4320 0 0 4387 0 0 4427 0 0 4431 0 0 4545 0 0 4445 0 0 4472 0 0 4512 0 0 4478 0 0 4566 0 0 4565 0 0 4442 0 0 4481 0 0 4526 0 0 4585 0 0 4566 0 0 4594 0 0 4590 0 0 4461 0 0 4488 0 0 4564 0 0 4533 0 0 4655 0 0 4566 0 0 4518 0 0 4505 0 0 4474 0 0 4453 0 0 4464 0 0 4458 0 0 4380 0 0 4457 0 0 4431 0 0 4443 0 0 4419 0 0 4306 0 0 4245 0 0 2318 0 0 417 0 0 354 0 0 289 0 0 215 0 0 186 0 0 168 0 0 144 0 0 127 0 0 105 0 0 
40 0 0 111 0 0 131 0 0 141 0 0 172 0 0 199 0 0 244 0 0 274 0 0 325 0 0 419 0 0 2356 0 0 4179 0 0 4258 0 0 4395 0 0 4411 0 0 4341 0 0 4453 0 0 4420 0 0 4441 0 0 4444 0 0 4555 0 0 4572 0 0 4467 0 0 4674 0 0 4501 0 0 4480 0 0 4512 0 0 4589 0 0 4529 0 0 4539 0 0 4547 0 0 4479 0 0 4573 0 0 4576 0 0 4585 0 0 4509 0 0 4486 0 0 4650 0 0 4486 0 0 4459 0 0 4483 0 0 4475 0 0 4491 0 0 4396 0 0 4379 0 0 4398 0 0 4375 0 0 4296 0 0 4279 0 0 4170 0 0 2348 0 0 447 0 0 326 0 0 276 0 0 231 0 0 196 0 0 173 0 0 148 0 0 133 0 0 107 0 0 
36 0 0 107 0 0 138 0 0 144 0 0 176 0 0 206 0 0 245 0 0 278 0 0 355 0 0 470 0 0 2297 0 0 4215 0 0 4333 0 0 4387 0 0 4448 0 0 4483 0 0 4369 0 0 4385 0 0 4443 0 0 4526 0 0 4502 0 0 4483 0 0 4532 0 0 4580 0 0 4500 0 0 4674 0 0 4507 0 0 4485 0 0 4591 0 0 4610 0 0 4549 0 0 4538 0 0 4482 0 0 4583 0 0 4586 0 0 4471 0 0 4578 0 0 4600 0 0 4472 0 0 4543 0 0 4536 0 0 4502 0 0 4488 0 0 4499 0 0 4578 0 0 4465 0 0 4479 0 0 4319 0 0 4244 0 0 4293 0 0 2365 0 0 435 0 0 343 0 0 266 0 0 235 0 0 221 0 0 175 0 0 140 0 0 123 0 0 115 0 0 
44 0 0 110 0 0 131 0 0 153 0 0 169 0 0 202 0 0 240 0 0 286 0 0 337 0 0 442 0 0 2299 0 0 4219 0 0 4301 0 0 4308 0 0 4507 0 0 4415 0 0 4448 0 0 4532 0 0 4607 0 0 4571 0 0 4524 0 0 4730 0 0 4559 0 0 4584 0 0 4466 0 0 4693 0 0 4561 0 0 4657 0 0 4646 0 0 4564 0 0 4583 0 0 4628 0 0 4641 0 0 4609 0 0 4515 0 0 4611 0 0 4507 0 0 4628 0 0 4664 0 0 4574 0 0 4491 0 0 4575 0 0 4601 0 0 4443 0 0 4487 0 0 4343 0 0 4449 0 0 4321 0 0 4369 0 0 4164 0 0 2277 0 0 461 0 0 355 0 0 284 0 0 226 0 0 207 0 0 174 0 0 152 0 0 134 0 0 111 0 0 
42 0 0 119 0 0 123 0 0 150 0 0 184 0 0 207 0 0 245 0 0 291 0 0 357 0 0 455 0 0 2296 0 0 4163 0 0 4290 0 0 4238 0 0 4389 0 0 4423 0 0 4495 0 0 4459 0 0 4397 0 0 4536 0 0 4368 0 0 4602 0 0 4563 0 0 4573 0 0 4509 0 0 4500 0 0 4442 0 0 4596 0 0 4585 0 0 4630 0 0 4626 0 0 4609 0 0 4627 0 0 4608 0 0 4646 0 0 4597 0 0 4666 0 0 4666 0 0 4577 0 0 4543 0 0 4598 0 0 4497 0 0 4438 0 0 4458 0 0 4360 0 0 4411 0 0 4296 0 0 4393 0 0 4273 0 0 4250 0 0 2385 0 0 429 0 0 354 0 0 300 0 0 229 0 0 200 0 0 166 0 0 152 0 0 127 0 0 113 0 0 
42 0 0 114 0 0 138 0 0 164 0 0 176 0 0 212 0 0 235 0 0 293 0 0 358 0 0 448 0 0 2372 0 0 4276 0 0 4339 0 0 4343 0 0 4503 0 0 4394 0 0 4418 0 0 4530 0 0 4439 0 0 4566 0 0 4615 0 0 4516 0 0 4564 0 0 4631 0 0 4687 0 0 4531 0 0 4537 0 0 4570 0 0 4607 0 0 4572 0 0 4601 0 0 4492 0 0 4571 0 0 4602 0 0 4596 0 0 4563 0 0 4441 0 0 4601 0 0 4566 0 0 4624 0 0 4495 0 0 4439 0 0 4555 0 0 4541 0 0 4377 0 0 4463 0 0 4343 0 0 4351 0 0 4340 0 0 4242 0 0 2272 0 0 458 0 0 362 0 0 301 0 0 259 0 0 225 0 0 176 0 0 157 0 0 134 0 0 114 0 0 
43 0 0 115 0 0 141 0 0 159 0 0 170 0 0 210 0 0 253 0 0 298 0 0 346 0 0 462 0 0 2245 0 0 4214 0 0 4368 0 0 4479 0 0 4429 0 0 4429 0 0 4408 0 0 4428 0 0 4571 0 0 4580 0 0 4457 0 0 4582 0 0 4510 0 0 4608 0 0 4541 0 0 4506 0 0 4641 0 0 4588 0 0 4598 0 0 4697 0 0 4599 0 0 4544 0 0 4653 0 0 4587 0 0 4559 0 0 4564 0 0 4717 0 0 4636 0 0 4491 0 0 4507 0 0 4480 0 0 4589 0 0 4529 0 0 4439 0 0 4546 0 0 4493 0 0 4311 0 0 4278 0 0 4350 0 0 4226 0 0 2316 0 0 444 0 0 358 0 0 300 0 0 250 0 0 212 0 0 178 0 0 156 0 0 137 0 0 117 0 0 
43 0 0 123 0 0 131 0 0 152 0 0 182 0 0 212 0 0 260 0 0 287 0 0 354 0 0 470 0 0 2299 0 0 4161 0 0 4319 0 0 4388 0 0 4542 0 0 4450 0 0 4507 0 0 4522 0 0 4535 0 0 4602 0 0 4536 0 0 4560 0 0 4491 0 0 4625 0 0 4553 0 0 4650 0 0 4626 0 0 4600 0 0 4486 0 0 4655 0 0 4584 0 0 4684 0 0 4644 0 0 4565 0 0 4581 0 0 4600 0 0 4630 0 0 4702 0 0 4638 0 0 4499 0 0 4572 0 0 4532 0 0 4459 0 0 4470 0 0 4436 0 0 4499 0 0 4391 0 0 4384 0 0 4390 0 0 4209 0 0 2361 0 0 443 0 0 349 0 0 289 0 0 265 0 0 211 0 0 191 0 0 158 0 0 138 0 0 119 0 0 
47 0 0 122 0 0 142 0 0 162 0 0 181 0 0 203 0 0 241 0 0 288 0 0 346 0 0 440 0 0 2377 0 0 4211 0 0 4414 0 0 4391 0 0 4453 0 0 4467 0 0 4509 0 0 4479 0 0 4473 0 0 4541 0 0 4423 0 0 4450 0 0 4583 0 0 4562 0 0 4660 0 0 4564 0 0 4638 0 0 4625 0 0 4626 0 0 4569 0 0 4640 0 0 4628 0 0 4668 0 0 4602 0 0 4663 0 0 4615 0 0 4616 0 0 4603 0 0 4554 0 0 4596 0 0 4555 0 0 4546 0 0 4496 0 0 4451 0 0 4524 0 0 4396 0 0 4404 0 0 4427 0 0 4245 0 0 4360 0 0 2301 0 0 464 0 0 354 0 0 298 0 0 249 0 0 208 0 0 191 0 0 154 0 0 138 0 0 116 0 0 
41 0 0 126 0 0 138 0 0 166 0 0 192 0 0 220 0 0 238 0 0 296 0 0 368 0 0 460 0 0 2272 0 0 4249 0 0 4295 0 0 4359 0 0 4397 0 0 4445 0 0 4498 0 0 4525 0 0 4423 0 0 4595 0 0 4501 0 0 4442 0 0 4473 0 0 4598 0 0 4608 0 0 4539 0 0 4693 0 0 4586 0 0 4585 0 0 4572 0 0 4625 0 0 4600 0 0 4580 0 0 4677 0 0 4621 0 0 4668 0 0 4593 0 0 4562 0 0 4613 0 0 4489 0 0 4550 0 0 4674 0 0 4540 0 0 4507 0 0 4419 0 0 4480 0 0 4431 0 0 4418 0 0 4352 0 0 4285 0 0 2400 0 0 459 0 0 365 0 0 290 0 0 246 0 0 201 0 0 170 0 0 153 0 0 144 0 0 133 0 0 
38 0 0 118 0 0 144 0 0 158 0 0 178 0 0 215 0 0 246 0 0 274 0 0 380 0 0 465 0 0 2380 0 0 4270 0 0 4336 0 0 4382 0 0 4367 0 0 4507 0 0 4409 0 0 4462 0 0 4495 0 0 4529 0 0 4504 0 0 4642 0 0 4594 0 0 4579 0 0 4719 0 0 4525 0 0 4565 0 0 4580 0 0 4700 0 0 4660 0 0 4560 0 0 4609 0 0 4579 0 0 4681 0 0 4623 0 0 4670 0 0 4588 0 0 4593 0 0 4551 0 0 4519 0 0 4551 0 0 4571 0 0 4482 0 0 4495 0 0 4502 0 0 4392 0 0 4423 0 0 4406 0 0 4350 0 0 4138 0 0 2335 0 0 456 0 0 362 0 0 307 0 0 240 0 0 221 0 0 178 0 0 154 0 0 133 0 0 121 0 0 
44 0 0 122 0 0 139 0 0 168 0 0 185 0 0 217 0 0 242 0 0 282 0 0 360 0 0 463 0 0 2363 0 0 4282 0 0 4220 0 0 4232 0 0 4426 0 0 4391 0 0 4475 0 0 4410 0 0 4472 0 0 4521 0 0 4579 0 0 4701 0 0 4599 0 0 4553 0 0 4555 0 0 4605 0 0 4648 0 0 4589 0 0 4571 0 0 4570 0 0 4673 0 0 4646 0 0 4614 0 0 4575 0 0 4613 0 0 4595 0 0 4546 0 0 4557 0 0 4578 0 0 4558 0 0 4591 0 0 4584 0 0 4439 0 0 4574 0 0 4430 0 0 4427 0 0 4496 0 0 4361 0 0 4179 0 0 4188 0 0 2328 0 0 460 0 0 379 0 0 291 0 0 271 0 0 213 0 0 190 0 0 158 0 0 136 0 0 120 0 0 
49 0 0 127 0 0 144 0 0 165 0 0 187 0 0 202 0 0 248 0 0 294 0 0 334 0 0 454 0 0 2353 0 0 4224 0 0 4234 0 0 4345 0 0 4412 0 0 4432 0 0 4532 0 0 4486 0 0 4479 0 0 4549 0 0 4612 0 0 4603 0 0 4614 0 0 4620 0 0 4660 0 0 4542 0 0 4666 0 0 4551 0 0 4619 0 0 4543 0 0 4597 0 0 4731 0 0 4607 0 0 4557 0 0 4533 0 0 4630 0 0 4551 0 0 4558 0 0 4604 0 0 4603 0 0 4458 0 0 4542 0 0 4594 0 0 4470 0 0 4524 0 0 4483 0 0 4410 0 0 4377 0 0 4380 0 0 4248 0 0 2382 0 0 457 0 0 358 0 0 323 0 0 230 0 0 219 0 0 181 0 0 153 0 0 139 0 0 117 0 0 
43 0 0 111 0 0 132 0 0 152 0 0 175 0 0 206 0 0 259 0 0 294 0 0 364 0 0 452 0 0 2376 0 0 4203 0 0 4414 0 0 4362 0 0 4430 0 0 4524 0 0 4462 0 0 4562 0 0 4616 0 0 4434 0 0 4624 0 0 4622 0 0 4634 0 0 4663 0 0 4543 0 0 4598 0 0 4609 0 0 4507 0 0 4622 0 0 4707 0 0 4637 0 0 4643 0 0 4524 0 0 4733 0 0 4576 0 0 4493 0 0 4463 0 0 4697 0 0 4641 0 0 4468 0 0 4560 0 0 4508 0 0 4554 0 0 4610 0 0 4441 0 0 4468 0 0 4364 0 0 4394 0 0 4353 0 0 4234 0 0 2380 0 0 452 0 0 360 0 0 298 0 0 247 0 0 211 0 0 196 0 0 159 0 0 144 0 0 124 0 0 
49 0 0 117 0 0 127 0 0 162 0 0 177 0 0 211 0 0 257 0 0 311 0 0 361 0 0 478 0 0 2292 0 0 4276 0 0 4290 0 0 4296 0 0 4423 0 0 4478 0 0 4507 0 0 4496 0 0 4476 0 0 4543 0 0 4670 0 0 4601 0 0 4592 0 0 4645 0 0 4564 0 0 4531 0 0 4581 0 0 4549 0 0 4651 0 0 4633 0 0 4695 0 0 4595 0 0 4624 0 0 4510 0 0 4560 0 0 4520 0 0 4486 0 0 4579 0 0 4657 0 0 4662 0 0 4509 0 0 4611 0 0 4481 0 0 4432 0 0 4444 0 0 4495 0 0 4495 0 0 4293 0 0 4326 0 0 4184 0 0 2419 0 0 465 0 0 360 0 0 309 0 0 254 0 0 205 0 0 191 0 0 160 0 0 137 0 0 122 0 0 
42 0 0 114 0 0 144 0 0 160 0 0 188 0 0 221 0 0 251 0 0 296 0 0 326 0 0 456 0 0 2288 0 0 4210 0 0 4361 0 0 4306 0 0 4448 0 0 4459 0 0 4474 0 0 4486 0 0 4600 0 0 4481 0 0 4558 0 0 4508 0 0 4511 0 0 4509 0 0 4575 0 0 4586 0 0 4578 0 0 4487 0 0 4659 0 0 4575 0 0 4636 0 0 4653 0 0 4513 0 0 4683 0 0 4601 0 0 4648 0 0 4538 0 0 4482 0 0 4585 0 0 4548 0 0 4497 0 0 4518 0 0 4492 0 0 4446 0 0 4438 0 0 4453 0 0 4397 0 0 4361 0 0 4267 0 0 4127 0 0 2270 0 0 459 0 0 355 0 0 300 0 0 253 0 0 231 0 0 195 0 0 157 0 0 133 0 0 124 0 0 
37 0 0 118 0 0 137 0 0 166 0 0 178 0 0 207 0 0 233 0 0 273 0 0 360 0 0 450 0 0 2309 0 0 4166 0 0 4440 0 0 4348 0 0 4452 0 0 4400 0 0 4431 0 0 4508 0 0 4391 0 0 4587 0 0 4645 0 0 4490 0 0 4574 0 0 4572 0 0 4524 0 0 4605 0 0 4549 0 0 4462 0 0 4536 0 0 4513 0 0 4731 0 0 4516 0 0 4557 0 0 4487 0 0 4608 0 0 4661 0 0 4514 0 0 4553 0 0 4583 0 0 4593 0 0 4577 0 0 4542 0 0 4430 0 0 4418 0 0 4477 0 0 4450 0 0 4439 0 0 4372 0 0 4271 0 0 4223 0 0 2276 0 0 455 0 0 356 0 0 287 0 0 243 0 0 219 0 0 173 0 0 162 0 0 135 0 0 118 0 0 
43 0 0 113 0 0 134 0 0 147 0 0 178 0 0 198 0 0 252 0 0 293 0 0 338 0 0 432 0 0 2391 0 0 4245 0 0 4337 0 0 4287 0 0 4407 0 0 4409 0 0 4425 0 0 4529 0 0 4572 0 0 4509 0 0 4523 0 0 4498 0 0 4559 0 0 4564 0 0 4532 0 0 4607 0 0 4608 0 0 4556 0 0 4607 0 0 4577 0 0 4555 0 0 4544 0 0 4582 0 0 4620 0 0 4575 0 0 4538 0 0 4521 0 0 4532 0 0 4504 0 0 4541 0 0 4468 0 0 4555 0 0 4508 0 0 4550 0 0 4549 0 0 4532 0 0 4345 0 0 4343 0 0 4318 0 0 4197 0 0 2341 0 0 476 0 0 354 0 0 304 0 0 257 0 0 202 0 0 181 0 0 171 0 0 140 0 0 116 0 0 
45 0 0 118 0 0 136 0 0 143 0 0 179 0 0 220 0 0 224 0 0 288 0 0 356 0 0 459 0 0 2351 0 0 4167 0 0 4337 0 0 4362 0 0 4353 0 0 4309 0 0 4425 0 0 4518 0 0 4460 0 0 4623 0 0 4499 0 0 4411 0 0 4525 0 0 4575 0 0 4630 0 0 4732 0 0 4490 0 0 4447 0 0 4560 0 0 4643 0 0 4616 0 0 4664 0 0 4595 0 0 4671 0 0 4644 0 0 4503 0 0 4530 0 0 4573 0 0 4564 0 0 4478 0 0 4587 0 0 4477 0 0 4481 0 0 4401 0 0 4484 0 0 4404 0 0 4428 0 0 4435 0 0 4280 0 0 4253 0 0 2434 0 0 447 0 0 359 0 0 273 0 0 245 0 0 209 0 0 185 0 0 158 0 0 141 0 0 118 0 0 
42 0 0 101 0 0 132 0 0 154 0 0 183 0 0 204 0 0 239 0 0 284 0 0 347 0 0 458 0 0 2346 0 0 4226 0 0 4243 0 0 4356 0 0 4503 0 0 4493 0 0 4394 0 0 4468 0 0 4493 0 0 4611 0 0 4482 0 0 4559 0 0 4570 0 0 4632 0 0 4497 0 0 4578 0 0 4616 0 0 4549 0 0 4601 0 0 4635 0 0 4566 0 0 4602 0 0 4545 0 0 4585 0 0 4611 0 0 4409 0 0 4669 0 0 4581 0 0 4507 0 0 4571 0 0 4602 0 0 4469 0 0 4561 0 0 4545 0 0 4356 0 0 4431 0 0 4370 0 0 4384 0 0 4378 0 0 4155 0 0 2370 0 0 451 0 0 312 0 0 269 0 0 242 0 0 198 0 0 186 0 0 157 0 0 134 0 0 113 0 0 
40 0 0 109 0 0 130 0 0 142 0 0 166 0 0 202 0 0 243 0 0 266 0 0 349 0 0 430 0 0 2354 0 0 4237 0 0 4194 0 0 4335 0 0 4458 0 0 4448 0 0 4534 0 0 4436 0 0 4465 0 0 4427 0 0 4508 0 0 4614 0 0 4489 0 0 4565 0 0 4511 0 0 4502 0 0 4495 0 0 4539 0 0 4475 0 0 4524 0 0 4511 0 0 4586 0 0 4620 0 0 4604 0 0 4610 0 0 4573 0 0 4620 0 0 4527 0 0 4578 0 0 4543 0 0 4422 0 0 4521 0 0 4538 0 0 4390 0 0 4386 0 0 4474 0 0 4352 0 0 4384 0 0 4241 0 0 4114 0 0 2310 0 0 426 0 0 335 0 0 279 0 0 240 0 0 198 0 0 177 0 0 166 0 0 137 0 0 118 0 0 
43 0 0 105 0 0 123 0 0 150 0 0 172 0 0 192 0 0 235 0 0 274 0 0 340 0 0 438 0 0 2326 0 0 4175 0 0 4331 0 0 4402 0 0 4327 0 0 4388 0 0 4349 0 0 4525 0 0 4461 0 0 4448 0 0 4536 0 0 4392 0 0 4583 0 0 4548 0 0 4487 0 0 4486 0 0 4406 0 0 4579 0 0 4549 0 0 4623 0 0 4530 0 0 4532 0 0 4565 0 0 4598 0 0 4463 0 0 4620 0 0 4574 0 0 4479 0 0 4601 0 0 4489 0 0 4454 0 0 4545 0 0 4540 0 0 4464 0 0 4486 0 0 4391 0 0 4382 0 0 4363 0 0 4147 0 0 4102 0 0 2319 0 0 439 0 0 321 0 0 273 0 0 225 0 0 194 0 0 158 0 0 146 0 0 136 0 0 115 0 0 
45 0 0 106 0 0 119 0 0 134 0 0 152 0 0 195 0 0 235 0 0 272 0 0 328 0 0 419 0 0 2354 0 0 4215 0 0 4326 0 0 4422 0 0 4379 0 0 4351 0 0 4448 0 0 4450 0 0 4429 0 0 4512 0 0 4568 0 0 4557 0 0 4481 0 0 4447 0 0 4521 0 0 4519 0 0 4520 0 0 4537 0 0 4519 0 0 4571 0 0 4499 0 0 4432 0 0 4697 0 0 4584 0 0 4493 0 0 4536 0 0 4607 0 0 4613 0 0 4530 0 0 4528 0 0 4532 0 0 4548 0 0 4464 0 0 4363 0 0 4586 0 0 4492 0 0 4330 0 0 4360 0 0 4261 0 0 4117 0 0 2323 0 0 419 0 0 318 0 0 273 0 0 240 0 0 193 0 0 161 0 0 148 0 0 125 0 0 113 0 0 
36 0 0 105 0 0 122 0 0 138 0 0 162 0 0 184 0 0 212 0 0 248 0 0 308 0 0 447 0 0 2305 0 0 4193 0 0 4237 0 0 4317 0 0 4378 0 0 4378 0 0 4491 0 0 4423 0 0 4473 0 0 4492 0 0 4592 0 0 4465 0 0 4637 0 0 4576 0 0 4548 0 0 4449 0 0 4615 0 0 4488 0 0 4614 0 0 4474 0 0 4440 0 0 4570 0 0 4467 0 0 4637 0 0 4459 0 0 4556 0 0 4649 0 0 4487 0 0 4481 0 0 4451 0 0 4407 0 0 4567 0 0 4528 0 0 4521 0 0 4406 0 0 4424 0 0 4318 0 0 4258 0 0 4369 0 0 4106 0 0 2180 0 0 408 0 0 330 0 0 264 0 0 234 0 0 207 0 0 155 0 0 137 0 0 122 0 0 111 0 0 
35 0 0 111 0 0 111 0 0 128 0 0 160 0 0 192 0 0 205 0 0 261 0 0 325 0 0 412 0 0 2240 0 0 4218 0 0 4217 0 0 4350 0 0 4320 0 0 4431 0 0 4421 0 0 4399 0 0 4407 0 0 4397 0 0 4527 0 0 4529 0 0 4545 0 0 4515 0 0 4551 0 0 4475 0 0 4560 0 0 4541 0 0 4607 0 0 4494 0 0 4454 0 0 4493 0 0 4473 0 0 4509 0 0 4489 0 0 4483 0 0 4448 0 0 4456 0 0 4527 0 0 4486 0 0 4427 0 0 4487 0 0 4548 0 0 4423 0 0 4474 0 0 4433 0 0 4271 0 0 4360 0 0 4283 0 0 4169 0 0 2258 0 0 404 0 0 320 0 0 275 0 0 211 0 0 186 0 0 157 0 0 130 0 0 116 0 0 98 0 0 
40 0 0 94 0 0 115 0 0 135 0 0 145 0 0 167 0 0 201 0 0 247 0 0 300 0 0 419 0 0 2278 0 0 4246 0 0 4206 0 0 4234 0 0 4291 0 0 4385 0 0 4354 0 0 4324 0 0 4471 0 0 4508 0 0 4437 0 0 4427 0 0 4383 0 0 4572 0 0 4425 0 0 4501 0 0 4367 0 0 4463 0 0 4502 0 0 4489 0 0 4456 0 0 4409 0 0 4486 0 0 4424 0 0 4519 0 0 4557 0 0 4519 0 0 4505 0 0 4497 0 0 4425 0 0 4420 0 0 4438 0 0 4348 0 0 4424 0 0 4440 0 0 4405 0 0 4366 0 0 4392 0 0 4299 0 0 4121 0 0 2280 0 0 388 0 0 303 0 0 237 0 0 213 0 0 186 0 0 143 0 0 144 0 0 116 0 0 93 0 0 
36 0 0 97 0 0 116 0 0 134 0 0 143 0 0 165 0 0 189 0 0 240 0 0 294 0 0 392 0 0 2276 0 0 4065 0 0 4254 0 0 4315 0 0 4274 0 0 4374 0 0 4463 0 0 4431 0 0 4371 0 0 4364 0 0 4405 0 0 4369 0 0 4451 0 0 4400 0 0 4416 0 0 4372 0 0 4542 0 0 4404 0 0 4385 0 0 4471 0 0 4487 0 0 4397 0 0 4396 0 0 4431 0 0 4535 0 0 4407 0 0 4403 0 0 4492 0 0 4469 0 0 4360 0 0 4362 0 0 4377 0 0 4503 0 0 4425 0 0 4383 0 0 4338 0 0 4341 0 0 4224 0 0 4255 0 0 4048 0 0 2272 0 0 401 0 0 294 0 0 232 0 0 208 0 0 169 0 0 147 0 0 125 0 0 103 0 0 98 0 0 
37 0 0 92 0 0 111 0 0 119 0 0 139 0 0 162 0 0 201 0 0 228 0 0 284 0 0 361 0 0 2282 0 0 4150 0 0 4287 0 0 4169 0 0 4322 0 0 4232 0 0 4308 0 0 4340 0 0 4333 0 0 4332 0 0 4368 0 0 4441 0 0 4413 0 0 4470 0 0 4377 0 0 4439 0 0 4372 0 0 4422 0 0 4327 0 0 4472 0 0 4385 0 0 4444 0 0 4414 0 0 4461 0 0 4479 0 0 4512 0 0 4427 0 0 4419 0 0 4535 0 0 4482 0 0 4408 0 0 4440 0 0 4381 0 0 4389 0 0 4409 0 0 4369 0 0 4248 0 0 4137 0 0 4184 0 0 4023 0 0 2181 0 0 347 0 0 269 0 0 222 0 0 192 0 0 161 0 0 141 0 0 124 0 0 103 0 0 96 0 0 
33 0 0 96 0 0 102 0 0 125 0 0 128 0 0 147 0 0 168 0 0 219 0 0 264 0 0 362 0 0 2213 0 0 4203 0 0 4093 0 0 4203 0 0 4291 0 0 4361 0 0 4324 0 0 4400 0 0 4455 0 0 4231 0 0 4315 0 0 4341 0 0 4375 0 0 4324 0 0 4296 0 0 4402 0 0 4342 0 0 4349 0 0 4411 0 0 4324 0 0 4328 0 0 4360 0 0 4303 0 0 4316 0 0 4384 0 0 4369 0 0 4406 0 0 4356 0 0 4321 0 0 4381 0 0 4353 0 0 4329 0 0 4199 0 0 4287 0 0 4281 0 0 4261 0 0 4299 0 0 4166 0 0 4266 0 0 4021 0 0 2252 0 0 364 0 0 275 0 0 208 0 0 183 0 0 151 0 0 136 0 0 121 0 0 103 0 0 91 0 0 
34 0 0 89 0 0 99 0 0 106 0 0 133 0 0 143 0 0 177 0 0 211 0 0 248 0 0 320 0 0 2187 0 0 3990 0 0 4085 0 0 4215 0 0 4224 0 0 4235 0 0 4214 0 0 4425 0 0 4267 0 0 4315 0 0 4301 0 0 4294 0 0 4209 0 0 4213 0 0 4299 0 0 4302 0 0 4229 0 0 4366 0 0 4342 0 0 4314 0 0 4361 0 0 4314 0 0 4275 0 0 4347 0 0 4334 0 0 4273 0 0 4298 0 0 4273 0 0 4331 0 0 4280 0 0 4285 0 0 4273 0 0 4307 0 0 4256 0 0 4188 0 0 4286 0 0 4175 0 0 4253 0 0 4064 0 0 4020 0 0 2167 0 0 330 0 0 259 0 0 205 0 0 180 0 0 144 0 0 135 0 0 105 0 0 93 0 0 79 0 0 
28 0 0 84 0 0 87 0 0 108 0 0 116 0 0 133 0 0 151 0 0 193 0 0 214 0 0 285 0 0 2111 0 0 3908 0 0 4035 0 0 4105 0 0 4171 0 0 4162 0 0 4160 0 0 4168 0 0 4139 0 0 4183 0 0 4201 0 0 4125 0 0 4238 0 0 4290 0 0 4243 0 0 4188 0 0 4185 0 0 4214 0 0 4261 0 0 4210 0 0 4195 0 0 4119 0 0 4258 0 0 4142 0 0 4212 0 0 4304 0 0 4191 0 0 4248 0 0 4233 0 0 4104 0 0 4131 0 0 4195 0 0 4124 0 0 4199 0 0 4135 0 0 4192 0 0 4071 0 0 4171 0 0 4100 0 0 4022 0 0 2196 0 0 298 0 0 223 0 0 182 0 0 155 0 0 130 0 0 131 0 0 103 0 0 89 0 0 75 0 0 
26 0 0 76 0 0 86 0 0 90 0 0 116 0 0 128 0 0 144 0 0 165 0 0 193 0 0 275 0 0 1225 0 0 2115 0 0 2198 0 0 2189 0 0 2334 0 0 2264 0 0 2179 0 0 2327 0 0 2299 0 0 2227 0 0 2313 0 0 2310 0 0 2306 0 0 2252 0 0 2338 0 0 2362 0 0 2337 0 0 2343 0 0 2403 0 0 2372 0 0 2284 0 0 2386 0 0 2335 0 0 2365 0 0 2392 0 0 2385 0 0 2319 0 0 2268 0 0 2342 0 0 2331 0 0 2331 0 0 2321 0 0 2302 0 0 2310 0 0 2282 0 0 2273 0 0 2209 0 0 2168 0 0 2227 0 0 2127 0 0 1202 0 0 267 0 0 181 0 0 173 0 0 151 0 0 125 0 0 109 0 0 97 0 0 84 0 0 78 0 0 
22 0 0 75 0 0 80 0 0 89 0 0 101 0 0 109 0 0 132 0 0 154 0 0 184 0 0 218 0 0 266 0 0 300 0 0 326 0 0 354 0 0 374 0 0 374 0 0 390 0 0 422 0 0 415 0 0 424 0 0 440 0 0 442 0 0 445 0 0 460 0 0 455 0 0 477 0 0 449 0 0 476 0 0 482 0 0 471 0 0 479 0 0 469 0 0 493 0 0 446 0 0 456 0 0 458 0 0 452 0 0 447 0 0 451 0 0 436 0 0 425 0 0 415 0 0 423 0 0 415 0 0 398 0 0 407 0 0 385 0 0 347 0 0 329 0 0 334 0 0 273 0 0 214 0 0 174 0 0 157 0 0 134 0 0 111 0 0 99 0 0 94 0 0 76 0 0 72 0 0 
28 0 0 64 0 0 72 0 0 86 0 0 92 0 0 114 0 0 125 0 0 142 0 0 148 0 0 160 0 0 196 0 0 220 0 0 248 0 0 277 0 0 300 0 0 297 0 0 293 0 0 312 0 0 319 0 0 329 0 0 358 0 0 358 0 0 330 0 0 336 0 0 342 0 0 343 0 0 346 0 0 346 0 0 366 0 0 344 0 0 352 0 0 363 0 0 355 0 0 362 0 0 350 0 0 342 0 0 342 0 0 351 0 0 330 0 0 336 0 0 336 0 0 336 0 0 311 0 0 313 0 0 287 0 0 309 0 0 279 0 0 258 0 0 247 0 0 232 0 0 200 0 0 166 0 0 162 0 0 136 0 0 123 0 0 111 0 0 94 0 0 77 0 0 80 0 0 67 0 0 
22 0 0 60 0 0 74 0 0 87 0 0 90 0 0 106 0 0 113 0 0 118 0 0 141 0 0 165 0 0 177 0 0 186 0 0 199 0 0 200 0 0 241 0 0 250 0 0 250 0 0 253 0 0 277 0 0 271 0 0 300 0 0 288 0 0 278 0 0 278 0 0 288 0 0 277 0 0 295 0 0 310 0 0 296 0 0 293 0 0 272 0 0 286 0 0 304 0 0 299 0 0 282 0 0 275 0 0 306 0 0 298 0 0 291 0 0 286 0 0 275 0 0 271 0 0 270 0 0 253 0 0 252 0 0 243 0 0 249 0 0 220 0 0 202 0 0 189 0 0 165 0 0 146 0 0 136 0 0 114 0 0 111 0 0 94 0 0 88 0 0 83 0 0 69 0 0 62 0 0 
24 0 0 61 0 0 65 0 0 71 0 0 83 0 0 95 0 0 99 0 0 107 0 0 122 0 0 141 0 0 148 0 0 157 0 0 164 0 0 181 0 0 174 0 0 200 0 0 220 0 0 208 0 0 226 0 0 230 0 0 224 0 0 222 0 0 227 0 0 238 0 0 233 0 0 256 0 0 244 0 0 252 0 0 259 0 0 251 0 0 243 0 0 246 0 0 246 0 0 242 0 0 251 0 0 239 0 0 244 0 0 242 0 0 240 0 0 231 0 0 223 0 0 234 0 0 212 0 0 229 0 0 214 0 0 193 0 0 197 0 0 189 0 0 173 0 0 155 0 0 141 0 0 130 0 0 114 0 0 107 0 0 92 0 0 85 0 0 80 0 0 74 0 0 64 0 0 59 0 0 
21 0 0 55 0 0 53 0 0 69 0 0 74 0 0 83 0 0 89 0 0 103 0 0 116 0 0 127 0 0 126 0 0 146 0 0 146 0 0 157 0 0 162 0 0 169 0 0 174 0 0 192 0 0 189 0 0 183 0 0 196 0 0 197 0 0 203 0 0 206 0 0 201 0 0 208 0 0 216 0 0 215 0 0 221 0 0 218 0 0 213 0 0 223 0 0 209 0 0 209 0 0 218 0 0 192 0 0 212 0 0 217 0 0 188 0 0 211 0 0 195 0 0 213 0 0 193 0 0 181 0 0 185 0 0 170 0 0 152 0 0 146 0 0 145 0 0 126 0 0 121 0 0 106 0 0 110 0 0 99 0 0 90 0 0 80 0 0 76 0 0 63 0 0 61 0 0 54 0 0 
18 0 0 50 0 0 57 0 0 62 0 0 68 0 0 71 0 0 74 0 0 87 0 0 104 0 0 100 0 0 112 0 0 127 0 0 124 0 0 129 0 0 140 0 0 144 0 0 155 0 0 170 0 0 157 0 0 155 0 0 173 0 0 166 0 0 179 0 0 175 0 0 183 0 0 186 0 0 184 0 0 185 0 0 181 0 0 183 0 0 185 0 0 190 0 0 176 0 0 169 0 0 185 0 0 180 0 0 167 0 0 181 0 0 170 0 0 174 0 0 166 0 0 170 0 0 161 0 0 164 0 0 143 0 0 147 0 0 148 0 0 130 0 0 130 0 0 118 0 0 111 0 0 100 0 0 103 0 0 87 0 0 81 0 0 76 0 0 67 0 0 64 0 0 52 0 0 48 0 0 
19 0 0 44 0 0 53 0 0 62 0 0 58 0 0 63 0 0 66 0 0 77 0 0 86 0 0 88 0 0 98 0 0 100 0 0 105 0 0 117 0 0 118 0 0 138 0 0 133 0 0 134 0 0 136 0 0 138 0 0 148 0 0 147 0 0 143 0 0 147 0 0 157 0 0 158 0 0 152 0 0 167 0 0 167 0 0 163 0 0 156 0 0 166 0 0 156 0 0 157 0 0 154 0 0 160 0 0 165 0 0 155 0 0 150 0 0 156 0 0 136 0 0 145 0 0 143 0 0 131 0 0 141 0 0 131 0 0 115 0 0 116 0 0 104 0 0 103 0 0 101 0 0 89 0 0 81 0 0 83 0 0 70 0 0 61 0 0 63 0 0 55 0 0 52 0 0 45 0 0 
17 0 0 46 0 0 46 0 0 51 0 0 61 0 0 58 0 0 72 0 0 69 0 0 81 0 0 85 0 0 85 0 0 91 0 0 89 0 0 102 0 0 109 0 0 110 0 0 111 0 0 119 0 0 121 0 0 127 0 0 119 0 0 123 0 0 131 0 0 132 0 0 128 0 0 129 0 0 142 0 0 135 0 0 132 0 0 132 0 0 145 0 0 145 0 0 137 0 0 136 0 0 138 0 0 132 0 0 134 0 0 128 0 0 126 0 0 129 0 0 124 0 0 122 0 0 119 0 0 127 0 0 116 0 0 101 0 0 104 0 0 95 0 0 90 0 0 94 0 0 84 0 0 77 0 0 74 0 0 69 0 0 68 0 0 62 0 0 57 0 0 48 0 0 48 0 0 41 0 0 
15 0 0 41 0 0 39 0 0 42 0 0 55 0 0 61 0 0 59 0 0 61 0 0 64 0 0 70 0 0 72 0 0 82 0 0 84 0 0 88 0 0 88 0 0 90 0 0 95 0 0 105 0 0 102 0 0 100 0 0 113 0 0 109 0 0 112 0 0 114 0 0 117 0 0 117 0 0 116 0 0 120 0 0 122 0 0 118 0 0 120 0 0 116 0 0 123 0 0 134 0 0 121 0 0 110 0 0 110 0 0 109 0 0 110 0 0 112 0 0 107 0 0 106 0 0 101 0 0 104 0 0 102 0 0 96 0 0 86 0 0 82 0 0 81 0 0 79 0 0 70 0 0 75 0 0 68 0 0 60 0 0 56 0 0 58 0 0 52 0 0 46 0 0 42 0 0 37 0 0 
