P3
# This is a dose file slice at depth 19 of 100
60 60
# now we give the maximum value of the RGB coordinates.
6518
27 0 0 65 0 0 52 0 0 59 0 0 60 0 0 65 0 0 78 0 0 73 0 0 93 0 0 112 0 0 101 0 0 117 0 0 101 0 0 122 0 0 115 0 0 125 0 0 106 0 0 128 0 0 145 0 0 123 0 0 145 0 0 152 0 0 164 0 0 148 0 0 132 0 0 119 0 0 168 0 0 170 0 0 147 0 0 163 0 0 156 0 0 135 0 0 161 0 0 144 0 0 136 0 0 139 0 0 143 0 0 141 0 0 157 0 0 123 0 0 130 0 0 133 0 0 123 0 0 116 0 0 105 0 0 118 0 0 120 0 0 106 0 0 103 0 0 96 0 0 90 0 0 105 0 0 94 0 0 87 0 0 72 0 0 58 0 0 58 0 0 65 0 0 53 0 0 57 0 0 
36 0 0 117 0 0 116 0 0 144 0 0 144 0 0 173 0 0 162 0 0 164 0 0 192 0 0 207 0 0 194 0 0 212 0 0 242 0 0 252 0 0 262 0 0 262 0 0 318 0 0 280 0 0 295 0 0 319 0 0 306 0 0 298 0 0 362 0 0 291 0 0 327 0 0 307 0 0 284 0 0 320 0 0 338 0 0 333 0 0 361 0 0 322 0 0 329 0 0 308 0 0 343 0 0 322 0 0 297 0 0 325 0 0 306 0 0 296 0 0 292 0 0 299 0 0 285 0 0 306 0 0 283 0 0 248 0 0 276 0 0 210 0 0 251 0 0 233 0 0 205 0 0 187 0 0 171 0 0 195 0 0 153 0 0 153 0 0 126 0 0 160 0 0 134 0 0 121 0 0 
63 0 0 120 0 0 115 0 0 160 0 0 144 0 0 167 0 0 176 0 0 191 0 0 236 0 0 218 0 0 218 0 0 265 0 0 258 0 0 256 0 0 259 0 0 275 0 0 279 0 0 300 0 0 307 0 0 353 0 0 322 0 0 359 0 0 353 0 0 332 0 0 362 0 0 362 0 0 368 0 0 391 0 0 378 0 0 371 0 0 381 0 0 388 0 0 368 0 0 383 0 0 372 0 0 337 0 0 368 0 0 362 0 0 334 0 0 361 0 0 314 0 0 330 0 0 314 0 0 330 0 0 285 0 0 283 0 0 267 0 0 274 0 0 250 0 0 239 0 0 229 0 0 203 0 0 187 0 0 191 0 0 207 0 0 169 0 0 166 0 0 143 0 0 114 0 0 117 0 0 
60 0 0 123 0 0 137 0 0 142 0 0 146 0 0 208 0 0 209 0 0 244 0 0 221 0 0 221 0 0 258 0 0 250 0 0 298 0 0 271 0 0 318 0 0 333 0 0 350 0 0 352 0 0 340 0 0 381 0 0 371 0 0 365 0 0 384 0 0 421 0 0 406 0 0 426 0 0 376 0 0 392 0 0 413 0 0 418 0 0 355 0 0 424 0 0 401 0 0 447 0 0 472 0 0 422 0 0 432 0 0 384 0 0 387 0 0 378 0 0 379 0 0 355 0 0 355 0 0 336 0 0 308 0 0 317 0 0 307 0 0 264 0 0 273 0 0 280 0 0 266 0 0 259 0 0 223 0 0 193 0 0 180 0 0 198 0 0 172 0 0 163 0 0 131 0 0 145 0 0 
59 0 0 135 0 0 147 0 0 162 0 0 198 0 0 188 0 0 217 0 0 232 0 0 228 0 0 272 0 0 328 0 0 302 0 0 283 0 0 337 0 0 366 0 0 385 0 0 364 0 0 428 0 0 423 0 0 447 0 0 434 0 0 409 0 0 460 0 0 452 0 0 508 0 0 473 0 0 449 0 0 448 0 0 490 0 0 463 0 0 453 0 0 465 0 0 458 0 0 454 0 0 445 0 0 473 0 0 480 0 0 434 0 0 457 0 0 469 0 0 441 0 0 404 0 0 396 0 0 416 0 0 402 0 0 392 0 0 398 0 0 329 0 0 312 0 0 306 0 0 307 0 0 281 0 0 274 0 0 209 0 0 210 0 0 181 0 0 173 0 0 171 0 0 153 0 0 140 0 0 
80 0 0 149 0 0 149 0 0 189 0 0 198 0 0 229 0 0 222 0 0 252 0 0 265 0 0 308 0 0 339 0 0 329 0 0 345 0 0 372 0 0 408 0 0 446 0 0 480 0 0 477 0 0 484 0 0 441 0 0 492 0 0 473 0 0 499 0 0 554 0 0 523 0 0 528 0 0 518 0 0 515 0 0 562 0 0 538 0 0 540 0 0 530 0 0 527 0 0 514 0 0 516 0 0 532 0 0 533 0 0 535 0 0 517 0 0 540 0 0 488 0 0 475 0 0 468 0 0 453 0 0 386 0 0 400 0 0 424 0 0 426 0 0 398 0 0 359 0 0 318 0 0 305 0 0 292 0 0 268 0 0 231 0 0 215 0 0 193 0 0 155 0 0 181 0 0 153 0 0 
79 0 0 156 0 0 188 0 0 201 0 0 201 0 0 244 0 0 246 0 0 261 0 0 314 0 0 309 0 0 375 0 0 385 0 0 402 0 0 415 0 0 419 0 0 485 0 0 498 0 0 502 0 0 505 0 0 553 0 0 574 0 0 517 0 0 616 0 0 564 0 0 545 0 0 575 0 0 605 0 0 597 0 0 663 0 0 645 0 0 587 0 0 593 0 0 624 0 0 622 0 0 610 0 0 584 0 0 612 0 0 560 0 0 605 0 0 551 0 0 582 0 0 628 0 0 501 0 0 524 0 0 474 0 0 525 0 0 435 0 0 450 0 0 423 0 0 386 0 0 347 0 0 317 0 0 316 0 0 308 0 0 276 0 0 241 0 0 211 0 0 214 0 0 188 0 0 171 0 0 
84 0 0 157 0 0 204 0 0 203 0 0 241 0 0 256 0 0 267 0 0 297 0 0 339 0 0 395 0 0 395 0 0 453 0 0 509 0 0 517 0 0 573 0 0 551 0 0 573 0 0 619 0 0 653 0 0 594 0 0 668 0 0 653 0 0 674 0 0 693 0 0 665 0 0 682 0 0 715 0 0 724 0 0 736 0 0 662 0 0 693 0 0 762 0 0 685 0 0 655 0 0 685 0 0 691 0 0 684 0 0 681 0 0 700 0 0 681 0 0 589 0 0 679 0 0 615 0 0 654 0 0 592 0 0 580 0 0 532 0 0 521 0 0 487 0 0 412 0 0 425 0 0 364 0 0 345 0 0 318 0 0 292 0 0 264 0 0 208 0 0 227 0 0 169 0 0 190 0 0 
74 0 0 177 0 0 204 0 0 226 0 0 253 0 0 305 0 0 289 0 0 342 0 0 398 0 0 421 0 0 475 0 0 506 0 0 508 0 0 610 0 0 616 0 0 676 0 0 676 0 0 726 0 0 706 0 0 777 0 0 719 0 0 822 0 0 782 0 0 757 0 0 809 0 0 827 0 0 813 0 0 848 0 0 793 0 0 845 0 0 808 0 0 760 0 0 835 0 0 801 0 0 856 0 0 837 0 0 762 0 0 788 0 0 786 0 0 764 0 0 772 0 0 783 0 0 752 0 0 743 0 0 654 0 0 633 0 0 670 0 0 584 0 0 543 0 0 524 0 0 471 0 0 421 0 0 366 0 0 362 0 0 307 0 0 285 0 0 236 0 0 249 0 0 195 0 0 191 0 0 
93 0 0 214 0 0 213 0 0 217 0 0 298 0 0 285 0 0 348 0 0 368 0 0 395 0 0 462 0 0 529 0 0 580 0 0 703 0 0 769 0 0 779 0 0 832 0 0 838 0 0 860 0 0 899 0 0 920 0 0 908 0 0 890 0 0 919 0 0 946 0 0 965 0 0 916 0 0 948 0 0 964 0 0 949 0 0 989 0 0 977 0 0 1001 0 0 977 0 0 1000 0 0 1020 0 0 950 0 0 941 0 0 944 0 0 941 0 0 947 0 0 866 0 0 887 0 0 838 0 0 837 0 0 816 0 0 799 0 0 788 0 0 731 0 0 679 0 0 567 0 0 555 0 0 503 0 0 393 0 0 371 0 0 337 0 0 318 0 0 299 0 0 227 0 0 221 0 0 205 0 0 
86 0 0 187 0 0 206 0 0 247 0 0 292 0 0 337 0 0 383 0 0 380 0 0 468 0 0 537 0 0 1406 0 0 2326 0 0 2446 0 0 2423 0 0 2469 0 0 2533 0 0 2574 0 0 2670 0 0 2668 0 0 2675 0 0 2750 0 0 2766 0 0 2668 0 0 2678 0 0 2730 0 0 2631 0 0 2737 0 0 2828 0 0 2704 0 0 2784 0 0 2742 0 0 2621 0 0 2735 0 0 2708 0 0 2683 0 0 2750 0 0 2756 0 0 2750 0 0 2676 0 0 2648 0 0 2674 0 0 2589 0 0 2677 0 0 2617 0 0 2641 0 0 2680 0 0 2554 0 0 2543 0 0 2416 0 0 2308 0 0 1458 0 0 565 0 0 525 0 0 402 0 0 362 0 0 332 0 0 280 0 0 272 0 0 230 0 0 211 0 0 
100 0 0 192 0 0 276 0 0 286 0 0 309 0 0 345 0 0 361 0 0 404 0 0 561 0 0 600 0 0 2421 0 0 4068 0 0 4093 0 0 4201 0 0 4316 0 0 4323 0 0 4471 0 0 4479 0 0 4597 0 0 4461 0 0 4431 0 0 4464 0 0 4481 0 0 4548 0 0 4429 0 0 4363 0 0 4566 0 0 4656 0 0 4485 0 0 4579 0 0 4516 0 0 4521 0 0 4552 0 0 4473 0 0 4575 0 0 4568 0 0 4535 0 0 4465 0 0 4459 0 0 4477 0 0 4479 0 0 4588 0 0 4526 0 0 4488 0 0 4382 0 0 4378 0 0 4230 0 0 4209 0 0 4257 0 0 4061 0 0 2362 0 0 599 0 0 503 0 0 443 0 0 368 0 0 348 0 0 292 0 0 275 0 0 249 0 0 204 0 0 
116 0 0 238 0 0 276 0 0 307 0 0 335 0 0 372 0 0 412 0 0 482 0 0 561 0 0 679 0 0 2444 0 0 4145 0 0 4296 0 0 4385 0 0 4332 0 0 4558 0 0 4464 0 0 4454 0 0 4443 0 0 4603 0 0 4664 0 0 4515 0 0 4583 0 0 4746 0 0 4612 0 0 4636 0 0 4642 0 0 4674 0 0 4755 0 0 4746 0 0 4688 0 0 4616 0 0 4687 0 0 4647 0 0 4594 0 0 4653 0 0 4488 0 0 4802 0 0 4435 0 0 4561 0 0 4729 0 0 4643 0 0 4481 0 0 4636 0 0 4588 0 0 4449 0 0 4488 0 0 4430 0 0 4187 0 0 4140 0 0 2404 0 0 684 0 0 572 0 0 499 0 0 442 0 0 377 0 0 322 0 0 311 0 0 270 0 0 227 0 0 
121 0 0 227 0 0 267 0 0 309 0 0 359 0 0 399 0 0 475 0 0 516 0 0 596 0 0 727 0 0 2481 0 0 4286 0 0 4235 0 0 4461 0 0 4480 0 0 4586 0 0 4607 0 0 4577 0 0 4577 0 0 4623 0 0 4634 0 0 4730 0 0 4684 0 0 4831 0 0 4788 0 0 4830 0 0 4812 0 0 4880 0 0 4612 0 0 4781 0 0 4962 0 0 4897 0 0 4921 0 0 4746 0 0 4876 0 0 4837 0 0 4866 0 0 4787 0 0 4730 0 0 4772 0 0 4904 0 0 4858 0 0 4792 0 0 4495 0 0 4628 0 0 4542 0 0 4433 0 0 4363 0 0 4399 0 0 4295 0 0 2456 0 0 738 0 0 636 0 0 512 0 0 441 0 0 379 0 0 350 0 0 301 0 0 270 0 0 234 0 0 
109 0 0 258 0 0 286 0 0 303 0 0 357 0 0 402 0 0 478 0 0 523 0 0 639 0 0 787 0 0 2457 0 0 4263 0 0 4461 0 0 4505 0 0 4646 0 0 4634 0 0 4754 0 0 4589 0 0 4609 0 0 4788 0 0 4710 0 0 4735 0 0 4905 0 0 4800 0 0 4808 0 0 4848 0 0 4764 0 0 4834 0 0 4955 0 0 4843 0 0 4994 0 0 4749 0 0 4899 0 0 4992 0 0 4822 0 0 4786 0 0 4931 0 0 4706 0 0 4773 0 0 4856 0 0 4835 0 0 4777 0 0 4707 0 0 4811 0 0 4681 0 0 4672 0 0 4639 0 0 4512 0 0 4368 0 0 4238 0 0 2479 0 0 742 0 0 665 0 0 552 0 0 454 0 0 416 0 0 353 0 0 319 0 0 275 0 0 232 0 0 
120 0 0 233 0 0 296 0 0 285 0 0 366 0 0 421 0 0 493 0 0 509 0 0 676 0 0 805 0 0 2564 0 0 4357 0 0 4455 0 0 4410 0 0 4640 0 0 4919 0 0 4748 0 0 4788 0 0 4829 0 0 4797 0 0 4834 0 0 4904 0 0 4949 0 0 4920 0 0 4900 0 0 4985 0 0 5024 0 0 4855 0 0 4968 0 0 4955 0 0 4942 0 0 5015 0 0 4926 0 0 4927 0 0 5110 0 0 4892 0 0 5107 0 0 4910 0 0 4858 0 0 5026 0 0 4868 0 0 4929 0 0 4940 0 0 4806 0 0 4827 0 0 4616 0 0 4556 0 0 4523 0 0 4484 0 0 4468 0 0 2572 0 0 776 0 0 691 0 0 563 0 0 495 0 0 424 0 0 369 0 0 325 0 0 312 0 0 262 0 0 
118 0 0 298 0 0 299 0 0 323 0 0 384 0 0 476 0 0 538 0 0 562 0 0 695 0 0 827 0 0 2534 0 0 4283 0 0 4446 0 0 4457 0 0 4681 0 0 4625 0 0 4788 0 0 4724 0 0 4941 0 0 4915 0 0 4952 0 0 4994 0 0 5068 0 0 5042 0 0 4929 0 0 5041 0 0 5127 0 0 4984 0 0 5038 0 0 5040 0 0 5096 0 0 5003 0 0 5055 0 0 4989 0 0 4989 0 0 4827 0 0 4936 0 0 4869 0 0 4932 0 0 4912 0 0 4927 0 0 4860 0 0 4900 0 0 4866 0 0 4898 0 0 4843 0 0 4642 0 0 4565 0 0 4496 0 0 4379 0 0 2631 0 0 804 0 0 635 0 0 590 0 0 501 0 0 485 0 0 368 0 0 315 0 0 256 0 0 322 0 0 
110 0 0 284 0 0 323 0 0 377 0 0 401 0 0 489 0 0 523 0 0 628 0 0 673 0 0 851 0 0 2596 0 0 4333 0 0 4563 0 0 4548 0 0 4619 0 0 4813 0 0 4771 0 0 4897 0 0 4923 0 0 4780 0 0 4942 0 0 5126 0 0 5041 0 0 5090 0 0 5085 0 0 5078 0 0 5075 0 0 5172 0 0 5030 0 0 5108 0 0 5105 0 0 5031 0 0 5092 0 0 5017 0 0 5116 0 0 4936 0 0 5076 0 0 5044 0 0 4933 0 0 5080 0 0 4999 0 0 4936 0 0 4962 0 0 4962 0 0 4900 0 0 4857 0 0 4655 0 0 4661 0 0 4532 0 0 4423 0 0 2703 0 0 826 0 0 687 0 0 558 0 0 491 0 0 447 0 0 401 0 0 374 0 0 313 0 0 257 0 0 
126 0 0 275 0 0 337 0 0 352 0 0 420 0 0 443 0 0 545 0 0 641 0 0 714 0 0 890 0 0 2662 0 0 4320 0 0 4671 0 0 4642 0 0 4667 0 0 4833 0 0 4798 0 0 5028 0 0 5036 0 0 4856 0 0 4943 0 0 5004 0 0 5017 0 0 5020 0 0 5087 0 0 5132 0 0 5187 0 0 5199 0 0 5135 0 0 5167 0 0 5118 0 0 5145 0 0 5276 0 0 5087 0 0 5039 0 0 5010 0 0 5078 0 0 5189 0 0 5093 0 0 5018 0 0 5190 0 0 4974 0 0 4974 0 0 4978 0 0 4858 0 0 4810 0 0 4740 0 0 4678 0 0 4567 0 0 4363 0 0 2485 0 0 872 0 0 754 0 0 642 0 0 513 0 0 417 0 0 418 0 0 372 0 0 322 0 0 270 0 0 
127 0 0 291 0 0 356 0 0 349 0 0 446 0 0 487 0 0 530 0 0 646 0 0 765 0 0 937 0 0 2663 0 0 4508 0 0 4605 0 0 4687 0 0 4776 0 0 4766 0 0 4906 0 0 5035 0 0 5026 0 0 5007 0 0 5051 0 0 5016 0 0 5132 0 0 5114 0 0 5056 0 0 5146 0 0 5167 0 0 5146 0 0 5117 0 0 5239 0 0 5107 0 0 5079 0 0 5236 0 0 5095 0 0 5103 0 0 5206 0 0 5107 0 0 5123 0 0 5015 0 0 5057 0 0 5072 0 0 5022 0 0 5076 0 0 5041 0 0 4983 0 0 5036 0 0 4837 0 0 4711 0 0 4626 0 0 4345 0 0 2699 0 0 849 0 0 771 0 0 630 0 0 561 0 0 478 0 0 448 0 0 393 0 0 343 0 0 289 0 0 
131 0 0 313 0 0 352 0 0 368 0 0 441 0 0 505 0 0 568 0 0 604 0 0 730 0 0 851 0 0 2705 0 0 4309 0 0 4560 0 0 4859 0 0 4836 0 0 4780 0 0 4903 0 0 5000 0 0 4964 0 0 5084 0 0 5052 0 0 5131 0 0 5032 0 0 5192 0 0 5125 0 0 5219 0 0 5225 0 0 5101 0 0 5270 0 0 5178 0 0 5168 0 0 5100 0 0 5206 0 0 5120 0 0 5246 0 0 5148 0 0 5183 0 0 5145 0 0 5249 0 0 4949 0 0 5159 0 0 5056 0 0 4876 0 0 4980 0 0 4894 0 0 4837 0 0 4833 0 0 4642 0 0 4577 0 0 4434 0 0 2770 0 0 962 0 0 709 0 0 640 0 0 558 0 0 493 0 0 485 0 0 390 0 0 355 0 0 290 0 0 
141 0 0 332 0 0 388 0 0 395 0 0 426 0 0 504 0 0 600 0 0 682 0 0 783 0 0 971 0 0 2660 0 0 4558 0 0 4685 0 0 4803 0 0 4803 0 0 4930 0 0 5071 0 0 4931 0 0 5034 0 0 5115 0 0 5248 0 0 5088 0 0 5234 0 0 5106 0 0 5006 0 0 5243 0 0 5166 0 0 5227 0 0 5162 0 0 5293 0 0 5241 0 0 5227 0 0 5158 0 0 5206 0 0 5167 0 0 5187 0 0 5081 0 0 5083 0 0 5169 0 0 4961 0 0 5129 0 0 5071 0 0 5195 0 0 4916 0 0 4981 0 0 5067 0 0 5105 0 0 4655 0 0 4588 0 0 4433 0 0 2819 0 0 915 0 0 765 0 0 601 0 0 571 0 0 498 0 0 455 0 0 382 0 0 328 0 0 308 0 0 
128 0 0 279 0 0 340 0 0 372 0 0 430 0 0 544 0 0 608 0 0 734 0 0 796 0 0 938 0 0 2670 0 0 4510 0 0 4723 0 0 4874 0 0 5010 0 0 4983 0 0 4964 0 0 5130 0 0 5129 0 0 5255 0 0 5151 0 0 5211 0 0 5123 0 0 5187 0 0 5106 0 0 5180 0 0 5242 0 0 5319 0 0 5139 0 0 5214 0 0 5265 0 0 5324 0 0 5351 0 0 5212 0 0 5154 0 0 5308 0 0 5065 0 0 5171 0 0 5228 0 0 5153 0 0 5196 0 0 5125 0 0 5103 0 0 4954 0 0 4990 0 0 4816 0 0 4834 0 0 4641 0 0 4735 0 0 4503 0 0 2545 0 0 967 0 0 768 0 0 707 0 0 574 0 0 522 0 0 433 0 0 383 0 0 361 0 0 286 0 0 
141 0 0 307 0 0 318 0 0 408 0 0 456 0 0 523 0 0 606 0 0 659 0 0 740 0 0 919 0 0 2763 0 0 4522 0 0 4538 0 0 4716 0 0 4816 0 0 4972 0 0 4908 0 0 5038 0 0 5070 0 0 5011 0 0 5096 0 0 5225 0 0 5121 0 0 5212 0 0 5100 0 0 5164 0 0 5196 0 0 5232 0 0 5171 0 0 5303 0 0 5270 0 0 5212 0 0 5292 0 0 5274 0 0 5363 0 0 5190 0 0 5314 0 0 5116 0 0 5270 0 0 5167 0 0 5206 0 0 5109 0 0 5100 0 0 5086 0 0 5056 0 0 4847 0 0 4773 0 0 4773 0 0 4765 0 0 4593 0 0 2712 0 0 918 0 0 767 0 0 704 0 0 544 0 0 530 0 0 441 0 0 392 0 0 350 0 0 314 0 0 
135 0 0 300 0 0 381 0 0 415 0 0 455 0 0 521 0 0 552 0 0 680 0 0 836 0 0 936 0 0 2690 0 0 4691 0 0 4814 0 0 4863 0 0 4905 0 0 4970 0 0 4893 0 0 4984 0 0 5068 0 0 5174 0 0 5234 0 0 5238 0 0 5239 0 0 5235 0 0 5353 0 0 5292 0 0 5224 0 0 5222 0 0 5302 0 0 5244 0 0 5277 0 0 5393 0 0 5368 0 0 5312 0 0 5323 0 0 5262 0 0 5273 0 0 5160 0 0 5171 0 0 5436 0 0 5078 0 0 4996 0 0 4963 0 0 5145 0 0 4979 0 0 4892 0 0 4906 0 0 4831 0 0 4585 0 0 4587 0 0 2698 0 0 945 0 0 779 0 0 675 0 0 609 0 0 532 0 0 426 0 0 403 0 0 383 0 0 306 0 0 
148 0 0 301 0 0 368 0 0 409 0 0 427 0 0 517 0 0 619 0 0 722 0 0 827 0 0 961 0 0 2665 0 0 4524 0 0 4711 0 0 4837 0 0 4899 0 0 4987 0 0 5017 0 0 5034 0 0 5233 0 0 5193 0 0 5206 0 0 5251 0 0 5180 0 0 5200 0 0 5300 0 0 5330 0 0 5224 0 0 5228 0 0 5295 0 0 5315 0 0 5231 0 0 5260 0 0 5287 0 0 5369 0 0 5227 0 0 5260 0 0 5378 0 0 5342 0 0 5227 0 0 5113 0 0 5142 0 0 5093 0 0 5147 0 0 5130 0 0 4998 0 0 4921 0 0 4844 0 0 4750 0 0 4599 0 0 4505 0 0 2735 0 0 969 0 0 770 0 0 671 0 0 652 0 0 506 0 0 464 0 0 412 0 0 377 0 0 310 0 0 
141 0 0 333 0 0 336 0 0 424 0 0 423 0 0 497 0 0 619 0 0 671 0 0 774 0 0 999 0 0 2747 0 0 4536 0 0 4698 0 0 4827 0 0 4848 0 0 5013 0 0 4973 0 0 5061 0 0 5154 0 0 5187 0 0 5119 0 0 5265 0 0 5198 0 0 5268 0 0 5316 0 0 5384 0 0 5300 0 0 5271 0 0 5287 0 0 5355 0 0 5315 0 0 5212 0 0 5219 0 0 5217 0 0 5205 0 0 5282 0 0 5301 0 0 5245 0 0 5284 0 0 5192 0 0 5171 0 0 5191 0 0 5102 0 0 5049 0 0 5039 0 0 4938 0 0 4853 0 0 4703 0 0 4682 0 0 4574 0 0 2799 0 0 997 0 0 774 0 0 693 0 0 607 0 0 539 0 0 495 0 0 384 0 0 365 0 0 316 0 0 
157 0 0 346 0 0 341 0 0 444 0 0 456 0 0 545 0 0 603 0 0 645 0 0 782 0 0 907 0 0 2767 0 0 4601 0 0 4773 0 0 4931 0 0 4886 0 0 4864 0 0 4823 0 0 5108 0 0 5048 0 0 5153 0 0 5113 0 0 5155 0 0 5218 0 0 5331 0 0 5244 0 0 5223 0 0 5272 0 0 5338 0 0 5322 0 0 5298 0 0 5251 0 0 5289 0 0 5160 0 0 5354 0 0 5267 0 0 5369 0 0 5393 0 0 5276 0 0 5134 0 0 5251 0 0 5337 0 0 5159 0 0 5123 0 0 5148 0 0 5049 0 0 4978 0 0 4879 0 0 4786 0 0 4536 0 0 4642 0 0 2757 0 0 1019 0 0 846 0 0 709 0 0 608 0 0 493 0 0 490 0 0 422 0 0 366 0 0 301 0 0 
134 0 0 333 0 0 372 0 0 440 0 0 486 0 0 562 0 0 629 0 0 701 0 0 897 0 0 946 0 0 2728 0 0 4470 0 0 4698 0 0 4869 0 0 4847 0 0 5043 0 0 5059 0 0 5001 0 0 5153 0 0 5179 0 0 5226 0 0 5059 0 0 5159 0 0 5202 0 0 5227 0 0 5195 0 0 5482 0 0 5427 0 0 5317 0 0 5450 0 0 5314 0 0 5242 0 0 5271 0 0 5338 0 0 5383 0 0 5408 0 0 5387 0 0 5303 0 0 5321 0 0 5178 0 0 5165 0 0 5292 0 0 5131 0 0 5058 0 0 4951 0 0 5065 0 0 4913 0 0 4835 0 0 4667 0 0 4608 0 0 2804 0 0 917 0 0 843 0 0 684 0 0 620 0 0 503 0 0 461 0 0 381 0 0 386 0 0 359 0 0 
131 0 0 334 0 0 388 0 0 442 0 0 483 0 0 551 0 0 596 0 0 692 0 0 850 0 0 996 0 0 2730 0 0 4610 0 0 4652 0 0 4749 0 0 4822 0 0 5027 0 0 4972 0 0 5016 0 0 5062 0 0 5200 0 0 5287 0 0 5223 0 0 5325 0 0 5237 0 0 5306 0 0 5247 0 0 5422 0 0 5399 0 0 5349 0 0 5388 0 0 5350 0 0 5290 0 0 5216 0 0 5257 0 0 5300 0 0 5336 0 0 5336 0 0 5373 0 0 5131 0 0 5200 0 0 5115 0 0 5112 0 0 4981 0 0 5224 0 0 4937 0 0 4835 0 0 4939 0 0 4736 0 0 4704 0 0 4473 0 0 2768 0 0 1018 0 0 785 0 0 675 0 0 613 0 0 581 0 0 463 0 0 393 0 0 387 0 0 329 0 0 
170 0 0 354 0 0 383 0 0 450 0 0 470 0 0 535 0 0 635 0 0 614 0 0 812 0 0 967 0 0 2793 0 0 4651 0 0 4679 0 0 4680 0 0 4878 0 0 4839 0 0 4974 0 0 5061 0 0 5236 0 0 5188 0 0 5218 0 0 5261 0 0 5246 0 0 5309 0 0 5193 0 0 5253 0 0 5366 0 0 5385 0 0 5306 0 0 5357 0 0 5379 0 0 5301 0 0 5418 0 0 5385 0 0 5230 0 0 5317 0 0 5254 0 0 5286 0 0 5306 0 0 5239 0 0 5237 0 0 5230 0 0 5147 0 0 5076 0 0 4945 0 0 5071 0 0 4992 0 0 4953 0 0 4629 0 0 4474 0 0 2778 0 0 1018 0 0 881 0 0 736 0 0 638 0 0 544 0 0 481 0 0 409 0 0 361 0 0 338 0 0 
164 0 0 332 0 0 370 0 0 424 0 0 492 0 0 522 0 0 601 0 0 701 0 0 837 0 0 938 0 0 2747 0 0 4433 0 0 4658 0 0 4832 0 0 4878 0 0 4976 0 0 5074 0 0 5167 0 0 5030 0 0 5217 0 0 5205 0 0 5205 0 0 5275 0 0 5358 0 0 5201 0 0 5273 0 0 5320 0 0 5388 0 0 5448 0 0 5347 0 0 5237 0 0 5366 0 0 5211 0 0 5279 0 0 5308 0 0 5251 0 0 5307 0 0 5226 0 0 5224 0 0 5271 0 0 5192 0 0 5227 0 0 5045 0 0 5023 0 0 5016 0 0 4947 0 0 4909 0 0 4910 0 0 4716 0 0 4537 0 0 2770 0 0 947 0 0 823 0 0 723 0 0 595 0 0 501 0 0 472 0 0 410 0 0 365 0 0 336 0 0 
161 0 0 316 0 0 369 0 0 381 0 0 470 0 0 531 0 0 662 0 0 747 0 0 821 0 0 916 0 0 2843 0 0 4539 0 0 4783 0 0 4946 0 0 4775 0 0 5083 0 0 5099 0 0 5131 0 0 5185 0 0 5161 0 0 5101 0 0 5297 0 0 5284 0 0 5332 0 0 5220 0 0 5291 0 0 5164 0 0 5346 0 0 5173 0 0 5442 0 0 5241 0 0 5327 0 0 5287 0 0 5440 0 0 5165 0 0 5204 0 0 5187 0 0 5429 0 0 5249 0 0 5207 0 0 5257 0 0 5105 0 0 5007 0 0 5117 0 0 4934 0 0 4933 0 0 4798 0 0 4730 0 0 4574 0 0 4498 0 0 2783 0 0 939 0 0 830 0 0 663 0 0 592 0 0 488 0 0 497 0 0 410 0 0 383 0 0 313 0 0 
176 0 0 278 0 0 340 0 0 407 0 0 450 0 0 538 0 0 625 0 0 733 0 0 797 0 0 974 0 0 2722 0 0 4633 0 0 4750 0 0 4720 0 0 4838 0 0 5131 0 0 5003 0 0 5096 0 0 5010 0 0 5209 0 0 5281 0 0 5369 0 0 5296 0 0 5291 0 0 5316 0 0 5338 0 0 5300 0 0 5255 0 0 5341 0 0 5408 0 0 5522 0 0 5291 0 0 5173 0 0 5255 0 0 5403 0 0 5373 0 0 5238 0 0 5431 0 0 5249 0 0 5310 0 0 5047 0 0 5107 0 0 5101 0 0 4935 0 0 5099 0 0 4861 0 0 4887 0 0 4813 0 0 4591 0 0 4411 0 0 2780 0 0 1030 0 0 831 0 0 710 0 0 627 0 0 519 0 0 496 0 0 403 0 0 354 0 0 338 0 0 
139 0 0 323 0 0 366 0 0 389 0 0 475 0 0 545 0 0 621 0 0 703 0 0 761 0 0 923 0 0 2819 0 0 4577 0 0 4726 0 0 4826 0 0 4931 0 0 4898 0 0 5025 0 0 5029 0 0 5247 0 0 5052 0 0 5155 0 0 5105 0 0 5167 0 0 5163 0 0 5375 0 0 5244 0 0 5372 0 0 5353 0 0 5527 0 0 5305 0 0 5402 0 0 5265 0 0 5330 0 0 5281 0 0 5242 0 0 5320 0 0 5385 0 0 5216 0 0 5309 0 0 5199 0 0 5206 0 0 5088 0 0 5067 0 0 5002 0 0 5113 0 0 5007 0 0 4908 0 0 4699 0 0 4651 0 0 4520 0 0 2854 0 0 960 0 0 784 0 0 720 0 0 625 0 0 546 0 0 461 0 0 402 0 0 339 0 0 334 0 0 
130 0 0 334 0 0 363 0 0 457 0 0 472 0 0 527 0 0 586 0 0 648 0 0 835 0 0 943 0 0 2755 0 0 4619 0 0 4739 0 0 4794 0 0 4941 0 0 4845 0 0 5018 0 0 4979 0 0 4999 0 0 5070 0 0 5194 0 0 5105 0 0 5322 0 0 5218 0 0 5162 0 0 5211 0 0 5213 0 0 5195 0 0 5263 0 0 5324 0 0 5384 0 0 5248 0 0 5071 0 0 5367 0 0 5208 0 0 5230 0 0 5272 0 0 5165 0 0 5232 0 0 5222 0 0 5270 0 0 5299 0 0 5151 0 0 4923 0 0 5022 0 0 4917 0 0 4848 0 0 4845 0 0 4689 0 0 4534 0 0 2740 0 0 981 0 0 802 0 0 649 0 0 602 0 0 578 0 0 450 0 0 418 0 0 383 0 0 327 0 0 
141 0 0 297 0 0 377 0 0 382 0 0 455 0 0 518 0 0 570 0 0 675 0 0 790 0 0 921 0 0 2775 0 0 4498 0 0 4554 0 0 4720 0 0 4930 0 0 4824 0 0 5040 0 0 5110 0 0 5055 0 0 5034 0 0 5165 0 0 5187 0 0 5202 0 0 5253 0 0 5359 0 0 5343 0 0 5280 0 0 5413 0 0 5254 0 0 5297 0 0 5194 0 0 5254 0 0 5216 0 0 5315 0 0 5276 0 0 5148 0 0 5210 0 0 5071 0 0 5143 0 0 5216 0 0 5163 0 0 5171 0 0 5122 0 0 5129 0 0 4979 0 0 4918 0 0 4955 0 0 4828 0 0 4745 0 0 4401 0 0 2728 0 0 1023 0 0 768 0 0 736 0 0 621 0 0 489 0 0 433 0 0 441 0 0 380 0 0 303 0 0 
147 0 0 333 0 0 368 0 0 382 0 0 485 0 0 545 0 0 561 0 0 675 0 0 764 0 0 969 0 0 2650 0 0 4378 0 0 4746 0 0 4694 0 0 4757 0 0 4901 0 0 4944 0 0 5152 0 0 5011 0 0 5135 0 0 5049 0 0 5134 0 0 5121 0 0 5214 0 0 5261 0 0 5229 0 0 5261 0 0 5212 0 0 5288 0 0 5291 0 0 5310 0 0 5149 0 0 5225 0 0 5336 0 0 5268 0 0 5141 0 0 5381 0 0 5222 0 0 5172 0 0 5150 0 0 5178 0 0 5132 0 0 5059 0 0 5103 0 0 4882 0 0 5017 0 0 4889 0 0 4968 0 0 4703 0 0 4520 0 0 2736 0 0 944 0 0 814 0 0 673 0 0 613 0 0 539 0 0 458 0 0 403 0 0 385 0 0 313 0 0 
134 0 0 268 0 0 362 0 0 390 0 0 459 0 0 519 0 0 568 0 0 645 0 0 788 0 0 929 0 0 2738 0 0 4619 0 0 4585 0 0 4792 0 0 4755 0 0 4907 0 0 4967 0 0 4961 0 0 5082 0 0 5121 0 0 5178 0 0 5002 0 0 5124 0 0 5157 0 0 5202 0 0 5310 0 0 5369 0 0 5155 0 0 5229 0 0 5314 0 0 5095 0 0 5212 0 0 5170 0 0 5281 0 0 5277 0 0 5174 0 0 5249 0 0 5211 0 0 5175 0 0 5139 0 0 5212 0 0 5094 0 0 5155 0 0 5052 0 0 5108 0 0 4934 0 0 4782 0 0 4850 0 0 4579 0 0 4407 0 0 2775 0 0 950 0 0 751 0 0 644 0 0 630 0 0 474 0 0 466 0 0 418 0 0 332 0 0 321 0 0 
133 0 0 284 0 0 347 0 0 347 0 0 417 0 0 487 0 0 553 0 0 611 0 0 780 0 0 949 0 0 2669 0 0 4402 0 0 4557 0 0 4821 0 0 5059 0 0 4878 0 0 4925 0 0 4922 0 0 4879 0 0 5041 0 0 5098 0 0 5071 0 0 5172 0 0 5199 0 0 5316 0 0 5090 0 0 5337 0 0 5271 0 0 4988 0 0 5144 0 0 5225 0 0 5316 0 0 5322 0 0 5267 0 0 5218 0 0 5275 0 0 5302 0 0 5160 0 0 5226 0 0 5025 0 0 4962 0 0 5194 0 0 5188 0 0 4862 0 0 4942 0 0 4953 0 0 4746 0 0 4732 0 0 4636 0 0 4429 0 0 2723 0 0 906 0 0 779 0 0 638 0 0 613 0 0 503 0 0 421 0 0 382 0 0 359 0 0 318 0 0 
135 0 0 292 0 0 316 0 0 387 0 0 418 0 0 515 0 0 580 0 0 628 0 0 751 0 0 968 0 0 2710 0 0 4475 0 0 4644 0 0 4688 0 0 4831 0 0 4828 0 0 4903 0 0 4888 0 0 5113 0 0 5098 0 0 5194 0 0 5107 0 0 5066 0 0 5126 0 0 5095 0 0 5047 0 0 5139 0 0 5078 0 0 5176 0 0 5124 0 0 5114 0 0 5221 0 0 5285 0 0 5359 0 0 5086 0 0 5223 0 0 5242 0 0 5174 0 0 5140 0 0 5002 0 0 5054 0 0 4969 0 0 5006 0 0 5032 0 0 4864 0 0 4888 0 0 4634 0 0 4729 0 0 4425 0 0 4416 0 0 2753 0 0 894 0 0 739 0 0 654 0 0 557 0 0 467 0 0 404 0 0 383 0 0 365 0 0 313 0 0 
155 0 0 293 0 0 312 0 0 353 0 0 399 0 0 521 0 0 557 0 0 653 0 0 728 0 0 894 0 0 2656 0 0 4503 0 0 4563 0 0 4739 0 0 4836 0 0 4771 0 0 4863 0 0 4911 0 0 4998 0 0 4880 0 0 5028 0 0 5084 0 0 4932 0 0 5069 0 0 5090 0 0 5005 0 0 5127 0 0 5035 0 0 5069 0 0 5132 0 0 5176 0 0 5091 0 0 5152 0 0 5120 0 0 5114 0 0 5161 0 0 5127 0 0 4969 0 0 5075 0 0 5058 0 0 4949 0 0 4975 0 0 4897 0 0 5022 0 0 4990 0 0 4833 0 0 4747 0 0 4601 0 0 4731 0 0 4566 0 0 2619 0 0 907 0 0 757 0 0 609 0 0 584 0 0 495 0 0 385 0 0 401 0 0 338 0 0 311 0 0 
117 0 0 290 0 0 326 0 0 365 0 0 410 0 0 447 0 0 505 0 0 570 0 0 741 0 0 868 0 0 2616 0 0 4365 0 0 4615 0 0 4780 0 0 4797 0 0 4799 0 0 4932 0 0 5039 0 0 5020 0 0 4950 0 0 5122 0 0 5085 0 0 5078 0 0 5142 0 0 5155 0 0 5165 0 0 5173 0 0 5086 0 0 5015 0 0 5033 0 0 5202 0 0 5162 0 0 5170 0 0 5120 0 0 5053 0 0 5142 0 0 5061 0 0 5037 0 0 5129 0 0 5138 0 0 4998 0 0 5048 0 0 5080 0 0 4995 0 0 4871 0 0 4921 0 0 4797 0 0 4614 0 0 4492 0 0 4402 0 0 2590 0 0 872 0 0 703 0 0 624 0 0 540 0 0 517 0 0 401 0 0 365 0 0 307 0 0 303 0 0 
118 0 0 303 0 0 285 0 0 303 0 0 418 0 0 461 0 0 517 0 0 655 0 0 720 0 0 854 0 0 2554 0 0 4374 0 0 4543 0 0 4676 0 0 4746 0 0 4928 0 0 4877 0 0 4841 0 0 4869 0 0 4899 0 0 5044 0 0 5077 0 0 5029 0 0 5071 0 0 5006 0 0 4966 0 0 5108 0 0 5049 0 0 5196 0 0 5047 0 0 5141 0 0 4960 0 0 5096 0 0 5113 0 0 5030 0 0 4997 0 0 4945 0 0 5063 0 0 5013 0 0 5005 0 0 4935 0 0 4841 0 0 5078 0 0 4850 0 0 4802 0 0 4754 0 0 4551 0 0 4785 0 0 4521 0 0 4373 0 0 2523 0 0 825 0 0 713 0 0 615 0 0 502 0 0 466 0 0 380 0 0 368 0 0 309 0 0 258 0 0 
126 0 0 248 0 0 312 0 0 363 0 0 380 0 0 427 0 0 494 0 0 568 0 0 682 0 0 830 0 0 2619 0 0 4420 0 0 4422 0 0 4575 0 0 4778 0 0 4773 0 0 4821 0 0 4816 0 0 4782 0 0 4908 0 0 4931 0 0 5022 0 0 4971 0 0 5099 0 0 5029 0 0 5002 0 0 4976 0 0 5069 0 0 5072 0 0 5160 0 0 4976 0 0 5002 0 0 5143 0 0 4975 0 0 5059 0 0 5070 0 0 4989 0 0 4904 0 0 4904 0 0 4915 0 0 4907 0 0 4959 0 0 4921 0 0 4761 0 0 4961 0 0 4771 0 0 4645 0 0 4623 0 0 4531 0 0 4313 0 0 2635 0 0 817 0 0 694 0 0 571 0 0 559 0 0 454 0 0 378 0 0 365 0 0 312 0 0 218 0 0 
114 0 0 270 0 0 329 0 0 333 0 0 372 0 0 404 0 0 466 0 0 574 0 0 655 0 0 818 0 0 2556 0 0 4253 0 0 4518 0 0 4470 0 0 4530 0 0 4766 0 0 4716 0 0 4860 0 0 4806 0 0 4804 0 0 4869 0 0 4954 0 0 4749 0 0 4781 0 0 4913 0 0 4960 0 0 4986 0 0 4948 0 0 4965 0 0 4951 0 0 4911 0 0 4926 0 0 5001 0 0 4947 0 0 5099 0 0 4882 0 0 4995 0 0 4993 0 0 4778 0 0 4912 0 0 4773 0 0 4793 0 0 4775 0 0 4784 0 0 4791 0 0 4719 0 0 4580 0 0 4624 0 0 4520 0 0 4361 0 0 2603 0 0 798 0 0 656 0 0 557 0 0 499 0 0 400 0 0 395 0 0 330 0 0 294 0 0 246 0 0 
140 0 0 255 0 0 294 0 0 284 0 0 329 0 0 438 0 0 465 0 0 528 0 0 653 0 0 758 0 0 2457 0 0 4360 0 0 4421 0 0 4425 0 0 4577 0 0 4648 0 0 4584 0 0 4659 0 0 4799 0 0 4900 0 0 4775 0 0 4826 0 0 4861 0 0 4890 0 0 4697 0 0 4929 0 0 4826 0 0 4868 0 0 4972 0 0 4937 0 0 4879 0 0 4763 0 0 4951 0 0 4969 0 0 4911 0 0 4883 0 0 4835 0 0 4821 0 0 4898 0 0 4893 0 0 4853 0 0 4786 0 0 4745 0 0 4829 0 0 4698 0 0 4596 0 0 4586 0 0 4351 0 0 4445 0 0 4282 0 0 2505 0 0 728 0 0 619 0 0 535 0 0 446 0 0 416 0 0 362 0 0 318 0 0 271 0 0 252 0 0 
114 0 0 253 0 0 256 0 0 294 0 0 302 0 0 380 0 0 426 0 0 529 0 0 609 0 0 770 0 0 2436 0 0 4200 0 0 4447 0 0 4402 0 0 4546 0 0 4717 0 0 4602 0 0 4563 0 0 4713 0 0 4605 0 0 4680 0 0 4596 0 0 4743 0 0 4818 0 0 4633 0 0 4739 0 0 4871 0 0 4767 0 0 4722 0 0 4755 0 0 4794 0 0 4745 0 0 4797 0 0 4699 0 0 4895 0 0 4796 0 0 4775 0 0 4698 0 0 4747 0 0 4742 0 0 4659 0 0 4578 0 0 4647 0 0 4638 0 0 4589 0 0 4529 0 0 4527 0 0 4310 0 0 4246 0 0 4078 0 0 2474 0 0 718 0 0 581 0 0 488 0 0 414 0 0 408 0 0 362 0 0 324 0 0 280 0 0 266 0 0 
115 0 0 246 0 0 273 0 0 279 0 0 337 0 0 358 0 0 424 0 0 449 0 0 567 0 0 629 0 0 2395 0 0 4170 0 0 4270 0 0 4362 0 0 4455 0 0 4515 0 0 4520 0 0 4480 0 0 4508 0 0 4756 0 0 4717 0 0 4589 0 0 4608 0 0 4574 0 0 4748 0 0 4614 0 0 4537 0 0 4727 0 0 4650 0 0 4637 0 0 4695 0 0 4544 0 0 4677 0 0 4707 0 0 4671 0 0 4750 0 0 4606 0 0 4673 0 0 4644 0 0 4649 0 0 4573 0 0 4612 0 0 4578 0 0 4473 0 0 4421 0 0 4431 0 0 4410 0 0 4394 0 0 4190 0 0 4074 0 0 2344 0 0 691 0 0 542 0 0 508 0 0 434 0 0 337 0 0 318 0 0 268 0 0 262 0 0 230 0 0 
98 0 0 222 0 0 260 0 0 284 0 0 311 0 0 330 0 0 356 0 0 414 0 0 502 0 0 613 0 0 2297 0 0 4041 0 0 4197 0 0 4162 0 0 4347 0 0 4414 0 0 4363 0 0 4421 0 0 4380 0 0 4339 0 0 4620 0 0 4535 0 0 4549 0 0 4515 0 0 4455 0 0 4465 0 0 4577 0 0 4523 0 0 4587 0 0 4508 0 0 4527 0 0 4394 0 0 4479 0 0 4519 0 0 4547 0 0 4640 0 0 4607 0 0 4605 0 0 4585 0 0 4379 0 0 4357 0 0 4383 0 0 4376 0 0 4546 0 0 4459 0 0 4300 0 0 4287 0 0 4182 0 0 4046 0 0 3986 0 0 2337 0 0 585 0 0 520 0 0 431 0 0 374 0 0 331 0 0 287 0 0 288 0 0 255 0 0 224 0 0 
91 0 0 203 0 0 231 0 0 264 0 0 292 0 0 317 0 0 358 0 0 402 0 0 444 0 0 581 0 0 1427 0 0 2271 0 0 2463 0 0 2514 0 0 2596 0 0 2659 0 0 2531 0 0 2656 0 0 2619 0 0 2596 0 0 2698 0 0 2770 0 0 2763 0 0 2624 0 0 2649 0 0 2768 0 0 2795 0 0 2812 0 0 2802 0 0 2837 0 0 2763 0 0 2759 0 0 2743 0 0 2664 0 0 2761 0 0 2682 0 0 2689 0 0 2703 0 0 2788 0 0 2669 0 0 2571 0 0 2630 0 0 2728 0 0 2534 0 0 2512 0 0 2501 0 0 2499 0 0 2410 0 0 2444 0 0 2330 0 0 1494 0 0 538 0 0 420 0 0 451 0 0 359 0 0 316 0 0 275 0 0 241 0 0 237 0 0 215 0 0 
65 0 0 213 0 0 226 0 0 226 0 0 254 0 0 300 0 0 337 0 0 389 0 0 451 0 0 461 0 0 560 0 0 631 0 0 688 0 0 695 0 0 815 0 0 799 0 0 794 0 0 831 0 0 866 0 0 858 0 0 903 0 0 946 0 0 963 0 0 946 0 0 955 0 0 987 0 0 937 0 0 983 0 0 991 0 0 974 0 0 981 0 0 975 0 0 984 0 0 963 0 0 934 0 0 1015 0 0 931 0 0 963 0 0 914 0 0 939 0 0 933 0 0 863 0 0 849 0 0 881 0 0 838 0 0 825 0 0 758 0 0 702 0 0 626 0 0 656 0 0 589 0 0 495 0 0 419 0 0 405 0 0 335 0 0 300 0 0 278 0 0 241 0 0 212 0 0 205 0 0 
98 0 0 185 0 0 210 0 0 218 0 0 230 0 0 269 0 0 319 0 0 357 0 0 353 0 0 408 0 0 484 0 0 464 0 0 556 0 0 599 0 0 629 0 0 708 0 0 661 0 0 688 0 0 727 0 0 734 0 0 835 0 0 778 0 0 760 0 0 816 0 0 787 0 0 801 0 0 796 0 0 798 0 0 830 0 0 837 0 0 827 0 0 821 0 0 820 0 0 809 0 0 807 0 0 840 0 0 823 0 0 745 0 0 782 0 0 785 0 0 745 0 0 758 0 0 717 0 0 667 0 0 654 0 0 645 0 0 633 0 0 571 0 0 565 0 0 524 0 0 484 0 0 412 0 0 385 0 0 355 0 0 300 0 0 246 0 0 244 0 0 206 0 0 216 0 0 185 0 0 
86 0 0 172 0 0 203 0 0 231 0 0 249 0 0 276 0 0 294 0 0 308 0 0 333 0 0 376 0 0 397 0 0 417 0 0 454 0 0 489 0 0 561 0 0 541 0 0 606 0 0 571 0 0 621 0 0 649 0 0 655 0 0 664 0 0 668 0 0 661 0 0 680 0 0 635 0 0 708 0 0 714 0 0 709 0 0 655 0 0 634 0 0 692 0 0 695 0 0 714 0 0 661 0 0 655 0 0 702 0 0 706 0 0 677 0 0 661 0 0 676 0 0 611 0 0 663 0 0 579 0 0 574 0 0 539 0 0 589 0 0 457 0 0 462 0 0 488 0 0 429 0 0 347 0 0 334 0 0 281 0 0 292 0 0 242 0 0 238 0 0 211 0 0 207 0 0 177 0 0 
90 0 0 167 0 0 190 0 0 196 0 0 239 0 0 237 0 0 250 0 0 285 0 0 315 0 0 334 0 0 369 0 0 427 0 0 414 0 0 458 0 0 402 0 0 489 0 0 512 0 0 493 0 0 546 0 0 537 0 0 551 0 0 551 0 0 551 0 0 597 0 0 593 0 0 591 0 0 601 0 0 627 0 0 643 0 0 600 0 0 569 0 0 583 0 0 595 0 0 641 0 0 608 0 0 598 0 0 579 0 0 543 0 0 584 0 0 543 0 0 569 0 0 568 0 0 522 0 0 537 0 0 488 0 0 513 0 0 484 0 0 470 0 0 442 0 0 351 0 0 345 0 0 334 0 0 310 0 0 274 0 0 240 0 0 216 0 0 219 0 0 206 0 0 179 0 0 157 0 0 
71 0 0 148 0 0 174 0 0 179 0 0 183 0 0 234 0 0 247 0 0 253 0 0 310 0 0 320 0 0 340 0 0 403 0 0 370 0 0 391 0 0 373 0 0 411 0 0 447 0 0 450 0 0 461 0 0 470 0 0 483 0 0 518 0 0 496 0 0 520 0 0 494 0 0 544 0 0 541 0 0 531 0 0 559 0 0 548 0 0 536 0 0 566 0 0 504 0 0 515 0 0 505 0 0 458 0 0 509 0 0 527 0 0 488 0 0 549 0 0 499 0 0 520 0 0 498 0 0 416 0 0 477 0 0 413 0 0 391 0 0 370 0 0 375 0 0 353 0 0 287 0 0 272 0 0 284 0 0 284 0 0 246 0 0 200 0 0 197 0 0 173 0 0 184 0 0 155 0 0 
62 0 0 151 0 0 143 0 0 159 0 0 177 0 0 174 0 0 191 0 0 222 0 0 273 0 0 248 0 0 293 0 0 325 0 0 312 0 0 357 0 0 331 0 0 373 0 0 375 0 0 432 0 0 421 0 0 385 0 0 435 0 0 423 0 0 472 0 0 421 0 0 424 0 0 478 0 0 475 0 0 483 0 0 459 0 0 463 0 0 467 0 0 470 0 0 453 0 0 437 0 0 487 0 0 444 0 0 452 0 0 447 0 0 460 0 0 431 0 0 418 0 0 430 0 0 434 0 0 419 0 0 376 0 0 354 0 0 370 0 0 342 0 0 346 0 0 322 0 0 281 0 0 254 0 0 263 0 0 242 0 0 193 0 0 184 0 0 190 0 0 165 0 0 141 0 0 139 0 0 
68 0 0 134 0 0 152 0 0 172 0 0 156 0 0 178 0 0 184 0 0 233 0 0 238 0 0 240 0 0 226 0 0 256 0 0 263 0 0 307 0 0 322 0 0 348 0 0 326 0 0 344 0 0 347 0 0 347 0 0 402 0 0 383 0 0 365 0 0 375 0 0 400 0 0 420 0 0 401 0 0 437 0 0 442 0 0 439 0 0 402 0 0 441 0 0 394 0 0 412 0 0 402 0 0 409 0 0 426 0 0 420 0 0 364 0 0 392 0 0 346 0 0 368 0 0 361 0 0 352 0 0 360 0 0 335 0 0 303 0 0 304 0 0 284 0 0 260 0 0 257 0 0 222 0 0 215 0 0 236 0 0 174 0 0 165 0 0 179 0 0 154 0 0 156 0 0 115 0 0 
53 0 0 126 0 0 134 0 0 159 0 0 150 0 0 166 0 0 184 0 0 174 0 0 204 0 0 235 0 0 215 0 0 240 0 0 245 0 0 255 0 0 260 0 0 316 0 0 307 0 0 287 0 0 308 0 0 321 0 0 326 0 0 344 0 0 332 0 0 359 0 0 357 0 0 318 0 0 362 0 0 342 0 0 341 0 0 366 0 0 367 0 0 392 0 0 377 0 0 345 0 0 341 0 0 344 0 0 379 0 0 345 0 0 315 0 0 337 0 0 316 0 0 337 0 0 333 0 0 352 0 0 324 0 0 264 0 0 281 0 0 237 0 0 256 0 0 222 0 0 226 0 0 200 0 0 195 0 0 182 0 0 182 0 0 164 0 0 171 0 0 139 0 0 129 0 0 136 0 0 
50 0 0 114 0 0 120 0 0 98 0 0 169 0 0 172 0 0 158 0 0 176 0 0 167 0 0 190 0 0 202 0 0 230 0 0 215 0 0 246 0 0 233 0 0 276 0 0 264 0 0 289 0 0 251 0 0 248 0 0 316 0 0 319 0 0 284 0 0 326 0 0 334 0 0 314 0 0 302 0 0 369 0 0 378 0 0 332 0 0 327 0 0 344 0 0 339 0 0 343 0 0 347 0 0 308 0 0 311 0 0 302 0 0 305 0 0 296 0 0 308 0 0 263 0 0 282 0 0 279 0 0 254 0 0 251 0 0 248 0 0 236 0 0 206 0 0 225 0 0 209 0 0 205 0 0 160 0 0 158 0 0 167 0 0 172 0 0 138 0 0 129 0 0 117 0 0 117 0 0 
