P3
# This is a dose file slice at depth 10 of 100
60 60
# now we give the maximum value of the RGB coordinates.
6518
28 0 0 31 0 0 40 0 0 32 0 0 44 0 0 49 0 0 46 0 0 48 0 0 59 0 0 70 0 0 72 0 0 69 0 0 83 0 0 54 0 0 81 0 0 79 0 0 74 0 0 79 0 0 104 0 0 105 0 0 78 0 0 84 0 0 107 0 0 80 0 0 94 0 0 118 0 0 94 0 0 95 0 0 100 0 0 106 0 0 101 0 0 89 0 0 96 0 0 91 0 0 104 0 0 80 0 0 91 0 0 104 0 0 85 0 0 79 0 0 90 0 0 96 0 0 90 0 0 91 0 0 71 0 0 60 0 0 81 0 0 82 0 0 71 0 0 57 0 0 69 0 0 51 0 0 53 0 0 40 0 0 46 0 0 43 0 0 40 0 0 44 0 0 32 0 0 33 0 0 
32 0 0 76 0 0 96 0 0 92 0 0 103 0 0 95 0 0 100 0 0 125 0 0 132 0 0 132 0 0 128 0 0 136 0 0 165 0 0 165 0 0 161 0 0 171 0 0 182 0 0 200 0 0 178 0 0 203 0 0 183 0 0 218 0 0 227 0 0 208 0 0 198 0 0 196 0 0 233 0 0 191 0 0 218 0 0 215 0 0 204 0 0 219 0 0 211 0 0 252 0 0 210 0 0 217 0 0 202 0 0 214 0 0 211 0 0 214 0 0 201 0 0 220 0 0 217 0 0 191 0 0 190 0 0 183 0 0 162 0 0 147 0 0 145 0 0 157 0 0 130 0 0 136 0 0 119 0 0 111 0 0 113 0 0 106 0 0 85 0 0 98 0 0 88 0 0 88 0 0 
31 0 0 84 0 0 92 0 0 75 0 0 95 0 0 96 0 0 111 0 0 155 0 0 127 0 0 156 0 0 163 0 0 156 0 0 173 0 0 178 0 0 210 0 0 206 0 0 208 0 0 224 0 0 205 0 0 224 0 0 217 0 0 228 0 0 259 0 0 257 0 0 220 0 0 247 0 0 243 0 0 245 0 0 232 0 0 241 0 0 239 0 0 238 0 0 266 0 0 231 0 0 246 0 0 246 0 0 231 0 0 252 0 0 230 0 0 228 0 0 244 0 0 219 0 0 215 0 0 211 0 0 227 0 0 197 0 0 180 0 0 180 0 0 167 0 0 152 0 0 161 0 0 140 0 0 139 0 0 129 0 0 147 0 0 122 0 0 107 0 0 88 0 0 97 0 0 68 0 0 
53 0 0 91 0 0 96 0 0 106 0 0 103 0 0 116 0 0 111 0 0 139 0 0 142 0 0 170 0 0 161 0 0 191 0 0 185 0 0 205 0 0 222 0 0 222 0 0 218 0 0 229 0 0 229 0 0 225 0 0 234 0 0 267 0 0 250 0 0 280 0 0 306 0 0 285 0 0 285 0 0 284 0 0 259 0 0 293 0 0 289 0 0 272 0 0 255 0 0 268 0 0 284 0 0 296 0 0 246 0 0 253 0 0 288 0 0 238 0 0 265 0 0 251 0 0 242 0 0 276 0 0 234 0 0 247 0 0 219 0 0 186 0 0 210 0 0 192 0 0 187 0 0 145 0 0 162 0 0 125 0 0 135 0 0 121 0 0 116 0 0 118 0 0 82 0 0 81 0 0 
44 0 0 83 0 0 110 0 0 117 0 0 110 0 0 113 0 0 138 0 0 145 0 0 188 0 0 174 0 0 199 0 0 222 0 0 212 0 0 240 0 0 256 0 0 248 0 0 259 0 0 291 0 0 271 0 0 329 0 0 306 0 0 293 0 0 290 0 0 283 0 0 310 0 0 341 0 0 298 0 0 348 0 0 339 0 0 330 0 0 299 0 0 320 0 0 328 0 0 309 0 0 335 0 0 335 0 0 307 0 0 303 0 0 315 0 0 330 0 0 249 0 0 308 0 0 273 0 0 276 0 0 281 0 0 252 0 0 246 0 0 229 0 0 183 0 0 204 0 0 202 0 0 189 0 0 169 0 0 148 0 0 159 0 0 110 0 0 113 0 0 103 0 0 112 0 0 86 0 0 
57 0 0 106 0 0 116 0 0 131 0 0 131 0 0 130 0 0 159 0 0 169 0 0 177 0 0 219 0 0 220 0 0 266 0 0 257 0 0 282 0 0 259 0 0 336 0 0 307 0 0 330 0 0 301 0 0 343 0 0 337 0 0 362 0 0 328 0 0 371 0 0 334 0 0 369 0 0 367 0 0 382 0 0 353 0 0 394 0 0 364 0 0 389 0 0 343 0 0 344 0 0 360 0 0 357 0 0 384 0 0 347 0 0 372 0 0 321 0 0 353 0 0 329 0 0 338 0 0 337 0 0 297 0 0 279 0 0 287 0 0 281 0 0 253 0 0 250 0 0 215 0 0 209 0 0 182 0 0 182 0 0 170 0 0 140 0 0 121 0 0 137 0 0 125 0 0 103 0 0 
52 0 0 117 0 0 104 0 0 143 0 0 143 0 0 169 0 0 204 0 0 215 0 0 213 0 0 188 0 0 274 0 0 260 0 0 296 0 0 345 0 0 346 0 0 329 0 0 365 0 0 414 0 0 363 0 0 370 0 0 428 0 0 389 0 0 405 0 0 422 0 0 422 0 0 409 0 0 418 0 0 462 0 0 415 0 0 434 0 0 421 0 0 428 0 0 430 0 0 452 0 0 421 0 0 440 0 0 393 0 0 415 0 0 416 0 0 433 0 0 419 0 0 382 0 0 405 0 0 329 0 0 367 0 0 349 0 0 338 0 0 325 0 0 309 0 0 283 0 0 241 0 0 228 0 0 232 0 0 185 0 0 173 0 0 181 0 0 150 0 0 124 0 0 105 0 0 92 0 0 
60 0 0 113 0 0 119 0 0 162 0 0 183 0 0 164 0 0 193 0 0 202 0 0 216 0 0 291 0 0 334 0 0 343 0 0 360 0 0 394 0 0 410 0 0 410 0 0 408 0 0 448 0 0 458 0 0 449 0 0 471 0 0 477 0 0 513 0 0 510 0 0 486 0 0 507 0 0 487 0 0 467 0 0 495 0 0 500 0 0 483 0 0 475 0 0 528 0 0 495 0 0 510 0 0 446 0 0 495 0 0 528 0 0 496 0 0 473 0 0 473 0 0 463 0 0 443 0 0 488 0 0 418 0 0 436 0 0 360 0 0 371 0 0 338 0 0 307 0 0 320 0 0 279 0 0 230 0 0 198 0 0 214 0 0 183 0 0 142 0 0 143 0 0 135 0 0 120 0 0 
54 0 0 111 0 0 145 0 0 180 0 0 158 0 0 192 0 0 193 0 0 224 0 0 288 0 0 331 0 0 324 0 0 426 0 0 423 0 0 460 0 0 511 0 0 483 0 0 495 0 0 515 0 0 555 0 0 564 0 0 579 0 0 543 0 0 653 0 0 573 0 0 578 0 0 608 0 0 613 0 0 611 0 0 623 0 0 607 0 0 619 0 0 625 0 0 618 0 0 615 0 0 602 0 0 588 0 0 564 0 0 600 0 0 564 0 0 572 0 0 613 0 0 582 0 0 537 0 0 548 0 0 496 0 0 514 0 0 462 0 0 476 0 0 400 0 0 461 0 0 348 0 0 310 0 0 272 0 0 250 0 0 229 0 0 192 0 0 194 0 0 144 0 0 136 0 0 131 0 0 
67 0 0 115 0 0 149 0 0 166 0 0 167 0 0 204 0 0 217 0 0 279 0 0 311 0 0 387 0 0 429 0 0 500 0 0 524 0 0 588 0 0 604 0 0 636 0 0 664 0 0 683 0 0 673 0 0 696 0 0 738 0 0 707 0 0 742 0 0 734 0 0 770 0 0 746 0 0 791 0 0 782 0 0 778 0 0 761 0 0 746 0 0 784 0 0 736 0 0 761 0 0 761 0 0 687 0 0 726 0 0 680 0 0 773 0 0 708 0 0 689 0 0 710 0 0 700 0 0 669 0 0 671 0 0 692 0 0 614 0 0 617 0 0 518 0 0 536 0 0 418 0 0 367 0 0 321 0 0 291 0 0 257 0 0 208 0 0 176 0 0 159 0 0 142 0 0 146 0 0 
67 0 0 104 0 0 149 0 0 194 0 0 169 0 0 258 0 0 231 0 0 309 0 0 361 0 0 448 0 0 1574 0 0 2714 0 0 2831 0 0 2785 0 0 2943 0 0 2869 0 0 2867 0 0 3096 0 0 2930 0 0 2996 0 0 3063 0 0 3063 0 0 2985 0 0 2966 0 0 3022 0 0 3038 0 0 3099 0 0 3079 0 0 3059 0 0 3081 0 0 2977 0 0 3100 0 0 3076 0 0 3112 0 0 3094 0 0 3127 0 0 2900 0 0 2993 0 0 3072 0 0 2965 0 0 2950 0 0 2998 0 0 2987 0 0 3053 0 0 2903 0 0 2965 0 0 2867 0 0 2791 0 0 2848 0 0 2798 0 0 1564 0 0 409 0 0 322 0 0 292 0 0 227 0 0 243 0 0 194 0 0 175 0 0 136 0 0 134 0 0 
70 0 0 153 0 0 153 0 0 190 0 0 216 0 0 242 0 0 274 0 0 291 0 0 377 0 0 502 0 0 2731 0 0 5040 0 0 5123 0 0 5070 0 0 5222 0 0 5353 0 0 5440 0 0 5390 0 0 5457 0 0 5249 0 0 5347 0 0 5231 0 0 5328 0 0 5466 0 0 5450 0 0 5352 0 0 5494 0 0 5505 0 0 5335 0 0 5386 0 0 5439 0 0 5334 0 0 5450 0 0 5321 0 0 5430 0 0 5376 0 0 5366 0 0 5315 0 0 5289 0 0 5331 0 0 5458 0 0 5413 0 0 5293 0 0 5232 0 0 5239 0 0 5166 0 0 5188 0 0 5260 0 0 5119 0 0 5040 0 0 2758 0 0 498 0 0 395 0 0 330 0 0 272 0 0 245 0 0 202 0 0 188 0 0 155 0 0 157 0 0 
76 0 0 163 0 0 174 0 0 208 0 0 227 0 0 255 0 0 292 0 0 344 0 0 408 0 0 540 0 0 2826 0 0 5098 0 0 5194 0 0 5308 0 0 5396 0 0 5401 0 0 5377 0 0 5463 0 0 5462 0 0 5367 0 0 5425 0 0 5484 0 0 5535 0 0 5587 0 0 5459 0 0 5557 0 0 5554 0 0 5567 0 0 5406 0 0 5421 0 0 5514 0 0 5518 0 0 5568 0 0 5507 0 0 5449 0 0 5511 0 0 5516 0 0 5478 0 0 5564 0 0 5413 0 0 5539 0 0 5466 0 0 5486 0 0 5465 0 0 5342 0 0 5356 0 0 5371 0 0 5271 0 0 5131 0 0 5144 0 0 2813 0 0 545 0 0 468 0 0 340 0 0 272 0 0 247 0 0 211 0 0 191 0 0 191 0 0 146 0 0 
67 0 0 177 0 0 180 0 0 205 0 0 209 0 0 266 0 0 291 0 0 389 0 0 438 0 0 616 0 0 2890 0 0 5251 0 0 5364 0 0 5432 0 0 5288 0 0 5407 0 0 5473 0 0 5473 0 0 5400 0 0 5631 0 0 5556 0 0 5382 0 0 5528 0 0 5635 0 0 5631 0 0 5637 0 0 5430 0 0 5613 0 0 5610 0 0 5666 0 0 5679 0 0 5641 0 0 5590 0 0 5607 0 0 5683 0 0 5549 0 0 5712 0 0 5496 0 0 5583 0 0 5561 0 0 5564 0 0 5607 0 0 5472 0 0 5395 0 0 5463 0 0 5460 0 0 5360 0 0 5336 0 0 5286 0 0 5102 0 0 2910 0 0 573 0 0 474 0 0 371 0 0 304 0 0 278 0 0 220 0 0 217 0 0 187 0 0 140 0 0 
76 0 0 160 0 0 187 0 0 223 0 0 220 0 0 280 0 0 355 0 0 432 0 0 476 0 0 603 0 0 2874 0 0 5152 0 0 5328 0 0 5394 0 0 5452 0 0 5543 0 0 5544 0 0 5531 0 0 5599 0 0 5682 0 0 5676 0 0 5521 0 0 5683 0 0 5681 0 0 5770 0 0 5756 0 0 5702 0 0 5813 0 0 5688 0 0 5688 0 0 5768 0 0 5637 0 0 5883 0 0 5691 0 0 5688 0 0 5614 0 0 5698 0 0 5548 0 0 5651 0 0 5599 0 0 5633 0 0 5744 0 0 5781 0 0 5637 0 0 5452 0 0 5461 0 0 5535 0 0 5475 0 0 5386 0 0 5179 0 0 2987 0 0 621 0 0 502 0 0 421 0 0 314 0 0 285 0 0 226 0 0 214 0 0 201 0 0 167 0 0 
74 0 0 156 0 0 193 0 0 226 0 0 224 0 0 300 0 0 367 0 0 403 0 0 508 0 0 655 0 0 2912 0 0 5222 0 0 5415 0 0 5345 0 0 5512 0 0 5706 0 0 5479 0 0 5594 0 0 5531 0 0 5808 0 0 5789 0 0 5613 0 0 5734 0 0 5773 0 0 5718 0 0 5868 0 0 5830 0 0 5835 0 0 5801 0 0 5751 0 0 5693 0 0 5802 0 0 5668 0 0 5659 0 0 5653 0 0 5788 0 0 5675 0 0 5633 0 0 5646 0 0 5802 0 0 5756 0 0 5597 0 0 5850 0 0 5625 0 0 5800 0 0 5534 0 0 5450 0 0 5465 0 0 5464 0 0 5116 0 0 2892 0 0 618 0 0 477 0 0 387 0 0 339 0 0 269 0 0 266 0 0 233 0 0 185 0 0 188 0 0 
68 0 0 173 0 0 221 0 0 208 0 0 261 0 0 311 0 0 352 0 0 435 0 0 508 0 0 677 0 0 3000 0 0 5264 0 0 5434 0 0 5436 0 0 5592 0 0 5480 0 0 5670 0 0 5549 0 0 5690 0 0 5882 0 0 5712 0 0 5684 0 0 5703 0 0 5742 0 0 5716 0 0 5739 0 0 5889 0 0 5748 0 0 5711 0 0 5769 0 0 5851 0 0 5810 0 0 5751 0 0 5856 0 0 5788 0 0 5951 0 0 5835 0 0 5662 0 0 5891 0 0 5718 0 0 5756 0 0 5624 0 0 5608 0 0 5786 0 0 5683 0 0 5586 0 0 5503 0 0 5554 0 0 5569 0 0 5162 0 0 2967 0 0 671 0 0 523 0 0 405 0 0 359 0 0 297 0 0 276 0 0 231 0 0 206 0 0 194 0 0 
79 0 0 166 0 0 191 0 0 257 0 0 258 0 0 315 0 0 385 0 0 459 0 0 538 0 0 735 0 0 3032 0 0 5264 0 0 5390 0 0 5557 0 0 5661 0 0 5751 0 0 5761 0 0 5773 0 0 5748 0 0 5752 0 0 5741 0 0 5808 0 0 5859 0 0 5901 0 0 5829 0 0 5919 0 0 5710 0 0 5841 0 0 5782 0 0 5835 0 0 5721 0 0 5981 0 0 5939 0 0 5773 0 0 5978 0 0 5948 0 0 5762 0 0 5755 0 0 5734 0 0 5654 0 0 5704 0 0 5700 0 0 5703 0 0 5630 0 0 5672 0 0 5639 0 0 5612 0 0 5457 0 0 5451 0 0 5344 0 0 2948 0 0 646 0 0 587 0 0 506 0 0 329 0 0 303 0 0 268 0 0 227 0 0 205 0 0 200 0 0 
94 0 0 181 0 0 221 0 0 238 0 0 267 0 0 304 0 0 401 0 0 486 0 0 540 0 0 735 0 0 3006 0 0 5270 0 0 5470 0 0 5413 0 0 5597 0 0 5624 0 0 5691 0 0 5719 0 0 5854 0 0 5758 0 0 5860 0 0 5775 0 0 5862 0 0 5814 0 0 5850 0 0 5823 0 0 5855 0 0 5942 0 0 5897 0 0 5964 0 0 6057 0 0 5985 0 0 5776 0 0 5945 0 0 5767 0 0 5889 0 0 5820 0 0 5849 0 0 5850 0 0 5952 0 0 5945 0 0 5771 0 0 5644 0 0 5759 0 0 5719 0 0 5682 0 0 5703 0 0 5492 0 0 5485 0 0 5293 0 0 3103 0 0 733 0 0 565 0 0 443 0 0 366 0 0 321 0 0 249 0 0 244 0 0 224 0 0 199 0 0 
85 0 0 195 0 0 247 0 0 260 0 0 299 0 0 343 0 0 365 0 0 517 0 0 533 0 0 737 0 0 2953 0 0 5337 0 0 5396 0 0 5683 0 0 5513 0 0 5513 0 0 5807 0 0 5771 0 0 5875 0 0 5912 0 0 5872 0 0 5912 0 0 5876 0 0 5848 0 0 5812 0 0 5994 0 0 5903 0 0 5928 0 0 5907 0 0 5864 0 0 5824 0 0 6025 0 0 5934 0 0 5962 0 0 5905 0 0 5998 0 0 5939 0 0 5846 0 0 5843 0 0 5900 0 0 5770 0 0 5870 0 0 5649 0 0 5783 0 0 5628 0 0 5748 0 0 5581 0 0 5512 0 0 5494 0 0 5374 0 0 2955 0 0 696 0 0 598 0 0 427 0 0 394 0 0 335 0 0 273 0 0 254 0 0 194 0 0 196 0 0 
79 0 0 204 0 0 235 0 0 242 0 0 298 0 0 315 0 0 432 0 0 427 0 0 569 0 0 729 0 0 3041 0 0 5196 0 0 5333 0 0 5577 0 0 5892 0 0 5733 0 0 5796 0 0 5769 0 0 5872 0 0 5732 0 0 5866 0 0 5885 0 0 5795 0 0 5935 0 0 5875 0 0 5840 0 0 5878 0 0 5851 0 0 5898 0 0 5818 0 0 5977 0 0 5928 0 0 6044 0 0 6006 0 0 5895 0 0 5712 0 0 5949 0 0 5904 0 0 5751 0 0 5769 0 0 5807 0 0 5908 0 0 5815 0 0 5874 0 0 5687 0 0 5732 0 0 5576 0 0 5531 0 0 5461 0 0 5412 0 0 2981 0 0 738 0 0 565 0 0 449 0 0 394 0 0 331 0 0 328 0 0 273 0 0 220 0 0 213 0 0 
106 0 0 217 0 0 231 0 0 238 0 0 276 0 0 324 0 0 473 0 0 479 0 0 602 0 0 726 0 0 3076 0 0 5323 0 0 5452 0 0 5652 0 0 5517 0 0 5696 0 0 5795 0 0 5645 0 0 5901 0 0 5964 0 0 5862 0 0 5941 0 0 5959 0 0 6035 0 0 5996 0 0 5891 0 0 5954 0 0 5930 0 0 5897 0 0 5981 0 0 5911 0 0 5985 0 0 5965 0 0 5950 0 0 6032 0 0 5967 0 0 6064 0 0 6063 0 0 5841 0 0 5875 0 0 5844 0 0 5856 0 0 5920 0 0 5909 0 0 5686 0 0 5701 0 0 5542 0 0 5685 0 0 5590 0 0 5269 0 0 3055 0 0 703 0 0 595 0 0 507 0 0 411 0 0 324 0 0 290 0 0 251 0 0 240 0 0 217 0 0 
73 0 0 216 0 0 219 0 0 271 0 0 281 0 0 355 0 0 388 0 0 487 0 0 568 0 0 748 0 0 2994 0 0 5412 0 0 5507 0 0 5653 0 0 5856 0 0 5831 0 0 5775 0 0 5854 0 0 5783 0 0 5810 0 0 5943 0 0 5890 0 0 5968 0 0 6106 0 0 6005 0 0 5998 0 0 5948 0 0 5928 0 0 5774 0 0 6083 0 0 5924 0 0 5922 0 0 5940 0 0 5933 0 0 5862 0 0 6063 0 0 5926 0 0 5912 0 0 5868 0 0 5928 0 0 5870 0 0 5794 0 0 5693 0 0 5681 0 0 5741 0 0 5784 0 0 5577 0 0 5628 0 0 5469 0 0 5248 0 0 3007 0 0 735 0 0 571 0 0 458 0 0 388 0 0 342 0 0 302 0 0 249 0 0 263 0 0 205 0 0 
102 0 0 227 0 0 241 0 0 282 0 0 310 0 0 362 0 0 447 0 0 518 0 0 573 0 0 770 0 0 3050 0 0 5406 0 0 5520 0 0 5655 0 0 5519 0 0 5613 0 0 5808 0 0 5743 0 0 5817 0 0 5915 0 0 5836 0 0 5872 0 0 5882 0 0 5941 0 0 5821 0 0 5792 0 0 5988 0 0 6118 0 0 5966 0 0 6017 0 0 6111 0 0 6023 0 0 5924 0 0 5980 0 0 6017 0 0 6015 0 0 5925 0 0 5935 0 0 5907 0 0 5858 0 0 5935 0 0 5942 0 0 5985 0 0 5818 0 0 5715 0 0 5788 0 0 5679 0 0 5644 0 0 5468 0 0 5385 0 0 3213 0 0 692 0 0 602 0 0 506 0 0 402 0 0 370 0 0 272 0 0 260 0 0 227 0 0 196 0 0 
74 0 0 202 0 0 265 0 0 274 0 0 319 0 0 391 0 0 436 0 0 518 0 0 656 0 0 742 0 0 3049 0 0 5378 0 0 5390 0 0 5546 0 0 5635 0 0 5659 0 0 5890 0 0 5786 0 0 5758 0 0 5711 0 0 5761 0 0 5882 0 0 5862 0 0 5966 0 0 5970 0 0 6123 0 0 5931 0 0 5990 0 0 5887 0 0 6087 0 0 6003 0 0 5989 0 0 6023 0 0 6030 0 0 6092 0 0 6026 0 0 5994 0 0 5863 0 0 5900 0 0 5924 0 0 5855 0 0 5773 0 0 5947 0 0 5901 0 0 5932 0 0 5759 0 0 5729 0 0 5509 0 0 5460 0 0 5300 0 0 3196 0 0 800 0 0 600 0 0 483 0 0 457 0 0 373 0 0 303 0 0 259 0 0 252 0 0 188 0 0 
93 0 0 206 0 0 230 0 0 298 0 0 315 0 0 351 0 0 428 0 0 513 0 0 585 0 0 750 0 0 3182 0 0 5272 0 0 5563 0 0 5585 0 0 5800 0 0 5787 0 0 5763 0 0 5905 0 0 5864 0 0 5847 0 0 5915 0 0 5955 0 0 5863 0 0 5964 0 0 6072 0 0 6041 0 0 5875 0 0 6070 0 0 6068 0 0 6153 0 0 5952 0 0 5952 0 0 5998 0 0 5862 0 0 6068 0 0 5966 0 0 6049 0 0 5929 0 0 5845 0 0 5889 0 0 5895 0 0 5806 0 0 5980 0 0 5971 0 0 5799 0 0 5672 0 0 5748 0 0 5657 0 0 5564 0 0 5270 0 0 3148 0 0 765 0 0 621 0 0 484 0 0 431 0 0 351 0 0 329 0 0 244 0 0 256 0 0 217 0 0 
106 0 0 217 0 0 237 0 0 259 0 0 328 0 0 360 0 0 434 0 0 500 0 0 650 0 0 732 0 0 3089 0 0 5311 0 0 5589 0 0 5654 0 0 5747 0 0 5776 0 0 5866 0 0 5815 0 0 5899 0 0 5876 0 0 5899 0 0 5743 0 0 6004 0 0 5952 0 0 5820 0 0 6073 0 0 5877 0 0 6030 0 0 5977 0 0 5911 0 0 6048 0 0 5999 0 0 5956 0 0 5913 0 0 6060 0 0 5822 0 0 5982 0 0 6042 0 0 6056 0 0 5947 0 0 6041 0 0 5660 0 0 5771 0 0 5692 0 0 5743 0 0 5769 0 0 5668 0 0 5660 0 0 5462 0 0 5422 0 0 3090 0 0 762 0 0 577 0 0 526 0 0 431 0 0 377 0 0 341 0 0 271 0 0 228 0 0 211 0 0 
92 0 0 207 0 0 224 0 0 247 0 0 325 0 0 364 0 0 417 0 0 477 0 0 604 0 0 701 0 0 3084 0 0 5428 0 0 5628 0 0 5709 0 0 5749 0 0 5674 0 0 5829 0 0 6009 0 0 5867 0 0 5852 0 0 6062 0 0 5920 0 0 5926 0 0 6005 0 0 6008 0 0 6011 0 0 5888 0 0 5991 0 0 5980 0 0 6122 0 0 6197 0 0 5967 0 0 6151 0 0 5903 0 0 6009 0 0 6060 0 0 6000 0 0 6047 0 0 5887 0 0 5955 0 0 5898 0 0 5802 0 0 5886 0 0 5789 0 0 5823 0 0 5773 0 0 5829 0 0 5581 0 0 5587 0 0 5346 0 0 3081 0 0 785 0 0 616 0 0 529 0 0 402 0 0 322 0 0 315 0 0 269 0 0 216 0 0 201 0 0 
110 0 0 202 0 0 245 0 0 268 0 0 350 0 0 380 0 0 438 0 0 482 0 0 615 0 0 757 0 0 3166 0 0 5403 0 0 5544 0 0 5709 0 0 5749 0 0 5821 0 0 5807 0 0 5837 0 0 5862 0 0 5841 0 0 5991 0 0 5873 0 0 5982 0 0 5925 0 0 5852 0 0 5820 0 0 6018 0 0 6015 0 0 5914 0 0 6083 0 0 6038 0 0 6023 0 0 6012 0 0 5948 0 0 6005 0 0 6058 0 0 6081 0 0 5969 0 0 5969 0 0 5903 0 0 6007 0 0 5908 0 0 5960 0 0 5877 0 0 5918 0 0 5768 0 0 5863 0 0 5626 0 0 5599 0 0 5364 0 0 3117 0 0 707 0 0 581 0 0 508 0 0 388 0 0 379 0 0 312 0 0 272 0 0 231 0 0 191 0 0 
111 0 0 223 0 0 228 0 0 317 0 0 300 0 0 346 0 0 408 0 0 491 0 0 632 0 0 782 0 0 3247 0 0 5521 0 0 5512 0 0 5514 0 0 5601 0 0 5721 0 0 5902 0 0 5895 0 0 5909 0 0 5975 0 0 6006 0 0 6062 0 0 6017 0 0 6010 0 0 5967 0 0 5907 0 0 5970 0 0 6066 0 0 6020 0 0 6092 0 0 5994 0 0 5905 0 0 6009 0 0 6023 0 0 5848 0 0 5916 0 0 6048 0 0 5971 0 0 6031 0 0 6030 0 0 5818 0 0 5826 0 0 5883 0 0 5863 0 0 5706 0 0 5789 0 0 5662 0 0 5533 0 0 5508 0 0 5360 0 0 3064 0 0 768 0 0 605 0 0 496 0 0 405 0 0 397 0 0 315 0 0 257 0 0 271 0 0 211 0 0 
103 0 0 223 0 0 239 0 0 286 0 0 268 0 0 362 0 0 404 0 0 513 0 0 614 0 0 760 0 0 3078 0 0 5487 0 0 5636 0 0 5672 0 0 5753 0 0 5670 0 0 5826 0 0 5756 0 0 5939 0 0 5879 0 0 5960 0 0 5862 0 0 5989 0 0 6006 0 0 6063 0 0 5947 0 0 5950 0 0 6022 0 0 6053 0 0 6006 0 0 5920 0 0 6205 0 0 6025 0 0 6001 0 0 5808 0 0 6069 0 0 6084 0 0 6114 0 0 5930 0 0 5878 0 0 6006 0 0 5953 0 0 5886 0 0 5821 0 0 5867 0 0 5753 0 0 5672 0 0 5576 0 0 5524 0 0 5295 0 0 3070 0 0 730 0 0 648 0 0 511 0 0 415 0 0 386 0 0 309 0 0 285 0 0 266 0 0 234 0 0 
112 0 0 211 0 0 233 0 0 285 0 0 319 0 0 356 0 0 410 0 0 541 0 0 652 0 0 751 0 0 3100 0 0 5288 0 0 5466 0 0 5667 0 0 5775 0 0 5813 0 0 5776 0 0 5813 0 0 5719 0 0 5956 0 0 5825 0 0 5932 0 0 5990 0 0 5974 0 0 6030 0 0 6027 0 0 6083 0 0 6012 0 0 5862 0 0 6014 0 0 5903 0 0 5887 0 0 6026 0 0 5838 0 0 6010 0 0 5777 0 0 6106 0 0 5990 0 0 5920 0 0 6037 0 0 5764 0 0 5972 0 0 5813 0 0 5778 0 0 5950 0 0 5786 0 0 5746 0 0 5558 0 0 5400 0 0 5144 0 0 3069 0 0 704 0 0 617 0 0 528 0 0 416 0 0 379 0 0 339 0 0 282 0 0 244 0 0 212 0 0 
102 0 0 227 0 0 252 0 0 273 0 0 362 0 0 369 0 0 434 0 0 496 0 0 581 0 0 759 0 0 3195 0 0 5451 0 0 5532 0 0 5638 0 0 5620 0 0 5740 0 0 5859 0 0 5835 0 0 5951 0 0 5818 0 0 5848 0 0 5903 0 0 6048 0 0 6045 0 0 6000 0 0 6074 0 0 5765 0 0 5938 0 0 5994 0 0 5840 0 0 6000 0 0 6243 0 0 5912 0 0 6142 0 0 6007 0 0 5892 0 0 5944 0 0 6024 0 0 6002 0 0 6044 0 0 5878 0 0 5914 0 0 5946 0 0 5858 0 0 5824 0 0 5772 0 0 5719 0 0 5582 0 0 5381 0 0 5610 0 0 3041 0 0 752 0 0 592 0 0 507 0 0 421 0 0 365 0 0 300 0 0 275 0 0 256 0 0 235 0 0 
89 0 0 220 0 0 244 0 0 295 0 0 315 0 0 370 0 0 443 0 0 552 0 0 669 0 0 808 0 0 3023 0 0 5466 0 0 5602 0 0 5652 0 0 5617 0 0 5881 0 0 5818 0 0 5763 0 0 5758 0 0 5950 0 0 5838 0 0 5920 0 0 5815 0 0 5748 0 0 6047 0 0 6051 0 0 6047 0 0 5935 0 0 5874 0 0 5888 0 0 6025 0 0 6060 0 0 5857 0 0 5920 0 0 5960 0 0 5809 0 0 5950 0 0 5947 0 0 6052 0 0 5923 0 0 5916 0 0 5826 0 0 5782 0 0 5757 0 0 5819 0 0 5707 0 0 5767 0 0 5575 0 0 5580 0 0 5434 0 0 2979 0 0 784 0 0 614 0 0 524 0 0 438 0 0 356 0 0 311 0 0 269 0 0 254 0 0 241 0 0 
112 0 0 237 0 0 227 0 0 275 0 0 313 0 0 372 0 0 410 0 0 479 0 0 589 0 0 754 0 0 2987 0 0 5347 0 0 5527 0 0 5579 0 0 5647 0 0 5672 0 0 5871 0 0 5685 0 0 5816 0 0 5945 0 0 5855 0 0 5868 0 0 6052 0 0 6049 0 0 5966 0 0 5765 0 0 5935 0 0 5940 0 0 5988 0 0 5928 0 0 5968 0 0 6032 0 0 6145 0 0 6056 0 0 5910 0 0 5984 0 0 5916 0 0 5894 0 0 5782 0 0 5896 0 0 6003 0 0 5839 0 0 5834 0 0 5893 0 0 5970 0 0 5786 0 0 5721 0 0 5599 0 0 5521 0 0 5502 0 0 3011 0 0 780 0 0 622 0 0 512 0 0 403 0 0 389 0 0 315 0 0 257 0 0 244 0 0 205 0 0 
93 0 0 195 0 0 270 0 0 287 0 0 310 0 0 362 0 0 390 0 0 513 0 0 573 0 0 721 0 0 3023 0 0 5354 0 0 5541 0 0 5686 0 0 5586 0 0 5733 0 0 5771 0 0 5833 0 0 5927 0 0 5952 0 0 5944 0 0 5786 0 0 6093 0 0 6016 0 0 5946 0 0 6048 0 0 5921 0 0 6069 0 0 6005 0 0 5876 0 0 5880 0 0 6057 0 0 5980 0 0 6152 0 0 5998 0 0 5962 0 0 5955 0 0 5873 0 0 5862 0 0 5877 0 0 5953 0 0 5962 0 0 5766 0 0 5738 0 0 5828 0 0 5679 0 0 5703 0 0 5685 0 0 5512 0 0 5364 0 0 3136 0 0 748 0 0 635 0 0 524 0 0 438 0 0 390 0 0 359 0 0 270 0 0 240 0 0 211 0 0 
111 0 0 210 0 0 240 0 0 291 0 0 307 0 0 353 0 0 435 0 0 533 0 0 602 0 0 738 0 0 3044 0 0 5335 0 0 5477 0 0 5675 0 0 5796 0 0 5745 0 0 5699 0 0 5770 0 0 5925 0 0 5998 0 0 5969 0 0 5866 0 0 5934 0 0 5864 0 0 5896 0 0 5940 0 0 5977 0 0 5898 0 0 5953 0 0 5989 0 0 5991 0 0 5858 0 0 5915 0 0 6035 0 0 5997 0 0 6064 0 0 6179 0 0 6032 0 0 5979 0 0 5919 0 0 5953 0 0 5946 0 0 5788 0 0 5827 0 0 5746 0 0 5815 0 0 5551 0 0 5454 0 0 5374 0 0 5316 0 0 3103 0 0 749 0 0 593 0 0 483 0 0 409 0 0 372 0 0 295 0 0 271 0 0 246 0 0 227 0 0 
99 0 0 196 0 0 229 0 0 283 0 0 303 0 0 361 0 0 396 0 0 520 0 0 630 0 0 746 0 0 2913 0 0 5514 0 0 5552 0 0 5709 0 0 5568 0 0 5725 0 0 5857 0 0 5723 0 0 5792 0 0 5729 0 0 5867 0 0 5961 0 0 5930 0 0 5899 0 0 6025 0 0 5872 0 0 6019 0 0 6060 0 0 5892 0 0 5896 0 0 5956 0 0 6025 0 0 5902 0 0 6034 0 0 5765 0 0 5844 0 0 5851 0 0 5923 0 0 5884 0 0 5805 0 0 5996 0 0 5924 0 0 5754 0 0 5687 0 0 5763 0 0 5694 0 0 5585 0 0 5645 0 0 5451 0 0 5393 0 0 3073 0 0 721 0 0 597 0 0 502 0 0 396 0 0 364 0 0 319 0 0 237 0 0 230 0 0 212 0 0 
111 0 0 218 0 0 206 0 0 262 0 0 322 0 0 373 0 0 434 0 0 479 0 0 572 0 0 704 0 0 3024 0 0 5277 0 0 5414 0 0 5606 0 0 5601 0 0 5738 0 0 5993 0 0 5819 0 0 5780 0 0 5799 0 0 5942 0 0 5971 0 0 5875 0 0 5933 0 0 5867 0 0 6030 0 0 5898 0 0 6016 0 0 5927 0 0 5871 0 0 5957 0 0 5968 0 0 5912 0 0 5955 0 0 5994 0 0 5911 0 0 6044 0 0 5936 0 0 5978 0 0 5907 0 0 5889 0 0 5810 0 0 5815 0 0 5794 0 0 5874 0 0 5698 0 0 5765 0 0 5618 0 0 5568 0 0 5276 0 0 3015 0 0 731 0 0 575 0 0 479 0 0 417 0 0 359 0 0 300 0 0 271 0 0 204 0 0 221 0 0 
114 0 0 212 0 0 252 0 0 277 0 0 299 0 0 374 0 0 442 0 0 470 0 0 558 0 0 726 0 0 3102 0 0 5325 0 0 5385 0 0 5573 0 0 5542 0 0 5761 0 0 5800 0 0 5797 0 0 5792 0 0 5720 0 0 5852 0 0 5966 0 0 5931 0 0 5847 0 0 5898 0 0 5841 0 0 5805 0 0 6037 0 0 5919 0 0 5881 0 0 5951 0 0 6002 0 0 6019 0 0 5932 0 0 5959 0 0 5854 0 0 6054 0 0 5942 0 0 5881 0 0 5792 0 0 5944 0 0 5916 0 0 5873 0 0 5697 0 0 5901 0 0 5798 0 0 5566 0 0 5507 0 0 5584 0 0 5259 0 0 2962 0 0 728 0 0 545 0 0 493 0 0 455 0 0 364 0 0 287 0 0 263 0 0 207 0 0 203 0 0 
96 0 0 206 0 0 215 0 0 310 0 0 313 0 0 349 0 0 429 0 0 474 0 0 538 0 0 730 0 0 3127 0 0 5197 0 0 5538 0 0 5447 0 0 5678 0 0 5715 0 0 5673 0 0 5672 0 0 5784 0 0 5847 0 0 5879 0 0 5814 0 0 5855 0 0 5864 0 0 6021 0 0 5910 0 0 5896 0 0 6062 0 0 5827 0 0 6057 0 0 5937 0 0 6011 0 0 5896 0 0 6012 0 0 5839 0 0 6014 0 0 5998 0 0 5879 0 0 5824 0 0 5968 0 0 5749 0 0 5882 0 0 5757 0 0 5782 0 0 5832 0 0 5696 0 0 5730 0 0 5694 0 0 5430 0 0 5383 0 0 2970 0 0 735 0 0 559 0 0 475 0 0 422 0 0 308 0 0 274 0 0 244 0 0 212 0 0 197 0 0 
82 0 0 193 0 0 202 0 0 251 0 0 289 0 0 347 0 0 384 0 0 476 0 0 604 0 0 663 0 0 2991 0 0 5374 0 0 5509 0 0 5455 0 0 5556 0 0 5682 0 0 5484 0 0 5852 0 0 5895 0 0 5805 0 0 5774 0 0 5882 0 0 5840 0 0 5867 0 0 5991 0 0 5828 0 0 5667 0 0 5952 0 0 5805 0 0 5973 0 0 5844 0 0 5883 0 0 5796 0 0 5935 0 0 5979 0 0 5998 0 0 5858 0 0 5873 0 0 5845 0 0 5930 0 0 5922 0 0 5840 0 0 5755 0 0 5697 0 0 5746 0 0 5587 0 0 5591 0 0 5464 0 0 5462 0 0 5297 0 0 3066 0 0 690 0 0 552 0 0 447 0 0 364 0 0 328 0 0 267 0 0 236 0 0 226 0 0 211 0 0 
81 0 0 204 0 0 201 0 0 242 0 0 307 0 0 343 0 0 369 0 0 450 0 0 566 0 0 664 0 0 3076 0 0 5408 0 0 5335 0 0 5503 0 0 5699 0 0 5736 0 0 5807 0 0 5776 0 0 5670 0 0 5796 0 0 5693 0 0 5923 0 0 5856 0 0 5831 0 0 5891 0 0 5893 0 0 5953 0 0 5877 0 0 5847 0 0 5843 0 0 6060 0 0 5856 0 0 5777 0 0 5983 0 0 5977 0 0 5993 0 0 5842 0 0 5784 0 0 5807 0 0 5774 0 0 5879 0 0 5825 0 0 5871 0 0 5720 0 0 5725 0 0 5644 0 0 5675 0 0 5513 0 0 5486 0 0 5310 0 0 3057 0 0 672 0 0 576 0 0 429 0 0 366 0 0 338 0 0 273 0 0 233 0 0 207 0 0 189 0 0 
93 0 0 184 0 0 228 0 0 215 0 0 251 0 0 296 0 0 361 0 0 449 0 0 514 0 0 654 0 0 2950 0 0 5393 0 0 5438 0 0 5560 0 0 5579 0 0 5550 0 0 5667 0 0 5690 0 0 5767 0 0 5661 0 0 5898 0 0 5867 0 0 5726 0 0 5818 0 0 5750 0 0 5753 0 0 5967 0 0 5871 0 0 5849 0 0 5825 0 0 5945 0 0 5864 0 0 5753 0 0 5890 0 0 5820 0 0 5784 0 0 5800 0 0 5952 0 0 5764 0 0 5714 0 0 5789 0 0 5742 0 0 5767 0 0 5697 0 0 5571 0 0 5695 0 0 5497 0 0 5591 0 0 5431 0 0 5212 0 0 2964 0 0 651 0 0 535 0 0 430 0 0 374 0 0 333 0 0 262 0 0 233 0 0 189 0 0 178 0 0 
77 0 0 180 0 0 191 0 0 212 0 0 276 0 0 344 0 0 375 0 0 405 0 0 496 0 0 661 0 0 3001 0 0 5258 0 0 5348 0 0 5482 0 0 5510 0 0 5719 0 0 5633 0 0 5564 0 0 5721 0 0 5835 0 0 5894 0 0 5796 0 0 5821 0 0 5648 0 0 5775 0 0 5713 0 0 5789 0 0 5933 0 0 5901 0 0 5891 0 0 5769 0 0 5858 0 0 5645 0 0 5925 0 0 5848 0 0 5816 0 0 5855 0 0 5800 0 0 5825 0 0 5953 0 0 5713 0 0 5827 0 0 5778 0 0 5675 0 0 5792 0 0 5559 0 0 5570 0 0 5482 0 0 5443 0 0 5205 0 0 2945 0 0 634 0 0 523 0 0 383 0 0 329 0 0 306 0 0 245 0 0 220 0 0 182 0 0 168 0 0 
77 0 0 188 0 0 214 0 0 213 0 0 258 0 0 292 0 0 340 0 0 414 0 0 458 0 0 632 0 0 2965 0 0 5199 0 0 5467 0 0 5471 0 0 5591 0 0 5516 0 0 5633 0 0 5481 0 0 5724 0 0 5571 0 0 5668 0 0 5833 0 0 5667 0 0 5748 0 0 5757 0 0 5768 0 0 5748 0 0 5781 0 0 5862 0 0 5861 0 0 5693 0 0 5832 0 0 5830 0 0 5926 0 0 5637 0 0 5681 0 0 5795 0 0 5787 0 0 5776 0 0 5771 0 0 5842 0 0 5480 0 0 5748 0 0 5543 0 0 5646 0 0 5462 0 0 5557 0 0 5529 0 0 5451 0 0 5248 0 0 2953 0 0 612 0 0 501 0 0 450 0 0 385 0 0 311 0 0 255 0 0 236 0 0 185 0 0 171 0 0 
68 0 0 147 0 0 190 0 0 235 0 0 230 0 0 275 0 0 351 0 0 378 0 0 490 0 0 595 0 0 2922 0 0 5146 0 0 5224 0 0 5384 0 0 5386 0 0 5565 0 0 5498 0 0 5657 0 0 5630 0 0 5622 0 0 5569 0 0 5566 0 0 5636 0 0 5783 0 0 5673 0 0 5592 0 0 5663 0 0 5743 0 0 5552 0 0 5656 0 0 5683 0 0 5634 0 0 5668 0 0 5720 0 0 5678 0 0 5749 0 0 5662 0 0 5621 0 0 5621 0 0 5796 0 0 5680 0 0 5662 0 0 5692 0 0 5663 0 0 5480 0 0 5511 0 0 5384 0 0 5540 0 0 5290 0 0 5172 0 0 2934 0 0 577 0 0 468 0 0 367 0 0 321 0 0 275 0 0 247 0 0 210 0 0 182 0 0 181 0 0 
87 0 0 160 0 0 169 0 0 215 0 0 221 0 0 248 0 0 292 0 0 389 0 0 450 0 0 524 0 0 2759 0 0 5069 0 0 5155 0 0 5268 0 0 5448 0 0 5433 0 0 5495 0 0 5600 0 0 5506 0 0 5498 0 0 5651 0 0 5510 0 0 5674 0 0 5534 0 0 5569 0 0 5707 0 0 5659 0 0 5658 0 0 5671 0 0 5737 0 0 5705 0 0 5692 0 0 5653 0 0 5621 0 0 5645 0 0 5598 0 0 5570 0 0 5661 0 0 5526 0 0 5620 0 0 5482 0 0 5422 0 0 5519 0 0 5428 0 0 5416 0 0 5463 0 0 5481 0 0 5393 0 0 5289 0 0 5350 0 0 2833 0 0 596 0 0 436 0 0 370 0 0 342 0 0 270 0 0 258 0 0 201 0 0 171 0 0 173 0 0 
78 0 0 136 0 0 170 0 0 200 0 0 229 0 0 241 0 0 290 0 0 339 0 0 408 0 0 535 0 0 2825 0 0 5196 0 0 5176 0 0 5265 0 0 5364 0 0 5388 0 0 5398 0 0 5485 0 0 5512 0 0 5492 0 0 5436 0 0 5349 0 0 5480 0 0 5457 0 0 5412 0 0 5543 0 0 5416 0 0 5432 0 0 5544 0 0 5477 0 0 5569 0 0 5501 0 0 5514 0 0 5639 0 0 5581 0 0 5463 0 0 5410 0 0 5561 0 0 5531 0 0 5481 0 0 5431 0 0 5525 0 0 5353 0 0 5532 0 0 5373 0 0 5385 0 0 5419 0 0 5430 0 0 5310 0 0 5105 0 0 2789 0 0 519 0 0 441 0 0 364 0 0 276 0 0 254 0 0 210 0 0 174 0 0 176 0 0 141 0 0 
55 0 0 154 0 0 174 0 0 197 0 0 235 0 0 244 0 0 275 0 0 316 0 0 367 0 0 495 0 0 2683 0 0 5028 0 0 5104 0 0 5119 0 0 5216 0 0 5198 0 0 5236 0 0 5287 0 0 5362 0 0 5419 0 0 5354 0 0 5363 0 0 5539 0 0 5426 0 0 5395 0 0 5352 0 0 5392 0 0 5520 0 0 5397 0 0 5444 0 0 5397 0 0 5368 0 0 5235 0 0 5286 0 0 5419 0 0 5305 0 0 5438 0 0 5288 0 0 5319 0 0 5296 0 0 5370 0 0 5328 0 0 5378 0 0 5221 0 0 5058 0 0 5347 0 0 5170 0 0 5206 0 0 5099 0 0 4915 0 0 2691 0 0 466 0 0 361 0 0 314 0 0 283 0 0 260 0 0 224 0 0 167 0 0 144 0 0 170 0 0 
65 0 0 133 0 0 167 0 0 179 0 0 196 0 0 232 0 0 263 0 0 308 0 0 383 0 0 435 0 0 1484 0 0 2799 0 0 2831 0 0 2858 0 0 2950 0 0 2977 0 0 2980 0 0 2956 0 0 3041 0 0 3087 0 0 3007 0 0 3001 0 0 3033 0 0 3067 0 0 3040 0 0 3069 0 0 2976 0 0 2956 0 0 2973 0 0 3077 0 0 2953 0 0 3076 0 0 2963 0 0 3059 0 0 3001 0 0 3053 0 0 3027 0 0 3078 0 0 3058 0 0 3000 0 0 3029 0 0 2979 0 0 3001 0 0 2973 0 0 2955 0 0 2887 0 0 2872 0 0 2815 0 0 2903 0 0 2823 0 0 1669 0 0 427 0 0 336 0 0 301 0 0 268 0 0 203 0 0 209 0 0 199 0 0 172 0 0 144 0 0 
55 0 0 131 0 0 161 0 0 148 0 0 170 0 0 186 0 0 245 0 0 280 0 0 290 0 0 354 0 0 429 0 0 495 0 0 564 0 0 549 0 0 657 0 0 691 0 0 652 0 0 697 0 0 680 0 0 698 0 0 690 0 0 720 0 0 788 0 0 682 0 0 772 0 0 712 0 0 731 0 0 733 0 0 774 0 0 751 0 0 770 0 0 784 0 0 761 0 0 824 0 0 725 0 0 751 0 0 780 0 0 812 0 0 710 0 0 744 0 0 712 0 0 702 0 0 692 0 0 712 0 0 665 0 0 696 0 0 596 0 0 587 0 0 550 0 0 497 0 0 433 0 0 360 0 0 316 0 0 262 0 0 247 0 0 197 0 0 196 0 0 156 0 0 163 0 0 147 0 0 
52 0 0 123 0 0 141 0 0 165 0 0 165 0 0 187 0 0 210 0 0 237 0 0 270 0 0 307 0 0 340 0 0 329 0 0 402 0 0 480 0 0 529 0 0 506 0 0 505 0 0 534 0 0 536 0 0 573 0 0 524 0 0 651 0 0 591 0 0 590 0 0 623 0 0 603 0 0 595 0 0 639 0 0 627 0 0 599 0 0 595 0 0 629 0 0 597 0 0 616 0 0 624 0 0 615 0 0 575 0 0 530 0 0 582 0 0 571 0 0 571 0 0 547 0 0 548 0 0 532 0 0 511 0 0 558 0 0 474 0 0 463 0 0 425 0 0 398 0 0 375 0 0 307 0 0 262 0 0 208 0 0 215 0 0 200 0 0 137 0 0 152 0 0 127 0 0 108 0 0 
64 0 0 116 0 0 124 0 0 127 0 0 144 0 0 208 0 0 205 0 0 210 0 0 273 0 0 272 0 0 308 0 0 300 0 0 307 0 0 350 0 0 366 0 0 449 0 0 418 0 0 438 0 0 438 0 0 472 0 0 472 0 0 507 0 0 497 0 0 491 0 0 518 0 0 483 0 0 500 0 0 497 0 0 477 0 0 513 0 0 490 0 0 516 0 0 494 0 0 502 0 0 512 0 0 536 0 0 485 0 0 449 0 0 476 0 0 525 0 0 480 0 0 484 0 0 424 0 0 436 0 0 435 0 0 395 0 0 369 0 0 386 0 0 365 0 0 318 0 0 322 0 0 266 0 0 258 0 0 219 0 0 215 0 0 171 0 0 169 0 0 155 0 0 130 0 0 118 0 0 
54 0 0 107 0 0 125 0 0 120 0 0 153 0 0 168 0 0 179 0 0 178 0 0 192 0 0 236 0 0 289 0 0 282 0 0 300 0 0 306 0 0 323 0 0 317 0 0 342 0 0 339 0 0 383 0 0 399 0 0 424 0 0 409 0 0 394 0 0 399 0 0 419 0 0 425 0 0 442 0 0 411 0 0 415 0 0 410 0 0 475 0 0 435 0 0 436 0 0 441 0 0 418 0 0 408 0 0 404 0 0 421 0 0 385 0 0 386 0 0 408 0 0 368 0 0 418 0 0 349 0 0 356 0 0 346 0 0 299 0 0 316 0 0 340 0 0 269 0 0 235 0 0 228 0 0 216 0 0 218 0 0 153 0 0 142 0 0 140 0 0 148 0 0 138 0 0 103 0 0 
49 0 0 105 0 0 98 0 0 135 0 0 116 0 0 132 0 0 148 0 0 169 0 0 206 0 0 196 0 0 243 0 0 220 0 0 261 0 0 266 0 0 248 0 0 298 0 0 335 0 0 338 0 0 338 0 0 299 0 0 306 0 0 320 0 0 331 0 0 383 0 0 360 0 0 364 0 0 365 0 0 392 0 0 381 0 0 371 0 0 371 0 0 351 0 0 381 0 0 379 0 0 365 0 0 403 0 0 336 0 0 343 0 0 372 0 0 354 0 0 342 0 0 333 0 0 313 0 0 312 0 0 278 0 0 304 0 0 307 0 0 262 0 0 252 0 0 239 0 0 227 0 0 185 0 0 182 0 0 151 0 0 169 0 0 153 0 0 137 0 0 119 0 0 118 0 0 114 0 0 
45 0 0 106 0 0 98 0 0 121 0 0 140 0 0 135 0 0 142 0 0 172 0 0 156 0 0 166 0 0 215 0 0 184 0 0 209 0 0 257 0 0 228 0 0 253 0 0 242 0 0 263 0 0 291 0 0 273 0 0 315 0 0 265 0 0 288 0 0 300 0 0 323 0 0 312 0 0 304 0 0 302 0 0 303 0 0 318 0 0 355 0 0 307 0 0 313 0 0 315 0 0 318 0 0 330 0 0 323 0 0 309 0 0 305 0 0 281 0 0 311 0 0 251 0 0 261 0 0 256 0 0 305 0 0 259 0 0 243 0 0 235 0 0 219 0 0 214 0 0 207 0 0 164 0 0 171 0 0 164 0 0 138 0 0 129 0 0 127 0 0 112 0 0 114 0 0 113 0 0 
36 0 0 88 0 0 88 0 0 101 0 0 114 0 0 104 0 0 132 0 0 131 0 0 133 0 0 162 0 0 165 0 0 175 0 0 201 0 0 217 0 0 205 0 0 220 0 0 245 0 0 219 0 0 254 0 0 251 0 0 268 0 0 271 0 0 293 0 0 288 0 0 258 0 0 319 0 0 264 0 0 270 0 0 302 0 0 284 0 0 258 0 0 289 0 0 300 0 0 257 0 0 268 0 0 268 0 0 282 0 0 281 0 0 265 0 0 272 0 0 250 0 0 259 0 0 264 0 0 242 0 0 200 0 0 236 0 0 213 0 0 212 0 0 188 0 0 178 0 0 155 0 0 144 0 0 131 0 0 134 0 0 131 0 0 134 0 0 110 0 0 113 0 0 88 0 0 93 0 0 
44 0 0 75 0 0 102 0 0 89 0 0 95 0 0 101 0 0 133 0 0 137 0 0 146 0 0 155 0 0 134 0 0 168 0 0 173 0 0 211 0 0 180 0 0 235 0 0 193 0 0 214 0 0 239 0 0 232 0 0 223 0 0 253 0 0 249 0 0 267 0 0 226 0 0 242 0 0 250 0 0 243 0 0 228 0 0 226 0 0 275 0 0 232 0 0 253 0 0 242 0 0 225 0 0 260 0 0 235 0 0 219 0 0 238 0 0 233 0 0 213 0 0 246 0 0 223 0 0 197 0 0 220 0 0 181 0 0 226 0 0 236 0 0 179 0 0 166 0 0 158 0 0 146 0 0 135 0 0 140 0 0 116 0 0 93 0 0 107 0 0 103 0 0 95 0 0 86 0 0 
42 0 0 77 0 0 80 0 0 96 0 0 87 0 0 91 0 0 106 0 0 123 0 0 124 0 0 117 0 0 143 0 0 119 0 0 149 0 0 167 0 0 161 0 0 178 0 0 203 0 0 201 0 0 182 0 0 175 0 0 207 0 0 222 0 0 211 0 0 224 0 0 199 0 0 204 0 0 230 0 0 218 0 0 199 0 0 214 0 0 232 0 0 207 0 0 213 0 0 238 0 0 222 0 0 200 0 0 191 0 0 206 0 0 209 0 0 213 0 0 211 0 0 200 0 0 178 0 0 172 0 0 197 0 0 168 0 0 179 0 0 175 0 0 168 0 0 162 0 0 157 0 0 145 0 0 144 0 0 121 0 0 122 0 0 102 0 0 110 0 0 84 0 0 100 0 0 60 0 0 
