P3
# This is a dose file slice at depth 4 of 100
60 60
# now we give the maximum value of the RGB coordinates.
5876
2 0 0 9 0 0 9 0 0 10 0 0 10 0 0 11 0 0 10 0 0 12 0 0 12 0 0 13 0 0 11 0 0 15 0 0 14 0 0 18 0 0 15 0 0 17 0 0 19 0 0 20 0 0 17 0 0 20 0 0 23 0 0 18 0 0 21 0 0 23 0 0 18 0 0 21 0 0 20 0 0 17 0 0 23 0 0 19 0 0 22 0 0 22 0 0 21 0 0 21 0 0 19 0 0 20 0 0 21 0 0 20 0 0 20 0 0 18 0 0 21 0 0 21 0 0 21 0 0 17 0 0 20 0 0 17 0 0 17 0 0 18 0 0 15 0 0 14 0 0 16 0 0 14 0 0 14 0 0 10 0 0 10 0 0 11 0 0 9 0 0 10 0 0 9 0 0 10 0 0 
8 0 0 21 0 0 23 0 0 21 0 0 24 0 0 25 0 0 29 0 0 31 0 0 30 0 0 31 0 0 34 0 0 36 0 0 37 0 0 34 0 0 41 0 0 41 0 0 50 0 0 45 0 0 48 0 0 46 0 0 52 0 0 47 0 0 49 0 0 49 0 0 50 0 0 49 0 0 51 0 0 51 0 0 55 0 0 51 0 0 51 0 0 52 0 0 57 0 0 49 0 0 54 0 0 50 0 0 46 0 0 55 0 0 53 0 0 48 0 0 50 0 0 49 0 0 45 0 0 47 0 0 45 0 0 40 0 0 42 0 0 41 0 0 34 0 0 35 0 0 33 0 0 32 0 0 31 0 0 26 0 0 29 0 0 24 0 0 25 0 0 24 0 0 23 0 0 21 0 0 
9 0 0 20 0 0 24 0 0 22 0 0 25 0 0 29 0 0 29 0 0 34 0 0 33 0 0 38 0 0 36 0 0 42 0 0 44 0 0 46 0 0 44 0 0 45 0 0 52 0 0 46 0 0 51 0 0 51 0 0 55 0 0 54 0 0 62 0 0 56 0 0 61 0 0 55 0 0 57 0 0 59 0 0 62 0 0 63 0 0 56 0 0 53 0 0 62 0 0 60 0 0 53 0 0 59 0 0 62 0 0 57 0 0 54 0 0 54 0 0 50 0 0 57 0 0 49 0 0 49 0 0 49 0 0 47 0 0 45 0 0 45 0 0 41 0 0 39 0 0 37 0 0 36 0 0 35 0 0 31 0 0 36 0 0 32 0 0 26 0 0 22 0 0 24 0 0 21 0 0 
10 0 0 19 0 0 25 0 0 26 0 0 29 0 0 31 0 0 30 0 0 32 0 0 37 0 0 40 0 0 42 0 0 47 0 0 47 0 0 49 0 0 53 0 0 53 0 0 53 0 0 63 0 0 58 0 0 59 0 0 64 0 0 64 0 0 64 0 0 63 0 0 62 0 0 65 0 0 71 0 0 69 0 0 65 0 0 69 0 0 71 0 0 67 0 0 66 0 0 66 0 0 64 0 0 64 0 0 63 0 0 69 0 0 62 0 0 64 0 0 61 0 0 60 0 0 60 0 0 51 0 0 57 0 0 57 0 0 56 0 0 51 0 0 46 0 0 42 0 0 40 0 0 44 0 0 34 0 0 39 0 0 31 0 0 29 0 0 27 0 0 28 0 0 29 0 0 20 0 0 
9 0 0 19 0 0 24 0 0 28 0 0 31 0 0 35 0 0 35 0 0 36 0 0 37 0 0 41 0 0 50 0 0 52 0 0 52 0 0 53 0 0 59 0 0 57 0 0 59 0 0 61 0 0 66 0 0 68 0 0 69 0 0 70 0 0 74 0 0 77 0 0 71 0 0 72 0 0 71 0 0 82 0 0 74 0 0 73 0 0 77 0 0 73 0 0 71 0 0 73 0 0 72 0 0 70 0 0 74 0 0 74 0 0 72 0 0 71 0 0 71 0 0 67 0 0 62 0 0 64 0 0 63 0 0 64 0 0 63 0 0 57 0 0 51 0 0 50 0 0 52 0 0 44 0 0 42 0 0 41 0 0 36 0 0 36 0 0 31 0 0 28 0 0 26 0 0 22 0 0 
11 0 0 23 0 0 27 0 0 31 0 0 33 0 0 34 0 0 40 0 0 45 0 0 48 0 0 48 0 0 49 0 0 61 0 0 61 0 0 65 0 0 67 0 0 66 0 0 77 0 0 75 0 0 81 0 0 71 0 0 79 0 0 88 0 0 84 0 0 86 0 0 86 0 0 84 0 0 84 0 0 88 0 0 91 0 0 85 0 0 80 0 0 83 0 0 84 0 0 85 0 0 81 0 0 86 0 0 82 0 0 81 0 0 74 0 0 85 0 0 77 0 0 80 0 0 73 0 0 74 0 0 73 0 0 69 0 0 69 0 0 59 0 0 61 0 0 57 0 0 55 0 0 49 0 0 46 0 0 40 0 0 38 0 0 34 0 0 34 0 0 28 0 0 24 0 0 24 0 0 
10 0 0 28 0 0 26 0 0 37 0 0 39 0 0 38 0 0 41 0 0 43 0 0 50 0 0 55 0 0 58 0 0 62 0 0 68 0 0 69 0 0 77 0 0 87 0 0 84 0 0 82 0 0 85 0 0 87 0 0 93 0 0 93 0 0 90 0 0 94 0 0 98 0 0 94 0 0 88 0 0 96 0 0 101 0 0 96 0 0 99 0 0 93 0 0 94 0 0 103 0 0 93 0 0 95 0 0 99 0 0 90 0 0 94 0 0 84 0 0 94 0 0 86 0 0 89 0 0 81 0 0 86 0 0 80 0 0 76 0 0 76 0 0 68 0 0 67 0 0 63 0 0 57 0 0 49 0 0 47 0 0 41 0 0 40 0 0 35 0 0 36 0 0 28 0 0 29 0 0 
11 0 0 31 0 0 31 0 0 39 0 0 41 0 0 43 0 0 44 0 0 53 0 0 53 0 0 59 0 0 67 0 0 72 0 0 82 0 0 78 0 0 88 0 0 94 0 0 103 0 0 101 0 0 103 0 0 104 0 0 106 0 0 112 0 0 114 0 0 113 0 0 107 0 0 107 0 0 108 0 0 111 0 0 109 0 0 109 0 0 114 0 0 118 0 0 113 0 0 103 0 0 112 0 0 108 0 0 102 0 0 110 0 0 109 0 0 107 0 0 108 0 0 91 0 0 101 0 0 97 0 0 92 0 0 91 0 0 87 0 0 85 0 0 81 0 0 78 0 0 69 0 0 58 0 0 51 0 0 53 0 0 48 0 0 39 0 0 43 0 0 36 0 0 32 0 0 26 0 0 
14 0 0 29 0 0 35 0 0 36 0 0 40 0 0 48 0 0 46 0 0 60 0 0 59 0 0 73 0 0 77 0 0 85 0 0 94 0 0 108 0 0 106 0 0 120 0 0 124 0 0 123 0 0 122 0 0 120 0 0 127 0 0 136 0 0 134 0 0 121 0 0 133 0 0 136 0 0 136 0 0 139 0 0 144 0 0 137 0 0 142 0 0 142 0 0 140 0 0 138 0 0 124 0 0 133 0 0 136 0 0 136 0 0 143 0 0 131 0 0 125 0 0 131 0 0 125 0 0 124 0 0 116 0 0 113 0 0 103 0 0 110 0 0 102 0 0 90 0 0 80 0 0 68 0 0 66 0 0 56 0 0 49 0 0 44 0 0 44 0 0 37 0 0 30 0 0 29 0 0 
12 0 0 30 0 0 39 0 0 42 0 0 41 0 0 48 0 0 53 0 0 61 0 0 70 0 0 80 0 0 109 0 0 137 0 0 159 0 0 162 0 0 181 0 0 178 0 0 180 0 0 183 0 0 183 0 0 194 0 0 185 0 0 185 0 0 197 0 0 200 0 0 205 0 0 205 0 0 197 0 0 203 0 0 203 0 0 204 0 0 212 0 0 208 0 0 209 0 0 209 0 0 199 0 0 206 0 0 206 0 0 192 0 0 201 0 0 193 0 0 192 0 0 178 0 0 179 0 0 172 0 0 178 0 0 183 0 0 169 0 0 176 0 0 158 0 0 134 0 0 113 0 0 83 0 0 71 0 0 62 0 0 52 0 0 54 0 0 44 0 0 40 0 0 31 0 0 30 0 0 
12 0 0 30 0 0 37 0 0 37 0 0 50 0 0 54 0 0 58 0 0 60 0 0 78 0 0 114 0 0 1393 0 0 2797 0 0 2771 0 0 2818 0 0 2810 0 0 2776 0 0 2846 0 0 2773 0 0 2823 0 0 2756 0 0 2828 0 0 2799 0 0 2823 0 0 2801 0 0 2836 0 0 2760 0 0 2850 0 0 2782 0 0 2780 0 0 2848 0 0 2798 0 0 2775 0 0 2824 0 0 2693 0 0 2850 0 0 2789 0 0 2835 0 0 2783 0 0 2777 0 0 2751 0 0 2784 0 0 2738 0 0 2845 0 0 2785 0 0 2783 0 0 2753 0 0 2746 0 0 2782 0 0 2769 0 0 2701 0 0 1390 0 0 110 0 0 80 0 0 66 0 0 58 0 0 52 0 0 49 0 0 38 0 0 38 0 0 34 0 0 
14 0 0 34 0 0 37 0 0 43 0 0 50 0 0 60 0 0 72 0 0 84 0 0 87 0 0 133 0 0 2702 0 0 5377 0 0 5425 0 0 5360 0 0 5442 0 0 5527 0 0 5467 0 0 5350 0 0 5406 0 0 5396 0 0 5403 0 0 5321 0 0 5490 0 0 5406 0 0 5408 0 0 5414 0 0 5371 0 0 5492 0 0 5441 0 0 5332 0 0 5544 0 0 5476 0 0 5372 0 0 5373 0 0 5450 0 0 5459 0 0 5464 0 0 5398 0 0 5462 0 0 5346 0 0 5352 0 0 5369 0 0 5346 0 0 5325 0 0 5399 0 0 5392 0 0 5294 0 0 5322 0 0 5317 0 0 5346 0 0 2780 0 0 140 0 0 87 0 0 79 0 0 66 0 0 58 0 0 57 0 0 40 0 0 42 0 0 37 0 0 
15 0 0 34 0 0 40 0 0 46 0 0 58 0 0 55 0 0 66 0 0 81 0 0 100 0 0 148 0 0 2798 0 0 5417 0 0 5454 0 0 5497 0 0 5482 0 0 5524 0 0 5644 0 0 5492 0 0 5416 0 0 5529 0 0 5448 0 0 5430 0 0 5401 0 0 5546 0 0 5453 0 0 5571 0 0 5483 0 0 5492 0 0 5472 0 0 5446 0 0 5532 0 0 5507 0 0 5425 0 0 5534 0 0 5458 0 0 5472 0 0 5460 0 0 5456 0 0 5386 0 0 5429 0 0 5482 0 0 5411 0 0 5482 0 0 5414 0 0 5415 0 0 5488 0 0 5470 0 0 5389 0 0 5445 0 0 5330 0 0 2710 0 0 173 0 0 96 0 0 81 0 0 68 0 0 67 0 0 54 0 0 42 0 0 43 0 0 43 0 0 
17 0 0 40 0 0 46 0 0 47 0 0 56 0 0 64 0 0 71 0 0 85 0 0 109 0 0 161 0 0 2762 0 0 5428 0 0 5421 0 0 5511 0 0 5430 0 0 5543 0 0 5621 0 0 5484 0 0 5388 0 0 5483 0 0 5488 0 0 5524 0 0 5434 0 0 5547 0 0 5425 0 0 5481 0 0 5486 0 0 5518 0 0 5380 0 0 5519 0 0 5603 0 0 5675 0 0 5491 0 0 5572 0 0 5452 0 0 5573 0 0 5520 0 0 5575 0 0 5480 0 0 5615 0 0 5419 0 0 5418 0 0 5529 0 0 5487 0 0 5535 0 0 5510 0 0 5492 0 0 5422 0 0 5415 0 0 5326 0 0 2799 0 0 161 0 0 110 0 0 81 0 0 72 0 0 64 0 0 56 0 0 49 0 0 42 0 0 43 0 0 
16 0 0 42 0 0 47 0 0 53 0 0 57 0 0 62 0 0 76 0 0 92 0 0 110 0 0 166 0 0 2742 0 0 5357 0 0 5461 0 0 5440 0 0 5488 0 0 5527 0 0 5510 0 0 5535 0 0 5590 0 0 5490 0 0 5564 0 0 5571 0 0 5417 0 0 5485 0 0 5620 0 0 5612 0 0 5491 0 0 5438 0 0 5574 0 0 5422 0 0 5620 0 0 5500 0 0 5558 0 0 5633 0 0 5538 0 0 5562 0 0 5540 0 0 5495 0 0 5456 0 0 5581 0 0 5481 0 0 5497 0 0 5546 0 0 5425 0 0 5496 0 0 5555 0 0 5384 0 0 5337 0 0 5607 0 0 5435 0 0 2815 0 0 181 0 0 111 0 0 98 0 0 78 0 0 63 0 0 57 0 0 53 0 0 45 0 0 41 0 0 
17 0 0 42 0 0 47 0 0 51 0 0 57 0 0 66 0 0 78 0 0 100 0 0 112 0 0 185 0 0 2850 0 0 5319 0 0 5520 0 0 5475 0 0 5328 0 0 5523 0 0 5441 0 0 5605 0 0 5487 0 0 5615 0 0 5465 0 0 5519 0 0 5388 0 0 5475 0 0 5556 0 0 5499 0 0 5458 0 0 5683 0 0 5402 0 0 5636 0 0 5587 0 0 5542 0 0 5601 0 0 5549 0 0 5559 0 0 5628 0 0 5679 0 0 5606 0 0 5473 0 0 5438 0 0 5586 0 0 5371 0 0 5578 0 0 5429 0 0 5573 0 0 5518 0 0 5402 0 0 5537 0 0 5414 0 0 5369 0 0 2766 0 0 177 0 0 111 0 0 94 0 0 82 0 0 69 0 0 66 0 0 54 0 0 48 0 0 46 0 0 
14 0 0 43 0 0 47 0 0 49 0 0 61 0 0 67 0 0 80 0 0 97 0 0 125 0 0 178 0 0 2822 0 0 5528 0 0 5539 0 0 5381 0 0 5427 0 0 5513 0 0 5591 0 0 5544 0 0 5634 0 0 5546 0 0 5476 0 0 5451 0 0 5461 0 0 5614 0 0 5548 0 0 5555 0 0 5652 0 0 5593 0 0 5525 0 0 5448 0 0 5519 0 0 5567 0 0 5547 0 0 5583 0 0 5651 0 0 5485 0 0 5571 0 0 5667 0 0 5536 0 0 5493 0 0 5585 0 0 5479 0 0 5491 0 0 5397 0 0 5398 0 0 5487 0 0 5503 0 0 5495 0 0 5375 0 0 5427 0 0 2751 0 0 176 0 0 117 0 0 97 0 0 86 0 0 68 0 0 65 0 0 54 0 0 50 0 0 46 0 0 
17 0 0 44 0 0 51 0 0 58 0 0 59 0 0 74 0 0 92 0 0 104 0 0 115 0 0 182 0 0 2760 0 0 5476 0 0 5469 0 0 5451 0 0 5449 0 0 5508 0 0 5576 0 0 5661 0 0 5511 0 0 5644 0 0 5531 0 0 5505 0 0 5565 0 0 5512 0 0 5416 0 0 5556 0 0 5420 0 0 5564 0 0 5578 0 0 5507 0 0 5447 0 0 5417 0 0 5529 0 0 5558 0 0 5662 0 0 5546 0 0 5573 0 0 5680 0 0 5441 0 0 5590 0 0 5590 0 0 5512 0 0 5582 0 0 5395 0 0 5569 0 0 5518 0 0 5473 0 0 5387 0 0 5454 0 0 5363 0 0 2803 0 0 192 0 0 126 0 0 103 0 0 82 0 0 69 0 0 65 0 0 57 0 0 52 0 0 43 0 0 
20 0 0 45 0 0 52 0 0 60 0 0 59 0 0 70 0 0 89 0 0 97 0 0 124 0 0 185 0 0 2758 0 0 5430 0 0 5502 0 0 5560 0 0 5489 0 0 5458 0 0 5497 0 0 5453 0 0 5573 0 0 5593 0 0 5473 0 0 5595 0 0 5580 0 0 5576 0 0 5528 0 0 5646 0 0 5480 0 0 5614 0 0 5603 0 0 5582 0 0 5627 0 0 5590 0 0 5617 0 0 5653 0 0 5580 0 0 5559 0 0 5428 0 0 5554 0 0 5513 0 0 5664 0 0 5621 0 0 5450 0 0 5570 0 0 5518 0 0 5584 0 0 5481 0 0 5558 0 0 5564 0 0 5502 0 0 5452 0 0 2819 0 0 194 0 0 122 0 0 102 0 0 90 0 0 77 0 0 72 0 0 54 0 0 51 0 0 40 0 0 
19 0 0 43 0 0 52 0 0 62 0 0 66 0 0 71 0 0 86 0 0 99 0 0 124 0 0 190 0 0 2785 0 0 5356 0 0 5462 0 0 5508 0 0 5532 0 0 5547 0 0 5505 0 0 5518 0 0 5514 0 0 5560 0 0 5552 0 0 5554 0 0 5549 0 0 5532 0 0 5558 0 0 5561 0 0 5586 0 0 5611 0 0 5675 0 0 5572 0 0 5543 0 0 5630 0 0 5527 0 0 5602 0 0 5633 0 0 5654 0 0 5609 0 0 5621 0 0 5524 0 0 5563 0 0 5614 0 0 5578 0 0 5492 0 0 5501 0 0 5550 0 0 5519 0 0 5659 0 0 5473 0 0 5470 0 0 5469 0 0 2783 0 0 191 0 0 126 0 0 97 0 0 86 0 0 74 0 0 72 0 0 58 0 0 58 0 0 46 0 0 
19 0 0 48 0 0 56 0 0 67 0 0 68 0 0 76 0 0 90 0 0 107 0 0 125 0 0 177 0 0 2790 0 0 5411 0 0 5490 0 0 5400 0 0 5512 0 0 5567 0 0 5704 0 0 5529 0 0 5622 0 0 5571 0 0 5522 0 0 5460 0 0 5676 0 0 5539 0 0 5633 0 0 5516 0 0 5607 0 0 5527 0 0 5661 0 0 5593 0 0 5528 0 0 5623 0 0 5637 0 0 5594 0 0 5483 0 0 5545 0 0 5681 0 0 5598 0 0 5587 0 0 5567 0 0 5543 0 0 5559 0 0 5546 0 0 5610 0 0 5419 0 0 5598 0 0 5489 0 0 5483 0 0 5443 0 0 5498 0 0 2737 0 0 181 0 0 129 0 0 107 0 0 89 0 0 78 0 0 68 0 0 65 0 0 55 0 0 55 0 0 
21 0 0 49 0 0 58 0 0 60 0 0 74 0 0 81 0 0 93 0 0 107 0 0 128 0 0 186 0 0 2832 0 0 5447 0 0 5315 0 0 5451 0 0 5421 0 0 5472 0 0 5515 0 0 5299 0 0 5520 0 0 5572 0 0 5564 0 0 5524 0 0 5601 0 0 5589 0 0 5612 0 0 5629 0 0 5507 0 0 5612 0 0 5604 0 0 5487 0 0 5602 0 0 5575 0 0 5522 0 0 5590 0 0 5752 0 0 5502 0 0 5675 0 0 5606 0 0 5488 0 0 5600 0 0 5640 0 0 5555 0 0 5570 0 0 5502 0 0 5622 0 0 5414 0 0 5500 0 0 5427 0 0 5430 0 0 5511 0 0 2785 0 0 206 0 0 128 0 0 110 0 0 91 0 0 83 0 0 69 0 0 59 0 0 57 0 0 46 0 0 
20 0 0 52 0 0 54 0 0 66 0 0 74 0 0 89 0 0 89 0 0 106 0 0 127 0 0 197 0 0 2782 0 0 5382 0 0 5477 0 0 5531 0 0 5450 0 0 5497 0 0 5552 0 0 5573 0 0 5475 0 0 5550 0 0 5496 0 0 5587 0 0 5591 0 0 5540 0 0 5571 0 0 5636 0 0 5533 0 0 5546 0 0 5646 0 0 5579 0 0 5649 0 0 5616 0 0 5502 0 0 5725 0 0 5667 0 0 5614 0 0 5639 0 0 5539 0 0 5583 0 0 5604 0 0 5594 0 0 5542 0 0 5484 0 0 5591 0 0 5554 0 0 5562 0 0 5557 0 0 5520 0 0 5533 0 0 5419 0 0 2782 0 0 201 0 0 129 0 0 108 0 0 93 0 0 79 0 0 71 0 0 61 0 0 56 0 0 49 0 0 
18 0 0 52 0 0 54 0 0 65 0 0 79 0 0 87 0 0 93 0 0 107 0 0 129 0 0 190 0 0 2731 0 0 5347 0 0 5407 0 0 5421 0 0 5509 0 0 5545 0 0 5575 0 0 5535 0 0 5457 0 0 5529 0 0 5476 0 0 5555 0 0 5598 0 0 5590 0 0 5630 0 0 5603 0 0 5647 0 0 5527 0 0 5724 0 0 5687 0 0 5614 0 0 5522 0 0 5692 0 0 5474 0 0 5546 0 0 5656 0 0 5611 0 0 5545 0 0 5744 0 0 5464 0 0 5496 0 0 5498 0 0 5559 0 0 5529 0 0 5527 0 0 5504 0 0 5471 0 0 5386 0 0 5595 0 0 5451 0 0 2869 0 0 220 0 0 134 0 0 108 0 0 95 0 0 87 0 0 69 0 0 63 0 0 54 0 0 51 0 0 
21 0 0 48 0 0 57 0 0 61 0 0 75 0 0 86 0 0 97 0 0 111 0 0 134 0 0 200 0 0 2835 0 0 5444 0 0 5306 0 0 5358 0 0 5511 0 0 5455 0 0 5469 0 0 5534 0 0 5553 0 0 5571 0 0 5546 0 0 5619 0 0 5494 0 0 5478 0 0 5564 0 0 5633 0 0 5654 0 0 5604 0 0 5618 0 0 5608 0 0 5683 0 0 5604 0 0 5608 0 0 5625 0 0 5653 0 0 5535 0 0 5566 0 0 5483 0 0 5456 0 0 5496 0 0 5577 0 0 5585 0 0 5510 0 0 5627 0 0 5569 0 0 5519 0 0 5494 0 0 5508 0 0 5488 0 0 5489 0 0 2757 0 0 186 0 0 134 0 0 113 0 0 98 0 0 87 0 0 70 0 0 63 0 0 57 0 0 51 0 0 
19 0 0 51 0 0 55 0 0 63 0 0 72 0 0 81 0 0 94 0 0 111 0 0 123 0 0 202 0 0 2794 0 0 5383 0 0 5481 0 0 5444 0 0 5480 0 0 5464 0 0 5607 0 0 5639 0 0 5325 0 0 5555 0 0 5550 0 0 5577 0 0 5623 0 0 5629 0 0 5657 0 0 5620 0 0 5566 0 0 5604 0 0 5511 0 0 5495 0 0 5558 0 0 5630 0 0 5585 0 0 5556 0 0 5506 0 0 5683 0 0 5645 0 0 5581 0 0 5620 0 0 5490 0 0 5639 0 0 5597 0 0 5579 0 0 5613 0 0 5617 0 0 5523 0 0 5598 0 0 5463 0 0 5540 0 0 5401 0 0 2874 0 0 201 0 0 138 0 0 110 0 0 91 0 0 77 0 0 73 0 0 68 0 0 55 0 0 51 0 0 
21 0 0 46 0 0 62 0 0 67 0 0 77 0 0 86 0 0 96 0 0 111 0 0 136 0 0 201 0 0 2838 0 0 5437 0 0 5425 0 0 5486 0 0 5506 0 0 5495 0 0 5591 0 0 5550 0 0 5571 0 0 5527 0 0 5486 0 0 5598 0 0 5548 0 0 5596 0 0 5663 0 0 5506 0 0 5543 0 0 5595 0 0 5675 0 0 5642 0 0 5616 0 0 5622 0 0 5623 0 0 5539 0 0 5513 0 0 5593 0 0 5770 0 0 5415 0 0 5529 0 0 5626 0 0 5519 0 0 5596 0 0 5532 0 0 5659 0 0 5552 0 0 5529 0 0 5626 0 0 5650 0 0 5550 0 0 5353 0 0 2754 0 0 193 0 0 138 0 0 106 0 0 97 0 0 81 0 0 72 0 0 70 0 0 56 0 0 51 0 0 
22 0 0 53 0 0 57 0 0 63 0 0 75 0 0 83 0 0 93 0 0 119 0 0 132 0 0 210 0 0 2827 0 0 5393 0 0 5610 0 0 5475 0 0 5587 0 0 5423 0 0 5509 0 0 5503 0 0 5574 0 0 5526 0 0 5540 0 0 5592 0 0 5548 0 0 5519 0 0 5676 0 0 5569 0 0 5653 0 0 5520 0 0 5611 0 0 5579 0 0 5617 0 0 5582 0 0 5461 0 0 5634 0 0 5587 0 0 5667 0 0 5635 0 0 5556 0 0 5511 0 0 5520 0 0 5706 0 0 5649 0 0 5646 0 0 5604 0 0 5517 0 0 5589 0 0 5509 0 0 5562 0 0 5596 0 0 5458 0 0 2856 0 0 197 0 0 130 0 0 111 0 0 98 0 0 85 0 0 70 0 0 65 0 0 59 0 0 54 0 0 
22 0 0 50 0 0 59 0 0 61 0 0 73 0 0 79 0 0 102 0 0 112 0 0 135 0 0 206 0 0 2833 0 0 5462 0 0 5522 0 0 5510 0 0 5493 0 0 5529 0 0 5625 0 0 5502 0 0 5512 0 0 5547 0 0 5532 0 0 5483 0 0 5601 0 0 5582 0 0 5608 0 0 5609 0 0 5632 0 0 5571 0 0 5609 0 0 5623 0 0 5470 0 0 5692 0 0 5534 0 0 5644 0 0 5588 0 0 5635 0 0 5612 0 0 5498 0 0 5524 0 0 5691 0 0 5559 0 0 5679 0 0 5644 0 0 5546 0 0 5520 0 0 5547 0 0 5556 0 0 5520 0 0 5450 0 0 5477 0 0 2750 0 0 197 0 0 135 0 0 105 0 0 85 0 0 77 0 0 73 0 0 67 0 0 55 0 0 51 0 0 
19 0 0 51 0 0 61 0 0 64 0 0 72 0 0 96 0 0 96 0 0 116 0 0 139 0 0 188 0 0 2754 0 0 5450 0 0 5522 0 0 5457 0 0 5469 0 0 5432 0 0 5570 0 0 5405 0 0 5490 0 0 5550 0 0 5589 0 0 5599 0 0 5635 0 0 5533 0 0 5640 0 0 5565 0 0 5684 0 0 5662 0 0 5692 0 0 5584 0 0 5578 0 0 5580 0 0 5564 0 0 5572 0 0 5555 0 0 5608 0 0 5630 0 0 5605 0 0 5636 0 0 5464 0 0 5523 0 0 5600 0 0 5549 0 0 5592 0 0 5577 0 0 5589 0 0 5612 0 0 5497 0 0 5429 0 0 5356 0 0 2801 0 0 209 0 0 137 0 0 122 0 0 98 0 0 85 0 0 74 0 0 65 0 0 62 0 0 51 0 0 
22 0 0 52 0 0 60 0 0 66 0 0 75 0 0 83 0 0 93 0 0 111 0 0 146 0 0 202 0 0 2874 0 0 5466 0 0 5582 0 0 5496 0 0 5583 0 0 5530 0 0 5586 0 0 5524 0 0 5714 0 0 5672 0 0 5645 0 0 5555 0 0 5683 0 0 5560 0 0 5492 0 0 5600 0 0 5732 0 0 5604 0 0 5508 0 0 5690 0 0 5615 0 0 5604 0 0 5618 0 0 5627 0 0 5626 0 0 5668 0 0 5585 0 0 5533 0 0 5617 0 0 5525 0 0 5629 0 0 5586 0 0 5592 0 0 5574 0 0 5577 0 0 5642 0 0 5540 0 0 5605 0 0 5396 0 0 5391 0 0 2795 0 0 210 0 0 147 0 0 111 0 0 95 0 0 89 0 0 74 0 0 67 0 0 57 0 0 52 0 0 
21 0 0 55 0 0 66 0 0 66 0 0 77 0 0 81 0 0 102 0 0 110 0 0 132 0 0 192 0 0 2829 0 0 5312 0 0 5479 0 0 5452 0 0 5513 0 0 5461 0 0 5624 0 0 5589 0 0 5702 0 0 5558 0 0 5653 0 0 5494 0 0 5606 0 0 5585 0 0 5636 0 0 5650 0 0 5642 0 0 5577 0 0 5654 0 0 5694 0 0 5515 0 0 5587 0 0 5556 0 0 5602 0 0 5620 0 0 5560 0 0 5659 0 0 5646 0 0 5589 0 0 5650 0 0 5546 0 0 5510 0 0 5498 0 0 5610 0 0 5559 0 0 5545 0 0 5473 0 0 5556 0 0 5509 0 0 5465 0 0 2837 0 0 211 0 0 137 0 0 118 0 0 97 0 0 91 0 0 74 0 0 67 0 0 58 0 0 51 0 0 
21 0 0 52 0 0 58 0 0 67 0 0 75 0 0 86 0 0 94 0 0 106 0 0 140 0 0 194 0 0 2839 0 0 5335 0 0 5501 0 0 5530 0 0 5589 0 0 5503 0 0 5631 0 0 5510 0 0 5510 0 0 5626 0 0 5676 0 0 5562 0 0 5626 0 0 5494 0 0 5622 0 0 5579 0 0 5668 0 0 5636 0 0 5717 0 0 5552 0 0 5518 0 0 5743 0 0 5652 0 0 5517 0 0 5590 0 0 5532 0 0 5707 0 0 5519 0 0 5728 0 0 5570 0 0 5630 0 0 5638 0 0 5585 0 0 5613 0 0 5541 0 0 5543 0 0 5566 0 0 5543 0 0 5464 0 0 5373 0 0 2835 0 0 206 0 0 135 0 0 110 0 0 101 0 0 81 0 0 73 0 0 65 0 0 59 0 0 51 0 0 
24 0 0 51 0 0 58 0 0 64 0 0 81 0 0 82 0 0 100 0 0 113 0 0 135 0 0 196 0 0 2750 0 0 5393 0 0 5572 0 0 5561 0 0 5535 0 0 5392 0 0 5516 0 0 5685 0 0 5544 0 0 5484 0 0 5569 0 0 5544 0 0 5670 0 0 5586 0 0 5524 0 0 5634 0 0 5465 0 0 5616 0 0 5684 0 0 5695 0 0 5579 0 0 5408 0 0 5589 0 0 5619 0 0 5648 0 0 5600 0 0 5534 0 0 5406 0 0 5552 0 0 5521 0 0 5573 0 0 5648 0 0 5725 0 0 5594 0 0 5437 0 0 5435 0 0 5443 0 0 5584 0 0 5416 0 0 5359 0 0 2870 0 0 202 0 0 135 0 0 110 0 0 99 0 0 83 0 0 70 0 0 63 0 0 56 0 0 51 0 0 
24 0 0 53 0 0 60 0 0 62 0 0 70 0 0 84 0 0 95 0 0 107 0 0 137 0 0 206 0 0 2817 0 0 5449 0 0 5462 0 0 5484 0 0 5554 0 0 5445 0 0 5579 0 0 5554 0 0 5537 0 0 5474 0 0 5547 0 0 5636 0 0 5533 0 0 5510 0 0 5624 0 0 5509 0 0 5595 0 0 5593 0 0 5575 0 0 5586 0 0 5627 0 0 5556 0 0 5611 0 0 5558 0 0 5579 0 0 5586 0 0 5589 0 0 5552 0 0 5691 0 0 5621 0 0 5602 0 0 5629 0 0 5506 0 0 5575 0 0 5590 0 0 5567 0 0 5524 0 0 5398 0 0 5396 0 0 5390 0 0 2789 0 0 200 0 0 137 0 0 107 0 0 93 0 0 87 0 0 76 0 0 67 0 0 55 0 0 56 0 0 
22 0 0 47 0 0 55 0 0 65 0 0 79 0 0 87 0 0 103 0 0 111 0 0 134 0 0 201 0 0 2804 0 0 5379 0 0 5486 0 0 5461 0 0 5576 0 0 5619 0 0 5509 0 0 5574 0 0 5463 0 0 5449 0 0 5616 0 0 5679 0 0 5457 0 0 5558 0 0 5522 0 0 5612 0 0 5618 0 0 5495 0 0 5658 0 0 5598 0 0 5537 0 0 5696 0 0 5699 0 0 5656 0 0 5573 0 0 5561 0 0 5600 0 0 5598 0 0 5504 0 0 5417 0 0 5615 0 0 5503 0 0 5536 0 0 5595 0 0 5542 0 0 5466 0 0 5608 0 0 5387 0 0 5546 0 0 5437 0 0 2874 0 0 205 0 0 134 0 0 109 0 0 91 0 0 89 0 0 74 0 0 63 0 0 56 0 0 53 0 0 
20 0 0 52 0 0 53 0 0 66 0 0 74 0 0 84 0 0 98 0 0 115 0 0 132 0 0 209 0 0 2889 0 0 5457 0 0 5559 0 0 5588 0 0 5525 0 0 5525 0 0 5410 0 0 5584 0 0 5465 0 0 5531 0 0 5604 0 0 5598 0 0 5476 0 0 5378 0 0 5532 0 0 5561 0 0 5601 0 0 5596 0 0 5553 0 0 5699 0 0 5536 0 0 5555 0 0 5570 0 0 5651 0 0 5558 0 0 5634 0 0 5537 0 0 5569 0 0 5504 0 0 5535 0 0 5577 0 0 5673 0 0 5611 0 0 5583 0 0 5548 0 0 5583 0 0 5520 0 0 5510 0 0 5421 0 0 5408 0 0 2831 0 0 206 0 0 143 0 0 112 0 0 97 0 0 82 0 0 73 0 0 61 0 0 54 0 0 54 0 0 
21 0 0 48 0 0 56 0 0 62 0 0 69 0 0 86 0 0 93 0 0 115 0 0 135 0 0 193 0 0 2870 0 0 5435 0 0 5371 0 0 5552 0 0 5576 0 0 5626 0 0 5489 0 0 5575 0 0 5539 0 0 5583 0 0 5534 0 0 5580 0 0 5464 0 0 5551 0 0 5552 0 0 5565 0 0 5609 0 0 5470 0 0 5486 0 0 5501 0 0 5558 0 0 5580 0 0 5607 0 0 5527 0 0 5527 0 0 5617 0 0 5526 0 0 5574 0 0 5548 0 0 5677 0 0 5662 0 0 5603 0 0 5591 0 0 5580 0 0 5489 0 0 5507 0 0 5468 0 0 5556 0 0 5459 0 0 5358 0 0 2861 0 0 200 0 0 140 0 0 116 0 0 87 0 0 85 0 0 74 0 0 66 0 0 55 0 0 53 0 0 
19 0 0 51 0 0 54 0 0 60 0 0 70 0 0 80 0 0 95 0 0 111 0 0 133 0 0 190 0 0 2741 0 0 5454 0 0 5495 0 0 5456 0 0 5436 0 0 5572 0 0 5426 0 0 5536 0 0 5557 0 0 5547 0 0 5554 0 0 5567 0 0 5669 0 0 5582 0 0 5577 0 0 5533 0 0 5486 0 0 5612 0 0 5604 0 0 5486 0 0 5583 0 0 5409 0 0 5573 0 0 5536 0 0 5630 0 0 5594 0 0 5662 0 0 5579 0 0 5530 0 0 5589 0 0 5596 0 0 5509 0 0 5519 0 0 5531 0 0 5616 0 0 5466 0 0 5598 0 0 5538 0 0 5411 0 0 5445 0 0 2765 0 0 191 0 0 141 0 0 109 0 0 90 0 0 85 0 0 70 0 0 62 0 0 57 0 0 51 0 0 
18 0 0 51 0 0 52 0 0 60 0 0 67 0 0 77 0 0 92 0 0 106 0 0 136 0 0 201 0 0 2736 0 0 5422 0 0 5503 0 0 5582 0 0 5521 0 0 5467 0 0 5652 0 0 5642 0 0 5523 0 0 5646 0 0 5597 0 0 5614 0 0 5442 0 0 5562 0 0 5565 0 0 5526 0 0 5638 0 0 5626 0 0 5542 0 0 5625 0 0 5546 0 0 5560 0 0 5504 0 0 5545 0 0 5454 0 0 5500 0 0 5416 0 0 5497 0 0 5566 0 0 5579 0 0 5506 0 0 5525 0 0 5552 0 0 5540 0 0 5556 0 0 5553 0 0 5554 0 0 5550 0 0 5480 0 0 5401 0 0 2777 0 0 204 0 0 129 0 0 107 0 0 94 0 0 79 0 0 73 0 0 62 0 0 57 0 0 46 0 0 
20 0 0 48 0 0 55 0 0 60 0 0 66 0 0 79 0 0 90 0 0 100 0 0 127 0 0 191 0 0 2783 0 0 5382 0 0 5511 0 0 5448 0 0 5419 0 0 5578 0 0 5672 0 0 5552 0 0 5508 0 0 5590 0 0 5470 0 0 5559 0 0 5490 0 0 5588 0 0 5490 0 0 5557 0 0 5526 0 0 5495 0 0 5591 0 0 5533 0 0 5525 0 0 5587 0 0 5525 0 0 5528 0 0 5465 0 0 5424 0 0 5558 0 0 5550 0 0 5509 0 0 5512 0 0 5581 0 0 5540 0 0 5578 0 0 5601 0 0 5543 0 0 5544 0 0 5457 0 0 5457 0 0 5660 0 0 5402 0 0 2835 0 0 183 0 0 129 0 0 101 0 0 100 0 0 76 0 0 64 0 0 60 0 0 55 0 0 48 0 0 
18 0 0 46 0 0 51 0 0 60 0 0 75 0 0 83 0 0 93 0 0 102 0 0 131 0 0 199 0 0 2818 0 0 5558 0 0 5419 0 0 5503 0 0 5436 0 0 5460 0 0 5593 0 0 5548 0 0 5628 0 0 5620 0 0 5600 0 0 5564 0 0 5548 0 0 5517 0 0 5565 0 0 5564 0 0 5509 0 0 5602 0 0 5565 0 0 5540 0 0 5558 0 0 5599 0 0 5498 0 0 5641 0 0 5605 0 0 5461 0 0 5473 0 0 5514 0 0 5593 0 0 5530 0 0 5540 0 0 5551 0 0 5546 0 0 5513 0 0 5426 0 0 5520 0 0 5603 0 0 5481 0 0 5582 0 0 5472 0 0 2794 0 0 192 0 0 126 0 0 104 0 0 88 0 0 75 0 0 63 0 0 61 0 0 51 0 0 46 0 0 
20 0 0 43 0 0 51 0 0 57 0 0 62 0 0 71 0 0 85 0 0 100 0 0 125 0 0 181 0 0 2869 0 0 5371 0 0 5477 0 0 5428 0 0 5602 0 0 5496 0 0 5496 0 0 5546 0 0 5536 0 0 5412 0 0 5571 0 0 5481 0 0 5526 0 0 5617 0 0 5484 0 0 5561 0 0 5575 0 0 5559 0 0 5574 0 0 5655 0 0 5549 0 0 5510 0 0 5616 0 0 5562 0 0 5547 0 0 5582 0 0 5566 0 0 5673 0 0 5511 0 0 5537 0 0 5599 0 0 5498 0 0 5493 0 0 5536 0 0 5483 0 0 5491 0 0 5542 0 0 5489 0 0 5558 0 0 5517 0 0 2919 0 0 176 0 0 123 0 0 96 0 0 85 0 0 71 0 0 66 0 0 63 0 0 49 0 0 44 0 0 
18 0 0 42 0 0 47 0 0 57 0 0 63 0 0 69 0 0 79 0 0 98 0 0 126 0 0 187 0 0 2786 0 0 5405 0 0 5410 0 0 5452 0 0 5521 0 0 5524 0 0 5488 0 0 5501 0 0 5503 0 0 5548 0 0 5669 0 0 5421 0 0 5464 0 0 5598 0 0 5538 0 0 5602 0 0 5582 0 0 5587 0 0 5606 0 0 5609 0 0 5508 0 0 5531 0 0 5596 0 0 5570 0 0 5510 0 0 5550 0 0 5510 0 0 5570 0 0 5585 0 0 5595 0 0 5529 0 0 5536 0 0 5462 0 0 5513 0 0 5506 0 0 5486 0 0 5442 0 0 5511 0 0 5420 0 0 5399 0 0 2797 0 0 182 0 0 123 0 0 98 0 0 83 0 0 70 0 0 64 0 0 56 0 0 50 0 0 43 0 0 
17 0 0 42 0 0 52 0 0 50 0 0 61 0 0 65 0 0 84 0 0 93 0 0 110 0 0 161 0 0 2748 0 0 5384 0 0 5541 0 0 5477 0 0 5643 0 0 5553 0 0 5506 0 0 5578 0 0 5557 0 0 5424 0 0 5481 0 0 5518 0 0 5521 0 0 5545 0 0 5503 0 0 5601 0 0 5526 0 0 5528 0 0 5536 0 0 5526 0 0 5643 0 0 5522 0 0 5465 0 0 5589 0 0 5591 0 0 5607 0 0 5403 0 0 5532 0 0 5454 0 0 5501 0 0 5543 0 0 5489 0 0 5566 0 0 5513 0 0 5421 0 0 5357 0 0 5592 0 0 5421 0 0 5481 0 0 5326 0 0 2817 0 0 185 0 0 122 0 0 103 0 0 83 0 0 64 0 0 59 0 0 50 0 0 48 0 0 40 0 0 
17 0 0 44 0 0 46 0 0 51 0 0 57 0 0 72 0 0 79 0 0 94 0 0 107 0 0 181 0 0 2825 0 0 5436 0 0 5485 0 0 5475 0 0 5485 0 0 5453 0 0 5569 0 0 5546 0 0 5549 0 0 5544 0 0 5472 0 0 5556 0 0 5508 0 0 5518 0 0 5546 0 0 5521 0 0 5614 0 0 5485 0 0 5608 0 0 5517 0 0 5597 0 0 5638 0 0 5638 0 0 5555 0 0 5518 0 0 5443 0 0 5554 0 0 5531 0 0 5596 0 0 5533 0 0 5494 0 0 5566 0 0 5498 0 0 5513 0 0 5511 0 0 5467 0 0 5411 0 0 5489 0 0 5341 0 0 5398 0 0 2719 0 0 183 0 0 118 0 0 93 0 0 79 0 0 73 0 0 57 0 0 52 0 0 47 0 0 44 0 0 
18 0 0 36 0 0 45 0 0 54 0 0 53 0 0 68 0 0 78 0 0 82 0 0 108 0 0 168 0 0 2774 0 0 5402 0 0 5505 0 0 5386 0 0 5488 0 0 5587 0 0 5565 0 0 5545 0 0 5561 0 0 5438 0 0 5324 0 0 5450 0 0 5374 0 0 5549 0 0 5609 0 0 5582 0 0 5438 0 0 5532 0 0 5527 0 0 5492 0 0 5533 0 0 5386 0 0 5495 0 0 5497 0 0 5549 0 0 5387 0 0 5607 0 0 5501 0 0 5494 0 0 5466 0 0 5517 0 0 5517 0 0 5561 0 0 5425 0 0 5451 0 0 5486 0 0 5433 0 0 5454 0 0 5444 0 0 5384 0 0 2746 0 0 181 0 0 125 0 0 93 0 0 81 0 0 62 0 0 64 0 0 51 0 0 46 0 0 38 0 0 
16 0 0 38 0 0 42 0 0 44 0 0 53 0 0 70 0 0 73 0 0 87 0 0 98 0 0 157 0 0 2777 0 0 5397 0 0 5468 0 0 5443 0 0 5514 0 0 5480 0 0 5530 0 0 5557 0 0 5555 0 0 5512 0 0 5598 0 0 5440 0 0 5535 0 0 5482 0 0 5460 0 0 5464 0 0 5506 0 0 5459 0 0 5582 0 0 5576 0 0 5492 0 0 5503 0 0 5583 0 0 5626 0 0 5589 0 0 5534 0 0 5436 0 0 5463 0 0 5437 0 0 5554 0 0 5499 0 0 5529 0 0 5490 0 0 5464 0 0 5450 0 0 5489 0 0 5469 0 0 5479 0 0 5405 0 0 5394 0 0 2799 0 0 181 0 0 107 0 0 91 0 0 76 0 0 68 0 0 55 0 0 50 0 0 45 0 0 36 0 0 
16 0 0 39 0 0 36 0 0 48 0 0 55 0 0 58 0 0 64 0 0 78 0 0 96 0 0 156 0 0 2734 0 0 5312 0 0 5419 0 0 5577 0 0 5407 0 0 5482 0 0 5389 0 0 5556 0 0 5509 0 0 5445 0 0 5433 0 0 5503 0 0 5519 0 0 5440 0 0 5419 0 0 5506 0 0 5486 0 0 5414 0 0 5650 0 0 5510 0 0 5543 0 0 5323 0 0 5430 0 0 5450 0 0 5507 0 0 5487 0 0 5425 0 0 5538 0 0 5414 0 0 5396 0 0 5454 0 0 5401 0 0 5488 0 0 5460 0 0 5397 0 0 5482 0 0 5435 0 0 5410 0 0 5453 0 0 5226 0 0 2817 0 0 151 0 0 101 0 0 85 0 0 75 0 0 63 0 0 48 0 0 47 0 0 42 0 0 41 0 0 
15 0 0 33 0 0 42 0 0 41 0 0 49 0 0 51 0 0 64 0 0 72 0 0 92 0 0 130 0 0 2770 0 0 5327 0 0 5090 0 0 5390 0 0 5417 0 0 5468 0 0 5407 0 0 5373 0 0 5445 0 0 5448 0 0 5455 0 0 5482 0 0 5390 0 0 5507 0 0 5485 0 0 5344 0 0 5432 0 0 5337 0 0 5524 0 0 5395 0 0 5517 0 0 5297 0 0 5485 0 0 5415 0 0 5429 0 0 5472 0 0 5492 0 0 5414 0 0 5385 0 0 5451 0 0 5465 0 0 5316 0 0 5373 0 0 5404 0 0 5427 0 0 5395 0 0 5344 0 0 5419 0 0 5399 0 0 5250 0 0 2730 0 0 138 0 0 88 0 0 76 0 0 63 0 0 54 0 0 53 0 0 45 0 0 38 0 0 33 0 0 
13 0 0 36 0 0 33 0 0 40 0 0 47 0 0 54 0 0 59 0 0 68 0 0 82 0 0 109 0 0 1412 0 0 2729 0 0 2805 0 0 2648 0 0 2733 0 0 2730 0 0 2794 0 0 2798 0 0 2826 0 0 2779 0 0 2923 0 0 2780 0 0 2801 0 0 2747 0 0 2806 0 0 2752 0 0 2739 0 0 2810 0 0 2857 0 0 2796 0 0 2841 0 0 2876 0 0 2818 0 0 2858 0 0 2820 0 0 2863 0 0 2912 0 0 2855 0 0 2770 0 0 2800 0 0 2769 0 0 2797 0 0 2820 0 0 2800 0 0 2740 0 0 2730 0 0 2839 0 0 2725 0 0 2770 0 0 2749 0 0 1429 0 0 111 0 0 82 0 0 67 0 0 63 0 0 54 0 0 47 0 0 39 0 0 36 0 0 29 0 0 
12 0 0 28 0 0 34 0 0 36 0 0 44 0 0 46 0 0 50 0 0 59 0 0 69 0 0 90 0 0 114 0 0 143 0 0 158 0 0 152 0 0 169 0 0 165 0 0 186 0 0 184 0 0 194 0 0 179 0 0 196 0 0 186 0 0 196 0 0 200 0 0 191 0 0 190 0 0 190 0 0 205 0 0 206 0 0 205 0 0 208 0 0 208 0 0 206 0 0 202 0 0 192 0 0 207 0 0 193 0 0 192 0 0 200 0 0 201 0 0 189 0 0 188 0 0 193 0 0 184 0 0 184 0 0 167 0 0 165 0 0 171 0 0 160 0 0 137 0 0 113 0 0 84 0 0 73 0 0 63 0 0 58 0 0 50 0 0 47 0 0 40 0 0 34 0 0 29 0 0 
12 0 0 30 0 0 32 0 0 34 0 0 41 0 0 42 0 0 47 0 0 56 0 0 67 0 0 73 0 0 79 0 0 91 0 0 93 0 0 103 0 0 110 0 0 116 0 0 118 0 0 125 0 0 126 0 0 129 0 0 126 0 0 135 0 0 144 0 0 125 0 0 139 0 0 140 0 0 135 0 0 142 0 0 139 0 0 133 0 0 140 0 0 141 0 0 133 0 0 141 0 0 139 0 0 131 0 0 133 0 0 129 0 0 134 0 0 130 0 0 132 0 0 121 0 0 122 0 0 118 0 0 121 0 0 117 0 0 113 0 0 104 0 0 98 0 0 94 0 0 86 0 0 64 0 0 66 0 0 54 0 0 50 0 0 43 0 0 45 0 0 39 0 0 34 0 0 30 0 0 
11 0 0 29 0 0 32 0 0 34 0 0 39 0 0 42 0 0 51 0 0 55 0 0 59 0 0 63 0 0 68 0 0 73 0 0 80 0 0 84 0 0 89 0 0 98 0 0 87 0 0 105 0 0 99 0 0 106 0 0 103 0 0 105 0 0 104 0 0 103 0 0 108 0 0 110 0 0 108 0 0 118 0 0 108 0 0 113 0 0 112 0 0 112 0 0 111 0 0 118 0 0 108 0 0 108 0 0 109 0 0 105 0 0 104 0 0 114 0 0 106 0 0 112 0 0 101 0 0 100 0 0 93 0 0 95 0 0 95 0 0 85 0 0 88 0 0 78 0 0 73 0 0 63 0 0 58 0 0 50 0 0 43 0 0 42 0 0 42 0 0 36 0 0 28 0 0 28 0 0 
12 0 0 28 0 0 31 0 0 33 0 0 38 0 0 37 0 0 41 0 0 44 0 0 51 0 0 58 0 0 56 0 0 65 0 0 69 0 0 72 0 0 78 0 0 76 0 0 85 0 0 81 0 0 84 0 0 90 0 0 89 0 0 89 0 0 98 0 0 86 0 0 102 0 0 89 0 0 93 0 0 102 0 0 95 0 0 93 0 0 96 0 0 95 0 0 95 0 0 95 0 0 98 0 0 94 0 0 97 0 0 93 0 0 93 0 0 89 0 0 91 0 0 88 0 0 82 0 0 93 0 0 77 0 0 81 0 0 75 0 0 74 0 0 66 0 0 57 0 0 62 0 0 57 0 0 49 0 0 47 0 0 40 0 0 38 0 0 38 0 0 31 0 0 30 0 0 26 0 0 
13 0 0 27 0 0 25 0 0 31 0 0 31 0 0 38 0 0 38 0 0 41 0 0 46 0 0 54 0 0 55 0 0 55 0 0 58 0 0 61 0 0 68 0 0 71 0 0 68 0 0 69 0 0 75 0 0 77 0 0 77 0 0 83 0 0 86 0 0 83 0 0 85 0 0 84 0 0 89 0 0 86 0 0 83 0 0 83 0 0 82 0 0 89 0 0 82 0 0 88 0 0 82 0 0 82 0 0 84 0 0 86 0 0 75 0 0 80 0 0 80 0 0 79 0 0 75 0 0 71 0 0 70 0 0 73 0 0 70 0 0 64 0 0 60 0 0 51 0 0 51 0 0 53 0 0 44 0 0 39 0 0 37 0 0 34 0 0 33 0 0 29 0 0 30 0 0 24 0 0 
10 0 0 25 0 0 24 0 0 31 0 0 30 0 0 31 0 0 36 0 0 36 0 0 41 0 0 45 0 0 45 0 0 51 0 0 53 0 0 51 0 0 54 0 0 59 0 0 66 0 0 68 0 0 63 0 0 63 0 0 70 0 0 76 0 0 79 0 0 79 0 0 73 0 0 75 0 0 73 0 0 78 0 0 74 0 0 70 0 0 76 0 0 79 0 0 78 0 0 74 0 0 77 0 0 78 0 0 76 0 0 71 0 0 72 0 0 74 0 0 67 0 0 69 0 0 64 0 0 65 0 0 63 0 0 60 0 0 61 0 0 55 0 0 52 0 0 50 0 0 44 0 0 42 0 0 37 0 0 36 0 0 35 0 0 29 0 0 33 0 0 28 0 0 23 0 0 23 0 0 
9 0 0 19 0 0 24 0 0 26 0 0 27 0 0 28 0 0 33 0 0 33 0 0 36 0 0 39 0 0 40 0 0 43 0 0 49 0 0 48 0 0 51 0 0 57 0 0 58 0 0 61 0 0 60 0 0 64 0 0 66 0 0 61 0 0 62 0 0 65 0 0 66 0 0 66 0 0 64 0 0 65 0 0 65 0 0 66 0 0 63 0 0 66 0 0 68 0 0 70 0 0 69 0 0 70 0 0 66 0 0 62 0 0 64 0 0 63 0 0 68 0 0 64 0 0 61 0 0 53 0 0 59 0 0 52 0 0 53 0 0 47 0 0 48 0 0 48 0 0 44 0 0 41 0 0 37 0 0 38 0 0 34 0 0 34 0 0 27 0 0 27 0 0 22 0 0 21 0 0 
10 0 0 20 0 0 23 0 0 24 0 0 23 0 0 26 0 0 29 0 0 30 0 0 33 0 0 36 0 0 36 0 0 42 0 0 46 0 0 45 0 0 53 0 0 45 0 0 51 0 0 51 0 0 55 0 0 52 0 0 58 0 0 51 0 0 58 0 0 59 0 0 60 0 0 60 0 0 57 0 0 56 0 0 55 0 0 56 0 0 62 0 0 57 0 0 59 0 0 59 0 0 59 0 0 58 0 0 62 0 0 56 0 0 58 0 0 59 0 0 60 0 0 51 0 0 52 0 0 50 0 0 45 0 0 48 0 0 46 0 0 45 0 0 45 0 0 42 0 0 36 0 0 37 0 0 39 0 0 31 0 0 32 0 0 25 0 0 25 0 0 27 0 0 20 0 0 19 0 0 
7 0 0 17 0 0 19 0 0 22 0 0 24 0 0 26 0 0 28 0 0 27 0 0 31 0 0 32 0 0 34 0 0 37 0 0 37 0 0 38 0 0 43 0 0 39 0 0 46 0 0 45 0 0 47 0 0 44 0 0 45 0 0 47 0 0 44 0 0 52 0 0 54 0 0 52 0 0 55 0 0 50 0 0 49 0 0 51 0 0 50 0 0 52 0 0 56 0 0 49 0 0 48 0 0 50 0 0 54 0 0 55 0 0 49 0 0 51 0 0 49 0 0 47 0 0 43 0 0 47 0 0 42 0 0 42 0 0 37 0 0 45 0 0 36 0 0 39 0 0 33 0 0 32 0 0 29 0 0 30 0 0 24 0 0 27 0 0 23 0 0 22 0 0 21 0 0 18 0 0 
