P3
# This is a dose file slice at depth 26 of 100
60 60
# now we give the maximum value of the RGB coordinates.
6518
28 0 0 75 0 0 72 0 0 86 0 0 77 0 0 91 0 0 88 0 0 74 0 0 86 0 0 95 0 0 108 0 0 124 0 0 152 0 0 131 0 0 144 0 0 130 0 0 135 0 0 147 0 0 148 0 0 160 0 0 177 0 0 179 0 0 141 0 0 190 0 0 175 0 0 187 0 0 161 0 0 183 0 0 182 0 0 172 0 0 167 0 0 180 0 0 174 0 0 179 0 0 174 0 0 186 0 0 183 0 0 162 0 0 157 0 0 181 0 0 149 0 0 152 0 0 144 0 0 145 0 0 134 0 0 139 0 0 129 0 0 117 0 0 137 0 0 134 0 0 106 0 0 92 0 0 98 0 0 109 0 0 83 0 0 87 0 0 78 0 0 74 0 0 74 0 0 66 0 0 
63 0 0 131 0 0 166 0 0 167 0 0 165 0 0 191 0 0 204 0 0 198 0 0 194 0 0 215 0 0 230 0 0 260 0 0 256 0 0 276 0 0 263 0 0 274 0 0 311 0 0 322 0 0 311 0 0 346 0 0 328 0 0 368 0 0 301 0 0 347 0 0 351 0 0 369 0 0 406 0 0 354 0 0 394 0 0 383 0 0 413 0 0 387 0 0 369 0 0 379 0 0 359 0 0 385 0 0 401 0 0 382 0 0 348 0 0 357 0 0 349 0 0 352 0 0 318 0 0 300 0 0 316 0 0 305 0 0 287 0 0 296 0 0 297 0 0 279 0 0 229 0 0 215 0 0 217 0 0 198 0 0 221 0 0 185 0 0 168 0 0 151 0 0 122 0 0 130 0 0 
74 0 0 139 0 0 163 0 0 162 0 0 175 0 0 185 0 0 209 0 0 237 0 0 211 0 0 252 0 0 271 0 0 293 0 0 323 0 0 368 0 0 336 0 0 332 0 0 327 0 0 392 0 0 352 0 0 390 0 0 412 0 0 402 0 0 405 0 0 429 0 0 440 0 0 431 0 0 425 0 0 439 0 0 413 0 0 414 0 0 438 0 0 430 0 0 451 0 0 429 0 0 455 0 0 391 0 0 415 0 0 416 0 0 380 0 0 388 0 0 378 0 0 369 0 0 377 0 0 360 0 0 356 0 0 340 0 0 349 0 0 309 0 0 293 0 0 301 0 0 283 0 0 278 0 0 231 0 0 224 0 0 204 0 0 191 0 0 209 0 0 177 0 0 164 0 0 149 0 0 
60 0 0 144 0 0 177 0 0 212 0 0 201 0 0 216 0 0 228 0 0 255 0 0 231 0 0 272 0 0 307 0 0 307 0 0 313 0 0 325 0 0 355 0 0 355 0 0 361 0 0 385 0 0 446 0 0 440 0 0 442 0 0 435 0 0 424 0 0 492 0 0 496 0 0 462 0 0 467 0 0 453 0 0 527 0 0 476 0 0 482 0 0 480 0 0 469 0 0 490 0 0 483 0 0 485 0 0 474 0 0 407 0 0 444 0 0 450 0 0 383 0 0 415 0 0 423 0 0 429 0 0 392 0 0 380 0 0 379 0 0 336 0 0 341 0 0 300 0 0 318 0 0 269 0 0 265 0 0 232 0 0 197 0 0 170 0 0 222 0 0 194 0 0 164 0 0 133 0 0 
73 0 0 172 0 0 169 0 0 205 0 0 224 0 0 243 0 0 262 0 0 261 0 0 291 0 0 291 0 0 331 0 0 348 0 0 391 0 0 406 0 0 414 0 0 414 0 0 417 0 0 442 0 0 487 0 0 442 0 0 488 0 0 464 0 0 477 0 0 540 0 0 536 0 0 496 0 0 551 0 0 526 0 0 546 0 0 540 0 0 554 0 0 536 0 0 525 0 0 556 0 0 503 0 0 573 0 0 483 0 0 504 0 0 521 0 0 490 0 0 497 0 0 463 0 0 457 0 0 446 0 0 473 0 0 429 0 0 385 0 0 377 0 0 374 0 0 393 0 0 342 0 0 332 0 0 291 0 0 266 0 0 270 0 0 232 0 0 240 0 0 201 0 0 173 0 0 167 0 0 
85 0 0 185 0 0 195 0 0 212 0 0 217 0 0 252 0 0 303 0 0 282 0 0 330 0 0 327 0 0 366 0 0 417 0 0 401 0 0 403 0 0 455 0 0 478 0 0 459 0 0 509 0 0 467 0 0 523 0 0 534 0 0 547 0 0 571 0 0 546 0 0 578 0 0 566 0 0 614 0 0 573 0 0 581 0 0 632 0 0 588 0 0 592 0 0 606 0 0 562 0 0 596 0 0 589 0 0 547 0 0 516 0 0 583 0 0 517 0 0 570 0 0 536 0 0 496 0 0 489 0 0 488 0 0 448 0 0 447 0 0 495 0 0 403 0 0 428 0 0 359 0 0 321 0 0 295 0 0 293 0 0 268 0 0 229 0 0 227 0 0 203 0 0 212 0 0 178 0 0 
94 0 0 200 0 0 197 0 0 229 0 0 249 0 0 270 0 0 276 0 0 300 0 0 344 0 0 352 0 0 440 0 0 450 0 0 510 0 0 454 0 0 517 0 0 520 0 0 529 0 0 535 0 0 558 0 0 584 0 0 606 0 0 585 0 0 621 0 0 662 0 0 622 0 0 642 0 0 690 0 0 643 0 0 682 0 0 693 0 0 639 0 0 640 0 0 658 0 0 694 0 0 656 0 0 640 0 0 651 0 0 674 0 0 589 0 0 645 0 0 602 0 0 608 0 0 584 0 0 583 0 0 563 0 0 509 0 0 550 0 0 460 0 0 474 0 0 458 0 0 390 0 0 374 0 0 336 0 0 328 0 0 291 0 0 272 0 0 246 0 0 205 0 0 186 0 0 192 0 0 
82 0 0 193 0 0 247 0 0 230 0 0 269 0 0 306 0 0 276 0 0 310 0 0 365 0 0 414 0 0 471 0 0 468 0 0 521 0 0 548 0 0 539 0 0 571 0 0 679 0 0 655 0 0 667 0 0 678 0 0 744 0 0 692 0 0 760 0 0 683 0 0 719 0 0 775 0 0 763 0 0 752 0 0 772 0 0 735 0 0 725 0 0 806 0 0 778 0 0 745 0 0 761 0 0 742 0 0 710 0 0 747 0 0 722 0 0 729 0 0 708 0 0 691 0 0 620 0 0 660 0 0 599 0 0 594 0 0 577 0 0 582 0 0 520 0 0 464 0 0 473 0 0 423 0 0 415 0 0 320 0 0 333 0 0 289 0 0 277 0 0 264 0 0 211 0 0 231 0 0 
113 0 0 217 0 0 251 0 0 260 0 0 299 0 0 316 0 0 310 0 0 405 0 0 418 0 0 466 0 0 503 0 0 550 0 0 536 0 0 635 0 0 660 0 0 659 0 0 704 0 0 683 0 0 740 0 0 830 0 0 830 0 0 832 0 0 784 0 0 845 0 0 892 0 0 824 0 0 816 0 0 867 0 0 827 0 0 869 0 0 883 0 0 939 0 0 811 0 0 870 0 0 842 0 0 854 0 0 866 0 0 831 0 0 797 0 0 787 0 0 774 0 0 779 0 0 758 0 0 746 0 0 736 0 0 695 0 0 666 0 0 673 0 0 574 0 0 545 0 0 516 0 0 461 0 0 399 0 0 390 0 0 356 0 0 303 0 0 271 0 0 285 0 0 274 0 0 208 0 0 
117 0 0 234 0 0 245 0 0 258 0 0 292 0 0 324 0 0 373 0 0 402 0 0 464 0 0 509 0 0 561 0 0 606 0 0 707 0 0 772 0 0 790 0 0 789 0 0 826 0 0 842 0 0 908 0 0 914 0 0 944 0 0 936 0 0 977 0 0 956 0 0 987 0 0 1006 0 0 1000 0 0 971 0 0 990 0 0 1054 0 0 1055 0 0 993 0 0 1001 0 0 992 0 0 974 0 0 1020 0 0 954 0 0 969 0 0 914 0 0 960 0 0 995 0 0 894 0 0 854 0 0 824 0 0 846 0 0 836 0 0 766 0 0 744 0 0 711 0 0 631 0 0 562 0 0 519 0 0 482 0 0 392 0 0 350 0 0 329 0 0 312 0 0 264 0 0 262 0 0 257 0 0 
107 0 0 237 0 0 254 0 0 308 0 0 322 0 0 344 0 0 388 0 0 455 0 0 475 0 0 570 0 0 1277 0 0 1989 0 0 2135 0 0 2172 0 0 2259 0 0 2325 0 0 2388 0 0 2338 0 0 2291 0 0 2370 0 0 2391 0 0 2413 0 0 2423 0 0 2365 0 0 2389 0 0 2550 0 0 2520 0 0 2463 0 0 2525 0 0 2461 0 0 2443 0 0 2471 0 0 2445 0 0 2379 0 0 2446 0 0 2501 0 0 2482 0 0 2400 0 0 2413 0 0 2348 0 0 2494 0 0 2317 0 0 2363 0 0 2375 0 0 2313 0 0 2266 0 0 2263 0 0 2184 0 0 2130 0 0 1966 0 0 1334 0 0 594 0 0 491 0 0 462 0 0 404 0 0 367 0 0 325 0 0 335 0 0 249 0 0 238 0 0 
97 0 0 250 0 0 322 0 0 272 0 0 376 0 0 358 0 0 461 0 0 455 0 0 563 0 0 614 0 0 2085 0 0 3485 0 0 3456 0 0 3610 0 0 3650 0 0 3707 0 0 3740 0 0 3866 0 0 3828 0 0 3903 0 0 3954 0 0 3859 0 0 3853 0 0 3860 0 0 4010 0 0 4053 0 0 4092 0 0 4050 0 0 4020 0 0 3912 0 0 3926 0 0 3980 0 0 3889 0 0 4071 0 0 3901 0 0 3868 0 0 3842 0 0 3963 0 0 3926 0 0 3802 0 0 3801 0 0 3649 0 0 3736 0 0 3837 0 0 3791 0 0 3716 0 0 3625 0 0 3566 0 0 3553 0 0 3478 0 0 2066 0 0 649 0 0 534 0 0 500 0 0 465 0 0 412 0 0 339 0 0 329 0 0 273 0 0 260 0 0 
125 0 0 255 0 0 289 0 0 319 0 0 363 0 0 403 0 0 457 0 0 511 0 0 578 0 0 638 0 0 2089 0 0 3523 0 0 3615 0 0 3683 0 0 3815 0 0 3892 0 0 3850 0 0 3928 0 0 4003 0 0 4007 0 0 3886 0 0 3973 0 0 3990 0 0 3967 0 0 4090 0 0 3926 0 0 4198 0 0 4110 0 0 4200 0 0 3979 0 0 4036 0 0 4079 0 0 4074 0 0 4084 0 0 4034 0 0 4084 0 0 4047 0 0 4065 0 0 4031 0 0 4012 0 0 3950 0 0 4014 0 0 3858 0 0 3913 0 0 3855 0 0 3814 0 0 3769 0 0 3606 0 0 3638 0 0 3496 0 0 2201 0 0 673 0 0 540 0 0 494 0 0 452 0 0 403 0 0 359 0 0 292 0 0 339 0 0 259 0 0 
142 0 0 283 0 0 334 0 0 380 0 0 398 0 0 400 0 0 496 0 0 572 0 0 611 0 0 782 0 0 2126 0 0 3636 0 0 3734 0 0 3788 0 0 3784 0 0 3850 0 0 3869 0 0 3993 0 0 3997 0 0 4090 0 0 4001 0 0 4048 0 0 4121 0 0 4080 0 0 4173 0 0 4168 0 0 4121 0 0 4146 0 0 4132 0 0 4223 0 0 4216 0 0 4097 0 0 4045 0 0 4161 0 0 4232 0 0 4114 0 0 4190 0 0 4094 0 0 4125 0 0 4118 0 0 4036 0 0 4138 0 0 4020 0 0 4102 0 0 4018 0 0 3922 0 0 3878 0 0 3780 0 0 3779 0 0 3642 0 0 2185 0 0 723 0 0 588 0 0 557 0 0 464 0 0 475 0 0 397 0 0 349 0 0 331 0 0 280 0 0 
136 0 0 297 0 0 322 0 0 344 0 0 382 0 0 466 0 0 524 0 0 540 0 0 697 0 0 727 0 0 2179 0 0 3598 0 0 3775 0 0 3812 0 0 3931 0 0 4033 0 0 4055 0 0 4117 0 0 4074 0 0 4230 0 0 4318 0 0 4177 0 0 4132 0 0 4183 0 0 4251 0 0 4226 0 0 4349 0 0 4219 0 0 4246 0 0 4297 0 0 4255 0 0 4253 0 0 4312 0 0 4233 0 0 4209 0 0 4290 0 0 4278 0 0 4163 0 0 4171 0 0 4168 0 0 4213 0 0 4140 0 0 4082 0 0 4105 0 0 4053 0 0 4046 0 0 4050 0 0 3897 0 0 3738 0 0 3711 0 0 2274 0 0 787 0 0 655 0 0 598 0 0 462 0 0 467 0 0 435 0 0 335 0 0 298 0 0 324 0 0 
135 0 0 307 0 0 339 0 0 399 0 0 399 0 0 453 0 0 560 0 0 651 0 0 695 0 0 813 0 0 2301 0 0 3781 0 0 3754 0 0 3785 0 0 3983 0 0 4006 0 0 4026 0 0 4177 0 0 4294 0 0 4072 0 0 4247 0 0 4117 0 0 4207 0 0 4243 0 0 4260 0 0 4344 0 0 4391 0 0 4228 0 0 4418 0 0 4491 0 0 4387 0 0 4365 0 0 4333 0 0 4276 0 0 4278 0 0 4241 0 0 4200 0 0 4342 0 0 4266 0 0 4250 0 0 4320 0 0 4297 0 0 4140 0 0 4143 0 0 4157 0 0 4041 0 0 3949 0 0 3977 0 0 3838 0 0 3715 0 0 2273 0 0 781 0 0 675 0 0 603 0 0 516 0 0 452 0 0 421 0 0 415 0 0 302 0 0 309 0 0 
132 0 0 302 0 0 337 0 0 365 0 0 418 0 0 481 0 0 553 0 0 680 0 0 739 0 0 840 0 0 2349 0 0 3700 0 0 3887 0 0 3942 0 0 4029 0 0 4057 0 0 3981 0 0 4204 0 0 4229 0 0 4161 0 0 4323 0 0 4292 0 0 4287 0 0 4316 0 0 4316 0 0 4397 0 0 4328 0 0 4343 0 0 4348 0 0 4304 0 0 4378 0 0 4294 0 0 4466 0 0 4424 0 0 4340 0 0 4335 0 0 4298 0 0 4317 0 0 4215 0 0 4434 0 0 4247 0 0 4246 0 0 4088 0 0 4230 0 0 4125 0 0 4067 0 0 4050 0 0 4012 0 0 3943 0 0 3763 0 0 2282 0 0 825 0 0 680 0 0 644 0 0 555 0 0 472 0 0 422 0 0 394 0 0 345 0 0 281 0 0 
170 0 0 337 0 0 293 0 0 355 0 0 446 0 0 486 0 0 551 0 0 628 0 0 774 0 0 838 0 0 2275 0 0 3748 0 0 3966 0 0 3990 0 0 4160 0 0 4186 0 0 4227 0 0 4136 0 0 4179 0 0 4307 0 0 4409 0 0 4246 0 0 4488 0 0 4365 0 0 4417 0 0 4551 0 0 4299 0 0 4546 0 0 4315 0 0 4601 0 0 4484 0 0 4474 0 0 4481 0 0 4470 0 0 4403 0 0 4573 0 0 4388 0 0 4400 0 0 4368 0 0 4472 0 0 4328 0 0 4236 0 0 4220 0 0 4170 0 0 4166 0 0 4180 0 0 4056 0 0 3901 0 0 3940 0 0 3753 0 0 2264 0 0 846 0 0 744 0 0 680 0 0 559 0 0 524 0 0 443 0 0 442 0 0 367 0 0 340 0 0 
166 0 0 328 0 0 372 0 0 480 0 0 481 0 0 487 0 0 579 0 0 684 0 0 780 0 0 889 0 0 2349 0 0 3806 0 0 4001 0 0 3872 0 0 4109 0 0 4066 0 0 4327 0 0 4284 0 0 4265 0 0 4379 0 0 4323 0 0 4253 0 0 4449 0 0 4428 0 0 4508 0 0 4509 0 0 4421 0 0 4512 0 0 4501 0 0 4665 0 0 4494 0 0 4646 0 0 4513 0 0 4410 0 0 4575 0 0 4331 0 0 4548 0 0 4387 0 0 4406 0 0 4317 0 0 4315 0 0 4232 0 0 4305 0 0 4192 0 0 4139 0 0 4210 0 0 4172 0 0 4028 0 0 3856 0 0 3751 0 0 2321 0 0 902 0 0 763 0 0 639 0 0 566 0 0 532 0 0 427 0 0 384 0 0 384 0 0 328 0 0 
160 0 0 353 0 0 361 0 0 408 0 0 496 0 0 511 0 0 567 0 0 684 0 0 793 0 0 925 0 0 2375 0 0 3839 0 0 3874 0 0 4123 0 0 3942 0 0 4226 0 0 4374 0 0 4386 0 0 4201 0 0 4388 0 0 4336 0 0 4476 0 0 4378 0 0 4461 0 0 4478 0 0 4423 0 0 4515 0 0 4587 0 0 4477 0 0 4539 0 0 4589 0 0 4451 0 0 4541 0 0 4432 0 0 4544 0 0 4586 0 0 4456 0 0 4451 0 0 4476 0 0 4484 0 0 4481 0 0 4389 0 0 4340 0 0 4262 0 0 4286 0 0 4143 0 0 4174 0 0 4042 0 0 4009 0 0 3762 0 0 2293 0 0 914 0 0 789 0 0 712 0 0 615 0 0 543 0 0 487 0 0 441 0 0 360 0 0 351 0 0 
157 0 0 344 0 0 385 0 0 461 0 0 465 0 0 526 0 0 681 0 0 695 0 0 803 0 0 940 0 0 2417 0 0 3876 0 0 4050 0 0 3996 0 0 4206 0 0 4246 0 0 4392 0 0 4279 0 0 4383 0 0 4428 0 0 4481 0 0 4367 0 0 4322 0 0 4556 0 0 4432 0 0 4569 0 0 4527 0 0 4542 0 0 4544 0 0 4570 0 0 4483 0 0 4601 0 0 4517 0 0 4530 0 0 4666 0 0 4545 0 0 4552 0 0 4455 0 0 4570 0 0 4377 0 0 4495 0 0 4479 0 0 4358 0 0 4322 0 0 4441 0 0 4298 0 0 4216 0 0 4027 0 0 3933 0 0 3830 0 0 2398 0 0 955 0 0 823 0 0 739 0 0 621 0 0 507 0 0 471 0 0 372 0 0 370 0 0 330 0 0 
139 0 0 352 0 0 394 0 0 443 0 0 494 0 0 536 0 0 705 0 0 690 0 0 853 0 0 943 0 0 2319 0 0 3917 0 0 3993 0 0 4083 0 0 4242 0 0 4290 0 0 4273 0 0 4243 0 0 4539 0 0 4354 0 0 4382 0 0 4509 0 0 4433 0 0 4602 0 0 4493 0 0 4714 0 0 4513 0 0 4617 0 0 4521 0 0 4732 0 0 4572 0 0 4585 0 0 4611 0 0 4653 0 0 4508 0 0 4471 0 0 4535 0 0 4479 0 0 4491 0 0 4557 0 0 4527 0 0 4325 0 0 4398 0 0 4459 0 0 4211 0 0 4287 0 0 4147 0 0 4263 0 0 3959 0 0 3843 0 0 2482 0 0 1015 0 0 887 0 0 686 0 0 665 0 0 582 0 0 458 0 0 408 0 0 391 0 0 339 0 0 
158 0 0 373 0 0 407 0 0 440 0 0 498 0 0 579 0 0 625 0 0 687 0 0 798 0 0 944 0 0 2298 0 0 3863 0 0 4047 0 0 4133 0 0 4036 0 0 4288 0 0 4348 0 0 4388 0 0 4417 0 0 4495 0 0 4474 0 0 4560 0 0 4476 0 0 4531 0 0 4620 0 0 4476 0 0 4451 0 0 4521 0 0 4556 0 0 4512 0 0 4597 0 0 4657 0 0 4645 0 0 4607 0 0 4486 0 0 4670 0 0 4546 0 0 4441 0 0 4531 0 0 4562 0 0 4553 0 0 4448 0 0 4409 0 0 4412 0 0 4290 0 0 4257 0 0 4307 0 0 4209 0 0 4014 0 0 3849 0 0 2449 0 0 1001 0 0 816 0 0 708 0 0 667 0 0 540 0 0 476 0 0 444 0 0 382 0 0 321 0 0 
149 0 0 348 0 0 420 0 0 421 0 0 487 0 0 568 0 0 642 0 0 689 0 0 829 0 0 1013 0 0 2481 0 0 3978 0 0 3993 0 0 4215 0 0 4256 0 0 4163 0 0 4292 0 0 4372 0 0 4442 0 0 4604 0 0 4481 0 0 4578 0 0 4588 0 0 4655 0 0 4615 0 0 4617 0 0 4607 0 0 4674 0 0 4703 0 0 4687 0 0 4639 0 0 4585 0 0 4523 0 0 4628 0 0 4558 0 0 4764 0 0 4499 0 0 4520 0 0 4573 0 0 4576 0 0 4552 0 0 4520 0 0 4290 0 0 4362 0 0 4344 0 0 4211 0 0 4254 0 0 4091 0 0 4062 0 0 3882 0 0 2514 0 0 979 0 0 812 0 0 699 0 0 632 0 0 609 0 0 531 0 0 434 0 0 396 0 0 367 0 0 
171 0 0 349 0 0 412 0 0 430 0 0 531 0 0 582 0 0 664 0 0 748 0 0 878 0 0 918 0 0 2460 0 0 3907 0 0 4093 0 0 4095 0 0 4216 0 0 4439 0 0 4324 0 0 4576 0 0 4562 0 0 4564 0 0 4466 0 0 4437 0 0 4619 0 0 4484 0 0 4610 0 0 4612 0 0 4526 0 0 4689 0 0 4694 0 0 4509 0 0 4604 0 0 4789 0 0 4666 0 0 4635 0 0 4711 0 0 4586 0 0 4529 0 0 4537 0 0 4471 0 0 4667 0 0 4680 0 0 4551 0 0 4390 0 0 4362 0 0 4317 0 0 4369 0 0 4229 0 0 4138 0 0 4077 0 0 3748 0 0 2422 0 0 1005 0 0 859 0 0 695 0 0 678 0 0 535 0 0 513 0 0 508 0 0 393 0 0 392 0 0 
151 0 0 392 0 0 422 0 0 491 0 0 493 0 0 583 0 0 669 0 0 772 0 0 895 0 0 969 0 0 2468 0 0 3911 0 0 4031 0 0 4059 0 0 4217 0 0 4240 0 0 4364 0 0 4255 0 0 4570 0 0 4540 0 0 4534 0 0 4640 0 0 4513 0 0 4501 0 0 4603 0 0 4605 0 0 4544 0 0 4593 0 0 4600 0 0 4624 0 0 4580 0 0 4678 0 0 4768 0 0 4582 0 0 4701 0 0 4684 0 0 4625 0 0 4657 0 0 4649 0 0 4610 0 0 4530 0 0 4504 0 0 4479 0 0 4430 0 0 4482 0 0 4356 0 0 4220 0 0 4155 0 0 3976 0 0 3891 0 0 2373 0 0 1016 0 0 809 0 0 812 0 0 601 0 0 553 0 0 514 0 0 458 0 0 408 0 0 373 0 0 
171 0 0 388 0 0 418 0 0 487 0 0 490 0 0 529 0 0 656 0 0 773 0 0 839 0 0 1011 0 0 2490 0 0 3938 0 0 3957 0 0 4299 0 0 4185 0 0 4234 0 0 4393 0 0 4483 0 0 4430 0 0 4492 0 0 4568 0 0 4515 0 0 4573 0 0 4748 0 0 4598 0 0 4624 0 0 4606 0 0 4696 0 0 4610 0 0 4570 0 0 4704 0 0 4746 0 0 4619 0 0 4689 0 0 4731 0 0 4539 0 0 4524 0 0 4621 0 0 4578 0 0 4596 0 0 4543 0 0 4551 0 0 4580 0 0 4504 0 0 4321 0 0 4320 0 0 4360 0 0 4188 0 0 4108 0 0 4011 0 0 2430 0 0 1020 0 0 870 0 0 780 0 0 644 0 0 599 0 0 540 0 0 456 0 0 423 0 0 391 0 0 
163 0 0 363 0 0 442 0 0 482 0 0 535 0 0 602 0 0 706 0 0 804 0 0 882 0 0 1055 0 0 2511 0 0 4038 0 0 4089 0 0 4128 0 0 4352 0 0 4424 0 0 4367 0 0 4413 0 0 4501 0 0 4537 0 0 4514 0 0 4601 0 0 4622 0 0 4785 0 0 4531 0 0 4641 0 0 4585 0 0 4675 0 0 4638 0 0 4715 0 0 4664 0 0 4773 0 0 4691 0 0 4635 0 0 4818 0 0 4816 0 0 4618 0 0 4554 0 0 4625 0 0 4573 0 0 4643 0 0 4592 0 0 4457 0 0 4638 0 0 4420 0 0 4264 0 0 4255 0 0 4137 0 0 4056 0 0 3968 0 0 2466 0 0 953 0 0 824 0 0 775 0 0 695 0 0 602 0 0 552 0 0 473 0 0 406 0 0 371 0 0 
161 0 0 398 0 0 399 0 0 475 0 0 524 0 0 610 0 0 697 0 0 775 0 0 874 0 0 999 0 0 2462 0 0 3863 0 0 4063 0 0 4178 0 0 4278 0 0 4391 0 0 4502 0 0 4353 0 0 4489 0 0 4620 0 0 4630 0 0 4616 0 0 4703 0 0 4621 0 0 4771 0 0 4738 0 0 4682 0 0 4724 0 0 4630 0 0 4626 0 0 4713 0 0 4683 0 0 4759 0 0 4714 0 0 4639 0 0 4732 0 0 4560 0 0 4698 0 0 4603 0 0 4680 0 0 4475 0 0 4571 0 0 4471 0 0 4501 0 0 4451 0 0 4313 0 0 4288 0 0 4080 0 0 4034 0 0 3872 0 0 2383 0 0 980 0 0 877 0 0 739 0 0 677 0 0 574 0 0 511 0 0 452 0 0 407 0 0 377 0 0 
182 0 0 392 0 0 434 0 0 480 0 0 523 0 0 567 0 0 642 0 0 752 0 0 839 0 0 1039 0 0 2514 0 0 3964 0 0 3989 0 0 4144 0 0 4220 0 0 4300 0 0 4343 0 0 4454 0 0 4428 0 0 4628 0 0 4638 0 0 4721 0 0 4732 0 0 4661 0 0 4666 0 0 4715 0 0 4834 0 0 4560 0 0 4705 0 0 4750 0 0 4730 0 0 4714 0 0 4715 0 0 4697 0 0 4790 0 0 4634 0 0 4612 0 0 4630 0 0 4579 0 0 4630 0 0 4491 0 0 4460 0 0 4566 0 0 4613 0 0 4394 0 0 4461 0 0 4207 0 0 4123 0 0 4059 0 0 3963 0 0 2440 0 0 971 0 0 907 0 0 742 0 0 691 0 0 588 0 0 528 0 0 474 0 0 458 0 0 377 0 0 
165 0 0 416 0 0 424 0 0 482 0 0 486 0 0 613 0 0 679 0 0 734 0 0 903 0 0 1041 0 0 2477 0 0 3879 0 0 4010 0 0 4175 0 0 4237 0 0 4269 0 0 4407 0 0 4394 0 0 4574 0 0 4616 0 0 4543 0 0 4619 0 0 4615 0 0 4693 0 0 4653 0 0 4593 0 0 4688 0 0 4588 0 0 4703 0 0 4618 0 0 4806 0 0 4627 0 0 4784 0 0 4580 0 0 4541 0 0 4646 0 0 4685 0 0 4637 0 0 4610 0 0 4634 0 0 4520 0 0 4438 0 0 4580 0 0 4413 0 0 4402 0 0 4310 0 0 4195 0 0 4177 0 0 4040 0 0 4046 0 0 2472 0 0 1076 0 0 888 0 0 779 0 0 657 0 0 635 0 0 501 0 0 481 0 0 449 0 0 375 0 0 
177 0 0 379 0 0 424 0 0 482 0 0 510 0 0 557 0 0 641 0 0 735 0 0 859 0 0 1012 0 0 2486 0 0 4003 0 0 4057 0 0 4247 0 0 4389 0 0 4344 0 0 4491 0 0 4515 0 0 4460 0 0 4652 0 0 4456 0 0 4620 0 0 4606 0 0 4690 0 0 4674 0 0 4600 0 0 4675 0 0 4651 0 0 4662 0 0 4720 0 0 4723 0 0 4832 0 0 4768 0 0 4898 0 0 4751 0 0 4624 0 0 4534 0 0 4665 0 0 4614 0 0 4441 0 0 4469 0 0 4476 0 0 4488 0 0 4466 0 0 4327 0 0 4262 0 0 4319 0 0 4266 0 0 4150 0 0 3994 0 0 2562 0 0 993 0 0 846 0 0 770 0 0 705 0 0 601 0 0 550 0 0 455 0 0 439 0 0 393 0 0 
169 0 0 372 0 0 420 0 0 453 0 0 554 0 0 581 0 0 629 0 0 734 0 0 858 0 0 1004 0 0 2460 0 0 3991 0 0 4182 0 0 4186 0 0 4229 0 0 4412 0 0 4387 0 0 4408 0 0 4527 0 0 4532 0 0 4520 0 0 4597 0 0 4535 0 0 4569 0 0 4699 0 0 4651 0 0 4785 0 0 4765 0 0 4773 0 0 4712 0 0 4681 0 0 4638 0 0 4653 0 0 4698 0 0 4722 0 0 4722 0 0 4598 0 0 4481 0 0 4579 0 0 4496 0 0 4523 0 0 4637 0 0 4415 0 0 4551 0 0 4506 0 0 4343 0 0 4182 0 0 4114 0 0 3965 0 0 3888 0 0 2522 0 0 1015 0 0 838 0 0 716 0 0 665 0 0 581 0 0 524 0 0 478 0 0 452 0 0 391 0 0 
143 0 0 373 0 0 389 0 0 469 0 0 512 0 0 556 0 0 701 0 0 768 0 0 866 0 0 976 0 0 2475 0 0 4048 0 0 4120 0 0 4229 0 0 4282 0 0 4244 0 0 4380 0 0 4432 0 0 4521 0 0 4443 0 0 4546 0 0 4585 0 0 4547 0 0 4711 0 0 4581 0 0 4721 0 0 4641 0 0 4651 0 0 4787 0 0 4575 0 0 4673 0 0 4702 0 0 4655 0 0 4687 0 0 4622 0 0 4732 0 0 4568 0 0 4614 0 0 4587 0 0 4491 0 0 4532 0 0 4555 0 0 4462 0 0 4518 0 0 4407 0 0 4330 0 0 4232 0 0 4216 0 0 4066 0 0 3864 0 0 2393 0 0 976 0 0 902 0 0 742 0 0 653 0 0 613 0 0 536 0 0 516 0 0 412 0 0 359 0 0 
164 0 0 355 0 0 469 0 0 452 0 0 547 0 0 599 0 0 638 0 0 753 0 0 816 0 0 1025 0 0 2494 0 0 3983 0 0 3981 0 0 4329 0 0 4258 0 0 4363 0 0 4301 0 0 4447 0 0 4464 0 0 4561 0 0 4535 0 0 4544 0 0 4638 0 0 4648 0 0 4715 0 0 4659 0 0 4657 0 0 4692 0 0 4748 0 0 4566 0 0 4725 0 0 4644 0 0 4743 0 0 4715 0 0 4686 0 0 4593 0 0 4567 0 0 4740 0 0 4569 0 0 4580 0 0 4547 0 0 4498 0 0 4463 0 0 4472 0 0 4377 0 0 4228 0 0 4154 0 0 4212 0 0 4043 0 0 3830 0 0 2480 0 0 956 0 0 916 0 0 741 0 0 660 0 0 544 0 0 495 0 0 502 0 0 403 0 0 365 0 0 
163 0 0 347 0 0 415 0 0 463 0 0 515 0 0 578 0 0 629 0 0 783 0 0 829 0 0 1026 0 0 2424 0 0 3875 0 0 4056 0 0 4204 0 0 4308 0 0 4278 0 0 4292 0 0 4301 0 0 4415 0 0 4471 0 0 4542 0 0 4692 0 0 4489 0 0 4672 0 0 4659 0 0 4629 0 0 4621 0 0 4626 0 0 4653 0 0 4661 0 0 4667 0 0 4776 0 0 4700 0 0 4589 0 0 4653 0 0 4705 0 0 4558 0 0 4633 0 0 4603 0 0 4649 0 0 4496 0 0 4338 0 0 4519 0 0 4330 0 0 4372 0 0 4338 0 0 4108 0 0 4117 0 0 4043 0 0 3832 0 0 2553 0 0 988 0 0 849 0 0 735 0 0 665 0 0 563 0 0 537 0 0 411 0 0 413 0 0 354 0 0 
172 0 0 380 0 0 412 0 0 487 0 0 506 0 0 568 0 0 617 0 0 715 0 0 818 0 0 956 0 0 2433 0 0 3850 0 0 4088 0 0 4288 0 0 4065 0 0 4230 0 0 4439 0 0 4463 0 0 4618 0 0 4538 0 0 4588 0 0 4393 0 0 4501 0 0 4661 0 0 4639 0 0 4660 0 0 4668 0 0 4609 0 0 4667 0 0 4651 0 0 4547 0 0 4682 0 0 4678 0 0 4657 0 0 4754 0 0 4769 0 0 4586 0 0 4661 0 0 4481 0 0 4455 0 0 4603 0 0 4623 0 0 4376 0 0 4331 0 0 4281 0 0 4418 0 0 4187 0 0 4110 0 0 4054 0 0 3892 0 0 2490 0 0 957 0 0 825 0 0 771 0 0 624 0 0 561 0 0 526 0 0 493 0 0 397 0 0 343 0 0 
159 0 0 352 0 0 416 0 0 439 0 0 503 0 0 640 0 0 654 0 0 761 0 0 856 0 0 937 0 0 2401 0 0 3872 0 0 3945 0 0 4119 0 0 4401 0 0 4289 0 0 4453 0 0 4350 0 0 4487 0 0 4490 0 0 4538 0 0 4538 0 0 4566 0 0 4478 0 0 4644 0 0 4713 0 0 4653 0 0 4594 0 0 4629 0 0 4725 0 0 4629 0 0 4691 0 0 4793 0 0 4709 0 0 4691 0 0 4631 0 0 4487 0 0 4588 0 0 4647 0 0 4497 0 0 4449 0 0 4515 0 0 4422 0 0 4525 0 0 4414 0 0 4280 0 0 4286 0 0 3945 0 0 3986 0 0 3865 0 0 2340 0 0 994 0 0 860 0 0 699 0 0 616 0 0 556 0 0 501 0 0 428 0 0 380 0 0 342 0 0 
165 0 0 383 0 0 417 0 0 431 0 0 522 0 0 548 0 0 600 0 0 706 0 0 835 0 0 930 0 0 2435 0 0 3741 0 0 3969 0 0 4122 0 0 4162 0 0 4260 0 0 4297 0 0 4466 0 0 4390 0 0 4420 0 0 4558 0 0 4264 0 0 4554 0 0 4455 0 0 4605 0 0 4567 0 0 4534 0 0 4588 0 0 4507 0 0 4697 0 0 4515 0 0 4571 0 0 4652 0 0 4586 0 0 4568 0 0 4473 0 0 4656 0 0 4537 0 0 4435 0 0 4498 0 0 4433 0 0 4430 0 0 4415 0 0 4319 0 0 4308 0 0 4158 0 0 4219 0 0 4073 0 0 3958 0 0 3947 0 0 2442 0 0 975 0 0 839 0 0 741 0 0 632 0 0 570 0 0 503 0 0 460 0 0 399 0 0 338 0 0 
168 0 0 363 0 0 382 0 0 465 0 0 481 0 0 525 0 0 657 0 0 744 0 0 862 0 0 937 0 0 2343 0 0 3839 0 0 3958 0 0 4026 0 0 4174 0 0 4259 0 0 4287 0 0 4474 0 0 4367 0 0 4499 0 0 4487 0 0 4453 0 0 4541 0 0 4581 0 0 4619 0 0 4588 0 0 4625 0 0 4758 0 0 4547 0 0 4649 0 0 4615 0 0 4630 0 0 4643 0 0 4473 0 0 4557 0 0 4581 0 0 4553 0 0 4455 0 0 4583 0 0 4443 0 0 4396 0 0 4400 0 0 4419 0 0 4289 0 0 4196 0 0 4259 0 0 4170 0 0 4048 0 0 3937 0 0 3630 0 0 2438 0 0 952 0 0 816 0 0 707 0 0 616 0 0 563 0 0 506 0 0 409 0 0 359 0 0 333 0 0 
133 0 0 364 0 0 373 0 0 483 0 0 498 0 0 560 0 0 621 0 0 666 0 0 817 0 0 966 0 0 2376 0 0 3857 0 0 3923 0 0 4134 0 0 4278 0 0 4204 0 0 4305 0 0 4477 0 0 4415 0 0 4432 0 0 4514 0 0 4503 0 0 4588 0 0 4496 0 0 4604 0 0 4511 0 0 4546 0 0 4603 0 0 4504 0 0 4555 0 0 4634 0 0 4556 0 0 4607 0 0 4591 0 0 4475 0 0 4397 0 0 4521 0 0 4454 0 0 4536 0 0 4550 0 0 4395 0 0 4392 0 0 4307 0 0 4408 0 0 4245 0 0 4218 0 0 4133 0 0 4084 0 0 4049 0 0 3820 0 0 2308 0 0 923 0 0 822 0 0 692 0 0 623 0 0 532 0 0 462 0 0 459 0 0 373 0 0 345 0 0 
150 0 0 350 0 0 382 0 0 398 0 0 471 0 0 539 0 0 624 0 0 666 0 0 780 0 0 952 0 0 2354 0 0 3821 0 0 3907 0 0 4089 0 0 4079 0 0 4224 0 0 4322 0 0 4362 0 0 4360 0 0 4379 0 0 4385 0 0 4414 0 0 4526 0 0 4504 0 0 4492 0 0 4595 0 0 4564 0 0 4527 0 0 4542 0 0 4564 0 0 4504 0 0 4587 0 0 4594 0 0 4530 0 0 4538 0 0 4527 0 0 4448 0 0 4518 0 0 4419 0 0 4427 0 0 4516 0 0 4422 0 0 4241 0 0 4293 0 0 4266 0 0 4277 0 0 4197 0 0 4161 0 0 3970 0 0 3880 0 0 2270 0 0 907 0 0 791 0 0 694 0 0 609 0 0 575 0 0 463 0 0 401 0 0 368 0 0 360 0 0 
141 0 0 334 0 0 350 0 0 420 0 0 448 0 0 485 0 0 550 0 0 675 0 0 764 0 0 866 0 0 2268 0 0 3725 0 0 3978 0 0 3967 0 0 4041 0 0 4139 0 0 4237 0 0 4244 0 0 4308 0 0 4507 0 0 4373 0 0 4395 0 0 4563 0 0 4412 0 0 4429 0 0 4348 0 0 4380 0 0 4486 0 0 4437 0 0 4511 0 0 4393 0 0 4633 0 0 4401 0 0 4539 0 0 4485 0 0 4471 0 0 4558 0 0 4472 0 0 4269 0 0 4430 0 0 4423 0 0 4284 0 0 4322 0 0 4312 0 0 4206 0 0 4259 0 0 4077 0 0 3974 0 0 3928 0 0 3719 0 0 2361 0 0 897 0 0 747 0 0 710 0 0 587 0 0 523 0 0 441 0 0 441 0 0 384 0 0 274 0 0 
141 0 0 330 0 0 359 0 0 384 0 0 456 0 0 498 0 0 560 0 0 650 0 0 731 0 0 839 0 0 2331 0 0 3809 0 0 3870 0 0 3924 0 0 4155 0 0 4100 0 0 4208 0 0 4249 0 0 4303 0 0 4345 0 0 4324 0 0 4329 0 0 4434 0 0 4303 0 0 4335 0 0 4289 0 0 4580 0 0 4442 0 0 4463 0 0 4416 0 0 4506 0 0 4405 0 0 4477 0 0 4453 0 0 4556 0 0 4523 0 0 4453 0 0 4435 0 0 4303 0 0 4266 0 0 4360 0 0 4267 0 0 4214 0 0 4181 0 0 4280 0 0 4045 0 0 4149 0 0 3850 0 0 3839 0 0 3817 0 0 2305 0 0 898 0 0 737 0 0 642 0 0 516 0 0 466 0 0 457 0 0 405 0 0 340 0 0 318 0 0 
145 0 0 321 0 0 351 0 0 375 0 0 458 0 0 499 0 0 531 0 0 610 0 0 694 0 0 799 0 0 2297 0 0 3823 0 0 3957 0 0 3913 0 0 4010 0 0 4182 0 0 4147 0 0 4173 0 0 4311 0 0 4386 0 0 4234 0 0 4221 0 0 4231 0 0 4416 0 0 4358 0 0 4404 0 0 4349 0 0 4412 0 0 4512 0 0 4423 0 0 4382 0 0 4430 0 0 4397 0 0 4447 0 0 4308 0 0 4452 0 0 4437 0 0 4348 0 0 4413 0 0 4341 0 0 4334 0 0 4328 0 0 4151 0 0 4101 0 0 4165 0 0 4034 0 0 4120 0 0 3989 0 0 3828 0 0 3771 0 0 2359 0 0 893 0 0 729 0 0 632 0 0 600 0 0 501 0 0 387 0 0 364 0 0 332 0 0 300 0 0 
138 0 0 309 0 0 361 0 0 364 0 0 411 0 0 433 0 0 538 0 0 639 0 0 680 0 0 831 0 0 2269 0 0 3747 0 0 3848 0 0 3933 0 0 3967 0 0 3988 0 0 4028 0 0 4254 0 0 4192 0 0 4063 0 0 4193 0 0 4245 0 0 4274 0 0 4318 0 0 4269 0 0 4387 0 0 4334 0 0 4295 0 0 4241 0 0 4407 0 0 4266 0 0 4216 0 0 4440 0 0 4321 0 0 4504 0 0 4315 0 0 4312 0 0 4298 0 0 4270 0 0 4158 0 0 4300 0 0 4228 0 0 4128 0 0 4017 0 0 4073 0 0 3987 0 0 4002 0 0 3982 0 0 3873 0 0 3599 0 0 2277 0 0 807 0 0 664 0 0 593 0 0 548 0 0 490 0 0 448 0 0 371 0 0 331 0 0 252 0 0 
132 0 0 311 0 0 317 0 0 341 0 0 387 0 0 426 0 0 545 0 0 550 0 0 636 0 0 752 0 0 2150 0 0 3724 0 0 3774 0 0 3918 0 0 4028 0 0 3919 0 0 4142 0 0 4102 0 0 4149 0 0 4044 0 0 4217 0 0 4116 0 0 4172 0 0 4208 0 0 4356 0 0 4322 0 0 4174 0 0 4334 0 0 4221 0 0 4319 0 0 4339 0 0 4229 0 0 4214 0 0 4167 0 0 4206 0 0 4256 0 0 4139 0 0 4331 0 0 4124 0 0 4155 0 0 4158 0 0 4148 0 0 4082 0 0 4072 0 0 4024 0 0 3977 0 0 3884 0 0 3888 0 0 3769 0 0 3706 0 0 2130 0 0 776 0 0 660 0 0 568 0 0 561 0 0 486 0 0 401 0 0 352 0 0 303 0 0 263 0 0 
153 0 0 282 0 0 286 0 0 371 0 0 383 0 0 459 0 0 457 0 0 546 0 0 608 0 0 731 0 0 2183 0 0 3516 0 0 3768 0 0 3786 0 0 3755 0 0 3891 0 0 3879 0 0 3994 0 0 4029 0 0 3984 0 0 4121 0 0 4031 0 0 4088 0 0 4137 0 0 4097 0 0 4126 0 0 4197 0 0 4143 0 0 4137 0 0 4137 0 0 4193 0 0 4203 0 0 4148 0 0 4107 0 0 4260 0 0 4136 0 0 4093 0 0 4065 0 0 4044 0 0 4162 0 0 4182 0 0 4100 0 0 4100 0 0 3984 0 0 3992 0 0 3978 0 0 3931 0 0 3867 0 0 3737 0 0 3647 0 0 2140 0 0 735 0 0 640 0 0 549 0 0 494 0 0 412 0 0 342 0 0 358 0 0 326 0 0 256 0 0 
115 0 0 250 0 0 312 0 0 312 0 0 377 0 0 392 0 0 473 0 0 506 0 0 602 0 0 706 0 0 2115 0 0 3583 0 0 3595 0 0 3669 0 0 3838 0 0 3942 0 0 3906 0 0 3921 0 0 3948 0 0 3860 0 0 3978 0 0 4004 0 0 4116 0 0 4018 0 0 4062 0 0 3960 0 0 4025 0 0 3994 0 0 4058 0 0 4178 0 0 4091 0 0 4063 0 0 4100 0 0 4083 0 0 4092 0 0 4128 0 0 4053 0 0 3993 0 0 4128 0 0 3893 0 0 4065 0 0 3889 0 0 3887 0 0 3793 0 0 3839 0 0 3873 0 0 3863 0 0 3746 0 0 3686 0 0 3560 0 0 2071 0 0 695 0 0 576 0 0 531 0 0 463 0 0 430 0 0 397 0 0 313 0 0 305 0 0 295 0 0 
109 0 0 221 0 0 253 0 0 304 0 0 345 0 0 332 0 0 451 0 0 451 0 0 557 0 0 692 0 0 2153 0 0 3491 0 0 3539 0 0 3653 0 0 3645 0 0 3797 0 0 3678 0 0 3769 0 0 3781 0 0 3903 0 0 3844 0 0 3893 0 0 3874 0 0 3851 0 0 3948 0 0 3988 0 0 3946 0 0 3884 0 0 3901 0 0 3940 0 0 3983 0 0 3924 0 0 3814 0 0 4014 0 0 3975 0 0 3822 0 0 3943 0 0 3793 0 0 3925 0 0 3836 0 0 3822 0 0 3808 0 0 3768 0 0 3726 0 0 3766 0 0 3758 0 0 3726 0 0 3636 0 0 3525 0 0 3426 0 0 2007 0 0 649 0 0 585 0 0 471 0 0 396 0 0 393 0 0 324 0 0 297 0 0 287 0 0 268 0 0 
93 0 0 249 0 0 257 0 0 297 0 0 335 0 0 359 0 0 402 0 0 483 0 0 508 0 0 548 0 0 1386 0 0 1989 0 0 2120 0 0 2179 0 0 2274 0 0 2265 0 0 2311 0 0 2453 0 0 2307 0 0 2359 0 0 2379 0 0 2392 0 0 2400 0 0 2581 0 0 2397 0 0 2438 0 0 2489 0 0 2396 0 0 2444 0 0 2485 0 0 2508 0 0 2483 0 0 2408 0 0 2477 0 0 2458 0 0 2462 0 0 2474 0 0 2506 0 0 2447 0 0 2453 0 0 2372 0 0 2296 0 0 2383 0 0 2395 0 0 2213 0 0 2248 0 0 2081 0 0 2178 0 0 2111 0 0 2103 0 0 1313 0 0 574 0 0 526 0 0 450 0 0 374 0 0 402 0 0 324 0 0 299 0 0 264 0 0 229 0 0 
115 0 0 234 0 0 255 0 0 274 0 0 282 0 0 360 0 0 362 0 0 439 0 0 469 0 0 540 0 0 579 0 0 653 0 0 714 0 0 742 0 0 777 0 0 762 0 0 865 0 0 828 0 0 878 0 0 935 0 0 944 0 0 918 0 0 959 0 0 941 0 0 972 0 0 989 0 0 998 0 0 992 0 0 1034 0 0 1042 0 0 1018 0 0 1001 0 0 984 0 0 981 0 0 1071 0 0 1006 0 0 1033 0 0 989 0 0 944 0 0 938 0 0 942 0 0 914 0 0 903 0 0 879 0 0 885 0 0 840 0 0 822 0 0 749 0 0 699 0 0 636 0 0 564 0 0 529 0 0 465 0 0 452 0 0 333 0 0 380 0 0 299 0 0 288 0 0 235 0 0 214 0 0 
99 0 0 203 0 0 237 0 0 284 0 0 255 0 0 311 0 0 344 0 0 371 0 0 459 0 0 460 0 0 469 0 0 570 0 0 594 0 0 595 0 0 648 0 0 696 0 0 716 0 0 757 0 0 761 0 0 832 0 0 767 0 0 782 0 0 799 0 0 820 0 0 867 0 0 825 0 0 836 0 0 836 0 0 852 0 0 900 0 0 856 0 0 832 0 0 846 0 0 863 0 0 855 0 0 868 0 0 805 0 0 897 0 0 833 0 0 826 0 0 809 0 0 800 0 0 786 0 0 725 0 0 746 0 0 698 0 0 694 0 0 630 0 0 602 0 0 559 0 0 513 0 0 462 0 0 414 0 0 374 0 0 321 0 0 289 0 0 318 0 0 263 0 0 225 0 0 199 0 0 
91 0 0 189 0 0 208 0 0 225 0 0 277 0 0 282 0 0 295 0 0 355 0 0 374 0 0 381 0 0 472 0 0 462 0 0 536 0 0 587 0 0 589 0 0 540 0 0 619 0 0 643 0 0 635 0 0 713 0 0 684 0 0 741 0 0 692 0 0 735 0 0 724 0 0 743 0 0 749 0 0 730 0 0 725 0 0 759 0 0 769 0 0 715 0 0 829 0 0 747 0 0 761 0 0 722 0 0 759 0 0 704 0 0 680 0 0 733 0 0 739 0 0 692 0 0 656 0 0 640 0 0 645 0 0 586 0 0 559 0 0 538 0 0 495 0 0 464 0 0 432 0 0 424 0 0 403 0 0 379 0 0 307 0 0 281 0 0 263 0 0 240 0 0 204 0 0 201 0 0 
82 0 0 180 0 0 199 0 0 211 0 0 273 0 0 249 0 0 319 0 0 304 0 0 336 0 0 381 0 0 403 0 0 424 0 0 460 0 0 509 0 0 539 0 0 518 0 0 540 0 0 594 0 0 601 0 0 607 0 0 669 0 0 610 0 0 606 0 0 620 0 0 654 0 0 666 0 0 646 0 0 720 0 0 655 0 0 677 0 0 674 0 0 686 0 0 695 0 0 655 0 0 634 0 0 662 0 0 615 0 0 646 0 0 595 0 0 624 0 0 584 0 0 585 0 0 600 0 0 559 0 0 546 0 0 539 0 0 507 0 0 454 0 0 427 0 0 422 0 0 440 0 0 371 0 0 341 0 0 307 0 0 316 0 0 260 0 0 252 0 0 223 0 0 186 0 0 177 0 0 
88 0 0 194 0 0 200 0 0 210 0 0 257 0 0 256 0 0 293 0 0 314 0 0 309 0 0 316 0 0 338 0 0 413 0 0 394 0 0 412 0 0 459 0 0 467 0 0 462 0 0 507 0 0 510 0 0 540 0 0 523 0 0 522 0 0 583 0 0 567 0 0 575 0 0 574 0 0 546 0 0 600 0 0 548 0 0 618 0 0 624 0 0 589 0 0 618 0 0 584 0 0 582 0 0 566 0 0 593 0 0 571 0 0 596 0 0 539 0 0 519 0 0 545 0 0 516 0 0 490 0 0 480 0 0 437 0 0 452 0 0 404 0 0 413 0 0 406 0 0 347 0 0 298 0 0 360 0 0 286 0 0 277 0 0 222 0 0 249 0 0 210 0 0 193 0 0 149 0 0 
53 0 0 163 0 0 182 0 0 199 0 0 203 0 0 201 0 0 240 0 0 250 0 0 311 0 0 301 0 0 303 0 0 326 0 0 367 0 0 365 0 0 369 0 0 426 0 0 406 0 0 423 0 0 478 0 0 476 0 0 488 0 0 478 0 0 508 0 0 509 0 0 512 0 0 560 0 0 529 0 0 516 0 0 503 0 0 545 0 0 537 0 0 552 0 0 521 0 0 523 0 0 549 0 0 493 0 0 504 0 0 514 0 0 513 0 0 536 0 0 491 0 0 466 0 0 457 0 0 447 0 0 386 0 0 432 0 0 394 0 0 361 0 0 375 0 0 345 0 0 355 0 0 320 0 0 267 0 0 277 0 0 205 0 0 225 0 0 239 0 0 186 0 0 168 0 0 159 0 0 
74 0 0 165 0 0 176 0 0 180 0 0 201 0 0 237 0 0 205 0 0 246 0 0 308 0 0 295 0 0 279 0 0 334 0 0 333 0 0 329 0 0 333 0 0 374 0 0 406 0 0 386 0 0 409 0 0 418 0 0 448 0 0 436 0 0 436 0 0 451 0 0 466 0 0 470 0 0 463 0 0 483 0 0 477 0 0 442 0 0 445 0 0 465 0 0 448 0 0 500 0 0 475 0 0 463 0 0 427 0 0 453 0 0 440 0 0 421 0 0 460 0 0 444 0 0 431 0 0 375 0 0 394 0 0 356 0 0 332 0 0 350 0 0 344 0 0 323 0 0 296 0 0 306 0 0 267 0 0 239 0 0 220 0 0 210 0 0 208 0 0 166 0 0 165 0 0 182 0 0 
75 0 0 147 0 0 165 0 0 163 0 0 184 0 0 224 0 0 197 0 0 211 0 0 237 0 0 256 0 0 250 0 0 297 0 0 285 0 0 279 0 0 321 0 0 323 0 0 352 0 0 377 0 0 356 0 0 342 0 0 367 0 0 389 0 0 402 0 0 396 0 0 418 0 0 405 0 0 427 0 0 409 0 0 413 0 0 391 0 0 395 0 0 421 0 0 424 0 0 435 0 0 390 0 0 389 0 0 397 0 0 427 0 0 430 0 0 407 0 0 371 0 0 356 0 0 362 0 0 355 0 0 341 0 0 325 0 0 336 0 0 344 0 0 308 0 0 294 0 0 266 0 0 249 0 0 253 0 0 202 0 0 224 0 0 192 0 0 202 0 0 180 0 0 162 0 0 141 0 0 
44 0 0 131 0 0 137 0 0 159 0 0 176 0 0 186 0 0 196 0 0 201 0 0 216 0 0 225 0 0 247 0 0 274 0 0 241 0 0 252 0 0 288 0 0 242 0 0 302 0 0 331 0 0 320 0 0 369 0 0 355 0 0 348 0 0 361 0 0 373 0 0 377 0 0 343 0 0 343 0 0 389 0 0 376 0 0 358 0 0 373 0 0 375 0 0 382 0 0 392 0 0 344 0 0 354 0 0 340 0 0 388 0 0 360 0 0 357 0 0 308 0 0 340 0 0 333 0 0 330 0 0 273 0 0 312 0 0 285 0 0 275 0 0 260 0 0 255 0 0 227 0 0 247 0 0 211 0 0 224 0 0 198 0 0 163 0 0 162 0 0 141 0 0 145 0 0 116 0 0 
