P3
# This is a dose file slice at depth 32 of 100
60 60
# now we give the maximum value of the RGB coordinates.
5876
7 0 0 14 0 0 22 0 0 22 0 0 26 0 0 27 0 0 31 0 0 31 0 0 29 0 0 32 0 0 30 0 0 36 0 0 34 0 0 43 0 0 45 0 0 36 0 0 47 0 0 44 0 0 45 0 0 54 0 0 49 0 0 51 0 0 52 0 0 54 0 0 51 0 0 50 0 0 52 0 0 53 0 0 51 0 0 55 0 0 54 0 0 52 0 0 56 0 0 56 0 0 50 0 0 54 0 0 50 0 0 56 0 0 53 0 0 51 0 0 49 0 0 52 0 0 46 0 0 50 0 0 42 0 0 41 0 0 43 0 0 38 0 0 36 0 0 40 0 0 33 0 0 28 0 0 34 0 0 32 0 0 27 0 0 25 0 0 26 0 0 26 0 0 21 0 0 18 0 0 
23 0 0 51 0 0 56 0 0 70 0 0 73 0 0 84 0 0 84 0 0 79 0 0 86 0 0 92 0 0 106 0 0 109 0 0 104 0 0 115 0 0 121 0 0 124 0 0 137 0 0 131 0 0 133 0 0 132 0 0 153 0 0 140 0 0 142 0 0 164 0 0 145 0 0 162 0 0 155 0 0 151 0 0 159 0 0 161 0 0 162 0 0 172 0 0 152 0 0 162 0 0 160 0 0 155 0 0 158 0 0 145 0 0 148 0 0 141 0 0 153 0 0 147 0 0 135 0 0 131 0 0 128 0 0 123 0 0 120 0 0 106 0 0 112 0 0 89 0 0 107 0 0 103 0 0 86 0 0 84 0 0 79 0 0 68 0 0 66 0 0 50 0 0 49 0 0 58 0 0 
22 0 0 53 0 0 53 0 0 66 0 0 73 0 0 84 0 0 91 0 0 91 0 0 108 0 0 113 0 0 115 0 0 120 0 0 127 0 0 139 0 0 134 0 0 141 0 0 155 0 0 153 0 0 158 0 0 163 0 0 169 0 0 165 0 0 174 0 0 179 0 0 191 0 0 188 0 0 181 0 0 192 0 0 188 0 0 189 0 0 178 0 0 177 0 0 187 0 0 194 0 0 191 0 0 185 0 0 178 0 0 177 0 0 163 0 0 173 0 0 163 0 0 164 0 0 154 0 0 169 0 0 149 0 0 149 0 0 134 0 0 127 0 0 124 0 0 110 0 0 118 0 0 102 0 0 93 0 0 90 0 0 82 0 0 78 0 0 72 0 0 74 0 0 62 0 0 50 0 0 
21 0 0 61 0 0 70 0 0 78 0 0 82 0 0 89 0 0 100 0 0 99 0 0 119 0 0 109 0 0 124 0 0 138 0 0 147 0 0 138 0 0 155 0 0 171 0 0 178 0 0 168 0 0 197 0 0 194 0 0 202 0 0 202 0 0 199 0 0 199 0 0 202 0 0 220 0 0 196 0 0 222 0 0 200 0 0 217 0 0 202 0 0 197 0 0 215 0 0 212 0 0 208 0 0 204 0 0 193 0 0 197 0 0 186 0 0 185 0 0 201 0 0 189 0 0 199 0 0 187 0 0 163 0 0 164 0 0 132 0 0 145 0 0 153 0 0 128 0 0 133 0 0 119 0 0 109 0 0 104 0 0 102 0 0 88 0 0 75 0 0 84 0 0 70 0 0 67 0 0 
22 0 0 67 0 0 77 0 0 73 0 0 85 0 0 95 0 0 105 0 0 113 0 0 125 0 0 142 0 0 139 0 0 154 0 0 162 0 0 169 0 0 182 0 0 191 0 0 205 0 0 207 0 0 205 0 0 216 0 0 224 0 0 224 0 0 239 0 0 229 0 0 242 0 0 243 0 0 231 0 0 231 0 0 245 0 0 247 0 0 226 0 0 244 0 0 242 0 0 238 0 0 228 0 0 238 0 0 231 0 0 231 0 0 228 0 0 214 0 0 219 0 0 205 0 0 192 0 0 212 0 0 207 0 0 189 0 0 184 0 0 174 0 0 163 0 0 162 0 0 142 0 0 121 0 0 126 0 0 116 0 0 112 0 0 89 0 0 80 0 0 75 0 0 73 0 0 67 0 0 
26 0 0 72 0 0 80 0 0 92 0 0 98 0 0 108 0 0 117 0 0 127 0 0 143 0 0 147 0 0 169 0 0 167 0 0 167 0 0 189 0 0 202 0 0 218 0 0 225 0 0 234 0 0 253 0 0 236 0 0 245 0 0 269 0 0 275 0 0 264 0 0 257 0 0 276 0 0 281 0 0 263 0 0 269 0 0 269 0 0 274 0 0 282 0 0 248 0 0 265 0 0 251 0 0 273 0 0 273 0 0 275 0 0 268 0 0 261 0 0 244 0 0 241 0 0 237 0 0 229 0 0 214 0 0 221 0 0 215 0 0 194 0 0 202 0 0 183 0 0 155 0 0 138 0 0 125 0 0 126 0 0 121 0 0 105 0 0 101 0 0 89 0 0 81 0 0 76 0 0 
23 0 0 77 0 0 81 0 0 98 0 0 102 0 0 119 0 0 122 0 0 146 0 0 172 0 0 174 0 0 189 0 0 202 0 0 205 0 0 222 0 0 238 0 0 263 0 0 252 0 0 253 0 0 280 0 0 306 0 0 282 0 0 279 0 0 296 0 0 313 0 0 313 0 0 312 0 0 310 0 0 310 0 0 294 0 0 308 0 0 313 0 0 297 0 0 301 0 0 297 0 0 323 0 0 298 0 0 304 0 0 307 0 0 292 0 0 305 0 0 308 0 0 283 0 0 292 0 0 275 0 0 243 0 0 259 0 0 244 0 0 231 0 0 210 0 0 195 0 0 181 0 0 176 0 0 162 0 0 145 0 0 128 0 0 121 0 0 107 0 0 97 0 0 93 0 0 78 0 0 
28 0 0 81 0 0 87 0 0 95 0 0 114 0 0 126 0 0 135 0 0 160 0 0 182 0 0 187 0 0 231 0 0 232 0 0 263 0 0 265 0 0 291 0 0 266 0 0 294 0 0 280 0 0 320 0 0 325 0 0 350 0 0 328 0 0 326 0 0 359 0 0 355 0 0 332 0 0 357 0 0 359 0 0 371 0 0 345 0 0 345 0 0 363 0 0 371 0 0 352 0 0 360 0 0 367 0 0 349 0 0 339 0 0 354 0 0 345 0 0 324 0 0 299 0 0 312 0 0 306 0 0 283 0 0 277 0 0 290 0 0 258 0 0 249 0 0 223 0 0 232 0 0 196 0 0 179 0 0 164 0 0 151 0 0 128 0 0 118 0 0 108 0 0 95 0 0 83 0 0 
33 0 0 78 0 0 103 0 0 113 0 0 119 0 0 131 0 0 149 0 0 172 0 0 197 0 0 215 0 0 242 0 0 255 0 0 272 0 0 307 0 0 311 0 0 319 0 0 332 0 0 392 0 0 370 0 0 400 0 0 387 0 0 396 0 0 396 0 0 393 0 0 397 0 0 428 0 0 423 0 0 417 0 0 397 0 0 416 0 0 419 0 0 434 0 0 410 0 0 405 0 0 414 0 0 414 0 0 416 0 0 407 0 0 398 0 0 400 0 0 377 0 0 372 0 0 372 0 0 382 0 0 331 0 0 336 0 0 335 0 0 300 0 0 281 0 0 256 0 0 234 0 0 212 0 0 188 0 0 181 0 0 156 0 0 138 0 0 130 0 0 112 0 0 101 0 0 96 0 0 
38 0 0 98 0 0 105 0 0 118 0 0 130 0 0 144 0 0 159 0 0 171 0 0 213 0 0 247 0 0 285 0 0 327 0 0 345 0 0 375 0 0 393 0 0 438 0 0 431 0 0 451 0 0 453 0 0 479 0 0 467 0 0 441 0 0 509 0 0 518 0 0 503 0 0 489 0 0 478 0 0 503 0 0 520 0 0 491 0 0 488 0 0 522 0 0 505 0 0 506 0 0 501 0 0 500 0 0 498 0 0 465 0 0 485 0 0 475 0 0 485 0 0 471 0 0 474 0 0 434 0 0 411 0 0 415 0 0 401 0 0 392 0 0 349 0 0 327 0 0 286 0 0 257 0 0 206 0 0 180 0 0 169 0 0 147 0 0 118 0 0 127 0 0 109 0 0 100 0 0 
36 0 0 97 0 0 119 0 0 130 0 0 143 0 0 164 0 0 181 0 0 205 0 0 221 0 0 297 0 0 1021 0 0 1708 0 0 1732 0 0 1800 0 0 1858 0 0 1814 0 0 1780 0 0 1824 0 0 1851 0 0 1856 0 0 1842 0 0 1964 0 0 2002 0 0 1874 0 0 1888 0 0 1935 0 0 1897 0 0 1925 0 0 1941 0 0 1875 0 0 1882 0 0 1886 0 0 1929 0 0 1950 0 0 1856 0 0 1900 0 0 1912 0 0 1917 0 0 1971 0 0 1946 0 0 1871 0 0 1903 0 0 1807 0 0 1869 0 0 1814 0 0 1783 0 0 1797 0 0 1763 0 0 1712 0 0 1697 0 0 982 0 0 273 0 0 220 0 0 219 0 0 174 0 0 158 0 0 138 0 0 129 0 0 100 0 0 108 0 0 
33 0 0 104 0 0 118 0 0 143 0 0 148 0 0 165 0 0 202 0 0 223 0 0 274 0 0 316 0 0 1737 0 0 2990 0 0 3164 0 0 3190 0 0 3083 0 0 3159 0 0 3176 0 0 3257 0 0 3301 0 0 3257 0 0 3188 0 0 3298 0 0 3317 0 0 3312 0 0 3371 0 0 3303 0 0 3308 0 0 3320 0 0 3372 0 0 3337 0 0 3260 0 0 3227 0 0 3241 0 0 3338 0 0 3326 0 0 3281 0 0 3303 0 0 3227 0 0 3234 0 0 3238 0 0 3325 0 0 3316 0 0 3309 0 0 3271 0 0 3201 0 0 3235 0 0 3207 0 0 3163 0 0 3018 0 0 3031 0 0 1701 0 0 328 0 0 262 0 0 217 0 0 208 0 0 169 0 0 147 0 0 127 0 0 113 0 0 110 0 0 
36 0 0 109 0 0 121 0 0 154 0 0 161 0 0 188 0 0 206 0 0 243 0 0 280 0 0 338 0 0 1782 0 0 3109 0 0 3157 0 0 3238 0 0 3301 0 0 3391 0 0 3337 0 0 3258 0 0 3274 0 0 3263 0 0 3398 0 0 3292 0 0 3313 0 0 3444 0 0 3389 0 0 3468 0 0 3371 0 0 3384 0 0 3452 0 0 3420 0 0 3412 0 0 3410 0 0 3350 0 0 3411 0 0 3396 0 0 3412 0 0 3254 0 0 3342 0 0 3384 0 0 3403 0 0 3394 0 0 3365 0 0 3354 0 0 3312 0 0 3431 0 0 3302 0 0 3207 0 0 3167 0 0 3132 0 0 3165 0 0 1708 0 0 344 0 0 271 0 0 233 0 0 238 0 0 185 0 0 160 0 0 144 0 0 122 0 0 115 0 0 
38 0 0 113 0 0 134 0 0 153 0 0 169 0 0 202 0 0 233 0 0 261 0 0 304 0 0 371 0 0 1737 0 0 3108 0 0 3220 0 0 3166 0 0 3314 0 0 3285 0 0 3329 0 0 3459 0 0 3355 0 0 3380 0 0 3405 0 0 3334 0 0 3395 0 0 3475 0 0 3421 0 0 3579 0 0 3418 0 0 3474 0 0 3513 0 0 3491 0 0 3461 0 0 3416 0 0 3409 0 0 3556 0 0 3394 0 0 3402 0 0 3394 0 0 3481 0 0 3421 0 0 3531 0 0 3394 0 0 3420 0 0 3406 0 0 3293 0 0 3328 0 0 3321 0 0 3274 0 0 3178 0 0 3237 0 0 3147 0 0 1817 0 0 372 0 0 304 0 0 249 0 0 208 0 0 204 0 0 172 0 0 148 0 0 127 0 0 120 0 0 
40 0 0 126 0 0 143 0 0 154 0 0 175 0 0 225 0 0 240 0 0 292 0 0 322 0 0 420 0 0 1844 0 0 3185 0 0 3248 0 0 3316 0 0 3348 0 0 3285 0 0 3392 0 0 3415 0 0 3470 0 0 3491 0 0 3371 0 0 3489 0 0 3541 0 0 3577 0 0 3522 0 0 3535 0 0 3595 0 0 3524 0 0 3477 0 0 3502 0 0 3515 0 0 3509 0 0 3538 0 0 3439 0 0 3426 0 0 3467 0 0 3505 0 0 3507 0 0 3478 0 0 3480 0 0 3366 0 0 3415 0 0 3499 0 0 3439 0 0 3435 0 0 3368 0 0 3316 0 0 3241 0 0 3180 0 0 3157 0 0 1756 0 0 391 0 0 309 0 0 273 0 0 239 0 0 212 0 0 175 0 0 154 0 0 141 0 0 121 0 0 
44 0 0 125 0 0 144 0 0 168 0 0 176 0 0 221 0 0 251 0 0 294 0 0 330 0 0 406 0 0 1757 0 0 3175 0 0 3321 0 0 3378 0 0 3446 0 0 3374 0 0 3508 0 0 3481 0 0 3537 0 0 3355 0 0 3504 0 0 3479 0 0 3467 0 0 3561 0 0 3552 0 0 3614 0 0 3555 0 0 3553 0 0 3518 0 0 3538 0 0 3517 0 0 3567 0 0 3582 0 0 3440 0 0 3464 0 0 3531 0 0 3613 0 0 3426 0 0 3490 0 0 3515 0 0 3448 0 0 3467 0 0 3578 0 0 3514 0 0 3413 0 0 3405 0 0 3372 0 0 3401 0 0 3288 0 0 3111 0 0 1784 0 0 411 0 0 328 0 0 275 0 0 239 0 0 225 0 0 200 0 0 160 0 0 144 0 0 117 0 0 
45 0 0 137 0 0 146 0 0 161 0 0 205 0 0 206 0 0 258 0 0 297 0 0 355 0 0 442 0 0 1754 0 0 3250 0 0 3289 0 0 3367 0 0 3385 0 0 3467 0 0 3483 0 0 3474 0 0 3456 0 0 3549 0 0 3373 0 0 3417 0 0 3565 0 0 3516 0 0 3659 0 0 3551 0 0 3506 0 0 3607 0 0 3593 0 0 3637 0 0 3623 0 0 3607 0 0 3559 0 0 3536 0 0 3543 0 0 3623 0 0 3513 0 0 3573 0 0 3529 0 0 3425 0 0 3489 0 0 3488 0 0 3457 0 0 3481 0 0 3476 0 0 3467 0 0 3385 0 0 3320 0 0 3303 0 0 3214 0 0 1821 0 0 427 0 0 354 0 0 298 0 0 252 0 0 226 0 0 194 0 0 157 0 0 144 0 0 131 0 0 
44 0 0 134 0 0 153 0 0 173 0 0 201 0 0 249 0 0 272 0 0 297 0 0 346 0 0 411 0 0 1901 0 0 3298 0 0 3355 0 0 3341 0 0 3397 0 0 3356 0 0 3358 0 0 3406 0 0 3428 0 0 3521 0 0 3518 0 0 3440 0 0 3506 0 0 3554 0 0 3597 0 0 3510 0 0 3603 0 0 3546 0 0 3633 0 0 3677 0 0 3577 0 0 3558 0 0 3658 0 0 3543 0 0 3594 0 0 3496 0 0 3565 0 0 3601 0 0 3464 0 0 3659 0 0 3590 0 0 3473 0 0 3511 0 0 3484 0 0 3499 0 0 3457 0 0 3504 0 0 3464 0 0 3392 0 0 3268 0 0 1778 0 0 428 0 0 363 0 0 295 0 0 272 0 0 223 0 0 197 0 0 168 0 0 145 0 0 127 0 0 
52 0 0 143 0 0 173 0 0 179 0 0 222 0 0 240 0 0 294 0 0 323 0 0 367 0 0 452 0 0 1791 0 0 3317 0 0 3299 0 0 3375 0 0 3505 0 0 3595 0 0 3607 0 0 3577 0 0 3460 0 0 3514 0 0 3561 0 0 3579 0 0 3605 0 0 3634 0 0 3659 0 0 3661 0 0 3738 0 0 3674 0 0 3633 0 0 3659 0 0 3621 0 0 3648 0 0 3577 0 0 3653 0 0 3616 0 0 3574 0 0 3525 0 0 3638 0 0 3513 0 0 3493 0 0 3605 0 0 3532 0 0 3495 0 0 3541 0 0 3448 0 0 3580 0 0 3528 0 0 3368 0 0 3379 0 0 3218 0 0 1846 0 0 464 0 0 361 0 0 327 0 0 274 0 0 233 0 0 205 0 0 174 0 0 156 0 0 133 0 0 
45 0 0 148 0 0 156 0 0 187 0 0 212 0 0 244 0 0 281 0 0 327 0 0 386 0 0 448 0 0 1785 0 0 3328 0 0 3447 0 0 3444 0 0 3441 0 0 3530 0 0 3461 0 0 3469 0 0 3585 0 0 3620 0 0 3616 0 0 3530 0 0 3584 0 0 3655 0 0 3640 0 0 3622 0 0 3626 0 0 3658 0 0 3621 0 0 3610 0 0 3718 0 0 3651 0 0 3650 0 0 3669 0 0 3662 0 0 3577 0 0 3608 0 0 3644 0 0 3643 0 0 3650 0 0 3654 0 0 3549 0 0 3512 0 0 3500 0 0 3535 0 0 3508 0 0 3390 0 0 3436 0 0 3415 0 0 3325 0 0 1923 0 0 479 0 0 389 0 0 335 0 0 282 0 0 255 0 0 213 0 0 175 0 0 166 0 0 141 0 0 
47 0 0 132 0 0 174 0 0 195 0 0 218 0 0 243 0 0 297 0 0 320 0 0 378 0 0 438 0 0 1877 0 0 3286 0 0 3398 0 0 3391 0 0 3491 0 0 3527 0 0 3557 0 0 3538 0 0 3555 0 0 3622 0 0 3602 0 0 3589 0 0 3559 0 0 3641 0 0 3636 0 0 3631 0 0 3615 0 0 3601 0 0 3713 0 0 3636 0 0 3657 0 0 3675 0 0 3626 0 0 3734 0 0 3617 0 0 3649 0 0 3725 0 0 3496 0 0 3642 0 0 3526 0 0 3710 0 0 3578 0 0 3559 0 0 3632 0 0 3514 0 0 3506 0 0 3593 0 0 3355 0 0 3349 0 0 3321 0 0 1862 0 0 444 0 0 382 0 0 339 0 0 292 0 0 255 0 0 215 0 0 186 0 0 163 0 0 153 0 0 
49 0 0 158 0 0 167 0 0 195 0 0 216 0 0 241 0 0 285 0 0 339 0 0 400 0 0 490 0 0 1910 0 0 3339 0 0 3313 0 0 3415 0 0 3477 0 0 3481 0 0 3481 0 0 3575 0 0 3614 0 0 3595 0 0 3660 0 0 3648 0 0 3676 0 0 3688 0 0 3644 0 0 3692 0 0 3629 0 0 3645 0 0 3665 0 0 3726 0 0 3700 0 0 3707 0 0 3641 0 0 3624 0 0 3656 0 0 3651 0 0 3663 0 0 3600 0 0 3679 0 0 3534 0 0 3557 0 0 3576 0 0 3589 0 0 3549 0 0 3480 0 0 3610 0 0 3487 0 0 3432 0 0 3314 0 0 3217 0 0 1890 0 0 494 0 0 397 0 0 334 0 0 304 0 0 251 0 0 224 0 0 197 0 0 176 0 0 141 0 0 
55 0 0 150 0 0 185 0 0 195 0 0 236 0 0 252 0 0 286 0 0 323 0 0 404 0 0 478 0 0 1977 0 0 3337 0 0 3326 0 0 3431 0 0 3535 0 0 3513 0 0 3567 0 0 3624 0 0 3588 0 0 3669 0 0 3657 0 0 3655 0 0 3652 0 0 3610 0 0 3697 0 0 3694 0 0 3616 0 0 3770 0 0 3717 0 0 3714 0 0 3701 0 0 3607 0 0 3670 0 0 3647 0 0 3704 0 0 3731 0 0 3645 0 0 3706 0 0 3571 0 0 3561 0 0 3656 0 0 3593 0 0 3545 0 0 3526 0 0 3609 0 0 3589 0 0 3533 0 0 3408 0 0 3339 0 0 3284 0 0 1895 0 0 493 0 0 391 0 0 355 0 0 296 0 0 242 0 0 228 0 0 194 0 0 174 0 0 161 0 0 
54 0 0 153 0 0 185 0 0 213 0 0 230 0 0 260 0 0 294 0 0 350 0 0 385 0 0 488 0 0 1866 0 0 3246 0 0 3382 0 0 3436 0 0 3507 0 0 3576 0 0 3620 0 0 3533 0 0 3578 0 0 3599 0 0 3633 0 0 3711 0 0 3661 0 0 3627 0 0 3725 0 0 3663 0 0 3681 0 0 3759 0 0 3603 0 0 3674 0 0 3768 0 0 3779 0 0 3688 0 0 3708 0 0 3698 0 0 3691 0 0 3761 0 0 3645 0 0 3578 0 0 3675 0 0 3597 0 0 3656 0 0 3548 0 0 3523 0 0 3618 0 0 3496 0 0 3417 0 0 3442 0 0 3412 0 0 3250 0 0 1860 0 0 479 0 0 393 0 0 356 0 0 313 0 0 265 0 0 221 0 0 228 0 0 171 0 0 147 0 0 
50 0 0 144 0 0 180 0 0 210 0 0 241 0 0 262 0 0 299 0 0 356 0 0 414 0 0 471 0 0 1908 0 0 3272 0 0 3361 0 0 3449 0 0 3452 0 0 3460 0 0 3570 0 0 3592 0 0 3661 0 0 3710 0 0 3608 0 0 3650 0 0 3688 0 0 3677 0 0 3683 0 0 3732 0 0 3664 0 0 3655 0 0 3677 0 0 3612 0 0 3718 0 0 3720 0 0 3633 0 0 3665 0 0 3745 0 0 3701 0 0 3763 0 0 3725 0 0 3693 0 0 3675 0 0 3581 0 0 3615 0 0 3641 0 0 3623 0 0 3613 0 0 3485 0 0 3503 0 0 3358 0 0 3411 0 0 3299 0 0 1988 0 0 481 0 0 412 0 0 354 0 0 296 0 0 268 0 0 238 0 0 212 0 0 177 0 0 165 0 0 
59 0 0 174 0 0 182 0 0 195 0 0 239 0 0 261 0 0 301 0 0 365 0 0 437 0 0 518 0 0 1909 0 0 3225 0 0 3355 0 0 3469 0 0 3495 0 0 3581 0 0 3586 0 0 3656 0 0 3614 0 0 3594 0 0 3566 0 0 3716 0 0 3763 0 0 3687 0 0 3776 0 0 3683 0 0 3752 0 0 3737 0 0 3658 0 0 3705 0 0 3683 0 0 3803 0 0 3719 0 0 3719 0 0 3714 0 0 3758 0 0 3691 0 0 3665 0 0 3680 0 0 3686 0 0 3645 0 0 3653 0 0 3621 0 0 3613 0 0 3548 0 0 3623 0 0 3580 0 0 3482 0 0 3393 0 0 3391 0 0 1927 0 0 526 0 0 412 0 0 347 0 0 310 0 0 252 0 0 241 0 0 193 0 0 180 0 0 158 0 0 
56 0 0 155 0 0 186 0 0 208 0 0 228 0 0 271 0 0 285 0 0 346 0 0 390 0 0 508 0 0 1890 0 0 3268 0 0 3352 0 0 3416 0 0 3522 0 0 3534 0 0 3554 0 0 3593 0 0 3691 0 0 3635 0 0 3620 0 0 3631 0 0 3755 0 0 3626 0 0 3672 0 0 3717 0 0 3690 0 0 3812 0 0 3662 0 0 3631 0 0 3727 0 0 3721 0 0 3757 0 0 3621 0 0 3655 0 0 3757 0 0 3676 0 0 3596 0 0 3764 0 0 3700 0 0 3676 0 0 3629 0 0 3686 0 0 3561 0 0 3543 0 0 3470 0 0 3560 0 0 3469 0 0 3416 0 0 3262 0 0 1883 0 0 494 0 0 405 0 0 337 0 0 307 0 0 271 0 0 225 0 0 209 0 0 186 0 0 164 0 0 
52 0 0 151 0 0 185 0 0 210 0 0 226 0 0 264 0 0 314 0 0 361 0 0 426 0 0 496 0 0 1902 0 0 3289 0 0 3454 0 0 3458 0 0 3458 0 0 3518 0 0 3603 0 0 3662 0 0 3551 0 0 3682 0 0 3659 0 0 3633 0 0 3697 0 0 3689 0 0 3652 0 0 3561 0 0 3715 0 0 3700 0 0 3697 0 0 3683 0 0 3702 0 0 3744 0 0 3610 0 0 3714 0 0 3632 0 0 3677 0 0 3684 0 0 3684 0 0 3765 0 0 3638 0 0 3684 0 0 3731 0 0 3628 0 0 3592 0 0 3592 0 0 3563 0 0 3580 0 0 3442 0 0 3438 0 0 3247 0 0 1911 0 0 491 0 0 416 0 0 373 0 0 304 0 0 288 0 0 238 0 0 200 0 0 174 0 0 157 0 0 
53 0 0 154 0 0 181 0 0 198 0 0 245 0 0 267 0 0 331 0 0 381 0 0 404 0 0 538 0 0 1930 0 0 3417 0 0 3344 0 0 3474 0 0 3590 0 0 3544 0 0 3568 0 0 3554 0 0 3564 0 0 3634 0 0 3704 0 0 3582 0 0 3579 0 0 3706 0 0 3691 0 0 3779 0 0 3711 0 0 3704 0 0 3700 0 0 3645 0 0 3790 0 0 3683 0 0 3759 0 0 3690 0 0 3663 0 0 3723 0 0 3763 0 0 3672 0 0 3733 0 0 3636 0 0 3641 0 0 3666 0 0 3602 0 0 3522 0 0 3594 0 0 3534 0 0 3466 0 0 3537 0 0 3392 0 0 3327 0 0 1915 0 0 525 0 0 435 0 0 389 0 0 318 0 0 277 0 0 222 0 0 207 0 0 189 0 0 161 0 0 
49 0 0 163 0 0 186 0 0 213 0 0 222 0 0 242 0 0 304 0 0 374 0 0 427 0 0 510 0 0 1882 0 0 3344 0 0 3317 0 0 3520 0 0 3447 0 0 3448 0 0 3601 0 0 3591 0 0 3572 0 0 3654 0 0 3657 0 0 3667 0 0 3601 0 0 3752 0 0 3717 0 0 3708 0 0 3746 0 0 3617 0 0 3711 0 0 3718 0 0 3683 0 0 3702 0 0 3607 0 0 3600 0 0 3659 0 0 3723 0 0 3622 0 0 3679 0 0 3689 0 0 3678 0 0 3783 0 0 3602 0 0 3691 0 0 3657 0 0 3560 0 0 3552 0 0 3490 0 0 3413 0 0 3454 0 0 3302 0 0 1910 0 0 524 0 0 436 0 0 354 0 0 319 0 0 272 0 0 245 0 0 203 0 0 179 0 0 167 0 0 
59 0 0 159 0 0 194 0 0 216 0 0 248 0 0 288 0 0 300 0 0 368 0 0 418 0 0 497 0 0 1826 0 0 3263 0 0 3367 0 0 3408 0 0 3560 0 0 3476 0 0 3657 0 0 3732 0 0 3649 0 0 3636 0 0 3707 0 0 3688 0 0 3602 0 0 3733 0 0 3775 0 0 3745 0 0 3677 0 0 3687 0 0 3693 0 0 3694 0 0 3752 0 0 3658 0 0 3678 0 0 3666 0 0 3742 0 0 3740 0 0 3693 0 0 3655 0 0 3658 0 0 3664 0 0 3784 0 0 3660 0 0 3720 0 0 3632 0 0 3490 0 0 3422 0 0 3540 0 0 3484 0 0 3409 0 0 3309 0 0 1936 0 0 504 0 0 417 0 0 359 0 0 326 0 0 273 0 0 253 0 0 222 0 0 184 0 0 168 0 0 
55 0 0 155 0 0 184 0 0 207 0 0 251 0 0 275 0 0 313 0 0 357 0 0 413 0 0 518 0 0 1885 0 0 3292 0 0 3397 0 0 3477 0 0 3515 0 0 3467 0 0 3637 0 0 3550 0 0 3660 0 0 3610 0 0 3610 0 0 3665 0 0 3665 0 0 3655 0 0 3740 0 0 3682 0 0 3727 0 0 3696 0 0 3726 0 0 3714 0 0 3737 0 0 3738 0 0 3791 0 0 3801 0 0 3786 0 0 3701 0 0 3726 0 0 3631 0 0 3725 0 0 3695 0 0 3691 0 0 3683 0 0 3674 0 0 3598 0 0 3565 0 0 3568 0 0 3594 0 0 3448 0 0 3354 0 0 3327 0 0 1925 0 0 491 0 0 402 0 0 348 0 0 310 0 0 296 0 0 255 0 0 200 0 0 186 0 0 156 0 0 
54 0 0 160 0 0 181 0 0 207 0 0 224 0 0 282 0 0 325 0 0 374 0 0 436 0 0 514 0 0 1889 0 0 3370 0 0 3403 0 0 3547 0 0 3584 0 0 3602 0 0 3630 0 0 3656 0 0 3535 0 0 3606 0 0 3748 0 0 3639 0 0 3561 0 0 3665 0 0 3632 0 0 3827 0 0 3742 0 0 3765 0 0 3777 0 0 3750 0 0 3796 0 0 3654 0 0 3710 0 0 3721 0 0 3742 0 0 3646 0 0 3700 0 0 3649 0 0 3723 0 0 3558 0 0 3557 0 0 3621 0 0 3627 0 0 3678 0 0 3457 0 0 3578 0 0 3453 0 0 3391 0 0 3340 0 0 3288 0 0 1864 0 0 491 0 0 386 0 0 347 0 0 318 0 0 270 0 0 238 0 0 209 0 0 191 0 0 167 0 0 
52 0 0 156 0 0 189 0 0 214 0 0 231 0 0 265 0 0 323 0 0 352 0 0 417 0 0 526 0 0 1835 0 0 3311 0 0 3407 0 0 3421 0 0 3495 0 0 3511 0 0 3555 0 0 3563 0 0 3555 0 0 3534 0 0 3621 0 0 3745 0 0 3708 0 0 3807 0 0 3688 0 0 3748 0 0 3818 0 0 3701 0 0 3793 0 0 3720 0 0 3715 0 0 3714 0 0 3784 0 0 3680 0 0 3672 0 0 3662 0 0 3665 0 0 3707 0 0 3726 0 0 3705 0 0 3723 0 0 3674 0 0 3649 0 0 3572 0 0 3566 0 0 3604 0 0 3580 0 0 3382 0 0 3401 0 0 3328 0 0 1834 0 0 490 0 0 384 0 0 332 0 0 298 0 0 262 0 0 232 0 0 214 0 0 184 0 0 153 0 0 
54 0 0 154 0 0 174 0 0 211 0 0 233 0 0 264 0 0 318 0 0 372 0 0 397 0 0 487 0 0 1997 0 0 3289 0 0 3403 0 0 3509 0 0 3569 0 0 3580 0 0 3647 0 0 3572 0 0 3588 0 0 3612 0 0 3690 0 0 3650 0 0 3681 0 0 3672 0 0 3680 0 0 3704 0 0 3722 0 0 3755 0 0 3716 0 0 3815 0 0 3734 0 0 3707 0 0 3723 0 0 3763 0 0 3773 0 0 3680 0 0 3690 0 0 3683 0 0 3717 0 0 3774 0 0 3691 0 0 3531 0 0 3618 0 0 3588 0 0 3560 0 0 3592 0 0 3613 0 0 3481 0 0 3365 0 0 3305 0 0 1944 0 0 507 0 0 429 0 0 359 0 0 309 0 0 265 0 0 245 0 0 216 0 0 173 0 0 152 0 0 
53 0 0 157 0 0 168 0 0 213 0 0 223 0 0 277 0 0 319 0 0 358 0 0 417 0 0 482 0 0 1910 0 0 3294 0 0 3441 0 0 3468 0 0 3505 0 0 3601 0 0 3605 0 0 3647 0 0 3595 0 0 3589 0 0 3669 0 0 3626 0 0 3679 0 0 3686 0 0 3673 0 0 3568 0 0 3718 0 0 3817 0 0 3579 0 0 3657 0 0 3711 0 0 3757 0 0 3680 0 0 3624 0 0 3665 0 0 3620 0 0 3786 0 0 3675 0 0 3721 0 0 3683 0 0 3668 0 0 3613 0 0 3512 0 0 3581 0 0 3558 0 0 3535 0 0 3413 0 0 3414 0 0 3389 0 0 3342 0 0 1963 0 0 496 0 0 402 0 0 362 0 0 286 0 0 268 0 0 247 0 0 201 0 0 175 0 0 166 0 0 
48 0 0 148 0 0 167 0 0 195 0 0 226 0 0 248 0 0 319 0 0 355 0 0 382 0 0 495 0 0 1940 0 0 3394 0 0 3432 0 0 3421 0 0 3581 0 0 3659 0 0 3567 0 0 3609 0 0 3623 0 0 3705 0 0 3539 0 0 3715 0 0 3598 0 0 3551 0 0 3798 0 0 3702 0 0 3711 0 0 3683 0 0 3717 0 0 3706 0 0 3712 0 0 3742 0 0 3642 0 0 3774 0 0 3772 0 0 3617 0 0 3736 0 0 3717 0 0 3643 0 0 3645 0 0 3593 0 0 3595 0 0 3482 0 0 3559 0 0 3555 0 0 3477 0 0 3502 0 0 3465 0 0 3433 0 0 3244 0 0 1936 0 0 486 0 0 402 0 0 345 0 0 306 0 0 253 0 0 218 0 0 216 0 0 196 0 0 158 0 0 
54 0 0 151 0 0 180 0 0 198 0 0 229 0 0 249 0 0 298 0 0 371 0 0 406 0 0 495 0 0 1906 0 0 3283 0 0 3284 0 0 3433 0 0 3444 0 0 3535 0 0 3527 0 0 3630 0 0 3654 0 0 3696 0 0 3584 0 0 3586 0 0 3674 0 0 3664 0 0 3707 0 0 3597 0 0 3747 0 0 3676 0 0 3656 0 0 3680 0 0 3652 0 0 3793 0 0 3705 0 0 3692 0 0 3708 0 0 3641 0 0 3757 0 0 3695 0 0 3700 0 0 3596 0 0 3521 0 0 3628 0 0 3637 0 0 3522 0 0 3570 0 0 3516 0 0 3435 0 0 3484 0 0 3352 0 0 3343 0 0 1891 0 0 498 0 0 397 0 0 344 0 0 280 0 0 261 0 0 244 0 0 196 0 0 169 0 0 154 0 0 
47 0 0 150 0 0 177 0 0 203 0 0 251 0 0 265 0 0 298 0 0 338 0 0 420 0 0 516 0 0 1901 0 0 3338 0 0 3358 0 0 3457 0 0 3499 0 0 3425 0 0 3468 0 0 3535 0 0 3531 0 0 3579 0 0 3555 0 0 3689 0 0 3726 0 0 3619 0 0 3645 0 0 3653 0 0 3686 0 0 3665 0 0 3542 0 0 3618 0 0 3708 0 0 3649 0 0 3715 0 0 3707 0 0 3601 0 0 3547 0 0 3675 0 0 3700 0 0 3663 0 0 3623 0 0 3628 0 0 3636 0 0 3533 0 0 3629 0 0 3488 0 0 3511 0 0 3498 0 0 3428 0 0 3443 0 0 3270 0 0 1892 0 0 475 0 0 391 0 0 351 0 0 306 0 0 258 0 0 224 0 0 202 0 0 164 0 0 144 0 0 
49 0 0 155 0 0 175 0 0 191 0 0 232 0 0 247 0 0 290 0 0 336 0 0 375 0 0 495 0 0 1892 0 0 3362 0 0 3379 0 0 3344 0 0 3521 0 0 3527 0 0 3600 0 0 3581 0 0 3553 0 0 3510 0 0 3553 0 0 3701 0 0 3708 0 0 3637 0 0 3645 0 0 3679 0 0 3676 0 0 3667 0 0 3712 0 0 3644 0 0 3673 0 0 3660 0 0 3668 0 0 3655 0 0 3635 0 0 3580 0 0 3639 0 0 3721 0 0 3615 0 0 3560 0 0 3596 0 0 3633 0 0 3540 0 0 3545 0 0 3574 0 0 3575 0 0 3492 0 0 3451 0 0 3372 0 0 3296 0 0 1910 0 0 497 0 0 402 0 0 354 0 0 303 0 0 241 0 0 211 0 0 191 0 0 167 0 0 144 0 0 
48 0 0 154 0 0 172 0 0 202 0 0 227 0 0 249 0 0 276 0 0 330 0 0 388 0 0 473 0 0 1936 0 0 3310 0 0 3352 0 0 3380 0 0 3416 0 0 3522 0 0 3535 0 0 3451 0 0 3616 0 0 3562 0 0 3603 0 0 3572 0 0 3692 0 0 3639 0 0 3643 0 0 3641 0 0 3581 0 0 3705 0 0 3706 0 0 3589 0 0 3675 0 0 3730 0 0 3737 0 0 3578 0 0 3615 0 0 3642 0 0 3680 0 0 3600 0 0 3596 0 0 3699 0 0 3679 0 0 3626 0 0 3569 0 0 3587 0 0 3558 0 0 3559 0 0 3396 0 0 3492 0 0 3387 0 0 3197 0 0 1850 0 0 477 0 0 393 0 0 316 0 0 277 0 0 255 0 0 205 0 0 186 0 0 170 0 0 145 0 0 
56 0 0 151 0 0 180 0 0 192 0 0 210 0 0 241 0 0 299 0 0 332 0 0 388 0 0 460 0 0 1857 0 0 3325 0 0 3294 0 0 3416 0 0 3481 0 0 3468 0 0 3641 0 0 3556 0 0 3568 0 0 3587 0 0 3551 0 0 3495 0 0 3575 0 0 3555 0 0 3585 0 0 3734 0 0 3646 0 0 3671 0 0 3691 0 0 3626 0 0 3679 0 0 3671 0 0 3669 0 0 3693 0 0 3603 0 0 3720 0 0 3553 0 0 3621 0 0 3640 0 0 3627 0 0 3671 0 0 3603 0 0 3527 0 0 3513 0 0 3515 0 0 3481 0 0 3381 0 0 3336 0 0 3368 0 0 3237 0 0 1875 0 0 456 0 0 369 0 0 314 0 0 267 0 0 248 0 0 222 0 0 186 0 0 169 0 0 144 0 0 
48 0 0 137 0 0 172 0 0 182 0 0 208 0 0 221 0 0 281 0 0 317 0 0 328 0 0 448 0 0 1857 0 0 3278 0 0 3333 0 0 3419 0 0 3403 0 0 3469 0 0 3590 0 0 3557 0 0 3622 0 0 3552 0 0 3674 0 0 3577 0 0 3622 0 0 3605 0 0 3607 0 0 3667 0 0 3630 0 0 3672 0 0 3644 0 0 3598 0 0 3690 0 0 3634 0 0 3644 0 0 3567 0 0 3689 0 0 3664 0 0 3647 0 0 3603 0 0 3581 0 0 3644 0 0 3633 0 0 3510 0 0 3536 0 0 3456 0 0 3543 0 0 3557 0 0 3442 0 0 3370 0 0 3291 0 0 3286 0 0 1844 0 0 462 0 0 348 0 0 310 0 0 265 0 0 253 0 0 201 0 0 175 0 0 162 0 0 146 0 0 
45 0 0 140 0 0 155 0 0 172 0 0 209 0 0 220 0 0 269 0 0 302 0 0 351 0 0 434 0 0 1871 0 0 3314 0 0 3305 0 0 3334 0 0 3314 0 0 3466 0 0 3465 0 0 3467 0 0 3626 0 0 3572 0 0 3547 0 0 3696 0 0 3568 0 0 3564 0 0 3556 0 0 3586 0 0 3483 0 0 3620 0 0 3673 0 0 3617 0 0 3523 0 0 3630 0 0 3589 0 0 3568 0 0 3654 0 0 3652 0 0 3582 0 0 3517 0 0 3630 0 0 3534 0 0 3620 0 0 3539 0 0 3624 0 0 3536 0 0 3466 0 0 3402 0 0 3393 0 0 3333 0 0 3281 0 0 3357 0 0 1883 0 0 453 0 0 362 0 0 312 0 0 281 0 0 238 0 0 216 0 0 168 0 0 144 0 0 135 0 0 
43 0 0 133 0 0 154 0 0 166 0 0 185 0 0 214 0 0 244 0 0 293 0 0 362 0 0 429 0 0 1805 0 0 3321 0 0 3242 0 0 3240 0 0 3347 0 0 3397 0 0 3407 0 0 3433 0 0 3459 0 0 3550 0 0 3474 0 0 3568 0 0 3572 0 0 3572 0 0 3575 0 0 3572 0 0 3550 0 0 3567 0 0 3580 0 0 3591 0 0 3537 0 0 3658 0 0 3571 0 0 3535 0 0 3632 0 0 3557 0 0 3508 0 0 3511 0 0 3520 0 0 3565 0 0 3476 0 0 3538 0 0 3489 0 0 3492 0 0 3529 0 0 3433 0 0 3432 0 0 3389 0 0 3331 0 0 3158 0 0 1834 0 0 426 0 0 343 0 0 296 0 0 272 0 0 221 0 0 196 0 0 175 0 0 145 0 0 123 0 0 
41 0 0 132 0 0 145 0 0 167 0 0 192 0 0 201 0 0 251 0 0 283 0 0 349 0 0 413 0 0 1789 0 0 3265 0 0 3309 0 0 3323 0 0 3332 0 0 3343 0 0 3490 0 0 3369 0 0 3466 0 0 3514 0 0 3474 0 0 3539 0 0 3577 0 0 3462 0 0 3479 0 0 3525 0 0 3518 0 0 3617 0 0 3530 0 0 3553 0 0 3597 0 0 3550 0 0 3515 0 0 3502 0 0 3524 0 0 3585 0 0 3453 0 0 3574 0 0 3466 0 0 3544 0 0 3415 0 0 3513 0 0 3433 0 0 3408 0 0 3448 0 0 3394 0 0 3305 0 0 3284 0 0 3302 0 0 3205 0 0 1826 0 0 424 0 0 361 0 0 302 0 0 256 0 0 201 0 0 201 0 0 180 0 0 142 0 0 116 0 0 
44 0 0 115 0 0 142 0 0 148 0 0 167 0 0 213 0 0 240 0 0 280 0 0 328 0 0 398 0 0 1809 0 0 3178 0 0 3195 0 0 3333 0 0 3248 0 0 3327 0 0 3417 0 0 3359 0 0 3434 0 0 3451 0 0 3506 0 0 3488 0 0 3486 0 0 3541 0 0 3486 0 0 3503 0 0 3480 0 0 3459 0 0 3548 0 0 3518 0 0 3543 0 0 3449 0 0 3418 0 0 3466 0 0 3593 0 0 3568 0 0 3490 0 0 3397 0 0 3455 0 0 3449 0 0 3478 0 0 3428 0 0 3502 0 0 3481 0 0 3360 0 0 3385 0 0 3355 0 0 3356 0 0 3285 0 0 3191 0 0 1761 0 0 406 0 0 305 0 0 271 0 0 248 0 0 199 0 0 177 0 0 157 0 0 137 0 0 122 0 0 
37 0 0 110 0 0 129 0 0 130 0 0 175 0 0 189 0 0 230 0 0 267 0 0 303 0 0 417 0 0 1779 0 0 3185 0 0 3240 0 0 3255 0 0 3276 0 0 3327 0 0 3389 0 0 3349 0 0 3435 0 0 3352 0 0 3426 0 0 3407 0 0 3378 0 0 3503 0 0 3532 0 0 3456 0 0 3494 0 0 3535 0 0 3480 0 0 3380 0 0 3581 0 0 3398 0 0 3376 0 0 3425 0 0 3526 0 0 3422 0 0 3456 0 0 3445 0 0 3464 0 0 3407 0 0 3495 0 0 3372 0 0 3409 0 0 3330 0 0 3391 0 0 3277 0 0 3296 0 0 3355 0 0 3271 0 0 3166 0 0 1767 0 0 373 0 0 312 0 0 254 0 0 227 0 0 203 0 0 172 0 0 140 0 0 126 0 0 113 0 0 
37 0 0 111 0 0 119 0 0 144 0 0 153 0 0 180 0 0 216 0 0 255 0 0 277 0 0 361 0 0 1712 0 0 3074 0 0 3146 0 0 3139 0 0 3243 0 0 3286 0 0 3275 0 0 3337 0 0 3364 0 0 3405 0 0 3429 0 0 3305 0 0 3409 0 0 3437 0 0 3419 0 0 3364 0 0 3410 0 0 3482 0 0 3325 0 0 3352 0 0 3398 0 0 3417 0 0 3395 0 0 3555 0 0 3403 0 0 3326 0 0 3391 0 0 3412 0 0 3422 0 0 3409 0 0 3261 0 0 3441 0 0 3328 0 0 3330 0 0 3303 0 0 3255 0 0 3181 0 0 3224 0 0 3245 0 0 3118 0 0 1738 0 0 336 0 0 297 0 0 239 0 0 208 0 0 192 0 0 169 0 0 137 0 0 121 0 0 101 0 0 
34 0 0 101 0 0 130 0 0 127 0 0 152 0 0 173 0 0 188 0 0 215 0 0 270 0 0 334 0 0 1725 0 0 3090 0 0 3094 0 0 3137 0 0 3236 0 0 3200 0 0 3226 0 0 3211 0 0 3301 0 0 3360 0 0 3202 0 0 3302 0 0 3324 0 0 3277 0 0 3247 0 0 3338 0 0 3347 0 0 3362 0 0 3422 0 0 3296 0 0 3310 0 0 3328 0 0 3296 0 0 3336 0 0 3285 0 0 3275 0 0 3317 0 0 3215 0 0 3229 0 0 3233 0 0 3219 0 0 3179 0 0 3285 0 0 3153 0 0 3144 0 0 3190 0 0 3260 0 0 3167 0 0 3146 0 0 3133 0 0 1717 0 0 332 0 0 267 0 0 229 0 0 192 0 0 189 0 0 155 0 0 144 0 0 113 0 0 102 0 0 
36 0 0 101 0 0 111 0 0 126 0 0 143 0 0 143 0 0 178 0 0 211 0 0 242 0 0 300 0 0 934 0 0 1676 0 0 1783 0 0 1744 0 0 1797 0 0 1834 0 0 1835 0 0 1852 0 0 1849 0 0 1841 0 0 1906 0 0 1885 0 0 1841 0 0 1917 0 0 1887 0 0 1857 0 0 1903 0 0 1964 0 0 1946 0 0 1846 0 0 1872 0 0 1867 0 0 1937 0 0 1874 0 0 1870 0 0 1894 0 0 1864 0 0 1892 0 0 1833 0 0 1902 0 0 1926 0 0 1886 0 0 1868 0 0 1872 0 0 1829 0 0 1808 0 0 1815 0 0 1743 0 0 1756 0 0 1689 0 0 996 0 0 291 0 0 248 0 0 204 0 0 191 0 0 168 0 0 140 0 0 125 0 0 123 0 0 100 0 0 
30 0 0 91 0 0 105 0 0 129 0 0 137 0 0 156 0 0 175 0 0 186 0 0 219 0 0 254 0 0 299 0 0 337 0 0 348 0 0 400 0 0 392 0 0 444 0 0 446 0 0 431 0 0 467 0 0 449 0 0 473 0 0 506 0 0 492 0 0 502 0 0 517 0 0 508 0 0 519 0 0 505 0 0 503 0 0 478 0 0 505 0 0 495 0 0 513 0 0 498 0 0 498 0 0 508 0 0 481 0 0 490 0 0 490 0 0 520 0 0 467 0 0 456 0 0 449 0 0 453 0 0 422 0 0 401 0 0 388 0 0 394 0 0 353 0 0 326 0 0 299 0 0 241 0 0 206 0 0 188 0 0 177 0 0 153 0 0 129 0 0 115 0 0 111 0 0 96 0 0 
30 0 0 81 0 0 100 0 0 112 0 0 118 0 0 145 0 0 164 0 0 159 0 0 193 0 0 218 0 0 230 0 0 266 0 0 270 0 0 320 0 0 328 0 0 330 0 0 338 0 0 355 0 0 368 0 0 378 0 0 382 0 0 409 0 0 412 0 0 403 0 0 385 0 0 427 0 0 421 0 0 414 0 0 402 0 0 453 0 0 424 0 0 418 0 0 408 0 0 427 0 0 412 0 0 424 0 0 412 0 0 404 0 0 398 0 0 399 0 0 400 0 0 392 0 0 373 0 0 350 0 0 332 0 0 345 0 0 329 0 0 305 0 0 290 0 0 283 0 0 249 0 0 217 0 0 195 0 0 185 0 0 158 0 0 137 0 0 121 0 0 112 0 0 103 0 0 85 0 0 
27 0 0 93 0 0 93 0 0 106 0 0 105 0 0 130 0 0 149 0 0 159 0 0 176 0 0 192 0 0 207 0 0 231 0 0 237 0 0 249 0 0 288 0 0 307 0 0 300 0 0 302 0 0 288 0 0 325 0 0 334 0 0 338 0 0 352 0 0 351 0 0 367 0 0 363 0 0 372 0 0 347 0 0 349 0 0 355 0 0 358 0 0 348 0 0 347 0 0 368 0 0 358 0 0 358 0 0 360 0 0 332 0 0 360 0 0 328 0 0 339 0 0 332 0 0 319 0 0 301 0 0 294 0 0 286 0 0 297 0 0 266 0 0 250 0 0 223 0 0 214 0 0 181 0 0 171 0 0 160 0 0 144 0 0 132 0 0 105 0 0 103 0 0 88 0 0 78 0 0 
29 0 0 84 0 0 76 0 0 100 0 0 112 0 0 115 0 0 123 0 0 142 0 0 159 0 0 190 0 0 182 0 0 204 0 0 200 0 0 239 0 0 256 0 0 256 0 0 259 0 0 244 0 0 277 0 0 303 0 0 285 0 0 293 0 0 295 0 0 310 0 0 297 0 0 298 0 0 312 0 0 297 0 0 303 0 0 325 0 0 292 0 0 291 0 0 332 0 0 316 0 0 302 0 0 311 0 0 297 0 0 292 0 0 297 0 0 282 0 0 310 0 0 271 0 0 273 0 0 253 0 0 248 0 0 239 0 0 239 0 0 211 0 0 201 0 0 200 0 0 177 0 0 167 0 0 161 0 0 149 0 0 133 0 0 116 0 0 106 0 0 94 0 0 86 0 0 81 0 0 
23 0 0 68 0 0 82 0 0 85 0 0 104 0 0 116 0 0 118 0 0 133 0 0 131 0 0 152 0 0 161 0 0 176 0 0 184 0 0 192 0 0 194 0 0 210 0 0 230 0 0 226 0 0 242 0 0 249 0 0 248 0 0 246 0 0 267 0 0 269 0 0 267 0 0 259 0 0 281 0 0 276 0 0 265 0 0 254 0 0 281 0 0 282 0 0 254 0 0 266 0 0 266 0 0 264 0 0 266 0 0 272 0 0 263 0 0 250 0 0 262 0 0 230 0 0 233 0 0 235 0 0 233 0 0 214 0 0 190 0 0 195 0 0 191 0 0 159 0 0 164 0 0 160 0 0 141 0 0 136 0 0 124 0 0 106 0 0 101 0 0 91 0 0 76 0 0 71 0 0 
24 0 0 67 0 0 76 0 0 72 0 0 97 0 0 102 0 0 108 0 0 126 0 0 119 0 0 133 0 0 146 0 0 155 0 0 174 0 0 178 0 0 180 0 0 177 0 0 184 0 0 212 0 0 198 0 0 222 0 0 225 0 0 210 0 0 208 0 0 225 0 0 228 0 0 233 0 0 229 0 0 233 0 0 249 0 0 234 0 0 224 0 0 230 0 0 233 0 0 232 0 0 230 0 0 242 0 0 232 0 0 228 0 0 209 0 0 229 0 0 228 0 0 226 0 0 205 0 0 209 0 0 187 0 0 198 0 0 178 0 0 161 0 0 160 0 0 161 0 0 153 0 0 134 0 0 133 0 0 117 0 0 106 0 0 102 0 0 95 0 0 71 0 0 82 0 0 63 0 0 
21 0 0 64 0 0 64 0 0 78 0 0 88 0 0 100 0 0 99 0 0 101 0 0 116 0 0 119 0 0 133 0 0 143 0 0 146 0 0 147 0 0 163 0 0 170 0 0 174 0 0 174 0 0 186 0 0 197 0 0 186 0 0 195 0 0 208 0 0 197 0 0 193 0 0 185 0 0 201 0 0 213 0 0 206 0 0 205 0 0 200 0 0 204 0 0 204 0 0 192 0 0 214 0 0 206 0 0 205 0 0 198 0 0 194 0 0 195 0 0 196 0 0 180 0 0 184 0 0 186 0 0 167 0 0 164 0 0 147 0 0 151 0 0 166 0 0 133 0 0 121 0 0 121 0 0 107 0 0 99 0 0 95 0 0 86 0 0 84 0 0 75 0 0 73 0 0 59 0 0 
19 0 0 54 0 0 62 0 0 70 0 0 73 0 0 77 0 0 82 0 0 96 0 0 111 0 0 107 0 0 103 0 0 114 0 0 131 0 0 130 0 0 143 0 0 145 0 0 146 0 0 159 0 0 179 0 0 167 0 0 168 0 0 160 0 0 163 0 0 164 0 0 171 0 0 172 0 0 184 0 0 182 0 0 183 0 0 178 0 0 192 0 0 190 0 0 177 0 0 180 0 0 173 0 0 187 0 0 175 0 0 181 0 0 169 0 0 163 0 0 176 0 0 155 0 0 164 0 0 157 0 0 155 0 0 149 0 0 145 0 0 145 0 0 128 0 0 123 0 0 119 0 0 100 0 0 105 0 0 102 0 0 89 0 0 79 0 0 71 0 0 67 0 0 63 0 0 55 0 0 
19 0 0 52 0 0 52 0 0 66 0 0 65 0 0 75 0 0 81 0 0 79 0 0 76 0 0 82 0 0 91 0 0 98 0 0 106 0 0 116 0 0 117 0 0 118 0 0 138 0 0 138 0 0 133 0 0 145 0 0 157 0 0 136 0 0 148 0 0 154 0 0 160 0 0 157 0 0 157 0 0 150 0 0 162 0 0 167 0 0 154 0 0 164 0 0 164 0 0 159 0 0 163 0 0 154 0 0 170 0 0 152 0 0 144 0 0 136 0 0 150 0 0 126 0 0 134 0 0 136 0 0 121 0 0 126 0 0 119 0 0 119 0 0 112 0 0 94 0 0 98 0 0 97 0 0 96 0 0 93 0 0 76 0 0 80 0 0 66 0 0 68 0 0 57 0 0 57 0 0 
