P3
# This is a dose file slice at depth 16 of 100
60 60
# now we give the maximum value of the RGB coordinates.
5876
7 0 0 13 0 0 16 0 0 18 0 0 17 0 0 18 0 0 20 0 0 19 0 0 25 0 0 28 0 0 27 0 0 27 0 0 30 0 0 30 0 0 29 0 0 29 0 0 30 0 0 34 0 0 36 0 0 37 0 0 36 0 0 36 0 0 34 0 0 36 0 0 35 0 0 36 0 0 38 0 0 43 0 0 38 0 0 42 0 0 39 0 0 40 0 0 41 0 0 38 0 0 40 0 0 38 0 0 36 0 0 36 0 0 36 0 0 36 0 0 32 0 0 37 0 0 34 0 0 34 0 0 32 0 0 28 0 0 31 0 0 30 0 0 28 0 0 30 0 0 26 0 0 23 0 0 25 0 0 20 0 0 22 0 0 18 0 0 22 0 0 16 0 0 16 0 0 12 0 0 
13 0 0 35 0 0 33 0 0 42 0 0 46 0 0 46 0 0 57 0 0 51 0 0 58 0 0 63 0 0 63 0 0 66 0 0 66 0 0 89 0 0 82 0 0 89 0 0 88 0 0 85 0 0 101 0 0 96 0 0 97 0 0 99 0 0 103 0 0 108 0 0 103 0 0 106 0 0 108 0 0 108 0 0 105 0 0 116 0 0 98 0 0 105 0 0 112 0 0 107 0 0 104 0 0 104 0 0 106 0 0 101 0 0 109 0 0 90 0 0 96 0 0 96 0 0 93 0 0 93 0 0 86 0 0 78 0 0 75 0 0 81 0 0 68 0 0 67 0 0 60 0 0 58 0 0 59 0 0 54 0 0 52 0 0 51 0 0 49 0 0 41 0 0 33 0 0 37 0 0 
15 0 0 35 0 0 37 0 0 43 0 0 52 0 0 55 0 0 58 0 0 59 0 0 65 0 0 66 0 0 72 0 0 89 0 0 77 0 0 84 0 0 94 0 0 95 0 0 102 0 0 113 0 0 101 0 0 107 0 0 116 0 0 116 0 0 121 0 0 117 0 0 125 0 0 126 0 0 121 0 0 117 0 0 121 0 0 128 0 0 124 0 0 123 0 0 132 0 0 118 0 0 123 0 0 118 0 0 115 0 0 111 0 0 114 0 0 117 0 0 110 0 0 107 0 0 106 0 0 103 0 0 99 0 0 100 0 0 101 0 0 90 0 0 84 0 0 79 0 0 75 0 0 74 0 0 62 0 0 65 0 0 67 0 0 57 0 0 54 0 0 48 0 0 41 0 0 37 0 0 
17 0 0 40 0 0 42 0 0 53 0 0 54 0 0 57 0 0 64 0 0 72 0 0 69 0 0 79 0 0 84 0 0 88 0 0 99 0 0 100 0 0 100 0 0 118 0 0 118 0 0 125 0 0 125 0 0 124 0 0 124 0 0 132 0 0 136 0 0 137 0 0 145 0 0 141 0 0 145 0 0 134 0 0 137 0 0 142 0 0 145 0 0 143 0 0 149 0 0 137 0 0 150 0 0 146 0 0 142 0 0 138 0 0 142 0 0 136 0 0 124 0 0 119 0 0 124 0 0 113 0 0 122 0 0 108 0 0 108 0 0 106 0 0 99 0 0 95 0 0 78 0 0 88 0 0 77 0 0 65 0 0 63 0 0 62 0 0 59 0 0 53 0 0 51 0 0 47 0 0 
16 0 0 44 0 0 45 0 0 56 0 0 60 0 0 65 0 0 71 0 0 82 0 0 76 0 0 83 0 0 97 0 0 100 0 0 104 0 0 117 0 0 127 0 0 139 0 0 134 0 0 136 0 0 134 0 0 149 0 0 154 0 0 145 0 0 165 0 0 166 0 0 162 0 0 169 0 0 163 0 0 162 0 0 161 0 0 167 0 0 174 0 0 167 0 0 162 0 0 160 0 0 159 0 0 173 0 0 167 0 0 163 0 0 166 0 0 156 0 0 157 0 0 144 0 0 151 0 0 134 0 0 128 0 0 141 0 0 127 0 0 128 0 0 125 0 0 104 0 0 100 0 0 89 0 0 85 0 0 83 0 0 76 0 0 71 0 0 59 0 0 59 0 0 54 0 0 48 0 0 
17 0 0 42 0 0 57 0 0 57 0 0 67 0 0 66 0 0 86 0 0 87 0 0 88 0 0 98 0 0 109 0 0 127 0 0 131 0 0 142 0 0 142 0 0 158 0 0 159 0 0 172 0 0 159 0 0 173 0 0 180 0 0 168 0 0 184 0 0 183 0 0 189 0 0 204 0 0 197 0 0 190 0 0 195 0 0 200 0 0 199 0 0 192 0 0 185 0 0 182 0 0 195 0 0 200 0 0 207 0 0 192 0 0 188 0 0 179 0 0 174 0 0 183 0 0 175 0 0 156 0 0 168 0 0 148 0 0 148 0 0 144 0 0 128 0 0 119 0 0 112 0 0 96 0 0 91 0 0 87 0 0 78 0 0 75 0 0 67 0 0 59 0 0 56 0 0 45 0 0 
22 0 0 54 0 0 59 0 0 65 0 0 75 0 0 83 0 0 78 0 0 101 0 0 111 0 0 120 0 0 129 0 0 143 0 0 149 0 0 149 0 0 179 0 0 186 0 0 187 0 0 202 0 0 194 0 0 197 0 0 206 0 0 218 0 0 222 0 0 216 0 0 225 0 0 218 0 0 211 0 0 214 0 0 221 0 0 226 0 0 215 0 0 235 0 0 221 0 0 224 0 0 213 0 0 222 0 0 216 0 0 225 0 0 222 0 0 197 0 0 202 0 0 209 0 0 221 0 0 206 0 0 195 0 0 187 0 0 173 0 0 163 0 0 157 0 0 133 0 0 130 0 0 124 0 0 104 0 0 97 0 0 87 0 0 85 0 0 65 0 0 69 0 0 56 0 0 52 0 0 
21 0 0 59 0 0 68 0 0 68 0 0 72 0 0 78 0 0 98 0 0 110 0 0 116 0 0 136 0 0 159 0 0 167 0 0 185 0 0 185 0 0 203 0 0 233 0 0 223 0 0 223 0 0 239 0 0 228 0 0 250 0 0 267 0 0 257 0 0 257 0 0 263 0 0 266 0 0 261 0 0 258 0 0 274 0 0 261 0 0 273 0 0 255 0 0 256 0 0 267 0 0 273 0 0 257 0 0 252 0 0 268 0 0 257 0 0 256 0 0 249 0 0 237 0 0 242 0 0 236 0 0 228 0 0 215 0 0 207 0 0 195 0 0 184 0 0 171 0 0 159 0 0 132 0 0 128 0 0 117 0 0 94 0 0 82 0 0 71 0 0 75 0 0 63 0 0 60 0 0 
23 0 0 58 0 0 66 0 0 79 0 0 80 0 0 92 0 0 106 0 0 126 0 0 147 0 0 173 0 0 179 0 0 208 0 0 227 0 0 246 0 0 256 0 0 287 0 0 289 0 0 293 0 0 303 0 0 305 0 0 324 0 0 326 0 0 311 0 0 316 0 0 329 0 0 320 0 0 347 0 0 325 0 0 303 0 0 322 0 0 335 0 0 328 0 0 335 0 0 323 0 0 326 0 0 346 0 0 312 0 0 322 0 0 330 0 0 312 0 0 296 0 0 307 0 0 293 0 0 292 0 0 272 0 0 274 0 0 254 0 0 233 0 0 230 0 0 207 0 0 184 0 0 161 0 0 144 0 0 125 0 0 106 0 0 93 0 0 84 0 0 79 0 0 71 0 0 58 0 0 
27 0 0 67 0 0 71 0 0 78 0 0 93 0 0 109 0 0 115 0 0 133 0 0 157 0 0 190 0 0 237 0 0 277 0 0 324 0 0 329 0 0 360 0 0 378 0 0 356 0 0 386 0 0 403 0 0 404 0 0 401 0 0 411 0 0 402 0 0 412 0 0 403 0 0 407 0 0 416 0 0 404 0 0 435 0 0 415 0 0 444 0 0 424 0 0 414 0 0 420 0 0 445 0 0 432 0 0 423 0 0 424 0 0 431 0 0 403 0 0 401 0 0 419 0 0 391 0 0 387 0 0 358 0 0 343 0 0 353 0 0 334 0 0 306 0 0 268 0 0 236 0 0 197 0 0 153 0 0 130 0 0 124 0 0 95 0 0 96 0 0 68 0 0 65 0 0 61 0 0 
24 0 0 63 0 0 81 0 0 75 0 0 98 0 0 113 0 0 135 0 0 155 0 0 179 0 0 219 0 0 1243 0 0 2245 0 0 2215 0 0 2366 0 0 2325 0 0 2305 0 0 2398 0 0 2385 0 0 2447 0 0 2486 0 0 2384 0 0 2476 0 0 2423 0 0 2400 0 0 2367 0 0 2439 0 0 2488 0 0 2479 0 0 2444 0 0 2447 0 0 2510 0 0 2379 0 0 2463 0 0 2475 0 0 2485 0 0 2451 0 0 2440 0 0 2408 0 0 2433 0 0 2499 0 0 2366 0 0 2427 0 0 2408 0 0 2352 0 0 2407 0 0 2385 0 0 2366 0 0 2308 0 0 2256 0 0 2230 0 0 1236 0 0 229 0 0 175 0 0 146 0 0 133 0 0 116 0 0 97 0 0 84 0 0 79 0 0 59 0 0 
27 0 0 75 0 0 81 0 0 98 0 0 111 0 0 122 0 0 138 0 0 163 0 0 202 0 0 258 0 0 2211 0 0 4294 0 0 4300 0 0 4208 0 0 4326 0 0 4429 0 0 4428 0 0 4451 0 0 4348 0 0 4464 0 0 4379 0 0 4424 0 0 4391 0 0 4529 0 0 4458 0 0 4467 0 0 4476 0 0 4549 0 0 4444 0 0 4382 0 0 4425 0 0 4397 0 0 4497 0 0 4370 0 0 4521 0 0 4341 0 0 4439 0 0 4416 0 0 4423 0 0 4428 0 0 4377 0 0 4477 0 0 4445 0 0 4361 0 0 4358 0 0 4348 0 0 4345 0 0 4231 0 0 4236 0 0 4146 0 0 2202 0 0 264 0 0 205 0 0 166 0 0 158 0 0 119 0 0 97 0 0 98 0 0 83 0 0 73 0 0 
27 0 0 73 0 0 84 0 0 96 0 0 116 0 0 123 0 0 163 0 0 182 0 0 230 0 0 308 0 0 2306 0 0 4297 0 0 4305 0 0 4336 0 0 4518 0 0 4513 0 0 4470 0 0 4392 0 0 4448 0 0 4500 0 0 4561 0 0 4442 0 0 4572 0 0 4538 0 0 4581 0 0 4633 0 0 4543 0 0 4542 0 0 4528 0 0 4555 0 0 4530 0 0 4432 0 0 4506 0 0 4520 0 0 4612 0 0 4514 0 0 4522 0 0 4429 0 0 4446 0 0 4551 0 0 4599 0 0 4644 0 0 4485 0 0 4575 0 0 4442 0 0 4513 0 0 4471 0 0 4443 0 0 4354 0 0 4173 0 0 2262 0 0 293 0 0 211 0 0 193 0 0 156 0 0 137 0 0 117 0 0 93 0 0 84 0 0 78 0 0 
33 0 0 79 0 0 91 0 0 103 0 0 115 0 0 133 0 0 164 0 0 191 0 0 239 0 0 324 0 0 2340 0 0 4295 0 0 4389 0 0 4470 0 0 4532 0 0 4546 0 0 4489 0 0 4604 0 0 4571 0 0 4553 0 0 4547 0 0 4561 0 0 4720 0 0 4653 0 0 4562 0 0 4522 0 0 4572 0 0 4579 0 0 4634 0 0 4630 0 0 4551 0 0 4599 0 0 4641 0 0 4610 0 0 4621 0 0 4642 0 0 4667 0 0 4677 0 0 4625 0 0 4605 0 0 4519 0 0 4541 0 0 4541 0 0 4504 0 0 4524 0 0 4562 0 0 4408 0 0 4382 0 0 4445 0 0 4291 0 0 2256 0 0 348 0 0 242 0 0 194 0 0 173 0 0 136 0 0 122 0 0 106 0 0 87 0 0 73 0 0 
31 0 0 74 0 0 100 0 0 112 0 0 119 0 0 145 0 0 173 0 0 207 0 0 262 0 0 337 0 0 2397 0 0 4295 0 0 4370 0 0 4518 0 0 4514 0 0 4569 0 0 4556 0 0 4742 0 0 4540 0 0 4717 0 0 4707 0 0 4575 0 0 4593 0 0 4637 0 0 4601 0 0 4623 0 0 4720 0 0 4689 0 0 4669 0 0 4684 0 0 4719 0 0 4700 0 0 4690 0 0 4736 0 0 4635 0 0 4702 0 0 4599 0 0 4698 0 0 4662 0 0 4615 0 0 4574 0 0 4561 0 0 4583 0 0 4543 0 0 4678 0 0 4582 0 0 4513 0 0 4499 0 0 4525 0 0 4400 0 0 2335 0 0 350 0 0 248 0 0 208 0 0 174 0 0 151 0 0 128 0 0 110 0 0 91 0 0 87 0 0 
34 0 0 80 0 0 96 0 0 111 0 0 132 0 0 153 0 0 176 0 0 213 0 0 277 0 0 340 0 0 2437 0 0 4413 0 0 4409 0 0 4585 0 0 4593 0 0 4607 0 0 4571 0 0 4571 0 0 4621 0 0 4643 0 0 4577 0 0 4655 0 0 4831 0 0 4555 0 0 4661 0 0 4626 0 0 4625 0 0 4688 0 0 4662 0 0 4663 0 0 4761 0 0 4745 0 0 4681 0 0 4561 0 0 4759 0 0 4670 0 0 4748 0 0 4632 0 0 4728 0 0 4686 0 0 4789 0 0 4721 0 0 4748 0 0 4631 0 0 4555 0 0 4621 0 0 4642 0 0 4514 0 0 4516 0 0 4446 0 0 2368 0 0 376 0 0 283 0 0 234 0 0 183 0 0 162 0 0 129 0 0 119 0 0 96 0 0 90 0 0 
36 0 0 90 0 0 96 0 0 116 0 0 137 0 0 173 0 0 191 0 0 228 0 0 279 0 0 387 0 0 2377 0 0 4365 0 0 4445 0 0 4599 0 0 4584 0 0 4541 0 0 4575 0 0 4501 0 0 4618 0 0 4656 0 0 4698 0 0 4670 0 0 4703 0 0 4729 0 0 4633 0 0 4674 0 0 4739 0 0 4675 0 0 4652 0 0 4691 0 0 4737 0 0 4702 0 0 4657 0 0 4636 0 0 4707 0 0 4653 0 0 4680 0 0 4636 0 0 4676 0 0 4659 0 0 4740 0 0 4672 0 0 4732 0 0 4664 0 0 4684 0 0 4649 0 0 4633 0 0 4514 0 0 4456 0 0 4349 0 0 2364 0 0 374 0 0 283 0 0 244 0 0 185 0 0 160 0 0 139 0 0 122 0 0 113 0 0 83 0 0 
35 0 0 92 0 0 104 0 0 122 0 0 142 0 0 165 0 0 195 0 0 234 0 0 301 0 0 372 0 0 2371 0 0 4430 0 0 4487 0 0 4489 0 0 4562 0 0 4599 0 0 4495 0 0 4729 0 0 4723 0 0 4694 0 0 4693 0 0 4766 0 0 4663 0 0 4767 0 0 4747 0 0 4748 0 0 4652 0 0 4676 0 0 4779 0 0 4701 0 0 4699 0 0 4824 0 0 4750 0 0 4702 0 0 4795 0 0 4712 0 0 4680 0 0 4768 0 0 4732 0 0 4664 0 0 4643 0 0 4672 0 0 4802 0 0 4631 0 0 4611 0 0 4642 0 0 4600 0 0 4665 0 0 4426 0 0 4398 0 0 2378 0 0 413 0 0 299 0 0 239 0 0 186 0 0 170 0 0 148 0 0 122 0 0 106 0 0 95 0 0 
34 0 0 89 0 0 104 0 0 127 0 0 133 0 0 173 0 0 203 0 0 239 0 0 284 0 0 379 0 0 2426 0 0 4405 0 0 4445 0 0 4543 0 0 4559 0 0 4632 0 0 4579 0 0 4563 0 0 4601 0 0 4739 0 0 4756 0 0 4639 0 0 4656 0 0 4791 0 0 4745 0 0 4728 0 0 4747 0 0 4747 0 0 4734 0 0 4759 0 0 4766 0 0 4825 0 0 4760 0 0 4760 0 0 4793 0 0 4753 0 0 4747 0 0 4693 0 0 4702 0 0 4774 0 0 4710 0 0 4712 0 0 4694 0 0 4574 0 0 4696 0 0 4559 0 0 4582 0 0 4553 0 0 4448 0 0 4421 0 0 2477 0 0 383 0 0 297 0 0 250 0 0 196 0 0 170 0 0 151 0 0 130 0 0 106 0 0 96 0 0 
35 0 0 99 0 0 105 0 0 121 0 0 142 0 0 180 0 0 204 0 0 247 0 0 308 0 0 401 0 0 2469 0 0 4363 0 0 4506 0 0 4528 0 0 4586 0 0 4653 0 0 4682 0 0 4614 0 0 4678 0 0 4793 0 0 4761 0 0 4761 0 0 4776 0 0 4818 0 0 4739 0 0 4838 0 0 4755 0 0 4733 0 0 4731 0 0 4707 0 0 4709 0 0 4758 0 0 4793 0 0 4777 0 0 4811 0 0 4724 0 0 4813 0 0 4692 0 0 4752 0 0 4780 0 0 4728 0 0 4692 0 0 4802 0 0 4684 0 0 4815 0 0 4578 0 0 4597 0 0 4612 0 0 4466 0 0 4476 0 0 2470 0 0 375 0 0 293 0 0 236 0 0 211 0 0 160 0 0 149 0 0 132 0 0 106 0 0 93 0 0 
32 0 0 94 0 0 113 0 0 133 0 0 145 0 0 172 0 0 210 0 0 250 0 0 325 0 0 403 0 0 2376 0 0 4369 0 0 4604 0 0 4497 0 0 4563 0 0 4711 0 0 4666 0 0 4717 0 0 4622 0 0 4665 0 0 4783 0 0 4722 0 0 4648 0 0 4798 0 0 4793 0 0 4785 0 0 4708 0 0 4748 0 0 4814 0 0 4804 0 0 4724 0 0 4784 0 0 4768 0 0 4861 0 0 4772 0 0 4734 0 0 4758 0 0 4652 0 0 4703 0 0 4837 0 0 4753 0 0 4728 0 0 4789 0 0 4650 0 0 4700 0 0 4680 0 0 4649 0 0 4539 0 0 4665 0 0 4396 0 0 2478 0 0 421 0 0 320 0 0 249 0 0 213 0 0 182 0 0 143 0 0 129 0 0 116 0 0 105 0 0 
39 0 0 88 0 0 110 0 0 135 0 0 159 0 0 170 0 0 215 0 0 259 0 0 309 0 0 413 0 0 2466 0 0 4424 0 0 4503 0 0 4566 0 0 4592 0 0 4664 0 0 4668 0 0 4734 0 0 4716 0 0 4556 0 0 4846 0 0 4601 0 0 4726 0 0 4734 0 0 4706 0 0 4796 0 0 4874 0 0 4769 0 0 4731 0 0 4724 0 0 4811 0 0 4833 0 0 4685 0 0 4712 0 0 4894 0 0 4769 0 0 4771 0 0 4606 0 0 4714 0 0 4803 0 0 4726 0 0 4771 0 0 4721 0 0 4700 0 0 4715 0 0 4709 0 0 4664 0 0 4635 0 0 4499 0 0 4506 0 0 2402 0 0 392 0 0 313 0 0 253 0 0 215 0 0 187 0 0 154 0 0 139 0 0 116 0 0 108 0 0 
36 0 0 103 0 0 115 0 0 133 0 0 149 0 0 185 0 0 216 0 0 272 0 0 299 0 0 429 0 0 2372 0 0 4422 0 0 4595 0 0 4699 0 0 4525 0 0 4677 0 0 4664 0 0 4735 0 0 4828 0 0 4723 0 0 4780 0 0 4770 0 0 4666 0 0 4824 0 0 4854 0 0 4839 0 0 4851 0 0 4923 0 0 4792 0 0 4814 0 0 4786 0 0 4679 0 0 4790 0 0 4734 0 0 4776 0 0 4749 0 0 4785 0 0 4756 0 0 4826 0 0 4759 0 0 4738 0 0 4732 0 0 4761 0 0 4677 0 0 4683 0 0 4737 0 0 4607 0 0 4604 0 0 4490 0 0 4556 0 0 2346 0 0 415 0 0 324 0 0 277 0 0 221 0 0 185 0 0 155 0 0 136 0 0 114 0 0 96 0 0 
37 0 0 109 0 0 117 0 0 145 0 0 158 0 0 191 0 0 204 0 0 256 0 0 300 0 0 406 0 0 2425 0 0 4474 0 0 4584 0 0 4661 0 0 4678 0 0 4657 0 0 4800 0 0 4757 0 0 4776 0 0 4746 0 0 4804 0 0 4718 0 0 4794 0 0 4762 0 0 4690 0 0 4736 0 0 4711 0 0 4829 0 0 4773 0 0 4886 0 0 4722 0 0 4884 0 0 4763 0 0 4841 0 0 4814 0 0 4772 0 0 4804 0 0 4856 0 0 4760 0 0 4740 0 0 4705 0 0 4631 0 0 4795 0 0 4872 0 0 4752 0 0 4700 0 0 4646 0 0 4627 0 0 4520 0 0 4456 0 0 2456 0 0 432 0 0 313 0 0 270 0 0 233 0 0 179 0 0 154 0 0 143 0 0 119 0 0 106 0 0 
39 0 0 104 0 0 127 0 0 124 0 0 160 0 0 196 0 0 216 0 0 272 0 0 316 0 0 404 0 0 2462 0 0 4478 0 0 4492 0 0 4731 0 0 4648 0 0 4681 0 0 4675 0 0 4685 0 0 4791 0 0 4627 0 0 4784 0 0 4825 0 0 4829 0 0 4904 0 0 4861 0 0 4819 0 0 4732 0 0 4836 0 0 4813 0 0 4774 0 0 4740 0 0 4853 0 0 4833 0 0 4962 0 0 4845 0 0 4773 0 0 4840 0 0 4766 0 0 4839 0 0 4757 0 0 4703 0 0 4776 0 0 4728 0 0 4785 0 0 4717 0 0 4656 0 0 4673 0 0 4499 0 0 4627 0 0 4455 0 0 2457 0 0 418 0 0 310 0 0 254 0 0 222 0 0 180 0 0 170 0 0 129 0 0 119 0 0 100 0 0 
37 0 0 108 0 0 125 0 0 141 0 0 159 0 0 183 0 0 226 0 0 257 0 0 311 0 0 426 0 0 2399 0 0 4388 0 0 4561 0 0 4617 0 0 4685 0 0 4656 0 0 4704 0 0 4687 0 0 4737 0 0 4744 0 0 4808 0 0 4766 0 0 4806 0 0 4847 0 0 4807 0 0 4711 0 0 4847 0 0 4847 0 0 4748 0 0 4903 0 0 4738 0 0 4783 0 0 4831 0 0 4809 0 0 4771 0 0 4802 0 0 4710 0 0 4810 0 0 4748 0 0 4800 0 0 4802 0 0 4772 0 0 4823 0 0 4805 0 0 4790 0 0 4698 0 0 4561 0 0 4526 0 0 4542 0 0 4468 0 0 2445 0 0 420 0 0 326 0 0 259 0 0 223 0 0 181 0 0 160 0 0 141 0 0 115 0 0 109 0 0 
43 0 0 106 0 0 133 0 0 141 0 0 158 0 0 199 0 0 213 0 0 266 0 0 328 0 0 436 0 0 2424 0 0 4425 0 0 4601 0 0 4645 0 0 4674 0 0 4751 0 0 4660 0 0 4726 0 0 4728 0 0 4800 0 0 4853 0 0 4704 0 0 4848 0 0 4847 0 0 4796 0 0 4637 0 0 4860 0 0 4871 0 0 4814 0 0 4748 0 0 4798 0 0 4845 0 0 4865 0 0 4792 0 0 4841 0 0 4917 0 0 4697 0 0 4867 0 0 4859 0 0 4717 0 0 4871 0 0 4831 0 0 4737 0 0 4759 0 0 4709 0 0 4659 0 0 4636 0 0 4577 0 0 4583 0 0 4469 0 0 2488 0 0 401 0 0 315 0 0 258 0 0 209 0 0 185 0 0 155 0 0 134 0 0 129 0 0 108 0 0 
44 0 0 109 0 0 119 0 0 148 0 0 165 0 0 186 0 0 204 0 0 267 0 0 336 0 0 429 0 0 2449 0 0 4532 0 0 4525 0 0 4613 0 0 4665 0 0 4793 0 0 4723 0 0 4867 0 0 4709 0 0 4766 0 0 4873 0 0 4706 0 0 4674 0 0 4739 0 0 4711 0 0 4769 0 0 4830 0 0 4809 0 0 4768 0 0 4803 0 0 4801 0 0 4768 0 0 4818 0 0 4778 0 0 4755 0 0 4851 0 0 4806 0 0 4842 0 0 4840 0 0 4819 0 0 4760 0 0 4842 0 0 4699 0 0 4676 0 0 4654 0 0 4661 0 0 4595 0 0 4662 0 0 4497 0 0 4410 0 0 2438 0 0 438 0 0 337 0 0 261 0 0 216 0 0 198 0 0 157 0 0 147 0 0 131 0 0 117 0 0 
40 0 0 106 0 0 118 0 0 153 0 0 178 0 0 201 0 0 222 0 0 276 0 0 330 0 0 419 0 0 2455 0 0 4453 0 0 4571 0 0 4645 0 0 4706 0 0 4647 0 0 4737 0 0 4780 0 0 4841 0 0 4739 0 0 4691 0 0 4856 0 0 4727 0 0 4820 0 0 4889 0 0 4788 0 0 4794 0 0 4779 0 0 4861 0 0 4807 0 0 4887 0 0 4947 0 0 4880 0 0 4807 0 0 4812 0 0 4796 0 0 4815 0 0 4816 0 0 4724 0 0 4732 0 0 4758 0 0 4651 0 0 4834 0 0 4716 0 0 4585 0 0 4663 0 0 4755 0 0 4566 0 0 4412 0 0 4458 0 0 2447 0 0 423 0 0 338 0 0 257 0 0 233 0 0 205 0 0 163 0 0 137 0 0 128 0 0 104 0 0 
38 0 0 109 0 0 115 0 0 140 0 0 173 0 0 203 0 0 225 0 0 275 0 0 326 0 0 423 0 0 2416 0 0 4392 0 0 4521 0 0 4645 0 0 4607 0 0 4668 0 0 4752 0 0 4710 0 0 4707 0 0 4873 0 0 4794 0 0 4901 0 0 4816 0 0 4830 0 0 4764 0 0 4816 0 0 4849 0 0 4825 0 0 4871 0 0 4874 0 0 4921 0 0 4810 0 0 4719 0 0 4822 0 0 4724 0 0 4759 0 0 4873 0 0 4695 0 0 4655 0 0 4738 0 0 4718 0 0 4780 0 0 4755 0 0 4674 0 0 4675 0 0 4731 0 0 4693 0 0 4680 0 0 4591 0 0 4505 0 0 2481 0 0 433 0 0 327 0 0 273 0 0 230 0 0 201 0 0 160 0 0 144 0 0 122 0 0 108 0 0 
40 0 0 113 0 0 116 0 0 146 0 0 160 0 0 197 0 0 214 0 0 262 0 0 345 0 0 440 0 0 2461 0 0 4420 0 0 4634 0 0 4558 0 0 4665 0 0 4710 0 0 4624 0 0 4884 0 0 4737 0 0 4806 0 0 4801 0 0 4865 0 0 4812 0 0 4786 0 0 4749 0 0 4832 0 0 4825 0 0 4869 0 0 4849 0 0 4729 0 0 4858 0 0 4848 0 0 4726 0 0 4862 0 0 4762 0 0 4741 0 0 4806 0 0 4819 0 0 4711 0 0 4862 0 0 4713 0 0 4826 0 0 4722 0 0 4670 0 0 4738 0 0 4703 0 0 4624 0 0 4672 0 0 4546 0 0 4438 0 0 2439 0 0 400 0 0 332 0 0 268 0 0 236 0 0 195 0 0 169 0 0 152 0 0 125 0 0 104 0 0 
36 0 0 104 0 0 124 0 0 139 0 0 167 0 0 198 0 0 214 0 0 266 0 0 309 0 0 418 0 0 2418 0 0 4449 0 0 4547 0 0 4632 0 0 4637 0 0 4780 0 0 4731 0 0 4761 0 0 4766 0 0 4705 0 0 4756 0 0 4767 0 0 4758 0 0 4930 0 0 4811 0 0 4751 0 0 4786 0 0 4849 0 0 4792 0 0 4818 0 0 4766 0 0 4819 0 0 4787 0 0 4805 0 0 4795 0 0 4780 0 0 4750 0 0 4804 0 0 4714 0 0 4897 0 0 4693 0 0 4679 0 0 4641 0 0 4588 0 0 4718 0 0 4687 0 0 4695 0 0 4618 0 0 4636 0 0 4451 0 0 2491 0 0 439 0 0 317 0 0 274 0 0 223 0 0 191 0 0 173 0 0 150 0 0 125 0 0 110 0 0 
38 0 0 113 0 0 122 0 0 143 0 0 166 0 0 190 0 0 225 0 0 259 0 0 327 0 0 454 0 0 2392 0 0 4431 0 0 4454 0 0 4531 0 0 4665 0 0 4674 0 0 4849 0 0 4804 0 0 4769 0 0 4698 0 0 4745 0 0 4758 0 0 4724 0 0 4801 0 0 4853 0 0 4851 0 0 4802 0 0 4851 0 0 4645 0 0 4806 0 0 4788 0 0 4919 0 0 4875 0 0 4807 0 0 4793 0 0 4767 0 0 4815 0 0 4810 0 0 4815 0 0 4727 0 0 4871 0 0 4786 0 0 4713 0 0 4730 0 0 4693 0 0 4825 0 0 4684 0 0 4681 0 0 4494 0 0 4394 0 0 2443 0 0 410 0 0 318 0 0 277 0 0 217 0 0 196 0 0 170 0 0 137 0 0 126 0 0 105 0 0 
42 0 0 111 0 0 130 0 0 144 0 0 165 0 0 181 0 0 235 0 0 273 0 0 321 0 0 425 0 0 2468 0 0 4437 0 0 4440 0 0 4709 0 0 4610 0 0 4652 0 0 4690 0 0 4673 0 0 4717 0 0 4710 0 0 4742 0 0 4788 0 0 4756 0 0 4667 0 0 4786 0 0 4777 0 0 4841 0 0 4827 0 0 4672 0 0 4828 0 0 4824 0 0 4848 0 0 4828 0 0 4799 0 0 4765 0 0 4817 0 0 4879 0 0 4787 0 0 4746 0 0 4786 0 0 4774 0 0 4821 0 0 4630 0 0 4734 0 0 4737 0 0 4713 0 0 4658 0 0 4692 0 0 4583 0 0 4385 0 0 2370 0 0 423 0 0 331 0 0 273 0 0 225 0 0 192 0 0 178 0 0 142 0 0 121 0 0 106 0 0 
41 0 0 105 0 0 122 0 0 138 0 0 159 0 0 197 0 0 220 0 0 261 0 0 306 0 0 410 0 0 2416 0 0 4491 0 0 4551 0 0 4627 0 0 4622 0 0 4726 0 0 4617 0 0 4759 0 0 4688 0 0 4737 0 0 4752 0 0 4851 0 0 4782 0 0 4753 0 0 4790 0 0 4845 0 0 4872 0 0 4720 0 0 4764 0 0 4830 0 0 4840 0 0 4859 0 0 4784 0 0 4765 0 0 4799 0 0 4917 0 0 4748 0 0 4709 0 0 4782 0 0 4712 0 0 4785 0 0 4793 0 0 4608 0 0 4748 0 0 4738 0 0 4685 0 0 4679 0 0 4666 0 0 4539 0 0 4379 0 0 2421 0 0 439 0 0 356 0 0 272 0 0 223 0 0 195 0 0 173 0 0 139 0 0 123 0 0 108 0 0 
40 0 0 99 0 0 121 0 0 135 0 0 158 0 0 179 0 0 219 0 0 271 0 0 306 0 0 404 0 0 2394 0 0 4449 0 0 4520 0 0 4518 0 0 4728 0 0 4720 0 0 4734 0 0 4764 0 0 4630 0 0 4693 0 0 4921 0 0 4729 0 0 4769 0 0 4788 0 0 4870 0 0 4805 0 0 4865 0 0 4860 0 0 4714 0 0 4792 0 0 4863 0 0 4867 0 0 4774 0 0 4776 0 0 4753 0 0 4741 0 0 4855 0 0 4777 0 0 4928 0 0 4758 0 0 4656 0 0 4799 0 0 4766 0 0 4782 0 0 4693 0 0 4689 0 0 4601 0 0 4690 0 0 4530 0 0 4462 0 0 2489 0 0 417 0 0 340 0 0 270 0 0 231 0 0 182 0 0 160 0 0 136 0 0 121 0 0 109 0 0 
39 0 0 94 0 0 126 0 0 142 0 0 156 0 0 185 0 0 231 0 0 243 0 0 314 0 0 416 0 0 2455 0 0 4358 0 0 4476 0 0 4660 0 0 4670 0 0 4625 0 0 4646 0 0 4858 0 0 4764 0 0 4750 0 0 4686 0 0 4773 0 0 4833 0 0 4808 0 0 4773 0 0 4747 0 0 4818 0 0 4744 0 0 4700 0 0 4714 0 0 4835 0 0 4878 0 0 4820 0 0 4928 0 0 4736 0 0 4854 0 0 4808 0 0 4746 0 0 4729 0 0 4726 0 0 4775 0 0 4691 0 0 4756 0 0 4696 0 0 4734 0 0 4703 0 0 4652 0 0 4605 0 0 4565 0 0 4385 0 0 2371 0 0 405 0 0 306 0 0 279 0 0 215 0 0 177 0 0 156 0 0 137 0 0 120 0 0 109 0 0 
43 0 0 105 0 0 124 0 0 148 0 0 162 0 0 181 0 0 212 0 0 268 0 0 324 0 0 422 0 0 2456 0 0 4496 0 0 4563 0 0 4613 0 0 4665 0 0 4733 0 0 4738 0 0 4683 0 0 4830 0 0 4688 0 0 4686 0 0 4782 0 0 4825 0 0 4734 0 0 4758 0 0 4811 0 0 4766 0 0 4770 0 0 4852 0 0 4852 0 0 4819 0 0 4799 0 0 4718 0 0 4856 0 0 4711 0 0 4695 0 0 4715 0 0 4794 0 0 4724 0 0 4802 0 0 4639 0 0 4747 0 0 4771 0 0 4759 0 0 4739 0 0 4613 0 0 4529 0 0 4557 0 0 4583 0 0 4422 0 0 2419 0 0 421 0 0 301 0 0 276 0 0 231 0 0 190 0 0 162 0 0 139 0 0 121 0 0 104 0 0 
39 0 0 92 0 0 115 0 0 133 0 0 160 0 0 189 0 0 215 0 0 241 0 0 319 0 0 403 0 0 2456 0 0 4364 0 0 4514 0 0 4572 0 0 4616 0 0 4604 0 0 4648 0 0 4686 0 0 4721 0 0 4732 0 0 4654 0 0 4729 0 0 4787 0 0 4733 0 0 4851 0 0 4809 0 0 4735 0 0 4780 0 0 4835 0 0 4839 0 0 4766 0 0 4846 0 0 4835 0 0 4819 0 0 4766 0 0 4795 0 0 4821 0 0 4817 0 0 4731 0 0 4700 0 0 4769 0 0 4684 0 0 4776 0 0 4715 0 0 4684 0 0 4674 0 0 4577 0 0 4706 0 0 4494 0 0 4422 0 0 2394 0 0 432 0 0 323 0 0 253 0 0 211 0 0 182 0 0 150 0 0 136 0 0 112 0 0 101 0 0 
36 0 0 102 0 0 121 0 0 128 0 0 165 0 0 186 0 0 213 0 0 250 0 0 312 0 0 423 0 0 2459 0 0 4362 0 0 4555 0 0 4641 0 0 4624 0 0 4666 0 0 4696 0 0 4722 0 0 4765 0 0 4747 0 0 4817 0 0 4818 0 0 4731 0 0 4830 0 0 4783 0 0 4777 0 0 4732 0 0 4768 0 0 4802 0 0 4618 0 0 4805 0 0 4796 0 0 4764 0 0 4858 0 0 4722 0 0 4772 0 0 4918 0 0 4726 0 0 4793 0 0 4649 0 0 4663 0 0 4699 0 0 4737 0 0 4839 0 0 4730 0 0 4638 0 0 4583 0 0 4632 0 0 4560 0 0 4428 0 0 2348 0 0 434 0 0 320 0 0 241 0 0 213 0 0 180 0 0 149 0 0 126 0 0 107 0 0 97 0 0 
39 0 0 96 0 0 115 0 0 128 0 0 155 0 0 173 0 0 194 0 0 250 0 0 299 0 0 406 0 0 2368 0 0 4348 0 0 4396 0 0 4562 0 0 4650 0 0 4645 0 0 4641 0 0 4681 0 0 4739 0 0 4749 0 0 4701 0 0 4681 0 0 4732 0 0 4782 0 0 4729 0 0 4812 0 0 4729 0 0 4780 0 0 4701 0 0 4805 0 0 4755 0 0 4885 0 0 4749 0 0 4759 0 0 4727 0 0 4801 0 0 4785 0 0 4762 0 0 4691 0 0 4643 0 0 4720 0 0 4757 0 0 4681 0 0 4717 0 0 4699 0 0 4658 0 0 4719 0 0 4600 0 0 4512 0 0 4514 0 0 2391 0 0 391 0 0 313 0 0 252 0 0 212 0 0 167 0 0 148 0 0 119 0 0 119 0 0 99 0 0 
36 0 0 92 0 0 108 0 0 126 0 0 152 0 0 167 0 0 199 0 0 241 0 0 292 0 0 395 0 0 2383 0 0 4409 0 0 4602 0 0 4636 0 0 4601 0 0 4709 0 0 4694 0 0 4705 0 0 4657 0 0 4740 0 0 4725 0 0 4650 0 0 4688 0 0 4686 0 0 4589 0 0 4756 0 0 4779 0 0 4749 0 0 4746 0 0 4752 0 0 4820 0 0 4785 0 0 4773 0 0 4778 0 0 4661 0 0 4879 0 0 4743 0 0 4865 0 0 4756 0 0 4697 0 0 4736 0 0 4618 0 0 4625 0 0 4688 0 0 4568 0 0 4631 0 0 4587 0 0 4638 0 0 4514 0 0 4392 0 0 2470 0 0 387 0 0 296 0 0 247 0 0 198 0 0 180 0 0 136 0 0 134 0 0 110 0 0 97 0 0 
39 0 0 101 0 0 110 0 0 127 0 0 143 0 0 178 0 0 194 0 0 238 0 0 306 0 0 398 0 0 2439 0 0 4421 0 0 4365 0 0 4590 0 0 4633 0 0 4610 0 0 4621 0 0 4700 0 0 4666 0 0 4717 0 0 4728 0 0 4683 0 0 4664 0 0 4786 0 0 4741 0 0 4566 0 0 4702 0 0 4806 0 0 4763 0 0 4703 0 0 4730 0 0 4772 0 0 4850 0 0 4703 0 0 4681 0 0 4690 0 0 4722 0 0 4749 0 0 4677 0 0 4585 0 0 4695 0 0 4746 0 0 4614 0 0 4668 0 0 4484 0 0 4653 0 0 4583 0 0 4526 0 0 4502 0 0 4449 0 0 2461 0 0 386 0 0 300 0 0 245 0 0 221 0 0 166 0 0 138 0 0 129 0 0 114 0 0 96 0 0 
31 0 0 89 0 0 107 0 0 109 0 0 149 0 0 159 0 0 189 0 0 237 0 0 288 0 0 395 0 0 2421 0 0 4485 0 0 4591 0 0 4587 0 0 4603 0 0 4604 0 0 4644 0 0 4757 0 0 4757 0 0 4563 0 0 4723 0 0 4681 0 0 4697 0 0 4828 0 0 4742 0 0 4718 0 0 4782 0 0 4639 0 0 4741 0 0 4854 0 0 4664 0 0 4739 0 0 4721 0 0 4713 0 0 4672 0 0 4726 0 0 4749 0 0 4636 0 0 4620 0 0 4728 0 0 4641 0 0 4649 0 0 4655 0 0 4635 0 0 4740 0 0 4597 0 0 4552 0 0 4562 0 0 4526 0 0 4417 0 0 2414 0 0 376 0 0 282 0 0 235 0 0 191 0 0 170 0 0 136 0 0 117 0 0 103 0 0 90 0 0 
33 0 0 92 0 0 95 0 0 118 0 0 134 0 0 160 0 0 191 0 0 215 0 0 271 0 0 399 0 0 2377 0 0 4392 0 0 4468 0 0 4598 0 0 4581 0 0 4577 0 0 4618 0 0 4655 0 0 4614 0 0 4668 0 0 4645 0 0 4783 0 0 4610 0 0 4684 0 0 4725 0 0 4719 0 0 4661 0 0 4724 0 0 4698 0 0 4838 0 0 4665 0 0 4713 0 0 4802 0 0 4622 0 0 4713 0 0 4778 0 0 4682 0 0 4690 0 0 4707 0 0 4702 0 0 4785 0 0 4661 0 0 4725 0 0 4709 0 0 4632 0 0 4507 0 0 4531 0 0 4483 0 0 4523 0 0 4446 0 0 2350 0 0 352 0 0 292 0 0 237 0 0 193 0 0 160 0 0 145 0 0 109 0 0 100 0 0 94 0 0 
34 0 0 88 0 0 99 0 0 119 0 0 130 0 0 159 0 0 183 0 0 215 0 0 259 0 0 349 0 0 2392 0 0 4303 0 0 4422 0 0 4511 0 0 4560 0 0 4605 0 0 4622 0 0 4598 0 0 4577 0 0 4619 0 0 4677 0 0 4662 0 0 4655 0 0 4639 0 0 4637 0 0 4552 0 0 4750 0 0 4683 0 0 4660 0 0 4724 0 0 4719 0 0 4651 0 0 4635 0 0 4714 0 0 4661 0 0 4642 0 0 4577 0 0 4697 0 0 4683 0 0 4690 0 0 4647 0 0 4680 0 0 4706 0 0 4657 0 0 4652 0 0 4538 0 0 4505 0 0 4545 0 0 4470 0 0 4328 0 0 2401 0 0 373 0 0 278 0 0 239 0 0 195 0 0 166 0 0 127 0 0 105 0 0 95 0 0 82 0 0 
28 0 0 74 0 0 93 0 0 103 0 0 117 0 0 144 0 0 169 0 0 206 0 0 264 0 0 328 0 0 2379 0 0 4443 0 0 4462 0 0 4520 0 0 4527 0 0 4499 0 0 4563 0 0 4592 0 0 4518 0 0 4564 0 0 4645 0 0 4654 0 0 4580 0 0 4672 0 0 4736 0 0 4684 0 0 4619 0 0 4698 0 0 4662 0 0 4547 0 0 4698 0 0 4558 0 0 4564 0 0 4748 0 0 4736 0 0 4593 0 0 4610 0 0 4500 0 0 4619 0 0 4626 0 0 4622 0 0 4622 0 0 4573 0 0 4594 0 0 4645 0 0 4455 0 0 4522 0 0 4618 0 0 4435 0 0 4473 0 0 2438 0 0 342 0 0 252 0 0 206 0 0 187 0 0 148 0 0 126 0 0 112 0 0 97 0 0 80 0 0 
31 0 0 82 0 0 86 0 0 109 0 0 124 0 0 139 0 0 166 0 0 205 0 0 241 0 0 308 0 0 2310 0 0 4351 0 0 4418 0 0 4519 0 0 4577 0 0 4519 0 0 4538 0 0 4594 0 0 4493 0 0 4567 0 0 4472 0 0 4470 0 0 4543 0 0 4549 0 0 4684 0 0 4554 0 0 4522 0 0 4574 0 0 4602 0 0 4583 0 0 4613 0 0 4594 0 0 4705 0 0 4607 0 0 4597 0 0 4590 0 0 4648 0 0 4632 0 0 4554 0 0 4594 0 0 4630 0 0 4614 0 0 4529 0 0 4516 0 0 4505 0 0 4525 0 0 4462 0 0 4502 0 0 4385 0 0 4296 0 0 2329 0 0 333 0 0 235 0 0 195 0 0 169 0 0 140 0 0 121 0 0 112 0 0 96 0 0 79 0 0 
27 0 0 70 0 0 85 0 0 97 0 0 110 0 0 134 0 0 160 0 0 195 0 0 213 0 0 302 0 0 2305 0 0 4318 0 0 4365 0 0 4351 0 0 4366 0 0 4453 0 0 4456 0 0 4524 0 0 4495 0 0 4522 0 0 4533 0 0 4552 0 0 4463 0 0 4438 0 0 4451 0 0 4534 0 0 4570 0 0 4525 0 0 4548 0 0 4538 0 0 4582 0 0 4581 0 0 4541 0 0 4564 0 0 4582 0 0 4514 0 0 4611 0 0 4513 0 0 4548 0 0 4508 0 0 4484 0 0 4478 0 0 4490 0 0 4470 0 0 4427 0 0 4462 0 0 4408 0 0 4536 0 0 4333 0 0 4394 0 0 2317 0 0 310 0 0 224 0 0 184 0 0 156 0 0 131 0 0 118 0 0 97 0 0 83 0 0 71 0 0 
29 0 0 76 0 0 83 0 0 89 0 0 104 0 0 123 0 0 140 0 0 179 0 0 217 0 0 266 0 0 2262 0 0 4201 0 0 4289 0 0 4423 0 0 4291 0 0 4384 0 0 4443 0 0 4391 0 0 4445 0 0 4292 0 0 4462 0 0 4519 0 0 4430 0 0 4313 0 0 4402 0 0 4436 0 0 4348 0 0 4490 0 0 4539 0 0 4481 0 0 4401 0 0 4437 0 0 4494 0 0 4381 0 0 4400 0 0 4332 0 0 4391 0 0 4525 0 0 4441 0 0 4519 0 0 4323 0 0 4464 0 0 4362 0 0 4415 0 0 4340 0 0 4280 0 0 4397 0 0 4366 0 0 4316 0 0 4138 0 0 2213 0 0 280 0 0 201 0 0 163 0 0 143 0 0 127 0 0 98 0 0 94 0 0 81 0 0 70 0 0 
27 0 0 63 0 0 71 0 0 84 0 0 102 0 0 122 0 0 127 0 0 150 0 0 170 0 0 231 0 0 1274 0 0 2245 0 0 2337 0 0 2343 0 0 2318 0 0 2475 0 0 2381 0 0 2412 0 0 2388 0 0 2459 0 0 2389 0 0 2432 0 0 2413 0 0 2410 0 0 2404 0 0 2452 0 0 2423 0 0 2477 0 0 2412 0 0 2434 0 0 2457 0 0 2494 0 0 2447 0 0 2414 0 0 2417 0 0 2464 0 0 2423 0 0 2459 0 0 2417 0 0 2414 0 0 2435 0 0 2381 0 0 2360 0 0 2342 0 0 2418 0 0 2317 0 0 2351 0 0 2314 0 0 2327 0 0 2272 0 0 1237 0 0 232 0 0 191 0 0 145 0 0 128 0 0 105 0 0 96 0 0 89 0 0 79 0 0 69 0 0 
28 0 0 60 0 0 74 0 0 79 0 0 92 0 0 101 0 0 124 0 0 138 0 0 156 0 0 202 0 0 222 0 0 259 0 0 305 0 0 317 0 0 349 0 0 353 0 0 375 0 0 388 0 0 384 0 0 403 0 0 386 0 0 389 0 0 410 0 0 426 0 0 422 0 0 432 0 0 401 0 0 426 0 0 435 0 0 415 0 0 415 0 0 439 0 0 414 0 0 431 0 0 414 0 0 415 0 0 425 0 0 409 0 0 398 0 0 423 0 0 414 0 0 396 0 0 388 0 0 378 0 0 370 0 0 360 0 0 358 0 0 335 0 0 310 0 0 265 0 0 240 0 0 199 0 0 153 0 0 126 0 0 116 0 0 97 0 0 98 0 0 81 0 0 76 0 0 56 0 0 
23 0 0 59 0 0 70 0 0 83 0 0 88 0 0 98 0 0 101 0 0 119 0 0 140 0 0 145 0 0 175 0 0 200 0 0 239 0 0 237 0 0 258 0 0 271 0 0 282 0 0 288 0 0 296 0 0 302 0 0 305 0 0 309 0 0 317 0 0 318 0 0 326 0 0 319 0 0 322 0 0 335 0 0 339 0 0 326 0 0 321 0 0 339 0 0 314 0 0 321 0 0 326 0 0 315 0 0 313 0 0 324 0 0 325 0 0 314 0 0 314 0 0 299 0 0 314 0 0 281 0 0 267 0 0 276 0 0 270 0 0 242 0 0 228 0 0 211 0 0 183 0 0 164 0 0 150 0 0 125 0 0 108 0 0 95 0 0 88 0 0 75 0 0 66 0 0 56 0 0 
22 0 0 61 0 0 66 0 0 67 0 0 75 0 0 87 0 0 98 0 0 112 0 0 116 0 0 142 0 0 153 0 0 169 0 0 179 0 0 191 0 0 209 0 0 222 0 0 234 0 0 230 0 0 237 0 0 239 0 0 261 0 0 254 0 0 262 0 0 247 0 0 261 0 0 266 0 0 271 0 0 269 0 0 264 0 0 272 0 0 270 0 0 273 0 0 258 0 0 276 0 0 260 0 0 258 0 0 272 0 0 253 0 0 248 0 0 254 0 0 245 0 0 260 0 0 251 0 0 223 0 0 238 0 0 238 0 0 217 0 0 188 0 0 191 0 0 182 0 0 154 0 0 138 0 0 123 0 0 111 0 0 95 0 0 82 0 0 79 0 0 75 0 0 60 0 0 52 0 0 
20 0 0 56 0 0 56 0 0 71 0 0 81 0 0 76 0 0 90 0 0 100 0 0 105 0 0 121 0 0 135 0 0 138 0 0 154 0 0 157 0 0 167 0 0 197 0 0 189 0 0 194 0 0 199 0 0 205 0 0 200 0 0 210 0 0 209 0 0 229 0 0 226 0 0 219 0 0 223 0 0 224 0 0 227 0 0 228 0 0 221 0 0 219 0 0 234 0 0 237 0 0 216 0 0 219 0 0 223 0 0 223 0 0 217 0 0 210 0 0 207 0 0 215 0 0 196 0 0 194 0 0 185 0 0 181 0 0 179 0 0 160 0 0 166 0 0 145 0 0 133 0 0 124 0 0 108 0 0 95 0 0 93 0 0 78 0 0 66 0 0 71 0 0 52 0 0 56 0 0 
15 0 0 50 0 0 58 0 0 67 0 0 64 0 0 73 0 0 79 0 0 88 0 0 107 0 0 102 0 0 112 0 0 114 0 0 115 0 0 140 0 0 148 0 0 160 0 0 158 0 0 165 0 0 172 0 0 178 0 0 174 0 0 182 0 0 179 0 0 173 0 0 188 0 0 193 0 0 195 0 0 184 0 0 195 0 0 198 0 0 184 0 0 184 0 0 187 0 0 188 0 0 187 0 0 190 0 0 185 0 0 192 0 0 178 0 0 175 0 0 177 0 0 190 0 0 168 0 0 163 0 0 160 0 0 150 0 0 163 0 0 151 0 0 129 0 0 117 0 0 113 0 0 101 0 0 93 0 0 94 0 0 76 0 0 72 0 0 61 0 0 59 0 0 51 0 0 50 0 0 
19 0 0 41 0 0 48 0 0 60 0 0 58 0 0 62 0 0 72 0 0 77 0 0 89 0 0 94 0 0 103 0 0 92 0 0 110 0 0 119 0 0 133 0 0 127 0 0 130 0 0 152 0 0 151 0 0 141 0 0 154 0 0 160 0 0 152 0 0 162 0 0 151 0 0 164 0 0 177 0 0 162 0 0 182 0 0 170 0 0 161 0 0 168 0 0 160 0 0 162 0 0 156 0 0 167 0 0 164 0 0 157 0 0 156 0 0 151 0 0 147 0 0 146 0 0 138 0 0 144 0 0 131 0 0 137 0 0 123 0 0 112 0 0 109 0 0 109 0 0 100 0 0 88 0 0 76 0 0 85 0 0 73 0 0 62 0 0 60 0 0 52 0 0 49 0 0 45 0 0 
15 0 0 40 0 0 46 0 0 46 0 0 52 0 0 55 0 0 69 0 0 74 0 0 75 0 0 85 0 0 85 0 0 96 0 0 90 0 0 107 0 0 111 0 0 117 0 0 117 0 0 117 0 0 120 0 0 132 0 0 136 0 0 126 0 0 138 0 0 131 0 0 136 0 0 138 0 0 144 0 0 139 0 0 137 0 0 138 0 0 144 0 0 143 0 0 151 0 0 140 0 0 141 0 0 131 0 0 142 0 0 143 0 0 133 0 0 126 0 0 135 0 0 133 0 0 124 0 0 127 0 0 121 0 0 125 0 0 112 0 0 106 0 0 98 0 0 94 0 0 91 0 0 77 0 0 72 0 0 65 0 0 63 0 0 58 0 0 61 0 0 50 0 0 44 0 0 43 0 0 
16 0 0 37 0 0 44 0 0 45 0 0 49 0 0 52 0 0 57 0 0 64 0 0 73 0 0 71 0 0 77 0 0 74 0 0 91 0 0 94 0 0 96 0 0 99 0 0 109 0 0 107 0 0 107 0 0 120 0 0 110 0 0 111 0 0 113 0 0 119 0 0 125 0 0 118 0 0 121 0 0 131 0 0 122 0 0 121 0 0 118 0 0 113 0 0 124 0 0 130 0 0 131 0 0 121 0 0 129 0 0 115 0 0 123 0 0 115 0 0 119 0 0 110 0 0 99 0 0 109 0 0 108 0 0 94 0 0 102 0 0 91 0 0 84 0 0 83 0 0 76 0 0 68 0 0 65 0 0 62 0 0 59 0 0 54 0 0 52 0 0 48 0 0 39 0 0 40 0 0 
12 0 0 35 0 0 36 0 0 43 0 0 39 0 0 48 0 0 53 0 0 53 0 0 59 0 0 59 0 0 66 0 0 71 0 0 78 0 0 81 0 0 82 0 0 86 0 0 95 0 0 87 0 0 97 0 0 101 0 0 97 0 0 99 0 0 100 0 0 95 0 0 101 0 0 99 0 0 103 0 0 104 0 0 109 0 0 108 0 0 103 0 0 99 0 0 109 0 0 107 0 0 107 0 0 95 0 0 110 0 0 97 0 0 101 0 0 93 0 0 87 0 0 91 0 0 85 0 0 88 0 0 82 0 0 74 0 0 81 0 0 89 0 0 77 0 0 75 0 0 62 0 0 64 0 0 58 0 0 50 0 0 50 0 0 45 0 0 45 0 0 34 0 0 35 0 0 32 0 0 
