P3
# This is a dose file slice at depth 7 of 100
60 60
# now we give the maximum value of the RGB coordinates.
5876
4 0 0 10 0 0 10 0 0 12 0 0 13 0 0 14 0 0 12 0 0 14 0 0 16 0 0 17 0 0 20 0 0 18 0 0 18 0 0 21 0 0 18 0 0 22 0 0 21 0 0 19 0 0 24 0 0 22 0 0 22 0 0 28 0 0 25 0 0 30 0 0 24 0 0 25 0 0 28 0 0 27 0 0 27 0 0 26 0 0 26 0 0 27 0 0 29 0 0 27 0 0 26 0 0 23 0 0 27 0 0 26 0 0 25 0 0 23 0 0 26 0 0 24 0 0 25 0 0 24 0 0 22 0 0 20 0 0 19 0 0 19 0 0 20 0 0 18 0 0 16 0 0 18 0 0 14 0 0 16 0 0 14 0 0 12 0 0 12 0 0 12 0 0 12 0 0 11 0 0 
9 0 0 23 0 0 26 0 0 26 0 0 27 0 0 28 0 0 31 0 0 34 0 0 40 0 0 40 0 0 45 0 0 42 0 0 47 0 0 52 0 0 51 0 0 53 0 0 52 0 0 60 0 0 55 0 0 61 0 0 58 0 0 64 0 0 62 0 0 69 0 0 61 0 0 67 0 0 63 0 0 65 0 0 65 0 0 62 0 0 62 0 0 72 0 0 64 0 0 65 0 0 66 0 0 69 0 0 67 0 0 65 0 0 61 0 0 62 0 0 63 0 0 58 0 0 52 0 0 57 0 0 53 0 0 51 0 0 51 0 0 45 0 0 49 0 0 45 0 0 43 0 0 38 0 0 38 0 0 37 0 0 29 0 0 28 0 0 24 0 0 28 0 0 27 0 0 21 0 0 
10 0 0 25 0 0 31 0 0 31 0 0 28 0 0 36 0 0 38 0 0 37 0 0 42 0 0 45 0 0 51 0 0 50 0 0 54 0 0 58 0 0 52 0 0 55 0 0 62 0 0 60 0 0 64 0 0 67 0 0 66 0 0 71 0 0 71 0 0 66 0 0 72 0 0 72 0 0 69 0 0 75 0 0 77 0 0 81 0 0 75 0 0 76 0 0 78 0 0 76 0 0 76 0 0 74 0 0 75 0 0 69 0 0 71 0 0 67 0 0 67 0 0 69 0 0 66 0 0 68 0 0 60 0 0 58 0 0 56 0 0 56 0 0 55 0 0 50 0 0 44 0 0 46 0 0 43 0 0 39 0 0 34 0 0 33 0 0 34 0 0 30 0 0 27 0 0 26 0 0 
10 0 0 26 0 0 28 0 0 33 0 0 40 0 0 36 0 0 41 0 0 46 0 0 43 0 0 53 0 0 49 0 0 53 0 0 54 0 0 57 0 0 62 0 0 69 0 0 75 0 0 75 0 0 81 0 0 76 0 0 81 0 0 79 0 0 79 0 0 84 0 0 87 0 0 85 0 0 81 0 0 84 0 0 91 0 0 92 0 0 85 0 0 85 0 0 93 0 0 90 0 0 83 0 0 90 0 0 82 0 0 86 0 0 78 0 0 78 0 0 77 0 0 71 0 0 74 0 0 79 0 0 69 0 0 70 0 0 66 0 0 62 0 0 57 0 0 55 0 0 52 0 0 50 0 0 43 0 0 43 0 0 38 0 0 35 0 0 34 0 0 33 0 0 27 0 0 28 0 0 
12 0 0 27 0 0 30 0 0 34 0 0 40 0 0 43 0 0 41 0 0 45 0 0 57 0 0 57 0 0 59 0 0 64 0 0 71 0 0 70 0 0 77 0 0 74 0 0 84 0 0 84 0 0 82 0 0 81 0 0 94 0 0 94 0 0 92 0 0 94 0 0 91 0 0 90 0 0 91 0 0 92 0 0 99 0 0 100 0 0 90 0 0 95 0 0 98 0 0 94 0 0 98 0 0 100 0 0 97 0 0 93 0 0 92 0 0 87 0 0 87 0 0 86 0 0 80 0 0 79 0 0 82 0 0 73 0 0 69 0 0 65 0 0 59 0 0 65 0 0 57 0 0 59 0 0 54 0 0 48 0 0 46 0 0 41 0 0 33 0 0 33 0 0 31 0 0 28 0 0 
13 0 0 31 0 0 36 0 0 38 0 0 39 0 0 46 0 0 52 0 0 54 0 0 55 0 0 64 0 0 69 0 0 75 0 0 79 0 0 82 0 0 91 0 0 92 0 0 93 0 0 93 0 0 99 0 0 108 0 0 98 0 0 106 0 0 109 0 0 102 0 0 101 0 0 111 0 0 111 0 0 104 0 0 112 0 0 113 0 0 113 0 0 111 0 0 103 0 0 114 0 0 105 0 0 109 0 0 111 0 0 103 0 0 110 0 0 108 0 0 101 0 0 99 0 0 102 0 0 97 0 0 84 0 0 94 0 0 84 0 0 82 0 0 75 0 0 70 0 0 69 0 0 60 0 0 59 0 0 56 0 0 53 0 0 43 0 0 44 0 0 36 0 0 33 0 0 31 0 0 
15 0 0 33 0 0 37 0 0 41 0 0 42 0 0 47 0 0 53 0 0 61 0 0 73 0 0 74 0 0 79 0 0 86 0 0 99 0 0 101 0 0 100 0 0 107 0 0 110 0 0 113 0 0 115 0 0 123 0 0 119 0 0 120 0 0 129 0 0 127 0 0 123 0 0 130 0 0 129 0 0 132 0 0 133 0 0 122 0 0 126 0 0 134 0 0 133 0 0 130 0 0 132 0 0 123 0 0 128 0 0 125 0 0 131 0 0 124 0 0 119 0 0 111 0 0 117 0 0 116 0 0 110 0 0 101 0 0 101 0 0 96 0 0 82 0 0 82 0 0 74 0 0 72 0 0 66 0 0 63 0 0 54 0 0 45 0 0 44 0 0 42 0 0 41 0 0 34 0 0 
16 0 0 32 0 0 34 0 0 43 0 0 47 0 0 55 0 0 59 0 0 61 0 0 77 0 0 84 0 0 93 0 0 104 0 0 105 0 0 117 0 0 129 0 0 126 0 0 141 0 0 134 0 0 136 0 0 145 0 0 143 0 0 148 0 0 155 0 0 145 0 0 150 0 0 156 0 0 160 0 0 159 0 0 159 0 0 157 0 0 155 0 0 154 0 0 154 0 0 149 0 0 147 0 0 152 0 0 156 0 0 149 0 0 151 0 0 151 0 0 140 0 0 144 0 0 136 0 0 139 0 0 133 0 0 126 0 0 130 0 0 115 0 0 96 0 0 102 0 0 88 0 0 89 0 0 79 0 0 68 0 0 58 0 0 53 0 0 46 0 0 42 0 0 39 0 0 36 0 0 
15 0 0 38 0 0 40 0 0 50 0 0 52 0 0 60 0 0 70 0 0 72 0 0 86 0 0 91 0 0 110 0 0 118 0 0 144 0 0 128 0 0 162 0 0 164 0 0 170 0 0 165 0 0 175 0 0 179 0 0 179 0 0 172 0 0 186 0 0 188 0 0 193 0 0 189 0 0 192 0 0 188 0 0 199 0 0 196 0 0 194 0 0 184 0 0 198 0 0 201 0 0 195 0 0 188 0 0 187 0 0 193 0 0 195 0 0 183 0 0 180 0 0 182 0 0 171 0 0 170 0 0 165 0 0 157 0 0 151 0 0 152 0 0 141 0 0 119 0 0 113 0 0 94 0 0 86 0 0 73 0 0 64 0 0 57 0 0 54 0 0 45 0 0 41 0 0 42 0 0 
16 0 0 43 0 0 44 0 0 51 0 0 60 0 0 60 0 0 72 0 0 87 0 0 89 0 0 125 0 0 155 0 0 190 0 0 201 0 0 214 0 0 234 0 0 234 0 0 253 0 0 246 0 0 250 0 0 270 0 0 267 0 0 275 0 0 277 0 0 291 0 0 276 0 0 277 0 0 289 0 0 269 0 0 278 0 0 272 0 0 267 0 0 294 0 0 266 0 0 283 0 0 267 0 0 266 0 0 273 0 0 272 0 0 258 0 0 249 0 0 258 0 0 256 0 0 250 0 0 242 0 0 242 0 0 235 0 0 242 0 0 216 0 0 215 0 0 192 0 0 151 0 0 110 0 0 99 0 0 80 0 0 67 0 0 65 0 0 56 0 0 48 0 0 42 0 0 41 0 0 
17 0 0 39 0 0 50 0 0 56 0 0 62 0 0 65 0 0 75 0 0 94 0 0 111 0 0 150 0 0 1364 0 0 2665 0 0 2749 0 0 2638 0 0 2681 0 0 2749 0 0 2643 0 0 2651 0 0 2662 0 0 2664 0 0 2824 0 0 2730 0 0 2760 0 0 2720 0 0 2720 0 0 2736 0 0 2727 0 0 2701 0 0 2745 0 0 2763 0 0 2684 0 0 2713 0 0 2805 0 0 2689 0 0 2671 0 0 2756 0 0 2708 0 0 2814 0 0 2743 0 0 2690 0 0 2801 0 0 2712 0 0 2626 0 0 2790 0 0 2633 0 0 2756 0 0 2734 0 0 2707 0 0 2688 0 0 2578 0 0 1412 0 0 142 0 0 109 0 0 90 0 0 79 0 0 68 0 0 57 0 0 55 0 0 44 0 0 42 0 0 
19 0 0 42 0 0 51 0 0 55 0 0 68 0 0 76 0 0 84 0 0 105 0 0 124 0 0 193 0 0 2641 0 0 5054 0 0 5127 0 0 5057 0 0 5169 0 0 5110 0 0 5223 0 0 5188 0 0 5188 0 0 5172 0 0 5193 0 0 5134 0 0 5086 0 0 5095 0 0 5176 0 0 5134 0 0 5178 0 0 5172 0 0 5053 0 0 5199 0 0 5309 0 0 5182 0 0 5303 0 0 5187 0 0 5168 0 0 5203 0 0 5048 0 0 5176 0 0 5107 0 0 5253 0 0 5228 0 0 5218 0 0 5159 0 0 5160 0 0 5174 0 0 5252 0 0 5197 0 0 5237 0 0 5174 0 0 5089 0 0 2682 0 0 186 0 0 138 0 0 98 0 0 86 0 0 70 0 0 65 0 0 47 0 0 50 0 0 48 0 0 
17 0 0 49 0 0 52 0 0 56 0 0 67 0 0 77 0 0 88 0 0 106 0 0 138 0 0 223 0 0 2686 0 0 5166 0 0 5114 0 0 5167 0 0 5299 0 0 5107 0 0 5258 0 0 5103 0 0 5236 0 0 5172 0 0 5222 0 0 5262 0 0 5109 0 0 5215 0 0 5198 0 0 5345 0 0 5210 0 0 5317 0 0 5322 0 0 5253 0 0 5266 0 0 5237 0 0 5273 0 0 5296 0 0 5340 0 0 5178 0 0 5340 0 0 5280 0 0 5255 0 0 5203 0 0 5163 0 0 5194 0 0 5244 0 0 5193 0 0 5318 0 0 5122 0 0 5195 0 0 5155 0 0 5215 0 0 5152 0 0 2640 0 0 219 0 0 141 0 0 111 0 0 83 0 0 83 0 0 65 0 0 62 0 0 54 0 0 46 0 0 
17 0 0 52 0 0 50 0 0 64 0 0 70 0 0 79 0 0 103 0 0 118 0 0 137 0 0 242 0 0 2746 0 0 5207 0 0 5241 0 0 5166 0 0 5275 0 0 5248 0 0 5274 0 0 5258 0 0 5269 0 0 5295 0 0 5334 0 0 5185 0 0 5329 0 0 5285 0 0 5284 0 0 5250 0 0 5421 0 0 5326 0 0 5367 0 0 5235 0 0 5395 0 0 5365 0 0 5267 0 0 5263 0 0 5349 0 0 5459 0 0 5271 0 0 5438 0 0 5371 0 0 5321 0 0 5280 0 0 5210 0 0 5283 0 0 5270 0 0 5298 0 0 5273 0 0 5169 0 0 5172 0 0 5182 0 0 5256 0 0 2642 0 0 208 0 0 143 0 0 108 0 0 92 0 0 85 0 0 72 0 0 57 0 0 53 0 0 46 0 0 
19 0 0 51 0 0 61 0 0 66 0 0 71 0 0 87 0 0 104 0 0 120 0 0 152 0 0 233 0 0 2702 0 0 5121 0 0 5167 0 0 5213 0 0 5301 0 0 5397 0 0 5298 0 0 5317 0 0 5343 0 0 5387 0 0 5324 0 0 5298 0 0 5311 0 0 5156 0 0 5326 0 0 5304 0 0 5309 0 0 5300 0 0 5352 0 0 5363 0 0 5264 0 0 5482 0 0 5314 0 0 5379 0 0 5217 0 0 5377 0 0 5282 0 0 5452 0 0 5299 0 0 5391 0 0 5433 0 0 5320 0 0 5291 0 0 5295 0 0 5310 0 0 5355 0 0 5319 0 0 5221 0 0 5191 0 0 5175 0 0 2699 0 0 238 0 0 145 0 0 118 0 0 108 0 0 82 0 0 74 0 0 63 0 0 54 0 0 49 0 0 
22 0 0 55 0 0 67 0 0 63 0 0 78 0 0 96 0 0 95 0 0 125 0 0 170 0 0 251 0 0 2749 0 0 5122 0 0 5202 0 0 5197 0 0 5310 0 0 5362 0 0 5308 0 0 5335 0 0 5365 0 0 5266 0 0 5152 0 0 5309 0 0 5253 0 0 5359 0 0 5336 0 0 5360 0 0 5204 0 0 5422 0 0 5324 0 0 5329 0 0 5334 0 0 5282 0 0 5336 0 0 5458 0 0 5234 0 0 5367 0 0 5311 0 0 5274 0 0 5298 0 0 5396 0 0 5427 0 0 5302 0 0 5265 0 0 5343 0 0 5332 0 0 5423 0 0 5281 0 0 5195 0 0 5075 0 0 5126 0 0 2731 0 0 239 0 0 169 0 0 128 0 0 104 0 0 88 0 0 84 0 0 67 0 0 60 0 0 51 0 0 
22 0 0 55 0 0 60 0 0 74 0 0 83 0 0 92 0 0 121 0 0 127 0 0 152 0 0 266 0 0 2709 0 0 5097 0 0 5259 0 0 5248 0 0 5339 0 0 5294 0 0 5220 0 0 5293 0 0 5351 0 0 5422 0 0 5251 0 0 5325 0 0 5316 0 0 5355 0 0 5419 0 0 5431 0 0 5404 0 0 5305 0 0 5224 0 0 5436 0 0 5357 0 0 5215 0 0 5387 0 0 5286 0 0 5315 0 0 5377 0 0 5434 0 0 5407 0 0 5349 0 0 5400 0 0 5335 0 0 5321 0 0 5397 0 0 5316 0 0 5304 0 0 5374 0 0 5224 0 0 5201 0 0 5273 0 0 5101 0 0 2669 0 0 233 0 0 164 0 0 119 0 0 104 0 0 96 0 0 85 0 0 72 0 0 63 0 0 55 0 0 
24 0 0 59 0 0 63 0 0 69 0 0 80 0 0 95 0 0 120 0 0 133 0 0 170 0 0 245 0 0 2696 0 0 5149 0 0 5216 0 0 5232 0 0 5275 0 0 5392 0 0 5481 0 0 5360 0 0 5233 0 0 5258 0 0 5341 0 0 5322 0 0 5352 0 0 5462 0 0 5282 0 0 5413 0 0 5341 0 0 5391 0 0 5416 0 0 5388 0 0 5338 0 0 5424 0 0 5417 0 0 5354 0 0 5514 0 0 5368 0 0 5469 0 0 5375 0 0 5399 0 0 5327 0 0 5295 0 0 5338 0 0 5320 0 0 5276 0 0 5331 0 0 5341 0 0 5322 0 0 5358 0 0 5214 0 0 5204 0 0 2738 0 0 251 0 0 168 0 0 133 0 0 107 0 0 97 0 0 78 0 0 77 0 0 64 0 0 61 0 0 
22 0 0 60 0 0 63 0 0 71 0 0 86 0 0 101 0 0 115 0 0 140 0 0 170 0 0 237 0 0 2740 0 0 5235 0 0 5307 0 0 5268 0 0 5400 0 0 5306 0 0 5310 0 0 5380 0 0 5403 0 0 5256 0 0 5291 0 0 5365 0 0 5368 0 0 5385 0 0 5375 0 0 5410 0 0 5416 0 0 5430 0 0 5323 0 0 5437 0 0 5431 0 0 5340 0 0 5406 0 0 5445 0 0 5383 0 0 5337 0 0 5384 0 0 5423 0 0 5351 0 0 5357 0 0 5421 0 0 5339 0 0 5464 0 0 5399 0 0 5408 0 0 5349 0 0 5271 0 0 5281 0 0 5266 0 0 5175 0 0 2714 0 0 262 0 0 173 0 0 129 0 0 111 0 0 103 0 0 84 0 0 78 0 0 64 0 0 54 0 0 
26 0 0 56 0 0 65 0 0 76 0 0 91 0 0 90 0 0 116 0 0 138 0 0 178 0 0 243 0 0 2752 0 0 5164 0 0 5255 0 0 5255 0 0 5366 0 0 5275 0 0 5328 0 0 5386 0 0 5395 0 0 5287 0 0 5317 0 0 5412 0 0 5371 0 0 5398 0 0 5358 0 0 5505 0 0 5455 0 0 5387 0 0 5433 0 0 5509 0 0 5241 0 0 5405 0 0 5319 0 0 5324 0 0 5441 0 0 5403 0 0 5266 0 0 5399 0 0 5430 0 0 5270 0 0 5504 0 0 5337 0 0 5248 0 0 5320 0 0 5319 0 0 5370 0 0 5361 0 0 5195 0 0 5306 0 0 5056 0 0 2798 0 0 268 0 0 177 0 0 137 0 0 120 0 0 104 0 0 86 0 0 79 0 0 65 0 0 58 0 0 
27 0 0 62 0 0 70 0 0 79 0 0 94 0 0 100 0 0 116 0 0 150 0 0 179 0 0 273 0 0 2692 0 0 5140 0 0 5236 0 0 5287 0 0 5370 0 0 5335 0 0 5416 0 0 5203 0 0 5310 0 0 5362 0 0 5337 0 0 5312 0 0 5390 0 0 5421 0 0 5399 0 0 5407 0 0 5418 0 0 5302 0 0 5339 0 0 5368 0 0 5429 0 0 5483 0 0 5394 0 0 5446 0 0 5417 0 0 5284 0 0 5335 0 0 5392 0 0 5451 0 0 5333 0 0 5340 0 0 5382 0 0 5369 0 0 5309 0 0 5334 0 0 5313 0 0 5321 0 0 5288 0 0 5298 0 0 5235 0 0 2709 0 0 258 0 0 189 0 0 148 0 0 120 0 0 104 0 0 86 0 0 79 0 0 71 0 0 61 0 0 
26 0 0 64 0 0 68 0 0 79 0 0 91 0 0 107 0 0 122 0 0 136 0 0 185 0 0 262 0 0 2739 0 0 5187 0 0 5228 0 0 5448 0 0 5186 0 0 5270 0 0 5307 0 0 5367 0 0 5363 0 0 5323 0 0 5353 0 0 5529 0 0 5433 0 0 5368 0 0 5451 0 0 5435 0 0 5299 0 0 5366 0 0 5424 0 0 5400 0 0 5486 0 0 5367 0 0 5447 0 0 5377 0 0 5404 0 0 5310 0 0 5469 0 0 5374 0 0 5422 0 0 5367 0 0 5288 0 0 5294 0 0 5336 0 0 5440 0 0 5266 0 0 5303 0 0 5345 0 0 5268 0 0 5151 0 0 5179 0 0 2719 0 0 263 0 0 182 0 0 151 0 0 123 0 0 113 0 0 95 0 0 83 0 0 76 0 0 60 0 0 
27 0 0 68 0 0 72 0 0 78 0 0 93 0 0 105 0 0 127 0 0 153 0 0 194 0 0 257 0 0 2676 0 0 5146 0 0 5220 0 0 5394 0 0 5290 0 0 5408 0 0 5367 0 0 5371 0 0 5376 0 0 5288 0 0 5389 0 0 5518 0 0 5441 0 0 5337 0 0 5422 0 0 5336 0 0 5292 0 0 5313 0 0 5305 0 0 5323 0 0 5442 0 0 5310 0 0 5324 0 0 5513 0 0 5475 0 0 5380 0 0 5439 0 0 5370 0 0 5373 0 0 5545 0 0 5494 0 0 5422 0 0 5370 0 0 5329 0 0 5228 0 0 5293 0 0 5318 0 0 5313 0 0 5289 0 0 5134 0 0 2707 0 0 264 0 0 178 0 0 147 0 0 129 0 0 104 0 0 95 0 0 82 0 0 73 0 0 61 0 0 
25 0 0 66 0 0 76 0 0 78 0 0 94 0 0 107 0 0 123 0 0 156 0 0 192 0 0 262 0 0 2729 0 0 5110 0 0 5132 0 0 5344 0 0 5273 0 0 5400 0 0 5309 0 0 5358 0 0 5336 0 0 5372 0 0 5329 0 0 5462 0 0 5354 0 0 5424 0 0 5328 0 0 5405 0 0 5344 0 0 5492 0 0 5356 0 0 5504 0 0 5377 0 0 5349 0 0 5446 0 0 5349 0 0 5405 0 0 5332 0 0 5269 0 0 5382 0 0 5369 0 0 5355 0 0 5339 0 0 5384 0 0 5280 0 0 5322 0 0 5260 0 0 5344 0 0 5310 0 0 5317 0 0 5291 0 0 5213 0 0 2764 0 0 269 0 0 183 0 0 150 0 0 123 0 0 114 0 0 95 0 0 80 0 0 74 0 0 62 0 0 
24 0 0 64 0 0 77 0 0 79 0 0 96 0 0 108 0 0 128 0 0 150 0 0 195 0 0 259 0 0 2650 0 0 5245 0 0 5289 0 0 5196 0 0 5374 0 0 5310 0 0 5395 0 0 5407 0 0 5333 0 0 5308 0 0 5414 0 0 5396 0 0 5310 0 0 5332 0 0 5368 0 0 5370 0 0 5376 0 0 5392 0 0 5318 0 0 5355 0 0 5343 0 0 5451 0 0 5447 0 0 5316 0 0 5407 0 0 5473 0 0 5251 0 0 5446 0 0 5424 0 0 5400 0 0 5220 0 0 5502 0 0 5428 0 0 5414 0 0 5364 0 0 5356 0 0 5263 0 0 5220 0 0 5299 0 0 5178 0 0 2710 0 0 251 0 0 189 0 0 154 0 0 132 0 0 112 0 0 91 0 0 85 0 0 71 0 0 63 0 0 
28 0 0 63 0 0 72 0 0 82 0 0 99 0 0 106 0 0 121 0 0 139 0 0 184 0 0 263 0 0 2756 0 0 5057 0 0 5122 0 0 5311 0 0 5194 0 0 5379 0 0 5343 0 0 5380 0 0 5305 0 0 5301 0 0 5422 0 0 5480 0 0 5392 0 0 5375 0 0 5438 0 0 5395 0 0 5366 0 0 5363 0 0 5396 0 0 5474 0 0 5519 0 0 5447 0 0 5359 0 0 5406 0 0 5384 0 0 5458 0 0 5331 0 0 5442 0 0 5353 0 0 5400 0 0 5405 0 0 5409 0 0 5386 0 0 5345 0 0 5383 0 0 5377 0 0 5312 0 0 5356 0 0 5167 0 0 5135 0 0 2683 0 0 259 0 0 194 0 0 162 0 0 137 0 0 112 0 0 96 0 0 81 0 0 71 0 0 62 0 0 
24 0 0 68 0 0 74 0 0 82 0 0 87 0 0 109 0 0 129 0 0 158 0 0 182 0 0 276 0 0 2685 0 0 5233 0 0 5228 0 0 5335 0 0 5364 0 0 5349 0 0 5327 0 0 5279 0 0 5279 0 0 5263 0 0 5378 0 0 5391 0 0 5480 0 0 5426 0 0 5446 0 0 5434 0 0 5403 0 0 5453 0 0 5441 0 0 5522 0 0 5544 0 0 5481 0 0 5322 0 0 5336 0 0 5388 0 0 5409 0 0 5429 0 0 5366 0 0 5308 0 0 5432 0 0 5419 0 0 5445 0 0 5375 0 0 5401 0 0 5327 0 0 5357 0 0 5455 0 0 5281 0 0 5158 0 0 5318 0 0 2755 0 0 285 0 0 179 0 0 151 0 0 130 0 0 112 0 0 96 0 0 84 0 0 73 0 0 60 0 0 
27 0 0 65 0 0 73 0 0 84 0 0 101 0 0 115 0 0 132 0 0 149 0 0 191 0 0 276 0 0 2679 0 0 5173 0 0 5142 0 0 5294 0 0 5354 0 0 5415 0 0 5284 0 0 5279 0 0 5203 0 0 5451 0 0 5381 0 0 5359 0 0 5442 0 0 5340 0 0 5433 0 0 5434 0 0 5424 0 0 5472 0 0 5426 0 0 5348 0 0 5434 0 0 5493 0 0 5456 0 0 5380 0 0 5419 0 0 5407 0 0 5355 0 0 5403 0 0 5366 0 0 5542 0 0 5535 0 0 5278 0 0 5357 0 0 5410 0 0 5427 0 0 5318 0 0 5350 0 0 5262 0 0 5224 0 0 5259 0 0 2683 0 0 275 0 0 194 0 0 155 0 0 136 0 0 109 0 0 89 0 0 87 0 0 75 0 0 63 0 0 
27 0 0 67 0 0 74 0 0 85 0 0 97 0 0 113 0 0 131 0 0 165 0 0 194 0 0 272 0 0 2680 0 0 5202 0 0 5218 0 0 5357 0 0 5343 0 0 5313 0 0 5301 0 0 5430 0 0 5421 0 0 5433 0 0 5356 0 0 5397 0 0 5296 0 0 5398 0 0 5320 0 0 5444 0 0 5375 0 0 5589 0 0 5471 0 0 5391 0 0 5407 0 0 5552 0 0 5569 0 0 5420 0 0 5316 0 0 5446 0 0 5477 0 0 5410 0 0 5400 0 0 5384 0 0 5398 0 0 5449 0 0 5400 0 0 5324 0 0 5398 0 0 5363 0 0 5268 0 0 5386 0 0 5276 0 0 5275 0 0 2703 0 0 280 0 0 186 0 0 155 0 0 127 0 0 108 0 0 92 0 0 81 0 0 76 0 0 69 0 0 
27 0 0 68 0 0 71 0 0 85 0 0 105 0 0 112 0 0 124 0 0 147 0 0 191 0 0 264 0 0 2781 0 0 5244 0 0 5388 0 0 5290 0 0 5318 0 0 5358 0 0 5412 0 0 5397 0 0 5411 0 0 5403 0 0 5418 0 0 5433 0 0 5499 0 0 5423 0 0 5496 0 0 5444 0 0 5433 0 0 5383 0 0 5356 0 0 5337 0 0 5362 0 0 5425 0 0 5519 0 0 5415 0 0 5389 0 0 5399 0 0 5408 0 0 5341 0 0 5441 0 0 5388 0 0 5424 0 0 5373 0 0 5427 0 0 5456 0 0 5378 0 0 5309 0 0 5402 0 0 5379 0 0 5277 0 0 5207 0 0 2765 0 0 267 0 0 202 0 0 157 0 0 131 0 0 111 0 0 95 0 0 87 0 0 79 0 0 68 0 0 
26 0 0 67 0 0 74 0 0 93 0 0 97 0 0 115 0 0 125 0 0 158 0 0 196 0 0 254 0 0 2776 0 0 5238 0 0 5216 0 0 5232 0 0 5292 0 0 5363 0 0 5317 0 0 5492 0 0 5428 0 0 5444 0 0 5367 0 0 5402 0 0 5485 0 0 5432 0 0 5400 0 0 5447 0 0 5411 0 0 5449 0 0 5380 0 0 5440 0 0 5381 0 0 5428 0 0 5374 0 0 5402 0 0 5362 0 0 5464 0 0 5388 0 0 5442 0 0 5370 0 0 5426 0 0 5427 0 0 5398 0 0 5427 0 0 5358 0 0 5389 0 0 5406 0 0 5335 0 0 5333 0 0 5273 0 0 5005 0 0 2777 0 0 270 0 0 198 0 0 145 0 0 132 0 0 108 0 0 101 0 0 82 0 0 76 0 0 63 0 0 
25 0 0 61 0 0 76 0 0 89 0 0 101 0 0 113 0 0 126 0 0 166 0 0 187 0 0 275 0 0 2705 0 0 5199 0 0 5301 0 0 5309 0 0 5347 0 0 5435 0 0 5309 0 0 5420 0 0 5456 0 0 5452 0 0 5402 0 0 5427 0 0 5363 0 0 5377 0 0 5396 0 0 5364 0 0 5421 0 0 5406 0 0 5488 0 0 5448 0 0 5453 0 0 5424 0 0 5360 0 0 5413 0 0 5392 0 0 5331 0 0 5462 0 0 5379 0 0 5476 0 0 5460 0 0 5517 0 0 5325 0 0 5267 0 0 5225 0 0 5362 0 0 5389 0 0 5300 0 0 5303 0 0 5421 0 0 5045 0 0 2682 0 0 272 0 0 192 0 0 151 0 0 124 0 0 113 0 0 105 0 0 90 0 0 77 0 0 67 0 0 
28 0 0 67 0 0 75 0 0 79 0 0 98 0 0 113 0 0 132 0 0 156 0 0 197 0 0 268 0 0 2698 0 0 5272 0 0 5297 0 0 5332 0 0 5318 0 0 5329 0 0 5218 0 0 5489 0 0 5270 0 0 5342 0 0 5374 0 0 5440 0 0 5399 0 0 5407 0 0 5387 0 0 5379 0 0 5408 0 0 5485 0 0 5434 0 0 5507 0 0 5342 0 0 5447 0 0 5355 0 0 5369 0 0 5535 0 0 5404 0 0 5427 0 0 5483 0 0 5386 0 0 5418 0 0 5341 0 0 5403 0 0 5391 0 0 5407 0 0 5317 0 0 5309 0 0 5266 0 0 5276 0 0 5239 0 0 5267 0 0 2713 0 0 266 0 0 198 0 0 152 0 0 126 0 0 114 0 0 98 0 0 85 0 0 69 0 0 69 0 0 
29 0 0 59 0 0 77 0 0 82 0 0 98 0 0 114 0 0 126 0 0 150 0 0 198 0 0 281 0 0 2765 0 0 5122 0 0 5220 0 0 5246 0 0 5280 0 0 5319 0 0 5360 0 0 5333 0 0 5467 0 0 5367 0 0 5389 0 0 5384 0 0 5401 0 0 5372 0 0 5466 0 0 5397 0 0 5397 0 0 5362 0 0 5288 0 0 5423 0 0 5311 0 0 5333 0 0 5540 0 0 5442 0 0 5419 0 0 5349 0 0 5366 0 0 5415 0 0 5389 0 0 5348 0 0 5337 0 0 5389 0 0 5488 0 0 5325 0 0 5288 0 0 5319 0 0 5371 0 0 5369 0 0 5211 0 0 5145 0 0 2727 0 0 268 0 0 196 0 0 153 0 0 127 0 0 107 0 0 97 0 0 79 0 0 71 0 0 66 0 0 
28 0 0 69 0 0 69 0 0 87 0 0 96 0 0 115 0 0 120 0 0 152 0 0 196 0 0 270 0 0 2723 0 0 5298 0 0 5184 0 0 5258 0 0 5351 0 0 5408 0 0 5540 0 0 5301 0 0 5459 0 0 5324 0 0 5285 0 0 5386 0 0 5315 0 0 5427 0 0 5404 0 0 5338 0 0 5521 0 0 5360 0 0 5445 0 0 5512 0 0 5385 0 0 5500 0 0 5383 0 0 5399 0 0 5431 0 0 5420 0 0 5490 0 0 5464 0 0 5406 0 0 5450 0 0 5320 0 0 5338 0 0 5324 0 0 5369 0 0 5226 0 0 5399 0 0 5265 0 0 5353 0 0 5266 0 0 5096 0 0 2713 0 0 259 0 0 196 0 0 148 0 0 127 0 0 107 0 0 95 0 0 82 0 0 74 0 0 66 0 0 
27 0 0 67 0 0 79 0 0 79 0 0 94 0 0 106 0 0 126 0 0 152 0 0 185 0 0 269 0 0 2680 0 0 5258 0 0 5203 0 0 5252 0 0 5306 0 0 5295 0 0 5467 0 0 5369 0 0 5325 0 0 5508 0 0 5390 0 0 5324 0 0 5408 0 0 5379 0 0 5336 0 0 5402 0 0 5472 0 0 5466 0 0 5393 0 0 5357 0 0 5498 0 0 5447 0 0 5468 0 0 5514 0 0 5435 0 0 5384 0 0 5544 0 0 5202 0 0 5282 0 0 5378 0 0 5426 0 0 5425 0 0 5374 0 0 5321 0 0 5393 0 0 5417 0 0 5335 0 0 5484 0 0 5204 0 0 5161 0 0 2689 0 0 282 0 0 184 0 0 143 0 0 128 0 0 110 0 0 96 0 0 87 0 0 75 0 0 66 0 0 
25 0 0 67 0 0 72 0 0 85 0 0 96 0 0 105 0 0 125 0 0 157 0 0 191 0 0 285 0 0 2709 0 0 5141 0 0 5195 0 0 5272 0 0 5321 0 0 5472 0 0 5341 0 0 5360 0 0 5417 0 0 5380 0 0 5279 0 0 5400 0 0 5495 0 0 5433 0 0 5485 0 0 5420 0 0 5332 0 0 5438 0 0 5315 0 0 5351 0 0 5530 0 0 5440 0 0 5455 0 0 5371 0 0 5383 0 0 5388 0 0 5445 0 0 5289 0 0 5434 0 0 5371 0 0 5386 0 0 5334 0 0 5366 0 0 5373 0 0 5366 0 0 5382 0 0 5307 0 0 5362 0 0 5328 0 0 5260 0 0 2752 0 0 280 0 0 178 0 0 161 0 0 132 0 0 109 0 0 95 0 0 83 0 0 73 0 0 66 0 0 
26 0 0 65 0 0 66 0 0 82 0 0 93 0 0 111 0 0 126 0 0 156 0 0 184 0 0 272 0 0 2702 0 0 5157 0 0 5309 0 0 5319 0 0 5328 0 0 5369 0 0 5328 0 0 5387 0 0 5333 0 0 5325 0 0 5277 0 0 5431 0 0 5369 0 0 5405 0 0 5427 0 0 5385 0 0 5340 0 0 5331 0 0 5397 0 0 5364 0 0 5355 0 0 5264 0 0 5455 0 0 5471 0 0 5454 0 0 5436 0 0 5285 0 0 5485 0 0 5379 0 0 5434 0 0 5417 0 0 5317 0 0 5395 0 0 5383 0 0 5373 0 0 5296 0 0 5342 0 0 5301 0 0 5227 0 0 5153 0 0 2775 0 0 243 0 0 194 0 0 145 0 0 120 0 0 106 0 0 97 0 0 82 0 0 71 0 0 66 0 0 
22 0 0 64 0 0 68 0 0 81 0 0 88 0 0 102 0 0 123 0 0 141 0 0 185 0 0 253 0 0 2675 0 0 5281 0 0 5144 0 0 5335 0 0 5319 0 0 5354 0 0 5316 0 0 5366 0 0 5428 0 0 5448 0 0 5421 0 0 5377 0 0 5493 0 0 5402 0 0 5386 0 0 5507 0 0 5406 0 0 5434 0 0 5424 0 0 5460 0 0 5440 0 0 5385 0 0 5387 0 0 5361 0 0 5275 0 0 5471 0 0 5494 0 0 5521 0 0 5351 0 0 5381 0 0 5438 0 0 5371 0 0 5299 0 0 5351 0 0 5390 0 0 5288 0 0 5300 0 0 5264 0 0 5252 0 0 5129 0 0 2773 0 0 278 0 0 192 0 0 149 0 0 125 0 0 107 0 0 85 0 0 79 0 0 73 0 0 62 0 0 
25 0 0 64 0 0 68 0 0 81 0 0 97 0 0 103 0 0 124 0 0 148 0 0 196 0 0 279 0 0 2842 0 0 5274 0 0 5291 0 0 5211 0 0 5248 0 0 5368 0 0 5363 0 0 5370 0 0 5406 0 0 5326 0 0 5312 0 0 5356 0 0 5407 0 0 5382 0 0 5518 0 0 5366 0 0 5540 0 0 5500 0 0 5369 0 0 5348 0 0 5273 0 0 5445 0 0 5392 0 0 5408 0 0 5338 0 0 5385 0 0 5289 0 0 5429 0 0 5374 0 0 5318 0 0 5470 0 0 5430 0 0 5342 0 0 5351 0 0 5289 0 0 5245 0 0 5371 0 0 5274 0 0 5221 0 0 5239 0 0 2681 0 0 269 0 0 183 0 0 158 0 0 122 0 0 105 0 0 85 0 0 78 0 0 67 0 0 61 0 0 
24 0 0 59 0 0 67 0 0 79 0 0 85 0 0 99 0 0 123 0 0 136 0 0 175 0 0 250 0 0 2733 0 0 5062 0 0 5321 0 0 5275 0 0 5366 0 0 5326 0 0 5246 0 0 5202 0 0 5382 0 0 5371 0 0 5424 0 0 5334 0 0 5461 0 0 5327 0 0 5408 0 0 5377 0 0 5409 0 0 5446 0 0 5356 0 0 5311 0 0 5375 0 0 5285 0 0 5371 0 0 5387 0 0 5367 0 0 5330 0 0 5363 0 0 5320 0 0 5428 0 0 5389 0 0 5396 0 0 5272 0 0 5317 0 0 5284 0 0 5365 0 0 5279 0 0 5315 0 0 5173 0 0 5249 0 0 5257 0 0 2764 0 0 273 0 0 170 0 0 151 0 0 118 0 0 101 0 0 92 0 0 71 0 0 68 0 0 56 0 0 
23 0 0 59 0 0 63 0 0 73 0 0 89 0 0 88 0 0 116 0 0 147 0 0 186 0 0 266 0 0 2695 0 0 5102 0 0 5216 0 0 5191 0 0 5244 0 0 5221 0 0 5303 0 0 5332 0 0 5327 0 0 5421 0 0 5387 0 0 5474 0 0 5338 0 0 5428 0 0 5327 0 0 5454 0 0 5392 0 0 5433 0 0 5491 0 0 5419 0 0 5381 0 0 5384 0 0 5356 0 0 5375 0 0 5396 0 0 5467 0 0 5451 0 0 5304 0 0 5258 0 0 5411 0 0 5344 0 0 5325 0 0 5337 0 0 5265 0 0 5362 0 0 5358 0 0 5373 0 0 5289 0 0 5284 0 0 5181 0 0 2738 0 0 257 0 0 182 0 0 144 0 0 114 0 0 101 0 0 83 0 0 78 0 0 68 0 0 59 0 0 
21 0 0 53 0 0 66 0 0 70 0 0 85 0 0 102 0 0 110 0 0 145 0 0 172 0 0 252 0 0 2804 0 0 5134 0 0 5161 0 0 5380 0 0 5267 0 0 5269 0 0 5345 0 0 5299 0 0 5255 0 0 5336 0 0 5339 0 0 5259 0 0 5473 0 0 5324 0 0 5371 0 0 5262 0 0 5407 0 0 5365 0 0 5418 0 0 5405 0 0 5465 0 0 5413 0 0 5439 0 0 5296 0 0 5302 0 0 5415 0 0 5311 0 0 5391 0 0 5417 0 0 5266 0 0 5272 0 0 5323 0 0 5419 0 0 5455 0 0 5301 0 0 5331 0 0 5288 0 0 5348 0 0 5248 0 0 5207 0 0 2708 0 0 278 0 0 173 0 0 142 0 0 112 0 0 98 0 0 87 0 0 78 0 0 68 0 0 58 0 0 
22 0 0 59 0 0 59 0 0 73 0 0 82 0 0 94 0 0 118 0 0 141 0 0 172 0 0 261 0 0 2666 0 0 5094 0 0 5122 0 0 5323 0 0 5349 0 0 5232 0 0 5313 0 0 5402 0 0 5373 0 0 5413 0 0 5325 0 0 5392 0 0 5388 0 0 5390 0 0 5315 0 0 5340 0 0 5299 0 0 5339 0 0 5342 0 0 5356 0 0 5399 0 0 5366 0 0 5412 0 0 5392 0 0 5427 0 0 5282 0 0 5402 0 0 5294 0 0 5479 0 0 5288 0 0 5259 0 0 5311 0 0 5310 0 0 5301 0 0 5339 0 0 5198 0 0 5309 0 0 5350 0 0 5235 0 0 5069 0 0 2742 0 0 255 0 0 167 0 0 145 0 0 112 0 0 94 0 0 76 0 0 73 0 0 64 0 0 59 0 0 
19 0 0 60 0 0 63 0 0 69 0 0 79 0 0 92 0 0 105 0 0 134 0 0 165 0 0 235 0 0 2605 0 0 5230 0 0 5175 0 0 5269 0 0 5237 0 0 5402 0 0 5173 0 0 5383 0 0 5361 0 0 5311 0 0 5371 0 0 5403 0 0 5294 0 0 5335 0 0 5343 0 0 5366 0 0 5223 0 0 5397 0 0 5439 0 0 5339 0 0 5423 0 0 5328 0 0 5373 0 0 5419 0 0 5334 0 0 5480 0 0 5297 0 0 5274 0 0 5354 0 0 5470 0 0 5274 0 0 5306 0 0 5336 0 0 5234 0 0 5373 0 0 5311 0 0 5180 0 0 5269 0 0 5252 0 0 5195 0 0 2751 0 0 245 0 0 165 0 0 130 0 0 111 0 0 86 0 0 83 0 0 65 0 0 62 0 0 58 0 0 
21 0 0 54 0 0 57 0 0 62 0 0 71 0 0 93 0 0 105 0 0 127 0 0 165 0 0 235 0 0 2670 0 0 5211 0 0 5216 0 0 5295 0 0 5252 0 0 5315 0 0 5279 0 0 5348 0 0 5300 0 0 5296 0 0 5367 0 0 5365 0 0 5190 0 0 5376 0 0 5354 0 0 5486 0 0 5326 0 0 5329 0 0 5349 0 0 5348 0 0 5327 0 0 5258 0 0 5363 0 0 5345 0 0 5285 0 0 5203 0 0 5282 0 0 5238 0 0 5346 0 0 5132 0 0 5317 0 0 5470 0 0 5288 0 0 5350 0 0 5366 0 0 5387 0 0 5231 0 0 5300 0 0 5189 0 0 5101 0 0 2625 0 0 241 0 0 160 0 0 127 0 0 107 0 0 94 0 0 71 0 0 65 0 0 59 0 0 53 0 0 
21 0 0 51 0 0 57 0 0 64 0 0 75 0 0 92 0 0 103 0 0 123 0 0 164 0 0 250 0 0 2675 0 0 5253 0 0 5155 0 0 5220 0 0 5299 0 0 5248 0 0 5366 0 0 5244 0 0 5259 0 0 5334 0 0 5268 0 0 5324 0 0 5319 0 0 5269 0 0 5364 0 0 5279 0 0 5291 0 0 5365 0 0 5384 0 0 5384 0 0 5255 0 0 5321 0 0 5367 0 0 5264 0 0 5398 0 0 5265 0 0 5388 0 0 5320 0 0 5266 0 0 5300 0 0 5402 0 0 5300 0 0 5288 0 0 5248 0 0 5247 0 0 5289 0 0 5205 0 0 5195 0 0 5241 0 0 5067 0 0 2717 0 0 235 0 0 156 0 0 119 0 0 104 0 0 85 0 0 73 0 0 67 0 0 55 0 0 48 0 0 
20 0 0 44 0 0 52 0 0 60 0 0 70 0 0 74 0 0 97 0 0 115 0 0 140 0 0 224 0 0 2699 0 0 5121 0 0 5225 0 0 5304 0 0 5197 0 0 5225 0 0 5266 0 0 5294 0 0 5232 0 0 5286 0 0 5295 0 0 5237 0 0 5285 0 0 5362 0 0 5280 0 0 5229 0 0 5188 0 0 5367 0 0 5222 0 0 5298 0 0 5282 0 0 5198 0 0 5346 0 0 5222 0 0 5252 0 0 5429 0 0 5342 0 0 5347 0 0 5284 0 0 5264 0 0 5374 0 0 5210 0 0 5259 0 0 5260 0 0 5179 0 0 5288 0 0 5304 0 0 5166 0 0 5136 0 0 5097 0 0 2624 0 0 218 0 0 149 0 0 112 0 0 98 0 0 83 0 0 73 0 0 68 0 0 56 0 0 49 0 0 
20 0 0 44 0 0 54 0 0 61 0 0 67 0 0 75 0 0 98 0 0 110 0 0 135 0 0 221 0 0 2666 0 0 5162 0 0 5125 0 0 5228 0 0 5286 0 0 5197 0 0 5182 0 0 5268 0 0 5195 0 0 5220 0 0 5228 0 0 5388 0 0 5290 0 0 5282 0 0 5330 0 0 5280 0 0 5265 0 0 5310 0 0 5139 0 0 5140 0 0 5269 0 0 5272 0 0 5179 0 0 5256 0 0 5322 0 0 5232 0 0 5140 0 0 5115 0 0 5293 0 0 5262 0 0 5220 0 0 5333 0 0 5348 0 0 5258 0 0 5308 0 0 5220 0 0 5163 0 0 5236 0 0 5275 0 0 5121 0 0 2576 0 0 206 0 0 150 0 0 108 0 0 98 0 0 76 0 0 67 0 0 61 0 0 51 0 0 46 0 0 
20 0 0 47 0 0 53 0 0 59 0 0 64 0 0 68 0 0 86 0 0 96 0 0 126 0 0 192 0 0 2592 0 0 5016 0 0 5068 0 0 5054 0 0 5182 0 0 5297 0 0 5257 0 0 5093 0 0 5160 0 0 5203 0 0 5070 0 0 5187 0 0 5160 0 0 5261 0 0 5158 0 0 5302 0 0 5136 0 0 5220 0 0 5233 0 0 5118 0 0 5335 0 0 5215 0 0 5231 0 0 5132 0 0 5185 0 0 5189 0 0 5157 0 0 5243 0 0 5178 0 0 5196 0 0 5200 0 0 5202 0 0 5159 0 0 5066 0 0 5119 0 0 5140 0 0 5062 0 0 5188 0 0 5152 0 0 5051 0 0 2626 0 0 190 0 0 130 0 0 103 0 0 82 0 0 75 0 0 61 0 0 52 0 0 51 0 0 45 0 0 
19 0 0 47 0 0 48 0 0 54 0 0 60 0 0 70 0 0 78 0 0 88 0 0 115 0 0 161 0 0 1401 0 0 2591 0 0 2615 0 0 2633 0 0 2724 0 0 2675 0 0 2647 0 0 2696 0 0 2697 0 0 2704 0 0 2695 0 0 2711 0 0 2721 0 0 2723 0 0 2715 0 0 2720 0 0 2686 0 0 2796 0 0 2710 0 0 2691 0 0 2714 0 0 2749 0 0 2687 0 0 2700 0 0 2731 0 0 2724 0 0 2740 0 0 2714 0 0 2725 0 0 2761 0 0 2700 0 0 2702 0 0 2771 0 0 2704 0 0 2752 0 0 2674 0 0 2682 0 0 2633 0 0 2670 0 0 2693 0 0 1409 0 0 141 0 0 103 0 0 94 0 0 73 0 0 66 0 0 55 0 0 53 0 0 46 0 0 40 0 0 
18 0 0 41 0 0 41 0 0 52 0 0 55 0 0 64 0 0 80 0 0 83 0 0 100 0 0 111 0 0 144 0 0 198 0 0 209 0 0 216 0 0 238 0 0 246 0 0 246 0 0 261 0 0 239 0 0 256 0 0 260 0 0 264 0 0 277 0 0 275 0 0 269 0 0 264 0 0 267 0 0 281 0 0 275 0 0 290 0 0 290 0 0 290 0 0 269 0 0 277 0 0 278 0 0 279 0 0 273 0 0 283 0 0 255 0 0 276 0 0 256 0 0 256 0 0 243 0 0 247 0 0 250 0 0 227 0 0 230 0 0 229 0 0 203 0 0 187 0 0 145 0 0 106 0 0 93 0 0 81 0 0 66 0 0 64 0 0 58 0 0 48 0 0 46 0 0 37 0 0 
16 0 0 42 0 0 43 0 0 45 0 0 55 0 0 59 0 0 65 0 0 72 0 0 77 0 0 97 0 0 113 0 0 122 0 0 130 0 0 145 0 0 164 0 0 158 0 0 167 0 0 164 0 0 173 0 0 169 0 0 174 0 0 187 0 0 180 0 0 185 0 0 189 0 0 191 0 0 189 0 0 183 0 0 198 0 0 195 0 0 208 0 0 190 0 0 191 0 0 196 0 0 185 0 0 186 0 0 195 0 0 197 0 0 189 0 0 178 0 0 176 0 0 178 0 0 168 0 0 180 0 0 167 0 0 166 0 0 154 0 0 145 0 0 130 0 0 122 0 0 114 0 0 93 0 0 89 0 0 79 0 0 61 0 0 58 0 0 54 0 0 41 0 0 40 0 0 37 0 0 
15 0 0 36 0 0 42 0 0 44 0 0 52 0 0 50 0 0 61 0 0 62 0 0 70 0 0 80 0 0 89 0 0 103 0 0 109 0 0 112 0 0 115 0 0 123 0 0 129 0 0 130 0 0 128 0 0 141 0 0 150 0 0 144 0 0 153 0 0 148 0 0 158 0 0 150 0 0 159 0 0 158 0 0 157 0 0 158 0 0 169 0 0 150 0 0 154 0 0 149 0 0 151 0 0 147 0 0 148 0 0 152 0 0 154 0 0 146 0 0 134 0 0 145 0 0 139 0 0 133 0 0 129 0 0 132 0 0 127 0 0 119 0 0 106 0 0 93 0 0 92 0 0 80 0 0 77 0 0 69 0 0 61 0 0 55 0 0 44 0 0 47 0 0 39 0 0 33 0 0 
13 0 0 36 0 0 40 0 0 44 0 0 42 0 0 48 0 0 62 0 0 57 0 0 64 0 0 67 0 0 79 0 0 81 0 0 91 0 0 92 0 0 101 0 0 104 0 0 113 0 0 107 0 0 119 0 0 125 0 0 120 0 0 120 0 0 126 0 0 131 0 0 133 0 0 131 0 0 130 0 0 136 0 0 132 0 0 135 0 0 141 0 0 130 0 0 133 0 0 131 0 0 130 0 0 131 0 0 126 0 0 126 0 0 130 0 0 123 0 0 113 0 0 111 0 0 114 0 0 105 0 0 105 0 0 103 0 0 103 0 0 93 0 0 86 0 0 83 0 0 79 0 0 68 0 0 67 0 0 60 0 0 59 0 0 46 0 0 46 0 0 40 0 0 34 0 0 37 0 0 
16 0 0 30 0 0 31 0 0 36 0 0 38 0 0 48 0 0 51 0 0 48 0 0 55 0 0 61 0 0 66 0 0 74 0 0 82 0 0 81 0 0 89 0 0 90 0 0 84 0 0 96 0 0 99 0 0 100 0 0 106 0 0 109 0 0 103 0 0 116 0 0 111 0 0 119 0 0 115 0 0 112 0 0 117 0 0 110 0 0 113 0 0 110 0 0 106 0 0 117 0 0 105 0 0 107 0 0 109 0 0 100 0 0 107 0 0 100 0 0 101 0 0 102 0 0 96 0 0 95 0 0 92 0 0 87 0 0 86 0 0 76 0 0 73 0 0 71 0 0 68 0 0 64 0 0 65 0 0 53 0 0 49 0 0 43 0 0 47 0 0 35 0 0 29 0 0 32 0 0 
11 0 0 25 0 0 32 0 0 32 0 0 38 0 0 38 0 0 43 0 0 47 0 0 54 0 0 58 0 0 59 0 0 68 0 0 67 0 0 70 0 0 68 0 0 76 0 0 78 0 0 81 0 0 90 0 0 82 0 0 93 0 0 94 0 0 91 0 0 91 0 0 94 0 0 95 0 0 88 0 0 98 0 0 99 0 0 87 0 0 97 0 0 93 0 0 97 0 0 102 0 0 99 0 0 93 0 0 97 0 0 94 0 0 94 0 0 88 0 0 83 0 0 91 0 0 87 0 0 83 0 0 82 0 0 79 0 0 71 0 0 65 0 0 68 0 0 62 0 0 56 0 0 58 0 0 53 0 0 46 0 0 46 0 0 41 0 0 38 0 0 37 0 0 31 0 0 28 0 0 
11 0 0 28 0 0 27 0 0 32 0 0 35 0 0 34 0 0 40 0 0 44 0 0 45 0 0 47 0 0 54 0 0 58 0 0 63 0 0 61 0 0 59 0 0 68 0 0 69 0 0 70 0 0 81 0 0 72 0 0 73 0 0 78 0 0 81 0 0 85 0 0 86 0 0 80 0 0 93 0 0 86 0 0 84 0 0 87 0 0 85 0 0 85 0 0 83 0 0 87 0 0 82 0 0 82 0 0 79 0 0 81 0 0 80 0 0 76 0 0 80 0 0 80 0 0 76 0 0 75 0 0 71 0 0 65 0 0 64 0 0 63 0 0 57 0 0 55 0 0 47 0 0 51 0 0 49 0 0 46 0 0 41 0 0 40 0 0 32 0 0 31 0 0 30 0 0 26 0 0 
9 0 0 25 0 0 27 0 0 29 0 0 34 0 0 35 0 0 40 0 0 40 0 0 41 0 0 42 0 0 50 0 0 49 0 0 53 0 0 56 0 0 56 0 0 54 0 0 59 0 0 66 0 0 64 0 0 63 0 0 72 0 0 66 0 0 69 0 0 70 0 0 73 0 0 74 0 0 80 0 0 72 0 0 72 0 0 73 0 0 72 0 0 70 0 0 76 0 0 84 0 0 70 0 0 71 0 0 73 0 0 72 0 0 69 0 0 66 0 0 70 0 0 68 0 0 67 0 0 68 0 0 62 0 0 58 0 0 59 0 0 56 0 0 46 0 0 49 0 0 42 0 0 45 0 0 41 0 0 39 0 0 41 0 0 34 0 0 34 0 0 28 0 0 29 0 0 24 0 0 
8 0 0 23 0 0 25 0 0 27 0 0 27 0 0 33 0 0 32 0 0 34 0 0 37 0 0 34 0 0 45 0 0 43 0 0 43 0 0 51 0 0 48 0 0 51 0 0 53 0 0 53 0 0 56 0 0 60 0 0 63 0 0 63 0 0 61 0 0 67 0 0 64 0 0 60 0 0 68 0 0 67 0 0 72 0 0 67 0 0 67 0 0 63 0 0 66 0 0 63 0 0 68 0 0 65 0 0 63 0 0 60 0 0 61 0 0 58 0 0 64 0 0 61 0 0 59 0 0 54 0 0 54 0 0 54 0 0 55 0 0 42 0 0 44 0 0 44 0 0 38 0 0 38 0 0 38 0 0 37 0 0 34 0 0 34 0 0 31 0 0 25 0 0 23 0 0 23 0 0 
