P3
# This is a dose file slice at depth 13 of 100
60 60
# now we give the maximum value of the RGB coordinates.
6518
23 0 0 36 0 0 52 0 0 50 0 0 65 0 0 65 0 0 49 0 0 72 0 0 69 0 0 64 0 0 83 0 0 74 0 0 73 0 0 67 0 0 89 0 0 85 0 0 106 0 0 94 0 0 108 0 0 89 0 0 120 0 0 105 0 0 122 0 0 106 0 0 124 0 0 107 0 0 112 0 0 124 0 0 119 0 0 99 0 0 125 0 0 150 0 0 105 0 0 123 0 0 108 0 0 113 0 0 125 0 0 106 0 0 110 0 0 104 0 0 116 0 0 108 0 0 95 0 0 105 0 0 100 0 0 99 0 0 93 0 0 89 0 0 84 0 0 78 0 0 84 0 0 55 0 0 64 0 0 77 0 0 45 0 0 52 0 0 55 0 0 49 0 0 43 0 0 37 0 0 
51 0 0 88 0 0 99 0 0 107 0 0 94 0 0 114 0 0 113 0 0 120 0 0 147 0 0 175 0 0 176 0 0 179 0 0 170 0 0 179 0 0 187 0 0 225 0 0 192 0 0 243 0 0 203 0 0 213 0 0 215 0 0 256 0 0 235 0 0 247 0 0 226 0 0 254 0 0 257 0 0 238 0 0 268 0 0 274 0 0 256 0 0 281 0 0 263 0 0 270 0 0 267 0 0 260 0 0 274 0 0 249 0 0 229 0 0 248 0 0 220 0 0 230 0 0 235 0 0 225 0 0 221 0 0 168 0 0 209 0 0 188 0 0 162 0 0 173 0 0 168 0 0 171 0 0 139 0 0 120 0 0 145 0 0 106 0 0 113 0 0 124 0 0 103 0 0 99 0 0 
48 0 0 110 0 0 112 0 0 123 0 0 112 0 0 149 0 0 143 0 0 153 0 0 180 0 0 176 0 0 211 0 0 205 0 0 203 0 0 191 0 0 230 0 0 227 0 0 225 0 0 248 0 0 225 0 0 266 0 0 289 0 0 289 0 0 283 0 0 293 0 0 280 0 0 272 0 0 299 0 0 271 0 0 304 0 0 326 0 0 282 0 0 283 0 0 280 0 0 291 0 0 291 0 0 294 0 0 285 0 0 298 0 0 254 0 0 299 0 0 285 0 0 305 0 0 260 0 0 255 0 0 245 0 0 233 0 0 216 0 0 218 0 0 228 0 0 197 0 0 177 0 0 171 0 0 166 0 0 150 0 0 112 0 0 98 0 0 117 0 0 141 0 0 107 0 0 107 0 0 
48 0 0 105 0 0 129 0 0 110 0 0 155 0 0 146 0 0 156 0 0 178 0 0 171 0 0 191 0 0 191 0 0 232 0 0 242 0 0 237 0 0 250 0 0 280 0 0 293 0 0 273 0 0 291 0 0 292 0 0 304 0 0 322 0 0 322 0 0 329 0 0 315 0 0 336 0 0 326 0 0 344 0 0 336 0 0 341 0 0 328 0 0 344 0 0 314 0 0 307 0 0 361 0 0 336 0 0 339 0 0 287 0 0 348 0 0 342 0 0 317 0 0 261 0 0 318 0 0 287 0 0 255 0 0 252 0 0 263 0 0 229 0 0 237 0 0 234 0 0 184 0 0 178 0 0 177 0 0 170 0 0 150 0 0 141 0 0 135 0 0 139 0 0 101 0 0 121 0 0 
65 0 0 119 0 0 116 0 0 136 0 0 122 0 0 156 0 0 169 0 0 177 0 0 204 0 0 214 0 0 248 0 0 243 0 0 263 0 0 271 0 0 312 0 0 300 0 0 308 0 0 348 0 0 311 0 0 336 0 0 348 0 0 357 0 0 389 0 0 373 0 0 373 0 0 359 0 0 364 0 0 389 0 0 369 0 0 383 0 0 389 0 0 409 0 0 368 0 0 392 0 0 347 0 0 389 0 0 353 0 0 367 0 0 357 0 0 380 0 0 330 0 0 312 0 0 340 0 0 323 0 0 313 0 0 285 0 0 283 0 0 267 0 0 262 0 0 255 0 0 232 0 0 212 0 0 188 0 0 206 0 0 186 0 0 150 0 0 163 0 0 105 0 0 132 0 0 114 0 0 
62 0 0 113 0 0 131 0 0 167 0 0 153 0 0 157 0 0 169 0 0 212 0 0 214 0 0 231 0 0 262 0 0 270 0 0 268 0 0 291 0 0 342 0 0 350 0 0 353 0 0 369 0 0 345 0 0 400 0 0 427 0 0 413 0 0 429 0 0 452 0 0 407 0 0 448 0 0 417 0 0 428 0 0 427 0 0 426 0 0 466 0 0 419 0 0 421 0 0 409 0 0 440 0 0 461 0 0 451 0 0 444 0 0 363 0 0 474 0 0 423 0 0 365 0 0 364 0 0 370 0 0 350 0 0 362 0 0 344 0 0 341 0 0 287 0 0 296 0 0 265 0 0 233 0 0 209 0 0 213 0 0 176 0 0 150 0 0 162 0 0 138 0 0 131 0 0 119 0 0 
51 0 0 134 0 0 131 0 0 135 0 0 163 0 0 199 0 0 199 0 0 199 0 0 256 0 0 277 0 0 279 0 0 330 0 0 365 0 0 415 0 0 399 0 0 408 0 0 407 0 0 461 0 0 466 0 0 485 0 0 478 0 0 456 0 0 457 0 0 497 0 0 509 0 0 475 0 0 489 0 0 513 0 0 488 0 0 497 0 0 491 0 0 485 0 0 494 0 0 532 0 0 524 0 0 506 0 0 541 0 0 513 0 0 468 0 0 483 0 0 471 0 0 458 0 0 413 0 0 434 0 0 410 0 0 398 0 0 404 0 0 363 0 0 323 0 0 312 0 0 288 0 0 265 0 0 268 0 0 229 0 0 215 0 0 175 0 0 176 0 0 158 0 0 121 0 0 147 0 0 
67 0 0 139 0 0 155 0 0 136 0 0 155 0 0 219 0 0 247 0 0 253 0 0 283 0 0 331 0 0 352 0 0 355 0 0 398 0 0 397 0 0 457 0 0 478 0 0 486 0 0 504 0 0 537 0 0 541 0 0 582 0 0 563 0 0 581 0 0 599 0 0 562 0 0 688 0 0 528 0 0 575 0 0 587 0 0 596 0 0 642 0 0 608 0 0 626 0 0 565 0 0 589 0 0 585 0 0 558 0 0 582 0 0 545 0 0 598 0 0 547 0 0 547 0 0 555 0 0 553 0 0 495 0 0 516 0 0 452 0 0 442 0 0 391 0 0 383 0 0 327 0 0 262 0 0 267 0 0 253 0 0 232 0 0 197 0 0 165 0 0 171 0 0 165 0 0 144 0 0 
66 0 0 141 0 0 160 0 0 194 0 0 211 0 0 209 0 0 275 0 0 288 0 0 333 0 0 384 0 0 406 0 0 454 0 0 447 0 0 567 0 0 558 0 0 601 0 0 586 0 0 625 0 0 653 0 0 648 0 0 648 0 0 676 0 0 616 0 0 668 0 0 719 0 0 723 0 0 720 0 0 729 0 0 654 0 0 699 0 0 735 0 0 712 0 0 635 0 0 669 0 0 672 0 0 694 0 0 682 0 0 695 0 0 681 0 0 633 0 0 667 0 0 645 0 0 632 0 0 629 0 0 600 0 0 581 0 0 571 0 0 531 0 0 499 0 0 455 0 0 411 0 0 352 0 0 309 0 0 275 0 0 252 0 0 219 0 0 203 0 0 180 0 0 166 0 0 154 0 0 
62 0 0 146 0 0 192 0 0 159 0 0 196 0 0 254 0 0 266 0 0 298 0 0 331 0 0 425 0 0 457 0 0 578 0 0 612 0 0 670 0 0 698 0 0 725 0 0 765 0 0 704 0 0 749 0 0 794 0 0 810 0 0 803 0 0 857 0 0 800 0 0 809 0 0 866 0 0 804 0 0 827 0 0 872 0 0 876 0 0 917 0 0 863 0 0 910 0 0 875 0 0 804 0 0 792 0 0 863 0 0 851 0 0 794 0 0 867 0 0 790 0 0 823 0 0 796 0 0 714 0 0 761 0 0 692 0 0 694 0 0 627 0 0 637 0 0 534 0 0 511 0 0 452 0 0 314 0 0 314 0 0 285 0 0 250 0 0 197 0 0 204 0 0 170 0 0 181 0 0 
81 0 0 145 0 0 155 0 0 217 0 0 195 0 0 240 0 0 292 0 0 346 0 0 417 0 0 477 0 0 1532 0 0 2608 0 0 2688 0 0 2802 0 0 2765 0 0 2814 0 0 2878 0 0 2842 0 0 2837 0 0 2902 0 0 2892 0 0 2991 0 0 2890 0 0 3020 0 0 2949 0 0 2978 0 0 2986 0 0 2917 0 0 3040 0 0 2990 0 0 2909 0 0 2914 0 0 2944 0 0 2991 0 0 3032 0 0 2906 0 0 2905 0 0 2954 0 0 2907 0 0 2889 0 0 3012 0 0 3064 0 0 2955 0 0 2896 0 0 2839 0 0 2898 0 0 2743 0 0 2697 0 0 2634 0 0 2589 0 0 1604 0 0 508 0 0 418 0 0 348 0 0 309 0 0 268 0 0 227 0 0 221 0 0 169 0 0 163 0 0 
86 0 0 188 0 0 178 0 0 237 0 0 239 0 0 276 0 0 302 0 0 372 0 0 425 0 0 564 0 0 2552 0 0 4598 0 0 4753 0 0 4744 0 0 4867 0 0 4981 0 0 4922 0 0 5016 0 0 5003 0 0 4978 0 0 5038 0 0 5053 0 0 4997 0 0 5135 0 0 5076 0 0 4970 0 0 5078 0 0 5185 0 0 5009 0 0 5127 0 0 5053 0 0 5039 0 0 5110 0 0 5134 0 0 4930 0 0 5132 0 0 5080 0 0 5129 0 0 5151 0 0 5030 0 0 5067 0 0 5012 0 0 5044 0 0 4936 0 0 4898 0 0 4901 0 0 4934 0 0 4838 0 0 4880 0 0 4751 0 0 2528 0 0 555 0 0 399 0 0 376 0 0 329 0 0 247 0 0 245 0 0 207 0 0 185 0 0 170 0 0 
72 0 0 195 0 0 195 0 0 232 0 0 275 0 0 279 0 0 339 0 0 420 0 0 519 0 0 596 0 0 2718 0 0 4739 0 0 4964 0 0 4969 0 0 5116 0 0 4994 0 0 5147 0 0 5090 0 0 5110 0 0 5198 0 0 5154 0 0 5159 0 0 5131 0 0 5301 0 0 5346 0 0 5134 0 0 5207 0 0 5123 0 0 5208 0 0 5276 0 0 5141 0 0 5285 0 0 5271 0 0 5100 0 0 5228 0 0 5247 0 0 5188 0 0 5224 0 0 5063 0 0 5332 0 0 5088 0 0 5184 0 0 5119 0 0 5080 0 0 5066 0 0 5205 0 0 5178 0 0 4890 0 0 5014 0 0 4772 0 0 2736 0 0 571 0 0 503 0 0 357 0 0 337 0 0 297 0 0 229 0 0 216 0 0 207 0 0 207 0 0 
81 0 0 204 0 0 205 0 0 252 0 0 264 0 0 298 0 0 344 0 0 421 0 0 502 0 0 637 0 0 2686 0 0 4756 0 0 4871 0 0 4969 0 0 5158 0 0 5272 0 0 5355 0 0 5359 0 0 5275 0 0 5318 0 0 5348 0 0 5294 0 0 5260 0 0 5248 0 0 5248 0 0 5376 0 0 5378 0 0 5381 0 0 5254 0 0 5288 0 0 5346 0 0 5367 0 0 5270 0 0 5507 0 0 5343 0 0 5380 0 0 5379 0 0 5252 0 0 5230 0 0 5236 0 0 5275 0 0 5230 0 0 5232 0 0 5220 0 0 5207 0 0 5103 0 0 5104 0 0 5090 0 0 4855 0 0 4890 0 0 2697 0 0 614 0 0 516 0 0 457 0 0 363 0 0 277 0 0 274 0 0 242 0 0 203 0 0 193 0 0 
94 0 0 181 0 0 214 0 0 269 0 0 293 0 0 325 0 0 364 0 0 458 0 0 580 0 0 688 0 0 2725 0 0 4916 0 0 5031 0 0 5088 0 0 5133 0 0 5187 0 0 5250 0 0 5311 0 0 5279 0 0 5396 0 0 5294 0 0 5337 0 0 5448 0 0 5375 0 0 5331 0 0 5503 0 0 5423 0 0 5454 0 0 5414 0 0 5511 0 0 5582 0 0 5388 0 0 5299 0 0 5435 0 0 5346 0 0 5432 0 0 5316 0 0 5417 0 0 5502 0 0 5406 0 0 5225 0 0 5358 0 0 5417 0 0 5300 0 0 5140 0 0 5320 0 0 5270 0 0 5058 0 0 5051 0 0 5055 0 0 2759 0 0 705 0 0 560 0 0 464 0 0 375 0 0 336 0 0 280 0 0 243 0 0 243 0 0 186 0 0 
88 0 0 208 0 0 241 0 0 265 0 0 285 0 0 360 0 0 396 0 0 492 0 0 575 0 0 674 0 0 2771 0 0 4859 0 0 5012 0 0 5166 0 0 5058 0 0 5262 0 0 5221 0 0 5348 0 0 5426 0 0 5300 0 0 5572 0 0 5482 0 0 5316 0 0 5488 0 0 5385 0 0 5414 0 0 5512 0 0 5403 0 0 5595 0 0 5545 0 0 5552 0 0 5372 0 0 5579 0 0 5491 0 0 5660 0 0 5448 0 0 5424 0 0 5414 0 0 5506 0 0 5487 0 0 5361 0 0 5380 0 0 5414 0 0 5430 0 0 5415 0 0 5293 0 0 5208 0 0 5036 0 0 5117 0 0 4781 0 0 2759 0 0 702 0 0 584 0 0 486 0 0 388 0 0 366 0 0 314 0 0 249 0 0 241 0 0 209 0 0 
93 0 0 211 0 0 220 0 0 261 0 0 311 0 0 362 0 0 417 0 0 483 0 0 597 0 0 751 0 0 2810 0 0 4900 0 0 5056 0 0 5278 0 0 5211 0 0 5372 0 0 5380 0 0 5453 0 0 5316 0 0 5511 0 0 5292 0 0 5505 0 0 5458 0 0 5572 0 0 5453 0 0 5431 0 0 5665 0 0 5600 0 0 5539 0 0 5570 0 0 5558 0 0 5577 0 0 5513 0 0 5555 0 0 5511 0 0 5615 0 0 5644 0 0 5587 0 0 5548 0 0 5558 0 0 5385 0 0 5455 0 0 5508 0 0 5422 0 0 5299 0 0 5228 0 0 5371 0 0 5215 0 0 5147 0 0 4909 0 0 2850 0 0 711 0 0 551 0 0 471 0 0 434 0 0 349 0 0 308 0 0 260 0 0 241 0 0 208 0 0 
126 0 0 220 0 0 274 0 0 287 0 0 292 0 0 372 0 0 410 0 0 572 0 0 589 0 0 766 0 0 2897 0 0 4967 0 0 5180 0 0 5287 0 0 5261 0 0 5331 0 0 5362 0 0 5504 0 0 5551 0 0 5453 0 0 5539 0 0 5494 0 0 5555 0 0 5649 0 0 5679 0 0 5527 0 0 5557 0 0 5657 0 0 5531 0 0 5553 0 0 5694 0 0 5579 0 0 5574 0 0 5705 0 0 5658 0 0 5573 0 0 5587 0 0 5562 0 0 5502 0 0 5573 0 0 5518 0 0 5688 0 0 5483 0 0 5476 0 0 5403 0 0 5356 0 0 5237 0 0 5172 0 0 5141 0 0 4949 0 0 2977 0 0 750 0 0 619 0 0 540 0 0 468 0 0 384 0 0 326 0 0 296 0 0 243 0 0 211 0 0 
103 0 0 220 0 0 236 0 0 281 0 0 313 0 0 379 0 0 445 0 0 514 0 0 650 0 0 752 0 0 2981 0 0 5040 0 0 5135 0 0 5211 0 0 5275 0 0 5347 0 0 5515 0 0 5641 0 0 5554 0 0 5507 0 0 5651 0 0 5765 0 0 5582 0 0 5585 0 0 5601 0 0 5659 0 0 5720 0 0 5623 0 0 5625 0 0 5644 0 0 5564 0 0 5607 0 0 5567 0 0 5565 0 0 5661 0 0 5683 0 0 5541 0 0 5592 0 0 5646 0 0 5611 0 0 5691 0 0 5557 0 0 5471 0 0 5508 0 0 5479 0 0 5475 0 0 5431 0 0 5331 0 0 5145 0 0 5014 0 0 2927 0 0 802 0 0 602 0 0 493 0 0 458 0 0 415 0 0 322 0 0 307 0 0 267 0 0 223 0 0 
109 0 0 242 0 0 248 0 0 260 0 0 309 0 0 401 0 0 489 0 0 540 0 0 669 0 0 765 0 0 2926 0 0 5132 0 0 5074 0 0 5222 0 0 5509 0 0 5445 0 0 5426 0 0 5425 0 0 5474 0 0 5598 0 0 5700 0 0 5647 0 0 5538 0 0 5733 0 0 5585 0 0 5678 0 0 5776 0 0 5709 0 0 5590 0 0 5855 0 0 5639 0 0 5770 0 0 5658 0 0 5456 0 0 5482 0 0 5613 0 0 5635 0 0 5712 0 0 5491 0 0 5611 0 0 5473 0 0 5480 0 0 5509 0 0 5563 0 0 5555 0 0 5414 0 0 5363 0 0 5278 0 0 5202 0 0 4996 0 0 2990 0 0 793 0 0 596 0 0 597 0 0 448 0 0 415 0 0 342 0 0 281 0 0 264 0 0 242 0 0 
128 0 0 223 0 0 284 0 0 301 0 0 339 0 0 419 0 0 496 0 0 546 0 0 607 0 0 760 0 0 2870 0 0 5010 0 0 5192 0 0 5214 0 0 5299 0 0 5322 0 0 5545 0 0 5442 0 0 5523 0 0 5550 0 0 5564 0 0 5615 0 0 5591 0 0 5648 0 0 5635 0 0 5723 0 0 5784 0 0 5663 0 0 5870 0 0 5656 0 0 5571 0 0 5678 0 0 5763 0 0 5745 0 0 5618 0 0 5772 0 0 5648 0 0 5599 0 0 5763 0 0 5645 0 0 5640 0 0 5588 0 0 5564 0 0 5533 0 0 5477 0 0 5460 0 0 5326 0 0 5158 0 0 5290 0 0 5036 0 0 2999 0 0 802 0 0 658 0 0 519 0 0 466 0 0 416 0 0 345 0 0 302 0 0 280 0 0 236 0 0 
93 0 0 273 0 0 279 0 0 322 0 0 355 0 0 390 0 0 489 0 0 539 0 0 658 0 0 847 0 0 3003 0 0 4986 0 0 5204 0 0 5147 0 0 5377 0 0 5490 0 0 5557 0 0 5468 0 0 5545 0 0 5588 0 0 5686 0 0 5739 0 0 5604 0 0 5854 0 0 5642 0 0 5764 0 0 5711 0 0 5660 0 0 5610 0 0 5646 0 0 5773 0 0 5781 0 0 5838 0 0 5712 0 0 5655 0 0 5675 0 0 5690 0 0 5735 0 0 5588 0 0 5689 0 0 5627 0 0 5497 0 0 5573 0 0 5544 0 0 5406 0 0 5572 0 0 5357 0 0 5179 0 0 5183 0 0 5098 0 0 2979 0 0 818 0 0 716 0 0 516 0 0 479 0 0 462 0 0 361 0 0 325 0 0 269 0 0 247 0 0 
108 0 0 242 0 0 295 0 0 308 0 0 359 0 0 398 0 0 476 0 0 565 0 0 686 0 0 817 0 0 2923 0 0 5145 0 0 5133 0 0 5358 0 0 5425 0 0 5459 0 0 5467 0 0 5490 0 0 5586 0 0 5664 0 0 5773 0 0 5711 0 0 5703 0 0 5612 0 0 5612 0 0 5694 0 0 5871 0 0 5688 0 0 5786 0 0 5774 0 0 5780 0 0 5735 0 0 5814 0 0 5722 0 0 5714 0 0 5812 0 0 5608 0 0 5609 0 0 5562 0 0 5721 0 0 5615 0 0 5578 0 0 5611 0 0 5464 0 0 5387 0 0 5503 0 0 5558 0 0 5353 0 0 5233 0 0 4987 0 0 2933 0 0 818 0 0 717 0 0 564 0 0 498 0 0 441 0 0 354 0 0 304 0 0 279 0 0 250 0 0 
117 0 0 254 0 0 277 0 0 331 0 0 383 0 0 433 0 0 489 0 0 557 0 0 666 0 0 839 0 0 2943 0 0 5020 0 0 5328 0 0 5352 0 0 5356 0 0 5489 0 0 5536 0 0 5582 0 0 5670 0 0 5623 0 0 5676 0 0 5764 0 0 5620 0 0 5688 0 0 5636 0 0 5793 0 0 5841 0 0 5759 0 0 5641 0 0 5745 0 0 5679 0 0 5808 0 0 5671 0 0 5726 0 0 5639 0 0 5784 0 0 5629 0 0 5712 0 0 5869 0 0 5601 0 0 5654 0 0 5456 0 0 5699 0 0 5513 0 0 5451 0 0 5607 0 0 5345 0 0 5327 0 0 5241 0 0 5104 0 0 2961 0 0 794 0 0 687 0 0 555 0 0 492 0 0 407 0 0 362 0 0 312 0 0 292 0 0 257 0 0 
120 0 0 230 0 0 286 0 0 298 0 0 355 0 0 432 0 0 515 0 0 547 0 0 697 0 0 855 0 0 2953 0 0 5078 0 0 5215 0 0 5332 0 0 5481 0 0 5512 0 0 5663 0 0 5723 0 0 5793 0 0 5740 0 0 5808 0 0 5570 0 0 5641 0 0 5785 0 0 5635 0 0 5738 0 0 5725 0 0 5707 0 0 5813 0 0 5723 0 0 5683 0 0 5699 0 0 5822 0 0 5804 0 0 5768 0 0 5916 0 0 5762 0 0 5723 0 0 5777 0 0 5782 0 0 5591 0 0 5704 0 0 5682 0 0 5473 0 0 5595 0 0 5558 0 0 5279 0 0 5313 0 0 5200 0 0 5295 0 0 2875 0 0 858 0 0 660 0 0 571 0 0 456 0 0 477 0 0 379 0 0 300 0 0 285 0 0 246 0 0 
124 0 0 261 0 0 262 0 0 335 0 0 357 0 0 452 0 0 446 0 0 572 0 0 645 0 0 867 0 0 2921 0 0 5073 0 0 5215 0 0 5389 0 0 5560 0 0 5519 0 0 5493 0 0 5691 0 0 5610 0 0 5664 0 0 5687 0 0 5679 0 0 5700 0 0 5827 0 0 5694 0 0 5841 0 0 5817 0 0 5907 0 0 5792 0 0 5864 0 0 5644 0 0 5697 0 0 5702 0 0 5737 0 0 5767 0 0 5765 0 0 5738 0 0 5704 0 0 5643 0 0 5729 0 0 5812 0 0 5635 0 0 5677 0 0 5449 0 0 5523 0 0 5382 0 0 5522 0 0 5361 0 0 5168 0 0 5063 0 0 2967 0 0 846 0 0 727 0 0 604 0 0 501 0 0 440 0 0 373 0 0 348 0 0 290 0 0 246 0 0 
113 0 0 225 0 0 297 0 0 350 0 0 394 0 0 420 0 0 498 0 0 577 0 0 667 0 0 838 0 0 2968 0 0 5159 0 0 5064 0 0 5461 0 0 5469 0 0 5522 0 0 5556 0 0 5548 0 0 5726 0 0 5714 0 0 5854 0 0 5666 0 0 5722 0 0 5890 0 0 5786 0 0 5758 0 0 5742 0 0 5717 0 0 5801 0 0 5745 0 0 5814 0 0 5765 0 0 5738 0 0 5805 0 0 5804 0 0 5887 0 0 5704 0 0 5621 0 0 5730 0 0 5813 0 0 5727 0 0 5618 0 0 5718 0 0 5549 0 0 5563 0 0 5623 0 0 5493 0 0 5393 0 0 5184 0 0 5050 0 0 3051 0 0 825 0 0 654 0 0 586 0 0 483 0 0 433 0 0 382 0 0 338 0 0 284 0 0 259 0 0 
119 0 0 288 0 0 321 0 0 346 0 0 365 0 0 450 0 0 470 0 0 572 0 0 745 0 0 834 0 0 2881 0 0 5019 0 0 5352 0 0 5357 0 0 5478 0 0 5449 0 0 5619 0 0 5772 0 0 5722 0 0 5719 0 0 5657 0 0 5614 0 0 5757 0 0 5850 0 0 5749 0 0 5794 0 0 5922 0 0 5799 0 0 5848 0 0 5882 0 0 5726 0 0 5768 0 0 5765 0 0 5809 0 0 5717 0 0 5840 0 0 5599 0 0 5757 0 0 5787 0 0 5822 0 0 5728 0 0 5496 0 0 5625 0 0 5661 0 0 5497 0 0 5569 0 0 5443 0 0 5365 0 0 5347 0 0 5004 0 0 2997 0 0 855 0 0 708 0 0 607 0 0 519 0 0 394 0 0 371 0 0 310 0 0 278 0 0 272 0 0 
110 0 0 258 0 0 315 0 0 338 0 0 376 0 0 440 0 0 498 0 0 555 0 0 691 0 0 840 0 0 3047 0 0 5154 0 0 5345 0 0 5467 0 0 5346 0 0 5451 0 0 5563 0 0 5599 0 0 5620 0 0 5640 0 0 5701 0 0 5679 0 0 5834 0 0 5684 0 0 5826 0 0 5768 0 0 5724 0 0 5804 0 0 6015 0 0 5764 0 0 5885 0 0 5859 0 0 5698 0 0 5920 0 0 5764 0 0 5603 0 0 5775 0 0 5825 0 0 5781 0 0 5782 0 0 5684 0 0 5679 0 0 5610 0 0 5595 0 0 5564 0 0 5488 0 0 5554 0 0 5365 0 0 5324 0 0 5278 0 0 2985 0 0 844 0 0 689 0 0 593 0 0 522 0 0 424 0 0 382 0 0 341 0 0 287 0 0 267 0 0 
120 0 0 285 0 0 282 0 0 301 0 0 344 0 0 441 0 0 468 0 0 533 0 0 694 0 0 902 0 0 2962 0 0 5112 0 0 5166 0 0 5428 0 0 5531 0 0 5420 0 0 5459 0 0 5722 0 0 5883 0 0 5737 0 0 5660 0 0 5785 0 0 5665 0 0 5878 0 0 5692 0 0 5772 0 0 5792 0 0 5786 0 0 5928 0 0 5693 0 0 5903 0 0 5834 0 0 5727 0 0 5815 0 0 5909 0 0 5702 0 0 5718 0 0 5796 0 0 5901 0 0 5739 0 0 5607 0 0 5522 0 0 5774 0 0 5557 0 0 5621 0 0 5532 0 0 5346 0 0 5406 0 0 5233 0 0 4993 0 0 2910 0 0 809 0 0 738 0 0 547 0 0 449 0 0 427 0 0 407 0 0 323 0 0 267 0 0 259 0 0 
136 0 0 266 0 0 245 0 0 330 0 0 359 0 0 432 0 0 510 0 0 606 0 0 669 0 0 869 0 0 3083 0 0 5054 0 0 5164 0 0 5388 0 0 5453 0 0 5440 0 0 5508 0 0 5594 0 0 5450 0 0 5595 0 0 5648 0 0 5825 0 0 5806 0 0 5885 0 0 5754 0 0 5840 0 0 5715 0 0 5856 0 0 5773 0 0 5769 0 0 5876 0 0 5721 0 0 5813 0 0 5703 0 0 5748 0 0 5759 0 0 5736 0 0 6071 0 0 5817 0 0 5729 0 0 5790 0 0 5715 0 0 5593 0 0 5614 0 0 5570 0 0 5542 0 0 5553 0 0 5328 0 0 5262 0 0 4999 0 0 2995 0 0 922 0 0 712 0 0 574 0 0 490 0 0 445 0 0 367 0 0 327 0 0 330 0 0 248 0 0 
129 0 0 296 0 0 306 0 0 333 0 0 396 0 0 435 0 0 475 0 0 590 0 0 702 0 0 872 0 0 3046 0 0 4975 0 0 5167 0 0 5387 0 0 5536 0 0 5533 0 0 5521 0 0 5656 0 0 5637 0 0 5665 0 0 5612 0 0 5612 0 0 5783 0 0 5602 0 0 5689 0 0 5699 0 0 5741 0 0 5837 0 0 5728 0 0 5813 0 0 5753 0 0 5790 0 0 5815 0 0 5863 0 0 5790 0 0 5754 0 0 5735 0 0 5599 0 0 5714 0 0 5694 0 0 5787 0 0 5640 0 0 5549 0 0 5539 0 0 5602 0 0 5547 0 0 5591 0 0 5332 0 0 5310 0 0 5109 0 0 2926 0 0 865 0 0 689 0 0 601 0 0 511 0 0 455 0 0 357 0 0 334 0 0 254 0 0 238 0 0 
111 0 0 271 0 0 314 0 0 329 0 0 378 0 0 441 0 0 549 0 0 578 0 0 765 0 0 887 0 0 2915 0 0 5194 0 0 5217 0 0 5305 0 0 5434 0 0 5530 0 0 5601 0 0 5624 0 0 5609 0 0 5643 0 0 5783 0 0 5726 0 0 5743 0 0 5672 0 0 5769 0 0 5863 0 0 5852 0 0 5703 0 0 5811 0 0 5855 0 0 5777 0 0 5844 0 0 5705 0 0 5814 0 0 5799 0 0 5668 0 0 5622 0 0 5822 0 0 5580 0 0 5700 0 0 5812 0 0 5753 0 0 5646 0 0 5616 0 0 5518 0 0 5439 0 0 5488 0 0 5423 0 0 5269 0 0 5116 0 0 2999 0 0 844 0 0 655 0 0 607 0 0 495 0 0 444 0 0 406 0 0 352 0 0 300 0 0 240 0 0 
124 0 0 265 0 0 306 0 0 342 0 0 363 0 0 387 0 0 497 0 0 602 0 0 702 0 0 845 0 0 2983 0 0 5150 0 0 5147 0 0 5425 0 0 5417 0 0 5516 0 0 5567 0 0 5555 0 0 5684 0 0 5712 0 0 5678 0 0 5701 0 0 5673 0 0 5833 0 0 5867 0 0 5797 0 0 5870 0 0 5724 0 0 5868 0 0 5812 0 0 5773 0 0 5881 0 0 5878 0 0 5822 0 0 5730 0 0 5776 0 0 5868 0 0 5596 0 0 5649 0 0 5723 0 0 5736 0 0 5730 0 0 5749 0 0 5626 0 0 5581 0 0 5621 0 0 5476 0 0 5420 0 0 5227 0 0 5123 0 0 2974 0 0 869 0 0 709 0 0 611 0 0 504 0 0 427 0 0 370 0 0 314 0 0 278 0 0 228 0 0 
118 0 0 220 0 0 279 0 0 341 0 0 410 0 0 437 0 0 441 0 0 621 0 0 727 0 0 870 0 0 2950 0 0 5103 0 0 5195 0 0 5486 0 0 5441 0 0 5431 0 0 5500 0 0 5626 0 0 5633 0 0 5671 0 0 5615 0 0 5673 0 0 5653 0 0 5759 0 0 5659 0 0 5752 0 0 5912 0 0 5831 0 0 5795 0 0 5864 0 0 5641 0 0 5812 0 0 5789 0 0 5818 0 0 5647 0 0 5826 0 0 5879 0 0 5737 0 0 5780 0 0 5611 0 0 5896 0 0 5657 0 0 5670 0 0 5530 0 0 5545 0 0 5361 0 0 5455 0 0 5301 0 0 5294 0 0 5112 0 0 3013 0 0 875 0 0 699 0 0 609 0 0 521 0 0 458 0 0 371 0 0 314 0 0 280 0 0 265 0 0 
127 0 0 242 0 0 300 0 0 287 0 0 389 0 0 438 0 0 499 0 0 570 0 0 699 0 0 845 0 0 2973 0 0 5036 0 0 5246 0 0 5254 0 0 5362 0 0 5538 0 0 5582 0 0 5543 0 0 5637 0 0 5593 0 0 5671 0 0 5715 0 0 5736 0 0 5685 0 0 5716 0 0 5757 0 0 5873 0 0 5788 0 0 5727 0 0 5728 0 0 5794 0 0 5849 0 0 5747 0 0 5807 0 0 5905 0 0 5648 0 0 5770 0 0 5720 0 0 5767 0 0 5767 0 0 5608 0 0 5790 0 0 5610 0 0 5610 0 0 5518 0 0 5538 0 0 5309 0 0 5537 0 0 5182 0 0 5131 0 0 2939 0 0 815 0 0 635 0 0 553 0 0 487 0 0 457 0 0 344 0 0 339 0 0 283 0 0 253 0 0 
120 0 0 248 0 0 278 0 0 309 0 0 394 0 0 434 0 0 500 0 0 569 0 0 665 0 0 875 0 0 2847 0 0 5181 0 0 5240 0 0 5308 0 0 5322 0 0 5418 0 0 5381 0 0 5701 0 0 5595 0 0 5696 0 0 5734 0 0 5544 0 0 5688 0 0 5766 0 0 5692 0 0 5820 0 0 5800 0 0 5847 0 0 5816 0 0 5798 0 0 5809 0 0 5761 0 0 5707 0 0 5733 0 0 5770 0 0 5816 0 0 5721 0 0 5776 0 0 5599 0 0 5806 0 0 5818 0 0 5758 0 0 5546 0 0 5520 0 0 5651 0 0 5554 0 0 5345 0 0 5234 0 0 5121 0 0 5016 0 0 2932 0 0 810 0 0 677 0 0 583 0 0 518 0 0 395 0 0 362 0 0 308 0 0 287 0 0 265 0 0 
122 0 0 237 0 0 268 0 0 345 0 0 336 0 0 442 0 0 491 0 0 546 0 0 720 0 0 837 0 0 2952 0 0 5056 0 0 5046 0 0 5374 0 0 5403 0 0 5545 0 0 5489 0 0 5528 0 0 5549 0 0 5667 0 0 5408 0 0 5773 0 0 5746 0 0 5650 0 0 5833 0 0 5780 0 0 5647 0 0 5759 0 0 5784 0 0 5712 0 0 5889 0 0 5761 0 0 5780 0 0 5713 0 0 5765 0 0 5682 0 0 5691 0 0 5822 0 0 5772 0 0 5740 0 0 5686 0 0 5650 0 0 5743 0 0 5564 0 0 5566 0 0 5518 0 0 5643 0 0 5334 0 0 5170 0 0 5038 0 0 2972 0 0 766 0 0 629 0 0 580 0 0 534 0 0 415 0 0 356 0 0 311 0 0 286 0 0 274 0 0 
130 0 0 232 0 0 280 0 0 303 0 0 344 0 0 432 0 0 488 0 0 552 0 0 663 0 0 820 0 0 2936 0 0 5068 0 0 5365 0 0 5542 0 0 5398 0 0 5441 0 0 5637 0 0 5421 0 0 5570 0 0 5490 0 0 5747 0 0 5692 0 0 5553 0 0 5659 0 0 5720 0 0 5751 0 0 5726 0 0 5678 0 0 5697 0 0 5941 0 0 5770 0 0 5798 0 0 5744 0 0 5756 0 0 5666 0 0 5737 0 0 5862 0 0 5738 0 0 5750 0 0 5637 0 0 5749 0 0 5726 0 0 5692 0 0 5567 0 0 5415 0 0 5467 0 0 5304 0 0 5133 0 0 5253 0 0 4959 0 0 2981 0 0 791 0 0 685 0 0 582 0 0 462 0 0 400 0 0 344 0 0 289 0 0 288 0 0 261 0 0 
110 0 0 225 0 0 265 0 0 340 0 0 364 0 0 447 0 0 515 0 0 585 0 0 634 0 0 821 0 0 2982 0 0 5226 0 0 5228 0 0 5435 0 0 5275 0 0 5501 0 0 5558 0 0 5544 0 0 5665 0 0 5570 0 0 5651 0 0 5565 0 0 5600 0 0 5776 0 0 5426 0 0 5784 0 0 5692 0 0 5728 0 0 5784 0 0 5685 0 0 5655 0 0 5766 0 0 5715 0 0 5561 0 0 5663 0 0 5724 0 0 5744 0 0 5743 0 0 5671 0 0 5630 0 0 5619 0 0 5585 0 0 5571 0 0 5604 0 0 5534 0 0 5499 0 0 5416 0 0 5267 0 0 5117 0 0 5087 0 0 2894 0 0 873 0 0 715 0 0 611 0 0 496 0 0 359 0 0 372 0 0 324 0 0 267 0 0 239 0 0 
117 0 0 229 0 0 254 0 0 304 0 0 324 0 0 385 0 0 475 0 0 516 0 0 662 0 0 809 0 0 2862 0 0 5120 0 0 5190 0 0 5447 0 0 5388 0 0 5508 0 0 5557 0 0 5553 0 0 5523 0 0 5505 0 0 5677 0 0 5673 0 0 5648 0 0 5684 0 0 5643 0 0 5812 0 0 5529 0 0 5675 0 0 5708 0 0 5680 0 0 5688 0 0 5651 0 0 5678 0 0 5764 0 0 5790 0 0 5782 0 0 5712 0 0 5635 0 0 5654 0 0 5446 0 0 5621 0 0 5634 0 0 5700 0 0 5539 0 0 5370 0 0 5386 0 0 5462 0 0 5247 0 0 5346 0 0 5074 0 0 2945 0 0 794 0 0 677 0 0 564 0 0 469 0 0 395 0 0 351 0 0 292 0 0 245 0 0 268 0 0 
101 0 0 228 0 0 251 0 0 292 0 0 358 0 0 380 0 0 457 0 0 502 0 0 670 0 0 801 0 0 2893 0 0 4902 0 0 5052 0 0 5306 0 0 5301 0 0 5382 0 0 5517 0 0 5375 0 0 5596 0 0 5480 0 0 5608 0 0 5627 0 0 5663 0 0 5497 0 0 5506 0 0 5476 0 0 5732 0 0 5643 0 0 5639 0 0 5830 0 0 5687 0 0 5672 0 0 5787 0 0 5632 0 0 5647 0 0 5748 0 0 5603 0 0 5694 0 0 5683 0 0 5710 0 0 5714 0 0 5472 0 0 5503 0 0 5567 0 0 5408 0 0 5453 0 0 5459 0 0 5267 0 0 5313 0 0 5107 0 0 3000 0 0 806 0 0 610 0 0 525 0 0 461 0 0 383 0 0 340 0 0 314 0 0 244 0 0 235 0 0 
80 0 0 229 0 0 253 0 0 299 0 0 302 0 0 367 0 0 412 0 0 521 0 0 626 0 0 762 0 0 2885 0 0 5038 0 0 5112 0 0 5209 0 0 5417 0 0 5428 0 0 5401 0 0 5541 0 0 5690 0 0 5630 0 0 5529 0 0 5509 0 0 5502 0 0 5580 0 0 5545 0 0 5484 0 0 5666 0 0 5485 0 0 5721 0 0 5569 0 0 5705 0 0 5619 0 0 5644 0 0 5574 0 0 5731 0 0 5723 0 0 5694 0 0 5682 0 0 5503 0 0 5534 0 0 5510 0 0 5753 0 0 5527 0 0 5500 0 0 5416 0 0 5477 0 0 5272 0 0 5355 0 0 5063 0 0 4969 0 0 2837 0 0 812 0 0 619 0 0 536 0 0 432 0 0 389 0 0 349 0 0 297 0 0 232 0 0 222 0 0 
85 0 0 236 0 0 261 0 0 280 0 0 321 0 0 381 0 0 459 0 0 448 0 0 598 0 0 724 0 0 2921 0 0 5039 0 0 5053 0 0 5189 0 0 5342 0 0 5432 0 0 5370 0 0 5408 0 0 5519 0 0 5383 0 0 5384 0 0 5402 0 0 5662 0 0 5567 0 0 5574 0 0 5598 0 0 5579 0 0 5601 0 0 5616 0 0 5617 0 0 5526 0 0 5641 0 0 5631 0 0 5602 0 0 5608 0 0 5574 0 0 5730 0 0 5522 0 0 5629 0 0 5586 0 0 5514 0 0 5594 0 0 5408 0 0 5607 0 0 5598 0 0 5355 0 0 5241 0 0 5229 0 0 5079 0 0 5047 0 0 2944 0 0 742 0 0 621 0 0 530 0 0 445 0 0 371 0 0 313 0 0 282 0 0 246 0 0 213 0 0 
115 0 0 206 0 0 219 0 0 257 0 0 349 0 0 348 0 0 426 0 0 493 0 0 584 0 0 719 0 0 2857 0 0 4977 0 0 5047 0 0 5304 0 0 5075 0 0 5479 0 0 5495 0 0 5437 0 0 5516 0 0 5415 0 0 5451 0 0 5451 0 0 5574 0 0 5493 0 0 5506 0 0 5601 0 0 5517 0 0 5537 0 0 5528 0 0 5609 0 0 5578 0 0 5575 0 0 5558 0 0 5535 0 0 5763 0 0 5581 0 0 5485 0 0 5444 0 0 5395 0 0 5465 0 0 5579 0 0 5441 0 0 5396 0 0 5375 0 0 5394 0 0 5311 0 0 5208 0 0 5151 0 0 4986 0 0 4933 0 0 2769 0 0 777 0 0 648 0 0 490 0 0 396 0 0 343 0 0 308 0 0 250 0 0 268 0 0 216 0 0 
95 0 0 215 0 0 230 0 0 268 0 0 292 0 0 340 0 0 406 0 0 462 0 0 598 0 0 715 0 0 2797 0 0 4999 0 0 5105 0 0 5069 0 0 5055 0 0 5371 0 0 5285 0 0 5163 0 0 5520 0 0 5451 0 0 5489 0 0 5448 0 0 5522 0 0 5418 0 0 5646 0 0 5435 0 0 5551 0 0 5403 0 0 5657 0 0 5493 0 0 5575 0 0 5524 0 0 5575 0 0 5623 0 0 5562 0 0 5681 0 0 5478 0 0 5521 0 0 5625 0 0 5365 0 0 5480 0 0 5404 0 0 5309 0 0 5325 0 0 5169 0 0 5317 0 0 5203 0 0 5221 0 0 5124 0 0 4881 0 0 2836 0 0 680 0 0 551 0 0 490 0 0 383 0 0 355 0 0 304 0 0 261 0 0 206 0 0 201 0 0 
85 0 0 210 0 0 219 0 0 263 0 0 305 0 0 350 0 0 406 0 0 449 0 0 545 0 0 678 0 0 2866 0 0 4951 0 0 5098 0 0 5024 0 0 5090 0 0 5186 0 0 5311 0 0 5374 0 0 5239 0 0 5356 0 0 5297 0 0 5314 0 0 5372 0 0 5523 0 0 5418 0 0 5411 0 0 5465 0 0 5338 0 0 5584 0 0 5412 0 0 5555 0 0 5415 0 0 5397 0 0 5504 0 0 5495 0 0 5505 0 0 5377 0 0 5401 0 0 5266 0 0 5405 0 0 5462 0 0 5274 0 0 5282 0 0 5315 0 0 5214 0 0 5203 0 0 5173 0 0 4931 0 0 5013 0 0 5018 0 0 2704 0 0 691 0 0 549 0 0 416 0 0 407 0 0 343 0 0 289 0 0 258 0 0 212 0 0 208 0 0 
92 0 0 154 0 0 213 0 0 217 0 0 264 0 0 346 0 0 386 0 0 421 0 0 514 0 0 594 0 0 2807 0 0 4775 0 0 4869 0 0 5063 0 0 5281 0 0 5033 0 0 5172 0 0 5278 0 0 5314 0 0 5197 0 0 5293 0 0 5323 0 0 5396 0 0 5264 0 0 5380 0 0 5418 0 0 5337 0 0 5352 0 0 5390 0 0 5453 0 0 5434 0 0 5330 0 0 5460 0 0 5352 0 0 5404 0 0 5289 0 0 5404 0 0 5390 0 0 5336 0 0 5331 0 0 5330 0 0 5219 0 0 5230 0 0 5103 0 0 5154 0 0 5103 0 0 5079 0 0 5026 0 0 5024 0 0 4765 0 0 2691 0 0 585 0 0 535 0 0 431 0 0 354 0 0 324 0 0 264 0 0 273 0 0 204 0 0 200 0 0 
66 0 0 170 0 0 202 0 0 259 0 0 248 0 0 294 0 0 376 0 0 406 0 0 485 0 0 647 0 0 2755 0 0 4684 0 0 4869 0 0 4949 0 0 5101 0 0 5035 0 0 5092 0 0 5071 0 0 5196 0 0 5155 0 0 5190 0 0 5063 0 0 5263 0 0 5245 0 0 5283 0 0 5306 0 0 5321 0 0 5107 0 0 5360 0 0 5166 0 0 5141 0 0 5365 0 0 5304 0 0 5131 0 0 5214 0 0 5230 0 0 5177 0 0 5251 0 0 5299 0 0 5201 0 0 5230 0 0 5133 0 0 5145 0 0 5121 0 0 5120 0 0 5029 0 0 4968 0 0 5046 0 0 4791 0 0 4716 0 0 2729 0 0 595 0 0 485 0 0 372 0 0 329 0 0 311 0 0 291 0 0 237 0 0 214 0 0 188 0 0 
79 0 0 195 0 0 220 0 0 220 0 0 231 0 0 271 0 0 334 0 0 338 0 0 462 0 0 599 0 0 2742 0 0 4683 0 0 4875 0 0 4840 0 0 4939 0 0 4899 0 0 4980 0 0 4920 0 0 5095 0 0 5129 0 0 5015 0 0 5071 0 0 5061 0 0 5180 0 0 5075 0 0 5087 0 0 5063 0 0 5177 0 0 5125 0 0 4981 0 0 5097 0 0 5150 0 0 5015 0 0 5151 0 0 4928 0 0 5054 0 0 4981 0 0 5169 0 0 4933 0 0 5062 0 0 5105 0 0 4961 0 0 4996 0 0 5165 0 0 4974 0 0 5030 0 0 4899 0 0 4911 0 0 4829 0 0 4627 0 0 2557 0 0 562 0 0 433 0 0 411 0 0 348 0 0 309 0 0 254 0 0 208 0 0 201 0 0 185 0 0 
83 0 0 165 0 0 195 0 0 211 0 0 225 0 0 259 0 0 290 0 0 345 0 0 400 0 0 464 0 0 1562 0 0 2612 0 0 2678 0 0 2700 0 0 2702 0 0 2800 0 0 2816 0 0 2894 0 0 2871 0 0 2864 0 0 2917 0 0 2972 0 0 3053 0 0 2912 0 0 2924 0 0 2979 0 0 3008 0 0 2961 0 0 2968 0 0 3037 0 0 2987 0 0 2937 0 0 2802 0 0 2934 0 0 2958 0 0 2950 0 0 2935 0 0 2962 0 0 2879 0 0 2932 0 0 2833 0 0 2849 0 0 2875 0 0 2797 0 0 2932 0 0 2803 0 0 2728 0 0 2698 0 0 2610 0 0 2658 0 0 1505 0 0 496 0 0 374 0 0 374 0 0 286 0 0 258 0 0 218 0 0 199 0 0 186 0 0 158 0 0 
64 0 0 170 0 0 177 0 0 193 0 0 209 0 0 235 0 0 272 0 0 317 0 0 355 0 0 430 0 0 474 0 0 557 0 0 606 0 0 661 0 0 629 0 0 713 0 0 738 0 0 742 0 0 778 0 0 757 0 0 821 0 0 813 0 0 815 0 0 834 0 0 867 0 0 920 0 0 831 0 0 837 0 0 859 0 0 816 0 0 832 0 0 794 0 0 859 0 0 824 0 0 877 0 0 850 0 0 840 0 0 812 0 0 806 0 0 771 0 0 847 0 0 799 0 0 781 0 0 738 0 0 768 0 0 709 0 0 668 0 0 633 0 0 633 0 0 528 0 0 536 0 0 387 0 0 382 0 0 310 0 0 275 0 0 246 0 0 230 0 0 193 0 0 173 0 0 167 0 0 
71 0 0 177 0 0 134 0 0 209 0 0 192 0 0 240 0 0 249 0 0 274 0 0 312 0 0 338 0 0 381 0 0 463 0 0 487 0 0 518 0 0 560 0 0 550 0 0 619 0 0 641 0 0 614 0 0 614 0 0 672 0 0 640 0 0 693 0 0 671 0 0 687 0 0 772 0 0 722 0 0 655 0 0 694 0 0 683 0 0 710 0 0 698 0 0 676 0 0 646 0 0 733 0 0 698 0 0 690 0 0 675 0 0 647 0 0 655 0 0 640 0 0 646 0 0 637 0 0 636 0 0 546 0 0 568 0 0 518 0 0 471 0 0 453 0 0 449 0 0 394 0 0 331 0 0 326 0 0 290 0 0 237 0 0 202 0 0 206 0 0 168 0 0 168 0 0 166 0 0 
63 0 0 139 0 0 151 0 0 164 0 0 187 0 0 222 0 0 226 0 0 238 0 0 285 0 0 296 0 0 353 0 0 389 0 0 432 0 0 447 0 0 457 0 0 503 0 0 535 0 0 478 0 0 491 0 0 526 0 0 563 0 0 566 0 0 577 0 0 531 0 0 558 0 0 565 0 0 645 0 0 614 0 0 568 0 0 596 0 0 644 0 0 601 0 0 598 0 0 615 0 0 608 0 0 577 0 0 565 0 0 541 0 0 587 0 0 568 0 0 546 0 0 552 0 0 508 0 0 490 0 0 487 0 0 450 0 0 441 0 0 436 0 0 404 0 0 382 0 0 321 0 0 310 0 0 311 0 0 253 0 0 246 0 0 202 0 0 189 0 0 129 0 0 169 0 0 148 0 0 
64 0 0 98 0 0 148 0 0 132 0 0 160 0 0 172 0 0 227 0 0 234 0 0 235 0 0 241 0 0 287 0 0 347 0 0 366 0 0 363 0 0 366 0 0 427 0 0 424 0 0 432 0 0 451 0 0 411 0 0 462 0 0 485 0 0 509 0 0 509 0 0 513 0 0 509 0 0 486 0 0 542 0 0 488 0 0 502 0 0 489 0 0 539 0 0 532 0 0 472 0 0 476 0 0 522 0 0 474 0 0 465 0 0 482 0 0 481 0 0 469 0 0 453 0 0 433 0 0 472 0 0 434 0 0 418 0 0 383 0 0 378 0 0 343 0 0 347 0 0 286 0 0 271 0 0 248 0 0 216 0 0 212 0 0 220 0 0 155 0 0 136 0 0 150 0 0 140 0 0 
63 0 0 116 0 0 130 0 0 133 0 0 134 0 0 177 0 0 173 0 0 225 0 0 215 0 0 232 0 0 243 0 0 286 0 0 319 0 0 315 0 0 320 0 0 336 0 0 335 0 0 361 0 0 415 0 0 409 0 0 409 0 0 417 0 0 379 0 0 412 0 0 413 0 0 429 0 0 425 0 0 436 0 0 465 0 0 432 0 0 438 0 0 439 0 0 414 0 0 421 0 0 408 0 0 423 0 0 408 0 0 440 0 0 401 0 0 423 0 0 435 0 0 400 0 0 393 0 0 378 0 0 414 0 0 324 0 0 314 0 0 295 0 0 270 0 0 313 0 0 247 0 0 257 0 0 240 0 0 218 0 0 188 0 0 176 0 0 162 0 0 148 0 0 131 0 0 112 0 0 
51 0 0 101 0 0 125 0 0 120 0 0 136 0 0 148 0 0 188 0 0 164 0 0 201 0 0 238 0 0 223 0 0 241 0 0 273 0 0 286 0 0 299 0 0 283 0 0 348 0 0 297 0 0 327 0 0 353 0 0 355 0 0 313 0 0 366 0 0 364 0 0 364 0 0 413 0 0 387 0 0 411 0 0 380 0 0 398 0 0 397 0 0 414 0 0 396 0 0 370 0 0 407 0 0 370 0 0 418 0 0 375 0 0 349 0 0 380 0 0 341 0 0 357 0 0 333 0 0 308 0 0 327 0 0 322 0 0 305 0 0 281 0 0 249 0 0 233 0 0 241 0 0 205 0 0 215 0 0 190 0 0 148 0 0 175 0 0 151 0 0 132 0 0 119 0 0 95 0 0 
36 0 0 106 0 0 123 0 0 123 0 0 142 0 0 147 0 0 165 0 0 180 0 0 177 0 0 200 0 0 190 0 0 205 0 0 217 0 0 233 0 0 237 0 0 259 0 0 257 0 0 271 0 0 327 0 0 300 0 0 298 0 0 312 0 0 340 0 0 330 0 0 332 0 0 310 0 0 334 0 0 340 0 0 335 0 0 334 0 0 323 0 0 359 0 0 308 0 0 331 0 0 330 0 0 322 0 0 329 0 0 333 0 0 303 0 0 317 0 0 310 0 0 292 0 0 293 0 0 282 0 0 244 0 0 256 0 0 287 0 0 246 0 0 263 0 0 223 0 0 190 0 0 171 0 0 169 0 0 168 0 0 166 0 0 134 0 0 172 0 0 118 0 0 107 0 0 121 0 0 
54 0 0 95 0 0 103 0 0 103 0 0 136 0 0 130 0 0 132 0 0 145 0 0 173 0 0 158 0 0 184 0 0 174 0 0 188 0 0 226 0 0 224 0 0 235 0 0 232 0 0 242 0 0 260 0 0 266 0 0 272 0 0 283 0 0 299 0 0 273 0 0 284 0 0 307 0 0 289 0 0 289 0 0 296 0 0 246 0 0 298 0 0 312 0 0 300 0 0 280 0 0 297 0 0 288 0 0 269 0 0 264 0 0 299 0 0 269 0 0 273 0 0 252 0 0 238 0 0 229 0 0 265 0 0 237 0 0 228 0 0 223 0 0 207 0 0 192 0 0 189 0 0 175 0 0 166 0 0 160 0 0 149 0 0 141 0 0 124 0 0 123 0 0 97 0 0 95 0 0 
52 0 0 82 0 0 113 0 0 104 0 0 108 0 0 107 0 0 119 0 0 148 0 0 154 0 0 152 0 0 160 0 0 193 0 0 189 0 0 197 0 0 212 0 0 214 0 0 213 0 0 227 0 0 221 0 0 217 0 0 250 0 0 263 0 0 237 0 0 244 0 0 276 0 0 254 0 0 245 0 0 268 0 0 273 0 0 282 0 0 249 0 0 228 0 0 236 0 0 257 0 0 263 0 0 255 0 0 267 0 0 230 0 0 251 0 0 268 0 0 250 0 0 192 0 0 222 0 0 228 0 0 223 0 0 200 0 0 211 0 0 175 0 0 159 0 0 181 0 0 165 0 0 154 0 0 146 0 0 119 0 0 133 0 0 116 0 0 116 0 0 94 0 0 92 0 0 93 0 0 
