P3
# This is a dose file slice at depth 32 of 100
60 60
# now we give the maximum value of the RGB coordinates.
6518
35 0 0 54 0 0 77 0 0 75 0 0 99 0 0 96 0 0 104 0 0 104 0 0 117 0 0 110 0 0 107 0 0 132 0 0 96 0 0 147 0 0 142 0 0 121 0 0 158 0 0 177 0 0 150 0 0 179 0 0 156 0 0 167 0 0 163 0 0 205 0 0 178 0 0 165 0 0 169 0 0 152 0 0 180 0 0 199 0 0 180 0 0 187 0 0 175 0 0 167 0 0 174 0 0 183 0 0 162 0 0 177 0 0 190 0 0 152 0 0 161 0 0 187 0 0 155 0 0 170 0 0 139 0 0 146 0 0 134 0 0 126 0 0 119 0 0 136 0 0 129 0 0 102 0 0 109 0 0 108 0 0 96 0 0 90 0 0 87 0 0 96 0 0 66 0 0 64 0 0 
78 0 0 146 0 0 159 0 0 192 0 0 189 0 0 217 0 0 211 0 0 207 0 0 238 0 0 237 0 0 275 0 0 257 0 0 269 0 0 305 0 0 297 0 0 337 0 0 334 0 0 321 0 0 352 0 0 340 0 0 367 0 0 365 0 0 367 0 0 404 0 0 359 0 0 363 0 0 424 0 0 384 0 0 396 0 0 412 0 0 383 0 0 402 0 0 370 0 0 401 0 0 391 0 0 394 0 0 378 0 0 388 0 0 349 0 0 323 0 0 389 0 0 396 0 0 351 0 0 358 0 0 353 0 0 315 0 0 343 0 0 290 0 0 290 0 0 242 0 0 290 0 0 274 0 0 237 0 0 204 0 0 196 0 0 197 0 0 174 0 0 142 0 0 143 0 0 143 0 0 
74 0 0 158 0 0 155 0 0 188 0 0 195 0 0 214 0 0 211 0 0 223 0 0 276 0 0 269 0 0 285 0 0 309 0 0 314 0 0 321 0 0 324 0 0 346 0 0 333 0 0 380 0 0 404 0 0 408 0 0 430 0 0 390 0 0 449 0 0 422 0 0 459 0 0 450 0 0 449 0 0 474 0 0 406 0 0 470 0 0 431 0 0 421 0 0 478 0 0 449 0 0 434 0 0 426 0 0 406 0 0 397 0 0 400 0 0 422 0 0 390 0 0 405 0 0 389 0 0 419 0 0 345 0 0 355 0 0 317 0 0 317 0 0 336 0 0 274 0 0 280 0 0 240 0 0 213 0 0 256 0 0 231 0 0 193 0 0 214 0 0 194 0 0 175 0 0 135 0 0 
81 0 0 153 0 0 196 0 0 202 0 0 222 0 0 225 0 0 261 0 0 242 0 0 282 0 0 289 0 0 308 0 0 311 0 0 343 0 0 344 0 0 366 0 0 398 0 0 415 0 0 395 0 0 477 0 0 453 0 0 458 0 0 483 0 0 472 0 0 445 0 0 500 0 0 506 0 0 459 0 0 534 0 0 474 0 0 498 0 0 469 0 0 465 0 0 513 0 0 502 0 0 506 0 0 471 0 0 450 0 0 473 0 0 438 0 0 463 0 0 465 0 0 408 0 0 459 0 0 419 0 0 391 0 0 377 0 0 353 0 0 368 0 0 330 0 0 334 0 0 311 0 0 299 0 0 276 0 0 280 0 0 260 0 0 223 0 0 206 0 0 212 0 0 202 0 0 170 0 0 
82 0 0 173 0 0 210 0 0 184 0 0 242 0 0 268 0 0 242 0 0 295 0 0 304 0 0 350 0 0 361 0 0 381 0 0 370 0 0 398 0 0 418 0 0 454 0 0 447 0 0 498 0 0 464 0 0 498 0 0 537 0 0 516 0 0 542 0 0 500 0 0 526 0 0 595 0 0 506 0 0 538 0 0 557 0 0 562 0 0 537 0 0 554 0 0 551 0 0 589 0 0 506 0 0 538 0 0 519 0 0 537 0 0 481 0 0 488 0 0 499 0 0 433 0 0 416 0 0 485 0 0 443 0 0 447 0 0 444 0 0 384 0 0 392 0 0 370 0 0 362 0 0 315 0 0 299 0 0 298 0 0 295 0 0 248 0 0 206 0 0 211 0 0 210 0 0 187 0 0 
108 0 0 206 0 0 209 0 0 240 0 0 248 0 0 283 0 0 276 0 0 308 0 0 337 0 0 336 0 0 381 0 0 417 0 0 376 0 0 431 0 0 431 0 0 466 0 0 528 0 0 513 0 0 526 0 0 518 0 0 553 0 0 600 0 0 582 0 0 612 0 0 587 0 0 621 0 0 634 0 0 599 0 0 593 0 0 661 0 0 602 0 0 615 0 0 602 0 0 608 0 0 611 0 0 637 0 0 592 0 0 588 0 0 592 0 0 596 0 0 555 0 0 521 0 0 521 0 0 556 0 0 502 0 0 509 0 0 486 0 0 435 0 0 476 0 0 411 0 0 378 0 0 357 0 0 298 0 0 313 0 0 280 0 0 295 0 0 257 0 0 228 0 0 204 0 0 203 0 0 
88 0 0 182 0 0 205 0 0 233 0 0 243 0 0 274 0 0 297 0 0 333 0 0 369 0 0 401 0 0 433 0 0 438 0 0 491 0 0 534 0 0 521 0 0 546 0 0 586 0 0 564 0 0 635 0 0 624 0 0 644 0 0 617 0 0 647 0 0 621 0 0 687 0 0 684 0 0 651 0 0 649 0 0 652 0 0 680 0 0 703 0 0 626 0 0 656 0 0 665 0 0 671 0 0 662 0 0 640 0 0 608 0 0 689 0 0 646 0 0 651 0 0 586 0 0 626 0 0 577 0 0 560 0 0 552 0 0 504 0 0 510 0 0 471 0 0 427 0 0 401 0 0 346 0 0 377 0 0 337 0 0 303 0 0 298 0 0 227 0 0 253 0 0 232 0 0 225 0 0 
87 0 0 227 0 0 218 0 0 262 0 0 275 0 0 319 0 0 315 0 0 356 0 0 403 0 0 432 0 0 501 0 0 503 0 0 576 0 0 556 0 0 582 0 0 602 0 0 612 0 0 620 0 0 654 0 0 651 0 0 722 0 0 698 0 0 708 0 0 752 0 0 778 0 0 705 0 0 734 0 0 763 0 0 755 0 0 714 0 0 763 0 0 772 0 0 822 0 0 708 0 0 756 0 0 733 0 0 733 0 0 738 0 0 711 0 0 701 0 0 682 0 0 675 0 0 660 0 0 652 0 0 626 0 0 597 0 0 623 0 0 556 0 0 513 0 0 499 0 0 480 0 0 413 0 0 378 0 0 382 0 0 351 0 0 304 0 0 285 0 0 278 0 0 278 0 0 229 0 0 
102 0 0 200 0 0 288 0 0 252 0 0 311 0 0 318 0 0 353 0 0 386 0 0 418 0 0 463 0 0 480 0 0 576 0 0 608 0 0 632 0 0 638 0 0 630 0 0 709 0 0 778 0 0 760 0 0 825 0 0 782 0 0 810 0 0 842 0 0 819 0 0 829 0 0 881 0 0 902 0 0 845 0 0 900 0 0 883 0 0 851 0 0 864 0 0 857 0 0 785 0 0 851 0 0 810 0 0 871 0 0 822 0 0 868 0 0 857 0 0 791 0 0 798 0 0 750 0 0 786 0 0 683 0 0 661 0 0 705 0 0 618 0 0 597 0 0 541 0 0 480 0 0 485 0 0 412 0 0 401 0 0 351 0 0 316 0 0 316 0 0 273 0 0 229 0 0 249 0 0 
120 0 0 293 0 0 255 0 0 289 0 0 287 0 0 318 0 0 361 0 0 415 0 0 450 0 0 568 0 0 567 0 0 641 0 0 670 0 0 714 0 0 831 0 0 831 0 0 777 0 0 906 0 0 890 0 0 873 0 0 937 0 0 884 0 0 951 0 0 956 0 0 984 0 0 938 0 0 955 0 0 960 0 0 951 0 0 920 0 0 965 0 0 967 0 0 980 0 0 1034 0 0 972 0 0 964 0 0 975 0 0 874 0 0 950 0 0 927 0 0 954 0 0 927 0 0 865 0 0 849 0 0 823 0 0 781 0 0 774 0 0 748 0 0 669 0 0 634 0 0 591 0 0 533 0 0 449 0 0 411 0 0 396 0 0 333 0 0 309 0 0 313 0 0 270 0 0 275 0 0 
113 0 0 232 0 0 287 0 0 320 0 0 315 0 0 359 0 0 408 0 0 448 0 0 500 0 0 572 0 0 1226 0 0 1884 0 0 1866 0 0 1926 0 0 1924 0 0 2040 0 0 1987 0 0 1987 0 0 2116 0 0 2010 0 0 2105 0 0 2171 0 0 2201 0 0 2175 0 0 2220 0 0 2178 0 0 2214 0 0 2239 0 0 2187 0 0 2187 0 0 2170 0 0 2228 0 0 2289 0 0 2203 0 0 2244 0 0 2149 0 0 2222 0 0 2173 0 0 2150 0 0 2152 0 0 2117 0 0 2096 0 0 2054 0 0 2095 0 0 2036 0 0 1982 0 0 2001 0 0 1908 0 0 1908 0 0 1864 0 0 1211 0 0 565 0 0 479 0 0 446 0 0 400 0 0 389 0 0 354 0 0 322 0 0 268 0 0 263 0 0 
117 0 0 253 0 0 327 0 0 330 0 0 362 0 0 399 0 0 453 0 0 478 0 0 538 0 0 633 0 0 1836 0 0 2933 0 0 3175 0 0 3112 0 0 3129 0 0 3240 0 0 3189 0 0 3362 0 0 3412 0 0 3327 0 0 3268 0 0 3453 0 0 3386 0 0 3451 0 0 3327 0 0 3392 0 0 3416 0 0 3377 0 0 3487 0 0 3378 0 0 3423 0 0 3436 0 0 3442 0 0 3479 0 0 3420 0 0 3366 0 0 3500 0 0 3365 0 0 3370 0 0 3323 0 0 3307 0 0 3343 0 0 3321 0 0 3328 0 0 3251 0 0 3183 0 0 3116 0 0 3167 0 0 3072 0 0 3005 0 0 1776 0 0 638 0 0 537 0 0 465 0 0 457 0 0 401 0 0 345 0 0 300 0 0 267 0 0 269 0 0 
113 0 0 265 0 0 297 0 0 351 0 0 344 0 0 431 0 0 473 0 0 528 0 0 572 0 0 755 0 0 1827 0 0 3079 0 0 3082 0 0 3255 0 0 3364 0 0 3341 0 0 3371 0 0 3308 0 0 3399 0 0 3463 0 0 3544 0 0 3513 0 0 3575 0 0 3515 0 0 3508 0 0 3676 0 0 3502 0 0 3555 0 0 3629 0 0 3507 0 0 3532 0 0 3572 0 0 3524 0 0 3555 0 0 3513 0 0 3502 0 0 3527 0 0 3417 0 0 3448 0 0 3530 0 0 3502 0 0 3520 0 0 3493 0 0 3425 0 0 3435 0 0 3320 0 0 3221 0 0 3263 0 0 3079 0 0 3037 0 0 1870 0 0 657 0 0 590 0 0 517 0 0 486 0 0 448 0 0 368 0 0 353 0 0 322 0 0 277 0 0 
130 0 0 284 0 0 334 0 0 322 0 0 443 0 0 440 0 0 478 0 0 535 0 0 668 0 0 725 0 0 1950 0 0 3070 0 0 3223 0 0 3219 0 0 3371 0 0 3328 0 0 3406 0 0 3704 0 0 3580 0 0 3627 0 0 3526 0 0 3469 0 0 3643 0 0 3545 0 0 3526 0 0 3770 0 0 3678 0 0 3709 0 0 3731 0 0 3763 0 0 3679 0 0 3736 0 0 3697 0 0 3771 0 0 3699 0 0 3547 0 0 3613 0 0 3710 0 0 3699 0 0 3706 0 0 3570 0 0 3543 0 0 3559 0 0 3480 0 0 3381 0 0 3358 0 0 3410 0 0 3254 0 0 3227 0 0 3151 0 0 1983 0 0 712 0 0 622 0 0 556 0 0 459 0 0 442 0 0 394 0 0 375 0 0 338 0 0 297 0 0 
128 0 0 333 0 0 346 0 0 356 0 0 401 0 0 475 0 0 508 0 0 584 0 0 655 0 0 776 0 0 2019 0 0 3177 0 0 3280 0 0 3366 0 0 3484 0 0 3468 0 0 3620 0 0 3581 0 0 3559 0 0 3627 0 0 3600 0 0 3690 0 0 3697 0 0 3690 0 0 3712 0 0 3662 0 0 3860 0 0 3722 0 0 3745 0 0 3721 0 0 3773 0 0 3749 0 0 3710 0 0 3750 0 0 3713 0 0 3765 0 0 3805 0 0 3708 0 0 3707 0 0 3729 0 0 3689 0 0 3632 0 0 3632 0 0 3542 0 0 3419 0 0 3483 0 0 3403 0 0 3342 0 0 3268 0 0 3177 0 0 1928 0 0 781 0 0 637 0 0 582 0 0 521 0 0 500 0 0 413 0 0 390 0 0 327 0 0 308 0 0 
146 0 0 319 0 0 338 0 0 416 0 0 441 0 0 492 0 0 545 0 0 587 0 0 692 0 0 805 0 0 2036 0 0 3224 0 0 3378 0 0 3454 0 0 3422 0 0 3530 0 0 3710 0 0 3589 0 0 3773 0 0 3581 0 0 3675 0 0 3709 0 0 3817 0 0 3791 0 0 3743 0 0 3687 0 0 3832 0 0 3798 0 0 3779 0 0 3738 0 0 3746 0 0 3775 0 0 3805 0 0 3811 0 0 3852 0 0 3854 0 0 3768 0 0 3730 0 0 3790 0 0 3735 0 0 3660 0 0 3605 0 0 3594 0 0 3606 0 0 3561 0 0 3570 0 0 3527 0 0 3471 0 0 3371 0 0 3147 0 0 1924 0 0 760 0 0 663 0 0 599 0 0 507 0 0 487 0 0 409 0 0 364 0 0 351 0 0 315 0 0 
154 0 0 354 0 0 375 0 0 414 0 0 440 0 0 498 0 0 583 0 0 602 0 0 748 0 0 762 0 0 2049 0 0 3238 0 0 3337 0 0 3486 0 0 3612 0 0 3607 0 0 3622 0 0 3679 0 0 3815 0 0 3713 0 0 3740 0 0 3748 0 0 3845 0 0 3790 0 0 3926 0 0 3860 0 0 3770 0 0 3790 0 0 3874 0 0 3862 0 0 3891 0 0 3911 0 0 3840 0 0 3847 0 0 3820 0 0 3896 0 0 3959 0 0 3870 0 0 3878 0 0 3794 0 0 3680 0 0 3833 0 0 3685 0 0 3578 0 0 3594 0 0 3595 0 0 3532 0 0 3438 0 0 3307 0 0 3263 0 0 1947 0 0 830 0 0 714 0 0 605 0 0 534 0 0 507 0 0 475 0 0 391 0 0 363 0 0 341 0 0 
147 0 0 376 0 0 346 0 0 426 0 0 485 0 0 550 0 0 602 0 0 665 0 0 725 0 0 847 0 0 2078 0 0 3292 0 0 3491 0 0 3467 0 0 3554 0 0 3619 0 0 3571 0 0 3677 0 0 3678 0 0 3770 0 0 3856 0 0 3858 0 0 3827 0 0 3924 0 0 3832 0 0 3916 0 0 3980 0 0 3892 0 0 3984 0 0 3878 0 0 3980 0 0 3982 0 0 3896 0 0 3898 0 0 3917 0 0 3683 0 0 3890 0 0 3866 0 0 3817 0 0 3861 0 0 3894 0 0 3872 0 0 3652 0 0 3682 0 0 3565 0 0 3704 0 0 3663 0 0 3527 0 0 3383 0 0 3448 0 0 2113 0 0 750 0 0 759 0 0 642 0 0 573 0 0 524 0 0 482 0 0 405 0 0 352 0 0 346 0 0 
182 0 0 348 0 0 420 0 0 438 0 0 510 0 0 511 0 0 596 0 0 675 0 0 785 0 0 828 0 0 2120 0 0 3359 0 0 3453 0 0 3471 0 0 3682 0 0 3788 0 0 3680 0 0 3797 0 0 3682 0 0 3812 0 0 3934 0 0 3930 0 0 3947 0 0 3896 0 0 3970 0 0 3885 0 0 4029 0 0 4048 0 0 4016 0 0 3926 0 0 3856 0 0 4052 0 0 3905 0 0 3973 0 0 3893 0 0 3858 0 0 3936 0 0 3880 0 0 3905 0 0 3744 0 0 3948 0 0 3898 0 0 3818 0 0 3767 0 0 3659 0 0 3776 0 0 3576 0 0 3503 0 0 3542 0 0 3326 0 0 2077 0 0 881 0 0 721 0 0 652 0 0 594 0 0 517 0 0 517 0 0 400 0 0 401 0 0 347 0 0 
166 0 0 339 0 0 392 0 0 463 0 0 484 0 0 538 0 0 610 0 0 750 0 0 771 0 0 867 0 0 2098 0 0 3333 0 0 3463 0 0 3586 0 0 3589 0 0 3667 0 0 3734 0 0 3665 0 0 3829 0 0 3881 0 0 3936 0 0 3943 0 0 3911 0 0 3917 0 0 3995 0 0 3997 0 0 3958 0 0 4007 0 0 3891 0 0 4038 0 0 4123 0 0 4054 0 0 4107 0 0 3953 0 0 3982 0 0 3969 0 0 3970 0 0 4036 0 0 3916 0 0 3937 0 0 3934 0 0 3855 0 0 3926 0 0 3770 0 0 3787 0 0 3688 0 0 3630 0 0 3505 0 0 3533 0 0 3458 0 0 2172 0 0 907 0 0 772 0 0 675 0 0 605 0 0 569 0 0 494 0 0 417 0 0 403 0 0 342 0 0 
159 0 0 355 0 0 399 0 0 461 0 0 482 0 0 527 0 0 634 0 0 719 0 0 738 0 0 912 0 0 2105 0 0 3498 0 0 3462 0 0 3626 0 0 3676 0 0 3639 0 0 3710 0 0 3821 0 0 3927 0 0 4016 0 0 3874 0 0 3927 0 0 3924 0 0 4006 0 0 3942 0 0 4031 0 0 3937 0 0 4048 0 0 4033 0 0 3917 0 0 4065 0 0 4069 0 0 3982 0 0 4137 0 0 4087 0 0 4049 0 0 4082 0 0 4016 0 0 4046 0 0 4010 0 0 4024 0 0 3876 0 0 3947 0 0 3902 0 0 3886 0 0 3691 0 0 3649 0 0 3577 0 0 3531 0 0 3313 0 0 2134 0 0 872 0 0 773 0 0 719 0 0 601 0 0 546 0 0 500 0 0 441 0 0 385 0 0 375 0 0 
150 0 0 393 0 0 414 0 0 474 0 0 527 0 0 573 0 0 604 0 0 656 0 0 754 0 0 919 0 0 2255 0 0 3398 0 0 3470 0 0 3669 0 0 3745 0 0 3723 0 0 3663 0 0 3884 0 0 3850 0 0 3959 0 0 4075 0 0 3994 0 0 3955 0 0 4059 0 0 4046 0 0 4070 0 0 4039 0 0 3944 0 0 4085 0 0 4154 0 0 4008 0 0 4116 0 0 4014 0 0 4019 0 0 4030 0 0 4056 0 0 4117 0 0 4011 0 0 4041 0 0 4011 0 0 3969 0 0 3865 0 0 3907 0 0 3738 0 0 3878 0 0 3805 0 0 3626 0 0 3563 0 0 3526 0 0 3289 0 0 2176 0 0 929 0 0 871 0 0 707 0 0 634 0 0 583 0 0 485 0 0 466 0 0 405 0 0 345 0 0 
156 0 0 372 0 0 427 0 0 488 0 0 537 0 0 570 0 0 629 0 0 706 0 0 828 0 0 918 0 0 2092 0 0 3531 0 0 3596 0 0 3646 0 0 3725 0 0 3692 0 0 3763 0 0 3868 0 0 3874 0 0 3928 0 0 3923 0 0 3982 0 0 3938 0 0 3934 0 0 3970 0 0 4027 0 0 4150 0 0 4123 0 0 4202 0 0 4133 0 0 4106 0 0 4156 0 0 4187 0 0 3992 0 0 4068 0 0 4051 0 0 3928 0 0 4082 0 0 3902 0 0 4022 0 0 3968 0 0 3916 0 0 3894 0 0 3882 0 0 3825 0 0 3813 0 0 3700 0 0 3689 0 0 3572 0 0 3371 0 0 2104 0 0 943 0 0 860 0 0 754 0 0 626 0 0 538 0 0 570 0 0 474 0 0 409 0 0 423 0 0 
189 0 0 360 0 0 414 0 0 484 0 0 521 0 0 527 0 0 655 0 0 727 0 0 827 0 0 978 0 0 2167 0 0 3436 0 0 3504 0 0 3643 0 0 3731 0 0 3840 0 0 3856 0 0 3707 0 0 3846 0 0 4015 0 0 3964 0 0 4053 0 0 3927 0 0 4070 0 0 4089 0 0 3942 0 0 4001 0 0 4169 0 0 4211 0 0 4173 0 0 4086 0 0 4150 0 0 4144 0 0 4226 0 0 4065 0 0 4084 0 0 4057 0 0 3986 0 0 4027 0 0 3992 0 0 4079 0 0 4011 0 0 3912 0 0 3840 0 0 3817 0 0 3684 0 0 3671 0 0 3669 0 0 3582 0 0 3502 0 0 2180 0 0 912 0 0 845 0 0 746 0 0 703 0 0 595 0 0 467 0 0 513 0 0 421 0 0 368 0 0 
181 0 0 382 0 0 437 0 0 483 0 0 510 0 0 559 0 0 675 0 0 730 0 0 854 0 0 904 0 0 2221 0 0 3405 0 0 3511 0 0 3693 0 0 3669 0 0 3797 0 0 3852 0 0 3818 0 0 3908 0 0 4073 0 0 3961 0 0 3945 0 0 4138 0 0 3959 0 0 4174 0 0 4121 0 0 4310 0 0 4132 0 0 4211 0 0 4117 0 0 4179 0 0 4149 0 0 4045 0 0 4083 0 0 4063 0 0 3992 0 0 4123 0 0 4067 0 0 3988 0 0 4106 0 0 3956 0 0 3995 0 0 4024 0 0 3946 0 0 3908 0 0 3744 0 0 3728 0 0 3645 0 0 3553 0 0 3393 0 0 2217 0 0 994 0 0 858 0 0 721 0 0 640 0 0 589 0 0 538 0 0 507 0 0 405 0 0 384 0 0 
183 0 0 398 0 0 425 0 0 474 0 0 515 0 0 614 0 0 642 0 0 762 0 0 851 0 0 977 0 0 2196 0 0 3406 0 0 3601 0 0 3689 0 0 3735 0 0 3846 0 0 3881 0 0 3989 0 0 4049 0 0 3863 0 0 3969 0 0 4012 0 0 4044 0 0 4150 0 0 4187 0 0 4020 0 0 4192 0 0 4111 0 0 4112 0 0 4106 0 0 4170 0 0 4192 0 0 4163 0 0 4234 0 0 4070 0 0 4205 0 0 4066 0 0 4087 0 0 4129 0 0 4085 0 0 4062 0 0 3916 0 0 3919 0 0 4032 0 0 3781 0 0 3947 0 0 3726 0 0 3758 0 0 3497 0 0 3434 0 0 2189 0 0 992 0 0 881 0 0 738 0 0 689 0 0 580 0 0 595 0 0 452 0 0 446 0 0 423 0 0 
199 0 0 416 0 0 470 0 0 467 0 0 533 0 0 583 0 0 627 0 0 742 0 0 785 0 0 965 0 0 2210 0 0 3470 0 0 3586 0 0 3706 0 0 3705 0 0 3804 0 0 3874 0 0 3940 0 0 3951 0 0 4031 0 0 4029 0 0 3981 0 0 4118 0 0 4049 0 0 4167 0 0 4189 0 0 4012 0 0 4155 0 0 4239 0 0 4116 0 0 4199 0 0 4154 0 0 4344 0 0 4092 0 0 4307 0 0 4179 0 0 4038 0 0 4045 0 0 4166 0 0 3994 0 0 4060 0 0 4074 0 0 3961 0 0 3757 0 0 3674 0 0 3662 0 0 3835 0 0 3633 0 0 3564 0 0 3422 0 0 2213 0 0 995 0 0 822 0 0 717 0 0 680 0 0 563 0 0 549 0 0 486 0 0 433 0 0 380 0 0 
185 0 0 359 0 0 451 0 0 502 0 0 525 0 0 597 0 0 678 0 0 745 0 0 860 0 0 938 0 0 2159 0 0 3522 0 0 3560 0 0 3650 0 0 3699 0 0 3847 0 0 4026 0 0 4008 0 0 3863 0 0 3950 0 0 4074 0 0 4143 0 0 4094 0 0 4066 0 0 4087 0 0 4033 0 0 4211 0 0 4160 0 0 4164 0 0 4130 0 0 4134 0 0 4172 0 0 4088 0 0 4104 0 0 4015 0 0 4116 0 0 4120 0 0 4154 0 0 4165 0 0 3985 0 0 4184 0 0 4153 0 0 3955 0 0 3826 0 0 3972 0 0 3648 0 0 3842 0 0 3698 0 0 3618 0 0 3482 0 0 2284 0 0 939 0 0 902 0 0 782 0 0 646 0 0 582 0 0 521 0 0 517 0 0 425 0 0 421 0 0 
197 0 0 391 0 0 427 0 0 451 0 0 560 0 0 627 0 0 685 0 0 747 0 0 859 0 0 1011 0 0 2256 0 0 3509 0 0 3569 0 0 3684 0 0 3763 0 0 3806 0 0 3795 0 0 3834 0 0 3974 0 0 4065 0 0 4139 0 0 3944 0 0 4078 0 0 4116 0 0 4069 0 0 4034 0 0 4218 0 0 4155 0 0 4153 0 0 4099 0 0 4184 0 0 4245 0 0 4162 0 0 4228 0 0 4133 0 0 4236 0 0 4015 0 0 4067 0 0 4166 0 0 4001 0 0 4060 0 0 3947 0 0 4008 0 0 3961 0 0 3788 0 0 3846 0 0 3763 0 0 3549 0 0 3501 0 0 3535 0 0 2282 0 0 1036 0 0 883 0 0 826 0 0 696 0 0 649 0 0 515 0 0 457 0 0 467 0 0 380 0 0 
164 0 0 395 0 0 468 0 0 493 0 0 539 0 0 593 0 0 653 0 0 805 0 0 901 0 0 972 0 0 2200 0 0 3465 0 0 3579 0 0 3675 0 0 3681 0 0 3773 0 0 3998 0 0 3937 0 0 3897 0 0 3988 0 0 4113 0 0 4088 0 0 4159 0 0 4202 0 0 4100 0 0 4007 0 0 4345 0 0 4231 0 0 4296 0 0 4156 0 0 4125 0 0 4074 0 0 4103 0 0 4076 0 0 4089 0 0 4294 0 0 4176 0 0 4107 0 0 4110 0 0 4113 0 0 4031 0 0 4056 0 0 3905 0 0 3946 0 0 3858 0 0 3816 0 0 3739 0 0 3573 0 0 3548 0 0 3503 0 0 2224 0 0 1040 0 0 887 0 0 728 0 0 674 0 0 608 0 0 583 0 0 492 0 0 426 0 0 412 0 0 
203 0 0 366 0 0 451 0 0 490 0 0 584 0 0 603 0 0 642 0 0 778 0 0 891 0 0 1010 0 0 2159 0 0 3449 0 0 3601 0 0 3769 0 0 3728 0 0 3748 0 0 3961 0 0 3980 0 0 4032 0 0 3991 0 0 4163 0 0 4128 0 0 4032 0 0 4079 0 0 4138 0 0 3989 0 0 4234 0 0 4056 0 0 4161 0 0 4204 0 0 4164 0 0 4222 0 0 4121 0 0 4144 0 0 4056 0 0 4148 0 0 4149 0 0 4142 0 0 4129 0 0 4061 0 0 4234 0 0 3996 0 0 4097 0 0 3954 0 0 3852 0 0 3733 0 0 3839 0 0 3753 0 0 3598 0 0 3422 0 0 2237 0 0 987 0 0 840 0 0 735 0 0 693 0 0 607 0 0 592 0 0 496 0 0 463 0 0 404 0 0 
176 0 0 397 0 0 444 0 0 513 0 0 548 0 0 589 0 0 674 0 0 745 0 0 887 0 0 1066 0 0 2231 0 0 3475 0 0 3507 0 0 3698 0 0 3631 0 0 3844 0 0 3884 0 0 4033 0 0 4036 0 0 3987 0 0 4078 0 0 4053 0 0 4032 0 0 4074 0 0 4050 0 0 4158 0 0 4205 0 0 4067 0 0 4167 0 0 4271 0 0 4190 0 0 4160 0 0 4217 0 0 4260 0 0 4180 0 0 4242 0 0 4230 0 0 4177 0 0 3997 0 0 4202 0 0 4015 0 0 4029 0 0 3922 0 0 3891 0 0 3836 0 0 3787 0 0 3818 0 0 3766 0 0 3577 0 0 3535 0 0 2183 0 0 964 0 0 858 0 0 748 0 0 688 0 0 624 0 0 584 0 0 472 0 0 439 0 0 414 0 0 
189 0 0 402 0 0 418 0 0 494 0 0 542 0 0 630 0 0 706 0 0 803 0 0 921 0 0 974 0 0 2250 0 0 3414 0 0 3652 0 0 3814 0 0 3803 0 0 3699 0 0 3884 0 0 3914 0 0 4018 0 0 4022 0 0 4137 0 0 4073 0 0 3980 0 0 4096 0 0 4124 0 0 4168 0 0 4182 0 0 4276 0 0 4255 0 0 4267 0 0 4323 0 0 4069 0 0 4140 0 0 4161 0 0 4173 0 0 4122 0 0 4096 0 0 4122 0 0 4109 0 0 4072 0 0 3956 0 0 4031 0 0 4045 0 0 3996 0 0 3865 0 0 3871 0 0 3837 0 0 3607 0 0 3490 0 0 3477 0 0 2231 0 0 992 0 0 853 0 0 749 0 0 709 0 0 612 0 0 572 0 0 503 0 0 464 0 0 367 0 0 
199 0 0 401 0 0 457 0 0 476 0 0 533 0 0 584 0 0 717 0 0 771 0 0 858 0 0 1001 0 0 2220 0 0 3437 0 0 3516 0 0 3671 0 0 3755 0 0 3896 0 0 3953 0 0 3863 0 0 3930 0 0 3905 0 0 4097 0 0 4207 0 0 4025 0 0 4139 0 0 3973 0 0 4100 0 0 4263 0 0 4171 0 0 4204 0 0 4175 0 0 4155 0 0 4142 0 0 4154 0 0 4079 0 0 4121 0 0 4121 0 0 4044 0 0 4148 0 0 4026 0 0 4099 0 0 4138 0 0 3928 0 0 3938 0 0 3987 0 0 3901 0 0 3853 0 0 3868 0 0 3723 0 0 3623 0 0 3447 0 0 2133 0 0 946 0 0 827 0 0 731 0 0 681 0 0 584 0 0 550 0 0 489 0 0 442 0 0 357 0 0 
195 0 0 379 0 0 461 0 0 502 0 0 507 0 0 598 0 0 672 0 0 770 0 0 848 0 0 996 0 0 2321 0 0 3433 0 0 3523 0 0 3595 0 0 3738 0 0 3666 0 0 4076 0 0 3885 0 0 4047 0 0 3991 0 0 3954 0 0 4154 0 0 4059 0 0 4044 0 0 4073 0 0 4110 0 0 4167 0 0 4256 0 0 4221 0 0 4244 0 0 4299 0 0 4132 0 0 4289 0 0 4271 0 0 4189 0 0 4129 0 0 4062 0 0 4038 0 0 4123 0 0 4093 0 0 4038 0 0 3949 0 0 4042 0 0 3933 0 0 3911 0 0 3768 0 0 3712 0 0 3666 0 0 3532 0 0 3405 0 0 2272 0 0 1014 0 0 834 0 0 763 0 0 636 0 0 587 0 0 590 0 0 533 0 0 416 0 0 387 0 0 
186 0 0 384 0 0 397 0 0 527 0 0 532 0 0 642 0 0 688 0 0 746 0 0 877 0 0 947 0 0 2210 0 0 3511 0 0 3573 0 0 3557 0 0 3836 0 0 3759 0 0 3836 0 0 3956 0 0 3960 0 0 3952 0 0 3998 0 0 4037 0 0 4036 0 0 4051 0 0 4030 0 0 4069 0 0 4006 0 0 4139 0 0 4172 0 0 4167 0 0 4169 0 0 4182 0 0 4157 0 0 4102 0 0 4089 0 0 4181 0 0 4058 0 0 3921 0 0 4166 0 0 4032 0 0 4026 0 0 4139 0 0 3984 0 0 3836 0 0 3844 0 0 3845 0 0 3729 0 0 3661 0 0 3562 0 0 3434 0 0 2259 0 0 960 0 0 832 0 0 738 0 0 650 0 0 571 0 0 545 0 0 514 0 0 416 0 0 405 0 0 
166 0 0 367 0 0 390 0 0 475 0 0 530 0 0 605 0 0 685 0 0 773 0 0 816 0 0 977 0 0 2171 0 0 3456 0 0 3635 0 0 3672 0 0 3642 0 0 3892 0 0 3804 0 0 3938 0 0 3902 0 0 3951 0 0 3934 0 0 4102 0 0 4075 0 0 3982 0 0 4138 0 0 4211 0 0 4177 0 0 4182 0 0 4059 0 0 4162 0 0 4160 0 0 4144 0 0 4074 0 0 4203 0 0 4132 0 0 4060 0 0 4167 0 0 4218 0 0 4078 0 0 3999 0 0 3884 0 0 4032 0 0 3971 0 0 3784 0 0 3743 0 0 3841 0 0 3815 0 0 3672 0 0 3650 0 0 3416 0 0 2241 0 0 946 0 0 826 0 0 744 0 0 642 0 0 583 0 0 528 0 0 474 0 0 465 0 0 399 0 0 
182 0 0 355 0 0 427 0 0 467 0 0 495 0 0 552 0 0 638 0 0 760 0 0 849 0 0 991 0 0 2238 0 0 3462 0 0 3582 0 0 3619 0 0 3684 0 0 3832 0 0 3846 0 0 3756 0 0 3933 0 0 3994 0 0 3896 0 0 3973 0 0 4035 0 0 4025 0 0 4059 0 0 3998 0 0 4052 0 0 4208 0 0 4145 0 0 4019 0 0 4033 0 0 4133 0 0 4197 0 0 3999 0 0 4055 0 0 4064 0 0 4057 0 0 4055 0 0 3961 0 0 4170 0 0 3917 0 0 3955 0 0 4069 0 0 3893 0 0 3804 0 0 3739 0 0 3767 0 0 3653 0 0 3523 0 0 3391 0 0 2191 0 0 967 0 0 880 0 0 701 0 0 585 0 0 592 0 0 515 0 0 455 0 0 408 0 0 377 0 0 
155 0 0 371 0 0 412 0 0 496 0 0 548 0 0 539 0 0 647 0 0 730 0 0 854 0 0 943 0 0 2063 0 0 3405 0 0 3483 0 0 3686 0 0 3681 0 0 3749 0 0 3782 0 0 3793 0 0 3845 0 0 3902 0 0 3925 0 0 4060 0 0 4076 0 0 3956 0 0 4021 0 0 3985 0 0 4097 0 0 4118 0 0 4055 0 0 4083 0 0 4149 0 0 4085 0 0 4102 0 0 4168 0 0 4071 0 0 3990 0 0 4117 0 0 4185 0 0 4107 0 0 3925 0 0 4105 0 0 3960 0 0 3879 0 0 3894 0 0 3884 0 0 3915 0 0 3712 0 0 3663 0 0 3589 0 0 3372 0 0 2258 0 0 919 0 0 882 0 0 750 0 0 606 0 0 569 0 0 510 0 0 468 0 0 401 0 0 370 0 0 
169 0 0 388 0 0 411 0 0 448 0 0 535 0 0 570 0 0 640 0 0 707 0 0 777 0 0 948 0 0 2163 0 0 3386 0 0 3518 0 0 3559 0 0 3669 0 0 3809 0 0 3771 0 0 3785 0 0 3877 0 0 3827 0 0 4050 0 0 4052 0 0 4107 0 0 3983 0 0 4023 0 0 4032 0 0 4070 0 0 4125 0 0 4117 0 0 3945 0 0 4119 0 0 4078 0 0 4028 0 0 3896 0 0 4079 0 0 3987 0 0 4022 0 0 4159 0 0 4019 0 0 3940 0 0 3987 0 0 3936 0 0 3933 0 0 3749 0 0 3765 0 0 3768 0 0 3785 0 0 3567 0 0 3573 0 0 3352 0 0 2111 0 0 907 0 0 787 0 0 691 0 0 620 0 0 536 0 0 469 0 0 454 0 0 380 0 0 354 0 0 
163 0 0 397 0 0 424 0 0 466 0 0 498 0 0 567 0 0 605 0 0 726 0 0 758 0 0 897 0 0 2166 0 0 3356 0 0 3517 0 0 3640 0 0 3637 0 0 3573 0 0 3842 0 0 3747 0 0 3981 0 0 3948 0 0 3810 0 0 3828 0 0 3987 0 0 4031 0 0 3959 0 0 4104 0 0 4018 0 0 4029 0 0 4117 0 0 4037 0 0 4022 0 0 4039 0 0 3935 0 0 3947 0 0 4039 0 0 4013 0 0 3991 0 0 3890 0 0 3976 0 0 3837 0 0 3987 0 0 3919 0 0 3823 0 0 3871 0 0 3740 0 0 3715 0 0 3582 0 0 3656 0 0 3488 0 0 3455 0 0 2147 0 0 937 0 0 803 0 0 682 0 0 590 0 0 567 0 0 464 0 0 460 0 0 401 0 0 366 0 0 
197 0 0 353 0 0 412 0 0 409 0 0 480 0 0 553 0 0 609 0 0 697 0 0 791 0 0 898 0 0 2125 0 0 3271 0 0 3391 0 0 3550 0 0 3611 0 0 3729 0 0 3768 0 0 3755 0 0 3735 0 0 3857 0 0 3847 0 0 3845 0 0 3931 0 0 3949 0 0 3899 0 0 3985 0 0 3950 0 0 3990 0 0 4018 0 0 4077 0 0 3966 0 0 4070 0 0 4035 0 0 3885 0 0 3988 0 0 4015 0 0 3941 0 0 3900 0 0 3990 0 0 3897 0 0 3964 0 0 3990 0 0 3804 0 0 3845 0 0 3772 0 0 3741 0 0 3588 0 0 3561 0 0 3468 0 0 3280 0 0 2166 0 0 846 0 0 774 0 0 666 0 0 613 0 0 551 0 0 518 0 0 441 0 0 384 0 0 345 0 0 
159 0 0 350 0 0 419 0 0 411 0 0 457 0 0 517 0 0 607 0 0 672 0 0 724 0 0 852 0 0 2145 0 0 3354 0 0 3472 0 0 3437 0 0 3451 0 0 3648 0 0 3816 0 0 3774 0 0 3831 0 0 3820 0 0 3805 0 0 3846 0 0 4023 0 0 4032 0 0 3899 0 0 3935 0 0 3942 0 0 4032 0 0 3962 0 0 3930 0 0 4032 0 0 3947 0 0 4021 0 0 3919 0 0 4042 0 0 4129 0 0 3889 0 0 3905 0 0 3867 0 0 3848 0 0 3936 0 0 3925 0 0 3744 0 0 3702 0 0 3773 0 0 3751 0 0 3656 0 0 3525 0 0 3459 0 0 3314 0 0 2126 0 0 812 0 0 738 0 0 665 0 0 604 0 0 568 0 0 471 0 0 408 0 0 378 0 0 384 0 0 
145 0 0 357 0 0 373 0 0 429 0 0 471 0 0 484 0 0 573 0 0 622 0 0 725 0 0 853 0 0 2185 0 0 3330 0 0 3386 0 0 3415 0 0 3501 0 0 3662 0 0 3675 0 0 3745 0 0 3866 0 0 3763 0 0 3741 0 0 3952 0 0 3844 0 0 3842 0 0 3895 0 0 3905 0 0 3934 0 0 3964 0 0 4049 0 0 3975 0 0 3937 0 0 4007 0 0 3893 0 0 3930 0 0 4003 0 0 3959 0 0 3835 0 0 3946 0 0 3960 0 0 3864 0 0 3910 0 0 3724 0 0 3764 0 0 3828 0 0 3646 0 0 3684 0 0 3495 0 0 3451 0 0 3397 0 0 3407 0 0 2177 0 0 830 0 0 764 0 0 622 0 0 617 0 0 508 0 0 497 0 0 382 0 0 369 0 0 359 0 0 
149 0 0 364 0 0 368 0 0 381 0 0 445 0 0 472 0 0 572 0 0 628 0 0 726 0 0 827 0 0 2047 0 0 3255 0 0 3383 0 0 3481 0 0 3464 0 0 3572 0 0 3716 0 0 3700 0 0 3715 0 0 3669 0 0 3808 0 0 3725 0 0 3867 0 0 3903 0 0 3822 0 0 3849 0 0 3845 0 0 3881 0 0 3769 0 0 3914 0 0 3932 0 0 3887 0 0 3708 0 0 3858 0 0 3899 0 0 3844 0 0 3771 0 0 3794 0 0 3817 0 0 3784 0 0 3668 0 0 3731 0 0 3649 0 0 3712 0 0 3624 0 0 3692 0 0 3548 0 0 3386 0 0 3354 0 0 3191 0 0 2037 0 0 756 0 0 740 0 0 591 0 0 584 0 0 518 0 0 483 0 0 442 0 0 392 0 0 308 0 0 
135 0 0 311 0 0 336 0 0 379 0 0 468 0 0 495 0 0 522 0 0 577 0 0 752 0 0 856 0 0 1986 0 0 3317 0 0 3372 0 0 3409 0 0 3552 0 0 3485 0 0 3608 0 0 3599 0 0 3602 0 0 3723 0 0 3720 0 0 3711 0 0 3829 0 0 3707 0 0 3789 0 0 3765 0 0 3867 0 0 3875 0 0 3860 0 0 3835 0 0 3906 0 0 3810 0 0 3862 0 0 3731 0 0 3868 0 0 3800 0 0 3713 0 0 3758 0 0 3739 0 0 3847 0 0 3572 0 0 3681 0 0 3642 0 0 3547 0 0 3602 0 0 3501 0 0 3404 0 0 3449 0 0 3342 0 0 3289 0 0 1983 0 0 818 0 0 671 0 0 637 0 0 520 0 0 464 0 0 444 0 0 424 0 0 348 0 0 305 0 0 
157 0 0 299 0 0 369 0 0 368 0 0 403 0 0 476 0 0 549 0 0 610 0 0 608 0 0 751 0 0 1890 0 0 3164 0 0 3233 0 0 3338 0 0 3505 0 0 3573 0 0 3568 0 0 3599 0 0 3542 0 0 3647 0 0 3766 0 0 3619 0 0 3693 0 0 3663 0 0 3796 0 0 3763 0 0 3785 0 0 3769 0 0 3801 0 0 3807 0 0 3754 0 0 3876 0 0 3708 0 0 3684 0 0 3719 0 0 3652 0 0 3731 0 0 3681 0 0 3646 0 0 3616 0 0 3641 0 0 3659 0 0 3628 0 0 3577 0 0 3572 0 0 3423 0 0 3429 0 0 3403 0 0 3215 0 0 3154 0 0 1882 0 0 767 0 0 597 0 0 618 0 0 582 0 0 458 0 0 413 0 0 360 0 0 341 0 0 308 0 0 
129 0 0 284 0 0 287 0 0 319 0 0 395 0 0 423 0 0 495 0 0 567 0 0 622 0 0 753 0 0 1902 0 0 3128 0 0 3190 0 0 3373 0 0 3339 0 0 3356 0 0 3395 0 0 3566 0 0 3513 0 0 3425 0 0 3621 0 0 3659 0 0 3639 0 0 3616 0 0 3538 0 0 3688 0 0 3796 0 0 3757 0 0 3762 0 0 3696 0 0 3656 0 0 3748 0 0 3621 0 0 3737 0 0 3718 0 0 3643 0 0 3526 0 0 3593 0 0 3606 0 0 3608 0 0 3573 0 0 3549 0 0 3514 0 0 3464 0 0 3427 0 0 3439 0 0 3352 0 0 3410 0 0 3348 0 0 3033 0 0 1917 0 0 706 0 0 631 0 0 558 0 0 495 0 0 436 0 0 426 0 0 335 0 0 318 0 0 287 0 0 
129 0 0 294 0 0 291 0 0 372 0 0 353 0 0 444 0 0 486 0 0 512 0 0 564 0 0 761 0 0 1827 0 0 3046 0 0 3218 0 0 3176 0 0 3356 0 0 3331 0 0 3378 0 0 3380 0 0 3464 0 0 3491 0 0 3590 0 0 3471 0 0 3515 0 0 3572 0 0 3606 0 0 3512 0 0 3576 0 0 3558 0 0 3645 0 0 3609 0 0 3590 0 0 3609 0 0 3653 0 0 3526 0 0 3540 0 0 3488 0 0 3562 0 0 3560 0 0 3412 0 0 3497 0 0 3379 0 0 3533 0 0 3486 0 0 3276 0 0 3325 0 0 3354 0 0 3310 0 0 3244 0 0 3237 0 0 3188 0 0 1891 0 0 644 0 0 610 0 0 530 0 0 497 0 0 460 0 0 431 0 0 316 0 0 312 0 0 250 0 0 
115 0 0 272 0 0 317 0 0 312 0 0 323 0 0 391 0 0 428 0 0 488 0 0 583 0 0 693 0 0 1847 0 0 3006 0 0 3120 0 0 3136 0 0 3254 0 0 3251 0 0 3264 0 0 3297 0 0 3347 0 0 3331 0 0 3363 0 0 3396 0 0 3420 0 0 3407 0 0 3460 0 0 3399 0 0 3458 0 0 3534 0 0 3464 0 0 3376 0 0 3514 0 0 3360 0 0 3473 0 0 3420 0 0 3522 0 0 3405 0 0 3441 0 0 3394 0 0 3320 0 0 3319 0 0 3314 0 0 3330 0 0 3256 0 0 3275 0 0 3288 0 0 3116 0 0 3229 0 0 3208 0 0 3068 0 0 3051 0 0 1850 0 0 637 0 0 571 0 0 469 0 0 439 0 0 403 0 0 351 0 0 333 0 0 284 0 0 236 0 0 
124 0 0 258 0 0 280 0 0 305 0 0 325 0 0 312 0 0 414 0 0 453 0 0 512 0 0 589 0 0 1186 0 0 1776 0 0 1885 0 0 1921 0 0 1961 0 0 2041 0 0 2082 0 0 2145 0 0 2153 0 0 2099 0 0 2154 0 0 2098 0 0 2085 0 0 2119 0 0 2116 0 0 2278 0 0 2294 0 0 2247 0 0 2238 0 0 2150 0 0 2212 0 0 2212 0 0 2205 0 0 2146 0 0 2171 0 0 2209 0 0 2210 0 0 2200 0 0 2141 0 0 2163 0 0 2222 0 0 2163 0 0 2165 0 0 2079 0 0 2028 0 0 2029 0 0 2030 0 0 1923 0 0 1913 0 0 1851 0 0 1151 0 0 603 0 0 552 0 0 456 0 0 410 0 0 373 0 0 332 0 0 305 0 0 290 0 0 247 0 0 
106 0 0 248 0 0 253 0 0 308 0 0 333 0 0 316 0 0 365 0 0 404 0 0 494 0 0 563 0 0 579 0 0 619 0 0 672 0 0 741 0 0 757 0 0 824 0 0 845 0 0 842 0 0 900 0 0 900 0 0 896 0 0 971 0 0 913 0 0 977 0 0 960 0 0 1016 0 0 981 0 0 899 0 0 997 0 0 915 0 0 959 0 0 966 0 0 969 0 0 997 0 0 968 0 0 978 0 0 952 0 0 936 0 0 984 0 0 933 0 0 956 0 0 925 0 0 862 0 0 885 0 0 820 0 0 783 0 0 780 0 0 730 0 0 660 0 0 614 0 0 589 0 0 503 0 0 440 0 0 450 0 0 409 0 0 347 0 0 322 0 0 274 0 0 284 0 0 253 0 0 
103 0 0 226 0 0 244 0 0 294 0 0 292 0 0 348 0 0 400 0 0 371 0 0 443 0 0 489 0 0 514 0 0 555 0 0 580 0 0 629 0 0 652 0 0 663 0 0 717 0 0 736 0 0 749 0 0 774 0 0 798 0 0 846 0 0 819 0 0 829 0 0 846 0 0 901 0 0 870 0 0 878 0 0 812 0 0 837 0 0 867 0 0 859 0 0 833 0 0 901 0 0 847 0 0 854 0 0 855 0 0 855 0 0 821 0 0 855 0 0 811 0 0 787 0 0 781 0 0 738 0 0 697 0 0 731 0 0 663 0 0 632 0 0 578 0 0 556 0 0 528 0 0 461 0 0 431 0 0 405 0 0 370 0 0 321 0 0 293 0 0 258 0 0 253 0 0 213 0 0 
98 0 0 226 0 0 236 0 0 262 0 0 276 0 0 291 0 0 337 0 0 361 0 0 400 0 0 432 0 0 490 0 0 473 0 0 523 0 0 536 0 0 573 0 0 645 0 0 624 0 0 657 0 0 647 0 0 702 0 0 714 0 0 709 0 0 757 0 0 754 0 0 770 0 0 764 0 0 817 0 0 701 0 0 750 0 0 763 0 0 771 0 0 766 0 0 737 0 0 796 0 0 746 0 0 761 0 0 774 0 0 724 0 0 723 0 0 734 0 0 684 0 0 686 0 0 705 0 0 666 0 0 656 0 0 586 0 0 589 0 0 627 0 0 530 0 0 493 0 0 463 0 0 432 0 0 369 0 0 373 0 0 335 0 0 309 0 0 248 0 0 266 0 0 210 0 0 204 0 0 
99 0 0 229 0 0 194 0 0 242 0 0 241 0 0 262 0 0 326 0 0 342 0 0 384 0 0 407 0 0 419 0 0 467 0 0 436 0 0 488 0 0 524 0 0 583 0 0 564 0 0 543 0 0 587 0 0 643 0 0 617 0 0 665 0 0 649 0 0 696 0 0 678 0 0 637 0 0 675 0 0 661 0 0 685 0 0 739 0 0 671 0 0 688 0 0 695 0 0 689 0 0 665 0 0 652 0 0 644 0 0 638 0 0 679 0 0 633 0 0 647 0 0 581 0 0 589 0 0 495 0 0 547 0 0 534 0 0 525 0 0 464 0 0 476 0 0 455 0 0 382 0 0 361 0 0 380 0 0 348 0 0 304 0 0 281 0 0 271 0 0 271 0 0 220 0 0 199 0 0 
84 0 0 178 0 0 218 0 0 211 0 0 262 0 0 286 0 0 293 0 0 332 0 0 333 0 0 354 0 0 381 0 0 387 0 0 445 0 0 424 0 0 427 0 0 495 0 0 498 0 0 493 0 0 543 0 0 557 0 0 573 0 0 586 0 0 569 0 0 580 0 0 600 0 0 626 0 0 647 0 0 596 0 0 622 0 0 602 0 0 628 0 0 637 0 0 603 0 0 573 0 0 589 0 0 570 0 0 582 0 0 657 0 0 556 0 0 523 0 0 551 0 0 555 0 0 516 0 0 528 0 0 529 0 0 480 0 0 398 0 0 457 0 0 419 0 0 399 0 0 378 0 0 365 0 0 334 0 0 351 0 0 280 0 0 245 0 0 259 0 0 229 0 0 209 0 0 204 0 0 
94 0 0 195 0 0 216 0 0 175 0 0 254 0 0 254 0 0 281 0 0 292 0 0 287 0 0 300 0 0 343 0 0 337 0 0 373 0 0 411 0 0 412 0 0 418 0 0 479 0 0 501 0 0 458 0 0 492 0 0 488 0 0 502 0 0 469 0 0 475 0 0 531 0 0 521 0 0 499 0 0 531 0 0 575 0 0 533 0 0 522 0 0 512 0 0 529 0 0 549 0 0 505 0 0 502 0 0 519 0 0 528 0 0 512 0 0 510 0 0 511 0 0 499 0 0 483 0 0 461 0 0 438 0 0 433 0 0 411 0 0 386 0 0 388 0 0 383 0 0 357 0 0 293 0 0 322 0 0 277 0 0 300 0 0 284 0 0 242 0 0 193 0 0 220 0 0 190 0 0 
72 0 0 167 0 0 179 0 0 197 0 0 224 0 0 224 0 0 220 0 0 245 0 0 272 0 0 317 0 0 322 0 0 348 0 0 337 0 0 346 0 0 391 0 0 410 0 0 397 0 0 411 0 0 449 0 0 431 0 0 416 0 0 467 0 0 455 0 0 437 0 0 478 0 0 442 0 0 461 0 0 491 0 0 510 0 0 490 0 0 435 0 0 470 0 0 482 0 0 465 0 0 530 0 0 472 0 0 475 0 0 460 0 0 459 0 0 479 0 0 446 0 0 446 0 0 447 0 0 432 0 0 394 0 0 382 0 0 354 0 0 356 0 0 362 0 0 324 0 0 258 0 0 294 0 0 275 0 0 251 0 0 238 0 0 214 0 0 223 0 0 197 0 0 207 0 0 168 0 0 
72 0 0 143 0 0 165 0 0 191 0 0 200 0 0 231 0 0 220 0 0 235 0 0 260 0 0 278 0 0 261 0 0 284 0 0 295 0 0 337 0 0 322 0 0 370 0 0 348 0 0 387 0 0 389 0 0 427 0 0 391 0 0 424 0 0 405 0 0 388 0 0 423 0 0 403 0 0 411 0 0 447 0 0 436 0 0 450 0 0 476 0 0 435 0 0 436 0 0 429 0 0 411 0 0 457 0 0 439 0 0 434 0 0 386 0 0 388 0 0 424 0 0 397 0 0 415 0 0 391 0 0 386 0 0 364 0 0 370 0 0 331 0 0 314 0 0 308 0 0 269 0 0 246 0 0 248 0 0 251 0 0 219 0 0 201 0 0 178 0 0 186 0 0 166 0 0 149 0 0 
60 0 0 147 0 0 157 0 0 186 0 0 171 0 0 193 0 0 205 0 0 190 0 0 216 0 0 224 0 0 253 0 0 262 0 0 274 0 0 316 0 0 308 0 0 308 0 0 330 0 0 341 0 0 339 0 0 334 0 0 400 0 0 318 0 0 392 0 0 375 0 0 401 0 0 398 0 0 400 0 0 398 0 0 442 0 0 412 0 0 384 0 0 402 0 0 378 0 0 413 0 0 379 0 0 410 0 0 416 0 0 378 0 0 375 0 0 359 0 0 355 0 0 316 0 0 346 0 0 356 0 0 301 0 0 321 0 0 306 0 0 306 0 0 281 0 0 252 0 0 254 0 0 256 0 0 235 0 0 215 0 0 206 0 0 218 0 0 177 0 0 199 0 0 178 0 0 151 0 0 
