P3
# This is a dose file slice at depth 87 of 100
60 60
# now we give the maximum value of the RGB coordinates.
5876
5 0 0 15 0 0 20 0 0 19 0 0 18 0 0 23 0 0 17 0 0 24 0 0 25 0 0 22 0 0 23 0 0 27 0 0 26 0 0 29 0 0 26 0 0 27 0 0 26 0 0 32 0 0 28 0 0 30 0 0 34 0 0 35 0 0 32 0 0 31 0 0 34 0 0 37 0 0 39 0 0 39 0 0 42 0 0 36 0 0 30 0 0 37 0 0 43 0 0 33 0 0 37 0 0 33 0 0 38 0 0 37 0 0 31 0 0 34 0 0 34 0 0 39 0 0 36 0 0 36 0 0 30 0 0 37 0 0 34 0 0 30 0 0 30 0 0 23 0 0 31 0 0 28 0 0 31 0 0 22 0 0 23 0 0 22 0 0 16 0 0 17 0 0 15 0 0 17 0 0 
14 0 0 51 0 0 57 0 0 50 0 0 61 0 0 56 0 0 68 0 0 68 0 0 80 0 0 82 0 0 90 0 0 82 0 0 93 0 0 84 0 0 94 0 0 97 0 0 106 0 0 101 0 0 113 0 0 103 0 0 119 0 0 121 0 0 117 0 0 134 0 0 127 0 0 112 0 0 126 0 0 120 0 0 134 0 0 122 0 0 117 0 0 132 0 0 108 0 0 105 0 0 105 0 0 120 0 0 99 0 0 127 0 0 118 0 0 111 0 0 109 0 0 118 0 0 113 0 0 108 0 0 88 0 0 102 0 0 95 0 0 91 0 0 91 0 0 80 0 0 88 0 0 74 0 0 77 0 0 75 0 0 63 0 0 64 0 0 57 0 0 56 0 0 56 0 0 54 0 0 
18 0 0 51 0 0 51 0 0 67 0 0 72 0 0 67 0 0 69 0 0 89 0 0 71 0 0 84 0 0 86 0 0 92 0 0 97 0 0 108 0 0 104 0 0 125 0 0 114 0 0 105 0 0 128 0 0 130 0 0 154 0 0 138 0 0 129 0 0 132 0 0 136 0 0 137 0 0 139 0 0 138 0 0 134 0 0 125 0 0 134 0 0 137 0 0 139 0 0 146 0 0 140 0 0 146 0 0 122 0 0 132 0 0 122 0 0 135 0 0 131 0 0 139 0 0 107 0 0 114 0 0 130 0 0 112 0 0 110 0 0 106 0 0 111 0 0 89 0 0 82 0 0 89 0 0 85 0 0 88 0 0 63 0 0 63 0 0 63 0 0 62 0 0 58 0 0 58 0 0 
20 0 0 50 0 0 64 0 0 77 0 0 68 0 0 82 0 0 78 0 0 87 0 0 92 0 0 108 0 0 96 0 0 110 0 0 107 0 0 106 0 0 116 0 0 128 0 0 131 0 0 124 0 0 133 0 0 147 0 0 154 0 0 136 0 0 143 0 0 141 0 0 134 0 0 179 0 0 143 0 0 148 0 0 155 0 0 158 0 0 143 0 0 140 0 0 159 0 0 156 0 0 161 0 0 155 0 0 145 0 0 145 0 0 140 0 0 150 0 0 141 0 0 125 0 0 131 0 0 128 0 0 124 0 0 140 0 0 122 0 0 111 0 0 111 0 0 110 0 0 90 0 0 91 0 0 92 0 0 95 0 0 65 0 0 71 0 0 77 0 0 66 0 0 56 0 0 62 0 0 
13 0 0 60 0 0 68 0 0 71 0 0 67 0 0 89 0 0 89 0 0 105 0 0 86 0 0 94 0 0 100 0 0 113 0 0 122 0 0 127 0 0 135 0 0 137 0 0 135 0 0 153 0 0 144 0 0 143 0 0 143 0 0 157 0 0 169 0 0 157 0 0 166 0 0 154 0 0 177 0 0 180 0 0 168 0 0 168 0 0 173 0 0 163 0 0 170 0 0 160 0 0 168 0 0 150 0 0 172 0 0 155 0 0 165 0 0 152 0 0 163 0 0 142 0 0 156 0 0 146 0 0 145 0 0 111 0 0 132 0 0 126 0 0 127 0 0 118 0 0 108 0 0 101 0 0 104 0 0 95 0 0 91 0 0 90 0 0 82 0 0 76 0 0 78 0 0 65 0 0 
23 0 0 63 0 0 61 0 0 73 0 0 71 0 0 80 0 0 90 0 0 101 0 0 115 0 0 123 0 0 114 0 0 124 0 0 133 0 0 129 0 0 149 0 0 149 0 0 153 0 0 157 0 0 171 0 0 160 0 0 179 0 0 171 0 0 167 0 0 181 0 0 191 0 0 193 0 0 182 0 0 171 0 0 178 0 0 201 0 0 188 0 0 178 0 0 189 0 0 177 0 0 172 0 0 190 0 0 166 0 0 180 0 0 165 0 0 175 0 0 161 0 0 158 0 0 148 0 0 160 0 0 149 0 0 142 0 0 145 0 0 135 0 0 129 0 0 126 0 0 115 0 0 125 0 0 116 0 0 111 0 0 89 0 0 87 0 0 76 0 0 82 0 0 77 0 0 59 0 0 
26 0 0 64 0 0 76 0 0 86 0 0 86 0 0 94 0 0 95 0 0 101 0 0 124 0 0 121 0 0 122 0 0 121 0 0 152 0 0 159 0 0 149 0 0 170 0 0 165 0 0 176 0 0 182 0 0 201 0 0 186 0 0 182 0 0 192 0 0 208 0 0 204 0 0 213 0 0 210 0 0 205 0 0 187 0 0 192 0 0 216 0 0 206 0 0 211 0 0 208 0 0 211 0 0 181 0 0 201 0 0 187 0 0 193 0 0 175 0 0 191 0 0 172 0 0 172 0 0 170 0 0 170 0 0 156 0 0 156 0 0 155 0 0 141 0 0 134 0 0 133 0 0 115 0 0 123 0 0 110 0 0 98 0 0 95 0 0 93 0 0 94 0 0 72 0 0 59 0 0 
28 0 0 74 0 0 72 0 0 93 0 0 97 0 0 97 0 0 105 0 0 121 0 0 121 0 0 147 0 0 153 0 0 143 0 0 155 0 0 175 0 0 173 0 0 156 0 0 189 0 0 199 0 0 182 0 0 194 0 0 204 0 0 204 0 0 196 0 0 210 0 0 233 0 0 220 0 0 198 0 0 220 0 0 225 0 0 216 0 0 216 0 0 243 0 0 197 0 0 218 0 0 206 0 0 217 0 0 205 0 0 212 0 0 215 0 0 205 0 0 194 0 0 203 0 0 193 0 0 177 0 0 176 0 0 179 0 0 153 0 0 179 0 0 159 0 0 137 0 0 133 0 0 138 0 0 114 0 0 120 0 0 104 0 0 102 0 0 94 0 0 73 0 0 81 0 0 63 0 0 
30 0 0 70 0 0 80 0 0 94 0 0 99 0 0 87 0 0 98 0 0 113 0 0 131 0 0 147 0 0 151 0 0 148 0 0 177 0 0 197 0 0 194 0 0 195 0 0 200 0 0 208 0 0 201 0 0 206 0 0 222 0 0 218 0 0 219 0 0 239 0 0 234 0 0 222 0 0 236 0 0 248 0 0 241 0 0 253 0 0 261 0 0 223 0 0 242 0 0 229 0 0 242 0 0 250 0 0 223 0 0 239 0 0 213 0 0 236 0 0 208 0 0 202 0 0 211 0 0 216 0 0 210 0 0 179 0 0 192 0 0 192 0 0 160 0 0 174 0 0 148 0 0 132 0 0 130 0 0 111 0 0 105 0 0 111 0 0 94 0 0 84 0 0 93 0 0 76 0 0 
23 0 0 68 0 0 99 0 0 97 0 0 97 0 0 105 0 0 113 0 0 135 0 0 134 0 0 149 0 0 176 0 0 193 0 0 208 0 0 208 0 0 223 0 0 230 0 0 244 0 0 235 0 0 251 0 0 249 0 0 260 0 0 260 0 0 247 0 0 247 0 0 265 0 0 288 0 0 275 0 0 272 0 0 271 0 0 276 0 0 277 0 0 282 0 0 257 0 0 293 0 0 293 0 0 259 0 0 284 0 0 265 0 0 258 0 0 258 0 0 255 0 0 252 0 0 262 0 0 248 0 0 234 0 0 229 0 0 215 0 0 196 0 0 190 0 0 177 0 0 176 0 0 155 0 0 135 0 0 132 0 0 127 0 0 131 0 0 98 0 0 85 0 0 84 0 0 77 0 0 
24 0 0 80 0 0 92 0 0 93 0 0 112 0 0 113 0 0 128 0 0 124 0 0 148 0 0 165 0 0 353 0 0 636 0 0 627 0 0 644 0 0 638 0 0 681 0 0 701 0 0 658 0 0 668 0 0 656 0 0 752 0 0 728 0 0 672 0 0 680 0 0 746 0 0 691 0 0 699 0 0 757 0 0 725 0 0 695 0 0 744 0 0 728 0 0 710 0 0 705 0 0 720 0 0 700 0 0 720 0 0 690 0 0 687 0 0 683 0 0 657 0 0 693 0 0 676 0 0 687 0 0 679 0 0 642 0 0 650 0 0 636 0 0 602 0 0 630 0 0 362 0 0 159 0 0 165 0 0 145 0 0 115 0 0 124 0 0 110 0 0 98 0 0 83 0 0 81 0 0 
26 0 0 84 0 0 100 0 0 96 0 0 116 0 0 135 0 0 137 0 0 151 0 0 156 0 0 180 0 0 561 0 0 1015 0 0 1013 0 0 1084 0 0 1101 0 0 1080 0 0 1097 0 0 1090 0 0 1111 0 0 1113 0 0 1138 0 0 1093 0 0 1152 0 0 1110 0 0 1123 0 0 1111 0 0 1175 0 0 1153 0 0 1155 0 0 1135 0 0 1150 0 0 1190 0 0 1189 0 0 1137 0 0 1152 0 0 1155 0 0 1176 0 0 1119 0 0 1128 0 0 1130 0 0 1138 0 0 1157 0 0 1118 0 0 1116 0 0 1062 0 0 1145 0 0 1082 0 0 1062 0 0 1018 0 0 1060 0 0 623 0 0 186 0 0 163 0 0 150 0 0 148 0 0 121 0 0 115 0 0 106 0 0 88 0 0 91 0 0 
29 0 0 101 0 0 95 0 0 102 0 0 103 0 0 139 0 0 142 0 0 151 0 0 177 0 0 201 0 0 647 0 0 1054 0 0 1110 0 0 1111 0 0 1084 0 0 1127 0 0 1138 0 0 1134 0 0 1180 0 0 1125 0 0 1130 0 0 1133 0 0 1204 0 0 1132 0 0 1192 0 0 1182 0 0 1160 0 0 1167 0 0 1126 0 0 1190 0 0 1162 0 0 1167 0 0 1216 0 0 1209 0 0 1181 0 0 1168 0 0 1203 0 0 1145 0 0 1189 0 0 1175 0 0 1160 0 0 1165 0 0 1115 0 0 1104 0 0 1131 0 0 1126 0 0 1116 0 0 1088 0 0 1082 0 0 1105 0 0 622 0 0 195 0 0 166 0 0 159 0 0 130 0 0 129 0 0 102 0 0 113 0 0 97 0 0 89 0 0 
27 0 0 100 0 0 98 0 0 111 0 0 123 0 0 124 0 0 152 0 0 182 0 0 192 0 0 203 0 0 638 0 0 1111 0 0 1079 0 0 1104 0 0 1129 0 0 1129 0 0 1196 0 0 1185 0 0 1195 0 0 1193 0 0 1140 0 0 1194 0 0 1206 0 0 1220 0 0 1193 0 0 1180 0 0 1218 0 0 1192 0 0 1200 0 0 1204 0 0 1225 0 0 1215 0 0 1238 0 0 1204 0 0 1235 0 0 1176 0 0 1180 0 0 1178 0 0 1205 0 0 1171 0 0 1206 0 0 1191 0 0 1175 0 0 1114 0 0 1133 0 0 1061 0 0 1099 0 0 1094 0 0 1087 0 0 1028 0 0 647 0 0 228 0 0 184 0 0 155 0 0 151 0 0 125 0 0 117 0 0 110 0 0 102 0 0 93 0 0 
31 0 0 96 0 0 112 0 0 122 0 0 130 0 0 135 0 0 144 0 0 160 0 0 187 0 0 231 0 0 657 0 0 1068 0 0 1138 0 0 1135 0 0 1104 0 0 1199 0 0 1182 0 0 1153 0 0 1151 0 0 1199 0 0 1184 0 0 1199 0 0 1185 0 0 1217 0 0 1201 0 0 1216 0 0 1218 0 0 1153 0 0 1171 0 0 1237 0 0 1206 0 0 1261 0 0 1250 0 0 1191 0 0 1277 0 0 1190 0 0 1232 0 0 1162 0 0 1243 0 0 1190 0 0 1195 0 0 1218 0 0 1224 0 0 1151 0 0 1163 0 0 1122 0 0 1150 0 0 1169 0 0 1119 0 0 1071 0 0 683 0 0 243 0 0 200 0 0 168 0 0 152 0 0 148 0 0 131 0 0 120 0 0 101 0 0 97 0 0 
30 0 0 102 0 0 123 0 0 139 0 0 152 0 0 152 0 0 160 0 0 194 0 0 194 0 0 231 0 0 620 0 0 1106 0 0 1114 0 0 1146 0 0 1125 0 0 1204 0 0 1139 0 0 1164 0 0 1171 0 0 1237 0 0 1253 0 0 1260 0 0 1230 0 0 1254 0 0 1234 0 0 1245 0 0 1185 0 0 1269 0 0 1282 0 0 1299 0 0 1266 0 0 1216 0 0 1256 0 0 1286 0 0 1228 0 0 1224 0 0 1236 0 0 1254 0 0 1295 0 0 1260 0 0 1190 0 0 1195 0 0 1204 0 0 1142 0 0 1157 0 0 1195 0 0 1196 0 0 1158 0 0 1117 0 0 1050 0 0 657 0 0 218 0 0 196 0 0 160 0 0 164 0 0 138 0 0 128 0 0 136 0 0 118 0 0 103 0 0 
35 0 0 96 0 0 106 0 0 124 0 0 147 0 0 157 0 0 152 0 0 207 0 0 190 0 0 205 0 0 692 0 0 1096 0 0 1110 0 0 1164 0 0 1227 0 0 1204 0 0 1211 0 0 1232 0 0 1220 0 0 1216 0 0 1301 0 0 1243 0 0 1318 0 0 1258 0 0 1308 0 0 1235 0 0 1270 0 0 1313 0 0 1251 0 0 1275 0 0 1311 0 0 1363 0 0 1304 0 0 1280 0 0 1263 0 0 1242 0 0 1285 0 0 1259 0 0 1229 0 0 1254 0 0 1217 0 0 1234 0 0 1208 0 0 1213 0 0 1221 0 0 1207 0 0 1178 0 0 1155 0 0 1122 0 0 1093 0 0 680 0 0 206 0 0 205 0 0 180 0 0 153 0 0 144 0 0 136 0 0 135 0 0 110 0 0 103 0 0 
31 0 0 103 0 0 122 0 0 131 0 0 140 0 0 161 0 0 172 0 0 180 0 0 225 0 0 228 0 0 672 0 0 1112 0 0 1110 0 0 1173 0 0 1219 0 0 1177 0 0 1224 0 0 1267 0 0 1283 0 0 1221 0 0 1279 0 0 1276 0 0 1292 0 0 1293 0 0 1251 0 0 1198 0 0 1263 0 0 1270 0 0 1291 0 0 1267 0 0 1277 0 0 1264 0 0 1244 0 0 1249 0 0 1297 0 0 1284 0 0 1253 0 0 1212 0 0 1276 0 0 1259 0 0 1249 0 0 1216 0 0 1249 0 0 1226 0 0 1231 0 0 1197 0 0 1189 0 0 1138 0 0 1159 0 0 1107 0 0 712 0 0 230 0 0 195 0 0 194 0 0 170 0 0 156 0 0 129 0 0 124 0 0 108 0 0 115 0 0 
31 0 0 98 0 0 116 0 0 129 0 0 157 0 0 169 0 0 172 0 0 186 0 0 217 0 0 251 0 0 695 0 0 1121 0 0 1151 0 0 1203 0 0 1177 0 0 1164 0 0 1240 0 0 1239 0 0 1220 0 0 1218 0 0 1208 0 0 1211 0 0 1226 0 0 1275 0 0 1272 0 0 1280 0 0 1278 0 0 1346 0 0 1318 0 0 1331 0 0 1296 0 0 1279 0 0 1272 0 0 1285 0 0 1269 0 0 1278 0 0 1310 0 0 1295 0 0 1326 0 0 1279 0 0 1235 0 0 1246 0 0 1239 0 0 1260 0 0 1227 0 0 1183 0 0 1194 0 0 1203 0 0 1159 0 0 1126 0 0 708 0 0 245 0 0 212 0 0 190 0 0 166 0 0 145 0 0 145 0 0 135 0 0 129 0 0 102 0 0 
35 0 0 99 0 0 129 0 0 138 0 0 143 0 0 138 0 0 180 0 0 195 0 0 210 0 0 250 0 0 702 0 0 1151 0 0 1140 0 0 1203 0 0 1229 0 0 1189 0 0 1229 0 0 1173 0 0 1214 0 0 1171 0 0 1238 0 0 1257 0 0 1268 0 0 1226 0 0 1270 0 0 1271 0 0 1275 0 0 1275 0 0 1244 0 0 1354 0 0 1320 0 0 1319 0 0 1305 0 0 1277 0 0 1299 0 0 1309 0 0 1308 0 0 1277 0 0 1238 0 0 1268 0 0 1209 0 0 1267 0 0 1282 0 0 1215 0 0 1258 0 0 1278 0 0 1169 0 0 1166 0 0 1109 0 0 1119 0 0 694 0 0 238 0 0 216 0 0 194 0 0 179 0 0 147 0 0 150 0 0 132 0 0 136 0 0 105 0 0 
35 0 0 121 0 0 133 0 0 152 0 0 163 0 0 170 0 0 179 0 0 210 0 0 227 0 0 256 0 0 716 0 0 1169 0 0 1133 0 0 1211 0 0 1165 0 0 1248 0 0 1237 0 0 1232 0 0 1236 0 0 1248 0 0 1221 0 0 1270 0 0 1276 0 0 1296 0 0 1298 0 0 1282 0 0 1339 0 0 1266 0 0 1291 0 0 1290 0 0 1316 0 0 1260 0 0 1303 0 0 1263 0 0 1264 0 0 1297 0 0 1283 0 0 1233 0 0 1321 0 0 1259 0 0 1285 0 0 1268 0 0 1270 0 0 1245 0 0 1186 0 0 1209 0 0 1224 0 0 1200 0 0 1165 0 0 1146 0 0 710 0 0 269 0 0 240 0 0 210 0 0 195 0 0 173 0 0 165 0 0 143 0 0 142 0 0 113 0 0 
36 0 0 115 0 0 125 0 0 139 0 0 145 0 0 161 0 0 185 0 0 200 0 0 220 0 0 256 0 0 699 0 0 1117 0 0 1126 0 0 1188 0 0 1230 0 0 1187 0 0 1259 0 0 1259 0 0 1265 0 0 1195 0 0 1248 0 0 1316 0 0 1250 0 0 1289 0 0 1285 0 0 1273 0 0 1278 0 0 1300 0 0 1310 0 0 1356 0 0 1341 0 0 1303 0 0 1331 0 0 1292 0 0 1335 0 0 1300 0 0 1324 0 0 1346 0 0 1286 0 0 1254 0 0 1270 0 0 1237 0 0 1275 0 0 1235 0 0 1229 0 0 1215 0 0 1167 0 0 1228 0 0 1154 0 0 1095 0 0 692 0 0 284 0 0 230 0 0 201 0 0 172 0 0 183 0 0 156 0 0 150 0 0 144 0 0 125 0 0 
37 0 0 109 0 0 148 0 0 146 0 0 157 0 0 177 0 0 210 0 0 228 0 0 225 0 0 282 0 0 680 0 0 1152 0 0 1194 0 0 1140 0 0 1171 0 0 1166 0 0 1227 0 0 1286 0 0 1235 0 0 1264 0 0 1342 0 0 1274 0 0 1298 0 0 1269 0 0 1308 0 0 1304 0 0 1324 0 0 1265 0 0 1365 0 0 1321 0 0 1293 0 0 1306 0 0 1371 0 0 1386 0 0 1347 0 0 1294 0 0 1283 0 0 1284 0 0 1289 0 0 1289 0 0 1323 0 0 1249 0 0 1262 0 0 1243 0 0 1251 0 0 1233 0 0 1208 0 0 1149 0 0 1162 0 0 1126 0 0 686 0 0 245 0 0 221 0 0 197 0 0 193 0 0 186 0 0 158 0 0 139 0 0 133 0 0 117 0 0 
31 0 0 113 0 0 123 0 0 155 0 0 161 0 0 178 0 0 197 0 0 193 0 0 233 0 0 272 0 0 714 0 0 1132 0 0 1158 0 0 1194 0 0 1257 0 0 1271 0 0 1273 0 0 1297 0 0 1262 0 0 1312 0 0 1262 0 0 1278 0 0 1294 0 0 1340 0 0 1297 0 0 1316 0 0 1303 0 0 1315 0 0 1294 0 0 1323 0 0 1343 0 0 1278 0 0 1319 0 0 1334 0 0 1320 0 0 1316 0 0 1296 0 0 1281 0 0 1329 0 0 1303 0 0 1280 0 0 1265 0 0 1293 0 0 1248 0 0 1270 0 0 1230 0 0 1183 0 0 1205 0 0 1197 0 0 1115 0 0 763 0 0 272 0 0 238 0 0 223 0 0 187 0 0 184 0 0 168 0 0 143 0 0 140 0 0 99 0 0 
36 0 0 110 0 0 140 0 0 146 0 0 157 0 0 189 0 0 182 0 0 212 0 0 224 0 0 272 0 0 699 0 0 1140 0 0 1166 0 0 1197 0 0 1229 0 0 1220 0 0 1238 0 0 1250 0 0 1217 0 0 1289 0 0 1279 0 0 1293 0 0 1276 0 0 1286 0 0 1294 0 0 1302 0 0 1307 0 0 1387 0 0 1312 0 0 1247 0 0 1347 0 0 1293 0 0 1300 0 0 1351 0 0 1329 0 0 1360 0 0 1333 0 0 1311 0 0 1360 0 0 1278 0 0 1315 0 0 1274 0 0 1294 0 0 1268 0 0 1147 0 0 1177 0 0 1159 0 0 1211 0 0 1141 0 0 1112 0 0 731 0 0 272 0 0 225 0 0 212 0 0 171 0 0 169 0 0 151 0 0 147 0 0 123 0 0 119 0 0 
32 0 0 116 0 0 146 0 0 155 0 0 156 0 0 187 0 0 186 0 0 210 0 0 222 0 0 295 0 0 707 0 0 1140 0 0 1197 0 0 1218 0 0 1164 0 0 1244 0 0 1283 0 0 1203 0 0 1252 0 0 1315 0 0 1315 0 0 1285 0 0 1304 0 0 1300 0 0 1284 0 0 1339 0 0 1348 0 0 1389 0 0 1349 0 0 1305 0 0 1327 0 0 1304 0 0 1295 0 0 1362 0 0 1328 0 0 1354 0 0 1311 0 0 1298 0 0 1308 0 0 1304 0 0 1273 0 0 1273 0 0 1312 0 0 1270 0 0 1211 0 0 1258 0 0 1202 0 0 1194 0 0 1122 0 0 1123 0 0 720 0 0 272 0 0 233 0 0 205 0 0 174 0 0 180 0 0 156 0 0 166 0 0 136 0 0 116 0 0 
30 0 0 135 0 0 150 0 0 143 0 0 170 0 0 182 0 0 206 0 0 207 0 0 256 0 0 273 0 0 741 0 0 1180 0 0 1178 0 0 1231 0 0 1210 0 0 1214 0 0 1267 0 0 1212 0 0 1268 0 0 1314 0 0 1296 0 0 1355 0 0 1276 0 0 1317 0 0 1358 0 0 1315 0 0 1308 0 0 1319 0 0 1376 0 0 1379 0 0 1317 0 0 1350 0 0 1255 0 0 1397 0 0 1365 0 0 1308 0 0 1282 0 0 1300 0 0 1307 0 0 1282 0 0 1327 0 0 1295 0 0 1237 0 0 1234 0 0 1262 0 0 1258 0 0 1246 0 0 1156 0 0 1135 0 0 1152 0 0 727 0 0 263 0 0 234 0 0 207 0 0 201 0 0 181 0 0 159 0 0 148 0 0 126 0 0 132 0 0 
28 0 0 127 0 0 137 0 0 161 0 0 155 0 0 169 0 0 219 0 0 229 0 0 221 0 0 282 0 0 701 0 0 1156 0 0 1231 0 0 1246 0 0 1253 0 0 1275 0 0 1262 0 0 1259 0 0 1274 0 0 1353 0 0 1248 0 0 1256 0 0 1304 0 0 1317 0 0 1289 0 0 1338 0 0 1294 0 0 1322 0 0 1317 0 0 1332 0 0 1328 0 0 1340 0 0 1306 0 0 1349 0 0 1304 0 0 1338 0 0 1274 0 0 1295 0 0 1330 0 0 1305 0 0 1296 0 0 1298 0 0 1262 0 0 1278 0 0 1233 0 0 1210 0 0 1202 0 0 1179 0 0 1179 0 0 1137 0 0 665 0 0 261 0 0 234 0 0 224 0 0 193 0 0 187 0 0 185 0 0 157 0 0 120 0 0 125 0 0 
35 0 0 120 0 0 123 0 0 153 0 0 168 0 0 178 0 0 203 0 0 224 0 0 227 0 0 267 0 0 716 0 0 1156 0 0 1157 0 0 1186 0 0 1192 0 0 1213 0 0 1249 0 0 1277 0 0 1326 0 0 1303 0 0 1350 0 0 1362 0 0 1286 0 0 1322 0 0 1363 0 0 1273 0 0 1355 0 0 1349 0 0 1336 0 0 1310 0 0 1293 0 0 1406 0 0 1364 0 0 1358 0 0 1327 0 0 1348 0 0 1309 0 0 1307 0 0 1326 0 0 1272 0 0 1250 0 0 1330 0 0 1282 0 0 1257 0 0 1245 0 0 1271 0 0 1227 0 0 1170 0 0 1167 0 0 1163 0 0 690 0 0 270 0 0 260 0 0 209 0 0 200 0 0 187 0 0 170 0 0 146 0 0 131 0 0 115 0 0 
35 0 0 120 0 0 146 0 0 159 0 0 167 0 0 188 0 0 202 0 0 217 0 0 223 0 0 280 0 0 676 0 0 1138 0 0 1151 0 0 1189 0 0 1210 0 0 1221 0 0 1272 0 0 1321 0 0 1307 0 0 1263 0 0 1277 0 0 1321 0 0 1309 0 0 1333 0 0 1296 0 0 1327 0 0 1361 0 0 1316 0 0 1354 0 0 1348 0 0 1392 0 0 1365 0 0 1363 0 0 1355 0 0 1356 0 0 1367 0 0 1296 0 0 1309 0 0 1288 0 0 1257 0 0 1301 0 0 1276 0 0 1294 0 0 1234 0 0 1254 0 0 1195 0 0 1220 0 0 1234 0 0 1118 0 0 1117 0 0 753 0 0 266 0 0 247 0 0 241 0 0 180 0 0 188 0 0 169 0 0 142 0 0 119 0 0 115 0 0 
38 0 0 124 0 0 151 0 0 155 0 0 154 0 0 196 0 0 175 0 0 217 0 0 239 0 0 263 0 0 684 0 0 1134 0 0 1182 0 0 1190 0 0 1306 0 0 1213 0 0 1216 0 0 1282 0 0 1266 0 0 1340 0 0 1265 0 0 1353 0 0 1265 0 0 1282 0 0 1355 0 0 1359 0 0 1350 0 0 1314 0 0 1356 0 0 1297 0 0 1374 0 0 1355 0 0 1351 0 0 1335 0 0 1256 0 0 1315 0 0 1368 0 0 1262 0 0 1306 0 0 1272 0 0 1286 0 0 1288 0 0 1277 0 0 1249 0 0 1242 0 0 1212 0 0 1199 0 0 1240 0 0 1213 0 0 1198 0 0 730 0 0 265 0 0 218 0 0 215 0 0 187 0 0 191 0 0 175 0 0 155 0 0 146 0 0 134 0 0 
39 0 0 113 0 0 137 0 0 160 0 0 186 0 0 187 0 0 191 0 0 225 0 0 239 0 0 288 0 0 714 0 0 1125 0 0 1193 0 0 1285 0 0 1241 0 0 1241 0 0 1304 0 0 1255 0 0 1247 0 0 1260 0 0 1295 0 0 1305 0 0 1282 0 0 1348 0 0 1324 0 0 1405 0 0 1355 0 0 1287 0 0 1363 0 0 1336 0 0 1341 0 0 1349 0 0 1365 0 0 1402 0 0 1343 0 0 1377 0 0 1299 0 0 1360 0 0 1345 0 0 1352 0 0 1318 0 0 1303 0 0 1313 0 0 1249 0 0 1210 0 0 1255 0 0 1186 0 0 1173 0 0 1179 0 0 1145 0 0 724 0 0 275 0 0 233 0 0 205 0 0 208 0 0 193 0 0 147 0 0 154 0 0 130 0 0 113 0 0 
34 0 0 125 0 0 147 0 0 159 0 0 150 0 0 182 0 0 199 0 0 216 0 0 236 0 0 275 0 0 731 0 0 1169 0 0 1179 0 0 1195 0 0 1211 0 0 1252 0 0 1268 0 0 1225 0 0 1275 0 0 1288 0 0 1279 0 0 1289 0 0 1362 0 0 1345 0 0 1309 0 0 1290 0 0 1327 0 0 1359 0 0 1345 0 0 1358 0 0 1375 0 0 1313 0 0 1359 0 0 1345 0 0 1381 0 0 1315 0 0 1325 0 0 1296 0 0 1319 0 0 1375 0 0 1290 0 0 1328 0 0 1302 0 0 1222 0 0 1166 0 0 1240 0 0 1255 0 0 1193 0 0 1148 0 0 1167 0 0 721 0 0 271 0 0 263 0 0 207 0 0 191 0 0 181 0 0 172 0 0 148 0 0 139 0 0 132 0 0 
35 0 0 122 0 0 135 0 0 147 0 0 178 0 0 176 0 0 199 0 0 201 0 0 249 0 0 286 0 0 723 0 0 1200 0 0 1200 0 0 1229 0 0 1197 0 0 1259 0 0 1274 0 0 1249 0 0 1219 0 0 1296 0 0 1283 0 0 1320 0 0 1289 0 0 1307 0 0 1343 0 0 1305 0 0 1319 0 0 1339 0 0 1368 0 0 1273 0 0 1295 0 0 1392 0 0 1342 0 0 1294 0 0 1309 0 0 1325 0 0 1341 0 0 1309 0 0 1238 0 0 1345 0 0 1311 0 0 1313 0 0 1282 0 0 1302 0 0 1234 0 0 1244 0 0 1187 0 0 1178 0 0 1133 0 0 1141 0 0 717 0 0 276 0 0 260 0 0 219 0 0 183 0 0 172 0 0 173 0 0 147 0 0 138 0 0 118 0 0 
39 0 0 128 0 0 140 0 0 155 0 0 181 0 0 183 0 0 198 0 0 224 0 0 257 0 0 280 0 0 683 0 0 1111 0 0 1221 0 0 1238 0 0 1187 0 0 1238 0 0 1293 0 0 1257 0 0 1301 0 0 1256 0 0 1255 0 0 1287 0 0 1359 0 0 1333 0 0 1314 0 0 1339 0 0 1356 0 0 1318 0 0 1323 0 0 1326 0 0 1344 0 0 1283 0 0 1346 0 0 1387 0 0 1328 0 0 1320 0 0 1342 0 0 1288 0 0 1339 0 0 1295 0 0 1282 0 0 1322 0 0 1323 0 0 1276 0 0 1228 0 0 1231 0 0 1264 0 0 1217 0 0 1136 0 0 1136 0 0 692 0 0 280 0 0 251 0 0 207 0 0 192 0 0 179 0 0 172 0 0 154 0 0 130 0 0 119 0 0 
35 0 0 129 0 0 143 0 0 155 0 0 157 0 0 192 0 0 209 0 0 212 0 0 264 0 0 284 0 0 715 0 0 1154 0 0 1151 0 0 1187 0 0 1221 0 0 1241 0 0 1221 0 0 1332 0 0 1315 0 0 1326 0 0 1329 0 0 1272 0 0 1305 0 0 1276 0 0 1336 0 0 1324 0 0 1314 0 0 1328 0 0 1299 0 0 1288 0 0 1318 0 0 1374 0 0 1387 0 0 1370 0 0 1264 0 0 1301 0 0 1318 0 0 1336 0 0 1313 0 0 1282 0 0 1303 0 0 1293 0 0 1271 0 0 1256 0 0 1255 0 0 1233 0 0 1229 0 0 1144 0 0 1187 0 0 1177 0 0 718 0 0 283 0 0 245 0 0 221 0 0 197 0 0 195 0 0 162 0 0 166 0 0 124 0 0 115 0 0 
31 0 0 127 0 0 141 0 0 157 0 0 168 0 0 166 0 0 196 0 0 216 0 0 216 0 0 270 0 0 686 0 0 1170 0 0 1150 0 0 1205 0 0 1237 0 0 1321 0 0 1223 0 0 1236 0 0 1262 0 0 1265 0 0 1273 0 0 1224 0 0 1291 0 0 1279 0 0 1309 0 0 1350 0 0 1310 0 0 1303 0 0 1327 0 0 1321 0 0 1304 0 0 1376 0 0 1299 0 0 1363 0 0 1319 0 0 1312 0 0 1376 0 0 1306 0 0 1336 0 0 1357 0 0 1273 0 0 1261 0 0 1274 0 0 1348 0 0 1231 0 0 1174 0 0 1222 0 0 1145 0 0 1130 0 0 1152 0 0 761 0 0 282 0 0 236 0 0 203 0 0 183 0 0 160 0 0 153 0 0 141 0 0 135 0 0 122 0 0 
38 0 0 116 0 0 148 0 0 150 0 0 146 0 0 176 0 0 204 0 0 219 0 0 240 0 0 267 0 0 672 0 0 1183 0 0 1189 0 0 1224 0 0 1238 0 0 1251 0 0 1251 0 0 1241 0 0 1266 0 0 1293 0 0 1339 0 0 1279 0 0 1297 0 0 1283 0 0 1340 0 0 1270 0 0 1346 0 0 1340 0 0 1338 0 0 1371 0 0 1341 0 0 1306 0 0 1311 0 0 1345 0 0 1350 0 0 1299 0 0 1302 0 0 1270 0 0 1295 0 0 1303 0 0 1242 0 0 1288 0 0 1235 0 0 1302 0 0 1259 0 0 1266 0 0 1237 0 0 1226 0 0 1198 0 0 1140 0 0 697 0 0 267 0 0 224 0 0 204 0 0 193 0 0 181 0 0 162 0 0 155 0 0 130 0 0 120 0 0 
36 0 0 115 0 0 127 0 0 137 0 0 142 0 0 165 0 0 204 0 0 215 0 0 241 0 0 259 0 0 687 0 0 1128 0 0 1151 0 0 1164 0 0 1150 0 0 1266 0 0 1233 0 0 1235 0 0 1248 0 0 1264 0 0 1223 0 0 1323 0 0 1345 0 0 1282 0 0 1315 0 0 1319 0 0 1286 0 0 1384 0 0 1349 0 0 1293 0 0 1340 0 0 1326 0 0 1350 0 0 1254 0 0 1320 0 0 1262 0 0 1256 0 0 1274 0 0 1320 0 0 1256 0 0 1245 0 0 1226 0 0 1268 0 0 1237 0 0 1225 0 0 1218 0 0 1164 0 0 1172 0 0 1208 0 0 1093 0 0 722 0 0 264 0 0 228 0 0 225 0 0 184 0 0 180 0 0 163 0 0 148 0 0 128 0 0 127 0 0 
30 0 0 110 0 0 128 0 0 137 0 0 147 0 0 183 0 0 185 0 0 215 0 0 237 0 0 283 0 0 680 0 0 1071 0 0 1143 0 0 1210 0 0 1232 0 0 1230 0 0 1302 0 0 1201 0 0 1245 0 0 1236 0 0 1264 0 0 1238 0 0 1297 0 0 1294 0 0 1276 0 0 1307 0 0 1298 0 0 1332 0 0 1342 0 0 1333 0 0 1319 0 0 1299 0 0 1346 0 0 1290 0 0 1344 0 0 1316 0 0 1306 0 0 1337 0 0 1303 0 0 1257 0 0 1264 0 0 1253 0 0 1265 0 0 1231 0 0 1256 0 0 1203 0 0 1223 0 0 1196 0 0 1173 0 0 1141 0 0 703 0 0 259 0 0 246 0 0 204 0 0 188 0 0 172 0 0 142 0 0 155 0 0 148 0 0 113 0 0 
33 0 0 120 0 0 122 0 0 138 0 0 151 0 0 167 0 0 204 0 0 205 0 0 225 0 0 253 0 0 684 0 0 1112 0 0 1134 0 0 1161 0 0 1209 0 0 1180 0 0 1228 0 0 1259 0 0 1227 0 0 1232 0 0 1271 0 0 1226 0 0 1271 0 0 1340 0 0 1285 0 0 1218 0 0 1249 0 0 1338 0 0 1299 0 0 1282 0 0 1286 0 0 1320 0 0 1296 0 0 1262 0 0 1302 0 0 1309 0 0 1259 0 0 1304 0 0 1269 0 0 1243 0 0 1296 0 0 1258 0 0 1243 0 0 1255 0 0 1203 0 0 1213 0 0 1215 0 0 1190 0 0 1143 0 0 1087 0 0 677 0 0 251 0 0 214 0 0 190 0 0 168 0 0 169 0 0 150 0 0 143 0 0 125 0 0 109 0 0 
31 0 0 98 0 0 133 0 0 158 0 0 148 0 0 159 0 0 181 0 0 190 0 0 232 0 0 251 0 0 715 0 0 1145 0 0 1143 0 0 1198 0 0 1107 0 0 1190 0 0 1171 0 0 1247 0 0 1330 0 0 1223 0 0 1247 0 0 1267 0 0 1277 0 0 1239 0 0 1262 0 0 1303 0 0 1253 0 0 1290 0 0 1244 0 0 1247 0 0 1290 0 0 1304 0 0 1302 0 0 1251 0 0 1335 0 0 1277 0 0 1279 0 0 1282 0 0 1239 0 0 1262 0 0 1239 0 0 1257 0 0 1234 0 0 1267 0 0 1197 0 0 1264 0 0 1178 0 0 1190 0 0 1136 0 0 1211 0 0 687 0 0 266 0 0 214 0 0 201 0 0 175 0 0 175 0 0 163 0 0 126 0 0 122 0 0 112 0 0 
27 0 0 102 0 0 128 0 0 125 0 0 150 0 0 170 0 0 171 0 0 194 0 0 210 0 0 248 0 0 697 0 0 1115 0 0 1207 0 0 1160 0 0 1163 0 0 1146 0 0 1152 0 0 1174 0 0 1295 0 0 1207 0 0 1256 0 0 1223 0 0 1267 0 0 1304 0 0 1219 0 0 1228 0 0 1277 0 0 1251 0 0 1284 0 0 1309 0 0 1313 0 0 1264 0 0 1251 0 0 1330 0 0 1291 0 0 1275 0 0 1257 0 0 1329 0 0 1269 0 0 1277 0 0 1280 0 0 1231 0 0 1189 0 0 1188 0 0 1236 0 0 1227 0 0 1219 0 0 1183 0 0 1134 0 0 1147 0 0 686 0 0 246 0 0 214 0 0 178 0 0 167 0 0 171 0 0 149 0 0 139 0 0 111 0 0 103 0 0 
35 0 0 105 0 0 129 0 0 125 0 0 140 0 0 165 0 0 169 0 0 188 0 0 198 0 0 240 0 0 682 0 0 1168 0 0 1095 0 0 1152 0 0 1153 0 0 1156 0 0 1196 0 0 1243 0 0 1240 0 0 1219 0 0 1264 0 0 1273 0 0 1253 0 0 1276 0 0 1362 0 0 1324 0 0 1249 0 0 1221 0 0 1271 0 0 1275 0 0 1234 0 0 1329 0 0 1269 0 0 1212 0 0 1241 0 0 1266 0 0 1280 0 0 1256 0 0 1225 0 0 1215 0 0 1284 0 0 1239 0 0 1196 0 0 1267 0 0 1207 0 0 1173 0 0 1179 0 0 1132 0 0 1127 0 0 1108 0 0 669 0 0 236 0 0 215 0 0 185 0 0 189 0 0 162 0 0 129 0 0 121 0 0 111 0 0 118 0 0 
36 0 0 99 0 0 118 0 0 120 0 0 144 0 0 151 0 0 160 0 0 195 0 0 189 0 0 247 0 0 646 0 0 1088 0 0 1152 0 0 1117 0 0 1189 0 0 1152 0 0 1157 0 0 1216 0 0 1213 0 0 1216 0 0 1235 0 0 1192 0 0 1262 0 0 1249 0 0 1207 0 0 1289 0 0 1227 0 0 1249 0 0 1211 0 0 1275 0 0 1285 0 0 1244 0 0 1244 0 0 1314 0 0 1280 0 0 1299 0 0 1292 0 0 1268 0 0 1263 0 0 1268 0 0 1233 0 0 1203 0 0 1219 0 0 1186 0 0 1193 0 0 1166 0 0 1139 0 0 1141 0 0 1113 0 0 1083 0 0 666 0 0 225 0 0 209 0 0 202 0 0 179 0 0 141 0 0 138 0 0 122 0 0 118 0 0 111 0 0 
30 0 0 101 0 0 119 0 0 132 0 0 123 0 0 149 0 0 149 0 0 173 0 0 191 0 0 236 0 0 649 0 0 1057 0 0 1137 0 0 1135 0 0 1132 0 0 1168 0 0 1161 0 0 1200 0 0 1156 0 0 1242 0 0 1223 0 0 1251 0 0 1238 0 0 1169 0 0 1255 0 0 1245 0 0 1226 0 0 1281 0 0 1237 0 0 1247 0 0 1279 0 0 1227 0 0 1148 0 0 1208 0 0 1247 0 0 1211 0 0 1221 0 0 1265 0 0 1207 0 0 1207 0 0 1206 0 0 1186 0 0 1260 0 0 1162 0 0 1199 0 0 1120 0 0 1143 0 0 1131 0 0 1167 0 0 1103 0 0 669 0 0 240 0 0 174 0 0 168 0 0 160 0 0 149 0 0 120 0 0 132 0 0 103 0 0 95 0 0 
30 0 0 82 0 0 101 0 0 111 0 0 129 0 0 138 0 0 152 0 0 163 0 0 169 0 0 207 0 0 620 0 0 1085 0 0 1114 0 0 1123 0 0 1094 0 0 1155 0 0 1217 0 0 1180 0 0 1152 0 0 1190 0 0 1186 0 0 1227 0 0 1180 0 0 1197 0 0 1220 0 0 1228 0 0 1240 0 0 1266 0 0 1213 0 0 1211 0 0 1252 0 0 1209 0 0 1214 0 0 1209 0 0 1251 0 0 1207 0 0 1207 0 0 1179 0 0 1194 0 0 1211 0 0 1194 0 0 1177 0 0 1170 0 0 1154 0 0 1113 0 0 1145 0 0 1153 0 0 1159 0 0 1117 0 0 1075 0 0 628 0 0 220 0 0 191 0 0 160 0 0 154 0 0 152 0 0 130 0 0 134 0 0 114 0 0 106 0 0 
27 0 0 82 0 0 112 0 0 114 0 0 123 0 0 138 0 0 158 0 0 159 0 0 173 0 0 210 0 0 586 0 0 1076 0 0 1111 0 0 1120 0 0 1120 0 0 1065 0 0 1209 0 0 1127 0 0 1145 0 0 1149 0 0 1253 0 0 1210 0 0 1214 0 0 1233 0 0 1222 0 0 1217 0 0 1177 0 0 1229 0 0 1219 0 0 1206 0 0 1214 0 0 1173 0 0 1197 0 0 1209 0 0 1165 0 0 1197 0 0 1185 0 0 1228 0 0 1232 0 0 1230 0 0 1180 0 0 1134 0 0 1190 0 0 1111 0 0 1144 0 0 1176 0 0 1112 0 0 1136 0 0 1040 0 0 1110 0 0 663 0 0 211 0 0 175 0 0 152 0 0 161 0 0 131 0 0 131 0 0 116 0 0 105 0 0 100 0 0 
31 0 0 92 0 0 106 0 0 123 0 0 118 0 0 130 0 0 138 0 0 162 0 0 160 0 0 190 0 0 631 0 0 1040 0 0 1028 0 0 1111 0 0 1125 0 0 1126 0 0 1153 0 0 1092 0 0 1110 0 0 1156 0 0 1118 0 0 1158 0 0 1189 0 0 1196 0 0 1243 0 0 1176 0 0 1165 0 0 1143 0 0 1197 0 0 1198 0 0 1230 0 0 1168 0 0 1215 0 0 1196 0 0 1177 0 0 1185 0 0 1182 0 0 1194 0 0 1155 0 0 1083 0 0 1125 0 0 1175 0 0 1150 0 0 1142 0 0 1109 0 0 1142 0 0 1072 0 0 1100 0 0 1054 0 0 1011 0 0 651 0 0 204 0 0 166 0 0 167 0 0 145 0 0 123 0 0 126 0 0 118 0 0 104 0 0 82 0 0 
27 0 0 88 0 0 94 0 0 99 0 0 128 0 0 119 0 0 138 0 0 149 0 0 153 0 0 172 0 0 625 0 0 1024 0 0 1038 0 0 1060 0 0 1125 0 0 1089 0 0 1070 0 0 1179 0 0 1146 0 0 1155 0 0 1087 0 0 1112 0 0 1158 0 0 1162 0 0 1142 0 0 1182 0 0 1136 0 0 1206 0 0 1103 0 0 1152 0 0 1170 0 0 1143 0 0 1143 0 0 1192 0 0 1142 0 0 1107 0 0 1146 0 0 1083 0 0 1148 0 0 1129 0 0 1129 0 0 1147 0 0 1122 0 0 1145 0 0 1107 0 0 1141 0 0 1087 0 0 1061 0 0 1053 0 0 1031 0 0 588 0 0 175 0 0 150 0 0 138 0 0 140 0 0 128 0 0 112 0 0 115 0 0 105 0 0 82 0 0 
25 0 0 71 0 0 94 0 0 101 0 0 110 0 0 117 0 0 132 0 0 142 0 0 157 0 0 164 0 0 376 0 0 569 0 0 624 0 0 630 0 0 642 0 0 683 0 0 664 0 0 684 0 0 702 0 0 676 0 0 664 0 0 709 0 0 723 0 0 695 0 0 667 0 0 700 0 0 705 0 0 735 0 0 709 0 0 723 0 0 703 0 0 694 0 0 658 0 0 717 0 0 723 0 0 713 0 0 714 0 0 693 0 0 733 0 0 711 0 0 686 0 0 658 0 0 680 0 0 645 0 0 672 0 0 666 0 0 684 0 0 649 0 0 632 0 0 613 0 0 410 0 0 163 0 0 144 0 0 133 0 0 138 0 0 129 0 0 108 0 0 96 0 0 82 0 0 86 0 0 
22 0 0 76 0 0 88 0 0 97 0 0 105 0 0 119 0 0 117 0 0 121 0 0 138 0 0 159 0 0 179 0 0 185 0 0 190 0 0 212 0 0 230 0 0 229 0 0 237 0 0 247 0 0 252 0 0 235 0 0 239 0 0 263 0 0 267 0 0 264 0 0 279 0 0 284 0 0 249 0 0 287 0 0 277 0 0 255 0 0 273 0 0 297 0 0 265 0 0 265 0 0 277 0 0 264 0 0 275 0 0 270 0 0 271 0 0 273 0 0 254 0 0 236 0 0 241 0 0 230 0 0 243 0 0 214 0 0 232 0 0 220 0 0 194 0 0 198 0 0 182 0 0 144 0 0 143 0 0 125 0 0 113 0 0 119 0 0 99 0 0 94 0 0 91 0 0 82 0 0 
25 0 0 59 0 0 96 0 0 103 0 0 98 0 0 102 0 0 108 0 0 127 0 0 131 0 0 148 0 0 152 0 0 168 0 0 179 0 0 191 0 0 176 0 0 205 0 0 203 0 0 217 0 0 216 0 0 199 0 0 220 0 0 229 0 0 231 0 0 219 0 0 236 0 0 247 0 0 255 0 0 243 0 0 243 0 0 238 0 0 246 0 0 222 0 0 247 0 0 235 0 0 236 0 0 227 0 0 230 0 0 237 0 0 236 0 0 217 0 0 237 0 0 230 0 0 213 0 0 206 0 0 188 0 0 189 0 0 193 0 0 168 0 0 170 0 0 158 0 0 155 0 0 148 0 0 140 0 0 115 0 0 119 0 0 110 0 0 93 0 0 84 0 0 78 0 0 85 0 0 
24 0 0 71 0 0 79 0 0 83 0 0 93 0 0 102 0 0 95 0 0 114 0 0 121 0 0 135 0 0 144 0 0 143 0 0 146 0 0 161 0 0 176 0 0 162 0 0 181 0 0 193 0 0 196 0 0 220 0 0 212 0 0 200 0 0 198 0 0 208 0 0 228 0 0 222 0 0 237 0 0 231 0 0 218 0 0 203 0 0 228 0 0 218 0 0 202 0 0 215 0 0 223 0 0 240 0 0 231 0 0 210 0 0 209 0 0 212 0 0 205 0 0 216 0 0 192 0 0 187 0 0 183 0 0 188 0 0 170 0 0 165 0 0 175 0 0 148 0 0 141 0 0 118 0 0 133 0 0 117 0 0 101 0 0 112 0 0 93 0 0 82 0 0 74 0 0 64 0 0 
20 0 0 66 0 0 79 0 0 89 0 0 80 0 0 100 0 0 95 0 0 106 0 0 118 0 0 133 0 0 136 0 0 130 0 0 141 0 0 146 0 0 157 0 0 149 0 0 163 0 0 168 0 0 180 0 0 176 0 0 173 0 0 196 0 0 174 0 0 205 0 0 206 0 0 193 0 0 200 0 0 201 0 0 198 0 0 210 0 0 196 0 0 192 0 0 224 0 0 197 0 0 183 0 0 195 0 0 184 0 0 219 0 0 187 0 0 196 0 0 189 0 0 179 0 0 180 0 0 168 0 0 166 0 0 168 0 0 161 0 0 145 0 0 147 0 0 129 0 0 134 0 0 140 0 0 119 0 0 100 0 0 94 0 0 90 0 0 94 0 0 79 0 0 70 0 0 59 0 0 
22 0 0 70 0 0 79 0 0 73 0 0 79 0 0 86 0 0 85 0 0 92 0 0 114 0 0 113 0 0 114 0 0 109 0 0 121 0 0 122 0 0 154 0 0 154 0 0 146 0 0 141 0 0 156 0 0 182 0 0 154 0 0 176 0 0 162 0 0 190 0 0 186 0 0 182 0 0 190 0 0 186 0 0 182 0 0 190 0 0 185 0 0 191 0 0 184 0 0 200 0 0 184 0 0 184 0 0 173 0 0 181 0 0 159 0 0 165 0 0 187 0 0 166 0 0 158 0 0 150 0 0 159 0 0 139 0 0 154 0 0 125 0 0 132 0 0 122 0 0 117 0 0 117 0 0 117 0 0 105 0 0 99 0 0 86 0 0 81 0 0 73 0 0 63 0 0 65 0 0 
16 0 0 63 0 0 63 0 0 73 0 0 81 0 0 87 0 0 98 0 0 102 0 0 107 0 0 117 0 0 116 0 0 117 0 0 114 0 0 126 0 0 144 0 0 128 0 0 126 0 0 151 0 0 133 0 0 151 0 0 145 0 0 158 0 0 150 0 0 171 0 0 182 0 0 160 0 0 163 0 0 163 0 0 157 0 0 169 0 0 172 0 0 167 0 0 155 0 0 170 0 0 161 0 0 167 0 0 172 0 0 170 0 0 156 0 0 130 0 0 166 0 0 137 0 0 142 0 0 137 0 0 142 0 0 136 0 0 126 0 0 109 0 0 112 0 0 122 0 0 112 0 0 102 0 0 104 0 0 90 0 0 73 0 0 88 0 0 82 0 0 72 0 0 77 0 0 59 0 0 
10 0 0 56 0 0 69 0 0 53 0 0 75 0 0 80 0 0 90 0 0 95 0 0 82 0 0 84 0 0 108 0 0 94 0 0 103 0 0 113 0 0 126 0 0 127 0 0 124 0 0 134 0 0 130 0 0 140 0 0 127 0 0 152 0 0 154 0 0 146 0 0 129 0 0 144 0 0 150 0 0 142 0 0 142 0 0 146 0 0 143 0 0 152 0 0 158 0 0 153 0 0 150 0 0 147 0 0 138 0 0 138 0 0 147 0 0 144 0 0 127 0 0 137 0 0 117 0 0 123 0 0 143 0 0 131 0 0 121 0 0 117 0 0 127 0 0 105 0 0 102 0 0 99 0 0 92 0 0 82 0 0 80 0 0 78 0 0 70 0 0 75 0 0 61 0 0 48 0 0 
20 0 0 48 0 0 61 0 0 61 0 0 69 0 0 68 0 0 65 0 0 86 0 0 80 0 0 89 0 0 104 0 0 86 0 0 95 0 0 100 0 0 105 0 0 96 0 0 124 0 0 126 0 0 127 0 0 124 0 0 139 0 0 125 0 0 122 0 0 130 0 0 125 0 0 138 0 0 119 0 0 143 0 0 152 0 0 139 0 0 158 0 0 138 0 0 140 0 0 142 0 0 137 0 0 133 0 0 133 0 0 129 0 0 142 0 0 127 0 0 122 0 0 122 0 0 106 0 0 117 0 0 134 0 0 115 0 0 123 0 0 101 0 0 109 0 0 93 0 0 97 0 0 83 0 0 86 0 0 73 0 0 79 0 0 69 0 0 56 0 0 65 0 0 62 0 0 49 0 0 
11 0 0 49 0 0 52 0 0 56 0 0 56 0 0 62 0 0 60 0 0 70 0 0 66 0 0 71 0 0 82 0 0 91 0 0 92 0 0 101 0 0 101 0 0 97 0 0 97 0 0 113 0 0 98 0 0 107 0 0 107 0 0 100 0 0 106 0 0 111 0 0 106 0 0 117 0 0 126 0 0 114 0 0 122 0 0 133 0 0 115 0 0 126 0 0 127 0 0 127 0 0 120 0 0 119 0 0 120 0 0 116 0 0 114 0 0 115 0 0 101 0 0 98 0 0 113 0 0 104 0 0 103 0 0 114 0 0 85 0 0 88 0 0 83 0 0 80 0 0 78 0 0 71 0 0 72 0 0 67 0 0 63 0 0 65 0 0 71 0 0 53 0 0 52 0 0 48 0 0 
