P3
# This is a dose file slice at depth 26 of 100
60 60
# now we give the maximum value of the RGB coordinates.
5876
8 0 0 18 0 0 18 0 0 24 0 0 23 0 0 24 0 0 24 0 0 22 0 0 26 0 0 33 0 0 31 0 0 32 0 0 40 0 0 37 0 0 39 0 0 36 0 0 42 0 0 43 0 0 45 0 0 50 0 0 47 0 0 50 0 0 45 0 0 52 0 0 55 0 0 49 0 0 51 0 0 51 0 0 58 0 0 52 0 0 51 0 0 56 0 0 53 0 0 52 0 0 54 0 0 54 0 0 46 0 0 50 0 0 43 0 0 49 0 0 44 0 0 48 0 0 42 0 0 44 0 0 39 0 0 44 0 0 41 0 0 35 0 0 39 0 0 38 0 0 33 0 0 33 0 0 26 0 0 29 0 0 26 0 0 27 0 0 22 0 0 21 0 0 21 0 0 20 0 0 
19 0 0 53 0 0 58 0 0 59 0 0 60 0 0 63 0 0 68 0 0 73 0 0 75 0 0 89 0 0 89 0 0 88 0 0 108 0 0 106 0 0 98 0 0 107 0 0 113 0 0 117 0 0 124 0 0 133 0 0 133 0 0 133 0 0 122 0 0 126 0 0 145 0 0 136 0 0 146 0 0 144 0 0 147 0 0 137 0 0 152 0 0 145 0 0 140 0 0 154 0 0 139 0 0 142 0 0 150 0 0 149 0 0 127 0 0 139 0 0 132 0 0 131 0 0 119 0 0 114 0 0 110 0 0 113 0 0 103 0 0 115 0 0 97 0 0 103 0 0 88 0 0 85 0 0 76 0 0 77 0 0 75 0 0 64 0 0 60 0 0 52 0 0 50 0 0 45 0 0 
24 0 0 52 0 0 56 0 0 62 0 0 67 0 0 72 0 0 79 0 0 78 0 0 90 0 0 89 0 0 102 0 0 103 0 0 120 0 0 129 0 0 137 0 0 130 0 0 143 0 0 153 0 0 155 0 0 159 0 0 159 0 0 148 0 0 162 0 0 170 0 0 170 0 0 168 0 0 166 0 0 171 0 0 173 0 0 168 0 0 173 0 0 168 0 0 171 0 0 165 0 0 173 0 0 162 0 0 173 0 0 157 0 0 149 0 0 157 0 0 141 0 0 157 0 0 146 0 0 137 0 0 140 0 0 135 0 0 131 0 0 129 0 0 122 0 0 114 0 0 108 0 0 108 0 0 94 0 0 88 0 0 77 0 0 75 0 0 75 0 0 62 0 0 47 0 0 47 0 0 
19 0 0 61 0 0 59 0 0 74 0 0 71 0 0 77 0 0 81 0 0 95 0 0 91 0 0 106 0 0 129 0 0 130 0 0 132 0 0 131 0 0 149 0 0 136 0 0 159 0 0 154 0 0 169 0 0 188 0 0 176 0 0 180 0 0 185 0 0 184 0 0 190 0 0 173 0 0 192 0 0 185 0 0 202 0 0 183 0 0 197 0 0 210 0 0 196 0 0 189 0 0 186 0 0 191 0 0 195 0 0 163 0 0 172 0 0 179 0 0 163 0 0 169 0 0 167 0 0 158 0 0 155 0 0 160 0 0 140 0 0 126 0 0 137 0 0 121 0 0 133 0 0 110 0 0 105 0 0 88 0 0 81 0 0 68 0 0 78 0 0 67 0 0 63 0 0 48 0 0 
20 0 0 63 0 0 61 0 0 74 0 0 95 0 0 88 0 0 93 0 0 95 0 0 111 0 0 120 0 0 138 0 0 137 0 0 154 0 0 159 0 0 171 0 0 165 0 0 176 0 0 182 0 0 192 0 0 183 0 0 207 0 0 214 0 0 214 0 0 224 0 0 228 0 0 200 0 0 228 0 0 228 0 0 226 0 0 211 0 0 230 0 0 237 0 0 219 0 0 241 0 0 213 0 0 224 0 0 215 0 0 211 0 0 218 0 0 201 0 0 207 0 0 195 0 0 190 0 0 187 0 0 202 0 0 179 0 0 167 0 0 158 0 0 148 0 0 146 0 0 134 0 0 132 0 0 124 0 0 101 0 0 96 0 0 89 0 0 87 0 0 74 0 0 66 0 0 61 0 0 
25 0 0 62 0 0 71 0 0 77 0 0 84 0 0 103 0 0 114 0 0 113 0 0 129 0 0 136 0 0 156 0 0 170 0 0 165 0 0 174 0 0 202 0 0 196 0 0 198 0 0 210 0 0 216 0 0 221 0 0 221 0 0 229 0 0 252 0 0 241 0 0 254 0 0 252 0 0 255 0 0 248 0 0 242 0 0 255 0 0 252 0 0 257 0 0 256 0 0 240 0 0 257 0 0 250 0 0 239 0 0 241 0 0 250 0 0 231 0 0 235 0 0 237 0 0 215 0 0 205 0 0 202 0 0 201 0 0 198 0 0 187 0 0 172 0 0 167 0 0 150 0 0 139 0 0 117 0 0 114 0 0 104 0 0 95 0 0 84 0 0 84 0 0 72 0 0 63 0 0 
28 0 0 72 0 0 83 0 0 82 0 0 96 0 0 105 0 0 117 0 0 120 0 0 152 0 0 151 0 0 167 0 0 182 0 0 208 0 0 206 0 0 221 0 0 244 0 0 237 0 0 256 0 0 262 0 0 271 0 0 270 0 0 267 0 0 283 0 0 285 0 0 270 0 0 270 0 0 292 0 0 285 0 0 297 0 0 294 0 0 295 0 0 273 0 0 299 0 0 294 0 0 290 0 0 277 0 0 280 0 0 273 0 0 272 0 0 280 0 0 273 0 0 268 0 0 253 0 0 254 0 0 232 0 0 233 0 0 229 0 0 214 0 0 208 0 0 197 0 0 165 0 0 154 0 0 140 0 0 130 0 0 122 0 0 101 0 0 98 0 0 85 0 0 68 0 0 73 0 0 
24 0 0 74 0 0 83 0 0 88 0 0 100 0 0 120 0 0 115 0 0 136 0 0 162 0 0 185 0 0 199 0 0 221 0 0 227 0 0 239 0 0 241 0 0 267 0 0 303 0 0 294 0 0 301 0 0 323 0 0 324 0 0 319 0 0 332 0 0 315 0 0 335 0 0 334 0 0 350 0 0 342 0 0 353 0 0 344 0 0 323 0 0 351 0 0 339 0 0 331 0 0 356 0 0 334 0 0 342 0 0 342 0 0 313 0 0 324 0 0 306 0 0 314 0 0 285 0 0 303 0 0 287 0 0 282 0 0 284 0 0 247 0 0 231 0 0 198 0 0 210 0 0 185 0 0 170 0 0 147 0 0 135 0 0 116 0 0 107 0 0 91 0 0 83 0 0 83 0 0 
32 0 0 83 0 0 95 0 0 102 0 0 124 0 0 120 0 0 124 0 0 167 0 0 171 0 0 198 0 0 223 0 0 252 0 0 257 0 0 277 0 0 304 0 0 333 0 0 354 0 0 324 0 0 342 0 0 366 0 0 368 0 0 391 0 0 379 0 0 393 0 0 388 0 0 384 0 0 403 0 0 404 0 0 400 0 0 400 0 0 399 0 0 413 0 0 393 0 0 409 0 0 405 0 0 394 0 0 387 0 0 376 0 0 387 0 0 376 0 0 375 0 0 382 0 0 350 0 0 353 0 0 340 0 0 322 0 0 316 0 0 302 0 0 278 0 0 238 0 0 236 0 0 197 0 0 186 0 0 172 0 0 140 0 0 123 0 0 114 0 0 110 0 0 96 0 0 75 0 0 
32 0 0 79 0 0 96 0 0 107 0 0 137 0 0 127 0 0 161 0 0 166 0 0 199 0 0 235 0 0 274 0 0 311 0 0 344 0 0 372 0 0 393 0 0 407 0 0 406 0 0 415 0 0 456 0 0 457 0 0 483 0 0 470 0 0 477 0 0 456 0 0 503 0 0 481 0 0 486 0 0 510 0 0 481 0 0 490 0 0 508 0 0 492 0 0 513 0 0 502 0 0 491 0 0 495 0 0 474 0 0 500 0 0 454 0 0 471 0 0 486 0 0 453 0 0 452 0 0 426 0 0 429 0 0 428 0 0 379 0 0 387 0 0 352 0 0 306 0 0 293 0 0 237 0 0 211 0 0 180 0 0 153 0 0 148 0 0 118 0 0 112 0 0 103 0 0 85 0 0 
31 0 0 95 0 0 96 0 0 117 0 0 139 0 0 150 0 0 165 0 0 199 0 0 217 0 0 269 0 0 1059 0 0 1943 0 0 1959 0 0 1981 0 0 1989 0 0 2029 0 0 2087 0 0 2053 0 0 2015 0 0 2114 0 0 2034 0 0 2163 0 0 2115 0 0 2066 0 0 2180 0 0 2129 0 0 2140 0 0 2082 0 0 2128 0 0 2128 0 0 2106 0 0 2089 0 0 2123 0 0 2104 0 0 2063 0 0 2056 0 0 2103 0 0 2049 0 0 2073 0 0 2093 0 0 2097 0 0 2045 0 0 2115 0 0 2015 0 0 2048 0 0 2081 0 0 2040 0 0 1971 0 0 2005 0 0 1840 0 0 1122 0 0 290 0 0 235 0 0 194 0 0 159 0 0 149 0 0 131 0 0 129 0 0 103 0 0 83 0 0 
30 0 0 95 0 0 116 0 0 113 0 0 136 0 0 148 0 0 206 0 0 208 0 0 256 0 0 308 0 0 1953 0 0 3496 0 0 3486 0 0 3487 0 0 3537 0 0 3666 0 0 3724 0 0 3673 0 0 3677 0 0 3741 0 0 3740 0 0 3538 0 0 3612 0 0 3646 0 0 3734 0 0 3672 0 0 3686 0 0 3747 0 0 3717 0 0 3737 0 0 3640 0 0 3752 0 0 3679 0 0 3729 0 0 3719 0 0 3649 0 0 3653 0 0 3738 0 0 3680 0 0 3692 0 0 3638 0 0 3621 0 0 3611 0 0 3709 0 0 3652 0 0 3581 0 0 3567 0 0 3646 0 0 3485 0 0 3422 0 0 1913 0 0 348 0 0 254 0 0 205 0 0 208 0 0 178 0 0 133 0 0 129 0 0 104 0 0 97 0 0 
36 0 0 100 0 0 119 0 0 122 0 0 150 0 0 162 0 0 191 0 0 230 0 0 272 0 0 342 0 0 1931 0 0 3501 0 0 3646 0 0 3580 0 0 3765 0 0 3712 0 0 3831 0 0 3818 0 0 3728 0 0 3739 0 0 3710 0 0 3741 0 0 3729 0 0 3753 0 0 3737 0 0 3845 0 0 3888 0 0 3822 0 0 3819 0 0 3772 0 0 3819 0 0 3816 0 0 3777 0 0 3898 0 0 3791 0 0 3841 0 0 3858 0 0 3845 0 0 3692 0 0 3774 0 0 3694 0 0 3801 0 0 3779 0 0 3759 0 0 3689 0 0 3713 0 0 3716 0 0 3589 0 0 3492 0 0 3461 0 0 1984 0 0 313 0 0 246 0 0 225 0 0 192 0 0 169 0 0 152 0 0 133 0 0 119 0 0 101 0 0 
45 0 0 113 0 0 116 0 0 154 0 0 171 0 0 180 0 0 212 0 0 253 0 0 298 0 0 369 0 0 1920 0 0 3569 0 0 3642 0 0 3627 0 0 3684 0 0 3788 0 0 3807 0 0 3736 0 0 3799 0 0 3799 0 0 3861 0 0 3732 0 0 3866 0 0 3846 0 0 3867 0 0 3846 0 0 3929 0 0 3925 0 0 3771 0 0 3883 0 0 3856 0 0 3816 0 0 3840 0 0 3782 0 0 3880 0 0 3807 0 0 3927 0 0 3855 0 0 3870 0 0 3795 0 0 3801 0 0 3914 0 0 3687 0 0 3759 0 0 3782 0 0 3744 0 0 3740 0 0 3646 0 0 3691 0 0 3494 0 0 1964 0 0 369 0 0 277 0 0 250 0 0 212 0 0 195 0 0 160 0 0 136 0 0 129 0 0 107 0 0 
39 0 0 107 0 0 124 0 0 140 0 0 163 0 0 196 0 0 229 0 0 239 0 0 300 0 0 390 0 0 1941 0 0 3594 0 0 3721 0 0 3650 0 0 3742 0 0 3737 0 0 3783 0 0 3880 0 0 3823 0 0 3832 0 0 3933 0 0 3774 0 0 3876 0 0 3873 0 0 3958 0 0 3905 0 0 3995 0 0 3898 0 0 4036 0 0 3887 0 0 3920 0 0 3916 0 0 3967 0 0 3897 0 0 3969 0 0 3898 0 0 3922 0 0 3958 0 0 3913 0 0 3877 0 0 3926 0 0 3897 0 0 3801 0 0 3878 0 0 3823 0 0 3865 0 0 3779 0 0 3785 0 0 3606 0 0 3566 0 0 2007 0 0 408 0 0 306 0 0 254 0 0 198 0 0 192 0 0 184 0 0 141 0 0 123 0 0 121 0 0 
39 0 0 115 0 0 138 0 0 162 0 0 160 0 0 196 0 0 237 0 0 281 0 0 321 0 0 385 0 0 2009 0 0 3649 0 0 3650 0 0 3742 0 0 3781 0 0 3846 0 0 3800 0 0 3852 0 0 3997 0 0 3819 0 0 3972 0 0 3895 0 0 3951 0 0 3926 0 0 3967 0 0 3919 0 0 3985 0 0 4002 0 0 3964 0 0 3981 0 0 4019 0 0 3851 0 0 3928 0 0 3947 0 0 3891 0 0 3924 0 0 3911 0 0 3994 0 0 4013 0 0 3876 0 0 3931 0 0 4002 0 0 3887 0 0 3880 0 0 3899 0 0 3834 0 0 3780 0 0 3749 0 0 3715 0 0 3633 0 0 2071 0 0 412 0 0 329 0 0 269 0 0 228 0 0 207 0 0 173 0 0 159 0 0 118 0 0 114 0 0 
37 0 0 115 0 0 135 0 0 146 0 0 176 0 0 209 0 0 244 0 0 301 0 0 336 0 0 418 0 0 2016 0 0 3623 0 0 3683 0 0 3807 0 0 3756 0 0 3902 0 0 3836 0 0 3865 0 0 3880 0 0 3869 0 0 3925 0 0 3827 0 0 4010 0 0 3964 0 0 3960 0 0 3906 0 0 4054 0 0 3950 0 0 3983 0 0 4040 0 0 3973 0 0 3976 0 0 4009 0 0 3970 0 0 4017 0 0 3869 0 0 3950 0 0 4008 0 0 3897 0 0 3931 0 0 3939 0 0 3942 0 0 3869 0 0 3799 0 0 3861 0 0 3825 0 0 3853 0 0 3825 0 0 3783 0 0 3603 0 0 2001 0 0 416 0 0 316 0 0 279 0 0 235 0 0 202 0 0 180 0 0 156 0 0 130 0 0 116 0 0 
43 0 0 126 0 0 130 0 0 149 0 0 184 0 0 212 0 0 238 0 0 298 0 0 358 0 0 429 0 0 2022 0 0 3630 0 0 3780 0 0 3719 0 0 3898 0 0 3946 0 0 3839 0 0 3827 0 0 3926 0 0 3946 0 0 4011 0 0 3901 0 0 3985 0 0 3964 0 0 4049 0 0 4054 0 0 4031 0 0 4087 0 0 3943 0 0 4049 0 0 4036 0 0 4101 0 0 4050 0 0 3927 0 0 3977 0 0 3965 0 0 3987 0 0 3932 0 0 4021 0 0 3972 0 0 3952 0 0 3917 0 0 3865 0 0 3870 0 0 3910 0 0 3906 0 0 3848 0 0 3712 0 0 3843 0 0 3643 0 0 2028 0 0 444 0 0 335 0 0 296 0 0 242 0 0 224 0 0 187 0 0 170 0 0 135 0 0 122 0 0 
46 0 0 130 0 0 149 0 0 181 0 0 210 0 0 216 0 0 255 0 0 311 0 0 376 0 0 468 0 0 2064 0 0 3675 0 0 3776 0 0 3821 0 0 3790 0 0 3867 0 0 3961 0 0 3880 0 0 3955 0 0 3996 0 0 4061 0 0 3980 0 0 4056 0 0 4081 0 0 3960 0 0 4036 0 0 4028 0 0 4149 0 0 4010 0 0 4064 0 0 4023 0 0 4034 0 0 4062 0 0 4038 0 0 4047 0 0 3934 0 0 4027 0 0 4012 0 0 3923 0 0 3931 0 0 3972 0 0 3902 0 0 3864 0 0 3859 0 0 3856 0 0 3841 0 0 3859 0 0 3752 0 0 3701 0 0 3705 0 0 2059 0 0 437 0 0 354 0 0 296 0 0 268 0 0 223 0 0 174 0 0 166 0 0 144 0 0 125 0 0 
45 0 0 133 0 0 151 0 0 166 0 0 210 0 0 216 0 0 260 0 0 296 0 0 350 0 0 451 0 0 2061 0 0 3617 0 0 3873 0 0 3718 0 0 3778 0 0 3945 0 0 4014 0 0 3883 0 0 3987 0 0 3960 0 0 4030 0 0 4051 0 0 3982 0 0 4021 0 0 4047 0 0 4108 0 0 4046 0 0 4048 0 0 4101 0 0 4126 0 0 4058 0 0 4046 0 0 4045 0 0 3989 0 0 4071 0 0 4146 0 0 4066 0 0 4067 0 0 4102 0 0 3984 0 0 3941 0 0 4011 0 0 3946 0 0 3934 0 0 3956 0 0 3954 0 0 3793 0 0 3848 0 0 3837 0 0 3695 0 0 1989 0 0 502 0 0 382 0 0 306 0 0 263 0 0 225 0 0 196 0 0 171 0 0 149 0 0 136 0 0 
47 0 0 145 0 0 162 0 0 178 0 0 196 0 0 236 0 0 287 0 0 312 0 0 374 0 0 470 0 0 2157 0 0 3629 0 0 3736 0 0 3777 0 0 3857 0 0 3915 0 0 3903 0 0 3905 0 0 4040 0 0 4048 0 0 3995 0 0 3967 0 0 4048 0 0 4033 0 0 3983 0 0 4078 0 0 4081 0 0 3974 0 0 4062 0 0 4067 0 0 3961 0 0 4020 0 0 4004 0 0 4031 0 0 4115 0 0 4070 0 0 3994 0 0 4023 0 0 4030 0 0 4046 0 0 4037 0 0 4019 0 0 4014 0 0 4008 0 0 3925 0 0 3874 0 0 3872 0 0 3794 0 0 3773 0 0 3620 0 0 2040 0 0 453 0 0 396 0 0 320 0 0 273 0 0 221 0 0 210 0 0 150 0 0 154 0 0 131 0 0 
44 0 0 142 0 0 154 0 0 175 0 0 202 0 0 244 0 0 295 0 0 317 0 0 386 0 0 468 0 0 2048 0 0 3664 0 0 3794 0 0 3787 0 0 4026 0 0 3823 0 0 3902 0 0 3927 0 0 3956 0 0 3985 0 0 4038 0 0 4105 0 0 4043 0 0 4060 0 0 4090 0 0 4076 0 0 4086 0 0 4092 0 0 4043 0 0 4060 0 0 4046 0 0 4058 0 0 4103 0 0 4074 0 0 3998 0 0 4004 0 0 3996 0 0 4052 0 0 3937 0 0 4011 0 0 4022 0 0 3887 0 0 3902 0 0 4025 0 0 3944 0 0 3898 0 0 3897 0 0 3856 0 0 3810 0 0 3700 0 0 2076 0 0 489 0 0 399 0 0 323 0 0 283 0 0 240 0 0 189 0 0 171 0 0 145 0 0 139 0 0 
47 0 0 139 0 0 163 0 0 184 0 0 223 0 0 236 0 0 272 0 0 316 0 0 372 0 0 458 0 0 2056 0 0 3683 0 0 3837 0 0 3869 0 0 3848 0 0 3902 0 0 3914 0 0 4091 0 0 3953 0 0 4053 0 0 4067 0 0 4022 0 0 3988 0 0 4073 0 0 3956 0 0 3995 0 0 4028 0 0 4088 0 0 4038 0 0 4053 0 0 4116 0 0 4114 0 0 4089 0 0 4143 0 0 4068 0 0 4041 0 0 4147 0 0 4071 0 0 3959 0 0 3995 0 0 4034 0 0 3886 0 0 3971 0 0 3955 0 0 3847 0 0 3892 0 0 3920 0 0 3788 0 0 3815 0 0 3677 0 0 2054 0 0 478 0 0 389 0 0 320 0 0 291 0 0 242 0 0 202 0 0 183 0 0 153 0 0 129 0 0 
51 0 0 132 0 0 162 0 0 174 0 0 207 0 0 244 0 0 276 0 0 310 0 0 387 0 0 503 0 0 2100 0 0 3641 0 0 3719 0 0 3839 0 0 3926 0 0 3860 0 0 3892 0 0 3995 0 0 3996 0 0 4128 0 0 4072 0 0 3999 0 0 4169 0 0 4026 0 0 3993 0 0 4067 0 0 4083 0 0 4201 0 0 4082 0 0 4092 0 0 4084 0 0 4150 0 0 4039 0 0 4091 0 0 4158 0 0 4075 0 0 4033 0 0 3979 0 0 4081 0 0 4051 0 0 4036 0 0 4005 0 0 3956 0 0 3926 0 0 3885 0 0 3957 0 0 3889 0 0 3816 0 0 3748 0 0 3630 0 0 2170 0 0 486 0 0 378 0 0 318 0 0 274 0 0 242 0 0 214 0 0 187 0 0 167 0 0 141 0 0 
57 0 0 145 0 0 156 0 0 188 0 0 226 0 0 243 0 0 292 0 0 334 0 0 383 0 0 463 0 0 2026 0 0 3755 0 0 3665 0 0 3796 0 0 3926 0 0 3929 0 0 3975 0 0 4091 0 0 3978 0 0 4129 0 0 4021 0 0 4042 0 0 4090 0 0 4019 0 0 4073 0 0 4030 0 0 4126 0 0 4144 0 0 4071 0 0 4082 0 0 4024 0 0 4089 0 0 4093 0 0 4144 0 0 4083 0 0 4101 0 0 4075 0 0 4056 0 0 4081 0 0 4120 0 0 4008 0 0 4069 0 0 4052 0 0 4012 0 0 3899 0 0 3871 0 0 3851 0 0 3929 0 0 3796 0 0 3740 0 0 2093 0 0 505 0 0 403 0 0 311 0 0 302 0 0 239 0 0 214 0 0 205 0 0 153 0 0 141 0 0 
45 0 0 151 0 0 167 0 0 194 0 0 213 0 0 235 0 0 284 0 0 321 0 0 426 0 0 476 0 0 2171 0 0 3610 0 0 3760 0 0 3963 0 0 3769 0 0 3924 0 0 3977 0 0 3939 0 0 4017 0 0 4013 0 0 4062 0 0 3983 0 0 4042 0 0 4013 0 0 4170 0 0 4226 0 0 4172 0 0 4096 0 0 4068 0 0 4120 0 0 4073 0 0 4103 0 0 4105 0 0 4109 0 0 4167 0 0 4103 0 0 4103 0 0 4027 0 0 4026 0 0 4091 0 0 4097 0 0 4080 0 0 3978 0 0 3984 0 0 3988 0 0 3953 0 0 3933 0 0 3833 0 0 3803 0 0 3758 0 0 2096 0 0 478 0 0 380 0 0 351 0 0 271 0 0 246 0 0 226 0 0 176 0 0 164 0 0 144 0 0 
46 0 0 152 0 0 163 0 0 189 0 0 206 0 0 232 0 0 304 0 0 342 0 0 394 0 0 489 0 0 2102 0 0 3738 0 0 3721 0 0 3874 0 0 4066 0 0 3851 0 0 3963 0 0 3994 0 0 4014 0 0 4016 0 0 4108 0 0 4056 0 0 4093 0 0 4032 0 0 4098 0 0 4127 0 0 4130 0 0 4125 0 0 4025 0 0 4094 0 0 4124 0 0 4178 0 0 4040 0 0 4142 0 0 4216 0 0 4180 0 0 4015 0 0 4145 0 0 4018 0 0 3948 0 0 4048 0 0 3963 0 0 3915 0 0 3999 0 0 3922 0 0 3955 0 0 3929 0 0 3889 0 0 3875 0 0 3856 0 0 2100 0 0 520 0 0 386 0 0 350 0 0 285 0 0 247 0 0 228 0 0 201 0 0 171 0 0 148 0 0 
52 0 0 144 0 0 167 0 0 197 0 0 212 0 0 258 0 0 303 0 0 343 0 0 426 0 0 483 0 0 2133 0 0 3747 0 0 3785 0 0 3844 0 0 3923 0 0 3960 0 0 4004 0 0 3951 0 0 4073 0 0 3993 0 0 3974 0 0 4108 0 0 4096 0 0 4066 0 0 4025 0 0 4123 0 0 4057 0 0 4021 0 0 4173 0 0 4113 0 0 4072 0 0 4068 0 0 4121 0 0 4135 0 0 4222 0 0 4045 0 0 4075 0 0 3984 0 0 4125 0 0 4039 0 0 4123 0 0 4059 0 0 4043 0 0 3999 0 0 4076 0 0 4015 0 0 3981 0 0 3986 0 0 3884 0 0 3736 0 0 2116 0 0 481 0 0 376 0 0 349 0 0 294 0 0 252 0 0 222 0 0 193 0 0 170 0 0 144 0 0 
51 0 0 149 0 0 172 0 0 194 0 0 223 0 0 252 0 0 308 0 0 365 0 0 415 0 0 496 0 0 2160 0 0 3714 0 0 3828 0 0 3867 0 0 3945 0 0 3924 0 0 4027 0 0 4049 0 0 4087 0 0 4087 0 0 4124 0 0 4018 0 0 4010 0 0 4074 0 0 4094 0 0 4007 0 0 4062 0 0 4115 0 0 4106 0 0 4106 0 0 4120 0 0 4097 0 0 4086 0 0 4103 0 0 4120 0 0 4146 0 0 4129 0 0 4059 0 0 4116 0 0 4046 0 0 4032 0 0 4104 0 0 4065 0 0 4018 0 0 3933 0 0 3992 0 0 4050 0 0 3753 0 0 3767 0 0 3749 0 0 2109 0 0 495 0 0 406 0 0 337 0 0 286 0 0 249 0 0 209 0 0 191 0 0 165 0 0 150 0 0 
56 0 0 144 0 0 165 0 0 188 0 0 214 0 0 254 0 0 298 0 0 356 0 0 396 0 0 511 0 0 2128 0 0 3684 0 0 3788 0 0 3908 0 0 3856 0 0 3958 0 0 3994 0 0 3951 0 0 3972 0 0 4013 0 0 4144 0 0 4215 0 0 4038 0 0 4084 0 0 4153 0 0 4160 0 0 4192 0 0 4075 0 0 4122 0 0 4185 0 0 4230 0 0 4057 0 0 4179 0 0 4135 0 0 4128 0 0 4083 0 0 4113 0 0 4068 0 0 4092 0 0 4085 0 0 4060 0 0 3993 0 0 4074 0 0 4128 0 0 3962 0 0 3969 0 0 3781 0 0 3827 0 0 3771 0 0 3660 0 0 2129 0 0 496 0 0 410 0 0 333 0 0 280 0 0 267 0 0 222 0 0 189 0 0 167 0 0 144 0 0 
45 0 0 153 0 0 174 0 0 188 0 0 212 0 0 267 0 0 285 0 0 346 0 0 403 0 0 507 0 0 2137 0 0 3620 0 0 3798 0 0 3910 0 0 3927 0 0 3944 0 0 4146 0 0 4112 0 0 3967 0 0 4075 0 0 4055 0 0 4142 0 0 4134 0 0 4084 0 0 4168 0 0 4148 0 0 4131 0 0 4071 0 0 4121 0 0 4123 0 0 4230 0 0 4089 0 0 4097 0 0 4038 0 0 4104 0 0 4084 0 0 4103 0 0 4030 0 0 4089 0 0 4112 0 0 4045 0 0 3920 0 0 4042 0 0 4043 0 0 4013 0 0 3996 0 0 3911 0 0 3876 0 0 3804 0 0 3747 0 0 2114 0 0 496 0 0 403 0 0 338 0 0 301 0 0 260 0 0 212 0 0 199 0 0 186 0 0 148 0 0 
48 0 0 144 0 0 161 0 0 191 0 0 215 0 0 245 0 0 286 0 0 341 0 0 389 0 0 500 0 0 2187 0 0 3785 0 0 3779 0 0 3930 0 0 3958 0 0 3907 0 0 4047 0 0 4057 0 0 3997 0 0 4148 0 0 4030 0 0 3995 0 0 4091 0 0 4073 0 0 4050 0 0 4028 0 0 4163 0 0 4061 0 0 4143 0 0 4114 0 0 4148 0 0 4094 0 0 4217 0 0 4131 0 0 4153 0 0 4127 0 0 4093 0 0 4114 0 0 4050 0 0 4038 0 0 3949 0 0 4021 0 0 4074 0 0 4115 0 0 4025 0 0 3940 0 0 3890 0 0 3887 0 0 3875 0 0 3678 0 0 2049 0 0 507 0 0 387 0 0 337 0 0 298 0 0 255 0 0 220 0 0 177 0 0 175 0 0 148 0 0 
46 0 0 146 0 0 163 0 0 194 0 0 228 0 0 252 0 0 284 0 0 340 0 0 406 0 0 490 0 0 2120 0 0 3672 0 0 3864 0 0 3875 0 0 3950 0 0 3897 0 0 4026 0 0 4104 0 0 4051 0 0 4117 0 0 4026 0 0 4170 0 0 3983 0 0 4058 0 0 4035 0 0 4140 0 0 4168 0 0 4122 0 0 4100 0 0 4089 0 0 4076 0 0 4083 0 0 4033 0 0 4056 0 0 4077 0 0 4124 0 0 4193 0 0 4051 0 0 4115 0 0 4019 0 0 4003 0 0 4180 0 0 4046 0 0 4021 0 0 3864 0 0 3859 0 0 3898 0 0 3895 0 0 3818 0 0 3710 0 0 2086 0 0 511 0 0 390 0 0 332 0 0 291 0 0 243 0 0 215 0 0 200 0 0 175 0 0 153 0 0 
40 0 0 146 0 0 155 0 0 194 0 0 202 0 0 257 0 0 296 0 0 338 0 0 413 0 0 494 0 0 2077 0 0 3774 0 0 3928 0 0 3900 0 0 3851 0 0 3950 0 0 4040 0 0 4065 0 0 4052 0 0 4053 0 0 4083 0 0 4017 0 0 4029 0 0 4120 0 0 4110 0 0 4193 0 0 4047 0 0 4159 0 0 4124 0 0 4125 0 0 4093 0 0 4091 0 0 4093 0 0 4018 0 0 3992 0 0 4111 0 0 4045 0 0 4157 0 0 4127 0 0 4137 0 0 4027 0 0 4041 0 0 4090 0 0 4067 0 0 3973 0 0 3903 0 0 3940 0 0 3975 0 0 3837 0 0 3682 0 0 2065 0 0 483 0 0 415 0 0 335 0 0 288 0 0 240 0 0 227 0 0 202 0 0 161 0 0 146 0 0 
46 0 0 136 0 0 178 0 0 200 0 0 212 0 0 257 0 0 304 0 0 337 0 0 398 0 0 488 0 0 2151 0 0 3633 0 0 3867 0 0 3862 0 0 3970 0 0 3920 0 0 3907 0 0 4006 0 0 4061 0 0 4090 0 0 4054 0 0 4024 0 0 4164 0 0 4135 0 0 4033 0 0 4150 0 0 4114 0 0 4111 0 0 4203 0 0 4063 0 0 4128 0 0 4145 0 0 4110 0 0 4150 0 0 4183 0 0 4081 0 0 4037 0 0 4151 0 0 4044 0 0 4153 0 0 4115 0 0 3986 0 0 4025 0 0 4083 0 0 4051 0 0 3941 0 0 4004 0 0 3822 0 0 3722 0 0 3684 0 0 2082 0 0 494 0 0 433 0 0 339 0 0 286 0 0 248 0 0 218 0 0 193 0 0 154 0 0 148 0 0 
49 0 0 138 0 0 152 0 0 194 0 0 224 0 0 247 0 0 292 0 0 346 0 0 400 0 0 505 0 0 2040 0 0 3718 0 0 3729 0 0 3915 0 0 3906 0 0 3865 0 0 3992 0 0 3995 0 0 4016 0 0 3985 0 0 3975 0 0 4059 0 0 4120 0 0 4124 0 0 4074 0 0 4217 0 0 3984 0 0 4017 0 0 4183 0 0 4094 0 0 4092 0 0 4204 0 0 4064 0 0 4045 0 0 4107 0 0 4097 0 0 4158 0 0 4107 0 0 4012 0 0 4050 0 0 4062 0 0 3974 0 0 4034 0 0 4017 0 0 4032 0 0 3919 0 0 3856 0 0 3897 0 0 3811 0 0 3840 0 0 2136 0 0 473 0 0 385 0 0 339 0 0 281 0 0 244 0 0 224 0 0 168 0 0 170 0 0 139 0 0 
49 0 0 146 0 0 165 0 0 189 0 0 216 0 0 240 0 0 273 0 0 342 0 0 373 0 0 455 0 0 2097 0 0 3647 0 0 3877 0 0 3950 0 0 3865 0 0 3934 0 0 3981 0 0 4014 0 0 3983 0 0 4074 0 0 4063 0 0 4082 0 0 3996 0 0 4061 0 0 4037 0 0 4132 0 0 4151 0 0 4167 0 0 4080 0 0 4080 0 0 4005 0 0 4070 0 0 4100 0 0 4206 0 0 4132 0 0 4109 0 0 4034 0 0 4060 0 0 4051 0 0 4050 0 0 4139 0 0 4101 0 0 3937 0 0 3997 0 0 3944 0 0 4037 0 0 3889 0 0 3893 0 0 3840 0 0 3725 0 0 2083 0 0 481 0 0 396 0 0 345 0 0 301 0 0 243 0 0 221 0 0 188 0 0 160 0 0 139 0 0 
46 0 0 138 0 0 164 0 0 183 0 0 207 0 0 251 0 0 280 0 0 340 0 0 391 0 0 477 0 0 2077 0 0 3601 0 0 3816 0 0 3751 0 0 3941 0 0 3971 0 0 4031 0 0 3989 0 0 3902 0 0 3978 0 0 4132 0 0 4128 0 0 4085 0 0 4048 0 0 4106 0 0 4210 0 0 4022 0 0 4095 0 0 4073 0 0 4212 0 0 4045 0 0 4027 0 0 4112 0 0 4114 0 0 4152 0 0 4086 0 0 4098 0 0 4093 0 0 4005 0 0 4007 0 0 4059 0 0 4015 0 0 3983 0 0 3913 0 0 3933 0 0 3996 0 0 3835 0 0 3929 0 0 3782 0 0 3621 0 0 2077 0 0 450 0 0 402 0 0 332 0 0 269 0 0 244 0 0 206 0 0 176 0 0 143 0 0 142 0 0 
49 0 0 147 0 0 166 0 0 188 0 0 207 0 0 237 0 0 263 0 0 318 0 0 397 0 0 492 0 0 2145 0 0 3686 0 0 3798 0 0 3863 0 0 3801 0 0 3914 0 0 3927 0 0 3953 0 0 4013 0 0 4034 0 0 4085 0 0 3887 0 0 4110 0 0 4180 0 0 4123 0 0 4042 0 0 4097 0 0 4145 0 0 4066 0 0 4145 0 0 4076 0 0 4128 0 0 4117 0 0 4023 0 0 4040 0 0 4001 0 0 4061 0 0 4131 0 0 4018 0 0 4111 0 0 3968 0 0 4020 0 0 4015 0 0 3976 0 0 3877 0 0 3820 0 0 3832 0 0 3861 0 0 3745 0 0 3803 0 0 2086 0 0 472 0 0 397 0 0 338 0 0 281 0 0 238 0 0 221 0 0 188 0 0 164 0 0 142 0 0 
47 0 0 140 0 0 158 0 0 179 0 0 206 0 0 239 0 0 274 0 0 312 0 0 385 0 0 485 0 0 2069 0 0 3735 0 0 3746 0 0 3679 0 0 3854 0 0 3905 0 0 3949 0 0 4098 0 0 3995 0 0 4086 0 0 3913 0 0 4070 0 0 4121 0 0 4004 0 0 4096 0 0 4157 0 0 4103 0 0 4194 0 0 4204 0 0 4077 0 0 4044 0 0 4076 0 0 3949 0 0 4038 0 0 4109 0 0 4049 0 0 4171 0 0 3997 0 0 4060 0 0 4016 0 0 3920 0 0 3972 0 0 4034 0 0 3952 0 0 3892 0 0 3930 0 0 3838 0 0 3818 0 0 3785 0 0 3657 0 0 2057 0 0 481 0 0 370 0 0 303 0 0 276 0 0 243 0 0 198 0 0 172 0 0 147 0 0 125 0 0 
45 0 0 134 0 0 152 0 0 187 0 0 205 0 0 229 0 0 269 0 0 307 0 0 387 0 0 481 0 0 2074 0 0 3668 0 0 3813 0 0 3719 0 0 3916 0 0 3931 0 0 3987 0 0 4036 0 0 3931 0 0 4053 0 0 4011 0 0 3950 0 0 4151 0 0 4034 0 0 4093 0 0 4108 0 0 4050 0 0 4113 0 0 3948 0 0 4090 0 0 4131 0 0 4026 0 0 4122 0 0 4076 0 0 4061 0 0 4047 0 0 4102 0 0 4055 0 0 4007 0 0 4041 0 0 4075 0 0 3975 0 0 3928 0 0 3971 0 0 3948 0 0 3958 0 0 3861 0 0 3748 0 0 3792 0 0 3667 0 0 2043 0 0 463 0 0 392 0 0 314 0 0 265 0 0 232 0 0 192 0 0 177 0 0 156 0 0 130 0 0 
45 0 0 135 0 0 159 0 0 176 0 0 196 0 0 230 0 0 281 0 0 293 0 0 366 0 0 434 0 0 2041 0 0 3695 0 0 3641 0 0 3843 0 0 3769 0 0 3893 0 0 3994 0 0 3857 0 0 3908 0 0 3993 0 0 3990 0 0 4097 0 0 4044 0 0 4128 0 0 3958 0 0 4083 0 0 4073 0 0 4129 0 0 4143 0 0 4076 0 0 4057 0 0 3994 0 0 4092 0 0 3981 0 0 4027 0 0 4038 0 0 4047 0 0 4152 0 0 4021 0 0 3942 0 0 3982 0 0 4033 0 0 3907 0 0 4019 0 0 3930 0 0 3856 0 0 3835 0 0 3773 0 0 3637 0 0 3638 0 0 2063 0 0 448 0 0 375 0 0 295 0 0 267 0 0 247 0 0 195 0 0 171 0 0 152 0 0 135 0 0 
42 0 0 119 0 0 137 0 0 175 0 0 188 0 0 226 0 0 249 0 0 287 0 0 365 0 0 465 0 0 2017 0 0 3738 0 0 3776 0 0 3798 0 0 3956 0 0 3868 0 0 3927 0 0 3870 0 0 3985 0 0 3961 0 0 4090 0 0 4067 0 0 4145 0 0 4092 0 0 3997 0 0 3940 0 0 3959 0 0 3900 0 0 4009 0 0 4041 0 0 3979 0 0 4094 0 0 4020 0 0 3965 0 0 4057 0 0 3944 0 0 4091 0 0 3976 0 0 3941 0 0 3945 0 0 3948 0 0 3911 0 0 3940 0 0 3954 0 0 3923 0 0 3793 0 0 3832 0 0 3805 0 0 3701 0 0 3670 0 0 2068 0 0 453 0 0 330 0 0 301 0 0 258 0 0 223 0 0 185 0 0 176 0 0 158 0 0 119 0 0 
43 0 0 122 0 0 142 0 0 152 0 0 185 0 0 228 0 0 245 0 0 280 0 0 349 0 0 426 0 0 1997 0 0 3571 0 0 3722 0 0 3701 0 0 3882 0 0 3811 0 0 3896 0 0 3928 0 0 3954 0 0 4060 0 0 3835 0 0 3958 0 0 3993 0 0 3994 0 0 3996 0 0 3957 0 0 4022 0 0 3974 0 0 4050 0 0 3976 0 0 4038 0 0 4016 0 0 4026 0 0 3959 0 0 4048 0 0 4077 0 0 4004 0 0 4054 0 0 3913 0 0 3905 0 0 4008 0 0 3889 0 0 3955 0 0 3944 0 0 3845 0 0 3892 0 0 3878 0 0 3747 0 0 3817 0 0 3699 0 0 2079 0 0 446 0 0 348 0 0 275 0 0 237 0 0 209 0 0 186 0 0 160 0 0 145 0 0 121 0 0 
39 0 0 129 0 0 131 0 0 156 0 0 196 0 0 211 0 0 234 0 0 276 0 0 321 0 0 415 0 0 1941 0 0 3636 0 0 3785 0 0 3761 0 0 3744 0 0 3790 0 0 3802 0 0 3930 0 0 3912 0 0 3890 0 0 3936 0 0 3969 0 0 3974 0 0 3958 0 0 4015 0 0 4045 0 0 4033 0 0 4068 0 0 4007 0 0 3963 0 0 3954 0 0 4047 0 0 3906 0 0 3998 0 0 3994 0 0 3976 0 0 3975 0 0 3861 0 0 3951 0 0 3932 0 0 3946 0 0 3870 0 0 3836 0 0 3863 0 0 3826 0 0 3817 0 0 3773 0 0 3833 0 0 3698 0 0 3649 0 0 2137 0 0 437 0 0 343 0 0 283 0 0 253 0 0 219 0 0 181 0 0 151 0 0 135 0 0 119 0 0 
38 0 0 118 0 0 138 0 0 143 0 0 178 0 0 190 0 0 241 0 0 281 0 0 337 0 0 425 0 0 1972 0 0 3614 0 0 3699 0 0 3796 0 0 3749 0 0 3824 0 0 3756 0 0 3884 0 0 3794 0 0 3917 0 0 3941 0 0 3856 0 0 3915 0 0 3931 0 0 3928 0 0 3972 0 0 3945 0 0 3871 0 0 3935 0 0 3973 0 0 3919 0 0 3948 0 0 3949 0 0 3899 0 0 3943 0 0 3961 0 0 3874 0 0 3931 0 0 3914 0 0 3924 0 0 3810 0 0 3924 0 0 3909 0 0 3850 0 0 3807 0 0 3732 0 0 3767 0 0 3772 0 0 3769 0 0 3556 0 0 1982 0 0 401 0 0 312 0 0 275 0 0 255 0 0 205 0 0 182 0 0 154 0 0 132 0 0 109 0 0 
38 0 0 113 0 0 127 0 0 143 0 0 171 0 0 187 0 0 227 0 0 246 0 0 308 0 0 397 0 0 2035 0 0 3663 0 0 3662 0 0 3768 0 0 3741 0 0 3727 0 0 3906 0 0 3894 0 0 3910 0 0 3835 0 0 3836 0 0 3862 0 0 3944 0 0 3944 0 0 3917 0 0 3966 0 0 3826 0 0 3900 0 0 3930 0 0 3983 0 0 3974 0 0 3939 0 0 3913 0 0 3882 0 0 3949 0 0 3932 0 0 3889 0 0 3860 0 0 3878 0 0 3962 0 0 3872 0 0 3838 0 0 3816 0 0 3868 0 0 3875 0 0 3786 0 0 3701 0 0 3787 0 0 3667 0 0 3552 0 0 1967 0 0 410 0 0 299 0 0 264 0 0 224 0 0 203 0 0 165 0 0 139 0 0 130 0 0 103 0 0 
42 0 0 104 0 0 117 0 0 148 0 0 164 0 0 183 0 0 205 0 0 259 0 0 294 0 0 381 0 0 1898 0 0 3497 0 0 3568 0 0 3604 0 0 3718 0 0 3741 0 0 3802 0 0 3768 0 0 3731 0 0 3770 0 0 3888 0 0 3836 0 0 3829 0 0 3842 0 0 3731 0 0 3829 0 0 3909 0 0 3908 0 0 3799 0 0 3905 0 0 3876 0 0 3815 0 0 3864 0 0 3735 0 0 3866 0 0 3865 0 0 3787 0 0 3902 0 0 3865 0 0 3916 0 0 3882 0 0 4016 0 0 3760 0 0 3842 0 0 3801 0 0 3694 0 0 3693 0 0 3624 0 0 3586 0 0 3611 0 0 1964 0 0 375 0 0 281 0 0 252 0 0 208 0 0 163 0 0 155 0 0 143 0 0 121 0 0 107 0 0 
36 0 0 91 0 0 112 0 0 132 0 0 155 0 0 153 0 0 195 0 0 237 0 0 259 0 0 372 0 0 1924 0 0 3584 0 0 3577 0 0 3597 0 0 3710 0 0 3790 0 0 3644 0 0 3762 0 0 3702 0 0 3721 0 0 3769 0 0 3829 0 0 3833 0 0 3891 0 0 3885 0 0 3834 0 0 3766 0 0 3856 0 0 3834 0 0 3834 0 0 3821 0 0 3781 0 0 3826 0 0 3748 0 0 3705 0 0 3794 0 0 3772 0 0 3877 0 0 3837 0 0 3749 0 0 3790 0 0 3772 0 0 3677 0 0 3779 0 0 3771 0 0 3704 0 0 3738 0 0 3726 0 0 3621 0 0 3485 0 0 1977 0 0 358 0 0 281 0 0 231 0 0 189 0 0 188 0 0 160 0 0 134 0 0 111 0 0 105 0 0 
29 0 0 88 0 0 105 0 0 124 0 0 148 0 0 157 0 0 179 0 0 212 0 0 255 0 0 330 0 0 1959 0 0 3494 0 0 3486 0 0 3544 0 0 3536 0 0 3630 0 0 3669 0 0 3664 0 0 3706 0 0 3698 0 0 3623 0 0 3683 0 0 3671 0 0 3673 0 0 3615 0 0 3667 0 0 3745 0 0 3729 0 0 3663 0 0 3757 0 0 3775 0 0 3708 0 0 3696 0 0 3725 0 0 3737 0 0 3775 0 0 3743 0 0 3689 0 0 3787 0 0 3650 0 0 3705 0 0 3650 0 0 3546 0 0 3553 0 0 3608 0 0 3568 0 0 3618 0 0 3514 0 0 3546 0 0 3390 0 0 1917 0 0 342 0 0 251 0 0 204 0 0 176 0 0 170 0 0 137 0 0 126 0 0 101 0 0 96 0 0 
28 0 0 89 0 0 98 0 0 124 0 0 125 0 0 154 0 0 176 0 0 203 0 0 230 0 0 273 0 0 1109 0 0 1907 0 0 1959 0 0 1929 0 0 2050 0 0 1996 0 0 2015 0 0 2066 0 0 2010 0 0 2095 0 0 2112 0 0 2113 0 0 2035 0 0 2155 0 0 2053 0 0 2086 0 0 2037 0 0 2076 0 0 2140 0 0 2136 0 0 2075 0 0 2105 0 0 2073 0 0 2093 0 0 2140 0 0 2122 0 0 2070 0 0 2137 0 0 2098 0 0 2122 0 0 2048 0 0 2028 0 0 2140 0 0 2060 0 0 2018 0 0 1969 0 0 1886 0 0 1932 0 0 1897 0 0 1939 0 0 1090 0 0 272 0 0 228 0 0 211 0 0 162 0 0 149 0 0 127 0 0 112 0 0 102 0 0 87 0 0 
31 0 0 90 0 0 91 0 0 105 0 0 114 0 0 145 0 0 148 0 0 178 0 0 202 0 0 252 0 0 290 0 0 316 0 0 337 0 0 365 0 0 393 0 0 394 0 0 456 0 0 442 0 0 447 0 0 485 0 0 475 0 0 446 0 0 483 0 0 481 0 0 452 0 0 470 0 0 472 0 0 510 0 0 488 0 0 515 0 0 493 0 0 538 0 0 482 0 0 492 0 0 492 0 0 506 0 0 526 0 0 475 0 0 489 0 0 493 0 0 483 0 0 445 0 0 457 0 0 450 0 0 450 0 0 435 0 0 392 0 0 368 0 0 350 0 0 327 0 0 272 0 0 223 0 0 198 0 0 188 0 0 141 0 0 143 0 0 129 0 0 112 0 0 85 0 0 83 0 0 
31 0 0 76 0 0 93 0 0 107 0 0 112 0 0 126 0 0 138 0 0 153 0 0 194 0 0 212 0 0 229 0 0 252 0 0 269 0 0 287 0 0 309 0 0 337 0 0 336 0 0 358 0 0 358 0 0 382 0 0 359 0 0 365 0 0 368 0 0 395 0 0 409 0 0 384 0 0 383 0 0 383 0 0 394 0 0 395 0 0 392 0 0 398 0 0 378 0 0 421 0 0 401 0 0 391 0 0 394 0 0 393 0 0 375 0 0 375 0 0 380 0 0 363 0 0 334 0 0 362 0 0 350 0 0 324 0 0 316 0 0 305 0 0 269 0 0 248 0 0 231 0 0 205 0 0 183 0 0 165 0 0 125 0 0 115 0 0 128 0 0 97 0 0 86 0 0 76 0 0 
28 0 0 74 0 0 81 0 0 89 0 0 101 0 0 124 0 0 125 0 0 144 0 0 158 0 0 184 0 0 209 0 0 208 0 0 239 0 0 253 0 0 277 0 0 255 0 0 292 0 0 291 0 0 294 0 0 318 0 0 311 0 0 326 0 0 321 0 0 339 0 0 325 0 0 333 0 0 355 0 0 348 0 0 327 0 0 351 0 0 349 0 0 331 0 0 343 0 0 361 0 0 336 0 0 335 0 0 309 0 0 334 0 0 325 0 0 330 0 0 322 0 0 303 0 0 312 0 0 294 0 0 280 0 0 293 0 0 243 0 0 245 0 0 218 0 0 212 0 0 191 0 0 174 0 0 163 0 0 136 0 0 133 0 0 110 0 0 112 0 0 90 0 0 85 0 0 69 0 0 
25 0 0 69 0 0 73 0 0 84 0 0 105 0 0 97 0 0 124 0 0 129 0 0 140 0 0 150 0 0 174 0 0 183 0 0 201 0 0 210 0 0 239 0 0 243 0 0 245 0 0 244 0 0 276 0 0 251 0 0 287 0 0 271 0 0 275 0 0 276 0 0 274 0 0 293 0 0 293 0 0 300 0 0 306 0 0 280 0 0 295 0 0 315 0 0 313 0 0 301 0 0 300 0 0 280 0 0 265 0 0 288 0 0 270 0 0 273 0 0 272 0 0 253 0 0 254 0 0 238 0 0 246 0 0 222 0 0 221 0 0 199 0 0 189 0 0 186 0 0 182 0 0 162 0 0 144 0 0 124 0 0 123 0 0 104 0 0 101 0 0 77 0 0 76 0 0 67 0 0 
24 0 0 65 0 0 75 0 0 81 0 0 89 0 0 96 0 0 119 0 0 120 0 0 129 0 0 132 0 0 142 0 0 165 0 0 167 0 0 172 0 0 204 0 0 205 0 0 193 0 0 204 0 0 224 0 0 219 0 0 237 0 0 228 0 0 240 0 0 246 0 0 240 0 0 247 0 0 251 0 0 251 0 0 241 0 0 268 0 0 254 0 0 252 0 0 249 0 0 258 0 0 243 0 0 234 0 0 252 0 0 236 0 0 264 0 0 239 0 0 227 0 0 241 0 0 214 0 0 212 0 0 196 0 0 196 0 0 190 0 0 180 0 0 164 0 0 159 0 0 143 0 0 133 0 0 130 0 0 132 0 0 112 0 0 98 0 0 91 0 0 81 0 0 66 0 0 64 0 0 
18 0 0 58 0 0 64 0 0 79 0 0 80 0 0 83 0 0 97 0 0 98 0 0 119 0 0 130 0 0 128 0 0 136 0 0 158 0 0 157 0 0 161 0 0 186 0 0 173 0 0 179 0 0 197 0 0 187 0 0 199 0 0 192 0 0 206 0 0 209 0 0 207 0 0 222 0 0 218 0 0 215 0 0 219 0 0 220 0 0 212 0 0 219 0 0 222 0 0 213 0 0 224 0 0 223 0 0 207 0 0 209 0 0 218 0 0 219 0 0 204 0 0 194 0 0 189 0 0 190 0 0 173 0 0 174 0 0 168 0 0 160 0 0 140 0 0 152 0 0 132 0 0 133 0 0 114 0 0 110 0 0 84 0 0 88 0 0 86 0 0 76 0 0 64 0 0 63 0 0 
19 0 0 58 0 0 58 0 0 62 0 0 81 0 0 90 0 0 86 0 0 90 0 0 98 0 0 109 0 0 115 0 0 127 0 0 131 0 0 126 0 0 156 0 0 147 0 0 161 0 0 157 0 0 170 0 0 164 0 0 182 0 0 175 0 0 187 0 0 181 0 0 184 0 0 179 0 0 197 0 0 198 0 0 210 0 0 192 0 0 188 0 0 182 0 0 192 0 0 196 0 0 192 0 0 188 0 0 187 0 0 181 0 0 183 0 0 181 0 0 187 0 0 173 0 0 180 0 0 154 0 0 166 0 0 144 0 0 139 0 0 139 0 0 137 0 0 129 0 0 118 0 0 123 0 0 107 0 0 91 0 0 83 0 0 76 0 0 75 0 0 67 0 0 53 0 0 57 0 0 
19 0 0 53 0 0 57 0 0 60 0 0 70 0 0 84 0 0 71 0 0 85 0 0 85 0 0 104 0 0 98 0 0 111 0 0 115 0 0 124 0 0 125 0 0 127 0 0 136 0 0 148 0 0 145 0 0 150 0 0 156 0 0 156 0 0 163 0 0 157 0 0 157 0 0 171 0 0 168 0 0 157 0 0 166 0 0 152 0 0 162 0 0 161 0 0 175 0 0 169 0 0 152 0 0 165 0 0 160 0 0 169 0 0 170 0 0 154 0 0 149 0 0 149 0 0 145 0 0 145 0 0 143 0 0 125 0 0 128 0 0 132 0 0 120 0 0 114 0 0 100 0 0 95 0 0 89 0 0 78 0 0 78 0 0 71 0 0 68 0 0 64 0 0 55 0 0 48 0 0 
14 0 0 43 0 0 49 0 0 57 0 0 61 0 0 64 0 0 70 0 0 70 0 0 81 0 0 77 0 0 91 0 0 94 0 0 96 0 0 104 0 0 116 0 0 108 0 0 124 0 0 134 0 0 126 0 0 132 0 0 144 0 0 133 0 0 128 0 0 141 0 0 138 0 0 136 0 0 137 0 0 132 0 0 138 0 0 143 0 0 149 0 0 148 0 0 149 0 0 145 0 0 137 0 0 139 0 0 135 0 0 151 0 0 139 0 0 136 0 0 117 0 0 124 0 0 140 0 0 116 0 0 114 0 0 120 0 0 108 0 0 107 0 0 99 0 0 95 0 0 97 0 0 87 0 0 83 0 0 86 0 0 68 0 0 63 0 0 60 0 0 50 0 0 52 0 0 44 0 0 
