P3
# This is a dose file slice at depth 45 of 100
60 60
# now we give the maximum value of the RGB coordinates.
32920
0 0 0 0 0 0 0 0 0 3 0 0 1 0 0 1 0 0 1 0 0 5 0 0 2 0 0 2 0 0 1 0 0 2 0 0 5 0 0 2 0 0 3 0 0 3 0 0 2 0 0 3 0 0 4 0 0 4 0 0 5 0 0 0 0 0 3 0 0 3 0 0 2 0 0 3 0 0 3 0 0 1 0 0 4 0 0 0 0 0 3 0 0 4 0 0 1 0 0 2 0 0 5 0 0 2 0 0 4 0 0 2 0 0 5 0 0 3 0 0 3 0 0 3 0 0 2 0 0 2 0 0 1 0 0 3 0 0 4 0 0 3 0 0 3 0 0 1 0 0 1 0 0 2 0 0 1 0 0 1 0 0 0 0 0 2 0 0 1 0 0 1 0 0 1 0 0 0 0 0 
0 0 0 2 0 0 1 0 0 5 0 0 7 0 0 5 0 0 3 0 0 7 0 0 6 0 0 5 0 0 7 0 0 1 0 0 6 0 0 11 0 0 6 0 0 10 0 0 6 0 0 7 0 0 10 0 0 8 0 0 11 0 0 11 0 0 11 0 0 8 0 0 7 0 0 11 0 0 6 0 0 4 0 0 7 0 0 3 0 0 6 0 0 5 0 0 5 0 0 7 0 0 4 0 0 6 0 0 7 0 0 9 0 0 5 0 0 6 0 0 6 0 0 4 0 0 10 0 0 7 0 0 6 0 0 4 0 0 4 0 0 7 0 0 3 0 0 4 0 0 3 0 0 5 0 0 2 0 0 1 0 0 3 0 0 2 0 0 1 0 0 3 0 0 2 0 0 1 0 0 
0 0 0 0 0 0 4 0 0 3 0 0 5 0 0 7 0 0 4 0 0 2 0 0 3 0 0 6 0 0 10 0 0 4 0 0 2 0 0 6 0 0 7 0 0 7 0 0 5 0 0 7 0 0 7 0 0 11 0 0 11 0 0 7 0 0 9 0 0 13 0 0 3 0 0 8 0 0 8 0 0 6 0 0 7 0 0 5 0 0 3 0 0 9 0 0 3 0 0 5 0 0 2 0 0 9 0 0 14 0 0 8 0 0 5 0 0 8 0 0 7 0 0 12 0 0 12 0 0 9 0 0 6 0 0 6 0 0 5 0 0 6 0 0 5 0 0 5 0 0 6 0 0 7 0 0 2 0 0 1 0 0 1 0 0 2 0 0 2 0 0 2 0 0 4 0 0 7 0 0 
0 0 0 1 0 0 1 0 0 7 0 0 4 0 0 5 0 0 2 0 0 2 0 0 4 0 0 8 0 0 10 0 0 9 0 0 7 0 0 4 0 0 7 0 0 11 0 0 9 0 0 12 0 0 11 0 0 12 0 0 4 0 0 11 0 0 8 0 0 5 0 0 8 0 0 14 0 0 10 0 0 11 0 0 10 0 0 12 0 0 7 0 0 9 0 0 5 0 0 7 0 0 10 0 0 12 0 0 12 0 0 8 0 0 3 0 0 6 0 0 10 0 0 10 0 0 14 0 0 9 0 0 5 0 0 8 0 0 5 0 0 6 0 0 11 0 0 3 0 0 5 0 0 6 0 0 5 0 0 3 0 0 2 0 0 4 0 0 6 0 0 7 0 0 4 0 0 2 0 0 
1 0 0 2 0 0 2 0 0 7 0 0 8 0 0 3 0 0 3 0 0 3 0 0 11 0 0 7 0 0 11 0 0 10 0 0 15 0 0 7 0 0 8 0 0 7 0 0 3 0 0 9 0 0 10 0 0 12 0 0 7 0 0 4 0 0 9 0 0 9 0 0 11 0 0 12 0 0 16 0 0 10 0 0 10 0 0 17 0 0 9 0 0 4 0 0 6 0 0 3 0 0 12 0 0 15 0 0 13 0 0 6 0 0 5 0 0 5 0 0 9 0 0 12 0 0 14 0 0 10 0 0 10 0 0 11 0 0 6 0 0 10 0 0 11 0 0 6 0 0 8 0 0 3 0 0 4 0 0 4 0 0 6 0 0 3 0 0 7 0 0 2 0 0 4 0 0 3 0 0 
1 0 0 6 0 0 4 0 0 3 0 0 8 0 0 4 0 0 8 0 0 3 0 0 6 0 0 11 0 0 11 0 0 11 0 0 14 0 0 13 0 0 9 0 0 12 0 0 11 0 0 12 0 0 12 0 0 7 0 0 16 0 0 13 0 0 11 0 0 7 0 0 10 0 0 13 0 0 10 0 0 16 0 0 9 0 0 16 0 0 10 0 0 11 0 0 8 0 0 8 0 0 15 0 0 12 0 0 11 0 0 5 0 0 8 0 0 10 0 0 15 0 0 12 0 0 8 0 0 13 0 0 12 0 0 12 0 0 7 0 0 8 0 0 11 0 0 10 0 0 9 0 0 4 0 0 7 0 0 4 0 0 1 0 0 7 0 0 3 0 0 3 0 0 3 0 0 3 0 0 
0 0 0 1 0 0 5 0 0 7 0 0 2 0 0 7 0 0 9 0 0 6 0 0 5 0 0 8 0 0 6 0 0 10 0 0 8 0 0 16 0 0 16 0 0 13 0 0 6 0 0 13 0 0 14 0 0 13 0 0 16 0 0 12 0 0 10 0 0 15 0 0 18 0 0 20 0 0 20 0 0 8 0 0 16 0 0 16 0 0 9 0 0 14 0 0 7 0 0 8 0 0 15 0 0 14 0 0 14 0 0 17 0 0 12 0 0 7 0 0 20 0 0 9 0 0 10 0 0 18 0 0 15 0 0 9 0 0 13 0 0 10 0 0 13 0 0 10 0 0 9 0 0 7 0 0 6 0 0 6 0 0 6 0 0 5 0 0 6 0 0 4 0 0 1 0 0 4 0 0 
2 0 0 2 0 0 4 0 0 7 0 0 11 0 0 3 0 0 7 0 0 9 0 0 4 0 0 16 0 0 10 0 0 15 0 0 10 0 0 13 0 0 19 0 0 18 0 0 17 0 0 11 0 0 15 0 0 12 0 0 22 0 0 13 0 0 19 0 0 20 0 0 15 0 0 16 0 0 17 0 0 21 0 0 12 0 0 15 0 0 16 0 0 17 0 0 14 0 0 22 0 0 19 0 0 17 0 0 20 0 0 24 0 0 13 0 0 10 0 0 24 0 0 8 0 0 17 0 0 19 0 0 17 0 0 14 0 0 13 0 0 15 0 0 8 0 0 8 0 0 4 0 0 12 0 0 4 0 0 8 0 0 5 0 0 2 0 0 5 0 0 3 0 0 2 0 0 4 0 0 
5 0 0 7 0 0 5 0 0 4 0 0 6 0 0 9 0 0 11 0 0 5 0 0 14 0 0 13 0 0 21 0 0 12 0 0 16 0 0 12 0 0 23 0 0 18 0 0 18 0 0 25 0 0 21 0 0 19 0 0 19 0 0 26 0 0 23 0 0 31 0 0 25 0 0 21 0 0 18 0 0 32 0 0 26 0 0 25 0 0 21 0 0 27 0 0 33 0 0 24 0 0 16 0 0 24 0 0 15 0 0 30 0 0 24 0 0 16 0 0 20 0 0 17 0 0 23 0 0 24 0 0 25 0 0 24 0 0 17 0 0 18 0 0 15 0 0 12 0 0 14 0 0 9 0 0 7 0 0 8 0 0 2 0 0 7 0 0 7 0 0 11 0 0 7 0 0 6 0 0 
3 0 0 8 0 0 9 0 0 7 0 0 4 0 0 7 0 0 9 0 0 16 0 0 9 0 0 17 0 0 57 0 0 81 0 0 87 0 0 79 0 0 92 0 0 79 0 0 84 0 0 95 0 0 96 0 0 93 0 0 85 0 0 96 0 0 91 0 0 103 0 0 89 0 0 84 0 0 96 0 0 97 0 0 90 0 0 91 0 0 92 0 0 83 0 0 94 0 0 98 0 0 99 0 0 94 0 0 80 0 0 99 0 0 98 0 0 82 0 0 89 0 0 100 0 0 86 0 0 104 0 0 107 0 0 91 0 0 107 0 0 81 0 0 101 0 0 79 0 0 49 0 0 16 0 0 12 0 0 8 0 0 10 0 0 9 0 0 12 0 0 11 0 0 7 0 0 5 0 0 
2 0 0 7 0 0 9 0 0 9 0 0 10 0 0 12 0 0 13 0 0 6 0 0 14 0 0 40 0 0 2962 0 0 5933 0 0 5890 0 0 5950 0 0 6042 0 0 5992 0 0 5854 0 0 6030 0 0 6031 0 0 5999 0 0 5882 0 0 6029 0 0 5944 0 0 6039 0 0 5936 0 0 5865 0 0 5891 0 0 5899 0 0 5863 0 0 5944 0 0 6187 0 0 6000 0 0 5880 0 0 5880 0 0 5961 0 0 5992 0 0 6032 0 0 5944 0 0 5880 0 0 6031 0 0 5968 0 0 5943 0 0 5924 0 0 6107 0 0 5974 0 0 6007 0 0 5912 0 0 6021 0 0 5849 0 0 5966 0 0 3011 0 0 54 0 0 16 0 0 12 0 0 12 0 0 7 0 0 6 0 0 9 0 0 8 0 0 4 0 0 
4 0 0 6 0 0 5 0 0 6 0 0 7 0 0 14 0 0 8 0 0 8 0 0 13 0 0 76 0 0 5870 0 0 11804 0 0 11881 0 0 11707 0 0 11778 0 0 11737 0 0 11815 0 0 11923 0 0 11813 0 0 11772 0 0 11676 0 0 11858 0 0 11747 0 0 11784 0 0 11777 0 0 11756 0 0 11666 0 0 11739 0 0 11804 0 0 11998 0 0 11849 0 0 11805 0 0 11741 0 0 11980 0 0 11954 0 0 11800 0 0 11784 0 0 11844 0 0 11911 0 0 11969 0 0 11822 0 0 11806 0 0 11815 0 0 11694 0 0 11883 0 0 11750 0 0 11740 0 0 11803 0 0 11799 0 0 11829 0 0 5976 0 0 83 0 0 15 0 0 10 0 0 10 0 0 9 0 0 2 0 0 7 0 0 5 0 0 1 0 0 
0 0 0 5 0 0 9 0 0 7 0 0 7 0 0 4 0 0 14 0 0 13 0 0 20 0 0 84 0 0 6019 0 0 11866 0 0 12012 0 0 11845 0 0 11872 0 0 11951 0 0 12071 0 0 12090 0 0 11861 0 0 11966 0 0 11983 0 0 12021 0 0 12075 0 0 11819 0 0 11869 0 0 11956 0 0 12019 0 0 11997 0 0 12072 0 0 11981 0 0 11807 0 0 11970 0 0 11927 0 0 11975 0 0 11814 0 0 12036 0 0 12057 0 0 11883 0 0 11892 0 0 11980 0 0 11961 0 0 11929 0 0 12068 0 0 12099 0 0 11845 0 0 11844 0 0 11887 0 0 11816 0 0 11834 0 0 11896 0 0 6035 0 0 92 0 0 13 0 0 12 0 0 9 0 0 5 0 0 7 0 0 6 0 0 4 0 0 5 0 0 
3 0 0 5 0 0 8 0 0 8 0 0 10 0 0 15 0 0 15 0 0 12 0 0 17 0 0 102 0 0 5952 0 0 11855 0 0 12147 0 0 12000 0 0 11936 0 0 11762 0 0 11848 0 0 11956 0 0 11943 0 0 12122 0 0 12083 0 0 11991 0 0 11824 0 0 12029 0 0 12007 0 0 11930 0 0 11958 0 0 11780 0 0 11970 0 0 11913 0 0 12047 0 0 12069 0 0 11722 0 0 12099 0 0 11878 0 0 11894 0 0 12014 0 0 12036 0 0 11991 0 0 12078 0 0 12002 0 0 11845 0 0 11945 0 0 12043 0 0 11944 0 0 11715 0 0 12099 0 0 12041 0 0 11884 0 0 11951 0 0 6096 0 0 80 0 0 9 0 0 11 0 0 7 0 0 5 0 0 5 0 0 8 0 0 8 0 0 7 0 0 
3 0 0 8 0 0 8 0 0 9 0 0 10 0 0 10 0 0 11 0 0 14 0 0 16 0 0 88 0 0 6009 0 0 11956 0 0 12081 0 0 12042 0 0 12052 0 0 12108 0 0 11862 0 0 11998 0 0 11909 0 0 11907 0 0 11856 0 0 12137 0 0 11887 0 0 12005 0 0 11990 0 0 12116 0 0 12087 0 0 11899 0 0 11980 0 0 11809 0 0 11874 0 0 11876 0 0 11994 0 0 11899 0 0 11943 0 0 11827 0 0 11913 0 0 11886 0 0 12063 0 0 11902 0 0 12029 0 0 11898 0 0 12020 0 0 11970 0 0 12134 0 0 12047 0 0 11873 0 0 11855 0 0 11975 0 0 11800 0 0 5988 0 0 75 0 0 14 0 0 15 0 0 13 0 0 12 0 0 11 0 0 9 0 0 6 0 0 1 0 0 
0 0 0 4 0 0 7 0 0 10 0 0 10 0 0 10 0 0 13 0 0 16 0 0 22 0 0 98 0 0 6046 0 0 11861 0 0 11932 0 0 12080 0 0 11945 0 0 11903 0 0 11871 0 0 11844 0 0 11975 0 0 11916 0 0 11830 0 0 12246 0 0 11836 0 0 11899 0 0 11913 0 0 11945 0 0 12117 0 0 11940 0 0 11939 0 0 12131 0 0 11971 0 0 11989 0 0 11973 0 0 11900 0 0 12028 0 0 11941 0 0 11904 0 0 11976 0 0 12061 0 0 12131 0 0 11937 0 0 11991 0 0 11883 0 0 11999 0 0 12029 0 0 11922 0 0 11994 0 0 11884 0 0 11835 0 0 11885 0 0 5994 0 0 95 0 0 24 0 0 18 0 0 12 0 0 10 0 0 7 0 0 9 0 0 9 0 0 5 0 0 
1 0 0 3 0 0 2 0 0 6 0 0 8 0 0 13 0 0 12 0 0 20 0 0 22 0 0 94 0 0 5950 0 0 11876 0 0 11874 0 0 11921 0 0 12063 0 0 11952 0 0 11886 0 0 11706 0 0 11937 0 0 11990 0 0 11847 0 0 12023 0 0 12002 0 0 11868 0 0 11926 0 0 11761 0 0 12106 0 0 11976 0 0 11885 0 0 12018 0 0 11898 0 0 11826 0 0 11917 0 0 11993 0 0 11751 0 0 11800 0 0 11992 0 0 11997 0 0 11957 0 0 11909 0 0 11935 0 0 11955 0 0 11913 0 0 11884 0 0 11774 0 0 11879 0 0 11943 0 0 12108 0 0 12122 0 0 12010 0 0 5945 0 0 95 0 0 25 0 0 16 0 0 8 0 0 6 0 0 8 0 0 6 0 0 7 0 0 9 0 0 
2 0 0 8 0 0 9 0 0 7 0 0 6 0 0 8 0 0 13 0 0 14 0 0 23 0 0 93 0 0 5988 0 0 11939 0 0 12086 0 0 11912 0 0 11888 0 0 12023 0 0 12038 0 0 12021 0 0 11915 0 0 11843 0 0 11779 0 0 12132 0 0 11951 0 0 11897 0 0 11979 0 0 11971 0 0 11924 0 0 12004 0 0 11882 0 0 12015 0 0 11825 0 0 11947 0 0 11938 0 0 11868 0 0 11898 0 0 12072 0 0 11936 0 0 12014 0 0 11708 0 0 11795 0 0 11828 0 0 11814 0 0 11903 0 0 11720 0 0 11965 0 0 11899 0 0 11965 0 0 11889 0 0 11862 0 0 11712 0 0 5982 0 0 104 0 0 24 0 0 9 0 0 12 0 0 13 0 0 9 0 0 8 0 0 7 0 0 9 0 0 
2 0 0 4 0 0 11 0 0 14 0 0 10 0 0 8 0 0 8 0 0 17 0 0 21 0 0 108 0 0 6034 0 0 11849 0 0 12017 0 0 11928 0 0 11986 0 0 11931 0 0 12096 0 0 11859 0 0 12022 0 0 12022 0 0 11944 0 0 12139 0 0 11947 0 0 12022 0 0 11890 0 0 12022 0 0 11894 0 0 12061 0 0 12023 0 0 11966 0 0 11856 0 0 11839 0 0 11979 0 0 11976 0 0 11809 0 0 11979 0 0 11995 0 0 11935 0 0 11997 0 0 11871 0 0 11832 0 0 12049 0 0 12084 0 0 11814 0 0 11849 0 0 11908 0 0 11941 0 0 11977 0 0 11954 0 0 11875 0 0 5933 0 0 84 0 0 14 0 0 15 0 0 14 0 0 13 0 0 8 0 0 6 0 0 9 0 0 5 0 0 
0 0 0 6 0 0 7 0 0 10 0 0 13 0 0 12 0 0 7 0 0 12 0 0 15 0 0 86 0 0 5921 0 0 11713 0 0 11866 0 0 11991 0 0 11872 0 0 11930 0 0 11885 0 0 11838 0 0 12056 0 0 11990 0 0 11763 0 0 11965 0 0 12036 0 0 11752 0 0 11772 0 0 12188 0 0 11957 0 0 11909 0 0 11941 0 0 12083 0 0 11918 0 0 11970 0 0 11826 0 0 11926 0 0 12008 0 0 11994 0 0 12103 0 0 12054 0 0 11834 0 0 11991 0 0 11974 0 0 12055 0 0 11886 0 0 11879 0 0 11910 0 0 12025 0 0 11925 0 0 12024 0 0 11761 0 0 11763 0 0 5895 0 0 100 0 0 23 0 0 24 0 0 16 0 0 11 0 0 8 0 0 10 0 0 6 0 0 3 0 0 
5 0 0 5 0 0 7 0 0 5 0 0 11 0 0 14 0 0 16 0 0 14 0 0 18 0 0 91 0 0 6086 0 0 11802 0 0 11953 0 0 11971 0 0 11889 0 0 11881 0 0 11774 0 0 12119 0 0 11857 0 0 11829 0 0 12024 0 0 12057 0 0 11949 0 0 11895 0 0 11899 0 0 11863 0 0 11999 0 0 12057 0 0 11929 0 0 11819 0 0 12027 0 0 11965 0 0 11828 0 0 11924 0 0 11897 0 0 11991 0 0 11947 0 0 11923 0 0 11967 0 0 11946 0 0 12009 0 0 11831 0 0 11983 0 0 11993 0 0 11734 0 0 11767 0 0 12070 0 0 11875 0 0 11883 0 0 12031 0 0 5993 0 0 88 0 0 30 0 0 23 0 0 16 0 0 3 0 0 8 0 0 4 0 0 4 0 0 10 0 0 
3 0 0 5 0 0 6 0 0 9 0 0 7 0 0 6 0 0 12 0 0 12 0 0 22 0 0 86 0 0 6048 0 0 11865 0 0 11833 0 0 12043 0 0 11944 0 0 11903 0 0 11766 0 0 11873 0 0 11756 0 0 11988 0 0 11945 0 0 11839 0 0 11993 0 0 11922 0 0 11914 0 0 11821 0 0 12103 0 0 11784 0 0 11878 0 0 12034 0 0 11964 0 0 12019 0 0 11921 0 0 12035 0 0 11988 0 0 11897 0 0 11977 0 0 12001 0 0 11880 0 0 11916 0 0 11921 0 0 12045 0 0 12018 0 0 12052 0 0 11894 0 0 11877 0 0 11984 0 0 11956 0 0 11857 0 0 11916 0 0 5995 0 0 88 0 0 25 0 0 14 0 0 17 0 0 22 0 0 8 0 0 9 0 0 7 0 0 8 0 0 
5 0 0 9 0 0 7 0 0 10 0 0 12 0 0 12 0 0 13 0 0 13 0 0 18 0 0 105 0 0 5923 0 0 11811 0 0 11961 0 0 11853 0 0 11720 0 0 11883 0 0 11717 0 0 11860 0 0 11904 0 0 11897 0 0 11794 0 0 11754 0 0 11896 0 0 11987 0 0 11984 0 0 11926 0 0 11928 0 0 12002 0 0 11981 0 0 11946 0 0 11986 0 0 12124 0 0 11881 0 0 11885 0 0 12009 0 0 11912 0 0 12105 0 0 12117 0 0 11944 0 0 11933 0 0 11981 0 0 12102 0 0 11922 0 0 11946 0 0 12082 0 0 11912 0 0 11944 0 0 11859 0 0 11965 0 0 11698 0 0 5977 0 0 99 0 0 19 0 0 12 0 0 14 0 0 14 0 0 7 0 0 8 0 0 8 0 0 7 0 0 
4 0 0 8 0 0 3 0 0 2 0 0 11 0 0 8 0 0 16 0 0 28 0 0 23 0 0 95 0 0 6022 0 0 11855 0 0 11793 0 0 11893 0 0 11807 0 0 12037 0 0 11937 0 0 11946 0 0 12031 0 0 11977 0 0 11968 0 0 11955 0 0 11894 0 0 11812 0 0 11932 0 0 11853 0 0 12130 0 0 12083 0 0 12003 0 0 12102 0 0 11950 0 0 12046 0 0 12033 0 0 11957 0 0 11839 0 0 11918 0 0 11806 0 0 11935 0 0 11884 0 0 11964 0 0 11973 0 0 11885 0 0 12044 0 0 11941 0 0 11880 0 0 12173 0 0 12130 0 0 12152 0 0 12080 0 0 11922 0 0 6059 0 0 117 0 0 20 0 0 22 0 0 19 0 0 17 0 0 14 0 0 9 0 0 7 0 0 4 0 0 
1 0 0 4 0 0 2 0 0 4 0 0 6 0 0 11 0 0 14 0 0 17 0 0 23 0 0 96 0 0 6074 0 0 11895 0 0 11855 0 0 11977 0 0 11958 0 0 11974 0 0 11965 0 0 12089 0 0 11940 0 0 11889 0 0 11879 0 0 11961 0 0 12253 0 0 12035 0 0 11955 0 0 11850 0 0 11978 0 0 11965 0 0 11811 0 0 12172 0 0 12005 0 0 11936 0 0 11965 0 0 12107 0 0 11840 0 0 11940 0 0 11868 0 0 12084 0 0 12006 0 0 11950 0 0 11882 0 0 11925 0 0 11943 0 0 11827 0 0 11698 0 0 11836 0 0 12045 0 0 12066 0 0 11995 0 0 11857 0 0 6020 0 0 87 0 0 31 0 0 26 0 0 22 0 0 13 0 0 9 0 0 10 0 0 9 0 0 4 0 0 
4 0 0 8 0 0 8 0 0 9 0 0 9 0 0 9 0 0 14 0 0 12 0 0 21 0 0 83 0 0 6106 0 0 11837 0 0 11924 0 0 12003 0 0 11985 0 0 12138 0 0 12005 0 0 12088 0 0 11957 0 0 11998 0 0 11941 0 0 11891 0 0 11952 0 0 11905 0 0 11970 0 0 11845 0 0 12001 0 0 11974 0 0 12161 0 0 11804 0 0 12152 0 0 12092 0 0 11766 0 0 11923 0 0 11845 0 0 11868 0 0 12058 0 0 11824 0 0 11922 0 0 11964 0 0 11787 0 0 11925 0 0 11960 0 0 12088 0 0 11959 0 0 11885 0 0 11913 0 0 12116 0 0 12057 0 0 11951 0 0 5962 0 0 116 0 0 28 0 0 19 0 0 17 0 0 9 0 0 9 0 0 6 0 0 5 0 0 5 0 0 
3 0 0 11 0 0 16 0 0 11 0 0 10 0 0 14 0 0 11 0 0 13 0 0 29 0 0 87 0 0 6074 0 0 11743 0 0 11930 0 0 12026 0 0 12098 0 0 12034 0 0 11675 0 0 11984 0 0 12043 0 0 11994 0 0 12007 0 0 12090 0 0 11814 0 0 11968 0 0 12006 0 0 11945 0 0 11973 0 0 11863 0 0 11882 0 0 12048 0 0 11938 0 0 11998 0 0 12133 0 0 11983 0 0 11964 0 0 11875 0 0 12113 0 0 11854 0 0 12049 0 0 12063 0 0 12003 0 0 11883 0 0 11919 0 0 11839 0 0 12002 0 0 12001 0 0 11888 0 0 11780 0 0 11895 0 0 11841 0 0 5987 0 0 84 0 0 26 0 0 17 0 0 12 0 0 11 0 0 10 0 0 10 0 0 9 0 0 12 0 0 
2 0 0 6 0 0 11 0 0 5 0 0 8 0 0 9 0 0 10 0 0 11 0 0 19 0 0 103 0 0 5930 0 0 11764 0 0 11862 0 0 11833 0 0 11798 0 0 11836 0 0 11948 0 0 12041 0 0 11928 0 0 12071 0 0 11924 0 0 11987 0 0 11957 0 0 12014 0 0 11788 0 0 11815 0 0 12023 0 0 11980 0 0 12093 0 0 11738 0 0 11776 0 0 11943 0 0 11943 0 0 11994 0 0 12085 0 0 11873 0 0 11825 0 0 11854 0 0 11969 0 0 12133 0 0 11985 0 0 11870 0 0 12164 0 0 11957 0 0 11948 0 0 11980 0 0 11992 0 0 11898 0 0 11992 0 0 11821 0 0 6020 0 0 93 0 0 21 0 0 15 0 0 14 0 0 11 0 0 7 0 0 10 0 0 5 0 0 4 0 0 
2 0 0 7 0 0 2 0 0 7 0 0 12 0 0 11 0 0 13 0 0 12 0 0 17 0 0 97 0 0 5997 0 0 12004 0 0 11831 0 0 11815 0 0 11997 0 0 12056 0 0 11693 0 0 11952 0 0 11946 0 0 11945 0 0 11968 0 0 12073 0 0 11899 0 0 11844 0 0 12157 0 0 11994 0 0 12091 0 0 11877 0 0 12033 0 0 11894 0 0 11962 0 0 11940 0 0 11800 0 0 12029 0 0 11912 0 0 11997 0 0 11890 0 0 11852 0 0 12026 0 0 11860 0 0 11932 0 0 11854 0 0 11916 0 0 11854 0 0 11942 0 0 11807 0 0 11936 0 0 11997 0 0 11807 0 0 11802 0 0 6108 0 0 96 0 0 23 0 0 17 0 0 9 0 0 4 0 0 10 0 0 11 0 0 5 0 0 5 0 0 
4 0 0 6 0 0 7 0 0 8 0 0 7 0 0 11 0 0 11 0 0 16 0 0 10 0 0 94 0 0 5855 0 0 11981 0 0 11898 0 0 11914 0 0 11938 0 0 12072 0 0 11987 0 0 11918 0 0 11958 0 0 12080 0 0 11822 0 0 11750 0 0 11896 0 0 11926 0 0 12013 0 0 11892 0 0 12037 0 0 12068 0 0 11937 0 0 12009 0 0 11900 0 0 12002 0 0 12124 0 0 12098 0 0 11964 0 0 11909 0 0 11947 0 0 11932 0 0 11898 0 0 11874 0 0 11904 0 0 11810 0 0 11910 0 0 12017 0 0 11958 0 0 12106 0 0 11956 0 0 11803 0 0 11951 0 0 11982 0 0 5872 0 0 71 0 0 27 0 0 21 0 0 12 0 0 9 0 0 4 0 0 3 0 0 5 0 0 12 0 0 
1 0 0 8 0 0 6 0 0 5 0 0 8 0 0 11 0 0 12 0 0 12 0 0 18 0 0 84 0 0 6022 0 0 12000 0 0 11819 0 0 11848 0 0 12031 0 0 12029 0 0 11948 0 0 12130 0 0 11934 0 0 12029 0 0 11757 0 0 11961 0 0 11764 0 0 11936 0 0 11795 0 0 12089 0 0 12049 0 0 11955 0 0 12022 0 0 11902 0 0 11938 0 0 11922 0 0 11935 0 0 11973 0 0 11997 0 0 11851 0 0 11827 0 0 11902 0 0 12135 0 0 11957 0 0 11849 0 0 11829 0 0 12016 0 0 11944 0 0 12069 0 0 11979 0 0 11988 0 0 12072 0 0 11959 0 0 11910 0 0 6005 0 0 96 0 0 26 0 0 28 0 0 12 0 0 12 0 0 11 0 0 5 0 0 6 0 0 10 0 0 
2 0 0 3 0 0 5 0 0 10 0 0 15 0 0 10 0 0 16 0 0 15 0 0 23 0 0 81 0 0 5982 0 0 11885 0 0 11807 0 0 12068 0 0 11848 0 0 11992 0 0 11855 0 0 11910 0 0 11959 0 0 11990 0 0 11957 0 0 11883 0 0 12041 0 0 11953 0 0 11910 0 0 12077 0 0 11808 0 0 11827 0 0 11950 0 0 12000 0 0 11998 0 0 11925 0 0 11954 0 0 11856 0 0 11861 0 0 11816 0 0 12014 0 0 12034 0 0 11973 0 0 11989 0 0 11959 0 0 12034 0 0 12127 0 0 11989 0 0 11921 0 0 12049 0 0 11923 0 0 12079 0 0 11881 0 0 11818 0 0 6050 0 0 82 0 0 20 0 0 18 0 0 12 0 0 9 0 0 11 0 0 11 0 0 6 0 0 5 0 0 
1 0 0 6 0 0 3 0 0 6 0 0 9 0 0 14 0 0 12 0 0 19 0 0 24 0 0 93 0 0 6014 0 0 11904 0 0 11830 0 0 11862 0 0 11960 0 0 11957 0 0 11994 0 0 11860 0 0 12143 0 0 11949 0 0 11928 0 0 12084 0 0 11886 0 0 11741 0 0 11957 0 0 11735 0 0 12018 0 0 11999 0 0 11915 0 0 12102 0 0 12016 0 0 12066 0 0 12168 0 0 12086 0 0 12039 0 0 11879 0 0 11927 0 0 12113 0 0 11947 0 0 11741 0 0 12007 0 0 11985 0 0 11996 0 0 11811 0 0 11803 0 0 12101 0 0 11899 0 0 11877 0 0 11997 0 0 11859 0 0 5935 0 0 101 0 0 26 0 0 21 0 0 14 0 0 10 0 0 12 0 0 14 0 0 10 0 0 11 0 0 
5 0 0 9 0 0 10 0 0 10 0 0 10 0 0 12 0 0 12 0 0 16 0 0 21 0 0 96 0 0 6077 0 0 12006 0 0 12017 0 0 11966 0 0 12038 0 0 11977 0 0 12103 0 0 11855 0 0 12032 0 0 11854 0 0 11932 0 0 12070 0 0 11766 0 0 12095 0 0 11984 0 0 11798 0 0 12005 0 0 11998 0 0 11929 0 0 11945 0 0 12086 0 0 12093 0 0 11783 0 0 12064 0 0 11950 0 0 11984 0 0 12033 0 0 11958 0 0 12031 0 0 11894 0 0 12015 0 0 11877 0 0 11881 0 0 11870 0 0 11758 0 0 11777 0 0 12017 0 0 12054 0 0 11964 0 0 11919 0 0 5906 0 0 96 0 0 15 0 0 16 0 0 20 0 0 15 0 0 15 0 0 14 0 0 10 0 0 13 0 0 
1 0 0 4 0 0 8 0 0 11 0 0 8 0 0 11 0 0 14 0 0 16 0 0 26 0 0 97 0 0 5944 0 0 11848 0 0 11902 0 0 11950 0 0 11943 0 0 11997 0 0 11820 0 0 11732 0 0 11857 0 0 12064 0 0 11894 0 0 11893 0 0 11691 0 0 11891 0 0 12157 0 0 12024 0 0 12064 0 0 11923 0 0 11828 0 0 11960 0 0 12110 0 0 12091 0 0 11870 0 0 11919 0 0 12088 0 0 12099 0 0 11986 0 0 11821 0 0 11988 0 0 12031 0 0 11800 0 0 11791 0 0 11922 0 0 12148 0 0 11888 0 0 11917 0 0 12022 0 0 11869 0 0 11980 0 0 11850 0 0 5975 0 0 82 0 0 22 0 0 20 0 0 10 0 0 9 0 0 14 0 0 9 0 0 7 0 0 13 0 0 
4 0 0 8 0 0 9 0 0 7 0 0 18 0 0 13 0 0 19 0 0 18 0 0 24 0 0 88 0 0 6046 0 0 11883 0 0 11933 0 0 11982 0 0 11798 0 0 12018 0 0 11869 0 0 11854 0 0 11921 0 0 12209 0 0 12023 0 0 12191 0 0 11935 0 0 12037 0 0 11969 0 0 12132 0 0 11950 0 0 11921 0 0 11935 0 0 12132 0 0 11937 0 0 11984 0 0 11940 0 0 11969 0 0 12080 0 0 12177 0 0 11930 0 0 11692 0 0 11873 0 0 11939 0 0 12106 0 0 11932 0 0 12076 0 0 12029 0 0 11818 0 0 11872 0 0 11815 0 0 11779 0 0 12013 0 0 11970 0 0 5962 0 0 76 0 0 14 0 0 17 0 0 13 0 0 6 0 0 5 0 0 12 0 0 12 0 0 9 0 0 
2 0 0 8 0 0 9 0 0 14 0 0 14 0 0 12 0 0 17 0 0 21 0 0 29 0 0 100 0 0 5907 0 0 11773 0 0 12010 0 0 11869 0 0 11997 0 0 11982 0 0 12006 0 0 11838 0 0 11981 0 0 11974 0 0 11917 0 0 11997 0 0 11946 0 0 11973 0 0 12026 0 0 11916 0 0 11890 0 0 11925 0 0 11898 0 0 11849 0 0 11823 0 0 11992 0 0 11951 0 0 11872 0 0 12001 0 0 11910 0 0 11944 0 0 11883 0 0 12013 0 0 11972 0 0 12058 0 0 11794 0 0 11971 0 0 12016 0 0 11943 0 0 11857 0 0 11950 0 0 11966 0 0 11918 0 0 11938 0 0 5996 0 0 94 0 0 17 0 0 10 0 0 19 0 0 12 0 0 10 0 0 9 0 0 10 0 0 8 0 0 
2 0 0 5 0 0 4 0 0 9 0 0 11 0 0 11 0 0 11 0 0 18 0 0 26 0 0 99 0 0 5938 0 0 11775 0 0 11719 0 0 11934 0 0 12075 0 0 11829 0 0 11973 0 0 11880 0 0 11875 0 0 11975 0 0 11960 0 0 12310 0 0 11898 0 0 12053 0 0 12017 0 0 11853 0 0 12077 0 0 11832 0 0 11919 0 0 12074 0 0 12014 0 0 12097 0 0 12074 0 0 11775 0 0 12017 0 0 11952 0 0 11834 0 0 12119 0 0 11732 0 0 12066 0 0 12094 0 0 11845 0 0 12024 0 0 11960 0 0 12099 0 0 12102 0 0 12044 0 0 11870 0 0 11904 0 0 11884 0 0 5982 0 0 93 0 0 24 0 0 25 0 0 16 0 0 11 0 0 9 0 0 9 0 0 10 0 0 8 0 0 
4 0 0 6 0 0 5 0 0 8 0 0 10 0 0 6 0 0 18 0 0 21 0 0 27 0 0 83 0 0 5931 0 0 11852 0 0 11863 0 0 12118 0 0 12000 0 0 11959 0 0 11924 0 0 12034 0 0 12013 0 0 11852 0 0 11959 0 0 11812 0 0 11954 0 0 11993 0 0 11853 0 0 11985 0 0 12116 0 0 11847 0 0 11897 0 0 11871 0 0 11794 0 0 11904 0 0 12057 0 0 12101 0 0 11924 0 0 11959 0 0 11898 0 0 11977 0 0 11975 0 0 11766 0 0 11839 0 0 12015 0 0 11936 0 0 11886 0 0 11871 0 0 12039 0 0 11853 0 0 11996 0 0 12024 0 0 11823 0 0 5974 0 0 89 0 0 12 0 0 15 0 0 17 0 0 15 0 0 10 0 0 10 0 0 5 0 0 7 0 0 
2 0 0 6 0 0 6 0 0 5 0 0 11 0 0 13 0 0 11 0 0 19 0 0 15 0 0 84 0 0 6101 0 0 11791 0 0 12023 0 0 12115 0 0 12044 0 0 11901 0 0 11937 0 0 11952 0 0 11908 0 0 11852 0 0 12005 0 0 11803 0 0 12051 0 0 11969 0 0 11938 0 0 12095 0 0 12048 0 0 11979 0 0 11891 0 0 11835 0 0 11943 0 0 11983 0 0 11836 0 0 11782 0 0 11984 0 0 11936 0 0 12079 0 0 11922 0 0 11912 0 0 11837 0 0 11914 0 0 11893 0 0 11917 0 0 11891 0 0 11983 0 0 11814 0 0 11935 0 0 12043 0 0 12037 0 0 11827 0 0 5979 0 0 96 0 0 20 0 0 23 0 0 10 0 0 13 0 0 13 0 0 11 0 0 7 0 0 4 0 0 
4 0 0 11 0 0 11 0 0 12 0 0 10 0 0 10 0 0 8 0 0 14 0 0 19 0 0 87 0 0 5984 0 0 11711 0 0 11818 0 0 11982 0 0 11944 0 0 12053 0 0 11915 0 0 11960 0 0 11820 0 0 11794 0 0 11897 0 0 11788 0 0 11966 0 0 11951 0 0 12125 0 0 12016 0 0 11947 0 0 12016 0 0 12023 0 0 12171 0 0 11958 0 0 11900 0 0 12075 0 0 11957 0 0 11784 0 0 12062 0 0 11902 0 0 11883 0 0 12124 0 0 12010 0 0 11893 0 0 11947 0 0 11935 0 0 12077 0 0 11907 0 0 11773 0 0 12004 0 0 11871 0 0 11875 0 0 12036 0 0 5996 0 0 92 0 0 28 0 0 17 0 0 17 0 0 12 0 0 15 0 0 11 0 0 5 0 0 3 0 0 
3 0 0 5 0 0 12 0 0 8 0 0 8 0 0 7 0 0 16 0 0 14 0 0 23 0 0 101 0 0 5937 0 0 11855 0 0 11890 0 0 11984 0 0 11872 0 0 11905 0 0 11928 0 0 11947 0 0 12000 0 0 11978 0 0 12010 0 0 11966 0 0 11910 0 0 12004 0 0 11933 0 0 11802 0 0 12029 0 0 11943 0 0 11941 0 0 12012 0 0 11853 0 0 11969 0 0 11883 0 0 11978 0 0 11867 0 0 12087 0 0 12110 0 0 11898 0 0 12025 0 0 12019 0 0 11989 0 0 11901 0 0 11907 0 0 11767 0 0 11999 0 0 12096 0 0 12130 0 0 12102 0 0 11975 0 0 11717 0 0 5926 0 0 95 0 0 23 0 0 22 0 0 20 0 0 6 0 0 8 0 0 7 0 0 11 0 0 7 0 0 
3 0 0 6 0 0 6 0 0 8 0 0 12 0 0 13 0 0 14 0 0 16 0 0 16 0 0 97 0 0 5919 0 0 12039 0 0 11999 0 0 11986 0 0 12040 0 0 11774 0 0 11914 0 0 12017 0 0 11985 0 0 11890 0 0 11891 0 0 12038 0 0 11779 0 0 11815 0 0 11868 0 0 11895 0 0 11934 0 0 11954 0 0 12004 0 0 12034 0 0 12135 0 0 11982 0 0 11834 0 0 11802 0 0 11907 0 0 11955 0 0 12044 0 0 11966 0 0 11932 0 0 11967 0 0 11904 0 0 12018 0 0 11959 0 0 11895 0 0 11890 0 0 11935 0 0 11891 0 0 11988 0 0 11788 0 0 11949 0 0 5952 0 0 87 0 0 23 0 0 17 0 0 19 0 0 11 0 0 8 0 0 4 0 0 5 0 0 13 0 0 
1 0 0 4 0 0 2 0 0 5 0 0 6 0 0 11 0 0 13 0 0 11 0 0 23 0 0 93 0 0 5877 0 0 11888 0 0 11918 0 0 11816 0 0 12017 0 0 12060 0 0 11774 0 0 12035 0 0 11897 0 0 11970 0 0 11741 0 0 12040 0 0 11992 0 0 12014 0 0 12009 0 0 11858 0 0 11842 0 0 11884 0 0 11863 0 0 11884 0 0 11863 0 0 11938 0 0 11979 0 0 11911 0 0 12084 0 0 12147 0 0 12057 0 0 11970 0 0 11949 0 0 11952 0 0 11885 0 0 11847 0 0 11931 0 0 11806 0 0 12000 0 0 12030 0 0 11975 0 0 11910 0 0 11946 0 0 12029 0 0 5981 0 0 91 0 0 14 0 0 12 0 0 7 0 0 7 0 0 8 0 0 6 0 0 5 0 0 3 0 0 
1 0 0 4 0 0 9 0 0 9 0 0 10 0 0 8 0 0 17 0 0 21 0 0 18 0 0 97 0 0 5909 0 0 11769 0 0 11956 0 0 11949 0 0 12033 0 0 12083 0 0 11779 0 0 11970 0 0 11971 0 0 11829 0 0 12082 0 0 11900 0 0 11867 0 0 11978 0 0 11847 0 0 11851 0 0 12061 0 0 11909 0 0 11989 0 0 12062 0 0 11956 0 0 11777 0 0 11942 0 0 12092 0 0 12052 0 0 11898 0 0 12087 0 0 11927 0 0 11947 0 0 12076 0 0 12029 0 0 11943 0 0 12004 0 0 11930 0 0 11941 0 0 11961 0 0 12040 0 0 11928 0 0 11795 0 0 11856 0 0 5870 0 0 82 0 0 26 0 0 22 0 0 17 0 0 8 0 0 5 0 0 7 0 0 9 0 0 9 0 0 
2 0 0 4 0 0 5 0 0 5 0 0 9 0 0 9 0 0 12 0 0 20 0 0 30 0 0 102 0 0 5920 0 0 11962 0 0 11787 0 0 11883 0 0 11955 0 0 11879 0 0 11903 0 0 12050 0 0 11754 0 0 11997 0 0 11784 0 0 11842 0 0 11939 0 0 11932 0 0 11748 0 0 12079 0 0 11890 0 0 12038 0 0 11863 0 0 11971 0 0 11937 0 0 11966 0 0 11821 0 0 11970 0 0 11936 0 0 11949 0 0 11759 0 0 11885 0 0 12048 0 0 11913 0 0 12010 0 0 11881 0 0 12093 0 0 11836 0 0 11867 0 0 11913 0 0 11846 0 0 12036 0 0 12010 0 0 11819 0 0 5975 0 0 80 0 0 22 0 0 18 0 0 16 0 0 18 0 0 7 0 0 6 0 0 3 0 0 6 0 0 
1 0 0 2 0 0 1 0 0 5 0 0 7 0 0 7 0 0 13 0 0 20 0 0 19 0 0 107 0 0 6074 0 0 11822 0 0 11990 0 0 11792 0 0 11930 0 0 11795 0 0 11857 0 0 11820 0 0 11878 0 0 11863 0 0 11942 0 0 11803 0 0 11968 0 0 11892 0 0 12060 0 0 11921 0 0 11814 0 0 12015 0 0 11888 0 0 11934 0 0 11862 0 0 11822 0 0 11860 0 0 12078 0 0 11932 0 0 12005 0 0 11711 0 0 11812 0 0 11917 0 0 11901 0 0 11939 0 0 12014 0 0 11715 0 0 11772 0 0 12013 0 0 11967 0 0 12068 0 0 11950 0 0 11804 0 0 11925 0 0 5871 0 0 89 0 0 17 0 0 14 0 0 12 0 0 12 0 0 8 0 0 8 0 0 6 0 0 5 0 0 
3 0 0 3 0 0 6 0 0 7 0 0 8 0 0 7 0 0 10 0 0 12 0 0 20 0 0 78 0 0 5931 0 0 12008 0 0 11913 0 0 11882 0 0 11843 0 0 11810 0 0 12112 0 0 11817 0 0 11916 0 0 11946 0 0 11799 0 0 11965 0 0 11953 0 0 11891 0 0 12093 0 0 12174 0 0 12259 0 0 12089 0 0 11948 0 0 11914 0 0 12005 0 0 11928 0 0 11880 0 0 11934 0 0 11888 0 0 11995 0 0 11975 0 0 11922 0 0 11822 0 0 11724 0 0 12129 0 0 11875 0 0 11938 0 0 11757 0 0 11947 0 0 12066 0 0 12078 0 0 12008 0 0 11808 0 0 11827 0 0 5943 0 0 89 0 0 22 0 0 13 0 0 13 0 0 8 0 0 11 0 0 10 0 0 7 0 0 9 0 0 
2 0 0 6 0 0 10 0 0 6 0 0 7 0 0 12 0 0 10 0 0 8 0 0 19 0 0 94 0 0 6083 0 0 11844 0 0 11877 0 0 11843 0 0 12034 0 0 11844 0 0 12094 0 0 11971 0 0 12078 0 0 12053 0 0 11880 0 0 11771 0 0 12127 0 0 11948 0 0 12022 0 0 11845 0 0 11937 0 0 11755 0 0 11935 0 0 11955 0 0 11840 0 0 11857 0 0 11945 0 0 11878 0 0 11909 0 0 11810 0 0 11873 0 0 12030 0 0 11851 0 0 11902 0 0 11950 0 0 12112 0 0 11787 0 0 11787 0 0 11958 0 0 11912 0 0 11928 0 0 11976 0 0 12116 0 0 11950 0 0 5937 0 0 82 0 0 20 0 0 17 0 0 8 0 0 5 0 0 5 0 0 6 0 0 6 0 0 8 0 0 
3 0 0 6 0 0 4 0 0 6 0 0 9 0 0 10 0 0 10 0 0 16 0 0 15 0 0 84 0 0 5972 0 0 11684 0 0 11915 0 0 11871 0 0 11886 0 0 11862 0 0 11916 0 0 11795 0 0 11800 0 0 11928 0 0 12072 0 0 11838 0 0 11894 0 0 11893 0 0 11825 0 0 11825 0 0 11832 0 0 12001 0 0 11816 0 0 12134 0 0 11866 0 0 11708 0 0 11787 0 0 11848 0 0 11896 0 0 11978 0 0 11795 0 0 11886 0 0 12243 0 0 11877 0 0 11650 0 0 12174 0 0 11924 0 0 11908 0 0 11838 0 0 12005 0 0 11901 0 0 11885 0 0 11795 0 0 11896 0 0 5889 0 0 94 0 0 15 0 0 11 0 0 5 0 0 3 0 0 2 0 0 3 0 0 5 0 0 3 0 0 
1 0 0 4 0 0 9 0 0 10 0 0 5 0 0 6 0 0 2 0 0 7 0 0 12 0 0 59 0 0 2984 0 0 5952 0 0 5981 0 0 5863 0 0 6015 0 0 5914 0 0 5817 0 0 5851 0 0 6028 0 0 6002 0 0 6045 0 0 5951 0 0 6045 0 0 5928 0 0 5980 0 0 5877 0 0 5956 0 0 5980 0 0 6052 0 0 5994 0 0 5926 0 0 5963 0 0 5851 0 0 6064 0 0 5943 0 0 5985 0 0 5947 0 0 5922 0 0 5987 0 0 5960 0 0 6034 0 0 6090 0 0 6109 0 0 5948 0 0 5935 0 0 5816 0 0 5964 0 0 5920 0 0 6009 0 0 5905 0 0 3057 0 0 56 0 0 12 0 0 8 0 0 8 0 0 6 0 0 1 0 0 5 0 0 5 0 0 5 0 0 
1 0 0 5 0 0 9 0 0 6 0 0 9 0 0 11 0 0 9 0 0 13 0 0 12 0 0 14 0 0 46 0 0 94 0 0 85 0 0 83 0 0 87 0 0 79 0 0 85 0 0 91 0 0 81 0 0 89 0 0 81 0 0 96 0 0 98 0 0 111 0 0 95 0 0 92 0 0 95 0 0 99 0 0 86 0 0 100 0 0 91 0 0 101 0 0 101 0 0 93 0 0 104 0 0 106 0 0 103 0 0 91 0 0 94 0 0 78 0 0 89 0 0 89 0 0 83 0 0 96 0 0 84 0 0 103 0 0 84 0 0 86 0 0 91 0 0 91 0 0 50 0 0 16 0 0 15 0 0 12 0 0 8 0 0 4 0 0 3 0 0 5 0 0 2 0 0 3 0 0 
1 0 0 3 0 0 4 0 0 5 0 0 7 0 0 7 0 0 6 0 0 8 0 0 9 0 0 11 0 0 15 0 0 15 0 0 16 0 0 17 0 0 17 0 0 17 0 0 18 0 0 18 0 0 24 0 0 24 0 0 30 0 0 29 0 0 24 0 0 17 0 0 23 0 0 31 0 0 29 0 0 20 0 0 23 0 0 13 0 0 24 0 0 20 0 0 21 0 0 22 0 0 25 0 0 25 0 0 23 0 0 16 0 0 20 0 0 18 0 0 19 0 0 24 0 0 13 0 0 21 0 0 15 0 0 20 0 0 19 0 0 13 0 0 12 0 0 10 0 0 14 0 0 8 0 0 8 0 0 10 0 0 6 0 0 5 0 0 2 0 0 9 0 0 5 0 0 2 0 0 
2 0 0 4 0 0 7 0 0 7 0 0 7 0 0 7 0 0 6 0 0 11 0 0 9 0 0 13 0 0 9 0 0 13 0 0 13 0 0 11 0 0 15 0 0 18 0 0 20 0 0 14 0 0 16 0 0 10 0 0 17 0 0 25 0 0 23 0 0 19 0 0 22 0 0 28 0 0 19 0 0 18 0 0 16 0 0 16 0 0 21 0 0 20 0 0 20 0 0 18 0 0 17 0 0 15 0 0 17 0 0 16 0 0 18 0 0 19 0 0 11 0 0 22 0 0 12 0 0 14 0 0 17 0 0 20 0 0 6 0 0 9 0 0 12 0 0 9 0 0 13 0 0 7 0 0 8 0 0 10 0 0 8 0 0 6 0 0 3 0 0 3 0 0 2 0 0 0 0 0 
2 0 0 3 0 0 4 0 0 1 0 0 5 0 0 6 0 0 4 0 0 7 0 0 6 0 0 6 0 0 9 0 0 8 0 0 7 0 0 7 0 0 13 0 0 12 0 0 12 0 0 16 0 0 6 0 0 15 0 0 12 0 0 18 0 0 16 0 0 12 0 0 14 0 0 19 0 0 18 0 0 9 0 0 12 0 0 14 0 0 14 0 0 17 0 0 10 0 0 11 0 0 13 0 0 8 0 0 10 0 0 13 0 0 12 0 0 13 0 0 19 0 0 10 0 0 17 0 0 11 0 0 14 0 0 11 0 0 7 0 0 10 0 0 16 0 0 5 0 0 9 0 0 11 0 0 5 0 0 6 0 0 5 0 0 5 0 0 3 0 0 4 0 0 2 0 0 3 0 0 
1 0 0 2 0 0 1 0 0 4 0 0 7 0 0 7 0 0 5 0 0 11 0 0 7 0 0 6 0 0 12 0 0 8 0 0 6 0 0 12 0 0 8 0 0 10 0 0 11 0 0 12 0 0 10 0 0 10 0 0 8 0 0 13 0 0 10 0 0 9 0 0 15 0 0 10 0 0 15 0 0 11 0 0 5 0 0 7 0 0 17 0 0 12 0 0 8 0 0 12 0 0 6 0 0 11 0 0 10 0 0 9 0 0 8 0 0 12 0 0 18 0 0 8 0 0 13 0 0 13 0 0 14 0 0 8 0 0 3 0 0 3 0 0 7 0 0 12 0 0 7 0 0 14 0 0 6 0 0 2 0 0 4 0 0 6 0 0 8 0 0 4 0 0 1 0 0 2 0 0 
1 0 0 3 0 0 2 0 0 3 0 0 3 0 0 3 0 0 9 0 0 5 0 0 8 0 0 4 0 0 9 0 0 7 0 0 3 0 0 10 0 0 9 0 0 12 0 0 11 0 0 6 0 0 8 0 0 8 0 0 5 0 0 13 0 0 7 0 0 13 0 0 14 0 0 11 0 0 8 0 0 9 0 0 5 0 0 6 0 0 7 0 0 10 0 0 8 0 0 13 0 0 8 0 0 12 0 0 9 0 0 9 0 0 9 0 0 7 0 0 8 0 0 9 0 0 7 0 0 10 0 0 12 0 0 9 0 0 10 0 0 8 0 0 6 0 0 1 0 0 7 0 0 10 0 0 8 0 0 7 0 0 3 0 0 4 0 0 4 0 0 1 0 0 5 0 0 1 0 0 
1 0 0 5 0 0 4 0 0 4 0 0 6 0 0 7 0 0 7 0 0 6 0 0 4 0 0 4 0 0 5 0 0 5 0 0 5 0 0 7 0 0 5 0 0 9 0 0 6 0 0 9 0 0 4 0 0 9 0 0 9 0 0 8 0 0 9 0 0 7 0 0 7 0 0 11 0 0 12 0 0 10 0 0 7 0 0 9 0 0 11 0 0 7 0 0 8 0 0 8 0 0 10 0 0 13 0 0 15 0 0 6 0 0 8 0 0 7 0 0 3 0 0 9 0 0 5 0 0 9 0 0 8 0 0 7 0 0 3 0 0 8 0 0 6 0 0 4 0 0 2 0 0 8 0 0 7 0 0 4 0 0 8 0 0 3 0 0 4 0 0 5 0 0 2 0 0 4 0 0 
2 0 0 5 0 0 1 0 0 7 0 0 3 0 0 1 0 0 8 0 0 4 0 0 4 0 0 3 0 0 3 0 0 4 0 0 3 0 0 8 0 0 3 0 0 7 0 0 4 0 0 3 0 0 8 0 0 8 0 0 9 0 0 7 0 0 6 0 0 7 0 0 5 0 0 11 0 0 11 0 0 5 0 0 3 0 0 6 0 0 10 0 0 7 0 0 7 0 0 6 0 0 6 0 0 6 0 0 9 0 0 11 0 0 4 0 0 9 0 0 4 0 0 3 0 0 1 0 0 8 0 0 11 0 0 2 0 0 4 0 0 7 0 0 3 0 0 5 0 0 3 0 0 4 0 0 2 0 0 4 0 0 4 0 0 6 0 0 5 0 0 5 0 0 4 0 0 3 0 0 
0 0 0 3 0 0 5 0 0 5 0 0 3 0 0 3 0 0 5 0 0 1 0 0 2 0 0 1 0 0 4 0 0 3 0 0 2 0 0 6 0 0 7 0 0 3 0 0 4 0 0 7 0 0 5 0 0 6 0 0 7 0 0 4 0 0 3 0 0 3 0 0 5 0 0 11 0 0 7 0 0 5 0 0 6 0 0 3 0 0 7 0 0 8 0 0 9 0 0 6 0 0 5 0 0 11 0 0 10 0 0 5 0 0 5 0 0 5 0 0 3 0 0 4 0 0 3 0 0 6 0 0 6 0 0 0 0 0 5 0 0 6 0 0 3 0 0 1 0 0 3 0 0 6 0 0 4 0 0 0 0 0 5 0 0 4 0 0 5 0 0 5 0 0 2 0 0 6 0 0 
