P3
# This is a dose file slice at depth 32 of 100
60 60
# now we give the maximum value of the RGB coordinates.
34204
0 0 0 0 0 0 0 0 0 0 0 0 0 0 0 0 0 0 0 0 0 0 0 0 0 0 0 0 0 0 0 0 0 0 0 0 0 0 0 0 0 0 0 0 0 0 0 0 0 0 0 0 0 0 0 0 0 0 0 0 0 0 0 0 0 0 0 0 0 0 0 0 0 0 0 0 0 0 0 0 0 0 0 0 0 0 0 0 0 0 0 0 0 0 0 0 0 0 0 0 0 0 0 0 0 0 0 0 0 0 0 0 0 0 0 0 0 0 0 0 0 0 0 0 0 0 0 0 0 0 0 0 0 0 0 0 0 0 0 0 0 0 0 0 0 0 0 0 0 0 0 0 0 0 0 0 0 0 0 0 0 0 0 0 0 0 0 0 0 0 0 0 0 0 0 0 0 0 0 0 
0 0 0 0 0 0 0 0 0 0 0 0 0 0 0 0 0 0 0 0 0 0 0 0 0 0 0 0 0 0 0 0 0 0 0 0 0 0 0 0 0 0 0 0 0 0 0 0 0 0 0 0 0 0 0 0 0 0 0 0 0 0 0 0 0 0 0 0 0 0 0 0 0 0 0 0 0 0 0 0 0 0 0 0 0 0 0 0 0 0 0 0 0 0 0 0 0 0 0 0 0 0 0 0 0 0 0 0 0 0 0 0 0 0 0 0 0 0 0 0 0 0 0 0 0 0 0 0 0 0 0 0 0 0 0 0 0 0 0 0 0 0 0 0 0 0 0 0 0 0 0 0 0 0 0 0 0 0 0 0 0 0 0 0 0 0 0 0 0 0 0 0 0 0 0 0 0 0 0 0 
0 0 0 0 0 0 0 0 0 0 0 0 0 0 0 0 0 0 0 0 0 0 0 0 0 0 0 0 0 0 0 0 0 0 0 0 0 0 0 0 0 0 0 0 0 0 0 0 0 0 0 0 0 0 0 0 0 0 0 0 0 0 0 0 0 0 0 0 0 0 0 0 0 0 0 0 0 0 0 0 0 0 0 0 0 0 0 0 0 0 0 0 0 0 0 0 0 0 0 0 0 0 0 0 0 0 0 0 0 0 0 0 0 0 0 0 0 0 0 0 0 0 0 0 0 0 0 0 0 0 0 0 0 0 0 0 0 0 0 0 0 0 0 0 0 0 0 0 0 0 0 0 0 0 0 0 0 0 0 0 0 0 0 0 0 0 0 0 0 0 0 0 0 0 0 0 0 0 0 0 
0 0 0 0 0 0 0 0 0 0 0 0 0 0 0 0 0 0 0 0 0 0 0 0 0 0 0 0 0 0 0 0 0 0 0 0 0 0 0 0 0 0 0 0 0 0 0 0 0 0 0 0 0 0 0 0 0 0 0 0 0 0 0 0 0 0 0 0 0 0 0 0 0 0 0 0 0 0 0 0 0 0 0 0 0 0 0 0 0 0 0 0 0 0 0 0 0 0 0 0 0 0 0 0 0 0 0 0 0 0 0 0 0 0 0 0 0 0 0 0 0 0 0 0 0 0 0 0 0 0 0 0 0 0 0 0 0 0 0 0 0 0 0 0 0 0 0 0 0 0 0 0 0 0 0 0 0 0 0 0 0 0 0 0 0 0 0 0 0 0 0 0 0 0 0 0 0 0 0 0 
0 0 0 0 0 0 0 0 0 0 0 0 0 0 0 0 0 0 0 0 0 0 0 0 0 0 0 0 0 0 0 0 0 0 0 0 0 0 0 0 0 0 0 0 0 0 0 0 0 0 0 0 0 0 0 0 0 0 0 0 0 0 0 0 0 0 0 0 0 0 0 0 0 0 0 0 0 0 0 0 0 0 0 0 0 0 0 0 0 0 0 0 0 0 0 0 0 0 0 0 0 0 0 0 0 0 0 0 0 0 0 0 0 0 0 0 0 0 0 0 0 0 0 0 0 0 0 0 0 0 0 0 0 0 0 0 0 0 0 0 0 0 0 0 0 0 0 0 0 0 0 0 0 0 0 0 0 0 0 0 0 0 0 0 0 0 0 0 0 0 0 0 0 0 0 0 0 0 0 0 
0 0 0 0 0 0 0 0 0 0 0 0 0 0 0 0 0 0 0 0 0 0 0 0 0 0 0 0 0 0 0 0 0 0 0 0 0 0 0 0 0 0 0 0 0 0 0 0 0 0 0 0 0 0 0 0 0 0 0 0 0 0 0 0 0 0 0 0 0 0 0 0 0 0 0 0 0 0 0 0 0 0 0 0 0 0 0 0 0 0 0 0 0 0 0 0 0 0 0 0 0 0 0 0 0 0 0 0 0 0 0 0 0 0 0 0 0 0 0 0 0 0 0 0 0 0 0 0 0 0 0 0 0 0 0 0 0 0 0 0 0 0 0 0 0 0 0 0 0 0 0 0 0 0 0 0 0 0 0 0 0 0 0 0 0 0 0 0 0 0 0 0 0 0 0 0 0 0 0 0 
0 0 0 0 0 0 0 0 0 0 0 0 0 0 0 0 0 0 0 0 0 0 0 0 0 0 0 0 0 0 0 0 0 0 0 0 0 0 0 0 0 0 0 0 0 0 0 0 0 0 0 0 0 0 0 0 0 0 0 0 0 0 0 0 0 0 0 0 0 0 0 0 0 0 0 0 0 0 0 0 0 0 0 0 0 0 0 0 0 0 0 0 0 0 0 0 0 0 0 0 0 0 0 0 0 0 0 0 0 0 0 0 0 0 0 0 0 0 0 0 0 0 0 0 0 0 0 0 0 0 0 0 0 0 0 0 0 0 0 0 0 0 0 0 0 0 0 0 0 0 0 0 0 0 0 0 0 0 0 0 0 0 0 0 0 0 0 0 0 0 0 0 0 0 0 0 0 0 0 0 
0 0 0 0 0 0 0 0 0 0 0 0 0 0 0 0 0 0 0 0 0 0 0 0 0 0 0 0 0 0 0 0 0 0 0 0 0 0 0 0 0 0 0 0 0 0 0 0 0 0 0 0 0 0 0 0 0 0 0 0 0 0 0 0 0 0 0 0 0 0 0 0 0 0 0 0 0 0 0 0 0 0 0 0 0 0 0 0 0 0 0 0 0 0 0 0 0 0 0 0 0 0 0 0 0 0 0 0 0 0 0 0 0 0 0 0 0 0 0 0 0 0 0 0 0 0 0 0 0 0 0 0 0 0 0 0 0 0 0 0 0 0 0 0 0 0 0 0 0 0 0 0 0 0 0 0 0 0 0 0 0 0 0 0 0 0 0 0 0 0 0 0 0 0 0 0 0 0 0 0 
0 0 0 0 0 0 0 0 0 0 0 0 0 0 0 0 0 0 0 0 0 0 0 0 0 0 0 0 0 0 0 0 0 0 0 0 0 0 0 0 0 0 0 0 0 0 0 0 0 0 0 0 0 0 0 0 0 0 0 0 0 0 0 0 0 0 0 0 0 0 0 0 0 0 0 0 0 0 0 0 0 0 0 0 0 0 0 0 0 0 0 0 0 0 0 0 0 0 0 0 0 0 0 0 0 0 0 0 0 0 0 0 0 0 0 0 0 0 0 0 0 0 0 0 0 0 0 0 0 0 0 0 0 0 0 0 0 0 0 0 0 0 0 0 0 0 0 0 0 0 0 0 0 0 0 0 0 0 0 0 0 0 0 0 0 0 0 0 0 0 0 0 0 0 0 0 0 0 0 0 
0 0 0 0 0 0 0 0 0 0 0 0 0 0 0 0 0 0 0 0 0 0 0 0 0 0 0 0 0 0 0 0 0 0 0 0 0 0 0 0 0 0 0 0 0 0 0 0 0 0 0 0 0 0 0 0 0 0 0 0 0 0 0 0 0 0 0 0 0 0 0 0 0 0 0 0 0 0 0 0 0 0 0 0 0 0 0 0 0 0 0 0 0 0 0 0 0 0 0 0 0 0 0 0 0 0 0 0 0 0 0 0 0 0 0 0 0 0 0 0 0 0 0 0 0 0 0 0 0 0 0 0 0 0 0 0 0 0 0 0 0 0 0 0 0 0 0 0 0 0 0 0 0 0 0 0 0 0 0 0 0 0 0 0 0 0 0 0 0 0 0 0 0 0 0 0 0 0 0 0 
0 0 0 0 0 0 0 0 0 0 0 0 0 0 0 0 0 0 0 0 0 0 0 0 0 0 0 0 0 0 3225 0 0 6369 0 0 6435 0 0 6589 0 0 6615 0 0 6445 0 0 6431 0 0 6306 0 0 6560 0 0 6498 0 0 6613 0 0 6531 0 0 6535 0 0 6486 0 0 6401 0 0 6430 0 0 6480 0 0 6472 0 0 6413 0 0 6495 0 0 6263 0 0 6514 0 0 6477 0 0 6652 0 0 6602 0 0 6471 0 0 6427 0 0 6465 0 0 6518 0 0 6416 0 0 6499 0 0 6501 0 0 6570 0 0 6412 0 0 6554 0 0 6547 0 0 6484 0 0 6458 0 0 6350 0 0 6530 0 0 3180 0 0 0 0 0 0 0 0 0 0 0 0 0 0 0 0 0 0 0 0 0 0 0 0 0 0 0 0 0 
0 0 0 0 0 0 0 0 0 0 0 0 0 0 0 0 0 0 0 0 0 0 0 0 0 0 0 0 0 0 6367 0 0 12956 0 0 12992 0 0 12970 0 0 13088 0 0 13154 0 0 12996 0 0 13209 0 0 13019 0 0 12831 0 0 13071 0 0 12745 0 0 13021 0 0 12973 0 0 12875 0 0 13152 0 0 12954 0 0 13074 0 0 12785 0 0 13047 0 0 13007 0 0 12912 0 0 13153 0 0 12972 0 0 12934 0 0 12878 0 0 12667 0 0 12958 0 0 12989 0 0 13055 0 0 12876 0 0 12966 0 0 12958 0 0 12856 0 0 13006 0 0 12781 0 0 12867 0 0 12953 0 0 12942 0 0 12949 0 0 6435 0 0 0 0 0 0 0 0 0 0 0 0 0 0 0 0 0 0 0 0 0 0 0 0 0 0 0 0 0 
0 0 0 0 0 0 0 0 0 0 0 0 0 0 0 0 0 0 0 0 0 0 0 0 0 0 0 0 0 0 6453 0 0 12864 0 0 12999 0 0 13092 0 0 13019 0 0 13021 0 0 13004 0 0 12977 0 0 12932 0 0 12971 0 0 12885 0 0 12829 0 0 13016 0 0 12990 0 0 13083 0 0 13028 0 0 12906 0 0 12967 0 0 13041 0 0 12913 0 0 13121 0 0 12817 0 0 13036 0 0 12781 0 0 13051 0 0 12896 0 0 12723 0 0 12861 0 0 13114 0 0 12912 0 0 12841 0 0 12976 0 0 12871 0 0 12840 0 0 12957 0 0 12985 0 0 12954 0 0 12978 0 0 13036 0 0 13192 0 0 6400 0 0 0 0 0 0 0 0 0 0 0 0 0 0 0 0 0 0 0 0 0 0 0 0 0 0 0 0 0 
0 0 0 0 0 0 0 0 0 0 0 0 0 0 0 0 0 0 0 0 0 0 0 0 0 0 0 0 0 0 6545 0 0 13003 0 0 13037 0 0 12944 0 0 13055 0 0 12786 0 0 12894 0 0 12947 0 0 12908 0 0 13175 0 0 12884 0 0 12917 0 0 12935 0 0 12966 0 0 12908 0 0 13091 0 0 12948 0 0 12800 0 0 13042 0 0 13103 0 0 12901 0 0 13018 0 0 13129 0 0 12931 0 0 12989 0 0 13102 0 0 13017 0 0 12869 0 0 12916 0 0 13072 0 0 12993 0 0 12928 0 0 13202 0 0 12883 0 0 13135 0 0 12930 0 0 12999 0 0 13243 0 0 12804 0 0 12857 0 0 6439 0 0 0 0 0 0 0 0 0 0 0 0 0 0 0 0 0 0 0 0 0 0 0 0 0 0 0 0 0 
0 0 0 0 0 0 0 0 0 0 0 0 0 0 0 0 0 0 0 0 0 0 0 0 0 0 0 0 0 0 6346 0 0 13060 0 0 12990 0 0 12987 0 0 12975 0 0 12832 0 0 12952 0 0 12990 0 0 12924 0 0 12968 0 0 13003 0 0 12747 0 0 13054 0 0 13075 0 0 12971 0 0 12780 0 0 12936 0 0 12811 0 0 12834 0 0 13084 0 0 13136 0 0 13070 0 0 13039 0 0 12910 0 0 13241 0 0 13057 0 0 13053 0 0 12902 0 0 13114 0 0 12976 0 0 13117 0 0 13051 0 0 12962 0 0 12995 0 0 13111 0 0 13095 0 0 12829 0 0 13024 0 0 13034 0 0 13187 0 0 6481 0 0 0 0 0 0 0 0 0 0 0 0 0 0 0 0 0 0 0 0 0 0 0 0 0 0 0 0 0 
0 0 0 0 0 0 0 0 0 0 0 0 0 0 0 0 0 0 0 0 0 0 0 0 0 0 0 0 0 0 6592 0 0 13098 0 0 12939 0 0 12982 0 0 12868 0 0 12942 0 0 12927 0 0 12814 0 0 12991 0 0 12885 0 0 12943 0 0 13075 0 0 12948 0 0 12906 0 0 13072 0 0 12953 0 0 12884 0 0 12916 0 0 12946 0 0 13134 0 0 13037 0 0 12779 0 0 12931 0 0 12946 0 0 12986 0 0 13050 0 0 13095 0 0 12972 0 0 13209 0 0 13036 0 0 12929 0 0 12996 0 0 13057 0 0 13015 0 0 12873 0 0 13028 0 0 12879 0 0 12893 0 0 12955 0 0 12719 0 0 6526 0 0 0 0 0 0 0 0 0 0 0 0 0 0 0 0 0 0 0 0 0 0 0 0 0 0 0 0 0 
0 0 0 0 0 0 0 0 0 0 0 0 0 0 0 0 0 0 0 0 0 0 0 0 0 0 0 0 0 0 6654 0 0 12956 0 0 12970 0 0 12983 0 0 12813 0 0 13045 0 0 12847 0 0 13133 0 0 13016 0 0 12953 0 0 13050 0 0 12876 0 0 12767 0 0 12912 0 0 12939 0 0 12914 0 0 13062 0 0 12853 0 0 13039 0 0 12980 0 0 12704 0 0 12697 0 0 12775 0 0 12871 0 0 12971 0 0 13057 0 0 12899 0 0 12801 0 0 12917 0 0 13064 0 0 12953 0 0 13088 0 0 12955 0 0 12863 0 0 13047 0 0 12987 0 0 12849 0 0 13039 0 0 13090 0 0 12733 0 0 6613 0 0 0 0 0 0 0 0 0 0 0 0 0 0 0 0 0 0 0 0 0 0 0 0 0 0 0 0 0 
0 0 0 0 0 0 0 0 0 0 0 0 0 0 0 0 0 0 0 0 0 0 0 0 0 0 0 0 0 0 6459 0 0 13098 0 0 12862 0 0 13008 0 0 12943 0 0 12956 0 0 12657 0 0 12858 0 0 12989 0 0 12813 0 0 13021 0 0 12923 0 0 13045 0 0 13171 0 0 13034 0 0 13010 0 0 12848 0 0 12994 0 0 12746 0 0 12939 0 0 13052 0 0 13148 0 0 12986 0 0 13041 0 0 13025 0 0 12939 0 0 12924 0 0 12902 0 0 12844 0 0 13047 0 0 12981 0 0 13011 0 0 12983 0 0 12766 0 0 12939 0 0 12856 0 0 12926 0 0 12963 0 0 12919 0 0 12876 0 0 6258 0 0 0 0 0 0 0 0 0 0 0 0 0 0 0 0 0 0 0 0 0 0 0 0 0 0 0 0 0 
0 0 0 0 0 0 0 0 0 0 0 0 0 0 0 0 0 0 0 0 0 0 0 0 0 0 0 0 0 0 6641 0 0 13087 0 0 12975 0 0 13014 0 0 12966 0 0 13066 0 0 13031 0 0 13070 0 0 13063 0 0 12950 0 0 13079 0 0 12770 0 0 12960 0 0 13124 0 0 13021 0 0 12854 0 0 13094 0 0 13064 0 0 12887 0 0 13073 0 0 13059 0 0 12945 0 0 12966 0 0 12670 0 0 12851 0 0 12923 0 0 12967 0 0 12973 0 0 12790 0 0 12931 0 0 13067 0 0 13063 0 0 12855 0 0 12883 0 0 12799 0 0 12835 0 0 13094 0 0 12911 0 0 12919 0 0 13037 0 0 6419 0 0 0 0 0 0 0 0 0 0 0 0 0 0 0 0 0 0 0 0 0 0 0 0 0 0 0 0 0 
0 0 0 0 0 0 0 0 0 0 0 0 0 0 0 0 0 0 0 0 0 0 0 0 0 0 0 0 0 0 6430 0 0 13002 0 0 12773 0 0 12946 0 0 12833 0 0 12837 0 0 13124 0 0 12997 0 0 12947 0 0 13125 0 0 12756 0 0 12799 0 0 12924 0 0 12981 0 0 12924 0 0 12963 0 0 12948 0 0 12898 0 0 13140 0 0 12822 0 0 12985 0 0 12700 0 0 12809 0 0 12861 0 0 12870 0 0 13104 0 0 13006 0 0 12819 0 0 12991 0 0 12868 0 0 12897 0 0 13175 0 0 13070 0 0 12840 0 0 13013 0 0 13005 0 0 12923 0 0 13045 0 0 13162 0 0 12979 0 0 6468 0 0 0 0 0 0 0 0 0 0 0 0 0 0 0 0 0 0 0 0 0 0 0 0 0 0 0 0 0 
0 0 0 0 0 0 0 0 0 0 0 0 0 0 0 0 0 0 0 0 0 0 0 0 0 0 0 0 0 0 6388 0 0 13042 0 0 13107 0 0 13012 0 0 13057 0 0 13079 0 0 13106 0 0 12829 0 0 13209 0 0 12924 0 0 12771 0 0 13016 0 0 12924 0 0 13082 0 0 13020 0 0 13247 0 0 12877 0 0 12777 0 0 12831 0 0 12977 0 0 12910 0 0 13045 0 0 12709 0 0 12926 0 0 12824 0 0 12900 0 0 12867 0 0 13062 0 0 13029 0 0 12967 0 0 13026 0 0 12949 0 0 13007 0 0 13091 0 0 13081 0 0 12725 0 0 13062 0 0 12849 0 0 13107 0 0 13040 0 0 6429 0 0 0 0 0 0 0 0 0 0 0 0 0 0 0 0 0 0 0 0 0 0 0 0 0 0 0 0 0 
0 0 0 0 0 0 0 0 0 0 0 0 0 0 0 0 0 0 0 0 0 0 0 0 0 0 0 0 0 0 6484 0 0 12931 0 0 12903 0 0 12887 0 0 12871 0 0 12823 0 0 13274 0 0 13065 0 0 13129 0 0 12804 0 0 13089 0 0 12958 0 0 12987 0 0 13134 0 0 13122 0 0 12924 0 0 13052 0 0 12938 0 0 13000 0 0 13081 0 0 12998 0 0 12821 0 0 12744 0 0 12914 0 0 13062 0 0 12811 0 0 13114 0 0 13012 0 0 13183 0 0 12912 0 0 12691 0 0 12950 0 0 12963 0 0 13145 0 0 13121 0 0 13153 0 0 12901 0 0 13119 0 0 12967 0 0 12911 0 0 6490 0 0 0 0 0 0 0 0 0 0 0 0 0 0 0 0 0 0 0 0 0 0 0 0 0 0 0 0 0 
0 0 0 0 0 0 0 0 0 0 0 0 0 0 0 0 0 0 0 0 0 0 0 0 0 0 0 0 0 0 6412 0 0 13139 0 0 12825 0 0 12910 0 0 12836 0 0 12895 0 0 12899 0 0 12989 0 0 12900 0 0 12957 0 0 13187 0 0 12859 0 0 12882 0 0 13017 0 0 12908 0 0 12699 0 0 12899 0 0 12927 0 0 12996 0 0 12964 0 0 12868 0 0 13038 0 0 12940 0 0 12855 0 0 12894 0 0 12787 0 0 12827 0 0 13183 0 0 12959 0 0 12796 0 0 12950 0 0 13015 0 0 13047 0 0 13060 0 0 13288 0 0 12903 0 0 12823 0 0 12761 0 0 13057 0 0 12837 0 0 6521 0 0 0 0 0 0 0 0 0 0 0 0 0 0 0 0 0 0 0 0 0 0 0 0 0 0 0 0 0 
0 0 0 0 0 0 0 0 0 0 0 0 0 0 0 0 0 0 0 0 0 0 0 0 0 0 0 0 0 0 6530 0 0 13010 0 0 13017 0 0 12810 0 0 13007 0 0 12832 0 0 12972 0 0 12867 0 0 12865 0 0 13154 0 0 13101 0 0 13201 0 0 12826 0 0 13020 0 0 13271 0 0 12917 0 0 12696 0 0 13094 0 0 12985 0 0 13079 0 0 12729 0 0 12998 0 0 12753 0 0 12730 0 0 12769 0 0 12965 0 0 13202 0 0 12978 0 0 12972 0 0 13062 0 0 12877 0 0 12898 0 0 13043 0 0 12989 0 0 12985 0 0 12740 0 0 12815 0 0 12944 0 0 12889 0 0 13072 0 0 6556 0 0 0 0 0 0 0 0 0 0 0 0 0 0 0 0 0 0 0 0 0 0 0 0 0 0 0 0 0 
0 0 0 0 0 0 0 0 0 0 0 0 0 0 0 0 0 0 0 0 0 0 0 0 0 0 0 0 0 0 6438 0 0 13067 0 0 12909 0 0 13030 0 0 12964 0 0 12754 0 0 13044 0 0 12763 0 0 12820 0 0 13078 0 0 12795 0 0 12987 0 0 13085 0 0 12860 0 0 13234 0 0 12936 0 0 13106 0 0 12994 0 0 13073 0 0 12762 0 0 13104 0 0 13020 0 0 12996 0 0 12824 0 0 12872 0 0 13110 0 0 12894 0 0 13111 0 0 12798 0 0 12818 0 0 12809 0 0 13123 0 0 12897 0 0 12975 0 0 13369 0 0 13213 0 0 13105 0 0 12942 0 0 12823 0 0 13022 0 0 6564 0 0 0 0 0 0 0 0 0 0 0 0 0 0 0 0 0 0 0 0 0 0 0 0 0 0 0 0 0 
0 0 0 0 0 0 0 0 0 0 0 0 0 0 0 0 0 0 0 0 0 0 0 0 0 0 0 0 0 0 6575 0 0 12873 0 0 12976 0 0 12961 0 0 12937 0 0 12965 0 0 12850 0 0 12988 0 0 12957 0 0 13029 0 0 12801 0 0 12838 0 0 12866 0 0 12896 0 0 13004 0 0 13122 0 0 13091 0 0 12945 0 0 12841 0 0 12955 0 0 13007 0 0 12889 0 0 12873 0 0 13037 0 0 12813 0 0 12911 0 0 12879 0 0 13139 0 0 12954 0 0 12943 0 0 13070 0 0 13018 0 0 12878 0 0 12989 0 0 12844 0 0 13059 0 0 13125 0 0 12849 0 0 12731 0 0 13042 0 0 6477 0 0 0 0 0 0 0 0 0 0 0 0 0 0 0 0 0 0 0 0 0 0 0 0 0 0 0 0 0 
0 0 0 0 0 0 0 0 0 0 0 0 0 0 0 0 0 0 0 0 0 0 0 0 0 0 0 0 0 0 6295 0 0 12992 0 0 12872 0 0 13032 0 0 13029 0 0 12948 0 0 12926 0 0 13147 0 0 13043 0 0 13038 0 0 12883 0 0 12981 0 0 12935 0 0 12796 0 0 12923 0 0 13073 0 0 12938 0 0 12957 0 0 13070 0 0 12839 0 0 12995 0 0 12866 0 0 12860 0 0 12920 0 0 12988 0 0 13014 0 0 13018 0 0 13059 0 0 12929 0 0 13006 0 0 13067 0 0 12963 0 0 13198 0 0 13165 0 0 12982 0 0 12860 0 0 12951 0 0 12947 0 0 13091 0 0 13182 0 0 6381 0 0 0 0 0 0 0 0 0 0 0 0 0 0 0 0 0 0 0 0 0 0 0 0 0 0 0 0 0 
0 0 0 0 0 0 0 0 0 0 0 0 0 0 0 0 0 0 0 0 0 0 0 0 0 0 0 0 0 0 6524 0 0 12786 0 0 13001 0 0 13004 0 0 12965 0 0 12902 0 0 13047 0 0 12921 0 0 13120 0 0 13015 0 0 12967 0 0 13045 0 0 12938 0 0 12765 0 0 13079 0 0 12884 0 0 13131 0 0 12913 0 0 12970 0 0 13027 0 0 13086 0 0 12930 0 0 13023 0 0 12958 0 0 12911 0 0 12915 0 0 13046 0 0 13040 0 0 13011 0 0 13186 0 0 12976 0 0 13097 0 0 12990 0 0 12720 0 0 12857 0 0 12797 0 0 12905 0 0 12837 0 0 12924 0 0 13021 0 0 6262 0 0 0 0 0 0 0 0 0 0 0 0 0 0 0 0 0 0 0 0 0 0 0 0 0 0 0 0 0 
0 0 0 0 0 0 0 0 0 0 0 0 0 0 0 0 0 0 0 0 0 0 0 0 0 0 0 0 0 0 6564 0 0 12898 0 0 13084 0 0 12981 0 0 12704 0 0 12849 0 0 12968 0 0 13200 0 0 12850 0 0 12890 0 0 12984 0 0 13011 0 0 12823 0 0 12951 0 0 13059 0 0 13090 0 0 13017 0 0 13032 0 0 13139 0 0 12701 0 0 13050 0 0 12908 0 0 12991 0 0 13023 0 0 13056 0 0 12985 0 0 12836 0 0 13067 0 0 12899 0 0 12861 0 0 12945 0 0 12846 0 0 13146 0 0 13127 0 0 12804 0 0 12879 0 0 12969 0 0 12848 0 0 12917 0 0 13037 0 0 6494 0 0 0 0 0 0 0 0 0 0 0 0 0 0 0 0 0 0 0 0 0 0 0 0 0 0 0 0 0 
0 0 0 0 0 0 0 0 0 0 0 0 0 0 0 0 0 0 0 0 0 0 0 0 0 0 0 0 0 0 6381 0 0 12839 0 0 12901 0 0 12800 0 0 12981 0 0 12926 0 0 12891 0 0 12884 0 0 13024 0 0 13206 0 0 13079 0 0 12790 0 0 12850 0 0 13013 0 0 12991 0 0 12944 0 0 12957 0 0 13100 0 0 13010 0 0 12948 0 0 12950 0 0 12951 0 0 12981 0 0 12832 0 0 12903 0 0 12918 0 0 13066 0 0 12973 0 0 13095 0 0 13114 0 0 12881 0 0 12858 0 0 12897 0 0 12752 0 0 12858 0 0 12985 0 0 12917 0 0 13059 0 0 13015 0 0 12882 0 0 6518 0 0 0 0 0 0 0 0 0 0 0 0 0 0 0 0 0 0 0 0 0 0 0 0 0 0 0 0 0 
0 0 0 0 0 0 0 0 0 0 0 0 0 0 0 0 0 0 0 0 0 0 0 0 0 0 0 0 0 0 6494 0 0 13023 0 0 12914 0 0 13049 0 0 12884 0 0 12990 0 0 13021 0 0 12839 0 0 12985 0 0 12768 0 0 12887 0 0 12876 0 0 12958 0 0 13241 0 0 13236 0 0 12925 0 0 12845 0 0 12803 0 0 12669 0 0 12935 0 0 13035 0 0 12908 0 0 12852 0 0 12822 0 0 12873 0 0 12795 0 0 13005 0 0 12848 0 0 12959 0 0 12974 0 0 12901 0 0 13181 0 0 12928 0 0 12751 0 0 13100 0 0 12845 0 0 12986 0 0 12970 0 0 12909 0 0 13072 0 0 6482 0 0 0 0 0 0 0 0 0 0 0 0 0 0 0 0 0 0 0 0 0 0 0 0 0 0 0 0 0 
0 0 0 0 0 0 0 0 0 0 0 0 0 0 0 0 0 0 0 0 0 0 0 0 0 0 0 0 0 0 6403 0 0 12907 0 0 12988 0 0 12935 0 0 13003 0 0 13105 0 0 12998 0 0 12991 0 0 12982 0 0 13050 0 0 13029 0 0 12914 0 0 12978 0 0 13197 0 0 13181 0 0 12740 0 0 12935 0 0 13049 0 0 12822 0 0 13115 0 0 12860 0 0 12957 0 0 13124 0 0 13067 0 0 12913 0 0 12955 0 0 12935 0 0 12976 0 0 13121 0 0 13010 0 0 12725 0 0 13054 0 0 12886 0 0 12890 0 0 12882 0 0 12908 0 0 12656 0 0 13174 0 0 12795 0 0 13075 0 0 6474 0 0 0 0 0 0 0 0 0 0 0 0 0 0 0 0 0 0 0 0 0 0 0 0 0 0 0 0 0 
0 0 0 0 0 0 0 0 0 0 0 0 0 0 0 0 0 0 0 0 0 0 0 0 0 0 0 0 0 0 6531 0 0 12813 0 0 12940 0 0 12956 0 0 12906 0 0 12928 0 0 13012 0 0 12819 0 0 12822 0 0 13085 0 0 13007 0 0 13062 0 0 12979 0 0 12907 0 0 12831 0 0 13122 0 0 12853 0 0 12986 0 0 12900 0 0 12992 0 0 13145 0 0 13060 0 0 13069 0 0 12920 0 0 13018 0 0 12782 0 0 12746 0 0 12731 0 0 12784 0 0 13071 0 0 12925 0 0 12870 0 0 13056 0 0 13214 0 0 13178 0 0 12893 0 0 12930 0 0 12841 0 0 12952 0 0 12991 0 0 6505 0 0 0 0 0 0 0 0 0 0 0 0 0 0 0 0 0 0 0 0 0 0 0 0 0 0 0 0 0 
0 0 0 0 0 0 0 0 0 0 0 0 0 0 0 0 0 0 0 0 0 0 0 0 0 0 0 0 0 0 6409 0 0 13145 0 0 12855 0 0 12857 0 0 12765 0 0 13138 0 0 13027 0 0 12809 0 0 12908 0 0 12858 0 0 13111 0 0 12659 0 0 12920 0 0 13282 0 0 13002 0 0 12755 0 0 12947 0 0 12896 0 0 12977 0 0 12926 0 0 12964 0 0 12930 0 0 12864 0 0 12907 0 0 12822 0 0 13018 0 0 12885 0 0 12814 0 0 12835 0 0 13001 0 0 13107 0 0 12942 0 0 12729 0 0 12996 0 0 12938 0 0 13040 0 0 12908 0 0 12922 0 0 13029 0 0 13097 0 0 6457 0 0 0 0 0 0 0 0 0 0 0 0 0 0 0 0 0 0 0 0 0 0 0 0 0 0 0 0 0 
0 0 0 0 0 0 0 0 0 0 0 0 0 0 0 0 0 0 0 0 0 0 0 0 0 0 0 0 0 0 6550 0 0 12852 0 0 12966 0 0 13112 0 0 12997 0 0 12670 0 0 12959 0 0 13010 0 0 13107 0 0 12984 0 0 12992 0 0 12917 0 0 12911 0 0 13027 0 0 12737 0 0 13036 0 0 13110 0 0 12815 0 0 12835 0 0 13021 0 0 12840 0 0 12948 0 0 13028 0 0 12976 0 0 12830 0 0 12992 0 0 13012 0 0 12843 0 0 12875 0 0 12992 0 0 12743 0 0 13014 0 0 12926 0 0 12953 0 0 12887 0 0 13104 0 0 13034 0 0 13018 0 0 12816 0 0 12928 0 0 6439 0 0 0 0 0 0 0 0 0 0 0 0 0 0 0 0 0 0 0 0 0 0 0 0 0 0 0 0 0 
0 0 0 0 0 0 0 0 0 0 0 0 0 0 0 0 0 0 0 0 0 0 0 0 0 0 0 0 0 0 6509 0 0 12898 0 0 12854 0 0 13102 0 0 12846 0 0 12842 0 0 12874 0 0 12939 0 0 12886 0 0 12928 0 0 12911 0 0 12942 0 0 12906 0 0 12824 0 0 12961 0 0 12723 0 0 13122 0 0 12908 0 0 13330 0 0 13330 0 0 13006 0 0 12738 0 0 12982 0 0 13092 0 0 12929 0 0 12979 0 0 13013 0 0 12973 0 0 13030 0 0 13049 0 0 13016 0 0 12980 0 0 12930 0 0 12680 0 0 12945 0 0 13076 0 0 13038 0 0 12942 0 0 12839 0 0 12998 0 0 6371 0 0 0 0 0 0 0 0 0 0 0 0 0 0 0 0 0 0 0 0 0 0 0 0 0 0 0 0 0 
0 0 0 0 0 0 0 0 0 0 0 0 0 0 0 0 0 0 0 0 0 0 0 0 0 0 0 0 0 0 6534 0 0 12971 0 0 13004 0 0 13067 0 0 13067 0 0 12912 0 0 12961 0 0 13114 0 0 12965 0 0 13082 0 0 13102 0 0 12968 0 0 13152 0 0 12922 0 0 13000 0 0 12983 0 0 13067 0 0 13003 0 0 12904 0 0 13117 0 0 13091 0 0 13012 0 0 13008 0 0 13023 0 0 12893 0 0 13111 0 0 12885 0 0 12920 0 0 12969 0 0 12843 0 0 12946 0 0 12987 0 0 12983 0 0 12998 0 0 13020 0 0 13136 0 0 13389 0 0 12785 0 0 12907 0 0 12841 0 0 6506 0 0 0 0 0 0 0 0 0 0 0 0 0 0 0 0 0 0 0 0 0 0 0 0 0 0 0 0 0 
0 0 0 0 0 0 0 0 0 0 0 0 0 0 0 0 0 0 0 0 0 0 0 0 0 0 0 0 0 0 6529 0 0 12853 0 0 12816 0 0 13093 0 0 12924 0 0 13114 0 0 12853 0 0 12956 0 0 12855 0 0 13019 0 0 12992 0 0 12942 0 0 13029 0 0 13022 0 0 12831 0 0 13009 0 0 13065 0 0 13156 0 0 13017 0 0 12883 0 0 12980 0 0 12989 0 0 12884 0 0 12926 0 0 12936 0 0 12930 0 0 13031 0 0 12997 0 0 12867 0 0 12798 0 0 13008 0 0 13122 0 0 12922 0 0 12885 0 0 12885 0 0 12897 0 0 12904 0 0 12851 0 0 12787 0 0 12900 0 0 6483 0 0 0 0 0 0 0 0 0 0 0 0 0 0 0 0 0 0 0 0 0 0 0 0 0 0 0 0 0 
0 0 0 0 0 0 0 0 0 0 0 0 0 0 0 0 0 0 0 0 0 0 0 0 0 0 0 0 0 0 6389 0 0 12856 0 0 12798 0 0 13034 0 0 12921 0 0 13256 0 0 13005 0 0 13149 0 0 13082 0 0 12938 0 0 12913 0 0 12853 0 0 12870 0 0 12904 0 0 12723 0 0 12966 0 0 12830 0 0 12878 0 0 12991 0 0 12937 0 0 12956 0 0 12929 0 0 13097 0 0 12914 0 0 12919 0 0 12947 0 0 12746 0 0 12866 0 0 13254 0 0 12856 0 0 12808 0 0 13079 0 0 12978 0 0 12934 0 0 12855 0 0 12988 0 0 13163 0 0 12856 0 0 13028 0 0 13128 0 0 6456 0 0 0 0 0 0 0 0 0 0 0 0 0 0 0 0 0 0 0 0 0 0 0 0 0 0 0 0 0 
0 0 0 0 0 0 0 0 0 0 0 0 0 0 0 0 0 0 0 0 0 0 0 0 0 0 0 0 0 0 6516 0 0 12873 0 0 12851 0 0 12868 0 0 12950 0 0 12694 0 0 12938 0 0 12934 0 0 12641 0 0 12813 0 0 12877 0 0 13044 0 0 13045 0 0 13041 0 0 12819 0 0 12843 0 0 12808 0 0 12893 0 0 13022 0 0 12908 0 0 12877 0 0 13004 0 0 13130 0 0 12863 0 0 12893 0 0 12954 0 0 13023 0 0 13213 0 0 12976 0 0 12855 0 0 13072 0 0 12982 0 0 12955 0 0 12879 0 0 12834 0 0 12952 0 0 12941 0 0 12973 0 0 12844 0 0 13000 0 0 6432 0 0 0 0 0 0 0 0 0 0 0 0 0 0 0 0 0 0 0 0 0 0 0 0 0 0 0 0 0 
0 0 0 0 0 0 0 0 0 0 0 0 0 0 0 0 0 0 0 0 0 0 0 0 0 0 0 0 0 0 6489 0 0 12953 0 0 12837 0 0 12876 0 0 12823 0 0 13096 0 0 12849 0 0 12797 0 0 13130 0 0 12965 0 0 12818 0 0 13053 0 0 12869 0 0 13054 0 0 12922 0 0 12984 0 0 12860 0 0 13116 0 0 12779 0 0 12964 0 0 13053 0 0 12953 0 0 12821 0 0 12971 0 0 12725 0 0 12910 0 0 12797 0 0 12677 0 0 13032 0 0 13093 0 0 12935 0 0 12948 0 0 13168 0 0 13110 0 0 12884 0 0 12973 0 0 13187 0 0 12945 0 0 12980 0 0 12923 0 0 6467 0 0 0 0 0 0 0 0 0 0 0 0 0 0 0 0 0 0 0 0 0 0 0 0 0 0 0 0 0 
0 0 0 0 0 0 0 0 0 0 0 0 0 0 0 0 0 0 0 0 0 0 0 0 0 0 0 0 0 0 6526 0 0 12887 0 0 12969 0 0 12860 0 0 12908 0 0 12774 0 0 12899 0 0 13011 0 0 12985 0 0 13106 0 0 13037 0 0 13011 0 0 12753 0 0 12753 0 0 13058 0 0 12970 0 0 12862 0 0 12909 0 0 13021 0 0 12959 0 0 13114 0 0 12765 0 0 13277 0 0 12981 0 0 12805 0 0 12943 0 0 12929 0 0 12838 0 0 12929 0 0 12807 0 0 12949 0 0 13147 0 0 12778 0 0 12896 0 0 13255 0 0 12915 0 0 12938 0 0 12797 0 0 12958 0 0 12876 0 0 6392 0 0 0 0 0 0 0 0 0 0 0 0 0 0 0 0 0 0 0 0 0 0 0 0 0 0 0 0 0 
0 0 0 0 0 0 0 0 0 0 0 0 0 0 0 0 0 0 0 0 0 0 0 0 0 0 0 0 0 0 6379 0 0 13119 0 0 13112 0 0 12891 0 0 12894 0 0 12739 0 0 12946 0 0 12754 0 0 13033 0 0 12756 0 0 12889 0 0 13057 0 0 12728 0 0 12963 0 0 12910 0 0 12979 0 0 12912 0 0 12941 0 0 13146 0 0 12953 0 0 13106 0 0 12898 0 0 12825 0 0 13114 0 0 12977 0 0 12995 0 0 12849 0 0 12888 0 0 12930 0 0 13056 0 0 13143 0 0 12962 0 0 12971 0 0 12931 0 0 12983 0 0 12833 0 0 12894 0 0 13008 0 0 13203 0 0 12944 0 0 6469 0 0 0 0 0 0 0 0 0 0 0 0 0 0 0 0 0 0 0 0 0 0 0 0 0 0 0 0 0 
0 0 0 0 0 0 0 0 0 0 0 0 0 0 0 0 0 0 0 0 0 0 0 0 0 0 0 0 0 0 6580 0 0 12800 0 0 13107 0 0 12951 0 0 12952 0 0 13141 0 0 12895 0 0 12877 0 0 13032 0 0 12790 0 0 12857 0 0 12886 0 0 12995 0 0 12926 0 0 12956 0 0 12956 0 0 12924 0 0 13096 0 0 12907 0 0 12850 0 0 12966 0 0 13039 0 0 12987 0 0 12910 0 0 12883 0 0 13013 0 0 12956 0 0 12954 0 0 12974 0 0 12683 0 0 12828 0 0 12938 0 0 12866 0 0 12940 0 0 12895 0 0 12868 0 0 13023 0 0 13004 0 0 12873 0 0 13149 0 0 6413 0 0 0 0 0 0 0 0 0 0 0 0 0 0 0 0 0 0 0 0 0 0 0 0 0 0 0 0 0 
0 0 0 0 0 0 0 0 0 0 0 0 0 0 0 0 0 0 0 0 0 0 0 0 0 0 0 0 0 0 6618 0 0 12901 0 0 13057 0 0 12841 0 0 13106 0 0 12891 0 0 12944 0 0 12872 0 0 13029 0 0 13060 0 0 12970 0 0 12996 0 0 13088 0 0 13173 0 0 12950 0 0 12900 0 0 12985 0 0 12747 0 0 12744 0 0 12994 0 0 12798 0 0 13058 0 0 12935 0 0 12984 0 0 12931 0 0 12936 0 0 12894 0 0 13127 0 0 13130 0 0 12953 0 0 12993 0 0 12801 0 0 12907 0 0 12816 0 0 13220 0 0 12815 0 0 13034 0 0 12952 0 0 13072 0 0 12917 0 0 6315 0 0 0 0 0 0 0 0 0 0 0 0 0 0 0 0 0 0 0 0 0 0 0 0 0 0 0 0 0 
0 0 0 0 0 0 0 0 0 0 0 0 0 0 0 0 0 0 0 0 0 0 0 0 0 0 0 0 0 0 6504 0 0 13145 0 0 12854 0 0 12960 0 0 12910 0 0 13007 0 0 13078 0 0 12864 0 0 13045 0 0 13133 0 0 12755 0 0 12866 0 0 13151 0 0 13184 0 0 12898 0 0 13117 0 0 12957 0 0 13000 0 0 13062 0 0 12886 0 0 12939 0 0 12930 0 0 13048 0 0 12933 0 0 12989 0 0 13084 0 0 12981 0 0 13093 0 0 13122 0 0 12875 0 0 12783 0 0 12917 0 0 12905 0 0 12921 0 0 12788 0 0 13181 0 0 13018 0 0 12950 0 0 12857 0 0 13002 0 0 6740 0 0 0 0 0 0 0 0 0 0 0 0 0 0 0 0 0 0 0 0 0 0 0 0 0 0 0 0 0 
0 0 0 0 0 0 0 0 0 0 0 0 0 0 0 0 0 0 0 0 0 0 0 0 0 0 0 0 0 0 6368 0 0 13028 0 0 12863 0 0 13048 0 0 13086 0 0 12668 0 0 12913 0 0 12826 0 0 12984 0 0 12865 0 0 12936 0 0 13014 0 0 12909 0 0 12895 0 0 12867 0 0 13171 0 0 12878 0 0 13023 0 0 12851 0 0 12885 0 0 12951 0 0 13039 0 0 13032 0 0 12989 0 0 12911 0 0 13215 0 0 12799 0 0 12905 0 0 12874 0 0 12980 0 0 12668 0 0 12930 0 0 12909 0 0 12875 0 0 12891 0 0 13201 0 0 12755 0 0 12744 0 0 13020 0 0 13086 0 0 6598 0 0 0 0 0 0 0 0 0 0 0 0 0 0 0 0 0 0 0 0 0 0 0 0 0 0 0 0 0 
0 0 0 0 0 0 0 0 0 0 0 0 0 0 0 0 0 0 0 0 0 0 0 0 0 0 0 0 0 0 6454 0 0 12952 0 0 13008 0 0 13058 0 0 13069 0 0 12852 0 0 12884 0 0 12826 0 0 12927 0 0 12872 0 0 13091 0 0 12953 0 0 13028 0 0 12910 0 0 13115 0 0 12932 0 0 12954 0 0 12943 0 0 13083 0 0 13022 0 0 12939 0 0 12846 0 0 12755 0 0 12965 0 0 12895 0 0 12820 0 0 13002 0 0 13084 0 0 12942 0 0 13030 0 0 12868 0 0 12850 0 0 13109 0 0 12874 0 0 12928 0 0 13023 0 0 12718 0 0 13055 0 0 12978 0 0 12999 0 0 6559 0 0 0 0 0 0 0 0 0 0 0 0 0 0 0 0 0 0 0 0 0 0 0 0 0 0 0 0 0 
0 0 0 0 0 0 0 0 0 0 0 0 0 0 0 0 0 0 0 0 0 0 0 0 0 0 0 0 0 0 6448 0 0 12870 0 0 12982 0 0 13142 0 0 12944 0 0 12920 0 0 12864 0 0 13089 0 0 13033 0 0 12826 0 0 13057 0 0 13274 0 0 12833 0 0 13021 0 0 12920 0 0 13212 0 0 12962 0 0 12971 0 0 13164 0 0 12842 0 0 12862 0 0 13031 0 0 12856 0 0 12883 0 0 13041 0 0 13039 0 0 12916 0 0 13102 0 0 12983 0 0 12852 0 0 12977 0 0 13028 0 0 13191 0 0 12978 0 0 12877 0 0 12989 0 0 13143 0 0 12988 0 0 12952 0 0 12975 0 0 6504 0 0 0 0 0 0 0 0 0 0 0 0 0 0 0 0 0 0 0 0 0 0 0 0 0 0 0 0 0 
0 0 0 0 0 0 0 0 0 0 0 0 0 0 0 0 0 0 0 0 0 0 0 0 0 0 0 0 0 0 6430 0 0 12969 0 0 12887 0 0 13172 0 0 12912 0 0 12871 0 0 12834 0 0 12876 0 0 13101 0 0 12958 0 0 12874 0 0 12910 0 0 13004 0 0 12922 0 0 13020 0 0 13090 0 0 13021 0 0 13104 0 0 13187 0 0 12877 0 0 13035 0 0 13147 0 0 12757 0 0 13067 0 0 12741 0 0 12905 0 0 12889 0 0 12905 0 0 13019 0 0 13084 0 0 12940 0 0 13027 0 0 12701 0 0 13020 0 0 13132 0 0 12874 0 0 12908 0 0 12948 0 0 12968 0 0 13051 0 0 6386 0 0 0 0 0 0 0 0 0 0 0 0 0 0 0 0 0 0 0 0 0 0 0 0 0 0 0 0 0 
0 0 0 0 0 0 0 0 0 0 0 0 0 0 0 0 0 0 0 0 0 0 0 0 0 0 0 0 0 0 3222 0 0 6546 0 0 6548 0 0 6482 0 0 6607 0 0 6456 0 0 6383 0 0 6440 0 0 6383 0 0 6426 0 0 6503 0 0 6452 0 0 6491 0 0 6477 0 0 6486 0 0 6369 0 0 6482 0 0 6472 0 0 6443 0 0 6488 0 0 6532 0 0 6415 0 0 6467 0 0 6578 0 0 6409 0 0 6572 0 0 6451 0 0 6493 0 0 6408 0 0 6397 0 0 6517 0 0 6530 0 0 6315 0 0 6588 0 0 6350 0 0 6547 0 0 6576 0 0 6381 0 0 6478 0 0 6453 0 0 3171 0 0 0 0 0 0 0 0 0 0 0 0 0 0 0 0 0 0 0 0 0 0 0 0 0 0 0 0 0 
0 0 0 0 0 0 0 0 0 0 0 0 0 0 0 0 0 0 0 0 0 0 0 0 0 0 0 0 0 0 0 0 0 0 0 0 0 0 0 0 0 0 0 0 0 0 0 0 0 0 0 0 0 0 0 0 0 0 0 0 0 0 0 0 0 0 0 0 0 0 0 0 0 0 0 0 0 0 0 0 0 0 0 0 0 0 0 0 0 0 0 0 0 0 0 0 0 0 0 0 0 0 0 0 0 0 0 0 0 0 0 0 0 0 0 0 0 0 0 0 0 0 0 0 0 0 0 0 0 0 0 0 0 0 0 0 0 0 0 0 0 0 0 0 0 0 0 0 0 0 0 0 0 0 0 0 0 0 0 0 0 0 0 0 0 0 0 0 0 0 0 0 0 0 0 0 0 0 0 0 
0 0 0 0 0 0 0 0 0 0 0 0 0 0 0 0 0 0 0 0 0 0 0 0 0 0 0 0 0 0 0 0 0 0 0 0 0 0 0 0 0 0 0 0 0 0 0 0 0 0 0 0 0 0 0 0 0 0 0 0 0 0 0 0 0 0 0 0 0 0 0 0 0 0 0 0 0 0 0 0 0 0 0 0 0 0 0 0 0 0 0 0 0 0 0 0 0 0 0 0 0 0 0 0 0 0 0 0 0 0 0 0 0 0 0 0 0 0 0 0 0 0 0 0 0 0 0 0 0 0 0 0 0 0 0 0 0 0 0 0 0 0 0 0 0 0 0 0 0 0 0 0 0 0 0 0 0 0 0 0 0 0 0 0 0 0 0 0 0 0 0 0 0 0 0 0 0 0 0 0 
0 0 0 0 0 0 0 0 0 0 0 0 0 0 0 0 0 0 0 0 0 0 0 0 0 0 0 0 0 0 0 0 0 0 0 0 0 0 0 0 0 0 0 0 0 0 0 0 0 0 0 0 0 0 0 0 0 0 0 0 0 0 0 0 0 0 0 0 0 0 0 0 0 0 0 0 0 0 0 0 0 0 0 0 0 0 0 0 0 0 0 0 0 0 0 0 0 0 0 0 0 0 0 0 0 0 0 0 0 0 0 0 0 0 0 0 0 0 0 0 0 0 0 0 0 0 0 0 0 0 0 0 0 0 0 0 0 0 0 0 0 0 0 0 0 0 0 0 0 0 0 0 0 0 0 0 0 0 0 0 0 0 0 0 0 0 0 0 0 0 0 0 0 0 0 0 0 0 0 0 
0 0 0 0 0 0 0 0 0 0 0 0 0 0 0 0 0 0 0 0 0 0 0 0 0 0 0 0 0 0 0 0 0 0 0 0 0 0 0 0 0 0 0 0 0 0 0 0 0 0 0 0 0 0 0 0 0 0 0 0 0 0 0 0 0 0 0 0 0 0 0 0 0 0 0 0 0 0 0 0 0 0 0 0 0 0 0 0 0 0 0 0 0 0 0 0 0 0 0 0 0 0 0 0 0 0 0 0 0 0 0 0 0 0 0 0 0 0 0 0 0 0 0 0 0 0 0 0 0 0 0 0 0 0 0 0 0 0 0 0 0 0 0 0 0 0 0 0 0 0 0 0 0 0 0 0 0 0 0 0 0 0 0 0 0 0 0 0 0 0 0 0 0 0 0 0 0 0 0 0 
0 0 0 0 0 0 0 0 0 0 0 0 0 0 0 0 0 0 0 0 0 0 0 0 0 0 0 0 0 0 0 0 0 0 0 0 0 0 0 0 0 0 0 0 0 0 0 0 0 0 0 0 0 0 0 0 0 0 0 0 0 0 0 0 0 0 0 0 0 0 0 0 0 0 0 0 0 0 0 0 0 0 0 0 0 0 0 0 0 0 0 0 0 0 0 0 0 0 0 0 0 0 0 0 0 0 0 0 0 0 0 0 0 0 0 0 0 0 0 0 0 0 0 0 0 0 0 0 0 0 0 0 0 0 0 0 0 0 0 0 0 0 0 0 0 0 0 0 0 0 0 0 0 0 0 0 0 0 0 0 0 0 0 0 0 0 0 0 0 0 0 0 0 0 0 0 0 0 0 0 
0 0 0 0 0 0 0 0 0 0 0 0 0 0 0 0 0 0 0 0 0 0 0 0 0 0 0 0 0 0 0 0 0 0 0 0 0 0 0 0 0 0 0 0 0 0 0 0 0 0 0 0 0 0 0 0 0 0 0 0 0 0 0 0 0 0 0 0 0 0 0 0 0 0 0 0 0 0 0 0 0 0 0 0 0 0 0 0 0 0 0 0 0 0 0 0 0 0 0 0 0 0 0 0 0 0 0 0 0 0 0 0 0 0 0 0 0 0 0 0 0 0 0 0 0 0 0 0 0 0 0 0 0 0 0 0 0 0 0 0 0 0 0 0 0 0 0 0 0 0 0 0 0 0 0 0 0 0 0 0 0 0 0 0 0 0 0 0 0 0 0 0 0 0 0 0 0 0 0 0 
0 0 0 0 0 0 0 0 0 0 0 0 0 0 0 0 0 0 0 0 0 0 0 0 0 0 0 0 0 0 0 0 0 0 0 0 0 0 0 0 0 0 0 0 0 0 0 0 0 0 0 0 0 0 0 0 0 0 0 0 0 0 0 0 0 0 0 0 0 0 0 0 0 0 0 0 0 0 0 0 0 0 0 0 0 0 0 0 0 0 0 0 0 0 0 0 0 0 0 0 0 0 0 0 0 0 0 0 0 0 0 0 0 0 0 0 0 0 0 0 0 0 0 0 0 0 0 0 0 0 0 0 0 0 0 0 0 0 0 0 0 0 0 0 0 0 0 0 0 0 0 0 0 0 0 0 0 0 0 0 0 0 0 0 0 0 0 0 0 0 0 0 0 0 0 0 0 0 0 0 
0 0 0 0 0 0 0 0 0 0 0 0 0 0 0 0 0 0 0 0 0 0 0 0 0 0 0 0 0 0 0 0 0 0 0 0 0 0 0 0 0 0 0 0 0 0 0 0 0 0 0 0 0 0 0 0 0 0 0 0 0 0 0 0 0 0 0 0 0 0 0 0 0 0 0 0 0 0 0 0 0 0 0 0 0 0 0 0 0 0 0 0 0 0 0 0 0 0 0 0 0 0 0 0 0 0 0 0 0 0 0 0 0 0 0 0 0 0 0 0 0 0 0 0 0 0 0 0 0 0 0 0 0 0 0 0 0 0 0 0 0 0 0 0 0 0 0 0 0 0 0 0 0 0 0 0 0 0 0 0 0 0 0 0 0 0 0 0 0 0 0 0 0 0 0 0 0 0 0 0 
0 0 0 0 0 0 0 0 0 0 0 0 0 0 0 0 0 0 0 0 0 0 0 0 0 0 0 0 0 0 0 0 0 0 0 0 0 0 0 0 0 0 0 0 0 0 0 0 0 0 0 0 0 0 0 0 0 0 0 0 0 0 0 0 0 0 0 0 0 0 0 0 0 0 0 0 0 0 0 0 0 0 0 0 0 0 0 0 0 0 0 0 0 0 0 0 0 0 0 0 0 0 0 0 0 0 0 0 0 0 0 0 0 0 0 0 0 0 0 0 0 0 0 0 0 0 0 0 0 0 0 0 0 0 0 0 0 0 0 0 0 0 0 0 0 0 0 0 0 0 0 0 0 0 0 0 0 0 0 0 0 0 0 0 0 0 0 0 0 0 0 0 0 0 0 0 0 0 0 0 
