P3
# This is a dose file slice at depth 49 of 100
60 60
# now we give the maximum value of the RGB coordinates.
32920
0 0 0 0 0 0 0 0 0 1 0 0 2 0 0 1 0 0 1 0 0 1 0 0 1 0 0 1 0 0 1 0 0 1 0 0 2 0 0 0 0 0 5 0 0 2 0 0 0 0 0 1 0 0 4 0 0 1 0 0 2 0 0 3 0 0 2 0 0 4 0 0 4 0 0 3 0 0 2 0 0 3 0 0 5 0 0 1 0 0 4 0 0 2 0 0 2 0 0 1 0 0 1 0 0 2 0 0 1 0 0 3 0 0 1 0 0 1 0 0 1 0 0 1 0 0 2 0 0 4 0 0 1 0 0 3 0 0 0 0 0 2 0 0 2 0 0 3 0 0 0 0 0 1 0 0 0 0 0 0 0 0 1 0 0 1 0 0 0 0 0 0 0 0 0 0 0 2 0 0 
0 0 0 3 0 0 0 0 0 0 0 0 4 0 0 4 0 0 4 0 0 4 0 0 2 0 0 5 0 0 2 0 0 2 0 0 2 0 0 5 0 0 7 0 0 8 0 0 4 0 0 4 0 0 12 0 0 5 0 0 8 0 0 10 0 0 7 0 0 6 0 0 11 0 0 3 0 0 2 0 0 5 0 0 11 0 0 5 0 0 3 0 0 9 0 0 5 0 0 4 0 0 12 0 0 5 0 0 2 0 0 6 0 0 8 0 0 3 0 0 8 0 0 3 0 0 10 0 0 11 0 0 2 0 0 7 0 0 6 0 0 6 0 0 4 0 0 3 0 0 6 0 0 3 0 0 2 0 0 2 0 0 0 0 0 2 0 0 2 0 0 0 0 0 5 0 0 2 0 0 
1 0 0 4 0 0 5 0 0 3 0 0 3 0 0 2 0 0 3 0 0 2 0 0 2 0 0 3 0 0 5 0 0 2 0 0 4 0 0 6 0 0 5 0 0 8 0 0 9 0 0 5 0 0 10 0 0 13 0 0 14 0 0 3 0 0 6 0 0 4 0 0 8 0 0 5 0 0 4 0 0 9 0 0 7 0 0 12 0 0 9 0 0 6 0 0 4 0 0 10 0 0 6 0 0 8 0 0 5 0 0 3 0 0 5 0 0 6 0 0 7 0 0 0 0 0 9 0 0 11 0 0 6 0 0 8 0 0 5 0 0 5 0 0 6 0 0 7 0 0 5 0 0 3 0 0 3 0 0 3 0 0 1 0 0 2 0 0 1 0 0 1 0 0 5 0 0 2 0 0 
1 0 0 2 0 0 7 0 0 6 0 0 2 0 0 3 0 0 1 0 0 6 0 0 3 0 0 5 0 0 6 0 0 4 0 0 7 0 0 4 0 0 4 0 0 10 0 0 9 0 0 6 0 0 10 0 0 14 0 0 13 0 0 6 0 0 7 0 0 7 0 0 5 0 0 7 0 0 10 0 0 11 0 0 12 0 0 10 0 0 11 0 0 7 0 0 8 0 0 4 0 0 3 0 0 8 0 0 6 0 0 10 0 0 8 0 0 8 0 0 9 0 0 4 0 0 5 0 0 10 0 0 4 0 0 12 0 0 6 0 0 3 0 0 4 0 0 3 0 0 5 0 0 3 0 0 4 0 0 4 0 0 1 0 0 5 0 0 3 0 0 6 0 0 4 0 0 4 0 0 
2 0 0 1 0 0 2 0 0 6 0 0 7 0 0 2 0 0 0 0 0 7 0 0 3 0 0 5 0 0 8 0 0 7 0 0 5 0 0 5 0 0 7 0 0 11 0 0 10 0 0 8 0 0 5 0 0 10 0 0 16 0 0 8 0 0 8 0 0 6 0 0 4 0 0 7 0 0 14 0 0 11 0 0 11 0 0 9 0 0 6 0 0 11 0 0 11 0 0 5 0 0 9 0 0 9 0 0 10 0 0 10 0 0 8 0 0 10 0 0 15 0 0 3 0 0 5 0 0 9 0 0 5 0 0 7 0 0 7 0 0 10 0 0 7 0 0 6 0 0 6 0 0 4 0 0 1 0 0 4 0 0 6 0 0 10 0 0 4 0 0 1 0 0 4 0 0 4 0 0 
1 0 0 6 0 0 1 0 0 5 0 0 7 0 0 8 0 0 6 0 0 6 0 0 6 0 0 3 0 0 4 0 0 7 0 0 8 0 0 2 0 0 14 0 0 10 0 0 11 0 0 8 0 0 5 0 0 9 0 0 15 0 0 7 0 0 5 0 0 6 0 0 12 0 0 12 0 0 12 0 0 12 0 0 25 0 0 6 0 0 12 0 0 6 0 0 15 0 0 6 0 0 9 0 0 9 0 0 10 0 0 14 0 0 15 0 0 10 0 0 11 0 0 8 0 0 9 0 0 8 0 0 9 0 0 5 0 0 5 0 0 11 0 0 13 0 0 5 0 0 5 0 0 6 0 0 2 0 0 2 0 0 9 0 0 5 0 0 1 0 0 2 0 0 1 0 0 2 0 0 
0 0 0 5 0 0 4 0 0 3 0 0 4 0 0 5 0 0 5 0 0 1 0 0 3 0 0 3 0 0 3 0 0 10 0 0 1 0 0 5 0 0 12 0 0 12 0 0 16 0 0 6 0 0 12 0 0 13 0 0 15 0 0 13 0 0 9 0 0 11 0 0 14 0 0 12 0 0 12 0 0 9 0 0 15 0 0 16 0 0 12 0 0 12 0 0 13 0 0 14 0 0 9 0 0 8 0 0 15 0 0 13 0 0 16 0 0 13 0 0 9 0 0 12 0 0 12 0 0 14 0 0 10 0 0 8 0 0 15 0 0 12 0 0 11 0 0 6 0 0 8 0 0 6 0 0 4 0 0 6 0 0 6 0 0 1 0 0 2 0 0 2 0 0 5 0 0 4 0 0 
0 0 0 5 0 0 6 0 0 3 0 0 3 0 0 7 0 0 8 0 0 5 0 0 4 0 0 10 0 0 8 0 0 11 0 0 4 0 0 10 0 0 11 0 0 11 0 0 13 0 0 9 0 0 12 0 0 14 0 0 22 0 0 18 0 0 17 0 0 19 0 0 15 0 0 12 0 0 16 0 0 17 0 0 12 0 0 12 0 0 10 0 0 23 0 0 21 0 0 20 0 0 11 0 0 15 0 0 18 0 0 19 0 0 15 0 0 15 0 0 11 0 0 13 0 0 20 0 0 15 0 0 14 0 0 11 0 0 19 0 0 16 0 0 10 0 0 10 0 0 10 0 0 4 0 0 8 0 0 3 0 0 3 0 0 2 0 0 3 0 0 3 0 0 5 0 0 5 0 0 
1 0 0 3 0 0 4 0 0 7 0 0 5 0 0 7 0 0 8 0 0 7 0 0 9 0 0 11 0 0 17 0 0 12 0 0 9 0 0 16 0 0 13 0 0 13 0 0 15 0 0 10 0 0 16 0 0 18 0 0 17 0 0 24 0 0 25 0 0 18 0 0 12 0 0 16 0 0 23 0 0 15 0 0 23 0 0 21 0 0 16 0 0 22 0 0 24 0 0 20 0 0 21 0 0 19 0 0 16 0 0 20 0 0 23 0 0 22 0 0 12 0 0 16 0 0 19 0 0 15 0 0 17 0 0 18 0 0 18 0 0 20 0 0 13 0 0 14 0 0 10 0 0 7 0 0 4 0 0 2 0 0 2 0 0 1 0 0 1 0 0 3 0 0 4 0 0 2 0 0 
1 0 0 5 0 0 4 0 0 3 0 0 1 0 0 6 0 0 9 0 0 12 0 0 7 0 0 14 0 0 61 0 0 83 0 0 84 0 0 88 0 0 75 0 0 77 0 0 83 0 0 84 0 0 77 0 0 82 0 0 88 0 0 81 0 0 93 0 0 83 0 0 75 0 0 79 0 0 83 0 0 89 0 0 85 0 0 81 0 0 89 0 0 88 0 0 93 0 0 89 0 0 85 0 0 102 0 0 100 0 0 82 0 0 86 0 0 95 0 0 83 0 0 96 0 0 82 0 0 85 0 0 84 0 0 80 0 0 78 0 0 84 0 0 74 0 0 85 0 0 45 0 0 14 0 0 8 0 0 3 0 0 1 0 0 3 0 0 4 0 0 4 0 0 8 0 0 7 0 0 
2 0 0 3 0 0 4 0 0 4 0 0 6 0 0 6 0 0 11 0 0 9 0 0 12 0 0 43 0 0 2710 0 0 5350 0 0 5540 0 0 5524 0 0 5449 0 0 5476 0 0 5306 0 0 5456 0 0 5482 0 0 5386 0 0 5490 0 0 5371 0 0 5397 0 0 5513 0 0 5477 0 0 5621 0 0 5558 0 0 5447 0 0 5480 0 0 5533 0 0 5612 0 0 5542 0 0 5393 0 0 5399 0 0 5412 0 0 5417 0 0 5336 0 0 5390 0 0 5573 0 0 5534 0 0 5591 0 0 5566 0 0 5492 0 0 5445 0 0 5446 0 0 5475 0 0 5486 0 0 5432 0 0 5463 0 0 5495 0 0 2755 0 0 46 0 0 11 0 0 7 0 0 8 0 0 5 0 0 5 0 0 3 0 0 2 0 0 7 0 0 
1 0 0 2 0 0 2 0 0 7 0 0 5 0 0 4 0 0 7 0 0 11 0 0 16 0 0 74 0 0 5506 0 0 11019 0 0 10721 0 0 10852 0 0 10701 0 0 10815 0 0 10849 0 0 11002 0 0 10929 0 0 10939 0 0 10929 0 0 10922 0 0 10828 0 0 10876 0 0 10887 0 0 10903 0 0 10863 0 0 11010 0 0 10782 0 0 11034 0 0 10943 0 0 10795 0 0 10656 0 0 10857 0 0 11059 0 0 10695 0 0 10832 0 0 10803 0 0 10807 0 0 10871 0 0 10940 0 0 10850 0 0 10762 0 0 10882 0 0 11121 0 0 10825 0 0 10841 0 0 10817 0 0 10714 0 0 10900 0 0 5565 0 0 86 0 0 13 0 0 14 0 0 9 0 0 6 0 0 2 0 0 4 0 0 6 0 0 9 0 0 
1 0 0 2 0 0 2 0 0 5 0 0 9 0 0 9 0 0 9 0 0 8 0 0 12 0 0 88 0 0 5282 0 0 10667 0 0 10951 0 0 10857 0 0 10854 0 0 10991 0 0 10942 0 0 11018 0 0 11070 0 0 10916 0 0 10840 0 0 10760 0 0 11056 0 0 11086 0 0 11001 0 0 11066 0 0 10852 0 0 10872 0 0 10894 0 0 10794 0 0 10883 0 0 10836 0 0 10990 0 0 10925 0 0 10948 0 0 10737 0 0 10981 0 0 10852 0 0 10983 0 0 10905 0 0 11045 0 0 11038 0 0 11001 0 0 10844 0 0 10985 0 0 10682 0 0 10943 0 0 10909 0 0 10967 0 0 10742 0 0 5419 0 0 85 0 0 16 0 0 9 0 0 5 0 0 6 0 0 5 0 0 11 0 0 12 0 0 5 0 0 
1 0 0 5 0 0 3 0 0 11 0 0 7 0 0 5 0 0 8 0 0 9 0 0 11 0 0 73 0 0 5448 0 0 10889 0 0 10924 0 0 10939 0 0 10960 0 0 11047 0 0 10781 0 0 10887 0 0 10964 0 0 10817 0 0 11030 0 0 10834 0 0 11023 0 0 10911 0 0 10796 0 0 10962 0 0 11009 0 0 11017 0 0 11093 0 0 10802 0 0 10828 0 0 10994 0 0 10903 0 0 10975 0 0 10742 0 0 10978 0 0 10858 0 0 10965 0 0 10818 0 0 10849 0 0 10876 0 0 10844 0 0 10966 0 0 10988 0 0 10953 0 0 10904 0 0 10811 0 0 10820 0 0 10838 0 0 10820 0 0 5578 0 0 86 0 0 13 0 0 5 0 0 7 0 0 6 0 0 9 0 0 9 0 0 8 0 0 2 0 0 
2 0 0 4 0 0 6 0 0 3 0 0 8 0 0 16 0 0 11 0 0 14 0 0 15 0 0 91 0 0 5475 0 0 10935 0 0 10856 0 0 10845 0 0 10965 0 0 10986 0 0 10993 0 0 10849 0 0 10815 0 0 11018 0 0 10972 0 0 10795 0 0 11052 0 0 11036 0 0 10971 0 0 10988 0 0 11046 0 0 10976 0 0 10995 0 0 10781 0 0 10893 0 0 10923 0 0 10957 0 0 10993 0 0 10815 0 0 10939 0 0 11062 0 0 10811 0 0 10943 0 0 11098 0 0 10921 0 0 10926 0 0 10994 0 0 10905 0 0 10975 0 0 10992 0 0 11028 0 0 10961 0 0 10997 0 0 10798 0 0 5548 0 0 67 0 0 11 0 0 9 0 0 5 0 0 5 0 0 4 0 0 6 0 0 7 0 0 7 0 0 
2 0 0 6 0 0 7 0 0 8 0 0 9 0 0 6 0 0 14 0 0 13 0 0 22 0 0 90 0 0 5444 0 0 10890 0 0 10921 0 0 10962 0 0 10968 0 0 10878 0 0 11106 0 0 11106 0 0 10834 0 0 10847 0 0 10986 0 0 11038 0 0 11007 0 0 10865 0 0 11126 0 0 11048 0 0 11107 0 0 10733 0 0 10849 0 0 11035 0 0 10951 0 0 10840 0 0 10919 0 0 11012 0 0 11029 0 0 11010 0 0 10994 0 0 10910 0 0 10893 0 0 10952 0 0 11049 0 0 10859 0 0 10767 0 0 10948 0 0 10814 0 0 10790 0 0 11039 0 0 11025 0 0 11157 0 0 10878 0 0 5494 0 0 66 0 0 19 0 0 18 0 0 10 0 0 11 0 0 9 0 0 9 0 0 2 0 0 6 0 0 
0 0 0 9 0 0 7 0 0 5 0 0 10 0 0 11 0 0 14 0 0 12 0 0 18 0 0 81 0 0 5404 0 0 10927 0 0 10926 0 0 10953 0 0 10915 0 0 11038 0 0 10836 0 0 10879 0 0 11043 0 0 10845 0 0 11046 0 0 11072 0 0 10907 0 0 11002 0 0 10972 0 0 10884 0 0 11070 0 0 10967 0 0 10847 0 0 10839 0 0 10912 0 0 11006 0 0 10871 0 0 10947 0 0 10992 0 0 11001 0 0 11081 0 0 10959 0 0 11061 0 0 10906 0 0 10724 0 0 11082 0 0 10761 0 0 10946 0 0 10835 0 0 10882 0 0 11015 0 0 10894 0 0 10847 0 0 10966 0 0 5442 0 0 78 0 0 13 0 0 14 0 0 13 0 0 11 0 0 13 0 0 8 0 0 8 0 0 8 0 0 
1 0 0 3 0 0 6 0 0 7 0 0 8 0 0 9 0 0 14 0 0 15 0 0 20 0 0 94 0 0 5494 0 0 10904 0 0 10940 0 0 11025 0 0 10740 0 0 10866 0 0 10778 0 0 10958 0 0 10929 0 0 10716 0 0 10942 0 0 11105 0 0 10958 0 0 11100 0 0 10917 0 0 11060 0 0 10937 0 0 10964 0 0 10976 0 0 10875 0 0 11026 0 0 11011 0 0 10891 0 0 11045 0 0 11033 0 0 11095 0 0 10898 0 0 11001 0 0 10945 0 0 11055 0 0 11127 0 0 10908 0 0 10831 0 0 10810 0 0 10913 0 0 11072 0 0 10915 0 0 11152 0 0 10985 0 0 10910 0 0 5459 0 0 75 0 0 13 0 0 16 0 0 10 0 0 12 0 0 11 0 0 6 0 0 6 0 0 7 0 0 
5 0 0 3 0 0 3 0 0 2 0 0 2 0 0 11 0 0 10 0 0 14 0 0 13 0 0 92 0 0 5470 0 0 10787 0 0 10911 0 0 10713 0 0 10955 0 0 11079 0 0 10788 0 0 10965 0 0 10909 0 0 11023 0 0 11078 0 0 10940 0 0 10928 0 0 11069 0 0 11007 0 0 10978 0 0 10853 0 0 10972 0 0 11090 0 0 10796 0 0 10979 0 0 10884 0 0 10951 0 0 10908 0 0 10990 0 0 10997 0 0 10754 0 0 10946 0 0 10931 0 0 11060 0 0 11049 0 0 10738 0 0 10902 0 0 10808 0 0 10870 0 0 10841 0 0 10993 0 0 10882 0 0 10830 0 0 10968 0 0 5428 0 0 72 0 0 15 0 0 9 0 0 6 0 0 13 0 0 10 0 0 4 0 0 7 0 0 6 0 0 
3 0 0 11 0 0 9 0 0 7 0 0 7 0 0 7 0 0 12 0 0 13 0 0 21 0 0 86 0 0 5480 0 0 10912 0 0 10947 0 0 10974 0 0 11009 0 0 10718 0 0 11128 0 0 10844 0 0 10902 0 0 11139 0 0 11037 0 0 11054 0 0 10855 0 0 10942 0 0 10866 0 0 10955 0 0 11020 0 0 10900 0 0 11084 0 0 10864 0 0 10924 0 0 10951 0 0 10926 0 0 11031 0 0 10965 0 0 10886 0 0 11001 0 0 11033 0 0 10969 0 0 11063 0 0 10938 0 0 10888 0 0 10977 0 0 10961 0 0 10905 0 0 11004 0 0 10859 0 0 10978 0 0 10931 0 0 10934 0 0 5564 0 0 73 0 0 22 0 0 12 0 0 11 0 0 8 0 0 7 0 0 8 0 0 10 0 0 5 0 0 
7 0 0 8 0 0 7 0 0 10 0 0 3 0 0 5 0 0 8 0 0 13 0 0 15 0 0 80 0 0 5490 0 0 10801 0 0 10954 0 0 10804 0 0 10904 0 0 10868 0 0 10864 0 0 10968 0 0 10923 0 0 11087 0 0 10780 0 0 11016 0 0 10830 0 0 10840 0 0 10956 0 0 10897 0 0 10966 0 0 11075 0 0 10827 0 0 11062 0 0 11002 0 0 10991 0 0 11061 0 0 10917 0 0 10992 0 0 11016 0 0 10942 0 0 10870 0 0 11061 0 0 10808 0 0 10983 0 0 10856 0 0 10966 0 0 11005 0 0 10851 0 0 11014 0 0 10772 0 0 10939 0 0 10875 0 0 10865 0 0 5498 0 0 92 0 0 16 0 0 11 0 0 12 0 0 13 0 0 10 0 0 12 0 0 6 0 0 6 0 0 
2 0 0 3 0 0 5 0 0 6 0 0 11 0 0 13 0 0 17 0 0 12 0 0 12 0 0 71 0 0 5521 0 0 11137 0 0 10976 0 0 11093 0 0 10978 0 0 10997 0 0 10968 0 0 10999 0 0 10896 0 0 10784 0 0 11035 0 0 11044 0 0 10806 0 0 10984 0 0 10848 0 0 10868 0 0 10860 0 0 10976 0 0 10984 0 0 11046 0 0 10903 0 0 10942 0 0 10819 0 0 11072 0 0 10932 0 0 11081 0 0 10869 0 0 10902 0 0 10909 0 0 11014 0 0 10896 0 0 10967 0 0 10937 0 0 11045 0 0 11110 0 0 10918 0 0 10982 0 0 10826 0 0 10919 0 0 10811 0 0 5489 0 0 86 0 0 23 0 0 21 0 0 10 0 0 4 0 0 9 0 0 10 0 0 12 0 0 5 0 0 
3 0 0 9 0 0 7 0 0 6 0 0 7 0 0 13 0 0 11 0 0 13 0 0 15 0 0 77 0 0 5463 0 0 10826 0 0 11057 0 0 10928 0 0 10940 0 0 10898 0 0 10872 0 0 10946 0 0 10880 0 0 10865 0 0 11048 0 0 10974 0 0 11044 0 0 10848 0 0 10869 0 0 11057 0 0 10920 0 0 10995 0 0 10951 0 0 10904 0 0 10993 0 0 11056 0 0 10794 0 0 11145 0 0 11000 0 0 10893 0 0 10787 0 0 11173 0 0 11084 0 0 11011 0 0 10891 0 0 11010 0 0 11017 0 0 11023 0 0 10998 0 0 10748 0 0 11135 0 0 10957 0 0 10766 0 0 10773 0 0 5493 0 0 87 0 0 25 0 0 16 0 0 14 0 0 11 0 0 15 0 0 14 0 0 7 0 0 12 0 0 
2 0 0 4 0 0 8 0 0 10 0 0 15 0 0 9 0 0 8 0 0 11 0 0 15 0 0 91 0 0 5459 0 0 10870 0 0 10986 0 0 10903 0 0 10938 0 0 10780 0 0 11135 0 0 11031 0 0 11017 0 0 10835 0 0 11088 0 0 11028 0 0 10869 0 0 10903 0 0 10895 0 0 10944 0 0 10980 0 0 10978 0 0 11092 0 0 10885 0 0 10947 0 0 10821 0 0 10904 0 0 10966 0 0 10912 0 0 11010 0 0 10874 0 0 11047 0 0 10911 0 0 10834 0 0 10855 0 0 10933 0 0 11047 0 0 11038 0 0 11112 0 0 10883 0 0 11009 0 0 10881 0 0 11039 0 0 10908 0 0 5472 0 0 82 0 0 22 0 0 9 0 0 8 0 0 13 0 0 8 0 0 9 0 0 7 0 0 4 0 0 
4 0 0 4 0 0 3 0 0 8 0 0 6 0 0 5 0 0 12 0 0 13 0 0 26 0 0 81 0 0 5571 0 0 10737 0 0 10935 0 0 10967 0 0 11158 0 0 10877 0 0 10818 0 0 10977 0 0 10977 0 0 11088 0 0 10886 0 0 10753 0 0 11013 0 0 10960 0 0 11016 0 0 10968 0 0 10861 0 0 11010 0 0 11050 0 0 10955 0 0 10890 0 0 10835 0 0 10880 0 0 10976 0 0 10977 0 0 10813 0 0 10794 0 0 10930 0 0 10968 0 0 10931 0 0 10916 0 0 10947 0 0 10976 0 0 10975 0 0 10853 0 0 10824 0 0 10972 0 0 10893 0 0 10841 0 0 10824 0 0 5467 0 0 72 0 0 12 0 0 14 0 0 12 0 0 7 0 0 6 0 0 10 0 0 3 0 0 5 0 0 
2 0 0 4 0 0 3 0 0 7 0 0 5 0 0 8 0 0 13 0 0 15 0 0 25 0 0 91 0 0 5548 0 0 10897 0 0 10958 0 0 10937 0 0 10969 0 0 10904 0 0 10896 0 0 10967 0 0 11044 0 0 10983 0 0 11055 0 0 10967 0 0 10924 0 0 11064 0 0 10716 0 0 10886 0 0 10974 0 0 10998 0 0 10973 0 0 10888 0 0 11160 0 0 11069 0 0 10924 0 0 11075 0 0 10946 0 0 10734 0 0 10908 0 0 10914 0 0 10943 0 0 10978 0 0 10926 0 0 10882 0 0 11052 0 0 10910 0 0 10931 0 0 10950 0 0 10897 0 0 10834 0 0 10979 0 0 10818 0 0 5554 0 0 81 0 0 14 0 0 13 0 0 10 0 0 15 0 0 10 0 0 10 0 0 11 0 0 7 0 0 
4 0 0 10 0 0 8 0 0 1 0 0 7 0 0 11 0 0 11 0 0 15 0 0 22 0 0 99 0 0 5575 0 0 10776 0 0 11000 0 0 10992 0 0 10911 0 0 10939 0 0 10960 0 0 11163 0 0 10865 0 0 10972 0 0 10916 0 0 10804 0 0 10947 0 0 10919 0 0 10879 0 0 10928 0 0 11085 0 0 10845 0 0 10919 0 0 10949 0 0 10977 0 0 10982 0 0 11042 0 0 10874 0 0 10774 0 0 10915 0 0 10858 0 0 10883 0 0 10959 0 0 11005 0 0 10935 0 0 10821 0 0 10901 0 0 10822 0 0 11111 0 0 10986 0 0 11017 0 0 10959 0 0 11020 0 0 10872 0 0 5475 0 0 97 0 0 26 0 0 16 0 0 15 0 0 12 0 0 10 0 0 9 0 0 3 0 0 6 0 0 
3 0 0 10 0 0 10 0 0 9 0 0 5 0 0 8 0 0 9 0 0 11 0 0 24 0 0 85 0 0 5452 0 0 11034 0 0 10984 0 0 11039 0 0 11063 0 0 10828 0 0 10935 0 0 10983 0 0 10856 0 0 10825 0 0 11056 0 0 11034 0 0 10894 0 0 10756 0 0 10987 0 0 10950 0 0 11005 0 0 11054 0 0 10891 0 0 11130 0 0 10910 0 0 10961 0 0 10915 0 0 11090 0 0 11085 0 0 10840 0 0 10676 0 0 10985 0 0 10975 0 0 11026 0 0 10918 0 0 10894 0 0 11152 0 0 10923 0 0 10935 0 0 10897 0 0 11104 0 0 10911 0 0 10934 0 0 11003 0 0 5531 0 0 88 0 0 28 0 0 18 0 0 15 0 0 10 0 0 12 0 0 9 0 0 10 0 0 4 0 0 
1 0 0 5 0 0 7 0 0 10 0 0 9 0 0 11 0 0 11 0 0 15 0 0 22 0 0 79 0 0 5453 0 0 10835 0 0 10919 0 0 10899 0 0 10885 0 0 10959 0 0 10778 0 0 10926 0 0 10934 0 0 10903 0 0 10882 0 0 10883 0 0 11136 0 0 10753 0 0 10889 0 0 10895 0 0 10900 0 0 10984 0 0 10877 0 0 10904 0 0 11009 0 0 11174 0 0 10853 0 0 11033 0 0 11081 0 0 10853 0 0 11037 0 0 11004 0 0 10852 0 0 11038 0 0 11110 0 0 10996 0 0 10895 0 0 10854 0 0 10723 0 0 11111 0 0 10852 0 0 10843 0 0 11029 0 0 10919 0 0 5473 0 0 100 0 0 26 0 0 23 0 0 13 0 0 9 0 0 9 0 0 12 0 0 7 0 0 8 0 0 
1 0 0 5 0 0 7 0 0 7 0 0 8 0 0 12 0 0 21 0 0 18 0 0 24 0 0 102 0 0 5476 0 0 11067 0 0 10932 0 0 10874 0 0 11075 0 0 10914 0 0 10877 0 0 10957 0 0 10903 0 0 10989 0 0 10925 0 0 10936 0 0 11124 0 0 10861 0 0 11005 0 0 10989 0 0 10859 0 0 11017 0 0 11084 0 0 10943 0 0 11033 0 0 11004 0 0 10978 0 0 11009 0 0 10967 0 0 10840 0 0 11048 0 0 10980 0 0 11074 0 0 11119 0 0 10801 0 0 10596 0 0 11109 0 0 10946 0 0 10857 0 0 11116 0 0 11088 0 0 10815 0 0 10906 0 0 10841 0 0 5297 0 0 100 0 0 19 0 0 12 0 0 16 0 0 12 0 0 12 0 0 13 0 0 6 0 0 3 0 0 
4 0 0 5 0 0 5 0 0 6 0 0 5 0 0 9 0 0 11 0 0 16 0 0 27 0 0 77 0 0 5596 0 0 10726 0 0 11050 0 0 10984 0 0 11023 0 0 10954 0 0 10972 0 0 11045 0 0 10978 0 0 11037 0 0 10813 0 0 11124 0 0 10804 0 0 11048 0 0 10983 0 0 11014 0 0 10999 0 0 10922 0 0 10888 0 0 11080 0 0 10920 0 0 11062 0 0 10925 0 0 11179 0 0 10995 0 0 10973 0 0 10997 0 0 10989 0 0 11002 0 0 11098 0 0 10997 0 0 10937 0 0 10902 0 0 11094 0 0 10997 0 0 10746 0 0 10896 0 0 10881 0 0 10964 0 0 10962 0 0 5406 0 0 74 0 0 24 0 0 21 0 0 11 0 0 6 0 0 12 0 0 9 0 0 4 0 0 3 0 0 
1 0 0 4 0 0 7 0 0 9 0 0 5 0 0 3 0 0 11 0 0 22 0 0 21 0 0 80 0 0 5461 0 0 10994 0 0 10960 0 0 11162 0 0 11031 0 0 10946 0 0 10998 0 0 11040 0 0 10914 0 0 10997 0 0 10833 0 0 11056 0 0 10829 0 0 11003 0 0 11165 0 0 10891 0 0 10788 0 0 10955 0 0 11025 0 0 10967 0 0 11055 0 0 10888 0 0 10777 0 0 10878 0 0 10954 0 0 10840 0 0 10942 0 0 10918 0 0 11061 0 0 10901 0 0 11034 0 0 10978 0 0 11111 0 0 10978 0 0 10945 0 0 10987 0 0 10893 0 0 11019 0 0 10983 0 0 10756 0 0 5625 0 0 83 0 0 17 0 0 13 0 0 13 0 0 9 0 0 6 0 0 7 0 0 7 0 0 5 0 0 
5 0 0 6 0 0 11 0 0 14 0 0 7 0 0 12 0 0 17 0 0 13 0 0 20 0 0 93 0 0 5443 0 0 11109 0 0 10916 0 0 11008 0 0 10951 0 0 10922 0 0 11149 0 0 10890 0 0 11024 0 0 11028 0 0 10922 0 0 11015 0 0 10975 0 0 10914 0 0 10787 0 0 11034 0 0 10942 0 0 11016 0 0 10780 0 0 10911 0 0 11024 0 0 10841 0 0 10748 0 0 10975 0 0 10983 0 0 10893 0 0 10928 0 0 10980 0 0 10881 0 0 10881 0 0 10925 0 0 10959 0 0 11051 0 0 10960 0 0 10829 0 0 10902 0 0 10858 0 0 11092 0 0 10940 0 0 10786 0 0 5519 0 0 91 0 0 27 0 0 19 0 0 15 0 0 15 0 0 11 0 0 9 0 0 7 0 0 4 0 0 
3 0 0 5 0 0 5 0 0 7 0 0 11 0 0 8 0 0 13 0 0 12 0 0 20 0 0 79 0 0 5491 0 0 10911 0 0 10856 0 0 11098 0 0 11006 0 0 11018 0 0 10929 0 0 11177 0 0 11070 0 0 10872 0 0 11011 0 0 10979 0 0 11102 0 0 10845 0 0 10904 0 0 10867 0 0 11007 0 0 10997 0 0 10825 0 0 10999 0 0 10820 0 0 10964 0 0 10872 0 0 10978 0 0 10823 0 0 10830 0 0 10968 0 0 11106 0 0 10927 0 0 10905 0 0 10907 0 0 11042 0 0 10849 0 0 10904 0 0 10889 0 0 10932 0 0 11021 0 0 10949 0 0 11056 0 0 10888 0 0 5431 0 0 71 0 0 13 0 0 18 0 0 16 0 0 10 0 0 5 0 0 4 0 0 4 0 0 9 0 0 
3 0 0 9 0 0 6 0 0 4 0 0 4 0 0 9 0 0 15 0 0 16 0 0 20 0 0 90 0 0 5467 0 0 11012 0 0 10988 0 0 10967 0 0 10910 0 0 11083 0 0 10863 0 0 11045 0 0 10932 0 0 10778 0 0 10980 0 0 10824 0 0 11045 0 0 10984 0 0 10982 0 0 10854 0 0 11066 0 0 11039 0 0 11062 0 0 11067 0 0 11059 0 0 11047 0 0 10987 0 0 10965 0 0 11084 0 0 10825 0 0 10922 0 0 10981 0 0 11093 0 0 10826 0 0 11063 0 0 10928 0 0 10979 0 0 10819 0 0 10910 0 0 10794 0 0 10942 0 0 10929 0 0 11027 0 0 10978 0 0 5566 0 0 104 0 0 19 0 0 9 0 0 12 0 0 20 0 0 8 0 0 11 0 0 10 0 0 8 0 0 
4 0 0 7 0 0 6 0 0 15 0 0 10 0 0 14 0 0 13 0 0 16 0 0 10 0 0 79 0 0 5533 0 0 10907 0 0 10975 0 0 11084 0 0 11024 0 0 10774 0 0 10784 0 0 10936 0 0 10862 0 0 11023 0 0 10942 0 0 11071 0 0 10843 0 0 10965 0 0 11008 0 0 11038 0 0 10900 0 0 10985 0 0 10870 0 0 11115 0 0 10962 0 0 10707 0 0 10909 0 0 10897 0 0 10963 0 0 10779 0 0 10912 0 0 10958 0 0 10989 0 0 10976 0 0 10845 0 0 11001 0 0 11034 0 0 11015 0 0 10882 0 0 10933 0 0 11001 0 0 10886 0 0 10869 0 0 10917 0 0 5617 0 0 89 0 0 25 0 0 17 0 0 4 0 0 8 0 0 13 0 0 9 0 0 2 0 0 8 0 0 
3 0 0 9 0 0 4 0 0 9 0 0 9 0 0 14 0 0 14 0 0 17 0 0 21 0 0 86 0 0 5471 0 0 10819 0 0 10944 0 0 10958 0 0 11047 0 0 10799 0 0 11042 0 0 10834 0 0 10928 0 0 10733 0 0 11039 0 0 10874 0 0 11013 0 0 10895 0 0 10900 0 0 10982 0 0 10980 0 0 11159 0 0 10943 0 0 11006 0 0 11157 0 0 11052 0 0 10879 0 0 10807 0 0 10812 0 0 10993 0 0 11042 0 0 10879 0 0 10930 0 0 10909 0 0 10941 0 0 11025 0 0 10878 0 0 11079 0 0 10964 0 0 10774 0 0 11102 0 0 11116 0 0 11081 0 0 11016 0 0 5571 0 0 105 0 0 14 0 0 19 0 0 15 0 0 11 0 0 6 0 0 7 0 0 7 0 0 7 0 0 
2 0 0 4 0 0 5 0 0 4 0 0 10 0 0 14 0 0 14 0 0 14 0 0 22 0 0 90 0 0 5548 0 0 11074 0 0 10997 0 0 11159 0 0 10879 0 0 11043 0 0 10854 0 0 10948 0 0 10888 0 0 10971 0 0 10960 0 0 10949 0 0 10862 0 0 11078 0 0 10966 0 0 10986 0 0 10921 0 0 10739 0 0 11012 0 0 10983 0 0 10915 0 0 10913 0 0 10926 0 0 10802 0 0 10937 0 0 10982 0 0 10874 0 0 10835 0 0 10983 0 0 11009 0 0 10989 0 0 10920 0 0 11178 0 0 10967 0 0 10938 0 0 10887 0 0 10746 0 0 10970 0 0 10894 0 0 10738 0 0 5492 0 0 94 0 0 24 0 0 18 0 0 12 0 0 12 0 0 10 0 0 9 0 0 5 0 0 5 0 0 
3 0 0 3 0 0 4 0 0 8 0 0 7 0 0 13 0 0 21 0 0 17 0 0 14 0 0 94 0 0 5560 0 0 10980 0 0 10858 0 0 11049 0 0 10911 0 0 11007 0 0 10950 0 0 11106 0 0 10845 0 0 10767 0 0 10911 0 0 10810 0 0 10995 0 0 10797 0 0 10950 0 0 10852 0 0 10943 0 0 10866 0 0 10884 0 0 10752 0 0 10986 0 0 10835 0 0 10920 0 0 10920 0 0 10918 0 0 10804 0 0 10939 0 0 11048 0 0 10992 0 0 10959 0 0 11127 0 0 10999 0 0 10988 0 0 10949 0 0 10969 0 0 11054 0 0 10978 0 0 10947 0 0 10970 0 0 10903 0 0 5325 0 0 84 0 0 20 0 0 20 0 0 19 0 0 12 0 0 6 0 0 8 0 0 4 0 0 6 0 0 
0 0 0 4 0 0 3 0 0 8 0 0 6 0 0 11 0 0 11 0 0 12 0 0 23 0 0 81 0 0 5459 0 0 10999 0 0 10752 0 0 11027 0 0 10919 0 0 10957 0 0 10882 0 0 10936 0 0 10780 0 0 11052 0 0 10953 0 0 11005 0 0 10955 0 0 10784 0 0 10948 0 0 10955 0 0 11018 0 0 10919 0 0 10794 0 0 10812 0 0 10994 0 0 10988 0 0 10957 0 0 10951 0 0 10958 0 0 10934 0 0 10987 0 0 10947 0 0 10763 0 0 10966 0 0 10963 0 0 10965 0 0 10672 0 0 10825 0 0 10931 0 0 11030 0 0 10747 0 0 10787 0 0 10820 0 0 10749 0 0 5440 0 0 78 0 0 26 0 0 16 0 0 10 0 0 9 0 0 12 0 0 6 0 0 4 0 0 8 0 0 
0 0 0 4 0 0 4 0 0 6 0 0 15 0 0 12 0 0 10 0 0 14 0 0 17 0 0 81 0 0 5486 0 0 10929 0 0 11036 0 0 11075 0 0 10862 0 0 11087 0 0 10883 0 0 11035 0 0 10939 0 0 11015 0 0 11021 0 0 10978 0 0 10812 0 0 10764 0 0 11075 0 0 10891 0 0 10829 0 0 10984 0 0 10953 0 0 10957 0 0 10913 0 0 10862 0 0 11001 0 0 10873 0 0 11020 0 0 10982 0 0 10848 0 0 10953 0 0 10770 0 0 10980 0 0 10956 0 0 10882 0 0 10942 0 0 10833 0 0 10853 0 0 10983 0 0 11040 0 0 10806 0 0 10902 0 0 10808 0 0 5642 0 0 87 0 0 19 0 0 15 0 0 16 0 0 6 0 0 4 0 0 6 0 0 2 0 0 2 0 0 
1 0 0 4 0 0 10 0 0 8 0 0 12 0 0 12 0 0 13 0 0 13 0 0 13 0 0 88 0 0 5558 0 0 10767 0 0 11076 0 0 10893 0 0 11074 0 0 10947 0 0 10907 0 0 11044 0 0 10827 0 0 10973 0 0 10820 0 0 10831 0 0 10993 0 0 10957 0 0 11012 0 0 10988 0 0 10963 0 0 10946 0 0 10965 0 0 10960 0 0 11181 0 0 10858 0 0 10895 0 0 11048 0 0 10986 0 0 10961 0 0 10885 0 0 10899 0 0 10958 0 0 11096 0 0 10900 0 0 11063 0 0 10943 0 0 10994 0 0 10975 0 0 10894 0 0 11025 0 0 10916 0 0 10917 0 0 10702 0 0 5386 0 0 72 0 0 19 0 0 20 0 0 11 0 0 12 0 0 11 0 0 8 0 0 7 0 0 3 0 0 
2 0 0 5 0 0 7 0 0 12 0 0 7 0 0 10 0 0 12 0 0 14 0 0 17 0 0 81 0 0 5560 0 0 10897 0 0 11081 0 0 10906 0 0 11008 0 0 10927 0 0 10906 0 0 10823 0 0 10929 0 0 10937 0 0 11011 0 0 11008 0 0 11048 0 0 11016 0 0 10827 0 0 10944 0 0 10735 0 0 10966 0 0 11128 0 0 11054 0 0 10897 0 0 10967 0 0 11052 0 0 10844 0 0 10958 0 0 10889 0 0 10839 0 0 10832 0 0 10983 0 0 10903 0 0 10871 0 0 10953 0 0 11026 0 0 11007 0 0 10942 0 0 10971 0 0 11004 0 0 10905 0 0 10940 0 0 10888 0 0 5474 0 0 76 0 0 17 0 0 22 0 0 12 0 0 8 0 0 6 0 0 8 0 0 7 0 0 3 0 0 
2 0 0 3 0 0 6 0 0 7 0 0 7 0 0 11 0 0 9 0 0 23 0 0 19 0 0 81 0 0 5521 0 0 10793 0 0 11085 0 0 10978 0 0 10847 0 0 10936 0 0 10805 0 0 10882 0 0 10885 0 0 10764 0 0 10907 0 0 10817 0 0 10905 0 0 10852 0 0 10911 0 0 10878 0 0 10914 0 0 10950 0 0 11016 0 0 10843 0 0 10884 0 0 10976 0 0 11193 0 0 11067 0 0 10967 0 0 10907 0 0 10835 0 0 10997 0 0 11027 0 0 10919 0 0 10976 0 0 10912 0 0 10882 0 0 10966 0 0 10912 0 0 10966 0 0 11014 0 0 10801 0 0 11041 0 0 10731 0 0 5375 0 0 88 0 0 27 0 0 13 0 0 7 0 0 12 0 0 9 0 0 5 0 0 3 0 0 4 0 0 
0 0 0 3 0 0 1 0 0 3 0 0 7 0 0 9 0 0 13 0 0 13 0 0 17 0 0 74 0 0 5463 0 0 10938 0 0 10854 0 0 10838 0 0 10721 0 0 10997 0 0 11036 0 0 11120 0 0 10912 0 0 10800 0 0 11003 0 0 10994 0 0 11098 0 0 10982 0 0 10914 0 0 10942 0 0 11046 0 0 11072 0 0 10930 0 0 10939 0 0 10885 0 0 10986 0 0 10997 0 0 10814 0 0 11071 0 0 10988 0 0 11041 0 0 10929 0 0 10956 0 0 10902 0 0 10804 0 0 10960 0 0 10802 0 0 11017 0 0 10897 0 0 10967 0 0 10961 0 0 10856 0 0 10947 0 0 10865 0 0 5445 0 0 86 0 0 16 0 0 15 0 0 15 0 0 5 0 0 7 0 0 6 0 0 8 0 0 3 0 0 
3 0 0 3 0 0 1 0 0 3 0 0 9 0 0 9 0 0 12 0 0 10 0 0 17 0 0 86 0 0 5436 0 0 11008 0 0 10946 0 0 10817 0 0 11027 0 0 10861 0 0 10880 0 0 10984 0 0 11039 0 0 10945 0 0 11003 0 0 10972 0 0 10980 0 0 10895 0 0 11059 0 0 10975 0 0 11044 0 0 10873 0 0 10818 0 0 10993 0 0 11058 0 0 10956 0 0 10974 0 0 10954 0 0 10918 0 0 11086 0 0 10945 0 0 10896 0 0 10950 0 0 10952 0 0 10789 0 0 11044 0 0 10970 0 0 10913 0 0 10990 0 0 10823 0 0 10892 0 0 10931 0 0 10829 0 0 10785 0 0 5470 0 0 67 0 0 12 0 0 2 0 0 7 0 0 10 0 0 7 0 0 4 0 0 9 0 0 7 0 0 
2 0 0 2 0 0 3 0 0 6 0 0 6 0 0 12 0 0 7 0 0 10 0 0 16 0 0 82 0 0 5514 0 0 11030 0 0 10863 0 0 11053 0 0 10939 0 0 10934 0 0 10953 0 0 10888 0 0 10995 0 0 11010 0 0 11003 0 0 11090 0 0 10820 0 0 11094 0 0 10918 0 0 10992 0 0 10813 0 0 10985 0 0 10935 0 0 10935 0 0 10913 0 0 10951 0 0 10958 0 0 10989 0 0 10931 0 0 11024 0 0 11016 0 0 10921 0 0 10938 0 0 10966 0 0 10906 0 0 10983 0 0 10802 0 0 10970 0 0 10950 0 0 10860 0 0 11020 0 0 10943 0 0 10977 0 0 10843 0 0 5524 0 0 80 0 0 19 0 0 8 0 0 11 0 0 9 0 0 11 0 0 8 0 0 5 0 0 7 0 0 
1 0 0 5 0 0 2 0 0 4 0 0 6 0 0 1 0 0 7 0 0 9 0 0 10 0 0 67 0 0 5470 0 0 10872 0 0 10990 0 0 10841 0 0 11021 0 0 10882 0 0 10911 0 0 11122 0 0 10951 0 0 11025 0 0 10938 0 0 10853 0 0 10987 0 0 10790 0 0 10773 0 0 11055 0 0 10930 0 0 10871 0 0 10635 0 0 10941 0 0 10768 0 0 11067 0 0 11082 0 0 10998 0 0 11038 0 0 10942 0 0 11027 0 0 10833 0 0 10800 0 0 10833 0 0 10852 0 0 10855 0 0 10833 0 0 10978 0 0 10862 0 0 10984 0 0 10938 0 0 10931 0 0 10874 0 0 10836 0 0 5510 0 0 82 0 0 11 0 0 22 0 0 11 0 0 10 0 0 4 0 0 4 0 0 4 0 0 9 0 0 
5 0 0 4 0 0 4 0 0 4 0 0 6 0 0 7 0 0 8 0 0 11 0 0 15 0 0 71 0 0 5520 0 0 10723 0 0 10800 0 0 11050 0 0 11063 0 0 10809 0 0 10824 0 0 11053 0 0 10999 0 0 10978 0 0 10869 0 0 10878 0 0 11038 0 0 10934 0 0 11021 0 0 11069 0 0 10847 0 0 10930 0 0 10883 0 0 11022 0 0 10884 0 0 10755 0 0 10890 0 0 10995 0 0 10931 0 0 10820 0 0 10905 0 0 10935 0 0 10882 0 0 10768 0 0 10666 0 0 11105 0 0 11022 0 0 11030 0 0 10846 0 0 10912 0 0 10875 0 0 11038 0 0 10886 0 0 11030 0 0 5458 0 0 82 0 0 14 0 0 14 0 0 13 0 0 11 0 0 7 0 0 5 0 0 5 0 0 6 0 0 
2 0 0 7 0 0 5 0 0 5 0 0 7 0 0 15 0 0 15 0 0 13 0 0 12 0 0 70 0 0 5350 0 0 10818 0 0 10855 0 0 10828 0 0 10876 0 0 10885 0 0 10921 0 0 10846 0 0 10683 0 0 10900 0 0 10798 0 0 11008 0 0 10759 0 0 10663 0 0 10858 0 0 10746 0 0 10657 0 0 10926 0 0 10817 0 0 10922 0 0 10926 0 0 10825 0 0 10860 0 0 10814 0 0 10635 0 0 10942 0 0 10600 0 0 10990 0 0 10812 0 0 10995 0 0 10784 0 0 11071 0 0 10968 0 0 10810 0 0 10927 0 0 10908 0 0 10862 0 0 10841 0 0 10905 0 0 10773 0 0 5490 0 0 86 0 0 13 0 0 8 0 0 6 0 0 12 0 0 9 0 0 4 0 0 2 0 0 2 0 0 
3 0 0 4 0 0 8 0 0 8 0 0 7 0 0 12 0 0 11 0 0 9 0 0 13 0 0 41 0 0 2748 0 0 5412 0 0 5483 0 0 5469 0 0 5481 0 0 5311 0 0 5639 0 0 5543 0 0 5472 0 0 5438 0 0 5529 0 0 5449 0 0 5547 0 0 5492 0 0 5523 0 0 5478 0 0 5435 0 0 5512 0 0 5431 0 0 5517 0 0 5526 0 0 5501 0 0 5422 0 0 5518 0 0 5513 0 0 5451 0 0 5382 0 0 5479 0 0 5455 0 0 5596 0 0 5524 0 0 5419 0 0 5495 0 0 5473 0 0 5563 0 0 5490 0 0 5395 0 0 5487 0 0 5510 0 0 5467 0 0 2750 0 0 53 0 0 15 0 0 13 0 0 12 0 0 6 0 0 9 0 0 5 0 0 7 0 0 5 0 0 
0 0 0 5 0 0 8 0 0 5 0 0 4 0 0 12 0 0 8 0 0 11 0 0 8 0 0 8 0 0 47 0 0 75 0 0 94 0 0 93 0 0 90 0 0 84 0 0 82 0 0 77 0 0 92 0 0 88 0 0 91 0 0 101 0 0 87 0 0 90 0 0 77 0 0 90 0 0 72 0 0 93 0 0 96 0 0 88 0 0 95 0 0 97 0 0 83 0 0 81 0 0 92 0 0 90 0 0 96 0 0 86 0 0 80 0 0 87 0 0 81 0 0 82 0 0 83 0 0 80 0 0 91 0 0 98 0 0 75 0 0 73 0 0 77 0 0 72 0 0 38 0 0 11 0 0 10 0 0 8 0 0 10 0 0 6 0 0 8 0 0 7 0 0 9 0 0 5 0 0 
4 0 0 7 0 0 6 0 0 5 0 0 6 0 0 9 0 0 9 0 0 8 0 0 4 0 0 18 0 0 16 0 0 20 0 0 12 0 0 15 0 0 22 0 0 11 0 0 16 0 0 15 0 0 24 0 0 25 0 0 18 0 0 19 0 0 31 0 0 18 0 0 22 0 0 23 0 0 24 0 0 29 0 0 19 0 0 26 0 0 27 0 0 26 0 0 28 0 0 19 0 0 30 0 0 17 0 0 20 0 0 17 0 0 21 0 0 20 0 0 18 0 0 23 0 0 28 0 0 26 0 0 16 0 0 17 0 0 21 0 0 18 0 0 26 0 0 14 0 0 10 0 0 6 0 0 5 0 0 4 0 0 10 0 0 9 0 0 12 0 0 6 0 0 6 0 0 8 0 0 
3 0 0 7 0 0 10 0 0 7 0 0 8 0 0 5 0 0 6 0 0 3 0 0 6 0 0 12 0 0 4 0 0 8 0 0 7 0 0 14 0 0 12 0 0 9 0 0 9 0 0 8 0 0 18 0 0 24 0 0 15 0 0 14 0 0 17 0 0 23 0 0 17 0 0 21 0 0 16 0 0 16 0 0 15 0 0 18 0 0 14 0 0 19 0 0 17 0 0 15 0 0 15 0 0 12 0 0 13 0 0 17 0 0 19 0 0 12 0 0 12 0 0 15 0 0 16 0 0 20 0 0 12 0 0 11 0 0 14 0 0 11 0 0 14 0 0 12 0 0 4 0 0 7 0 0 6 0 0 1 0 0 5 0 0 6 0 0 8 0 0 8 0 0 4 0 0 4 0 0 
2 0 0 7 0 0 4 0 0 6 0 0 4 0 0 3 0 0 3 0 0 2 0 0 7 0 0 6 0 0 10 0 0 8 0 0 12 0 0 12 0 0 7 0 0 14 0 0 11 0 0 12 0 0 15 0 0 9 0 0 6 0 0 9 0 0 10 0 0 23 0 0 13 0 0 18 0 0 12 0 0 12 0 0 12 0 0 12 0 0 6 0 0 14 0 0 15 0 0 10 0 0 9 0 0 8 0 0 12 0 0 14 0 0 12 0 0 11 0 0 13 0 0 17 0 0 12 0 0 11 0 0 11 0 0 11 0 0 7 0 0 10 0 0 10 0 0 9 0 0 7 0 0 2 0 0 4 0 0 6 0 0 5 0 0 6 0 0 6 0 0 6 0 0 9 0 0 2 0 0 
0 0 0 4 0 0 5 0 0 5 0 0 4 0 0 3 0 0 4 0 0 3 0 0 9 0 0 4 0 0 9 0 0 5 0 0 11 0 0 8 0 0 8 0 0 14 0 0 10 0 0 9 0 0 9 0 0 5 0 0 7 0 0 5 0 0 12 0 0 14 0 0 10 0 0 9 0 0 5 0 0 13 0 0 10 0 0 7 0 0 11 0 0 10 0 0 8 0 0 13 0 0 8 0 0 6 0 0 15 0 0 15 0 0 6 0 0 5 0 0 11 0 0 13 0 0 7 0 0 12 0 0 7 0 0 11 0 0 9 0 0 11 0 0 10 0 0 8 0 0 5 0 0 1 0 0 6 0 0 2 0 0 4 0 0 3 0 0 3 0 0 7 0 0 6 0 0 10 0 0 
0 0 0 6 0 0 8 0 0 8 0 0 4 0 0 3 0 0 4 0 0 10 0 0 3 0 0 8 0 0 4 0 0 8 0 0 8 0 0 4 0 0 7 0 0 13 0 0 11 0 0 12 0 0 8 0 0 5 0 0 5 0 0 5 0 0 12 0 0 12 0 0 7 0 0 8 0 0 5 0 0 12 0 0 9 0 0 12 0 0 11 0 0 9 0 0 7 0 0 9 0 0 8 0 0 5 0 0 14 0 0 10 0 0 8 0 0 7 0 0 5 0 0 10 0 0 1 0 0 7 0 0 7 0 0 9 0 0 10 0 0 4 0 0 8 0 0 3 0 0 9 0 0 4 0 0 2 0 0 3 0 0 6 0 0 1 0 0 1 0 0 3 0 0 4 0 0 2 0 0 
0 0 0 6 0 0 6 0 0 3 0 0 0 0 0 4 0 0 8 0 0 3 0 0 3 0 0 8 0 0 2 0 0 5 0 0 8 0 0 10 0 0 10 0 0 11 0 0 9 0 0 4 0 0 2 0 0 9 0 0 5 0 0 7 0 0 10 0 0 7 0 0 7 0 0 11 0 0 5 0 0 7 0 0 11 0 0 10 0 0 10 0 0 6 0 0 6 0 0 2 0 0 9 0 0 7 0 0 9 0 0 9 0 0 8 0 0 4 0 0 5 0 0 7 0 0 4 0 0 6 0 0 11 0 0 9 0 0 7 0 0 6 0 0 4 0 0 4 0 0 2 0 0 4 0 0 1 0 0 1 0 0 5 0 0 4 0 0 5 0 0 0 0 0 0 0 0 1 0 0 
1 0 0 3 0 0 3 0 0 5 0 0 2 0 0 9 0 0 3 0 0 5 0 0 3 0 0 9 0 0 4 0 0 7 0 0 6 0 0 5 0 0 7 0 0 8 0 0 4 0 0 4 0 0 6 0 0 6 0 0 4 0 0 8 0 0 9 0 0 5 0 0 6 0 0 6 0 0 7 0 0 14 0 0 12 0 0 10 0 0 3 0 0 1 0 0 7 0 0 5 0 0 5 0 0 9 0 0 8 0 0 8 0 0 3 0 0 5 0 0 1 0 0 8 0 0 6 0 0 6 0 0 11 0 0 10 0 0 7 0 0 9 0 0 8 0 0 4 0 0 2 0 0 3 0 0 4 0 0 2 0 0 3 0 0 6 0 0 1 0 0 0 0 0 0 0 0 1 0 0 
1 0 0 1 0 0 3 0 0 8 0 0 2 0 0 5 0 0 6 0 0 7 0 0 6 0 0 4 0 0 7 0 0 3 0 0 4 0 0 6 0 0 4 0 0 4 0 0 5 0 0 4 0 0 3 0 0 6 0 0 4 0 0 12 0 0 6 0 0 5 0 0 8 0 0 7 0 0 8 0 0 10 0 0 8 0 0 10 0 0 4 0 0 4 0 0 6 0 0 7 0 0 8 0 0 5 0 0 7 0 0 5 0 0 8 0 0 10 0 0 8 0 0 5 0 0 5 0 0 5 0 0 9 0 0 6 0 0 3 0 0 4 0 0 12 0 0 6 0 0 3 0 0 4 0 0 3 0 0 8 0 0 4 0 0 6 0 0 2 0 0 1 0 0 0 0 0 0 0 0 
