P3
# This is a dose file slice at depth 36 of 100
60 60
# now we give the maximum value of the RGB coordinates.
32920
0 0 0 2 0 0 0 0 0 3 0 0 2 0 0 2 0 0 3 0 0 1 0 0 2 0 0 4 0 0 4 0 0 3 0 0 2 0 0 3 0 0 1 0 0 4 0 0 2 0 0 3 0 0 6 0 0 3 0 0 2 0 0 5 0 0 5 0 0 2 0 0 3 0 0 4 0 0 6 0 0 5 0 0 4 0 0 3 0 0 2 0 0 5 0 0 2 0 0 5 0 0 3 0 0 3 0 0 0 0 0 1 0 0 1 0 0 5 0 0 5 0 0 5 0 0 5 0 0 6 0 0 5 0 0 3 0 0 6 0 0 3 0 0 2 0 0 1 0 0 1 0 0 1 0 0 2 0 0 3 0 0 3 0 0 0 0 0 5 0 0 3 0 0 1 0 0 1 0 0 
1 0 0 1 0 0 4 0 0 4 0 0 8 0 0 5 0 0 6 0 0 9 0 0 6 0 0 6 0 0 10 0 0 5 0 0 10 0 0 6 0 0 12 0 0 7 0 0 11 0 0 10 0 0 11 0 0 12 0 0 11 0 0 6 0 0 10 0 0 10 0 0 9 0 0 12 0 0 11 0 0 6 0 0 11 0 0 7 0 0 7 0 0 11 0 0 9 0 0 8 0 0 8 0 0 5 0 0 3 0 0 5 0 0 6 0 0 7 0 0 12 0 0 13 0 0 13 0 0 8 0 0 10 0 0 7 0 0 13 0 0 9 0 0 3 0 0 6 0 0 7 0 0 5 0 0 5 0 0 4 0 0 5 0 0 6 0 0 10 0 0 5 0 0 1 0 0 3 0 0 
3 0 0 3 0 0 0 0 0 4 0 0 6 0 0 6 0 0 4 0 0 13 0 0 7 0 0 6 0 0 8 0 0 9 0 0 12 0 0 12 0 0 13 0 0 12 0 0 12 0 0 9 0 0 6 0 0 9 0 0 12 0 0 10 0 0 8 0 0 12 0 0 11 0 0 11 0 0 6 0 0 7 0 0 13 0 0 8 0 0 12 0 0 14 0 0 10 0 0 10 0 0 9 0 0 3 0 0 4 0 0 6 0 0 7 0 0 12 0 0 7 0 0 14 0 0 14 0 0 8 0 0 11 0 0 11 0 0 9 0 0 6 0 0 4 0 0 12 0 0 6 0 0 2 0 0 4 0 0 3 0 0 10 0 0 8 0 0 5 0 0 3 0 0 4 0 0 2 0 0 
2 0 0 5 0 0 4 0 0 2 0 0 3 0 0 3 0 0 8 0 0 7 0 0 10 0 0 5 0 0 8 0 0 11 0 0 3 0 0 11 0 0 11 0 0 8 0 0 13 0 0 10 0 0 13 0 0 9 0 0 8 0 0 8 0 0 12 0 0 15 0 0 10 0 0 14 0 0 12 0 0 6 0 0 15 0 0 15 0 0 17 0 0 19 0 0 13 0 0 12 0 0 9 0 0 5 0 0 11 0 0 12 0 0 8 0 0 13 0 0 12 0 0 13 0 0 11 0 0 11 0 0 12 0 0 10 0 0 11 0 0 12 0 0 12 0 0 14 0 0 5 0 0 4 0 0 5 0 0 7 0 0 7 0 0 1 0 0 3 0 0 3 0 0 8 0 0 3 0 0 
3 0 0 8 0 0 8 0 0 8 0 0 3 0 0 7 0 0 9 0 0 5 0 0 10 0 0 7 0 0 6 0 0 9 0 0 4 0 0 10 0 0 9 0 0 11 0 0 8 0 0 8 0 0 13 0 0 12 0 0 12 0 0 12 0 0 9 0 0 22 0 0 8 0 0 16 0 0 10 0 0 13 0 0 12 0 0 10 0 0 14 0 0 18 0 0 11 0 0 11 0 0 7 0 0 14 0 0 14 0 0 12 0 0 6 0 0 10 0 0 13 0 0 14 0 0 21 0 0 11 0 0 14 0 0 12 0 0 14 0 0 12 0 0 7 0 0 6 0 0 6 0 0 7 0 0 7 0 0 7 0 0 4 0 0 5 0 0 6 0 0 10 0 0 2 0 0 5 0 0 
4 0 0 12 0 0 8 0 0 6 0 0 4 0 0 2 0 0 6 0 0 4 0 0 7 0 0 10 0 0 7 0 0 7 0 0 8 0 0 11 0 0 7 0 0 7 0 0 12 0 0 11 0 0 14 0 0 16 0 0 15 0 0 19 0 0 16 0 0 17 0 0 14 0 0 10 0 0 11 0 0 15 0 0 15 0 0 12 0 0 13 0 0 17 0 0 16 0 0 11 0 0 12 0 0 12 0 0 10 0 0 18 0 0 10 0 0 11 0 0 14 0 0 12 0 0 17 0 0 17 0 0 15 0 0 15 0 0 10 0 0 12 0 0 10 0 0 9 0 0 9 0 0 6 0 0 7 0 0 7 0 0 5 0 0 11 0 0 2 0 0 7 0 0 3 0 0 9 0 0 
4 0 0 4 0 0 10 0 0 10 0 0 12 0 0 10 0 0 10 0 0 7 0 0 8 0 0 10 0 0 13 0 0 11 0 0 10 0 0 12 0 0 16 0 0 16 0 0 12 0 0 13 0 0 15 0 0 10 0 0 20 0 0 19 0 0 18 0 0 13 0 0 19 0 0 18 0 0 12 0 0 15 0 0 17 0 0 14 0 0 16 0 0 16 0 0 19 0 0 17 0 0 13 0 0 13 0 0 12 0 0 7 0 0 21 0 0 20 0 0 23 0 0 12 0 0 25 0 0 17 0 0 11 0 0 16 0 0 14 0 0 11 0 0 12 0 0 9 0 0 8 0 0 10 0 0 8 0 0 7 0 0 9 0 0 6 0 0 8 0 0 12 0 0 6 0 0 6 0 0 
3 0 0 11 0 0 9 0 0 9 0 0 8 0 0 10 0 0 11 0 0 11 0 0 9 0 0 9 0 0 15 0 0 18 0 0 16 0 0 15 0 0 21 0 0 18 0 0 14 0 0 20 0 0 19 0 0 15 0 0 36 0 0 20 0 0 20 0 0 15 0 0 19 0 0 19 0 0 20 0 0 28 0 0 25 0 0 19 0 0 17 0 0 19 0 0 20 0 0 26 0 0 16 0 0 17 0 0 18 0 0 20 0 0 23 0 0 26 0 0 25 0 0 16 0 0 17 0 0 18 0 0 12 0 0 15 0 0 19 0 0 15 0 0 15 0 0 12 0 0 12 0 0 7 0 0 16 0 0 12 0 0 12 0 0 11 0 0 12 0 0 10 0 0 6 0 0 6 0 0 
2 0 0 5 0 0 12 0 0 10 0 0 5 0 0 12 0 0 8 0 0 8 0 0 14 0 0 19 0 0 19 0 0 27 0 0 21 0 0 15 0 0 27 0 0 23 0 0 22 0 0 21 0 0 18 0 0 29 0 0 29 0 0 22 0 0 23 0 0 25 0 0 22 0 0 36 0 0 28 0 0 27 0 0 31 0 0 30 0 0 30 0 0 27 0 0 24 0 0 26 0 0 34 0 0 25 0 0 27 0 0 35 0 0 19 0 0 35 0 0 35 0 0 18 0 0 21 0 0 27 0 0 18 0 0 9 0 0 19 0 0 27 0 0 23 0 0 21 0 0 15 0 0 9 0 0 11 0 0 11 0 0 11 0 0 9 0 0 7 0 0 7 0 0 4 0 0 7 0 0 
3 0 0 6 0 0 8 0 0 10 0 0 6 0 0 12 0 0 11 0 0 12 0 0 14 0 0 14 0 0 52 0 0 90 0 0 103 0 0 108 0 0 113 0 0 97 0 0 108 0 0 101 0 0 95 0 0 112 0 0 132 0 0 113 0 0 116 0 0 103 0 0 107 0 0 102 0 0 96 0 0 120 0 0 130 0 0 101 0 0 101 0 0 119 0 0 120 0 0 120 0 0 109 0 0 118 0 0 119 0 0 106 0 0 105 0 0 113 0 0 107 0 0 102 0 0 114 0 0 120 0 0 100 0 0 111 0 0 110 0 0 118 0 0 117 0 0 109 0 0 41 0 0 16 0 0 21 0 0 6 0 0 11 0 0 12 0 0 7 0 0 4 0 0 1 0 0 6 0 0 
3 0 0 11 0 0 8 0 0 11 0 0 9 0 0 11 0 0 12 0 0 16 0 0 11 0 0 52 0 0 3642 0 0 7303 0 0 7406 0 0 7359 0 0 7279 0 0 7337 0 0 7269 0 0 7363 0 0 7246 0 0 7343 0 0 7299 0 0 7219 0 0 7232 0 0 7306 0 0 7342 0 0 7221 0 0 7373 0 0 7329 0 0 7298 0 0 7443 0 0 7389 0 0 7068 0 0 7252 0 0 7188 0 0 7196 0 0 7300 0 0 7381 0 0 7475 0 0 7365 0 0 7360 0 0 7359 0 0 7211 0 0 7172 0 0 7305 0 0 7326 0 0 7411 0 0 7243 0 0 7289 0 0 7224 0 0 7269 0 0 3622 0 0 64 0 0 14 0 0 4 0 0 13 0 0 14 0 0 9 0 0 5 0 0 8 0 0 12 0 0 
0 0 0 5 0 0 9 0 0 10 0 0 12 0 0 8 0 0 10 0 0 12 0 0 18 0 0 80 0 0 7198 0 0 14256 0 0 14447 0 0 14526 0 0 14423 0 0 14563 0 0 14447 0 0 14264 0 0 14446 0 0 14527 0 0 14565 0 0 14469 0 0 14519 0 0 14412 0 0 14454 0 0 14433 0 0 14365 0 0 14479 0 0 14487 0 0 14595 0 0 14624 0 0 14565 0 0 14499 0 0 14520 0 0 14517 0 0 14282 0 0 14384 0 0 14477 0 0 14645 0 0 14395 0 0 14423 0 0 14670 0 0 14576 0 0 14651 0 0 14673 0 0 14519 0 0 14417 0 0 14566 0 0 14526 0 0 14479 0 0 7228 0 0 89 0 0 13 0 0 14 0 0 20 0 0 13 0 0 9 0 0 6 0 0 10 0 0 12 0 0 
2 0 0 4 0 0 10 0 0 11 0 0 11 0 0 12 0 0 9 0 0 16 0 0 26 0 0 129 0 0 7362 0 0 14754 0 0 14517 0 0 14725 0 0 14499 0 0 14589 0 0 14448 0 0 14692 0 0 14534 0 0 14586 0 0 14629 0 0 14440 0 0 14487 0 0 14540 0 0 14508 0 0 14553 0 0 14620 0 0 14530 0 0 14448 0 0 14603 0 0 14702 0 0 14532 0 0 14632 0 0 14468 0 0 14716 0 0 14549 0 0 14571 0 0 14608 0 0 14607 0 0 14661 0 0 14598 0 0 14502 0 0 14599 0 0 14594 0 0 14529 0 0 14537 0 0 14704 0 0 14554 0 0 14657 0 0 14436 0 0 7334 0 0 92 0 0 26 0 0 18 0 0 15 0 0 14 0 0 11 0 0 5 0 0 11 0 0 12 0 0 
2 0 0 6 0 0 10 0 0 12 0 0 8 0 0 14 0 0 12 0 0 21 0 0 27 0 0 103 0 0 7283 0 0 14206 0 0 14574 0 0 14527 0 0 14577 0 0 14526 0 0 14825 0 0 14545 0 0 14616 0 0 14633 0 0 14571 0 0 14566 0 0 14801 0 0 14593 0 0 14557 0 0 14527 0 0 14517 0 0 14526 0 0 14511 0 0 14574 0 0 14549 0 0 14780 0 0 14747 0 0 14714 0 0 14449 0 0 14560 0 0 14612 0 0 14687 0 0 14488 0 0 14702 0 0 14640 0 0 14681 0 0 14628 0 0 14582 0 0 14457 0 0 14753 0 0 14762 0 0 14683 0 0 14593 0 0 14457 0 0 7279 0 0 108 0 0 20 0 0 22 0 0 10 0 0 7 0 0 9 0 0 11 0 0 10 0 0 10 0 0 
3 0 0 8 0 0 12 0 0 6 0 0 6 0 0 12 0 0 24 0 0 18 0 0 20 0 0 107 0 0 7231 0 0 14675 0 0 14680 0 0 14664 0 0 14509 0 0 14499 0 0 14489 0 0 14626 0 0 14586 0 0 14575 0 0 14701 0 0 14457 0 0 14667 0 0 14715 0 0 14520 0 0 14875 0 0 14742 0 0 14462 0 0 14672 0 0 14725 0 0 14573 0 0 14537 0 0 14482 0 0 14570 0 0 14628 0 0 14549 0 0 14517 0 0 14624 0 0 14572 0 0 14654 0 0 14532 0 0 14560 0 0 14531 0 0 14560 0 0 14590 0 0 14664 0 0 14667 0 0 14564 0 0 14568 0 0 14565 0 0 7263 0 0 110 0 0 23 0 0 21 0 0 10 0 0 11 0 0 7 0 0 8 0 0 6 0 0 8 0 0 
3 0 0 3 0 0 6 0 0 9 0 0 10 0 0 9 0 0 16 0 0 21 0 0 27 0 0 111 0 0 7311 0 0 14625 0 0 14488 0 0 14505 0 0 14727 0 0 14538 0 0 14551 0 0 14613 0 0 14337 0 0 14651 0 0 14689 0 0 14503 0 0 14502 0 0 14764 0 0 14669 0 0 14651 0 0 14632 0 0 14810 0 0 14544 0 0 14535 0 0 14563 0 0 14682 0 0 14648 0 0 14624 0 0 14484 0 0 14540 0 0 14478 0 0 14477 0 0 14592 0 0 14633 0 0 14631 0 0 14685 0 0 14778 0 0 14526 0 0 14607 0 0 14808 0 0 14643 0 0 14575 0 0 14685 0 0 14477 0 0 7524 0 0 113 0 0 23 0 0 16 0 0 10 0 0 19 0 0 15 0 0 11 0 0 13 0 0 12 0 0 
2 0 0 6 0 0 5 0 0 4 0 0 8 0 0 6 0 0 12 0 0 20 0 0 30 0 0 114 0 0 7115 0 0 14516 0 0 14731 0 0 14468 0 0 14603 0 0 14449 0 0 14630 0 0 14506 0 0 14566 0 0 14524 0 0 14611 0 0 14877 0 0 14650 0 0 14579 0 0 14562 0 0 14613 0 0 14631 0 0 14383 0 0 14588 0 0 14638 0 0 14753 0 0 14619 0 0 14474 0 0 14608 0 0 14614 0 0 14527 0 0 14328 0 0 14703 0 0 14565 0 0 14632 0 0 14439 0 0 14452 0 0 14496 0 0 14628 0 0 14480 0 0 14613 0 0 14516 0 0 14555 0 0 14647 0 0 14284 0 0 7454 0 0 102 0 0 37 0 0 18 0 0 18 0 0 19 0 0 11 0 0 5 0 0 9 0 0 13 0 0 
3 0 0 5 0 0 10 0 0 11 0 0 13 0 0 11 0 0 19 0 0 24 0 0 33 0 0 118 0 0 7364 0 0 14378 0 0 14578 0 0 14591 0 0 14529 0 0 14353 0 0 14630 0 0 14672 0 0 14568 0 0 14989 0 0 14784 0 0 14703 0 0 14466 0 0 14557 0 0 14589 0 0 14556 0 0 14619 0 0 14501 0 0 14614 0 0 14633 0 0 14644 0 0 14471 0 0 14626 0 0 14659 0 0 14661 0 0 14640 0 0 14642 0 0 14551 0 0 14633 0 0 14620 0 0 14529 0 0 14609 0 0 14560 0 0 14473 0 0 14672 0 0 14529 0 0 14566 0 0 14676 0 0 14454 0 0 14394 0 0 7310 0 0 99 0 0 23 0 0 19 0 0 19 0 0 8 0 0 6 0 0 8 0 0 3 0 0 6 0 0 
3 0 0 8 0 0 8 0 0 8 0 0 8 0 0 13 0 0 16 0 0 18 0 0 31 0 0 103 0 0 7305 0 0 14622 0 0 14729 0 0 14642 0 0 14554 0 0 14506 0 0 14589 0 0 14694 0 0 14553 0 0 14725 0 0 14575 0 0 14531 0 0 14700 0 0 14623 0 0 14736 0 0 14542 0 0 14465 0 0 14392 0 0 14500 0 0 14264 0 0 14523 0 0 14471 0 0 14564 0 0 14544 0 0 14568 0 0 14728 0 0 14488 0 0 14665 0 0 14839 0 0 14502 0 0 14507 0 0 14683 0 0 14741 0 0 14738 0 0 14667 0 0 14517 0 0 14609 0 0 14694 0 0 14336 0 0 14581 0 0 7383 0 0 117 0 0 24 0 0 23 0 0 17 0 0 12 0 0 10 0 0 8 0 0 10 0 0 5 0 0 
3 0 0 6 0 0 14 0 0 9 0 0 12 0 0 11 0 0 14 0 0 17 0 0 30 0 0 121 0 0 7175 0 0 14423 0 0 14833 0 0 14462 0 0 14726 0 0 14571 0 0 14282 0 0 14675 0 0 14627 0 0 14830 0 0 14628 0 0 14681 0 0 14507 0 0 14638 0 0 14463 0 0 14672 0 0 14671 0 0 14658 0 0 14678 0 0 14532 0 0 14587 0 0 14445 0 0 14544 0 0 14535 0 0 14447 0 0 14645 0 0 14490 0 0 14585 0 0 14595 0 0 14904 0 0 14669 0 0 14573 0 0 14664 0 0 14727 0 0 14689 0 0 14500 0 0 14560 0 0 14683 0 0 14633 0 0 14582 0 0 7287 0 0 114 0 0 23 0 0 23 0 0 17 0 0 15 0 0 14 0 0 12 0 0 8 0 0 7 0 0 
2 0 0 7 0 0 6 0 0 10 0 0 22 0 0 15 0 0 16 0 0 20 0 0 23 0 0 111 0 0 7199 0 0 14280 0 0 14560 0 0 14627 0 0 14637 0 0 14648 0 0 14642 0 0 14639 0 0 14645 0 0 14750 0 0 14526 0 0 14680 0 0 14512 0 0 14812 0 0 14568 0 0 14845 0 0 14527 0 0 14522 0 0 14663 0 0 14581 0 0 14441 0 0 14535 0 0 14548 0 0 14696 0 0 14363 0 0 14552 0 0 14412 0 0 14653 0 0 14770 0 0 14744 0 0 14679 0 0 14434 0 0 14527 0 0 14696 0 0 14722 0 0 14611 0 0 14623 0 0 14554 0 0 14558 0 0 14461 0 0 7331 0 0 109 0 0 29 0 0 16 0 0 12 0 0 16 0 0 15 0 0 10 0 0 8 0 0 9 0 0 
1 0 0 3 0 0 6 0 0 12 0 0 17 0 0 18 0 0 16 0 0 20 0 0 21 0 0 103 0 0 7404 0 0 14427 0 0 14594 0 0 14511 0 0 14425 0 0 14718 0 0 14526 0 0 14802 0 0 14560 0 0 14500 0 0 14500 0 0 14581 0 0 14567 0 0 14490 0 0 14740 0 0 14610 0 0 14327 0 0 14565 0 0 14688 0 0 14526 0 0 14535 0 0 14612 0 0 14681 0 0 14507 0 0 14730 0 0 14645 0 0 14697 0 0 14593 0 0 14531 0 0 14654 0 0 14680 0 0 14503 0 0 14490 0 0 14527 0 0 14837 0 0 14468 0 0 14606 0 0 14691 0 0 14458 0 0 14416 0 0 7247 0 0 127 0 0 24 0 0 18 0 0 19 0 0 12 0 0 9 0 0 13 0 0 12 0 0 8 0 0 
3 0 0 4 0 0 8 0 0 11 0 0 12 0 0 15 0 0 16 0 0 19 0 0 25 0 0 123 0 0 7199 0 0 14483 0 0 14728 0 0 14584 0 0 14642 0 0 14631 0 0 14567 0 0 14630 0 0 14480 0 0 14580 0 0 14455 0 0 14558 0 0 14579 0 0 14752 0 0 14645 0 0 14549 0 0 14702 0 0 14350 0 0 14609 0 0 14647 0 0 14809 0 0 14512 0 0 14490 0 0 14692 0 0 14700 0 0 14601 0 0 14551 0 0 14419 0 0 14631 0 0 14669 0 0 14686 0 0 14652 0 0 14584 0 0 14562 0 0 14657 0 0 14402 0 0 14776 0 0 14616 0 0 14587 0 0 14592 0 0 7210 0 0 115 0 0 31 0 0 16 0 0 12 0 0 7 0 0 12 0 0 10 0 0 7 0 0 6 0 0 
2 0 0 10 0 0 10 0 0 12 0 0 11 0 0 14 0 0 15 0 0 21 0 0 20 0 0 114 0 0 7356 0 0 14395 0 0 14587 0 0 14717 0 0 14385 0 0 14633 0 0 14772 0 0 14618 0 0 14544 0 0 14671 0 0 14453 0 0 14508 0 0 14295 0 0 14578 0 0 14544 0 0 14441 0 0 14676 0 0 14578 0 0 14592 0 0 14515 0 0 14798 0 0 14702 0 0 14586 0 0 14626 0 0 14492 0 0 14550 0 0 14790 0 0 14758 0 0 14553 0 0 14595 0 0 14606 0 0 14391 0 0 14522 0 0 14498 0 0 14543 0 0 14496 0 0 14690 0 0 14665 0 0 14793 0 0 14516 0 0 7333 0 0 116 0 0 24 0 0 15 0 0 18 0 0 13 0 0 7 0 0 10 0 0 7 0 0 5 0 0 
4 0 0 8 0 0 7 0 0 7 0 0 11 0 0 15 0 0 26 0 0 18 0 0 21 0 0 97 0 0 7358 0 0 14607 0 0 14699 0 0 14453 0 0 14433 0 0 14554 0 0 14714 0 0 14690 0 0 14666 0 0 14712 0 0 14658 0 0 14601 0 0 14433 0 0 14425 0 0 14661 0 0 14599 0 0 14609 0 0 14643 0 0 14556 0 0 14510 0 0 14492 0 0 14735 0 0 14632 0 0 14361 0 0 14688 0 0 14527 0 0 14692 0 0 14731 0 0 14719 0 0 14721 0 0 14597 0 0 14560 0 0 14527 0 0 14740 0 0 14674 0 0 14772 0 0 14575 0 0 14662 0 0 14383 0 0 14646 0 0 7204 0 0 107 0 0 22 0 0 27 0 0 19 0 0 11 0 0 4 0 0 7 0 0 4 0 0 11 0 0 
4 0 0 11 0 0 12 0 0 9 0 0 8 0 0 10 0 0 17 0 0 20 0 0 26 0 0 103 0 0 7284 0 0 14699 0 0 14602 0 0 14651 0 0 14497 0 0 14429 0 0 14666 0 0 14786 0 0 14481 0 0 14648 0 0 14583 0 0 14603 0 0 14627 0 0 14570 0 0 14663 0 0 14461 0 0 14637 0 0 14645 0 0 14663 0 0 14650 0 0 14678 0 0 14399 0 0 14607 0 0 14583 0 0 14571 0 0 14672 0 0 14531 0 0 14522 0 0 14777 0 0 14865 0 0 14567 0 0 14581 0 0 14600 0 0 14490 0 0 14583 0 0 14642 0 0 14549 0 0 14730 0 0 14647 0 0 14504 0 0 7241 0 0 106 0 0 27 0 0 21 0 0 17 0 0 13 0 0 4 0 0 1 0 0 9 0 0 9 0 0 
2 0 0 5 0 0 8 0 0 13 0 0 18 0 0 13 0 0 16 0 0 21 0 0 26 0 0 93 0 0 7335 0 0 14387 0 0 14381 0 0 14512 0 0 14625 0 0 14490 0 0 14705 0 0 14485 0 0 14632 0 0 14554 0 0 14626 0 0 14609 0 0 14512 0 0 14491 0 0 14571 0 0 14654 0 0 14842 0 0 14689 0 0 14597 0 0 14570 0 0 14489 0 0 14552 0 0 14518 0 0 14611 0 0 14531 0 0 14679 0 0 14507 0 0 14464 0 0 14533 0 0 14513 0 0 14669 0 0 14643 0 0 14535 0 0 14505 0 0 14424 0 0 14513 0 0 14450 0 0 14604 0 0 14535 0 0 14333 0 0 7292 0 0 105 0 0 27 0 0 16 0 0 20 0 0 11 0 0 4 0 0 6 0 0 4 0 0 10 0 0 
2 0 0 5 0 0 12 0 0 13 0 0 14 0 0 18 0 0 16 0 0 17 0 0 27 0 0 117 0 0 7187 0 0 14460 0 0 14359 0 0 14554 0 0 14364 0 0 14700 0 0 14681 0 0 14526 0 0 14741 0 0 14696 0 0 14684 0 0 14721 0 0 14685 0 0 14761 0 0 14699 0 0 14437 0 0 14583 0 0 14756 0 0 14596 0 0 14582 0 0 14699 0 0 14601 0 0 14543 0 0 14682 0 0 14688 0 0 14546 0 0 14701 0 0 14498 0 0 14618 0 0 14429 0 0 14587 0 0 14711 0 0 14710 0 0 14595 0 0 14843 0 0 14635 0 0 14579 0 0 14597 0 0 14536 0 0 14426 0 0 7271 0 0 104 0 0 25 0 0 22 0 0 16 0 0 14 0 0 15 0 0 14 0 0 7 0 0 5 0 0 
2 0 0 9 0 0 10 0 0 12 0 0 10 0 0 15 0 0 11 0 0 18 0 0 27 0 0 98 0 0 7193 0 0 14426 0 0 14437 0 0 14569 0 0 14319 0 0 14525 0 0 14568 0 0 14339 0 0 14564 0 0 14619 0 0 14634 0 0 14678 0 0 14595 0 0 14647 0 0 14650 0 0 14593 0 0 14715 0 0 14661 0 0 14603 0 0 14547 0 0 14397 0 0 14476 0 0 14513 0 0 14543 0 0 14685 0 0 14796 0 0 14555 0 0 14654 0 0 14562 0 0 14563 0 0 14668 0 0 14650 0 0 14580 0 0 14582 0 0 14652 0 0 14847 0 0 14711 0 0 14518 0 0 14582 0 0 14505 0 0 7386 0 0 107 0 0 21 0 0 16 0 0 13 0 0 11 0 0 17 0 0 8 0 0 7 0 0 10 0 0 
2 0 0 9 0 0 11 0 0 10 0 0 12 0 0 12 0 0 8 0 0 20 0 0 23 0 0 120 0 0 7221 0 0 14283 0 0 14653 0 0 14497 0 0 14518 0 0 14523 0 0 14520 0 0 14451 0 0 14563 0 0 14582 0 0 14808 0 0 14747 0 0 14585 0 0 14625 0 0 14391 0 0 14692 0 0 14537 0 0 14567 0 0 14597 0 0 14715 0 0 14401 0 0 14627 0 0 14481 0 0 14731 0 0 14686 0 0 14667 0 0 14935 0 0 14751 0 0 14598 0 0 14490 0 0 14518 0 0 14634 0 0 14715 0 0 14761 0 0 14737 0 0 14792 0 0 14703 0 0 14485 0 0 14577 0 0 14487 0 0 7290 0 0 99 0 0 17 0 0 21 0 0 20 0 0 18 0 0 16 0 0 13 0 0 12 0 0 11 0 0 
2 0 0 3 0 0 6 0 0 6 0 0 6 0 0 8 0 0 8 0 0 13 0 0 26 0 0 106 0 0 7129 0 0 14423 0 0 14542 0 0 14521 0 0 14667 0 0 14603 0 0 14867 0 0 14579 0 0 14741 0 0 14637 0 0 14787 0 0 14558 0 0 14779 0 0 14646 0 0 14698 0 0 14520 0 0 14651 0 0 14590 0 0 14680 0 0 14713 0 0 14835 0 0 14611 0 0 14691 0 0 14721 0 0 14556 0 0 14593 0 0 14611 0 0 14436 0 0 14568 0 0 14613 0 0 14530 0 0 14684 0 0 14684 0 0 14734 0 0 14512 0 0 14594 0 0 14548 0 0 14663 0 0 14612 0 0 14388 0 0 7254 0 0 105 0 0 23 0 0 21 0 0 17 0 0 19 0 0 15 0 0 9 0 0 12 0 0 8 0 0 
2 0 0 10 0 0 9 0 0 6 0 0 5 0 0 14 0 0 12 0 0 17 0 0 20 0 0 115 0 0 7232 0 0 14477 0 0 14450 0 0 14633 0 0 14621 0 0 14774 0 0 14670 0 0 14636 0 0 14675 0 0 14646 0 0 14557 0 0 14459 0 0 14488 0 0 14759 0 0 14609 0 0 14721 0 0 14655 0 0 14512 0 0 14447 0 0 14427 0 0 14295 0 0 14615 0 0 14760 0 0 14652 0 0 14452 0 0 14632 0 0 14661 0 0 14570 0 0 14741 0 0 14506 0 0 14609 0 0 14606 0 0 14521 0 0 14518 0 0 14641 0 0 14814 0 0 14633 0 0 14542 0 0 14538 0 0 14478 0 0 7274 0 0 87 0 0 27 0 0 26 0 0 27 0 0 25 0 0 12 0 0 13 0 0 8 0 0 8 0 0 
3 0 0 9 0 0 11 0 0 7 0 0 4 0 0 12 0 0 12 0 0 16 0 0 22 0 0 102 0 0 7309 0 0 14447 0 0 14641 0 0 14793 0 0 14705 0 0 14590 0 0 14620 0 0 14655 0 0 14383 0 0 14620 0 0 14609 0 0 14510 0 0 14596 0 0 14614 0 0 14671 0 0 14625 0 0 14516 0 0 14566 0 0 14701 0 0 14430 0 0 14516 0 0 14581 0 0 14614 0 0 14799 0 0 14890 0 0 14729 0 0 14653 0 0 14631 0 0 14448 0 0 14787 0 0 14583 0 0 14524 0 0 14622 0 0 14600 0 0 14668 0 0 14687 0 0 14693 0 0 14594 0 0 14416 0 0 14201 0 0 7226 0 0 121 0 0 36 0 0 19 0 0 15 0 0 11 0 0 13 0 0 12 0 0 12 0 0 6 0 0 
2 0 0 8 0 0 12 0 0 13 0 0 16 0 0 14 0 0 14 0 0 24 0 0 27 0 0 108 0 0 7242 0 0 14406 0 0 14506 0 0 14536 0 0 14506 0 0 14543 0 0 14599 0 0 14495 0 0 14641 0 0 14527 0 0 14528 0 0 14580 0 0 14604 0 0 14688 0 0 14514 0 0 14482 0 0 14750 0 0 14550 0 0 14434 0 0 14718 0 0 14704 0 0 14747 0 0 14552 0 0 14518 0 0 14472 0 0 14558 0 0 14776 0 0 14556 0 0 14601 0 0 14746 0 0 14596 0 0 14431 0 0 14448 0 0 14581 0 0 14723 0 0 14617 0 0 14533 0 0 14605 0 0 14665 0 0 14610 0 0 7304 0 0 100 0 0 24 0 0 27 0 0 22 0 0 12 0 0 10 0 0 10 0 0 8 0 0 7 0 0 
4 0 0 9 0 0 12 0 0 17 0 0 17 0 0 16 0 0 20 0 0 17 0 0 26 0 0 107 0 0 7243 0 0 14494 0 0 14618 0 0 14770 0 0 14580 0 0 14663 0 0 14733 0 0 14513 0 0 14648 0 0 14554 0 0 14810 0 0 14801 0 0 14707 0 0 14713 0 0 14430 0 0 14681 0 0 14454 0 0 14476 0 0 14574 0 0 14645 0 0 14651 0 0 14861 0 0 14487 0 0 14619 0 0 14695 0 0 14841 0 0 14655 0 0 14634 0 0 14634 0 0 14621 0 0 14616 0 0 14543 0 0 14451 0 0 14707 0 0 14504 0 0 14730 0 0 14790 0 0 14694 0 0 14349 0 0 14580 0 0 7298 0 0 118 0 0 19 0 0 11 0 0 18 0 0 19 0 0 12 0 0 10 0 0 8 0 0 10 0 0 
2 0 0 11 0 0 8 0 0 11 0 0 10 0 0 11 0 0 12 0 0 24 0 0 33 0 0 116 0 0 7355 0 0 14409 0 0 14553 0 0 14605 0 0 14569 0 0 14694 0 0 14721 0 0 14756 0 0 14400 0 0 14698 0 0 14669 0 0 14707 0 0 14689 0 0 14467 0 0 14538 0 0 14534 0 0 14767 0 0 14516 0 0 14563 0 0 14554 0 0 14658 0 0 14531 0 0 14460 0 0 14358 0 0 14523 0 0 14481 0 0 14516 0 0 14730 0 0 14653 0 0 14645 0 0 14592 0 0 14710 0 0 14439 0 0 14733 0 0 14573 0 0 14598 0 0 14734 0 0 14614 0 0 14414 0 0 14551 0 0 7355 0 0 119 0 0 27 0 0 22 0 0 20 0 0 15 0 0 12 0 0 10 0 0 11 0 0 11 0 0 
2 0 0 6 0 0 10 0 0 13 0 0 17 0 0 14 0 0 15 0 0 18 0 0 23 0 0 111 0 0 7269 0 0 14481 0 0 14419 0 0 14658 0 0 14621 0 0 14567 0 0 14635 0 0 14502 0 0 14644 0 0 14640 0 0 14465 0 0 14540 0 0 14473 0 0 14560 0 0 14547 0 0 14697 0 0 14522 0 0 14495 0 0 14474 0 0 14552 0 0 14508 0 0 14578 0 0 14701 0 0 14516 0 0 14492 0 0 14610 0 0 14593 0 0 14553 0 0 14759 0 0 14608 0 0 14601 0 0 14514 0 0 14608 0 0 14489 0 0 14445 0 0 14670 0 0 14713 0 0 14729 0 0 14635 0 0 14462 0 0 7207 0 0 115 0 0 31 0 0 25 0 0 15 0 0 19 0 0 18 0 0 16 0 0 12 0 0 5 0 0 
6 0 0 10 0 0 16 0 0 14 0 0 8 0 0 12 0 0 18 0 0 24 0 0 32 0 0 113 0 0 7288 0 0 14449 0 0 14476 0 0 14574 0 0 14368 0 0 14659 0 0 14534 0 0 14486 0 0 14677 0 0 14755 0 0 14432 0 0 14763 0 0 14675 0 0 14497 0 0 14568 0 0 14477 0 0 14420 0 0 14579 0 0 14364 0 0 14597 0 0 14531 0 0 14649 0 0 14553 0 0 14503 0 0 14533 0 0 14573 0 0 14687 0 0 14629 0 0 14524 0 0 14504 0 0 14520 0 0 14689 0 0 14705 0 0 14657 0 0 14548 0 0 14623 0 0 14617 0 0 14351 0 0 14679 0 0 14413 0 0 7258 0 0 118 0 0 35 0 0 24 0 0 18 0 0 13 0 0 17 0 0 13 0 0 19 0 0 9 0 0 
3 0 0 7 0 0 7 0 0 8 0 0 12 0 0 10 0 0 12 0 0 19 0 0 33 0 0 103 0 0 7306 0 0 14500 0 0 14458 0 0 14652 0 0 14602 0 0 14604 0 0 14724 0 0 14463 0 0 14526 0 0 14624 0 0 14730 0 0 14459 0 0 14409 0 0 14600 0 0 14632 0 0 14674 0 0 14825 0 0 14528 0 0 14503 0 0 14535 0 0 14803 0 0 14507 0 0 14512 0 0 14523 0 0 14560 0 0 14743 0 0 14499 0 0 14627 0 0 14627 0 0 14658 0 0 14434 0 0 14462 0 0 14513 0 0 14573 0 0 14520 0 0 14758 0 0 14706 0 0 14708 0 0 14523 0 0 14621 0 0 7281 0 0 115 0 0 35 0 0 25 0 0 18 0 0 18 0 0 17 0 0 14 0 0 11 0 0 12 0 0 
4 0 0 11 0 0 14 0 0 19 0 0 17 0 0 12 0 0 16 0 0 26 0 0 27 0 0 123 0 0 7372 0 0 14406 0 0 14438 0 0 14677 0 0 14524 0 0 14703 0 0 14599 0 0 14616 0 0 14527 0 0 14541 0 0 14535 0 0 14580 0 0 14448 0 0 14598 0 0 14510 0 0 14333 0 0 14610 0 0 14578 0 0 14481 0 0 14513 0 0 14428 0 0 14467 0 0 14554 0 0 14563 0 0 14658 0 0 14585 0 0 14603 0 0 14383 0 0 14549 0 0 14468 0 0 14440 0 0 14507 0 0 14446 0 0 14613 0 0 14706 0 0 14486 0 0 14670 0 0 14659 0 0 14648 0 0 14711 0 0 7279 0 0 96 0 0 25 0 0 22 0 0 13 0 0 18 0 0 15 0 0 18 0 0 13 0 0 9 0 0 
4 0 0 10 0 0 11 0 0 7 0 0 8 0 0 7 0 0 15 0 0 26 0 0 32 0 0 119 0 0 7252 0 0 14360 0 0 14568 0 0 14726 0 0 14545 0 0 14696 0 0 14533 0 0 14706 0 0 14504 0 0 14779 0 0 14485 0 0 14403 0 0 14612 0 0 14724 0 0 14846 0 0 14800 0 0 14602 0 0 14756 0 0 14599 0 0 14647 0 0 14577 0 0 14651 0 0 14633 0 0 14443 0 0 14602 0 0 14694 0 0 14617 0 0 14819 0 0 14515 0 0 14448 0 0 14596 0 0 14646 0 0 14548 0 0 14522 0 0 14462 0 0 14576 0 0 14606 0 0 14749 0 0 14480 0 0 14738 0 0 7270 0 0 100 0 0 23 0 0 16 0 0 15 0 0 15 0 0 22 0 0 13 0 0 11 0 0 10 0 0 
5 0 0 10 0 0 12 0 0 11 0 0 18 0 0 21 0 0 23 0 0 24 0 0 25 0 0 100 0 0 7420 0 0 14389 0 0 14492 0 0 14602 0 0 14581 0 0 14730 0 0 14824 0 0 14542 0 0 14581 0 0 14574 0 0 14781 0 0 14648 0 0 14642 0 0 14514 0 0 14610 0 0 14628 0 0 14480 0 0 14522 0 0 14659 0 0 14545 0 0 14498 0 0 14637 0 0 14397 0 0 14558 0 0 14570 0 0 14503 0 0 14698 0 0 14551 0 0 14412 0 0 14501 0 0 14647 0 0 14539 0 0 14752 0 0 14485 0 0 14578 0 0 14738 0 0 14353 0 0 14541 0 0 14567 0 0 14569 0 0 7369 0 0 95 0 0 27 0 0 13 0 0 11 0 0 12 0 0 12 0 0 16 0 0 11 0 0 9 0 0 
3 0 0 13 0 0 12 0 0 13 0 0 12 0 0 19 0 0 21 0 0 20 0 0 30 0 0 101 0 0 7336 0 0 14494 0 0 14375 0 0 14797 0 0 14566 0 0 14590 0 0 14628 0 0 14478 0 0 14649 0 0 14569 0 0 14636 0 0 14615 0 0 14711 0 0 14506 0 0 14603 0 0 14708 0 0 14607 0 0 14813 0 0 14478 0 0 14518 0 0 14605 0 0 14570 0 0 14648 0 0 14381 0 0 14562 0 0 14469 0 0 14726 0 0 14667 0 0 14603 0 0 14788 0 0 14612 0 0 14536 0 0 14641 0 0 14707 0 0 14617 0 0 14642 0 0 14691 0 0 14459 0 0 14722 0 0 14557 0 0 7259 0 0 110 0 0 16 0 0 17 0 0 13 0 0 16 0 0 12 0 0 15 0 0 8 0 0 11 0 0 
3 0 0 7 0 0 7 0 0 10 0 0 7 0 0 12 0 0 17 0 0 21 0 0 27 0 0 97 0 0 7295 0 0 14537 0 0 14507 0 0 14588 0 0 14656 0 0 14591 0 0 14671 0 0 14674 0 0 14486 0 0 14757 0 0 14458 0 0 14564 0 0 14728 0 0 14386 0 0 14540 0 0 14543 0 0 14524 0 0 14645 0 0 14608 0 0 14667 0 0 14536 0 0 14663 0 0 14777 0 0 14528 0 0 14507 0 0 14473 0 0 14698 0 0 14613 0 0 14618 0 0 14895 0 0 14630 0 0 14587 0 0 14796 0 0 14474 0 0 14536 0 0 14663 0 0 14483 0 0 14584 0 0 14530 0 0 14452 0 0 7316 0 0 114 0 0 27 0 0 21 0 0 19 0 0 14 0 0 13 0 0 7 0 0 11 0 0 6 0 0 
1 0 0 3 0 0 7 0 0 14 0 0 14 0 0 10 0 0 14 0 0 12 0 0 18 0 0 105 0 0 7328 0 0 14551 0 0 14375 0 0 14396 0 0 14604 0 0 14622 0 0 14651 0 0 14543 0 0 14600 0 0 14617 0 0 14739 0 0 14751 0 0 14606 0 0 14739 0 0 14530 0 0 14568 0 0 14582 0 0 14522 0 0 14650 0 0 14622 0 0 14534 0 0 14602 0 0 14528 0 0 14488 0 0 14517 0 0 14571 0 0 14722 0 0 14768 0 0 14582 0 0 14428 0 0 14430 0 0 14561 0 0 14767 0 0 14692 0 0 14705 0 0 14646 0 0 14587 0 0 14628 0 0 14570 0 0 14515 0 0 7256 0 0 121 0 0 27 0 0 23 0 0 10 0 0 16 0 0 17 0 0 12 0 0 6 0 0 5 0 0 
4 0 0 10 0 0 10 0 0 15 0 0 12 0 0 9 0 0 11 0 0 17 0 0 19 0 0 110 0 0 7264 0 0 14579 0 0 14571 0 0 14711 0 0 14417 0 0 14714 0 0 14652 0 0 14517 0 0 14530 0 0 14599 0 0 14590 0 0 14590 0 0 14621 0 0 14392 0 0 14591 0 0 14598 0 0 14849 0 0 14500 0 0 14602 0 0 14743 0 0 14631 0 0 14742 0 0 14671 0 0 14608 0 0 14580 0 0 14514 0 0 14571 0 0 14473 0 0 14564 0 0 14614 0 0 14440 0 0 14535 0 0 14538 0 0 14567 0 0 14563 0 0 14612 0 0 14485 0 0 14721 0 0 14723 0 0 14664 0 0 7210 0 0 91 0 0 25 0 0 16 0 0 11 0 0 11 0 0 10 0 0 8 0 0 10 0 0 10 0 0 
0 0 0 7 0 0 8 0 0 9 0 0 15 0 0 13 0 0 15 0 0 24 0 0 23 0 0 104 0 0 7252 0 0 14545 0 0 14484 0 0 14547 0 0 14485 0 0 14604 0 0 14521 0 0 14572 0 0 14706 0 0 14547 0 0 14621 0 0 14456 0 0 14615 0 0 14671 0 0 14669 0 0 14637 0 0 14602 0 0 14445 0 0 14713 0 0 14661 0 0 14748 0 0 14509 0 0 14664 0 0 14542 0 0 14428 0 0 14559 0 0 14520 0 0 14683 0 0 14526 0 0 14423 0 0 14739 0 0 14572 0 0 14392 0 0 14539 0 0 14456 0 0 14623 0 0 14458 0 0 14706 0 0 14543 0 0 14388 0 0 7203 0 0 93 0 0 15 0 0 10 0 0 13 0 0 13 0 0 19 0 0 9 0 0 10 0 0 5 0 0 
2 0 0 9 0 0 8 0 0 6 0 0 8 0 0 14 0 0 10 0 0 16 0 0 28 0 0 121 0 0 7331 0 0 14466 0 0 14368 0 0 14484 0 0 14610 0 0 14627 0 0 14631 0 0 14651 0 0 14466 0 0 14503 0 0 14475 0 0 14533 0 0 14469 0 0 14566 0 0 14634 0 0 14319 0 0 14638 0 0 14559 0 0 14455 0 0 14860 0 0 14803 0 0 14571 0 0 14440 0 0 14520 0 0 14567 0 0 14542 0 0 14505 0 0 14620 0 0 14506 0 0 14466 0 0 14534 0 0 14645 0 0 14448 0 0 14549 0 0 14408 0 0 14429 0 0 14468 0 0 14732 0 0 14488 0 0 14491 0 0 7229 0 0 110 0 0 30 0 0 16 0 0 14 0 0 12 0 0 9 0 0 7 0 0 2 0 0 6 0 0 
3 0 0 4 0 0 4 0 0 9 0 0 11 0 0 9 0 0 11 0 0 15 0 0 22 0 0 102 0 0 7376 0 0 14613 0 0 14639 0 0 14653 0 0 14735 0 0 14658 0 0 14563 0 0 14561 0 0 14678 0 0 14492 0 0 14620 0 0 14492 0 0 14490 0 0 14535 0 0 14523 0 0 14504 0 0 14643 0 0 14734 0 0 14675 0 0 14346 0 0 14442 0 0 14459 0 0 14492 0 0 14541 0 0 14586 0 0 14672 0 0 14632 0 0 14565 0 0 14739 0 0 14587 0 0 14617 0 0 14534 0 0 14523 0 0 14386 0 0 14542 0 0 14573 0 0 14479 0 0 14827 0 0 14556 0 0 14500 0 0 7290 0 0 96 0 0 17 0 0 12 0 0 12 0 0 10 0 0 13 0 0 7 0 0 7 0 0 10 0 0 
0 0 0 3 0 0 9 0 0 8 0 0 12 0 0 10 0 0 8 0 0 14 0 0 19 0 0 96 0 0 7327 0 0 14515 0 0 14390 0 0 14574 0 0 14481 0 0 14505 0 0 14648 0 0 14349 0 0 14494 0 0 14540 0 0 14330 0 0 14467 0 0 14475 0 0 14456 0 0 14616 0 0 14543 0 0 14361 0 0 14363 0 0 14478 0 0 14508 0 0 14676 0 0 14379 0 0 14530 0 0 14455 0 0 14365 0 0 14451 0 0 14201 0 0 14453 0 0 14527 0 0 14546 0 0 14419 0 0 14500 0 0 14364 0 0 14626 0 0 14610 0 0 14519 0 0 14515 0 0 14568 0 0 14415 0 0 14385 0 0 7145 0 0 100 0 0 13 0 0 12 0 0 8 0 0 5 0 0 10 0 0 7 0 0 7 0 0 12 0 0 
2 0 0 8 0 0 6 0 0 7 0 0 6 0 0 14 0 0 12 0 0 9 0 0 17 0 0 62 0 0 3702 0 0 7292 0 0 7187 0 0 7331 0 0 7235 0 0 7203 0 0 7202 0 0 7355 0 0 7308 0 0 7320 0 0 7330 0 0 7205 0 0 7386 0 0 7170 0 0 7318 0 0 7245 0 0 7326 0 0 7282 0 0 7234 0 0 7290 0 0 7306 0 0 7256 0 0 7275 0 0 7297 0 0 7359 0 0 7231 0 0 7261 0 0 7284 0 0 7362 0 0 7168 0 0 7469 0 0 7291 0 0 7162 0 0 7360 0 0 7381 0 0 7305 0 0 7368 0 0 7370 0 0 7257 0 0 7102 0 0 3538 0 0 47 0 0 12 0 0 14 0 0 12 0 0 13 0 0 8 0 0 8 0 0 4 0 0 3 0 0 
2 0 0 2 0 0 6 0 0 9 0 0 10 0 0 5 0 0 3 0 0 6 0 0 20 0 0 23 0 0 55 0 0 102 0 0 107 0 0 97 0 0 100 0 0 101 0 0 107 0 0 94 0 0 102 0 0 126 0 0 124 0 0 120 0 0 124 0 0 109 0 0 115 0 0 118 0 0 105 0 0 119 0 0 145 0 0 106 0 0 109 0 0 111 0 0 117 0 0 98 0 0 107 0 0 106 0 0 125 0 0 111 0 0 118 0 0 111 0 0 101 0 0 109 0 0 110 0 0 109 0 0 111 0 0 101 0 0 117 0 0 102 0 0 102 0 0 97 0 0 51 0 0 11 0 0 9 0 0 11 0 0 11 0 0 11 0 0 12 0 0 11 0 0 6 0 0 4 0 0 
1 0 0 8 0 0 5 0 0 7 0 0 4 0 0 4 0 0 11 0 0 13 0 0 11 0 0 8 0 0 22 0 0 18 0 0 17 0 0 24 0 0 19 0 0 28 0 0 24 0 0 18 0 0 26 0 0 20 0 0 28 0 0 31 0 0 27 0 0 34 0 0 26 0 0 29 0 0 41 0 0 41 0 0 40 0 0 27 0 0 19 0 0 23 0 0 25 0 0 28 0 0 23 0 0 35 0 0 31 0 0 29 0 0 25 0 0 25 0 0 24 0 0 26 0 0 24 0 0 16 0 0 22 0 0 24 0 0 23 0 0 17 0 0 21 0 0 21 0 0 18 0 0 14 0 0 13 0 0 12 0 0 4 0 0 7 0 0 6 0 0 6 0 0 3 0 0 3 0 0 
2 0 0 5 0 0 5 0 0 7 0 0 5 0 0 7 0 0 12 0 0 9 0 0 12 0 0 9 0 0 16 0 0 14 0 0 11 0 0 18 0 0 14 0 0 16 0 0 15 0 0 16 0 0 14 0 0 26 0 0 26 0 0 19 0 0 23 0 0 14 0 0 19 0 0 22 0 0 29 0 0 27 0 0 21 0 0 18 0 0 24 0 0 25 0 0 30 0 0 33 0 0 24 0 0 11 0 0 16 0 0 29 0 0 17 0 0 14 0 0 19 0 0 23 0 0 17 0 0 13 0 0 21 0 0 13 0 0 13 0 0 12 0 0 16 0 0 16 0 0 15 0 0 12 0 0 12 0 0 14 0 0 12 0 0 7 0 0 8 0 0 7 0 0 8 0 0 2 0 0 
0 0 0 4 0 0 8 0 0 7 0 0 10 0 0 12 0 0 5 0 0 12 0 0 12 0 0 12 0 0 7 0 0 14 0 0 12 0 0 15 0 0 12 0 0 12 0 0 12 0 0 16 0 0 14 0 0 18 0 0 18 0 0 13 0 0 19 0 0 10 0 0 13 0 0 20 0 0 22 0 0 17 0 0 11 0 0 18 0 0 17 0 0 16 0 0 24 0 0 25 0 0 18 0 0 10 0 0 18 0 0 17 0 0 18 0 0 8 0 0 16 0 0 16 0 0 12 0 0 13 0 0 14 0 0 14 0 0 12 0 0 19 0 0 14 0 0 13 0 0 16 0 0 11 0 0 12 0 0 5 0 0 8 0 0 4 0 0 4 0 0 9 0 0 7 0 0 6 0 0 
3 0 0 3 0 0 2 0 0 8 0 0 10 0 0 6 0 0 9 0 0 4 0 0 5 0 0 8 0 0 11 0 0 15 0 0 9 0 0 10 0 0 11 0 0 16 0 0 9 0 0 13 0 0 15 0 0 16 0 0 7 0 0 16 0 0 8 0 0 13 0 0 14 0 0 15 0 0 15 0 0 18 0 0 16 0 0 20 0 0 18 0 0 19 0 0 18 0 0 27 0 0 11 0 0 18 0 0 7 0 0 13 0 0 10 0 0 4 0 0 13 0 0 15 0 0 17 0 0 14 0 0 13 0 0 15 0 0 9 0 0 14 0 0 6 0 0 10 0 0 17 0 0 13 0 0 6 0 0 9 0 0 9 0 0 5 0 0 5 0 0 4 0 0 5 0 0 10 0 0 
2 0 0 3 0 0 5 0 0 5 0 0 3 0 0 7 0 0 7 0 0 0 0 0 14 0 0 9 0 0 11 0 0 12 0 0 3 0 0 12 0 0 9 0 0 12 0 0 6 0 0 12 0 0 10 0 0 13 0 0 12 0 0 8 0 0 15 0 0 12 0 0 14 0 0 17 0 0 14 0 0 16 0 0 18 0 0 20 0 0 13 0 0 14 0 0 14 0 0 18 0 0 14 0 0 17 0 0 9 0 0 11 0 0 14 0 0 6 0 0 12 0 0 12 0 0 13 0 0 17 0 0 18 0 0 13 0 0 13 0 0 8 0 0 8 0 0 7 0 0 10 0 0 11 0 0 7 0 0 12 0 0 8 0 0 7 0 0 2 0 0 7 0 0 5 0 0 5 0 0 
1 0 0 4 0 0 6 0 0 4 0 0 7 0 0 9 0 0 4 0 0 9 0 0 9 0 0 8 0 0 9 0 0 7 0 0 7 0 0 10 0 0 4 0 0 10 0 0 10 0 0 8 0 0 12 0 0 11 0 0 12 0 0 11 0 0 7 0 0 12 0 0 11 0 0 12 0 0 12 0 0 13 0 0 12 0 0 15 0 0 13 0 0 12 0 0 15 0 0 16 0 0 12 0 0 12 0 0 13 0 0 8 0 0 12 0 0 7 0 0 9 0 0 8 0 0 13 0 0 12 0 0 17 0 0 12 0 0 7 0 0 5 0 0 10 0 0 4 0 0 8 0 0 12 0 0 11 0 0 4 0 0 8 0 0 7 0 0 6 0 0 3 0 0 6 0 0 8 0 0 
0 0 0 4 0 0 5 0 0 4 0 0 5 0 0 5 0 0 6 0 0 9 0 0 8 0 0 5 0 0 10 0 0 5 0 0 7 0 0 8 0 0 6 0 0 15 0 0 6 0 0 11 0 0 11 0 0 15 0 0 11 0 0 10 0 0 10 0 0 11 0 0 12 0 0 10 0 0 13 0 0 10 0 0 12 0 0 10 0 0 8 0 0 9 0 0 24 0 0 9 0 0 11 0 0 9 0 0 16 0 0 11 0 0 8 0 0 10 0 0 5 0 0 10 0 0 7 0 0 8 0 0 11 0 0 6 0 0 12 0 0 4 0 0 9 0 0 7 0 0 8 0 0 3 0 0 8 0 0 10 0 0 7 0 0 9 0 0 5 0 0 2 0 0 6 0 0 8 0 0 
1 0 0 5 0 0 5 0 0 4 0 0 8 0 0 3 0 0 3 0 0 8 0 0 10 0 0 8 0 0 8 0 0 3 0 0 6 0 0 7 0 0 7 0 0 11 0 0 3 0 0 8 0 0 5 0 0 12 0 0 13 0 0 9 0 0 6 0 0 5 0 0 14 0 0 6 0 0 8 0 0 8 0 0 11 0 0 11 0 0 10 0 0 8 0 0 12 0 0 12 0 0 13 0 0 9 0 0 8 0 0 9 0 0 6 0 0 11 0 0 5 0 0 6 0 0 6 0 0 12 0 0 6 0 0 7 0 0 7 0 0 11 0 0 8 0 0 9 0 0 5 0 0 9 0 0 5 0 0 4 0 0 9 0 0 6 0 0 3 0 0 5 0 0 4 0 0 6 0 0 
