P3
# This is a dose file slice at depth 22 of 100
60 60
# now we give the maximum value of the RGB coordinates.
34204
0 0 0 0 0 0 0 0 0 0 0 0 0 0 0 0 0 0 0 0 0 0 0 0 0 0 0 0 0 0 0 0 0 0 0 0 0 0 0 0 0 0 0 0 0 0 0 0 0 0 0 0 0 0 0 0 0 0 0 0 0 0 0 0 0 0 0 0 0 0 0 0 0 0 0 0 0 0 0 0 0 0 0 0 0 0 0 0 0 0 0 0 0 0 0 0 0 0 0 0 0 0 0 0 0 0 0 0 0 0 0 0 0 0 0 0 0 0 0 0 0 0 0 0 0 0 0 0 0 0 0 0 0 0 0 0 0 0 0 0 0 0 0 0 0 0 0 0 0 0 0 0 0 0 0 0 0 0 0 0 0 0 0 0 0 0 0 0 0 0 0 0 0 0 0 0 0 0 0 0 
0 0 0 0 0 0 0 0 0 0 0 0 0 0 0 0 0 0 0 0 0 0 0 0 0 0 0 0 0 0 0 0 0 0 0 0 0 0 0 0 0 0 0 0 0 0 0 0 0 0 0 0 0 0 0 0 0 0 0 0 0 0 0 0 0 0 0 0 0 0 0 0 0 0 0 0 0 0 0 0 0 0 0 0 0 0 0 0 0 0 0 0 0 0 0 0 0 0 0 0 0 0 0 0 0 0 0 0 0 0 0 0 0 0 0 0 0 0 0 0 0 0 0 0 0 0 0 0 0 0 0 0 0 0 0 0 0 0 0 0 0 0 0 0 0 0 0 0 0 0 0 0 0 0 0 0 0 0 0 0 0 0 0 0 0 0 0 0 0 0 0 0 0 0 0 0 0 0 0 0 
0 0 0 0 0 0 0 0 0 0 0 0 0 0 0 0 0 0 0 0 0 0 0 0 0 0 0 0 0 0 0 0 0 0 0 0 0 0 0 0 0 0 0 0 0 0 0 0 0 0 0 0 0 0 0 0 0 0 0 0 0 0 0 0 0 0 0 0 0 0 0 0 0 0 0 0 0 0 0 0 0 0 0 0 0 0 0 0 0 0 0 0 0 0 0 0 0 0 0 0 0 0 0 0 0 0 0 0 0 0 0 0 0 0 0 0 0 0 0 0 0 0 0 0 0 0 0 0 0 0 0 0 0 0 0 0 0 0 0 0 0 0 0 0 0 0 0 0 0 0 0 0 0 0 0 0 0 0 0 0 0 0 0 0 0 0 0 0 0 0 0 0 0 0 0 0 0 0 0 0 
0 0 0 0 0 0 0 0 0 0 0 0 0 0 0 0 0 0 0 0 0 0 0 0 0 0 0 0 0 0 0 0 0 0 0 0 0 0 0 0 0 0 0 0 0 0 0 0 0 0 0 0 0 0 0 0 0 0 0 0 0 0 0 0 0 0 0 0 0 0 0 0 0 0 0 0 0 0 0 0 0 0 0 0 0 0 0 0 0 0 0 0 0 0 0 0 0 0 0 0 0 0 0 0 0 0 0 0 0 0 0 0 0 0 0 0 0 0 0 0 0 0 0 0 0 0 0 0 0 0 0 0 0 0 0 0 0 0 0 0 0 0 0 0 0 0 0 0 0 0 0 0 0 0 0 0 0 0 0 0 0 0 0 0 0 0 0 0 0 0 0 0 0 0 0 0 0 0 0 0 
0 0 0 0 0 0 0 0 0 0 0 0 0 0 0 0 0 0 0 0 0 0 0 0 0 0 0 0 0 0 0 0 0 0 0 0 0 0 0 0 0 0 0 0 0 0 0 0 0 0 0 0 0 0 0 0 0 0 0 0 0 0 0 0 0 0 0 0 0 0 0 0 0 0 0 0 0 0 0 0 0 0 0 0 0 0 0 0 0 0 0 0 0 0 0 0 0 0 0 0 0 0 0 0 0 0 0 0 0 0 0 0 0 0 0 0 0 0 0 0 0 0 0 0 0 0 0 0 0 0 0 0 0 0 0 0 0 0 0 0 0 0 0 0 0 0 0 0 0 0 0 0 0 0 0 0 0 0 0 0 0 0 0 0 0 0 0 0 0 0 0 0 0 0 0 0 0 0 0 0 
0 0 0 0 0 0 0 0 0 0 0 0 0 0 0 0 0 0 0 0 0 0 0 0 0 0 0 0 0 0 0 0 0 0 0 0 0 0 0 0 0 0 0 0 0 0 0 0 0 0 0 0 0 0 0 0 0 0 0 0 0 0 0 0 0 0 0 0 0 0 0 0 0 0 0 0 0 0 0 0 0 0 0 0 0 0 0 0 0 0 0 0 0 0 0 0 0 0 0 0 0 0 0 0 0 0 0 0 0 0 0 0 0 0 0 0 0 0 0 0 0 0 0 0 0 0 0 0 0 0 0 0 0 0 0 0 0 0 0 0 0 0 0 0 0 0 0 0 0 0 0 0 0 0 0 0 0 0 0 0 0 0 0 0 0 0 0 0 0 0 0 0 0 0 0 0 0 0 0 0 
0 0 0 0 0 0 0 0 0 0 0 0 0 0 0 0 0 0 0 0 0 0 0 0 0 0 0 0 0 0 0 0 0 0 0 0 0 0 0 0 0 0 0 0 0 0 0 0 0 0 0 0 0 0 0 0 0 0 0 0 0 0 0 0 0 0 0 0 0 0 0 0 0 0 0 0 0 0 0 0 0 0 0 0 0 0 0 0 0 0 0 0 0 0 0 0 0 0 0 0 0 0 0 0 0 0 0 0 0 0 0 0 0 0 0 0 0 0 0 0 0 0 0 0 0 0 0 0 0 0 0 0 0 0 0 0 0 0 0 0 0 0 0 0 0 0 0 0 0 0 0 0 0 0 0 0 0 0 0 0 0 0 0 0 0 0 0 0 0 0 0 0 0 0 0 0 0 0 0 0 
0 0 0 0 0 0 0 0 0 0 0 0 0 0 0 0 0 0 0 0 0 0 0 0 0 0 0 0 0 0 0 0 0 0 0 0 0 0 0 0 0 0 0 0 0 0 0 0 0 0 0 0 0 0 0 0 0 0 0 0 0 0 0 0 0 0 0 0 0 0 0 0 0 0 0 0 0 0 0 0 0 0 0 0 0 0 0 0 0 0 0 0 0 0 0 0 0 0 0 0 0 0 0 0 0 0 0 0 0 0 0 0 0 0 0 0 0 0 0 0 0 0 0 0 0 0 0 0 0 0 0 0 0 0 0 0 0 0 0 0 0 0 0 0 0 0 0 0 0 0 0 0 0 0 0 0 0 0 0 0 0 0 0 0 0 0 0 0 0 0 0 0 0 0 0 0 0 0 0 0 
0 0 0 0 0 0 0 0 0 0 0 0 0 0 0 0 0 0 0 0 0 0 0 0 0 0 0 0 0 0 0 0 0 0 0 0 0 0 0 0 0 0 0 0 0 0 0 0 0 0 0 0 0 0 0 0 0 0 0 0 0 0 0 0 0 0 0 0 0 0 0 0 0 0 0 0 0 0 0 0 0 0 0 0 0 0 0 0 0 0 0 0 0 0 0 0 0 0 0 0 0 0 0 0 0 0 0 0 0 0 0 0 0 0 0 0 0 0 0 0 0 0 0 0 0 0 0 0 0 0 0 0 0 0 0 0 0 0 0 0 0 0 0 0 0 0 0 0 0 0 0 0 0 0 0 0 0 0 0 0 0 0 0 0 0 0 0 0 0 0 0 0 0 0 0 0 0 0 0 0 
0 0 0 0 0 0 0 0 0 0 0 0 0 0 0 0 0 0 0 0 0 0 0 0 0 0 0 0 0 0 0 0 0 0 0 0 0 0 0 0 0 0 0 0 0 0 0 0 0 0 0 0 0 0 0 0 0 0 0 0 0 0 0 0 0 0 0 0 0 0 0 0 0 0 0 0 0 0 0 0 0 0 0 0 0 0 0 0 0 0 0 0 0 0 0 0 0 0 0 0 0 0 0 0 0 0 0 0 0 0 0 0 0 0 0 0 0 0 0 0 0 0 0 0 0 0 0 0 0 0 0 0 0 0 0 0 0 0 0 0 0 0 0 0 0 0 0 0 0 0 0 0 0 0 0 0 0 0 0 0 0 0 0 0 0 0 0 0 0 0 0 0 0 0 0 0 0 0 0 0 
0 0 0 0 0 0 0 0 0 0 0 0 0 0 0 0 0 0 0 0 0 0 0 0 0 0 0 0 0 0 4373 0 0 8735 0 0 8943 0 0 8584 0 0 8612 0 0 8732 0 0 8537 0 0 8675 0 0 8699 0 0 8600 0 0 8797 0 0 8765 0 0 8673 0 0 8583 0 0 8664 0 0 8427 0 0 8673 0 0 8665 0 0 8641 0 0 8701 0 0 8657 0 0 8728 0 0 8674 0 0 8606 0 0 8580 0 0 8607 0 0 8743 0 0 8568 0 0 8747 0 0 8682 0 0 8682 0 0 8813 0 0 8630 0 0 8772 0 0 8507 0 0 8766 0 0 8574 0 0 8910 0 0 8670 0 0 8648 0 0 4439 0 0 0 0 0 0 0 0 0 0 0 0 0 0 0 0 0 0 0 0 0 0 0 0 0 0 0 0 0 
0 0 0 0 0 0 0 0 0 0 0 0 0 0 0 0 0 0 0 0 0 0 0 0 0 0 0 0 0 0 8776 0 0 17369 0 0 17449 0 0 17331 0 0 17420 0 0 17449 0 0 17531 0 0 17206 0 0 17461 0 0 17391 0 0 17730 0 0 17522 0 0 17370 0 0 17169 0 0 17483 0 0 17178 0 0 17250 0 0 17515 0 0 17325 0 0 17445 0 0 17352 0 0 17648 0 0 17262 0 0 17627 0 0 17196 0 0 17403 0 0 17521 0 0 17402 0 0 17615 0 0 17742 0 0 17177 0 0 17477 0 0 17546 0 0 17384 0 0 17330 0 0 17428 0 0 17318 0 0 17438 0 0 17550 0 0 17445 0 0 8656 0 0 0 0 0 0 0 0 0 0 0 0 0 0 0 0 0 0 0 0 0 0 0 0 0 0 0 0 0 
0 0 0 0 0 0 0 0 0 0 0 0 0 0 0 0 0 0 0 0 0 0 0 0 0 0 0 0 0 0 8568 0 0 17495 0 0 17260 0 0 17615 0 0 17347 0 0 17409 0 0 17361 0 0 17295 0 0 17401 0 0 17207 0 0 17460 0 0 17478 0 0 17437 0 0 17242 0 0 17516 0 0 17443 0 0 17465 0 0 17404 0 0 17514 0 0 17299 0 0 17533 0 0 16908 0 0 17281 0 0 17218 0 0 17487 0 0 17538 0 0 17217 0 0 17366 0 0 17166 0 0 17283 0 0 17410 0 0 17501 0 0 17425 0 0 17575 0 0 17613 0 0 17601 0 0 17584 0 0 17388 0 0 17500 0 0 17604 0 0 8748 0 0 0 0 0 0 0 0 0 0 0 0 0 0 0 0 0 0 0 0 0 0 0 0 0 0 0 0 0 
0 0 0 0 0 0 0 0 0 0 0 0 0 0 0 0 0 0 0 0 0 0 0 0 0 0 0 0 0 0 8637 0 0 17486 0 0 17562 0 0 17474 0 0 17596 0 0 17214 0 0 17166 0 0 17531 0 0 17517 0 0 17075 0 0 17488 0 0 17695 0 0 17559 0 0 17334 0 0 17428 0 0 17707 0 0 17361 0 0 17671 0 0 17405 0 0 17220 0 0 17354 0 0 17444 0 0 17486 0 0 17412 0 0 17626 0 0 17412 0 0 17409 0 0 17568 0 0 17406 0 0 17351 0 0 17247 0 0 17289 0 0 17317 0 0 17358 0 0 17433 0 0 17301 0 0 17665 0 0 17446 0 0 17264 0 0 17437 0 0 8411 0 0 0 0 0 0 0 0 0 0 0 0 0 0 0 0 0 0 0 0 0 0 0 0 0 0 0 0 0 
0 0 0 0 0 0 0 0 0 0 0 0 0 0 0 0 0 0 0 0 0 0 0 0 0 0 0 0 0 0 8600 0 0 17575 0 0 17529 0 0 17326 0 0 17380 0 0 17442 0 0 17534 0 0 17554 0 0 17235 0 0 17481 0 0 17437 0 0 17546 0 0 17448 0 0 17202 0 0 17418 0 0 17427 0 0 17258 0 0 17279 0 0 17424 0 0 17570 0 0 17547 0 0 17282 0 0 17516 0 0 17505 0 0 17407 0 0 17402 0 0 17474 0 0 17386 0 0 17425 0 0 17557 0 0 17385 0 0 17176 0 0 17431 0 0 17587 0 0 17374 0 0 17276 0 0 17496 0 0 17436 0 0 17218 0 0 17228 0 0 8510 0 0 0 0 0 0 0 0 0 0 0 0 0 0 0 0 0 0 0 0 0 0 0 0 0 0 0 0 0 
0 0 0 0 0 0 0 0 0 0 0 0 0 0 0 0 0 0 0 0 0 0 0 0 0 0 0 0 0 0 8648 0 0 17328 0 0 17507 0 0 17434 0 0 17426 0 0 17340 0 0 17366 0 0 17710 0 0 17641 0 0 17531 0 0 17442 0 0 17352 0 0 17378 0 0 17300 0 0 17575 0 0 17437 0 0 17444 0 0 17531 0 0 17392 0 0 17436 0 0 17424 0 0 17329 0 0 17306 0 0 17417 0 0 17228 0 0 17284 0 0 17464 0 0 17255 0 0 17265 0 0 17418 0 0 17336 0 0 17463 0 0 17604 0 0 17270 0 0 17556 0 0 17304 0 0 17592 0 0 17529 0 0 17708 0 0 17541 0 0 8677 0 0 0 0 0 0 0 0 0 0 0 0 0 0 0 0 0 0 0 0 0 0 0 0 0 0 0 0 0 
0 0 0 0 0 0 0 0 0 0 0 0 0 0 0 0 0 0 0 0 0 0 0 0 0 0 0 0 0 0 8581 0 0 17446 0 0 17520 0 0 17846 0 0 17409 0 0 17391 0 0 17276 0 0 17635 0 0 17366 0 0 17176 0 0 17539 0 0 17261 0 0 17344 0 0 17575 0 0 17504 0 0 17273 0 0 17563 0 0 17544 0 0 17304 0 0 17367 0 0 17440 0 0 17552 0 0 17350 0 0 17354 0 0 17512 0 0 17363 0 0 17250 0 0 17373 0 0 17521 0 0 17622 0 0 17422 0 0 17312 0 0 17436 0 0 17556 0 0 17439 0 0 17565 0 0 17609 0 0 17124 0 0 17345 0 0 17302 0 0 8543 0 0 0 0 0 0 0 0 0 0 0 0 0 0 0 0 0 0 0 0 0 0 0 0 0 0 0 0 0 
0 0 0 0 0 0 0 0 0 0 0 0 0 0 0 0 0 0 0 0 0 0 0 0 0 0 0 0 0 0 8604 0 0 17305 0 0 17327 0 0 17326 0 0 17472 0 0 17403 0 0 17477 0 0 17314 0 0 17428 0 0 17287 0 0 17568 0 0 17580 0 0 17421 0 0 17284 0 0 17249 0 0 17480 0 0 17386 0 0 17487 0 0 17348 0 0 17359 0 0 17402 0 0 17323 0 0 17435 0 0 17509 0 0 17706 0 0 17437 0 0 17598 0 0 17617 0 0 17609 0 0 17438 0 0 17362 0 0 17643 0 0 17573 0 0 17338 0 0 17312 0 0 17703 0 0 17263 0 0 17253 0 0 17528 0 0 17400 0 0 8555 0 0 0 0 0 0 0 0 0 0 0 0 0 0 0 0 0 0 0 0 0 0 0 0 0 0 0 0 0 
0 0 0 0 0 0 0 0 0 0 0 0 0 0 0 0 0 0 0 0 0 0 0 0 0 0 0 0 0 0 8697 0 0 17436 0 0 17518 0 0 17427 0 0 17502 0 0 17110 0 0 17472 0 0 17727 0 0 17186 0 0 17468 0 0 17597 0 0 17475 0 0 17663 0 0 17432 0 0 17485 0 0 17650 0 0 17504 0 0 17396 0 0 17440 0 0 17642 0 0 17289 0 0 17471 0 0 17279 0 0 17778 0 0 17421 0 0 17158 0 0 17368 0 0 17522 0 0 17547 0 0 17291 0 0 17428 0 0 17491 0 0 17345 0 0 17275 0 0 17215 0 0 17342 0 0 17526 0 0 17426 0 0 17128 0 0 17373 0 0 8771 0 0 0 0 0 0 0 0 0 0 0 0 0 0 0 0 0 0 0 0 0 0 0 0 0 0 0 0 0 
0 0 0 0 0 0 0 0 0 0 0 0 0 0 0 0 0 0 0 0 0 0 0 0 0 0 0 0 0 0 8527 0 0 17382 0 0 17491 0 0 17234 0 0 17435 0 0 17336 0 0 17425 0 0 17512 0 0 17448 0 0 17141 0 0 17394 0 0 17328 0 0 17215 0 0 17508 0 0 17433 0 0 17319 0 0 17625 0 0 17479 0 0 17215 0 0 17415 0 0 17440 0 0 17255 0 0 17589 0 0 17539 0 0 17559 0 0 17717 0 0 17533 0 0 17252 0 0 17355 0 0 17581 0 0 17380 0 0 17403 0 0 17332 0 0 17565 0 0 17374 0 0 17527 0 0 17271 0 0 17280 0 0 17339 0 0 17344 0 0 8839 0 0 0 0 0 0 0 0 0 0 0 0 0 0 0 0 0 0 0 0 0 0 0 0 0 0 0 0 0 
0 0 0 0 0 0 0 0 0 0 0 0 0 0 0 0 0 0 0 0 0 0 0 0 0 0 0 0 0 0 8737 0 0 17492 0 0 17291 0 0 17439 0 0 17379 0 0 17614 0 0 17423 0 0 17301 0 0 17508 0 0 17278 0 0 17424 0 0 17506 0 0 17486 0 0 17610 0 0 17656 0 0 17310 0 0 17259 0 0 17237 0 0 17626 0 0 17324 0 0 17540 0 0 17588 0 0 17442 0 0 17356 0 0 17425 0 0 17470 0 0 17288 0 0 17417 0 0 17413 0 0 17530 0 0 17560 0 0 17229 0 0 17502 0 0 17145 0 0 17204 0 0 17318 0 0 17453 0 0 17460 0 0 17562 0 0 17466 0 0 8606 0 0 0 0 0 0 0 0 0 0 0 0 0 0 0 0 0 0 0 0 0 0 0 0 0 0 0 0 0 
0 0 0 0 0 0 0 0 0 0 0 0 0 0 0 0 0 0 0 0 0 0 0 0 0 0 0 0 0 0 8573 0 0 17657 0 0 17495 0 0 17397 0 0 17493 0 0 17554 0 0 17344 0 0 17408 0 0 17515 0 0 17524 0 0 17450 0 0 17359 0 0 17441 0 0 17350 0 0 17443 0 0 17726 0 0 17352 0 0 17481 0 0 17489 0 0 17249 0 0 17445 0 0 17518 0 0 17314 0 0 17445 0 0 17606 0 0 17204 0 0 17265 0 0 17347 0 0 17592 0 0 17417 0 0 17310 0 0 17345 0 0 17344 0 0 17393 0 0 17385 0 0 17637 0 0 17100 0 0 17140 0 0 17152 0 0 17634 0 0 8692 0 0 0 0 0 0 0 0 0 0 0 0 0 0 0 0 0 0 0 0 0 0 0 0 0 0 0 0 0 
0 0 0 0 0 0 0 0 0 0 0 0 0 0 0 0 0 0 0 0 0 0 0 0 0 0 0 0 0 0 8944 0 0 17589 0 0 17450 0 0 17403 0 0 17344 0 0 17539 0 0 17396 0 0 17435 0 0 17373 0 0 17427 0 0 17356 0 0 17200 0 0 17386 0 0 17425 0 0 17372 0 0 17397 0 0 17682 0 0 17383 0 0 17514 0 0 17489 0 0 17250 0 0 17740 0 0 17554 0 0 17310 0 0 17329 0 0 17544 0 0 17515 0 0 17429 0 0 17274 0 0 17522 0 0 17428 0 0 17409 0 0 17405 0 0 17246 0 0 17493 0 0 17456 0 0 17475 0 0 17336 0 0 17340 0 0 17452 0 0 8798 0 0 0 0 0 0 0 0 0 0 0 0 0 0 0 0 0 0 0 0 0 0 0 0 0 0 0 0 0 
0 0 0 0 0 0 0 0 0 0 0 0 0 0 0 0 0 0 0 0 0 0 0 0 0 0 0 0 0 0 8790 0 0 17299 0 0 17440 0 0 17287 0 0 17488 0 0 17370 0 0 17482 0 0 17228 0 0 17334 0 0 17555 0 0 17453 0 0 17385 0 0 17597 0 0 17298 0 0 17374 0 0 17200 0 0 17478 0 0 17223 0 0 17387 0 0 17264 0 0 17330 0 0 17587 0 0 17473 0 0 17490 0 0 17499 0 0 17272 0 0 17345 0 0 17371 0 0 17360 0 0 17156 0 0 17624 0 0 17544 0 0 17336 0 0 17242 0 0 17534 0 0 17446 0 0 17328 0 0 17388 0 0 17460 0 0 17388 0 0 8511 0 0 0 0 0 0 0 0 0 0 0 0 0 0 0 0 0 0 0 0 0 0 0 0 0 0 0 0 0 
0 0 0 0 0 0 0 0 0 0 0 0 0 0 0 0 0 0 0 0 0 0 0 0 0 0 0 0 0 0 8739 0 0 17427 0 0 17741 0 0 17494 0 0 17533 0 0 17426 0 0 17445 0 0 17310 0 0 17183 0 0 17489 0 0 17360 0 0 17574 0 0 17410 0 0 17331 0 0 17310 0 0 17303 0 0 17493 0 0 17193 0 0 17432 0 0 17559 0 0 17273 0 0 17459 0 0 17329 0 0 17678 0 0 17337 0 0 17503 0 0 17287 0 0 17409 0 0 17296 0 0 17584 0 0 17466 0 0 17574 0 0 17540 0 0 17402 0 0 17386 0 0 17404 0 0 17496 0 0 17450 0 0 17333 0 0 17190 0 0 8811 0 0 0 0 0 0 0 0 0 0 0 0 0 0 0 0 0 0 0 0 0 0 0 0 0 0 0 0 0 
0 0 0 0 0 0 0 0 0 0 0 0 0 0 0 0 0 0 0 0 0 0 0 0 0 0 0 0 0 0 8716 0 0 17289 0 0 17365 0 0 17345 0 0 17583 0 0 17249 0 0 17662 0 0 17522 0 0 17355 0 0 17583 0 0 17405 0 0 17515 0 0 17403 0 0 17404 0 0 17343 0 0 17289 0 0 17403 0 0 17427 0 0 17335 0 0 17636 0 0 17325 0 0 17484 0 0 17324 0 0 17445 0 0 17356 0 0 17426 0 0 17173 0 0 17495 0 0 17429 0 0 17330 0 0 17479 0 0 17404 0 0 17444 0 0 17326 0 0 17278 0 0 17493 0 0 17363 0 0 17278 0 0 17611 0 0 17590 0 0 8530 0 0 0 0 0 0 0 0 0 0 0 0 0 0 0 0 0 0 0 0 0 0 0 0 0 0 0 0 0 
0 0 0 0 0 0 0 0 0 0 0 0 0 0 0 0 0 0 0 0 0 0 0 0 0 0 0 0 0 0 8907 0 0 17419 0 0 17459 0 0 17442 0 0 17347 0 0 17519 0 0 17644 0 0 17479 0 0 17285 0 0 17369 0 0 17405 0 0 17457 0 0 17339 0 0 17423 0 0 17360 0 0 17355 0 0 17492 0 0 17423 0 0 17471 0 0 17317 0 0 17552 0 0 17332 0 0 17445 0 0 17278 0 0 17617 0 0 17256 0 0 17441 0 0 17252 0 0 17468 0 0 17475 0 0 17235 0 0 17452 0 0 17376 0 0 17516 0 0 17640 0 0 17303 0 0 17477 0 0 17545 0 0 17387 0 0 17199 0 0 8800 0 0 0 0 0 0 0 0 0 0 0 0 0 0 0 0 0 0 0 0 0 0 0 0 0 0 0 0 0 
0 0 0 0 0 0 0 0 0 0 0 0 0 0 0 0 0 0 0 0 0 0 0 0 0 0 0 0 0 0 8607 0 0 17271 0 0 17166 0 0 17508 0 0 17657 0 0 17605 0 0 17189 0 0 17604 0 0 17380 0 0 17452 0 0 17415 0 0 17349 0 0 17242 0 0 17499 0 0 17460 0 0 17331 0 0 17469 0 0 17355 0 0 17429 0 0 17399 0 0 17562 0 0 17469 0 0 17001 0 0 17312 0 0 17268 0 0 17400 0 0 17395 0 0 17605 0 0 17340 0 0 17233 0 0 17272 0 0 17510 0 0 17534 0 0 17465 0 0 17181 0 0 17433 0 0 17269 0 0 17507 0 0 17545 0 0 17063 0 0 8781 0 0 0 0 0 0 0 0 0 0 0 0 0 0 0 0 0 0 0 0 0 0 0 0 0 0 0 0 0 
0 0 0 0 0 0 0 0 0 0 0 0 0 0 0 0 0 0 0 0 0 0 0 0 0 0 0 0 0 0 8733 0 0 17590 0 0 17430 0 0 17229 0 0 17444 0 0 17471 0 0 17434 0 0 17346 0 0 17311 0 0 17429 0 0 17315 0 0 17475 0 0 17415 0 0 17588 0 0 17466 0 0 17442 0 0 17415 0 0 17597 0 0 17781 0 0 17306 0 0 17098 0 0 17336 0 0 17497 0 0 17530 0 0 17484 0 0 17466 0 0 17644 0 0 17521 0 0 17383 0 0 17491 0 0 17527 0 0 17325 0 0 17538 0 0 17240 0 0 17604 0 0 17483 0 0 17114 0 0 17304 0 0 17472 0 0 17408 0 0 8731 0 0 0 0 0 0 0 0 0 0 0 0 0 0 0 0 0 0 0 0 0 0 0 0 0 0 0 0 0 
0 0 0 0 0 0 0 0 0 0 0 0 0 0 0 0 0 0 0 0 0 0 0 0 0 0 0 0 0 0 8599 0 0 17507 0 0 17470 0 0 17250 0 0 17440 0 0 17340 0 0 17398 0 0 17347 0 0 17420 0 0 17351 0 0 17478 0 0 17485 0 0 17273 0 0 17506 0 0 17460 0 0 17431 0 0 17479 0 0 17425 0 0 17314 0 0 17579 0 0 17667 0 0 17474 0 0 17250 0 0 17567 0 0 17372 0 0 17242 0 0 17835 0 0 17272 0 0 17691 0 0 17365 0 0 17418 0 0 17247 0 0 17644 0 0 17490 0 0 17450 0 0 17141 0 0 17509 0 0 17390 0 0 17475 0 0 17346 0 0 8646 0 0 0 0 0 0 0 0 0 0 0 0 0 0 0 0 0 0 0 0 0 0 0 0 0 0 0 0 0 
0 0 0 0 0 0 0 0 0 0 0 0 0 0 0 0 0 0 0 0 0 0 0 0 0 0 0 0 0 0 8828 0 0 17294 0 0 17333 0 0 17547 0 0 17302 0 0 17542 0 0 17403 0 0 17646 0 0 17618 0 0 17360 0 0 17568 0 0 17350 0 0 17440 0 0 17196 0 0 17043 0 0 17271 0 0 17443 0 0 17494 0 0 17637 0 0 17390 0 0 17287 0 0 17368 0 0 17430 0 0 17230 0 0 17277 0 0 17242 0 0 17273 0 0 17565 0 0 17421 0 0 17528 0 0 17495 0 0 17475 0 0 17236 0 0 17276 0 0 17429 0 0 17423 0 0 17458 0 0 17547 0 0 17177 0 0 17372 0 0 8718 0 0 0 0 0 0 0 0 0 0 0 0 0 0 0 0 0 0 0 0 0 0 0 0 0 0 0 0 0 
0 0 0 0 0 0 0 0 0 0 0 0 0 0 0 0 0 0 0 0 0 0 0 0 0 0 0 0 0 0 8656 0 0 17219 0 0 17286 0 0 17408 0 0 17665 0 0 17639 0 0 17376 0 0 17397 0 0 17501 0 0 17363 0 0 17613 0 0 17668 0 0 17143 0 0 17400 0 0 17301 0 0 17416 0 0 17374 0 0 17335 0 0 17121 0 0 17538 0 0 17473 0 0 17509 0 0 17471 0 0 17333 0 0 17604 0 0 17355 0 0 17479 0 0 17192 0 0 17137 0 0 17421 0 0 17408 0 0 17737 0 0 17281 0 0 17371 0 0 17284 0 0 17647 0 0 17325 0 0 17643 0 0 17326 0 0 17368 0 0 8763 0 0 0 0 0 0 0 0 0 0 0 0 0 0 0 0 0 0 0 0 0 0 0 0 0 0 0 0 0 
0 0 0 0 0 0 0 0 0 0 0 0 0 0 0 0 0 0 0 0 0 0 0 0 0 0 0 0 0 0 8749 0 0 17415 0 0 17452 0 0 17527 0 0 17119 0 0 17421 0 0 17498 0 0 17463 0 0 17487 0 0 17521 0 0 17552 0 0 17470 0 0 17652 0 0 17497 0 0 17455 0 0 17431 0 0 17489 0 0 17609 0 0 17121 0 0 17462 0 0 17292 0 0 17354 0 0 17374 0 0 17458 0 0 17288 0 0 17427 0 0 17356 0 0 17579 0 0 17199 0 0 17357 0 0 17279 0 0 17455 0 0 17561 0 0 17559 0 0 17511 0 0 17331 0 0 17675 0 0 17369 0 0 17394 0 0 17331 0 0 8670 0 0 0 0 0 0 0 0 0 0 0 0 0 0 0 0 0 0 0 0 0 0 0 0 0 0 0 0 0 
0 0 0 0 0 0 0 0 0 0 0 0 0 0 0 0 0 0 0 0 0 0 0 0 0 0 0 0 0 0 8691 0 0 17310 0 0 17263 0 0 17668 0 0 17041 0 0 17427 0 0 17412 0 0 17489 0 0 17497 0 0 17628 0 0 17330 0 0 17415 0 0 17262 0 0 17390 0 0 17354 0 0 17135 0 0 17461 0 0 17466 0 0 17341 0 0 17369 0 0 17343 0 0 17569 0 0 17577 0 0 17289 0 0 17487 0 0 17461 0 0 17325 0 0 17271 0 0 17281 0 0 17328 0 0 17216 0 0 17444 0 0 17564 0 0 17354 0 0 17543 0 0 17448 0 0 17420 0 0 17199 0 0 17381 0 0 17492 0 0 8498 0 0 0 0 0 0 0 0 0 0 0 0 0 0 0 0 0 0 0 0 0 0 0 0 0 0 0 0 0 
0 0 0 0 0 0 0 0 0 0 0 0 0 0 0 0 0 0 0 0 0 0 0 0 0 0 0 0 0 0 8713 0 0 17468 0 0 17406 0 0 17258 0 0 17524 0 0 17261 0 0 17552 0 0 17587 0 0 17453 0 0 17552 0 0 17655 0 0 17448 0 0 17520 0 0 17398 0 0 17416 0 0 17317 0 0 17345 0 0 17614 0 0 17501 0 0 17261 0 0 17366 0 0 17361 0 0 17398 0 0 17479 0 0 17419 0 0 17460 0 0 17473 0 0 17400 0 0 17385 0 0 17435 0 0 17577 0 0 17452 0 0 17285 0 0 17266 0 0 17043 0 0 17702 0 0 17339 0 0 17254 0 0 17445 0 0 17536 0 0 8640 0 0 0 0 0 0 0 0 0 0 0 0 0 0 0 0 0 0 0 0 0 0 0 0 0 0 0 0 0 
0 0 0 0 0 0 0 0 0 0 0 0 0 0 0 0 0 0 0 0 0 0 0 0 0 0 0 0 0 0 8704 0 0 17517 0 0 17249 0 0 17319 0 0 17264 0 0 17280 0 0 17486 0 0 17461 0 0 17289 0 0 17352 0 0 17108 0 0 17656 0 0 17203 0 0 17332 0 0 17484 0 0 17317 0 0 17499 0 0 17256 0 0 17238 0 0 17515 0 0 17651 0 0 17286 0 0 17296 0 0 17405 0 0 17556 0 0 17575 0 0 17540 0 0 17353 0 0 17583 0 0 17592 0 0 17624 0 0 17513 0 0 17383 0 0 17545 0 0 17404 0 0 17590 0 0 17374 0 0 17413 0 0 17259 0 0 17552 0 0 8761 0 0 0 0 0 0 0 0 0 0 0 0 0 0 0 0 0 0 0 0 0 0 0 0 0 0 0 0 0 
0 0 0 0 0 0 0 0 0 0 0 0 0 0 0 0 0 0 0 0 0 0 0 0 0 0 0 0 0 0 8779 0 0 17406 0 0 17564 0 0 17620 0 0 17510 0 0 17225 0 0 17426 0 0 17424 0 0 17676 0 0 17465 0 0 17220 0 0 17373 0 0 17483 0 0 17569 0 0 17496 0 0 17196 0 0 17290 0 0 17534 0 0 17348 0 0 17388 0 0 17524 0 0 17154 0 0 17557 0 0 17194 0 0 17399 0 0 17356 0 0 17170 0 0 17653 0 0 17294 0 0 17614 0 0 17444 0 0 17508 0 0 17455 0 0 17395 0 0 17293 0 0 17321 0 0 17329 0 0 17125 0 0 16993 0 0 17245 0 0 8687 0 0 0 0 0 0 0 0 0 0 0 0 0 0 0 0 0 0 0 0 0 0 0 0 0 0 0 0 0 
0 0 0 0 0 0 0 0 0 0 0 0 0 0 0 0 0 0 0 0 0 0 0 0 0 0 0 0 0 0 8754 0 0 17523 0 0 17287 0 0 17348 0 0 17357 0 0 17394 0 0 17339 0 0 17510 0 0 17590 0 0 17424 0 0 17255 0 0 17235 0 0 17209 0 0 17425 0 0 17281 0 0 17587 0 0 17521 0 0 17299 0 0 17618 0 0 17754 0 0 17624 0 0 17524 0 0 17551 0 0 17326 0 0 17446 0 0 17413 0 0 17391 0 0 17365 0 0 17516 0 0 17472 0 0 17233 0 0 17287 0 0 17224 0 0 17484 0 0 17385 0 0 17560 0 0 17574 0 0 17524 0 0 17148 0 0 17230 0 0 8789 0 0 0 0 0 0 0 0 0 0 0 0 0 0 0 0 0 0 0 0 0 0 0 0 0 0 0 0 0 
0 0 0 0 0 0 0 0 0 0 0 0 0 0 0 0 0 0 0 0 0 0 0 0 0 0 0 0 0 0 8682 0 0 17344 0 0 17424 0 0 17175 0 0 17451 0 0 17461 0 0 17309 0 0 17695 0 0 17148 0 0 17419 0 0 17505 0 0 17414 0 0 17571 0 0 17270 0 0 17580 0 0 17462 0 0 17496 0 0 17546 0 0 17334 0 0 17387 0 0 17365 0 0 17328 0 0 17382 0 0 17208 0 0 17295 0 0 17626 0 0 17253 0 0 17315 0 0 17562 0 0 17319 0 0 17401 0 0 17410 0 0 17335 0 0 17616 0 0 17359 0 0 17362 0 0 17464 0 0 17122 0 0 17399 0 0 17419 0 0 8689 0 0 0 0 0 0 0 0 0 0 0 0 0 0 0 0 0 0 0 0 0 0 0 0 0 0 0 0 0 
0 0 0 0 0 0 0 0 0 0 0 0 0 0 0 0 0 0 0 0 0 0 0 0 0 0 0 0 0 0 8746 0 0 17745 0 0 17577 0 0 17791 0 0 17250 0 0 17364 0 0 17506 0 0 17387 0 0 17544 0 0 17388 0 0 17499 0 0 17302 0 0 17487 0 0 17572 0 0 17297 0 0 17421 0 0 17556 0 0 17415 0 0 17618 0 0 17597 0 0 17215 0 0 17357 0 0 17385 0 0 17297 0 0 17362 0 0 17215 0 0 17547 0 0 17372 0 0 17475 0 0 17474 0 0 17379 0 0 17383 0 0 17324 0 0 17443 0 0 17479 0 0 17543 0 0 17549 0 0 17349 0 0 17356 0 0 17336 0 0 8736 0 0 0 0 0 0 0 0 0 0 0 0 0 0 0 0 0 0 0 0 0 0 0 0 0 0 0 0 0 
0 0 0 0 0 0 0 0 0 0 0 0 0 0 0 0 0 0 0 0 0 0 0 0 0 0 0 0 0 0 8688 0 0 17568 0 0 17335 0 0 17353 0 0 17530 0 0 17329 0 0 17375 0 0 17444 0 0 17376 0 0 17569 0 0 17383 0 0 17439 0 0 17446 0 0 17379 0 0 17401 0 0 17306 0 0 17519 0 0 17660 0 0 17522 0 0 17425 0 0 17351 0 0 17601 0 0 17398 0 0 17352 0 0 17551 0 0 17395 0 0 17330 0 0 17358 0 0 17255 0 0 17327 0 0 17466 0 0 17513 0 0 17357 0 0 17519 0 0 17495 0 0 17282 0 0 17229 0 0 17668 0 0 17343 0 0 17397 0 0 8765 0 0 0 0 0 0 0 0 0 0 0 0 0 0 0 0 0 0 0 0 0 0 0 0 0 0 0 0 0 
0 0 0 0 0 0 0 0 0 0 0 0 0 0 0 0 0 0 0 0 0 0 0 0 0 0 0 0 0 0 8839 0 0 17502 0 0 17569 0 0 17444 0 0 17256 0 0 17424 0 0 17303 0 0 17517 0 0 17534 0 0 17402 0 0 17396 0 0 17405 0 0 17658 0 0 17572 0 0 17600 0 0 17510 0 0 17543 0 0 17538 0 0 17403 0 0 17537 0 0 17226 0 0 17509 0 0 17151 0 0 17222 0 0 17352 0 0 17470 0 0 17469 0 0 17602 0 0 17320 0 0 17509 0 0 17240 0 0 17404 0 0 17394 0 0 17206 0 0 17328 0 0 17422 0 0 17626 0 0 17630 0 0 17484 0 0 17400 0 0 8792 0 0 0 0 0 0 0 0 0 0 0 0 0 0 0 0 0 0 0 0 0 0 0 0 0 0 0 0 0 
0 0 0 0 0 0 0 0 0 0 0 0 0 0 0 0 0 0 0 0 0 0 0 0 0 0 0 0 0 0 8671 0 0 17339 0 0 17375 0 0 17583 0 0 17661 0 0 17437 0 0 17454 0 0 17684 0 0 17422 0 0 17571 0 0 17271 0 0 17227 0 0 17296 0 0 17526 0 0 17503 0 0 17225 0 0 17480 0 0 17386 0 0 17580 0 0 17348 0 0 17335 0 0 17394 0 0 17584 0 0 17575 0 0 17476 0 0 17641 0 0 17327 0 0 17491 0 0 17289 0 0 17288 0 0 17439 0 0 17439 0 0 17173 0 0 17588 0 0 17330 0 0 17470 0 0 17440 0 0 17632 0 0 17234 0 0 17402 0 0 8761 0 0 0 0 0 0 0 0 0 0 0 0 0 0 0 0 0 0 0 0 0 0 0 0 0 0 0 0 0 
0 0 0 0 0 0 0 0 0 0 0 0 0 0 0 0 0 0 0 0 0 0 0 0 0 0 0 0 0 0 8783 0 0 17411 0 0 17300 0 0 17382 0 0 16970 0 0 17426 0 0 17398 0 0 17447 0 0 17420 0 0 17440 0 0 17395 0 0 17194 0 0 17475 0 0 17364 0 0 17373 0 0 17324 0 0 17477 0 0 17593 0 0 17342 0 0 17537 0 0 17492 0 0 17449 0 0 17347 0 0 17476 0 0 17174 0 0 17486 0 0 17418 0 0 17744 0 0 17692 0 0 17443 0 0 17278 0 0 17227 0 0 17307 0 0 17259 0 0 17368 0 0 17384 0 0 17525 0 0 17420 0 0 17330 0 0 17258 0 0 8615 0 0 0 0 0 0 0 0 0 0 0 0 0 0 0 0 0 0 0 0 0 0 0 0 0 0 0 0 0 
0 0 0 0 0 0 0 0 0 0 0 0 0 0 0 0 0 0 0 0 0 0 0 0 0 0 0 0 0 0 8599 0 0 17380 0 0 17588 0 0 17468 0 0 17417 0 0 17581 0 0 17494 0 0 17547 0 0 17579 0 0 17501 0 0 17390 0 0 17235 0 0 17377 0 0 17391 0 0 17590 0 0 17220 0 0 17567 0 0 17351 0 0 17321 0 0 17454 0 0 17379 0 0 17277 0 0 17486 0 0 17643 0 0 17232 0 0 17502 0 0 17307 0 0 17665 0 0 17495 0 0 17650 0 0 17245 0 0 17359 0 0 17236 0 0 17343 0 0 17354 0 0 17550 0 0 17615 0 0 17561 0 0 17245 0 0 17400 0 0 8404 0 0 0 0 0 0 0 0 0 0 0 0 0 0 0 0 0 0 0 0 0 0 0 0 0 0 0 0 0 
0 0 0 0 0 0 0 0 0 0 0 0 0 0 0 0 0 0 0 0 0 0 0 0 0 0 0 0 0 0 8708 0 0 17358 0 0 17406 0 0 17547 0 0 17420 0 0 17435 0 0 17457 0 0 17528 0 0 17515 0 0 17628 0 0 17528 0 0 17460 0 0 17213 0 0 17405 0 0 17421 0 0 17362 0 0 17364 0 0 17315 0 0 17415 0 0 17597 0 0 17473 0 0 17376 0 0 17462 0 0 17269 0 0 17397 0 0 17493 0 0 17392 0 0 17687 0 0 17421 0 0 17573 0 0 17368 0 0 17508 0 0 17277 0 0 17444 0 0 17232 0 0 17461 0 0 17672 0 0 17342 0 0 17515 0 0 17339 0 0 8830 0 0 0 0 0 0 0 0 0 0 0 0 0 0 0 0 0 0 0 0 0 0 0 0 0 0 0 0 0 
0 0 0 0 0 0 0 0 0 0 0 0 0 0 0 0 0 0 0 0 0 0 0 0 0 0 0 0 0 0 8666 0 0 17369 0 0 17713 0 0 17398 0 0 17405 0 0 17392 0 0 17572 0 0 17328 0 0 17477 0 0 17687 0 0 17532 0 0 17193 0 0 17394 0 0 17472 0 0 17249 0 0 17434 0 0 17267 0 0 17296 0 0 17619 0 0 17496 0 0 17395 0 0 17399 0 0 17234 0 0 17335 0 0 17545 0 0 17635 0 0 17541 0 0 17553 0 0 17223 0 0 17470 0 0 17571 0 0 17330 0 0 17483 0 0 17331 0 0 17690 0 0 17350 0 0 17404 0 0 17339 0 0 17438 0 0 17323 0 0 8725 0 0 0 0 0 0 0 0 0 0 0 0 0 0 0 0 0 0 0 0 0 0 0 0 0 0 0 0 0 
0 0 0 0 0 0 0 0 0 0 0 0 0 0 0 0 0 0 0 0 0 0 0 0 0 0 0 0 0 0 8702 0 0 17395 0 0 17567 0 0 17461 0 0 17551 0 0 17667 0 0 17534 0 0 17252 0 0 17446 0 0 17365 0 0 17489 0 0 17228 0 0 17547 0 0 17404 0 0 17520 0 0 17245 0 0 17351 0 0 17309 0 0 17458 0 0 17772 0 0 17365 0 0 17601 0 0 17545 0 0 17319 0 0 17353 0 0 17242 0 0 17437 0 0 17285 0 0 17554 0 0 17422 0 0 17592 0 0 17652 0 0 17175 0 0 17319 0 0 17492 0 0 17371 0 0 17531 0 0 17498 0 0 17642 0 0 17377 0 0 8818 0 0 0 0 0 0 0 0 0 0 0 0 0 0 0 0 0 0 0 0 0 0 0 0 0 0 0 0 0 
0 0 0 0 0 0 0 0 0 0 0 0 0 0 0 0 0 0 0 0 0 0 0 0 0 0 0 0 0 0 8614 0 0 17314 0 0 17386 0 0 17276 0 0 17439 0 0 17458 0 0 17438 0 0 17423 0 0 17261 0 0 17483 0 0 17471 0 0 17167 0 0 17505 0 0 17353 0 0 17297 0 0 17375 0 0 17500 0 0 17208 0 0 17470 0 0 17632 0 0 17537 0 0 17578 0 0 17323 0 0 17281 0 0 17551 0 0 17332 0 0 17639 0 0 17276 0 0 17042 0 0 17336 0 0 17359 0 0 17547 0 0 17649 0 0 17280 0 0 17421 0 0 17616 0 0 17088 0 0 17077 0 0 17439 0 0 17404 0 0 8798 0 0 0 0 0 0 0 0 0 0 0 0 0 0 0 0 0 0 0 0 0 0 0 0 0 0 0 0 0 
0 0 0 0 0 0 0 0 0 0 0 0 0 0 0 0 0 0 0 0 0 0 0 0 0 0 0 0 0 0 8816 0 0 17658 0 0 17429 0 0 17623 0 0 17539 0 0 17688 0 0 17510 0 0 17478 0 0 17196 0 0 17478 0 0 17358 0 0 17298 0 0 17318 0 0 17726 0 0 17599 0 0 17385 0 0 17257 0 0 17234 0 0 17483 0 0 17589 0 0 17417 0 0 17284 0 0 17416 0 0 17536 0 0 17497 0 0 17570 0 0 17457 0 0 17541 0 0 17450 0 0 17439 0 0 17406 0 0 17510 0 0 17459 0 0 17465 0 0 17404 0 0 17423 0 0 17204 0 0 17647 0 0 17494 0 0 17523 0 0 8714 0 0 0 0 0 0 0 0 0 0 0 0 0 0 0 0 0 0 0 0 0 0 0 0 0 0 0 0 0 
0 0 0 0 0 0 0 0 0 0 0 0 0 0 0 0 0 0 0 0 0 0 0 0 0 0 0 0 0 0 4327 0 0 8796 0 0 8697 0 0 8722 0 0 8661 0 0 8874 0 0 8736 0 0 8862 0 0 8728 0 0 8816 0 0 8594 0 0 8759 0 0 8832 0 0 8705 0 0 8871 0 0 8806 0 0 8934 0 0 8780 0 0 8849 0 0 8704 0 0 8597 0 0 8783 0 0 8870 0 0 8688 0 0 8657 0 0 8674 0 0 8686 0 0 8937 0 0 8657 0 0 8793 0 0 8579 0 0 8863 0 0 8753 0 0 8858 0 0 8455 0 0 8811 0 0 8575 0 0 8510 0 0 8672 0 0 8578 0 0 4264 0 0 0 0 0 0 0 0 0 0 0 0 0 0 0 0 0 0 0 0 0 0 0 0 0 0 0 0 0 
0 0 0 0 0 0 0 0 0 0 0 0 0 0 0 0 0 0 0 0 0 0 0 0 0 0 0 0 0 0 0 0 0 0 0 0 0 0 0 0 0 0 0 0 0 0 0 0 0 0 0 0 0 0 0 0 0 0 0 0 0 0 0 0 0 0 0 0 0 0 0 0 0 0 0 0 0 0 0 0 0 0 0 0 0 0 0 0 0 0 0 0 0 0 0 0 0 0 0 0 0 0 0 0 0 0 0 0 0 0 0 0 0 0 0 0 0 0 0 0 0 0 0 0 0 0 0 0 0 0 0 0 0 0 0 0 0 0 0 0 0 0 0 0 0 0 0 0 0 0 0 0 0 0 0 0 0 0 0 0 0 0 0 0 0 0 0 0 0 0 0 0 0 0 0 0 0 0 0 0 
0 0 0 0 0 0 0 0 0 0 0 0 0 0 0 0 0 0 0 0 0 0 0 0 0 0 0 0 0 0 0 0 0 0 0 0 0 0 0 0 0 0 0 0 0 0 0 0 0 0 0 0 0 0 0 0 0 0 0 0 0 0 0 0 0 0 0 0 0 0 0 0 0 0 0 0 0 0 0 0 0 0 0 0 0 0 0 0 0 0 0 0 0 0 0 0 0 0 0 0 0 0 0 0 0 0 0 0 0 0 0 0 0 0 0 0 0 0 0 0 0 0 0 0 0 0 0 0 0 0 0 0 0 0 0 0 0 0 0 0 0 0 0 0 0 0 0 0 0 0 0 0 0 0 0 0 0 0 0 0 0 0 0 0 0 0 0 0 0 0 0 0 0 0 0 0 0 0 0 0 
0 0 0 0 0 0 0 0 0 0 0 0 0 0 0 0 0 0 0 0 0 0 0 0 0 0 0 0 0 0 0 0 0 0 0 0 0 0 0 0 0 0 0 0 0 0 0 0 0 0 0 0 0 0 0 0 0 0 0 0 0 0 0 0 0 0 0 0 0 0 0 0 0 0 0 0 0 0 0 0 0 0 0 0 0 0 0 0 0 0 0 0 0 0 0 0 0 0 0 0 0 0 0 0 0 0 0 0 0 0 0 0 0 0 0 0 0 0 0 0 0 0 0 0 0 0 0 0 0 0 0 0 0 0 0 0 0 0 0 0 0 0 0 0 0 0 0 0 0 0 0 0 0 0 0 0 0 0 0 0 0 0 0 0 0 0 0 0 0 0 0 0 0 0 0 0 0 0 0 0 
0 0 0 0 0 0 0 0 0 0 0 0 0 0 0 0 0 0 0 0 0 0 0 0 0 0 0 0 0 0 0 0 0 0 0 0 0 0 0 0 0 0 0 0 0 0 0 0 0 0 0 0 0 0 0 0 0 0 0 0 0 0 0 0 0 0 0 0 0 0 0 0 0 0 0 0 0 0 0 0 0 0 0 0 0 0 0 0 0 0 0 0 0 0 0 0 0 0 0 0 0 0 0 0 0 0 0 0 0 0 0 0 0 0 0 0 0 0 0 0 0 0 0 0 0 0 0 0 0 0 0 0 0 0 0 0 0 0 0 0 0 0 0 0 0 0 0 0 0 0 0 0 0 0 0 0 0 0 0 0 0 0 0 0 0 0 0 0 0 0 0 0 0 0 0 0 0 0 0 0 
0 0 0 0 0 0 0 0 0 0 0 0 0 0 0 0 0 0 0 0 0 0 0 0 0 0 0 0 0 0 0 0 0 0 0 0 0 0 0 0 0 0 0 0 0 0 0 0 0 0 0 0 0 0 0 0 0 0 0 0 0 0 0 0 0 0 0 0 0 0 0 0 0 0 0 0 0 0 0 0 0 0 0 0 0 0 0 0 0 0 0 0 0 0 0 0 0 0 0 0 0 0 0 0 0 0 0 0 0 0 0 0 0 0 0 0 0 0 0 0 0 0 0 0 0 0 0 0 0 0 0 0 0 0 0 0 0 0 0 0 0 0 0 0 0 0 0 0 0 0 0 0 0 0 0 0 0 0 0 0 0 0 0 0 0 0 0 0 0 0 0 0 0 0 0 0 0 0 0 0 
0 0 0 0 0 0 0 0 0 0 0 0 0 0 0 0 0 0 0 0 0 0 0 0 0 0 0 0 0 0 0 0 0 0 0 0 0 0 0 0 0 0 0 0 0 0 0 0 0 0 0 0 0 0 0 0 0 0 0 0 0 0 0 0 0 0 0 0 0 0 0 0 0 0 0 0 0 0 0 0 0 0 0 0 0 0 0 0 0 0 0 0 0 0 0 0 0 0 0 0 0 0 0 0 0 0 0 0 0 0 0 0 0 0 0 0 0 0 0 0 0 0 0 0 0 0 0 0 0 0 0 0 0 0 0 0 0 0 0 0 0 0 0 0 0 0 0 0 0 0 0 0 0 0 0 0 0 0 0 0 0 0 0 0 0 0 0 0 0 0 0 0 0 0 0 0 0 0 0 0 
0 0 0 0 0 0 0 0 0 0 0 0 0 0 0 0 0 0 0 0 0 0 0 0 0 0 0 0 0 0 0 0 0 0 0 0 0 0 0 0 0 0 0 0 0 0 0 0 0 0 0 0 0 0 0 0 0 0 0 0 0 0 0 0 0 0 0 0 0 0 0 0 0 0 0 0 0 0 0 0 0 0 0 0 0 0 0 0 0 0 0 0 0 0 0 0 0 0 0 0 0 0 0 0 0 0 0 0 0 0 0 0 0 0 0 0 0 0 0 0 0 0 0 0 0 0 0 0 0 0 0 0 0 0 0 0 0 0 0 0 0 0 0 0 0 0 0 0 0 0 0 0 0 0 0 0 0 0 0 0 0 0 0 0 0 0 0 0 0 0 0 0 0 0 0 0 0 0 0 0 
0 0 0 0 0 0 0 0 0 0 0 0 0 0 0 0 0 0 0 0 0 0 0 0 0 0 0 0 0 0 0 0 0 0 0 0 0 0 0 0 0 0 0 0 0 0 0 0 0 0 0 0 0 0 0 0 0 0 0 0 0 0 0 0 0 0 0 0 0 0 0 0 0 0 0 0 0 0 0 0 0 0 0 0 0 0 0 0 0 0 0 0 0 0 0 0 0 0 0 0 0 0 0 0 0 0 0 0 0 0 0 0 0 0 0 0 0 0 0 0 0 0 0 0 0 0 0 0 0 0 0 0 0 0 0 0 0 0 0 0 0 0 0 0 0 0 0 0 0 0 0 0 0 0 0 0 0 0 0 0 0 0 0 0 0 0 0 0 0 0 0 0 0 0 0 0 0 0 0 0 
0 0 0 0 0 0 0 0 0 0 0 0 0 0 0 0 0 0 0 0 0 0 0 0 0 0 0 0 0 0 0 0 0 0 0 0 0 0 0 0 0 0 0 0 0 0 0 0 0 0 0 0 0 0 0 0 0 0 0 0 0 0 0 0 0 0 0 0 0 0 0 0 0 0 0 0 0 0 0 0 0 0 0 0 0 0 0 0 0 0 0 0 0 0 0 0 0 0 0 0 0 0 0 0 0 0 0 0 0 0 0 0 0 0 0 0 0 0 0 0 0 0 0 0 0 0 0 0 0 0 0 0 0 0 0 0 0 0 0 0 0 0 0 0 0 0 0 0 0 0 0 0 0 0 0 0 0 0 0 0 0 0 0 0 0 0 0 0 0 0 0 0 0 0 0 0 0 0 0 0 
