P3
# This is a dose file slice at depth 8 of 100
60 60
# now we give the maximum value of the RGB coordinates.
32920
2 0 0 3 0 0 1 0 0 3 0 0 4 0 0 3 0 0 3 0 0 1 0 0 7 0 0 5 0 0 6 0 0 7 0 0 3 0 0 4 0 0 7 0 0 8 0 0 3 0 0 4 0 0 5 0 0 5 0 0 11 0 0 8 0 0 5 0 0 5 0 0 4 0 0 11 0 0 5 0 0 4 0 0 4 0 0 3 0 0 8 0 0 9 0 0 6 0 0 3 0 0 7 0 0 10 0 0 6 0 0 9 0 0 3 0 0 4 0 0 2 0 0 5 0 0 4 0 0 10 0 0 6 0 0 2 0 0 7 0 0 4 0 0 5 0 0 3 0 0 5 0 0 3 0 0 5 0 0 4 0 0 2 0 0 4 0 0 1 0 0 2 0 0 2 0 0 1 0 0 
2 0 0 10 0 0 10 0 0 5 0 0 11 0 0 7 0 0 12 0 0 5 0 0 9 0 0 10 0 0 10 0 0 12 0 0 9 0 0 7 0 0 13 0 0 9 0 0 16 0 0 10 0 0 14 0 0 9 0 0 20 0 0 17 0 0 13 0 0 10 0 0 10 0 0 14 0 0 8 0 0 11 0 0 7 0 0 15 0 0 15 0 0 7 0 0 10 0 0 14 0 0 17 0 0 16 0 0 15 0 0 14 0 0 10 0 0 8 0 0 9 0 0 14 0 0 14 0 0 15 0 0 10 0 0 4 0 0 16 0 0 16 0 0 13 0 0 14 0 0 6 0 0 11 0 0 13 0 0 5 0 0 11 0 0 6 0 0 8 0 0 11 0 0 4 0 0 1 0 0 
3 0 0 5 0 0 10 0 0 8 0 0 7 0 0 9 0 0 11 0 0 10 0 0 9 0 0 12 0 0 10 0 0 14 0 0 14 0 0 9 0 0 18 0 0 12 0 0 15 0 0 12 0 0 13 0 0 13 0 0 16 0 0 11 0 0 15 0 0 10 0 0 17 0 0 15 0 0 15 0 0 18 0 0 13 0 0 16 0 0 10 0 0 12 0 0 13 0 0 18 0 0 23 0 0 16 0 0 10 0 0 12 0 0 15 0 0 16 0 0 12 0 0 19 0 0 19 0 0 13 0 0 13 0 0 8 0 0 19 0 0 15 0 0 17 0 0 11 0 0 10 0 0 10 0 0 8 0 0 9 0 0 5 0 0 10 0 0 9 0 0 2 0 0 4 0 0 10 0 0 
1 0 0 5 0 0 6 0 0 8 0 0 8 0 0 11 0 0 12 0 0 11 0 0 10 0 0 12 0 0 10 0 0 10 0 0 13 0 0 12 0 0 13 0 0 19 0 0 20 0 0 16 0 0 15 0 0 20 0 0 13 0 0 12 0 0 12 0 0 13 0 0 10 0 0 17 0 0 20 0 0 22 0 0 15 0 0 16 0 0 22 0 0 21 0 0 24 0 0 18 0 0 24 0 0 21 0 0 18 0 0 15 0 0 17 0 0 19 0 0 14 0 0 21 0 0 20 0 0 15 0 0 14 0 0 15 0 0 21 0 0 11 0 0 20 0 0 12 0 0 11 0 0 10 0 0 6 0 0 9 0 0 6 0 0 7 0 0 5 0 0 3 0 0 10 0 0 10 0 0 
3 0 0 3 0 0 8 0 0 11 0 0 10 0 0 11 0 0 6 0 0 13 0 0 13 0 0 12 0 0 10 0 0 12 0 0 12 0 0 13 0 0 14 0 0 20 0 0 16 0 0 17 0 0 15 0 0 26 0 0 22 0 0 19 0 0 10 0 0 13 0 0 15 0 0 15 0 0 13 0 0 20 0 0 14 0 0 25 0 0 21 0 0 24 0 0 18 0 0 24 0 0 15 0 0 20 0 0 16 0 0 19 0 0 18 0 0 17 0 0 16 0 0 25 0 0 20 0 0 22 0 0 18 0 0 15 0 0 19 0 0 14 0 0 14 0 0 12 0 0 14 0 0 8 0 0 11 0 0 3 0 0 9 0 0 10 0 0 3 0 0 6 0 0 12 0 0 5 0 0 
2 0 0 8 0 0 3 0 0 7 0 0 11 0 0 12 0 0 10 0 0 11 0 0 13 0 0 11 0 0 11 0 0 13 0 0 14 0 0 14 0 0 10 0 0 18 0 0 19 0 0 19 0 0 19 0 0 26 0 0 22 0 0 22 0 0 18 0 0 21 0 0 29 0 0 12 0 0 18 0 0 21 0 0 17 0 0 24 0 0 27 0 0 26 0 0 21 0 0 21 0 0 29 0 0 27 0 0 28 0 0 21 0 0 19 0 0 15 0 0 24 0 0 24 0 0 20 0 0 23 0 0 20 0 0 19 0 0 21 0 0 16 0 0 11 0 0 14 0 0 16 0 0 14 0 0 13 0 0 10 0 0 8 0 0 6 0 0 8 0 0 8 0 0 6 0 0 5 0 0 
2 0 0 7 0 0 9 0 0 8 0 0 9 0 0 11 0 0 13 0 0 14 0 0 13 0 0 10 0 0 15 0 0 21 0 0 23 0 0 22 0 0 19 0 0 25 0 0 27 0 0 16 0 0 27 0 0 28 0 0 25 0 0 32 0 0 33 0 0 29 0 0 35 0 0 18 0 0 23 0 0 21 0 0 25 0 0 34 0 0 29 0 0 18 0 0 23 0 0 26 0 0 24 0 0 35 0 0 25 0 0 27 0 0 32 0 0 23 0 0 29 0 0 22 0 0 26 0 0 24 0 0 25 0 0 22 0 0 22 0 0 19 0 0 12 0 0 21 0 0 18 0 0 16 0 0 11 0 0 13 0 0 9 0 0 13 0 0 9 0 0 10 0 0 9 0 0 5 0 0 
3 0 0 6 0 0 8 0 0 7 0 0 9 0 0 12 0 0 12 0 0 18 0 0 15 0 0 16 0 0 21 0 0 23 0 0 25 0 0 25 0 0 29 0 0 27 0 0 36 0 0 35 0 0 32 0 0 36 0 0 31 0 0 33 0 0 37 0 0 36 0 0 37 0 0 40 0 0 28 0 0 30 0 0 28 0 0 23 0 0 36 0 0 31 0 0 40 0 0 35 0 0 44 0 0 47 0 0 45 0 0 41 0 0 38 0 0 24 0 0 30 0 0 22 0 0 23 0 0 29 0 0 32 0 0 21 0 0 25 0 0 24 0 0 25 0 0 31 0 0 18 0 0 18 0 0 15 0 0 17 0 0 11 0 0 10 0 0 12 0 0 8 0 0 8 0 0 5 0 0 
6 0 0 9 0 0 10 0 0 11 0 0 10 0 0 10 0 0 17 0 0 20 0 0 16 0 0 22 0 0 16 0 0 24 0 0 31 0 0 34 0 0 30 0 0 36 0 0 48 0 0 45 0 0 43 0 0 51 0 0 42 0 0 53 0 0 49 0 0 42 0 0 50 0 0 47 0 0 44 0 0 53 0 0 50 0 0 41 0 0 38 0 0 58 0 0 61 0 0 38 0 0 47 0 0 37 0 0 54 0 0 49 0 0 35 0 0 47 0 0 41 0 0 40 0 0 28 0 0 36 0 0 47 0 0 30 0 0 35 0 0 25 0 0 38 0 0 26 0 0 17 0 0 23 0 0 24 0 0 23 0 0 14 0 0 12 0 0 14 0 0 16 0 0 9 0 0 7 0 0 
4 0 0 7 0 0 10 0 0 7 0 0 12 0 0 13 0 0 18 0 0 31 0 0 34 0 0 37 0 0 89 0 0 152 0 0 167 0 0 163 0 0 162 0 0 170 0 0 168 0 0 187 0 0 171 0 0 182 0 0 166 0 0 174 0 0 187 0 0 197 0 0 199 0 0 188 0 0 195 0 0 175 0 0 193 0 0 207 0 0 178 0 0 199 0 0 183 0 0 180 0 0 174 0 0 175 0 0 197 0 0 177 0 0 172 0 0 190 0 0 175 0 0 179 0 0 175 0 0 185 0 0 171 0 0 175 0 0 177 0 0 191 0 0 163 0 0 154 0 0 85 0 0 31 0 0 21 0 0 14 0 0 15 0 0 11 0 0 23 0 0 12 0 0 12 0 0 10 0 0 
4 0 0 11 0 0 8 0 0 10 0 0 15 0 0 9 0 0 14 0 0 32 0 0 24 0 0 105 0 0 6953 0 0 13931 0 0 14092 0 0 14148 0 0 13967 0 0 14151 0 0 13890 0 0 13920 0 0 14177 0 0 14025 0 0 14044 0 0 13989 0 0 13977 0 0 14224 0 0 14069 0 0 13890 0 0 13998 0 0 14163 0 0 14100 0 0 13939 0 0 13980 0 0 14125 0 0 13960 0 0 13897 0 0 14072 0 0 13867 0 0 13972 0 0 13993 0 0 14114 0 0 14015 0 0 13986 0 0 13885 0 0 14115 0 0 13822 0 0 13975 0 0 14061 0 0 13969 0 0 14132 0 0 14009 0 0 13852 0 0 7064 0 0 99 0 0 30 0 0 21 0 0 13 0 0 20 0 0 15 0 0 14 0 0 9 0 0 8 0 0 
1 0 0 7 0 0 12 0 0 11 0 0 9 0 0 12 0 0 12 0 0 17 0 0 35 0 0 163 0 0 13892 0 0 27751 0 0 27955 0 0 27996 0 0 27804 0 0 27726 0 0 27861 0 0 27854 0 0 27840 0 0 27852 0 0 28031 0 0 27796 0 0 27822 0 0 27856 0 0 27989 0 0 28036 0 0 27851 0 0 27653 0 0 27927 0 0 27768 0 0 27735 0 0 27814 0 0 27888 0 0 27781 0 0 27914 0 0 27929 0 0 27770 0 0 27716 0 0 28002 0 0 27905 0 0 27838 0 0 27795 0 0 27811 0 0 27940 0 0 27977 0 0 27875 0 0 28150 0 0 28054 0 0 28076 0 0 27640 0 0 13947 0 0 152 0 0 28 0 0 21 0 0 26 0 0 18 0 0 13 0 0 14 0 0 13 0 0 10 0 0 
2 0 0 5 0 0 9 0 0 19 0 0 16 0 0 12 0 0 18 0 0 22 0 0 28 0 0 190 0 0 14107 0 0 27575 0 0 27939 0 0 28047 0 0 28270 0 0 27817 0 0 28096 0 0 28100 0 0 27970 0 0 28037 0 0 28142 0 0 28015 0 0 27936 0 0 27973 0 0 27979 0 0 28055 0 0 27803 0 0 27906 0 0 27830 0 0 27874 0 0 27864 0 0 28205 0 0 28221 0 0 28050 0 0 27943 0 0 28102 0 0 27942 0 0 27535 0 0 27936 0 0 27958 0 0 27944 0 0 28251 0 0 28030 0 0 28042 0 0 28143 0 0 28098 0 0 28048 0 0 27974 0 0 27990 0 0 27758 0 0 13934 0 0 153 0 0 34 0 0 27 0 0 15 0 0 20 0 0 21 0 0 9 0 0 10 0 0 7 0 0 
1 0 0 7 0 0 15 0 0 14 0 0 21 0 0 13 0 0 20 0 0 20 0 0 37 0 0 181 0 0 14003 0 0 27822 0 0 28177 0 0 28013 0 0 27909 0 0 28171 0 0 28121 0 0 27830 0 0 28098 0 0 27885 0 0 27880 0 0 27957 0 0 27983 0 0 28157 0 0 28015 0 0 28291 0 0 27967 0 0 28091 0 0 28013 0 0 28190 0 0 27812 0 0 28024 0 0 27979 0 0 28174 0 0 27857 0 0 27978 0 0 28005 0 0 28050 0 0 27823 0 0 27809 0 0 27928 0 0 28252 0 0 27699 0 0 28145 0 0 27955 0 0 28183 0 0 28165 0 0 27931 0 0 28008 0 0 27918 0 0 13965 0 0 197 0 0 38 0 0 31 0 0 20 0 0 24 0 0 10 0 0 9 0 0 12 0 0 10 0 0 
4 0 0 11 0 0 12 0 0 14 0 0 18 0 0 24 0 0 20 0 0 27 0 0 34 0 0 184 0 0 13920 0 0 27792 0 0 27852 0 0 27941 0 0 28129 0 0 27897 0 0 28068 0 0 28034 0 0 27976 0 0 27876 0 0 28000 0 0 28154 0 0 27830 0 0 27879 0 0 28082 0 0 27934 0 0 27928 0 0 28170 0 0 27972 0 0 27943 0 0 27668 0 0 27750 0 0 27973 0 0 28398 0 0 28163 0 0 27986 0 0 28018 0 0 28087 0 0 28128 0 0 28190 0 0 27887 0 0 27870 0 0 28075 0 0 28175 0 0 27902 0 0 28023 0 0 28166 0 0 27961 0 0 28002 0 0 27984 0 0 14025 0 0 185 0 0 36 0 0 24 0 0 17 0 0 21 0 0 12 0 0 13 0 0 6 0 0 7 0 0 
4 0 0 8 0 0 12 0 0 18 0 0 22 0 0 27 0 0 24 0 0 41 0 0 50 0 0 173 0 0 14129 0 0 27491 0 0 28272 0 0 28246 0 0 27986 0 0 28219 0 0 27769 0 0 27897 0 0 27939 0 0 27989 0 0 28054 0 0 28121 0 0 28049 0 0 28204 0 0 28187 0 0 27932 0 0 28029 0 0 27982 0 0 28059 0 0 28198 0 0 27990 0 0 27821 0 0 27947 0 0 28004 0 0 28156 0 0 28139 0 0 28053 0 0 27812 0 0 28068 0 0 27841 0 0 27953 0 0 28088 0 0 28011 0 0 28050 0 0 28016 0 0 27765 0 0 28121 0 0 27636 0 0 28161 0 0 27913 0 0 14217 0 0 176 0 0 36 0 0 30 0 0 19 0 0 14 0 0 16 0 0 16 0 0 10 0 0 9 0 0 
5 0 0 16 0 0 21 0 0 20 0 0 17 0 0 23 0 0 29 0 0 34 0 0 57 0 0 190 0 0 14052 0 0 27949 0 0 27930 0 0 28200 0 0 28305 0 0 27856 0 0 27804 0 0 27846 0 0 28053 0 0 27855 0 0 27921 0 0 28053 0 0 27902 0 0 27951 0 0 28240 0 0 28108 0 0 28030 0 0 27805 0 0 28038 0 0 28316 0 0 28127 0 0 28159 0 0 28235 0 0 27941 0 0 28186 0 0 27771 0 0 27745 0 0 27977 0 0 27777 0 0 28019 0 0 27823 0 0 27946 0 0 27899 0 0 27976 0 0 27887 0 0 27867 0 0 28065 0 0 27858 0 0 28256 0 0 28013 0 0 13853 0 0 176 0 0 26 0 0 36 0 0 32 0 0 22 0 0 21 0 0 18 0 0 10 0 0 9 0 0 
7 0 0 18 0 0 16 0 0 19 0 0 25 0 0 29 0 0 32 0 0 42 0 0 61 0 0 168 0 0 13927 0 0 27878 0 0 27975 0 0 28102 0 0 27925 0 0 27939 0 0 28013 0 0 28000 0 0 27995 0 0 27997 0 0 28057 0 0 28192 0 0 27835 0 0 27969 0 0 28103 0 0 27957 0 0 28256 0 0 28062 0 0 28215 0 0 28150 0 0 28156 0 0 28157 0 0 27819 0 0 28132 0 0 27919 0 0 28157 0 0 28035 0 0 28444 0 0 28171 0 0 28006 0 0 28102 0 0 27722 0 0 28037 0 0 28407 0 0 28150 0 0 27960 0 0 27784 0 0 27969 0 0 27995 0 0 28015 0 0 13994 0 0 177 0 0 61 0 0 52 0 0 22 0 0 25 0 0 17 0 0 14 0 0 8 0 0 11 0 0 
6 0 0 15 0 0 13 0 0 23 0 0 28 0 0 26 0 0 26 0 0 30 0 0 36 0 0 177 0 0 13935 0 0 28007 0 0 27938 0 0 27877 0 0 28273 0 0 28058 0 0 27925 0 0 28255 0 0 27929 0 0 28066 0 0 28054 0 0 28236 0 0 27959 0 0 27881 0 0 28104 0 0 28030 0 0 28209 0 0 28067 0 0 27979 0 0 28127 0 0 27886 0 0 28043 0 0 28059 0 0 28078 0 0 28043 0 0 28074 0 0 28053 0 0 28138 0 0 28203 0 0 28162 0 0 27987 0 0 28275 0 0 27837 0 0 28272 0 0 28122 0 0 28192 0 0 28205 0 0 27868 0 0 28273 0 0 27787 0 0 14095 0 0 177 0 0 55 0 0 32 0 0 31 0 0 23 0 0 19 0 0 17 0 0 14 0 0 12 0 0 
5 0 0 6 0 0 6 0 0 12 0 0 16 0 0 17 0 0 27 0 0 36 0 0 46 0 0 185 0 0 14098 0 0 27726 0 0 28131 0 0 28025 0 0 28000 0 0 28382 0 0 28059 0 0 27985 0 0 28060 0 0 27841 0 0 28186 0 0 28105 0 0 28061 0 0 28055 0 0 28282 0 0 27945 0 0 28237 0 0 28021 0 0 28097 0 0 28144 0 0 28109 0 0 28292 0 0 27899 0 0 28030 0 0 27763 0 0 28165 0 0 28143 0 0 27886 0 0 28161 0 0 27993 0 0 28019 0 0 27978 0 0 27835 0 0 28138 0 0 27967 0 0 28339 0 0 27985 0 0 27977 0 0 27821 0 0 27746 0 0 14042 0 0 187 0 0 45 0 0 25 0 0 25 0 0 24 0 0 22 0 0 20 0 0 19 0 0 17 0 0 
5 0 0 16 0 0 14 0 0 12 0 0 17 0 0 20 0 0 21 0 0 33 0 0 60 0 0 196 0 0 14126 0 0 27820 0 0 28012 0 0 27761 0 0 28137 0 0 28177 0 0 28044 0 0 28009 0 0 28149 0 0 28213 0 0 27969 0 0 28155 0 0 27927 0 0 28051 0 0 28039 0 0 28045 0 0 28223 0 0 27907 0 0 27995 0 0 27926 0 0 27782 0 0 28012 0 0 27807 0 0 28218 0 0 28186 0 0 28277 0 0 28057 0 0 28034 0 0 28171 0 0 28095 0 0 28301 0 0 27954 0 0 28165 0 0 27929 0 0 28039 0 0 28174 0 0 28032 0 0 28094 0 0 27790 0 0 27946 0 0 14004 0 0 174 0 0 50 0 0 27 0 0 23 0 0 21 0 0 24 0 0 20 0 0 19 0 0 15 0 0 
2 0 0 7 0 0 11 0 0 12 0 0 23 0 0 23 0 0 22 0 0 26 0 0 43 0 0 181 0 0 13935 0 0 27921 0 0 27975 0 0 28033 0 0 27785 0 0 28169 0 0 27804 0 0 28110 0 0 28099 0 0 28003 0 0 28032 0 0 28030 0 0 28093 0 0 27830 0 0 28029 0 0 27963 0 0 27972 0 0 27976 0 0 27825 0 0 28126 0 0 27910 0 0 27820 0 0 28212 0 0 28216 0 0 28034 0 0 28082 0 0 28070 0 0 28024 0 0 27995 0 0 28152 0 0 28285 0 0 28041 0 0 27985 0 0 27945 0 0 28049 0 0 27719 0 0 27854 0 0 28092 0 0 27955 0 0 27874 0 0 14143 0 0 191 0 0 44 0 0 38 0 0 27 0 0 26 0 0 23 0 0 16 0 0 12 0 0 11 0 0 
3 0 0 9 0 0 16 0 0 13 0 0 17 0 0 24 0 0 24 0 0 25 0 0 37 0 0 170 0 0 14074 0 0 27767 0 0 27992 0 0 28352 0 0 27890 0 0 28081 0 0 27957 0 0 28259 0 0 27903 0 0 27782 0 0 28180 0 0 28168 0 0 27946 0 0 27848 0 0 28001 0 0 28120 0 0 27886 0 0 28176 0 0 27967 0 0 27897 0 0 27848 0 0 28080 0 0 28103 0 0 28062 0 0 27873 0 0 27936 0 0 28087 0 0 28079 0 0 28248 0 0 28123 0 0 28003 0 0 27870 0 0 28015 0 0 28009 0 0 27818 0 0 28063 0 0 28108 0 0 27990 0 0 27687 0 0 27764 0 0 14035 0 0 187 0 0 49 0 0 32 0 0 30 0 0 34 0 0 30 0 0 21 0 0 20 0 0 18 0 0 
7 0 0 12 0 0 12 0 0 14 0 0 24 0 0 23 0 0 30 0 0 35 0 0 42 0 0 200 0 0 14130 0 0 27829 0 0 27929 0 0 27706 0 0 27920 0 0 28202 0 0 27983 0 0 28036 0 0 28064 0 0 28130 0 0 28130 0 0 27894 0 0 27960 0 0 27959 0 0 28088 0 0 28166 0 0 28296 0 0 27820 0 0 27946 0 0 28164 0 0 27751 0 0 27955 0 0 28042 0 0 27786 0 0 27944 0 0 28014 0 0 27853 0 0 27923 0 0 28248 0 0 28148 0 0 27954 0 0 28034 0 0 28063 0 0 27931 0 0 27964 0 0 28033 0 0 27769 0 0 28029 0 0 28069 0 0 27740 0 0 14044 0 0 176 0 0 35 0 0 32 0 0 35 0 0 33 0 0 25 0 0 21 0 0 14 0 0 14 0 0 
5 0 0 11 0 0 12 0 0 14 0 0 13 0 0 18 0 0 25 0 0 42 0 0 45 0 0 191 0 0 13856 0 0 28114 0 0 28133 0 0 27789 0 0 28159 0 0 28068 0 0 28063 0 0 28403 0 0 27826 0 0 28095 0 0 27950 0 0 28274 0 0 28025 0 0 28042 0 0 28220 0 0 28037 0 0 28016 0 0 28201 0 0 28150 0 0 28027 0 0 27958 0 0 28115 0 0 28194 0 0 28190 0 0 28019 0 0 27969 0 0 28219 0 0 28143 0 0 28139 0 0 28340 0 0 27902 0 0 28295 0 0 27886 0 0 28019 0 0 28046 0 0 27975 0 0 28270 0 0 27857 0 0 28130 0 0 27921 0 0 14018 0 0 190 0 0 48 0 0 41 0 0 28 0 0 31 0 0 20 0 0 11 0 0 8 0 0 6 0 0 
8 0 0 12 0 0 13 0 0 12 0 0 16 0 0 18 0 0 27 0 0 39 0 0 51 0 0 200 0 0 13820 0 0 27785 0 0 28001 0 0 28072 0 0 27751 0 0 27913 0 0 28051 0 0 28156 0 0 28073 0 0 27972 0 0 28105 0 0 28122 0 0 27959 0 0 28098 0 0 27995 0 0 28031 0 0 27947 0 0 28061 0 0 28018 0 0 28016 0 0 28081 0 0 27986 0 0 27829 0 0 28142 0 0 28092 0 0 28112 0 0 28169 0 0 28211 0 0 28039 0 0 27927 0 0 27937 0 0 28022 0 0 27883 0 0 27872 0 0 27973 0 0 28113 0 0 27918 0 0 28135 0 0 27853 0 0 27904 0 0 13859 0 0 185 0 0 52 0 0 48 0 0 39 0 0 15 0 0 15 0 0 8 0 0 9 0 0 7 0 0 
5 0 0 12 0 0 12 0 0 12 0 0 13 0 0 21 0 0 23 0 0 34 0 0 49 0 0 171 0 0 13911 0 0 27928 0 0 27952 0 0 28238 0 0 27961 0 0 28018 0 0 28149 0 0 28098 0 0 28001 0 0 27878 0 0 28103 0 0 27816 0 0 28294 0 0 27840 0 0 28035 0 0 28297 0 0 28104 0 0 27867 0 0 27884 0 0 28096 0 0 28208 0 0 28204 0 0 27774 0 0 28021 0 0 27954 0 0 28133 0 0 27791 0 0 27826 0 0 28112 0 0 27997 0 0 28033 0 0 28230 0 0 27947 0 0 27926 0 0 28167 0 0 28134 0 0 28203 0 0 28066 0 0 28230 0 0 28014 0 0 13953 0 0 178 0 0 46 0 0 33 0 0 27 0 0 22 0 0 12 0 0 9 0 0 8 0 0 4 0 0 
8 0 0 13 0 0 8 0 0 11 0 0 17 0 0 24 0 0 29 0 0 31 0 0 39 0 0 190 0 0 14047 0 0 27934 0 0 27774 0 0 28337 0 0 27865 0 0 27944 0 0 27951 0 0 27898 0 0 28002 0 0 28082 0 0 27904 0 0 27999 0 0 28269 0 0 28142 0 0 27932 0 0 28032 0 0 28217 0 0 28263 0 0 27807 0 0 27559 0 0 27945 0 0 28081 0 0 28131 0 0 28172 0 0 28117 0 0 28014 0 0 27847 0 0 27982 0 0 28219 0 0 28114 0 0 28015 0 0 27867 0 0 28350 0 0 28092 0 0 27734 0 0 28093 0 0 27822 0 0 28126 0 0 28095 0 0 27546 0 0 14006 0 0 200 0 0 44 0 0 30 0 0 22 0 0 20 0 0 14 0 0 14 0 0 12 0 0 12 0 0 
7 0 0 14 0 0 12 0 0 12 0 0 11 0 0 32 0 0 28 0 0 41 0 0 57 0 0 207 0 0 14033 0 0 27836 0 0 27924 0 0 28039 0 0 27849 0 0 27922 0 0 28017 0 0 28030 0 0 28138 0 0 28135 0 0 28105 0 0 28154 0 0 28006 0 0 28141 0 0 27903 0 0 27998 0 0 28240 0 0 28260 0 0 28040 0 0 27758 0 0 28022 0 0 28102 0 0 27987 0 0 28266 0 0 27992 0 0 28063 0 0 28060 0 0 27798 0 0 28058 0 0 28045 0 0 28095 0 0 28118 0 0 28117 0 0 27851 0 0 28117 0 0 27892 0 0 27900 0 0 27825 0 0 27810 0 0 27901 0 0 13956 0 0 180 0 0 46 0 0 25 0 0 18 0 0 16 0 0 12 0 0 13 0 0 19 0 0 20 0 0 
5 0 0 12 0 0 15 0 0 15 0 0 12 0 0 19 0 0 33 0 0 38 0 0 54 0 0 195 0 0 13950 0 0 27950 0 0 28098 0 0 28025 0 0 28205 0 0 28135 0 0 28202 0 0 27879 0 0 27935 0 0 28062 0 0 27983 0 0 28058 0 0 27742 0 0 28032 0 0 27995 0 0 27944 0 0 27998 0 0 27955 0 0 28209 0 0 28142 0 0 27917 0 0 28199 0 0 28106 0 0 27990 0 0 28052 0 0 27915 0 0 28208 0 0 28096 0 0 28138 0 0 28041 0 0 28219 0 0 28064 0 0 27980 0 0 27845 0 0 27933 0 0 27840 0 0 28179 0 0 28057 0 0 27992 0 0 28047 0 0 14043 0 0 189 0 0 37 0 0 29 0 0 32 0 0 26 0 0 19 0 0 23 0 0 17 0 0 9 0 0 
7 0 0 19 0 0 18 0 0 22 0 0 22 0 0 19 0 0 28 0 0 43 0 0 55 0 0 166 0 0 14166 0 0 27927 0 0 28086 0 0 27895 0 0 27873 0 0 28145 0 0 27878 0 0 28169 0 0 28121 0 0 27897 0 0 27896 0 0 28091 0 0 28249 0 0 28073 0 0 28124 0 0 28032 0 0 28029 0 0 28027 0 0 28213 0 0 27952 0 0 28130 0 0 27792 0 0 28226 0 0 27879 0 0 27902 0 0 28047 0 0 28163 0 0 27883 0 0 28017 0 0 28044 0 0 28036 0 0 28012 0 0 28017 0 0 27919 0 0 28089 0 0 27899 0 0 28134 0 0 27940 0 0 28142 0 0 28053 0 0 14095 0 0 180 0 0 44 0 0 38 0 0 26 0 0 23 0 0 20 0 0 22 0 0 17 0 0 10 0 0 
7 0 0 16 0 0 22 0 0 18 0 0 20 0 0 23 0 0 29 0 0 41 0 0 47 0 0 184 0 0 14078 0 0 27886 0 0 27910 0 0 27857 0 0 27842 0 0 28114 0 0 28214 0 0 28038 0 0 28071 0 0 27955 0 0 27836 0 0 27912 0 0 28145 0 0 27974 0 0 27963 0 0 27855 0 0 28053 0 0 28156 0 0 28085 0 0 28358 0 0 28269 0 0 28088 0 0 28058 0 0 28198 0 0 28123 0 0 28144 0 0 28090 0 0 27717 0 0 27926 0 0 28041 0 0 27943 0 0 28126 0 0 28044 0 0 28193 0 0 27954 0 0 27739 0 0 28023 0 0 27845 0 0 28049 0 0 27772 0 0 13965 0 0 173 0 0 39 0 0 35 0 0 26 0 0 20 0 0 18 0 0 17 0 0 15 0 0 14 0 0 
10 0 0 17 0 0 23 0 0 21 0 0 15 0 0 24 0 0 24 0 0 29 0 0 43 0 0 194 0 0 14013 0 0 27934 0 0 27925 0 0 28245 0 0 27826 0 0 28001 0 0 28040 0 0 28301 0 0 28039 0 0 27835 0 0 27844 0 0 28031 0 0 28219 0 0 27790 0 0 28047 0 0 27955 0 0 27891 0 0 28170 0 0 28157 0 0 28173 0 0 28149 0 0 28055 0 0 28254 0 0 28135 0 0 28340 0 0 27986 0 0 28152 0 0 27903 0 0 28043 0 0 27946 0 0 28323 0 0 27886 0 0 28109 0 0 28236 0 0 28001 0 0 28071 0 0 27832 0 0 28020 0 0 27862 0 0 27970 0 0 14006 0 0 186 0 0 33 0 0 23 0 0 25 0 0 27 0 0 29 0 0 17 0 0 11 0 0 9 0 0 
10 0 0 23 0 0 21 0 0 18 0 0 22 0 0 24 0 0 26 0 0 33 0 0 43 0 0 203 0 0 14091 0 0 27940 0 0 28150 0 0 28075 0 0 28059 0 0 27821 0 0 28075 0 0 27924 0 0 28368 0 0 28006 0 0 28065 0 0 28031 0 0 28103 0 0 27955 0 0 27979 0 0 27898 0 0 28020 0 0 27893 0 0 28129 0 0 28076 0 0 27995 0 0 28012 0 0 28167 0 0 28112 0 0 28128 0 0 28090 0 0 28086 0 0 27979 0 0 27957 0 0 28159 0 0 27843 0 0 28013 0 0 27957 0 0 27819 0 0 28063 0 0 28303 0 0 27608 0 0 28159 0 0 27956 0 0 27900 0 0 13974 0 0 176 0 0 36 0 0 31 0 0 24 0 0 25 0 0 28 0 0 18 0 0 12 0 0 8 0 0 
9 0 0 15 0 0 15 0 0 12 0 0 13 0 0 31 0 0 34 0 0 43 0 0 58 0 0 178 0 0 14127 0 0 27974 0 0 28176 0 0 28106 0 0 28284 0 0 28096 0 0 28079 0 0 27880 0 0 28112 0 0 28221 0 0 28219 0 0 28096 0 0 27940 0 0 27931 0 0 28098 0 0 28111 0 0 28000 0 0 27992 0 0 28015 0 0 28058 0 0 28253 0 0 28226 0 0 28024 0 0 28194 0 0 27948 0 0 28209 0 0 27839 0 0 27999 0 0 28063 0 0 28150 0 0 27930 0 0 27882 0 0 27873 0 0 28049 0 0 28021 0 0 28136 0 0 28195 0 0 28054 0 0 28041 0 0 27903 0 0 14006 0 0 174 0 0 47 0 0 36 0 0 24 0 0 29 0 0 21 0 0 19 0 0 12 0 0 8 0 0 
4 0 0 11 0 0 14 0 0 25 0 0 31 0 0 25 0 0 27 0 0 32 0 0 38 0 0 191 0 0 14056 0 0 28014 0 0 28225 0 0 28320 0 0 28092 0 0 28189 0 0 28028 0 0 27865 0 0 27883 0 0 28231 0 0 28258 0 0 28184 0 0 28223 0 0 28028 0 0 28265 0 0 27869 0 0 28078 0 0 28326 0 0 28057 0 0 28227 0 0 27889 0 0 28120 0 0 27896 0 0 28020 0 0 28158 0 0 27846 0 0 27980 0 0 27823 0 0 27859 0 0 27980 0 0 27985 0 0 27958 0 0 28134 0 0 27686 0 0 28095 0 0 27937 0 0 28051 0 0 28082 0 0 27961 0 0 27879 0 0 14007 0 0 185 0 0 40 0 0 34 0 0 28 0 0 21 0 0 21 0 0 18 0 0 13 0 0 16 0 0 
8 0 0 14 0 0 16 0 0 16 0 0 24 0 0 23 0 0 24 0 0 30 0 0 45 0 0 186 0 0 14033 0 0 27773 0 0 28065 0 0 28194 0 0 28014 0 0 28149 0 0 28213 0 0 28018 0 0 27814 0 0 27675 0 0 27932 0 0 27970 0 0 27955 0 0 28153 0 0 28050 0 0 27910 0 0 27624 0 0 28201 0 0 28247 0 0 27986 0 0 28196 0 0 27947 0 0 27997 0 0 28132 0 0 28119 0 0 28129 0 0 28191 0 0 27949 0 0 27961 0 0 28052 0 0 28099 0 0 28131 0 0 28155 0 0 27994 0 0 27923 0 0 28029 0 0 27925 0 0 28185 0 0 28074 0 0 27740 0 0 14089 0 0 170 0 0 35 0 0 24 0 0 34 0 0 26 0 0 15 0 0 17 0 0 12 0 0 11 0 0 
7 0 0 13 0 0 13 0 0 17 0 0 27 0 0 23 0 0 35 0 0 41 0 0 37 0 0 186 0 0 14008 0 0 27975 0 0 28026 0 0 28201 0 0 28056 0 0 28250 0 0 28046 0 0 28124 0 0 28262 0 0 27908 0 0 27901 0 0 28173 0 0 27952 0 0 27920 0 0 28191 0 0 27981 0 0 27694 0 0 28123 0 0 27907 0 0 27731 0 0 27948 0 0 27882 0 0 27819 0 0 28167 0 0 27828 0 0 27895 0 0 28261 0 0 28183 0 0 27871 0 0 28230 0 0 28083 0 0 28105 0 0 28026 0 0 28122 0 0 28059 0 0 28112 0 0 28071 0 0 28086 0 0 27996 0 0 27653 0 0 13845 0 0 191 0 0 53 0 0 36 0 0 29 0 0 28 0 0 23 0 0 18 0 0 14 0 0 12 0 0 
5 0 0 11 0 0 15 0 0 22 0 0 24 0 0 24 0 0 24 0 0 38 0 0 65 0 0 183 0 0 14110 0 0 27868 0 0 28076 0 0 27972 0 0 28058 0 0 27823 0 0 27915 0 0 28023 0 0 28195 0 0 27879 0 0 27803 0 0 28202 0 0 28163 0 0 28018 0 0 27963 0 0 27779 0 0 28358 0 0 27896 0 0 28088 0 0 28310 0 0 27923 0 0 27794 0 0 28088 0 0 27932 0 0 27896 0 0 27995 0 0 27957 0 0 27839 0 0 28116 0 0 27941 0 0 28242 0 0 27884 0 0 27794 0 0 28392 0 0 27965 0 0 28167 0 0 27965 0 0 27993 0 0 28020 0 0 27707 0 0 13848 0 0 197 0 0 50 0 0 43 0 0 27 0 0 22 0 0 17 0 0 14 0 0 17 0 0 7 0 0 
2 0 0 12 0 0 15 0 0 21 0 0 29 0 0 32 0 0 26 0 0 38 0 0 40 0 0 205 0 0 14088 0 0 27717 0 0 27932 0 0 27946 0 0 28080 0 0 28157 0 0 28239 0 0 28246 0 0 28283 0 0 27893 0 0 27770 0 0 28008 0 0 28021 0 0 28158 0 0 28013 0 0 28066 0 0 28153 0 0 28004 0 0 28178 0 0 27952 0 0 27907 0 0 28150 0 0 28250 0 0 28200 0 0 28164 0 0 27906 0 0 28105 0 0 27998 0 0 28218 0 0 28006 0 0 27904 0 0 28095 0 0 28105 0 0 28215 0 0 27956 0 0 28042 0 0 28023 0 0 28119 0 0 28129 0 0 27889 0 0 13957 0 0 186 0 0 48 0 0 30 0 0 25 0 0 19 0 0 18 0 0 17 0 0 8 0 0 12 0 0 
8 0 0 13 0 0 14 0 0 16 0 0 21 0 0 26 0 0 20 0 0 28 0 0 36 0 0 178 0 0 14058 0 0 27882 0 0 27949 0 0 28153 0 0 27953 0 0 28182 0 0 27929 0 0 27810 0 0 27981 0 0 28119 0 0 28151 0 0 27929 0 0 28034 0 0 27894 0 0 27996 0 0 27870 0 0 28199 0 0 28038 0 0 27830 0 0 28122 0 0 28054 0 0 27994 0 0 28167 0 0 28296 0 0 27796 0 0 28248 0 0 27831 0 0 28112 0 0 28230 0 0 28035 0 0 27971 0 0 28371 0 0 28069 0 0 27987 0 0 28044 0 0 28195 0 0 27845 0 0 28231 0 0 27909 0 0 27884 0 0 13970 0 0 179 0 0 59 0 0 35 0 0 30 0 0 17 0 0 15 0 0 15 0 0 16 0 0 10 0 0 
3 0 0 10 0 0 18 0 0 17 0 0 14 0 0 25 0 0 26 0 0 34 0 0 42 0 0 195 0 0 14116 0 0 27751 0 0 27849 0 0 28109 0 0 28125 0 0 28017 0 0 28041 0 0 28251 0 0 28403 0 0 28029 0 0 28143 0 0 27901 0 0 27928 0 0 27873 0 0 27836 0 0 27961 0 0 28082 0 0 27936 0 0 28178 0 0 28101 0 0 28025 0 0 28210 0 0 27887 0 0 28002 0 0 28006 0 0 28097 0 0 28192 0 0 28014 0 0 27894 0 0 28072 0 0 28067 0 0 28039 0 0 27987 0 0 27835 0 0 28122 0 0 28117 0 0 27887 0 0 28008 0 0 27721 0 0 28011 0 0 13858 0 0 160 0 0 37 0 0 35 0 0 24 0 0 30 0 0 17 0 0 17 0 0 13 0 0 10 0 0 
4 0 0 13 0 0 12 0 0 12 0 0 18 0 0 15 0 0 20 0 0 30 0 0 45 0 0 157 0 0 14068 0 0 27888 0 0 27836 0 0 27743 0 0 28045 0 0 27941 0 0 28271 0 0 28028 0 0 28219 0 0 28023 0 0 28034 0 0 28013 0 0 28172 0 0 28244 0 0 27931 0 0 28048 0 0 28296 0 0 28151 0 0 28070 0 0 27920 0 0 27959 0 0 27946 0 0 28180 0 0 27861 0 0 27911 0 0 28038 0 0 27975 0 0 28193 0 0 28077 0 0 28241 0 0 27871 0 0 28099 0 0 28009 0 0 28275 0 0 28073 0 0 27961 0 0 28081 0 0 27996 0 0 28052 0 0 27759 0 0 14031 0 0 183 0 0 50 0 0 24 0 0 33 0 0 32 0 0 17 0 0 19 0 0 18 0 0 11 0 0 
7 0 0 12 0 0 7 0 0 14 0 0 22 0 0 20 0 0 20 0 0 31 0 0 52 0 0 182 0 0 13931 0 0 27854 0 0 28153 0 0 28160 0 0 28231 0 0 28227 0 0 27885 0 0 27958 0 0 28077 0 0 28051 0 0 27935 0 0 27910 0 0 27817 0 0 28340 0 0 28018 0 0 28064 0 0 28157 0 0 27911 0 0 27906 0 0 28015 0 0 28030 0 0 28087 0 0 28051 0 0 27772 0 0 28231 0 0 27947 0 0 28177 0 0 28118 0 0 27948 0 0 28296 0 0 27867 0 0 28230 0 0 27779 0 0 27897 0 0 27986 0 0 27856 0 0 28298 0 0 27883 0 0 27671 0 0 27851 0 0 14086 0 0 179 0 0 39 0 0 28 0 0 22 0 0 19 0 0 21 0 0 21 0 0 15 0 0 13 0 0 
2 0 0 5 0 0 4 0 0 11 0 0 15 0 0 21 0 0 24 0 0 29 0 0 40 0 0 175 0 0 14007 0 0 28081 0 0 27814 0 0 28073 0 0 28152 0 0 28081 0 0 28218 0 0 27853 0 0 27766 0 0 28214 0 0 27999 0 0 27939 0 0 28132 0 0 28180 0 0 28066 0 0 28223 0 0 27923 0 0 28214 0 0 28099 0 0 28232 0 0 28022 0 0 28103 0 0 27865 0 0 27779 0 0 27925 0 0 27972 0 0 28066 0 0 27927 0 0 27871 0 0 28050 0 0 27832 0 0 28280 0 0 27953 0 0 28084 0 0 28406 0 0 27959 0 0 27769 0 0 27757 0 0 28007 0 0 27651 0 0 14032 0 0 186 0 0 45 0 0 36 0 0 28 0 0 28 0 0 22 0 0 12 0 0 10 0 0 10 0 0 
4 0 0 8 0 0 12 0 0 21 0 0 18 0 0 19 0 0 26 0 0 30 0 0 41 0 0 166 0 0 14131 0 0 27794 0 0 27918 0 0 27919 0 0 27789 0 0 28030 0 0 28302 0 0 27860 0 0 27956 0 0 28078 0 0 27630 0 0 28051 0 0 28090 0 0 28103 0 0 28084 0 0 27907 0 0 27876 0 0 28101 0 0 28008 0 0 28197 0 0 27939 0 0 28148 0 0 28108 0 0 28231 0 0 28144 0 0 28024 0 0 28001 0 0 28050 0 0 27758 0 0 27804 0 0 27999 0 0 27986 0 0 28230 0 0 28044 0 0 28125 0 0 27932 0 0 27858 0 0 28061 0 0 27924 0 0 27600 0 0 14166 0 0 163 0 0 43 0 0 27 0 0 25 0 0 19 0 0 19 0 0 12 0 0 11 0 0 6 0 0 
5 0 0 6 0 0 12 0 0 15 0 0 23 0 0 22 0 0 23 0 0 27 0 0 42 0 0 171 0 0 14093 0 0 27973 0 0 27808 0 0 27983 0 0 28059 0 0 28107 0 0 28316 0 0 27936 0 0 28143 0 0 28199 0 0 27977 0 0 27945 0 0 27938 0 0 28083 0 0 27966 0 0 27953 0 0 27968 0 0 27889 0 0 27882 0 0 28034 0 0 28092 0 0 27760 0 0 27922 0 0 28101 0 0 28361 0 0 28143 0 0 28100 0 0 27955 0 0 28076 0 0 28169 0 0 27900 0 0 28150 0 0 27918 0 0 28052 0 0 27974 0 0 28055 0 0 28099 0 0 28077 0 0 27941 0 0 28128 0 0 13942 0 0 189 0 0 40 0 0 30 0 0 33 0 0 28 0 0 18 0 0 19 0 0 12 0 0 12 0 0 
3 0 0 10 0 0 14 0 0 14 0 0 12 0 0 17 0 0 16 0 0 24 0 0 27 0 0 152 0 0 13915 0 0 27983 0 0 27835 0 0 28138 0 0 27972 0 0 27956 0 0 27831 0 0 27915 0 0 28099 0 0 27965 0 0 27918 0 0 28231 0 0 28004 0 0 27950 0 0 28248 0 0 27951 0 0 28140 0 0 28021 0 0 28119 0 0 28007 0 0 28271 0 0 27739 0 0 28053 0 0 27897 0 0 28007 0 0 27921 0 0 28220 0 0 27815 0 0 27820 0 0 27850 0 0 28102 0 0 28157 0 0 28107 0 0 27994 0 0 27867 0 0 27966 0 0 28069 0 0 27891 0 0 27994 0 0 27710 0 0 14106 0 0 185 0 0 39 0 0 24 0 0 21 0 0 22 0 0 19 0 0 19 0 0 18 0 0 13 0 0 
6 0 0 16 0 0 13 0 0 16 0 0 17 0 0 15 0 0 23 0 0 24 0 0 33 0 0 182 0 0 14042 0 0 27648 0 0 27966 0 0 28032 0 0 27835 0 0 28022 0 0 27902 0 0 28052 0 0 28210 0 0 28094 0 0 27991 0 0 28173 0 0 28077 0 0 28132 0 0 28073 0 0 28253 0 0 28051 0 0 27930 0 0 28066 0 0 28206 0 0 28135 0 0 27809 0 0 27919 0 0 27849 0 0 27954 0 0 28143 0 0 27787 0 0 27973 0 0 27903 0 0 27937 0 0 28046 0 0 27910 0 0 27821 0 0 28058 0 0 27983 0 0 28156 0 0 27908 0 0 27955 0 0 27815 0 0 27706 0 0 13911 0 0 169 0 0 31 0 0 24 0 0 18 0 0 18 0 0 15 0 0 11 0 0 7 0 0 10 0 0 
6 0 0 6 0 0 12 0 0 16 0 0 19 0 0 17 0 0 19 0 0 22 0 0 25 0 0 168 0 0 14130 0 0 27704 0 0 27900 0 0 27858 0 0 27948 0 0 27636 0 0 27866 0 0 27933 0 0 27921 0 0 28059 0 0 28063 0 0 27900 0 0 27679 0 0 28137 0 0 27813 0 0 27899 0 0 27848 0 0 27854 0 0 27950 0 0 27873 0 0 27893 0 0 27744 0 0 27906 0 0 27894 0 0 27795 0 0 27962 0 0 28056 0 0 27779 0 0 27830 0 0 27780 0 0 27770 0 0 27529 0 0 28096 0 0 27748 0 0 27731 0 0 27781 0 0 28005 0 0 27939 0 0 27913 0 0 27462 0 0 13991 0 0 158 0 0 35 0 0 23 0 0 17 0 0 16 0 0 14 0 0 13 0 0 16 0 0 13 0 0 
4 0 0 12 0 0 21 0 0 18 0 0 16 0 0 13 0 0 19 0 0 15 0 0 33 0 0 108 0 0 6940 0 0 13809 0 0 13998 0 0 14130 0 0 14062 0 0 13915 0 0 13892 0 0 14116 0 0 14185 0 0 14029 0 0 14365 0 0 13990 0 0 14043 0 0 13877 0 0 14103 0 0 14193 0 0 14103 0 0 14141 0 0 13874 0 0 14017 0 0 13917 0 0 14092 0 0 13972 0 0 14133 0 0 13972 0 0 14118 0 0 14038 0 0 13846 0 0 13957 0 0 14015 0 0 14085 0 0 14055 0 0 13937 0 0 13800 0 0 14003 0 0 14011 0 0 13951 0 0 13984 0 0 14054 0 0 14011 0 0 7118 0 0 81 0 0 32 0 0 29 0 0 13 0 0 16 0 0 18 0 0 12 0 0 8 0 0 7 0 0 
8 0 0 16 0 0 18 0 0 10 0 0 12 0 0 11 0 0 12 0 0 17 0 0 22 0 0 31 0 0 81 0 0 148 0 0 147 0 0 155 0 0 174 0 0 170 0 0 177 0 0 170 0 0 209 0 0 157 0 0 161 0 0 184 0 0 156 0 0 192 0 0 161 0 0 188 0 0 187 0 0 192 0 0 193 0 0 176 0 0 193 0 0 190 0 0 187 0 0 188 0 0 173 0 0 175 0 0 162 0 0 195 0 0 184 0 0 174 0 0 167 0 0 174 0 0 185 0 0 172 0 0 169 0 0 165 0 0 173 0 0 183 0 0 174 0 0 166 0 0 90 0 0 19 0 0 14 0 0 19 0 0 12 0 0 11 0 0 15 0 0 14 0 0 15 0 0 8 0 0 
6 0 0 10 0 0 7 0 0 11 0 0 10 0 0 16 0 0 17 0 0 17 0 0 22 0 0 24 0 0 18 0 0 33 0 0 28 0 0 33 0 0 35 0 0 42 0 0 47 0 0 39 0 0 44 0 0 29 0 0 39 0 0 46 0 0 57 0 0 56 0 0 44 0 0 44 0 0 52 0 0 49 0 0 44 0 0 43 0 0 59 0 0 48 0 0 53 0 0 48 0 0 51 0 0 47 0 0 55 0 0 44 0 0 56 0 0 52 0 0 38 0 0 42 0 0 46 0 0 48 0 0 38 0 0 33 0 0 37 0 0 39 0 0 41 0 0 22 0 0 25 0 0 17 0 0 24 0 0 16 0 0 11 0 0 11 0 0 7 0 0 12 0 0 10 0 0 8 0 0 
3 0 0 6 0 0 6 0 0 12 0 0 12 0 0 8 0 0 14 0 0 19 0 0 13 0 0 14 0 0 30 0 0 33 0 0 26 0 0 19 0 0 30 0 0 31 0 0 35 0 0 40 0 0 28 0 0 31 0 0 35 0 0 39 0 0 47 0 0 29 0 0 44 0 0 38 0 0 36 0 0 40 0 0 35 0 0 29 0 0 42 0 0 36 0 0 27 0 0 39 0 0 40 0 0 27 0 0 47 0 0 35 0 0 39 0 0 28 0 0 30 0 0 29 0 0 26 0 0 34 0 0 26 0 0 21 0 0 24 0 0 32 0 0 27 0 0 24 0 0 22 0 0 21 0 0 17 0 0 15 0 0 14 0 0 9 0 0 12 0 0 11 0 0 8 0 0 8 0 0 
1 0 0 7 0 0 11 0 0 14 0 0 13 0 0 11 0 0 14 0 0 19 0 0 12 0 0 16 0 0 18 0 0 13 0 0 26 0 0 17 0 0 24 0 0 26 0 0 30 0 0 33 0 0 26 0 0 20 0 0 32 0 0 34 0 0 35 0 0 26 0 0 24 0 0 27 0 0 31 0 0 31 0 0 27 0 0 32 0 0 34 0 0 31 0 0 25 0 0 28 0 0 33 0 0 28 0 0 28 0 0 30 0 0 39 0 0 26 0 0 24 0 0 27 0 0 24 0 0 26 0 0 24 0 0 19 0 0 24 0 0 24 0 0 28 0 0 17 0 0 15 0 0 13 0 0 17 0 0 17 0 0 16 0 0 8 0 0 11 0 0 6 0 0 6 0 0 8 0 0 
3 0 0 8 0 0 8 0 0 10 0 0 6 0 0 10 0 0 12 0 0 9 0 0 9 0 0 13 0 0 15 0 0 17 0 0 18 0 0 15 0 0 17 0 0 25 0 0 25 0 0 17 0 0 22 0 0 24 0 0 24 0 0 23 0 0 31 0 0 24 0 0 18 0 0 19 0 0 25 0 0 31 0 0 12 0 0 26 0 0 27 0 0 26 0 0 24 0 0 24 0 0 20 0 0 19 0 0 24 0 0 21 0 0 25 0 0 30 0 0 27 0 0 24 0 0 24 0 0 21 0 0 21 0 0 17 0 0 20 0 0 11 0 0 15 0 0 21 0 0 12 0 0 11 0 0 10 0 0 9 0 0 14 0 0 8 0 0 3 0 0 9 0 0 7 0 0 9 0 0 
4 0 0 5 0 0 8 0 0 8 0 0 6 0 0 8 0 0 9 0 0 11 0 0 11 0 0 11 0 0 10 0 0 12 0 0 18 0 0 11 0 0 21 0 0 22 0 0 13 0 0 16 0 0 22 0 0 19 0 0 24 0 0 20 0 0 14 0 0 18 0 0 15 0 0 20 0 0 21 0 0 19 0 0 15 0 0 19 0 0 18 0 0 23 0 0 24 0 0 18 0 0 17 0 0 16 0 0 18 0 0 18 0 0 19 0 0 23 0 0 28 0 0 24 0 0 17 0 0 24 0 0 22 0 0 14 0 0 12 0 0 8 0 0 12 0 0 17 0 0 11 0 0 14 0 0 7 0 0 5 0 0 11 0 0 13 0 0 6 0 0 6 0 0 4 0 0 4 0 0 
2 0 0 5 0 0 7 0 0 8 0 0 3 0 0 6 0 0 9 0 0 11 0 0 9 0 0 6 0 0 7 0 0 13 0 0 12 0 0 7 0 0 19 0 0 10 0 0 13 0 0 10 0 0 15 0 0 20 0 0 17 0 0 14 0 0 11 0 0 16 0 0 13 0 0 18 0 0 13 0 0 21 0 0 17 0 0 28 0 0 20 0 0 16 0 0 14 0 0 17 0 0 14 0 0 12 0 0 12 0 0 18 0 0 11 0 0 16 0 0 22 0 0 18 0 0 16 0 0 19 0 0 15 0 0 15 0 0 9 0 0 6 0 0 5 0 0 17 0 0 14 0 0 14 0 0 16 0 0 5 0 0 3 0 0 7 0 0 8 0 0 5 0 0 7 0 0 5 0 0 
1 0 0 6 0 0 6 0 0 3 0 0 2 0 0 6 0 0 10 0 0 2 0 0 4 0 0 11 0 0 8 0 0 15 0 0 11 0 0 13 0 0 11 0 0 12 0 0 8 0 0 5 0 0 10 0 0 16 0 0 22 0 0 15 0 0 8 0 0 19 0 0 20 0 0 14 0 0 16 0 0 16 0 0 17 0 0 22 0 0 12 0 0 17 0 0 15 0 0 11 0 0 14 0 0 14 0 0 13 0 0 15 0 0 13 0 0 13 0 0 22 0 0 9 0 0 16 0 0 17 0 0 11 0 0 9 0 0 13 0 0 12 0 0 6 0 0 3 0 0 10 0 0 9 0 0 16 0 0 9 0 0 3 0 0 11 0 0 9 0 0 7 0 0 6 0 0 5 0 0 
3 0 0 9 0 0 7 0 0 5 0 0 3 0 0 7 0 0 6 0 0 4 0 0 9 0 0 12 0 0 9 0 0 8 0 0 9 0 0 12 0 0 8 0 0 14 0 0 6 0 0 10 0 0 11 0 0 23 0 0 16 0 0 11 0 0 15 0 0 12 0 0 18 0 0 15 0 0 15 0 0 14 0 0 19 0 0 22 0 0 14 0 0 13 0 0 14 0 0 10 0 0 14 0 0 13 0 0 14 0 0 12 0 0 12 0 0 17 0 0 11 0 0 15 0 0 12 0 0 13 0 0 9 0 0 8 0 0 8 0 0 13 0 0 5 0 0 3 0 0 8 0 0 4 0 0 9 0 0 13 0 0 7 0 0 8 0 0 6 0 0 9 0 0 5 0 0 3 0 0 
