P3
# This is a dose file slice at depth 34 of 100
60 60
# now we give the maximum value of the RGB coordinates.
32920
0 0 0 1 0 0 0 0 0 2 0 0 3 0 0 1 0 0 2 0 0 2 0 0 1 0 0 2 0 0 1 0 0 1 0 0 3 0 0 4 0 0 3 0 0 2 0 0 2 0 0 2 0 0 3 0 0 2 0 0 3 0 0 5 0 0 5 0 0 7 0 0 2 0 0 6 0 0 5 0 0 4 0 0 6 0 0 4 0 0 3 0 0 5 0 0 4 0 0 5 0 0 7 0 0 4 0 0 3 0 0 5 0 0 1 0 0 5 0 0 3 0 0 3 0 0 8 0 0 0 0 0 3 0 0 5 0 0 4 0 0 5 0 0 3 0 0 5 0 0 6 0 0 1 0 0 4 0 0 3 0 0 2 0 0 2 0 0 2 0 0 1 0 0 4 0 0 3 0 0 
1 0 0 3 0 0 4 0 0 0 0 0 6 0 0 5 0 0 3 0 0 4 0 0 4 0 0 4 0 0 4 0 0 7 0 0 5 0 0 4 0 0 5 0 0 6 0 0 8 0 0 2 0 0 8 0 0 5 0 0 5 0 0 11 0 0 13 0 0 12 0 0 11 0 0 16 0 0 11 0 0 14 0 0 13 0 0 9 0 0 8 0 0 8 0 0 11 0 0 8 0 0 18 0 0 5 0 0 11 0 0 7 0 0 7 0 0 9 0 0 5 0 0 9 0 0 8 0 0 3 0 0 12 0 0 12 0 0 8 0 0 8 0 0 9 0 0 8 0 0 5 0 0 6 0 0 5 0 0 6 0 0 4 0 0 2 0 0 6 0 0 4 0 0 5 0 0 3 0 0 
0 0 0 4 0 0 7 0 0 2 0 0 0 0 0 8 0 0 6 0 0 6 0 0 2 0 0 5 0 0 6 0 0 12 0 0 9 0 0 6 0 0 9 0 0 7 0 0 10 0 0 7 0 0 4 0 0 5 0 0 11 0 0 15 0 0 13 0 0 12 0 0 15 0 0 16 0 0 12 0 0 12 0 0 16 0 0 10 0 0 8 0 0 8 0 0 6 0 0 11 0 0 13 0 0 8 0 0 9 0 0 8 0 0 5 0 0 12 0 0 8 0 0 6 0 0 3 0 0 8 0 0 16 0 0 11 0 0 3 0 0 9 0 0 6 0 0 6 0 0 7 0 0 8 0 0 4 0 0 2 0 0 3 0 0 8 0 0 6 0 0 2 0 0 6 0 0 7 0 0 
4 0 0 0 0 0 6 0 0 9 0 0 4 0 0 5 0 0 3 0 0 10 0 0 6 0 0 6 0 0 3 0 0 7 0 0 13 0 0 11 0 0 8 0 0 9 0 0 16 0 0 11 0 0 8 0 0 5 0 0 8 0 0 16 0 0 19 0 0 11 0 0 23 0 0 12 0 0 12 0 0 26 0 0 10 0 0 10 0 0 13 0 0 9 0 0 12 0 0 16 0 0 14 0 0 12 0 0 12 0 0 11 0 0 10 0 0 13 0 0 10 0 0 11 0 0 7 0 0 14 0 0 14 0 0 13 0 0 11 0 0 12 0 0 6 0 0 10 0 0 8 0 0 5 0 0 2 0 0 5 0 0 5 0 0 6 0 0 6 0 0 4 0 0 6 0 0 7 0 0 
2 0 0 3 0 0 4 0 0 6 0 0 5 0 0 6 0 0 2 0 0 5 0 0 13 0 0 8 0 0 6 0 0 6 0 0 12 0 0 9 0 0 8 0 0 9 0 0 12 0 0 13 0 0 10 0 0 5 0 0 6 0 0 23 0 0 15 0 0 17 0 0 18 0 0 14 0 0 13 0 0 15 0 0 9 0 0 7 0 0 6 0 0 14 0 0 13 0 0 19 0 0 18 0 0 17 0 0 14 0 0 12 0 0 12 0 0 11 0 0 12 0 0 16 0 0 6 0 0 23 0 0 20 0 0 12 0 0 10 0 0 10 0 0 7 0 0 7 0 0 9 0 0 6 0 0 6 0 0 9 0 0 5 0 0 6 0 0 8 0 0 5 0 0 11 0 0 9 0 0 
2 0 0 4 0 0 3 0 0 4 0 0 7 0 0 6 0 0 6 0 0 4 0 0 15 0 0 10 0 0 12 0 0 9 0 0 18 0 0 15 0 0 10 0 0 7 0 0 14 0 0 16 0 0 12 0 0 12 0 0 9 0 0 12 0 0 16 0 0 21 0 0 17 0 0 14 0 0 12 0 0 24 0 0 14 0 0 11 0 0 9 0 0 14 0 0 17 0 0 20 0 0 16 0 0 16 0 0 17 0 0 18 0 0 20 0 0 12 0 0 13 0 0 23 0 0 13 0 0 22 0 0 16 0 0 19 0 0 11 0 0 7 0 0 14 0 0 13 0 0 5 0 0 4 0 0 5 0 0 6 0 0 6 0 0 8 0 0 4 0 0 4 0 0 7 0 0 6 0 0 
0 0 0 5 0 0 10 0 0 10 0 0 10 0 0 5 0 0 13 0 0 9 0 0 12 0 0 8 0 0 9 0 0 13 0 0 18 0 0 23 0 0 13 0 0 16 0 0 14 0 0 7 0 0 16 0 0 15 0 0 19 0 0 12 0 0 22 0 0 19 0 0 24 0 0 21 0 0 13 0 0 22 0 0 16 0 0 13 0 0 15 0 0 14 0 0 18 0 0 19 0 0 18 0 0 20 0 0 13 0 0 16 0 0 14 0 0 18 0 0 24 0 0 18 0 0 11 0 0 22 0 0 12 0 0 15 0 0 11 0 0 13 0 0 11 0 0 12 0 0 9 0 0 7 0 0 7 0 0 10 0 0 3 0 0 8 0 0 8 0 0 3 0 0 9 0 0 5 0 0 
3 0 0 2 0 0 5 0 0 7 0 0 8 0 0 12 0 0 6 0 0 13 0 0 13 0 0 12 0 0 12 0 0 15 0 0 16 0 0 20 0 0 12 0 0 16 0 0 19 0 0 19 0 0 25 0 0 19 0 0 23 0 0 16 0 0 30 0 0 24 0 0 21 0 0 28 0 0 24 0 0 21 0 0 17 0 0 17 0 0 15 0 0 19 0 0 24 0 0 26 0 0 17 0 0 25 0 0 30 0 0 30 0 0 18 0 0 19 0 0 24 0 0 20 0 0 21 0 0 19 0 0 18 0 0 19 0 0 13 0 0 8 0 0 14 0 0 18 0 0 9 0 0 12 0 0 14 0 0 11 0 0 8 0 0 8 0 0 5 0 0 5 0 0 3 0 0 1 0 0 
3 0 0 5 0 0 4 0 0 9 0 0 5 0 0 6 0 0 12 0 0 12 0 0 10 0 0 19 0 0 14 0 0 14 0 0 17 0 0 22 0 0 12 0 0 19 0 0 24 0 0 23 0 0 34 0 0 25 0 0 23 0 0 18 0 0 29 0 0 22 0 0 30 0 0 26 0 0 25 0 0 35 0 0 33 0 0 20 0 0 19 0 0 20 0 0 30 0 0 19 0 0 24 0 0 28 0 0 36 0 0 28 0 0 30 0 0 32 0 0 27 0 0 29 0 0 22 0 0 28 0 0 29 0 0 17 0 0 16 0 0 23 0 0 18 0 0 15 0 0 11 0 0 18 0 0 15 0 0 11 0 0 8 0 0 1 0 0 6 0 0 7 0 0 3 0 0 6 0 0 
4 0 0 11 0 0 8 0 0 5 0 0 12 0 0 7 0 0 12 0 0 12 0 0 12 0 0 18 0 0 73 0 0 121 0 0 105 0 0 113 0 0 113 0 0 105 0 0 108 0 0 94 0 0 115 0 0 114 0 0 124 0 0 111 0 0 123 0 0 114 0 0 127 0 0 118 0 0 127 0 0 108 0 0 120 0 0 132 0 0 117 0 0 105 0 0 125 0 0 121 0 0 110 0 0 113 0 0 137 0 0 123 0 0 116 0 0 109 0 0 100 0 0 97 0 0 102 0 0 116 0 0 87 0 0 111 0 0 104 0 0 121 0 0 108 0 0 102 0 0 56 0 0 24 0 0 18 0 0 12 0 0 6 0 0 2 0 0 7 0 0 4 0 0 4 0 0 9 0 0 
3 0 0 5 0 0 7 0 0 7 0 0 8 0 0 14 0 0 10 0 0 17 0 0 19 0 0 51 0 0 3773 0 0 7568 0 0 7752 0 0 7617 0 0 7684 0 0 7754 0 0 7617 0 0 7720 0 0 7781 0 0 7632 0 0 7570 0 0 7546 0 0 7609 0 0 7510 0 0 7637 0 0 7584 0 0 7659 0 0 7535 0 0 7612 0 0 7693 0 0 7597 0 0 7688 0 0 7503 0 0 7857 0 0 7610 0 0 7595 0 0 7762 0 0 7752 0 0 7691 0 0 7410 0 0 7739 0 0 7730 0 0 7681 0 0 7603 0 0 7671 0 0 7754 0 0 7647 0 0 7531 0 0 7539 0 0 7489 0 0 3838 0 0 68 0 0 16 0 0 12 0 0 10 0 0 7 0 0 9 0 0 12 0 0 12 0 0 8 0 0 
2 0 0 6 0 0 6 0 0 7 0 0 5 0 0 10 0 0 12 0 0 21 0 0 21 0 0 96 0 0 7496 0 0 15048 0 0 15090 0 0 14932 0 0 15167 0 0 15355 0 0 15015 0 0 15224 0 0 15057 0 0 15336 0 0 15118 0 0 15144 0 0 15220 0 0 15133 0 0 15037 0 0 15032 0 0 15058 0 0 15097 0 0 15097 0 0 15166 0 0 15102 0 0 15272 0 0 15033 0 0 15097 0 0 15175 0 0 15112 0 0 15108 0 0 15230 0 0 15275 0 0 15004 0 0 15212 0 0 15375 0 0 15201 0 0 15058 0 0 15189 0 0 15162 0 0 15079 0 0 15213 0 0 15205 0 0 15055 0 0 7625 0 0 107 0 0 25 0 0 12 0 0 9 0 0 12 0 0 16 0 0 15 0 0 6 0 0 4 0 0 
6 0 0 7 0 0 6 0 0 5 0 0 3 0 0 10 0 0 8 0 0 21 0 0 24 0 0 103 0 0 7596 0 0 15232 0 0 15336 0 0 15207 0 0 15286 0 0 15178 0 0 15175 0 0 15402 0 0 15388 0 0 15220 0 0 15322 0 0 15349 0 0 15269 0 0 15162 0 0 15347 0 0 15136 0 0 15191 0 0 15264 0 0 15587 0 0 15189 0 0 15245 0 0 15146 0 0 15181 0 0 15374 0 0 15289 0 0 15240 0 0 15219 0 0 15239 0 0 15326 0 0 15177 0 0 15427 0 0 15405 0 0 15382 0 0 15200 0 0 15124 0 0 15325 0 0 15273 0 0 15376 0 0 15137 0 0 15034 0 0 7599 0 0 110 0 0 27 0 0 16 0 0 15 0 0 14 0 0 12 0 0 8 0 0 4 0 0 2 0 0 
2 0 0 9 0 0 9 0 0 7 0 0 12 0 0 9 0 0 21 0 0 16 0 0 30 0 0 108 0 0 7633 0 0 15074 0 0 15121 0 0 15266 0 0 15294 0 0 15250 0 0 15282 0 0 15224 0 0 15269 0 0 15338 0 0 15096 0 0 15303 0 0 15355 0 0 15186 0 0 15239 0 0 15341 0 0 15229 0 0 15180 0 0 15479 0 0 15214 0 0 15290 0 0 15337 0 0 15297 0 0 15198 0 0 15162 0 0 15388 0 0 15308 0 0 15543 0 0 15116 0 0 15217 0 0 15092 0 0 15220 0 0 15043 0 0 15317 0 0 15342 0 0 15234 0 0 15206 0 0 15243 0 0 15244 0 0 15310 0 0 7604 0 0 113 0 0 26 0 0 15 0 0 14 0 0 11 0 0 9 0 0 8 0 0 8 0 0 8 0 0 
2 0 0 8 0 0 6 0 0 6 0 0 7 0 0 10 0 0 12 0 0 22 0 0 20 0 0 128 0 0 7659 0 0 15022 0 0 15201 0 0 15284 0 0 15197 0 0 14988 0 0 15252 0 0 15354 0 0 15255 0 0 15315 0 0 15269 0 0 15119 0 0 15196 0 0 15389 0 0 15296 0 0 15471 0 0 15154 0 0 15202 0 0 15203 0 0 15366 0 0 15239 0 0 15292 0 0 15294 0 0 15038 0 0 15390 0 0 15381 0 0 15175 0 0 15209 0 0 15346 0 0 15321 0 0 15164 0 0 15221 0 0 15138 0 0 15263 0 0 15335 0 0 15230 0 0 14943 0 0 15180 0 0 15209 0 0 15268 0 0 7576 0 0 114 0 0 22 0 0 13 0 0 16 0 0 15 0 0 13 0 0 9 0 0 9 0 0 5 0 0 
2 0 0 5 0 0 5 0 0 7 0 0 12 0 0 14 0 0 18 0 0 24 0 0 17 0 0 107 0 0 7451 0 0 15258 0 0 15283 0 0 15238 0 0 15284 0 0 15363 0 0 15295 0 0 15164 0 0 15131 0 0 15061 0 0 15274 0 0 15284 0 0 15220 0 0 15417 0 0 15317 0 0 15378 0 0 15295 0 0 15372 0 0 15309 0 0 15349 0 0 15263 0 0 15258 0 0 15266 0 0 15256 0 0 15256 0 0 15202 0 0 15087 0 0 15194 0 0 15311 0 0 15393 0 0 15114 0 0 15437 0 0 15341 0 0 15449 0 0 15090 0 0 15330 0 0 15409 0 0 15373 0 0 15264 0 0 15109 0 0 7627 0 0 104 0 0 27 0 0 21 0 0 16 0 0 21 0 0 12 0 0 10 0 0 10 0 0 9 0 0 
1 0 0 2 0 0 8 0 0 9 0 0 11 0 0 12 0 0 16 0 0 22 0 0 21 0 0 106 0 0 7687 0 0 14995 0 0 15185 0 0 15278 0 0 15248 0 0 15364 0 0 15330 0 0 15403 0 0 15367 0 0 15303 0 0 15369 0 0 15221 0 0 15242 0 0 15146 0 0 15234 0 0 15284 0 0 15232 0 0 15258 0 0 15315 0 0 15158 0 0 15457 0 0 15207 0 0 15101 0 0 15296 0 0 15342 0 0 15288 0 0 15144 0 0 15194 0 0 15203 0 0 15149 0 0 15295 0 0 15271 0 0 15184 0 0 15326 0 0 15337 0 0 15310 0 0 15170 0 0 15207 0 0 15368 0 0 15155 0 0 7612 0 0 107 0 0 31 0 0 20 0 0 14 0 0 12 0 0 10 0 0 11 0 0 12 0 0 12 0 0 
7 0 0 8 0 0 5 0 0 12 0 0 13 0 0 15 0 0 12 0 0 17 0 0 23 0 0 128 0 0 7551 0 0 15059 0 0 15268 0 0 15307 0 0 15090 0 0 15310 0 0 15134 0 0 15274 0 0 15082 0 0 15372 0 0 15385 0 0 15341 0 0 15120 0 0 15051 0 0 15322 0 0 15030 0 0 15272 0 0 15284 0 0 15426 0 0 15170 0 0 15302 0 0 15251 0 0 15290 0 0 15445 0 0 15237 0 0 15188 0 0 15116 0 0 15194 0 0 15389 0 0 15117 0 0 15260 0 0 15265 0 0 15238 0 0 15420 0 0 15344 0 0 15213 0 0 15382 0 0 15402 0 0 15361 0 0 15358 0 0 7556 0 0 114 0 0 22 0 0 18 0 0 16 0 0 10 0 0 8 0 0 6 0 0 8 0 0 9 0 0 
5 0 0 9 0 0 12 0 0 11 0 0 8 0 0 12 0 0 20 0 0 22 0 0 24 0 0 114 0 0 7701 0 0 15249 0 0 15275 0 0 15373 0 0 15290 0 0 15217 0 0 15218 0 0 15324 0 0 15256 0 0 15240 0 0 15139 0 0 15253 0 0 15099 0 0 15392 0 0 15307 0 0 15190 0 0 15285 0 0 15222 0 0 15232 0 0 15152 0 0 15264 0 0 15198 0 0 15409 0 0 15298 0 0 15557 0 0 15256 0 0 15497 0 0 15244 0 0 15191 0 0 15198 0 0 15447 0 0 15207 0 0 15457 0 0 15318 0 0 15356 0 0 15416 0 0 15233 0 0 15224 0 0 15147 0 0 15141 0 0 7560 0 0 125 0 0 26 0 0 20 0 0 20 0 0 11 0 0 6 0 0 7 0 0 6 0 0 6 0 0 
3 0 0 10 0 0 7 0 0 10 0 0 16 0 0 15 0 0 21 0 0 20 0 0 28 0 0 118 0 0 7706 0 0 15254 0 0 15223 0 0 15219 0 0 15097 0 0 15287 0 0 15342 0 0 15245 0 0 15354 0 0 15438 0 0 15260 0 0 15312 0 0 15106 0 0 15306 0 0 15052 0 0 15222 0 0 15327 0 0 15298 0 0 15428 0 0 15140 0 0 15329 0 0 15101 0 0 15214 0 0 15221 0 0 15065 0 0 15210 0 0 15245 0 0 15190 0 0 15391 0 0 15495 0 0 15060 0 0 15141 0 0 15212 0 0 15360 0 0 15279 0 0 15179 0 0 15308 0 0 15135 0 0 15397 0 0 15086 0 0 7587 0 0 121 0 0 20 0 0 20 0 0 15 0 0 19 0 0 16 0 0 11 0 0 10 0 0 11 0 0 
2 0 0 7 0 0 8 0 0 7 0 0 7 0 0 18 0 0 17 0 0 20 0 0 23 0 0 118 0 0 7699 0 0 15189 0 0 15241 0 0 15546 0 0 15316 0 0 15211 0 0 15110 0 0 15332 0 0 15251 0 0 15384 0 0 15316 0 0 15160 0 0 15345 0 0 15234 0 0 15203 0 0 15361 0 0 15294 0 0 15394 0 0 15221 0 0 15340 0 0 15286 0 0 15275 0 0 15180 0 0 15368 0 0 15435 0 0 15103 0 0 15302 0 0 15299 0 0 15380 0 0 15257 0 0 15441 0 0 15225 0 0 15195 0 0 15257 0 0 15251 0 0 15171 0 0 15295 0 0 15156 0 0 15126 0 0 15125 0 0 7644 0 0 111 0 0 24 0 0 18 0 0 21 0 0 18 0 0 17 0 0 10 0 0 11 0 0 10 0 0 
6 0 0 6 0 0 14 0 0 16 0 0 20 0 0 11 0 0 14 0 0 17 0 0 22 0 0 104 0 0 7578 0 0 15332 0 0 15171 0 0 15170 0 0 15280 0 0 14871 0 0 15325 0 0 15493 0 0 15342 0 0 15185 0 0 15386 0 0 15295 0 0 15369 0 0 15393 0 0 15428 0 0 15250 0 0 15201 0 0 15298 0 0 15435 0 0 15040 0 0 15292 0 0 15210 0 0 15412 0 0 15055 0 0 15584 0 0 14994 0 0 15032 0 0 15312 0 0 15258 0 0 15159 0 0 15252 0 0 15377 0 0 15428 0 0 15152 0 0 15190 0 0 15094 0 0 15300 0 0 15176 0 0 15336 0 0 15071 0 0 7650 0 0 109 0 0 24 0 0 20 0 0 12 0 0 16 0 0 20 0 0 8 0 0 6 0 0 4 0 0 
2 0 0 8 0 0 10 0 0 14 0 0 15 0 0 14 0 0 12 0 0 21 0 0 20 0 0 106 0 0 7560 0 0 15079 0 0 15373 0 0 15020 0 0 15173 0 0 15212 0 0 15263 0 0 15204 0 0 15330 0 0 15299 0 0 15175 0 0 15238 0 0 15212 0 0 15233 0 0 15461 0 0 15302 0 0 15251 0 0 15166 0 0 15442 0 0 15301 0 0 15245 0 0 15023 0 0 15236 0 0 15219 0 0 15345 0 0 15245 0 0 15375 0 0 15191 0 0 15267 0 0 15130 0 0 15328 0 0 15191 0 0 15368 0 0 15209 0 0 15244 0 0 15281 0 0 15479 0 0 15180 0 0 15482 0 0 15069 0 0 7652 0 0 116 0 0 29 0 0 28 0 0 26 0 0 16 0 0 9 0 0 10 0 0 6 0 0 11 0 0 
4 0 0 7 0 0 10 0 0 7 0 0 10 0 0 11 0 0 15 0 0 23 0 0 24 0 0 111 0 0 7670 0 0 15244 0 0 15222 0 0 15185 0 0 15192 0 0 15147 0 0 15351 0 0 14965 0 0 15266 0 0 15304 0 0 15290 0 0 15261 0 0 15145 0 0 15179 0 0 15404 0 0 15359 0 0 15305 0 0 15285 0 0 15306 0 0 15309 0 0 15284 0 0 15385 0 0 15148 0 0 15139 0 0 15240 0 0 15158 0 0 15255 0 0 15134 0 0 15086 0 0 15317 0 0 15054 0 0 15175 0 0 15396 0 0 15136 0 0 15274 0 0 15274 0 0 15125 0 0 15544 0 0 15301 0 0 15031 0 0 7668 0 0 108 0 0 28 0 0 16 0 0 11 0 0 13 0 0 13 0 0 10 0 0 8 0 0 12 0 0 
8 0 0 18 0 0 16 0 0 20 0 0 21 0 0 15 0 0 19 0 0 24 0 0 27 0 0 100 0 0 7601 0 0 15219 0 0 15276 0 0 15183 0 0 15121 0 0 15297 0 0 15315 0 0 15422 0 0 15424 0 0 15265 0 0 15204 0 0 15500 0 0 15041 0 0 15358 0 0 15260 0 0 15431 0 0 15415 0 0 15267 0 0 15219 0 0 15154 0 0 15140 0 0 15297 0 0 15283 0 0 15183 0 0 15275 0 0 15309 0 0 15243 0 0 15413 0 0 15024 0 0 15086 0 0 15104 0 0 15048 0 0 15202 0 0 15295 0 0 15153 0 0 15324 0 0 15412 0 0 15226 0 0 15126 0 0 15060 0 0 7559 0 0 118 0 0 29 0 0 15 0 0 12 0 0 9 0 0 4 0 0 3 0 0 12 0 0 11 0 0 
7 0 0 14 0 0 14 0 0 11 0 0 11 0 0 16 0 0 24 0 0 24 0 0 27 0 0 111 0 0 7665 0 0 15117 0 0 15201 0 0 15388 0 0 15300 0 0 15175 0 0 15133 0 0 15370 0 0 15244 0 0 15327 0 0 15120 0 0 15163 0 0 15302 0 0 15288 0 0 15149 0 0 15371 0 0 15372 0 0 15336 0 0 15045 0 0 15422 0 0 15200 0 0 15180 0 0 15346 0 0 15266 0 0 15411 0 0 15260 0 0 15156 0 0 15407 0 0 15172 0 0 15222 0 0 15275 0 0 15276 0 0 15341 0 0 15181 0 0 15324 0 0 15303 0 0 15303 0 0 15165 0 0 15208 0 0 14942 0 0 7594 0 0 93 0 0 23 0 0 19 0 0 16 0 0 12 0 0 11 0 0 12 0 0 13 0 0 12 0 0 
5 0 0 12 0 0 9 0 0 15 0 0 18 0 0 17 0 0 21 0 0 19 0 0 20 0 0 128 0 0 7653 0 0 15183 0 0 15234 0 0 15193 0 0 15443 0 0 15087 0 0 15278 0 0 15269 0 0 15293 0 0 15345 0 0 15320 0 0 15270 0 0 15214 0 0 15329 0 0 15222 0 0 15257 0 0 15318 0 0 15329 0 0 15303 0 0 15343 0 0 15234 0 0 15232 0 0 15202 0 0 15262 0 0 15247 0 0 15301 0 0 15399 0 0 15173 0 0 15278 0 0 15327 0 0 15345 0 0 15355 0 0 15222 0 0 15325 0 0 15283 0 0 15138 0 0 15231 0 0 15178 0 0 15060 0 0 14849 0 0 7644 0 0 117 0 0 26 0 0 12 0 0 9 0 0 13 0 0 11 0 0 17 0 0 11 0 0 9 0 0 
6 0 0 9 0 0 8 0 0 12 0 0 12 0 0 16 0 0 16 0 0 24 0 0 21 0 0 114 0 0 7625 0 0 15123 0 0 15185 0 0 15125 0 0 15140 0 0 15113 0 0 15395 0 0 15137 0 0 15180 0 0 15287 0 0 15454 0 0 15166 0 0 15237 0 0 15396 0 0 15253 0 0 15163 0 0 15244 0 0 15198 0 0 15103 0 0 15399 0 0 15290 0 0 15161 0 0 15201 0 0 15176 0 0 15222 0 0 15287 0 0 15134 0 0 15157 0 0 15157 0 0 15312 0 0 15178 0 0 15295 0 0 15245 0 0 15354 0 0 15325 0 0 15259 0 0 15170 0 0 15366 0 0 15270 0 0 15342 0 0 7645 0 0 110 0 0 25 0 0 24 0 0 11 0 0 12 0 0 14 0 0 11 0 0 11 0 0 10 0 0 
3 0 0 12 0 0 15 0 0 10 0 0 17 0 0 22 0 0 19 0 0 14 0 0 28 0 0 114 0 0 7565 0 0 15103 0 0 15405 0 0 15250 0 0 15170 0 0 15192 0 0 15121 0 0 15500 0 0 15379 0 0 15247 0 0 15250 0 0 15147 0 0 15395 0 0 15147 0 0 15296 0 0 15378 0 0 15152 0 0 15094 0 0 15228 0 0 15280 0 0 15383 0 0 15295 0 0 15147 0 0 15284 0 0 15257 0 0 15211 0 0 15449 0 0 15279 0 0 15157 0 0 15070 0 0 15347 0 0 15474 0 0 15292 0 0 15231 0 0 15428 0 0 15410 0 0 15412 0 0 15365 0 0 15276 0 0 15193 0 0 7655 0 0 124 0 0 28 0 0 19 0 0 19 0 0 15 0 0 16 0 0 11 0 0 8 0 0 10 0 0 
7 0 0 10 0 0 7 0 0 9 0 0 18 0 0 12 0 0 19 0 0 23 0 0 29 0 0 113 0 0 7540 0 0 15115 0 0 15272 0 0 15216 0 0 15383 0 0 15179 0 0 15187 0 0 15246 0 0 15181 0 0 15314 0 0 15111 0 0 15125 0 0 15377 0 0 15260 0 0 15067 0 0 15015 0 0 15478 0 0 15121 0 0 15212 0 0 15303 0 0 15371 0 0 15262 0 0 15333 0 0 15215 0 0 15352 0 0 15218 0 0 15270 0 0 15244 0 0 15144 0 0 15136 0 0 15212 0 0 15276 0 0 15429 0 0 15443 0 0 15272 0 0 15237 0 0 15390 0 0 15195 0 0 15197 0 0 15166 0 0 7698 0 0 115 0 0 31 0 0 24 0 0 21 0 0 19 0 0 15 0 0 22 0 0 19 0 0 12 0 0 
2 0 0 6 0 0 12 0 0 8 0 0 6 0 0 7 0 0 17 0 0 21 0 0 24 0 0 103 0 0 7603 0 0 15216 0 0 15422 0 0 15324 0 0 15300 0 0 15310 0 0 15324 0 0 15324 0 0 15343 0 0 15246 0 0 15438 0 0 15324 0 0 15278 0 0 15465 0 0 15181 0 0 15303 0 0 15281 0 0 15130 0 0 15422 0 0 15291 0 0 15225 0 0 15086 0 0 15441 0 0 15454 0 0 15169 0 0 15353 0 0 15130 0 0 15235 0 0 15131 0 0 15250 0 0 15337 0 0 15297 0 0 15107 0 0 15234 0 0 15337 0 0 15397 0 0 15156 0 0 15372 0 0 15282 0 0 15253 0 0 7654 0 0 119 0 0 31 0 0 23 0 0 28 0 0 23 0 0 17 0 0 10 0 0 10 0 0 8 0 0 
4 0 0 7 0 0 10 0 0 10 0 0 6 0 0 14 0 0 22 0 0 23 0 0 21 0 0 126 0 0 7654 0 0 15057 0 0 15192 0 0 15386 0 0 15364 0 0 15616 0 0 15145 0 0 15110 0 0 15093 0 0 14996 0 0 15408 0 0 15318 0 0 15206 0 0 15205 0 0 15438 0 0 15441 0 0 15228 0 0 15349 0 0 15269 0 0 15286 0 0 14990 0 0 15389 0 0 15196 0 0 15320 0 0 15141 0 0 15469 0 0 15333 0 0 15200 0 0 15248 0 0 15301 0 0 15421 0 0 15208 0 0 15224 0 0 15140 0 0 15328 0 0 15197 0 0 15348 0 0 15250 0 0 15462 0 0 15016 0 0 7858 0 0 124 0 0 34 0 0 28 0 0 24 0 0 13 0 0 20 0 0 11 0 0 10 0 0 6 0 0 
7 0 0 8 0 0 8 0 0 4 0 0 13 0 0 11 0 0 12 0 0 11 0 0 17 0 0 114 0 0 7597 0 0 15066 0 0 15285 0 0 15221 0 0 15360 0 0 15333 0 0 15184 0 0 15228 0 0 15219 0 0 15345 0 0 15299 0 0 15274 0 0 15251 0 0 15292 0 0 15368 0 0 15206 0 0 15436 0 0 15463 0 0 15207 0 0 15195 0 0 15135 0 0 15257 0 0 15366 0 0 15540 0 0 15367 0 0 15403 0 0 15284 0 0 15287 0 0 15299 0 0 15311 0 0 15164 0 0 15182 0 0 15456 0 0 15360 0 0 15460 0 0 15258 0 0 15461 0 0 15318 0 0 15300 0 0 15317 0 0 7660 0 0 120 0 0 28 0 0 26 0 0 13 0 0 21 0 0 17 0 0 12 0 0 11 0 0 11 0 0 
3 0 0 8 0 0 11 0 0 16 0 0 18 0 0 18 0 0 25 0 0 20 0 0 25 0 0 103 0 0 7631 0 0 15197 0 0 15095 0 0 15308 0 0 15291 0 0 15086 0 0 15373 0 0 15179 0 0 15418 0 0 15185 0 0 15411 0 0 15278 0 0 15324 0 0 15322 0 0 15220 0 0 15165 0 0 15246 0 0 15241 0 0 15179 0 0 15181 0 0 15405 0 0 15303 0 0 15281 0 0 15366 0 0 15103 0 0 15332 0 0 15444 0 0 15029 0 0 15262 0 0 15033 0 0 15300 0 0 15336 0 0 15385 0 0 15447 0 0 15261 0 0 15319 0 0 15064 0 0 15198 0 0 15143 0 0 15025 0 0 7573 0 0 123 0 0 30 0 0 22 0 0 26 0 0 19 0 0 14 0 0 20 0 0 17 0 0 11 0 0 
3 0 0 5 0 0 7 0 0 11 0 0 9 0 0 12 0 0 11 0 0 17 0 0 32 0 0 127 0 0 7758 0 0 15134 0 0 15376 0 0 15202 0 0 15348 0 0 15207 0 0 15281 0 0 15277 0 0 15174 0 0 15218 0 0 15188 0 0 15306 0 0 15321 0 0 15162 0 0 15298 0 0 15160 0 0 15280 0 0 15278 0 0 15264 0 0 15325 0 0 15301 0 0 15400 0 0 15273 0 0 15262 0 0 15157 0 0 15340 0 0 15218 0 0 15353 0 0 15128 0 0 15349 0 0 15209 0 0 15310 0 0 15312 0 0 15289 0 0 15098 0 0 15363 0 0 15202 0 0 15468 0 0 15210 0 0 15174 0 0 7555 0 0 122 0 0 18 0 0 24 0 0 21 0 0 12 0 0 14 0 0 9 0 0 10 0 0 8 0 0 
6 0 0 6 0 0 7 0 0 8 0 0 13 0 0 13 0 0 11 0 0 21 0 0 22 0 0 135 0 0 7674 0 0 15233 0 0 15239 0 0 15300 0 0 15248 0 0 15087 0 0 15224 0 0 15359 0 0 15083 0 0 15199 0 0 15288 0 0 15345 0 0 15193 0 0 15235 0 0 15173 0 0 15207 0 0 15254 0 0 15414 0 0 15182 0 0 15080 0 0 15168 0 0 15352 0 0 15233 0 0 15182 0 0 15284 0 0 15443 0 0 15340 0 0 15103 0 0 15448 0 0 15192 0 0 15133 0 0 15359 0 0 15216 0 0 15177 0 0 15468 0 0 15127 0 0 15019 0 0 15246 0 0 15285 0 0 15138 0 0 7707 0 0 118 0 0 25 0 0 20 0 0 21 0 0 14 0 0 12 0 0 10 0 0 10 0 0 13 0 0 
4 0 0 7 0 0 9 0 0 10 0 0 10 0 0 13 0 0 22 0 0 26 0 0 45 0 0 118 0 0 7751 0 0 15192 0 0 15353 0 0 15126 0 0 15267 0 0 15327 0 0 15389 0 0 15195 0 0 15140 0 0 15177 0 0 15186 0 0 15216 0 0 15094 0 0 15125 0 0 15152 0 0 15179 0 0 15191 0 0 15200 0 0 15258 0 0 15292 0 0 15231 0 0 15177 0 0 15213 0 0 15271 0 0 15167 0 0 15159 0 0 15417 0 0 15283 0 0 15205 0 0 15204 0 0 15103 0 0 15289 0 0 15224 0 0 15402 0 0 15164 0 0 15397 0 0 15406 0 0 15310 0 0 15120 0 0 15265 0 0 7562 0 0 110 0 0 33 0 0 22 0 0 24 0 0 11 0 0 12 0 0 11 0 0 6 0 0 6 0 0 
6 0 0 7 0 0 14 0 0 15 0 0 18 0 0 12 0 0 17 0 0 25 0 0 26 0 0 123 0 0 7745 0 0 15322 0 0 15145 0 0 15280 0 0 15205 0 0 15133 0 0 15114 0 0 15218 0 0 15276 0 0 15175 0 0 15150 0 0 15288 0 0 15406 0 0 15230 0 0 15132 0 0 15187 0 0 15217 0 0 15132 0 0 15127 0 0 15371 0 0 15226 0 0 15335 0 0 15190 0 0 15248 0 0 15103 0 0 15277 0 0 15231 0 0 15384 0 0 15578 0 0 15365 0 0 15200 0 0 15364 0 0 15492 0 0 15287 0 0 15215 0 0 15432 0 0 15455 0 0 15106 0 0 15186 0 0 15179 0 0 7598 0 0 121 0 0 35 0 0 24 0 0 16 0 0 12 0 0 10 0 0 7 0 0 8 0 0 8 0 0 
2 0 0 8 0 0 14 0 0 13 0 0 16 0 0 14 0 0 19 0 0 22 0 0 21 0 0 109 0 0 7664 0 0 15127 0 0 15073 0 0 15271 0 0 15335 0 0 15287 0 0 15071 0 0 15355 0 0 15180 0 0 15229 0 0 15291 0 0 15069 0 0 15265 0 0 15285 0 0 15402 0 0 15172 0 0 15311 0 0 15467 0 0 15276 0 0 15513 0 0 15118 0 0 15310 0 0 15328 0 0 15113 0 0 15179 0 0 15412 0 0 15137 0 0 15308 0 0 15163 0 0 15311 0 0 15177 0 0 15293 0 0 15265 0 0 15058 0 0 15286 0 0 15328 0 0 15211 0 0 15251 0 0 15220 0 0 15243 0 0 7615 0 0 108 0 0 32 0 0 28 0 0 19 0 0 10 0 0 13 0 0 12 0 0 12 0 0 5 0 0 
5 0 0 12 0 0 14 0 0 13 0 0 9 0 0 11 0 0 14 0 0 18 0 0 30 0 0 105 0 0 7769 0 0 15218 0 0 15229 0 0 15276 0 0 15297 0 0 15323 0 0 15437 0 0 15310 0 0 15248 0 0 15277 0 0 15180 0 0 15191 0 0 15346 0 0 15475 0 0 15276 0 0 15138 0 0 15226 0 0 15272 0 0 15368 0 0 15283 0 0 15206 0 0 15415 0 0 15269 0 0 15194 0 0 15344 0 0 15279 0 0 15104 0 0 15315 0 0 15160 0 0 15400 0 0 15270 0 0 15181 0 0 15264 0 0 15286 0 0 15249 0 0 15549 0 0 15393 0 0 15216 0 0 15360 0 0 15140 0 0 7796 0 0 115 0 0 17 0 0 22 0 0 23 0 0 19 0 0 16 0 0 12 0 0 5 0 0 4 0 0 
2 0 0 10 0 0 8 0 0 11 0 0 9 0 0 13 0 0 22 0 0 20 0 0 27 0 0 102 0 0 7620 0 0 15273 0 0 15293 0 0 15233 0 0 15415 0 0 15220 0 0 15360 0 0 15288 0 0 15252 0 0 15264 0 0 15078 0 0 14994 0 0 15399 0 0 15466 0 0 15459 0 0 15361 0 0 15218 0 0 15428 0 0 15429 0 0 15425 0 0 15114 0 0 15257 0 0 15270 0 0 15096 0 0 15257 0 0 15287 0 0 15395 0 0 15310 0 0 15504 0 0 15214 0 0 15287 0 0 15445 0 0 15146 0 0 15266 0 0 15199 0 0 15307 0 0 15246 0 0 15334 0 0 15346 0 0 15307 0 0 7458 0 0 120 0 0 26 0 0 11 0 0 13 0 0 12 0 0 9 0 0 12 0 0 9 0 0 6 0 0 
5 0 0 7 0 0 8 0 0 3 0 0 10 0 0 15 0 0 21 0 0 18 0 0 28 0 0 114 0 0 7654 0 0 15123 0 0 15158 0 0 15293 0 0 15234 0 0 15285 0 0 15249 0 0 15162 0 0 15365 0 0 15301 0 0 15403 0 0 15500 0 0 15343 0 0 15198 0 0 15249 0 0 15434 0 0 15190 0 0 15133 0 0 15376 0 0 15416 0 0 15321 0 0 15138 0 0 15302 0 0 15243 0 0 15220 0 0 15461 0 0 15278 0 0 15353 0 0 15297 0 0 15257 0 0 15239 0 0 15157 0 0 15148 0 0 15344 0 0 15383 0 0 15400 0 0 15368 0 0 15373 0 0 15206 0 0 15229 0 0 7704 0 0 98 0 0 25 0 0 17 0 0 16 0 0 13 0 0 11 0 0 7 0 0 6 0 0 9 0 0 
5 0 0 10 0 0 8 0 0 8 0 0 10 0 0 12 0 0 17 0 0 21 0 0 30 0 0 123 0 0 7564 0 0 15265 0 0 15249 0 0 15163 0 0 15148 0 0 15265 0 0 15179 0 0 15158 0 0 15292 0 0 15100 0 0 15264 0 0 15298 0 0 15466 0 0 15185 0 0 15420 0 0 15287 0 0 15266 0 0 15439 0 0 15304 0 0 15396 0 0 15423 0 0 15301 0 0 15296 0 0 15097 0 0 15059 0 0 14987 0 0 15305 0 0 15476 0 0 15320 0 0 15377 0 0 15238 0 0 15095 0 0 15373 0 0 15205 0 0 15400 0 0 15384 0 0 15394 0 0 15420 0 0 15269 0 0 14886 0 0 7533 0 0 102 0 0 20 0 0 13 0 0 14 0 0 21 0 0 16 0 0 14 0 0 6 0 0 7 0 0 
3 0 0 7 0 0 7 0 0 12 0 0 10 0 0 16 0 0 17 0 0 20 0 0 28 0 0 97 0 0 7642 0 0 15135 0 0 15120 0 0 15158 0 0 15307 0 0 15300 0 0 15169 0 0 15440 0 0 15036 0 0 15309 0 0 15132 0 0 15229 0 0 15291 0 0 15134 0 0 15315 0 0 15351 0 0 15339 0 0 15366 0 0 15181 0 0 15300 0 0 15256 0 0 15359 0 0 15464 0 0 15237 0 0 15154 0 0 15498 0 0 15253 0 0 15358 0 0 15495 0 0 15291 0 0 15221 0 0 15240 0 0 15396 0 0 15376 0 0 15432 0 0 15212 0 0 15245 0 0 15254 0 0 15109 0 0 15008 0 0 7599 0 0 100 0 0 24 0 0 15 0 0 14 0 0 15 0 0 13 0 0 13 0 0 11 0 0 6 0 0 
3 0 0 5 0 0 6 0 0 9 0 0 9 0 0 13 0 0 20 0 0 18 0 0 22 0 0 105 0 0 7656 0 0 15140 0 0 15119 0 0 15184 0 0 15302 0 0 15449 0 0 15238 0 0 15294 0 0 15206 0 0 15380 0 0 15094 0 0 15296 0 0 15425 0 0 15104 0 0 15226 0 0 15288 0 0 15153 0 0 15257 0 0 15296 0 0 15248 0 0 15289 0 0 15207 0 0 15118 0 0 15315 0 0 15103 0 0 15169 0 0 15163 0 0 15258 0 0 15314 0 0 15233 0 0 15281 0 0 15101 0 0 15221 0 0 15379 0 0 15101 0 0 15476 0 0 15174 0 0 15271 0 0 15237 0 0 15095 0 0 7553 0 0 105 0 0 24 0 0 18 0 0 10 0 0 13 0 0 12 0 0 6 0 0 9 0 0 6 0 0 
4 0 0 10 0 0 11 0 0 10 0 0 6 0 0 10 0 0 12 0 0 17 0 0 24 0 0 123 0 0 7655 0 0 15272 0 0 15323 0 0 15499 0 0 15328 0 0 15292 0 0 15279 0 0 15353 0 0 15247 0 0 15175 0 0 15220 0 0 15342 0 0 15268 0 0 15640 0 0 15276 0 0 15413 0 0 15442 0 0 15362 0 0 15431 0 0 15422 0 0 15372 0 0 15216 0 0 15498 0 0 15361 0 0 15238 0 0 15053 0 0 15433 0 0 15119 0 0 15637 0 0 15144 0 0 15101 0 0 15133 0 0 15195 0 0 15433 0 0 15174 0 0 15275 0 0 15242 0 0 15167 0 0 15215 0 0 15457 0 0 7474 0 0 121 0 0 24 0 0 18 0 0 17 0 0 10 0 0 13 0 0 11 0 0 8 0 0 6 0 0 
2 0 0 8 0 0 10 0 0 11 0 0 7 0 0 9 0 0 9 0 0 18 0 0 23 0 0 110 0 0 7507 0 0 15162 0 0 15125 0 0 14996 0 0 15274 0 0 15341 0 0 15272 0 0 15144 0 0 15182 0 0 15187 0 0 15182 0 0 15153 0 0 15065 0 0 15260 0 0 15268 0 0 15149 0 0 15300 0 0 15011 0 0 15212 0 0 15183 0 0 15220 0 0 15270 0 0 15455 0 0 15175 0 0 15193 0 0 15217 0 0 15344 0 0 15240 0 0 15512 0 0 15299 0 0 15346 0 0 15099 0 0 15301 0 0 15354 0 0 15267 0 0 15039 0 0 15211 0 0 15181 0 0 15206 0 0 15187 0 0 7599 0 0 103 0 0 24 0 0 15 0 0 10 0 0 9 0 0 12 0 0 10 0 0 6 0 0 8 0 0 
3 0 0 4 0 0 6 0 0 8 0 0 9 0 0 11 0 0 13 0 0 11 0 0 19 0 0 107 0 0 7601 0 0 15254 0 0 15242 0 0 15122 0 0 15612 0 0 15199 0 0 15209 0 0 15282 0 0 15085 0 0 15168 0 0 15227 0 0 15202 0 0 15301 0 0 15441 0 0 15304 0 0 15307 0 0 15321 0 0 15172 0 0 15237 0 0 15226 0 0 15383 0 0 15340 0 0 15093 0 0 15152 0 0 15375 0 0 15243 0 0 15198 0 0 15337 0 0 15296 0 0 15417 0 0 15220 0 0 15320 0 0 15216 0 0 15368 0 0 15220 0 0 15266 0 0 15191 0 0 15356 0 0 15170 0 0 15139 0 0 7568 0 0 99 0 0 21 0 0 12 0 0 24 0 0 14 0 0 8 0 0 12 0 0 6 0 0 6 0 0 
3 0 0 8 0 0 6 0 0 12 0 0 10 0 0 12 0 0 13 0 0 14 0 0 17 0 0 100 0 0 7675 0 0 15364 0 0 15417 0 0 15396 0 0 15081 0 0 15266 0 0 15165 0 0 15194 0 0 15416 0 0 15127 0 0 15317 0 0 15368 0 0 15136 0 0 15199 0 0 15414 0 0 15274 0 0 15356 0 0 15222 0 0 15279 0 0 15185 0 0 15440 0 0 15269 0 0 15062 0 0 15107 0 0 15169 0 0 15349 0 0 15240 0 0 15175 0 0 15057 0 0 15252 0 0 15123 0 0 15208 0 0 15050 0 0 15368 0 0 15293 0 0 15058 0 0 15234 0 0 15388 0 0 15084 0 0 15247 0 0 7616 0 0 90 0 0 12 0 0 14 0 0 12 0 0 12 0 0 12 0 0 8 0 0 12 0 0 10 0 0 
2 0 0 7 0 0 6 0 0 9 0 0 8 0 0 14 0 0 13 0 0 11 0 0 19 0 0 93 0 0 7673 0 0 15192 0 0 15002 0 0 15365 0 0 15067 0 0 15180 0 0 15114 0 0 15076 0 0 15078 0 0 15192 0 0 15164 0 0 14985 0 0 15427 0 0 15211 0 0 15308 0 0 15179 0 0 15118 0 0 15113 0 0 15108 0 0 14990 0 0 15126 0 0 15174 0 0 15198 0 0 15100 0 0 15084 0 0 15191 0 0 14996 0 0 15291 0 0 15116 0 0 15207 0 0 15196 0 0 15101 0 0 15257 0 0 15158 0 0 15316 0 0 15320 0 0 15045 0 0 15194 0 0 15285 0 0 15106 0 0 7572 0 0 109 0 0 18 0 0 13 0 0 9 0 0 11 0 0 6 0 0 7 0 0 2 0 0 4 0 0 
2 0 0 6 0 0 7 0 0 7 0 0 10 0 0 13 0 0 10 0 0 12 0 0 18 0 0 60 0 0 3710 0 0 7697 0 0 7381 0 0 7710 0 0 7549 0 0 7844 0 0 7512 0 0 7659 0 0 7732 0 0 7622 0 0 7664 0 0 7651 0 0 7690 0 0 7649 0 0 7503 0 0 7726 0 0 7748 0 0 7447 0 0 7696 0 0 7627 0 0 7669 0 0 7548 0 0 7638 0 0 7620 0 0 7712 0 0 7668 0 0 7662 0 0 7604 0 0 7467 0 0 7564 0 0 7667 0 0 7548 0 0 7593 0 0 7647 0 0 7581 0 0 7727 0 0 7784 0 0 7693 0 0 7616 0 0 7669 0 0 3638 0 0 73 0 0 17 0 0 10 0 0 10 0 0 7 0 0 13 0 0 6 0 0 3 0 0 4 0 0 
2 0 0 2 0 0 9 0 0 10 0 0 13 0 0 12 0 0 10 0 0 20 0 0 15 0 0 17 0 0 62 0 0 98 0 0 96 0 0 121 0 0 96 0 0 110 0 0 88 0 0 111 0 0 98 0 0 106 0 0 128 0 0 121 0 0 128 0 0 126 0 0 125 0 0 100 0 0 135 0 0 115 0 0 101 0 0 108 0 0 123 0 0 106 0 0 116 0 0 111 0 0 113 0 0 110 0 0 121 0 0 117 0 0 108 0 0 112 0 0 107 0 0 118 0 0 114 0 0 104 0 0 118 0 0 98 0 0 117 0 0 108 0 0 95 0 0 91 0 0 61 0 0 17 0 0 11 0 0 7 0 0 11 0 0 5 0 0 4 0 0 9 0 0 4 0 0 7 0 0 
1 0 0 7 0 0 10 0 0 7 0 0 11 0 0 14 0 0 16 0 0 15 0 0 13 0 0 23 0 0 18 0 0 16 0 0 16 0 0 24 0 0 13 0 0 19 0 0 21 0 0 26 0 0 14 0 0 24 0 0 31 0 0 42 0 0 24 0 0 21 0 0 35 0 0 29 0 0 25 0 0 28 0 0 30 0 0 36 0 0 32 0 0 20 0 0 27 0 0 30 0 0 27 0 0 39 0 0 30 0 0 20 0 0 26 0 0 35 0 0 23 0 0 21 0 0 28 0 0 21 0 0 26 0 0 26 0 0 28 0 0 24 0 0 19 0 0 24 0 0 21 0 0 14 0 0 10 0 0 8 0 0 3 0 0 12 0 0 8 0 0 5 0 0 5 0 0 6 0 0 
5 0 0 4 0 0 5 0 0 7 0 0 9 0 0 11 0 0 15 0 0 12 0 0 9 0 0 12 0 0 13 0 0 15 0 0 20 0 0 20 0 0 11 0 0 12 0 0 13 0 0 22 0 0 18 0 0 24 0 0 17 0 0 32 0 0 26 0 0 22 0 0 22 0 0 22 0 0 24 0 0 17 0 0 22 0 0 18 0 0 33 0 0 22 0 0 20 0 0 23 0 0 25 0 0 30 0 0 20 0 0 18 0 0 23 0 0 27 0 0 23 0 0 15 0 0 21 0 0 21 0 0 16 0 0 23 0 0 16 0 0 10 0 0 12 0 0 18 0 0 19 0 0 11 0 0 7 0 0 5 0 0 8 0 0 7 0 0 10 0 0 8 0 0 4 0 0 5 0 0 
3 0 0 7 0 0 9 0 0 8 0 0 11 0 0 3 0 0 13 0 0 9 0 0 13 0 0 9 0 0 12 0 0 18 0 0 16 0 0 12 0 0 13 0 0 13 0 0 19 0 0 19 0 0 21 0 0 17 0 0 18 0 0 19 0 0 22 0 0 18 0 0 12 0 0 17 0 0 15 0 0 12 0 0 27 0 0 22 0 0 19 0 0 15 0 0 26 0 0 23 0 0 18 0 0 21 0 0 15 0 0 13 0 0 19 0 0 18 0 0 23 0 0 18 0 0 13 0 0 14 0 0 21 0 0 15 0 0 11 0 0 8 0 0 14 0 0 14 0 0 15 0 0 14 0 0 7 0 0 8 0 0 8 0 0 6 0 0 8 0 0 12 0 0 7 0 0 6 0 0 
4 0 0 10 0 0 9 0 0 7 0 0 4 0 0 4 0 0 12 0 0 10 0 0 12 0 0 11 0 0 15 0 0 18 0 0 10 0 0 11 0 0 7 0 0 16 0 0 19 0 0 15 0 0 15 0 0 20 0 0 23 0 0 17 0 0 18 0 0 13 0 0 5 0 0 13 0 0 21 0 0 12 0 0 11 0 0 23 0 0 16 0 0 13 0 0 11 0 0 16 0 0 23 0 0 11 0 0 15 0 0 17 0 0 12 0 0 12 0 0 21 0 0 13 0 0 15 0 0 12 0 0 12 0 0 8 0 0 6 0 0 11 0 0 6 0 0 11 0 0 14 0 0 11 0 0 8 0 0 8 0 0 6 0 0 6 0 0 2 0 0 12 0 0 7 0 0 4 0 0 
3 0 0 4 0 0 5 0 0 4 0 0 4 0 0 9 0 0 13 0 0 10 0 0 10 0 0 9 0 0 11 0 0 14 0 0 11 0 0 8 0 0 11 0 0 11 0 0 11 0 0 18 0 0 15 0 0 12 0 0 15 0 0 18 0 0 15 0 0 8 0 0 13 0 0 13 0 0 15 0 0 15 0 0 10 0 0 18 0 0 17 0 0 14 0 0 11 0 0 16 0 0 13 0 0 13 0 0 12 0 0 15 0 0 18 0 0 13 0 0 12 0 0 16 0 0 13 0 0 9 0 0 11 0 0 5 0 0 9 0 0 12 0 0 9 0 0 6 0 0 7 0 0 11 0 0 12 0 0 11 0 0 8 0 0 6 0 0 3 0 0 4 0 0 7 0 0 5 0 0 
1 0 0 2 0 0 4 0 0 5 0 0 6 0 0 7 0 0 12 0 0 12 0 0 6 0 0 7 0 0 13 0 0 12 0 0 12 0 0 10 0 0 5 0 0 3 0 0 12 0 0 11 0 0 10 0 0 7 0 0 10 0 0 10 0 0 12 0 0 11 0 0 12 0 0 11 0 0 16 0 0 11 0 0 11 0 0 13 0 0 12 0 0 11 0 0 14 0 0 12 0 0 12 0 0 8 0 0 11 0 0 16 0 0 12 0 0 15 0 0 11 0 0 9 0 0 12 0 0 12 0 0 12 0 0 5 0 0 6 0 0 8 0 0 9 0 0 8 0 0 8 0 0 8 0 0 3 0 0 11 0 0 7 0 0 5 0 0 5 0 0 3 0 0 8 0 0 4 0 0 
3 0 0 4 0 0 3 0 0 6 0 0 7 0 0 9 0 0 10 0 0 6 0 0 8 0 0 6 0 0 12 0 0 9 0 0 10 0 0 11 0 0 5 0 0 6 0 0 9 0 0 11 0 0 7 0 0 8 0 0 6 0 0 6 0 0 16 0 0 12 0 0 4 0 0 8 0 0 10 0 0 15 0 0 12 0 0 10 0 0 8 0 0 13 0 0 12 0 0 11 0 0 12 0 0 5 0 0 12 0 0 12 0 0 16 0 0 12 0 0 5 0 0 10 0 0 8 0 0 13 0 0 11 0 0 11 0 0 5 0 0 8 0 0 8 0 0 6 0 0 6 0 0 6 0 0 7 0 0 3 0 0 9 0 0 5 0 0 7 0 0 3 0 0 5 0 0 5 0 0 
1 0 0 4 0 0 5 0 0 7 0 0 8 0 0 8 0 0 5 0 0 8 0 0 3 0 0 6 0 0 8 0 0 10 0 0 9 0 0 5 0 0 4 0 0 7 0 0 9 0 0 11 0 0 7 0 0 8 0 0 7 0 0 9 0 0 9 0 0 15 0 0 5 0 0 7 0 0 10 0 0 9 0 0 7 0 0 9 0 0 8 0 0 10 0 0 9 0 0 11 0 0 5 0 0 10 0 0 11 0 0 12 0 0 16 0 0 10 0 0 7 0 0 4 0 0 16 0 0 12 0 0 7 0 0 11 0 0 8 0 0 6 0 0 6 0 0 9 0 0 6 0 0 3 0 0 5 0 0 7 0 0 7 0 0 7 0 0 6 0 0 5 0 0 2 0 0 5 0 0 
