P3
# This is a dose file slice at depth 61 of 100
60 60
# now we give the maximum value of the RGB coordinates.
32920
0 0 0 0 0 0 1 0 0 1 0 0 1 0 0 1 0 0 2 0 0 2 0 0 0 0 0 1 0 0 3 0 0 1 0 0 1 0 0 2 0 0 0 0 0 1 0 0 1 0 0 4 0 0 3 0 0 2 0 0 1 0 0 2 0 0 3 0 0 3 0 0 4 0 0 3 0 0 0 0 0 2 0 0 3 0 0 1 0 0 1 0 0 1 0 0 3 0 0 2 0 0 2 0 0 4 0 0 3 0 0 0 0 0 0 0 0 2 0 0 3 0 0 1 0 0 0 0 0 1 0 0 2 0 0 3 0 0 2 0 0 1 0 0 1 0 0 0 0 0 1 0 0 2 0 0 0 0 0 2 0 0 3 0 0 2 0 0 0 0 0 0 0 0 0 0 0 0 0 0 
0 0 0 0 0 0 3 0 0 1 0 0 4 0 0 2 0 0 2 0 0 4 0 0 3 0 0 3 0 0 6 0 0 3 0 0 4 0 0 5 0 0 2 0 0 2 0 0 1 0 0 4 0 0 6 0 0 7 0 0 0 0 0 6 0 0 5 0 0 6 0 0 3 0 0 6 0 0 3 0 0 7 0 0 5 0 0 5 0 0 4 0 0 5 0 0 5 0 0 6 0 0 6 0 0 7 0 0 4 0 0 2 0 0 2 0 0 5 0 0 3 0 0 4 0 0 5 0 0 3 0 0 6 0 0 6 0 0 2 0 0 3 0 0 2 0 0 1 0 0 2 0 0 4 0 0 3 0 0 5 0 0 2 0 0 5 0 0 2 0 0 2 0 0 3 0 0 1 0 0 
0 0 0 0 0 0 1 0 0 1 0 0 4 0 0 2 0 0 4 0 0 2 0 0 1 0 0 5 0 0 3 0 0 2 0 0 5 0 0 4 0 0 1 0 0 5 0 0 4 0 0 5 0 0 6 0 0 4 0 0 5 0 0 7 0 0 4 0 0 7 0 0 5 0 0 7 0 0 12 0 0 9 0 0 4 0 0 7 0 0 5 0 0 9 0 0 5 0 0 5 0 0 9 0 0 5 0 0 4 0 0 4 0 0 5 0 0 2 0 0 2 0 0 3 0 0 3 0 0 7 0 0 3 0 0 2 0 0 3 0 0 9 0 0 4 0 0 3 0 0 6 0 0 4 0 0 3 0 0 2 0 0 1 0 0 2 0 0 0 0 0 1 0 0 2 0 0 4 0 0 
0 0 0 1 0 0 2 0 0 2 0 0 2 0 0 2 0 0 1 0 0 1 0 0 6 0 0 3 0 0 5 0 0 3 0 0 4 0 0 3 0 0 3 0 0 4 0 0 1 0 0 6 0 0 7 0 0 7 0 0 7 0 0 10 0 0 5 0 0 6 0 0 11 0 0 4 0 0 12 0 0 10 0 0 7 0 0 5 0 0 6 0 0 10 0 0 5 0 0 9 0 0 10 0 0 3 0 0 9 0 0 6 0 0 5 0 0 2 0 0 7 0 0 6 0 0 6 0 0 5 0 0 2 0 0 6 0 0 8 0 0 8 0 0 7 0 0 3 0 0 7 0 0 6 0 0 2 0 0 5 0 0 2 0 0 1 0 0 3 0 0 4 0 0 6 0 0 3 0 0 
4 0 0 4 0 0 0 0 0 4 0 0 1 0 0 3 0 0 2 0 0 6 0 0 8 0 0 4 0 0 5 0 0 6 0 0 9 0 0 6 0 0 7 0 0 6 0 0 3 0 0 10 0 0 6 0 0 11 0 0 8 0 0 10 0 0 8 0 0 5 0 0 8 0 0 10 0 0 12 0 0 16 0 0 7 0 0 6 0 0 7 0 0 6 0 0 6 0 0 6 0 0 8 0 0 9 0 0 9 0 0 9 0 0 7 0 0 11 0 0 9 0 0 7 0 0 7 0 0 5 0 0 1 0 0 3 0 0 10 0 0 4 0 0 6 0 0 6 0 0 6 0 0 1 0 0 3 0 0 6 0 0 6 0 0 6 0 0 3 0 0 4 0 0 3 0 0 2 0 0 
1 0 0 4 0 0 7 0 0 6 0 0 4 0 0 3 0 0 4 0 0 3 0 0 5 0 0 6 0 0 10 0 0 9 0 0 9 0 0 5 0 0 9 0 0 5 0 0 7 0 0 11 0 0 11 0 0 10 0 0 9 0 0 8 0 0 9 0 0 8 0 0 10 0 0 17 0 0 10 0 0 10 0 0 12 0 0 14 0 0 7 0 0 9 0 0 10 0 0 10 0 0 7 0 0 11 0 0 9 0 0 10 0 0 10 0 0 10 0 0 5 0 0 4 0 0 4 0 0 2 0 0 4 0 0 7 0 0 9 0 0 5 0 0 6 0 0 4 0 0 6 0 0 2 0 0 4 0 0 2 0 0 1 0 0 5 0 0 3 0 0 3 0 0 2 0 0 1 0 0 
1 0 0 6 0 0 1 0 0 2 0 0 1 0 0 1 0 0 3 0 0 1 0 0 2 0 0 5 0 0 6 0 0 6 0 0 10 0 0 9 0 0 11 0 0 10 0 0 6 0 0 14 0 0 11 0 0 16 0 0 10 0 0 11 0 0 10 0 0 10 0 0 16 0 0 10 0 0 8 0 0 9 0 0 14 0 0 10 0 0 10 0 0 10 0 0 8 0 0 9 0 0 9 0 0 10 0 0 13 0 0 6 0 0 12 0 0 9 0 0 7 0 0 7 0 0 4 0 0 8 0 0 8 0 0 11 0 0 9 0 0 10 0 0 9 0 0 9 0 0 5 0 0 5 0 0 1 0 0 2 0 0 4 0 0 4 0 0 4 0 0 4 0 0 1 0 0 0 0 0 
1 0 0 3 0 0 5 0 0 5 0 0 3 0 0 5 0 0 7 0 0 3 0 0 3 0 0 2 0 0 4 0 0 9 0 0 8 0 0 7 0 0 21 0 0 10 0 0 11 0 0 12 0 0 12 0 0 15 0 0 10 0 0 16 0 0 12 0 0 9 0 0 16 0 0 10 0 0 10 0 0 16 0 0 14 0 0 13 0 0 12 0 0 12 0 0 15 0 0 12 0 0 13 0 0 15 0 0 15 0 0 12 0 0 12 0 0 11 0 0 3 0 0 10 0 0 13 0 0 8 0 0 11 0 0 11 0 0 7 0 0 6 0 0 9 0 0 7 0 0 7 0 0 4 0 0 4 0 0 5 0 0 2 0 0 2 0 0 5 0 0 3 0 0 4 0 0 3 0 0 
1 0 0 3 0 0 2 0 0 5 0 0 1 0 0 3 0 0 6 0 0 12 0 0 7 0 0 5 0 0 8 0 0 14 0 0 14 0 0 12 0 0 23 0 0 12 0 0 9 0 0 17 0 0 22 0 0 12 0 0 10 0 0 15 0 0 17 0 0 14 0 0 9 0 0 19 0 0 9 0 0 17 0 0 21 0 0 15 0 0 16 0 0 12 0 0 13 0 0 17 0 0 12 0 0 20 0 0 24 0 0 14 0 0 12 0 0 14 0 0 15 0 0 15 0 0 9 0 0 12 0 0 15 0 0 12 0 0 11 0 0 11 0 0 9 0 0 11 0 0 12 0 0 6 0 0 8 0 0 11 0 0 3 0 0 6 0 0 3 0 0 3 0 0 4 0 0 4 0 0 
1 0 0 7 0 0 5 0 0 6 0 0 8 0 0 6 0 0 5 0 0 5 0 0 10 0 0 6 0 0 36 0 0 51 0 0 63 0 0 65 0 0 71 0 0 69 0 0 71 0 0 58 0 0 74 0 0 70 0 0 62 0 0 60 0 0 73 0 0 77 0 0 65 0 0 66 0 0 76 0 0 72 0 0 68 0 0 82 0 0 78 0 0 79 0 0 67 0 0 61 0 0 74 0 0 85 0 0 76 0 0 72 0 0 80 0 0 71 0 0 75 0 0 80 0 0 72 0 0 71 0 0 73 0 0 66 0 0 63 0 0 58 0 0 64 0 0 61 0 0 38 0 0 7 0 0 13 0 0 4 0 0 6 0 0 4 0 0 9 0 0 3 0 0 2 0 0 2 0 0 
0 0 0 4 0 0 5 0 0 8 0 0 5 0 0 4 0 0 6 0 0 9 0 0 7 0 0 39 0 0 2101 0 0 4062 0 0 4245 0 0 4274 0 0 4247 0 0 4235 0 0 4217 0 0 4248 0 0 4268 0 0 4308 0 0 4286 0 0 4269 0 0 4189 0 0 4220 0 0 4245 0 0 4172 0 0 4202 0 0 4209 0 0 4252 0 0 4192 0 0 4173 0 0 4240 0 0 4291 0 0 4182 0 0 4243 0 0 4224 0 0 4196 0 0 4263 0 0 4204 0 0 4245 0 0 4255 0 0 4245 0 0 4250 0 0 4149 0 0 4102 0 0 4314 0 0 4245 0 0 4254 0 0 4245 0 0 4187 0 0 2030 0 0 30 0 0 8 0 0 3 0 0 2 0 0 3 0 0 5 0 0 3 0 0 5 0 0 6 0 0 
0 0 0 1 0 0 6 0 0 3 0 0 9 0 0 10 0 0 9 0 0 6 0 0 8 0 0 51 0 0 4144 0 0 8305 0 0 8357 0 0 8165 0 0 8408 0 0 8204 0 0 8295 0 0 8328 0 0 8355 0 0 8336 0 0 8283 0 0 8469 0 0 8344 0 0 8375 0 0 8478 0 0 8390 0 0 8440 0 0 8497 0 0 8293 0 0 8344 0 0 8402 0 0 8296 0 0 8403 0 0 8395 0 0 8304 0 0 8323 0 0 8442 0 0 8398 0 0 8451 0 0 8350 0 0 8381 0 0 8310 0 0 8397 0 0 8393 0 0 8299 0 0 8430 0 0 8463 0 0 8367 0 0 8326 0 0 8483 0 0 4187 0 0 53 0 0 7 0 0 4 0 0 2 0 0 2 0 0 3 0 0 4 0 0 7 0 0 4 0 0 
0 0 0 2 0 0 4 0 0 4 0 0 4 0 0 5 0 0 7 0 0 13 0 0 10 0 0 49 0 0 4241 0 0 8326 0 0 8398 0 0 8432 0 0 8451 0 0 8497 0 0 8348 0 0 8469 0 0 8258 0 0 8402 0 0 8310 0 0 8459 0 0 8457 0 0 8569 0 0 8506 0 0 8522 0 0 8641 0 0 8448 0 0 8473 0 0 8436 0 0 8493 0 0 8486 0 0 8603 0 0 8509 0 0 8518 0 0 8301 0 0 8494 0 0 8403 0 0 8370 0 0 8358 0 0 8469 0 0 8275 0 0 8225 0 0 8401 0 0 8481 0 0 8380 0 0 8389 0 0 8487 0 0 8236 0 0 8355 0 0 4244 0 0 72 0 0 12 0 0 6 0 0 7 0 0 4 0 0 7 0 0 4 0 0 3 0 0 1 0 0 
1 0 0 4 0 0 3 0 0 3 0 0 6 0 0 10 0 0 6 0 0 6 0 0 11 0 0 71 0 0 4209 0 0 8457 0 0 8523 0 0 8540 0 0 8435 0 0 8385 0 0 8475 0 0 8470 0 0 8522 0 0 8526 0 0 8507 0 0 8480 0 0 8458 0 0 8438 0 0 8495 0 0 8464 0 0 8476 0 0 8372 0 0 8376 0 0 8395 0 0 8601 0 0 8428 0 0 8536 0 0 8547 0 0 8366 0 0 8404 0 0 8464 0 0 8563 0 0 8513 0 0 8301 0 0 8444 0 0 8299 0 0 8448 0 0 8576 0 0 8430 0 0 8523 0 0 8427 0 0 8419 0 0 8386 0 0 8388 0 0 4258 0 0 68 0 0 14 0 0 10 0 0 11 0 0 5 0 0 2 0 0 2 0 0 1 0 0 1 0 0 
0 0 0 2 0 0 5 0 0 2 0 0 5 0 0 3 0 0 9 0 0 11 0 0 14 0 0 63 0 0 4195 0 0 8410 0 0 8422 0 0 8574 0 0 8412 0 0 8487 0 0 8765 0 0 8460 0 0 8493 0 0 8598 0 0 8484 0 0 8425 0 0 8457 0 0 8496 0 0 8573 0 0 8303 0 0 8341 0 0 8519 0 0 8450 0 0 8538 0 0 8504 0 0 8518 0 0 8440 0 0 8336 0 0 8393 0 0 8611 0 0 8331 0 0 8459 0 0 8418 0 0 8396 0 0 8399 0 0 8445 0 0 8590 0 0 8531 0 0 8505 0 0 8446 0 0 8402 0 0 8337 0 0 8393 0 0 8261 0 0 4198 0 0 71 0 0 9 0 0 7 0 0 7 0 0 5 0 0 3 0 0 3 0 0 4 0 0 0 0 0 
3 0 0 4 0 0 7 0 0 6 0 0 2 0 0 6 0 0 6 0 0 6 0 0 10 0 0 71 0 0 4188 0 0 8376 0 0 8387 0 0 8596 0 0 8513 0 0 8554 0 0 8535 0 0 8522 0 0 8458 0 0 8433 0 0 8247 0 0 8535 0 0 8494 0 0 8566 0 0 8529 0 0 8451 0 0 8480 0 0 8457 0 0 8439 0 0 8424 0 0 8429 0 0 8372 0 0 8375 0 0 8455 0 0 8343 0 0 8407 0 0 8536 0 0 8447 0 0 8303 0 0 8450 0 0 8559 0 0 8273 0 0 8350 0 0 8565 0 0 8478 0 0 8470 0 0 8585 0 0 8432 0 0 8559 0 0 8243 0 0 4306 0 0 75 0 0 9 0 0 9 0 0 8 0 0 13 0 0 7 0 0 8 0 0 3 0 0 1 0 0 
1 0 0 0 0 0 2 0 0 9 0 0 4 0 0 10 0 0 6 0 0 8 0 0 18 0 0 63 0 0 4165 0 0 8512 0 0 8353 0 0 8461 0 0 8381 0 0 8516 0 0 8387 0 0 8353 0 0 8623 0 0 8452 0 0 8548 0 0 8400 0 0 8206 0 0 8539 0 0 8433 0 0 8378 0 0 8440 0 0 8545 0 0 8358 0 0 8387 0 0 8474 0 0 8446 0 0 8366 0 0 8484 0 0 8457 0 0 8664 0 0 8350 0 0 8502 0 0 8428 0 0 8520 0 0 8370 0 0 8443 0 0 8215 0 0 8323 0 0 8398 0 0 8460 0 0 8541 0 0 8396 0 0 8496 0 0 8426 0 0 4346 0 0 62 0 0 12 0 0 17 0 0 3 0 0 1 0 0 6 0 0 6 0 0 6 0 0 1 0 0 
1 0 0 4 0 0 0 0 0 0 0 0 2 0 0 3 0 0 7 0 0 7 0 0 12 0 0 70 0 0 4296 0 0 8410 0 0 8468 0 0 8599 0 0 8367 0 0 8518 0 0 8546 0 0 8366 0 0 8471 0 0 8548 0 0 8528 0 0 8472 0 0 8459 0 0 8356 0 0 8493 0 0 8483 0 0 8531 0 0 8338 0 0 8391 0 0 8446 0 0 8493 0 0 8512 0 0 8329 0 0 8376 0 0 8452 0 0 8457 0 0 8442 0 0 8309 0 0 8413 0 0 8419 0 0 8409 0 0 8483 0 0 8506 0 0 8483 0 0 8473 0 0 8345 0 0 8420 0 0 8594 0 0 8474 0 0 8486 0 0 4288 0 0 59 0 0 10 0 0 15 0 0 9 0 0 12 0 0 8 0 0 6 0 0 5 0 0 5 0 0 
0 0 0 3 0 0 9 0 0 6 0 0 3 0 0 2 0 0 5 0 0 11 0 0 16 0 0 64 0 0 4239 0 0 8392 0 0 8294 0 0 8384 0 0 8420 0 0 8516 0 0 8517 0 0 8409 0 0 8551 0 0 8531 0 0 8453 0 0 8337 0 0 8511 0 0 8485 0 0 8453 0 0 8441 0 0 8395 0 0 8329 0 0 8559 0 0 8502 0 0 8434 0 0 8411 0 0 8470 0 0 8408 0 0 8402 0 0 8566 0 0 8413 0 0 8543 0 0 8447 0 0 8525 0 0 8359 0 0 8407 0 0 8512 0 0 8517 0 0 8338 0 0 8428 0 0 8544 0 0 8255 0 0 8423 0 0 8365 0 0 4172 0 0 61 0 0 14 0 0 10 0 0 10 0 0 15 0 0 10 0 0 9 0 0 5 0 0 6 0 0 
3 0 0 4 0 0 7 0 0 4 0 0 3 0 0 5 0 0 10 0 0 12 0 0 8 0 0 71 0 0 4315 0 0 8322 0 0 8341 0 0 8317 0 0 8607 0 0 8507 0 0 8423 0 0 8408 0 0 8470 0 0 8454 0 0 8390 0 0 8448 0 0 8417 0 0 8509 0 0 8535 0 0 8397 0 0 8495 0 0 8448 0 0 8507 0 0 8501 0 0 8407 0 0 8371 0 0 8532 0 0 8514 0 0 8359 0 0 8427 0 0 8521 0 0 8659 0 0 8519 0 0 8424 0 0 8507 0 0 8325 0 0 8499 0 0 8387 0 0 8409 0 0 8357 0 0 8482 0 0 8382 0 0 8388 0 0 8427 0 0 4215 0 0 50 0 0 17 0 0 10 0 0 12 0 0 7 0 0 9 0 0 8 0 0 7 0 0 3 0 0 
1 0 0 5 0 0 6 0 0 7 0 0 10 0 0 7 0 0 8 0 0 8 0 0 13 0 0 51 0 0 4231 0 0 8227 0 0 8572 0 0 8414 0 0 8482 0 0 8559 0 0 8411 0 0 8474 0 0 8447 0 0 8500 0 0 8525 0 0 8378 0 0 8340 0 0 8299 0 0 8588 0 0 8433 0 0 8435 0 0 8335 0 0 8520 0 0 8398 0 0 8523 0 0 8470 0 0 8467 0 0 8570 0 0 8508 0 0 8461 0 0 8407 0 0 8553 0 0 8382 0 0 8426 0 0 8299 0 0 8350 0 0 8444 0 0 8464 0 0 8460 0 0 8512 0 0 8442 0 0 8564 0 0 8485 0 0 8454 0 0 4199 0 0 77 0 0 14 0 0 5 0 0 12 0 0 5 0 0 6 0 0 7 0 0 3 0 0 2 0 0 
1 0 0 1 0 0 5 0 0 11 0 0 4 0 0 8 0 0 5 0 0 12 0 0 17 0 0 58 0 0 4342 0 0 8425 0 0 8411 0 0 8342 0 0 8419 0 0 8399 0 0 8467 0 0 8486 0 0 8359 0 0 8412 0 0 8314 0 0 8382 0 0 8505 0 0 8538 0 0 8659 0 0 8408 0 0 8537 0 0 8456 0 0 8446 0 0 8460 0 0 8418 0 0 8442 0 0 8554 0 0 8417 0 0 8452 0 0 8549 0 0 8391 0 0 8429 0 0 8300 0 0 8388 0 0 8422 0 0 8536 0 0 8406 0 0 8374 0 0 8441 0 0 8507 0 0 8509 0 0 8336 0 0 8424 0 0 8370 0 0 4159 0 0 66 0 0 7 0 0 13 0 0 6 0 0 8 0 0 10 0 0 10 0 0 5 0 0 6 0 0 
2 0 0 5 0 0 4 0 0 10 0 0 9 0 0 8 0 0 6 0 0 12 0 0 13 0 0 73 0 0 4202 0 0 8256 0 0 8314 0 0 8550 0 0 8384 0 0 8457 0 0 8585 0 0 8350 0 0 8556 0 0 8503 0 0 8653 0 0 8543 0 0 8545 0 0 8437 0 0 8398 0 0 8549 0 0 8663 0 0 8468 0 0 8387 0 0 8488 0 0 8516 0 0 8524 0 0 8363 0 0 8289 0 0 8377 0 0 8479 0 0 8587 0 0 8385 0 0 8402 0 0 8468 0 0 8428 0 0 8585 0 0 8488 0 0 8481 0 0 8483 0 0 8577 0 0 8368 0 0 8407 0 0 8337 0 0 8420 0 0 4197 0 0 63 0 0 17 0 0 12 0 0 12 0 0 11 0 0 7 0 0 8 0 0 9 0 0 3 0 0 
3 0 0 6 0 0 8 0 0 5 0 0 7 0 0 12 0 0 7 0 0 6 0 0 18 0 0 67 0 0 4347 0 0 8502 0 0 8469 0 0 8460 0 0 8452 0 0 8459 0 0 8493 0 0 8404 0 0 8448 0 0 8476 0 0 8337 0 0 8427 0 0 8516 0 0 8428 0 0 8426 0 0 8446 0 0 8512 0 0 8444 0 0 8455 0 0 8441 0 0 8445 0 0 8518 0 0 8429 0 0 8331 0 0 8606 0 0 8438 0 0 8298 0 0 8510 0 0 8454 0 0 8521 0 0 8531 0 0 8477 0 0 8528 0 0 8320 0 0 8390 0 0 8447 0 0 8519 0 0 8507 0 0 8374 0 0 8272 0 0 4188 0 0 64 0 0 15 0 0 10 0 0 10 0 0 16 0 0 4 0 0 5 0 0 2 0 0 0 0 0 
3 0 0 4 0 0 7 0 0 4 0 0 6 0 0 7 0 0 9 0 0 11 0 0 8 0 0 67 0 0 4190 0 0 8389 0 0 8525 0 0 8477 0 0 8518 0 0 8395 0 0 8453 0 0 8458 0 0 8583 0 0 8440 0 0 8452 0 0 8456 0 0 8400 0 0 8350 0 0 8512 0 0 8436 0 0 8510 0 0 8522 0 0 8479 0 0 8489 0 0 8463 0 0 8479 0 0 8351 0 0 8506 0 0 8501 0 0 8608 0 0 8387 0 0 8368 0 0 8610 0 0 8531 0 0 8514 0 0 8407 0 0 8556 0 0 8621 0 0 8481 0 0 8439 0 0 8392 0 0 8355 0 0 8458 0 0 8370 0 0 4217 0 0 76 0 0 20 0 0 9 0 0 7 0 0 8 0 0 5 0 0 4 0 0 4 0 0 1 0 0 
3 0 0 8 0 0 5 0 0 3 0 0 8 0 0 9 0 0 8 0 0 10 0 0 16 0 0 68 0 0 4291 0 0 8275 0 0 8543 0 0 8389 0 0 8484 0 0 8258 0 0 8492 0 0 8425 0 0 8467 0 0 8385 0 0 8399 0 0 8410 0 0 8299 0 0 8554 0 0 8442 0 0 8462 0 0 8583 0 0 8387 0 0 8507 0 0 8505 0 0 8378 0 0 8351 0 0 8438 0 0 8470 0 0 8477 0 0 8333 0 0 8418 0 0 8397 0 0 8644 0 0 8360 0 0 8426 0 0 8476 0 0 8333 0 0 8480 0 0 8383 0 0 8239 0 0 8583 0 0 8583 0 0 8353 0 0 8409 0 0 4355 0 0 65 0 0 16 0 0 10 0 0 14 0 0 6 0 0 12 0 0 10 0 0 5 0 0 4 0 0 
2 0 0 3 0 0 2 0 0 6 0 0 8 0 0 11 0 0 14 0 0 15 0 0 12 0 0 60 0 0 4268 0 0 8358 0 0 8560 0 0 8411 0 0 8217 0 0 8568 0 0 8441 0 0 8532 0 0 8373 0 0 8519 0 0 8575 0 0 8291 0 0 8495 0 0 8482 0 0 8525 0 0 8344 0 0 8441 0 0 8534 0 0 8449 0 0 8291 0 0 8442 0 0 8491 0 0 8508 0 0 8434 0 0 8491 0 0 8575 0 0 8434 0 0 8484 0 0 8666 0 0 8477 0 0 8484 0 0 8542 0 0 8360 0 0 8507 0 0 8400 0 0 8532 0 0 8325 0 0 8621 0 0 8352 0 0 8379 0 0 4142 0 0 62 0 0 8 0 0 9 0 0 8 0 0 10 0 0 10 0 0 7 0 0 5 0 0 10 0 0 
2 0 0 3 0 0 4 0 0 9 0 0 12 0 0 12 0 0 12 0 0 22 0 0 17 0 0 76 0 0 4235 0 0 8445 0 0 8422 0 0 8446 0 0 8421 0 0 8588 0 0 8453 0 0 8657 0 0 8430 0 0 8491 0 0 8464 0 0 8481 0 0 8462 0 0 8478 0 0 8394 0 0 8502 0 0 8382 0 0 8541 0 0 8317 0 0 8455 0 0 8339 0 0 8421 0 0 8418 0 0 8405 0 0 8510 0 0 8414 0 0 8350 0 0 8320 0 0 8427 0 0 8319 0 0 8509 0 0 8627 0 0 8567 0 0 8495 0 0 8448 0 0 8520 0 0 8463 0 0 8430 0 0 8385 0 0 8495 0 0 4256 0 0 60 0 0 16 0 0 6 0 0 7 0 0 8 0 0 8 0 0 5 0 0 9 0 0 6 0 0 
0 0 0 2 0 0 2 0 0 5 0 0 12 0 0 13 0 0 16 0 0 13 0 0 22 0 0 67 0 0 4260 0 0 8342 0 0 8498 0 0 8284 0 0 8583 0 0 8340 0 0 8505 0 0 8407 0 0 8412 0 0 8426 0 0 8487 0 0 8440 0 0 8377 0 0 8409 0 0 8433 0 0 8457 0 0 8523 0 0 8461 0 0 8418 0 0 8541 0 0 8404 0 0 8388 0 0 8516 0 0 8497 0 0 8457 0 0 8387 0 0 8507 0 0 8523 0 0 8582 0 0 8416 0 0 8374 0 0 8512 0 0 8335 0 0 8458 0 0 8494 0 0 8408 0 0 8391 0 0 8360 0 0 8463 0 0 8356 0 0 4265 0 0 71 0 0 18 0 0 14 0 0 9 0 0 9 0 0 2 0 0 11 0 0 5 0 0 5 0 0 
2 0 0 6 0 0 5 0 0 7 0 0 15 0 0 9 0 0 11 0 0 12 0 0 24 0 0 81 0 0 4261 0 0 8343 0 0 8320 0 0 8376 0 0 8560 0 0 8565 0 0 8508 0 0 8548 0 0 8379 0 0 8469 0 0 8536 0 0 8624 0 0 8476 0 0 8449 0 0 8385 0 0 8453 0 0 8516 0 0 8334 0 0 8466 0 0 8489 0 0 8606 0 0 8527 0 0 8500 0 0 8478 0 0 8461 0 0 8516 0 0 8499 0 0 8506 0 0 8448 0 0 8453 0 0 8485 0 0 8387 0 0 8381 0 0 8270 0 0 8514 0 0 8437 0 0 8418 0 0 8616 0 0 8480 0 0 8138 0 0 4247 0 0 74 0 0 21 0 0 12 0 0 17 0 0 8 0 0 10 0 0 5 0 0 2 0 0 6 0 0 
0 0 0 4 0 0 8 0 0 10 0 0 3 0 0 11 0 0 11 0 0 17 0 0 20 0 0 82 0 0 4291 0 0 8462 0 0 8568 0 0 8476 0 0 8322 0 0 8462 0 0 8455 0 0 8458 0 0 8429 0 0 8478 0 0 8368 0 0 8627 0 0 8404 0 0 8590 0 0 8538 0 0 8274 0 0 8403 0 0 8355 0 0 8399 0 0 8376 0 0 8570 0 0 8498 0 0 8510 0 0 8406 0 0 8492 0 0 8521 0 0 8300 0 0 8448 0 0 8500 0 0 8445 0 0 8356 0 0 8430 0 0 8569 0 0 8414 0 0 8342 0 0 8442 0 0 8458 0 0 8401 0 0 8518 0 0 8434 0 0 4257 0 0 72 0 0 14 0 0 11 0 0 10 0 0 12 0 0 7 0 0 6 0 0 4 0 0 5 0 0 
2 0 0 4 0 0 4 0 0 4 0 0 9 0 0 10 0 0 12 0 0 17 0 0 16 0 0 75 0 0 4224 0 0 8477 0 0 8438 0 0 8576 0 0 8373 0 0 8594 0 0 8416 0 0 8497 0 0 8591 0 0 8497 0 0 8374 0 0 8436 0 0 8378 0 0 8451 0 0 8501 0 0 8371 0 0 8369 0 0 8427 0 0 8366 0 0 8359 0 0 8546 0 0 8326 0 0 8484 0 0 8299 0 0 8477 0 0 8528 0 0 8366 0 0 8403 0 0 8316 0 0 8425 0 0 8447 0 0 8679 0 0 8571 0 0 8536 0 0 8324 0 0 8559 0 0 8499 0 0 8400 0 0 8432 0 0 8374 0 0 4230 0 0 70 0 0 20 0 0 11 0 0 10 0 0 7 0 0 9 0 0 8 0 0 4 0 0 2 0 0 
1 0 0 0 0 0 0 0 0 3 0 0 8 0 0 10 0 0 9 0 0 22 0 0 24 0 0 78 0 0 4316 0 0 8437 0 0 8441 0 0 8592 0 0 8448 0 0 8341 0 0 8425 0 0 8383 0 0 8552 0 0 8609 0 0 8519 0 0 8444 0 0 8407 0 0 8652 0 0 8546 0 0 8460 0 0 8473 0 0 8366 0 0 8673 0 0 8472 0 0 8530 0 0 8511 0 0 8514 0 0 8456 0 0 8553 0 0 8526 0 0 8540 0 0 8470 0 0 8530 0 0 8487 0 0 8378 0 0 8460 0 0 8518 0 0 8550 0 0 8465 0 0 8516 0 0 8387 0 0 8432 0 0 8463 0 0 8434 0 0 4292 0 0 73 0 0 20 0 0 13 0 0 9 0 0 12 0 0 3 0 0 4 0 0 7 0 0 2 0 0 
3 0 0 8 0 0 3 0 0 13 0 0 4 0 0 7 0 0 12 0 0 16 0 0 29 0 0 76 0 0 4328 0 0 8373 0 0 8453 0 0 8594 0 0 8437 0 0 8548 0 0 8568 0 0 8529 0 0 8523 0 0 8480 0 0 8537 0 0 8464 0 0 8474 0 0 8552 0 0 8510 0 0 8556 0 0 8656 0 0 8424 0 0 8427 0 0 8326 0 0 8536 0 0 8510 0 0 8483 0 0 8484 0 0 8282 0 0 8614 0 0 8549 0 0 8448 0 0 8387 0 0 8408 0 0 8653 0 0 8458 0 0 8608 0 0 8406 0 0 8506 0 0 8304 0 0 8519 0 0 8625 0 0 8504 0 0 8232 0 0 4264 0 0 78 0 0 21 0 0 12 0 0 11 0 0 6 0 0 13 0 0 8 0 0 3 0 0 1 0 0 
1 0 0 3 0 0 11 0 0 8 0 0 9 0 0 10 0 0 12 0 0 7 0 0 10 0 0 76 0 0 4290 0 0 8221 0 0 8567 0 0 8451 0 0 8487 0 0 8354 0 0 8572 0 0 8508 0 0 8428 0 0 8489 0 0 8452 0 0 8490 0 0 8468 0 0 8448 0 0 8419 0 0 8533 0 0 8476 0 0 8514 0 0 8492 0 0 8419 0 0 8452 0 0 8410 0 0 8598 0 0 8516 0 0 8465 0 0 8379 0 0 8465 0 0 8413 0 0 8487 0 0 8328 0 0 8467 0 0 8455 0 0 8468 0 0 8443 0 0 8463 0 0 8483 0 0 8379 0 0 8482 0 0 8394 0 0 8373 0 0 4230 0 0 73 0 0 15 0 0 17 0 0 9 0 0 7 0 0 4 0 0 6 0 0 6 0 0 5 0 0 
2 0 0 9 0 0 5 0 0 8 0 0 7 0 0 11 0 0 13 0 0 11 0 0 8 0 0 76 0 0 4210 0 0 8449 0 0 8501 0 0 8452 0 0 8423 0 0 8365 0 0 8541 0 0 8472 0 0 8356 0 0 8445 0 0 8318 0 0 8498 0 0 8514 0 0 8456 0 0 8464 0 0 8558 0 0 8551 0 0 8293 0 0 8553 0 0 8579 0 0 8408 0 0 8348 0 0 8457 0 0 8607 0 0 8481 0 0 8275 0 0 8459 0 0 8530 0 0 8492 0 0 8532 0 0 8387 0 0 8385 0 0 8516 0 0 8341 0 0 8398 0 0 8562 0 0 8535 0 0 8571 0 0 8314 0 0 8280 0 0 4085 0 0 75 0 0 20 0 0 17 0 0 12 0 0 9 0 0 6 0 0 3 0 0 7 0 0 3 0 0 
2 0 0 4 0 0 8 0 0 10 0 0 7 0 0 11 0 0 5 0 0 6 0 0 12 0 0 61 0 0 4187 0 0 8420 0 0 8405 0 0 8571 0 0 8451 0 0 8416 0 0 8422 0 0 8393 0 0 8369 0 0 8497 0 0 8374 0 0 8454 0 0 8524 0 0 8446 0 0 8528 0 0 8464 0 0 8569 0 0 8400 0 0 8501 0 0 8512 0 0 8381 0 0 8601 0 0 8382 0 0 8483 0 0 8462 0 0 8647 0 0 8547 0 0 8473 0 0 8593 0 0 8518 0 0 8407 0 0 8569 0 0 8515 0 0 8577 0 0 8524 0 0 8640 0 0 8616 0 0 8548 0 0 8414 0 0 8383 0 0 4082 0 0 54 0 0 16 0 0 17 0 0 11 0 0 11 0 0 10 0 0 8 0 0 3 0 0 0 0 0 
3 0 0 8 0 0 12 0 0 8 0 0 12 0 0 13 0 0 10 0 0 16 0 0 16 0 0 71 0 0 4249 0 0 8326 0 0 8422 0 0 8479 0 0 8524 0 0 8466 0 0 8368 0 0 8528 0 0 8605 0 0 8580 0 0 8424 0 0 8355 0 0 8436 0 0 8494 0 0 8484 0 0 8359 0 0 8434 0 0 8592 0 0 8326 0 0 8628 0 0 8326 0 0 8438 0 0 8534 0 0 8302 0 0 8431 0 0 8509 0 0 8600 0 0 8573 0 0 8559 0 0 8550 0 0 8293 0 0 8433 0 0 8432 0 0 8428 0 0 8402 0 0 8530 0 0 8578 0 0 8375 0 0 8458 0 0 8334 0 0 4131 0 0 70 0 0 20 0 0 14 0 0 11 0 0 10 0 0 4 0 0 4 0 0 6 0 0 5 0 0 
5 0 0 4 0 0 5 0 0 8 0 0 12 0 0 12 0 0 10 0 0 13 0 0 15 0 0 80 0 0 4212 0 0 8529 0 0 8460 0 0 8512 0 0 8339 0 0 8458 0 0 8418 0 0 8488 0 0 8580 0 0 8434 0 0 8452 0 0 8419 0 0 8502 0 0 8552 0 0 8331 0 0 8510 0 0 8527 0 0 8538 0 0 8341 0 0 8437 0 0 8553 0 0 8514 0 0 8417 0 0 8488 0 0 8424 0 0 8352 0 0 8585 0 0 8374 0 0 8489 0 0 8394 0 0 8456 0 0 8582 0 0 8503 0 0 8652 0 0 8424 0 0 8337 0 0 8359 0 0 8412 0 0 8463 0 0 8270 0 0 4203 0 0 67 0 0 15 0 0 10 0 0 7 0 0 5 0 0 4 0 0 7 0 0 11 0 0 8 0 0 
2 0 0 3 0 0 4 0 0 3 0 0 8 0 0 9 0 0 10 0 0 9 0 0 10 0 0 71 0 0 4243 0 0 8290 0 0 8427 0 0 8494 0 0 8325 0 0 8529 0 0 8613 0 0 8413 0 0 8372 0 0 8355 0 0 8459 0 0 8344 0 0 8537 0 0 8608 0 0 8506 0 0 8559 0 0 8526 0 0 8413 0 0 8502 0 0 8306 0 0 8519 0 0 8565 0 0 8473 0 0 8484 0 0 8473 0 0 8435 0 0 8389 0 0 8445 0 0 8567 0 0 8570 0 0 8367 0 0 8549 0 0 8527 0 0 8367 0 0 8484 0 0 8344 0 0 8418 0 0 8411 0 0 8380 0 0 8327 0 0 4218 0 0 73 0 0 14 0 0 6 0 0 12 0 0 9 0 0 7 0 0 8 0 0 2 0 0 1 0 0 
4 0 0 7 0 0 4 0 0 5 0 0 4 0 0 9 0 0 8 0 0 12 0 0 12 0 0 73 0 0 4251 0 0 8518 0 0 8421 0 0 8424 0 0 8463 0 0 8510 0 0 8651 0 0 8558 0 0 8344 0 0 8478 0 0 8400 0 0 8484 0 0 8505 0 0 8459 0 0 8475 0 0 8375 0 0 8517 0 0 8404 0 0 8423 0 0 8480 0 0 8386 0 0 8188 0 0 8631 0 0 8493 0 0 8474 0 0 8567 0 0 8351 0 0 8675 0 0 8408 0 0 8514 0 0 8565 0 0 8528 0 0 8616 0 0 8557 0 0 8482 0 0 8577 0 0 8428 0 0 8303 0 0 8490 0 0 8482 0 0 4272 0 0 76 0 0 17 0 0 9 0 0 12 0 0 8 0 0 9 0 0 10 0 0 6 0 0 6 0 0 
4 0 0 8 0 0 7 0 0 3 0 0 5 0 0 8 0 0 8 0 0 10 0 0 15 0 0 62 0 0 4201 0 0 8432 0 0 8339 0 0 8431 0 0 8446 0 0 8509 0 0 8507 0 0 8439 0 0 8539 0 0 8479 0 0 8462 0 0 8412 0 0 8427 0 0 8466 0 0 8474 0 0 8538 0 0 8445 0 0 8397 0 0 8364 0 0 8406 0 0 8505 0 0 8633 0 0 8425 0 0 8495 0 0 8327 0 0 8558 0 0 8489 0 0 8455 0 0 8409 0 0 8466 0 0 8366 0 0 8505 0 0 8516 0 0 8390 0 0 8583 0 0 8426 0 0 8434 0 0 8433 0 0 8524 0 0 8327 0 0 4203 0 0 68 0 0 16 0 0 14 0 0 12 0 0 7 0 0 4 0 0 5 0 0 7 0 0 5 0 0 
1 0 0 1 0 0 1 0 0 2 0 0 3 0 0 5 0 0 9 0 0 14 0 0 14 0 0 69 0 0 4241 0 0 8331 0 0 8402 0 0 8428 0 0 8442 0 0 8453 0 0 8442 0 0 8556 0 0 8539 0 0 8448 0 0 8472 0 0 8340 0 0 8539 0 0 8515 0 0 8388 0 0 8371 0 0 8419 0 0 8447 0 0 8284 0 0 8363 0 0 8405 0 0 8523 0 0 8556 0 0 8507 0 0 8476 0 0 8362 0 0 8464 0 0 8382 0 0 8431 0 0 8402 0 0 8295 0 0 8412 0 0 8470 0 0 8233 0 0 8447 0 0 8596 0 0 8451 0 0 8459 0 0 8462 0 0 8524 0 0 4207 0 0 59 0 0 12 0 0 6 0 0 12 0 0 8 0 0 10 0 0 4 0 0 4 0 0 2 0 0 
1 0 0 3 0 0 6 0 0 9 0 0 7 0 0 3 0 0 9 0 0 7 0 0 16 0 0 61 0 0 4217 0 0 8532 0 0 8572 0 0 8492 0 0 8414 0 0 8407 0 0 8380 0 0 8440 0 0 8536 0 0 8534 0 0 8493 0 0 8480 0 0 8463 0 0 8376 0 0 8474 0 0 8350 0 0 8496 0 0 8585 0 0 8406 0 0 8534 0 0 8495 0 0 8441 0 0 8446 0 0 8477 0 0 8537 0 0 8421 0 0 8440 0 0 8481 0 0 8418 0 0 8543 0 0 8367 0 0 8470 0 0 8467 0 0 8387 0 0 8434 0 0 8349 0 0 8649 0 0 8480 0 0 8430 0 0 8465 0 0 4212 0 0 72 0 0 11 0 0 6 0 0 7 0 0 7 0 0 7 0 0 6 0 0 3 0 0 4 0 0 
1 0 0 5 0 0 2 0 0 2 0 0 6 0 0 10 0 0 10 0 0 9 0 0 10 0 0 68 0 0 4165 0 0 8466 0 0 8481 0 0 8497 0 0 8537 0 0 8469 0 0 8291 0 0 8396 0 0 8393 0 0 8337 0 0 8486 0 0 8510 0 0 8286 0 0 8466 0 0 8415 0 0 8425 0 0 8511 0 0 8289 0 0 8556 0 0 8519 0 0 8451 0 0 8486 0 0 8467 0 0 8398 0 0 8448 0 0 8458 0 0 8335 0 0 8447 0 0 8348 0 0 8430 0 0 8495 0 0 8481 0 0 8525 0 0 8413 0 0 8283 0 0 8609 0 0 8428 0 0 8476 0 0 8345 0 0 8295 0 0 4201 0 0 61 0 0 14 0 0 14 0 0 11 0 0 8 0 0 1 0 0 4 0 0 3 0 0 3 0 0 
1 0 0 0 0 0 3 0 0 6 0 0 8 0 0 8 0 0 10 0 0 13 0 0 14 0 0 69 0 0 4143 0 0 8424 0 0 8394 0 0 8375 0 0 8586 0 0 8530 0 0 8401 0 0 8373 0 0 8528 0 0 8461 0 0 8343 0 0 8563 0 0 8534 0 0 8504 0 0 8509 0 0 8460 0 0 8324 0 0 8429 0 0 8523 0 0 8459 0 0 8379 0 0 8363 0 0 8378 0 0 8516 0 0 8367 0 0 8428 0 0 8576 0 0 8480 0 0 8329 0 0 8367 0 0 8518 0 0 8383 0 0 8458 0 0 8432 0 0 8445 0 0 8316 0 0 8403 0 0 8534 0 0 8370 0 0 8434 0 0 4142 0 0 60 0 0 10 0 0 12 0 0 8 0 0 4 0 0 6 0 0 5 0 0 2 0 0 1 0 0 
1 0 0 5 0 0 1 0 0 4 0 0 5 0 0 4 0 0 10 0 0 10 0 0 14 0 0 75 0 0 4235 0 0 8412 0 0 8463 0 0 8392 0 0 8542 0 0 8489 0 0 8385 0 0 8355 0 0 8388 0 0 8531 0 0 8431 0 0 8432 0 0 8496 0 0 8397 0 0 8425 0 0 8596 0 0 8532 0 0 8556 0 0 8408 0 0 8430 0 0 8406 0 0 8497 0 0 8364 0 0 8410 0 0 8324 0 0 8569 0 0 8405 0 0 8463 0 0 8417 0 0 8590 0 0 8480 0 0 8508 0 0 8469 0 0 8481 0 0 8469 0 0 8468 0 0 8493 0 0 8436 0 0 8325 0 0 8383 0 0 4109 0 0 65 0 0 10 0 0 7 0 0 10 0 0 6 0 0 1 0 0 4 0 0 3 0 0 1 0 0 
0 0 0 1 0 0 3 0 0 6 0 0 7 0 0 7 0 0 6 0 0 11 0 0 9 0 0 68 0 0 4125 0 0 8418 0 0 8261 0 0 8621 0 0 8486 0 0 8508 0 0 8436 0 0 8444 0 0 8458 0 0 8403 0 0 8425 0 0 8445 0 0 8538 0 0 8281 0 0 8472 0 0 8427 0 0 8467 0 0 8440 0 0 8412 0 0 8338 0 0 8344 0 0 8483 0 0 8463 0 0 8477 0 0 8632 0 0 8504 0 0 8477 0 0 8382 0 0 8412 0 0 8491 0 0 8455 0 0 8437 0 0 8220 0 0 8413 0 0 8645 0 0 8389 0 0 8485 0 0 8283 0 0 8526 0 0 8436 0 0 4275 0 0 68 0 0 12 0 0 10 0 0 12 0 0 7 0 0 3 0 0 3 0 0 4 0 0 6 0 0 
1 0 0 7 0 0 7 0 0 4 0 0 6 0 0 8 0 0 6 0 0 9 0 0 9 0 0 50 0 0 4162 0 0 8401 0 0 8370 0 0 8539 0 0 8558 0 0 8558 0 0 8407 0 0 8433 0 0 8397 0 0 8411 0 0 8313 0 0 8346 0 0 8332 0 0 8420 0 0 8470 0 0 8507 0 0 8357 0 0 8333 0 0 8410 0 0 8360 0 0 8328 0 0 8406 0 0 8394 0 0 8414 0 0 8429 0 0 8299 0 0 8539 0 0 8434 0 0 8412 0 0 8424 0 0 8489 0 0 8499 0 0 8619 0 0 8438 0 0 8464 0 0 8380 0 0 8366 0 0 8367 0 0 8421 0 0 8322 0 0 4176 0 0 66 0 0 16 0 0 11 0 0 11 0 0 5 0 0 8 0 0 3 0 0 2 0 0 2 0 0 
2 0 0 5 0 0 2 0 0 3 0 0 2 0 0 1 0 0 4 0 0 10 0 0 14 0 0 69 0 0 4279 0 0 8310 0 0 8406 0 0 8350 0 0 8244 0 0 8429 0 0 8390 0 0 8396 0 0 8264 0 0 8369 0 0 8463 0 0 8424 0 0 8337 0 0 8380 0 0 8412 0 0 8408 0 0 8364 0 0 8279 0 0 8360 0 0 8355 0 0 8298 0 0 8409 0 0 8328 0 0 8341 0 0 8368 0 0 8410 0 0 8414 0 0 8336 0 0 8485 0 0 8380 0 0 8378 0 0 8412 0 0 8347 0 0 8469 0 0 8304 0 0 8347 0 0 8325 0 0 8360 0 0 8419 0 0 8279 0 0 4229 0 0 68 0 0 12 0 0 16 0 0 7 0 0 12 0 0 6 0 0 6 0 0 3 0 0 2 0 0 
1 0 0 4 0 0 5 0 0 4 0 0 4 0 0 4 0 0 8 0 0 4 0 0 11 0 0 36 0 0 2007 0 0 4224 0 0 4213 0 0 4196 0 0 4247 0 0 4242 0 0 4170 0 0 4155 0 0 4330 0 0 4263 0 0 4142 0 0 4238 0 0 4220 0 0 4204 0 0 4328 0 0 4291 0 0 4265 0 0 4230 0 0 4181 0 0 4221 0 0 4246 0 0 4170 0 0 4225 0 0 4214 0 0 4370 0 0 4240 0 0 4192 0 0 4284 0 0 4253 0 0 4268 0 0 4242 0 0 4235 0 0 4349 0 0 4218 0 0 4199 0 0 4267 0 0 4211 0 0 4220 0 0 4271 0 0 4215 0 0 2066 0 0 31 0 0 9 0 0 10 0 0 9 0 0 6 0 0 8 0 0 9 0 0 7 0 0 8 0 0 
1 0 0 2 0 0 5 0 0 2 0 0 4 0 0 5 0 0 7 0 0 6 0 0 8 0 0 10 0 0 33 0 0 65 0 0 60 0 0 73 0 0 64 0 0 76 0 0 61 0 0 71 0 0 63 0 0 70 0 0 72 0 0 60 0 0 60 0 0 60 0 0 68 0 0 84 0 0 64 0 0 72 0 0 59 0 0 73 0 0 52 0 0 64 0 0 68 0 0 76 0 0 80 0 0 71 0 0 80 0 0 71 0 0 71 0 0 76 0 0 97 0 0 80 0 0 68 0 0 77 0 0 69 0 0 59 0 0 71 0 0 65 0 0 66 0 0 66 0 0 34 0 0 10 0 0 6 0 0 9 0 0 5 0 0 3 0 0 1 0 0 1 0 0 3 0 0 8 0 0 
1 0 0 0 0 0 2 0 0 4 0 0 4 0 0 3 0 0 5 0 0 3 0 0 5 0 0 11 0 0 5 0 0 12 0 0 7 0 0 14 0 0 20 0 0 19 0 0 13 0 0 16 0 0 12 0 0 11 0 0 13 0 0 12 0 0 13 0 0 15 0 0 11 0 0 19 0 0 15 0 0 14 0 0 16 0 0 13 0 0 15 0 0 18 0 0 15 0 0 19 0 0 19 0 0 17 0 0 9 0 0 12 0 0 12 0 0 15 0 0 18 0 0 15 0 0 14 0 0 6 0 0 16 0 0 13 0 0 13 0 0 12 0 0 12 0 0 11 0 0 7 0 0 8 0 0 6 0 0 6 0 0 7 0 0 5 0 0 2 0 0 4 0 0 2 0 0 6 0 0 
0 0 0 1 0 0 0 0 0 3 0 0 3 0 0 4 0 0 2 0 0 2 0 0 2 0 0 5 0 0 3 0 0 3 0 0 6 0 0 8 0 0 10 0 0 13 0 0 8 0 0 10 0 0 7 0 0 9 0 0 12 0 0 15 0 0 8 0 0 13 0 0 7 0 0 14 0 0 11 0 0 11 0 0 13 0 0 4 0 0 7 0 0 14 0 0 15 0 0 14 0 0 14 0 0 10 0 0 8 0 0 13 0 0 10 0 0 14 0 0 12 0 0 10 0 0 14 0 0 18 0 0 10 0 0 12 0 0 10 0 0 10 0 0 10 0 0 4 0 0 8 0 0 8 0 0 8 0 0 6 0 0 1 0 0 2 0 0 0 0 0 3 0 0 2 0 0 1 0 0 
1 0 0 2 0 0 3 0 0 4 0 0 4 0 0 1 0 0 1 0 0 1 0 0 3 0 0 5 0 0 6 0 0 8 0 0 7 0 0 11 0 0 11 0 0 8 0 0 13 0 0 6 0 0 4 0 0 9 0 0 10 0 0 12 0 0 9 0 0 11 0 0 5 0 0 10 0 0 11 0 0 7 0 0 7 0 0 8 0 0 13 0 0 11 0 0 10 0 0 12 0 0 11 0 0 11 0 0 17 0 0 6 0 0 7 0 0 8 0 0 7 0 0 8 0 0 8 0 0 16 0 0 14 0 0 9 0 0 10 0 0 9 0 0 8 0 0 8 0 0 4 0 0 6 0 0 3 0 0 3 0 0 7 0 0 3 0 0 1 0 0 0 0 0 1 0 0 0 0 0 
1 0 0 0 0 0 0 0 0 2 0 0 2 0 0 2 0 0 1 0 0 1 0 0 3 0 0 2 0 0 7 0 0 6 0 0 8 0 0 4 0 0 6 0 0 5 0 0 9 0 0 4 0 0 8 0 0 8 0 0 8 0 0 5 0 0 5 0 0 6 0 0 6 0 0 5 0 0 18 0 0 11 0 0 6 0 0 5 0 0 8 0 0 10 0 0 12 0 0 9 0 0 7 0 0 13 0 0 7 0 0 9 0 0 9 0 0 4 0 0 8 0 0 10 0 0 7 0 0 11 0 0 10 0 0 11 0 0 10 0 0 4 0 0 6 0 0 1 0 0 3 0 0 7 0 0 4 0 0 0 0 0 2 0 0 4 0 0 4 0 0 5 0 0 3 0 0 1 0 0 
0 0 0 2 0 0 2 0 0 3 0 0 5 0 0 1 0 0 2 0 0 1 0 0 1 0 0 3 0 0 5 0 0 7 0 0 5 0 0 3 0 0 1 0 0 6 0 0 7 0 0 8 0 0 4 0 0 10 0 0 9 0 0 1 0 0 6 0 0 7 0 0 9 0 0 7 0 0 14 0 0 8 0 0 10 0 0 5 0 0 7 0 0 12 0 0 11 0 0 12 0 0 11 0 0 9 0 0 7 0 0 10 0 0 7 0 0 11 0 0 7 0 0 6 0 0 9 0 0 9 0 0 5 0 0 6 0 0 7 0 0 10 0 0 6 0 0 0 0 0 3 0 0 2 0 0 4 0 0 2 0 0 1 0 0 2 0 0 2 0 0 8 0 0 6 0 0 2 0 0 
0 0 0 4 0 0 2 0 0 0 0 0 2 0 0 2 0 0 4 0 0 2 0 0 2 0 0 7 0 0 3 0 0 6 0 0 3 0 0 2 0 0 4 0 0 4 0 0 7 0 0 8 0 0 2 0 0 7 0 0 6 0 0 4 0 0 3 0 0 5 0 0 7 0 0 7 0 0 5 0 0 6 0 0 10 0 0 6 0 0 5 0 0 9 0 0 10 0 0 9 0 0 9 0 0 8 0 0 11 0 0 7 0 0 9 0 0 8 0 0 6 0 0 8 0 0 5 0 0 6 0 0 2 0 0 5 0 0 8 0 0 8 0 0 9 0 0 3 0 0 6 0 0 2 0 0 4 0 0 3 0 0 2 0 0 0 0 0 0 0 0 1 0 0 3 0 0 5 0 0 
0 0 0 2 0 0 2 0 0 0 0 0 2 0 0 3 0 0 1 0 0 2 0 0 0 0 0 5 0 0 0 0 0 3 0 0 4 0 0 5 0 0 6 0 0 5 0 0 1 0 0 6 0 0 4 0 0 7 0 0 3 0 0 2 0 0 2 0 0 4 0 0 7 0 0 7 0 0 3 0 0 6 0 0 7 0 0 6 0 0 5 0 0 2 0 0 5 0 0 6 0 0 10 0 0 6 0 0 9 0 0 7 0 0 7 0 0 5 0 0 5 0 0 7 0 0 4 0 0 2 0 0 3 0 0 4 0 0 6 0 0 6 0 0 4 0 0 0 0 0 1 0 0 5 0 0 1 0 0 2 0 0 8 0 0 2 0 0 0 0 0 0 0 0 3 0 0 2 0 0 
0 0 0 3 0 0 1 0 0 0 0 0 3 0 0 0 0 0 1 0 0 1 0 0 3 0 0 5 0 0 2 0 0 4 0 0 5 0 0 3 0 0 5 0 0 3 0 0 1 0 0 3 0 0 1 0 0 6 0 0 3 0 0 8 0 0 1 0 0 7 0 0 5 0 0 6 0 0 7 0 0 6 0 0 4 0 0 2 0 0 6 0 0 3 0 0 7 0 0 3 0 0 8 0 0 7 0 0 5 0 0 10 0 0 4 0 0 5 0 0 3 0 0 5 0 0 3 0 0 3 0 0 7 0 0 5 0 0 6 0 0 5 0 0 5 0 0 2 0 0 1 0 0 2 0 0 6 0 0 1 0 0 3 0 0 5 0 0 5 0 0 1 0 0 1 0 0 1 0 0 
