P3
# This is a dose file slice at depth 9 of 100
60 60
# now we give the maximum value of the RGB coordinates.
32920
1 0 0 1 0 0 3 0 0 2 0 0 4 0 0 3 0 0 2 0 0 3 0 0 1 0 0 3 0 0 4 0 0 4 0 0 5 0 0 3 0 0 6 0 0 3 0 0 4 0 0 6 0 0 4 0 0 2 0 0 6 0 0 6 0 0 7 0 0 7 0 0 7 0 0 3 0 0 3 0 0 8 0 0 9 0 0 9 0 0 5 0 0 5 0 0 10 0 0 7 0 0 6 0 0 3 0 0 5 0 0 7 0 0 4 0 0 8 0 0 7 0 0 7 0 0 5 0 0 6 0 0 2 0 0 3 0 0 5 0 0 8 0 0 6 0 0 3 0 0 2 0 0 3 0 0 6 0 0 4 0 0 5 0 0 4 0 0 1 0 0 3 0 0 2 0 0 0 0 0 
1 0 0 4 0 0 5 0 0 6 0 0 2 0 0 6 0 0 6 0 0 6 0 0 9 0 0 8 0 0 9 0 0 7 0 0 12 0 0 11 0 0 7 0 0 8 0 0 10 0 0 11 0 0 8 0 0 8 0 0 13 0 0 17 0 0 16 0 0 13 0 0 20 0 0 11 0 0 8 0 0 13 0 0 19 0 0 14 0 0 12 0 0 13 0 0 17 0 0 23 0 0 17 0 0 8 0 0 8 0 0 16 0 0 11 0 0 12 0 0 15 0 0 15 0 0 9 0 0 8 0 0 6 0 0 12 0 0 11 0 0 9 0 0 7 0 0 7 0 0 7 0 0 11 0 0 10 0 0 10 0 0 9 0 0 7 0 0 6 0 0 9 0 0 0 0 0 0 0 0 
2 0 0 3 0 0 4 0 0 4 0 0 5 0 0 2 0 0 8 0 0 7 0 0 8 0 0 9 0 0 12 0 0 13 0 0 12 0 0 9 0 0 10 0 0 6 0 0 13 0 0 14 0 0 12 0 0 11 0 0 19 0 0 16 0 0 15 0 0 11 0 0 19 0 0 13 0 0 12 0 0 12 0 0 18 0 0 16 0 0 19 0 0 15 0 0 24 0 0 18 0 0 14 0 0 8 0 0 12 0 0 13 0 0 13 0 0 14 0 0 13 0 0 12 0 0 12 0 0 12 0 0 12 0 0 6 0 0 12 0 0 11 0 0 6 0 0 10 0 0 12 0 0 15 0 0 11 0 0 14 0 0 9 0 0 6 0 0 7 0 0 0 0 0 0 0 0 3 0 0 
2 0 0 5 0 0 6 0 0 10 0 0 7 0 0 4 0 0 5 0 0 9 0 0 4 0 0 12 0 0 13 0 0 8 0 0 11 0 0 9 0 0 12 0 0 7 0 0 10 0 0 14 0 0 16 0 0 16 0 0 22 0 0 21 0 0 16 0 0 19 0 0 17 0 0 16 0 0 13 0 0 13 0 0 17 0 0 21 0 0 14 0 0 13 0 0 21 0 0 15 0 0 24 0 0 10 0 0 11 0 0 20 0 0 11 0 0 18 0 0 13 0 0 14 0 0 19 0 0 23 0 0 11 0 0 8 0 0 21 0 0 14 0 0 7 0 0 6 0 0 16 0 0 14 0 0 8 0 0 9 0 0 10 0 0 8 0 0 3 0 0 3 0 0 4 0 0 5 0 0 
0 0 0 6 0 0 2 0 0 10 0 0 8 0 0 7 0 0 8 0 0 7 0 0 8 0 0 10 0 0 12 0 0 19 0 0 8 0 0 11 0 0 16 0 0 18 0 0 15 0 0 14 0 0 18 0 0 18 0 0 18 0 0 21 0 0 18 0 0 26 0 0 22 0 0 11 0 0 24 0 0 14 0 0 22 0 0 20 0 0 21 0 0 13 0 0 16 0 0 17 0 0 20 0 0 24 0 0 15 0 0 16 0 0 19 0 0 20 0 0 15 0 0 17 0 0 19 0 0 28 0 0 12 0 0 15 0 0 24 0 0 17 0 0 5 0 0 12 0 0 16 0 0 15 0 0 8 0 0 6 0 0 13 0 0 10 0 0 5 0 0 8 0 0 7 0 0 8 0 0 
1 0 0 3 0 0 4 0 0 3 0 0 11 0 0 15 0 0 7 0 0 2 0 0 11 0 0 11 0 0 8 0 0 22 0 0 16 0 0 11 0 0 24 0 0 20 0 0 20 0 0 13 0 0 34 0 0 17 0 0 18 0 0 24 0 0 18 0 0 26 0 0 25 0 0 19 0 0 20 0 0 22 0 0 31 0 0 22 0 0 19 0 0 24 0 0 22 0 0 26 0 0 22 0 0 19 0 0 18 0 0 24 0 0 28 0 0 20 0 0 12 0 0 24 0 0 29 0 0 23 0 0 18 0 0 21 0 0 19 0 0 23 0 0 15 0 0 17 0 0 14 0 0 10 0 0 9 0 0 10 0 0 11 0 0 6 0 0 9 0 0 7 0 0 10 0 0 8 0 0 
3 0 0 8 0 0 5 0 0 7 0 0 7 0 0 12 0 0 14 0 0 8 0 0 9 0 0 12 0 0 12 0 0 19 0 0 21 0 0 21 0 0 24 0 0 34 0 0 25 0 0 25 0 0 35 0 0 24 0 0 16 0 0 23 0 0 28 0 0 33 0 0 30 0 0 25 0 0 18 0 0 24 0 0 31 0 0 30 0 0 24 0 0 24 0 0 29 0 0 38 0 0 28 0 0 20 0 0 24 0 0 29 0 0 27 0 0 28 0 0 24 0 0 29 0 0 27 0 0 22 0 0 25 0 0 23 0 0 25 0 0 30 0 0 12 0 0 20 0 0 19 0 0 17 0 0 11 0 0 12 0 0 11 0 0 12 0 0 12 0 0 12 0 0 9 0 0 10 0 0 
4 0 0 11 0 0 12 0 0 12 0 0 12 0 0 6 0 0 14 0 0 11 0 0 9 0 0 14 0 0 18 0 0 29 0 0 23 0 0 28 0 0 25 0 0 27 0 0 29 0 0 32 0 0 26 0 0 30 0 0 30 0 0 29 0 0 39 0 0 40 0 0 34 0 0 26 0 0 26 0 0 32 0 0 33 0 0 38 0 0 35 0 0 30 0 0 37 0 0 33 0 0 35 0 0 32 0 0 34 0 0 39 0 0 36 0 0 29 0 0 28 0 0 28 0 0 41 0 0 27 0 0 34 0 0 31 0 0 35 0 0 27 0 0 24 0 0 27 0 0 15 0 0 19 0 0 11 0 0 20 0 0 17 0 0 14 0 0 12 0 0 8 0 0 12 0 0 9 0 0 
4 0 0 7 0 0 14 0 0 16 0 0 14 0 0 15 0 0 13 0 0 20 0 0 17 0 0 16 0 0 26 0 0 37 0 0 48 0 0 29 0 0 43 0 0 28 0 0 32 0 0 48 0 0 38 0 0 41 0 0 36 0 0 42 0 0 48 0 0 50 0 0 50 0 0 42 0 0 44 0 0 48 0 0 37 0 0 47 0 0 45 0 0 47 0 0 48 0 0 50 0 0 41 0 0 56 0 0 55 0 0 48 0 0 41 0 0 53 0 0 44 0 0 42 0 0 39 0 0 51 0 0 53 0 0 50 0 0 47 0 0 40 0 0 29 0 0 23 0 0 28 0 0 25 0 0 16 0 0 14 0 0 16 0 0 12 0 0 10 0 0 16 0 0 16 0 0 11 0 0 
2 0 0 8 0 0 8 0 0 12 0 0 12 0 0 17 0 0 16 0 0 19 0 0 24 0 0 26 0 0 97 0 0 184 0 0 156 0 0 158 0 0 172 0 0 180 0 0 188 0 0 175 0 0 173 0 0 177 0 0 178 0 0 182 0 0 178 0 0 180 0 0 176 0 0 183 0 0 184 0 0 157 0 0 198 0 0 176 0 0 181 0 0 200 0 0 167 0 0 182 0 0 182 0 0 200 0 0 192 0 0 177 0 0 171 0 0 174 0 0 190 0 0 170 0 0 185 0 0 196 0 0 165 0 0 190 0 0 169 0 0 164 0 0 134 0 0 150 0 0 96 0 0 30 0 0 18 0 0 27 0 0 20 0 0 15 0 0 19 0 0 15 0 0 10 0 0 9 0 0 
4 0 0 9 0 0 11 0 0 8 0 0 18 0 0 17 0 0 15 0 0 27 0 0 25 0 0 89 0 0 6830 0 0 13543 0 0 13590 0 0 13851 0 0 13761 0 0 13657 0 0 13608 0 0 13774 0 0 13889 0 0 13711 0 0 13675 0 0 13663 0 0 13849 0 0 13847 0 0 13482 0 0 13666 0 0 13767 0 0 13776 0 0 13716 0 0 13498 0 0 13729 0 0 13739 0 0 13668 0 0 13417 0 0 13604 0 0 13646 0 0 13760 0 0 13778 0 0 13712 0 0 13585 0 0 13638 0 0 13751 0 0 13822 0 0 13745 0 0 13552 0 0 13690 0 0 13584 0 0 13539 0 0 13585 0 0 13639 0 0 6859 0 0 89 0 0 27 0 0 35 0 0 24 0 0 20 0 0 17 0 0 11 0 0 10 0 0 11 0 0 
7 0 0 11 0 0 12 0 0 11 0 0 9 0 0 14 0 0 19 0 0 28 0 0 36 0 0 190 0 0 13434 0 0 27207 0 0 27420 0 0 27365 0 0 27300 0 0 26991 0 0 27410 0 0 27096 0 0 27306 0 0 27022 0 0 27108 0 0 27092 0 0 27200 0 0 26996 0 0 27153 0 0 27181 0 0 27226 0 0 27199 0 0 27265 0 0 27173 0 0 26926 0 0 27109 0 0 27233 0 0 27130 0 0 27274 0 0 27336 0 0 27157 0 0 27094 0 0 27275 0 0 26999 0 0 27264 0 0 27239 0 0 27155 0 0 27203 0 0 27394 0 0 27219 0 0 27279 0 0 27253 0 0 27219 0 0 27075 0 0 13485 0 0 141 0 0 37 0 0 35 0 0 17 0 0 15 0 0 16 0 0 10 0 0 11 0 0 9 0 0 
4 0 0 11 0 0 8 0 0 11 0 0 15 0 0 24 0 0 18 0 0 36 0 0 40 0 0 178 0 0 13661 0 0 27329 0 0 27362 0 0 27249 0 0 27468 0 0 27310 0 0 27321 0 0 27295 0 0 27291 0 0 27091 0 0 27643 0 0 27344 0 0 27232 0 0 27515 0 0 27367 0 0 27401 0 0 27321 0 0 27598 0 0 27359 0 0 27368 0 0 27220 0 0 27346 0 0 27402 0 0 27404 0 0 27536 0 0 27210 0 0 27314 0 0 27114 0 0 27360 0 0 27271 0 0 27406 0 0 27595 0 0 27109 0 0 27472 0 0 27469 0 0 27267 0 0 27578 0 0 27353 0 0 27212 0 0 27141 0 0 13639 0 0 175 0 0 40 0 0 19 0 0 17 0 0 18 0 0 16 0 0 11 0 0 9 0 0 5 0 0 
7 0 0 12 0 0 11 0 0 6 0 0 10 0 0 13 0 0 14 0 0 21 0 0 36 0 0 164 0 0 13660 0 0 27163 0 0 27451 0 0 27311 0 0 27061 0 0 27371 0 0 27305 0 0 27232 0 0 27356 0 0 27377 0 0 27566 0 0 27258 0 0 27274 0 0 27506 0 0 27408 0 0 27394 0 0 27410 0 0 27554 0 0 27279 0 0 27499 0 0 27498 0 0 27559 0 0 27296 0 0 27368 0 0 27243 0 0 27681 0 0 27177 0 0 27386 0 0 27250 0 0 27399 0 0 27332 0 0 27467 0 0 27088 0 0 27438 0 0 27362 0 0 27543 0 0 27446 0 0 27218 0 0 27495 0 0 27358 0 0 13916 0 0 177 0 0 35 0 0 32 0 0 34 0 0 21 0 0 17 0 0 12 0 0 8 0 0 11 0 0 
6 0 0 12 0 0 12 0 0 15 0 0 13 0 0 14 0 0 21 0 0 26 0 0 33 0 0 181 0 0 13570 0 0 27360 0 0 27148 0 0 27265 0 0 27068 0 0 27302 0 0 27212 0 0 27487 0 0 27249 0 0 27340 0 0 27264 0 0 27466 0 0 27083 0 0 26955 0 0 27498 0 0 27398 0 0 27159 0 0 27282 0 0 27308 0 0 27203 0 0 27263 0 0 27144 0 0 27385 0 0 27637 0 0 27320 0 0 26890 0 0 27202 0 0 27411 0 0 27468 0 0 27623 0 0 27413 0 0 27374 0 0 27423 0 0 27255 0 0 27532 0 0 27396 0 0 27400 0 0 27290 0 0 27638 0 0 27171 0 0 13592 0 0 148 0 0 39 0 0 32 0 0 25 0 0 24 0 0 23 0 0 17 0 0 14 0 0 11 0 0 
3 0 0 8 0 0 13 0 0 10 0 0 20 0 0 28 0 0 29 0 0 41 0 0 41 0 0 179 0 0 13895 0 0 26904 0 0 27397 0 0 27474 0 0 27203 0 0 27512 0 0 27132 0 0 27352 0 0 27247 0 0 27460 0 0 27340 0 0 27250 0 0 27443 0 0 27526 0 0 27700 0 0 27450 0 0 27195 0 0 27362 0 0 27516 0 0 27311 0 0 27217 0 0 27382 0 0 27196 0 0 27582 0 0 27374 0 0 27254 0 0 27267 0 0 27186 0 0 27185 0 0 27251 0 0 27239 0 0 27301 0 0 27262 0 0 27016 0 0 27467 0 0 27103 0 0 27269 0 0 27152 0 0 27205 0 0 27123 0 0 13779 0 0 170 0 0 37 0 0 19 0 0 22 0 0 22 0 0 17 0 0 11 0 0 11 0 0 10 0 0 
6 0 0 14 0 0 14 0 0 15 0 0 16 0 0 21 0 0 23 0 0 33 0 0 48 0 0 178 0 0 13653 0 0 27276 0 0 27278 0 0 27368 0 0 27557 0 0 27191 0 0 27205 0 0 27391 0 0 27275 0 0 27324 0 0 27045 0 0 27383 0 0 27277 0 0 27237 0 0 27658 0 0 27432 0 0 27334 0 0 27098 0 0 27378 0 0 27463 0 0 27296 0 0 27313 0 0 27607 0 0 27199 0 0 27234 0 0 27252 0 0 27129 0 0 27354 0 0 27357 0 0 27142 0 0 27221 0 0 27054 0 0 27287 0 0 27219 0 0 27508 0 0 27398 0 0 27427 0 0 27508 0 0 27304 0 0 27274 0 0 13476 0 0 177 0 0 35 0 0 26 0 0 22 0 0 22 0 0 23 0 0 14 0 0 18 0 0 13 0 0 
6 0 0 13 0 0 15 0 0 15 0 0 17 0 0 29 0 0 26 0 0 29 0 0 40 0 0 143 0 0 13595 0 0 27120 0 0 27409 0 0 27681 0 0 27363 0 0 27456 0 0 27498 0 0 27610 0 0 27383 0 0 27224 0 0 27166 0 0 27290 0 0 27286 0 0 27376 0 0 27363 0 0 27403 0 0 27502 0 0 27616 0 0 27415 0 0 27512 0 0 27652 0 0 27235 0 0 27339 0 0 27452 0 0 27316 0 0 27544 0 0 27233 0 0 27382 0 0 27269 0 0 27594 0 0 27451 0 0 27253 0 0 27407 0 0 27294 0 0 27371 0 0 27219 0 0 27272 0 0 27340 0 0 27257 0 0 27463 0 0 13580 0 0 162 0 0 47 0 0 41 0 0 32 0 0 27 0 0 16 0 0 13 0 0 8 0 0 12 0 0 
5 0 0 18 0 0 18 0 0 21 0 0 17 0 0 22 0 0 31 0 0 25 0 0 38 0 0 179 0 0 13620 0 0 27376 0 0 27463 0 0 27474 0 0 27491 0 0 27296 0 0 27447 0 0 27497 0 0 27176 0 0 27523 0 0 27425 0 0 27625 0 0 27591 0 0 27572 0 0 27484 0 0 27254 0 0 27708 0 0 27301 0 0 27395 0 0 27567 0 0 27145 0 0 27388 0 0 27424 0 0 27317 0 0 27459 0 0 27322 0 0 27222 0 0 27375 0 0 27541 0 0 27449 0 0 27496 0 0 27520 0 0 27321 0 0 27536 0 0 27370 0 0 27435 0 0 27393 0 0 27325 0 0 27600 0 0 26982 0 0 13746 0 0 168 0 0 50 0 0 45 0 0 30 0 0 23 0 0 14 0 0 16 0 0 9 0 0 12 0 0 
6 0 0 7 0 0 13 0 0 18 0 0 23 0 0 22 0 0 23 0 0 42 0 0 61 0 0 178 0 0 13704 0 0 27238 0 0 27338 0 0 27238 0 0 27107 0 0 27419 0 0 27118 0 0 27524 0 0 27315 0 0 27062 0 0 27383 0 0 27591 0 0 27279 0 0 27419 0 0 27354 0 0 27412 0 0 27482 0 0 27176 0 0 27421 0 0 27481 0 0 27270 0 0 27510 0 0 27224 0 0 27279 0 0 27174 0 0 27302 0 0 27389 0 0 27372 0 0 27422 0 0 27428 0 0 27039 0 0 27356 0 0 27182 0 0 27532 0 0 27325 0 0 27472 0 0 27540 0 0 27323 0 0 27547 0 0 26950 0 0 13515 0 0 164 0 0 38 0 0 34 0 0 22 0 0 17 0 0 16 0 0 12 0 0 15 0 0 12 0 0 
9 0 0 18 0 0 16 0 0 24 0 0 20 0 0 21 0 0 28 0 0 38 0 0 59 0 0 169 0 0 13817 0 0 27407 0 0 27307 0 0 27343 0 0 27340 0 0 27372 0 0 27444 0 0 27376 0 0 27596 0 0 27377 0 0 27373 0 0 27559 0 0 27474 0 0 27346 0 0 27368 0 0 27644 0 0 27666 0 0 27419 0 0 27363 0 0 27422 0 0 27439 0 0 27499 0 0 26970 0 0 27278 0 0 27583 0 0 27728 0 0 27552 0 0 27129 0 0 27211 0 0 27211 0 0 27652 0 0 27341 0 0 27390 0 0 27517 0 0 27645 0 0 27413 0 0 27303 0 0 27252 0 0 27475 0 0 27282 0 0 13632 0 0 178 0 0 44 0 0 28 0 0 21 0 0 26 0 0 20 0 0 16 0 0 12 0 0 9 0 0 
7 0 0 16 0 0 10 0 0 22 0 0 22 0 0 13 0 0 23 0 0 33 0 0 44 0 0 193 0 0 13677 0 0 27293 0 0 27520 0 0 27546 0 0 27177 0 0 27348 0 0 27245 0 0 27171 0 0 27418 0 0 27455 0 0 27200 0 0 27374 0 0 27383 0 0 27469 0 0 27366 0 0 27449 0 0 27387 0 0 27010 0 0 27446 0 0 27302 0 0 27297 0 0 27284 0 0 27634 0 0 27386 0 0 27244 0 0 27434 0 0 27654 0 0 27267 0 0 27064 0 0 27310 0 0 27630 0 0 27417 0 0 27356 0 0 27293 0 0 27247 0 0 27092 0 0 27333 0 0 27337 0 0 27151 0 0 27345 0 0 13701 0 0 184 0 0 35 0 0 29 0 0 24 0 0 24 0 0 18 0 0 14 0 0 12 0 0 11 0 0 
6 0 0 16 0 0 17 0 0 13 0 0 18 0 0 21 0 0 35 0 0 34 0 0 44 0 0 204 0 0 13712 0 0 26936 0 0 27476 0 0 27598 0 0 27398 0 0 27136 0 0 27517 0 0 27374 0 0 27114 0 0 27418 0 0 27238 0 0 27359 0 0 27446 0 0 27330 0 0 27296 0 0 27378 0 0 27312 0 0 27394 0 0 27222 0 0 27100 0 0 27222 0 0 27100 0 0 27475 0 0 27149 0 0 27179 0 0 27255 0 0 27390 0 0 27409 0 0 27457 0 0 27477 0 0 27575 0 0 27182 0 0 27359 0 0 27235 0 0 27322 0 0 27466 0 0 27373 0 0 27393 0 0 27166 0 0 27137 0 0 13607 0 0 191 0 0 54 0 0 46 0 0 34 0 0 15 0 0 15 0 0 14 0 0 16 0 0 11 0 0 
4 0 0 8 0 0 15 0 0 23 0 0 18 0 0 24 0 0 28 0 0 33 0 0 39 0 0 160 0 0 13655 0 0 27277 0 0 27364 0 0 27655 0 0 27364 0 0 27614 0 0 27252 0 0 27285 0 0 27351 0 0 27349 0 0 27323 0 0 27184 0 0 27307 0 0 27235 0 0 27656 0 0 27540 0 0 27245 0 0 27196 0 0 27243 0 0 27259 0 0 27432 0 0 27204 0 0 27236 0 0 27476 0 0 27355 0 0 27206 0 0 27348 0 0 27164 0 0 27602 0 0 27327 0 0 27421 0 0 27221 0 0 27277 0 0 27050 0 0 27360 0 0 27445 0 0 27223 0 0 27406 0 0 27446 0 0 27147 0 0 13560 0 0 173 0 0 41 0 0 41 0 0 23 0 0 18 0 0 12 0 0 15 0 0 10 0 0 12 0 0 
5 0 0 11 0 0 19 0 0 16 0 0 20 0 0 26 0 0 32 0 0 40 0 0 38 0 0 188 0 0 13597 0 0 27129 0 0 27215 0 0 27028 0 0 27427 0 0 27441 0 0 27342 0 0 27453 0 0 27623 0 0 27478 0 0 27316 0 0 27246 0 0 27644 0 0 27370 0 0 27482 0 0 27412 0 0 27232 0 0 27539 0 0 27357 0 0 27314 0 0 27106 0 0 27320 0 0 27501 0 0 27268 0 0 27394 0 0 27377 0 0 27409 0 0 27480 0 0 27457 0 0 27516 0 0 27231 0 0 27538 0 0 27431 0 0 27417 0 0 27383 0 0 27515 0 0 27336 0 0 27387 0 0 27457 0 0 27026 0 0 13818 0 0 186 0 0 55 0 0 43 0 0 20 0 0 25 0 0 23 0 0 14 0 0 9 0 0 10 0 0 
6 0 0 20 0 0 18 0 0 13 0 0 22 0 0 26 0 0 31 0 0 38 0 0 51 0 0 195 0 0 13775 0 0 27155 0 0 27297 0 0 27530 0 0 27203 0 0 27191 0 0 27408 0 0 27472 0 0 27375 0 0 27363 0 0 27119 0 0 27380 0 0 27393 0 0 27464 0 0 27338 0 0 27354 0 0 27287 0 0 27207 0 0 27480 0 0 27472 0 0 27599 0 0 27262 0 0 27234 0 0 27313 0 0 27513 0 0 27335 0 0 27511 0 0 27540 0 0 27349 0 0 27361 0 0 27327 0 0 27338 0 0 27414 0 0 27351 0 0 27363 0 0 27627 0 0 27330 0 0 27447 0 0 27204 0 0 27121 0 0 13431 0 0 193 0 0 44 0 0 35 0 0 34 0 0 16 0 0 24 0 0 14 0 0 19 0 0 17 0 0 
3 0 0 12 0 0 13 0 0 18 0 0 25 0 0 29 0 0 20 0 0 25 0 0 41 0 0 202 0 0 13737 0 0 27279 0 0 27368 0 0 27605 0 0 27178 0 0 27474 0 0 27363 0 0 27210 0 0 27290 0 0 27189 0 0 27422 0 0 27531 0 0 27624 0 0 27161 0 0 27519 0 0 27398 0 0 27280 0 0 26994 0 0 27259 0 0 27524 0 0 27394 0 0 27362 0 0 27147 0 0 27446 0 0 27342 0 0 27474 0 0 27421 0 0 27268 0 0 27263 0 0 27462 0 0 27379 0 0 27425 0 0 27579 0 0 27207 0 0 27475 0 0 27412 0 0 27408 0 0 27060 0 0 27398 0 0 27235 0 0 13686 0 0 170 0 0 49 0 0 29 0 0 33 0 0 25 0 0 18 0 0 17 0 0 12 0 0 13 0 0 
5 0 0 12 0 0 18 0 0 24 0 0 26 0 0 29 0 0 27 0 0 35 0 0 51 0 0 181 0 0 13804 0 0 27138 0 0 27226 0 0 27456 0 0 27375 0 0 27174 0 0 27347 0 0 27434 0 0 27229 0 0 27370 0 0 27292 0 0 27529 0 0 27378 0 0 27285 0 0 27135 0 0 27361 0 0 27437 0 0 27588 0 0 27250 0 0 27168 0 0 27394 0 0 27474 0 0 27406 0 0 27547 0 0 27485 0 0 27375 0 0 27322 0 0 27351 0 0 27280 0 0 27453 0 0 27143 0 0 27269 0 0 27335 0 0 27515 0 0 27323 0 0 27450 0 0 27239 0 0 27147 0 0 27630 0 0 26821 0 0 13592 0 0 176 0 0 54 0 0 37 0 0 26 0 0 20 0 0 13 0 0 15 0 0 16 0 0 18 0 0 
6 0 0 17 0 0 25 0 0 22 0 0 24 0 0 23 0 0 25 0 0 38 0 0 44 0 0 202 0 0 13687 0 0 27046 0 0 27359 0 0 27394 0 0 27122 0 0 27157 0 0 27220 0 0 27283 0 0 27650 0 0 27397 0 0 27572 0 0 27512 0 0 27391 0 0 27407 0 0 27232 0 0 27122 0 0 27267 0 0 27599 0 0 27212 0 0 27452 0 0 27242 0 0 27317 0 0 27176 0 0 27366 0 0 27298 0 0 27553 0 0 27612 0 0 27166 0 0 27343 0 0 27355 0 0 27209 0 0 27470 0 0 27428 0 0 27438 0 0 27473 0 0 27424 0 0 27427 0 0 27032 0 0 27144 0 0 27284 0 0 13718 0 0 166 0 0 37 0 0 42 0 0 24 0 0 18 0 0 15 0 0 17 0 0 14 0 0 15 0 0 
5 0 0 12 0 0 15 0 0 27 0 0 24 0 0 18 0 0 26 0 0 36 0 0 61 0 0 198 0 0 13674 0 0 27050 0 0 27412 0 0 27330 0 0 27480 0 0 27282 0 0 27298 0 0 27449 0 0 27362 0 0 27290 0 0 27461 0 0 27316 0 0 27157 0 0 27087 0 0 27357 0 0 27313 0 0 27261 0 0 27404 0 0 27459 0 0 27454 0 0 27190 0 0 27410 0 0 27597 0 0 27543 0 0 27081 0 0 27445 0 0 27533 0 0 27723 0 0 27203 0 0 27288 0 0 27557 0 0 27500 0 0 27454 0 0 27224 0 0 27593 0 0 27091 0 0 27322 0 0 27224 0 0 27384 0 0 27210 0 0 13695 0 0 178 0 0 39 0 0 27 0 0 25 0 0 22 0 0 23 0 0 24 0 0 16 0 0 11 0 0 
10 0 0 15 0 0 9 0 0 13 0 0 24 0 0 27 0 0 21 0 0 26 0 0 39 0 0 165 0 0 13715 0 0 27235 0 0 27564 0 0 27529 0 0 27135 0 0 27547 0 0 27323 0 0 27628 0 0 27298 0 0 27407 0 0 27070 0 0 27257 0 0 27468 0 0 27559 0 0 27522 0 0 27352 0 0 27134 0 0 27290 0 0 27410 0 0 27526 0 0 27203 0 0 27468 0 0 27424 0 0 27204 0 0 27424 0 0 27428 0 0 27528 0 0 27482 0 0 27199 0 0 27169 0 0 27353 0 0 27444 0 0 27359 0 0 27403 0 0 27362 0 0 27533 0 0 27395 0 0 27182 0 0 27342 0 0 27257 0 0 13694 0 0 179 0 0 39 0 0 26 0 0 28 0 0 23 0 0 23 0 0 18 0 0 10 0 0 10 0 0 
12 0 0 19 0 0 22 0 0 21 0 0 25 0 0 29 0 0 30 0 0 34 0 0 47 0 0 182 0 0 13714 0 0 27286 0 0 27174 0 0 27277 0 0 27282 0 0 27445 0 0 27543 0 0 27606 0 0 27570 0 0 27363 0 0 27357 0 0 27221 0 0 27299 0 0 27516 0 0 27590 0 0 27294 0 0 27351 0 0 27612 0 0 27466 0 0 27610 0 0 27549 0 0 27561 0 0 27553 0 0 27437 0 0 27391 0 0 27284 0 0 27554 0 0 27296 0 0 27236 0 0 27451 0 0 27172 0 0 27565 0 0 27258 0 0 27473 0 0 27287 0 0 27202 0 0 26981 0 0 27344 0 0 27147 0 0 27286 0 0 13683 0 0 167 0 0 39 0 0 35 0 0 37 0 0 29 0 0 18 0 0 15 0 0 17 0 0 18 0 0 
4 0 0 11 0 0 16 0 0 15 0 0 26 0 0 23 0 0 23 0 0 27 0 0 42 0 0 161 0 0 13711 0 0 27344 0 0 27422 0 0 27244 0 0 27095 0 0 27334 0 0 27199 0 0 27229 0 0 27590 0 0 27362 0 0 27227 0 0 27504 0 0 27213 0 0 27423 0 0 27472 0 0 27317 0 0 27130 0 0 27401 0 0 27438 0 0 27418 0 0 27466 0 0 27502 0 0 27473 0 0 27503 0 0 27663 0 0 27429 0 0 27545 0 0 27284 0 0 27480 0 0 27425 0 0 27501 0 0 27216 0 0 27406 0 0 27525 0 0 27194 0 0 27494 0 0 27320 0 0 27117 0 0 27129 0 0 27134 0 0 13792 0 0 186 0 0 44 0 0 36 0 0 26 0 0 18 0 0 18 0 0 17 0 0 13 0 0 13 0 0 
7 0 0 17 0 0 15 0 0 16 0 0 19 0 0 22 0 0 27 0 0 28 0 0 41 0 0 186 0 0 13666 0 0 27198 0 0 27414 0 0 27594 0 0 27525 0 0 27434 0 0 27437 0 0 27414 0 0 27476 0 0 27324 0 0 27357 0 0 27557 0 0 27480 0 0 27276 0 0 27228 0 0 27431 0 0 27210 0 0 27273 0 0 27520 0 0 27311 0 0 27395 0 0 27405 0 0 27643 0 0 27368 0 0 27535 0 0 27279 0 0 27250 0 0 27424 0 0 27116 0 0 27380 0 0 27392 0 0 27376 0 0 27307 0 0 27246 0 0 27418 0 0 27573 0 0 27387 0 0 27525 0 0 27439 0 0 27181 0 0 13815 0 0 200 0 0 54 0 0 26 0 0 26 0 0 24 0 0 21 0 0 13 0 0 10 0 0 7 0 0 
8 0 0 11 0 0 16 0 0 18 0 0 19 0 0 16 0 0 20 0 0 32 0 0 49 0 0 174 0 0 13682 0 0 27296 0 0 27536 0 0 27449 0 0 27454 0 0 27421 0 0 27504 0 0 27254 0 0 27349 0 0 27481 0 0 27360 0 0 27184 0 0 27344 0 0 27225 0 0 27272 0 0 27504 0 0 27220 0 0 27320 0 0 27291 0 0 27520 0 0 27643 0 0 27336 0 0 27470 0 0 27452 0 0 27357 0 0 27340 0 0 27169 0 0 27433 0 0 27490 0 0 27390 0 0 27252 0 0 27262 0 0 27450 0 0 27221 0 0 27550 0 0 27413 0 0 27440 0 0 27246 0 0 27401 0 0 27014 0 0 13765 0 0 175 0 0 41 0 0 31 0 0 24 0 0 25 0 0 23 0 0 16 0 0 11 0 0 21 0 0 
6 0 0 13 0 0 18 0 0 16 0 0 18 0 0 23 0 0 30 0 0 28 0 0 47 0 0 196 0 0 13780 0 0 27168 0 0 27223 0 0 27589 0 0 27227 0 0 27450 0 0 27413 0 0 27099 0 0 27330 0 0 27418 0 0 27560 0 0 27342 0 0 27522 0 0 27356 0 0 27583 0 0 27299 0 0 27557 0 0 27544 0 0 27466 0 0 27606 0 0 27583 0 0 27206 0 0 27245 0 0 27563 0 0 27480 0 0 27568 0 0 27057 0 0 27220 0 0 27504 0 0 27491 0 0 27413 0 0 27426 0 0 27399 0 0 27383 0 0 27461 0 0 27113 0 0 27465 0 0 27222 0 0 27252 0 0 27068 0 0 13790 0 0 179 0 0 35 0 0 31 0 0 21 0 0 17 0 0 12 0 0 15 0 0 22 0 0 16 0 0 
4 0 0 11 0 0 11 0 0 19 0 0 24 0 0 31 0 0 23 0 0 35 0 0 46 0 0 203 0 0 13562 0 0 27154 0 0 27383 0 0 27369 0 0 27368 0 0 27247 0 0 27391 0 0 27414 0 0 27213 0 0 27202 0 0 27152 0 0 27453 0 0 27195 0 0 27338 0 0 27337 0 0 27176 0 0 27212 0 0 27385 0 0 27450 0 0 27289 0 0 27429 0 0 27419 0 0 27554 0 0 27288 0 0 27420 0 0 27705 0 0 27608 0 0 27202 0 0 27014 0 0 27294 0 0 27451 0 0 27275 0 0 27462 0 0 27300 0 0 27404 0 0 27268 0 0 27364 0 0 27490 0 0 27225 0 0 27132 0 0 13757 0 0 189 0 0 33 0 0 32 0 0 29 0 0 19 0 0 10 0 0 15 0 0 21 0 0 13 0 0 
5 0 0 14 0 0 21 0 0 15 0 0 24 0 0 26 0 0 27 0 0 33 0 0 40 0 0 178 0 0 13684 0 0 27086 0 0 27284 0 0 27378 0 0 27449 0 0 27534 0 0 27515 0 0 27320 0 0 27378 0 0 27129 0 0 27464 0 0 27596 0 0 27613 0 0 27290 0 0 27411 0 0 27421 0 0 27083 0 0 27761 0 0 27209 0 0 27310 0 0 27541 0 0 27376 0 0 27072 0 0 27510 0 0 27429 0 0 27364 0 0 27537 0 0 27540 0 0 27167 0 0 27597 0 0 27671 0 0 27446 0 0 27539 0 0 27353 0 0 27253 0 0 27416 0 0 27385 0 0 27303 0 0 27332 0 0 27135 0 0 13591 0 0 184 0 0 46 0 0 35 0 0 38 0 0 25 0 0 17 0 0 11 0 0 7 0 0 12 0 0 
6 0 0 13 0 0 12 0 0 22 0 0 24 0 0 29 0 0 32 0 0 34 0 0 47 0 0 195 0 0 13721 0 0 27083 0 0 27291 0 0 27471 0 0 27359 0 0 27204 0 0 27459 0 0 27406 0 0 27479 0 0 27101 0 0 27156 0 0 27649 0 0 27578 0 0 27276 0 0 27187 0 0 27070 0 0 27576 0 0 27384 0 0 27438 0 0 27568 0 0 27367 0 0 27112 0 0 27103 0 0 27197 0 0 27496 0 0 27130 0 0 27388 0 0 27163 0 0 27486 0 0 27191 0 0 27533 0 0 27262 0 0 27272 0 0 27507 0 0 27169 0 0 27520 0 0 27246 0 0 27389 0 0 27388 0 0 27244 0 0 13751 0 0 173 0 0 40 0 0 33 0 0 29 0 0 25 0 0 24 0 0 12 0 0 16 0 0 12 0 0 
4 0 0 10 0 0 20 0 0 15 0 0 8 0 0 22 0 0 28 0 0 31 0 0 47 0 0 185 0 0 13737 0 0 27119 0 0 27221 0 0 27385 0 0 27141 0 0 27546 0 0 27571 0 0 27541 0 0 27368 0 0 27197 0 0 27191 0 0 27425 0 0 27468 0 0 27595 0 0 27340 0 0 27377 0 0 27572 0 0 27594 0 0 27753 0 0 27469 0 0 27243 0 0 27289 0 0 27607 0 0 27558 0 0 27504 0 0 27256 0 0 27465 0 0 27198 0 0 27532 0 0 27490 0 0 27252 0 0 27374 0 0 27434 0 0 27346 0 0 27373 0 0 27309 0 0 27284 0 0 27356 0 0 27247 0 0 27091 0 0 13666 0 0 187 0 0 56 0 0 41 0 0 24 0 0 21 0 0 21 0 0 13 0 0 11 0 0 10 0 0 
4 0 0 11 0 0 12 0 0 12 0 0 19 0 0 24 0 0 31 0 0 35 0 0 38 0 0 183 0 0 13677 0 0 27202 0 0 27121 0 0 27315 0 0 27364 0 0 27212 0 0 27174 0 0 27309 0 0 27549 0 0 27315 0 0 27327 0 0 27034 0 0 27526 0 0 27287 0 0 27547 0 0 27264 0 0 27313 0 0 27220 0 0 27212 0 0 27378 0 0 27376 0 0 27344 0 0 27515 0 0 27365 0 0 27429 0 0 27461 0 0 27624 0 0 27372 0 0 27295 0 0 27486 0 0 27123 0 0 27438 0 0 27289 0 0 27332 0 0 27264 0 0 27214 0 0 27300 0 0 27496 0 0 27169 0 0 27182 0 0 13691 0 0 159 0 0 59 0 0 38 0 0 28 0 0 15 0 0 18 0 0 16 0 0 11 0 0 5 0 0 
4 0 0 13 0 0 11 0 0 23 0 0 17 0 0 20 0 0 32 0 0 31 0 0 43 0 0 186 0 0 13709 0 0 27345 0 0 27217 0 0 27474 0 0 27222 0 0 27584 0 0 27349 0 0 27558 0 0 27524 0 0 27379 0 0 27656 0 0 27202 0 0 27265 0 0 27282 0 0 27337 0 0 27092 0 0 27578 0 0 27530 0 0 27457 0 0 27580 0 0 27521 0 0 27643 0 0 27149 0 0 27451 0 0 27548 0 0 27296 0 0 27631 0 0 27338 0 0 27303 0 0 27167 0 0 27373 0 0 27649 0 0 27274 0 0 27338 0 0 27230 0 0 27232 0 0 27263 0 0 27541 0 0 27261 0 0 27252 0 0 13773 0 0 175 0 0 42 0 0 29 0 0 25 0 0 23 0 0 24 0 0 16 0 0 14 0 0 13 0 0 
7 0 0 15 0 0 12 0 0 12 0 0 14 0 0 25 0 0 29 0 0 29 0 0 47 0 0 185 0 0 13687 0 0 27113 0 0 27253 0 0 27055 0 0 27343 0 0 27307 0 0 27390 0 0 27372 0 0 27034 0 0 27356 0 0 27440 0 0 27281 0 0 27532 0 0 27503 0 0 27525 0 0 27558 0 0 27406 0 0 27570 0 0 27450 0 0 27505 0 0 27363 0 0 27346 0 0 27551 0 0 27400 0 0 27394 0 0 27455 0 0 27159 0 0 27398 0 0 27469 0 0 27511 0 0 27415 0 0 27423 0 0 27231 0 0 27367 0 0 27365 0 0 27501 0 0 27463 0 0 27384 0 0 27383 0 0 27151 0 0 13753 0 0 182 0 0 39 0 0 36 0 0 27 0 0 26 0 0 24 0 0 25 0 0 18 0 0 18 0 0 
3 0 0 8 0 0 10 0 0 12 0 0 21 0 0 18 0 0 23 0 0 42 0 0 41 0 0 175 0 0 13509 0 0 27201 0 0 27429 0 0 27437 0 0 27519 0 0 27653 0 0 27339 0 0 27263 0 0 27297 0 0 27192 0 0 27275 0 0 27391 0 0 27318 0 0 27452 0 0 27228 0 0 27503 0 0 27692 0 0 27502 0 0 27335 0 0 27415 0 0 27217 0 0 27492 0 0 27298 0 0 27128 0 0 27415 0 0 27354 0 0 27353 0 0 27516 0 0 27309 0 0 27581 0 0 27403 0 0 27389 0 0 27419 0 0 27239 0 0 27286 0 0 27383 0 0 27557 0 0 27472 0 0 27372 0 0 27193 0 0 13696 0 0 169 0 0 38 0 0 35 0 0 27 0 0 14 0 0 23 0 0 10 0 0 21 0 0 18 0 0 
3 0 0 12 0 0 16 0 0 17 0 0 12 0 0 22 0 0 25 0 0 36 0 0 46 0 0 174 0 0 13685 0 0 27200 0 0 27211 0 0 27427 0 0 27293 0 0 27294 0 0 27310 0 0 27265 0 0 27363 0 0 27447 0 0 27254 0 0 27370 0 0 27638 0 0 27300 0 0 27586 0 0 27422 0 0 27329 0 0 27356 0 0 27356 0 0 27553 0 0 27358 0 0 27551 0 0 26949 0 0 27206 0 0 27373 0 0 27479 0 0 27490 0 0 27274 0 0 27292 0 0 27415 0 0 27129 0 0 27651 0 0 27292 0 0 27409 0 0 27376 0 0 27075 0 0 27354 0 0 27188 0 0 27527 0 0 27012 0 0 13538 0 0 178 0 0 37 0 0 32 0 0 22 0 0 15 0 0 15 0 0 16 0 0 12 0 0 15 0 0 
5 0 0 13 0 0 17 0 0 20 0 0 20 0 0 14 0 0 26 0 0 40 0 0 41 0 0 176 0 0 13797 0 0 27379 0 0 27514 0 0 27296 0 0 27398 0 0 27233 0 0 27407 0 0 27445 0 0 26949 0 0 27243 0 0 27181 0 0 27459 0 0 27531 0 0 27235 0 0 27371 0 0 27437 0 0 27563 0 0 27370 0 0 27335 0 0 27489 0 0 27465 0 0 27179 0 0 27299 0 0 27443 0 0 27356 0 0 27219 0 0 27510 0 0 27302 0 0 27176 0 0 27504 0 0 27473 0 0 27206 0 0 27526 0 0 27194 0 0 27291 0 0 27191 0 0 27387 0 0 27394 0 0 27220 0 0 27020 0 0 13566 0 0 171 0 0 40 0 0 32 0 0 30 0 0 18 0 0 13 0 0 14 0 0 12 0 0 11 0 0 
8 0 0 15 0 0 13 0 0 16 0 0 15 0 0 25 0 0 27 0 0 30 0 0 50 0 0 186 0 0 13704 0 0 27137 0 0 27453 0 0 27304 0 0 27471 0 0 27425 0 0 27633 0 0 27129 0 0 27373 0 0 27637 0 0 27298 0 0 27195 0 0 27166 0 0 27343 0 0 27330 0 0 27163 0 0 27584 0 0 27477 0 0 27230 0 0 27207 0 0 27502 0 0 27077 0 0 27196 0 0 27823 0 0 27326 0 0 27521 0 0 27464 0 0 27214 0 0 27328 0 0 27152 0 0 27404 0 0 27326 0 0 27054 0 0 27515 0 0 27378 0 0 27498 0 0 27286 0 0 27414 0 0 27503 0 0 27564 0 0 13664 0 0 202 0 0 33 0 0 31 0 0 23 0 0 21 0 0 20 0 0 15 0 0 14 0 0 9 0 0 
9 0 0 12 0 0 9 0 0 8 0 0 8 0 0 15 0 0 16 0 0 29 0 0 41 0 0 161 0 0 13697 0 0 27110 0 0 27252 0 0 27446 0 0 27304 0 0 27546 0 0 27338 0 0 27219 0 0 27405 0 0 27331 0 0 27495 0 0 27421 0 0 27413 0 0 27232 0 0 27569 0 0 27566 0 0 27410 0 0 27345 0 0 27431 0 0 27530 0 0 27417 0 0 27353 0 0 27313 0 0 27269 0 0 27098 0 0 27283 0 0 27371 0 0 26948 0 0 27124 0 0 27338 0 0 27433 0 0 27348 0 0 27357 0 0 27600 0 0 27062 0 0 27311 0 0 27226 0 0 27288 0 0 27548 0 0 27403 0 0 13671 0 0 163 0 0 35 0 0 27 0 0 28 0 0 27 0 0 11 0 0 9 0 0 8 0 0 8 0 0 
7 0 0 12 0 0 4 0 0 8 0 0 11 0 0 16 0 0 18 0 0 21 0 0 27 0 0 166 0 0 13636 0 0 27233 0 0 27494 0 0 27405 0 0 27333 0 0 27497 0 0 27072 0 0 27157 0 0 27427 0 0 27204 0 0 27151 0 0 27513 0 0 27356 0 0 27524 0 0 27337 0 0 27521 0 0 27231 0 0 27294 0 0 27288 0 0 27500 0 0 27461 0 0 27110 0 0 27484 0 0 27324 0 0 27498 0 0 27397 0 0 27222 0 0 27299 0 0 27187 0 0 27184 0 0 27478 0 0 27374 0 0 27256 0 0 27312 0 0 27163 0 0 27508 0 0 27276 0 0 27229 0 0 27216 0 0 27161 0 0 13728 0 0 162 0 0 39 0 0 16 0 0 19 0 0 17 0 0 13 0 0 10 0 0 9 0 0 5 0 0 
5 0 0 7 0 0 7 0 0 11 0 0 14 0 0 18 0 0 21 0 0 22 0 0 35 0 0 184 0 0 13760 0 0 27151 0 0 27129 0 0 27274 0 0 27081 0 0 27173 0 0 27011 0 0 27084 0 0 27220 0 0 27196 0 0 27239 0 0 27356 0 0 27137 0 0 27225 0 0 27181 0 0 27222 0 0 26932 0 0 27254 0 0 27276 0 0 27169 0 0 27227 0 0 27088 0 0 27228 0 0 27076 0 0 27139 0 0 27411 0 0 27169 0 0 27094 0 0 27076 0 0 27201 0 0 27174 0 0 27040 0 0 27093 0 0 27199 0 0 27343 0 0 27260 0 0 27371 0 0 27288 0 0 27264 0 0 26836 0 0 13651 0 0 162 0 0 38 0 0 23 0 0 17 0 0 15 0 0 19 0 0 16 0 0 12 0 0 13 0 0 
2 0 0 7 0 0 9 0 0 11 0 0 16 0 0 23 0 0 23 0 0 23 0 0 22 0 0 83 0 0 6758 0 0 13373 0 0 13629 0 0 13839 0 0 13758 0 0 13576 0 0 13549 0 0 13686 0 0 13617 0 0 13761 0 0 13774 0 0 13618 0 0 13648 0 0 13574 0 0 13817 0 0 13840 0 0 13625 0 0 13764 0 0 13545 0 0 13641 0 0 13518 0 0 13680 0 0 13769 0 0 13805 0 0 13844 0 0 13697 0 0 13857 0 0 13523 0 0 13571 0 0 13556 0 0 13738 0 0 13697 0 0 13647 0 0 13699 0 0 13630 0 0 13645 0 0 13724 0 0 13581 0 0 13784 0 0 13511 0 0 6813 0 0 83 0 0 27 0 0 21 0 0 15 0 0 13 0 0 12 0 0 12 0 0 11 0 0 5 0 0 
4 0 0 7 0 0 9 0 0 14 0 0 14 0 0 25 0 0 24 0 0 24 0 0 31 0 0 29 0 0 91 0 0 155 0 0 186 0 0 173 0 0 156 0 0 165 0 0 167 0 0 179 0 0 177 0 0 183 0 0 174 0 0 189 0 0 183 0 0 157 0 0 192 0 0 192 0 0 164 0 0 174 0 0 170 0 0 201 0 0 184 0 0 185 0 0 187 0 0 173 0 0 154 0 0 178 0 0 164 0 0 174 0 0 182 0 0 188 0 0 173 0 0 163 0 0 177 0 0 172 0 0 167 0 0 178 0 0 192 0 0 157 0 0 173 0 0 168 0 0 98 0 0 26 0 0 23 0 0 15 0 0 13 0 0 8 0 0 8 0 0 10 0 0 13 0 0 10 0 0 
3 0 0 6 0 0 11 0 0 13 0 0 21 0 0 18 0 0 16 0 0 13 0 0 20 0 0 18 0 0 21 0 0 36 0 0 39 0 0 35 0 0 32 0 0 38 0 0 38 0 0 37 0 0 44 0 0 43 0 0 45 0 0 46 0 0 40 0 0 36 0 0 55 0 0 54 0 0 38 0 0 46 0 0 56 0 0 40 0 0 48 0 0 52 0 0 53 0 0 37 0 0 49 0 0 46 0 0 38 0 0 47 0 0 42 0 0 46 0 0 47 0 0 36 0 0 51 0 0 32 0 0 46 0 0 43 0 0 40 0 0 41 0 0 33 0 0 34 0 0 31 0 0 19 0 0 13 0 0 16 0 0 10 0 0 11 0 0 8 0 0 7 0 0 4 0 0 8 0 0 
3 0 0 10 0 0 12 0 0 14 0 0 14 0 0 9 0 0 10 0 0 17 0 0 20 0 0 17 0 0 24 0 0 20 0 0 31 0 0 18 0 0 24 0 0 29 0 0 30 0 0 35 0 0 19 0 0 31 0 0 34 0 0 42 0 0 29 0 0 32 0 0 44 0 0 41 0 0 28 0 0 32 0 0 33 0 0 34 0 0 40 0 0 48 0 0 31 0 0 35 0 0 29 0 0 30 0 0 32 0 0 39 0 0 41 0 0 34 0 0 37 0 0 29 0 0 42 0 0 33 0 0 18 0 0 32 0 0 29 0 0 31 0 0 24 0 0 28 0 0 22 0 0 16 0 0 13 0 0 18 0 0 20 0 0 11 0 0 6 0 0 8 0 0 6 0 0 10 0 0 
2 0 0 11 0 0 9 0 0 9 0 0 7 0 0 12 0 0 9 0 0 17 0 0 22 0 0 19 0 0 17 0 0 16 0 0 23 0 0 15 0 0 21 0 0 31 0 0 26 0 0 31 0 0 19 0 0 23 0 0 27 0 0 29 0 0 38 0 0 31 0 0 27 0 0 35 0 0 25 0 0 38 0 0 32 0 0 33 0 0 39 0 0 31 0 0 31 0 0 33 0 0 27 0 0 19 0 0 21 0 0 30 0 0 39 0 0 28 0 0 27 0 0 30 0 0 36 0 0 27 0 0 15 0 0 15 0 0 23 0 0 22 0 0 27 0 0 23 0 0 19 0 0 13 0 0 13 0 0 11 0 0 12 0 0 13 0 0 8 0 0 3 0 0 9 0 0 5 0 0 
3 0 0 6 0 0 7 0 0 5 0 0 8 0 0 8 0 0 12 0 0 13 0 0 13 0 0 14 0 0 18 0 0 12 0 0 20 0 0 11 0 0 15 0 0 23 0 0 22 0 0 24 0 0 23 0 0 23 0 0 24 0 0 28 0 0 27 0 0 33 0 0 28 0 0 28 0 0 21 0 0 34 0 0 32 0 0 25 0 0 23 0 0 22 0 0 31 0 0 33 0 0 19 0 0 23 0 0 22 0 0 23 0 0 35 0 0 26 0 0 21 0 0 25 0 0 25 0 0 24 0 0 15 0 0 17 0 0 14 0 0 13 0 0 20 0 0 24 0 0 24 0 0 14 0 0 12 0 0 16 0 0 7 0 0 7 0 0 12 0 0 12 0 0 10 0 0 11 0 0 
2 0 0 8 0 0 6 0 0 8 0 0 10 0 0 6 0 0 10 0 0 12 0 0 14 0 0 13 0 0 13 0 0 11 0 0 13 0 0 9 0 0 9 0 0 16 0 0 17 0 0 12 0 0 13 0 0 23 0 0 24 0 0 22 0 0 33 0 0 32 0 0 26 0 0 21 0 0 21 0 0 23 0 0 25 0 0 20 0 0 17 0 0 31 0 0 28 0 0 22 0 0 22 0 0 22 0 0 12 0 0 17 0 0 24 0 0 23 0 0 27 0 0 18 0 0 17 0 0 30 0 0 13 0 0 11 0 0 12 0 0 9 0 0 12 0 0 15 0 0 13 0 0 15 0 0 11 0 0 11 0 0 11 0 0 9 0 0 6 0 0 8 0 0 9 0 0 10 0 0 
1 0 0 6 0 0 12 0 0 5 0 0 7 0 0 4 0 0 7 0 0 11 0 0 12 0 0 12 0 0 7 0 0 7 0 0 14 0 0 6 0 0 15 0 0 13 0 0 16 0 0 10 0 0 13 0 0 18 0 0 22 0 0 27 0 0 29 0 0 17 0 0 21 0 0 18 0 0 12 0 0 13 0 0 18 0 0 22 0 0 13 0 0 26 0 0 23 0 0 14 0 0 17 0 0 19 0 0 19 0 0 15 0 0 22 0 0 19 0 0 24 0 0 12 0 0 16 0 0 24 0 0 15 0 0 12 0 0 17 0 0 14 0 0 8 0 0 12 0 0 14 0 0 7 0 0 12 0 0 8 0 0 11 0 0 8 0 0 8 0 0 7 0 0 4 0 0 8 0 0 
2 0 0 5 0 0 4 0 0 7 0 0 2 0 0 8 0 0 5 0 0 11 0 0 13 0 0 10 0 0 7 0 0 11 0 0 6 0 0 9 0 0 13 0 0 5 0 0 20 0 0 12 0 0 11 0 0 12 0 0 19 0 0 20 0 0 17 0 0 11 0 0 11 0 0 12 0 0 13 0 0 12 0 0 17 0 0 16 0 0 17 0 0 22 0 0 16 0 0 15 0 0 14 0 0 11 0 0 18 0 0 18 0 0 18 0 0 13 0 0 23 0 0 9 0 0 10 0 0 22 0 0 13 0 0 15 0 0 13 0 0 12 0 0 11 0 0 10 0 0 8 0 0 5 0 0 8 0 0 10 0 0 8 0 0 7 0 0 5 0 0 2 0 0 5 0 0 6 0 0 
1 0 0 0 0 0 5 0 0 3 0 0 9 0 0 3 0 0 5 0 0 12 0 0 7 0 0 9 0 0 8 0 0 6 0 0 8 0 0 7 0 0 9 0 0 12 0 0 14 0 0 8 0 0 6 0 0 12 0 0 16 0 0 17 0 0 7 0 0 13 0 0 10 0 0 10 0 0 13 0 0 11 0 0 15 0 0 15 0 0 19 0 0 15 0 0 21 0 0 12 0 0 12 0 0 14 0 0 15 0 0 13 0 0 13 0 0 11 0 0 12 0 0 12 0 0 14 0 0 14 0 0 11 0 0 9 0 0 11 0 0 10 0 0 6 0 0 13 0 0 6 0 0 6 0 0 7 0 0 8 0 0 7 0 0 4 0 0 3 0 0 2 0 0 2 0 0 1 0 0 
