P3
# This is a dose file slice at depth 10 of 100
60 60
# now we give the maximum value of the RGB coordinates.
32920
0 0 0 2 0 0 4 0 0 2 0 0 2 0 0 6 0 0 3 0 0 3 0 0 3 0 0 4 0 0 5 0 0 3 0 0 2 0 0 2 0 0 6 0 0 5 0 0 4 0 0 4 0 0 3 0 0 3 0 0 5 0 0 6 0 0 5 0 0 3 0 0 5 0 0 6 0 0 4 0 0 8 0 0 5 0 0 5 0 0 7 0 0 5 0 0 7 0 0 8 0 0 7 0 0 4 0 0 6 0 0 7 0 0 3 0 0 3 0 0 4 0 0 6 0 0 5 0 0 5 0 0 3 0 0 1 0 0 4 0 0 8 0 0 6 0 0 2 0 0 2 0 0 1 0 0 7 0 0 2 0 0 0 0 0 0 0 0 3 0 0 5 0 0 4 0 0 2 0 0 
0 0 0 5 0 0 6 0 0 8 0 0 7 0 0 7 0 0 6 0 0 9 0 0 9 0 0 7 0 0 15 0 0 6 0 0 5 0 0 6 0 0 11 0 0 12 0 0 12 0 0 8 0 0 9 0 0 6 0 0 9 0 0 8 0 0 16 0 0 8 0 0 10 0 0 17 0 0 14 0 0 14 0 0 18 0 0 16 0 0 17 0 0 15 0 0 11 0 0 13 0 0 12 0 0 13 0 0 9 0 0 13 0 0 10 0 0 10 0 0 14 0 0 12 0 0 17 0 0 8 0 0 7 0 0 8 0 0 11 0 0 19 0 0 5 0 0 2 0 0 6 0 0 9 0 0 10 0 0 5 0 0 6 0 0 7 0 0 11 0 0 8 0 0 7 0 0 3 0 0 
2 0 0 8 0 0 9 0 0 7 0 0 6 0 0 5 0 0 11 0 0 5 0 0 8 0 0 8 0 0 7 0 0 12 0 0 5 0 0 10 0 0 20 0 0 11 0 0 15 0 0 13 0 0 12 0 0 8 0 0 8 0 0 13 0 0 18 0 0 9 0 0 21 0 0 17 0 0 16 0 0 13 0 0 11 0 0 14 0 0 14 0 0 14 0 0 11 0 0 19 0 0 17 0 0 12 0 0 11 0 0 15 0 0 16 0 0 19 0 0 18 0 0 18 0 0 15 0 0 8 0 0 15 0 0 12 0 0 11 0 0 18 0 0 6 0 0 7 0 0 10 0 0 10 0 0 10 0 0 12 0 0 6 0 0 5 0 0 13 0 0 6 0 0 4 0 0 3 0 0 
3 0 0 5 0 0 9 0 0 15 0 0 8 0 0 5 0 0 4 0 0 4 0 0 9 0 0 11 0 0 10 0 0 14 0 0 13 0 0 6 0 0 22 0 0 20 0 0 15 0 0 19 0 0 18 0 0 13 0 0 10 0 0 19 0 0 17 0 0 11 0 0 17 0 0 14 0 0 19 0 0 19 0 0 18 0 0 12 0 0 12 0 0 19 0 0 12 0 0 21 0 0 19 0 0 17 0 0 14 0 0 13 0 0 14 0 0 25 0 0 11 0 0 22 0 0 12 0 0 12 0 0 16 0 0 16 0 0 15 0 0 22 0 0 15 0 0 10 0 0 10 0 0 11 0 0 12 0 0 7 0 0 6 0 0 12 0 0 10 0 0 4 0 0 3 0 0 10 0 0 
6 0 0 7 0 0 5 0 0 10 0 0 12 0 0 8 0 0 11 0 0 7 0 0 12 0 0 9 0 0 12 0 0 14 0 0 16 0 0 13 0 0 13 0 0 19 0 0 21 0 0 20 0 0 21 0 0 14 0 0 20 0 0 23 0 0 23 0 0 20 0 0 17 0 0 19 0 0 24 0 0 26 0 0 20 0 0 17 0 0 19 0 0 21 0 0 29 0 0 17 0 0 15 0 0 24 0 0 14 0 0 17 0 0 27 0 0 22 0 0 16 0 0 25 0 0 14 0 0 29 0 0 20 0 0 18 0 0 18 0 0 20 0 0 15 0 0 10 0 0 12 0 0 12 0 0 7 0 0 8 0 0 11 0 0 15 0 0 0 0 0 3 0 0 8 0 0 9 0 0 
5 0 0 11 0 0 7 0 0 7 0 0 13 0 0 11 0 0 9 0 0 12 0 0 17 0 0 18 0 0 17 0 0 14 0 0 20 0 0 12 0 0 17 0 0 15 0 0 18 0 0 21 0 0 26 0 0 19 0 0 22 0 0 24 0 0 30 0 0 23 0 0 24 0 0 25 0 0 24 0 0 26 0 0 22 0 0 15 0 0 21 0 0 25 0 0 28 0 0 29 0 0 27 0 0 30 0 0 25 0 0 23 0 0 31 0 0 16 0 0 22 0 0 25 0 0 19 0 0 24 0 0 31 0 0 20 0 0 20 0 0 20 0 0 12 0 0 15 0 0 15 0 0 12 0 0 12 0 0 17 0 0 10 0 0 10 0 0 5 0 0 12 0 0 14 0 0 8 0 0 
6 0 0 11 0 0 11 0 0 7 0 0 9 0 0 14 0 0 12 0 0 8 0 0 9 0 0 13 0 0 17 0 0 24 0 0 23 0 0 22 0 0 21 0 0 18 0 0 24 0 0 16 0 0 28 0 0 24 0 0 20 0 0 31 0 0 39 0 0 31 0 0 21 0 0 25 0 0 24 0 0 17 0 0 36 0 0 28 0 0 36 0 0 23 0 0 33 0 0 35 0 0 28 0 0 30 0 0 29 0 0 23 0 0 32 0 0 27 0 0 30 0 0 31 0 0 20 0 0 23 0 0 29 0 0 22 0 0 14 0 0 18 0 0 14 0 0 19 0 0 15 0 0 13 0 0 12 0 0 14 0 0 12 0 0 8 0 0 7 0 0 9 0 0 6 0 0 4 0 0 
1 0 0 5 0 0 10 0 0 9 0 0 6 0 0 11 0 0 10 0 0 14 0 0 12 0 0 9 0 0 21 0 0 20 0 0 24 0 0 21 0 0 34 0 0 28 0 0 36 0 0 30 0 0 30 0 0 28 0 0 24 0 0 45 0 0 45 0 0 40 0 0 30 0 0 33 0 0 26 0 0 29 0 0 39 0 0 40 0 0 36 0 0 29 0 0 27 0 0 43 0 0 39 0 0 28 0 0 51 0 0 30 0 0 35 0 0 31 0 0 41 0 0 26 0 0 28 0 0 38 0 0 29 0 0 23 0 0 29 0 0 25 0 0 24 0 0 20 0 0 16 0 0 17 0 0 14 0 0 15 0 0 14 0 0 10 0 0 11 0 0 8 0 0 6 0 0 5 0 0 
4 0 0 4 0 0 5 0 0 10 0 0 12 0 0 13 0 0 11 0 0 14 0 0 18 0 0 14 0 0 25 0 0 25 0 0 33 0 0 35 0 0 38 0 0 33 0 0 41 0 0 54 0 0 39 0 0 35 0 0 47 0 0 46 0 0 43 0 0 47 0 0 51 0 0 48 0 0 33 0 0 46 0 0 54 0 0 37 0 0 38 0 0 39 0 0 48 0 0 40 0 0 37 0 0 56 0 0 51 0 0 45 0 0 41 0 0 49 0 0 34 0 0 28 0 0 42 0 0 44 0 0 33 0 0 37 0 0 40 0 0 31 0 0 31 0 0 25 0 0 24 0 0 20 0 0 21 0 0 14 0 0 15 0 0 10 0 0 11 0 0 8 0 0 7 0 0 10 0 0 
4 0 0 7 0 0 9 0 0 11 0 0 17 0 0 19 0 0 14 0 0 11 0 0 19 0 0 24 0 0 85 0 0 148 0 0 179 0 0 183 0 0 170 0 0 185 0 0 177 0 0 186 0 0 173 0 0 167 0 0 186 0 0 175 0 0 191 0 0 174 0 0 187 0 0 179 0 0 181 0 0 178 0 0 168 0 0 180 0 0 172 0 0 175 0 0 188 0 0 150 0 0 199 0 0 200 0 0 180 0 0 172 0 0 181 0 0 164 0 0 174 0 0 158 0 0 170 0 0 178 0 0 170 0 0 159 0 0 163 0 0 159 0 0 150 0 0 163 0 0 95 0 0 28 0 0 28 0 0 16 0 0 17 0 0 13 0 0 17 0 0 17 0 0 11 0 0 9 0 0 
3 0 0 6 0 0 10 0 0 11 0 0 10 0 0 12 0 0 22 0 0 21 0 0 29 0 0 77 0 0 6598 0 0 13346 0 0 13328 0 0 13420 0 0 13460 0 0 13418 0 0 13310 0 0 13355 0 0 13469 0 0 13326 0 0 13183 0 0 13442 0 0 13444 0 0 13301 0 0 13333 0 0 13393 0 0 13401 0 0 13344 0 0 13293 0 0 13371 0 0 13331 0 0 13395 0 0 13158 0 0 13321 0 0 13201 0 0 13487 0 0 13347 0 0 13636 0 0 13393 0 0 13351 0 0 13333 0 0 13359 0 0 13454 0 0 13309 0 0 13269 0 0 13301 0 0 13506 0 0 13210 0 0 13268 0 0 13366 0 0 6760 0 0 98 0 0 43 0 0 28 0 0 13 0 0 16 0 0 14 0 0 9 0 0 11 0 0 9 0 0 
6 0 0 11 0 0 5 0 0 11 0 0 9 0 0 17 0 0 25 0 0 22 0 0 35 0 0 149 0 0 13263 0 0 26457 0 0 26818 0 0 26451 0 0 26599 0 0 26382 0 0 26687 0 0 26506 0 0 26610 0 0 26357 0 0 26680 0 0 26784 0 0 26363 0 0 26359 0 0 26375 0 0 26419 0 0 26693 0 0 26667 0 0 26353 0 0 26568 0 0 26016 0 0 26625 0 0 26506 0 0 26597 0 0 26477 0 0 26891 0 0 26511 0 0 26696 0 0 26526 0 0 26565 0 0 26600 0 0 26442 0 0 26540 0 0 26731 0 0 26580 0 0 26328 0 0 26629 0 0 26523 0 0 26499 0 0 26527 0 0 13239 0 0 164 0 0 42 0 0 21 0 0 18 0 0 17 0 0 14 0 0 13 0 0 11 0 0 10 0 0 
3 0 0 9 0 0 10 0 0 12 0 0 14 0 0 16 0 0 21 0 0 28 0 0 40 0 0 174 0 0 13343 0 0 26569 0 0 26694 0 0 26608 0 0 26791 0 0 26633 0 0 26793 0 0 26686 0 0 26743 0 0 26808 0 0 26831 0 0 26583 0 0 26628 0 0 26575 0 0 26746 0 0 26506 0 0 26570 0 0 26831 0 0 26763 0 0 26719 0 0 26539 0 0 26772 0 0 26701 0 0 26677 0 0 27011 0 0 26635 0 0 26702 0 0 26643 0 0 26614 0 0 26699 0 0 26857 0 0 26824 0 0 26730 0 0 26882 0 0 26802 0 0 26469 0 0 26678 0 0 26646 0 0 26522 0 0 26396 0 0 13288 0 0 167 0 0 35 0 0 16 0 0 21 0 0 29 0 0 14 0 0 16 0 0 10 0 0 14 0 0 
3 0 0 8 0 0 11 0 0 12 0 0 24 0 0 20 0 0 14 0 0 22 0 0 34 0 0 150 0 0 13386 0 0 26655 0 0 26495 0 0 26721 0 0 26473 0 0 26709 0 0 26488 0 0 26506 0 0 26772 0 0 26488 0 0 26880 0 0 26626 0 0 26777 0 0 26784 0 0 26778 0 0 26741 0 0 26747 0 0 26962 0 0 26644 0 0 26722 0 0 26734 0 0 26705 0 0 26585 0 0 26736 0 0 26586 0 0 26798 0 0 26570 0 0 26688 0 0 26611 0 0 26662 0 0 26530 0 0 26638 0 0 26740 0 0 26708 0 0 26759 0 0 26791 0 0 26616 0 0 26764 0 0 26761 0 0 26727 0 0 13532 0 0 180 0 0 36 0 0 20 0 0 20 0 0 16 0 0 17 0 0 18 0 0 18 0 0 13 0 0 
3 0 0 3 0 0 6 0 0 12 0 0 15 0 0 33 0 0 40 0 0 35 0 0 43 0 0 166 0 0 13195 0 0 26629 0 0 26734 0 0 26574 0 0 26560 0 0 26901 0 0 26935 0 0 26521 0 0 26677 0 0 26596 0 0 26820 0 0 26770 0 0 26395 0 0 26514 0 0 26662 0 0 27051 0 0 26634 0 0 26769 0 0 26723 0 0 26612 0 0 26708 0 0 26450 0 0 26703 0 0 26971 0 0 26619 0 0 26583 0 0 26621 0 0 26584 0 0 26637 0 0 26914 0 0 26775 0 0 26738 0 0 26701 0 0 26733 0 0 26687 0 0 26901 0 0 26622 0 0 26544 0 0 27011 0 0 26563 0 0 13373 0 0 176 0 0 30 0 0 27 0 0 25 0 0 19 0 0 19 0 0 13 0 0 14 0 0 2 0 0 
4 0 0 8 0 0 8 0 0 16 0 0 19 0 0 22 0 0 29 0 0 35 0 0 53 0 0 162 0 0 13558 0 0 26583 0 0 26688 0 0 26494 0 0 26551 0 0 26685 0 0 26509 0 0 26652 0 0 26865 0 0 26606 0 0 26745 0 0 26530 0 0 26647 0 0 26711 0 0 26737 0 0 26698 0 0 26518 0 0 26688 0 0 26825 0 0 26576 0 0 26836 0 0 26662 0 0 26761 0 0 26837 0 0 26570 0 0 26826 0 0 26702 0 0 26454 0 0 26650 0 0 26720 0 0 26558 0 0 26532 0 0 26520 0 0 26454 0 0 26544 0 0 26479 0 0 26454 0 0 26564 0 0 26727 0 0 26398 0 0 13323 0 0 164 0 0 36 0 0 31 0 0 20 0 0 12 0 0 12 0 0 13 0 0 9 0 0 11 0 0 
4 0 0 11 0 0 5 0 0 15 0 0 19 0 0 22 0 0 27 0 0 32 0 0 36 0 0 172 0 0 13299 0 0 26663 0 0 26676 0 0 26866 0 0 26906 0 0 26532 0 0 26678 0 0 26778 0 0 26528 0 0 26734 0 0 26568 0 0 26702 0 0 26600 0 0 26743 0 0 26715 0 0 26664 0 0 26702 0 0 26497 0 0 26734 0 0 26668 0 0 26541 0 0 26719 0 0 26673 0 0 26658 0 0 26424 0 0 26648 0 0 26510 0 0 26636 0 0 26744 0 0 26693 0 0 26537 0 0 26253 0 0 26507 0 0 26452 0 0 26822 0 0 26751 0 0 26909 0 0 26785 0 0 26690 0 0 26657 0 0 13341 0 0 171 0 0 43 0 0 21 0 0 21 0 0 16 0 0 14 0 0 19 0 0 12 0 0 10 0 0 
6 0 0 16 0 0 15 0 0 13 0 0 13 0 0 14 0 0 24 0 0 30 0 0 38 0 0 164 0 0 13293 0 0 26638 0 0 26574 0 0 26701 0 0 26482 0 0 26835 0 0 26765 0 0 26843 0 0 26826 0 0 26607 0 0 26610 0 0 26683 0 0 26567 0 0 26501 0 0 26725 0 0 26810 0 0 26952 0 0 27067 0 0 26724 0 0 26683 0 0 26912 0 0 26626 0 0 26843 0 0 26980 0 0 26792 0 0 26909 0 0 26737 0 0 26772 0 0 26361 0 0 26531 0 0 26790 0 0 26688 0 0 26681 0 0 26749 0 0 26602 0 0 26836 0 0 26856 0 0 26739 0 0 26652 0 0 26526 0 0 13352 0 0 174 0 0 37 0 0 31 0 0 24 0 0 19 0 0 16 0 0 10 0 0 12 0 0 12 0 0 
3 0 0 18 0 0 13 0 0 13 0 0 20 0 0 30 0 0 35 0 0 32 0 0 47 0 0 172 0 0 13342 0 0 26590 0 0 26768 0 0 26908 0 0 26502 0 0 26704 0 0 26685 0 0 26972 0 0 26644 0 0 26814 0 0 26593 0 0 26845 0 0 27105 0 0 26678 0 0 26663 0 0 26443 0 0 26667 0 0 26657 0 0 26892 0 0 26822 0 0 26390 0 0 26835 0 0 26630 0 0 26676 0 0 26893 0 0 26766 0 0 26585 0 0 26543 0 0 26859 0 0 26480 0 0 26822 0 0 26724 0 0 26552 0 0 26678 0 0 26774 0 0 26570 0 0 27128 0 0 26503 0 0 26660 0 0 26342 0 0 13192 0 0 151 0 0 38 0 0 44 0 0 30 0 0 22 0 0 18 0 0 15 0 0 16 0 0 15 0 0 
4 0 0 13 0 0 15 0 0 19 0 0 20 0 0 27 0 0 26 0 0 31 0 0 37 0 0 177 0 0 13233 0 0 26805 0 0 26543 0 0 26694 0 0 26606 0 0 26667 0 0 26552 0 0 26896 0 0 26590 0 0 26485 0 0 26903 0 0 26899 0 0 26745 0 0 26846 0 0 26610 0 0 26819 0 0 26722 0 0 26783 0 0 26873 0 0 26791 0 0 26624 0 0 26767 0 0 26610 0 0 26640 0 0 26729 0 0 26516 0 0 26593 0 0 26812 0 0 26731 0 0 26581 0 0 26602 0 0 26631 0 0 26621 0 0 26591 0 0 26893 0 0 26741 0 0 26692 0 0 26486 0 0 26608 0 0 26385 0 0 13159 0 0 186 0 0 52 0 0 32 0 0 40 0 0 24 0 0 24 0 0 18 0 0 14 0 0 13 0 0 
8 0 0 16 0 0 17 0 0 15 0 0 19 0 0 20 0 0 28 0 0 36 0 0 37 0 0 168 0 0 13495 0 0 26488 0 0 26759 0 0 26799 0 0 26894 0 0 26542 0 0 26560 0 0 26566 0 0 26992 0 0 26637 0 0 26984 0 0 26874 0 0 26674 0 0 26733 0 0 26874 0 0 26853 0 0 26905 0 0 26541 0 0 26877 0 0 26600 0 0 26513 0 0 26681 0 0 26560 0 0 26997 0 0 26685 0 0 26888 0 0 26939 0 0 26374 0 0 26722 0 0 26411 0 0 26726 0 0 26585 0 0 26506 0 0 26617 0 0 26927 0 0 26800 0 0 26540 0 0 26678 0 0 26555 0 0 26776 0 0 13352 0 0 180 0 0 60 0 0 24 0 0 22 0 0 18 0 0 15 0 0 16 0 0 14 0 0 17 0 0 
5 0 0 14 0 0 19 0 0 20 0 0 21 0 0 35 0 0 37 0 0 41 0 0 48 0 0 192 0 0 13426 0 0 26568 0 0 26925 0 0 26827 0 0 26514 0 0 26775 0 0 26616 0 0 26654 0 0 26795 0 0 26909 0 0 26566 0 0 26627 0 0 26795 0 0 26825 0 0 26729 0 0 26636 0 0 26596 0 0 26569 0 0 26861 0 0 26631 0 0 26704 0 0 26774 0 0 26783 0 0 26636 0 0 26863 0 0 26574 0 0 26900 0 0 26707 0 0 26527 0 0 26785 0 0 26702 0 0 26967 0 0 26763 0 0 26590 0 0 26356 0 0 26643 0 0 26793 0 0 26557 0 0 26496 0 0 26807 0 0 13256 0 0 191 0 0 41 0 0 33 0 0 25 0 0 18 0 0 27 0 0 20 0 0 13 0 0 11 0 0 
8 0 0 13 0 0 22 0 0 16 0 0 22 0 0 24 0 0 17 0 0 30 0 0 38 0 0 161 0 0 13274 0 0 26439 0 0 26762 0 0 26679 0 0 26990 0 0 26542 0 0 26757 0 0 26713 0 0 26416 0 0 26684 0 0 26883 0 0 26631 0 0 26837 0 0 26893 0 0 26768 0 0 26733 0 0 26843 0 0 26580 0 0 26886 0 0 26548 0 0 26612 0 0 26667 0 0 26686 0 0 26403 0 0 26651 0 0 26641 0 0 26790 0 0 26510 0 0 26895 0 0 26754 0 0 26783 0 0 26673 0 0 26862 0 0 26680 0 0 26837 0 0 26676 0 0 26564 0 0 26932 0 0 26779 0 0 26513 0 0 13208 0 0 187 0 0 42 0 0 40 0 0 35 0 0 33 0 0 20 0 0 15 0 0 14 0 0 16 0 0 
11 0 0 12 0 0 15 0 0 22 0 0 24 0 0 27 0 0 28 0 0 29 0 0 41 0 0 171 0 0 13279 0 0 26550 0 0 26775 0 0 26849 0 0 26892 0 0 26542 0 0 26552 0 0 26665 0 0 26727 0 0 26534 0 0 26661 0 0 26674 0 0 26643 0 0 26702 0 0 26841 0 0 26857 0 0 26407 0 0 26897 0 0 26597 0 0 26394 0 0 26669 0 0 26660 0 0 26495 0 0 26603 0 0 26733 0 0 26656 0 0 26752 0 0 26896 0 0 26686 0 0 26647 0 0 26769 0 0 26550 0 0 26630 0 0 26653 0 0 26642 0 0 26812 0 0 26650 0 0 26967 0 0 26650 0 0 26633 0 0 13161 0 0 182 0 0 44 0 0 32 0 0 31 0 0 24 0 0 15 0 0 10 0 0 16 0 0 14 0 0 
5 0 0 14 0 0 16 0 0 11 0 0 21 0 0 23 0 0 33 0 0 31 0 0 47 0 0 175 0 0 13352 0 0 26316 0 0 26825 0 0 26710 0 0 26541 0 0 26776 0 0 26900 0 0 26575 0 0 26704 0 0 26751 0 0 26584 0 0 26829 0 0 26988 0 0 26728 0 0 26781 0 0 26695 0 0 26798 0 0 26530 0 0 26525 0 0 26729 0 0 26473 0 0 26630 0 0 26630 0 0 26544 0 0 26850 0 0 26970 0 0 26945 0 0 26567 0 0 26481 0 0 26675 0 0 26581 0 0 26866 0 0 26634 0 0 26698 0 0 26711 0 0 26904 0 0 26766 0 0 26495 0 0 26738 0 0 26587 0 0 13359 0 0 181 0 0 42 0 0 27 0 0 25 0 0 15 0 0 21 0 0 16 0 0 13 0 0 11 0 0 
8 0 0 15 0 0 14 0 0 18 0 0 14 0 0 23 0 0 29 0 0 37 0 0 54 0 0 191 0 0 13439 0 0 26720 0 0 26801 0 0 26967 0 0 26844 0 0 26718 0 0 26818 0 0 26777 0 0 26793 0 0 26586 0 0 26422 0 0 26657 0 0 26690 0 0 26911 0 0 26698 0 0 26722 0 0 26574 0 0 26623 0 0 26923 0 0 27075 0 0 26821 0 0 26676 0 0 26742 0 0 26805 0 0 26813 0 0 26852 0 0 26870 0 0 27001 0 0 26866 0 0 26849 0 0 26685 0 0 26519 0 0 26765 0 0 26549 0 0 26764 0 0 26993 0 0 26774 0 0 26764 0 0 26716 0 0 26429 0 0 13249 0 0 171 0 0 51 0 0 35 0 0 23 0 0 22 0 0 16 0 0 20 0 0 12 0 0 17 0 0 
6 0 0 12 0 0 22 0 0 17 0 0 22 0 0 23 0 0 29 0 0 37 0 0 40 0 0 196 0 0 13305 0 0 26550 0 0 26742 0 0 26823 0 0 26584 0 0 26595 0 0 26763 0 0 26736 0 0 26541 0 0 26843 0 0 26817 0 0 26704 0 0 26839 0 0 26590 0 0 26660 0 0 26809 0 0 26597 0 0 26356 0 0 26708 0 0 26650 0 0 26666 0 0 26733 0 0 26739 0 0 26793 0 0 26610 0 0 26791 0 0 26803 0 0 26848 0 0 26754 0 0 26843 0 0 26743 0 0 26611 0 0 26942 0 0 26654 0 0 26900 0 0 26773 0 0 26522 0 0 26780 0 0 26611 0 0 26722 0 0 13333 0 0 167 0 0 42 0 0 37 0 0 25 0 0 16 0 0 17 0 0 22 0 0 17 0 0 13 0 0 
8 0 0 16 0 0 20 0 0 25 0 0 28 0 0 32 0 0 35 0 0 37 0 0 44 0 0 176 0 0 13380 0 0 26443 0 0 26726 0 0 26798 0 0 26731 0 0 26699 0 0 26726 0 0 26532 0 0 26542 0 0 26722 0 0 26696 0 0 26649 0 0 26772 0 0 26550 0 0 26397 0 0 26526 0 0 26930 0 0 26709 0 0 26610 0 0 26745 0 0 26503 0 0 27065 0 0 26805 0 0 26824 0 0 26582 0 0 26818 0 0 26609 0 0 26556 0 0 26526 0 0 26803 0 0 26442 0 0 26744 0 0 26591 0 0 26736 0 0 26708 0 0 26600 0 0 26739 0 0 26659 0 0 26689 0 0 26249 0 0 13310 0 0 164 0 0 37 0 0 34 0 0 31 0 0 29 0 0 23 0 0 14 0 0 17 0 0 11 0 0 
12 0 0 29 0 0 18 0 0 25 0 0 26 0 0 22 0 0 31 0 0 36 0 0 39 0 0 175 0 0 13486 0 0 26681 0 0 26684 0 0 26770 0 0 26710 0 0 26658 0 0 26523 0 0 26832 0 0 27007 0 0 26574 0 0 26608 0 0 26795 0 0 26787 0 0 26661 0 0 26937 0 0 26423 0 0 26634 0 0 26630 0 0 26711 0 0 26627 0 0 26442 0 0 26790 0 0 26502 0 0 26651 0 0 26514 0 0 26983 0 0 26790 0 0 26576 0 0 26869 0 0 26778 0 0 26704 0 0 26805 0 0 26495 0 0 26962 0 0 26728 0 0 26700 0 0 26929 0 0 26569 0 0 26706 0 0 26543 0 0 13420 0 0 188 0 0 54 0 0 34 0 0 25 0 0 22 0 0 27 0 0 18 0 0 9 0 0 5 0 0 
8 0 0 14 0 0 19 0 0 22 0 0 20 0 0 19 0 0 28 0 0 35 0 0 52 0 0 164 0 0 13320 0 0 26618 0 0 26828 0 0 26801 0 0 26495 0 0 26701 0 0 26797 0 0 26683 0 0 26645 0 0 26536 0 0 26779 0 0 27009 0 0 26802 0 0 26681 0 0 26690 0 0 26600 0 0 26732 0 0 26728 0 0 26914 0 0 26778 0 0 26762 0 0 26633 0 0 26842 0 0 27020 0 0 26735 0 0 26847 0 0 26982 0 0 27092 0 0 26596 0 0 26554 0 0 26985 0 0 26625 0 0 27021 0 0 26804 0 0 26741 0 0 26443 0 0 26851 0 0 26440 0 0 26578 0 0 26624 0 0 13246 0 0 162 0 0 58 0 0 36 0 0 26 0 0 20 0 0 16 0 0 12 0 0 12 0 0 10 0 0 
7 0 0 22 0 0 28 0 0 19 0 0 18 0 0 23 0 0 33 0 0 50 0 0 53 0 0 164 0 0 13305 0 0 26613 0 0 26808 0 0 26467 0 0 26606 0 0 26636 0 0 26648 0 0 26743 0 0 26773 0 0 26616 0 0 26758 0 0 26624 0 0 26918 0 0 26909 0 0 27009 0 0 26652 0 0 26468 0 0 26891 0 0 26667 0 0 26866 0 0 26670 0 0 26761 0 0 26987 0 0 26489 0 0 26678 0 0 26697 0 0 26807 0 0 26759 0 0 26546 0 0 26765 0 0 26535 0 0 26908 0 0 26645 0 0 26924 0 0 26846 0 0 26722 0 0 26611 0 0 26655 0 0 26706 0 0 26567 0 0 13410 0 0 160 0 0 41 0 0 35 0 0 24 0 0 23 0 0 17 0 0 19 0 0 16 0 0 15 0 0 
4 0 0 15 0 0 16 0 0 20 0 0 16 0 0 26 0 0 35 0 0 29 0 0 36 0 0 163 0 0 13267 0 0 26708 0 0 26737 0 0 26520 0 0 26782 0 0 26591 0 0 26846 0 0 26781 0 0 26975 0 0 26908 0 0 26719 0 0 26572 0 0 26816 0 0 26690 0 0 26908 0 0 26954 0 0 26723 0 0 26949 0 0 26676 0 0 26705 0 0 26694 0 0 26713 0 0 26929 0 0 26682 0 0 26526 0 0 26270 0 0 26823 0 0 26585 0 0 26834 0 0 26685 0 0 26557 0 0 26871 0 0 26716 0 0 26623 0 0 26522 0 0 26795 0 0 26383 0 0 26653 0 0 26556 0 0 26491 0 0 13418 0 0 173 0 0 48 0 0 36 0 0 24 0 0 28 0 0 18 0 0 15 0 0 20 0 0 21 0 0 
6 0 0 11 0 0 16 0 0 25 0 0 25 0 0 31 0 0 34 0 0 35 0 0 47 0 0 184 0 0 13450 0 0 26675 0 0 26700 0 0 26777 0 0 26694 0 0 26637 0 0 26627 0 0 26750 0 0 26759 0 0 26732 0 0 26609 0 0 26958 0 0 26656 0 0 26682 0 0 26776 0 0 26618 0 0 26881 0 0 26577 0 0 26736 0 0 26596 0 0 26701 0 0 26845 0 0 26745 0 0 26699 0 0 26912 0 0 27016 0 0 26739 0 0 26643 0 0 26704 0 0 26741 0 0 26705 0 0 26577 0 0 26826 0 0 26548 0 0 26537 0 0 26633 0 0 26680 0 0 26568 0 0 26459 0 0 26431 0 0 13540 0 0 186 0 0 46 0 0 36 0 0 25 0 0 26 0 0 27 0 0 20 0 0 23 0 0 19 0 0 
7 0 0 14 0 0 8 0 0 18 0 0 29 0 0 21 0 0 24 0 0 34 0 0 47 0 0 190 0 0 13441 0 0 26732 0 0 26746 0 0 26993 0 0 26873 0 0 26573 0 0 26675 0 0 26970 0 0 26655 0 0 26473 0 0 26785 0 0 26872 0 0 26761 0 0 26478 0 0 26616 0 0 26770 0 0 26469 0 0 26660 0 0 26774 0 0 26770 0 0 26837 0 0 26621 0 0 26815 0 0 26738 0 0 26524 0 0 26964 0 0 26452 0 0 26651 0 0 26733 0 0 26632 0 0 26753 0 0 26696 0 0 26977 0 0 26487 0 0 26745 0 0 26876 0 0 26730 0 0 26638 0 0 26638 0 0 26745 0 0 13457 0 0 187 0 0 39 0 0 39 0 0 26 0 0 18 0 0 24 0 0 25 0 0 14 0 0 8 0 0 
2 0 0 9 0 0 18 0 0 20 0 0 16 0 0 13 0 0 23 0 0 33 0 0 48 0 0 187 0 0 13433 0 0 26677 0 0 26872 0 0 26673 0 0 26673 0 0 26553 0 0 26731 0 0 26762 0 0 26686 0 0 26878 0 0 26585 0 0 26780 0 0 26476 0 0 26575 0 0 26614 0 0 26871 0 0 26589 0 0 26701 0 0 26653 0 0 26888 0 0 26885 0 0 26785 0 0 26942 0 0 26813 0 0 26577 0 0 26696 0 0 26706 0 0 26476 0 0 26683 0 0 26649 0 0 26673 0 0 26808 0 0 26883 0 0 26911 0 0 26740 0 0 26632 0 0 26739 0 0 26742 0 0 26513 0 0 26576 0 0 13389 0 0 177 0 0 56 0 0 33 0 0 20 0 0 22 0 0 22 0 0 26 0 0 24 0 0 19 0 0 
5 0 0 12 0 0 14 0 0 20 0 0 14 0 0 15 0 0 23 0 0 32 0 0 47 0 0 190 0 0 13366 0 0 26556 0 0 26511 0 0 26768 0 0 26527 0 0 26684 0 0 26620 0 0 26479 0 0 26806 0 0 26603 0 0 26761 0 0 26297 0 0 26623 0 0 26683 0 0 26581 0 0 26626 0 0 26893 0 0 26697 0 0 26734 0 0 27042 0 0 26890 0 0 26768 0 0 26428 0 0 26772 0 0 26682 0 0 26916 0 0 26555 0 0 26627 0 0 26766 0 0 26702 0 0 26876 0 0 26935 0 0 26921 0 0 26752 0 0 26495 0 0 26650 0 0 26830 0 0 26590 0 0 26509 0 0 26400 0 0 13388 0 0 184 0 0 35 0 0 39 0 0 32 0 0 16 0 0 10 0 0 11 0 0 13 0 0 19 0 0 
4 0 0 14 0 0 16 0 0 14 0 0 14 0 0 22 0 0 25 0 0 41 0 0 47 0 0 185 0 0 13273 0 0 26435 0 0 26649 0 0 26622 0 0 26553 0 0 26564 0 0 26876 0 0 26654 0 0 26610 0 0 26789 0 0 26729 0 0 27050 0 0 26740 0 0 26646 0 0 26521 0 0 26546 0 0 26739 0 0 26740 0 0 26880 0 0 26790 0 0 26980 0 0 26600 0 0 26774 0 0 26589 0 0 26681 0 0 27000 0 0 26934 0 0 26798 0 0 26563 0 0 26688 0 0 26791 0 0 26523 0 0 26687 0 0 26643 0 0 26497 0 0 26618 0 0 26608 0 0 26906 0 0 26823 0 0 26561 0 0 13286 0 0 170 0 0 47 0 0 31 0 0 32 0 0 22 0 0 13 0 0 12 0 0 8 0 0 11 0 0 
3 0 0 12 0 0 12 0 0 14 0 0 19 0 0 25 0 0 31 0 0 33 0 0 47 0 0 197 0 0 13440 0 0 26378 0 0 26823 0 0 26715 0 0 26913 0 0 26686 0 0 26791 0 0 26718 0 0 26722 0 0 26524 0 0 26937 0 0 26790 0 0 26866 0 0 26678 0 0 26672 0 0 26732 0 0 26578 0 0 26977 0 0 26840 0 0 26639 0 0 26718 0 0 26591 0 0 26592 0 0 26894 0 0 26867 0 0 26646 0 0 26915 0 0 26844 0 0 26471 0 0 26926 0 0 26795 0 0 26805 0 0 26786 0 0 26648 0 0 26467 0 0 26580 0 0 26611 0 0 26791 0 0 26771 0 0 26498 0 0 13293 0 0 165 0 0 44 0 0 37 0 0 33 0 0 29 0 0 25 0 0 12 0 0 10 0 0 14 0 0 
8 0 0 13 0 0 18 0 0 21 0 0 25 0 0 32 0 0 28 0 0 43 0 0 48 0 0 186 0 0 13401 0 0 26471 0 0 26474 0 0 26625 0 0 26535 0 0 26586 0 0 26830 0 0 26948 0 0 26837 0 0 26404 0 0 26806 0 0 27012 0 0 26952 0 0 26628 0 0 26743 0 0 26616 0 0 26939 0 0 26678 0 0 26688 0 0 26733 0 0 26398 0 0 26567 0 0 26745 0 0 26667 0 0 26862 0 0 26599 0 0 26736 0 0 26611 0 0 26844 0 0 26459 0 0 26919 0 0 26745 0 0 26645 0 0 26711 0 0 26571 0 0 26730 0 0 26637 0 0 26639 0 0 26633 0 0 26532 0 0 13428 0 0 169 0 0 34 0 0 29 0 0 27 0 0 18 0 0 28 0 0 23 0 0 20 0 0 18 0 0 
8 0 0 14 0 0 15 0 0 22 0 0 23 0 0 16 0 0 24 0 0 37 0 0 59 0 0 193 0 0 13213 0 0 26399 0 0 26522 0 0 26644 0 0 26673 0 0 26793 0 0 26935 0 0 26710 0 0 26733 0 0 26589 0 0 26566 0 0 26736 0 0 26771 0 0 26781 0 0 26652 0 0 26666 0 0 26824 0 0 26642 0 0 26809 0 0 26853 0 0 26926 0 0 26642 0 0 26625 0 0 26825 0 0 27066 0 0 26762 0 0 26917 0 0 26863 0 0 26761 0 0 26826 0 0 26578 0 0 26931 0 0 26729 0 0 26969 0 0 26846 0 0 26658 0 0 26679 0 0 26597 0 0 26577 0 0 26448 0 0 13432 0 0 176 0 0 50 0 0 37 0 0 30 0 0 20 0 0 18 0 0 17 0 0 18 0 0 21 0 0 
4 0 0 15 0 0 15 0 0 14 0 0 16 0 0 14 0 0 20 0 0 42 0 0 48 0 0 175 0 0 13408 0 0 26766 0 0 26696 0 0 26479 0 0 26761 0 0 26673 0 0 26645 0 0 26522 0 0 26879 0 0 26575 0 0 26638 0 0 26688 0 0 27045 0 0 26639 0 0 26796 0 0 26888 0 0 26904 0 0 26868 0 0 26626 0 0 26882 0 0 26400 0 0 26616 0 0 26731 0 0 26518 0 0 26883 0 0 26644 0 0 27005 0 0 26689 0 0 26648 0 0 26583 0 0 26516 0 0 26819 0 0 26542 0 0 26596 0 0 26722 0 0 26397 0 0 26671 0 0 26501 0 0 26754 0 0 26357 0 0 13394 0 0 179 0 0 47 0 0 41 0 0 36 0 0 28 0 0 20 0 0 15 0 0 13 0 0 12 0 0 
10 0 0 17 0 0 14 0 0 22 0 0 23 0 0 28 0 0 27 0 0 32 0 0 43 0 0 174 0 0 13377 0 0 26591 0 0 26430 0 0 26902 0 0 26752 0 0 26734 0 0 26742 0 0 26823 0 0 26739 0 0 26671 0 0 26718 0 0 26615 0 0 26626 0 0 26714 0 0 26767 0 0 26744 0 0 26489 0 0 26908 0 0 26866 0 0 26686 0 0 26885 0 0 26793 0 0 26687 0 0 27091 0 0 26869 0 0 26571 0 0 26712 0 0 26468 0 0 26669 0 0 26399 0 0 26819 0 0 26768 0 0 26329 0 0 26361 0 0 26647 0 0 26620 0 0 26716 0 0 26674 0 0 26626 0 0 26284 0 0 13284 0 0 175 0 0 41 0 0 35 0 0 39 0 0 32 0 0 21 0 0 23 0 0 25 0 0 19 0 0 
10 0 0 18 0 0 16 0 0 21 0 0 30 0 0 24 0 0 22 0 0 34 0 0 56 0 0 170 0 0 13106 0 0 26800 0 0 26764 0 0 26642 0 0 26814 0 0 26451 0 0 26613 0 0 26608 0 0 26535 0 0 26853 0 0 26681 0 0 26788 0 0 26877 0 0 26978 0 0 26797 0 0 27038 0 0 26395 0 0 26815 0 0 26701 0 0 26753 0 0 26895 0 0 26673 0 0 26683 0 0 26692 0 0 26823 0 0 26536 0 0 26843 0 0 26966 0 0 26684 0 0 26809 0 0 26646 0 0 26732 0 0 26705 0 0 26641 0 0 26370 0 0 26751 0 0 26705 0 0 26501 0 0 26618 0 0 26220 0 0 13283 0 0 189 0 0 53 0 0 40 0 0 31 0 0 34 0 0 33 0 0 19 0 0 11 0 0 10 0 0 
5 0 0 11 0 0 15 0 0 27 0 0 23 0 0 22 0 0 24 0 0 25 0 0 54 0 0 177 0 0 13312 0 0 26476 0 0 26657 0 0 26693 0 0 26601 0 0 26691 0 0 26992 0 0 26613 0 0 26779 0 0 26430 0 0 26635 0 0 26693 0 0 26714 0 0 26681 0 0 26825 0 0 26908 0 0 26945 0 0 26622 0 0 26862 0 0 26793 0 0 26559 0 0 26964 0 0 26626 0 0 26693 0 0 26690 0 0 26660 0 0 26672 0 0 26619 0 0 26697 0 0 26705 0 0 26823 0 0 26407 0 0 26688 0 0 26652 0 0 26634 0 0 26518 0 0 26878 0 0 26788 0 0 26844 0 0 26224 0 0 13328 0 0 187 0 0 43 0 0 28 0 0 20 0 0 27 0 0 23 0 0 16 0 0 18 0 0 9 0 0 
5 0 0 12 0 0 17 0 0 15 0 0 18 0 0 19 0 0 27 0 0 35 0 0 40 0 0 165 0 0 13328 0 0 26718 0 0 26685 0 0 26797 0 0 26590 0 0 26715 0 0 26715 0 0 26608 0 0 26649 0 0 26853 0 0 26764 0 0 26643 0 0 26786 0 0 26564 0 0 26639 0 0 26619 0 0 26561 0 0 26706 0 0 26769 0 0 26779 0 0 26834 0 0 26928 0 0 26654 0 0 26817 0 0 26811 0 0 26716 0 0 26829 0 0 26736 0 0 26678 0 0 26647 0 0 26669 0 0 26818 0 0 26466 0 0 26666 0 0 26779 0 0 26602 0 0 26947 0 0 26745 0 0 27013 0 0 26356 0 0 13453 0 0 176 0 0 44 0 0 28 0 0 20 0 0 19 0 0 19 0 0 14 0 0 7 0 0 12 0 0 
4 0 0 18 0 0 15 0 0 16 0 0 13 0 0 25 0 0 32 0 0 32 0 0 38 0 0 163 0 0 13521 0 0 26468 0 0 26578 0 0 26618 0 0 26785 0 0 26768 0 0 26550 0 0 26671 0 0 26572 0 0 26624 0 0 26719 0 0 26767 0 0 27059 0 0 26416 0 0 26764 0 0 26733 0 0 26909 0 0 26725 0 0 26826 0 0 26876 0 0 26546 0 0 26562 0 0 26547 0 0 26751 0 0 26713 0 0 26742 0 0 26731 0 0 26410 0 0 26576 0 0 26782 0 0 26773 0 0 26796 0 0 26897 0 0 26545 0 0 26770 0 0 26600 0 0 26761 0 0 26636 0 0 26520 0 0 26379 0 0 13387 0 0 172 0 0 45 0 0 39 0 0 31 0 0 26 0 0 23 0 0 18 0 0 16 0 0 15 0 0 
8 0 0 16 0 0 13 0 0 11 0 0 23 0 0 26 0 0 33 0 0 43 0 0 50 0 0 185 0 0 13313 0 0 26448 0 0 26744 0 0 26553 0 0 26735 0 0 26687 0 0 26981 0 0 26387 0 0 26735 0 0 26614 0 0 26726 0 0 26658 0 0 26688 0 0 26667 0 0 26662 0 0 26760 0 0 26796 0 0 26811 0 0 26786 0 0 26444 0 0 26778 0 0 26636 0 0 26989 0 0 26890 0 0 26589 0 0 26683 0 0 26543 0 0 26520 0 0 26513 0 0 26632 0 0 26486 0 0 26697 0 0 26494 0 0 26863 0 0 26644 0 0 27021 0 0 26531 0 0 26751 0 0 26675 0 0 26565 0 0 13277 0 0 182 0 0 38 0 0 26 0 0 17 0 0 20 0 0 20 0 0 14 0 0 15 0 0 14 0 0 
3 0 0 5 0 0 13 0 0 11 0 0 17 0 0 16 0 0 24 0 0 27 0 0 42 0 0 167 0 0 13246 0 0 26231 0 0 26764 0 0 26787 0 0 26455 0 0 26654 0 0 26817 0 0 26715 0 0 26690 0 0 26570 0 0 26784 0 0 26535 0 0 26667 0 0 26746 0 0 26775 0 0 26722 0 0 26821 0 0 26589 0 0 26658 0 0 26394 0 0 26674 0 0 26648 0 0 26668 0 0 26594 0 0 26635 0 0 26819 0 0 26754 0 0 26357 0 0 26642 0 0 26589 0 0 26640 0 0 26607 0 0 26682 0 0 27066 0 0 26268 0 0 26735 0 0 26439 0 0 26916 0 0 26802 0 0 26475 0 0 13340 0 0 171 0 0 25 0 0 25 0 0 22 0 0 16 0 0 15 0 0 20 0 0 14 0 0 14 0 0 
2 0 0 10 0 0 10 0 0 13 0 0 14 0 0 24 0 0 24 0 0 38 0 0 40 0 0 149 0 0 13359 0 0 26463 0 0 26955 0 0 26971 0 0 26750 0 0 26830 0 0 26495 0 0 26444 0 0 26625 0 0 26704 0 0 26449 0 0 26719 0 0 26819 0 0 26735 0 0 26695 0 0 26856 0 0 26833 0 0 26604 0 0 26601 0 0 26887 0 0 26512 0 0 26498 0 0 26719 0 0 26709 0 0 26569 0 0 26613 0 0 26592 0 0 26722 0 0 26638 0 0 26425 0 0 26567 0 0 26697 0 0 26519 0 0 26556 0 0 26480 0 0 26835 0 0 26490 0 0 26543 0 0 26636 0 0 26654 0 0 13525 0 0 154 0 0 28 0 0 22 0 0 13 0 0 10 0 0 15 0 0 13 0 0 12 0 0 14 0 0 
3 0 0 5 0 0 11 0 0 9 0 0 8 0 0 20 0 0 16 0 0 18 0 0 27 0 0 150 0 0 13314 0 0 26139 0 0 26361 0 0 26634 0 0 26405 0 0 26486 0 0 26456 0 0 26485 0 0 26506 0 0 26665 0 0 26268 0 0 26641 0 0 26481 0 0 26587 0 0 26505 0 0 26619 0 0 26512 0 0 26665 0 0 26701 0 0 26738 0 0 26715 0 0 26325 0 0 26782 0 0 26464 0 0 26569 0 0 26616 0 0 26805 0 0 26262 0 0 26556 0 0 26473 0 0 26582 0 0 26543 0 0 26521 0 0 26496 0 0 26454 0 0 26466 0 0 26448 0 0 26421 0 0 26429 0 0 26383 0 0 13155 0 0 149 0 0 24 0 0 19 0 0 13 0 0 7 0 0 4 0 0 12 0 0 10 0 0 8 0 0 
3 0 0 7 0 0 11 0 0 6 0 0 13 0 0 14 0 0 11 0 0 20 0 0 23 0 0 103 0 0 6665 0 0 13332 0 0 13228 0 0 13493 0 0 13234 0 0 13249 0 0 13182 0 0 13354 0 0 13317 0 0 13341 0 0 13292 0 0 13227 0 0 13311 0 0 13288 0 0 13368 0 0 13511 0 0 13245 0 0 13477 0 0 13276 0 0 13405 0 0 13254 0 0 13427 0 0 13377 0 0 13412 0 0 13595 0 0 13426 0 0 13440 0 0 13308 0 0 13385 0 0 13269 0 0 13277 0 0 13374 0 0 13310 0 0 13344 0 0 13321 0 0 13356 0 0 13315 0 0 13232 0 0 13394 0 0 13307 0 0 6817 0 0 98 0 0 22 0 0 20 0 0 20 0 0 19 0 0 7 0 0 10 0 0 10 0 0 12 0 0 
6 0 0 12 0 0 10 0 0 9 0 0 12 0 0 12 0 0 5 0 0 20 0 0 27 0 0 34 0 0 93 0 0 152 0 0 160 0 0 167 0 0 168 0 0 174 0 0 172 0 0 180 0 0 180 0 0 182 0 0 159 0 0 188 0 0 171 0 0 189 0 0 182 0 0 185 0 0 182 0 0 169 0 0 156 0 0 174 0 0 184 0 0 196 0 0 188 0 0 182 0 0 190 0 0 201 0 0 161 0 0 186 0 0 185 0 0 179 0 0 169 0 0 153 0 0 162 0 0 176 0 0 171 0 0 180 0 0 174 0 0 175 0 0 154 0 0 153 0 0 92 0 0 35 0 0 26 0 0 12 0 0 12 0 0 17 0 0 11 0 0 12 0 0 14 0 0 9 0 0 
5 0 0 11 0 0 3 0 0 12 0 0 9 0 0 8 0 0 14 0 0 18 0 0 16 0 0 19 0 0 26 0 0 35 0 0 39 0 0 32 0 0 31 0 0 35 0 0 41 0 0 36 0 0 34 0 0 41 0 0 48 0 0 48 0 0 47 0 0 54 0 0 38 0 0 47 0 0 46 0 0 34 0 0 35 0 0 42 0 0 38 0 0 47 0 0 57 0 0 44 0 0 48 0 0 48 0 0 38 0 0 46 0 0 48 0 0 45 0 0 52 0 0 38 0 0 42 0 0 43 0 0 32 0 0 40 0 0 32 0 0 35 0 0 39 0 0 35 0 0 24 0 0 25 0 0 21 0 0 21 0 0 12 0 0 12 0 0 10 0 0 8 0 0 9 0 0 17 0 0 
3 0 0 0 0 0 4 0 0 7 0 0 8 0 0 6 0 0 12 0 0 10 0 0 16 0 0 24 0 0 25 0 0 26 0 0 30 0 0 23 0 0 24 0 0 31 0 0 30 0 0 29 0 0 29 0 0 42 0 0 36 0 0 43 0 0 36 0 0 37 0 0 36 0 0 35 0 0 36 0 0 29 0 0 22 0 0 35 0 0 42 0 0 37 0 0 32 0 0 31 0 0 35 0 0 28 0 0 34 0 0 38 0 0 37 0 0 28 0 0 28 0 0 29 0 0 30 0 0 35 0 0 21 0 0 30 0 0 19 0 0 30 0 0 28 0 0 21 0 0 19 0 0 29 0 0 21 0 0 15 0 0 20 0 0 14 0 0 12 0 0 12 0 0 8 0 0 9 0 0 
2 0 0 1 0 0 4 0 0 12 0 0 4 0 0 7 0 0 6 0 0 7 0 0 18 0 0 21 0 0 20 0 0 19 0 0 15 0 0 15 0 0 20 0 0 22 0 0 28 0 0 27 0 0 22 0 0 39 0 0 35 0 0 28 0 0 33 0 0 26 0 0 32 0 0 26 0 0 28 0 0 29 0 0 31 0 0 29 0 0 26 0 0 32 0 0 29 0 0 29 0 0 18 0 0 25 0 0 25 0 0 30 0 0 35 0 0 35 0 0 19 0 0 25 0 0 16 0 0 22 0 0 21 0 0 23 0 0 17 0 0 18 0 0 18 0 0 26 0 0 14 0 0 12 0 0 12 0 0 10 0 0 11 0 0 16 0 0 12 0 0 9 0 0 13 0 0 10 0 0 
2 0 0 4 0 0 9 0 0 3 0 0 5 0 0 4 0 0 9 0 0 11 0 0 24 0 0 14 0 0 16 0 0 11 0 0 21 0 0 12 0 0 17 0 0 16 0 0 18 0 0 13 0 0 25 0 0 25 0 0 30 0 0 18 0 0 25 0 0 33 0 0 30 0 0 22 0 0 26 0 0 21 0 0 28 0 0 18 0 0 24 0 0 23 0 0 21 0 0 22 0 0 26 0 0 14 0 0 24 0 0 17 0 0 26 0 0 30 0 0 21 0 0 23 0 0 19 0 0 17 0 0 17 0 0 16 0 0 21 0 0 17 0 0 15 0 0 21 0 0 9 0 0 12 0 0 5 0 0 5 0 0 7 0 0 10 0 0 12 0 0 5 0 0 7 0 0 5 0 0 
2 0 0 8 0 0 4 0 0 6 0 0 4 0 0 5 0 0 9 0 0 14 0 0 9 0 0 10 0 0 12 0 0 16 0 0 14 0 0 9 0 0 5 0 0 23 0 0 14 0 0 22 0 0 25 0 0 25 0 0 23 0 0 17 0 0 19 0 0 25 0 0 15 0 0 18 0 0 24 0 0 24 0 0 19 0 0 23 0 0 19 0 0 19 0 0 17 0 0 26 0 0 24 0 0 20 0 0 22 0 0 19 0 0 20 0 0 24 0 0 14 0 0 12 0 0 16 0 0 20 0 0 15 0 0 11 0 0 24 0 0 17 0 0 13 0 0 23 0 0 11 0 0 16 0 0 7 0 0 6 0 0 7 0 0 6 0 0 3 0 0 7 0 0 4 0 0 4 0 0 
2 0 0 4 0 0 1 0 0 2 0 0 2 0 0 7 0 0 11 0 0 6 0 0 11 0 0 13 0 0 11 0 0 16 0 0 10 0 0 4 0 0 8 0 0 14 0 0 14 0 0 15 0 0 20 0 0 16 0 0 29 0 0 24 0 0 22 0 0 17 0 0 15 0 0 13 0 0 25 0 0 21 0 0 16 0 0 20 0 0 13 0 0 14 0 0 21 0 0 19 0 0 24 0 0 22 0 0 17 0 0 15 0 0 17 0 0 23 0 0 17 0 0 14 0 0 12 0 0 23 0 0 15 0 0 10 0 0 15 0 0 10 0 0 13 0 0 12 0 0 12 0 0 9 0 0 8 0 0 7 0 0 6 0 0 8 0 0 5 0 0 7 0 0 3 0 0 6 0 0 
0 0 0 2 0 0 0 0 0 2 0 0 9 0 0 13 0 0 8 0 0 10 0 0 7 0 0 10 0 0 6 0 0 14 0 0 7 0 0 4 0 0 11 0 0 11 0 0 14 0 0 14 0 0 15 0 0 15 0 0 30 0 0 21 0 0 24 0 0 20 0 0 13 0 0 17 0 0 21 0 0 14 0 0 16 0 0 22 0 0 13 0 0 16 0 0 16 0 0 15 0 0 17 0 0 19 0 0 16 0 0 14 0 0 24 0 0 19 0 0 11 0 0 20 0 0 7 0 0 14 0 0 12 0 0 14 0 0 12 0 0 10 0 0 10 0 0 12 0 0 11 0 0 7 0 0 8 0 0 2 0 0 5 0 0 5 0 0 4 0 0 4 0 0 5 0 0 4 0 0 
1 0 0 7 0 0 4 0 0 8 0 0 6 0 0 7 0 0 9 0 0 5 0 0 6 0 0 5 0 0 7 0 0 11 0 0 7 0 0 7 0 0 11 0 0 11 0 0 12 0 0 18 0 0 10 0 0 15 0 0 18 0 0 18 0 0 22 0 0 18 0 0 23 0 0 13 0 0 15 0 0 16 0 0 16 0 0 19 0 0 11 0 0 13 0 0 19 0 0 8 0 0 12 0 0 17 0 0 19 0 0 16 0 0 13 0 0 20 0 0 9 0 0 13 0 0 9 0 0 12 0 0 10 0 0 12 0 0 13 0 0 10 0 0 7 0 0 12 0 0 10 0 0 10 0 0 5 0 0 2 0 0 4 0 0 6 0 0 5 0 0 5 0 0 5 0 0 7 0 0 
