P3
# This is a dose file slice at depth 82 of 100
60 60
# now we give the maximum value of the RGB coordinates.
34204
0 0 0 0 0 0 0 0 0 0 0 0 0 0 0 0 0 0 0 0 0 0 0 0 0 0 0 0 0 0 0 0 0 0 0 0 0 0 0 0 0 0 0 0 0 0 0 0 0 0 0 0 0 0 0 0 0 0 0 0 0 0 0 0 0 0 0 0 0 0 0 0 0 0 0 0 0 0 0 0 0 0 0 0 0 0 0 0 0 0 0 0 0 0 0 0 0 0 0 0 0 0 0 0 0 0 0 0 0 0 0 0 0 0 0 0 0 0 0 0 0 0 0 0 0 0 0 0 0 0 0 0 0 0 0 0 0 0 0 0 0 0 0 0 0 0 0 0 0 0 0 0 0 0 0 0 0 0 0 0 0 0 0 0 0 0 0 0 0 0 0 0 0 0 0 0 0 0 0 0 
0 0 0 0 0 0 0 0 0 0 0 0 0 0 0 0 0 0 0 0 0 0 0 0 0 0 0 0 0 0 0 0 0 0 0 0 0 0 0 0 0 0 0 0 0 0 0 0 0 0 0 0 0 0 0 0 0 0 0 0 0 0 0 0 0 0 0 0 0 0 0 0 0 0 0 0 0 0 0 0 0 0 0 0 0 0 0 0 0 0 0 0 0 0 0 0 0 0 0 0 0 0 0 0 0 0 0 0 0 0 0 0 0 0 0 0 0 0 0 0 0 0 0 0 0 0 0 0 0 0 0 0 0 0 0 0 0 0 0 0 0 0 0 0 0 0 0 0 0 0 0 0 0 0 0 0 0 0 0 0 0 0 0 0 0 0 0 0 0 0 0 0 0 0 0 0 0 0 0 0 
0 0 0 0 0 0 0 0 0 0 0 0 0 0 0 0 0 0 0 0 0 0 0 0 0 0 0 0 0 0 0 0 0 0 0 0 0 0 0 0 0 0 0 0 0 0 0 0 0 0 0 0 0 0 0 0 0 0 0 0 0 0 0 0 0 0 0 0 0 0 0 0 0 0 0 0 0 0 0 0 0 0 0 0 0 0 0 0 0 0 0 0 0 0 0 0 0 0 0 0 0 0 0 0 0 0 0 0 0 0 0 0 0 0 0 0 0 0 0 0 0 0 0 0 0 0 0 0 0 0 0 0 0 0 0 0 0 0 0 0 0 0 0 0 0 0 0 0 0 0 0 0 0 0 0 0 0 0 0 0 0 0 0 0 0 0 0 0 0 0 0 0 0 0 0 0 0 0 0 0 
0 0 0 0 0 0 0 0 0 0 0 0 0 0 0 0 0 0 0 0 0 0 0 0 0 0 0 0 0 0 0 0 0 0 0 0 0 0 0 0 0 0 0 0 0 0 0 0 0 0 0 0 0 0 0 0 0 0 0 0 0 0 0 0 0 0 0 0 0 0 0 0 0 0 0 0 0 0 0 0 0 0 0 0 0 0 0 0 0 0 0 0 0 0 0 0 0 0 0 0 0 0 0 0 0 0 0 0 0 0 0 0 0 0 0 0 0 0 0 0 0 0 0 0 0 0 0 0 0 0 0 0 0 0 0 0 0 0 0 0 0 0 0 0 0 0 0 0 0 0 0 0 0 0 0 0 0 0 0 0 0 0 0 0 0 0 0 0 0 0 0 0 0 0 0 0 0 0 0 0 
0 0 0 0 0 0 0 0 0 0 0 0 0 0 0 0 0 0 0 0 0 0 0 0 0 0 0 0 0 0 0 0 0 0 0 0 0 0 0 0 0 0 0 0 0 0 0 0 0 0 0 0 0 0 0 0 0 0 0 0 0 0 0 0 0 0 0 0 0 0 0 0 0 0 0 0 0 0 0 0 0 0 0 0 0 0 0 0 0 0 0 0 0 0 0 0 0 0 0 0 0 0 0 0 0 0 0 0 0 0 0 0 0 0 0 0 0 0 0 0 0 0 0 0 0 0 0 0 0 0 0 0 0 0 0 0 0 0 0 0 0 0 0 0 0 0 0 0 0 0 0 0 0 0 0 0 0 0 0 0 0 0 0 0 0 0 0 0 0 0 0 0 0 0 0 0 0 0 0 0 
0 0 0 0 0 0 0 0 0 0 0 0 0 0 0 0 0 0 0 0 0 0 0 0 0 0 0 0 0 0 0 0 0 0 0 0 0 0 0 0 0 0 0 0 0 0 0 0 0 0 0 0 0 0 0 0 0 0 0 0 0 0 0 0 0 0 0 0 0 0 0 0 0 0 0 0 0 0 0 0 0 0 0 0 0 0 0 0 0 0 0 0 0 0 0 0 0 0 0 0 0 0 0 0 0 0 0 0 0 0 0 0 0 0 0 0 0 0 0 0 0 0 0 0 0 0 0 0 0 0 0 0 0 0 0 0 0 0 0 0 0 0 0 0 0 0 0 0 0 0 0 0 0 0 0 0 0 0 0 0 0 0 0 0 0 0 0 0 0 0 0 0 0 0 0 0 0 0 0 0 
0 0 0 0 0 0 0 0 0 0 0 0 0 0 0 0 0 0 0 0 0 0 0 0 0 0 0 0 0 0 0 0 0 0 0 0 0 0 0 0 0 0 0 0 0 0 0 0 0 0 0 0 0 0 0 0 0 0 0 0 0 0 0 0 0 0 0 0 0 0 0 0 0 0 0 0 0 0 0 0 0 0 0 0 0 0 0 0 0 0 0 0 0 0 0 0 0 0 0 0 0 0 0 0 0 0 0 0 0 0 0 0 0 0 0 0 0 0 0 0 0 0 0 0 0 0 0 0 0 0 0 0 0 0 0 0 0 0 0 0 0 0 0 0 0 0 0 0 0 0 0 0 0 0 0 0 0 0 0 0 0 0 0 0 0 0 0 0 0 0 0 0 0 0 0 0 0 0 0 0 
0 0 0 0 0 0 0 0 0 0 0 0 0 0 0 0 0 0 0 0 0 0 0 0 0 0 0 0 0 0 0 0 0 0 0 0 0 0 0 0 0 0 0 0 0 0 0 0 0 0 0 0 0 0 0 0 0 0 0 0 0 0 0 0 0 0 0 0 0 0 0 0 0 0 0 0 0 0 0 0 0 0 0 0 0 0 0 0 0 0 0 0 0 0 0 0 0 0 0 0 0 0 0 0 0 0 0 0 0 0 0 0 0 0 0 0 0 0 0 0 0 0 0 0 0 0 0 0 0 0 0 0 0 0 0 0 0 0 0 0 0 0 0 0 0 0 0 0 0 0 0 0 0 0 0 0 0 0 0 0 0 0 0 0 0 0 0 0 0 0 0 0 0 0 0 0 0 0 0 0 
0 0 0 0 0 0 0 0 0 0 0 0 0 0 0 0 0 0 0 0 0 0 0 0 0 0 0 0 0 0 0 0 0 0 0 0 0 0 0 0 0 0 0 0 0 0 0 0 0 0 0 0 0 0 0 0 0 0 0 0 0 0 0 0 0 0 0 0 0 0 0 0 0 0 0 0 0 0 0 0 0 0 0 0 0 0 0 0 0 0 0 0 0 0 0 0 0 0 0 0 0 0 0 0 0 0 0 0 0 0 0 0 0 0 0 0 0 0 0 0 0 0 0 0 0 0 0 0 0 0 0 0 0 0 0 0 0 0 0 0 0 0 0 0 0 0 0 0 0 0 0 0 0 0 0 0 0 0 0 0 0 0 0 0 0 0 0 0 0 0 0 0 0 0 0 0 0 0 0 0 
0 0 0 0 0 0 0 0 0 0 0 0 0 0 0 0 0 0 0 0 0 0 0 0 0 0 0 0 0 0 0 0 0 0 0 0 0 0 0 0 0 0 0 0 0 0 0 0 0 0 0 0 0 0 0 0 0 0 0 0 0 0 0 0 0 0 0 0 0 0 0 0 0 0 0 0 0 0 0 0 0 0 0 0 0 0 0 0 0 0 0 0 0 0 0 0 0 0 0 0 0 0 0 0 0 0 0 0 0 0 0 0 0 0 0 0 0 0 0 0 0 0 0 0 0 0 0 0 0 0 0 0 0 0 0 0 0 0 0 0 0 0 0 0 0 0 0 0 0 0 0 0 0 0 0 0 0 0 0 0 0 0 0 0 0 0 0 0 0 0 0 0 0 0 0 0 0 0 0 0 
0 0 0 0 0 0 0 0 0 0 0 0 0 0 0 0 0 0 0 0 0 0 0 0 0 0 0 0 0 0 813 0 0 1665 0 0 1757 0 0 1725 0 0 1695 0 0 1774 0 0 1684 0 0 1669 0 0 1684 0 0 1680 0 0 1652 0 0 1705 0 0 1668 0 0 1623 0 0 1720 0 0 1632 0 0 1776 0 0 1759 0 0 1667 0 0 1688 0 0 1677 0 0 1678 0 0 1682 0 0 1685 0 0 1758 0 0 1715 0 0 1710 0 0 1705 0 0 1679 0 0 1701 0 0 1675 0 0 1773 0 0 1695 0 0 1770 0 0 1786 0 0 1697 0 0 1685 0 0 1758 0 0 1629 0 0 1700 0 0 882 0 0 0 0 0 0 0 0 0 0 0 0 0 0 0 0 0 0 0 0 0 0 0 0 0 0 0 0 0 
0 0 0 0 0 0 0 0 0 0 0 0 0 0 0 0 0 0 0 0 0 0 0 0 0 0 0 0 0 0 1714 0 0 3443 0 0 3431 0 0 3347 0 0 3362 0 0 3498 0 0 3462 0 0 3410 0 0 3404 0 0 3351 0 0 3326 0 0 3330 0 0 3486 0 0 3336 0 0 3373 0 0 3461 0 0 3568 0 0 3366 0 0 3412 0 0 3484 0 0 3418 0 0 3391 0 0 3357 0 0 3366 0 0 3417 0 0 3419 0 0 3399 0 0 3308 0 0 3513 0 0 3482 0 0 3304 0 0 3334 0 0 3407 0 0 3456 0 0 3486 0 0 3501 0 0 3450 0 0 3443 0 0 3412 0 0 3426 0 0 1716 0 0 0 0 0 0 0 0 0 0 0 0 0 0 0 0 0 0 0 0 0 0 0 0 0 0 0 0 0 
0 0 0 0 0 0 0 0 0 0 0 0 0 0 0 0 0 0 0 0 0 0 0 0 0 0 0 0 0 0 1681 0 0 3415 0 0 3344 0 0 3382 0 0 3335 0 0 3436 0 0 3402 0 0 3306 0 0 3454 0 0 3392 0 0 3410 0 0 3339 0 0 3400 0 0 3384 0 0 3397 0 0 3406 0 0 3455 0 0 3387 0 0 3368 0 0 3488 0 0 3467 0 0 3458 0 0 3340 0 0 3333 0 0 3427 0 0 3343 0 0 3378 0 0 3501 0 0 3484 0 0 3332 0 0 3367 0 0 3394 0 0 3475 0 0 3434 0 0 3464 0 0 3485 0 0 3409 0 0 3452 0 0 3342 0 0 3403 0 0 1646 0 0 0 0 0 0 0 0 0 0 0 0 0 0 0 0 0 0 0 0 0 0 0 0 0 0 0 0 0 
0 0 0 0 0 0 0 0 0 0 0 0 0 0 0 0 0 0 0 0 0 0 0 0 0 0 0 0 0 0 1704 0 0 3446 0 0 3383 0 0 3455 0 0 3470 0 0 3435 0 0 3400 0 0 3300 0 0 3444 0 0 3400 0 0 3495 0 0 3403 0 0 3415 0 0 3480 0 0 3380 0 0 3375 0 0 3336 0 0 3349 0 0 3402 0 0 3298 0 0 3401 0 0 3378 0 0 3370 0 0 3405 0 0 3379 0 0 3422 0 0 3353 0 0 3495 0 0 3487 0 0 3369 0 0 3370 0 0 3337 0 0 3370 0 0 3357 0 0 3497 0 0 3312 0 0 3435 0 0 3282 0 0 3373 0 0 3421 0 0 1705 0 0 0 0 0 0 0 0 0 0 0 0 0 0 0 0 0 0 0 0 0 0 0 0 0 0 0 0 0 
0 0 0 0 0 0 0 0 0 0 0 0 0 0 0 0 0 0 0 0 0 0 0 0 0 0 0 0 0 0 1663 0 0 3351 0 0 3467 0 0 3404 0 0 3461 0 0 3329 0 0 3443 0 0 3321 0 0 3337 0 0 3355 0 0 3423 0 0 3404 0 0 3350 0 0 3526 0 0 3431 0 0 3495 0 0 3409 0 0 3408 0 0 3362 0 0 3418 0 0 3418 0 0 3430 0 0 3406 0 0 3357 0 0 3443 0 0 3352 0 0 3385 0 0 3291 0 0 3399 0 0 3434 0 0 3436 0 0 3397 0 0 3359 0 0 3303 0 0 3441 0 0 3467 0 0 3340 0 0 3528 0 0 3342 0 0 3339 0 0 1722 0 0 0 0 0 0 0 0 0 0 0 0 0 0 0 0 0 0 0 0 0 0 0 0 0 0 0 0 0 
0 0 0 0 0 0 0 0 0 0 0 0 0 0 0 0 0 0 0 0 0 0 0 0 0 0 0 0 0 0 1661 0 0 3450 0 0 3417 0 0 3371 0 0 3492 0 0 3342 0 0 3446 0 0 3357 0 0 3273 0 0 3458 0 0 3441 0 0 3374 0 0 3427 0 0 3456 0 0 3475 0 0 3417 0 0 3423 0 0 3498 0 0 3293 0 0 3365 0 0 3435 0 0 3391 0 0 3401 0 0 3510 0 0 3341 0 0 3366 0 0 3319 0 0 3447 0 0 3487 0 0 3404 0 0 3464 0 0 3366 0 0 3407 0 0 3417 0 0 3353 0 0 3406 0 0 3362 0 0 3427 0 0 3520 0 0 3362 0 0 1760 0 0 0 0 0 0 0 0 0 0 0 0 0 0 0 0 0 0 0 0 0 0 0 0 0 0 0 0 0 
0 0 0 0 0 0 0 0 0 0 0 0 0 0 0 0 0 0 0 0 0 0 0 0 0 0 0 0 0 0 1675 0 0 3322 0 0 3327 0 0 3400 0 0 3379 0 0 3410 0 0 3424 0 0 3441 0 0 3449 0 0 3478 0 0 3399 0 0 3437 0 0 3485 0 0 3447 0 0 3273 0 0 3375 0 0 3355 0 0 3367 0 0 3326 0 0 3444 0 0 3427 0 0 3425 0 0 3368 0 0 3425 0 0 3373 0 0 3462 0 0 3310 0 0 3356 0 0 3422 0 0 3354 0 0 3371 0 0 3207 0 0 3507 0 0 3371 0 0 3302 0 0 3362 0 0 3362 0 0 3390 0 0 3433 0 0 3373 0 0 1708 0 0 0 0 0 0 0 0 0 0 0 0 0 0 0 0 0 0 0 0 0 0 0 0 0 0 0 0 0 
0 0 0 0 0 0 0 0 0 0 0 0 0 0 0 0 0 0 0 0 0 0 0 0 0 0 0 0 0 0 1698 0 0 3437 0 0 3434 0 0 3375 0 0 3421 0 0 3465 0 0 3384 0 0 3412 0 0 3417 0 0 3421 0 0 3438 0 0 3460 0 0 3436 0 0 3484 0 0 3480 0 0 3442 0 0 3391 0 0 3424 0 0 3358 0 0 3387 0 0 3465 0 0 3351 0 0 3489 0 0 3447 0 0 3348 0 0 3387 0 0 3428 0 0 3358 0 0 3437 0 0 3368 0 0 3392 0 0 3417 0 0 3188 0 0 3393 0 0 3281 0 0 3364 0 0 3337 0 0 3410 0 0 3442 0 0 3467 0 0 1742 0 0 0 0 0 0 0 0 0 0 0 0 0 0 0 0 0 0 0 0 0 0 0 0 0 0 0 0 0 
0 0 0 0 0 0 0 0 0 0 0 0 0 0 0 0 0 0 0 0 0 0 0 0 0 0 0 0 0 0 1723 0 0 3396 0 0 3489 0 0 3313 0 0 3464 0 0 3370 0 0 3392 0 0 3514 0 0 3383 0 0 3361 0 0 3405 0 0 3405 0 0 3365 0 0 3393 0 0 3385 0 0 3277 0 0 3463 0 0 3419 0 0 3464 0 0 3398 0 0 3408 0 0 3369 0 0 3354 0 0 3391 0 0 3402 0 0 3445 0 0 3567 0 0 3383 0 0 3336 0 0 3339 0 0 3391 0 0 3324 0 0 3374 0 0 3461 0 0 3400 0 0 3314 0 0 3519 0 0 3354 0 0 3450 0 0 3407 0 0 1596 0 0 0 0 0 0 0 0 0 0 0 0 0 0 0 0 0 0 0 0 0 0 0 0 0 0 0 0 0 
0 0 0 0 0 0 0 0 0 0 0 0 0 0 0 0 0 0 0 0 0 0 0 0 0 0 0 0 0 0 1662 0 0 3327 0 0 3493 0 0 3516 0 0 3401 0 0 3397 0 0 3343 0 0 3444 0 0 3373 0 0 3354 0 0 3382 0 0 3462 0 0 3246 0 0 3374 0 0 3518 0 0 3470 0 0 3476 0 0 3365 0 0 3416 0 0 3265 0 0 3417 0 0 3320 0 0 3448 0 0 3350 0 0 3366 0 0 3412 0 0 3297 0 0 3429 0 0 3420 0 0 3411 0 0 3408 0 0 3469 0 0 3339 0 0 3507 0 0 3499 0 0 3346 0 0 3472 0 0 3384 0 0 3451 0 0 3256 0 0 1667 0 0 0 0 0 0 0 0 0 0 0 0 0 0 0 0 0 0 0 0 0 0 0 0 0 0 0 0 0 
0 0 0 0 0 0 0 0 0 0 0 0 0 0 0 0 0 0 0 0 0 0 0 0 0 0 0 0 0 0 1654 0 0 3384 0 0 3420 0 0 3377 0 0 3441 0 0 3424 0 0 3463 0 0 3516 0 0 3389 0 0 3441 0 0 3494 0 0 3433 0 0 3449 0 0 3474 0 0 3299 0 0 3520 0 0 3302 0 0 3354 0 0 3455 0 0 3305 0 0 3331 0 0 3382 0 0 3389 0 0 3418 0 0 3461 0 0 3409 0 0 3292 0 0 3443 0 0 3340 0 0 3390 0 0 3446 0 0 3499 0 0 3386 0 0 3255 0 0 3367 0 0 3407 0 0 3400 0 0 3418 0 0 3364 0 0 3354 0 0 1708 0 0 0 0 0 0 0 0 0 0 0 0 0 0 0 0 0 0 0 0 0 0 0 0 0 0 0 0 0 
0 0 0 0 0 0 0 0 0 0 0 0 0 0 0 0 0 0 0 0 0 0 0 0 0 0 0 0 0 0 1672 0 0 3411 0 0 3429 0 0 3433 0 0 3378 0 0 3471 0 0 3417 0 0 3352 0 0 3430 0 0 3373 0 0 3445 0 0 3378 0 0 3356 0 0 3490 0 0 3436 0 0 3338 0 0 3403 0 0 3380 0 0 3374 0 0 3372 0 0 3281 0 0 3431 0 0 3386 0 0 3400 0 0 3359 0 0 3336 0 0 3389 0 0 3360 0 0 3348 0 0 3364 0 0 3477 0 0 3498 0 0 3403 0 0 3396 0 0 3314 0 0 3427 0 0 3330 0 0 3511 0 0 3423 0 0 3302 0 0 1650 0 0 0 0 0 0 0 0 0 0 0 0 0 0 0 0 0 0 0 0 0 0 0 0 0 0 0 0 0 
0 0 0 0 0 0 0 0 0 0 0 0 0 0 0 0 0 0 0 0 0 0 0 0 0 0 0 0 0 0 1646 0 0 3414 0 0 3337 0 0 3412 0 0 3331 0 0 3426 0 0 3303 0 0 3313 0 0 3410 0 0 3435 0 0 3370 0 0 3357 0 0 3439 0 0 3415 0 0 3487 0 0 3391 0 0 3326 0 0 3386 0 0 3501 0 0 3486 0 0 3348 0 0 3513 0 0 3386 0 0 3406 0 0 3341 0 0 3345 0 0 3326 0 0 3535 0 0 3327 0 0 3338 0 0 3412 0 0 3397 0 0 3435 0 0 3402 0 0 3408 0 0 3394 0 0 3350 0 0 3367 0 0 3432 0 0 3392 0 0 1691 0 0 0 0 0 0 0 0 0 0 0 0 0 0 0 0 0 0 0 0 0 0 0 0 0 0 0 0 0 
0 0 0 0 0 0 0 0 0 0 0 0 0 0 0 0 0 0 0 0 0 0 0 0 0 0 0 0 0 0 1738 0 0 3505 0 0 3285 0 0 3401 0 0 3383 0 0 3333 0 0 3406 0 0 3404 0 0 3416 0 0 3413 0 0 3296 0 0 3415 0 0 3376 0 0 3420 0 0 3284 0 0 3350 0 0 3479 0 0 3207 0 0 3416 0 0 3443 0 0 3379 0 0 3393 0 0 3434 0 0 3340 0 0 3325 0 0 3414 0 0 3429 0 0 3291 0 0 3352 0 0 3425 0 0 3501 0 0 3321 0 0 3358 0 0 3339 0 0 3320 0 0 3449 0 0 3470 0 0 3516 0 0 3409 0 0 3408 0 0 1776 0 0 0 0 0 0 0 0 0 0 0 0 0 0 0 0 0 0 0 0 0 0 0 0 0 0 0 0 0 
0 0 0 0 0 0 0 0 0 0 0 0 0 0 0 0 0 0 0 0 0 0 0 0 0 0 0 0 0 0 1706 0 0 3339 0 0 3383 0 0 3371 0 0 3403 0 0 3348 0 0 3341 0 0 3454 0 0 3473 0 0 3320 0 0 3385 0 0 3377 0 0 3300 0 0 3316 0 0 3452 0 0 3304 0 0 3396 0 0 3346 0 0 3451 0 0 3309 0 0 3433 0 0 3373 0 0 3405 0 0 3238 0 0 3479 0 0 3524 0 0 3437 0 0 3394 0 0 3432 0 0 3354 0 0 3435 0 0 3328 0 0 3411 0 0 3390 0 0 3327 0 0 3470 0 0 3371 0 0 3423 0 0 3382 0 0 3385 0 0 1733 0 0 0 0 0 0 0 0 0 0 0 0 0 0 0 0 0 0 0 0 0 0 0 0 0 0 0 0 0 
0 0 0 0 0 0 0 0 0 0 0 0 0 0 0 0 0 0 0 0 0 0 0 0 0 0 0 0 0 0 1786 0 0 3466 0 0 3405 0 0 3432 0 0 3440 0 0 3410 0 0 3360 0 0 3340 0 0 3375 0 0 3333 0 0 3391 0 0 3359 0 0 3519 0 0 3443 0 0 3418 0 0 3518 0 0 3360 0 0 3330 0 0 3476 0 0 3528 0 0 3537 0 0 3562 0 0 3330 0 0 3428 0 0 3459 0 0 3460 0 0 3338 0 0 3323 0 0 3496 0 0 3469 0 0 3495 0 0 3400 0 0 3485 0 0 3539 0 0 3498 0 0 3406 0 0 3449 0 0 3394 0 0 3473 0 0 3350 0 0 1678 0 0 0 0 0 0 0 0 0 0 0 0 0 0 0 0 0 0 0 0 0 0 0 0 0 0 0 0 0 
0 0 0 0 0 0 0 0 0 0 0 0 0 0 0 0 0 0 0 0 0 0 0 0 0 0 0 0 0 0 1718 0 0 3356 0 0 3332 0 0 3395 0 0 3359 0 0 3482 0 0 3348 0 0 3343 0 0 3402 0 0 3466 0 0 3422 0 0 3402 0 0 3341 0 0 3360 0 0 3465 0 0 3463 0 0 3245 0 0 3371 0 0 3356 0 0 3404 0 0 3428 0 0 3447 0 0 3472 0 0 3449 0 0 3325 0 0 3416 0 0 3380 0 0 3309 0 0 3386 0 0 3421 0 0 3337 0 0 3434 0 0 3475 0 0 3476 0 0 3333 0 0 3363 0 0 3355 0 0 3336 0 0 3420 0 0 3471 0 0 1718 0 0 0 0 0 0 0 0 0 0 0 0 0 0 0 0 0 0 0 0 0 0 0 0 0 0 0 0 0 
0 0 0 0 0 0 0 0 0 0 0 0 0 0 0 0 0 0 0 0 0 0 0 0 0 0 0 0 0 0 1722 0 0 3304 0 0 3284 0 0 3366 0 0 3358 0 0 3364 0 0 3375 0 0 3520 0 0 3393 0 0 3331 0 0 3314 0 0 3347 0 0 3353 0 0 3424 0 0 3331 0 0 3496 0 0 3478 0 0 3331 0 0 3381 0 0 3364 0 0 3461 0 0 3465 0 0 3489 0 0 3515 0 0 3420 0 0 3338 0 0 3391 0 0 3413 0 0 3388 0 0 3404 0 0 3513 0 0 3447 0 0 3375 0 0 3462 0 0 3382 0 0 3442 0 0 3353 0 0 3322 0 0 3417 0 0 3381 0 0 1781 0 0 0 0 0 0 0 0 0 0 0 0 0 0 0 0 0 0 0 0 0 0 0 0 0 0 0 0 0 
0 0 0 0 0 0 0 0 0 0 0 0 0 0 0 0 0 0 0 0 0 0 0 0 0 0 0 0 0 0 1794 0 0 3377 0 0 3505 0 0 3371 0 0 3407 0 0 3411 0 0 3449 0 0 3419 0 0 3335 0 0 3396 0 0 3335 0 0 3420 0 0 3422 0 0 3360 0 0 3506 0 0 3475 0 0 3494 0 0 3472 0 0 3374 0 0 3340 0 0 3524 0 0 3420 0 0 3357 0 0 3280 0 0 3419 0 0 3481 0 0 3342 0 0 3382 0 0 3441 0 0 3393 0 0 3406 0 0 3334 0 0 3337 0 0 3361 0 0 3333 0 0 3354 0 0 3351 0 0 3336 0 0 3304 0 0 3491 0 0 1700 0 0 0 0 0 0 0 0 0 0 0 0 0 0 0 0 0 0 0 0 0 0 0 0 0 0 0 0 0 
0 0 0 0 0 0 0 0 0 0 0 0 0 0 0 0 0 0 0 0 0 0 0 0 0 0 0 0 0 0 1697 0 0 3463 0 0 3302 0 0 3367 0 0 3395 0 0 3382 0 0 3426 0 0 3338 0 0 3450 0 0 3428 0 0 3398 0 0 3280 0 0 3308 0 0 3344 0 0 3438 0 0 3366 0 0 3378 0 0 3279 0 0 3343 0 0 3294 0 0 3496 0 0 3410 0 0 3427 0 0 3522 0 0 3416 0 0 3380 0 0 3476 0 0 3413 0 0 3408 0 0 3402 0 0 3371 0 0 3391 0 0 3276 0 0 3454 0 0 3416 0 0 3244 0 0 3463 0 0 3392 0 0 3324 0 0 3442 0 0 1639 0 0 0 0 0 0 0 0 0 0 0 0 0 0 0 0 0 0 0 0 0 0 0 0 0 0 0 0 0 
0 0 0 0 0 0 0 0 0 0 0 0 0 0 0 0 0 0 0 0 0 0 0 0 0 0 0 0 0 0 1677 0 0 3327 0 0 3474 0 0 3361 0 0 3397 0 0 3401 0 0 3416 0 0 3413 0 0 3446 0 0 3329 0 0 3301 0 0 3403 0 0 3413 0 0 3353 0 0 3314 0 0 3526 0 0 3420 0 0 3316 0 0 3352 0 0 3385 0 0 3425 0 0 3383 0 0 3407 0 0 3403 0 0 3325 0 0 3406 0 0 3420 0 0 3381 0 0 3471 0 0 3489 0 0 3345 0 0 3431 0 0 3336 0 0 3306 0 0 3498 0 0 3350 0 0 3352 0 0 3481 0 0 3377 0 0 3407 0 0 1691 0 0 0 0 0 0 0 0 0 0 0 0 0 0 0 0 0 0 0 0 0 0 0 0 0 0 0 0 0 
0 0 0 0 0 0 0 0 0 0 0 0 0 0 0 0 0 0 0 0 0 0 0 0 0 0 0 0 0 0 1724 0 0 3351 0 0 3332 0 0 3287 0 0 3376 0 0 3392 0 0 3369 0 0 3298 0 0 3282 0 0 3333 0 0 3310 0 0 3417 0 0 3434 0 0 3398 0 0 3400 0 0 3487 0 0 3366 0 0 3316 0 0 3332 0 0 3356 0 0 3370 0 0 3345 0 0 3478 0 0 3424 0 0 3433 0 0 3425 0 0 3378 0 0 3388 0 0 3322 0 0 3338 0 0 3384 0 0 3489 0 0 3506 0 0 3420 0 0 3466 0 0 3443 0 0 3458 0 0 3459 0 0 3347 0 0 3480 0 0 1692 0 0 0 0 0 0 0 0 0 0 0 0 0 0 0 0 0 0 0 0 0 0 0 0 0 0 0 0 0 
0 0 0 0 0 0 0 0 0 0 0 0 0 0 0 0 0 0 0 0 0 0 0 0 0 0 0 0 0 0 1712 0 0 3481 0 0 3425 0 0 3376 0 0 3408 0 0 3370 0 0 3482 0 0 3405 0 0 3389 0 0 3346 0 0 3364 0 0 3427 0 0 3396 0 0 3314 0 0 3364 0 0 3439 0 0 3466 0 0 3297 0 0 3341 0 0 3518 0 0 3404 0 0 3388 0 0 3379 0 0 3281 0 0 3377 0 0 3397 0 0 3400 0 0 3349 0 0 3423 0 0 3426 0 0 3351 0 0 3374 0 0 3315 0 0 3517 0 0 3305 0 0 3465 0 0 3475 0 0 3325 0 0 3369 0 0 3416 0 0 1729 0 0 0 0 0 0 0 0 0 0 0 0 0 0 0 0 0 0 0 0 0 0 0 0 0 0 0 0 0 
0 0 0 0 0 0 0 0 0 0 0 0 0 0 0 0 0 0 0 0 0 0 0 0 0 0 0 0 0 0 1655 0 0 3295 0 0 3324 0 0 3480 0 0 3452 0 0 3309 0 0 3477 0 0 3510 0 0 3393 0 0 3304 0 0 3430 0 0 3372 0 0 3407 0 0 3271 0 0 3250 0 0 3370 0 0 3382 0 0 3469 0 0 3514 0 0 3183 0 0 3386 0 0 3369 0 0 3413 0 0 3411 0 0 3400 0 0 3405 0 0 3412 0 0 3411 0 0 3398 0 0 3406 0 0 3390 0 0 3424 0 0 3417 0 0 3394 0 0 3476 0 0 3487 0 0 3345 0 0 3441 0 0 3401 0 0 3448 0 0 1856 0 0 0 0 0 0 0 0 0 0 0 0 0 0 0 0 0 0 0 0 0 0 0 0 0 0 0 0 0 
0 0 0 0 0 0 0 0 0 0 0 0 0 0 0 0 0 0 0 0 0 0 0 0 0 0 0 0 0 0 1728 0 0 3400 0 0 3366 0 0 3436 0 0 3421 0 0 3371 0 0 3332 0 0 3270 0 0 3358 0 0 3385 0 0 3383 0 0 3307 0 0 3469 0 0 3491 0 0 3345 0 0 3418 0 0 3373 0 0 3343 0 0 3377 0 0 3306 0 0 3347 0 0 3369 0 0 3465 0 0 3465 0 0 3350 0 0 3359 0 0 3464 0 0 3332 0 0 3410 0 0 3388 0 0 3398 0 0 3372 0 0 3507 0 0 3354 0 0 3370 0 0 3396 0 0 3413 0 0 3402 0 0 3468 0 0 3304 0 0 1727 0 0 0 0 0 0 0 0 0 0 0 0 0 0 0 0 0 0 0 0 0 0 0 0 0 0 0 0 0 
0 0 0 0 0 0 0 0 0 0 0 0 0 0 0 0 0 0 0 0 0 0 0 0 0 0 0 0 0 0 1717 0 0 3444 0 0 3508 0 0 3428 0 0 3356 0 0 3453 0 0 3323 0 0 3479 0 0 3429 0 0 3337 0 0 3475 0 0 3486 0 0 3378 0 0 3385 0 0 3392 0 0 3430 0 0 3473 0 0 3294 0 0 3298 0 0 3338 0 0 3391 0 0 3404 0 0 3432 0 0 3364 0 0 3410 0 0 3403 0 0 3373 0 0 3402 0 0 3427 0 0 3430 0 0 3390 0 0 3319 0 0 3336 0 0 3435 0 0 3415 0 0 3388 0 0 3426 0 0 3372 0 0 3468 0 0 3445 0 0 1736 0 0 0 0 0 0 0 0 0 0 0 0 0 0 0 0 0 0 0 0 0 0 0 0 0 0 0 0 0 
0 0 0 0 0 0 0 0 0 0 0 0 0 0 0 0 0 0 0 0 0 0 0 0 0 0 0 0 0 0 1686 0 0 3451 0 0 3533 0 0 3436 0 0 3344 0 0 3439 0 0 3491 0 0 3293 0 0 3286 0 0 3415 0 0 3349 0 0 3437 0 0 3482 0 0 3390 0 0 3330 0 0 3341 0 0 3346 0 0 3375 0 0 3419 0 0 3389 0 0 3352 0 0 3377 0 0 3482 0 0 3418 0 0 3406 0 0 3378 0 0 3390 0 0 3363 0 0 3463 0 0 3337 0 0 3338 0 0 3558 0 0 3404 0 0 3425 0 0 3432 0 0 3536 0 0 3439 0 0 3520 0 0 3340 0 0 3508 0 0 1725 0 0 0 0 0 0 0 0 0 0 0 0 0 0 0 0 0 0 0 0 0 0 0 0 0 0 0 0 0 
0 0 0 0 0 0 0 0 0 0 0 0 0 0 0 0 0 0 0 0 0 0 0 0 0 0 0 0 0 0 1707 0 0 3472 0 0 3400 0 0 3288 0 0 3404 0 0 3355 0 0 3431 0 0 3305 0 0 3325 0 0 3455 0 0 3395 0 0 3396 0 0 3475 0 0 3382 0 0 3378 0 0 3410 0 0 3381 0 0 3350 0 0 3397 0 0 3409 0 0 3427 0 0 3307 0 0 3233 0 0 3392 0 0 3396 0 0 3330 0 0 3447 0 0 3403 0 0 3385 0 0 3427 0 0 3307 0 0 3381 0 0 3397 0 0 3426 0 0 3368 0 0 3383 0 0 3387 0 0 3418 0 0 3249 0 0 3357 0 0 1689 0 0 0 0 0 0 0 0 0 0 0 0 0 0 0 0 0 0 0 0 0 0 0 0 0 0 0 0 0 
0 0 0 0 0 0 0 0 0 0 0 0 0 0 0 0 0 0 0 0 0 0 0 0 0 0 0 0 0 0 1750 0 0 3458 0 0 3329 0 0 3402 0 0 3429 0 0 3491 0 0 3282 0 0 3505 0 0 3470 0 0 3371 0 0 3418 0 0 3282 0 0 3389 0 0 3387 0 0 3409 0 0 3443 0 0 3466 0 0 3490 0 0 3411 0 0 3473 0 0 3338 0 0 3379 0 0 3500 0 0 3419 0 0 3366 0 0 3458 0 0 3385 0 0 3357 0 0 3384 0 0 3488 0 0 3380 0 0 3533 0 0 3482 0 0 3443 0 0 3276 0 0 3363 0 0 3353 0 0 3432 0 0 3531 0 0 3414 0 0 1727 0 0 0 0 0 0 0 0 0 0 0 0 0 0 0 0 0 0 0 0 0 0 0 0 0 0 0 0 0 
0 0 0 0 0 0 0 0 0 0 0 0 0 0 0 0 0 0 0 0 0 0 0 0 0 0 0 0 0 0 1744 0 0 3348 0 0 3465 0 0 3458 0 0 3273 0 0 3467 0 0 3403 0 0 3424 0 0 3378 0 0 3367 0 0 3516 0 0 3369 0 0 3474 0 0 3426 0 0 3394 0 0 3357 0 0 3402 0 0 3291 0 0 3386 0 0 3434 0 0 3354 0 0 3420 0 0 3369 0 0 3374 0 0 3327 0 0 3329 0 0 3567 0 0 3352 0 0 3404 0 0 3332 0 0 3436 0 0 3449 0 0 3477 0 0 3354 0 0 3386 0 0 3389 0 0 3397 0 0 3410 0 0 3457 0 0 3352 0 0 1717 0 0 0 0 0 0 0 0 0 0 0 0 0 0 0 0 0 0 0 0 0 0 0 0 0 0 0 0 0 
0 0 0 0 0 0 0 0 0 0 0 0 0 0 0 0 0 0 0 0 0 0 0 0 0 0 0 0 0 0 1701 0 0 3459 0 0 3346 0 0 3455 0 0 3312 0 0 3371 0 0 3409 0 0 3488 0 0 3362 0 0 3391 0 0 3359 0 0 3410 0 0 3443 0 0 3452 0 0 3427 0 0 3363 0 0 3383 0 0 3288 0 0 3353 0 0 3292 0 0 3403 0 0 3502 0 0 3396 0 0 3402 0 0 3293 0 0 3429 0 0 3409 0 0 3397 0 0 3348 0 0 3407 0 0 3487 0 0 3392 0 0 3391 0 0 3457 0 0 3419 0 0 3475 0 0 3426 0 0 3316 0 0 3534 0 0 3409 0 0 1693 0 0 0 0 0 0 0 0 0 0 0 0 0 0 0 0 0 0 0 0 0 0 0 0 0 0 0 0 0 
0 0 0 0 0 0 0 0 0 0 0 0 0 0 0 0 0 0 0 0 0 0 0 0 0 0 0 0 0 0 1671 0 0 3432 0 0 3542 0 0 3334 0 0 3481 0 0 3377 0 0 3454 0 0 3390 0 0 3415 0 0 3366 0 0 3408 0 0 3411 0 0 3372 0 0 3301 0 0 3381 0 0 3332 0 0 3450 0 0 3321 0 0 3423 0 0 3375 0 0 3402 0 0 3467 0 0 3571 0 0 3405 0 0 3445 0 0 3306 0 0 3270 0 0 3361 0 0 3379 0 0 3332 0 0 3360 0 0 3498 0 0 3458 0 0 3438 0 0 3440 0 0 3402 0 0 3331 0 0 3297 0 0 3426 0 0 3336 0 0 1602 0 0 0 0 0 0 0 0 0 0 0 0 0 0 0 0 0 0 0 0 0 0 0 0 0 0 0 0 0 
0 0 0 0 0 0 0 0 0 0 0 0 0 0 0 0 0 0 0 0 0 0 0 0 0 0 0 0 0 0 1669 0 0 3405 0 0 3483 0 0 3482 0 0 3450 0 0 3430 0 0 3483 0 0 3444 0 0 3301 0 0 3515 0 0 3356 0 0 3475 0 0 3356 0 0 3335 0 0 3404 0 0 3440 0 0 3373 0 0 3416 0 0 3386 0 0 3402 0 0 3446 0 0 3459 0 0 3403 0 0 3338 0 0 3405 0 0 3384 0 0 3344 0 0 3382 0 0 3451 0 0 3412 0 0 3453 0 0 3337 0 0 3334 0 0 3393 0 0 3444 0 0 3512 0 0 3338 0 0 3530 0 0 3379 0 0 3358 0 0 1742 0 0 0 0 0 0 0 0 0 0 0 0 0 0 0 0 0 0 0 0 0 0 0 0 0 0 0 0 0 
0 0 0 0 0 0 0 0 0 0 0 0 0 0 0 0 0 0 0 0 0 0 0 0 0 0 0 0 0 0 1691 0 0 3414 0 0 3472 0 0 3384 0 0 3422 0 0 3405 0 0 3379 0 0 3459 0 0 3301 0 0 3408 0 0 3425 0 0 3277 0 0 3311 0 0 3427 0 0 3448 0 0 3413 0 0 3320 0 0 3358 0 0 3524 0 0 3381 0 0 3323 0 0 3467 0 0 3491 0 0 3465 0 0 3342 0 0 3318 0 0 3431 0 0 3377 0 0 3394 0 0 3462 0 0 3474 0 0 3520 0 0 3387 0 0 3403 0 0 3409 0 0 3308 0 0 3417 0 0 3462 0 0 3504 0 0 3421 0 0 1685 0 0 0 0 0 0 0 0 0 0 0 0 0 0 0 0 0 0 0 0 0 0 0 0 0 0 0 0 0 
0 0 0 0 0 0 0 0 0 0 0 0 0 0 0 0 0 0 0 0 0 0 0 0 0 0 0 0 0 0 1671 0 0 3444 0 0 3274 0 0 3357 0 0 3504 0 0 3409 0 0 3334 0 0 3312 0 0 3462 0 0 3452 0 0 3413 0 0 3498 0 0 3340 0 0 3295 0 0 3468 0 0 3443 0 0 3435 0 0 3477 0 0 3346 0 0 3395 0 0 3421 0 0 3364 0 0 3503 0 0 3455 0 0 3429 0 0 3357 0 0 3348 0 0 3337 0 0 3382 0 0 3451 0 0 3415 0 0 3465 0 0 3397 0 0 3400 0 0 3387 0 0 3381 0 0 3398 0 0 3377 0 0 3301 0 0 3353 0 0 1714 0 0 0 0 0 0 0 0 0 0 0 0 0 0 0 0 0 0 0 0 0 0 0 0 0 0 0 0 0 
0 0 0 0 0 0 0 0 0 0 0 0 0 0 0 0 0 0 0 0 0 0 0 0 0 0 0 0 0 0 1711 0 0 3337 0 0 3499 0 0 3362 0 0 3366 0 0 3473 0 0 3470 0 0 3383 0 0 3397 0 0 3340 0 0 3429 0 0 3329 0 0 3401 0 0 3339 0 0 3430 0 0 3395 0 0 3344 0 0 3516 0 0 3350 0 0 3428 0 0 3471 0 0 3420 0 0 3285 0 0 3408 0 0 3483 0 0 3389 0 0 3407 0 0 3395 0 0 3351 0 0 3389 0 0 3340 0 0 3412 0 0 3441 0 0 3388 0 0 3377 0 0 3401 0 0 3391 0 0 3460 0 0 3384 0 0 3395 0 0 1755 0 0 0 0 0 0 0 0 0 0 0 0 0 0 0 0 0 0 0 0 0 0 0 0 0 0 0 0 0 
0 0 0 0 0 0 0 0 0 0 0 0 0 0 0 0 0 0 0 0 0 0 0 0 0 0 0 0 0 0 1659 0 0 3464 0 0 3314 0 0 3446 0 0 3379 0 0 3460 0 0 3423 0 0 3467 0 0 3288 0 0 3362 0 0 3369 0 0 3423 0 0 3373 0 0 3392 0 0 3350 0 0 3361 0 0 3342 0 0 3429 0 0 3367 0 0 3420 0 0 3403 0 0 3360 0 0 3389 0 0 3395 0 0 3342 0 0 3338 0 0 3341 0 0 3388 0 0 3396 0 0 3423 0 0 3473 0 0 3363 0 0 3320 0 0 3397 0 0 3417 0 0 3336 0 0 3410 0 0 3333 0 0 3346 0 0 3398 0 0 1673 0 0 0 0 0 0 0 0 0 0 0 0 0 0 0 0 0 0 0 0 0 0 0 0 0 0 0 0 0 
0 0 0 0 0 0 0 0 0 0 0 0 0 0 0 0 0 0 0 0 0 0 0 0 0 0 0 0 0 0 1689 0 0 3409 0 0 3391 0 0 3464 0 0 3276 0 0 3303 0 0 3279 0 0 3277 0 0 3527 0 0 3345 0 0 3418 0 0 3391 0 0 3424 0 0 3384 0 0 3356 0 0 3380 0 0 3363 0 0 3272 0 0 3417 0 0 3328 0 0 3396 0 0 3294 0 0 3483 0 0 3306 0 0 3313 0 0 3371 0 0 3504 0 0 3352 0 0 3322 0 0 3500 0 0 3426 0 0 3310 0 0 3399 0 0 3407 0 0 3326 0 0 3349 0 0 3394 0 0 3376 0 0 3555 0 0 3458 0 0 1716 0 0 0 0 0 0 0 0 0 0 0 0 0 0 0 0 0 0 0 0 0 0 0 0 0 0 0 0 0 
0 0 0 0 0 0 0 0 0 0 0 0 0 0 0 0 0 0 0 0 0 0 0 0 0 0 0 0 0 0 1715 0 0 3352 0 0 3337 0 0 3357 0 0 3419 0 0 3387 0 0 3466 0 0 3471 0 0 3361 0 0 3355 0 0 3447 0 0 3469 0 0 3435 0 0 3425 0 0 3287 0 0 3356 0 0 3449 0 0 3489 0 0 3512 0 0 3374 0 0 3425 0 0 3473 0 0 3305 0 0 3358 0 0 3369 0 0 3389 0 0 3388 0 0 3404 0 0 3409 0 0 3353 0 0 3466 0 0 3364 0 0 3348 0 0 3354 0 0 3473 0 0 3448 0 0 3360 0 0 3438 0 0 3434 0 0 3424 0 0 1708 0 0 0 0 0 0 0 0 0 0 0 0 0 0 0 0 0 0 0 0 0 0 0 0 0 0 0 0 0 
0 0 0 0 0 0 0 0 0 0 0 0 0 0 0 0 0 0 0 0 0 0 0 0 0 0 0 0 0 0 1690 0 0 3311 0 0 3433 0 0 3416 0 0 3469 0 0 3357 0 0 3403 0 0 3361 0 0 3360 0 0 3367 0 0 3497 0 0 3379 0 0 3429 0 0 3460 0 0 3463 0 0 3388 0 0 3332 0 0 3462 0 0 3289 0 0 3495 0 0 3432 0 0 3466 0 0 3399 0 0 3412 0 0 3432 0 0 3386 0 0 3379 0 0 3488 0 0 3405 0 0 3319 0 0 3402 0 0 3381 0 0 3289 0 0 3441 0 0 3330 0 0 3403 0 0 3430 0 0 3417 0 0 3468 0 0 3222 0 0 1757 0 0 0 0 0 0 0 0 0 0 0 0 0 0 0 0 0 0 0 0 0 0 0 0 0 0 0 0 0 
0 0 0 0 0 0 0 0 0 0 0 0 0 0 0 0 0 0 0 0 0 0 0 0 0 0 0 0 0 0 875 0 0 1702 0 0 1699 0 0 1722 0 0 1634 0 0 1657 0 0 1689 0 0 1697 0 0 1778 0 0 1652 0 0 1732 0 0 1726 0 0 1761 0 0 1665 0 0 1682 0 0 1684 0 0 1657 0 0 1685 0 0 1661 0 0 1681 0 0 1703 0 0 1660 0 0 1693 0 0 1653 0 0 1719 0 0 1630 0 0 1746 0 0 1672 0 0 1673 0 0 1724 0 0 1749 0 0 1686 0 0 1743 0 0 1634 0 0 1627 0 0 1657 0 0 1793 0 0 1749 0 0 1726 0 0 1656 0 0 881 0 0 0 0 0 0 0 0 0 0 0 0 0 0 0 0 0 0 0 0 0 0 0 0 0 0 0 0 0 
0 0 0 0 0 0 0 0 0 0 0 0 0 0 0 0 0 0 0 0 0 0 0 0 0 0 0 0 0 0 0 0 0 0 0 0 0 0 0 0 0 0 0 0 0 0 0 0 0 0 0 0 0 0 0 0 0 0 0 0 0 0 0 0 0 0 0 0 0 0 0 0 0 0 0 0 0 0 0 0 0 0 0 0 0 0 0 0 0 0 0 0 0 0 0 0 0 0 0 0 0 0 0 0 0 0 0 0 0 0 0 0 0 0 0 0 0 0 0 0 0 0 0 0 0 0 0 0 0 0 0 0 0 0 0 0 0 0 0 0 0 0 0 0 0 0 0 0 0 0 0 0 0 0 0 0 0 0 0 0 0 0 0 0 0 0 0 0 0 0 0 0 0 0 0 0 0 0 0 0 
0 0 0 0 0 0 0 0 0 0 0 0 0 0 0 0 0 0 0 0 0 0 0 0 0 0 0 0 0 0 0 0 0 0 0 0 0 0 0 0 0 0 0 0 0 0 0 0 0 0 0 0 0 0 0 0 0 0 0 0 0 0 0 0 0 0 0 0 0 0 0 0 0 0 0 0 0 0 0 0 0 0 0 0 0 0 0 0 0 0 0 0 0 0 0 0 0 0 0 0 0 0 0 0 0 0 0 0 0 0 0 0 0 0 0 0 0 0 0 0 0 0 0 0 0 0 0 0 0 0 0 0 0 0 0 0 0 0 0 0 0 0 0 0 0 0 0 0 0 0 0 0 0 0 0 0 0 0 0 0 0 0 0 0 0 0 0 0 0 0 0 0 0 0 0 0 0 0 0 0 
0 0 0 0 0 0 0 0 0 0 0 0 0 0 0 0 0 0 0 0 0 0 0 0 0 0 0 0 0 0 0 0 0 0 0 0 0 0 0 0 0 0 0 0 0 0 0 0 0 0 0 0 0 0 0 0 0 0 0 0 0 0 0 0 0 0 0 0 0 0 0 0 0 0 0 0 0 0 0 0 0 0 0 0 0 0 0 0 0 0 0 0 0 0 0 0 0 0 0 0 0 0 0 0 0 0 0 0 0 0 0 0 0 0 0 0 0 0 0 0 0 0 0 0 0 0 0 0 0 0 0 0 0 0 0 0 0 0 0 0 0 0 0 0 0 0 0 0 0 0 0 0 0 0 0 0 0 0 0 0 0 0 0 0 0 0 0 0 0 0 0 0 0 0 0 0 0 0 0 0 
0 0 0 0 0 0 0 0 0 0 0 0 0 0 0 0 0 0 0 0 0 0 0 0 0 0 0 0 0 0 0 0 0 0 0 0 0 0 0 0 0 0 0 0 0 0 0 0 0 0 0 0 0 0 0 0 0 0 0 0 0 0 0 0 0 0 0 0 0 0 0 0 0 0 0 0 0 0 0 0 0 0 0 0 0 0 0 0 0 0 0 0 0 0 0 0 0 0 0 0 0 0 0 0 0 0 0 0 0 0 0 0 0 0 0 0 0 0 0 0 0 0 0 0 0 0 0 0 0 0 0 0 0 0 0 0 0 0 0 0 0 0 0 0 0 0 0 0 0 0 0 0 0 0 0 0 0 0 0 0 0 0 0 0 0 0 0 0 0 0 0 0 0 0 0 0 0 0 0 0 
0 0 0 0 0 0 0 0 0 0 0 0 0 0 0 0 0 0 0 0 0 0 0 0 0 0 0 0 0 0 0 0 0 0 0 0 0 0 0 0 0 0 0 0 0 0 0 0 0 0 0 0 0 0 0 0 0 0 0 0 0 0 0 0 0 0 0 0 0 0 0 0 0 0 0 0 0 0 0 0 0 0 0 0 0 0 0 0 0 0 0 0 0 0 0 0 0 0 0 0 0 0 0 0 0 0 0 0 0 0 0 0 0 0 0 0 0 0 0 0 0 0 0 0 0 0 0 0 0 0 0 0 0 0 0 0 0 0 0 0 0 0 0 0 0 0 0 0 0 0 0 0 0 0 0 0 0 0 0 0 0 0 0 0 0 0 0 0 0 0 0 0 0 0 0 0 0 0 0 0 
0 0 0 0 0 0 0 0 0 0 0 0 0 0 0 0 0 0 0 0 0 0 0 0 0 0 0 0 0 0 0 0 0 0 0 0 0 0 0 0 0 0 0 0 0 0 0 0 0 0 0 0 0 0 0 0 0 0 0 0 0 0 0 0 0 0 0 0 0 0 0 0 0 0 0 0 0 0 0 0 0 0 0 0 0 0 0 0 0 0 0 0 0 0 0 0 0 0 0 0 0 0 0 0 0 0 0 0 0 0 0 0 0 0 0 0 0 0 0 0 0 0 0 0 0 0 0 0 0 0 0 0 0 0 0 0 0 0 0 0 0 0 0 0 0 0 0 0 0 0 0 0 0 0 0 0 0 0 0 0 0 0 0 0 0 0 0 0 0 0 0 0 0 0 0 0 0 0 0 0 
0 0 0 0 0 0 0 0 0 0 0 0 0 0 0 0 0 0 0 0 0 0 0 0 0 0 0 0 0 0 0 0 0 0 0 0 0 0 0 0 0 0 0 0 0 0 0 0 0 0 0 0 0 0 0 0 0 0 0 0 0 0 0 0 0 0 0 0 0 0 0 0 0 0 0 0 0 0 0 0 0 0 0 0 0 0 0 0 0 0 0 0 0 0 0 0 0 0 0 0 0 0 0 0 0 0 0 0 0 0 0 0 0 0 0 0 0 0 0 0 0 0 0 0 0 0 0 0 0 0 0 0 0 0 0 0 0 0 0 0 0 0 0 0 0 0 0 0 0 0 0 0 0 0 0 0 0 0 0 0 0 0 0 0 0 0 0 0 0 0 0 0 0 0 0 0 0 0 0 0 
0 0 0 0 0 0 0 0 0 0 0 0 0 0 0 0 0 0 0 0 0 0 0 0 0 0 0 0 0 0 0 0 0 0 0 0 0 0 0 0 0 0 0 0 0 0 0 0 0 0 0 0 0 0 0 0 0 0 0 0 0 0 0 0 0 0 0 0 0 0 0 0 0 0 0 0 0 0 0 0 0 0 0 0 0 0 0 0 0 0 0 0 0 0 0 0 0 0 0 0 0 0 0 0 0 0 0 0 0 0 0 0 0 0 0 0 0 0 0 0 0 0 0 0 0 0 0 0 0 0 0 0 0 0 0 0 0 0 0 0 0 0 0 0 0 0 0 0 0 0 0 0 0 0 0 0 0 0 0 0 0 0 0 0 0 0 0 0 0 0 0 0 0 0 0 0 0 0 0 0 
0 0 0 0 0 0 0 0 0 0 0 0 0 0 0 0 0 0 0 0 0 0 0 0 0 0 0 0 0 0 0 0 0 0 0 0 0 0 0 0 0 0 0 0 0 0 0 0 0 0 0 0 0 0 0 0 0 0 0 0 0 0 0 0 0 0 0 0 0 0 0 0 0 0 0 0 0 0 0 0 0 0 0 0 0 0 0 0 0 0 0 0 0 0 0 0 0 0 0 0 0 0 0 0 0 0 0 0 0 0 0 0 0 0 0 0 0 0 0 0 0 0 0 0 0 0 0 0 0 0 0 0 0 0 0 0 0 0 0 0 0 0 0 0 0 0 0 0 0 0 0 0 0 0 0 0 0 0 0 0 0 0 0 0 0 0 0 0 0 0 0 0 0 0 0 0 0 0 0 0 
