P3
# This is a dose file slice at depth 51 of 100
60 60
# now we give the maximum value of the RGB coordinates.
34204
0 0 0 0 0 0 0 0 0 0 0 0 0 0 0 0 0 0 0 0 0 0 0 0 0 0 0 0 0 0 0 0 0 0 0 0 0 0 0 0 0 0 0 0 0 0 0 0 0 0 0 0 0 0 0 0 0 0 0 0 0 0 0 0 0 0 0 0 0 0 0 0 0 0 0 0 0 0 0 0 0 0 0 0 0 0 0 0 0 0 0 0 0 0 0 0 0 0 0 0 0 0 0 0 0 0 0 0 0 0 0 0 0 0 0 0 0 0 0 0 0 0 0 0 0 0 0 0 0 0 0 0 0 0 0 0 0 0 0 0 0 0 0 0 0 0 0 0 0 0 0 0 0 0 0 0 0 0 0 0 0 0 0 0 0 0 0 0 0 0 0 0 0 0 0 0 0 0 0 0 
0 0 0 0 0 0 0 0 0 0 0 0 0 0 0 0 0 0 0 0 0 0 0 0 0 0 0 0 0 0 0 0 0 0 0 0 0 0 0 0 0 0 0 0 0 0 0 0 0 0 0 0 0 0 0 0 0 0 0 0 0 0 0 0 0 0 0 0 0 0 0 0 0 0 0 0 0 0 0 0 0 0 0 0 0 0 0 0 0 0 0 0 0 0 0 0 0 0 0 0 0 0 0 0 0 0 0 0 0 0 0 0 0 0 0 0 0 0 0 0 0 0 0 0 0 0 0 0 0 0 0 0 0 0 0 0 0 0 0 0 0 0 0 0 0 0 0 0 0 0 0 0 0 0 0 0 0 0 0 0 0 0 0 0 0 0 0 0 0 0 0 0 0 0 0 0 0 0 0 0 
0 0 0 0 0 0 0 0 0 0 0 0 0 0 0 0 0 0 0 0 0 0 0 0 0 0 0 0 0 0 0 0 0 0 0 0 0 0 0 0 0 0 0 0 0 0 0 0 0 0 0 0 0 0 0 0 0 0 0 0 0 0 0 0 0 0 0 0 0 0 0 0 0 0 0 0 0 0 0 0 0 0 0 0 0 0 0 0 0 0 0 0 0 0 0 0 0 0 0 0 0 0 0 0 0 0 0 0 0 0 0 0 0 0 0 0 0 0 0 0 0 0 0 0 0 0 0 0 0 0 0 0 0 0 0 0 0 0 0 0 0 0 0 0 0 0 0 0 0 0 0 0 0 0 0 0 0 0 0 0 0 0 0 0 0 0 0 0 0 0 0 0 0 0 0 0 0 0 0 0 
0 0 0 0 0 0 0 0 0 0 0 0 0 0 0 0 0 0 0 0 0 0 0 0 0 0 0 0 0 0 0 0 0 0 0 0 0 0 0 0 0 0 0 0 0 0 0 0 0 0 0 0 0 0 0 0 0 0 0 0 0 0 0 0 0 0 0 0 0 0 0 0 0 0 0 0 0 0 0 0 0 0 0 0 0 0 0 0 0 0 0 0 0 0 0 0 0 0 0 0 0 0 0 0 0 0 0 0 0 0 0 0 0 0 0 0 0 0 0 0 0 0 0 0 0 0 0 0 0 0 0 0 0 0 0 0 0 0 0 0 0 0 0 0 0 0 0 0 0 0 0 0 0 0 0 0 0 0 0 0 0 0 0 0 0 0 0 0 0 0 0 0 0 0 0 0 0 0 0 0 
0 0 0 0 0 0 0 0 0 0 0 0 0 0 0 0 0 0 0 0 0 0 0 0 0 0 0 0 0 0 0 0 0 0 0 0 0 0 0 0 0 0 0 0 0 0 0 0 0 0 0 0 0 0 0 0 0 0 0 0 0 0 0 0 0 0 0 0 0 0 0 0 0 0 0 0 0 0 0 0 0 0 0 0 0 0 0 0 0 0 0 0 0 0 0 0 0 0 0 0 0 0 0 0 0 0 0 0 0 0 0 0 0 0 0 0 0 0 0 0 0 0 0 0 0 0 0 0 0 0 0 0 0 0 0 0 0 0 0 0 0 0 0 0 0 0 0 0 0 0 0 0 0 0 0 0 0 0 0 0 0 0 0 0 0 0 0 0 0 0 0 0 0 0 0 0 0 0 0 0 
0 0 0 0 0 0 0 0 0 0 0 0 0 0 0 0 0 0 0 0 0 0 0 0 0 0 0 0 0 0 0 0 0 0 0 0 0 0 0 0 0 0 0 0 0 0 0 0 0 0 0 0 0 0 0 0 0 0 0 0 0 0 0 0 0 0 0 0 0 0 0 0 0 0 0 0 0 0 0 0 0 0 0 0 0 0 0 0 0 0 0 0 0 0 0 0 0 0 0 0 0 0 0 0 0 0 0 0 0 0 0 0 0 0 0 0 0 0 0 0 0 0 0 0 0 0 0 0 0 0 0 0 0 0 0 0 0 0 0 0 0 0 0 0 0 0 0 0 0 0 0 0 0 0 0 0 0 0 0 0 0 0 0 0 0 0 0 0 0 0 0 0 0 0 0 0 0 0 0 0 
0 0 0 0 0 0 0 0 0 0 0 0 0 0 0 0 0 0 0 0 0 0 0 0 0 0 0 0 0 0 0 0 0 0 0 0 0 0 0 0 0 0 0 0 0 0 0 0 0 0 0 0 0 0 0 0 0 0 0 0 0 0 0 0 0 0 0 0 0 0 0 0 0 0 0 0 0 0 0 0 0 0 0 0 0 0 0 0 0 0 0 0 0 0 0 0 0 0 0 0 0 0 0 0 0 0 0 0 0 0 0 0 0 0 0 0 0 0 0 0 0 0 0 0 0 0 0 0 0 0 0 0 0 0 0 0 0 0 0 0 0 0 0 0 0 0 0 0 0 0 0 0 0 0 0 0 0 0 0 0 0 0 0 0 0 0 0 0 0 0 0 0 0 0 0 0 0 0 0 0 
0 0 0 0 0 0 0 0 0 0 0 0 0 0 0 0 0 0 0 0 0 0 0 0 0 0 0 0 0 0 0 0 0 0 0 0 0 0 0 0 0 0 0 0 0 0 0 0 0 0 0 0 0 0 0 0 0 0 0 0 0 0 0 0 0 0 0 0 0 0 0 0 0 0 0 0 0 0 0 0 0 0 0 0 0 0 0 0 0 0 0 0 0 0 0 0 0 0 0 0 0 0 0 0 0 0 0 0 0 0 0 0 0 0 0 0 0 0 0 0 0 0 0 0 0 0 0 0 0 0 0 0 0 0 0 0 0 0 0 0 0 0 0 0 0 0 0 0 0 0 0 0 0 0 0 0 0 0 0 0 0 0 0 0 0 0 0 0 0 0 0 0 0 0 0 0 0 0 0 0 
0 0 0 0 0 0 0 0 0 0 0 0 0 0 0 0 0 0 0 0 0 0 0 0 0 0 0 0 0 0 0 0 0 0 0 0 0 0 0 0 0 0 0 0 0 0 0 0 0 0 0 0 0 0 0 0 0 0 0 0 0 0 0 0 0 0 0 0 0 0 0 0 0 0 0 0 0 0 0 0 0 0 0 0 0 0 0 0 0 0 0 0 0 0 0 0 0 0 0 0 0 0 0 0 0 0 0 0 0 0 0 0 0 0 0 0 0 0 0 0 0 0 0 0 0 0 0 0 0 0 0 0 0 0 0 0 0 0 0 0 0 0 0 0 0 0 0 0 0 0 0 0 0 0 0 0 0 0 0 0 0 0 0 0 0 0 0 0 0 0 0 0 0 0 0 0 0 0 0 0 
0 0 0 0 0 0 0 0 0 0 0 0 0 0 0 0 0 0 0 0 0 0 0 0 0 0 0 0 0 0 0 0 0 0 0 0 0 0 0 0 0 0 0 0 0 0 0 0 0 0 0 0 0 0 0 0 0 0 0 0 0 0 0 0 0 0 0 0 0 0 0 0 0 0 0 0 0 0 0 0 0 0 0 0 0 0 0 0 0 0 0 0 0 0 0 0 0 0 0 0 0 0 0 0 0 0 0 0 0 0 0 0 0 0 0 0 0 0 0 0 0 0 0 0 0 0 0 0 0 0 0 0 0 0 0 0 0 0 0 0 0 0 0 0 0 0 0 0 0 0 0 0 0 0 0 0 0 0 0 0 0 0 0 0 0 0 0 0 0 0 0 0 0 0 0 0 0 0 0 0 
0 0 0 0 0 0 0 0 0 0 0 0 0 0 0 0 0 0 0 0 0 0 0 0 0 0 0 0 0 0 1958 0 0 3929 0 0 3812 0 0 3775 0 0 3712 0 0 3770 0 0 3784 0 0 3738 0 0 3881 0 0 3761 0 0 3772 0 0 3805 0 0 3824 0 0 3796 0 0 3677 0 0 3942 0 0 3713 0 0 3813 0 0 3837 0 0 3832 0 0 3807 0 0 3819 0 0 3870 0 0 3869 0 0 3885 0 0 3831 0 0 3809 0 0 3844 0 0 3771 0 0 3775 0 0 3673 0 0 3787 0 0 3878 0 0 3745 0 0 3738 0 0 3750 0 0 3706 0 0 3800 0 0 3707 0 0 3742 0 0 1834 0 0 0 0 0 0 0 0 0 0 0 0 0 0 0 0 0 0 0 0 0 0 0 0 0 0 0 0 0 
0 0 0 0 0 0 0 0 0 0 0 0 0 0 0 0 0 0 0 0 0 0 0 0 0 0 0 0 0 0 3864 0 0 7548 0 0 7604 0 0 7690 0 0 7459 0 0 7620 0 0 7534 0 0 7508 0 0 7724 0 0 7634 0 0 7606 0 0 7470 0 0 7549 0 0 7660 0 0 7616 0 0 7629 0 0 7786 0 0 7499 0 0 7646 0 0 7592 0 0 7839 0 0 7503 0 0 7494 0 0 7613 0 0 7649 0 0 7546 0 0 7586 0 0 7436 0 0 7567 0 0 7601 0 0 7416 0 0 7693 0 0 7552 0 0 7413 0 0 7491 0 0 7624 0 0 7582 0 0 7514 0 0 7579 0 0 7664 0 0 3930 0 0 0 0 0 0 0 0 0 0 0 0 0 0 0 0 0 0 0 0 0 0 0 0 0 0 0 0 0 
0 0 0 0 0 0 0 0 0 0 0 0 0 0 0 0 0 0 0 0 0 0 0 0 0 0 0 0 0 0 3689 0 0 7490 0 0 7610 0 0 7558 0 0 7376 0 0 7616 0 0 7667 0 0 7668 0 0 7661 0 0 7678 0 0 7533 0 0 7484 0 0 7577 0 0 7590 0 0 7469 0 0 7419 0 0 7634 0 0 7449 0 0 7694 0 0 7511 0 0 7465 0 0 7560 0 0 7749 0 0 7632 0 0 7430 0 0 7651 0 0 7661 0 0 7587 0 0 7649 0 0 7580 0 0 7520 0 0 7572 0 0 7616 0 0 7615 0 0 7398 0 0 7496 0 0 7597 0 0 7377 0 0 7552 0 0 7586 0 0 3888 0 0 0 0 0 0 0 0 0 0 0 0 0 0 0 0 0 0 0 0 0 0 0 0 0 0 0 0 0 
0 0 0 0 0 0 0 0 0 0 0 0 0 0 0 0 0 0 0 0 0 0 0 0 0 0 0 0 0 0 3757 0 0 7726 0 0 7613 0 0 7559 0 0 7436 0 0 7664 0 0 7646 0 0 7602 0 0 7606 0 0 7571 0 0 7451 0 0 7547 0 0 7694 0 0 7533 0 0 7555 0 0 7381 0 0 7717 0 0 7537 0 0 7510 0 0 7560 0 0 7674 0 0 7671 0 0 7591 0 0 7499 0 0 7589 0 0 7619 0 0 7694 0 0 7724 0 0 7412 0 0 7520 0 0 7544 0 0 7604 0 0 7394 0 0 7579 0 0 7441 0 0 7461 0 0 7227 0 0 7488 0 0 7486 0 0 7442 0 0 3893 0 0 0 0 0 0 0 0 0 0 0 0 0 0 0 0 0 0 0 0 0 0 0 0 0 0 0 0 0 
0 0 0 0 0 0 0 0 0 0 0 0 0 0 0 0 0 0 0 0 0 0 0 0 0 0 0 0 0 0 3772 0 0 7698 0 0 7555 0 0 7569 0 0 7722 0 0 7586 0 0 7606 0 0 7566 0 0 7556 0 0 7779 0 0 7773 0 0 7621 0 0 7492 0 0 7690 0 0 7651 0 0 7594 0 0 7534 0 0 7561 0 0 7733 0 0 7568 0 0 7562 0 0 7725 0 0 7520 0 0 7667 0 0 7555 0 0 7506 0 0 7484 0 0 7468 0 0 7434 0 0 7711 0 0 7669 0 0 7700 0 0 7644 0 0 7505 0 0 7604 0 0 7718 0 0 7586 0 0 7483 0 0 7449 0 0 7655 0 0 3808 0 0 0 0 0 0 0 0 0 0 0 0 0 0 0 0 0 0 0 0 0 0 0 0 0 0 0 0 0 
0 0 0 0 0 0 0 0 0 0 0 0 0 0 0 0 0 0 0 0 0 0 0 0 0 0 0 0 0 0 3930 0 0 7670 0 0 7575 0 0 7592 0 0 7373 0 0 7580 0 0 7650 0 0 7671 0 0 7643 0 0 7696 0 0 7413 0 0 7695 0 0 7544 0 0 7626 0 0 7573 0 0 7528 0 0 7568 0 0 7606 0 0 7584 0 0 7614 0 0 7602 0 0 7379 0 0 7715 0 0 7605 0 0 7793 0 0 7508 0 0 7746 0 0 7518 0 0 7648 0 0 7485 0 0 7528 0 0 7783 0 0 7607 0 0 7532 0 0 7560 0 0 7653 0 0 7624 0 0 7576 0 0 7728 0 0 7692 0 0 3781 0 0 0 0 0 0 0 0 0 0 0 0 0 0 0 0 0 0 0 0 0 0 0 0 0 0 0 0 0 
0 0 0 0 0 0 0 0 0 0 0 0 0 0 0 0 0 0 0 0 0 0 0 0 0 0 0 0 0 0 3744 0 0 7574 0 0 7528 0 0 7657 0 0 7602 0 0 7699 0 0 7558 0 0 7495 0 0 7552 0 0 7636 0 0 7697 0 0 7624 0 0 7443 0 0 7680 0 0 7659 0 0 7637 0 0 7655 0 0 7629 0 0 7499 0 0 7584 0 0 7674 0 0 7581 0 0 7655 0 0 7656 0 0 7673 0 0 7562 0 0 7474 0 0 7594 0 0 7744 0 0 7586 0 0 7697 0 0 7699 0 0 7619 0 0 7302 0 0 7528 0 0 7685 0 0 7620 0 0 7650 0 0 7494 0 0 7604 0 0 3844 0 0 0 0 0 0 0 0 0 0 0 0 0 0 0 0 0 0 0 0 0 0 0 0 0 0 0 0 0 
0 0 0 0 0 0 0 0 0 0 0 0 0 0 0 0 0 0 0 0 0 0 0 0 0 0 0 0 0 0 3779 0 0 7596 0 0 7557 0 0 7547 0 0 7540 0 0 7700 0 0 7735 0 0 7548 0 0 7638 0 0 7692 0 0 7498 0 0 7748 0 0 7702 0 0 7504 0 0 7519 0 0 7415 0 0 7577 0 0 7638 0 0 7474 0 0 7546 0 0 7592 0 0 7700 0 0 7658 0 0 7611 0 0 7540 0 0 7597 0 0 7684 0 0 7647 0 0 7442 0 0 7666 0 0 7580 0 0 7632 0 0 7497 0 0 7677 0 0 7431 0 0 7462 0 0 7578 0 0 7554 0 0 7657 0 0 7715 0 0 3827 0 0 0 0 0 0 0 0 0 0 0 0 0 0 0 0 0 0 0 0 0 0 0 0 0 0 0 0 0 
0 0 0 0 0 0 0 0 0 0 0 0 0 0 0 0 0 0 0 0 0 0 0 0 0 0 0 0 0 0 3888 0 0 7644 0 0 7651 0 0 7318 0 0 7571 0 0 7546 0 0 7686 0 0 7606 0 0 7597 0 0 7395 0 0 7533 0 0 7565 0 0 7573 0 0 7676 0 0 7568 0 0 7517 0 0 7668 0 0 7642 0 0 7668 0 0 7643 0 0 7643 0 0 7631 0 0 7668 0 0 7646 0 0 7588 0 0 7676 0 0 7552 0 0 7754 0 0 7768 0 0 7561 0 0 7638 0 0 7478 0 0 7695 0 0 7597 0 0 7573 0 0 7604 0 0 7656 0 0 7685 0 0 7675 0 0 7560 0 0 3871 0 0 0 0 0 0 0 0 0 0 0 0 0 0 0 0 0 0 0 0 0 0 0 0 0 0 0 0 0 
0 0 0 0 0 0 0 0 0 0 0 0 0 0 0 0 0 0 0 0 0 0 0 0 0 0 0 0 0 0 3698 0 0 7787 0 0 7653 0 0 7635 0 0 7686 0 0 7566 0 0 7629 0 0 7605 0 0 7683 0 0 7657 0 0 7645 0 0 7610 0 0 7569 0 0 7731 0 0 7562 0 0 7624 0 0 7558 0 0 7559 0 0 7747 0 0 7493 0 0 7613 0 0 7576 0 0 7509 0 0 7604 0 0 7501 0 0 7609 0 0 7518 0 0 7644 0 0 7644 0 0 7542 0 0 7648 0 0 7590 0 0 7592 0 0 7572 0 0 7609 0 0 7567 0 0 7526 0 0 7615 0 0 7682 0 0 7581 0 0 3738 0 0 0 0 0 0 0 0 0 0 0 0 0 0 0 0 0 0 0 0 0 0 0 0 0 0 0 0 0 
0 0 0 0 0 0 0 0 0 0 0 0 0 0 0 0 0 0 0 0 0 0 0 0 0 0 0 0 0 0 3835 0 0 7717 0 0 7591 0 0 7576 0 0 7507 0 0 7692 0 0 7561 0 0 7524 0 0 7581 0 0 7594 0 0 7530 0 0 7674 0 0 7536 0 0 7622 0 0 7714 0 0 7528 0 0 7575 0 0 7607 0 0 7614 0 0 7566 0 0 7510 0 0 7559 0 0 7528 0 0 7781 0 0 7701 0 0 7524 0 0 7696 0 0 7476 0 0 7599 0 0 7645 0 0 7748 0 0 7646 0 0 7529 0 0 7588 0 0 7662 0 0 7661 0 0 7492 0 0 7591 0 0 7568 0 0 7584 0 0 3866 0 0 0 0 0 0 0 0 0 0 0 0 0 0 0 0 0 0 0 0 0 0 0 0 0 0 0 0 0 
0 0 0 0 0 0 0 0 0 0 0 0 0 0 0 0 0 0 0 0 0 0 0 0 0 0 0 0 0 0 3738 0 0 7651 0 0 7540 0 0 7639 0 0 7608 0 0 7554 0 0 7580 0 0 7686 0 0 7492 0 0 7489 0 0 7586 0 0 7577 0 0 7588 0 0 7532 0 0 7619 0 0 7731 0 0 7649 0 0 7657 0 0 7521 0 0 7537 0 0 7767 0 0 7555 0 0 7598 0 0 7539 0 0 7610 0 0 7645 0 0 7590 0 0 7768 0 0 7588 0 0 7625 0 0 7699 0 0 7485 0 0 7691 0 0 7642 0 0 7603 0 0 7701 0 0 7532 0 0 7558 0 0 7606 0 0 7654 0 0 3764 0 0 0 0 0 0 0 0 0 0 0 0 0 0 0 0 0 0 0 0 0 0 0 0 0 0 0 0 0 
0 0 0 0 0 0 0 0 0 0 0 0 0 0 0 0 0 0 0 0 0 0 0 0 0 0 0 0 0 0 3765 0 0 7513 0 0 7634 0 0 7752 0 0 7497 0 0 7683 0 0 7701 0 0 7670 0 0 7577 0 0 7674 0 0 7640 0 0 7585 0 0 7528 0 0 7626 0 0 7474 0 0 7616 0 0 7829 0 0 7709 0 0 7617 0 0 7572 0 0 7534 0 0 7695 0 0 7831 0 0 7640 0 0 7613 0 0 7581 0 0 7455 0 0 7658 0 0 7599 0 0 7314 0 0 7656 0 0 7624 0 0 7719 0 0 7818 0 0 7701 0 0 7581 0 0 7661 0 0 7638 0 0 7639 0 0 7599 0 0 3791 0 0 0 0 0 0 0 0 0 0 0 0 0 0 0 0 0 0 0 0 0 0 0 0 0 0 0 0 0 
0 0 0 0 0 0 0 0 0 0 0 0 0 0 0 0 0 0 0 0 0 0 0 0 0 0 0 0 0 0 3721 0 0 7715 0 0 7538 0 0 7624 0 0 7666 0 0 7450 0 0 7706 0 0 7566 0 0 7647 0 0 7463 0 0 7591 0 0 7415 0 0 7621 0 0 7641 0 0 7602 0 0 7631 0 0 7552 0 0 7562 0 0 7553 0 0 7310 0 0 7498 0 0 7532 0 0 7567 0 0 7564 0 0 7719 0 0 7664 0 0 7615 0 0 7440 0 0 7594 0 0 7461 0 0 7670 0 0 7664 0 0 7572 0 0 7597 0 0 7594 0 0 7491 0 0 7604 0 0 7548 0 0 7538 0 0 7592 0 0 3793 0 0 0 0 0 0 0 0 0 0 0 0 0 0 0 0 0 0 0 0 0 0 0 0 0 0 0 0 0 
0 0 0 0 0 0 0 0 0 0 0 0 0 0 0 0 0 0 0 0 0 0 0 0 0 0 0 0 0 0 3812 0 0 7590 0 0 7618 0 0 7656 0 0 7610 0 0 7545 0 0 7554 0 0 7549 0 0 7481 0 0 7960 0 0 7665 0 0 7570 0 0 7543 0 0 7446 0 0 7484 0 0 7530 0 0 7686 0 0 7481 0 0 7541 0 0 7599 0 0 7658 0 0 7566 0 0 7505 0 0 7539 0 0 7502 0 0 7377 0 0 7418 0 0 7540 0 0 7590 0 0 7509 0 0 7480 0 0 7602 0 0 7438 0 0 7769 0 0 7384 0 0 7429 0 0 7604 0 0 7548 0 0 7679 0 0 7545 0 0 3845 0 0 0 0 0 0 0 0 0 0 0 0 0 0 0 0 0 0 0 0 0 0 0 0 0 0 0 0 0 
0 0 0 0 0 0 0 0 0 0 0 0 0 0 0 0 0 0 0 0 0 0 0 0 0 0 0 0 0 0 3809 0 0 7489 0 0 7638 0 0 7618 0 0 7555 0 0 7592 0 0 7566 0 0 7507 0 0 7643 0 0 7465 0 0 7542 0 0 7586 0 0 7703 0 0 7544 0 0 7585 0 0 7559 0 0 7524 0 0 7773 0 0 7724 0 0 7576 0 0 7410 0 0 7746 0 0 7545 0 0 7655 0 0 7582 0 0 7517 0 0 7577 0 0 7434 0 0 7565 0 0 7569 0 0 7486 0 0 7518 0 0 7568 0 0 7576 0 0 7664 0 0 7574 0 0 7551 0 0 7501 0 0 7709 0 0 7598 0 0 3706 0 0 0 0 0 0 0 0 0 0 0 0 0 0 0 0 0 0 0 0 0 0 0 0 0 0 0 0 0 
0 0 0 0 0 0 0 0 0 0 0 0 0 0 0 0 0 0 0 0 0 0 0 0 0 0 0 0 0 0 3724 0 0 7544 0 0 7512 0 0 7557 0 0 7620 0 0 7597 0 0 7614 0 0 7555 0 0 7632 0 0 7630 0 0 7722 0 0 7684 0 0 7503 0 0 7507 0 0 7660 0 0 7545 0 0 7440 0 0 7498 0 0 7581 0 0 7591 0 0 7628 0 0 7483 0 0 7541 0 0 7552 0 0 7620 0 0 7579 0 0 7479 0 0 7591 0 0 7522 0 0 7616 0 0 7635 0 0 7604 0 0 7629 0 0 7709 0 0 7572 0 0 7594 0 0 7661 0 0 7801 0 0 7742 0 0 7640 0 0 3755 0 0 0 0 0 0 0 0 0 0 0 0 0 0 0 0 0 0 0 0 0 0 0 0 0 0 0 0 0 
0 0 0 0 0 0 0 0 0 0 0 0 0 0 0 0 0 0 0 0 0 0 0 0 0 0 0 0 0 0 3790 0 0 7713 0 0 7531 0 0 7646 0 0 7590 0 0 7615 0 0 7697 0 0 7551 0 0 7709 0 0 7547 0 0 7680 0 0 7416 0 0 7594 0 0 7576 0 0 7704 0 0 7646 0 0 7839 0 0 7671 0 0 7578 0 0 7743 0 0 7703 0 0 7740 0 0 7652 0 0 7740 0 0 7676 0 0 7606 0 0 7678 0 0 7783 0 0 7568 0 0 7624 0 0 7534 0 0 7556 0 0 7673 0 0 7609 0 0 7637 0 0 7648 0 0 7544 0 0 7554 0 0 7618 0 0 7773 0 0 3684 0 0 0 0 0 0 0 0 0 0 0 0 0 0 0 0 0 0 0 0 0 0 0 0 0 0 0 0 0 
0 0 0 0 0 0 0 0 0 0 0 0 0 0 0 0 0 0 0 0 0 0 0 0 0 0 0 0 0 0 3671 0 0 7661 0 0 7513 0 0 7654 0 0 7635 0 0 7607 0 0 7342 0 0 7484 0 0 7623 0 0 7607 0 0 7506 0 0 7670 0 0 7639 0 0 7620 0 0 7733 0 0 7687 0 0 7500 0 0 7630 0 0 7478 0 0 7521 0 0 7537 0 0 7461 0 0 7659 0 0 7576 0 0 7539 0 0 7516 0 0 7590 0 0 7756 0 0 7544 0 0 7497 0 0 7420 0 0 7603 0 0 7544 0 0 7579 0 0 7449 0 0 7541 0 0 7559 0 0 7683 0 0 7629 0 0 7617 0 0 3822 0 0 0 0 0 0 0 0 0 0 0 0 0 0 0 0 0 0 0 0 0 0 0 0 0 0 0 0 0 
0 0 0 0 0 0 0 0 0 0 0 0 0 0 0 0 0 0 0 0 0 0 0 0 0 0 0 0 0 0 3752 0 0 7621 0 0 7582 0 0 7573 0 0 7599 0 0 7540 0 0 7484 0 0 7755 0 0 7724 0 0 7575 0 0 7530 0 0 7755 0 0 7747 0 0 7575 0 0 7624 0 0 7658 0 0 7412 0 0 7695 0 0 7529 0 0 7591 0 0 7607 0 0 7484 0 0 7669 0 0 7762 0 0 7665 0 0 7612 0 0 7525 0 0 7570 0 0 7654 0 0 7593 0 0 7463 0 0 7530 0 0 7723 0 0 7457 0 0 7555 0 0 7545 0 0 7592 0 0 7453 0 0 7585 0 0 7487 0 0 3833 0 0 0 0 0 0 0 0 0 0 0 0 0 0 0 0 0 0 0 0 0 0 0 0 0 0 0 0 0 
0 0 0 0 0 0 0 0 0 0 0 0 0 0 0 0 0 0 0 0 0 0 0 0 0 0 0 0 0 0 3793 0 0 7565 0 0 7659 0 0 7475 0 0 7641 0 0 7428 0 0 7611 0 0 7590 0 0 7564 0 0 7535 0 0 7566 0 0 7652 0 0 7619 0 0 7544 0 0 7554 0 0 7703 0 0 7731 0 0 7685 0 0 7584 0 0 7657 0 0 7670 0 0 7579 0 0 7545 0 0 7628 0 0 7720 0 0 7569 0 0 7602 0 0 7553 0 0 7657 0 0 7547 0 0 7757 0 0 7397 0 0 7610 0 0 7611 0 0 7642 0 0 7419 0 0 7619 0 0 7556 0 0 7590 0 0 7633 0 0 3815 0 0 0 0 0 0 0 0 0 0 0 0 0 0 0 0 0 0 0 0 0 0 0 0 0 0 0 0 0 
0 0 0 0 0 0 0 0 0 0 0 0 0 0 0 0 0 0 0 0 0 0 0 0 0 0 0 0 0 0 3715 0 0 7538 0 0 7498 0 0 7790 0 0 7803 0 0 7650 0 0 7772 0 0 7532 0 0 7726 0 0 7589 0 0 7583 0 0 7593 0 0 7651 0 0 7430 0 0 7715 0 0 7461 0 0 7623 0 0 7606 0 0 7658 0 0 7489 0 0 7586 0 0 7492 0 0 7715 0 0 7518 0 0 7618 0 0 7617 0 0 7581 0 0 7600 0 0 7656 0 0 7498 0 0 7469 0 0 7714 0 0 7685 0 0 7647 0 0 7632 0 0 7655 0 0 7652 0 0 7716 0 0 7546 0 0 7441 0 0 3836 0 0 0 0 0 0 0 0 0 0 0 0 0 0 0 0 0 0 0 0 0 0 0 0 0 0 0 0 0 
0 0 0 0 0 0 0 0 0 0 0 0 0 0 0 0 0 0 0 0 0 0 0 0 0 0 0 0 0 0 3833 0 0 7760 0 0 7542 0 0 7836 0 0 7661 0 0 7340 0 0 7661 0 0 7550 0 0 7684 0 0 7623 0 0 7597 0 0 7590 0 0 7426 0 0 7647 0 0 7596 0 0 7704 0 0 7708 0 0 7540 0 0 7514 0 0 7548 0 0 7577 0 0 7406 0 0 7584 0 0 7486 0 0 7558 0 0 7605 0 0 7635 0 0 7485 0 0 7591 0 0 7607 0 0 7560 0 0 7670 0 0 7755 0 0 7497 0 0 7434 0 0 7529 0 0 7398 0 0 7639 0 0 7537 0 0 7575 0 0 3845 0 0 0 0 0 0 0 0 0 0 0 0 0 0 0 0 0 0 0 0 0 0 0 0 0 0 0 0 0 
0 0 0 0 0 0 0 0 0 0 0 0 0 0 0 0 0 0 0 0 0 0 0 0 0 0 0 0 0 0 3807 0 0 7514 0 0 7555 0 0 7519 0 0 7575 0 0 7653 0 0 7496 0 0 7654 0 0 7620 0 0 7536 0 0 7498 0 0 7620 0 0 7574 0 0 7638 0 0 7389 0 0 7676 0 0 7597 0 0 7676 0 0 7527 0 0 7593 0 0 7706 0 0 7545 0 0 7628 0 0 7466 0 0 7493 0 0 7590 0 0 7599 0 0 7616 0 0 7585 0 0 7639 0 0 7559 0 0 7544 0 0 7557 0 0 7500 0 0 7505 0 0 7552 0 0 7621 0 0 7615 0 0 7482 0 0 7565 0 0 3768 0 0 0 0 0 0 0 0 0 0 0 0 0 0 0 0 0 0 0 0 0 0 0 0 0 0 0 0 0 
0 0 0 0 0 0 0 0 0 0 0 0 0 0 0 0 0 0 0 0 0 0 0 0 0 0 0 0 0 0 3750 0 0 7605 0 0 7520 0 0 7667 0 0 7564 0 0 7671 0 0 7506 0 0 7689 0 0 7569 0 0 7523 0 0 7672 0 0 7607 0 0 7579 0 0 7593 0 0 7712 0 0 7529 0 0 7507 0 0 7507 0 0 7602 0 0 7615 0 0 7693 0 0 7505 0 0 7552 0 0 7699 0 0 7660 0 0 7445 0 0 7498 0 0 7689 0 0 7779 0 0 7573 0 0 7623 0 0 7566 0 0 7499 0 0 7614 0 0 7500 0 0 7680 0 0 7598 0 0 7536 0 0 7649 0 0 7770 0 0 3759 0 0 0 0 0 0 0 0 0 0 0 0 0 0 0 0 0 0 0 0 0 0 0 0 0 0 0 0 0 
0 0 0 0 0 0 0 0 0 0 0 0 0 0 0 0 0 0 0 0 0 0 0 0 0 0 0 0 0 0 3929 0 0 7558 0 0 7607 0 0 7563 0 0 7604 0 0 7626 0 0 7521 0 0 7438 0 0 7532 0 0 7444 0 0 7535 0 0 7738 0 0 7471 0 0 7768 0 0 7513 0 0 7639 0 0 7661 0 0 7788 0 0 7711 0 0 7545 0 0 7534 0 0 7567 0 0 7742 0 0 7615 0 0 7579 0 0 7575 0 0 7534 0 0 7501 0 0 7622 0 0 7574 0 0 7628 0 0 7583 0 0 7646 0 0 7646 0 0 7658 0 0 7538 0 0 7628 0 0 7624 0 0 7683 0 0 7653 0 0 3706 0 0 0 0 0 0 0 0 0 0 0 0 0 0 0 0 0 0 0 0 0 0 0 0 0 0 0 0 0 
0 0 0 0 0 0 0 0 0 0 0 0 0 0 0 0 0 0 0 0 0 0 0 0 0 0 0 0 0 0 3761 0 0 7473 0 0 7704 0 0 7588 0 0 7614 0 0 7426 0 0 7639 0 0 7638 0 0 7676 0 0 7627 0 0 7659 0 0 7537 0 0 7524 0 0 7610 0 0 7532 0 0 7682 0 0 7708 0 0 7541 0 0 7507 0 0 7693 0 0 7662 0 0 7550 0 0 7564 0 0 7622 0 0 7810 0 0 7550 0 0 7718 0 0 7654 0 0 7643 0 0 7481 0 0 7477 0 0 7545 0 0 7486 0 0 7642 0 0 7609 0 0 7682 0 0 7601 0 0 7674 0 0 7625 0 0 7572 0 0 3816 0 0 0 0 0 0 0 0 0 0 0 0 0 0 0 0 0 0 0 0 0 0 0 0 0 0 0 0 0 
0 0 0 0 0 0 0 0 0 0 0 0 0 0 0 0 0 0 0 0 0 0 0 0 0 0 0 0 0 0 3796 0 0 7739 0 0 7533 0 0 7743 0 0 7577 0 0 7551 0 0 7520 0 0 7653 0 0 7584 0 0 7650 0 0 7522 0 0 7571 0 0 7560 0 0 7696 0 0 7522 0 0 7605 0 0 7516 0 0 7565 0 0 7483 0 0 7500 0 0 7683 0 0 7555 0 0 7579 0 0 7505 0 0 7632 0 0 7619 0 0 7548 0 0 7601 0 0 7497 0 0 7709 0 0 7574 0 0 7743 0 0 7602 0 0 7508 0 0 7675 0 0 7508 0 0 7669 0 0 7749 0 0 7651 0 0 7649 0 0 3876 0 0 0 0 0 0 0 0 0 0 0 0 0 0 0 0 0 0 0 0 0 0 0 0 0 0 0 0 0 
0 0 0 0 0 0 0 0 0 0 0 0 0 0 0 0 0 0 0 0 0 0 0 0 0 0 0 0 0 0 3675 0 0 7401 0 0 7575 0 0 7677 0 0 7727 0 0 7585 0 0 7646 0 0 7562 0 0 7558 0 0 7445 0 0 7518 0 0 7559 0 0 7688 0 0 7575 0 0 7786 0 0 7538 0 0 7563 0 0 7560 0 0 7658 0 0 7531 0 0 7622 0 0 7517 0 0 7692 0 0 7537 0 0 7575 0 0 7442 0 0 7471 0 0 7524 0 0 7546 0 0 7774 0 0 7808 0 0 7562 0 0 7509 0 0 7523 0 0 7450 0 0 7648 0 0 7562 0 0 7563 0 0 7551 0 0 7773 0 0 3806 0 0 0 0 0 0 0 0 0 0 0 0 0 0 0 0 0 0 0 0 0 0 0 0 0 0 0 0 0 
0 0 0 0 0 0 0 0 0 0 0 0 0 0 0 0 0 0 0 0 0 0 0 0 0 0 0 0 0 0 3767 0 0 7638 0 0 7491 0 0 7653 0 0 7458 0 0 7726 0 0 7697 0 0 7728 0 0 7572 0 0 7631 0 0 7623 0 0 7532 0 0 7436 0 0 7596 0 0 7603 0 0 7545 0 0 7637 0 0 7465 0 0 7613 0 0 7641 0 0 7681 0 0 7615 0 0 7709 0 0 7473 0 0 7602 0 0 7580 0 0 7588 0 0 7529 0 0 7548 0 0 7593 0 0 7633 0 0 7582 0 0 7392 0 0 7646 0 0 7632 0 0 7550 0 0 7555 0 0 7558 0 0 7582 0 0 7562 0 0 3655 0 0 0 0 0 0 0 0 0 0 0 0 0 0 0 0 0 0 0 0 0 0 0 0 0 0 0 0 0 
0 0 0 0 0 0 0 0 0 0 0 0 0 0 0 0 0 0 0 0 0 0 0 0 0 0 0 0 0 0 3947 0 0 7435 0 0 7622 0 0 7677 0 0 7675 0 0 7667 0 0 7570 0 0 7474 0 0 7612 0 0 7738 0 0 7639 0 0 7543 0 0 7503 0 0 7754 0 0 7564 0 0 7604 0 0 7407 0 0 7548 0 0 7470 0 0 7644 0 0 7597 0 0 7490 0 0 7823 0 0 7429 0 0 7665 0 0 7604 0 0 7585 0 0 7583 0 0 7610 0 0 7673 0 0 7581 0 0 7433 0 0 7636 0 0 7556 0 0 7673 0 0 7629 0 0 7494 0 0 7511 0 0 7581 0 0 7626 0 0 3769 0 0 0 0 0 0 0 0 0 0 0 0 0 0 0 0 0 0 0 0 0 0 0 0 0 0 0 0 0 
0 0 0 0 0 0 0 0 0 0 0 0 0 0 0 0 0 0 0 0 0 0 0 0 0 0 0 0 0 0 3840 0 0 7669 0 0 7584 0 0 7543 0 0 7691 0 0 7595 0 0 7790 0 0 7506 0 0 7567 0 0 7636 0 0 7467 0 0 7574 0 0 7447 0 0 7488 0 0 7594 0 0 7583 0 0 7618 0 0 7645 0 0 7600 0 0 7440 0 0 7652 0 0 7574 0 0 7565 0 0 7602 0 0 7361 0 0 7745 0 0 7652 0 0 7650 0 0 7579 0 0 7585 0 0 7516 0 0 7559 0 0 7492 0 0 7475 0 0 7651 0 0 7719 0 0 7654 0 0 7724 0 0 7627 0 0 7570 0 0 3790 0 0 0 0 0 0 0 0 0 0 0 0 0 0 0 0 0 0 0 0 0 0 0 0 0 0 0 0 0 
0 0 0 0 0 0 0 0 0 0 0 0 0 0 0 0 0 0 0 0 0 0 0 0 0 0 0 0 0 0 3740 0 0 7723 0 0 7763 0 0 7696 0 0 7522 0 0 7776 0 0 7565 0 0 7532 0 0 7440 0 0 7602 0 0 7731 0 0 7527 0 0 7634 0 0 7681 0 0 7419 0 0 7570 0 0 7461 0 0 7654 0 0 7571 0 0 7662 0 0 7611 0 0 7449 0 0 7572 0 0 7564 0 0 7506 0 0 7495 0 0 7541 0 0 7569 0 0 7650 0 0 7759 0 0 7551 0 0 7525 0 0 7634 0 0 7692 0 0 7612 0 0 7549 0 0 7671 0 0 7664 0 0 7564 0 0 7622 0 0 3848 0 0 0 0 0 0 0 0 0 0 0 0 0 0 0 0 0 0 0 0 0 0 0 0 0 0 0 0 0 
0 0 0 0 0 0 0 0 0 0 0 0 0 0 0 0 0 0 0 0 0 0 0 0 0 0 0 0 0 0 3802 0 0 7709 0 0 7564 0 0 7546 0 0 7587 0 0 7659 0 0 7540 0 0 7611 0 0 7641 0 0 7567 0 0 7516 0 0 7409 0 0 7580 0 0 7682 0 0 7572 0 0 7382 0 0 7550 0 0 7493 0 0 7711 0 0 7513 0 0 7612 0 0 7405 0 0 7711 0 0 7573 0 0 7500 0 0 7609 0 0 7525 0 0 7665 0 0 7658 0 0 7676 0 0 7620 0 0 7568 0 0 7551 0 0 7493 0 0 7623 0 0 7606 0 0 7543 0 0 7604 0 0 7604 0 0 7645 0 0 3669 0 0 0 0 0 0 0 0 0 0 0 0 0 0 0 0 0 0 0 0 0 0 0 0 0 0 0 0 0 
0 0 0 0 0 0 0 0 0 0 0 0 0 0 0 0 0 0 0 0 0 0 0 0 0 0 0 0 0 0 3812 0 0 7516 0 0 7597 0 0 7567 0 0 7644 0 0 7722 0 0 7715 0 0 7904 0 0 7541 0 0 7642 0 0 7715 0 0 7628 0 0 7486 0 0 7532 0 0 7622 0 0 7531 0 0 7668 0 0 7659 0 0 7485 0 0 7752 0 0 7757 0 0 7658 0 0 7643 0 0 7767 0 0 7498 0 0 7686 0 0 7406 0 0 7613 0 0 7714 0 0 7631 0 0 7645 0 0 7630 0 0 7494 0 0 7590 0 0 7601 0 0 7512 0 0 7614 0 0 7531 0 0 7631 0 0 7524 0 0 3788 0 0 0 0 0 0 0 0 0 0 0 0 0 0 0 0 0 0 0 0 0 0 0 0 0 0 0 0 0 
0 0 0 0 0 0 0 0 0 0 0 0 0 0 0 0 0 0 0 0 0 0 0 0 0 0 0 0 0 0 3793 0 0 7638 0 0 7650 0 0 7584 0 0 7526 0 0 7519 0 0 7597 0 0 7583 0 0 7664 0 0 7688 0 0 7583 0 0 7593 0 0 7464 0 0 7635 0 0 7756 0 0 7516 0 0 7657 0 0 7773 0 0 7428 0 0 7595 0 0 7640 0 0 7504 0 0 7632 0 0 7675 0 0 7582 0 0 7606 0 0 7603 0 0 7654 0 0 7678 0 0 7609 0 0 7539 0 0 7512 0 0 7597 0 0 7637 0 0 7584 0 0 7585 0 0 7688 0 0 7683 0 0 7530 0 0 7600 0 0 3846 0 0 0 0 0 0 0 0 0 0 0 0 0 0 0 0 0 0 0 0 0 0 0 0 0 0 0 0 0 
0 0 0 0 0 0 0 0 0 0 0 0 0 0 0 0 0 0 0 0 0 0 0 0 0 0 0 0 0 0 3814 0 0 7654 0 0 7553 0 0 7597 0 0 7522 0 0 7510 0 0 7603 0 0 7575 0 0 7579 0 0 7648 0 0 7446 0 0 7593 0 0 7569 0 0 7703 0 0 7538 0 0 7589 0 0 7666 0 0 7548 0 0 7435 0 0 7479 0 0 7604 0 0 7532 0 0 7629 0 0 7634 0 0 7427 0 0 7589 0 0 7547 0 0 7626 0 0 7589 0 0 7586 0 0 7649 0 0 7681 0 0 7669 0 0 7656 0 0 7602 0 0 7593 0 0 7695 0 0 7503 0 0 7445 0 0 7534 0 0 3759 0 0 0 0 0 0 0 0 0 0 0 0 0 0 0 0 0 0 0 0 0 0 0 0 0 0 0 0 0 
0 0 0 0 0 0 0 0 0 0 0 0 0 0 0 0 0 0 0 0 0 0 0 0 0 0 0 0 0 0 3774 0 0 7413 0 0 7616 0 0 7636 0 0 7491 0 0 7741 0 0 7697 0 0 7697 0 0 7579 0 0 7564 0 0 7485 0 0 7573 0 0 7742 0 0 7620 0 0 7747 0 0 7520 0 0 7578 0 0 7352 0 0 7558 0 0 7668 0 0 7479 0 0 7567 0 0 7651 0 0 7652 0 0 7752 0 0 7652 0 0 7623 0 0 7441 0 0 7612 0 0 7577 0 0 7625 0 0 7450 0 0 7541 0 0 7603 0 0 7571 0 0 7517 0 0 7686 0 0 7590 0 0 7601 0 0 7534 0 0 3860 0 0 0 0 0 0 0 0 0 0 0 0 0 0 0 0 0 0 0 0 0 0 0 0 0 0 0 0 0 
0 0 0 0 0 0 0 0 0 0 0 0 0 0 0 0 0 0 0 0 0 0 0 0 0 0 0 0 0 0 3704 0 0 7561 0 0 7632 0 0 7500 0 0 7511 0 0 7577 0 0 7488 0 0 7372 0 0 7547 0 0 7683 0 0 7612 0 0 7657 0 0 7620 0 0 7503 0 0 7615 0 0 7571 0 0 7598 0 0 7481 0 0 7675 0 0 7615 0 0 7658 0 0 7636 0 0 7644 0 0 7561 0 0 7581 0 0 7515 0 0 7714 0 0 7715 0 0 7582 0 0 7736 0 0 7433 0 0 7400 0 0 7708 0 0 7484 0 0 7713 0 0 7437 0 0 7546 0 0 7526 0 0 7526 0 0 7692 0 0 3810 0 0 0 0 0 0 0 0 0 0 0 0 0 0 0 0 0 0 0 0 0 0 0 0 0 0 0 0 0 
0 0 0 0 0 0 0 0 0 0 0 0 0 0 0 0 0 0 0 0 0 0 0 0 0 0 0 0 0 0 3801 0 0 7413 0 0 7546 0 0 7551 0 0 7441 0 0 7626 0 0 7567 0 0 7437 0 0 7555 0 0 7505 0 0 7653 0 0 7502 0 0 7642 0 0 7673 0 0 7609 0 0 7429 0 0 7589 0 0 7603 0 0 7613 0 0 7632 0 0 7692 0 0 7693 0 0 7491 0 0 7604 0 0 7634 0 0 7530 0 0 7744 0 0 7606 0 0 7725 0 0 7598 0 0 7599 0 0 7655 0 0 7530 0 0 7448 0 0 7552 0 0 7521 0 0 7503 0 0 7686 0 0 7604 0 0 7707 0 0 3854 0 0 0 0 0 0 0 0 0 0 0 0 0 0 0 0 0 0 0 0 0 0 0 0 0 0 0 0 0 
0 0 0 0 0 0 0 0 0 0 0 0 0 0 0 0 0 0 0 0 0 0 0 0 0 0 0 0 0 0 1891 0 0 3859 0 0 3838 0 0 3956 0 0 3777 0 0 3834 0 0 3822 0 0 3875 0 0 3719 0 0 3814 0 0 3887 0 0 3790 0 0 3821 0 0 3761 0 0 3866 0 0 3780 0 0 3863 0 0 3752 0 0 3865 0 0 3853 0 0 3874 0 0 3917 0 0 3793 0 0 3773 0 0 3743 0 0 3715 0 0 3892 0 0 3761 0 0 3778 0 0 3836 0 0 3815 0 0 3806 0 0 3760 0 0 3820 0 0 3824 0 0 3791 0 0 3751 0 0 3846 0 0 3900 0 0 3837 0 0 1940 0 0 0 0 0 0 0 0 0 0 0 0 0 0 0 0 0 0 0 0 0 0 0 0 0 0 0 0 0 
0 0 0 0 0 0 0 0 0 0 0 0 0 0 0 0 0 0 0 0 0 0 0 0 0 0 0 0 0 0 0 0 0 0 0 0 0 0 0 0 0 0 0 0 0 0 0 0 0 0 0 0 0 0 0 0 0 0 0 0 0 0 0 0 0 0 0 0 0 0 0 0 0 0 0 0 0 0 0 0 0 0 0 0 0 0 0 0 0 0 0 0 0 0 0 0 0 0 0 0 0 0 0 0 0 0 0 0 0 0 0 0 0 0 0 0 0 0 0 0 0 0 0 0 0 0 0 0 0 0 0 0 0 0 0 0 0 0 0 0 0 0 0 0 0 0 0 0 0 0 0 0 0 0 0 0 0 0 0 0 0 0 0 0 0 0 0 0 0 0 0 0 0 0 0 0 0 0 0 0 
0 0 0 0 0 0 0 0 0 0 0 0 0 0 0 0 0 0 0 0 0 0 0 0 0 0 0 0 0 0 0 0 0 0 0 0 0 0 0 0 0 0 0 0 0 0 0 0 0 0 0 0 0 0 0 0 0 0 0 0 0 0 0 0 0 0 0 0 0 0 0 0 0 0 0 0 0 0 0 0 0 0 0 0 0 0 0 0 0 0 0 0 0 0 0 0 0 0 0 0 0 0 0 0 0 0 0 0 0 0 0 0 0 0 0 0 0 0 0 0 0 0 0 0 0 0 0 0 0 0 0 0 0 0 0 0 0 0 0 0 0 0 0 0 0 0 0 0 0 0 0 0 0 0 0 0 0 0 0 0 0 0 0 0 0 0 0 0 0 0 0 0 0 0 0 0 0 0 0 0 
0 0 0 0 0 0 0 0 0 0 0 0 0 0 0 0 0 0 0 0 0 0 0 0 0 0 0 0 0 0 0 0 0 0 0 0 0 0 0 0 0 0 0 0 0 0 0 0 0 0 0 0 0 0 0 0 0 0 0 0 0 0 0 0 0 0 0 0 0 0 0 0 0 0 0 0 0 0 0 0 0 0 0 0 0 0 0 0 0 0 0 0 0 0 0 0 0 0 0 0 0 0 0 0 0 0 0 0 0 0 0 0 0 0 0 0 0 0 0 0 0 0 0 0 0 0 0 0 0 0 0 0 0 0 0 0 0 0 0 0 0 0 0 0 0 0 0 0 0 0 0 0 0 0 0 0 0 0 0 0 0 0 0 0 0 0 0 0 0 0 0 0 0 0 0 0 0 0 0 0 
0 0 0 0 0 0 0 0 0 0 0 0 0 0 0 0 0 0 0 0 0 0 0 0 0 0 0 0 0 0 0 0 0 0 0 0 0 0 0 0 0 0 0 0 0 0 0 0 0 0 0 0 0 0 0 0 0 0 0 0 0 0 0 0 0 0 0 0 0 0 0 0 0 0 0 0 0 0 0 0 0 0 0 0 0 0 0 0 0 0 0 0 0 0 0 0 0 0 0 0 0 0 0 0 0 0 0 0 0 0 0 0 0 0 0 0 0 0 0 0 0 0 0 0 0 0 0 0 0 0 0 0 0 0 0 0 0 0 0 0 0 0 0 0 0 0 0 0 0 0 0 0 0 0 0 0 0 0 0 0 0 0 0 0 0 0 0 0 0 0 0 0 0 0 0 0 0 0 0 0 
0 0 0 0 0 0 0 0 0 0 0 0 0 0 0 0 0 0 0 0 0 0 0 0 0 0 0 0 0 0 0 0 0 0 0 0 0 0 0 0 0 0 0 0 0 0 0 0 0 0 0 0 0 0 0 0 0 0 0 0 0 0 0 0 0 0 0 0 0 0 0 0 0 0 0 0 0 0 0 0 0 0 0 0 0 0 0 0 0 0 0 0 0 0 0 0 0 0 0 0 0 0 0 0 0 0 0 0 0 0 0 0 0 0 0 0 0 0 0 0 0 0 0 0 0 0 0 0 0 0 0 0 0 0 0 0 0 0 0 0 0 0 0 0 0 0 0 0 0 0 0 0 0 0 0 0 0 0 0 0 0 0 0 0 0 0 0 0 0 0 0 0 0 0 0 0 0 0 0 0 
0 0 0 0 0 0 0 0 0 0 0 0 0 0 0 0 0 0 0 0 0 0 0 0 0 0 0 0 0 0 0 0 0 0 0 0 0 0 0 0 0 0 0 0 0 0 0 0 0 0 0 0 0 0 0 0 0 0 0 0 0 0 0 0 0 0 0 0 0 0 0 0 0 0 0 0 0 0 0 0 0 0 0 0 0 0 0 0 0 0 0 0 0 0 0 0 0 0 0 0 0 0 0 0 0 0 0 0 0 0 0 0 0 0 0 0 0 0 0 0 0 0 0 0 0 0 0 0 0 0 0 0 0 0 0 0 0 0 0 0 0 0 0 0 0 0 0 0 0 0 0 0 0 0 0 0 0 0 0 0 0 0 0 0 0 0 0 0 0 0 0 0 0 0 0 0 0 0 0 0 
0 0 0 0 0 0 0 0 0 0 0 0 0 0 0 0 0 0 0 0 0 0 0 0 0 0 0 0 0 0 0 0 0 0 0 0 0 0 0 0 0 0 0 0 0 0 0 0 0 0 0 0 0 0 0 0 0 0 0 0 0 0 0 0 0 0 0 0 0 0 0 0 0 0 0 0 0 0 0 0 0 0 0 0 0 0 0 0 0 0 0 0 0 0 0 0 0 0 0 0 0 0 0 0 0 0 0 0 0 0 0 0 0 0 0 0 0 0 0 0 0 0 0 0 0 0 0 0 0 0 0 0 0 0 0 0 0 0 0 0 0 0 0 0 0 0 0 0 0 0 0 0 0 0 0 0 0 0 0 0 0 0 0 0 0 0 0 0 0 0 0 0 0 0 0 0 0 0 0 0 
0 0 0 0 0 0 0 0 0 0 0 0 0 0 0 0 0 0 0 0 0 0 0 0 0 0 0 0 0 0 0 0 0 0 0 0 0 0 0 0 0 0 0 0 0 0 0 0 0 0 0 0 0 0 0 0 0 0 0 0 0 0 0 0 0 0 0 0 0 0 0 0 0 0 0 0 0 0 0 0 0 0 0 0 0 0 0 0 0 0 0 0 0 0 0 0 0 0 0 0 0 0 0 0 0 0 0 0 0 0 0 0 0 0 0 0 0 0 0 0 0 0 0 0 0 0 0 0 0 0 0 0 0 0 0 0 0 0 0 0 0 0 0 0 0 0 0 0 0 0 0 0 0 0 0 0 0 0 0 0 0 0 0 0 0 0 0 0 0 0 0 0 0 0 0 0 0 0 0 0 
0 0 0 0 0 0 0 0 0 0 0 0 0 0 0 0 0 0 0 0 0 0 0 0 0 0 0 0 0 0 0 0 0 0 0 0 0 0 0 0 0 0 0 0 0 0 0 0 0 0 0 0 0 0 0 0 0 0 0 0 0 0 0 0 0 0 0 0 0 0 0 0 0 0 0 0 0 0 0 0 0 0 0 0 0 0 0 0 0 0 0 0 0 0 0 0 0 0 0 0 0 0 0 0 0 0 0 0 0 0 0 0 0 0 0 0 0 0 0 0 0 0 0 0 0 0 0 0 0 0 0 0 0 0 0 0 0 0 0 0 0 0 0 0 0 0 0 0 0 0 0 0 0 0 0 0 0 0 0 0 0 0 0 0 0 0 0 0 0 0 0 0 0 0 0 0 0 0 0 0 
