P3
# This is a dose file slice at depth 84 of 100
60 60
# now we give the maximum value of the RGB coordinates.
34204
0 0 0 0 0 0 0 0 0 0 0 0 0 0 0 0 0 0 0 0 0 0 0 0 0 0 0 0 0 0 0 0 0 0 0 0 0 0 0 0 0 0 0 0 0 0 0 0 0 0 0 0 0 0 0 0 0 0 0 0 0 0 0 0 0 0 0 0 0 0 0 0 0 0 0 0 0 0 0 0 0 0 0 0 0 0 0 0 0 0 0 0 0 0 0 0 0 0 0 0 0 0 0 0 0 0 0 0 0 0 0 0 0 0 0 0 0 0 0 0 0 0 0 0 0 0 0 0 0 0 0 0 0 0 0 0 0 0 0 0 0 0 0 0 0 0 0 0 0 0 0 0 0 0 0 0 0 0 0 0 0 0 0 0 0 0 0 0 0 0 0 0 0 0 0 0 0 0 0 0 
0 0 0 0 0 0 0 0 0 0 0 0 0 0 0 0 0 0 0 0 0 0 0 0 0 0 0 0 0 0 0 0 0 0 0 0 0 0 0 0 0 0 0 0 0 0 0 0 0 0 0 0 0 0 0 0 0 0 0 0 0 0 0 0 0 0 0 0 0 0 0 0 0 0 0 0 0 0 0 0 0 0 0 0 0 0 0 0 0 0 0 0 0 0 0 0 0 0 0 0 0 0 0 0 0 0 0 0 0 0 0 0 0 0 0 0 0 0 0 0 0 0 0 0 0 0 0 0 0 0 0 0 0 0 0 0 0 0 0 0 0 0 0 0 0 0 0 0 0 0 0 0 0 0 0 0 0 0 0 0 0 0 0 0 0 0 0 0 0 0 0 0 0 0 0 0 0 0 0 0 
0 0 0 0 0 0 0 0 0 0 0 0 0 0 0 0 0 0 0 0 0 0 0 0 0 0 0 0 0 0 0 0 0 0 0 0 0 0 0 0 0 0 0 0 0 0 0 0 0 0 0 0 0 0 0 0 0 0 0 0 0 0 0 0 0 0 0 0 0 0 0 0 0 0 0 0 0 0 0 0 0 0 0 0 0 0 0 0 0 0 0 0 0 0 0 0 0 0 0 0 0 0 0 0 0 0 0 0 0 0 0 0 0 0 0 0 0 0 0 0 0 0 0 0 0 0 0 0 0 0 0 0 0 0 0 0 0 0 0 0 0 0 0 0 0 0 0 0 0 0 0 0 0 0 0 0 0 0 0 0 0 0 0 0 0 0 0 0 0 0 0 0 0 0 0 0 0 0 0 0 
0 0 0 0 0 0 0 0 0 0 0 0 0 0 0 0 0 0 0 0 0 0 0 0 0 0 0 0 0 0 0 0 0 0 0 0 0 0 0 0 0 0 0 0 0 0 0 0 0 0 0 0 0 0 0 0 0 0 0 0 0 0 0 0 0 0 0 0 0 0 0 0 0 0 0 0 0 0 0 0 0 0 0 0 0 0 0 0 0 0 0 0 0 0 0 0 0 0 0 0 0 0 0 0 0 0 0 0 0 0 0 0 0 0 0 0 0 0 0 0 0 0 0 0 0 0 0 0 0 0 0 0 0 0 0 0 0 0 0 0 0 0 0 0 0 0 0 0 0 0 0 0 0 0 0 0 0 0 0 0 0 0 0 0 0 0 0 0 0 0 0 0 0 0 0 0 0 0 0 0 
0 0 0 0 0 0 0 0 0 0 0 0 0 0 0 0 0 0 0 0 0 0 0 0 0 0 0 0 0 0 0 0 0 0 0 0 0 0 0 0 0 0 0 0 0 0 0 0 0 0 0 0 0 0 0 0 0 0 0 0 0 0 0 0 0 0 0 0 0 0 0 0 0 0 0 0 0 0 0 0 0 0 0 0 0 0 0 0 0 0 0 0 0 0 0 0 0 0 0 0 0 0 0 0 0 0 0 0 0 0 0 0 0 0 0 0 0 0 0 0 0 0 0 0 0 0 0 0 0 0 0 0 0 0 0 0 0 0 0 0 0 0 0 0 0 0 0 0 0 0 0 0 0 0 0 0 0 0 0 0 0 0 0 0 0 0 0 0 0 0 0 0 0 0 0 0 0 0 0 0 
0 0 0 0 0 0 0 0 0 0 0 0 0 0 0 0 0 0 0 0 0 0 0 0 0 0 0 0 0 0 0 0 0 0 0 0 0 0 0 0 0 0 0 0 0 0 0 0 0 0 0 0 0 0 0 0 0 0 0 0 0 0 0 0 0 0 0 0 0 0 0 0 0 0 0 0 0 0 0 0 0 0 0 0 0 0 0 0 0 0 0 0 0 0 0 0 0 0 0 0 0 0 0 0 0 0 0 0 0 0 0 0 0 0 0 0 0 0 0 0 0 0 0 0 0 0 0 0 0 0 0 0 0 0 0 0 0 0 0 0 0 0 0 0 0 0 0 0 0 0 0 0 0 0 0 0 0 0 0 0 0 0 0 0 0 0 0 0 0 0 0 0 0 0 0 0 0 0 0 0 
0 0 0 0 0 0 0 0 0 0 0 0 0 0 0 0 0 0 0 0 0 0 0 0 0 0 0 0 0 0 0 0 0 0 0 0 0 0 0 0 0 0 0 0 0 0 0 0 0 0 0 0 0 0 0 0 0 0 0 0 0 0 0 0 0 0 0 0 0 0 0 0 0 0 0 0 0 0 0 0 0 0 0 0 0 0 0 0 0 0 0 0 0 0 0 0 0 0 0 0 0 0 0 0 0 0 0 0 0 0 0 0 0 0 0 0 0 0 0 0 0 0 0 0 0 0 0 0 0 0 0 0 0 0 0 0 0 0 0 0 0 0 0 0 0 0 0 0 0 0 0 0 0 0 0 0 0 0 0 0 0 0 0 0 0 0 0 0 0 0 0 0 0 0 0 0 0 0 0 0 
0 0 0 0 0 0 0 0 0 0 0 0 0 0 0 0 0 0 0 0 0 0 0 0 0 0 0 0 0 0 0 0 0 0 0 0 0 0 0 0 0 0 0 0 0 0 0 0 0 0 0 0 0 0 0 0 0 0 0 0 0 0 0 0 0 0 0 0 0 0 0 0 0 0 0 0 0 0 0 0 0 0 0 0 0 0 0 0 0 0 0 0 0 0 0 0 0 0 0 0 0 0 0 0 0 0 0 0 0 0 0 0 0 0 0 0 0 0 0 0 0 0 0 0 0 0 0 0 0 0 0 0 0 0 0 0 0 0 0 0 0 0 0 0 0 0 0 0 0 0 0 0 0 0 0 0 0 0 0 0 0 0 0 0 0 0 0 0 0 0 0 0 0 0 0 0 0 0 0 0 
0 0 0 0 0 0 0 0 0 0 0 0 0 0 0 0 0 0 0 0 0 0 0 0 0 0 0 0 0 0 0 0 0 0 0 0 0 0 0 0 0 0 0 0 0 0 0 0 0 0 0 0 0 0 0 0 0 0 0 0 0 0 0 0 0 0 0 0 0 0 0 0 0 0 0 0 0 0 0 0 0 0 0 0 0 0 0 0 0 0 0 0 0 0 0 0 0 0 0 0 0 0 0 0 0 0 0 0 0 0 0 0 0 0 0 0 0 0 0 0 0 0 0 0 0 0 0 0 0 0 0 0 0 0 0 0 0 0 0 0 0 0 0 0 0 0 0 0 0 0 0 0 0 0 0 0 0 0 0 0 0 0 0 0 0 0 0 0 0 0 0 0 0 0 0 0 0 0 0 0 
0 0 0 0 0 0 0 0 0 0 0 0 0 0 0 0 0 0 0 0 0 0 0 0 0 0 0 0 0 0 0 0 0 0 0 0 0 0 0 0 0 0 0 0 0 0 0 0 0 0 0 0 0 0 0 0 0 0 0 0 0 0 0 0 0 0 0 0 0 0 0 0 0 0 0 0 0 0 0 0 0 0 0 0 0 0 0 0 0 0 0 0 0 0 0 0 0 0 0 0 0 0 0 0 0 0 0 0 0 0 0 0 0 0 0 0 0 0 0 0 0 0 0 0 0 0 0 0 0 0 0 0 0 0 0 0 0 0 0 0 0 0 0 0 0 0 0 0 0 0 0 0 0 0 0 0 0 0 0 0 0 0 0 0 0 0 0 0 0 0 0 0 0 0 0 0 0 0 0 0 
0 0 0 0 0 0 0 0 0 0 0 0 0 0 0 0 0 0 0 0 0 0 0 0 0 0 0 0 0 0 802 0 0 1593 0 0 1628 0 0 1609 0 0 1634 0 0 1602 0 0 1640 0 0 1601 0 0 1627 0 0 1680 0 0 1581 0 0 1668 0 0 1611 0 0 1658 0 0 1642 0 0 1616 0 0 1566 0 0 1587 0 0 1669 0 0 1573 0 0 1614 0 0 1640 0 0 1650 0 0 1632 0 0 1574 0 0 1741 0 0 1617 0 0 1633 0 0 1552 0 0 1562 0 0 1660 0 0 1622 0 0 1620 0 0 1603 0 0 1665 0 0 1589 0 0 1587 0 0 1644 0 0 1604 0 0 1576 0 0 792 0 0 0 0 0 0 0 0 0 0 0 0 0 0 0 0 0 0 0 0 0 0 0 0 0 0 0 0 0 
0 0 0 0 0 0 0 0 0 0 0 0 0 0 0 0 0 0 0 0 0 0 0 0 0 0 0 0 0 0 1591 0 0 3185 0 0 3254 0 0 3230 0 0 3132 0 0 3083 0 0 3184 0 0 3170 0 0 3282 0 0 3230 0 0 3238 0 0 3179 0 0 3274 0 0 3280 0 0 3266 0 0 3249 0 0 3276 0 0 3183 0 0 3192 0 0 3137 0 0 3158 0 0 3345 0 0 3258 0 0 3181 0 0 3237 0 0 3314 0 0 3216 0 0 3260 0 0 3216 0 0 3147 0 0 3208 0 0 3197 0 0 3257 0 0 3110 0 0 3223 0 0 3343 0 0 3188 0 0 3191 0 0 3281 0 0 3266 0 0 1571 0 0 0 0 0 0 0 0 0 0 0 0 0 0 0 0 0 0 0 0 0 0 0 0 0 0 0 0 0 
0 0 0 0 0 0 0 0 0 0 0 0 0 0 0 0 0 0 0 0 0 0 0 0 0 0 0 0 0 0 1577 0 0 3223 0 0 3181 0 0 3237 0 0 3162 0 0 3283 0 0 3178 0 0 3260 0 0 3256 0 0 3299 0 0 3241 0 0 3167 0 0 3339 0 0 3292 0 0 3219 0 0 3182 0 0 3261 0 0 3143 0 0 3138 0 0 3223 0 0 3229 0 0 3234 0 0 3302 0 0 3174 0 0 3216 0 0 3271 0 0 3281 0 0 3207 0 0 3206 0 0 3209 0 0 3242 0 0 3242 0 0 3239 0 0 3322 0 0 3313 0 0 3257 0 0 3322 0 0 3210 0 0 3164 0 0 3251 0 0 1584 0 0 0 0 0 0 0 0 0 0 0 0 0 0 0 0 0 0 0 0 0 0 0 0 0 0 0 0 0 
0 0 0 0 0 0 0 0 0 0 0 0 0 0 0 0 0 0 0 0 0 0 0 0 0 0 0 0 0 0 1641 0 0 3303 0 0 3336 0 0 3305 0 0 3164 0 0 3285 0 0 3210 0 0 3196 0 0 3171 0 0 3267 0 0 3298 0 0 3127 0 0 3252 0 0 3125 0 0 3234 0 0 3203 0 0 3285 0 0 3184 0 0 3205 0 0 3160 0 0 3148 0 0 3228 0 0 3152 0 0 3249 0 0 3336 0 0 3219 0 0 3242 0 0 3238 0 0 3162 0 0 3336 0 0 3258 0 0 3304 0 0 3231 0 0 3211 0 0 3345 0 0 3222 0 0 3244 0 0 3166 0 0 3244 0 0 3260 0 0 1639 0 0 0 0 0 0 0 0 0 0 0 0 0 0 0 0 0 0 0 0 0 0 0 0 0 0 0 0 0 
0 0 0 0 0 0 0 0 0 0 0 0 0 0 0 0 0 0 0 0 0 0 0 0 0 0 0 0 0 0 1659 0 0 3301 0 0 3268 0 0 3170 0 0 3205 0 0 3306 0 0 3193 0 0 3263 0 0 3261 0 0 3323 0 0 3237 0 0 3181 0 0 3257 0 0 3215 0 0 3242 0 0 3108 0 0 3224 0 0 3259 0 0 3194 0 0 3250 0 0 3249 0 0 3229 0 0 3222 0 0 3148 0 0 3310 0 0 3221 0 0 3274 0 0 3216 0 0 3256 0 0 3152 0 0 3294 0 0 3247 0 0 3084 0 0 3268 0 0 3175 0 0 3202 0 0 3132 0 0 3199 0 0 3255 0 0 3194 0 0 1621 0 0 0 0 0 0 0 0 0 0 0 0 0 0 0 0 0 0 0 0 0 0 0 0 0 0 0 0 0 
0 0 0 0 0 0 0 0 0 0 0 0 0 0 0 0 0 0 0 0 0 0 0 0 0 0 0 0 0 0 1593 0 0 3312 0 0 3308 0 0 3287 0 0 3228 0 0 3267 0 0 3254 0 0 3171 0 0 3250 0 0 3246 0 0 3233 0 0 3221 0 0 3214 0 0 3170 0 0 3278 0 0 3272 0 0 3254 0 0 3245 0 0 3249 0 0 3269 0 0 3184 0 0 3206 0 0 3213 0 0 3341 0 0 3215 0 0 3168 0 0 3258 0 0 3180 0 0 3199 0 0 3183 0 0 3064 0 0 3211 0 0 3322 0 0 3152 0 0 3256 0 0 3282 0 0 3149 0 0 3207 0 0 3142 0 0 3275 0 0 1616 0 0 0 0 0 0 0 0 0 0 0 0 0 0 0 0 0 0 0 0 0 0 0 0 0 0 0 0 0 
0 0 0 0 0 0 0 0 0 0 0 0 0 0 0 0 0 0 0 0 0 0 0 0 0 0 0 0 0 0 1653 0 0 3197 0 0 3176 0 0 3201 0 0 3280 0 0 3187 0 0 3356 0 0 3340 0 0 3226 0 0 3216 0 0 3336 0 0 3288 0 0 3202 0 0 3326 0 0 3205 0 0 3306 0 0 3198 0 0 3180 0 0 3218 0 0 3269 0 0 3235 0 0 3133 0 0 3178 0 0 3227 0 0 3176 0 0 3240 0 0 3210 0 0 3234 0 0 3248 0 0 3207 0 0 3293 0 0 3310 0 0 3350 0 0 3207 0 0 3134 0 0 3218 0 0 3290 0 0 3286 0 0 3216 0 0 3217 0 0 1570 0 0 0 0 0 0 0 0 0 0 0 0 0 0 0 0 0 0 0 0 0 0 0 0 0 0 0 0 0 
0 0 0 0 0 0 0 0 0 0 0 0 0 0 0 0 0 0 0 0 0 0 0 0 0 0 0 0 0 0 1607 0 0 3149 0 0 3301 0 0 3204 0 0 3241 0 0 3268 0 0 3308 0 0 3139 0 0 3271 0 0 3233 0 0 3153 0 0 3315 0 0 3256 0 0 3234 0 0 3251 0 0 3202 0 0 3253 0 0 3156 0 0 3268 0 0 3317 0 0 3203 0 0 3311 0 0 3246 0 0 3167 0 0 3169 0 0 3214 0 0 3272 0 0 3326 0 0 3199 0 0 3149 0 0 3311 0 0 3247 0 0 3303 0 0 3268 0 0 3178 0 0 3287 0 0 3232 0 0 3156 0 0 3316 0 0 3212 0 0 1601 0 0 0 0 0 0 0 0 0 0 0 0 0 0 0 0 0 0 0 0 0 0 0 0 0 0 0 0 0 
0 0 0 0 0 0 0 0 0 0 0 0 0 0 0 0 0 0 0 0 0 0 0 0 0 0 0 0 0 0 1610 0 0 3177 0 0 3223 0 0 3170 0 0 3193 0 0 3227 0 0 3182 0 0 3191 0 0 3207 0 0 3217 0 0 3170 0 0 3145 0 0 3279 0 0 3330 0 0 3193 0 0 3268 0 0 3164 0 0 3225 0 0 3196 0 0 3248 0 0 3198 0 0 3253 0 0 3171 0 0 3236 0 0 3248 0 0 3159 0 0 3262 0 0 3267 0 0 3130 0 0 3225 0 0 3213 0 0 3250 0 0 3216 0 0 3175 0 0 3275 0 0 3270 0 0 3197 0 0 3162 0 0 3197 0 0 3320 0 0 1596 0 0 0 0 0 0 0 0 0 0 0 0 0 0 0 0 0 0 0 0 0 0 0 0 0 0 0 0 0 
0 0 0 0 0 0 0 0 0 0 0 0 0 0 0 0 0 0 0 0 0 0 0 0 0 0 0 0 0 0 1656 0 0 3157 0 0 3163 0 0 3206 0 0 3308 0 0 3247 0 0 3279 0 0 3281 0 0 3260 0 0 3170 0 0 3245 0 0 3257 0 0 3199 0 0 3333 0 0 3107 0 0 3178 0 0 3224 0 0 3226 0 0 3220 0 0 3249 0 0 3178 0 0 3131 0 0 3311 0 0 3240 0 0 3322 0 0 3250 0 0 3282 0 0 3204 0 0 3163 0 0 3168 0 0 3246 0 0 3287 0 0 3098 0 0 3144 0 0 3210 0 0 3305 0 0 3205 0 0 3283 0 0 3250 0 0 3248 0 0 1606 0 0 0 0 0 0 0 0 0 0 0 0 0 0 0 0 0 0 0 0 0 0 0 0 0 0 0 0 0 
0 0 0 0 0 0 0 0 0 0 0 0 0 0 0 0 0 0 0 0 0 0 0 0 0 0 0 0 0 0 1622 0 0 3191 0 0 3235 0 0 3124 0 0 3199 0 0 3163 0 0 3234 0 0 3217 0 0 3216 0 0 3256 0 0 3251 0 0 3249 0 0 3255 0 0 3202 0 0 3291 0 0 3238 0 0 3240 0 0 3150 0 0 3273 0 0 3136 0 0 3226 0 0 3277 0 0 3284 0 0 3212 0 0 3185 0 0 3306 0 0 3339 0 0 3101 0 0 3230 0 0 3287 0 0 3257 0 0 3340 0 0 3249 0 0 3170 0 0 3187 0 0 3274 0 0 3189 0 0 3237 0 0 3420 0 0 3256 0 0 1615 0 0 0 0 0 0 0 0 0 0 0 0 0 0 0 0 0 0 0 0 0 0 0 0 0 0 0 0 0 
0 0 0 0 0 0 0 0 0 0 0 0 0 0 0 0 0 0 0 0 0 0 0 0 0 0 0 0 0 0 1602 0 0 3224 0 0 3206 0 0 3239 0 0 3138 0 0 3164 0 0 3282 0 0 3105 0 0 3283 0 0 3183 0 0 3098 0 0 3262 0 0 3169 0 0 3258 0 0 3156 0 0 3286 0 0 3212 0 0 3206 0 0 3288 0 0 3152 0 0 3240 0 0 3247 0 0 3164 0 0 3192 0 0 3250 0 0 3276 0 0 3281 0 0 3297 0 0 3227 0 0 3219 0 0 3309 0 0 3221 0 0 3170 0 0 3223 0 0 3265 0 0 3238 0 0 3285 0 0 3245 0 0 3243 0 0 3312 0 0 1640 0 0 0 0 0 0 0 0 0 0 0 0 0 0 0 0 0 0 0 0 0 0 0 0 0 0 0 0 0 
0 0 0 0 0 0 0 0 0 0 0 0 0 0 0 0 0 0 0 0 0 0 0 0 0 0 0 0 0 0 1589 0 0 3360 0 0 3222 0 0 3216 0 0 3365 0 0 3240 0 0 3359 0 0 3193 0 0 3174 0 0 3431 0 0 3179 0 0 3217 0 0 3174 0 0 3232 0 0 3174 0 0 3215 0 0 3239 0 0 3209 0 0 3270 0 0 3207 0 0 3325 0 0 3311 0 0 3282 0 0 3111 0 0 3235 0 0 3274 0 0 3212 0 0 3249 0 0 3288 0 0 3184 0 0 3272 0 0 3346 0 0 3266 0 0 3184 0 0 3269 0 0 3235 0 0 3300 0 0 3230 0 0 3188 0 0 3237 0 0 1569 0 0 0 0 0 0 0 0 0 0 0 0 0 0 0 0 0 0 0 0 0 0 0 0 0 0 0 0 0 
0 0 0 0 0 0 0 0 0 0 0 0 0 0 0 0 0 0 0 0 0 0 0 0 0 0 0 0 0 0 1638 0 0 3114 0 0 3224 0 0 3203 0 0 3213 0 0 3269 0 0 3223 0 0 3183 0 0 3206 0 0 3237 0 0 3297 0 0 3330 0 0 3183 0 0 3279 0 0 3278 0 0 3258 0 0 3240 0 0 3213 0 0 3181 0 0 3319 0 0 3203 0 0 3172 0 0 3260 0 0 3264 0 0 3135 0 0 3307 0 0 3174 0 0 3151 0 0 3224 0 0 3251 0 0 3266 0 0 3242 0 0 3217 0 0 3246 0 0 3274 0 0 3235 0 0 3197 0 0 3178 0 0 3222 0 0 3235 0 0 1572 0 0 0 0 0 0 0 0 0 0 0 0 0 0 0 0 0 0 0 0 0 0 0 0 0 0 0 0 0 
0 0 0 0 0 0 0 0 0 0 0 0 0 0 0 0 0 0 0 0 0 0 0 0 0 0 0 0 0 0 1651 0 0 3169 0 0 3277 0 0 3294 0 0 3265 0 0 3236 0 0 3237 0 0 3219 0 0 3369 0 0 3372 0 0 3184 0 0 3182 0 0 3304 0 0 3377 0 0 3187 0 0 3195 0 0 3248 0 0 3166 0 0 3262 0 0 3241 0 0 3292 0 0 3256 0 0 3158 0 0 3215 0 0 3314 0 0 3223 0 0 3382 0 0 3292 0 0 3188 0 0 3194 0 0 3177 0 0 3304 0 0 3208 0 0 3209 0 0 3069 0 0 3203 0 0 3215 0 0 3128 0 0 3064 0 0 3240 0 0 1653 0 0 0 0 0 0 0 0 0 0 0 0 0 0 0 0 0 0 0 0 0 0 0 0 0 0 0 0 0 
0 0 0 0 0 0 0 0 0 0 0 0 0 0 0 0 0 0 0 0 0 0 0 0 0 0 0 0 0 0 1570 0 0 3182 0 0 3239 0 0 3284 0 0 3224 0 0 3233 0 0 3198 0 0 3192 0 0 3237 0 0 3173 0 0 3292 0 0 3192 0 0 3202 0 0 3140 0 0 3296 0 0 3208 0 0 3288 0 0 3276 0 0 3191 0 0 3201 0 0 3247 0 0 3235 0 0 3160 0 0 3212 0 0 3251 0 0 3272 0 0 3091 0 0 3174 0 0 3269 0 0 3210 0 0 3288 0 0 3212 0 0 3267 0 0 3170 0 0 3195 0 0 3290 0 0 3210 0 0 3201 0 0 3336 0 0 3190 0 0 1639 0 0 0 0 0 0 0 0 0 0 0 0 0 0 0 0 0 0 0 0 0 0 0 0 0 0 0 0 0 
0 0 0 0 0 0 0 0 0 0 0 0 0 0 0 0 0 0 0 0 0 0 0 0 0 0 0 0 0 0 1672 0 0 3249 0 0 3279 0 0 3221 0 0 3201 0 0 3271 0 0 3276 0 0 3212 0 0 3291 0 0 3203 0 0 3228 0 0 3220 0 0 3323 0 0 3190 0 0 3297 0 0 3234 0 0 3217 0 0 3129 0 0 3219 0 0 3289 0 0 3270 0 0 3261 0 0 3207 0 0 3186 0 0 3219 0 0 3216 0 0 3245 0 0 3266 0 0 3228 0 0 3156 0 0 3212 0 0 3177 0 0 3181 0 0 3184 0 0 3185 0 0 3180 0 0 3241 0 0 3214 0 0 3214 0 0 3230 0 0 1525 0 0 0 0 0 0 0 0 0 0 0 0 0 0 0 0 0 0 0 0 0 0 0 0 0 0 0 0 0 
0 0 0 0 0 0 0 0 0 0 0 0 0 0 0 0 0 0 0 0 0 0 0 0 0 0 0 0 0 0 1654 0 0 3245 0 0 3366 0 0 3250 0 0 3154 0 0 3244 0 0 3229 0 0 3160 0 0 3228 0 0 3284 0 0 3313 0 0 3227 0 0 3251 0 0 3275 0 0 3346 0 0 3226 0 0 3273 0 0 3329 0 0 3166 0 0 3264 0 0 3260 0 0 3170 0 0 3279 0 0 3278 0 0 3193 0 0 3261 0 0 3138 0 0 3216 0 0 3228 0 0 3220 0 0 3299 0 0 3240 0 0 3150 0 0 3162 0 0 3201 0 0 3160 0 0 3176 0 0 3221 0 0 3269 0 0 3114 0 0 1673 0 0 0 0 0 0 0 0 0 0 0 0 0 0 0 0 0 0 0 0 0 0 0 0 0 0 0 0 0 
0 0 0 0 0 0 0 0 0 0 0 0 0 0 0 0 0 0 0 0 0 0 0 0 0 0 0 0 0 0 1587 0 0 3243 0 0 3398 0 0 3286 0 0 3222 0 0 3328 0 0 3218 0 0 3281 0 0 3301 0 0 3313 0 0 3316 0 0 3172 0 0 3263 0 0 3307 0 0 3303 0 0 3224 0 0 3213 0 0 3200 0 0 3223 0 0 3261 0 0 3298 0 0 3208 0 0 3277 0 0 3290 0 0 3284 0 0 3167 0 0 3171 0 0 3212 0 0 3213 0 0 3297 0 0 3191 0 0 3221 0 0 3251 0 0 3269 0 0 3159 0 0 3226 0 0 3196 0 0 3103 0 0 3309 0 0 3259 0 0 1624 0 0 0 0 0 0 0 0 0 0 0 0 0 0 0 0 0 0 0 0 0 0 0 0 0 0 0 0 0 
0 0 0 0 0 0 0 0 0 0 0 0 0 0 0 0 0 0 0 0 0 0 0 0 0 0 0 0 0 0 1740 0 0 3175 0 0 3056 0 0 3288 0 0 3136 0 0 3174 0 0 3214 0 0 3228 0 0 3436 0 0 3332 0 0 3181 0 0 3243 0 0 3134 0 0 3224 0 0 3191 0 0 3299 0 0 3125 0 0 3257 0 0 3209 0 0 3214 0 0 3210 0 0 3166 0 0 3209 0 0 3305 0 0 3204 0 0 3311 0 0 3337 0 0 3239 0 0 3192 0 0 3235 0 0 3218 0 0 3309 0 0 3261 0 0 3250 0 0 3251 0 0 3274 0 0 3196 0 0 3242 0 0 3212 0 0 3220 0 0 1586 0 0 0 0 0 0 0 0 0 0 0 0 0 0 0 0 0 0 0 0 0 0 0 0 0 0 0 0 0 
0 0 0 0 0 0 0 0 0 0 0 0 0 0 0 0 0 0 0 0 0 0 0 0 0 0 0 0 0 0 1689 0 0 3250 0 0 3252 0 0 3254 0 0 3264 0 0 3314 0 0 3159 0 0 3205 0 0 3183 0 0 3301 0 0 3263 0 0 3214 0 0 3322 0 0 3169 0 0 3218 0 0 3245 0 0 3281 0 0 3164 0 0 3157 0 0 3311 0 0 3245 0 0 3149 0 0 3131 0 0 3261 0 0 3216 0 0 3243 0 0 3242 0 0 3180 0 0 3227 0 0 3172 0 0 3219 0 0 3248 0 0 3280 0 0 3236 0 0 3257 0 0 3203 0 0 3263 0 0 3182 0 0 3256 0 0 3278 0 0 1610 0 0 0 0 0 0 0 0 0 0 0 0 0 0 0 0 0 0 0 0 0 0 0 0 0 0 0 0 0 
0 0 0 0 0 0 0 0 0 0 0 0 0 0 0 0 0 0 0 0 0 0 0 0 0 0 0 0 0 0 1667 0 0 3277 0 0 3287 0 0 3260 0 0 3332 0 0 3273 0 0 3204 0 0 3176 0 0 3185 0 0 3263 0 0 3183 0 0 3155 0 0 3338 0 0 3293 0 0 3290 0 0 3110 0 0 3272 0 0 3188 0 0 3133 0 0 3203 0 0 3194 0 0 3136 0 0 3216 0 0 3236 0 0 3325 0 0 3198 0 0 3161 0 0 3173 0 0 3214 0 0 3316 0 0 3244 0 0 3294 0 0 3193 0 0 3301 0 0 3146 0 0 3270 0 0 3217 0 0 3229 0 0 3283 0 0 3174 0 0 1607 0 0 0 0 0 0 0 0 0 0 0 0 0 0 0 0 0 0 0 0 0 0 0 0 0 0 0 0 0 
0 0 0 0 0 0 0 0 0 0 0 0 0 0 0 0 0 0 0 0 0 0 0 0 0 0 0 0 0 0 1662 0 0 3312 0 0 3265 0 0 3302 0 0 3265 0 0 3170 0 0 3195 0 0 3287 0 0 3214 0 0 3222 0 0 3173 0 0 3192 0 0 3383 0 0 3189 0 0 3220 0 0 3328 0 0 3165 0 0 3190 0 0 3157 0 0 3261 0 0 3282 0 0 3326 0 0 3193 0 0 3147 0 0 3126 0 0 3232 0 0 3253 0 0 3331 0 0 3252 0 0 3328 0 0 3222 0 0 3226 0 0 3276 0 0 3215 0 0 3264 0 0 3204 0 0 3137 0 0 3207 0 0 3304 0 0 3208 0 0 1621 0 0 0 0 0 0 0 0 0 0 0 0 0 0 0 0 0 0 0 0 0 0 0 0 0 0 0 0 0 
0 0 0 0 0 0 0 0 0 0 0 0 0 0 0 0 0 0 0 0 0 0 0 0 0 0 0 0 0 0 1648 0 0 3157 0 0 3195 0 0 3181 0 0 3331 0 0 3262 0 0 3119 0 0 3204 0 0 3296 0 0 3336 0 0 3273 0 0 3223 0 0 3182 0 0 3181 0 0 3210 0 0 3331 0 0 3238 0 0 3257 0 0 3196 0 0 3226 0 0 3254 0 0 3168 0 0 3309 0 0 3262 0 0 3254 0 0 3276 0 0 3248 0 0 3213 0 0 3194 0 0 3253 0 0 3177 0 0 3255 0 0 3156 0 0 3127 0 0 3202 0 0 3230 0 0 3301 0 0 3253 0 0 3244 0 0 3310 0 0 1609 0 0 0 0 0 0 0 0 0 0 0 0 0 0 0 0 0 0 0 0 0 0 0 0 0 0 0 0 0 
0 0 0 0 0 0 0 0 0 0 0 0 0 0 0 0 0 0 0 0 0 0 0 0 0 0 0 0 0 0 1648 0 0 3299 0 0 3205 0 0 3188 0 0 3258 0 0 3301 0 0 3217 0 0 3217 0 0 3225 0 0 3318 0 0 3251 0 0 3431 0 0 3295 0 0 3238 0 0 3218 0 0 3304 0 0 3259 0 0 3166 0 0 3191 0 0 3307 0 0 3175 0 0 3298 0 0 3325 0 0 3090 0 0 3136 0 0 3208 0 0 3143 0 0 3232 0 0 3243 0 0 3253 0 0 3274 0 0 3200 0 0 3281 0 0 3241 0 0 3217 0 0 3202 0 0 3225 0 0 3312 0 0 3193 0 0 3240 0 0 1676 0 0 0 0 0 0 0 0 0 0 0 0 0 0 0 0 0 0 0 0 0 0 0 0 0 0 0 0 0 
0 0 0 0 0 0 0 0 0 0 0 0 0 0 0 0 0 0 0 0 0 0 0 0 0 0 0 0 0 0 1582 0 0 3250 0 0 3191 0 0 3243 0 0 3359 0 0 3157 0 0 3283 0 0 3298 0 0 3208 0 0 3256 0 0 3202 0 0 3203 0 0 3272 0 0 3262 0 0 3236 0 0 3298 0 0 3181 0 0 3254 0 0 3194 0 0 3234 0 0 3232 0 0 3203 0 0 3132 0 0 3244 0 0 3193 0 0 3140 0 0 3184 0 0 3284 0 0 3213 0 0 3246 0 0 3215 0 0 3227 0 0 3250 0 0 3321 0 0 3259 0 0 3265 0 0 3260 0 0 3284 0 0 3259 0 0 3223 0 0 1594 0 0 0 0 0 0 0 0 0 0 0 0 0 0 0 0 0 0 0 0 0 0 0 0 0 0 0 0 0 
0 0 0 0 0 0 0 0 0 0 0 0 0 0 0 0 0 0 0 0 0 0 0 0 0 0 0 0 0 0 1607 0 0 3268 0 0 3277 0 0 3218 0 0 3211 0 0 3258 0 0 3238 0 0 3220 0 0 3296 0 0 3282 0 0 3157 0 0 3203 0 0 3218 0 0 3283 0 0 3267 0 0 3262 0 0 3290 0 0 3286 0 0 3189 0 0 3125 0 0 3184 0 0 3282 0 0 3195 0 0 3274 0 0 3148 0 0 3213 0 0 3188 0 0 3240 0 0 3280 0 0 3109 0 0 3205 0 0 3261 0 0 3104 0 0 3275 0 0 3341 0 0 3249 0 0 3233 0 0 3234 0 0 3192 0 0 3201 0 0 1713 0 0 0 0 0 0 0 0 0 0 0 0 0 0 0 0 0 0 0 0 0 0 0 0 0 0 0 0 0 
0 0 0 0 0 0 0 0 0 0 0 0 0 0 0 0 0 0 0 0 0 0 0 0 0 0 0 0 0 0 1603 0 0 3190 0 0 3132 0 0 3364 0 0 3250 0 0 3070 0 0 3172 0 0 3257 0 0 3200 0 0 3279 0 0 3266 0 0 3333 0 0 3260 0 0 3199 0 0 3252 0 0 3256 0 0 3117 0 0 3249 0 0 3291 0 0 3265 0 0 3279 0 0 3287 0 0 3227 0 0 3198 0 0 3297 0 0 3153 0 0 3294 0 0 3243 0 0 3208 0 0 3259 0 0 3215 0 0 3274 0 0 3215 0 0 3126 0 0 3196 0 0 3207 0 0 3205 0 0 3259 0 0 3250 0 0 3302 0 0 1663 0 0 0 0 0 0 0 0 0 0 0 0 0 0 0 0 0 0 0 0 0 0 0 0 0 0 0 0 0 
0 0 0 0 0 0 0 0 0 0 0 0 0 0 0 0 0 0 0 0 0 0 0 0 0 0 0 0 0 0 1605 0 0 3173 0 0 3130 0 0 3164 0 0 3251 0 0 3267 0 0 3199 0 0 3216 0 0 3292 0 0 3274 0 0 3221 0 0 3208 0 0 3216 0 0 3261 0 0 3132 0 0 3246 0 0 3145 0 0 3243 0 0 3179 0 0 3175 0 0 3353 0 0 3160 0 0 3238 0 0 3233 0 0 3220 0 0 3253 0 0 3164 0 0 3165 0 0 3227 0 0 3232 0 0 3354 0 0 3313 0 0 3198 0 0 3245 0 0 3235 0 0 3322 0 0 3239 0 0 3129 0 0 3271 0 0 3261 0 0 1603 0 0 0 0 0 0 0 0 0 0 0 0 0 0 0 0 0 0 0 0 0 0 0 0 0 0 0 0 0 
0 0 0 0 0 0 0 0 0 0 0 0 0 0 0 0 0 0 0 0 0 0 0 0 0 0 0 0 0 0 1674 0 0 3218 0 0 3304 0 0 3321 0 0 3177 0 0 3184 0 0 3256 0 0 3155 0 0 3225 0 0 3170 0 0 3217 0 0 3307 0 0 3270 0 0 3145 0 0 3290 0 0 3186 0 0 3137 0 0 3227 0 0 3181 0 0 3142 0 0 3228 0 0 3268 0 0 3241 0 0 3200 0 0 3219 0 0 3228 0 0 3271 0 0 3313 0 0 3317 0 0 3298 0 0 3118 0 0 3346 0 0 3108 0 0 3263 0 0 3239 0 0 3283 0 0 3289 0 0 3243 0 0 3183 0 0 3260 0 0 1570 0 0 0 0 0 0 0 0 0 0 0 0 0 0 0 0 0 0 0 0 0 0 0 0 0 0 0 0 0 
0 0 0 0 0 0 0 0 0 0 0 0 0 0 0 0 0 0 0 0 0 0 0 0 0 0 0 0 0 0 1689 0 0 3185 0 0 3284 0 0 3319 0 0 3182 0 0 3189 0 0 3185 0 0 3193 0 0 3257 0 0 3295 0 0 3239 0 0 3146 0 0 3214 0 0 3187 0 0 3310 0 0 3121 0 0 3238 0 0 3188 0 0 3221 0 0 3213 0 0 3176 0 0 3238 0 0 3098 0 0 3333 0 0 3202 0 0 3242 0 0 3273 0 0 3262 0 0 3347 0 0 3194 0 0 3239 0 0 3199 0 0 3320 0 0 3180 0 0 3233 0 0 3227 0 0 3221 0 0 3306 0 0 3229 0 0 3282 0 0 1661 0 0 0 0 0 0 0 0 0 0 0 0 0 0 0 0 0 0 0 0 0 0 0 0 0 0 0 0 0 
0 0 0 0 0 0 0 0 0 0 0 0 0 0 0 0 0 0 0 0 0 0 0 0 0 0 0 0 0 0 1544 0 0 3220 0 0 3242 0 0 3174 0 0 3244 0 0 3250 0 0 3207 0 0 3267 0 0 3294 0 0 3257 0 0 3202 0 0 3184 0 0 3260 0 0 3236 0 0 3168 0 0 3239 0 0 3134 0 0 3277 0 0 3089 0 0 3199 0 0 3223 0 0 3152 0 0 3097 0 0 3115 0 0 3294 0 0 3224 0 0 3216 0 0 3253 0 0 3219 0 0 3232 0 0 3259 0 0 3232 0 0 3281 0 0 3255 0 0 3204 0 0 3165 0 0 3251 0 0 3227 0 0 3249 0 0 3282 0 0 1511 0 0 0 0 0 0 0 0 0 0 0 0 0 0 0 0 0 0 0 0 0 0 0 0 0 0 0 0 0 
0 0 0 0 0 0 0 0 0 0 0 0 0 0 0 0 0 0 0 0 0 0 0 0 0 0 0 0 0 0 1647 0 0 3302 0 0 3147 0 0 3229 0 0 3154 0 0 3310 0 0 3254 0 0 3202 0 0 3268 0 0 3280 0 0 3111 0 0 3240 0 0 3139 0 0 3205 0 0 3302 0 0 3280 0 0 3227 0 0 3223 0 0 3084 0 0 3213 0 0 3285 0 0 3109 0 0 3198 0 0 3135 0 0 3197 0 0 3279 0 0 3156 0 0 3224 0 0 3182 0 0 3200 0 0 3278 0 0 3151 0 0 3187 0 0 3266 0 0 3174 0 0 3319 0 0 3250 0 0 3141 0 0 3272 0 0 3198 0 0 1655 0 0 0 0 0 0 0 0 0 0 0 0 0 0 0 0 0 0 0 0 0 0 0 0 0 0 0 0 0 
0 0 0 0 0 0 0 0 0 0 0 0 0 0 0 0 0 0 0 0 0 0 0 0 0 0 0 0 0 0 1635 0 0 3235 0 0 3265 0 0 3185 0 0 3129 0 0 3180 0 0 3191 0 0 3336 0 0 3259 0 0 3161 0 0 3258 0 0 3277 0 0 3246 0 0 3227 0 0 3226 0 0 3226 0 0 3217 0 0 3287 0 0 3276 0 0 3307 0 0 3209 0 0 3257 0 0 3206 0 0 3273 0 0 3306 0 0 3256 0 0 3219 0 0 3273 0 0 3332 0 0 3128 0 0 3181 0 0 3178 0 0 3225 0 0 3338 0 0 3221 0 0 3294 0 0 3305 0 0 3221 0 0 3150 0 0 3180 0 0 1595 0 0 0 0 0 0 0 0 0 0 0 0 0 0 0 0 0 0 0 0 0 0 0 0 0 0 0 0 0 
0 0 0 0 0 0 0 0 0 0 0 0 0 0 0 0 0 0 0 0 0 0 0 0 0 0 0 0 0 0 1611 0 0 3294 0 0 3399 0 0 3317 0 0 3251 0 0 3240 0 0 3189 0 0 3144 0 0 3366 0 0 3205 0 0 3339 0 0 3301 0 0 3185 0 0 3222 0 0 3167 0 0 3331 0 0 3154 0 0 3286 0 0 3240 0 0 3191 0 0 3223 0 0 3248 0 0 3314 0 0 3300 0 0 3158 0 0 3212 0 0 3163 0 0 3174 0 0 3302 0 0 3170 0 0 3222 0 0 3297 0 0 3204 0 0 3300 0 0 3213 0 0 3214 0 0 3283 0 0 3257 0 0 3234 0 0 3234 0 0 1642 0 0 0 0 0 0 0 0 0 0 0 0 0 0 0 0 0 0 0 0 0 0 0 0 0 0 0 0 0 
0 0 0 0 0 0 0 0 0 0 0 0 0 0 0 0 0 0 0 0 0 0 0 0 0 0 0 0 0 0 1575 0 0 3256 0 0 3235 0 0 3259 0 0 3211 0 0 3286 0 0 3359 0 0 3190 0 0 3225 0 0 3311 0 0 3226 0 0 3292 0 0 3202 0 0 3164 0 0 3196 0 0 3167 0 0 3213 0 0 3284 0 0 3198 0 0 3197 0 0 3161 0 0 3193 0 0 3184 0 0 3280 0 0 3270 0 0 3268 0 0 3216 0 0 3262 0 0 3154 0 0 3287 0 0 3165 0 0 3344 0 0 3149 0 0 3231 0 0 3222 0 0 3204 0 0 3211 0 0 3175 0 0 3201 0 0 3236 0 0 1583 0 0 0 0 0 0 0 0 0 0 0 0 0 0 0 0 0 0 0 0 0 0 0 0 0 0 0 0 0 
0 0 0 0 0 0 0 0 0 0 0 0 0 0 0 0 0 0 0 0 0 0 0 0 0 0 0 0 0 0 1615 0 0 3192 0 0 3209 0 0 3281 0 0 3219 0 0 3194 0 0 3169 0 0 3314 0 0 3334 0 0 3214 0 0 3193 0 0 3247 0 0 3279 0 0 3191 0 0 3272 0 0 3173 0 0 3380 0 0 3269 0 0 3320 0 0 3270 0 0 3148 0 0 3238 0 0 3149 0 0 3291 0 0 3210 0 0 3166 0 0 3303 0 0 3194 0 0 3147 0 0 3223 0 0 3239 0 0 3196 0 0 3117 0 0 3161 0 0 3264 0 0 3267 0 0 3243 0 0 3196 0 0 3207 0 0 3148 0 0 1694 0 0 0 0 0 0 0 0 0 0 0 0 0 0 0 0 0 0 0 0 0 0 0 0 0 0 0 0 0 
0 0 0 0 0 0 0 0 0 0 0 0 0 0 0 0 0 0 0 0 0 0 0 0 0 0 0 0 0 0 1603 0 0 3219 0 0 3256 0 0 3239 0 0 3161 0 0 3231 0 0 3267 0 0 3176 0 0 3294 0 0 3163 0 0 3252 0 0 3239 0 0 3146 0 0 3286 0 0 3273 0 0 3194 0 0 3217 0 0 3363 0 0 3242 0 0 3226 0 0 3269 0 0 3209 0 0 3174 0 0 3175 0 0 3193 0 0 3285 0 0 3255 0 0 3268 0 0 3221 0 0 3156 0 0 3210 0 0 3262 0 0 3208 0 0 3170 0 0 3153 0 0 3247 0 0 3198 0 0 3207 0 0 3230 0 0 3299 0 0 1637 0 0 0 0 0 0 0 0 0 0 0 0 0 0 0 0 0 0 0 0 0 0 0 0 0 0 0 0 0 
0 0 0 0 0 0 0 0 0 0 0 0 0 0 0 0 0 0 0 0 0 0 0 0 0 0 0 0 0 0 1638 0 0 3247 0 0 3154 0 0 3319 0 0 3120 0 0 3239 0 0 3239 0 0 3188 0 0 3335 0 0 3294 0 0 3293 0 0 3214 0 0 3281 0 0 3167 0 0 3321 0 0 3400 0 0 3306 0 0 3299 0 0 3245 0 0 3214 0 0 3195 0 0 3201 0 0 3215 0 0 3224 0 0 3221 0 0 3193 0 0 3297 0 0 3221 0 0 3244 0 0 3191 0 0 3202 0 0 3292 0 0 3214 0 0 3313 0 0 3196 0 0 3244 0 0 3213 0 0 3261 0 0 3244 0 0 3304 0 0 1622 0 0 0 0 0 0 0 0 0 0 0 0 0 0 0 0 0 0 0 0 0 0 0 0 0 0 0 0 0 
0 0 0 0 0 0 0 0 0 0 0 0 0 0 0 0 0 0 0 0 0 0 0 0 0 0 0 0 0 0 1605 0 0 3285 0 0 3212 0 0 3320 0 0 3215 0 0 3176 0 0 3168 0 0 3143 0 0 3254 0 0 3244 0 0 3209 0 0 3218 0 0 3200 0 0 3155 0 0 3275 0 0 3220 0 0 3150 0 0 3290 0 0 3251 0 0 3280 0 0 3175 0 0 3291 0 0 3167 0 0 3261 0 0 3302 0 0 3313 0 0 3274 0 0 3296 0 0 3210 0 0 3227 0 0 3377 0 0 3237 0 0 3239 0 0 3284 0 0 3345 0 0 3313 0 0 3263 0 0 3307 0 0 3290 0 0 3169 0 0 1644 0 0 0 0 0 0 0 0 0 0 0 0 0 0 0 0 0 0 0 0 0 0 0 0 0 0 0 0 0 
0 0 0 0 0 0 0 0 0 0 0 0 0 0 0 0 0 0 0 0 0 0 0 0 0 0 0 0 0 0 804 0 0 1626 0 0 1637 0 0 1660 0 0 1621 0 0 1588 0 0 1576 0 0 1533 0 0 1617 0 0 1622 0 0 1627 0 0 1606 0 0 1600 0 0 1693 0 0 1646 0 0 1602 0 0 1641 0 0 1589 0 0 1615 0 0 1658 0 0 1648 0 0 1626 0 0 1574 0 0 1617 0 0 1562 0 0 1576 0 0 1555 0 0 1569 0 0 1629 0 0 1616 0 0 1687 0 0 1583 0 0 1677 0 0 1701 0 0 1618 0 0 1618 0 0 1597 0 0 1613 0 0 1615 0 0 1657 0 0 777 0 0 0 0 0 0 0 0 0 0 0 0 0 0 0 0 0 0 0 0 0 0 0 0 0 0 0 0 0 
0 0 0 0 0 0 0 0 0 0 0 0 0 0 0 0 0 0 0 0 0 0 0 0 0 0 0 0 0 0 0 0 0 0 0 0 0 0 0 0 0 0 0 0 0 0 0 0 0 0 0 0 0 0 0 0 0 0 0 0 0 0 0 0 0 0 0 0 0 0 0 0 0 0 0 0 0 0 0 0 0 0 0 0 0 0 0 0 0 0 0 0 0 0 0 0 0 0 0 0 0 0 0 0 0 0 0 0 0 0 0 0 0 0 0 0 0 0 0 0 0 0 0 0 0 0 0 0 0 0 0 0 0 0 0 0 0 0 0 0 0 0 0 0 0 0 0 0 0 0 0 0 0 0 0 0 0 0 0 0 0 0 0 0 0 0 0 0 0 0 0 0 0 0 0 0 0 0 0 0 
0 0 0 0 0 0 0 0 0 0 0 0 0 0 0 0 0 0 0 0 0 0 0 0 0 0 0 0 0 0 0 0 0 0 0 0 0 0 0 0 0 0 0 0 0 0 0 0 0 0 0 0 0 0 0 0 0 0 0 0 0 0 0 0 0 0 0 0 0 0 0 0 0 0 0 0 0 0 0 0 0 0 0 0 0 0 0 0 0 0 0 0 0 0 0 0 0 0 0 0 0 0 0 0 0 0 0 0 0 0 0 0 0 0 0 0 0 0 0 0 0 0 0 0 0 0 0 0 0 0 0 0 0 0 0 0 0 0 0 0 0 0 0 0 0 0 0 0 0 0 0 0 0 0 0 0 0 0 0 0 0 0 0 0 0 0 0 0 0 0 0 0 0 0 0 0 0 0 0 0 
0 0 0 0 0 0 0 0 0 0 0 0 0 0 0 0 0 0 0 0 0 0 0 0 0 0 0 0 0 0 0 0 0 0 0 0 0 0 0 0 0 0 0 0 0 0 0 0 0 0 0 0 0 0 0 0 0 0 0 0 0 0 0 0 0 0 0 0 0 0 0 0 0 0 0 0 0 0 0 0 0 0 0 0 0 0 0 0 0 0 0 0 0 0 0 0 0 0 0 0 0 0 0 0 0 0 0 0 0 0 0 0 0 0 0 0 0 0 0 0 0 0 0 0 0 0 0 0 0 0 0 0 0 0 0 0 0 0 0 0 0 0 0 0 0 0 0 0 0 0 0 0 0 0 0 0 0 0 0 0 0 0 0 0 0 0 0 0 0 0 0 0 0 0 0 0 0 0 0 0 
0 0 0 0 0 0 0 0 0 0 0 0 0 0 0 0 0 0 0 0 0 0 0 0 0 0 0 0 0 0 0 0 0 0 0 0 0 0 0 0 0 0 0 0 0 0 0 0 0 0 0 0 0 0 0 0 0 0 0 0 0 0 0 0 0 0 0 0 0 0 0 0 0 0 0 0 0 0 0 0 0 0 0 0 0 0 0 0 0 0 0 0 0 0 0 0 0 0 0 0 0 0 0 0 0 0 0 0 0 0 0 0 0 0 0 0 0 0 0 0 0 0 0 0 0 0 0 0 0 0 0 0 0 0 0 0 0 0 0 0 0 0 0 0 0 0 0 0 0 0 0 0 0 0 0 0 0 0 0 0 0 0 0 0 0 0 0 0 0 0 0 0 0 0 0 0 0 0 0 0 
0 0 0 0 0 0 0 0 0 0 0 0 0 0 0 0 0 0 0 0 0 0 0 0 0 0 0 0 0 0 0 0 0 0 0 0 0 0 0 0 0 0 0 0 0 0 0 0 0 0 0 0 0 0 0 0 0 0 0 0 0 0 0 0 0 0 0 0 0 0 0 0 0 0 0 0 0 0 0 0 0 0 0 0 0 0 0 0 0 0 0 0 0 0 0 0 0 0 0 0 0 0 0 0 0 0 0 0 0 0 0 0 0 0 0 0 0 0 0 0 0 0 0 0 0 0 0 0 0 0 0 0 0 0 0 0 0 0 0 0 0 0 0 0 0 0 0 0 0 0 0 0 0 0 0 0 0 0 0 0 0 0 0 0 0 0 0 0 0 0 0 0 0 0 0 0 0 0 0 0 
0 0 0 0 0 0 0 0 0 0 0 0 0 0 0 0 0 0 0 0 0 0 0 0 0 0 0 0 0 0 0 0 0 0 0 0 0 0 0 0 0 0 0 0 0 0 0 0 0 0 0 0 0 0 0 0 0 0 0 0 0 0 0 0 0 0 0 0 0 0 0 0 0 0 0 0 0 0 0 0 0 0 0 0 0 0 0 0 0 0 0 0 0 0 0 0 0 0 0 0 0 0 0 0 0 0 0 0 0 0 0 0 0 0 0 0 0 0 0 0 0 0 0 0 0 0 0 0 0 0 0 0 0 0 0 0 0 0 0 0 0 0 0 0 0 0 0 0 0 0 0 0 0 0 0 0 0 0 0 0 0 0 0 0 0 0 0 0 0 0 0 0 0 0 0 0 0 0 0 0 
0 0 0 0 0 0 0 0 0 0 0 0 0 0 0 0 0 0 0 0 0 0 0 0 0 0 0 0 0 0 0 0 0 0 0 0 0 0 0 0 0 0 0 0 0 0 0 0 0 0 0 0 0 0 0 0 0 0 0 0 0 0 0 0 0 0 0 0 0 0 0 0 0 0 0 0 0 0 0 0 0 0 0 0 0 0 0 0 0 0 0 0 0 0 0 0 0 0 0 0 0 0 0 0 0 0 0 0 0 0 0 0 0 0 0 0 0 0 0 0 0 0 0 0 0 0 0 0 0 0 0 0 0 0 0 0 0 0 0 0 0 0 0 0 0 0 0 0 0 0 0 0 0 0 0 0 0 0 0 0 0 0 0 0 0 0 0 0 0 0 0 0 0 0 0 0 0 0 0 0 
0 0 0 0 0 0 0 0 0 0 0 0 0 0 0 0 0 0 0 0 0 0 0 0 0 0 0 0 0 0 0 0 0 0 0 0 0 0 0 0 0 0 0 0 0 0 0 0 0 0 0 0 0 0 0 0 0 0 0 0 0 0 0 0 0 0 0 0 0 0 0 0 0 0 0 0 0 0 0 0 0 0 0 0 0 0 0 0 0 0 0 0 0 0 0 0 0 0 0 0 0 0 0 0 0 0 0 0 0 0 0 0 0 0 0 0 0 0 0 0 0 0 0 0 0 0 0 0 0 0 0 0 0 0 0 0 0 0 0 0 0 0 0 0 0 0 0 0 0 0 0 0 0 0 0 0 0 0 0 0 0 0 0 0 0 0 0 0 0 0 0 0 0 0 0 0 0 0 0 0 
0 0 0 0 0 0 0 0 0 0 0 0 0 0 0 0 0 0 0 0 0 0 0 0 0 0 0 0 0 0 0 0 0 0 0 0 0 0 0 0 0 0 0 0 0 0 0 0 0 0 0 0 0 0 0 0 0 0 0 0 0 0 0 0 0 0 0 0 0 0 0 0 0 0 0 0 0 0 0 0 0 0 0 0 0 0 0 0 0 0 0 0 0 0 0 0 0 0 0 0 0 0 0 0 0 0 0 0 0 0 0 0 0 0 0 0 0 0 0 0 0 0 0 0 0 0 0 0 0 0 0 0 0 0 0 0 0 0 0 0 0 0 0 0 0 0 0 0 0 0 0 0 0 0 0 0 0 0 0 0 0 0 0 0 0 0 0 0 0 0 0 0 0 0 0 0 0 0 0 0 
