P3
# This is a dose file slice at depth 42 of 100
60 60
# now we give the maximum value of the RGB coordinates.
34204
0 0 0 0 0 0 0 0 0 0 0 0 0 0 0 0 0 0 0 0 0 0 0 0 0 0 0 0 0 0 0 0 0 0 0 0 0 0 0 0 0 0 0 0 0 0 0 0 0 0 0 0 0 0 0 0 0 0 0 0 0 0 0 0 0 0 0 0 0 0 0 0 0 0 0 0 0 0 0 0 0 0 0 0 0 0 0 0 0 0 0 0 0 0 0 0 0 0 0 0 0 0 0 0 0 0 0 0 0 0 0 0 0 0 0 0 0 0 0 0 0 0 0 0 0 0 0 0 0 0 0 0 0 0 0 0 0 0 0 0 0 0 0 0 0 0 0 0 0 0 0 0 0 0 0 0 0 0 0 0 0 0 0 0 0 0 0 0 0 0 0 0 0 0 0 0 0 0 0 0 
0 0 0 0 0 0 0 0 0 0 0 0 0 0 0 0 0 0 0 0 0 0 0 0 0 0 0 0 0 0 0 0 0 0 0 0 0 0 0 0 0 0 0 0 0 0 0 0 0 0 0 0 0 0 0 0 0 0 0 0 0 0 0 0 0 0 0 0 0 0 0 0 0 0 0 0 0 0 0 0 0 0 0 0 0 0 0 0 0 0 0 0 0 0 0 0 0 0 0 0 0 0 0 0 0 0 0 0 0 0 0 0 0 0 0 0 0 0 0 0 0 0 0 0 0 0 0 0 0 0 0 0 0 0 0 0 0 0 0 0 0 0 0 0 0 0 0 0 0 0 0 0 0 0 0 0 0 0 0 0 0 0 0 0 0 0 0 0 0 0 0 0 0 0 0 0 0 0 0 0 
0 0 0 0 0 0 0 0 0 0 0 0 0 0 0 0 0 0 0 0 0 0 0 0 0 0 0 0 0 0 0 0 0 0 0 0 0 0 0 0 0 0 0 0 0 0 0 0 0 0 0 0 0 0 0 0 0 0 0 0 0 0 0 0 0 0 0 0 0 0 0 0 0 0 0 0 0 0 0 0 0 0 0 0 0 0 0 0 0 0 0 0 0 0 0 0 0 0 0 0 0 0 0 0 0 0 0 0 0 0 0 0 0 0 0 0 0 0 0 0 0 0 0 0 0 0 0 0 0 0 0 0 0 0 0 0 0 0 0 0 0 0 0 0 0 0 0 0 0 0 0 0 0 0 0 0 0 0 0 0 0 0 0 0 0 0 0 0 0 0 0 0 0 0 0 0 0 0 0 0 
0 0 0 0 0 0 0 0 0 0 0 0 0 0 0 0 0 0 0 0 0 0 0 0 0 0 0 0 0 0 0 0 0 0 0 0 0 0 0 0 0 0 0 0 0 0 0 0 0 0 0 0 0 0 0 0 0 0 0 0 0 0 0 0 0 0 0 0 0 0 0 0 0 0 0 0 0 0 0 0 0 0 0 0 0 0 0 0 0 0 0 0 0 0 0 0 0 0 0 0 0 0 0 0 0 0 0 0 0 0 0 0 0 0 0 0 0 0 0 0 0 0 0 0 0 0 0 0 0 0 0 0 0 0 0 0 0 0 0 0 0 0 0 0 0 0 0 0 0 0 0 0 0 0 0 0 0 0 0 0 0 0 0 0 0 0 0 0 0 0 0 0 0 0 0 0 0 0 0 0 
0 0 0 0 0 0 0 0 0 0 0 0 0 0 0 0 0 0 0 0 0 0 0 0 0 0 0 0 0 0 0 0 0 0 0 0 0 0 0 0 0 0 0 0 0 0 0 0 0 0 0 0 0 0 0 0 0 0 0 0 0 0 0 0 0 0 0 0 0 0 0 0 0 0 0 0 0 0 0 0 0 0 0 0 0 0 0 0 0 0 0 0 0 0 0 0 0 0 0 0 0 0 0 0 0 0 0 0 0 0 0 0 0 0 0 0 0 0 0 0 0 0 0 0 0 0 0 0 0 0 0 0 0 0 0 0 0 0 0 0 0 0 0 0 0 0 0 0 0 0 0 0 0 0 0 0 0 0 0 0 0 0 0 0 0 0 0 0 0 0 0 0 0 0 0 0 0 0 0 0 
0 0 0 0 0 0 0 0 0 0 0 0 0 0 0 0 0 0 0 0 0 0 0 0 0 0 0 0 0 0 0 0 0 0 0 0 0 0 0 0 0 0 0 0 0 0 0 0 0 0 0 0 0 0 0 0 0 0 0 0 0 0 0 0 0 0 0 0 0 0 0 0 0 0 0 0 0 0 0 0 0 0 0 0 0 0 0 0 0 0 0 0 0 0 0 0 0 0 0 0 0 0 0 0 0 0 0 0 0 0 0 0 0 0 0 0 0 0 0 0 0 0 0 0 0 0 0 0 0 0 0 0 0 0 0 0 0 0 0 0 0 0 0 0 0 0 0 0 0 0 0 0 0 0 0 0 0 0 0 0 0 0 0 0 0 0 0 0 0 0 0 0 0 0 0 0 0 0 0 0 
0 0 0 0 0 0 0 0 0 0 0 0 0 0 0 0 0 0 0 0 0 0 0 0 0 0 0 0 0 0 0 0 0 0 0 0 0 0 0 0 0 0 0 0 0 0 0 0 0 0 0 0 0 0 0 0 0 0 0 0 0 0 0 0 0 0 0 0 0 0 0 0 0 0 0 0 0 0 0 0 0 0 0 0 0 0 0 0 0 0 0 0 0 0 0 0 0 0 0 0 0 0 0 0 0 0 0 0 0 0 0 0 0 0 0 0 0 0 0 0 0 0 0 0 0 0 0 0 0 0 0 0 0 0 0 0 0 0 0 0 0 0 0 0 0 0 0 0 0 0 0 0 0 0 0 0 0 0 0 0 0 0 0 0 0 0 0 0 0 0 0 0 0 0 0 0 0 0 0 0 
0 0 0 0 0 0 0 0 0 0 0 0 0 0 0 0 0 0 0 0 0 0 0 0 0 0 0 0 0 0 0 0 0 0 0 0 0 0 0 0 0 0 0 0 0 0 0 0 0 0 0 0 0 0 0 0 0 0 0 0 0 0 0 0 0 0 0 0 0 0 0 0 0 0 0 0 0 0 0 0 0 0 0 0 0 0 0 0 0 0 0 0 0 0 0 0 0 0 0 0 0 0 0 0 0 0 0 0 0 0 0 0 0 0 0 0 0 0 0 0 0 0 0 0 0 0 0 0 0 0 0 0 0 0 0 0 0 0 0 0 0 0 0 0 0 0 0 0 0 0 0 0 0 0 0 0 0 0 0 0 0 0 0 0 0 0 0 0 0 0 0 0 0 0 0 0 0 0 0 0 
0 0 0 0 0 0 0 0 0 0 0 0 0 0 0 0 0 0 0 0 0 0 0 0 0 0 0 0 0 0 0 0 0 0 0 0 0 0 0 0 0 0 0 0 0 0 0 0 0 0 0 0 0 0 0 0 0 0 0 0 0 0 0 0 0 0 0 0 0 0 0 0 0 0 0 0 0 0 0 0 0 0 0 0 0 0 0 0 0 0 0 0 0 0 0 0 0 0 0 0 0 0 0 0 0 0 0 0 0 0 0 0 0 0 0 0 0 0 0 0 0 0 0 0 0 0 0 0 0 0 0 0 0 0 0 0 0 0 0 0 0 0 0 0 0 0 0 0 0 0 0 0 0 0 0 0 0 0 0 0 0 0 0 0 0 0 0 0 0 0 0 0 0 0 0 0 0 0 0 0 
0 0 0 0 0 0 0 0 0 0 0 0 0 0 0 0 0 0 0 0 0 0 0 0 0 0 0 0 0 0 0 0 0 0 0 0 0 0 0 0 0 0 0 0 0 0 0 0 0 0 0 0 0 0 0 0 0 0 0 0 0 0 0 0 0 0 0 0 0 0 0 0 0 0 0 0 0 0 0 0 0 0 0 0 0 0 0 0 0 0 0 0 0 0 0 0 0 0 0 0 0 0 0 0 0 0 0 0 0 0 0 0 0 0 0 0 0 0 0 0 0 0 0 0 0 0 0 0 0 0 0 0 0 0 0 0 0 0 0 0 0 0 0 0 0 0 0 0 0 0 0 0 0 0 0 0 0 0 0 0 0 0 0 0 0 0 0 0 0 0 0 0 0 0 0 0 0 0 0 0 
0 0 0 0 0 0 0 0 0 0 0 0 0 0 0 0 0 0 0 0 0 0 0 0 0 0 0 0 0 0 2465 0 0 4789 0 0 4876 0 0 4939 0 0 4979 0 0 4734 0 0 4867 0 0 4878 0 0 4925 0 0 4915 0 0 4933 0 0 4986 0 0 4937 0 0 4903 0 0 4785 0 0 4754 0 0 4761 0 0 4937 0 0 4807 0 0 4773 0 0 5037 0 0 4858 0 0 4890 0 0 4937 0 0 4885 0 0 4874 0 0 4818 0 0 4833 0 0 4960 0 0 4794 0 0 4939 0 0 4888 0 0 4991 0 0 4832 0 0 4893 0 0 4873 0 0 4946 0 0 4870 0 0 4940 0 0 4811 0 0 2568 0 0 0 0 0 0 0 0 0 0 0 0 0 0 0 0 0 0 0 0 0 0 0 0 0 0 0 0 0 
0 0 0 0 0 0 0 0 0 0 0 0 0 0 0 0 0 0 0 0 0 0 0 0 0 0 0 0 0 0 4827 0 0 9825 0 0 9658 0 0 9752 0 0 9861 0 0 9853 0 0 9705 0 0 9832 0 0 9715 0 0 9873 0 0 9658 0 0 9827 0 0 9601 0 0 9719 0 0 9548 0 0 9541 0 0 9668 0 0 9687 0 0 9757 0 0 9762 0 0 9711 0 0 9442 0 0 9642 0 0 9741 0 0 9782 0 0 9900 0 0 9706 0 0 9572 0 0 9780 0 0 9644 0 0 9975 0 0 9580 0 0 9783 0 0 9663 0 0 9790 0 0 9749 0 0 9646 0 0 9840 0 0 9659 0 0 9756 0 0 5026 0 0 0 0 0 0 0 0 0 0 0 0 0 0 0 0 0 0 0 0 0 0 0 0 0 0 0 0 0 
0 0 0 0 0 0 0 0 0 0 0 0 0 0 0 0 0 0 0 0 0 0 0 0 0 0 0 0 0 0 4903 0 0 9708 0 0 9653 0 0 9788 0 0 9768 0 0 9710 0 0 9738 0 0 9742 0 0 9623 0 0 9824 0 0 9707 0 0 9803 0 0 9701 0 0 9607 0 0 9851 0 0 9721 0 0 9665 0 0 9667 0 0 9710 0 0 9733 0 0 9797 0 0 9812 0 0 9610 0 0 9713 0 0 9704 0 0 9708 0 0 9746 0 0 9728 0 0 9845 0 0 9803 0 0 9678 0 0 9732 0 0 9908 0 0 9740 0 0 9721 0 0 9861 0 0 9589 0 0 9851 0 0 9684 0 0 9675 0 0 4938 0 0 0 0 0 0 0 0 0 0 0 0 0 0 0 0 0 0 0 0 0 0 0 0 0 0 0 0 0 
0 0 0 0 0 0 0 0 0 0 0 0 0 0 0 0 0 0 0 0 0 0 0 0 0 0 0 0 0 0 4835 0 0 9964 0 0 9594 0 0 9609 0 0 9725 0 0 9848 0 0 9859 0 0 9765 0 0 9601 0 0 9814 0 0 9736 0 0 9719 0 0 9790 0 0 9750 0 0 9774 0 0 9833 0 0 9776 0 0 9792 0 0 9700 0 0 9681 0 0 9787 0 0 9670 0 0 9683 0 0 9738 0 0 9816 0 0 9717 0 0 9889 0 0 9880 0 0 9664 0 0 9727 0 0 9643 0 0 9644 0 0 9735 0 0 9794 0 0 9751 0 0 9710 0 0 9672 0 0 10008 0 0 9807 0 0 9833 0 0 4783 0 0 0 0 0 0 0 0 0 0 0 0 0 0 0 0 0 0 0 0 0 0 0 0 0 0 0 0 0 
0 0 0 0 0 0 0 0 0 0 0 0 0 0 0 0 0 0 0 0 0 0 0 0 0 0 0 0 0 0 4918 0 0 9715 0 0 9730 0 0 9757 0 0 9777 0 0 9713 0 0 9766 0 0 9532 0 0 9694 0 0 9766 0 0 9896 0 0 9674 0 0 9882 0 0 9726 0 0 9756 0 0 9873 0 0 9762 0 0 9517 0 0 9723 0 0 9661 0 0 9844 0 0 9845 0 0 9751 0 0 9572 0 0 9582 0 0 9532 0 0 9777 0 0 9763 0 0 9900 0 0 9753 0 0 9757 0 0 9697 0 0 9639 0 0 9751 0 0 9631 0 0 9948 0 0 9741 0 0 9891 0 0 9655 0 0 9765 0 0 4861 0 0 0 0 0 0 0 0 0 0 0 0 0 0 0 0 0 0 0 0 0 0 0 0 0 0 0 0 0 
0 0 0 0 0 0 0 0 0 0 0 0 0 0 0 0 0 0 0 0 0 0 0 0 0 0 0 0 0 0 4912 0 0 9676 0 0 9740 0 0 9783 0 0 9883 0 0 9639 0 0 9875 0 0 9730 0 0 9686 0 0 9710 0 0 9772 0 0 9753 0 0 9637 0 0 9737 0 0 9737 0 0 9619 0 0 9700 0 0 9794 0 0 9756 0 0 9618 0 0 9709 0 0 9830 0 0 9777 0 0 9766 0 0 9780 0 0 9683 0 0 9667 0 0 9785 0 0 9838 0 0 9633 0 0 9861 0 0 9785 0 0 9879 0 0 9896 0 0 9851 0 0 9843 0 0 9635 0 0 9661 0 0 9766 0 0 9719 0 0 4811 0 0 0 0 0 0 0 0 0 0 0 0 0 0 0 0 0 0 0 0 0 0 0 0 0 0 0 0 0 
0 0 0 0 0 0 0 0 0 0 0 0 0 0 0 0 0 0 0 0 0 0 0 0 0 0 0 0 0 0 4900 0 0 9704 0 0 9674 0 0 9528 0 0 9808 0 0 9728 0 0 9841 0 0 9662 0 0 9655 0 0 9816 0 0 9638 0 0 9729 0 0 9767 0 0 9832 0 0 9632 0 0 9639 0 0 9503 0 0 9812 0 0 9773 0 0 9730 0 0 9917 0 0 9840 0 0 9663 0 0 9760 0 0 9694 0 0 9806 0 0 9851 0 0 9922 0 0 9797 0 0 9739 0 0 9725 0 0 9853 0 0 9755 0 0 9865 0 0 9663 0 0 9457 0 0 9579 0 0 9876 0 0 9730 0 0 9893 0 0 4948 0 0 0 0 0 0 0 0 0 0 0 0 0 0 0 0 0 0 0 0 0 0 0 0 0 0 0 0 0 
0 0 0 0 0 0 0 0 0 0 0 0 0 0 0 0 0 0 0 0 0 0 0 0 0 0 0 0 0 0 4847 0 0 9721 0 0 9771 0 0 9740 0 0 9807 0 0 9743 0 0 9777 0 0 9748 0 0 9708 0 0 9797 0 0 9686 0 0 9667 0 0 9704 0 0 9765 0 0 9808 0 0 9707 0 0 9773 0 0 9682 0 0 9483 0 0 9798 0 0 9672 0 0 9656 0 0 9720 0 0 9774 0 0 9597 0 0 9916 0 0 9831 0 0 9684 0 0 9547 0 0 9801 0 0 9857 0 0 9877 0 0 9665 0 0 9665 0 0 9680 0 0 9766 0 0 9865 0 0 9688 0 0 9609 0 0 9771 0 0 4793 0 0 0 0 0 0 0 0 0 0 0 0 0 0 0 0 0 0 0 0 0 0 0 0 0 0 0 0 0 
0 0 0 0 0 0 0 0 0 0 0 0 0 0 0 0 0 0 0 0 0 0 0 0 0 0 0 0 0 0 4954 0 0 9692 0 0 9904 0 0 9686 0 0 9666 0 0 9817 0 0 9878 0 0 9658 0 0 9696 0 0 9718 0 0 9726 0 0 9626 0 0 9712 0 0 9741 0 0 9618 0 0 9702 0 0 9751 0 0 9830 0 0 9758 0 0 9742 0 0 9600 0 0 9725 0 0 9790 0 0 9785 0 0 9871 0 0 9912 0 0 9990 0 0 9770 0 0 9914 0 0 9632 0 0 9788 0 0 9716 0 0 9652 0 0 9657 0 0 9720 0 0 9740 0 0 9764 0 0 9734 0 0 9812 0 0 9717 0 0 4817 0 0 0 0 0 0 0 0 0 0 0 0 0 0 0 0 0 0 0 0 0 0 0 0 0 0 0 0 0 
0 0 0 0 0 0 0 0 0 0 0 0 0 0 0 0 0 0 0 0 0 0 0 0 0 0 0 0 0 0 4856 0 0 9925 0 0 9849 0 0 9827 0 0 9649 0 0 9643 0 0 9987 0 0 9707 0 0 9574 0 0 9659 0 0 9785 0 0 9719 0 0 9813 0 0 9656 0 0 9810 0 0 9737 0 0 9703 0 0 9772 0 0 9585 0 0 9791 0 0 9755 0 0 9582 0 0 9793 0 0 9671 0 0 9635 0 0 9721 0 0 9815 0 0 9653 0 0 9919 0 0 9925 0 0 9593 0 0 9546 0 0 9735 0 0 9856 0 0 9721 0 0 9709 0 0 9795 0 0 9724 0 0 9908 0 0 9703 0 0 4958 0 0 0 0 0 0 0 0 0 0 0 0 0 0 0 0 0 0 0 0 0 0 0 0 0 0 0 0 0 
0 0 0 0 0 0 0 0 0 0 0 0 0 0 0 0 0 0 0 0 0 0 0 0 0 0 0 0 0 0 4833 0 0 9694 0 0 9816 0 0 9694 0 0 9799 0 0 9905 0 0 9627 0 0 9791 0 0 9551 0 0 9652 0 0 9803 0 0 9689 0 0 9666 0 0 9732 0 0 9631 0 0 9755 0 0 9645 0 0 9905 0 0 9758 0 0 9597 0 0 9677 0 0 9865 0 0 9670 0 0 9616 0 0 9700 0 0 9692 0 0 9620 0 0 9703 0 0 9721 0 0 9700 0 0 9725 0 0 9834 0 0 9879 0 0 9729 0 0 9774 0 0 9785 0 0 9593 0 0 9806 0 0 9817 0 0 9721 0 0 4762 0 0 0 0 0 0 0 0 0 0 0 0 0 0 0 0 0 0 0 0 0 0 0 0 0 0 0 0 0 
0 0 0 0 0 0 0 0 0 0 0 0 0 0 0 0 0 0 0 0 0 0 0 0 0 0 0 0 0 0 4781 0 0 9788 0 0 9731 0 0 9813 0 0 9734 0 0 9743 0 0 9889 0 0 9826 0 0 9724 0 0 9656 0 0 9605 0 0 9679 0 0 9787 0 0 9780 0 0 9843 0 0 9653 0 0 9758 0 0 9805 0 0 9671 0 0 9850 0 0 9608 0 0 9664 0 0 9824 0 0 9669 0 0 9693 0 0 9890 0 0 9860 0 0 9619 0 0 9819 0 0 9789 0 0 9764 0 0 9768 0 0 9794 0 0 9614 0 0 9785 0 0 9753 0 0 9929 0 0 9938 0 0 9713 0 0 9613 0 0 4796 0 0 0 0 0 0 0 0 0 0 0 0 0 0 0 0 0 0 0 0 0 0 0 0 0 0 0 0 0 
0 0 0 0 0 0 0 0 0 0 0 0 0 0 0 0 0 0 0 0 0 0 0 0 0 0 0 0 0 0 4908 0 0 9587 0 0 9839 0 0 9863 0 0 9540 0 0 9768 0 0 9758 0 0 9724 0 0 9862 0 0 9599 0 0 9739 0 0 9859 0 0 9585 0 0 9854 0 0 9763 0 0 9802 0 0 9836 0 0 9898 0 0 9775 0 0 9709 0 0 9631 0 0 9694 0 0 10021 0 0 9737 0 0 9734 0 0 9683 0 0 9771 0 0 9710 0 0 9593 0 0 9693 0 0 9857 0 0 9743 0 0 9664 0 0 9724 0 0 9579 0 0 9738 0 0 9781 0 0 9882 0 0 9737 0 0 9651 0 0 4909 0 0 0 0 0 0 0 0 0 0 0 0 0 0 0 0 0 0 0 0 0 0 0 0 0 0 0 0 0 
0 0 0 0 0 0 0 0 0 0 0 0 0 0 0 0 0 0 0 0 0 0 0 0 0 0 0 0 0 0 4958 0 0 9841 0 0 9850 0 0 9681 0 0 9731 0 0 9778 0 0 9553 0 0 9917 0 0 9793 0 0 9623 0 0 9466 0 0 9629 0 0 9814 0 0 9707 0 0 9774 0 0 9922 0 0 9833 0 0 9659 0 0 9619 0 0 9657 0 0 9962 0 0 9918 0 0 9824 0 0 9678 0 0 9793 0 0 9533 0 0 9717 0 0 9792 0 0 9792 0 0 9683 0 0 9844 0 0 9643 0 0 9843 0 0 9881 0 0 9550 0 0 9831 0 0 9593 0 0 9754 0 0 9873 0 0 9893 0 0 4818 0 0 0 0 0 0 0 0 0 0 0 0 0 0 0 0 0 0 0 0 0 0 0 0 0 0 0 0 0 
0 0 0 0 0 0 0 0 0 0 0 0 0 0 0 0 0 0 0 0 0 0 0 0 0 0 0 0 0 0 4880 0 0 9732 0 0 9637 0 0 9720 0 0 9694 0 0 9677 0 0 9967 0 0 9804 0 0 9789 0 0 9708 0 0 9695 0 0 9827 0 0 9766 0 0 9675 0 0 9790 0 0 9587 0 0 9712 0 0 9926 0 0 9658 0 0 9866 0 0 9599 0 0 9759 0 0 9808 0 0 9722 0 0 9760 0 0 9719 0 0 9925 0 0 9599 0 0 9735 0 0 9701 0 0 9734 0 0 9701 0 0 9786 0 0 9534 0 0 9673 0 0 9891 0 0 9832 0 0 9769 0 0 9728 0 0 9769 0 0 4944 0 0 0 0 0 0 0 0 0 0 0 0 0 0 0 0 0 0 0 0 0 0 0 0 0 0 0 0 0 
0 0 0 0 0 0 0 0 0 0 0 0 0 0 0 0 0 0 0 0 0 0 0 0 0 0 0 0 0 0 4868 0 0 9865 0 0 9821 0 0 9724 0 0 9584 0 0 9681 0 0 9655 0 0 9647 0 0 9703 0 0 9789 0 0 9750 0 0 9805 0 0 9684 0 0 9925 0 0 9693 0 0 9746 0 0 9790 0 0 9896 0 0 9907 0 0 9723 0 0 9735 0 0 9875 0 0 9784 0 0 9763 0 0 9735 0 0 9582 0 0 9755 0 0 9645 0 0 9518 0 0 9978 0 0 9695 0 0 9613 0 0 9825 0 0 9883 0 0 9912 0 0 9663 0 0 9820 0 0 9743 0 0 9829 0 0 9821 0 0 4816 0 0 0 0 0 0 0 0 0 0 0 0 0 0 0 0 0 0 0 0 0 0 0 0 0 0 0 0 0 
0 0 0 0 0 0 0 0 0 0 0 0 0 0 0 0 0 0 0 0 0 0 0 0 0 0 0 0 0 0 4777 0 0 9862 0 0 9622 0 0 9701 0 0 9622 0 0 9814 0 0 9871 0 0 9562 0 0 9735 0 0 9959 0 0 9736 0 0 9774 0 0 9718 0 0 9703 0 0 9760 0 0 9630 0 0 9744 0 0 9774 0 0 9954 0 0 9673 0 0 9714 0 0 9607 0 0 9634 0 0 9792 0 0 9682 0 0 9792 0 0 9663 0 0 9600 0 0 9933 0 0 9897 0 0 9618 0 0 9729 0 0 9792 0 0 9774 0 0 9751 0 0 9854 0 0 9731 0 0 9814 0 0 9749 0 0 9678 0 0 4786 0 0 0 0 0 0 0 0 0 0 0 0 0 0 0 0 0 0 0 0 0 0 0 0 0 0 0 0 0 
0 0 0 0 0 0 0 0 0 0 0 0 0 0 0 0 0 0 0 0 0 0 0 0 0 0 0 0 0 0 4739 0 0 9727 0 0 9566 0 0 9993 0 0 9864 0 0 9617 0 0 9816 0 0 9924 0 0 9739 0 0 9855 0 0 9818 0 0 9903 0 0 9669 0 0 9695 0 0 9750 0 0 10039 0 0 9861 0 0 9795 0 0 9793 0 0 9840 0 0 9661 0 0 9799 0 0 9601 0 0 9660 0 0 9767 0 0 9567 0 0 9880 0 0 9494 0 0 9662 0 0 9687 0 0 9903 0 0 9748 0 0 9729 0 0 9759 0 0 9884 0 0 9868 0 0 9834 0 0 9714 0 0 9705 0 0 9740 0 0 4825 0 0 0 0 0 0 0 0 0 0 0 0 0 0 0 0 0 0 0 0 0 0 0 0 0 0 0 0 0 
0 0 0 0 0 0 0 0 0 0 0 0 0 0 0 0 0 0 0 0 0 0 0 0 0 0 0 0 0 0 4835 0 0 9781 0 0 9728 0 0 9836 0 0 9671 0 0 9579 0 0 9661 0 0 9762 0 0 9753 0 0 9649 0 0 9581 0 0 9635 0 0 9703 0 0 9846 0 0 9743 0 0 9618 0 0 9616 0 0 9722 0 0 9627 0 0 9614 0 0 9623 0 0 9625 0 0 9701 0 0 9844 0 0 9612 0 0 9602 0 0 9690 0 0 9756 0 0 9811 0 0 9743 0 0 9572 0 0 9515 0 0 9842 0 0 9595 0 0 9817 0 0 9656 0 0 9871 0 0 9841 0 0 9877 0 0 9808 0 0 4799 0 0 0 0 0 0 0 0 0 0 0 0 0 0 0 0 0 0 0 0 0 0 0 0 0 0 0 0 0 
0 0 0 0 0 0 0 0 0 0 0 0 0 0 0 0 0 0 0 0 0 0 0 0 0 0 0 0 0 0 4936 0 0 9742 0 0 9633 0 0 9605 0 0 9800 0 0 9570 0 0 9826 0 0 9665 0 0 9673 0 0 9801 0 0 9540 0 0 9540 0 0 9719 0 0 9886 0 0 9796 0 0 9776 0 0 9734 0 0 9699 0 0 9691 0 0 9697 0 0 9726 0 0 9672 0 0 9687 0 0 9843 0 0 9843 0 0 9816 0 0 9722 0 0 9702 0 0 9660 0 0 9759 0 0 9725 0 0 9603 0 0 9879 0 0 9729 0 0 9637 0 0 9565 0 0 9773 0 0 9812 0 0 9771 0 0 9778 0 0 4883 0 0 0 0 0 0 0 0 0 0 0 0 0 0 0 0 0 0 0 0 0 0 0 0 0 0 0 0 0 
0 0 0 0 0 0 0 0 0 0 0 0 0 0 0 0 0 0 0 0 0 0 0 0 0 0 0 0 0 0 4850 0 0 9628 0 0 9741 0 0 9685 0 0 9816 0 0 9709 0 0 9764 0 0 9787 0 0 9926 0 0 9927 0 0 9711 0 0 9757 0 0 9646 0 0 9763 0 0 9809 0 0 9942 0 0 9792 0 0 9590 0 0 9728 0 0 9886 0 0 9629 0 0 9532 0 0 9693 0 0 9858 0 0 9791 0 0 9825 0 0 9885 0 0 9626 0 0 9726 0 0 9817 0 0 9669 0 0 9720 0 0 9767 0 0 9810 0 0 9574 0 0 9803 0 0 9811 0 0 9725 0 0 9698 0 0 9721 0 0 4785 0 0 0 0 0 0 0 0 0 0 0 0 0 0 0 0 0 0 0 0 0 0 0 0 0 0 0 0 0 
0 0 0 0 0 0 0 0 0 0 0 0 0 0 0 0 0 0 0 0 0 0 0 0 0 0 0 0 0 0 4894 0 0 9752 0 0 9842 0 0 9622 0 0 9691 0 0 9859 0 0 9871 0 0 9848 0 0 9574 0 0 9647 0 0 9568 0 0 9785 0 0 9742 0 0 9621 0 0 9585 0 0 9688 0 0 9829 0 0 9755 0 0 9799 0 0 9808 0 0 9830 0 0 9757 0 0 9680 0 0 9775 0 0 9698 0 0 9722 0 0 9569 0 0 9622 0 0 9609 0 0 9800 0 0 9903 0 0 9785 0 0 9761 0 0 9772 0 0 9805 0 0 9774 0 0 9750 0 0 9831 0 0 9818 0 0 9873 0 0 4735 0 0 0 0 0 0 0 0 0 0 0 0 0 0 0 0 0 0 0 0 0 0 0 0 0 0 0 0 0 
0 0 0 0 0 0 0 0 0 0 0 0 0 0 0 0 0 0 0 0 0 0 0 0 0 0 0 0 0 0 4852 0 0 9656 0 0 9879 0 0 9646 0 0 9976 0 0 9815 0 0 9613 0 0 9669 0 0 9828 0 0 9683 0 0 9734 0 0 9785 0 0 9644 0 0 9796 0 0 9877 0 0 9654 0 0 9823 0 0 9856 0 0 9631 0 0 9594 0 0 9643 0 0 10012 0 0 9745 0 0 9683 0 0 9784 0 0 9606 0 0 9976 0 0 9814 0 0 9613 0 0 9746 0 0 9719 0 0 9815 0 0 9889 0 0 9762 0 0 9800 0 0 9621 0 0 9679 0 0 9569 0 0 9822 0 0 9604 0 0 4885 0 0 0 0 0 0 0 0 0 0 0 0 0 0 0 0 0 0 0 0 0 0 0 0 0 0 0 0 0 
0 0 0 0 0 0 0 0 0 0 0 0 0 0 0 0 0 0 0 0 0 0 0 0 0 0 0 0 0 0 4872 0 0 9742 0 0 9514 0 0 9681 0 0 9795 0 0 9739 0 0 9872 0 0 9580 0 0 9909 0 0 9703 0 0 9718 0 0 9683 0 0 9639 0 0 9661 0 0 9821 0 0 9699 0 0 9675 0 0 9732 0 0 9741 0 0 9752 0 0 9514 0 0 9711 0 0 9709 0 0 9783 0 0 9730 0 0 9790 0 0 9651 0 0 9752 0 0 9755 0 0 9701 0 0 9840 0 0 9619 0 0 9791 0 0 9831 0 0 9729 0 0 9771 0 0 9837 0 0 9801 0 0 9565 0 0 9755 0 0 4909 0 0 0 0 0 0 0 0 0 0 0 0 0 0 0 0 0 0 0 0 0 0 0 0 0 0 0 0 0 
0 0 0 0 0 0 0 0 0 0 0 0 0 0 0 0 0 0 0 0 0 0 0 0 0 0 0 0 0 0 4889 0 0 9831 0 0 9877 0 0 9698 0 0 9665 0 0 9551 0 0 9624 0 0 9766 0 0 9711 0 0 9643 0 0 9794 0 0 9671 0 0 9539 0 0 9735 0 0 9628 0 0 9867 0 0 9637 0 0 9781 0 0 9772 0 0 9784 0 0 9633 0 0 9772 0 0 9803 0 0 9646 0 0 9760 0 0 9723 0 0 9661 0 0 9838 0 0 9689 0 0 9842 0 0 9878 0 0 9524 0 0 9771 0 0 9752 0 0 9770 0 0 9899 0 0 9700 0 0 9768 0 0 9816 0 0 9857 0 0 5026 0 0 0 0 0 0 0 0 0 0 0 0 0 0 0 0 0 0 0 0 0 0 0 0 0 0 0 0 0 
0 0 0 0 0 0 0 0 0 0 0 0 0 0 0 0 0 0 0 0 0 0 0 0 0 0 0 0 0 0 4810 0 0 9675 0 0 9745 0 0 9780 0 0 9770 0 0 9784 0 0 9679 0 0 9901 0 0 9649 0 0 9667 0 0 9617 0 0 9737 0 0 9629 0 0 9839 0 0 9630 0 0 9643 0 0 9844 0 0 9540 0 0 9695 0 0 9785 0 0 9674 0 0 9636 0 0 9778 0 0 9855 0 0 9886 0 0 9711 0 0 9623 0 0 9835 0 0 9760 0 0 9544 0 0 9566 0 0 9752 0 0 9765 0 0 9641 0 0 9460 0 0 9711 0 0 9709 0 0 9825 0 0 9564 0 0 9763 0 0 4802 0 0 0 0 0 0 0 0 0 0 0 0 0 0 0 0 0 0 0 0 0 0 0 0 0 0 0 0 0 
0 0 0 0 0 0 0 0 0 0 0 0 0 0 0 0 0 0 0 0 0 0 0 0 0 0 0 0 0 0 4843 0 0 9851 0 0 9789 0 0 9638 0 0 9771 0 0 9704 0 0 9827 0 0 9730 0 0 9701 0 0 9771 0 0 9891 0 0 9734 0 0 9719 0 0 9754 0 0 9606 0 0 9783 0 0 9702 0 0 9760 0 0 9822 0 0 9853 0 0 9833 0 0 9628 0 0 9878 0 0 9869 0 0 9657 0 0 9862 0 0 9740 0 0 9681 0 0 9622 0 0 9748 0 0 9674 0 0 9781 0 0 9661 0 0 9642 0 0 9725 0 0 9694 0 0 9884 0 0 9725 0 0 9785 0 0 9904 0 0 4997 0 0 0 0 0 0 0 0 0 0 0 0 0 0 0 0 0 0 0 0 0 0 0 0 0 0 0 0 0 
0 0 0 0 0 0 0 0 0 0 0 0 0 0 0 0 0 0 0 0 0 0 0 0 0 0 0 0 0 0 4883 0 0 9767 0 0 9767 0 0 9598 0 0 9749 0 0 9660 0 0 9512 0 0 9564 0 0 9859 0 0 9735 0 0 9825 0 0 9832 0 0 9631 0 0 9693 0 0 9621 0 0 9652 0 0 9832 0 0 9751 0 0 9795 0 0 9752 0 0 9712 0 0 9741 0 0 9788 0 0 9950 0 0 9683 0 0 9937 0 0 9910 0 0 9638 0 0 9714 0 0 9653 0 0 9675 0 0 9846 0 0 9691 0 0 9834 0 0 9561 0 0 9941 0 0 9743 0 0 9614 0 0 9780 0 0 9859 0 0 4779 0 0 0 0 0 0 0 0 0 0 0 0 0 0 0 0 0 0 0 0 0 0 0 0 0 0 0 0 0 
0 0 0 0 0 0 0 0 0 0 0 0 0 0 0 0 0 0 0 0 0 0 0 0 0 0 0 0 0 0 4884 0 0 9759 0 0 9652 0 0 9717 0 0 9884 0 0 9744 0 0 9722 0 0 9747 0 0 9770 0 0 9801 0 0 9890 0 0 9819 0 0 9642 0 0 9613 0 0 9897 0 0 9690 0 0 9681 0 0 9570 0 0 9610 0 0 9801 0 0 9841 0 0 9668 0 0 9552 0 0 9921 0 0 9572 0 0 9785 0 0 9666 0 0 9664 0 0 9862 0 0 9596 0 0 9705 0 0 9554 0 0 9504 0 0 9707 0 0 9857 0 0 9633 0 0 9755 0 0 9908 0 0 9768 0 0 9821 0 0 4934 0 0 0 0 0 0 0 0 0 0 0 0 0 0 0 0 0 0 0 0 0 0 0 0 0 0 0 0 0 
0 0 0 0 0 0 0 0 0 0 0 0 0 0 0 0 0 0 0 0 0 0 0 0 0 0 0 0 0 0 4944 0 0 9622 0 0 9674 0 0 9633 0 0 9693 0 0 9674 0 0 9916 0 0 9716 0 0 9846 0 0 9554 0 0 9872 0 0 9861 0 0 9874 0 0 9677 0 0 9734 0 0 9727 0 0 9706 0 0 9721 0 0 9638 0 0 9921 0 0 9520 0 0 9537 0 0 9646 0 0 9967 0 0 9839 0 0 9499 0 0 9751 0 0 9839 0 0 9920 0 0 9648 0 0 9685 0 0 9718 0 0 9764 0 0 9665 0 0 9534 0 0 9706 0 0 9834 0 0 9829 0 0 9607 0 0 9906 0 0 4859 0 0 0 0 0 0 0 0 0 0 0 0 0 0 0 0 0 0 0 0 0 0 0 0 0 0 0 0 0 
0 0 0 0 0 0 0 0 0 0 0 0 0 0 0 0 0 0 0 0 0 0 0 0 0 0 0 0 0 0 4925 0 0 9705 0 0 9826 0 0 9718 0 0 9898 0 0 9651 0 0 9763 0 0 9766 0 0 9664 0 0 9830 0 0 9739 0 0 9747 0 0 9783 0 0 9646 0 0 9830 0 0 9705 0 0 9787 0 0 9678 0 0 9798 0 0 9521 0 0 9704 0 0 9677 0 0 9804 0 0 9921 0 0 9675 0 0 9831 0 0 9782 0 0 9647 0 0 9685 0 0 9699 0 0 9580 0 0 9732 0 0 9595 0 0 9741 0 0 9666 0 0 9563 0 0 9688 0 0 9854 0 0 9618 0 0 9639 0 0 4675 0 0 0 0 0 0 0 0 0 0 0 0 0 0 0 0 0 0 0 0 0 0 0 0 0 0 0 0 0 
0 0 0 0 0 0 0 0 0 0 0 0 0 0 0 0 0 0 0 0 0 0 0 0 0 0 0 0 0 0 4772 0 0 9867 0 0 9878 0 0 9718 0 0 9761 0 0 9707 0 0 9751 0 0 9803 0 0 9699 0 0 9555 0 0 9742 0 0 9737 0 0 9628 0 0 9738 0 0 9877 0 0 9796 0 0 9845 0 0 9717 0 0 9650 0 0 9766 0 0 9624 0 0 9553 0 0 9607 0 0 9810 0 0 9925 0 0 9750 0 0 9869 0 0 9749 0 0 9834 0 0 9670 0 0 9830 0 0 9846 0 0 9698 0 0 9627 0 0 9614 0 0 9570 0 0 9954 0 0 9653 0 0 9692 0 0 9671 0 0 4832 0 0 0 0 0 0 0 0 0 0 0 0 0 0 0 0 0 0 0 0 0 0 0 0 0 0 0 0 0 
0 0 0 0 0 0 0 0 0 0 0 0 0 0 0 0 0 0 0 0 0 0 0 0 0 0 0 0 0 0 4788 0 0 9822 0 0 9856 0 0 9869 0 0 9721 0 0 9816 0 0 9658 0 0 9748 0 0 9717 0 0 9806 0 0 9732 0 0 9878 0 0 9683 0 0 9740 0 0 9698 0 0 9631 0 0 9652 0 0 9820 0 0 9834 0 0 9789 0 0 9852 0 0 9589 0 0 9853 0 0 9721 0 0 9821 0 0 9622 0 0 9792 0 0 9762 0 0 9696 0 0 9468 0 0 9677 0 0 9822 0 0 9599 0 0 9770 0 0 9624 0 0 9555 0 0 9731 0 0 9698 0 0 9631 0 0 9687 0 0 4866 0 0 0 0 0 0 0 0 0 0 0 0 0 0 0 0 0 0 0 0 0 0 0 0 0 0 0 0 0 
0 0 0 0 0 0 0 0 0 0 0 0 0 0 0 0 0 0 0 0 0 0 0 0 0 0 0 0 0 0 4838 0 0 9704 0 0 9553 0 0 9583 0 0 9767 0 0 9764 0 0 9666 0 0 9445 0 0 9607 0 0 9881 0 0 10009 0 0 9714 0 0 9683 0 0 9631 0 0 9730 0 0 9605 0 0 9688 0 0 9878 0 0 9864 0 0 9495 0 0 9684 0 0 9756 0 0 9747 0 0 9822 0 0 9494 0 0 9691 0 0 9694 0 0 9716 0 0 9528 0 0 9696 0 0 9668 0 0 9767 0 0 9771 0 0 9488 0 0 9679 0 0 9728 0 0 9717 0 0 9803 0 0 9693 0 0 9793 0 0 4915 0 0 0 0 0 0 0 0 0 0 0 0 0 0 0 0 0 0 0 0 0 0 0 0 0 0 0 0 0 
0 0 0 0 0 0 0 0 0 0 0 0 0 0 0 0 0 0 0 0 0 0 0 0 0 0 0 0 0 0 4758 0 0 9760 0 0 9755 0 0 9902 0 0 9607 0 0 9523 0 0 9707 0 0 9837 0 0 9692 0 0 9761 0 0 9677 0 0 9856 0 0 9610 0 0 9742 0 0 9809 0 0 9541 0 0 9846 0 0 9660 0 0 9629 0 0 9720 0 0 9762 0 0 9736 0 0 9377 0 0 9614 0 0 9657 0 0 9733 0 0 9842 0 0 9808 0 0 9725 0 0 9763 0 0 9644 0 0 9673 0 0 9682 0 0 9695 0 0 9646 0 0 9797 0 0 9674 0 0 9811 0 0 9872 0 0 9654 0 0 4942 0 0 0 0 0 0 0 0 0 0 0 0 0 0 0 0 0 0 0 0 0 0 0 0 0 0 0 0 0 
0 0 0 0 0 0 0 0 0 0 0 0 0 0 0 0 0 0 0 0 0 0 0 0 0 0 0 0 0 0 4708 0 0 9771 0 0 9585 0 0 9689 0 0 9869 0 0 9708 0 0 9717 0 0 9799 0 0 9866 0 0 9811 0 0 9702 0 0 9780 0 0 9737 0 0 9747 0 0 9613 0 0 9797 0 0 9867 0 0 9851 0 0 9739 0 0 9743 0 0 9726 0 0 9727 0 0 9745 0 0 9873 0 0 9746 0 0 9614 0 0 9767 0 0 9755 0 0 9660 0 0 9848 0 0 9835 0 0 9757 0 0 9659 0 0 9948 0 0 9706 0 0 9546 0 0 9804 0 0 9836 0 0 9571 0 0 9862 0 0 4917 0 0 0 0 0 0 0 0 0 0 0 0 0 0 0 0 0 0 0 0 0 0 0 0 0 0 0 0 0 
0 0 0 0 0 0 0 0 0 0 0 0 0 0 0 0 0 0 0 0 0 0 0 0 0 0 0 0 0 0 4736 0 0 9822 0 0 9652 0 0 9816 0 0 9689 0 0 9581 0 0 9592 0 0 9826 0 0 9642 0 0 9738 0 0 9700 0 0 9449 0 0 9763 0 0 9538 0 0 9878 0 0 9729 0 0 9498 0 0 9772 0 0 9687 0 0 9737 0 0 9649 0 0 9704 0 0 9844 0 0 9779 0 0 9753 0 0 9750 0 0 9803 0 0 9697 0 0 9600 0 0 9770 0 0 9868 0 0 9869 0 0 9903 0 0 9625 0 0 9725 0 0 9697 0 0 9803 0 0 9899 0 0 9626 0 0 9904 0 0 4885 0 0 0 0 0 0 0 0 0 0 0 0 0 0 0 0 0 0 0 0 0 0 0 0 0 0 0 0 0 
0 0 0 0 0 0 0 0 0 0 0 0 0 0 0 0 0 0 0 0 0 0 0 0 0 0 0 0 0 0 4925 0 0 9646 0 0 9892 0 0 9549 0 0 9923 0 0 9555 0 0 9806 0 0 9753 0 0 9649 0 0 9657 0 0 9521 0 0 9682 0 0 9592 0 0 9667 0 0 9592 0 0 9929 0 0 9739 0 0 9888 0 0 9731 0 0 9705 0 0 9772 0 0 9829 0 0 9635 0 0 9819 0 0 9630 0 0 9721 0 0 9943 0 0 9687 0 0 9783 0 0 9607 0 0 9848 0 0 9843 0 0 9711 0 0 9745 0 0 9608 0 0 9678 0 0 9600 0 0 9714 0 0 9899 0 0 9662 0 0 4917 0 0 0 0 0 0 0 0 0 0 0 0 0 0 0 0 0 0 0 0 0 0 0 0 0 0 0 0 0 
0 0 0 0 0 0 0 0 0 0 0 0 0 0 0 0 0 0 0 0 0 0 0 0 0 0 0 0 0 0 4784 0 0 9753 0 0 9885 0 0 9778 0 0 9718 0 0 9813 0 0 9798 0 0 9755 0 0 9911 0 0 9798 0 0 9606 0 0 9701 0 0 9827 0 0 9711 0 0 9888 0 0 9674 0 0 9809 0 0 9781 0 0 9768 0 0 9917 0 0 9739 0 0 9694 0 0 9820 0 0 9673 0 0 9737 0 0 9648 0 0 9603 0 0 9734 0 0 9771 0 0 9628 0 0 9810 0 0 9805 0 0 9586 0 0 9570 0 0 9829 0 0 9729 0 0 9888 0 0 9731 0 0 9705 0 0 9928 0 0 4968 0 0 0 0 0 0 0 0 0 0 0 0 0 0 0 0 0 0 0 0 0 0 0 0 0 0 0 0 0 
0 0 0 0 0 0 0 0 0 0 0 0 0 0 0 0 0 0 0 0 0 0 0 0 0 0 0 0 0 0 4773 0 0 9776 0 0 9804 0 0 9698 0 0 9826 0 0 9652 0 0 9856 0 0 9673 0 0 9720 0 0 9590 0 0 9540 0 0 9617 0 0 9781 0 0 9756 0 0 9808 0 0 9886 0 0 9755 0 0 9658 0 0 9799 0 0 9654 0 0 9544 0 0 9709 0 0 9589 0 0 9837 0 0 9855 0 0 9809 0 0 9654 0 0 9699 0 0 9791 0 0 9817 0 0 9676 0 0 9676 0 0 9692 0 0 9896 0 0 9835 0 0 9810 0 0 9888 0 0 9723 0 0 9812 0 0 9689 0 0 4871 0 0 0 0 0 0 0 0 0 0 0 0 0 0 0 0 0 0 0 0 0 0 0 0 0 0 0 0 0 
0 0 0 0 0 0 0 0 0 0 0 0 0 0 0 0 0 0 0 0 0 0 0 0 0 0 0 0 0 0 2429 0 0 4831 0 0 4902 0 0 4959 0 0 4768 0 0 4858 0 0 4960 0 0 4863 0 0 4782 0 0 4746 0 0 4817 0 0 4814 0 0 4865 0 0 4864 0 0 4877 0 0 4758 0 0 4978 0 0 4917 0 0 4838 0 0 4822 0 0 4772 0 0 4845 0 0 4862 0 0 5022 0 0 4834 0 0 4734 0 0 4950 0 0 4804 0 0 4883 0 0 4854 0 0 4725 0 0 4915 0 0 4887 0 0 4817 0 0 4896 0 0 4921 0 0 4728 0 0 4839 0 0 4841 0 0 4843 0 0 2419 0 0 0 0 0 0 0 0 0 0 0 0 0 0 0 0 0 0 0 0 0 0 0 0 0 0 0 0 0 
0 0 0 0 0 0 0 0 0 0 0 0 0 0 0 0 0 0 0 0 0 0 0 0 0 0 0 0 0 0 0 0 0 0 0 0 0 0 0 0 0 0 0 0 0 0 0 0 0 0 0 0 0 0 0 0 0 0 0 0 0 0 0 0 0 0 0 0 0 0 0 0 0 0 0 0 0 0 0 0 0 0 0 0 0 0 0 0 0 0 0 0 0 0 0 0 0 0 0 0 0 0 0 0 0 0 0 0 0 0 0 0 0 0 0 0 0 0 0 0 0 0 0 0 0 0 0 0 0 0 0 0 0 0 0 0 0 0 0 0 0 0 0 0 0 0 0 0 0 0 0 0 0 0 0 0 0 0 0 0 0 0 0 0 0 0 0 0 0 0 0 0 0 0 0 0 0 0 0 0 
0 0 0 0 0 0 0 0 0 0 0 0 0 0 0 0 0 0 0 0 0 0 0 0 0 0 0 0 0 0 0 0 0 0 0 0 0 0 0 0 0 0 0 0 0 0 0 0 0 0 0 0 0 0 0 0 0 0 0 0 0 0 0 0 0 0 0 0 0 0 0 0 0 0 0 0 0 0 0 0 0 0 0 0 0 0 0 0 0 0 0 0 0 0 0 0 0 0 0 0 0 0 0 0 0 0 0 0 0 0 0 0 0 0 0 0 0 0 0 0 0 0 0 0 0 0 0 0 0 0 0 0 0 0 0 0 0 0 0 0 0 0 0 0 0 0 0 0 0 0 0 0 0 0 0 0 0 0 0 0 0 0 0 0 0 0 0 0 0 0 0 0 0 0 0 0 0 0 0 0 
0 0 0 0 0 0 0 0 0 0 0 0 0 0 0 0 0 0 0 0 0 0 0 0 0 0 0 0 0 0 0 0 0 0 0 0 0 0 0 0 0 0 0 0 0 0 0 0 0 0 0 0 0 0 0 0 0 0 0 0 0 0 0 0 0 0 0 0 0 0 0 0 0 0 0 0 0 0 0 0 0 0 0 0 0 0 0 0 0 0 0 0 0 0 0 0 0 0 0 0 0 0 0 0 0 0 0 0 0 0 0 0 0 0 0 0 0 0 0 0 0 0 0 0 0 0 0 0 0 0 0 0 0 0 0 0 0 0 0 0 0 0 0 0 0 0 0 0 0 0 0 0 0 0 0 0 0 0 0 0 0 0 0 0 0 0 0 0 0 0 0 0 0 0 0 0 0 0 0 0 
0 0 0 0 0 0 0 0 0 0 0 0 0 0 0 0 0 0 0 0 0 0 0 0 0 0 0 0 0 0 0 0 0 0 0 0 0 0 0 0 0 0 0 0 0 0 0 0 0 0 0 0 0 0 0 0 0 0 0 0 0 0 0 0 0 0 0 0 0 0 0 0 0 0 0 0 0 0 0 0 0 0 0 0 0 0 0 0 0 0 0 0 0 0 0 0 0 0 0 0 0 0 0 0 0 0 0 0 0 0 0 0 0 0 0 0 0 0 0 0 0 0 0 0 0 0 0 0 0 0 0 0 0 0 0 0 0 0 0 0 0 0 0 0 0 0 0 0 0 0 0 0 0 0 0 0 0 0 0 0 0 0 0 0 0 0 0 0 0 0 0 0 0 0 0 0 0 0 0 0 
0 0 0 0 0 0 0 0 0 0 0 0 0 0 0 0 0 0 0 0 0 0 0 0 0 0 0 0 0 0 0 0 0 0 0 0 0 0 0 0 0 0 0 0 0 0 0 0 0 0 0 0 0 0 0 0 0 0 0 0 0 0 0 0 0 0 0 0 0 0 0 0 0 0 0 0 0 0 0 0 0 0 0 0 0 0 0 0 0 0 0 0 0 0 0 0 0 0 0 0 0 0 0 0 0 0 0 0 0 0 0 0 0 0 0 0 0 0 0 0 0 0 0 0 0 0 0 0 0 0 0 0 0 0 0 0 0 0 0 0 0 0 0 0 0 0 0 0 0 0 0 0 0 0 0 0 0 0 0 0 0 0 0 0 0 0 0 0 0 0 0 0 0 0 0 0 0 0 0 0 
0 0 0 0 0 0 0 0 0 0 0 0 0 0 0 0 0 0 0 0 0 0 0 0 0 0 0 0 0 0 0 0 0 0 0 0 0 0 0 0 0 0 0 0 0 0 0 0 0 0 0 0 0 0 0 0 0 0 0 0 0 0 0 0 0 0 0 0 0 0 0 0 0 0 0 0 0 0 0 0 0 0 0 0 0 0 0 0 0 0 0 0 0 0 0 0 0 0 0 0 0 0 0 0 0 0 0 0 0 0 0 0 0 0 0 0 0 0 0 0 0 0 0 0 0 0 0 0 0 0 0 0 0 0 0 0 0 0 0 0 0 0 0 0 0 0 0 0 0 0 0 0 0 0 0 0 0 0 0 0 0 0 0 0 0 0 0 0 0 0 0 0 0 0 0 0 0 0 0 0 
0 0 0 0 0 0 0 0 0 0 0 0 0 0 0 0 0 0 0 0 0 0 0 0 0 0 0 0 0 0 0 0 0 0 0 0 0 0 0 0 0 0 0 0 0 0 0 0 0 0 0 0 0 0 0 0 0 0 0 0 0 0 0 0 0 0 0 0 0 0 0 0 0 0 0 0 0 0 0 0 0 0 0 0 0 0 0 0 0 0 0 0 0 0 0 0 0 0 0 0 0 0 0 0 0 0 0 0 0 0 0 0 0 0 0 0 0 0 0 0 0 0 0 0 0 0 0 0 0 0 0 0 0 0 0 0 0 0 0 0 0 0 0 0 0 0 0 0 0 0 0 0 0 0 0 0 0 0 0 0 0 0 0 0 0 0 0 0 0 0 0 0 0 0 0 0 0 0 0 0 
0 0 0 0 0 0 0 0 0 0 0 0 0 0 0 0 0 0 0 0 0 0 0 0 0 0 0 0 0 0 0 0 0 0 0 0 0 0 0 0 0 0 0 0 0 0 0 0 0 0 0 0 0 0 0 0 0 0 0 0 0 0 0 0 0 0 0 0 0 0 0 0 0 0 0 0 0 0 0 0 0 0 0 0 0 0 0 0 0 0 0 0 0 0 0 0 0 0 0 0 0 0 0 0 0 0 0 0 0 0 0 0 0 0 0 0 0 0 0 0 0 0 0 0 0 0 0 0 0 0 0 0 0 0 0 0 0 0 0 0 0 0 0 0 0 0 0 0 0 0 0 0 0 0 0 0 0 0 0 0 0 0 0 0 0 0 0 0 0 0 0 0 0 0 0 0 0 0 0 0 
0 0 0 0 0 0 0 0 0 0 0 0 0 0 0 0 0 0 0 0 0 0 0 0 0 0 0 0 0 0 0 0 0 0 0 0 0 0 0 0 0 0 0 0 0 0 0 0 0 0 0 0 0 0 0 0 0 0 0 0 0 0 0 0 0 0 0 0 0 0 0 0 0 0 0 0 0 0 0 0 0 0 0 0 0 0 0 0 0 0 0 0 0 0 0 0 0 0 0 0 0 0 0 0 0 0 0 0 0 0 0 0 0 0 0 0 0 0 0 0 0 0 0 0 0 0 0 0 0 0 0 0 0 0 0 0 0 0 0 0 0 0 0 0 0 0 0 0 0 0 0 0 0 0 0 0 0 0 0 0 0 0 0 0 0 0 0 0 0 0 0 0 0 0 0 0 0 0 0 0 
