P3
# This is a dose file slice at depth 38 of 100
60 60
# now we give the maximum value of the RGB coordinates.
34204
0 0 0 0 0 0 0 0 0 0 0 0 0 0 0 0 0 0 0 0 0 0 0 0 0 0 0 0 0 0 0 0 0 0 0 0 0 0 0 0 0 0 0 0 0 0 0 0 0 0 0 0 0 0 0 0 0 0 0 0 0 0 0 0 0 0 0 0 0 0 0 0 0 0 0 0 0 0 0 0 0 0 0 0 0 0 0 0 0 0 0 0 0 0 0 0 0 0 0 0 0 0 0 0 0 0 0 0 0 0 0 0 0 0 0 0 0 0 0 0 0 0 0 0 0 0 0 0 0 0 0 0 0 0 0 0 0 0 0 0 0 0 0 0 0 0 0 0 0 0 0 0 0 0 0 0 0 0 0 0 0 0 0 0 0 0 0 0 0 0 0 0 0 0 0 0 0 0 0 0 
0 0 0 0 0 0 0 0 0 0 0 0 0 0 0 0 0 0 0 0 0 0 0 0 0 0 0 0 0 0 0 0 0 0 0 0 0 0 0 0 0 0 0 0 0 0 0 0 0 0 0 0 0 0 0 0 0 0 0 0 0 0 0 0 0 0 0 0 0 0 0 0 0 0 0 0 0 0 0 0 0 0 0 0 0 0 0 0 0 0 0 0 0 0 0 0 0 0 0 0 0 0 0 0 0 0 0 0 0 0 0 0 0 0 0 0 0 0 0 0 0 0 0 0 0 0 0 0 0 0 0 0 0 0 0 0 0 0 0 0 0 0 0 0 0 0 0 0 0 0 0 0 0 0 0 0 0 0 0 0 0 0 0 0 0 0 0 0 0 0 0 0 0 0 0 0 0 0 0 0 
0 0 0 0 0 0 0 0 0 0 0 0 0 0 0 0 0 0 0 0 0 0 0 0 0 0 0 0 0 0 0 0 0 0 0 0 0 0 0 0 0 0 0 0 0 0 0 0 0 0 0 0 0 0 0 0 0 0 0 0 0 0 0 0 0 0 0 0 0 0 0 0 0 0 0 0 0 0 0 0 0 0 0 0 0 0 0 0 0 0 0 0 0 0 0 0 0 0 0 0 0 0 0 0 0 0 0 0 0 0 0 0 0 0 0 0 0 0 0 0 0 0 0 0 0 0 0 0 0 0 0 0 0 0 0 0 0 0 0 0 0 0 0 0 0 0 0 0 0 0 0 0 0 0 0 0 0 0 0 0 0 0 0 0 0 0 0 0 0 0 0 0 0 0 0 0 0 0 0 0 
0 0 0 0 0 0 0 0 0 0 0 0 0 0 0 0 0 0 0 0 0 0 0 0 0 0 0 0 0 0 0 0 0 0 0 0 0 0 0 0 0 0 0 0 0 0 0 0 0 0 0 0 0 0 0 0 0 0 0 0 0 0 0 0 0 0 0 0 0 0 0 0 0 0 0 0 0 0 0 0 0 0 0 0 0 0 0 0 0 0 0 0 0 0 0 0 0 0 0 0 0 0 0 0 0 0 0 0 0 0 0 0 0 0 0 0 0 0 0 0 0 0 0 0 0 0 0 0 0 0 0 0 0 0 0 0 0 0 0 0 0 0 0 0 0 0 0 0 0 0 0 0 0 0 0 0 0 0 0 0 0 0 0 0 0 0 0 0 0 0 0 0 0 0 0 0 0 0 0 0 
0 0 0 0 0 0 0 0 0 0 0 0 0 0 0 0 0 0 0 0 0 0 0 0 0 0 0 0 0 0 0 0 0 0 0 0 0 0 0 0 0 0 0 0 0 0 0 0 0 0 0 0 0 0 0 0 0 0 0 0 0 0 0 0 0 0 0 0 0 0 0 0 0 0 0 0 0 0 0 0 0 0 0 0 0 0 0 0 0 0 0 0 0 0 0 0 0 0 0 0 0 0 0 0 0 0 0 0 0 0 0 0 0 0 0 0 0 0 0 0 0 0 0 0 0 0 0 0 0 0 0 0 0 0 0 0 0 0 0 0 0 0 0 0 0 0 0 0 0 0 0 0 0 0 0 0 0 0 0 0 0 0 0 0 0 0 0 0 0 0 0 0 0 0 0 0 0 0 0 0 
0 0 0 0 0 0 0 0 0 0 0 0 0 0 0 0 0 0 0 0 0 0 0 0 0 0 0 0 0 0 0 0 0 0 0 0 0 0 0 0 0 0 0 0 0 0 0 0 0 0 0 0 0 0 0 0 0 0 0 0 0 0 0 0 0 0 0 0 0 0 0 0 0 0 0 0 0 0 0 0 0 0 0 0 0 0 0 0 0 0 0 0 0 0 0 0 0 0 0 0 0 0 0 0 0 0 0 0 0 0 0 0 0 0 0 0 0 0 0 0 0 0 0 0 0 0 0 0 0 0 0 0 0 0 0 0 0 0 0 0 0 0 0 0 0 0 0 0 0 0 0 0 0 0 0 0 0 0 0 0 0 0 0 0 0 0 0 0 0 0 0 0 0 0 0 0 0 0 0 0 
0 0 0 0 0 0 0 0 0 0 0 0 0 0 0 0 0 0 0 0 0 0 0 0 0 0 0 0 0 0 0 0 0 0 0 0 0 0 0 0 0 0 0 0 0 0 0 0 0 0 0 0 0 0 0 0 0 0 0 0 0 0 0 0 0 0 0 0 0 0 0 0 0 0 0 0 0 0 0 0 0 0 0 0 0 0 0 0 0 0 0 0 0 0 0 0 0 0 0 0 0 0 0 0 0 0 0 0 0 0 0 0 0 0 0 0 0 0 0 0 0 0 0 0 0 0 0 0 0 0 0 0 0 0 0 0 0 0 0 0 0 0 0 0 0 0 0 0 0 0 0 0 0 0 0 0 0 0 0 0 0 0 0 0 0 0 0 0 0 0 0 0 0 0 0 0 0 0 0 0 
0 0 0 0 0 0 0 0 0 0 0 0 0 0 0 0 0 0 0 0 0 0 0 0 0 0 0 0 0 0 0 0 0 0 0 0 0 0 0 0 0 0 0 0 0 0 0 0 0 0 0 0 0 0 0 0 0 0 0 0 0 0 0 0 0 0 0 0 0 0 0 0 0 0 0 0 0 0 0 0 0 0 0 0 0 0 0 0 0 0 0 0 0 0 0 0 0 0 0 0 0 0 0 0 0 0 0 0 0 0 0 0 0 0 0 0 0 0 0 0 0 0 0 0 0 0 0 0 0 0 0 0 0 0 0 0 0 0 0 0 0 0 0 0 0 0 0 0 0 0 0 0 0 0 0 0 0 0 0 0 0 0 0 0 0 0 0 0 0 0 0 0 0 0 0 0 0 0 0 0 
0 0 0 0 0 0 0 0 0 0 0 0 0 0 0 0 0 0 0 0 0 0 0 0 0 0 0 0 0 0 0 0 0 0 0 0 0 0 0 0 0 0 0 0 0 0 0 0 0 0 0 0 0 0 0 0 0 0 0 0 0 0 0 0 0 0 0 0 0 0 0 0 0 0 0 0 0 0 0 0 0 0 0 0 0 0 0 0 0 0 0 0 0 0 0 0 0 0 0 0 0 0 0 0 0 0 0 0 0 0 0 0 0 0 0 0 0 0 0 0 0 0 0 0 0 0 0 0 0 0 0 0 0 0 0 0 0 0 0 0 0 0 0 0 0 0 0 0 0 0 0 0 0 0 0 0 0 0 0 0 0 0 0 0 0 0 0 0 0 0 0 0 0 0 0 0 0 0 0 0 
0 0 0 0 0 0 0 0 0 0 0 0 0 0 0 0 0 0 0 0 0 0 0 0 0 0 0 0 0 0 0 0 0 0 0 0 0 0 0 0 0 0 0 0 0 0 0 0 0 0 0 0 0 0 0 0 0 0 0 0 0 0 0 0 0 0 0 0 0 0 0 0 0 0 0 0 0 0 0 0 0 0 0 0 0 0 0 0 0 0 0 0 0 0 0 0 0 0 0 0 0 0 0 0 0 0 0 0 0 0 0 0 0 0 0 0 0 0 0 0 0 0 0 0 0 0 0 0 0 0 0 0 0 0 0 0 0 0 0 0 0 0 0 0 0 0 0 0 0 0 0 0 0 0 0 0 0 0 0 0 0 0 0 0 0 0 0 0 0 0 0 0 0 0 0 0 0 0 0 0 
0 0 0 0 0 0 0 0 0 0 0 0 0 0 0 0 0 0 0 0 0 0 0 0 0 0 0 0 0 0 2690 0 0 5497 0 0 5384 0 0 5455 0 0 5473 0 0 5486 0 0 5463 0 0 5454 0 0 5372 0 0 5471 0 0 5436 0 0 5400 0 0 5403 0 0 5484 0 0 5513 0 0 5416 0 0 5390 0 0 5381 0 0 5493 0 0 5453 0 0 5400 0 0 5292 0 0 5349 0 0 5526 0 0 5412 0 0 5417 0 0 5576 0 0 5417 0 0 5447 0 0 5389 0 0 5338 0 0 5416 0 0 5437 0 0 5372 0 0 5425 0 0 5461 0 0 5460 0 0 5433 0 0 5498 0 0 5460 0 0 2689 0 0 0 0 0 0 0 0 0 0 0 0 0 0 0 0 0 0 0 0 0 0 0 0 0 0 0 0 0 
0 0 0 0 0 0 0 0 0 0 0 0 0 0 0 0 0 0 0 0 0 0 0 0 0 0 0 0 0 0 5423 0 0 10930 0 0 10964 0 0 10895 0 0 10816 0 0 10915 0 0 11014 0 0 10795 0 0 10849 0 0 10774 0 0 10947 0 0 10782 0 0 10913 0 0 10890 0 0 10845 0 0 10873 0 0 10736 0 0 10900 0 0 11035 0 0 11014 0 0 10754 0 0 10984 0 0 10748 0 0 10945 0 0 11198 0 0 10960 0 0 11108 0 0 10906 0 0 10960 0 0 10849 0 0 10897 0 0 10889 0 0 10805 0 0 10907 0 0 10703 0 0 10869 0 0 10799 0 0 10990 0 0 10871 0 0 10797 0 0 5436 0 0 0 0 0 0 0 0 0 0 0 0 0 0 0 0 0 0 0 0 0 0 0 0 0 0 0 0 0 
0 0 0 0 0 0 0 0 0 0 0 0 0 0 0 0 0 0 0 0 0 0 0 0 0 0 0 0 0 0 5439 0 0 10995 0 0 10920 0 0 10886 0 0 10910 0 0 11111 0 0 10955 0 0 10870 0 0 10823 0 0 10981 0 0 11043 0 0 10985 0 0 10849 0 0 10932 0 0 10944 0 0 11046 0 0 10802 0 0 11001 0 0 11056 0 0 10950 0 0 11093 0 0 10839 0 0 11009 0 0 10717 0 0 10645 0 0 10821 0 0 10886 0 0 10785 0 0 10808 0 0 10873 0 0 10840 0 0 10910 0 0 10881 0 0 10929 0 0 10893 0 0 10932 0 0 10880 0 0 10734 0 0 11240 0 0 10941 0 0 5390 0 0 0 0 0 0 0 0 0 0 0 0 0 0 0 0 0 0 0 0 0 0 0 0 0 0 0 0 0 
0 0 0 0 0 0 0 0 0 0 0 0 0 0 0 0 0 0 0 0 0 0 0 0 0 0 0 0 0 0 5449 0 0 11110 0 0 10815 0 0 10905 0 0 10852 0 0 10910 0 0 11202 0 0 10909 0 0 10849 0 0 10859 0 0 11092 0 0 10932 0 0 10697 0 0 10878 0 0 10861 0 0 10816 0 0 10862 0 0 11083 0 0 10886 0 0 10975 0 0 10854 0 0 10827 0 0 10949 0 0 11228 0 0 11045 0 0 10865 0 0 10800 0 0 10761 0 0 10892 0 0 10761 0 0 11015 0 0 10960 0 0 10923 0 0 10898 0 0 10767 0 0 11036 0 0 11051 0 0 10972 0 0 11171 0 0 10929 0 0 5490 0 0 0 0 0 0 0 0 0 0 0 0 0 0 0 0 0 0 0 0 0 0 0 0 0 0 0 0 0 
0 0 0 0 0 0 0 0 0 0 0 0 0 0 0 0 0 0 0 0 0 0 0 0 0 0 0 0 0 0 5308 0 0 10894 0 0 10903 0 0 10833 0 0 10898 0 0 10917 0 0 10950 0 0 10911 0 0 10884 0 0 10947 0 0 10930 0 0 10988 0 0 10934 0 0 10957 0 0 10682 0 0 10993 0 0 10828 0 0 10840 0 0 10916 0 0 11117 0 0 10922 0 0 10949 0 0 10901 0 0 10763 0 0 10847 0 0 11020 0 0 10819 0 0 10808 0 0 10915 0 0 10904 0 0 10947 0 0 10879 0 0 10780 0 0 10742 0 0 10958 0 0 11002 0 0 10844 0 0 10978 0 0 10924 0 0 10816 0 0 5410 0 0 0 0 0 0 0 0 0 0 0 0 0 0 0 0 0 0 0 0 0 0 0 0 0 0 0 0 0 
0 0 0 0 0 0 0 0 0 0 0 0 0 0 0 0 0 0 0 0 0 0 0 0 0 0 0 0 0 0 5338 0 0 10883 0 0 10955 0 0 10911 0 0 10993 0 0 10867 0 0 11094 0 0 10941 0 0 10982 0 0 10865 0 0 10885 0 0 10925 0 0 10959 0 0 11188 0 0 11139 0 0 10804 0 0 10869 0 0 11023 0 0 11020 0 0 11149 0 0 10946 0 0 10750 0 0 10847 0 0 10745 0 0 10789 0 0 10830 0 0 10926 0 0 10645 0 0 10791 0 0 11075 0 0 10900 0 0 10839 0 0 10936 0 0 11168 0 0 10906 0 0 10853 0 0 10885 0 0 10920 0 0 10800 0 0 10856 0 0 5548 0 0 0 0 0 0 0 0 0 0 0 0 0 0 0 0 0 0 0 0 0 0 0 0 0 0 0 0 0 
0 0 0 0 0 0 0 0 0 0 0 0 0 0 0 0 0 0 0 0 0 0 0 0 0 0 0 0 0 0 5484 0 0 11103 0 0 10893 0 0 10970 0 0 10938 0 0 10971 0 0 10995 0 0 10803 0 0 10999 0 0 11068 0 0 10977 0 0 11127 0 0 10997 0 0 10943 0 0 10673 0 0 10912 0 0 10823 0 0 10960 0 0 10906 0 0 10928 0 0 10916 0 0 10955 0 0 10932 0 0 10898 0 0 10856 0 0 10931 0 0 10933 0 0 11006 0 0 10905 0 0 11001 0 0 10917 0 0 10994 0 0 10848 0 0 10996 0 0 10988 0 0 11047 0 0 10996 0 0 11161 0 0 10770 0 0 10889 0 0 5555 0 0 0 0 0 0 0 0 0 0 0 0 0 0 0 0 0 0 0 0 0 0 0 0 0 0 0 0 0 
0 0 0 0 0 0 0 0 0 0 0 0 0 0 0 0 0 0 0 0 0 0 0 0 0 0 0 0 0 0 5414 0 0 10945 0 0 10943 0 0 10987 0 0 11123 0 0 10909 0 0 10838 0 0 10829 0 0 10818 0 0 10976 0 0 10799 0 0 10856 0 0 10906 0 0 10881 0 0 11055 0 0 10860 0 0 10832 0 0 10965 0 0 11084 0 0 10868 0 0 11035 0 0 10889 0 0 10892 0 0 10928 0 0 10882 0 0 10909 0 0 11034 0 0 10801 0 0 10960 0 0 11090 0 0 10878 0 0 10729 0 0 10977 0 0 10710 0 0 10728 0 0 10943 0 0 10816 0 0 10755 0 0 11138 0 0 10886 0 0 5457 0 0 0 0 0 0 0 0 0 0 0 0 0 0 0 0 0 0 0 0 0 0 0 0 0 0 0 0 0 
0 0 0 0 0 0 0 0 0 0 0 0 0 0 0 0 0 0 0 0 0 0 0 0 0 0 0 0 0 0 5559 0 0 11053 0 0 11096 0 0 10792 0 0 10999 0 0 10757 0 0 11094 0 0 10736 0 0 10889 0 0 10895 0 0 10930 0 0 10945 0 0 10979 0 0 11116 0 0 10780 0 0 10754 0 0 11157 0 0 10929 0 0 10971 0 0 10804 0 0 10965 0 0 10852 0 0 10808 0 0 10702 0 0 10894 0 0 10903 0 0 10943 0 0 10846 0 0 10921 0 0 11048 0 0 10770 0 0 10903 0 0 10901 0 0 11004 0 0 10918 0 0 11001 0 0 10994 0 0 10724 0 0 10844 0 0 11065 0 0 5345 0 0 0 0 0 0 0 0 0 0 0 0 0 0 0 0 0 0 0 0 0 0 0 0 0 0 0 0 0 
0 0 0 0 0 0 0 0 0 0 0 0 0 0 0 0 0 0 0 0 0 0 0 0 0 0 0 0 0 0 5397 0 0 10894 0 0 11000 0 0 10983 0 0 10875 0 0 10859 0 0 10678 0 0 10918 0 0 11100 0 0 10784 0 0 10935 0 0 11044 0 0 10871 0 0 11085 0 0 10964 0 0 11010 0 0 10749 0 0 10731 0 0 10987 0 0 10939 0 0 10978 0 0 11045 0 0 10867 0 0 11062 0 0 10802 0 0 10975 0 0 10924 0 0 11020 0 0 10895 0 0 10841 0 0 10784 0 0 10884 0 0 10897 0 0 10846 0 0 10900 0 0 10984 0 0 10991 0 0 10826 0 0 10753 0 0 10851 0 0 5547 0 0 0 0 0 0 0 0 0 0 0 0 0 0 0 0 0 0 0 0 0 0 0 0 0 0 0 0 0 
0 0 0 0 0 0 0 0 0 0 0 0 0 0 0 0 0 0 0 0 0 0 0 0 0 0 0 0 0 0 5395 0 0 10781 0 0 10972 0 0 10925 0 0 10985 0 0 10986 0 0 10871 0 0 10777 0 0 11069 0 0 10983 0 0 10850 0 0 10910 0 0 10790 0 0 10726 0 0 11046 0 0 10908 0 0 10949 0 0 10899 0 0 11109 0 0 10901 0 0 10952 0 0 10791 0 0 10760 0 0 10833 0 0 10923 0 0 10969 0 0 10799 0 0 10862 0 0 11052 0 0 11021 0 0 10870 0 0 10856 0 0 10975 0 0 10733 0 0 10901 0 0 10974 0 0 11013 0 0 10948 0 0 10864 0 0 10861 0 0 5616 0 0 0 0 0 0 0 0 0 0 0 0 0 0 0 0 0 0 0 0 0 0 0 0 0 0 0 0 0 
0 0 0 0 0 0 0 0 0 0 0 0 0 0 0 0 0 0 0 0 0 0 0 0 0 0 0 0 0 0 5416 0 0 10871 0 0 10907 0 0 10748 0 0 11068 0 0 10833 0 0 11065 0 0 10810 0 0 11152 0 0 11041 0 0 10783 0 0 10898 0 0 10975 0 0 10974 0 0 11132 0 0 10881 0 0 10979 0 0 10876 0 0 11025 0 0 10750 0 0 10861 0 0 10972 0 0 10953 0 0 10971 0 0 10949 0 0 10902 0 0 10992 0 0 10892 0 0 10636 0 0 10962 0 0 10926 0 0 10910 0 0 10870 0 0 10891 0 0 10944 0 0 10822 0 0 10866 0 0 10809 0 0 10867 0 0 10969 0 0 5514 0 0 0 0 0 0 0 0 0 0 0 0 0 0 0 0 0 0 0 0 0 0 0 0 0 0 0 0 0 
0 0 0 0 0 0 0 0 0 0 0 0 0 0 0 0 0 0 0 0 0 0 0 0 0 0 0 0 0 0 5409 0 0 10601 0 0 10928 0 0 10955 0 0 10941 0 0 10970 0 0 10822 0 0 10851 0 0 10980 0 0 10788 0 0 10985 0 0 10959 0 0 10854 0 0 10781 0 0 10980 0 0 10851 0 0 10884 0 0 10793 0 0 10873 0 0 10968 0 0 11002 0 0 10918 0 0 10867 0 0 11033 0 0 10869 0 0 10990 0 0 10868 0 0 10808 0 0 10778 0 0 10761 0 0 10885 0 0 10969 0 0 10935 0 0 10804 0 0 11020 0 0 10788 0 0 11021 0 0 10996 0 0 10840 0 0 10942 0 0 5233 0 0 0 0 0 0 0 0 0 0 0 0 0 0 0 0 0 0 0 0 0 0 0 0 0 0 0 0 0 
0 0 0 0 0 0 0 0 0 0 0 0 0 0 0 0 0 0 0 0 0 0 0 0 0 0 0 0 0 0 5452 0 0 10918 0 0 10706 0 0 11000 0 0 10934 0 0 10892 0 0 10918 0 0 10918 0 0 11036 0 0 10859 0 0 10887 0 0 10892 0 0 10726 0 0 10865 0 0 10939 0 0 10686 0 0 10906 0 0 11107 0 0 10797 0 0 10878 0 0 10764 0 0 10899 0 0 10814 0 0 10746 0 0 10836 0 0 10995 0 0 10994 0 0 11025 0 0 10867 0 0 10752 0 0 10949 0 0 10725 0 0 10839 0 0 10680 0 0 10910 0 0 10719 0 0 10862 0 0 10952 0 0 10925 0 0 11107 0 0 5498 0 0 0 0 0 0 0 0 0 0 0 0 0 0 0 0 0 0 0 0 0 0 0 0 0 0 0 0 0 
0 0 0 0 0 0 0 0 0 0 0 0 0 0 0 0 0 0 0 0 0 0 0 0 0 0 0 0 0 0 5437 0 0 11026 0 0 10954 0 0 10794 0 0 10732 0 0 10887 0 0 10895 0 0 10983 0 0 10795 0 0 11011 0 0 10951 0 0 10918 0 0 10789 0 0 11002 0 0 10803 0 0 10934 0 0 11032 0 0 10980 0 0 11031 0 0 10876 0 0 10845 0 0 10997 0 0 10774 0 0 10804 0 0 10959 0 0 10893 0 0 10940 0 0 10841 0 0 10836 0 0 10839 0 0 11027 0 0 10976 0 0 10895 0 0 10973 0 0 11002 0 0 11091 0 0 11020 0 0 11088 0 0 10785 0 0 10872 0 0 5395 0 0 0 0 0 0 0 0 0 0 0 0 0 0 0 0 0 0 0 0 0 0 0 0 0 0 0 0 0 
0 0 0 0 0 0 0 0 0 0 0 0 0 0 0 0 0 0 0 0 0 0 0 0 0 0 0 0 0 0 5436 0 0 10859 0 0 10926 0 0 10824 0 0 10730 0 0 10875 0 0 10938 0 0 10890 0 0 10848 0 0 10907 0 0 10800 0 0 10945 0 0 10915 0 0 10835 0 0 10880 0 0 10686 0 0 10932 0 0 10880 0 0 10854 0 0 10846 0 0 10953 0 0 10937 0 0 10964 0 0 11035 0 0 11048 0 0 10787 0 0 11053 0 0 11087 0 0 11070 0 0 10972 0 0 10876 0 0 10791 0 0 10900 0 0 10975 0 0 10909 0 0 10915 0 0 10991 0 0 11020 0 0 10845 0 0 10774 0 0 5448 0 0 0 0 0 0 0 0 0 0 0 0 0 0 0 0 0 0 0 0 0 0 0 0 0 0 0 0 0 
0 0 0 0 0 0 0 0 0 0 0 0 0 0 0 0 0 0 0 0 0 0 0 0 0 0 0 0 0 0 5392 0 0 10933 0 0 10831 0 0 10817 0 0 11015 0 0 10785 0 0 10794 0 0 10827 0 0 10856 0 0 10989 0 0 10888 0 0 10979 0 0 10907 0 0 10857 0 0 11027 0 0 10832 0 0 10926 0 0 10836 0 0 10701 0 0 10913 0 0 10924 0 0 10971 0 0 11086 0 0 11025 0 0 10911 0 0 10958 0 0 10933 0 0 10792 0 0 10725 0 0 10829 0 0 10785 0 0 10734 0 0 10781 0 0 11171 0 0 10942 0 0 10838 0 0 10847 0 0 10873 0 0 10796 0 0 10777 0 0 5474 0 0 0 0 0 0 0 0 0 0 0 0 0 0 0 0 0 0 0 0 0 0 0 0 0 0 0 0 0 
0 0 0 0 0 0 0 0 0 0 0 0 0 0 0 0 0 0 0 0 0 0 0 0 0 0 0 0 0 0 5466 0 0 10993 0 0 10896 0 0 10860 0 0 10875 0 0 10950 0 0 10673 0 0 10866 0 0 10855 0 0 10969 0 0 11025 0 0 10827 0 0 11021 0 0 10962 0 0 10868 0 0 10910 0 0 11029 0 0 10847 0 0 10764 0 0 10897 0 0 11032 0 0 11057 0 0 10814 0 0 11036 0 0 10766 0 0 10988 0 0 10981 0 0 10838 0 0 10840 0 0 10790 0 0 10984 0 0 10923 0 0 10756 0 0 11183 0 0 10879 0 0 11097 0 0 11030 0 0 10828 0 0 10909 0 0 10834 0 0 5495 0 0 0 0 0 0 0 0 0 0 0 0 0 0 0 0 0 0 0 0 0 0 0 0 0 0 0 0 0 
0 0 0 0 0 0 0 0 0 0 0 0 0 0 0 0 0 0 0 0 0 0 0 0 0 0 0 0 0 0 5454 0 0 10759 0 0 10955 0 0 10786 0 0 10868 0 0 10841 0 0 10703 0 0 10739 0 0 10915 0 0 10935 0 0 10915 0 0 10914 0 0 10873 0 0 10923 0 0 10672 0 0 10794 0 0 10942 0 0 10952 0 0 10648 0 0 10874 0 0 10787 0 0 10938 0 0 10970 0 0 10852 0 0 11173 0 0 10833 0 0 10926 0 0 10699 0 0 10849 0 0 10635 0 0 10849 0 0 11077 0 0 10790 0 0 10866 0 0 11003 0 0 11025 0 0 10906 0 0 10824 0 0 10883 0 0 10897 0 0 5365 0 0 0 0 0 0 0 0 0 0 0 0 0 0 0 0 0 0 0 0 0 0 0 0 0 0 0 0 0 
0 0 0 0 0 0 0 0 0 0 0 0 0 0 0 0 0 0 0 0 0 0 0 0 0 0 0 0 0 0 5372 0 0 10950 0 0 10829 0 0 10860 0 0 10902 0 0 10716 0 0 10887 0 0 10828 0 0 10868 0 0 11005 0 0 11034 0 0 10909 0 0 11070 0 0 10954 0 0 10885 0 0 11007 0 0 10983 0 0 10899 0 0 10932 0 0 10964 0 0 10834 0 0 10885 0 0 10850 0 0 10981 0 0 10903 0 0 10797 0 0 10733 0 0 10867 0 0 10985 0 0 10967 0 0 10880 0 0 10772 0 0 11082 0 0 11042 0 0 11068 0 0 10812 0 0 10908 0 0 11097 0 0 10980 0 0 10989 0 0 5336 0 0 0 0 0 0 0 0 0 0 0 0 0 0 0 0 0 0 0 0 0 0 0 0 0 0 0 0 0 
0 0 0 0 0 0 0 0 0 0 0 0 0 0 0 0 0 0 0 0 0 0 0 0 0 0 0 0 0 0 5493 0 0 10724 0 0 10830 0 0 11021 0 0 10669 0 0 10943 0 0 11012 0 0 10788 0 0 11058 0 0 10895 0 0 10852 0 0 10905 0 0 10865 0 0 11039 0 0 10946 0 0 11001 0 0 10748 0 0 10917 0 0 10984 0 0 10797 0 0 10923 0 0 10893 0 0 10866 0 0 11196 0 0 10922 0 0 10752 0 0 10787 0 0 10952 0 0 10734 0 0 10860 0 0 10858 0 0 10986 0 0 10773 0 0 10946 0 0 11019 0 0 10923 0 0 10824 0 0 10999 0 0 11074 0 0 10981 0 0 5463 0 0 0 0 0 0 0 0 0 0 0 0 0 0 0 0 0 0 0 0 0 0 0 0 0 0 0 0 0 
0 0 0 0 0 0 0 0 0 0 0 0 0 0 0 0 0 0 0 0 0 0 0 0 0 0 0 0 0 0 5407 0 0 10946 0 0 10750 0 0 10997 0 0 10802 0 0 10793 0 0 10836 0 0 11036 0 0 11015 0 0 10749 0 0 11056 0 0 10826 0 0 10975 0 0 10981 0 0 11007 0 0 10884 0 0 10874 0 0 10765 0 0 10878 0 0 10713 0 0 10862 0 0 10946 0 0 10880 0 0 10874 0 0 10997 0 0 10926 0 0 10962 0 0 10925 0 0 10856 0 0 10977 0 0 10826 0 0 10921 0 0 10783 0 0 10933 0 0 11118 0 0 10767 0 0 10860 0 0 10923 0 0 10887 0 0 10996 0 0 5391 0 0 0 0 0 0 0 0 0 0 0 0 0 0 0 0 0 0 0 0 0 0 0 0 0 0 0 0 0 
0 0 0 0 0 0 0 0 0 0 0 0 0 0 0 0 0 0 0 0 0 0 0 0 0 0 0 0 0 0 5394 0 0 10841 0 0 10834 0 0 10856 0 0 10894 0 0 10671 0 0 11096 0 0 10788 0 0 10924 0 0 11011 0 0 10886 0 0 10751 0 0 10791 0 0 10932 0 0 10908 0 0 10729 0 0 10791 0 0 10816 0 0 10888 0 0 10966 0 0 10853 0 0 10927 0 0 10784 0 0 10973 0 0 11001 0 0 11113 0 0 10951 0 0 10939 0 0 10856 0 0 11034 0 0 11004 0 0 11052 0 0 10982 0 0 10662 0 0 10819 0 0 10790 0 0 10980 0 0 10988 0 0 10935 0 0 10797 0 0 5471 0 0 0 0 0 0 0 0 0 0 0 0 0 0 0 0 0 0 0 0 0 0 0 0 0 0 0 0 0 
0 0 0 0 0 0 0 0 0 0 0 0 0 0 0 0 0 0 0 0 0 0 0 0 0 0 0 0 0 0 5453 0 0 10835 0 0 10963 0 0 10792 0 0 10925 0 0 10842 0 0 11038 0 0 10937 0 0 10573 0 0 10888 0 0 11125 0 0 10726 0 0 10856 0 0 10849 0 0 10866 0 0 10730 0 0 11041 0 0 10992 0 0 10954 0 0 10944 0 0 11075 0 0 11022 0 0 10750 0 0 10941 0 0 10889 0 0 10996 0 0 11011 0 0 11036 0 0 11179 0 0 10961 0 0 10887 0 0 10828 0 0 10792 0 0 10959 0 0 10923 0 0 10891 0 0 10882 0 0 11146 0 0 10965 0 0 11093 0 0 5287 0 0 0 0 0 0 0 0 0 0 0 0 0 0 0 0 0 0 0 0 0 0 0 0 0 0 0 0 0 
0 0 0 0 0 0 0 0 0 0 0 0 0 0 0 0 0 0 0 0 0 0 0 0 0 0 0 0 0 0 5454 0 0 10901 0 0 10821 0 0 10928 0 0 10899 0 0 10885 0 0 10916 0 0 10911 0 0 10803 0 0 10894 0 0 10907 0 0 10916 0 0 11040 0 0 11060 0 0 10926 0 0 11040 0 0 10922 0 0 10893 0 0 10986 0 0 10901 0 0 10832 0 0 10768 0 0 10879 0 0 10870 0 0 10855 0 0 11038 0 0 11114 0 0 10921 0 0 11099 0 0 10947 0 0 10890 0 0 10900 0 0 11068 0 0 10896 0 0 10778 0 0 10885 0 0 10934 0 0 10863 0 0 10822 0 0 10800 0 0 5454 0 0 0 0 0 0 0 0 0 0 0 0 0 0 0 0 0 0 0 0 0 0 0 0 0 0 0 0 0 
0 0 0 0 0 0 0 0 0 0 0 0 0 0 0 0 0 0 0 0 0 0 0 0 0 0 0 0 0 0 5418 0 0 10817 0 0 10753 0 0 11036 0 0 10836 0 0 10841 0 0 10878 0 0 10911 0 0 10847 0 0 10841 0 0 10893 0 0 10790 0 0 10950 0 0 10938 0 0 10592 0 0 10963 0 0 11003 0 0 10701 0 0 10925 0 0 10743 0 0 11021 0 0 10978 0 0 10752 0 0 10842 0 0 10891 0 0 10902 0 0 10894 0 0 10986 0 0 10912 0 0 11142 0 0 11013 0 0 10832 0 0 10896 0 0 11000 0 0 10913 0 0 10729 0 0 10953 0 0 10878 0 0 10992 0 0 10734 0 0 5402 0 0 0 0 0 0 0 0 0 0 0 0 0 0 0 0 0 0 0 0 0 0 0 0 0 0 0 0 0 
0 0 0 0 0 0 0 0 0 0 0 0 0 0 0 0 0 0 0 0 0 0 0 0 0 0 0 0 0 0 5542 0 0 10905 0 0 10889 0 0 11001 0 0 10834 0 0 10867 0 0 10847 0 0 10924 0 0 10901 0 0 10874 0 0 10953 0 0 10866 0 0 10777 0 0 10966 0 0 10919 0 0 10926 0 0 10807 0 0 10996 0 0 10838 0 0 10944 0 0 10869 0 0 10833 0 0 10921 0 0 10821 0 0 10937 0 0 10881 0 0 10956 0 0 11107 0 0 10970 0 0 11067 0 0 10956 0 0 11020 0 0 10769 0 0 10805 0 0 11053 0 0 11019 0 0 11078 0 0 10966 0 0 10816 0 0 11057 0 0 5368 0 0 0 0 0 0 0 0 0 0 0 0 0 0 0 0 0 0 0 0 0 0 0 0 0 0 0 0 0 
0 0 0 0 0 0 0 0 0 0 0 0 0 0 0 0 0 0 0 0 0 0 0 0 0 0 0 0 0 0 5604 0 0 10779 0 0 10917 0 0 10833 0 0 10812 0 0 11028 0 0 10954 0 0 10918 0 0 10898 0 0 10767 0 0 11112 0 0 10877 0 0 10934 0 0 10935 0 0 10853 0 0 10961 0 0 10936 0 0 10734 0 0 10647 0 0 11091 0 0 10766 0 0 10923 0 0 10812 0 0 11120 0 0 10924 0 0 10768 0 0 10751 0 0 10803 0 0 11040 0 0 10865 0 0 10809 0 0 11017 0 0 10816 0 0 11110 0 0 10789 0 0 10886 0 0 10853 0 0 10852 0 0 10941 0 0 10844 0 0 5392 0 0 0 0 0 0 0 0 0 0 0 0 0 0 0 0 0 0 0 0 0 0 0 0 0 0 0 0 0 
0 0 0 0 0 0 0 0 0 0 0 0 0 0 0 0 0 0 0 0 0 0 0 0 0 0 0 0 0 0 5526 0 0 10886 0 0 10911 0 0 11177 0 0 10731 0 0 10933 0 0 10786 0 0 10946 0 0 10954 0 0 10783 0 0 10896 0 0 10972 0 0 10683 0 0 10875 0 0 10888 0 0 10920 0 0 10820 0 0 11001 0 0 11039 0 0 10794 0 0 11047 0 0 10850 0 0 11050 0 0 10733 0 0 10885 0 0 11194 0 0 10880 0 0 11076 0 0 10872 0 0 10898 0 0 10820 0 0 10825 0 0 11093 0 0 11024 0 0 10916 0 0 10865 0 0 11022 0 0 10737 0 0 10893 0 0 10979 0 0 5430 0 0 0 0 0 0 0 0 0 0 0 0 0 0 0 0 0 0 0 0 0 0 0 0 0 0 0 0 0 
0 0 0 0 0 0 0 0 0 0 0 0 0 0 0 0 0 0 0 0 0 0 0 0 0 0 0 0 0 0 5393 0 0 10873 0 0 10842 0 0 10883 0 0 10703 0 0 10823 0 0 10975 0 0 10953 0 0 10995 0 0 10936 0 0 10943 0 0 11073 0 0 10940 0 0 10874 0 0 10995 0 0 10801 0 0 10911 0 0 10945 0 0 10849 0 0 10987 0 0 10888 0 0 10921 0 0 10891 0 0 10768 0 0 10818 0 0 10790 0 0 10971 0 0 10704 0 0 10967 0 0 10951 0 0 10853 0 0 10933 0 0 10792 0 0 10936 0 0 10755 0 0 10790 0 0 10808 0 0 10923 0 0 10934 0 0 10695 0 0 5468 0 0 0 0 0 0 0 0 0 0 0 0 0 0 0 0 0 0 0 0 0 0 0 0 0 0 0 0 0 
0 0 0 0 0 0 0 0 0 0 0 0 0 0 0 0 0 0 0 0 0 0 0 0 0 0 0 0 0 0 5470 0 0 10802 0 0 10956 0 0 10973 0 0 10846 0 0 10949 0 0 11174 0 0 10963 0 0 10814 0 0 10887 0 0 10858 0 0 10921 0 0 11004 0 0 10867 0 0 11016 0 0 10877 0 0 11107 0 0 10994 0 0 10838 0 0 10971 0 0 10693 0 0 10883 0 0 10883 0 0 10906 0 0 10893 0 0 11074 0 0 10905 0 0 11046 0 0 10870 0 0 10953 0 0 10823 0 0 10667 0 0 10872 0 0 10784 0 0 10886 0 0 11076 0 0 10893 0 0 10936 0 0 10897 0 0 10990 0 0 5489 0 0 0 0 0 0 0 0 0 0 0 0 0 0 0 0 0 0 0 0 0 0 0 0 0 0 0 0 0 
0 0 0 0 0 0 0 0 0 0 0 0 0 0 0 0 0 0 0 0 0 0 0 0 0 0 0 0 0 0 5408 0 0 10824 0 0 10681 0 0 10867 0 0 10878 0 0 10995 0 0 11079 0 0 11145 0 0 11039 0 0 10790 0 0 10762 0 0 10915 0 0 10949 0 0 11047 0 0 10765 0 0 11235 0 0 10801 0 0 10898 0 0 10786 0 0 10757 0 0 10821 0 0 10923 0 0 10895 0 0 10899 0 0 10785 0 0 10884 0 0 10979 0 0 10985 0 0 10698 0 0 10891 0 0 10971 0 0 10716 0 0 10933 0 0 10946 0 0 10926 0 0 10521 0 0 10815 0 0 10907 0 0 10798 0 0 10866 0 0 5388 0 0 0 0 0 0 0 0 0 0 0 0 0 0 0 0 0 0 0 0 0 0 0 0 0 0 0 0 0 
0 0 0 0 0 0 0 0 0 0 0 0 0 0 0 0 0 0 0 0 0 0 0 0 0 0 0 0 0 0 5506 0 0 11039 0 0 10933 0 0 10873 0 0 10761 0 0 10715 0 0 10987 0 0 10993 0 0 10794 0 0 11049 0 0 10931 0 0 10818 0 0 10923 0 0 10936 0 0 10855 0 0 10988 0 0 11001 0 0 10925 0 0 10914 0 0 10909 0 0 10858 0 0 11059 0 0 10963 0 0 10918 0 0 11157 0 0 10814 0 0 11057 0 0 10775 0 0 11091 0 0 10799 0 0 10890 0 0 10897 0 0 10840 0 0 11043 0 0 10851 0 0 10939 0 0 11010 0 0 10866 0 0 10840 0 0 10909 0 0 5441 0 0 0 0 0 0 0 0 0 0 0 0 0 0 0 0 0 0 0 0 0 0 0 0 0 0 0 0 0 
0 0 0 0 0 0 0 0 0 0 0 0 0 0 0 0 0 0 0 0 0 0 0 0 0 0 0 0 0 0 5469 0 0 10958 0 0 10934 0 0 11095 0 0 10877 0 0 10787 0 0 11065 0 0 10812 0 0 10869 0 0 10858 0 0 10971 0 0 10917 0 0 10821 0 0 10761 0 0 10830 0 0 11032 0 0 10887 0 0 10881 0 0 11075 0 0 10758 0 0 10817 0 0 10898 0 0 10939 0 0 10905 0 0 10943 0 0 10842 0 0 10795 0 0 10897 0 0 10807 0 0 11045 0 0 10839 0 0 10894 0 0 11027 0 0 10853 0 0 10945 0 0 10974 0 0 10891 0 0 10901 0 0 10997 0 0 10977 0 0 5392 0 0 0 0 0 0 0 0 0 0 0 0 0 0 0 0 0 0 0 0 0 0 0 0 0 0 0 0 0 
0 0 0 0 0 0 0 0 0 0 0 0 0 0 0 0 0 0 0 0 0 0 0 0 0 0 0 0 0 0 5518 0 0 10928 0 0 10718 0 0 11013 0 0 10873 0 0 11081 0 0 10869 0 0 10954 0 0 10980 0 0 10915 0 0 10797 0 0 10767 0 0 10850 0 0 10856 0 0 10986 0 0 10801 0 0 10897 0 0 10952 0 0 10962 0 0 10864 0 0 10869 0 0 10818 0 0 10742 0 0 10975 0 0 11042 0 0 10932 0 0 11035 0 0 10985 0 0 10909 0 0 10744 0 0 10788 0 0 10941 0 0 10937 0 0 10864 0 0 10910 0 0 11041 0 0 10828 0 0 10907 0 0 11092 0 0 10978 0 0 5417 0 0 0 0 0 0 0 0 0 0 0 0 0 0 0 0 0 0 0 0 0 0 0 0 0 0 0 0 0 
0 0 0 0 0 0 0 0 0 0 0 0 0 0 0 0 0 0 0 0 0 0 0 0 0 0 0 0 0 0 5442 0 0 10764 0 0 10838 0 0 10812 0 0 11119 0 0 10935 0 0 11015 0 0 10866 0 0 10818 0 0 10884 0 0 10891 0 0 10779 0 0 10970 0 0 10781 0 0 10670 0 0 10778 0 0 10819 0 0 10852 0 0 10715 0 0 10939 0 0 10774 0 0 10751 0 0 10984 0 0 11033 0 0 11068 0 0 11150 0 0 11009 0 0 10761 0 0 11104 0 0 10901 0 0 10943 0 0 10823 0 0 10842 0 0 10982 0 0 11034 0 0 10770 0 0 10904 0 0 10878 0 0 11030 0 0 10806 0 0 5378 0 0 0 0 0 0 0 0 0 0 0 0 0 0 0 0 0 0 0 0 0 0 0 0 0 0 0 0 0 
0 0 0 0 0 0 0 0 0 0 0 0 0 0 0 0 0 0 0 0 0 0 0 0 0 0 0 0 0 0 5587 0 0 10781 0 0 10941 0 0 10931 0 0 10817 0 0 11035 0 0 10870 0 0 10860 0 0 10804 0 0 10854 0 0 10938 0 0 10795 0 0 10722 0 0 10870 0 0 10821 0 0 10882 0 0 10814 0 0 11003 0 0 10901 0 0 10910 0 0 11090 0 0 10824 0 0 10985 0 0 10794 0 0 10698 0 0 10806 0 0 10960 0 0 11042 0 0 11070 0 0 10997 0 0 10845 0 0 10961 0 0 10988 0 0 11093 0 0 10708 0 0 10936 0 0 10870 0 0 11015 0 0 10855 0 0 10952 0 0 5523 0 0 0 0 0 0 0 0 0 0 0 0 0 0 0 0 0 0 0 0 0 0 0 0 0 0 0 0 0 
0 0 0 0 0 0 0 0 0 0 0 0 0 0 0 0 0 0 0 0 0 0 0 0 0 0 0 0 0 0 5489 0 0 10913 0 0 10938 0 0 10953 0 0 10929 0 0 10793 0 0 10811 0 0 10882 0 0 10846 0 0 10776 0 0 10808 0 0 10895 0 0 10840 0 0 11008 0 0 10971 0 0 10854 0 0 10937 0 0 10849 0 0 10947 0 0 11009 0 0 11009 0 0 10769 0 0 10814 0 0 11123 0 0 10895 0 0 10830 0 0 10887 0 0 10698 0 0 10879 0 0 10943 0 0 10932 0 0 11054 0 0 10938 0 0 11014 0 0 10761 0 0 10939 0 0 10897 0 0 11025 0 0 10849 0 0 10948 0 0 5442 0 0 0 0 0 0 0 0 0 0 0 0 0 0 0 0 0 0 0 0 0 0 0 0 0 0 0 0 0 
0 0 0 0 0 0 0 0 0 0 0 0 0 0 0 0 0 0 0 0 0 0 0 0 0 0 0 0 0 0 5582 0 0 10818 0 0 10826 0 0 10859 0 0 10818 0 0 10847 0 0 10810 0 0 10880 0 0 10961 0 0 10910 0 0 10856 0 0 10834 0 0 10993 0 0 11035 0 0 10841 0 0 11071 0 0 10750 0 0 11051 0 0 10988 0 0 10739 0 0 10867 0 0 10930 0 0 11050 0 0 10818 0 0 11018 0 0 10845 0 0 10945 0 0 11011 0 0 10959 0 0 10912 0 0 10824 0 0 10910 0 0 10998 0 0 10927 0 0 10836 0 0 10874 0 0 10817 0 0 10728 0 0 10912 0 0 10867 0 0 5324 0 0 0 0 0 0 0 0 0 0 0 0 0 0 0 0 0 0 0 0 0 0 0 0 0 0 0 0 0 
0 0 0 0 0 0 0 0 0 0 0 0 0 0 0 0 0 0 0 0 0 0 0 0 0 0 0 0 0 0 5425 0 0 10853 0 0 10960 0 0 10809 0 0 10858 0 0 11007 0 0 11002 0 0 10884 0 0 10785 0 0 11038 0 0 10939 0 0 10965 0 0 10860 0 0 10895 0 0 10919 0 0 10908 0 0 10722 0 0 10858 0 0 10894 0 0 10775 0 0 10968 0 0 10950 0 0 10785 0 0 10981 0 0 10943 0 0 10949 0 0 10746 0 0 10880 0 0 10788 0 0 10697 0 0 10618 0 0 10875 0 0 10691 0 0 10948 0 0 10810 0 0 11030 0 0 10898 0 0 10854 0 0 10775 0 0 11107 0 0 5372 0 0 0 0 0 0 0 0 0 0 0 0 0 0 0 0 0 0 0 0 0 0 0 0 0 0 0 0 0 
0 0 0 0 0 0 0 0 0 0 0 0 0 0 0 0 0 0 0 0 0 0 0 0 0 0 0 0 0 0 2786 0 0 5474 0 0 5331 0 0 5447 0 0 5339 0 0 5292 0 0 5414 0 0 5475 0 0 5367 0 0 5519 0 0 5372 0 0 5511 0 0 5447 0 0 5277 0 0 5418 0 0 5439 0 0 5518 0 0 5423 0 0 5501 0 0 5529 0 0 5466 0 0 5372 0 0 5541 0 0 5548 0 0 5397 0 0 5433 0 0 5311 0 0 5536 0 0 5413 0 0 5569 0 0 5471 0 0 5424 0 0 5252 0 0 5475 0 0 5541 0 0 5457 0 0 5538 0 0 5557 0 0 5517 0 0 5455 0 0 2664 0 0 0 0 0 0 0 0 0 0 0 0 0 0 0 0 0 0 0 0 0 0 0 0 0 0 0 0 0 
0 0 0 0 0 0 0 0 0 0 0 0 0 0 0 0 0 0 0 0 0 0 0 0 0 0 0 0 0 0 0 0 0 0 0 0 0 0 0 0 0 0 0 0 0 0 0 0 0 0 0 0 0 0 0 0 0 0 0 0 0 0 0 0 0 0 0 0 0 0 0 0 0 0 0 0 0 0 0 0 0 0 0 0 0 0 0 0 0 0 0 0 0 0 0 0 0 0 0 0 0 0 0 0 0 0 0 0 0 0 0 0 0 0 0 0 0 0 0 0 0 0 0 0 0 0 0 0 0 0 0 0 0 0 0 0 0 0 0 0 0 0 0 0 0 0 0 0 0 0 0 0 0 0 0 0 0 0 0 0 0 0 0 0 0 0 0 0 0 0 0 0 0 0 0 0 0 0 0 0 
0 0 0 0 0 0 0 0 0 0 0 0 0 0 0 0 0 0 0 0 0 0 0 0 0 0 0 0 0 0 0 0 0 0 0 0 0 0 0 0 0 0 0 0 0 0 0 0 0 0 0 0 0 0 0 0 0 0 0 0 0 0 0 0 0 0 0 0 0 0 0 0 0 0 0 0 0 0 0 0 0 0 0 0 0 0 0 0 0 0 0 0 0 0 0 0 0 0 0 0 0 0 0 0 0 0 0 0 0 0 0 0 0 0 0 0 0 0 0 0 0 0 0 0 0 0 0 0 0 0 0 0 0 0 0 0 0 0 0 0 0 0 0 0 0 0 0 0 0 0 0 0 0 0 0 0 0 0 0 0 0 0 0 0 0 0 0 0 0 0 0 0 0 0 0 0 0 0 0 0 
0 0 0 0 0 0 0 0 0 0 0 0 0 0 0 0 0 0 0 0 0 0 0 0 0 0 0 0 0 0 0 0 0 0 0 0 0 0 0 0 0 0 0 0 0 0 0 0 0 0 0 0 0 0 0 0 0 0 0 0 0 0 0 0 0 0 0 0 0 0 0 0 0 0 0 0 0 0 0 0 0 0 0 0 0 0 0 0 0 0 0 0 0 0 0 0 0 0 0 0 0 0 0 0 0 0 0 0 0 0 0 0 0 0 0 0 0 0 0 0 0 0 0 0 0 0 0 0 0 0 0 0 0 0 0 0 0 0 0 0 0 0 0 0 0 0 0 0 0 0 0 0 0 0 0 0 0 0 0 0 0 0 0 0 0 0 0 0 0 0 0 0 0 0 0 0 0 0 0 0 
0 0 0 0 0 0 0 0 0 0 0 0 0 0 0 0 0 0 0 0 0 0 0 0 0 0 0 0 0 0 0 0 0 0 0 0 0 0 0 0 0 0 0 0 0 0 0 0 0 0 0 0 0 0 0 0 0 0 0 0 0 0 0 0 0 0 0 0 0 0 0 0 0 0 0 0 0 0 0 0 0 0 0 0 0 0 0 0 0 0 0 0 0 0 0 0 0 0 0 0 0 0 0 0 0 0 0 0 0 0 0 0 0 0 0 0 0 0 0 0 0 0 0 0 0 0 0 0 0 0 0 0 0 0 0 0 0 0 0 0 0 0 0 0 0 0 0 0 0 0 0 0 0 0 0 0 0 0 0 0 0 0 0 0 0 0 0 0 0 0 0 0 0 0 0 0 0 0 0 0 
0 0 0 0 0 0 0 0 0 0 0 0 0 0 0 0 0 0 0 0 0 0 0 0 0 0 0 0 0 0 0 0 0 0 0 0 0 0 0 0 0 0 0 0 0 0 0 0 0 0 0 0 0 0 0 0 0 0 0 0 0 0 0 0 0 0 0 0 0 0 0 0 0 0 0 0 0 0 0 0 0 0 0 0 0 0 0 0 0 0 0 0 0 0 0 0 0 0 0 0 0 0 0 0 0 0 0 0 0 0 0 0 0 0 0 0 0 0 0 0 0 0 0 0 0 0 0 0 0 0 0 0 0 0 0 0 0 0 0 0 0 0 0 0 0 0 0 0 0 0 0 0 0 0 0 0 0 0 0 0 0 0 0 0 0 0 0 0 0 0 0 0 0 0 0 0 0 0 0 0 
0 0 0 0 0 0 0 0 0 0 0 0 0 0 0 0 0 0 0 0 0 0 0 0 0 0 0 0 0 0 0 0 0 0 0 0 0 0 0 0 0 0 0 0 0 0 0 0 0 0 0 0 0 0 0 0 0 0 0 0 0 0 0 0 0 0 0 0 0 0 0 0 0 0 0 0 0 0 0 0 0 0 0 0 0 0 0 0 0 0 0 0 0 0 0 0 0 0 0 0 0 0 0 0 0 0 0 0 0 0 0 0 0 0 0 0 0 0 0 0 0 0 0 0 0 0 0 0 0 0 0 0 0 0 0 0 0 0 0 0 0 0 0 0 0 0 0 0 0 0 0 0 0 0 0 0 0 0 0 0 0 0 0 0 0 0 0 0 0 0 0 0 0 0 0 0 0 0 0 0 
0 0 0 0 0 0 0 0 0 0 0 0 0 0 0 0 0 0 0 0 0 0 0 0 0 0 0 0 0 0 0 0 0 0 0 0 0 0 0 0 0 0 0 0 0 0 0 0 0 0 0 0 0 0 0 0 0 0 0 0 0 0 0 0 0 0 0 0 0 0 0 0 0 0 0 0 0 0 0 0 0 0 0 0 0 0 0 0 0 0 0 0 0 0 0 0 0 0 0 0 0 0 0 0 0 0 0 0 0 0 0 0 0 0 0 0 0 0 0 0 0 0 0 0 0 0 0 0 0 0 0 0 0 0 0 0 0 0 0 0 0 0 0 0 0 0 0 0 0 0 0 0 0 0 0 0 0 0 0 0 0 0 0 0 0 0 0 0 0 0 0 0 0 0 0 0 0 0 0 0 
0 0 0 0 0 0 0 0 0 0 0 0 0 0 0 0 0 0 0 0 0 0 0 0 0 0 0 0 0 0 0 0 0 0 0 0 0 0 0 0 0 0 0 0 0 0 0 0 0 0 0 0 0 0 0 0 0 0 0 0 0 0 0 0 0 0 0 0 0 0 0 0 0 0 0 0 0 0 0 0 0 0 0 0 0 0 0 0 0 0 0 0 0 0 0 0 0 0 0 0 0 0 0 0 0 0 0 0 0 0 0 0 0 0 0 0 0 0 0 0 0 0 0 0 0 0 0 0 0 0 0 0 0 0 0 0 0 0 0 0 0 0 0 0 0 0 0 0 0 0 0 0 0 0 0 0 0 0 0 0 0 0 0 0 0 0 0 0 0 0 0 0 0 0 0 0 0 0 0 0 
0 0 0 0 0 0 0 0 0 0 0 0 0 0 0 0 0 0 0 0 0 0 0 0 0 0 0 0 0 0 0 0 0 0 0 0 0 0 0 0 0 0 0 0 0 0 0 0 0 0 0 0 0 0 0 0 0 0 0 0 0 0 0 0 0 0 0 0 0 0 0 0 0 0 0 0 0 0 0 0 0 0 0 0 0 0 0 0 0 0 0 0 0 0 0 0 0 0 0 0 0 0 0 0 0 0 0 0 0 0 0 0 0 0 0 0 0 0 0 0 0 0 0 0 0 0 0 0 0 0 0 0 0 0 0 0 0 0 0 0 0 0 0 0 0 0 0 0 0 0 0 0 0 0 0 0 0 0 0 0 0 0 0 0 0 0 0 0 0 0 0 0 0 0 0 0 0 0 0 0 
