P3
# This is a dose file slice at depth 5 of 100
60 60
# now we give the maximum value of the RGB coordinates.
32920
1 0 0 1 0 0 2 0 0 4 0 0 4 0 0 3 0 0 5 0 0 2 0 0 3 0 0 4 0 0 3 0 0 5 0 0 4 0 0 4 0 0 7 0 0 3 0 0 5 0 0 3 0 0 3 0 0 4 0 0 2 0 0 4 0 0 9 0 0 3 0 0 8 0 0 4 0 0 5 0 0 9 0 0 2 0 0 1 0 0 5 0 0 7 0 0 3 0 0 8 0 0 8 0 0 7 0 0 7 0 0 8 0 0 5 0 0 4 0 0 8 0 0 5 0 0 3 0 0 6 0 0 2 0 0 3 0 0 1 0 0 4 0 0 4 0 0 7 0 0 6 0 0 2 0 0 2 0 0 3 0 0 2 0 0 1 0 0 2 0 0 4 0 0 1 0 0 1 0 0 
2 0 0 3 0 0 6 0 0 6 0 0 2 0 0 12 0 0 10 0 0 5 0 0 6 0 0 12 0 0 13 0 0 9 0 0 12 0 0 7 0 0 12 0 0 11 0 0 13 0 0 9 0 0 8 0 0 7 0 0 6 0 0 11 0 0 11 0 0 6 0 0 12 0 0 12 0 0 16 0 0 16 0 0 8 0 0 6 0 0 16 0 0 14 0 0 14 0 0 10 0 0 19 0 0 14 0 0 18 0 0 16 0 0 9 0 0 13 0 0 14 0 0 12 0 0 7 0 0 9 0 0 11 0 0 7 0 0 7 0 0 12 0 0 11 0 0 17 0 0 12 0 0 8 0 0 7 0 0 7 0 0 6 0 0 4 0 0 4 0 0 2 0 0 2 0 0 6 0 0 
1 0 0 7 0 0 5 0 0 6 0 0 7 0 0 6 0 0 11 0 0 5 0 0 11 0 0 9 0 0 12 0 0 16 0 0 12 0 0 10 0 0 12 0 0 11 0 0 16 0 0 14 0 0 6 0 0 13 0 0 7 0 0 13 0 0 10 0 0 10 0 0 12 0 0 21 0 0 13 0 0 12 0 0 9 0 0 12 0 0 18 0 0 16 0 0 15 0 0 18 0 0 22 0 0 18 0 0 15 0 0 16 0 0 11 0 0 12 0 0 16 0 0 16 0 0 12 0 0 12 0 0 12 0 0 9 0 0 9 0 0 9 0 0 16 0 0 13 0 0 13 0 0 8 0 0 8 0 0 5 0 0 4 0 0 3 0 0 3 0 0 3 0 0 8 0 0 6 0 0 
3 0 0 5 0 0 8 0 0 6 0 0 7 0 0 7 0 0 10 0 0 11 0 0 9 0 0 14 0 0 6 0 0 11 0 0 19 0 0 7 0 0 8 0 0 17 0 0 23 0 0 12 0 0 19 0 0 11 0 0 17 0 0 15 0 0 11 0 0 15 0 0 12 0 0 18 0 0 16 0 0 19 0 0 15 0 0 13 0 0 24 0 0 23 0 0 12 0 0 16 0 0 27 0 0 19 0 0 20 0 0 18 0 0 15 0 0 11 0 0 13 0 0 21 0 0 15 0 0 16 0 0 11 0 0 8 0 0 15 0 0 15 0 0 14 0 0 17 0 0 10 0 0 13 0 0 8 0 0 8 0 0 4 0 0 4 0 0 4 0 0 5 0 0 4 0 0 3 0 0 
2 0 0 8 0 0 8 0 0 7 0 0 7 0 0 8 0 0 8 0 0 6 0 0 12 0 0 14 0 0 11 0 0 13 0 0 19 0 0 13 0 0 8 0 0 17 0 0 18 0 0 22 0 0 11 0 0 15 0 0 18 0 0 31 0 0 14 0 0 11 0 0 10 0 0 20 0 0 20 0 0 22 0 0 20 0 0 22 0 0 26 0 0 23 0 0 18 0 0 29 0 0 24 0 0 17 0 0 16 0 0 23 0 0 15 0 0 17 0 0 23 0 0 18 0 0 20 0 0 17 0 0 14 0 0 19 0 0 20 0 0 13 0 0 10 0 0 12 0 0 13 0 0 11 0 0 11 0 0 8 0 0 11 0 0 6 0 0 5 0 0 5 0 0 6 0 0 5 0 0 
2 0 0 5 0 0 6 0 0 4 0 0 8 0 0 10 0 0 5 0 0 7 0 0 8 0 0 9 0 0 22 0 0 11 0 0 18 0 0 23 0 0 14 0 0 24 0 0 20 0 0 23 0 0 22 0 0 21 0 0 21 0 0 20 0 0 13 0 0 16 0 0 16 0 0 30 0 0 24 0 0 21 0 0 31 0 0 21 0 0 16 0 0 20 0 0 33 0 0 24 0 0 23 0 0 24 0 0 24 0 0 19 0 0 19 0 0 27 0 0 20 0 0 31 0 0 21 0 0 23 0 0 23 0 0 13 0 0 23 0 0 10 0 0 13 0 0 16 0 0 18 0 0 16 0 0 20 0 0 11 0 0 12 0 0 5 0 0 11 0 0 11 0 0 8 0 0 4 0 0 
1 0 0 4 0 0 10 0 0 8 0 0 6 0 0 9 0 0 7 0 0 12 0 0 17 0 0 13 0 0 25 0 0 17 0 0 15 0 0 14 0 0 21 0 0 29 0 0 29 0 0 30 0 0 28 0 0 24 0 0 29 0 0 21 0 0 24 0 0 24 0 0 31 0 0 33 0 0 30 0 0 29 0 0 31 0 0 29 0 0 24 0 0 27 0 0 28 0 0 34 0 0 31 0 0 36 0 0 28 0 0 24 0 0 27 0 0 28 0 0 31 0 0 35 0 0 23 0 0 30 0 0 23 0 0 20 0 0 17 0 0 13 0 0 23 0 0 20 0 0 19 0 0 17 0 0 14 0 0 15 0 0 7 0 0 9 0 0 10 0 0 12 0 0 6 0 0 6 0 0 
1 0 0 4 0 0 5 0 0 10 0 0 9 0 0 8 0 0 13 0 0 6 0 0 13 0 0 18 0 0 24 0 0 20 0 0 30 0 0 14 0 0 24 0 0 30 0 0 29 0 0 43 0 0 29 0 0 34 0 0 37 0 0 27 0 0 40 0 0 34 0 0 29 0 0 39 0 0 37 0 0 37 0 0 36 0 0 34 0 0 34 0 0 30 0 0 41 0 0 45 0 0 44 0 0 42 0 0 43 0 0 36 0 0 33 0 0 26 0 0 42 0 0 31 0 0 31 0 0 28 0 0 35 0 0 19 0 0 29 0 0 23 0 0 26 0 0 23 0 0 24 0 0 18 0 0 15 0 0 13 0 0 8 0 0 14 0 0 12 0 0 7 0 0 3 0 0 5 0 0 
3 0 0 6 0 0 6 0 0 14 0 0 10 0 0 8 0 0 17 0 0 19 0 0 15 0 0 20 0 0 24 0 0 28 0 0 38 0 0 36 0 0 37 0 0 42 0 0 46 0 0 49 0 0 39 0 0 35 0 0 53 0 0 47 0 0 47 0 0 39 0 0 44 0 0 60 0 0 36 0 0 50 0 0 46 0 0 47 0 0 49 0 0 46 0 0 54 0 0 47 0 0 52 0 0 53 0 0 59 0 0 47 0 0 50 0 0 42 0 0 42 0 0 27 0 0 40 0 0 42 0 0 54 0 0 34 0 0 41 0 0 31 0 0 35 0 0 38 0 0 26 0 0 17 0 0 10 0 0 11 0 0 12 0 0 13 0 0 8 0 0 4 0 0 5 0 0 6 0 0 
3 0 0 8 0 0 8 0 0 12 0 0 7 0 0 12 0 0 13 0 0 25 0 0 18 0 0 30 0 0 89 0 0 160 0 0 156 0 0 222 0 0 174 0 0 188 0 0 164 0 0 185 0 0 168 0 0 180 0 0 174 0 0 177 0 0 215 0 0 180 0 0 178 0 0 201 0 0 198 0 0 206 0 0 198 0 0 181 0 0 194 0 0 185 0 0 195 0 0 209 0 0 196 0 0 198 0 0 200 0 0 201 0 0 191 0 0 192 0 0 192 0 0 189 0 0 166 0 0 176 0 0 208 0 0 164 0 0 213 0 0 162 0 0 171 0 0 169 0 0 93 0 0 22 0 0 16 0 0 19 0 0 14 0 0 10 0 0 4 0 0 9 0 0 10 0 0 10 0 0 
3 0 0 6 0 0 7 0 0 8 0 0 17 0 0 13 0 0 21 0 0 22 0 0 31 0 0 106 0 0 7603 0 0 14957 0 0 15145 0 0 15128 0 0 14987 0 0 15307 0 0 15116 0 0 15050 0 0 14909 0 0 15037 0 0 15013 0 0 15224 0 0 15025 0 0 14917 0 0 15207 0 0 15235 0 0 14927 0 0 15248 0 0 15112 0 0 14925 0 0 15128 0 0 15109 0 0 14869 0 0 15086 0 0 14968 0 0 15159 0 0 15096 0 0 15126 0 0 15066 0 0 15106 0 0 14941 0 0 15150 0 0 15052 0 0 15033 0 0 15082 0 0 15043 0 0 15006 0 0 15069 0 0 15130 0 0 14915 0 0 7491 0 0 87 0 0 29 0 0 24 0 0 19 0 0 11 0 0 12 0 0 18 0 0 7 0 0 8 0 0 
2 0 0 12 0 0 13 0 0 13 0 0 16 0 0 13 0 0 18 0 0 20 0 0 32 0 0 161 0 0 14929 0 0 29912 0 0 30184 0 0 29807 0 0 29884 0 0 29906 0 0 29951 0 0 29974 0 0 29932 0 0 30206 0 0 30236 0 0 30190 0 0 30030 0 0 29851 0 0 30095 0 0 30024 0 0 29965 0 0 29933 0 0 30052 0 0 29870 0 0 30106 0 0 29877 0 0 30082 0 0 30047 0 0 30065 0 0 30148 0 0 30032 0 0 29927 0 0 30078 0 0 30123 0 0 30070 0 0 29947 0 0 29775 0 0 30018 0 0 29931 0 0 30239 0 0 30147 0 0 30046 0 0 30038 0 0 29707 0 0 15054 0 0 148 0 0 34 0 0 22 0 0 16 0 0 17 0 0 15 0 0 10 0 0 7 0 0 7 0 0 
3 0 0 8 0 0 8 0 0 12 0 0 13 0 0 21 0 0 17 0 0 24 0 0 29 0 0 161 0 0 15291 0 0 29782 0 0 30392 0 0 30086 0 0 30198 0 0 30310 0 0 30248 0 0 30332 0 0 30082 0 0 29860 0 0 30289 0 0 30155 0 0 30049 0 0 29901 0 0 30268 0 0 29990 0 0 30127 0 0 30004 0 0 29802 0 0 30456 0 0 30084 0 0 30396 0 0 30336 0 0 30150 0 0 30110 0 0 30153 0 0 30102 0 0 29931 0 0 30046 0 0 30219 0 0 30260 0 0 30028 0 0 30257 0 0 29915 0 0 30124 0 0 30086 0 0 30044 0 0 30252 0 0 29974 0 0 29937 0 0 15209 0 0 162 0 0 32 0 0 35 0 0 28 0 0 19 0 0 15 0 0 11 0 0 4 0 0 4 0 0 
3 0 0 8 0 0 6 0 0 8 0 0 11 0 0 23 0 0 29 0 0 30 0 0 29 0 0 190 0 0 15134 0 0 29721 0 0 30373 0 0 29876 0 0 29941 0 0 30021 0 0 30296 0 0 30042 0 0 30010 0 0 30122 0 0 30119 0 0 29941 0 0 30144 0 0 29993 0 0 30194 0 0 30027 0 0 30144 0 0 30013 0 0 30203 0 0 30015 0 0 30381 0 0 30091 0 0 30076 0 0 30093 0 0 30013 0 0 30587 0 0 29955 0 0 29909 0 0 30226 0 0 29908 0 0 29924 0 0 30123 0 0 30066 0 0 30141 0 0 29976 0 0 29929 0 0 30224 0 0 30144 0 0 30176 0 0 29865 0 0 15167 0 0 175 0 0 38 0 0 29 0 0 20 0 0 19 0 0 11 0 0 10 0 0 6 0 0 8 0 0 
2 0 0 7 0 0 11 0 0 9 0 0 14 0 0 19 0 0 24 0 0 22 0 0 47 0 0 172 0 0 15081 0 0 30115 0 0 30106 0 0 30168 0 0 30100 0 0 30255 0 0 30321 0 0 30027 0 0 30005 0 0 30016 0 0 30215 0 0 29871 0 0 29992 0 0 30123 0 0 30080 0 0 30094 0 0 29963 0 0 30183 0 0 29767 0 0 30059 0 0 30097 0 0 29874 0 0 30230 0 0 30142 0 0 30136 0 0 30253 0 0 29965 0 0 30385 0 0 30221 0 0 29932 0 0 30396 0 0 30404 0 0 30106 0 0 30180 0 0 30012 0 0 30328 0 0 30002 0 0 29946 0 0 30043 0 0 30362 0 0 15014 0 0 187 0 0 42 0 0 20 0 0 15 0 0 10 0 0 17 0 0 12 0 0 10 0 0 6 0 0 
7 0 0 13 0 0 11 0 0 12 0 0 12 0 0 15 0 0 21 0 0 29 0 0 39 0 0 164 0 0 15145 0 0 29945 0 0 30479 0 0 30198 0 0 29995 0 0 30485 0 0 30228 0 0 30308 0 0 30329 0 0 30256 0 0 30214 0 0 30059 0 0 30291 0 0 30210 0 0 30500 0 0 30036 0 0 30106 0 0 29961 0 0 30015 0 0 30190 0 0 30509 0 0 30354 0 0 30136 0 0 30043 0 0 30240 0 0 30068 0 0 30005 0 0 30283 0 0 30269 0 0 29951 0 0 30322 0 0 30186 0 0 30221 0 0 30209 0 0 29993 0 0 29930 0 0 30322 0 0 30206 0 0 30097 0 0 29859 0 0 14903 0 0 171 0 0 38 0 0 25 0 0 24 0 0 22 0 0 13 0 0 12 0 0 10 0 0 10 0 0 
8 0 0 20 0 0 17 0 0 13 0 0 20 0 0 21 0 0 33 0 0 35 0 0 46 0 0 179 0 0 15298 0 0 30019 0 0 30437 0 0 29788 0 0 30104 0 0 29950 0 0 30286 0 0 30419 0 0 30168 0 0 30135 0 0 30074 0 0 30091 0 0 30124 0 0 30010 0 0 30228 0 0 30066 0 0 30503 0 0 29972 0 0 30032 0 0 30019 0 0 30146 0 0 30244 0 0 30090 0 0 30226 0 0 30176 0 0 30178 0 0 30107 0 0 29960 0 0 30210 0 0 30237 0 0 30267 0 0 29929 0 0 30100 0 0 29933 0 0 30352 0 0 29977 0 0 30068 0 0 29977 0 0 29925 0 0 29870 0 0 15026 0 0 180 0 0 46 0 0 33 0 0 24 0 0 14 0 0 13 0 0 11 0 0 15 0 0 14 0 0 
6 0 0 12 0 0 21 0 0 29 0 0 20 0 0 23 0 0 22 0 0 30 0 0 43 0 0 184 0 0 15110 0 0 29841 0 0 30215 0 0 29944 0 0 30235 0 0 30333 0 0 29994 0 0 30123 0 0 30164 0 0 30382 0 0 30605 0 0 30169 0 0 30213 0 0 30083 0 0 30064 0 0 30098 0 0 30174 0 0 30140 0 0 29985 0 0 30081 0 0 30249 0 0 29995 0 0 30024 0 0 30377 0 0 30263 0 0 30090 0 0 30067 0 0 30209 0 0 29694 0 0 30164 0 0 30025 0 0 30051 0 0 30145 0 0 30252 0 0 30032 0 0 30305 0 0 30230 0 0 30289 0 0 29901 0 0 29902 0 0 15105 0 0 175 0 0 44 0 0 33 0 0 27 0 0 18 0 0 16 0 0 21 0 0 15 0 0 12 0 0 
7 0 0 23 0 0 21 0 0 23 0 0 30 0 0 24 0 0 19 0 0 20 0 0 29 0 0 168 0 0 15209 0 0 29947 0 0 30002 0 0 29936 0 0 30292 0 0 29924 0 0 30084 0 0 30131 0 0 29825 0 0 30303 0 0 30292 0 0 30167 0 0 30301 0 0 30376 0 0 30088 0 0 30407 0 0 29909 0 0 30482 0 0 30117 0 0 30213 0 0 29945 0 0 29891 0 0 30213 0 0 30186 0 0 30153 0 0 30184 0 0 30294 0 0 30344 0 0 29976 0 0 29914 0 0 30458 0 0 29863 0 0 29925 0 0 30066 0 0 30051 0 0 30064 0 0 30076 0 0 30122 0 0 29810 0 0 30193 0 0 15106 0 0 192 0 0 41 0 0 21 0 0 15 0 0 22 0 0 20 0 0 12 0 0 9 0 0 10 0 0 
4 0 0 7 0 0 16 0 0 15 0 0 21 0 0 30 0 0 26 0 0 27 0 0 30 0 0 166 0 0 14935 0 0 30142 0 0 30057 0 0 30015 0 0 30055 0 0 29990 0 0 29738 0 0 30348 0 0 30090 0 0 29938 0 0 30292 0 0 30269 0 0 30028 0 0 30073 0 0 30227 0 0 30210 0 0 30267 0 0 29864 0 0 30052 0 0 30195 0 0 30168 0 0 30541 0 0 30348 0 0 30096 0 0 29877 0 0 30390 0 0 30079 0 0 30234 0 0 30035 0 0 29965 0 0 30146 0 0 30164 0 0 30152 0 0 29881 0 0 29967 0 0 30408 0 0 30278 0 0 29897 0 0 30288 0 0 29866 0 0 14968 0 0 188 0 0 51 0 0 24 0 0 24 0 0 21 0 0 12 0 0 11 0 0 8 0 0 10 0 0 
8 0 0 18 0 0 14 0 0 14 0 0 22 0 0 24 0 0 23 0 0 28 0 0 38 0 0 174 0 0 15183 0 0 30103 0 0 30270 0 0 30193 0 0 30293 0 0 30325 0 0 30127 0 0 30246 0 0 30191 0 0 30345 0 0 30249 0 0 30241 0 0 29894 0 0 30126 0 0 30383 0 0 30018 0 0 30489 0 0 30112 0 0 29921 0 0 30324 0 0 30216 0 0 30132 0 0 30334 0 0 30232 0 0 30055 0 0 30157 0 0 30080 0 0 29990 0 0 30164 0 0 30032 0 0 30175 0 0 30352 0 0 30094 0 0 30312 0 0 30198 0 0 30344 0 0 29841 0 0 30320 0 0 30260 0 0 30049 0 0 15132 0 0 199 0 0 48 0 0 28 0 0 27 0 0 24 0 0 19 0 0 15 0 0 16 0 0 15 0 0 
4 0 0 9 0 0 12 0 0 15 0 0 20 0 0 24 0 0 25 0 0 30 0 0 46 0 0 174 0 0 15215 0 0 29928 0 0 30171 0 0 29922 0 0 30134 0 0 30185 0 0 30187 0 0 30347 0 0 30082 0 0 30226 0 0 30193 0 0 30109 0 0 30247 0 0 30203 0 0 30490 0 0 30004 0 0 30164 0 0 29952 0 0 30097 0 0 30186 0 0 30289 0 0 30046 0 0 30158 0 0 29878 0 0 30042 0 0 30056 0 0 30113 0 0 30073 0 0 30065 0 0 29947 0 0 30101 0 0 29921 0 0 29814 0 0 29874 0 0 30332 0 0 30224 0 0 30214 0 0 30219 0 0 30199 0 0 30164 0 0 14990 0 0 197 0 0 46 0 0 42 0 0 29 0 0 20 0 0 15 0 0 13 0 0 14 0 0 8 0 0 
2 0 0 10 0 0 10 0 0 9 0 0 14 0 0 22 0 0 34 0 0 39 0 0 38 0 0 193 0 0 15055 0 0 29916 0 0 30141 0 0 29952 0 0 30291 0 0 30263 0 0 30024 0 0 30182 0 0 30107 0 0 30223 0 0 30209 0 0 30335 0 0 30158 0 0 30311 0 0 30225 0 0 30285 0 0 30212 0 0 30242 0 0 30196 0 0 30252 0 0 29851 0 0 29928 0 0 30249 0 0 30427 0 0 29844 0 0 30264 0 0 30213 0 0 30145 0 0 30262 0 0 30018 0 0 30201 0 0 30118 0 0 30178 0 0 29956 0 0 30063 0 0 30266 0 0 30194 0 0 30187 0 0 30064 0 0 30102 0 0 15106 0 0 177 0 0 37 0 0 36 0 0 24 0 0 18 0 0 13 0 0 12 0 0 13 0 0 10 0 0 
8 0 0 12 0 0 8 0 0 10 0 0 12 0 0 19 0 0 31 0 0 36 0 0 37 0 0 186 0 0 15206 0 0 29832 0 0 30078 0 0 29879 0 0 29945 0 0 30154 0 0 30193 0 0 29995 0 0 30087 0 0 30147 0 0 30445 0 0 30412 0 0 30137 0 0 29940 0 0 29904 0 0 30321 0 0 30124 0 0 30261 0 0 30033 0 0 30261 0 0 30035 0 0 30402 0 0 30188 0 0 29847 0 0 30029 0 0 30036 0 0 30052 0 0 29897 0 0 30186 0 0 30239 0 0 29900 0 0 30178 0 0 30070 0 0 30238 0 0 30473 0 0 30026 0 0 30124 0 0 30423 0 0 30278 0 0 29858 0 0 14952 0 0 177 0 0 44 0 0 32 0 0 22 0 0 24 0 0 16 0 0 15 0 0 20 0 0 17 0 0 
6 0 0 15 0 0 12 0 0 8 0 0 16 0 0 18 0 0 26 0 0 27 0 0 49 0 0 178 0 0 14977 0 0 30011 0 0 29990 0 0 30207 0 0 30329 0 0 30160 0 0 30152 0 0 29991 0 0 30142 0 0 30185 0 0 30220 0 0 30088 0 0 30221 0 0 30201 0 0 29959 0 0 30303 0 0 29987 0 0 30242 0 0 30215 0 0 29870 0 0 30166 0 0 30193 0 0 30030 0 0 30017 0 0 30073 0 0 30116 0 0 30351 0 0 30046 0 0 30033 0 0 30092 0 0 30126 0 0 30252 0 0 30241 0 0 30010 0 0 30218 0 0 29714 0 0 30076 0 0 30284 0 0 30154 0 0 30069 0 0 14870 0 0 181 0 0 45 0 0 43 0 0 29 0 0 34 0 0 26 0 0 19 0 0 24 0 0 20 0 0 
4 0 0 6 0 0 14 0 0 16 0 0 17 0 0 19 0 0 25 0 0 43 0 0 42 0 0 192 0 0 15098 0 0 30192 0 0 30288 0 0 30219 0 0 30062 0 0 30281 0 0 30298 0 0 30051 0 0 30106 0 0 30074 0 0 29971 0 0 30233 0 0 30090 0 0 30168 0 0 30045 0 0 30397 0 0 30124 0 0 30121 0 0 30259 0 0 30042 0 0 30255 0 0 29992 0 0 30091 0 0 30176 0 0 30125 0 0 30089 0 0 30032 0 0 29916 0 0 30122 0 0 30182 0 0 30097 0 0 30426 0 0 30253 0 0 30101 0 0 29998 0 0 30318 0 0 30034 0 0 29958 0 0 30189 0 0 30092 0 0 15071 0 0 172 0 0 33 0 0 30 0 0 29 0 0 24 0 0 22 0 0 30 0 0 19 0 0 12 0 0 
3 0 0 11 0 0 21 0 0 26 0 0 24 0 0 26 0 0 31 0 0 31 0 0 44 0 0 174 0 0 15139 0 0 30193 0 0 30004 0 0 30029 0 0 29985 0 0 30181 0 0 30095 0 0 29962 0 0 29961 0 0 29917 0 0 30173 0 0 30116 0 0 29899 0 0 30142 0 0 30097 0 0 30284 0 0 30230 0 0 30140 0 0 30373 0 0 29995 0 0 30179 0 0 30079 0 0 29946 0 0 30302 0 0 30144 0 0 30145 0 0 30300 0 0 30031 0 0 30066 0 0 30018 0 0 30157 0 0 30179 0 0 30344 0 0 30137 0 0 30099 0 0 30351 0 0 30195 0 0 30400 0 0 30037 0 0 29932 0 0 14911 0 0 188 0 0 51 0 0 22 0 0 29 0 0 30 0 0 23 0 0 18 0 0 17 0 0 15 0 0 
5 0 0 10 0 0 15 0 0 18 0 0 21 0 0 18 0 0 30 0 0 33 0 0 43 0 0 180 0 0 14973 0 0 29791 0 0 30024 0 0 30171 0 0 30174 0 0 30216 0 0 30110 0 0 30021 0 0 30035 0 0 29841 0 0 29818 0 0 30016 0 0 30322 0 0 29920 0 0 30076 0 0 29922 0 0 30066 0 0 30076 0 0 30248 0 0 30080 0 0 30126 0 0 30129 0 0 30214 0 0 30092 0 0 30132 0 0 30217 0 0 30210 0 0 30252 0 0 30117 0 0 30160 0 0 30237 0 0 30284 0 0 30233 0 0 29806 0 0 30023 0 0 30174 0 0 30026 0 0 29976 0 0 30390 0 0 29879 0 0 14998 0 0 204 0 0 58 0 0 46 0 0 30 0 0 26 0 0 24 0 0 19 0 0 24 0 0 17 0 0 
6 0 0 16 0 0 15 0 0 15 0 0 16 0 0 20 0 0 19 0 0 28 0 0 36 0 0 190 0 0 14925 0 0 29914 0 0 30190 0 0 30180 0 0 30172 0 0 30232 0 0 30191 0 0 29892 0 0 30065 0 0 29968 0 0 29903 0 0 30106 0 0 30322 0 0 30369 0 0 30071 0 0 30288 0 0 30431 0 0 30181 0 0 30080 0 0 30112 0 0 29982 0 0 30288 0 0 30190 0 0 30052 0 0 30033 0 0 29944 0 0 30014 0 0 30240 0 0 30225 0 0 30105 0 0 30030 0 0 30301 0 0 30313 0 0 30206 0 0 30144 0 0 30067 0 0 29906 0 0 30030 0 0 30196 0 0 30303 0 0 15111 0 0 184 0 0 47 0 0 40 0 0 29 0 0 21 0 0 20 0 0 20 0 0 16 0 0 15 0 0 
10 0 0 10 0 0 10 0 0 12 0 0 13 0 0 20 0 0 30 0 0 42 0 0 43 0 0 200 0 0 15188 0 0 29862 0 0 30028 0 0 29777 0 0 30286 0 0 30033 0 0 30195 0 0 30286 0 0 29959 0 0 30149 0 0 30022 0 0 30353 0 0 29975 0 0 29956 0 0 30173 0 0 30160 0 0 30334 0 0 30005 0 0 30257 0 0 30154 0 0 30127 0 0 30138 0 0 30082 0 0 30144 0 0 30184 0 0 30143 0 0 30420 0 0 30538 0 0 30073 0 0 29714 0 0 30336 0 0 29899 0 0 30022 0 0 30215 0 0 29778 0 0 30241 0 0 30287 0 0 30163 0 0 30022 0 0 29994 0 0 15036 0 0 190 0 0 42 0 0 30 0 0 24 0 0 19 0 0 19 0 0 18 0 0 17 0 0 14 0 0 
5 0 0 15 0 0 12 0 0 17 0 0 11 0 0 18 0 0 22 0 0 27 0 0 58 0 0 205 0 0 15223 0 0 29869 0 0 29953 0 0 30109 0 0 30028 0 0 30322 0 0 30335 0 0 30088 0 0 29998 0 0 30239 0 0 30282 0 0 30132 0 0 29987 0 0 30252 0 0 30267 0 0 30468 0 0 30269 0 0 30314 0 0 29870 0 0 30216 0 0 29809 0 0 30164 0 0 30246 0 0 29763 0 0 30062 0 0 30134 0 0 30094 0 0 30138 0 0 30236 0 0 30032 0 0 30313 0 0 30258 0 0 30097 0 0 30176 0 0 30088 0 0 29902 0 0 29974 0 0 30123 0 0 30224 0 0 29982 0 0 15198 0 0 170 0 0 37 0 0 28 0 0 27 0 0 30 0 0 20 0 0 9 0 0 10 0 0 9 0 0 
4 0 0 11 0 0 14 0 0 16 0 0 18 0 0 23 0 0 31 0 0 32 0 0 43 0 0 203 0 0 15234 0 0 29993 0 0 30100 0 0 29973 0 0 29980 0 0 30161 0 0 29926 0 0 30445 0 0 30085 0 0 29904 0 0 30131 0 0 30301 0 0 30138 0 0 30033 0 0 29982 0 0 30162 0 0 30099 0 0 30313 0 0 30106 0 0 30344 0 0 30324 0 0 30175 0 0 30165 0 0 30121 0 0 30390 0 0 30079 0 0 30045 0 0 29990 0 0 30255 0 0 30023 0 0 30165 0 0 30100 0 0 30179 0 0 30148 0 0 30190 0 0 30173 0 0 30069 0 0 30190 0 0 30191 0 0 29740 0 0 15090 0 0 187 0 0 48 0 0 41 0 0 33 0 0 20 0 0 24 0 0 17 0 0 10 0 0 16 0 0 
7 0 0 15 0 0 16 0 0 18 0 0 23 0 0 31 0 0 35 0 0 38 0 0 48 0 0 187 0 0 15024 0 0 30073 0 0 29993 0 0 30310 0 0 29923 0 0 30117 0 0 30262 0 0 30174 0 0 30099 0 0 30201 0 0 30140 0 0 30039 0 0 30308 0 0 30151 0 0 30111 0 0 30210 0 0 30114 0 0 30431 0 0 30171 0 0 30038 0 0 30269 0 0 30162 0 0 30207 0 0 30114 0 0 30337 0 0 30052 0 0 30035 0 0 30525 0 0 30196 0 0 30207 0 0 29931 0 0 30283 0 0 29832 0 0 30100 0 0 30180 0 0 30160 0 0 29969 0 0 30324 0 0 30094 0 0 29999 0 0 15094 0 0 192 0 0 34 0 0 33 0 0 23 0 0 12 0 0 16 0 0 19 0 0 18 0 0 15 0 0 
6 0 0 12 0 0 16 0 0 16 0 0 24 0 0 24 0 0 25 0 0 27 0 0 46 0 0 197 0 0 14983 0 0 30033 0 0 30059 0 0 30187 0 0 29857 0 0 30017 0 0 30018 0 0 29781 0 0 30281 0 0 30372 0 0 30144 0 0 30212 0 0 29876 0 0 30111 0 0 30403 0 0 30146 0 0 30022 0 0 30251 0 0 30097 0 0 30224 0 0 30256 0 0 30222 0 0 30144 0 0 30180 0 0 30079 0 0 29938 0 0 29953 0 0 30323 0 0 30242 0 0 30082 0 0 29935 0 0 30053 0 0 30086 0 0 30127 0 0 30076 0 0 30313 0 0 30175 0 0 30149 0 0 29781 0 0 30088 0 0 15189 0 0 195 0 0 53 0 0 35 0 0 25 0 0 25 0 0 17 0 0 14 0 0 19 0 0 9 0 0 
5 0 0 10 0 0 13 0 0 22 0 0 19 0 0 21 0 0 33 0 0 33 0 0 49 0 0 207 0 0 14889 0 0 29802 0 0 30002 0 0 30314 0 0 30195 0 0 30012 0 0 30115 0 0 30091 0 0 30178 0 0 30036 0 0 30067 0 0 30157 0 0 30174 0 0 30075 0 0 30003 0 0 30209 0 0 29977 0 0 30201 0 0 30224 0 0 30136 0 0 30262 0 0 29646 0 0 30068 0 0 30389 0 0 30006 0 0 29901 0 0 30169 0 0 30259 0 0 30137 0 0 30042 0 0 29922 0 0 30152 0 0 30274 0 0 29829 0 0 30189 0 0 30096 0 0 30422 0 0 29871 0 0 30144 0 0 29993 0 0 15095 0 0 209 0 0 43 0 0 31 0 0 28 0 0 14 0 0 24 0 0 25 0 0 19 0 0 18 0 0 
1 0 0 9 0 0 15 0 0 21 0 0 19 0 0 32 0 0 24 0 0 30 0 0 54 0 0 193 0 0 15163 0 0 30127 0 0 30187 0 0 29824 0 0 29958 0 0 30127 0 0 30142 0 0 29928 0 0 30129 0 0 30187 0 0 30249 0 0 30539 0 0 29851 0 0 30142 0 0 30260 0 0 30322 0 0 29990 0 0 30173 0 0 30108 0 0 29971 0 0 30199 0 0 30662 0 0 29818 0 0 30205 0 0 30100 0 0 30323 0 0 29983 0 0 30108 0 0 30207 0 0 29996 0 0 30153 0 0 30258 0 0 30233 0 0 30163 0 0 29987 0 0 30110 0 0 29927 0 0 30280 0 0 30057 0 0 29959 0 0 14990 0 0 200 0 0 59 0 0 32 0 0 32 0 0 16 0 0 20 0 0 15 0 0 14 0 0 18 0 0 
4 0 0 21 0 0 24 0 0 21 0 0 24 0 0 30 0 0 35 0 0 40 0 0 47 0 0 178 0 0 15104 0 0 30092 0 0 30152 0 0 30145 0 0 30356 0 0 30454 0 0 30106 0 0 30121 0 0 30092 0 0 30191 0 0 30255 0 0 30371 0 0 30334 0 0 30390 0 0 30083 0 0 29901 0 0 30346 0 0 30066 0 0 30224 0 0 30272 0 0 30320 0 0 30190 0 0 30113 0 0 30079 0 0 30192 0 0 29857 0 0 30002 0 0 29892 0 0 30218 0 0 30058 0 0 30114 0 0 30012 0 0 30263 0 0 30107 0 0 30179 0 0 30189 0 0 30262 0 0 30376 0 0 30327 0 0 30178 0 0 15136 0 0 172 0 0 53 0 0 39 0 0 25 0 0 33 0 0 19 0 0 12 0 0 13 0 0 10 0 0 
10 0 0 15 0 0 17 0 0 19 0 0 19 0 0 16 0 0 28 0 0 33 0 0 43 0 0 198 0 0 14924 0 0 29843 0 0 29880 0 0 30198 0 0 30016 0 0 29968 0 0 29890 0 0 30201 0 0 30478 0 0 30216 0 0 29954 0 0 30277 0 0 29937 0 0 29943 0 0 30173 0 0 30289 0 0 30232 0 0 30181 0 0 30211 0 0 29963 0 0 30236 0 0 30146 0 0 30120 0 0 30074 0 0 30222 0 0 30480 0 0 30269 0 0 29934 0 0 30357 0 0 30175 0 0 30109 0 0 30148 0 0 30138 0 0 30306 0 0 30192 0 0 30061 0 0 30010 0 0 30393 0 0 29903 0 0 30056 0 0 15128 0 0 170 0 0 43 0 0 29 0 0 23 0 0 24 0 0 23 0 0 18 0 0 15 0 0 12 0 0 
4 0 0 13 0 0 14 0 0 14 0 0 21 0 0 29 0 0 29 0 0 45 0 0 56 0 0 198 0 0 14974 0 0 29979 0 0 30129 0 0 30041 0 0 30078 0 0 29982 0 0 30171 0 0 30047 0 0 30013 0 0 30182 0 0 30076 0 0 30167 0 0 30193 0 0 30015 0 0 30292 0 0 29856 0 0 30160 0 0 30046 0 0 30175 0 0 30116 0 0 30073 0 0 30041 0 0 30289 0 0 30163 0 0 30153 0 0 30171 0 0 30042 0 0 30036 0 0 30076 0 0 30298 0 0 29971 0 0 30004 0 0 30189 0 0 30166 0 0 29825 0 0 30002 0 0 29876 0 0 29935 0 0 30074 0 0 29826 0 0 14890 0 0 201 0 0 46 0 0 23 0 0 24 0 0 20 0 0 18 0 0 13 0 0 12 0 0 13 0 0 
8 0 0 13 0 0 11 0 0 14 0 0 22 0 0 19 0 0 23 0 0 27 0 0 37 0 0 182 0 0 15244 0 0 30048 0 0 30085 0 0 30326 0 0 30229 0 0 30063 0 0 30295 0 0 30478 0 0 30066 0 0 30236 0 0 30084 0 0 30254 0 0 30182 0 0 30046 0 0 30005 0 0 29962 0 0 30089 0 0 30129 0 0 29890 0 0 30172 0 0 30244 0 0 30454 0 0 29910 0 0 30191 0 0 30398 0 0 30125 0 0 30393 0 0 30013 0 0 30238 0 0 30207 0 0 30138 0 0 29945 0 0 30160 0 0 30083 0 0 30293 0 0 30041 0 0 30260 0 0 30436 0 0 30230 0 0 29872 0 0 14887 0 0 202 0 0 53 0 0 41 0 0 27 0 0 24 0 0 23 0 0 20 0 0 17 0 0 16 0 0 
4 0 0 13 0 0 19 0 0 17 0 0 19 0 0 22 0 0 26 0 0 32 0 0 40 0 0 200 0 0 15072 0 0 30055 0 0 30267 0 0 30045 0 0 30041 0 0 29945 0 0 29987 0 0 30034 0 0 30278 0 0 29923 0 0 30430 0 0 30061 0 0 30444 0 0 30178 0 0 30283 0 0 30287 0 0 30064 0 0 30208 0 0 29710 0 0 29995 0 0 30043 0 0 29907 0 0 30213 0 0 30146 0 0 30350 0 0 30120 0 0 30321 0 0 30323 0 0 30093 0 0 30209 0 0 30182 0 0 30428 0 0 30070 0 0 30001 0 0 30204 0 0 29995 0 0 30350 0 0 30514 0 0 30092 0 0 29809 0 0 14937 0 0 190 0 0 52 0 0 37 0 0 25 0 0 23 0 0 20 0 0 24 0 0 17 0 0 13 0 0 
8 0 0 17 0 0 16 0 0 22 0 0 25 0 0 29 0 0 26 0 0 26 0 0 35 0 0 155 0 0 15207 0 0 29968 0 0 30171 0 0 30081 0 0 29993 0 0 30407 0 0 30024 0 0 29913 0 0 30252 0 0 30213 0 0 30062 0 0 29930 0 0 29954 0 0 30176 0 0 29998 0 0 30081 0 0 30417 0 0 29961 0 0 30141 0 0 30383 0 0 30368 0 0 29997 0 0 30088 0 0 30048 0 0 30135 0 0 30371 0 0 30045 0 0 30020 0 0 30407 0 0 30213 0 0 30300 0 0 30268 0 0 30162 0 0 30017 0 0 29913 0 0 30147 0 0 30436 0 0 29976 0 0 30274 0 0 30202 0 0 15022 0 0 174 0 0 32 0 0 24 0 0 28 0 0 23 0 0 23 0 0 18 0 0 13 0 0 10 0 0 
5 0 0 9 0 0 12 0 0 18 0 0 14 0 0 15 0 0 27 0 0 30 0 0 43 0 0 198 0 0 15011 0 0 29797 0 0 30094 0 0 30148 0 0 30280 0 0 30168 0 0 30186 0 0 30395 0 0 30210 0 0 30013 0 0 29892 0 0 30014 0 0 30270 0 0 29995 0 0 30352 0 0 29919 0 0 29905 0 0 30381 0 0 29818 0 0 29794 0 0 30377 0 0 30054 0 0 30185 0 0 30234 0 0 30266 0 0 30100 0 0 29958 0 0 30426 0 0 29921 0 0 30061 0 0 30072 0 0 30229 0 0 30287 0 0 29997 0 0 30237 0 0 29959 0 0 30115 0 0 30028 0 0 29740 0 0 29850 0 0 14962 0 0 196 0 0 40 0 0 26 0 0 23 0 0 25 0 0 17 0 0 11 0 0 12 0 0 6 0 0 
4 0 0 6 0 0 12 0 0 14 0 0 12 0 0 15 0 0 19 0 0 35 0 0 42 0 0 179 0 0 15004 0 0 30003 0 0 30188 0 0 30030 0 0 30094 0 0 29814 0 0 30341 0 0 29891 0 0 30213 0 0 30175 0 0 30208 0 0 30096 0 0 30029 0 0 30136 0 0 30037 0 0 30001 0 0 30263 0 0 30119 0 0 30137 0 0 29930 0 0 30338 0 0 30181 0 0 30363 0 0 30071 0 0 30014 0 0 29907 0 0 30271 0 0 30101 0 0 30390 0 0 30240 0 0 30066 0 0 30102 0 0 30163 0 0 30431 0 0 30031 0 0 30212 0 0 30055 0 0 30137 0 0 30130 0 0 29974 0 0 15195 0 0 195 0 0 42 0 0 29 0 0 25 0 0 18 0 0 11 0 0 11 0 0 9 0 0 7 0 0 
2 0 0 9 0 0 13 0 0 17 0 0 13 0 0 19 0 0 26 0 0 34 0 0 38 0 0 169 0 0 15221 0 0 30013 0 0 30015 0 0 30204 0 0 30170 0 0 30289 0 0 30541 0 0 30043 0 0 30213 0 0 30025 0 0 30218 0 0 30026 0 0 30105 0 0 30010 0 0 30221 0 0 30412 0 0 30219 0 0 30182 0 0 30227 0 0 30080 0 0 30124 0 0 30229 0 0 30136 0 0 30289 0 0 30192 0 0 30349 0 0 30359 0 0 29887 0 0 29881 0 0 30034 0 0 30072 0 0 30158 0 0 30203 0 0 30235 0 0 30358 0 0 29950 0 0 30096 0 0 30132 0 0 29807 0 0 29724 0 0 15166 0 0 189 0 0 34 0 0 33 0 0 21 0 0 16 0 0 19 0 0 11 0 0 15 0 0 9 0 0 
8 0 0 21 0 0 15 0 0 11 0 0 15 0 0 24 0 0 34 0 0 43 0 0 51 0 0 180 0 0 14991 0 0 30004 0 0 30102 0 0 30256 0 0 30199 0 0 30160 0 0 30378 0 0 30216 0 0 30081 0 0 30285 0 0 30205 0 0 30335 0 0 30205 0 0 30176 0 0 30005 0 0 30183 0 0 30086 0 0 30089 0 0 30419 0 0 30102 0 0 30243 0 0 30252 0 0 29955 0 0 30115 0 0 30040 0 0 30057 0 0 30126 0 0 29838 0 0 29893 0 0 30300 0 0 30273 0 0 30196 0 0 30027 0 0 30096 0 0 29789 0 0 30276 0 0 30200 0 0 30022 0 0 30194 0 0 29892 0 0 15238 0 0 185 0 0 50 0 0 29 0 0 20 0 0 11 0 0 18 0 0 22 0 0 15 0 0 18 0 0 
5 0 0 15 0 0 13 0 0 12 0 0 19 0 0 15 0 0 23 0 0 29 0 0 40 0 0 184 0 0 15027 0 0 30016 0 0 30263 0 0 29943 0 0 30165 0 0 30308 0 0 30239 0 0 30218 0 0 30455 0 0 30274 0 0 30191 0 0 30092 0 0 30589 0 0 30321 0 0 30154 0 0 29999 0 0 30259 0 0 30134 0 0 29985 0 0 30326 0 0 30124 0 0 30075 0 0 30218 0 0 30278 0 0 30057 0 0 30276 0 0 30263 0 0 30175 0 0 30197 0 0 30341 0 0 30084 0 0 29802 0 0 30086 0 0 29884 0 0 29909 0 0 30235 0 0 30218 0 0 30182 0 0 29874 0 0 29842 0 0 15027 0 0 186 0 0 31 0 0 24 0 0 24 0 0 17 0 0 15 0 0 10 0 0 12 0 0 13 0 0 
5 0 0 11 0 0 13 0 0 14 0 0 13 0 0 15 0 0 20 0 0 31 0 0 43 0 0 183 0 0 14995 0 0 29959 0 0 30208 0 0 30064 0 0 30177 0 0 30441 0 0 30387 0 0 30310 0 0 29988 0 0 30238 0 0 29828 0 0 30338 0 0 30121 0 0 30375 0 0 30045 0 0 30212 0 0 30085 0 0 30189 0 0 30096 0 0 30054 0 0 30010 0 0 30003 0 0 30204 0 0 30209 0 0 30279 0 0 30262 0 0 30153 0 0 29903 0 0 29866 0 0 29943 0 0 30189 0 0 30085 0 0 30117 0 0 30033 0 0 29950 0 0 29984 0 0 30034 0 0 30283 0 0 30047 0 0 30179 0 0 15171 0 0 171 0 0 38 0 0 21 0 0 20 0 0 14 0 0 12 0 0 9 0 0 11 0 0 12 0 0 
7 0 0 13 0 0 9 0 0 9 0 0 12 0 0 13 0 0 16 0 0 23 0 0 24 0 0 176 0 0 15337 0 0 29594 0 0 30295 0 0 29965 0 0 29884 0 0 30063 0 0 29980 0 0 30566 0 0 30097 0 0 30019 0 0 30161 0 0 30208 0 0 30214 0 0 30049 0 0 29933 0 0 29970 0 0 30096 0 0 30224 0 0 30165 0 0 29897 0 0 30344 0 0 30339 0 0 29986 0 0 29950 0 0 29926 0 0 30315 0 0 30110 0 0 30209 0 0 30116 0 0 30001 0 0 30158 0 0 30404 0 0 30064 0 0 30058 0 0 30228 0 0 29977 0 0 30021 0 0 30014 0 0 30160 0 0 29736 0 0 15088 0 0 180 0 0 31 0 0 25 0 0 18 0 0 10 0 0 7 0 0 14 0 0 10 0 0 8 0 0 
4 0 0 6 0 0 6 0 0 6 0 0 9 0 0 15 0 0 19 0 0 26 0 0 27 0 0 155 0 0 14883 0 0 29448 0 0 30225 0 0 29872 0 0 29701 0 0 30088 0 0 29973 0 0 29887 0 0 29915 0 0 29854 0 0 30071 0 0 29951 0 0 30016 0 0 30205 0 0 29829 0 0 29676 0 0 30068 0 0 30192 0 0 30156 0 0 29934 0 0 29703 0 0 30157 0 0 29987 0 0 30071 0 0 29801 0 0 30003 0 0 30034 0 0 30071 0 0 30253 0 0 29906 0 0 29956 0 0 29995 0 0 30038 0 0 30011 0 0 29814 0 0 29653 0 0 30089 0 0 29726 0 0 30118 0 0 29772 0 0 14971 0 0 178 0 0 24 0 0 18 0 0 20 0 0 12 0 0 17 0 0 17 0 0 8 0 0 7 0 0 
1 0 0 3 0 0 7 0 0 10 0 0 12 0 0 11 0 0 15 0 0 16 0 0 19 0 0 93 0 0 7618 0 0 14958 0 0 14963 0 0 15061 0 0 14981 0 0 15052 0 0 15185 0 0 14986 0 0 15235 0 0 14940 0 0 14938 0 0 15140 0 0 14845 0 0 15093 0 0 14981 0 0 15191 0 0 15202 0 0 15052 0 0 15005 0 0 15055 0 0 15317 0 0 15059 0 0 15134 0 0 15081 0 0 14937 0 0 15197 0 0 15016 0 0 14990 0 0 15070 0 0 15129 0 0 15287 0 0 15027 0 0 15155 0 0 15091 0 0 15105 0 0 15236 0 0 15044 0 0 15106 0 0 15056 0 0 14972 0 0 7448 0 0 93 0 0 22 0 0 15 0 0 16 0 0 12 0 0 8 0 0 14 0 0 12 0 0 11 0 0 
3 0 0 10 0 0 11 0 0 15 0 0 13 0 0 15 0 0 14 0 0 17 0 0 12 0 0 28 0 0 98 0 0 167 0 0 202 0 0 181 0 0 180 0 0 188 0 0 175 0 0 180 0 0 184 0 0 200 0 0 201 0 0 187 0 0 199 0 0 198 0 0 190 0 0 188 0 0 189 0 0 197 0 0 189 0 0 192 0 0 188 0 0 195 0 0 206 0 0 191 0 0 176 0 0 177 0 0 206 0 0 188 0 0 184 0 0 182 0 0 184 0 0 180 0 0 217 0 0 176 0 0 178 0 0 196 0 0 179 0 0 187 0 0 176 0 0 176 0 0 106 0 0 32 0 0 13 0 0 13 0 0 9 0 0 14 0 0 7 0 0 12 0 0 13 0 0 11 0 0 
3 0 0 6 0 0 10 0 0 5 0 0 11 0 0 8 0 0 13 0 0 7 0 0 12 0 0 22 0 0 22 0 0 28 0 0 34 0 0 48 0 0 41 0 0 30 0 0 35 0 0 45 0 0 45 0 0 41 0 0 35 0 0 49 0 0 40 0 0 49 0 0 43 0 0 36 0 0 47 0 0 50 0 0 44 0 0 43 0 0 40 0 0 50 0 0 36 0 0 43 0 0 51 0 0 48 0 0 37 0 0 53 0 0 41 0 0 55 0 0 42 0 0 51 0 0 41 0 0 44 0 0 48 0 0 47 0 0 30 0 0 30 0 0 34 0 0 32 0 0 22 0 0 27 0 0 15 0 0 21 0 0 14 0 0 11 0 0 11 0 0 5 0 0 8 0 0 4 0 0 
2 0 0 8 0 0 3 0 0 8 0 0 11 0 0 11 0 0 5 0 0 11 0 0 13 0 0 25 0 0 19 0 0 22 0 0 29 0 0 27 0 0 28 0 0 16 0 0 21 0 0 44 0 0 31 0 0 35 0 0 33 0 0 36 0 0 44 0 0 37 0 0 34 0 0 35 0 0 40 0 0 27 0 0 32 0 0 35 0 0 39 0 0 32 0 0 40 0 0 34 0 0 35 0 0 33 0 0 27 0 0 34 0 0 34 0 0 36 0 0 38 0 0 34 0 0 36 0 0 26 0 0 30 0 0 24 0 0 24 0 0 24 0 0 20 0 0 23 0 0 17 0 0 23 0 0 18 0 0 13 0 0 12 0 0 10 0 0 7 0 0 8 0 0 4 0 0 6 0 0 
4 0 0 4 0 0 3 0 0 8 0 0 8 0 0 9 0 0 8 0 0 11 0 0 12 0 0 21 0 0 14 0 0 18 0 0 23 0 0 25 0 0 22 0 0 14 0 0 19 0 0 29 0 0 25 0 0 19 0 0 26 0 0 35 0 0 30 0 0 34 0 0 31 0 0 30 0 0 27 0 0 23 0 0 28 0 0 29 0 0 24 0 0 21 0 0 43 0 0 27 0 0 21 0 0 22 0 0 29 0 0 27 0 0 26 0 0 29 0 0 31 0 0 35 0 0 30 0 0 32 0 0 19 0 0 15 0 0 21 0 0 24 0 0 16 0 0 17 0 0 18 0 0 13 0 0 16 0 0 7 0 0 10 0 0 8 0 0 9 0 0 7 0 0 7 0 0 2 0 0 
1 0 0 2 0 0 8 0 0 12 0 0 8 0 0 11 0 0 9 0 0 15 0 0 14 0 0 13 0 0 13 0 0 18 0 0 20 0 0 18 0 0 12 0 0 15 0 0 16 0 0 21 0 0 16 0 0 24 0 0 22 0 0 28 0 0 26 0 0 27 0 0 30 0 0 21 0 0 19 0 0 21 0 0 24 0 0 27 0 0 21 0 0 19 0 0 26 0 0 22 0 0 23 0 0 18 0 0 19 0 0 33 0 0 17 0 0 22 0 0 13 0 0 25 0 0 29 0 0 22 0 0 19 0 0 13 0 0 13 0 0 19 0 0 14 0 0 16 0 0 17 0 0 11 0 0 17 0 0 9 0 0 2 0 0 4 0 0 1 0 0 6 0 0 8 0 0 6 0 0 
3 0 0 11 0 0 10 0 0 5 0 0 8 0 0 10 0 0 12 0 0 15 0 0 12 0 0 14 0 0 9 0 0 12 0 0 15 0 0 14 0 0 10 0 0 19 0 0 9 0 0 11 0 0 12 0 0 20 0 0 14 0 0 24 0 0 22 0 0 23 0 0 19 0 0 16 0 0 9 0 0 16 0 0 24 0 0 13 0 0 18 0 0 22 0 0 16 0 0 18 0 0 21 0 0 20 0 0 15 0 0 19 0 0 18 0 0 18 0 0 13 0 0 12 0 0 18 0 0 13 0 0 18 0 0 11 0 0 11 0 0 14 0 0 12 0 0 15 0 0 15 0 0 14 0 0 8 0 0 9 0 0 5 0 0 3 0 0 5 0 0 5 0 0 7 0 0 7 0 0 
2 0 0 8 0 0 3 0 0 6 0 0 7 0 0 8 0 0 12 0 0 6 0 0 10 0 0 6 0 0 5 0 0 12 0 0 14 0 0 13 0 0 9 0 0 7 0 0 8 0 0 11 0 0 12 0 0 17 0 0 12 0 0 13 0 0 12 0 0 15 0 0 16 0 0 12 0 0 14 0 0 16 0 0 13 0 0 14 0 0 17 0 0 18 0 0 13 0 0 19 0 0 23 0 0 26 0 0 21 0 0 22 0 0 23 0 0 15 0 0 14 0 0 9 0 0 12 0 0 13 0 0 10 0 0 8 0 0 14 0 0 17 0 0 14 0 0 15 0 0 14 0 0 15 0 0 11 0 0 5 0 0 6 0 0 4 0 0 0 0 0 3 0 0 7 0 0 8 0 0 
4 0 0 11 0 0 10 0 0 6 0 0 5 0 0 8 0 0 7 0 0 4 0 0 9 0 0 5 0 0 7 0 0 9 0 0 14 0 0 11 0 0 9 0 0 10 0 0 8 0 0 7 0 0 11 0 0 13 0 0 10 0 0 13 0 0 14 0 0 11 0 0 12 0 0 6 0 0 17 0 0 12 0 0 10 0 0 12 0 0 17 0 0 13 0 0 15 0 0 12 0 0 20 0 0 22 0 0 18 0 0 22 0 0 18 0 0 13 0 0 13 0 0 10 0 0 6 0 0 12 0 0 11 0 0 11 0 0 9 0 0 10 0 0 13 0 0 17 0 0 13 0 0 13 0 0 14 0 0 8 0 0 9 0 0 3 0 0 5 0 0 4 0 0 6 0 0 7 0 0 
4 0 0 6 0 0 4 0 0 7 0 0 3 0 0 4 0 0 5 0 0 7 0 0 10 0 0 7 0 0 3 0 0 13 0 0 8 0 0 7 0 0 11 0 0 8 0 0 4 0 0 11 0 0 7 0 0 16 0 0 12 0 0 8 0 0 10 0 0 13 0 0 7 0 0 8 0 0 12 0 0 13 0 0 7 0 0 8 0 0 13 0 0 16 0 0 13 0 0 18 0 0 13 0 0 22 0 0 14 0 0 16 0 0 19 0 0 11 0 0 18 0 0 12 0 0 6 0 0 9 0 0 12 0 0 12 0 0 12 0 0 7 0 0 9 0 0 10 0 0 11 0 0 7 0 0 13 0 0 12 0 0 5 0 0 5 0 0 2 0 0 5 0 0 4 0 0 7 0 0 
