P3
# This is a dose file slice at depth 26 of 100
60 60
# now we give the maximum value of the RGB coordinates.
34204
0 0 0 0 0 0 0 0 0 0 0 0 0 0 0 0 0 0 0 0 0 0 0 0 0 0 0 0 0 0 0 0 0 0 0 0 0 0 0 0 0 0 0 0 0 0 0 0 0 0 0 0 0 0 0 0 0 0 0 0 0 0 0 0 0 0 0 0 0 0 0 0 0 0 0 0 0 0 0 0 0 0 0 0 0 0 0 0 0 0 0 0 0 0 0 0 0 0 0 0 0 0 0 0 0 0 0 0 0 0 0 0 0 0 0 0 0 0 0 0 0 0 0 0 0 0 0 0 0 0 0 0 0 0 0 0 0 0 0 0 0 0 0 0 0 0 0 0 0 0 0 0 0 0 0 0 0 0 0 0 0 0 0 0 0 0 0 0 0 0 0 0 0 0 0 0 0 0 0 0 
0 0 0 0 0 0 0 0 0 0 0 0 0 0 0 0 0 0 0 0 0 0 0 0 0 0 0 0 0 0 0 0 0 0 0 0 0 0 0 0 0 0 0 0 0 0 0 0 0 0 0 0 0 0 0 0 0 0 0 0 0 0 0 0 0 0 0 0 0 0 0 0 0 0 0 0 0 0 0 0 0 0 0 0 0 0 0 0 0 0 0 0 0 0 0 0 0 0 0 0 0 0 0 0 0 0 0 0 0 0 0 0 0 0 0 0 0 0 0 0 0 0 0 0 0 0 0 0 0 0 0 0 0 0 0 0 0 0 0 0 0 0 0 0 0 0 0 0 0 0 0 0 0 0 0 0 0 0 0 0 0 0 0 0 0 0 0 0 0 0 0 0 0 0 0 0 0 0 0 0 
0 0 0 0 0 0 0 0 0 0 0 0 0 0 0 0 0 0 0 0 0 0 0 0 0 0 0 0 0 0 0 0 0 0 0 0 0 0 0 0 0 0 0 0 0 0 0 0 0 0 0 0 0 0 0 0 0 0 0 0 0 0 0 0 0 0 0 0 0 0 0 0 0 0 0 0 0 0 0 0 0 0 0 0 0 0 0 0 0 0 0 0 0 0 0 0 0 0 0 0 0 0 0 0 0 0 0 0 0 0 0 0 0 0 0 0 0 0 0 0 0 0 0 0 0 0 0 0 0 0 0 0 0 0 0 0 0 0 0 0 0 0 0 0 0 0 0 0 0 0 0 0 0 0 0 0 0 0 0 0 0 0 0 0 0 0 0 0 0 0 0 0 0 0 0 0 0 0 0 0 
0 0 0 0 0 0 0 0 0 0 0 0 0 0 0 0 0 0 0 0 0 0 0 0 0 0 0 0 0 0 0 0 0 0 0 0 0 0 0 0 0 0 0 0 0 0 0 0 0 0 0 0 0 0 0 0 0 0 0 0 0 0 0 0 0 0 0 0 0 0 0 0 0 0 0 0 0 0 0 0 0 0 0 0 0 0 0 0 0 0 0 0 0 0 0 0 0 0 0 0 0 0 0 0 0 0 0 0 0 0 0 0 0 0 0 0 0 0 0 0 0 0 0 0 0 0 0 0 0 0 0 0 0 0 0 0 0 0 0 0 0 0 0 0 0 0 0 0 0 0 0 0 0 0 0 0 0 0 0 0 0 0 0 0 0 0 0 0 0 0 0 0 0 0 0 0 0 0 0 0 
0 0 0 0 0 0 0 0 0 0 0 0 0 0 0 0 0 0 0 0 0 0 0 0 0 0 0 0 0 0 0 0 0 0 0 0 0 0 0 0 0 0 0 0 0 0 0 0 0 0 0 0 0 0 0 0 0 0 0 0 0 0 0 0 0 0 0 0 0 0 0 0 0 0 0 0 0 0 0 0 0 0 0 0 0 0 0 0 0 0 0 0 0 0 0 0 0 0 0 0 0 0 0 0 0 0 0 0 0 0 0 0 0 0 0 0 0 0 0 0 0 0 0 0 0 0 0 0 0 0 0 0 0 0 0 0 0 0 0 0 0 0 0 0 0 0 0 0 0 0 0 0 0 0 0 0 0 0 0 0 0 0 0 0 0 0 0 0 0 0 0 0 0 0 0 0 0 0 0 0 
0 0 0 0 0 0 0 0 0 0 0 0 0 0 0 0 0 0 0 0 0 0 0 0 0 0 0 0 0 0 0 0 0 0 0 0 0 0 0 0 0 0 0 0 0 0 0 0 0 0 0 0 0 0 0 0 0 0 0 0 0 0 0 0 0 0 0 0 0 0 0 0 0 0 0 0 0 0 0 0 0 0 0 0 0 0 0 0 0 0 0 0 0 0 0 0 0 0 0 0 0 0 0 0 0 0 0 0 0 0 0 0 0 0 0 0 0 0 0 0 0 0 0 0 0 0 0 0 0 0 0 0 0 0 0 0 0 0 0 0 0 0 0 0 0 0 0 0 0 0 0 0 0 0 0 0 0 0 0 0 0 0 0 0 0 0 0 0 0 0 0 0 0 0 0 0 0 0 0 0 
0 0 0 0 0 0 0 0 0 0 0 0 0 0 0 0 0 0 0 0 0 0 0 0 0 0 0 0 0 0 0 0 0 0 0 0 0 0 0 0 0 0 0 0 0 0 0 0 0 0 0 0 0 0 0 0 0 0 0 0 0 0 0 0 0 0 0 0 0 0 0 0 0 0 0 0 0 0 0 0 0 0 0 0 0 0 0 0 0 0 0 0 0 0 0 0 0 0 0 0 0 0 0 0 0 0 0 0 0 0 0 0 0 0 0 0 0 0 0 0 0 0 0 0 0 0 0 0 0 0 0 0 0 0 0 0 0 0 0 0 0 0 0 0 0 0 0 0 0 0 0 0 0 0 0 0 0 0 0 0 0 0 0 0 0 0 0 0 0 0 0 0 0 0 0 0 0 0 0 0 
0 0 0 0 0 0 0 0 0 0 0 0 0 0 0 0 0 0 0 0 0 0 0 0 0 0 0 0 0 0 0 0 0 0 0 0 0 0 0 0 0 0 0 0 0 0 0 0 0 0 0 0 0 0 0 0 0 0 0 0 0 0 0 0 0 0 0 0 0 0 0 0 0 0 0 0 0 0 0 0 0 0 0 0 0 0 0 0 0 0 0 0 0 0 0 0 0 0 0 0 0 0 0 0 0 0 0 0 0 0 0 0 0 0 0 0 0 0 0 0 0 0 0 0 0 0 0 0 0 0 0 0 0 0 0 0 0 0 0 0 0 0 0 0 0 0 0 0 0 0 0 0 0 0 0 0 0 0 0 0 0 0 0 0 0 0 0 0 0 0 0 0 0 0 0 0 0 0 0 0 
0 0 0 0 0 0 0 0 0 0 0 0 0 0 0 0 0 0 0 0 0 0 0 0 0 0 0 0 0 0 0 0 0 0 0 0 0 0 0 0 0 0 0 0 0 0 0 0 0 0 0 0 0 0 0 0 0 0 0 0 0 0 0 0 0 0 0 0 0 0 0 0 0 0 0 0 0 0 0 0 0 0 0 0 0 0 0 0 0 0 0 0 0 0 0 0 0 0 0 0 0 0 0 0 0 0 0 0 0 0 0 0 0 0 0 0 0 0 0 0 0 0 0 0 0 0 0 0 0 0 0 0 0 0 0 0 0 0 0 0 0 0 0 0 0 0 0 0 0 0 0 0 0 0 0 0 0 0 0 0 0 0 0 0 0 0 0 0 0 0 0 0 0 0 0 0 0 0 0 0 
0 0 0 0 0 0 0 0 0 0 0 0 0 0 0 0 0 0 0 0 0 0 0 0 0 0 0 0 0 0 0 0 0 0 0 0 0 0 0 0 0 0 0 0 0 0 0 0 0 0 0 0 0 0 0 0 0 0 0 0 0 0 0 0 0 0 0 0 0 0 0 0 0 0 0 0 0 0 0 0 0 0 0 0 0 0 0 0 0 0 0 0 0 0 0 0 0 0 0 0 0 0 0 0 0 0 0 0 0 0 0 0 0 0 0 0 0 0 0 0 0 0 0 0 0 0 0 0 0 0 0 0 0 0 0 0 0 0 0 0 0 0 0 0 0 0 0 0 0 0 0 0 0 0 0 0 0 0 0 0 0 0 0 0 0 0 0 0 0 0 0 0 0 0 0 0 0 0 0 0 
0 0 0 0 0 0 0 0 0 0 0 0 0 0 0 0 0 0 0 0 0 0 0 0 0 0 0 0 0 0 3862 0 0 7533 0 0 7808 0 0 7760 0 0 7642 0 0 7855 0 0 7706 0 0 7744 0 0 7806 0 0 7624 0 0 7695 0 0 7879 0 0 7801 0 0 7718 0 0 7716 0 0 7713 0 0 7664 0 0 7747 0 0 7787 0 0 7907 0 0 7821 0 0 7710 0 0 7575 0 0 7769 0 0 7682 0 0 7752 0 0 7672 0 0 7799 0 0 7817 0 0 7785 0 0 7652 0 0 7630 0 0 7630 0 0 7566 0 0 7773 0 0 7762 0 0 8030 0 0 7678 0 0 7786 0 0 7733 0 0 3816 0 0 0 0 0 0 0 0 0 0 0 0 0 0 0 0 0 0 0 0 0 0 0 0 0 0 0 0 0 
0 0 0 0 0 0 0 0 0 0 0 0 0 0 0 0 0 0 0 0 0 0 0 0 0 0 0 0 0 0 7742 0 0 15381 0 0 15644 0 0 15429 0 0 15293 0 0 15439 0 0 15341 0 0 15264 0 0 15506 0 0 15318 0 0 15570 0 0 15514 0 0 15309 0 0 15648 0 0 15266 0 0 15519 0 0 15614 0 0 15554 0 0 15416 0 0 15141 0 0 15445 0 0 15306 0 0 15799 0 0 15211 0 0 15432 0 0 15360 0 0 15477 0 0 15514 0 0 15483 0 0 15574 0 0 15563 0 0 15487 0 0 15326 0 0 15443 0 0 15450 0 0 15385 0 0 15246 0 0 15277 0 0 15232 0 0 15687 0 0 7869 0 0 0 0 0 0 0 0 0 0 0 0 0 0 0 0 0 0 0 0 0 0 0 0 0 0 0 0 0 
0 0 0 0 0 0 0 0 0 0 0 0 0 0 0 0 0 0 0 0 0 0 0 0 0 0 0 0 0 0 7750 0 0 15548 0 0 15278 0 0 15463 0 0 15416 0 0 15396 0 0 15529 0 0 15344 0 0 15562 0 0 15483 0 0 15555 0 0 15490 0 0 15348 0 0 15315 0 0 15353 0 0 15511 0 0 15584 0 0 15451 0 0 15385 0 0 15452 0 0 15411 0 0 15293 0 0 15467 0 0 15278 0 0 15281 0 0 15657 0 0 15417 0 0 15452 0 0 15475 0 0 15360 0 0 15468 0 0 15707 0 0 15509 0 0 15326 0 0 15385 0 0 15403 0 0 15503 0 0 15389 0 0 15210 0 0 15576 0 0 7732 0 0 0 0 0 0 0 0 0 0 0 0 0 0 0 0 0 0 0 0 0 0 0 0 0 0 0 0 0 
0 0 0 0 0 0 0 0 0 0 0 0 0 0 0 0 0 0 0 0 0 0 0 0 0 0 0 0 0 0 7928 0 0 15478 0 0 15487 0 0 15626 0 0 15453 0 0 15792 0 0 15456 0 0 15662 0 0 15514 0 0 15323 0 0 15515 0 0 15666 0 0 15488 0 0 15564 0 0 15371 0 0 15269 0 0 15375 0 0 15235 0 0 15568 0 0 15576 0 0 15267 0 0 15570 0 0 15300 0 0 15602 0 0 15634 0 0 15443 0 0 15415 0 0 15491 0 0 15324 0 0 15392 0 0 15274 0 0 15355 0 0 15535 0 0 15391 0 0 15534 0 0 15490 0 0 15354 0 0 15587 0 0 15461 0 0 15314 0 0 7788 0 0 0 0 0 0 0 0 0 0 0 0 0 0 0 0 0 0 0 0 0 0 0 0 0 0 0 0 0 
0 0 0 0 0 0 0 0 0 0 0 0 0 0 0 0 0 0 0 0 0 0 0 0 0 0 0 0 0 0 7591 0 0 15370 0 0 15530 0 0 15602 0 0 15447 0 0 15609 0 0 15238 0 0 15513 0 0 15537 0 0 15415 0 0 15466 0 0 15580 0 0 15482 0 0 15420 0 0 15335 0 0 15628 0 0 15281 0 0 15410 0 0 15611 0 0 15512 0 0 15328 0 0 15504 0 0 15537 0 0 15461 0 0 15466 0 0 15323 0 0 15457 0 0 15663 0 0 15447 0 0 15412 0 0 15421 0 0 15298 0 0 15046 0 0 15357 0 0 15448 0 0 15454 0 0 15279 0 0 15505 0 0 15410 0 0 15324 0 0 7707 0 0 0 0 0 0 0 0 0 0 0 0 0 0 0 0 0 0 0 0 0 0 0 0 0 0 0 0 0 
0 0 0 0 0 0 0 0 0 0 0 0 0 0 0 0 0 0 0 0 0 0 0 0 0 0 0 0 0 0 7726 0 0 15490 0 0 15457 0 0 15587 0 0 15493 0 0 15464 0 0 15432 0 0 15393 0 0 15383 0 0 15461 0 0 15327 0 0 15525 0 0 15372 0 0 15478 0 0 15325 0 0 15210 0 0 15715 0 0 15236 0 0 15415 0 0 15377 0 0 15375 0 0 15480 0 0 15550 0 0 15642 0 0 15489 0 0 15370 0 0 15512 0 0 15444 0 0 15460 0 0 15332 0 0 15741 0 0 15590 0 0 15313 0 0 15457 0 0 15126 0 0 15359 0 0 15325 0 0 15622 0 0 15692 0 0 15419 0 0 7532 0 0 0 0 0 0 0 0 0 0 0 0 0 0 0 0 0 0 0 0 0 0 0 0 0 0 0 0 0 
0 0 0 0 0 0 0 0 0 0 0 0 0 0 0 0 0 0 0 0 0 0 0 0 0 0 0 0 0 0 7783 0 0 15465 0 0 15453 0 0 15379 0 0 15379 0 0 15315 0 0 15257 0 0 15540 0 0 15081 0 0 15325 0 0 15706 0 0 15384 0 0 15333 0 0 15567 0 0 15391 0 0 15286 0 0 15381 0 0 15450 0 0 15399 0 0 15360 0 0 15425 0 0 15348 0 0 15293 0 0 15683 0 0 15510 0 0 15619 0 0 15351 0 0 15559 0 0 15500 0 0 15465 0 0 15590 0 0 15437 0 0 15532 0 0 15428 0 0 15414 0 0 15353 0 0 15260 0 0 15523 0 0 15442 0 0 15538 0 0 7772 0 0 0 0 0 0 0 0 0 0 0 0 0 0 0 0 0 0 0 0 0 0 0 0 0 0 0 0 0 
0 0 0 0 0 0 0 0 0 0 0 0 0 0 0 0 0 0 0 0 0 0 0 0 0 0 0 0 0 0 7872 0 0 15533 0 0 15427 0 0 15609 0 0 15309 0 0 15466 0 0 15442 0 0 15466 0 0 15369 0 0 15558 0 0 15598 0 0 15501 0 0 15647 0 0 15439 0 0 15406 0 0 15434 0 0 15569 0 0 15441 0 0 15480 0 0 15574 0 0 15304 0 0 15593 0 0 15528 0 0 15383 0 0 15643 0 0 15728 0 0 15454 0 0 15530 0 0 15545 0 0 15502 0 0 15495 0 0 15597 0 0 15584 0 0 15535 0 0 15558 0 0 15392 0 0 15537 0 0 15348 0 0 15338 0 0 15646 0 0 7732 0 0 0 0 0 0 0 0 0 0 0 0 0 0 0 0 0 0 0 0 0 0 0 0 0 0 0 0 0 
0 0 0 0 0 0 0 0 0 0 0 0 0 0 0 0 0 0 0 0 0 0 0 0 0 0 0 0 0 0 7853 0 0 15625 0 0 15465 0 0 15497 0 0 15397 0 0 15719 0 0 15620 0 0 15481 0 0 15458 0 0 15535 0 0 15462 0 0 15504 0 0 15366 0 0 15369 0 0 15574 0 0 15751 0 0 15567 0 0 15515 0 0 15497 0 0 15542 0 0 15541 0 0 15670 0 0 15352 0 0 15362 0 0 15215 0 0 15370 0 0 15375 0 0 15303 0 0 15524 0 0 15595 0 0 15584 0 0 15583 0 0 15360 0 0 15521 0 0 15506 0 0 15553 0 0 15674 0 0 15457 0 0 15313 0 0 15644 0 0 7628 0 0 0 0 0 0 0 0 0 0 0 0 0 0 0 0 0 0 0 0 0 0 0 0 0 0 0 0 0 
0 0 0 0 0 0 0 0 0 0 0 0 0 0 0 0 0 0 0 0 0 0 0 0 0 0 0 0 0 0 7664 0 0 15330 0 0 15403 0 0 15627 0 0 15514 0 0 15572 0 0 15617 0 0 15335 0 0 15563 0 0 15420 0 0 15374 0 0 15554 0 0 15293 0 0 15451 0 0 15766 0 0 15480 0 0 15371 0 0 15552 0 0 15734 0 0 15494 0 0 15621 0 0 15370 0 0 15580 0 0 15425 0 0 15499 0 0 15479 0 0 15623 0 0 15429 0 0 15636 0 0 15353 0 0 15629 0 0 15426 0 0 15237 0 0 15511 0 0 15435 0 0 15506 0 0 15372 0 0 15581 0 0 15419 0 0 15418 0 0 7718 0 0 0 0 0 0 0 0 0 0 0 0 0 0 0 0 0 0 0 0 0 0 0 0 0 0 0 0 0 
0 0 0 0 0 0 0 0 0 0 0 0 0 0 0 0 0 0 0 0 0 0 0 0 0 0 0 0 0 0 7880 0 0 15627 0 0 15419 0 0 15312 0 0 15645 0 0 15509 0 0 15323 0 0 15519 0 0 15405 0 0 15425 0 0 15604 0 0 15474 0 0 15469 0 0 15619 0 0 15361 0 0 15584 0 0 15297 0 0 15425 0 0 15311 0 0 15496 0 0 15518 0 0 15379 0 0 15459 0 0 15335 0 0 15463 0 0 15348 0 0 15273 0 0 15624 0 0 15278 0 0 15463 0 0 15539 0 0 15611 0 0 15527 0 0 15442 0 0 15351 0 0 15406 0 0 15520 0 0 15473 0 0 15535 0 0 15620 0 0 7555 0 0 0 0 0 0 0 0 0 0 0 0 0 0 0 0 0 0 0 0 0 0 0 0 0 0 0 0 0 
0 0 0 0 0 0 0 0 0 0 0 0 0 0 0 0 0 0 0 0 0 0 0 0 0 0 0 0 0 0 7721 0 0 15316 0 0 15537 0 0 15475 0 0 15249 0 0 15533 0 0 15409 0 0 15486 0 0 15455 0 0 15455 0 0 15524 0 0 15548 0 0 15599 0 0 15756 0 0 15488 0 0 15765 0 0 15715 0 0 15364 0 0 15669 0 0 15751 0 0 15537 0 0 15616 0 0 15498 0 0 15584 0 0 15714 0 0 15520 0 0 15399 0 0 15401 0 0 15766 0 0 15385 0 0 15510 0 0 15419 0 0 15392 0 0 15351 0 0 15458 0 0 15485 0 0 15371 0 0 15495 0 0 15395 0 0 15444 0 0 7729 0 0 0 0 0 0 0 0 0 0 0 0 0 0 0 0 0 0 0 0 0 0 0 0 0 0 0 0 0 
0 0 0 0 0 0 0 0 0 0 0 0 0 0 0 0 0 0 0 0 0 0 0 0 0 0 0 0 0 0 7567 0 0 15384 0 0 15527 0 0 15399 0 0 15565 0 0 15473 0 0 15523 0 0 15524 0 0 15466 0 0 15616 0 0 15268 0 0 15400 0 0 15301 0 0 15679 0 0 15181 0 0 15469 0 0 15605 0 0 15513 0 0 15490 0 0 15595 0 0 15229 0 0 15412 0 0 15310 0 0 15309 0 0 15382 0 0 15528 0 0 15720 0 0 15432 0 0 15675 0 0 15489 0 0 15342 0 0 15392 0 0 15529 0 0 15434 0 0 15354 0 0 15391 0 0 15488 0 0 15336 0 0 15331 0 0 15648 0 0 7876 0 0 0 0 0 0 0 0 0 0 0 0 0 0 0 0 0 0 0 0 0 0 0 0 0 0 0 0 0 
0 0 0 0 0 0 0 0 0 0 0 0 0 0 0 0 0 0 0 0 0 0 0 0 0 0 0 0 0 0 7652 0 0 15449 0 0 15572 0 0 15464 0 0 15593 0 0 15453 0 0 15586 0 0 15473 0 0 15343 0 0 15529 0 0 15467 0 0 15297 0 0 15472 0 0 15507 0 0 15612 0 0 15363 0 0 15403 0 0 15451 0 0 15358 0 0 15790 0 0 15384 0 0 15504 0 0 15412 0 0 15384 0 0 15355 0 0 15603 0 0 15511 0 0 15514 0 0 15436 0 0 15529 0 0 15427 0 0 15508 0 0 15357 0 0 15714 0 0 15413 0 0 15214 0 0 15519 0 0 15454 0 0 15462 0 0 15531 0 0 7758 0 0 0 0 0 0 0 0 0 0 0 0 0 0 0 0 0 0 0 0 0 0 0 0 0 0 0 0 0 
0 0 0 0 0 0 0 0 0 0 0 0 0 0 0 0 0 0 0 0 0 0 0 0 0 0 0 0 0 0 7863 0 0 15445 0 0 15432 0 0 15706 0 0 15576 0 0 15518 0 0 15459 0 0 15270 0 0 15372 0 0 15363 0 0 15436 0 0 15505 0 0 15740 0 0 15559 0 0 15273 0 0 15577 0 0 15602 0 0 15557 0 0 15472 0 0 15473 0 0 15628 0 0 15511 0 0 15353 0 0 15331 0 0 15561 0 0 15594 0 0 15461 0 0 15496 0 0 15464 0 0 15421 0 0 15316 0 0 15272 0 0 15269 0 0 15671 0 0 15131 0 0 15498 0 0 15465 0 0 15554 0 0 15465 0 0 15467 0 0 7541 0 0 0 0 0 0 0 0 0 0 0 0 0 0 0 0 0 0 0 0 0 0 0 0 0 0 0 0 0 
0 0 0 0 0 0 0 0 0 0 0 0 0 0 0 0 0 0 0 0 0 0 0 0 0 0 0 0 0 0 7936 0 0 15392 0 0 15411 0 0 15378 0 0 15468 0 0 15470 0 0 15456 0 0 15562 0 0 15645 0 0 15474 0 0 15507 0 0 15481 0 0 15393 0 0 15425 0 0 15392 0 0 15772 0 0 15257 0 0 15556 0 0 15511 0 0 15600 0 0 15398 0 0 15482 0 0 15271 0 0 15169 0 0 15241 0 0 15360 0 0 15586 0 0 15432 0 0 15612 0 0 15589 0 0 15499 0 0 15593 0 0 15448 0 0 15531 0 0 15487 0 0 15413 0 0 15650 0 0 15538 0 0 15507 0 0 15679 0 0 7745 0 0 0 0 0 0 0 0 0 0 0 0 0 0 0 0 0 0 0 0 0 0 0 0 0 0 0 0 0 
0 0 0 0 0 0 0 0 0 0 0 0 0 0 0 0 0 0 0 0 0 0 0 0 0 0 0 0 0 0 7834 0 0 15450 0 0 15383 0 0 15698 0 0 15554 0 0 15448 0 0 15447 0 0 15444 0 0 15377 0 0 15556 0 0 15679 0 0 15544 0 0 15449 0 0 15579 0 0 15352 0 0 15618 0 0 15522 0 0 15495 0 0 15607 0 0 15345 0 0 15457 0 0 15597 0 0 15406 0 0 15867 0 0 15608 0 0 15289 0 0 15251 0 0 15559 0 0 15466 0 0 15297 0 0 15548 0 0 15422 0 0 15489 0 0 15538 0 0 15174 0 0 15225 0 0 15424 0 0 15514 0 0 15354 0 0 15418 0 0 7709 0 0 0 0 0 0 0 0 0 0 0 0 0 0 0 0 0 0 0 0 0 0 0 0 0 0 0 0 0 
0 0 0 0 0 0 0 0 0 0 0 0 0 0 0 0 0 0 0 0 0 0 0 0 0 0 0 0 0 0 7613 0 0 15527 0 0 15423 0 0 15458 0 0 15724 0 0 15263 0 0 15379 0 0 15592 0 0 15465 0 0 15449 0 0 15568 0 0 15417 0 0 15365 0 0 15371 0 0 15369 0 0 15558 0 0 15485 0 0 15446 0 0 15515 0 0 15395 0 0 15444 0 0 15397 0 0 15389 0 0 15293 0 0 15280 0 0 15629 0 0 15569 0 0 15441 0 0 15606 0 0 15570 0 0 15416 0 0 15450 0 0 15519 0 0 15565 0 0 15274 0 0 15571 0 0 15544 0 0 15474 0 0 15338 0 0 15605 0 0 7635 0 0 0 0 0 0 0 0 0 0 0 0 0 0 0 0 0 0 0 0 0 0 0 0 0 0 0 0 0 
0 0 0 0 0 0 0 0 0 0 0 0 0 0 0 0 0 0 0 0 0 0 0 0 0 0 0 0 0 0 7675 0 0 15251 0 0 15782 0 0 15422 0 0 15236 0 0 15298 0 0 15457 0 0 15238 0 0 15245 0 0 15323 0 0 15416 0 0 15391 0 0 15356 0 0 15434 0 0 15500 0 0 15234 0 0 15500 0 0 15488 0 0 15342 0 0 15622 0 0 15331 0 0 15685 0 0 15436 0 0 15604 0 0 15494 0 0 15661 0 0 15563 0 0 15567 0 0 15661 0 0 15434 0 0 15539 0 0 15677 0 0 15446 0 0 15591 0 0 15385 0 0 15367 0 0 15628 0 0 15294 0 0 15485 0 0 15520 0 0 7797 0 0 0 0 0 0 0 0 0 0 0 0 0 0 0 0 0 0 0 0 0 0 0 0 0 0 0 0 0 
0 0 0 0 0 0 0 0 0 0 0 0 0 0 0 0 0 0 0 0 0 0 0 0 0 0 0 0 0 0 7754 0 0 15437 0 0 15610 0 0 15243 0 0 15399 0 0 15420 0 0 15346 0 0 15431 0 0 15345 0 0 15218 0 0 15751 0 0 15686 0 0 15357 0 0 15484 0 0 15256 0 0 15538 0 0 15265 0 0 15427 0 0 15400 0 0 15384 0 0 15539 0 0 15461 0 0 15552 0 0 15515 0 0 15512 0 0 15558 0 0 15422 0 0 15648 0 0 15332 0 0 15264 0 0 15576 0 0 15252 0 0 15643 0 0 15266 0 0 15348 0 0 15489 0 0 15250 0 0 15159 0 0 15206 0 0 15559 0 0 7521 0 0 0 0 0 0 0 0 0 0 0 0 0 0 0 0 0 0 0 0 0 0 0 0 0 0 0 0 0 
0 0 0 0 0 0 0 0 0 0 0 0 0 0 0 0 0 0 0 0 0 0 0 0 0 0 0 0 0 0 7646 0 0 15451 0 0 15535 0 0 15326 0 0 15349 0 0 15515 0 0 15743 0 0 15413 0 0 15498 0 0 15468 0 0 15742 0 0 15424 0 0 15520 0 0 15648 0 0 15522 0 0 15242 0 0 15427 0 0 15239 0 0 15566 0 0 15423 0 0 15518 0 0 15685 0 0 15409 0 0 15528 0 0 15415 0 0 15644 0 0 15612 0 0 15473 0 0 15520 0 0 15440 0 0 15448 0 0 15536 0 0 15564 0 0 15493 0 0 15363 0 0 15514 0 0 15418 0 0 15682 0 0 15403 0 0 15432 0 0 7816 0 0 0 0 0 0 0 0 0 0 0 0 0 0 0 0 0 0 0 0 0 0 0 0 0 0 0 0 0 
0 0 0 0 0 0 0 0 0 0 0 0 0 0 0 0 0 0 0 0 0 0 0 0 0 0 0 0 0 0 7827 0 0 15239 0 0 15398 0 0 15674 0 0 15476 0 0 15437 0 0 15514 0 0 15291 0 0 15472 0 0 15596 0 0 15563 0 0 15483 0 0 15573 0 0 15660 0 0 15616 0 0 15619 0 0 15450 0 0 15408 0 0 15387 0 0 15357 0 0 15306 0 0 15437 0 0 15424 0 0 15493 0 0 15236 0 0 15448 0 0 15452 0 0 15650 0 0 15332 0 0 15520 0 0 15426 0 0 15270 0 0 15478 0 0 15399 0 0 15370 0 0 15501 0 0 15659 0 0 15327 0 0 15560 0 0 15524 0 0 7706 0 0 0 0 0 0 0 0 0 0 0 0 0 0 0 0 0 0 0 0 0 0 0 0 0 0 0 0 0 
0 0 0 0 0 0 0 0 0 0 0 0 0 0 0 0 0 0 0 0 0 0 0 0 0 0 0 0 0 0 7672 0 0 15444 0 0 15426 0 0 15122 0 0 15498 0 0 15523 0 0 15404 0 0 15584 0 0 15564 0 0 15561 0 0 15538 0 0 15381 0 0 15330 0 0 15374 0 0 15398 0 0 15402 0 0 15364 0 0 15514 0 0 15509 0 0 15399 0 0 15540 0 0 15508 0 0 15649 0 0 15204 0 0 15548 0 0 15617 0 0 15635 0 0 15350 0 0 15542 0 0 15448 0 0 15476 0 0 15438 0 0 15518 0 0 15672 0 0 15338 0 0 15542 0 0 15470 0 0 15531 0 0 15538 0 0 15643 0 0 7573 0 0 0 0 0 0 0 0 0 0 0 0 0 0 0 0 0 0 0 0 0 0 0 0 0 0 0 0 0 
0 0 0 0 0 0 0 0 0 0 0 0 0 0 0 0 0 0 0 0 0 0 0 0 0 0 0 0 0 0 7667 0 0 15630 0 0 15361 0 0 15371 0 0 15651 0 0 15436 0 0 15607 0 0 15515 0 0 15546 0 0 15270 0 0 15486 0 0 15448 0 0 15558 0 0 15529 0 0 15399 0 0 15354 0 0 15509 0 0 15662 0 0 15466 0 0 15392 0 0 15611 0 0 15618 0 0 15246 0 0 15310 0 0 15497 0 0 15673 0 0 15492 0 0 15591 0 0 15512 0 0 15306 0 0 15408 0 0 15384 0 0 15263 0 0 15518 0 0 15498 0 0 15525 0 0 15486 0 0 15382 0 0 15252 0 0 15406 0 0 7853 0 0 0 0 0 0 0 0 0 0 0 0 0 0 0 0 0 0 0 0 0 0 0 0 0 0 0 0 0 
0 0 0 0 0 0 0 0 0 0 0 0 0 0 0 0 0 0 0 0 0 0 0 0 0 0 0 0 0 0 7533 0 0 15683 0 0 15271 0 0 15428 0 0 15317 0 0 15317 0 0 15537 0 0 15373 0 0 15375 0 0 15428 0 0 15509 0 0 15609 0 0 15407 0 0 15288 0 0 15526 0 0 15512 0 0 15618 0 0 15483 0 0 15417 0 0 15569 0 0 15565 0 0 15465 0 0 15319 0 0 15182 0 0 15360 0 0 15503 0 0 15385 0 0 15426 0 0 15460 0 0 15549 0 0 15518 0 0 15559 0 0 15289 0 0 15462 0 0 15360 0 0 15144 0 0 15601 0 0 15406 0 0 15550 0 0 15378 0 0 7706 0 0 0 0 0 0 0 0 0 0 0 0 0 0 0 0 0 0 0 0 0 0 0 0 0 0 0 0 0 
0 0 0 0 0 0 0 0 0 0 0 0 0 0 0 0 0 0 0 0 0 0 0 0 0 0 0 0 0 0 7768 0 0 15520 0 0 15541 0 0 15366 0 0 15506 0 0 15547 0 0 15527 0 0 15425 0 0 15646 0 0 15418 0 0 15429 0 0 15341 0 0 15613 0 0 15712 0 0 15323 0 0 15707 0 0 15477 0 0 15489 0 0 15389 0 0 15871 0 0 15424 0 0 15508 0 0 15614 0 0 15410 0 0 15419 0 0 15203 0 0 15685 0 0 15471 0 0 15316 0 0 15172 0 0 15597 0 0 15361 0 0 15605 0 0 15314 0 0 15368 0 0 15423 0 0 15641 0 0 15470 0 0 15482 0 0 15244 0 0 7646 0 0 0 0 0 0 0 0 0 0 0 0 0 0 0 0 0 0 0 0 0 0 0 0 0 0 0 0 0 
0 0 0 0 0 0 0 0 0 0 0 0 0 0 0 0 0 0 0 0 0 0 0 0 0 0 0 0 0 0 7794 0 0 15620 0 0 15500 0 0 15332 0 0 15533 0 0 15397 0 0 15327 0 0 15396 0 0 15447 0 0 15344 0 0 15524 0 0 15326 0 0 15435 0 0 15534 0 0 15543 0 0 15434 0 0 15536 0 0 15654 0 0 15596 0 0 15468 0 0 15327 0 0 15449 0 0 15456 0 0 15239 0 0 15474 0 0 15400 0 0 15466 0 0 15421 0 0 15667 0 0 15557 0 0 15804 0 0 15560 0 0 15434 0 0 15633 0 0 15532 0 0 15319 0 0 15628 0 0 15237 0 0 15399 0 0 15725 0 0 7751 0 0 0 0 0 0 0 0 0 0 0 0 0 0 0 0 0 0 0 0 0 0 0 0 0 0 0 0 0 
0 0 0 0 0 0 0 0 0 0 0 0 0 0 0 0 0 0 0 0 0 0 0 0 0 0 0 0 0 0 7647 0 0 15327 0 0 15538 0 0 15492 0 0 15526 0 0 15429 0 0 15397 0 0 15563 0 0 15325 0 0 15422 0 0 15699 0 0 15572 0 0 15338 0 0 15422 0 0 15444 0 0 15474 0 0 15400 0 0 15350 0 0 15356 0 0 15720 0 0 15605 0 0 15214 0 0 15538 0 0 15367 0 0 15313 0 0 15348 0 0 15387 0 0 15512 0 0 15515 0 0 15689 0 0 15397 0 0 15231 0 0 15515 0 0 15425 0 0 15318 0 0 15275 0 0 15702 0 0 15418 0 0 15333 0 0 15360 0 0 7738 0 0 0 0 0 0 0 0 0 0 0 0 0 0 0 0 0 0 0 0 0 0 0 0 0 0 0 0 0 
0 0 0 0 0 0 0 0 0 0 0 0 0 0 0 0 0 0 0 0 0 0 0 0 0 0 0 0 0 0 7857 0 0 15498 0 0 15370 0 0 15413 0 0 15383 0 0 15582 0 0 15531 0 0 15209 0 0 15480 0 0 15486 0 0 15353 0 0 15490 0 0 15324 0 0 15682 0 0 15587 0 0 15293 0 0 15456 0 0 15426 0 0 15380 0 0 15364 0 0 15667 0 0 15437 0 0 15511 0 0 15422 0 0 15410 0 0 15454 0 0 15560 0 0 15391 0 0 15586 0 0 15296 0 0 15326 0 0 15717 0 0 15550 0 0 15502 0 0 15691 0 0 15573 0 0 15505 0 0 15643 0 0 15216 0 0 15390 0 0 7744 0 0 0 0 0 0 0 0 0 0 0 0 0 0 0 0 0 0 0 0 0 0 0 0 0 0 0 0 0 
0 0 0 0 0 0 0 0 0 0 0 0 0 0 0 0 0 0 0 0 0 0 0 0 0 0 0 0 0 0 7630 0 0 15625 0 0 15716 0 0 15537 0 0 15165 0 0 15594 0 0 15497 0 0 15633 0 0 15405 0 0 15462 0 0 15516 0 0 15687 0 0 15467 0 0 15423 0 0 15551 0 0 15228 0 0 15515 0 0 15554 0 0 15429 0 0 15413 0 0 15503 0 0 15394 0 0 15346 0 0 15337 0 0 15461 0 0 15474 0 0 15392 0 0 15391 0 0 15509 0 0 15470 0 0 15666 0 0 15311 0 0 15566 0 0 15715 0 0 15372 0 0 15511 0 0 15378 0 0 15424 0 0 15421 0 0 15482 0 0 7763 0 0 0 0 0 0 0 0 0 0 0 0 0 0 0 0 0 0 0 0 0 0 0 0 0 0 0 0 0 
0 0 0 0 0 0 0 0 0 0 0 0 0 0 0 0 0 0 0 0 0 0 0 0 0 0 0 0 0 0 7603 0 0 15318 0 0 15269 0 0 15136 0 0 15417 0 0 15222 0 0 15526 0 0 15522 0 0 15434 0 0 15563 0 0 15415 0 0 15388 0 0 15437 0 0 15331 0 0 15519 0 0 15525 0 0 15752 0 0 15353 0 0 15404 0 0 15598 0 0 15433 0 0 15458 0 0 15475 0 0 15647 0 0 15358 0 0 15581 0 0 15377 0 0 15485 0 0 15334 0 0 15718 0 0 15719 0 0 15351 0 0 15274 0 0 15494 0 0 15465 0 0 15527 0 0 15335 0 0 15725 0 0 15629 0 0 15508 0 0 7806 0 0 0 0 0 0 0 0 0 0 0 0 0 0 0 0 0 0 0 0 0 0 0 0 0 0 0 0 0 
0 0 0 0 0 0 0 0 0 0 0 0 0 0 0 0 0 0 0 0 0 0 0 0 0 0 0 0 0 0 7774 0 0 15366 0 0 15512 0 0 15475 0 0 15423 0 0 15370 0 0 15445 0 0 15269 0 0 15577 0 0 15279 0 0 15440 0 0 15577 0 0 15277 0 0 15490 0 0 15498 0 0 15459 0 0 15417 0 0 15604 0 0 15597 0 0 15516 0 0 15282 0 0 15324 0 0 15614 0 0 15579 0 0 15413 0 0 15442 0 0 15358 0 0 15493 0 0 15409 0 0 15393 0 0 15177 0 0 15355 0 0 15558 0 0 15499 0 0 15422 0 0 15630 0 0 15535 0 0 15553 0 0 15366 0 0 15601 0 0 7755 0 0 0 0 0 0 0 0 0 0 0 0 0 0 0 0 0 0 0 0 0 0 0 0 0 0 0 0 0 
0 0 0 0 0 0 0 0 0 0 0 0 0 0 0 0 0 0 0 0 0 0 0 0 0 0 0 0 0 0 7733 0 0 15506 0 0 15472 0 0 15542 0 0 15433 0 0 15347 0 0 15331 0 0 15549 0 0 15308 0 0 15295 0 0 15365 0 0 15422 0 0 15396 0 0 15296 0 0 15297 0 0 15348 0 0 15479 0 0 15464 0 0 15535 0 0 15478 0 0 15414 0 0 15572 0 0 15524 0 0 15336 0 0 15458 0 0 15304 0 0 15126 0 0 15541 0 0 15344 0 0 15430 0 0 15587 0 0 15509 0 0 15460 0 0 15563 0 0 15520 0 0 15523 0 0 15270 0 0 15693 0 0 15548 0 0 15528 0 0 7553 0 0 0 0 0 0 0 0 0 0 0 0 0 0 0 0 0 0 0 0 0 0 0 0 0 0 0 0 0 
0 0 0 0 0 0 0 0 0 0 0 0 0 0 0 0 0 0 0 0 0 0 0 0 0 0 0 0 0 0 7798 0 0 15473 0 0 15276 0 0 15373 0 0 15410 0 0 15377 0 0 15138 0 0 15625 0 0 15535 0 0 15504 0 0 15286 0 0 15590 0 0 15612 0 0 15206 0 0 15367 0 0 15602 0 0 15656 0 0 15378 0 0 15435 0 0 15509 0 0 15302 0 0 15571 0 0 15482 0 0 15599 0 0 15490 0 0 15470 0 0 15463 0 0 15539 0 0 15523 0 0 15438 0 0 15684 0 0 15421 0 0 15424 0 0 15455 0 0 15461 0 0 15202 0 0 15232 0 0 15363 0 0 15608 0 0 15651 0 0 7689 0 0 0 0 0 0 0 0 0 0 0 0 0 0 0 0 0 0 0 0 0 0 0 0 0 0 0 0 0 
0 0 0 0 0 0 0 0 0 0 0 0 0 0 0 0 0 0 0 0 0 0 0 0 0 0 0 0 0 0 7675 0 0 15438 0 0 15396 0 0 15498 0 0 15424 0 0 15402 0 0 15251 0 0 15381 0 0 15560 0 0 15384 0 0 15418 0 0 15641 0 0 15476 0 0 15556 0 0 15578 0 0 15556 0 0 15375 0 0 15482 0 0 15593 0 0 15603 0 0 15519 0 0 15497 0 0 15407 0 0 15225 0 0 15589 0 0 15452 0 0 15430 0 0 15504 0 0 15458 0 0 15289 0 0 15437 0 0 15274 0 0 15360 0 0 15380 0 0 15440 0 0 15393 0 0 15559 0 0 15420 0 0 15331 0 0 15690 0 0 7820 0 0 0 0 0 0 0 0 0 0 0 0 0 0 0 0 0 0 0 0 0 0 0 0 0 0 0 0 0 
0 0 0 0 0 0 0 0 0 0 0 0 0 0 0 0 0 0 0 0 0 0 0 0 0 0 0 0 0 0 7826 0 0 15353 0 0 15422 0 0 15443 0 0 15689 0 0 15395 0 0 15383 0 0 15550 0 0 15453 0 0 15308 0 0 15264 0 0 15277 0 0 15351 0 0 15309 0 0 15343 0 0 15389 0 0 15299 0 0 15540 0 0 15447 0 0 15571 0 0 15493 0 0 15385 0 0 15542 0 0 15580 0 0 15618 0 0 15445 0 0 15429 0 0 15366 0 0 15509 0 0 15394 0 0 15634 0 0 15601 0 0 15429 0 0 15453 0 0 15569 0 0 15535 0 0 15576 0 0 15474 0 0 15272 0 0 15284 0 0 7737 0 0 0 0 0 0 0 0 0 0 0 0 0 0 0 0 0 0 0 0 0 0 0 0 0 0 0 0 0 
0 0 0 0 0 0 0 0 0 0 0 0 0 0 0 0 0 0 0 0 0 0 0 0 0 0 0 0 0 0 7778 0 0 15433 0 0 15645 0 0 15348 0 0 15565 0 0 15303 0 0 15447 0 0 15595 0 0 15544 0 0 15314 0 0 15439 0 0 15540 0 0 15303 0 0 15405 0 0 15107 0 0 15377 0 0 15289 0 0 15298 0 0 15519 0 0 15478 0 0 15404 0 0 15548 0 0 15265 0 0 15290 0 0 15395 0 0 15293 0 0 15650 0 0 15456 0 0 15602 0 0 15568 0 0 15436 0 0 15403 0 0 15437 0 0 15611 0 0 15377 0 0 15498 0 0 15314 0 0 15371 0 0 15602 0 0 15420 0 0 7762 0 0 0 0 0 0 0 0 0 0 0 0 0 0 0 0 0 0 0 0 0 0 0 0 0 0 0 0 0 
0 0 0 0 0 0 0 0 0 0 0 0 0 0 0 0 0 0 0 0 0 0 0 0 0 0 0 0 0 0 7697 0 0 15623 0 0 15330 0 0 15155 0 0 15497 0 0 15582 0 0 15587 0 0 15403 0 0 15172 0 0 15360 0 0 15448 0 0 15500 0 0 15403 0 0 15245 0 0 15663 0 0 15341 0 0 15556 0 0 15547 0 0 15562 0 0 15398 0 0 15494 0 0 15345 0 0 15424 0 0 15425 0 0 15574 0 0 15399 0 0 15457 0 0 15222 0 0 15460 0 0 15290 0 0 15202 0 0 15317 0 0 15387 0 0 15360 0 0 15514 0 0 15465 0 0 15341 0 0 15316 0 0 15499 0 0 15580 0 0 7731 0 0 0 0 0 0 0 0 0 0 0 0 0 0 0 0 0 0 0 0 0 0 0 0 0 0 0 0 0 
0 0 0 0 0 0 0 0 0 0 0 0 0 0 0 0 0 0 0 0 0 0 0 0 0 0 0 0 0 0 7638 0 0 15378 0 0 15332 0 0 15526 0 0 15527 0 0 15366 0 0 15413 0 0 15534 0 0 15424 0 0 15487 0 0 15399 0 0 15605 0 0 15467 0 0 15385 0 0 15389 0 0 15531 0 0 15311 0 0 15527 0 0 15462 0 0 15317 0 0 15434 0 0 15588 0 0 15234 0 0 15482 0 0 15452 0 0 15607 0 0 15359 0 0 15284 0 0 15544 0 0 15576 0 0 15573 0 0 15516 0 0 15572 0 0 15385 0 0 15571 0 0 15546 0 0 15650 0 0 15459 0 0 15354 0 0 15503 0 0 7711 0 0 0 0 0 0 0 0 0 0 0 0 0 0 0 0 0 0 0 0 0 0 0 0 0 0 0 0 0 
0 0 0 0 0 0 0 0 0 0 0 0 0 0 0 0 0 0 0 0 0 0 0 0 0 0 0 0 0 0 7805 0 0 15599 0 0 15457 0 0 15480 0 0 15459 0 0 15473 0 0 15420 0 0 15265 0 0 15646 0 0 15397 0 0 15444 0 0 15426 0 0 15240 0 0 15348 0 0 15645 0 0 15745 0 0 15569 0 0 15579 0 0 15460 0 0 15364 0 0 15566 0 0 15658 0 0 15575 0 0 15453 0 0 15531 0 0 15194 0 0 15483 0 0 15324 0 0 15602 0 0 15609 0 0 15448 0 0 15453 0 0 15379 0 0 15375 0 0 15523 0 0 15508 0 0 15443 0 0 15416 0 0 15598 0 0 15365 0 0 7525 0 0 0 0 0 0 0 0 0 0 0 0 0 0 0 0 0 0 0 0 0 0 0 0 0 0 0 0 0 
0 0 0 0 0 0 0 0 0 0 0 0 0 0 0 0 0 0 0 0 0 0 0 0 0 0 0 0 0 0 3929 0 0 7476 0 0 7628 0 0 7836 0 0 7756 0 0 7723 0 0 7764 0 0 7833 0 0 7798 0 0 7666 0 0 7773 0 0 7713 0 0 7716 0 0 7645 0 0 7811 0 0 7817 0 0 7739 0 0 7673 0 0 7629 0 0 7673 0 0 7645 0 0 7625 0 0 7570 0 0 7656 0 0 7947 0 0 7677 0 0 7667 0 0 7496 0 0 7778 0 0 7686 0 0 7777 0 0 7798 0 0 7719 0 0 7537 0 0 7724 0 0 7792 0 0 7675 0 0 7659 0 0 7830 0 0 7701 0 0 3959 0 0 0 0 0 0 0 0 0 0 0 0 0 0 0 0 0 0 0 0 0 0 0 0 0 0 0 0 0 
0 0 0 0 0 0 0 0 0 0 0 0 0 0 0 0 0 0 0 0 0 0 0 0 0 0 0 0 0 0 0 0 0 0 0 0 0 0 0 0 0 0 0 0 0 0 0 0 0 0 0 0 0 0 0 0 0 0 0 0 0 0 0 0 0 0 0 0 0 0 0 0 0 0 0 0 0 0 0 0 0 0 0 0 0 0 0 0 0 0 0 0 0 0 0 0 0 0 0 0 0 0 0 0 0 0 0 0 0 0 0 0 0 0 0 0 0 0 0 0 0 0 0 0 0 0 0 0 0 0 0 0 0 0 0 0 0 0 0 0 0 0 0 0 0 0 0 0 0 0 0 0 0 0 0 0 0 0 0 0 0 0 0 0 0 0 0 0 0 0 0 0 0 0 0 0 0 0 0 0 
0 0 0 0 0 0 0 0 0 0 0 0 0 0 0 0 0 0 0 0 0 0 0 0 0 0 0 0 0 0 0 0 0 0 0 0 0 0 0 0 0 0 0 0 0 0 0 0 0 0 0 0 0 0 0 0 0 0 0 0 0 0 0 0 0 0 0 0 0 0 0 0 0 0 0 0 0 0 0 0 0 0 0 0 0 0 0 0 0 0 0 0 0 0 0 0 0 0 0 0 0 0 0 0 0 0 0 0 0 0 0 0 0 0 0 0 0 0 0 0 0 0 0 0 0 0 0 0 0 0 0 0 0 0 0 0 0 0 0 0 0 0 0 0 0 0 0 0 0 0 0 0 0 0 0 0 0 0 0 0 0 0 0 0 0 0 0 0 0 0 0 0 0 0 0 0 0 0 0 0 
0 0 0 0 0 0 0 0 0 0 0 0 0 0 0 0 0 0 0 0 0 0 0 0 0 0 0 0 0 0 0 0 0 0 0 0 0 0 0 0 0 0 0 0 0 0 0 0 0 0 0 0 0 0 0 0 0 0 0 0 0 0 0 0 0 0 0 0 0 0 0 0 0 0 0 0 0 0 0 0 0 0 0 0 0 0 0 0 0 0 0 0 0 0 0 0 0 0 0 0 0 0 0 0 0 0 0 0 0 0 0 0 0 0 0 0 0 0 0 0 0 0 0 0 0 0 0 0 0 0 0 0 0 0 0 0 0 0 0 0 0 0 0 0 0 0 0 0 0 0 0 0 0 0 0 0 0 0 0 0 0 0 0 0 0 0 0 0 0 0 0 0 0 0 0 0 0 0 0 0 
0 0 0 0 0 0 0 0 0 0 0 0 0 0 0 0 0 0 0 0 0 0 0 0 0 0 0 0 0 0 0 0 0 0 0 0 0 0 0 0 0 0 0 0 0 0 0 0 0 0 0 0 0 0 0 0 0 0 0 0 0 0 0 0 0 0 0 0 0 0 0 0 0 0 0 0 0 0 0 0 0 0 0 0 0 0 0 0 0 0 0 0 0 0 0 0 0 0 0 0 0 0 0 0 0 0 0 0 0 0 0 0 0 0 0 0 0 0 0 0 0 0 0 0 0 0 0 0 0 0 0 0 0 0 0 0 0 0 0 0 0 0 0 0 0 0 0 0 0 0 0 0 0 0 0 0 0 0 0 0 0 0 0 0 0 0 0 0 0 0 0 0 0 0 0 0 0 0 0 0 
0 0 0 0 0 0 0 0 0 0 0 0 0 0 0 0 0 0 0 0 0 0 0 0 0 0 0 0 0 0 0 0 0 0 0 0 0 0 0 0 0 0 0 0 0 0 0 0 0 0 0 0 0 0 0 0 0 0 0 0 0 0 0 0 0 0 0 0 0 0 0 0 0 0 0 0 0 0 0 0 0 0 0 0 0 0 0 0 0 0 0 0 0 0 0 0 0 0 0 0 0 0 0 0 0 0 0 0 0 0 0 0 0 0 0 0 0 0 0 0 0 0 0 0 0 0 0 0 0 0 0 0 0 0 0 0 0 0 0 0 0 0 0 0 0 0 0 0 0 0 0 0 0 0 0 0 0 0 0 0 0 0 0 0 0 0 0 0 0 0 0 0 0 0 0 0 0 0 0 0 
0 0 0 0 0 0 0 0 0 0 0 0 0 0 0 0 0 0 0 0 0 0 0 0 0 0 0 0 0 0 0 0 0 0 0 0 0 0 0 0 0 0 0 0 0 0 0 0 0 0 0 0 0 0 0 0 0 0 0 0 0 0 0 0 0 0 0 0 0 0 0 0 0 0 0 0 0 0 0 0 0 0 0 0 0 0 0 0 0 0 0 0 0 0 0 0 0 0 0 0 0 0 0 0 0 0 0 0 0 0 0 0 0 0 0 0 0 0 0 0 0 0 0 0 0 0 0 0 0 0 0 0 0 0 0 0 0 0 0 0 0 0 0 0 0 0 0 0 0 0 0 0 0 0 0 0 0 0 0 0 0 0 0 0 0 0 0 0 0 0 0 0 0 0 0 0 0 0 0 0 
0 0 0 0 0 0 0 0 0 0 0 0 0 0 0 0 0 0 0 0 0 0 0 0 0 0 0 0 0 0 0 0 0 0 0 0 0 0 0 0 0 0 0 0 0 0 0 0 0 0 0 0 0 0 0 0 0 0 0 0 0 0 0 0 0 0 0 0 0 0 0 0 0 0 0 0 0 0 0 0 0 0 0 0 0 0 0 0 0 0 0 0 0 0 0 0 0 0 0 0 0 0 0 0 0 0 0 0 0 0 0 0 0 0 0 0 0 0 0 0 0 0 0 0 0 0 0 0 0 0 0 0 0 0 0 0 0 0 0 0 0 0 0 0 0 0 0 0 0 0 0 0 0 0 0 0 0 0 0 0 0 0 0 0 0 0 0 0 0 0 0 0 0 0 0 0 0 0 0 0 
0 0 0 0 0 0 0 0 0 0 0 0 0 0 0 0 0 0 0 0 0 0 0 0 0 0 0 0 0 0 0 0 0 0 0 0 0 0 0 0 0 0 0 0 0 0 0 0 0 0 0 0 0 0 0 0 0 0 0 0 0 0 0 0 0 0 0 0 0 0 0 0 0 0 0 0 0 0 0 0 0 0 0 0 0 0 0 0 0 0 0 0 0 0 0 0 0 0 0 0 0 0 0 0 0 0 0 0 0 0 0 0 0 0 0 0 0 0 0 0 0 0 0 0 0 0 0 0 0 0 0 0 0 0 0 0 0 0 0 0 0 0 0 0 0 0 0 0 0 0 0 0 0 0 0 0 0 0 0 0 0 0 0 0 0 0 0 0 0 0 0 0 0 0 0 0 0 0 0 0 
0 0 0 0 0 0 0 0 0 0 0 0 0 0 0 0 0 0 0 0 0 0 0 0 0 0 0 0 0 0 0 0 0 0 0 0 0 0 0 0 0 0 0 0 0 0 0 0 0 0 0 0 0 0 0 0 0 0 0 0 0 0 0 0 0 0 0 0 0 0 0 0 0 0 0 0 0 0 0 0 0 0 0 0 0 0 0 0 0 0 0 0 0 0 0 0 0 0 0 0 0 0 0 0 0 0 0 0 0 0 0 0 0 0 0 0 0 0 0 0 0 0 0 0 0 0 0 0 0 0 0 0 0 0 0 0 0 0 0 0 0 0 0 0 0 0 0 0 0 0 0 0 0 0 0 0 0 0 0 0 0 0 0 0 0 0 0 0 0 0 0 0 0 0 0 0 0 0 0 0 
