P3
# This is a dose file slice at depth 57 of 100
60 60
# now we give the maximum value of the RGB coordinates.
34204
0 0 0 0 0 0 0 0 0 0 0 0 0 0 0 0 0 0 0 0 0 0 0 0 0 0 0 0 0 0 0 0 0 0 0 0 0 0 0 0 0 0 0 0 0 0 0 0 0 0 0 0 0 0 0 0 0 0 0 0 0 0 0 0 0 0 0 0 0 0 0 0 0 0 0 0 0 0 0 0 0 0 0 0 0 0 0 0 0 0 0 0 0 0 0 0 0 0 0 0 0 0 0 0 0 0 0 0 0 0 0 0 0 0 0 0 0 0 0 0 0 0 0 0 0 0 0 0 0 0 0 0 0 0 0 0 0 0 0 0 0 0 0 0 0 0 0 0 0 0 0 0 0 0 0 0 0 0 0 0 0 0 0 0 0 0 0 0 0 0 0 0 0 0 0 0 0 0 0 0 
0 0 0 0 0 0 0 0 0 0 0 0 0 0 0 0 0 0 0 0 0 0 0 0 0 0 0 0 0 0 0 0 0 0 0 0 0 0 0 0 0 0 0 0 0 0 0 0 0 0 0 0 0 0 0 0 0 0 0 0 0 0 0 0 0 0 0 0 0 0 0 0 0 0 0 0 0 0 0 0 0 0 0 0 0 0 0 0 0 0 0 0 0 0 0 0 0 0 0 0 0 0 0 0 0 0 0 0 0 0 0 0 0 0 0 0 0 0 0 0 0 0 0 0 0 0 0 0 0 0 0 0 0 0 0 0 0 0 0 0 0 0 0 0 0 0 0 0 0 0 0 0 0 0 0 0 0 0 0 0 0 0 0 0 0 0 0 0 0 0 0 0 0 0 0 0 0 0 0 0 
0 0 0 0 0 0 0 0 0 0 0 0 0 0 0 0 0 0 0 0 0 0 0 0 0 0 0 0 0 0 0 0 0 0 0 0 0 0 0 0 0 0 0 0 0 0 0 0 0 0 0 0 0 0 0 0 0 0 0 0 0 0 0 0 0 0 0 0 0 0 0 0 0 0 0 0 0 0 0 0 0 0 0 0 0 0 0 0 0 0 0 0 0 0 0 0 0 0 0 0 0 0 0 0 0 0 0 0 0 0 0 0 0 0 0 0 0 0 0 0 0 0 0 0 0 0 0 0 0 0 0 0 0 0 0 0 0 0 0 0 0 0 0 0 0 0 0 0 0 0 0 0 0 0 0 0 0 0 0 0 0 0 0 0 0 0 0 0 0 0 0 0 0 0 0 0 0 0 0 0 
0 0 0 0 0 0 0 0 0 0 0 0 0 0 0 0 0 0 0 0 0 0 0 0 0 0 0 0 0 0 0 0 0 0 0 0 0 0 0 0 0 0 0 0 0 0 0 0 0 0 0 0 0 0 0 0 0 0 0 0 0 0 0 0 0 0 0 0 0 0 0 0 0 0 0 0 0 0 0 0 0 0 0 0 0 0 0 0 0 0 0 0 0 0 0 0 0 0 0 0 0 0 0 0 0 0 0 0 0 0 0 0 0 0 0 0 0 0 0 0 0 0 0 0 0 0 0 0 0 0 0 0 0 0 0 0 0 0 0 0 0 0 0 0 0 0 0 0 0 0 0 0 0 0 0 0 0 0 0 0 0 0 0 0 0 0 0 0 0 0 0 0 0 0 0 0 0 0 0 0 
0 0 0 0 0 0 0 0 0 0 0 0 0 0 0 0 0 0 0 0 0 0 0 0 0 0 0 0 0 0 0 0 0 0 0 0 0 0 0 0 0 0 0 0 0 0 0 0 0 0 0 0 0 0 0 0 0 0 0 0 0 0 0 0 0 0 0 0 0 0 0 0 0 0 0 0 0 0 0 0 0 0 0 0 0 0 0 0 0 0 0 0 0 0 0 0 0 0 0 0 0 0 0 0 0 0 0 0 0 0 0 0 0 0 0 0 0 0 0 0 0 0 0 0 0 0 0 0 0 0 0 0 0 0 0 0 0 0 0 0 0 0 0 0 0 0 0 0 0 0 0 0 0 0 0 0 0 0 0 0 0 0 0 0 0 0 0 0 0 0 0 0 0 0 0 0 0 0 0 0 
0 0 0 0 0 0 0 0 0 0 0 0 0 0 0 0 0 0 0 0 0 0 0 0 0 0 0 0 0 0 0 0 0 0 0 0 0 0 0 0 0 0 0 0 0 0 0 0 0 0 0 0 0 0 0 0 0 0 0 0 0 0 0 0 0 0 0 0 0 0 0 0 0 0 0 0 0 0 0 0 0 0 0 0 0 0 0 0 0 0 0 0 0 0 0 0 0 0 0 0 0 0 0 0 0 0 0 0 0 0 0 0 0 0 0 0 0 0 0 0 0 0 0 0 0 0 0 0 0 0 0 0 0 0 0 0 0 0 0 0 0 0 0 0 0 0 0 0 0 0 0 0 0 0 0 0 0 0 0 0 0 0 0 0 0 0 0 0 0 0 0 0 0 0 0 0 0 0 0 0 
0 0 0 0 0 0 0 0 0 0 0 0 0 0 0 0 0 0 0 0 0 0 0 0 0 0 0 0 0 0 0 0 0 0 0 0 0 0 0 0 0 0 0 0 0 0 0 0 0 0 0 0 0 0 0 0 0 0 0 0 0 0 0 0 0 0 0 0 0 0 0 0 0 0 0 0 0 0 0 0 0 0 0 0 0 0 0 0 0 0 0 0 0 0 0 0 0 0 0 0 0 0 0 0 0 0 0 0 0 0 0 0 0 0 0 0 0 0 0 0 0 0 0 0 0 0 0 0 0 0 0 0 0 0 0 0 0 0 0 0 0 0 0 0 0 0 0 0 0 0 0 0 0 0 0 0 0 0 0 0 0 0 0 0 0 0 0 0 0 0 0 0 0 0 0 0 0 0 0 0 
0 0 0 0 0 0 0 0 0 0 0 0 0 0 0 0 0 0 0 0 0 0 0 0 0 0 0 0 0 0 0 0 0 0 0 0 0 0 0 0 0 0 0 0 0 0 0 0 0 0 0 0 0 0 0 0 0 0 0 0 0 0 0 0 0 0 0 0 0 0 0 0 0 0 0 0 0 0 0 0 0 0 0 0 0 0 0 0 0 0 0 0 0 0 0 0 0 0 0 0 0 0 0 0 0 0 0 0 0 0 0 0 0 0 0 0 0 0 0 0 0 0 0 0 0 0 0 0 0 0 0 0 0 0 0 0 0 0 0 0 0 0 0 0 0 0 0 0 0 0 0 0 0 0 0 0 0 0 0 0 0 0 0 0 0 0 0 0 0 0 0 0 0 0 0 0 0 0 0 0 
0 0 0 0 0 0 0 0 0 0 0 0 0 0 0 0 0 0 0 0 0 0 0 0 0 0 0 0 0 0 0 0 0 0 0 0 0 0 0 0 0 0 0 0 0 0 0 0 0 0 0 0 0 0 0 0 0 0 0 0 0 0 0 0 0 0 0 0 0 0 0 0 0 0 0 0 0 0 0 0 0 0 0 0 0 0 0 0 0 0 0 0 0 0 0 0 0 0 0 0 0 0 0 0 0 0 0 0 0 0 0 0 0 0 0 0 0 0 0 0 0 0 0 0 0 0 0 0 0 0 0 0 0 0 0 0 0 0 0 0 0 0 0 0 0 0 0 0 0 0 0 0 0 0 0 0 0 0 0 0 0 0 0 0 0 0 0 0 0 0 0 0 0 0 0 0 0 0 0 0 
0 0 0 0 0 0 0 0 0 0 0 0 0 0 0 0 0 0 0 0 0 0 0 0 0 0 0 0 0 0 0 0 0 0 0 0 0 0 0 0 0 0 0 0 0 0 0 0 0 0 0 0 0 0 0 0 0 0 0 0 0 0 0 0 0 0 0 0 0 0 0 0 0 0 0 0 0 0 0 0 0 0 0 0 0 0 0 0 0 0 0 0 0 0 0 0 0 0 0 0 0 0 0 0 0 0 0 0 0 0 0 0 0 0 0 0 0 0 0 0 0 0 0 0 0 0 0 0 0 0 0 0 0 0 0 0 0 0 0 0 0 0 0 0 0 0 0 0 0 0 0 0 0 0 0 0 0 0 0 0 0 0 0 0 0 0 0 0 0 0 0 0 0 0 0 0 0 0 0 0 
0 0 0 0 0 0 0 0 0 0 0 0 0 0 0 0 0 0 0 0 0 0 0 0 0 0 0 0 0 0 1602 0 0 3337 0 0 3160 0 0 3292 0 0 3206 0 0 3223 0 0 3194 0 0 3122 0 0 3142 0 0 3173 0 0 3163 0 0 3204 0 0 3265 0 0 3304 0 0 3236 0 0 3248 0 0 3235 0 0 3221 0 0 3211 0 0 3172 0 0 3237 0 0 3321 0 0 3289 0 0 3367 0 0 3225 0 0 3235 0 0 3236 0 0 3202 0 0 3174 0 0 3284 0 0 3195 0 0 3150 0 0 3222 0 0 3289 0 0 3136 0 0 3117 0 0 3168 0 0 3224 0 0 3329 0 0 3264 0 0 1631 0 0 0 0 0 0 0 0 0 0 0 0 0 0 0 0 0 0 0 0 0 0 0 0 0 0 0 0 0 
0 0 0 0 0 0 0 0 0 0 0 0 0 0 0 0 0 0 0 0 0 0 0 0 0 0 0 0 0 0 3224 0 0 6499 0 0 6488 0 0 6550 0 0 6281 0 0 6677 0 0 6450 0 0 6402 0 0 6603 0 0 6216 0 0 6512 0 0 6456 0 0 6557 0 0 6356 0 0 6475 0 0 6340 0 0 6423 0 0 6547 0 0 6389 0 0 6599 0 0 6547 0 0 6402 0 0 6601 0 0 6442 0 0 6546 0 0 6465 0 0 6531 0 0 6377 0 0 6304 0 0 6474 0 0 6457 0 0 6523 0 0 6405 0 0 6412 0 0 6421 0 0 6308 0 0 6342 0 0 6512 0 0 6337 0 0 6494 0 0 3273 0 0 0 0 0 0 0 0 0 0 0 0 0 0 0 0 0 0 0 0 0 0 0 0 0 0 0 0 0 
0 0 0 0 0 0 0 0 0 0 0 0 0 0 0 0 0 0 0 0 0 0 0 0 0 0 0 0 0 0 3171 0 0 6485 0 0 6378 0 0 6409 0 0 6491 0 0 6521 0 0 6479 0 0 6390 0 0 6626 0 0 6512 0 0 6517 0 0 6326 0 0 6333 0 0 6377 0 0 6512 0 0 6480 0 0 6338 0 0 6513 0 0 6408 0 0 6457 0 0 6515 0 0 6582 0 0 6311 0 0 6532 0 0 6423 0 0 6392 0 0 6471 0 0 6480 0 0 6500 0 0 6475 0 0 6567 0 0 6396 0 0 6508 0 0 6474 0 0 6455 0 0 6434 0 0 6426 0 0 6590 0 0 6586 0 0 6466 0 0 3166 0 0 0 0 0 0 0 0 0 0 0 0 0 0 0 0 0 0 0 0 0 0 0 0 0 0 0 0 0 
0 0 0 0 0 0 0 0 0 0 0 0 0 0 0 0 0 0 0 0 0 0 0 0 0 0 0 0 0 0 3168 0 0 6595 0 0 6438 0 0 6448 0 0 6390 0 0 6326 0 0 6523 0 0 6477 0 0 6541 0 0 6475 0 0 6381 0 0 6501 0 0 6493 0 0 6568 0 0 6462 0 0 6474 0 0 6218 0 0 6524 0 0 6464 0 0 6564 0 0 6333 0 0 6390 0 0 6437 0 0 6371 0 0 6504 0 0 6398 0 0 6558 0 0 6442 0 0 6343 0 0 6235 0 0 6509 0 0 6444 0 0 6399 0 0 6391 0 0 6559 0 0 6440 0 0 6387 0 0 6511 0 0 6425 0 0 6401 0 0 3219 0 0 0 0 0 0 0 0 0 0 0 0 0 0 0 0 0 0 0 0 0 0 0 0 0 0 0 0 0 
0 0 0 0 0 0 0 0 0 0 0 0 0 0 0 0 0 0 0 0 0 0 0 0 0 0 0 0 0 0 3357 0 0 6389 0 0 6427 0 0 6342 0 0 6474 0 0 6328 0 0 6533 0 0 6490 0 0 6583 0 0 6466 0 0 6495 0 0 6447 0 0 6540 0 0 6504 0 0 6476 0 0 6558 0 0 6407 0 0 6513 0 0 6309 0 0 6453 0 0 6454 0 0 6408 0 0 6463 0 0 6427 0 0 6492 0 0 6558 0 0 6364 0 0 6389 0 0 6528 0 0 6495 0 0 6289 0 0 6509 0 0 6501 0 0 6452 0 0 6506 0 0 6350 0 0 6426 0 0 6467 0 0 6439 0 0 6537 0 0 3197 0 0 0 0 0 0 0 0 0 0 0 0 0 0 0 0 0 0 0 0 0 0 0 0 0 0 0 0 0 
0 0 0 0 0 0 0 0 0 0 0 0 0 0 0 0 0 0 0 0 0 0 0 0 0 0 0 0 0 0 3203 0 0 6494 0 0 6414 0 0 6419 0 0 6408 0 0 6490 0 0 6478 0 0 6528 0 0 6504 0 0 6430 0 0 6414 0 0 6472 0 0 6549 0 0 6342 0 0 6451 0 0 6418 0 0 6528 0 0 6410 0 0 6495 0 0 6431 0 0 6335 0 0 6384 0 0 6270 0 0 6520 0 0 6480 0 0 6494 0 0 6431 0 0 6519 0 0 6413 0 0 6548 0 0 6370 0 0 6528 0 0 6324 0 0 6388 0 0 6505 0 0 6519 0 0 6385 0 0 6395 0 0 6499 0 0 6555 0 0 3277 0 0 0 0 0 0 0 0 0 0 0 0 0 0 0 0 0 0 0 0 0 0 0 0 0 0 0 0 0 
0 0 0 0 0 0 0 0 0 0 0 0 0 0 0 0 0 0 0 0 0 0 0 0 0 0 0 0 0 0 3207 0 0 6416 0 0 6420 0 0 6398 0 0 6465 0 0 6680 0 0 6551 0 0 6410 0 0 6388 0 0 6315 0 0 6431 0 0 6359 0 0 6518 0 0 6456 0 0 6519 0 0 6561 0 0 6476 0 0 6517 0 0 6504 0 0 6373 0 0 6625 0 0 6576 0 0 6441 0 0 6587 0 0 6399 0 0 6506 0 0 6377 0 0 6537 0 0 6349 0 0 6563 0 0 6459 0 0 6521 0 0 6309 0 0 6426 0 0 6547 0 0 6575 0 0 6437 0 0 6459 0 0 6345 0 0 6447 0 0 3195 0 0 0 0 0 0 0 0 0 0 0 0 0 0 0 0 0 0 0 0 0 0 0 0 0 0 0 0 0 
0 0 0 0 0 0 0 0 0 0 0 0 0 0 0 0 0 0 0 0 0 0 0 0 0 0 0 0 0 0 3201 0 0 6521 0 0 6479 0 0 6596 0 0 6361 0 0 6656 0 0 6320 0 0 6358 0 0 6686 0 0 6447 0 0 6490 0 0 6483 0 0 6505 0 0 6378 0 0 6498 0 0 6443 0 0 6508 0 0 6468 0 0 6566 0 0 6505 0 0 6633 0 0 6276 0 0 6511 0 0 6412 0 0 6391 0 0 6300 0 0 6461 0 0 6333 0 0 6453 0 0 6487 0 0 6473 0 0 6488 0 0 6509 0 0 6546 0 0 6387 0 0 6396 0 0 6665 0 0 6344 0 0 6371 0 0 6523 0 0 3151 0 0 0 0 0 0 0 0 0 0 0 0 0 0 0 0 0 0 0 0 0 0 0 0 0 0 0 0 0 
0 0 0 0 0 0 0 0 0 0 0 0 0 0 0 0 0 0 0 0 0 0 0 0 0 0 0 0 0 0 3225 0 0 6438 0 0 6360 0 0 6556 0 0 6357 0 0 6433 0 0 6393 0 0 6490 0 0 6540 0 0 6455 0 0 6481 0 0 6651 0 0 6507 0 0 6389 0 0 6374 0 0 6589 0 0 6507 0 0 6479 0 0 6528 0 0 6327 0 0 6506 0 0 6522 0 0 6501 0 0 6548 0 0 6625 0 0 6419 0 0 6346 0 0 6667 0 0 6551 0 0 6378 0 0 6454 0 0 6434 0 0 6422 0 0 6386 0 0 6471 0 0 6492 0 0 6416 0 0 6339 0 0 6388 0 0 6469 0 0 3187 0 0 0 0 0 0 0 0 0 0 0 0 0 0 0 0 0 0 0 0 0 0 0 0 0 0 0 0 0 
0 0 0 0 0 0 0 0 0 0 0 0 0 0 0 0 0 0 0 0 0 0 0 0 0 0 0 0 0 0 3283 0 0 6473 0 0 6528 0 0 6586 0 0 6530 0 0 6327 0 0 6489 0 0 6378 0 0 6333 0 0 6462 0 0 6366 0 0 6549 0 0 6653 0 0 6402 0 0 6523 0 0 6483 0 0 6353 0 0 6321 0 0 6308 0 0 6650 0 0 6367 0 0 6554 0 0 6525 0 0 6552 0 0 6311 0 0 6408 0 0 6541 0 0 6400 0 0 6433 0 0 6285 0 0 6513 0 0 6522 0 0 6614 0 0 6300 0 0 6397 0 0 6476 0 0 6435 0 0 6592 0 0 6541 0 0 6430 0 0 3200 0 0 0 0 0 0 0 0 0 0 0 0 0 0 0 0 0 0 0 0 0 0 0 0 0 0 0 0 0 
0 0 0 0 0 0 0 0 0 0 0 0 0 0 0 0 0 0 0 0 0 0 0 0 0 0 0 0 0 0 3251 0 0 6372 0 0 6557 0 0 6564 0 0 6462 0 0 6557 0 0 6511 0 0 6430 0 0 6559 0 0 6434 0 0 6460 0 0 6477 0 0 6403 0 0 6369 0 0 6402 0 0 6378 0 0 6447 0 0 6610 0 0 6487 0 0 6455 0 0 6464 0 0 6682 0 0 6475 0 0 6343 0 0 6581 0 0 6446 0 0 6402 0 0 6476 0 0 6268 0 0 6414 0 0 6361 0 0 6417 0 0 6532 0 0 6490 0 0 6457 0 0 6339 0 0 6528 0 0 6349 0 0 6534 0 0 6541 0 0 3256 0 0 0 0 0 0 0 0 0 0 0 0 0 0 0 0 0 0 0 0 0 0 0 0 0 0 0 0 0 
0 0 0 0 0 0 0 0 0 0 0 0 0 0 0 0 0 0 0 0 0 0 0 0 0 0 0 0 0 0 3182 0 0 6456 0 0 6452 0 0 6448 0 0 6494 0 0 6543 0 0 6512 0 0 6520 0 0 6493 0 0 6372 0 0 6404 0 0 6417 0 0 6560 0 0 6495 0 0 6297 0 0 6574 0 0 6557 0 0 6411 0 0 6503 0 0 6432 0 0 6379 0 0 6365 0 0 6442 0 0 6533 0 0 6425 0 0 6462 0 0 6436 0 0 6471 0 0 6386 0 0 6409 0 0 6392 0 0 6480 0 0 6563 0 0 6531 0 0 6310 0 0 6480 0 0 6523 0 0 6485 0 0 6473 0 0 6531 0 0 3235 0 0 0 0 0 0 0 0 0 0 0 0 0 0 0 0 0 0 0 0 0 0 0 0 0 0 0 0 0 
0 0 0 0 0 0 0 0 0 0 0 0 0 0 0 0 0 0 0 0 0 0 0 0 0 0 0 0 0 0 3165 0 0 6351 0 0 6377 0 0 6447 0 0 6475 0 0 6488 0 0 6584 0 0 6531 0 0 6418 0 0 6316 0 0 6472 0 0 6443 0 0 6403 0 0 6494 0 0 6390 0 0 6384 0 0 6396 0 0 6566 0 0 6532 0 0 6484 0 0 6358 0 0 6442 0 0 6471 0 0 6368 0 0 6395 0 0 6378 0 0 6550 0 0 6638 0 0 6312 0 0 6631 0 0 6576 0 0 6451 0 0 6491 0 0 6614 0 0 6417 0 0 6554 0 0 6203 0 0 6468 0 0 6648 0 0 6446 0 0 3193 0 0 0 0 0 0 0 0 0 0 0 0 0 0 0 0 0 0 0 0 0 0 0 0 0 0 0 0 0 
0 0 0 0 0 0 0 0 0 0 0 0 0 0 0 0 0 0 0 0 0 0 0 0 0 0 0 0 0 0 3201 0 0 6407 0 0 6468 0 0 6480 0 0 6608 0 0 6452 0 0 6427 0 0 6518 0 0 6558 0 0 6487 0 0 6531 0 0 6442 0 0 6438 0 0 6283 0 0 6562 0 0 6353 0 0 6447 0 0 6365 0 0 6456 0 0 6356 0 0 6402 0 0 6571 0 0 6437 0 0 6495 0 0 6407 0 0 6445 0 0 6457 0 0 6467 0 0 6486 0 0 6433 0 0 6490 0 0 6376 0 0 6518 0 0 6465 0 0 6401 0 0 6503 0 0 6439 0 0 6539 0 0 6445 0 0 6548 0 0 3280 0 0 0 0 0 0 0 0 0 0 0 0 0 0 0 0 0 0 0 0 0 0 0 0 0 0 0 0 0 
0 0 0 0 0 0 0 0 0 0 0 0 0 0 0 0 0 0 0 0 0 0 0 0 0 0 0 0 0 0 3180 0 0 6407 0 0 6327 0 0 6540 0 0 6494 0 0 6486 0 0 6424 0 0 6461 0 0 6525 0 0 6421 0 0 6407 0 0 6668 0 0 6390 0 0 6369 0 0 6510 0 0 6426 0 0 6511 0 0 6209 0 0 6548 0 0 6494 0 0 6384 0 0 6445 0 0 6533 0 0 6390 0 0 6522 0 0 6506 0 0 6413 0 0 6462 0 0 6460 0 0 6276 0 0 6492 0 0 6562 0 0 6437 0 0 6529 0 0 6586 0 0 6473 0 0 6477 0 0 6576 0 0 6386 0 0 6429 0 0 3250 0 0 0 0 0 0 0 0 0 0 0 0 0 0 0 0 0 0 0 0 0 0 0 0 0 0 0 0 0 
0 0 0 0 0 0 0 0 0 0 0 0 0 0 0 0 0 0 0 0 0 0 0 0 0 0 0 0 0 0 3185 0 0 6618 0 0 6383 0 0 6511 0 0 6365 0 0 6341 0 0 6462 0 0 6366 0 0 6411 0 0 6358 0 0 6592 0 0 6509 0 0 6470 0 0 6366 0 0 6563 0 0 6513 0 0 6435 0 0 6306 0 0 6493 0 0 6519 0 0 6515 0 0 6481 0 0 6469 0 0 6492 0 0 6340 0 0 6471 0 0 6604 0 0 6523 0 0 6501 0 0 6500 0 0 6518 0 0 6352 0 0 6469 0 0 6580 0 0 6603 0 0 6474 0 0 6413 0 0 6599 0 0 6318 0 0 6519 0 0 3303 0 0 0 0 0 0 0 0 0 0 0 0 0 0 0 0 0 0 0 0 0 0 0 0 0 0 0 0 0 
0 0 0 0 0 0 0 0 0 0 0 0 0 0 0 0 0 0 0 0 0 0 0 0 0 0 0 0 0 0 3272 0 0 6469 0 0 6495 0 0 6622 0 0 6486 0 0 6540 0 0 6520 0 0 6538 0 0 6389 0 0 6429 0 0 6449 0 0 6425 0 0 6382 0 0 6484 0 0 6565 0 0 6282 0 0 6493 0 0 6421 0 0 6420 0 0 6357 0 0 6368 0 0 6366 0 0 6380 0 0 6642 0 0 6264 0 0 6374 0 0 6528 0 0 6533 0 0 6504 0 0 6554 0 0 6390 0 0 6328 0 0 6382 0 0 6307 0 0 6577 0 0 6443 0 0 6498 0 0 6485 0 0 6580 0 0 6327 0 0 3219 0 0 0 0 0 0 0 0 0 0 0 0 0 0 0 0 0 0 0 0 0 0 0 0 0 0 0 0 0 
0 0 0 0 0 0 0 0 0 0 0 0 0 0 0 0 0 0 0 0 0 0 0 0 0 0 0 0 0 0 3171 0 0 6482 0 0 6505 0 0 6372 0 0 6517 0 0 6564 0 0 6470 0 0 6490 0 0 6510 0 0 6343 0 0 6422 0 0 6462 0 0 6461 0 0 6496 0 0 6327 0 0 6495 0 0 6630 0 0 6419 0 0 6516 0 0 6382 0 0 6476 0 0 6448 0 0 6439 0 0 6393 0 0 6428 0 0 6380 0 0 6637 0 0 6550 0 0 6415 0 0 6461 0 0 6460 0 0 6486 0 0 6478 0 0 6587 0 0 6496 0 0 6555 0 0 6543 0 0 6606 0 0 6614 0 0 6516 0 0 3195 0 0 0 0 0 0 0 0 0 0 0 0 0 0 0 0 0 0 0 0 0 0 0 0 0 0 0 0 0 
0 0 0 0 0 0 0 0 0 0 0 0 0 0 0 0 0 0 0 0 0 0 0 0 0 0 0 0 0 0 3254 0 0 6438 0 0 6319 0 0 6456 0 0 6410 0 0 6342 0 0 6418 0 0 6390 0 0 6467 0 0 6416 0 0 6479 0 0 6532 0 0 6515 0 0 6634 0 0 6548 0 0 6474 0 0 6419 0 0 6500 0 0 6548 0 0 6471 0 0 6229 0 0 6494 0 0 6428 0 0 6410 0 0 6558 0 0 6613 0 0 6398 0 0 6463 0 0 6404 0 0 6416 0 0 6407 0 0 6317 0 0 6441 0 0 6455 0 0 6392 0 0 6553 0 0 6495 0 0 6634 0 0 6447 0 0 6456 0 0 3222 0 0 0 0 0 0 0 0 0 0 0 0 0 0 0 0 0 0 0 0 0 0 0 0 0 0 0 0 0 
0 0 0 0 0 0 0 0 0 0 0 0 0 0 0 0 0 0 0 0 0 0 0 0 0 0 0 0 0 0 3250 0 0 6514 0 0 6391 0 0 6375 0 0 6544 0 0 6427 0 0 6510 0 0 6500 0 0 6363 0 0 6520 0 0 6392 0 0 6651 0 0 6537 0 0 6335 0 0 6307 0 0 6503 0 0 6472 0 0 6462 0 0 6438 0 0 6529 0 0 6390 0 0 6367 0 0 6333 0 0 6373 0 0 6362 0 0 6401 0 0 6445 0 0 6603 0 0 6501 0 0 6514 0 0 6600 0 0 6339 0 0 6392 0 0 6335 0 0 6549 0 0 6428 0 0 6392 0 0 6435 0 0 6550 0 0 6362 0 0 3241 0 0 0 0 0 0 0 0 0 0 0 0 0 0 0 0 0 0 0 0 0 0 0 0 0 0 0 0 0 
0 0 0 0 0 0 0 0 0 0 0 0 0 0 0 0 0 0 0 0 0 0 0 0 0 0 0 0 0 0 3180 0 0 6574 0 0 6418 0 0 6460 0 0 6333 0 0 6374 0 0 6509 0 0 6498 0 0 6432 0 0 6501 0 0 6547 0 0 6268 0 0 6494 0 0 6572 0 0 6529 0 0 6569 0 0 6319 0 0 6483 0 0 6665 0 0 6519 0 0 6280 0 0 6486 0 0 6534 0 0 6341 0 0 6584 0 0 6444 0 0 6473 0 0 6327 0 0 6487 0 0 6493 0 0 6407 0 0 6440 0 0 6533 0 0 6472 0 0 6413 0 0 6327 0 0 6529 0 0 6367 0 0 6526 0 0 6375 0 0 3174 0 0 0 0 0 0 0 0 0 0 0 0 0 0 0 0 0 0 0 0 0 0 0 0 0 0 0 0 0 
0 0 0 0 0 0 0 0 0 0 0 0 0 0 0 0 0 0 0 0 0 0 0 0 0 0 0 0 0 0 3242 0 0 6391 0 0 6517 0 0 6602 0 0 6389 0 0 6307 0 0 6577 0 0 6432 0 0 6405 0 0 6532 0 0 6685 0 0 6288 0 0 6392 0 0 6422 0 0 6480 0 0 6495 0 0 6450 0 0 6506 0 0 6343 0 0 6568 0 0 6429 0 0 6559 0 0 6372 0 0 6585 0 0 6442 0 0 6512 0 0 6511 0 0 6474 0 0 6553 0 0 6414 0 0 6518 0 0 6624 0 0 6499 0 0 6397 0 0 6421 0 0 6540 0 0 6298 0 0 6343 0 0 6321 0 0 6546 0 0 3282 0 0 0 0 0 0 0 0 0 0 0 0 0 0 0 0 0 0 0 0 0 0 0 0 0 0 0 0 0 
0 0 0 0 0 0 0 0 0 0 0 0 0 0 0 0 0 0 0 0 0 0 0 0 0 0 0 0 0 0 3188 0 0 6368 0 0 6448 0 0 6457 0 0 6399 0 0 6596 0 0 6438 0 0 6518 0 0 6409 0 0 6405 0 0 6363 0 0 6459 0 0 6469 0 0 6534 0 0 6356 0 0 6394 0 0 6525 0 0 6426 0 0 6306 0 0 6444 0 0 6378 0 0 6440 0 0 6318 0 0 6510 0 0 6381 0 0 6556 0 0 6305 0 0 6468 0 0 6412 0 0 6489 0 0 6348 0 0 6435 0 0 6509 0 0 6405 0 0 6449 0 0 6448 0 0 6391 0 0 6358 0 0 6465 0 0 6438 0 0 3251 0 0 0 0 0 0 0 0 0 0 0 0 0 0 0 0 0 0 0 0 0 0 0 0 0 0 0 0 0 
0 0 0 0 0 0 0 0 0 0 0 0 0 0 0 0 0 0 0 0 0 0 0 0 0 0 0 0 0 0 3221 0 0 6407 0 0 6635 0 0 6379 0 0 6363 0 0 6544 0 0 6476 0 0 6439 0 0 6461 0 0 6365 0 0 6414 0 0 6493 0 0 6397 0 0 6344 0 0 6536 0 0 6584 0 0 6556 0 0 6468 0 0 6486 0 0 6671 0 0 6495 0 0 6466 0 0 6368 0 0 6618 0 0 6465 0 0 6393 0 0 6340 0 0 6587 0 0 6536 0 0 6449 0 0 6321 0 0 6386 0 0 6545 0 0 6537 0 0 6609 0 0 6414 0 0 6420 0 0 6478 0 0 6534 0 0 6536 0 0 3283 0 0 0 0 0 0 0 0 0 0 0 0 0 0 0 0 0 0 0 0 0 0 0 0 0 0 0 0 0 
0 0 0 0 0 0 0 0 0 0 0 0 0 0 0 0 0 0 0 0 0 0 0 0 0 0 0 0 0 0 3054 0 0 6549 0 0 6453 0 0 6516 0 0 6495 0 0 6457 0 0 6426 0 0 6429 0 0 6370 0 0 6485 0 0 6394 0 0 6401 0 0 6395 0 0 6461 0 0 6530 0 0 6385 0 0 6634 0 0 6521 0 0 6383 0 0 6421 0 0 6536 0 0 6430 0 0 6580 0 0 6367 0 0 6252 0 0 6328 0 0 6450 0 0 6405 0 0 6528 0 0 6439 0 0 6521 0 0 6550 0 0 6481 0 0 6486 0 0 6388 0 0 6594 0 0 6567 0 0 6489 0 0 6495 0 0 6436 0 0 3205 0 0 0 0 0 0 0 0 0 0 0 0 0 0 0 0 0 0 0 0 0 0 0 0 0 0 0 0 0 
0 0 0 0 0 0 0 0 0 0 0 0 0 0 0 0 0 0 0 0 0 0 0 0 0 0 0 0 0 0 3281 0 0 6420 0 0 6474 0 0 6478 0 0 6493 0 0 6483 0 0 6469 0 0 6391 0 0 6439 0 0 6386 0 0 6529 0 0 6564 0 0 6504 0 0 6445 0 0 6665 0 0 6442 0 0 6441 0 0 6270 0 0 6491 0 0 6469 0 0 6420 0 0 6558 0 0 6433 0 0 6339 0 0 6303 0 0 6529 0 0 6419 0 0 6463 0 0 6364 0 0 6444 0 0 6591 0 0 6578 0 0 6340 0 0 6441 0 0 6394 0 0 6448 0 0 6415 0 0 6626 0 0 6398 0 0 6568 0 0 3086 0 0 0 0 0 0 0 0 0 0 0 0 0 0 0 0 0 0 0 0 0 0 0 0 0 0 0 0 0 
0 0 0 0 0 0 0 0 0 0 0 0 0 0 0 0 0 0 0 0 0 0 0 0 0 0 0 0 0 0 3224 0 0 6549 0 0 6361 0 0 6453 0 0 6438 0 0 6496 0 0 6304 0 0 6517 0 0 6559 0 0 6493 0 0 6436 0 0 6421 0 0 6462 0 0 6379 0 0 6535 0 0 6483 0 0 6485 0 0 6492 0 0 6493 0 0 6504 0 0 6384 0 0 6543 0 0 6424 0 0 6425 0 0 6473 0 0 6460 0 0 6436 0 0 6370 0 0 6492 0 0 6427 0 0 6475 0 0 6444 0 0 6443 0 0 6531 0 0 6434 0 0 6568 0 0 6364 0 0 6507 0 0 6555 0 0 6387 0 0 3115 0 0 0 0 0 0 0 0 0 0 0 0 0 0 0 0 0 0 0 0 0 0 0 0 0 0 0 0 0 
0 0 0 0 0 0 0 0 0 0 0 0 0 0 0 0 0 0 0 0 0 0 0 0 0 0 0 0 0 0 3171 0 0 6331 0 0 6531 0 0 6363 0 0 6334 0 0 6410 0 0 6531 0 0 6459 0 0 6279 0 0 6454 0 0 6444 0 0 6520 0 0 6408 0 0 6397 0 0 6541 0 0 6502 0 0 6440 0 0 6433 0 0 6484 0 0 6425 0 0 6587 0 0 6655 0 0 6546 0 0 6557 0 0 6488 0 0 6454 0 0 6382 0 0 6466 0 0 6530 0 0 6583 0 0 6416 0 0 6649 0 0 6342 0 0 6496 0 0 6393 0 0 6530 0 0 6420 0 0 6397 0 0 6283 0 0 6459 0 0 3225 0 0 0 0 0 0 0 0 0 0 0 0 0 0 0 0 0 0 0 0 0 0 0 0 0 0 0 0 0 
0 0 0 0 0 0 0 0 0 0 0 0 0 0 0 0 0 0 0 0 0 0 0 0 0 0 0 0 0 0 3395 0 0 6495 0 0 6420 0 0 6435 0 0 6316 0 0 6377 0 0 6386 0 0 6459 0 0 6421 0 0 6547 0 0 6434 0 0 6411 0 0 6524 0 0 6520 0 0 6509 0 0 6497 0 0 6325 0 0 6429 0 0 6425 0 0 6402 0 0 6499 0 0 6541 0 0 6381 0 0 6465 0 0 6449 0 0 6581 0 0 6494 0 0 6320 0 0 6380 0 0 6391 0 0 6471 0 0 6550 0 0 6278 0 0 6469 0 0 6446 0 0 6494 0 0 6510 0 0 6467 0 0 6322 0 0 6532 0 0 3180 0 0 0 0 0 0 0 0 0 0 0 0 0 0 0 0 0 0 0 0 0 0 0 0 0 0 0 0 0 
0 0 0 0 0 0 0 0 0 0 0 0 0 0 0 0 0 0 0 0 0 0 0 0 0 0 0 0 0 0 3174 0 0 6384 0 0 6341 0 0 6386 0 0 6480 0 0 6495 0 0 6451 0 0 6468 0 0 6452 0 0 6466 0 0 6483 0 0 6510 0 0 6325 0 0 6515 0 0 6510 0 0 6440 0 0 6474 0 0 6496 0 0 6371 0 0 6439 0 0 6392 0 0 6592 0 0 6349 0 0 6475 0 0 6483 0 0 6395 0 0 6504 0 0 6270 0 0 6467 0 0 6615 0 0 6489 0 0 6435 0 0 6488 0 0 6618 0 0 6336 0 0 6543 0 0 6576 0 0 6416 0 0 6509 0 0 6431 0 0 3243 0 0 0 0 0 0 0 0 0 0 0 0 0 0 0 0 0 0 0 0 0 0 0 0 0 0 0 0 0 
0 0 0 0 0 0 0 0 0 0 0 0 0 0 0 0 0 0 0 0 0 0 0 0 0 0 0 0 0 0 3247 0 0 6579 0 0 6466 0 0 6456 0 0 6524 0 0 6529 0 0 6345 0 0 6512 0 0 6526 0 0 6389 0 0 6619 0 0 6557 0 0 6471 0 0 6360 0 0 6565 0 0 6478 0 0 6489 0 0 6456 0 0 6567 0 0 6438 0 0 6560 0 0 6497 0 0 6382 0 0 6525 0 0 6517 0 0 6424 0 0 6410 0 0 6487 0 0 6455 0 0 6431 0 0 6459 0 0 6556 0 0 6501 0 0 6430 0 0 6455 0 0 6622 0 0 6491 0 0 6410 0 0 6248 0 0 6555 0 0 3225 0 0 0 0 0 0 0 0 0 0 0 0 0 0 0 0 0 0 0 0 0 0 0 0 0 0 0 0 0 
0 0 0 0 0 0 0 0 0 0 0 0 0 0 0 0 0 0 0 0 0 0 0 0 0 0 0 0 0 0 3292 0 0 6490 0 0 6499 0 0 6420 0 0 6388 0 0 6536 0 0 6497 0 0 6558 0 0 6502 0 0 6436 0 0 6402 0 0 6596 0 0 6590 0 0 6474 0 0 6376 0 0 6479 0 0 6500 0 0 6397 0 0 6349 0 0 6568 0 0 6476 0 0 6482 0 0 6493 0 0 6419 0 0 6484 0 0 6444 0 0 6499 0 0 6489 0 0 6576 0 0 6382 0 0 6465 0 0 6510 0 0 6561 0 0 6547 0 0 6408 0 0 6448 0 0 6392 0 0 6564 0 0 6290 0 0 6543 0 0 3308 0 0 0 0 0 0 0 0 0 0 0 0 0 0 0 0 0 0 0 0 0 0 0 0 0 0 0 0 0 
0 0 0 0 0 0 0 0 0 0 0 0 0 0 0 0 0 0 0 0 0 0 0 0 0 0 0 0 0 0 3244 0 0 6572 0 0 6505 0 0 6541 0 0 6458 0 0 6457 0 0 6423 0 0 6543 0 0 6454 0 0 6467 0 0 6426 0 0 6511 0 0 6363 0 0 6513 0 0 6379 0 0 6473 0 0 6352 0 0 6453 0 0 6549 0 0 6556 0 0 6494 0 0 6467 0 0 6503 0 0 6422 0 0 6519 0 0 6517 0 0 6335 0 0 6552 0 0 6414 0 0 6319 0 0 6378 0 0 6539 0 0 6500 0 0 6536 0 0 6423 0 0 6613 0 0 6328 0 0 6237 0 0 6507 0 0 6432 0 0 3237 0 0 0 0 0 0 0 0 0 0 0 0 0 0 0 0 0 0 0 0 0 0 0 0 0 0 0 0 0 
0 0 0 0 0 0 0 0 0 0 0 0 0 0 0 0 0 0 0 0 0 0 0 0 0 0 0 0 0 0 3200 0 0 6549 0 0 6408 0 0 6323 0 0 6355 0 0 6280 0 0 6395 0 0 6386 0 0 6499 0 0 6457 0 0 6578 0 0 6425 0 0 6420 0 0 6466 0 0 6410 0 0 6404 0 0 6442 0 0 6527 0 0 6458 0 0 6567 0 0 6450 0 0 6490 0 0 6378 0 0 6415 0 0 6412 0 0 6562 0 0 6453 0 0 6449 0 0 6493 0 0 6419 0 0 6529 0 0 6518 0 0 6466 0 0 6427 0 0 6530 0 0 6392 0 0 6540 0 0 6358 0 0 6481 0 0 6327 0 0 3190 0 0 0 0 0 0 0 0 0 0 0 0 0 0 0 0 0 0 0 0 0 0 0 0 0 0 0 0 0 
0 0 0 0 0 0 0 0 0 0 0 0 0 0 0 0 0 0 0 0 0 0 0 0 0 0 0 0 0 0 3222 0 0 6475 0 0 6527 0 0 6497 0 0 6403 0 0 6523 0 0 6514 0 0 6593 0 0 6447 0 0 6496 0 0 6421 0 0 6389 0 0 6317 0 0 6456 0 0 6474 0 0 6540 0 0 6493 0 0 6484 0 0 6387 0 0 6463 0 0 6436 0 0 6486 0 0 6594 0 0 6271 0 0 6391 0 0 6639 0 0 6402 0 0 6339 0 0 6514 0 0 6312 0 0 6441 0 0 6450 0 0 6537 0 0 6450 0 0 6542 0 0 6423 0 0 6287 0 0 6584 0 0 6477 0 0 6552 0 0 3115 0 0 0 0 0 0 0 0 0 0 0 0 0 0 0 0 0 0 0 0 0 0 0 0 0 0 0 0 0 
0 0 0 0 0 0 0 0 0 0 0 0 0 0 0 0 0 0 0 0 0 0 0 0 0 0 0 0 0 0 3304 0 0 6528 0 0 6567 0 0 6476 0 0 6465 0 0 6298 0 0 6499 0 0 6525 0 0 6407 0 0 6424 0 0 6457 0 0 6422 0 0 6469 0 0 6425 0 0 6464 0 0 6524 0 0 6386 0 0 6492 0 0 6465 0 0 6394 0 0 6429 0 0 6356 0 0 6528 0 0 6531 0 0 6516 0 0 6531 0 0 6421 0 0 6528 0 0 6605 0 0 6495 0 0 6460 0 0 6559 0 0 6452 0 0 6478 0 0 6403 0 0 6458 0 0 6467 0 0 6506 0 0 6512 0 0 6524 0 0 3280 0 0 0 0 0 0 0 0 0 0 0 0 0 0 0 0 0 0 0 0 0 0 0 0 0 0 0 0 0 
0 0 0 0 0 0 0 0 0 0 0 0 0 0 0 0 0 0 0 0 0 0 0 0 0 0 0 0 0 0 3228 0 0 6364 0 0 6562 0 0 6455 0 0 6524 0 0 6459 0 0 6436 0 0 6463 0 0 6388 0 0 6475 0 0 6498 0 0 6422 0 0 6374 0 0 6456 0 0 6450 0 0 6408 0 0 6453 0 0 6434 0 0 6514 0 0 6605 0 0 6551 0 0 6610 0 0 6461 0 0 6409 0 0 6429 0 0 6371 0 0 6583 0 0 6424 0 0 6415 0 0 6414 0 0 6459 0 0 6318 0 0 6352 0 0 6489 0 0 6452 0 0 6379 0 0 6576 0 0 6473 0 0 6341 0 0 6624 0 0 3080 0 0 0 0 0 0 0 0 0 0 0 0 0 0 0 0 0 0 0 0 0 0 0 0 0 0 0 0 0 
0 0 0 0 0 0 0 0 0 0 0 0 0 0 0 0 0 0 0 0 0 0 0 0 0 0 0 0 0 0 3191 0 0 6231 0 0 6458 0 0 6363 0 0 6544 0 0 6251 0 0 6329 0 0 6413 0 0 6416 0 0 6345 0 0 6502 0 0 6441 0 0 6473 0 0 6462 0 0 6426 0 0 6494 0 0 6237 0 0 6455 0 0 6486 0 0 6541 0 0 6518 0 0 6503 0 0 6453 0 0 6473 0 0 6449 0 0 6422 0 0 6546 0 0 6452 0 0 6352 0 0 6466 0 0 6345 0 0 6494 0 0 6457 0 0 6337 0 0 6467 0 0 6604 0 0 6527 0 0 6420 0 0 6541 0 0 6436 0 0 3275 0 0 0 0 0 0 0 0 0 0 0 0 0 0 0 0 0 0 0 0 0 0 0 0 0 0 0 0 0 
0 0 0 0 0 0 0 0 0 0 0 0 0 0 0 0 0 0 0 0 0 0 0 0 0 0 0 0 0 0 3203 0 0 6385 0 0 6487 0 0 6550 0 0 6332 0 0 6365 0 0 6570 0 0 6403 0 0 6439 0 0 6462 0 0 6485 0 0 6564 0 0 6534 0 0 6531 0 0 6499 0 0 6420 0 0 6383 0 0 6450 0 0 6454 0 0 6520 0 0 6331 0 0 6526 0 0 6477 0 0 6591 0 0 6428 0 0 6325 0 0 6473 0 0 6347 0 0 6584 0 0 6599 0 0 6438 0 0 6546 0 0 6427 0 0 6438 0 0 6420 0 0 6435 0 0 6380 0 0 6452 0 0 6371 0 0 6408 0 0 3161 0 0 0 0 0 0 0 0 0 0 0 0 0 0 0 0 0 0 0 0 0 0 0 0 0 0 0 0 0 
0 0 0 0 0 0 0 0 0 0 0 0 0 0 0 0 0 0 0 0 0 0 0 0 0 0 0 0 0 0 3330 0 0 6449 0 0 6424 0 0 6582 0 0 6489 0 0 6433 0 0 6556 0 0 6421 0 0 6590 0 0 6444 0 0 6454 0 0 6586 0 0 6414 0 0 6525 0 0 6371 0 0 6406 0 0 6442 0 0 6641 0 0 6539 0 0 6531 0 0 6569 0 0 6407 0 0 6489 0 0 6414 0 0 6532 0 0 6422 0 0 6612 0 0 6448 0 0 6491 0 0 6495 0 0 6421 0 0 6328 0 0 6698 0 0 6385 0 0 6460 0 0 6443 0 0 6331 0 0 6509 0 0 6573 0 0 6454 0 0 3164 0 0 0 0 0 0 0 0 0 0 0 0 0 0 0 0 0 0 0 0 0 0 0 0 0 0 0 0 0 
0 0 0 0 0 0 0 0 0 0 0 0 0 0 0 0 0 0 0 0 0 0 0 0 0 0 0 0 0 0 1613 0 0 3226 0 0 3240 0 0 3162 0 0 3262 0 0 3255 0 0 3118 0 0 3337 0 0 3295 0 0 3305 0 0 3246 0 0 3267 0 0 3255 0 0 3142 0 0 3211 0 0 3254 0 0 3157 0 0 3237 0 0 3154 0 0 3303 0 0 3250 0 0 3160 0 0 3186 0 0 3160 0 0 3176 0 0 3197 0 0 3258 0 0 3247 0 0 3257 0 0 3101 0 0 3227 0 0 3247 0 0 3228 0 0 3260 0 0 3165 0 0 3313 0 0 3164 0 0 3283 0 0 3121 0 0 3209 0 0 1472 0 0 0 0 0 0 0 0 0 0 0 0 0 0 0 0 0 0 0 0 0 0 0 0 0 0 0 0 0 
0 0 0 0 0 0 0 0 0 0 0 0 0 0 0 0 0 0 0 0 0 0 0 0 0 0 0 0 0 0 0 0 0 0 0 0 0 0 0 0 0 0 0 0 0 0 0 0 0 0 0 0 0 0 0 0 0 0 0 0 0 0 0 0 0 0 0 0 0 0 0 0 0 0 0 0 0 0 0 0 0 0 0 0 0 0 0 0 0 0 0 0 0 0 0 0 0 0 0 0 0 0 0 0 0 0 0 0 0 0 0 0 0 0 0 0 0 0 0 0 0 0 0 0 0 0 0 0 0 0 0 0 0 0 0 0 0 0 0 0 0 0 0 0 0 0 0 0 0 0 0 0 0 0 0 0 0 0 0 0 0 0 0 0 0 0 0 0 0 0 0 0 0 0 0 0 0 0 0 0 
0 0 0 0 0 0 0 0 0 0 0 0 0 0 0 0 0 0 0 0 0 0 0 0 0 0 0 0 0 0 0 0 0 0 0 0 0 0 0 0 0 0 0 0 0 0 0 0 0 0 0 0 0 0 0 0 0 0 0 0 0 0 0 0 0 0 0 0 0 0 0 0 0 0 0 0 0 0 0 0 0 0 0 0 0 0 0 0 0 0 0 0 0 0 0 0 0 0 0 0 0 0 0 0 0 0 0 0 0 0 0 0 0 0 0 0 0 0 0 0 0 0 0 0 0 0 0 0 0 0 0 0 0 0 0 0 0 0 0 0 0 0 0 0 0 0 0 0 0 0 0 0 0 0 0 0 0 0 0 0 0 0 0 0 0 0 0 0 0 0 0 0 0 0 0 0 0 0 0 0 
0 0 0 0 0 0 0 0 0 0 0 0 0 0 0 0 0 0 0 0 0 0 0 0 0 0 0 0 0 0 0 0 0 0 0 0 0 0 0 0 0 0 0 0 0 0 0 0 0 0 0 0 0 0 0 0 0 0 0 0 0 0 0 0 0 0 0 0 0 0 0 0 0 0 0 0 0 0 0 0 0 0 0 0 0 0 0 0 0 0 0 0 0 0 0 0 0 0 0 0 0 0 0 0 0 0 0 0 0 0 0 0 0 0 0 0 0 0 0 0 0 0 0 0 0 0 0 0 0 0 0 0 0 0 0 0 0 0 0 0 0 0 0 0 0 0 0 0 0 0 0 0 0 0 0 0 0 0 0 0 0 0 0 0 0 0 0 0 0 0 0 0 0 0 0 0 0 0 0 0 
0 0 0 0 0 0 0 0 0 0 0 0 0 0 0 0 0 0 0 0 0 0 0 0 0 0 0 0 0 0 0 0 0 0 0 0 0 0 0 0 0 0 0 0 0 0 0 0 0 0 0 0 0 0 0 0 0 0 0 0 0 0 0 0 0 0 0 0 0 0 0 0 0 0 0 0 0 0 0 0 0 0 0 0 0 0 0 0 0 0 0 0 0 0 0 0 0 0 0 0 0 0 0 0 0 0 0 0 0 0 0 0 0 0 0 0 0 0 0 0 0 0 0 0 0 0 0 0 0 0 0 0 0 0 0 0 0 0 0 0 0 0 0 0 0 0 0 0 0 0 0 0 0 0 0 0 0 0 0 0 0 0 0 0 0 0 0 0 0 0 0 0 0 0 0 0 0 0 0 0 
0 0 0 0 0 0 0 0 0 0 0 0 0 0 0 0 0 0 0 0 0 0 0 0 0 0 0 0 0 0 0 0 0 0 0 0 0 0 0 0 0 0 0 0 0 0 0 0 0 0 0 0 0 0 0 0 0 0 0 0 0 0 0 0 0 0 0 0 0 0 0 0 0 0 0 0 0 0 0 0 0 0 0 0 0 0 0 0 0 0 0 0 0 0 0 0 0 0 0 0 0 0 0 0 0 0 0 0 0 0 0 0 0 0 0 0 0 0 0 0 0 0 0 0 0 0 0 0 0 0 0 0 0 0 0 0 0 0 0 0 0 0 0 0 0 0 0 0 0 0 0 0 0 0 0 0 0 0 0 0 0 0 0 0 0 0 0 0 0 0 0 0 0 0 0 0 0 0 0 0 
0 0 0 0 0 0 0 0 0 0 0 0 0 0 0 0 0 0 0 0 0 0 0 0 0 0 0 0 0 0 0 0 0 0 0 0 0 0 0 0 0 0 0 0 0 0 0 0 0 0 0 0 0 0 0 0 0 0 0 0 0 0 0 0 0 0 0 0 0 0 0 0 0 0 0 0 0 0 0 0 0 0 0 0 0 0 0 0 0 0 0 0 0 0 0 0 0 0 0 0 0 0 0 0 0 0 0 0 0 0 0 0 0 0 0 0 0 0 0 0 0 0 0 0 0 0 0 0 0 0 0 0 0 0 0 0 0 0 0 0 0 0 0 0 0 0 0 0 0 0 0 0 0 0 0 0 0 0 0 0 0 0 0 0 0 0 0 0 0 0 0 0 0 0 0 0 0 0 0 0 
0 0 0 0 0 0 0 0 0 0 0 0 0 0 0 0 0 0 0 0 0 0 0 0 0 0 0 0 0 0 0 0 0 0 0 0 0 0 0 0 0 0 0 0 0 0 0 0 0 0 0 0 0 0 0 0 0 0 0 0 0 0 0 0 0 0 0 0 0 0 0 0 0 0 0 0 0 0 0 0 0 0 0 0 0 0 0 0 0 0 0 0 0 0 0 0 0 0 0 0 0 0 0 0 0 0 0 0 0 0 0 0 0 0 0 0 0 0 0 0 0 0 0 0 0 0 0 0 0 0 0 0 0 0 0 0 0 0 0 0 0 0 0 0 0 0 0 0 0 0 0 0 0 0 0 0 0 0 0 0 0 0 0 0 0 0 0 0 0 0 0 0 0 0 0 0 0 0 0 0 
0 0 0 0 0 0 0 0 0 0 0 0 0 0 0 0 0 0 0 0 0 0 0 0 0 0 0 0 0 0 0 0 0 0 0 0 0 0 0 0 0 0 0 0 0 0 0 0 0 0 0 0 0 0 0 0 0 0 0 0 0 0 0 0 0 0 0 0 0 0 0 0 0 0 0 0 0 0 0 0 0 0 0 0 0 0 0 0 0 0 0 0 0 0 0 0 0 0 0 0 0 0 0 0 0 0 0 0 0 0 0 0 0 0 0 0 0 0 0 0 0 0 0 0 0 0 0 0 0 0 0 0 0 0 0 0 0 0 0 0 0 0 0 0 0 0 0 0 0 0 0 0 0 0 0 0 0 0 0 0 0 0 0 0 0 0 0 0 0 0 0 0 0 0 0 0 0 0 0 0 
0 0 0 0 0 0 0 0 0 0 0 0 0 0 0 0 0 0 0 0 0 0 0 0 0 0 0 0 0 0 0 0 0 0 0 0 0 0 0 0 0 0 0 0 0 0 0 0 0 0 0 0 0 0 0 0 0 0 0 0 0 0 0 0 0 0 0 0 0 0 0 0 0 0 0 0 0 0 0 0 0 0 0 0 0 0 0 0 0 0 0 0 0 0 0 0 0 0 0 0 0 0 0 0 0 0 0 0 0 0 0 0 0 0 0 0 0 0 0 0 0 0 0 0 0 0 0 0 0 0 0 0 0 0 0 0 0 0 0 0 0 0 0 0 0 0 0 0 0 0 0 0 0 0 0 0 0 0 0 0 0 0 0 0 0 0 0 0 0 0 0 0 0 0 0 0 0 0 0 0 
