P3
# This is a dose file slice at depth 66 of 100
60 60
# now we give the maximum value of the RGB coordinates.
34204
0 0 0 0 0 0 0 0 0 0 0 0 0 0 0 0 0 0 0 0 0 0 0 0 0 0 0 0 0 0 0 0 0 0 0 0 0 0 0 0 0 0 0 0 0 0 0 0 0 0 0 0 0 0 0 0 0 0 0 0 0 0 0 0 0 0 0 0 0 0 0 0 0 0 0 0 0 0 0 0 0 0 0 0 0 0 0 0 0 0 0 0 0 0 0 0 0 0 0 0 0 0 0 0 0 0 0 0 0 0 0 0 0 0 0 0 0 0 0 0 0 0 0 0 0 0 0 0 0 0 0 0 0 0 0 0 0 0 0 0 0 0 0 0 0 0 0 0 0 0 0 0 0 0 0 0 0 0 0 0 0 0 0 0 0 0 0 0 0 0 0 0 0 0 0 0 0 0 0 0 
0 0 0 0 0 0 0 0 0 0 0 0 0 0 0 0 0 0 0 0 0 0 0 0 0 0 0 0 0 0 0 0 0 0 0 0 0 0 0 0 0 0 0 0 0 0 0 0 0 0 0 0 0 0 0 0 0 0 0 0 0 0 0 0 0 0 0 0 0 0 0 0 0 0 0 0 0 0 0 0 0 0 0 0 0 0 0 0 0 0 0 0 0 0 0 0 0 0 0 0 0 0 0 0 0 0 0 0 0 0 0 0 0 0 0 0 0 0 0 0 0 0 0 0 0 0 0 0 0 0 0 0 0 0 0 0 0 0 0 0 0 0 0 0 0 0 0 0 0 0 0 0 0 0 0 0 0 0 0 0 0 0 0 0 0 0 0 0 0 0 0 0 0 0 0 0 0 0 0 0 
0 0 0 0 0 0 0 0 0 0 0 0 0 0 0 0 0 0 0 0 0 0 0 0 0 0 0 0 0 0 0 0 0 0 0 0 0 0 0 0 0 0 0 0 0 0 0 0 0 0 0 0 0 0 0 0 0 0 0 0 0 0 0 0 0 0 0 0 0 0 0 0 0 0 0 0 0 0 0 0 0 0 0 0 0 0 0 0 0 0 0 0 0 0 0 0 0 0 0 0 0 0 0 0 0 0 0 0 0 0 0 0 0 0 0 0 0 0 0 0 0 0 0 0 0 0 0 0 0 0 0 0 0 0 0 0 0 0 0 0 0 0 0 0 0 0 0 0 0 0 0 0 0 0 0 0 0 0 0 0 0 0 0 0 0 0 0 0 0 0 0 0 0 0 0 0 0 0 0 0 
0 0 0 0 0 0 0 0 0 0 0 0 0 0 0 0 0 0 0 0 0 0 0 0 0 0 0 0 0 0 0 0 0 0 0 0 0 0 0 0 0 0 0 0 0 0 0 0 0 0 0 0 0 0 0 0 0 0 0 0 0 0 0 0 0 0 0 0 0 0 0 0 0 0 0 0 0 0 0 0 0 0 0 0 0 0 0 0 0 0 0 0 0 0 0 0 0 0 0 0 0 0 0 0 0 0 0 0 0 0 0 0 0 0 0 0 0 0 0 0 0 0 0 0 0 0 0 0 0 0 0 0 0 0 0 0 0 0 0 0 0 0 0 0 0 0 0 0 0 0 0 0 0 0 0 0 0 0 0 0 0 0 0 0 0 0 0 0 0 0 0 0 0 0 0 0 0 0 0 0 
0 0 0 0 0 0 0 0 0 0 0 0 0 0 0 0 0 0 0 0 0 0 0 0 0 0 0 0 0 0 0 0 0 0 0 0 0 0 0 0 0 0 0 0 0 0 0 0 0 0 0 0 0 0 0 0 0 0 0 0 0 0 0 0 0 0 0 0 0 0 0 0 0 0 0 0 0 0 0 0 0 0 0 0 0 0 0 0 0 0 0 0 0 0 0 0 0 0 0 0 0 0 0 0 0 0 0 0 0 0 0 0 0 0 0 0 0 0 0 0 0 0 0 0 0 0 0 0 0 0 0 0 0 0 0 0 0 0 0 0 0 0 0 0 0 0 0 0 0 0 0 0 0 0 0 0 0 0 0 0 0 0 0 0 0 0 0 0 0 0 0 0 0 0 0 0 0 0 0 0 
0 0 0 0 0 0 0 0 0 0 0 0 0 0 0 0 0 0 0 0 0 0 0 0 0 0 0 0 0 0 0 0 0 0 0 0 0 0 0 0 0 0 0 0 0 0 0 0 0 0 0 0 0 0 0 0 0 0 0 0 0 0 0 0 0 0 0 0 0 0 0 0 0 0 0 0 0 0 0 0 0 0 0 0 0 0 0 0 0 0 0 0 0 0 0 0 0 0 0 0 0 0 0 0 0 0 0 0 0 0 0 0 0 0 0 0 0 0 0 0 0 0 0 0 0 0 0 0 0 0 0 0 0 0 0 0 0 0 0 0 0 0 0 0 0 0 0 0 0 0 0 0 0 0 0 0 0 0 0 0 0 0 0 0 0 0 0 0 0 0 0 0 0 0 0 0 0 0 0 0 
0 0 0 0 0 0 0 0 0 0 0 0 0 0 0 0 0 0 0 0 0 0 0 0 0 0 0 0 0 0 0 0 0 0 0 0 0 0 0 0 0 0 0 0 0 0 0 0 0 0 0 0 0 0 0 0 0 0 0 0 0 0 0 0 0 0 0 0 0 0 0 0 0 0 0 0 0 0 0 0 0 0 0 0 0 0 0 0 0 0 0 0 0 0 0 0 0 0 0 0 0 0 0 0 0 0 0 0 0 0 0 0 0 0 0 0 0 0 0 0 0 0 0 0 0 0 0 0 0 0 0 0 0 0 0 0 0 0 0 0 0 0 0 0 0 0 0 0 0 0 0 0 0 0 0 0 0 0 0 0 0 0 0 0 0 0 0 0 0 0 0 0 0 0 0 0 0 0 0 0 
0 0 0 0 0 0 0 0 0 0 0 0 0 0 0 0 0 0 0 0 0 0 0 0 0 0 0 0 0 0 0 0 0 0 0 0 0 0 0 0 0 0 0 0 0 0 0 0 0 0 0 0 0 0 0 0 0 0 0 0 0 0 0 0 0 0 0 0 0 0 0 0 0 0 0 0 0 0 0 0 0 0 0 0 0 0 0 0 0 0 0 0 0 0 0 0 0 0 0 0 0 0 0 0 0 0 0 0 0 0 0 0 0 0 0 0 0 0 0 0 0 0 0 0 0 0 0 0 0 0 0 0 0 0 0 0 0 0 0 0 0 0 0 0 0 0 0 0 0 0 0 0 0 0 0 0 0 0 0 0 0 0 0 0 0 0 0 0 0 0 0 0 0 0 0 0 0 0 0 0 
0 0 0 0 0 0 0 0 0 0 0 0 0 0 0 0 0 0 0 0 0 0 0 0 0 0 0 0 0 0 0 0 0 0 0 0 0 0 0 0 0 0 0 0 0 0 0 0 0 0 0 0 0 0 0 0 0 0 0 0 0 0 0 0 0 0 0 0 0 0 0 0 0 0 0 0 0 0 0 0 0 0 0 0 0 0 0 0 0 0 0 0 0 0 0 0 0 0 0 0 0 0 0 0 0 0 0 0 0 0 0 0 0 0 0 0 0 0 0 0 0 0 0 0 0 0 0 0 0 0 0 0 0 0 0 0 0 0 0 0 0 0 0 0 0 0 0 0 0 0 0 0 0 0 0 0 0 0 0 0 0 0 0 0 0 0 0 0 0 0 0 0 0 0 0 0 0 0 0 0 
0 0 0 0 0 0 0 0 0 0 0 0 0 0 0 0 0 0 0 0 0 0 0 0 0 0 0 0 0 0 0 0 0 0 0 0 0 0 0 0 0 0 0 0 0 0 0 0 0 0 0 0 0 0 0 0 0 0 0 0 0 0 0 0 0 0 0 0 0 0 0 0 0 0 0 0 0 0 0 0 0 0 0 0 0 0 0 0 0 0 0 0 0 0 0 0 0 0 0 0 0 0 0 0 0 0 0 0 0 0 0 0 0 0 0 0 0 0 0 0 0 0 0 0 0 0 0 0 0 0 0 0 0 0 0 0 0 0 0 0 0 0 0 0 0 0 0 0 0 0 0 0 0 0 0 0 0 0 0 0 0 0 0 0 0 0 0 0 0 0 0 0 0 0 0 0 0 0 0 0 
0 0 0 0 0 0 0 0 0 0 0 0 0 0 0 0 0 0 0 0 0 0 0 0 0 0 0 0 0 0 1250 0 0 2553 0 0 2606 0 0 2524 0 0 2521 0 0 2622 0 0 2558 0 0 2446 0 0 2494 0 0 2629 0 0 2530 0 0 2520 0 0 2569 0 0 2481 0 0 2537 0 0 2512 0 0 2517 0 0 2458 0 0 2513 0 0 2527 0 0 2568 0 0 2471 0 0 2583 0 0 2519 0 0 2505 0 0 2529 0 0 2544 0 0 2483 0 0 2605 0 0 2459 0 0 2538 0 0 2611 0 0 2533 0 0 2589 0 0 2550 0 0 2611 0 0 2539 0 0 2583 0 0 2547 0 0 2545 0 0 1248 0 0 0 0 0 0 0 0 0 0 0 0 0 0 0 0 0 0 0 0 0 0 0 0 0 0 0 0 0 
0 0 0 0 0 0 0 0 0 0 0 0 0 0 0 0 0 0 0 0 0 0 0 0 0 0 0 0 0 0 2556 0 0 5156 0 0 5061 0 0 4941 0 0 5072 0 0 5137 0 0 5105 0 0 5191 0 0 5063 0 0 5018 0 0 5037 0 0 5114 0 0 5148 0 0 5089 0 0 5155 0 0 5030 0 0 5136 0 0 4943 0 0 5159 0 0 5030 0 0 5204 0 0 5176 0 0 5058 0 0 5038 0 0 5234 0 0 5020 0 0 4939 0 0 5158 0 0 5120 0 0 5199 0 0 5080 0 0 5139 0 0 5139 0 0 5197 0 0 5101 0 0 5015 0 0 5106 0 0 5042 0 0 5057 0 0 5020 0 0 2570 0 0 0 0 0 0 0 0 0 0 0 0 0 0 0 0 0 0 0 0 0 0 0 0 0 0 0 0 0 
0 0 0 0 0 0 0 0 0 0 0 0 0 0 0 0 0 0 0 0 0 0 0 0 0 0 0 0 0 0 2570 0 0 5163 0 0 5221 0 0 5128 0 0 5094 0 0 5097 0 0 4989 0 0 5094 0 0 4942 0 0 5223 0 0 5269 0 0 5071 0 0 5070 0 0 5042 0 0 5149 0 0 4920 0 0 5107 0 0 5119 0 0 5148 0 0 5052 0 0 4952 0 0 5269 0 0 5273 0 0 5108 0 0 5061 0 0 5073 0 0 5079 0 0 5172 0 0 5082 0 0 4998 0 0 5150 0 0 5041 0 0 5149 0 0 4995 0 0 5142 0 0 5048 0 0 5211 0 0 5103 0 0 5098 0 0 5014 0 0 2501 0 0 0 0 0 0 0 0 0 0 0 0 0 0 0 0 0 0 0 0 0 0 0 0 0 0 0 0 0 
0 0 0 0 0 0 0 0 0 0 0 0 0 0 0 0 0 0 0 0 0 0 0 0 0 0 0 0 0 0 2541 0 0 5214 0 0 5090 0 0 5157 0 0 5324 0 0 5109 0 0 5076 0 0 5145 0 0 5024 0 0 4979 0 0 5116 0 0 5091 0 0 5023 0 0 5253 0 0 5027 0 0 5075 0 0 5140 0 0 5101 0 0 5040 0 0 5148 0 0 5137 0 0 5096 0 0 4911 0 0 5014 0 0 5117 0 0 5033 0 0 5036 0 0 5016 0 0 5092 0 0 5068 0 0 5024 0 0 5140 0 0 5143 0 0 5055 0 0 5125 0 0 5160 0 0 5040 0 0 4994 0 0 5152 0 0 5070 0 0 2583 0 0 0 0 0 0 0 0 0 0 0 0 0 0 0 0 0 0 0 0 0 0 0 0 0 0 0 0 0 
0 0 0 0 0 0 0 0 0 0 0 0 0 0 0 0 0 0 0 0 0 0 0 0 0 0 0 0 0 0 2531 0 0 5200 0 0 5021 0 0 5222 0 0 5149 0 0 5150 0 0 5010 0 0 5141 0 0 5057 0 0 5139 0 0 5111 0 0 5129 0 0 5102 0 0 5051 0 0 5194 0 0 5129 0 0 4987 0 0 5114 0 0 5085 0 0 5151 0 0 4981 0 0 5138 0 0 5056 0 0 5113 0 0 5091 0 0 5095 0 0 5031 0 0 5004 0 0 5084 0 0 5115 0 0 5083 0 0 5129 0 0 5052 0 0 5154 0 0 5048 0 0 5135 0 0 5134 0 0 5084 0 0 5144 0 0 5230 0 0 2550 0 0 0 0 0 0 0 0 0 0 0 0 0 0 0 0 0 0 0 0 0 0 0 0 0 0 0 0 0 
0 0 0 0 0 0 0 0 0 0 0 0 0 0 0 0 0 0 0 0 0 0 0 0 0 0 0 0 0 0 2505 0 0 5001 0 0 5103 0 0 5066 0 0 5142 0 0 5147 0 0 5194 0 0 5104 0 0 5027 0 0 5171 0 0 5169 0 0 4985 0 0 5105 0 0 5042 0 0 5014 0 0 5107 0 0 5056 0 0 5044 0 0 5121 0 0 5103 0 0 4933 0 0 5073 0 0 4993 0 0 5113 0 0 5119 0 0 5069 0 0 5176 0 0 5069 0 0 5214 0 0 5226 0 0 5141 0 0 5098 0 0 5089 0 0 5072 0 0 4997 0 0 5145 0 0 5097 0 0 5033 0 0 5155 0 0 5187 0 0 2582 0 0 0 0 0 0 0 0 0 0 0 0 0 0 0 0 0 0 0 0 0 0 0 0 0 0 0 0 0 
0 0 0 0 0 0 0 0 0 0 0 0 0 0 0 0 0 0 0 0 0 0 0 0 0 0 0 0 0 0 2706 0 0 5238 0 0 5211 0 0 5118 0 0 5085 0 0 5042 0 0 5051 0 0 5078 0 0 5129 0 0 5109 0 0 5070 0 0 5054 0 0 5154 0 0 4960 0 0 5004 0 0 5139 0 0 5111 0 0 4968 0 0 5106 0 0 5264 0 0 5033 0 0 4975 0 0 5169 0 0 5120 0 0 5041 0 0 5020 0 0 5042 0 0 5099 0 0 5117 0 0 5163 0 0 5156 0 0 4962 0 0 5056 0 0 5097 0 0 5160 0 0 5039 0 0 4944 0 0 5047 0 0 5101 0 0 5027 0 0 2588 0 0 0 0 0 0 0 0 0 0 0 0 0 0 0 0 0 0 0 0 0 0 0 0 0 0 0 0 0 
0 0 0 0 0 0 0 0 0 0 0 0 0 0 0 0 0 0 0 0 0 0 0 0 0 0 0 0 0 0 2539 0 0 5274 0 0 5074 0 0 5162 0 0 5113 0 0 4932 0 0 5103 0 0 5232 0 0 5152 0 0 5077 0 0 5180 0 0 5023 0 0 5030 0 0 5071 0 0 5079 0 0 5016 0 0 5082 0 0 5114 0 0 5105 0 0 4995 0 0 5146 0 0 4990 0 0 5058 0 0 5111 0 0 5140 0 0 5190 0 0 5118 0 0 5193 0 0 5201 0 0 5119 0 0 5141 0 0 5019 0 0 5075 0 0 4927 0 0 5064 0 0 4971 0 0 5145 0 0 5037 0 0 5057 0 0 5104 0 0 2559 0 0 0 0 0 0 0 0 0 0 0 0 0 0 0 0 0 0 0 0 0 0 0 0 0 0 0 0 0 
0 0 0 0 0 0 0 0 0 0 0 0 0 0 0 0 0 0 0 0 0 0 0 0 0 0 0 0 0 0 2591 0 0 5110 0 0 5072 0 0 5110 0 0 5102 0 0 5082 0 0 5131 0 0 5157 0 0 5054 0 0 4992 0 0 5121 0 0 5020 0 0 5110 0 0 5048 0 0 5044 0 0 5069 0 0 5086 0 0 5128 0 0 5164 0 0 5147 0 0 5109 0 0 5045 0 0 5205 0 0 5033 0 0 5045 0 0 5112 0 0 5068 0 0 5042 0 0 5077 0 0 5033 0 0 4984 0 0 5126 0 0 5206 0 0 4918 0 0 5180 0 0 5064 0 0 5114 0 0 5222 0 0 5033 0 0 5099 0 0 2562 0 0 0 0 0 0 0 0 0 0 0 0 0 0 0 0 0 0 0 0 0 0 0 0 0 0 0 0 0 
0 0 0 0 0 0 0 0 0 0 0 0 0 0 0 0 0 0 0 0 0 0 0 0 0 0 0 0 0 0 2520 0 0 5112 0 0 4990 0 0 5180 0 0 4992 0 0 5111 0 0 5186 0 0 5161 0 0 5050 0 0 5031 0 0 5129 0 0 5202 0 0 5168 0 0 5089 0 0 5071 0 0 5120 0 0 5123 0 0 5112 0 0 5144 0 0 5249 0 0 5200 0 0 5015 0 0 5105 0 0 5031 0 0 5164 0 0 5081 0 0 5118 0 0 5033 0 0 5066 0 0 5102 0 0 5136 0 0 5171 0 0 5150 0 0 5085 0 0 5132 0 0 5202 0 0 5164 0 0 5111 0 0 5046 0 0 5180 0 0 2462 0 0 0 0 0 0 0 0 0 0 0 0 0 0 0 0 0 0 0 0 0 0 0 0 0 0 0 0 0 
0 0 0 0 0 0 0 0 0 0 0 0 0 0 0 0 0 0 0 0 0 0 0 0 0 0 0 0 0 0 2441 0 0 5070 0 0 5223 0 0 5183 0 0 5122 0 0 5221 0 0 5064 0 0 5047 0 0 5011 0 0 5117 0 0 5061 0 0 5074 0 0 5152 0 0 5062 0 0 5113 0 0 5028 0 0 5157 0 0 5144 0 0 5023 0 0 5096 0 0 5123 0 0 5050 0 0 5127 0 0 5146 0 0 5142 0 0 5103 0 0 5040 0 0 5113 0 0 5116 0 0 5049 0 0 5165 0 0 5161 0 0 5205 0 0 5077 0 0 5023 0 0 5206 0 0 5205 0 0 5125 0 0 5117 0 0 5070 0 0 2441 0 0 0 0 0 0 0 0 0 0 0 0 0 0 0 0 0 0 0 0 0 0 0 0 0 0 0 0 0 
0 0 0 0 0 0 0 0 0 0 0 0 0 0 0 0 0 0 0 0 0 0 0 0 0 0 0 0 0 0 2546 0 0 5031 0 0 5066 0 0 5032 0 0 5133 0 0 5120 0 0 5086 0 0 5162 0 0 5053 0 0 5044 0 0 5181 0 0 5122 0 0 4923 0 0 5116 0 0 5250 0 0 5137 0 0 5143 0 0 5080 0 0 5062 0 0 5003 0 0 5099 0 0 5062 0 0 5055 0 0 5222 0 0 5154 0 0 5169 0 0 5109 0 0 5152 0 0 5016 0 0 5142 0 0 5073 0 0 5156 0 0 5140 0 0 5133 0 0 5099 0 0 5076 0 0 5185 0 0 5096 0 0 5115 0 0 5035 0 0 2583 0 0 0 0 0 0 0 0 0 0 0 0 0 0 0 0 0 0 0 0 0 0 0 0 0 0 0 0 0 
0 0 0 0 0 0 0 0 0 0 0 0 0 0 0 0 0 0 0 0 0 0 0 0 0 0 0 0 0 0 2513 0 0 5020 0 0 5085 0 0 5204 0 0 5098 0 0 5102 0 0 5065 0 0 5303 0 0 5106 0 0 4960 0 0 5070 0 0 5138 0 0 5017 0 0 5069 0 0 5046 0 0 5053 0 0 5115 0 0 5061 0 0 5074 0 0 5040 0 0 5200 0 0 5047 0 0 5043 0 0 5003 0 0 4987 0 0 5087 0 0 5163 0 0 4980 0 0 5134 0 0 5015 0 0 5144 0 0 5144 0 0 5096 0 0 5214 0 0 5197 0 0 5128 0 0 5183 0 0 4955 0 0 5002 0 0 5100 0 0 2525 0 0 0 0 0 0 0 0 0 0 0 0 0 0 0 0 0 0 0 0 0 0 0 0 0 0 0 0 0 
0 0 0 0 0 0 0 0 0 0 0 0 0 0 0 0 0 0 0 0 0 0 0 0 0 0 0 0 0 0 2578 0 0 5043 0 0 5078 0 0 5051 0 0 5035 0 0 5115 0 0 5020 0 0 5057 0 0 5113 0 0 5061 0 0 5137 0 0 4991 0 0 5179 0 0 5118 0 0 5171 0 0 5118 0 0 5216 0 0 5055 0 0 5161 0 0 5116 0 0 5125 0 0 5111 0 0 5033 0 0 5116 0 0 5128 0 0 5104 0 0 5134 0 0 5030 0 0 5055 0 0 5169 0 0 5166 0 0 5208 0 0 5190 0 0 5101 0 0 4969 0 0 5267 0 0 5183 0 0 5085 0 0 5197 0 0 5023 0 0 2533 0 0 0 0 0 0 0 0 0 0 0 0 0 0 0 0 0 0 0 0 0 0 0 0 0 0 0 0 0 
0 0 0 0 0 0 0 0 0 0 0 0 0 0 0 0 0 0 0 0 0 0 0 0 0 0 0 0 0 0 2516 0 0 5109 0 0 5245 0 0 5059 0 0 5128 0 0 5001 0 0 4969 0 0 5066 0 0 5153 0 0 5102 0 0 5075 0 0 5081 0 0 4944 0 0 4993 0 0 5142 0 0 5199 0 0 5261 0 0 5170 0 0 5030 0 0 5135 0 0 5133 0 0 5120 0 0 5028 0 0 5202 0 0 5111 0 0 5002 0 0 5195 0 0 5069 0 0 5027 0 0 5032 0 0 5144 0 0 5153 0 0 5051 0 0 5220 0 0 5079 0 0 5125 0 0 5069 0 0 5023 0 0 5199 0 0 5057 0 0 2625 0 0 0 0 0 0 0 0 0 0 0 0 0 0 0 0 0 0 0 0 0 0 0 0 0 0 0 0 0 
0 0 0 0 0 0 0 0 0 0 0 0 0 0 0 0 0 0 0 0 0 0 0 0 0 0 0 0 0 0 2516 0 0 5206 0 0 5201 0 0 5065 0 0 5082 0 0 5117 0 0 5150 0 0 5153 0 0 4947 0 0 5082 0 0 5151 0 0 5157 0 0 5079 0 0 5111 0 0 5152 0 0 5040 0 0 5055 0 0 5145 0 0 4972 0 0 5090 0 0 5062 0 0 5215 0 0 5087 0 0 4998 0 0 5113 0 0 5016 0 0 5001 0 0 5039 0 0 5116 0 0 5098 0 0 5053 0 0 5260 0 0 5041 0 0 5054 0 0 5111 0 0 5178 0 0 5134 0 0 5112 0 0 5077 0 0 5088 0 0 2577 0 0 0 0 0 0 0 0 0 0 0 0 0 0 0 0 0 0 0 0 0 0 0 0 0 0 0 0 0 
0 0 0 0 0 0 0 0 0 0 0 0 0 0 0 0 0 0 0 0 0 0 0 0 0 0 0 0 0 0 2534 0 0 4994 0 0 5076 0 0 5151 0 0 5062 0 0 5103 0 0 5048 0 0 5074 0 0 5093 0 0 5070 0 0 5120 0 0 5159 0 0 5020 0 0 5008 0 0 5165 0 0 5029 0 0 5163 0 0 5137 0 0 5082 0 0 5138 0 0 5113 0 0 5084 0 0 5040 0 0 5107 0 0 5110 0 0 4965 0 0 5098 0 0 4984 0 0 5157 0 0 5133 0 0 5079 0 0 5268 0 0 5115 0 0 5055 0 0 5054 0 0 5081 0 0 5109 0 0 5137 0 0 5045 0 0 5150 0 0 2554 0 0 0 0 0 0 0 0 0 0 0 0 0 0 0 0 0 0 0 0 0 0 0 0 0 0 0 0 0 
0 0 0 0 0 0 0 0 0 0 0 0 0 0 0 0 0 0 0 0 0 0 0 0 0 0 0 0 0 0 2469 0 0 4991 0 0 5053 0 0 5086 0 0 5080 0 0 5178 0 0 5091 0 0 5193 0 0 4915 0 0 5205 0 0 5074 0 0 5105 0 0 5070 0 0 5109 0 0 5114 0 0 5098 0 0 5297 0 0 5029 0 0 5116 0 0 5073 0 0 4993 0 0 5096 0 0 5048 0 0 5064 0 0 5127 0 0 5091 0 0 5202 0 0 5090 0 0 4998 0 0 5225 0 0 5159 0 0 5121 0 0 4925 0 0 5114 0 0 5062 0 0 5094 0 0 5111 0 0 5047 0 0 5195 0 0 5136 0 0 2631 0 0 0 0 0 0 0 0 0 0 0 0 0 0 0 0 0 0 0 0 0 0 0 0 0 0 0 0 0 
0 0 0 0 0 0 0 0 0 0 0 0 0 0 0 0 0 0 0 0 0 0 0 0 0 0 0 0 0 0 2481 0 0 5053 0 0 5082 0 0 5196 0 0 4980 0 0 5062 0 0 5117 0 0 5278 0 0 4931 0 0 5165 0 0 5167 0 0 5190 0 0 4998 0 0 5067 0 0 5028 0 0 5104 0 0 5103 0 0 5060 0 0 5116 0 0 5198 0 0 5045 0 0 5036 0 0 5060 0 0 4997 0 0 5068 0 0 5015 0 0 5042 0 0 5098 0 0 5117 0 0 5220 0 0 5038 0 0 5113 0 0 5237 0 0 5012 0 0 5008 0 0 5085 0 0 5089 0 0 5125 0 0 5023 0 0 5159 0 0 2494 0 0 0 0 0 0 0 0 0 0 0 0 0 0 0 0 0 0 0 0 0 0 0 0 0 0 0 0 0 
0 0 0 0 0 0 0 0 0 0 0 0 0 0 0 0 0 0 0 0 0 0 0 0 0 0 0 0 0 0 2628 0 0 5070 0 0 5060 0 0 5074 0 0 5232 0 0 5120 0 0 5083 0 0 5190 0 0 5045 0 0 5228 0 0 5049 0 0 5074 0 0 5137 0 0 5000 0 0 5217 0 0 5082 0 0 5082 0 0 5178 0 0 5004 0 0 5298 0 0 4979 0 0 5032 0 0 5274 0 0 5126 0 0 5034 0 0 5132 0 0 4983 0 0 5105 0 0 5103 0 0 5186 0 0 5133 0 0 5078 0 0 5230 0 0 5156 0 0 5106 0 0 4919 0 0 5046 0 0 5154 0 0 5006 0 0 5094 0 0 2526 0 0 0 0 0 0 0 0 0 0 0 0 0 0 0 0 0 0 0 0 0 0 0 0 0 0 0 0 0 
0 0 0 0 0 0 0 0 0 0 0 0 0 0 0 0 0 0 0 0 0 0 0 0 0 0 0 0 0 0 2538 0 0 5013 0 0 4960 0 0 5120 0 0 4931 0 0 5200 0 0 4988 0 0 5073 0 0 5001 0 0 5153 0 0 5181 0 0 5061 0 0 5150 0 0 5222 0 0 5070 0 0 4997 0 0 5193 0 0 4940 0 0 5089 0 0 5036 0 0 5110 0 0 5010 0 0 5022 0 0 5085 0 0 5059 0 0 5176 0 0 5156 0 0 5139 0 0 5185 0 0 5062 0 0 5045 0 0 5071 0 0 5151 0 0 5095 0 0 5130 0 0 5089 0 0 5182 0 0 5156 0 0 5098 0 0 5244 0 0 2485 0 0 0 0 0 0 0 0 0 0 0 0 0 0 0 0 0 0 0 0 0 0 0 0 0 0 0 0 0 
0 0 0 0 0 0 0 0 0 0 0 0 0 0 0 0 0 0 0 0 0 0 0 0 0 0 0 0 0 0 2557 0 0 5081 0 0 5058 0 0 5127 0 0 5150 0 0 5049 0 0 4990 0 0 5041 0 0 5158 0 0 5074 0 0 5150 0 0 5114 0 0 5113 0 0 4987 0 0 5036 0 0 5099 0 0 5030 0 0 5057 0 0 5173 0 0 5035 0 0 4965 0 0 5176 0 0 5075 0 0 5071 0 0 5121 0 0 5053 0 0 5132 0 0 5017 0 0 5025 0 0 5057 0 0 5169 0 0 5027 0 0 4923 0 0 5076 0 0 5116 0 0 5142 0 0 5209 0 0 5132 0 0 5124 0 0 5003 0 0 2487 0 0 0 0 0 0 0 0 0 0 0 0 0 0 0 0 0 0 0 0 0 0 0 0 0 0 0 0 0 
0 0 0 0 0 0 0 0 0 0 0 0 0 0 0 0 0 0 0 0 0 0 0 0 0 0 0 0 0 0 2560 0 0 5172 0 0 5056 0 0 5100 0 0 5001 0 0 5031 0 0 5166 0 0 5142 0 0 5014 0 0 5006 0 0 5097 0 0 5099 0 0 5293 0 0 5207 0 0 5190 0 0 5124 0 0 5091 0 0 5087 0 0 5032 0 0 5018 0 0 5058 0 0 5134 0 0 5104 0 0 5116 0 0 5116 0 0 5244 0 0 4999 0 0 5199 0 0 5065 0 0 5069 0 0 5200 0 0 4908 0 0 5096 0 0 5111 0 0 5130 0 0 5209 0 0 5094 0 0 5070 0 0 5059 0 0 5027 0 0 2593 0 0 0 0 0 0 0 0 0 0 0 0 0 0 0 0 0 0 0 0 0 0 0 0 0 0 0 0 0 
0 0 0 0 0 0 0 0 0 0 0 0 0 0 0 0 0 0 0 0 0 0 0 0 0 0 0 0 0 0 2543 0 0 4953 0 0 5179 0 0 5061 0 0 5095 0 0 5091 0 0 5020 0 0 5128 0 0 5223 0 0 5294 0 0 5026 0 0 5110 0 0 5151 0 0 5124 0 0 5180 0 0 4998 0 0 4955 0 0 4970 0 0 4920 0 0 4975 0 0 5087 0 0 5110 0 0 5175 0 0 5198 0 0 5110 0 0 5002 0 0 5091 0 0 5309 0 0 5061 0 0 5055 0 0 5075 0 0 5070 0 0 4982 0 0 5004 0 0 5107 0 0 5037 0 0 5173 0 0 5072 0 0 5151 0 0 5089 0 0 2554 0 0 0 0 0 0 0 0 0 0 0 0 0 0 0 0 0 0 0 0 0 0 0 0 0 0 0 0 0 
0 0 0 0 0 0 0 0 0 0 0 0 0 0 0 0 0 0 0 0 0 0 0 0 0 0 0 0 0 0 2585 0 0 5183 0 0 5190 0 0 5038 0 0 5126 0 0 5122 0 0 5121 0 0 5089 0 0 5011 0 0 5090 0 0 5078 0 0 5009 0 0 5108 0 0 5076 0 0 5114 0 0 5162 0 0 5062 0 0 5183 0 0 5107 0 0 5105 0 0 5068 0 0 5041 0 0 5007 0 0 5137 0 0 5123 0 0 5119 0 0 5050 0 0 5132 0 0 5199 0 0 5141 0 0 5132 0 0 5128 0 0 5094 0 0 5182 0 0 4982 0 0 5131 0 0 5076 0 0 5099 0 0 5100 0 0 5221 0 0 2455 0 0 0 0 0 0 0 0 0 0 0 0 0 0 0 0 0 0 0 0 0 0 0 0 0 0 0 0 0 
0 0 0 0 0 0 0 0 0 0 0 0 0 0 0 0 0 0 0 0 0 0 0 0 0 0 0 0 0 0 2575 0 0 5176 0 0 5019 0 0 5135 0 0 5032 0 0 5046 0 0 5105 0 0 5166 0 0 5051 0 0 5217 0 0 5073 0 0 5061 0 0 5051 0 0 5168 0 0 5054 0 0 5083 0 0 5044 0 0 5075 0 0 5006 0 0 4967 0 0 5078 0 0 5148 0 0 5087 0 0 5180 0 0 5060 0 0 5049 0 0 5147 0 0 5110 0 0 5068 0 0 5088 0 0 5224 0 0 5134 0 0 5251 0 0 5185 0 0 5069 0 0 5119 0 0 5109 0 0 5083 0 0 5077 0 0 5090 0 0 2501 0 0 0 0 0 0 0 0 0 0 0 0 0 0 0 0 0 0 0 0 0 0 0 0 0 0 0 0 0 
0 0 0 0 0 0 0 0 0 0 0 0 0 0 0 0 0 0 0 0 0 0 0 0 0 0 0 0 0 0 2555 0 0 5096 0 0 5062 0 0 5063 0 0 5156 0 0 5086 0 0 5105 0 0 5146 0 0 4928 0 0 5144 0 0 5134 0 0 5070 0 0 5115 0 0 5044 0 0 5075 0 0 5021 0 0 5119 0 0 5046 0 0 5099 0 0 5101 0 0 5034 0 0 5208 0 0 5180 0 0 5126 0 0 5093 0 0 5101 0 0 5021 0 0 5132 0 0 5005 0 0 4986 0 0 5128 0 0 5048 0 0 5122 0 0 5151 0 0 5051 0 0 5095 0 0 5148 0 0 5036 0 0 5022 0 0 5215 0 0 2498 0 0 0 0 0 0 0 0 0 0 0 0 0 0 0 0 0 0 0 0 0 0 0 0 0 0 0 0 0 
0 0 0 0 0 0 0 0 0 0 0 0 0 0 0 0 0 0 0 0 0 0 0 0 0 0 0 0 0 0 2603 0 0 5122 0 0 5170 0 0 5068 0 0 5106 0 0 5003 0 0 5078 0 0 5127 0 0 5090 0 0 5182 0 0 5083 0 0 5027 0 0 5143 0 0 5106 0 0 5053 0 0 5123 0 0 5178 0 0 5076 0 0 5181 0 0 5043 0 0 5045 0 0 5007 0 0 5051 0 0 5316 0 0 5013 0 0 5074 0 0 5110 0 0 5153 0 0 5054 0 0 5078 0 0 4990 0 0 5042 0 0 5102 0 0 5110 0 0 5177 0 0 5157 0 0 5030 0 0 5158 0 0 4978 0 0 5114 0 0 2497 0 0 0 0 0 0 0 0 0 0 0 0 0 0 0 0 0 0 0 0 0 0 0 0 0 0 0 0 0 
0 0 0 0 0 0 0 0 0 0 0 0 0 0 0 0 0 0 0 0 0 0 0 0 0 0 0 0 0 0 2571 0 0 4958 0 0 5211 0 0 5029 0 0 5113 0 0 4947 0 0 5138 0 0 5007 0 0 5029 0 0 5000 0 0 5189 0 0 5141 0 0 5091 0 0 5171 0 0 5093 0 0 5118 0 0 5052 0 0 5213 0 0 5086 0 0 5189 0 0 5162 0 0 5025 0 0 5061 0 0 5004 0 0 5056 0 0 5067 0 0 5154 0 0 5100 0 0 5148 0 0 5109 0 0 5187 0 0 5197 0 0 5018 0 0 5051 0 0 5083 0 0 5081 0 0 4961 0 0 5033 0 0 5107 0 0 4922 0 0 2620 0 0 0 0 0 0 0 0 0 0 0 0 0 0 0 0 0 0 0 0 0 0 0 0 0 0 0 0 0 
0 0 0 0 0 0 0 0 0 0 0 0 0 0 0 0 0 0 0 0 0 0 0 0 0 0 0 0 0 0 2540 0 0 5076 0 0 5191 0 0 5132 0 0 4998 0 0 5100 0 0 5104 0 0 5062 0 0 5071 0 0 5110 0 0 5136 0 0 5085 0 0 5082 0 0 5207 0 0 5092 0 0 5060 0 0 4975 0 0 5014 0 0 5099 0 0 5049 0 0 5120 0 0 5122 0 0 5141 0 0 5098 0 0 5094 0 0 5069 0 0 5104 0 0 5234 0 0 5035 0 0 5180 0 0 4962 0 0 5210 0 0 5007 0 0 5109 0 0 5028 0 0 5204 0 0 5149 0 0 5144 0 0 5112 0 0 5145 0 0 2605 0 0 0 0 0 0 0 0 0 0 0 0 0 0 0 0 0 0 0 0 0 0 0 0 0 0 0 0 0 
0 0 0 0 0 0 0 0 0 0 0 0 0 0 0 0 0 0 0 0 0 0 0 0 0 0 0 0 0 0 2514 0 0 5107 0 0 5142 0 0 5139 0 0 5129 0 0 5089 0 0 4996 0 0 5116 0 0 5247 0 0 5206 0 0 5173 0 0 5036 0 0 5023 0 0 5077 0 0 4990 0 0 5188 0 0 4969 0 0 5053 0 0 5114 0 0 5125 0 0 5042 0 0 4943 0 0 5022 0 0 5103 0 0 5188 0 0 5230 0 0 5074 0 0 5017 0 0 5116 0 0 5011 0 0 5051 0 0 5076 0 0 5151 0 0 5096 0 0 5243 0 0 5114 0 0 5092 0 0 5112 0 0 5186 0 0 4830 0 0 2587 0 0 0 0 0 0 0 0 0 0 0 0 0 0 0 0 0 0 0 0 0 0 0 0 0 0 0 0 0 
0 0 0 0 0 0 0 0 0 0 0 0 0 0 0 0 0 0 0 0 0 0 0 0 0 0 0 0 0 0 2649 0 0 5150 0 0 5202 0 0 5037 0 0 5038 0 0 5045 0 0 5073 0 0 5080 0 0 5072 0 0 4963 0 0 5095 0 0 5191 0 0 5124 0 0 5111 0 0 5270 0 0 5160 0 0 5207 0 0 5037 0 0 5103 0 0 5081 0 0 5151 0 0 5095 0 0 5126 0 0 4998 0 0 4978 0 0 5130 0 0 4943 0 0 5081 0 0 5083 0 0 5197 0 0 5078 0 0 5140 0 0 5033 0 0 5057 0 0 5137 0 0 5085 0 0 5169 0 0 5067 0 0 5088 0 0 5033 0 0 2502 0 0 0 0 0 0 0 0 0 0 0 0 0 0 0 0 0 0 0 0 0 0 0 0 0 0 0 0 0 
0 0 0 0 0 0 0 0 0 0 0 0 0 0 0 0 0 0 0 0 0 0 0 0 0 0 0 0 0 0 2542 0 0 5084 0 0 5073 0 0 5074 0 0 5171 0 0 5082 0 0 5082 0 0 5088 0 0 5057 0 0 5167 0 0 5093 0 0 5025 0 0 5078 0 0 5086 0 0 5188 0 0 5125 0 0 5138 0 0 5230 0 0 5098 0 0 5059 0 0 5101 0 0 5084 0 0 5085 0 0 5107 0 0 5095 0 0 5158 0 0 5112 0 0 5067 0 0 5082 0 0 5188 0 0 5051 0 0 5005 0 0 5061 0 0 5177 0 0 5113 0 0 5374 0 0 5143 0 0 5168 0 0 5167 0 0 5102 0 0 2622 0 0 0 0 0 0 0 0 0 0 0 0 0 0 0 0 0 0 0 0 0 0 0 0 0 0 0 0 0 
0 0 0 0 0 0 0 0 0 0 0 0 0 0 0 0 0 0 0 0 0 0 0 0 0 0 0 0 0 0 2546 0 0 5155 0 0 5228 0 0 5124 0 0 5086 0 0 5103 0 0 5157 0 0 5076 0 0 5174 0 0 5062 0 0 5257 0 0 5022 0 0 5122 0 0 5030 0 0 5024 0 0 5083 0 0 5165 0 0 5007 0 0 5090 0 0 5078 0 0 5227 0 0 5201 0 0 4974 0 0 5130 0 0 5148 0 0 5270 0 0 5144 0 0 5107 0 0 5162 0 0 5065 0 0 5041 0 0 5287 0 0 5103 0 0 5089 0 0 5154 0 0 5020 0 0 5046 0 0 5249 0 0 5100 0 0 5056 0 0 2507 0 0 0 0 0 0 0 0 0 0 0 0 0 0 0 0 0 0 0 0 0 0 0 0 0 0 0 0 0 
0 0 0 0 0 0 0 0 0 0 0 0 0 0 0 0 0 0 0 0 0 0 0 0 0 0 0 0 0 0 2519 0 0 5188 0 0 5094 0 0 5083 0 0 5133 0 0 5163 0 0 5149 0 0 5055 0 0 5127 0 0 4976 0 0 5187 0 0 5069 0 0 5146 0 0 5301 0 0 5173 0 0 5030 0 0 4968 0 0 5119 0 0 5073 0 0 5286 0 0 5120 0 0 5156 0 0 5232 0 0 5307 0 0 5098 0 0 5054 0 0 5107 0 0 5253 0 0 5066 0 0 5119 0 0 5083 0 0 4880 0 0 5017 0 0 5085 0 0 5067 0 0 5108 0 0 4973 0 0 5007 0 0 5135 0 0 5042 0 0 2587 0 0 0 0 0 0 0 0 0 0 0 0 0 0 0 0 0 0 0 0 0 0 0 0 0 0 0 0 0 
0 0 0 0 0 0 0 0 0 0 0 0 0 0 0 0 0 0 0 0 0 0 0 0 0 0 0 0 0 0 2519 0 0 5063 0 0 5133 0 0 5090 0 0 5118 0 0 5127 0 0 5171 0 0 5138 0 0 5179 0 0 5072 0 0 5133 0 0 4977 0 0 5155 0 0 5022 0 0 5060 0 0 5112 0 0 5130 0 0 5069 0 0 5320 0 0 5086 0 0 5160 0 0 5172 0 0 5042 0 0 5222 0 0 5211 0 0 5062 0 0 4984 0 0 5032 0 0 5122 0 0 5109 0 0 5240 0 0 4928 0 0 5230 0 0 5037 0 0 5121 0 0 5146 0 0 5150 0 0 5115 0 0 5176 0 0 5109 0 0 2512 0 0 0 0 0 0 0 0 0 0 0 0 0 0 0 0 0 0 0 0 0 0 0 0 0 0 0 0 0 
0 0 0 0 0 0 0 0 0 0 0 0 0 0 0 0 0 0 0 0 0 0 0 0 0 0 0 0 0 0 2637 0 0 5047 0 0 5094 0 0 5012 0 0 5134 0 0 5142 0 0 5153 0 0 5058 0 0 5034 0 0 5178 0 0 5076 0 0 5106 0 0 5104 0 0 5004 0 0 5053 0 0 5133 0 0 5188 0 0 5114 0 0 5089 0 0 5227 0 0 5183 0 0 5126 0 0 5146 0 0 5118 0 0 5099 0 0 5135 0 0 5109 0 0 5192 0 0 5089 0 0 4971 0 0 5135 0 0 5279 0 0 4938 0 0 5050 0 0 5199 0 0 5152 0 0 5057 0 0 4983 0 0 5177 0 0 5283 0 0 2572 0 0 0 0 0 0 0 0 0 0 0 0 0 0 0 0 0 0 0 0 0 0 0 0 0 0 0 0 0 
0 0 0 0 0 0 0 0 0 0 0 0 0 0 0 0 0 0 0 0 0 0 0 0 0 0 0 0 0 0 2488 0 0 5188 0 0 5070 0 0 5132 0 0 5108 0 0 5231 0 0 5029 0 0 5148 0 0 5032 0 0 4963 0 0 5079 0 0 5087 0 0 5177 0 0 5115 0 0 5167 0 0 5046 0 0 5109 0 0 5217 0 0 5204 0 0 5064 0 0 5105 0 0 5111 0 0 5161 0 0 4903 0 0 5033 0 0 5156 0 0 5074 0 0 5069 0 0 5012 0 0 4986 0 0 5154 0 0 5082 0 0 5132 0 0 5209 0 0 5019 0 0 5109 0 0 5139 0 0 4996 0 0 5091 0 0 5029 0 0 2604 0 0 0 0 0 0 0 0 0 0 0 0 0 0 0 0 0 0 0 0 0 0 0 0 0 0 0 0 0 
0 0 0 0 0 0 0 0 0 0 0 0 0 0 0 0 0 0 0 0 0 0 0 0 0 0 0 0 0 0 2547 0 0 5128 0 0 5164 0 0 5126 0 0 5068 0 0 5046 0 0 5067 0 0 5054 0 0 5192 0 0 5257 0 0 5022 0 0 5129 0 0 5165 0 0 5015 0 0 5149 0 0 5150 0 0 5081 0 0 5079 0 0 5091 0 0 5150 0 0 5014 0 0 5035 0 0 5254 0 0 5079 0 0 5037 0 0 5169 0 0 5152 0 0 5107 0 0 5084 0 0 5099 0 0 5066 0 0 5163 0 0 4996 0 0 5192 0 0 4987 0 0 5186 0 0 4947 0 0 4977 0 0 5102 0 0 4981 0 0 2530 0 0 0 0 0 0 0 0 0 0 0 0 0 0 0 0 0 0 0 0 0 0 0 0 0 0 0 0 0 
0 0 0 0 0 0 0 0 0 0 0 0 0 0 0 0 0 0 0 0 0 0 0 0 0 0 0 0 0 0 2583 0 0 5141 0 0 5107 0 0 5184 0 0 5147 0 0 5038 0 0 5163 0 0 5102 0 0 5021 0 0 4982 0 0 5160 0 0 5095 0 0 5062 0 0 5071 0 0 5118 0 0 5077 0 0 4968 0 0 5150 0 0 5186 0 0 5040 0 0 5094 0 0 5071 0 0 5153 0 0 5149 0 0 5136 0 0 5099 0 0 5094 0 0 4999 0 0 5098 0 0 5216 0 0 5130 0 0 5128 0 0 4938 0 0 5085 0 0 5140 0 0 4995 0 0 5055 0 0 5126 0 0 5166 0 0 5220 0 0 2512 0 0 0 0 0 0 0 0 0 0 0 0 0 0 0 0 0 0 0 0 0 0 0 0 0 0 0 0 0 
0 0 0 0 0 0 0 0 0 0 0 0 0 0 0 0 0 0 0 0 0 0 0 0 0 0 0 0 0 0 1343 0 0 2614 0 0 2534 0 0 2571 0 0 2486 0 0 2529 0 0 2492 0 0 2511 0 0 2592 0 0 2542 0 0 2590 0 0 2611 0 0 2561 0 0 2461 0 0 2611 0 0 2554 0 0 2579 0 0 2591 0 0 2712 0 0 2643 0 0 2541 0 0 2635 0 0 2518 0 0 2522 0 0 2572 0 0 2566 0 0 2545 0 0 2527 0 0 2468 0 0 2669 0 0 2563 0 0 2562 0 0 2550 0 0 2501 0 0 2525 0 0 2657 0 0 2579 0 0 2636 0 0 2558 0 0 2644 0 0 1285 0 0 0 0 0 0 0 0 0 0 0 0 0 0 0 0 0 0 0 0 0 0 0 0 0 0 0 0 0 
0 0 0 0 0 0 0 0 0 0 0 0 0 0 0 0 0 0 0 0 0 0 0 0 0 0 0 0 0 0 0 0 0 0 0 0 0 0 0 0 0 0 0 0 0 0 0 0 0 0 0 0 0 0 0 0 0 0 0 0 0 0 0 0 0 0 0 0 0 0 0 0 0 0 0 0 0 0 0 0 0 0 0 0 0 0 0 0 0 0 0 0 0 0 0 0 0 0 0 0 0 0 0 0 0 0 0 0 0 0 0 0 0 0 0 0 0 0 0 0 0 0 0 0 0 0 0 0 0 0 0 0 0 0 0 0 0 0 0 0 0 0 0 0 0 0 0 0 0 0 0 0 0 0 0 0 0 0 0 0 0 0 0 0 0 0 0 0 0 0 0 0 0 0 0 0 0 0 0 0 
0 0 0 0 0 0 0 0 0 0 0 0 0 0 0 0 0 0 0 0 0 0 0 0 0 0 0 0 0 0 0 0 0 0 0 0 0 0 0 0 0 0 0 0 0 0 0 0 0 0 0 0 0 0 0 0 0 0 0 0 0 0 0 0 0 0 0 0 0 0 0 0 0 0 0 0 0 0 0 0 0 0 0 0 0 0 0 0 0 0 0 0 0 0 0 0 0 0 0 0 0 0 0 0 0 0 0 0 0 0 0 0 0 0 0 0 0 0 0 0 0 0 0 0 0 0 0 0 0 0 0 0 0 0 0 0 0 0 0 0 0 0 0 0 0 0 0 0 0 0 0 0 0 0 0 0 0 0 0 0 0 0 0 0 0 0 0 0 0 0 0 0 0 0 0 0 0 0 0 0 
0 0 0 0 0 0 0 0 0 0 0 0 0 0 0 0 0 0 0 0 0 0 0 0 0 0 0 0 0 0 0 0 0 0 0 0 0 0 0 0 0 0 0 0 0 0 0 0 0 0 0 0 0 0 0 0 0 0 0 0 0 0 0 0 0 0 0 0 0 0 0 0 0 0 0 0 0 0 0 0 0 0 0 0 0 0 0 0 0 0 0 0 0 0 0 0 0 0 0 0 0 0 0 0 0 0 0 0 0 0 0 0 0 0 0 0 0 0 0 0 0 0 0 0 0 0 0 0 0 0 0 0 0 0 0 0 0 0 0 0 0 0 0 0 0 0 0 0 0 0 0 0 0 0 0 0 0 0 0 0 0 0 0 0 0 0 0 0 0 0 0 0 0 0 0 0 0 0 0 0 
0 0 0 0 0 0 0 0 0 0 0 0 0 0 0 0 0 0 0 0 0 0 0 0 0 0 0 0 0 0 0 0 0 0 0 0 0 0 0 0 0 0 0 0 0 0 0 0 0 0 0 0 0 0 0 0 0 0 0 0 0 0 0 0 0 0 0 0 0 0 0 0 0 0 0 0 0 0 0 0 0 0 0 0 0 0 0 0 0 0 0 0 0 0 0 0 0 0 0 0 0 0 0 0 0 0 0 0 0 0 0 0 0 0 0 0 0 0 0 0 0 0 0 0 0 0 0 0 0 0 0 0 0 0 0 0 0 0 0 0 0 0 0 0 0 0 0 0 0 0 0 0 0 0 0 0 0 0 0 0 0 0 0 0 0 0 0 0 0 0 0 0 0 0 0 0 0 0 0 0 
0 0 0 0 0 0 0 0 0 0 0 0 0 0 0 0 0 0 0 0 0 0 0 0 0 0 0 0 0 0 0 0 0 0 0 0 0 0 0 0 0 0 0 0 0 0 0 0 0 0 0 0 0 0 0 0 0 0 0 0 0 0 0 0 0 0 0 0 0 0 0 0 0 0 0 0 0 0 0 0 0 0 0 0 0 0 0 0 0 0 0 0 0 0 0 0 0 0 0 0 0 0 0 0 0 0 0 0 0 0 0 0 0 0 0 0 0 0 0 0 0 0 0 0 0 0 0 0 0 0 0 0 0 0 0 0 0 0 0 0 0 0 0 0 0 0 0 0 0 0 0 0 0 0 0 0 0 0 0 0 0 0 0 0 0 0 0 0 0 0 0 0 0 0 0 0 0 0 0 0 
0 0 0 0 0 0 0 0 0 0 0 0 0 0 0 0 0 0 0 0 0 0 0 0 0 0 0 0 0 0 0 0 0 0 0 0 0 0 0 0 0 0 0 0 0 0 0 0 0 0 0 0 0 0 0 0 0 0 0 0 0 0 0 0 0 0 0 0 0 0 0 0 0 0 0 0 0 0 0 0 0 0 0 0 0 0 0 0 0 0 0 0 0 0 0 0 0 0 0 0 0 0 0 0 0 0 0 0 0 0 0 0 0 0 0 0 0 0 0 0 0 0 0 0 0 0 0 0 0 0 0 0 0 0 0 0 0 0 0 0 0 0 0 0 0 0 0 0 0 0 0 0 0 0 0 0 0 0 0 0 0 0 0 0 0 0 0 0 0 0 0 0 0 0 0 0 0 0 0 0 
0 0 0 0 0 0 0 0 0 0 0 0 0 0 0 0 0 0 0 0 0 0 0 0 0 0 0 0 0 0 0 0 0 0 0 0 0 0 0 0 0 0 0 0 0 0 0 0 0 0 0 0 0 0 0 0 0 0 0 0 0 0 0 0 0 0 0 0 0 0 0 0 0 0 0 0 0 0 0 0 0 0 0 0 0 0 0 0 0 0 0 0 0 0 0 0 0 0 0 0 0 0 0 0 0 0 0 0 0 0 0 0 0 0 0 0 0 0 0 0 0 0 0 0 0 0 0 0 0 0 0 0 0 0 0 0 0 0 0 0 0 0 0 0 0 0 0 0 0 0 0 0 0 0 0 0 0 0 0 0 0 0 0 0 0 0 0 0 0 0 0 0 0 0 0 0 0 0 0 0 
0 0 0 0 0 0 0 0 0 0 0 0 0 0 0 0 0 0 0 0 0 0 0 0 0 0 0 0 0 0 0 0 0 0 0 0 0 0 0 0 0 0 0 0 0 0 0 0 0 0 0 0 0 0 0 0 0 0 0 0 0 0 0 0 0 0 0 0 0 0 0 0 0 0 0 0 0 0 0 0 0 0 0 0 0 0 0 0 0 0 0 0 0 0 0 0 0 0 0 0 0 0 0 0 0 0 0 0 0 0 0 0 0 0 0 0 0 0 0 0 0 0 0 0 0 0 0 0 0 0 0 0 0 0 0 0 0 0 0 0 0 0 0 0 0 0 0 0 0 0 0 0 0 0 0 0 0 0 0 0 0 0 0 0 0 0 0 0 0 0 0 0 0 0 0 0 0 0 0 0 
0 0 0 0 0 0 0 0 0 0 0 0 0 0 0 0 0 0 0 0 0 0 0 0 0 0 0 0 0 0 0 0 0 0 0 0 0 0 0 0 0 0 0 0 0 0 0 0 0 0 0 0 0 0 0 0 0 0 0 0 0 0 0 0 0 0 0 0 0 0 0 0 0 0 0 0 0 0 0 0 0 0 0 0 0 0 0 0 0 0 0 0 0 0 0 0 0 0 0 0 0 0 0 0 0 0 0 0 0 0 0 0 0 0 0 0 0 0 0 0 0 0 0 0 0 0 0 0 0 0 0 0 0 0 0 0 0 0 0 0 0 0 0 0 0 0 0 0 0 0 0 0 0 0 0 0 0 0 0 0 0 0 0 0 0 0 0 0 0 0 0 0 0 0 0 0 0 0 0 0 
