P3
# This is a dose file slice at depth 69 of 100
60 60
# now we give the maximum value of the RGB coordinates.
34204
0 0 0 0 0 0 0 0 0 0 0 0 0 0 0 0 0 0 0 0 0 0 0 0 0 0 0 0 0 0 0 0 0 0 0 0 0 0 0 0 0 0 0 0 0 0 0 0 0 0 0 0 0 0 0 0 0 0 0 0 0 0 0 0 0 0 0 0 0 0 0 0 0 0 0 0 0 0 0 0 0 0 0 0 0 0 0 0 0 0 0 0 0 0 0 0 0 0 0 0 0 0 0 0 0 0 0 0 0 0 0 0 0 0 0 0 0 0 0 0 0 0 0 0 0 0 0 0 0 0 0 0 0 0 0 0 0 0 0 0 0 0 0 0 0 0 0 0 0 0 0 0 0 0 0 0 0 0 0 0 0 0 0 0 0 0 0 0 0 0 0 0 0 0 0 0 0 0 0 0 
0 0 0 0 0 0 0 0 0 0 0 0 0 0 0 0 0 0 0 0 0 0 0 0 0 0 0 0 0 0 0 0 0 0 0 0 0 0 0 0 0 0 0 0 0 0 0 0 0 0 0 0 0 0 0 0 0 0 0 0 0 0 0 0 0 0 0 0 0 0 0 0 0 0 0 0 0 0 0 0 0 0 0 0 0 0 0 0 0 0 0 0 0 0 0 0 0 0 0 0 0 0 0 0 0 0 0 0 0 0 0 0 0 0 0 0 0 0 0 0 0 0 0 0 0 0 0 0 0 0 0 0 0 0 0 0 0 0 0 0 0 0 0 0 0 0 0 0 0 0 0 0 0 0 0 0 0 0 0 0 0 0 0 0 0 0 0 0 0 0 0 0 0 0 0 0 0 0 0 0 
0 0 0 0 0 0 0 0 0 0 0 0 0 0 0 0 0 0 0 0 0 0 0 0 0 0 0 0 0 0 0 0 0 0 0 0 0 0 0 0 0 0 0 0 0 0 0 0 0 0 0 0 0 0 0 0 0 0 0 0 0 0 0 0 0 0 0 0 0 0 0 0 0 0 0 0 0 0 0 0 0 0 0 0 0 0 0 0 0 0 0 0 0 0 0 0 0 0 0 0 0 0 0 0 0 0 0 0 0 0 0 0 0 0 0 0 0 0 0 0 0 0 0 0 0 0 0 0 0 0 0 0 0 0 0 0 0 0 0 0 0 0 0 0 0 0 0 0 0 0 0 0 0 0 0 0 0 0 0 0 0 0 0 0 0 0 0 0 0 0 0 0 0 0 0 0 0 0 0 0 
0 0 0 0 0 0 0 0 0 0 0 0 0 0 0 0 0 0 0 0 0 0 0 0 0 0 0 0 0 0 0 0 0 0 0 0 0 0 0 0 0 0 0 0 0 0 0 0 0 0 0 0 0 0 0 0 0 0 0 0 0 0 0 0 0 0 0 0 0 0 0 0 0 0 0 0 0 0 0 0 0 0 0 0 0 0 0 0 0 0 0 0 0 0 0 0 0 0 0 0 0 0 0 0 0 0 0 0 0 0 0 0 0 0 0 0 0 0 0 0 0 0 0 0 0 0 0 0 0 0 0 0 0 0 0 0 0 0 0 0 0 0 0 0 0 0 0 0 0 0 0 0 0 0 0 0 0 0 0 0 0 0 0 0 0 0 0 0 0 0 0 0 0 0 0 0 0 0 0 0 
0 0 0 0 0 0 0 0 0 0 0 0 0 0 0 0 0 0 0 0 0 0 0 0 0 0 0 0 0 0 0 0 0 0 0 0 0 0 0 0 0 0 0 0 0 0 0 0 0 0 0 0 0 0 0 0 0 0 0 0 0 0 0 0 0 0 0 0 0 0 0 0 0 0 0 0 0 0 0 0 0 0 0 0 0 0 0 0 0 0 0 0 0 0 0 0 0 0 0 0 0 0 0 0 0 0 0 0 0 0 0 0 0 0 0 0 0 0 0 0 0 0 0 0 0 0 0 0 0 0 0 0 0 0 0 0 0 0 0 0 0 0 0 0 0 0 0 0 0 0 0 0 0 0 0 0 0 0 0 0 0 0 0 0 0 0 0 0 0 0 0 0 0 0 0 0 0 0 0 0 
0 0 0 0 0 0 0 0 0 0 0 0 0 0 0 0 0 0 0 0 0 0 0 0 0 0 0 0 0 0 0 0 0 0 0 0 0 0 0 0 0 0 0 0 0 0 0 0 0 0 0 0 0 0 0 0 0 0 0 0 0 0 0 0 0 0 0 0 0 0 0 0 0 0 0 0 0 0 0 0 0 0 0 0 0 0 0 0 0 0 0 0 0 0 0 0 0 0 0 0 0 0 0 0 0 0 0 0 0 0 0 0 0 0 0 0 0 0 0 0 0 0 0 0 0 0 0 0 0 0 0 0 0 0 0 0 0 0 0 0 0 0 0 0 0 0 0 0 0 0 0 0 0 0 0 0 0 0 0 0 0 0 0 0 0 0 0 0 0 0 0 0 0 0 0 0 0 0 0 0 
0 0 0 0 0 0 0 0 0 0 0 0 0 0 0 0 0 0 0 0 0 0 0 0 0 0 0 0 0 0 0 0 0 0 0 0 0 0 0 0 0 0 0 0 0 0 0 0 0 0 0 0 0 0 0 0 0 0 0 0 0 0 0 0 0 0 0 0 0 0 0 0 0 0 0 0 0 0 0 0 0 0 0 0 0 0 0 0 0 0 0 0 0 0 0 0 0 0 0 0 0 0 0 0 0 0 0 0 0 0 0 0 0 0 0 0 0 0 0 0 0 0 0 0 0 0 0 0 0 0 0 0 0 0 0 0 0 0 0 0 0 0 0 0 0 0 0 0 0 0 0 0 0 0 0 0 0 0 0 0 0 0 0 0 0 0 0 0 0 0 0 0 0 0 0 0 0 0 0 0 
0 0 0 0 0 0 0 0 0 0 0 0 0 0 0 0 0 0 0 0 0 0 0 0 0 0 0 0 0 0 0 0 0 0 0 0 0 0 0 0 0 0 0 0 0 0 0 0 0 0 0 0 0 0 0 0 0 0 0 0 0 0 0 0 0 0 0 0 0 0 0 0 0 0 0 0 0 0 0 0 0 0 0 0 0 0 0 0 0 0 0 0 0 0 0 0 0 0 0 0 0 0 0 0 0 0 0 0 0 0 0 0 0 0 0 0 0 0 0 0 0 0 0 0 0 0 0 0 0 0 0 0 0 0 0 0 0 0 0 0 0 0 0 0 0 0 0 0 0 0 0 0 0 0 0 0 0 0 0 0 0 0 0 0 0 0 0 0 0 0 0 0 0 0 0 0 0 0 0 0 
0 0 0 0 0 0 0 0 0 0 0 0 0 0 0 0 0 0 0 0 0 0 0 0 0 0 0 0 0 0 0 0 0 0 0 0 0 0 0 0 0 0 0 0 0 0 0 0 0 0 0 0 0 0 0 0 0 0 0 0 0 0 0 0 0 0 0 0 0 0 0 0 0 0 0 0 0 0 0 0 0 0 0 0 0 0 0 0 0 0 0 0 0 0 0 0 0 0 0 0 0 0 0 0 0 0 0 0 0 0 0 0 0 0 0 0 0 0 0 0 0 0 0 0 0 0 0 0 0 0 0 0 0 0 0 0 0 0 0 0 0 0 0 0 0 0 0 0 0 0 0 0 0 0 0 0 0 0 0 0 0 0 0 0 0 0 0 0 0 0 0 0 0 0 0 0 0 0 0 0 
0 0 0 0 0 0 0 0 0 0 0 0 0 0 0 0 0 0 0 0 0 0 0 0 0 0 0 0 0 0 0 0 0 0 0 0 0 0 0 0 0 0 0 0 0 0 0 0 0 0 0 0 0 0 0 0 0 0 0 0 0 0 0 0 0 0 0 0 0 0 0 0 0 0 0 0 0 0 0 0 0 0 0 0 0 0 0 0 0 0 0 0 0 0 0 0 0 0 0 0 0 0 0 0 0 0 0 0 0 0 0 0 0 0 0 0 0 0 0 0 0 0 0 0 0 0 0 0 0 0 0 0 0 0 0 0 0 0 0 0 0 0 0 0 0 0 0 0 0 0 0 0 0 0 0 0 0 0 0 0 0 0 0 0 0 0 0 0 0 0 0 0 0 0 0 0 0 0 0 0 
0 0 0 0 0 0 0 0 0 0 0 0 0 0 0 0 0 0 0 0 0 0 0 0 0 0 0 0 0 0 1197 0 0 2340 0 0 2362 0 0 2335 0 0 2413 0 0 2290 0 0 2376 0 0 2379 0 0 2300 0 0 2302 0 0 2300 0 0 2347 0 0 2356 0 0 2255 0 0 2317 0 0 2359 0 0 2390 0 0 2373 0 0 2335 0 0 2307 0 0 2440 0 0 2259 0 0 2353 0 0 2345 0 0 2360 0 0 2330 0 0 2295 0 0 2369 0 0 2366 0 0 2424 0 0 2383 0 0 2285 0 0 2401 0 0 2415 0 0 2361 0 0 2335 0 0 2282 0 0 2337 0 0 2299 0 0 2243 0 0 1159 0 0 0 0 0 0 0 0 0 0 0 0 0 0 0 0 0 0 0 0 0 0 0 0 0 0 0 0 0 
0 0 0 0 0 0 0 0 0 0 0 0 0 0 0 0 0 0 0 0 0 0 0 0 0 0 0 0 0 0 2420 0 0 4750 0 0 4760 0 0 4712 0 0 4646 0 0 4715 0 0 4742 0 0 4574 0 0 4663 0 0 4720 0 0 4700 0 0 4859 0 0 4803 0 0 4581 0 0 4853 0 0 4831 0 0 4834 0 0 4689 0 0 4808 0 0 4636 0 0 4815 0 0 4760 0 0 4715 0 0 4787 0 0 4619 0 0 4698 0 0 4664 0 0 4669 0 0 4685 0 0 4627 0 0 4714 0 0 4726 0 0 4757 0 0 4673 0 0 4694 0 0 4820 0 0 4662 0 0 4786 0 0 4566 0 0 4637 0 0 2429 0 0 0 0 0 0 0 0 0 0 0 0 0 0 0 0 0 0 0 0 0 0 0 0 0 0 0 0 0 
0 0 0 0 0 0 0 0 0 0 0 0 0 0 0 0 0 0 0 0 0 0 0 0 0 0 0 0 0 0 2368 0 0 4738 0 0 4773 0 0 4593 0 0 4710 0 0 4605 0 0 4675 0 0 4864 0 0 4721 0 0 4545 0 0 4682 0 0 4711 0 0 4792 0 0 4773 0 0 4788 0 0 4703 0 0 4645 0 0 4564 0 0 4653 0 0 4779 0 0 4636 0 0 4756 0 0 4551 0 0 4630 0 0 4799 0 0 4780 0 0 4753 0 0 4697 0 0 4799 0 0 4748 0 0 4664 0 0 4662 0 0 4635 0 0 4696 0 0 4751 0 0 4804 0 0 4698 0 0 4653 0 0 4713 0 0 4693 0 0 2282 0 0 0 0 0 0 0 0 0 0 0 0 0 0 0 0 0 0 0 0 0 0 0 0 0 0 0 0 0 
0 0 0 0 0 0 0 0 0 0 0 0 0 0 0 0 0 0 0 0 0 0 0 0 0 0 0 0 0 0 2283 0 0 4707 0 0 4832 0 0 4621 0 0 4809 0 0 4746 0 0 4758 0 0 4827 0 0 4665 0 0 4719 0 0 4810 0 0 4789 0 0 4745 0 0 4670 0 0 4782 0 0 4789 0 0 4730 0 0 4736 0 0 4709 0 0 4720 0 0 4734 0 0 4696 0 0 4689 0 0 4606 0 0 4705 0 0 4685 0 0 4724 0 0 4784 0 0 4730 0 0 4614 0 0 4731 0 0 4660 0 0 4804 0 0 4614 0 0 4698 0 0 4812 0 0 4651 0 0 4573 0 0 4768 0 0 4662 0 0 2350 0 0 0 0 0 0 0 0 0 0 0 0 0 0 0 0 0 0 0 0 0 0 0 0 0 0 0 0 0 
0 0 0 0 0 0 0 0 0 0 0 0 0 0 0 0 0 0 0 0 0 0 0 0 0 0 0 0 0 0 2332 0 0 4820 0 0 4526 0 0 4723 0 0 4709 0 0 4653 0 0 4698 0 0 4824 0 0 4639 0 0 4770 0 0 4844 0 0 4771 0 0 4740 0 0 4877 0 0 4730 0 0 4835 0 0 4775 0 0 4703 0 0 4668 0 0 4715 0 0 4720 0 0 4793 0 0 4737 0 0 4793 0 0 4812 0 0 4675 0 0 4612 0 0 4753 0 0 4786 0 0 4732 0 0 4783 0 0 4664 0 0 4687 0 0 4711 0 0 4698 0 0 4683 0 0 4665 0 0 4806 0 0 4762 0 0 4706 0 0 2282 0 0 0 0 0 0 0 0 0 0 0 0 0 0 0 0 0 0 0 0 0 0 0 0 0 0 0 0 0 
0 0 0 0 0 0 0 0 0 0 0 0 0 0 0 0 0 0 0 0 0 0 0 0 0 0 0 0 0 0 2308 0 0 4727 0 0 4619 0 0 4697 0 0 4837 0 0 4695 0 0 4702 0 0 4857 0 0 4731 0 0 4752 0 0 4770 0 0 4671 0 0 4885 0 0 4746 0 0 4780 0 0 4793 0 0 4605 0 0 4758 0 0 4787 0 0 4665 0 0 4710 0 0 4770 0 0 4690 0 0 4784 0 0 4631 0 0 4761 0 0 4712 0 0 4625 0 0 4736 0 0 4776 0 0 4752 0 0 4731 0 0 4815 0 0 4834 0 0 4757 0 0 4657 0 0 4661 0 0 4716 0 0 4712 0 0 4747 0 0 2350 0 0 0 0 0 0 0 0 0 0 0 0 0 0 0 0 0 0 0 0 0 0 0 0 0 0 0 0 0 
0 0 0 0 0 0 0 0 0 0 0 0 0 0 0 0 0 0 0 0 0 0 0 0 0 0 0 0 0 0 2388 0 0 4764 0 0 4873 0 0 4773 0 0 4759 0 0 4630 0 0 4758 0 0 4769 0 0 4812 0 0 4632 0 0 4666 0 0 4806 0 0 4753 0 0 4634 0 0 4670 0 0 4691 0 0 4620 0 0 4835 0 0 4622 0 0 4686 0 0 4844 0 0 4780 0 0 4754 0 0 4737 0 0 4701 0 0 4661 0 0 4816 0 0 4652 0 0 4868 0 0 4798 0 0 4727 0 0 4814 0 0 4707 0 0 4627 0 0 4760 0 0 4835 0 0 4660 0 0 4735 0 0 4668 0 0 4756 0 0 2323 0 0 0 0 0 0 0 0 0 0 0 0 0 0 0 0 0 0 0 0 0 0 0 0 0 0 0 0 0 
0 0 0 0 0 0 0 0 0 0 0 0 0 0 0 0 0 0 0 0 0 0 0 0 0 0 0 0 0 0 2418 0 0 4712 0 0 4646 0 0 4779 0 0 4585 0 0 4715 0 0 4813 0 0 4687 0 0 4784 0 0 4758 0 0 4745 0 0 4796 0 0 4677 0 0 4738 0 0 4793 0 0 4632 0 0 4688 0 0 4753 0 0 4919 0 0 4716 0 0 4737 0 0 4664 0 0 4735 0 0 4877 0 0 4803 0 0 4623 0 0 4799 0 0 4750 0 0 4821 0 0 4720 0 0 4654 0 0 4708 0 0 4687 0 0 4635 0 0 4826 0 0 4709 0 0 4793 0 0 4739 0 0 4777 0 0 4701 0 0 2351 0 0 0 0 0 0 0 0 0 0 0 0 0 0 0 0 0 0 0 0 0 0 0 0 0 0 0 0 0 
0 0 0 0 0 0 0 0 0 0 0 0 0 0 0 0 0 0 0 0 0 0 0 0 0 0 0 0 0 0 2353 0 0 4802 0 0 4766 0 0 4748 0 0 4661 0 0 4734 0 0 4760 0 0 4698 0 0 4733 0 0 4715 0 0 4699 0 0 4794 0 0 4645 0 0 4771 0 0 4716 0 0 4743 0 0 4678 0 0 4734 0 0 4755 0 0 4761 0 0 4603 0 0 4829 0 0 4790 0 0 4800 0 0 4754 0 0 4719 0 0 4804 0 0 4767 0 0 4660 0 0 4564 0 0 4729 0 0 4766 0 0 4657 0 0 4720 0 0 4765 0 0 4602 0 0 4794 0 0 4532 0 0 4647 0 0 4760 0 0 2327 0 0 0 0 0 0 0 0 0 0 0 0 0 0 0 0 0 0 0 0 0 0 0 0 0 0 0 0 0 
0 0 0 0 0 0 0 0 0 0 0 0 0 0 0 0 0 0 0 0 0 0 0 0 0 0 0 0 0 0 2392 0 0 4762 0 0 4716 0 0 4748 0 0 4717 0 0 4691 0 0 4773 0 0 4638 0 0 4742 0 0 4772 0 0 4804 0 0 4709 0 0 4859 0 0 4700 0 0 4729 0 0 4837 0 0 4644 0 0 4697 0 0 4789 0 0 4748 0 0 4603 0 0 4710 0 0 4675 0 0 4776 0 0 4739 0 0 4832 0 0 4745 0 0 4714 0 0 4652 0 0 4677 0 0 4656 0 0 4724 0 0 4624 0 0 4618 0 0 4709 0 0 4766 0 0 4812 0 0 4735 0 0 4716 0 0 4690 0 0 2309 0 0 0 0 0 0 0 0 0 0 0 0 0 0 0 0 0 0 0 0 0 0 0 0 0 0 0 0 0 
0 0 0 0 0 0 0 0 0 0 0 0 0 0 0 0 0 0 0 0 0 0 0 0 0 0 0 0 0 0 2393 0 0 4790 0 0 4704 0 0 4702 0 0 4635 0 0 4617 0 0 4659 0 0 4693 0 0 4756 0 0 4675 0 0 4679 0 0 4726 0 0 4681 0 0 4807 0 0 4760 0 0 4814 0 0 4605 0 0 4724 0 0 4739 0 0 4783 0 0 4764 0 0 4689 0 0 4677 0 0 4852 0 0 4610 0 0 4849 0 0 4751 0 0 4777 0 0 4775 0 0 4755 0 0 4661 0 0 4636 0 0 4630 0 0 4746 0 0 4849 0 0 4629 0 0 4731 0 0 4728 0 0 4847 0 0 4609 0 0 2287 0 0 0 0 0 0 0 0 0 0 0 0 0 0 0 0 0 0 0 0 0 0 0 0 0 0 0 0 0 
0 0 0 0 0 0 0 0 0 0 0 0 0 0 0 0 0 0 0 0 0 0 0 0 0 0 0 0 0 0 2246 0 0 4614 0 0 4801 0 0 4624 0 0 4743 0 0 4783 0 0 4703 0 0 4682 0 0 4735 0 0 4807 0 0 4693 0 0 4766 0 0 4734 0 0 4647 0 0 4684 0 0 4641 0 0 4800 0 0 4751 0 0 4711 0 0 4728 0 0 4629 0 0 4711 0 0 4692 0 0 4623 0 0 4699 0 0 4726 0 0 4639 0 0 4654 0 0 4739 0 0 4804 0 0 4623 0 0 4739 0 0 4695 0 0 4704 0 0 4465 0 0 4691 0 0 4733 0 0 4627 0 0 4724 0 0 4608 0 0 2406 0 0 0 0 0 0 0 0 0 0 0 0 0 0 0 0 0 0 0 0 0 0 0 0 0 0 0 0 0 
0 0 0 0 0 0 0 0 0 0 0 0 0 0 0 0 0 0 0 0 0 0 0 0 0 0 0 0 0 0 2354 0 0 4728 0 0 4738 0 0 4681 0 0 4668 0 0 4877 0 0 4730 0 0 4875 0 0 4701 0 0 4740 0 0 4784 0 0 4856 0 0 4599 0 0 4738 0 0 4654 0 0 4743 0 0 4641 0 0 4661 0 0 4675 0 0 4774 0 0 4786 0 0 4737 0 0 4611 0 0 4798 0 0 4898 0 0 4745 0 0 4706 0 0 4671 0 0 4651 0 0 4678 0 0 4788 0 0 4713 0 0 4660 0 0 4700 0 0 4689 0 0 4721 0 0 4674 0 0 4684 0 0 4692 0 0 4722 0 0 2404 0 0 0 0 0 0 0 0 0 0 0 0 0 0 0 0 0 0 0 0 0 0 0 0 0 0 0 0 0 
0 0 0 0 0 0 0 0 0 0 0 0 0 0 0 0 0 0 0 0 0 0 0 0 0 0 0 0 0 0 2361 0 0 4512 0 0 4608 0 0 4800 0 0 4888 0 0 4690 0 0 4757 0 0 4803 0 0 4701 0 0 4629 0 0 4708 0 0 4590 0 0 4691 0 0 4678 0 0 4741 0 0 4644 0 0 4784 0 0 4823 0 0 4623 0 0 4730 0 0 4672 0 0 4602 0 0 4595 0 0 4628 0 0 4691 0 0 4667 0 0 4730 0 0 4629 0 0 4635 0 0 4650 0 0 4689 0 0 4807 0 0 4661 0 0 4763 0 0 4837 0 0 4789 0 0 4765 0 0 4613 0 0 4671 0 0 4801 0 0 2434 0 0 0 0 0 0 0 0 0 0 0 0 0 0 0 0 0 0 0 0 0 0 0 0 0 0 0 0 0 
0 0 0 0 0 0 0 0 0 0 0 0 0 0 0 0 0 0 0 0 0 0 0 0 0 0 0 0 0 0 2364 0 0 4672 0 0 4746 0 0 4766 0 0 4694 0 0 4623 0 0 4675 0 0 4749 0 0 4877 0 0 4703 0 0 4777 0 0 4799 0 0 4791 0 0 4678 0 0 4778 0 0 4768 0 0 4719 0 0 4636 0 0 4824 0 0 4727 0 0 4665 0 0 4681 0 0 4720 0 0 4608 0 0 4637 0 0 4708 0 0 4731 0 0 4636 0 0 4642 0 0 4718 0 0 4719 0 0 4686 0 0 4631 0 0 4865 0 0 4665 0 0 4616 0 0 4714 0 0 4734 0 0 4683 0 0 4788 0 0 2302 0 0 0 0 0 0 0 0 0 0 0 0 0 0 0 0 0 0 0 0 0 0 0 0 0 0 0 0 0 
0 0 0 0 0 0 0 0 0 0 0 0 0 0 0 0 0 0 0 0 0 0 0 0 0 0 0 0 0 0 2322 0 0 4718 0 0 4689 0 0 4713 0 0 4631 0 0 4704 0 0 4722 0 0 4701 0 0 4786 0 0 4706 0 0 4736 0 0 4670 0 0 4809 0 0 4626 0 0 4711 0 0 4665 0 0 4649 0 0 4738 0 0 4670 0 0 4715 0 0 4651 0 0 4750 0 0 4701 0 0 4668 0 0 4767 0 0 4700 0 0 4741 0 0 4697 0 0 4713 0 0 4767 0 0 4822 0 0 4746 0 0 4689 0 0 4696 0 0 4640 0 0 4649 0 0 4676 0 0 4850 0 0 4765 0 0 4707 0 0 2430 0 0 0 0 0 0 0 0 0 0 0 0 0 0 0 0 0 0 0 0 0 0 0 0 0 0 0 0 0 
0 0 0 0 0 0 0 0 0 0 0 0 0 0 0 0 0 0 0 0 0 0 0 0 0 0 0 0 0 0 2368 0 0 4795 0 0 4707 0 0 4788 0 0 4744 0 0 4815 0 0 4699 0 0 4765 0 0 4688 0 0 4748 0 0 4730 0 0 4671 0 0 4824 0 0 4698 0 0 4611 0 0 4651 0 0 4646 0 0 4677 0 0 4612 0 0 4772 0 0 4537 0 0 4639 0 0 4730 0 0 4713 0 0 4696 0 0 4670 0 0 4768 0 0 4755 0 0 4632 0 0 4755 0 0 4776 0 0 4732 0 0 4616 0 0 4758 0 0 4874 0 0 4644 0 0 4677 0 0 4648 0 0 4794 0 0 4894 0 0 2281 0 0 0 0 0 0 0 0 0 0 0 0 0 0 0 0 0 0 0 0 0 0 0 0 0 0 0 0 0 
0 0 0 0 0 0 0 0 0 0 0 0 0 0 0 0 0 0 0 0 0 0 0 0 0 0 0 0 0 0 2287 0 0 4658 0 0 4718 0 0 4662 0 0 4734 0 0 4785 0 0 4725 0 0 4676 0 0 4776 0 0 4710 0 0 4594 0 0 4804 0 0 4726 0 0 4507 0 0 4691 0 0 4803 0 0 4709 0 0 4572 0 0 4714 0 0 4765 0 0 4764 0 0 4645 0 0 4730 0 0 4657 0 0 4672 0 0 4722 0 0 4726 0 0 4720 0 0 4750 0 0 4772 0 0 4769 0 0 4696 0 0 4701 0 0 4716 0 0 4653 0 0 4758 0 0 4803 0 0 4689 0 0 4825 0 0 4698 0 0 2376 0 0 0 0 0 0 0 0 0 0 0 0 0 0 0 0 0 0 0 0 0 0 0 0 0 0 0 0 0 
0 0 0 0 0 0 0 0 0 0 0 0 0 0 0 0 0 0 0 0 0 0 0 0 0 0 0 0 0 0 2405 0 0 4716 0 0 4654 0 0 4795 0 0 4605 0 0 4812 0 0 4608 0 0 4701 0 0 4632 0 0 4805 0 0 4691 0 0 4823 0 0 4890 0 0 4639 0 0 4715 0 0 4626 0 0 4804 0 0 4826 0 0 4707 0 0 4880 0 0 4643 0 0 4638 0 0 4593 0 0 4781 0 0 4678 0 0 4726 0 0 4844 0 0 4614 0 0 4744 0 0 4635 0 0 4735 0 0 4799 0 0 4574 0 0 4645 0 0 4650 0 0 4722 0 0 4718 0 0 4638 0 0 4622 0 0 4720 0 0 2372 0 0 0 0 0 0 0 0 0 0 0 0 0 0 0 0 0 0 0 0 0 0 0 0 0 0 0 0 0 
0 0 0 0 0 0 0 0 0 0 0 0 0 0 0 0 0 0 0 0 0 0 0 0 0 0 0 0 0 0 2331 0 0 4760 0 0 4743 0 0 4768 0 0 4801 0 0 4685 0 0 4813 0 0 4695 0 0 4644 0 0 4593 0 0 4715 0 0 4736 0 0 4683 0 0 4697 0 0 4682 0 0 4789 0 0 4559 0 0 4614 0 0 4658 0 0 4604 0 0 4701 0 0 4809 0 0 4795 0 0 4750 0 0 4804 0 0 4741 0 0 4890 0 0 4634 0 0 4652 0 0 4715 0 0 4640 0 0 4700 0 0 4723 0 0 4811 0 0 4713 0 0 4806 0 0 4709 0 0 4741 0 0 4799 0 0 4750 0 0 2276 0 0 0 0 0 0 0 0 0 0 0 0 0 0 0 0 0 0 0 0 0 0 0 0 0 0 0 0 0 
0 0 0 0 0 0 0 0 0 0 0 0 0 0 0 0 0 0 0 0 0 0 0 0 0 0 0 0 0 0 2353 0 0 4723 0 0 4820 0 0 4591 0 0 4784 0 0 4741 0 0 4819 0 0 4737 0 0 4673 0 0 4723 0 0 4639 0 0 4762 0 0 4673 0 0 4636 0 0 4746 0 0 4710 0 0 4661 0 0 4672 0 0 4628 0 0 4880 0 0 4775 0 0 4604 0 0 4922 0 0 4698 0 0 4902 0 0 4692 0 0 4672 0 0 4577 0 0 4691 0 0 4686 0 0 4687 0 0 4753 0 0 4769 0 0 4771 0 0 4774 0 0 4754 0 0 4715 0 0 4723 0 0 4617 0 0 4745 0 0 2275 0 0 0 0 0 0 0 0 0 0 0 0 0 0 0 0 0 0 0 0 0 0 0 0 0 0 0 0 0 
0 0 0 0 0 0 0 0 0 0 0 0 0 0 0 0 0 0 0 0 0 0 0 0 0 0 0 0 0 0 2489 0 0 4603 0 0 4761 0 0 4780 0 0 4669 0 0 4724 0 0 4703 0 0 4596 0 0 4720 0 0 4842 0 0 4796 0 0 4652 0 0 4758 0 0 4797 0 0 4676 0 0 4684 0 0 4609 0 0 4639 0 0 4813 0 0 4928 0 0 4710 0 0 4800 0 0 4810 0 0 4743 0 0 4681 0 0 4576 0 0 4698 0 0 4684 0 0 4681 0 0 4651 0 0 4790 0 0 4690 0 0 4615 0 0 4654 0 0 4738 0 0 4811 0 0 4726 0 0 4731 0 0 4793 0 0 4754 0 0 2399 0 0 0 0 0 0 0 0 0 0 0 0 0 0 0 0 0 0 0 0 0 0 0 0 0 0 0 0 0 
0 0 0 0 0 0 0 0 0 0 0 0 0 0 0 0 0 0 0 0 0 0 0 0 0 0 0 0 0 0 2335 0 0 4745 0 0 4756 0 0 4706 0 0 4768 0 0 4812 0 0 4635 0 0 4745 0 0 4766 0 0 4609 0 0 4666 0 0 4864 0 0 4750 0 0 4601 0 0 4804 0 0 4737 0 0 4787 0 0 4624 0 0 4709 0 0 4911 0 0 4718 0 0 4750 0 0 4745 0 0 4765 0 0 4633 0 0 4692 0 0 4662 0 0 4657 0 0 4686 0 0 4636 0 0 4919 0 0 4697 0 0 4684 0 0 4794 0 0 4741 0 0 4705 0 0 4671 0 0 4758 0 0 4717 0 0 4627 0 0 2281 0 0 0 0 0 0 0 0 0 0 0 0 0 0 0 0 0 0 0 0 0 0 0 0 0 0 0 0 0 
0 0 0 0 0 0 0 0 0 0 0 0 0 0 0 0 0 0 0 0 0 0 0 0 0 0 0 0 0 0 2503 0 0 4651 0 0 4712 0 0 4699 0 0 4620 0 0 4762 0 0 4843 0 0 4698 0 0 4723 0 0 4752 0 0 4619 0 0 4810 0 0 4728 0 0 4701 0 0 4643 0 0 4756 0 0 4611 0 0 4577 0 0 4683 0 0 4746 0 0 4683 0 0 4628 0 0 4666 0 0 4810 0 0 4733 0 0 4739 0 0 4667 0 0 4776 0 0 4632 0 0 4633 0 0 4780 0 0 4681 0 0 4709 0 0 4848 0 0 4707 0 0 4812 0 0 4739 0 0 4695 0 0 4728 0 0 4665 0 0 2411 0 0 0 0 0 0 0 0 0 0 0 0 0 0 0 0 0 0 0 0 0 0 0 0 0 0 0 0 0 
0 0 0 0 0 0 0 0 0 0 0 0 0 0 0 0 0 0 0 0 0 0 0 0 0 0 0 0 0 0 2387 0 0 4607 0 0 4633 0 0 4796 0 0 4612 0 0 4764 0 0 4696 0 0 4624 0 0 4697 0 0 4837 0 0 4784 0 0 4619 0 0 4709 0 0 4727 0 0 4816 0 0 4751 0 0 4719 0 0 4564 0 0 4835 0 0 4747 0 0 4667 0 0 4612 0 0 4783 0 0 4709 0 0 4651 0 0 4751 0 0 4650 0 0 4634 0 0 4796 0 0 4804 0 0 4696 0 0 4726 0 0 4651 0 0 4738 0 0 4865 0 0 4689 0 0 4708 0 0 4615 0 0 4735 0 0 4733 0 0 2331 0 0 0 0 0 0 0 0 0 0 0 0 0 0 0 0 0 0 0 0 0 0 0 0 0 0 0 0 0 
0 0 0 0 0 0 0 0 0 0 0 0 0 0 0 0 0 0 0 0 0 0 0 0 0 0 0 0 0 0 2297 0 0 4702 0 0 4658 0 0 4628 0 0 4778 0 0 4660 0 0 4705 0 0 4678 0 0 4692 0 0 4630 0 0 4704 0 0 4710 0 0 4782 0 0 4677 0 0 4746 0 0 4682 0 0 4638 0 0 4608 0 0 4676 0 0 4749 0 0 4770 0 0 4615 0 0 4623 0 0 4714 0 0 4651 0 0 4825 0 0 4804 0 0 4684 0 0 4743 0 0 4631 0 0 4790 0 0 4784 0 0 4517 0 0 4825 0 0 4761 0 0 4764 0 0 4652 0 0 4773 0 0 4793 0 0 4590 0 0 2277 0 0 0 0 0 0 0 0 0 0 0 0 0 0 0 0 0 0 0 0 0 0 0 0 0 0 0 0 0 
0 0 0 0 0 0 0 0 0 0 0 0 0 0 0 0 0 0 0 0 0 0 0 0 0 0 0 0 0 0 2388 0 0 4511 0 0 4782 0 0 4711 0 0 4851 0 0 4736 0 0 4661 0 0 4697 0 0 4619 0 0 4707 0 0 4773 0 0 4624 0 0 4697 0 0 4732 0 0 4790 0 0 4643 0 0 4623 0 0 4759 0 0 4714 0 0 4728 0 0 4793 0 0 4630 0 0 4654 0 0 4618 0 0 4779 0 0 4752 0 0 4751 0 0 4681 0 0 4744 0 0 4600 0 0 4680 0 0 4666 0 0 4659 0 0 4721 0 0 4657 0 0 4747 0 0 4697 0 0 4710 0 0 4763 0 0 4740 0 0 2419 0 0 0 0 0 0 0 0 0 0 0 0 0 0 0 0 0 0 0 0 0 0 0 0 0 0 0 0 0 
0 0 0 0 0 0 0 0 0 0 0 0 0 0 0 0 0 0 0 0 0 0 0 0 0 0 0 0 0 0 2264 0 0 4739 0 0 4669 0 0 4701 0 0 4764 0 0 4735 0 0 4835 0 0 4678 0 0 4840 0 0 4677 0 0 4679 0 0 4804 0 0 4725 0 0 4916 0 0 4640 0 0 4719 0 0 4597 0 0 4590 0 0 4713 0 0 4814 0 0 4784 0 0 4673 0 0 4641 0 0 4636 0 0 4847 0 0 4552 0 0 4719 0 0 4661 0 0 4680 0 0 4583 0 0 4734 0 0 4714 0 0 4710 0 0 4745 0 0 4661 0 0 4828 0 0 4623 0 0 4604 0 0 4738 0 0 4687 0 0 2265 0 0 0 0 0 0 0 0 0 0 0 0 0 0 0 0 0 0 0 0 0 0 0 0 0 0 0 0 0 
0 0 0 0 0 0 0 0 0 0 0 0 0 0 0 0 0 0 0 0 0 0 0 0 0 0 0 0 0 0 2358 0 0 4649 0 0 4667 0 0 4715 0 0 4754 0 0 4724 0 0 4698 0 0 4737 0 0 4743 0 0 4744 0 0 4705 0 0 4713 0 0 4753 0 0 4782 0 0 4690 0 0 4789 0 0 4793 0 0 4833 0 0 4669 0 0 4712 0 0 4702 0 0 4633 0 0 4646 0 0 4751 0 0 4729 0 0 4644 0 0 4634 0 0 4766 0 0 4725 0 0 4772 0 0 4626 0 0 4829 0 0 4660 0 0 4691 0 0 4798 0 0 4650 0 0 4652 0 0 4698 0 0 4666 0 0 4618 0 0 2397 0 0 0 0 0 0 0 0 0 0 0 0 0 0 0 0 0 0 0 0 0 0 0 0 0 0 0 0 0 
0 0 0 0 0 0 0 0 0 0 0 0 0 0 0 0 0 0 0 0 0 0 0 0 0 0 0 0 0 0 2383 0 0 4716 0 0 4789 0 0 4712 0 0 4748 0 0 4712 0 0 4683 0 0 4716 0 0 4742 0 0 4848 0 0 4626 0 0 4846 0 0 4664 0 0 4801 0 0 4724 0 0 4744 0 0 4773 0 0 4808 0 0 4655 0 0 4627 0 0 4761 0 0 4621 0 0 4777 0 0 4800 0 0 4611 0 0 4678 0 0 4693 0 0 4924 0 0 4749 0 0 4896 0 0 4689 0 0 4816 0 0 4603 0 0 4790 0 0 4616 0 0 4630 0 0 4654 0 0 4627 0 0 4742 0 0 4724 0 0 2337 0 0 0 0 0 0 0 0 0 0 0 0 0 0 0 0 0 0 0 0 0 0 0 0 0 0 0 0 0 
0 0 0 0 0 0 0 0 0 0 0 0 0 0 0 0 0 0 0 0 0 0 0 0 0 0 0 0 0 0 2394 0 0 4849 0 0 4635 0 0 4673 0 0 4642 0 0 4742 0 0 4717 0 0 4755 0 0 4675 0 0 4785 0 0 4665 0 0 4763 0 0 4638 0 0 4694 0 0 4707 0 0 4616 0 0 4726 0 0 4830 0 0 4721 0 0 4566 0 0 4775 0 0 4625 0 0 4725 0 0 4571 0 0 4734 0 0 4806 0 0 4706 0 0 4693 0 0 4662 0 0 4714 0 0 4602 0 0 4654 0 0 4723 0 0 4806 0 0 4646 0 0 4757 0 0 4745 0 0 4841 0 0 4786 0 0 4642 0 0 2381 0 0 0 0 0 0 0 0 0 0 0 0 0 0 0 0 0 0 0 0 0 0 0 0 0 0 0 0 0 
0 0 0 0 0 0 0 0 0 0 0 0 0 0 0 0 0 0 0 0 0 0 0 0 0 0 0 0 0 0 2312 0 0 4726 0 0 4624 0 0 4748 0 0 4759 0 0 4791 0 0 4842 0 0 4717 0 0 4762 0 0 4718 0 0 4701 0 0 4714 0 0 4710 0 0 4624 0 0 4748 0 0 4723 0 0 4693 0 0 4688 0 0 4741 0 0 4738 0 0 4781 0 0 4804 0 0 4689 0 0 4725 0 0 4775 0 0 4812 0 0 4691 0 0 4648 0 0 4695 0 0 4723 0 0 4732 0 0 4775 0 0 4828 0 0 4740 0 0 4640 0 0 4679 0 0 4817 0 0 4704 0 0 4727 0 0 4801 0 0 2328 0 0 0 0 0 0 0 0 0 0 0 0 0 0 0 0 0 0 0 0 0 0 0 0 0 0 0 0 0 
0 0 0 0 0 0 0 0 0 0 0 0 0 0 0 0 0 0 0 0 0 0 0 0 0 0 0 0 0 0 2369 0 0 4785 0 0 4657 0 0 4661 0 0 4843 0 0 4734 0 0 4731 0 0 4669 0 0 4673 0 0 4636 0 0 4830 0 0 4649 0 0 4780 0 0 4688 0 0 4764 0 0 4850 0 0 4625 0 0 4664 0 0 4730 0 0 4697 0 0 4636 0 0 4658 0 0 4668 0 0 4695 0 0 4768 0 0 4767 0 0 4626 0 0 4838 0 0 4729 0 0 4647 0 0 4583 0 0 4637 0 0 4695 0 0 4719 0 0 4786 0 0 4734 0 0 4703 0 0 4729 0 0 4645 0 0 4728 0 0 2441 0 0 0 0 0 0 0 0 0 0 0 0 0 0 0 0 0 0 0 0 0 0 0 0 0 0 0 0 0 
0 0 0 0 0 0 0 0 0 0 0 0 0 0 0 0 0 0 0 0 0 0 0 0 0 0 0 0 0 0 2280 0 0 4751 0 0 4538 0 0 4715 0 0 4777 0 0 4616 0 0 4692 0 0 4788 0 0 4783 0 0 4773 0 0 4751 0 0 4646 0 0 4805 0 0 4636 0 0 4718 0 0 4784 0 0 4745 0 0 4715 0 0 4748 0 0 4644 0 0 4699 0 0 4702 0 0 4687 0 0 4640 0 0 4758 0 0 4672 0 0 4734 0 0 4812 0 0 4678 0 0 4675 0 0 4816 0 0 4687 0 0 4599 0 0 4705 0 0 4683 0 0 4660 0 0 4758 0 0 4665 0 0 4626 0 0 4712 0 0 2313 0 0 0 0 0 0 0 0 0 0 0 0 0 0 0 0 0 0 0 0 0 0 0 0 0 0 0 0 0 
0 0 0 0 0 0 0 0 0 0 0 0 0 0 0 0 0 0 0 0 0 0 0 0 0 0 0 0 0 0 2332 0 0 4778 0 0 4707 0 0 4720 0 0 4688 0 0 4747 0 0 4750 0 0 4701 0 0 4607 0 0 4688 0 0 4775 0 0 4555 0 0 4632 0 0 4780 0 0 4616 0 0 4590 0 0 4733 0 0 4710 0 0 4756 0 0 4820 0 0 4761 0 0 4687 0 0 4744 0 0 4539 0 0 4650 0 0 4747 0 0 4782 0 0 4793 0 0 4732 0 0 4790 0 0 4608 0 0 4736 0 0 4733 0 0 4627 0 0 4660 0 0 4710 0 0 4672 0 0 4814 0 0 4751 0 0 4720 0 0 2326 0 0 0 0 0 0 0 0 0 0 0 0 0 0 0 0 0 0 0 0 0 0 0 0 0 0 0 0 0 
0 0 0 0 0 0 0 0 0 0 0 0 0 0 0 0 0 0 0 0 0 0 0 0 0 0 0 0 0 0 2335 0 0 4778 0 0 4662 0 0 4671 0 0 4807 0 0 4573 0 0 4696 0 0 4731 0 0 4736 0 0 4681 0 0 4741 0 0 4627 0 0 4810 0 0 4786 0 0 4860 0 0 4748 0 0 4731 0 0 4702 0 0 4699 0 0 4583 0 0 4771 0 0 4683 0 0 4684 0 0 4734 0 0 4720 0 0 4736 0 0 4801 0 0 4638 0 0 4717 0 0 4716 0 0 4729 0 0 4682 0 0 4792 0 0 4652 0 0 4675 0 0 4634 0 0 4696 0 0 4676 0 0 4618 0 0 4590 0 0 2371 0 0 0 0 0 0 0 0 0 0 0 0 0 0 0 0 0 0 0 0 0 0 0 0 0 0 0 0 0 
0 0 0 0 0 0 0 0 0 0 0 0 0 0 0 0 0 0 0 0 0 0 0 0 0 0 0 0 0 0 2392 0 0 4845 0 0 4543 0 0 4759 0 0 4809 0 0 4794 0 0 4696 0 0 4752 0 0 4807 0 0 4669 0 0 4624 0 0 4636 0 0 4832 0 0 4740 0 0 4562 0 0 4743 0 0 4759 0 0 4639 0 0 4773 0 0 4654 0 0 4758 0 0 4717 0 0 4791 0 0 4795 0 0 4721 0 0 4718 0 0 4646 0 0 4859 0 0 4543 0 0 4533 0 0 4696 0 0 4666 0 0 4743 0 0 4815 0 0 4688 0 0 4853 0 0 4740 0 0 4699 0 0 4745 0 0 4585 0 0 2324 0 0 0 0 0 0 0 0 0 0 0 0 0 0 0 0 0 0 0 0 0 0 0 0 0 0 0 0 0 
0 0 0 0 0 0 0 0 0 0 0 0 0 0 0 0 0 0 0 0 0 0 0 0 0 0 0 0 0 0 2306 0 0 4722 0 0 4652 0 0 4679 0 0 4746 0 0 4698 0 0 4747 0 0 4695 0 0 4672 0 0 4754 0 0 4789 0 0 4663 0 0 4771 0 0 4708 0 0 4615 0 0 4739 0 0 4742 0 0 4733 0 0 4674 0 0 4814 0 0 4683 0 0 4722 0 0 4795 0 0 4830 0 0 4787 0 0 4751 0 0 4741 0 0 4795 0 0 4734 0 0 4760 0 0 4719 0 0 4720 0 0 4665 0 0 4762 0 0 4802 0 0 4685 0 0 4691 0 0 4785 0 0 4853 0 0 4729 0 0 2442 0 0 0 0 0 0 0 0 0 0 0 0 0 0 0 0 0 0 0 0 0 0 0 0 0 0 0 0 0 
0 0 0 0 0 0 0 0 0 0 0 0 0 0 0 0 0 0 0 0 0 0 0 0 0 0 0 0 0 0 2356 0 0 4725 0 0 4677 0 0 4711 0 0 4636 0 0 4776 0 0 4676 0 0 4599 0 0 4711 0 0 4668 0 0 4587 0 0 4665 0 0 4574 0 0 4588 0 0 4877 0 0 4724 0 0 4739 0 0 4718 0 0 4754 0 0 4650 0 0 4632 0 0 4706 0 0 4626 0 0 4745 0 0 4684 0 0 4734 0 0 4793 0 0 4566 0 0 4755 0 0 4690 0 0 4727 0 0 4808 0 0 4614 0 0 4717 0 0 4700 0 0 4718 0 0 4818 0 0 4636 0 0 4823 0 0 4585 0 0 2381 0 0 0 0 0 0 0 0 0 0 0 0 0 0 0 0 0 0 0 0 0 0 0 0 0 0 0 0 0 
0 0 0 0 0 0 0 0 0 0 0 0 0 0 0 0 0 0 0 0 0 0 0 0 0 0 0 0 0 0 2369 0 0 4776 0 0 4714 0 0 4711 0 0 4690 0 0 4746 0 0 4679 0 0 4666 0 0 4753 0 0 4634 0 0 4818 0 0 4669 0 0 4744 0 0 4692 0 0 4756 0 0 4674 0 0 4762 0 0 4711 0 0 4711 0 0 4701 0 0 4726 0 0 4633 0 0 4510 0 0 4778 0 0 4899 0 0 4669 0 0 4800 0 0 4660 0 0 4601 0 0 4764 0 0 4649 0 0 4742 0 0 4811 0 0 4683 0 0 4719 0 0 4625 0 0 4720 0 0 4727 0 0 4753 0 0 4686 0 0 2336 0 0 0 0 0 0 0 0 0 0 0 0 0 0 0 0 0 0 0 0 0 0 0 0 0 0 0 0 0 
0 0 0 0 0 0 0 0 0 0 0 0 0 0 0 0 0 0 0 0 0 0 0 0 0 0 0 0 0 0 1212 0 0 2389 0 0 2408 0 0 2463 0 0 2310 0 0 2383 0 0 2349 0 0 2470 0 0 2377 0 0 2354 0 0 2396 0 0 2406 0 0 2424 0 0 2358 0 0 2365 0 0 2359 0 0 2339 0 0 2299 0 0 2274 0 0 2465 0 0 2350 0 0 2330 0 0 2394 0 0 2443 0 0 2407 0 0 2359 0 0 2324 0 0 2383 0 0 2342 0 0 2422 0 0 2409 0 0 2296 0 0 2320 0 0 2421 0 0 2287 0 0 2392 0 0 2523 0 0 2274 0 0 2310 0 0 2352 0 0 1195 0 0 0 0 0 0 0 0 0 0 0 0 0 0 0 0 0 0 0 0 0 0 0 0 0 0 0 0 0 
0 0 0 0 0 0 0 0 0 0 0 0 0 0 0 0 0 0 0 0 0 0 0 0 0 0 0 0 0 0 0 0 0 0 0 0 0 0 0 0 0 0 0 0 0 0 0 0 0 0 0 0 0 0 0 0 0 0 0 0 0 0 0 0 0 0 0 0 0 0 0 0 0 0 0 0 0 0 0 0 0 0 0 0 0 0 0 0 0 0 0 0 0 0 0 0 0 0 0 0 0 0 0 0 0 0 0 0 0 0 0 0 0 0 0 0 0 0 0 0 0 0 0 0 0 0 0 0 0 0 0 0 0 0 0 0 0 0 0 0 0 0 0 0 0 0 0 0 0 0 0 0 0 0 0 0 0 0 0 0 0 0 0 0 0 0 0 0 0 0 0 0 0 0 0 0 0 0 0 0 
0 0 0 0 0 0 0 0 0 0 0 0 0 0 0 0 0 0 0 0 0 0 0 0 0 0 0 0 0 0 0 0 0 0 0 0 0 0 0 0 0 0 0 0 0 0 0 0 0 0 0 0 0 0 0 0 0 0 0 0 0 0 0 0 0 0 0 0 0 0 0 0 0 0 0 0 0 0 0 0 0 0 0 0 0 0 0 0 0 0 0 0 0 0 0 0 0 0 0 0 0 0 0 0 0 0 0 0 0 0 0 0 0 0 0 0 0 0 0 0 0 0 0 0 0 0 0 0 0 0 0 0 0 0 0 0 0 0 0 0 0 0 0 0 0 0 0 0 0 0 0 0 0 0 0 0 0 0 0 0 0 0 0 0 0 0 0 0 0 0 0 0 0 0 0 0 0 0 0 0 
0 0 0 0 0 0 0 0 0 0 0 0 0 0 0 0 0 0 0 0 0 0 0 0 0 0 0 0 0 0 0 0 0 0 0 0 0 0 0 0 0 0 0 0 0 0 0 0 0 0 0 0 0 0 0 0 0 0 0 0 0 0 0 0 0 0 0 0 0 0 0 0 0 0 0 0 0 0 0 0 0 0 0 0 0 0 0 0 0 0 0 0 0 0 0 0 0 0 0 0 0 0 0 0 0 0 0 0 0 0 0 0 0 0 0 0 0 0 0 0 0 0 0 0 0 0 0 0 0 0 0 0 0 0 0 0 0 0 0 0 0 0 0 0 0 0 0 0 0 0 0 0 0 0 0 0 0 0 0 0 0 0 0 0 0 0 0 0 0 0 0 0 0 0 0 0 0 0 0 0 
0 0 0 0 0 0 0 0 0 0 0 0 0 0 0 0 0 0 0 0 0 0 0 0 0 0 0 0 0 0 0 0 0 0 0 0 0 0 0 0 0 0 0 0 0 0 0 0 0 0 0 0 0 0 0 0 0 0 0 0 0 0 0 0 0 0 0 0 0 0 0 0 0 0 0 0 0 0 0 0 0 0 0 0 0 0 0 0 0 0 0 0 0 0 0 0 0 0 0 0 0 0 0 0 0 0 0 0 0 0 0 0 0 0 0 0 0 0 0 0 0 0 0 0 0 0 0 0 0 0 0 0 0 0 0 0 0 0 0 0 0 0 0 0 0 0 0 0 0 0 0 0 0 0 0 0 0 0 0 0 0 0 0 0 0 0 0 0 0 0 0 0 0 0 0 0 0 0 0 0 
0 0 0 0 0 0 0 0 0 0 0 0 0 0 0 0 0 0 0 0 0 0 0 0 0 0 0 0 0 0 0 0 0 0 0 0 0 0 0 0 0 0 0 0 0 0 0 0 0 0 0 0 0 0 0 0 0 0 0 0 0 0 0 0 0 0 0 0 0 0 0 0 0 0 0 0 0 0 0 0 0 0 0 0 0 0 0 0 0 0 0 0 0 0 0 0 0 0 0 0 0 0 0 0 0 0 0 0 0 0 0 0 0 0 0 0 0 0 0 0 0 0 0 0 0 0 0 0 0 0 0 0 0 0 0 0 0 0 0 0 0 0 0 0 0 0 0 0 0 0 0 0 0 0 0 0 0 0 0 0 0 0 0 0 0 0 0 0 0 0 0 0 0 0 0 0 0 0 0 0 
0 0 0 0 0 0 0 0 0 0 0 0 0 0 0 0 0 0 0 0 0 0 0 0 0 0 0 0 0 0 0 0 0 0 0 0 0 0 0 0 0 0 0 0 0 0 0 0 0 0 0 0 0 0 0 0 0 0 0 0 0 0 0 0 0 0 0 0 0 0 0 0 0 0 0 0 0 0 0 0 0 0 0 0 0 0 0 0 0 0 0 0 0 0 0 0 0 0 0 0 0 0 0 0 0 0 0 0 0 0 0 0 0 0 0 0 0 0 0 0 0 0 0 0 0 0 0 0 0 0 0 0 0 0 0 0 0 0 0 0 0 0 0 0 0 0 0 0 0 0 0 0 0 0 0 0 0 0 0 0 0 0 0 0 0 0 0 0 0 0 0 0 0 0 0 0 0 0 0 0 
0 0 0 0 0 0 0 0 0 0 0 0 0 0 0 0 0 0 0 0 0 0 0 0 0 0 0 0 0 0 0 0 0 0 0 0 0 0 0 0 0 0 0 0 0 0 0 0 0 0 0 0 0 0 0 0 0 0 0 0 0 0 0 0 0 0 0 0 0 0 0 0 0 0 0 0 0 0 0 0 0 0 0 0 0 0 0 0 0 0 0 0 0 0 0 0 0 0 0 0 0 0 0 0 0 0 0 0 0 0 0 0 0 0 0 0 0 0 0 0 0 0 0 0 0 0 0 0 0 0 0 0 0 0 0 0 0 0 0 0 0 0 0 0 0 0 0 0 0 0 0 0 0 0 0 0 0 0 0 0 0 0 0 0 0 0 0 0 0 0 0 0 0 0 0 0 0 0 0 0 
0 0 0 0 0 0 0 0 0 0 0 0 0 0 0 0 0 0 0 0 0 0 0 0 0 0 0 0 0 0 0 0 0 0 0 0 0 0 0 0 0 0 0 0 0 0 0 0 0 0 0 0 0 0 0 0 0 0 0 0 0 0 0 0 0 0 0 0 0 0 0 0 0 0 0 0 0 0 0 0 0 0 0 0 0 0 0 0 0 0 0 0 0 0 0 0 0 0 0 0 0 0 0 0 0 0 0 0 0 0 0 0 0 0 0 0 0 0 0 0 0 0 0 0 0 0 0 0 0 0 0 0 0 0 0 0 0 0 0 0 0 0 0 0 0 0 0 0 0 0 0 0 0 0 0 0 0 0 0 0 0 0 0 0 0 0 0 0 0 0 0 0 0 0 0 0 0 0 0 0 
0 0 0 0 0 0 0 0 0 0 0 0 0 0 0 0 0 0 0 0 0 0 0 0 0 0 0 0 0 0 0 0 0 0 0 0 0 0 0 0 0 0 0 0 0 0 0 0 0 0 0 0 0 0 0 0 0 0 0 0 0 0 0 0 0 0 0 0 0 0 0 0 0 0 0 0 0 0 0 0 0 0 0 0 0 0 0 0 0 0 0 0 0 0 0 0 0 0 0 0 0 0 0 0 0 0 0 0 0 0 0 0 0 0 0 0 0 0 0 0 0 0 0 0 0 0 0 0 0 0 0 0 0 0 0 0 0 0 0 0 0 0 0 0 0 0 0 0 0 0 0 0 0 0 0 0 0 0 0 0 0 0 0 0 0 0 0 0 0 0 0 0 0 0 0 0 0 0 0 0 
