P3
# This is a dose file slice at depth 35 of 100
60 60
# now we give the maximum value of the RGB coordinates.
34204
0 0 0 0 0 0 0 0 0 0 0 0 0 0 0 0 0 0 0 0 0 0 0 0 0 0 0 0 0 0 0 0 0 0 0 0 0 0 0 0 0 0 0 0 0 0 0 0 0 0 0 0 0 0 0 0 0 0 0 0 0 0 0 0 0 0 0 0 0 0 0 0 0 0 0 0 0 0 0 0 0 0 0 0 0 0 0 0 0 0 0 0 0 0 0 0 0 0 0 0 0 0 0 0 0 0 0 0 0 0 0 0 0 0 0 0 0 0 0 0 0 0 0 0 0 0 0 0 0 0 0 0 0 0 0 0 0 0 0 0 0 0 0 0 0 0 0 0 0 0 0 0 0 0 0 0 0 0 0 0 0 0 0 0 0 0 0 0 0 0 0 0 0 0 0 0 0 0 0 0 
0 0 0 0 0 0 0 0 0 0 0 0 0 0 0 0 0 0 0 0 0 0 0 0 0 0 0 0 0 0 0 0 0 0 0 0 0 0 0 0 0 0 0 0 0 0 0 0 0 0 0 0 0 0 0 0 0 0 0 0 0 0 0 0 0 0 0 0 0 0 0 0 0 0 0 0 0 0 0 0 0 0 0 0 0 0 0 0 0 0 0 0 0 0 0 0 0 0 0 0 0 0 0 0 0 0 0 0 0 0 0 0 0 0 0 0 0 0 0 0 0 0 0 0 0 0 0 0 0 0 0 0 0 0 0 0 0 0 0 0 0 0 0 0 0 0 0 0 0 0 0 0 0 0 0 0 0 0 0 0 0 0 0 0 0 0 0 0 0 0 0 0 0 0 0 0 0 0 0 0 
0 0 0 0 0 0 0 0 0 0 0 0 0 0 0 0 0 0 0 0 0 0 0 0 0 0 0 0 0 0 0 0 0 0 0 0 0 0 0 0 0 0 0 0 0 0 0 0 0 0 0 0 0 0 0 0 0 0 0 0 0 0 0 0 0 0 0 0 0 0 0 0 0 0 0 0 0 0 0 0 0 0 0 0 0 0 0 0 0 0 0 0 0 0 0 0 0 0 0 0 0 0 0 0 0 0 0 0 0 0 0 0 0 0 0 0 0 0 0 0 0 0 0 0 0 0 0 0 0 0 0 0 0 0 0 0 0 0 0 0 0 0 0 0 0 0 0 0 0 0 0 0 0 0 0 0 0 0 0 0 0 0 0 0 0 0 0 0 0 0 0 0 0 0 0 0 0 0 0 0 
0 0 0 0 0 0 0 0 0 0 0 0 0 0 0 0 0 0 0 0 0 0 0 0 0 0 0 0 0 0 0 0 0 0 0 0 0 0 0 0 0 0 0 0 0 0 0 0 0 0 0 0 0 0 0 0 0 0 0 0 0 0 0 0 0 0 0 0 0 0 0 0 0 0 0 0 0 0 0 0 0 0 0 0 0 0 0 0 0 0 0 0 0 0 0 0 0 0 0 0 0 0 0 0 0 0 0 0 0 0 0 0 0 0 0 0 0 0 0 0 0 0 0 0 0 0 0 0 0 0 0 0 0 0 0 0 0 0 0 0 0 0 0 0 0 0 0 0 0 0 0 0 0 0 0 0 0 0 0 0 0 0 0 0 0 0 0 0 0 0 0 0 0 0 0 0 0 0 0 0 
0 0 0 0 0 0 0 0 0 0 0 0 0 0 0 0 0 0 0 0 0 0 0 0 0 0 0 0 0 0 0 0 0 0 0 0 0 0 0 0 0 0 0 0 0 0 0 0 0 0 0 0 0 0 0 0 0 0 0 0 0 0 0 0 0 0 0 0 0 0 0 0 0 0 0 0 0 0 0 0 0 0 0 0 0 0 0 0 0 0 0 0 0 0 0 0 0 0 0 0 0 0 0 0 0 0 0 0 0 0 0 0 0 0 0 0 0 0 0 0 0 0 0 0 0 0 0 0 0 0 0 0 0 0 0 0 0 0 0 0 0 0 0 0 0 0 0 0 0 0 0 0 0 0 0 0 0 0 0 0 0 0 0 0 0 0 0 0 0 0 0 0 0 0 0 0 0 0 0 0 
0 0 0 0 0 0 0 0 0 0 0 0 0 0 0 0 0 0 0 0 0 0 0 0 0 0 0 0 0 0 0 0 0 0 0 0 0 0 0 0 0 0 0 0 0 0 0 0 0 0 0 0 0 0 0 0 0 0 0 0 0 0 0 0 0 0 0 0 0 0 0 0 0 0 0 0 0 0 0 0 0 0 0 0 0 0 0 0 0 0 0 0 0 0 0 0 0 0 0 0 0 0 0 0 0 0 0 0 0 0 0 0 0 0 0 0 0 0 0 0 0 0 0 0 0 0 0 0 0 0 0 0 0 0 0 0 0 0 0 0 0 0 0 0 0 0 0 0 0 0 0 0 0 0 0 0 0 0 0 0 0 0 0 0 0 0 0 0 0 0 0 0 0 0 0 0 0 0 0 0 
0 0 0 0 0 0 0 0 0 0 0 0 0 0 0 0 0 0 0 0 0 0 0 0 0 0 0 0 0 0 0 0 0 0 0 0 0 0 0 0 0 0 0 0 0 0 0 0 0 0 0 0 0 0 0 0 0 0 0 0 0 0 0 0 0 0 0 0 0 0 0 0 0 0 0 0 0 0 0 0 0 0 0 0 0 0 0 0 0 0 0 0 0 0 0 0 0 0 0 0 0 0 0 0 0 0 0 0 0 0 0 0 0 0 0 0 0 0 0 0 0 0 0 0 0 0 0 0 0 0 0 0 0 0 0 0 0 0 0 0 0 0 0 0 0 0 0 0 0 0 0 0 0 0 0 0 0 0 0 0 0 0 0 0 0 0 0 0 0 0 0 0 0 0 0 0 0 0 0 0 
0 0 0 0 0 0 0 0 0 0 0 0 0 0 0 0 0 0 0 0 0 0 0 0 0 0 0 0 0 0 0 0 0 0 0 0 0 0 0 0 0 0 0 0 0 0 0 0 0 0 0 0 0 0 0 0 0 0 0 0 0 0 0 0 0 0 0 0 0 0 0 0 0 0 0 0 0 0 0 0 0 0 0 0 0 0 0 0 0 0 0 0 0 0 0 0 0 0 0 0 0 0 0 0 0 0 0 0 0 0 0 0 0 0 0 0 0 0 0 0 0 0 0 0 0 0 0 0 0 0 0 0 0 0 0 0 0 0 0 0 0 0 0 0 0 0 0 0 0 0 0 0 0 0 0 0 0 0 0 0 0 0 0 0 0 0 0 0 0 0 0 0 0 0 0 0 0 0 0 0 
0 0 0 0 0 0 0 0 0 0 0 0 0 0 0 0 0 0 0 0 0 0 0 0 0 0 0 0 0 0 0 0 0 0 0 0 0 0 0 0 0 0 0 0 0 0 0 0 0 0 0 0 0 0 0 0 0 0 0 0 0 0 0 0 0 0 0 0 0 0 0 0 0 0 0 0 0 0 0 0 0 0 0 0 0 0 0 0 0 0 0 0 0 0 0 0 0 0 0 0 0 0 0 0 0 0 0 0 0 0 0 0 0 0 0 0 0 0 0 0 0 0 0 0 0 0 0 0 0 0 0 0 0 0 0 0 0 0 0 0 0 0 0 0 0 0 0 0 0 0 0 0 0 0 0 0 0 0 0 0 0 0 0 0 0 0 0 0 0 0 0 0 0 0 0 0 0 0 0 0 
0 0 0 0 0 0 0 0 0 0 0 0 0 0 0 0 0 0 0 0 0 0 0 0 0 0 0 0 0 0 0 0 0 0 0 0 0 0 0 0 0 0 0 0 0 0 0 0 0 0 0 0 0 0 0 0 0 0 0 0 0 0 0 0 0 0 0 0 0 0 0 0 0 0 0 0 0 0 0 0 0 0 0 0 0 0 0 0 0 0 0 0 0 0 0 0 0 0 0 0 0 0 0 0 0 0 0 0 0 0 0 0 0 0 0 0 0 0 0 0 0 0 0 0 0 0 0 0 0 0 0 0 0 0 0 0 0 0 0 0 0 0 0 0 0 0 0 0 0 0 0 0 0 0 0 0 0 0 0 0 0 0 0 0 0 0 0 0 0 0 0 0 0 0 0 0 0 0 0 0 
0 0 0 0 0 0 0 0 0 0 0 0 0 0 0 0 0 0 0 0 0 0 0 0 0 0 0 0 0 0 2920 0 0 5926 0 0 5891 0 0 5968 0 0 5937 0 0 5993 0 0 5799 0 0 6063 0 0 5946 0 0 5938 0 0 5945 0 0 5921 0 0 5913 0 0 5945 0 0 5985 0 0 5955 0 0 5883 0 0 5984 0 0 6027 0 0 5883 0 0 6010 0 0 6005 0 0 5720 0 0 6024 0 0 5990 0 0 6082 0 0 5923 0 0 5928 0 0 6112 0 0 5831 0 0 5936 0 0 5938 0 0 5865 0 0 5981 0 0 5873 0 0 5866 0 0 5800 0 0 5933 0 0 5888 0 0 5896 0 0 2966 0 0 0 0 0 0 0 0 0 0 0 0 0 0 0 0 0 0 0 0 0 0 0 0 0 0 0 0 0 
0 0 0 0 0 0 0 0 0 0 0 0 0 0 0 0 0 0 0 0 0 0 0 0 0 0 0 0 0 0 5900 0 0 11725 0 0 12006 0 0 11717 0 0 11960 0 0 11993 0 0 11871 0 0 11861 0 0 11984 0 0 11753 0 0 11816 0 0 11962 0 0 11946 0 0 11709 0 0 11915 0 0 11920 0 0 11784 0 0 11906 0 0 11978 0 0 11739 0 0 11924 0 0 11988 0 0 11707 0 0 12103 0 0 11859 0 0 11892 0 0 11833 0 0 12065 0 0 11684 0 0 11772 0 0 11859 0 0 11996 0 0 12055 0 0 11798 0 0 11860 0 0 11934 0 0 12060 0 0 12008 0 0 11909 0 0 11938 0 0 5917 0 0 0 0 0 0 0 0 0 0 0 0 0 0 0 0 0 0 0 0 0 0 0 0 0 0 0 0 0 
0 0 0 0 0 0 0 0 0 0 0 0 0 0 0 0 0 0 0 0 0 0 0 0 0 0 0 0 0 0 6017 0 0 11811 0 0 11783 0 0 11903 0 0 11844 0 0 11912 0 0 11821 0 0 12016 0 0 11824 0 0 11899 0 0 11882 0 0 11947 0 0 11950 0 0 11998 0 0 11885 0 0 11730 0 0 11831 0 0 11912 0 0 11923 0 0 11867 0 0 11972 0 0 11792 0 0 11666 0 0 11855 0 0 11955 0 0 11886 0 0 11911 0 0 11998 0 0 11979 0 0 11856 0 0 12020 0 0 11845 0 0 12132 0 0 11771 0 0 11784 0 0 12082 0 0 11883 0 0 12064 0 0 11909 0 0 11824 0 0 5858 0 0 0 0 0 0 0 0 0 0 0 0 0 0 0 0 0 0 0 0 0 0 0 0 0 0 0 0 0 
0 0 0 0 0 0 0 0 0 0 0 0 0 0 0 0 0 0 0 0 0 0 0 0 0 0 0 0 0 0 5932 0 0 11857 0 0 11705 0 0 11845 0 0 12044 0 0 11780 0 0 11916 0 0 11829 0 0 11835 0 0 12038 0 0 11748 0 0 11984 0 0 11877 0 0 11856 0 0 11874 0 0 11946 0 0 12067 0 0 11814 0 0 12055 0 0 11777 0 0 12070 0 0 11953 0 0 11832 0 0 11908 0 0 11657 0 0 11972 0 0 11796 0 0 12023 0 0 12012 0 0 12063 0 0 11874 0 0 11946 0 0 11813 0 0 12139 0 0 11845 0 0 11783 0 0 11809 0 0 12063 0 0 11899 0 0 12126 0 0 5867 0 0 0 0 0 0 0 0 0 0 0 0 0 0 0 0 0 0 0 0 0 0 0 0 0 0 0 0 0 
0 0 0 0 0 0 0 0 0 0 0 0 0 0 0 0 0 0 0 0 0 0 0 0 0 0 0 0 0 0 5884 0 0 11894 0 0 11936 0 0 11833 0 0 11890 0 0 11754 0 0 11714 0 0 12053 0 0 11924 0 0 12091 0 0 12093 0 0 11853 0 0 11814 0 0 11951 0 0 11969 0 0 11997 0 0 11881 0 0 11833 0 0 11959 0 0 11917 0 0 11871 0 0 11818 0 0 11615 0 0 11710 0 0 12014 0 0 12109 0 0 11904 0 0 11844 0 0 11646 0 0 11906 0 0 11805 0 0 11766 0 0 11772 0 0 11807 0 0 11903 0 0 11805 0 0 11817 0 0 11872 0 0 11828 0 0 11865 0 0 5920 0 0 0 0 0 0 0 0 0 0 0 0 0 0 0 0 0 0 0 0 0 0 0 0 0 0 0 0 0 
0 0 0 0 0 0 0 0 0 0 0 0 0 0 0 0 0 0 0 0 0 0 0 0 0 0 0 0 0 0 5809 0 0 11995 0 0 11755 0 0 11648 0 0 11801 0 0 12033 0 0 12014 0 0 11697 0 0 11843 0 0 11742 0 0 11683 0 0 11909 0 0 11770 0 0 11582 0 0 11822 0 0 12010 0 0 11945 0 0 11926 0 0 11838 0 0 11901 0 0 11883 0 0 12015 0 0 11708 0 0 12026 0 0 11824 0 0 11678 0 0 11935 0 0 11691 0 0 11793 0 0 12108 0 0 11749 0 0 11886 0 0 11914 0 0 11845 0 0 11834 0 0 12062 0 0 11995 0 0 11906 0 0 12076 0 0 11898 0 0 5836 0 0 0 0 0 0 0 0 0 0 0 0 0 0 0 0 0 0 0 0 0 0 0 0 0 0 0 0 0 
0 0 0 0 0 0 0 0 0 0 0 0 0 0 0 0 0 0 0 0 0 0 0 0 0 0 0 0 0 0 6016 0 0 11769 0 0 11893 0 0 11804 0 0 11732 0 0 12117 0 0 11959 0 0 11996 0 0 11960 0 0 11772 0 0 11809 0 0 11968 0 0 11850 0 0 11635 0 0 11836 0 0 11759 0 0 11980 0 0 12043 0 0 11920 0 0 11905 0 0 11980 0 0 11733 0 0 11803 0 0 11906 0 0 11724 0 0 11828 0 0 11929 0 0 11780 0 0 11815 0 0 11848 0 0 11932 0 0 11755 0 0 11825 0 0 11752 0 0 11829 0 0 11951 0 0 11786 0 0 11940 0 0 11977 0 0 11925 0 0 6024 0 0 0 0 0 0 0 0 0 0 0 0 0 0 0 0 0 0 0 0 0 0 0 0 0 0 0 0 0 
0 0 0 0 0 0 0 0 0 0 0 0 0 0 0 0 0 0 0 0 0 0 0 0 0 0 0 0 0 0 5990 0 0 11763 0 0 11778 0 0 11904 0 0 11966 0 0 11935 0 0 11919 0 0 11908 0 0 11656 0 0 11802 0 0 11876 0 0 11981 0 0 11797 0 0 11590 0 0 11754 0 0 11899 0 0 11933 0 0 11942 0 0 11854 0 0 11776 0 0 11678 0 0 11929 0 0 11848 0 0 11964 0 0 11905 0 0 11985 0 0 11812 0 0 11966 0 0 11834 0 0 11861 0 0 11853 0 0 11888 0 0 11763 0 0 11957 0 0 11934 0 0 11987 0 0 11746 0 0 11977 0 0 11797 0 0 12147 0 0 5878 0 0 0 0 0 0 0 0 0 0 0 0 0 0 0 0 0 0 0 0 0 0 0 0 0 0 0 0 0 
0 0 0 0 0 0 0 0 0 0 0 0 0 0 0 0 0 0 0 0 0 0 0 0 0 0 0 0 0 0 5908 0 0 11952 0 0 12174 0 0 11866 0 0 11970 0 0 12017 0 0 12193 0 0 11809 0 0 11881 0 0 11561 0 0 12113 0 0 11850 0 0 11595 0 0 11853 0 0 11828 0 0 11798 0 0 11871 0 0 11900 0 0 11898 0 0 11817 0 0 11869 0 0 11882 0 0 11822 0 0 11962 0 0 12029 0 0 11846 0 0 11848 0 0 11867 0 0 11758 0 0 11814 0 0 11935 0 0 11980 0 0 12178 0 0 11762 0 0 11842 0 0 11860 0 0 12086 0 0 12050 0 0 11895 0 0 11985 0 0 5873 0 0 0 0 0 0 0 0 0 0 0 0 0 0 0 0 0 0 0 0 0 0 0 0 0 0 0 0 0 
0 0 0 0 0 0 0 0 0 0 0 0 0 0 0 0 0 0 0 0 0 0 0 0 0 0 0 0 0 0 5969 0 0 11877 0 0 11892 0 0 11944 0 0 12040 0 0 11715 0 0 12039 0 0 11767 0 0 11935 0 0 11988 0 0 11970 0 0 11773 0 0 11993 0 0 11948 0 0 11895 0 0 11966 0 0 11794 0 0 11902 0 0 12067 0 0 11916 0 0 11743 0 0 11833 0 0 11955 0 0 11860 0 0 11926 0 0 11938 0 0 11782 0 0 11937 0 0 11929 0 0 11883 0 0 11900 0 0 11780 0 0 11828 0 0 11852 0 0 11823 0 0 11860 0 0 11812 0 0 11871 0 0 11840 0 0 11872 0 0 5857 0 0 0 0 0 0 0 0 0 0 0 0 0 0 0 0 0 0 0 0 0 0 0 0 0 0 0 0 0 
0 0 0 0 0 0 0 0 0 0 0 0 0 0 0 0 0 0 0 0 0 0 0 0 0 0 0 0 0 0 6003 0 0 11782 0 0 11917 0 0 11955 0 0 11632 0 0 12006 0 0 11760 0 0 11907 0 0 11577 0 0 11916 0 0 11883 0 0 11702 0 0 11867 0 0 11836 0 0 11756 0 0 11862 0 0 11826 0 0 11813 0 0 11790 0 0 11903 0 0 11778 0 0 12000 0 0 12043 0 0 12075 0 0 11814 0 0 11849 0 0 11874 0 0 11883 0 0 11698 0 0 11947 0 0 12077 0 0 11961 0 0 11787 0 0 11995 0 0 11866 0 0 11922 0 0 11807 0 0 11752 0 0 11901 0 0 11882 0 0 5908 0 0 0 0 0 0 0 0 0 0 0 0 0 0 0 0 0 0 0 0 0 0 0 0 0 0 0 0 0 
0 0 0 0 0 0 0 0 0 0 0 0 0 0 0 0 0 0 0 0 0 0 0 0 0 0 0 0 0 0 5781 0 0 11977 0 0 11909 0 0 11767 0 0 11925 0 0 11836 0 0 11980 0 0 12102 0 0 11795 0 0 11805 0 0 11996 0 0 11921 0 0 11863 0 0 11795 0 0 11817 0 0 11791 0 0 11971 0 0 11890 0 0 11921 0 0 11805 0 0 11901 0 0 11805 0 0 11911 0 0 11859 0 0 12193 0 0 11815 0 0 11865 0 0 11932 0 0 11786 0 0 11771 0 0 11830 0 0 11972 0 0 11945 0 0 11960 0 0 12106 0 0 11789 0 0 11752 0 0 12085 0 0 11766 0 0 11670 0 0 5974 0 0 0 0 0 0 0 0 0 0 0 0 0 0 0 0 0 0 0 0 0 0 0 0 0 0 0 0 0 
0 0 0 0 0 0 0 0 0 0 0 0 0 0 0 0 0 0 0 0 0 0 0 0 0 0 0 0 0 0 5984 0 0 11886 0 0 12066 0 0 11743 0 0 11838 0 0 11827 0 0 11850 0 0 11846 0 0 12033 0 0 11963 0 0 11849 0 0 11855 0 0 11994 0 0 11828 0 0 12076 0 0 11811 0 0 11955 0 0 11848 0 0 12063 0 0 12015 0 0 12015 0 0 11663 0 0 11967 0 0 11722 0 0 12028 0 0 11791 0 0 11963 0 0 11816 0 0 11688 0 0 11853 0 0 11721 0 0 11922 0 0 11788 0 0 11906 0 0 12006 0 0 11917 0 0 11869 0 0 11943 0 0 11911 0 0 11822 0 0 6031 0 0 0 0 0 0 0 0 0 0 0 0 0 0 0 0 0 0 0 0 0 0 0 0 0 0 0 0 0 
0 0 0 0 0 0 0 0 0 0 0 0 0 0 0 0 0 0 0 0 0 0 0 0 0 0 0 0 0 0 5983 0 0 12035 0 0 12011 0 0 11971 0 0 11960 0 0 11711 0 0 11996 0 0 11913 0 0 11847 0 0 11744 0 0 11879 0 0 11908 0 0 11837 0 0 11974 0 0 12102 0 0 11883 0 0 11764 0 0 11806 0 0 11983 0 0 11877 0 0 12056 0 0 11968 0 0 11687 0 0 11862 0 0 12087 0 0 11857 0 0 11875 0 0 11868 0 0 12027 0 0 11997 0 0 11848 0 0 11884 0 0 11886 0 0 11815 0 0 12012 0 0 11678 0 0 11737 0 0 11858 0 0 11870 0 0 11779 0 0 5940 0 0 0 0 0 0 0 0 0 0 0 0 0 0 0 0 0 0 0 0 0 0 0 0 0 0 0 0 0 
0 0 0 0 0 0 0 0 0 0 0 0 0 0 0 0 0 0 0 0 0 0 0 0 0 0 0 0 0 0 5823 0 0 11768 0 0 11791 0 0 11952 0 0 11902 0 0 11964 0 0 11886 0 0 12202 0 0 11907 0 0 11823 0 0 12043 0 0 12027 0 0 11888 0 0 11817 0 0 11802 0 0 11867 0 0 11870 0 0 11713 0 0 11999 0 0 11871 0 0 11895 0 0 11788 0 0 11916 0 0 11860 0 0 11861 0 0 12071 0 0 11813 0 0 11735 0 0 11689 0 0 11792 0 0 11836 0 0 11720 0 0 11723 0 0 11937 0 0 11808 0 0 12021 0 0 11980 0 0 11768 0 0 11893 0 0 11846 0 0 5843 0 0 0 0 0 0 0 0 0 0 0 0 0 0 0 0 0 0 0 0 0 0 0 0 0 0 0 0 0 
0 0 0 0 0 0 0 0 0 0 0 0 0 0 0 0 0 0 0 0 0 0 0 0 0 0 0 0 0 0 5921 0 0 11938 0 0 11658 0 0 11861 0 0 11725 0 0 11789 0 0 11688 0 0 11887 0 0 12039 0 0 11959 0 0 11828 0 0 11902 0 0 12002 0 0 11834 0 0 11793 0 0 11878 0 0 11932 0 0 11895 0 0 11723 0 0 11996 0 0 11948 0 0 12000 0 0 12192 0 0 12019 0 0 12122 0 0 11890 0 0 11972 0 0 11970 0 0 11952 0 0 11624 0 0 11951 0 0 11816 0 0 11900 0 0 11862 0 0 11796 0 0 11885 0 0 11861 0 0 11893 0 0 11826 0 0 11996 0 0 5819 0 0 0 0 0 0 0 0 0 0 0 0 0 0 0 0 0 0 0 0 0 0 0 0 0 0 0 0 0 
0 0 0 0 0 0 0 0 0 0 0 0 0 0 0 0 0 0 0 0 0 0 0 0 0 0 0 0 0 0 5958 0 0 11796 0 0 12019 0 0 11788 0 0 12067 0 0 11872 0 0 12192 0 0 11906 0 0 11851 0 0 11746 0 0 12021 0 0 11932 0 0 11890 0 0 11951 0 0 12041 0 0 11798 0 0 11823 0 0 12018 0 0 11969 0 0 11922 0 0 11984 0 0 11728 0 0 11947 0 0 11847 0 0 11879 0 0 11960 0 0 11784 0 0 12192 0 0 11820 0 0 11938 0 0 12043 0 0 11815 0 0 11799 0 0 11922 0 0 11828 0 0 11600 0 0 11991 0 0 11812 0 0 11615 0 0 11454 0 0 5939 0 0 0 0 0 0 0 0 0 0 0 0 0 0 0 0 0 0 0 0 0 0 0 0 0 0 0 0 0 
0 0 0 0 0 0 0 0 0 0 0 0 0 0 0 0 0 0 0 0 0 0 0 0 0 0 0 0 0 0 5846 0 0 11719 0 0 12016 0 0 11882 0 0 11841 0 0 11815 0 0 11925 0 0 11789 0 0 11926 0 0 12015 0 0 11887 0 0 11691 0 0 11960 0 0 11910 0 0 11857 0 0 11845 0 0 11872 0 0 11845 0 0 11858 0 0 12098 0 0 11890 0 0 11824 0 0 11715 0 0 11907 0 0 11921 0 0 11918 0 0 11729 0 0 11748 0 0 11922 0 0 11947 0 0 11885 0 0 11946 0 0 11973 0 0 11908 0 0 11960 0 0 11945 0 0 11791 0 0 12154 0 0 11782 0 0 11880 0 0 5972 0 0 0 0 0 0 0 0 0 0 0 0 0 0 0 0 0 0 0 0 0 0 0 0 0 0 0 0 0 
0 0 0 0 0 0 0 0 0 0 0 0 0 0 0 0 0 0 0 0 0 0 0 0 0 0 0 0 0 0 6011 0 0 11843 0 0 11838 0 0 12014 0 0 11835 0 0 12121 0 0 12031 0 0 11894 0 0 11886 0 0 11903 0 0 11973 0 0 11745 0 0 11947 0 0 11703 0 0 11894 0 0 11995 0 0 11667 0 0 11734 0 0 11965 0 0 12026 0 0 11802 0 0 11844 0 0 11922 0 0 11801 0 0 11940 0 0 11919 0 0 11816 0 0 11872 0 0 12002 0 0 11752 0 0 11914 0 0 11889 0 0 11994 0 0 11865 0 0 11907 0 0 11905 0 0 11848 0 0 11979 0 0 11842 0 0 11912 0 0 6031 0 0 0 0 0 0 0 0 0 0 0 0 0 0 0 0 0 0 0 0 0 0 0 0 0 0 0 0 0 
0 0 0 0 0 0 0 0 0 0 0 0 0 0 0 0 0 0 0 0 0 0 0 0 0 0 0 0 0 0 5791 0 0 11943 0 0 11798 0 0 11976 0 0 11992 0 0 11783 0 0 11658 0 0 12075 0 0 11942 0 0 11870 0 0 11841 0 0 11851 0 0 11948 0 0 11873 0 0 11797 0 0 11738 0 0 11793 0 0 11691 0 0 11950 0 0 11838 0 0 11859 0 0 11798 0 0 11874 0 0 11780 0 0 12052 0 0 11992 0 0 11829 0 0 11754 0 0 12057 0 0 11838 0 0 11988 0 0 11862 0 0 11907 0 0 11718 0 0 11869 0 0 11890 0 0 11930 0 0 11753 0 0 12078 0 0 11839 0 0 6003 0 0 0 0 0 0 0 0 0 0 0 0 0 0 0 0 0 0 0 0 0 0 0 0 0 0 0 0 0 
0 0 0 0 0 0 0 0 0 0 0 0 0 0 0 0 0 0 0 0 0 0 0 0 0 0 0 0 0 0 5882 0 0 11896 0 0 11999 0 0 11884 0 0 11991 0 0 11918 0 0 11716 0 0 11746 0 0 11742 0 0 11809 0 0 11961 0 0 11725 0 0 11897 0 0 11887 0 0 11763 0 0 11938 0 0 12066 0 0 12090 0 0 11830 0 0 11720 0 0 11843 0 0 12079 0 0 11979 0 0 12005 0 0 11928 0 0 11771 0 0 11878 0 0 11759 0 0 11887 0 0 11912 0 0 11979 0 0 12043 0 0 11779 0 0 11801 0 0 11848 0 0 12208 0 0 11796 0 0 11789 0 0 11802 0 0 12055 0 0 5927 0 0 0 0 0 0 0 0 0 0 0 0 0 0 0 0 0 0 0 0 0 0 0 0 0 0 0 0 0 
0 0 0 0 0 0 0 0 0 0 0 0 0 0 0 0 0 0 0 0 0 0 0 0 0 0 0 0 0 0 6005 0 0 11807 0 0 11984 0 0 11787 0 0 11839 0 0 12042 0 0 11957 0 0 11976 0 0 11866 0 0 11990 0 0 11935 0 0 12051 0 0 11770 0 0 11686 0 0 11989 0 0 11841 0 0 11634 0 0 12156 0 0 12084 0 0 11938 0 0 11814 0 0 11906 0 0 11784 0 0 11957 0 0 11916 0 0 11884 0 0 12047 0 0 12097 0 0 11773 0 0 12037 0 0 11935 0 0 11825 0 0 11933 0 0 11943 0 0 11852 0 0 11884 0 0 11807 0 0 11963 0 0 11942 0 0 11815 0 0 6033 0 0 0 0 0 0 0 0 0 0 0 0 0 0 0 0 0 0 0 0 0 0 0 0 0 0 0 0 0 
0 0 0 0 0 0 0 0 0 0 0 0 0 0 0 0 0 0 0 0 0 0 0 0 0 0 0 0 0 0 5925 0 0 11725 0 0 11774 0 0 11798 0 0 11896 0 0 11652 0 0 11803 0 0 11892 0 0 11831 0 0 11862 0 0 11853 0 0 11996 0 0 11866 0 0 11759 0 0 11862 0 0 12088 0 0 11873 0 0 11914 0 0 11805 0 0 11646 0 0 11810 0 0 12045 0 0 11853 0 0 11961 0 0 11889 0 0 11878 0 0 11941 0 0 11827 0 0 11977 0 0 12040 0 0 11874 0 0 11873 0 0 11967 0 0 11863 0 0 12131 0 0 11704 0 0 12050 0 0 11954 0 0 11862 0 0 11868 0 0 5909 0 0 0 0 0 0 0 0 0 0 0 0 0 0 0 0 0 0 0 0 0 0 0 0 0 0 0 0 0 
0 0 0 0 0 0 0 0 0 0 0 0 0 0 0 0 0 0 0 0 0 0 0 0 0 0 0 0 0 0 6102 0 0 11844 0 0 11720 0 0 11798 0 0 12040 0 0 11962 0 0 11956 0 0 11831 0 0 12004 0 0 11681 0 0 11838 0 0 11994 0 0 11631 0 0 12000 0 0 12100 0 0 11887 0 0 11777 0 0 12089 0 0 11821 0 0 11860 0 0 11814 0 0 11947 0 0 11818 0 0 11797 0 0 11778 0 0 11761 0 0 11860 0 0 11709 0 0 11698 0 0 11811 0 0 11824 0 0 11949 0 0 11937 0 0 11919 0 0 11897 0 0 11838 0 0 11738 0 0 11739 0 0 11701 0 0 11850 0 0 5974 0 0 0 0 0 0 0 0 0 0 0 0 0 0 0 0 0 0 0 0 0 0 0 0 0 0 0 0 0 
0 0 0 0 0 0 0 0 0 0 0 0 0 0 0 0 0 0 0 0 0 0 0 0 0 0 0 0 0 0 5927 0 0 12076 0 0 11995 0 0 11929 0 0 11857 0 0 11816 0 0 11872 0 0 11802 0 0 11964 0 0 11919 0 0 11841 0 0 11879 0 0 11837 0 0 12013 0 0 11823 0 0 11880 0 0 11882 0 0 11766 0 0 11880 0 0 11975 0 0 12058 0 0 12072 0 0 11863 0 0 11828 0 0 11942 0 0 11822 0 0 11809 0 0 11836 0 0 11788 0 0 11800 0 0 11659 0 0 12001 0 0 11992 0 0 11799 0 0 11781 0 0 11856 0 0 11962 0 0 11863 0 0 11818 0 0 11942 0 0 5905 0 0 0 0 0 0 0 0 0 0 0 0 0 0 0 0 0 0 0 0 0 0 0 0 0 0 0 0 0 
0 0 0 0 0 0 0 0 0 0 0 0 0 0 0 0 0 0 0 0 0 0 0 0 0 0 0 0 0 0 5908 0 0 12030 0 0 11945 0 0 11854 0 0 12097 0 0 11971 0 0 12096 0 0 12022 0 0 11838 0 0 11815 0 0 12014 0 0 11947 0 0 11796 0 0 11722 0 0 11736 0 0 11798 0 0 12075 0 0 11831 0 0 11930 0 0 11697 0 0 11788 0 0 11544 0 0 11851 0 0 11853 0 0 11976 0 0 11789 0 0 11967 0 0 11708 0 0 12031 0 0 12008 0 0 11797 0 0 11979 0 0 11969 0 0 11806 0 0 11771 0 0 11696 0 0 11714 0 0 11980 0 0 11661 0 0 12052 0 0 5940 0 0 0 0 0 0 0 0 0 0 0 0 0 0 0 0 0 0 0 0 0 0 0 0 0 0 0 0 0 
0 0 0 0 0 0 0 0 0 0 0 0 0 0 0 0 0 0 0 0 0 0 0 0 0 0 0 0 0 0 5962 0 0 11871 0 0 11825 0 0 11791 0 0 11858 0 0 11750 0 0 11738 0 0 11840 0 0 11771 0 0 12035 0 0 11769 0 0 11965 0 0 11757 0 0 11997 0 0 11878 0 0 11991 0 0 11822 0 0 11808 0 0 11774 0 0 11797 0 0 11877 0 0 12039 0 0 11712 0 0 11721 0 0 11890 0 0 11878 0 0 11790 0 0 11864 0 0 11704 0 0 11968 0 0 11772 0 0 11870 0 0 11685 0 0 12135 0 0 11986 0 0 11907 0 0 11697 0 0 11806 0 0 11952 0 0 11844 0 0 5895 0 0 0 0 0 0 0 0 0 0 0 0 0 0 0 0 0 0 0 0 0 0 0 0 0 0 0 0 0 
0 0 0 0 0 0 0 0 0 0 0 0 0 0 0 0 0 0 0 0 0 0 0 0 0 0 0 0 0 0 5860 0 0 12064 0 0 11788 0 0 11784 0 0 11956 0 0 11875 0 0 11954 0 0 11831 0 0 12026 0 0 11787 0 0 11662 0 0 12032 0 0 11861 0 0 11882 0 0 11934 0 0 11892 0 0 11986 0 0 12062 0 0 12017 0 0 11914 0 0 12017 0 0 11757 0 0 11882 0 0 11839 0 0 11627 0 0 11838 0 0 11843 0 0 12026 0 0 11879 0 0 11910 0 0 11742 0 0 11792 0 0 11801 0 0 11803 0 0 11749 0 0 11924 0 0 11865 0 0 11853 0 0 11633 0 0 11989 0 0 5959 0 0 0 0 0 0 0 0 0 0 0 0 0 0 0 0 0 0 0 0 0 0 0 0 0 0 0 0 0 
0 0 0 0 0 0 0 0 0 0 0 0 0 0 0 0 0 0 0 0 0 0 0 0 0 0 0 0 0 0 5945 0 0 11934 0 0 11853 0 0 11636 0 0 11765 0 0 11853 0 0 11834 0 0 11814 0 0 11964 0 0 11903 0 0 11808 0 0 11912 0 0 11765 0 0 11847 0 0 12005 0 0 11924 0 0 12067 0 0 11965 0 0 11797 0 0 11931 0 0 12000 0 0 11930 0 0 11942 0 0 11891 0 0 11935 0 0 11988 0 0 11805 0 0 11915 0 0 11893 0 0 11931 0 0 11939 0 0 11847 0 0 11852 0 0 11771 0 0 11753 0 0 11827 0 0 11862 0 0 11776 0 0 11750 0 0 11812 0 0 6083 0 0 0 0 0 0 0 0 0 0 0 0 0 0 0 0 0 0 0 0 0 0 0 0 0 0 0 0 0 
0 0 0 0 0 0 0 0 0 0 0 0 0 0 0 0 0 0 0 0 0 0 0 0 0 0 0 0 0 0 6020 0 0 11811 0 0 11961 0 0 11938 0 0 11996 0 0 11954 0 0 12062 0 0 12035 0 0 11967 0 0 11850 0 0 11800 0 0 11753 0 0 11969 0 0 12005 0 0 11748 0 0 11813 0 0 11873 0 0 11978 0 0 11863 0 0 11905 0 0 11830 0 0 11914 0 0 11815 0 0 11922 0 0 11880 0 0 11939 0 0 11840 0 0 11901 0 0 11933 0 0 11925 0 0 11910 0 0 11893 0 0 11924 0 0 11971 0 0 12073 0 0 12070 0 0 12065 0 0 11980 0 0 12021 0 0 11780 0 0 5899 0 0 0 0 0 0 0 0 0 0 0 0 0 0 0 0 0 0 0 0 0 0 0 0 0 0 0 0 0 
0 0 0 0 0 0 0 0 0 0 0 0 0 0 0 0 0 0 0 0 0 0 0 0 0 0 0 0 0 0 5936 0 0 11868 0 0 12106 0 0 11851 0 0 11848 0 0 11859 0 0 11856 0 0 11721 0 0 11830 0 0 11888 0 0 11919 0 0 11778 0 0 12037 0 0 11955 0 0 12119 0 0 11840 0 0 11897 0 0 11581 0 0 12172 0 0 12014 0 0 12112 0 0 11759 0 0 11715 0 0 11849 0 0 11596 0 0 11996 0 0 11926 0 0 12115 0 0 11960 0 0 11992 0 0 11786 0 0 11898 0 0 11869 0 0 11829 0 0 12008 0 0 11960 0 0 11796 0 0 11943 0 0 12048 0 0 11994 0 0 5967 0 0 0 0 0 0 0 0 0 0 0 0 0 0 0 0 0 0 0 0 0 0 0 0 0 0 0 0 0 
0 0 0 0 0 0 0 0 0 0 0 0 0 0 0 0 0 0 0 0 0 0 0 0 0 0 0 0 0 0 6045 0 0 11932 0 0 12028 0 0 11765 0 0 11998 0 0 11984 0 0 11920 0 0 11910 0 0 11961 0 0 12188 0 0 11835 0 0 12105 0 0 11957 0 0 11779 0 0 11709 0 0 12002 0 0 11858 0 0 11911 0 0 11813 0 0 11971 0 0 11845 0 0 11799 0 0 12012 0 0 11634 0 0 11857 0 0 11943 0 0 11885 0 0 11979 0 0 11898 0 0 11851 0 0 11812 0 0 11921 0 0 11886 0 0 11814 0 0 11858 0 0 11943 0 0 11897 0 0 11796 0 0 11767 0 0 11799 0 0 5973 0 0 0 0 0 0 0 0 0 0 0 0 0 0 0 0 0 0 0 0 0 0 0 0 0 0 0 0 0 
0 0 0 0 0 0 0 0 0 0 0 0 0 0 0 0 0 0 0 0 0 0 0 0 0 0 0 0 0 0 5949 0 0 11872 0 0 11876 0 0 11776 0 0 11681 0 0 11895 0 0 12048 0 0 11799 0 0 11910 0 0 12001 0 0 12022 0 0 11908 0 0 12009 0 0 11826 0 0 12005 0 0 11958 0 0 11980 0 0 11838 0 0 11990 0 0 11940 0 0 12048 0 0 11789 0 0 11658 0 0 11804 0 0 11586 0 0 11727 0 0 11869 0 0 11895 0 0 11876 0 0 12114 0 0 11978 0 0 11757 0 0 11924 0 0 11755 0 0 11868 0 0 11943 0 0 11768 0 0 11843 0 0 11998 0 0 11882 0 0 5849 0 0 0 0 0 0 0 0 0 0 0 0 0 0 0 0 0 0 0 0 0 0 0 0 0 0 0 0 0 
0 0 0 0 0 0 0 0 0 0 0 0 0 0 0 0 0 0 0 0 0 0 0 0 0 0 0 0 0 0 6053 0 0 11857 0 0 11961 0 0 11764 0 0 11885 0 0 11932 0 0 11855 0 0 12005 0 0 11984 0 0 11842 0 0 11828 0 0 11940 0 0 12096 0 0 11807 0 0 11815 0 0 11990 0 0 11881 0 0 11952 0 0 11823 0 0 11922 0 0 11930 0 0 11900 0 0 11958 0 0 11909 0 0 11763 0 0 11868 0 0 11979 0 0 11866 0 0 11938 0 0 11842 0 0 11907 0 0 11829 0 0 11971 0 0 11973 0 0 11929 0 0 11815 0 0 12015 0 0 11882 0 0 11852 0 0 11859 0 0 6013 0 0 0 0 0 0 0 0 0 0 0 0 0 0 0 0 0 0 0 0 0 0 0 0 0 0 0 0 0 
0 0 0 0 0 0 0 0 0 0 0 0 0 0 0 0 0 0 0 0 0 0 0 0 0 0 0 0 0 0 5917 0 0 11584 0 0 11704 0 0 11797 0 0 11820 0 0 11978 0 0 11782 0 0 11975 0 0 11827 0 0 11787 0 0 11929 0 0 11795 0 0 11797 0 0 11752 0 0 12000 0 0 11743 0 0 11853 0 0 11791 0 0 11855 0 0 11933 0 0 12002 0 0 11747 0 0 11582 0 0 11780 0 0 11901 0 0 11946 0 0 11897 0 0 11952 0 0 11907 0 0 12021 0 0 11874 0 0 11836 0 0 11682 0 0 11793 0 0 11695 0 0 11986 0 0 11849 0 0 11950 0 0 11912 0 0 11975 0 0 5863 0 0 0 0 0 0 0 0 0 0 0 0 0 0 0 0 0 0 0 0 0 0 0 0 0 0 0 0 0 
0 0 0 0 0 0 0 0 0 0 0 0 0 0 0 0 0 0 0 0 0 0 0 0 0 0 0 0 0 0 5953 0 0 12033 0 0 11877 0 0 11739 0 0 11845 0 0 11937 0 0 11802 0 0 11935 0 0 11919 0 0 11774 0 0 11810 0 0 11962 0 0 11940 0 0 12171 0 0 11933 0 0 11836 0 0 11916 0 0 11844 0 0 11763 0 0 11925 0 0 11828 0 0 11916 0 0 11795 0 0 11902 0 0 11792 0 0 11823 0 0 11765 0 0 11858 0 0 11901 0 0 11952 0 0 11830 0 0 11823 0 0 11983 0 0 11812 0 0 11940 0 0 11824 0 0 11774 0 0 11978 0 0 11800 0 0 11875 0 0 6010 0 0 0 0 0 0 0 0 0 0 0 0 0 0 0 0 0 0 0 0 0 0 0 0 0 0 0 0 0 
0 0 0 0 0 0 0 0 0 0 0 0 0 0 0 0 0 0 0 0 0 0 0 0 0 0 0 0 0 0 5944 0 0 11856 0 0 11775 0 0 11725 0 0 11971 0 0 11980 0 0 12003 0 0 11773 0 0 11848 0 0 11770 0 0 11852 0 0 11928 0 0 11843 0 0 12034 0 0 11987 0 0 11935 0 0 12085 0 0 11647 0 0 11858 0 0 11848 0 0 11764 0 0 11992 0 0 12074 0 0 11844 0 0 11777 0 0 11798 0 0 11945 0 0 11849 0 0 12039 0 0 12100 0 0 11812 0 0 11805 0 0 11929 0 0 11929 0 0 11960 0 0 11700 0 0 11977 0 0 11816 0 0 11886 0 0 11987 0 0 5948 0 0 0 0 0 0 0 0 0 0 0 0 0 0 0 0 0 0 0 0 0 0 0 0 0 0 0 0 0 
0 0 0 0 0 0 0 0 0 0 0 0 0 0 0 0 0 0 0 0 0 0 0 0 0 0 0 0 0 0 5962 0 0 12026 0 0 11832 0 0 11744 0 0 12150 0 0 11959 0 0 12018 0 0 11967 0 0 11897 0 0 11755 0 0 11643 0 0 11756 0 0 11831 0 0 12058 0 0 11777 0 0 11917 0 0 11861 0 0 11954 0 0 11913 0 0 11732 0 0 12095 0 0 11851 0 0 11705 0 0 11949 0 0 11899 0 0 11854 0 0 12037 0 0 11993 0 0 11829 0 0 12008 0 0 11936 0 0 11847 0 0 11919 0 0 11944 0 0 11946 0 0 11998 0 0 11895 0 0 12003 0 0 11895 0 0 11754 0 0 5927 0 0 0 0 0 0 0 0 0 0 0 0 0 0 0 0 0 0 0 0 0 0 0 0 0 0 0 0 0 
0 0 0 0 0 0 0 0 0 0 0 0 0 0 0 0 0 0 0 0 0 0 0 0 0 0 0 0 0 0 5986 0 0 12079 0 0 11943 0 0 11998 0 0 11660 0 0 11793 0 0 11695 0 0 11939 0 0 11888 0 0 11817 0 0 11860 0 0 11971 0 0 11908 0 0 11924 0 0 12074 0 0 11811 0 0 11929 0 0 11954 0 0 11764 0 0 11898 0 0 12205 0 0 11909 0 0 11869 0 0 11915 0 0 11869 0 0 12073 0 0 11952 0 0 11854 0 0 11976 0 0 11728 0 0 11801 0 0 11966 0 0 11945 0 0 12092 0 0 11966 0 0 11681 0 0 11971 0 0 11972 0 0 11763 0 0 11860 0 0 5981 0 0 0 0 0 0 0 0 0 0 0 0 0 0 0 0 0 0 0 0 0 0 0 0 0 0 0 0 0 
0 0 0 0 0 0 0 0 0 0 0 0 0 0 0 0 0 0 0 0 0 0 0 0 0 0 0 0 0 0 5913 0 0 11915 0 0 11834 0 0 11951 0 0 12043 0 0 12016 0 0 11959 0 0 12000 0 0 11973 0 0 11876 0 0 11782 0 0 11613 0 0 11959 0 0 12119 0 0 11745 0 0 11850 0 0 11844 0 0 11866 0 0 11850 0 0 11765 0 0 11710 0 0 11785 0 0 11895 0 0 11834 0 0 11810 0 0 11740 0 0 12033 0 0 11777 0 0 11876 0 0 11924 0 0 11801 0 0 11792 0 0 11884 0 0 11919 0 0 11932 0 0 11846 0 0 11807 0 0 11873 0 0 11948 0 0 11937 0 0 5941 0 0 0 0 0 0 0 0 0 0 0 0 0 0 0 0 0 0 0 0 0 0 0 0 0 0 0 0 0 
0 0 0 0 0 0 0 0 0 0 0 0 0 0 0 0 0 0 0 0 0 0 0 0 0 0 0 0 0 0 2912 0 0 5953 0 0 5840 0 0 6118 0 0 5893 0 0 6147 0 0 5916 0 0 5834 0 0 6000 0 0 5937 0 0 5984 0 0 6094 0 0 6037 0 0 5916 0 0 5914 0 0 6055 0 0 5951 0 0 5880 0 0 5956 0 0 5840 0 0 5960 0 0 5892 0 0 5942 0 0 5970 0 0 6021 0 0 6067 0 0 5959 0 0 5952 0 0 5846 0 0 5860 0 0 5918 0 0 5883 0 0 5856 0 0 5871 0 0 5762 0 0 5967 0 0 6030 0 0 5905 0 0 5850 0 0 5959 0 0 2977 0 0 0 0 0 0 0 0 0 0 0 0 0 0 0 0 0 0 0 0 0 0 0 0 0 0 0 0 0 
0 0 0 0 0 0 0 0 0 0 0 0 0 0 0 0 0 0 0 0 0 0 0 0 0 0 0 0 0 0 0 0 0 0 0 0 0 0 0 0 0 0 0 0 0 0 0 0 0 0 0 0 0 0 0 0 0 0 0 0 0 0 0 0 0 0 0 0 0 0 0 0 0 0 0 0 0 0 0 0 0 0 0 0 0 0 0 0 0 0 0 0 0 0 0 0 0 0 0 0 0 0 0 0 0 0 0 0 0 0 0 0 0 0 0 0 0 0 0 0 0 0 0 0 0 0 0 0 0 0 0 0 0 0 0 0 0 0 0 0 0 0 0 0 0 0 0 0 0 0 0 0 0 0 0 0 0 0 0 0 0 0 0 0 0 0 0 0 0 0 0 0 0 0 0 0 0 0 0 0 
0 0 0 0 0 0 0 0 0 0 0 0 0 0 0 0 0 0 0 0 0 0 0 0 0 0 0 0 0 0 0 0 0 0 0 0 0 0 0 0 0 0 0 0 0 0 0 0 0 0 0 0 0 0 0 0 0 0 0 0 0 0 0 0 0 0 0 0 0 0 0 0 0 0 0 0 0 0 0 0 0 0 0 0 0 0 0 0 0 0 0 0 0 0 0 0 0 0 0 0 0 0 0 0 0 0 0 0 0 0 0 0 0 0 0 0 0 0 0 0 0 0 0 0 0 0 0 0 0 0 0 0 0 0 0 0 0 0 0 0 0 0 0 0 0 0 0 0 0 0 0 0 0 0 0 0 0 0 0 0 0 0 0 0 0 0 0 0 0 0 0 0 0 0 0 0 0 0 0 0 
0 0 0 0 0 0 0 0 0 0 0 0 0 0 0 0 0 0 0 0 0 0 0 0 0 0 0 0 0 0 0 0 0 0 0 0 0 0 0 0 0 0 0 0 0 0 0 0 0 0 0 0 0 0 0 0 0 0 0 0 0 0 0 0 0 0 0 0 0 0 0 0 0 0 0 0 0 0 0 0 0 0 0 0 0 0 0 0 0 0 0 0 0 0 0 0 0 0 0 0 0 0 0 0 0 0 0 0 0 0 0 0 0 0 0 0 0 0 0 0 0 0 0 0 0 0 0 0 0 0 0 0 0 0 0 0 0 0 0 0 0 0 0 0 0 0 0 0 0 0 0 0 0 0 0 0 0 0 0 0 0 0 0 0 0 0 0 0 0 0 0 0 0 0 0 0 0 0 0 0 
0 0 0 0 0 0 0 0 0 0 0 0 0 0 0 0 0 0 0 0 0 0 0 0 0 0 0 0 0 0 0 0 0 0 0 0 0 0 0 0 0 0 0 0 0 0 0 0 0 0 0 0 0 0 0 0 0 0 0 0 0 0 0 0 0 0 0 0 0 0 0 0 0 0 0 0 0 0 0 0 0 0 0 0 0 0 0 0 0 0 0 0 0 0 0 0 0 0 0 0 0 0 0 0 0 0 0 0 0 0 0 0 0 0 0 0 0 0 0 0 0 0 0 0 0 0 0 0 0 0 0 0 0 0 0 0 0 0 0 0 0 0 0 0 0 0 0 0 0 0 0 0 0 0 0 0 0 0 0 0 0 0 0 0 0 0 0 0 0 0 0 0 0 0 0 0 0 0 0 0 
0 0 0 0 0 0 0 0 0 0 0 0 0 0 0 0 0 0 0 0 0 0 0 0 0 0 0 0 0 0 0 0 0 0 0 0 0 0 0 0 0 0 0 0 0 0 0 0 0 0 0 0 0 0 0 0 0 0 0 0 0 0 0 0 0 0 0 0 0 0 0 0 0 0 0 0 0 0 0 0 0 0 0 0 0 0 0 0 0 0 0 0 0 0 0 0 0 0 0 0 0 0 0 0 0 0 0 0 0 0 0 0 0 0 0 0 0 0 0 0 0 0 0 0 0 0 0 0 0 0 0 0 0 0 0 0 0 0 0 0 0 0 0 0 0 0 0 0 0 0 0 0 0 0 0 0 0 0 0 0 0 0 0 0 0 0 0 0 0 0 0 0 0 0 0 0 0 0 0 0 
0 0 0 0 0 0 0 0 0 0 0 0 0 0 0 0 0 0 0 0 0 0 0 0 0 0 0 0 0 0 0 0 0 0 0 0 0 0 0 0 0 0 0 0 0 0 0 0 0 0 0 0 0 0 0 0 0 0 0 0 0 0 0 0 0 0 0 0 0 0 0 0 0 0 0 0 0 0 0 0 0 0 0 0 0 0 0 0 0 0 0 0 0 0 0 0 0 0 0 0 0 0 0 0 0 0 0 0 0 0 0 0 0 0 0 0 0 0 0 0 0 0 0 0 0 0 0 0 0 0 0 0 0 0 0 0 0 0 0 0 0 0 0 0 0 0 0 0 0 0 0 0 0 0 0 0 0 0 0 0 0 0 0 0 0 0 0 0 0 0 0 0 0 0 0 0 0 0 0 0 
0 0 0 0 0 0 0 0 0 0 0 0 0 0 0 0 0 0 0 0 0 0 0 0 0 0 0 0 0 0 0 0 0 0 0 0 0 0 0 0 0 0 0 0 0 0 0 0 0 0 0 0 0 0 0 0 0 0 0 0 0 0 0 0 0 0 0 0 0 0 0 0 0 0 0 0 0 0 0 0 0 0 0 0 0 0 0 0 0 0 0 0 0 0 0 0 0 0 0 0 0 0 0 0 0 0 0 0 0 0 0 0 0 0 0 0 0 0 0 0 0 0 0 0 0 0 0 0 0 0 0 0 0 0 0 0 0 0 0 0 0 0 0 0 0 0 0 0 0 0 0 0 0 0 0 0 0 0 0 0 0 0 0 0 0 0 0 0 0 0 0 0 0 0 0 0 0 0 0 0 
0 0 0 0 0 0 0 0 0 0 0 0 0 0 0 0 0 0 0 0 0 0 0 0 0 0 0 0 0 0 0 0 0 0 0 0 0 0 0 0 0 0 0 0 0 0 0 0 0 0 0 0 0 0 0 0 0 0 0 0 0 0 0 0 0 0 0 0 0 0 0 0 0 0 0 0 0 0 0 0 0 0 0 0 0 0 0 0 0 0 0 0 0 0 0 0 0 0 0 0 0 0 0 0 0 0 0 0 0 0 0 0 0 0 0 0 0 0 0 0 0 0 0 0 0 0 0 0 0 0 0 0 0 0 0 0 0 0 0 0 0 0 0 0 0 0 0 0 0 0 0 0 0 0 0 0 0 0 0 0 0 0 0 0 0 0 0 0 0 0 0 0 0 0 0 0 0 0 0 0 
0 0 0 0 0 0 0 0 0 0 0 0 0 0 0 0 0 0 0 0 0 0 0 0 0 0 0 0 0 0 0 0 0 0 0 0 0 0 0 0 0 0 0 0 0 0 0 0 0 0 0 0 0 0 0 0 0 0 0 0 0 0 0 0 0 0 0 0 0 0 0 0 0 0 0 0 0 0 0 0 0 0 0 0 0 0 0 0 0 0 0 0 0 0 0 0 0 0 0 0 0 0 0 0 0 0 0 0 0 0 0 0 0 0 0 0 0 0 0 0 0 0 0 0 0 0 0 0 0 0 0 0 0 0 0 0 0 0 0 0 0 0 0 0 0 0 0 0 0 0 0 0 0 0 0 0 0 0 0 0 0 0 0 0 0 0 0 0 0 0 0 0 0 0 0 0 0 0 0 0 
