P3
# This is a dose file slice at depth 7 of 100
60 60
# now we give the maximum value of the RGB coordinates.
34204
0 0 0 0 0 0 0 0 0 0 0 0 0 0 0 0 0 0 0 0 0 0 0 0 0 0 0 0 0 0 0 0 0 0 0 0 0 0 0 0 0 0 0 0 0 0 0 0 0 0 0 0 0 0 0 0 0 0 0 0 0 0 0 0 0 0 0 0 0 0 0 0 0 0 0 0 0 0 0 0 0 0 0 0 0 0 0 0 0 0 0 0 0 0 0 0 0 0 0 0 0 0 0 0 0 0 0 0 0 0 0 0 0 0 0 0 0 0 0 0 0 0 0 0 0 0 0 0 0 0 0 0 0 0 0 0 0 0 0 0 0 0 0 0 0 0 0 0 0 0 0 0 0 0 0 0 0 0 0 0 0 0 0 0 0 0 0 0 0 0 0 0 0 0 0 0 0 0 0 0 
0 0 0 0 0 0 0 0 0 0 0 0 0 0 0 0 0 0 0 0 0 0 0 0 0 0 0 0 0 0 0 0 0 0 0 0 0 0 0 0 0 0 0 0 0 0 0 0 0 0 0 0 0 0 0 0 0 0 0 0 0 0 0 0 0 0 0 0 0 0 0 0 0 0 0 0 0 0 0 0 0 0 0 0 0 0 0 0 0 0 0 0 0 0 0 0 0 0 0 0 0 0 0 0 0 0 0 0 0 0 0 0 0 0 0 0 0 0 0 0 0 0 0 0 0 0 0 0 0 0 0 0 0 0 0 0 0 0 0 0 0 0 0 0 0 0 0 0 0 0 0 0 0 0 0 0 0 0 0 0 0 0 0 0 0 0 0 0 0 0 0 0 0 0 0 0 0 0 0 0 
0 0 0 0 0 0 0 0 0 0 0 0 0 0 0 0 0 0 0 0 0 0 0 0 0 0 0 0 0 0 0 0 0 0 0 0 0 0 0 0 0 0 0 0 0 0 0 0 0 0 0 0 0 0 0 0 0 0 0 0 0 0 0 0 0 0 0 0 0 0 0 0 0 0 0 0 0 0 0 0 0 0 0 0 0 0 0 0 0 0 0 0 0 0 0 0 0 0 0 0 0 0 0 0 0 0 0 0 0 0 0 0 0 0 0 0 0 0 0 0 0 0 0 0 0 0 0 0 0 0 0 0 0 0 0 0 0 0 0 0 0 0 0 0 0 0 0 0 0 0 0 0 0 0 0 0 0 0 0 0 0 0 0 0 0 0 0 0 0 0 0 0 0 0 0 0 0 0 0 0 
0 0 0 0 0 0 0 0 0 0 0 0 0 0 0 0 0 0 0 0 0 0 0 0 0 0 0 0 0 0 0 0 0 0 0 0 0 0 0 0 0 0 0 0 0 0 0 0 0 0 0 0 0 0 0 0 0 0 0 0 0 0 0 0 0 0 0 0 0 0 0 0 0 0 0 0 0 0 0 0 0 0 0 0 0 0 0 0 0 0 0 0 0 0 0 0 0 0 0 0 0 0 0 0 0 0 0 0 0 0 0 0 0 0 0 0 0 0 0 0 0 0 0 0 0 0 0 0 0 0 0 0 0 0 0 0 0 0 0 0 0 0 0 0 0 0 0 0 0 0 0 0 0 0 0 0 0 0 0 0 0 0 0 0 0 0 0 0 0 0 0 0 0 0 0 0 0 0 0 0 
0 0 0 0 0 0 0 0 0 0 0 0 0 0 0 0 0 0 0 0 0 0 0 0 0 0 0 0 0 0 0 0 0 0 0 0 0 0 0 0 0 0 0 0 0 0 0 0 0 0 0 0 0 0 0 0 0 0 0 0 0 0 0 0 0 0 0 0 0 0 0 0 0 0 0 0 0 0 0 0 0 0 0 0 0 0 0 0 0 0 0 0 0 0 0 0 0 0 0 0 0 0 0 0 0 0 0 0 0 0 0 0 0 0 0 0 0 0 0 0 0 0 0 0 0 0 0 0 0 0 0 0 0 0 0 0 0 0 0 0 0 0 0 0 0 0 0 0 0 0 0 0 0 0 0 0 0 0 0 0 0 0 0 0 0 0 0 0 0 0 0 0 0 0 0 0 0 0 0 0 
0 0 0 0 0 0 0 0 0 0 0 0 0 0 0 0 0 0 0 0 0 0 0 0 0 0 0 0 0 0 0 0 0 0 0 0 0 0 0 0 0 0 0 0 0 0 0 0 0 0 0 0 0 0 0 0 0 0 0 0 0 0 0 0 0 0 0 0 0 0 0 0 0 0 0 0 0 0 0 0 0 0 0 0 0 0 0 0 0 0 0 0 0 0 0 0 0 0 0 0 0 0 0 0 0 0 0 0 0 0 0 0 0 0 0 0 0 0 0 0 0 0 0 0 0 0 0 0 0 0 0 0 0 0 0 0 0 0 0 0 0 0 0 0 0 0 0 0 0 0 0 0 0 0 0 0 0 0 0 0 0 0 0 0 0 0 0 0 0 0 0 0 0 0 0 0 0 0 0 0 
0 0 0 0 0 0 0 0 0 0 0 0 0 0 0 0 0 0 0 0 0 0 0 0 0 0 0 0 0 0 0 0 0 0 0 0 0 0 0 0 0 0 0 0 0 0 0 0 0 0 0 0 0 0 0 0 0 0 0 0 0 0 0 0 0 0 0 0 0 0 0 0 0 0 0 0 0 0 0 0 0 0 0 0 0 0 0 0 0 0 0 0 0 0 0 0 0 0 0 0 0 0 0 0 0 0 0 0 0 0 0 0 0 0 0 0 0 0 0 0 0 0 0 0 0 0 0 0 0 0 0 0 0 0 0 0 0 0 0 0 0 0 0 0 0 0 0 0 0 0 0 0 0 0 0 0 0 0 0 0 0 0 0 0 0 0 0 0 0 0 0 0 0 0 0 0 0 0 0 0 
0 0 0 0 0 0 0 0 0 0 0 0 0 0 0 0 0 0 0 0 0 0 0 0 0 0 0 0 0 0 0 0 0 0 0 0 0 0 0 0 0 0 0 0 0 0 0 0 0 0 0 0 0 0 0 0 0 0 0 0 0 0 0 0 0 0 0 0 0 0 0 0 0 0 0 0 0 0 0 0 0 0 0 0 0 0 0 0 0 0 0 0 0 0 0 0 0 0 0 0 0 0 0 0 0 0 0 0 0 0 0 0 0 0 0 0 0 0 0 0 0 0 0 0 0 0 0 0 0 0 0 0 0 0 0 0 0 0 0 0 0 0 0 0 0 0 0 0 0 0 0 0 0 0 0 0 0 0 0 0 0 0 0 0 0 0 0 0 0 0 0 0 0 0 0 0 0 0 0 0 
0 0 0 0 0 0 0 0 0 0 0 0 0 0 0 0 0 0 0 0 0 0 0 0 0 0 0 0 0 0 0 0 0 0 0 0 0 0 0 0 0 0 0 0 0 0 0 0 0 0 0 0 0 0 0 0 0 0 0 0 0 0 0 0 0 0 0 0 0 0 0 0 0 0 0 0 0 0 0 0 0 0 0 0 0 0 0 0 0 0 0 0 0 0 0 0 0 0 0 0 0 0 0 0 0 0 0 0 0 0 0 0 0 0 0 0 0 0 0 0 0 0 0 0 0 0 0 0 0 0 0 0 0 0 0 0 0 0 0 0 0 0 0 0 0 0 0 0 0 0 0 0 0 0 0 0 0 0 0 0 0 0 0 0 0 0 0 0 0 0 0 0 0 0 0 0 0 0 0 0 
0 0 0 0 0 0 0 0 0 0 0 0 0 0 0 0 0 0 0 0 0 0 0 0 0 0 0 0 0 0 0 0 0 0 0 0 0 0 0 0 0 0 0 0 0 0 0 0 0 0 0 0 0 0 0 0 0 0 0 0 0 0 0 0 0 0 0 0 0 0 0 0 0 0 0 0 0 0 0 0 0 0 0 0 0 0 0 0 0 0 0 0 0 0 0 0 0 0 0 0 0 0 0 0 0 0 0 0 0 0 0 0 0 0 0 0 0 0 0 0 0 0 0 0 0 0 0 0 0 0 0 0 0 0 0 0 0 0 0 0 0 0 0 0 0 0 0 0 0 0 0 0 0 0 0 0 0 0 0 0 0 0 0 0 0 0 0 0 0 0 0 0 0 0 0 0 0 0 0 0 
0 0 0 0 0 0 0 0 0 0 0 0 0 0 0 0 0 0 0 0 0 0 0 0 0 0 0 0 0 0 6971 0 0 13736 0 0 13829 0 0 14051 0 0 14030 0 0 13976 0 0 13851 0 0 13669 0 0 13783 0 0 13882 0 0 13875 0 0 13895 0 0 13904 0 0 13929 0 0 13820 0 0 13849 0 0 13656 0 0 13936 0 0 13918 0 0 13831 0 0 14160 0 0 13819 0 0 13798 0 0 13866 0 0 13813 0 0 13802 0 0 13748 0 0 13908 0 0 13881 0 0 13740 0 0 13730 0 0 13887 0 0 13906 0 0 13753 0 0 13736 0 0 13741 0 0 13859 0 0 13790 0 0 14029 0 0 13837 0 0 6953 0 0 0 0 0 0 0 0 0 0 0 0 0 0 0 0 0 0 0 0 0 0 0 0 0 0 0 0 0 
0 0 0 0 0 0 0 0 0 0 0 0 0 0 0 0 0 0 0 0 0 0 0 0 0 0 0 0 0 0 13668 0 0 27689 0 0 27757 0 0 27702 0 0 27955 0 0 27951 0 0 27623 0 0 27674 0 0 27861 0 0 27615 0 0 27809 0 0 27924 0 0 27657 0 0 27466 0 0 27749 0 0 27712 0 0 27599 0 0 28141 0 0 27615 0 0 27971 0 0 27650 0 0 27866 0 0 27572 0 0 27754 0 0 27673 0 0 27929 0 0 27559 0 0 27867 0 0 27869 0 0 27643 0 0 27838 0 0 27529 0 0 27510 0 0 27901 0 0 27478 0 0 27955 0 0 27593 0 0 27935 0 0 27703 0 0 27567 0 0 13993 0 0 0 0 0 0 0 0 0 0 0 0 0 0 0 0 0 0 0 0 0 0 0 0 0 0 0 0 0 
0 0 0 0 0 0 0 0 0 0 0 0 0 0 0 0 0 0 0 0 0 0 0 0 0 0 0 0 0 0 13765 0 0 27603 0 0 27748 0 0 27465 0 0 27745 0 0 27868 0 0 27539 0 0 27851 0 0 27675 0 0 27883 0 0 27543 0 0 27986 0 0 27927 0 0 27894 0 0 27746 0 0 28094 0 0 27695 0 0 27438 0 0 27607 0 0 27593 0 0 27398 0 0 27375 0 0 27613 0 0 27226 0 0 27758 0 0 27767 0 0 27465 0 0 27501 0 0 27665 0 0 27849 0 0 27664 0 0 27555 0 0 27603 0 0 27723 0 0 27738 0 0 27643 0 0 27512 0 0 27638 0 0 27369 0 0 27761 0 0 13915 0 0 0 0 0 0 0 0 0 0 0 0 0 0 0 0 0 0 0 0 0 0 0 0 0 0 0 0 0 
0 0 0 0 0 0 0 0 0 0 0 0 0 0 0 0 0 0 0 0 0 0 0 0 0 0 0 0 0 0 13931 0 0 27855 0 0 27885 0 0 27796 0 0 27516 0 0 27669 0 0 27994 0 0 27446 0 0 27692 0 0 27831 0 0 27579 0 0 27716 0 0 27577 0 0 27616 0 0 27937 0 0 27785 0 0 27848 0 0 27493 0 0 27892 0 0 27708 0 0 27670 0 0 27721 0 0 27644 0 0 27685 0 0 27559 0 0 27712 0 0 27837 0 0 27582 0 0 27393 0 0 27628 0 0 27779 0 0 27502 0 0 27607 0 0 27650 0 0 27734 0 0 27751 0 0 27766 0 0 27604 0 0 27704 0 0 27754 0 0 13961 0 0 0 0 0 0 0 0 0 0 0 0 0 0 0 0 0 0 0 0 0 0 0 0 0 0 0 0 0 
0 0 0 0 0 0 0 0 0 0 0 0 0 0 0 0 0 0 0 0 0 0 0 0 0 0 0 0 0 0 13855 0 0 27722 0 0 27746 0 0 27881 0 0 27763 0 0 27540 0 0 27793 0 0 27548 0 0 27395 0 0 27747 0 0 28148 0 0 27768 0 0 27570 0 0 27820 0 0 27558 0 0 27691 0 0 27700 0 0 27811 0 0 27918 0 0 27830 0 0 27780 0 0 27722 0 0 27988 0 0 27410 0 0 28121 0 0 27854 0 0 28052 0 0 27667 0 0 27547 0 0 27625 0 0 27877 0 0 27778 0 0 27764 0 0 27651 0 0 27725 0 0 27921 0 0 27618 0 0 27738 0 0 27921 0 0 27755 0 0 13750 0 0 0 0 0 0 0 0 0 0 0 0 0 0 0 0 0 0 0 0 0 0 0 0 0 0 0 0 0 
0 0 0 0 0 0 0 0 0 0 0 0 0 0 0 0 0 0 0 0 0 0 0 0 0 0 0 0 0 0 13781 0 0 27797 0 0 27442 0 0 27703 0 0 27398 0 0 27637 0 0 27853 0 0 27336 0 0 27817 0 0 27609 0 0 27617 0 0 27888 0 0 27723 0 0 27481 0 0 28021 0 0 27782 0 0 27407 0 0 27759 0 0 27458 0 0 27722 0 0 27719 0 0 27819 0 0 27817 0 0 28030 0 0 27960 0 0 27846 0 0 27980 0 0 27667 0 0 27630 0 0 27526 0 0 27690 0 0 27545 0 0 27799 0 0 27759 0 0 27767 0 0 27368 0 0 27736 0 0 27617 0 0 27709 0 0 27524 0 0 13866 0 0 0 0 0 0 0 0 0 0 0 0 0 0 0 0 0 0 0 0 0 0 0 0 0 0 0 0 0 
0 0 0 0 0 0 0 0 0 0 0 0 0 0 0 0 0 0 0 0 0 0 0 0 0 0 0 0 0 0 13798 0 0 27577 0 0 27602 0 0 27702 0 0 27594 0 0 27741 0 0 27808 0 0 27881 0 0 27954 0 0 27533 0 0 27780 0 0 27712 0 0 27886 0 0 27463 0 0 27780 0 0 27840 0 0 27508 0 0 27574 0 0 27535 0 0 27843 0 0 27370 0 0 27761 0 0 27576 0 0 27844 0 0 27700 0 0 27828 0 0 27784 0 0 27603 0 0 27460 0 0 27467 0 0 27735 0 0 27734 0 0 27488 0 0 27732 0 0 27865 0 0 27684 0 0 27235 0 0 27768 0 0 28033 0 0 27292 0 0 13879 0 0 0 0 0 0 0 0 0 0 0 0 0 0 0 0 0 0 0 0 0 0 0 0 0 0 0 0 0 
0 0 0 0 0 0 0 0 0 0 0 0 0 0 0 0 0 0 0 0 0 0 0 0 0 0 0 0 0 0 13858 0 0 27954 0 0 27909 0 0 27573 0 0 27535 0 0 27882 0 0 27924 0 0 27712 0 0 27910 0 0 27861 0 0 27628 0 0 27752 0 0 27640 0 0 27759 0 0 27524 0 0 27534 0 0 27729 0 0 27530 0 0 27752 0 0 27890 0 0 27761 0 0 27604 0 0 27354 0 0 27771 0 0 27639 0 0 27810 0 0 27814 0 0 27675 0 0 27874 0 0 27752 0 0 27898 0 0 27723 0 0 27668 0 0 27753 0 0 27916 0 0 27738 0 0 27788 0 0 27534 0 0 27573 0 0 27439 0 0 13814 0 0 0 0 0 0 0 0 0 0 0 0 0 0 0 0 0 0 0 0 0 0 0 0 0 0 0 0 0 
0 0 0 0 0 0 0 0 0 0 0 0 0 0 0 0 0 0 0 0 0 0 0 0 0 0 0 0 0 0 14043 0 0 27399 0 0 27631 0 0 27583 0 0 27727 0 0 27715 0 0 27670 0 0 27750 0 0 27854 0 0 27573 0 0 27862 0 0 27649 0 0 27881 0 0 27615 0 0 27714 0 0 27595 0 0 27614 0 0 27562 0 0 27348 0 0 27550 0 0 27630 0 0 27743 0 0 27684 0 0 27493 0 0 27802 0 0 27924 0 0 27736 0 0 27623 0 0 27598 0 0 27853 0 0 27908 0 0 27764 0 0 27866 0 0 27843 0 0 27834 0 0 27838 0 0 27822 0 0 27742 0 0 27859 0 0 27721 0 0 13778 0 0 0 0 0 0 0 0 0 0 0 0 0 0 0 0 0 0 0 0 0 0 0 0 0 0 0 0 0 
0 0 0 0 0 0 0 0 0 0 0 0 0 0 0 0 0 0 0 0 0 0 0 0 0 0 0 0 0 0 13819 0 0 27905 0 0 27553 0 0 27536 0 0 27860 0 0 27805 0 0 27890 0 0 27701 0 0 27477 0 0 27709 0 0 27784 0 0 27642 0 0 27723 0 0 27509 0 0 27317 0 0 27636 0 0 27852 0 0 27494 0 0 27923 0 0 27760 0 0 27749 0 0 27868 0 0 27486 0 0 27477 0 0 27581 0 0 27695 0 0 27882 0 0 27785 0 0 27788 0 0 28020 0 0 27667 0 0 27797 0 0 27654 0 0 27920 0 0 27668 0 0 27659 0 0 27349 0 0 27568 0 0 27593 0 0 27510 0 0 13853 0 0 0 0 0 0 0 0 0 0 0 0 0 0 0 0 0 0 0 0 0 0 0 0 0 0 0 0 0 
0 0 0 0 0 0 0 0 0 0 0 0 0 0 0 0 0 0 0 0 0 0 0 0 0 0 0 0 0 0 13942 0 0 27658 0 0 27700 0 0 27851 0 0 27358 0 0 27709 0 0 27790 0 0 27572 0 0 27663 0 0 27597 0 0 27792 0 0 27676 0 0 27913 0 0 27520 0 0 27827 0 0 27803 0 0 27844 0 0 27689 0 0 27588 0 0 27726 0 0 27750 0 0 27842 0 0 28019 0 0 27753 0 0 27319 0 0 27699 0 0 27350 0 0 27423 0 0 27855 0 0 27593 0 0 27855 0 0 27667 0 0 27974 0 0 27679 0 0 27647 0 0 27607 0 0 27760 0 0 27890 0 0 27966 0 0 27565 0 0 13858 0 0 0 0 0 0 0 0 0 0 0 0 0 0 0 0 0 0 0 0 0 0 0 0 0 0 0 0 0 
0 0 0 0 0 0 0 0 0 0 0 0 0 0 0 0 0 0 0 0 0 0 0 0 0 0 0 0 0 0 13781 0 0 27948 0 0 27570 0 0 27912 0 0 27801 0 0 27790 0 0 27808 0 0 27594 0 0 27795 0 0 27842 0 0 27763 0 0 27982 0 0 27427 0 0 27434 0 0 27573 0 0 27763 0 0 27783 0 0 27747 0 0 27804 0 0 27671 0 0 27807 0 0 27608 0 0 27665 0 0 28005 0 0 27781 0 0 27761 0 0 27355 0 0 27820 0 0 28003 0 0 27563 0 0 27534 0 0 27666 0 0 27956 0 0 27599 0 0 27732 0 0 28053 0 0 27741 0 0 27798 0 0 27829 0 0 27899 0 0 13840 0 0 0 0 0 0 0 0 0 0 0 0 0 0 0 0 0 0 0 0 0 0 0 0 0 0 0 0 0 
0 0 0 0 0 0 0 0 0 0 0 0 0 0 0 0 0 0 0 0 0 0 0 0 0 0 0 0 0 0 13783 0 0 27826 0 0 27637 0 0 27964 0 0 27754 0 0 27633 0 0 27833 0 0 27971 0 0 27572 0 0 27828 0 0 27656 0 0 28038 0 0 27471 0 0 27885 0 0 27822 0 0 27724 0 0 27769 0 0 27656 0 0 27444 0 0 27650 0 0 27742 0 0 27657 0 0 27568 0 0 28054 0 0 27813 0 0 27752 0 0 27625 0 0 27817 0 0 27740 0 0 27711 0 0 27586 0 0 27495 0 0 28017 0 0 27808 0 0 27664 0 0 27756 0 0 27998 0 0 27654 0 0 27566 0 0 27614 0 0 13977 0 0 0 0 0 0 0 0 0 0 0 0 0 0 0 0 0 0 0 0 0 0 0 0 0 0 0 0 0 
0 0 0 0 0 0 0 0 0 0 0 0 0 0 0 0 0 0 0 0 0 0 0 0 0 0 0 0 0 0 14035 0 0 27675 0 0 27649 0 0 27339 0 0 27694 0 0 27713 0 0 28150 0 0 27883 0 0 27964 0 0 27803 0 0 27695 0 0 27914 0 0 27812 0 0 27821 0 0 27476 0 0 27607 0 0 27854 0 0 27816 0 0 27678 0 0 27817 0 0 27881 0 0 27789 0 0 27454 0 0 27528 0 0 27335 0 0 27540 0 0 28160 0 0 27343 0 0 27821 0 0 27842 0 0 27517 0 0 27602 0 0 27517 0 0 27670 0 0 27601 0 0 27175 0 0 27941 0 0 27718 0 0 27703 0 0 27570 0 0 13765 0 0 0 0 0 0 0 0 0 0 0 0 0 0 0 0 0 0 0 0 0 0 0 0 0 0 0 0 0 
0 0 0 0 0 0 0 0 0 0 0 0 0 0 0 0 0 0 0 0 0 0 0 0 0 0 0 0 0 0 13784 0 0 27574 0 0 27877 0 0 27621 0 0 27902 0 0 27415 0 0 27502 0 0 27611 0 0 27817 0 0 27867 0 0 27774 0 0 27775 0 0 27635 0 0 27876 0 0 27648 0 0 27856 0 0 27635 0 0 27474 0 0 27628 0 0 27320 0 0 27484 0 0 27732 0 0 27986 0 0 28124 0 0 27816 0 0 27672 0 0 27669 0 0 27270 0 0 27560 0 0 27808 0 0 27482 0 0 27713 0 0 27647 0 0 27942 0 0 27563 0 0 27624 0 0 27690 0 0 27627 0 0 27785 0 0 27806 0 0 13697 0 0 0 0 0 0 0 0 0 0 0 0 0 0 0 0 0 0 0 0 0 0 0 0 0 0 0 0 0 
0 0 0 0 0 0 0 0 0 0 0 0 0 0 0 0 0 0 0 0 0 0 0 0 0 0 0 0 0 0 13890 0 0 27762 0 0 27589 0 0 27787 0 0 27847 0 0 27582 0 0 27473 0 0 27446 0 0 27946 0 0 27761 0 0 27906 0 0 27918 0 0 27402 0 0 27565 0 0 27868 0 0 27737 0 0 27822 0 0 27390 0 0 27895 0 0 27634 0 0 27757 0 0 27806 0 0 27629 0 0 27777 0 0 27753 0 0 27722 0 0 27548 0 0 27824 0 0 27593 0 0 27887 0 0 27721 0 0 27671 0 0 27821 0 0 27596 0 0 27529 0 0 27810 0 0 27563 0 0 27419 0 0 27623 0 0 27739 0 0 13879 0 0 0 0 0 0 0 0 0 0 0 0 0 0 0 0 0 0 0 0 0 0 0 0 0 0 0 0 0 
0 0 0 0 0 0 0 0 0 0 0 0 0 0 0 0 0 0 0 0 0 0 0 0 0 0 0 0 0 0 13895 0 0 27808 0 0 27555 0 0 27422 0 0 27614 0 0 27723 0 0 27722 0 0 27750 0 0 27711 0 0 27858 0 0 27640 0 0 27702 0 0 27648 0 0 27602 0 0 27972 0 0 27686 0 0 27713 0 0 27687 0 0 27651 0 0 27625 0 0 27655 0 0 27667 0 0 27607 0 0 27591 0 0 27467 0 0 27603 0 0 27629 0 0 27322 0 0 27424 0 0 27567 0 0 27760 0 0 27596 0 0 27885 0 0 27699 0 0 27530 0 0 27816 0 0 27975 0 0 27531 0 0 27531 0 0 27741 0 0 13931 0 0 0 0 0 0 0 0 0 0 0 0 0 0 0 0 0 0 0 0 0 0 0 0 0 0 0 0 0 
0 0 0 0 0 0 0 0 0 0 0 0 0 0 0 0 0 0 0 0 0 0 0 0 0 0 0 0 0 0 13733 0 0 27930 0 0 27682 0 0 27689 0 0 27945 0 0 27937 0 0 27687 0 0 27607 0 0 27867 0 0 27955 0 0 27681 0 0 27710 0 0 27887 0 0 27714 0 0 27679 0 0 27660 0 0 28133 0 0 27424 0 0 27547 0 0 27776 0 0 27627 0 0 27698 0 0 27846 0 0 27676 0 0 27550 0 0 27650 0 0 27594 0 0 27585 0 0 27615 0 0 27814 0 0 27574 0 0 27897 0 0 27826 0 0 27610 0 0 27651 0 0 27737 0 0 27500 0 0 27735 0 0 27768 0 0 27591 0 0 13834 0 0 0 0 0 0 0 0 0 0 0 0 0 0 0 0 0 0 0 0 0 0 0 0 0 0 0 0 0 
0 0 0 0 0 0 0 0 0 0 0 0 0 0 0 0 0 0 0 0 0 0 0 0 0 0 0 0 0 0 13732 0 0 27775 0 0 27881 0 0 27409 0 0 28035 0 0 27633 0 0 27611 0 0 27604 0 0 27866 0 0 27819 0 0 27627 0 0 27730 0 0 27763 0 0 27763 0 0 27571 0 0 27826 0 0 27992 0 0 27566 0 0 27784 0 0 27685 0 0 27741 0 0 27365 0 0 27992 0 0 27862 0 0 27679 0 0 27865 0 0 27947 0 0 27517 0 0 27567 0 0 27332 0 0 27815 0 0 27761 0 0 27858 0 0 27888 0 0 27701 0 0 27714 0 0 27817 0 0 27980 0 0 27621 0 0 27578 0 0 13848 0 0 0 0 0 0 0 0 0 0 0 0 0 0 0 0 0 0 0 0 0 0 0 0 0 0 0 0 0 
0 0 0 0 0 0 0 0 0 0 0 0 0 0 0 0 0 0 0 0 0 0 0 0 0 0 0 0 0 0 13886 0 0 27937 0 0 27728 0 0 27653 0 0 27664 0 0 27717 0 0 27968 0 0 28161 0 0 27808 0 0 27765 0 0 27752 0 0 27522 0 0 27510 0 0 27766 0 0 27613 0 0 27828 0 0 27675 0 0 27591 0 0 27925 0 0 27577 0 0 27839 0 0 28127 0 0 27699 0 0 27628 0 0 27725 0 0 27607 0 0 27782 0 0 27630 0 0 27679 0 0 27678 0 0 27655 0 0 27724 0 0 27619 0 0 27672 0 0 27670 0 0 28038 0 0 27636 0 0 27915 0 0 27879 0 0 27643 0 0 14067 0 0 0 0 0 0 0 0 0 0 0 0 0 0 0 0 0 0 0 0 0 0 0 0 0 0 0 0 0 
0 0 0 0 0 0 0 0 0 0 0 0 0 0 0 0 0 0 0 0 0 0 0 0 0 0 0 0 0 0 13996 0 0 27838 0 0 27543 0 0 27652 0 0 27818 0 0 27881 0 0 27691 0 0 27928 0 0 27764 0 0 27540 0 0 27592 0 0 27725 0 0 27749 0 0 27553 0 0 27716 0 0 27893 0 0 27785 0 0 27703 0 0 27382 0 0 28137 0 0 27477 0 0 27889 0 0 27397 0 0 27733 0 0 27473 0 0 27809 0 0 27601 0 0 27835 0 0 27660 0 0 27446 0 0 27874 0 0 27652 0 0 27613 0 0 27524 0 0 27671 0 0 27613 0 0 27629 0 0 27884 0 0 27956 0 0 27727 0 0 14143 0 0 0 0 0 0 0 0 0 0 0 0 0 0 0 0 0 0 0 0 0 0 0 0 0 0 0 0 0 
0 0 0 0 0 0 0 0 0 0 0 0 0 0 0 0 0 0 0 0 0 0 0 0 0 0 0 0 0 0 13971 0 0 27650 0 0 27217 0 0 27603 0 0 27839 0 0 27673 0 0 27492 0 0 27783 0 0 27808 0 0 27490 0 0 27738 0 0 27746 0 0 27596 0 0 27943 0 0 27800 0 0 27954 0 0 27614 0 0 27809 0 0 28269 0 0 27719 0 0 27847 0 0 27641 0 0 28008 0 0 27769 0 0 27591 0 0 27692 0 0 27633 0 0 27466 0 0 27411 0 0 27682 0 0 27704 0 0 28186 0 0 27612 0 0 27803 0 0 27756 0 0 27751 0 0 27537 0 0 27874 0 0 27808 0 0 27572 0 0 13839 0 0 0 0 0 0 0 0 0 0 0 0 0 0 0 0 0 0 0 0 0 0 0 0 0 0 0 0 0 
0 0 0 0 0 0 0 0 0 0 0 0 0 0 0 0 0 0 0 0 0 0 0 0 0 0 0 0 0 0 13819 0 0 27543 0 0 27720 0 0 27549 0 0 27551 0 0 27679 0 0 27848 0 0 27879 0 0 27922 0 0 27788 0 0 27553 0 0 27589 0 0 27640 0 0 27546 0 0 27889 0 0 28071 0 0 27557 0 0 28001 0 0 27805 0 0 27455 0 0 27656 0 0 27573 0 0 27626 0 0 27536 0 0 27520 0 0 27739 0 0 27654 0 0 27714 0 0 27300 0 0 27795 0 0 27612 0 0 27704 0 0 27650 0 0 27692 0 0 27603 0 0 27539 0 0 27457 0 0 27490 0 0 27700 0 0 27919 0 0 14052 0 0 0 0 0 0 0 0 0 0 0 0 0 0 0 0 0 0 0 0 0 0 0 0 0 0 0 0 0 
0 0 0 0 0 0 0 0 0 0 0 0 0 0 0 0 0 0 0 0 0 0 0 0 0 0 0 0 0 0 13791 0 0 27954 0 0 27618 0 0 27736 0 0 27675 0 0 27723 0 0 27640 0 0 27843 0 0 27751 0 0 27501 0 0 27644 0 0 27768 0 0 27950 0 0 27737 0 0 27714 0 0 27961 0 0 27503 0 0 27679 0 0 27595 0 0 27988 0 0 27641 0 0 27447 0 0 27874 0 0 27699 0 0 27829 0 0 27607 0 0 27737 0 0 27594 0 0 27861 0 0 27799 0 0 27773 0 0 27717 0 0 27635 0 0 27472 0 0 27868 0 0 27675 0 0 27557 0 0 27557 0 0 27475 0 0 27784 0 0 13860 0 0 0 0 0 0 0 0 0 0 0 0 0 0 0 0 0 0 0 0 0 0 0 0 0 0 0 0 0 
0 0 0 0 0 0 0 0 0 0 0 0 0 0 0 0 0 0 0 0 0 0 0 0 0 0 0 0 0 0 13721 0 0 27743 0 0 27870 0 0 27922 0 0 27736 0 0 27655 0 0 27897 0 0 27877 0 0 28038 0 0 27700 0 0 27671 0 0 27654 0 0 27949 0 0 27843 0 0 27754 0 0 28027 0 0 27548 0 0 27694 0 0 27371 0 0 27693 0 0 28104 0 0 27796 0 0 27648 0 0 27687 0 0 27780 0 0 27460 0 0 27593 0 0 27660 0 0 27781 0 0 27904 0 0 27561 0 0 27702 0 0 27671 0 0 27427 0 0 27768 0 0 27943 0 0 28033 0 0 27718 0 0 27815 0 0 27830 0 0 13793 0 0 0 0 0 0 0 0 0 0 0 0 0 0 0 0 0 0 0 0 0 0 0 0 0 0 0 0 0 
0 0 0 0 0 0 0 0 0 0 0 0 0 0 0 0 0 0 0 0 0 0 0 0 0 0 0 0 0 0 13791 0 0 27784 0 0 27646 0 0 27478 0 0 27612 0 0 27749 0 0 28046 0 0 27738 0 0 27748 0 0 27842 0 0 27554 0 0 27756 0 0 27835 0 0 27768 0 0 27835 0 0 28007 0 0 27625 0 0 27788 0 0 27742 0 0 27656 0 0 27788 0 0 27895 0 0 27516 0 0 27499 0 0 27748 0 0 27829 0 0 27853 0 0 27656 0 0 27894 0 0 27770 0 0 27456 0 0 27926 0 0 27794 0 0 27947 0 0 27542 0 0 27673 0 0 27984 0 0 28001 0 0 27694 0 0 27710 0 0 13593 0 0 0 0 0 0 0 0 0 0 0 0 0 0 0 0 0 0 0 0 0 0 0 0 0 0 0 0 0 
0 0 0 0 0 0 0 0 0 0 0 0 0 0 0 0 0 0 0 0 0 0 0 0 0 0 0 0 0 0 13840 0 0 27721 0 0 27792 0 0 27458 0 0 27733 0 0 28032 0 0 27279 0 0 27419 0 0 27378 0 0 27720 0 0 27669 0 0 27706 0 0 27563 0 0 27260 0 0 27776 0 0 27870 0 0 27511 0 0 27712 0 0 27375 0 0 28019 0 0 27609 0 0 27631 0 0 27569 0 0 27677 0 0 27784 0 0 27663 0 0 27850 0 0 27488 0 0 27811 0 0 27607 0 0 27905 0 0 27527 0 0 27787 0 0 27508 0 0 27791 0 0 27724 0 0 27797 0 0 27601 0 0 27734 0 0 27596 0 0 13745 0 0 0 0 0 0 0 0 0 0 0 0 0 0 0 0 0 0 0 0 0 0 0 0 0 0 0 0 0 
0 0 0 0 0 0 0 0 0 0 0 0 0 0 0 0 0 0 0 0 0 0 0 0 0 0 0 0 0 0 13699 0 0 27574 0 0 27664 0 0 27833 0 0 27576 0 0 28077 0 0 27702 0 0 27596 0 0 27882 0 0 27730 0 0 27439 0 0 27311 0 0 27839 0 0 27702 0 0 27760 0 0 27652 0 0 27506 0 0 27505 0 0 28028 0 0 27825 0 0 27841 0 0 27860 0 0 27691 0 0 27877 0 0 27430 0 0 27963 0 0 27569 0 0 27478 0 0 27483 0 0 27772 0 0 27385 0 0 27771 0 0 27259 0 0 27893 0 0 27559 0 0 27700 0 0 27717 0 0 27480 0 0 27634 0 0 27859 0 0 14239 0 0 0 0 0 0 0 0 0 0 0 0 0 0 0 0 0 0 0 0 0 0 0 0 0 0 0 0 0 
0 0 0 0 0 0 0 0 0 0 0 0 0 0 0 0 0 0 0 0 0 0 0 0 0 0 0 0 0 0 13951 0 0 27798 0 0 27654 0 0 27748 0 0 27744 0 0 27493 0 0 27594 0 0 27907 0 0 27823 0 0 28031 0 0 27769 0 0 27733 0 0 27752 0 0 27520 0 0 27914 0 0 27379 0 0 27714 0 0 27717 0 0 27834 0 0 27764 0 0 27844 0 0 27743 0 0 27910 0 0 27760 0 0 27696 0 0 27703 0 0 27769 0 0 27654 0 0 27532 0 0 27581 0 0 27520 0 0 27738 0 0 27828 0 0 28054 0 0 27253 0 0 27772 0 0 27840 0 0 27518 0 0 27746 0 0 27393 0 0 14075 0 0 0 0 0 0 0 0 0 0 0 0 0 0 0 0 0 0 0 0 0 0 0 0 0 0 0 0 0 
0 0 0 0 0 0 0 0 0 0 0 0 0 0 0 0 0 0 0 0 0 0 0 0 0 0 0 0 0 0 13811 0 0 27540 0 0 27571 0 0 27655 0 0 27986 0 0 27728 0 0 27394 0 0 27459 0 0 27584 0 0 27597 0 0 27535 0 0 27755 0 0 27722 0 0 27709 0 0 27803 0 0 27524 0 0 27833 0 0 27867 0 0 27706 0 0 28111 0 0 27748 0 0 27474 0 0 27713 0 0 27828 0 0 27936 0 0 27447 0 0 27805 0 0 27679 0 0 28007 0 0 27525 0 0 27976 0 0 27418 0 0 27927 0 0 27949 0 0 28114 0 0 27476 0 0 27741 0 0 27652 0 0 27686 0 0 27557 0 0 13909 0 0 0 0 0 0 0 0 0 0 0 0 0 0 0 0 0 0 0 0 0 0 0 0 0 0 0 0 0 
0 0 0 0 0 0 0 0 0 0 0 0 0 0 0 0 0 0 0 0 0 0 0 0 0 0 0 0 0 0 13810 0 0 27783 0 0 27567 0 0 27499 0 0 27518 0 0 27670 0 0 27556 0 0 27221 0 0 27969 0 0 27466 0 0 27814 0 0 27971 0 0 27659 0 0 27726 0 0 27781 0 0 27457 0 0 27812 0 0 27626 0 0 27442 0 0 27700 0 0 27631 0 0 27905 0 0 27826 0 0 27430 0 0 27575 0 0 27930 0 0 27655 0 0 27647 0 0 27734 0 0 27856 0 0 27743 0 0 27930 0 0 27659 0 0 27970 0 0 27652 0 0 27936 0 0 27894 0 0 27923 0 0 27583 0 0 27439 0 0 13837 0 0 0 0 0 0 0 0 0 0 0 0 0 0 0 0 0 0 0 0 0 0 0 0 0 0 0 0 0 
0 0 0 0 0 0 0 0 0 0 0 0 0 0 0 0 0 0 0 0 0 0 0 0 0 0 0 0 0 0 14110 0 0 27800 0 0 27763 0 0 27851 0 0 27912 0 0 27787 0 0 27661 0 0 27578 0 0 27662 0 0 27475 0 0 27547 0 0 27614 0 0 27625 0 0 27725 0 0 27572 0 0 27952 0 0 27838 0 0 27744 0 0 27639 0 0 27654 0 0 27983 0 0 27707 0 0 27730 0 0 27949 0 0 27979 0 0 27784 0 0 27459 0 0 27321 0 0 27666 0 0 27983 0 0 27764 0 0 27771 0 0 27939 0 0 27826 0 0 27609 0 0 27792 0 0 27643 0 0 27804 0 0 27647 0 0 27662 0 0 13786 0 0 0 0 0 0 0 0 0 0 0 0 0 0 0 0 0 0 0 0 0 0 0 0 0 0 0 0 0 
0 0 0 0 0 0 0 0 0 0 0 0 0 0 0 0 0 0 0 0 0 0 0 0 0 0 0 0 0 0 13779 0 0 27658 0 0 27695 0 0 27767 0 0 27900 0 0 27420 0 0 27778 0 0 28006 0 0 27660 0 0 27728 0 0 27634 0 0 27611 0 0 27770 0 0 27928 0 0 27634 0 0 27621 0 0 27781 0 0 27745 0 0 27705 0 0 27741 0 0 27921 0 0 27495 0 0 27975 0 0 27615 0 0 27726 0 0 27796 0 0 27579 0 0 27808 0 0 27834 0 0 28001 0 0 27721 0 0 27690 0 0 27718 0 0 27609 0 0 27782 0 0 27929 0 0 27599 0 0 27774 0 0 27827 0 0 27408 0 0 13804 0 0 0 0 0 0 0 0 0 0 0 0 0 0 0 0 0 0 0 0 0 0 0 0 0 0 0 0 0 
0 0 0 0 0 0 0 0 0 0 0 0 0 0 0 0 0 0 0 0 0 0 0 0 0 0 0 0 0 0 13636 0 0 27704 0 0 27719 0 0 27607 0 0 27872 0 0 27586 0 0 27473 0 0 27658 0 0 27797 0 0 27565 0 0 27711 0 0 27699 0 0 27815 0 0 27744 0 0 27750 0 0 27882 0 0 27947 0 0 27827 0 0 27996 0 0 27645 0 0 27825 0 0 27813 0 0 28012 0 0 27793 0 0 27705 0 0 27843 0 0 27762 0 0 27723 0 0 27690 0 0 27788 0 0 27626 0 0 27540 0 0 27865 0 0 27933 0 0 27504 0 0 27794 0 0 27705 0 0 27509 0 0 27791 0 0 27866 0 0 13784 0 0 0 0 0 0 0 0 0 0 0 0 0 0 0 0 0 0 0 0 0 0 0 0 0 0 0 0 0 
0 0 0 0 0 0 0 0 0 0 0 0 0 0 0 0 0 0 0 0 0 0 0 0 0 0 0 0 0 0 13935 0 0 27973 0 0 27694 0 0 27951 0 0 27664 0 0 27635 0 0 28163 0 0 27573 0 0 27488 0 0 27487 0 0 27697 0 0 27575 0 0 27766 0 0 27727 0 0 27646 0 0 27808 0 0 28077 0 0 27898 0 0 27801 0 0 27628 0 0 27752 0 0 27725 0 0 27577 0 0 27801 0 0 27594 0 0 27689 0 0 27311 0 0 27751 0 0 27501 0 0 27543 0 0 27523 0 0 27340 0 0 27571 0 0 27780 0 0 27682 0 0 28092 0 0 27670 0 0 27715 0 0 27773 0 0 27623 0 0 13930 0 0 0 0 0 0 0 0 0 0 0 0 0 0 0 0 0 0 0 0 0 0 0 0 0 0 0 0 0 
0 0 0 0 0 0 0 0 0 0 0 0 0 0 0 0 0 0 0 0 0 0 0 0 0 0 0 0 0 0 14179 0 0 27748 0 0 27370 0 0 27599 0 0 27692 0 0 27742 0 0 27497 0 0 27619 0 0 27663 0 0 27629 0 0 27760 0 0 27537 0 0 27637 0 0 27803 0 0 27908 0 0 28036 0 0 27892 0 0 28014 0 0 27700 0 0 27442 0 0 28007 0 0 27695 0 0 27447 0 0 27842 0 0 27530 0 0 28143 0 0 27623 0 0 27687 0 0 27701 0 0 27651 0 0 27857 0 0 27685 0 0 27570 0 0 27539 0 0 27698 0 0 27615 0 0 27745 0 0 27642 0 0 27491 0 0 27381 0 0 13591 0 0 0 0 0 0 0 0 0 0 0 0 0 0 0 0 0 0 0 0 0 0 0 0 0 0 0 0 0 
0 0 0 0 0 0 0 0 0 0 0 0 0 0 0 0 0 0 0 0 0 0 0 0 0 0 0 0 0 0 13955 0 0 27377 0 0 27851 0 0 27569 0 0 27720 0 0 28062 0 0 27763 0 0 27762 0 0 27776 0 0 27867 0 0 27466 0 0 27989 0 0 27982 0 0 27894 0 0 27944 0 0 27958 0 0 27792 0 0 27774 0 0 27797 0 0 27873 0 0 27518 0 0 27686 0 0 27605 0 0 27791 0 0 27797 0 0 27883 0 0 27846 0 0 27237 0 0 27820 0 0 27628 0 0 27732 0 0 27700 0 0 27699 0 0 27942 0 0 27552 0 0 27704 0 0 27755 0 0 27593 0 0 27697 0 0 27889 0 0 13908 0 0 0 0 0 0 0 0 0 0 0 0 0 0 0 0 0 0 0 0 0 0 0 0 0 0 0 0 0 
0 0 0 0 0 0 0 0 0 0 0 0 0 0 0 0 0 0 0 0 0 0 0 0 0 0 0 0 0 0 13893 0 0 27965 0 0 27844 0 0 27333 0 0 27532 0 0 27786 0 0 27868 0 0 27822 0 0 27612 0 0 27680 0 0 27864 0 0 27397 0 0 27922 0 0 27872 0 0 27670 0 0 27772 0 0 27737 0 0 27871 0 0 27645 0 0 27776 0 0 27540 0 0 27838 0 0 27566 0 0 27617 0 0 27752 0 0 27587 0 0 27885 0 0 27414 0 0 27531 0 0 27775 0 0 27933 0 0 27850 0 0 27896 0 0 27836 0 0 27797 0 0 27534 0 0 27393 0 0 27783 0 0 27942 0 0 27693 0 0 13801 0 0 0 0 0 0 0 0 0 0 0 0 0 0 0 0 0 0 0 0 0 0 0 0 0 0 0 0 0 
0 0 0 0 0 0 0 0 0 0 0 0 0 0 0 0 0 0 0 0 0 0 0 0 0 0 0 0 0 0 13887 0 0 27577 0 0 27805 0 0 27693 0 0 27688 0 0 27920 0 0 27752 0 0 27854 0 0 27748 0 0 27673 0 0 27808 0 0 27659 0 0 27453 0 0 27702 0 0 27309 0 0 27672 0 0 27560 0 0 27729 0 0 27555 0 0 27312 0 0 28163 0 0 27762 0 0 27718 0 0 27403 0 0 27742 0 0 27549 0 0 28012 0 0 27894 0 0 27847 0 0 27895 0 0 27518 0 0 27550 0 0 27643 0 0 27599 0 0 27622 0 0 27908 0 0 27499 0 0 27936 0 0 27781 0 0 27874 0 0 13886 0 0 0 0 0 0 0 0 0 0 0 0 0 0 0 0 0 0 0 0 0 0 0 0 0 0 0 0 0 
0 0 0 0 0 0 0 0 0 0 0 0 0 0 0 0 0 0 0 0 0 0 0 0 0 0 0 0 0 0 13836 0 0 27704 0 0 27982 0 0 27603 0 0 27592 0 0 27599 0 0 27969 0 0 27789 0 0 27816 0 0 27708 0 0 27490 0 0 27688 0 0 27446 0 0 27491 0 0 27675 0 0 27830 0 0 27775 0 0 27739 0 0 27642 0 0 27682 0 0 27646 0 0 27724 0 0 27556 0 0 27798 0 0 27658 0 0 27733 0 0 27422 0 0 27713 0 0 27972 0 0 27764 0 0 27865 0 0 27697 0 0 27770 0 0 27375 0 0 27616 0 0 27557 0 0 27687 0 0 27732 0 0 27876 0 0 27480 0 0 13532 0 0 0 0 0 0 0 0 0 0 0 0 0 0 0 0 0 0 0 0 0 0 0 0 0 0 0 0 0 
0 0 0 0 0 0 0 0 0 0 0 0 0 0 0 0 0 0 0 0 0 0 0 0 0 0 0 0 0 0 6813 0 0 13782 0 0 13732 0 0 13704 0 0 13764 0 0 14034 0 0 13885 0 0 13574 0 0 13993 0 0 14014 0 0 13858 0 0 13896 0 0 13828 0 0 13934 0 0 13807 0 0 13816 0 0 13936 0 0 13848 0 0 13730 0 0 13880 0 0 13758 0 0 13900 0 0 13973 0 0 13833 0 0 13754 0 0 13989 0 0 13887 0 0 13755 0 0 13883 0 0 13953 0 0 13956 0 0 13988 0 0 13933 0 0 13915 0 0 13950 0 0 13806 0 0 13786 0 0 13861 0 0 13757 0 0 13804 0 0 6843 0 0 0 0 0 0 0 0 0 0 0 0 0 0 0 0 0 0 0 0 0 0 0 0 0 0 0 0 0 
0 0 0 0 0 0 0 0 0 0 0 0 0 0 0 0 0 0 0 0 0 0 0 0 0 0 0 0 0 0 0 0 0 0 0 0 0 0 0 0 0 0 0 0 0 0 0 0 0 0 0 0 0 0 0 0 0 0 0 0 0 0 0 0 0 0 0 0 0 0 0 0 0 0 0 0 0 0 0 0 0 0 0 0 0 0 0 0 0 0 0 0 0 0 0 0 0 0 0 0 0 0 0 0 0 0 0 0 0 0 0 0 0 0 0 0 0 0 0 0 0 0 0 0 0 0 0 0 0 0 0 0 0 0 0 0 0 0 0 0 0 0 0 0 0 0 0 0 0 0 0 0 0 0 0 0 0 0 0 0 0 0 0 0 0 0 0 0 0 0 0 0 0 0 0 0 0 0 0 0 
0 0 0 0 0 0 0 0 0 0 0 0 0 0 0 0 0 0 0 0 0 0 0 0 0 0 0 0 0 0 0 0 0 0 0 0 0 0 0 0 0 0 0 0 0 0 0 0 0 0 0 0 0 0 0 0 0 0 0 0 0 0 0 0 0 0 0 0 0 0 0 0 0 0 0 0 0 0 0 0 0 0 0 0 0 0 0 0 0 0 0 0 0 0 0 0 0 0 0 0 0 0 0 0 0 0 0 0 0 0 0 0 0 0 0 0 0 0 0 0 0 0 0 0 0 0 0 0 0 0 0 0 0 0 0 0 0 0 0 0 0 0 0 0 0 0 0 0 0 0 0 0 0 0 0 0 0 0 0 0 0 0 0 0 0 0 0 0 0 0 0 0 0 0 0 0 0 0 0 0 
0 0 0 0 0 0 0 0 0 0 0 0 0 0 0 0 0 0 0 0 0 0 0 0 0 0 0 0 0 0 0 0 0 0 0 0 0 0 0 0 0 0 0 0 0 0 0 0 0 0 0 0 0 0 0 0 0 0 0 0 0 0 0 0 0 0 0 0 0 0 0 0 0 0 0 0 0 0 0 0 0 0 0 0 0 0 0 0 0 0 0 0 0 0 0 0 0 0 0 0 0 0 0 0 0 0 0 0 0 0 0 0 0 0 0 0 0 0 0 0 0 0 0 0 0 0 0 0 0 0 0 0 0 0 0 0 0 0 0 0 0 0 0 0 0 0 0 0 0 0 0 0 0 0 0 0 0 0 0 0 0 0 0 0 0 0 0 0 0 0 0 0 0 0 0 0 0 0 0 0 
0 0 0 0 0 0 0 0 0 0 0 0 0 0 0 0 0 0 0 0 0 0 0 0 0 0 0 0 0 0 0 0 0 0 0 0 0 0 0 0 0 0 0 0 0 0 0 0 0 0 0 0 0 0 0 0 0 0 0 0 0 0 0 0 0 0 0 0 0 0 0 0 0 0 0 0 0 0 0 0 0 0 0 0 0 0 0 0 0 0 0 0 0 0 0 0 0 0 0 0 0 0 0 0 0 0 0 0 0 0 0 0 0 0 0 0 0 0 0 0 0 0 0 0 0 0 0 0 0 0 0 0 0 0 0 0 0 0 0 0 0 0 0 0 0 0 0 0 0 0 0 0 0 0 0 0 0 0 0 0 0 0 0 0 0 0 0 0 0 0 0 0 0 0 0 0 0 0 0 0 
0 0 0 0 0 0 0 0 0 0 0 0 0 0 0 0 0 0 0 0 0 0 0 0 0 0 0 0 0 0 0 0 0 0 0 0 0 0 0 0 0 0 0 0 0 0 0 0 0 0 0 0 0 0 0 0 0 0 0 0 0 0 0 0 0 0 0 0 0 0 0 0 0 0 0 0 0 0 0 0 0 0 0 0 0 0 0 0 0 0 0 0 0 0 0 0 0 0 0 0 0 0 0 0 0 0 0 0 0 0 0 0 0 0 0 0 0 0 0 0 0 0 0 0 0 0 0 0 0 0 0 0 0 0 0 0 0 0 0 0 0 0 0 0 0 0 0 0 0 0 0 0 0 0 0 0 0 0 0 0 0 0 0 0 0 0 0 0 0 0 0 0 0 0 0 0 0 0 0 0 
0 0 0 0 0 0 0 0 0 0 0 0 0 0 0 0 0 0 0 0 0 0 0 0 0 0 0 0 0 0 0 0 0 0 0 0 0 0 0 0 0 0 0 0 0 0 0 0 0 0 0 0 0 0 0 0 0 0 0 0 0 0 0 0 0 0 0 0 0 0 0 0 0 0 0 0 0 0 0 0 0 0 0 0 0 0 0 0 0 0 0 0 0 0 0 0 0 0 0 0 0 0 0 0 0 0 0 0 0 0 0 0 0 0 0 0 0 0 0 0 0 0 0 0 0 0 0 0 0 0 0 0 0 0 0 0 0 0 0 0 0 0 0 0 0 0 0 0 0 0 0 0 0 0 0 0 0 0 0 0 0 0 0 0 0 0 0 0 0 0 0 0 0 0 0 0 0 0 0 0 
0 0 0 0 0 0 0 0 0 0 0 0 0 0 0 0 0 0 0 0 0 0 0 0 0 0 0 0 0 0 0 0 0 0 0 0 0 0 0 0 0 0 0 0 0 0 0 0 0 0 0 0 0 0 0 0 0 0 0 0 0 0 0 0 0 0 0 0 0 0 0 0 0 0 0 0 0 0 0 0 0 0 0 0 0 0 0 0 0 0 0 0 0 0 0 0 0 0 0 0 0 0 0 0 0 0 0 0 0 0 0 0 0 0 0 0 0 0 0 0 0 0 0 0 0 0 0 0 0 0 0 0 0 0 0 0 0 0 0 0 0 0 0 0 0 0 0 0 0 0 0 0 0 0 0 0 0 0 0 0 0 0 0 0 0 0 0 0 0 0 0 0 0 0 0 0 0 0 0 0 
0 0 0 0 0 0 0 0 0 0 0 0 0 0 0 0 0 0 0 0 0 0 0 0 0 0 0 0 0 0 0 0 0 0 0 0 0 0 0 0 0 0 0 0 0 0 0 0 0 0 0 0 0 0 0 0 0 0 0 0 0 0 0 0 0 0 0 0 0 0 0 0 0 0 0 0 0 0 0 0 0 0 0 0 0 0 0 0 0 0 0 0 0 0 0 0 0 0 0 0 0 0 0 0 0 0 0 0 0 0 0 0 0 0 0 0 0 0 0 0 0 0 0 0 0 0 0 0 0 0 0 0 0 0 0 0 0 0 0 0 0 0 0 0 0 0 0 0 0 0 0 0 0 0 0 0 0 0 0 0 0 0 0 0 0 0 0 0 0 0 0 0 0 0 0 0 0 0 0 0 
0 0 0 0 0 0 0 0 0 0 0 0 0 0 0 0 0 0 0 0 0 0 0 0 0 0 0 0 0 0 0 0 0 0 0 0 0 0 0 0 0 0 0 0 0 0 0 0 0 0 0 0 0 0 0 0 0 0 0 0 0 0 0 0 0 0 0 0 0 0 0 0 0 0 0 0 0 0 0 0 0 0 0 0 0 0 0 0 0 0 0 0 0 0 0 0 0 0 0 0 0 0 0 0 0 0 0 0 0 0 0 0 0 0 0 0 0 0 0 0 0 0 0 0 0 0 0 0 0 0 0 0 0 0 0 0 0 0 0 0 0 0 0 0 0 0 0 0 0 0 0 0 0 0 0 0 0 0 0 0 0 0 0 0 0 0 0 0 0 0 0 0 0 0 0 0 0 0 0 0 
