P3
# This is a dose file slice at depth 0 of 100
60 60
# now we give the maximum value of the RGB coordinates.
32920
0 0 0 0 0 0 1 0 0 1 0 0 2 0 0 2 0 0 0 0 0 1 0 0 0 0 0 0 0 0 0 0 0 1 0 0 0 0 0 2 0 0 1 0 0 2 0 0 2 0 0 2 0 0 0 0 0 2 0 0 1 0 0 1 0 0 1 0 0 3 0 0 0 0 0 1 0 0 1 0 0 2 0 0 2 0 0 0 0 0 2 0 0 2 0 0 2 0 0 2 0 0 1 0 0 4 0 0 2 0 0 0 0 0 1 0 0 1 0 0 2 0 0 0 0 0 2 0 0 1 0 0 0 0 0 0 0 0 3 0 0 0 0 0 1 0 0 1 0 0 1 0 0 3 0 0 1 0 0 0 0 0 0 0 0 1 0 0 1 0 0 0 0 0 0 0 0 0 0 0 
0 0 0 0 0 0 0 0 0 1 0 0 4 0 0 4 0 0 4 0 0 1 0 0 3 0 0 2 0 0 1 0 0 5 0 0 2 0 0 1 0 0 4 0 0 4 0 0 3 0 0 4 0 0 5 0 0 5 0 0 5 0 0 3 0 0 1 0 0 4 0 0 4 0 0 4 0 0 4 0 0 6 0 0 3 0 0 4 0 0 7 0 0 5 0 0 5 0 0 6 0 0 5 0 0 8 0 0 5 0 0 5 0 0 6 0 0 5 0 0 3 0 0 2 0 0 7 0 0 0 0 0 2 0 0 3 0 0 1 0 0 0 0 0 2 0 0 4 0 0 4 0 0 5 0 0 2 0 0 2 0 0 3 0 0 3 0 0 3 0 0 0 0 0 0 0 0 1 0 0 
1 0 0 1 0 0 0 0 0 0 0 0 0 0 0 3 0 0 3 0 0 5 0 0 3 0 0 1 0 0 0 0 0 2 0 0 2 0 0 5 0 0 2 0 0 3 0 0 5 0 0 5 0 0 6 0 0 6 0 0 3 0 0 3 0 0 3 0 0 5 0 0 4 0 0 5 0 0 3 0 0 2 0 0 4 0 0 2 0 0 8 0 0 5 0 0 4 0 0 7 0 0 5 0 0 8 0 0 4 0 0 4 0 0 4 0 0 2 0 0 1 0 0 3 0 0 4 0 0 2 0 0 4 0 0 5 0 0 7 0 0 3 0 0 7 0 0 3 0 0 2 0 0 2 0 0 1 0 0 6 0 0 0 0 0 3 0 0 1 0 0 0 0 0 1 0 0 1 0 0 
4 0 0 9 0 0 4 0 0 1 0 0 1 0 0 0 0 0 4 0 0 2 0 0 1 0 0 3 0 0 0 0 0 2 0 0 3 0 0 6 0 0 3 0 0 2 0 0 4 0 0 8 0 0 12 0 0 5 0 0 4 0 0 4 0 0 7 0 0 9 0 0 4 0 0 8 0 0 5 0 0 2 0 0 6 0 0 8 0 0 8 0 0 1 0 0 8 0 0 8 0 0 7 0 0 6 0 0 3 0 0 4 0 0 10 0 0 6 0 0 7 0 0 1 0 0 5 0 0 4 0 0 5 0 0 5 0 0 4 0 0 1 0 0 5 0 0 6 0 0 1 0 0 2 0 0 2 0 0 4 0 0 2 0 0 2 0 0 2 0 0 3 0 0 1 0 0 1 0 0 
1 0 0 5 0 0 1 0 0 1 0 0 2 0 0 0 0 0 1 0 0 5 0 0 5 0 0 6 0 0 3 0 0 3 0 0 3 0 0 3 0 0 3 0 0 5 0 0 6 0 0 4 0 0 9 0 0 4 0 0 3 0 0 5 0 0 9 0 0 4 0 0 6 0 0 12 0 0 7 0 0 1 0 0 8 0 0 6 0 0 10 0 0 4 0 0 5 0 0 9 0 0 5 0 0 4 0 0 4 0 0 5 0 0 5 0 0 7 0 0 9 0 0 3 0 0 5 0 0 8 0 0 3 0 0 5 0 0 4 0 0 5 0 0 3 0 0 6 0 0 6 0 0 3 0 0 4 0 0 4 0 0 3 0 0 2 0 0 1 0 0 1 0 0 0 0 0 1 0 0 
0 0 0 1 0 0 4 0 0 0 0 0 1 0 0 0 0 0 3 0 0 7 0 0 3 0 0 6 0 0 3 0 0 6 0 0 10 0 0 5 0 0 3 0 0 5 0 0 12 0 0 7 0 0 12 0 0 3 0 0 3 0 0 7 0 0 10 0 0 6 0 0 6 0 0 6 0 0 13 0 0 6 0 0 9 0 0 9 0 0 8 0 0 5 0 0 5 0 0 6 0 0 3 0 0 10 0 0 6 0 0 8 0 0 5 0 0 7 0 0 9 0 0 6 0 0 6 0 0 6 0 0 2 0 0 3 0 0 2 0 0 2 0 0 7 0 0 1 0 0 6 0 0 2 0 0 4 0 0 3 0 0 5 0 0 3 0 0 3 0 0 2 0 0 0 0 0 0 0 0 
0 0 0 4 0 0 3 0 0 5 0 0 3 0 0 2 0 0 1 0 0 3 0 0 4 0 0 4 0 0 7 0 0 9 0 0 10 0 0 12 0 0 7 0 0 5 0 0 8 0 0 7 0 0 8 0 0 5 0 0 8 0 0 8 0 0 8 0 0 11 0 0 13 0 0 11 0 0 13 0 0 7 0 0 8 0 0 7 0 0 7 0 0 10 0 0 7 0 0 8 0 0 14 0 0 6 0 0 12 0 0 7 0 0 7 0 0 4 0 0 8 0 0 7 0 0 12 0 0 10 0 0 8 0 0 8 0 0 7 0 0 7 0 0 7 0 0 6 0 0 5 0 0 3 0 0 1 0 0 2 0 0 3 0 0 3 0 0 2 0 0 1 0 0 1 0 0 1 0 0 
1 0 0 4 0 0 4 0 0 5 0 0 6 0 0 3 0 0 5 0 0 1 0 0 3 0 0 5 0 0 11 0 0 2 0 0 12 0 0 13 0 0 7 0 0 11 0 0 13 0 0 15 0 0 9 0 0 7 0 0 8 0 0 8 0 0 11 0 0 12 0 0 12 0 0 12 0 0 15 0 0 11 0 0 11 0 0 9 0 0 6 0 0 8 0 0 9 0 0 10 0 0 14 0 0 9 0 0 15 0 0 10 0 0 8 0 0 11 0 0 10 0 0 8 0 0 8 0 0 6 0 0 8 0 0 5 0 0 7 0 0 3 0 0 8 0 0 4 0 0 7 0 0 3 0 0 1 0 0 4 0 0 5 0 0 4 0 0 5 0 0 5 0 0 0 0 0 1 0 0 
1 0 0 2 0 0 0 0 0 2 0 0 1 0 0 5 0 0 8 0 0 12 0 0 2 0 0 10 0 0 6 0 0 3 0 0 12 0 0 16 0 0 14 0 0 10 0 0 13 0 0 19 0 0 10 0 0 11 0 0 13 0 0 12 0 0 14 0 0 17 0 0 14 0 0 12 0 0 15 0 0 12 0 0 14 0 0 12 0 0 12 0 0 13 0 0 9 0 0 6 0 0 16 0 0 20 0 0 20 0 0 13 0 0 13 0 0 15 0 0 13 0 0 9 0 0 7 0 0 11 0 0 12 0 0 14 0 0 9 0 0 5 0 0 7 0 0 3 0 0 10 0 0 4 0 0 8 0 0 9 0 0 5 0 0 2 0 0 5 0 0 2 0 0 3 0 0 1 0 0 
0 0 0 0 0 0 4 0 0 3 0 0 0 0 0 2 0 0 7 0 0 5 0 0 11 0 0 7 0 0 35 0 0 76 0 0 62 0 0 71 0 0 70 0 0 75 0 0 83 0 0 81 0 0 77 0 0 75 0 0 93 0 0 80 0 0 68 0 0 91 0 0 73 0 0 70 0 0 63 0 0 68 0 0 78 0 0 90 0 0 86 0 0 75 0 0 70 0 0 75 0 0 78 0 0 82 0 0 72 0 0 74 0 0 79 0 0 73 0 0 72 0 0 72 0 0 80 0 0 78 0 0 70 0 0 84 0 0 71 0 0 69 0 0 66 0 0 82 0 0 44 0 0 12 0 0 11 0 0 8 0 0 7 0 0 6 0 0 4 0 0 4 0 0 2 0 0 1 0 0 
0 0 0 2 0 0 0 0 0 2 0 0 3 0 0 4 0 0 2 0 0 11 0 0 8 0 0 44 0 0 4037 0 0 8086 0 0 8103 0 0 8075 0 0 8068 0 0 8213 0 0 8096 0 0 8124 0 0 8125 0 0 8088 0 0 8216 0 0 8125 0 0 8040 0 0 8045 0 0 8165 0 0 8153 0 0 8183 0 0 8174 0 0 8069 0 0 8192 0 0 8184 0 0 8179 0 0 8206 0 0 8094 0 0 8091 0 0 8199 0 0 8130 0 0 8240 0 0 8114 0 0 8069 0 0 8116 0 0 8143 0 0 8213 0 0 8031 0 0 8087 0 0 8127 0 0 8217 0 0 8131 0 0 8057 0 0 8010 0 0 4138 0 0 43 0 0 11 0 0 10 0 0 6 0 0 1 0 0 6 0 0 7 0 0 2 0 0 0 0 0 
0 0 0 3 0 0 7 0 0 5 0 0 1 0 0 4 0 0 5 0 0 6 0 0 12 0 0 70 0 0 8115 0 0 16134 0 0 16210 0 0 16138 0 0 15939 0 0 16144 0 0 16325 0 0 16217 0 0 16289 0 0 16098 0 0 16093 0 0 16229 0 0 16217 0 0 16199 0 0 16147 0 0 16178 0 0 16279 0 0 16056 0 0 16137 0 0 16047 0 0 16288 0 0 16147 0 0 16272 0 0 16013 0 0 16167 0 0 16095 0 0 16231 0 0 16141 0 0 16158 0 0 16200 0 0 16111 0 0 16193 0 0 16176 0 0 16203 0 0 16115 0 0 16071 0 0 16280 0 0 16317 0 0 16213 0 0 16129 0 0 8040 0 0 66 0 0 7 0 0 5 0 0 4 0 0 6 0 0 7 0 0 2 0 0 1 0 0 1 0 0 
0 0 0 2 0 0 4 0 0 4 0 0 4 0 0 8 0 0 7 0 0 6 0 0 13 0 0 80 0 0 8080 0 0 16309 0 0 16318 0 0 16381 0 0 16146 0 0 16076 0 0 16328 0 0 16409 0 0 16187 0 0 16247 0 0 16305 0 0 16241 0 0 16168 0 0 16442 0 0 16307 0 0 16256 0 0 16247 0 0 16230 0 0 16232 0 0 16406 0 0 16194 0 0 16125 0 0 16276 0 0 16217 0 0 16089 0 0 16204 0 0 16077 0 0 16316 0 0 16250 0 0 16242 0 0 16286 0 0 16307 0 0 16207 0 0 16232 0 0 16338 0 0 16320 0 0 16308 0 0 16232 0 0 16270 0 0 16008 0 0 8143 0 0 73 0 0 11 0 0 5 0 0 5 0 0 5 0 0 3 0 0 3 0 0 0 0 0 2 0 0 
3 0 0 6 0 0 7 0 0 6 0 0 5 0 0 4 0 0 3 0 0 9 0 0 7 0 0 72 0 0 8123 0 0 16143 0 0 16248 0 0 16380 0 0 16322 0 0 16205 0 0 16284 0 0 16204 0 0 16353 0 0 16198 0 0 16321 0 0 16237 0 0 16317 0 0 16180 0 0 16351 0 0 16313 0 0 16150 0 0 16271 0 0 16309 0 0 16226 0 0 16178 0 0 16151 0 0 16335 0 0 16099 0 0 16116 0 0 16242 0 0 16028 0 0 16197 0 0 16291 0 0 16307 0 0 16136 0 0 16214 0 0 16112 0 0 16112 0 0 16116 0 0 16301 0 0 16206 0 0 16255 0 0 16306 0 0 16273 0 0 8195 0 0 79 0 0 7 0 0 8 0 0 8 0 0 9 0 0 7 0 0 4 0 0 7 0 0 9 0 0 
1 0 0 5 0 0 4 0 0 7 0 0 4 0 0 5 0 0 5 0 0 3 0 0 5 0 0 83 0 0 8163 0 0 16141 0 0 16282 0 0 16109 0 0 16207 0 0 16376 0 0 16143 0 0 16316 0 0 16392 0 0 16249 0 0 16349 0 0 16237 0 0 16309 0 0 16312 0 0 16277 0 0 16228 0 0 16192 0 0 16232 0 0 16240 0 0 16177 0 0 16141 0 0 16307 0 0 16192 0 0 16094 0 0 16152 0 0 16241 0 0 16152 0 0 16227 0 0 16091 0 0 16252 0 0 16182 0 0 16256 0 0 16202 0 0 16112 0 0 16130 0 0 16088 0 0 16075 0 0 16246 0 0 16460 0 0 16245 0 0 8225 0 0 75 0 0 8 0 0 12 0 0 5 0 0 12 0 0 6 0 0 3 0 0 8 0 0 6 0 0 
2 0 0 5 0 0 1 0 0 4 0 0 1 0 0 5 0 0 3 0 0 7 0 0 12 0 0 80 0 0 8193 0 0 16199 0 0 16144 0 0 16324 0 0 16333 0 0 16309 0 0 16205 0 0 16291 0 0 16209 0 0 16202 0 0 16224 0 0 16350 0 0 16092 0 0 16310 0 0 16219 0 0 16310 0 0 16251 0 0 16199 0 0 16221 0 0 16316 0 0 16245 0 0 16172 0 0 16372 0 0 16313 0 0 16212 0 0 16308 0 0 16150 0 0 16298 0 0 16337 0 0 16325 0 0 16270 0 0 16275 0 0 16266 0 0 16183 0 0 16272 0 0 16314 0 0 16084 0 0 16176 0 0 16294 0 0 16289 0 0 8173 0 0 56 0 0 5 0 0 7 0 0 8 0 0 9 0 0 6 0 0 6 0 0 9 0 0 1 0 0 
2 0 0 4 0 0 4 0 0 2 0 0 6 0 0 7 0 0 7 0 0 7 0 0 7 0 0 77 0 0 8123 0 0 16032 0 0 16278 0 0 16289 0 0 16321 0 0 16337 0 0 16331 0 0 16210 0 0 16297 0 0 16444 0 0 16107 0 0 16166 0 0 16314 0 0 16187 0 0 16412 0 0 16251 0 0 16150 0 0 16094 0 0 16233 0 0 16330 0 0 16442 0 0 16130 0 0 16249 0 0 16387 0 0 16199 0 0 16268 0 0 16188 0 0 16089 0 0 16200 0 0 16335 0 0 16141 0 0 16327 0 0 16319 0 0 16205 0 0 16187 0 0 16400 0 0 16256 0 0 16214 0 0 16102 0 0 16176 0 0 8169 0 0 62 0 0 7 0 0 5 0 0 7 0 0 12 0 0 6 0 0 6 0 0 2 0 0 2 0 0 
2 0 0 4 0 0 0 0 0 5 0 0 11 0 0 6 0 0 12 0 0 9 0 0 10 0 0 70 0 0 8108 0 0 16086 0 0 16309 0 0 16284 0 0 16220 0 0 16269 0 0 16224 0 0 16180 0 0 16253 0 0 16250 0 0 16148 0 0 16217 0 0 16288 0 0 16152 0 0 16249 0 0 16249 0 0 16125 0 0 16175 0 0 16294 0 0 16163 0 0 16138 0 0 16275 0 0 16230 0 0 16210 0 0 16233 0 0 16318 0 0 16194 0 0 16315 0 0 16154 0 0 16318 0 0 16080 0 0 16179 0 0 16268 0 0 16252 0 0 16201 0 0 16197 0 0 16090 0 0 16184 0 0 16302 0 0 16165 0 0 8168 0 0 72 0 0 10 0 0 13 0 0 11 0 0 5 0 0 3 0 0 4 0 0 3 0 0 2 0 0 
1 0 0 3 0 0 3 0 0 3 0 0 7 0 0 4 0 0 3 0 0 9 0 0 16 0 0 79 0 0 8135 0 0 16028 0 0 16228 0 0 16395 0 0 16209 0 0 16304 0 0 16149 0 0 16163 0 0 16204 0 0 16219 0 0 16264 0 0 16524 0 0 16272 0 0 16260 0 0 16228 0 0 16309 0 0 16320 0 0 16207 0 0 16342 0 0 16329 0 0 16256 0 0 16283 0 0 16213 0 0 16332 0 0 16147 0 0 16128 0 0 16196 0 0 16121 0 0 16303 0 0 16354 0 0 16082 0 0 16297 0 0 16264 0 0 16250 0 0 16291 0 0 16210 0 0 16263 0 0 16371 0 0 16234 0 0 16167 0 0 8159 0 0 77 0 0 12 0 0 8 0 0 5 0 0 6 0 0 3 0 0 4 0 0 2 0 0 4 0 0 
3 0 0 3 0 0 5 0 0 6 0 0 10 0 0 5 0 0 4 0 0 8 0 0 12 0 0 71 0 0 8164 0 0 16131 0 0 16253 0 0 16201 0 0 16181 0 0 16079 0 0 16175 0 0 16272 0 0 16410 0 0 16255 0 0 16294 0 0 16356 0 0 16117 0 0 16107 0 0 16121 0 0 16328 0 0 16250 0 0 16185 0 0 16216 0 0 16316 0 0 16204 0 0 16244 0 0 16305 0 0 16192 0 0 16281 0 0 16185 0 0 16255 0 0 16177 0 0 16219 0 0 16320 0 0 16340 0 0 16307 0 0 16246 0 0 16352 0 0 16238 0 0 16297 0 0 16226 0 0 16317 0 0 16129 0 0 16085 0 0 8142 0 0 80 0 0 14 0 0 13 0 0 8 0 0 6 0 0 2 0 0 3 0 0 3 0 0 4 0 0 
0 0 0 5 0 0 6 0 0 6 0 0 5 0 0 7 0 0 8 0 0 15 0 0 19 0 0 83 0 0 8250 0 0 16183 0 0 16341 0 0 16392 0 0 16311 0 0 16289 0 0 16223 0 0 16308 0 0 16137 0 0 16227 0 0 16274 0 0 16215 0 0 16353 0 0 16186 0 0 16244 0 0 16233 0 0 16285 0 0 16275 0 0 16266 0 0 16323 0 0 16148 0 0 16218 0 0 16299 0 0 16330 0 0 16185 0 0 16198 0 0 16139 0 0 16323 0 0 16243 0 0 16403 0 0 16145 0 0 16273 0 0 16257 0 0 16178 0 0 16092 0 0 16164 0 0 16185 0 0 16281 0 0 16090 0 0 16193 0 0 8096 0 0 75 0 0 8 0 0 6 0 0 8 0 0 4 0 0 3 0 0 4 0 0 3 0 0 6 0 0 
0 0 0 1 0 0 3 0 0 5 0 0 6 0 0 8 0 0 9 0 0 10 0 0 14 0 0 76 0 0 8014 0 0 15980 0 0 16193 0 0 16141 0 0 16221 0 0 16261 0 0 16192 0 0 16103 0 0 16234 0 0 16412 0 0 16243 0 0 16171 0 0 16059 0 0 16324 0 0 16120 0 0 16376 0 0 16189 0 0 16181 0 0 16257 0 0 16361 0 0 16258 0 0 16397 0 0 16157 0 0 16269 0 0 16145 0 0 16348 0 0 16204 0 0 16122 0 0 16311 0 0 16199 0 0 16183 0 0 16272 0 0 16029 0 0 16123 0 0 16280 0 0 16268 0 0 16194 0 0 16193 0 0 16292 0 0 15952 0 0 8014 0 0 79 0 0 16 0 0 8 0 0 8 0 0 6 0 0 9 0 0 7 0 0 4 0 0 2 0 0 
2 0 0 4 0 0 12 0 0 7 0 0 1 0 0 6 0 0 9 0 0 7 0 0 16 0 0 73 0 0 8061 0 0 16159 0 0 16203 0 0 16202 0 0 16239 0 0 16293 0 0 16294 0 0 16264 0 0 16196 0 0 16235 0 0 16241 0 0 16282 0 0 16042 0 0 16308 0 0 16178 0 0 16242 0 0 16348 0 0 16133 0 0 16124 0 0 16139 0 0 16284 0 0 16268 0 0 16250 0 0 16136 0 0 16373 0 0 16396 0 0 16283 0 0 16272 0 0 16484 0 0 16198 0 0 16141 0 0 16393 0 0 16266 0 0 16266 0 0 16292 0 0 16262 0 0 16236 0 0 16047 0 0 16205 0 0 16036 0 0 8124 0 0 72 0 0 7 0 0 8 0 0 8 0 0 9 0 0 3 0 0 7 0 0 3 0 0 3 0 0 
3 0 0 5 0 0 5 0 0 9 0 0 4 0 0 6 0 0 5 0 0 7 0 0 13 0 0 84 0 0 8109 0 0 16184 0 0 16217 0 0 16253 0 0 16243 0 0 16278 0 0 16152 0 0 16261 0 0 16256 0 0 16291 0 0 16298 0 0 16251 0 0 16278 0 0 16222 0 0 16344 0 0 16235 0 0 16285 0 0 16047 0 0 16269 0 0 16100 0 0 16265 0 0 16428 0 0 16143 0 0 16306 0 0 16197 0 0 16171 0 0 16249 0 0 16241 0 0 16132 0 0 16129 0 0 16136 0 0 16201 0 0 16148 0 0 16306 0 0 16317 0 0 16326 0 0 16259 0 0 16267 0 0 16199 0 0 16147 0 0 8134 0 0 75 0 0 12 0 0 11 0 0 11 0 0 5 0 0 4 0 0 7 0 0 1 0 0 0 0 0 
0 0 0 3 0 0 4 0 0 5 0 0 6 0 0 6 0 0 9 0 0 9 0 0 9 0 0 74 0 0 8108 0 0 16274 0 0 16133 0 0 16193 0 0 16156 0 0 16246 0 0 16231 0 0 16176 0 0 16212 0 0 16374 0 0 16300 0 0 16021 0 0 16209 0 0 16329 0 0 16190 0 0 16213 0 0 16267 0 0 16277 0 0 16249 0 0 16321 0 0 16443 0 0 16243 0 0 16223 0 0 16291 0 0 16190 0 0 16140 0 0 16248 0 0 16287 0 0 16218 0 0 16269 0 0 16195 0 0 16338 0 0 16285 0 0 16271 0 0 16339 0 0 16219 0 0 16194 0 0 16255 0 0 16079 0 0 16354 0 0 8068 0 0 66 0 0 12 0 0 8 0 0 8 0 0 3 0 0 6 0 0 6 0 0 7 0 0 5 0 0 
1 0 0 1 0 0 3 0 0 7 0 0 9 0 0 8 0 0 11 0 0 12 0 0 11 0 0 74 0 0 8136 0 0 16225 0 0 16216 0 0 16426 0 0 16125 0 0 16248 0 0 16202 0 0 16435 0 0 16263 0 0 16284 0 0 16256 0 0 16147 0 0 16231 0 0 16235 0 0 16184 0 0 16316 0 0 16374 0 0 16288 0 0 16151 0 0 16255 0 0 16226 0 0 16130 0 0 16200 0 0 16245 0 0 16040 0 0 16271 0 0 16155 0 0 16443 0 0 16297 0 0 16255 0 0 16282 0 0 16194 0 0 16267 0 0 16303 0 0 16274 0 0 16401 0 0 16285 0 0 16360 0 0 16174 0 0 16345 0 0 8009 0 0 73 0 0 5 0 0 7 0 0 4 0 0 5 0 0 6 0 0 7 0 0 5 0 0 2 0 0 
3 0 0 10 0 0 8 0 0 7 0 0 6 0 0 9 0 0 13 0 0 16 0 0 17 0 0 83 0 0 8205 0 0 16139 0 0 16215 0 0 16215 0 0 16146 0 0 16140 0 0 16191 0 0 16180 0 0 16232 0 0 16192 0 0 16165 0 0 16295 0 0 16151 0 0 16237 0 0 16159 0 0 16259 0 0 16202 0 0 16262 0 0 16359 0 0 16151 0 0 16140 0 0 16192 0 0 16268 0 0 16255 0 0 16350 0 0 16205 0 0 16376 0 0 16166 0 0 16082 0 0 16206 0 0 16317 0 0 16199 0 0 16175 0 0 16388 0 0 16268 0 0 16296 0 0 16013 0 0 16264 0 0 16349 0 0 16043 0 0 8075 0 0 70 0 0 7 0 0 8 0 0 14 0 0 11 0 0 6 0 0 6 0 0 7 0 0 2 0 0 
0 0 0 1 0 0 3 0 0 7 0 0 6 0 0 11 0 0 9 0 0 12 0 0 9 0 0 87 0 0 8080 0 0 16268 0 0 16331 0 0 16189 0 0 16080 0 0 16235 0 0 16345 0 0 16180 0 0 16361 0 0 16221 0 0 16140 0 0 16221 0 0 16204 0 0 16228 0 0 16284 0 0 16224 0 0 16254 0 0 16205 0 0 16196 0 0 16175 0 0 16268 0 0 16238 0 0 16267 0 0 16182 0 0 16084 0 0 16240 0 0 16355 0 0 16296 0 0 16295 0 0 16305 0 0 16214 0 0 16328 0 0 16209 0 0 16350 0 0 16323 0 0 16213 0 0 16248 0 0 16340 0 0 16194 0 0 16236 0 0 8155 0 0 73 0 0 9 0 0 9 0 0 11 0 0 12 0 0 9 0 0 2 0 0 5 0 0 3 0 0 
0 0 0 3 0 0 4 0 0 5 0 0 4 0 0 6 0 0 9 0 0 7 0 0 12 0 0 77 0 0 8173 0 0 16195 0 0 16185 0 0 16275 0 0 16335 0 0 16199 0 0 16273 0 0 16311 0 0 16437 0 0 16201 0 0 16168 0 0 15986 0 0 16254 0 0 16257 0 0 16194 0 0 16295 0 0 16226 0 0 16183 0 0 16252 0 0 16285 0 0 16166 0 0 16309 0 0 16316 0 0 16176 0 0 16275 0 0 16168 0 0 16295 0 0 16374 0 0 16257 0 0 16332 0 0 16383 0 0 16279 0 0 16231 0 0 16316 0 0 16268 0 0 16272 0 0 16339 0 0 16252 0 0 16123 0 0 16049 0 0 8050 0 0 74 0 0 10 0 0 10 0 0 3 0 0 7 0 0 8 0 0 10 0 0 5 0 0 4 0 0 
1 0 0 3 0 0 4 0 0 4 0 0 5 0 0 7 0 0 11 0 0 9 0 0 14 0 0 73 0 0 8154 0 0 16161 0 0 16263 0 0 16282 0 0 16133 0 0 16305 0 0 16295 0 0 16188 0 0 16231 0 0 16212 0 0 16299 0 0 16267 0 0 16193 0 0 16309 0 0 16176 0 0 16329 0 0 16286 0 0 16148 0 0 16242 0 0 16300 0 0 16254 0 0 16335 0 0 16275 0 0 16363 0 0 16314 0 0 16200 0 0 16337 0 0 16036 0 0 16247 0 0 16206 0 0 16389 0 0 16333 0 0 16086 0 0 16263 0 0 16337 0 0 16191 0 0 16283 0 0 16208 0 0 16163 0 0 16205 0 0 8210 0 0 82 0 0 11 0 0 4 0 0 5 0 0 6 0 0 7 0 0 10 0 0 5 0 0 8 0 0 
2 0 0 2 0 0 4 0 0 3 0 0 5 0 0 6 0 0 9 0 0 13 0 0 13 0 0 73 0 0 8140 0 0 16058 0 0 16354 0 0 16296 0 0 16114 0 0 16331 0 0 16403 0 0 16168 0 0 16182 0 0 16326 0 0 16235 0 0 16202 0 0 16142 0 0 16205 0 0 16206 0 0 16224 0 0 16357 0 0 16288 0 0 16178 0 0 16279 0 0 16235 0 0 16265 0 0 16043 0 0 16289 0 0 16188 0 0 16328 0 0 16174 0 0 16203 0 0 16144 0 0 16335 0 0 16192 0 0 16251 0 0 16198 0 0 16185 0 0 16183 0 0 16290 0 0 16218 0 0 16274 0 0 16302 0 0 16116 0 0 8123 0 0 81 0 0 13 0 0 9 0 0 9 0 0 6 0 0 8 0 0 7 0 0 10 0 0 3 0 0 
3 0 0 6 0 0 4 0 0 7 0 0 3 0 0 4 0 0 7 0 0 15 0 0 15 0 0 69 0 0 8120 0 0 16330 0 0 16251 0 0 16334 0 0 16101 0 0 16285 0 0 16237 0 0 16211 0 0 16291 0 0 16197 0 0 16200 0 0 16155 0 0 16294 0 0 16247 0 0 16238 0 0 16264 0 0 16268 0 0 16245 0 0 16371 0 0 16352 0 0 16230 0 0 16133 0 0 16404 0 0 16245 0 0 16273 0 0 16132 0 0 16171 0 0 16270 0 0 16164 0 0 16229 0 0 16192 0 0 16231 0 0 16152 0 0 16178 0 0 16324 0 0 16219 0 0 16269 0 0 16333 0 0 16268 0 0 16167 0 0 8117 0 0 74 0 0 13 0 0 8 0 0 9 0 0 7 0 0 6 0 0 5 0 0 4 0 0 4 0 0 
3 0 0 6 0 0 11 0 0 7 0 0 6 0 0 8 0 0 13 0 0 11 0 0 12 0 0 74 0 0 8035 0 0 16326 0 0 16212 0 0 16284 0 0 16235 0 0 16232 0 0 16118 0 0 16235 0 0 16381 0 0 16226 0 0 16215 0 0 16291 0 0 16257 0 0 16081 0 0 16212 0 0 16426 0 0 16218 0 0 16205 0 0 16299 0 0 16149 0 0 16260 0 0 16198 0 0 16256 0 0 16266 0 0 16216 0 0 16087 0 0 16314 0 0 16138 0 0 16174 0 0 16108 0 0 16210 0 0 16071 0 0 16247 0 0 16339 0 0 16374 0 0 16207 0 0 16212 0 0 15936 0 0 16097 0 0 16179 0 0 8066 0 0 63 0 0 15 0 0 13 0 0 14 0 0 9 0 0 5 0 0 5 0 0 2 0 0 3 0 0 
0 0 0 3 0 0 5 0 0 5 0 0 8 0 0 7 0 0 9 0 0 14 0 0 19 0 0 72 0 0 8154 0 0 16091 0 0 16344 0 0 16318 0 0 16435 0 0 16166 0 0 16250 0 0 16331 0 0 16254 0 0 16269 0 0 16270 0 0 16266 0 0 16308 0 0 16263 0 0 16332 0 0 16204 0 0 16140 0 0 16257 0 0 16373 0 0 16104 0 0 16219 0 0 16249 0 0 16313 0 0 16240 0 0 16159 0 0 16318 0 0 16202 0 0 16320 0 0 16178 0 0 16282 0 0 16219 0 0 16252 0 0 16154 0 0 16101 0 0 16148 0 0 16231 0 0 16150 0 0 16140 0 0 16402 0 0 16168 0 0 8086 0 0 69 0 0 12 0 0 11 0 0 9 0 0 5 0 0 7 0 0 4 0 0 6 0 0 5 0 0 
0 0 0 3 0 0 2 0 0 5 0 0 11 0 0 11 0 0 8 0 0 13 0 0 15 0 0 67 0 0 8082 0 0 16189 0 0 16211 0 0 16274 0 0 16217 0 0 16223 0 0 16221 0 0 16320 0 0 16452 0 0 16271 0 0 16377 0 0 16240 0 0 16289 0 0 16314 0 0 16155 0 0 16204 0 0 16143 0 0 16335 0 0 16170 0 0 16348 0 0 16237 0 0 15951 0 0 16233 0 0 16133 0 0 16174 0 0 16187 0 0 16237 0 0 16218 0 0 16283 0 0 16165 0 0 16336 0 0 16180 0 0 16406 0 0 16254 0 0 16281 0 0 16234 0 0 16391 0 0 16200 0 0 16282 0 0 16131 0 0 8115 0 0 79 0 0 13 0 0 12 0 0 7 0 0 8 0 0 6 0 0 5 0 0 8 0 0 1 0 0 
1 0 0 5 0 0 4 0 0 4 0 0 7 0 0 6 0 0 8 0 0 10 0 0 9 0 0 78 0 0 8099 0 0 16116 0 0 16266 0 0 16376 0 0 16423 0 0 16253 0 0 16291 0 0 16373 0 0 16214 0 0 16257 0 0 16188 0 0 16213 0 0 16307 0 0 16342 0 0 16184 0 0 16155 0 0 16458 0 0 16296 0 0 16312 0 0 16279 0 0 16297 0 0 16270 0 0 16180 0 0 16268 0 0 16286 0 0 16238 0 0 16146 0 0 16160 0 0 16188 0 0 16316 0 0 16166 0 0 16200 0 0 16277 0 0 16216 0 0 16345 0 0 16231 0 0 16193 0 0 16363 0 0 16373 0 0 16273 0 0 8078 0 0 77 0 0 12 0 0 17 0 0 8 0 0 6 0 0 2 0 0 4 0 0 2 0 0 6 0 0 
3 0 0 6 0 0 5 0 0 6 0 0 4 0 0 8 0 0 13 0 0 14 0 0 12 0 0 72 0 0 8223 0 0 16168 0 0 16165 0 0 16282 0 0 16359 0 0 16283 0 0 16317 0 0 16279 0 0 16276 0 0 16215 0 0 16213 0 0 16207 0 0 16142 0 0 16251 0 0 16195 0 0 16252 0 0 16195 0 0 16402 0 0 16252 0 0 16289 0 0 16066 0 0 16202 0 0 16242 0 0 16412 0 0 16241 0 0 16187 0 0 16282 0 0 16246 0 0 16366 0 0 16271 0 0 16120 0 0 16317 0 0 16228 0 0 16220 0 0 16205 0 0 16208 0 0 16099 0 0 16136 0 0 16039 0 0 16069 0 0 8133 0 0 66 0 0 17 0 0 12 0 0 5 0 0 8 0 0 9 0 0 6 0 0 6 0 0 6 0 0 
1 0 0 6 0 0 5 0 0 8 0 0 2 0 0 6 0 0 13 0 0 12 0 0 19 0 0 84 0 0 8113 0 0 16095 0 0 16261 0 0 16525 0 0 16239 0 0 16230 0 0 16203 0 0 16240 0 0 16258 0 0 16261 0 0 16202 0 0 16219 0 0 16174 0 0 16270 0 0 16224 0 0 16168 0 0 16208 0 0 16160 0 0 16296 0 0 16168 0 0 16062 0 0 16106 0 0 16264 0 0 16217 0 0 16199 0 0 16185 0 0 16265 0 0 16150 0 0 16160 0 0 16234 0 0 16303 0 0 16194 0 0 16255 0 0 16300 0 0 16297 0 0 16205 0 0 16382 0 0 16306 0 0 16059 0 0 16118 0 0 8180 0 0 75 0 0 14 0 0 12 0 0 10 0 0 7 0 0 5 0 0 10 0 0 5 0 0 4 0 0 
1 0 0 5 0 0 6 0 0 4 0 0 7 0 0 9 0 0 12 0 0 13 0 0 13 0 0 78 0 0 8142 0 0 16348 0 0 16248 0 0 16260 0 0 16281 0 0 16339 0 0 16072 0 0 16308 0 0 16114 0 0 16344 0 0 16458 0 0 16290 0 0 16154 0 0 16228 0 0 16290 0 0 16249 0 0 16262 0 0 16200 0 0 16297 0 0 16276 0 0 16332 0 0 16134 0 0 16387 0 0 16275 0 0 16236 0 0 16218 0 0 16129 0 0 16267 0 0 16334 0 0 16262 0 0 16228 0 0 16161 0 0 16201 0 0 16178 0 0 16263 0 0 16283 0 0 16291 0 0 16275 0 0 16260 0 0 16145 0 0 8177 0 0 79 0 0 15 0 0 11 0 0 10 0 0 9 0 0 8 0 0 3 0 0 6 0 0 8 0 0 
3 0 0 6 0 0 4 0 0 2 0 0 4 0 0 9 0 0 11 0 0 8 0 0 11 0 0 69 0 0 8117 0 0 16302 0 0 16290 0 0 16107 0 0 16129 0 0 16171 0 0 16263 0 0 16198 0 0 16282 0 0 16154 0 0 16303 0 0 16136 0 0 16177 0 0 16415 0 0 16275 0 0 16027 0 0 16249 0 0 16338 0 0 16295 0 0 16257 0 0 16239 0 0 16287 0 0 16228 0 0 16293 0 0 16443 0 0 16155 0 0 16297 0 0 16213 0 0 16207 0 0 16263 0 0 16180 0 0 16133 0 0 16138 0 0 16181 0 0 16103 0 0 16373 0 0 16140 0 0 16364 0 0 16287 0 0 16013 0 0 8182 0 0 66 0 0 16 0 0 14 0 0 3 0 0 8 0 0 7 0 0 8 0 0 3 0 0 6 0 0 
1 0 0 3 0 0 4 0 0 7 0 0 6 0 0 6 0 0 10 0 0 17 0 0 17 0 0 77 0 0 8057 0 0 16157 0 0 16312 0 0 16167 0 0 16177 0 0 16260 0 0 16298 0 0 16358 0 0 16110 0 0 16261 0 0 16233 0 0 16116 0 0 16137 0 0 16118 0 0 16307 0 0 16064 0 0 16304 0 0 16239 0 0 16286 0 0 16305 0 0 16286 0 0 16229 0 0 16187 0 0 16290 0 0 16248 0 0 16170 0 0 16291 0 0 16255 0 0 16327 0 0 16320 0 0 16283 0 0 16305 0 0 16238 0 0 16472 0 0 16234 0 0 16364 0 0 16131 0 0 16233 0 0 16150 0 0 16062 0 0 8192 0 0 66 0 0 8 0 0 6 0 0 14 0 0 8 0 0 6 0 0 4 0 0 6 0 0 6 0 0 
0 0 0 4 0 0 9 0 0 9 0 0 7 0 0 9 0 0 6 0 0 11 0 0 9 0 0 73 0 0 8062 0 0 16204 0 0 16203 0 0 16295 0 0 16302 0 0 16379 0 0 16358 0 0 16288 0 0 16340 0 0 16251 0 0 16204 0 0 16085 0 0 16216 0 0 16193 0 0 16298 0 0 16225 0 0 16159 0 0 16402 0 0 16253 0 0 16140 0 0 16149 0 0 16223 0 0 16310 0 0 16353 0 0 16150 0 0 16279 0 0 16292 0 0 16286 0 0 16267 0 0 16348 0 0 16312 0 0 16224 0 0 16330 0 0 16291 0 0 16205 0 0 16180 0 0 16258 0 0 16429 0 0 16236 0 0 16299 0 0 8076 0 0 72 0 0 8 0 0 7 0 0 6 0 0 9 0 0 9 0 0 7 0 0 9 0 0 6 0 0 
3 0 0 4 0 0 4 0 0 7 0 0 3 0 0 11 0 0 12 0 0 9 0 0 13 0 0 82 0 0 7988 0 0 16225 0 0 16287 0 0 16101 0 0 16192 0 0 16094 0 0 16287 0 0 16254 0 0 16204 0 0 16302 0 0 16113 0 0 16153 0 0 16284 0 0 16248 0 0 16122 0 0 16086 0 0 16154 0 0 16379 0 0 16253 0 0 16248 0 0 16265 0 0 16284 0 0 16154 0 0 16188 0 0 16263 0 0 16414 0 0 16185 0 0 16300 0 0 16276 0 0 16464 0 0 16220 0 0 16092 0 0 16293 0 0 16387 0 0 16372 0 0 16211 0 0 16107 0 0 16399 0 0 16211 0 0 16147 0 0 8077 0 0 70 0 0 12 0 0 13 0 0 8 0 0 4 0 0 9 0 0 5 0 0 4 0 0 6 0 0 
2 0 0 5 0 0 3 0 0 1 0 0 2 0 0 5 0 0 12 0 0 9 0 0 12 0 0 77 0 0 8156 0 0 16208 0 0 16124 0 0 16193 0 0 16324 0 0 16225 0 0 16223 0 0 16264 0 0 16241 0 0 16159 0 0 16207 0 0 16209 0 0 16221 0 0 16214 0 0 16284 0 0 16217 0 0 16234 0 0 16141 0 0 16127 0 0 16162 0 0 16144 0 0 16290 0 0 16172 0 0 16197 0 0 16242 0 0 16424 0 0 16300 0 0 16348 0 0 16324 0 0 16190 0 0 16292 0 0 16314 0 0 16107 0 0 16251 0 0 16427 0 0 16053 0 0 16303 0 0 16313 0 0 16231 0 0 16301 0 0 8172 0 0 81 0 0 14 0 0 8 0 0 10 0 0 7 0 0 7 0 0 3 0 0 3 0 0 3 0 0 
0 0 0 1 0 0 3 0 0 2 0 0 3 0 0 3 0 0 6 0 0 11 0 0 16 0 0 73 0 0 8202 0 0 16086 0 0 16212 0 0 16201 0 0 16176 0 0 16328 0 0 16036 0 0 16296 0 0 16231 0 0 16207 0 0 16282 0 0 16343 0 0 16219 0 0 16207 0 0 16313 0 0 16169 0 0 16287 0 0 16071 0 0 16318 0 0 16243 0 0 16137 0 0 16233 0 0 16183 0 0 16323 0 0 16062 0 0 16138 0 0 16255 0 0 16211 0 0 16216 0 0 16199 0 0 16245 0 0 16146 0 0 16132 0 0 16264 0 0 16212 0 0 16193 0 0 16167 0 0 16149 0 0 16223 0 0 16086 0 0 8165 0 0 76 0 0 14 0 0 6 0 0 7 0 0 4 0 0 5 0 0 1 0 0 4 0 0 3 0 0 
1 0 0 3 0 0 4 0 0 3 0 0 7 0 0 5 0 0 8 0 0 9 0 0 14 0 0 70 0 0 8062 0 0 16297 0 0 16079 0 0 16205 0 0 16193 0 0 16314 0 0 16338 0 0 16173 0 0 16166 0 0 16268 0 0 16302 0 0 16224 0 0 16148 0 0 16258 0 0 16293 0 0 16360 0 0 16288 0 0 16179 0 0 16154 0 0 16180 0 0 16147 0 0 16297 0 0 16143 0 0 16212 0 0 16239 0 0 16371 0 0 16337 0 0 16342 0 0 16263 0 0 16172 0 0 16198 0 0 16391 0 0 16309 0 0 16276 0 0 16214 0 0 16377 0 0 16420 0 0 16168 0 0 16223 0 0 16223 0 0 8095 0 0 72 0 0 7 0 0 11 0 0 7 0 0 4 0 0 3 0 0 3 0 0 7 0 0 6 0 0 
2 0 0 4 0 0 3 0 0 4 0 0 8 0 0 9 0 0 9 0 0 13 0 0 12 0 0 68 0 0 8020 0 0 16117 0 0 16109 0 0 16349 0 0 16058 0 0 16227 0 0 16087 0 0 16279 0 0 16143 0 0 16168 0 0 16307 0 0 16309 0 0 16445 0 0 16264 0 0 16335 0 0 16158 0 0 16028 0 0 16103 0 0 16077 0 0 16158 0 0 16221 0 0 16187 0 0 16387 0 0 16223 0 0 16064 0 0 16251 0 0 16235 0 0 16340 0 0 16467 0 0 16364 0 0 16009 0 0 16223 0 0 16127 0 0 16293 0 0 16259 0 0 16333 0 0 16211 0 0 16271 0 0 16254 0 0 16223 0 0 8048 0 0 77 0 0 15 0 0 11 0 0 8 0 0 5 0 0 8 0 0 6 0 0 1 0 0 1 0 0 
3 0 0 0 0 0 4 0 0 2 0 0 4 0 0 6 0 0 7 0 0 8 0 0 10 0 0 71 0 0 8102 0 0 16165 0 0 16029 0 0 16219 0 0 16154 0 0 16185 0 0 16130 0 0 16195 0 0 16474 0 0 16326 0 0 16195 0 0 16247 0 0 16188 0 0 16351 0 0 16266 0 0 16243 0 0 16160 0 0 16231 0 0 16390 0 0 16145 0 0 16146 0 0 16351 0 0 16197 0 0 16373 0 0 16376 0 0 16247 0 0 16298 0 0 16410 0 0 16183 0 0 16257 0 0 16237 0 0 16110 0 0 16315 0 0 16164 0 0 16189 0 0 16361 0 0 16275 0 0 16272 0 0 16145 0 0 16081 0 0 8115 0 0 72 0 0 10 0 0 5 0 0 3 0 0 7 0 0 2 0 0 5 0 0 4 0 0 1 0 0 
0 0 0 4 0 0 5 0 0 3 0 0 4 0 0 4 0 0 9 0 0 9 0 0 15 0 0 73 0 0 8101 0 0 16121 0 0 16222 0 0 16185 0 0 16286 0 0 16137 0 0 16259 0 0 16221 0 0 16318 0 0 16139 0 0 16210 0 0 16198 0 0 16215 0 0 16370 0 0 16235 0 0 16289 0 0 16189 0 0 16091 0 0 16147 0 0 16162 0 0 16164 0 0 16194 0 0 16185 0 0 16310 0 0 16279 0 0 16172 0 0 16262 0 0 16178 0 0 16256 0 0 16238 0 0 16095 0 0 16335 0 0 16159 0 0 16390 0 0 16158 0 0 16128 0 0 16296 0 0 16198 0 0 16158 0 0 16144 0 0 8133 0 0 70 0 0 17 0 0 12 0 0 7 0 0 5 0 0 4 0 0 3 0 0 3 0 0 3 0 0 
1 0 0 4 0 0 5 0 0 5 0 0 4 0 0 8 0 0 8 0 0 9 0 0 6 0 0 70 0 0 8051 0 0 15969 0 0 16231 0 0 16231 0 0 16247 0 0 16077 0 0 16269 0 0 16262 0 0 16397 0 0 16173 0 0 16147 0 0 16217 0 0 16192 0 0 16216 0 0 16117 0 0 16430 0 0 16172 0 0 16210 0 0 16231 0 0 16219 0 0 16305 0 0 16231 0 0 16081 0 0 16176 0 0 16246 0 0 16206 0 0 16292 0 0 16188 0 0 16152 0 0 16173 0 0 16147 0 0 16086 0 0 16216 0 0 16109 0 0 16188 0 0 16145 0 0 16207 0 0 16099 0 0 16189 0 0 16221 0 0 8180 0 0 66 0 0 11 0 0 13 0 0 5 0 0 3 0 0 8 0 0 5 0 0 2 0 0 3 0 0 
0 0 0 3 0 0 2 0 0 5 0 0 7 0 0 7 0 0 7 0 0 6 0 0 8 0 0 47 0 0 4058 0 0 8076 0 0 8009 0 0 8112 0 0 8083 0 0 8171 0 0 8095 0 0 8008 0 0 8176 0 0 8134 0 0 8149 0 0 8190 0 0 8131 0 0 8136 0 0 8176 0 0 8064 0 0 8063 0 0 8152 0 0 8064 0 0 8145 0 0 8079 0 0 8165 0 0 8157 0 0 8056 0 0 8097 0 0 8124 0 0 8099 0 0 8105 0 0 8200 0 0 8065 0 0 8166 0 0 8049 0 0 8098 0 0 8080 0 0 8105 0 0 8102 0 0 8060 0 0 8196 0 0 8040 0 0 8063 0 0 4077 0 0 27 0 0 4 0 0 7 0 0 4 0 0 4 0 0 6 0 0 2 0 0 3 0 0 2 0 0 
1 0 0 2 0 0 2 0 0 1 0 0 4 0 0 8 0 0 6 0 0 5 0 0 4 0 0 7 0 0 41 0 0 68 0 0 80 0 0 67 0 0 76 0 0 66 0 0 75 0 0 82 0 0 81 0 0 75 0 0 67 0 0 91 0 0 79 0 0 83 0 0 82 0 0 72 0 0 80 0 0 75 0 0 86 0 0 73 0 0 70 0 0 78 0 0 89 0 0 68 0 0 77 0 0 73 0 0 65 0 0 74 0 0 83 0 0 75 0 0 81 0 0 73 0 0 63 0 0 78 0 0 76 0 0 67 0 0 78 0 0 75 0 0 64 0 0 59 0 0 30 0 0 5 0 0 3 0 0 3 0 0 6 0 0 5 0 0 2 0 0 2 0 0 3 0 0 4 0 0 
1 0 0 2 0 0 6 0 0 3 0 0 3 0 0 8 0 0 7 0 0 6 0 0 4 0 0 4 0 0 7 0 0 9 0 0 11 0 0 16 0 0 12 0 0 15 0 0 11 0 0 14 0 0 18 0 0 15 0 0 9 0 0 12 0 0 20 0 0 19 0 0 16 0 0 13 0 0 8 0 0 9 0 0 11 0 0 6 0 0 15 0 0 12 0 0 12 0 0 12 0 0 12 0 0 20 0 0 12 0 0 13 0 0 18 0 0 16 0 0 16 0 0 12 0 0 10 0 0 8 0 0 17 0 0 11 0 0 12 0 0 11 0 0 8 0 0 7 0 0 4 0 0 6 0 0 3 0 0 1 0 0 3 0 0 1 0 0 2 0 0 2 0 0 1 0 0 2 0 0 
0 0 0 2 0 0 4 0 0 0 0 0 7 0 0 11 0 0 7 0 0 6 0 0 5 0 0 6 0 0 6 0 0 7 0 0 12 0 0 10 0 0 10 0 0 6 0 0 8 0 0 6 0 0 9 0 0 12 0 0 4 0 0 16 0 0 17 0 0 12 0 0 8 0 0 4 0 0 7 0 0 11 0 0 8 0 0 10 0 0 15 0 0 9 0 0 13 0 0 16 0 0 7 0 0 11 0 0 10 0 0 11 0 0 10 0 0 20 0 0 10 0 0 11 0 0 6 0 0 9 0 0 8 0 0 11 0 0 12 0 0 10 0 0 8 0 0 4 0 0 3 0 0 1 0 0 1 0 0 2 0 0 4 0 0 7 0 0 1 0 0 1 0 0 1 0 0 1 0 0 
3 0 0 3 0 0 7 0 0 3 0 0 7 0 0 3 0 0 3 0 0 7 0 0 6 0 0 6 0 0 7 0 0 8 0 0 4 0 0 8 0 0 9 0 0 11 0 0 7 0 0 10 0 0 8 0 0 8 0 0 9 0 0 8 0 0 8 0 0 8 0 0 9 0 0 9 0 0 10 0 0 11 0 0 5 0 0 8 0 0 12 0 0 12 0 0 14 0 0 9 0 0 9 0 0 12 0 0 12 0 0 6 0 0 11 0 0 14 0 0 7 0 0 12 0 0 9 0 0 12 0 0 6 0 0 4 0 0 9 0 0 2 0 0 10 0 0 8 0 0 6 0 0 2 0 0 0 0 0 2 0 0 2 0 0 5 0 0 4 0 0 1 0 0 1 0 0 1 0 0 
0 0 0 1 0 0 1 0 0 0 0 0 1 0 0 1 0 0 1 0 0 5 0 0 6 0 0 4 0 0 5 0 0 2 0 0 4 0 0 4 0 0 8 0 0 8 0 0 7 0 0 9 0 0 8 0 0 7 0 0 3 0 0 8 0 0 7 0 0 9 0 0 6 0 0 9 0 0 9 0 0 5 0 0 4 0 0 7 0 0 9 0 0 4 0 0 13 0 0 6 0 0 4 0 0 10 0 0 8 0 0 6 0 0 7 0 0 8 0 0 6 0 0 8 0 0 8 0 0 7 0 0 11 0 0 6 0 0 8 0 0 2 0 0 5 0 0 6 0 0 9 0 0 3 0 0 2 0 0 2 0 0 1 0 0 2 0 0 7 0 0 1 0 0 2 0 0 2 0 0 
0 0 0 1 0 0 0 0 0 0 0 0 1 0 0 1 0 0 2 0 0 11 0 0 5 0 0 7 0 0 5 0 0 2 0 0 3 0 0 8 0 0 2 0 0 6 0 0 5 0 0 6 0 0 9 0 0 3 0 0 2 0 0 6 0 0 8 0 0 4 0 0 5 0 0 6 0 0 8 0 0 5 0 0 7 0 0 5 0 0 6 0 0 3 0 0 11 0 0 6 0 0 5 0 0 7 0 0 8 0 0 4 0 0 8 0 0 6 0 0 5 0 0 3 0 0 10 0 0 7 0 0 6 0 0 5 0 0 4 0 0 11 0 0 5 0 0 6 0 0 5 0 0 8 0 0 1 0 0 2 0 0 3 0 0 1 0 0 1 0 0 4 0 0 3 0 0 2 0 0 
1 0 0 0 0 0 0 0 0 0 0 0 3 0 0 1 0 0 2 0 0 7 0 0 4 0 0 5 0 0 4 0 0 3 0 0 4 0 0 7 0 0 3 0 0 3 0 0 7 0 0 5 0 0 2 0 0 4 0 0 2 0 0 4 0 0 6 0 0 10 0 0 4 0 0 5 0 0 6 0 0 4 0 0 6 0 0 4 0 0 4 0 0 2 0 0 4 0 0 6 0 0 4 0 0 6 0 0 4 0 0 4 0 0 9 0 0 5 0 0 2 0 0 5 0 0 5 0 0 5 0 0 6 0 0 7 0 0 2 0 0 6 0 0 4 0 0 5 0 0 2 0 0 5 0 0 5 0 0 1 0 0 2 0 0 4 0 0 5 0 0 2 0 0 4 0 0 3 0 0 
0 0 0 0 0 0 0 0 0 5 0 0 4 0 0 1 0 0 6 0 0 3 0 0 1 0 0 2 0 0 2 0 0 1 0 0 6 0 0 5 0 0 2 0 0 6 0 0 4 0 0 0 0 0 1 0 0 7 0 0 6 0 0 1 0 0 6 0 0 5 0 0 5 0 0 4 0 0 6 0 0 5 0 0 5 0 0 6 0 0 6 0 0 5 0 0 10 0 0 8 0 0 8 0 0 5 0 0 5 0 0 4 0 0 8 0 0 8 0 0 6 0 0 3 0 0 5 0 0 6 0 0 5 0 0 8 0 0 4 0 0 3 0 0 2 0 0 4 0 0 1 0 0 3 0 0 0 0 0 4 0 0 1 0 0 1 0 0 0 0 0 5 0 0 2 0 0 0 0 0 
0 0 0 0 0 0 3 0 0 0 0 0 2 0 0 3 0 0 6 0 0 3 0 0 4 0 0 1 0 0 1 0 0 1 0 0 4 0 0 3 0 0 1 0 0 4 0 0 5 0 0 4 0 0 0 0 0 4 0 0 6 0 0 1 0 0 2 0 0 5 0 0 7 0 0 7 0 0 4 0 0 3 0 0 1 0 0 7 0 0 6 0 0 4 0 0 5 0 0 5 0 0 4 0 0 7 0 0 2 0 0 5 0 0 3 0 0 6 0 0 7 0 0 3 0 0 0 0 0 2 0 0 1 0 0 6 0 0 6 0 0 1 0 0 3 0 0 3 0 0 3 0 0 3 0 0 2 0 0 1 0 0 2 0 0 4 0 0 1 0 0 1 0 0 4 0 0 2 0 0 
