P3
# This is a dose file slice at depth 88 of 100
60 60
# now we give the maximum value of the RGB coordinates.
32920
0 0 0 0 0 0 0 0 0 1 0 0 0 0 0 1 0 0 0 0 0 1 0 0 0 0 0 0 0 0 0 0 0 1 0 0 2 0 0 0 0 0 0 0 0 1 0 0 0 0 0 0 0 0 2 0 0 0 0 0 1 0 0 0 0 0 0 0 0 1 0 0 0 0 0 1 0 0 0 0 0 0 0 0 0 0 0 2 0 0 1 0 0 0 0 0 0 0 0 1 0 0 0 0 0 0 0 0 0 0 0 2 0 0 0 0 0 1 0 0 0 0 0 0 0 0 0 0 0 1 0 0 1 0 0 0 0 0 0 0 0 0 0 0 1 0 0 0 0 0 3 0 0 1 0 0 0 0 0 1 0 0 0 0 0 0 0 0 0 0 0 0 0 0 1 0 0 0 0 0 
0 0 0 0 0 0 0 0 0 2 0 0 3 0 0 0 0 0 0 0 0 3 0 0 0 0 0 1 0 0 0 0 0 1 0 0 2 0 0 5 0 0 0 0 0 2 0 0 1 0 0 2 0 0 3 0 0 0 0 0 3 0 0 0 0 0 1 0 0 4 0 0 3 0 0 1 0 0 3 0 0 2 0 0 0 0 0 3 0 0 2 0 0 1 0 0 1 0 0 0 0 0 0 0 0 3 0 0 3 0 0 2 0 0 1 0 0 3 0 0 2 0 0 0 0 0 0 0 0 3 0 0 3 0 0 1 0 0 0 0 0 0 0 0 3 0 0 4 0 0 2 0 0 1 0 0 3 0 0 2 0 0 1 0 0 1 0 0 1 0 0 3 0 0 0 0 0 0 0 0 
1 0 0 0 0 0 3 0 0 0 0 0 0 0 0 3 0 0 0 0 0 3 0 0 1 0 0 0 0 0 0 0 0 2 0 0 1 0 0 2 0 0 2 0 0 2 0 0 4 0 0 1 0 0 8 0 0 3 0 0 3 0 0 1 0 0 5 0 0 2 0 0 2 0 0 1 0 0 4 0 0 6 0 0 2 0 0 1 0 0 3 0 0 1 0 0 3 0 0 0 0 0 2 0 0 5 0 0 2 0 0 6 0 0 1 0 0 2 0 0 0 0 0 1 0 0 2 0 0 3 0 0 3 0 0 2 0 0 1 0 0 4 0 0 5 0 0 2 0 0 2 0 0 2 0 0 3 0 0 0 0 0 1 0 0 2 0 0 0 0 0 1 0 0 0 0 0 0 0 0 
0 0 0 4 0 0 2 0 0 3 0 0 0 0 0 4 0 0 2 0 0 0 0 0 4 0 0 3 0 0 0 0 0 0 0 0 1 0 0 2 0 0 3 0 0 0 0 0 5 0 0 5 0 0 2 0 0 4 0 0 3 0 0 1 0 0 2 0 0 5 0 0 2 0 0 3 0 0 3 0 0 4 0 0 4 0 0 4 0 0 2 0 0 5 0 0 2 0 0 4 0 0 3 0 0 2 0 0 1 0 0 2 0 0 2 0 0 4 0 0 1 0 0 1 0 0 5 0 0 2 0 0 2 0 0 2 0 0 1 0 0 3 0 0 2 0 0 6 0 0 1 0 0 1 0 0 4 0 0 2 0 0 6 0 0 0 0 0 0 0 0 0 0 0 2 0 0 0 0 0 
0 0 0 0 0 0 2 0 0 2 0 0 3 0 0 0 0 0 1 0 0 2 0 0 5 0 0 6 0 0 1 0 0 1 0 0 2 0 0 0 0 0 3 0 0 1 0 0 1 0 0 8 0 0 1 0 0 6 0 0 0 0 0 2 0 0 0 0 0 4 0 0 5 0 0 8 0 0 4 0 0 1 0 0 7 0 0 4 0 0 6 0 0 1 0 0 3 0 0 8 0 0 0 0 0 3 0 0 1 0 0 2 0 0 5 0 0 1 0 0 3 0 0 3 0 0 3 0 0 4 0 0 5 0 0 2 0 0 2 0 0 3 0 0 6 0 0 3 0 0 1 0 0 3 0 0 1 0 0 1 0 0 2 0 0 0 0 0 0 0 0 0 0 0 0 0 0 0 0 0 
0 0 0 2 0 0 1 0 0 1 0 0 3 0 0 3 0 0 2 0 0 4 0 0 1 0 0 2 0 0 5 0 0 2 0 0 1 0 0 0 0 0 1 0 0 2 0 0 5 0 0 4 0 0 2 0 0 5 0 0 4 0 0 4 0 0 2 0 0 1 0 0 7 0 0 2 0 0 3 0 0 3 0 0 5 0 0 7 0 0 4 0 0 2 0 0 5 0 0 7 0 0 4 0 0 3 0 0 2 0 0 5 0 0 5 0 0 4 0 0 6 0 0 6 0 0 8 0 0 3 0 0 4 0 0 7 0 0 0 0 0 4 0 0 1 0 0 5 0 0 2 0 0 2 0 0 4 0 0 3 0 0 2 0 0 0 0 0 2 0 0 1 0 0 0 0 0 0 0 0 
0 0 0 0 0 0 1 0 0 0 0 0 1 0 0 1 0 0 2 0 0 4 0 0 4 0 0 0 0 0 1 0 0 2 0 0 1 0 0 2 0 0 2 0 0 4 0 0 3 0 0 3 0 0 4 0 0 0 0 0 5 0 0 5 0 0 1 0 0 4 0 0 4 0 0 7 0 0 6 0 0 4 0 0 8 0 0 6 0 0 3 0 0 8 0 0 8 0 0 7 0 0 4 0 0 5 0 0 4 0 0 5 0 0 4 0 0 4 0 0 7 0 0 4 0 0 4 0 0 3 0 0 4 0 0 5 0 0 3 0 0 3 0 0 0 0 0 4 0 0 2 0 0 1 0 0 2 0 0 1 0 0 3 0 0 1 0 0 0 0 0 0 0 0 1 0 0 2 0 0 
0 0 0 0 0 0 1 0 0 1 0 0 0 0 0 2 0 0 2 0 0 3 0 0 2 0 0 5 0 0 3 0 0 4 0 0 5 0 0 3 0 0 8 0 0 3 0 0 4 0 0 3 0 0 6 0 0 4 0 0 8 0 0 4 0 0 9 0 0 5 0 0 3 0 0 7 0 0 10 0 0 4 0 0 3 0 0 9 0 0 4 0 0 9 0 0 10 0 0 10 0 0 8 0 0 8 0 0 4 0 0 9 0 0 6 0 0 6 0 0 6 0 0 3 0 0 6 0 0 7 0 0 3 0 0 6 0 0 6 0 0 4 0 0 4 0 0 2 0 0 2 0 0 3 0 0 2 0 0 1 0 0 2 0 0 0 0 0 1 0 0 0 0 0 1 0 0 0 0 0 
0 0 0 2 0 0 1 0 0 1 0 0 1 0 0 5 0 0 2 0 0 2 0 0 0 0 0 3 0 0 3 0 0 3 0 0 1 0 0 3 0 0 7 0 0 4 0 0 6 0 0 10 0 0 4 0 0 8 0 0 9 0 0 10 0 0 7 0 0 12 0 0 6 0 0 5 0 0 12 0 0 7 0 0 8 0 0 10 0 0 7 0 0 5 0 0 13 0 0 18 0 0 8 0 0 10 0 0 8 0 0 9 0 0 9 0 0 8 0 0 6 0 0 7 0 0 6 0 0 11 0 0 4 0 0 3 0 0 10 0 0 7 0 0 9 0 0 3 0 0 3 0 0 4 0 0 3 0 0 2 0 0 0 0 0 5 0 0 2 0 0 2 0 0 1 0 0 0 0 0 
0 0 0 0 0 0 0 0 0 3 0 0 3 0 0 0 0 0 1 0 0 6 0 0 0 0 0 10 0 0 15 0 0 35 0 0 41 0 0 37 0 0 52 0 0 32 0 0 47 0 0 42 0 0 45 0 0 37 0 0 43 0 0 51 0 0 46 0 0 47 0 0 42 0 0 39 0 0 36 0 0 47 0 0 48 0 0 49 0 0 44 0 0 38 0 0 36 0 0 52 0 0 48 0 0 36 0 0 46 0 0 38 0 0 41 0 0 47 0 0 43 0 0 54 0 0 43 0 0 48 0 0 40 0 0 33 0 0 35 0 0 43 0 0 33 0 0 37 0 0 21 0 0 1 0 0 2 0 0 0 0 0 2 0 0 2 0 0 2 0 0 1 0 0 3 0 0 7 0 0 
0 0 0 2 0 0 1 0 0 0 0 0 0 0 0 4 0 0 1 0 0 5 0 0 2 0 0 21 0 0 1218 0 0 2369 0 0 2403 0 0 2452 0 0 2401 0 0 2394 0 0 2441 0 0 2337 0 0 2427 0 0 2510 0 0 2448 0 0 2495 0 0 2390 0 0 2410 0 0 2386 0 0 2497 0 0 2383 0 0 2419 0 0 2404 0 0 2487 0 0 2406 0 0 2381 0 0 2370 0 0 2462 0 0 2378 0 0 2343 0 0 2381 0 0 2459 0 0 2410 0 0 2436 0 0 2440 0 0 2493 0 0 2382 0 0 2437 0 0 2439 0 0 2439 0 0 2428 0 0 2460 0 0 2482 0 0 2437 0 0 1243 0 0 12 0 0 4 0 0 1 0 0 2 0 0 5 0 0 5 0 0 5 0 0 5 0 0 5 0 0 
0 0 0 1 0 0 1 0 0 0 0 0 0 0 0 0 0 0 4 0 0 3 0 0 8 0 0 46 0 0 2389 0 0 4701 0 0 4758 0 0 4777 0 0 4760 0 0 4752 0 0 4761 0 0 4745 0 0 4906 0 0 4823 0 0 4765 0 0 4895 0 0 4823 0 0 4879 0 0 4811 0 0 4854 0 0 4744 0 0 4867 0 0 4818 0 0 4763 0 0 4735 0 0 4752 0 0 4820 0 0 4808 0 0 4841 0 0 4895 0 0 4847 0 0 4855 0 0 4793 0 0 4847 0 0 4838 0 0 4723 0 0 4856 0 0 4793 0 0 4850 0 0 4737 0 0 4796 0 0 4791 0 0 4804 0 0 4672 0 0 2396 0 0 42 0 0 8 0 0 3 0 0 3 0 0 6 0 0 6 0 0 5 0 0 5 0 0 5 0 0 
3 0 0 1 0 0 0 0 0 0 0 0 1 0 0 3 0 0 3 0 0 3 0 0 5 0 0 43 0 0 2432 0 0 4743 0 0 4687 0 0 4765 0 0 4807 0 0 4794 0 0 4931 0 0 4897 0 0 4825 0 0 4848 0 0 4733 0 0 4853 0 0 4890 0 0 4844 0 0 4973 0 0 4884 0 0 4862 0 0 4924 0 0 4784 0 0 4884 0 0 4773 0 0 4854 0 0 4685 0 0 4663 0 0 4796 0 0 4790 0 0 4678 0 0 4731 0 0 4963 0 0 4730 0 0 4849 0 0 4741 0 0 4810 0 0 4913 0 0 4861 0 0 4799 0 0 4892 0 0 4850 0 0 4816 0 0 4860 0 0 2389 0 0 37 0 0 6 0 0 4 0 0 1 0 0 4 0 0 3 0 0 1 0 0 3 0 0 0 0 0 
0 0 0 1 0 0 1 0 0 4 0 0 1 0 0 1 0 0 3 0 0 1 0 0 7 0 0 37 0 0 2403 0 0 4898 0 0 4817 0 0 4716 0 0 4766 0 0 4708 0 0 4778 0 0 4749 0 0 4895 0 0 4833 0 0 4803 0 0 4877 0 0 4852 0 0 4690 0 0 4800 0 0 4836 0 0 4831 0 0 4834 0 0 4884 0 0 4976 0 0 4976 0 0 4793 0 0 4794 0 0 4776 0 0 4657 0 0 4856 0 0 4838 0 0 4841 0 0 4822 0 0 4961 0 0 4913 0 0 4921 0 0 4837 0 0 4740 0 0 4898 0 0 4860 0 0 4965 0 0 4713 0 0 4949 0 0 4841 0 0 2450 0 0 51 0 0 6 0 0 6 0 0 1 0 0 4 0 0 1 0 0 1 0 0 0 0 0 2 0 0 
1 0 0 5 0 0 4 0 0 0 0 0 0 0 0 3 0 0 2 0 0 3 0 0 10 0 0 41 0 0 2400 0 0 4725 0 0 4765 0 0 4812 0 0 4939 0 0 4883 0 0 4780 0 0 4922 0 0 4943 0 0 4818 0 0 4839 0 0 4917 0 0 4871 0 0 4811 0 0 4823 0 0 4789 0 0 4723 0 0 4747 0 0 4858 0 0 4756 0 0 4886 0 0 4731 0 0 4758 0 0 4871 0 0 4837 0 0 4899 0 0 4889 0 0 4822 0 0 4933 0 0 4814 0 0 4921 0 0 4881 0 0 4753 0 0 4853 0 0 4835 0 0 4793 0 0 4823 0 0 4851 0 0 4818 0 0 4908 0 0 2387 0 0 39 0 0 6 0 0 5 0 0 7 0 0 7 0 0 5 0 0 4 0 0 5 0 0 6 0 0 
0 0 0 0 0 0 4 0 0 1 0 0 2 0 0 5 0 0 2 0 0 3 0 0 8 0 0 44 0 0 2359 0 0 4925 0 0 4930 0 0 4857 0 0 4894 0 0 4815 0 0 4866 0 0 4861 0 0 4777 0 0 4752 0 0 4930 0 0 4771 0 0 4778 0 0 4838 0 0 4860 0 0 4929 0 0 4679 0 0 4871 0 0 4784 0 0 4941 0 0 4847 0 0 4874 0 0 4847 0 0 4782 0 0 4851 0 0 4692 0 0 4904 0 0 4849 0 0 4904 0 0 4878 0 0 4869 0 0 4816 0 0 4745 0 0 4839 0 0 4852 0 0 4781 0 0 4871 0 0 4863 0 0 4724 0 0 4780 0 0 2450 0 0 36 0 0 9 0 0 0 0 0 2 0 0 7 0 0 4 0 0 1 0 0 2 0 0 3 0 0 
1 0 0 1 0 0 2 0 0 0 0 0 0 0 0 2 0 0 4 0 0 3 0 0 7 0 0 47 0 0 2364 0 0 4824 0 0 4823 0 0 4892 0 0 4910 0 0 4783 0 0 4868 0 0 4823 0 0 4952 0 0 4793 0 0 4886 0 0 4815 0 0 4873 0 0 4772 0 0 4969 0 0 4725 0 0 4794 0 0 4819 0 0 4722 0 0 4884 0 0 4857 0 0 4751 0 0 4716 0 0 4874 0 0 4818 0 0 4859 0 0 4935 0 0 4737 0 0 4819 0 0 4821 0 0 4843 0 0 4824 0 0 4952 0 0 4829 0 0 4840 0 0 4905 0 0 4665 0 0 4849 0 0 4751 0 0 4854 0 0 2435 0 0 47 0 0 7 0 0 6 0 0 4 0 0 3 0 0 2 0 0 3 0 0 1 0 0 0 0 0 
0 0 0 3 0 0 5 0 0 6 0 0 3 0 0 1 0 0 3 0 0 3 0 0 4 0 0 37 0 0 2362 0 0 4860 0 0 4898 0 0 4827 0 0 4873 0 0 4915 0 0 4813 0 0 4786 0 0 4819 0 0 4835 0 0 4889 0 0 4821 0 0 4921 0 0 4796 0 0 4844 0 0 4832 0 0 4788 0 0 4842 0 0 4731 0 0 4867 0 0 4861 0 0 4759 0 0 4914 0 0 4820 0 0 4907 0 0 4773 0 0 4840 0 0 4855 0 0 4913 0 0 4784 0 0 4880 0 0 4720 0 0 4799 0 0 4858 0 0 4913 0 0 4677 0 0 4807 0 0 4738 0 0 4728 0 0 4807 0 0 2388 0 0 43 0 0 12 0 0 3 0 0 3 0 0 4 0 0 2 0 0 3 0 0 0 0 0 0 0 0 
1 0 0 4 0 0 3 0 0 4 0 0 5 0 0 3 0 0 3 0 0 4 0 0 9 0 0 38 0 0 2405 0 0 4742 0 0 4847 0 0 4829 0 0 4744 0 0 4888 0 0 4898 0 0 4792 0 0 5038 0 0 4708 0 0 4721 0 0 4820 0 0 4842 0 0 4822 0 0 4907 0 0 4841 0 0 5001 0 0 4854 0 0 4781 0 0 4741 0 0 4741 0 0 4882 0 0 4925 0 0 4904 0 0 4767 0 0 4850 0 0 4907 0 0 4828 0 0 4838 0 0 4848 0 0 4972 0 0 4876 0 0 4968 0 0 4866 0 0 4905 0 0 4761 0 0 4930 0 0 4840 0 0 4760 0 0 4748 0 0 2357 0 0 38 0 0 10 0 0 7 0 0 3 0 0 4 0 0 3 0 0 2 0 0 1 0 0 0 0 0 
0 0 0 2 0 0 6 0 0 5 0 0 1 0 0 6 0 0 1 0 0 2 0 0 4 0 0 44 0 0 2427 0 0 4886 0 0 4841 0 0 4880 0 0 4778 0 0 4811 0 0 4867 0 0 4830 0 0 4840 0 0 4808 0 0 4815 0 0 4810 0 0 4857 0 0 4878 0 0 4834 0 0 4834 0 0 4653 0 0 4778 0 0 4823 0 0 4862 0 0 4891 0 0 4928 0 0 4757 0 0 4848 0 0 4813 0 0 4873 0 0 4898 0 0 4811 0 0 4831 0 0 4848 0 0 4867 0 0 4840 0 0 4786 0 0 4839 0 0 4830 0 0 4920 0 0 4844 0 0 4745 0 0 4956 0 0 4765 0 0 2281 0 0 47 0 0 8 0 0 10 0 0 5 0 0 5 0 0 3 0 0 1 0 0 0 0 0 1 0 0 
1 0 0 1 0 0 2 0 0 8 0 0 3 0 0 2 0 0 6 0 0 7 0 0 7 0 0 37 0 0 2378 0 0 4906 0 0 4792 0 0 4795 0 0 4740 0 0 4801 0 0 4887 0 0 4923 0 0 4798 0 0 4849 0 0 4790 0 0 4837 0 0 4779 0 0 4903 0 0 4739 0 0 4896 0 0 4935 0 0 4765 0 0 4717 0 0 4827 0 0 4837 0 0 4835 0 0 4819 0 0 4772 0 0 4826 0 0 4843 0 0 5023 0 0 4825 0 0 4828 0 0 4810 0 0 4875 0 0 4872 0 0 4922 0 0 4754 0 0 4892 0 0 4808 0 0 4914 0 0 4871 0 0 4772 0 0 5021 0 0 2393 0 0 33 0 0 8 0 0 5 0 0 9 0 0 6 0 0 5 0 0 0 0 0 2 0 0 2 0 0 
1 0 0 1 0 0 3 0 0 6 0 0 2 0 0 3 0 0 3 0 0 9 0 0 7 0 0 42 0 0 2400 0 0 4950 0 0 4810 0 0 4834 0 0 4878 0 0 4836 0 0 4824 0 0 4905 0 0 4826 0 0 4844 0 0 4736 0 0 4862 0 0 4880 0 0 4853 0 0 4822 0 0 4865 0 0 4886 0 0 4825 0 0 4817 0 0 4844 0 0 4835 0 0 4802 0 0 4913 0 0 4916 0 0 4779 0 0 4999 0 0 4889 0 0 4882 0 0 4886 0 0 4917 0 0 4926 0 0 4935 0 0 4815 0 0 4870 0 0 4819 0 0 4796 0 0 4747 0 0 4674 0 0 4829 0 0 4874 0 0 2412 0 0 44 0 0 12 0 0 3 0 0 4 0 0 7 0 0 8 0 0 3 0 0 2 0 0 3 0 0 
1 0 0 1 0 0 3 0 0 6 0 0 7 0 0 7 0 0 3 0 0 5 0 0 4 0 0 43 0 0 2419 0 0 4723 0 0 4806 0 0 4877 0 0 4856 0 0 4801 0 0 4755 0 0 4710 0 0 4827 0 0 4768 0 0 4774 0 0 4971 0 0 4852 0 0 4764 0 0 4916 0 0 4905 0 0 4778 0 0 4812 0 0 4899 0 0 4813 0 0 4974 0 0 4839 0 0 4859 0 0 4822 0 0 4804 0 0 4863 0 0 4825 0 0 4882 0 0 4832 0 0 4908 0 0 4817 0 0 4897 0 0 4715 0 0 4759 0 0 4746 0 0 4829 0 0 4870 0 0 4828 0 0 4827 0 0 4811 0 0 2386 0 0 37 0 0 7 0 0 4 0 0 5 0 0 6 0 0 2 0 0 4 0 0 2 0 0 2 0 0 
0 0 0 3 0 0 5 0 0 4 0 0 6 0 0 5 0 0 7 0 0 5 0 0 11 0 0 36 0 0 2559 0 0 4770 0 0 4769 0 0 4855 0 0 4895 0 0 4875 0 0 4834 0 0 4784 0 0 4927 0 0 4739 0 0 4800 0 0 4773 0 0 4872 0 0 4915 0 0 4759 0 0 4813 0 0 4929 0 0 4894 0 0 4739 0 0 4764 0 0 4717 0 0 4769 0 0 4845 0 0 4864 0 0 4772 0 0 4728 0 0 4965 0 0 4975 0 0 4870 0 0 4861 0 0 4768 0 0 4776 0 0 4717 0 0 4856 0 0 4778 0 0 4894 0 0 4873 0 0 4774 0 0 4955 0 0 4705 0 0 2396 0 0 46 0 0 10 0 0 8 0 0 6 0 0 1 0 0 1 0 0 2 0 0 3 0 0 0 0 0 
0 0 0 0 0 0 0 0 0 3 0 0 3 0 0 5 0 0 5 0 0 7 0 0 8 0 0 43 0 0 2386 0 0 4920 0 0 4800 0 0 4824 0 0 4926 0 0 4810 0 0 4827 0 0 4856 0 0 4837 0 0 4860 0 0 4960 0 0 4800 0 0 4799 0 0 4827 0 0 4903 0 0 4832 0 0 4883 0 0 4784 0 0 4820 0 0 4853 0 0 4788 0 0 4860 0 0 4834 0 0 4911 0 0 4775 0 0 4811 0 0 4789 0 0 4960 0 0 4926 0 0 4783 0 0 4799 0 0 4746 0 0 4817 0 0 4758 0 0 4848 0 0 4761 0 0 4866 0 0 4914 0 0 4858 0 0 4815 0 0 2407 0 0 42 0 0 4 0 0 6 0 0 0 0 0 0 0 0 0 0 0 2 0 0 2 0 0 0 0 0 
2 0 0 4 0 0 0 0 0 3 0 0 1 0 0 2 0 0 4 0 0 2 0 0 4 0 0 39 0 0 2422 0 0 4767 0 0 4939 0 0 4777 0 0 4867 0 0 4883 0 0 4768 0 0 4908 0 0 4743 0 0 4819 0 0 4786 0 0 4952 0 0 4927 0 0 4885 0 0 4867 0 0 4774 0 0 4770 0 0 4866 0 0 4876 0 0 4876 0 0 4819 0 0 4860 0 0 4887 0 0 4996 0 0 4913 0 0 4810 0 0 4793 0 0 4854 0 0 4893 0 0 4859 0 0 4859 0 0 4827 0 0 4754 0 0 4783 0 0 4774 0 0 4831 0 0 4739 0 0 4858 0 0 4785 0 0 4769 0 0 2418 0 0 40 0 0 6 0 0 5 0 0 3 0 0 2 0 0 4 0 0 4 0 0 1 0 0 4 0 0 
1 0 0 1 0 0 3 0 0 3 0 0 2 0 0 4 0 0 8 0 0 10 0 0 11 0 0 38 0 0 2433 0 0 4783 0 0 4715 0 0 4919 0 0 4839 0 0 4894 0 0 4859 0 0 4861 0 0 4825 0 0 4777 0 0 4865 0 0 4753 0 0 4876 0 0 4824 0 0 4827 0 0 4840 0 0 4740 0 0 4801 0 0 4885 0 0 4821 0 0 4764 0 0 4900 0 0 4824 0 0 4771 0 0 4835 0 0 4874 0 0 4811 0 0 4741 0 0 4819 0 0 4818 0 0 4883 0 0 4882 0 0 4698 0 0 4785 0 0 4766 0 0 4964 0 0 4929 0 0 4807 0 0 4806 0 0 4785 0 0 2457 0 0 44 0 0 7 0 0 4 0 0 4 0 0 4 0 0 3 0 0 3 0 0 2 0 0 2 0 0 
0 0 0 4 0 0 1 0 0 6 0 0 4 0 0 2 0 0 6 0 0 5 0 0 4 0 0 44 0 0 2383 0 0 4676 0 0 4923 0 0 4749 0 0 4876 0 0 4922 0 0 4938 0 0 4783 0 0 4821 0 0 4862 0 0 4704 0 0 4732 0 0 4884 0 0 4805 0 0 4802 0 0 4899 0 0 4854 0 0 4789 0 0 4964 0 0 4896 0 0 4819 0 0 4890 0 0 4739 0 0 4797 0 0 4832 0 0 4783 0 0 4852 0 0 4847 0 0 4833 0 0 4873 0 0 4914 0 0 4727 0 0 4825 0 0 4829 0 0 4850 0 0 4862 0 0 4720 0 0 4962 0 0 4795 0 0 4746 0 0 2439 0 0 51 0 0 12 0 0 4 0 0 5 0 0 6 0 0 4 0 0 2 0 0 0 0 0 4 0 0 
0 0 0 0 0 0 1 0 0 0 0 0 2 0 0 3 0 0 4 0 0 6 0 0 8 0 0 46 0 0 2407 0 0 4759 0 0 4787 0 0 4882 0 0 4900 0 0 4849 0 0 4886 0 0 4911 0 0 4770 0 0 4787 0 0 4794 0 0 4839 0 0 4867 0 0 4870 0 0 4869 0 0 4843 0 0 4832 0 0 4912 0 0 4855 0 0 4839 0 0 4796 0 0 4795 0 0 4900 0 0 4763 0 0 4906 0 0 4808 0 0 4887 0 0 4795 0 0 4873 0 0 4859 0 0 4850 0 0 4857 0 0 4814 0 0 4935 0 0 4804 0 0 4859 0 0 4858 0 0 4832 0 0 4833 0 0 4878 0 0 2389 0 0 40 0 0 8 0 0 5 0 0 9 0 0 5 0 0 2 0 0 3 0 0 5 0 0 3 0 0 
0 0 0 0 0 0 1 0 0 5 0 0 3 0 0 2 0 0 9 0 0 8 0 0 16 0 0 46 0 0 2428 0 0 4797 0 0 4727 0 0 4931 0 0 4786 0 0 4869 0 0 4831 0 0 4869 0 0 5027 0 0 4746 0 0 4841 0 0 4837 0 0 4872 0 0 4826 0 0 4922 0 0 4858 0 0 4843 0 0 4802 0 0 4833 0 0 4961 0 0 4745 0 0 4798 0 0 4925 0 0 4875 0 0 4829 0 0 4870 0 0 4844 0 0 4800 0 0 4875 0 0 4733 0 0 4874 0 0 4961 0 0 4824 0 0 4897 0 0 4874 0 0 4868 0 0 4770 0 0 4727 0 0 4858 0 0 4698 0 0 2369 0 0 43 0 0 8 0 0 6 0 0 9 0 0 4 0 0 3 0 0 2 0 0 6 0 0 0 0 0 
0 0 0 1 0 0 2 0 0 3 0 0 5 0 0 8 0 0 12 0 0 10 0 0 10 0 0 44 0 0 2512 0 0 4801 0 0 4797 0 0 4885 0 0 4758 0 0 4854 0 0 4861 0 0 4976 0 0 4862 0 0 4926 0 0 4764 0 0 4890 0 0 4815 0 0 4782 0 0 4816 0 0 4797 0 0 4749 0 0 4766 0 0 4892 0 0 4873 0 0 4787 0 0 4776 0 0 4810 0 0 4914 0 0 4746 0 0 4808 0 0 4821 0 0 4772 0 0 4861 0 0 4746 0 0 4705 0 0 4942 0 0 4825 0 0 4677 0 0 4808 0 0 4801 0 0 4832 0 0 4864 0 0 4878 0 0 4854 0 0 2374 0 0 51 0 0 9 0 0 3 0 0 2 0 0 4 0 0 3 0 0 0 0 0 0 0 0 1 0 0 
2 0 0 5 0 0 3 0 0 5 0 0 5 0 0 5 0 0 7 0 0 5 0 0 10 0 0 50 0 0 2456 0 0 4844 0 0 4962 0 0 4888 0 0 4705 0 0 4909 0 0 4962 0 0 4897 0 0 4849 0 0 4860 0 0 4867 0 0 4763 0 0 4817 0 0 4898 0 0 4818 0 0 4862 0 0 4967 0 0 4828 0 0 4824 0 0 4783 0 0 4785 0 0 4773 0 0 4786 0 0 4979 0 0 4840 0 0 4784 0 0 4804 0 0 4807 0 0 4801 0 0 4873 0 0 4851 0 0 4889 0 0 4853 0 0 4756 0 0 4821 0 0 4816 0 0 4847 0 0 4794 0 0 4907 0 0 4736 0 0 2392 0 0 46 0 0 10 0 0 8 0 0 3 0 0 1 0 0 5 0 0 6 0 0 3 0 0 2 0 0 
0 0 0 5 0 0 4 0 0 3 0 0 6 0 0 5 0 0 6 0 0 10 0 0 6 0 0 44 0 0 2431 0 0 4837 0 0 4864 0 0 4813 0 0 4915 0 0 4812 0 0 4900 0 0 4793 0 0 4791 0 0 4732 0 0 4812 0 0 4769 0 0 4923 0 0 4829 0 0 4759 0 0 4805 0 0 4730 0 0 4807 0 0 4706 0 0 4772 0 0 4933 0 0 4800 0 0 4785 0 0 4955 0 0 4768 0 0 4707 0 0 4887 0 0 4809 0 0 4850 0 0 4815 0 0 4803 0 0 4809 0 0 4824 0 0 4832 0 0 4799 0 0 4783 0 0 4822 0 0 4869 0 0 4861 0 0 4824 0 0 2408 0 0 46 0 0 5 0 0 7 0 0 4 0 0 6 0 0 4 0 0 0 0 0 3 0 0 3 0 0 
0 0 0 4 0 0 3 0 0 3 0 0 3 0 0 3 0 0 6 0 0 8 0 0 6 0 0 41 0 0 2409 0 0 4778 0 0 4879 0 0 4790 0 0 4774 0 0 4841 0 0 4705 0 0 4798 0 0 4753 0 0 4914 0 0 4818 0 0 4813 0 0 4914 0 0 4928 0 0 4829 0 0 4645 0 0 4787 0 0 4753 0 0 4730 0 0 4907 0 0 4841 0 0 4762 0 0 4824 0 0 4736 0 0 4824 0 0 4783 0 0 4787 0 0 4812 0 0 4903 0 0 4836 0 0 4865 0 0 4782 0 0 4755 0 0 4863 0 0 4809 0 0 4802 0 0 4746 0 0 4803 0 0 4901 0 0 4789 0 0 2442 0 0 55 0 0 9 0 0 9 0 0 0 0 0 2 0 0 0 0 0 6 0 0 2 0 0 1 0 0 
0 0 0 1 0 0 3 0 0 3 0 0 1 0 0 3 0 0 6 0 0 5 0 0 9 0 0 45 0 0 2346 0 0 4810 0 0 4879 0 0 4779 0 0 4768 0 0 4703 0 0 4808 0 0 4915 0 0 4920 0 0 4901 0 0 4820 0 0 4755 0 0 4700 0 0 4783 0 0 4797 0 0 4842 0 0 4822 0 0 4820 0 0 4869 0 0 4797 0 0 4842 0 0 4892 0 0 4893 0 0 4804 0 0 4734 0 0 4848 0 0 4820 0 0 4876 0 0 4713 0 0 4920 0 0 4864 0 0 4722 0 0 4898 0 0 4917 0 0 4828 0 0 4811 0 0 4748 0 0 4784 0 0 4676 0 0 4821 0 0 2412 0 0 38 0 0 3 0 0 5 0 0 2 0 0 5 0 0 4 0 0 3 0 0 4 0 0 2 0 0 
0 0 0 2 0 0 1 0 0 3 0 0 4 0 0 4 0 0 4 0 0 5 0 0 8 0 0 37 0 0 2474 0 0 4730 0 0 4823 0 0 4753 0 0 4793 0 0 4964 0 0 4776 0 0 4722 0 0 4762 0 0 4768 0 0 4767 0 0 4841 0 0 4800 0 0 4814 0 0 4813 0 0 4922 0 0 4794 0 0 4848 0 0 4805 0 0 4773 0 0 4838 0 0 4862 0 0 4859 0 0 4830 0 0 4728 0 0 4901 0 0 4918 0 0 4781 0 0 4867 0 0 4859 0 0 4785 0 0 4769 0 0 4887 0 0 4876 0 0 4767 0 0 4990 0 0 4776 0 0 4771 0 0 4829 0 0 4842 0 0 2412 0 0 42 0 0 7 0 0 5 0 0 3 0 0 6 0 0 4 0 0 4 0 0 1 0 0 1 0 0 
0 0 0 1 0 0 1 0 0 0 0 0 2 0 0 1 0 0 2 0 0 4 0 0 7 0 0 42 0 0 2383 0 0 4828 0 0 4805 0 0 4785 0 0 4858 0 0 4719 0 0 4889 0 0 4855 0 0 4846 0 0 4844 0 0 4826 0 0 4850 0 0 4792 0 0 4874 0 0 4862 0 0 4773 0 0 4807 0 0 4803 0 0 4784 0 0 4760 0 0 4851 0 0 4900 0 0 4779 0 0 4778 0 0 4939 0 0 4808 0 0 4892 0 0 4839 0 0 4881 0 0 4732 0 0 4824 0 0 4803 0 0 4891 0 0 4989 0 0 4804 0 0 4839 0 0 4690 0 0 4703 0 0 4976 0 0 4774 0 0 2310 0 0 43 0 0 6 0 0 6 0 0 4 0 0 3 0 0 4 0 0 5 0 0 2 0 0 4 0 0 
2 0 0 0 0 0 3 0 0 4 0 0 3 0 0 4 0 0 2 0 0 6 0 0 4 0 0 39 0 0 2336 0 0 4785 0 0 4828 0 0 4823 0 0 4859 0 0 4860 0 0 4905 0 0 4882 0 0 4834 0 0 4759 0 0 4796 0 0 4908 0 0 4743 0 0 4721 0 0 4872 0 0 4715 0 0 4909 0 0 4997 0 0 4822 0 0 4792 0 0 4669 0 0 4884 0 0 4760 0 0 4794 0 0 4875 0 0 4813 0 0 4870 0 0 4779 0 0 4879 0 0 4874 0 0 4829 0 0 4826 0 0 4924 0 0 4926 0 0 4855 0 0 4912 0 0 4778 0 0 4798 0 0 4858 0 0 4793 0 0 2450 0 0 42 0 0 8 0 0 6 0 0 11 0 0 6 0 0 1 0 0 2 0 0 2 0 0 1 0 0 
0 0 0 1 0 0 1 0 0 1 0 0 1 0 0 4 0 0 7 0 0 9 0 0 8 0 0 36 0 0 2457 0 0 4789 0 0 4748 0 0 4920 0 0 4860 0 0 4853 0 0 4806 0 0 4969 0 0 4816 0 0 4874 0 0 4853 0 0 4768 0 0 4905 0 0 4863 0 0 4795 0 0 4772 0 0 4836 0 0 4730 0 0 4823 0 0 4756 0 0 4792 0 0 4888 0 0 4865 0 0 4772 0 0 4902 0 0 4768 0 0 4742 0 0 4671 0 0 4768 0 0 4676 0 0 4772 0 0 4750 0 0 4869 0 0 4820 0 0 4847 0 0 4856 0 0 4747 0 0 4642 0 0 4671 0 0 4854 0 0 2431 0 0 48 0 0 9 0 0 6 0 0 5 0 0 5 0 0 2 0 0 3 0 0 3 0 0 4 0 0 
0 0 0 3 0 0 2 0 0 3 0 0 3 0 0 5 0 0 4 0 0 7 0 0 13 0 0 49 0 0 2455 0 0 4859 0 0 4809 0 0 4785 0 0 4832 0 0 4855 0 0 4775 0 0 4814 0 0 4830 0 0 4775 0 0 4873 0 0 4792 0 0 4751 0 0 4832 0 0 4747 0 0 4830 0 0 4795 0 0 4822 0 0 4895 0 0 4796 0 0 4743 0 0 4777 0 0 4775 0 0 4767 0 0 4870 0 0 4918 0 0 4756 0 0 4810 0 0 4749 0 0 4845 0 0 4770 0 0 4841 0 0 4853 0 0 4974 0 0 4792 0 0 4898 0 0 4922 0 0 4758 0 0 4828 0 0 4673 0 0 2470 0 0 35 0 0 12 0 0 4 0 0 6 0 0 6 0 0 5 0 0 4 0 0 4 0 0 3 0 0 
0 0 0 0 0 0 1 0 0 0 0 0 1 0 0 3 0 0 2 0 0 7 0 0 10 0 0 49 0 0 2416 0 0 4785 0 0 4790 0 0 4759 0 0 4782 0 0 4884 0 0 4775 0 0 4838 0 0 4796 0 0 4764 0 0 4760 0 0 4819 0 0 4816 0 0 4779 0 0 4890 0 0 4739 0 0 4935 0 0 4768 0 0 4812 0 0 4779 0 0 4821 0 0 4777 0 0 4822 0 0 4815 0 0 4870 0 0 4900 0 0 4809 0 0 4812 0 0 4715 0 0 4875 0 0 4846 0 0 4707 0 0 4792 0 0 4918 0 0 4815 0 0 4753 0 0 4851 0 0 4859 0 0 4702 0 0 4780 0 0 2412 0 0 44 0 0 7 0 0 5 0 0 3 0 0 0 0 0 0 0 0 2 0 0 0 0 0 3 0 0 
0 0 0 1 0 0 2 0 0 3 0 0 4 0 0 6 0 0 10 0 0 8 0 0 6 0 0 40 0 0 2351 0 0 4856 0 0 4867 0 0 4895 0 0 4815 0 0 4860 0 0 4873 0 0 4793 0 0 4822 0 0 4878 0 0 4788 0 0 4846 0 0 4810 0 0 4735 0 0 4862 0 0 4964 0 0 4864 0 0 4859 0 0 4865 0 0 4878 0 0 4873 0 0 4819 0 0 4766 0 0 4866 0 0 4947 0 0 4982 0 0 4852 0 0 4828 0 0 4890 0 0 4888 0 0 4826 0 0 4820 0 0 4806 0 0 4800 0 0 4801 0 0 4824 0 0 4793 0 0 4868 0 0 4776 0 0 4837 0 0 2427 0 0 48 0 0 8 0 0 2 0 0 3 0 0 5 0 0 4 0 0 4 0 0 4 0 0 3 0 0 
0 0 0 0 0 0 1 0 0 2 0 0 5 0 0 4 0 0 3 0 0 6 0 0 6 0 0 36 0 0 2414 0 0 4805 0 0 4782 0 0 4861 0 0 4781 0 0 4814 0 0 4869 0 0 4839 0 0 4719 0 0 4688 0 0 4777 0 0 4852 0 0 4830 0 0 4872 0 0 4834 0 0 4840 0 0 4868 0 0 4813 0 0 4812 0 0 4900 0 0 4953 0 0 4835 0 0 4724 0 0 4836 0 0 4770 0 0 4730 0 0 4826 0 0 4774 0 0 4749 0 0 4765 0 0 4897 0 0 4853 0 0 4850 0 0 4832 0 0 4896 0 0 4991 0 0 4799 0 0 4805 0 0 4742 0 0 4810 0 0 2441 0 0 37 0 0 10 0 0 6 0 0 4 0 0 3 0 0 2 0 0 3 0 0 0 0 0 0 0 0 
0 0 0 1 0 0 1 0 0 4 0 0 2 0 0 3 0 0 6 0 0 8 0 0 6 0 0 31 0 0 2467 0 0 4857 0 0 4831 0 0 4839 0 0 4783 0 0 4954 0 0 4796 0 0 4686 0 0 4896 0 0 4862 0 0 4806 0 0 4885 0 0 4797 0 0 4812 0 0 4709 0 0 4763 0 0 4846 0 0 4792 0 0 4907 0 0 4766 0 0 4877 0 0 4876 0 0 4761 0 0 4841 0 0 4962 0 0 4767 0 0 4884 0 0 4799 0 0 4864 0 0 4813 0 0 4907 0 0 4848 0 0 4817 0 0 4759 0 0 4850 0 0 4763 0 0 4767 0 0 4880 0 0 4694 0 0 4758 0 0 2461 0 0 44 0 0 6 0 0 7 0 0 4 0 0 6 0 0 6 0 0 3 0 0 2 0 0 1 0 0 
2 0 0 2 0 0 3 0 0 1 0 0 1 0 0 3 0 0 6 0 0 4 0 0 12 0 0 47 0 0 2435 0 0 4816 0 0 4810 0 0 4851 0 0 4805 0 0 4792 0 0 4758 0 0 4770 0 0 4858 0 0 4837 0 0 4886 0 0 4857 0 0 4908 0 0 4777 0 0 4853 0 0 4880 0 0 4932 0 0 4872 0 0 4926 0 0 4790 0 0 4860 0 0 4872 0 0 4893 0 0 4918 0 0 4829 0 0 4872 0 0 4790 0 0 4805 0 0 4902 0 0 4752 0 0 4868 0 0 4845 0 0 4864 0 0 4842 0 0 4846 0 0 4925 0 0 4798 0 0 4772 0 0 4911 0 0 4805 0 0 2444 0 0 35 0 0 8 0 0 3 0 0 4 0 0 5 0 0 3 0 0 3 0 0 3 0 0 0 0 0 
0 0 0 1 0 0 5 0 0 0 0 0 3 0 0 5 0 0 3 0 0 11 0 0 5 0 0 40 0 0 2487 0 0 4772 0 0 4852 0 0 4723 0 0 4796 0 0 4879 0 0 4842 0 0 4787 0 0 4816 0 0 4787 0 0 4821 0 0 4800 0 0 4888 0 0 4943 0 0 4707 0 0 4748 0 0 4793 0 0 4948 0 0 4777 0 0 4823 0 0 4842 0 0 4846 0 0 4957 0 0 4809 0 0 4771 0 0 4851 0 0 4898 0 0 4831 0 0 4712 0 0 4724 0 0 4909 0 0 5005 0 0 4857 0 0 4811 0 0 4808 0 0 4851 0 0 4858 0 0 4863 0 0 4692 0 0 4720 0 0 2420 0 0 34 0 0 4 0 0 6 0 0 5 0 0 5 0 0 1 0 0 4 0 0 3 0 0 3 0 0 
0 0 0 1 0 0 1 0 0 1 0 0 4 0 0 3 0 0 2 0 0 8 0 0 4 0 0 46 0 0 2426 0 0 4833 0 0 4787 0 0 4689 0 0 4888 0 0 4763 0 0 4758 0 0 4812 0 0 4834 0 0 4852 0 0 4859 0 0 4825 0 0 4806 0 0 4806 0 0 4821 0 0 4802 0 0 4805 0 0 4873 0 0 4941 0 0 4806 0 0 4791 0 0 4786 0 0 4777 0 0 4878 0 0 4890 0 0 4855 0 0 4835 0 0 4757 0 0 4791 0 0 4945 0 0 4825 0 0 4841 0 0 4893 0 0 4873 0 0 4917 0 0 4803 0 0 4806 0 0 4748 0 0 4933 0 0 4865 0 0 2312 0 0 42 0 0 9 0 0 9 0 0 8 0 0 8 0 0 4 0 0 0 0 0 0 0 0 2 0 0 
1 0 0 1 0 0 2 0 0 1 0 0 2 0 0 7 0 0 4 0 0 1 0 0 4 0 0 44 0 0 2385 0 0 4797 0 0 4817 0 0 4864 0 0 4762 0 0 4801 0 0 4823 0 0 4887 0 0 4824 0 0 4953 0 0 4842 0 0 4814 0 0 4846 0 0 4877 0 0 4872 0 0 4881 0 0 4769 0 0 4856 0 0 4886 0 0 4868 0 0 4886 0 0 4880 0 0 4744 0 0 4899 0 0 4810 0 0 4918 0 0 4792 0 0 4825 0 0 4823 0 0 4794 0 0 4792 0 0 4812 0 0 4852 0 0 4852 0 0 4918 0 0 4780 0 0 4875 0 0 4769 0 0 4854 0 0 4843 0 0 2476 0 0 49 0 0 10 0 0 4 0 0 2 0 0 4 0 0 4 0 0 1 0 0 2 0 0 5 0 0 
1 0 0 2 0 0 1 0 0 2 0 0 3 0 0 4 0 0 6 0 0 4 0 0 5 0 0 35 0 0 2385 0 0 4791 0 0 4849 0 0 4917 0 0 4836 0 0 4833 0 0 4791 0 0 4740 0 0 4863 0 0 4837 0 0 4869 0 0 4817 0 0 4859 0 0 4792 0 0 4725 0 0 4924 0 0 4805 0 0 4874 0 0 4837 0 0 4760 0 0 4880 0 0 4838 0 0 4858 0 0 4951 0 0 4802 0 0 4743 0 0 5019 0 0 4850 0 0 4786 0 0 4807 0 0 4787 0 0 4854 0 0 4922 0 0 4742 0 0 4803 0 0 4773 0 0 4971 0 0 4825 0 0 4813 0 0 4785 0 0 2399 0 0 31 0 0 8 0 0 6 0 0 2 0 0 2 0 0 4 0 0 2 0 0 1 0 0 0 0 0 
0 0 0 0 0 0 2 0 0 4 0 0 4 0 0 7 0 0 6 0 0 5 0 0 9 0 0 36 0 0 2395 0 0 4860 0 0 4773 0 0 4943 0 0 4752 0 0 4747 0 0 4890 0 0 4670 0 0 4620 0 0 4794 0 0 4709 0 0 4782 0 0 4842 0 0 4811 0 0 4743 0 0 4889 0 0 4725 0 0 4751 0 0 4803 0 0 4784 0 0 4619 0 0 4813 0 0 4895 0 0 4834 0 0 4905 0 0 4702 0 0 4769 0 0 4706 0 0 4796 0 0 4868 0 0 4769 0 0 4695 0 0 4910 0 0 4717 0 0 4759 0 0 4804 0 0 4752 0 0 4768 0 0 4758 0 0 4774 0 0 2307 0 0 39 0 0 7 0 0 3 0 0 4 0 0 1 0 0 0 0 0 2 0 0 1 0 0 2 0 0 
0 0 0 3 0 0 1 0 0 2 0 0 2 0 0 4 0 0 2 0 0 5 0 0 5 0 0 19 0 0 1252 0 0 2504 0 0 2454 0 0 2382 0 0 2438 0 0 2444 0 0 2372 0 0 2510 0 0 2421 0 0 2363 0 0 2411 0 0 2388 0 0 2378 0 0 2408 0 0 2462 0 0 2398 0 0 2442 0 0 2423 0 0 2427 0 0 2545 0 0 2367 0 0 2481 0 0 2326 0 0 2413 0 0 2348 0 0 2428 0 0 2347 0 0 2436 0 0 2411 0 0 2322 0 0 2469 0 0 2446 0 0 2386 0 0 2419 0 0 2351 0 0 2409 0 0 2389 0 0 2431 0 0 2400 0 0 2460 0 0 1246 0 0 19 0 0 6 0 0 3 0 0 3 0 0 2 0 0 0 0 0 2 0 0 4 0 0 0 0 0 
0 0 0 1 0 0 4 0 0 2 0 0 1 0 0 2 0 0 5 0 0 2 0 0 5 0 0 6 0 0 20 0 0 41 0 0 37 0 0 48 0 0 37 0 0 40 0 0 34 0 0 40 0 0 36 0 0 43 0 0 33 0 0 32 0 0 35 0 0 49 0 0 45 0 0 48 0 0 53 0 0 44 0 0 27 0 0 34 0 0 41 0 0 48 0 0 36 0 0 54 0 0 36 0 0 46 0 0 48 0 0 37 0 0 43 0 0 49 0 0 50 0 0 53 0 0 35 0 0 45 0 0 38 0 0 45 0 0 37 0 0 41 0 0 38 0 0 43 0 0 26 0 0 4 0 0 7 0 0 3 0 0 1 0 0 0 0 0 1 0 0 2 0 0 0 0 0 3 0 0 
0 0 0 2 0 0 2 0 0 2 0 0 2 0 0 4 0 0 2 0 0 2 0 0 3 0 0 3 0 0 4 0 0 8 0 0 5 0 0 6 0 0 8 0 0 7 0 0 5 0 0 8 0 0 10 0 0 11 0 0 7 0 0 3 0 0 3 0 0 6 0 0 13 0 0 12 0 0 12 0 0 8 0 0 6 0 0 7 0 0 6 0 0 8 0 0 4 0 0 7 0 0 9 0 0 11 0 0 8 0 0 7 0 0 9 0 0 10 0 0 15 0 0 5 0 0 3 0 0 6 0 0 10 0 0 10 0 0 11 0 0 8 0 0 6 0 0 8 0 0 5 0 0 3 0 0 1 0 0 2 0 0 6 0 0 4 0 0 0 0 0 1 0 0 1 0 0 2 0 0 
0 0 0 2 0 0 2 0 0 1 0 0 1 0 0 5 0 0 2 0 0 2 0 0 3 0 0 5 0 0 4 0 0 7 0 0 3 0 0 3 0 0 7 0 0 5 0 0 8 0 0 8 0 0 5 0 0 3 0 0 4 0 0 5 0 0 4 0 0 9 0 0 12 0 0 10 0 0 6 0 0 11 0 0 12 0 0 5 0 0 3 0 0 7 0 0 5 0 0 10 0 0 9 0 0 5 0 0 7 0 0 7 0 0 5 0 0 9 0 0 8 0 0 5 0 0 5 0 0 2 0 0 9 0 0 2 0 0 4 0 0 5 0 0 2 0 0 3 0 0 3 0 0 3 0 0 2 0 0 1 0 0 1 0 0 0 0 0 4 0 0 1 0 0 2 0 0 2 0 0 
3 0 0 0 0 0 3 0 0 0 0 0 6 0 0 3 0 0 2 0 0 0 0 0 0 0 0 4 0 0 4 0 0 1 0 0 2 0 0 4 0 0 5 0 0 5 0 0 6 0 0 3 0 0 0 0 0 1 0 0 3 0 0 4 0 0 3 0 0 8 0 0 11 0 0 2 0 0 6 0 0 5 0 0 5 0 0 8 0 0 6 0 0 7 0 0 6 0 0 4 0 0 5 0 0 6 0 0 5 0 0 7 0 0 2 0 0 5 0 0 2 0 0 7 0 0 4 0 0 5 0 0 3 0 0 0 0 0 3 0 0 0 0 0 4 0 0 5 0 0 5 0 0 2 0 0 2 0 0 1 0 0 3 0 0 4 0 0 3 0 0 2 0 0 2 0 0 2 0 0 
0 0 0 1 0 0 4 0 0 1 0 0 2 0 0 2 0 0 0 0 0 0 0 0 2 0 0 8 0 0 5 0 0 3 0 0 3 0 0 3 0 0 3 0 0 5 0 0 1 0 0 3 0 0 1 0 0 1 0 0 1 0 0 0 0 0 6 0 0 6 0 0 6 0 0 4 0 0 5 0 0 1 0 0 5 0 0 2 0 0 4 0 0 9 0 0 3 0 0 2 0 0 6 0 0 4 0 0 4 0 0 3 0 0 4 0 0 4 0 0 2 0 0 0 0 0 4 0 0 4 0 0 1 0 0 2 0 0 0 0 0 0 0 0 4 0 0 4 0 0 1 0 0 1 0 0 1 0 0 3 0 0 1 0 0 0 0 0 0 0 0 2 0 0 1 0 0 2 0 0 
0 0 0 1 0 0 0 0 0 1 0 0 3 0 0 2 0 0 0 0 0 2 0 0 3 0 0 3 0 0 6 0 0 6 0 0 2 0 0 2 0 0 3 0 0 4 0 0 0 0 0 4 0 0 2 0 0 1 0 0 3 0 0 2 0 0 2 0 0 4 0 0 6 0 0 9 0 0 4 0 0 3 0 0 3 0 0 1 0 0 5 0 0 4 0 0 4 0 0 5 0 0 5 0 0 4 0 0 10 0 0 4 0 0 4 0 0 2 0 0 3 0 0 0 0 0 2 0 0 6 0 0 1 0 0 1 0 0 1 0 0 0 0 0 1 0 0 3 0 0 1 0 0 0 0 0 3 0 0 0 0 0 1 0 0 1 0 0 0 0 0 0 0 0 1 0 0 0 0 0 
2 0 0 1 0 0 1 0 0 0 0 0 2 0 0 3 0 0 2 0 0 2 0 0 2 0 0 3 0 0 4 0 0 0 0 0 1 0 0 0 0 0 3 0 0 2 0 0 1 0 0 4 0 0 4 0 0 3 0 0 2 0 0 1 0 0 2 0 0 0 0 0 10 0 0 4 0 0 4 0 0 2 0 0 1 0 0 4 0 0 4 0 0 5 0 0 1 0 0 3 0 0 6 0 0 7 0 0 5 0 0 5 0 0 3 0 0 4 0 0 1 0 0 2 0 0 1 0 0 6 0 0 3 0 0 3 0 0 4 0 0 2 0 0 2 0 0 1 0 0 1 0 0 1 0 0 2 0 0 1 0 0 0 0 0 0 0 0 6 0 0 0 0 0 0 0 0 0 0 0 
1 0 0 2 0 0 1 0 0 1 0 0 1 0 0 1 0 0 2 0 0 1 0 0 2 0 0 3 0 0 6 0 0 1 0 0 0 0 0 3 0 0 2 0 0 1 0 0 1 0 0 5 0 0 4 0 0 3 0 0 0 0 0 1 0 0 3 0 0 2 0 0 5 0 0 1 0 0 2 0 0 5 0 0 2 0 0 3 0 0 2 0 0 1 0 0 3 0 0 3 0 0 4 0 0 2 0 0 1 0 0 2 0 0 3 0 0 4 0 0 2 0 0 2 0 0 2 0 0 2 0 0 1 0 0 1 0 0 1 0 0 2 0 0 0 0 0 2 0 0 1 0 0 1 0 0 0 0 0 2 0 0 1 0 0 0 0 0 2 0 0 0 0 0 0 0 0 0 0 0 
1 0 0 3 0 0 2 0 0 0 0 0 1 0 0 1 0 0 0 0 0 2 0 0 5 0 0 4 0 0 5 0 0 0 0 0 0 0 0 1 0 0 0 0 0 1 0 0 0 0 0 0 0 0 4 0 0 2 0 0 3 0 0 2 0 0 2 0 0 2 0 0 2 0 0 0 0 0 2 0 0 4 0 0 3 0 0 0 0 0 1 0 0 0 0 0 2 0 0 2 0 0 3 0 0 1 0 0 1 0 0 0 0 0 5 0 0 4 0 0 3 0 0 4 0 0 2 0 0 2 0 0 1 0 0 0 0 0 0 0 0 1 0 0 0 0 0 0 0 0 0 0 0 1 0 0 0 0 0 0 0 0 2 0 0 1 0 0 1 0 0 3 0 0 0 0 0 0 0 0 
