P3
# This is a dose file slice at depth 15 of 100
60 60
# now we give the maximum value of the RGB coordinates.
34204
0 0 0 0 0 0 0 0 0 0 0 0 0 0 0 0 0 0 0 0 0 0 0 0 0 0 0 0 0 0 0 0 0 0 0 0 0 0 0 0 0 0 0 0 0 0 0 0 0 0 0 0 0 0 0 0 0 0 0 0 0 0 0 0 0 0 0 0 0 0 0 0 0 0 0 0 0 0 0 0 0 0 0 0 0 0 0 0 0 0 0 0 0 0 0 0 0 0 0 0 0 0 0 0 0 0 0 0 0 0 0 0 0 0 0 0 0 0 0 0 0 0 0 0 0 0 0 0 0 0 0 0 0 0 0 0 0 0 0 0 0 0 0 0 0 0 0 0 0 0 0 0 0 0 0 0 0 0 0 0 0 0 0 0 0 0 0 0 0 0 0 0 0 0 0 0 0 0 0 0 
0 0 0 0 0 0 0 0 0 0 0 0 0 0 0 0 0 0 0 0 0 0 0 0 0 0 0 0 0 0 0 0 0 0 0 0 0 0 0 0 0 0 0 0 0 0 0 0 0 0 0 0 0 0 0 0 0 0 0 0 0 0 0 0 0 0 0 0 0 0 0 0 0 0 0 0 0 0 0 0 0 0 0 0 0 0 0 0 0 0 0 0 0 0 0 0 0 0 0 0 0 0 0 0 0 0 0 0 0 0 0 0 0 0 0 0 0 0 0 0 0 0 0 0 0 0 0 0 0 0 0 0 0 0 0 0 0 0 0 0 0 0 0 0 0 0 0 0 0 0 0 0 0 0 0 0 0 0 0 0 0 0 0 0 0 0 0 0 0 0 0 0 0 0 0 0 0 0 0 0 
0 0 0 0 0 0 0 0 0 0 0 0 0 0 0 0 0 0 0 0 0 0 0 0 0 0 0 0 0 0 0 0 0 0 0 0 0 0 0 0 0 0 0 0 0 0 0 0 0 0 0 0 0 0 0 0 0 0 0 0 0 0 0 0 0 0 0 0 0 0 0 0 0 0 0 0 0 0 0 0 0 0 0 0 0 0 0 0 0 0 0 0 0 0 0 0 0 0 0 0 0 0 0 0 0 0 0 0 0 0 0 0 0 0 0 0 0 0 0 0 0 0 0 0 0 0 0 0 0 0 0 0 0 0 0 0 0 0 0 0 0 0 0 0 0 0 0 0 0 0 0 0 0 0 0 0 0 0 0 0 0 0 0 0 0 0 0 0 0 0 0 0 0 0 0 0 0 0 0 0 
0 0 0 0 0 0 0 0 0 0 0 0 0 0 0 0 0 0 0 0 0 0 0 0 0 0 0 0 0 0 0 0 0 0 0 0 0 0 0 0 0 0 0 0 0 0 0 0 0 0 0 0 0 0 0 0 0 0 0 0 0 0 0 0 0 0 0 0 0 0 0 0 0 0 0 0 0 0 0 0 0 0 0 0 0 0 0 0 0 0 0 0 0 0 0 0 0 0 0 0 0 0 0 0 0 0 0 0 0 0 0 0 0 0 0 0 0 0 0 0 0 0 0 0 0 0 0 0 0 0 0 0 0 0 0 0 0 0 0 0 0 0 0 0 0 0 0 0 0 0 0 0 0 0 0 0 0 0 0 0 0 0 0 0 0 0 0 0 0 0 0 0 0 0 0 0 0 0 0 0 
0 0 0 0 0 0 0 0 0 0 0 0 0 0 0 0 0 0 0 0 0 0 0 0 0 0 0 0 0 0 0 0 0 0 0 0 0 0 0 0 0 0 0 0 0 0 0 0 0 0 0 0 0 0 0 0 0 0 0 0 0 0 0 0 0 0 0 0 0 0 0 0 0 0 0 0 0 0 0 0 0 0 0 0 0 0 0 0 0 0 0 0 0 0 0 0 0 0 0 0 0 0 0 0 0 0 0 0 0 0 0 0 0 0 0 0 0 0 0 0 0 0 0 0 0 0 0 0 0 0 0 0 0 0 0 0 0 0 0 0 0 0 0 0 0 0 0 0 0 0 0 0 0 0 0 0 0 0 0 0 0 0 0 0 0 0 0 0 0 0 0 0 0 0 0 0 0 0 0 0 
0 0 0 0 0 0 0 0 0 0 0 0 0 0 0 0 0 0 0 0 0 0 0 0 0 0 0 0 0 0 0 0 0 0 0 0 0 0 0 0 0 0 0 0 0 0 0 0 0 0 0 0 0 0 0 0 0 0 0 0 0 0 0 0 0 0 0 0 0 0 0 0 0 0 0 0 0 0 0 0 0 0 0 0 0 0 0 0 0 0 0 0 0 0 0 0 0 0 0 0 0 0 0 0 0 0 0 0 0 0 0 0 0 0 0 0 0 0 0 0 0 0 0 0 0 0 0 0 0 0 0 0 0 0 0 0 0 0 0 0 0 0 0 0 0 0 0 0 0 0 0 0 0 0 0 0 0 0 0 0 0 0 0 0 0 0 0 0 0 0 0 0 0 0 0 0 0 0 0 0 
0 0 0 0 0 0 0 0 0 0 0 0 0 0 0 0 0 0 0 0 0 0 0 0 0 0 0 0 0 0 0 0 0 0 0 0 0 0 0 0 0 0 0 0 0 0 0 0 0 0 0 0 0 0 0 0 0 0 0 0 0 0 0 0 0 0 0 0 0 0 0 0 0 0 0 0 0 0 0 0 0 0 0 0 0 0 0 0 0 0 0 0 0 0 0 0 0 0 0 0 0 0 0 0 0 0 0 0 0 0 0 0 0 0 0 0 0 0 0 0 0 0 0 0 0 0 0 0 0 0 0 0 0 0 0 0 0 0 0 0 0 0 0 0 0 0 0 0 0 0 0 0 0 0 0 0 0 0 0 0 0 0 0 0 0 0 0 0 0 0 0 0 0 0 0 0 0 0 0 0 
0 0 0 0 0 0 0 0 0 0 0 0 0 0 0 0 0 0 0 0 0 0 0 0 0 0 0 0 0 0 0 0 0 0 0 0 0 0 0 0 0 0 0 0 0 0 0 0 0 0 0 0 0 0 0 0 0 0 0 0 0 0 0 0 0 0 0 0 0 0 0 0 0 0 0 0 0 0 0 0 0 0 0 0 0 0 0 0 0 0 0 0 0 0 0 0 0 0 0 0 0 0 0 0 0 0 0 0 0 0 0 0 0 0 0 0 0 0 0 0 0 0 0 0 0 0 0 0 0 0 0 0 0 0 0 0 0 0 0 0 0 0 0 0 0 0 0 0 0 0 0 0 0 0 0 0 0 0 0 0 0 0 0 0 0 0 0 0 0 0 0 0 0 0 0 0 0 0 0 0 
0 0 0 0 0 0 0 0 0 0 0 0 0 0 0 0 0 0 0 0 0 0 0 0 0 0 0 0 0 0 0 0 0 0 0 0 0 0 0 0 0 0 0 0 0 0 0 0 0 0 0 0 0 0 0 0 0 0 0 0 0 0 0 0 0 0 0 0 0 0 0 0 0 0 0 0 0 0 0 0 0 0 0 0 0 0 0 0 0 0 0 0 0 0 0 0 0 0 0 0 0 0 0 0 0 0 0 0 0 0 0 0 0 0 0 0 0 0 0 0 0 0 0 0 0 0 0 0 0 0 0 0 0 0 0 0 0 0 0 0 0 0 0 0 0 0 0 0 0 0 0 0 0 0 0 0 0 0 0 0 0 0 0 0 0 0 0 0 0 0 0 0 0 0 0 0 0 0 0 0 
0 0 0 0 0 0 0 0 0 0 0 0 0 0 0 0 0 0 0 0 0 0 0 0 0 0 0 0 0 0 0 0 0 0 0 0 0 0 0 0 0 0 0 0 0 0 0 0 0 0 0 0 0 0 0 0 0 0 0 0 0 0 0 0 0 0 0 0 0 0 0 0 0 0 0 0 0 0 0 0 0 0 0 0 0 0 0 0 0 0 0 0 0 0 0 0 0 0 0 0 0 0 0 0 0 0 0 0 0 0 0 0 0 0 0 0 0 0 0 0 0 0 0 0 0 0 0 0 0 0 0 0 0 0 0 0 0 0 0 0 0 0 0 0 0 0 0 0 0 0 0 0 0 0 0 0 0 0 0 0 0 0 0 0 0 0 0 0 0 0 0 0 0 0 0 0 0 0 0 0 
0 0 0 0 0 0 0 0 0 0 0 0 0 0 0 0 0 0 0 0 0 0 0 0 0 0 0 0 0 0 5385 0 0 10901 0 0 10791 0 0 10737 0 0 10641 0 0 10855 0 0 10745 0 0 10777 0 0 10804 0 0 10878 0 0 10855 0 0 10581 0 0 10786 0 0 10648 0 0 10775 0 0 10726 0 0 10767 0 0 10771 0 0 10703 0 0 10557 0 0 10833 0 0 10705 0 0 10630 0 0 10718 0 0 10649 0 0 10892 0 0 10908 0 0 10788 0 0 10778 0 0 10633 0 0 10888 0 0 10721 0 0 10615 0 0 10698 0 0 10698 0 0 10827 0 0 10676 0 0 10432 0 0 10820 0 0 10801 0 0 5331 0 0 0 0 0 0 0 0 0 0 0 0 0 0 0 0 0 0 0 0 0 0 0 0 0 0 0 0 0 
0 0 0 0 0 0 0 0 0 0 0 0 0 0 0 0 0 0 0 0 0 0 0 0 0 0 0 0 0 0 10796 0 0 21340 0 0 21625 0 0 21524 0 0 21521 0 0 21747 0 0 21577 0 0 21501 0 0 21864 0 0 21200 0 0 21555 0 0 21638 0 0 21680 0 0 21474 0 0 21255 0 0 21570 0 0 21552 0 0 21636 0 0 21532 0 0 21443 0 0 21625 0 0 21575 0 0 21811 0 0 21528 0 0 21524 0 0 21596 0 0 21611 0 0 21673 0 0 21530 0 0 21358 0 0 21542 0 0 21450 0 0 21412 0 0 21639 0 0 21519 0 0 21266 0 0 21594 0 0 21239 0 0 21421 0 0 21493 0 0 10870 0 0 0 0 0 0 0 0 0 0 0 0 0 0 0 0 0 0 0 0 0 0 0 0 0 0 0 0 0 
0 0 0 0 0 0 0 0 0 0 0 0 0 0 0 0 0 0 0 0 0 0 0 0 0 0 0 0 0 0 10728 0 0 21554 0 0 21658 0 0 21880 0 0 21438 0 0 21611 0 0 21635 0 0 21576 0 0 21726 0 0 21628 0 0 21730 0 0 21554 0 0 21553 0 0 21732 0 0 21826 0 0 21647 0 0 21917 0 0 21418 0 0 21710 0 0 21752 0 0 21615 0 0 21797 0 0 21555 0 0 21440 0 0 21693 0 0 21686 0 0 21306 0 0 21448 0 0 21742 0 0 21527 0 0 21561 0 0 21463 0 0 21540 0 0 21542 0 0 21518 0 0 21729 0 0 21735 0 0 21407 0 0 21433 0 0 21527 0 0 10781 0 0 0 0 0 0 0 0 0 0 0 0 0 0 0 0 0 0 0 0 0 0 0 0 0 0 0 0 0 
0 0 0 0 0 0 0 0 0 0 0 0 0 0 0 0 0 0 0 0 0 0 0 0 0 0 0 0 0 0 10835 0 0 21607 0 0 21590 0 0 21542 0 0 21506 0 0 21421 0 0 21409 0 0 21709 0 0 21630 0 0 21618 0 0 21558 0 0 21413 0 0 21440 0 0 21510 0 0 21686 0 0 21554 0 0 22045 0 0 21554 0 0 21640 0 0 21548 0 0 21365 0 0 21402 0 0 21686 0 0 21398 0 0 21829 0 0 21368 0 0 21467 0 0 21502 0 0 21631 0 0 21477 0 0 21490 0 0 21666 0 0 21517 0 0 21397 0 0 21571 0 0 21615 0 0 21743 0 0 21596 0 0 21625 0 0 21427 0 0 10800 0 0 0 0 0 0 0 0 0 0 0 0 0 0 0 0 0 0 0 0 0 0 0 0 0 0 0 0 0 
0 0 0 0 0 0 0 0 0 0 0 0 0 0 0 0 0 0 0 0 0 0 0 0 0 0 0 0 0 0 10816 0 0 21424 0 0 21431 0 0 21666 0 0 21696 0 0 21823 0 0 21658 0 0 21596 0 0 21667 0 0 21828 0 0 21451 0 0 21612 0 0 21810 0 0 21740 0 0 21663 0 0 21424 0 0 21540 0 0 21516 0 0 21653 0 0 21462 0 0 21636 0 0 21720 0 0 21352 0 0 21687 0 0 21497 0 0 21569 0 0 21658 0 0 21480 0 0 21512 0 0 21571 0 0 21360 0 0 21360 0 0 21687 0 0 21488 0 0 21283 0 0 21313 0 0 21455 0 0 21774 0 0 21502 0 0 21586 0 0 10657 0 0 0 0 0 0 0 0 0 0 0 0 0 0 0 0 0 0 0 0 0 0 0 0 0 0 0 0 0 
0 0 0 0 0 0 0 0 0 0 0 0 0 0 0 0 0 0 0 0 0 0 0 0 0 0 0 0 0 0 10976 0 0 21716 0 0 21520 0 0 21302 0 0 21478 0 0 21508 0 0 21586 0 0 21561 0 0 21458 0 0 21593 0 0 21525 0 0 21303 0 0 21382 0 0 21398 0 0 21718 0 0 21842 0 0 21568 0 0 21597 0 0 21423 0 0 21487 0 0 21756 0 0 21878 0 0 21663 0 0 21405 0 0 21504 0 0 21397 0 0 21469 0 0 21560 0 0 21513 0 0 21607 0 0 21814 0 0 21570 0 0 21668 0 0 21624 0 0 21415 0 0 21653 0 0 21772 0 0 21452 0 0 21522 0 0 21647 0 0 10744 0 0 0 0 0 0 0 0 0 0 0 0 0 0 0 0 0 0 0 0 0 0 0 0 0 0 0 0 0 
0 0 0 0 0 0 0 0 0 0 0 0 0 0 0 0 0 0 0 0 0 0 0 0 0 0 0 0 0 0 10734 0 0 21628 0 0 21404 0 0 21671 0 0 21601 0 0 21611 0 0 21599 0 0 21483 0 0 21569 0 0 21371 0 0 21306 0 0 21450 0 0 21775 0 0 21612 0 0 21705 0 0 21702 0 0 21307 0 0 21495 0 0 21448 0 0 21713 0 0 21581 0 0 21600 0 0 21232 0 0 21730 0 0 21662 0 0 21185 0 0 21417 0 0 21594 0 0 21827 0 0 21831 0 0 21498 0 0 21340 0 0 21696 0 0 21334 0 0 21495 0 0 21654 0 0 21409 0 0 21553 0 0 21441 0 0 21405 0 0 10743 0 0 0 0 0 0 0 0 0 0 0 0 0 0 0 0 0 0 0 0 0 0 0 0 0 0 0 0 0 
0 0 0 0 0 0 0 0 0 0 0 0 0 0 0 0 0 0 0 0 0 0 0 0 0 0 0 0 0 0 10761 0 0 21596 0 0 21523 0 0 21300 0 0 21622 0 0 21546 0 0 21488 0 0 21479 0 0 21650 0 0 21354 0 0 21580 0 0 21724 0 0 21453 0 0 21542 0 0 21850 0 0 21596 0 0 21622 0 0 21372 0 0 21491 0 0 21389 0 0 21478 0 0 21419 0 0 21360 0 0 21148 0 0 21573 0 0 21670 0 0 21522 0 0 21698 0 0 21330 0 0 21579 0 0 21704 0 0 21666 0 0 21491 0 0 21652 0 0 21710 0 0 21642 0 0 21525 0 0 21687 0 0 21573 0 0 21847 0 0 10781 0 0 0 0 0 0 0 0 0 0 0 0 0 0 0 0 0 0 0 0 0 0 0 0 0 0 0 0 0 
0 0 0 0 0 0 0 0 0 0 0 0 0 0 0 0 0 0 0 0 0 0 0 0 0 0 0 0 0 0 10681 0 0 21622 0 0 21801 0 0 21761 0 0 21657 0 0 21822 0 0 21566 0 0 21267 0 0 21363 0 0 21678 0 0 21576 0 0 21399 0 0 21704 0 0 21765 0 0 21587 0 0 21764 0 0 21471 0 0 21466 0 0 21270 0 0 21760 0 0 21803 0 0 21687 0 0 21716 0 0 21628 0 0 21679 0 0 21689 0 0 21506 0 0 21399 0 0 21446 0 0 21680 0 0 21329 0 0 21493 0 0 21435 0 0 21595 0 0 21485 0 0 21533 0 0 21740 0 0 21407 0 0 21462 0 0 21532 0 0 10815 0 0 0 0 0 0 0 0 0 0 0 0 0 0 0 0 0 0 0 0 0 0 0 0 0 0 0 0 0 
0 0 0 0 0 0 0 0 0 0 0 0 0 0 0 0 0 0 0 0 0 0 0 0 0 0 0 0 0 0 10721 0 0 21861 0 0 21407 0 0 21725 0 0 21692 0 0 21664 0 0 21718 0 0 21539 0 0 21809 0 0 21527 0 0 21485 0 0 21754 0 0 21418 0 0 21691 0 0 21498 0 0 21301 0 0 21721 0 0 21608 0 0 21482 0 0 21438 0 0 21367 0 0 21394 0 0 21484 0 0 21572 0 0 21920 0 0 21423 0 0 21415 0 0 21502 0 0 21335 0 0 21216 0 0 21568 0 0 21465 0 0 21725 0 0 21624 0 0 21540 0 0 21458 0 0 21507 0 0 21633 0 0 21240 0 0 21650 0 0 10823 0 0 0 0 0 0 0 0 0 0 0 0 0 0 0 0 0 0 0 0 0 0 0 0 0 0 0 0 0 
0 0 0 0 0 0 0 0 0 0 0 0 0 0 0 0 0 0 0 0 0 0 0 0 0 0 0 0 0 0 10789 0 0 21516 0 0 21648 0 0 21604 0 0 21782 0 0 21349 0 0 21420 0 0 21348 0 0 21592 0 0 21540 0 0 21668 0 0 21474 0 0 21447 0 0 21375 0 0 21470 0 0 21493 0 0 21424 0 0 21482 0 0 21617 0 0 21595 0 0 21682 0 0 21547 0 0 21507 0 0 21658 0 0 21830 0 0 21489 0 0 21565 0 0 21519 0 0 21582 0 0 21405 0 0 21618 0 0 21589 0 0 21647 0 0 21605 0 0 21467 0 0 21686 0 0 21623 0 0 21566 0 0 21573 0 0 21597 0 0 10917 0 0 0 0 0 0 0 0 0 0 0 0 0 0 0 0 0 0 0 0 0 0 0 0 0 0 0 0 0 
0 0 0 0 0 0 0 0 0 0 0 0 0 0 0 0 0 0 0 0 0 0 0 0 0 0 0 0 0 0 10859 0 0 21415 0 0 21292 0 0 21390 0 0 21623 0 0 21626 0 0 21549 0 0 21345 0 0 21726 0 0 21662 0 0 21350 0 0 21648 0 0 21671 0 0 21703 0 0 21609 0 0 21574 0 0 21537 0 0 21380 0 0 21746 0 0 21659 0 0 21503 0 0 21625 0 0 21439 0 0 21747 0 0 21466 0 0 21486 0 0 21728 0 0 21322 0 0 21519 0 0 21489 0 0 21802 0 0 21392 0 0 21587 0 0 21595 0 0 21518 0 0 21824 0 0 21759 0 0 21502 0 0 21445 0 0 21437 0 0 10931 0 0 0 0 0 0 0 0 0 0 0 0 0 0 0 0 0 0 0 0 0 0 0 0 0 0 0 0 0 
0 0 0 0 0 0 0 0 0 0 0 0 0 0 0 0 0 0 0 0 0 0 0 0 0 0 0 0 0 0 10847 0 0 21518 0 0 21656 0 0 21610 0 0 21636 0 0 21488 0 0 21280 0 0 21438 0 0 21438 0 0 21459 0 0 21709 0 0 21522 0 0 21719 0 0 21727 0 0 21607 0 0 21328 0 0 21524 0 0 21360 0 0 21544 0 0 21859 0 0 21771 0 0 21652 0 0 21575 0 0 21544 0 0 21333 0 0 21712 0 0 21723 0 0 21717 0 0 21615 0 0 21535 0 0 21674 0 0 21781 0 0 21493 0 0 21450 0 0 21642 0 0 21552 0 0 21868 0 0 21532 0 0 21542 0 0 21709 0 0 10745 0 0 0 0 0 0 0 0 0 0 0 0 0 0 0 0 0 0 0 0 0 0 0 0 0 0 0 0 0 
0 0 0 0 0 0 0 0 0 0 0 0 0 0 0 0 0 0 0 0 0 0 0 0 0 0 0 0 0 0 10660 0 0 21564 0 0 21624 0 0 21728 0 0 21397 0 0 21601 0 0 21315 0 0 21456 0 0 21669 0 0 21688 0 0 21551 0 0 21498 0 0 21558 0 0 21658 0 0 21520 0 0 21549 0 0 21448 0 0 21552 0 0 21830 0 0 21691 0 0 21659 0 0 21470 0 0 21217 0 0 21601 0 0 21436 0 0 21694 0 0 21582 0 0 21419 0 0 21389 0 0 21664 0 0 21274 0 0 21450 0 0 21639 0 0 21284 0 0 21585 0 0 21306 0 0 21563 0 0 21666 0 0 21609 0 0 21447 0 0 10804 0 0 0 0 0 0 0 0 0 0 0 0 0 0 0 0 0 0 0 0 0 0 0 0 0 0 0 0 0 
0 0 0 0 0 0 0 0 0 0 0 0 0 0 0 0 0 0 0 0 0 0 0 0 0 0 0 0 0 0 10742 0 0 21647 0 0 21726 0 0 21766 0 0 21557 0 0 21623 0 0 21662 0 0 21485 0 0 21337 0 0 21767 0 0 21692 0 0 21433 0 0 21737 0 0 21518 0 0 21711 0 0 21775 0 0 21689 0 0 21552 0 0 21592 0 0 21500 0 0 21244 0 0 21582 0 0 21409 0 0 21439 0 0 21608 0 0 21564 0 0 21438 0 0 21407 0 0 21458 0 0 21508 0 0 21564 0 0 21911 0 0 21400 0 0 21497 0 0 21379 0 0 21616 0 0 21370 0 0 21709 0 0 21488 0 0 21227 0 0 10885 0 0 0 0 0 0 0 0 0 0 0 0 0 0 0 0 0 0 0 0 0 0 0 0 0 0 0 0 0 
0 0 0 0 0 0 0 0 0 0 0 0 0 0 0 0 0 0 0 0 0 0 0 0 0 0 0 0 0 0 10941 0 0 21772 0 0 21610 0 0 21581 0 0 21748 0 0 21528 0 0 21638 0 0 21512 0 0 21464 0 0 21449 0 0 21706 0 0 21640 0 0 21531 0 0 21619 0 0 21563 0 0 21487 0 0 21438 0 0 21363 0 0 21588 0 0 21446 0 0 21611 0 0 21520 0 0 21564 0 0 21433 0 0 21614 0 0 21455 0 0 21410 0 0 21559 0 0 21373 0 0 21518 0 0 21550 0 0 21610 0 0 21539 0 0 21621 0 0 21466 0 0 21770 0 0 21481 0 0 21614 0 0 21667 0 0 21675 0 0 10681 0 0 0 0 0 0 0 0 0 0 0 0 0 0 0 0 0 0 0 0 0 0 0 0 0 0 0 0 0 
0 0 0 0 0 0 0 0 0 0 0 0 0 0 0 0 0 0 0 0 0 0 0 0 0 0 0 0 0 0 10734 0 0 21744 0 0 21737 0 0 21474 0 0 21336 0 0 21311 0 0 21643 0 0 21495 0 0 21617 0 0 21460 0 0 21627 0 0 21833 0 0 21708 0 0 21986 0 0 21604 0 0 21302 0 0 21587 0 0 21445 0 0 21435 0 0 21540 0 0 21574 0 0 21754 0 0 21715 0 0 21211 0 0 21711 0 0 21646 0 0 21361 0 0 21596 0 0 21673 0 0 21548 0 0 21669 0 0 21696 0 0 21493 0 0 21754 0 0 21514 0 0 21313 0 0 21621 0 0 21624 0 0 21523 0 0 21732 0 0 10709 0 0 0 0 0 0 0 0 0 0 0 0 0 0 0 0 0 0 0 0 0 0 0 0 0 0 0 0 0 
0 0 0 0 0 0 0 0 0 0 0 0 0 0 0 0 0 0 0 0 0 0 0 0 0 0 0 0 0 0 10858 0 0 21697 0 0 21701 0 0 21159 0 0 21586 0 0 21547 0 0 21510 0 0 21522 0 0 21462 0 0 21623 0 0 21599 0 0 21794 0 0 21584 0 0 21483 0 0 21802 0 0 21668 0 0 21487 0 0 21791 0 0 21469 0 0 21203 0 0 21641 0 0 21622 0 0 21626 0 0 21640 0 0 21547 0 0 21791 0 0 21683 0 0 21603 0 0 21385 0 0 21565 0 0 21441 0 0 21444 0 0 21716 0 0 21608 0 0 21673 0 0 21509 0 0 21648 0 0 21262 0 0 21577 0 0 21442 0 0 10820 0 0 0 0 0 0 0 0 0 0 0 0 0 0 0 0 0 0 0 0 0 0 0 0 0 0 0 0 0 
0 0 0 0 0 0 0 0 0 0 0 0 0 0 0 0 0 0 0 0 0 0 0 0 0 0 0 0 0 0 10805 0 0 21704 0 0 21577 0 0 21284 0 0 21676 0 0 21448 0 0 21558 0 0 21761 0 0 21587 0 0 21423 0 0 21655 0 0 21549 0 0 21536 0 0 21504 0 0 21775 0 0 21414 0 0 21572 0 0 21473 0 0 21143 0 0 21489 0 0 21590 0 0 21378 0 0 21733 0 0 21414 0 0 21559 0 0 21305 0 0 21379 0 0 21412 0 0 21662 0 0 21589 0 0 21515 0 0 21554 0 0 21525 0 0 21749 0 0 21522 0 0 21628 0 0 21570 0 0 21794 0 0 21710 0 0 21853 0 0 10882 0 0 0 0 0 0 0 0 0 0 0 0 0 0 0 0 0 0 0 0 0 0 0 0 0 0 0 0 0 
0 0 0 0 0 0 0 0 0 0 0 0 0 0 0 0 0 0 0 0 0 0 0 0 0 0 0 0 0 0 10717 0 0 21376 0 0 21550 0 0 21380 0 0 21374 0 0 21345 0 0 21775 0 0 21308 0 0 21753 0 0 21554 0 0 21678 0 0 21550 0 0 21657 0 0 21776 0 0 21496 0 0 21828 0 0 21729 0 0 21448 0 0 21567 0 0 21318 0 0 21495 0 0 21719 0 0 21514 0 0 21481 0 0 21693 0 0 21676 0 0 21441 0 0 21509 0 0 21764 0 0 21507 0 0 21644 0 0 21607 0 0 21682 0 0 21463 0 0 21506 0 0 21330 0 0 21508 0 0 21510 0 0 21742 0 0 21631 0 0 10791 0 0 0 0 0 0 0 0 0 0 0 0 0 0 0 0 0 0 0 0 0 0 0 0 0 0 0 0 0 
0 0 0 0 0 0 0 0 0 0 0 0 0 0 0 0 0 0 0 0 0 0 0 0 0 0 0 0 0 0 10683 0 0 21590 0 0 21446 0 0 21299 0 0 21703 0 0 21501 0 0 21806 0 0 21216 0 0 21630 0 0 21997 0 0 21431 0 0 21873 0 0 21493 0 0 21518 0 0 21282 0 0 21262 0 0 21732 0 0 21571 0 0 21402 0 0 21712 0 0 21600 0 0 21902 0 0 21753 0 0 21402 0 0 21525 0 0 21235 0 0 21789 0 0 21733 0 0 21385 0 0 21635 0 0 21391 0 0 21603 0 0 21552 0 0 21612 0 0 21762 0 0 21393 0 0 21577 0 0 21306 0 0 21551 0 0 21620 0 0 10642 0 0 0 0 0 0 0 0 0 0 0 0 0 0 0 0 0 0 0 0 0 0 0 0 0 0 0 0 0 
0 0 0 0 0 0 0 0 0 0 0 0 0 0 0 0 0 0 0 0 0 0 0 0 0 0 0 0 0 0 10874 0 0 21559 0 0 21825 0 0 21537 0 0 21399 0 0 21513 0 0 21437 0 0 21642 0 0 21774 0 0 21611 0 0 21840 0 0 21581 0 0 21532 0 0 21520 0 0 21673 0 0 21372 0 0 21284 0 0 21697 0 0 21645 0 0 21400 0 0 21666 0 0 21449 0 0 21602 0 0 21604 0 0 21633 0 0 21536 0 0 21827 0 0 21529 0 0 21490 0 0 21539 0 0 21735 0 0 21583 0 0 21573 0 0 21560 0 0 21574 0 0 21804 0 0 21432 0 0 21513 0 0 21730 0 0 21569 0 0 10760 0 0 0 0 0 0 0 0 0 0 0 0 0 0 0 0 0 0 0 0 0 0 0 0 0 0 0 0 0 
0 0 0 0 0 0 0 0 0 0 0 0 0 0 0 0 0 0 0 0 0 0 0 0 0 0 0 0 0 0 10645 0 0 21321 0 0 21702 0 0 21667 0 0 21626 0 0 21871 0 0 21588 0 0 21723 0 0 21463 0 0 21382 0 0 21509 0 0 21569 0 0 21770 0 0 21546 0 0 21526 0 0 21751 0 0 21718 0 0 21665 0 0 21574 0 0 21453 0 0 21716 0 0 21664 0 0 21356 0 0 21683 0 0 21503 0 0 21552 0 0 21643 0 0 21492 0 0 21665 0 0 21450 0 0 21454 0 0 21632 0 0 21981 0 0 21692 0 0 21406 0 0 21689 0 0 21821 0 0 21763 0 0 21368 0 0 21539 0 0 10805 0 0 0 0 0 0 0 0 0 0 0 0 0 0 0 0 0 0 0 0 0 0 0 0 0 0 0 0 0 
0 0 0 0 0 0 0 0 0 0 0 0 0 0 0 0 0 0 0 0 0 0 0 0 0 0 0 0 0 0 10951 0 0 21400 0 0 21598 0 0 21656 0 0 21312 0 0 21388 0 0 21546 0 0 21313 0 0 21500 0 0 21610 0 0 21691 0 0 21657 0 0 21639 0 0 21503 0 0 21493 0 0 21679 0 0 21294 0 0 21496 0 0 21601 0 0 21548 0 0 21363 0 0 21618 0 0 21648 0 0 21238 0 0 21477 0 0 21723 0 0 21843 0 0 21514 0 0 21692 0 0 21624 0 0 21627 0 0 21720 0 0 21579 0 0 21272 0 0 21665 0 0 21633 0 0 21506 0 0 21549 0 0 21392 0 0 21255 0 0 10883 0 0 0 0 0 0 0 0 0 0 0 0 0 0 0 0 0 0 0 0 0 0 0 0 0 0 0 0 0 
0 0 0 0 0 0 0 0 0 0 0 0 0 0 0 0 0 0 0 0 0 0 0 0 0 0 0 0 0 0 10669 0 0 21615 0 0 21460 0 0 21407 0 0 21440 0 0 21414 0 0 21789 0 0 21096 0 0 21484 0 0 21471 0 0 21576 0 0 21725 0 0 21425 0 0 21446 0 0 21689 0 0 21537 0 0 21584 0 0 21310 0 0 21160 0 0 21468 0 0 21771 0 0 21570 0 0 21491 0 0 21375 0 0 21513 0 0 21442 0 0 21333 0 0 21403 0 0 21681 0 0 21293 0 0 21403 0 0 21618 0 0 21463 0 0 21391 0 0 21636 0 0 21632 0 0 21771 0 0 21667 0 0 21528 0 0 21766 0 0 10791 0 0 0 0 0 0 0 0 0 0 0 0 0 0 0 0 0 0 0 0 0 0 0 0 0 0 0 0 0 
0 0 0 0 0 0 0 0 0 0 0 0 0 0 0 0 0 0 0 0 0 0 0 0 0 0 0 0 0 0 10806 0 0 21476 0 0 21207 0 0 21688 0 0 21309 0 0 21411 0 0 21214 0 0 21468 0 0 21830 0 0 21425 0 0 21566 0 0 21364 0 0 21840 0 0 21452 0 0 21201 0 0 21586 0 0 21547 0 0 21455 0 0 21574 0 0 21924 0 0 21695 0 0 21542 0 0 21771 0 0 21312 0 0 21803 0 0 21647 0 0 21615 0 0 21659 0 0 21505 0 0 21642 0 0 21823 0 0 21815 0 0 21415 0 0 21811 0 0 21455 0 0 21360 0 0 21723 0 0 21470 0 0 21502 0 0 21234 0 0 10853 0 0 0 0 0 0 0 0 0 0 0 0 0 0 0 0 0 0 0 0 0 0 0 0 0 0 0 0 0 
0 0 0 0 0 0 0 0 0 0 0 0 0 0 0 0 0 0 0 0 0 0 0 0 0 0 0 0 0 0 10635 0 0 21529 0 0 21678 0 0 21556 0 0 21732 0 0 21568 0 0 21764 0 0 21498 0 0 21442 0 0 21707 0 0 21670 0 0 21519 0 0 21745 0 0 21543 0 0 21538 0 0 21723 0 0 21762 0 0 21590 0 0 21716 0 0 21587 0 0 21723 0 0 21483 0 0 21306 0 0 21511 0 0 21612 0 0 21512 0 0 21395 0 0 21458 0 0 21375 0 0 21425 0 0 21450 0 0 21611 0 0 21476 0 0 21634 0 0 21426 0 0 21594 0 0 21468 0 0 21638 0 0 21713 0 0 21675 0 0 10823 0 0 0 0 0 0 0 0 0 0 0 0 0 0 0 0 0 0 0 0 0 0 0 0 0 0 0 0 0 
0 0 0 0 0 0 0 0 0 0 0 0 0 0 0 0 0 0 0 0 0 0 0 0 0 0 0 0 0 0 10865 0 0 21671 0 0 21488 0 0 21525 0 0 21341 0 0 21589 0 0 21595 0 0 21348 0 0 21496 0 0 21484 0 0 21538 0 0 21604 0 0 21372 0 0 21490 0 0 21555 0 0 21598 0 0 21510 0 0 21391 0 0 21624 0 0 21467 0 0 21592 0 0 21568 0 0 21642 0 0 21519 0 0 21378 0 0 21364 0 0 21719 0 0 21505 0 0 21667 0 0 21470 0 0 21404 0 0 21565 0 0 21746 0 0 21490 0 0 21486 0 0 21693 0 0 21460 0 0 21616 0 0 21412 0 0 21424 0 0 10677 0 0 0 0 0 0 0 0 0 0 0 0 0 0 0 0 0 0 0 0 0 0 0 0 0 0 0 0 0 
0 0 0 0 0 0 0 0 0 0 0 0 0 0 0 0 0 0 0 0 0 0 0 0 0 0 0 0 0 0 10807 0 0 21686 0 0 21921 0 0 21520 0 0 21658 0 0 21492 0 0 21508 0 0 21666 0 0 21483 0 0 21589 0 0 21646 0 0 21579 0 0 21581 0 0 21672 0 0 21567 0 0 21522 0 0 21708 0 0 21858 0 0 21426 0 0 21882 0 0 21760 0 0 21643 0 0 21822 0 0 21472 0 0 21811 0 0 21387 0 0 21494 0 0 21657 0 0 21429 0 0 21415 0 0 21592 0 0 21345 0 0 21208 0 0 21826 0 0 21465 0 0 21347 0 0 21634 0 0 21476 0 0 21520 0 0 21567 0 0 10767 0 0 0 0 0 0 0 0 0 0 0 0 0 0 0 0 0 0 0 0 0 0 0 0 0 0 0 0 0 
0 0 0 0 0 0 0 0 0 0 0 0 0 0 0 0 0 0 0 0 0 0 0 0 0 0 0 0 0 0 10862 0 0 21511 0 0 21490 0 0 21532 0 0 21313 0 0 21542 0 0 21238 0 0 21527 0 0 21481 0 0 21473 0 0 21375 0 0 21417 0 0 21772 0 0 21491 0 0 21441 0 0 21459 0 0 21990 0 0 21487 0 0 21672 0 0 21720 0 0 21880 0 0 21570 0 0 21821 0 0 21426 0 0 21553 0 0 21365 0 0 21570 0 0 21488 0 0 21597 0 0 21600 0 0 21456 0 0 21631 0 0 21574 0 0 21358 0 0 21744 0 0 21465 0 0 21404 0 0 21511 0 0 21543 0 0 21760 0 0 10676 0 0 0 0 0 0 0 0 0 0 0 0 0 0 0 0 0 0 0 0 0 0 0 0 0 0 0 0 0 
0 0 0 0 0 0 0 0 0 0 0 0 0 0 0 0 0 0 0 0 0 0 0 0 0 0 0 0 0 0 10891 0 0 21809 0 0 21764 0 0 21644 0 0 21420 0 0 21468 0 0 21358 0 0 21652 0 0 21742 0 0 21466 0 0 21596 0 0 21437 0 0 21539 0 0 21338 0 0 21667 0 0 21419 0 0 21784 0 0 21665 0 0 21629 0 0 21573 0 0 21643 0 0 21388 0 0 21638 0 0 21514 0 0 21599 0 0 21616 0 0 21599 0 0 21579 0 0 21609 0 0 21648 0 0 21391 0 0 21650 0 0 21552 0 0 21755 0 0 21501 0 0 21625 0 0 21803 0 0 21497 0 0 21690 0 0 21578 0 0 10751 0 0 0 0 0 0 0 0 0 0 0 0 0 0 0 0 0 0 0 0 0 0 0 0 0 0 0 0 0 
0 0 0 0 0 0 0 0 0 0 0 0 0 0 0 0 0 0 0 0 0 0 0 0 0 0 0 0 0 0 10712 0 0 21566 0 0 21550 0 0 21787 0 0 21709 0 0 21776 0 0 21408 0 0 21474 0 0 21686 0 0 21465 0 0 21706 0 0 21479 0 0 21585 0 0 21630 0 0 21751 0 0 21671 0 0 21612 0 0 21436 0 0 21281 0 0 21371 0 0 21447 0 0 21743 0 0 21688 0 0 21545 0 0 21471 0 0 21351 0 0 21459 0 0 21532 0 0 21616 0 0 21560 0 0 21570 0 0 21597 0 0 21612 0 0 21420 0 0 21456 0 0 21460 0 0 21620 0 0 21491 0 0 21550 0 0 21204 0 0 10734 0 0 0 0 0 0 0 0 0 0 0 0 0 0 0 0 0 0 0 0 0 0 0 0 0 0 0 0 0 
0 0 0 0 0 0 0 0 0 0 0 0 0 0 0 0 0 0 0 0 0 0 0 0 0 0 0 0 0 0 10976 0 0 21700 0 0 21304 0 0 21358 0 0 21678 0 0 21529 0 0 21439 0 0 21535 0 0 21293 0 0 21757 0 0 21717 0 0 21652 0 0 21295 0 0 21828 0 0 21337 0 0 21661 0 0 21903 0 0 21558 0 0 21465 0 0 21779 0 0 21813 0 0 21335 0 0 21813 0 0 21701 0 0 21506 0 0 21453 0 0 21532 0 0 21447 0 0 21572 0 0 21658 0 0 21436 0 0 21529 0 0 21725 0 0 21483 0 0 21395 0 0 21603 0 0 21379 0 0 21667 0 0 21469 0 0 21669 0 0 10801 0 0 0 0 0 0 0 0 0 0 0 0 0 0 0 0 0 0 0 0 0 0 0 0 0 0 0 0 0 
0 0 0 0 0 0 0 0 0 0 0 0 0 0 0 0 0 0 0 0 0 0 0 0 0 0 0 0 0 0 10759 0 0 21478 0 0 21458 0 0 21380 0 0 21204 0 0 21565 0 0 21621 0 0 21642 0 0 21816 0 0 21746 0 0 21844 0 0 21446 0 0 21640 0 0 21590 0 0 21743 0 0 21524 0 0 21768 0 0 21296 0 0 21597 0 0 21749 0 0 21384 0 0 21405 0 0 21478 0 0 21266 0 0 21409 0 0 21689 0 0 21591 0 0 21624 0 0 21742 0 0 21358 0 0 21401 0 0 21654 0 0 21353 0 0 21558 0 0 21559 0 0 21661 0 0 21459 0 0 21515 0 0 21558 0 0 21757 0 0 10660 0 0 0 0 0 0 0 0 0 0 0 0 0 0 0 0 0 0 0 0 0 0 0 0 0 0 0 0 0 
0 0 0 0 0 0 0 0 0 0 0 0 0 0 0 0 0 0 0 0 0 0 0 0 0 0 0 0 0 0 10930 0 0 21530 0 0 21637 0 0 21320 0 0 21647 0 0 21588 0 0 21654 0 0 21438 0 0 21295 0 0 21542 0 0 21632 0 0 21537 0 0 21668 0 0 21454 0 0 21342 0 0 21739 0 0 21391 0 0 21620 0 0 21376 0 0 21741 0 0 21673 0 0 21270 0 0 21583 0 0 21711 0 0 21616 0 0 21522 0 0 21709 0 0 21652 0 0 21609 0 0 21575 0 0 21655 0 0 21505 0 0 21793 0 0 21567 0 0 21760 0 0 21531 0 0 21460 0 0 21739 0 0 21565 0 0 21409 0 0 10847 0 0 0 0 0 0 0 0 0 0 0 0 0 0 0 0 0 0 0 0 0 0 0 0 0 0 0 0 0 
0 0 0 0 0 0 0 0 0 0 0 0 0 0 0 0 0 0 0 0 0 0 0 0 0 0 0 0 0 0 10709 0 0 21455 0 0 21658 0 0 21458 0 0 21656 0 0 21610 0 0 21840 0 0 21594 0 0 21461 0 0 21674 0 0 21570 0 0 21531 0 0 21581 0 0 21558 0 0 21526 0 0 21721 0 0 21504 0 0 21815 0 0 21544 0 0 21492 0 0 21666 0 0 21229 0 0 21598 0 0 21579 0 0 21810 0 0 21506 0 0 21652 0 0 21669 0 0 21639 0 0 21501 0 0 21510 0 0 21656 0 0 21401 0 0 21295 0 0 21495 0 0 21541 0 0 21675 0 0 21380 0 0 21651 0 0 21427 0 0 10668 0 0 0 0 0 0 0 0 0 0 0 0 0 0 0 0 0 0 0 0 0 0 0 0 0 0 0 0 0 
0 0 0 0 0 0 0 0 0 0 0 0 0 0 0 0 0 0 0 0 0 0 0 0 0 0 0 0 0 0 10666 0 0 21226 0 0 21597 0 0 21389 0 0 21441 0 0 21710 0 0 21459 0 0 21689 0 0 21477 0 0 21645 0 0 21724 0 0 21359 0 0 21267 0 0 21369 0 0 21514 0 0 21550 0 0 21487 0 0 21591 0 0 21305 0 0 21660 0 0 21567 0 0 21301 0 0 21449 0 0 21508 0 0 21583 0 0 21629 0 0 21524 0 0 21612 0 0 21540 0 0 21677 0 0 21557 0 0 21816 0 0 21498 0 0 21628 0 0 21334 0 0 21647 0 0 21630 0 0 21510 0 0 21447 0 0 21764 0 0 10783 0 0 0 0 0 0 0 0 0 0 0 0 0 0 0 0 0 0 0 0 0 0 0 0 0 0 0 0 0 
0 0 0 0 0 0 0 0 0 0 0 0 0 0 0 0 0 0 0 0 0 0 0 0 0 0 0 0 0 0 10739 0 0 21357 0 0 21477 0 0 21426 0 0 21783 0 0 21600 0 0 21389 0 0 21768 0 0 21593 0 0 21488 0 0 21729 0 0 21513 0 0 21208 0 0 21608 0 0 21564 0 0 21547 0 0 21498 0 0 21507 0 0 21616 0 0 21682 0 0 21482 0 0 21569 0 0 21807 0 0 21491 0 0 21600 0 0 21808 0 0 21934 0 0 21505 0 0 21461 0 0 21581 0 0 21680 0 0 21340 0 0 21632 0 0 21730 0 0 21370 0 0 21795 0 0 21564 0 0 21781 0 0 21652 0 0 21485 0 0 10591 0 0 0 0 0 0 0 0 0 0 0 0 0 0 0 0 0 0 0 0 0 0 0 0 0 0 0 0 0 
0 0 0 0 0 0 0 0 0 0 0 0 0 0 0 0 0 0 0 0 0 0 0 0 0 0 0 0 0 0 10819 0 0 21703 0 0 21565 0 0 21657 0 0 21265 0 0 21296 0 0 21635 0 0 21636 0 0 21700 0 0 21362 0 0 21346 0 0 21589 0 0 21228 0 0 21505 0 0 21713 0 0 21646 0 0 21628 0 0 21187 0 0 21721 0 0 21428 0 0 21437 0 0 21328 0 0 21633 0 0 21720 0 0 21794 0 0 21452 0 0 21737 0 0 21640 0 0 21411 0 0 21583 0 0 21367 0 0 21475 0 0 21585 0 0 21362 0 0 21855 0 0 21509 0 0 21581 0 0 21661 0 0 21479 0 0 21667 0 0 10767 0 0 0 0 0 0 0 0 0 0 0 0 0 0 0 0 0 0 0 0 0 0 0 0 0 0 0 0 0 
0 0 0 0 0 0 0 0 0 0 0 0 0 0 0 0 0 0 0 0 0 0 0 0 0 0 0 0 0 0 10622 0 0 21465 0 0 21468 0 0 21482 0 0 21780 0 0 21340 0 0 21566 0 0 21711 0 0 21814 0 0 21718 0 0 21399 0 0 21779 0 0 21849 0 0 21830 0 0 21467 0 0 21501 0 0 21585 0 0 21688 0 0 21563 0 0 21560 0 0 21620 0 0 21727 0 0 21771 0 0 21637 0 0 21407 0 0 21721 0 0 21811 0 0 21638 0 0 21657 0 0 21537 0 0 21769 0 0 21520 0 0 21309 0 0 21433 0 0 21566 0 0 21558 0 0 21655 0 0 21694 0 0 21532 0 0 21629 0 0 10922 0 0 0 0 0 0 0 0 0 0 0 0 0 0 0 0 0 0 0 0 0 0 0 0 0 0 0 0 0 
0 0 0 0 0 0 0 0 0 0 0 0 0 0 0 0 0 0 0 0 0 0 0 0 0 0 0 0 0 0 5242 0 0 10814 0 0 10636 0 0 10718 0 0 10862 0 0 10919 0 0 10813 0 0 10634 0 0 10710 0 0 10810 0 0 10785 0 0 10892 0 0 10896 0 0 10793 0 0 10812 0 0 10756 0 0 10659 0 0 10659 0 0 10848 0 0 10597 0 0 10747 0 0 10876 0 0 10822 0 0 10697 0 0 11031 0 0 10796 0 0 10834 0 0 10786 0 0 10729 0 0 10710 0 0 10730 0 0 10770 0 0 10640 0 0 10919 0 0 10996 0 0 10644 0 0 10750 0 0 10678 0 0 10684 0 0 10795 0 0 5317 0 0 0 0 0 0 0 0 0 0 0 0 0 0 0 0 0 0 0 0 0 0 0 0 0 0 0 0 0 
0 0 0 0 0 0 0 0 0 0 0 0 0 0 0 0 0 0 0 0 0 0 0 0 0 0 0 0 0 0 0 0 0 0 0 0 0 0 0 0 0 0 0 0 0 0 0 0 0 0 0 0 0 0 0 0 0 0 0 0 0 0 0 0 0 0 0 0 0 0 0 0 0 0 0 0 0 0 0 0 0 0 0 0 0 0 0 0 0 0 0 0 0 0 0 0 0 0 0 0 0 0 0 0 0 0 0 0 0 0 0 0 0 0 0 0 0 0 0 0 0 0 0 0 0 0 0 0 0 0 0 0 0 0 0 0 0 0 0 0 0 0 0 0 0 0 0 0 0 0 0 0 0 0 0 0 0 0 0 0 0 0 0 0 0 0 0 0 0 0 0 0 0 0 0 0 0 0 0 0 
0 0 0 0 0 0 0 0 0 0 0 0 0 0 0 0 0 0 0 0 0 0 0 0 0 0 0 0 0 0 0 0 0 0 0 0 0 0 0 0 0 0 0 0 0 0 0 0 0 0 0 0 0 0 0 0 0 0 0 0 0 0 0 0 0 0 0 0 0 0 0 0 0 0 0 0 0 0 0 0 0 0 0 0 0 0 0 0 0 0 0 0 0 0 0 0 0 0 0 0 0 0 0 0 0 0 0 0 0 0 0 0 0 0 0 0 0 0 0 0 0 0 0 0 0 0 0 0 0 0 0 0 0 0 0 0 0 0 0 0 0 0 0 0 0 0 0 0 0 0 0 0 0 0 0 0 0 0 0 0 0 0 0 0 0 0 0 0 0 0 0 0 0 0 0 0 0 0 0 0 
0 0 0 0 0 0 0 0 0 0 0 0 0 0 0 0 0 0 0 0 0 0 0 0 0 0 0 0 0 0 0 0 0 0 0 0 0 0 0 0 0 0 0 0 0 0 0 0 0 0 0 0 0 0 0 0 0 0 0 0 0 0 0 0 0 0 0 0 0 0 0 0 0 0 0 0 0 0 0 0 0 0 0 0 0 0 0 0 0 0 0 0 0 0 0 0 0 0 0 0 0 0 0 0 0 0 0 0 0 0 0 0 0 0 0 0 0 0 0 0 0 0 0 0 0 0 0 0 0 0 0 0 0 0 0 0 0 0 0 0 0 0 0 0 0 0 0 0 0 0 0 0 0 0 0 0 0 0 0 0 0 0 0 0 0 0 0 0 0 0 0 0 0 0 0 0 0 0 0 0 
0 0 0 0 0 0 0 0 0 0 0 0 0 0 0 0 0 0 0 0 0 0 0 0 0 0 0 0 0 0 0 0 0 0 0 0 0 0 0 0 0 0 0 0 0 0 0 0 0 0 0 0 0 0 0 0 0 0 0 0 0 0 0 0 0 0 0 0 0 0 0 0 0 0 0 0 0 0 0 0 0 0 0 0 0 0 0 0 0 0 0 0 0 0 0 0 0 0 0 0 0 0 0 0 0 0 0 0 0 0 0 0 0 0 0 0 0 0 0 0 0 0 0 0 0 0 0 0 0 0 0 0 0 0 0 0 0 0 0 0 0 0 0 0 0 0 0 0 0 0 0 0 0 0 0 0 0 0 0 0 0 0 0 0 0 0 0 0 0 0 0 0 0 0 0 0 0 0 0 0 
0 0 0 0 0 0 0 0 0 0 0 0 0 0 0 0 0 0 0 0 0 0 0 0 0 0 0 0 0 0 0 0 0 0 0 0 0 0 0 0 0 0 0 0 0 0 0 0 0 0 0 0 0 0 0 0 0 0 0 0 0 0 0 0 0 0 0 0 0 0 0 0 0 0 0 0 0 0 0 0 0 0 0 0 0 0 0 0 0 0 0 0 0 0 0 0 0 0 0 0 0 0 0 0 0 0 0 0 0 0 0 0 0 0 0 0 0 0 0 0 0 0 0 0 0 0 0 0 0 0 0 0 0 0 0 0 0 0 0 0 0 0 0 0 0 0 0 0 0 0 0 0 0 0 0 0 0 0 0 0 0 0 0 0 0 0 0 0 0 0 0 0 0 0 0 0 0 0 0 0 
0 0 0 0 0 0 0 0 0 0 0 0 0 0 0 0 0 0 0 0 0 0 0 0 0 0 0 0 0 0 0 0 0 0 0 0 0 0 0 0 0 0 0 0 0 0 0 0 0 0 0 0 0 0 0 0 0 0 0 0 0 0 0 0 0 0 0 0 0 0 0 0 0 0 0 0 0 0 0 0 0 0 0 0 0 0 0 0 0 0 0 0 0 0 0 0 0 0 0 0 0 0 0 0 0 0 0 0 0 0 0 0 0 0 0 0 0 0 0 0 0 0 0 0 0 0 0 0 0 0 0 0 0 0 0 0 0 0 0 0 0 0 0 0 0 0 0 0 0 0 0 0 0 0 0 0 0 0 0 0 0 0 0 0 0 0 0 0 0 0 0 0 0 0 0 0 0 0 0 0 
0 0 0 0 0 0 0 0 0 0 0 0 0 0 0 0 0 0 0 0 0 0 0 0 0 0 0 0 0 0 0 0 0 0 0 0 0 0 0 0 0 0 0 0 0 0 0 0 0 0 0 0 0 0 0 0 0 0 0 0 0 0 0 0 0 0 0 0 0 0 0 0 0 0 0 0 0 0 0 0 0 0 0 0 0 0 0 0 0 0 0 0 0 0 0 0 0 0 0 0 0 0 0 0 0 0 0 0 0 0 0 0 0 0 0 0 0 0 0 0 0 0 0 0 0 0 0 0 0 0 0 0 0 0 0 0 0 0 0 0 0 0 0 0 0 0 0 0 0 0 0 0 0 0 0 0 0 0 0 0 0 0 0 0 0 0 0 0 0 0 0 0 0 0 0 0 0 0 0 0 
0 0 0 0 0 0 0 0 0 0 0 0 0 0 0 0 0 0 0 0 0 0 0 0 0 0 0 0 0 0 0 0 0 0 0 0 0 0 0 0 0 0 0 0 0 0 0 0 0 0 0 0 0 0 0 0 0 0 0 0 0 0 0 0 0 0 0 0 0 0 0 0 0 0 0 0 0 0 0 0 0 0 0 0 0 0 0 0 0 0 0 0 0 0 0 0 0 0 0 0 0 0 0 0 0 0 0 0 0 0 0 0 0 0 0 0 0 0 0 0 0 0 0 0 0 0 0 0 0 0 0 0 0 0 0 0 0 0 0 0 0 0 0 0 0 0 0 0 0 0 0 0 0 0 0 0 0 0 0 0 0 0 0 0 0 0 0 0 0 0 0 0 0 0 0 0 0 0 0 0 
0 0 0 0 0 0 0 0 0 0 0 0 0 0 0 0 0 0 0 0 0 0 0 0 0 0 0 0 0 0 0 0 0 0 0 0 0 0 0 0 0 0 0 0 0 0 0 0 0 0 0 0 0 0 0 0 0 0 0 0 0 0 0 0 0 0 0 0 0 0 0 0 0 0 0 0 0 0 0 0 0 0 0 0 0 0 0 0 0 0 0 0 0 0 0 0 0 0 0 0 0 0 0 0 0 0 0 0 0 0 0 0 0 0 0 0 0 0 0 0 0 0 0 0 0 0 0 0 0 0 0 0 0 0 0 0 0 0 0 0 0 0 0 0 0 0 0 0 0 0 0 0 0 0 0 0 0 0 0 0 0 0 0 0 0 0 0 0 0 0 0 0 0 0 0 0 0 0 0 0 
