P3
# This is a dose file slice at depth 37 of 100
60 60
# now we give the maximum value of the RGB coordinates.
34204
0 0 0 0 0 0 0 0 0 0 0 0 0 0 0 0 0 0 0 0 0 0 0 0 0 0 0 0 0 0 0 0 0 0 0 0 0 0 0 0 0 0 0 0 0 0 0 0 0 0 0 0 0 0 0 0 0 0 0 0 0 0 0 0 0 0 0 0 0 0 0 0 0 0 0 0 0 0 0 0 0 0 0 0 0 0 0 0 0 0 0 0 0 0 0 0 0 0 0 0 0 0 0 0 0 0 0 0 0 0 0 0 0 0 0 0 0 0 0 0 0 0 0 0 0 0 0 0 0 0 0 0 0 0 0 0 0 0 0 0 0 0 0 0 0 0 0 0 0 0 0 0 0 0 0 0 0 0 0 0 0 0 0 0 0 0 0 0 0 0 0 0 0 0 0 0 0 0 0 0 
0 0 0 0 0 0 0 0 0 0 0 0 0 0 0 0 0 0 0 0 0 0 0 0 0 0 0 0 0 0 0 0 0 0 0 0 0 0 0 0 0 0 0 0 0 0 0 0 0 0 0 0 0 0 0 0 0 0 0 0 0 0 0 0 0 0 0 0 0 0 0 0 0 0 0 0 0 0 0 0 0 0 0 0 0 0 0 0 0 0 0 0 0 0 0 0 0 0 0 0 0 0 0 0 0 0 0 0 0 0 0 0 0 0 0 0 0 0 0 0 0 0 0 0 0 0 0 0 0 0 0 0 0 0 0 0 0 0 0 0 0 0 0 0 0 0 0 0 0 0 0 0 0 0 0 0 0 0 0 0 0 0 0 0 0 0 0 0 0 0 0 0 0 0 0 0 0 0 0 0 
0 0 0 0 0 0 0 0 0 0 0 0 0 0 0 0 0 0 0 0 0 0 0 0 0 0 0 0 0 0 0 0 0 0 0 0 0 0 0 0 0 0 0 0 0 0 0 0 0 0 0 0 0 0 0 0 0 0 0 0 0 0 0 0 0 0 0 0 0 0 0 0 0 0 0 0 0 0 0 0 0 0 0 0 0 0 0 0 0 0 0 0 0 0 0 0 0 0 0 0 0 0 0 0 0 0 0 0 0 0 0 0 0 0 0 0 0 0 0 0 0 0 0 0 0 0 0 0 0 0 0 0 0 0 0 0 0 0 0 0 0 0 0 0 0 0 0 0 0 0 0 0 0 0 0 0 0 0 0 0 0 0 0 0 0 0 0 0 0 0 0 0 0 0 0 0 0 0 0 0 
0 0 0 0 0 0 0 0 0 0 0 0 0 0 0 0 0 0 0 0 0 0 0 0 0 0 0 0 0 0 0 0 0 0 0 0 0 0 0 0 0 0 0 0 0 0 0 0 0 0 0 0 0 0 0 0 0 0 0 0 0 0 0 0 0 0 0 0 0 0 0 0 0 0 0 0 0 0 0 0 0 0 0 0 0 0 0 0 0 0 0 0 0 0 0 0 0 0 0 0 0 0 0 0 0 0 0 0 0 0 0 0 0 0 0 0 0 0 0 0 0 0 0 0 0 0 0 0 0 0 0 0 0 0 0 0 0 0 0 0 0 0 0 0 0 0 0 0 0 0 0 0 0 0 0 0 0 0 0 0 0 0 0 0 0 0 0 0 0 0 0 0 0 0 0 0 0 0 0 0 
0 0 0 0 0 0 0 0 0 0 0 0 0 0 0 0 0 0 0 0 0 0 0 0 0 0 0 0 0 0 0 0 0 0 0 0 0 0 0 0 0 0 0 0 0 0 0 0 0 0 0 0 0 0 0 0 0 0 0 0 0 0 0 0 0 0 0 0 0 0 0 0 0 0 0 0 0 0 0 0 0 0 0 0 0 0 0 0 0 0 0 0 0 0 0 0 0 0 0 0 0 0 0 0 0 0 0 0 0 0 0 0 0 0 0 0 0 0 0 0 0 0 0 0 0 0 0 0 0 0 0 0 0 0 0 0 0 0 0 0 0 0 0 0 0 0 0 0 0 0 0 0 0 0 0 0 0 0 0 0 0 0 0 0 0 0 0 0 0 0 0 0 0 0 0 0 0 0 0 0 
0 0 0 0 0 0 0 0 0 0 0 0 0 0 0 0 0 0 0 0 0 0 0 0 0 0 0 0 0 0 0 0 0 0 0 0 0 0 0 0 0 0 0 0 0 0 0 0 0 0 0 0 0 0 0 0 0 0 0 0 0 0 0 0 0 0 0 0 0 0 0 0 0 0 0 0 0 0 0 0 0 0 0 0 0 0 0 0 0 0 0 0 0 0 0 0 0 0 0 0 0 0 0 0 0 0 0 0 0 0 0 0 0 0 0 0 0 0 0 0 0 0 0 0 0 0 0 0 0 0 0 0 0 0 0 0 0 0 0 0 0 0 0 0 0 0 0 0 0 0 0 0 0 0 0 0 0 0 0 0 0 0 0 0 0 0 0 0 0 0 0 0 0 0 0 0 0 0 0 0 
0 0 0 0 0 0 0 0 0 0 0 0 0 0 0 0 0 0 0 0 0 0 0 0 0 0 0 0 0 0 0 0 0 0 0 0 0 0 0 0 0 0 0 0 0 0 0 0 0 0 0 0 0 0 0 0 0 0 0 0 0 0 0 0 0 0 0 0 0 0 0 0 0 0 0 0 0 0 0 0 0 0 0 0 0 0 0 0 0 0 0 0 0 0 0 0 0 0 0 0 0 0 0 0 0 0 0 0 0 0 0 0 0 0 0 0 0 0 0 0 0 0 0 0 0 0 0 0 0 0 0 0 0 0 0 0 0 0 0 0 0 0 0 0 0 0 0 0 0 0 0 0 0 0 0 0 0 0 0 0 0 0 0 0 0 0 0 0 0 0 0 0 0 0 0 0 0 0 0 0 
0 0 0 0 0 0 0 0 0 0 0 0 0 0 0 0 0 0 0 0 0 0 0 0 0 0 0 0 0 0 0 0 0 0 0 0 0 0 0 0 0 0 0 0 0 0 0 0 0 0 0 0 0 0 0 0 0 0 0 0 0 0 0 0 0 0 0 0 0 0 0 0 0 0 0 0 0 0 0 0 0 0 0 0 0 0 0 0 0 0 0 0 0 0 0 0 0 0 0 0 0 0 0 0 0 0 0 0 0 0 0 0 0 0 0 0 0 0 0 0 0 0 0 0 0 0 0 0 0 0 0 0 0 0 0 0 0 0 0 0 0 0 0 0 0 0 0 0 0 0 0 0 0 0 0 0 0 0 0 0 0 0 0 0 0 0 0 0 0 0 0 0 0 0 0 0 0 0 0 0 
0 0 0 0 0 0 0 0 0 0 0 0 0 0 0 0 0 0 0 0 0 0 0 0 0 0 0 0 0 0 0 0 0 0 0 0 0 0 0 0 0 0 0 0 0 0 0 0 0 0 0 0 0 0 0 0 0 0 0 0 0 0 0 0 0 0 0 0 0 0 0 0 0 0 0 0 0 0 0 0 0 0 0 0 0 0 0 0 0 0 0 0 0 0 0 0 0 0 0 0 0 0 0 0 0 0 0 0 0 0 0 0 0 0 0 0 0 0 0 0 0 0 0 0 0 0 0 0 0 0 0 0 0 0 0 0 0 0 0 0 0 0 0 0 0 0 0 0 0 0 0 0 0 0 0 0 0 0 0 0 0 0 0 0 0 0 0 0 0 0 0 0 0 0 0 0 0 0 0 0 
0 0 0 0 0 0 0 0 0 0 0 0 0 0 0 0 0 0 0 0 0 0 0 0 0 0 0 0 0 0 0 0 0 0 0 0 0 0 0 0 0 0 0 0 0 0 0 0 0 0 0 0 0 0 0 0 0 0 0 0 0 0 0 0 0 0 0 0 0 0 0 0 0 0 0 0 0 0 0 0 0 0 0 0 0 0 0 0 0 0 0 0 0 0 0 0 0 0 0 0 0 0 0 0 0 0 0 0 0 0 0 0 0 0 0 0 0 0 0 0 0 0 0 0 0 0 0 0 0 0 0 0 0 0 0 0 0 0 0 0 0 0 0 0 0 0 0 0 0 0 0 0 0 0 0 0 0 0 0 0 0 0 0 0 0 0 0 0 0 0 0 0 0 0 0 0 0 0 0 0 
0 0 0 0 0 0 0 0 0 0 0 0 0 0 0 0 0 0 0 0 0 0 0 0 0 0 0 0 0 0 2850 0 0 5568 0 0 5662 0 0 5777 0 0 5680 0 0 5705 0 0 5631 0 0 5665 0 0 5607 0 0 5618 0 0 5559 0 0 5511 0 0 5691 0 0 5654 0 0 5692 0 0 5571 0 0 5566 0 0 5538 0 0 5654 0 0 5620 0 0 5554 0 0 5458 0 0 5510 0 0 5615 0 0 5540 0 0 5500 0 0 5699 0 0 5601 0 0 5689 0 0 5713 0 0 5565 0 0 5622 0 0 5479 0 0 5619 0 0 5722 0 0 5649 0 0 5545 0 0 5545 0 0 5539 0 0 5435 0 0 2734 0 0 0 0 0 0 0 0 0 0 0 0 0 0 0 0 0 0 0 0 0 0 0 0 0 0 0 0 0 
0 0 0 0 0 0 0 0 0 0 0 0 0 0 0 0 0 0 0 0 0 0 0 0 0 0 0 0 0 0 5477 0 0 11267 0 0 11394 0 0 11018 0 0 11117 0 0 11354 0 0 11111 0 0 11220 0 0 11167 0 0 11124 0 0 11180 0 0 11315 0 0 11273 0 0 11396 0 0 11131 0 0 11223 0 0 11287 0 0 11109 0 0 11179 0 0 11191 0 0 11302 0 0 11207 0 0 11170 0 0 11430 0 0 11100 0 0 10997 0 0 11139 0 0 11280 0 0 11226 0 0 11223 0 0 11190 0 0 11467 0 0 11273 0 0 11442 0 0 11201 0 0 11244 0 0 11305 0 0 11325 0 0 11329 0 0 11257 0 0 5531 0 0 0 0 0 0 0 0 0 0 0 0 0 0 0 0 0 0 0 0 0 0 0 0 0 0 0 0 0 
0 0 0 0 0 0 0 0 0 0 0 0 0 0 0 0 0 0 0 0 0 0 0 0 0 0 0 0 0 0 5680 0 0 11151 0 0 11292 0 0 11151 0 0 11035 0 0 11263 0 0 11198 0 0 11153 0 0 11325 0 0 11347 0 0 11135 0 0 11282 0 0 11121 0 0 11231 0 0 11129 0 0 11408 0 0 11353 0 0 11163 0 0 11239 0 0 11263 0 0 11255 0 0 11058 0 0 11282 0 0 11184 0 0 11167 0 0 11165 0 0 11273 0 0 11090 0 0 11233 0 0 11250 0 0 11301 0 0 11451 0 0 11145 0 0 11458 0 0 11353 0 0 11179 0 0 11211 0 0 11410 0 0 11249 0 0 11340 0 0 5563 0 0 0 0 0 0 0 0 0 0 0 0 0 0 0 0 0 0 0 0 0 0 0 0 0 0 0 0 0 
0 0 0 0 0 0 0 0 0 0 0 0 0 0 0 0 0 0 0 0 0 0 0 0 0 0 0 0 0 0 5501 0 0 11127 0 0 11185 0 0 11208 0 0 11243 0 0 11118 0 0 11288 0 0 11269 0 0 10970 0 0 11231 0 0 11024 0 0 11039 0 0 11436 0 0 11576 0 0 11300 0 0 11200 0 0 11353 0 0 11253 0 0 11076 0 0 11160 0 0 11175 0 0 11295 0 0 11252 0 0 11287 0 0 11154 0 0 11060 0 0 11384 0 0 11328 0 0 11185 0 0 11318 0 0 11142 0 0 11449 0 0 11148 0 0 11348 0 0 11278 0 0 11308 0 0 11150 0 0 11146 0 0 11340 0 0 11283 0 0 5652 0 0 0 0 0 0 0 0 0 0 0 0 0 0 0 0 0 0 0 0 0 0 0 0 0 0 0 0 0 
0 0 0 0 0 0 0 0 0 0 0 0 0 0 0 0 0 0 0 0 0 0 0 0 0 0 0 0 0 0 5598 0 0 11336 0 0 11040 0 0 11051 0 0 11375 0 0 11197 0 0 11228 0 0 11250 0 0 11209 0 0 11184 0 0 11219 0 0 11161 0 0 11294 0 0 11231 0 0 11166 0 0 11341 0 0 11215 0 0 11070 0 0 11150 0 0 11145 0 0 11177 0 0 11271 0 0 11254 0 0 11356 0 0 11088 0 0 11282 0 0 11264 0 0 11272 0 0 11152 0 0 11315 0 0 11158 0 0 11217 0 0 11358 0 0 11268 0 0 11177 0 0 11182 0 0 11132 0 0 11073 0 0 11304 0 0 11312 0 0 5591 0 0 0 0 0 0 0 0 0 0 0 0 0 0 0 0 0 0 0 0 0 0 0 0 0 0 0 0 0 
0 0 0 0 0 0 0 0 0 0 0 0 0 0 0 0 0 0 0 0 0 0 0 0 0 0 0 0 0 0 5536 0 0 11289 0 0 11131 0 0 11272 0 0 11193 0 0 11077 0 0 11332 0 0 11044 0 0 11179 0 0 11075 0 0 11309 0 0 11279 0 0 11241 0 0 11218 0 0 11185 0 0 11204 0 0 11360 0 0 11249 0 0 11300 0 0 11216 0 0 11217 0 0 11224 0 0 11269 0 0 11143 0 0 11312 0 0 11456 0 0 11087 0 0 11211 0 0 11147 0 0 11418 0 0 11329 0 0 11138 0 0 11162 0 0 11221 0 0 11247 0 0 11463 0 0 11196 0 0 11221 0 0 11208 0 0 11301 0 0 5613 0 0 0 0 0 0 0 0 0 0 0 0 0 0 0 0 0 0 0 0 0 0 0 0 0 0 0 0 0 
0 0 0 0 0 0 0 0 0 0 0 0 0 0 0 0 0 0 0 0 0 0 0 0 0 0 0 0 0 0 5665 0 0 11267 0 0 11272 0 0 11148 0 0 11119 0 0 11020 0 0 11278 0 0 11190 0 0 11241 0 0 11316 0 0 11271 0 0 11214 0 0 11220 0 0 11344 0 0 11279 0 0 11169 0 0 11368 0 0 11024 0 0 11091 0 0 11141 0 0 11219 0 0 11235 0 0 11112 0 0 11253 0 0 11165 0 0 11011 0 0 10955 0 0 11180 0 0 11214 0 0 11129 0 0 11005 0 0 11236 0 0 11139 0 0 11216 0 0 11222 0 0 11020 0 0 11080 0 0 11153 0 0 11149 0 0 11160 0 0 5615 0 0 0 0 0 0 0 0 0 0 0 0 0 0 0 0 0 0 0 0 0 0 0 0 0 0 0 0 0 
0 0 0 0 0 0 0 0 0 0 0 0 0 0 0 0 0 0 0 0 0 0 0 0 0 0 0 0 0 0 5558 0 0 11254 0 0 11050 0 0 11370 0 0 11305 0 0 11061 0 0 11279 0 0 11206 0 0 11362 0 0 11415 0 0 11305 0 0 11191 0 0 11136 0 0 11119 0 0 11131 0 0 11131 0 0 11255 0 0 11277 0 0 11169 0 0 11190 0 0 11289 0 0 11236 0 0 11279 0 0 11133 0 0 11311 0 0 11262 0 0 11142 0 0 11140 0 0 11280 0 0 11329 0 0 11162 0 0 11032 0 0 11335 0 0 11160 0 0 11228 0 0 11145 0 0 11128 0 0 11267 0 0 11193 0 0 11152 0 0 5689 0 0 0 0 0 0 0 0 0 0 0 0 0 0 0 0 0 0 0 0 0 0 0 0 0 0 0 0 0 
0 0 0 0 0 0 0 0 0 0 0 0 0 0 0 0 0 0 0 0 0 0 0 0 0 0 0 0 0 0 5701 0 0 11268 0 0 11048 0 0 11371 0 0 11167 0 0 11123 0 0 11295 0 0 11200 0 0 11213 0 0 11351 0 0 11170 0 0 11162 0 0 11244 0 0 11114 0 0 11212 0 0 11385 0 0 11239 0 0 11081 0 0 11170 0 0 11282 0 0 11330 0 0 11173 0 0 11186 0 0 11174 0 0 11234 0 0 11203 0 0 11129 0 0 11213 0 0 11224 0 0 11366 0 0 11279 0 0 11244 0 0 11230 0 0 11317 0 0 11090 0 0 11232 0 0 11107 0 0 11243 0 0 11066 0 0 11259 0 0 5558 0 0 0 0 0 0 0 0 0 0 0 0 0 0 0 0 0 0 0 0 0 0 0 0 0 0 0 0 0 
0 0 0 0 0 0 0 0 0 0 0 0 0 0 0 0 0 0 0 0 0 0 0 0 0 0 0 0 0 0 5655 0 0 11155 0 0 11254 0 0 11268 0 0 11433 0 0 11258 0 0 11136 0 0 11271 0 0 11275 0 0 11397 0 0 11118 0 0 11200 0 0 11060 0 0 11424 0 0 11264 0 0 11361 0 0 11283 0 0 11253 0 0 11272 0 0 11173 0 0 11175 0 0 10967 0 0 11034 0 0 11166 0 0 11166 0 0 11148 0 0 11245 0 0 11211 0 0 11308 0 0 11231 0 0 11231 0 0 11163 0 0 11222 0 0 11184 0 0 11291 0 0 11086 0 0 11149 0 0 11277 0 0 11213 0 0 11182 0 0 5622 0 0 0 0 0 0 0 0 0 0 0 0 0 0 0 0 0 0 0 0 0 0 0 0 0 0 0 0 0 
0 0 0 0 0 0 0 0 0 0 0 0 0 0 0 0 0 0 0 0 0 0 0 0 0 0 0 0 0 0 5587 0 0 11181 0 0 11289 0 0 11223 0 0 11153 0 0 11303 0 0 11387 0 0 11156 0 0 11163 0 0 11234 0 0 11122 0 0 11339 0 0 11111 0 0 11317 0 0 11148 0 0 11429 0 0 11157 0 0 11104 0 0 11247 0 0 11068 0 0 11010 0 0 11189 0 0 11215 0 0 11194 0 0 10980 0 0 11349 0 0 11346 0 0 11235 0 0 11182 0 0 11269 0 0 11268 0 0 10955 0 0 11238 0 0 11480 0 0 11310 0 0 11143 0 0 11279 0 0 11303 0 0 11122 0 0 11247 0 0 5551 0 0 0 0 0 0 0 0 0 0 0 0 0 0 0 0 0 0 0 0 0 0 0 0 0 0 0 0 0 
0 0 0 0 0 0 0 0 0 0 0 0 0 0 0 0 0 0 0 0 0 0 0 0 0 0 0 0 0 0 5542 0 0 11276 0 0 11289 0 0 11268 0 0 11059 0 0 11180 0 0 11242 0 0 11254 0 0 11360 0 0 11086 0 0 11061 0 0 11233 0 0 11364 0 0 11328 0 0 11133 0 0 11239 0 0 11244 0 0 10931 0 0 11399 0 0 11307 0 0 11126 0 0 11105 0 0 11164 0 0 11279 0 0 11321 0 0 11268 0 0 11246 0 0 11091 0 0 11213 0 0 11205 0 0 11295 0 0 11169 0 0 11099 0 0 11153 0 0 11347 0 0 11274 0 0 11141 0 0 11176 0 0 11307 0 0 11110 0 0 5510 0 0 0 0 0 0 0 0 0 0 0 0 0 0 0 0 0 0 0 0 0 0 0 0 0 0 0 0 0 
0 0 0 0 0 0 0 0 0 0 0 0 0 0 0 0 0 0 0 0 0 0 0 0 0 0 0 0 0 0 5581 0 0 11381 0 0 11210 0 0 11135 0 0 11280 0 0 11281 0 0 11206 0 0 11501 0 0 11235 0 0 11050 0 0 11141 0 0 11317 0 0 11141 0 0 11294 0 0 11406 0 0 11052 0 0 11364 0 0 11188 0 0 11288 0 0 11119 0 0 11515 0 0 11207 0 0 11140 0 0 11406 0 0 11137 0 0 11115 0 0 11172 0 0 11039 0 0 11093 0 0 11391 0 0 11253 0 0 11119 0 0 11256 0 0 11058 0 0 11155 0 0 11232 0 0 11199 0 0 11249 0 0 11488 0 0 11185 0 0 5586 0 0 0 0 0 0 0 0 0 0 0 0 0 0 0 0 0 0 0 0 0 0 0 0 0 0 0 0 0 
0 0 0 0 0 0 0 0 0 0 0 0 0 0 0 0 0 0 0 0 0 0 0 0 0 0 0 0 0 0 5618 0 0 11171 0 0 11367 0 0 11207 0 0 11043 0 0 11455 0 0 11412 0 0 11334 0 0 11101 0 0 11286 0 0 11161 0 0 11391 0 0 11059 0 0 11185 0 0 11341 0 0 11112 0 0 11031 0 0 11206 0 0 11304 0 0 11047 0 0 11244 0 0 11284 0 0 11374 0 0 11281 0 0 11068 0 0 11198 0 0 11370 0 0 11351 0 0 11140 0 0 11183 0 0 11077 0 0 11040 0 0 11253 0 0 11257 0 0 11244 0 0 11299 0 0 11278 0 0 11394 0 0 11135 0 0 11225 0 0 5538 0 0 0 0 0 0 0 0 0 0 0 0 0 0 0 0 0 0 0 0 0 0 0 0 0 0 0 0 0 
0 0 0 0 0 0 0 0 0 0 0 0 0 0 0 0 0 0 0 0 0 0 0 0 0 0 0 0 0 0 5632 0 0 11260 0 0 11220 0 0 11063 0 0 11062 0 0 11339 0 0 11170 0 0 11286 0 0 11285 0 0 11391 0 0 11162 0 0 11071 0 0 11281 0 0 11152 0 0 11091 0 0 11327 0 0 11158 0 0 11126 0 0 11072 0 0 11259 0 0 11300 0 0 11240 0 0 11390 0 0 11211 0 0 11132 0 0 11408 0 0 11073 0 0 11417 0 0 11429 0 0 11282 0 0 11165 0 0 11188 0 0 11126 0 0 11217 0 0 11354 0 0 11579 0 0 11294 0 0 11147 0 0 11124 0 0 11367 0 0 5572 0 0 0 0 0 0 0 0 0 0 0 0 0 0 0 0 0 0 0 0 0 0 0 0 0 0 0 0 0 
0 0 0 0 0 0 0 0 0 0 0 0 0 0 0 0 0 0 0 0 0 0 0 0 0 0 0 0 0 0 5652 0 0 11227 0 0 11035 0 0 11304 0 0 11147 0 0 11150 0 0 11314 0 0 11280 0 0 11240 0 0 10932 0 0 11332 0 0 11135 0 0 11178 0 0 11136 0 0 11394 0 0 11193 0 0 11232 0 0 11490 0 0 11095 0 0 11226 0 0 11293 0 0 10996 0 0 11099 0 0 11176 0 0 11202 0 0 11156 0 0 11147 0 0 11260 0 0 11271 0 0 11448 0 0 11346 0 0 11041 0 0 11177 0 0 11336 0 0 11212 0 0 11013 0 0 11183 0 0 11446 0 0 10963 0 0 11192 0 0 5570 0 0 0 0 0 0 0 0 0 0 0 0 0 0 0 0 0 0 0 0 0 0 0 0 0 0 0 0 0 
0 0 0 0 0 0 0 0 0 0 0 0 0 0 0 0 0 0 0 0 0 0 0 0 0 0 0 0 0 0 5658 0 0 11052 0 0 11151 0 0 11372 0 0 11163 0 0 11130 0 0 11346 0 0 11192 0 0 11166 0 0 11191 0 0 11322 0 0 11179 0 0 11265 0 0 11054 0 0 11349 0 0 11272 0 0 11359 0 0 11166 0 0 11214 0 0 11162 0 0 11337 0 0 11405 0 0 11277 0 0 11272 0 0 11208 0 0 11095 0 0 11177 0 0 11203 0 0 11271 0 0 11123 0 0 11324 0 0 11026 0 0 11212 0 0 11127 0 0 11291 0 0 11367 0 0 11176 0 0 11336 0 0 11135 0 0 11207 0 0 5513 0 0 0 0 0 0 0 0 0 0 0 0 0 0 0 0 0 0 0 0 0 0 0 0 0 0 0 0 0 
0 0 0 0 0 0 0 0 0 0 0 0 0 0 0 0 0 0 0 0 0 0 0 0 0 0 0 0 0 0 5628 0 0 11161 0 0 11135 0 0 11370 0 0 11177 0 0 11356 0 0 11373 0 0 11092 0 0 11073 0 0 11010 0 0 11274 0 0 11379 0 0 11222 0 0 11402 0 0 11485 0 0 11080 0 0 11109 0 0 11464 0 0 11341 0 0 11386 0 0 11347 0 0 11053 0 0 11425 0 0 11101 0 0 11282 0 0 11328 0 0 11184 0 0 11288 0 0 11203 0 0 11387 0 0 11160 0 0 11298 0 0 11260 0 0 11268 0 0 11454 0 0 11322 0 0 11318 0 0 11248 0 0 11298 0 0 11446 0 0 5573 0 0 0 0 0 0 0 0 0 0 0 0 0 0 0 0 0 0 0 0 0 0 0 0 0 0 0 0 0 
0 0 0 0 0 0 0 0 0 0 0 0 0 0 0 0 0 0 0 0 0 0 0 0 0 0 0 0 0 0 5465 0 0 11122 0 0 10880 0 0 11271 0 0 11139 0 0 11299 0 0 10969 0 0 11146 0 0 11264 0 0 11228 0 0 11287 0 0 11178 0 0 11331 0 0 11364 0 0 11068 0 0 11271 0 0 11247 0 0 11165 0 0 11320 0 0 11287 0 0 11153 0 0 10949 0 0 11236 0 0 11235 0 0 11226 0 0 11269 0 0 11202 0 0 11162 0 0 11058 0 0 11168 0 0 11272 0 0 11228 0 0 11116 0 0 11400 0 0 11172 0 0 11253 0 0 11357 0 0 11152 0 0 11232 0 0 11461 0 0 5715 0 0 0 0 0 0 0 0 0 0 0 0 0 0 0 0 0 0 0 0 0 0 0 0 0 0 0 0 0 
0 0 0 0 0 0 0 0 0 0 0 0 0 0 0 0 0 0 0 0 0 0 0 0 0 0 0 0 0 0 5362 0 0 11075 0 0 11271 0 0 11199 0 0 11226 0 0 11197 0 0 11392 0 0 11316 0 0 11220 0 0 11088 0 0 11516 0 0 11267 0 0 10935 0 0 11253 0 0 11140 0 0 11369 0 0 11214 0 0 11330 0 0 11288 0 0 11264 0 0 11199 0 0 11082 0 0 11148 0 0 11186 0 0 11308 0 0 11463 0 0 11454 0 0 11393 0 0 11094 0 0 11186 0 0 11470 0 0 11334 0 0 11310 0 0 11155 0 0 11192 0 0 11326 0 0 11228 0 0 11135 0 0 11270 0 0 11186 0 0 5532 0 0 0 0 0 0 0 0 0 0 0 0 0 0 0 0 0 0 0 0 0 0 0 0 0 0 0 0 0 
0 0 0 0 0 0 0 0 0 0 0 0 0 0 0 0 0 0 0 0 0 0 0 0 0 0 0 0 0 0 5726 0 0 11221 0 0 11285 0 0 11124 0 0 11353 0 0 11180 0 0 11355 0 0 11373 0 0 11201 0 0 11301 0 0 11110 0 0 11184 0 0 11428 0 0 11034 0 0 11324 0 0 11138 0 0 11101 0 0 11246 0 0 11251 0 0 11188 0 0 11288 0 0 11200 0 0 11409 0 0 11386 0 0 11109 0 0 11250 0 0 11183 0 0 11305 0 0 11275 0 0 11245 0 0 11117 0 0 11211 0 0 11248 0 0 11453 0 0 11093 0 0 11238 0 0 11255 0 0 11225 0 0 11047 0 0 11072 0 0 5661 0 0 0 0 0 0 0 0 0 0 0 0 0 0 0 0 0 0 0 0 0 0 0 0 0 0 0 0 0 
0 0 0 0 0 0 0 0 0 0 0 0 0 0 0 0 0 0 0 0 0 0 0 0 0 0 0 0 0 0 5583 0 0 11157 0 0 11491 0 0 11237 0 0 11386 0 0 11282 0 0 11279 0 0 11180 0 0 11193 0 0 11343 0 0 11299 0 0 11016 0 0 11203 0 0 11372 0 0 11197 0 0 11299 0 0 11209 0 0 11193 0 0 11194 0 0 11305 0 0 11104 0 0 11195 0 0 11300 0 0 11091 0 0 11292 0 0 11092 0 0 11247 0 0 11275 0 0 11425 0 0 11238 0 0 11198 0 0 11263 0 0 11136 0 0 11323 0 0 11274 0 0 11281 0 0 11136 0 0 11182 0 0 11265 0 0 11107 0 0 5584 0 0 0 0 0 0 0 0 0 0 0 0 0 0 0 0 0 0 0 0 0 0 0 0 0 0 0 0 0 
0 0 0 0 0 0 0 0 0 0 0 0 0 0 0 0 0 0 0 0 0 0 0 0 0 0 0 0 0 0 5698 0 0 11266 0 0 11125 0 0 11260 0 0 11173 0 0 11253 0 0 11145 0 0 11096 0 0 11135 0 0 11198 0 0 11325 0 0 11024 0 0 11238 0 0 11255 0 0 11495 0 0 11211 0 0 11142 0 0 11222 0 0 11335 0 0 11122 0 0 11171 0 0 11163 0 0 11279 0 0 11338 0 0 11326 0 0 11022 0 0 11430 0 0 11293 0 0 11245 0 0 11249 0 0 11243 0 0 11046 0 0 11227 0 0 11263 0 0 11278 0 0 11335 0 0 11105 0 0 11256 0 0 11186 0 0 11337 0 0 5529 0 0 0 0 0 0 0 0 0 0 0 0 0 0 0 0 0 0 0 0 0 0 0 0 0 0 0 0 0 
0 0 0 0 0 0 0 0 0 0 0 0 0 0 0 0 0 0 0 0 0 0 0 0 0 0 0 0 0 0 5620 0 0 11170 0 0 11108 0 0 11224 0 0 11141 0 0 11342 0 0 11151 0 0 11322 0 0 11158 0 0 11245 0 0 11052 0 0 11239 0 0 11390 0 0 11265 0 0 11015 0 0 11227 0 0 11289 0 0 11333 0 0 11071 0 0 11383 0 0 11210 0 0 11322 0 0 11160 0 0 11091 0 0 11205 0 0 11215 0 0 11343 0 0 11139 0 0 11157 0 0 11212 0 0 11199 0 0 11165 0 0 11175 0 0 11382 0 0 11201 0 0 11327 0 0 11217 0 0 11149 0 0 11133 0 0 11242 0 0 5754 0 0 0 0 0 0 0 0 0 0 0 0 0 0 0 0 0 0 0 0 0 0 0 0 0 0 0 0 0 
0 0 0 0 0 0 0 0 0 0 0 0 0 0 0 0 0 0 0 0 0 0 0 0 0 0 0 0 0 0 5554 0 0 11088 0 0 11306 0 0 11246 0 0 11179 0 0 11296 0 0 11252 0 0 11145 0 0 11301 0 0 10962 0 0 11332 0 0 11339 0 0 11284 0 0 11352 0 0 11228 0 0 11218 0 0 11093 0 0 11303 0 0 11144 0 0 11281 0 0 11116 0 0 11236 0 0 10998 0 0 11255 0 0 11245 0 0 11349 0 0 11446 0 0 11303 0 0 11252 0 0 11161 0 0 11176 0 0 11006 0 0 11212 0 0 11322 0 0 11188 0 0 11230 0 0 11334 0 0 11243 0 0 11175 0 0 11220 0 0 5705 0 0 0 0 0 0 0 0 0 0 0 0 0 0 0 0 0 0 0 0 0 0 0 0 0 0 0 0 0 
0 0 0 0 0 0 0 0 0 0 0 0 0 0 0 0 0 0 0 0 0 0 0 0 0 0 0 0 0 0 5564 0 0 11295 0 0 11238 0 0 11326 0 0 11242 0 0 11323 0 0 11475 0 0 11299 0 0 11140 0 0 11112 0 0 11233 0 0 11084 0 0 11419 0 0 11113 0 0 11182 0 0 11101 0 0 11320 0 0 11239 0 0 11185 0 0 11214 0 0 11218 0 0 11180 0 0 11313 0 0 11245 0 0 11206 0 0 11087 0 0 11159 0 0 11282 0 0 11244 0 0 11161 0 0 11422 0 0 11402 0 0 11132 0 0 11254 0 0 11422 0 0 11321 0 0 11413 0 0 11326 0 0 10967 0 0 11144 0 0 5672 0 0 0 0 0 0 0 0 0 0 0 0 0 0 0 0 0 0 0 0 0 0 0 0 0 0 0 0 0 
0 0 0 0 0 0 0 0 0 0 0 0 0 0 0 0 0 0 0 0 0 0 0 0 0 0 0 0 0 0 5671 0 0 11111 0 0 10987 0 0 11269 0 0 11137 0 0 11192 0 0 11307 0 0 11083 0 0 11299 0 0 11328 0 0 10999 0 0 11144 0 0 11293 0 0 11147 0 0 11212 0 0 11223 0 0 11067 0 0 11260 0 0 11324 0 0 11226 0 0 11066 0 0 11150 0 0 11194 0 0 11100 0 0 11020 0 0 11229 0 0 11320 0 0 11394 0 0 11453 0 0 10967 0 0 11135 0 0 11253 0 0 11272 0 0 11206 0 0 11361 0 0 11234 0 0 11302 0 0 11211 0 0 11203 0 0 11270 0 0 5712 0 0 0 0 0 0 0 0 0 0 0 0 0 0 0 0 0 0 0 0 0 0 0 0 0 0 0 0 0 
0 0 0 0 0 0 0 0 0 0 0 0 0 0 0 0 0 0 0 0 0 0 0 0 0 0 0 0 0 0 5571 0 0 11275 0 0 11226 0 0 11168 0 0 11092 0 0 11357 0 0 11218 0 0 11213 0 0 11259 0 0 11328 0 0 11153 0 0 11193 0 0 11353 0 0 11273 0 0 11230 0 0 11116 0 0 11054 0 0 11165 0 0 10945 0 0 11139 0 0 11194 0 0 11204 0 0 11197 0 0 11282 0 0 11243 0 0 11361 0 0 11210 0 0 11143 0 0 11223 0 0 10962 0 0 11093 0 0 11351 0 0 11045 0 0 11324 0 0 11124 0 0 11181 0 0 11182 0 0 10908 0 0 11217 0 0 11085 0 0 5531 0 0 0 0 0 0 0 0 0 0 0 0 0 0 0 0 0 0 0 0 0 0 0 0 0 0 0 0 0 
0 0 0 0 0 0 0 0 0 0 0 0 0 0 0 0 0 0 0 0 0 0 0 0 0 0 0 0 0 0 5606 0 0 11172 0 0 11129 0 0 11019 0 0 10987 0 0 11371 0 0 11225 0 0 11210 0 0 11192 0 0 11198 0 0 11181 0 0 11079 0 0 11149 0 0 11097 0 0 11141 0 0 11073 0 0 11392 0 0 11191 0 0 11224 0 0 11185 0 0 11212 0 0 11260 0 0 11176 0 0 11278 0 0 11081 0 0 11091 0 0 11354 0 0 11214 0 0 11228 0 0 11261 0 0 11299 0 0 11053 0 0 11232 0 0 11119 0 0 11100 0 0 11379 0 0 11220 0 0 11377 0 0 11279 0 0 11318 0 0 5617 0 0 0 0 0 0 0 0 0 0 0 0 0 0 0 0 0 0 0 0 0 0 0 0 0 0 0 0 0 
0 0 0 0 0 0 0 0 0 0 0 0 0 0 0 0 0 0 0 0 0 0 0 0 0 0 0 0 0 0 5726 0 0 11094 0 0 11047 0 0 11317 0 0 11180 0 0 11247 0 0 11279 0 0 11058 0 0 11170 0 0 11350 0 0 11266 0 0 11277 0 0 11382 0 0 11388 0 0 11154 0 0 11234 0 0 11512 0 0 11112 0 0 11095 0 0 10970 0 0 11153 0 0 11368 0 0 11043 0 0 11147 0 0 11269 0 0 11359 0 0 11264 0 0 11176 0 0 11206 0 0 11218 0 0 11089 0 0 11315 0 0 11171 0 0 11254 0 0 11328 0 0 11087 0 0 11146 0 0 11292 0 0 11167 0 0 11363 0 0 5776 0 0 0 0 0 0 0 0 0 0 0 0 0 0 0 0 0 0 0 0 0 0 0 0 0 0 0 0 0 
0 0 0 0 0 0 0 0 0 0 0 0 0 0 0 0 0 0 0 0 0 0 0 0 0 0 0 0 0 0 5643 0 0 11341 0 0 11206 0 0 11157 0 0 11238 0 0 11175 0 0 11182 0 0 11104 0 0 11336 0 0 11353 0 0 11164 0 0 11023 0 0 11284 0 0 11318 0 0 11426 0 0 11421 0 0 11298 0 0 11217 0 0 11410 0 0 11269 0 0 11165 0 0 11231 0 0 11179 0 0 11251 0 0 11303 0 0 11385 0 0 11188 0 0 11252 0 0 11002 0 0 11068 0 0 11511 0 0 11250 0 0 11121 0 0 11112 0 0 11354 0 0 11279 0 0 11120 0 0 11340 0 0 11272 0 0 11340 0 0 5589 0 0 0 0 0 0 0 0 0 0 0 0 0 0 0 0 0 0 0 0 0 0 0 0 0 0 0 0 0 
0 0 0 0 0 0 0 0 0 0 0 0 0 0 0 0 0 0 0 0 0 0 0 0 0 0 0 0 0 0 5675 0 0 11318 0 0 11135 0 0 11240 0 0 11136 0 0 11379 0 0 11164 0 0 11134 0 0 11222 0 0 11254 0 0 11177 0 0 11190 0 0 11105 0 0 11113 0 0 11154 0 0 11118 0 0 11148 0 0 11104 0 0 11220 0 0 11154 0 0 11040 0 0 11181 0 0 11196 0 0 11188 0 0 11148 0 0 11010 0 0 11191 0 0 11170 0 0 11260 0 0 11295 0 0 11262 0 0 11221 0 0 11267 0 0 11277 0 0 11322 0 0 11294 0 0 11259 0 0 11157 0 0 11143 0 0 11315 0 0 5726 0 0 0 0 0 0 0 0 0 0 0 0 0 0 0 0 0 0 0 0 0 0 0 0 0 0 0 0 0 
0 0 0 0 0 0 0 0 0 0 0 0 0 0 0 0 0 0 0 0 0 0 0 0 0 0 0 0 0 0 5651 0 0 11052 0 0 11331 0 0 11293 0 0 11337 0 0 11091 0 0 11122 0 0 11309 0 0 11147 0 0 11048 0 0 11301 0 0 11304 0 0 11219 0 0 11274 0 0 11127 0 0 11374 0 0 11238 0 0 11166 0 0 11291 0 0 11366 0 0 11072 0 0 11246 0 0 11210 0 0 11089 0 0 11148 0 0 11057 0 0 11196 0 0 11288 0 0 11232 0 0 11153 0 0 11331 0 0 11343 0 0 11382 0 0 11371 0 0 11226 0 0 11349 0 0 11337 0 0 11211 0 0 11260 0 0 11245 0 0 5641 0 0 0 0 0 0 0 0 0 0 0 0 0 0 0 0 0 0 0 0 0 0 0 0 0 0 0 0 0 
0 0 0 0 0 0 0 0 0 0 0 0 0 0 0 0 0 0 0 0 0 0 0 0 0 0 0 0 0 0 5760 0 0 11226 0 0 11276 0 0 11331 0 0 11240 0 0 11259 0 0 11166 0 0 11234 0 0 11130 0 0 11103 0 0 11239 0 0 11020 0 0 11276 0 0 11045 0 0 11051 0 0 11173 0 0 11116 0 0 11267 0 0 11148 0 0 11262 0 0 11182 0 0 11110 0 0 11426 0 0 11090 0 0 11097 0 0 11239 0 0 11058 0 0 11165 0 0 11268 0 0 11126 0 0 11218 0 0 11230 0 0 11262 0 0 11260 0 0 11123 0 0 11107 0 0 11187 0 0 11154 0 0 11196 0 0 11183 0 0 5600 0 0 0 0 0 0 0 0 0 0 0 0 0 0 0 0 0 0 0 0 0 0 0 0 0 0 0 0 0 
0 0 0 0 0 0 0 0 0 0 0 0 0 0 0 0 0 0 0 0 0 0 0 0 0 0 0 0 0 0 5470 0 0 11354 0 0 11218 0 0 11193 0 0 11194 0 0 11252 0 0 11304 0 0 11047 0 0 11009 0 0 11157 0 0 11308 0 0 11218 0 0 11219 0 0 11356 0 0 11327 0 0 11168 0 0 11000 0 0 11043 0 0 11275 0 0 11230 0 0 11230 0 0 11222 0 0 11216 0 0 11332 0 0 11205 0 0 11220 0 0 11262 0 0 11490 0 0 11217 0 0 11295 0 0 11238 0 0 11280 0 0 11260 0 0 11259 0 0 11229 0 0 11276 0 0 11381 0 0 11153 0 0 11293 0 0 11167 0 0 5669 0 0 0 0 0 0 0 0 0 0 0 0 0 0 0 0 0 0 0 0 0 0 0 0 0 0 0 0 0 
0 0 0 0 0 0 0 0 0 0 0 0 0 0 0 0 0 0 0 0 0 0 0 0 0 0 0 0 0 0 5635 0 0 11149 0 0 11202 0 0 11422 0 0 11148 0 0 11278 0 0 11288 0 0 11042 0 0 11192 0 0 11236 0 0 11209 0 0 11298 0 0 11343 0 0 11339 0 0 11206 0 0 11135 0 0 11261 0 0 11248 0 0 11312 0 0 11324 0 0 11200 0 0 11144 0 0 11382 0 0 11187 0 0 11203 0 0 11207 0 0 11337 0 0 11050 0 0 11122 0 0 11122 0 0 11312 0 0 10937 0 0 11184 0 0 11164 0 0 11297 0 0 11277 0 0 11153 0 0 11175 0 0 11292 0 0 11302 0 0 5561 0 0 0 0 0 0 0 0 0 0 0 0 0 0 0 0 0 0 0 0 0 0 0 0 0 0 0 0 0 
0 0 0 0 0 0 0 0 0 0 0 0 0 0 0 0 0 0 0 0 0 0 0 0 0 0 0 0 0 0 5644 0 0 11267 0 0 11347 0 0 11195 0 0 11256 0 0 11310 0 0 11191 0 0 11240 0 0 11065 0 0 11215 0 0 11135 0 0 11226 0 0 11053 0 0 11411 0 0 11251 0 0 11306 0 0 11103 0 0 11109 0 0 11179 0 0 11282 0 0 11209 0 0 11066 0 0 11232 0 0 11198 0 0 11044 0 0 11062 0 0 11068 0 0 11143 0 0 11168 0 0 11072 0 0 11300 0 0 11315 0 0 11151 0 0 11199 0 0 11400 0 0 11340 0 0 11136 0 0 11321 0 0 11105 0 0 11143 0 0 5633 0 0 0 0 0 0 0 0 0 0 0 0 0 0 0 0 0 0 0 0 0 0 0 0 0 0 0 0 0 
0 0 0 0 0 0 0 0 0 0 0 0 0 0 0 0 0 0 0 0 0 0 0 0 0 0 0 0 0 0 5737 0 0 11204 0 0 11040 0 0 11082 0 0 10987 0 0 11139 0 0 11359 0 0 11262 0 0 11059 0 0 11188 0 0 10946 0 0 11132 0 0 11100 0 0 11218 0 0 11294 0 0 11221 0 0 11311 0 0 11083 0 0 11254 0 0 11251 0 0 11313 0 0 11224 0 0 11243 0 0 10944 0 0 11321 0 0 11149 0 0 11216 0 0 11149 0 0 11113 0 0 11125 0 0 11274 0 0 11174 0 0 11125 0 0 11187 0 0 11103 0 0 11247 0 0 11063 0 0 11465 0 0 11157 0 0 11127 0 0 5730 0 0 0 0 0 0 0 0 0 0 0 0 0 0 0 0 0 0 0 0 0 0 0 0 0 0 0 0 0 
0 0 0 0 0 0 0 0 0 0 0 0 0 0 0 0 0 0 0 0 0 0 0 0 0 0 0 0 0 0 5681 0 0 11251 0 0 11169 0 0 11355 0 0 11271 0 0 11413 0 0 11327 0 0 11273 0 0 11142 0 0 11271 0 0 11240 0 0 11279 0 0 11130 0 0 11291 0 0 11209 0 0 11069 0 0 11212 0 0 11236 0 0 11237 0 0 11257 0 0 11071 0 0 11166 0 0 11052 0 0 11199 0 0 11214 0 0 11142 0 0 11347 0 0 11263 0 0 11369 0 0 11316 0 0 11244 0 0 11273 0 0 11306 0 0 11146 0 0 11102 0 0 11112 0 0 11136 0 0 11276 0 0 11104 0 0 11197 0 0 5463 0 0 0 0 0 0 0 0 0 0 0 0 0 0 0 0 0 0 0 0 0 0 0 0 0 0 0 0 0 
0 0 0 0 0 0 0 0 0 0 0 0 0 0 0 0 0 0 0 0 0 0 0 0 0 0 0 0 0 0 5629 0 0 11309 0 0 11132 0 0 11258 0 0 11224 0 0 11290 0 0 11379 0 0 11090 0 0 11155 0 0 11179 0 0 11217 0 0 11077 0 0 11232 0 0 11196 0 0 11321 0 0 11166 0 0 11232 0 0 11187 0 0 11303 0 0 11229 0 0 11195 0 0 11301 0 0 11264 0 0 11192 0 0 11142 0 0 11015 0 0 11015 0 0 11214 0 0 11175 0 0 11317 0 0 11326 0 0 11195 0 0 11212 0 0 11266 0 0 11057 0 0 11152 0 0 11221 0 0 11253 0 0 11237 0 0 11248 0 0 5474 0 0 0 0 0 0 0 0 0 0 0 0 0 0 0 0 0 0 0 0 0 0 0 0 0 0 0 0 0 
0 0 0 0 0 0 0 0 0 0 0 0 0 0 0 0 0 0 0 0 0 0 0 0 0 0 0 0 0 0 2902 0 0 5642 0 0 5672 0 0 5631 0 0 5547 0 0 5427 0 0 5594 0 0 5709 0 0 5684 0 0 5530 0 0 5630 0 0 5654 0 0 5634 0 0 5540 0 0 5611 0 0 5579 0 0 5488 0 0 5466 0 0 5533 0 0 5596 0 0 5641 0 0 5572 0 0 5650 0 0 5547 0 0 5610 0 0 5584 0 0 5535 0 0 5712 0 0 5620 0 0 5609 0 0 5569 0 0 5618 0 0 5564 0 0 5548 0 0 5578 0 0 5791 0 0 5714 0 0 5737 0 0 5666 0 0 5568 0 0 2764 0 0 0 0 0 0 0 0 0 0 0 0 0 0 0 0 0 0 0 0 0 0 0 0 0 0 0 0 0 
0 0 0 0 0 0 0 0 0 0 0 0 0 0 0 0 0 0 0 0 0 0 0 0 0 0 0 0 0 0 0 0 0 0 0 0 0 0 0 0 0 0 0 0 0 0 0 0 0 0 0 0 0 0 0 0 0 0 0 0 0 0 0 0 0 0 0 0 0 0 0 0 0 0 0 0 0 0 0 0 0 0 0 0 0 0 0 0 0 0 0 0 0 0 0 0 0 0 0 0 0 0 0 0 0 0 0 0 0 0 0 0 0 0 0 0 0 0 0 0 0 0 0 0 0 0 0 0 0 0 0 0 0 0 0 0 0 0 0 0 0 0 0 0 0 0 0 0 0 0 0 0 0 0 0 0 0 0 0 0 0 0 0 0 0 0 0 0 0 0 0 0 0 0 0 0 0 0 0 0 
0 0 0 0 0 0 0 0 0 0 0 0 0 0 0 0 0 0 0 0 0 0 0 0 0 0 0 0 0 0 0 0 0 0 0 0 0 0 0 0 0 0 0 0 0 0 0 0 0 0 0 0 0 0 0 0 0 0 0 0 0 0 0 0 0 0 0 0 0 0 0 0 0 0 0 0 0 0 0 0 0 0 0 0 0 0 0 0 0 0 0 0 0 0 0 0 0 0 0 0 0 0 0 0 0 0 0 0 0 0 0 0 0 0 0 0 0 0 0 0 0 0 0 0 0 0 0 0 0 0 0 0 0 0 0 0 0 0 0 0 0 0 0 0 0 0 0 0 0 0 0 0 0 0 0 0 0 0 0 0 0 0 0 0 0 0 0 0 0 0 0 0 0 0 0 0 0 0 0 0 
0 0 0 0 0 0 0 0 0 0 0 0 0 0 0 0 0 0 0 0 0 0 0 0 0 0 0 0 0 0 0 0 0 0 0 0 0 0 0 0 0 0 0 0 0 0 0 0 0 0 0 0 0 0 0 0 0 0 0 0 0 0 0 0 0 0 0 0 0 0 0 0 0 0 0 0 0 0 0 0 0 0 0 0 0 0 0 0 0 0 0 0 0 0 0 0 0 0 0 0 0 0 0 0 0 0 0 0 0 0 0 0 0 0 0 0 0 0 0 0 0 0 0 0 0 0 0 0 0 0 0 0 0 0 0 0 0 0 0 0 0 0 0 0 0 0 0 0 0 0 0 0 0 0 0 0 0 0 0 0 0 0 0 0 0 0 0 0 0 0 0 0 0 0 0 0 0 0 0 0 
0 0 0 0 0 0 0 0 0 0 0 0 0 0 0 0 0 0 0 0 0 0 0 0 0 0 0 0 0 0 0 0 0 0 0 0 0 0 0 0 0 0 0 0 0 0 0 0 0 0 0 0 0 0 0 0 0 0 0 0 0 0 0 0 0 0 0 0 0 0 0 0 0 0 0 0 0 0 0 0 0 0 0 0 0 0 0 0 0 0 0 0 0 0 0 0 0 0 0 0 0 0 0 0 0 0 0 0 0 0 0 0 0 0 0 0 0 0 0 0 0 0 0 0 0 0 0 0 0 0 0 0 0 0 0 0 0 0 0 0 0 0 0 0 0 0 0 0 0 0 0 0 0 0 0 0 0 0 0 0 0 0 0 0 0 0 0 0 0 0 0 0 0 0 0 0 0 0 0 0 
0 0 0 0 0 0 0 0 0 0 0 0 0 0 0 0 0 0 0 0 0 0 0 0 0 0 0 0 0 0 0 0 0 0 0 0 0 0 0 0 0 0 0 0 0 0 0 0 0 0 0 0 0 0 0 0 0 0 0 0 0 0 0 0 0 0 0 0 0 0 0 0 0 0 0 0 0 0 0 0 0 0 0 0 0 0 0 0 0 0 0 0 0 0 0 0 0 0 0 0 0 0 0 0 0 0 0 0 0 0 0 0 0 0 0 0 0 0 0 0 0 0 0 0 0 0 0 0 0 0 0 0 0 0 0 0 0 0 0 0 0 0 0 0 0 0 0 0 0 0 0 0 0 0 0 0 0 0 0 0 0 0 0 0 0 0 0 0 0 0 0 0 0 0 0 0 0 0 0 0 
0 0 0 0 0 0 0 0 0 0 0 0 0 0 0 0 0 0 0 0 0 0 0 0 0 0 0 0 0 0 0 0 0 0 0 0 0 0 0 0 0 0 0 0 0 0 0 0 0 0 0 0 0 0 0 0 0 0 0 0 0 0 0 0 0 0 0 0 0 0 0 0 0 0 0 0 0 0 0 0 0 0 0 0 0 0 0 0 0 0 0 0 0 0 0 0 0 0 0 0 0 0 0 0 0 0 0 0 0 0 0 0 0 0 0 0 0 0 0 0 0 0 0 0 0 0 0 0 0 0 0 0 0 0 0 0 0 0 0 0 0 0 0 0 0 0 0 0 0 0 0 0 0 0 0 0 0 0 0 0 0 0 0 0 0 0 0 0 0 0 0 0 0 0 0 0 0 0 0 0 
0 0 0 0 0 0 0 0 0 0 0 0 0 0 0 0 0 0 0 0 0 0 0 0 0 0 0 0 0 0 0 0 0 0 0 0 0 0 0 0 0 0 0 0 0 0 0 0 0 0 0 0 0 0 0 0 0 0 0 0 0 0 0 0 0 0 0 0 0 0 0 0 0 0 0 0 0 0 0 0 0 0 0 0 0 0 0 0 0 0 0 0 0 0 0 0 0 0 0 0 0 0 0 0 0 0 0 0 0 0 0 0 0 0 0 0 0 0 0 0 0 0 0 0 0 0 0 0 0 0 0 0 0 0 0 0 0 0 0 0 0 0 0 0 0 0 0 0 0 0 0 0 0 0 0 0 0 0 0 0 0 0 0 0 0 0 0 0 0 0 0 0 0 0 0 0 0 0 0 0 
0 0 0 0 0 0 0 0 0 0 0 0 0 0 0 0 0 0 0 0 0 0 0 0 0 0 0 0 0 0 0 0 0 0 0 0 0 0 0 0 0 0 0 0 0 0 0 0 0 0 0 0 0 0 0 0 0 0 0 0 0 0 0 0 0 0 0 0 0 0 0 0 0 0 0 0 0 0 0 0 0 0 0 0 0 0 0 0 0 0 0 0 0 0 0 0 0 0 0 0 0 0 0 0 0 0 0 0 0 0 0 0 0 0 0 0 0 0 0 0 0 0 0 0 0 0 0 0 0 0 0 0 0 0 0 0 0 0 0 0 0 0 0 0 0 0 0 0 0 0 0 0 0 0 0 0 0 0 0 0 0 0 0 0 0 0 0 0 0 0 0 0 0 0 0 0 0 0 0 0 
0 0 0 0 0 0 0 0 0 0 0 0 0 0 0 0 0 0 0 0 0 0 0 0 0 0 0 0 0 0 0 0 0 0 0 0 0 0 0 0 0 0 0 0 0 0 0 0 0 0 0 0 0 0 0 0 0 0 0 0 0 0 0 0 0 0 0 0 0 0 0 0 0 0 0 0 0 0 0 0 0 0 0 0 0 0 0 0 0 0 0 0 0 0 0 0 0 0 0 0 0 0 0 0 0 0 0 0 0 0 0 0 0 0 0 0 0 0 0 0 0 0 0 0 0 0 0 0 0 0 0 0 0 0 0 0 0 0 0 0 0 0 0 0 0 0 0 0 0 0 0 0 0 0 0 0 0 0 0 0 0 0 0 0 0 0 0 0 0 0 0 0 0 0 0 0 0 0 0 0 
