P3
# This is a dose file slice at depth 54 of 100
60 60
# now we give the maximum value of the RGB coordinates.
34204
0 0 0 0 0 0 0 0 0 0 0 0 0 0 0 0 0 0 0 0 0 0 0 0 0 0 0 0 0 0 0 0 0 0 0 0 0 0 0 0 0 0 0 0 0 0 0 0 0 0 0 0 0 0 0 0 0 0 0 0 0 0 0 0 0 0 0 0 0 0 0 0 0 0 0 0 0 0 0 0 0 0 0 0 0 0 0 0 0 0 0 0 0 0 0 0 0 0 0 0 0 0 0 0 0 0 0 0 0 0 0 0 0 0 0 0 0 0 0 0 0 0 0 0 0 0 0 0 0 0 0 0 0 0 0 0 0 0 0 0 0 0 0 0 0 0 0 0 0 0 0 0 0 0 0 0 0 0 0 0 0 0 0 0 0 0 0 0 0 0 0 0 0 0 0 0 0 0 0 0 
0 0 0 0 0 0 0 0 0 0 0 0 0 0 0 0 0 0 0 0 0 0 0 0 0 0 0 0 0 0 0 0 0 0 0 0 0 0 0 0 0 0 0 0 0 0 0 0 0 0 0 0 0 0 0 0 0 0 0 0 0 0 0 0 0 0 0 0 0 0 0 0 0 0 0 0 0 0 0 0 0 0 0 0 0 0 0 0 0 0 0 0 0 0 0 0 0 0 0 0 0 0 0 0 0 0 0 0 0 0 0 0 0 0 0 0 0 0 0 0 0 0 0 0 0 0 0 0 0 0 0 0 0 0 0 0 0 0 0 0 0 0 0 0 0 0 0 0 0 0 0 0 0 0 0 0 0 0 0 0 0 0 0 0 0 0 0 0 0 0 0 0 0 0 0 0 0 0 0 0 
0 0 0 0 0 0 0 0 0 0 0 0 0 0 0 0 0 0 0 0 0 0 0 0 0 0 0 0 0 0 0 0 0 0 0 0 0 0 0 0 0 0 0 0 0 0 0 0 0 0 0 0 0 0 0 0 0 0 0 0 0 0 0 0 0 0 0 0 0 0 0 0 0 0 0 0 0 0 0 0 0 0 0 0 0 0 0 0 0 0 0 0 0 0 0 0 0 0 0 0 0 0 0 0 0 0 0 0 0 0 0 0 0 0 0 0 0 0 0 0 0 0 0 0 0 0 0 0 0 0 0 0 0 0 0 0 0 0 0 0 0 0 0 0 0 0 0 0 0 0 0 0 0 0 0 0 0 0 0 0 0 0 0 0 0 0 0 0 0 0 0 0 0 0 0 0 0 0 0 0 
0 0 0 0 0 0 0 0 0 0 0 0 0 0 0 0 0 0 0 0 0 0 0 0 0 0 0 0 0 0 0 0 0 0 0 0 0 0 0 0 0 0 0 0 0 0 0 0 0 0 0 0 0 0 0 0 0 0 0 0 0 0 0 0 0 0 0 0 0 0 0 0 0 0 0 0 0 0 0 0 0 0 0 0 0 0 0 0 0 0 0 0 0 0 0 0 0 0 0 0 0 0 0 0 0 0 0 0 0 0 0 0 0 0 0 0 0 0 0 0 0 0 0 0 0 0 0 0 0 0 0 0 0 0 0 0 0 0 0 0 0 0 0 0 0 0 0 0 0 0 0 0 0 0 0 0 0 0 0 0 0 0 0 0 0 0 0 0 0 0 0 0 0 0 0 0 0 0 0 0 
0 0 0 0 0 0 0 0 0 0 0 0 0 0 0 0 0 0 0 0 0 0 0 0 0 0 0 0 0 0 0 0 0 0 0 0 0 0 0 0 0 0 0 0 0 0 0 0 0 0 0 0 0 0 0 0 0 0 0 0 0 0 0 0 0 0 0 0 0 0 0 0 0 0 0 0 0 0 0 0 0 0 0 0 0 0 0 0 0 0 0 0 0 0 0 0 0 0 0 0 0 0 0 0 0 0 0 0 0 0 0 0 0 0 0 0 0 0 0 0 0 0 0 0 0 0 0 0 0 0 0 0 0 0 0 0 0 0 0 0 0 0 0 0 0 0 0 0 0 0 0 0 0 0 0 0 0 0 0 0 0 0 0 0 0 0 0 0 0 0 0 0 0 0 0 0 0 0 0 0 
0 0 0 0 0 0 0 0 0 0 0 0 0 0 0 0 0 0 0 0 0 0 0 0 0 0 0 0 0 0 0 0 0 0 0 0 0 0 0 0 0 0 0 0 0 0 0 0 0 0 0 0 0 0 0 0 0 0 0 0 0 0 0 0 0 0 0 0 0 0 0 0 0 0 0 0 0 0 0 0 0 0 0 0 0 0 0 0 0 0 0 0 0 0 0 0 0 0 0 0 0 0 0 0 0 0 0 0 0 0 0 0 0 0 0 0 0 0 0 0 0 0 0 0 0 0 0 0 0 0 0 0 0 0 0 0 0 0 0 0 0 0 0 0 0 0 0 0 0 0 0 0 0 0 0 0 0 0 0 0 0 0 0 0 0 0 0 0 0 0 0 0 0 0 0 0 0 0 0 0 
0 0 0 0 0 0 0 0 0 0 0 0 0 0 0 0 0 0 0 0 0 0 0 0 0 0 0 0 0 0 0 0 0 0 0 0 0 0 0 0 0 0 0 0 0 0 0 0 0 0 0 0 0 0 0 0 0 0 0 0 0 0 0 0 0 0 0 0 0 0 0 0 0 0 0 0 0 0 0 0 0 0 0 0 0 0 0 0 0 0 0 0 0 0 0 0 0 0 0 0 0 0 0 0 0 0 0 0 0 0 0 0 0 0 0 0 0 0 0 0 0 0 0 0 0 0 0 0 0 0 0 0 0 0 0 0 0 0 0 0 0 0 0 0 0 0 0 0 0 0 0 0 0 0 0 0 0 0 0 0 0 0 0 0 0 0 0 0 0 0 0 0 0 0 0 0 0 0 0 0 
0 0 0 0 0 0 0 0 0 0 0 0 0 0 0 0 0 0 0 0 0 0 0 0 0 0 0 0 0 0 0 0 0 0 0 0 0 0 0 0 0 0 0 0 0 0 0 0 0 0 0 0 0 0 0 0 0 0 0 0 0 0 0 0 0 0 0 0 0 0 0 0 0 0 0 0 0 0 0 0 0 0 0 0 0 0 0 0 0 0 0 0 0 0 0 0 0 0 0 0 0 0 0 0 0 0 0 0 0 0 0 0 0 0 0 0 0 0 0 0 0 0 0 0 0 0 0 0 0 0 0 0 0 0 0 0 0 0 0 0 0 0 0 0 0 0 0 0 0 0 0 0 0 0 0 0 0 0 0 0 0 0 0 0 0 0 0 0 0 0 0 0 0 0 0 0 0 0 0 0 
0 0 0 0 0 0 0 0 0 0 0 0 0 0 0 0 0 0 0 0 0 0 0 0 0 0 0 0 0 0 0 0 0 0 0 0 0 0 0 0 0 0 0 0 0 0 0 0 0 0 0 0 0 0 0 0 0 0 0 0 0 0 0 0 0 0 0 0 0 0 0 0 0 0 0 0 0 0 0 0 0 0 0 0 0 0 0 0 0 0 0 0 0 0 0 0 0 0 0 0 0 0 0 0 0 0 0 0 0 0 0 0 0 0 0 0 0 0 0 0 0 0 0 0 0 0 0 0 0 0 0 0 0 0 0 0 0 0 0 0 0 0 0 0 0 0 0 0 0 0 0 0 0 0 0 0 0 0 0 0 0 0 0 0 0 0 0 0 0 0 0 0 0 0 0 0 0 0 0 0 
0 0 0 0 0 0 0 0 0 0 0 0 0 0 0 0 0 0 0 0 0 0 0 0 0 0 0 0 0 0 0 0 0 0 0 0 0 0 0 0 0 0 0 0 0 0 0 0 0 0 0 0 0 0 0 0 0 0 0 0 0 0 0 0 0 0 0 0 0 0 0 0 0 0 0 0 0 0 0 0 0 0 0 0 0 0 0 0 0 0 0 0 0 0 0 0 0 0 0 0 0 0 0 0 0 0 0 0 0 0 0 0 0 0 0 0 0 0 0 0 0 0 0 0 0 0 0 0 0 0 0 0 0 0 0 0 0 0 0 0 0 0 0 0 0 0 0 0 0 0 0 0 0 0 0 0 0 0 0 0 0 0 0 0 0 0 0 0 0 0 0 0 0 0 0 0 0 0 0 0 
0 0 0 0 0 0 0 0 0 0 0 0 0 0 0 0 0 0 0 0 0 0 0 0 0 0 0 0 0 0 1740 0 0 3455 0 0 3549 0 0 3499 0 0 3573 0 0 3474 0 0 3469 0 0 3496 0 0 3589 0 0 3482 0 0 3531 0 0 3605 0 0 3572 0 0 3556 0 0 3439 0 0 3526 0 0 3569 0 0 3451 0 0 3529 0 0 3581 0 0 3480 0 0 3431 0 0 3392 0 0 3501 0 0 3369 0 0 3505 0 0 3433 0 0 3511 0 0 3456 0 0 3542 0 0 3358 0 0 3434 0 0 3497 0 0 3480 0 0 3430 0 0 3488 0 0 3597 0 0 3529 0 0 3571 0 0 3560 0 0 1803 0 0 0 0 0 0 0 0 0 0 0 0 0 0 0 0 0 0 0 0 0 0 0 0 0 0 0 0 0 
0 0 0 0 0 0 0 0 0 0 0 0 0 0 0 0 0 0 0 0 0 0 0 0 0 0 0 0 0 0 3528 0 0 7002 0 0 6991 0 0 6897 0 0 6805 0 0 7088 0 0 6807 0 0 7011 0 0 6942 0 0 7068 0 0 6873 0 0 7102 0 0 7195 0 0 6985 0 0 6952 0 0 6863 0 0 7090 0 0 6877 0 0 6909 0 0 7037 0 0 6977 0 0 7068 0 0 7058 0 0 6980 0 0 7078 0 0 6837 0 0 7120 0 0 6988 0 0 6886 0 0 6929 0 0 6997 0 0 7032 0 0 6995 0 0 7086 0 0 6957 0 0 7042 0 0 7081 0 0 6972 0 0 7140 0 0 7010 0 0 3523 0 0 0 0 0 0 0 0 0 0 0 0 0 0 0 0 0 0 0 0 0 0 0 0 0 0 0 0 0 
0 0 0 0 0 0 0 0 0 0 0 0 0 0 0 0 0 0 0 0 0 0 0 0 0 0 0 0 0 0 3516 0 0 6950 0 0 7063 0 0 6914 0 0 6986 0 0 6979 0 0 7015 0 0 6927 0 0 7093 0 0 6917 0 0 7031 0 0 6921 0 0 7049 0 0 7137 0 0 6970 0 0 7019 0 0 6798 0 0 7077 0 0 7009 0 0 6988 0 0 7036 0 0 6943 0 0 7075 0 0 7070 0 0 6905 0 0 7089 0 0 7040 0 0 6912 0 0 6909 0 0 6892 0 0 6998 0 0 7089 0 0 7015 0 0 6996 0 0 7155 0 0 7204 0 0 7113 0 0 6916 0 0 7010 0 0 6995 0 0 3519 0 0 0 0 0 0 0 0 0 0 0 0 0 0 0 0 0 0 0 0 0 0 0 0 0 0 0 0 0 
0 0 0 0 0 0 0 0 0 0 0 0 0 0 0 0 0 0 0 0 0 0 0 0 0 0 0 0 0 0 3472 0 0 6988 0 0 6919 0 0 7024 0 0 6994 0 0 6996 0 0 7085 0 0 6974 0 0 6977 0 0 6989 0 0 6942 0 0 6931 0 0 7015 0 0 7038 0 0 7059 0 0 6982 0 0 6943 0 0 6968 0 0 6869 0 0 7001 0 0 7002 0 0 7205 0 0 6971 0 0 6931 0 0 7037 0 0 7120 0 0 6923 0 0 7018 0 0 6961 0 0 6952 0 0 7023 0 0 6909 0 0 7047 0 0 6938 0 0 6973 0 0 6952 0 0 6994 0 0 6924 0 0 6975 0 0 7087 0 0 3533 0 0 0 0 0 0 0 0 0 0 0 0 0 0 0 0 0 0 0 0 0 0 0 0 0 0 0 0 0 
0 0 0 0 0 0 0 0 0 0 0 0 0 0 0 0 0 0 0 0 0 0 0 0 0 0 0 0 0 0 3564 0 0 7142 0 0 6957 0 0 6857 0 0 7039 0 0 6995 0 0 6950 0 0 6940 0 0 6959 0 0 6835 0 0 7042 0 0 7010 0 0 7015 0 0 7041 0 0 7007 0 0 7078 0 0 6993 0 0 6957 0 0 6955 0 0 7002 0 0 7108 0 0 6970 0 0 6997 0 0 6795 0 0 7119 0 0 7014 0 0 6965 0 0 7056 0 0 7078 0 0 6775 0 0 6961 0 0 7132 0 0 7139 0 0 7044 0 0 6967 0 0 6961 0 0 7050 0 0 6985 0 0 6985 0 0 6890 0 0 3483 0 0 0 0 0 0 0 0 0 0 0 0 0 0 0 0 0 0 0 0 0 0 0 0 0 0 0 0 0 
0 0 0 0 0 0 0 0 0 0 0 0 0 0 0 0 0 0 0 0 0 0 0 0 0 0 0 0 0 0 3431 0 0 6988 0 0 6979 0 0 7103 0 0 6954 0 0 6881 0 0 7041 0 0 6998 0 0 6946 0 0 6990 0 0 7080 0 0 6996 0 0 7012 0 0 7008 0 0 6946 0 0 6904 0 0 6976 0 0 6948 0 0 6987 0 0 7041 0 0 7059 0 0 7062 0 0 7007 0 0 6880 0 0 7066 0 0 6969 0 0 7215 0 0 6891 0 0 6937 0 0 7129 0 0 7111 0 0 7037 0 0 6995 0 0 7080 0 0 6983 0 0 6905 0 0 7055 0 0 6983 0 0 7063 0 0 6884 0 0 3563 0 0 0 0 0 0 0 0 0 0 0 0 0 0 0 0 0 0 0 0 0 0 0 0 0 0 0 0 0 
0 0 0 0 0 0 0 0 0 0 0 0 0 0 0 0 0 0 0 0 0 0 0 0 0 0 0 0 0 0 3578 0 0 6941 0 0 6948 0 0 7028 0 0 6913 0 0 6825 0 0 7102 0 0 6943 0 0 7047 0 0 7178 0 0 6838 0 0 7087 0 0 7048 0 0 6977 0 0 7144 0 0 7150 0 0 6940 0 0 7171 0 0 6923 0 0 6934 0 0 7080 0 0 7075 0 0 7035 0 0 6889 0 0 7065 0 0 6933 0 0 7002 0 0 7049 0 0 7021 0 0 7158 0 0 7023 0 0 6913 0 0 6938 0 0 6977 0 0 6995 0 0 6933 0 0 6962 0 0 6988 0 0 7025 0 0 6995 0 0 3495 0 0 0 0 0 0 0 0 0 0 0 0 0 0 0 0 0 0 0 0 0 0 0 0 0 0 0 0 0 
0 0 0 0 0 0 0 0 0 0 0 0 0 0 0 0 0 0 0 0 0 0 0 0 0 0 0 0 0 0 3448 0 0 7073 0 0 6804 0 0 6989 0 0 6976 0 0 6871 0 0 6906 0 0 6996 0 0 6905 0 0 7116 0 0 7105 0 0 7049 0 0 6960 0 0 7043 0 0 7073 0 0 6993 0 0 6920 0 0 6876 0 0 7040 0 0 6945 0 0 7129 0 0 7065 0 0 7021 0 0 7060 0 0 6905 0 0 7120 0 0 7149 0 0 6958 0 0 6963 0 0 7039 0 0 6945 0 0 7060 0 0 6887 0 0 6876 0 0 6914 0 0 7032 0 0 7145 0 0 6933 0 0 7004 0 0 6900 0 0 3557 0 0 0 0 0 0 0 0 0 0 0 0 0 0 0 0 0 0 0 0 0 0 0 0 0 0 0 0 0 
0 0 0 0 0 0 0 0 0 0 0 0 0 0 0 0 0 0 0 0 0 0 0 0 0 0 0 0 0 0 3430 0 0 6949 0 0 7096 0 0 7004 0 0 7041 0 0 6778 0 0 6911 0 0 6931 0 0 7058 0 0 6990 0 0 6968 0 0 6979 0 0 6986 0 0 6928 0 0 6942 0 0 6955 0 0 7003 0 0 6937 0 0 6972 0 0 6766 0 0 7011 0 0 7195 0 0 7068 0 0 7174 0 0 6987 0 0 7133 0 0 6923 0 0 7030 0 0 6865 0 0 7047 0 0 7032 0 0 7052 0 0 7091 0 0 6837 0 0 7008 0 0 7007 0 0 6960 0 0 6967 0 0 7094 0 0 7033 0 0 3513 0 0 0 0 0 0 0 0 0 0 0 0 0 0 0 0 0 0 0 0 0 0 0 0 0 0 0 0 0 
0 0 0 0 0 0 0 0 0 0 0 0 0 0 0 0 0 0 0 0 0 0 0 0 0 0 0 0 0 0 3436 0 0 6901 0 0 6996 0 0 6999 0 0 6843 0 0 7055 0 0 6956 0 0 7018 0 0 7126 0 0 7008 0 0 6926 0 0 7114 0 0 6967 0 0 7038 0 0 6985 0 0 6837 0 0 7058 0 0 7074 0 0 7140 0 0 7075 0 0 6946 0 0 6939 0 0 7055 0 0 6794 0 0 7022 0 0 7112 0 0 7089 0 0 7181 0 0 6959 0 0 6971 0 0 6945 0 0 6951 0 0 6840 0 0 7132 0 0 7076 0 0 7186 0 0 7002 0 0 7046 0 0 6979 0 0 6884 0 0 3416 0 0 0 0 0 0 0 0 0 0 0 0 0 0 0 0 0 0 0 0 0 0 0 0 0 0 0 0 0 
0 0 0 0 0 0 0 0 0 0 0 0 0 0 0 0 0 0 0 0 0 0 0 0 0 0 0 0 0 0 3486 0 0 7069 0 0 7070 0 0 7087 0 0 7073 0 0 7045 0 0 7029 0 0 6922 0 0 7041 0 0 6931 0 0 7022 0 0 6904 0 0 6881 0 0 7057 0 0 6938 0 0 7109 0 0 6927 0 0 6980 0 0 7192 0 0 6824 0 0 7022 0 0 6966 0 0 7064 0 0 6914 0 0 6975 0 0 6922 0 0 6894 0 0 6971 0 0 6999 0 0 7055 0 0 6994 0 0 7169 0 0 6876 0 0 6998 0 0 7002 0 0 6935 0 0 6908 0 0 6833 0 0 6991 0 0 6916 0 0 3419 0 0 0 0 0 0 0 0 0 0 0 0 0 0 0 0 0 0 0 0 0 0 0 0 0 0 0 0 0 
0 0 0 0 0 0 0 0 0 0 0 0 0 0 0 0 0 0 0 0 0 0 0 0 0 0 0 0 0 0 3412 0 0 7000 0 0 7085 0 0 7169 0 0 7048 0 0 6985 0 0 6956 0 0 7133 0 0 6920 0 0 7130 0 0 7104 0 0 6991 0 0 6972 0 0 6870 0 0 7096 0 0 6914 0 0 6911 0 0 7066 0 0 7061 0 0 6947 0 0 6959 0 0 7000 0 0 6974 0 0 6950 0 0 6928 0 0 7063 0 0 6997 0 0 7008 0 0 7079 0 0 6993 0 0 6948 0 0 7228 0 0 6770 0 0 7027 0 0 7095 0 0 6981 0 0 6861 0 0 6928 0 0 6908 0 0 6996 0 0 3480 0 0 0 0 0 0 0 0 0 0 0 0 0 0 0 0 0 0 0 0 0 0 0 0 0 0 0 0 0 
0 0 0 0 0 0 0 0 0 0 0 0 0 0 0 0 0 0 0 0 0 0 0 0 0 0 0 0 0 0 3589 0 0 6918 0 0 6820 0 0 6876 0 0 7052 0 0 6932 0 0 7007 0 0 7006 0 0 7013 0 0 6987 0 0 7001 0 0 7110 0 0 6983 0 0 6885 0 0 7034 0 0 7049 0 0 7062 0 0 7007 0 0 6943 0 0 7043 0 0 7033 0 0 6920 0 0 7000 0 0 6812 0 0 6872 0 0 7030 0 0 7026 0 0 7028 0 0 7094 0 0 6980 0 0 7059 0 0 7066 0 0 6995 0 0 6946 0 0 7215 0 0 6972 0 0 7051 0 0 7075 0 0 6914 0 0 6873 0 0 3435 0 0 0 0 0 0 0 0 0 0 0 0 0 0 0 0 0 0 0 0 0 0 0 0 0 0 0 0 0 
0 0 0 0 0 0 0 0 0 0 0 0 0 0 0 0 0 0 0 0 0 0 0 0 0 0 0 0 0 0 3600 0 0 6908 0 0 6906 0 0 7005 0 0 6832 0 0 7070 0 0 7021 0 0 6994 0 0 6985 0 0 6876 0 0 6950 0 0 6894 0 0 6941 0 0 7060 0 0 7046 0 0 6934 0 0 6911 0 0 6948 0 0 7042 0 0 7010 0 0 7049 0 0 7179 0 0 7013 0 0 7034 0 0 6893 0 0 7034 0 0 6959 0 0 6943 0 0 7094 0 0 6989 0 0 6957 0 0 6975 0 0 7027 0 0 6866 0 0 6957 0 0 7056 0 0 6913 0 0 7317 0 0 7026 0 0 7039 0 0 3561 0 0 0 0 0 0 0 0 0 0 0 0 0 0 0 0 0 0 0 0 0 0 0 0 0 0 0 0 0 
0 0 0 0 0 0 0 0 0 0 0 0 0 0 0 0 0 0 0 0 0 0 0 0 0 0 0 0 0 0 3495 0 0 6881 0 0 7027 0 0 6964 0 0 7051 0 0 7074 0 0 6799 0 0 7026 0 0 7165 0 0 7181 0 0 6798 0 0 7000 0 0 7033 0 0 6857 0 0 7012 0 0 6989 0 0 6904 0 0 6926 0 0 6983 0 0 7029 0 0 7034 0 0 7063 0 0 7005 0 0 6944 0 0 7072 0 0 6952 0 0 6862 0 0 6882 0 0 7072 0 0 7024 0 0 6976 0 0 6873 0 0 7086 0 0 6957 0 0 6953 0 0 7121 0 0 6994 0 0 7055 0 0 6946 0 0 7077 0 0 3446 0 0 0 0 0 0 0 0 0 0 0 0 0 0 0 0 0 0 0 0 0 0 0 0 0 0 0 0 0 
0 0 0 0 0 0 0 0 0 0 0 0 0 0 0 0 0 0 0 0 0 0 0 0 0 0 0 0 0 0 3421 0 0 7047 0 0 6870 0 0 6997 0 0 7211 0 0 7024 0 0 6979 0 0 7095 0 0 6982 0 0 7059 0 0 6974 0 0 7104 0 0 6958 0 0 6967 0 0 6902 0 0 6790 0 0 7126 0 0 6972 0 0 6971 0 0 7030 0 0 7000 0 0 7120 0 0 6993 0 0 6814 0 0 7000 0 0 6987 0 0 6958 0 0 7059 0 0 6966 0 0 7000 0 0 7090 0 0 6886 0 0 7008 0 0 6929 0 0 7054 0 0 6981 0 0 7054 0 0 7088 0 0 6942 0 0 7084 0 0 3442 0 0 0 0 0 0 0 0 0 0 0 0 0 0 0 0 0 0 0 0 0 0 0 0 0 0 0 0 0 
0 0 0 0 0 0 0 0 0 0 0 0 0 0 0 0 0 0 0 0 0 0 0 0 0 0 0 0 0 0 3581 0 0 7092 0 0 7100 0 0 6981 0 0 7019 0 0 7072 0 0 6840 0 0 6918 0 0 6887 0 0 6979 0 0 7073 0 0 7047 0 0 7009 0 0 6956 0 0 6971 0 0 6978 0 0 6968 0 0 6979 0 0 7130 0 0 7109 0 0 6934 0 0 6957 0 0 7026 0 0 7075 0 0 6928 0 0 6976 0 0 6938 0 0 7050 0 0 6936 0 0 6954 0 0 6999 0 0 7025 0 0 6988 0 0 6969 0 0 7213 0 0 7075 0 0 7052 0 0 6932 0 0 7079 0 0 6932 0 0 3467 0 0 0 0 0 0 0 0 0 0 0 0 0 0 0 0 0 0 0 0 0 0 0 0 0 0 0 0 0 
0 0 0 0 0 0 0 0 0 0 0 0 0 0 0 0 0 0 0 0 0 0 0 0 0 0 0 0 0 0 3423 0 0 7251 0 0 7048 0 0 7099 0 0 6983 0 0 7068 0 0 6923 0 0 6886 0 0 6861 0 0 6905 0 0 7112 0 0 7073 0 0 7054 0 0 7074 0 0 6920 0 0 7100 0 0 6980 0 0 7043 0 0 6982 0 0 6965 0 0 7043 0 0 7080 0 0 7065 0 0 7010 0 0 7072 0 0 7027 0 0 6963 0 0 7056 0 0 6872 0 0 6987 0 0 6963 0 0 6971 0 0 7089 0 0 7075 0 0 7095 0 0 7084 0 0 6947 0 0 7069 0 0 6868 0 0 6979 0 0 3520 0 0 0 0 0 0 0 0 0 0 0 0 0 0 0 0 0 0 0 0 0 0 0 0 0 0 0 0 0 
0 0 0 0 0 0 0 0 0 0 0 0 0 0 0 0 0 0 0 0 0 0 0 0 0 0 0 0 0 0 3574 0 0 7156 0 0 7006 0 0 7079 0 0 6877 0 0 6963 0 0 7095 0 0 7010 0 0 6998 0 0 6977 0 0 6959 0 0 6930 0 0 7042 0 0 6996 0 0 7061 0 0 7062 0 0 6842 0 0 7046 0 0 7068 0 0 6999 0 0 6873 0 0 6924 0 0 6956 0 0 6950 0 0 7019 0 0 6991 0 0 7046 0 0 6972 0 0 7072 0 0 7030 0 0 7160 0 0 6881 0 0 7036 0 0 7087 0 0 7093 0 0 6981 0 0 7017 0 0 6831 0 0 6983 0 0 6856 0 0 3467 0 0 0 0 0 0 0 0 0 0 0 0 0 0 0 0 0 0 0 0 0 0 0 0 0 0 0 0 0 
0 0 0 0 0 0 0 0 0 0 0 0 0 0 0 0 0 0 0 0 0 0 0 0 0 0 0 0 0 0 3474 0 0 7045 0 0 7021 0 0 6910 0 0 6928 0 0 6964 0 0 6972 0 0 7067 0 0 7130 0 0 6976 0 0 7108 0 0 7095 0 0 7025 0 0 6901 0 0 6957 0 0 7075 0 0 7036 0 0 6836 0 0 7045 0 0 6960 0 0 7006 0 0 7120 0 0 7100 0 0 7073 0 0 6981 0 0 7075 0 0 7005 0 0 7035 0 0 6962 0 0 6956 0 0 7067 0 0 7030 0 0 7153 0 0 6843 0 0 7077 0 0 6962 0 0 6923 0 0 7016 0 0 7113 0 0 6974 0 0 3452 0 0 0 0 0 0 0 0 0 0 0 0 0 0 0 0 0 0 0 0 0 0 0 0 0 0 0 0 0 
0 0 0 0 0 0 0 0 0 0 0 0 0 0 0 0 0 0 0 0 0 0 0 0 0 0 0 0 0 0 3454 0 0 6834 0 0 6978 0 0 6968 0 0 6978 0 0 6827 0 0 7042 0 0 7019 0 0 7022 0 0 7049 0 0 7145 0 0 6952 0 0 6987 0 0 6975 0 0 6941 0 0 6959 0 0 6964 0 0 7106 0 0 6828 0 0 6966 0 0 7138 0 0 7033 0 0 6843 0 0 6939 0 0 6891 0 0 7081 0 0 7096 0 0 6944 0 0 7039 0 0 7024 0 0 6923 0 0 6867 0 0 6963 0 0 6957 0 0 7004 0 0 7094 0 0 6876 0 0 6989 0 0 6962 0 0 7004 0 0 3496 0 0 0 0 0 0 0 0 0 0 0 0 0 0 0 0 0 0 0 0 0 0 0 0 0 0 0 0 0 
0 0 0 0 0 0 0 0 0 0 0 0 0 0 0 0 0 0 0 0 0 0 0 0 0 0 0 0 0 0 3486 0 0 6888 0 0 7011 0 0 7040 0 0 7053 0 0 7085 0 0 6951 0 0 6881 0 0 6948 0 0 7035 0 0 6853 0 0 6980 0 0 7018 0 0 7049 0 0 7102 0 0 7077 0 0 6956 0 0 6967 0 0 6972 0 0 7136 0 0 7037 0 0 6959 0 0 6863 0 0 6955 0 0 6850 0 0 6892 0 0 7008 0 0 6955 0 0 6937 0 0 7064 0 0 7029 0 0 7019 0 0 6999 0 0 6896 0 0 7021 0 0 7026 0 0 7137 0 0 7062 0 0 7110 0 0 7002 0 0 3398 0 0 0 0 0 0 0 0 0 0 0 0 0 0 0 0 0 0 0 0 0 0 0 0 0 0 0 0 0 
0 0 0 0 0 0 0 0 0 0 0 0 0 0 0 0 0 0 0 0 0 0 0 0 0 0 0 0 0 0 3645 0 0 7095 0 0 6980 0 0 7062 0 0 7125 0 0 6970 0 0 7045 0 0 6984 0 0 7237 0 0 6957 0 0 7156 0 0 6937 0 0 7021 0 0 6965 0 0 6955 0 0 6881 0 0 7030 0 0 6952 0 0 6991 0 0 6956 0 0 6923 0 0 7126 0 0 7121 0 0 6958 0 0 7111 0 0 7018 0 0 7067 0 0 7014 0 0 6912 0 0 6828 0 0 6875 0 0 6949 0 0 6916 0 0 6894 0 0 6858 0 0 7072 0 0 7007 0 0 6975 0 0 6788 0 0 7066 0 0 3450 0 0 0 0 0 0 0 0 0 0 0 0 0 0 0 0 0 0 0 0 0 0 0 0 0 0 0 0 0 
0 0 0 0 0 0 0 0 0 0 0 0 0 0 0 0 0 0 0 0 0 0 0 0 0 0 0 0 0 0 3461 0 0 7025 0 0 6958 0 0 7045 0 0 6787 0 0 7091 0 0 7067 0 0 7073 0 0 7005 0 0 7053 0 0 6901 0 0 6922 0 0 6915 0 0 7028 0 0 6983 0 0 7146 0 0 6940 0 0 7045 0 0 6902 0 0 6941 0 0 6925 0 0 7116 0 0 6948 0 0 7062 0 0 7004 0 0 7129 0 0 6929 0 0 6771 0 0 7083 0 0 6902 0 0 6949 0 0 6999 0 0 6876 0 0 6935 0 0 6932 0 0 7008 0 0 6897 0 0 6930 0 0 6937 0 0 6989 0 0 3482 0 0 0 0 0 0 0 0 0 0 0 0 0 0 0 0 0 0 0 0 0 0 0 0 0 0 0 0 0 
0 0 0 0 0 0 0 0 0 0 0 0 0 0 0 0 0 0 0 0 0 0 0 0 0 0 0 0 0 0 3512 0 0 7040 0 0 6881 0 0 6883 0 0 7094 0 0 7054 0 0 6990 0 0 7114 0 0 6905 0 0 7096 0 0 7061 0 0 7243 0 0 7027 0 0 7052 0 0 7106 0 0 7007 0 0 6966 0 0 6900 0 0 6839 0 0 6997 0 0 6889 0 0 6994 0 0 6888 0 0 6907 0 0 7111 0 0 6787 0 0 6875 0 0 6797 0 0 7069 0 0 6932 0 0 6944 0 0 6906 0 0 7194 0 0 7027 0 0 7038 0 0 6927 0 0 6910 0 0 6967 0 0 6869 0 0 6986 0 0 3448 0 0 0 0 0 0 0 0 0 0 0 0 0 0 0 0 0 0 0 0 0 0 0 0 0 0 0 0 0 
0 0 0 0 0 0 0 0 0 0 0 0 0 0 0 0 0 0 0 0 0 0 0 0 0 0 0 0 0 0 3504 0 0 7006 0 0 6984 0 0 7003 0 0 6995 0 0 6909 0 0 6914 0 0 6891 0 0 7096 0 0 7005 0 0 7077 0 0 7027 0 0 6921 0 0 7010 0 0 7010 0 0 7049 0 0 7109 0 0 7074 0 0 7070 0 0 7013 0 0 6880 0 0 6892 0 0 6911 0 0 7030 0 0 7112 0 0 7048 0 0 7077 0 0 6972 0 0 7088 0 0 7099 0 0 7052 0 0 7028 0 0 6953 0 0 6763 0 0 6988 0 0 6961 0 0 7138 0 0 7052 0 0 6961 0 0 7105 0 0 3482 0 0 0 0 0 0 0 0 0 0 0 0 0 0 0 0 0 0 0 0 0 0 0 0 0 0 0 0 0 
0 0 0 0 0 0 0 0 0 0 0 0 0 0 0 0 0 0 0 0 0 0 0 0 0 0 0 0 0 0 3526 0 0 7091 0 0 7003 0 0 6967 0 0 6895 0 0 7080 0 0 7023 0 0 6859 0 0 7137 0 0 7004 0 0 7088 0 0 6917 0 0 6996 0 0 7078 0 0 6964 0 0 6975 0 0 7112 0 0 6949 0 0 7008 0 0 6878 0 0 7063 0 0 7104 0 0 7105 0 0 7154 0 0 6935 0 0 7064 0 0 6995 0 0 6859 0 0 7030 0 0 7077 0 0 6891 0 0 6951 0 0 6956 0 0 7030 0 0 7042 0 0 7123 0 0 6920 0 0 7000 0 0 7038 0 0 7122 0 0 3450 0 0 0 0 0 0 0 0 0 0 0 0 0 0 0 0 0 0 0 0 0 0 0 0 0 0 0 0 0 
0 0 0 0 0 0 0 0 0 0 0 0 0 0 0 0 0 0 0 0 0 0 0 0 0 0 0 0 0 0 3609 0 0 7076 0 0 6982 0 0 6918 0 0 6858 0 0 7076 0 0 6837 0 0 6983 0 0 7077 0 0 7012 0 0 6915 0 0 7040 0 0 7060 0 0 7016 0 0 7016 0 0 7034 0 0 7033 0 0 7011 0 0 7107 0 0 6972 0 0 7023 0 0 7023 0 0 7037 0 0 6944 0 0 6973 0 0 7046 0 0 6965 0 0 6990 0 0 6956 0 0 6939 0 0 7133 0 0 7005 0 0 7073 0 0 6892 0 0 7030 0 0 7007 0 0 6955 0 0 7023 0 0 7013 0 0 6930 0 0 3384 0 0 0 0 0 0 0 0 0 0 0 0 0 0 0 0 0 0 0 0 0 0 0 0 0 0 0 0 0 
0 0 0 0 0 0 0 0 0 0 0 0 0 0 0 0 0 0 0 0 0 0 0 0 0 0 0 0 0 0 3490 0 0 6955 0 0 6917 0 0 7008 0 0 6979 0 0 6876 0 0 7025 0 0 6961 0 0 6905 0 0 6928 0 0 6912 0 0 7074 0 0 6832 0 0 7003 0 0 7017 0 0 7021 0 0 6965 0 0 7003 0 0 6936 0 0 6835 0 0 6809 0 0 6985 0 0 6895 0 0 6967 0 0 7057 0 0 7144 0 0 6874 0 0 6997 0 0 6995 0 0 7005 0 0 6917 0 0 6905 0 0 7174 0 0 6977 0 0 7013 0 0 6870 0 0 6910 0 0 6948 0 0 7022 0 0 7002 0 0 3515 0 0 0 0 0 0 0 0 0 0 0 0 0 0 0 0 0 0 0 0 0 0 0 0 0 0 0 0 0 
0 0 0 0 0 0 0 0 0 0 0 0 0 0 0 0 0 0 0 0 0 0 0 0 0 0 0 0 0 0 3685 0 0 6886 0 0 6959 0 0 6943 0 0 6981 0 0 7028 0 0 7050 0 0 6751 0 0 6922 0 0 7036 0 0 7031 0 0 6881 0 0 6914 0 0 7014 0 0 6909 0 0 7049 0 0 7041 0 0 7022 0 0 6991 0 0 6868 0 0 7176 0 0 7033 0 0 7017 0 0 6927 0 0 7072 0 0 6943 0 0 6920 0 0 6965 0 0 6993 0 0 6955 0 0 6917 0 0 7025 0 0 6976 0 0 6945 0 0 7006 0 0 6951 0 0 6922 0 0 7062 0 0 6892 0 0 7007 0 0 3518 0 0 0 0 0 0 0 0 0 0 0 0 0 0 0 0 0 0 0 0 0 0 0 0 0 0 0 0 0 
0 0 0 0 0 0 0 0 0 0 0 0 0 0 0 0 0 0 0 0 0 0 0 0 0 0 0 0 0 0 3539 0 0 6876 0 0 7043 0 0 6931 0 0 7147 0 0 7002 0 0 6927 0 0 7072 0 0 6890 0 0 6866 0 0 6970 0 0 6893 0 0 7012 0 0 7010 0 0 7000 0 0 6834 0 0 6987 0 0 6909 0 0 7043 0 0 6985 0 0 7012 0 0 7016 0 0 6949 0 0 6871 0 0 7092 0 0 7021 0 0 7060 0 0 6894 0 0 7041 0 0 7112 0 0 7081 0 0 6995 0 0 6977 0 0 7061 0 0 7088 0 0 6920 0 0 7003 0 0 7151 0 0 7031 0 0 7027 0 0 3512 0 0 0 0 0 0 0 0 0 0 0 0 0 0 0 0 0 0 0 0 0 0 0 0 0 0 0 0 0 
0 0 0 0 0 0 0 0 0 0 0 0 0 0 0 0 0 0 0 0 0 0 0 0 0 0 0 0 0 0 3621 0 0 7084 0 0 6935 0 0 6876 0 0 6939 0 0 7003 0 0 6988 0 0 7048 0 0 7111 0 0 6868 0 0 7116 0 0 6937 0 0 6951 0 0 7008 0 0 6915 0 0 7053 0 0 7084 0 0 7078 0 0 7017 0 0 6979 0 0 7144 0 0 6916 0 0 7086 0 0 6993 0 0 7046 0 0 7067 0 0 6868 0 0 7015 0 0 6999 0 0 7002 0 0 7016 0 0 7036 0 0 6959 0 0 7122 0 0 7035 0 0 6958 0 0 7061 0 0 7039 0 0 7039 0 0 7034 0 0 3541 0 0 0 0 0 0 0 0 0 0 0 0 0 0 0 0 0 0 0 0 0 0 0 0 0 0 0 0 0 
0 0 0 0 0 0 0 0 0 0 0 0 0 0 0 0 0 0 0 0 0 0 0 0 0 0 0 0 0 0 3481 0 0 7046 0 0 6999 0 0 7100 0 0 6843 0 0 7045 0 0 6993 0 0 7052 0 0 7202 0 0 7063 0 0 7076 0 0 6911 0 0 7097 0 0 7023 0 0 6883 0 0 7112 0 0 6997 0 0 7084 0 0 7033 0 0 6931 0 0 7009 0 0 7071 0 0 7003 0 0 7156 0 0 6948 0 0 7026 0 0 7061 0 0 7059 0 0 7108 0 0 6813 0 0 7119 0 0 6974 0 0 6885 0 0 7039 0 0 7053 0 0 6976 0 0 6997 0 0 7054 0 0 7074 0 0 6945 0 0 3466 0 0 0 0 0 0 0 0 0 0 0 0 0 0 0 0 0 0 0 0 0 0 0 0 0 0 0 0 0 
0 0 0 0 0 0 0 0 0 0 0 0 0 0 0 0 0 0 0 0 0 0 0 0 0 0 0 0 0 0 3552 0 0 6882 0 0 6931 0 0 7133 0 0 6913 0 0 7063 0 0 7043 0 0 6997 0 0 7117 0 0 7019 0 0 6997 0 0 6957 0 0 6921 0 0 7184 0 0 7100 0 0 7120 0 0 7069 0 0 7077 0 0 7022 0 0 7174 0 0 7018 0 0 7039 0 0 6970 0 0 6869 0 0 7029 0 0 7036 0 0 6837 0 0 7121 0 0 6958 0 0 7100 0 0 7077 0 0 7034 0 0 6876 0 0 6971 0 0 6830 0 0 6910 0 0 6985 0 0 7058 0 0 7090 0 0 7074 0 0 3514 0 0 0 0 0 0 0 0 0 0 0 0 0 0 0 0 0 0 0 0 0 0 0 0 0 0 0 0 0 
0 0 0 0 0 0 0 0 0 0 0 0 0 0 0 0 0 0 0 0 0 0 0 0 0 0 0 0 0 0 3556 0 0 7009 0 0 7054 0 0 6994 0 0 6985 0 0 7037 0 0 7030 0 0 6983 0 0 7048 0 0 6860 0 0 6895 0 0 6986 0 0 6977 0 0 6866 0 0 6987 0 0 6885 0 0 6937 0 0 6976 0 0 7184 0 0 7130 0 0 7110 0 0 7075 0 0 7020 0 0 7184 0 0 6913 0 0 6820 0 0 6938 0 0 7140 0 0 7183 0 0 6899 0 0 7019 0 0 7062 0 0 7022 0 0 7131 0 0 6869 0 0 6997 0 0 6946 0 0 7001 0 0 6980 0 0 7040 0 0 3525 0 0 0 0 0 0 0 0 0 0 0 0 0 0 0 0 0 0 0 0 0 0 0 0 0 0 0 0 0 
0 0 0 0 0 0 0 0 0 0 0 0 0 0 0 0 0 0 0 0 0 0 0 0 0 0 0 0 0 0 3512 0 0 7069 0 0 6918 0 0 6905 0 0 6973 0 0 6997 0 0 7019 0 0 6976 0 0 7103 0 0 7091 0 0 6878 0 0 7074 0 0 7020 0 0 7181 0 0 7137 0 0 6947 0 0 6953 0 0 7023 0 0 6902 0 0 7006 0 0 6976 0 0 7104 0 0 7043 0 0 6906 0 0 7107 0 0 7215 0 0 6915 0 0 6976 0 0 6833 0 0 7026 0 0 7034 0 0 7014 0 0 6862 0 0 7051 0 0 7081 0 0 6987 0 0 6954 0 0 6931 0 0 6744 0 0 6973 0 0 3528 0 0 0 0 0 0 0 0 0 0 0 0 0 0 0 0 0 0 0 0 0 0 0 0 0 0 0 0 0 
0 0 0 0 0 0 0 0 0 0 0 0 0 0 0 0 0 0 0 0 0 0 0 0 0 0 0 0 0 0 3507 0 0 7100 0 0 7032 0 0 6776 0 0 6972 0 0 7047 0 0 6927 0 0 7066 0 0 6917 0 0 7043 0 0 6972 0 0 6969 0 0 6936 0 0 6925 0 0 7051 0 0 6908 0 0 6963 0 0 6929 0 0 7046 0 0 7011 0 0 7028 0 0 6925 0 0 7008 0 0 6759 0 0 6953 0 0 6960 0 0 7009 0 0 6948 0 0 6952 0 0 6960 0 0 7056 0 0 7097 0 0 6989 0 0 6995 0 0 6924 0 0 6999 0 0 6953 0 0 7094 0 0 7053 0 0 6983 0 0 3585 0 0 0 0 0 0 0 0 0 0 0 0 0 0 0 0 0 0 0 0 0 0 0 0 0 0 0 0 0 
0 0 0 0 0 0 0 0 0 0 0 0 0 0 0 0 0 0 0 0 0 0 0 0 0 0 0 0 0 0 3559 0 0 6998 0 0 7051 0 0 7040 0 0 7013 0 0 6909 0 0 7035 0 0 6944 0 0 6964 0 0 6924 0 0 6950 0 0 7004 0 0 7005 0 0 6968 0 0 6940 0 0 6923 0 0 7084 0 0 7140 0 0 6939 0 0 7090 0 0 6999 0 0 7008 0 0 6908 0 0 7104 0 0 7058 0 0 6971 0 0 7068 0 0 7133 0 0 6983 0 0 6898 0 0 7102 0 0 6975 0 0 7027 0 0 6891 0 0 7087 0 0 7038 0 0 7055 0 0 6965 0 0 7050 0 0 7115 0 0 3482 0 0 0 0 0 0 0 0 0 0 0 0 0 0 0 0 0 0 0 0 0 0 0 0 0 0 0 0 0 
0 0 0 0 0 0 0 0 0 0 0 0 0 0 0 0 0 0 0 0 0 0 0 0 0 0 0 0 0 0 3385 0 0 7064 0 0 6900 0 0 7052 0 0 6989 0 0 7148 0 0 7082 0 0 7120 0 0 6983 0 0 7008 0 0 7067 0 0 7042 0 0 7015 0 0 6900 0 0 6979 0 0 7017 0 0 7077 0 0 6827 0 0 6985 0 0 7049 0 0 6878 0 0 7186 0 0 7135 0 0 6936 0 0 6938 0 0 6968 0 0 6824 0 0 7055 0 0 6952 0 0 6923 0 0 7034 0 0 7093 0 0 6981 0 0 6947 0 0 6896 0 0 6960 0 0 6941 0 0 7178 0 0 7033 0 0 7150 0 0 3586 0 0 0 0 0 0 0 0 0 0 0 0 0 0 0 0 0 0 0 0 0 0 0 0 0 0 0 0 0 
0 0 0 0 0 0 0 0 0 0 0 0 0 0 0 0 0 0 0 0 0 0 0 0 0 0 0 0 0 0 3541 0 0 6806 0 0 6984 0 0 6924 0 0 6924 0 0 7161 0 0 6937 0 0 7130 0 0 6961 0 0 6943 0 0 7008 0 0 6829 0 0 6890 0 0 7131 0 0 6968 0 0 7155 0 0 6948 0 0 6889 0 0 6941 0 0 6885 0 0 6836 0 0 7075 0 0 6880 0 0 7008 0 0 6952 0 0 6816 0 0 7149 0 0 7046 0 0 6951 0 0 7139 0 0 6870 0 0 7048 0 0 6887 0 0 6922 0 0 6985 0 0 7065 0 0 6981 0 0 6938 0 0 7027 0 0 7110 0 0 3432 0 0 0 0 0 0 0 0 0 0 0 0 0 0 0 0 0 0 0 0 0 0 0 0 0 0 0 0 0 
0 0 0 0 0 0 0 0 0 0 0 0 0 0 0 0 0 0 0 0 0 0 0 0 0 0 0 0 0 0 1780 0 0 3515 0 0 3479 0 0 3541 0 0 3517 0 0 3544 0 0 3544 0 0 3581 0 0 3437 0 0 3555 0 0 3494 0 0 3520 0 0 3576 0 0 3482 0 0 3571 0 0 3530 0 0 3491 0 0 3453 0 0 3497 0 0 3457 0 0 3579 0 0 3511 0 0 3509 0 0 3589 0 0 3497 0 0 3579 0 0 3498 0 0 3557 0 0 3436 0 0 3529 0 0 3420 0 0 3518 0 0 3488 0 0 3394 0 0 3431 0 0 3472 0 0 3439 0 0 3565 0 0 3481 0 0 3562 0 0 1705 0 0 0 0 0 0 0 0 0 0 0 0 0 0 0 0 0 0 0 0 0 0 0 0 0 0 0 0 0 
0 0 0 0 0 0 0 0 0 0 0 0 0 0 0 0 0 0 0 0 0 0 0 0 0 0 0 0 0 0 0 0 0 0 0 0 0 0 0 0 0 0 0 0 0 0 0 0 0 0 0 0 0 0 0 0 0 0 0 0 0 0 0 0 0 0 0 0 0 0 0 0 0 0 0 0 0 0 0 0 0 0 0 0 0 0 0 0 0 0 0 0 0 0 0 0 0 0 0 0 0 0 0 0 0 0 0 0 0 0 0 0 0 0 0 0 0 0 0 0 0 0 0 0 0 0 0 0 0 0 0 0 0 0 0 0 0 0 0 0 0 0 0 0 0 0 0 0 0 0 0 0 0 0 0 0 0 0 0 0 0 0 0 0 0 0 0 0 0 0 0 0 0 0 0 0 0 0 0 0 
0 0 0 0 0 0 0 0 0 0 0 0 0 0 0 0 0 0 0 0 0 0 0 0 0 0 0 0 0 0 0 0 0 0 0 0 0 0 0 0 0 0 0 0 0 0 0 0 0 0 0 0 0 0 0 0 0 0 0 0 0 0 0 0 0 0 0 0 0 0 0 0 0 0 0 0 0 0 0 0 0 0 0 0 0 0 0 0 0 0 0 0 0 0 0 0 0 0 0 0 0 0 0 0 0 0 0 0 0 0 0 0 0 0 0 0 0 0 0 0 0 0 0 0 0 0 0 0 0 0 0 0 0 0 0 0 0 0 0 0 0 0 0 0 0 0 0 0 0 0 0 0 0 0 0 0 0 0 0 0 0 0 0 0 0 0 0 0 0 0 0 0 0 0 0 0 0 0 0 0 
0 0 0 0 0 0 0 0 0 0 0 0 0 0 0 0 0 0 0 0 0 0 0 0 0 0 0 0 0 0 0 0 0 0 0 0 0 0 0 0 0 0 0 0 0 0 0 0 0 0 0 0 0 0 0 0 0 0 0 0 0 0 0 0 0 0 0 0 0 0 0 0 0 0 0 0 0 0 0 0 0 0 0 0 0 0 0 0 0 0 0 0 0 0 0 0 0 0 0 0 0 0 0 0 0 0 0 0 0 0 0 0 0 0 0 0 0 0 0 0 0 0 0 0 0 0 0 0 0 0 0 0 0 0 0 0 0 0 0 0 0 0 0 0 0 0 0 0 0 0 0 0 0 0 0 0 0 0 0 0 0 0 0 0 0 0 0 0 0 0 0 0 0 0 0 0 0 0 0 0 
0 0 0 0 0 0 0 0 0 0 0 0 0 0 0 0 0 0 0 0 0 0 0 0 0 0 0 0 0 0 0 0 0 0 0 0 0 0 0 0 0 0 0 0 0 0 0 0 0 0 0 0 0 0 0 0 0 0 0 0 0 0 0 0 0 0 0 0 0 0 0 0 0 0 0 0 0 0 0 0 0 0 0 0 0 0 0 0 0 0 0 0 0 0 0 0 0 0 0 0 0 0 0 0 0 0 0 0 0 0 0 0 0 0 0 0 0 0 0 0 0 0 0 0 0 0 0 0 0 0 0 0 0 0 0 0 0 0 0 0 0 0 0 0 0 0 0 0 0 0 0 0 0 0 0 0 0 0 0 0 0 0 0 0 0 0 0 0 0 0 0 0 0 0 0 0 0 0 0 0 
0 0 0 0 0 0 0 0 0 0 0 0 0 0 0 0 0 0 0 0 0 0 0 0 0 0 0 0 0 0 0 0 0 0 0 0 0 0 0 0 0 0 0 0 0 0 0 0 0 0 0 0 0 0 0 0 0 0 0 0 0 0 0 0 0 0 0 0 0 0 0 0 0 0 0 0 0 0 0 0 0 0 0 0 0 0 0 0 0 0 0 0 0 0 0 0 0 0 0 0 0 0 0 0 0 0 0 0 0 0 0 0 0 0 0 0 0 0 0 0 0 0 0 0 0 0 0 0 0 0 0 0 0 0 0 0 0 0 0 0 0 0 0 0 0 0 0 0 0 0 0 0 0 0 0 0 0 0 0 0 0 0 0 0 0 0 0 0 0 0 0 0 0 0 0 0 0 0 0 0 
0 0 0 0 0 0 0 0 0 0 0 0 0 0 0 0 0 0 0 0 0 0 0 0 0 0 0 0 0 0 0 0 0 0 0 0 0 0 0 0 0 0 0 0 0 0 0 0 0 0 0 0 0 0 0 0 0 0 0 0 0 0 0 0 0 0 0 0 0 0 0 0 0 0 0 0 0 0 0 0 0 0 0 0 0 0 0 0 0 0 0 0 0 0 0 0 0 0 0 0 0 0 0 0 0 0 0 0 0 0 0 0 0 0 0 0 0 0 0 0 0 0 0 0 0 0 0 0 0 0 0 0 0 0 0 0 0 0 0 0 0 0 0 0 0 0 0 0 0 0 0 0 0 0 0 0 0 0 0 0 0 0 0 0 0 0 0 0 0 0 0 0 0 0 0 0 0 0 0 0 
0 0 0 0 0 0 0 0 0 0 0 0 0 0 0 0 0 0 0 0 0 0 0 0 0 0 0 0 0 0 0 0 0 0 0 0 0 0 0 0 0 0 0 0 0 0 0 0 0 0 0 0 0 0 0 0 0 0 0 0 0 0 0 0 0 0 0 0 0 0 0 0 0 0 0 0 0 0 0 0 0 0 0 0 0 0 0 0 0 0 0 0 0 0 0 0 0 0 0 0 0 0 0 0 0 0 0 0 0 0 0 0 0 0 0 0 0 0 0 0 0 0 0 0 0 0 0 0 0 0 0 0 0 0 0 0 0 0 0 0 0 0 0 0 0 0 0 0 0 0 0 0 0 0 0 0 0 0 0 0 0 0 0 0 0 0 0 0 0 0 0 0 0 0 0 0 0 0 0 0 
0 0 0 0 0 0 0 0 0 0 0 0 0 0 0 0 0 0 0 0 0 0 0 0 0 0 0 0 0 0 0 0 0 0 0 0 0 0 0 0 0 0 0 0 0 0 0 0 0 0 0 0 0 0 0 0 0 0 0 0 0 0 0 0 0 0 0 0 0 0 0 0 0 0 0 0 0 0 0 0 0 0 0 0 0 0 0 0 0 0 0 0 0 0 0 0 0 0 0 0 0 0 0 0 0 0 0 0 0 0 0 0 0 0 0 0 0 0 0 0 0 0 0 0 0 0 0 0 0 0 0 0 0 0 0 0 0 0 0 0 0 0 0 0 0 0 0 0 0 0 0 0 0 0 0 0 0 0 0 0 0 0 0 0 0 0 0 0 0 0 0 0 0 0 0 0 0 0 0 0 
0 0 0 0 0 0 0 0 0 0 0 0 0 0 0 0 0 0 0 0 0 0 0 0 0 0 0 0 0 0 0 0 0 0 0 0 0 0 0 0 0 0 0 0 0 0 0 0 0 0 0 0 0 0 0 0 0 0 0 0 0 0 0 0 0 0 0 0 0 0 0 0 0 0 0 0 0 0 0 0 0 0 0 0 0 0 0 0 0 0 0 0 0 0 0 0 0 0 0 0 0 0 0 0 0 0 0 0 0 0 0 0 0 0 0 0 0 0 0 0 0 0 0 0 0 0 0 0 0 0 0 0 0 0 0 0 0 0 0 0 0 0 0 0 0 0 0 0 0 0 0 0 0 0 0 0 0 0 0 0 0 0 0 0 0 0 0 0 0 0 0 0 0 0 0 0 0 0 0 0 
