P3
# This is a dose file slice at depth 50 of 100
60 60
# now we give the maximum value of the RGB coordinates.
32920
1 0 0 0 0 0 2 0 0 1 0 0 0 0 0 3 0 0 2 0 0 1 0 0 1 0 0 2 0 0 2 0 0 0 0 0 0 0 0 2 0 0 0 0 0 0 0 0 2 0 0 3 0 0 3 0 0 3 0 0 2 0 0 2 0 0 3 0 0 3 0 0 1 0 0 1 0 0 1 0 0 2 0 0 5 0 0 3 0 0 2 0 0 1 0 0 1 0 0 1 0 0 4 0 0 3 0 0 2 0 0 1 0 0 2 0 0 4 0 0 3 0 0 3 0 0 4 0 0 4 0 0 1 0 0 1 0 0 1 0 0 1 0 0 2 0 0 2 0 0 2 0 0 1 0 0 2 0 0 0 0 0 1 0 0 2 0 0 0 0 0 0 0 0 1 0 0 5 0 0 
0 0 0 3 0 0 6 0 0 4 0 0 2 0 0 3 0 0 5 0 0 1 0 0 1 0 0 3 0 0 2 0 0 3 0 0 3 0 0 4 0 0 5 0 0 3 0 0 6 0 0 6 0 0 7 0 0 10 0 0 6 0 0 7 0 0 6 0 0 9 0 0 8 0 0 4 0 0 6 0 0 7 0 0 6 0 0 10 0 0 8 0 0 3 0 0 2 0 0 5 0 0 8 0 0 9 0 0 6 0 0 4 0 0 10 0 0 4 0 0 8 0 0 7 0 0 3 0 0 5 0 0 5 0 0 2 0 0 6 0 0 1 0 0 7 0 0 6 0 0 6 0 0 3 0 0 4 0 0 4 0 0 2 0 0 1 0 0 2 0 0 3 0 0 7 0 0 2 0 0 
2 0 0 3 0 0 3 0 0 4 0 0 2 0 0 3 0 0 5 0 0 4 0 0 3 0 0 4 0 0 4 0 0 0 0 0 6 0 0 3 0 0 4 0 0 7 0 0 7 0 0 6 0 0 11 0 0 12 0 0 7 0 0 2 0 0 10 0 0 11 0 0 5 0 0 9 0 0 9 0 0 15 0 0 5 0 0 8 0 0 8 0 0 5 0 0 5 0 0 5 0 0 7 0 0 4 0 0 4 0 0 8 0 0 7 0 0 5 0 0 13 0 0 8 0 0 6 0 0 7 0 0 5 0 0 8 0 0 5 0 0 5 0 0 6 0 0 5 0 0 5 0 0 5 0 0 3 0 0 4 0 0 1 0 0 0 0 0 4 0 0 7 0 0 5 0 0 2 0 0 
0 0 0 3 0 0 4 0 0 9 0 0 1 0 0 4 0 0 4 0 0 5 0 0 6 0 0 4 0 0 5 0 0 3 0 0 7 0 0 1 0 0 4 0 0 7 0 0 9 0 0 8 0 0 10 0 0 8 0 0 9 0 0 6 0 0 10 0 0 7 0 0 8 0 0 13 0 0 11 0 0 8 0 0 6 0 0 12 0 0 8 0 0 10 0 0 8 0 0 5 0 0 10 0 0 7 0 0 4 0 0 5 0 0 8 0 0 10 0 0 13 0 0 11 0 0 9 0 0 8 0 0 12 0 0 9 0 0 6 0 0 8 0 0 7 0 0 9 0 0 4 0 0 7 0 0 3 0 0 2 0 0 1 0 0 6 0 0 6 0 0 5 0 0 2 0 0 4 0 0 
1 0 0 1 0 0 1 0 0 6 0 0 9 0 0 3 0 0 2 0 0 4 0 0 2 0 0 5 0 0 4 0 0 3 0 0 9 0 0 2 0 0 4 0 0 8 0 0 5 0 0 7 0 0 15 0 0 8 0 0 9 0 0 8 0 0 9 0 0 13 0 0 7 0 0 10 0 0 10 0 0 8 0 0 6 0 0 15 0 0 8 0 0 13 0 0 13 0 0 7 0 0 6 0 0 1 0 0 3 0 0 11 0 0 11 0 0 13 0 0 10 0 0 14 0 0 10 0 0 10 0 0 9 0 0 12 0 0 12 0 0 3 0 0 7 0 0 7 0 0 6 0 0 5 0 0 2 0 0 2 0 0 3 0 0 5 0 0 3 0 0 2 0 0 1 0 0 3 0 0 
3 0 0 2 0 0 4 0 0 1 0 0 2 0 0 5 0 0 4 0 0 2 0 0 4 0 0 5 0 0 6 0 0 9 0 0 4 0 0 5 0 0 9 0 0 6 0 0 5 0 0 8 0 0 6 0 0 11 0 0 12 0 0 10 0 0 12 0 0 9 0 0 11 0 0 13 0 0 12 0 0 11 0 0 14 0 0 9 0 0 10 0 0 10 0 0 17 0 0 10 0 0 3 0 0 4 0 0 7 0 0 12 0 0 5 0 0 8 0 0 10 0 0 16 0 0 8 0 0 14 0 0 8 0 0 12 0 0 10 0 0 7 0 0 7 0 0 8 0 0 8 0 0 5 0 0 3 0 0 7 0 0 5 0 0 6 0 0 2 0 0 3 0 0 4 0 0 3 0 0 
1 0 0 8 0 0 3 0 0 0 0 0 1 0 0 0 0 0 7 0 0 5 0 0 6 0 0 7 0 0 4 0 0 3 0 0 16 0 0 6 0 0 10 0 0 8 0 0 7 0 0 7 0 0 12 0 0 12 0 0 11 0 0 10 0 0 16 0 0 11 0 0 10 0 0 9 0 0 15 0 0 9 0 0 6 0 0 11 0 0 15 0 0 12 0 0 8 0 0 8 0 0 10 0 0 9 0 0 9 0 0 10 0 0 11 0 0 6 0 0 9 0 0 10 0 0 15 0 0 12 0 0 9 0 0 8 0 0 11 0 0 5 0 0 15 0 0 11 0 0 11 0 0 6 0 0 7 0 0 6 0 0 6 0 0 1 0 0 2 0 0 4 0 0 5 0 0 2 0 0 
0 0 0 1 0 0 6 0 0 3 0 0 2 0 0 9 0 0 4 0 0 3 0 0 11 0 0 4 0 0 6 0 0 7 0 0 10 0 0 8 0 0 9 0 0 12 0 0 8 0 0 13 0 0 11 0 0 13 0 0 18 0 0 13 0 0 11 0 0 15 0 0 21 0 0 11 0 0 10 0 0 16 0 0 20 0 0 17 0 0 12 0 0 20 0 0 11 0 0 15 0 0 12 0 0 14 0 0 13 0 0 14 0 0 13 0 0 19 0 0 7 0 0 11 0 0 9 0 0 9 0 0 13 0 0 9 0 0 13 0 0 15 0 0 10 0 0 11 0 0 8 0 0 6 0 0 5 0 0 8 0 0 2 0 0 2 0 0 1 0 0 2 0 0 2 0 0 0 0 0 
0 0 0 2 0 0 2 0 0 3 0 0 3 0 0 8 0 0 7 0 0 3 0 0 6 0 0 8 0 0 11 0 0 12 0 0 12 0 0 17 0 0 16 0 0 22 0 0 16 0 0 23 0 0 17 0 0 14 0 0 22 0 0 16 0 0 17 0 0 30 0 0 16 0 0 22 0 0 14 0 0 18 0 0 21 0 0 24 0 0 15 0 0 24 0 0 23 0 0 21 0 0 16 0 0 21 0 0 15 0 0 12 0 0 23 0 0 17 0 0 14 0 0 20 0 0 17 0 0 17 0 0 19 0 0 21 0 0 18 0 0 15 0 0 12 0 0 14 0 0 18 0 0 7 0 0 10 0 0 4 0 0 3 0 0 1 0 0 4 0 0 3 0 0 2 0 0 2 0 0 
3 0 0 5 0 0 4 0 0 6 0 0 3 0 0 11 0 0 10 0 0 9 0 0 4 0 0 9 0 0 45 0 0 80 0 0 82 0 0 84 0 0 84 0 0 84 0 0 85 0 0 88 0 0 81 0 0 103 0 0 74 0 0 76 0 0 93 0 0 85 0 0 76 0 0 79 0 0 85 0 0 73 0 0 80 0 0 72 0 0 82 0 0 81 0 0 82 0 0 84 0 0 101 0 0 87 0 0 74 0 0 78 0 0 98 0 0 91 0 0 95 0 0 95 0 0 78 0 0 88 0 0 84 0 0 86 0 0 84 0 0 69 0 0 76 0 0 83 0 0 36 0 0 10 0 0 7 0 0 5 0 0 5 0 0 4 0 0 3 0 0 2 0 0 6 0 0 7 0 0 
2 0 0 5 0 0 6 0 0 6 0 0 9 0 0 7 0 0 9 0 0 7 0 0 12 0 0 43 0 0 2703 0 0 5345 0 0 5453 0 0 5358 0 0 5345 0 0 5314 0 0 5340 0 0 5356 0 0 5364 0 0 5324 0 0 5328 0 0 5355 0 0 5393 0 0 5478 0 0 5282 0 0 5420 0 0 5405 0 0 5353 0 0 5377 0 0 5374 0 0 5408 0 0 5402 0 0 5400 0 0 5331 0 0 5334 0 0 5257 0 0 5236 0 0 5209 0 0 5396 0 0 5332 0 0 5375 0 0 5415 0 0 5391 0 0 5237 0 0 5262 0 0 5319 0 0 5387 0 0 5343 0 0 5298 0 0 5248 0 0 2691 0 0 41 0 0 6 0 0 4 0 0 8 0 0 3 0 0 7 0 0 6 0 0 3 0 0 3 0 0 
0 0 0 2 0 0 4 0 0 3 0 0 9 0 0 12 0 0 12 0 0 13 0 0 18 0 0 78 0 0 5296 0 0 10488 0 0 10465 0 0 10645 0 0 10578 0 0 10794 0 0 10497 0 0 10714 0 0 10784 0 0 10717 0 0 10591 0 0 10581 0 0 10667 0 0 10693 0 0 10496 0 0 10721 0 0 10487 0 0 10509 0 0 10731 0 0 10709 0 0 10749 0 0 10427 0 0 10411 0 0 10622 0 0 10505 0 0 10554 0 0 10575 0 0 10547 0 0 10664 0 0 10578 0 0 10603 0 0 10573 0 0 10616 0 0 10406 0 0 10656 0 0 10734 0 0 10635 0 0 10712 0 0 10362 0 0 10610 0 0 5356 0 0 75 0 0 9 0 0 8 0 0 8 0 0 10 0 0 4 0 0 1 0 0 8 0 0 6 0 0 
1 0 0 3 0 0 4 0 0 2 0 0 2 0 0 10 0 0 9 0 0 7 0 0 11 0 0 78 0 0 5259 0 0 10452 0 0 10555 0 0 10771 0 0 10605 0 0 10585 0 0 10811 0 0 10752 0 0 10701 0 0 10747 0 0 10609 0 0 10651 0 0 10769 0 0 10718 0 0 10668 0 0 10760 0 0 10746 0 0 10626 0 0 10867 0 0 10659 0 0 10633 0 0 10670 0 0 10711 0 0 10668 0 0 10666 0 0 10511 0 0 10781 0 0 10664 0 0 10708 0 0 10658 0 0 10800 0 0 10819 0 0 10780 0 0 10497 0 0 10776 0 0 10533 0 0 10718 0 0 10557 0 0 10670 0 0 10390 0 0 5341 0 0 77 0 0 8 0 0 8 0 0 7 0 0 6 0 0 4 0 0 6 0 0 11 0 0 7 0 0 
3 0 0 4 0 0 7 0 0 8 0 0 7 0 0 4 0 0 12 0 0 8 0 0 12 0 0 79 0 0 5284 0 0 10616 0 0 10713 0 0 10679 0 0 10840 0 0 10842 0 0 10557 0 0 10571 0 0 10704 0 0 10658 0 0 10691 0 0 10664 0 0 10792 0 0 10655 0 0 10661 0 0 10609 0 0 10674 0 0 10856 0 0 10601 0 0 10637 0 0 10602 0 0 10808 0 0 10600 0 0 10802 0 0 10659 0 0 10629 0 0 10768 0 0 10802 0 0 10574 0 0 10540 0 0 10660 0 0 10482 0 0 10710 0 0 10642 0 0 10657 0 0 10641 0 0 10609 0 0 10708 0 0 10617 0 0 10692 0 0 5421 0 0 91 0 0 16 0 0 15 0 0 9 0 0 9 0 0 9 0 0 7 0 0 6 0 0 4 0 0 
1 0 0 6 0 0 4 0 0 4 0 0 7 0 0 8 0 0 19 0 0 11 0 0 20 0 0 79 0 0 5346 0 0 10707 0 0 10695 0 0 10701 0 0 10804 0 0 10607 0 0 10845 0 0 10705 0 0 10682 0 0 10982 0 0 10819 0 0 10693 0 0 10652 0 0 10693 0 0 10748 0 0 10782 0 0 10683 0 0 10808 0 0 10834 0 0 10531 0 0 10698 0 0 10860 0 0 10633 0 0 10563 0 0 10689 0 0 10572 0 0 10895 0 0 10654 0 0 10735 0 0 10715 0 0 10681 0 0 10855 0 0 10816 0 0 10810 0 0 10799 0 0 10756 0 0 10761 0 0 10797 0 0 10628 0 0 10578 0 0 5430 0 0 82 0 0 16 0 0 18 0 0 9 0 0 7 0 0 3 0 0 5 0 0 0 0 0 1 0 0 
1 0 0 3 0 0 2 0 0 7 0 0 4 0 0 9 0 0 12 0 0 11 0 0 17 0 0 83 0 0 5378 0 0 10689 0 0 10693 0 0 10753 0 0 10577 0 0 10654 0 0 10751 0 0 10808 0 0 10781 0 0 10710 0 0 10719 0 0 10756 0 0 10767 0 0 10777 0 0 10766 0 0 10714 0 0 10758 0 0 10599 0 0 10609 0 0 10780 0 0 10629 0 0 10509 0 0 10746 0 0 10577 0 0 10898 0 0 10712 0 0 10644 0 0 10754 0 0 10623 0 0 10669 0 0 10600 0 0 10831 0 0 10584 0 0 10726 0 0 10651 0 0 10684 0 0 10783 0 0 10728 0 0 10905 0 0 10625 0 0 5401 0 0 73 0 0 19 0 0 16 0 0 9 0 0 4 0 0 11 0 0 7 0 0 5 0 0 3 0 0 
2 0 0 1 0 0 3 0 0 5 0 0 6 0 0 5 0 0 11 0 0 11 0 0 18 0 0 89 0 0 5230 0 0 10499 0 0 10674 0 0 10794 0 0 10714 0 0 10783 0 0 10734 0 0 10511 0 0 10879 0 0 10585 0 0 10640 0 0 10822 0 0 10719 0 0 10769 0 0 10802 0 0 10584 0 0 10797 0 0 10838 0 0 10601 0 0 10734 0 0 10829 0 0 10711 0 0 10715 0 0 10731 0 0 10719 0 0 10852 0 0 10723 0 0 10717 0 0 10828 0 0 10689 0 0 10609 0 0 10811 0 0 10498 0 0 10537 0 0 10644 0 0 10743 0 0 10683 0 0 10653 0 0 10715 0 0 10717 0 0 5381 0 0 79 0 0 19 0 0 19 0 0 14 0 0 13 0 0 7 0 0 2 0 0 4 0 0 5 0 0 
2 0 0 5 0 0 10 0 0 7 0 0 10 0 0 8 0 0 10 0 0 15 0 0 18 0 0 73 0 0 5346 0 0 10428 0 0 10698 0 0 10617 0 0 10625 0 0 10766 0 0 10633 0 0 10663 0 0 10705 0 0 10647 0 0 10731 0 0 10966 0 0 10757 0 0 10781 0 0 10748 0 0 10692 0 0 10608 0 0 10694 0 0 10741 0 0 10678 0 0 10791 0 0 10805 0 0 10715 0 0 10928 0 0 10753 0 0 10685 0 0 10747 0 0 10748 0 0 10689 0 0 10881 0 0 10709 0 0 10769 0 0 10729 0 0 10644 0 0 10597 0 0 10738 0 0 10687 0 0 10807 0 0 10888 0 0 10764 0 0 5381 0 0 73 0 0 17 0 0 11 0 0 15 0 0 11 0 0 8 0 0 6 0 0 9 0 0 8 0 0 
1 0 0 1 0 0 3 0 0 6 0 0 4 0 0 7 0 0 8 0 0 14 0 0 20 0 0 84 0 0 5376 0 0 10581 0 0 10664 0 0 10460 0 0 10636 0 0 10725 0 0 10727 0 0 10712 0 0 10794 0 0 10650 0 0 10786 0 0 10677 0 0 10591 0 0 10762 0 0 10681 0 0 10707 0 0 10803 0 0 10664 0 0 10782 0 0 10618 0 0 10713 0 0 10822 0 0 10708 0 0 10749 0 0 10839 0 0 10719 0 0 10657 0 0 10689 0 0 10749 0 0 10672 0 0 10779 0 0 10617 0 0 10552 0 0 10645 0 0 10644 0 0 10594 0 0 10709 0 0 10783 0 0 10793 0 0 10744 0 0 5311 0 0 79 0 0 21 0 0 15 0 0 14 0 0 8 0 0 9 0 0 12 0 0 4 0 0 12 0 0 
5 0 0 9 0 0 6 0 0 6 0 0 5 0 0 7 0 0 10 0 0 11 0 0 18 0 0 81 0 0 5364 0 0 10790 0 0 10688 0 0 10844 0 0 10809 0 0 10698 0 0 10821 0 0 10667 0 0 10754 0 0 10748 0 0 10778 0 0 10730 0 0 10643 0 0 10756 0 0 10777 0 0 10739 0 0 10795 0 0 10656 0 0 10751 0 0 10694 0 0 10814 0 0 10811 0 0 10624 0 0 10852 0 0 10585 0 0 10769 0 0 10711 0 0 10591 0 0 10649 0 0 10798 0 0 10670 0 0 10800 0 0 10609 0 0 10766 0 0 10836 0 0 10590 0 0 10562 0 0 10671 0 0 10781 0 0 10708 0 0 5415 0 0 73 0 0 21 0 0 15 0 0 9 0 0 12 0 0 7 0 0 3 0 0 10 0 0 7 0 0 
3 0 0 9 0 0 8 0 0 5 0 0 5 0 0 8 0 0 16 0 0 13 0 0 18 0 0 91 0 0 5428 0 0 10558 0 0 10711 0 0 10527 0 0 10642 0 0 10739 0 0 10557 0 0 10679 0 0 10574 0 0 10772 0 0 10768 0 0 10723 0 0 10805 0 0 10664 0 0 10700 0 0 10633 0 0 10752 0 0 10739 0 0 10660 0 0 10817 0 0 10566 0 0 10834 0 0 10689 0 0 10822 0 0 10823 0 0 10611 0 0 10814 0 0 10756 0 0 10686 0 0 10785 0 0 10871 0 0 10653 0 0 10702 0 0 10694 0 0 10738 0 0 10786 0 0 10602 0 0 10727 0 0 10594 0 0 10865 0 0 5376 0 0 74 0 0 15 0 0 17 0 0 17 0 0 10 0 0 8 0 0 7 0 0 6 0 0 7 0 0 
1 0 0 1 0 0 4 0 0 7 0 0 11 0 0 16 0 0 11 0 0 16 0 0 15 0 0 71 0 0 5262 0 0 10792 0 0 10817 0 0 10979 0 0 10818 0 0 10576 0 0 10718 0 0 10662 0 0 10717 0 0 10670 0 0 10796 0 0 10700 0 0 10570 0 0 10629 0 0 10650 0 0 10713 0 0 10912 0 0 10771 0 0 10637 0 0 10752 0 0 10740 0 0 10678 0 0 10482 0 0 10676 0 0 10605 0 0 10813 0 0 10637 0 0 10777 0 0 10778 0 0 10788 0 0 10712 0 0 10693 0 0 10720 0 0 10856 0 0 10669 0 0 10666 0 0 10770 0 0 10618 0 0 10623 0 0 10539 0 0 5384 0 0 101 0 0 23 0 0 27 0 0 13 0 0 12 0 0 12 0 0 7 0 0 6 0 0 10 0 0 
3 0 0 8 0 0 9 0 0 4 0 0 5 0 0 13 0 0 12 0 0 15 0 0 15 0 0 87 0 0 5303 0 0 10654 0 0 10875 0 0 10743 0 0 10606 0 0 10750 0 0 10734 0 0 10671 0 0 10638 0 0 10661 0 0 10643 0 0 10750 0 0 10905 0 0 10753 0 0 10668 0 0 10797 0 0 10694 0 0 10688 0 0 10803 0 0 10633 0 0 10768 0 0 10912 0 0 10574 0 0 10853 0 0 10894 0 0 10787 0 0 10708 0 0 10756 0 0 10836 0 0 10495 0 0 10757 0 0 10746 0 0 10885 0 0 10826 0 0 10929 0 0 10751 0 0 10742 0 0 10785 0 0 10666 0 0 10641 0 0 5440 0 0 76 0 0 24 0 0 17 0 0 14 0 0 10 0 0 6 0 0 11 0 0 12 0 0 8 0 0 
2 0 0 9 0 0 5 0 0 9 0 0 7 0 0 6 0 0 12 0 0 15 0 0 13 0 0 73 0 0 5423 0 0 10712 0 0 10654 0 0 10704 0 0 10807 0 0 10518 0 0 10896 0 0 10795 0 0 10733 0 0 10543 0 0 10827 0 0 10643 0 0 10544 0 0 10766 0 0 10661 0 0 10734 0 0 10714 0 0 10661 0 0 10658 0 0 10498 0 0 10710 0 0 10629 0 0 10684 0 0 10721 0 0 10715 0 0 10749 0 0 10795 0 0 10669 0 0 10679 0 0 10679 0 0 10810 0 0 10764 0 0 10806 0 0 10760 0 0 10708 0 0 10656 0 0 10688 0 0 10785 0 0 10758 0 0 10520 0 0 5334 0 0 81 0 0 15 0 0 12 0 0 13 0 0 14 0 0 10 0 0 10 0 0 9 0 0 5 0 0 
4 0 0 5 0 0 6 0 0 6 0 0 12 0 0 12 0 0 16 0 0 15 0 0 15 0 0 73 0 0 5370 0 0 10618 0 0 10678 0 0 10699 0 0 10712 0 0 10742 0 0 10706 0 0 10629 0 0 10768 0 0 10916 0 0 10551 0 0 10504 0 0 10814 0 0 10697 0 0 10839 0 0 10666 0 0 10572 0 0 10809 0 0 10633 0 0 10740 0 0 10503 0 0 10639 0 0 10658 0 0 10661 0 0 10650 0 0 10626 0 0 10565 0 0 10626 0 0 10688 0 0 10748 0 0 10592 0 0 10743 0 0 10780 0 0 10727 0 0 10643 0 0 10519 0 0 10624 0 0 10791 0 0 10675 0 0 10660 0 0 5304 0 0 74 0 0 11 0 0 11 0 0 6 0 0 10 0 0 9 0 0 12 0 0 6 0 0 6 0 0 
2 0 0 5 0 0 10 0 0 9 0 0 4 0 0 7 0 0 15 0 0 20 0 0 25 0 0 75 0 0 5339 0 0 10532 0 0 10755 0 0 10694 0 0 10603 0 0 10787 0 0 10706 0 0 10745 0 0 10782 0 0 10744 0 0 10671 0 0 10622 0 0 10686 0 0 10680 0 0 10718 0 0 10789 0 0 10745 0 0 10746 0 0 10806 0 0 10737 0 0 10676 0 0 10746 0 0 10708 0 0 11010 0 0 10747 0 0 10644 0 0 10652 0 0 10632 0 0 10546 0 0 10663 0 0 10610 0 0 10672 0 0 10706 0 0 10693 0 0 10738 0 0 10701 0 0 10586 0 0 10508 0 0 10728 0 0 10569 0 0 5388 0 0 86 0 0 12 0 0 14 0 0 10 0 0 13 0 0 8 0 0 9 0 0 6 0 0 8 0 0 
1 0 0 7 0 0 8 0 0 4 0 0 9 0 0 5 0 0 14 0 0 10 0 0 15 0 0 87 0 0 5389 0 0 10645 0 0 10721 0 0 10676 0 0 10679 0 0 10774 0 0 10737 0 0 10767 0 0 10668 0 0 10733 0 0 10801 0 0 10791 0 0 10697 0 0 10640 0 0 10523 0 0 10728 0 0 10761 0 0 10738 0 0 10618 0 0 10656 0 0 10543 0 0 10589 0 0 10819 0 0 10713 0 0 10655 0 0 10717 0 0 10705 0 0 10771 0 0 10744 0 0 10884 0 0 10730 0 0 10796 0 0 10630 0 0 10641 0 0 10799 0 0 10671 0 0 10779 0 0 10759 0 0 10654 0 0 10809 0 0 5358 0 0 92 0 0 20 0 0 19 0 0 13 0 0 9 0 0 7 0 0 5 0 0 5 0 0 8 0 0 
3 0 0 6 0 0 9 0 0 5 0 0 8 0 0 16 0 0 12 0 0 11 0 0 27 0 0 78 0 0 5370 0 0 10638 0 0 10650 0 0 10866 0 0 10771 0 0 10780 0 0 10723 0 0 10726 0 0 10578 0 0 10886 0 0 10813 0 0 10623 0 0 10652 0 0 10639 0 0 10706 0 0 10694 0 0 10782 0 0 10819 0 0 10622 0 0 10897 0 0 10714 0 0 10760 0 0 10602 0 0 10827 0 0 10755 0 0 10708 0 0 10540 0 0 10800 0 0 10707 0 0 10660 0 0 10737 0 0 10658 0 0 10730 0 0 10694 0 0 10667 0 0 10647 0 0 10780 0 0 10789 0 0 10829 0 0 10773 0 0 5326 0 0 91 0 0 19 0 0 13 0 0 11 0 0 10 0 0 13 0 0 6 0 0 2 0 0 6 0 0 
4 0 0 7 0 0 8 0 0 6 0 0 6 0 0 9 0 0 13 0 0 7 0 0 19 0 0 103 0 0 5301 0 0 10711 0 0 10540 0 0 10581 0 0 10656 0 0 10767 0 0 10602 0 0 10763 0 0 10805 0 0 10612 0 0 10616 0 0 10613 0 0 10785 0 0 10697 0 0 10705 0 0 10680 0 0 10657 0 0 10831 0 0 10666 0 0 10638 0 0 10727 0 0 10757 0 0 10799 0 0 10822 0 0 10810 0 0 10655 0 0 10819 0 0 10920 0 0 10669 0 0 10837 0 0 10645 0 0 10693 0 0 10760 0 0 10571 0 0 10442 0 0 10834 0 0 10606 0 0 10675 0 0 10525 0 0 10634 0 0 5240 0 0 96 0 0 22 0 0 13 0 0 13 0 0 10 0 0 10 0 0 6 0 0 7 0 0 2 0 0 
0 0 0 5 0 0 4 0 0 8 0 0 11 0 0 12 0 0 12 0 0 7 0 0 13 0 0 97 0 0 5411 0 0 10696 0 0 10704 0 0 10662 0 0 10865 0 0 10772 0 0 10458 0 0 10777 0 0 10731 0 0 10730 0 0 10733 0 0 10610 0 0 10762 0 0 10699 0 0 10745 0 0 10808 0 0 10609 0 0 10719 0 0 10715 0 0 10724 0 0 10766 0 0 10764 0 0 10735 0 0 10740 0 0 10808 0 0 10670 0 0 10674 0 0 10811 0 0 10664 0 0 10743 0 0 10625 0 0 10617 0 0 10884 0 0 10820 0 0 10695 0 0 10844 0 0 10783 0 0 10630 0 0 10679 0 0 10515 0 0 5287 0 0 80 0 0 22 0 0 19 0 0 15 0 0 15 0 0 8 0 0 6 0 0 6 0 0 9 0 0 
2 0 0 1 0 0 6 0 0 4 0 0 5 0 0 9 0 0 13 0 0 16 0 0 20 0 0 75 0 0 5418 0 0 10624 0 0 10815 0 0 10572 0 0 10743 0 0 10720 0 0 10811 0 0 10829 0 0 10797 0 0 10793 0 0 10700 0 0 10880 0 0 10653 0 0 10737 0 0 10759 0 0 10740 0 0 10698 0 0 10711 0 0 10775 0 0 10760 0 0 10895 0 0 10663 0 0 10641 0 0 10720 0 0 10671 0 0 10610 0 0 10739 0 0 10650 0 0 10750 0 0 10825 0 0 10728 0 0 10822 0 0 10701 0 0 10703 0 0 10765 0 0 10601 0 0 10724 0 0 10638 0 0 10795 0 0 10650 0 0 5323 0 0 77 0 0 19 0 0 11 0 0 12 0 0 10 0 0 7 0 0 10 0 0 11 0 0 6 0 0 
3 0 0 8 0 0 3 0 0 5 0 0 4 0 0 7 0 0 8 0 0 15 0 0 18 0 0 80 0 0 5384 0 0 10760 0 0 10643 0 0 10932 0 0 10820 0 0 10771 0 0 10787 0 0 10822 0 0 10661 0 0 10751 0 0 10661 0 0 10791 0 0 10559 0 0 10591 0 0 10800 0 0 10596 0 0 10759 0 0 10746 0 0 10820 0 0 10744 0 0 10730 0 0 10642 0 0 10700 0 0 10664 0 0 10689 0 0 10747 0 0 10574 0 0 10572 0 0 10764 0 0 10713 0 0 10682 0 0 10857 0 0 10737 0 0 10725 0 0 10843 0 0 10677 0 0 10819 0 0 10804 0 0 10710 0 0 10680 0 0 5455 0 0 79 0 0 18 0 0 17 0 0 16 0 0 11 0 0 5 0 0 6 0 0 6 0 0 6 0 0 
4 0 0 6 0 0 13 0 0 9 0 0 14 0 0 11 0 0 5 0 0 14 0 0 20 0 0 84 0 0 5414 0 0 10817 0 0 10756 0 0 10831 0 0 10725 0 0 10565 0 0 10657 0 0 10718 0 0 10744 0 0 10796 0 0 10595 0 0 10846 0 0 10640 0 0 10884 0 0 10757 0 0 10856 0 0 10801 0 0 10786 0 0 10675 0 0 10578 0 0 10734 0 0 10586 0 0 10579 0 0 10647 0 0 10679 0 0 10810 0 0 10718 0 0 10698 0 0 10700 0 0 10742 0 0 10686 0 0 10663 0 0 10828 0 0 10680 0 0 10604 0 0 10713 0 0 10638 0 0 10736 0 0 10666 0 0 10739 0 0 5382 0 0 94 0 0 21 0 0 18 0 0 21 0 0 9 0 0 11 0 0 5 0 0 5 0 0 5 0 0 
2 0 0 9 0 0 5 0 0 6 0 0 7 0 0 4 0 0 7 0 0 14 0 0 24 0 0 84 0 0 5399 0 0 10703 0 0 10690 0 0 10728 0 0 10778 0 0 10755 0 0 10647 0 0 10749 0 0 10818 0 0 10735 0 0 10616 0 0 10674 0 0 10873 0 0 10586 0 0 10742 0 0 10782 0 0 10685 0 0 10806 0 0 10657 0 0 10718 0 0 10413 0 0 10646 0 0 10818 0 0 10624 0 0 10618 0 0 10658 0 0 10663 0 0 10731 0 0 10668 0 0 10667 0 0 10699 0 0 10753 0 0 10659 0 0 10657 0 0 10665 0 0 10581 0 0 10629 0 0 10786 0 0 10688 0 0 10742 0 0 5321 0 0 91 0 0 12 0 0 13 0 0 13 0 0 10 0 0 5 0 0 7 0 0 7 0 0 8 0 0 
2 0 0 4 0 0 8 0 0 8 0 0 11 0 0 7 0 0 12 0 0 13 0 0 14 0 0 72 0 0 5352 0 0 10669 0 0 10607 0 0 10813 0 0 10730 0 0 10862 0 0 10657 0 0 10670 0 0 10664 0 0 10482 0 0 10836 0 0 10651 0 0 10823 0 0 10834 0 0 10764 0 0 10752 0 0 10725 0 0 10717 0 0 10763 0 0 10819 0 0 10731 0 0 10948 0 0 10631 0 0 10852 0 0 10754 0 0 10719 0 0 10623 0 0 10675 0 0 10816 0 0 10575 0 0 10796 0 0 10793 0 0 10701 0 0 10618 0 0 10709 0 0 10648 0 0 10733 0 0 10679 0 0 10612 0 0 10687 0 0 5377 0 0 88 0 0 22 0 0 17 0 0 13 0 0 15 0 0 12 0 0 10 0 0 7 0 0 6 0 0 
3 0 0 8 0 0 13 0 0 10 0 0 11 0 0 11 0 0 12 0 0 16 0 0 15 0 0 95 0 0 5398 0 0 10678 0 0 10764 0 0 10797 0 0 10751 0 0 10671 0 0 10786 0 0 10639 0 0 10791 0 0 10756 0 0 10824 0 0 10666 0 0 10606 0 0 10858 0 0 10634 0 0 10881 0 0 10735 0 0 10828 0 0 10618 0 0 10708 0 0 10759 0 0 10639 0 0 10640 0 0 10812 0 0 10733 0 0 10633 0 0 10846 0 0 10660 0 0 10882 0 0 10664 0 0 10672 0 0 10822 0 0 10813 0 0 10675 0 0 10687 0 0 10862 0 0 10646 0 0 10569 0 0 10678 0 0 10706 0 0 5459 0 0 80 0 0 18 0 0 10 0 0 11 0 0 9 0 0 8 0 0 6 0 0 11 0 0 5 0 0 
4 0 0 7 0 0 5 0 0 8 0 0 7 0 0 11 0 0 10 0 0 16 0 0 17 0 0 89 0 0 5359 0 0 10438 0 0 10709 0 0 10787 0 0 10768 0 0 10573 0 0 10835 0 0 10741 0 0 10650 0 0 10666 0 0 10727 0 0 10550 0 0 10769 0 0 10700 0 0 10680 0 0 10832 0 0 10778 0 0 10759 0 0 10760 0 0 10748 0 0 10828 0 0 10767 0 0 10646 0 0 10550 0 0 10649 0 0 10654 0 0 10820 0 0 10700 0 0 10783 0 0 10749 0 0 10631 0 0 10743 0 0 10663 0 0 10813 0 0 10911 0 0 10554 0 0 10826 0 0 10839 0 0 10775 0 0 10790 0 0 5400 0 0 75 0 0 19 0 0 15 0 0 7 0 0 9 0 0 9 0 0 8 0 0 6 0 0 5 0 0 
2 0 0 4 0 0 7 0 0 6 0 0 8 0 0 8 0 0 12 0 0 18 0 0 27 0 0 90 0 0 5415 0 0 10806 0 0 10603 0 0 10863 0 0 10831 0 0 10664 0 0 10621 0 0 10705 0 0 10734 0 0 10692 0 0 10790 0 0 10627 0 0 10673 0 0 10881 0 0 10808 0 0 10782 0 0 10682 0 0 10715 0 0 10727 0 0 10664 0 0 10807 0 0 10747 0 0 10644 0 0 10618 0 0 10807 0 0 10624 0 0 10606 0 0 10744 0 0 10697 0 0 10913 0 0 10738 0 0 10705 0 0 10748 0 0 10695 0 0 10650 0 0 10745 0 0 10670 0 0 10769 0 0 10647 0 0 10532 0 0 5492 0 0 83 0 0 17 0 0 13 0 0 12 0 0 12 0 0 10 0 0 8 0 0 8 0 0 9 0 0 
0 0 0 2 0 0 2 0 0 6 0 0 12 0 0 18 0 0 19 0 0 16 0 0 24 0 0 98 0 0 5418 0 0 10672 0 0 10637 0 0 10716 0 0 10608 0 0 10754 0 0 10720 0 0 10700 0 0 10681 0 0 10558 0 0 10871 0 0 10543 0 0 10748 0 0 10631 0 0 10779 0 0 10689 0 0 10638 0 0 10683 0 0 10662 0 0 10587 0 0 10722 0 0 10684 0 0 10779 0 0 10793 0 0 10553 0 0 10620 0 0 10666 0 0 10768 0 0 10716 0 0 10963 0 0 10863 0 0 10561 0 0 10663 0 0 10640 0 0 10642 0 0 10624 0 0 10816 0 0 10751 0 0 10568 0 0 10712 0 0 5232 0 0 76 0 0 18 0 0 18 0 0 12 0 0 11 0 0 12 0 0 10 0 0 6 0 0 5 0 0 
2 0 0 3 0 0 6 0 0 6 0 0 11 0 0 12 0 0 15 0 0 16 0 0 19 0 0 84 0 0 5328 0 0 10578 0 0 10639 0 0 10867 0 0 10639 0 0 10616 0 0 10728 0 0 10777 0 0 10668 0 0 10813 0 0 10801 0 0 10792 0 0 10573 0 0 10614 0 0 10734 0 0 10767 0 0 10700 0 0 10648 0 0 10605 0 0 10687 0 0 10810 0 0 10732 0 0 10818 0 0 10509 0 0 10824 0 0 10685 0 0 10624 0 0 10625 0 0 10597 0 0 10736 0 0 10660 0 0 10829 0 0 10488 0 0 10783 0 0 10821 0 0 10699 0 0 10660 0 0 10510 0 0 10525 0 0 10651 0 0 5338 0 0 84 0 0 17 0 0 17 0 0 11 0 0 12 0 0 8 0 0 7 0 0 11 0 0 5 0 0 
1 0 0 3 0 0 7 0 0 8 0 0 12 0 0 9 0 0 12 0 0 12 0 0 17 0 0 75 0 0 5461 0 0 10558 0 0 10751 0 0 10917 0 0 10628 0 0 10686 0 0 10640 0 0 10711 0 0 10725 0 0 10751 0 0 10807 0 0 10869 0 0 10826 0 0 10673 0 0 10663 0 0 10643 0 0 10681 0 0 10669 0 0 10756 0 0 10763 0 0 10703 0 0 10608 0 0 10893 0 0 10617 0 0 10747 0 0 10767 0 0 10642 0 0 10614 0 0 10661 0 0 10900 0 0 10757 0 0 10709 0 0 10778 0 0 10727 0 0 10834 0 0 10758 0 0 10751 0 0 10453 0 0 10705 0 0 10680 0 0 5463 0 0 97 0 0 24 0 0 18 0 0 13 0 0 12 0 0 9 0 0 8 0 0 3 0 0 3 0 0 
5 0 0 7 0 0 9 0 0 7 0 0 7 0 0 7 0 0 11 0 0 16 0 0 21 0 0 76 0 0 5370 0 0 10502 0 0 10694 0 0 10726 0 0 10833 0 0 10779 0 0 10765 0 0 10804 0 0 10728 0 0 10688 0 0 10624 0 0 10539 0 0 10696 0 0 10686 0 0 10751 0 0 10767 0 0 10751 0 0 10755 0 0 10718 0 0 10678 0 0 10855 0 0 10689 0 0 10688 0 0 10738 0 0 10641 0 0 10725 0 0 10678 0 0 10716 0 0 10741 0 0 10714 0 0 10648 0 0 10591 0 0 10656 0 0 10739 0 0 10693 0 0 10782 0 0 10823 0 0 10837 0 0 10835 0 0 10522 0 0 5287 0 0 85 0 0 20 0 0 16 0 0 14 0 0 13 0 0 9 0 0 10 0 0 10 0 0 4 0 0 
3 0 0 5 0 0 9 0 0 10 0 0 9 0 0 7 0 0 11 0 0 17 0 0 22 0 0 78 0 0 5333 0 0 10598 0 0 10828 0 0 10714 0 0 10761 0 0 10641 0 0 10612 0 0 10591 0 0 10663 0 0 10746 0 0 10764 0 0 10672 0 0 10709 0 0 10796 0 0 10582 0 0 10618 0 0 10499 0 0 10730 0 0 10874 0 0 10692 0 0 10730 0 0 10678 0 0 10824 0 0 10534 0 0 10681 0 0 10575 0 0 10724 0 0 10624 0 0 10796 0 0 10674 0 0 10719 0 0 10676 0 0 10684 0 0 10754 0 0 10707 0 0 10789 0 0 10721 0 0 10717 0 0 10624 0 0 10698 0 0 5429 0 0 77 0 0 18 0 0 19 0 0 17 0 0 15 0 0 14 0 0 6 0 0 9 0 0 8 0 0 
1 0 0 2 0 0 12 0 0 6 0 0 5 0 0 8 0 0 9 0 0 20 0 0 20 0 0 97 0 0 5439 0 0 10619 0 0 10666 0 0 10616 0 0 10679 0 0 10774 0 0 10657 0 0 10841 0 0 10610 0 0 10686 0 0 10764 0 0 10608 0 0 10691 0 0 10761 0 0 10749 0 0 10691 0 0 10551 0 0 10643 0 0 10750 0 0 10530 0 0 10530 0 0 10716 0 0 10842 0 0 10918 0 0 10660 0 0 10774 0 0 10603 0 0 10684 0 0 10682 0 0 10752 0 0 10708 0 0 10545 0 0 10620 0 0 10809 0 0 10737 0 0 10692 0 0 10682 0 0 10687 0 0 10703 0 0 10636 0 0 5277 0 0 69 0 0 16 0 0 14 0 0 12 0 0 6 0 0 8 0 0 8 0 0 6 0 0 5 0 0 
1 0 0 6 0 0 8 0 0 2 0 0 4 0 0 6 0 0 12 0 0 12 0 0 14 0 0 90 0 0 5313 0 0 10775 0 0 10712 0 0 10629 0 0 10551 0 0 10773 0 0 10950 0 0 10891 0 0 10645 0 0 10590 0 0 10763 0 0 10955 0 0 10791 0 0 10687 0 0 10699 0 0 10634 0 0 10853 0 0 10745 0 0 10784 0 0 10814 0 0 10677 0 0 10790 0 0 10833 0 0 10735 0 0 10691 0 0 10602 0 0 10709 0 0 10759 0 0 10705 0 0 10656 0 0 10765 0 0 10737 0 0 10642 0 0 10650 0 0 10679 0 0 10724 0 0 10764 0 0 10702 0 0 10640 0 0 10548 0 0 5401 0 0 83 0 0 10 0 0 13 0 0 10 0 0 6 0 0 5 0 0 11 0 0 6 0 0 3 0 0 
3 0 0 3 0 0 8 0 0 8 0 0 9 0 0 9 0 0 8 0 0 9 0 0 17 0 0 90 0 0 5344 0 0 10604 0 0 10667 0 0 10566 0 0 10765 0 0 10626 0 0 10686 0 0 10734 0 0 10804 0 0 10744 0 0 10724 0 0 10682 0 0 10687 0 0 10575 0 0 10850 0 0 10729 0 0 10814 0 0 10716 0 0 10532 0 0 10810 0 0 10670 0 0 10657 0 0 10790 0 0 10707 0 0 10842 0 0 10778 0 0 10611 0 0 10705 0 0 10657 0 0 10739 0 0 10663 0 0 10768 0 0 10722 0 0 10622 0 0 10777 0 0 10580 0 0 10777 0 0 10786 0 0 10787 0 0 10546 0 0 5331 0 0 82 0 0 17 0 0 14 0 0 7 0 0 6 0 0 5 0 0 8 0 0 8 0 0 4 0 0 
1 0 0 4 0 0 7 0 0 8 0 0 9 0 0 9 0 0 11 0 0 16 0 0 23 0 0 85 0 0 5347 0 0 10751 0 0 10609 0 0 10776 0 0 10806 0 0 10749 0 0 10636 0 0 10685 0 0 10830 0 0 10835 0 0 10635 0 0 10715 0 0 10737 0 0 10766 0 0 10845 0 0 10739 0 0 10772 0 0 10686 0 0 10621 0 0 10692 0 0 10714 0 0 10734 0 0 10767 0 0 10799 0 0 10710 0 0 10701 0 0 10800 0 0 10637 0 0 10669 0 0 10625 0 0 10684 0 0 10722 0 0 10666 0 0 10831 0 0 10696 0 0 10577 0 0 10703 0 0 10708 0 0 10643 0 0 10634 0 0 5399 0 0 85 0 0 13 0 0 12 0 0 11 0 0 11 0 0 9 0 0 10 0 0 10 0 0 11 0 0 
0 0 0 5 0 0 5 0 0 8 0 0 7 0 0 6 0 0 5 0 0 7 0 0 10 0 0 87 0 0 5242 0 0 10612 0 0 10566 0 0 10602 0 0 10778 0 0 10738 0 0 10796 0 0 10796 0 0 10723 0 0 10780 0 0 10565 0 0 10607 0 0 10755 0 0 10801 0 0 10687 0 0 10835 0 0 10752 0 0 10586 0 0 10569 0 0 10667 0 0 10729 0 0 10834 0 0 10757 0 0 10667 0 0 10854 0 0 10716 0 0 10778 0 0 10699 0 0 10633 0 0 10738 0 0 10695 0 0 10697 0 0 10578 0 0 10676 0 0 10620 0 0 10819 0 0 10677 0 0 10731 0 0 10735 0 0 10759 0 0 5414 0 0 78 0 0 12 0 0 10 0 0 2 0 0 3 0 0 3 0 0 6 0 0 6 0 0 6 0 0 
2 0 0 4 0 0 7 0 0 4 0 0 7 0 0 7 0 0 7 0 0 10 0 0 12 0 0 73 0 0 5258 0 0 10579 0 0 10509 0 0 10771 0 0 10678 0 0 10553 0 0 10631 0 0 10675 0 0 10832 0 0 10890 0 0 10589 0 0 10637 0 0 10657 0 0 10771 0 0 10614 0 0 10660 0 0 10634 0 0 10684 0 0 10627 0 0 10695 0 0 10656 0 0 10515 0 0 10604 0 0 10731 0 0 10663 0 0 10529 0 0 10778 0 0 10694 0 0 10663 0 0 10701 0 0 10485 0 0 10673 0 0 10847 0 0 10759 0 0 10735 0 0 10609 0 0 10485 0 0 10811 0 0 10689 0 0 10631 0 0 5402 0 0 79 0 0 15 0 0 11 0 0 12 0 0 10 0 0 10 0 0 9 0 0 9 0 0 6 0 0 
1 0 0 3 0 0 2 0 0 10 0 0 11 0 0 4 0 0 12 0 0 11 0 0 14 0 0 87 0 0 5334 0 0 10572 0 0 10593 0 0 10575 0 0 10571 0 0 10476 0 0 10676 0 0 10544 0 0 10505 0 0 10613 0 0 10605 0 0 10621 0 0 10520 0 0 10721 0 0 10520 0 0 10461 0 0 10633 0 0 10568 0 0 10686 0 0 10683 0 0 10661 0 0 10548 0 0 10401 0 0 10696 0 0 10666 0 0 10717 0 0 10516 0 0 10774 0 0 10566 0 0 10635 0 0 10521 0 0 10590 0 0 10537 0 0 10459 0 0 10579 0 0 10542 0 0 10598 0 0 10625 0 0 10717 0 0 10620 0 0 5244 0 0 97 0 0 17 0 0 13 0 0 11 0 0 8 0 0 4 0 0 3 0 0 7 0 0 9 0 0 
3 0 0 4 0 0 7 0 0 7 0 0 8 0 0 5 0 0 7 0 0 13 0 0 7 0 0 44 0 0 2644 0 0 5266 0 0 5437 0 0 5475 0 0 5363 0 0 5256 0 0 5492 0 0 5394 0 0 5331 0 0 5266 0 0 5469 0 0 5334 0 0 5398 0 0 5249 0 0 5450 0 0 5493 0 0 5359 0 0 5263 0 0 5237 0 0 5404 0 0 5405 0 0 5334 0 0 5346 0 0 5489 0 0 5433 0 0 5342 0 0 5355 0 0 5271 0 0 5461 0 0 5462 0 0 5391 0 0 5380 0 0 5427 0 0 5311 0 0 5371 0 0 5340 0 0 5224 0 0 5399 0 0 5392 0 0 5274 0 0 2717 0 0 44 0 0 17 0 0 11 0 0 5 0 0 5 0 0 5 0 0 5 0 0 6 0 0 6 0 0 
1 0 0 2 0 0 2 0 0 5 0 0 4 0 0 4 0 0 5 0 0 10 0 0 7 0 0 10 0 0 34 0 0 67 0 0 75 0 0 86 0 0 77 0 0 89 0 0 92 0 0 95 0 0 87 0 0 81 0 0 80 0 0 88 0 0 84 0 0 92 0 0 90 0 0 84 0 0 83 0 0 79 0 0 69 0 0 84 0 0 80 0 0 79 0 0 74 0 0 84 0 0 79 0 0 87 0 0 97 0 0 86 0 0 79 0 0 94 0 0 96 0 0 90 0 0 83 0 0 86 0 0 95 0 0 88 0 0 87 0 0 71 0 0 74 0 0 76 0 0 44 0 0 12 0 0 14 0 0 9 0 0 7 0 0 11 0 0 8 0 0 5 0 0 5 0 0 4 0 0 
1 0 0 4 0 0 0 0 0 1 0 0 7 0 0 9 0 0 8 0 0 11 0 0 8 0 0 14 0 0 13 0 0 9 0 0 16 0 0 12 0 0 24 0 0 15 0 0 16 0 0 17 0 0 21 0 0 24 0 0 17 0 0 20 0 0 21 0 0 19 0 0 20 0 0 24 0 0 15 0 0 20 0 0 16 0 0 20 0 0 22 0 0 12 0 0 21 0 0 14 0 0 18 0 0 18 0 0 27 0 0 25 0 0 24 0 0 16 0 0 12 0 0 17 0 0 16 0 0 19 0 0 13 0 0 14 0 0 18 0 0 19 0 0 13 0 0 10 0 0 11 0 0 10 0 0 6 0 0 8 0 0 4 0 0 2 0 0 5 0 0 10 0 0 3 0 0 4 0 0 
0 0 0 7 0 0 4 0 0 6 0 0 8 0 0 5 0 0 5 0 0 11 0 0 7 0 0 9 0 0 10 0 0 8 0 0 11 0 0 9 0 0 10 0 0 18 0 0 15 0 0 12 0 0 20 0 0 20 0 0 18 0 0 15 0 0 23 0 0 21 0 0 15 0 0 25 0 0 15 0 0 12 0 0 7 0 0 20 0 0 10 0 0 13 0 0 12 0 0 12 0 0 12 0 0 12 0 0 19 0 0 20 0 0 18 0 0 11 0 0 14 0 0 13 0 0 9 0 0 22 0 0 8 0 0 10 0 0 11 0 0 12 0 0 11 0 0 12 0 0 8 0 0 10 0 0 7 0 0 8 0 0 4 0 0 5 0 0 4 0 0 8 0 0 8 0 0 6 0 0 
3 0 0 6 0 0 2 0 0 6 0 0 6 0 0 4 0 0 9 0 0 6 0 0 5 0 0 6 0 0 3 0 0 8 0 0 5 0 0 6 0 0 12 0 0 18 0 0 6 0 0 13 0 0 14 0 0 14 0 0 12 0 0 15 0 0 18 0 0 11 0 0 12 0 0 17 0 0 8 0 0 12 0 0 13 0 0 12 0 0 12 0 0 15 0 0 12 0 0 12 0 0 11 0 0 11 0 0 15 0 0 11 0 0 15 0 0 14 0 0 11 0 0 7 0 0 15 0 0 14 0 0 11 0 0 8 0 0 13 0 0 11 0 0 12 0 0 13 0 0 6 0 0 3 0 0 9 0 0 7 0 0 3 0 0 5 0 0 7 0 0 6 0 0 7 0 0 5 0 0 
3 0 0 2 0 0 5 0 0 4 0 0 4 0 0 8 0 0 9 0 0 4 0 0 6 0 0 1 0 0 4 0 0 3 0 0 8 0 0 10 0 0 13 0 0 10 0 0 5 0 0 11 0 0 15 0 0 8 0 0 6 0 0 14 0 0 15 0 0 11 0 0 12 0 0 13 0 0 11 0 0 8 0 0 9 0 0 8 0 0 9 0 0 9 0 0 8 0 0 9 0 0 12 0 0 8 0 0 4 0 0 12 0 0 10 0 0 9 0 0 10 0 0 9 0 0 12 0 0 14 0 0 7 0 0 11 0 0 11 0 0 6 0 0 10 0 0 11 0 0 10 0 0 5 0 0 7 0 0 2 0 0 4 0 0 5 0 0 5 0 0 3 0 0 7 0 0 7 0 0 
4 0 0 2 0 0 4 0 0 4 0 0 7 0 0 2 0 0 7 0 0 6 0 0 6 0 0 1 0 0 5 0 0 7 0 0 7 0 0 6 0 0 8 0 0 5 0 0 7 0 0 8 0 0 9 0 0 8 0 0 3 0 0 9 0 0 7 0 0 7 0 0 5 0 0 9 0 0 11 0 0 11 0 0 6 0 0 10 0 0 5 0 0 8 0 0 8 0 0 8 0 0 12 0 0 8 0 0 10 0 0 10 0 0 7 0 0 8 0 0 9 0 0 12 0 0 10 0 0 13 0 0 6 0 0 5 0 0 8 0 0 5 0 0 4 0 0 7 0 0 7 0 0 6 0 0 3 0 0 5 0 0 4 0 0 3 0 0 1 0 0 0 0 0 6 0 0 4 0 0 
1 0 0 3 0 0 5 0 0 3 0 0 1 0 0 11 0 0 6 0 0 4 0 0 6 0 0 7 0 0 4 0 0 6 0 0 5 0 0 5 0 0 5 0 0 7 0 0 4 0 0 9 0 0 3 0 0 9 0 0 5 0 0 7 0 0 7 0 0 4 0 0 1 0 0 7 0 0 5 0 0 11 0 0 11 0 0 4 0 0 4 0 0 8 0 0 6 0 0 5 0 0 13 0 0 9 0 0 10 0 0 9 0 0 4 0 0 6 0 0 6 0 0 5 0 0 7 0 0 6 0 0 6 0 0 6 0 0 10 0 0 3 0 0 5 0 0 7 0 0 6 0 0 9 0 0 3 0 0 0 0 0 3 0 0 2 0 0 2 0 0 0 0 0 3 0 0 3 0 0 
2 0 0 3 0 0 3 0 0 2 0 0 6 0 0 9 0 0 4 0 0 3 0 0 9 0 0 3 0 0 4 0 0 1 0 0 3 0 0 6 0 0 10 0 0 6 0 0 8 0 0 7 0 0 4 0 0 9 0 0 9 0 0 1 0 0 5 0 0 4 0 0 2 0 0 5 0 0 7 0 0 12 0 0 4 0 0 4 0 0 9 0 0 8 0 0 6 0 0 6 0 0 11 0 0 12 0 0 11 0 0 11 0 0 1 0 0 9 0 0 5 0 0 5 0 0 2 0 0 7 0 0 3 0 0 2 0 0 3 0 0 2 0 0 4 0 0 6 0 0 2 0 0 5 0 0 5 0 0 6 0 0 2 0 0 3 0 0 1 0 0 2 0 0 0 0 0 4 0 0 
0 0 0 4 0 0 4 0 0 4 0 0 8 0 0 5 0 0 4 0 0 3 0 0 6 0 0 2 0 0 1 0 0 3 0 0 5 0 0 8 0 0 8 0 0 4 0 0 5 0 0 2 0 0 7 0 0 8 0 0 7 0 0 1 0 0 5 0 0 4 0 0 4 0 0 6 0 0 7 0 0 12 0 0 7 0 0 9 0 0 3 0 0 3 0 0 5 0 0 7 0 0 9 0 0 10 0 0 9 0 0 8 0 0 4 0 0 5 0 0 2 0 0 5 0 0 4 0 0 5 0 0 2 0 0 5 0 0 5 0 0 4 0 0 3 0 0 2 0 0 3 0 0 3 0 0 3 0 0 4 0 0 3 0 0 0 0 0 1 0 0 5 0 0 1 0 0 1 0 0 
