P3
# This is a dose file slice at depth 16 of 100
60 60
# now we give the maximum value of the RGB coordinates.
32920
1 0 0 2 0 0 2 0 0 1 0 0 2 0 0 4 0 0 2 0 0 6 0 0 4 0 0 1 0 0 3 0 0 2 0 0 6 0 0 5 0 0 5 0 0 3 0 0 4 0 0 3 0 0 4 0 0 8 0 0 11 0 0 5 0 0 6 0 0 4 0 0 5 0 0 7 0 0 6 0 0 5 0 0 2 0 0 4 0 0 9 0 0 3 0 0 4 0 0 5 0 0 5 0 0 11 0 0 6 0 0 5 0 0 9 0 0 4 0 0 4 0 0 5 0 0 6 0 0 5 0 0 8 0 0 7 0 0 1 0 0 5 0 0 5 0 0 3 0 0 3 0 0 2 0 0 1 0 0 4 0 0 4 0 0 0 0 0 2 0 0 3 0 0 0 0 0 0 0 0 
1 0 0 3 0 0 5 0 0 8 0 0 5 0 0 8 0 0 7 0 0 9 0 0 10 0 0 7 0 0 7 0 0 15 0 0 11 0 0 13 0 0 17 0 0 15 0 0 12 0 0 4 0 0 12 0 0 18 0 0 20 0 0 15 0 0 14 0 0 7 0 0 10 0 0 17 0 0 20 0 0 10 0 0 10 0 0 7 0 0 17 0 0 9 0 0 9 0 0 15 0 0 19 0 0 13 0 0 15 0 0 12 0 0 21 0 0 6 0 0 8 0 0 9 0 0 15 0 0 16 0 0 9 0 0 13 0 0 6 0 0 12 0 0 6 0 0 11 0 0 4 0 0 2 0 0 9 0 0 9 0 0 5 0 0 4 0 0 9 0 0 6 0 0 4 0 0 3 0 0 
2 0 0 9 0 0 3 0 0 7 0 0 9 0 0 7 0 0 7 0 0 11 0 0 19 0 0 11 0 0 7 0 0 10 0 0 14 0 0 10 0 0 13 0 0 19 0 0 16 0 0 9 0 0 9 0 0 20 0 0 15 0 0 21 0 0 21 0 0 11 0 0 13 0 0 16 0 0 19 0 0 11 0 0 12 0 0 15 0 0 9 0 0 12 0 0 14 0 0 14 0 0 17 0 0 18 0 0 20 0 0 17 0 0 13 0 0 12 0 0 13 0 0 13 0 0 19 0 0 14 0 0 16 0 0 10 0 0 15 0 0 14 0 0 10 0 0 7 0 0 6 0 0 10 0 0 10 0 0 11 0 0 7 0 0 6 0 0 5 0 0 3 0 0 4 0 0 12 0 0 
3 0 0 5 0 0 8 0 0 12 0 0 9 0 0 12 0 0 7 0 0 9 0 0 9 0 0 8 0 0 13 0 0 11 0 0 15 0 0 13 0 0 19 0 0 9 0 0 15 0 0 14 0 0 16 0 0 13 0 0 22 0 0 15 0 0 23 0 0 12 0 0 10 0 0 15 0 0 14 0 0 12 0 0 12 0 0 21 0 0 7 0 0 14 0 0 17 0 0 21 0 0 17 0 0 14 0 0 22 0 0 20 0 0 14 0 0 14 0 0 14 0 0 19 0 0 18 0 0 15 0 0 16 0 0 15 0 0 22 0 0 12 0 0 7 0 0 10 0 0 12 0 0 11 0 0 11 0 0 10 0 0 4 0 0 7 0 0 8 0 0 8 0 0 8 0 0 9 0 0 
8 0 0 9 0 0 5 0 0 9 0 0 8 0 0 13 0 0 14 0 0 8 0 0 5 0 0 12 0 0 9 0 0 14 0 0 13 0 0 20 0 0 14 0 0 11 0 0 16 0 0 12 0 0 15 0 0 13 0 0 21 0 0 32 0 0 23 0 0 15 0 0 13 0 0 11 0 0 23 0 0 15 0 0 17 0 0 18 0 0 16 0 0 13 0 0 19 0 0 31 0 0 16 0 0 15 0 0 24 0 0 13 0 0 12 0 0 19 0 0 14 0 0 18 0 0 26 0 0 16 0 0 13 0 0 12 0 0 8 0 0 16 0 0 12 0 0 13 0 0 12 0 0 11 0 0 12 0 0 10 0 0 10 0 0 6 0 0 10 0 0 6 0 0 13 0 0 6 0 0 
2 0 0 12 0 0 11 0 0 10 0 0 8 0 0 9 0 0 9 0 0 9 0 0 9 0 0 11 0 0 12 0 0 17 0 0 12 0 0 19 0 0 17 0 0 19 0 0 17 0 0 11 0 0 17 0 0 18 0 0 22 0 0 22 0 0 26 0 0 25 0 0 23 0 0 16 0 0 26 0 0 23 0 0 26 0 0 21 0 0 23 0 0 18 0 0 24 0 0 24 0 0 18 0 0 22 0 0 23 0 0 12 0 0 22 0 0 21 0 0 21 0 0 21 0 0 23 0 0 23 0 0 12 0 0 14 0 0 15 0 0 18 0 0 22 0 0 18 0 0 14 0 0 12 0 0 13 0 0 9 0 0 10 0 0 9 0 0 9 0 0 13 0 0 12 0 0 10 0 0 
5 0 0 8 0 0 9 0 0 15 0 0 12 0 0 9 0 0 11 0 0 6 0 0 13 0 0 17 0 0 12 0 0 20 0 0 20 0 0 12 0 0 22 0 0 13 0 0 25 0 0 13 0 0 16 0 0 22 0 0 23 0 0 24 0 0 24 0 0 29 0 0 29 0 0 29 0 0 31 0 0 20 0 0 23 0 0 25 0 0 24 0 0 27 0 0 26 0 0 19 0 0 25 0 0 22 0 0 27 0 0 22 0 0 24 0 0 26 0 0 19 0 0 22 0 0 18 0 0 18 0 0 19 0 0 21 0 0 25 0 0 17 0 0 19 0 0 18 0 0 16 0 0 16 0 0 9 0 0 18 0 0 14 0 0 17 0 0 15 0 0 9 0 0 9 0 0 5 0 0 
6 0 0 13 0 0 12 0 0 11 0 0 11 0 0 16 0 0 16 0 0 18 0 0 12 0 0 15 0 0 20 0 0 20 0 0 28 0 0 23 0 0 21 0 0 20 0 0 24 0 0 27 0 0 27 0 0 33 0 0 35 0 0 35 0 0 35 0 0 23 0 0 27 0 0 35 0 0 39 0 0 23 0 0 27 0 0 24 0 0 28 0 0 26 0 0 33 0 0 35 0 0 24 0 0 35 0 0 30 0 0 30 0 0 38 0 0 33 0 0 28 0 0 28 0 0 20 0 0 33 0 0 31 0 0 21 0 0 29 0 0 24 0 0 27 0 0 23 0 0 16 0 0 16 0 0 20 0 0 20 0 0 16 0 0 9 0 0 6 0 0 10 0 0 5 0 0 4 0 0 
1 0 0 8 0 0 9 0 0 16 0 0 11 0 0 8 0 0 17 0 0 19 0 0 15 0 0 16 0 0 21 0 0 28 0 0 38 0 0 24 0 0 39 0 0 32 0 0 29 0 0 36 0 0 29 0 0 34 0 0 39 0 0 43 0 0 42 0 0 36 0 0 36 0 0 44 0 0 47 0 0 40 0 0 44 0 0 40 0 0 54 0 0 31 0 0 37 0 0 49 0 0 43 0 0 47 0 0 38 0 0 37 0 0 49 0 0 40 0 0 51 0 0 45 0 0 31 0 0 40 0 0 34 0 0 42 0 0 33 0 0 33 0 0 43 0 0 28 0 0 19 0 0 16 0 0 24 0 0 18 0 0 15 0 0 9 0 0 5 0 0 6 0 0 9 0 0 7 0 0 
4 0 0 5 0 0 4 0 0 11 0 0 12 0 0 12 0 0 14 0 0 18 0 0 22 0 0 24 0 0 81 0 0 156 0 0 132 0 0 183 0 0 142 0 0 154 0 0 154 0 0 175 0 0 163 0 0 160 0 0 165 0 0 146 0 0 164 0 0 151 0 0 154 0 0 155 0 0 164 0 0 151 0 0 179 0 0 162 0 0 175 0 0 160 0 0 169 0 0 162 0 0 166 0 0 159 0 0 172 0 0 150 0 0 157 0 0 154 0 0 161 0 0 142 0 0 168 0 0 175 0 0 163 0 0 147 0 0 160 0 0 151 0 0 159 0 0 137 0 0 82 0 0 25 0 0 24 0 0 24 0 0 12 0 0 7 0 0 9 0 0 8 0 0 8 0 0 6 0 0 
4 0 0 7 0 0 8 0 0 13 0 0 17 0 0 11 0 0 10 0 0 20 0 0 24 0 0 68 0 0 5785 0 0 11399 0 0 11526 0 0 11568 0 0 11579 0 0 11644 0 0 11703 0 0 11420 0 0 11576 0 0 11713 0 0 11385 0 0 11693 0 0 11615 0 0 11712 0 0 11617 0 0 11476 0 0 11766 0 0 11588 0 0 11693 0 0 11437 0 0 11635 0 0 11528 0 0 11574 0 0 11597 0 0 11480 0 0 11640 0 0 11629 0 0 11560 0 0 11549 0 0 11591 0 0 11520 0 0 11751 0 0 11735 0 0 11625 0 0 11613 0 0 11660 0 0 11480 0 0 11610 0 0 11632 0 0 11594 0 0 5751 0 0 90 0 0 21 0 0 18 0 0 12 0 0 12 0 0 16 0 0 9 0 0 15 0 0 14 0 0 
6 0 0 9 0 0 6 0 0 7 0 0 14 0 0 14 0 0 12 0 0 22 0 0 28 0 0 142 0 0 11619 0 0 22784 0 0 23036 0 0 22993 0 0 23017 0 0 23048 0 0 22839 0 0 23156 0 0 22927 0 0 23154 0 0 23330 0 0 23072 0 0 23102 0 0 22892 0 0 23167 0 0 22714 0 0 23050 0 0 22732 0 0 22991 0 0 22809 0 0 22838 0 0 22899 0 0 22973 0 0 22914 0 0 23052 0 0 23009 0 0 22730 0 0 23223 0 0 23025 0 0 23068 0 0 23237 0 0 22882 0 0 22862 0 0 23160 0 0 23272 0 0 22991 0 0 23069 0 0 23036 0 0 23115 0 0 22881 0 0 11245 0 0 136 0 0 24 0 0 17 0 0 20 0 0 20 0 0 13 0 0 16 0 0 8 0 0 7 0 0 
5 0 0 13 0 0 14 0 0 9 0 0 12 0 0 13 0 0 18 0 0 23 0 0 29 0 0 152 0 0 11399 0 0 22960 0 0 23087 0 0 22891 0 0 23275 0 0 23394 0 0 23059 0 0 22917 0 0 22982 0 0 23126 0 0 23118 0 0 23224 0 0 23120 0 0 23343 0 0 23412 0 0 23323 0 0 23004 0 0 23118 0 0 23039 0 0 23206 0 0 23183 0 0 23224 0 0 23137 0 0 23331 0 0 22942 0 0 23048 0 0 23357 0 0 23027 0 0 23132 0 0 23113 0 0 23324 0 0 23093 0 0 23147 0 0 23237 0 0 22830 0 0 23063 0 0 23153 0 0 23213 0 0 23249 0 0 22870 0 0 11592 0 0 160 0 0 27 0 0 23 0 0 17 0 0 15 0 0 12 0 0 11 0 0 10 0 0 11 0 0 
3 0 0 10 0 0 12 0 0 18 0 0 13 0 0 18 0 0 23 0 0 31 0 0 33 0 0 135 0 0 11484 0 0 22859 0 0 23111 0 0 23068 0 0 23228 0 0 22965 0 0 22991 0 0 23351 0 0 23220 0 0 23209 0 0 23146 0 0 23132 0 0 22890 0 0 23225 0 0 23090 0 0 23193 0 0 23181 0 0 23071 0 0 23055 0 0 23217 0 0 22961 0 0 23211 0 0 23226 0 0 22991 0 0 23024 0 0 23177 0 0 22840 0 0 22976 0 0 23405 0 0 23045 0 0 23256 0 0 23340 0 0 23250 0 0 22961 0 0 23008 0 0 23111 0 0 23253 0 0 23059 0 0 22970 0 0 23187 0 0 11542 0 0 140 0 0 34 0 0 19 0 0 11 0 0 9 0 0 14 0 0 10 0 0 12 0 0 9 0 0 
4 0 0 7 0 0 6 0 0 11 0 0 14 0 0 22 0 0 22 0 0 19 0 0 34 0 0 159 0 0 11535 0 0 23044 0 0 23301 0 0 23018 0 0 23144 0 0 23449 0 0 23212 0 0 22924 0 0 23093 0 0 22963 0 0 23008 0 0 23174 0 0 23216 0 0 22931 0 0 23136 0 0 23219 0 0 23237 0 0 23053 0 0 23272 0 0 22949 0 0 23288 0 0 22865 0 0 23026 0 0 23037 0 0 23144 0 0 23457 0 0 23038 0 0 23160 0 0 23061 0 0 23087 0 0 23087 0 0 23289 0 0 23004 0 0 23269 0 0 23238 0 0 23268 0 0 23062 0 0 23324 0 0 23163 0 0 22998 0 0 11528 0 0 157 0 0 31 0 0 22 0 0 20 0 0 19 0 0 11 0 0 15 0 0 10 0 0 12 0 0 
5 0 0 10 0 0 10 0 0 10 0 0 12 0 0 16 0 0 21 0 0 26 0 0 39 0 0 164 0 0 11465 0 0 22929 0 0 23004 0 0 23141 0 0 23447 0 0 23091 0 0 23088 0 0 22999 0 0 23009 0 0 22992 0 0 23165 0 0 23274 0 0 23023 0 0 23372 0 0 23110 0 0 23210 0 0 23010 0 0 22955 0 0 23221 0 0 23156 0 0 23392 0 0 23146 0 0 23251 0 0 23180 0 0 23138 0 0 23017 0 0 23076 0 0 23052 0 0 22931 0 0 23066 0 0 23223 0 0 23076 0 0 23351 0 0 23227 0 0 23077 0 0 23269 0 0 23202 0 0 23008 0 0 23231 0 0 23088 0 0 11661 0 0 149 0 0 39 0 0 24 0 0 20 0 0 15 0 0 14 0 0 10 0 0 11 0 0 19 0 0 
5 0 0 14 0 0 14 0 0 9 0 0 17 0 0 14 0 0 24 0 0 28 0 0 37 0 0 147 0 0 11469 0 0 22956 0 0 23417 0 0 23120 0 0 23213 0 0 23439 0 0 23054 0 0 23120 0 0 23286 0 0 23167 0 0 23048 0 0 23168 0 0 22999 0 0 23203 0 0 23124 0 0 23074 0 0 23020 0 0 23163 0 0 23246 0 0 23156 0 0 22961 0 0 23080 0 0 23040 0 0 23097 0 0 23151 0 0 23132 0 0 23432 0 0 23077 0 0 23281 0 0 23080 0 0 22900 0 0 23272 0 0 23183 0 0 23143 0 0 22990 0 0 23136 0 0 22995 0 0 23282 0 0 23141 0 0 22912 0 0 11658 0 0 160 0 0 43 0 0 28 0 0 21 0 0 18 0 0 17 0 0 19 0 0 19 0 0 12 0 0 
7 0 0 11 0 0 13 0 0 17 0 0 25 0 0 27 0 0 23 0 0 31 0 0 41 0 0 159 0 0 11569 0 0 22828 0 0 23111 0 0 22776 0 0 23179 0 0 23171 0 0 22887 0 0 23270 0 0 23087 0 0 23165 0 0 23124 0 0 23184 0 0 23146 0 0 23131 0 0 23209 0 0 22986 0 0 23159 0 0 23217 0 0 23117 0 0 23310 0 0 22962 0 0 23213 0 0 23150 0 0 23116 0 0 23350 0 0 23160 0 0 22997 0 0 23331 0 0 23133 0 0 23054 0 0 23223 0 0 22948 0 0 23188 0 0 23003 0 0 23082 0 0 23029 0 0 23220 0 0 23106 0 0 22944 0 0 22994 0 0 11690 0 0 153 0 0 39 0 0 29 0 0 24 0 0 20 0 0 18 0 0 14 0 0 19 0 0 12 0 0 
5 0 0 9 0 0 7 0 0 11 0 0 23 0 0 24 0 0 30 0 0 21 0 0 34 0 0 150 0 0 11490 0 0 23035 0 0 23179 0 0 23264 0 0 23023 0 0 22991 0 0 23039 0 0 23150 0 0 23010 0 0 23320 0 0 22973 0 0 23006 0 0 23317 0 0 23220 0 0 22953 0 0 22884 0 0 23338 0 0 23154 0 0 23356 0 0 23500 0 0 23228 0 0 23136 0 0 22996 0 0 23211 0 0 23068 0 0 22958 0 0 23297 0 0 23024 0 0 23184 0 0 23236 0 0 23184 0 0 22855 0 0 23097 0 0 23084 0 0 23105 0 0 23051 0 0 23211 0 0 23319 0 0 23177 0 0 23105 0 0 11631 0 0 151 0 0 42 0 0 28 0 0 24 0 0 15 0 0 13 0 0 13 0 0 13 0 0 20 0 0 
8 0 0 9 0 0 15 0 0 20 0 0 23 0 0 24 0 0 25 0 0 29 0 0 35 0 0 134 0 0 11651 0 0 23095 0 0 23018 0 0 23229 0 0 23286 0 0 23211 0 0 23157 0 0 23086 0 0 23155 0 0 23239 0 0 22981 0 0 23162 0 0 23213 0 0 23143 0 0 23078 0 0 23108 0 0 23037 0 0 23425 0 0 23129 0 0 23357 0 0 23196 0 0 23137 0 0 23127 0 0 22985 0 0 23085 0 0 23060 0 0 22952 0 0 23116 0 0 22999 0 0 23116 0 0 23090 0 0 23310 0 0 23208 0 0 23058 0 0 23078 0 0 23244 0 0 23157 0 0 23254 0 0 23211 0 0 23048 0 0 11627 0 0 158 0 0 36 0 0 34 0 0 24 0 0 16 0 0 15 0 0 16 0 0 9 0 0 11 0 0 
8 0 0 15 0 0 14 0 0 15 0 0 18 0 0 22 0 0 25 0 0 24 0 0 35 0 0 163 0 0 11522 0 0 22964 0 0 23121 0 0 23271 0 0 23295 0 0 23206 0 0 22869 0 0 23482 0 0 22902 0 0 23120 0 0 23139 0 0 23083 0 0 23146 0 0 22922 0 0 23144 0 0 23110 0 0 23246 0 0 23205 0 0 23196 0 0 23341 0 0 23355 0 0 23122 0 0 23175 0 0 23236 0 0 23090 0 0 22987 0 0 23033 0 0 23048 0 0 23124 0 0 22955 0 0 22884 0 0 22829 0 0 23295 0 0 22986 0 0 22896 0 0 23139 0 0 23143 0 0 23088 0 0 23038 0 0 23044 0 0 11630 0 0 159 0 0 37 0 0 28 0 0 21 0 0 26 0 0 17 0 0 17 0 0 19 0 0 12 0 0 
7 0 0 9 0 0 9 0 0 11 0 0 16 0 0 18 0 0 27 0 0 34 0 0 38 0 0 143 0 0 11634 0 0 23048 0 0 22963 0 0 22805 0 0 23211 0 0 23127 0 0 23085 0 0 23298 0 0 23052 0 0 23042 0 0 23154 0 0 23173 0 0 23266 0 0 23093 0 0 23075 0 0 23206 0 0 23110 0 0 23348 0 0 22963 0 0 23432 0 0 23257 0 0 23261 0 0 23248 0 0 23078 0 0 23106 0 0 23079 0 0 23085 0 0 23136 0 0 23240 0 0 23084 0 0 23140 0 0 23168 0 0 23188 0 0 23225 0 0 23066 0 0 23253 0 0 23278 0 0 23179 0 0 23256 0 0 23094 0 0 11606 0 0 153 0 0 29 0 0 31 0 0 24 0 0 22 0 0 24 0 0 19 0 0 11 0 0 13 0 0 
2 0 0 7 0 0 6 0 0 8 0 0 10 0 0 20 0 0 33 0 0 33 0 0 35 0 0 152 0 0 11657 0 0 23070 0 0 23019 0 0 22988 0 0 23080 0 0 23100 0 0 23307 0 0 23148 0 0 23313 0 0 23136 0 0 23006 0 0 23132 0 0 23217 0 0 23119 0 0 22958 0 0 23165 0 0 23116 0 0 23131 0 0 23039 0 0 23128 0 0 22845 0 0 22980 0 0 23189 0 0 23036 0 0 23249 0 0 23306 0 0 23223 0 0 22970 0 0 23123 0 0 23141 0 0 23227 0 0 23246 0 0 22989 0 0 23155 0 0 23000 0 0 23134 0 0 23090 0 0 23113 0 0 22960 0 0 22806 0 0 11578 0 0 166 0 0 32 0 0 34 0 0 24 0 0 18 0 0 15 0 0 8 0 0 5 0 0 9 0 0 
4 0 0 8 0 0 17 0 0 16 0 0 19 0 0 19 0 0 24 0 0 35 0 0 38 0 0 146 0 0 11614 0 0 23052 0 0 23063 0 0 23171 0 0 23161 0 0 23107 0 0 23262 0 0 23022 0 0 23311 0 0 23111 0 0 23071 0 0 23191 0 0 23078 0 0 23040 0 0 22895 0 0 23168 0 0 23149 0 0 23011 0 0 23167 0 0 23141 0 0 23359 0 0 23015 0 0 23332 0 0 23421 0 0 23214 0 0 22972 0 0 23177 0 0 23123 0 0 23246 0 0 22946 0 0 22944 0 0 23284 0 0 23074 0 0 23228 0 0 23062 0 0 23100 0 0 23315 0 0 23193 0 0 23108 0 0 22934 0 0 11630 0 0 161 0 0 35 0 0 20 0 0 18 0 0 25 0 0 15 0 0 12 0 0 11 0 0 12 0 0 
11 0 0 14 0 0 17 0 0 22 0 0 17 0 0 19 0 0 33 0 0 32 0 0 40 0 0 162 0 0 11526 0 0 22964 0 0 23020 0 0 23254 0 0 22934 0 0 23331 0 0 23153 0 0 23349 0 0 23039 0 0 23213 0 0 23183 0 0 22932 0 0 23042 0 0 22987 0 0 23208 0 0 23341 0 0 22939 0 0 23152 0 0 23125 0 0 23039 0 0 23180 0 0 23028 0 0 22966 0 0 23293 0 0 23061 0 0 23289 0 0 23225 0 0 23454 0 0 23224 0 0 23182 0 0 23255 0 0 22743 0 0 23083 0 0 23375 0 0 23249 0 0 23375 0 0 23183 0 0 23258 0 0 23095 0 0 22929 0 0 11594 0 0 180 0 0 48 0 0 38 0 0 29 0 0 28 0 0 10 0 0 10 0 0 15 0 0 16 0 0 
3 0 0 13 0 0 15 0 0 12 0 0 18 0 0 14 0 0 18 0 0 33 0 0 40 0 0 153 0 0 11449 0 0 23059 0 0 23095 0 0 22846 0 0 23218 0 0 23061 0 0 23296 0 0 23202 0 0 23249 0 0 23066 0 0 23069 0 0 23283 0 0 23197 0 0 23109 0 0 23190 0 0 23060 0 0 23247 0 0 23122 0 0 23327 0 0 23066 0 0 23209 0 0 22782 0 0 23230 0 0 23310 0 0 23101 0 0 22959 0 0 23292 0 0 23303 0 0 22982 0 0 23110 0 0 23168 0 0 22922 0 0 23150 0 0 23069 0 0 23084 0 0 23202 0 0 22900 0 0 23203 0 0 23430 0 0 22633 0 0 11703 0 0 168 0 0 37 0 0 29 0 0 34 0 0 18 0 0 16 0 0 15 0 0 10 0 0 8 0 0 
4 0 0 8 0 0 16 0 0 19 0 0 16 0 0 17 0 0 28 0 0 29 0 0 43 0 0 146 0 0 11533 0 0 22879 0 0 23105 0 0 23118 0 0 23326 0 0 23260 0 0 22929 0 0 23031 0 0 22946 0 0 23256 0 0 23055 0 0 23293 0 0 23220 0 0 23557 0 0 23173 0 0 23183 0 0 22936 0 0 22868 0 0 23054 0 0 23513 0 0 23327 0 0 23293 0 0 23099 0 0 23191 0 0 23296 0 0 22960 0 0 23140 0 0 23070 0 0 22934 0 0 23229 0 0 23068 0 0 23348 0 0 23311 0 0 22933 0 0 22987 0 0 23149 0 0 23046 0 0 23187 0 0 23139 0 0 23125 0 0 11568 0 0 166 0 0 36 0 0 30 0 0 27 0 0 13 0 0 17 0 0 17 0 0 22 0 0 12 0 0 
6 0 0 13 0 0 15 0 0 18 0 0 16 0 0 18 0 0 26 0 0 31 0 0 45 0 0 155 0 0 11512 0 0 23105 0 0 23022 0 0 23248 0 0 23154 0 0 23166 0 0 23299 0 0 23178 0 0 23082 0 0 22971 0 0 22998 0 0 23108 0 0 23199 0 0 23189 0 0 23132 0 0 23211 0 0 23092 0 0 23394 0 0 23338 0 0 23189 0 0 22936 0 0 23026 0 0 23188 0 0 23246 0 0 23189 0 0 23077 0 0 22892 0 0 22971 0 0 22993 0 0 23007 0 0 22910 0 0 23230 0 0 23065 0 0 23141 0 0 23330 0 0 23182 0 0 23494 0 0 23208 0 0 23064 0 0 23044 0 0 11599 0 0 152 0 0 33 0 0 34 0 0 21 0 0 23 0 0 16 0 0 23 0 0 15 0 0 14 0 0 
2 0 0 6 0 0 14 0 0 15 0 0 24 0 0 17 0 0 29 0 0 29 0 0 39 0 0 170 0 0 11665 0 0 23158 0 0 23270 0 0 23224 0 0 23322 0 0 23140 0 0 23317 0 0 23088 0 0 23148 0 0 23052 0 0 23106 0 0 22956 0 0 23350 0 0 23310 0 0 23271 0 0 23253 0 0 23184 0 0 23335 0 0 22799 0 0 23287 0 0 23428 0 0 23001 0 0 22923 0 0 23147 0 0 23069 0 0 23119 0 0 23133 0 0 23032 0 0 23197 0 0 22915 0 0 23069 0 0 23069 0 0 23311 0 0 23246 0 0 23276 0 0 23039 0 0 23154 0 0 23169 0 0 23216 0 0 22919 0 0 11662 0 0 181 0 0 42 0 0 28 0 0 19 0 0 16 0 0 20 0 0 16 0 0 18 0 0 13 0 0 
4 0 0 12 0 0 17 0 0 14 0 0 17 0 0 23 0 0 28 0 0 38 0 0 38 0 0 159 0 0 11470 0 0 23099 0 0 23177 0 0 22864 0 0 23356 0 0 23166 0 0 23096 0 0 23307 0 0 23201 0 0 23358 0 0 23159 0 0 23173 0 0 23020 0 0 23213 0 0 23054 0 0 23039 0 0 23225 0 0 23040 0 0 22934 0 0 23204 0 0 23131 0 0 23133 0 0 23020 0 0 23171 0 0 23219 0 0 23075 0 0 23053 0 0 23239 0 0 23089 0 0 23066 0 0 23267 0 0 23268 0 0 23237 0 0 23286 0 0 23375 0 0 23250 0 0 22887 0 0 22878 0 0 23401 0 0 22975 0 0 11631 0 0 143 0 0 43 0 0 32 0 0 29 0 0 29 0 0 18 0 0 15 0 0 17 0 0 14 0 0 
9 0 0 19 0 0 19 0 0 18 0 0 20 0 0 23 0 0 24 0 0 24 0 0 32 0 0 154 0 0 11799 0 0 23090 0 0 23083 0 0 23143 0 0 23070 0 0 23151 0 0 23065 0 0 23225 0 0 23061 0 0 23416 0 0 23099 0 0 23203 0 0 23268 0 0 23117 0 0 23073 0 0 23115 0 0 23261 0 0 23206 0 0 23195 0 0 23073 0 0 23261 0 0 23465 0 0 23117 0 0 23014 0 0 23246 0 0 23169 0 0 22877 0 0 23193 0 0 22885 0 0 23271 0 0 22999 0 0 23101 0 0 23086 0 0 23272 0 0 23106 0 0 23031 0 0 23072 0 0 23083 0 0 23237 0 0 23087 0 0 11494 0 0 173 0 0 47 0 0 35 0 0 20 0 0 24 0 0 22 0 0 14 0 0 13 0 0 12 0 0 
7 0 0 17 0 0 13 0 0 21 0 0 17 0 0 21 0 0 23 0 0 31 0 0 39 0 0 150 0 0 11701 0 0 23003 0 0 23126 0 0 23196 0 0 23154 0 0 23069 0 0 22968 0 0 23189 0 0 23243 0 0 23144 0 0 23185 0 0 23034 0 0 23369 0 0 23239 0 0 23158 0 0 23045 0 0 23327 0 0 23275 0 0 23061 0 0 23339 0 0 23073 0 0 23318 0 0 23135 0 0 23078 0 0 23173 0 0 23234 0 0 23103 0 0 23164 0 0 22977 0 0 23320 0 0 23273 0 0 23284 0 0 23247 0 0 23198 0 0 23303 0 0 23224 0 0 23203 0 0 22988 0 0 23126 0 0 22972 0 0 11678 0 0 192 0 0 43 0 0 29 0 0 19 0 0 23 0 0 17 0 0 14 0 0 12 0 0 9 0 0 
6 0 0 9 0 0 14 0 0 14 0 0 24 0 0 23 0 0 23 0 0 37 0 0 41 0 0 152 0 0 11575 0 0 22990 0 0 23342 0 0 23209 0 0 23053 0 0 23357 0 0 23089 0 0 23202 0 0 23192 0 0 23136 0 0 23150 0 0 23119 0 0 23107 0 0 22963 0 0 22949 0 0 23063 0 0 23044 0 0 23086 0 0 23098 0 0 23148 0 0 23275 0 0 23275 0 0 23059 0 0 23068 0 0 23150 0 0 23082 0 0 23025 0 0 23095 0 0 23222 0 0 23023 0 0 23368 0 0 23348 0 0 23261 0 0 23144 0 0 23296 0 0 22867 0 0 23188 0 0 23271 0 0 23044 0 0 23086 0 0 11578 0 0 156 0 0 36 0 0 35 0 0 25 0 0 11 0 0 13 0 0 13 0 0 11 0 0 8 0 0 
4 0 0 7 0 0 11 0 0 11 0 0 12 0 0 21 0 0 19 0 0 20 0 0 33 0 0 159 0 0 11668 0 0 23220 0 0 23048 0 0 23093 0 0 22948 0 0 23067 0 0 22976 0 0 23249 0 0 22991 0 0 23255 0 0 23113 0 0 23185 0 0 23353 0 0 22897 0 0 23160 0 0 23023 0 0 23166 0 0 23164 0 0 23289 0 0 23216 0 0 23332 0 0 23514 0 0 23191 0 0 23387 0 0 23187 0 0 22956 0 0 23021 0 0 22984 0 0 23061 0 0 23225 0 0 23193 0 0 23186 0 0 23165 0 0 23324 0 0 23110 0 0 23113 0 0 23103 0 0 23169 0 0 23179 0 0 23092 0 0 11558 0 0 145 0 0 45 0 0 24 0 0 23 0 0 23 0 0 20 0 0 20 0 0 9 0 0 11 0 0 
5 0 0 8 0 0 5 0 0 9 0 0 19 0 0 18 0 0 19 0 0 21 0 0 32 0 0 148 0 0 11552 0 0 22954 0 0 23088 0 0 23088 0 0 23048 0 0 23082 0 0 23325 0 0 23155 0 0 23057 0 0 22942 0 0 22815 0 0 23316 0 0 23189 0 0 23218 0 0 23005 0 0 23132 0 0 23197 0 0 23305 0 0 23171 0 0 23204 0 0 23241 0 0 23057 0 0 23015 0 0 23194 0 0 23275 0 0 23195 0 0 23198 0 0 23057 0 0 23307 0 0 23379 0 0 23187 0 0 23093 0 0 22908 0 0 23182 0 0 23223 0 0 23179 0 0 23658 0 0 22932 0 0 23170 0 0 23189 0 0 11613 0 0 172 0 0 38 0 0 27 0 0 24 0 0 32 0 0 22 0 0 18 0 0 19 0 0 15 0 0 
3 0 0 12 0 0 12 0 0 17 0 0 14 0 0 25 0 0 23 0 0 22 0 0 31 0 0 125 0 0 11640 0 0 23031 0 0 23348 0 0 23114 0 0 23149 0 0 23213 0 0 23235 0 0 23118 0 0 22840 0 0 23215 0 0 23252 0 0 22978 0 0 23156 0 0 23199 0 0 23069 0 0 23104 0 0 23325 0 0 23043 0 0 23087 0 0 23300 0 0 23320 0 0 23023 0 0 22956 0 0 23051 0 0 23013 0 0 22996 0 0 23093 0 0 23067 0 0 22767 0 0 23169 0 0 23174 0 0 23123 0 0 23098 0 0 23020 0 0 23087 0 0 23317 0 0 23148 0 0 23087 0 0 23068 0 0 23080 0 0 11587 0 0 152 0 0 39 0 0 40 0 0 37 0 0 26 0 0 22 0 0 19 0 0 12 0 0 11 0 0 
4 0 0 11 0 0 11 0 0 11 0 0 22 0 0 24 0 0 31 0 0 31 0 0 34 0 0 174 0 0 11475 0 0 23159 0 0 23004 0 0 23082 0 0 23027 0 0 22876 0 0 23257 0 0 23048 0 0 23252 0 0 23224 0 0 23113 0 0 23235 0 0 23109 0 0 23274 0 0 23055 0 0 23007 0 0 22954 0 0 23063 0 0 23170 0 0 22950 0 0 23177 0 0 23323 0 0 22987 0 0 23368 0 0 23160 0 0 23169 0 0 23136 0 0 22840 0 0 23218 0 0 23132 0 0 23021 0 0 23308 0 0 23099 0 0 23164 0 0 23116 0 0 23247 0 0 23021 0 0 23009 0 0 23127 0 0 22811 0 0 11513 0 0 158 0 0 41 0 0 34 0 0 20 0 0 24 0 0 14 0 0 14 0 0 13 0 0 16 0 0 
5 0 0 7 0 0 11 0 0 15 0 0 19 0 0 19 0 0 16 0 0 21 0 0 37 0 0 178 0 0 11537 0 0 22934 0 0 23077 0 0 23098 0 0 22976 0 0 23274 0 0 23052 0 0 23128 0 0 23038 0 0 23162 0 0 23274 0 0 23353 0 0 23144 0 0 23107 0 0 23146 0 0 23250 0 0 23001 0 0 23081 0 0 23321 0 0 23041 0 0 22954 0 0 23232 0 0 23256 0 0 22823 0 0 23113 0 0 23208 0 0 23499 0 0 23148 0 0 23340 0 0 23354 0 0 23238 0 0 23119 0 0 23269 0 0 23345 0 0 23317 0 0 23199 0 0 22924 0 0 23257 0 0 22929 0 0 22827 0 0 11612 0 0 181 0 0 44 0 0 38 0 0 32 0 0 16 0 0 21 0 0 20 0 0 16 0 0 13 0 0 
4 0 0 13 0 0 14 0 0 14 0 0 15 0 0 21 0 0 32 0 0 30 0 0 36 0 0 172 0 0 11674 0 0 22840 0 0 23343 0 0 23072 0 0 23129 0 0 23232 0 0 23044 0 0 23270 0 0 23091 0 0 23423 0 0 23026 0 0 23215 0 0 22982 0 0 23199 0 0 22950 0 0 23315 0 0 23137 0 0 23222 0 0 23015 0 0 23174 0 0 22954 0 0 23121 0 0 23197 0 0 22908 0 0 23061 0 0 22804 0 0 23229 0 0 23251 0 0 23319 0 0 23090 0 0 23270 0 0 23029 0 0 23230 0 0 23234 0 0 23156 0 0 23251 0 0 23087 0 0 23240 0 0 23051 0 0 22828 0 0 11599 0 0 170 0 0 42 0 0 35 0 0 28 0 0 18 0 0 20 0 0 20 0 0 9 0 0 9 0 0 
5 0 0 11 0 0 15 0 0 15 0 0 18 0 0 21 0 0 27 0 0 35 0 0 34 0 0 155 0 0 11623 0 0 23139 0 0 23102 0 0 23268 0 0 23033 0 0 22800 0 0 22925 0 0 23076 0 0 23143 0 0 23089 0 0 22907 0 0 23282 0 0 23170 0 0 23259 0 0 23192 0 0 23216 0 0 22953 0 0 22985 0 0 23190 0 0 23358 0 0 23211 0 0 23097 0 0 23182 0 0 23169 0 0 23251 0 0 23128 0 0 23270 0 0 23319 0 0 23080 0 0 23274 0 0 23155 0 0 23104 0 0 22919 0 0 23091 0 0 23127 0 0 23216 0 0 23051 0 0 23201 0 0 23094 0 0 23227 0 0 11542 0 0 176 0 0 34 0 0 22 0 0 19 0 0 25 0 0 9 0 0 17 0 0 14 0 0 13 0 0 
5 0 0 16 0 0 17 0 0 18 0 0 19 0 0 26 0 0 34 0 0 27 0 0 40 0 0 173 0 0 11379 0 0 23027 0 0 22854 0 0 23309 0 0 23309 0 0 23404 0 0 22845 0 0 23302 0 0 22921 0 0 23035 0 0 23148 0 0 22933 0 0 23075 0 0 22929 0 0 23060 0 0 23267 0 0 22927 0 0 23188 0 0 23138 0 0 22988 0 0 23112 0 0 23307 0 0 23312 0 0 23047 0 0 23021 0 0 23548 0 0 23044 0 0 23400 0 0 23090 0 0 23210 0 0 23265 0 0 23119 0 0 22975 0 0 22920 0 0 22979 0 0 23156 0 0 23409 0 0 22965 0 0 23292 0 0 22853 0 0 11588 0 0 167 0 0 35 0 0 31 0 0 21 0 0 19 0 0 23 0 0 17 0 0 11 0 0 12 0 0 
7 0 0 12 0 0 18 0 0 22 0 0 15 0 0 24 0 0 23 0 0 25 0 0 39 0 0 168 0 0 11447 0 0 23125 0 0 23136 0 0 23290 0 0 23222 0 0 23001 0 0 23290 0 0 23297 0 0 23199 0 0 23235 0 0 23037 0 0 23354 0 0 22902 0 0 23163 0 0 23177 0 0 23004 0 0 23214 0 0 23351 0 0 23112 0 0 23133 0 0 23453 0 0 23238 0 0 23002 0 0 23391 0 0 23178 0 0 22926 0 0 23123 0 0 23109 0 0 23120 0 0 23078 0 0 22952 0 0 23309 0 0 23214 0 0 23195 0 0 23046 0 0 23218 0 0 23003 0 0 23251 0 0 23051 0 0 23109 0 0 11458 0 0 162 0 0 35 0 0 37 0 0 38 0 0 19 0 0 19 0 0 16 0 0 16 0 0 13 0 0 
4 0 0 13 0 0 14 0 0 16 0 0 15 0 0 22 0 0 22 0 0 26 0 0 45 0 0 179 0 0 11750 0 0 22908 0 0 23285 0 0 23206 0 0 23082 0 0 23205 0 0 23304 0 0 23205 0 0 22840 0 0 23112 0 0 23063 0 0 23050 0 0 23060 0 0 23239 0 0 23033 0 0 23118 0 0 23145 0 0 22957 0 0 23103 0 0 23168 0 0 23078 0 0 23161 0 0 23157 0 0 23075 0 0 23123 0 0 23298 0 0 23001 0 0 22964 0 0 23124 0 0 23069 0 0 23127 0 0 23306 0 0 23208 0 0 23182 0 0 23211 0 0 23179 0 0 22926 0 0 22932 0 0 23258 0 0 23055 0 0 11527 0 0 148 0 0 42 0 0 30 0 0 25 0 0 25 0 0 19 0 0 26 0 0 16 0 0 14 0 0 
6 0 0 9 0 0 15 0 0 18 0 0 15 0 0 10 0 0 22 0 0 34 0 0 38 0 0 168 0 0 11625 0 0 23083 0 0 23223 0 0 23107 0 0 23235 0 0 23007 0 0 23092 0 0 23102 0 0 22943 0 0 23438 0 0 23163 0 0 23293 0 0 23249 0 0 23012 0 0 22982 0 0 23185 0 0 23238 0 0 23224 0 0 23060 0 0 23052 0 0 23182 0 0 23161 0 0 22852 0 0 23228 0 0 23419 0 0 23107 0 0 23035 0 0 23258 0 0 23121 0 0 23201 0 0 23161 0 0 23163 0 0 22928 0 0 23225 0 0 23121 0 0 23015 0 0 23093 0 0 23012 0 0 23114 0 0 22820 0 0 11643 0 0 163 0 0 31 0 0 27 0 0 24 0 0 23 0 0 22 0 0 14 0 0 14 0 0 10 0 0 
3 0 0 5 0 0 9 0 0 11 0 0 10 0 0 21 0 0 30 0 0 38 0 0 36 0 0 158 0 0 11627 0 0 23066 0 0 23155 0 0 23137 0 0 23018 0 0 23130 0 0 23103 0 0 23200 0 0 23336 0 0 23282 0 0 23229 0 0 23220 0 0 23059 0 0 22963 0 0 23160 0 0 23217 0 0 23017 0 0 23069 0 0 23029 0 0 23075 0 0 23112 0 0 23066 0 0 22999 0 0 23066 0 0 23126 0 0 23225 0 0 23080 0 0 22901 0 0 23260 0 0 23153 0 0 23152 0 0 23030 0 0 23233 0 0 22951 0 0 23220 0 0 23018 0 0 23274 0 0 23332 0 0 22723 0 0 23172 0 0 11577 0 0 158 0 0 35 0 0 14 0 0 16 0 0 17 0 0 17 0 0 15 0 0 12 0 0 16 0 0 
6 0 0 12 0 0 14 0 0 14 0 0 16 0 0 22 0 0 29 0 0 31 0 0 35 0 0 157 0 0 11477 0 0 23131 0 0 23101 0 0 23021 0 0 23245 0 0 23176 0 0 23414 0 0 23278 0 0 23077 0 0 23117 0 0 23201 0 0 23187 0 0 22962 0 0 23161 0 0 23115 0 0 23104 0 0 23200 0 0 23225 0 0 22940 0 0 23129 0 0 23162 0 0 23097 0 0 23035 0 0 23150 0 0 23173 0 0 22919 0 0 23086 0 0 23215 0 0 23304 0 0 23126 0 0 23228 0 0 23156 0 0 23124 0 0 23071 0 0 23170 0 0 23135 0 0 22966 0 0 23023 0 0 23149 0 0 22930 0 0 11712 0 0 168 0 0 36 0 0 26 0 0 21 0 0 19 0 0 17 0 0 15 0 0 15 0 0 12 0 0 
5 0 0 14 0 0 16 0 0 22 0 0 22 0 0 17 0 0 20 0 0 24 0 0 35 0 0 145 0 0 11460 0 0 23196 0 0 23104 0 0 23134 0 0 23193 0 0 23238 0 0 23078 0 0 23165 0 0 22848 0 0 22909 0 0 23147 0 0 23289 0 0 23073 0 0 23056 0 0 23043 0 0 22995 0 0 23317 0 0 23140 0 0 23148 0 0 23031 0 0 23096 0 0 23117 0 0 23205 0 0 23192 0 0 23173 0 0 23163 0 0 23080 0 0 23060 0 0 23028 0 0 23018 0 0 22925 0 0 23243 0 0 23220 0 0 22860 0 0 22928 0 0 23056 0 0 22821 0 0 23248 0 0 23100 0 0 23026 0 0 11442 0 0 162 0 0 32 0 0 26 0 0 18 0 0 12 0 0 12 0 0 14 0 0 10 0 0 15 0 0 
9 0 0 16 0 0 14 0 0 13 0 0 20 0 0 19 0 0 23 0 0 19 0 0 37 0 0 150 0 0 11711 0 0 23164 0 0 23129 0 0 22921 0 0 23298 0 0 23271 0 0 22911 0 0 23394 0 0 23068 0 0 22892 0 0 23119 0 0 23122 0 0 23166 0 0 23220 0 0 23143 0 0 22964 0 0 22973 0 0 23321 0 0 23265 0 0 23033 0 0 23131 0 0 22881 0 0 23235 0 0 23101 0 0 23101 0 0 23192 0 0 23062 0 0 23006 0 0 23167 0 0 23288 0 0 23049 0 0 23069 0 0 23040 0 0 23251 0 0 22876 0 0 22891 0 0 22983 0 0 23211 0 0 23313 0 0 23040 0 0 11471 0 0 133 0 0 26 0 0 18 0 0 13 0 0 12 0 0 12 0 0 14 0 0 16 0 0 13 0 0 
8 0 0 13 0 0 10 0 0 17 0 0 12 0 0 18 0 0 14 0 0 23 0 0 33 0 0 164 0 0 11663 0 0 22984 0 0 23266 0 0 23103 0 0 23002 0 0 23036 0 0 23182 0 0 22861 0 0 23066 0 0 23372 0 0 23279 0 0 23073 0 0 23119 0 0 23159 0 0 23195 0 0 23113 0 0 23104 0 0 23231 0 0 23075 0 0 23201 0 0 22933 0 0 23040 0 0 23264 0 0 23135 0 0 23303 0 0 23194 0 0 23235 0 0 23068 0 0 23209 0 0 22988 0 0 23127 0 0 22881 0 0 23317 0 0 23172 0 0 23075 0 0 23004 0 0 23046 0 0 23234 0 0 23287 0 0 22931 0 0 11737 0 0 147 0 0 28 0 0 22 0 0 21 0 0 10 0 0 12 0 0 11 0 0 16 0 0 12 0 0 
3 0 0 9 0 0 12 0 0 13 0 0 12 0 0 14 0 0 20 0 0 20 0 0 31 0 0 133 0 0 11322 0 0 22937 0 0 23030 0 0 22987 0 0 22842 0 0 22697 0 0 23124 0 0 22955 0 0 23015 0 0 23360 0 0 22917 0 0 23068 0 0 22993 0 0 22993 0 0 22986 0 0 23016 0 0 22876 0 0 22850 0 0 22920 0 0 22929 0 0 23280 0 0 22996 0 0 22976 0 0 23166 0 0 23081 0 0 23015 0 0 23185 0 0 23201 0 0 22807 0 0 23092 0 0 22915 0 0 23136 0 0 22975 0 0 22840 0 0 22823 0 0 22870 0 0 23020 0 0 23226 0 0 22911 0 0 22622 0 0 11513 0 0 139 0 0 28 0 0 14 0 0 18 0 0 14 0 0 10 0 0 9 0 0 6 0 0 6 0 0 
7 0 0 14 0 0 12 0 0 7 0 0 12 0 0 13 0 0 14 0 0 19 0 0 15 0 0 90 0 0 5755 0 0 11428 0 0 11509 0 0 11555 0 0 11681 0 0 11682 0 0 11570 0 0 11593 0 0 11702 0 0 11516 0 0 11478 0 0 11429 0 0 11551 0 0 11453 0 0 11692 0 0 11451 0 0 11599 0 0 11562 0 0 11496 0 0 11650 0 0 11381 0 0 11687 0 0 11648 0 0 11505 0 0 11495 0 0 11744 0 0 11646 0 0 11582 0 0 11606 0 0 11551 0 0 11409 0 0 11581 0 0 11407 0 0 11486 0 0 11639 0 0 11540 0 0 11579 0 0 11435 0 0 11562 0 0 11652 0 0 5858 0 0 79 0 0 19 0 0 19 0 0 11 0 0 11 0 0 5 0 0 6 0 0 8 0 0 2 0 0 
4 0 0 8 0 0 9 0 0 14 0 0 14 0 0 15 0 0 17 0 0 17 0 0 23 0 0 25 0 0 79 0 0 137 0 0 155 0 0 147 0 0 160 0 0 149 0 0 166 0 0 138 0 0 156 0 0 155 0 0 154 0 0 173 0 0 163 0 0 160 0 0 170 0 0 155 0 0 161 0 0 176 0 0 151 0 0 177 0 0 155 0 0 158 0 0 146 0 0 135 0 0 162 0 0 135 0 0 150 0 0 168 0 0 167 0 0 165 0 0 149 0 0 152 0 0 160 0 0 165 0 0 156 0 0 156 0 0 155 0 0 143 0 0 160 0 0 147 0 0 68 0 0 26 0 0 20 0 0 17 0 0 18 0 0 13 0 0 13 0 0 6 0 0 5 0 0 5 0 0 
2 0 0 13 0 0 11 0 0 9 0 0 9 0 0 9 0 0 7 0 0 10 0 0 14 0 0 16 0 0 19 0 0 19 0 0 39 0 0 35 0 0 30 0 0 33 0 0 37 0 0 33 0 0 35 0 0 41 0 0 42 0 0 37 0 0 42 0 0 34 0 0 48 0 0 44 0 0 43 0 0 44 0 0 38 0 0 35 0 0 30 0 0 40 0 0 39 0 0 40 0 0 40 0 0 35 0 0 48 0 0 38 0 0 46 0 0 42 0 0 44 0 0 43 0 0 35 0 0 34 0 0 35 0 0 26 0 0 27 0 0 29 0 0 22 0 0 24 0 0 26 0 0 22 0 0 15 0 0 13 0 0 12 0 0 12 0 0 14 0 0 12 0 0 5 0 0 6 0 0 
7 0 0 11 0 0 9 0 0 7 0 0 5 0 0 14 0 0 7 0 0 11 0 0 10 0 0 21 0 0 12 0 0 14 0 0 24 0 0 28 0 0 24 0 0 24 0 0 23 0 0 22 0 0 30 0 0 28 0 0 25 0 0 33 0 0 37 0 0 28 0 0 35 0 0 34 0 0 37 0 0 34 0 0 33 0 0 31 0 0 24 0 0 30 0 0 35 0 0 36 0 0 29 0 0 38 0 0 31 0 0 28 0 0 33 0 0 34 0 0 42 0 0 30 0 0 24 0 0 37 0 0 30 0 0 31 0 0 27 0 0 19 0 0 17 0 0 15 0 0 14 0 0 13 0 0 12 0 0 19 0 0 8 0 0 9 0 0 6 0 0 10 0 0 13 0 0 11 0 0 
3 0 0 6 0 0 4 0 0 4 0 0 12 0 0 7 0 0 6 0 0 9 0 0 12 0 0 15 0 0 11 0 0 12 0 0 19 0 0 24 0 0 21 0 0 22 0 0 14 0 0 25 0 0 22 0 0 26 0 0 25 0 0 28 0 0 34 0 0 28 0 0 29 0 0 27 0 0 25 0 0 24 0 0 21 0 0 27 0 0 18 0 0 29 0 0 26 0 0 24 0 0 28 0 0 35 0 0 25 0 0 11 0 0 19 0 0 31 0 0 33 0 0 25 0 0 25 0 0 25 0 0 37 0 0 15 0 0 18 0 0 15 0 0 14 0 0 12 0 0 13 0 0 10 0 0 16 0 0 12 0 0 16 0 0 11 0 0 9 0 0 8 0 0 11 0 0 12 0 0 
6 0 0 6 0 0 6 0 0 8 0 0 7 0 0 7 0 0 11 0 0 10 0 0 13 0 0 16 0 0 8 0 0 12 0 0 18 0 0 22 0 0 10 0 0 24 0 0 17 0 0 20 0 0 20 0 0 21 0 0 20 0 0 23 0 0 25 0 0 21 0 0 29 0 0 15 0 0 23 0 0 21 0 0 19 0 0 23 0 0 22 0 0 23 0 0 19 0 0 23 0 0 27 0 0 23 0 0 23 0 0 16 0 0 16 0 0 23 0 0 20 0 0 18 0 0 25 0 0 19 0 0 27 0 0 14 0 0 21 0 0 12 0 0 10 0 0 19 0 0 14 0 0 10 0 0 10 0 0 11 0 0 9 0 0 6 0 0 10 0 0 5 0 0 9 0 0 7 0 0 
1 0 0 4 0 0 8 0 0 11 0 0 7 0 0 10 0 0 9 0 0 5 0 0 8 0 0 15 0 0 10 0 0 12 0 0 12 0 0 7 0 0 12 0 0 17 0 0 21 0 0 18 0 0 10 0 0 20 0 0 18 0 0 16 0 0 20 0 0 25 0 0 19 0 0 14 0 0 26 0 0 25 0 0 16 0 0 21 0 0 23 0 0 14 0 0 20 0 0 18 0 0 21 0 0 14 0 0 15 0 0 9 0 0 17 0 0 17 0 0 13 0 0 16 0 0 17 0 0 17 0 0 20 0 0 14 0 0 16 0 0 14 0 0 12 0 0 12 0 0 12 0 0 8 0 0 14 0 0 13 0 0 6 0 0 8 0 0 8 0 0 5 0 0 7 0 0 5 0 0 
2 0 0 8 0 0 7 0 0 6 0 0 6 0 0 4 0 0 5 0 0 5 0 0 10 0 0 12 0 0 8 0 0 7 0 0 15 0 0 5 0 0 12 0 0 15 0 0 17 0 0 13 0 0 14 0 0 14 0 0 15 0 0 19 0 0 20 0 0 20 0 0 24 0 0 17 0 0 20 0 0 21 0 0 18 0 0 21 0 0 21 0 0 17 0 0 15 0 0 17 0 0 16 0 0 16 0 0 13 0 0 9 0 0 16 0 0 16 0 0 10 0 0 15 0 0 17 0 0 11 0 0 17 0 0 14 0 0 12 0 0 5 0 0 8 0 0 15 0 0 12 0 0 7 0 0 12 0 0 13 0 0 7 0 0 5 0 0 8 0 0 6 0 0 3 0 0 5 0 0 
3 0 0 4 0 0 7 0 0 4 0 0 5 0 0 6 0 0 9 0 0 9 0 0 15 0 0 5 0 0 9 0 0 13 0 0 14 0 0 6 0 0 11 0 0 16 0 0 21 0 0 12 0 0 11 0 0 18 0 0 14 0 0 12 0 0 23 0 0 14 0 0 12 0 0 18 0 0 21 0 0 20 0 0 23 0 0 15 0 0 17 0 0 22 0 0 12 0 0 11 0 0 16 0 0 13 0 0 15 0 0 13 0 0 6 0 0 14 0 0 7 0 0 16 0 0 16 0 0 6 0 0 12 0 0 11 0 0 12 0 0 14 0 0 4 0 0 10 0 0 15 0 0 11 0 0 8 0 0 8 0 0 10 0 0 9 0 0 3 0 0 3 0 0 5 0 0 1 0 0 
2 0 0 2 0 0 4 0 0 8 0 0 9 0 0 5 0 0 8 0 0 10 0 0 8 0 0 8 0 0 10 0 0 9 0 0 9 0 0 7 0 0 9 0 0 7 0 0 21 0 0 12 0 0 12 0 0 11 0 0 10 0 0 11 0 0 12 0 0 14 0 0 10 0 0 13 0 0 18 0 0 18 0 0 13 0 0 13 0 0 14 0 0 15 0 0 12 0 0 12 0 0 17 0 0 15 0 0 11 0 0 7 0 0 8 0 0 16 0 0 3 0 0 13 0 0 16 0 0 7 0 0 6 0 0 8 0 0 9 0 0 11 0 0 5 0 0 11 0 0 9 0 0 7 0 0 9 0 0 9 0 0 6 0 0 8 0 0 7 0 0 4 0 0 3 0 0 3 0 0 
