P3
# This is a dose file slice at depth 52 of 100
60 60
# now we give the maximum value of the RGB coordinates.
32920
0 0 0 1 0 0 3 0 0 0 0 0 3 0 0 4 0 0 1 0 0 2 0 0 1 0 0 1 0 0 0 0 0 0 0 0 0 0 0 3 0 0 3 0 0 1 0 0 5 0 0 5 0 0 3 0 0 2 0 0 3 0 0 2 0 0 3 0 0 1 0 0 3 0 0 5 0 0 5 0 0 3 0 0 2 0 0 3 0 0 3 0 0 4 0 0 2 0 0 0 0 0 0 0 0 4 0 0 2 0 0 2 0 0 2 0 0 2 0 0 4 0 0 2 0 0 5 0 0 4 0 0 3 0 0 1 0 0 1 0 0 1 0 0 3 0 0 1 0 0 4 0 0 0 0 0 2 0 0 3 0 0 0 0 0 2 0 0 1 0 0 2 0 0 0 0 0 0 0 0 
2 0 0 0 0 0 4 0 0 3 0 0 3 0 0 7 0 0 5 0 0 6 0 0 2 0 0 4 0 0 7 0 0 2 0 0 2 0 0 2 0 0 5 0 0 6 0 0 8 0 0 7 0 0 5 0 0 9 0 0 7 0 0 4 0 0 3 0 0 6 0 0 6 0 0 5 0 0 9 0 0 7 0 0 9 0 0 6 0 0 7 0 0 6 0 0 6 0 0 2 0 0 5 0 0 6 0 0 6 0 0 2 0 0 4 0 0 4 0 0 6 0 0 5 0 0 6 0 0 11 0 0 3 0 0 3 0 0 4 0 0 6 0 0 2 0 0 7 0 0 4 0 0 6 0 0 5 0 0 3 0 0 6 0 0 3 0 0 3 0 0 2 0 0 2 0 0 1 0 0 
1 0 0 3 0 0 1 0 0 2 0 0 3 0 0 2 0 0 4 0 0 6 0 0 1 0 0 7 0 0 7 0 0 6 0 0 8 0 0 3 0 0 6 0 0 7 0 0 7 0 0 4 0 0 7 0 0 5 0 0 7 0 0 8 0 0 0 0 0 8 0 0 6 0 0 4 0 0 8 0 0 6 0 0 4 0 0 8 0 0 7 0 0 7 0 0 7 0 0 1 0 0 5 0 0 8 0 0 7 0 0 1 0 0 5 0 0 6 0 0 6 0 0 4 0 0 7 0 0 8 0 0 3 0 0 3 0 0 10 0 0 11 0 0 2 0 0 9 0 0 8 0 0 5 0 0 3 0 0 4 0 0 6 0 0 6 0 0 1 0 0 3 0 0 2 0 0 3 0 0 
1 0 0 1 0 0 2 0 0 2 0 0 0 0 0 3 0 0 2 0 0 7 0 0 8 0 0 5 0 0 6 0 0 7 0 0 8 0 0 3 0 0 6 0 0 4 0 0 5 0 0 4 0 0 7 0 0 7 0 0 9 0 0 7 0 0 6 0 0 6 0 0 9 0 0 10 0 0 6 0 0 12 0 0 6 0 0 6 0 0 7 0 0 8 0 0 6 0 0 2 0 0 4 0 0 9 0 0 6 0 0 7 0 0 10 0 0 5 0 0 6 0 0 2 0 0 12 0 0 9 0 0 2 0 0 10 0 0 12 0 0 8 0 0 5 0 0 9 0 0 7 0 0 2 0 0 3 0 0 7 0 0 6 0 0 3 0 0 1 0 0 3 0 0 6 0 0 4 0 0 
1 0 0 3 0 0 1 0 0 1 0 0 1 0 0 1 0 0 3 0 0 5 0 0 8 0 0 3 0 0 3 0 0 6 0 0 4 0 0 5 0 0 3 0 0 3 0 0 10 0 0 4 0 0 12 0 0 7 0 0 7 0 0 12 0 0 9 0 0 12 0 0 6 0 0 12 0 0 11 0 0 6 0 0 4 0 0 6 0 0 7 0 0 9 0 0 4 0 0 4 0 0 7 0 0 7 0 0 9 0 0 11 0 0 8 0 0 6 0 0 7 0 0 8 0 0 17 0 0 8 0 0 7 0 0 13 0 0 11 0 0 4 0 0 5 0 0 12 0 0 7 0 0 2 0 0 5 0 0 6 0 0 2 0 0 3 0 0 5 0 0 4 0 0 2 0 0 2 0 0 
1 0 0 3 0 0 4 0 0 2 0 0 0 0 0 2 0 0 5 0 0 5 0 0 6 0 0 8 0 0 2 0 0 4 0 0 6 0 0 9 0 0 4 0 0 4 0 0 11 0 0 10 0 0 10 0 0 12 0 0 9 0 0 8 0 0 8 0 0 10 0 0 10 0 0 6 0 0 13 0 0 8 0 0 12 0 0 11 0 0 9 0 0 7 0 0 11 0 0 12 0 0 6 0 0 7 0 0 7 0 0 12 0 0 8 0 0 12 0 0 12 0 0 10 0 0 17 0 0 12 0 0 7 0 0 8 0 0 5 0 0 10 0 0 11 0 0 5 0 0 2 0 0 1 0 0 1 0 0 2 0 0 2 0 0 3 0 0 4 0 0 1 0 0 0 0 0 6 0 0 
1 0 0 0 0 0 7 0 0 4 0 0 6 0 0 2 0 0 2 0 0 4 0 0 10 0 0 10 0 0 9 0 0 4 0 0 6 0 0 7 0 0 2 0 0 8 0 0 13 0 0 11 0 0 12 0 0 10 0 0 15 0 0 9 0 0 17 0 0 9 0 0 8 0 0 8 0 0 12 0 0 8 0 0 8 0 0 6 0 0 6 0 0 9 0 0 15 0 0 12 0 0 9 0 0 12 0 0 14 0 0 14 0 0 12 0 0 9 0 0 8 0 0 14 0 0 16 0 0 9 0 0 4 0 0 10 0 0 6 0 0 7 0 0 7 0 0 8 0 0 9 0 0 1 0 0 4 0 0 2 0 0 3 0 0 3 0 0 4 0 0 2 0 0 2 0 0 3 0 0 
1 0 0 1 0 0 3 0 0 5 0 0 4 0 0 3 0 0 5 0 0 8 0 0 8 0 0 11 0 0 11 0 0 11 0 0 5 0 0 8 0 0 11 0 0 9 0 0 12 0 0 10 0 0 16 0 0 9 0 0 20 0 0 20 0 0 12 0 0 16 0 0 13 0 0 11 0 0 15 0 0 12 0 0 11 0 0 16 0 0 14 0 0 18 0 0 13 0 0 8 0 0 10 0 0 16 0 0 12 0 0 19 0 0 10 0 0 17 0 0 14 0 0 15 0 0 10 0 0 11 0 0 10 0 0 16 0 0 8 0 0 13 0 0 11 0 0 9 0 0 12 0 0 3 0 0 7 0 0 7 0 0 6 0 0 2 0 0 3 0 0 1 0 0 1 0 0 2 0 0 
2 0 0 3 0 0 2 0 0 3 0 0 10 0 0 7 0 0 8 0 0 9 0 0 10 0 0 8 0 0 7 0 0 13 0 0 11 0 0 10 0 0 22 0 0 17 0 0 15 0 0 8 0 0 15 0 0 12 0 0 22 0 0 17 0 0 16 0 0 20 0 0 16 0 0 16 0 0 17 0 0 17 0 0 18 0 0 18 0 0 18 0 0 15 0 0 17 0 0 14 0 0 23 0 0 15 0 0 12 0 0 22 0 0 16 0 0 20 0 0 21 0 0 13 0 0 14 0 0 17 0 0 19 0 0 14 0 0 12 0 0 13 0 0 16 0 0 15 0 0 13 0 0 8 0 0 7 0 0 4 0 0 5 0 0 5 0 0 5 0 0 2 0 0 2 0 0 3 0 0 
1 0 0 7 0 0 3 0 0 4 0 0 4 0 0 7 0 0 10 0 0 5 0 0 4 0 0 11 0 0 42 0 0 80 0 0 74 0 0 64 0 0 79 0 0 79 0 0 99 0 0 72 0 0 72 0 0 63 0 0 67 0 0 87 0 0 75 0 0 78 0 0 69 0 0 99 0 0 102 0 0 88 0 0 88 0 0 80 0 0 92 0 0 77 0 0 87 0 0 85 0 0 82 0 0 78 0 0 79 0 0 92 0 0 76 0 0 78 0 0 81 0 0 84 0 0 88 0 0 76 0 0 76 0 0 81 0 0 80 0 0 60 0 0 86 0 0 73 0 0 46 0 0 10 0 0 10 0 0 3 0 0 5 0 0 3 0 0 4 0 0 3 0 0 0 0 0 1 0 0 
1 0 0 6 0 0 3 0 0 4 0 0 8 0 0 6 0 0 6 0 0 6 0 0 10 0 0 48 0 0 2581 0 0 5168 0 0 5304 0 0 5165 0 0 5164 0 0 5055 0 0 5084 0 0 5156 0 0 5035 0 0 5161 0 0 5096 0 0 5152 0 0 5278 0 0 5149 0 0 5127 0 0 5157 0 0 5197 0 0 5163 0 0 5129 0 0 5094 0 0 5127 0 0 5212 0 0 5015 0 0 5177 0 0 5151 0 0 5164 0 0 5148 0 0 5133 0 0 5134 0 0 5178 0 0 5085 0 0 5222 0 0 5201 0 0 5140 0 0 5122 0 0 5097 0 0 5186 0 0 5047 0 0 5225 0 0 5068 0 0 2580 0 0 36 0 0 9 0 0 9 0 0 7 0 0 4 0 0 3 0 0 4 0 0 2 0 0 5 0 0 
0 0 0 4 0 0 3 0 0 2 0 0 10 0 0 8 0 0 9 0 0 12 0 0 12 0 0 73 0 0 5072 0 0 10113 0 0 10163 0 0 10063 0 0 10191 0 0 10144 0 0 10064 0 0 10281 0 0 10361 0 0 10200 0 0 10208 0 0 10210 0 0 10236 0 0 10208 0 0 10027 0 0 10066 0 0 10146 0 0 10204 0 0 10134 0 0 10279 0 0 10095 0 0 10114 0 0 10114 0 0 10132 0 0 10144 0 0 10151 0 0 10205 0 0 10238 0 0 10116 0 0 10093 0 0 10273 0 0 10136 0 0 10106 0 0 10197 0 0 10021 0 0 10132 0 0 10317 0 0 10093 0 0 10129 0 0 10033 0 0 4977 0 0 70 0 0 8 0 0 3 0 0 2 0 0 11 0 0 9 0 0 7 0 0 4 0 0 6 0 0 
0 0 0 3 0 0 5 0 0 3 0 0 5 0 0 7 0 0 11 0 0 14 0 0 16 0 0 56 0 0 5250 0 0 10051 0 0 10213 0 0 10377 0 0 10246 0 0 10213 0 0 10321 0 0 10191 0 0 10281 0 0 10104 0 0 9943 0 0 10157 0 0 10374 0 0 10203 0 0 10155 0 0 10216 0 0 10197 0 0 10351 0 0 10320 0 0 10294 0 0 10512 0 0 10309 0 0 10339 0 0 10202 0 0 10044 0 0 10065 0 0 10126 0 0 10196 0 0 10133 0 0 10374 0 0 10268 0 0 10358 0 0 10376 0 0 10036 0 0 10293 0 0 10201 0 0 10498 0 0 10042 0 0 10172 0 0 10208 0 0 5133 0 0 79 0 0 11 0 0 12 0 0 8 0 0 6 0 0 2 0 0 3 0 0 6 0 0 3 0 0 
0 0 0 5 0 0 8 0 0 8 0 0 10 0 0 10 0 0 4 0 0 9 0 0 12 0 0 64 0 0 5037 0 0 10043 0 0 10218 0 0 10281 0 0 10428 0 0 10292 0 0 10333 0 0 10113 0 0 10223 0 0 10211 0 0 10268 0 0 10313 0 0 10282 0 0 10237 0 0 10350 0 0 10224 0 0 10326 0 0 10195 0 0 10129 0 0 10239 0 0 10173 0 0 10303 0 0 10170 0 0 10274 0 0 10190 0 0 10256 0 0 10173 0 0 10220 0 0 10336 0 0 9952 0 0 10316 0 0 10314 0 0 10299 0 0 10014 0 0 10246 0 0 10453 0 0 10231 0 0 10201 0 0 10159 0 0 10082 0 0 5208 0 0 78 0 0 18 0 0 17 0 0 8 0 0 4 0 0 9 0 0 4 0 0 5 0 0 0 0 0 
2 0 0 3 0 0 3 0 0 7 0 0 6 0 0 7 0 0 9 0 0 12 0 0 15 0 0 79 0 0 5159 0 0 10067 0 0 10295 0 0 10217 0 0 10127 0 0 10359 0 0 10208 0 0 10340 0 0 10181 0 0 10287 0 0 10202 0 0 10324 0 0 10323 0 0 10033 0 0 10216 0 0 10406 0 0 10269 0 0 10199 0 0 10280 0 0 10291 0 0 10267 0 0 10476 0 0 10175 0 0 10204 0 0 10288 0 0 10342 0 0 10285 0 0 10253 0 0 10252 0 0 10090 0 0 10187 0 0 10376 0 0 10393 0 0 10227 0 0 10214 0 0 10275 0 0 10188 0 0 10276 0 0 10137 0 0 10220 0 0 5078 0 0 80 0 0 16 0 0 13 0 0 8 0 0 8 0 0 2 0 0 2 0 0 0 0 0 2 0 0 
1 0 0 0 0 0 3 0 0 5 0 0 9 0 0 8 0 0 5 0 0 9 0 0 19 0 0 82 0 0 5047 0 0 10123 0 0 10059 0 0 10295 0 0 10259 0 0 10262 0 0 10252 0 0 10315 0 0 10172 0 0 10202 0 0 10347 0 0 10246 0 0 10540 0 0 10282 0 0 10378 0 0 10163 0 0 10306 0 0 10222 0 0 10327 0 0 10238 0 0 10234 0 0 10225 0 0 10257 0 0 10287 0 0 10255 0 0 10321 0 0 10282 0 0 10238 0 0 10172 0 0 10206 0 0 10324 0 0 10239 0 0 10332 0 0 10355 0 0 10142 0 0 10249 0 0 10376 0 0 10349 0 0 10062 0 0 10211 0 0 5128 0 0 71 0 0 16 0 0 11 0 0 10 0 0 8 0 0 9 0 0 6 0 0 5 0 0 9 0 0 
0 0 0 5 0 0 7 0 0 1 0 0 2 0 0 5 0 0 10 0 0 15 0 0 25 0 0 81 0 0 5126 0 0 10168 0 0 10223 0 0 10292 0 0 10272 0 0 10140 0 0 10210 0 0 10251 0 0 10182 0 0 10205 0 0 10271 0 0 10339 0 0 10341 0 0 10116 0 0 10301 0 0 10250 0 0 10268 0 0 10423 0 0 10114 0 0 10283 0 0 10252 0 0 10212 0 0 10273 0 0 10164 0 0 10324 0 0 10299 0 0 10251 0 0 10281 0 0 10342 0 0 10082 0 0 10195 0 0 10227 0 0 10315 0 0 10246 0 0 10171 0 0 10154 0 0 10151 0 0 10232 0 0 10172 0 0 10210 0 0 5037 0 0 88 0 0 19 0 0 12 0 0 16 0 0 12 0 0 10 0 0 8 0 0 4 0 0 2 0 0 
2 0 0 4 0 0 5 0 0 4 0 0 6 0 0 6 0 0 3 0 0 8 0 0 12 0 0 72 0 0 5175 0 0 10215 0 0 10184 0 0 10203 0 0 10298 0 0 10222 0 0 10051 0 0 10356 0 0 10167 0 0 10342 0 0 10183 0 0 10271 0 0 10360 0 0 10241 0 0 10347 0 0 10155 0 0 10273 0 0 10265 0 0 10342 0 0 10333 0 0 10283 0 0 10307 0 0 10332 0 0 10287 0 0 10376 0 0 10306 0 0 10227 0 0 10470 0 0 10441 0 0 10303 0 0 10266 0 0 10245 0 0 10365 0 0 10156 0 0 10057 0 0 10186 0 0 10211 0 0 10330 0 0 10437 0 0 10117 0 0 4998 0 0 82 0 0 13 0 0 11 0 0 12 0 0 12 0 0 4 0 0 5 0 0 8 0 0 6 0 0 
3 0 0 4 0 0 3 0 0 5 0 0 4 0 0 7 0 0 8 0 0 11 0 0 18 0 0 84 0 0 5187 0 0 10164 0 0 10332 0 0 10284 0 0 10298 0 0 10312 0 0 10225 0 0 10404 0 0 10273 0 0 10468 0 0 10261 0 0 10149 0 0 10194 0 0 10307 0 0 10173 0 0 10257 0 0 10312 0 0 10304 0 0 10116 0 0 10298 0 0 10290 0 0 10432 0 0 10115 0 0 10108 0 0 10257 0 0 10218 0 0 10235 0 0 10252 0 0 10226 0 0 10266 0 0 10197 0 0 10227 0 0 10318 0 0 10303 0 0 10219 0 0 10104 0 0 10273 0 0 10162 0 0 10207 0 0 10237 0 0 5157 0 0 66 0 0 23 0 0 15 0 0 8 0 0 6 0 0 7 0 0 7 0 0 3 0 0 6 0 0 
1 0 0 2 0 0 6 0 0 9 0 0 7 0 0 8 0 0 6 0 0 9 0 0 14 0 0 58 0 0 5006 0 0 10121 0 0 10189 0 0 10316 0 0 10256 0 0 10134 0 0 10221 0 0 10051 0 0 10221 0 0 10353 0 0 10267 0 0 10298 0 0 10062 0 0 10265 0 0 10239 0 0 10153 0 0 10421 0 0 10268 0 0 10157 0 0 10279 0 0 10007 0 0 10246 0 0 10258 0 0 10309 0 0 10241 0 0 10233 0 0 10072 0 0 10340 0 0 10238 0 0 10100 0 0 10334 0 0 10305 0 0 10307 0 0 10165 0 0 10367 0 0 10327 0 0 10233 0 0 10166 0 0 10326 0 0 10050 0 0 5077 0 0 69 0 0 13 0 0 9 0 0 9 0 0 8 0 0 5 0 0 8 0 0 7 0 0 5 0 0 
1 0 0 2 0 0 2 0 0 7 0 0 10 0 0 17 0 0 11 0 0 11 0 0 10 0 0 75 0 0 5023 0 0 10091 0 0 10417 0 0 10230 0 0 10293 0 0 10281 0 0 10197 0 0 10180 0 0 10138 0 0 10379 0 0 10333 0 0 10366 0 0 10295 0 0 10127 0 0 10201 0 0 10149 0 0 10319 0 0 10292 0 0 10141 0 0 10377 0 0 10204 0 0 10308 0 0 10245 0 0 10241 0 0 10419 0 0 10318 0 0 10334 0 0 10240 0 0 10214 0 0 10291 0 0 10297 0 0 10270 0 0 10331 0 0 10399 0 0 10442 0 0 10340 0 0 10141 0 0 10114 0 0 10073 0 0 10244 0 0 5103 0 0 64 0 0 11 0 0 12 0 0 8 0 0 7 0 0 6 0 0 4 0 0 9 0 0 7 0 0 
0 0 0 4 0 0 3 0 0 4 0 0 12 0 0 11 0 0 14 0 0 11 0 0 15 0 0 91 0 0 4954 0 0 10301 0 0 10377 0 0 10278 0 0 10227 0 0 10187 0 0 10270 0 0 10270 0 0 10334 0 0 10283 0 0 10357 0 0 10278 0 0 10438 0 0 10035 0 0 10358 0 0 10254 0 0 10412 0 0 10428 0 0 10156 0 0 10374 0 0 10344 0 0 10161 0 0 10219 0 0 10262 0 0 10229 0 0 10298 0 0 10285 0 0 10223 0 0 10361 0 0 10332 0 0 10389 0 0 10323 0 0 10255 0 0 10467 0 0 10146 0 0 10217 0 0 10201 0 0 10415 0 0 10214 0 0 10137 0 0 5139 0 0 81 0 0 15 0 0 10 0 0 7 0 0 7 0 0 9 0 0 5 0 0 5 0 0 6 0 0 
2 0 0 5 0 0 7 0 0 0 0 0 6 0 0 12 0 0 15 0 0 19 0 0 15 0 0 67 0 0 5175 0 0 10109 0 0 10254 0 0 10469 0 0 10215 0 0 10294 0 0 10266 0 0 10281 0 0 10272 0 0 10219 0 0 10335 0 0 10489 0 0 10283 0 0 10341 0 0 10273 0 0 10342 0 0 10251 0 0 10173 0 0 10355 0 0 10275 0 0 10253 0 0 10167 0 0 10281 0 0 10259 0 0 10232 0 0 10330 0 0 10270 0 0 10124 0 0 10243 0 0 10151 0 0 10226 0 0 10213 0 0 10177 0 0 10382 0 0 10352 0 0 10151 0 0 10179 0 0 10403 0 0 10172 0 0 10238 0 0 5057 0 0 90 0 0 23 0 0 22 0 0 10 0 0 12 0 0 14 0 0 12 0 0 9 0 0 6 0 0 
0 0 0 4 0 0 10 0 0 13 0 0 7 0 0 10 0 0 8 0 0 12 0 0 18 0 0 66 0 0 5102 0 0 10327 0 0 10007 0 0 10265 0 0 10314 0 0 10257 0 0 10321 0 0 10235 0 0 10237 0 0 10326 0 0 10070 0 0 10116 0 0 10215 0 0 10227 0 0 10489 0 0 10099 0 0 10100 0 0 10139 0 0 10215 0 0 10061 0 0 10271 0 0 10387 0 0 10262 0 0 10267 0 0 10341 0 0 10183 0 0 10285 0 0 10105 0 0 10246 0 0 10374 0 0 9990 0 0 10194 0 0 10427 0 0 10341 0 0 10270 0 0 10174 0 0 10313 0 0 10206 0 0 10380 0 0 10293 0 0 5099 0 0 82 0 0 21 0 0 14 0 0 13 0 0 11 0 0 7 0 0 7 0 0 6 0 0 4 0 0 
4 0 0 7 0 0 5 0 0 3 0 0 12 0 0 13 0 0 12 0 0 16 0 0 19 0 0 90 0 0 5039 0 0 10043 0 0 10061 0 0 10237 0 0 10247 0 0 10253 0 0 10127 0 0 10266 0 0 10120 0 0 10352 0 0 10312 0 0 10235 0 0 10242 0 0 10245 0 0 10239 0 0 10211 0 0 10270 0 0 10281 0 0 10230 0 0 10241 0 0 10343 0 0 10337 0 0 10178 0 0 10167 0 0 10271 0 0 10226 0 0 10113 0 0 10342 0 0 10268 0 0 10206 0 0 10279 0 0 10312 0 0 10306 0 0 10364 0 0 10125 0 0 10249 0 0 10223 0 0 10304 0 0 10306 0 0 10145 0 0 5105 0 0 92 0 0 22 0 0 16 0 0 7 0 0 9 0 0 4 0 0 6 0 0 11 0 0 6 0 0 
2 0 0 6 0 0 4 0 0 11 0 0 15 0 0 10 0 0 10 0 0 16 0 0 18 0 0 70 0 0 5137 0 0 10241 0 0 10297 0 0 10315 0 0 10184 0 0 10438 0 0 10082 0 0 10287 0 0 10325 0 0 10349 0 0 10298 0 0 10321 0 0 10062 0 0 10299 0 0 10129 0 0 10241 0 0 10231 0 0 10187 0 0 10187 0 0 10377 0 0 10339 0 0 10198 0 0 10176 0 0 10226 0 0 10384 0 0 10217 0 0 10252 0 0 10177 0 0 10287 0 0 10404 0 0 10288 0 0 10450 0 0 10404 0 0 10246 0 0 10444 0 0 10282 0 0 10149 0 0 10253 0 0 10194 0 0 10135 0 0 5165 0 0 78 0 0 12 0 0 10 0 0 11 0 0 8 0 0 5 0 0 6 0 0 4 0 0 9 0 0 
0 0 0 4 0 0 7 0 0 7 0 0 5 0 0 10 0 0 9 0 0 10 0 0 12 0 0 79 0 0 5127 0 0 10244 0 0 10271 0 0 10228 0 0 10248 0 0 10416 0 0 10225 0 0 10289 0 0 10218 0 0 10246 0 0 10391 0 0 10242 0 0 10111 0 0 10337 0 0 10071 0 0 10341 0 0 10262 0 0 10241 0 0 10165 0 0 10147 0 0 10174 0 0 10242 0 0 10174 0 0 10243 0 0 10419 0 0 10234 0 0 10206 0 0 10261 0 0 10258 0 0 10435 0 0 10242 0 0 10435 0 0 10347 0 0 10157 0 0 10254 0 0 10305 0 0 10261 0 0 10244 0 0 10283 0 0 10185 0 0 5179 0 0 65 0 0 11 0 0 16 0 0 11 0 0 7 0 0 9 0 0 8 0 0 12 0 0 11 0 0 
4 0 0 8 0 0 5 0 0 6 0 0 6 0 0 9 0 0 13 0 0 13 0 0 12 0 0 95 0 0 5088 0 0 10256 0 0 10236 0 0 10427 0 0 10209 0 0 10259 0 0 10357 0 0 10230 0 0 10454 0 0 10326 0 0 10410 0 0 10149 0 0 10340 0 0 10259 0 0 10268 0 0 10288 0 0 10249 0 0 10202 0 0 10202 0 0 10063 0 0 10257 0 0 10269 0 0 10166 0 0 10149 0 0 10174 0 0 10267 0 0 10222 0 0 10326 0 0 10157 0 0 10201 0 0 10305 0 0 10088 0 0 10374 0 0 10350 0 0 10356 0 0 10480 0 0 10352 0 0 10271 0 0 10381 0 0 10142 0 0 5114 0 0 88 0 0 18 0 0 11 0 0 12 0 0 10 0 0 11 0 0 5 0 0 5 0 0 9 0 0 
3 0 0 6 0 0 7 0 0 8 0 0 17 0 0 9 0 0 8 0 0 11 0 0 22 0 0 73 0 0 5161 0 0 10301 0 0 10296 0 0 10367 0 0 10315 0 0 10269 0 0 10361 0 0 10099 0 0 10293 0 0 10241 0 0 10220 0 0 10164 0 0 10270 0 0 10180 0 0 10293 0 0 10177 0 0 10205 0 0 10149 0 0 10388 0 0 10144 0 0 10312 0 0 10362 0 0 10228 0 0 10078 0 0 10242 0 0 10106 0 0 10363 0 0 10222 0 0 10185 0 0 10352 0 0 10166 0 0 10253 0 0 10230 0 0 10313 0 0 10305 0 0 10369 0 0 10211 0 0 10178 0 0 10195 0 0 10331 0 0 5060 0 0 76 0 0 19 0 0 11 0 0 14 0 0 14 0 0 6 0 0 6 0 0 1 0 0 2 0 0 
2 0 0 5 0 0 4 0 0 3 0 0 10 0 0 19 0 0 13 0 0 15 0 0 19 0 0 82 0 0 5084 0 0 10109 0 0 10179 0 0 10247 0 0 10266 0 0 10217 0 0 10116 0 0 10339 0 0 10238 0 0 10117 0 0 10258 0 0 10311 0 0 10293 0 0 10184 0 0 10322 0 0 10546 0 0 10241 0 0 10269 0 0 10218 0 0 10349 0 0 10244 0 0 10179 0 0 10308 0 0 10327 0 0 10260 0 0 10215 0 0 10126 0 0 10354 0 0 10345 0 0 10347 0 0 10133 0 0 10288 0 0 10221 0 0 10269 0 0 10341 0 0 10278 0 0 10385 0 0 10223 0 0 10180 0 0 10183 0 0 5083 0 0 88 0 0 23 0 0 16 0 0 18 0 0 7 0 0 9 0 0 10 0 0 8 0 0 8 0 0 
2 0 0 6 0 0 9 0 0 6 0 0 8 0 0 10 0 0 15 0 0 23 0 0 28 0 0 84 0 0 5070 0 0 10175 0 0 10170 0 0 10119 0 0 10044 0 0 10319 0 0 10123 0 0 10253 0 0 10425 0 0 10309 0 0 10230 0 0 10157 0 0 10180 0 0 10258 0 0 10278 0 0 10272 0 0 10139 0 0 10268 0 0 10365 0 0 10261 0 0 10309 0 0 10511 0 0 10067 0 0 10213 0 0 10220 0 0 10227 0 0 9996 0 0 10254 0 0 10282 0 0 10380 0 0 10156 0 0 10297 0 0 10048 0 0 10062 0 0 10263 0 0 10510 0 0 10278 0 0 10208 0 0 10272 0 0 10096 0 0 5175 0 0 95 0 0 15 0 0 20 0 0 12 0 0 8 0 0 4 0 0 11 0 0 11 0 0 6 0 0 
2 0 0 5 0 0 7 0 0 9 0 0 12 0 0 8 0 0 14 0 0 17 0 0 17 0 0 76 0 0 5234 0 0 10223 0 0 10240 0 0 10244 0 0 10215 0 0 10275 0 0 10295 0 0 10258 0 0 10209 0 0 10285 0 0 10420 0 0 10224 0 0 10021 0 0 10202 0 0 10348 0 0 10279 0 0 10199 0 0 10124 0 0 10418 0 0 10314 0 0 10282 0 0 10396 0 0 10183 0 0 10207 0 0 10314 0 0 10209 0 0 10300 0 0 10101 0 0 10272 0 0 10405 0 0 10259 0 0 10434 0 0 10443 0 0 10416 0 0 10307 0 0 10332 0 0 10306 0 0 10301 0 0 10148 0 0 10290 0 0 5162 0 0 89 0 0 30 0 0 17 0 0 19 0 0 12 0 0 5 0 0 7 0 0 6 0 0 3 0 0 
4 0 0 8 0 0 8 0 0 13 0 0 11 0 0 8 0 0 5 0 0 7 0 0 19 0 0 89 0 0 5234 0 0 10215 0 0 10247 0 0 10362 0 0 10076 0 0 10220 0 0 10306 0 0 10418 0 0 10360 0 0 10173 0 0 10257 0 0 10304 0 0 10250 0 0 10328 0 0 10229 0 0 10244 0 0 10272 0 0 10234 0 0 10334 0 0 10135 0 0 10221 0 0 10259 0 0 10289 0 0 10160 0 0 10163 0 0 10343 0 0 10183 0 0 10183 0 0 10239 0 0 10252 0 0 10102 0 0 10354 0 0 10289 0 0 10183 0 0 10257 0 0 10272 0 0 10401 0 0 10441 0 0 10365 0 0 10234 0 0 5081 0 0 108 0 0 33 0 0 11 0 0 11 0 0 9 0 0 13 0 0 7 0 0 8 0 0 3 0 0 
2 0 0 6 0 0 11 0 0 8 0 0 9 0 0 5 0 0 8 0 0 14 0 0 17 0 0 86 0 0 5107 0 0 10379 0 0 10268 0 0 10159 0 0 10336 0 0 10380 0 0 10379 0 0 10261 0 0 10306 0 0 10127 0 0 10233 0 0 10139 0 0 10352 0 0 10295 0 0 10377 0 0 10294 0 0 10116 0 0 10247 0 0 10131 0 0 10181 0 0 10041 0 0 10149 0 0 10353 0 0 10287 0 0 10317 0 0 10266 0 0 10209 0 0 10266 0 0 10247 0 0 10205 0 0 10114 0 0 10157 0 0 10269 0 0 10302 0 0 10151 0 0 10474 0 0 10211 0 0 10256 0 0 10187 0 0 10151 0 0 5114 0 0 87 0 0 14 0 0 7 0 0 6 0 0 8 0 0 9 0 0 9 0 0 8 0 0 5 0 0 
3 0 0 1 0 0 6 0 0 7 0 0 9 0 0 14 0 0 13 0 0 12 0 0 16 0 0 84 0 0 5102 0 0 10176 0 0 10166 0 0 10073 0 0 10266 0 0 10339 0 0 10256 0 0 10311 0 0 10095 0 0 10236 0 0 10237 0 0 10303 0 0 10324 0 0 10352 0 0 10155 0 0 10311 0 0 10258 0 0 10107 0 0 10273 0 0 10209 0 0 10199 0 0 10189 0 0 10239 0 0 10366 0 0 10301 0 0 10443 0 0 10208 0 0 10084 0 0 10334 0 0 10250 0 0 10192 0 0 10370 0 0 10390 0 0 10255 0 0 10288 0 0 10185 0 0 10276 0 0 10294 0 0 10294 0 0 10086 0 0 5192 0 0 100 0 0 22 0 0 16 0 0 8 0 0 10 0 0 10 0 0 7 0 0 4 0 0 4 0 0 
1 0 0 8 0 0 7 0 0 8 0 0 8 0 0 10 0 0 10 0 0 14 0 0 20 0 0 81 0 0 5229 0 0 10236 0 0 10335 0 0 10213 0 0 10310 0 0 10150 0 0 10212 0 0 10175 0 0 10388 0 0 10188 0 0 10290 0 0 10190 0 0 10228 0 0 10233 0 0 10257 0 0 10318 0 0 10183 0 0 10471 0 0 10288 0 0 10195 0 0 10313 0 0 10317 0 0 10336 0 0 10301 0 0 10248 0 0 10187 0 0 10226 0 0 10122 0 0 10514 0 0 10170 0 0 10420 0 0 10190 0 0 10230 0 0 10175 0 0 10278 0 0 10306 0 0 10175 0 0 10254 0 0 10112 0 0 10210 0 0 5139 0 0 92 0 0 13 0 0 14 0 0 14 0 0 13 0 0 5 0 0 1 0 0 3 0 0 3 0 0 
0 0 0 5 0 0 6 0 0 2 0 0 9 0 0 10 0 0 17 0 0 25 0 0 21 0 0 93 0 0 5184 0 0 10197 0 0 10328 0 0 10335 0 0 10285 0 0 10154 0 0 10210 0 0 10231 0 0 10173 0 0 10363 0 0 10297 0 0 10201 0 0 10310 0 0 10458 0 0 10318 0 0 10360 0 0 10209 0 0 10293 0 0 10276 0 0 10154 0 0 10229 0 0 10254 0 0 10357 0 0 10269 0 0 10142 0 0 10258 0 0 10308 0 0 10327 0 0 10426 0 0 10415 0 0 10205 0 0 10147 0 0 10141 0 0 10330 0 0 10323 0 0 10207 0 0 10313 0 0 10263 0 0 10143 0 0 10226 0 0 5192 0 0 82 0 0 26 0 0 19 0 0 10 0 0 8 0 0 8 0 0 9 0 0 9 0 0 10 0 0 
1 0 0 2 0 0 2 0 0 6 0 0 6 0 0 15 0 0 15 0 0 19 0 0 24 0 0 78 0 0 5260 0 0 10201 0 0 10303 0 0 10375 0 0 10250 0 0 10331 0 0 10244 0 0 10406 0 0 10317 0 0 10101 0 0 10259 0 0 10281 0 0 10147 0 0 10247 0 0 10335 0 0 10152 0 0 10126 0 0 10302 0 0 10440 0 0 10225 0 0 10341 0 0 10325 0 0 10294 0 0 10214 0 0 10098 0 0 10259 0 0 10229 0 0 10264 0 0 10174 0 0 10224 0 0 10115 0 0 10114 0 0 10259 0 0 10199 0 0 10194 0 0 10358 0 0 10243 0 0 10315 0 0 10125 0 0 10233 0 0 5096 0 0 75 0 0 20 0 0 18 0 0 8 0 0 12 0 0 12 0 0 13 0 0 8 0 0 8 0 0 
3 0 0 5 0 0 8 0 0 11 0 0 12 0 0 11 0 0 15 0 0 14 0 0 16 0 0 81 0 0 5112 0 0 10123 0 0 10217 0 0 10112 0 0 10222 0 0 10134 0 0 10164 0 0 10168 0 0 10250 0 0 10174 0 0 10302 0 0 10179 0 0 10208 0 0 10243 0 0 10185 0 0 10232 0 0 10156 0 0 10384 0 0 10264 0 0 10205 0 0 10284 0 0 10338 0 0 10181 0 0 10390 0 0 10259 0 0 10292 0 0 10098 0 0 10298 0 0 10339 0 0 10189 0 0 10237 0 0 10374 0 0 10296 0 0 10210 0 0 10202 0 0 10247 0 0 10271 0 0 10235 0 0 10269 0 0 10206 0 0 5071 0 0 77 0 0 20 0 0 15 0 0 15 0 0 16 0 0 9 0 0 13 0 0 9 0 0 4 0 0 
3 0 0 8 0 0 8 0 0 6 0 0 3 0 0 3 0 0 10 0 0 19 0 0 13 0 0 92 0 0 5152 0 0 10128 0 0 10184 0 0 10164 0 0 10279 0 0 10240 0 0 10198 0 0 10116 0 0 10523 0 0 10305 0 0 10422 0 0 10297 0 0 10084 0 0 10060 0 0 10234 0 0 10331 0 0 10372 0 0 10336 0 0 10413 0 0 10178 0 0 10168 0 0 10108 0 0 10348 0 0 10128 0 0 10224 0 0 10340 0 0 10433 0 0 10233 0 0 10064 0 0 10125 0 0 10212 0 0 10382 0 0 10225 0 0 10204 0 0 10243 0 0 10141 0 0 10214 0 0 10287 0 0 10063 0 0 10279 0 0 5161 0 0 89 0 0 18 0 0 12 0 0 12 0 0 9 0 0 7 0 0 7 0 0 7 0 0 8 0 0 
5 0 0 8 0 0 10 0 0 4 0 0 5 0 0 10 0 0 10 0 0 12 0 0 17 0 0 87 0 0 5105 0 0 10094 0 0 10283 0 0 10296 0 0 10349 0 0 10204 0 0 10243 0 0 10428 0 0 10318 0 0 10191 0 0 10347 0 0 10341 0 0 10338 0 0 10261 0 0 10374 0 0 10257 0 0 10269 0 0 10132 0 0 10349 0 0 10259 0 0 10303 0 0 10294 0 0 10207 0 0 10195 0 0 10361 0 0 10301 0 0 10175 0 0 10282 0 0 10289 0 0 10130 0 0 10268 0 0 10403 0 0 10246 0 0 10216 0 0 10385 0 0 10265 0 0 10318 0 0 10133 0 0 10251 0 0 10171 0 0 5103 0 0 74 0 0 15 0 0 20 0 0 11 0 0 11 0 0 4 0 0 5 0 0 5 0 0 4 0 0 
3 0 0 5 0 0 4 0 0 4 0 0 8 0 0 12 0 0 11 0 0 7 0 0 12 0 0 79 0 0 5087 0 0 10291 0 0 10262 0 0 10240 0 0 10260 0 0 10514 0 0 10233 0 0 10208 0 0 10282 0 0 10144 0 0 10223 0 0 10156 0 0 10305 0 0 10189 0 0 10223 0 0 10329 0 0 10238 0 0 10343 0 0 10288 0 0 10196 0 0 10257 0 0 10198 0 0 10506 0 0 10207 0 0 10424 0 0 10352 0 0 10188 0 0 10464 0 0 10335 0 0 10329 0 0 10269 0 0 10390 0 0 10197 0 0 10346 0 0 10178 0 0 10366 0 0 10297 0 0 10405 0 0 10271 0 0 10133 0 0 5207 0 0 84 0 0 18 0 0 12 0 0 7 0 0 9 0 0 13 0 0 8 0 0 9 0 0 1 0 0 
1 0 0 4 0 0 6 0 0 7 0 0 10 0 0 11 0 0 6 0 0 8 0 0 15 0 0 80 0 0 5080 0 0 10087 0 0 10281 0 0 10363 0 0 10344 0 0 10364 0 0 10369 0 0 10235 0 0 10296 0 0 10312 0 0 10293 0 0 10121 0 0 10153 0 0 10276 0 0 10254 0 0 10132 0 0 10159 0 0 10334 0 0 10142 0 0 10263 0 0 10216 0 0 10310 0 0 10204 0 0 10135 0 0 10404 0 0 10254 0 0 10259 0 0 10179 0 0 10221 0 0 10000 0 0 10324 0 0 10323 0 0 10340 0 0 10331 0 0 10296 0 0 10271 0 0 10102 0 0 10282 0 0 10385 0 0 10163 0 0 5144 0 0 79 0 0 20 0 0 19 0 0 11 0 0 6 0 0 6 0 0 12 0 0 8 0 0 4 0 0 
4 0 0 6 0 0 6 0 0 8 0 0 8 0 0 4 0 0 9 0 0 15 0 0 20 0 0 85 0 0 5107 0 0 10105 0 0 10114 0 0 10267 0 0 10288 0 0 10184 0 0 10239 0 0 10339 0 0 10179 0 0 10196 0 0 10162 0 0 10303 0 0 10209 0 0 10283 0 0 10180 0 0 10393 0 0 10344 0 0 10239 0 0 10218 0 0 10412 0 0 10346 0 0 10323 0 0 10337 0 0 10295 0 0 10191 0 0 10455 0 0 10328 0 0 10291 0 0 10309 0 0 10093 0 0 10272 0 0 10135 0 0 10236 0 0 10153 0 0 10134 0 0 10271 0 0 10190 0 0 10296 0 0 10198 0 0 10269 0 0 5092 0 0 80 0 0 21 0 0 23 0 0 22 0 0 12 0 0 11 0 0 4 0 0 5 0 0 4 0 0 
1 0 0 4 0 0 5 0 0 4 0 0 0 0 0 12 0 0 11 0 0 13 0 0 17 0 0 103 0 0 5090 0 0 10281 0 0 10384 0 0 10196 0 0 10365 0 0 10185 0 0 10268 0 0 10192 0 0 10158 0 0 10264 0 0 10285 0 0 10300 0 0 10272 0 0 10374 0 0 10344 0 0 10344 0 0 10377 0 0 10382 0 0 10463 0 0 10328 0 0 10317 0 0 10179 0 0 10309 0 0 10476 0 0 10189 0 0 10246 0 0 10286 0 0 10260 0 0 10306 0 0 10314 0 0 10386 0 0 10190 0 0 10370 0 0 10096 0 0 10213 0 0 10283 0 0 10323 0 0 10295 0 0 10141 0 0 10196 0 0 5072 0 0 93 0 0 23 0 0 15 0 0 11 0 0 12 0 0 6 0 0 8 0 0 7 0 0 8 0 0 
2 0 0 8 0 0 9 0 0 6 0 0 6 0 0 11 0 0 10 0 0 13 0 0 20 0 0 98 0 0 5199 0 0 10173 0 0 10259 0 0 10249 0 0 10204 0 0 10224 0 0 10298 0 0 10313 0 0 10228 0 0 10382 0 0 10068 0 0 10320 0 0 10250 0 0 10225 0 0 10213 0 0 10248 0 0 10343 0 0 10339 0 0 10070 0 0 10416 0 0 10112 0 0 10388 0 0 10354 0 0 10227 0 0 10365 0 0 10436 0 0 10309 0 0 10175 0 0 10224 0 0 10192 0 0 10128 0 0 10431 0 0 10197 0 0 10360 0 0 10175 0 0 10206 0 0 10201 0 0 10374 0 0 10047 0 0 10285 0 0 5235 0 0 88 0 0 11 0 0 12 0 0 8 0 0 7 0 0 8 0 0 1 0 0 5 0 0 5 0 0 
0 0 0 4 0 0 4 0 0 2 0 0 8 0 0 6 0 0 9 0 0 15 0 0 19 0 0 78 0 0 5236 0 0 10131 0 0 10185 0 0 10121 0 0 10172 0 0 10373 0 0 10113 0 0 10248 0 0 10411 0 0 10331 0 0 10345 0 0 10223 0 0 10230 0 0 10246 0 0 10474 0 0 10368 0 0 10135 0 0 10042 0 0 10324 0 0 10261 0 0 9994 0 0 10321 0 0 10201 0 0 10278 0 0 10238 0 0 10197 0 0 10349 0 0 10277 0 0 10204 0 0 10288 0 0 10385 0 0 10304 0 0 10202 0 0 10263 0 0 10239 0 0 10232 0 0 10179 0 0 10237 0 0 10220 0 0 10187 0 0 5198 0 0 69 0 0 20 0 0 14 0 0 8 0 0 4 0 0 10 0 0 13 0 0 6 0 0 8 0 0 
3 0 0 8 0 0 3 0 0 5 0 0 5 0 0 8 0 0 12 0 0 18 0 0 15 0 0 79 0 0 5153 0 0 10221 0 0 10380 0 0 10236 0 0 10231 0 0 10195 0 0 10217 0 0 9990 0 0 10178 0 0 10141 0 0 10161 0 0 10324 0 0 10170 0 0 10147 0 0 10297 0 0 10117 0 0 10188 0 0 10152 0 0 10259 0 0 10195 0 0 10078 0 0 10068 0 0 10312 0 0 10018 0 0 10323 0 0 10099 0 0 10257 0 0 10429 0 0 10292 0 0 10099 0 0 10224 0 0 10296 0 0 10169 0 0 10187 0 0 10108 0 0 10372 0 0 10159 0 0 10190 0 0 10227 0 0 10373 0 0 5059 0 0 84 0 0 13 0 0 12 0 0 7 0 0 6 0 0 3 0 0 5 0 0 7 0 0 4 0 0 
2 0 0 7 0 0 2 0 0 1 0 0 2 0 0 8 0 0 10 0 0 11 0 0 10 0 0 75 0 0 5071 0 0 10045 0 0 10366 0 0 10299 0 0 10120 0 0 10296 0 0 10151 0 0 10415 0 0 10361 0 0 10318 0 0 10291 0 0 10183 0 0 10265 0 0 10210 0 0 10083 0 0 10096 0 0 10187 0 0 10283 0 0 10057 0 0 10397 0 0 10210 0 0 10297 0 0 10231 0 0 10198 0 0 10114 0 0 10324 0 0 10146 0 0 10068 0 0 10298 0 0 10376 0 0 10162 0 0 10293 0 0 10177 0 0 10218 0 0 10180 0 0 10167 0 0 10186 0 0 10222 0 0 10241 0 0 10342 0 0 5060 0 0 79 0 0 16 0 0 14 0 0 12 0 0 6 0 0 3 0 0 3 0 0 8 0 0 8 0 0 
2 0 0 2 0 0 5 0 0 7 0 0 3 0 0 2 0 0 7 0 0 12 0 0 14 0 0 69 0 0 5209 0 0 10224 0 0 10204 0 0 10094 0 0 10041 0 0 10178 0 0 10271 0 0 10190 0 0 9980 0 0 10054 0 0 10161 0 0 10175 0 0 10223 0 0 10220 0 0 10176 0 0 10003 0 0 10099 0 0 10171 0 0 10175 0 0 10255 0 0 9989 0 0 10174 0 0 10128 0 0 10233 0 0 10118 0 0 10210 0 0 10152 0 0 10113 0 0 10063 0 0 10263 0 0 10129 0 0 10050 0 0 10310 0 0 9988 0 0 10100 0 0 10079 0 0 10085 0 0 10200 0 0 10182 0 0 10103 0 0 5145 0 0 75 0 0 11 0 0 6 0 0 7 0 0 8 0 0 8 0 0 3 0 0 3 0 0 4 0 0 
2 0 0 5 0 0 3 0 0 7 0 0 8 0 0 9 0 0 13 0 0 9 0 0 8 0 0 47 0 0 2524 0 0 5150 0 0 5257 0 0 5186 0 0 5100 0 0 5013 0 0 5224 0 0 5155 0 0 5096 0 0 5158 0 0 5178 0 0 4991 0 0 5148 0 0 5144 0 0 5149 0 0 5178 0 0 5138 0 0 4999 0 0 5150 0 0 5127 0 0 5123 0 0 5113 0 0 5087 0 0 5061 0 0 5257 0 0 5169 0 0 5190 0 0 5131 0 0 5217 0 0 4974 0 0 5121 0 0 5147 0 0 5042 0 0 5157 0 0 5244 0 0 5061 0 0 5128 0 0 5216 0 0 5162 0 0 5168 0 0 2520 0 0 48 0 0 19 0 0 7 0 0 6 0 0 5 0 0 6 0 0 1 0 0 2 0 0 2 0 0 
2 0 0 3 0 0 4 0 0 5 0 0 5 0 0 14 0 0 7 0 0 8 0 0 10 0 0 6 0 0 30 0 0 93 0 0 73 0 0 79 0 0 91 0 0 75 0 0 71 0 0 95 0 0 81 0 0 71 0 0 79 0 0 74 0 0 77 0 0 77 0 0 73 0 0 79 0 0 84 0 0 93 0 0 89 0 0 71 0 0 77 0 0 81 0 0 87 0 0 84 0 0 80 0 0 84 0 0 73 0 0 81 0 0 84 0 0 93 0 0 78 0 0 78 0 0 91 0 0 78 0 0 84 0 0 85 0 0 82 0 0 83 0 0 79 0 0 70 0 0 35 0 0 12 0 0 11 0 0 11 0 0 5 0 0 3 0 0 10 0 0 7 0 0 1 0 0 2 0 0 
0 0 0 4 0 0 9 0 0 5 0 0 8 0 0 5 0 0 5 0 0 7 0 0 5 0 0 12 0 0 9 0 0 9 0 0 15 0 0 16 0 0 14 0 0 18 0 0 19 0 0 19 0 0 15 0 0 12 0 0 19 0 0 15 0 0 15 0 0 13 0 0 12 0 0 19 0 0 20 0 0 28 0 0 22 0 0 16 0 0 12 0 0 24 0 0 14 0 0 24 0 0 20 0 0 22 0 0 16 0 0 19 0 0 28 0 0 26 0 0 18 0 0 17 0 0 14 0 0 21 0 0 23 0 0 14 0 0 22 0 0 16 0 0 10 0 0 9 0 0 9 0 0 6 0 0 6 0 0 8 0 0 4 0 0 5 0 0 7 0 0 5 0 0 6 0 0 4 0 0 
0 0 0 4 0 0 4 0 0 6 0 0 7 0 0 6 0 0 3 0 0 7 0 0 8 0 0 10 0 0 5 0 0 10 0 0 11 0 0 7 0 0 9 0 0 9 0 0 5 0 0 9 0 0 13 0 0 10 0 0 12 0 0 10 0 0 12 0 0 13 0 0 12 0 0 17 0 0 22 0 0 15 0 0 11 0 0 18 0 0 20 0 0 11 0 0 14 0 0 15 0 0 20 0 0 13 0 0 14 0 0 16 0 0 16 0 0 18 0 0 14 0 0 9 0 0 14 0 0 19 0 0 18 0 0 12 0 0 13 0 0 8 0 0 5 0 0 8 0 0 4 0 0 6 0 0 7 0 0 8 0 0 6 0 0 4 0 0 4 0 0 4 0 0 1 0 0 1 0 0 
1 0 0 2 0 0 4 0 0 4 0 0 1 0 0 2 0 0 4 0 0 6 0 0 8 0 0 3 0 0 5 0 0 8 0 0 8 0 0 5 0 0 7 0 0 6 0 0 9 0 0 7 0 0 13 0 0 9 0 0 10 0 0 12 0 0 12 0 0 11 0 0 11 0 0 14 0 0 15 0 0 5 0 0 12 0 0 14 0 0 12 0 0 12 0 0 7 0 0 12 0 0 13 0 0 10 0 0 5 0 0 14 0 0 12 0 0 11 0 0 9 0 0 13 0 0 9 0 0 13 0 0 15 0 0 12 0 0 14 0 0 3 0 0 5 0 0 3 0 0 4 0 0 4 0 0 7 0 0 5 0 0 8 0 0 3 0 0 2 0 0 1 0 0 3 0 0 4 0 0 
1 0 0 3 0 0 1 0 0 0 0 0 0 0 0 3 0 0 5 0 0 5 0 0 2 0 0 5 0 0 8 0 0 8 0 0 7 0 0 7 0 0 3 0 0 7 0 0 11 0 0 14 0 0 12 0 0 8 0 0 8 0 0 12 0 0 13 0 0 10 0 0 10 0 0 16 0 0 14 0 0 10 0 0 10 0 0 9 0 0 12 0 0 12 0 0 10 0 0 13 0 0 12 0 0 11 0 0 7 0 0 14 0 0 7 0 0 8 0 0 8 0 0 9 0 0 8 0 0 8 0 0 10 0 0 9 0 0 17 0 0 12 0 0 6 0 0 5 0 0 5 0 0 6 0 0 4 0 0 2 0 0 4 0 0 1 0 0 3 0 0 6 0 0 2 0 0 4 0 0 
1 0 0 1 0 0 1 0 0 0 0 0 1 0 0 3 0 0 3 0 0 3 0 0 5 0 0 7 0 0 6 0 0 5 0 0 8 0 0 5 0 0 9 0 0 9 0 0 9 0 0 7 0 0 7 0 0 11 0 0 10 0 0 4 0 0 7 0 0 5 0 0 7 0 0 10 0 0 11 0 0 13 0 0 12 0 0 5 0 0 6 0 0 12 0 0 10 0 0 8 0 0 11 0 0 7 0 0 8 0 0 12 0 0 7 0 0 3 0 0 10 0 0 11 0 0 15 0 0 4 0 0 8 0 0 7 0 0 5 0 0 6 0 0 8 0 0 7 0 0 6 0 0 8 0 0 7 0 0 3 0 0 2 0 0 4 0 0 4 0 0 5 0 0 3 0 0 5 0 0 
0 0 0 2 0 0 1 0 0 0 0 0 2 0 0 2 0 0 1 0 0 3 0 0 3 0 0 4 0 0 1 0 0 4 0 0 2 0 0 4 0 0 4 0 0 12 0 0 5 0 0 7 0 0 8 0 0 12 0 0 10 0 0 4 0 0 8 0 0 5 0 0 10 0 0 7 0 0 7 0 0 8 0 0 11 0 0 7 0 0 11 0 0 8 0 0 9 0 0 9 0 0 7 0 0 7 0 0 6 0 0 10 0 0 8 0 0 6 0 0 6 0 0 7 0 0 7 0 0 11 0 0 6 0 0 5 0 0 5 0 0 5 0 0 4 0 0 5 0 0 3 0 0 11 0 0 4 0 0 4 0 0 0 0 0 1 0 0 2 0 0 4 0 0 0 0 0 5 0 0 
0 0 0 0 0 0 0 0 0 0 0 0 1 0 0 6 0 0 3 0 0 5 0 0 4 0 0 6 0 0 5 0 0 2 0 0 2 0 0 3 0 0 5 0 0 5 0 0 3 0 0 6 0 0 8 0 0 11 0 0 7 0 0 8 0 0 7 0 0 5 0 0 11 0 0 3 0 0 5 0 0 10 0 0 8 0 0 6 0 0 6 0 0 6 0 0 6 0 0 4 0 0 11 0 0 3 0 0 5 0 0 9 0 0 13 0 0 6 0 0 4 0 0 5 0 0 4 0 0 4 0 0 11 0 0 4 0 0 5 0 0 13 0 0 2 0 0 8 0 0 3 0 0 7 0 0 8 0 0 2 0 0 4 0 0 1 0 0 2 0 0 2 0 0 4 0 0 2 0 0 
0 0 0 1 0 0 1 0 0 2 0 0 5 0 0 6 0 0 2 0 0 5 0 0 8 0 0 6 0 0 4 0 0 2 0 0 4 0 0 4 0 0 4 0 0 5 0 0 4 0 0 5 0 0 9 0 0 11 0 0 3 0 0 8 0 0 3 0 0 7 0 0 8 0 0 1 0 0 5 0 0 8 0 0 7 0 0 5 0 0 1 0 0 6 0 0 4 0 0 8 0 0 4 0 0 6 0 0 6 0 0 10 0 0 8 0 0 7 0 0 5 0 0 4 0 0 4 0 0 5 0 0 5 0 0 4 0 0 3 0 0 10 0 0 5 0 0 2 0 0 4 0 0 4 0 0 5 0 0 1 0 0 5 0 0 3 0 0 2 0 0 2 0 0 2 0 0 2 0 0 
