P3
# This is a dose file slice at depth 45 of 100
60 60
# now we give the maximum value of the RGB coordinates.
34204
0 0 0 0 0 0 0 0 0 0 0 0 0 0 0 0 0 0 0 0 0 0 0 0 0 0 0 0 0 0 0 0 0 0 0 0 0 0 0 0 0 0 0 0 0 0 0 0 0 0 0 0 0 0 0 0 0 0 0 0 0 0 0 0 0 0 0 0 0 0 0 0 0 0 0 0 0 0 0 0 0 0 0 0 0 0 0 0 0 0 0 0 0 0 0 0 0 0 0 0 0 0 0 0 0 0 0 0 0 0 0 0 0 0 0 0 0 0 0 0 0 0 0 0 0 0 0 0 0 0 0 0 0 0 0 0 0 0 0 0 0 0 0 0 0 0 0 0 0 0 0 0 0 0 0 0 0 0 0 0 0 0 0 0 0 0 0 0 0 0 0 0 0 0 0 0 0 0 0 0 
0 0 0 0 0 0 0 0 0 0 0 0 0 0 0 0 0 0 0 0 0 0 0 0 0 0 0 0 0 0 0 0 0 0 0 0 0 0 0 0 0 0 0 0 0 0 0 0 0 0 0 0 0 0 0 0 0 0 0 0 0 0 0 0 0 0 0 0 0 0 0 0 0 0 0 0 0 0 0 0 0 0 0 0 0 0 0 0 0 0 0 0 0 0 0 0 0 0 0 0 0 0 0 0 0 0 0 0 0 0 0 0 0 0 0 0 0 0 0 0 0 0 0 0 0 0 0 0 0 0 0 0 0 0 0 0 0 0 0 0 0 0 0 0 0 0 0 0 0 0 0 0 0 0 0 0 0 0 0 0 0 0 0 0 0 0 0 0 0 0 0 0 0 0 0 0 0 0 0 0 
0 0 0 0 0 0 0 0 0 0 0 0 0 0 0 0 0 0 0 0 0 0 0 0 0 0 0 0 0 0 0 0 0 0 0 0 0 0 0 0 0 0 0 0 0 0 0 0 0 0 0 0 0 0 0 0 0 0 0 0 0 0 0 0 0 0 0 0 0 0 0 0 0 0 0 0 0 0 0 0 0 0 0 0 0 0 0 0 0 0 0 0 0 0 0 0 0 0 0 0 0 0 0 0 0 0 0 0 0 0 0 0 0 0 0 0 0 0 0 0 0 0 0 0 0 0 0 0 0 0 0 0 0 0 0 0 0 0 0 0 0 0 0 0 0 0 0 0 0 0 0 0 0 0 0 0 0 0 0 0 0 0 0 0 0 0 0 0 0 0 0 0 0 0 0 0 0 0 0 0 
0 0 0 0 0 0 0 0 0 0 0 0 0 0 0 0 0 0 0 0 0 0 0 0 0 0 0 0 0 0 0 0 0 0 0 0 0 0 0 0 0 0 0 0 0 0 0 0 0 0 0 0 0 0 0 0 0 0 0 0 0 0 0 0 0 0 0 0 0 0 0 0 0 0 0 0 0 0 0 0 0 0 0 0 0 0 0 0 0 0 0 0 0 0 0 0 0 0 0 0 0 0 0 0 0 0 0 0 0 0 0 0 0 0 0 0 0 0 0 0 0 0 0 0 0 0 0 0 0 0 0 0 0 0 0 0 0 0 0 0 0 0 0 0 0 0 0 0 0 0 0 0 0 0 0 0 0 0 0 0 0 0 0 0 0 0 0 0 0 0 0 0 0 0 0 0 0 0 0 0 
0 0 0 0 0 0 0 0 0 0 0 0 0 0 0 0 0 0 0 0 0 0 0 0 0 0 0 0 0 0 0 0 0 0 0 0 0 0 0 0 0 0 0 0 0 0 0 0 0 0 0 0 0 0 0 0 0 0 0 0 0 0 0 0 0 0 0 0 0 0 0 0 0 0 0 0 0 0 0 0 0 0 0 0 0 0 0 0 0 0 0 0 0 0 0 0 0 0 0 0 0 0 0 0 0 0 0 0 0 0 0 0 0 0 0 0 0 0 0 0 0 0 0 0 0 0 0 0 0 0 0 0 0 0 0 0 0 0 0 0 0 0 0 0 0 0 0 0 0 0 0 0 0 0 0 0 0 0 0 0 0 0 0 0 0 0 0 0 0 0 0 0 0 0 0 0 0 0 0 0 
0 0 0 0 0 0 0 0 0 0 0 0 0 0 0 0 0 0 0 0 0 0 0 0 0 0 0 0 0 0 0 0 0 0 0 0 0 0 0 0 0 0 0 0 0 0 0 0 0 0 0 0 0 0 0 0 0 0 0 0 0 0 0 0 0 0 0 0 0 0 0 0 0 0 0 0 0 0 0 0 0 0 0 0 0 0 0 0 0 0 0 0 0 0 0 0 0 0 0 0 0 0 0 0 0 0 0 0 0 0 0 0 0 0 0 0 0 0 0 0 0 0 0 0 0 0 0 0 0 0 0 0 0 0 0 0 0 0 0 0 0 0 0 0 0 0 0 0 0 0 0 0 0 0 0 0 0 0 0 0 0 0 0 0 0 0 0 0 0 0 0 0 0 0 0 0 0 0 0 0 
0 0 0 0 0 0 0 0 0 0 0 0 0 0 0 0 0 0 0 0 0 0 0 0 0 0 0 0 0 0 0 0 0 0 0 0 0 0 0 0 0 0 0 0 0 0 0 0 0 0 0 0 0 0 0 0 0 0 0 0 0 0 0 0 0 0 0 0 0 0 0 0 0 0 0 0 0 0 0 0 0 0 0 0 0 0 0 0 0 0 0 0 0 0 0 0 0 0 0 0 0 0 0 0 0 0 0 0 0 0 0 0 0 0 0 0 0 0 0 0 0 0 0 0 0 0 0 0 0 0 0 0 0 0 0 0 0 0 0 0 0 0 0 0 0 0 0 0 0 0 0 0 0 0 0 0 0 0 0 0 0 0 0 0 0 0 0 0 0 0 0 0 0 0 0 0 0 0 0 0 
0 0 0 0 0 0 0 0 0 0 0 0 0 0 0 0 0 0 0 0 0 0 0 0 0 0 0 0 0 0 0 0 0 0 0 0 0 0 0 0 0 0 0 0 0 0 0 0 0 0 0 0 0 0 0 0 0 0 0 0 0 0 0 0 0 0 0 0 0 0 0 0 0 0 0 0 0 0 0 0 0 0 0 0 0 0 0 0 0 0 0 0 0 0 0 0 0 0 0 0 0 0 0 0 0 0 0 0 0 0 0 0 0 0 0 0 0 0 0 0 0 0 0 0 0 0 0 0 0 0 0 0 0 0 0 0 0 0 0 0 0 0 0 0 0 0 0 0 0 0 0 0 0 0 0 0 0 0 0 0 0 0 0 0 0 0 0 0 0 0 0 0 0 0 0 0 0 0 0 0 
0 0 0 0 0 0 0 0 0 0 0 0 0 0 0 0 0 0 0 0 0 0 0 0 0 0 0 0 0 0 0 0 0 0 0 0 0 0 0 0 0 0 0 0 0 0 0 0 0 0 0 0 0 0 0 0 0 0 0 0 0 0 0 0 0 0 0 0 0 0 0 0 0 0 0 0 0 0 0 0 0 0 0 0 0 0 0 0 0 0 0 0 0 0 0 0 0 0 0 0 0 0 0 0 0 0 0 0 0 0 0 0 0 0 0 0 0 0 0 0 0 0 0 0 0 0 0 0 0 0 0 0 0 0 0 0 0 0 0 0 0 0 0 0 0 0 0 0 0 0 0 0 0 0 0 0 0 0 0 0 0 0 0 0 0 0 0 0 0 0 0 0 0 0 0 0 0 0 0 0 
0 0 0 0 0 0 0 0 0 0 0 0 0 0 0 0 0 0 0 0 0 0 0 0 0 0 0 0 0 0 0 0 0 0 0 0 0 0 0 0 0 0 0 0 0 0 0 0 0 0 0 0 0 0 0 0 0 0 0 0 0 0 0 0 0 0 0 0 0 0 0 0 0 0 0 0 0 0 0 0 0 0 0 0 0 0 0 0 0 0 0 0 0 0 0 0 0 0 0 0 0 0 0 0 0 0 0 0 0 0 0 0 0 0 0 0 0 0 0 0 0 0 0 0 0 0 0 0 0 0 0 0 0 0 0 0 0 0 0 0 0 0 0 0 0 0 0 0 0 0 0 0 0 0 0 0 0 0 0 0 0 0 0 0 0 0 0 0 0 0 0 0 0 0 0 0 0 0 0 0 
0 0 0 0 0 0 0 0 0 0 0 0 0 0 0 0 0 0 0 0 0 0 0 0 0 0 0 0 0 0 2198 0 0 4440 0 0 4519 0 0 4467 0 0 4533 0 0 4463 0 0 4395 0 0 4494 0 0 4529 0 0 4529 0 0 4519 0 0 4486 0 0 4520 0 0 4436 0 0 4427 0 0 4343 0 0 4562 0 0 4447 0 0 4452 0 0 4329 0 0 4477 0 0 4434 0 0 4373 0 0 4400 0 0 4421 0 0 4365 0 0 4502 0 0 4523 0 0 4477 0 0 4475 0 0 4484 0 0 4541 0 0 4315 0 0 4512 0 0 4493 0 0 4436 0 0 4490 0 0 4459 0 0 4429 0 0 4483 0 0 2289 0 0 0 0 0 0 0 0 0 0 0 0 0 0 0 0 0 0 0 0 0 0 0 0 0 0 0 0 0 
0 0 0 0 0 0 0 0 0 0 0 0 0 0 0 0 0 0 0 0 0 0 0 0 0 0 0 0 0 0 4644 0 0 8872 0 0 8977 0 0 8880 0 0 8868 0 0 8862 0 0 8978 0 0 9057 0 0 8972 0 0 8939 0 0 8795 0 0 8891 0 0 8928 0 0 8865 0 0 8808 0 0 8759 0 0 8890 0 0 8872 0 0 8893 0 0 8684 0 0 8950 0 0 8897 0 0 8857 0 0 8915 0 0 8951 0 0 8815 0 0 9080 0 0 9132 0 0 9078 0 0 8993 0 0 8869 0 0 8870 0 0 8993 0 0 8922 0 0 8909 0 0 8977 0 0 8969 0 0 8907 0 0 8858 0 0 9137 0 0 4499 0 0 0 0 0 0 0 0 0 0 0 0 0 0 0 0 0 0 0 0 0 0 0 0 0 0 0 0 0 
0 0 0 0 0 0 0 0 0 0 0 0 0 0 0 0 0 0 0 0 0 0 0 0 0 0 0 0 0 0 4584 0 0 8966 0 0 8938 0 0 8946 0 0 8981 0 0 8872 0 0 9055 0 0 9059 0 0 9040 0 0 9059 0 0 9028 0 0 9084 0 0 8935 0 0 8851 0 0 8926 0 0 9000 0 0 9140 0 0 8857 0 0 9060 0 0 8835 0 0 8965 0 0 8741 0 0 8700 0 0 8871 0 0 8893 0 0 9106 0 0 8863 0 0 8851 0 0 8992 0 0 8834 0 0 8969 0 0 8784 0 0 9049 0 0 8870 0 0 8917 0 0 8821 0 0 9015 0 0 8757 0 0 8927 0 0 8977 0 0 4477 0 0 0 0 0 0 0 0 0 0 0 0 0 0 0 0 0 0 0 0 0 0 0 0 0 0 0 0 0 
0 0 0 0 0 0 0 0 0 0 0 0 0 0 0 0 0 0 0 0 0 0 0 0 0 0 0 0 0 0 4373 0 0 8987 0 0 8981 0 0 9057 0 0 8753 0 0 9031 0 0 8769 0 0 8860 0 0 8770 0 0 9061 0 0 8879 0 0 9028 0 0 8911 0 0 9067 0 0 8832 0 0 8920 0 0 8979 0 0 8848 0 0 9020 0 0 9007 0 0 8963 0 0 8907 0 0 8971 0 0 9010 0 0 8980 0 0 8879 0 0 9129 0 0 8975 0 0 8967 0 0 8985 0 0 9003 0 0 8988 0 0 8877 0 0 9171 0 0 8884 0 0 8893 0 0 8958 0 0 8913 0 0 9221 0 0 9017 0 0 4470 0 0 0 0 0 0 0 0 0 0 0 0 0 0 0 0 0 0 0 0 0 0 0 0 0 0 0 0 0 
0 0 0 0 0 0 0 0 0 0 0 0 0 0 0 0 0 0 0 0 0 0 0 0 0 0 0 0 0 0 4399 0 0 8960 0 0 8914 0 0 9031 0 0 8982 0 0 9015 0 0 8905 0 0 8979 0 0 8788 0 0 8872 0 0 8976 0 0 9077 0 0 8930 0 0 9049 0 0 8703 0 0 8968 0 0 9040 0 0 8821 0 0 8910 0 0 8816 0 0 8883 0 0 8967 0 0 8943 0 0 8920 0 0 8884 0 0 8913 0 0 9048 0 0 8956 0 0 9092 0 0 8874 0 0 8906 0 0 8782 0 0 9025 0 0 9159 0 0 9038 0 0 8930 0 0 8775 0 0 8910 0 0 8851 0 0 8858 0 0 4366 0 0 0 0 0 0 0 0 0 0 0 0 0 0 0 0 0 0 0 0 0 0 0 0 0 0 0 0 0 
0 0 0 0 0 0 0 0 0 0 0 0 0 0 0 0 0 0 0 0 0 0 0 0 0 0 0 0 0 0 4540 0 0 8862 0 0 8969 0 0 8939 0 0 9013 0 0 8880 0 0 8697 0 0 9127 0 0 8820 0 0 8999 0 0 8921 0 0 8876 0 0 8945 0 0 8794 0 0 8928 0 0 8874 0 0 8976 0 0 9034 0 0 8948 0 0 8971 0 0 9003 0 0 9038 0 0 9065 0 0 8946 0 0 8921 0 0 9022 0 0 8940 0 0 8988 0 0 9059 0 0 9027 0 0 8885 0 0 8991 0 0 8896 0 0 9074 0 0 8875 0 0 9079 0 0 8933 0 0 9041 0 0 8823 0 0 9201 0 0 4465 0 0 0 0 0 0 0 0 0 0 0 0 0 0 0 0 0 0 0 0 0 0 0 0 0 0 0 0 0 
0 0 0 0 0 0 0 0 0 0 0 0 0 0 0 0 0 0 0 0 0 0 0 0 0 0 0 0 0 0 4498 0 0 8715 0 0 8964 0 0 8942 0 0 8917 0 0 9059 0 0 8994 0 0 8822 0 0 8826 0 0 8840 0 0 8868 0 0 9006 0 0 8982 0 0 8979 0 0 8888 0 0 8783 0 0 8990 0 0 8815 0 0 9081 0 0 8963 0 0 8867 0 0 9102 0 0 9040 0 0 8986 0 0 8890 0 0 8915 0 0 8913 0 0 8943 0 0 8899 0 0 8968 0 0 9051 0 0 8941 0 0 8846 0 0 9023 0 0 8936 0 0 8947 0 0 9191 0 0 9000 0 0 9101 0 0 8969 0 0 4509 0 0 0 0 0 0 0 0 0 0 0 0 0 0 0 0 0 0 0 0 0 0 0 0 0 0 0 0 0 
0 0 0 0 0 0 0 0 0 0 0 0 0 0 0 0 0 0 0 0 0 0 0 0 0 0 0 0 0 0 4474 0 0 8972 0 0 9067 0 0 9035 0 0 8927 0 0 8929 0 0 8911 0 0 9005 0 0 8901 0 0 8951 0 0 9006 0 0 9117 0 0 8998 0 0 8909 0 0 9142 0 0 8892 0 0 8999 0 0 8759 0 0 8855 0 0 9018 0 0 8871 0 0 8937 0 0 8884 0 0 8834 0 0 9094 0 0 9024 0 0 8781 0 0 8991 0 0 8777 0 0 8799 0 0 8892 0 0 8999 0 0 8866 0 0 8834 0 0 8990 0 0 9007 0 0 8924 0 0 8951 0 0 8855 0 0 9000 0 0 4506 0 0 0 0 0 0 0 0 0 0 0 0 0 0 0 0 0 0 0 0 0 0 0 0 0 0 0 0 0 
0 0 0 0 0 0 0 0 0 0 0 0 0 0 0 0 0 0 0 0 0 0 0 0 0 0 0 0 0 0 4413 0 0 9059 0 0 9033 0 0 8998 0 0 9054 0 0 8903 0 0 9068 0 0 8935 0 0 9106 0 0 8816 0 0 9138 0 0 9047 0 0 8899 0 0 8904 0 0 9057 0 0 8800 0 0 8940 0 0 8992 0 0 8972 0 0 9022 0 0 8966 0 0 8836 0 0 8922 0 0 8977 0 0 8805 0 0 8972 0 0 9083 0 0 9029 0 0 9038 0 0 9008 0 0 8975 0 0 8955 0 0 9035 0 0 9005 0 0 8804 0 0 8865 0 0 8849 0 0 8876 0 0 8952 0 0 8952 0 0 4450 0 0 0 0 0 0 0 0 0 0 0 0 0 0 0 0 0 0 0 0 0 0 0 0 0 0 0 0 0 
0 0 0 0 0 0 0 0 0 0 0 0 0 0 0 0 0 0 0 0 0 0 0 0 0 0 0 0 0 0 4489 0 0 8815 0 0 8998 0 0 9198 0 0 8873 0 0 9116 0 0 8966 0 0 8790 0 0 9045 0 0 8882 0 0 8796 0 0 8929 0 0 8915 0 0 8895 0 0 8924 0 0 8759 0 0 8923 0 0 8935 0 0 8916 0 0 8882 0 0 9128 0 0 9028 0 0 8790 0 0 8934 0 0 8783 0 0 8913 0 0 9007 0 0 8934 0 0 8853 0 0 8864 0 0 8929 0 0 9112 0 0 8954 0 0 9045 0 0 9028 0 0 9081 0 0 8900 0 0 8958 0 0 8714 0 0 8999 0 0 4524 0 0 0 0 0 0 0 0 0 0 0 0 0 0 0 0 0 0 0 0 0 0 0 0 0 0 0 0 0 
0 0 0 0 0 0 0 0 0 0 0 0 0 0 0 0 0 0 0 0 0 0 0 0 0 0 0 0 0 0 4374 0 0 8886 0 0 9154 0 0 8868 0 0 9017 0 0 8999 0 0 8843 0 0 8975 0 0 8953 0 0 8906 0 0 8835 0 0 8867 0 0 8821 0 0 8982 0 0 8976 0 0 8961 0 0 9103 0 0 8925 0 0 8886 0 0 8968 0 0 8916 0 0 9025 0 0 8767 0 0 9071 0 0 8899 0 0 8867 0 0 9082 0 0 8970 0 0 8947 0 0 8966 0 0 8880 0 0 8769 0 0 8941 0 0 9020 0 0 8930 0 0 8945 0 0 8982 0 0 8933 0 0 8947 0 0 8703 0 0 4466 0 0 0 0 0 0 0 0 0 0 0 0 0 0 0 0 0 0 0 0 0 0 0 0 0 0 0 0 0 
0 0 0 0 0 0 0 0 0 0 0 0 0 0 0 0 0 0 0 0 0 0 0 0 0 0 0 0 0 0 4448 0 0 8769 0 0 9033 0 0 9055 0 0 8850 0 0 8874 0 0 8958 0 0 8793 0 0 8937 0 0 8990 0 0 9033 0 0 8808 0 0 8868 0 0 8994 0 0 8904 0 0 8987 0 0 9188 0 0 8862 0 0 8908 0 0 9017 0 0 8888 0 0 8999 0 0 8753 0 0 9011 0 0 8875 0 0 8946 0 0 8915 0 0 8968 0 0 8755 0 0 8835 0 0 8966 0 0 9067 0 0 8996 0 0 8965 0 0 8984 0 0 9059 0 0 8919 0 0 9005 0 0 9097 0 0 8979 0 0 4555 0 0 0 0 0 0 0 0 0 0 0 0 0 0 0 0 0 0 0 0 0 0 0 0 0 0 0 0 0 
0 0 0 0 0 0 0 0 0 0 0 0 0 0 0 0 0 0 0 0 0 0 0 0 0 0 0 0 0 0 4495 0 0 9019 0 0 8906 0 0 8947 0 0 8843 0 0 8831 0 0 8906 0 0 8939 0 0 8888 0 0 8985 0 0 9049 0 0 8776 0 0 8942 0 0 8974 0 0 8831 0 0 8999 0 0 8950 0 0 9067 0 0 9014 0 0 9124 0 0 9037 0 0 8942 0 0 8867 0 0 8971 0 0 9033 0 0 9049 0 0 9042 0 0 8924 0 0 9141 0 0 8942 0 0 8933 0 0 8957 0 0 8916 0 0 9134 0 0 9103 0 0 8815 0 0 9034 0 0 9002 0 0 8941 0 0 8876 0 0 4523 0 0 0 0 0 0 0 0 0 0 0 0 0 0 0 0 0 0 0 0 0 0 0 0 0 0 0 0 0 
0 0 0 0 0 0 0 0 0 0 0 0 0 0 0 0 0 0 0 0 0 0 0 0 0 0 0 0 0 0 4395 0 0 9068 0 0 9075 0 0 8909 0 0 8846 0 0 9071 0 0 8924 0 0 9051 0 0 8965 0 0 9043 0 0 9071 0 0 9000 0 0 8821 0 0 8965 0 0 8837 0 0 9165 0 0 9173 0 0 9157 0 0 9041 0 0 9012 0 0 9064 0 0 8954 0 0 8868 0 0 9120 0 0 8857 0 0 8952 0 0 8905 0 0 8921 0 0 9019 0 0 8915 0 0 9161 0 0 8949 0 0 9000 0 0 8915 0 0 9061 0 0 8939 0 0 8991 0 0 8987 0 0 8956 0 0 8968 0 0 4384 0 0 0 0 0 0 0 0 0 0 0 0 0 0 0 0 0 0 0 0 0 0 0 0 0 0 0 0 0 
0 0 0 0 0 0 0 0 0 0 0 0 0 0 0 0 0 0 0 0 0 0 0 0 0 0 0 0 0 0 4467 0 0 8923 0 0 8742 0 0 8856 0 0 9197 0 0 8991 0 0 8986 0 0 9030 0 0 9146 0 0 8998 0 0 8788 0 0 8967 0 0 9098 0 0 8861 0 0 8892 0 0 8969 0 0 9103 0 0 8874 0 0 8990 0 0 8918 0 0 8893 0 0 9100 0 0 8940 0 0 8942 0 0 8809 0 0 8906 0 0 9124 0 0 9024 0 0 8963 0 0 8974 0 0 8999 0 0 8915 0 0 8975 0 0 8782 0 0 8964 0 0 8980 0 0 8903 0 0 9019 0 0 8959 0 0 9009 0 0 4540 0 0 0 0 0 0 0 0 0 0 0 0 0 0 0 0 0 0 0 0 0 0 0 0 0 0 0 0 0 
0 0 0 0 0 0 0 0 0 0 0 0 0 0 0 0 0 0 0 0 0 0 0 0 0 0 0 0 0 0 4553 0 0 9070 0 0 8989 0 0 8933 0 0 8952 0 0 9082 0 0 8959 0 0 9035 0 0 8992 0 0 8877 0 0 9055 0 0 9115 0 0 8954 0 0 8974 0 0 9098 0 0 8964 0 0 8821 0 0 8972 0 0 8984 0 0 8985 0 0 8983 0 0 8888 0 0 8880 0 0 9028 0 0 8983 0 0 9080 0 0 9211 0 0 8916 0 0 9104 0 0 9070 0 0 8858 0 0 8952 0 0 9080 0 0 9047 0 0 8984 0 0 8934 0 0 8977 0 0 8862 0 0 9109 0 0 9024 0 0 4422 0 0 0 0 0 0 0 0 0 0 0 0 0 0 0 0 0 0 0 0 0 0 0 0 0 0 0 0 0 
0 0 0 0 0 0 0 0 0 0 0 0 0 0 0 0 0 0 0 0 0 0 0 0 0 0 0 0 0 0 4377 0 0 8916 0 0 8850 0 0 8896 0 0 8935 0 0 9067 0 0 8889 0 0 8951 0 0 8970 0 0 9075 0 0 8894 0 0 9064 0 0 8901 0 0 8872 0 0 9039 0 0 8907 0 0 8869 0 0 8934 0 0 8940 0 0 8950 0 0 9040 0 0 8855 0 0 9048 0 0 8957 0 0 8959 0 0 9047 0 0 9070 0 0 8820 0 0 8892 0 0 9066 0 0 9088 0 0 8972 0 0 8932 0 0 8910 0 0 8985 0 0 8930 0 0 8924 0 0 8916 0 0 8878 0 0 8960 0 0 4544 0 0 0 0 0 0 0 0 0 0 0 0 0 0 0 0 0 0 0 0 0 0 0 0 0 0 0 0 0 
0 0 0 0 0 0 0 0 0 0 0 0 0 0 0 0 0 0 0 0 0 0 0 0 0 0 0 0 0 0 4337 0 0 8835 0 0 8945 0 0 8793 0 0 8989 0 0 9105 0 0 9038 0 0 8968 0 0 8939 0 0 9230 0 0 9066 0 0 8919 0 0 8985 0 0 9049 0 0 9008 0 0 8814 0 0 8964 0 0 9054 0 0 8924 0 0 8815 0 0 8979 0 0 9053 0 0 9094 0 0 8938 0 0 8856 0 0 8845 0 0 8847 0 0 8892 0 0 8996 0 0 8930 0 0 8932 0 0 9089 0 0 8852 0 0 8924 0 0 8894 0 0 9053 0 0 8900 0 0 9010 0 0 8993 0 0 8976 0 0 4421 0 0 0 0 0 0 0 0 0 0 0 0 0 0 0 0 0 0 0 0 0 0 0 0 0 0 0 0 0 
0 0 0 0 0 0 0 0 0 0 0 0 0 0 0 0 0 0 0 0 0 0 0 0 0 0 0 0 0 0 4465 0 0 9131 0 0 8826 0 0 9024 0 0 9050 0 0 9200 0 0 8854 0 0 8991 0 0 8880 0 0 9066 0 0 9089 0 0 8943 0 0 8899 0 0 8963 0 0 8932 0 0 8945 0 0 8878 0 0 9128 0 0 9002 0 0 8861 0 0 8987 0 0 9119 0 0 8969 0 0 8945 0 0 8927 0 0 8967 0 0 8842 0 0 8945 0 0 8983 0 0 9103 0 0 9039 0 0 9005 0 0 8939 0 0 8933 0 0 9120 0 0 8974 0 0 8948 0 0 8996 0 0 8785 0 0 8950 0 0 4513 0 0 0 0 0 0 0 0 0 0 0 0 0 0 0 0 0 0 0 0 0 0 0 0 0 0 0 0 0 
0 0 0 0 0 0 0 0 0 0 0 0 0 0 0 0 0 0 0 0 0 0 0 0 0 0 0 0 0 0 4520 0 0 8954 0 0 8800 0 0 9024 0 0 8831 0 0 8885 0 0 8994 0 0 9010 0 0 8976 0 0 8908 0 0 8907 0 0 9019 0 0 8820 0 0 8982 0 0 9016 0 0 8955 0 0 8923 0 0 8989 0 0 8910 0 0 8886 0 0 9062 0 0 8964 0 0 8985 0 0 9247 0 0 8907 0 0 8813 0 0 8808 0 0 9003 0 0 8797 0 0 8757 0 0 9038 0 0 9036 0 0 8887 0 0 8996 0 0 8958 0 0 8988 0 0 9106 0 0 9029 0 0 8951 0 0 9137 0 0 4459 0 0 0 0 0 0 0 0 0 0 0 0 0 0 0 0 0 0 0 0 0 0 0 0 0 0 0 0 0 
0 0 0 0 0 0 0 0 0 0 0 0 0 0 0 0 0 0 0 0 0 0 0 0 0 0 0 0 0 0 4449 0 0 8766 0 0 8955 0 0 8906 0 0 8945 0 0 8913 0 0 9006 0 0 8856 0 0 9085 0 0 9012 0 0 8975 0 0 8928 0 0 8922 0 0 8892 0 0 8870 0 0 8977 0 0 8964 0 0 8894 0 0 9069 0 0 9154 0 0 8838 0 0 8947 0 0 8956 0 0 8927 0 0 8840 0 0 8904 0 0 9028 0 0 8957 0 0 9044 0 0 8970 0 0 8906 0 0 8956 0 0 8959 0 0 8941 0 0 8912 0 0 9020 0 0 9047 0 0 8907 0 0 8977 0 0 9076 0 0 4517 0 0 0 0 0 0 0 0 0 0 0 0 0 0 0 0 0 0 0 0 0 0 0 0 0 0 0 0 0 
0 0 0 0 0 0 0 0 0 0 0 0 0 0 0 0 0 0 0 0 0 0 0 0 0 0 0 0 0 0 4453 0 0 8782 0 0 8843 0 0 8901 0 0 8924 0 0 8941 0 0 8908 0 0 8969 0 0 8983 0 0 8936 0 0 8965 0 0 8950 0 0 9012 0 0 8891 0 0 8962 0 0 9045 0 0 8883 0 0 8764 0 0 9078 0 0 9101 0 0 9122 0 0 8981 0 0 8915 0 0 8843 0 0 8853 0 0 8976 0 0 8987 0 0 9088 0 0 8991 0 0 8905 0 0 8955 0 0 9025 0 0 8780 0 0 8873 0 0 8941 0 0 8970 0 0 8979 0 0 9116 0 0 9034 0 0 9048 0 0 4536 0 0 0 0 0 0 0 0 0 0 0 0 0 0 0 0 0 0 0 0 0 0 0 0 0 0 0 0 0 
0 0 0 0 0 0 0 0 0 0 0 0 0 0 0 0 0 0 0 0 0 0 0 0 0 0 0 0 0 0 4497 0 0 8933 0 0 8863 0 0 9037 0 0 9180 0 0 8902 0 0 9042 0 0 8830 0 0 9002 0 0 8871 0 0 8817 0 0 8972 0 0 8862 0 0 9095 0 0 8946 0 0 8932 0 0 8963 0 0 8956 0 0 8764 0 0 8864 0 0 9021 0 0 8869 0 0 9113 0 0 9095 0 0 8924 0 0 9042 0 0 8859 0 0 9016 0 0 8997 0 0 9043 0 0 8969 0 0 8960 0 0 9020 0 0 8970 0 0 8904 0 0 9190 0 0 8915 0 0 8753 0 0 9087 0 0 8989 0 0 4553 0 0 0 0 0 0 0 0 0 0 0 0 0 0 0 0 0 0 0 0 0 0 0 0 0 0 0 0 0 
0 0 0 0 0 0 0 0 0 0 0 0 0 0 0 0 0 0 0 0 0 0 0 0 0 0 0 0 0 0 4440 0 0 8820 0 0 8953 0 0 8977 0 0 9082 0 0 8961 0 0 9020 0 0 9041 0 0 9192 0 0 8984 0 0 8962 0 0 8943 0 0 8905 0 0 8961 0 0 8982 0 0 8907 0 0 8874 0 0 9034 0 0 8955 0 0 8916 0 0 9075 0 0 9137 0 0 8908 0 0 9032 0 0 8972 0 0 8957 0 0 8933 0 0 8953 0 0 9006 0 0 8814 0 0 9147 0 0 8842 0 0 8987 0 0 9052 0 0 8921 0 0 8868 0 0 8972 0 0 9065 0 0 9202 0 0 8859 0 0 4364 0 0 0 0 0 0 0 0 0 0 0 0 0 0 0 0 0 0 0 0 0 0 0 0 0 0 0 0 0 
0 0 0 0 0 0 0 0 0 0 0 0 0 0 0 0 0 0 0 0 0 0 0 0 0 0 0 0 0 0 4491 0 0 8787 0 0 9040 0 0 9122 0 0 9023 0 0 9107 0 0 8906 0 0 8772 0 0 8890 0 0 8966 0 0 8898 0 0 9069 0 0 8865 0 0 8860 0 0 9100 0 0 9115 0 0 9028 0 0 9016 0 0 8963 0 0 8978 0 0 8965 0 0 8951 0 0 9150 0 0 8949 0 0 8884 0 0 9101 0 0 8912 0 0 8910 0 0 8979 0 0 8892 0 0 8849 0 0 8855 0 0 9009 0 0 8936 0 0 8994 0 0 8998 0 0 8865 0 0 9080 0 0 9024 0 0 8923 0 0 4366 0 0 0 0 0 0 0 0 0 0 0 0 0 0 0 0 0 0 0 0 0 0 0 0 0 0 0 0 0 
0 0 0 0 0 0 0 0 0 0 0 0 0 0 0 0 0 0 0 0 0 0 0 0 0 0 0 0 0 0 4438 0 0 9072 0 0 8857 0 0 8988 0 0 8909 0 0 9051 0 0 8863 0 0 9050 0 0 9025 0 0 9018 0 0 9010 0 0 9021 0 0 9011 0 0 8975 0 0 8967 0 0 8937 0 0 9043 0 0 8891 0 0 9026 0 0 9053 0 0 8877 0 0 8885 0 0 8868 0 0 8949 0 0 9024 0 0 9125 0 0 8877 0 0 9020 0 0 9035 0 0 9013 0 0 8963 0 0 8862 0 0 9050 0 0 8994 0 0 8990 0 0 9023 0 0 9074 0 0 8801 0 0 9054 0 0 8943 0 0 4534 0 0 0 0 0 0 0 0 0 0 0 0 0 0 0 0 0 0 0 0 0 0 0 0 0 0 0 0 0 
0 0 0 0 0 0 0 0 0 0 0 0 0 0 0 0 0 0 0 0 0 0 0 0 0 0 0 0 0 0 4402 0 0 8927 0 0 9000 0 0 8963 0 0 8905 0 0 8843 0 0 8933 0 0 8805 0 0 9068 0 0 9046 0 0 8946 0 0 9016 0 0 9057 0 0 9043 0 0 8922 0 0 8961 0 0 8949 0 0 8967 0 0 8862 0 0 8896 0 0 9062 0 0 9007 0 0 8981 0 0 9040 0 0 8742 0 0 9077 0 0 8974 0 0 9203 0 0 9117 0 0 9073 0 0 9062 0 0 8905 0 0 9016 0 0 9006 0 0 9021 0 0 8970 0 0 8851 0 0 8794 0 0 9080 0 0 9030 0 0 4472 0 0 0 0 0 0 0 0 0 0 0 0 0 0 0 0 0 0 0 0 0 0 0 0 0 0 0 0 0 
0 0 0 0 0 0 0 0 0 0 0 0 0 0 0 0 0 0 0 0 0 0 0 0 0 0 0 0 0 0 4393 0 0 8982 0 0 8787 0 0 9050 0 0 9019 0 0 8796 0 0 9014 0 0 8931 0 0 8885 0 0 9006 0 0 8924 0 0 9108 0 0 8806 0 0 8943 0 0 9022 0 0 8911 0 0 8985 0 0 8800 0 0 8688 0 0 8972 0 0 9101 0 0 9158 0 0 8963 0 0 9189 0 0 8892 0 0 8895 0 0 8976 0 0 8840 0 0 8848 0 0 9044 0 0 9006 0 0 8867 0 0 9151 0 0 8937 0 0 9000 0 0 8981 0 0 9082 0 0 9063 0 0 8722 0 0 8955 0 0 4542 0 0 0 0 0 0 0 0 0 0 0 0 0 0 0 0 0 0 0 0 0 0 0 0 0 0 0 0 0 
0 0 0 0 0 0 0 0 0 0 0 0 0 0 0 0 0 0 0 0 0 0 0 0 0 0 0 0 0 0 4440 0 0 8879 0 0 9010 0 0 8950 0 0 8936 0 0 8922 0 0 9004 0 0 8902 0 0 8930 0 0 8827 0 0 9200 0 0 8937 0 0 9018 0 0 8834 0 0 8946 0 0 8839 0 0 8975 0 0 9008 0 0 9035 0 0 8883 0 0 8844 0 0 8878 0 0 8900 0 0 8940 0 0 8983 0 0 8863 0 0 8888 0 0 8835 0 0 9003 0 0 9040 0 0 9013 0 0 8993 0 0 9052 0 0 8769 0 0 8984 0 0 9107 0 0 8968 0 0 8998 0 0 8896 0 0 8848 0 0 4427 0 0 0 0 0 0 0 0 0 0 0 0 0 0 0 0 0 0 0 0 0 0 0 0 0 0 0 0 0 
0 0 0 0 0 0 0 0 0 0 0 0 0 0 0 0 0 0 0 0 0 0 0 0 0 0 0 0 0 0 4517 0 0 9053 0 0 8780 0 0 8852 0 0 9055 0 0 8881 0 0 9019 0 0 8827 0 0 8884 0 0 9090 0 0 8986 0 0 8962 0 0 9003 0 0 8888 0 0 9037 0 0 8914 0 0 8929 0 0 9030 0 0 8933 0 0 8990 0 0 9001 0 0 8881 0 0 8847 0 0 8853 0 0 9065 0 0 8880 0 0 8969 0 0 8902 0 0 8911 0 0 8972 0 0 8959 0 0 8826 0 0 8844 0 0 8948 0 0 8907 0 0 8887 0 0 8918 0 0 8936 0 0 8917 0 0 8785 0 0 4559 0 0 0 0 0 0 0 0 0 0 0 0 0 0 0 0 0 0 0 0 0 0 0 0 0 0 0 0 0 
0 0 0 0 0 0 0 0 0 0 0 0 0 0 0 0 0 0 0 0 0 0 0 0 0 0 0 0 0 0 4331 0 0 8708 0 0 8919 0 0 8955 0 0 8863 0 0 9013 0 0 8782 0 0 8892 0 0 8860 0 0 8911 0 0 8915 0 0 8794 0 0 8927 0 0 8932 0 0 8766 0 0 8994 0 0 9121 0 0 8960 0 0 9089 0 0 8890 0 0 8994 0 0 8934 0 0 9074 0 0 8986 0 0 8781 0 0 9064 0 0 8996 0 0 8947 0 0 9084 0 0 9098 0 0 9033 0 0 9044 0 0 9097 0 0 8960 0 0 9130 0 0 8906 0 0 8934 0 0 8914 0 0 8936 0 0 8964 0 0 4620 0 0 0 0 0 0 0 0 0 0 0 0 0 0 0 0 0 0 0 0 0 0 0 0 0 0 0 0 0 
0 0 0 0 0 0 0 0 0 0 0 0 0 0 0 0 0 0 0 0 0 0 0 0 0 0 0 0 0 0 4427 0 0 8991 0 0 9028 0 0 9046 0 0 8899 0 0 9060 0 0 8972 0 0 8973 0 0 9069 0 0 8978 0 0 9053 0 0 9094 0 0 9016 0 0 9131 0 0 8798 0 0 9000 0 0 9027 0 0 9038 0 0 8926 0 0 9007 0 0 9016 0 0 9000 0 0 8936 0 0 8938 0 0 8940 0 0 9106 0 0 8998 0 0 8968 0 0 9073 0 0 8873 0 0 8974 0 0 9003 0 0 9045 0 0 9076 0 0 8854 0 0 8969 0 0 9080 0 0 9149 0 0 9102 0 0 8941 0 0 4506 0 0 0 0 0 0 0 0 0 0 0 0 0 0 0 0 0 0 0 0 0 0 0 0 0 0 0 0 0 
0 0 0 0 0 0 0 0 0 0 0 0 0 0 0 0 0 0 0 0 0 0 0 0 0 0 0 0 0 0 4461 0 0 9040 0 0 8974 0 0 8902 0 0 8960 0 0 8892 0 0 8932 0 0 8880 0 0 9075 0 0 9012 0 0 8938 0 0 8917 0 0 8843 0 0 8940 0 0 8865 0 0 8959 0 0 8983 0 0 8824 0 0 8924 0 0 8954 0 0 9006 0 0 9031 0 0 8951 0 0 9020 0 0 8987 0 0 9024 0 0 8954 0 0 8872 0 0 8797 0 0 8908 0 0 8797 0 0 8986 0 0 8735 0 0 9105 0 0 8847 0 0 8851 0 0 8932 0 0 8720 0 0 8872 0 0 8852 0 0 4567 0 0 0 0 0 0 0 0 0 0 0 0 0 0 0 0 0 0 0 0 0 0 0 0 0 0 0 0 0 
0 0 0 0 0 0 0 0 0 0 0 0 0 0 0 0 0 0 0 0 0 0 0 0 0 0 0 0 0 0 4402 0 0 9086 0 0 8859 0 0 8782 0 0 8990 0 0 8913 0 0 9034 0 0 8908 0 0 8879 0 0 8964 0 0 8925 0 0 9139 0 0 9091 0 0 9037 0 0 8949 0 0 8970 0 0 8950 0 0 8881 0 0 8863 0 0 8932 0 0 9132 0 0 8903 0 0 8901 0 0 8953 0 0 9063 0 0 8951 0 0 8806 0 0 9012 0 0 9048 0 0 8973 0 0 8877 0 0 8718 0 0 9062 0 0 9016 0 0 8930 0 0 9033 0 0 8866 0 0 8984 0 0 8946 0 0 8981 0 0 4687 0 0 0 0 0 0 0 0 0 0 0 0 0 0 0 0 0 0 0 0 0 0 0 0 0 0 0 0 0 
0 0 0 0 0 0 0 0 0 0 0 0 0 0 0 0 0 0 0 0 0 0 0 0 0 0 0 0 0 0 4508 0 0 9001 0 0 8946 0 0 8992 0 0 8971 0 0 9198 0 0 8773 0 0 9015 0 0 8840 0 0 8980 0 0 8973 0 0 8898 0 0 9021 0 0 8959 0 0 8790 0 0 8963 0 0 8741 0 0 8823 0 0 8917 0 0 8911 0 0 8893 0 0 8943 0 0 8899 0 0 9099 0 0 8847 0 0 8986 0 0 9049 0 0 9043 0 0 8839 0 0 8959 0 0 9168 0 0 8942 0 0 8920 0 0 8912 0 0 8886 0 0 8956 0 0 9108 0 0 8998 0 0 8883 0 0 8958 0 0 4461 0 0 0 0 0 0 0 0 0 0 0 0 0 0 0 0 0 0 0 0 0 0 0 0 0 0 0 0 0 
0 0 0 0 0 0 0 0 0 0 0 0 0 0 0 0 0 0 0 0 0 0 0 0 0 0 0 0 0 0 4457 0 0 9049 0 0 8718 0 0 9105 0 0 8824 0 0 8901 0 0 8959 0 0 8896 0 0 8916 0 0 8930 0 0 8738 0 0 9029 0 0 8868 0 0 8847 0 0 9086 0 0 8955 0 0 8991 0 0 9115 0 0 8867 0 0 8893 0 0 8955 0 0 8847 0 0 8948 0 0 8947 0 0 8862 0 0 8800 0 0 8906 0 0 9027 0 0 9017 0 0 8865 0 0 8952 0 0 8946 0 0 9087 0 0 8989 0 0 9057 0 0 8760 0 0 8656 0 0 8951 0 0 9019 0 0 8924 0 0 4454 0 0 0 0 0 0 0 0 0 0 0 0 0 0 0 0 0 0 0 0 0 0 0 0 0 0 0 0 0 
0 0 0 0 0 0 0 0 0 0 0 0 0 0 0 0 0 0 0 0 0 0 0 0 0 0 0 0 0 0 4564 0 0 8848 0 0 8990 0 0 9063 0 0 8909 0 0 8784 0 0 8945 0 0 8991 0 0 9162 0 0 9189 0 0 9050 0 0 8890 0 0 8864 0 0 8812 0 0 8917 0 0 8939 0 0 8938 0 0 9207 0 0 8883 0 0 8774 0 0 8980 0 0 8922 0 0 9078 0 0 9135 0 0 8871 0 0 9046 0 0 8940 0 0 8956 0 0 8964 0 0 8917 0 0 9070 0 0 9067 0 0 8953 0 0 8756 0 0 8843 0 0 8984 0 0 9160 0 0 9008 0 0 8774 0 0 9248 0 0 4478 0 0 0 0 0 0 0 0 0 0 0 0 0 0 0 0 0 0 0 0 0 0 0 0 0 0 0 0 0 
0 0 0 0 0 0 0 0 0 0 0 0 0 0 0 0 0 0 0 0 0 0 0 0 0 0 0 0 0 0 4465 0 0 8940 0 0 8998 0 0 8728 0 0 8976 0 0 8766 0 0 9180 0 0 8892 0 0 8964 0 0 8939 0 0 8870 0 0 8863 0 0 9044 0 0 8858 0 0 8969 0 0 9093 0 0 9170 0 0 8997 0 0 8859 0 0 9005 0 0 8880 0 0 8910 0 0 8938 0 0 8888 0 0 8755 0 0 9002 0 0 8967 0 0 8979 0 0 8838 0 0 8847 0 0 9152 0 0 9089 0 0 8927 0 0 8891 0 0 8796 0 0 8874 0 0 8967 0 0 8963 0 0 8875 0 0 8942 0 0 4420 0 0 0 0 0 0 0 0 0 0 0 0 0 0 0 0 0 0 0 0 0 0 0 0 0 0 0 0 0 
0 0 0 0 0 0 0 0 0 0 0 0 0 0 0 0 0 0 0 0 0 0 0 0 0 0 0 0 0 0 4521 0 0 8927 0 0 8812 0 0 9017 0 0 8962 0 0 9020 0 0 8942 0 0 9119 0 0 8882 0 0 9039 0 0 9036 0 0 8872 0 0 9013 0 0 8898 0 0 9094 0 0 9032 0 0 8962 0 0 8821 0 0 8956 0 0 9076 0 0 8862 0 0 8861 0 0 9034 0 0 8955 0 0 9100 0 0 8895 0 0 9021 0 0 9048 0 0 8951 0 0 9068 0 0 9087 0 0 9097 0 0 8910 0 0 9037 0 0 8981 0 0 8946 0 0 9021 0 0 9067 0 0 9052 0 0 8940 0 0 4523 0 0 0 0 0 0 0 0 0 0 0 0 0 0 0 0 0 0 0 0 0 0 0 0 0 0 0 0 0 
0 0 0 0 0 0 0 0 0 0 0 0 0 0 0 0 0 0 0 0 0 0 0 0 0 0 0 0 0 0 4462 0 0 9093 0 0 8816 0 0 8768 0 0 8974 0 0 9060 0 0 8885 0 0 8983 0 0 8989 0 0 8949 0 0 9064 0 0 8856 0 0 9013 0 0 8966 0 0 8904 0 0 8882 0 0 8916 0 0 8931 0 0 9001 0 0 9071 0 0 9042 0 0 9108 0 0 8876 0 0 8902 0 0 9111 0 0 8953 0 0 8802 0 0 9101 0 0 8990 0 0 8997 0 0 8899 0 0 9207 0 0 9115 0 0 8932 0 0 9035 0 0 8987 0 0 9002 0 0 9031 0 0 8778 0 0 8869 0 0 4437 0 0 0 0 0 0 0 0 0 0 0 0 0 0 0 0 0 0 0 0 0 0 0 0 0 0 0 0 0 
0 0 0 0 0 0 0 0 0 0 0 0 0 0 0 0 0 0 0 0 0 0 0 0 0 0 0 0 0 0 2212 0 0 4487 0 0 4447 0 0 4559 0 0 4400 0 0 4418 0 0 4424 0 0 4442 0 0 4520 0 0 4452 0 0 4446 0 0 4500 0 0 4563 0 0 4372 0 0 4464 0 0 4397 0 0 4569 0 0 4436 0 0 4523 0 0 4553 0 0 4473 0 0 4558 0 0 4504 0 0 4526 0 0 4401 0 0 4459 0 0 4436 0 0 4425 0 0 4443 0 0 4458 0 0 4588 0 0 4509 0 0 4533 0 0 4499 0 0 4427 0 0 4324 0 0 4433 0 0 4476 0 0 4518 0 0 4588 0 0 2297 0 0 0 0 0 0 0 0 0 0 0 0 0 0 0 0 0 0 0 0 0 0 0 0 0 0 0 0 0 
0 0 0 0 0 0 0 0 0 0 0 0 0 0 0 0 0 0 0 0 0 0 0 0 0 0 0 0 0 0 0 0 0 0 0 0 0 0 0 0 0 0 0 0 0 0 0 0 0 0 0 0 0 0 0 0 0 0 0 0 0 0 0 0 0 0 0 0 0 0 0 0 0 0 0 0 0 0 0 0 0 0 0 0 0 0 0 0 0 0 0 0 0 0 0 0 0 0 0 0 0 0 0 0 0 0 0 0 0 0 0 0 0 0 0 0 0 0 0 0 0 0 0 0 0 0 0 0 0 0 0 0 0 0 0 0 0 0 0 0 0 0 0 0 0 0 0 0 0 0 0 0 0 0 0 0 0 0 0 0 0 0 0 0 0 0 0 0 0 0 0 0 0 0 0 0 0 0 0 0 
0 0 0 0 0 0 0 0 0 0 0 0 0 0 0 0 0 0 0 0 0 0 0 0 0 0 0 0 0 0 0 0 0 0 0 0 0 0 0 0 0 0 0 0 0 0 0 0 0 0 0 0 0 0 0 0 0 0 0 0 0 0 0 0 0 0 0 0 0 0 0 0 0 0 0 0 0 0 0 0 0 0 0 0 0 0 0 0 0 0 0 0 0 0 0 0 0 0 0 0 0 0 0 0 0 0 0 0 0 0 0 0 0 0 0 0 0 0 0 0 0 0 0 0 0 0 0 0 0 0 0 0 0 0 0 0 0 0 0 0 0 0 0 0 0 0 0 0 0 0 0 0 0 0 0 0 0 0 0 0 0 0 0 0 0 0 0 0 0 0 0 0 0 0 0 0 0 0 0 0 
0 0 0 0 0 0 0 0 0 0 0 0 0 0 0 0 0 0 0 0 0 0 0 0 0 0 0 0 0 0 0 0 0 0 0 0 0 0 0 0 0 0 0 0 0 0 0 0 0 0 0 0 0 0 0 0 0 0 0 0 0 0 0 0 0 0 0 0 0 0 0 0 0 0 0 0 0 0 0 0 0 0 0 0 0 0 0 0 0 0 0 0 0 0 0 0 0 0 0 0 0 0 0 0 0 0 0 0 0 0 0 0 0 0 0 0 0 0 0 0 0 0 0 0 0 0 0 0 0 0 0 0 0 0 0 0 0 0 0 0 0 0 0 0 0 0 0 0 0 0 0 0 0 0 0 0 0 0 0 0 0 0 0 0 0 0 0 0 0 0 0 0 0 0 0 0 0 0 0 0 
0 0 0 0 0 0 0 0 0 0 0 0 0 0 0 0 0 0 0 0 0 0 0 0 0 0 0 0 0 0 0 0 0 0 0 0 0 0 0 0 0 0 0 0 0 0 0 0 0 0 0 0 0 0 0 0 0 0 0 0 0 0 0 0 0 0 0 0 0 0 0 0 0 0 0 0 0 0 0 0 0 0 0 0 0 0 0 0 0 0 0 0 0 0 0 0 0 0 0 0 0 0 0 0 0 0 0 0 0 0 0 0 0 0 0 0 0 0 0 0 0 0 0 0 0 0 0 0 0 0 0 0 0 0 0 0 0 0 0 0 0 0 0 0 0 0 0 0 0 0 0 0 0 0 0 0 0 0 0 0 0 0 0 0 0 0 0 0 0 0 0 0 0 0 0 0 0 0 0 0 
0 0 0 0 0 0 0 0 0 0 0 0 0 0 0 0 0 0 0 0 0 0 0 0 0 0 0 0 0 0 0 0 0 0 0 0 0 0 0 0 0 0 0 0 0 0 0 0 0 0 0 0 0 0 0 0 0 0 0 0 0 0 0 0 0 0 0 0 0 0 0 0 0 0 0 0 0 0 0 0 0 0 0 0 0 0 0 0 0 0 0 0 0 0 0 0 0 0 0 0 0 0 0 0 0 0 0 0 0 0 0 0 0 0 0 0 0 0 0 0 0 0 0 0 0 0 0 0 0 0 0 0 0 0 0 0 0 0 0 0 0 0 0 0 0 0 0 0 0 0 0 0 0 0 0 0 0 0 0 0 0 0 0 0 0 0 0 0 0 0 0 0 0 0 0 0 0 0 0 0 
0 0 0 0 0 0 0 0 0 0 0 0 0 0 0 0 0 0 0 0 0 0 0 0 0 0 0 0 0 0 0 0 0 0 0 0 0 0 0 0 0 0 0 0 0 0 0 0 0 0 0 0 0 0 0 0 0 0 0 0 0 0 0 0 0 0 0 0 0 0 0 0 0 0 0 0 0 0 0 0 0 0 0 0 0 0 0 0 0 0 0 0 0 0 0 0 0 0 0 0 0 0 0 0 0 0 0 0 0 0 0 0 0 0 0 0 0 0 0 0 0 0 0 0 0 0 0 0 0 0 0 0 0 0 0 0 0 0 0 0 0 0 0 0 0 0 0 0 0 0 0 0 0 0 0 0 0 0 0 0 0 0 0 0 0 0 0 0 0 0 0 0 0 0 0 0 0 0 0 0 
0 0 0 0 0 0 0 0 0 0 0 0 0 0 0 0 0 0 0 0 0 0 0 0 0 0 0 0 0 0 0 0 0 0 0 0 0 0 0 0 0 0 0 0 0 0 0 0 0 0 0 0 0 0 0 0 0 0 0 0 0 0 0 0 0 0 0 0 0 0 0 0 0 0 0 0 0 0 0 0 0 0 0 0 0 0 0 0 0 0 0 0 0 0 0 0 0 0 0 0 0 0 0 0 0 0 0 0 0 0 0 0 0 0 0 0 0 0 0 0 0 0 0 0 0 0 0 0 0 0 0 0 0 0 0 0 0 0 0 0 0 0 0 0 0 0 0 0 0 0 0 0 0 0 0 0 0 0 0 0 0 0 0 0 0 0 0 0 0 0 0 0 0 0 0 0 0 0 0 0 
0 0 0 0 0 0 0 0 0 0 0 0 0 0 0 0 0 0 0 0 0 0 0 0 0 0 0 0 0 0 0 0 0 0 0 0 0 0 0 0 0 0 0 0 0 0 0 0 0 0 0 0 0 0 0 0 0 0 0 0 0 0 0 0 0 0 0 0 0 0 0 0 0 0 0 0 0 0 0 0 0 0 0 0 0 0 0 0 0 0 0 0 0 0 0 0 0 0 0 0 0 0 0 0 0 0 0 0 0 0 0 0 0 0 0 0 0 0 0 0 0 0 0 0 0 0 0 0 0 0 0 0 0 0 0 0 0 0 0 0 0 0 0 0 0 0 0 0 0 0 0 0 0 0 0 0 0 0 0 0 0 0 0 0 0 0 0 0 0 0 0 0 0 0 0 0 0 0 0 0 
0 0 0 0 0 0 0 0 0 0 0 0 0 0 0 0 0 0 0 0 0 0 0 0 0 0 0 0 0 0 0 0 0 0 0 0 0 0 0 0 0 0 0 0 0 0 0 0 0 0 0 0 0 0 0 0 0 0 0 0 0 0 0 0 0 0 0 0 0 0 0 0 0 0 0 0 0 0 0 0 0 0 0 0 0 0 0 0 0 0 0 0 0 0 0 0 0 0 0 0 0 0 0 0 0 0 0 0 0 0 0 0 0 0 0 0 0 0 0 0 0 0 0 0 0 0 0 0 0 0 0 0 0 0 0 0 0 0 0 0 0 0 0 0 0 0 0 0 0 0 0 0 0 0 0 0 0 0 0 0 0 0 0 0 0 0 0 0 0 0 0 0 0 0 0 0 0 0 0 0 
