P3
# This is a dose file slice at depth 83 of 100
60 60
# now we give the maximum value of the RGB coordinates.
32920
0 0 0 0 0 0 1 0 0 1 0 0 0 0 0 0 0 0 1 0 0 0 0 0 1 0 0 1 0 0 0 0 0 0 0 0 0 0 0 1 0 0 0 0 0 0 0 0 0 0 0 0 0 0 0 0 0 0 0 0 1 0 0 1 0 0 0 0 0 3 0 0 3 0 0 1 0 0 1 0 0 0 0 0 1 0 0 0 0 0 0 0 0 0 0 0 1 0 0 1 0 0 4 0 0 0 0 0 1 0 0 0 0 0 0 0 0 0 0 0 0 0 0 0 0 0 1 0 0 0 0 0 0 0 0 2 0 0 1 0 0 0 0 0 2 0 0 2 0 0 0 0 0 0 0 0 0 0 0 1 0 0 0 0 0 0 0 0 0 0 0 0 0 0 1 0 0 0 0 0 
0 0 0 2 0 0 0 0 0 1 0 0 2 0 0 0 0 0 1 0 0 1 0 0 3 0 0 0 0 0 0 0 0 0 0 0 2 0 0 3 0 0 2 0 0 2 0 0 3 0 0 0 0 0 0 0 0 0 0 0 4 0 0 1 0 0 3 0 0 0 0 0 6 0 0 1 0 0 2 0 0 3 0 0 3 0 0 1 0 0 2 0 0 5 0 0 3 0 0 0 0 0 7 0 0 2 0 0 0 0 0 0 0 0 3 0 0 3 0 0 2 0 0 1 0 0 5 0 0 1 0 0 1 0 0 4 0 0 4 0 0 0 0 0 1 0 0 3 0 0 3 0 0 2 0 0 1 0 0 1 0 0 0 0 0 2 0 0 2 0 0 2 0 0 2 0 0 0 0 0 
0 0 0 1 0 0 3 0 0 3 0 0 0 0 0 1 0 0 0 0 0 1 0 0 0 0 0 4 0 0 2 0 0 0 0 0 2 0 0 2 0 0 2 0 0 1 0 0 5 0 0 0 0 0 1 0 0 1 0 0 3 0 0 3 0 0 2 0 0 1 0 0 6 0 0 3 0 0 2 0 0 2 0 0 2 0 0 4 0 0 5 0 0 1 0 0 3 0 0 2 0 0 5 0 0 8 0 0 2 0 0 2 0 0 4 0 0 0 0 0 2 0 0 2 0 0 6 0 0 3 0 0 1 0 0 5 0 0 2 0 0 3 0 0 2 0 0 4 0 0 3 0 0 1 0 0 1 0 0 1 0 0 1 0 0 1 0 0 1 0 0 2 0 0 0 0 0 0 0 0 
0 0 0 0 0 0 1 0 0 1 0 0 0 0 0 2 0 0 2 0 0 0 0 0 2 0 0 0 0 0 4 0 0 2 0 0 1 0 0 3 0 0 0 0 0 2 0 0 4 0 0 2 0 0 1 0 0 2 0 0 5 0 0 7 0 0 3 0 0 5 0 0 3 0 0 0 0 0 4 0 0 3 0 0 0 0 0 3 0 0 8 0 0 2 0 0 2 0 0 3 0 0 7 0 0 4 0 0 1 0 0 2 0 0 2 0 0 3 0 0 0 0 0 9 0 0 3 0 0 4 0 0 3 0 0 3 0 0 0 0 0 0 0 0 3 0 0 3 0 0 2 0 0 1 0 0 2 0 0 2 0 0 1 0 0 1 0 0 2 0 0 0 0 0 0 0 0 0 0 0 
0 0 0 0 0 0 1 0 0 1 0 0 1 0 0 0 0 0 4 0 0 2 0 0 1 0 0 2 0 0 2 0 0 5 0 0 3 0 0 1 0 0 3 0 0 5 0 0 4 0 0 3 0 0 4 0 0 2 0 0 3 0 0 2 0 0 4 0 0 6 0 0 4 0 0 2 0 0 6 0 0 6 0 0 2 0 0 2 0 0 11 0 0 2 0 0 1 0 0 3 0 0 4 0 0 5 0 0 4 0 0 5 0 0 3 0 0 5 0 0 3 0 0 4 0 0 7 0 0 2 0 0 4 0 0 4 0 0 0 0 0 1 0 0 3 0 0 3 0 0 2 0 0 3 0 0 1 0 0 2 0 0 1 0 0 1 0 0 1 0 0 0 0 0 0 0 0 0 0 0 
2 0 0 3 0 0 0 0 0 2 0 0 3 0 0 1 0 0 1 0 0 2 0 0 2 0 0 2 0 0 2 0 0 4 0 0 6 0 0 5 0 0 6 0 0 5 0 0 5 0 0 1 0 0 5 0 0 6 0 0 7 0 0 4 0 0 5 0 0 12 0 0 4 0 0 7 0 0 1 0 0 1 0 0 2 0 0 8 0 0 5 0 0 8 0 0 4 0 0 2 0 0 8 0 0 6 0 0 6 0 0 5 0 0 4 0 0 6 0 0 7 0 0 5 0 0 8 0 0 5 0 0 2 0 0 4 0 0 3 0 0 1 0 0 3 0 0 2 0 0 3 0 0 4 0 0 3 0 0 3 0 0 0 0 0 0 0 0 2 0 0 3 0 0 0 0 0 1 0 0 
0 0 0 3 0 0 3 0 0 1 0 0 0 0 0 0 0 0 1 0 0 2 0 0 5 0 0 2 0 0 2 0 0 5 0 0 8 0 0 6 0 0 6 0 0 6 0 0 4 0 0 3 0 0 5 0 0 9 0 0 6 0 0 4 0 0 1 0 0 8 0 0 4 0 0 7 0 0 11 0 0 2 0 0 4 0 0 6 0 0 8 0 0 7 0 0 8 0 0 8 0 0 9 0 0 4 0 0 4 0 0 5 0 0 10 0 0 5 0 0 10 0 0 6 0 0 11 0 0 7 0 0 4 0 0 5 0 0 3 0 0 1 0 0 3 0 0 7 0 0 3 0 0 1 0 0 7 0 0 3 0 0 2 0 0 2 0 0 1 0 0 2 0 0 1 0 0 0 0 0 
0 0 0 2 0 0 5 0 0 2 0 0 2 0 0 3 0 0 1 0 0 6 0 0 5 0 0 5 0 0 7 0 0 1 0 0 7 0 0 7 0 0 4 0 0 4 0 0 9 0 0 6 0 0 4 0 0 5 0 0 9 0 0 6 0 0 5 0 0 5 0 0 4 0 0 10 0 0 13 0 0 3 0 0 5 0 0 5 0 0 11 0 0 8 0 0 3 0 0 6 0 0 4 0 0 7 0 0 3 0 0 7 0 0 6 0 0 7 0 0 9 0 0 10 0 0 13 0 0 7 0 0 8 0 0 6 0 0 3 0 0 5 0 0 5 0 0 10 0 0 10 0 0 5 0 0 2 0 0 3 0 0 3 0 0 1 0 0 3 0 0 3 0 0 1 0 0 1 0 0 
1 0 0 1 0 0 2 0 0 5 0 0 1 0 0 2 0 0 2 0 0 1 0 0 3 0 0 6 0 0 4 0 0 9 0 0 5 0 0 9 0 0 5 0 0 8 0 0 9 0 0 5 0 0 12 0 0 9 0 0 11 0 0 10 0 0 5 0 0 7 0 0 5 0 0 9 0 0 13 0 0 4 0 0 7 0 0 13 0 0 11 0 0 9 0 0 6 0 0 6 0 0 8 0 0 12 0 0 14 0 0 10 0 0 10 0 0 14 0 0 11 0 0 6 0 0 8 0 0 12 0 0 12 0 0 6 0 0 13 0 0 13 0 0 8 0 0 10 0 0 8 0 0 4 0 0 0 0 0 1 0 0 0 0 0 1 0 0 1 0 0 0 0 0 0 0 0 1 0 0 
0 0 0 1 0 0 1 0 0 2 0 0 0 0 0 0 0 0 2 0 0 3 0 0 5 0 0 5 0 0 26 0 0 42 0 0 40 0 0 36 0 0 46 0 0 28 0 0 43 0 0 42 0 0 47 0 0 53 0 0 52 0 0 45 0 0 35 0 0 49 0 0 45 0 0 44 0 0 48 0 0 53 0 0 49 0 0 56 0 0 46 0 0 51 0 0 49 0 0 44 0 0 41 0 0 45 0 0 56 0 0 36 0 0 41 0 0 47 0 0 51 0 0 40 0 0 48 0 0 49 0 0 44 0 0 36 0 0 50 0 0 46 0 0 48 0 0 44 0 0 22 0 0 4 0 0 5 0 0 2 0 0 1 0 0 3 0 0 2 0 0 2 0 0 1 0 0 0 0 0 
0 0 0 1 0 0 1 0 0 1 0 0 2 0 0 1 0 0 2 0 0 7 0 0 10 0 0 28 0 0 1352 0 0 2707 0 0 2675 0 0 2763 0 0 2709 0 0 2653 0 0 2707 0 0 2618 0 0 2721 0 0 2666 0 0 2749 0 0 2764 0 0 2794 0 0 2686 0 0 2689 0 0 2706 0 0 2734 0 0 2662 0 0 2679 0 0 2606 0 0 2723 0 0 2622 0 0 2717 0 0 2754 0 0 2664 0 0 2784 0 0 2743 0 0 2734 0 0 2614 0 0 2659 0 0 2680 0 0 2722 0 0 2710 0 0 2682 0 0 2741 0 0 2692 0 0 2702 0 0 2636 0 0 2695 0 0 2672 0 0 1342 0 0 24 0 0 7 0 0 4 0 0 4 0 0 4 0 0 0 0 0 1 0 0 1 0 0 0 0 0 
1 0 0 1 0 0 1 0 0 2 0 0 3 0 0 4 0 0 4 0 0 4 0 0 10 0 0 45 0 0 2606 0 0 5264 0 0 5410 0 0 5313 0 0 5127 0 0 5304 0 0 5172 0 0 5279 0 0 5323 0 0 5222 0 0 5315 0 0 5349 0 0 5301 0 0 5395 0 0 5256 0 0 5359 0 0 5322 0 0 5231 0 0 5299 0 0 5235 0 0 5215 0 0 5281 0 0 5359 0 0 5372 0 0 5243 0 0 5225 0 0 5363 0 0 5301 0 0 5311 0 0 5405 0 0 5347 0 0 5328 0 0 5364 0 0 5188 0 0 5194 0 0 5336 0 0 5322 0 0 5413 0 0 5366 0 0 5243 0 0 2705 0 0 43 0 0 7 0 0 6 0 0 3 0 0 2 0 0 2 0 0 2 0 0 0 0 0 1 0 0 
0 0 0 2 0 0 3 0 0 0 0 0 1 0 0 4 0 0 5 0 0 3 0 0 5 0 0 43 0 0 2638 0 0 5204 0 0 5255 0 0 5392 0 0 5320 0 0 5212 0 0 5219 0 0 5296 0 0 5434 0 0 5411 0 0 5391 0 0 5401 0 0 5413 0 0 5435 0 0 5305 0 0 5341 0 0 5450 0 0 5301 0 0 5307 0 0 5244 0 0 5333 0 0 5256 0 0 5369 0 0 5343 0 0 5439 0 0 5445 0 0 5356 0 0 5377 0 0 5311 0 0 5324 0 0 5311 0 0 5352 0 0 5324 0 0 5394 0 0 5380 0 0 5484 0 0 5377 0 0 5375 0 0 5177 0 0 5350 0 0 2602 0 0 37 0 0 2 0 0 5 0 0 3 0 0 3 0 0 0 0 0 1 0 0 0 0 0 2 0 0 
1 0 0 2 0 0 4 0 0 4 0 0 4 0 0 5 0 0 3 0 0 2 0 0 7 0 0 31 0 0 2648 0 0 5195 0 0 5386 0 0 5322 0 0 5334 0 0 5368 0 0 5248 0 0 5334 0 0 5462 0 0 5305 0 0 5349 0 0 5281 0 0 5265 0 0 5330 0 0 5368 0 0 5376 0 0 5355 0 0 5361 0 0 5412 0 0 5367 0 0 5346 0 0 5331 0 0 5270 0 0 5437 0 0 5392 0 0 5387 0 0 5370 0 0 5435 0 0 5377 0 0 5425 0 0 5461 0 0 5308 0 0 5368 0 0 5366 0 0 5346 0 0 5379 0 0 5379 0 0 5318 0 0 5364 0 0 5342 0 0 2665 0 0 29 0 0 8 0 0 5 0 0 3 0 0 1 0 0 3 0 0 1 0 0 0 0 0 0 0 0 
0 0 0 3 0 0 3 0 0 1 0 0 1 0 0 1 0 0 4 0 0 3 0 0 5 0 0 46 0 0 2729 0 0 5211 0 0 5393 0 0 5293 0 0 5416 0 0 5330 0 0 5306 0 0 5426 0 0 5314 0 0 5271 0 0 5337 0 0 5271 0 0 5256 0 0 5348 0 0 5367 0 0 5330 0 0 5332 0 0 5376 0 0 5353 0 0 5361 0 0 5467 0 0 5312 0 0 5253 0 0 5399 0 0 5480 0 0 5435 0 0 5325 0 0 5385 0 0 5383 0 0 5308 0 0 5486 0 0 5274 0 0 5151 0 0 5378 0 0 5363 0 0 5327 0 0 5231 0 0 5218 0 0 5325 0 0 5379 0 0 2644 0 0 44 0 0 8 0 0 4 0 0 8 0 0 2 0 0 3 0 0 5 0 0 3 0 0 4 0 0 
0 0 0 1 0 0 3 0 0 4 0 0 2 0 0 4 0 0 6 0 0 6 0 0 11 0 0 49 0 0 2604 0 0 5329 0 0 5420 0 0 5292 0 0 5326 0 0 5524 0 0 5319 0 0 5353 0 0 5406 0 0 5335 0 0 5351 0 0 5371 0 0 5318 0 0 5431 0 0 5401 0 0 5342 0 0 5315 0 0 5331 0 0 5333 0 0 5468 0 0 5182 0 0 5375 0 0 5348 0 0 5310 0 0 5342 0 0 5378 0 0 5395 0 0 5228 0 0 5330 0 0 5348 0 0 5277 0 0 5315 0 0 5303 0 0 5296 0 0 5274 0 0 5374 0 0 5318 0 0 5189 0 0 5386 0 0 5271 0 0 2657 0 0 39 0 0 2 0 0 10 0 0 1 0 0 8 0 0 6 0 0 1 0 0 1 0 0 0 0 0 
0 0 0 2 0 0 2 0 0 0 0 0 1 0 0 3 0 0 6 0 0 7 0 0 14 0 0 38 0 0 2662 0 0 5293 0 0 5347 0 0 5343 0 0 5393 0 0 5237 0 0 5472 0 0 5345 0 0 5304 0 0 5375 0 0 5433 0 0 5368 0 0 5384 0 0 5471 0 0 5411 0 0 5340 0 0 5344 0 0 5370 0 0 5311 0 0 5395 0 0 5304 0 0 5217 0 0 5376 0 0 5328 0 0 5223 0 0 5362 0 0 5373 0 0 5356 0 0 5365 0 0 5273 0 0 5369 0 0 5330 0 0 5377 0 0 5317 0 0 5220 0 0 5260 0 0 5393 0 0 5355 0 0 5261 0 0 5313 0 0 2711 0 0 36 0 0 6 0 0 6 0 0 7 0 0 5 0 0 1 0 0 0 0 0 6 0 0 0 0 0 
1 0 0 1 0 0 1 0 0 2 0 0 5 0 0 4 0 0 4 0 0 8 0 0 10 0 0 54 0 0 2707 0 0 5256 0 0 5337 0 0 5354 0 0 5306 0 0 5491 0 0 5469 0 0 5213 0 0 5290 0 0 5427 0 0 5398 0 0 5408 0 0 5440 0 0 5269 0 0 5331 0 0 5372 0 0 5340 0 0 5307 0 0 5487 0 0 5429 0 0 5365 0 0 5382 0 0 5329 0 0 5248 0 0 5212 0 0 5312 0 0 5374 0 0 5307 0 0 5291 0 0 5311 0 0 5389 0 0 5348 0 0 5421 0 0 5400 0 0 5279 0 0 5395 0 0 5368 0 0 5338 0 0 5458 0 0 5303 0 0 2731 0 0 46 0 0 10 0 0 7 0 0 2 0 0 1 0 0 2 0 0 3 0 0 2 0 0 4 0 0 
1 0 0 0 0 0 0 0 0 2 0 0 2 0 0 4 0 0 5 0 0 2 0 0 6 0 0 40 0 0 2609 0 0 5280 0 0 5359 0 0 5357 0 0 5399 0 0 5270 0 0 5337 0 0 5343 0 0 5321 0 0 5362 0 0 5478 0 0 5350 0 0 5369 0 0 5408 0 0 5307 0 0 5369 0 0 5452 0 0 5257 0 0 5346 0 0 5404 0 0 5316 0 0 5307 0 0 5445 0 0 5323 0 0 5330 0 0 5234 0 0 5469 0 0 5459 0 0 5347 0 0 5319 0 0 5356 0 0 5354 0 0 5330 0 0 5312 0 0 5549 0 0 5392 0 0 5317 0 0 5423 0 0 5279 0 0 5424 0 0 2679 0 0 52 0 0 8 0 0 4 0 0 4 0 0 2 0 0 5 0 0 4 0 0 3 0 0 1 0 0 
0 0 0 0 0 0 0 0 0 2 0 0 1 0 0 1 0 0 5 0 0 3 0 0 10 0 0 56 0 0 2723 0 0 5267 0 0 5357 0 0 5382 0 0 5336 0 0 5435 0 0 5250 0 0 5296 0 0 5421 0 0 5468 0 0 5372 0 0 5327 0 0 5245 0 0 5403 0 0 5463 0 0 5231 0 0 5332 0 0 5404 0 0 5360 0 0 5336 0 0 5311 0 0 5364 0 0 5384 0 0 5318 0 0 5261 0 0 5480 0 0 5398 0 0 5263 0 0 5346 0 0 5286 0 0 5358 0 0 5410 0 0 5310 0 0 5362 0 0 5349 0 0 5455 0 0 5285 0 0 5251 0 0 5454 0 0 5310 0 0 2686 0 0 43 0 0 9 0 0 3 0 0 4 0 0 5 0 0 4 0 0 2 0 0 5 0 0 2 0 0 
0 0 0 1 0 0 4 0 0 2 0 0 6 0 0 6 0 0 7 0 0 10 0 0 8 0 0 51 0 0 2714 0 0 5366 0 0 5211 0 0 5239 0 0 5314 0 0 5339 0 0 5330 0 0 5396 0 0 5294 0 0 5460 0 0 5410 0 0 5373 0 0 5218 0 0 5289 0 0 5310 0 0 5337 0 0 5392 0 0 5299 0 0 5281 0 0 5388 0 0 5362 0 0 5346 0 0 5344 0 0 5327 0 0 5249 0 0 5302 0 0 5386 0 0 5293 0 0 5284 0 0 5277 0 0 5352 0 0 5336 0 0 5320 0 0 5254 0 0 5410 0 0 5327 0 0 5312 0 0 5411 0 0 5424 0 0 5386 0 0 2773 0 0 48 0 0 13 0 0 12 0 0 5 0 0 5 0 0 6 0 0 9 0 0 9 0 0 3 0 0 
1 0 0 4 0 0 1 0 0 0 0 0 3 0 0 10 0 0 8 0 0 11 0 0 10 0 0 57 0 0 2729 0 0 5256 0 0 5203 0 0 5309 0 0 5349 0 0 5288 0 0 5324 0 0 5300 0 0 5445 0 0 5239 0 0 5185 0 0 5388 0 0 5355 0 0 5404 0 0 5343 0 0 5275 0 0 5368 0 0 5485 0 0 5340 0 0 5412 0 0 5349 0 0 5350 0 0 5286 0 0 5249 0 0 5292 0 0 5524 0 0 5263 0 0 5290 0 0 5340 0 0 5333 0 0 5389 0 0 5437 0 0 5240 0 0 5276 0 0 5409 0 0 5307 0 0 5395 0 0 5292 0 0 5453 0 0 5319 0 0 2759 0 0 43 0 0 9 0 0 6 0 0 6 0 0 6 0 0 2 0 0 3 0 0 4 0 0 1 0 0 
3 0 0 4 0 0 3 0 0 6 0 0 4 0 0 1 0 0 5 0 0 8 0 0 11 0 0 46 0 0 2652 0 0 5253 0 0 5371 0 0 5377 0 0 5373 0 0 5350 0 0 5421 0 0 5419 0 0 5247 0 0 5335 0 0 5426 0 0 5300 0 0 5242 0 0 5240 0 0 5277 0 0 5335 0 0 5373 0 0 5313 0 0 5413 0 0 5468 0 0 5367 0 0 5366 0 0 5295 0 0 5291 0 0 5344 0 0 5409 0 0 5353 0 0 5364 0 0 5349 0 0 5247 0 0 5325 0 0 5458 0 0 5417 0 0 5327 0 0 5298 0 0 5463 0 0 5344 0 0 5411 0 0 5324 0 0 5402 0 0 2691 0 0 44 0 0 9 0 0 6 0 0 4 0 0 4 0 0 7 0 0 9 0 0 4 0 0 5 0 0 
2 0 0 3 0 0 3 0 0 6 0 0 4 0 0 6 0 0 2 0 0 4 0 0 3 0 0 43 0 0 2600 0 0 5322 0 0 5314 0 0 5417 0 0 5290 0 0 5250 0 0 5333 0 0 5397 0 0 5379 0 0 5368 0 0 5347 0 0 5319 0 0 5329 0 0 5470 0 0 5313 0 0 5272 0 0 5251 0 0 5311 0 0 5266 0 0 5425 0 0 5417 0 0 5301 0 0 5313 0 0 5336 0 0 5219 0 0 5287 0 0 5403 0 0 5308 0 0 5335 0 0 5404 0 0 5435 0 0 5504 0 0 5335 0 0 5367 0 0 5311 0 0 5346 0 0 5429 0 0 5386 0 0 5388 0 0 5212 0 0 2657 0 0 49 0 0 15 0 0 5 0 0 7 0 0 6 0 0 8 0 0 8 0 0 3 0 0 4 0 0 
0 0 0 2 0 0 2 0 0 5 0 0 5 0 0 4 0 0 7 0 0 1 0 0 9 0 0 50 0 0 2723 0 0 5176 0 0 5352 0 0 5357 0 0 5499 0 0 5401 0 0 5328 0 0 5240 0 0 5382 0 0 5410 0 0 5303 0 0 5294 0 0 5250 0 0 5355 0 0 5390 0 0 5341 0 0 5351 0 0 5300 0 0 5366 0 0 5270 0 0 5385 0 0 5318 0 0 5385 0 0 5368 0 0 5373 0 0 5409 0 0 5406 0 0 5327 0 0 5272 0 0 5359 0 0 5265 0 0 5361 0 0 5245 0 0 5310 0 0 5144 0 0 5337 0 0 5318 0 0 5246 0 0 5271 0 0 5303 0 0 2668 0 0 47 0 0 6 0 0 6 0 0 13 0 0 6 0 0 1 0 0 2 0 0 5 0 0 6 0 0 
0 0 0 3 0 0 0 0 0 1 0 0 7 0 0 7 0 0 5 0 0 6 0 0 7 0 0 38 0 0 2701 0 0 5395 0 0 5348 0 0 5360 0 0 5412 0 0 5422 0 0 5292 0 0 5318 0 0 5350 0 0 5407 0 0 5307 0 0 5264 0 0 5382 0 0 5323 0 0 5295 0 0 5402 0 0 5333 0 0 5362 0 0 5340 0 0 5399 0 0 5312 0 0 5441 0 0 5397 0 0 5431 0 0 5455 0 0 5346 0 0 5313 0 0 5368 0 0 5316 0 0 5421 0 0 5495 0 0 5345 0 0 5415 0 0 5335 0 0 5273 0 0 5287 0 0 5448 0 0 5327 0 0 5376 0 0 5276 0 0 2676 0 0 45 0 0 9 0 0 6 0 0 7 0 0 4 0 0 3 0 0 5 0 0 2 0 0 3 0 0 
2 0 0 2 0 0 1 0 0 4 0 0 5 0 0 3 0 0 6 0 0 7 0 0 10 0 0 43 0 0 2691 0 0 5452 0 0 5303 0 0 5317 0 0 5422 0 0 5414 0 0 5341 0 0 5328 0 0 5319 0 0 5242 0 0 5291 0 0 5307 0 0 5395 0 0 5339 0 0 5324 0 0 5428 0 0 5426 0 0 5408 0 0 5368 0 0 5438 0 0 5500 0 0 5372 0 0 5261 0 0 5492 0 0 5381 0 0 5417 0 0 5236 0 0 5314 0 0 5368 0 0 5395 0 0 5374 0 0 5357 0 0 5321 0 0 5301 0 0 5417 0 0 5296 0 0 5387 0 0 5202 0 0 5358 0 0 5311 0 0 2614 0 0 49 0 0 6 0 0 6 0 0 2 0 0 7 0 0 5 0 0 8 0 0 6 0 0 4 0 0 
1 0 0 5 0 0 4 0 0 5 0 0 4 0 0 6 0 0 6 0 0 4 0 0 11 0 0 47 0 0 2651 0 0 5415 0 0 5398 0 0 5373 0 0 5295 0 0 5346 0 0 5486 0 0 5247 0 0 5349 0 0 5302 0 0 5339 0 0 5299 0 0 5475 0 0 5425 0 0 5403 0 0 5302 0 0 5237 0 0 5452 0 0 5343 0 0 5335 0 0 5243 0 0 5311 0 0 5421 0 0 5373 0 0 5352 0 0 5387 0 0 5274 0 0 5373 0 0 5279 0 0 5341 0 0 5386 0 0 5398 0 0 5285 0 0 5342 0 0 5463 0 0 5304 0 0 5272 0 0 5345 0 0 5294 0 0 5320 0 0 2683 0 0 51 0 0 6 0 0 4 0 0 9 0 0 3 0 0 4 0 0 3 0 0 3 0 0 2 0 0 
0 0 0 3 0 0 2 0 0 4 0 0 5 0 0 6 0 0 8 0 0 10 0 0 6 0 0 46 0 0 2707 0 0 5299 0 0 5496 0 0 5399 0 0 5453 0 0 5419 0 0 5338 0 0 5405 0 0 5326 0 0 5416 0 0 5373 0 0 5322 0 0 5474 0 0 5332 0 0 5388 0 0 5358 0 0 5348 0 0 5384 0 0 5341 0 0 5359 0 0 5373 0 0 5266 0 0 5359 0 0 5377 0 0 5431 0 0 5363 0 0 5387 0 0 5370 0 0 5365 0 0 5348 0 0 5361 0 0 5367 0 0 5337 0 0 5376 0 0 5358 0 0 5363 0 0 5277 0 0 5365 0 0 5360 0 0 5265 0 0 2613 0 0 56 0 0 10 0 0 5 0 0 3 0 0 3 0 0 4 0 0 6 0 0 2 0 0 4 0 0 
1 0 0 4 0 0 5 0 0 4 0 0 7 0 0 11 0 0 4 0 0 2 0 0 5 0 0 52 0 0 2773 0 0 5318 0 0 5257 0 0 5275 0 0 5301 0 0 5275 0 0 5396 0 0 5360 0 0 5437 0 0 5461 0 0 5347 0 0 5387 0 0 5298 0 0 5323 0 0 5304 0 0 5316 0 0 5339 0 0 5477 0 0 5333 0 0 5245 0 0 5270 0 0 5386 0 0 5367 0 0 5274 0 0 5409 0 0 5303 0 0 5387 0 0 5281 0 0 5373 0 0 5290 0 0 5445 0 0 5335 0 0 5442 0 0 5407 0 0 5275 0 0 5232 0 0 5251 0 0 5293 0 0 5349 0 0 5372 0 0 2642 0 0 52 0 0 9 0 0 5 0 0 8 0 0 4 0 0 3 0 0 3 0 0 6 0 0 4 0 0 
2 0 0 5 0 0 6 0 0 6 0 0 4 0 0 6 0 0 3 0 0 6 0 0 8 0 0 43 0 0 2704 0 0 5325 0 0 5390 0 0 5401 0 0 5422 0 0 5362 0 0 5434 0 0 5340 0 0 5424 0 0 5430 0 0 5367 0 0 5201 0 0 5405 0 0 5343 0 0 5325 0 0 5410 0 0 5294 0 0 5277 0 0 5398 0 0 5302 0 0 5304 0 0 5383 0 0 5308 0 0 5402 0 0 5360 0 0 5332 0 0 5316 0 0 5292 0 0 5387 0 0 5318 0 0 5415 0 0 5377 0 0 5310 0 0 5356 0 0 5386 0 0 5250 0 0 5359 0 0 5293 0 0 5312 0 0 5291 0 0 2647 0 0 55 0 0 13 0 0 5 0 0 2 0 0 6 0 0 3 0 0 1 0 0 0 0 0 1 0 0 
1 0 0 4 0 0 3 0 0 3 0 0 5 0 0 6 0 0 7 0 0 6 0 0 11 0 0 50 0 0 2763 0 0 5284 0 0 5447 0 0 5266 0 0 5349 0 0 5393 0 0 5343 0 0 5327 0 0 5335 0 0 5305 0 0 5259 0 0 5358 0 0 5328 0 0 5366 0 0 5410 0 0 5236 0 0 5402 0 0 5331 0 0 5295 0 0 5300 0 0 5377 0 0 5367 0 0 5345 0 0 5491 0 0 5440 0 0 5350 0 0 5291 0 0 5316 0 0 5352 0 0 5333 0 0 5323 0 0 5430 0 0 5315 0 0 5430 0 0 5368 0 0 5260 0 0 5338 0 0 5300 0 0 5362 0 0 5256 0 0 2767 0 0 46 0 0 10 0 0 6 0 0 3 0 0 4 0 0 4 0 0 2 0 0 3 0 0 2 0 0 
1 0 0 3 0 0 4 0 0 3 0 0 3 0 0 5 0 0 8 0 0 9 0 0 10 0 0 56 0 0 2792 0 0 5298 0 0 5298 0 0 5435 0 0 5359 0 0 5343 0 0 5378 0 0 5265 0 0 5233 0 0 5307 0 0 5275 0 0 5308 0 0 5425 0 0 5337 0 0 5300 0 0 5317 0 0 5367 0 0 5344 0 0 5388 0 0 5369 0 0 5427 0 0 5319 0 0 5271 0 0 5401 0 0 5323 0 0 5356 0 0 5322 0 0 5337 0 0 5458 0 0 5315 0 0 5406 0 0 5569 0 0 5242 0 0 5393 0 0 5370 0 0 5275 0 0 5251 0 0 5393 0 0 5468 0 0 5288 0 0 2676 0 0 49 0 0 8 0 0 10 0 0 8 0 0 7 0 0 4 0 0 5 0 0 3 0 0 4 0 0 
2 0 0 4 0 0 0 0 0 4 0 0 3 0 0 3 0 0 5 0 0 9 0 0 16 0 0 51 0 0 2682 0 0 5291 0 0 5371 0 0 5406 0 0 5352 0 0 5231 0 0 5323 0 0 5344 0 0 5437 0 0 5408 0 0 5469 0 0 5450 0 0 5410 0 0 5267 0 0 5284 0 0 5433 0 0 5435 0 0 5412 0 0 5296 0 0 5438 0 0 5267 0 0 5356 0 0 5372 0 0 5466 0 0 5387 0 0 5299 0 0 5407 0 0 5395 0 0 5205 0 0 5346 0 0 5358 0 0 5315 0 0 5284 0 0 5305 0 0 5405 0 0 5405 0 0 5337 0 0 5493 0 0 5331 0 0 5260 0 0 2724 0 0 53 0 0 11 0 0 8 0 0 4 0 0 4 0 0 0 0 0 1 0 0 1 0 0 2 0 0 
1 0 0 4 0 0 0 0 0 3 0 0 3 0 0 4 0 0 4 0 0 8 0 0 11 0 0 47 0 0 2644 0 0 5319 0 0 5274 0 0 5368 0 0 5342 0 0 5317 0 0 5434 0 0 5252 0 0 5294 0 0 5366 0 0 5333 0 0 5450 0 0 5312 0 0 5507 0 0 5360 0 0 5499 0 0 5320 0 0 5413 0 0 5327 0 0 5340 0 0 5344 0 0 5385 0 0 5451 0 0 5314 0 0 5297 0 0 5280 0 0 5308 0 0 5340 0 0 5346 0 0 5306 0 0 5370 0 0 5264 0 0 5322 0 0 5386 0 0 5422 0 0 5440 0 0 5402 0 0 5345 0 0 5318 0 0 5367 0 0 2688 0 0 47 0 0 8 0 0 6 0 0 9 0 0 8 0 0 4 0 0 2 0 0 0 0 0 0 0 0 
1 0 0 2 0 0 5 0 0 7 0 0 7 0 0 6 0 0 4 0 0 9 0 0 8 0 0 44 0 0 2603 0 0 5355 0 0 5221 0 0 5317 0 0 5303 0 0 5424 0 0 5353 0 0 5347 0 0 5465 0 0 5496 0 0 5322 0 0 5301 0 0 5443 0 0 5491 0 0 5245 0 0 5364 0 0 5389 0 0 5390 0 0 5457 0 0 5423 0 0 5318 0 0 5286 0 0 5346 0 0 5381 0 0 5245 0 0 5219 0 0 5340 0 0 5470 0 0 5246 0 0 5292 0 0 5373 0 0 5358 0 0 5373 0 0 5446 0 0 5323 0 0 5308 0 0 5351 0 0 5402 0 0 5407 0 0 5407 0 0 2750 0 0 43 0 0 15 0 0 5 0 0 5 0 0 8 0 0 2 0 0 0 0 0 1 0 0 2 0 0 
1 0 0 4 0 0 4 0 0 6 0 0 5 0 0 4 0 0 6 0 0 9 0 0 9 0 0 50 0 0 2667 0 0 5261 0 0 5287 0 0 5380 0 0 5242 0 0 5360 0 0 5308 0 0 5382 0 0 5325 0 0 5313 0 0 5350 0 0 5395 0 0 5408 0 0 5396 0 0 5235 0 0 5286 0 0 5340 0 0 5360 0 0 5290 0 0 5343 0 0 5297 0 0 5331 0 0 5344 0 0 5338 0 0 5375 0 0 5372 0 0 5322 0 0 5354 0 0 5379 0 0 5379 0 0 5415 0 0 5452 0 0 5282 0 0 5434 0 0 5372 0 0 5374 0 0 5399 0 0 5403 0 0 5309 0 0 5349 0 0 2808 0 0 51 0 0 12 0 0 8 0 0 3 0 0 4 0 0 1 0 0 3 0 0 1 0 0 1 0 0 
1 0 0 2 0 0 5 0 0 7 0 0 2 0 0 5 0 0 7 0 0 7 0 0 11 0 0 49 0 0 2694 0 0 5270 0 0 5313 0 0 5429 0 0 5326 0 0 5273 0 0 5386 0 0 5269 0 0 5265 0 0 5429 0 0 5281 0 0 5518 0 0 5406 0 0 5398 0 0 5244 0 0 5351 0 0 5279 0 0 5306 0 0 5415 0 0 5442 0 0 5417 0 0 5385 0 0 5388 0 0 5333 0 0 5343 0 0 5332 0 0 5454 0 0 5451 0 0 5341 0 0 5351 0 0 5353 0 0 5341 0 0 5339 0 0 5299 0 0 5414 0 0 5311 0 0 5257 0 0 5344 0 0 5273 0 0 5346 0 0 2649 0 0 57 0 0 9 0 0 3 0 0 2 0 0 1 0 0 2 0 0 3 0 0 1 0 0 0 0 0 
2 0 0 3 0 0 2 0 0 1 0 0 1 0 0 2 0 0 3 0 0 8 0 0 11 0 0 44 0 0 2692 0 0 5424 0 0 5249 0 0 5342 0 0 5260 0 0 5528 0 0 5320 0 0 5309 0 0 5346 0 0 5344 0 0 5291 0 0 5334 0 0 5448 0 0 5300 0 0 5186 0 0 5283 0 0 5294 0 0 5364 0 0 5248 0 0 5286 0 0 5505 0 0 5282 0 0 5396 0 0 5421 0 0 5358 0 0 5335 0 0 5318 0 0 5278 0 0 5271 0 0 5358 0 0 5423 0 0 5337 0 0 5437 0 0 5383 0 0 5238 0 0 5466 0 0 5309 0 0 5274 0 0 5380 0 0 5396 0 0 2762 0 0 42 0 0 8 0 0 11 0 0 2 0 0 1 0 0 2 0 0 4 0 0 0 0 0 0 0 0 
0 0 0 2 0 0 3 0 0 1 0 0 1 0 0 4 0 0 5 0 0 4 0 0 9 0 0 43 0 0 2676 0 0 5316 0 0 5476 0 0 5459 0 0 5317 0 0 5324 0 0 5359 0 0 5341 0 0 5404 0 0 5340 0 0 5309 0 0 5488 0 0 5416 0 0 5392 0 0 5393 0 0 5425 0 0 5355 0 0 5260 0 0 5348 0 0 5348 0 0 5365 0 0 5322 0 0 5368 0 0 5284 0 0 5326 0 0 5374 0 0 5326 0 0 5357 0 0 5454 0 0 5450 0 0 5279 0 0 5413 0 0 5280 0 0 5408 0 0 5422 0 0 5292 0 0 5336 0 0 5361 0 0 5421 0 0 5325 0 0 2643 0 0 49 0 0 8 0 0 5 0 0 5 0 0 4 0 0 3 0 0 1 0 0 3 0 0 4 0 0 
0 0 0 1 0 0 1 0 0 6 0 0 5 0 0 7 0 0 4 0 0 9 0 0 12 0 0 36 0 0 2696 0 0 5234 0 0 5289 0 0 5321 0 0 5294 0 0 5321 0 0 5241 0 0 5355 0 0 5317 0 0 5326 0 0 5289 0 0 5311 0 0 5362 0 0 5391 0 0 5401 0 0 5373 0 0 5242 0 0 5282 0 0 5390 0 0 5235 0 0 5384 0 0 5354 0 0 5257 0 0 5335 0 0 5364 0 0 5269 0 0 5359 0 0 5440 0 0 5401 0 0 5391 0 0 5328 0 0 5308 0 0 5314 0 0 5362 0 0 5334 0 0 5276 0 0 5392 0 0 5446 0 0 5494 0 0 5386 0 0 2711 0 0 49 0 0 14 0 0 6 0 0 7 0 0 9 0 0 4 0 0 2 0 0 1 0 0 2 0 0 
0 0 0 0 0 0 1 0 0 5 0 0 7 0 0 6 0 0 6 0 0 4 0 0 6 0 0 43 0 0 2623 0 0 5305 0 0 5413 0 0 5345 0 0 5235 0 0 5275 0 0 5382 0 0 5284 0 0 5367 0 0 5274 0 0 5311 0 0 5382 0 0 5411 0 0 5277 0 0 5229 0 0 5324 0 0 5364 0 0 5326 0 0 5337 0 0 5421 0 0 5451 0 0 5221 0 0 5307 0 0 5338 0 0 5393 0 0 5359 0 0 5373 0 0 5351 0 0 5406 0 0 5381 0 0 5482 0 0 5282 0 0 5377 0 0 5293 0 0 5295 0 0 5315 0 0 5284 0 0 5333 0 0 5252 0 0 5331 0 0 2608 0 0 42 0 0 8 0 0 4 0 0 8 0 0 8 0 0 2 0 0 2 0 0 4 0 0 1 0 0 
0 0 0 1 0 0 2 0 0 3 0 0 1 0 0 7 0 0 2 0 0 9 0 0 8 0 0 42 0 0 2670 0 0 5363 0 0 5311 0 0 5387 0 0 5236 0 0 5387 0 0 5367 0 0 5261 0 0 5381 0 0 5466 0 0 5362 0 0 5455 0 0 5278 0 0 5386 0 0 5482 0 0 5398 0 0 5465 0 0 5293 0 0 5085 0 0 5272 0 0 5322 0 0 5339 0 0 5335 0 0 5226 0 0 5364 0 0 5318 0 0 5413 0 0 5488 0 0 5245 0 0 5288 0 0 5369 0 0 5382 0 0 5315 0 0 5183 0 0 5323 0 0 5406 0 0 5506 0 0 5227 0 0 5307 0 0 5218 0 0 2707 0 0 47 0 0 11 0 0 5 0 0 6 0 0 4 0 0 4 0 0 6 0 0 4 0 0 5 0 0 
2 0 0 3 0 0 4 0 0 6 0 0 5 0 0 3 0 0 9 0 0 8 0 0 12 0 0 47 0 0 2656 0 0 5337 0 0 5410 0 0 5290 0 0 5318 0 0 5400 0 0 5347 0 0 5432 0 0 5444 0 0 5457 0 0 5355 0 0 5429 0 0 5424 0 0 5279 0 0 5450 0 0 5341 0 0 5450 0 0 5389 0 0 5396 0 0 5348 0 0 5330 0 0 5374 0 0 5291 0 0 5336 0 0 5344 0 0 5377 0 0 5486 0 0 5383 0 0 5391 0 0 5383 0 0 5257 0 0 5288 0 0 5243 0 0 5323 0 0 5356 0 0 5342 0 0 5354 0 0 5322 0 0 5400 0 0 5296 0 0 2667 0 0 46 0 0 5 0 0 3 0 0 4 0 0 7 0 0 4 0 0 6 0 0 1 0 0 6 0 0 
0 0 0 4 0 0 5 0 0 5 0 0 3 0 0 2 0 0 2 0 0 7 0 0 8 0 0 50 0 0 2660 0 0 5348 0 0 5377 0 0 5408 0 0 5284 0 0 5317 0 0 5308 0 0 5277 0 0 5468 0 0 5291 0 0 5455 0 0 5359 0 0 5207 0 0 5361 0 0 5309 0 0 5365 0 0 5411 0 0 5381 0 0 5350 0 0 5426 0 0 5323 0 0 5367 0 0 5315 0 0 5494 0 0 5390 0 0 5413 0 0 5361 0 0 5376 0 0 5404 0 0 5353 0 0 5253 0 0 5304 0 0 5318 0 0 5394 0 0 5448 0 0 5353 0 0 5368 0 0 5402 0 0 5255 0 0 5311 0 0 2712 0 0 48 0 0 11 0 0 6 0 0 5 0 0 4 0 0 5 0 0 2 0 0 2 0 0 2 0 0 
2 0 0 2 0 0 6 0 0 3 0 0 5 0 0 4 0 0 4 0 0 4 0 0 8 0 0 34 0 0 2656 0 0 5422 0 0 5440 0 0 5301 0 0 5387 0 0 5466 0 0 5381 0 0 5332 0 0 5360 0 0 5390 0 0 5363 0 0 5355 0 0 5307 0 0 5381 0 0 5301 0 0 5320 0 0 5415 0 0 5398 0 0 5332 0 0 5467 0 0 5330 0 0 5310 0 0 5290 0 0 5303 0 0 5343 0 0 5382 0 0 5446 0 0 5368 0 0 5322 0 0 5280 0 0 5323 0 0 5427 0 0 5293 0 0 5425 0 0 5310 0 0 5286 0 0 5331 0 0 5349 0 0 5230 0 0 5235 0 0 2706 0 0 50 0 0 10 0 0 7 0 0 8 0 0 4 0 0 5 0 0 3 0 0 6 0 0 6 0 0 
0 0 0 2 0 0 1 0 0 3 0 0 2 0 0 1 0 0 4 0 0 8 0 0 10 0 0 55 0 0 2683 0 0 5257 0 0 5231 0 0 5405 0 0 5392 0 0 5269 0 0 5210 0 0 5443 0 0 5391 0 0 5470 0 0 5387 0 0 5411 0 0 5251 0 0 5360 0 0 5457 0 0 5336 0 0 5390 0 0 5462 0 0 5397 0 0 5362 0 0 5332 0 0 5454 0 0 5288 0 0 5324 0 0 5390 0 0 5374 0 0 5345 0 0 5367 0 0 5369 0 0 5349 0 0 5273 0 0 5371 0 0 5376 0 0 5369 0 0 5329 0 0 5368 0 0 5281 0 0 5227 0 0 5258 0 0 5240 0 0 2688 0 0 38 0 0 7 0 0 5 0 0 4 0 0 1 0 0 2 0 0 3 0 0 2 0 0 5 0 0 
0 0 0 3 0 0 6 0 0 2 0 0 0 0 0 3 0 0 3 0 0 7 0 0 12 0 0 35 0 0 2653 0 0 5206 0 0 5462 0 0 5398 0 0 5310 0 0 5311 0 0 5276 0 0 5318 0 0 5382 0 0 5347 0 0 5369 0 0 5390 0 0 5309 0 0 5357 0 0 5323 0 0 5342 0 0 5401 0 0 5488 0 0 5317 0 0 5341 0 0 5422 0 0 5316 0 0 5276 0 0 5323 0 0 5327 0 0 5450 0 0 5400 0 0 5401 0 0 5322 0 0 5269 0 0 5436 0 0 5346 0 0 5418 0 0 5298 0 0 5342 0 0 5384 0 0 5230 0 0 5383 0 0 5333 0 0 5402 0 0 2721 0 0 38 0 0 7 0 0 10 0 0 7 0 0 2 0 0 3 0 0 4 0 0 1 0 0 1 0 0 
0 0 0 2 0 0 0 0 0 0 0 0 0 0 0 2 0 0 1 0 0 4 0 0 6 0 0 40 0 0 2642 0 0 5345 0 0 5248 0 0 5317 0 0 5183 0 0 5296 0 0 5263 0 0 5312 0 0 5470 0 0 5417 0 0 5510 0 0 5381 0 0 5354 0 0 5393 0 0 5417 0 0 5237 0 0 5452 0 0 5491 0 0 5419 0 0 5389 0 0 5276 0 0 5409 0 0 5312 0 0 5339 0 0 5326 0 0 5312 0 0 5337 0 0 5344 0 0 5319 0 0 5379 0 0 5301 0 0 5290 0 0 5328 0 0 5490 0 0 5347 0 0 5377 0 0 5360 0 0 5263 0 0 5415 0 0 5348 0 0 2683 0 0 44 0 0 5 0 0 0 0 0 2 0 0 6 0 0 2 0 0 0 0 0 0 0 0 0 0 0 
0 0 0 1 0 0 2 0 0 1 0 0 3 0 0 4 0 0 4 0 0 8 0 0 9 0 0 38 0 0 2687 0 0 5233 0 0 5296 0 0 5411 0 0 5355 0 0 5266 0 0 5316 0 0 5247 0 0 5300 0 0 5278 0 0 5240 0 0 5307 0 0 5301 0 0 5305 0 0 5369 0 0 5343 0 0 5413 0 0 5315 0 0 5137 0 0 5353 0 0 5313 0 0 5366 0 0 5285 0 0 5312 0 0 5417 0 0 5350 0 0 5327 0 0 5363 0 0 5289 0 0 5349 0 0 5287 0 0 5184 0 0 5310 0 0 5337 0 0 5333 0 0 5356 0 0 5278 0 0 5252 0 0 5341 0 0 5228 0 0 2674 0 0 37 0 0 5 0 0 3 0 0 3 0 0 3 0 0 4 0 0 2 0 0 0 0 0 0 0 0 
0 0 0 1 0 0 0 0 0 1 0 0 6 0 0 3 0 0 7 0 0 3 0 0 7 0 0 22 0 0 1370 0 0 2675 0 0 2726 0 0 2674 0 0 2705 0 0 2647 0 0 2734 0 0 2657 0 0 2702 0 0 2598 0 0 2691 0 0 2630 0 0 2715 0 0 2646 0 0 2717 0 0 2623 0 0 2667 0 0 2626 0 0 2653 0 0 2713 0 0 2734 0 0 2742 0 0 2682 0 0 2614 0 0 2628 0 0 2708 0 0 2624 0 0 2714 0 0 2655 0 0 2697 0 0 2645 0 0 2671 0 0 2743 0 0 2689 0 0 2708 0 0 2678 0 0 2640 0 0 2639 0 0 2697 0 0 2742 0 0 1321 0 0 21 0 0 2 0 0 1 0 0 4 0 0 0 0 0 2 0 0 1 0 0 0 0 0 1 0 0 
0 0 0 1 0 0 1 0 0 1 0 0 3 0 0 6 0 0 8 0 0 3 0 0 5 0 0 5 0 0 24 0 0 42 0 0 43 0 0 46 0 0 49 0 0 54 0 0 35 0 0 41 0 0 66 0 0 52 0 0 36 0 0 42 0 0 48 0 0 42 0 0 47 0 0 54 0 0 53 0 0 41 0 0 45 0 0 51 0 0 60 0 0 58 0 0 49 0 0 54 0 0 52 0 0 58 0 0 36 0 0 39 0 0 43 0 0 35 0 0 49 0 0 48 0 0 48 0 0 46 0 0 52 0 0 46 0 0 41 0 0 51 0 0 36 0 0 44 0 0 32 0 0 7 0 0 0 0 0 0 0 0 1 0 0 3 0 0 1 0 0 2 0 0 1 0 0 0 0 0 
0 0 0 2 0 0 1 0 0 3 0 0 3 0 0 5 0 0 1 0 0 1 0 0 1 0 0 0 0 0 5 0 0 4 0 0 9 0 0 7 0 0 9 0 0 8 0 0 7 0 0 11 0 0 12 0 0 10 0 0 8 0 0 7 0 0 9 0 0 9 0 0 11 0 0 14 0 0 8 0 0 8 0 0 8 0 0 6 0 0 9 0 0 9 0 0 11 0 0 10 0 0 10 0 0 8 0 0 10 0 0 7 0 0 8 0 0 9 0 0 5 0 0 9 0 0 8 0 0 11 0 0 8 0 0 11 0 0 13 0 0 10 0 0 7 0 0 4 0 0 7 0 0 6 0 0 3 0 0 2 0 0 1 0 0 2 0 0 5 0 0 0 0 0 1 0 0 2 0 0 
1 0 0 4 0 0 2 0 0 4 0 0 3 0 0 2 0 0 1 0 0 1 0 0 0 0 0 4 0 0 4 0 0 5 0 0 4 0 0 4 0 0 2 0 0 5 0 0 11 0 0 10 0 0 9 0 0 7 0 0 5 0 0 2 0 0 7 0 0 13 0 0 6 0 0 10 0 0 5 0 0 1 0 0 5 0 0 12 0 0 5 0 0 6 0 0 8 0 0 17 0 0 10 0 0 11 0 0 8 0 0 4 0 0 10 0 0 5 0 0 6 0 0 7 0 0 3 0 0 9 0 0 6 0 0 5 0 0 3 0 0 1 0 0 7 0 0 4 0 0 4 0 0 2 0 0 2 0 0 0 0 0 3 0 0 2 0 0 2 0 0 3 0 0 0 0 0 2 0 0 
0 0 0 1 0 0 3 0 0 0 0 0 2 0 0 2 0 0 3 0 0 0 0 0 3 0 0 4 0 0 2 0 0 0 0 0 8 0 0 2 0 0 5 0 0 7 0 0 8 0 0 12 0 0 6 0 0 5 0 0 7 0 0 2 0 0 1 0 0 5 0 0 4 0 0 6 0 0 9 0 0 4 0 0 5 0 0 10 0 0 8 0 0 5 0 0 8 0 0 6 0 0 8 0 0 5 0 0 6 0 0 2 0 0 4 0 0 6 0 0 3 0 0 9 0 0 5 0 0 2 0 0 3 0 0 6 0 0 6 0 0 2 0 0 3 0 0 4 0 0 5 0 0 6 0 0 3 0 0 1 0 0 4 0 0 1 0 0 3 0 0 4 0 0 2 0 0 1 0 0 
1 0 0 4 0 0 1 0 0 1 0 0 2 0 0 6 0 0 2 0 0 0 0 0 4 0 0 2 0 0 6 0 0 4 0 0 6 0 0 4 0 0 8 0 0 0 0 0 7 0 0 9 0 0 6 0 0 4 0 0 7 0 0 3 0 0 1 0 0 5 0 0 5 0 0 3 0 0 5 0 0 6 0 0 7 0 0 4 0 0 3 0 0 1 0 0 3 0 0 7 0 0 7 0 0 2 0 0 9 0 0 5 0 0 2 0 0 3 0 0 3 0 0 7 0 0 5 0 0 2 0 0 1 0 0 3 0 0 4 0 0 3 0 0 3 0 0 0 0 0 4 0 0 4 0 0 3 0 0 1 0 0 3 0 0 1 0 0 0 0 0 0 0 0 1 0 0 1 0 0 
1 0 0 1 0 0 1 0 0 7 0 0 3 0 0 3 0 0 2 0 0 4 0 0 5 0 0 3 0 0 1 0 0 2 0 0 3 0 0 4 0 0 1 0 0 6 0 0 5 0 0 5 0 0 5 0 0 3 0 0 4 0 0 6 0 0 0 0 0 6 0 0 5 0 0 0 0 0 5 0 0 5 0 0 4 0 0 6 0 0 0 0 0 5 0 0 5 0 0 5 0 0 6 0 0 3 0 0 4 0 0 4 0 0 0 0 0 1 0 0 4 0 0 4 0 0 8 0 0 3 0 0 3 0 0 0 0 0 3 0 0 1 0 0 5 0 0 2 0 0 1 0 0 0 0 0 0 0 0 1 0 0 1 0 0 3 0 0 1 0 0 1 0 0 0 0 0 0 0 0 
0 0 0 0 0 0 3 0 0 0 0 0 2 0 0 4 0 0 5 0 0 3 0 0 2 0 0 0 0 0 4 0 0 3 0 0 0 0 0 3 0 0 3 0 0 2 0 0 1 0 0 2 0 0 6 0 0 6 0 0 6 0 0 0 0 0 4 0 0 1 0 0 5 0 0 1 0 0 3 0 0 3 0 0 2 0 0 2 0 0 0 0 0 2 0 0 6 0 0 6 0 0 7 0 0 2 0 0 1 0 0 3 0 0 0 0 0 2 0 0 2 0 0 6 0 0 2 0 0 5 0 0 4 0 0 3 0 0 0 0 0 1 0 0 3 0 0 2 0 0 2 0 0 1 0 0 0 0 0 3 0 0 3 0 0 2 0 0 1 0 0 0 0 0 0 0 0 1 0 0 
0 0 0 4 0 0 1 0 0 1 0 0 3 0 0 2 0 0 7 0 0 2 0 0 2 0 0 1 0 0 0 0 0 2 0 0 0 0 0 2 0 0 2 0 0 3 0 0 2 0 0 2 0 0 3 0 0 1 0 0 4 0 0 3 0 0 1 0 0 3 0 0 3 0 0 9 0 0 2 0 0 1 0 0 2 0 0 1 0 0 1 0 0 0 0 0 3 0 0 1 0 0 7 0 0 4 0 0 3 0 0 2 0 0 1 0 0 1 0 0 2 0 0 2 0 0 2 0 0 5 0 0 3 0 0 5 0 0 2 0 0 1 0 0 1 0 0 1 0 0 0 0 0 0 0 0 4 0 0 3 0 0 4 0 0 1 0 0 3 0 0 0 0 0 0 0 0 0 0 0 
1 0 0 2 0 0 0 0 0 0 0 0 3 0 0 0 0 0 2 0 0 1 0 0 2 0 0 0 0 0 1 0 0 2 0 0 0 0 0 2 0 0 2 0 0 2 0 0 3 0 0 0 0 0 1 0 0 3 0 0 2 0 0 1 0 0 0 0 0 5 0 0 5 0 0 3 0 0 4 0 0 2 0 0 2 0 0 0 0 0 1 0 0 0 0 0 3 0 0 3 0 0 4 0 0 7 0 0 4 0 0 1 0 0 2 0 0 0 0 0 1 0 0 0 0 0 3 0 0 2 0 0 3 0 0 6 0 0 1 0 0 2 0 0 3 0 0 1 0 0 0 0 0 2 0 0 2 0 0 4 0 0 0 0 0 4 0 0 1 0 0 0 0 0 0 0 0 0 0 0 
