P3
# This is a dose file slice at depth 83 of 100
60 60
# now we give the maximum value of the RGB coordinates.
34204
0 0 0 0 0 0 0 0 0 0 0 0 0 0 0 0 0 0 0 0 0 0 0 0 0 0 0 0 0 0 0 0 0 0 0 0 0 0 0 0 0 0 0 0 0 0 0 0 0 0 0 0 0 0 0 0 0 0 0 0 0 0 0 0 0 0 0 0 0 0 0 0 0 0 0 0 0 0 0 0 0 0 0 0 0 0 0 0 0 0 0 0 0 0 0 0 0 0 0 0 0 0 0 0 0 0 0 0 0 0 0 0 0 0 0 0 0 0 0 0 0 0 0 0 0 0 0 0 0 0 0 0 0 0 0 0 0 0 0 0 0 0 0 0 0 0 0 0 0 0 0 0 0 0 0 0 0 0 0 0 0 0 0 0 0 0 0 0 0 0 0 0 0 0 0 0 0 0 0 0 
0 0 0 0 0 0 0 0 0 0 0 0 0 0 0 0 0 0 0 0 0 0 0 0 0 0 0 0 0 0 0 0 0 0 0 0 0 0 0 0 0 0 0 0 0 0 0 0 0 0 0 0 0 0 0 0 0 0 0 0 0 0 0 0 0 0 0 0 0 0 0 0 0 0 0 0 0 0 0 0 0 0 0 0 0 0 0 0 0 0 0 0 0 0 0 0 0 0 0 0 0 0 0 0 0 0 0 0 0 0 0 0 0 0 0 0 0 0 0 0 0 0 0 0 0 0 0 0 0 0 0 0 0 0 0 0 0 0 0 0 0 0 0 0 0 0 0 0 0 0 0 0 0 0 0 0 0 0 0 0 0 0 0 0 0 0 0 0 0 0 0 0 0 0 0 0 0 0 0 0 
0 0 0 0 0 0 0 0 0 0 0 0 0 0 0 0 0 0 0 0 0 0 0 0 0 0 0 0 0 0 0 0 0 0 0 0 0 0 0 0 0 0 0 0 0 0 0 0 0 0 0 0 0 0 0 0 0 0 0 0 0 0 0 0 0 0 0 0 0 0 0 0 0 0 0 0 0 0 0 0 0 0 0 0 0 0 0 0 0 0 0 0 0 0 0 0 0 0 0 0 0 0 0 0 0 0 0 0 0 0 0 0 0 0 0 0 0 0 0 0 0 0 0 0 0 0 0 0 0 0 0 0 0 0 0 0 0 0 0 0 0 0 0 0 0 0 0 0 0 0 0 0 0 0 0 0 0 0 0 0 0 0 0 0 0 0 0 0 0 0 0 0 0 0 0 0 0 0 0 0 
0 0 0 0 0 0 0 0 0 0 0 0 0 0 0 0 0 0 0 0 0 0 0 0 0 0 0 0 0 0 0 0 0 0 0 0 0 0 0 0 0 0 0 0 0 0 0 0 0 0 0 0 0 0 0 0 0 0 0 0 0 0 0 0 0 0 0 0 0 0 0 0 0 0 0 0 0 0 0 0 0 0 0 0 0 0 0 0 0 0 0 0 0 0 0 0 0 0 0 0 0 0 0 0 0 0 0 0 0 0 0 0 0 0 0 0 0 0 0 0 0 0 0 0 0 0 0 0 0 0 0 0 0 0 0 0 0 0 0 0 0 0 0 0 0 0 0 0 0 0 0 0 0 0 0 0 0 0 0 0 0 0 0 0 0 0 0 0 0 0 0 0 0 0 0 0 0 0 0 0 
0 0 0 0 0 0 0 0 0 0 0 0 0 0 0 0 0 0 0 0 0 0 0 0 0 0 0 0 0 0 0 0 0 0 0 0 0 0 0 0 0 0 0 0 0 0 0 0 0 0 0 0 0 0 0 0 0 0 0 0 0 0 0 0 0 0 0 0 0 0 0 0 0 0 0 0 0 0 0 0 0 0 0 0 0 0 0 0 0 0 0 0 0 0 0 0 0 0 0 0 0 0 0 0 0 0 0 0 0 0 0 0 0 0 0 0 0 0 0 0 0 0 0 0 0 0 0 0 0 0 0 0 0 0 0 0 0 0 0 0 0 0 0 0 0 0 0 0 0 0 0 0 0 0 0 0 0 0 0 0 0 0 0 0 0 0 0 0 0 0 0 0 0 0 0 0 0 0 0 0 
0 0 0 0 0 0 0 0 0 0 0 0 0 0 0 0 0 0 0 0 0 0 0 0 0 0 0 0 0 0 0 0 0 0 0 0 0 0 0 0 0 0 0 0 0 0 0 0 0 0 0 0 0 0 0 0 0 0 0 0 0 0 0 0 0 0 0 0 0 0 0 0 0 0 0 0 0 0 0 0 0 0 0 0 0 0 0 0 0 0 0 0 0 0 0 0 0 0 0 0 0 0 0 0 0 0 0 0 0 0 0 0 0 0 0 0 0 0 0 0 0 0 0 0 0 0 0 0 0 0 0 0 0 0 0 0 0 0 0 0 0 0 0 0 0 0 0 0 0 0 0 0 0 0 0 0 0 0 0 0 0 0 0 0 0 0 0 0 0 0 0 0 0 0 0 0 0 0 0 0 
0 0 0 0 0 0 0 0 0 0 0 0 0 0 0 0 0 0 0 0 0 0 0 0 0 0 0 0 0 0 0 0 0 0 0 0 0 0 0 0 0 0 0 0 0 0 0 0 0 0 0 0 0 0 0 0 0 0 0 0 0 0 0 0 0 0 0 0 0 0 0 0 0 0 0 0 0 0 0 0 0 0 0 0 0 0 0 0 0 0 0 0 0 0 0 0 0 0 0 0 0 0 0 0 0 0 0 0 0 0 0 0 0 0 0 0 0 0 0 0 0 0 0 0 0 0 0 0 0 0 0 0 0 0 0 0 0 0 0 0 0 0 0 0 0 0 0 0 0 0 0 0 0 0 0 0 0 0 0 0 0 0 0 0 0 0 0 0 0 0 0 0 0 0 0 0 0 0 0 0 
0 0 0 0 0 0 0 0 0 0 0 0 0 0 0 0 0 0 0 0 0 0 0 0 0 0 0 0 0 0 0 0 0 0 0 0 0 0 0 0 0 0 0 0 0 0 0 0 0 0 0 0 0 0 0 0 0 0 0 0 0 0 0 0 0 0 0 0 0 0 0 0 0 0 0 0 0 0 0 0 0 0 0 0 0 0 0 0 0 0 0 0 0 0 0 0 0 0 0 0 0 0 0 0 0 0 0 0 0 0 0 0 0 0 0 0 0 0 0 0 0 0 0 0 0 0 0 0 0 0 0 0 0 0 0 0 0 0 0 0 0 0 0 0 0 0 0 0 0 0 0 0 0 0 0 0 0 0 0 0 0 0 0 0 0 0 0 0 0 0 0 0 0 0 0 0 0 0 0 0 
0 0 0 0 0 0 0 0 0 0 0 0 0 0 0 0 0 0 0 0 0 0 0 0 0 0 0 0 0 0 0 0 0 0 0 0 0 0 0 0 0 0 0 0 0 0 0 0 0 0 0 0 0 0 0 0 0 0 0 0 0 0 0 0 0 0 0 0 0 0 0 0 0 0 0 0 0 0 0 0 0 0 0 0 0 0 0 0 0 0 0 0 0 0 0 0 0 0 0 0 0 0 0 0 0 0 0 0 0 0 0 0 0 0 0 0 0 0 0 0 0 0 0 0 0 0 0 0 0 0 0 0 0 0 0 0 0 0 0 0 0 0 0 0 0 0 0 0 0 0 0 0 0 0 0 0 0 0 0 0 0 0 0 0 0 0 0 0 0 0 0 0 0 0 0 0 0 0 0 0 
0 0 0 0 0 0 0 0 0 0 0 0 0 0 0 0 0 0 0 0 0 0 0 0 0 0 0 0 0 0 0 0 0 0 0 0 0 0 0 0 0 0 0 0 0 0 0 0 0 0 0 0 0 0 0 0 0 0 0 0 0 0 0 0 0 0 0 0 0 0 0 0 0 0 0 0 0 0 0 0 0 0 0 0 0 0 0 0 0 0 0 0 0 0 0 0 0 0 0 0 0 0 0 0 0 0 0 0 0 0 0 0 0 0 0 0 0 0 0 0 0 0 0 0 0 0 0 0 0 0 0 0 0 0 0 0 0 0 0 0 0 0 0 0 0 0 0 0 0 0 0 0 0 0 0 0 0 0 0 0 0 0 0 0 0 0 0 0 0 0 0 0 0 0 0 0 0 0 0 0 
0 0 0 0 0 0 0 0 0 0 0 0 0 0 0 0 0 0 0 0 0 0 0 0 0 0 0 0 0 0 776 0 0 1667 0 0 1647 0 0 1581 0 0 1692 0 0 1634 0 0 1614 0 0 1596 0 0 1630 0 0 1658 0 0 1704 0 0 1716 0 0 1606 0 0 1673 0 0 1698 0 0 1639 0 0 1621 0 0 1599 0 0 1700 0 0 1673 0 0 1665 0 0 1680 0 0 1680 0 0 1635 0 0 1593 0 0 1646 0 0 1647 0 0 1622 0 0 1684 0 0 1667 0 0 1698 0 0 1685 0 0 1732 0 0 1690 0 0 1752 0 0 1628 0 0 1623 0 0 1617 0 0 1614 0 0 1722 0 0 840 0 0 0 0 0 0 0 0 0 0 0 0 0 0 0 0 0 0 0 0 0 0 0 0 0 0 0 0 0 
0 0 0 0 0 0 0 0 0 0 0 0 0 0 0 0 0 0 0 0 0 0 0 0 0 0 0 0 0 0 1627 0 0 3333 0 0 3338 0 0 3269 0 0 3310 0 0 3319 0 0 3290 0 0 3343 0 0 3333 0 0 3345 0 0 3330 0 0 3345 0 0 3237 0 0 3292 0 0 3301 0 0 3299 0 0 3343 0 0 3329 0 0 3239 0 0 3332 0 0 3273 0 0 3323 0 0 3311 0 0 3271 0 0 3291 0 0 3279 0 0 3250 0 0 3364 0 0 3266 0 0 3502 0 0 3311 0 0 3282 0 0 3317 0 0 3332 0 0 3284 0 0 3259 0 0 3356 0 0 3281 0 0 3423 0 0 3409 0 0 1686 0 0 0 0 0 0 0 0 0 0 0 0 0 0 0 0 0 0 0 0 0 0 0 0 0 0 0 0 0 
0 0 0 0 0 0 0 0 0 0 0 0 0 0 0 0 0 0 0 0 0 0 0 0 0 0 0 0 0 0 1577 0 0 3229 0 0 3331 0 0 3381 0 0 3328 0 0 3296 0 0 3280 0 0 3268 0 0 3326 0 0 3218 0 0 3278 0 0 3432 0 0 3263 0 0 3244 0 0 3360 0 0 3385 0 0 3298 0 0 3261 0 0 3335 0 0 3276 0 0 3341 0 0 3415 0 0 3291 0 0 3294 0 0 3326 0 0 3318 0 0 3402 0 0 3361 0 0 3298 0 0 3250 0 0 3380 0 0 3286 0 0 3251 0 0 3261 0 0 3340 0 0 3364 0 0 3358 0 0 3282 0 0 3272 0 0 3279 0 0 1575 0 0 0 0 0 0 0 0 0 0 0 0 0 0 0 0 0 0 0 0 0 0 0 0 0 0 0 0 0 
0 0 0 0 0 0 0 0 0 0 0 0 0 0 0 0 0 0 0 0 0 0 0 0 0 0 0 0 0 0 1693 0 0 3279 0 0 3337 0 0 3198 0 0 3308 0 0 3313 0 0 3430 0 0 3342 0 0 3410 0 0 3336 0 0 3228 0 0 3356 0 0 3425 0 0 3310 0 0 3362 0 0 3263 0 0 3258 0 0 3365 0 0 3265 0 0 3305 0 0 3400 0 0 3284 0 0 3284 0 0 3348 0 0 3395 0 0 3303 0 0 3299 0 0 3354 0 0 3238 0 0 3386 0 0 3354 0 0 3333 0 0 3357 0 0 3340 0 0 3370 0 0 3356 0 0 3408 0 0 3266 0 0 3330 0 0 3240 0 0 1688 0 0 0 0 0 0 0 0 0 0 0 0 0 0 0 0 0 0 0 0 0 0 0 0 0 0 0 0 0 
0 0 0 0 0 0 0 0 0 0 0 0 0 0 0 0 0 0 0 0 0 0 0 0 0 0 0 0 0 0 1730 0 0 3208 0 0 3339 0 0 3316 0 0 3322 0 0 3312 0 0 3351 0 0 3383 0 0 3268 0 0 3273 0 0 3334 0 0 3249 0 0 3428 0 0 3268 0 0 3347 0 0 3291 0 0 3222 0 0 3328 0 0 3327 0 0 3355 0 0 3250 0 0 3316 0 0 3261 0 0 3329 0 0 3372 0 0 3406 0 0 3286 0 0 3293 0 0 3300 0 0 3207 0 0 3340 0 0 3245 0 0 3204 0 0 3374 0 0 3336 0 0 3374 0 0 3254 0 0 3323 0 0 3228 0 0 3323 0 0 1670 0 0 0 0 0 0 0 0 0 0 0 0 0 0 0 0 0 0 0 0 0 0 0 0 0 0 0 0 0 
0 0 0 0 0 0 0 0 0 0 0 0 0 0 0 0 0 0 0 0 0 0 0 0 0 0 0 0 0 0 1632 0 0 3363 0 0 3315 0 0 3304 0 0 3282 0 0 3447 0 0 3338 0 0 3339 0 0 3271 0 0 3346 0 0 3291 0 0 3369 0 0 3192 0 0 3427 0 0 3378 0 0 3361 0 0 3229 0 0 3364 0 0 3315 0 0 3357 0 0 3350 0 0 3309 0 0 3329 0 0 3280 0 0 3389 0 0 3218 0 0 3309 0 0 3276 0 0 3242 0 0 3251 0 0 3291 0 0 3274 0 0 3270 0 0 3300 0 0 3269 0 0 3342 0 0 3325 0 0 3358 0 0 3279 0 0 3373 0 0 1641 0 0 0 0 0 0 0 0 0 0 0 0 0 0 0 0 0 0 0 0 0 0 0 0 0 0 0 0 0 
0 0 0 0 0 0 0 0 0 0 0 0 0 0 0 0 0 0 0 0 0 0 0 0 0 0 0 0 0 0 1702 0 0 3368 0 0 3366 0 0 3370 0 0 3359 0 0 3324 0 0 3255 0 0 3291 0 0 3226 0 0 3304 0 0 3243 0 0 3351 0 0 3290 0 0 3327 0 0 3407 0 0 3269 0 0 3194 0 0 3224 0 0 3354 0 0 3355 0 0 3322 0 0 3306 0 0 3371 0 0 3262 0 0 3289 0 0 3329 0 0 3344 0 0 3356 0 0 3365 0 0 3322 0 0 3273 0 0 3228 0 0 3257 0 0 3248 0 0 3309 0 0 3329 0 0 3390 0 0 3308 0 0 3291 0 0 3304 0 0 1552 0 0 0 0 0 0 0 0 0 0 0 0 0 0 0 0 0 0 0 0 0 0 0 0 0 0 0 0 0 
0 0 0 0 0 0 0 0 0 0 0 0 0 0 0 0 0 0 0 0 0 0 0 0 0 0 0 0 0 0 1695 0 0 3280 0 0 3284 0 0 3462 0 0 3288 0 0 3281 0 0 3327 0 0 3378 0 0 3311 0 0 3367 0 0 3333 0 0 3323 0 0 3309 0 0 3301 0 0 3382 0 0 3366 0 0 3314 0 0 3370 0 0 3412 0 0 3325 0 0 3359 0 0 3296 0 0 3271 0 0 3362 0 0 3234 0 0 3345 0 0 3329 0 0 3254 0 0 3280 0 0 3330 0 0 3258 0 0 3313 0 0 3232 0 0 3330 0 0 3314 0 0 3276 0 0 3431 0 0 3321 0 0 3296 0 0 3325 0 0 1622 0 0 0 0 0 0 0 0 0 0 0 0 0 0 0 0 0 0 0 0 0 0 0 0 0 0 0 0 0 
0 0 0 0 0 0 0 0 0 0 0 0 0 0 0 0 0 0 0 0 0 0 0 0 0 0 0 0 0 0 1607 0 0 3315 0 0 3290 0 0 3415 0 0 3349 0 0 3248 0 0 3310 0 0 3374 0 0 3252 0 0 3265 0 0 3301 0 0 3277 0 0 3297 0 0 3400 0 0 3341 0 0 3302 0 0 3228 0 0 3251 0 0 3353 0 0 3337 0 0 3303 0 0 3343 0 0 3363 0 0 3337 0 0 3274 0 0 3244 0 0 3338 0 0 3246 0 0 3355 0 0 3210 0 0 3246 0 0 3264 0 0 3316 0 0 3445 0 0 3423 0 0 3290 0 0 3315 0 0 3281 0 0 3382 0 0 3285 0 0 1627 0 0 0 0 0 0 0 0 0 0 0 0 0 0 0 0 0 0 0 0 0 0 0 0 0 0 0 0 0 
0 0 0 0 0 0 0 0 0 0 0 0 0 0 0 0 0 0 0 0 0 0 0 0 0 0 0 0 0 0 1678 0 0 3344 0 0 3285 0 0 3297 0 0 3361 0 0 3339 0 0 3321 0 0 3302 0 0 3317 0 0 3305 0 0 3241 0 0 3303 0 0 3224 0 0 3300 0 0 3224 0 0 3273 0 0 3275 0 0 3353 0 0 3305 0 0 3332 0 0 3312 0 0 3303 0 0 3319 0 0 3285 0 0 3258 0 0 3317 0 0 3241 0 0 3224 0 0 3261 0 0 3390 0 0 3288 0 0 3323 0 0 3449 0 0 3363 0 0 3312 0 0 3420 0 0 3354 0 0 3264 0 0 3256 0 0 3329 0 0 1674 0 0 0 0 0 0 0 0 0 0 0 0 0 0 0 0 0 0 0 0 0 0 0 0 0 0 0 0 0 
0 0 0 0 0 0 0 0 0 0 0 0 0 0 0 0 0 0 0 0 0 0 0 0 0 0 0 0 0 0 1676 0 0 3321 0 0 3224 0 0 3260 0 0 3343 0 0 3370 0 0 3249 0 0 3305 0 0 3273 0 0 3392 0 0 3359 0 0 3306 0 0 3262 0 0 3342 0 0 3268 0 0 3263 0 0 3276 0 0 3234 0 0 3239 0 0 3286 0 0 3275 0 0 3308 0 0 3359 0 0 3318 0 0 3267 0 0 3199 0 0 3324 0 0 3254 0 0 3403 0 0 3401 0 0 3257 0 0 3324 0 0 3357 0 0 3301 0 0 3346 0 0 3245 0 0 3300 0 0 3368 0 0 3278 0 0 3377 0 0 1674 0 0 0 0 0 0 0 0 0 0 0 0 0 0 0 0 0 0 0 0 0 0 0 0 0 0 0 0 0 
0 0 0 0 0 0 0 0 0 0 0 0 0 0 0 0 0 0 0 0 0 0 0 0 0 0 0 0 0 0 1679 0 0 3288 0 0 3172 0 0 3372 0 0 3447 0 0 3356 0 0 3323 0 0 3309 0 0 3326 0 0 3267 0 0 3309 0 0 3306 0 0 3192 0 0 3272 0 0 3341 0 0 3337 0 0 3358 0 0 3390 0 0 3296 0 0 3274 0 0 3297 0 0 3413 0 0 3447 0 0 3192 0 0 3425 0 0 3337 0 0 3267 0 0 3353 0 0 3226 0 0 3321 0 0 3331 0 0 3196 0 0 3375 0 0 3336 0 0 3397 0 0 3323 0 0 3419 0 0 3264 0 0 3319 0 0 3368 0 0 1729 0 0 0 0 0 0 0 0 0 0 0 0 0 0 0 0 0 0 0 0 0 0 0 0 0 0 0 0 0 
0 0 0 0 0 0 0 0 0 0 0 0 0 0 0 0 0 0 0 0 0 0 0 0 0 0 0 0 0 0 1602 0 0 3332 0 0 3404 0 0 3339 0 0 3286 0 0 3337 0 0 3338 0 0 3296 0 0 3226 0 0 3216 0 0 3331 0 0 3274 0 0 3357 0 0 3340 0 0 3315 0 0 3302 0 0 3397 0 0 3315 0 0 3208 0 0 3295 0 0 3308 0 0 3419 0 0 3253 0 0 3349 0 0 3301 0 0 3400 0 0 3343 0 0 3291 0 0 3242 0 0 3353 0 0 3202 0 0 3371 0 0 3344 0 0 3222 0 0 3196 0 0 3391 0 0 3270 0 0 3384 0 0 3306 0 0 3256 0 0 1678 0 0 0 0 0 0 0 0 0 0 0 0 0 0 0 0 0 0 0 0 0 0 0 0 0 0 0 0 0 
0 0 0 0 0 0 0 0 0 0 0 0 0 0 0 0 0 0 0 0 0 0 0 0 0 0 0 0 0 0 1597 0 0 3291 0 0 3307 0 0 3200 0 0 3328 0 0 3314 0 0 3372 0 0 3445 0 0 3389 0 0 3297 0 0 3360 0 0 3192 0 0 3316 0 0 3347 0 0 3392 0 0 3353 0 0 3242 0 0 3341 0 0 3352 0 0 3280 0 0 3246 0 0 3350 0 0 3263 0 0 3240 0 0 3340 0 0 3284 0 0 3274 0 0 3408 0 0 3362 0 0 3224 0 0 3297 0 0 3327 0 0 3351 0 0 3420 0 0 3268 0 0 3346 0 0 3345 0 0 3382 0 0 3329 0 0 3242 0 0 1684 0 0 0 0 0 0 0 0 0 0 0 0 0 0 0 0 0 0 0 0 0 0 0 0 0 0 0 0 0 
0 0 0 0 0 0 0 0 0 0 0 0 0 0 0 0 0 0 0 0 0 0 0 0 0 0 0 0 0 0 1651 0 0 3244 0 0 3215 0 0 3272 0 0 3414 0 0 3408 0 0 3294 0 0 3324 0 0 3291 0 0 3416 0 0 3221 0 0 3288 0 0 3329 0 0 3306 0 0 3250 0 0 3295 0 0 3244 0 0 3304 0 0 3360 0 0 3240 0 0 3185 0 0 3312 0 0 3271 0 0 3335 0 0 3363 0 0 3303 0 0 3426 0 0 3260 0 0 3369 0 0 3274 0 0 3369 0 0 3229 0 0 3248 0 0 3370 0 0 3324 0 0 3307 0 0 3258 0 0 3280 0 0 3246 0 0 3264 0 0 1638 0 0 0 0 0 0 0 0 0 0 0 0 0 0 0 0 0 0 0 0 0 0 0 0 0 0 0 0 0 
0 0 0 0 0 0 0 0 0 0 0 0 0 0 0 0 0 0 0 0 0 0 0 0 0 0 0 0 0 0 1648 0 0 3325 0 0 3384 0 0 3402 0 0 3244 0 0 3392 0 0 3277 0 0 3287 0 0 3421 0 0 3342 0 0 3309 0 0 3375 0 0 3300 0 0 3309 0 0 3330 0 0 3349 0 0 3349 0 0 3293 0 0 3191 0 0 3342 0 0 3348 0 0 3294 0 0 3292 0 0 3272 0 0 3296 0 0 3279 0 0 3294 0 0 3231 0 0 3254 0 0 3312 0 0 3369 0 0 3333 0 0 3301 0 0 3314 0 0 3408 0 0 3371 0 0 3369 0 0 3306 0 0 3250 0 0 3280 0 0 1593 0 0 0 0 0 0 0 0 0 0 0 0 0 0 0 0 0 0 0 0 0 0 0 0 0 0 0 0 0 
0 0 0 0 0 0 0 0 0 0 0 0 0 0 0 0 0 0 0 0 0 0 0 0 0 0 0 0 0 0 1681 0 0 3246 0 0 3303 0 0 3267 0 0 3276 0 0 3346 0 0 3316 0 0 3286 0 0 3378 0 0 3281 0 0 3198 0 0 3287 0 0 3257 0 0 3301 0 0 3306 0 0 3317 0 0 3338 0 0 3316 0 0 3301 0 0 3326 0 0 3372 0 0 3283 0 0 3262 0 0 3344 0 0 3355 0 0 3350 0 0 3266 0 0 3212 0 0 3346 0 0 3331 0 0 3373 0 0 3372 0 0 3304 0 0 3433 0 0 3306 0 0 3285 0 0 3348 0 0 3243 0 0 3296 0 0 3465 0 0 1669 0 0 0 0 0 0 0 0 0 0 0 0 0 0 0 0 0 0 0 0 0 0 0 0 0 0 0 0 0 
0 0 0 0 0 0 0 0 0 0 0 0 0 0 0 0 0 0 0 0 0 0 0 0 0 0 0 0 0 0 1529 0 0 3385 0 0 3294 0 0 3263 0 0 3348 0 0 3217 0 0 3384 0 0 3284 0 0 3296 0 0 3287 0 0 3334 0 0 3406 0 0 3392 0 0 3370 0 0 3227 0 0 3216 0 0 3292 0 0 3280 0 0 3290 0 0 3274 0 0 3260 0 0 3302 0 0 3273 0 0 3397 0 0 3300 0 0 3269 0 0 3347 0 0 3290 0 0 3234 0 0 3288 0 0 3230 0 0 3268 0 0 3331 0 0 3297 0 0 3363 0 0 3353 0 0 3339 0 0 3281 0 0 3259 0 0 3183 0 0 1569 0 0 0 0 0 0 0 0 0 0 0 0 0 0 0 0 0 0 0 0 0 0 0 0 0 0 0 0 0 
0 0 0 0 0 0 0 0 0 0 0 0 0 0 0 0 0 0 0 0 0 0 0 0 0 0 0 0 0 0 1716 0 0 3262 0 0 3307 0 0 3338 0 0 3346 0 0 3263 0 0 3279 0 0 3353 0 0 3280 0 0 3242 0 0 3335 0 0 3335 0 0 3309 0 0 3375 0 0 3245 0 0 3244 0 0 3238 0 0 3385 0 0 3396 0 0 3385 0 0 3261 0 0 3335 0 0 3334 0 0 3414 0 0 3426 0 0 3349 0 0 3417 0 0 3317 0 0 3362 0 0 3310 0 0 3315 0 0 3336 0 0 3324 0 0 3426 0 0 3443 0 0 3232 0 0 3317 0 0 3291 0 0 3360 0 0 3360 0 0 1634 0 0 0 0 0 0 0 0 0 0 0 0 0 0 0 0 0 0 0 0 0 0 0 0 0 0 0 0 0 
0 0 0 0 0 0 0 0 0 0 0 0 0 0 0 0 0 0 0 0 0 0 0 0 0 0 0 0 0 0 1657 0 0 3345 0 0 3377 0 0 3298 0 0 3328 0 0 3265 0 0 3339 0 0 3378 0 0 3446 0 0 3337 0 0 3315 0 0 3340 0 0 3348 0 0 3399 0 0 3268 0 0 3266 0 0 3367 0 0 3323 0 0 3375 0 0 3304 0 0 3250 0 0 3379 0 0 3348 0 0 3268 0 0 3351 0 0 3356 0 0 3367 0 0 3202 0 0 3277 0 0 3212 0 0 3381 0 0 3313 0 0 3331 0 0 3429 0 0 3236 0 0 3406 0 0 3235 0 0 3319 0 0 3399 0 0 3288 0 0 1660 0 0 0 0 0 0 0 0 0 0 0 0 0 0 0 0 0 0 0 0 0 0 0 0 0 0 0 0 0 
0 0 0 0 0 0 0 0 0 0 0 0 0 0 0 0 0 0 0 0 0 0 0 0 0 0 0 0 0 0 1642 0 0 3221 0 0 3429 0 0 3382 0 0 3251 0 0 3232 0 0 3254 0 0 3307 0 0 3231 0 0 3324 0 0 3326 0 0 3305 0 0 3318 0 0 3265 0 0 3243 0 0 3327 0 0 3284 0 0 3409 0 0 3299 0 0 3248 0 0 3341 0 0 3396 0 0 3332 0 0 3419 0 0 3348 0 0 3314 0 0 3383 0 0 3258 0 0 3376 0 0 3317 0 0 3329 0 0 3341 0 0 3333 0 0 3325 0 0 3206 0 0 3289 0 0 3371 0 0 3270 0 0 3384 0 0 3280 0 0 1609 0 0 0 0 0 0 0 0 0 0 0 0 0 0 0 0 0 0 0 0 0 0 0 0 0 0 0 0 0 
0 0 0 0 0 0 0 0 0 0 0 0 0 0 0 0 0 0 0 0 0 0 0 0 0 0 0 0 0 0 1589 0 0 3171 0 0 3302 0 0 3296 0 0 3333 0 0 3375 0 0 3270 0 0 3376 0 0 3336 0 0 3325 0 0 3337 0 0 3380 0 0 3369 0 0 3417 0 0 3343 0 0 3316 0 0 3368 0 0 3359 0 0 3325 0 0 3309 0 0 3329 0 0 3329 0 0 3277 0 0 3367 0 0 3323 0 0 3282 0 0 3257 0 0 3319 0 0 3207 0 0 3363 0 0 3327 0 0 3378 0 0 3230 0 0 3318 0 0 3267 0 0 3301 0 0 3338 0 0 3335 0 0 3369 0 0 3419 0 0 1698 0 0 0 0 0 0 0 0 0 0 0 0 0 0 0 0 0 0 0 0 0 0 0 0 0 0 0 0 0 
0 0 0 0 0 0 0 0 0 0 0 0 0 0 0 0 0 0 0 0 0 0 0 0 0 0 0 0 0 0 1687 0 0 3294 0 0 3292 0 0 3339 0 0 3321 0 0 3303 0 0 3304 0 0 3300 0 0 3238 0 0 3335 0 0 3378 0 0 3230 0 0 3221 0 0 3352 0 0 3408 0 0 3308 0 0 3331 0 0 3354 0 0 3271 0 0 3297 0 0 3307 0 0 3358 0 0 3382 0 0 3270 0 0 3327 0 0 3389 0 0 3401 0 0 3263 0 0 3336 0 0 3320 0 0 3330 0 0 3341 0 0 3342 0 0 3298 0 0 3319 0 0 3304 0 0 3264 0 0 3262 0 0 3280 0 0 3326 0 0 1635 0 0 0 0 0 0 0 0 0 0 0 0 0 0 0 0 0 0 0 0 0 0 0 0 0 0 0 0 0 
0 0 0 0 0 0 0 0 0 0 0 0 0 0 0 0 0 0 0 0 0 0 0 0 0 0 0 0 0 0 1656 0 0 3285 0 0 3312 0 0 3263 0 0 3416 0 0 3174 0 0 3329 0 0 3404 0 0 3350 0 0 3276 0 0 3357 0 0 3285 0 0 3331 0 0 3335 0 0 3284 0 0 3285 0 0 3350 0 0 3221 0 0 3358 0 0 3313 0 0 3300 0 0 3270 0 0 3338 0 0 3289 0 0 3286 0 0 3304 0 0 3360 0 0 3254 0 0 3275 0 0 3326 0 0 3275 0 0 3377 0 0 3359 0 0 3374 0 0 3248 0 0 3352 0 0 3325 0 0 3264 0 0 3298 0 0 3274 0 0 1665 0 0 0 0 0 0 0 0 0 0 0 0 0 0 0 0 0 0 0 0 0 0 0 0 0 0 0 0 0 
0 0 0 0 0 0 0 0 0 0 0 0 0 0 0 0 0 0 0 0 0 0 0 0 0 0 0 0 0 0 1678 0 0 3278 0 0 3292 0 0 3268 0 0 3362 0 0 3218 0 0 3357 0 0 3281 0 0 3301 0 0 3366 0 0 3217 0 0 3367 0 0 3217 0 0 3403 0 0 3240 0 0 3311 0 0 3267 0 0 3295 0 0 3261 0 0 3184 0 0 3302 0 0 3343 0 0 3294 0 0 3256 0 0 3433 0 0 3296 0 0 3315 0 0 3316 0 0 3239 0 0 3246 0 0 3336 0 0 3275 0 0 3279 0 0 3322 0 0 3271 0 0 3368 0 0 3286 0 0 3347 0 0 3239 0 0 3387 0 0 1622 0 0 0 0 0 0 0 0 0 0 0 0 0 0 0 0 0 0 0 0 0 0 0 0 0 0 0 0 0 
0 0 0 0 0 0 0 0 0 0 0 0 0 0 0 0 0 0 0 0 0 0 0 0 0 0 0 0 0 0 1668 0 0 3338 0 0 3270 0 0 3235 0 0 3264 0 0 3381 0 0 3263 0 0 3347 0 0 3318 0 0 3388 0 0 3284 0 0 3301 0 0 3315 0 0 3358 0 0 3350 0 0 3219 0 0 3282 0 0 3314 0 0 3377 0 0 3355 0 0 3237 0 0 3276 0 0 3397 0 0 3335 0 0 3352 0 0 3281 0 0 3318 0 0 3442 0 0 3222 0 0 3334 0 0 3311 0 0 3222 0 0 3339 0 0 3412 0 0 3313 0 0 3489 0 0 3314 0 0 3351 0 0 3327 0 0 3366 0 0 1632 0 0 0 0 0 0 0 0 0 0 0 0 0 0 0 0 0 0 0 0 0 0 0 0 0 0 0 0 0 
0 0 0 0 0 0 0 0 0 0 0 0 0 0 0 0 0 0 0 0 0 0 0 0 0 0 0 0 0 0 1646 0 0 3256 0 0 3374 0 0 3398 0 0 3231 0 0 3349 0 0 3371 0 0 3306 0 0 3267 0 0 3341 0 0 3330 0 0 3258 0 0 3319 0 0 3200 0 0 3359 0 0 3231 0 0 3255 0 0 3270 0 0 3369 0 0 3225 0 0 3306 0 0 3316 0 0 3280 0 0 3294 0 0 3316 0 0 3355 0 0 3301 0 0 3205 0 0 3339 0 0 3281 0 0 3402 0 0 3228 0 0 3276 0 0 3370 0 0 3344 0 0 3371 0 0 3393 0 0 3362 0 0 3249 0 0 3278 0 0 1685 0 0 0 0 0 0 0 0 0 0 0 0 0 0 0 0 0 0 0 0 0 0 0 0 0 0 0 0 0 
0 0 0 0 0 0 0 0 0 0 0 0 0 0 0 0 0 0 0 0 0 0 0 0 0 0 0 0 0 0 1671 0 0 3279 0 0 3401 0 0 3354 0 0 3334 0 0 3310 0 0 3461 0 0 3247 0 0 3249 0 0 3308 0 0 3304 0 0 3500 0 0 3329 0 0 3366 0 0 3249 0 0 3228 0 0 3243 0 0 3247 0 0 3277 0 0 3362 0 0 3349 0 0 3347 0 0 3296 0 0 3327 0 0 3297 0 0 3313 0 0 3250 0 0 3218 0 0 3310 0 0 3347 0 0 3370 0 0 3341 0 0 3292 0 0 3409 0 0 3289 0 0 3299 0 0 3339 0 0 3327 0 0 3268 0 0 3309 0 0 1628 0 0 0 0 0 0 0 0 0 0 0 0 0 0 0 0 0 0 0 0 0 0 0 0 0 0 0 0 0 
0 0 0 0 0 0 0 0 0 0 0 0 0 0 0 0 0 0 0 0 0 0 0 0 0 0 0 0 0 0 1607 0 0 3252 0 0 3247 0 0 3344 0 0 3304 0 0 3447 0 0 3321 0 0 3369 0 0 3350 0 0 3285 0 0 3266 0 0 3376 0 0 3328 0 0 3294 0 0 3166 0 0 3257 0 0 3300 0 0 3329 0 0 3365 0 0 3375 0 0 3377 0 0 3276 0 0 3256 0 0 3321 0 0 3383 0 0 3315 0 0 3283 0 0 3353 0 0 3257 0 0 3338 0 0 3263 0 0 3325 0 0 3347 0 0 3264 0 0 3264 0 0 3289 0 0 3300 0 0 3271 0 0 3347 0 0 3394 0 0 1652 0 0 0 0 0 0 0 0 0 0 0 0 0 0 0 0 0 0 0 0 0 0 0 0 0 0 0 0 0 
0 0 0 0 0 0 0 0 0 0 0 0 0 0 0 0 0 0 0 0 0 0 0 0 0 0 0 0 0 0 1623 0 0 3327 0 0 3410 0 0 3288 0 0 3334 0 0 3181 0 0 3316 0 0 3331 0 0 3373 0 0 3313 0 0 3264 0 0 3343 0 0 3302 0 0 3306 0 0 3265 0 0 3290 0 0 3363 0 0 3283 0 0 3263 0 0 3289 0 0 3344 0 0 3308 0 0 3338 0 0 3352 0 0 3397 0 0 3326 0 0 3282 0 0 3353 0 0 3378 0 0 3383 0 0 3380 0 0 3278 0 0 3330 0 0 3240 0 0 3377 0 0 3230 0 0 3324 0 0 3347 0 0 3277 0 0 3304 0 0 1609 0 0 0 0 0 0 0 0 0 0 0 0 0 0 0 0 0 0 0 0 0 0 0 0 0 0 0 0 0 
0 0 0 0 0 0 0 0 0 0 0 0 0 0 0 0 0 0 0 0 0 0 0 0 0 0 0 0 0 0 1617 0 0 3380 0 0 3246 0 0 3296 0 0 3309 0 0 3183 0 0 3289 0 0 3239 0 0 3300 0 0 3251 0 0 3278 0 0 3314 0 0 3408 0 0 3368 0 0 3308 0 0 3301 0 0 3121 0 0 3319 0 0 3264 0 0 3343 0 0 3357 0 0 3392 0 0 3269 0 0 3239 0 0 3302 0 0 3275 0 0 3277 0 0 3334 0 0 3336 0 0 3234 0 0 3408 0 0 3357 0 0 3343 0 0 3247 0 0 3247 0 0 3401 0 0 3395 0 0 3274 0 0 3429 0 0 3336 0 0 1687 0 0 0 0 0 0 0 0 0 0 0 0 0 0 0 0 0 0 0 0 0 0 0 0 0 0 0 0 0 
0 0 0 0 0 0 0 0 0 0 0 0 0 0 0 0 0 0 0 0 0 0 0 0 0 0 0 0 0 0 1685 0 0 3322 0 0 3322 0 0 3462 0 0 3379 0 0 3257 0 0 3361 0 0 3237 0 0 3305 0 0 3242 0 0 3246 0 0 3289 0 0 3253 0 0 3288 0 0 3316 0 0 3189 0 0 3263 0 0 3259 0 0 3228 0 0 3361 0 0 3323 0 0 3366 0 0 3346 0 0 3281 0 0 3334 0 0 3262 0 0 3355 0 0 3371 0 0 3344 0 0 3301 0 0 3366 0 0 3313 0 0 3362 0 0 3176 0 0 3329 0 0 3336 0 0 3255 0 0 3259 0 0 3292 0 0 3360 0 0 1595 0 0 0 0 0 0 0 0 0 0 0 0 0 0 0 0 0 0 0 0 0 0 0 0 0 0 0 0 0 
0 0 0 0 0 0 0 0 0 0 0 0 0 0 0 0 0 0 0 0 0 0 0 0 0 0 0 0 0 0 1669 0 0 3253 0 0 3330 0 0 3323 0 0 3284 0 0 3349 0 0 3292 0 0 3255 0 0 3403 0 0 3221 0 0 3335 0 0 3338 0 0 3263 0 0 3389 0 0 3368 0 0 3253 0 0 3300 0 0 3243 0 0 3308 0 0 3174 0 0 3272 0 0 3362 0 0 3303 0 0 3383 0 0 3275 0 0 3305 0 0 3356 0 0 3486 0 0 3297 0 0 3360 0 0 3312 0 0 3322 0 0 3329 0 0 3220 0 0 3398 0 0 3322 0 0 3378 0 0 3258 0 0 3327 0 0 3241 0 0 1598 0 0 0 0 0 0 0 0 0 0 0 0 0 0 0 0 0 0 0 0 0 0 0 0 0 0 0 0 0 
0 0 0 0 0 0 0 0 0 0 0 0 0 0 0 0 0 0 0 0 0 0 0 0 0 0 0 0 0 0 1612 0 0 3227 0 0 3328 0 0 3316 0 0 3410 0 0 3441 0 0 3394 0 0 3401 0 0 3371 0 0 3365 0 0 3361 0 0 3347 0 0 3299 0 0 3358 0 0 3230 0 0 3353 0 0 3296 0 0 3360 0 0 3287 0 0 3313 0 0 3310 0 0 3209 0 0 3153 0 0 3256 0 0 3342 0 0 3296 0 0 3419 0 0 3312 0 0 3282 0 0 3203 0 0 3324 0 0 3413 0 0 3308 0 0 3294 0 0 3304 0 0 3389 0 0 3293 0 0 3289 0 0 3318 0 0 3369 0 0 1679 0 0 0 0 0 0 0 0 0 0 0 0 0 0 0 0 0 0 0 0 0 0 0 0 0 0 0 0 0 
0 0 0 0 0 0 0 0 0 0 0 0 0 0 0 0 0 0 0 0 0 0 0 0 0 0 0 0 0 0 1635 0 0 3257 0 0 3182 0 0 3319 0 0 3367 0 0 3229 0 0 3270 0 0 3382 0 0 3325 0 0 3295 0 0 3308 0 0 3279 0 0 3228 0 0 3419 0 0 3287 0 0 3279 0 0 3248 0 0 3268 0 0 3295 0 0 3336 0 0 3351 0 0 3225 0 0 3226 0 0 3334 0 0 3258 0 0 3453 0 0 3373 0 0 3304 0 0 3198 0 0 3423 0 0 3256 0 0 3308 0 0 3358 0 0 3305 0 0 3346 0 0 3232 0 0 3232 0 0 3366 0 0 3271 0 0 3285 0 0 1642 0 0 0 0 0 0 0 0 0 0 0 0 0 0 0 0 0 0 0 0 0 0 0 0 0 0 0 0 0 
0 0 0 0 0 0 0 0 0 0 0 0 0 0 0 0 0 0 0 0 0 0 0 0 0 0 0 0 0 0 1729 0 0 3388 0 0 3359 0 0 3265 0 0 3385 0 0 3283 0 0 3238 0 0 3316 0 0 3255 0 0 3324 0 0 3307 0 0 3222 0 0 3330 0 0 3365 0 0 3327 0 0 3396 0 0 3441 0 0 3315 0 0 3315 0 0 3340 0 0 3384 0 0 3350 0 0 3297 0 0 3268 0 0 3454 0 0 3338 0 0 3339 0 0 3380 0 0 3382 0 0 3363 0 0 3401 0 0 3307 0 0 3320 0 0 3348 0 0 3243 0 0 3305 0 0 3279 0 0 3328 0 0 3226 0 0 3315 0 0 1682 0 0 0 0 0 0 0 0 0 0 0 0 0 0 0 0 0 0 0 0 0 0 0 0 0 0 0 0 0 
0 0 0 0 0 0 0 0 0 0 0 0 0 0 0 0 0 0 0 0 0 0 0 0 0 0 0 0 0 0 1638 0 0 3343 0 0 3165 0 0 3388 0 0 3317 0 0 3352 0 0 3343 0 0 3369 0 0 3307 0 0 3327 0 0 3282 0 0 3318 0 0 3289 0 0 3413 0 0 3266 0 0 3344 0 0 3260 0 0 3351 0 0 3377 0 0 3334 0 0 3162 0 0 3305 0 0 3310 0 0 3353 0 0 3352 0 0 3284 0 0 3371 0 0 3279 0 0 3378 0 0 3374 0 0 3394 0 0 3320 0 0 3339 0 0 3303 0 0 3295 0 0 3402 0 0 3307 0 0 3313 0 0 3270 0 0 3071 0 0 1589 0 0 0 0 0 0 0 0 0 0 0 0 0 0 0 0 0 0 0 0 0 0 0 0 0 0 0 0 0 
0 0 0 0 0 0 0 0 0 0 0 0 0 0 0 0 0 0 0 0 0 0 0 0 0 0 0 0 0 0 1670 0 0 3286 0 0 3185 0 0 3276 0 0 3438 0 0 3178 0 0 3404 0 0 3431 0 0 3341 0 0 3334 0 0 3358 0 0 3282 0 0 3351 0 0 3273 0 0 3231 0 0 3375 0 0 3374 0 0 3303 0 0 3295 0 0 3262 0 0 3452 0 0 3275 0 0 3301 0 0 3247 0 0 3363 0 0 3375 0 0 3268 0 0 3310 0 0 3284 0 0 3337 0 0 3331 0 0 3331 0 0 3349 0 0 3260 0 0 3338 0 0 3275 0 0 3309 0 0 3204 0 0 3293 0 0 3362 0 0 1725 0 0 0 0 0 0 0 0 0 0 0 0 0 0 0 0 0 0 0 0 0 0 0 0 0 0 0 0 0 
0 0 0 0 0 0 0 0 0 0 0 0 0 0 0 0 0 0 0 0 0 0 0 0 0 0 0 0 0 0 1623 0 0 3355 0 0 3294 0 0 3292 0 0 3346 0 0 3412 0 0 3316 0 0 3257 0 0 3429 0 0 3297 0 0 3295 0 0 3397 0 0 3345 0 0 3352 0 0 3280 0 0 3258 0 0 3396 0 0 3313 0 0 3322 0 0 3319 0 0 3330 0 0 3251 0 0 3307 0 0 3358 0 0 3246 0 0 3264 0 0 3337 0 0 3261 0 0 3279 0 0 3315 0 0 3356 0 0 3384 0 0 3237 0 0 3322 0 0 3364 0 0 3277 0 0 3304 0 0 3379 0 0 3345 0 0 3344 0 0 1550 0 0 0 0 0 0 0 0 0 0 0 0 0 0 0 0 0 0 0 0 0 0 0 0 0 0 0 0 0 
0 0 0 0 0 0 0 0 0 0 0 0 0 0 0 0 0 0 0 0 0 0 0 0 0 0 0 0 0 0 1745 0 0 3233 0 0 3304 0 0 3248 0 0 3300 0 0 3331 0 0 3243 0 0 3305 0 0 3260 0 0 3311 0 0 3214 0 0 3365 0 0 3213 0 0 3286 0 0 3327 0 0 3334 0 0 3210 0 0 3258 0 0 3156 0 0 3341 0 0 3390 0 0 3278 0 0 3267 0 0 3262 0 0 3279 0 0 3414 0 0 3192 0 0 3289 0 0 3244 0 0 3180 0 0 3264 0 0 3325 0 0 3356 0 0 3425 0 0 3366 0 0 3260 0 0 3323 0 0 3251 0 0 3316 0 0 3335 0 0 1679 0 0 0 0 0 0 0 0 0 0 0 0 0 0 0 0 0 0 0 0 0 0 0 0 0 0 0 0 0 
0 0 0 0 0 0 0 0 0 0 0 0 0 0 0 0 0 0 0 0 0 0 0 0 0 0 0 0 0 0 809 0 0 1659 0 0 1691 0 0 1697 0 0 1706 0 0 1661 0 0 1726 0 0 1678 0 0 1567 0 0 1602 0 0 1671 0 0 1602 0 0 1725 0 0 1591 0 0 1698 0 0 1703 0 0 1673 0 0 1575 0 0 1670 0 0 1699 0 0 1659 0 0 1714 0 0 1684 0 0 1611 0 0 1666 0 0 1571 0 0 1613 0 0 1709 0 0 1655 0 0 1691 0 0 1654 0 0 1715 0 0 1696 0 0 1622 0 0 1654 0 0 1655 0 0 1602 0 0 1627 0 0 1692 0 0 1674 0 0 847 0 0 0 0 0 0 0 0 0 0 0 0 0 0 0 0 0 0 0 0 0 0 0 0 0 0 0 0 0 
0 0 0 0 0 0 0 0 0 0 0 0 0 0 0 0 0 0 0 0 0 0 0 0 0 0 0 0 0 0 0 0 0 0 0 0 0 0 0 0 0 0 0 0 0 0 0 0 0 0 0 0 0 0 0 0 0 0 0 0 0 0 0 0 0 0 0 0 0 0 0 0 0 0 0 0 0 0 0 0 0 0 0 0 0 0 0 0 0 0 0 0 0 0 0 0 0 0 0 0 0 0 0 0 0 0 0 0 0 0 0 0 0 0 0 0 0 0 0 0 0 0 0 0 0 0 0 0 0 0 0 0 0 0 0 0 0 0 0 0 0 0 0 0 0 0 0 0 0 0 0 0 0 0 0 0 0 0 0 0 0 0 0 0 0 0 0 0 0 0 0 0 0 0 0 0 0 0 0 0 
0 0 0 0 0 0 0 0 0 0 0 0 0 0 0 0 0 0 0 0 0 0 0 0 0 0 0 0 0 0 0 0 0 0 0 0 0 0 0 0 0 0 0 0 0 0 0 0 0 0 0 0 0 0 0 0 0 0 0 0 0 0 0 0 0 0 0 0 0 0 0 0 0 0 0 0 0 0 0 0 0 0 0 0 0 0 0 0 0 0 0 0 0 0 0 0 0 0 0 0 0 0 0 0 0 0 0 0 0 0 0 0 0 0 0 0 0 0 0 0 0 0 0 0 0 0 0 0 0 0 0 0 0 0 0 0 0 0 0 0 0 0 0 0 0 0 0 0 0 0 0 0 0 0 0 0 0 0 0 0 0 0 0 0 0 0 0 0 0 0 0 0 0 0 0 0 0 0 0 0 
0 0 0 0 0 0 0 0 0 0 0 0 0 0 0 0 0 0 0 0 0 0 0 0 0 0 0 0 0 0 0 0 0 0 0 0 0 0 0 0 0 0 0 0 0 0 0 0 0 0 0 0 0 0 0 0 0 0 0 0 0 0 0 0 0 0 0 0 0 0 0 0 0 0 0 0 0 0 0 0 0 0 0 0 0 0 0 0 0 0 0 0 0 0 0 0 0 0 0 0 0 0 0 0 0 0 0 0 0 0 0 0 0 0 0 0 0 0 0 0 0 0 0 0 0 0 0 0 0 0 0 0 0 0 0 0 0 0 0 0 0 0 0 0 0 0 0 0 0 0 0 0 0 0 0 0 0 0 0 0 0 0 0 0 0 0 0 0 0 0 0 0 0 0 0 0 0 0 0 0 
0 0 0 0 0 0 0 0 0 0 0 0 0 0 0 0 0 0 0 0 0 0 0 0 0 0 0 0 0 0 0 0 0 0 0 0 0 0 0 0 0 0 0 0 0 0 0 0 0 0 0 0 0 0 0 0 0 0 0 0 0 0 0 0 0 0 0 0 0 0 0 0 0 0 0 0 0 0 0 0 0 0 0 0 0 0 0 0 0 0 0 0 0 0 0 0 0 0 0 0 0 0 0 0 0 0 0 0 0 0 0 0 0 0 0 0 0 0 0 0 0 0 0 0 0 0 0 0 0 0 0 0 0 0 0 0 0 0 0 0 0 0 0 0 0 0 0 0 0 0 0 0 0 0 0 0 0 0 0 0 0 0 0 0 0 0 0 0 0 0 0 0 0 0 0 0 0 0 0 0 
0 0 0 0 0 0 0 0 0 0 0 0 0 0 0 0 0 0 0 0 0 0 0 0 0 0 0 0 0 0 0 0 0 0 0 0 0 0 0 0 0 0 0 0 0 0 0 0 0 0 0 0 0 0 0 0 0 0 0 0 0 0 0 0 0 0 0 0 0 0 0 0 0 0 0 0 0 0 0 0 0 0 0 0 0 0 0 0 0 0 0 0 0 0 0 0 0 0 0 0 0 0 0 0 0 0 0 0 0 0 0 0 0 0 0 0 0 0 0 0 0 0 0 0 0 0 0 0 0 0 0 0 0 0 0 0 0 0 0 0 0 0 0 0 0 0 0 0 0 0 0 0 0 0 0 0 0 0 0 0 0 0 0 0 0 0 0 0 0 0 0 0 0 0 0 0 0 0 0 0 
0 0 0 0 0 0 0 0 0 0 0 0 0 0 0 0 0 0 0 0 0 0 0 0 0 0 0 0 0 0 0 0 0 0 0 0 0 0 0 0 0 0 0 0 0 0 0 0 0 0 0 0 0 0 0 0 0 0 0 0 0 0 0 0 0 0 0 0 0 0 0 0 0 0 0 0 0 0 0 0 0 0 0 0 0 0 0 0 0 0 0 0 0 0 0 0 0 0 0 0 0 0 0 0 0 0 0 0 0 0 0 0 0 0 0 0 0 0 0 0 0 0 0 0 0 0 0 0 0 0 0 0 0 0 0 0 0 0 0 0 0 0 0 0 0 0 0 0 0 0 0 0 0 0 0 0 0 0 0 0 0 0 0 0 0 0 0 0 0 0 0 0 0 0 0 0 0 0 0 0 
0 0 0 0 0 0 0 0 0 0 0 0 0 0 0 0 0 0 0 0 0 0 0 0 0 0 0 0 0 0 0 0 0 0 0 0 0 0 0 0 0 0 0 0 0 0 0 0 0 0 0 0 0 0 0 0 0 0 0 0 0 0 0 0 0 0 0 0 0 0 0 0 0 0 0 0 0 0 0 0 0 0 0 0 0 0 0 0 0 0 0 0 0 0 0 0 0 0 0 0 0 0 0 0 0 0 0 0 0 0 0 0 0 0 0 0 0 0 0 0 0 0 0 0 0 0 0 0 0 0 0 0 0 0 0 0 0 0 0 0 0 0 0 0 0 0 0 0 0 0 0 0 0 0 0 0 0 0 0 0 0 0 0 0 0 0 0 0 0 0 0 0 0 0 0 0 0 0 0 0 
0 0 0 0 0 0 0 0 0 0 0 0 0 0 0 0 0 0 0 0 0 0 0 0 0 0 0 0 0 0 0 0 0 0 0 0 0 0 0 0 0 0 0 0 0 0 0 0 0 0 0 0 0 0 0 0 0 0 0 0 0 0 0 0 0 0 0 0 0 0 0 0 0 0 0 0 0 0 0 0 0 0 0 0 0 0 0 0 0 0 0 0 0 0 0 0 0 0 0 0 0 0 0 0 0 0 0 0 0 0 0 0 0 0 0 0 0 0 0 0 0 0 0 0 0 0 0 0 0 0 0 0 0 0 0 0 0 0 0 0 0 0 0 0 0 0 0 0 0 0 0 0 0 0 0 0 0 0 0 0 0 0 0 0 0 0 0 0 0 0 0 0 0 0 0 0 0 0 0 0 
0 0 0 0 0 0 0 0 0 0 0 0 0 0 0 0 0 0 0 0 0 0 0 0 0 0 0 0 0 0 0 0 0 0 0 0 0 0 0 0 0 0 0 0 0 0 0 0 0 0 0 0 0 0 0 0 0 0 0 0 0 0 0 0 0 0 0 0 0 0 0 0 0 0 0 0 0 0 0 0 0 0 0 0 0 0 0 0 0 0 0 0 0 0 0 0 0 0 0 0 0 0 0 0 0 0 0 0 0 0 0 0 0 0 0 0 0 0 0 0 0 0 0 0 0 0 0 0 0 0 0 0 0 0 0 0 0 0 0 0 0 0 0 0 0 0 0 0 0 0 0 0 0 0 0 0 0 0 0 0 0 0 0 0 0 0 0 0 0 0 0 0 0 0 0 0 0 0 0 0 
